<?xml version="1.0" encoding="UTF-8" standalone="no"?>
<!-- Created with Inkscape (http://www.inkscape.org/) -->

<svg
   xmlns:dc="http://purl.org/dc/elements/1.1/"
   xmlns:cc="http://creativecommons.org/ns#"
   xmlns:rdf="http://www.w3.org/1999/02/22-rdf-syntax-ns#"
   xmlns:svg="http://www.w3.org/2000/svg"
   xmlns="http://www.w3.org/2000/svg"
   xmlns:xlink="http://www.w3.org/1999/xlink"
   xmlns:sodipodi="http://sodipodi.sourceforge.net/DTD/sodipodi-0.dtd"
   xmlns:inkscape="http://www.inkscape.org/namespaces/inkscape"
   width="1052.3622"
   height="744.09448"
   id="svg4357"
   version="1.1"
   inkscape:version="0.48.1 r9760"
   sodipodi:docname="author.svg"
   inkscape:export-filename="/home/substack/media/vector/do_not_write_big_apps/author.png"
   inkscape:export-xdpi="87.569527"
   inkscape:export-ydpi="87.569527">
  <defs
     id="defs4359">
    <linearGradient
       id="linearGradient14709">
      <stop
         id="stop14711"
         offset="0"
         style="stop-color:#000000;stop-opacity:0.39495799;" />
      <stop
         style="stop-color:#000000;stop-opacity:0.26890758;"
         offset="0.5"
         id="stop14713" />
      <stop
         id="stop14715"
         offset="1"
         style="stop-color:#000000;stop-opacity:0;" />
    </linearGradient>
    <radialGradient
       gradientUnits="userSpaceOnUse"
       gradientTransform="matrix(1,0,0,0.41379311,0,171.7173)"
       r="61.518291"
       fy="292.9295"
       fx="475.88287"
       cy="292.9295"
       cx="475.88287"
       id="radialGradient7559"
       xlink:href="#linearGradient7553"
       inkscape:collect="always" />
    <linearGradient
       id="linearGradient5309">
      <stop
         style="stop-color:#55f378;stop-opacity:0.17647059;"
         offset="0"
         id="stop5311" />
      <stop
         id="stop7549"
         offset="0.5"
         style="stop-color:#37f94f;stop-opacity:0.11764706;" />
      <stop
         style="stop-color:#1aff08;stop-opacity:0;"
         offset="1"
         id="stop5313" />
    </linearGradient>
    <linearGradient
       id="linearGradient14695">
      <stop
         id="stop14697"
         offset="0"
         style="stop-color:#97ff06;stop-opacity:0.63025212;" />
      <stop
         style="stop-color:#97ff06;stop-opacity:0.42857143;"
         offset="0.5"
         id="stop14699" />
      <stop
         id="stop14701"
         offset="1"
         style="stop-color:#97ff06;stop-opacity:0;" />
    </linearGradient>
    <linearGradient
       id="linearGradient14686">
      <stop
         id="stop14688"
         offset="0"
         style="stop-color:#97ff06;stop-opacity:0.63025212;" />
      <stop
         style="stop-color:#97ff06;stop-opacity:0.42857143;"
         offset="0.5"
         id="stop14690" />
      <stop
         id="stop14692"
         offset="1"
         style="stop-color:#97ff06;stop-opacity:0;" />
    </linearGradient>
    <linearGradient
       id="linearGradient14677">
      <stop
         id="stop14679"
         offset="0"
         style="stop-color:#97ff06;stop-opacity:0.63025212;" />
      <stop
         style="stop-color:#97ff06;stop-opacity:0.42857143;"
         offset="0.5"
         id="stop14681" />
      <stop
         id="stop14683"
         offset="1"
         style="stop-color:#97ff06;stop-opacity:0;" />
    </linearGradient>
    <linearGradient
       id="linearGradient6298">
      <stop
         id="stop6300"
         offset="0"
         style="stop-color:#97ff06;stop-opacity:0.63025212;" />
      <stop
         style="stop-color:#97ff06;stop-opacity:0.42857143;"
         offset="0.5"
         id="stop6306" />
      <stop
         id="stop6302"
         offset="1"
         style="stop-color:#97ff06;stop-opacity:0;" />
    </linearGradient>
    <linearGradient
       id="linearGradient14663">
      <stop
         id="stop14665"
         offset="0"
         style="stop-color:#f220b2;stop-opacity:0.66386557;" />
      <stop
         style="stop-color:#f220b2;stop-opacity:0.36974791;"
         offset="0.5"
         id="stop14667" />
      <stop
         id="stop14669"
         offset="1"
         style="stop-color:#f220b2;stop-opacity:0;" />
    </linearGradient>
    <linearGradient
       id="linearGradient14654">
      <stop
         id="stop14656"
         offset="0"
         style="stop-color:#f220b2;stop-opacity:0.66386557;" />
      <stop
         style="stop-color:#f220b2;stop-opacity:0.36974791;"
         offset="0.5"
         id="stop14658" />
      <stop
         id="stop14660"
         offset="1"
         style="stop-color:#f220b2;stop-opacity:0;" />
    </linearGradient>
    <linearGradient
       id="linearGradient14645">
      <stop
         id="stop14647"
         offset="0"
         style="stop-color:#f220b2;stop-opacity:0.66386557;" />
      <stop
         style="stop-color:#f220b2;stop-opacity:0.36974791;"
         offset="0.5"
         id="stop14649" />
      <stop
         id="stop14651"
         offset="1"
         style="stop-color:#f220b2;stop-opacity:0;" />
    </linearGradient>
    <linearGradient
       id="linearGradient6322">
      <stop
         id="stop6324"
         offset="0"
         style="stop-color:#f220b2;stop-opacity:0.66386557;" />
      <stop
         style="stop-color:#f220b2;stop-opacity:0.36974791;"
         offset="0.5"
         id="stop6357" />
      <stop
         id="stop6326"
         offset="1"
         style="stop-color:#f220b2;stop-opacity:0;" />
    </linearGradient>
    <linearGradient
       id="linearGradient14631">
      <stop
         id="stop14633"
         offset="0"
         style="stop-color:#000000;stop-opacity:0.39495799;" />
      <stop
         style="stop-color:#000000;stop-opacity:0.26890758;"
         offset="0.5"
         id="stop14635" />
      <stop
         id="stop14637"
         offset="1"
         style="stop-color:#000000;stop-opacity:0;" />
    </linearGradient>
    <linearGradient
       id="linearGradient7879">
      <stop
         id="stop7881"
         offset="0"
         style="stop-color:#55f378;stop-opacity:1;" />
      <stop
         style="stop-color:#37f940;stop-opacity:0.18487395;"
         offset="0.5"
         id="stop7921" />
      <stop
         id="stop7885"
         offset="1"
         style="stop-color:#1aff08;stop-opacity:0;" />
    </linearGradient>
    <linearGradient
       id="linearGradient7553">
      <stop
         id="stop7555"
         offset="0"
         style="stop-color:#000000;stop-opacity:0.39495799;" />
      <stop
         style="stop-color:#000000;stop-opacity:0.26890758;"
         offset="0.5"
         id="stop7561" />
      <stop
         id="stop7557"
         offset="1"
         style="stop-color:#000000;stop-opacity:0;" />
    </linearGradient>
    <linearGradient
       id="linearGradient7113-56-2">
      <stop
         id="stop7115-9-5"
         offset="0"
         style="stop-color:#55f378;stop-opacity:1;" />
      <stop
         style="stop-color:#37f940;stop-opacity:0.64705884;"
         offset="0.5"
         id="stop7117-3-4" />
      <stop
         id="stop7119-7-7"
         offset="1"
         style="stop-color:#1aff08;stop-opacity:0;" />
    </linearGradient>
  </defs>
  <sodipodi:namedview
     id="base"
     pagecolor="#689582"
     bordercolor="#666666"
     borderopacity="1.0"
     inkscape:pageopacity="1"
     inkscape:pageshadow="2"
     inkscape:zoom="0.7"
     inkscape:cx="521.6845"
     inkscape:cy="351.49315"
     inkscape:document-units="px"
     inkscape:current-layer="layer1"
     showgrid="false"
     inkscape:window-width="1364"
     inkscape:window-height="766"
     inkscape:window-x="0"
     inkscape:window-y="0"
     inkscape:window-maximized="0" />
  <metadata
     id="metadata4362">
    <rdf:RDF>
      <cc:Work
         rdf:about="">
        <dc:format>image/svg+xml</dc:format>
        <dc:type
           rdf:resource="http://purl.org/dc/dcmitype/StillImage" />
        <dc:title></dc:title>
      </cc:Work>
    </rdf:RDF>
  </metadata>
  <g
     inkscape:label="Layer 1"
     inkscape:groupmode="layer"
     id="layer1"
     transform="translate(0,-308.2677)">
    <image
       y="329.80365"
       x="18.056576"
       id="image4454"
       xlink:href="file:///home/substack/media/avatars/robot_avatar.jpg"
       height="307.68533"
       width="307.68533" />
    <path
       style="fill:none;stroke:#ffffff;stroke-width:6;stroke-linecap:round;stroke-linejoin:round;stroke-miterlimit:4;stroke-opacity:1;stroke-dasharray:none"
       d="m 385.58059,367.23514 c -9.29404,-4.74797 -32.08422,12.65848 -26.11922,22.39359 1.98297,3.23625 4.47555,6.94639 8.65447,8.60371 6.36952,2.52612 18.72714,-2.8854 21.45493,-9.76344 0.77314,-1.94946 0.91682,-4.05035 1.64899,-5.89649 1.66368,-4.19492 -0.4104,-14.37289 0.19375,-14.42502 0.33388,-0.0288 0.60589,15.35636 0.70504,16.50529 0.8489,9.83733 -0.62442,40.10257 -5.39998,45.7802 -0.74024,0.88006 -3.87246,1.77271 -5.58843,1.92079 -12.31257,1.06251 -12.58534,-9.49838 -17.30893,-17.20744"
       id="path4494"
       inkscape:connector-curvature="0"
       sodipodi:nodetypes="cssssssssc" />
    <path
       style="fill:none;stroke:#ffffff;stroke-width:6;stroke-linecap:round;stroke-linejoin:round;stroke-miterlimit:4;stroke-opacity:1;stroke-dasharray:none"
       d="m 402.79856,367.39313 c -4.17883,9.96732 3.00628,24.03239 -1.58346,33.36485"
       id="path4496"
       inkscape:connector-curvature="0" />
    <path
       style="fill:none;stroke:#ffffff;stroke-width:6;stroke-linecap:round;stroke-linejoin:round;stroke-miterlimit:4;stroke-opacity:1;stroke-dasharray:none"
       d="m 407.18712,349.33485 c -1.20585,-0.59305 -4.21063,-0.57328 -3.61759,-1.77915 0.59306,-1.20586 3.02454,2.98501 3.61759,1.77915 0.66305,-1.3482 -2.04728,-2.24859 -2.72801,-3.58794 -0.40843,-0.80361 2.47992,-0.89087 2.7043,-0.0178 0.29917,1.16411 0.0158,2.40382 0.0237,3.60573 z"
       id="path4498"
       inkscape:connector-curvature="0" />
    <path
       style="fill:none;stroke:#ffffff;stroke-width:6;stroke-linecap:round;stroke-linejoin:round;stroke-miterlimit:4;stroke-opacity:1;stroke-dasharray:none"
       d="m 422.54111,353.7412 c -3.74333,10.46996 -9.61868,45.13683 5.70509,45.03602 3.38349,-0.0223 6.10657,-0.7428 8.0951,-2.75767"
       id="path4500"
       inkscape:connector-curvature="0" />
    <path
       style="fill:none;stroke:#ffffff;stroke-width:6;stroke-linecap:round;stroke-linejoin:round;stroke-miterlimit:4;stroke-opacity:1;stroke-dasharray:none"
       d="m 413.62167,368.22341 c 5.95669,-0.16456 16.77204,-1.63512 21.6403,0.75912"
       id="path4502"
       inkscape:connector-curvature="0" />
    <path
       style="fill:none;stroke:#ffffff;stroke-width:6;stroke-linecap:round;stroke-linejoin:round;stroke-miterlimit:4;stroke-opacity:1;stroke-dasharray:none"
       d="m 447.70412,341.85654 c -2.1531,5.70741 -2.62023,12.79643 -2.57977,18.94786 0.0253,3.84443 -1.564,39.67502 -3.34482,39.68674 -3.09944,0.0204 3.50652,-24.4862 4.3352,-26.17118 4.19348,-8.52673 16.08956,-2.15428 18.95379,3.4812 2.70991,5.33184 1.93463,20.01991 1.9689,25.22823"
       id="path4504"
       inkscape:connector-curvature="0" />
    <path
       style="fill:none;stroke:#ffffff;stroke-width:6;stroke-linecap:round;stroke-linejoin:round;stroke-miterlimit:4;stroke-opacity:1;stroke-dasharray:none"
       d="m 478.54849,371.40219 c -1.2977,3.80287 -0.85031,7.77655 -0.82434,11.72454 0.0245,3.72123 2.07618,9.42355 3.68875,12.59633 12.27075,24.14316 33.24597,-16.89457 19.67732,-23.56769"
       id="path4506"
       inkscape:connector-curvature="0" />
    <path
       style="fill:none;stroke:#ffffff;stroke-width:6;stroke-linecap:round;stroke-linejoin:round;stroke-miterlimit:4;stroke-opacity:1;stroke-dasharray:none"
       d="m 514.42787,344.12204 c -4.13123,6.59951 -2.10476,18.21768 -0.72946,26.14745 0.88399,5.09696 0.0726,11.03213 0.10674,16.22578 0.0305,4.63182 -0.84757,8.19378 -0.81842,12.62598 0.008,1.2019 1.22563,3.59781 0.0237,3.60572 -2.0803,0.0137 -0.0815,-12.38988 -0.089,-13.52148 -0.0669,-10.17787 6.46642,-25.36887 18.81741,-17.25173 1.7199,1.13033 5.4255,4.44651 6.35153,6.26851 1.08902,2.1427 0.0123,8.1963 -0.8362,9.92169 -1.29666,2.6365 -0.50358,6.50488 -1.74357,9.02617 -3.93592,8.00302 -18.11857,6.2989 -22.52394,1.95112"
       id="path4508"
       inkscape:connector-curvature="0" />
    <path
       style="fill:none;stroke:#ffffff;stroke-width:6;stroke-linecap:round;stroke-linejoin:round;stroke-miterlimit:4;stroke-opacity:1;stroke-dasharray:none"
       d="m 552.69124,405.17036 c -1.20783,-0.89352 -4.51704,-1.47274 -3.62352,-2.68058 0.89354,-1.20785 3.63341,4.18296 3.62352,2.68058 -0.0127,-1.924 -2.63464,-2.84014 -3.63538,-4.48344 -0.14037,-0.23051 5.21327,-2.01951 6.3041,-0.94294 1.43466,1.41591 -1.64304,3.69114 -2.66872,5.42638 z"
       id="path4510"
       inkscape:connector-curvature="0" />
    <path
       style="fill:none;stroke:#ffffff;stroke-width:6;stroke-linecap:round;stroke-linejoin:round;stroke-miterlimit:4;stroke-opacity:1;stroke-dasharray:none"
       d="m 590.30826,367.9626 c -12.35494,-16.17207 -32.46095,23.29753 -17.84481,28.06298 4.283,1.39644 7.47392,-0.0492 11.71861,-0.0771"
       id="path4512"
       inkscape:connector-curvature="0" />
    <path
       style="fill:none;stroke:#ffffff;stroke-width:6;stroke-linecap:round;stroke-linejoin:round;stroke-miterlimit:4;stroke-opacity:1;stroke-dasharray:none"
       d="m 614.6825,373.21109 c -1.20784,-0.89354 -4.51704,-1.47274 -3.62352,-2.68059 0.89353,-1.20783 5.12591,2.6707 3.62352,2.68059 -2.90656,0.0191 -6.17496,-4.54937 -9.93354,-2.63908 -13.39823,6.80965 -14.49571,30.74537 2.90591,30.6309 1.22396,-0.008 4.36269,0.496 5.4086,-0.0356 13.04399,-6.62961 15.83941,-22.37633 1.61903,-27.95624 z"
       id="path4514"
       inkscape:connector-curvature="0" />
    <path
       style="fill:none;stroke:#ffffff;stroke-width:6;stroke-linecap:round;stroke-linejoin:round;stroke-miterlimit:4;stroke-opacity:1;stroke-dasharray:none"
       d="m 631.80378,372.19698 c 0.0297,4.50716 0.0593,9.01432 0.0889,13.52149 0.0197,2.99851 0.93969,5.8101 0.96073,9.00838 0.002,0.29244 1.71034,8.10199 0.9548,8.10696 -0.60096,0.004 -0.008,-1.20191 -0.0119,-1.80287 -0.0146,-2.21804 -0.5648,-5.08258 -0.0474,-7.21145 1.20264,-4.94871 1.88322,-19.04607 7.06914,-21.68181 0.71877,-0.36532 1.98552,0.34753 2.70429,-0.0178 0.73056,-0.3713 0.73645,-1.43483 1.79694,-0.91329 5.61118,2.75961 7.88709,27.89372 6.49385,27.90289 -1.20192,0.008 -0.0158,-2.40382 -0.0237,-3.60573 -0.0549,-8.35069 1.20062,-26.15056 12.44808,-26.22455 0.70583,-0.005 4.0544,-0.47648 4.50715,-0.0297 5.06216,4.99599 9.10882,14.30567 9.16257,22.47651 0.0207,3.13892 2.29761,13.01453 0.97852,11.71269"
       id="path4516"
       inkscape:connector-curvature="0" />
    <path
       style="fill:none;stroke:#ffffff;stroke-width:6;stroke-linecap:round;stroke-linejoin:round;stroke-miterlimit:4;stroke-opacity:1;stroke-dasharray:none"
       d="m 740.95951,346.12905 c -17.77952,17.13302 -43.17857,52.68614 -49.0747,76.94785 -0.74044,3.04679 -3.54937,8.59178 -3.54644,9.03804"
       id="path4518"
       inkscape:connector-curvature="0" />
    <path
       style="fill:none;stroke:#ffffff;stroke-width:6;stroke-linecap:round;stroke-linejoin:round;stroke-miterlimit:4;stroke-opacity:1;stroke-dasharray:none"
       d="m 757.01745,374.5426 c -7.40354,-7.92906 -20.09816,-2.19985 -15.29087,7.25864 2.07238,4.07747 24.93878,12.81688 16.50177,21.36559 -6.1141,6.19509 -29.35522,-7.98751 -23.57208,-8.02556"
       id="path4546"
       inkscape:connector-curvature="0" />
    <path
       style="fill:none;stroke:#ffffff;stroke-width:6;stroke-linecap:round;stroke-linejoin:round;stroke-miterlimit:4;stroke-opacity:1;stroke-dasharray:none"
       d="m 773.39149,376.48005 c -1.42415,4.30107 -1.31244,8.18077 0.0807,12.27041 1.54045,4.5219 2.17404,9.32402 4.17759,13.26604 10.08429,19.84117 28.20876,-26.7726 14.14059,-26.68006"
       id="path4548"
       inkscape:connector-curvature="0" />
    <path
       style="fill:none;stroke:#ffffff;stroke-width:6;stroke-linecap:round;stroke-linejoin:round;stroke-miterlimit:4;stroke-opacity:1;stroke-dasharray:none"
       d="m 809.96731,340.44921 c 0.0359,5.45351 0.0717,10.90702 0.10762,16.36053 0.0439,6.67635 1.10698,12.83656 1.15029,19.42143 0.035,5.31214 -0.95578,10.14635 -0.92159,15.34473 0.0202,3.06761 3.12813,9.18262 0.0605,9.2028 -0.76215,0.005 0.67267,-1.36785 1.00903,-2.05179 1.2073,-2.45477 0.10931,-7.6373 0.9553,-10.23206 3.97792,-12.20064 13.77088,-18.7781 26.51864,-10.40023 4.88609,3.21121 5.44388,16.10031 2.17285,19.4147 -2.22885,2.25833 -6.88465,3.49913 -10.19171,5.17993 -6.62823,3.36879 -13.35315,-4.01908 -17.42342,-6.02086"
       id="path4550"
       inkscape:connector-curvature="0" />
    <path
       style="fill:none;stroke:#ffffff;stroke-width:6;stroke-linecap:round;stroke-linejoin:round;stroke-miterlimit:4;stroke-opacity:1;stroke-dasharray:none"
       d="m 880.77774,378.84136 c -2.2901,-9.19766 -25.75172,-3.23037 -21.43959,5.25394 4.33795,8.53504 31.00732,6.37806 21.64138,25.4221 -3.42174,6.95745 -22.66872,-4.22959 -24.59461,-8.01884 -1.19475,-2.35066 1.875,-0.18129 2.04503,-0.0135"
       id="path4552"
       inkscape:connector-curvature="0" />
    <path
       style="fill:none;stroke:#ffffff;stroke-width:6;stroke-linecap:round;stroke-linejoin:round;stroke-miterlimit:4;stroke-opacity:1;stroke-dasharray:none"
       d="m 903.15916,361.31032 c -3.19227,8.29183 -6.14113,52.8799 9.49874,44.93094 3.98296,-2.02433 7.05139,-0.96868 10.19842,-4.15739"
       id="path4554"
       inkscape:connector-curvature="0" />
    <path
       style="fill:none;stroke:#ffffff;stroke-width:6;stroke-linecap:round;stroke-linejoin:round;stroke-miterlimit:4;stroke-opacity:1;stroke-dasharray:none"
       d="m 888.97821,381.85516 c 8.25719,-3.65304 18.5062,-2.1669 27.59494,-2.22669"
       id="path4556"
       inkscape:connector-curvature="0" />
    <path
       style="fill:none;stroke:#ffffff;stroke-width:6;stroke-linecap:round;stroke-linejoin:round;stroke-miterlimit:4;stroke-opacity:1;stroke-dasharray:none"
       d="m 932.94713,381.56593 c 0.87188,-6.29532 6.97457,-7.20393 13.2459,-7.24518 15.27811,-0.10051 5.29449,27.61255 5.3346,33.70998"
       id="path4558"
       inkscape:connector-curvature="0" />
    <path
       style="fill:none;stroke:#ffffff;stroke-width:6;stroke-linecap:round;stroke-linejoin:round;stroke-miterlimit:4;stroke-opacity:1;stroke-dasharray:none"
       d="m 987.14143,381.20942 c -12.85814,-13.47233 -31.44066,16.27793 -12.12239,22.57646 5.65361,1.8433 12.37299,0.8931 16.35382,-1.13015"
       id="path4562"
       inkscape:connector-curvature="0" />
    <path
       style="fill:none;stroke:#ffffff;stroke-width:6;stroke-linecap:round;stroke-linejoin:round;stroke-miterlimit:4;stroke-opacity:1;stroke-dasharray:none"
       d="m 1006.3342,345.29293 c -5.6789,18.42714 -2.7892,42.34001 -2.6572,62.39475"
       id="path4564"
       inkscape:connector-curvature="0" />
    <path
       style="fill:none;stroke:#ffffff;stroke-width:6;stroke-linecap:round;stroke-linejoin:round;stroke-miterlimit:4;stroke-opacity:1;stroke-dasharray:none"
       d="m 1022.9503,384.04159 c -3.3384,0.006 -7.2921,2.09312 -10.2118,2.11233 -2.5856,0.017 -3.0901,1.05756 -5.0993,2.07871 -0.9115,0.46331 -2.0996,-0.30955 -3.0676,0.0202 -11.96932,4.07746 18.5027,14.63417 18.5267,18.28453"
       id="path4566"
       inkscape:connector-curvature="0" />
    <path
       style="fill:none;stroke:#ffffff;stroke-width:6;stroke-linecap:round;stroke-linejoin:round;stroke-miterlimit:4;stroke-opacity:1;stroke-dasharray:none"
       d="m 951.60117,391.01659 c -1.35127,-0.66456 -4.71838,-0.64241 -4.05381,-1.99368 0.66455,-1.35127 5.55962,1.98378 4.05381,1.99368 -1.55828,0.0103 -8.25813,-3.05452 -10.12789,-3.97407 -3.23127,-1.58915 -10.07221,4.48936 -10.04814,8.14749 0.007,1.03414 -2.2929,4.76209 -0.97027,6.06743 1.99567,1.96958 3.42759,4.38637 5.09053,6.02756 3.7646,3.7154 17.17754,0.69674 17.14564,-4.15348"
       id="path4579"
       inkscape:connector-curvature="0" />
    <path
       style="fill:none;stroke:#ffff00;stroke-width:4;stroke-linecap:round;stroke-linejoin:round;stroke-opacity:1;stroke-miterlimit:4;stroke-dasharray:none"
       d="m 386.45703,505.63289 c -2.48781,-7.41991 -4.75279,-10.97886 -9.48311,-15.18153 -8.86304,-7.87441 -33.02792,11.78064 -27.34242,21.64991 7.56574,13.13313 23.22104,8.46959 32.46894,16.68594 2.40336,2.13526 4.72782,9.60543 6.37823,11.07174 1.01173,0.89888 2.33674,4.97436 0.42118,7.13044 -3.8748,4.36127 -8.74719,7.98831 -13.67122,10.82495 -10.16243,5.85438 -30.62657,-9.72242 -31.04286,-16.77018"
       id="path5089"
       inkscape:connector-curvature="0" />
    <path
       style="fill:none;stroke:#ffff00;stroke-width:4;stroke-linecap:round;stroke-linejoin:round;stroke-opacity:1;stroke-miterlimit:4;stroke-dasharray:none"
       d="m 407.09019,491.53459 c -2.24343,11.57059 -1.88861,64.01414 17.63027,56.20108 20.67652,-8.27643 24.93464,-13.958 23.47943,-38.59447 -0.25509,-4.31859 -1.46891,-24.20193 -5.45756,-19.71249"
       id="path5104"
       inkscape:connector-curvature="0" />
    <path
       style="fill:none;stroke:#ffff00;stroke-width:4;stroke-linecap:round;stroke-linejoin:round;stroke-opacity:1;stroke-miterlimit:4;stroke-dasharray:none"
       d="m 561.61287,490.9937 c -2.32563,-10.08219 -35.01707,-9.59037 -26.92715,4.45264 4.50004,7.81146 40.04013,11.9901 30.62759,33.96744 -1.37715,3.21551 0.63732,8.24854 -0.75221,11.49292 -6.86934,16.03925 -32.2916,-13.68365 -32.30047,-13.83377"
       id="path5108"
       inkscape:connector-curvature="0" />
    <path
       style="fill:none;stroke:#ffff00;stroke-width:4;stroke-linecap:round;stroke-linejoin:round;stroke-opacity:1;stroke-miterlimit:4;stroke-dasharray:none"
       d="m 595.66455,461.79218 c -2.69351,8.16327 -0.54483,16.19664 -1.42017,24.41194 -0.42412,3.98046 -3.29648,56.52608 -0.82462,58.72222 5.42918,4.82357 30.43361,-1.28048 32.54727,-6.21567"
       id="path5110"
       inkscape:connector-curvature="0" />
    <path
       style="fill:none;stroke:#ffff00;stroke-width:4;stroke-linecap:round;stroke-linejoin:round;stroke-opacity:1;stroke-miterlimit:4;stroke-dasharray:none"
       d="m 580.48893,495.60298 c 0.66163,-0.51465 33.22026,-5.23243 48.73962,1.41426"
       id="path5112"
       inkscape:connector-curvature="0" />
    <path
       style="fill:none;stroke:#ffff00;stroke-width:4;stroke-linecap:round;stroke-linejoin:round;stroke-opacity:1;stroke-miterlimit:4;stroke-dasharray:none"
       d="m 466.39024,453.68642 c 12.26642,30.75896 3.8515,65.20517 5.64376,95.54774"
       id="path5125"
       inkscape:connector-curvature="0" />
    <path
       style="fill:none;stroke:#ffff00;stroke-width:4;stroke-linecap:round;stroke-linejoin:round;stroke-opacity:1;stroke-miterlimit:4;stroke-dasharray:none"
       d="m 472.27488,504.85703 c 25.82711,-22.45006 28.49298,-9.41377 40.77276,11.90227 0.83645,1.45198 -0.7843,6.05942 0.42118,7.13043 0.90723,0.80604 3.02922,4.28644 1.84726,7.04619 -6.64401,15.51309 -28.65332,29.6133 -41.01955,8.14717"
       id="path5140"
       inkscape:connector-curvature="0" />
    <path
       style="fill:none;stroke:#ffff00;stroke-width:4;stroke-linecap:round;stroke-linejoin:round;stroke-opacity:1;stroke-miterlimit:4;stroke-dasharray:none"
       d="m 650.95678,501.45805 c 2.14769,-7.74718 -2.39681,-3.04308 5.28317,-7.46736 11.4454,-6.59349 22.29065,-6.10168 28.94289,5.44571 1.3406,2.32712 0.61122,6.18046 1.9315,8.47228 1.46743,2.54728 3.72213,10.78241 2.26844,14.17663 -3.78983,8.84887 -6.08476,18.12415 -5.52996,27.51681"
       id="path5142"
       inkscape:connector-curvature="0" />
    <path
       style="fill:none;stroke:#ffff00;stroke-width:4;stroke-linecap:round;stroke-linejoin:round;stroke-opacity:1;stroke-miterlimit:4;stroke-dasharray:none"
       d="m 683.8469,525.27442 c -5.73239,-3.60322 -9.40905,-6.59954 -16.10811,-6.20384 -5.00729,0.29577 -8.42819,3.35996 -12.66631,3.6103 -4.0438,0.23885 -3.18899,2.57441 -6.87772,4.69942 -21.68574,12.49275 10.14786,46.37216 30.03795,23.98485 3.41488,-3.84363 6.85091,-5.15329 6.54078,-10.40378"
       id="path5144"
       inkscape:connector-curvature="0" />
    <path
       style="fill:none;stroke:#ffff00;stroke-width:4;stroke-linecap:round;stroke-linejoin:round;stroke-opacity:1;stroke-miterlimit:4;stroke-dasharray:none"
       d="m 728.04965,498.33544 c -43.72346,-5.17581 -30.88598,72.35348 8.65257,49.57606"
       id="path5146"
       inkscape:connector-curvature="0" />
    <path
       style="fill:none;stroke:#ffff00;stroke-width:4;stroke-linecap:round;stroke-linejoin:round;stroke-opacity:1;stroke-miterlimit:4;stroke-dasharray:none"
       d="m 755.30192,450.93175 c -1.26831,6.81522 -2.08184,13.20992 -1.67287,20.13367 1.00973,17.09454 0.62769,34.85446 1.60637,51.42332 0.3749,6.34689 -0.64759,13.26391 -0.24679,20.04944 0.25271,4.27826 5.03639,12.58207 0.75812,12.83478 -0.95072,0.0562 -0.11231,-1.90146 -0.16847,-2.85218"
       id="path5148"
       inkscape:connector-curvature="0" />
    <path
       style="fill:none;stroke:#ffff00;stroke-width:4;stroke-linecap:round;stroke-linejoin:round;stroke-opacity:1;stroke-miterlimit:4;stroke-dasharray:none"
       d="m 792.30774,495.97094 c -8.22575,1.70713 -14.14574,6.21771 -20.80164,11.24613 -7.96211,6.01525 -17.16939,10.19964 -21.97501,15.60862 -6.81759,7.67353 16.41451,8.15749 19.12876,8.88754 14.27629,3.83989 27.95328,20.36613 33.22706,29.52071"
       id="path5150"
       inkscape:connector-curvature="0" />
    <path
       style="fill:none;stroke:#ffff00;stroke-width:4;stroke-linecap:round;stroke-linejoin:round;stroke-opacity:1;stroke-miterlimit:4;stroke-dasharray:none"
       d="m 824.53581,557.03401 c -1.9576,-0.83841 -6.71121,-0.55763 -5.8728,-2.51523 0.8384,-1.95761 5.99837,4.64111 5.8728,2.51523 -0.17979,-3.04381 -4.40532,-4.27596 -6.12551,-6.7935 -0.14247,-0.20849 8.22462,-2.73256 9.89836,-2.01573 6.79062,2.90832 8.72483,10.54999 -3.77285,8.80923 z"
       id="path5152"
       inkscape:connector-curvature="0" />
    <path
       style="fill:none;stroke:#ffff00;stroke-width:4;stroke-linecap:round;stroke-linejoin:round;stroke-opacity:1;stroke-miterlimit:4;stroke-dasharray:none"
       d="m 855.19175,486.2273 c -4.84364,8.6432 -1.41382,19.20308 0.67302,28.59921 1.10456,4.97329 1.05868,14.01126 0.93729,18.6027 -0.12633,4.77901 1.94011,27.20362 0.71078,27.17113 -2.70942,-0.0716 -2.44598,-15.59121 -2.36537,-18.64045 0.61329,-23.19872 10.1363,-56.14147 34.01601,-43.40195 16.10753,8.59318 5.53732,54.09514 9.76346,63.13722"
       id="path5154"
       inkscape:connector-curvature="0" />
    <path
       style="fill:none;stroke:#ffff00;stroke-width:4;stroke-linecap:round;stroke-linejoin:round;stroke-opacity:1;stroke-miterlimit:4;stroke-dasharray:none"
       d="m 919.9934,525.63647 c 8.5714,0.11947 16.4749,-5.26632 23.9907,-5.71026 37.8161,-2.2337 19.0655,-33.83975 -8.2254,-18.11795 -13.8395,7.97264 -15.9452,20.78231 -15.0072,36.66298 1.4375,24.33633 39.9172,20.39105 46.1402,5.86099"
       id="path5156"
       inkscape:connector-curvature="0" />
    <path
       style="fill:none;stroke:#ffff00;stroke-width:4;stroke-linecap:round;stroke-linejoin:round;stroke-opacity:1;stroke-miterlimit:4;stroke-dasharray:none"
       d="m 992.7962,474.11117 c -1.9066,10.83294 -3.0805,20.531 -2.4251,31.62659 0.2258,3.82217 0.3976,43.59311 1.1852,44.29289 9.9855,8.87166 30.0694,10.92946 36.9098,-5.04229"
       id="path5158"
       inkscape:connector-curvature="0" />
    <path
       style="fill:none;stroke:#ffff00;stroke-width:4;stroke-linecap:round;stroke-linejoin:round;stroke-opacity:1;stroke-miterlimit:4;stroke-dasharray:none"
       d="m 971.7478,505.40673 c 11.692,0.1452 47.586,-5.01563 51.4232,-1.60638"
       id="path5160"
       inkscape:connector-curvature="0" />
    <image
       y="703.2193"
       x="740.00006"
       id="image5518"
       xlink:href="file:///home/substack/media/vector/saucer.png"
       height="304"
       width="300" />
    <g
       id="g7428"
       transform="matrix(1.7768187,0,0,1.7768187,-774.5116,48.163702)"
       inkscape:export-filename="/home/substack/projects/testling-server/static/images/saucer_landing.png"
       inkscape:export-xdpi="67.467293"
       inkscape:export-ydpi="67.467293">
      <path
         sodipodi:nodetypes="csccccssccssc"
         inkscape:connector-curvature="0"
         id="path6955"
         d="m 518.11688,532.95062 c 2.54984,0.77317 11.33923,0.68159 14.49569,-2.47487 0.42421,-0.42421 1.06644,-0.35934 1.41422,-0.70711 0.13024,-0.13024 2.94259,-2.00715 2.82842,-2.12132 -0.16251,-0.16252 -1.22025,-0.53033 -1.59099,-0.53033 -1.58693,-0.24486 -4.59435,-1.58125 -6.16941,-1.45711 -0.77949,0 -4.36171,-0.96824 -5.90318,-0.67677 -0.18534,0.0351 0.57044,2.15721 0.40533,2.48743 -0.19995,0.3999 -0.10043,1.51464 -0.35355,1.76777 -0.2357,0.2357 -0.11785,0.82496 -0.35356,1.06066 -0.68598,0.68598 -0.92852,1.63563 -1.59099,2.2981 -0.26516,0.26516 -1.14904,-0.0884 -1.41421,0.17677 -0.45031,0.45032 -0.80071,0.37019 -1.76777,0.17678 z"
         style="fill:#c8b7b7;fill-opacity:1;stroke:#000000;stroke-width:3;stroke-linecap:butt;stroke-linejoin:round;stroke-miterlimit:4;stroke-opacity:1;stroke-dasharray:none" />
      <path
         sodipodi:nodetypes="csscscsssssssscc"
         inkscape:connector-curvature="0"
         id="path6854"
         d="m 508.44852,453.34888 c 10.12176,5.24646 12.59306,13.41123 17.74826,19.91194 1.10289,1.39075 1.44001,3.5691 1.89094,5.2009 0.6362,2.30226 0.0913,3.57183 -0.0606,6.18722 -0.41039,3.02667 -1.40361,5.25963 -2.57399,7.05157 -2.5519,3.90718 -2.90791,6.41998 -5.00439,10.6773 -1.18783,1.84722 -3.08571,5.41995 -3.98625,7.37746 -1.82469,3.96633 -2.69271,6.67188 -6.6867,9.8392 -3.77071,2.99025 -6.45009,8.16613 -10.40853,3.17455 -1.01018,-1.27383 0.98009,-5.56328 1.78344,-6.20035 0.7509,-0.59548 8.7797,-12.3262 10.2882,-14.63584 0.48415,-0.74128 0.36996,-2.20781 1.02679,-2.72869 1.61967,-1.28444 5.04468,-10.28139 5.24801,-12.04281 0.15908,-1.37815 1.14608,-4.99234 0.33802,-6.01131 -5.17762,-6.52898 -11.93968,-13.44653 -17.24945,-20.14216 -0.26402,-0.33294 0.80181,-0.31679 1.13475,-0.58081"
         style="fill:#c8b7b7;fill-opacity:1;stroke:#000000;stroke-width:3;stroke-linecap:butt;stroke-linejoin:miter;stroke-miterlimit:4;stroke-opacity:1;stroke-dasharray:none" />
      <path
         inkscape:connector-curvature="0"
         id="path7345"
         d="m 514.75,466.86218 c 0.51119,0.21811 3.64757,1.89757 5.25,3.5 0.91295,0.91295 1.21451,1.96451 2,2.75 0.65433,0.65433 1.09568,2.59568 1.75,3.25 0.70833,0.70834 -0.20833,3.04167 0.5,3.75 0.43161,0.43161 0.19054,0.88109 0.5,1.5 1.79802,3.59604 0.42915,8.32085 -1.75,10.5 -0.6805,0.68051 -0.75906,2.25906 -1.5,3 -0.48916,0.48916 -1.13708,5.13709 -2.25,6.25 -0.58333,0.58334 -0.16667,2.16667 -0.75,2.75 -2.06448,2.06449 -3.65818,8.15819 -5.25,9.75 -0.77076,0.77076 -0.90749,1.9075 -1.5,2.5 -0.54301,0.54301 -7.01845,5.73156 -8.25,4.5 -0.17072,-0.17072 1.91472,-1.91472 2.25,-2.25 0.33333,-0.33333 1.41667,0.0833 1.75,-0.25 1.83676,-1.83675 2.38474,-4.88474 3.75,-6.25 0.75341,-0.75341 0.75951,-4.5095 1.5,-5.25 1.24022,-1.24022 1.91118,-5.91117 2.5,-6.5 0.93221,-0.93221 1.21311,-2.96311 2,-3.75 1.85853,-1.85853 2.39147,-4.14147 4.25,-6 0.91702,-0.91701 0.44912,-2.69912 1.25,-3.5 0.29167,-0.29166 -0.29167,-1.45833 0,-1.75 0.37965,-0.37965 0.56857,-3.68142 0,-4.25 -0.92931,-0.92931 -1.82069,-1.32069 -2.75,-2.25 -0.33333,-0.33333 -1.16667,-0.16666 -1.5,-0.5 -1.65883,-1.65882 -4.24705,-3.99704 -6,-5.75 -0.33204,-0.33204 0.43885,-6.18885 0.5,-6.25 0.42899,-0.42898 1.18672,0.27469 1.75,0.5 z"
         style="fill:#ae9595;fill-opacity:1;stroke:none" />
      <path
         inkscape:connector-curvature="0"
         id="path7347"
         d="m 502.5,517.36218 c -0.16579,-0.97253 2.06809,-2.56809 3.75,-4.25 1.93326,-1.93325 2.26663,-4.53326 3.5,-7 0.58512,-1.17023 2.21616,-3.46615 3,-4.25 0.1249,-0.12489 1.18381,-1.81619 1.25,-1.75 0.61514,0.61514 -1.1591,3.31821 -1.5,4 -0.52325,1.04651 -0.19992,2.69992 -1,3.5 -2.88259,2.88259 -3.66488,10.81703 -9,9.75 z"
         style="fill:#d9cdcd;fill-opacity:1;stroke:none" />
      <path
         inkscape:connector-curvature="0"
         id="path7388"
         d="m 518.75,479.61218 c 0.33333,0.33334 1.33333,0.66667 1,1 -0.33333,0.33334 -1.33333,-1.33333 -1,-1 1.40421,1.40421 4.37803,5.12197 2.5,7 -0.20833,0.20834 -0.0417,0.79167 -0.25,1 -0.43356,0.43356 -0.36721,1.61722 -0.75,2 -0.15858,0.15858 0.10407,0.79185 0,1 -0.36905,0.73811 -1,1.45315 -1,2.25 -0.33333,-0.41667 -0.70402,-0.80602 -1,-1.25 -0.38792,-0.58188 0.67209,-4.34419 1,-5 0.81293,-1.62585 -0.1316,-5.52639 -0.5,-7 z"
         style="fill:#d9cdcd;fill-opacity:1;stroke:none" />
      <path
         sodipodi:nodetypes="cssssscsssssssscc"
         inkscape:connector-curvature="0"
         id="path6824"
         d="m 489.75,467.86218 c 2.61041,0.71519 15.68837,6.68837 20.75,11.75 1.92687,1.92688 3.75778,4.75778 6,7 2.71232,2.71232 3.29731,7.12588 4.82322,10.78769 1.01033,2.42454 0.74503,6.96493 1.06066,8.65685 0.819,4.39017 1.11612,7.03286 1.11612,12.05546 0,8.12972 2.06958,13.02141 -0.84835,16.11612 -1.54656,1.36979 -2.35811,0.99318 -4.15165,0.88388 -2.90092,-0.17678 -2.5,-4.43096 -2.5,-7.5 0,-2.65811 0.60297,-8.00618 0.5,-9.5 -0.30101,-4.36688 -2.08613,-12.60576 -2.84835,-16.7981 -0.45558,-2.50577 -1.22774,-6.80832 -3.73744,-10.2019 -1.18998,-1.60908 -2.95796,-4.54374 -4.41421,-6 -1.63866,-1.63866 -7.01868,-6.5 -9,-6.5 -1.55609,0 -2.64558,-1.13529 -4.625,-2.125 -0.86419,-0.43209 -1.90257,-1.02756 -3.375,-1.875 -2.4485,-5.0735 1.25,-6.75 1.25,-6.75 z"
         style="fill:#c8b7b7;fill-opacity:1;stroke:#000000;stroke-width:3;stroke-linecap:butt;stroke-linejoin:round;stroke-miterlimit:4;stroke-opacity:1;stroke-dasharray:none" />
      <path
         sodipodi:nodetypes="csssssssssssc"
         inkscape:connector-curvature="0"
         id="path6766"
         d="m 462.65623,440.81217 c 1.70531,-7.25558 7.6529,-12.91404 14.72646,-15.27189 1.86813,-0.62271 4.07674,-1.34962 5.45425,-2.72712 0.7068,-0.70682 3.18134,-0.49983 4.3634,-1.09086 3.41947,-1.70973 13.40354,0.31336 14.72646,1.63628 0.36362,0.36362 1.81809,-0.36361 2.18171,0 3.20758,3.20759 8.39316,5.12062 11.45391,8.18137 1.47669,1.47669 1.9796,6.34299 3.27255,7.63595 1.16791,1.16791 0.29329,2.76827 1.09085,4.3634 5.33811,10.67621 -5.30816,26.57974 -11.45392,32.72548 -5.11524,5.11525 -17.86365,5.58962 -23.45326,3.81797 -2.40806,-0.76324 -6.75673,-0.4217 -12.54478,-5.99967 -8.07325,-7.78022 -11.47221,-20.70327 -9.81763,-33.27091 z"
         style="fill:#ac9393;stroke:#000000;stroke-width:3;stroke-linecap:butt;stroke-linejoin:miter;stroke-miterlimit:4;stroke-opacity:1;stroke-dasharray:none" />
      <path
         inkscape:connector-curvature="0"
         id="path7298"
         d="m 509,429.86218 c -1.3479,-0.0533 -9.24314,1.48629 -11,5 -0.24544,0.49088 0.0854,1.33535 0.25,1.5 0.003,0.003 -0.0264,0.97357 0.25,1.25 0.65874,0.65874 1.42365,1.17365 2,1.75 0.66446,0.66447 4.62204,0.37204 5.75,1.5 0.97698,0.97698 1.51001,2.76001 2.5,3.75 0.16667,0.16667 -0.16667,0.83334 0,1 0.71004,0.71004 -0.0573,2.55725 -0.5,3 -1.57165,1.57165 -3.55213,2.80213 -5,4.25 -1.3623,1.3623 1.52971,4.97029 0.25,6.25 -1.97654,1.97654 -9.27569,2.02569 -11,3.75 -2.83896,2.83897 0.0727,4.46363 -3,6 -0.60883,0.30442 -2.25867,-0.004 -2.75,-0.25 -0.90824,-0.45412 -2.31401,-0.032 -3.25,-0.5 -4.52995,-2.26498 -5.63997,-4.61003 -9.75,-0.5 -1.50909,1.50909 -0.3406,5.1594 1,6.5 0.77103,0.77103 2.24752,1.24752 3,2 0.39845,0.39845 2.37416,0.12584 1.75,0.75 1.91891,2.75495 5.67711,0.46355 8.25,1.75 0.46667,0.23334 1.28333,-0.23333 1.75,0 5.55296,2.77648 16.00655,-1.75655 19,-4.75 1.49859,-1.49859 2.46918,-3.71918 4,-5.25 1.18703,-1.18702 1.88651,-6.1365 2.75,-7 1.754,-1.754 1.78018,-4.78018 3.5,-6.5 0.72259,-0.72259 -1.05875,-7.69125 -0.75,-8 0.0733,-0.0733 0.32721,-1.42279 0,-1.75 -0.52162,-0.52162 -0.61563,-2.11563 -1.25,-2.75 -0.5,-0.5 0.5,-2.5 0,-3 -2.07134,-2.07134 -2.65409,-6.90409 -4.25,-8.5 -0.59211,-0.5921 -1.72153,-0.0329 -2.5,-0.5 -0.35729,-0.21437 -0.62732,-0.93634 -1,-0.75 -0.72429,0.36214 1.63286,1.69143 0.25,1"
         style="fill:#9f8383;fill-opacity:1;stroke:none" />
      <path
         sodipodi:nodetypes="cssccsssssssscsccsssssssssccscc"
         inkscape:connector-curvature="0"
         id="path7313"
         d="m 475.5137,472.31621 c 0.46861,-0.3642 3.59451,-1.38472 6.01041,-0.17677 0.44527,0.22263 1.50478,1.85833 1.94454,2.29809 0.0244,0.0244 1.94743,0.53178 2.2981,0.70711 0.64526,0.32263 1.96038,-0.62664 2.47487,-0.88388 0.96063,-0.48032 2.55973,0.31112 3.53554,-0.17678 0.94966,-0.47483 1.87649,-0.93825 2.82842,-1.41421 0.63278,-0.31639 1.81438,-1.28405 2.2981,-1.76777 0.60157,-0.60157 -0.0751,-3.85155 2.12132,-4.94975 2.02066,-1.01033 3.58711,0.68132 4.94975,0 3.36315,-1.68157 5.04645,-2.74835 7.6014,-5.3033 0.45297,-0.45297 0.73844,-1.7991 1.23743,-2.29809 0.80962,-0.80963 1.70917,-2.06273 2.82843,-3.18199 0.50195,-0.50195 0.14218,-2.2635 0.70711,-2.82842 0.65665,-0.65666 -1.71118,-7.12766 0.17677,-9.01561 0.39984,-0.39985 2.35649,1.82616 2.65165,2.12132 0.2074,0.20739 0.3081,0.83842 0.53033,1.06066 0.0695,0.0695 0,5.74173 0,6.36396 0,0.2532 0.16115,1.42984 0,1.59099 -1.0776,1.0776 -1.63224,6.05166 -2.82842,7.24784 -0.4492,0.4492 -0.29048,1.70469 -0.70711,2.12132 -1.52895,1.52896 -2.43395,2.96428 -3.88909,4.41942 -0.71437,0.71437 -0.87684,2.82139 -1.59099,3.53553 -1.21197,1.21197 -2.27719,2.98431 -3.53553,4.24264 -1.67314,1.67315 -9.74527,3.35877 -12.9047,3.35877 -0.6604,0 -9.07628,-0.591 -9.19239,-0.70711 -0.42222,-0.42223 -3.44801,-0.0893 -3.88909,-0.53034 -0.93288,-0.93288 -2.51835,-1.81124 -3.35875,-2.65165 -0.29463,-0.29462 -0.94281,-0.2357 -1.23744,-0.53033 -0.0884,-0.0884 -0.44194,0.0884 -0.53033,0 -0.91968,-0.91968 -2.65449,-0.95232 -0.53033,-2.65165 z"
         style="fill:#8a6b6b;fill-opacity:1;stroke:none" />
      <path
         inkscape:connector-curvature="0"
         id="path7283"
         d="m 465.25,457.11218 c -0.75283,-2.44234 -2.37862,-17.12137 1,-20.5 0.40117,-0.40116 0.92993,-1.67993 1.5,-2.25 2.09725,-2.09725 8.92155,-5.83577 11.75,-7.25 1.04713,-0.52356 7.02792,-2.52792 7.5,-3 0.4391,-0.4391 6.71226,0.28774 7.25,-0.25 0.15017,-0.15017 0.78008,-0.48496 1.25,-0.25 1.45546,0.72773 3.53753,0.0375 4.5,1 0.0557,0.0556 5.63556,1.11444 5,1.75 -0.65599,0.65599 -5.38941,-0.11059 -6,0.5 -0.33621,0.33621 -1.62622,0.12623 -2,0.5 -1.94158,1.94158 -7.82526,1.82527 -10.25,4.25 -1.92673,1.92673 3.22435,6 4.5,6 0.37305,0 1.93175,1.31825 1.25,2 -0.49233,0.49233 -0.81902,1.31902 -1.25,1.75 -0.73971,0.73971 -2.12317,0.37317 -2.75,1 -0.83333,0.83334 -4.16667,-0.83333 -5,0 -0.40749,0.40749 -1.06564,0.40782 -1.75,0.75 -1.6014,0.8007 -2.57026,2.32026 -3.5,3.25 -0.76584,0.76584 4.45215,1.95215 5,2.5 0.9335,0.9335 4.5751,5.6749 3,7.25 -0.11785,0.11785 -0.38215,-0.11785 -0.5,0 -0.131,0.131 -0.56595,0.75 -0.75,0.75 -0.22955,0 -3.8305,-7.25 -5,-7.25 -2.46834,0 -2.57955,0.82955 -4,2.25 -0.65461,0.65461 -1.63617,1.63618 -2.25,2.25 -0.56152,0.56152 -0.4911,1.99111 -1,2.5 -0.08,0.08 0.74742,7.75259 -1,9.5 -2.67842,2.67843 -5.75,-2.20002 -5.75,-5.25 0,-0.55967 -0.5148,-1.5148 -0.75,-1.75 -0.12443,-0.12443 0.13267,-1.33663 0,-2 z"
         style="fill:#bfa3a3;fill-opacity:1;stroke:none" />
      <path
         inkscape:connector-curvature="0"
         id="path7125"
         d="m 470.75,458.36218 c -0.68408,-0.58892 -1.97157,-3.77842 0.25,-6 0.72621,-0.7262 3.14767,-2.5 4,-2.5 2.02785,0 4.18094,-1.40953 6.5,-0.25 3.49435,1.74718 6.28503,6.96497 3,10.25 -0.50438,0.50438 -0.51599,1.766 -1.25,2.5 -2.71222,2.71222 -6.45899,2.79101 -9.25,0 -1.32476,-1.32476 -2.06153,-2.01922 -3.25,-4 z"
         style="fill:none;stroke:#000000;stroke-width:1px;stroke-linecap:butt;stroke-linejoin:miter;stroke-opacity:1" />
      <path
         inkscape:connector-curvature="0"
         id="path7082"
         d="m 487,426.86218 c -1.25388,0.24943 -1.71896,1.59684 -2.00299,2.68363 -0.26919,0.84784 -0.57435,1.72019 -0.39312,2.62347 0.36133,2.23168 2.15134,3.91718 4.02675,5.00426 2.79432,1.59541 6.32035,1.93197 9.32258,0.72668 2.52419,-1.90318 4.31382,-5.12405 3.77559,-8.34321 -0.37971,-2.17656 -2.45549,-3.81356 -4.61641,-3.96219 -2.16957,-0.67739 -4.6722,-1.07455 -6.76946,0.043 -1.06718,0.51629 -2.23708,0.79832 -3.34294,1.22432 z"
         style="fill:none;stroke:#000000;stroke-width:1px;stroke-linecap:butt;stroke-linejoin:miter;stroke-opacity:1" />
      <path
         inkscape:connector-curvature="0"
         id="path7084"
         d="m 485.5,424.61218 c -2.84952,1.56175 -2.6672,5.39856 -4.28831,7.89346 -0.38287,3.43191 2.79731,5.78073 5.04902,7.84831 3.16337,2.39216 7.41351,2.07268 11.16968,2.31549 3.99765,-0.24304 6.21831,-4.77993 6.57906,-8.36331 0.27334,-3.21962 0.53405,-7.30399 -2.13155,-9.62198 -2.82639,-2.32498 -6.69355,-1.46861 -10.05262,-1.7153 -2.3392,-0.1785 -4.21882,1.04872 -6.32528,1.64333 z"
         style="fill:none;stroke:#000000;stroke-width:1px;stroke-linecap:butt;stroke-linejoin:miter;stroke-opacity:1" />
      <path
         inkscape:connector-curvature="0"
         id="path7161"
         d="m 481,424.36218 c -0.16667,0.33334 -0.16667,1.16667 -0.5,1 -0.33333,-0.16666 0.76352,-1.26352 0.5,-1 -1.63837,1.63838 -2.04179,3.58358 -3,5.5 -0.38174,0.76349 0.33571,2.91429 -0.25,3.5 -0.42911,0.42911 -0.13535,1.61465 0.25,2 0.17321,0.17322 0.0768,1.07679 0.25,1.25 1.80576,1.80576 3.46005,3.71005 4.75,5 1.19759,1.19759 3.04572,1.54572 4,2.5 1.16345,1.16345 3.99082,0.99082 5,2 0.35193,0.35193 1.77559,0.0128 2.25,0.25 0.67007,0.33504 5.42837,0.57164 5.75,0.25 1.32764,-1.32763 3.14695,-2.14695 4.5,-3.5 3.95505,-3.95504 4.98033,-13.26967 0.5,-17.75 -2.8094,-2.8094 -16.9311,-4.3189 -20,-1.25 -0.60032,0.60032 -3.80594,0.0947 -4,0.25 -0.32536,0.26029 0,0.83334 0,1.25"
         style="fill:none;stroke:#000000;stroke-width:1px;stroke-linecap:butt;stroke-linejoin:miter;stroke-opacity:1" />
      <path
         inkscape:connector-curvature="0"
         id="path6792"
         d="m 514.125,372 c -4.19005,-0.56325 -7.28625,2.84696 -11.40625,2.09375 -5.51072,4.30166 -13.3147,5.22349 -16.84375,12.09375 -5.88854,9.24078 -10.42493,22.65765 -3.28125,32.4375 3.6096,3.57637 4.16865,9.27757 7,13.03125 1.73586,2.89025 8.29733,3.36644 7.6875,-1.09375 -4.29362,-9.96176 -13.68243,-20.31654 -9.53125,-31.84375 3.61134,-7.09361 10.12676,-12.58891 16.78125,-16.78125 9.49438,-5.19627 24.51922,-2.12619 27.46875,9.4375 0.58557,2.60046 2.23529,7.44643 5.6875,5.53125 1.71755,-3.84256 0.76051,-8.51672 0.0937,-12.21875 -3.31634,-4.00402 -5.9246,-9.07908 -11.65625,-10 -2.0454,-1.86486 -4.03935,-1.56644 -6.53125,-1.5625 -1.65643,-1.16229 -3.37185,-1.26853 -5.46875,-1.125 z"
         style="fill:#c8b7b7;fill-opacity:1;stroke:#000000;stroke-width:3;stroke-linecap:butt;stroke-linejoin:miter;stroke-miterlimit:4;stroke-opacity:1;stroke-dasharray:none" />
      <path
         sodipodi:nodetypes="csssssccc"
         inkscape:connector-curvature="0"
         id="path6796"
         d="m 538.53553,383.97309 c -4.3011,0.18075 -5.27415,2.73774 -7,5 -9.10027,11.9287 7.42005,24.53998 15.5,20.5 0.52455,-0.26227 2.11992,-0.11992 2.5,-0.5 1.80982,-1.80982 9.32092,-8.92367 6.67678,-14.17678 -0.72154,-1.43349 0.57978,-1.75566 -0.46967,-3.29289 -0.33223,-0.48666 -0.79041,-2.11366 -1.20711,-2.53033 -0.63693,-0.63693 -8.60702,-7.33232 -11.5,-5.5 -2.07035,0.12581 -4.5,0.5 -4.5,0.5 z"
         style="fill:#ac9393;fill-opacity:1;stroke:#000000;stroke-width:3;stroke-linecap:butt;stroke-linejoin:miter;stroke-miterlimit:4;stroke-opacity:1;stroke-dasharray:none" />
      <path
         inkscape:connector-curvature="0"
         id="path7140"
         d="m 471,464.61218 c -0.66793,0.45873 -6.73088,-6.78823 -5,-10.25 0.61935,-1.23871 0.96892,-3.21892 1.75,-4 2.50179,-2.50178 6.47786,-4.5 11,-4.5 0.73538,0 1.63049,-0.11951 2,0.25 0.5,0.5 2,0 2.5,0.5 1.21064,1.21064 2.8853,2.6353 4,3.75 0.69971,0.69971 1.11005,2.36005 1.75,3 0.86544,0.86544 0.5,3.84599 0.5,5 0,0.1879 0.53194,0.46806 0.25,0.75 -0.58333,0.58334 -0.41667,1.91667 -1,2.5 -1.13061,1.13061 -2.41415,2.66415 -3.5,3.75 -2.69895,2.69895 -13.13597,4.82015 -14.25,-0.75 z"
         style="fill:none;stroke:#000000;stroke-width:1px;stroke-linecap:butt;stroke-linejoin:miter;stroke-opacity:1" />
      <path
         inkscape:connector-curvature="0"
         id="path7159"
         d="m 470,468.36218 c -1.21534,-0.89371 -2.19337,-1.44337 -3,-2.25 -0.48877,-0.48877 -4.40414,-10.94171 -3.75,-12.25 0.34835,-0.69671 0.26569,-2.76568 0.75,-3.25 0.34763,-0.34763 0.30489,-1.05488 0.75,-1.5 0.65243,-0.65243 0.69464,-1.69464 1.25,-2.25 1.1416,-1.14159 2.47138,-1.98569 4,-2.75 1.60633,-0.80316 4.48888,0.26112 5.75,-1 0.29167,-0.29166 1.45833,0.29167 1.75,0 0.24717,-0.24716 5.71787,-1.03213 6.25,-0.5 0.66667,0.66667 1.83333,0.83334 2.5,1.5 1.37894,1.37894 2.9906,3.4906 4.5,5 1.75072,1.75072 2.49725,11.5055 1,14.5 -0.30186,0.60373 0.2375,2.0125 -0.25,2.5 -0.80908,0.80908 -1.09163,2.09164 -2,3 -3.37841,3.37841 -9.71752,5.76624 -15.25,3 -2.43176,-1.21588 -3.55011,-0.95046 -4.25,-3.75 z"
         style="fill:none;stroke:#000000;stroke-width:1px;stroke-linecap:butt;stroke-linejoin:miter;stroke-opacity:1" />
      <path
         sodipodi:nodetypes="csssssssssscc"
         inkscape:connector-curvature="0"
         id="path6839"
         d="m 472.59099,455.00863 c -5.01242,7.19375 -6.13751,14.38674 -9.08579,19.05025 -2.43084,3.84506 -2.38868,10.42422 -3.41421,11.44975 -0.33587,0.33587 -1,9.61807 -1,11 0,4.213 -0.0242,16.90205 0.93934,19.9948 0.48,1.54066 0.74503,5.37394 1.06066,6.0052 0.7331,1.4662 2.11334,9.60687 2.5,10.5 1.23744,2.85832 5.081,8.25885 8.5,6.5 2.18439,-1.12373 2.85181,-5.86965 1.29289,-8.35355 -5.06483,-8.07004 -4.27783,-24.6014 -5.79289,-28.14645 -1.84709,-4.32197 4.97259,-27.44518 6.5,-30.5 1.70797,-3.41595 2.88743,-9.17157 6,-12 2.85756,-8.39133 -0.7265,-10.99267 -7.5,-5.5 z"
         style="fill:#c8b7b7;stroke:#000000;stroke-width:3;stroke-linecap:butt;stroke-linejoin:miter;stroke-miterlimit:4;stroke-opacity:1;stroke-dasharray:none" />
      <path
         inkscape:connector-curvature="0"
         id="path6856"
         d="m 544.56231,387.45819 c -2.89765,-1.3565 -6.2399,1.29015 -7.77817,2.82843 -0.41248,0.41248 -0.29463,1.35529 -0.70711,1.76776 -0.2357,0.23571 0.2357,1.17852 0,1.41422 -0.55972,0.55972 -0.55972,2.97581 0,3.53553 0.15652,0.15653 0.7851,4.67419 2.12132,6.01041 1.55794,1.55794 8.1768,6.31889 11.31371,3.18198 0.70788,-0.70788 2.6592,-0.53788 3.53553,-1.41421 2.45459,-2.45459 3.53554,-5.77445 3.53554,-9.8995 0,-0.27683 0.17641,-1.59135 0,-1.76776 -2.63482,-2.63483 -6.47393,-8.98499 -12.02082,-5.65686 z"
         style="fill:#c8b7b7;fill-opacity:1;stroke:#000000;stroke-width:3;stroke-linecap:butt;stroke-linejoin:miter;stroke-miterlimit:4;stroke-opacity:1;stroke-dasharray:none" />
      <path
         inkscape:connector-curvature="0"
         id="path6858"
         d="m 547.03719,392.05439 c -0.42278,0.61339 -2.27702,-0.90496 -3.88908,0.70711 -5.03975,5.03975 3.94863,11.25416 6.0104,9.19239 2.8693,-2.8693 3.27304,-9.8995 -2.12132,-9.8995 z"
         style="fill:#6c5353;stroke:#000000;stroke-width:3;stroke-linecap:butt;stroke-linejoin:miter;stroke-miterlimit:4;stroke-opacity:1;stroke-dasharray:none" />
      <path
         sodipodi:nodetypes="cssssccc"
         inkscape:connector-curvature="0"
         id="path6931"
         d="m 515.88788,532.58221 c 0.3991,1.92767 4.33296,6.57013 6.79586,9.39311 0.4731,0.54227 2.06678,1.18413 2.53988,1.7264 0.14156,0.16224 2.16101,0.44577 2.45708,0.10641 0.58192,-0.667 -0.4047,-8.94626 -0.79951,-9.85132 -0.72789,-1.66861 -1.3643,-3.39655 -2.39854,-4.58201 -0.98706,1.4687 -1.57176,3.5817 -3.10522,3.97333 -1.56767,0.33888 -3.83457,-0.38653 -5.48955,-0.76592 z"
         style="fill:#c8b7b7;fill-opacity:1;stroke:#000000;stroke-width:2.56789327;stroke-linecap:butt;stroke-linejoin:round;stroke-miterlimit:4;stroke-opacity:1;stroke-dasharray:none" />
      <path
         sodipodi:nodetypes="csscsssssscc"
         inkscape:connector-curvature="0"
         id="path6905"
         d="m 462.58374,535.79118 c -0.95304,0.45546 -1.46058,1.87357 -2.41362,2.32903 -1.05972,0.50644 -1.49437,1.75837 -2.26119,2.64803 -1.14862,1.33264 -0.79976,1.98888 -1.56811,3.68829 -0.0269,1.46554 1.23941,1.42838 2.14905,1.42205 1.60858,-0.0112 2.78325,-0.85408 4.20909,-1.03189 2.50608,-0.31251 5.10299,-2.34076 7.1358,-3.31224 0.50064,-0.23925 2.46744,-2.48134 2.66346,-3.0362 0.0392,-0.11112 -0.21267,0.10163 -0.319,0.15245 -0.051,0.0244 -0.36028,-0.39242 -0.6239,-0.48555 -0.53763,-0.18993 -2.05798,0.36294 -3.50831,-0.57653 -2.86536,-0.0337 -4.65734,-5.04209 -5.46327,-1.79744 z"
         style="fill:#c8b7b7;fill-opacity:1;stroke:#000000;stroke-width:3;stroke-linecap:butt;stroke-linejoin:round;stroke-miterlimit:4;stroke-opacity:1;stroke-dasharray:none" />
      <path
         sodipodi:nodetypes="cccssc"
         inkscape:connector-curvature="0"
         id="path6983"
         d="m 499.25355,518.39059 c -0.4714,-0.11785 -1.53206,0.11785 -1.41421,-0.35355 -5.7881,0.97235 -7.68895,0.82715 -10.79226,4.23896 2.40164,4.57023 10.57462,4.46396 11.14581,3.89277 0.47905,-0.47905 6.15414,-2.12132 6.01041,-2.12132 -3.66062,0 -4.94975,-2.09582 -4.94975,-5.65686 z"
         style="fill:#c8b7b7;fill-opacity:1;stroke:#000000;stroke-width:3;stroke-linecap:butt;stroke-linejoin:round;stroke-miterlimit:4;stroke-opacity:1;stroke-dasharray:none" />
      <path
         sodipodi:nodetypes="csssscsc"
         inkscape:connector-curvature="0"
         id="path7011"
         d="m 499.23211,518.5977 c -1.35104,1.10204 -1.3423,3.64927 -1.31066,4.99264 0.036,1.52667 0.60355,7.83034 0.60355,8.75673 0,0.66535 0.96762,3.65638 1.91421,3.43198 1.41082,-0.33446 3.47183,-1.60089 4.3462,-4.28186 0.46897,-1.43794 1.46,-3.41343 1.72855,-4.93198 0.0959,-1.59589 0.13789,-3.66541 -0.41789,-4.22119 -0.48343,-0.48343 -4.14924,2.978 -6.86396,-3.74632 z"
         style="fill:#c8b7b7;fill-opacity:1;stroke:#000000;stroke-width:3;stroke-linecap:butt;stroke-linejoin:miter;stroke-miterlimit:4;stroke-opacity:1;stroke-dasharray:none" />
      <path
         sodipodi:nodetypes="cscsc"
         inkscape:connector-curvature="0"
         id="path7013"
         d="m 470.74073,537.90037 c -2.64419,1.33028 8.60613,8.01088 12.02082,4.59619 0.35355,-0.35355 1.41421,0 1.76777,-0.35355 0.49692,-0.49693 -7.61417,-7.78185 -9.19239,-7.78185 -2.20519,0 -1.17583,4.22328 -4.5962,3.53921 z"
         style="fill:#c8b7b7;fill-opacity:1;stroke:#000000;stroke-width:3;stroke-linecap:round;stroke-linejoin:round;stroke-miterlimit:4;stroke-opacity:1;stroke-dasharray:none" />
      <path
         inkscape:connector-curvature="0"
         id="path7315"
         d="m 465.25,532.36218 c -0.68628,0.0461 -1.75369,-10.75368 -2.75,-11.75 -0.40301,-0.40301 -0.50024,-10.00024 -1.5,-11 -0.0873,-0.0873 0,-7.21784 0,-8 0,-9.44094 0.88621,-25.88621 5.75,-30.75 0.74399,-0.74399 0.77447,-1.77446 1.5,-2.5 1.47195,-1.47195 3.17025,-6.59049 4.25,-8.75 0.21739,-0.43478 0.17211,-1.17211 0.5,-1.5 0.16662,-0.16662 1.66126,-2.33874 2,-2 0.38645,0.38645 -0.26793,2.51793 -0.5,2.75 -0.56376,0.56376 -0.67664,2.42664 -1,2.75 -0.55536,0.55536 -0.34757,1.84757 -1,2.5 -1.25033,1.25034 -2.02509,3.52509 -3.25,4.75 -1.07243,1.07243 -1.96279,6.42559 -2.75,8 -3.91627,7.83254 -4.25,14.9346 -4.25,26.5 0,3.03979 0.52185,15.27185 1.75,16.5 0.59173,0.59173 -0.34173,3.15827 0.25,3.75 0.40868,0.40869 1.75,4.63296 1.75,5.5 0,0.36262 1.63064,3.36937 0.75,4.25 -0.42492,0.42492 -0.98471,-0.69082 -1.5,-1 z"
         style="fill:#d9cdcd;fill-opacity:1;stroke:none" />
      <path
         inkscape:connector-curvature="0"
         id="path7317"
         d="m 469.75,536.11218 c 0.45815,0.15129 1.59559,0.15441 2.75,-1 0.92131,-0.92131 -1.29169,-3.29169 -1.5,-3.5 -0.125,-0.125 0.125,-0.625 0,-0.75 -1.30208,-1.30208 -0.9685,-3.68699 -1.75,-5.25 -0.38892,-0.77783 -0.3146,-6.0646 -0.75,-6.5 -1.24376,-1.24376 -1.75,-9.64357 -1.75,-12.75 0,-1.4275 -0.50189,-3.50189 -1.25,-4.25 -0.3015,-0.3015 0.64832,-3.14832 0.75,-3.25 0.31327,-0.31327 0.10216,-5.35215 0.5,-5.75 1.03076,-1.03076 0.0467,-3.59346 0.75,-5 1.28653,-2.57305 1.48139,-5.71278 2.75,-8.25 0.18434,-0.36868 -0.28027,-1.46973 0,-1.75 1.15018,-1.15018 1.87034,-6.62034 3.25,-8 0.88052,-0.88052 1.67684,-6.42684 2.25,-7 1.16035,-1.16035 1.96702,-3.21702 3,-4.25 0.64808,-0.64808 0.13018,-2.36982 -0.25,-2.75 -0.67327,-0.67327 -1.87103,1.24206 -2,1.5 -0.47795,0.95589 -1.47186,4.47186 -2,5 -0.48523,0.48523 -0.25639,4.25639 -1,5 -1.59049,1.59049 -1.80945,5.30945 -3.5,7 -0.23303,0.23303 -0.3078,1.80781 -0.75,2.25 -0.40516,0.40516 -0.4481,3.9481 -0.75,4.25 -0.83816,0.83816 -0.22696,3.47696 -1,4.25 -0.57471,0.57471 -0.88838,2.88838 -1.25,3.25 -0.63463,0.63464 -0.15744,2.90744 -0.75,3.5 -1.80204,1.80204 -0.75,17.54123 -0.75,20.75 0,2.49404 1.75697,13.75697 3,15 0.51335,0.51335 1.75,4.99333 1.75,6 0,0.75462 0.98996,2.10201 0.25,2.25 -0.41667,0.0833 -0.16667,-0.83333 -0.25,-1.25"
         style="fill:#ae9595;fill-opacity:1;stroke:none" />
      <path
         inkscape:connector-curvature="0"
         id="path7015"
         d="m 461.75,524.11218 c 0.53075,0.63475 5.17028,4.32972 8.25,1.25"
         style="fill:none;stroke:#000000;stroke-width:1px;stroke-linecap:butt;stroke-linejoin:miter;stroke-opacity:1" />
      <path
         inkscape:connector-curvature="0"
         id="path7017"
         d="m 459,506.11218 c 3.63568,1.87192 5.56669,1.96665 8.5,0.5"
         style="fill:none;stroke:#000000;stroke-width:1px;stroke-linecap:butt;stroke-linejoin:miter;stroke-opacity:1" />
      <path
         inkscape:connector-curvature="0"
         id="path7019"
         d="m 461,485.86218 c 2.28255,1.81832 4.67937,1.75 7.25,1.75"
         style="fill:none;stroke:#000000;stroke-width:1px;stroke-linecap:butt;stroke-linejoin:miter;stroke-opacity:1" />
      <path
         sodipodi:nodetypes="ccc"
         inkscape:connector-curvature="0"
         id="path7021"
         d="m 467.75,467.36218 c 0.33333,0.25 0.75,0.54167 1,0.75 1.19739,0.63434 4.59681,3.01227 5.5,4.25"
         style="fill:none;stroke:#000000;stroke-width:1px;stroke-linecap:butt;stroke-linejoin:miter;stroke-opacity:1" />
      <path
         inkscape:connector-curvature="0"
         id="path7394"
         d="m 494.95914,431.12724 c -0.18947,0.0305 -0.63314,-2.04734 -1.59099,-3.0052 -0.44919,-0.44918 -1.10722,-3.75887 -1.41422,-4.06586 -0.51251,-0.51252 -0.60217,-1.66284 -1.06066,-2.12132 -1.79679,-1.7968 -2.76584,-4.47102 -3.88909,-6.71752 -0.42114,-0.8423 -1.88695,-7.72058 -1.94454,-7.77817 -0.91496,-0.91497 -0.58045,-6.84418 0.35355,-7.77818 0.1945,-0.19449 0.74052,-3.74572 1.06066,-4.06586 0.88331,-0.88331 2.09233,-2.79944 3.18199,-3.88909 0.37668,-0.37669 0.93468,-1.99535 1.76776,-2.82843 2.73874,-2.73873 7.80626,-5.86171 10.78338,-8.83883 0.55697,-0.55697 4.80815,-1.27262 5.12652,-1.59099 0.63995,-0.63994 3.89335,-0.71137 4.24265,-1.06066 0.51244,-0.51244 1.76029,0.18051 2.47487,-0.17678 1.64022,-0.82011 7.71901,0.29439 8.83883,1.41422 0.9395,0.93949 2.36739,1.8908 3.53554,2.47487 1.26957,0.63479 4.81349,2.69217 5.48008,3.35876 0.11785,0.11785 0.0589,0.41248 0.17677,0.53033 0.50231,0.5023 1.04556,-0.86879 1.06066,-0.88389 0.0589,-0.0589 0.2357,0.11785 0.17678,0.17678 -0.0932,0.0932 -0.0836,-0.26038 -0.17678,-0.35355 -0.24859,-0.24859 -0.68951,-0.68952 -0.88388,-0.88389 -0.59967,-0.59966 -1.73284,-1.2025 -2.2981,-1.76776 -0.41916,-0.41916 -1.57461,-0.51395 -1.94454,-0.88389 -1.03887,-1.03887 -3.17495,-1.58395 -4.24264,-2.65165 -0.55011,-0.5501 -2.81343,-0.33855 -3.35876,-0.88388 -0.3315,-0.3315 -3.44238,0.13496 -4.06586,-0.17678 -3.05772,-1.52885 -13.07546,1.4082 -14.84925,3.18198 -0.30657,0.30658 -1.32032,0.0829 -1.59099,0.35356 -0.90617,0.90616 -2.45876,1.3981 -3.35875,2.29809 -0.22044,0.22044 -0.93901,0.2319 -1.23744,0.53033 -1.75906,1.75907 -3.85435,3.85435 -5.83363,5.83363 -1.42503,1.42503 -2.19573,3.78672 -3.53554,5.12653 -0.64605,0.64605 -1.83288,5.43353 -2.47487,6.71751 -0.16509,0.33019 0.0515,1.53951 -0.17678,1.76777 -0.49766,0.49766 -0.41106,4.18513 0.17678,4.77297 0.42514,0.42514 -0.27969,2.09227 0,2.65165 0.73182,1.46364 0.47891,3.66089 1.59099,4.77297 0.34911,0.34911 0.12851,1.49445 0.35355,1.94454 1.10904,2.21808 2.19044,3.60465 3.71232,5.12653 0.26074,0.26074 0.13686,1.02075 0.35355,1.23744 0.94815,0.94815 1.49089,2.72832 2.47487,3.71231 0.5894,0.5894 0.38768,2.509 1.06066,3.18198 0.81589,0.81588 -0.10111,2.46483 1.94455,1.23743 z"
         style="fill:#ae9595;fill-opacity:1;stroke:none" />
      <path
         inkscape:connector-curvature="0"
         id="path7396"
         d="m 534.02679,382.69043 c -0.23571,-0.11785 -0.82496,-0.11785 -0.70711,-0.35355 0.11785,-0.23571 0.89344,0.53989 0.70711,0.35355 -1.92303,-1.92303 -3.71348,-3.18314 -5.30331,-4.77297 -0.24806,-0.24807 -1.16614,-0.10549 -1.41421,-0.35355 -0.82766,-0.82767 -2.21087,-0.97344 -3.18198,-1.94455 -0.58862,-0.58862 -4.81732,0.0662 -5.3033,-0.17678 -0.9016,-0.45079 -2.20214,-0.78793 -2.82843,-1.41421 -0.49967,-0.49967 -2.4757,0.35355 -2.82842,0.35355 -0.34144,0 -1.69188,0.45445 -1.94455,0.70711 -0.31806,0.31807 -1.64851,-0.11925 -1.94454,0.17678 -0.12886,0.12886 -2.88029,1.08659 -3.53554,1.41421 -0.70197,0.35099 -3.21076,0.0144 -3.53553,0.17678 -1.34619,0.67309 -1.95111,1.42078 -2.82843,2.2981 -0.47749,0.47749 -1.34388,0.63677 -1.94454,1.23743 -0.83682,0.83682 -4.56857,1.20981 -6.01041,2.65165 -0.2357,0.23571 -0.82496,0.11785 -1.06066,0.35356 -1.05089,1.05089 -1.70698,2.06054 -2.82843,3.18198 -0.57971,0.57971 -0.78545,1.84611 -1.41421,2.47487 -0.30549,0.30549 0.0162,1.55856 -0.17678,1.94454 -0.80763,1.61527 -1.64467,2.88211 -2.82842,4.06587 -0.29581,0.2958 -0.84278,3.45333 -1.23744,4.24264 -0.18856,0.37712 0.18856,1.03709 0,1.41421 -0.47529,0.95058 -0.37749,3.05308 -0.70711,3.71231 -0.8394,1.67881 -0.27902,6.61527 0.70711,7.6014 0.18482,0.18482 0.23541,2.17995 0.53033,2.47487 1.38693,1.38693 2.2263,3.46375 3.53553,4.77298 0.30504,0.30503 0.10046,1.16111 0.35356,1.41421 0.20624,0.20624 0.14731,0.67764 0.35355,0.88388 1.54076,1.54076 1.77829,4.08691 2.82843,6.18719 0.24173,0.48346 0.81162,1.94454 1.23744,1.94454 0.33333,0 1.04044,0.70711 0.7071,0.70711 -0.013,0 0.0162,-0.4979 0,-0.53033 -0.21037,-0.42075 -0.7071,-1.46875 -0.7071,-1.76777 0,-1.13703 -2.40763,-6.65026 -2.82843,-7.07107 -0.419,-0.419 -0.78868,-1.31901 -1.23744,-1.76776 -0.61872,-0.61872 -1.32582,-1.14905 -1.94454,-1.76777 -0.41248,-0.41248 -0.47141,-1.17851 -0.88389,-1.59099 -0.62093,-0.62094 -1.35118,-4.88672 -1.94454,-5.48008 -0.4552,-0.4552 0.27443,-6.10806 0.53033,-6.36396 0.0284,-0.0284 0.96879,-6.71055 1.41421,-7.6014 0.51451,-1.02901 1.13899,-2.37642 1.94455,-3.18198 0.43877,-0.43877 0.29709,-1.53453 0.7071,-1.94454 0.43592,-0.43592 0.69655,-1.93399 1.06066,-2.2981 0.26517,-0.26516 0.26517,-0.79549 0.53033,-1.06066 0.49138,-0.49138 0.96374,-0.96374 1.591,-1.59099 0.16994,-0.16995 0.12666,-0.65699 0.35355,-0.88388 1.50048,-1.50048 4.0668,-2.65259 5.65685,-4.24264 0.52997,-0.52997 2.15694,-0.91951 2.82843,-1.59099 0.60738,-0.60738 3.31567,-1.01758 4.06586,-1.76777 0.44881,-0.44881 5.53329,-1.29065 6.01041,-1.76777 0.20624,-0.20624 1.0312,0.20624 1.23744,0 0.89933,-0.89933 8.32404,-1.93677 10.07627,-1.06066 1.09794,0.54897 1.48422,0.95389 2.2981,1.76777 0.44813,0.44813 1.76562,0.35141 2.29809,0.88388 0.33603,0.33602 4.34711,0.6348 5.30331,1.59099 0.61145,0.61146 0.74653,1.8072 1.41421,2.47488 0.71064,0.71063 1.26549,1.50905 2.82843,0.88388 z"
         style="fill:#d9cdcd;fill-opacity:1;stroke:none" />
      <path
         inkscape:connector-curvature="0"
         id="path7023"
         d="m 485.75,421.86218 c 2.68489,1.05674 4.3718,-1.1218 5,-1.75"
         style="fill:none;stroke:#000000;stroke-width:1px;stroke-linecap:butt;stroke-linejoin:miter;stroke-opacity:1" />
      <path
         inkscape:connector-curvature="0"
         id="path7025"
         d="m 479.5,406.36218 c 0.52633,0.54191 3.99232,1.25768 6,-0.75"
         style="fill:none;stroke:#000000;stroke-width:1px;stroke-linecap:butt;stroke-linejoin:miter;stroke-opacity:1" />
      <path
         inkscape:connector-curvature="0"
         id="path7027"
         d="m 485.75,388.11218 c 0.1672,0.13891 5,2.17705 5,4"
         style="fill:none;stroke:#000000;stroke-width:1px;stroke-linecap:butt;stroke-linejoin:miter;stroke-opacity:1" />
      <path
         inkscape:connector-curvature="0"
         id="path7029"
         d="m 499,377.36218 c 2.31942,1.14264 3.75,2.00661 3.75,4.75"
         style="fill:none;stroke:#000000;stroke-width:1px;stroke-linecap:butt;stroke-linejoin:miter;stroke-opacity:1" />
      <path
         sodipodi:nodetypes="cc"
         inkscape:connector-curvature="0"
         id="path7031"
         d="m 522.95711,373.27119 c 1.88241,2.36595 -1.27525,5.90913 -2.45711,7.09099"
         style="fill:none;stroke:#000000;stroke-width:1px;stroke-linecap:butt;stroke-linejoin:miter;stroke-opacity:1" />
      <path
         inkscape:connector-curvature="0"
         id="path7390"
         d="m 503.62119,480.8015 c 0.57485,-0.19141 1.58747,1.58746 2.82843,2.82842 0.96915,0.96915 2.12669,1.24281 3.00521,2.12132 0.7832,0.7832 0.956,2.37023 1.76776,3.18198 1.71977,1.71977 3.32265,4.20654 4.94975,5.83363 0.54978,0.54978 1.69677,6.11619 1.76777,6.18719 1.00345,1.00345 0.46532,4.28941 1.23743,5.83363 0.18857,0.37712 -0.18856,1.03709 0,1.41421 1.10722,2.21444 1.41422,9.32045 1.41422,12.37437 0,1.06743 0.19945,4.19729 -0.17678,4.94975 -0.57783,1.15567 -2.6959,5.08228 -1.76777,6.01041 0.19754,0.19753 0.61265,-0.17678 0.70711,-0.17678 1.67014,0 0.74714,0.31353 1.76777,-0.70711 0.2357,-0.2357 0.64818,-0.29462 0.88388,-0.53033 0.40766,-0.40766 -0.21504,-1.66751 -0.53033,-2.29809 -0.38007,-0.76015 -0.11449,-6.31177 0.17678,-6.89429 0.40338,-0.80677 -0.70711,-4.11524 -0.70711,-5.30331 0,-0.75072 0.61331,-2.39189 0.17678,-2.82842 -0.24881,-0.24881 -0.39116,-2.86604 -0.70711,-3.18198 -0.65149,-0.65149 -1.12136,-3.47484 -0.17678,-4.41942 0.26335,-0.26335 -1.08231,-5.67851 -1.23743,-5.83363 -0.17678,-0.17678 0.17677,-0.88389 0,-1.06066 -1.04845,-1.04845 -1.95682,-6.90656 -3.35876,-8.30851 -0.20624,-0.20624 0.0295,-0.85442 -0.17678,-1.06066 -1.06066,-1.06066 -1.94454,-2.29809 -3.0052,-3.35875 -0.4849,-0.4849 -1.98997,-0.92932 -2.47487,-1.41422 -0.74321,-0.74321 -1.60968,-1.25612 -2.2981,-1.94454 -0.56319,-0.56319 0.21588,-2.78932 -0.35356,-3.35876 -0.21159,-0.2116 -0.80295,0.97974 -0.88388,1.06066 -0.68355,0.68355 -1.42579,1.16441 -2.82843,0.88389 z"
         style="fill:#ae9595;fill-opacity:1;stroke:none" />
      <path
         inkscape:connector-curvature="0"
         id="path7033"
         d="m 507.25,486.61218 c 2.86346,0.29358 4.32426,-2.28713 5.75,-3"
         style="fill:none;stroke:#000000;stroke-width:1px;stroke-linecap:butt;stroke-linejoin:miter;stroke-opacity:1" />
      <path
         inkscape:connector-curvature="0"
         id="path7392"
         d="m 518.11688,526.23311 c 0.63768,-0.13394 -0.20169,-4.57128 0.88389,-5.65686 0.26516,-0.26516 -0.0884,-1.14905 0.17677,-1.41421 0.16115,-0.16115 0,-1.33779 0,-1.59099 0,-0.49849 -0.51024,-6.16709 -0.7071,-6.36396 -0.41718,-0.41718 0.61163,-4.08004 0.17677,-4.94975 -0.19155,-0.38311 -0.12447,-1.18513 -0.35355,-1.41421 -0.19812,-0.19812 -1.76777,-2.94274 -1.76777,-3.18198 0,-0.46875 -1.15411,-5.49021 -1.41421,-6.01041 -0.42706,-0.85412 -0.8755,-1.57422 -1.23744,-2.2981 -0.053,-0.10592 -0.89102,-0.88388 -0.88388,-0.88388 0.47807,0 1.94454,4.31907 1.94454,5.12652 0,0.99823 2.01848,11.38764 2.47488,11.84404 0.44873,0.44873 -0.30998,2.34167 0.17677,2.82843 1.33802,1.33801 0.53033,11.42075 0.53033,13.96536 z"
         style="fill:#d9cdcd;fill-opacity:1;stroke:none" />
      <path
         inkscape:connector-curvature="0"
         id="path7050"
         d="m 515,501.61218 c -0.13805,0.81176 5.75,-1.36589 5.75,-3.75"
         style="fill:none;stroke:#000000;stroke-width:1px;stroke-linecap:butt;stroke-linejoin:miter;stroke-opacity:1" />
      <path
         inkscape:connector-curvature="0"
         id="path7065"
         d="m 507.5,508.61218 c 0.78306,4.54177 2.39471,5.07236 5.75,6.75"
         style="fill:none;stroke:#000000;stroke-width:1px;stroke-linecap:butt;stroke-linejoin:miter;stroke-opacity:1" />
      <path
         inkscape:connector-curvature="0"
         id="path7078"
         d="m 517.5,520.36218 c 0.95798,2.6927 5.75,1.85374 5.75,0"
         style="fill:none;stroke:#000000;stroke-width:1px;stroke-linecap:butt;stroke-linejoin:miter;stroke-opacity:1" />
      <path
         inkscape:connector-curvature="0"
         id="path7080"
         d="m 519,482.61218 c 2.50435,0.83163 6.21481,0.0704 8.25,-4"
         style="fill:none;stroke:#000000;stroke-width:1px;stroke-linecap:butt;stroke-linejoin:miter;stroke-opacity:1" />
      <path
         inkscape:connector-curvature="0"
         id="path7142"
         d="m 496.25,480.36218 c 0.24139,-1.69779 7.67821,-6.28589 12.25,-4"
         style="fill:none;stroke:#000000;stroke-width:1px;stroke-linecap:butt;stroke-linejoin:miter;stroke-opacity:1" />
      <path
         inkscape:connector-curvature="0"
         id="path7157"
         d="m 491,480.36218 c 2.49804,-3.51174 11.24103,-10.00448 18.75,-6.25"
         style="fill:none;stroke:#000000;stroke-width:1px;stroke-linecap:butt;stroke-linejoin:miter;stroke-opacity:1" />
      <path
         inkscape:connector-curvature="0"
         id="path7189"
         d="m 487.5,479.61218 c 2.36215,-2.70047 -2.41077,2.41077 1.5,-1.5 0.39872,-0.39872 0.35128,-1.10127 0.75,-1.5 2.2241,-2.22409 4.59952,-3.34951 6.75,-5.5 0.55076,-0.55076 1.80479,-0.0548 2.25,-0.5 2.47583,-2.47583 11.38282,-0.80859 14,0.5"
         style="fill:none;stroke:#000000;stroke-width:1px;stroke-linecap:butt;stroke-linejoin:miter;stroke-opacity:1" />
      <path
         inkscape:connector-curvature="0"
         id="path7230"
         d="m 476,476.36218 c 0.33333,0 1,-0.33333 1,0 0,0.33334 -1.33333,0 -1,0 0.95116,0 1.73662,0.13169 2.5,-0.25 0.85998,-0.42999 3.07231,0.42769 3.75,-0.25 0.44759,-0.44758 2.86861,-1.75 3.5,-1.75 0.24102,0 2.26702,-1.23298 2.5,-1 0.062,0.062 -0.9065,1.1565 -1,1.25 -0.68651,0.68652 -1.75,3.48987 -1.75,5"
         style="fill:none;stroke:#000000;stroke-width:1px;stroke-linecap:butt;stroke-linejoin:miter;stroke-opacity:1" />
      <path
         inkscape:connector-curvature="0"
         id="path7232"
         d="m 510.75,428.86218 c 0.1991,0.3982 0.63738,0.88738 1,1.25 0.35986,0.35986 0.25,1.92574 0.25,2.5 0,4.81968 -1.44917,10.44917 -4.5,13.5 -1.75488,1.75488 -4.3149,2.65745 -6.5,3.75 -0.84649,0.4232 -4.23854,1.00573 -5.25,0.5 -0.46158,-0.2308 -1.06523,-0.0326 -1.5,-0.25 -0.20843,-0.10421 -0.9535,-0.5465 -1,-0.5 -0.0754,0.0754 1.5,1.79478 1.5,3 0,0.72008 0.66612,4.66612 1,5 1.3602,1.3602 -1.93718,10.68718 -2.25,11 -0.44253,0.44253 -1.19519,0.64039 -1.75,1.75 -0.18634,0.37268 1.25,-0.41666 1,-0.75 -0.25,-0.33333 -0.66667,0.5 -1,0.75 1.70201,-1.72009 3.98011,-2.4801 5.5,-4 0.125,-0.125 0.625,0.125 0.75,0 2.029,-2.029 8.96923,-2.14039 11.75,-0.75 2.08823,1.04412 3.71048,1.17097 4.75,3.25"
         style="fill:none;stroke:#000000;stroke-width:1px;stroke-linecap:butt;stroke-linejoin:miter;stroke-opacity:1" />
      <path
         inkscape:connector-curvature="0"
         id="path7234"
         d="m 462,446.11218 c 1.06001,-1.92886 5.055,-5.25 10.75,-5.25 0.0359,0 5.25,-0.56446 5.25,-0.25 0,0.02 -1.73815,-0.98815 -3,-2.25 -1.92479,-1.92478 -1.23955,-12.48955 0.5,-10.75"
         style="fill:none;stroke:#000000;stroke-width:1px;stroke-linecap:butt;stroke-linejoin:miter;stroke-opacity:1" />
      <path
         inkscape:connector-curvature="0"
         id="path7236"
         d="m 516,464.36218 c -0.91087,-1.77542 -6.84179,-2.09179 -7.75,-3 -0.44084,-0.44084 -2.16997,0.29002 -2.75,0 -0.35273,-0.17636 -2.32003,-0.67997 -2.5,-0.5 -0.59038,0.59038 -1.70573,0.45573 -2.5,1.25 -0.16667,0.16667 -0.2643,0.5 -0.5,0.5 -0.0838,0 0.75,-1.70078 0.75,-3.25 0,-0.64881 0.15995,-3.34005 -0.25,-3.75 -0.0935,-0.0935 -0.79451,-1.45549 -0.75,-1.5 0.29167,-0.29166 1.45833,0.29167 1.75,0 0.35466,-0.35466 3.13286,-1.69143 3.75,-2 2.99934,-1.49967 4.98149,-2.48148 7.25,-4.75 1.24353,-1.24353 1.43041,-3.68041 2.75,-5 0.7084,-0.7084 1.16884,-6.58768 1.5,-7.25"
         style="fill:none;stroke:#000000;stroke-width:1px;stroke-linecap:butt;stroke-linejoin:miter;stroke-opacity:1" />
      <path
         inkscape:connector-curvature="0"
         id="path7238"
         d="m 518.25,462.11218 c -1.52924,-2.23984 -5.39591,-2.14591 -7,-3.75 -0.71037,-0.71037 -3.26041,-0.0104 -4,-0.75 -0.57677,-0.57677 -2.25,0.26881 -2.25,0 0,-0.58925 -0.16667,-1.33333 0.25,-1.75 0.0328,-0.0328 5.87178,-1.12178 6.25,-1.5 1.51879,-1.51879 4.62374,-3.62374 6.25,-5.25 0.77659,-0.77659 1.85791,-3.85791 2.25,-4.25"
         style="fill:none;stroke:#000000;stroke-width:1px;stroke-linecap:butt;stroke-linejoin:miter;stroke-opacity:1" />
      <path
         inkscape:connector-curvature="0"
         id="path7240"
         d="m 520.75,451.86218 c -1.81192,1.89885 -3.16884,2.70942 -5.25,3.75 -0.25119,0.1256 -2,0.0986 -2,0.5 0,0.49296 1.86924,-0.38076 2.5,0.25 0.0224,0.0224 3.86043,1.93021 4,2"
         style="fill:none;stroke:#000000;stroke-width:1px;stroke-linecap:butt;stroke-linejoin:miter;stroke-opacity:1" />
      <path
         inkscape:connector-curvature="0"
         id="path7242"
         d="m 464,439.61218 c 0.42612,-1.9741 3.66291,-0.6629 4.5,-1.5 0.0324,-0.0324 2.75,-0.49657 2.75,-0.25 0,0.25538 -1.2444,-2.2444 -1.25,-2.25 -0.83838,-0.83838 -0.5,-3.32836 -0.5,-3.5"
         style="fill:none;stroke:#000000;stroke-width:1px;stroke-linecap:butt;stroke-linejoin:miter;stroke-opacity:1" />
      <path
         inkscape:connector-curvature="0"
         id="path7398"
         d="m 544.10306,408.49983 c -0.21451,0.0584 -3.33917,-0.68752 -4.41942,-1.76777 -0.67382,-0.67382 -1.23128,-1.32275 -2.12132,-1.76777 -2.27945,-1.13972 -3.88909,-7.34168 -3.88909,-10.78338 0,-1.06447 0.72417,-4.2597 1.23744,-4.77297 0.53933,-0.53933 0.88388,-1.28464 0.88388,-1.23743 0,0.028 -0.48392,0.30714 -0.53033,0.35355 -0.16995,0.16995 -0.12666,0.65699 -0.35355,0.88388 -1.10373,1.10373 -1.23177,3.70664 -2.12132,4.5962 -0.27895,0.27895 -0.0867,1.32412 -0.35355,1.59099 -0.16676,0.16675 -0.17678,2.99077 -0.17678,3.18198 0,3.26327 1.99671,5.70902 3.88909,7.6014 0.65821,0.65821 2.9571,1.18933 3.71231,1.94454 0.37976,0.37977 3.79326,0.17678 4.24264,0.17678 z"
         style="fill:#9f8383;fill-opacity:1;stroke:none" />
      <path
         sodipodi:nodetypes="ccssscscccc"
         inkscape:connector-curvature="0"
         id="path7426"
         d="m 543.57273,396.65579 c 0.0589,0.2357 0.41248,0.64818 0.17678,0.70711 -0.2357,0.0589 -0.17678,-0.95007 -0.17678,-0.70711 0,1.78279 1.34247,2.40313 2.2981,3.35876 0.30503,0.30503 1.16111,0.10045 1.41421,0.35355 0.0203,0.0203 0.93365,-0.0498 1.23744,-0.35355 0.78424,-0.78424 0.7071,-1.2238 0.7071,-2.2981 0,-0.77479 -0.17297,-1.41802 -0.17677,-1.41422 -0.3244,0.32441 -0.49712,0.85068 -0.88389,1.23744 -0.17435,0.17436 -0.75505,0.048 -0.88388,0.17678 -1.20071,1.20071 -2.27309,-1.06066 -3.71231,-1.06066 z"
         style="fill:#523a3a;fill-opacity:1;stroke:none" />
    </g>
    <g
       id="g7553"
       transform="matrix(1.2847191,0,0,1.2847191,-150.02997,-38.90868)">
      <path
         inkscape:connector-curvature="0"
         id="path7437"
         d="m 281.51324,726.54819 c 0.027,9.70227 -6.1639,58.46425 -3.26151,63.68447 4.63277,8.33247 29.30156,-12.57618 31.50761,-17.51792 1.65378,-3.70462 0.24629,-6.97575 -1.4477,-10.02254 -9.33164,-16.78384 -32.48849,-7.53722 -28.40711,-3.79844"
         style="fill:none;stroke:#00ffff;stroke-width:2.82136369;stroke-linecap:round;stroke-linejoin:round;stroke-miterlimit:4;stroke-opacity:1;stroke-dasharray:none" />
      <path
         inkscape:connector-curvature="0"
         id="path7465"
         d="m 322.50085,787.28548 c 0.97213,-4.44112 -4.59877,-26.62407 -2.28565,-29.14916 5.87006,-6.40797 15.7695,-5.94873 20.2656,2.13793"
         style="fill:none;stroke:#00ffff;stroke-width:2.82136369;stroke-linecap:round;stroke-linejoin:round;stroke-miterlimit:4;stroke-opacity:1;stroke-dasharray:none" />
      <path
         inkscape:connector-curvature="0"
         id="path7467"
         d="m 362.49511,756.284 c -7.60631,-2.25998 -12.9473,3.58172 -16.71637,9.80972 -8.9986,14.86929 8.30048,26.47875 20.92713,17.23791 9.76358,-7.1455 11.32075,-30.86785 -4.21076,-27.04763 z"
         style="fill:none;stroke:#00ffff;stroke-width:2.82136369;stroke-linecap:round;stroke-linejoin:round;stroke-miterlimit:4;stroke-opacity:1;stroke-dasharray:none" />
      <path
         inkscape:connector-curvature="0"
         id="path7469"
         d="m 383.54685,753.34452 c 3.50243,3.03362 2.4301,26.38269 4.25488,28.05428 1.10759,1.01464 3.69037,3.87271 2.18973,3.93846 -1.80702,0.0792 1.0555,-3.46988 1.79281,-5.12153 0.36851,-0.82548 0.93819,-20.39837 5.33435,-16.37124 1.46457,1.34163 9.26542,25.74901 13.05023,21.61738 0.48029,-0.52431 -0.18598,-4.2451 -0.22051,-5.03333 -0.34378,-7.84679 3.29732,-16.82364 2.96819,-24.33635 -0.0788,-1.79822 -0.1915,-4.37081 -0.0441,-1.00666"
         style="fill:none;stroke:#00ffff;stroke-width:2.82136369;stroke-linecap:round;stroke-linejoin:round;stroke-miterlimit:4;stroke-opacity:1;stroke-dasharray:none" />
      <path
         inkscape:connector-curvature="0"
         id="path7471"
         d="m 444.16723,755.73167 c -0.39437,-1.32751 -0.51013,-2.77219 -1.18308,-3.98256 -3.22497,-5.80039 -25.37341,-0.0531 -17.85535,6.83384 2.90775,2.66366 7.96471,6.32986 11.51434,9.58152 2.97634,2.72649 0.71911,19.56705 -8.39844,15.49688 -5.24131,-2.33977 -5.85543,-9.6042 -7.61998,-12.77791"
         style="fill:none;stroke:#00ffff;stroke-width:2.82136369;stroke-linecap:round;stroke-linejoin:round;stroke-miterlimit:4;stroke-opacity:1;stroke-dasharray:none" />
      <path
         inkscape:connector-curvature="0"
         id="path7473"
         d="m 455.63745,764.30652 c 3.54346,-0.54827 4.84617,0.79628 8.09741,0.65384 4.23615,-0.18559 7.26325,-2.65477 9.84614,-5.47434 9.02343,-9.85032 -16.72445,-13.38186 -17.94355,4.8205 -0.13722,2.04875 -1.88186,8.67072 -0.52153,11.11741 1.64479,2.95833 4.19224,6.31286 7.39947,7.74459 5.80079,2.58954 16.30187,-7.00129 11.90356,-4.55589"
         style="fill:none;stroke:#00ffff;stroke-width:2.82136369;stroke-linecap:round;stroke-linejoin:round;stroke-miterlimit:4;stroke-opacity:1;stroke-dasharray:none" />
      <path
         inkscape:connector-curvature="0"
         id="path7501"
         d="m 489.82763,784.99774 c -0.39435,-1.32751 -2.51059,-3.58819 -1.18307,-3.98254 1.32751,-0.39437 1.24368,5.36607 1.18307,3.98254 -0.31691,-7.2337 -1.65343,-14.71861 -1.97692,-22.10251 -0.0716,-1.63471 -1.49578,-6.80561 -1.31538,-7.00254 2.16033,-2.3583 5.8712,-2.74874 8.88356,-4.42358 8.39525,-4.66768 12.269,1.66543 15.45279,7.39177"
         style="fill:none;stroke:#00ffff;stroke-width:2.82136369;stroke-linecap:round;stroke-linejoin:round;stroke-miterlimit:4;stroke-opacity:1;stroke-dasharray:none" />
      <path
         inkscape:connector-curvature="0"
         id="path7503"
         d="m 521.49626,725.11172 c 2.14155,18.72698 0.9343,44.34736 1.5954,59.4373"
         style="fill:none;stroke:#00ffff;stroke-width:2.82136369;stroke-linecap:round;stroke-linejoin:round;stroke-miterlimit:4;stroke-opacity:1;stroke-dasharray:none" />
      <path
         inkscape:connector-curvature="0"
         id="path7505"
         d="m 538.00751,756.66344 c -4.42609,7.5667 4.58676,24.52756 1.23488,28.1866"
         style="fill:none;stroke:#00ffff;stroke-width:2.82136369;stroke-linecap:round;stroke-linejoin:round;stroke-miterlimit:4;stroke-opacity:1;stroke-dasharray:none" />
      <path
         inkscape:connector-curvature="0"
         id="path7507"
         d="m 537.39008,742.57014 c -1.48628,-14.78832 13.12418,2.67675 0,0 z"
         style="fill:none;stroke:#00ffff;stroke-width:2.82136369;stroke-linecap:round;stroke-linejoin:round;stroke-miterlimit:4;stroke-opacity:1;stroke-dasharray:none" />
      <path
         inkscape:connector-curvature="0"
         id="path7522"
         d="m 548.99262,754.16498 c -2.23981,9.17138 1.70036,24.93294 -0.69026,30.28814"
         style="fill:none;stroke:#00ffff;stroke-width:2.82136369;stroke-linecap:round;stroke-linejoin:round;stroke-miterlimit:4;stroke-opacity:1;stroke-dasharray:none" />
      <path
         inkscape:connector-curvature="0"
         id="path7524"
         d="m 550.308,761.16753 c 3.7342,-4.7068 9.53392,-7.69288 13.96099,-3.63743 1.31561,1.20517 3.95298,0.61841 5.16563,2.79948 3.84552,6.91654 -1.19863,18.68408 -0.91077,25.25481"
         style="fill:none;stroke:#00ffff;stroke-width:2.82136369;stroke-linecap:round;stroke-linejoin:round;stroke-miterlimit:4;stroke-opacity:1;stroke-dasharray:none" />
      <path
         inkscape:connector-curvature="0"
         id="path7526"
         d="m 596.61455,759.1388 c -10.20055,-10.8209 -18.55574,13.92018 -15.26867,19.83227 4.61532,8.30109 10.72041,5.17413 15.14406,0.34512 2.00201,-2.18546 2.55466,-10.75395 2.40256,-14.2256 -0.093,-2.12224 -4.21386,-5.07728 -2.27795,-5.95179 3.08544,-1.39377 3.70396,38.11342 2.81487,41.22914 -2.42691,8.50486 -5.43485,27.47021 -15.92251,27.92968 -3.62817,0.15895 -8.85387,-10.37617 -12.38869,-6.51742"
         style="fill:none;stroke:#00ffff;stroke-width:2.82136369;stroke-linecap:round;stroke-linejoin:round;stroke-miterlimit:4;stroke-opacity:1;stroke-dasharray:none" />
      <path
         inkscape:connector-curvature="0"
         id="path7528"
         d="m 616.39696,782.20685 c -1.3435,0.33588 -3.69464,2.35114 -4.03052,1.00763 -0.33588,-1.3435 4.46845,-2.32141 4.03052,-1.00763 -0.68009,2.0403 -3.69464,2.35114 -5.03815,4.03052 -1.34143,1.67679 15.08537,8.5285 5.03815,-4.03052 z"
         style="fill:none;stroke:#00ffff;stroke-width:2.82136369;stroke-linecap:round;stroke-linejoin:round;stroke-miterlimit:4;stroke-opacity:1;stroke-dasharray:none" />
      <path
         inkscape:connector-curvature="0"
         id="path7530"
         d="m 643.60297,757.0161 c -24.92304,-1.26823 -12.56204,39.76804 5.03815,22.16786"
         style="fill:none;stroke:#00ffff;stroke-width:2.82136369;stroke-linecap:round;stroke-linejoin:round;stroke-miterlimit:4;stroke-opacity:1;stroke-dasharray:none" />
      <path
         inkscape:connector-curvature="0"
         id="path7532"
         d="m 670.80897,759.03136 c -3.80016,-2.55515 -7.11885,-1.94981 -10.07629,1.00764 -1.3844,1.38439 -3.4222,4.22082 -4.03053,6.04577 -1.8434,5.53021 -2.48231,9.14219 0,14.10682 9.72016,19.4403 26.4439,-11.84605 21.16023,-17.12971 -1.09639,-1.09639 -4.95893,-2.77383 -7.05341,-4.03052 z"
         style="fill:none;stroke:#00ffff;stroke-width:2.82136369;stroke-linecap:round;stroke-linejoin:round;stroke-miterlimit:4;stroke-opacity:1;stroke-dasharray:none" />
      <path
         inkscape:connector-curvature="0"
         id="path7534"
         d="m 685.92343,760.039 c 2.5028,9.16777 2.01525,18.48642 2.01525,28.21364"
         style="fill:none;stroke:#00ffff;stroke-width:2.82136369;stroke-linecap:round;stroke-linejoin:round;stroke-miterlimit:4;stroke-opacity:1;stroke-dasharray:none" />
      <path
         inkscape:connector-curvature="0"
         id="path7549"
         d="m 688.94631,767.09241 c 10.82044,-22.22244 23.75459,5.89521 17.12971,19.14496"
         style="fill:none;stroke:#00ffff;stroke-width:2.82136369;stroke-linecap:round;stroke-linejoin:round;stroke-miterlimit:4;stroke-opacity:1;stroke-dasharray:none" />
      <path
         inkscape:connector-curvature="0"
         id="path7551"
         d="m 706.07602,766.08477 c 17.2493,-14.52849 20.1526,7.14556 20.1526,22.16787"
         style="fill:none;stroke:#00ffff;stroke-width:2.82136369;stroke-linecap:round;stroke-linejoin:round;stroke-miterlimit:4;stroke-opacity:1;stroke-dasharray:none" />
    </g>
    <g
       id="g7673"
       transform="matrix(0.99942659,-0.03385975,0.03385975,0.99942659,0.79669514,-125.524)">
      <path
         transform="translate(0,308.2677)"
         inkscape:connector-curvature="0"
         id="path7574"
         d="m 218.57143,542.66591 c -0.92003,12.42213 -9.87903,77.14286 11.42857,77.14286 5.71409,0 9.05047,-5.2438 10,-7.14286"
         style="fill:none;stroke:#91ff91;stroke-width:4;stroke-linecap:round;stroke-linejoin:round;stroke-miterlimit:4;stroke-opacity:1;stroke-dasharray:none" />
      <path
         transform="translate(0,308.2677)"
         inkscape:connector-curvature="0"
         id="path7576"
         d="m 201.42857,575.52305 c 12.58089,-1.89789 40.39146,-5.51855 45.71429,-2.85714"
         style="fill:none;stroke:#91ff91;stroke-width:4;stroke-linecap:round;stroke-linejoin:round;stroke-miterlimit:4;stroke-opacity:1;stroke-dasharray:none" />
      <path
         transform="translate(0,308.2677)"
         inkscape:connector-curvature="0"
         id="path7578"
         d="m 264.28571,591.23734 c 4.29465,-1.74737 8.41068,-1.42857 12.85715,-1.42857 3.71428,0 19.60916,-2.4663 21.42857,-4.28572 3.26116,-3.26115 -15.00806,-32.84102 -25.71429,-11.42857 -2.51258,5.02517 -8.57143,10.64028 -8.57143,17.14286 0,19.98899 27.6961,33.17923 35.71429,17.14286"
         style="fill:none;stroke:#91ff91;stroke-width:4;stroke-linecap:round;stroke-linejoin:round;stroke-miterlimit:4;stroke-opacity:1;stroke-dasharray:none" />
      <path
         transform="translate(0,308.2677)"
         inkscape:connector-curvature="0"
         id="path7580"
         d="m 340,572.66591 c 1.73737,-9.55555 -36.10571,-3.24857 -28.57143,4.28572 1.64633,1.64633 6.447,1.79492 8.57143,2.85714 14.45061,7.2253 15.77355,14.40424 22.85714,28.57143 5.13649,10.27297 -18.35153,10.21989 -22.85714,5.71428 -3.1567,-3.1567 -7.20669,-7.17477 -10,-8.57143"
         style="fill:none;stroke:#91ff91;stroke-width:4;stroke-linecap:round;stroke-linejoin:round;stroke-miterlimit:4;stroke-opacity:1;stroke-dasharray:none" />
      <path
         transform="translate(0,308.2677)"
         inkscape:connector-curvature="0"
         id="path7582"
         d="m 365.71429,546.95163 c -0.73385,8.99188 -0.47967,70.94891 2.85714,74.28571 2.16543,2.16544 5.65799,2.85714 10,2.85714 4.83904,0 6.28006,-0.56577 8.57143,-2.85714"
         style="fill:none;stroke:#91ff91;stroke-width:4;stroke-linecap:round;stroke-linejoin:round;stroke-miterlimit:4;stroke-opacity:1;stroke-dasharray:none" />
      <path
         transform="translate(0,308.2677)"
         inkscape:connector-curvature="0"
         id="path7584"
         d="m 355.71429,579.80877 c 10.98891,-2.57986 21.57974,0 32.85714,0"
         style="fill:none;stroke:#91ff91;stroke-width:4;stroke-linecap:round;stroke-linejoin:round;stroke-miterlimit:4;stroke-opacity:1;stroke-dasharray:none" />
      <path
         transform="translate(0,308.2677)"
         inkscape:connector-curvature="0"
         id="path7586"
         d="m 402.85714,535.52305 c -1.47165,18.57385 5.06234,84.16105 0,94.28572"
         style="fill:none;stroke:#91ff91;stroke-width:4;stroke-linecap:round;stroke-linejoin:round;stroke-miterlimit:4;stroke-opacity:1;stroke-dasharray:none" />
      <path
         transform="translate(0,308.2677)"
         inkscape:connector-curvature="0"
         id="path7588"
         d="m 425.71429,588.3802 c 1.65955,6.63823 1.42857,3.7509 1.42857,8.57143 0,8.92442 0,16.44037 0,25.71428 0,2.84882 2.71252,11.28396 0,8.57143"
         style="fill:none;stroke:#91ff91;stroke-width:4;stroke-linecap:round;stroke-linejoin:round;stroke-miterlimit:4;stroke-opacity:1;stroke-dasharray:none" />
      <path
         transform="translate(0,308.2677)"
         inkscape:connector-curvature="0"
         id="path7590"
         d="m 427.14286,568.3802 c -10.83392,-22.84065 21.45805,0 0,0 z"
         style="fill:none;stroke:#91ff91;stroke-width:4;stroke-linecap:round;stroke-linejoin:round;stroke-miterlimit:4;stroke-opacity:1;stroke-dasharray:none" />
      <path
         transform="translate(0,308.2677)"
         inkscape:connector-curvature="0"
         id="path7592"
         d="m 452.85714,584.09448 c -0.10293,3.77597 2.39853,45.71429 1.42857,45.71429 -0.95238,0 0,-1.90476 0,-2.85714 0,-4.28572 0,-8.57143 0,-12.85715 0,-8.95559 6.33357,-35.40465 20,-28.57143 10.30527,5.15264 7.14286,33.92737 7.14286,45.71429"
         style="fill:none;stroke:#91ff91;stroke-width:4;stroke-linecap:round;stroke-linejoin:round;stroke-miterlimit:4;stroke-opacity:1;stroke-dasharray:none" />
      <path
         transform="translate(0,308.2677)"
         inkscape:connector-curvature="0"
         id="path7607"
         d="M 525.71429,588.3802 C 523.72224,581.09873 490,588.38165 490,614.09448 c 0,14.77717 21.97355,13.29894 31.42857,8.57143 5.37928,-2.68964 8.92876,-16.42894 11.42857,-21.42857 0.31805,-0.6361 -0.23958,-8.57143 0,-8.57143 0.10485,0 -0.13106,4.02359 0,4.28572 2.00492,4.00982 2.85715,11.1837 2.85715,15.71428 0,16.37634 8.60348,60 -14.28572,60 -8.28548,0 -12.72367,-1.2951 -17.14286,-5.71428"
         style="fill:none;stroke:#91ff91;stroke-width:4;stroke-linecap:round;stroke-linejoin:round;stroke-miterlimit:4;stroke-opacity:1;stroke-dasharray:none" />
      <path
         transform="translate(0,308.2677)"
         inkscape:connector-curvature="0"
         id="path7609"
         d="m 557.14286,628.3802 c -1.90476,0 -5.71429,1.90476 -5.71429,0 0,-1.90477 7.06116,1.34687 5.71429,0 -1.71693,-1.71693 -4.88842,-0.5268 -7.14286,-1.42857 -0.49056,-0.19623 11.24542,-14.98169 7.14286,1.42857 z"
         style="fill:none;stroke:#91ff91;stroke-width:4;stroke-linecap:round;stroke-linejoin:round;stroke-miterlimit:4;stroke-opacity:1;stroke-dasharray:none" />
      <path
         transform="translate(0,308.2677)"
         inkscape:connector-curvature="0"
         id="path7611"
         d="m 601.42857,586.95163 c -26.0883,-11.54402 -47.0142,41.42857 5.71429,41.42857"
         style="fill:none;stroke:#91ff91;stroke-width:4;stroke-linecap:round;stroke-linejoin:round;stroke-miterlimit:4;stroke-opacity:1;stroke-dasharray:none" />
      <path
         transform="translate(0,308.2677)"
         inkscape:connector-curvature="0"
         id="path7613"
         d="m 637.14286,586.95163 c -19.07607,-3.99851 14.93036,-1.42858 -7.14286,-1.42858 -11.97498,0 -12.99646,34.93035 0,41.42858 11.96563,5.98281 31.71514,-27.71386 7.14286,-40 z"
         style="fill:none;stroke:#91ff91;stroke-width:4;stroke-linecap:round;stroke-linejoin:round;stroke-miterlimit:4;stroke-opacity:1;stroke-dasharray:none" />
      <path
         inkscape:connector-curvature="0"
         id="path7632"
         d="m 681.42857,909.50504 c 1.23273,-6.44014 7.35974,-11.42857 14.28571,-11.42857 16.90023,0 10,32.37138 10,44.28571"
         style="fill:none;stroke:#91ff91;stroke-width:4;stroke-linecap:round;stroke-linejoin:round;stroke-miterlimit:4;stroke-opacity:1;stroke-dasharray:none" />
      <path
         transform="translate(0,308.2677)"
         inkscape:connector-curvature="0"
         id="path7656"
         d="m 661.42857,588.3802 c -6.33102,9.7496 2.55231,33.16197 -4.28571,40"
         style="fill:none;stroke:#91ff91;stroke-width:4;stroke-linecap:round;stroke-linejoin:round;stroke-miterlimit:4;stroke-opacity:1;stroke-dasharray:none" />
      <path
         transform="translate(0,308.2677)"
         inkscape:connector-curvature="0"
         id="path7671"
         d="m 658.57143,598.3802 c 27.98657,-15.65639 22.85714,1.84095 22.85714,25.71428"
         style="fill:none;stroke:#91ff91;stroke-width:4;stroke-linecap:round;stroke-linejoin:round;stroke-miterlimit:4;stroke-opacity:1;stroke-dasharray:none" />
    </g>
  </g>
</svg>
