<?xml version="1.0" encoding="UTF-8" standalone="no"?>
<!-- Created with Inkscape (http://www.inkscape.org/) -->

<svg
   xmlns:dc="http://purl.org/dc/elements/1.1/"
   xmlns:cc="http://creativecommons.org/ns#"
   xmlns:rdf="http://www.w3.org/1999/02/22-rdf-syntax-ns#"
   xmlns:svg="http://www.w3.org/2000/svg"
   xmlns="http://www.w3.org/2000/svg"
   xmlns:xlink="http://www.w3.org/1999/xlink"
   xmlns:sodipodi="http://sodipodi.sourceforge.net/DTD/sodipodi-0.dtd"
   xmlns:inkscape="http://www.inkscape.org/namespaces/inkscape"
   width="1052.3622"
   height="744.09448"
   id="svg3226"
   version="1.1"
   inkscape:version="0.48.1 r9760"
   sodipodi:docname="dnode.svg"
   inkscape:export-filename="/home/substack/media/vector/do_not_write_big_apps/dnode.png"
   inkscape:export-xdpi="87.569527"
   inkscape:export-ydpi="87.569527">
  <defs
     id="defs3228" />
  <sodipodi:namedview
     id="base"
     pagecolor="#685cea"
     bordercolor="#666666"
     borderopacity="1.0"
     inkscape:pageopacity="1"
     inkscape:pageshadow="2"
     inkscape:zoom="0.70710678"
     inkscape:cx="546.69199"
     inkscape:cy="325.50727"
     inkscape:document-units="px"
     inkscape:current-layer="layer1"
     showgrid="false"
     inkscape:window-width="1364"
     inkscape:window-height="766"
     inkscape:window-x="0"
     inkscape:window-y="0"
     inkscape:window-maximized="0" />
  <metadata
     id="metadata3231">
    <rdf:RDF>
      <cc:Work
         rdf:about="">
        <dc:format>image/svg+xml</dc:format>
        <dc:type
           rdf:resource="http://purl.org/dc/dcmitype/StillImage" />
        <dc:title></dc:title>
      </cc:Work>
    </rdf:RDF>
  </metadata>
  <g
     inkscape:label="Layer 1"
     inkscape:groupmode="layer"
     id="layer1"
     transform="translate(0,-308.2677)">
    <g
       id="g10758"
       transform="matrix(0.57869501,0,0,0.83415247,68.50396,-238.11311)">
      <path
         transform="translate(0,308.2677)"
         inkscape:connector-curvature="0"
         id="path10606"
         d="M 58.571429,389.80877 C 53.719923,402.76385 55.99404,460.08852 60,464.09448"
         style="fill:none;stroke:#ffff00;stroke-width:4;stroke-linecap:round;stroke-linejoin:round;stroke-miterlimit:4;stroke-opacity:1;stroke-dasharray:none" />
      <path
         transform="translate(0,308.2677)"
         inkscape:connector-curvature="0"
         id="path10608"
         d="m 108.57143,458.3802 c -16.215916,16.21591 -42.36402,1.37777 -34.285716,-22.85715 0.889907,-2.66972 5.325969,-3.89739 7.142857,-5.71428 2.229073,-2.22907 6.79577,-6.24833 10,-5.71429 23.861509,3.97692 -13.122178,-2.10738 7.142858,2.85715 3.170311,23.61281 -11.425741,15.71428 -21.428572,15.71428"
         style="fill:none;stroke:#ffff00;stroke-width:4;stroke-linecap:round;stroke-linejoin:round;stroke-miterlimit:4;stroke-opacity:1;stroke-dasharray:none" />
      <path
         transform="translate(0,308.2677)"
         inkscape:connector-curvature="0"
         id="path10610"
         d="m 150,424.09448 c -1.90476,-0.95238 -6.66667,-0.95238 -5.71429,-2.85714 0.95239,-1.90476 7.84388,2.85714 5.71429,2.85714 -9.28465,0 -6.93705,-3.67433 -14.28571,0 -2.69779,1.34889 -6.98366,1.34898 -10,2.85715 -21.12843,10.56421 12.88879,13.6189 20,24.28571 1.73292,2.59939 9.41094,13.4462 7.14285,15.71429 -4.27719,4.27719 -25.89358,0.35859 -22.85714,-5.71429"
         style="fill:none;stroke:#ffff00;stroke-width:4;stroke-linecap:round;stroke-linejoin:round;stroke-miterlimit:4;stroke-opacity:1;stroke-dasharray:none" />
      <path
         transform="translate(0,308.2677)"
         inkscape:connector-curvature="0"
         id="path10612"
         d="m 192.85714,428.3802 c -1.90476,-1.42857 -7.14285,-2.38096 -5.71428,-4.28572 1.42857,-1.90476 8.09524,4.28572 5.71428,4.28572 -2.3483,0 -6.29084,-4.28572 -10,-4.28572 -5.23959,0 -9.93671,2.81496 -14.28571,5.71429 -15.1752,10.1168 6.21584,13.8222 15.71428,18.57143 5.65306,2.82652 6.3026,9.74804 8.57143,14.28571 1.1441,2.28819 -1.42857,3.68024 -1.42857,5.71429 0,8.22032 -18.47307,1.52693 -24.28571,-4.28572"
         style="fill:none;stroke:#ffff00;stroke-width:4;stroke-linecap:round;stroke-linejoin:round;stroke-miterlimit:4;stroke-opacity:1;stroke-dasharray:none" />
      <path
         transform="translate(0,308.2677)"
         inkscape:connector-curvature="0"
         id="path10614"
         d="m 262.85714,428.3802 c -1.90476,0 -5.71428,1.90476 -5.71428,0 0,-1.90477 7.61904,0 5.71428,0 -11.02655,0 -4.58885,-0.56272 -8.57143,1.42857 -2.07481,1.0374 -1.6309,4.48804 -2.85714,5.71428 -9.15568,9.15568 -4.48846,42.95852 15.71429,32.85715 13.58157,-6.79079 13.45978,-35.56363 -4.28572,-40 z"
         style="fill:none;stroke:#ffff00;stroke-width:4;stroke-linecap:round;stroke-linejoin:round;stroke-miterlimit:4;stroke-opacity:1;stroke-dasharray:none" />
      <path
         transform="translate(0,308.2677)"
         inkscape:connector-curvature="0"
         id="path10616"
         d="m 282.85714,432.66591 c 0.96153,5.30329 16.32372,40 17.14286,40 7.10087,0 -3.12485,-48.70528 5.71429,-44.28571"
         style="fill:none;stroke:#ffff00;stroke-width:4;stroke-linecap:round;stroke-linejoin:round;stroke-miterlimit:4;stroke-opacity:1;stroke-dasharray:none" />
      <path
         transform="translate(0,308.2677)"
         inkscape:connector-curvature="0"
         id="path10618"
         d="m 327.14286,445.52305 c 7.96434,-1.60061 13.41204,-4.17945 20,-8.57142 15.37318,-10.24879 -7.35174,-19.58224 -15.71429,-2.85715 -11.39738,22.79477 12.06423,36.82503 25.71429,30"
         style="fill:none;stroke:#ffff00;stroke-width:4;stroke-linecap:round;stroke-linejoin:round;stroke-miterlimit:4;stroke-opacity:1;stroke-dasharray:none" />
      <path
         transform="translate(0,308.2677)"
         inkscape:connector-curvature="0"
         id="path10620"
         d="m 367.14286,431.23734 c -2.67559,8.99168 -1.52584,5.32521 0,11.42857 0.7111,2.84443 1.42857,7.15671 1.42857,10 0,9.47443 5.71428,19.26424 5.71428,18.57143 0,-4.90591 -2.76263,-12.57361 -4.28571,-17.14286 -1.40208,-4.20624 2.32958,-13.01126 1.42857,-15.71428 -0.87805,-2.63416 -5.52747,-4.65935 -4.28571,-7.14286 1.08588,-2.17176 4.71475,1.42857 7.14285,1.42857 2.38096,0 2.15613,-4.64949 4.28572,-5.71428 5.22423,-2.61212 14.80686,8.18514 15.71428,10"
         style="fill:none;stroke:#ffff00;stroke-width:4;stroke-linecap:round;stroke-linejoin:round;stroke-miterlimit:4;stroke-opacity:1;stroke-dasharray:none" />
      <path
         transform="translate(0,308.2677)"
         inkscape:connector-curvature="0"
         id="path10622"
         d="m 402.85714,394.09448 c -4.99036,-0.0363 9.74267,78.57143 7.14286,78.57143 -2.08294,0 3.65655,-46.02887 15.71429,-40 19.53683,9.76842 13.33486,32.38402 20,45.71429"
         style="fill:none;stroke:#ffff00;stroke-width:4;stroke-linecap:round;stroke-linejoin:round;stroke-miterlimit:4;stroke-opacity:1;stroke-dasharray:none" />
      <path
         transform="translate(0,308.2677)"
         inkscape:connector-curvature="0"
         id="path10624"
         d="m 462.85714,455.52305 c 48.37484,-27.72251 6.66935,-30.48154 -1.42857,-14.28571 -2.91091,5.82182 1.42857,8.69155 1.42857,14.28571 0,2.56437 -2.49448,4.60427 -2.85714,7.14286 -0.23457,1.64203 3.41149,8.68867 4.28571,10 10.3457,15.51854 16.93639,7.24609 28.57143,1.42857"
         style="fill:none;stroke:#ffff00;stroke-width:4;stroke-linecap:round;stroke-linejoin:round;stroke-miterlimit:4;stroke-opacity:1;stroke-dasharray:none" />
      <path
         transform="translate(0,308.2677)"
         inkscape:connector-curvature="0"
         id="path10626"
         d="m 498.57143,439.80877 c 30.84333,-37.31894 24.28571,18.73585 24.28571,37.14286"
         style="fill:none;stroke:#ffff00;stroke-width:4;stroke-linecap:round;stroke-linejoin:round;stroke-miterlimit:4;stroke-opacity:1;stroke-dasharray:none" />
      <path
         transform="translate(0,308.2677)"
         inkscape:connector-curvature="0"
         id="path10628"
         d="m 521.42857,455.52305 c -1.90476,-0.47619 -6.19047,0.47619 -5.71428,-1.42857 0.47619,-1.90476 7.67767,1.42857 5.71428,1.42857 -3.58022,0 -10.19809,-2.79111 -14.28571,-1.42857 -25.46326,8.48776 12.83099,32.90945 20,18.57143"
         style="fill:none;stroke:#ffff00;stroke-width:4;stroke-linecap:round;stroke-linejoin:round;stroke-miterlimit:4;stroke-opacity:1;stroke-dasharray:none" />
      <path
         transform="translate(0,308.2677)"
         inkscape:connector-curvature="0"
         id="path10630"
         d="m 567.14286,435.52305 c -26.06619,-19.72852 -40.0776,40 -18.57143,40 24.07908,0 16.98976,-24.1833 18.57143,-40 0.74897,-7.48976 2.85714,-13.5279 2.85714,-21.42857 0,-4.05083 1.82484,-13.49317 0,-17.14285 -0.67343,-1.34687 -2.93442,-4.28572 -1.42857,-4.28572 2.38095,0 0,4.76191 0,7.14286 0,8.09524 0,16.19047 0,24.28571 0,8.34525 -0.45995,11.50167 1.42857,20 2.70753,12.18387 2.82624,25.65248 7.14286,34.28572"
         style="fill:none;stroke:#ffff00;stroke-width:4;stroke-linecap:round;stroke-linejoin:round;stroke-miterlimit:4;stroke-opacity:1;stroke-dasharray:none" />
    </g>
    <path
       style="fill:none;stroke:#ffff00;stroke-width:8;stroke-linecap:butt;stroke-linejoin:miter;stroke-miterlimit:4;stroke-opacity:1;stroke-dasharray:none"
       d="m 55.820495,370.96946 c -2.69374,0.67343 -7.40779,4.71404 -8.08122,2.0203 -0.67344,-2.69374 10.85786,-2.0203 8.08122,-2.0203 -26.377922,0 -12.39558,26.12709 0,32.32488 11.01373,5.50686 33.991117,-23.8271 0,-32.32488 z"
       id="path10817"
       inkscape:connector-curvature="0" />
    <path
       style="fill:none;stroke:#ffff00;stroke-width:4;stroke-linecap:round;stroke-linejoin:round;stroke-miterlimit:4;stroke-opacity:1;stroke-dasharray:none"
       d="m 427.81767,398.16261 c 31.02054,-8.20933 79.06017,7.61278 102.85715,-4.28571"
       id="path3526"
       inkscape:connector-curvature="0" />
    <path
       style="fill:none;stroke:#ffff00;stroke-width:4;stroke-linecap:round;stroke-linejoin:round;stroke-miterlimit:4;stroke-opacity:1;stroke-dasharray:none"
       d="m 513.56067,379.59118 c 5.07521,2.27812 20,12.98071 20,15.71429 0,0.27795 -6.72482,2.4391 -7.14285,2.85714 -5.47535,5.47535 -11.59724,10.08434 -17.14286,12.85715"
       id="path3541"
       inkscape:connector-curvature="0" />
    <path
       style="fill:none;stroke:#ffffff;stroke-width:4;stroke-linecap:round;stroke-linejoin:round;stroke-miterlimit:4;stroke-opacity:1;stroke-dasharray:none"
       d="m 579.82755,390.51023 c -1.88561,-0.4714 -6.12825,0.4714 -5.65685,-1.41421 0.4714,-1.88562 7.6005,1.41421 5.65685,1.41421 -3.33333,0 -6.91807,-2.90493 -9.89949,-1.41421 -2.00859,1.00429 -4.76044,2.82842 -7.07107,2.82842 -10.66539,0 -13.51415,22.62742 7.07107,22.62742 3.89229,0 5.34013,0.63344 7.07107,-2.82843 3.57599,-7.15199 1.12337,-18.92648 4.24264,-28.28427 1.10096,-3.3029 5.75923,-25.35346 2.82842,-28.28427 -0.178,-0.17801 -3.9375,13.64334 -2.82842,16.97056 2.65224,7.95672 -1.41422,10.38432 -1.41422,18.38478 0,4.2077 2.82843,16.47612 2.82843,24.04163"
       id="path4311"
       inkscape:connector-curvature="0" />
    <path
       style="fill:none;stroke:#ffffff;stroke-width:4;stroke-linecap:round;stroke-linejoin:round;stroke-miterlimit:4;stroke-opacity:1;stroke-dasharray:none"
       d="m 592.55548,389.09602 c 0,2.82842 0,5.65685 0,8.48528 0,3.16322 -1.3846,9.95872 0,12.72792 0.86922,1.73845 3.35786,5.65685 1.41421,5.65685 -2.82843,0 0,-5.65685 0,-8.48528 0,-2.88293 1.69429,-9.63326 1.41421,-11.31371 -0.41734,-2.50405 -4.35158,-5.04019 -2.82842,-7.07106 1.44222,-1.92296 4.66736,1.41421 7.07106,1.41421 0.82075,0 4.65553,-3.74198 5.65686,-4.24264 12.83531,-6.41766 11.31371,20.58837 11.31371,28.28427"
       id="path4313"
       inkscape:connector-curvature="0" />
    <path
       style="fill:none;stroke:#ffffff;stroke-width:4;stroke-linecap:round;stroke-linejoin:round;stroke-miterlimit:4;stroke-opacity:1;stroke-dasharray:none"
       d="m 644.88138,390.51023 c -19.92258,-7.73808 16.32657,4.97079 -7.07107,-2.82843 -10.62361,-3.5412 -16.75097,19.90879 0,28.28427 10.06663,5.03331 24.85469,-18.34239 7.07107,-25.45584 z"
       id="path4315"
       inkscape:connector-curvature="0" />
    <path
       style="fill:none;stroke:#ffffff;stroke-width:4;stroke-linecap:round;stroke-linejoin:round;stroke-miterlimit:4;stroke-opacity:1;stroke-dasharray:none"
       d="m 677.40829,389.09602 c -16.28461,-6.7145 -29.35184,13.07456 -18.38478,24.04162 10.18207,10.18207 22.85483,-7.12079 21.21321,-16.97056 -0.41734,-2.50405 -3.08103,-4.54507 -2.82843,-7.07106 0.27351,-2.7351 3.01337,-4.61253 4.24264,-7.07107 0.87575,-1.75151 -0.80654,-24.04163 0,-24.04163 1.94365,0 -0.79958,3.81294 -1.41421,5.65685 -0.90553,2.71659 0,7.05632 0,9.8995 0,5.30771 -2.82843,10.83045 -2.82843,15.55635 0,2.53859 2.41109,4.56701 2.82843,7.07106 1.05592,6.33553 -0.99561,17.80777 0,19.79899"
       id="path4317"
       inkscape:connector-curvature="0" />
    <path
       style="fill:none;stroke:#ffffff;stroke-width:4;stroke-linecap:round;stroke-linejoin:round;stroke-miterlimit:4;stroke-opacity:1;stroke-dasharray:none"
       d="m 692.96464,404.65236 c 6.43365,-2.62813 16.00293,-4.68922 21.2132,-9.89949 7.80498,-7.80498 -29.25833,-23.2551 -21.2132,16.97056 1.893,9.46502 22.12911,3.82504 25.45584,-2.82843"
       id="path4332"
       inkscape:connector-curvature="0" />
    <image
       y="437.97574"
       x="162.77251"
       id="image5057"
       xlink:href="file:///home/substack/media/vector/do_not_write_big_apps/dnode_server.png"
       height="194.56529"
       width="748.43732" />
    <image
       y="638.82025"
       x="160.76407"
       id="image5402"
       xlink:href="file:///home/substack/media/vector/do_not_write_big_apps/dnode_client.png"
       height="194.56529"
       width="748.43732" />
    <image
       y="839.66461"
       x="160.76405"
       id="image5747"
       xlink:href="file:///home/substack/media/vector/do_not_write_big_apps/dnode_output.png"
       height="194.56529"
       width="748.43732" />
  </g>
</svg>
