<?xml version="1.0" encoding="UTF-8" standalone="no"?>
<!-- Created with Inkscape (http://www.inkscape.org/) -->

<svg
   xmlns:dc="http://purl.org/dc/elements/1.1/"
   xmlns:cc="http://creativecommons.org/ns#"
   xmlns:rdf="http://www.w3.org/1999/02/22-rdf-syntax-ns#"
   xmlns:svg="http://www.w3.org/2000/svg"
   xmlns="http://www.w3.org/2000/svg"
   xmlns:sodipodi="http://sodipodi.sourceforge.net/DTD/sodipodi-0.dtd"
   xmlns:inkscape="http://www.inkscape.org/namespaces/inkscape"
   width="1052.3622"
   height="744.09448"
   id="svg2"
   version="1.1"
   inkscape:version="0.48.1 r9760"
   sodipodi:docname="how_to_write_big_apps.svg"
   inkscape:export-filename="/home/substack/media/vector/do_not_write_big_apps/how_to_write_big_apps.png"
   inkscape:export-xdpi="87.569527"
   inkscape:export-ydpi="87.569527">
  <defs
     id="defs4" />
  <sodipodi:namedview
     id="base"
     pagecolor="#abf1da"
     bordercolor="#666666"
     borderopacity="1.0"
     inkscape:pageopacity="1"
     inkscape:pageshadow="2"
     inkscape:zoom="0.49497475"
     inkscape:cx="715.41332"
     inkscape:cy="271.67069"
     inkscape:document-units="px"
     inkscape:current-layer="layer1"
     showgrid="false"
     inkscape:window-width="1364"
     inkscape:window-height="766"
     inkscape:window-x="0"
     inkscape:window-y="0"
     inkscape:window-maximized="0" />
  <metadata
     id="metadata7">
    <rdf:RDF>
      <cc:Work
         rdf:about="">
        <dc:format>image/svg+xml</dc:format>
        <dc:type
           rdf:resource="http://purl.org/dc/dcmitype/StillImage" />
        <dc:title></dc:title>
      </cc:Work>
    </rdf:RDF>
  </metadata>
  <g
     inkscape:label="Layer 1"
     inkscape:groupmode="layer"
     id="layer1"
     transform="translate(0,-308.2677)">
    <path
       style="fill:#ffffff;stroke:#000000;stroke-width:1px;stroke-linecap:butt;stroke-linejoin:miter;stroke-opacity:1;fill-opacity:1"
       d="m 807.11188,170.32784 c -0.0227,-0.97819 1.01016,3.46244 1.01016,12.12183 0,8.5132 10.95836,28.13096 16.16244,33.33503 0.0739,0.0739 7.48812,-3.23898 9.09137,-4.04061 6.70217,-3.35109 18.41809,-3.2658 23.23351,-8.08122 3.91114,-3.91115 19.79212,-2.61952 24.24366,-7.07107 1.76975,-1.76974 2.68949,-34.68615 1.01015,-36.36549 -1.35069,-1.35069 -9.40513,2.02031 -11.11168,2.02031 -21.53597,0 -41.87718,12.4337 -63.63961,8.08122 z"
       id="path4309"
       inkscape:connector-curvature="0"
       transform="translate(0,308.2677)" />
    <path
       style="fill:#ac9393;fill-opacity:1;stroke:#000000;stroke-width:1px;stroke-linecap:butt;stroke-linejoin:miter;stroke-opacity:1"
       d="m 911.4375,139.8125 c -5.39478,5.39478 -23.11835,30.73021 -26,43.125 -5.0976,5.46939 -10.00889,11.36797 -12.125,13.25 20.98995,24.92588 35.47164,41.33438 63.78125,60.65625 5.53469,3.77754 7.70022,8.93289 12.46875,12.1875 0.74417,0.50791 35.7282,-41.58782 39.1875,-46.65625 2.38799,-3.49877 -21.1039,-10.69646 -24.25,-12.84375 -8.19867,-5.59574 -18.24825,-12.49004 -26.6875,-18.25 -1.25119,-0.85396 -2.78498,-1.42593 -4.4375,-1.90625 -2.1955,-2.63972 -4.53063,-4.99938 -4.8125,-5.28125 -3.52283,-3.52282 -2.54333,-12.54334 -5.71875,-15.71875 -0.0277,-0.0277 -0.0661,-0.0352 -0.0937,-0.0625 -5.95019,-13.51874 -4.47952,-19.7604 -7.27189,-33.55076 z"
       transform="translate(0,308.2677)"
       id="path4074"
       inkscape:connector-curvature="0"
       sodipodi:nodetypes="cccssssscssccc" />
    <path
       style="fill:#ffffff;stroke:#000000;stroke-width:1px;stroke-linecap:butt;stroke-linejoin:miter;stroke-opacity:1"
       d="m 60.472297,314.587 c -0.85007,0.13439 -1.54442,0.48975 -2.05645,1.11433 -1.34383,1.63924 -6.09679,2.66196 -8.09892,5.10421 -2.37176,2.89314 -4.97512,7.63723 -7.56646,10.79821 -3.58671,4.37518 -2.44771,12.57076 -5.54128,16.34438 -5.809558,7.08665 5.32613,41.50759 2.06632,50.03995 -4.822592,12.62277 5.82761,29.52558 2.82268,42.77379 -5.216092,22.99689 7.46865,96.2714 22.19086,108.34052 4.09557,3.35751 20.09358,2.60607 22.90531,-0.82375 1.28084,-1.5624 5.66782,-0.57025 6.94866,-2.13265 1.72253,-2.10118 2.93213,-6.74844 4.84711,-9.08438 4.452423,-5.43118 -9.90838,-54.83401 1.764233,-69.07257 0.88744,-1.08252 -0.16216,-6.18057 0.72528,-7.26308 3.12343,-3.81004 15.5879,-18.5661 23.17759,-12.34416 0.13285,0.10891 0.28303,0.23277 0.41321,0.36732 4.57142,-0.0696 9.27246,1.02961 11.39052,2.76597 0.73653,0.6038 -0.4532,2.25721 0.28332,2.861 7.48019,6.13218 1.73061,41.15417 -0.43329,62.53459 0.58333,8.60428 0.95622,15.36405 1.19559,17.78123 0.62597,6.32104 22.22069,14.33656 24.17103,11.95749 6.08092,-7.41768 11.94656,-19.3478 18.79866,-27.70616 3.55378,-4.33499 3.12229,-14.96209 6.69155,-19.31595 1.84688,-2.25287 1.7181,-20.59112 3.29808,-24.72662 2.88268,-7.54519 -4.98038,-30.19884 -9.06921,-33.55082 -2.20055,-1.80398 -5.70828,-19.05195 -9.37567,-22.05843 l -18.72925,-15.35404 c -1.5624,-1.28083 -5.70067,0.55556 -7.26308,-0.72528 -13.44585,-11.02277 -47.910693,8.51572 -58.327083,18.58841 0.16198,-1.16358 0.35755,-3.28432 0.6132,-7.12636 0.34404,-5.17048 0.84322,-68.54181 -2.7795,-71.51168 -1.30241,-1.0677 -5.53606,-12.45973 -5.80944,-15.22034 -0.43567,-4.39944 -13.30304,-14.2959 -19.25357,-13.35513 z"
       id="path2985"
       inkscape:connector-curvature="0" />
    <path
       style="fill:#ffffff;fill-opacity:1;stroke:#000000;stroke-width:1px;stroke-linecap:butt;stroke-linejoin:miter;stroke-opacity:1"
       d="m 245.99554,404.27216 c -12.84232,0.65614 -26.55103,20.63332 -36,39.53125 -11.11761,22.23524 -5.91071,76.93304 10,92.84375 1.47245,1.47245 5.68381,2.8088 7.15625,4.28125 0.8627,0.8627 7.20775,0 8.5625,0 3.51872,0 10.19006,2.76434 12.84375,1.4375 13.94885,-6.97443 26.9545,-15.517 38.59375,-27.15625 15.37287,-15.37287 19.85536,-67.41427 10,-87.125 -1.04298,-2.08596 0.40216,-5.31659 -1.4375,-7.15625 -9.09673,-9.09674 -28.07476,-19.77037 -44.28125,-15.71875 -1.78467,-0.75442 -3.60288,-1.03123 -5.4375,-0.9375 z m 16.40625,31.34375 c 1.2786,-0.0691 2.42862,0.14737 3.3125,1.03125 16.64522,16.64522 10.93653,54.75097 -7.15625,72.84375 -1.26685,1.26685 -3.96564,0.57657 -5.6875,1.4375 -14.65812,7.32906 -29.99571,-21.47733 -22.875,-35.71875 4.14195,-8.28389 5.66083,-15.6029 10,-24.28125 6.89049,-13.78098 12.14199,-14.40912 15.71875,-14.28125 2.08333,0 4.55649,-0.91616 6.6875,-1.03125 z"
       id="path2990"
       inkscape:connector-curvature="0" />
    <path
       style="fill:#ffffff;fill-opacity:1;stroke:#000000;stroke-width:1px;stroke-linecap:butt;stroke-linejoin:miter;stroke-opacity:1"
       d="m 330.00001,409.50503 c -25.05674,-0.38266 -19.44217,72.54423 -4.28572,102.85715 3.66659,7.33317 2.71296,15.5701 7.14286,20 0.55663,0.55662 4.84251,0 5.71429,0 19.06072,0 23.09301,-19.04317 30,-32.85715 3.38586,-6.77171 5.71428,-16.09754 5.71428,-15.71428 0,5.47304 -2.40483,18.04747 0,22.85714 1.10373,2.20745 2.85715,7.26261 2.85715,8.57143 0,5.91136 17.85344,29.28942 25.71428,21.42857 4.08767,-4.08767 12.69161,-6.81178 15.71429,-12.85714 15.31149,-30.62299 28.57143,-55.16988 28.57143,-91.42857 0,-4.42992 0.82781,-10.60076 -1.42858,-12.85715 -2.69618,-8.72655 -0.25797,-15.66783 -11.42857,-10 -26.37973,13.18987 -19.34493,30.11844 -30,51.42858 -1.87269,3.74538 -4.28571,13.94806 -4.28571,17.14285 0,0.95238 -1.42857,2.38096 -1.42857,1.42857 0,-16.22455 0.67548,-35.79188 -7.14286,-51.42857 -1.21901,-2.43802 -4.50828,-16.61885 -11.42857,-15.71428 -13.14706,1.71849 -12.14722,9.89094 -14.28572,18.57143 -2.85715,11.59754 -10.1435,38.71494 -14.28571,42.85714 -7.09949,-9.15218 2.46655,-57.5022 -21.42857,-64.28572 z"
       id="path2995"
       inkscape:connector-curvature="0"
       sodipodi:nodetypes="cssssssssssccsssssscc" />
    <path
       style="fill:#ffffff;fill-opacity:1;stroke:#000000;stroke-width:1px;stroke-linecap:butt;stroke-linejoin:miter;stroke-opacity:1"
       d="m 572.85715,402.36218 c -5.2504,-3.80078 -45.71429,-7.08126 -45.71429,20 0,1.11859 -0.71282,6.43004 0,7.14286 6.41486,6.41486 20.86876,5.71429 28.57143,5.71429 0.9805,0 15.71429,-2.64578 15.71429,0 0,20.12046 -12.63335,50.4476 -2.85715,70 0.59471,1.18941 -0.90616,4.80812 0,5.71428 4.82966,4.82966 9.04029,12.37729 15.71429,15.71429 17.40045,8.70022 45.72468,-4.3065 51.42857,-15.71429 2.82212,-5.64423 5.06455,-12.20741 8.57143,-15.71428 9.05869,-9.05869 -7.33868,-18.57143 -12.85714,-18.57143 -14.50632,0 -32.85715,40.19887 -32.85715,0 0,-5.2429 1.42857,-11.14512 1.42857,-17.14286 0,-4.1038 -4.51842,-19.76729 -1.42857,-22.85714 C 607.26654,427.95279 650,446.59986 650,419.50504 c 0,-1.49395 2.97603,-4.04796 1.42858,-7.14286 -1.85661,-3.7132 -3.50017,-9.21445 -5.71429,-11.42857 -7.41595,-7.41595 -43.48949,0.79622 -44.28571,0 -1.3409,-1.34089 1.07936,-3.5873 1.42857,-4.28571 1.7429,-3.48581 0.98023,-43.30549 0,-44.28572 -3.70521,-3.7052 -8.16332,-8.0612 -15.71429,-4.28571 -17.20144,8.60072 -14.28571,34.03325 -14.28571,54.28571 z"
       id="path2997"
       inkscape:connector-curvature="0" />
    <path
       style="fill:#ffffff;fill-opacity:1;stroke:#000000;stroke-width:1px;stroke-linecap:butt;stroke-linejoin:miter;stroke-opacity:1"
       d="m 702.37212,399.32098 c -3.0476,0.41273 -6.81208,2.00026 -12.12391,5.11232 -4.6898,-0.20065 -21.44813,14.36135 -28.01041,34.55617 -6.08442,18.72424 -8.91606,50.64502 2.9235,67.47316 17.70816,25.16945 55.59938,13.02481 68.5821,-14.65694 13.71106,-29.23476 11.63316,-64.25252 -12.34059,-81.95106 -9.03768,-6.67204 -12.32597,-11.44165 -19.03069,-10.53365 z m -8.04472,37.23806 c -0.0677,0.38925 -7.4456,10.95672 0.81609,0.38275 11.75998,-4.2509 26.6005,4.91997 21.75713,19.825 -0.51783,1.59359 0.58717,6.05033 -0.32496,7.28587 l -13.2029,17.88412 c -0.44476,0.60247 -4.63857,1.67434 -5.44559,2.24213 -17.04111,11.9894 -16.8737,-29.86274 -10.18976,-38.91655 5.13905,-6.96116 6.62076,-8.88025 6.58999,-8.70332 z"
       id="path2999"
       inkscape:connector-curvature="0" />
    <path
       style="fill:#ffffff;fill-opacity:1;stroke:#000000;stroke-width:1px;stroke-linecap:butt;stroke-linejoin:miter;stroke-opacity:1"
       d="m 230,635.21933 c -0.63963,-13.06679 -15.95288,-68.45214 -32.85714,-60 -3.61381,1.8069 -5.85134,5.85133 -8.57143,8.57142 -2.74852,2.74852 -1.19009,9.52305 -2.85714,12.85715 -10.44858,20.89714 20.11749,70.23498 28.57143,87.14285 3.09871,6.19744 5.80665,22.18904 12.85714,25.71429 1.39258,0.69629 11.11951,3.1662 12.85714,1.42857 7.29163,-7.29163 18.57143,-31.28547 18.57143,-42.85714 0,-2.69686 5.93695,10.66799 7.14286,14.28571 1.63989,4.91968 17.48164,38.23264 24.28571,31.42857 6.82629,-6.82628 13.59709,-11.47988 18.57143,-21.42857 2.69693,-5.39386 15.92178,-99.585 12.85714,-105.71428 -1.84392,-3.68786 -2.01343,-5.29243 -5.71428,-7.14286 -1.95677,-0.97838 -2.96865,0.77004 -4.28572,1.42857 -0.86253,0.43127 -3.62533,-0.66038 -4.28571,0 -12.01713,12.01713 -12.8485,32.83985 -21.42857,50 -0.34269,0.68537 -0.43892,16.70394 -1.42857,15.71429 -3.40409,-3.40409 -5.36214,-37.86712 -8.57143,-44.28572 -3.90169,-7.80337 -2.63333,-16.91904 -8.57143,-22.85714 -16.95616,-16.95616 -29.85798,34.14369 -34.28572,38.57143 -0.9237,0.9237 -1.98029,15.38916 -2.85714,17.14286 z"
       id="path3004"
       inkscape:connector-curvature="0" />
    <path
       style="fill:#ffffff;fill-opacity:1;stroke:#000000;stroke-width:1px;stroke-linecap:butt;stroke-linejoin:miter;stroke-opacity:1"
       d="m 398.80357,569.5177 c -9.91899,-0.0657 -19.95995,3.9912 -28.8125,12.84375 -1.46348,1.46348 -7.42276,-7.42276 -8.5625,-8.5625 -5.28731,-5.2873 -20.39494,6.11369 -22.84375,8.5625 -7.30096,28.02406 -1.4375,59.72168 -1.4375,88.5625 0,3.36921 -2.23201,20.643 0,22.875 1.78138,1.78139 1.86956,7.58831 4.28125,10 1.58497,1.58498 5.81507,4.37757 7.15625,5.71875 6.44099,6.44099 17.29158,-6.05192 18.5625,-8.59375 7.6039,-15.2078 -10.53859,-61.79781 -2.875,-77.125 2.44331,-4.88661 2.74341,-9.86841 7.15625,-14.28125 3.7968,-3.7968 35.24368,-11.05021 39.84375,-7.28125 6.11236,-1.84355 13,-2.20586 13,-18.4375 0,-0.6203 0.28794,-2.96476 0.25,-4.46875 -7.831,-6.29715 -16.73295,-9.75299 -25.71875,-9.8125 z"
       id="path3006"
       inkscape:connector-curvature="0" />
    <path
       style="fill:#ffffff;fill-opacity:1;stroke:#000000;stroke-width:1px;stroke-linecap:butt;stroke-linejoin:miter;stroke-opacity:1"
       d="m 451.42857,573.79076 c -6.67827,1.78858 -13.26176,3.66639 -15.71428,8.57142 -2.56477,5.12954 -8.04072,52.48999 -4.28572,60 1.22496,2.44992 2.99114,9.73202 1.42858,12.85715 -1.78317,3.56632 -2.27511,32.01061 0,34.28571 1.60324,1.60325 11.33458,20.09399 18.57142,12.85714 3.89241,-3.8924 6.01861,-7.7515 8.57143,-12.85714 2.60014,-5.20027 6.08009,-103.55411 2.85715,-110 -1.77658,-3.55315 -7.32354,-4.89328 -11.42858,-5.71428 z"
       id="path3008"
       inkscape:connector-curvature="0" />
    <path
       style="fill:#ffffff;fill-opacity:1;stroke:#000000;stroke-width:1px;stroke-linecap:butt;stroke-linejoin:miter;stroke-opacity:1"
       d="m 454.28572,525.21933 c -18.48974,7.49181 14.54586,-7.24692 -7.14286,1.42857 -0.0711,0.0284 -1.25391,4.11106 -1.42857,4.28572 -17.36643,17.36643 -0.32521,34.44832 11.42857,28.57142 16.64256,-8.32128 20.01727,-40.00431 -2.85714,-34.28571 z"
       id="path3010"
       inkscape:connector-curvature="0" />
    <path
       style="fill:#ffffff;fill-opacity:1;stroke:#000000;stroke-width:1px;stroke-linecap:butt;stroke-linejoin:miter;stroke-opacity:1"
       d="m 511.42857,582.36219 c -3.56865,-2.03574 -21.09171,-6.05114 -31.42857,4.28571 -1.42857,1.42858 1.42857,7.14286 0,8.57143 -2.25508,2.25508 -0.6169,7.95453 1.42857,10 9.18115,9.18116 23.8399,-5.17735 30,7.14286 -4.48325,12.68517 -2.77283,29.75008 0,51.42857 -1.49778,15.78349 -1.10314,33.18257 4.28571,38.57143 3.47714,3.47713 8.9191,5.88812 14.28572,8.57143 5.69765,2.84882 16.65469,4.5298 22.85714,1.42857 11.57714,-5.78857 31.11963,-19.18931 21.42857,-38.57143 -6.67269,-13.34539 -30.09919,11.23018 -37.14285,-2.85714 -4.24856,-8.49712 -3.50042,-53.64245 1.42857,-58.57143 1.48234,-1.48234 24.88348,3.68795 35.71428,-7.14286 6.50104,-6.50103 -1.69605,-19.41945 -5.71428,-21.42857 -6.46631,-3.23315 -21.19484,4.51945 -25.71429,0 -2.46363,-2.46363 1.42857,-11.49414 1.42857,-14.28571 0,-11.63951 -2.55233,-23.98091 -10,-31.42857 -5.16454,-5.16455 -8.44638,-2.53765 -17.14285,1.42857 -11.2007,5.10832 -13.40246,27.4808 -5.71429,42.85714 z"
       id="path3038"
       inkscape:connector-curvature="0"
       sodipodi:nodetypes="csssccssssssssssssc" />
    <path
       style="fill:#ffffff;fill-opacity:1;stroke:#000000;stroke-width:1px;stroke-linecap:butt;stroke-linejoin:miter;stroke-opacity:1"
       d="m 649.32143,567.16502 c -6.31541,-0.0319 -12.61057,1.83654 -19.3125,5.1875 -3.86385,1.93193 -9.01115,2.34932 -12.875,4.28125 -10.54665,5.27332 -19.67119,18.26495 -28.5625,27.15625 -0.93654,0.93655 -0.72178,5.00303 -1.4375,5.71875 -5.53136,5.53135 -0.8271,14.52921 -4.28125,21.4375 -10.55858,21.11717 13.10584,71.40625 34.28125,71.40625 5.46021,0 24.84981,5.18144 28.59375,1.4375 1.70815,-1.70815 8.07764,-2.3589 10,-4.28125 6.70828,-6.70828 25.09342,-25.53191 20,-35.71875 -14.22525,-28.4505 -30.12505,22.0781 -48.59375,12.84375 -8.87317,-4.43659 -31.04901,-23.23224 -20,-34.28125 2.69374,-2.69374 7.62798,0 11.4375,0 6.47109,-2.06228 13.28559,-1.40625 20,-1.40625 10.372,0 24.56531,1.15345 31.4375,-5.71875 12.50365,-12.50364 11.01116,-35.07143 1.40625,-54.28125 -1.53599,-3.07199 -4.11849,-8.49674 -7.125,-10 -5.13692,-2.56846 -10.05677,-3.75643 -14.96875,-3.78125 z m -1.3125,26.71875 c 3.10826,-0.0554 5.81505,0.3919 7.71875,1.34375 3.56112,1.78055 3.37278,6.59598 1.40625,8.5625 -2.14286,2.14286 0.73661,9.29464 -1.40625,11.4375 -8.28541,8.28541 -23.53803,7.95178 -38.59375,2.84375 -3.66572,-14.66286 17.40589,-23.94732 30.875,-24.1875 z"
       id="path3069"
       inkscape:connector-curvature="0" />
    <path
       style="fill:#8383ff;fill-opacity:1;stroke:#000000;stroke-width:1px;stroke-linecap:butt;stroke-linejoin:miter;stroke-opacity:1"
       d="m 168.56696,705.23199 c -6.90211,0 -14.97355,2.09854 -18.5625,5.6875 -5.5544,5.55439 -14.19938,11.27375 -18.5625,20 -18.684,37.368 -27.2693,115.41083 -12.875,158.59375 4.5845,13.7535 10.71563,45.34218 25.71875,52.84375 7.65625,3.82812 17.11558,3.57342 24.28125,7.15625 5.88071,2.94035 24.74909,-4.5308 30,-7.15625 4.83652,-2.41826 10.78597,-3.25236 15.71875,-5.71875 22.97933,-11.48966 38.27664,-42.27203 48.5625,-62.84375 2.5839,-5.16781 1.69042,-11.97457 4.28125,-17.15625 2.38427,-4.76854 -2.4345,-14.86899 -4.28125,-18.5625 -2.51552,-5.03104 -4.45754,-13.05129 -8.5625,-17.15625 -1.49883,-1.49883 -6.32944,-2.04819 -8.5625,-4.28125 -17.15349,-17.15349 -40.02736,-11.39257 -60,-1.40625 4.16142,-5.83375 2.89645,-12.94916 5.71875,-18.59375 13.19172,-26.38344 15.98284,-91.40625 -22.875,-91.40625 z m 27.5625,131.71875 c 13.20521,0.23368 10.2831,38.99815 1,48.28125 -0.84397,0.84397 -8.14338,11.82537 -12.84375,7.125 -3.6647,-3.66471 2.41097,-18.02182 0,-22.84375 -2.0194,-4.0388 0,-11.47381 0,-17.15625 0,-3.89325 0.0965,-6.06913 0.21875,-7.25 -0.0714,-0.44486 -0.13831,-0.78596 -0.21875,-1.3125 4.88211,-4.88211 8.79639,-6.89768 11.84375,-6.84375 z"
       id="path3113"
       inkscape:connector-curvature="0" />
    <path
       style="fill:#8383ff;fill-opacity:1;stroke:#000000;stroke-width:1px;stroke-linecap:butt;stroke-linejoin:miter;stroke-opacity:1"
       d="m 298.57142,815.21933 c -7.74659,14.55364 -12.85714,34.8319 -12.85714,51.42857 0,22.70875 -8.03757,49.10528 8.57143,65.71429 4.11879,4.11879 12.77659,10.08055 18.57143,4.28571 18.74779,-18.74779 16.10578,-45.4602 24.28571,-70 3.56064,-10.6819 2.07893,-47.92107 -4.28571,-54.28571 -8.92073,-8.92073 -30.39948,-12.68782 -34.28572,2.85714 z"
       id="path3117"
       inkscape:connector-curvature="0" />
    <path
       style="fill:#8383ff;fill-opacity:1;stroke:#000000;stroke-width:1px;stroke-linecap:butt;stroke-linejoin:miter;stroke-opacity:1"
       d="m 322.85714,738.07647 c -1.20887,0.86593 -10.77281,-1.31152 -15.71429,8.57143 -16.73551,33.47102 22.48505,43.22924 32.85715,32.85714 15.01208,-15.01208 10.43004,-48.32179 -17.14286,-41.42857 z"
       id="path3119"
       inkscape:connector-curvature="0" />
    <path
       style="fill:#8383ff;fill-opacity:1;stroke:#000000;stroke-width:1px;stroke-linecap:butt;stroke-linejoin:miter;stroke-opacity:1"
       d="m 421.6875,812.12485 c -3.59131,0.0365 -7.89448,1.39294 -13.125,4.53125 -25.49845,-4.30336 -50.98827,24.4023 -58.5625,47.125 -2.3601,7.08031 -2.02053,14.65532 -4.28125,21.4375 -2.13329,6.39985 -5.3308,16.91383 -2.875,24.28125 2.04805,6.14415 7.20709,11.57043 10,17.15625 2.08967,4.17933 10.60276,4.48217 14.3125,5.71875 10.20682,3.40227 30.5155,5.17199 38.5625,-2.875 0.62767,-0.62768 5.14947,-4.28125 5.71875,-4.28125 2.86873,0 0.90279,25.85412 0,28.5625 -1.21248,3.63746 -1.62625,7.69124 -2.875,11.4375 -7.37783,22.13347 -30.84256,33.84434 -52.84375,22.84375 -4.14156,-2.07078 -10.1321,1.4375 -14.28125,1.4375 -1.11858,0 -6.44342,-0.71283 -7.15625,0 -11.98649,11.98645 -5.56983,32.21505 10,40.00005 6.39968,3.1998 28.76505,-2.9607 34.28125,-5.7188 3.89165,-1.9458 10.36673,0.551 14.28125,-1.4062 12.49921,-6.2496 22.63167,-12.6317 32.875,-22.87505 9.98422,-9.98423 9.52902,-24.74553 15.71875,-37.125 0.30137,-0.60274 0.45949,-1.35717 0.53125,-2.21875 8.2e-4,-0.01 -7.9e-4,-0.0215 0,-0.0312 3.4295,-6.31075 6.24064,-29.54955 8.03125,-49.1875 2.28878,-19.8522 9.01647,-67.98656 -1.40625,-87.15625 -7.58072,-7.58077 -11.34389,-11.81419 -26.90625,-11.65625 z m -7.71875,30.59375 c 6.66879,-0.31674 10.6479,7.58004 10.34375,14.1875 -2.64861,11.27857 -4.5049,22.38856 -5.4375,34 -6.89404,13.35206 -26.34609,13.07598 -36.34375,3.5625 -10.18645,-7.66608 -7.7816,-22.06224 -0.34375,-30.78125 6.91389,-8.5877 15.32253,-21.11316 27.8125,-19.90625 1.40854,-0.68209 2.73379,-1.00384 3.96875,-1.0625 z"
       id="path3121"
       inkscape:connector-curvature="0" />
    <path
       style="fill:#c0ff83;stroke:#000000;stroke-width:0.91971117000000002px;stroke-linecap:butt;stroke-linejoin:miter;stroke-opacity:1;fill-opacity:1"
       d="m 558.7004,799.99204 c -0.2888,-0.0345 -0.57073,-0.0505 -0.87211,-0.0656 -3.21469,-0.16126 -7.16969,0.7796 -12.29147,3.25462 -5.4763,-3.36008 -24.17727,3.99309 -39.53006,14.09146 -3.33036,2.19058 -11.47192,16.18793 -12.57999,16.91678 -0.60813,0.39999 -6.21623,5.75255 -4.06314,8.09465 27.07693,29.45373 47.43341,-12.8732 67.87818,-1.34153 0.40115,0.22627 1.31816,0.20253 2.20934,0.18052 l 8.38282,9.3318 c 2.4445,4.9433 3.68027,10.67707 2.67622,17.46566 l -1.41984,9.59979 c -0.11822,0.79935 0.58813,2.51306 -0.35689,2.41306 -0.42998,-0.0455 -8.3507,-9.08374 -9.9292,-10.80078 -2.00874,-2.18507 -21.81571,-4.9468 -25.31036,-3.90385 -5.24005,1.56385 -13.71624,1.44521 -17.91191,4.20494 -15.8174,10.40399 -34.2221,38.15074 -25.8878,58.13162 6.5334,15.66333 13.1648,19.75846 28.89655,28.6318 1.25586,0.70835 7.75973,3.56188 9.7442,2.25659 2.81376,-1.85078 25.43011,-6.42926 29.4045,-4.18754 2.53798,1.43152 13.14167,11.90787 18.96081,8.0803 4.22392,-2.77831 14.25482,-8.26335 18.97097,-11.36544 9.56277,-6.28996 13.82034,-33.16107 10.99041,-45.13633 -0.98768,-4.17947 0.3545,-37.18817 -0.17751,-37.76688 -3.67649,-3.99922 -1.67838,-12.72659 -4.36998,-18.15105 0.66918,-1.72836 1.19977,-3.38402 0.46177,-4.1868 -4.78726,-5.20749 -2.79367,-18.35464 -7.95077,-23.96443 -2.68706,-2.92293 -4.59883,-6.37271 -7.28589,-9.29564 -1.26876,-1.38014 -6.63573,-1.67655 -8.13937,-3.31216 -4.13973,-4.50313 -9.65023,-6.79116 -15.21662,-7.20456 -1.5275,-1.01621 -3.26132,-1.72968 -5.28286,-1.97094 z m -23.8758,86.90202 c 8.55463,1.11297 20.41899,9.11309 22.5768,11.31338 21.62217,6.09863 11.63931,28.04081 -6.39192,33.42209 -5.02135,1.49859 -13.91967,0.14373 -16.81409,-3.00475 -0.89786,-0.97669 -12.58369,-5.31486 -14.71267,-7.63074 -9.70805,-10.56021 1.41338,-27.99278 9.21367,-33.12347 1.5891,-1.04524 3.73292,-1.28813 6.12821,-0.97651 z"
       id="path3163"
       inkscape:connector-curvature="0" />
    <path
       style="fill:#c0ff83;stroke:#000000;stroke-width:1px;stroke-linecap:butt;stroke-linejoin:miter;stroke-opacity:1;fill-opacity:1"
       d="m 670.9915,797.50816 c -15.93019,1.16644 -31.05476,12.4033 -38.92388,21.08086 -5.26398,5.80479 -4.92589,12.78055 -7.64644,18.95824 -0.92556,2.10169 -2.66388,4.39132 -2.5925,5.85224 0.52466,10.73823 -1.10548,24.14948 -4.00779,34.51795 -4.4114,15.75972 4.21474,46.89972 0.12659,61.5046 -3.56204,12.72539 -2.8467,61.37865 3.5548,72.75705 2.99529,5.3239 24.91775,43.2124 34.50876,32.6361 20.43533,-22.5348 4.6657,-63.19333 8.29765,-93.36 12.17255,-10.09403 21.38223,4.10189 31.40004,-1.53416 11.23001,-6.31802 19.70721,-11.20561 28.98826,-21.44017 5.08471,-5.6071 4.0368,-11.15868 6.20913,-18.9193 9.84809,-35.18232 -12.06684,-95.34943 -43.95321,-109.39166 -5.25155,-2.31269 -10.65135,-3.05056 -15.96141,-2.66175 z m 3.54557,52.07652 c 14.84444,-0.82669 19.90164,34.07298 18.03472,36.1317 -3.52169,3.8835 -4.93733,14.45767 -9.08223,19.02839 -1.28299,1.41481 -5.8736,1.93759 -7.00895,3.18959 -0.3244,0.35772 -5.8796,1.49919 -8.62092,-0.98673 -5.66711,-5.13913 -2.62902,-8.57776 -6.47902,-15.42094 -2.50274,-4.44852 -0.37054,-7.58405 -0.6283,-12.85966 -0.38498,-7.87952 4.1285,-16.15522 4.52701,-24.5314 3.44024,-3.03906 6.50871,-4.39785 9.25769,-4.55095 z"
       id="path3171"
       inkscape:connector-curvature="0" />
    <path
       style="fill:#c0ff83;stroke:#000000;stroke-width:1px;stroke-linecap:butt;stroke-linejoin:miter;stroke-opacity:1;fill-opacity:1"
       d="M 793.25 479.3125 C 792.59582 479.36733 791.9914 479.53555 791.4375 479.8125 C 783.27301 483.89474 775.51839 488.47518 767.15625 492.65625 C 755.76143 498.35366 746.83868 507.57263 741.4375 518.375 C 739.96679 521.31643 745.20341 567.34432 747.15625 571.25 C 749.76959 576.47668 742.32959 590.15918 745.71875 596.9375 C 748.11362 601.72724 748.11362 612.14775 745.71875 616.9375 C 740.95684 626.4613 750.48065 643.13244 745.71875 652.65625 C 742.87372 658.3463 739.44709 698.1225 741.4375 704.09375 C 743.38535 709.93729 744.40506 715.74763 747.15625 721.25 C 752.94852 732.83454 776.2076 730.27231 781.4375 719.8125 C 789.14375 704.39999 785.71875 679.298 785.71875 662.65625 L 785.71875 644.09375 C 782.9122 637.07725 776.82173 630.11577 782.84375 624.09375 C 785.37207 621.56544 815.97625 628.11751 820 624.09375 C 822.19558 621.89817 827.83263 621.61494 831.4375 619.8125 C 836.42596 617.31827 839.25304 610.8891 844.28125 608.375 C 863.68117 598.67504 864.28125 575.02782 864.28125 556.9375 C 864.28125 552.49393 865.68442 545.4595 864.28125 541.25 C 855.92918 516.19378 844.32126 496.25438 820 484.09375 C 814.53882 481.36316 807.2771 483.19653 801.4375 481.25 C 799.60465 480.63905 796.08478 479.07488 793.25 479.3125 z M 795.03125 533 C 797.42075 533.01599 799.54375 533.88126 802.84375 535.53125 C 829.01831 548.61853 806.36989 603.3074 787.15625 584.09375 C 785.56317 582.50068 787.15625 570.87825 787.15625 568.375 C 787.15625 564.36 785.71875 558.96171 785.71875 554.09375 L 785.71875 535.53125 C 790.00359 533.81732 792.64175 532.98401 795.03125 533 z "
       id="path3189"
       transform="translate(0,308.2677)" />
    <path
       style="fill:#c0ff83;stroke:#000000;stroke-width:1px;stroke-linecap:butt;stroke-linejoin:miter;stroke-opacity:1;fill-opacity:1"
       d="m 968.57143,829.50504 c 0.17567,0.76288 -5.00204,-20.71632 -14.28572,-30 -5.38767,-5.38768 -11.8874,-3.80085 -18.57143,-7.14286 -4.23729,-2.11864 -10.04842,-2.11864 -14.28571,0 -2.66667,1.33334 -7.33333,-1.33333 -10,0 -15.32561,7.66281 -25.71429,17.4058 -25.71429,38.57143 0,1.93663 -1.41813,12.86758 0,14.28572 2.602,2.60199 5.89673,8.66265 11.42858,11.42857 13.42115,6.71058 59.53419,22.36017 48.57142,44.28571 -17.13855,34.27711 -54.10154,-5.80637 -68.57142,1.42857 -4.1033,2.05165 -4.72534,4.72534 -7.14286,7.14286 -6.76712,6.76712 -2.60492,21.55468 5.71428,25.71429 27.88648,13.94323 60.39617,18.17526 82.85715,-4.28572 4.78727,-4.78727 11.13227,-6.55025 14.28571,-12.85714 2.08348,-4.16696 3.1135,-18.05873 1.42857,-21.42857 -3.33974,-6.67949 -1.88041,-18.04654 -5.71428,-25.71429 -5.008,-10.01599 -30.91966,-16.17411 -38.57143,-20 -4.52615,-2.26307 -12.01448,-8.82819 -8.57143,-15.71428 9.29615,-18.5923 24.86413,7.72127 28.57143,11.42857 0.77014,0.77013 26.25757,2.07249 18.57143,-17.14286 z"
       id="path3207"
       inkscape:connector-curvature="0" />
    <path
       style="fill:#ac9393;stroke:#000000;stroke-width:1px;stroke-linecap:butt;stroke-linejoin:miter;stroke-opacity:1"
       d="m 978.57143,226.95163 c 25.74987,-47.58934 106.96627,-65.71429 164.28567,-65.71429 3.4671,0 4.8705,19.48185 5.7143,22.85714 0.5431,2.17245 6.8284,17.45731 5.7143,18.57143 -4.3353,4.33534 -45.9582,4.40768 -54.2857,8.57143 -3.8868,1.94342 -9.0755,0.96631 -12.8571,2.85714 -11.7797,5.88984 -20.7451,10.37253 -31.4286,15.71429 -8.3574,4.1787 -19.5777,11.00625 -27.1429,18.57143 -3.2651,3.26517 -13.2147,22.67832 -21.4285,18.57143 -8.74038,-4.37017 -10.44416,-20.44412 -15.71433,-25.71429 -4.53555,-4.53555 -7.72306,-5.72892 -12.85714,-14.28571 z"
       id="path4005"
       inkscape:connector-curvature="0"
       transform="translate(0,308.2677)" />
    <path
       style="fill:#ac9393;stroke:#000000;stroke-width:1px;stroke-linecap:butt;stroke-linejoin:miter;stroke-opacity:1"
       d="m 898.57143,288.3802 c -1.90476,0.47619 -3.95818,0.55052 -5.71429,1.42857 -7.00123,3.50061 -19.19978,19.19978 -25.71428,25.71428 -10.65293,10.65293 -21.28957,15.64479 -32.85715,21.42858 -4.79398,2.39699 -13.57607,-1.07375 -17.14285,-2.85715 -23.92376,-11.96188 -18.10538,-27.63932 -28.57143,-48.57143 -2.42822,-4.85644 0.40368,-23.88203 -2.85714,-27.14285 -7.00294,-7.00294 -16.56215,-15.29036 -30,-8.57143 -9.34046,4.67023 -4.34301,12.97172 -8.57143,21.42857 -9.21572,18.43143 8.47268,75.61554 18.57143,85.71429 8.33537,8.33537 17.80143,17.80142 27.14285,27.14285 2.23286,2.23286 23.21632,11.0694 28.57143,5.71429 3.48535,-3.48535 37.57708,-11.86279 41.42857,-15.71429 3.11663,-3.11662 10.72268,-5.00838 14.28572,-8.57143 13.81546,-13.81545 30.03859,-27.22003 38.57143,-44.28571 2.10422,-4.20844 -4.28572,-8.46345 -4.28572,-11.42857 0,-7.28646 -4.64776,-18.14482 -12.85714,-21.42857 z"
       id="path4033"
       inkscape:connector-curvature="0"
       transform="translate(0,308.2677)" />
    <path
       style="fill:#c8b7b7;fill-opacity:1;stroke:#000000;stroke-width:1px;stroke-linecap:butt;stroke-linejoin:miter;stroke-opacity:1"
       d="m 786.83482,488.48645 c -1.64143,-0.12482 -3.87844,1.77656 -6.84375,6.71875 -3.00216,5.66026 -5.71875,9.55196 -5.71875,15.71875 0,3.39989 -2.84375,8.03761 -2.84375,11.4375 0,0.75253 0.0288,1.44989 0.0625,2.125 -0.71293,-0.0724 -1.43805,-0.10461 -2.15625,-0.125 0.25226,-11.29131 -5.35817,-31.52909 -9.5625,-34.3125 -3.39249,-2.24595 -7.34206,3.72227 -10.34375,6.46875 -1.74788,5.45045 -3.27646,12.58224 -2.1875,17.9375 0.75619,3.71873 3.00811,7.72694 3.375,9.53125 0.35332,1.73755 0.92609,3.33864 1.625,4.78125 -0.58583,0.35018 -1.14022,0.73899 -1.6875,1.125 -3.31725,-11.1165 -10.45092,-24.24242 -12.71875,-23.5 -2.3076,0.75543 -4.22911,2.36918 -6.34375,3.5625 -2.13445,5.62289 -2.7407,9.96225 -0.96875,15.375 3.14051,9.59322 6.01006,13.91767 11.9375,17.3125 -0.18036,2.60894 0.36546,5.38718 1.8125,8.28125 1.5363,3.07262 -0.65087,5.06788 1.4375,7.15625 1.79592,1.79592 1.19897,8.32397 2.875,10 1.83356,1.83356 5.7516,1.47036 7.125,2.84375 19.31742,19.31742 32.85347,-5.97276 36.5625,-20.21875 12.34624,-4.41092 27.71998,-12.62377 22,-18.34375 -2.67025,-2.67025 -19.64508,2.07078 -25.375,4.6875 -2.02606,-3.66386 -2.60063,-6.72514 -3.75,-7.4375 1.80441,-2.04279 3.4881,-4.53871 4.84375,-7.25 0.84462,-1.68924 3.28321,-33.38531 -3.15625,-33.875 z"
       id="path4035"
       inkscape:connector-curvature="0" />
    <path
       style="fill:#c8b7b7;stroke:#000000;stroke-width:1px;stroke-linecap:butt;stroke-linejoin:miter;stroke-opacity:1"
       d="m 1085.7143,820.93361 c -5.7455,2.516 -19.4282,-8.66643 -34.2857,-18.57143 -11.2204,-7.48021 -23.9189,-12.13637 -35.7143,-20 -36.14739,-24.09825 -92.96039,-100.20647 -111.42859,-137.14285 -2.70926,-5.41853 -25.84209,-47.01505 -22.85714,-50 6.96943,-6.96943 13.97453,-22.70156 25.71429,-28.57143 24.06482,-12.03241 47.19108,-36.45269 68.57143,-47.14286 4.02038,-2.01019 19.77859,-21.64997 21.42857,-20 7.18244,7.1824 37.76894,34.10925 41.42854,41.42857 10.4172,20.83425 35.5592,54.13055 52.8572,71.42857 11.7509,11.75093 28.6871,18.68718 38.5714,28.57143"
       id="path4003"
       inkscape:connector-curvature="0" />
    <path
       style="fill:none;stroke:#000000;stroke-width:1px;stroke-linecap:butt;stroke-linejoin:miter;stroke-opacity:1"
       d="m 811.15249,191.54104 c 11.04933,4.2349 48.72387,0.89188 64.64977,-7.07107"
       id="path4311"
       inkscape:connector-curvature="0"
       transform="translate(0,308.2677)" />
    <path
       style="fill:none;stroke:#000000;stroke-width:1px;stroke-linecap:butt;stroke-linejoin:miter;stroke-opacity:1"
       d="m 856.60936,178.40906 c 0.22941,7.6717 3.31472,17.45686 8.08122,22.22335"
       id="path4317"
       inkscape:connector-curvature="0"
       transform="translate(0,308.2677)" />
    <path
       style="fill:#c8b7b7;fill-opacity:1;stroke:#000000;stroke-width:1px;stroke-linecap:butt;stroke-linejoin:miter;stroke-opacity:1"
       d="m 869.02189,351.60051 c -7.45679,-0.0745 -20.49923,6.96203 -23.0625,8.5 -26.78143,10.67953 -46.06441,61.69707 -51.4375,88.5625 -2.64468,13.22342 -2.80793,25.66649 -1,36.84375 17.80841,5.5308 41.87622,9.89002 49.59375,6.03125 5.22386,-2.61193 14.829,-3.42275 18.5625,-7.15625 0.88232,-0.88232 7.0195,-5.71875 7.125,-5.71875 5.47526,0 -3.56835,23.56835 -4.28125,24.28125 -1.16198,1.16197 -6.15645,3.07823 -8.5625,4.28125 -7.32917,3.66459 -35.22192,10.12273 -51.46875,7.75 20.11278,31.06826 61.36326,35.98635 94.3125,-13.4375 16.69339,-25.04009 25.71875,-53.63556 25.71875,-84.3125 0,-2.78918 1.20175,-9.00276 0,-11.40625 -4.61631,-9.23262 -7.11183,-18.5674 -11.40625,-27.15625 -7.28838,-14.57677 -31.10646,-16.82522 -40,-25.71875 -0.9272,-0.9272 -2.37295,-1.32657 -4.09375,-1.34375 z"
       id="path4072"
       inkscape:connector-curvature="0" />
    <path
       style="fill:#ffffff;stroke:#000000;stroke-width:1px;stroke-linecap:butt;stroke-linejoin:miter;stroke-opacity:1;fill-opacity:1"
       d="m 822.85714,109.80877 c -9.41547,-0.84219 -10.50345,3.3606 -15.71428,8.57143 -10.25228,10.25227 7.7084,26.1458 17.14285,21.42857 10.78183,-5.39092 19.682,-30 -1.42857,-30 z"
       id="path4135"
       inkscape:connector-curvature="0"
       transform="translate(0,308.2677)" />
    <path
       style="fill:#ffffff;stroke:#000000;stroke-width:1px;stroke-linecap:butt;stroke-linejoin:miter;stroke-opacity:1;fill-opacity:1"
       d="m 865.71429,122.66591 c -6.28071,-2.35916 -9.50738,-0.98524 -11.42858,2.85714 -3.36022,6.72045 -7.26403,17.02168 -1.42857,22.85715 14.74037,14.74037 44.85847,-19.31402 12.85715,-25.71429 z"
       id="path4137"
       inkscape:connector-curvature="0"
       transform="translate(0,308.2677)" />
    <path
       style="fill:none;stroke:#000000;stroke-width:1px;stroke-linecap:butt;stroke-linejoin:miter;stroke-opacity:1"
       d="m 894.99516,220.83546 c 10.39282,-5.52661 34.34518,-23.40681 34.34518,-36.36549"
       id="path4233"
       inkscape:connector-curvature="0"
       transform="translate(0,308.2677)" />
    <path
       style="fill:none;stroke:#000000;stroke-width:1px;stroke-linecap:butt;stroke-linejoin:miter;stroke-opacity:1"
       d="m 913.1779,235.98775 c 19.41196,-8.98434 30.36505,-17.29353 39.39595,-35.35534"
       id="path4235"
       inkscape:connector-curvature="0"
       transform="translate(0,308.2677)" />
    <path
       style="fill:none;stroke:#000000;stroke-width:1px;stroke-linecap:butt;stroke-linejoin:miter;stroke-opacity:1"
       d="m 1029.3454,183.45982 c 17.3243,11.97265 27.2742,26.45131 27.2742,46.46702"
       id="path4250"
       inkscape:connector-curvature="0"
       transform="translate(0,308.2677)" />
    <path
       style="fill:none;stroke:#000000;stroke-width:1px;stroke-linecap:butt;stroke-linejoin:miter;stroke-opacity:1"
       d="m 1066.7211,173.35829 c 7.3005,3.04832 18.1159,35.42218 14.1421,39.39595 -0.9663,0.96633 -2.0203,3.80136 -2.0203,6.06092"
       id="path4252"
       inkscape:connector-curvature="0"
       transform="translate(0,308.2677)" />
    <path
       style="fill:none;stroke:#000000;stroke-width:1px;stroke-linecap:butt;stroke-linejoin:miter;stroke-opacity:1"
       d="m 871.76165,312.75935 c 0.75936,4.83906 14.14213,26.18562 14.14213,42.4264"
       id="path4254"
       inkscape:connector-curvature="0"
       transform="translate(0,308.2677)" />
    <path
       style="fill:none;stroke:#000000;stroke-width:1px;stroke-linecap:butt;stroke-linejoin:miter;stroke-opacity:1"
       d="m 845.49768,330.94209 c 9.24423,4.88223 9.77424,43.10927 13.13198,46.46702"
       id="path4256"
       inkscape:connector-curvature="0"
       transform="translate(0,308.2677)" />
    <path
       style="fill:none;stroke:#000000;stroke-width:1px;stroke-linecap:butt;stroke-linejoin:miter;stroke-opacity:1"
       d="m 823.27432,338.01316 c -2.87062,7.07346 -0.35353,18.53627 -2.0203,27.27412 -0.74146,3.88697 -8.3577,19.74585 -10.10153,23.23351"
       id="path4258"
       inkscape:connector-curvature="0"
       transform="translate(0,308.2677)"
       sodipodi:nodetypes="csc" />
    <path
       style="fill:none;stroke:#000000;stroke-width:1px;stroke-linecap:butt;stroke-linejoin:miter;stroke-opacity:1"
       d="m 804.08143,631.12858 c -2.82139,4.60271 -15.04514,29.18728 -32.32489,41.41625"
       id="path4273"
       inkscape:connector-curvature="0"
       sodipodi:nodetypes="cc" />
    <path
       style="fill:none;stroke:#000000;stroke-width:1px;stroke-linecap:butt;stroke-linejoin:miter;stroke-opacity:1"
       d="m 794.99005,610.92552 c -3.27749,0.67246 -22.26863,25.23117 -38.38579,17.17259 -3.26557,-1.63278 -4.85477,0.196 -7.07107,-2.0203"
       id="path4275"
       inkscape:connector-curvature="0" />
    <path
       style="fill:none;stroke:#000000;stroke-width:1px;stroke-linecap:butt;stroke-linejoin:miter;stroke-opacity:1"
       d="m 746.50273,585.67171 c 3.99527,4.59235 28.8746,12.54165 40.4061,1.01015"
       id="path4290"
       inkscape:connector-curvature="0"
       sodipodi:nodetypes="cc" />
    <path
       style="fill:#6c5353;stroke:#000000;stroke-width:1px;stroke-linecap:butt;stroke-linejoin:miter;stroke-opacity:1"
       d="m 817.21341,119.82021 c -1.34687,0.67343 -3.36718,3.36717 -4.04061,2.0203 -0.67344,-1.34687 5.1054,-3.08509 4.04061,-2.0203 -2.59266,2.59266 -4.72417,2.70386 -6.06092,4.04061 -3.5085,3.5085 7.03127,11.15148 10.10153,8.08122 5.97119,-5.97119 6.86724,-12.12183 -4.04061,-12.12183 z"
       id="path4305"
       inkscape:connector-curvature="0"
       transform="translate(0,308.2677)" />
    <path
       style="fill:#6c5353;stroke:#000000;stroke-width:1px;stroke-linecap:butt;stroke-linejoin:miter;stroke-opacity:1"
       d="m 863.68043,132.95219 c -1.34687,0.33672 -3.7039,2.35703 -4.04061,1.01016 -0.33672,-1.34688 5.0223,-1.99185 4.04061,-1.01016 -2.20253,2.20252 -4.80175,1.77129 -6.06092,3.03046 -0.26739,0.26739 0,2.61451 0,3.03046 0,11.72608 19.87858,3.71614 13.13198,-3.03046 -2.55881,-2.55882 -0.45045,-3.03046 -7.07106,-3.03046 z"
       id="path4307"
       inkscape:connector-curvature="0"
       transform="translate(0,308.2677)" />
    <path
       style="fill:none;stroke:#000000;stroke-width:1px;stroke-linecap:butt;stroke-linejoin:miter;stroke-opacity:1"
       d="m 821.25402,183.45982 c 1.43685,-1.64084 1.81998,14.95197 7.07107,20.20305"
       id="path4313"
       inkscape:connector-curvature="0"
       transform="translate(0,308.2677)" />
    <path
       style="fill:none;stroke:#000000;stroke-width:1px;stroke-linecap:butt;stroke-linejoin:miter;stroke-opacity:1"
       d="m 838.42661,183.45982 c 1.72566,6.74375 2.88265,16.01463 7.07107,20.20305"
       id="path4315"
       inkscape:connector-curvature="0"
       transform="translate(0,308.2677)" />
  </g>
</svg>
