<?xml version="1.0" encoding="UTF-8" standalone="no"?>
<!-- Created with Inkscape (http://www.inkscape.org/) -->

<svg
   xmlns:dc="http://purl.org/dc/elements/1.1/"
   xmlns:cc="http://creativecommons.org/ns#"
   xmlns:rdf="http://www.w3.org/1999/02/22-rdf-syntax-ns#"
   xmlns:svg="http://www.w3.org/2000/svg"
   xmlns="http://www.w3.org/2000/svg"
   xmlns:sodipodi="http://sodipodi.sourceforge.net/DTD/sodipodi-0.dtd"
   xmlns:inkscape="http://www.inkscape.org/namespaces/inkscape"
   width="1052.3622"
   height="744.09448"
   id="svg2"
   version="1.1"
   inkscape:version="0.48.1 r9760"
   sodipodi:docname="process_exit.svg"
   inkscape:export-filename="/home/substack/media/vector/do_not_write_big_apps/process_exit.png"
   inkscape:export-xdpi="87.569527"
   inkscape:export-ydpi="87.569527">
  <defs
     id="defs4" />
  <sodipodi:namedview
     id="base"
     pagecolor="#31275e"
     bordercolor="#666666"
     borderopacity="1.0"
     inkscape:pageopacity="1"
     inkscape:pageshadow="2"
     inkscape:zoom="0.49497475"
     inkscape:cx="412.25502"
     inkscape:cy="444.25703"
     inkscape:document-units="px"
     inkscape:current-layer="layer1"
     showgrid="false"
     inkscape:window-width="1364"
     inkscape:window-height="766"
     inkscape:window-x="0"
     inkscape:window-y="0"
     inkscape:window-maximized="0" />
  <metadata
     id="metadata7">
    <rdf:RDF>
      <cc:Work
         rdf:about="">
        <dc:format>image/svg+xml</dc:format>
        <dc:type
           rdf:resource="http://purl.org/dc/dcmitype/StillImage" />
        <dc:title></dc:title>
      </cc:Work>
    </rdf:RDF>
  </metadata>
  <g
     inkscape:label="Layer 1"
     inkscape:groupmode="layer"
     id="layer1"
     transform="translate(0,-308.2677)">
    <path
       style="fill:#e3dbdb;stroke:#000000;stroke-width:1.14647937px;stroke-linecap:butt;stroke-linejoin:miter;stroke-opacity:1"
       d="m 103.67996,594.46453 c -9.740457,0.29327 -13.127467,5.841 -16.515477,7.19621 l 0,54.06367 c 0,40.44005 0.83938,73.45471 3.29613,91.69276 0.38313,2.84422 -1.82644,12.91915 0,14.74557 4.96554,4.66165 20.163577,3.34055 25.129427,-1.63272 -0.43633,-11.29458 1.52564,-23.29217 0,-34.39438 -0.95574,-8.57919 -3.29613,-22.91051 -3.29613,-29.46042 2.03655,-8.00548 -2.17162,-22.88155 2.44651,-17.21767 9.58564,3.85325 16.98847,8.29349 23.74849,8.18914 5.92796,-0.0915 16.33436,-2.41282 19.65394,-5.7324 24.703,-24.703 10.78954,-57.99921 -8.16867,-76.95742 -5.40897,-5.40897 -23.81281,0.86273 -25.37609,2.42603 -1.45937,1.45935 -10.30931,11.47503 -13.10262,11.47503 -0.41397,0 -0.1667,-22.26203 -0.82915,-22.92448 -1.18249,-1.18249 -3.73954,-1.56668 -6.98636,-1.46892 z m 31.16991,31.51795 c 13.95817,0.1382 14.78482,10.59839 13.49672,19.88937 -1.58169,11.40866 -5.24315,15.27577 -12.3093,15.57984 -3.34368,0.14388 -18.17314,-2.3692 -17.2023,-8.19426 -1.08574,-4.50949 -1.84132,-14.0793 -0.80868,-19.66923 5.03163,-6.85841 9.03421,-7.48952 16.82356,-7.60572 z"
       id="path2998"
       inkscape:connector-curvature="0"
       sodipodi:nodetypes="scsscccccssssssscssccc" />
    <path
       style="fill:#e3dbdb;stroke:#000000;stroke-width:1.14647937px;stroke-linecap:butt;stroke-linejoin:miter;stroke-opacity:1"
       d="m 178.77154,603.30452 c 0.27673,7.15693 0.80576,85.9728 1.63783,86.80487 4.23477,-1.36818 19.7296,1.74029 21.85378,0 5.68367,-5.68368 -7.50949,-46.53882 3.27565,-57.32397 8.44086,-8.44085 21.9024,-19.0433 32.75655,-8.18913 2.45675,2.45673 -0.8189,10.64587 1.63783,13.10262 0.26212,0.26212 3.08191,-1.63783 4.91349,-1.63783 1.28243,0 7.3719,0.81723 8.18913,0 5.21145,-5.21145 -2.08124,-27.24588 -6.55131,-29.4809 -4.46047,-2.23024 -25.61436,-16.96916 -36.0322,-6.55132 -1.26443,1.26443 -6.8173,9.82697 -8.18914,9.82697 -0.5687,0 0.7572,-12.34542 0,-13.10262 -3.93831,-3.93831 -18.86654,4.23877 -23.49161,6.55131 z"
       id="path3029"
       inkscape:connector-curvature="0"
       sodipodi:nodetypes="cccsssssssssc" />
    <path
       style="fill:#e3dbdb;stroke:#000000;stroke-width:1.14647937px;stroke-linecap:butt;stroke-linejoin:miter;stroke-opacity:1"
       d="m 292.12961,598.85456 c -6.84528,1.47275 -14.3717,4.11582 -17.61733,10.89204 -5.10129,9.83965 -13.32411,18.92392 -13.48685,30.59595 0.19809,7.18839 -4.28385,20.71812 -0.38818,27.51121 7.73057,9.10641 18.83444,14.28891 29.51999,19.09373 5.18048,-0.79287 9.98565,-3.23721 15.25316,-3.06537 5.53183,-3.25637 9.03307,-9.05395 13.06487,-13.90199 7.65131,-10.35132 11.65557,-30.29465 6.46892,-42.59989 -2.50573,-5.89763 -4.92975,-11.8902 -8.07918,-17.4672 -3.64241,-6.24488 -10.94279,-8.04081 -17.56306,-9.08127 -2.43167,-0.49055 -4.86574,-1.04611 -7.17234,-1.97721 z m 16.52648,41.51234 c 2.51913,7.41004 -2.79241,22.89986 -10.72107,23.98367 -7.22148,0.18853 -15.47101,-3.36525 -18.49025,-10.24395 -0.87439,-5.50349 -0.61211,-17.41351 2.11436,-22.40764 7.15014,-16.48666 22.65789,-3.25787 27.09696,8.66792 z"
       id="path3031"
       inkscape:connector-curvature="0"
       sodipodi:nodetypes="cccccccccccccccc" />
    <path
       style="fill:#e3dbdb;stroke:#000000;stroke-width:1.14647937px;stroke-linecap:butt;stroke-linejoin:miter;stroke-opacity:1"
       d="m 382.23477,635.92335 c 5.04147,3.34678 20.85214,4.9471 15.99193,-7.55465 -1.03947,-12.30174 -11.26974,-18.2946 -18.60732,-24.04847 -11.19663,-7.71802 -25.08068,0.54773 -30.7705,11.10283 -5.97255,7.69375 -9.63079,16.23587 -10.36357,26.02973 -4.3356,8.81451 -5e-5,18.42498 1.58737,27.32372 4.21655,7.19692 9.81912,14.88536 18.27416,17.13971 10.76597,4.24063 23.40177,2.57292 32.3527,-4.86899 8.39418,-6.02045 9.9059,-17.0408 9.21092,-26.59992 -0.91798,-9.26756 -15.45582,-7.85884 -19.15072,-1.6624 -0.19147,10.24218 -14.72896,11.60642 -20.58122,5.22901 -6.44733,-7.49701 -6.11531,-20.51399 0.57372,-27.75033 6.90891,-8.09893 20.23816,-5.51544 21.48253,5.65976 z"
       id="path3108"
       inkscape:connector-curvature="0"
       sodipodi:nodetypes="ccccccccccccc" />
    <path
       style="fill:#e3dbdb;stroke:#000000;stroke-width:1.14647937px;stroke-linecap:butt;stroke-linejoin:miter;stroke-opacity:1"
       d="m 439.90543,601.40994 c -5.99314,0.41046 -14.35288,5.1701 -15.97906,5.98319 -15.64412,7.82207 -11.78381,57.68569 -2.32879,67.1407 14.04559,14.0456 40.03402,19.53237 49.8002,0 1.57935,-3.15867 9.39673,-17.25891 4.65757,-21.99807 -1.85466,-1.85466 -13.36675,0.32401 -15.08337,1.18231 -0.69923,0.34962 -2.93991,-0.53536 -3.47526,0 -2.06243,2.06242 0.25842,7.87442 -2.29296,10.42579 -10.08744,10.08744 -16.08838,0.10559 -21.99807,-5.80405 -3.07438,-3.07437 -2.32879,-10.09184 -2.32879,-16.22985 l 17.37633,0 c 5.22345,0 20.80993,2.37045 24.32686,-1.14648 5.73373,-5.73372 -2.65827,-23.47404 -8.13284,-28.9486 -5.22,-5.22001 -16.98368,-6.59373 -19.66929,-9.27932 -1.13483,-1.13484 -2.87482,-1.46244 -4.87253,-1.32562 z m 2.90202,17.5913 c 6.3924,-0.0597 12.08004,8.37745 10.06752,10.38997 6.56774,-0.0833 -13.53914,0.71793 -19.66928,-1.18231 2.73397,-6.83494 6.25335,-9.1764 9.60176,-9.20766 z"
       id="path3115"
       inkscape:connector-curvature="0"
       sodipodi:nodetypes="ssssssssscssssssccs" />
    <path
       style="fill:#e3dbdb;stroke:#000000;stroke-width:1.14647937px;stroke-linecap:butt;stroke-linejoin:miter;stroke-opacity:1"
       d="m 513.03487,625.60371 c 0.46347,-6.16696 9.06646,-6.79794 13.22755,-5.15649 8.27476,3.26418 2.01106,9.86162 9.25691,10.59184 2.41318,0.2432 10.31274,0.0776 11.42408,-1.29175 0.70651,-0.87055 0.52008,-11.71383 -0.1661,-12.79076 -2.62272,-4.1163 -5.31898,-7.4807 -7.98979,-9.64822 -3.30301,-2.68062 -25.49184,-11.47421 -30.78823,-4.94806 -0.86342,1.06388 -5.81592,0.66858 -6.79162,1.87082 -2.92324,3.60199 -5.19107,7.6959 -8.13686,11.32568 -7.86219,9.6877 0.66133,21.62999 6.21154,26.13434 5.43398,4.41005 11.82599,3.08815 16.18025,6.62193 6.06961,4.92588 9.32555,8.25051 9.9973,11.36319 1.44546,6.69767 0.35172,11.09865 -1.74134,12.43225 -6.07329,3.86963 -13.60055,3.60643 -16.45482,1.29001 -1.44865,-1.17568 -6.08233,-14.34917 -11.94363,-13.82972 -9.74271,0.86342 -10.16231,25.50515 9.23425,32.80613 3.65908,1.37729 28.6102,-0.58973 30.74196,-3.21645 2.01842,-2.48709 7.06938,-10.93386 9.08781,-13.42094 1.97051,-2.42804 -0.4674,-10.99998 -0.40573,-15.09457 0.0254,-1.69014 -2.88134,-14.16251 -9.79678,-18.95952 -7.3324,-5.08626 -18.28495,-10.66812 -21.14675,-16.07971 z"
       id="path3199"
       inkscape:connector-curvature="0"
       sodipodi:nodetypes="csssssssssssssssssssc" />
    <path
       style="fill:#e3dbdb;stroke:#000000;stroke-width:1.14647937px;stroke-linecap:butt;stroke-linejoin:miter;stroke-opacity:1"
       d="m 584.32655,619.54008 c 11.64482,-5.2715 20.04609,23.02233 30.82681,10.33386 4.69257,-8.79677 -3.92899,-18.52096 -11.60267,-22.23865 -9.35089,-5.37383 -21.31255,-8.83386 -31.69796,-4.59904 -7.77639,4.17897 -13.83935,14.03937 -8.76712,22.55923 3.5986,9.08166 9.04637,19.32125 19.47061,21.48207 8.34883,3.22617 17.20107,11.66048 15.03079,21.37774 -0.71849,9.3773 -11.25939,13.64204 -17.90107,6.65364 -6.08716,-4.1524 -7.87542,-17.99035 -17.75976,-13.76651 -9.12648,6.54293 1.45775,16.24051 5.49355,23.62071 6.05966,8.90489 18.67276,9.25151 27.20116,6.29777 10.5241,0.0235 17.02654,-10.98997 17.50899,-22.90767 3.00158,-11.26485 -2.3491,-23.77463 -12.74005,-27.50121 -7.83255,-3.81059 -20.17786,-12.82917 -15.06328,-21.31194 z"
       id="path3214"
       inkscape:connector-curvature="0"
       sodipodi:nodetypes="cccccccccccccc" />
    <path
       style="fill:#e3dbdb;stroke:#000000;stroke-width:1.14647937px;stroke-linecap:butt;stroke-linejoin:miter;stroke-opacity:1"
       d="m 630.07225,676.28791 c 0.21244,-0.19054 -1.1517,0.86539 -4.05341,2.31625 -3.88645,1.94322 -1.3555,10.80475 0.57905,12.73931 0.93,0.92999 8.76351,2.23861 10.42308,0.57905 5.63559,-5.63559 1.35438,-17.29523 -6.94872,-15.63461 z"
       id="path3220"
       inkscape:connector-curvature="0" />
    <path
       style="fill:#e3dbdb;stroke:#000000;stroke-width:1.14647937px;stroke-linecap:butt;stroke-linejoin:miter;stroke-opacity:1"
       d="m 670.74188,601.91153 c -0.96164,-0.0234 -1.79133,0.0893 -2.43626,0.35827 -9.298,3.87739 -12.42121,5.93999 -19.4185,12.03804 -4.23295,3.68897 -6.28425,15.51762 -6.69974,21.56814 -0.54243,7.89922 -0.61895,29.23065 3.47527,33.92863 l 7.52377,8.63442 c 1.6888,1.93783 4.71871,1.67545 6.16233,3.33195 3.05988,3.51111 7.99034,5.17199 13.54278,5.55326 2.54491,0.17476 11.00233,0.72962 12.82624,-0.85986 0.95988,-0.83652 3.98607,-1.83826 4.83671,-2.57957 l 9.88839,-8.5986 c 1.53443,-1.33724 2.1568,-5.19158 3.40361,-7.30881 1.30106,-2.20933 0.59266,-11.16712 -0.32245,-12.21717 -1.402,-1.60874 -7.3518,-0.85461 -9.31515,-0.0358 -1.26018,0.52551 -4.77861,-1.25652 -5.76822,-0.3941 -0.41157,0.35869 -1.34397,0.0712 -1.75555,0.42993 -0.61695,0.53765 -1.02597,9.56422 -2.50792,10.85573 -1.65157,1.43932 -7.61867,1.78501 -7.66708,1.8272 -0.88074,0.76754 -5.43916,0.36734 -6.9147,-0.50159 -2.23672,-1.31716 -3.77877,-2.41931 -4.98002,-3.79771 -2.80967,-3.22399 -5.83909,-18.32437 -0.89569,-20.38584 1.74141,-0.72619 6.84461,0.2412 8.70608,0 10.42225,-1.07373 23.85378,5.40141 29.27105,-3.79771 4.32073,-7.33712 -5.86815,-25.42966 -9.02853,-29.05609 -1.9742,-2.2653 -15.19494,-8.82898 -21.92642,-8.99269 z m 3.54693,18.55863 c 6.9746,0.38098 14.0493,5.08258 9.06435,10.06753 -0.881,0.88099 -7.32168,0 -8.70608,0 l -5.76822,0 -4.65758,0 c -1.85905,-4.64765 -0.76606,-5.00217 1.75555,-7.52377 1.98507,-1.98509 5.1417,-2.71692 8.31198,-2.54376 z"
       id="path3235"
       inkscape:connector-curvature="0" />
    <path
       style="fill:#e3dbdb;stroke:#000000;stroke-width:1.14647937px;stroke-linecap:butt;stroke-linejoin:miter;stroke-opacity:1"
       d="m 754.10094,687.02796 c -1.45394,-6.63668 -1.54175,-13.23776 -4.17049,-18.7462 -2.30753,-4.92623 -2.34977,-10.20155 -5.4334,-13.44713 -2.98979,-3.14681 -13.92488,29.13218 -15.2579,30.3987 -2.44241,0.0164 -20.52231,2.62258 -21.47745,1.76746 -0.33899,-0.35681 5.7928,-14.388 8.6226,-20.0531 5.12858,-10.26719 8.82307,-19.37145 9.82476,-21.76007 1.35383,-3.2284 -2.10546,-10.66432 -4.27551,-14.01137 -2.86222,-8.15603 -10.49709,-18.32562 -9.75313,-26.31577 5.66258,-0.28339 17.83726,-1.16263 19.11752,-0.0901 2.26939,7.59704 1.57474,7.27831 4.76567,14.01023 0.45479,3.69781 4.99335,8.52209 7.21504,13.44768 2.48434,-4.57042 5.04717,-8.8034 7.27305,-12.61663 4.07144,-6.97493 3.525,-10.01149 5.0884,-15.37694 5.50069,-0.37474 16.00258,-1.07194 21.44781,-0.60972 -0.0238,0.93402 -2.9281,4.9488 -3.63615,6.2787 -2.05855,3.86656 -3.93083,9.77447 -7.43425,14.7975 -4.10977,4.87477 -8.16408,14.58794 -7.27193,16.00215 2.76936,5.30442 5.0053,15.88459 7.08041,19.91932 2.08996,6.93923 5.93721,15.27458 5.89285,17.00882 -0.0418,1.63364 2.6557,4.81919 3.25104,8.77193 -5.35998,0.80197 -11.13154,3.1037 -20.86894,0.62453 z"
       id="path3279"
       inkscape:connector-curvature="0"
       sodipodi:nodetypes="ccsccsscccccsccscccsccc" />
    <path
       style="fill:#e3dbdb;stroke:#000000;stroke-width:1.14647937px;stroke-linecap:butt;stroke-linejoin:miter;stroke-opacity:1"
       d="m 786.99738,606.80077 c 3.72296,9.88201 1.15812,20.04177 1.15812,30.1111 0,6.245 0.57906,11.75135 0.57906,17.95084 0,5.03975 -2.56129,29.86604 -1.15811,31.26922 0.89951,0.89951 8.13842,-0.57907 9.844,-0.57907 1.54344,0 7.92484,1.91918 9.26495,0.57907 0.36824,-0.36824 -0.31739,-6.108 -0.57905,-6.36966 -0.59334,-0.59334 -1.15813,-31.36528 -1.15813,-35.90169 0,-7.01609 2.31625,-15.42085 2.31625,-23.16238 0,-0.33251 -1.554,-4.2366 -0.57907,-5.21154 0.8686,-0.86859 -0.28952,-3.76388 0.57907,-4.63248 0.73868,-0.73869 0.57906,-1.95529 0.57906,-3.47435 0,-0.5961 1.01051,-0.72667 0.57905,-1.15812 -0.80337,-0.80338 -19.75999,0.57906 -21.4252,0.57906 z"
       id="path3294"
       inkscape:connector-curvature="0" />
    <path
       style="fill:#e3dbdb;stroke:#000000;stroke-width:1.14647937px;stroke-linecap:butt;stroke-linejoin:miter;stroke-opacity:1"
       d="m 796.26235,570.89908 c -3.05263,0.66343 -0.52387,-0.0276 -4.05343,1.73718 -0.841,0.42049 -0.66107,1.81919 -1.15811,2.31623 -7.65721,7.65721 8.93245,13.07181 9.26495,12.73931 1.13742,-1.13742 4.18648,-2.4493 5.79059,-4.05342 3.30555,-3.30554 -1.06898,-9.75487 -3.47435,-12.16025 -1.50754,-1.50753 -4.27908,-0.16094 -6.36965,-0.57905 z"
       id="path3296"
       inkscape:connector-curvature="0" />
    <path
       style="fill:#e3dbdb;stroke:#000000;stroke-width:1.14647937px;stroke-linecap:butt;stroke-linejoin:miter;stroke-opacity:1"
       d="m 816.52942,607.37983 c 1.12459,5.53767 -0.0426,11.2643 1.15811,16.79273 4.78519,2.28847 9.79159,-1.51724 14.68399,-0.72023 3.83575,3.41867 0.79498,9.48858 1.52583,14.05538 -0.30577,12.96344 -2.27755,26.27611 1.32768,38.96387 1.99318,4.17565 5.36181,7.97714 9.43006,10.16225 4.40583,3.44204 9.58557,0.8805 14.27524,-0.23591 5.42888,-0.70563 8.95388,-5.20882 11.85038,-9.37839 3.07561,-2.17454 4.75405,-6.55829 0.50529,-8.49539 -2.18374,-1.94998 -2.65577,-10.40233 -5.6336,-4.79541 -2.3894,3.88361 -6.74147,7.26495 -11.05427,7.41056 -4.10963,-2.57274 -3.64159,-8.01613 -4.46624,-12.21938 -1.16201,-10.09231 -0.39806,-20.26392 0.23453,-30.36414 2.72366,-4.06081 8.63236,-0.26345 12.69782,-1.30651 4.48249,1.28902 8.89913,-1.71488 7.33785,-6.63387 -1.05184,-4.2913 2.09551,-9.51265 -0.2237,-13.0868 -4.61955,-0.58063 -9.27991,1.21734 -13.9727,1.15738 -4.46825,-0.683 -1.68344,-6.98247 -2.78497,-10.13676 -0.22754,-4.78281 -0.37028,-9.57874 -0.98961,-14.33176 -4.2581,-0.79871 -13.97804,-1.78769 -16.76664,0.31793 0.31987,5.43504 1.94693,11.35028 1.09183,16.6363 0.9916,4.07876 0.80887,9.82183 -4.86665,7.52836 -5.12568,-0.36209 -10.2697,-0.58266 -15.36023,-1.32021 z"
       id="path3298"
       inkscape:connector-curvature="0"
       sodipodi:nodetypes="ccccccccccccccccccccccc" />
    <path
       style="fill:#e3dbdb;stroke:#000000;stroke-width:1.14647937px;stroke-linecap:butt;stroke-linejoin:miter;stroke-opacity:1"
       d="m 904.15751,571.47011 c -5.90774,8.17173 -7.7441,18.98011 -10.83509,28.43811 -3.07905,9.42147 -6.2624,18.25665 -6.2027,28.41088 0.16433,27.94315 -0.79013,43.08508 11.98279,68.25974 0.70973,1.39882 0.69586,2.99047 1.76099,4.04314 2.03255,2.00879 11.65532,13.83656 16.84352,8.587 0.64192,-0.64953 -0.0315,-5.3549 -0.0375,-6.36956 -0.0103,-1.68841 2.38541,-9.15616 1.0968,-10.42969 -0.39462,-0.39001 -3.73714,-1.3907 -4.64602,-2.28896 -2.31909,-2.29197 -4.13509,-5.81379 -6.41721,-8.06923 -3.5045,-3.46353 -4.90896,-15.78957 -6.47169,-17.33404 -1.33189,-1.31631 -0.2095,-6.7086 -1.20919,-8.67894 -0.87034,-1.71538 -0.25859,-9.64074 0.51776,-10.42629 0.8758,-0.88617 -0.0429,-7.30136 -0.051,-8.68574 -0.0493,-8.3887 1.26384,-19.90413 3.31425,-27.23576 1.3435,-4.80392 2.66205,-12.9729 3.96483,-15.07913 3.85182,-6.22738 7.68379,-8.93969 10.35478,-11.64227 0.72166,-5.39017 -0.0232,-17.86908 -0.10559,-17.95054 -2.48529,-2.45624 -12.1948,5.43895 -13.85973,6.45128 z"
       id="path3315"
       inkscape:connector-curvature="0"
       sodipodi:nodetypes="csssssscssssssssccc" />
    <path
       style="fill:#e3dbdb;stroke:#000000;stroke-width:1.14647937px;stroke-linecap:butt;stroke-linejoin:miter;stroke-opacity:1"
       d="m 951.45026,569.74096 c -2.8537,-1.83082 -2.3189,-1.13829 0.3095,0.42984 -3.4954,-2.61112 -8.48288,-4.71892 -12.23277,-5.21419 -1.75355,4.7541 0.4616,10.63285 -1.43233,15.40569 4.23632,4.08092 7.4445,6.57713 10.6594,9.44668 1.2582,3.88184 1.9234,9.11404 3.472,14.01495 1.4231,5.58815 1.4215,9.80289 3.3725,14.56387 2.6461,11.22197 2.1837,22.98358 0.9544,34.37101 0.3543,4.88838 -3.7169,8.94296 -3.2467,13.44193 -2.5107,4.56065 -1.5879,10.86568 -4.7513,15.29871 -3.69735,3.82828 -7.57207,7.51062 -11.00209,11.58119 0.27819,5.58627 -0.77551,10.5709 -0.23075,15.77677 4.22922,-2.03053 11.34914,-0.6973 14.95664,-3.88684 5.9598,-6.17917 10.0878,-13.8221 13.0993,-21.79406 1.7718,-4.56515 2.3122,-9.99649 3.4742,-15.09317 1.4939,-10.54622 3.1386,-21.21943 2.5592,-31.89265 -1.491,-4.73451 0.3768,-9.83412 -2.0691,-14.27556 -0.049,-5.24176 -2.0261,-10.11775 -0.7463,-15.55748 -1.238,-4.41347 -3.0194,-8.76467 -4.3073,-13.21777 -1.61,-4.46363 -4.0629,-8.07605 -5.562,-12.22148 -0.7885,-4.72769 -2.7577,-8.97584 -7.2765,-11.17744 z"
       id="path3319"
       inkscape:connector-curvature="0"
       sodipodi:nodetypes="ccccccccccccccccccccc" />
  </g>
</svg>
