<?xml version="1.0" encoding="UTF-8" standalone="no"?>
<!-- Created with Inkscape (http://www.inkscape.org/) -->

<svg
   xmlns:dc="http://purl.org/dc/elements/1.1/"
   xmlns:cc="http://creativecommons.org/ns#"
   xmlns:rdf="http://www.w3.org/1999/02/22-rdf-syntax-ns#"
   xmlns:svg="http://www.w3.org/2000/svg"
   xmlns="http://www.w3.org/2000/svg"
   xmlns:sodipodi="http://sodipodi.sourceforge.net/DTD/sodipodi-0.dtd"
   xmlns:inkscape="http://www.inkscape.org/namespaces/inkscape"
   width="1052.3622"
   height="744.09448"
   id="svg2"
   version="1.1"
   inkscape:version="0.48.1 r9760"
   sodipodi:docname="technical_debt.svg"
   inkscape:export-filename="/home/substack/media/vector/do_not_write_big_apps/technical_debt.png"
   inkscape:export-xdpi="87.569527"
   inkscape:export-ydpi="87.569527">
  <defs
     id="defs4" />
  <sodipodi:namedview
     id="base"
     pagecolor="#ca916b"
     bordercolor="#666666"
     borderopacity="1.0"
     inkscape:pageopacity="1"
     inkscape:pageshadow="2"
     inkscape:zoom="0.35"
     inkscape:cx="360.62742"
     inkscape:cy="337.74739"
     inkscape:document-units="px"
     inkscape:current-layer="g4007"
     showgrid="false"
     inkscape:window-width="681"
     inkscape:window-height="766"
     inkscape:window-x="683"
     inkscape:window-y="0"
     inkscape:window-maximized="0" />
  <metadata
     id="metadata7">
    <rdf:RDF>
      <cc:Work
         rdf:about="">
        <dc:format>image/svg+xml</dc:format>
        <dc:type
           rdf:resource="http://purl.org/dc/dcmitype/StillImage" />
        <dc:title></dc:title>
      </cc:Work>
    </rdf:RDF>
  </metadata>
  <g
     inkscape:label="Layer 1"
     inkscape:groupmode="layer"
     id="layer1"
     transform="translate(0,-308.2677)">
    <g
       id="g4007"
       transform="translate(8.0812204,0)">
      <path
         inkscape:connector-curvature="0"
         id="path3573"
         d="m 756.15581,613.47786 c 18.07779,0.28392 36.35699,-0.63831 54.22151,1.59475 12.33687,1.54211 25.61465,0.62269 37.47663,3.5882 2.97579,0.74394 11.71096,-1.04704 13.55538,0.79736 0.58198,0.58198 -1.29724,3.39184 -1.59476,3.98689 -3.2918,6.58361 -8.30877,12.28627 -11.16324,19.137 -2.95507,7.09215 -3.86282,15.31391 -5.98033,22.72519 -1.41531,4.9536 -4.20158,9.84471 -5.18293,14.75144 -0.30246,1.5123 -0.0242,3.2862 -0.39869,4.78425 -2.24548,8.98192 -8.06558,17.07189 -15.94751,22.3265 -3.54451,2.36301 -8.42641,2.20628 -12.35931,3.18951 -5.37694,1.34423 -12.71504,0.50419 -17.54225,-2.39213 -6.29843,-3.77905 -7.63886,-8.50003 -10.76457,-14.75144 -3.65436,-7.30874 -7.80819,-13.3594 -9.1698,-21.52913 -0.43915,-2.63492 -0.0272,-5.81693 0.39869,-8.37244 0.59445,-3.56671 -0.22235,-8.11177 -0.79738,-11.56194 -0.94727,-5.68361 -4.60188,-11.23113 -5.98031,-16.74488 -2.06235,-8.24939 -0.72797,-16.70323 -8.77113,-21.52913 z"
         style="fill:#ffffff;fill-opacity:1;stroke:#000000;stroke-width:1.57872224px;stroke-linecap:butt;stroke-linejoin:miter;stroke-opacity:1" />
      <path
         inkscape:connector-curvature="0"
         id="path3528"
         d="m 896.76322,799.30016 c 7.86633,0.55003 12.76997,8.70125 19.1702,12.96807 6.02775,4.01851 12.79525,8.84845 17.4787,13.5319 4.12762,4.12762 9.89609,21.48367 12.96808,27.62764 1.06818,2.13636 -0.9935,13.69327 -1.69149,15.78723 -0.50745,1.52234 0.50745,3.55212 0,5.07447 -1.25541,3.76622 -2.22816,9.28962 -6.20212,11.27662 -2.56834,1.2841 -5.36478,0.1367 -7.89361,-1.1277 -13.69993,-6.85 -17.68259,-17.32262 -23.68083,-29.31913"
         style="fill:#ffffff;fill-opacity:1;stroke:#000000;stroke-width:1.57872224000000005px;stroke-linecap:butt;stroke-linejoin:miter;stroke-opacity:1" />
      <path
         sodipodi:nodetypes="cssscssssssssssssccsc"
         inkscape:connector-curvature="0"
         id="path3524"
         d="m 824.59305,941.94899 c 0.48979,1.3116 -0.66159,18.4108 2.81916,25.3723 1.32486,2.6498 -0.72185,8.2994 1.12765,10.1489 1.23649,1.2365 16.13754,0.5639 18.60638,0.5639 2.40936,0 9.14852,1.5642 9.5851,1.1276 1.65071,-1.6507 0.94381,-14.1876 5.63828,-11.8404 4.34674,2.1734 6.78841,7.6229 11.84042,10.1489 2.97324,1.4867 8.62714,1.2974 10.71276,3.383 0.51399,0.514 4.26688,0 5.07446,0 2.84044,0 13.14152,-1.3228 14.65957,-0.5638 1.48784,0.7439 5.65871,2.2451 7.89361,1.1277 1.08806,-0.5441 8.08674,-1.595 9.02126,-1.1277 2.966,1.483 18.66505,1.6328 20.29787,0 1.089,-1.089 0.60029,-4.4377 0,-5.6383 -0.86168,-1.7233 0.31218,-3.0708 -1.12766,-4.5106 -4.38067,-4.3807 -17.13689,-8.3128 -24.24466,-7.3298 -4.07719,0.5638 -11.60366,-3.1462 -12.40424,-3.9468 -4.06719,-4.0672 -2.08327,-12.796 -6.76595,-17.4787 -0.46986,-0.4699 -0.0939,-1.7855 -0.56384,-2.2554 -4.85321,-4.8532 -10.48805,-2.9321 -18.60638,-5.6382 -3.50629,-1.1688 -8.77908,-2.4975 -10.14892,-1.1277"
         style="fill:#483737;fill-opacity:1;stroke:#000000;stroke-width:1.57872224px;stroke-linecap:butt;stroke-linejoin:miter;stroke-opacity:1" />
      <path
         sodipodi:nodetypes="ccccccccccccccc"
         inkscape:connector-curvature="0"
         id="path3503"
         d="m 785.68178,935.76689 c -14.54252,2.8803 -40.57788,4.0129 -54.98574,7.2789 -9.69973,5.2488 -2.35621,15.8839 -13.55219,18.265 -5.28309,3.0055 -14.20692,1.5393 -19.84206,2.7279 -5.54992,1.0937 -10.84066,2.9468 -15.3494,6.4595 -8.82908,3.1872 -2.63468,12.7836 4.73189,12.2456 6.37125,0.5237 12.34493,3.1462 18.80223,2.1535 9.67628,-0.519 17.01872,1.7252 26.62482,0.9376 5.73219,-2.8506 12.23166,-2.9579 17.95257,-6.1907 7.43839,-5.846 16.93025,-10.7723 14.3212,0.6733 1.43372,6.4224 16.45667,3.6975 24.26754,3.8637 7.60164,0.3523 13.04635,-6.8065 9.81831,-13.8184 -0.23222,-5.4133 1.20471,-10.8107 -0.88615,-16.1621 -1.5636,-6.0287 -3.6436,-13.0436 -9.08846,-16.7081 -1.01755,-0.4266 -1.99638,-0.9773 -2.81456,-1.7257 z"
         style="fill:#483737;fill-opacity:1;stroke:#000000;stroke-width:1.57872224px;stroke-linecap:butt;stroke-linejoin:miter;stroke-opacity:1" />
      <path
         inkscape:connector-curvature="0"
         id="path3554"
         d="m 721.97611,803.81079 c -4.82116,-2.62772 -11.17562,7.07452 -15.78722,10.14893 -11.68182,7.78788 -23.76866,14.83523 -29.88296,27.06381 -1.84858,3.6972 -6.06568,6.35663 -7.32978,10.14893 -1.32204,3.96613 -1.98821,10.38643 -0.56383,14.65955 1.45229,4.35685 23.29099,7.2718 28.19147,5.6383 1.36026,-0.45341 2.68681,-1.27149 3.9468,-1.69149 6.68499,-2.22832 11.75204,-5.85392 17.47871,-10.14893 6.53489,-4.90116 10.33304,-14.27984 15.78723,-19.73402"
         style="fill:#ffffff;fill-opacity:1;stroke:#000000;stroke-width:1.57872224000000005px;stroke-linecap:butt;stroke-linejoin:miter;stroke-opacity:1" />
      <path
         sodipodi:nodetypes="ccccccccccccccccccccccccccc"
         inkscape:connector-curvature="0"
         id="path3487"
         d="m 728.85055,781.65631 c -6.25247,8.51041 -14.4273,29.85416 -15.98108,46.02647 0.1072,11.15117 -3.73216,22.41893 -4.98909,33.6386 1.15663,10.03122 0.40554,20.06731 0.13687,30.00631 2.22556,12.6127 -1.90086,25.4867 0.45796,38.313 2.66414,8.6529 -4.64346,22.9911 6.87669,23.0858 12.97525,-1.637 20.79921,-2.4401 30.54687,-2.9149 15.89792,-2.4357 26.68786,0.29 39.80333,2.4273 4.33525,1.1894 18.71493,-0.229 12.5396,-9.6166 -0.98381,-15.6111 -3.24217,-33.1755 3.88663,-52.7673 2.98924,-16.29884 9.47334,-31.82139 11.1882,-48.26763 0.74842,16.62544 3.05083,33.14304 3.93333,49.76843 2.73007,10.9668 0.58115,22.4763 5.08793,33.1145 0.30711,10.513 0.83392,18.1328 0.29615,23.3982 5.65347,4.7518 16.36352,-3.7675 36.35276,-5.3557 14.57754,-0.512 45.19874,4.6899 55.8191,8.4575 5.92069,-8.1503 -6.55348,-25.6564 -2.64922,-41.3654 6.19753,-13.6103 3.39045,-28.9984 2.49708,-43.39326 -1.63977,-12.9905 -1.11557,-26.27644 -2.10317,-39.28383 1.73127,-10.83134 -5.58222,-20.15877 -8.82541,-29.89648 -0.67728,-11.28681 -4.15024,-24.7657 -16.42262,-28.69085 -8.7633,-5.10555 -19.05055,-6.8856 -26.74714,-13.90655 -9.11245,-7.64427 -15.40009,-18.23489 -25.43034,-24.96754 -14.92062,-11.06388 -33.55238,-22.02002 -52.78338,-17.51716 -10.73395,6.83271 -23.30331,12.94526 -30.38658,23.97702 -4.66729,9.1288 -14.78819,15.00828 -16.23309,25.84599 -1.61942,5.78759 -4.74077,16.68578 -6.87138,19.88408 z"
         style="fill:#ffffff;fill-opacity:1;stroke:#000000;stroke-width:1.57872224000000005px;stroke-linecap:butt;stroke-linejoin:miter;stroke-opacity:1" />
      <g
         transform="matrix(1.573705,-0.12576302,0.12576302,1.573705,-59.465237,-326.81601)"
         id="g3342"
         style="fill:#ffffff;fill-opacity:1">
        <path
           inkscape:connector-curvature="0"
           style="fill:#ffffff;stroke:#000000;stroke-width:1px;stroke-linecap:butt;stroke-linejoin:miter;stroke-opacity:1;fill-opacity:1"
           d="m 637.59375,433.9375 c -0.83584,0.006 -2.14981,0.39982 -2.25,0.5 -3.75182,3.75182 -8.7607,6.02098 -13.90625,8.59375 -2.45451,1.22726 -7.14506,1.78125 -10,1.78125 -0.57716,0 -1.14615,0.1108 -1.71875,0.25 -0.91259,-0.3188 -2.08563,-0.19906 -2.9375,-0.625 -5.40379,-2.70189 -9.46266,-1.14367 -14.625,1.4375 -0.98447,0.49223 -1.77364,1.41413 -2.875,1.78125 -2.29244,0.76414 -7.59319,1.18694 -9.28125,2.875 -0.98012,0.98012 -1.86185,2.19836 -3.5625,3.21875 -1.76324,-0.30452 -1.55577,1.27694 -0.71875,4.625 0.9807,3.92282 0.45576,8.2293 1.4375,12.15625 0.16638,0.66554 0.87281,1.2122 1.0625,1.78125 1.75825,5.27477 3.97317,10.107 5.71875,15.34375 0.76044,2.28133 2.2447,4.38509 2.84375,6.78125 0.46214,1.84858 2.29209,3.62629 2.875,5.375 0.81593,2.4478 5.8246,5.77168 7.84375,6.78125 1.82924,0.91462 5.82285,4.0416 6.78125,5 0.6015,0.6015 2.77562,-0.0497 3.5625,0.34375 5.75981,2.87991 13.86478,-1.36477 17.5,-5 2.71456,-2.71455 -0.1511,-19.0783 -1.40625,-22.84375 -1.73301,-5.19905 -2.39362,-22.04987 -5,-24.65625 -0.23809,-0.23809 0.2381,-1.16815 0,-1.40625 -0.24353,-0.24353 -0.58043,-0.65941 -0.9375,-1.15625 0.53055,-0.17758 1.88466,0.21554 2.34375,0.0625 1.94854,-0.64951 3.86463,-1.16321 5.71875,-1.78125 5.73872,-1.91291 8.19544,-6.01588 10.71875,-11.0625 0.93144,-1.86288 3.32415,-8.11334 1.4375,-10 -0.11302,-0.11302 -0.34639,-0.1581 -0.625,-0.15625 z"
           transform="translate(0,308.2677)"
           id="path3320" />
        <path
           style="fill:#ffffff;stroke:#000000;stroke-width:1px;stroke-linecap:butt;stroke-linejoin:miter;stroke-opacity:1;fill-opacity:1"
           d="m 611.78572,482.30877 c 3.82091,8.64454 1.95,19.97143 5.71428,27.5"
           id="path3327"
           inkscape:connector-curvature="0"
           transform="translate(0,308.2677)" />
        <path
           transform="translate(1.0714286,307.19627)"
           inkscape:connector-curvature="0"
           id="path3441"
           d="m 595.35714,483.3802 c 1.52818,6.93132 9.44509,25.87365 12.85715,29.28571"
           style="fill:#ffffff;stroke:#000000;stroke-width:1px;stroke-linecap:butt;stroke-linejoin:miter;stroke-opacity:1;fill-opacity:1" />
      </g>
      <g
         transform="matrix(0.40312555,1.5263858,1.5263858,-0.40312555,-679.53809,-80.757771)"
         id="g3347"
         style="fill:#ffffff;fill-opacity:1">
        <path
           inkscape:connector-curvature="0"
           id="path3349"
           transform="matrix(0.41271105,0.91086201,0.91086201,-0.41271105,161.72587,483.3259)"
           d="m 467.0625,255.28125 c -0.24798,0.008 -0.48443,0.0197 -0.71875,0.0625 -2.4298,0.44327 -4.95193,-0.0301 -7.34375,0.21875 -5.49037,0.57128 -10.81351,0.54957 -16.34375,1.125 -0.59662,0.0621 -1.38762,-0.37312 -2.0625,-0.25 -3.98208,0.72646 -7.7096,2.99304 -11.6875,3.71875 -1.83045,0.33393 -3.07863,0.63533 -3.71875,1.0625 -3.11557,1.31343 -6.80102,3.84359 -10.625,5.84375 -1.37545,0.71944 -2.29337,3.61638 -2.6875,4.875 -0.40997,1.30917 -2.6236,2.06574 -3.21875,3.3125 -1.98709,4.16266 -5.32198,8.83004 -2.78125,13.6875 1.25867,2.40637 1.65983,4.93897 4.40625,6.25 2.40686,1.14894 3.93732,3.56996 7.40625,4.65625 4.67484,1.46392 8.40526,0.21226 12.4375,-1.21875 0.015,0.0421 0.0344,0.0969 0.0625,0.125 0.3541,0.3541 0.71651,1.24551 1.0625,1.9375 0.34685,0.69369 4.03244,3.01622 4.8125,3.40625 2.33066,1.16533 5.01266,3.06503 7.5,3.5625 2.04004,0.40801 4.51625,2.34375 6.625,2.34375 2.01127,0 4.03353,0.34375 6.0625,0.34375 0.82136,0 2.49302,0.0194 3.21875,-0.34375 0.89336,-0.44668 5.9727,-2.24604 4.8125,-3.40625 -0.3645,-0.36449 -0.49143,-1.15196 -1.0625,-1.4375 -1.40945,-0.70472 -3.3875,-1.575 -4.65625,-2.84375 -0.29332,-0.29332 -0.59563,-0.82907 -1.0625,-1.0625 -1.40955,-0.70477 -3.16178,-1.61744 -5.03125,-2.46875 6.11638,-1.29942 15.73674,-4.89166 19.78125,-5.3125 3.94782,-0.41077 20.02275,-4.56334 21.375,-8.15625 1.8109,-4.81148 2.34409,-13.91092 -2.65625,-17.96875 -0.59776,-0.48504 -0.89911,-2.2987 -1.5,-2.9375 -0.0859,-0.0912 -0.18174,-0.15004 -0.28125,-0.1875 -1.26851,-0.47742 -5.75571,-2.83629 -7.34375,-4.125 -1.75291,-1.4225 -6.8399,-4.61079 -9.40625,-4.34375 -1.60423,0.16692 -3.63916,-0.52248 -5.375,-0.46875 z"
           style="fill:#ffffff;fill-opacity:1;stroke:#000000;stroke-width:1px;stroke-linecap:butt;stroke-linejoin:miter;stroke-opacity:1" />
        <path
           inkscape:connector-curvature="0"
           id="path3353"
           d="m 612.84953,791.76782 c 3.82091,8.64454 1.95,19.97143 5.71428,27.5"
           style="fill:#ffffff;stroke:#000000;stroke-width:1px;stroke-linecap:butt;stroke-linejoin:miter;stroke-opacity:1;fill-opacity:1" />
        <path
           transform="matrix(0.92931423,0.36928995,0.36928995,-0.92931423,93.405884,863.83608)"
           inkscape:connector-curvature="0"
           id="path3355"
           d="m 442.85714,251.23734 c 2.1193,-1.08605 7.98846,-13.3456 11.78572,-17.14286 0.76628,-0.76628 1.16835,-3.47451 1.78571,-2.85714"
           style="fill:#ffffff;stroke:#000000;stroke-width:1px;stroke-linecap:butt;stroke-linejoin:miter;stroke-opacity:1;fill-opacity:1" />
      </g>
      <path
         inkscape:transform-center-y="17.070603"
         inkscape:transform-center-x="52.648074"
         sodipodi:nodetypes="cccccccccccccccccccccc"
         inkscape:connector-curvature="0"
         id="path3266"
         d="m 646.84622,611.96486 c 3.49024,6.24254 0.81697,14.20512 -0.1173,20.93334 -3.73204,9.18912 -9.57531,17.65063 -11.4611,27.5206 6.22484,0.94168 12.49043,-0.44983 17.41279,-4.3478 4.96563,-3.1092 9.45369,-8.11951 16.15555,-7.25908 5.9947,-0.34034 11.75362,1.67711 16.98794,4.28638 6.22586,0.25655 12.58886,-0.0808 18.14133,3.34594 10.95157,4.33157 21.84533,9.67555 33.67852,10.97084 5.24845,-1.08614 9.34585,-5.88502 15.40432,-5.57772 6.18715,0.0481 9.92006,-4.69406 13.21114,-9.2593 4.8184,-4.49712 5.60295,-10.96312 5.17709,-17.19296 2.15563,-6.44506 -1.56502,-12.63723 -4.26716,-18.2914 -2.18876,-5.17164 -7.1715,-8.67883 -7.58181,-14.56922 -2.44466,-5.25105 -9.3536,-6.39281 -14.01349,-9.27673 -9.72093,-4.16479 -20.03401,-8.83401 -30.85336,-7.96643 -6.87417,2.24655 -12.72963,7.15491 -19.76405,9.37213 -5.56388,2.66182 -12.28513,4.46685 -15.66865,10.07073 -5.59584,3.43042 5.44374,-4.16331 6.79646,-9.02898 -1.93993,-4.62567 -0.49091,-14.32138 -19.14345,-3.48129 -4.9334,3.24862 -18.34993,12.13859 -14.32482,9.50219 4.46453,-3.99085 -3.36455,5.74997 -5.77001,10.24876 z"
         style="fill:#483737;fill-opacity:1;stroke:#000000;stroke-width:1.57872224px;stroke-linecap:butt;stroke-linejoin:miter;stroke-opacity:1" />
      <path
         inkscape:connector-curvature="0"
         id="path3318"
         d="m 659.95489,514.56632 c 4.65576,-3.82857 17.64471,-21.98934 20.86167,-21.98934 2.37049,0 5.18385,1.54001 7.32979,2.25531 3.24023,1.08009 6.35677,2.8707 9.5851,3.94681 1.02331,0.34111 1.8735,2.61934 2.25532,3.38298 1.02438,2.04877 7.54168,9.23317 9.02127,10.71277 0.14051,0.1405 6.11583,12.79548 6.76595,14.09573 2.30547,4.61093 2.16018,11.65015 4.51063,16.35105 0.67659,1.35318 -0.67659,3.72127 0,5.07447 0.37479,0.74954 1.94926,14.9656 1.69149,15.22338 -5.45374,5.45374 -32.69142,14.07437 -34.95742,18.60638"
         style="fill:#ffffff;stroke:#000000;stroke-width:1.57872224000000005px;stroke-linecap:butt;stroke-linejoin:miter;stroke-opacity:1;fill-opacity:1" />
      <path
         sodipodi:nodetypes="ccccccccccccccccc"
         inkscape:connector-curvature="0"
         id="path3241"
         d="m 655.62505,612.80747 c -1.32208,-6.9457 4.13079,-8.20806 7.69083,-12.2099 11.25313,-7.17081 22.8589,-13.94362 34.96312,-19.57224 3.91627,-4.9844 1.18371,-12.91275 -0.1648,-18.81895 -3.83401,-13.15121 -9.6747,-25.59908 -14.21142,-38.4997 -4.31331,-4.75 -11.97794,-5.14883 -15.27053,-11.22159 -2.55268,-2.5045 -4.97772,-5.66284 -8.50822,-6.77204 -7.40189,3.73027 -13.77798,9.53992 -20.59972,14.32317 -9.03289,7.04962 -18.47961,13.67182 -26.86062,21.49401 -3.52441,6.97852 -11.4475,10.87862 -13.29096,18.80639 -2.60233,4.85283 -9.41111,8.12103 -11.74789,13.60044 -2.29123,6.52558 -6.12422,12.38729 -5.79771,19.61709 2.93308,5.8434 1.2471,12.64992 3.95738,18.47089 3.30002,6.72628 5.71311,14.21356 11.77699,19.08625 6.57326,5.00951 7.97805,13.54975 13.30016,19.49611 4.59587,6.47455 12.52219,11.26165 20.72959,10.44057 3.83487,0.48984 7.70052,-0.0857 10.86045,-1.78789"
         style="fill:#483737;fill-opacity:1;stroke:#000000;stroke-width:1.57872224px;stroke-linecap:butt;stroke-linejoin:miter;stroke-opacity:1" />
      <path
         inkscape:connector-curvature="0"
         id="path3485"
         d="m 926.64617,769.98103 c -0.49529,2.91808 0.26584,29.02113 1.69149,30.44678 0.86679,0.8668 4.98749,-0.40488 6.20212,0 2.85118,0.95039 6.99387,1.69149 10.14893,1.69149 3.12011,0 6.92878,-1.49098 9.5851,-2.81914 1.39905,-0.69953 3.57145,-0.0628 5.07447,-0.56384 7.30576,-2.43524 15.37698,-3.24622 22.55317,-5.63828 3.6128,-1.20426 6.71892,-3.9233 10.14893,-5.6383 0.67179,-0.3359 2.30997,-0.61849 2.81915,-1.12766 0.78943,-0.78943 9.42057,-10.87724 8.45747,-11.84042 -0.4032,-0.40314 -1.9379,-1.86682 -2.2554,-2.81914 -0.5997,-1.79911 -1.89212,-5.27514 -3.38293,-6.76596 -2.22424,-2.22425 -4.93087,-4.57714 -6.76594,-7.32977 -2.02563,-3.03844 -4.08169,-5.34424 -5.6383,-8.45745 -0.30374,-0.60749 -2.25531,-3.95031 -2.25531,-3.94681 0,0.42026 0.37587,0.75177 0.56382,1.12767"
         style="fill:#ffffff;fill-opacity:1;stroke:#000000;stroke-width:1.57872224000000005px;stroke-linecap:butt;stroke-linejoin:miter;stroke-opacity:1" />
      <path
         inkscape:connector-curvature="0"
         id="path3217"
         d="m 901.17518,563.73109 c -7.20939,0.11579 -14.77195,1.39176 -18.50065,3.25612 -3.74722,1.87361 -10.49459,2.65031 -13.51781,5.67353 -4.60712,4.60712 -21.24753,21.03433 -24.81554,28.17033 -2.48911,4.97823 -6.19186,12.95076 -10.16302,16.92192 -3.92749,3.92749 -4.79619,13.82453 -9.02832,18.05664 -2.3352,2.3352 -0.0476,11.29595 -2.26942,13.51781 -7.14314,7.14315 -8.21156,28.946 -18.0073,33.84386 -9.68381,4.84191 -16.4206,-29.43708 -20.32604,-37.24798 -8.79685,-17.59368 -21.94121,-39.04927 -35.66926,-55.69929 0.19548,0.63047 0.43469,1.26023 0.54269,1.9734 0.30185,1.99334 0.29539,4.2563 0.29601,6.51223 6.1e-4,2.25593 -0.0156,4.50911 0.24667,6.46289 0.13115,0.9769 0.33925,1.86864 0.64136,2.6641 0.3021,0.79545 0.68995,1.47931 1.23338,2.02273 0.64913,0.64914 0.88048,1.73136 0.74002,3.10811 -0.14046,1.37676 -0.64326,3.03928 -1.38138,4.93351 -1.47623,3.78846 -3.94504,8.42682 -6.66024,13.02446 -5.40338,9.14953 -11.70745,18.22098 -12.92578,20.62206 -1.37651,11.91228 -3.03521,29.19763 -3.35479,43.02018 -0.0228,-0.0529 -0.0771,-0.0942 -0.0987,-0.14801 0.0512,0.14504 0.0482,0.27258 0.0493,0.39468 -0.002,0.0837 0.002,0.16326 0,0.24668 -0.25669,1.0372 -2.07253,1.47913 -0.59202,4.44015 2.596,5.192 0.0902,42.89067 0,52.34451 -3.34536,5.12263 -6.54067,9.82521 -8.4363,13.61648 -2.52168,5.04336 -1.80729,11.45887 -4.53883,16.92193 -1.05948,2.11896 -4.96513,17.581 -2.26941,20.27671 0.98861,0.98862 20.49511,-12.55216 22.59546,-14.65251 10.71851,-10.71851 35.16964,-16.02763 42.82284,-23.68083 3.51967,-3.51966 6.48751,-9.8423 10.16303,-13.51781 2.91241,-2.91241 9.13481,-5.78004 12.3831,-9.02832 3.19118,-3.1912 4.98279,-7.20286 9.02832,-11.2484 4.63819,-4.63819 9.34496,13.83444 13.5178,18.0073 4.26011,4.26009 12.6654,8.03475 19.19135,11.29773 5.9161,2.95806 15.09729,10.55847 19.19134,14.65252 2.84749,2.84751 30.71208,13.11129 36.06393,15.78722 1.05652,0.52826 12.95648,6.23487 15.78723,3.40412 2.15258,-2.15259 -7.06234,-15.56281 -7.89361,-18.05663 -1.55811,-4.67432 -5.67952,-9.08964 -7.89362,-13.51781 -6.68688,-13.37375 -18.91254,-57.8035 -10.16302,-66.55301 7.09734,-7.09732 10.13137,33.76287 13.56714,37.19864 3.60565,3.60564 3.16777,9.73968 5.6242,14.65252 5.8809,11.76181 11.17251,24.69033 18.05664,31.57444 0.30425,0.30427 4.4692,-2.77729 5.6242,-3.35478 3.2084,-1.60421 8.18093,-2.55674 10.16302,-4.53883 2.0904,-2.0904 8.58241,-0.88707 11.2484,-2.22008 5.56534,-2.78265 44.00688,-15.71139 44.00688,-19.19134 0,-2.62993 -5.33184,-7.21021 -6.80824,-10.16302 -5.89533,-11.79066 -10.99247,-25.4384 -16.8726,-37.19865 -3.22739,-6.45481 0.66616,-25.23477 -1.1347,-27.03561 -2.887,-2.887 -10.72957,-2.83596 -13.56715,-5.67354 -1.17499,-1.17499 0.27402,-38.88138 1.13471,-40.60276 2.13764,-4.27527 -2.23105,-11.28131 -3.35478,-14.65252 -5.75737,-17.2721 -12.2659,-31.4079 -25.95025,-45.09225 -2.36911,-2.36911 -9.80518,-1.54779 -13.51781,-3.40412 -3.20695,-1.60347 -8.60119,-2.21146 -14.2085,-2.12141 z"
         style="fill:#483737;fill-opacity:1;stroke:#000000;stroke-width:1.57872224px;stroke-linecap:butt;stroke-linejoin:miter;stroke-opacity:1" />
      <path
         inkscape:connector-curvature="0"
         id="path3070"
         d="m 724.80231,461.4595 c -0.79806,0.0439 -1.49693,0.18111 -2.12141,0.49335 -10.65336,5.32668 18.06698,30.89409 22.29945,35.12657 0.64676,0.64675 5.86254,2.98086 10.21236,4.63749 0.44632,0.24445 1.05425,0.47229 1.72673,0.64136 1.8418,0.65286 3.34869,1.08537 3.99614,1.08537 1.59474,2.6579 2.84918,5.57186 4.7855,7.99228 0.32582,0.40728 89.60412,20.72073 95.71003,20.72073 13.53745,0 52.64052,0.21903 52.64052,-12.77778 0,-1.64165 2.76698,-1.96921 1.57873,-3.15745 -14.32617,-14.32624 -25.62159,-6.44655 -41.44146,-14.3565 -4.48781,-2.2439 -11.31963,0.70441 -15.98457,-1.62806 -5.76817,-2.88409 -14.77358,1.39485 -20.72072,-1.57872 -9.4189,-4.70944 -25.83218,3.14221 -34.53455,-1.62806 -1.62718,-2.14419 -3.39934,-3.89747 -3.74947,-3.89747 -1.0173,0 -5.45658,-0.96709 -6.16688,-1.67739 -0.37102,-0.37103 -11.24668,-0.81317 -12.97513,-1.67739 -8.71004,-4.35502 -15.96845,-6.41271 -24.37152,-10.55771 -10.78008,-8.86361 -23.90324,-18.14496 -30.88375,-17.76062 z"
         style="fill:#483737;stroke:#000000;stroke-width:1.57872224px;stroke-linecap:butt;stroke-linejoin:miter;stroke-opacity:1" />
      <path
         inkscape:connector-curvature="0"
         id="path2996"
         d="m 813.56682,468.35559 c -8.99552,-5.50857 -36.73089,3.21532 -55.81626,12.758 -6.1053,3.05265 -9.64957,11.24433 -12.75801,14.35275 -5.17503,5.17504 -3.18112,35.07615 -6.379,38.274 -1.95286,1.95288 -12.10463,-18.84899 -19.137,-4.78423 -12.39949,24.79899 13.75831,40.86906 23.92126,51.032 1.6315,1.6315 -0.33878,9.22972 1.59474,11.16326 12.40603,12.40602 9.19526,25.32938 28.70552,35.08449 5.64206,2.82105 14.71197,6.73824 19.137,11.16326 1.86054,1.86054 9.3027,-1.86054 11.16324,0 8.89057,8.89057 43.03595,-6.35668 46.24776,-9.56849 7.60616,-7.60616 4.93405,-25.66581 11.16326,-31.89502 3.85573,-3.85573 7.58636,-10.77586 11.16324,-14.35275 8.32921,-8.32921 14.75239,0.7955 23.92126,-17.54226 2.02254,-4.04508 0.0936,-19.04333 -1.59475,-20.73175 -3.01263,-3.01262 -7.6722,3.49106 -9.56851,1.59475 -1.97849,-1.97849 -2.01941,-19.98634 -4.78424,-25.516 -12.22711,-24.4542 -34.12817,-57.60227 -66.97951,-51.03201 z"
         style="fill:#ffffff;stroke:#000000;stroke-width:1.57872224000000005px;stroke-linecap:butt;stroke-linejoin:miter;stroke-opacity:1;fill-opacity:1" />
      <path
         sodipodi:nodetypes="csccssssscssssssssscssssssc"
         inkscape:connector-curvature="0"
         id="path3138"
         d="m 775.5399,485.24719 c -7.88162,-7.31786 0.61794,3.61602 -8.45744,-3.9468 -3.90064,-3.25054 -6.87274,1.02088 -10.14892,-2.25532 -0.28249,-0.28246 -1.88569,-0.19418 -2.25532,-0.56382 -1.58317,-1.58318 4.41987,-6.58444 5.07446,-7.89361 1.39776,-2.79553 2.40595,-6.35277 4.51064,-8.45744 1.1873,-1.18729 2.14405,-11.05406 3.38297,-13.53191 1.14556,-2.29112 2.40542,-34.09339 1.12766,-36.64891 -2.04915,-4.09829 -4.13014,-17.29538 -1.12766,-20.29786 5.40182,-5.4018 33.40618,-6.6257 38.3404,-1.69149 0.2157,0.21572 2.62139,0 2.81914,0 6.70733,0 14.38897,1.76481 20.8617,3.38299 4.19611,1.04902 13.10216,4.85959 16.91487,6.76594 4.34172,2.17087 14.03817,2.79996 19.1702,4.51065 7.02902,2.34299 13.57321,6.22277 20.29785,9.5851 4.28025,2.14011 17.5154,5.67498 19.73403,7.89361 2.48537,2.48537 5.02261,5.02259 7.32979,7.32977 0.94382,0.94382 -8.62279,8.05897 -9.5851,9.02128 -5.6856,5.68559 -10.89968,15.78412 -13.53191,23.68083 -0.52321,1.56961 -0.0636,3.57399 -0.56383,5.07445 -0.45322,1.35968 -0.49321,15.92848 0,16.91489 0.91841,1.83683 5.26578,15.96841 4.51063,17.47872 -0.95654,1.91311 -8.22662,-3.5628 -10.14892,-3.38299 -9.71042,0.90842 -16.24886,-2.81914 -29.31913,-2.81914 -16.14089,0 -31.10869,-2.25531 -47.92549,-2.25531 -1.14246,0 -7.09325,0.80036 -7.89361,0 -3.86489,-3.86489 -18.48531,-7.89363 -23.11701,-7.89363 z"
         style="fill:#483737;fill-opacity:1;stroke:#000000;stroke-width:1.57872224px;stroke-linecap:butt;stroke-linejoin:miter;stroke-opacity:1" />
      <path
         sodipodi:nodetypes="csssssssc"
         inkscape:connector-curvature="0"
         id="path2998"
         d="m 745.3463,592.27902 c -13.03837,1.67229 -14.65484,3.69907 -12.81567,5.68774 4.03077,4.35842 18.41052,10.70512 30.47126,14.48018 4.22285,1.32177 37.33345,-5.43844 38.27401,-6.379 3.94279,-3.9428 9.40395,-7.80921 12.758,-11.16326 1.74185,-1.74185 8.90517,5.71567 9.56851,6.37901 3.97451,3.97452 14.10081,2.26616 19.137,4.78425 11.60757,5.80378 38.83488,-13.79189 36.67926,-15.94751 -2.12634,-2.12633 -9.60075,-1.1599 -11.72708,-3.28624"
         style="fill:#ffffff;fill-opacity:1;stroke:#000000;stroke-width:1.57872224000000005px;stroke-linecap:butt;stroke-linejoin:miter;stroke-opacity:1" />
      <path
         inkscape:connector-curvature="0"
         id="path3000"
         d="m 770.50856,586.36711 c 1.55438,-2.61111 10.25468,-11.84943 22.32651,-23.92125"
         style="fill:none;stroke:#000000;stroke-width:1.57872224px;stroke-linecap:butt;stroke-linejoin:miter;stroke-opacity:1" />
      <path
         inkscape:connector-curvature="0"
         id="path3002"
         d="m 835.89333,565.63536 c 3.41286,-4.24049 15.18745,22.74385 27.11075,28.7055"
         style="fill:none;stroke:#000000;stroke-width:1.57872224px;stroke-linecap:butt;stroke-linejoin:miter;stroke-opacity:1" />
      <path
         inkscape:connector-curvature="0"
         id="path3006"
         d="m 851.84082,528.95611 c -15.22878,0.29346 12.12006,20.20008 0,0 z"
         style="fill:#483737;stroke:#000000;stroke-width:1.57872224px;stroke-linecap:butt;stroke-linejoin:miter;stroke-opacity:1" />
      <path
         inkscape:connector-curvature="0"
         id="path3010"
         d="m 759.3453,513.0086 c -0.12156,-4.84768 9.1595,-15.74301 22.32651,-22.3265 8.71423,-4.35711 20.73175,17.95814 20.73175,28.7055"
         style="fill:none;stroke:#000000;stroke-width:1.57872224px;stroke-linecap:butt;stroke-linejoin:miter;stroke-opacity:1" />
      <path
         inkscape:connector-curvature="0"
         id="path3012"
         d="m 827.91956,517.79285 c 5.31307,-8.15334 17.553,-7.98448 22.32651,-12.758 1.91635,-1.91635 15.9475,9.02356 15.9475,12.758"
         style="fill:none;stroke:#000000;stroke-width:1.57872224px;stroke-linecap:butt;stroke-linejoin:miter;stroke-opacity:1" />
      <path
         sodipodi:nodetypes="cccccccccccccccc"
         inkscape:connector-curvature="0"
         id="path3068"
         d="m 727.51574,459.6341 c -4.07827,2.74233 6.93235,3.11693 9.00399,5.87815 10.73666,6.17141 20.09078,14.50814 29.47337,22.40581 8.51985,2.47821 14.78438,3.82875 23.30424,6.30696 7.899,1.54117 14.30775,5.25063 21.44435,4.42786 9.67861,-0.14003 19.9097,-3.84199 29.10182,0.80288 7.8627,0.23822 15.68243,-0.79341 23.23938,1.75039 7.95349,-1.92519 14.67024,2.89416 22.2064,4.21089 9.84385,1.18723 21.95868,6.50835 29.47837,13.99575 1.70693,-3.29902 0.9787,-5.77987 -3.15348,-11.49971 -17.03269,-13.25279 -35.51508,-15.42186 -56.38498,-16.83134 -11.55279,-1.03002 -23.11077,0.21276 -34.66108,-0.003 -8.13184,-1.3253 -15.82958,-1.49588 -22.59625,-3.03367 -5.07638,-2.34631 -14.61272,-4.65254 -20.95037,-7.43026 -14.79937,-7.68335 -29.3915,-16.46646 -45.62828,-20.75067 -1.27286,-0.23081 -2.58427,-0.41844 -3.87748,-0.22988 z"
         style="fill:#ac9393;stroke:#000000;stroke-width:1.57872224px;stroke-linecap:butt;stroke-linejoin:miter;stroke-opacity:1" />
      <path
         inkscape:connector-curvature="0"
         id="path3152"
         d="m 779.4867,524.71526 c -0.75177,0.18793 -2.06737,1.3156 -2.25531,0.56383 -0.18795,-0.75177 2.80326,-1.11177 2.25531,-0.56383 -0.96737,0.96738 -3.19505,0.75182 -3.9468,2.25532 -2.63683,5.27366 13.5319,13.54785 13.5319,3.38296 0,-2.21408 -0.28218,-2.96023 -2.25531,-3.9468 -2.20327,-1.10163 -4.64296,-1.15413 -7.32979,-1.69148 z"
         style="fill:#483737;stroke:#000000;stroke-width:1.57872224px;stroke-linecap:butt;stroke-linejoin:miter;stroke-opacity:1" />
      <path
         inkscape:connector-curvature="0"
         id="path3189"
         d="m 824.02923,550.08757 c -0.0726,1.54304 -0.39467,1.466 1.69149,5.6383 1.15409,2.30822 2.25532,5.16698 2.25532,7.89361 0,13.6194 -16.98322,12.89975 -24.24466,5.63829 -0.4309,-0.43088 -0.24722,-2.74974 -0.56384,-3.38298 -1.05191,-2.10379 -1.7294,-2.23635 0.56384,-3.38296"
         style="fill:none;stroke:#000000;stroke-width:1.57872224px;stroke-linecap:butt;stroke-linejoin:miter;stroke-opacity:1" />
      <path
         sodipodi:nodetypes="cssccsssssssc"
         inkscape:connector-curvature="0"
         id="path3556"
         d="m 773.29937,639.39256 c 0.47482,2.46558 -1.64586,5.0296 -0.79738,7.57507 0.85648,2.56938 0.83022,4.84993 1.99344,7.17636 1.18499,2.36997 3.00186,3.79923 4.38556,5.18295 0.82408,0.82406 4.71705,-1.12885 5.18295,-1.59476 3.94235,-3.94236 10.80664,-6.77768 17.54226,-6.77768 0.64271,0 3.60213,-1.18211 4.38556,-0.39869 2.83133,2.83133 13.63083,12.32158 19.137,9.56849 4.07718,-2.03858 7.20104,-17.51756 4.38557,-20.33305 -1.14815,-1.14815 -18.16664,4.21256 -19.13701,5.18293 -1.98601,1.98601 -13.54054,-3.58819 -16.3462,-3.58819 -0.51123,0 -8.33737,-2.97262 -9.56849,-3.58818 -3.35714,-1.67858 -8.6978,0 -11.16326,1.59475 z"
         style="fill:#c83737;stroke:#000000;stroke-width:1.57872224px;stroke-linecap:butt;stroke-linejoin:miter;stroke-opacity:1" />
      <path
         inkscape:connector-curvature="0"
         id="path3571"
         d="m 794.03112,640.18994 c 0.41439,0.28639 -0.79736,1.14935 -0.79736,3.98687 0,3.31306 -0.0661,7.90766 1.59474,9.56849 1.71443,1.71445 13.61517,0.6778 14.35275,-0.79736 0.19944,-0.39888 1.76705,-9.39621 1.19607,-9.9672 -0.87368,-0.87367 -6.76893,-1.99344 -8.37245,-1.99344 -2.73921,0 -5.09095,-0.79736 -7.97375,-0.79736 z"
         style="fill:#c83737;stroke:#000000;stroke-width:1.57872224px;stroke-linecap:butt;stroke-linejoin:miter;stroke-opacity:1" />
    </g>
    <g
       id="g3877"
       style="fill:#39302d;fill-opacity:1"
       transform="matrix(5.3763775,0,0,5.3763775,-106.76134,-3319.3881)">
      <path
         sodipodi:nodetypes="cccsccsssscccsssccccsscc"
         inkscape:connector-curvature="0"
         id="path3661"
         d="m 40.296713,709.54479 c -6.781942,-0.48956 -14.285976,2.92692 -15.832741,5.15048 -0.02268,0.59481 -0.163472,1.22348 -0.06906,1.81119 0.0041,0.0256 0.986304,0.0376 1.061729,0.0405 0.217786,0.008 1.292098,0.18853 1.436456,0.0548 0.722248,-1.35217 8.893126,-4.51841 7.617194,-2.93065 -0.899866,0.83377 -1.01874,2.99235 -1.928791,3.83555 -0.30463,0.28225 -5.253719,15.58074 -5.293455,16.62288 -0.02152,0.56441 -1.115179,2.86045 -0.479238,3.54681 1.40791,1.51953 4.509213,3.38317 6.735842,1.32011 0.505838,-0.46869 1.134946,-1.10996 1.473098,-1.72638 0.381016,-0.69453 1.064576,-1.77304 1.523106,-3.03792 -1.923862,1.02814 -3.629643,3.14475 -5.62978,3.06451 -0.615249,-1.0356 -0.300598,-3.7415 -0.01913,-4.30296 0.96705,-1.92885 1.342635,-3.31393 1.814043,-5.27847 0.424921,-1.77081 0.861564,-3.38034 1.650174,-5.31598 0.664665,-1.63142 1.236757,-5.6344 2.196587,-6.52373 0.20295,-0.18805 1.32396,-2.23503 1.18821,-2.45651 1.14857,-1.3149 3.75854,-0.91681 4.66212,-0.88551 4.219593,1.83423 2.527799,3.05265 2.669313,5.44942 -2.557043,2.3692 -3.906153,0.87791 -4.721933,1.63377 -1.07857,0.99934 0.096,2.31444 0.60988,2.86907 2.30672,2.48962 9.631603,-7.06394 7.487743,-9.37776 -3.00203,-3.01855 -5.588663,-3.3131 -8.151363,-3.56317 z"
         style="fill:#39302d;fill-opacity:1;stroke:#000000;stroke-width:1px;stroke-linecap:butt;stroke-linejoin:miter;stroke-opacity:1" />
      <path
         inkscape:connector-curvature="0"
         id="path3666"
         d="m 128.1875,715.63824 c -2.90162,0.90089 -3.29785,4.63497 -4,7.1562 -1.23688,2.78232 -1.08127,6.01803 -2.6386,8.66185 -0.25981,2.46614 -4.30082,4.78036 -5.92385,2.6819 -0.3539,-2.87701 3.60777,-6.3117 1.44652,-8.79094 -3.70996,-1.414 -7.64253,1.28401 -9.62344,4.21223 -0.55606,3.01801 -2.16206,7.03677 -6.01063,5.57871 -2.41131,0.0103 -2.27153,-2.6867 -2.51125,-4.38593 -0.83831,-2.85353 3.70038,-5.06108 3.57385,-1.33282 3.83618,0.26619 2.18804,-6.53085 -1.31144,-4.69955 -3.43493,1.00309 -5.21381,5.37378 -3.98756,8.60965 -1.07354,3.57695 -6.5219,1.15143 -5.76179,-2.0772 0.0886,-1.91172 2.56845,-7.31176 -1.27506,-5.97981 -0.6326,2.66355 -0.32864,6.02089 -2.87686,7.92304 -1.94353,2.91908 -6.38431,1.35862 -3.66243,-1.9938 1.67282,-1.86023 3.70192,-6.48009 -0.4211,-6.60753 -1.91745,-0.73107 -5.38387,4.33872 -3.85815,0.14186 -2.4982,-1.53419 -2.8711,4.28477 -3.84233,6.20473 -0.11259,2.97655 -5.00734,4.69968 -5.14143,0.93302 1.35132,-2.30524 2.58401,-7.8861 -2.01486,-6.27966 -4.26123,1.71763 0.20129,-2.67447 0.52736,-4.72842 2.60051,-2.87082 -1.55105,-6.6576 -3.52515,-2.84993 -2.32245,3.65737 -0.30405,8.60134 -3.25234,12.04981 -1.1237,3.31629 -5.11605,6.90769 -8.22201,3.49485 -1.76436,-2.62287 0.70369,-5.72436 2.5001,-7.64106 0.85751,1.55521 3.47384,3.95996 3.65881,0.70096 0.0466,-3.57335 -4.34751,-3.54173 -6.27294,-1.48091 -3.92538,1.96655 -0.93592,6.97628 -3.62039,9.13659 -1.80881,1.49377 -7.079673,1.57687 -6.870885,-0.78561 2.376885,-1.3544 5.725035,-2.70504 5.619925,-6.00339 0.0129,-3.17084 -4.30976,-4.64149 -6.492334,-2.50233 -3.300222,2.71023 -4.466224,8.61471 -0.620149,11.39159 3.395553,2.03225 8.310923,1.59878 11.097963,-1.30065 2.06537,2.57849 5.83596,2.76339 8.13332,0.46467 2.53698,-2.12096 2.96817,-6.3217 6.39801,-7.39047 2.72064,0.93043 -0.89177,5.75835 2.03346,7.493 2.82349,2.05508 6.15312,-0.5966 7.82231,-2.89738 1.14622,-1.49778 2.71543,-5.89063 4.87466,-4.41922 0.44334,2.92264 -3.84173,6.97082 0.58121,8.66328 2.75469,0.70668 4.97439,-1.96767 7.15783,-3.0593 1.2092,2.28309 4.22752,3.31362 6.66844,2.54972 2.7439,-0.99761 5.69311,2.65376 8.4633,0.14702 2.45247,-2.61388 4.37856,2.93621 6.79192,-0.27606 1.39761,-0.51002 2.71347,-3.55411 2.20668,-0.54968 1.14847,3.66489 6.65487,0.14311 7.92791,-0.13028 1.64194,2.78224 7.83831,2.29857 8.38771,-1.19031 -1.35872,-1.4996 -3.94436,3.13608 -5.92726,0.32786 -0.80217,-3.18145 1.11951,-6.19258 1.99317,-9.17802 0.86574,-3.17185 4.41454,-5.84757 3.0142,-9.39452 -0.21026,-0.49791 -0.74392,-0.57366 -1.21442,-0.59776 z m -0.59375,2.4375 c -0.18337,3.07975 -2.75,7.31331 -1.09642,2.01985 0.24175,-0.72191 0.47966,-1.52046 1.09642,-2.01985 z M 67.5,718.45074 c 0.87197,1.72425 -2.434,7.22798 -1.42962,2.83196 0.0721,-1.06812 0.37273,-2.31657 1.42962,-2.83196 z m -22.1875,8 c 2.78281,1.86248 -3.790664,6.85128 -2.673104,2.73142 0.617569,-1.13107 1.567632,-2.07561 2.673104,-2.73142 z m 67.625,0.65625 c 4.19382,-0.21321 0.67915,5.70683 -1.44647,6.63623 -4.53203,1.96186 -1.46377,-5.26295 0.71116,-6.2855 l 0.37858,-0.22639 0.35673,-0.12434 z"
         style="fill:#39302d;fill-opacity:1;stroke:#000000;stroke-width:1px;stroke-linecap:butt;stroke-linejoin:miter;stroke-opacity:1" />
      <path
         inkscape:connector-curvature="0"
         id="path3812"
         d="m 91.33929,719.23719 c -1.04406,0.82754 0.81081,-0.9001 -0.44643,0.35714 -0.71509,0.71509 0.13901,2.47514 1.33928,1.875 0.98474,-0.49237 0.85002,-2.58072 -0.89285,-2.23214 z"
         style="fill:#39302d;fill-opacity:1;stroke:#000000;stroke-width:1px;stroke-linecap:butt;stroke-linejoin:miter;stroke-opacity:1" />
    </g>
    <path
       style="fill:#39302d;fill-opacity:1;stroke:#000000;stroke-width:8.314744px;stroke-linecap:butt;stroke-linejoin:miter;stroke-opacity:1"
       d="m 146.0487,702.24906 c -18.81583,0.0499 -37.95913,1.53214 -45.99094,1.559 -4.285744,35.73595 -0.779083,72.07247 -0.779083,107.57202 0,5.96283 -1.815361,29.36493 1.559003,32.7393 4.00257,4.00255 37.96647,3.69681 45.21144,1.55902 10.47625,0.33009 34.66899,4.56628 40.79422,-1.55902 8.40711,-8.40703 16.35934,-17.64829 22.34587,-29.62128 4.52023,-9.04052 3.64144,-74.69401 0.77908,-81.06876 -5.44415,-12.12572 -13.27357,-18.83847 -20.00734,-24.42456 -6.53372,-5.42013 -25.09639,-6.80486 -43.91225,-6.75572 z m -1.03933,24.16472 c 8.55079,-0.0166 17.4962,0.31347 23.3852,1.29918 18.79358,6.64197 14.65059,27.71304 15.07048,42.8729 1.13405,16.78015 4.32434,36.49998 -10.65326,47.29011 -13.15825,2.62222 -33.33639,1.72297 -47.8098,0.25941 0.15467,-22.22905 -0.42986,-64.664 -1.29916,-90.68269 4.44714,-0.76578 12.75574,-1.02186 21.30654,-1.03933 z"
       id="path3934"
       inkscape:connector-curvature="0" />
    <path
       style="fill:#39302d;fill-opacity:1;stroke:#000000;stroke-width:8.314744px;stroke-linecap:butt;stroke-linejoin:miter;stroke-opacity:1"
       d="m 232.90817,706.78367 c -1.41343,17.18865 3.43841,34.50968 -0.20369,51.58144 -1.49417,16.8761 -2.65982,33.92615 -0.62861,50.79468 -0.51884,9.59953 -4.09709,20.24441 1.24273,29.1031 6.08439,6.59917 15.86635,3.35283 23.66751,5.07042 18.62178,1.20463 37.18328,-1.62828 55.7967,-1.81178 7.95047,-0.34507 19.61256,-0.0166 27.54091,-0.71174 0.52966,-4.80801 3.14498,-19.11777 -1.67676,-24.00459 -7.55385,-1.57298 -16.53469,0.854 -24.12863,0.65853 -10.72784,0.40742 -24.51263,0.53712 -32.1755,0.62776 -6.06245,-1.73212 -16.72426,0.88335 -23.5851,-0.53299 -0.73086,-8.16223 -2.98533,-23.48723 -1.43173,-31.38949 4.27129,-7.24496 14.00403,-4.28989 20.72301,-3.2315 10.84842,0.41406 38.14516,0.51135 48.9954,-0.42241 1.32354,-8.92271 0.97774,-15.85813 -0.71922,-22.4335 -8.49809,0.24777 -28.84752,0.96476 -36.63636,0.449 -9.51183,2.2932 -21.99285,2.75873 -31.1137,-2.10629 0.41407,-6.21496 0.0166,-25.14231 -0.20453,-31.8503 3.26377,1.28213 7.7845,-1.0104 11.65169,-0.84137 8.52727,1.65903 17.11499,1.298 25.69913,0.43402 9.85383,-0.78656 32.2865,0.13803 42.16543,-0.32925 8.09738,4.0171 3.50972,-11.14317 3.37453,-22.93665 -5.91245,0.1638 -14.33403,-3.1991 -21.5124,-2.0426 -18.05615,1.05714 -36.23918,4.48048 -54.28143,1.43855 -11.00072,-0.11805 -21.94494,1.69444 -32.55853,4.48696 z"
       id="path3947"
       inkscape:connector-curvature="0"
       sodipodi:nodetypes="cccccccccccccccccccccccccc" />
    <path
       style="fill:#39302d;fill-opacity:1;stroke:#000000;stroke-width:8.314744px;stroke-linecap:butt;stroke-linejoin:miter;stroke-opacity:1"
       d="m 368.54246,704.32775 c -4.15587,0.0249 -7.00566,0.1247 -7.2754,0.25941 -1.29062,0.64522 -2.40038,1.33635 -3.63769,2.07869 -0.49472,0.98986 -1.20905,2.06813 -1.55902,3.11803 -2.28613,6.8584 3.99815,16.42802 0.77908,22.86553 -2.03826,4.07649 -1.86981,24.58257 0,28.32212 0.85095,1.70184 -0.77908,23.58559 -0.77908,26.76308 0,3.97593 1.5526,18.4672 0.77908,20.78687 -1.02204,3.06597 -2.68989,30.82882 -0.77908,32.7393 1.96519,1.96519 23.67041,2.07867 26.76309,2.07867 17.69511,0 54.69356,2.01468 69.11631,-5.19672 7.39821,-3.69913 11.14783,-11.14772 16.36966,-16.36964 2.85136,-2.85138 2.19983,-12.59325 3.63769,-14.03112 1.56516,-1.56509 1.55902,-5.86507 1.55902,-8.83443 0,-4.42918 -1.72471,-9.00012 -3.89755,-11.17293 -0.74249,-0.7425 0.22284,-2.89536 -0.51966,-3.63771 -2.46049,-2.46049 -4.81216,-6.95321 -7.53523,-8.31473 -4.33315,-2.16666 -9.10582,-4.42877 -11.95245,-7.2754 -0.70175,-0.70177 -3.79618,-0.15799 -4.4172,-0.77911 -0.33259,-0.33258 6.75647,-1.16963 7.53523,-1.55902 8.14421,-4.07206 11.26117,-2.42673 16.88931,-8.05489 1.79011,-1.79009 0.30683,-5.81135 1.55903,-8.31475 4.17907,-8.35832 -0.6153,-22.70117 -6.75574,-28.84176 -5.45322,-5.45324 -8.17281,-10.19256 -14.81063,-13.51147 -3.40896,-1.70444 -11.80354,-0.63025 -14.03113,-2.8582 -1.39738,-1.39745 -27.78473,2.61607 -28.84178,1.55902 -1.34631,-1.34633 -25.7283,-1.89784 -38.19586,-1.81884 z m 23.1254,18.70816 c 9.87276,-0.92044 39.82547,5.00748 41.57373,6.75573 3.50174,3.50176 1.01471,4.62791 3.11802,8.83442 0.82566,1.64291 1.77469,7.62362 0.77908,9.61393 -6.77858,13.55726 -19.03319,12.73195 -35.59749,12.73195 -4.96582,0 -12.17645,0.53796 -16.36965,-1.55902 -2.08427,-1.04217 -1.50082,-27.31584 -1.55903,-31.95979 2.6372,-1.58222 4.00321,-2.4443 5.19672,-3.63771 0.44485,-0.44484 1.44776,-0.64771 2.85819,-0.77909 z m -1.55901,57.68354 c 1.86923,0.0897 5.15472,1.03934 6.23604,1.03934 6.26533,0 30.56775,-0.56622 34.818,1.55902 4.65776,2.32888 8.11203,4.21442 11.17294,7.27541 3.06116,3.06107 0.77909,9.96389 0.77909,13.51145 0,1.01848 0.46478,6.03126 -0.77909,7.27541 -2.08874,2.08873 -6.68224,5.1233 -9.09424,7.53523 -2.23169,2.23185 -33.15106,3.04211 -37.6762,0.7791 -2.20033,-1.10014 -8.71835,1.67509 -10.39344,0 -3.74821,-3.74821 -0.5388,-27.0773 -1.559,-35.59751 2.12865,-1.27722 4.21723,-2.13862 5.19671,-3.11803 0.21203,-0.21202 0.676,-0.28936 1.29919,-0.25942 z"
       id="path3973"
       inkscape:connector-curvature="0" />
    <path
       style="fill:#39302d;fill-opacity:1;stroke:#000000;stroke-width:8.314744px;stroke-linecap:butt;stroke-linejoin:miter;stroke-opacity:1"
       d="m 489.82441,728.00597 c 6.54961,0.50138 10.48905,-0.67766 16.79837,-1.04982 5.0078,0.14134 10.17092,1.16008 14.17356,1.0499 3.60768,-0.0581 8.44196,0.3725 12.59873,2.6e-4 1.57482,8.25095 -0.23862,33.64476 0,34.12163 0.67517,1.34998 2.23461,18.62843 1.57482,19.94798 -1.46298,2.92588 0.37749,23.32768 0,27.82222 0.14136,4.48164 0,14.86409 0,16.79836 0,1.31248 0.94348,17.74175 1.04991,17.84819 0.96327,0.96326 10.29623,0.88884 14.17357,1.04991 4.64843,0.19288 10.63662,-0.13721 14.69855,-0.52467 0.24446,-9.55457 -0.23198,-21.70938 -0.52466,-30.44702 0.43652,-7.29636 -0.0499,-12.56125 0.52466,-20.99788 0,-2.77357 -0.0166,-8.41362 -0.52466,-13.12367 -0.70509,-5.29258 -0.52133,-11.76362 -1.0499,-17.32327 2.85611,-5.71223 1.0499,-16.38562 1.0499,-23.0977 0,-1.92468 -0.17461,-4.54965 -0.52465,-9.44912 5.84409,-1.55062 17.57727,-1.05182 26.24724,-1.57482 5.39801,0 12.10875,-1.60998 16.27344,-1.0499 -0.72837,-8.52169 -0.51718,-16.30397 -0.52467,-23.0976 -4.24218,0.39909 -10.82362,-0.53714 -15.22345,-3.4e-4 -7.72857,0 -16.08646,0 -23.62261,0 -5.31835,0.68347 -20.77365,0.11134 -31.49684,-0.52549 -3.49684,0 -8.28398,0.58286 -15.22354,0 -7.00036,0.43652 -21.88258,0.36002 -28.87204,1.0499 0.40161,4.32391 -1.43348,14.7205 -1.5749,22.57295 z"
       id="path3994"
       inkscape:connector-curvature="0"
       sodipodi:nodetypes="cccccccssscccccsccccccccccc" />
  </g>
</svg>
