<?xml version="1.0" encoding="UTF-8" standalone="no"?>
<!-- Created with Inkscape (http://www.inkscape.org/) -->

<svg
   xmlns:dc="http://purl.org/dc/elements/1.1/"
   xmlns:cc="http://creativecommons.org/ns#"
   xmlns:rdf="http://www.w3.org/1999/02/22-rdf-syntax-ns#"
   xmlns:svg="http://www.w3.org/2000/svg"
   xmlns="http://www.w3.org/2000/svg"
   xmlns:sodipodi="http://sodipodi.sourceforge.net/DTD/sodipodi-0.dtd"
   xmlns:inkscape="http://www.inkscape.org/namespaces/inkscape"
   width="1052.3622"
   height="744.09448"
   id="svg4497"
   version="1.1"
   inkscape:version="0.48.1 r9760"
   sodipodi:docname="upnode.svg"
   inkscape:export-filename="/home/substack/media/vector/do_not_write_big_apps/upnode.png"
   inkscape:export-xdpi="87.569527"
   inkscape:export-ydpi="87.569527">
  <defs
     id="defs4499" />
  <sodipodi:namedview
     id="base"
     pagecolor="#497327"
     bordercolor="#666666"
     borderopacity="1.0"
     inkscape:pageopacity="1"
     inkscape:pageshadow="2"
     inkscape:zoom="0.7"
     inkscape:cx="493.26685"
     inkscape:cy="350.82962"
     inkscape:document-units="px"
     inkscape:current-layer="layer1"
     showgrid="false"
     inkscape:window-width="1364"
     inkscape:window-height="766"
     inkscape:window-x="0"
     inkscape:window-y="0"
     inkscape:window-maximized="0" />
  <metadata
     id="metadata4502">
    <rdf:RDF>
      <cc:Work
         rdf:about="">
        <dc:format>image/svg+xml</dc:format>
        <dc:type
           rdf:resource="http://purl.org/dc/dcmitype/StillImage" />
        <dc:title></dc:title>
      </cc:Work>
    </rdf:RDF>
  </metadata>
  <g
     inkscape:label="Layer 1"
     inkscape:groupmode="layer"
     id="layer1"
     transform="translate(0,-308.2677)">
    <path
       style="fill:#acac0a;fill-opacity:1;stroke:#000000;stroke-width:1px;stroke-linecap:butt;stroke-linejoin:miter;stroke-opacity:1"
       d="M 649 399.21875 C 640.24709 399.33471 631.37804 402.55924 623.625 406.4375 C 595.35745 412.10214 575.3047 436.23459 563.15625 460.96875 C 557.34848 471.27552 553.86881 482.32206 551.875 493.6875 C 538.3129 502.88067 508.68009 525.41366 507.15625 526.9375 C 504.55853 529.53522 508.75207 570.62603 510 571.25 C 512.01212 572.25606 553.7722 547.98685 555.71875 544.09375 C 555.89408 543.7431 556.0949 543.40799 556.28125 543.0625 C 557.03307 543.1109 557.79349 542.99084 558.5625 542.65625 C 576.31665 531.81051 584.18756 511.26296 598.5625 496.9375 C 601.38173 481.71142 599.59865 464.26001 613.4375 452.9375 C 623.18637 440.5585 639.08239 439.50602 652.84375 441.25 C 669.37827 450.87943 671.65355 471.96778 677.40625 488.46875 C 684.80244 502.18085 683.87921 517.24424 683.6875 532.3125 C 692.39402 547.63402 691.91337 566.14399 697.15625 582.65625 C 702.30964 598.12836 711.0813 612.09652 723.125 623.3125 C 734.6944 637.61233 755.51503 641.89082 773.125 643.78125 C 788.71264 647.43651 801.19318 639.82987 815.59375 635.46875 C 846.57168 622.90271 872.20359 599.75063 894.84375 575.71875 C 907.03184 561.89214 913.7517 544.56414 923.21875 528.78125 C 929.69692 509.31068 953.53334 547.87548 949.25 528.1875 C 946.7156 511.44804 956.97222 494.77323 954.59375 477.53125 C 957.28845 464.52679 949.57037 473.16518 942.5625 472.3125 C 923.78928 474.53504 905.02328 479.87108 885.71875 478.375 C 879.33285 485.58123 900.31252 497.40293 905.875 499.9375 C 893.32657 524.30417 873.66323 544.19174 858.9375 567.21875 C 852.73787 582.38653 838.83411 591.69604 825.125 599.46875 C 811.26461 605.12479 798.22429 618.56028 782.6875 616.65625 C 765.50752 610.80739 750.85318 597.2438 739.78125 582.9375 C 729.74811 567.8211 721.20289 551.13708 723.125 532.5 C 717.48474 515.7467 718.5393 496.50382 708.5625 481.25 C 704.20532 464.03591 700.9667 446.53738 696.375 429.375 C 695.01829 412.48131 679.89936 403.48294 664.34375 402.90625 C 659.47439 400.19815 654.25175 399.14918 649 399.21875 z "
       transform="translate(0,308.2677)"
       id="path6396" />
    <path
       style="fill:#acac0a;fill-opacity:1;stroke:#000000;stroke-width:1px;stroke-linecap:butt;stroke-linejoin:miter;stroke-opacity:1"
       d="m 347.14285,886.64789 c -12.47559,-6.08335 -25.70609,-7.12646 -37.14285,-30 -3.99851,-7.997 12.42365,-53.85222 15.71428,-57.14285 3.19093,-3.19093 2.85714,-16.42334 2.85714,-21.42857 0,-37.33195 -11.81077,-45.19111 -38.57142,-58.57143 -21.56639,-10.7832 -42.21742,25.22367 -47.14286,40 -1.73451,5.20352 -0.4075,10.815 -2.85714,15.71428 -3.13416,6.26831 3.16806,23.47899 5.71428,28.57143 5.79484,11.58967 9.24535,43.45034 14.28572,58.57143 4.77556,14.32669 28.29869,57.68834 20,74.28571 -5.62993,11.25985 -23.2196,42.32409 -35.71429,48.57143 -5.2137,2.60685 -15.30047,3.8719 -18.57143,7.14286 -2.232,2.232 -19.48793,0 -22.85714,0 -0.87178,0 -5.15766,0.55663 -5.71429,0 -0.28957,-0.28958 -3.61647,-3.52638 -4.28571,-2.85714 -1.81212,1.81212 9.5263,38.57136 5.71428,38.57136 -2.55939,0 -15.18757,-16.6161 -17.14285,-18.5714 -5.10007,-5.1001 -13.05505,-10.81317 -20,-14.28568 -2.75794,-1.37897 -12.41604,-0.98746 -14.28572,-2.85714 -0.96237,-0.96237 7.14286,-22.74955 7.14286,-30 0,-7.97727 4.08838,-18.17677 7.14286,-24.28571 0.38752,-0.77505 1.39442,-8.57143 1.42857,-8.57143 1.66914,0 8.75483,28.75483 10,30 1.01015,1.01015 8.4132,0 10,0 27.35429,0 41.03677,-13.50211 52.85714,-37.14286 5.69567,-11.39133 -19.7336,-56.87646 -24.28571,-61.42857 -4.10039,-4.10039 -3.43956,-24.86813 -7.14286,-28.57143 -6.39616,-6.39616 -2.91782,-34.3464 -5.71429,-37.14286 -3.27105,-3.27105 -1.42857,-16.8326 -1.42857,-22.85714 0,-46.64793 18.98058,-59.49029 54.28572,-77.14286 5.11341,-2.5567 11.0013,-7.14285 17.14285,-7.14285 8.05096,0 43.32653,-0.95919 48.57143,4.28571 4.30316,4.30316 11.63229,5.918 17.14286,11.42857 18.7486,18.7486 25.71429,59.83315 25.71429,90 0,11.32272 0.85715,36.2857 -4.28572,41.42857 -5.95238,5.95238 5.95238,29.76191 0,35.71429 -2.23255,2.23255 -6.2435,11.83441 -8.57143,15.71428 z"
       id="path6346"
       inkscape:connector-curvature="0" />
    <path
       style="fill:#ffff00;stroke:#000000;stroke-width:1px;stroke-linecap:butt;stroke-linejoin:miter;stroke-opacity:1;fill-opacity:1"
       d="m 737.05937,717.47374 c -5.33597,-1.14667 -10.14471,-1.72093 -12.54566,-1.09606 -8.49605,2.21117 -38.30822,-1.6132 -42.61063,1.18328 -5.11353,3.32369 -15.80326,1.83831 -19.93529,4.52405 -5.90283,3.83671 -13.58549,4.00739 -19.15627,7.62829 -11.34299,7.37272 -22.75829,16.61783 -31.7967,27.30858 -4.8046,-0.0265 -9.43804,0.30928 -13.63693,1.0364 -8.64549,1.49715 -19.44737,2.07212 -27.52589,5.82085 -23.8328,11.05925 -60.67878,29.32281 -72.3317,51.83704 4.08205,5.27594 5.12055,71.54478 7.95073,69.70521 3.92505,-2.5512 25.16807,-28.79557 27.99539,-33.81621 13.51437,-23.99832 21.78521,-34.52901 39.27338,-46.22331 5.63595,-3.76874 12.44752,-3.57415 18.05664,-5.30592 -2.22273,20.86307 2.31844,45.9384 11.28683,59.73636 3.63113,5.58653 23.30315,13.59189 24.48991,15.41773 4.579,7.04483 25.09171,1.77017 31.12381,-2.15057 25.48136,-16.56237 28.76636,-80.00298 1.18718,-101.97348 -3.06639,-2.44278 -6.69763,-4.56847 -10.65766,-6.38183 6.91113,-4.62139 12.74827,-9.44572 19.29438,-13.70056 4.05295,-2.63433 9.24538,-3.08492 14.04921,-4.33516 3.59043,-0.93444 26.30655,-8.63888 28.41433,-10.00889 1.12928,-0.73401 4.46497,1.92075 5.59426,1.18674 13.65243,-8.8738 53.10442,24.24674 57.62366,31.19963 8.27976,12.73849 8.14763,27.33482 14.15516,36.57745 3.00036,4.61609 -5.49598,30.46939 -1.81803,36.12794 3.02516,4.65425 4.05268,13.65517 7.62829,19.15627 4.19664,6.45659 13.3188,13.07102 16.601,18.12072 6.35582,9.77849 56.29347,27.24134 68.96339,19.00614 19.22865,-14.50722 24.14299,-11.95929 37.75361,8.0089 0.74755,1.15012 4.91657,12.73501 7.40882,13.2637 1.92064,0.40744 3.95936,-7.59199 3.46484,-9.49207 -1.54244,-5.92658 8.67582,-13.40411 10.02983,-19.78687 3.38347,-15.9495 12.15846,-29.75662 14.48419,-40.71998 0.0692,-0.32607 -2.46809,0.91397 -3.07367,0.78551 -7.08082,-1.5021 -11.87115,-1.04881 -19.86293,-2.74416 -12.49582,-2.65081 -31.22723,-11.00094 -42.45943,-13.38369 -2.98561,-0.63336 -10.24333,-4.64962 -11.67572,-6.85337 -0.83165,-1.27949 0.32228,6.05074 1.30328,7.56003 1.34808,2.07404 16.72326,28.89937 15.63372,29.60755 -3.40021,2.21007 -11.57645,0.3033 -15.15711,2.63064 -13.10645,8.51893 -32.64991,9.04733 -42.50122,-6.109 -1.96031,-3.01597 -5.98725,-3.61596 -7.51824,-5.97141 -6.85944,-10.55333 -12.48014,-21.02543 -19.52995,-31.87163 -3.52531,-5.42372 -0.38618,-30.27446 -2.96016,-34.23453 -4.26359,-6.55958 -4.05932,-17.35516 -8.12197,-23.60557 -6.35277,-9.7738 -16.5212,-23.59341 -23.41321,-34.19684 -2.09476,-3.2228 -10.37028,-3.34763 -13.38024,-5.74547 -2.87287,-2.28862 -13.20397,-5.81131 -22.09723,-7.72243 z m -107.44476,78.66573 c 6.30934,1.79113 12.90079,5.20271 20.15925,10.98504 2.59081,2.06393 5.82032,5.26484 7.18936,7.37113 1.54532,2.37749 2.98457,29.39577 -2.63411,33.04779 -0.47972,0.31181 -8.17103,7.78329 -10.96257,3.48851 -2.77054,-4.26252 -9.07638,-8.40919 -11.89518,-12.74593 -2.96435,-4.56069 -3.59095,-20.36487 -4.22574,-21.3415 -2.40917,-3.70652 -0.82267,-11.95817 2.36899,-20.80504 z"
       id="path5778"
       inkscape:connector-curvature="0"
       sodipodi:nodetypes="ssssscsscssscsssscsssssssssccssssssssssssssssssscssssssc" />
    <g
       id="g10758"
       transform="matrix(0.57869501,0,0,0.83415247,76.261871,-227.28952)">
      <path
         transform="translate(0,308.2677)"
         inkscape:connector-curvature="0"
         id="path10606"
         d="M 58.571429,389.80877 C 53.719923,402.76385 55.99404,460.08852 60,464.09448"
         style="fill:none;stroke:#ffff00;stroke-width:4;stroke-linecap:round;stroke-linejoin:round;stroke-miterlimit:4;stroke-opacity:1;stroke-dasharray:none" />
      <path
         transform="translate(0,308.2677)"
         inkscape:connector-curvature="0"
         id="path10608"
         d="m 108.57143,458.3802 c -16.215916,16.21591 -42.36402,1.37777 -34.285716,-22.85715 0.889907,-2.66972 5.325969,-3.89739 7.142857,-5.71428 2.229073,-2.22907 6.79577,-6.24833 10,-5.71429 23.861509,3.97692 -13.122178,-2.10738 7.142858,2.85715 3.170311,23.61281 -11.425741,15.71428 -21.428572,15.71428"
         style="fill:none;stroke:#ffff00;stroke-width:4;stroke-linecap:round;stroke-linejoin:round;stroke-miterlimit:4;stroke-opacity:1;stroke-dasharray:none" />
      <path
         transform="translate(0,308.2677)"
         inkscape:connector-curvature="0"
         id="path10610"
         d="m 150,424.09448 c -1.90476,-0.95238 -6.66667,-0.95238 -5.71429,-2.85714 0.95239,-1.90476 7.84388,2.85714 5.71429,2.85714 -9.28465,0 -6.93705,-3.67433 -14.28571,0 -2.69779,1.34889 -6.98366,1.34898 -10,2.85715 -21.12843,10.56421 12.88879,13.6189 20,24.28571 1.73292,2.59939 9.41094,13.4462 7.14285,15.71429 -4.27719,4.27719 -25.89358,0.35859 -22.85714,-5.71429"
         style="fill:none;stroke:#ffff00;stroke-width:4;stroke-linecap:round;stroke-linejoin:round;stroke-miterlimit:4;stroke-opacity:1;stroke-dasharray:none" />
      <path
         transform="translate(0,308.2677)"
         inkscape:connector-curvature="0"
         id="path10612"
         d="m 192.85714,428.3802 c -1.90476,-1.42857 -7.14285,-2.38096 -5.71428,-4.28572 1.42857,-1.90476 8.09524,4.28572 5.71428,4.28572 -2.3483,0 -6.29084,-4.28572 -10,-4.28572 -5.23959,0 -9.93671,2.81496 -14.28571,5.71429 -15.1752,10.1168 6.21584,13.8222 15.71428,18.57143 5.65306,2.82652 6.3026,9.74804 8.57143,14.28571 1.1441,2.28819 -1.42857,3.68024 -1.42857,5.71429 0,8.22032 -18.47307,1.52693 -24.28571,-4.28572"
         style="fill:none;stroke:#ffff00;stroke-width:4;stroke-linecap:round;stroke-linejoin:round;stroke-miterlimit:4;stroke-opacity:1;stroke-dasharray:none" />
      <path
         transform="translate(0,308.2677)"
         inkscape:connector-curvature="0"
         id="path10614"
         d="m 262.85714,428.3802 c -1.90476,0 -5.71428,1.90476 -5.71428,0 0,-1.90477 7.61904,0 5.71428,0 -11.02655,0 -4.58885,-0.56272 -8.57143,1.42857 -2.07481,1.0374 -1.6309,4.48804 -2.85714,5.71428 -9.15568,9.15568 -4.48846,42.95852 15.71429,32.85715 13.58157,-6.79079 13.45978,-35.56363 -4.28572,-40 z"
         style="fill:none;stroke:#ffff00;stroke-width:4;stroke-linecap:round;stroke-linejoin:round;stroke-miterlimit:4;stroke-opacity:1;stroke-dasharray:none" />
      <path
         transform="translate(0,308.2677)"
         inkscape:connector-curvature="0"
         id="path10616"
         d="m 282.85714,432.66591 c 0.96153,5.30329 16.32372,40 17.14286,40 7.10087,0 -3.12485,-48.70528 5.71429,-44.28571"
         style="fill:none;stroke:#ffff00;stroke-width:4;stroke-linecap:round;stroke-linejoin:round;stroke-miterlimit:4;stroke-opacity:1;stroke-dasharray:none" />
      <path
         transform="translate(0,308.2677)"
         inkscape:connector-curvature="0"
         id="path10618"
         d="m 327.14286,445.52305 c 7.96434,-1.60061 13.41204,-4.17945 20,-8.57142 15.37318,-10.24879 -7.35174,-19.58224 -15.71429,-2.85715 -11.39738,22.79477 12.06423,36.82503 25.71429,30"
         style="fill:none;stroke:#ffff00;stroke-width:4;stroke-linecap:round;stroke-linejoin:round;stroke-miterlimit:4;stroke-opacity:1;stroke-dasharray:none" />
      <path
         transform="translate(0,308.2677)"
         inkscape:connector-curvature="0"
         id="path10620"
         d="m 367.14286,431.23734 c -2.67559,8.99168 -1.52584,5.32521 0,11.42857 0.7111,2.84443 1.42857,7.15671 1.42857,10 0,9.47443 5.71428,19.26424 5.71428,18.57143 0,-4.90591 -2.76263,-12.57361 -4.28571,-17.14286 -1.40208,-4.20624 2.32958,-13.01126 1.42857,-15.71428 -0.87805,-2.63416 -5.52747,-4.65935 -4.28571,-7.14286 1.08588,-2.17176 4.71475,1.42857 7.14285,1.42857 2.38096,0 2.15613,-4.64949 4.28572,-5.71428 5.22423,-2.61212 14.80686,8.18514 15.71428,10"
         style="fill:none;stroke:#ffff00;stroke-width:4;stroke-linecap:round;stroke-linejoin:round;stroke-miterlimit:4;stroke-opacity:1;stroke-dasharray:none" />
      <path
         transform="translate(0,308.2677)"
         inkscape:connector-curvature="0"
         id="path10622"
         d="m 402.85714,394.09448 c -4.99036,-0.0363 9.74267,78.57143 7.14286,78.57143 -2.08294,0 3.65655,-46.02887 15.71429,-40 19.53683,9.76842 13.33486,32.38402 20,45.71429"
         style="fill:none;stroke:#ffff00;stroke-width:4;stroke-linecap:round;stroke-linejoin:round;stroke-miterlimit:4;stroke-opacity:1;stroke-dasharray:none" />
      <path
         transform="translate(0,308.2677)"
         inkscape:connector-curvature="0"
         id="path10624"
         d="m 462.85714,455.52305 c 48.37484,-27.72251 6.66935,-30.48154 -1.42857,-14.28571 -2.91091,5.82182 1.42857,8.69155 1.42857,14.28571 0,2.56437 -2.49448,4.60427 -2.85714,7.14286 -0.23457,1.64203 3.41149,8.68867 4.28571,10 10.3457,15.51854 16.93639,7.24609 28.57143,1.42857"
         style="fill:none;stroke:#ffff00;stroke-width:4;stroke-linecap:round;stroke-linejoin:round;stroke-miterlimit:4;stroke-opacity:1;stroke-dasharray:none" />
      <path
         transform="translate(0,308.2677)"
         inkscape:connector-curvature="0"
         id="path10626"
         d="m 498.57143,439.80877 c 30.84333,-37.31894 24.28571,18.73585 24.28571,37.14286"
         style="fill:none;stroke:#ffff00;stroke-width:4;stroke-linecap:round;stroke-linejoin:round;stroke-miterlimit:4;stroke-opacity:1;stroke-dasharray:none" />
      <path
         transform="translate(0,308.2677)"
         inkscape:connector-curvature="0"
         id="path10628"
         d="m 521.42857,455.52305 c -1.90476,-0.47619 -6.19047,0.47619 -5.71428,-1.42857 0.47619,-1.90476 7.67767,1.42857 5.71428,1.42857 -3.58022,0 -10.19809,-2.79111 -14.28571,-1.42857 -25.46326,8.48776 12.83099,32.90945 20,18.57143"
         style="fill:none;stroke:#ffff00;stroke-width:4;stroke-linecap:round;stroke-linejoin:round;stroke-miterlimit:4;stroke-opacity:1;stroke-dasharray:none" />
      <path
         transform="translate(0,308.2677)"
         inkscape:connector-curvature="0"
         id="path10630"
         d="m 567.14286,435.52305 c -26.06619,-19.72852 -40.0776,40 -18.57143,40 24.07908,0 16.98976,-24.1833 18.57143,-40 0.74897,-7.48976 2.85714,-13.5279 2.85714,-21.42857 0,-4.05083 1.82484,-13.49317 0,-17.14285 -0.67343,-1.34687 -2.93442,-4.28572 -1.42857,-4.28572 2.38095,0 0,4.76191 0,7.14286 0,8.09524 0,16.19047 0,24.28571 0,8.34525 -0.45995,11.50167 1.42857,20 2.70753,12.18387 2.82624,25.65248 7.14286,34.28572"
         style="fill:none;stroke:#ffff00;stroke-width:4;stroke-linecap:round;stroke-linejoin:round;stroke-miterlimit:4;stroke-opacity:1;stroke-dasharray:none" />
    </g>
    <path
       style="fill:none;stroke:#ffff00;stroke-width:8;stroke-linecap:butt;stroke-linejoin:miter;stroke-miterlimit:4;stroke-opacity:1;stroke-dasharray:none"
       d="m 63.578471,381.79301 c -2.6938,0.6735 -7.4078,4.7141 -8.0812,2.0203 -0.6735,-2.6937 10.8578,-2.0203 8.0812,-2.0203 -26.3779,0 -12.3956,26.1271 0,32.3249 11.0137,5.5069 33.9911,-23.8271 0,-32.3249 z"
       id="path10817"
       inkscape:connector-curvature="0" />
    <path
       style="fill:none;stroke:#ffff00;stroke-width:4;stroke-linecap:round;stroke-linejoin:round;stroke-miterlimit:4;stroke-opacity:1;stroke-dasharray:none"
       d="m 435.57562,408.98621 c 31.02054,-8.2093 79.06017,7.6128 102.85715,-4.2857"
       id="path3526"
       inkscape:connector-curvature="0" />
    <path
       style="fill:none;stroke:#ffff00;stroke-width:4;stroke-linecap:round;stroke-linejoin:round;stroke-miterlimit:4;stroke-opacity:1;stroke-dasharray:none"
       d="m 521.31862,390.41481 c 5.07521,2.2781 20,12.9807 20,15.7143 0,0.2779 -6.72482,2.4391 -7.14285,2.8571 -5.47535,5.4753 -11.59724,10.0843 -17.14286,12.8571"
       id="path3541"
       inkscape:connector-curvature="0" />
    <path
       style="fill:none;stroke:#ffffff;stroke-width:4;stroke-linecap:round;stroke-linejoin:round;stroke-miterlimit:4;stroke-opacity:1;stroke-dasharray:none"
       d="m 581.72662,397.2932 c -13.47043,25.0918 12.02954,40.9948 24.04163,16.9706 3.67222,-7.3445 -4.24264,-17.7628 -4.24264,-19.799"
       id="path4364"
       inkscape:connector-curvature="0" />
    <path
       style="fill:none;stroke:#ffffff;stroke-width:4;stroke-linecap:round;stroke-linejoin:round;stroke-miterlimit:4;stroke-opacity:1;stroke-dasharray:none"
       d="m 697.69213,395.879 c -4.97257,-3.5491 -12.52128,-0.4133 -15.55635,5.6569 -5.10824,10.2164 14.56366,23.6201 18.38478,19.799 7.46572,-7.4658 14.83287,-25.4559 -2.82843,-25.4559 z"
       id="path4372"
       inkscape:connector-curvature="0" />
    <path
       style="fill:none;stroke:#ffffff;stroke-width:4;stroke-linecap:round;stroke-linejoin:round;stroke-miterlimit:4;stroke-opacity:1;stroke-dasharray:none"
       d="m 750.01799,408.6069 c 5.2653,-0.3306 5.2231,-1.1973 8.48531,-2.8284 24.70154,-12.3508 -8.48531,-20.8459 -8.48531,2.8284 0,0.3178 1.4675,8.5386 2.8285,9.8995 4.32771,4.3278 24.04161,11.0265 24.04161,-2.8284"
       id="path4389"
       inkscape:connector-curvature="0" />
    <path
       style="fill:none;stroke:#ffffff;stroke-width:4;stroke-linecap:round;stroke-linejoin:round;stroke-miterlimit:4;stroke-opacity:1;stroke-dasharray:none"
       d="m 655.26572,394.4648 c 0,1.8856 1.88562,5.6568 0,5.6568 -1.88561,0 0,-7.5424 0,-5.6568 0,8.4619 -1.41421,14.5278 -1.41421,22.6274 0,1.8856 1.88562,5.6569 0,5.6569 -2.14618,0 -1.32861,-25.9986 1.41421,-28.2843 1.81072,-1.5089 4.71405,0 7.07107,0 11.5772,0 15.21796,16.2331 9.8995,26.8701"
       id="path4402"
       inkscape:connector-curvature="0" />
    <path
       style="fill:none;stroke:#ffffff;stroke-width:4;stroke-linecap:round;stroke-linejoin:round;stroke-miterlimit:4;stroke-opacity:1;stroke-dasharray:none"
       d="m 622.73881,395.879 c -9.0465,22.2812 -2.82843,66.7597 -2.82843,80.6102"
       id="path4439"
       inkscape:connector-curvature="0" />
    <path
       style="fill:none;stroke:#ffffff;stroke-width:4;stroke-linecap:round;stroke-linejoin:round;stroke-miterlimit:4;stroke-opacity:1;stroke-dasharray:none"
       d="m 619.91038,405.7785 c 0.94281,-1.8856 0.94281,-6.5997 2.82843,-5.6569 1.88562,0.9429 -4.31914,7.1476 -2.82843,5.6569 1.94366,-1.9437 2.52552,-4.9247 4.24265,-7.0711 0.39824,-0.4978 3.52231,-1.054 4.24264,-1.4142 25.04794,-12.524 21.01477,17.7769 11.3137,22.6274 -2.49001,1.245 -6.102,0.2226 -8.48528,1.4142 -2.5255,1.2628 -8.6067,-0.1214 -11.31371,-2.8284"
       id="path4441"
       inkscape:connector-curvature="0" />
    <path
       style="fill:none;stroke:#ffffff;stroke-width:4;stroke-linecap:round;stroke-linejoin:round;stroke-miterlimit:4;stroke-opacity:1;stroke-dasharray:none"
       d="m 737.29011,400.1216 c -28.04716,-20.2772 -21.66278,33.4588 -5.65685,25.4559 3.65575,-1.8279 2.69355,-4.1752 5.65685,-5.6569"
       id="path4454"
       inkscape:connector-curvature="0" />
    <path
       style="fill:none;stroke:#ffffff;stroke-width:4;stroke-linecap:round;stroke-linejoin:round;stroke-miterlimit:4;stroke-opacity:1;stroke-dasharray:none"
       d="m 742.94696,361.9379 c -8.5009,21.0591 -1.41421,48.2358 -1.41421,70.7107"
       id="path4456"
       inkscape:connector-curvature="0" />
    <path
       style="fill:#acac0a;fill-opacity:1;stroke:#000000;stroke-width:1px;stroke-linecap:butt;stroke-linejoin:miter;stroke-opacity:1"
       d="m 236.84375,513.5 c -3.24347,6.80755 -6.1747,13.56814 -9.6875,20.59375 -0.54008,1.08016 -1.35815,2.07915 -2.3125,3 -0.95435,0.92085 -2.03693,1.75788 -3.15625,2.5625 -2.23865,1.60923 -4.56601,3.03476 -5.96875,4.4375 -0.75193,0.75193 -1.54857,1.26261 -2.3125,1.9375 21.96546,21.26476 36.80863,-4.56637 45.15625,3.78125 l 18.875,18.875 c 0.30409,3.43835 0.84567,7.15136 1.5625,11 0.96121,3.06181 1.93956,5.99586 2.9375,8.65625 1.14898,3.06304 2.32044,5.88294 3.5,8.46875 1.17956,2.58581 2.37172,4.95766 3.5625,7.125 1.19078,2.16734 2.37988,4.12988 3.5625,5.9375 2.36523,3.61523 4.6899,6.5649 6.90625,9.09375 2.21635,2.52885 4.33754,4.65004 6.25,6.5625 0.67554,0.67555 1.57672,1.26253 2.65625,1.78125 1.07953,0.51872 2.34854,0.95617 3.71875,1.3125 1.37021,0.35633 2.82741,0.62413 4.375,0.8125 1.54759,0.18837 3.16958,0.29765 4.78125,0.3125 1.61167,0.0149 3.21881,-0.0545 4.78125,-0.21875 1.56244,-0.16425 3.06884,-0.43234 4.46875,-0.78125 1.39991,-0.34891 2.68843,-0.77337 3.8125,-1.3125 1.12407,-0.53913 2.10882,-1.17132 2.84375,-1.90625 l 10,-10 c 0.42347,-0.42347 0.76779,-1.32558 1.09375,-2.625 0.32596,-1.29942 0.6053,-3.00695 0.84375,-5.0625 0.47689,-4.1111 0.81322,-9.61464 1,-16.03125 0.18678,-6.41661 0.24214,-13.73654 0.21875,-21.5 -0.0234,-7.76346 -0.12762,-15.97335 -0.28125,-24.125 -0.30727,-16.30331 -0.80762,-32.42709 -1.15625,-44.53125 -0.34863,-12.10416 -9.13341,-4.4562 -8.88393,-4.69196 l -15.70982,-7.15179 c -7.48966,3.74483 -15.38902,6.27263 -22.84375,10 -7.57804,3.78902 -13.35184,13.45904 -17.375,24.6875 -2.06145,-1.60632 -3.98956,-3.17706 -5.5,-4.6875 -4.30615,-4.30615 -30.37723,-5.289 -41.71875,-6.3125 z"
       id="path6344"
       transform="translate(0,308.2677)"
       inkscape:connector-curvature="0"
       sodipodi:nodetypes="csssscsccsssssssssssssssssssssccscsc" />
    <path
       style="fill:#ffff00;stroke:#000000;stroke-width:1px;stroke-linecap:butt;stroke-linejoin:miter;stroke-opacity:1;fill-opacity:1"
       d="M 482.5625 174.03125 C 479.1134 174.03031 454.6187 189.47505 450 194.09375 C 439.45555 204.63821 427.60715 213.73995 415.71875 222.65625 C 411.35318 225.93042 403.97159 225.84091 400 229.8125 C 388.23213 241.58036 365.78736 255.96468 351.4375 265.53125 C 344.4558 270.18572 335.22722 272.49435 328.5625 276.9375 C 312.26478 287.80264 296.5812 298.75836 280 309.8125 C 274.33122 313.59169 265.91145 316.77605 261.4375 321.25 C 260.04918 322.63827 255.71875 320.69287 255.71875 322.65625 C 255.71875 324.56101 259.53274 322.65625 261.4375 322.65625 C 267.23333 322.65625 271.85619 324.09375 277.15625 324.09375 C 305.19093 324.09375 346.23715 324.25441 352.84375 329.8125 C 349.01389 380.12976 348.5625 435.34038 348.5625 481.25 C 348.43723 481.36838 348.43335 483.47557 348.5 487.0625 C 337.02367 476.96198 320.68661 469.0616 310 458.375 C 301.46603 449.84102 278.31615 457.81372 267.15625 454.09375 C 264.20086 453.10862 260.77871 452.41732 257.09375 452 C 257.07205 449.20557 256.87516 446.68766 255.71875 445.53125 C 254.08357 443.89608 254.97789 422.58079 252.875 418.375 C 250.38434 413.39369 246.75491 393.72366 244.28125 391.25 C 241.08946 388.05821 233.62999 382.00498 230 378.375 C 227.2312 375.60619 237.6382 370.2236 238.5625 368.375 C 240.37079 364.75842 246.70518 361.66982 250 358.375 C 250.21009 358.16491 254.28125 358.54306 254.28125 358.375 C 254.28125 356.43474 229.71933 356.9375 227.15625 356.9375 C 223.2671 356.9375 208.03341 351.96857 200.71875 351.84375 C 199.03075 351.81495 197.764 352.0485 197.15625 352.65625 C 193.97808 355.83442 192.74793 375.75416 190 381.25 C 188.43417 384.38167 187.87798 393.37203 185.71875 395.53125 C 183.45512 397.79488 179.50056 403.68638 177.15625 408.375 C 176.55391 409.57967 174.28125 409.90313 174.28125 411.25 C 174.28125 416.74443 203.81765 391.6978 207.15625 398.375 C 209.50581 403.07411 216.49182 407.74182 220 411.25 C 224.87481 416.1248 229.0118 426.36736 232.875 434.09375 C 235.00921 438.36218 236.31177 445.13446 237.65625 452.03125 C 223.29169 453.47503 209.14976 457.81899 202.875 464.09375 C 192.6379 474.33085 157.83399 479.83202 148.5625 498.375 C 143.66693 508.16615 141.52123 518.23562 141.53125 528.0625 C 137.56135 549.1321 140.34748 583.74627 138.5625 585.53125 C 133.43504 590.65872 131.16109 601.49516 124.28125 608.375 C 120.89221 611.76404 108.91157 620.16157 102.84375 614.09375 C 101.17709 612.42709 95.947917 614.32292 94.28125 612.65625 C 91.075639 609.45064 89.682521 590.90127 85.71875 586.9375 C 84.843184 586.06193 82.84375 594.07996 82.84375 595.53125 C 82.84375 607.62927 74.091423 645.34143 74.28125 645.53125 C 77.787675 649.03768 86.41282 657.30016 91.4375 659.8125 C 95.052816 661.62016 108.37028 681.44222 110 679.8125 C 111.09614 678.71636 98.721686 645.37207 101.4375 642.65625 C 104.9069 639.18685 117.72157 649.21594 124.28125 642.65625 C 131.21295 635.72455 139.52521 630.28729 147.15625 622.65625 C 150.30344 619.50906 150.29969 615.20031 152.84375 612.65625 C 155.39408 610.10593 155.44627 590.08497 157.15625 588.375 C 158.99007 586.54117 160.28302 582.55894 161.1875 577.9375 C 162.1945 579.07042 163.22126 580.19001 164.28125 581.25 C 168.95833 585.92708 177.39418 584.19709 182.875 586.9375 C 186.03647 588.51823 197.60747 590.29001 201.4375 588.375 C 212.46742 582.86004 225.47377 581.46373 234.28125 572.65625 C 243.75813 563.17937 263.06189 508.60824 262.09375 481.6875 C 262.86501 481.98051 263.58263 482.30694 264.28125 482.65625 C 270.70537 485.86831 280.73794 482.3221 287.15625 485.53125 C 303.42438 493.66532 324.65705 503.03205 337.15625 515.53125 C 341.10024 519.47524 345.50575 527.77423 349.78125 534.09375 C 349.87653 538.07721 349.95463 542.12217 350.03125 546.1875 C 350.18488 554.33915 350.28911 562.54904 350.3125 570.3125 C 350.33589 578.07596 350.28053 585.39589 350.09375 591.8125 C 349.90697 598.22911 349.57064 603.73265 349.09375 607.84375 C 348.8553 609.8993 348.57596 611.60683 348.25 612.90625 C 347.92404 614.20567 347.57972 615.10778 347.15625 615.53125 L 337.15625 625.53125 C 336.42132 626.26618 335.43657 626.89837 334.3125 627.4375 C 333.18843 627.97663 331.89991 628.40109 330.5 628.75 C 329.10009 629.09891 327.59369 629.367 326.03125 629.53125 C 324.46881 629.6955 322.86167 629.76485 321.25 629.75 C 319.63833 629.73515 318.01634 629.62587 316.46875 629.4375 C 314.92116 629.24913 313.46396 628.98133 312.09375 628.625 C 310.72354 628.26867 309.45453 627.83122 308.375 627.3125 C 307.29547 626.79378 306.39429 626.2068 305.71875 625.53125 C 303.80629 623.61879 301.6851 621.4976 299.46875 618.96875 C 297.2524 616.4399 294.92773 613.49023 292.5625 609.875 C 291.37988 608.06738 290.19078 606.10484 289 603.9375 C 287.80922 601.77016 286.61706 599.39831 285.4375 596.8125 C 284.25794 594.22669 283.08648 591.40679 281.9375 588.34375 C 280.93956 585.68336 279.96121 582.74931 279 579.6875 C 283.56214 604.18137 297.5198 635.71302 325.71875 649.8125 C 331.6335 652.76987 340.76577 652.49613 347.15625 654.09375 C 359.14948 657.09206 375.47646 661.64651 388.5625 658.375 C 408.19959 653.46573 429.35386 651.95215 448.5625 645.53125 C 456.21231 642.97414 463.74015 639.07066 470.9375 634.625 C 472.20354 635.03272 473.38531 634.9897 474.28125 634.09375 C 482.3743 626.00071 498.2153 617.8611 511.4375 611.25 C 515.96823 608.98464 522.73232 608.51768 525.71875 605.53125 C 527.56391 603.68609 534.54636 603.96119 537.15625 602.65625 C 553.28598 594.59138 590.56372 610.37621 600 619.8125 C 605.03087 624.84337 647.00009 622.71872 655.71875 619.8125 C 664.5737 616.86085 671.60959 609.72646 680 605.53125 C 718.02923 586.51664 742.20619 550.8001 765.71875 515.53125 C 773.99279 503.12019 789.01728 496.05919 795.71875 482.65625 C 797.91757 478.25861 814.33409 445.47841 815.71875 444.09375 C 829.61501 430.19749 819.04708 436.15111 838.5625 442.65625 C 844.22829 444.54485 852.89327 451.25 855.71875 451.25 C 855.90754 451.25 856.10855 451.31624 856.3125 451.40625 C 856.39429 450.12316 857.15625 448.1388 857.15625 446.9375 C 857.15625 443.23468 854.28125 439.46119 854.28125 435.53125 C 854.28125 428.63877 835.71875 401.36903 835.71875 386.9375 C 835.71875 385.60156 835.31697 376.56697 834.28125 375.53125 C 833.52091 374.77091 827.38609 379.69757 827.15625 379.8125 C 823.27607 381.75259 817.98179 386.11195 815.71875 388.375 C 812.87524 391.2185 780.49151 407.42612 775.71875 409.8125 C 757.67235 418.8357 797.15625 417.11344 797.15625 421.25 C 797.15625 425.95207 777.25905 459.67846 772.84375 464.09375 C 760.57477 476.36274 758.21698 494.47052 747.15625 505.53125 C 739.47718 513.21032 733.5977 526.2148 725.71875 534.09375 C 704.8032 555.0093 681.21315 575.6278 652.84375 589.8125 C 646.11715 593.1758 635.39274 605.36824 624.28125 599.8125 C 608.46961 591.90668 606.46329 591.99454 595.71875 581.25 C 594.9871 580.51836 570.46846 570.75028 568.5625 572.65625 C 567.37202 573.84672 542.62798 568.62202 541.4375 569.8125 C 537.0225 574.2275 532.41307 576.52556 528.03125 577.4375 C 530.82776 569.76575 533.11178 561.51465 534.28125 554.09375 C 538.52606 527.15805 538.27257 505.31595 545.71875 475.53125 C 548.15731 465.77701 546.84889 454.98458 550 445.53125 C 552.28571 438.67411 547.71429 429.51339 550 422.65625 C 553.61974 411.79704 556.66356 378.39692 552.84375 366.9375 C 549.69856 357.50192 554.28125 344.53584 554.28125 335.53125 C 554.28125 326.61856 551.97684 317.98902 551.53125 317 C 553.09581 317.40903 574.67654 315.53125 577.15625 315.53125 C 595.12481 315.53125 612.42985 318.375 630 318.375 C 636.33561 318.375 647.47644 319.97259 652.84375 322.65625 C 655.94884 324.20879 659.81636 324.01756 662.84375 325.53125 C 663.79613 326.00744 665.71875 328.00229 665.71875 326.9375 C 665.71875 324.99187 655.95055 321.36589 652.84375 319.8125 C 643.8282 315.30472 641.5124 305.58432 632.84375 301.25 C 618.94805 294.30215 606.03449 280.04382 592.84375 271.25 C 552.60285 244.42273 525.64888 195.49632 482.84375 174.09375 C 482.77769 174.06072 482.67376 174.03128 482.5625 174.03125 z M 856.3125 451.40625 C 856.2646 452.15761 856.45279 452.65625 857.15625 452.65625 C 857.91984 452.65625 857.13745 451.77033 856.3125 451.40625 z M 243.8125 479.28125 C 243.46681 485.9287 241.47986 493.97778 240 496.9375 C 238.24434 500.44882 240.34331 506.25088 238.5625 509.8125 C 234.54295 517.85161 231.29701 525.81223 227.15625 534.09375 C 224.99592 538.41441 218.52423 541.28828 215.71875 544.09375 C 199.40328 560.40922 180.11417 558.48917 164.28125 542.65625 C 158.41832 536.79332 181.51677 501.13948 184.28125 498.375 C 189.952 492.70425 202.18 489.44126 210 485.53125 C 213.15681 483.95285 218.30878 485.65811 221.4375 484.09375 C 226.98059 481.32221 235.41891 479.55405 243.8125 479.28125 z "
       transform="translate(0,308.2677)"
       id="path6393" />
    <path
       style="fill:#acac0a;stroke:#000000;stroke-width:1px;stroke-linecap:butt;stroke-linejoin:miter;stroke-opacity:1;fill-opacity:1"
       d="M 135.28125 445.34375 C 129.70163 445.3924 125.41338 445.80537 124.28125 446.9375 C 118.25092 452.96783 107.82775 457.67226 102.84375 462.65625 C 90.653879 474.84612 83.885141 497.33361 72.84375 508.375 C 71.250839 509.96791 72.448086 514.91632 71.4375 516.9375 C 67.917388 523.97772 52.84375 515.64621 52.84375 518.375 C 52.84375 520.15782 57.316985 527.32147 58.5625 529.8125 C 61.926184 536.53987 72.84375 559.22016 72.84375 565.53125 C 72.84375 569.66059 74.038713 572.17118 75.71875 575.53125 C 75.920554 575.93486 75.564121 581.25 75.71875 581.25 C 78.628558 581.25 96.079572 562.29543 98.5625 559.8125 C 102.72718 555.64782 109.80169 549.97955 112.84375 546.9375 C 114.03423 545.74702 117.37202 546.72173 118.5625 545.53125 C 119.403 544.69075 99.573308 536.51081 97.15625 534.09375 C 92.536449 529.47395 103.65679 506.15571 107.15625 502.65625 C 132.84528 476.96722 149.48736 479.55618 181.4375 495.53125 C 199.66347 504.64424 204.19995 536.88745 212.84375 545.53125 C 213.03542 545.72292 213.21566 545.84674 213.40625 546.03125 C 214.17018 545.35636 214.96682 544.84568 215.71875 544.09375 C 217.12149 542.69101 219.44885 541.26548 221.6875 539.65625 C 222.80682 538.85163 223.8894 538.0146 224.84375 537.09375 C 225.7981 536.1729 226.61617 535.17391 227.15625 534.09375 C 230.66905 527.06814 233.60028 520.30755 236.84375 513.5 C 233.94762 513.23864 231.76108 512.97983 231.4375 512.65625 C 211.84256 493.06131 212.92615 446.9375 171.4375 446.9375 C 166.14179 446.9375 147.55641 445.23673 135.28125 445.34375 z "
       id="path5786"
       transform="translate(0,308.2677)" />
    <path
       style="fill:#acac0a;fill-opacity:1;stroke:#000000;stroke-width:1px;stroke-linecap:butt;stroke-linejoin:miter;stroke-opacity:1"
       d="M 561.4375 404.09375 C 561.36583 404.02208 524.09218 419.20391 520 421.25 C 516.90271 422.79864 484.28125 425.77636 484.28125 426.9375 C 484.28125 428.10766 509.75908 447.20967 507.15625 449.8125 C 489.4748 467.49395 474.874 480.06449 461.4375 506.9375 C 457.04327 515.72596 457.03742 525.70641 452.84375 534.09375 C 450.77897 538.22331 454.3134 545.40356 452.84375 549.8125 C 447.84512 564.80839 455.24032 575.98064 461.4375 588.375 C 479.70468 624.90937 544.75395 649.59177 581.4375 631.25 C 610.76347 616.58701 616.19683 566.51867 602.84375 539.8125 C 600.95911 536.04322 601.59702 528.56577 598.5625 525.53125 C 594.46646 521.4352 588.7835 512.78238 582.84375 509.8125 C 576.57275 506.677 569.66926 504.77699 564.375 503.1875 C 556.4805 509.48205 550.49067 516.21118 544.21875 525.5625 C 545.06786 524.92596 545.91192 523.47158 547.15625 524.09375 C 553.27253 527.15189 561.35853 529.06988 565.71875 531.25 C 575.8995 536.34037 575.9266 560.02035 580 564.09375 C 580.71282 564.80657 580 570.13141 580 571.25 C 580 588.84333 570.49094 601.70766 557.15625 608.375 C 555.65509 609.12558 549.82261 608.5524 548.5625 609.8125 C 547.12806 611.24708 534.96266 613.01258 531.4375 611.25 C 527.9232 609.49285 523.44865 610.09933 520 608.375 C 512.45873 604.60437 498.68073 595.64948 492.84375 589.8125 C 488.84036 585.80912 486.01624 570.10999 484.28125 568.375 C 482.13839 566.23215 483.58035 560.51786 481.4375 558.375 C 469.24453 546.18204 506.12649 496.15327 511.4375 485.53125 C 514.13893 480.12839 515.43015 471.50735 520 466.9375 C 522.30655 464.63095 556.40262 487.69114 558.5625 485.53125 C 561.75077 482.34299 558.5625 459.10386 558.5625 454.09375 C 558.5625 449.61967 562.64665 405.3029 561.4375 404.09375 z "
       transform="translate(0,308.2677)"
       id="path6438" />
  </g>
</svg>
