<?xml version="1.0" encoding="UTF-8" standalone="no"?>
<!-- Created with Inkscape (http://www.inkscape.org/) -->

<svg
   xmlns:dc="http://purl.org/dc/elements/1.1/"
   xmlns:cc="http://creativecommons.org/ns#"
   xmlns:rdf="http://www.w3.org/1999/02/22-rdf-syntax-ns#"
   xmlns:svg="http://www.w3.org/2000/svg"
   xmlns="http://www.w3.org/2000/svg"
   xmlns:sodipodi="http://sodipodi.sourceforge.net/DTD/sodipodi-0.dtd"
   xmlns:inkscape="http://www.inkscape.org/namespaces/inkscape"
   width="1052.3622"
   height="744.09448"
   id="svg5625"
   version="1.1"
   inkscape:version="0.48.1 r9760"
   sodipodi:docname="why_not.svg"
   inkscape:export-filename="/home/substack/media/vector/do_not_write_big_apps/why_not_2.png"
   inkscape:export-xdpi="87.569527"
   inkscape:export-ydpi="87.569527">
  <defs
     id="defs5627" />
  <sodipodi:namedview
     id="base"
     pagecolor="#b6dde5"
     bordercolor="#666666"
     borderopacity="1.0"
     inkscape:pageopacity="0.98431373"
     inkscape:pageshadow="2"
     inkscape:zoom="0.35"
     inkscape:cx="408.75134"
     inkscape:cy="257.45844"
     inkscape:document-units="px"
     inkscape:current-layer="layer1"
     showgrid="false"
     inkscape:window-width="1364"
     inkscape:window-height="766"
     inkscape:window-x="0"
     inkscape:window-y="0"
     inkscape:window-maximized="0" />
  <metadata
     id="metadata5630">
    <rdf:RDF>
      <cc:Work
         rdf:about="">
        <dc:format>image/svg+xml</dc:format>
        <dc:type
           rdf:resource="http://purl.org/dc/dcmitype/StillImage" />
        <dc:title></dc:title>
      </cc:Work>
    </rdf:RDF>
  </metadata>
  <g
     inkscape:label="Layer 1"
     inkscape:groupmode="layer"
     id="layer1"
     transform="translate(0,-308.2677)">
    <path
       style="fill:#c8b7b7;fill-opacity:1;stroke:#000000;stroke-width:2;stroke-linecap:round;stroke-linejoin:round;stroke-miterlimit:4;stroke-opacity:1;stroke-dasharray:none"
       d="m 521.74635,678.07347 c 2.44422,-1.97448 2.96363,-0.47166 10.10152,-4.04061 3.5781,-1.78904 6.91713,-5.90697 9.09137,-8.08122 3.11505,-3.11504 10.38153,-5.33076 13.13199,-8.08122 2.36668,-2.36668 -1.55787,-8.62893 -2.02031,-9.09137 -1.63905,-1.63905 -1.21964,-8.29071 -3.03046,-10.10152 -7.06298,-7.06299 -13.43757,-10.25432 -23.2335,-15.15229 -2.91538,-1.45769 -11.0488,-3.09334 -13.13199,-1.01016 -6.25396,6.25397 6.75639,16.85792 9.09138,19.1929 4.90328,4.90328 -11.11168,16.76875 -11.11168,20.20305"
       id="path6694"
       inkscape:connector-curvature="0" />
    <path
       style="fill:#c8b7b7;fill-opacity:1;stroke:#000000;stroke-width:2;stroke-linecap:round;stroke-linejoin:round;stroke-miterlimit:4;stroke-opacity:1;stroke-dasharray:none"
       d="m 542.08053,626.85568 c -2.73639,0.0174 -5.26546,0.79671 -7.1875,2.71875 -2.18712,2.18713 3.64252,7.48248 1,10.125 -2.599,2.599 -7.11019,8.1102 -11.125,12.125 -1.27409,1.27409 -20.23715,-1.74439 -33.53125,-0.96875 -0.001,-9.78416 -1.55698,-19.99448 -4.84375,-23.28125 -2.95285,-2.95285 -9.08313,5.05188 -10.09375,6.0625 -1.68358,1.68359 -0.34766,6.37891 -2.03125,8.0625 -5.28672,5.28672 -7.63017,15.18448 -10.1875,25 -15.0625,19.08636 -11.69655,45.40905 9.1875,51.78125 15.79489,-3.15898 11.05987,-7.02862 19.1875,-15.15625 0.87339,-0.87339 1.90217,-1.73965 3,-2.59375 0.008,-0.13983 0.0312,-0.32281 0.0312,-0.4375 0,-11.95388 6.65565,-6.65566 10.09375,-10.09375 2.0203,-2.02031 6.07344,-2.01095 8.09375,-4.03125 4.07889,-4.07889 10.07776,-6.05287 16.71875,-6.25 0.29934,-7.45147 2.08717,-18.64967 3.46875,-20.03125 4.10123,-4.10123 11.05503,-1.96127 15.15625,-6.0625 2.32882,-2.32882 3.40079,-6.43204 6.0625,-9.09375 1.01015,-1.01015 -1.01015,-5.05235 0,-6.0625 1.08555,-1.08555 0.35528,-4.46549 -0.8125,-7.6875 -3.5184,-2.40966 -8.07157,-4.1512 -12.1875,-4.125 z"
       id="path6696"
       inkscape:connector-curvature="0" />
    <path
       style="fill:#c8b7b7;fill-opacity:1;stroke:#000000;stroke-width:2;stroke-linecap:round;stroke-linejoin:round;stroke-miterlimit:4;stroke-opacity:1;stroke-dasharray:none"
       d="m 509.22171,688.19973 c -0.9563,-0.13305 3.38916,-0.76926 12.16305,-0.13887 8.04182,0.57779 30.05306,0.43231 33.61129,-2.6489 5.29896,-4.58857 -2.64282,-42.41252 -10.3474,-39.22818 -14.75765,6.09942 -7.04731,18.38585 -12.82046,23.38504 -1.06311,0.92058 -4.52098,-1.06438 -8.13283,0.42843 -2.02269,0.83598 -3.82473,1.75072 -6.19012,1.58077"
       id="path6698"
       inkscape:connector-curvature="0" />
    <path
       style="fill:#c8b7b7;fill-opacity:1;stroke:#000000;stroke-width:2;stroke-linecap:round;stroke-linejoin:round;stroke-miterlimit:4;stroke-opacity:1;stroke-dasharray:none"
       d="m 105.8825,849.86909 c -6.512759,-6.51359 -12.745349,-10.23602 -38.57143,-2.85714 -49.02279,14.00651 -81.59459,48.13897 -90,98.57142 -1.39698,8.38192 -6.36408,21.68648 -4.28571,29.99998 2.0457,8.1828 5.11413,16.1708 7.14286,24.28569 1.92545,7.70176 5.0455,19.10826 10,25.71426 19.1863604,25.5818 38.61383,41.933 65.71428,60 2.02023,1.3468 3.46665,4.9651 5.71429,5.7143 7.25406,2.418 16.2275,3.828 22.857141,7.1428 1.67301,0.8365 21.815499,1.4286 15.714289,1.4286 -0.952379,0 0.67343,-2.1837 0,-2.8571 -9.030649,-9.0307 6.43434,-42.1371 4.28571,-44.2858 -0.48282,-0.4828 -10.433109,2.6406 -12.857139,1.4286 -8.02999,-4.015 -17.356281,-5.8565 -25.714291,-11.4286 -6.3729,-4.2486 -16.35889,-7.7874 -21.42857,-12.8571 -5.21583,-5.2158 -11.01154,-14.8802 -14.28571,-21.4286 -2.15885,-4.3177 -6.43518,-7.156 -8.57143,-11.42846 -10.33749,-20.67499 -12.5766296,-42.27012 -4.28572,-67.14285 5.02101,-15.06302 17.7423,-39.58544 32.85715,-47.14286 5.14531,-2.57265 10.79693,-3.25561 15.71428,-5.71428 8.5722,-4.2861 26.667541,10.47531 27.142861,10 4.34262,-4.34263 11.279579,-29.25505 12.857139,-37.14286 z"
       id="path6559"
       inkscape:connector-curvature="0" />
    <path
       style="fill:#c8b7b7;fill-opacity:1;stroke:#000000;stroke-width:2;stroke-linecap:round;stroke-linejoin:round;stroke-miterlimit:4;stroke-opacity:1;stroke-dasharray:none"
       d="m 128.73965,837.01194 c 34.40676,-28.24914 80.70767,-25.71428 122.85714,-25.71428 30.14741,0 89.72266,15.15959 102.85714,41.42857 6.15821,12.3164 -13.30399,59.82398 -15.71428,74.28571 -4.02566,24.15396 -21.66056,100.23186 -37.14286,115.71416 -2.85074,2.8508 -5.83826,24.4097 -11.42857,30 -4.17138,4.1714 -7.73376,32.0195 -10,34.2857 -1.08594,1.086 -5.64415,0.6792 -7.14286,1.4286 -25.4629,12.7315 -54.73095,20 -85.71428,20 -10.90543,0 -23.15325,5.0836 -34.28572,2.8571 -13.39543,-2.679 -56.135189,-15.1275 -62.857139,-28.5714 -2.20622,-4.4124 -4.44276,-8.7285 -7.14286,-11.4286 -0.43125,-0.4312 2.24413,-13.0596 2.85715,-14.2857 1.12765,-2.2553 -0.27504,-73.9572 -1.42858,-78.57136 -3.849401,-15.39759 0.72409,-102.87666 7.14286,-115.71421 3.20538,-6.41077 0.18422,-31.6128 4.28572,-35.71429 3.93259,-3.93259 18.160609,-6.73204 19.999999,-8.57143 0.34712,-0.34712 4.40587,-4.50378 5.71428,-4.28571 2.52947,0.42158 4.76191,1.90476 7.14286,2.85714 z"
       id="path6462"
       inkscape:connector-curvature="0" />
    <path
       style="fill:#c8b7b7;stroke:#000000;stroke-width:2;stroke-linecap:round;stroke-linejoin:round;stroke-miterlimit:4;stroke-opacity:1;stroke-dasharray:none"
       d="m 288.45553,498.10568 c -25.81412,0.25657 -55.0439,7.45945 -70.75,15.3125 -6.30616,3.15308 -27.17855,8.29463 -34.375,10.09375 -11.4647,2.86617 -21.18413,12.12332 -31.3125,17.1875 -4.63809,2.31905 -8.2544,8.47022 -13.125,10.09375 -9.47514,3.15838 -25.2218,15.51703 -33.90625,25.03125 0.17144,0.40538 0.35841,0.81057 0.5625,1.21875 2.36664,4.73329 -1.39248,12.34004 1.03125,17.1875 1.38506,2.77013 -2.10535,11.01965 0,13.125 1.4767,1.4767 -0.0863,2.88983 1,5.0625 2.74197,5.48393 3.43354,10.45396 4.53125,13.8125 0.006,0.0182 -0.006,0.0444 0,0.0625 1.95707,17.89875 6.5,38.78125 6.5,38.78125 -1.71348,5.72566 5.14588,46.51797 7.8125,68.65625 1.30718,10.85226 10.55863,19.70859 13.03125,28.9375 7.64853,28.54775 13.24226,54.83631 25.75,73.78125 6.63875,10.05543 98.32661,25.26161 112.25,21.53125 7.28034,-1.95054 27.22888,-38.39096 31.59375,-47.5 4.65437,-9.71318 5.18439,-21.69308 9.375,-31.625 10.95589,-25.96591 22.25709,-52.97546 36.21875,-77.15625 4.46146,-7.72701 3.22701,-19.58404 7.125,-27.71875 7.90562,-16.49821 14.45449,-42.37346 12.3125,-60.15625 -1.03824,-8.61949 3.00252,-18.4344 2.625,-27.1875 -0.44169,-10.24083 -1.31906,-19.90647 -2.75,-29.15625 -3.3642,-3.38154 -6.70236,-6.63986 -9.78125,-9.71875 -13.22036,-13.22036 -22.54161,-34.50518 -40.40625,-43.4375 -9.19049,-4.59524 -21.79082,-6.35314 -35.3125,-6.21875 z"
       id="path5699"
       inkscape:connector-curvature="0" />
    <path
       style="fill:#f4d7d7;stroke:#000000;stroke-width:2;stroke-linecap:round;stroke-linejoin:round;stroke-miterlimit:4;stroke-opacity:1;stroke-dasharray:none"
       d="m 131.41145,657.56692 c 7.16452,-2.52386 18.92465,-9.25048 24.97092,-8.01303 4.77422,0.97711 24.2291,-7.30321 28.02383,-1.55548 33.76083,51.13607 -53.40093,100.24399 -52.99475,9.56851 z"
       id="path5672"
       inkscape:connector-curvature="0" />
    <path
       style="fill:#f4d7d7;fill-opacity:1;stroke:#000000;stroke-width:2;stroke-linecap:round;stroke-linejoin:round;stroke-miterlimit:4;stroke-opacity:1;stroke-dasharray:none"
       d="m 283.41946,594.62622 c -0.8029,-0.0983 -1.55774,-0.0746 -2.25586,0.11247 -1.6302,0.43676 -6.30675,1.87539 -11.32206,3.26491 -9.31945,6.31491 -18.17372,12.5811 -21.56584,14.82062 -5.9425,3.92334 -12.24805,7.11031 -18.20592,10.40464 -6.11986,6.44174 -14.27567,13.02085 -15.24185,17.7417 -0.39594,1.93459 -0.72738,3.87745 -1.10493,5.86633 -0.002,0.0104 -0.004,0.0202 -0.006,0.0306 2.25375,14.99179 1.40604,38.54589 4.24524,42.84631 2.84454,4.30849 3.64288,12.85709 6.64521,17.4046 2.56978,3.89234 9.58284,5.33047 11.46689,8.18414 3.36489,5.09664 31.46122,-2.30104 33.89361,-1.80322 2.35308,0.48159 3.56912,-2.35638 5.05273,-3.33589 4.96296,-3.27662 8.36499,-4.45461 12.09022,-9.20016 9.95773,-12.68514 16.8545,-77.82143 13.01944,-92.13558 -0.24613,-0.91869 -0.36622,-1.85796 -0.41648,-2.79655 -5.73532,-5.9995 -11.75959,-10.85001 -16.29413,-11.40494 z"
       id="path5714"
       inkscape:connector-curvature="0" />
    <path
       style="fill:#782121;stroke:#000000;stroke-width:2;stroke-linecap:round;stroke-linejoin:round;stroke-miterlimit:4;stroke-opacity:1;stroke-dasharray:none"
       d="m 165.82759,667.52699 c -18.15529,-3.81483 14.91879,-0.6269 -6.99781,-1.43219 -4.71118,-0.1731 -12.17438,16.46475 1.87455,19.34004 19.4929,3.98948 25.32276,-27.45752 5.12326,-17.90785 z"
       id="path5678"
       inkscape:connector-curvature="0" />
    <path
       style="fill:#6c5353;stroke:#000000;stroke-width:2;stroke-linecap:round;stroke-linejoin:round;stroke-miterlimit:4;stroke-opacity:1;stroke-dasharray:none"
       d="m 141.94154,640.6462 c 5.83778,-0.7288 16.48094,-0.0415 20.36572,-1.89868 3.34577,-1.59951 7.34548,-3.49238 10.46068,-3.88128 4.8099,-0.60048 24.28488,-10.50751 16.96007,-13.70641 -9.90573,-4.32603 -46.60244,3.06824 -59.83003,10.68856 -23.47104,13.5908 2.05707,8.80368 12.04356,8.79781 z"
       id="path5693"
       inkscape:connector-curvature="0"
       sodipodi:nodetypes="cssscc" />
    <path
       style="fill:#6c5353;stroke:#000000;stroke-width:2;stroke-linecap:round;stroke-linejoin:round;stroke-miterlimit:4;stroke-opacity:1;stroke-dasharray:none"
       d="m 205.58225,622.73749 c 15.59628,-3.43158 22.62435,-7.67425 35.37334,-16.09133 4.67404,-3.08588 18.36007,-14.17876 23.60398,-15.58371 6.49267,-1.73952 37.93445,-30.149 24.24212,-32.95132 -2.02682,-0.41481 -6.44197,-2.24251 -8.39737,-1.71863 -8.36405,2.2409 -18.28625,3.61936 -25.54378,10.81216 -6.44517,6.38769 -42.06774,41.6759 -42.21523,42.39654 -0.45782,2.23699 -8.71912,6.90277 -8.71643,6.96518 0.0918,2.1276 1.10224,4.11407 1.65337,6.17111 z"
       id="path5695"
       inkscape:connector-curvature="0" />
    <path
       style="fill:#782121;fill-opacity:1;stroke:#000000;stroke-width:2;stroke-linecap:round;stroke-linejoin:round;stroke-miterlimit:4;stroke-opacity:1;stroke-dasharray:none"
       d="m 250.31745,659.89105 c -20.29206,7.66914 15.87551,-6.88848 -7.57068,1.36692 -0.87414,0.30779 -4.12288,5.89515 -4.51775,7.82449 -0.29324,1.43282 -4.56614,5.91778 -3.11818,8.11093 2.2349,3.38512 14.66236,16.57533 21.78745,14.66637 17.50968,-4.6912 22.58343,-37.23449 -6.58084,-31.96871 z"
       id="path5751"
       inkscape:connector-curvature="0" />
    <path
       style="fill:none;stroke:#000000;stroke-width:2;stroke-linecap:round;stroke-linejoin:round;stroke-miterlimit:4;stroke-opacity:1;stroke-dasharray:none"
       d="m 105.8825,854.1548 c 25.44162,11.44846 50.15122,13.64704 74.28572,25.71429 3.04762,1.52381 8.38095,-1.52381 11.42857,0 7.85783,3.92891 36.43176,3.92697 44.28571,0 8.08902,-4.04451 21.84444,2.64921 30,-1.42857 6.34905,-3.17453 15.20389,-1.17337 21.42857,-4.28572 19.84002,-9.92 43.88173,-11.02458 55.71429,-22.85714"
       id="path6464"
       inkscape:connector-curvature="0" />
    <path
       style="fill:#c8b7b7;fill-opacity:1;stroke:#000000;stroke-width:2;stroke-linecap:round;stroke-linejoin:round;stroke-miterlimit:4;stroke-opacity:1;stroke-dasharray:none"
       d="m 490.57,690.06478 c -5.16106,2.30841 -10.68877,4.37627 -14.6875,8.375 -5.01761,5.01762 -9.54154,12.06555 -11.875,20.0625 0.73174,0.87162 1.38119,1.79363 1.875,2.78125 7.11089,14.22179 17.0801,26.79311 20,44.3125 4.51687,27.1012 -1.94828,54.17423 -15.71875,77.125 -4.69131,7.81885 -8.05952,18.53683 -15.71875,24.28125 -23.80056,17.85042 -52.29833,18.36292 -80,11.4375 -7.6492,-1.9123 -21.36905,-14.28244 -28.5625,-12.84375 -2.08823,0.41764 -3.81398,1.89137 -5.71875,2.84375 -12.63636,11.08412 -16.4698,38.43145 4.28125,34.28125 2.65969,2.65969 23.93951,5.37701 30,11.4375 1.91219,1.91218 14.04643,1.28884 17.15625,2.84375 8.30887,4.15444 21.59207,2.875 31.4375,2.875 46.67603,0 70.98519,-31.54933 84.28125,-71.4375 1.88752,-5.66256 5.86127,-11.75379 8.5625,-17.15625 0.76191,-1.52381 -0.7619,-4.16369 0,-5.6875 6.91223,-13.82446 5.71875,-30.44933 5.71875,-47.15625 0,-13.69523 2.91616,-32.69895 -2.875,-44.28125 -6.04151,-12.08304 -0.71533,-27.87158 -8.5625,-35.71875 -5.85713,-5.85713 -12.61929,-8.36942 -19.59375,-8.375 z"
       id="path6492"
       inkscape:connector-curvature="0" />
    <path
       style="fill:#988484;fill-opacity:1;stroke:#000000;stroke-width:2;stroke-linecap:round;stroke-linejoin:round;stroke-miterlimit:4;stroke-opacity:1;stroke-dasharray:none"
       d="m 216.68028,772.01766 c -9.45806,-1.5469 -23.49686,5.44578 -29.29443,14.14214 -7.43732,11.15597 9.65572,20.09159 18.18275,22.22335 3.55909,0.88977 8.81635,-1.92863 12.12183,-3.03046 22.919,-7.63967 25.06334,-43.76443 -1.01015,-33.33503 z"
       id="path6588"
       inkscape:connector-curvature="0" />
    <path
       style="fill:none;stroke:#000000;stroke-width:2;stroke-linecap:round;stroke-linejoin:round;stroke-miterlimit:4;stroke-opacity:1;stroke-dasharray:none"
       d="m 314.66507,517.45922 c 2.7713,24.87732 -1.01015,49.5427 -1.01015,74.75129 0,11.3652 1.69913,24.5182 -1.01015,35.35534 -2.31348,9.25391 0.0247,19.1188 -3.03046,28.28427 -1.21218,3.63655 1.21218,8.48528 0,12.12183 -3.14247,9.42743 -1.57791,20.45379 -4.04061,30.30458 -2.45512,9.82048 -6.76103,18.96291 -9.09137,28.28427 -2.96208,11.8483 -5.31797,24.03512 -9.09137,35.35534 -2.04931,6.14793 -4.10716,11.3113 -6.06092,17.17259 -1.55934,4.67801 -0.81281,10.71699 -3.03046,15.15229 -3.2649,6.5298 -6.68451,11.97231 -9.09137,19.1929 -1.76766,5.30297 1.46538,13.23168 -1.01015,18.18274 -2.48608,4.97215 -4.04061,12.25275 -4.04061,18.18275"
       id="path6622"
       inkscape:connector-curvature="0" />
    <path
       style="fill:none;stroke:#000000;stroke-width:2;stroke-linecap:round;stroke-linejoin:round;stroke-miterlimit:4;stroke-opacity:1;stroke-dasharray:none"
       d="m 505.58391,667.97195 c -11.47217,-0.44446 -22.25929,-2.99453 -37.37565,12.12183"
       id="path6718"
       inkscape:connector-curvature="0" />
    <path
       style="fill:none;stroke:#000000;stroke-width:2;stroke-linecap:round;stroke-linejoin:round;stroke-miterlimit:4;stroke-opacity:1;stroke-dasharray:none"
       d="m 486.39101,669.99225 c 0.44012,-3.67264 4.04061,-3.72253 4.04061,-13.13198"
       id="path6720"
       inkscape:connector-curvature="0" />
    <path
       style="fill:none;stroke:#000000;stroke-width:2;stroke-linecap:round;stroke-linejoin:round;stroke-miterlimit:4;stroke-opacity:1;stroke-dasharray:none"
       d="m 478.30979,744.74354 c 0.67343,-1.34687 0.67343,-4.71404 2.0203,-4.04061 1.34687,0.67344 -3.36717,4.71405 -2.0203,4.04061 2.3522,-1.1761 2.69855,-4.88481 5.05076,-6.06091 2.83256,-1.41628 19.88423,-9.4102 23.23351,-6.06092 3.27963,3.27964 7.20237,5.18207 10.10152,8.08122 1.83405,1.83405 5.05077,2.01956 5.05077,6.06092"
       id="path6722"
       inkscape:connector-curvature="0" />
    <path
       style="fill:none;stroke:#000000;stroke-width:2;stroke-linecap:round;stroke-linejoin:round;stroke-miterlimit:4;stroke-opacity:1;stroke-dasharray:none"
       d="m 485.38085,785.14964 c 6.73609,-7.15519 38.3858,-6.99469 38.3858,3.03046"
       id="path6724"
       inkscape:connector-curvature="0" />
    <path
       style="fill:none;stroke:#000000;stroke-width:2;stroke-linecap:round;stroke-linejoin:round;stroke-miterlimit:4;stroke-opacity:1;stroke-dasharray:none"
       d="m 478.30979,819.49483 c 10.21666,-7.14783 34.30197,15.1955 29.29442,20.20305"
       id="path6726"
       inkscape:connector-curvature="0" />
    <path
       style="fill:none;stroke:#000000;stroke-width:2;stroke-linecap:round;stroke-linejoin:round;stroke-miterlimit:4;stroke-opacity:1;stroke-dasharray:none"
       d="m 465.1778,850.80956 c 16.16133,-6.5286 38.72294,25.08524 22.22336,33.33503"
       id="path6741"
       inkscape:connector-curvature="0" />
    <path
       style="fill:none;stroke:#000000;stroke-width:2;stroke-linecap:round;stroke-linejoin:round;stroke-miterlimit:4;stroke-opacity:1;stroke-dasharray:none"
       d="m 442.95445,875.05322 c 5.15738,0.69225 5.74309,3.08714 7.07107,7.07107 0.82261,2.46783 3.16243,4.43655 4.04061,7.07107 3.39359,10.18077 -4.62867,20.36901 -8.08122,27.27412"
       id="path6743"
       inkscape:connector-curvature="0" />
    <path
       style="fill:none;stroke:#000000;stroke-width:2;stroke-linecap:round;stroke-linejoin:round;stroke-miterlimit:4;stroke-opacity:1;stroke-dasharray:none"
       d="m 411.53819,882.71602 c -0.67343,1.34687 -0.67343,4.71405 -2.0203,4.04061 -1.34687,-0.67343 3.0851,-5.1054 2.0203,-4.04061 -4.63184,4.63185 -3.03045,13.16932 -3.03045,19.1929 0,4.67332 -5.65361,13.5393 -3.03046,16.16244"
       id="path6745"
       inkscape:connector-curvature="0" />
    <path
       style="fill:none;stroke:#000000;stroke-width:2;stroke-linecap:round;stroke-linejoin:round;stroke-miterlimit:4;stroke-opacity:1;stroke-dasharray:none"
       d="m 368.20316,879.09383 c -12.66379,6.72585 -13.22288,27.18322 -5.05076,35.35534"
       id="path6747"
       inkscape:connector-curvature="0" />
    <path
       style="fill:none;stroke:#000000;stroke-width:2;stroke-linecap:round;stroke-linejoin:round;stroke-miterlimit:4;stroke-opacity:1;stroke-dasharray:none"
       d="m 60.10663,846.76895 c -6.63923,12.64249 -4.77234,27.55254 3.03046,35.35534"
       id="path6762"
       inkscape:connector-curvature="0" />
    <path
       style="fill:none;stroke:#000000;stroke-width:2;stroke-linecap:round;stroke-linejoin:round;stroke-miterlimit:4;stroke-opacity:1;stroke-dasharray:none"
       d="m 25.76145,864.9517 c -8.2011,15.2138 0.75726,32.19844 13.13198,38.38579"
       id="path6764"
       inkscape:connector-curvature="0" />
    <path
       style="fill:none;stroke:#000000;stroke-width:2;stroke-linecap:round;stroke-linejoin:round;stroke-miterlimit:4;stroke-opacity:1;stroke-dasharray:none"
       d="m -12.62435,911.41871 c 2.72077,10.28523 9.5358304,21.43544 19.1929004,26.26397 4.5316296,2.26582 8.8624896,-1.62967 12.1218296,0"
       id="path6766"
       inkscape:connector-curvature="0" />
    <path
       style="fill:none;stroke:#000000;stroke-width:2;stroke-linecap:round;stroke-linejoin:round;stroke-miterlimit:4;stroke-opacity:1;stroke-dasharray:none"
       d="m -28.78679,968.99745 c 10.5822,15.2221 30.6836604,15.4677 43.43656,9.0913"
       id="path6768"
       inkscape:connector-curvature="0" />
    <path
       style="fill:none;stroke:#000000;stroke-width:2;stroke-linecap:round;stroke-linejoin:round;stroke-miterlimit:4;stroke-opacity:1;stroke-dasharray:none"
       d="m -3.5329796,1034.6572 c 11.85415,-2.5345 22.0850296,-7.0019 32.3248796,-12.1218 2.94051,-1.4702 3.43697,-5.4573 5.05077,-7.0711"
       id="path6770"
       inkscape:connector-curvature="0" />
    <path
       style="fill:none;stroke:#000000;stroke-width:2;stroke-linecap:round;stroke-linejoin:round;stroke-miterlimit:4;stroke-opacity:1;stroke-dasharray:none"
       d="m 35.86297,1071.0227 c 14.34524,-0.3698 28.28427,-15.9036 28.28427,-29.2944"
       id="path6772"
       inkscape:connector-curvature="0" />
    <path
       style="fill:none;stroke:#000000;stroke-width:2;stroke-linecap:round;stroke-linejoin:round;stroke-miterlimit:4;stroke-opacity:1;stroke-dasharray:none"
       d="m 272.23867,895.25627 c -7.72419,19.03244 -11.41219,74.64268 -22.22336,107.07613 -1.48577,4.4573 -0.99498,10.0711 -3.03046,14.1421 -0.80094,1.6019 0.57119,4.3473 0,6.0609 -2.80153,8.4046 -3.16318,31.5802 -6.06091,37.3757 -2.73769,5.4753 -3.3455,11.7417 -6.06092,17.1725 -1.75093,3.5019 1.75093,9.6302 0,13.132 -2.8995,5.799 -4.04061,16.5026 -4.04061,23.2335"
       id="path6774"
       inkscape:connector-curvature="0" />
    <path
       style="fill:#715bb2;fill-opacity:1;stroke:#000000;stroke-width:2;stroke-linecap:round;stroke-linejoin:round;stroke-miterlimit:4;stroke-opacity:1;stroke-dasharray:none"
       d="m 138.27835,374.27439 c -6.61775,31.40336 -14.44244,84.3873 6.3876,107.57064 15.51136,17.26376 37.21634,-1.47355 45.35411,-15.78375 2.86103,-5.03106 4.05705,-10.78975 6.91521,-15.81578 0.9987,-1.7562 0.43147,-8.0697 0.3236,-6.05227 -0.39236,7.33836 3.77932,19.16862 8.79271,24.74842 3.04555,3.38961 2.35953,9.03852 5.40508,12.42814 14.4778,16.11344 32.46772,7.31762 44.70691,-3.67921 18.89688,-16.97869 17.95881,-71.00507 19.29958,-96.08125 0.0444,-0.83071 0.82906,-5.4897 0.3236,-6.05228 -0.4104,-0.45675 -34.22582,1.94403 -34.51194,2.20111 -2.25476,2.0259 3.56652,17.26248 4.97361,20.49784 3.40532,7.83004 -5.12803,33.46222 -11.70513,29.72202 -16.40456,-9.32879 -9.90024,-45.21836 -13.55058,-49.2811 -2.85431,-3.17677 -17.86074,0.27296 -20.2821,0.93875 -7.64796,2.10293 -14.02164,-1.78395 -20.2821,0.93876 -5.09728,2.21684 5.23444,45.23005 -0.67925,50.54346 -2.85013,2.56081 -7.18247,6.45339 -10.62645,9.54778 -0.91733,0.82421 -0.88702,3.65311 -4.14271,1.80169 -18.31402,-10.41464 2.49427,-65.6232 -0.36738,-68.80814 -1.99789,-2.22359 -24.25764,0.7262 -26.33437,0.61517 z"
       id="path6776"
       inkscape:connector-curvature="0" />
    <path
       style="fill:#715bb2;fill-opacity:1;stroke:#000000;stroke-width:2;stroke-linecap:round;stroke-linejoin:round;stroke-miterlimit:4;stroke-opacity:1;stroke-dasharray:none"
       d="m 299.88209,318.17862 c -11.05544,47.22203 -7.1926,96.68323 -9.78382,145.14662 -0.24517,4.58533 -8.46398,26.9169 -3.7433,32.17091 1.41306,1.57269 15.53978,-3.80258 18.48042,-5.08148 2.5817,-1.12279 24.20728,1.32796 24.31694,-0.72301 0.30974,-5.79308 -5.25244,-16.69252 -6.88316,-22.62313 -1.74167,-6.33416 1.65148,-14.32625 -0.93876,-20.2821 -12.81296,-29.46148 11.86279,-41.61366 28.92318,-49.03331 6.86738,-2.98668 11.65902,13.21547 13.25904,16.89444 6.10549,14.03867 -11.18167,66.64171 -2.08152,76.76997 0.45977,0.51171 15.72954,-5.85563 18.58828,-7.0989 3.73389,-1.62389 13.29184,1.50092 16.24725,-1.15449 8.12787,-7.30283 3.04993,-74.54321 -1.52187,-85.05538 -4.89278,-11.25021 -11.53759,-21.39097 -18.6641,-29.3226 -9.2436,-10.2879 -32.30278,4.34243 -40.67207,3.89494 -4.69429,-0.25099 -14.70885,10.2214 -14.44556,5.2972 0.39607,-7.40781 14.33778,-60.99155 11.52143,-64.12608 -4.91915,-5.4749 -28.3979,2.89992 -32.60238,4.3264 z"
       id="path6778"
       inkscape:connector-curvature="0" />
    <path
       style="fill:#715bb2;fill-opacity:1;stroke:#000000;stroke-width:2;stroke-linecap:round;stroke-linejoin:round;stroke-miterlimit:4;stroke-opacity:1;stroke-dasharray:none"
       d="m 423.32832,382.42838 c -1.48877,2.61799 -4.22131,13.37363 -5.90649,15.86972 -16.73073,24.78165 -2.16511,60.71961 7.68201,83.36156 1.60259,3.68493 14.81081,17.4207 21.65233,11.27366 6.38135,-5.7336 20.51271,-4.98698 26.87369,-10.70227 3.18794,-2.86434 5.42109,-6.79132 8.60903,-9.65566 1.00187,-0.90017 -1.12921,-4.10676 0.21574,-4.03485 0.37365,0.02 -1.60747,20.66082 -1.18654,22.19167 4.8109,17.49637 3.70596,53.48422 -11.52143,64.12608 -9.62033,6.72329 -21.3769,9.26103 -18.46439,-14.13799 0.77199,-7.49935 -4.00904,-20.58636 -15.06072,-21.03716 -3.71072,-0.19841 -15.57257,-6.17348 -23.47003,3.80308 -7.17055,9.05829 12.53575,56.70153 18.84779,63.72667 5.25309,5.84656 16.42236,10.58725 23.56188,13.39894 6.04228,2.37957 19.22493,1.49152 24.31695,-0.72303 12.54539,-5.45605 22.7597,-19.68013 27.32119,-37.99141 6.88696,-27.64644 9.56632,-60.05224 3.79136,-89.82928 -0.97645,-5.03482 2.2185,-11.20944 0.86293,-16.13939 -2.84365,-10.34186 -4.84875,-22.83289 -4.21853,-34.6198 0.20915,-3.91175 1.22552,-34.64207 -2.09325,-36.52936 -4.68028,-2.66153 -20.28764,-0.97677 -22.29952,0.83089 -2.83372,2.54607 -9.48656,0.84157 -12.32028,3.38764 -7.1458,6.42045 6.68175,47.77068 -7.27085,60.30697 -6.41865,5.76712 -21.24256,6.28222 -26.33437,0.61516 -4.61418,-5.13547 17.52096,-69.87488 13.86246,-70.07049 -9.13403,-0.48837 -19.48406,-1.64017 -27.45096,2.57865 z"
       id="path6793"
       inkscape:connector-curvature="0"
       sodipodi:nodetypes="cssssssssccssssssssssssssc" />
    <path
       style="fill:#715bb2;fill-opacity:1;stroke:#000000;stroke-width:2;stroke-linecap:round;stroke-linejoin:round;stroke-miterlimit:4;stroke-opacity:1;stroke-dasharray:none"
       d="m 927.37951,879.30654 c 0.80764,-16.58482 -1.74721,-27.79187 10.22703,-39.917 11.53057,-10.36012 50.54455,-26.34407 67.65366,-16.61463 24.4132,13.88305 58.9068,42.63236 40.5001,75.00031 -5.2594,9.24869 -14.8178,18.11501 -21.5225,24.13913 -7.9557,7.1481 -21.6259,6.94738 -26.92771,11.71099 -4.81043,4.32214 -10.46522,9.40292 -14.87703,13.36689 -11.01974,9.90115 25.75514,43.86407 -15.37846,41.66476 -7.54458,-0.40339 -6.11759,-18.02176 -5.65871,-26.60404 0.62213,-11.63572 4.08273,-34.42904 13.3071,-40.76391 22.67544,-15.57245 53.70271,-28.93555 15.86385,-50.74318 -12.86354,-7.41364 -30.97167,2.04432 -34.78159,7.24468 -8.23448,11.23962 0.53306,30.37637 -15.63212,27.48887 -8.02553,0.88286 -16.13229,-5.56766 -12.77362,-25.97287 z"
       id="path6795"
       inkscape:connector-curvature="0"
       sodipodi:nodetypes="ccsssssssssscc" />
    <path
       style="fill:#715bb2;fill-opacity:1;stroke:#000000;stroke-width:2;stroke-linecap:round;stroke-linejoin:round;stroke-miterlimit:4;stroke-opacity:1;stroke-dasharray:none"
       d="m 970.70031,1003.9495 c -4.82098,0.5527 -10.42592,5.7974 -10.68038,10.5565 -0.1618,3.0261 -0.3236,6.0523 -0.4854,9.0784 -0.19951,3.7314 1.62437,7.6797 4.55816,9.3481 19.59582,11.1435 33.71066,-16.6885 16.58688,-26.4262 -4.53774,-2.5805 -3.00395,-5.5904 -9.97926,-2.5568 z"
       id="path6810"
       inkscape:connector-curvature="0" />
    <path
       style="fill:#68d798;stroke:#000000;stroke-width:1px;stroke-linecap:butt;stroke-linejoin:miter;stroke-opacity:1;fill-opacity:1"
       d="m 545.72026,441.56652 c 3.09376,12.22212 -2.2834,66.40696 4.04061,72.73098 3.0012,3.0012 10.12178,-3.04059 12.12183,-4.04061 3.22163,-1.61081 11.65683,0.465 14.14214,-2.02031 0.78007,-0.78007 -21.6388,-41.70853 -4.04061,-50.50762 35.15849,-17.57925 23.11658,47.36024 26.26396,50.50762 3.0505,3.0505 23.74188,-7.57943 24.24366,-8.08122 1.22005,-1.22004 0,-10.20592 0,-12.12183 0,-11.49415 -0.38861,-34.7338 -8.08122,-42.4264 -10.10143,-10.10144 -30.59605,-17.89128 -42.4264,-6.06092 -2.18235,2.18235 -5.94677,-3.92646 -6.06092,-4.04061 -4.18203,-4.18203 -19.82647,5.83497 -20.20305,6.06092 z"
       id="path6812"
       inkscape:connector-curvature="0" />
    <path
       style="fill:#68d798;stroke:#000000;stroke-width:1px;stroke-linecap:butt;stroke-linejoin:miter;stroke-opacity:1;fill-opacity:1"
       d="m 651.554,436.45109 c -8.19018,0.37588 -14.55394,6.38913 -18.96875,15.21875 -9.25384,18.50769 10.37611,71.59319 36.375,58.59375 26.8629,-13.43145 27.36445,-80.24165 -10.09375,-72.75 -2.58012,-0.83936 -5.01925,-1.16775 -7.3125,-1.0625 z m 2.25,15.21875 c 2.89992,0.57998 9.02062,0.92688 11.125,3.03125 7.0868,7.08681 7.71942,32.49966 -2.03125,37.375 -1.68924,0.84462 -3.85389,-0.3957 -5.0625,-1 -14.01283,-7.00642 -17.52032,-27.73192 -4.03125,-39.40625 z"
       id="path6814"
       inkscape:connector-curvature="0" />
    <path
       style="fill:#68d798;stroke:#000000;stroke-width:1px;stroke-linecap:butt;stroke-linejoin:miter;stroke-opacity:1;fill-opacity:1"
       d="m 694.21269,428.43453 c -1.70632,5.11458 -4.00368,13.51623 1.01015,19.1929 7.26002,7.26002 24.69428,-1.56968 26.26396,0 1.15281,1.15281 -3.68705,52.88149 4.04061,60.60915 14.68298,14.68298 52.83342,-11.81634 40.4061,-24.24366 -0.91004,-0.91004 -5.12969,-10.10152 -6.06091,-10.10152 -3.20566,0 -14.08475,10.15891 -18.18275,6.06091 -1.43075,-1.43075 -5.57548,-28.7697 -2.0203,-32.32488 3.70389,-3.70389 18.51946,3.70389 22.22335,0 2.27845,-2.27844 -2.0203,-4.54249 -2.0203,-6.06091 0,-28.57547 -12.835,-4.75379 -22.22336,-14.14214 -7.08806,-7.08806 0.34942,-27.93485 -6.06091,-34.34518 -0.53479,-0.53479 -5.22903,0 -6.06092,0 -16.64625,0 -1.74758,32.05215 -6.06091,36.36549 -0.32333,0.32333 -3.80161,-2.02031 -6.06092,-2.02031 -11.54318,1.53 -12.82644,3.08195 -19.19289,1.01015 z"
       id="path6818"
       inkscape:connector-curvature="0"
       sodipodi:nodetypes="ccsssssssssssscc" />
    <path
       style="fill:#13ffca;stroke:#000000;stroke-width:1px;stroke-linecap:butt;stroke-linejoin:miter;stroke-opacity:1;fill-opacity:1"
       d="M 818.46875 95.90625 C 817.31425 96.006748 815.97696 96.41777 814.4375 97.1875 C 812.16663 98.32293 808.4392 97.12335 806.34375 99.21875 C 804.24101 101.3215 805.38505 101.19821 800.28125 105.28125 C 803.71777 118.99349 799.00776 133.89033 801.3125 147.71875 C 802.74448 156.3106 800.18585 204.15459 804.34375 208.3125 C 805.96611 209.93486 819.18828 208.96836 820.5 208.3125 C 823.85694 206.63402 829.02466 208.51262 832.625 207.3125 C 846.89497 202.55585 856.08067 192.30232 859.90625 177 C 860.77908 173.50866 864.09769 165.32432 862.9375 161.84375 C 858.80331 149.4412 856.29109 138.625 841.71875 138.625 C 840.25587 138.625 836.93657 137.98484 835.65625 138.625 C 833.47045 139.7179 824.04741 143.65733 822.53125 140.625 C 820.56281 136.68811 832.09181 94.720379 818.46875 95.90625 z M 830.9375 152.53125 C 837.5099 152.53778 843.63307 164.21776 840.6875 176 C 839.60183 180.3427 838.52827 184.38097 836.65625 188.125 C 834.51106 192.41539 824.15252 198.46129 821.5 193.15625 C 818.72952 187.61528 821.5 178.2695 821.5 171.9375 C 821.5 168.14692 821.15111 164.47912 822.53125 160.84375 C 824.8904 154.94586 827.95005 152.52828 830.9375 152.53125 z "
       transform="translate(0,308.2677)"
       id="path6873" />
    <path
       style="fill:#13ffca;stroke:#000000;stroke-width:1px;stroke-linecap:butt;stroke-linejoin:miter;stroke-opacity:1;fill-opacity:1"
       d="m 874.03428,448.90522 c -2.95369,7.89306 -3.03046,17.74939 -3.03046,26.26396 0,9.16401 0.92013,15.80235 3.03046,24.24366 1.92469,7.69878 5.67061,10.91653 12.12183,14.14214 28.65541,14.32771 40.68826,-41.86209 31.31472,-60.60915 -2.11651,-4.23303 -0.14406,-6.20498 -3.03045,-9.09138 -0.80768,-0.80768 -8.08122,2.06058 -8.08122,3.03046 0,15.62918 3.82273,32.76064 -3.03046,46.46702 -0.53899,1.07798 -4.1651,10.98719 -8.08122,7.07106 -11.90699,-11.90699 -2.58014,-50.0573 -7.07107,-54.54823 -0.97211,-0.97211 -13.74917,2.87327 -14.14213,3.03046 z"
       id="path6877"
       inkscape:connector-curvature="0" />
    <path
       style="fill:#13ffca;stroke:#000000;stroke-width:1px;stroke-linecap:butt;stroke-linejoin:miter;stroke-opacity:1;fill-opacity:1"
       d="m 936.66373,446.88491 c -3.41189,7.49219 -5.05076,15.83378 -5.05076,24.24366 0,6.39763 0,12.79527 0,19.1929 0,6.3962 0.65588,22.87923 4.04061,26.26397 1.21405,1.21405 3.33383,-1.01016 5.05076,-1.01016 2.19894,0 5.86794,-0.81717 7.07107,-2.0203 3.14364,-3.14364 1.01015,-46.57199 1.01015,-54.54824 0,-6.92631 -4.09481,-14.14214 -3.03045,-14.14214 3.10438,0 -6.04728,1.41149 -9.09138,2.02031 z"
       id="path6879"
       inkscape:connector-curvature="0" />
    <path
       style="fill:#13ffca;stroke:#000000;stroke-width:1px;stroke-linecap:butt;stroke-linejoin:miter;stroke-opacity:1;fill-opacity:1"
       d="m 939.69419,425.67171 c -5.81461,0.49052 -5.19406,-0.2866 -7.07107,-4.04061 -6.62452,-13.24905 20.13823,-17.73799 7.07107,4.04061 z"
       id="path6881"
       inkscape:connector-curvature="0" />
    <path
       style="fill:#13ffca;stroke:#000000;stroke-width:1px;stroke-linecap:butt;stroke-linejoin:miter;stroke-opacity:1;fill-opacity:1"
       d="m 968.98862,403.44835 c -7.97953,15.08046 -5.05076,34.45736 -5.05076,51.51778 0,8.3486 2.2084,16.86602 1.01015,25.25381 -0.32285,2.25995 -2.41511,36.36549 1.01015,36.36549 0.97102,0 4.07545,-1.53264 5.05076,-2.0203 0.84105,-0.42052 3.39986,0.64075 4.04061,0 2.19015,-2.19015 0,-18.29318 0,-21.21321 0,-9.74066 2.63881,-81.20385 0,-83.84266 -1.30499,-1.30499 2.77701,-5.30421 1.01016,-7.07106 -1.87282,-1.87282 -3.04843,-0.59891 -7.07107,1.01015 z"
       id="path6883"
       inkscape:connector-curvature="0" />
    <path
       style="fill:#13ffca;stroke:#000000;stroke-width:1px;stroke-linecap:butt;stroke-linejoin:miter;stroke-opacity:1;fill-opacity:1"
       d="m 1031.6518,404.9552 c -2.6671,-0.0229 -6.7786,1.21612 -7.0938,1.53125 -3.4935,3.49355 -5.0625,29.86106 -5.0625,36.34375 0,1.00541 0.55,9.90502 0,10.125 -1.5941,0.63765 -3.3789,0.66328 -5.0625,1 -36.90691,-7.6564 -33.66171,70.14767 -2,59.59375 5.5286,-1.84287 9.4037,-2.34115 13.125,-6.0625 0.8129,-0.81282 6.3039,-1.2414 8.0938,-3.03125 7.596,-7.59602 -1.1237,-43.06762 2,-55.5625 2.2656,-9.06258 4.2693,-37.16818 -2,-43.4375 -0.3708,-0.37078 -1.111,-0.49236 -2,-0.5 z m -11.1563,63.15625 c 1.0102,0 0,2.0211 0,3.03125 l 0,11.09375 c 0,10.13423 -4.9301,23.30055 -17.1562,17.1875 -4.81679,-2.40839 -6.06251,-5.6975 -6.06251,-11.125 0,-2.75046 2.14639,-7.43916 3.03121,-10.09375 1.9093,-5.72775 9.7219,-11.09593 15.1563,-9.09375 1.6836,-0.33672 3.3143,-1 5.0312,-1 z"
       id="path6885"
       inkscape:connector-curvature="0" />
    <path
       style="fill:#ffbe2e;stroke:#000000;stroke-width:0.96109515000000001px;stroke-linecap:butt;stroke-linejoin:miter;stroke-opacity:1;fill-opacity:1"
       d="m 602.42437,515.32563 c -5.1684,0.17607 -12.00057,2.61712 -14.89697,4.35496 -3.2727,19.39753 -3.80344,42.45465 -0.99113,62.14081 1.48143,10.37 -2.05198,21.7866 0,32.04652 2.88539,14.42695 3.42586,30.09821 9.73109,42.70867 4.24282,8.48564 26.47987,-1.10611 32.01648,-3.87442 13.27916,-6.63957 21.1013,-14.22922 30.09429,-26.21988 2.23385,-2.97845 5.86427,-5.88704 6.81777,-9.70105 1.04405,-4.17619 0.24681,-8.35871 0.9611,-12.64441 0.87612,-5.25676 3.05742,-10.96278 1.95222,-16.48879 -1.04882,-5.24412 -5.50494,-11.97097 -7.77886,-16.51882 -3.8238,-7.64761 -30.97437,-11.19823 -37.87316,-7.74883 -1.55092,0.77546 -11.39306,4.13463 -11.65328,3.87441 -0.78596,-0.78595 0,-6.54406 0,-7.77886 0,-4.95034 -1.09396,-40.91935 -2.88328,-42.70867 -1.13519,-1.13519 -3.14699,-1.52167 -5.49627,-1.44164 z m 21.80485,66.73604 c 14.9172,-0.15975 22.2205,19.74216 15.7079,32.76734 -0.29309,0.58619 0.44879,2.46453 0,2.91332 -2.29544,2.29545 -5.04342,6.99565 -6.78773,8.73996 -0.90686,0.90686 -3.95869,1.04538 -4.86555,1.95223 -6.5471,6.54711 -13.57547,3.95551 -13.57547,-5.82664 0,-5.71518 -0.99113,-10.76465 -0.99113,-16.51883 0,-6.93486 0.34607,-14.00113 -0.96109,-20.39323 4.17579,-2.50548 8.03064,-3.59728 11.47307,-3.63415 z"
       id="path6902"
       inkscape:connector-curvature="0" />
    <path
       style="fill:#ffbe2e;fill-opacity:1;stroke:#000000;stroke-width:0.96109515px;stroke-linecap:butt;stroke-linejoin:miter;stroke-opacity:1"
       d="m 678.88939,567.2565 c -3.31456,12.58308 0.17678,26.12323 -1.9417,38.83411 -0.63204,3.79225 -1.38645,45.21449 0.97085,47.57179 2.96463,2.96462 13.05701,0.1783 16.5045,-0.97086 6.28272,-2.09424 12.56964,1.0223 16.50449,-2.91255 1.07564,-1.07564 0,-10.23293 0,-11.65023 0,-16.56261 7.3903,-59.59854 -2.91255,-69.90141 -1.80863,-1.80862 0.39808,-8.73767 -3.88341,-8.73767 -7.44784,0 -14.36842,2.91256 -21.35877,2.91256 -0.23646,0 -2.85968,-0.13219 -2.91256,0 -0.61284,1.53211 -0.64723,3.23617 -0.97085,4.85426 z"
       id="path6917"
       inkscape:connector-curvature="0" />
    <path
       style="fill:#ffbe2e;stroke:#000000;stroke-width:0.96109515000000001px;stroke-linecap:butt;stroke-linejoin:miter;stroke-opacity:1;fill-opacity:1"
       d="m 684.71451,511.91789 c -3.0394,0.63444 -1.79894,-2.08447 -7.76682,3.88341 -2.00075,2.00075 -1.14256,4.39853 -1.94171,6.79597 -3.54039,10.62121 0.56735,18.44621 11.65023,18.44621 2.54686,0 4.58664,0.26763 5.82513,-0.97085 0.48542,-0.48543 2.42713,0.48542 2.91255,0 1.85746,-1.85745 5.04473,-3.29349 6.79597,-6.79597 0.61525,-1.23051 0,-4.41915 0,-5.82512 0,-11.7929 -6.60832,-15.53365 -17.47535,-15.53365 z"
       id="path6932"
       inkscape:connector-curvature="0" />
    <path
       style="fill:#ffbe2e;stroke:#000000;stroke-width:0.96109515000000001px;stroke-linecap:butt;stroke-linejoin:miter;stroke-opacity:1;fill-opacity:1"
       d="m 762.06296,562.56946 c -19.92483,-0.4358 -33.63882,19.07368 -38.29364,37.69295 -4.83928,19.35712 1.20183,35.56076 17.47992,43.6998 6.36676,3.18338 27.09536,-5.0668 29.1332,-0.99113 0.88754,1.7751 -0.62899,4.93079 0,6.81777 6.37073,19.1122 -13.3719,38.09563 -30.09429,43.66976 -3.09357,1.03119 -16.4685,-0.0504 -18.47105,1.95223 -3.43292,3.43291 1.26337,21.6566 2.91332,23.30656 8.46346,8.46345 24.44514,-4.28398 32.04652,-6.81777 22.3106,-7.43687 30.65348,-14.66382 40.78647,-34.92981 2.38244,-4.76488 1.61228,-11.31464 2.91332,-16.51882 5.25537,-21.02146 1.22984,-40.4339 -2.91332,-61.14968 -0.45365,-2.26829 -1.86702,-12.50703 -3.30376,-22.2854 -2.0391,-1.41138 -3.90559,-4.74766 -4.4751,-5.8867 -3.87592,-7.75183 -11.02213,-5.78327 -14.26626,-8.46965 -2.87757,0.26196 -5.67984,0.43917 -7.08808,0.72082 -2.19131,-0.495 -4.30606,-0.76584 -6.36725,-0.81093 z m 1.50171,20.21304 c 2.80194,1.12077 4.66315,1.74982 5.82664,2.91332 1.96074,1.96075 4.96272,36.78485 2.91332,38.83425 -1.29447,1.29447 -3.54104,1.61885 -4.83551,2.91332 -2.19497,2.19497 -10.99412,-1.09704 -12.64441,-1.92219 -2.61918,-1.30959 -6.0754,-2.23101 -7.74883,-3.90445 -11.13682,-11.13682 1.39245,-39.60628 16.48879,-38.83425 z"
       id="path6936"
       inkscape:connector-curvature="0" />
    <path
       style="fill:#ff9013;fill-opacity:1;stroke:#000000;stroke-width:0.69177216px;stroke-linecap:butt;stroke-linejoin:miter;stroke-opacity:1"
       d="m 853.95477,577.7052 c -1.10053,0.056 -2.13819,0.30236 -3.06312,0.83802 -11.87392,6.87661 -18.83732,22.58036 -15.80683,27.56805 4.06429,2.11143 3.9036,2.1333 5.83726,3.84335 4.80766,4.25173 6.82267,-12.02519 11.99239,-9.8251 2.0964,0.89219 3.88453,1.44826 5.05703,2.48517 2.45305,2.1694 5.34833,11.85708 3.00532,14.50646 -0.3086,0.34898 0.55168,1.3874 0.0866,1.41597 -0.80762,0.0496 -2.63404,-1.46206 -3.61217,-1.87832 -3.50954,-1.49359 -11.71705,1.13563 -14.56425,2.28288 -2.28456,0.92055 -3.39249,3.79141 -5.28821,5.23042 -9.15643,6.9505 -5.88525,19.08602 -2.51407,27.45246 0.78271,1.94249 2.16616,4.98943 4.56578,6.01064 3.905,1.66188 12.71755,2.75053 16.81824,0.37567 1.37034,-0.7936 3.37205,-0.87973 4.79696,-1.70494 11.98187,-6.93912 11.50479,-19.10657 15.43117,-33.83877 0.5467,-2.05157 -0.22891,-4.27694 0.31787,-6.32852 1.78932,-6.71377 4.13818,-17.52002 1.30038,-24.56272 -1.72669,-4.28524 -6.52923,-7.55303 -10.37414,-9.18935 -3.24252,-1.37994 -9.21733,-4.92404 -13.98631,-4.68137 z m -0.28897,50.59922 c 0.73181,0.0191 1.50982,0.11743 2.39847,0.31787 2.7491,3.23224 2.46805,5.6053 2.71635,9.6517 0.15785,2.57225 -0.1396,6.85652 -1.58935,8.49582 -4.62279,5.22726 -28.89351,-1.43668 -9.39163,-16.2403 2.03,-1.54095 3.67074,-2.2826 5.86616,-2.22509 z"
       id="path6959"
       inkscape:connector-curvature="0" />
    <path
       style="fill:#ff9013;fill-opacity:1;stroke:#000000;stroke-width:0.69177216px;stroke-linecap:butt;stroke-linejoin:miter;stroke-opacity:1"
       d="m 911.69848,583.2661 c -6.37962,0.45513 -15.26639,7.04816 -19.40449,8.14315 -5.81304,10.25024 -1.11958,23.65486 -2.04626,35.12578 -0.60601,7.50161 0.0565,14.98735 -0.72255,22.46095 -0.46567,4.46749 -2.70435,24.01601 -0.38094,28.02787 0.9047,1.56215 1.85912,4.51063 3.83713,5.35243 3.26406,1.38911 8.80801,-2.30364 9.56135,-4.07376 2.21511,-5.20498 -0.81742,-36.3872 1.11969,-38.5776 0.10204,-0.11538 1.4276,-1.39031 2.0493,-0.84049 5.29122,4.67938 10.86454,10.70068 19.26603,5.8351 1.30128,-0.75364 3.25613,-1.28158 4.01383,-3.06192 1.49935,-3.52324 5.32255,-7.12289 6.32723,-10.89267 1.75493,-6.58442 1.85862,-14.96925 0.0758,-21.70651 -0.61926,-2.34028 0.4304,-5.42519 -0.47005,-7.65994 -1.91905,-4.7625 -7.10144,-14.47164 -12.895,-16.01573 -2.39322,-0.63783 -4.82155,-0.69654 -7.09793,-1.66532 -0.96457,-0.41049 -2.05175,-0.53563 -3.23317,-0.45134 z m 0.29614,17.17871 c 14.2828,-1.32636 16.88622,11.09222 8.9035,24.38262 -4.39044,7.3095 -13.617,0.8282 -15.97205,-1.92211 -1.52962,-1.78628 -0.6038,-10.42837 -0.43067,-12.66548 0.48102,-6.21508 0.68808,-8.76201 0.65671,-8.35719 2.52013,-0.78858 4.8021,-1.24836 6.84251,-1.43784 z"
       id="path7002"
       inkscape:connector-curvature="0" />
    <path
       style="fill:#ff9013;fill-opacity:1;stroke:#000000;stroke-width:0.69177216px;stroke-linecap:butt;stroke-linejoin:miter;stroke-opacity:1"
       d="m 969.80328,581.06497 c -7.56859,0.78871 -18.42941,9.31749 -22.10164,11.83901 -3.78464,9.17758 -2.84431,22.12028 -2.21703,32.34231 0.39297,6.40362 0.10572,13.01699 0.50783,19.56982 0.27856,4.53935 0.42342,41.64999 7.8788,37.33234 9.748,-5.64542 6.57444,-29.80681 5.93171,-40.28071 l -0.39856,-6.49477 c 0.61337,0.68363 1.15281,1.2236 1.50181,1.53224 0.89496,0.79149 3.21885,1.24257 5.61084,1.43168 1.89334,1.43885 4.0543,1.98673 6.40591,0.62486 17.71133,-10.25723 23.47824,-33.05477 12.97236,-51.19549 -2.0389,-3.52047 -9.01403,-4.84481 -12.29517,-6.24121 -1.10893,-0.4719 -2.3953,-0.60613 -3.79686,-0.46008 z m -2.80298,15.02977 c 8.36582,-0.33379 15.88253,9.90916 12.75473,17.25888 -3.4157,8.02602 -8.79691,10.36454 -13.35477,8.96312 -5.56614,2.27001 -9.07284,-4.29546 -8.23848,-11.42829 -0.43066,-3.44307 0.0339,-7.45433 1.8135,-11.74193 2.2585,-2.04587 4.68255,-2.95832 7.02502,-3.05178 z"
       id="path7059"
       inkscape:connector-curvature="0" />
    <path
       style="fill:#ff9013;fill-opacity:1;stroke:#000000;stroke-width:0.92471445px;stroke-linecap:butt;stroke-linejoin:miter;stroke-opacity:1"
       d="m 1033.82,592.57975 c -2.7206,-3.96836 2.2934,-2.99074 -3.9631,-9.24714 -1.911,-1.91105 -6.4451,-1.32102 -9.2471,-1.32102 -1.924,0 -8.6232,-3.26598 -10.5682,-1.32102 -1.9617,1.96174 -17.9227,13.78177 -11.88918,19.8153 1.38929,1.38925 5.21588,5.21586 6.60508,6.6051 4.5662,4.56607 27.831,2.46286 19.8153,18.49429 -7.1157,14.23165 -18.0996,8.32082 -26.42038,0 -1.61714,-1.61716 -3.6935,9.78629 -2.64201,11.88919 1.91102,3.82205 20.33679,15.33069 26.42039,9.24715 2.2017,-2.20171 4.4034,-4.40341 6.6051,-6.60511 5.2564,-5.25641 6.6084,-25.09283 3.963,-30.38347 -1.7163,-3.43287 -21.3356,-11.68984 -18.4942,-14.53123 12.2196,-12.21958 19.8153,20.57928 19.8153,-2.64204 z"
       id="path7097"
       inkscape:connector-curvature="0" />
    <path
       style="fill:#ff80de;fill-opacity:1;stroke:#000000;stroke-width:0.69924015px;stroke-linecap:butt;stroke-linejoin:miter;stroke-opacity:1"
       d="m 923.76465,670.78323 c -8.06203,3.72704 -10.1539,1.81537 -15.98263,18.97937 -1.24265,3.72794 0.99891,11.40881 0.99891,15.98264 0,1.82751 2.65432,8.33374 1.99783,8.99023 -2.68617,2.68616 -8.39701,-3.58997 -11.98697,0 -0.55962,0.55961 -3.60028,12.38234 -1.99783,13.9848 2.90967,2.90966 12.98589,-3.83666 12.98589,0.99891 0,7.57544 0.99891,15.84053 0.99891,23.97395 0,0.78216 -0.49843,4.49614 0,4.99457 2.41078,2.41078 5.58794,0 7.99132,0 0.60123,0 7.60495,-0.61255 7.99132,-0.99891 2.05822,-2.05823 -4.54613,-24.42241 -3.99566,-24.97286 4.21811,-4.21813 9.35477,0.81663 12.98588,-0.99892 3.11337,-1.55668 3.01993,-16.95836 0.99892,-18.97937 -3.74888,-3.74888 -22.7555,5.55441 -14.98372,-9.98915 0.53276,-1.06551 -0.53275,-2.93015 0,-3.99565 9.59994,-19.19988 12.34861,4.63293 17.98047,-0.99892 7.10437,-7.66387 -3.24274,-26.41024 -15.98264,-26.97069 z"
       id="path7120"
       inkscape:connector-curvature="0"
       sodipodi:nodetypes="ccsssssssssssssscc" />
    <path
       style="fill:#ff80de;fill-opacity:1;stroke:#000000;stroke-width:0.69924015px;stroke-linecap:butt;stroke-linejoin:miter;stroke-opacity:1"
       d="m 964.9449,707.62081 c -2.11136,0.0113 -4.50743,0.96194 -7.21091,3.12473 -6.40643,-2.14233 -12.8193,3.47403 -14.98996,9.98602 -4.98112,14.94336 7.04877,39.92684 22.96566,31.96839 2.22449,-1.11224 5.57891,-2.17694 6.99241,-5.00394 6.37005,-12.74011 3.64417,-40.13585 -7.7572,-40.0752 z m -7.21091,14.11591 c 8.40328,3.36131 10.76708,17.09047 2.99362,20.9772 -10.81898,5.40949 -14.69762,-20.37169 -2.99362,-20.9772 z"
       id="path7122"
       inkscape:connector-curvature="0" />
    <path
       style="fill:#ff80de;fill-opacity:1;stroke:#000000;stroke-width:0.69924015px;stroke-linecap:butt;stroke-linejoin:miter;stroke-opacity:1"
       d="m 981.70169,708.74198 c -3.62985,13.99931 -6.95576,37.99538 1.99783,46.94898 0.15568,0.15568 1.7427,2.25297 2.99675,0.99891 1.83309,-1.83309 3.80799,-3.80799 5.99348,-5.99348 2.46898,-2.46898 -3.55562,-25.41289 -1.99783,-26.97069 15.63188,-15.6319 15.37808,20.1884 25.97178,-0.99891 2.638,-5.2761 -6.4736,-15.22378 -9.9891,-16.98155 -2.9566,-1.47827 -9.2265,-0.76269 -10.9881,0.99891 -0.0447,0.0448 -2.68871,4.3037 -3.99566,2.99675 -1.26489,-1.26489 0.79206,-3.59963 -1.99783,-4.99458 -1.95738,-0.97868 -7.78242,3.87032 -7.99132,3.99566 z"
       id="path7126"
       inkscape:connector-curvature="0" />
    <path
       style="fill:#c83737;stroke:#000000;stroke-width:1px;stroke-linecap:butt;stroke-linejoin:miter;stroke-opacity:1"
       d="m 647.15179,713.77663 c -0.17216,0 -0.2792,0.0799 -0.34375,0.1875 0.26741,-0.10692 0.43209,-0.1875 0.34375,-0.1875 z m -0.34375,0.1875 c -1.13433,0.45355 -5.12367,1.85871 -9.65625,4.125 -6.96671,3.48336 -7.0987,0.22895 -15.71875,7.125 -8.32354,37.5523 -7.15625,80.47774 -7.15625,118.5625 0,5.10333 -0.16221,28.40029 1.4375,30 3.4184,3.41839 8.32671,2.05398 12.84375,4.3125 8.59157,4.29578 15.00177,2.32768 24.3125,0 29.18044,-7.29511 54.28274,-28.59823 64.28125,-58.59375 3.37172,-10.11515 -16.91907,-44.04407 -24.28125,-51.40625 -2.70695,-2.70695 -9.26124,-4.51416 -12.875,-5.71875 -7.55592,-2.51864 -28.65908,8.46591 -32.84375,4.28125 -3.9503,-3.9503 0,-31.5846 0,-37.15625 l 0,-12.84375 c 0,-0.78022 -0.6363,-2.19983 -0.34375,-2.6875 z m 9.40625,75.28125 c 4.24148,-0.0316 7.43384,2.46509 10.9375,5.96875 3.20416,3.20417 9.3898,6.54605 12.84375,10 8.65211,8.65211 -2.50717,29.66342 -8.5625,35.71875 -4.48398,4.48398 -12.7189,5.56265 -15.71875,8.5625 -5.42294,5.42294 -14.28125,-4.11159 -14.28125,-7.125 0,-10.1844 2.84375,-17.79867 2.84375,-27.15625 0,-8.57874 2.69433,-14.41541 2.875,-22.84375 3.59624,-2.15775 6.51761,-3.10602 9.0625,-3.125 z"
       id="path7129"
       inkscape:connector-curvature="0" />
    <path
       style="fill:#c83737;stroke:#000000;stroke-width:1px;stroke-linecap:butt;stroke-linejoin:miter;stroke-opacity:1"
       d="m 751.42857,726.6479 c -7.91029,-2.9924 -6.57311,-0.99916 -11.42857,1.42857 -20.8869,10.44345 -3.14412,39.4292 12.85714,31.42857 16.28879,-8.14439 22.16736,-23.41877 -1.42857,-32.85714 z"
       id="path7157"
       inkscape:connector-curvature="0" />
    <path
       style="fill:#c83737;stroke:#000000;stroke-width:1px;stroke-linecap:butt;stroke-linejoin:miter;stroke-opacity:1"
       d="m 734.28572,775.21933 c -2.45328,10.64579 -1.42857,21.93246 -1.42857,32.85714 0,7.63174 1.84337,18.3408 0,25.71429 -1.9609,7.84358 -0.60191,36.54094 2.85714,40 2.31147,2.31147 15.07863,-1.42857 18.57143,-1.42857 2.27487,0 12.83794,1.44777 14.28571,0 4.8396,-4.8396 2.14047,-35.00717 0,-41.42858 -2.12161,-6.36485 -0.56805,-19.72442 1.42857,-25.71428 1.12587,-3.37758 -1.65175,-12.09812 -2.85714,-15.71429 -1.80815,-5.42445 0.57175,-13.71397 -2.85714,-17.14285 -3.88158,-3.88159 -26.46113,1.44159 -30,2.85714 z"
       id="path7172"
       inkscape:connector-curvature="0" />
    <path
       style="fill:#c83737;stroke:#000000;stroke-width:1px;stroke-linecap:butt;stroke-linejoin:miter;stroke-opacity:1"
       d="m 841.94643,745.08913 c -11.67302,0.24939 -25.26928,10.10704 -37.65625,28.6875 -4.35242,6.52862 -11.75458,9.57625 -14.28125,17.15625 -9.08836,27.2651 11.90504,55.87459 37.125,64.28125 4.35786,1.45262 19.64711,-4.63414 20,-4.28125 1.58902,1.58902 -0.87519,6.09412 -1.40625,7.15625 -0.95238,1.90476 0.95238,5.22023 0,7.125 -5.22948,10.45896 -5.82274,22.17699 -18.59375,28.56249 -7.75045,3.8752 -36.57826,-7.6717 -38.5625,-5.6875 -3.92525,3.9253 0.97701,28.13333 2.84375,30.00003 2.96618,2.9662 6.71563,1.2016 10,2.8438 19.38337,9.69159 55.72769,-1.4465 70,-15.7188 2.12081,-2.1208 4.88491,-9.50843 5.71875,-12.84373 3.63647,-14.54591 4.77625,-85.67129 0,-100.00004 -2.69215,-8.07644 3.23922,-33.94829 -1.40625,-38.59375 -5.10726,-5.10726 -12.51755,-3.61601 -22.875,-5.6875 -3.34798,-2.09131 -7.01524,-3.08313 -10.90625,-3 z m -0.71875,35.71875 c 2.39734,0.0137 4.62503,0.125 5.90625,0.125 -8.00897,12.27097 1.82431,30.63263 -4.28125,42.84375 -1.38216,2.76433 -11.25329,-1.32977 -14.28125,-2.84375 -20.45308,-10.22654 -5.11828,-30.60046 2.84375,-38.5625 1.34521,-1.34521 5.81693,-1.58537 9.8125,-1.5625 z"
       id="path7203"
       inkscape:connector-curvature="0" />
    <path
       style="fill:#d50065;fill-opacity:1;stroke:#000000;stroke-width:1px;stroke-linecap:butt;stroke-linejoin:miter;stroke-opacity:1"
       d="m 483.13392,919.58467 c -11.57366,0.26524 -22.51262,3.60637 -27.40625,8.5 -0.20605,0.20605 3.45987,9.35279 4.28125,11.40625 -11.67685,20.29928 -11.4375,49.17541 -11.4375,72.87498 0,5.115 1.60493,13.7477 0,18.5625 -0.83125,2.4938 -5.99395,16.8498 -2.84375,20 1.63091,1.6309 11.50696,-1.4375 14.28125,-1.4375 3.27184,0 12.40973,3.743 14.28125,0 6.79372,-13.5874 -8.09132,-43.3149 5.71875,-57.12497 0.0194,-0.019 14.73967,5.22921 15.71875,5.71881 3.37634,1.6881 10.1361,-0.535 12.84375,-1.4375 15.07107,-5.02371 8.9193,-14.30226 12.84375,-30.00007 1.07185,-4.28739 2.98643,-11.07198 1.4375,-15.71875 -2.06713,-6.20142 -3.72359,-16.59859 -8.5625,-21.4375 -7.38317,-7.38317 -19.58259,-10.17149 -31.15625,-9.90625 z m -1.71875,21.34375 c 13.49447,0 23.64954,14.16967 17.15625,27.15625 -3.00436,6.00873 -8.5347,2.12672 -12.84375,4.28125 -1.3501,0.67505 -8.22244,3.21506 -10,1.4375 -1.99246,-1.99246 2.84375,-16.6575 2.84375,-20 0,-5.30384 -0.22887,-7.39908 2.84375,-12.875 z"
       id="path7221"
       inkscape:connector-curvature="0" />
    <path
       style="fill:#d50065;stroke:#000000;stroke-width:1px;stroke-linecap:butt;stroke-linejoin:miter;stroke-opacity:1;fill-opacity:1"
       d="m 537.14285,940.93362 c -4.57614,12.86936 -1.05566,27.07977 -4.28572,40 -3.30428,13.21716 -9.47587,31.42858 7.14286,31.42858 1.35475,0 7.70873,0.8627 8.57143,0 9.51349,-9.5135 1.96463,-30.53607 11.42857,-40.00001 13.04342,-13.04342 25.71429,13.66318 25.71429,-7.14286 0,-1.60373 3.16787,-6.52139 1.42857,-10 -1.29131,-2.58261 -0.89328,-8.03614 -2.85714,-10 -5.24409,-5.24409 -14.90013,-4.28571 -24.28572,-4.28571 -1.47059,0 -1.79272,2.493 -2.85714,1.42857 -4.46696,-4.46695 1.42453,-15.71227 -10,-10 -6.55929,3.27965 -3.9665,-1.48441 -10,8.57143 z"
       id="path7251"
       inkscape:connector-curvature="0" />
    <path
       style="fill:#d50065;stroke:#000000;stroke-width:1px;stroke-linecap:butt;stroke-linejoin:miter;stroke-opacity:1;fill-opacity:1"
       d="m 622.85267,939.50878 c -2.51456,0.50291 -4.74405,1.89137 -7.125,2.84375 -13.15084,-4.40562 -20.7725,10.81751 -24.3125,21.4375 -8.72078,26.16236 15.41281,63.18097 38.59375,40.00007 1.83966,-1.8397 0.36327,-5.07031 1.40625,-7.15631 8.16973,-16.33948 1.45035,-44.26842 -8.5625,-54.28126 -0.67343,-0.67343 0.93389,-3.03053 0,-2.84375 z m -10,24.28125 c 19.74149,32.90246 -22.84874,22.3985 0,0 z"
       id="path7253"
       inkscape:connector-curvature="0" />
    <path
       style="fill:#d50065;stroke:#000000;stroke-width:1px;stroke-linecap:butt;stroke-linejoin:miter;stroke-opacity:1;fill-opacity:1"
       d="m 659.91517,911.82128 c -1.93893,0.0818 -4.69772,1.12488 -8.5,3.40625 -4.65416,15.28197 -1.22576,31.84756 -4.28125,47.125 -0.43307,2.16532 0.43762,39.00017 1.4375,40.00007 11.16675,11.1667 39.61725,-0.6408 45.71875,-12.84382 7.7674,-15.53481 -6.41926,-29.26301 -15.71875,-38.5625 -3.69932,-3.69932 -11.42318,-2.86067 -14.28125,-5.71875 -6.66061,-6.6606 6.09522,-33.84773 -4.375,-33.40625 z m 1.5,53.40625 c 33.01584,0 -13.67421,49.86717 0,0 z"
       id="path7257"
       inkscape:connector-curvature="0" />
    <path
       style="fill:#d50065;stroke:#000000;stroke-width:1px;stroke-linecap:butt;stroke-linejoin:miter;stroke-opacity:1;fill-opacity:1"
       d="m 714.28571,906.64791 c -5.83836,14.35291 -4.28572,30.21249 -4.28572,45.71428 0,11.45636 0.57339,25.42271 -2.85714,35.71429 -0.7716,2.3148 -1.42857,13.81212 -1.42857,14.28572 0,2.4467 9.78833,1.4286 11.42857,1.4286 1.72041,0 6.86109,3.1389 7.14286,2.8571 5.48325,-5.4832 2.00174,-43.72125 4.28571,-52.85714 1.7047,-6.8188 8.71708,-45.56863 4.28571,-50 -2.84094,-2.84094 -17.09771,2.26766 -18.57142,2.85715 z"
       id="path7261"
       inkscape:connector-curvature="0" />
    <path
       style="fill:#d50065;stroke:#000000;stroke-width:1px;stroke-linecap:butt;stroke-linejoin:miter;stroke-opacity:1;fill-opacity:1"
       d="m 777.04911,935.43288 c -11.9095,0.16274 -28.56004,8.58639 -35.625,29.78125 -1.60037,4.80112 -3.16043,14.8312 -1.4375,20 6.46808,19.40417 27.66785,27.58797 45.71875,18.56247 8.82616,-4.41307 5.73946,-15.73947 10,-19.99997 2.48997,-2.49 -1.65632,-8.85932 -1.53125,-9.84375 -2.02886,0.25482 -8.1063,0.95005 -9.875,2.71875 -13.02185,13.0218 -8.41594,13.1143 -22.46875,-1.03125 1.64351,-1.25628 4.58719,-3.96219 9.59375,-8.96875 4.27941,-4.27941 8.78049,-7.34299 12.875,-11.4375 11.8458,-11.84581 4.6595,-19.94399 -7.25,-19.78125 z m 17.125,38.5 c 0.78305,-0.0983 1.0904,-0.15625 0.125,-0.15625 -0.079,0 -0.1144,0.0728 -0.125,0.15625 z m -23.03125,-24.625 c 5.12036,-0.20298 7.26393,4.83193 -9.71875,11.625 -0.0544,-8.14251 5.73624,-11.46712 9.71875,-11.625 z"
       id="path7263"
       inkscape:connector-curvature="0" />
    <path
       style="fill:#d50065;stroke:#000000;stroke-width:1px;stroke-linecap:butt;stroke-linejoin:miter;stroke-opacity:1;fill-opacity:1"
       d="m 811.42857,935.21933 c -1.18087,6.56861 -9.56331,64.7224 -5.71428,68.57137 1.66667,1.6667 6.90476,-0.2381 8.57143,1.4286 0.98926,0.9893 5.71269,4.2889 7.14285,1.4286 4.67706,-9.35407 -2.07056,-30.78658 7.14286,-40 0.95238,-0.95238 3.33334,-0.47619 4.28572,-1.42857 0.96049,-0.9605 2.21978,-2.06593 4.28571,0 11.13888,11.13887 -2.77048,27.3162 1.42857,35.71427 1.76661,3.5332 10.6483,1.1044 12.85714,0 2.77814,-1.38907 7.14286,3.3921 7.14286,0 0,-10.39257 -3.82465,-21.88957 2.85714,-28.57142 10.21308,-10.21307 13.3306,30.47342 14.28572,31.42852 0.3168,0.3168 6.43883,-2.8571 7.14286,-2.8571 4.31354,0 6.77221,-0.6873 8.57142,-4.28567 1.81525,-3.6305 -6.28797,-39.71885 -8.57142,-44.28575 -1.74434,-3.48866 -8.0927,-6.66412 -10,-8.57142 -3.07194,-3.07194 -17.99832,-2.00169 -20,0 -0.58848,0.58847 -2.23047,5.71428 -2.85715,5.71428 -0.95238,0 0.42592,-2.00531 0,-2.85714 -2.04172,-4.08345 -3.30792,-6.16507 -5.71428,-8.57143 -8.89371,-8.89371 -13.91475,4.28571 -17.14286,4.28571 -3.36717,0 0.95238,-7.61904 -1.42857,-10 -3.62848,-3.62848 -9.47093,-0.0317 -14.28572,2.85715 z"
       id="path7267"
       inkscape:connector-curvature="0" />
    <path
       style="fill:#d50065;stroke:#000000;stroke-width:1px;stroke-linecap:butt;stroke-linejoin:miter;stroke-opacity:1;fill-opacity:1"
       d="m 935.71429,936.6479 c -0.92951,-1.58876 -20.44633,-12.41081 -32.85714,0 -12.70686,12.70686 20.84995,28.84276 24.28571,35.71428 1.34263,2.68527 -0.57043,6.28475 -1.42857,7.14285 -15.08869,15.0887 -16.02899,-1.42856 -24.28572,-1.42856 -0.29902,0 -2.46523,7.92666 -1.42857,9.99996 1.57768,3.1554 1.81628,8.9592 4.28572,11.4286 4.79487,4.79487 22.52807,14.45027 31.42857,9.99997 3.48996,-1.745 10.81529,-3.0591 12.85714,-7.1428 6.67936,-13.35867 -13.78757,-33.78759 -20,-40.00002 -7.39459,-7.39458 13.48107,-4.28571 14.28572,-4.28571 0.51735,0 9.68784,-18.06243 -7.14286,-21.42857 z"
       id="path7269"
       inkscape:connector-curvature="0" />
  </g>
</svg>
