<?xml version="1.0" encoding="UTF-8" standalone="no"?>
<!-- Created with Inkscape (http://www.inkscape.org/) -->

<svg
   xmlns:dc="http://purl.org/dc/elements/1.1/"
   xmlns:cc="http://creativecommons.org/ns#"
   xmlns:rdf="http://www.w3.org/1999/02/22-rdf-syntax-ns#"
   xmlns:svg="http://www.w3.org/2000/svg"
   xmlns="http://www.w3.org/2000/svg"
   xmlns:sodipodi="http://sodipodi.sourceforge.net/DTD/sodipodi-0.dtd"
   xmlns:inkscape="http://www.inkscape.org/namespaces/inkscape"
   width="1052.3622"
   height="744.09448"
   id="svg131832"
   version="1.1"
   inkscape:version="0.48.3.1 r9886"
   sodipodi:docname="require_or_spawn.svg"
   inkscape:export-filename="/home/substack/projects/talks/hujs/images/require_or_spawn.png"
   inkscape:export-xdpi="100"
   inkscape:export-ydpi="100">
  <defs
     id="defs131834" />
  <sodipodi:namedview
     id="base"
     pagecolor="#3c1823"
     bordercolor="#666666"
     borderopacity="1.0"
     inkscape:pageopacity="1"
     inkscape:pageshadow="2"
     inkscape:zoom="0.59454974"
     inkscape:cx="561.22554"
     inkscape:cy="320.37193"
     inkscape:document-units="px"
     inkscape:current-layer="layer1"
     showgrid="false"
     inkscape:window-width="1364"
     inkscape:window-height="766"
     inkscape:window-x="0"
     inkscape:window-y="0"
     inkscape:window-maximized="0" />
  <metadata
     id="metadata131837">
    <rdf:RDF>
      <cc:Work
         rdf:about="">
        <dc:format>image/svg+xml</dc:format>
        <dc:type
           rdf:resource="http://purl.org/dc/dcmitype/StillImage" />
        <dc:title></dc:title>
      </cc:Work>
    </rdf:RDF>
  </metadata>
  <g
     inkscape:label="Layer 1"
     inkscape:groupmode="layer"
     id="layer1"
     transform="translate(0,-308.2677)">
    <path
       style="fill:#431624;stroke:none;stroke-width:1px;stroke-linecap:butt;stroke-linejoin:miter;stroke-opacity:1;fill-opacity:1"
       d="m 264.06537,-19.50857 c -1.12129,-2.242593 -1.85951,-4.721944 -3.36389,-6.72778 -1.50437,-2.005837 5.60649,5.606483 3.36389,6.72778 -3.36389,1.681945 -6.72778,-6.72778 -10.09167,-5.045835 -6.95959,3.479794 -14.16675,4.803148 -21.86528,6.72778 -26.86558,6.716394 -85.0599,33.736236 -105.96254,50.458352 C 112.72253,43.370403 101.84904,56.405712 90.825033,69.634518 71.930915,92.307459 57.791876,120.26045 47.094461,147.00399 35.869332,175.06681 28.038784,263.63158 42.048626,291.65126 c 6.225884,12.45177 8.810526,27.71273 15.137506,40.36669 1.753595,3.50719 9.972266,18.62079 8.409725,20.18334 -28.765665,28.76566 -37.000156,77.35629 -45.412516,119.41809 -2.516414,12.58207 -3.623796,26.2688 -6.727781,38.68474 -1.583007,6.33203 1.583008,13.85131 0,20.18334 -12.64497234,50.57989 -0.04803,107.54843 21.865286,151.37506 7.256672,14.51334 22.376922,27.42275 33.638901,38.68473 44.928963,44.92896 99.110713,52.96577 159.784783,60.55002 11.31591,1.41449 22.32788,5.31391 33.6389,6.72778 34.61743,4.32718 68.75481,24.42236 104.28059,18.5014 22.4415,-3.74025 90.26022,-18.22211 109.32643,-13.45556 13.3187,3.32967 27.04209,5.07858 40.36668,8.40972 10.07969,2.51993 20.75219,7.96449 30.27501,11.77362 25.76974,10.30789 58.5871,11.2598 85.7792,6.72778 43.41303,-7.23551 90.71252,-28.18917 127.82782,-50.45835 15.59248,-9.35549 30.72413,-22.08985 47.09446,-30.27501 34.8265,-17.41325 75.23762,-24.77926 104.2806,-53.82224 9.95916,-9.95917 16.23125,-21.44561 23.54723,-33.63891 3.35946,-5.59909 10.14626,-9.622 13.45556,-15.1375 4.16223,-6.93706 6.87467,-17.0153 11.77361,-23.54723 6.74154,-8.98871 15.21693,-20.34219 20.18334,-30.27501 4.47748,-8.95495 6.44792,-22.14791 8.40973,-31.95696 4.2505,-21.25253 13.90261,-41.26086 23.54721,-60.55002 31.921,-63.84195 66.3765,-169.33708 52.1403,-240.51814 -1.0696,-5.34794 1.3209,-11.53605 0,-16.81945 C 1052.6324,184.62802 1013.434,137.51439 972.16424,110.0012 959.37609,101.47577 949.32837,83.801441 938.52534,72.998408 924.38324,58.856312 867.1145,23.965619 847.7003,17.494221 806.28146,3.6879408 766.47796,-6.0530096 721.55443,-6.0530096 c -19.61106,0 -43.60675,13.496834 -63.91392,6.72778021 C 631.11676,-8.1664796 613.23307,-28.05367 580.27104,-34.646075 c -6.57668,-1.315337 -13.69458,-0.05976 -20.18334,-1.681945 -17.52908,-4.382272 -34.46045,-10.717544 -52.1403,-15.137506 -35.53745,-8.884363 -88.72581,-7.147624 -124.46393,0 -4.51242,0.902484 -40.17002,3.26556 -40.36668,3.36389 -14.35852,7.179258 -28.6567,12.646407 -43.73057,20.183341 -4.08592,2.04296 -8.38632,10.09167 -10.09167,10.09167 -7.16201,0 -6.27586,0.225962 -13.45556,-3.36389 -3.45471,-1.727353 -8.75169,3.495101 -11.77362,1.681945 -1.92301,-1.153805 -2.24259,-6.72778 0,-6.72778 2.2426,0 0,4.485187 0,6.72778 z"
       id="path4195"
       inkscape:connector-curvature="0"
       transform="translate(0,308.2677)" />
    <path
       style="fill:#4c1928;stroke:#ffffff;stroke-width:1px;stroke-linecap:butt;stroke-linejoin:miter;stroke-opacity:0;fill-opacity:1"
       d="m 339.7529,96.545638 c -11.25077,-6.135451 -24.48745,-6.492725 -37.00279,-3.36389 -3.67096,0.91774 -8.06796,-0.741132 -11.77362,0 -12.51543,2.503087 -26.8693,7.047442 -38.68473,11.773612 -45.64301,18.2572 -108.78277,86.27189 -95.87087,137.9195 0.90571,3.62285 -1.17741,8.24138 0,11.77361 6.24142,18.72425 52.03729,55.71019 43.73057,72.32364 -6.98381,13.96763 -19.68782,25.92009 -26.91112,40.36668 -13.35949,26.71898 -19.22804,52.40961 -25.22918,82.41531 -1.92218,9.61094 -4.20232,25.23933 -1.68194,35.32084 9.92648,39.70592 30.41307,75.77957 65.59586,99.23476 11.32817,7.55212 17.46149,16.55948 31.95695,20.18334 5.71861,1.42966 9.4189,6.98008 15.13751,8.40973 26.00555,6.50139 51.58031,12.0541 77.36947,18.50139 15.48575,3.87144 62.99745,-7.18601 70.64169,-3.36389 19.48396,9.74198 32.3398,33.71547 57.18613,38.68474 31.15865,6.23173 59.6813,-4.40817 89.14309,-11.77362 12.80466,-3.20116 23.72481,-14.63605 35.32085,-18.50139 6.08325,-2.02775 12.71245,-10.56109 18.50139,-13.45556 2.70275,-1.35137 34.17645,7.28265 38.68474,8.40972 12.4137,3.10343 31.60904,-4.30347 43.73057,-6.72778 55.89264,-11.17852 115.85736,-76.54636 148.01116,-119.41809 7.30299,-9.73732 9.67986,-22.4375 16.81946,-31.95696 4.11148,-5.48198 11.21395,-13.45853 13.45556,-20.18334 1.64155,-4.92466 0.66361,-10.04584 1.68194,-15.13751 2.91,-14.55 8.79613,-28.84314 11.77362,-43.73057 1.40162,-7.0081 -1.40163,-14.85718 0,-21.86528 3.56111,-17.80557 4.38927,-36.26516 0,-53.82225 -1.29476,-5.17903 1.68288,-11.77079 0,-16.81945 -9.89728,-29.69183 -30.05136,-48.6273 -55.50419,-65.59585 -11.8431,-7.8954 -28.81833,-10.72741 -42.04863,-15.13751 -8.88542,-2.96181 -29.63937,2.31759 -35.32084,-3.36389 -4.65409,-4.65409 -4.91753,-41.6637 -8.40973,-52.14029 -4.0266,-12.0798 -13.15952,-18.05735 -20.18334,-28.59307 -1.60928,-2.41392 -3.64838,-6.87002 -6.72778,-8.40973 -11.63451,-5.81725 -26.07329,-12.61563 -38.68474,-16.81945 -5.31249,-1.77083 -11.79697,-0.85265 -16.81945,-3.36389 -11.46659,-5.7333 -30.84685,7.28283 -38.68473,3.36389 -7.28867,-3.64433 -9.88015,-15.872713 -18.5014,-20.183337 -11.44761,-5.723808 -22.1977,-12.780797 -33.6389,-18.501395 -5.35535,-2.677677 -9.69719,-9.960179 -15.1375,-11.773616 -60.49952,-20.166505 -139.79033,-21.676401 -185.01396,23.547231 -5.04101,5.041014 -17.40606,6.070582 -26.91112,11.773615 z"
       id="path4193"
       inkscape:connector-curvature="0"
       transform="translate(0,308.2677)" />
    <path
       style="fill:#541c2c;stroke:#ffffff;stroke-width:1px;stroke-linecap:butt;stroke-linejoin:miter;stroke-opacity:0;fill-opacity:1"
       d="m 438.98766,168.86928 c -29.63743,2.18887 -2.90128,34.85823 -16.81945,48.7764 -6.58324,6.58324 -81.38122,-6.07993 -97.55282,10.09167 -9.53007,9.53008 -31.3288,39.94105 -21.86528,58.86808 3.07759,6.15519 10.09167,16.33965 10.09167,20.18334 0,4.10583 13.87216,18.08479 8.40972,23.54723 -17.56867,17.56868 -51.67101,67.0037 -40.36668,100.9167 2.43049,7.29146 -0.0295,16.76034 3.36389,23.54723 5.20018,10.40036 13.10239,24.16965 16.81945,35.32085 9.26138,27.78414 54.00328,6.72778 70.6417,6.72778 7.74525,0 20.35405,-7.4834 28.59306,-3.36389 7.0362,3.5181 10.01334,14.25737 18.5014,18.5014 13.09409,6.54704 26.62765,10.55783 40.36668,15.1375 16.43365,5.47788 65.44141,-6.57333 75.68753,-16.81945 4.60887,-4.60888 6.65595,-11.70179 10.09167,-15.1375 3.13036,-3.13037 39.30031,16.28626 43.73057,18.50139 13.98003,6.99002 44.16878,4.89977 58.86807,0 7.25588,-2.41863 14.54994,-7.65322 21.86529,-10.09167 5.25225,-1.75075 11.77994,-13.03982 16.81945,-16.81945 38.44791,-28.83594 53.38985,-90.87266 42.04863,-136.23755 -7.20988,-28.8395 -5.33843,-47.16761 -38.68474,-55.50419 -14.23124,-3.55781 -28.20482,0.38825 -35.32085,-6.72778 -7.90897,-7.90897 19.59818,-47.67963 1.68195,-65.59585 -8.41796,-8.41796 -17.38637,-15.42097 -30.27501,-21.86529 -5.15549,-2.57774 -12.85402,5.64738 -16.81945,1.68195 -3.01255,-3.01255 -3.20321,-9.77032 -5.04584,-13.45556 -1.47949,-2.959 -7.30493,-7.01636 -10.09167,-8.40973 -11.48256,-5.74128 -18.81156,-21.1794 -30.27501,-26.91112 -7.15208,-3.57604 -22.15129,-5.18884 -25.22917,-6.72778 -1.23427,-0.61713 -5.51392,-3.36389 -6.72778,-3.36389 -2.5073,0 -4.22049,3.36389 -6.72778,3.36389 -19.16434,0 -38.46134,2.41122 -53.82225,10.09167 -3.24462,1.62231 -8.52899,0.0596 -11.77361,1.68195 -8.61154,4.30576 -8.08632,10.09167 -20.18334,10.09167 z"
       id="path4191"
       inkscape:connector-curvature="0"
       transform="translate(0,308.2677)" />
    <path
       style="fill:#5d1f31;stroke:#ffffff;stroke-width:1px;stroke-linecap:butt;stroke-linejoin:miter;stroke-opacity:0;fill-opacity:1"
       d="m 511.3113,222.69152 c 1.93662,-0.60425 -13.79608,-4.03461 -25.22918,1.68194 -22.8679,11.43395 2.46461,25.67882 -13.45556,33.6389 -14.58963,7.29482 -56.40406,-12.55568 -70.64169,1.68195 -3.94026,3.94026 -11.12648,-1.29429 -16.81945,10.09167 -2.52763,5.05525 -5.54189,18.00534 -1.68195,21.86528 1.25102,1.25102 23.89681,13.10599 20.18334,16.81945 -10.97452,10.97452 -8.49953,52.05049 1.68195,62.23197 0.87408,0.87408 -11.57236,8.20846 -20.18334,16.81945 -6.9574,6.9574 -2.51453,21.03271 1.68194,25.22918 7.9643,7.9643 42.46064,-1.26994 43.73057,0 2.99528,2.99527 1.34046,9.75018 5.04584,13.45556 3.43204,3.43204 10.58013,3.85235 13.45556,6.72778 12.95422,12.95422 32.60566,13.13121 48.7764,5.04583 10.27069,-5.13534 9.9838,-18.39352 15.13751,-23.54723 5.14923,-5.14923 16.03181,5.94014 16.81945,6.72778 2.06165,2.06165 9.29277,0.88304 11.77362,3.36389 20.16319,20.1632 60.55002,-17.22118 60.55002,-37.00279 0,-16.94105 -0.83254,-29.42561 -11.77362,-40.36668 -5.91378,-5.91378 -40.36668,8.64231 -40.36668,15.13751 0,0.88338 0,-4.2246 0,-6.72778 0,-4.55448 19.17478,-29.26646 21.86529,-31.95696 3.84911,-3.84912 5.04583,-11.49191 5.04583,-16.81945 0,-1.81547 -6.28981,-3.80186 -5.04583,-5.04584 3.82512,-3.82512 11.6292,-6.58336 15.1375,-10.09167 6.03334,-6.03333 -0.82185,-27.73297 -5.04583,-31.95695 -5.90533,-5.90533 -13.30162,-1.68195 -15.13751,-1.68195 -1.77292,0 -0.4283,-3.79218 -1.68194,-5.04583 -2.5753,-2.5753 -7.17477,-5.49282 -10.09167,-8.40973 -3.08634,-3.08633 -3.41016,-6.82031 -5.04584,-10.09167 -6.40721,-12.81442 -28.98176,-13.71421 -38.68473,-11.77361 z"
       id="path4189"
       inkscape:connector-curvature="0"
       transform="translate(0,308.2677)" />
    <path
       style="fill:#de2121;fill-opacity:1;stroke:#421c1c;stroke-width:4;stroke-linecap:round;stroke-linejoin:round;stroke-miterlimit:4;stroke-opacity:1;stroke-dasharray:none"
       d="m 65.245625,390.89804 c 4.038902,-1.28063 -25.840481,-5.36292 -29.762025,2.48017 -5.291322,10.58264 -7.216959,38.6999 -3.306892,50.4301 1.232771,3.6983 -0.910038,8.1006 0.826727,11.57412 0.959697,1.9194 -1.376189,5.51486 -0.826727,6.61378 3.550624,7.10125 -0.106889,17.04052 2.480173,24.80169 1.409673,4.22902 -1.976137,10.92875 0,14.88101 1.762657,3.52532 -0.889357,8.9687 0.826719,12.40085 4.590894,9.18179 -1.734435,28.85431 2.480166,33.06892 0.879967,0.87995 4.275481,0.89765 5.787065,1.65344 5.924443,2.96222 12.548655,-4.47308 18.187902,-1.65344 1.481222,0.7406 12.277305,2.12857 16.534459,0 0.472945,-0.23648 1.271735,-2.09846 2.480172,-3.3069 0.26543,-0.26543 -1.653451,-13.50071 -1.653451,-17.36118 0,-10.65177 -0.826721,-24.50097 -0.826721,-33.89564 0,-1.23241 -1.102301,-2.20459 -1.653444,-3.30689 -0.784455,-1.56892 1.192491,-6.24801 0,-7.44051 -2.269639,-2.26964 -3.017956,-15.95658 -4.960337,-19.84135 -0.99207,-1.98414 0.992068,-5.45637 0,-7.44051 -3.574385,-7.14876 2.866425,-33.26204 10.747396,-37.20253 10.309298,-5.15465 32.361103,-8.85615 38.855973,4.13362 3.28636,6.57269 -2.09242,16.9222 3.3069,22.32152 0.33954,0.33954 16.85529,-1.97429 17.36118,-2.48017 2.71398,-2.71399 7.48105,1.61291 9.92067,-0.82673 1.59678,-1.59677 -0.28633,-5.21441 0.82672,-7.4405 4.45278,-8.90555 -1.84405,-23.33885 -8.26722,-29.76203 -1.97418,-1.97417 -3.74853,-8.90141 -7.44052,-10.7474 -6.2068,-3.1034 -9.51386,-6.82373 -15.70773,-9.92067 -3.99242,-1.99622 -8.95368,-0.34323 -13.22756,-2.48016 -1.50303,-0.75152 -4.7708,1.65344 -7.44051,1.65344 -3.202649,0 -6.03444,0.12369 -9.09395,1.65344 -2.109518,1.05476 -5.628948,-0.15812 -7.440509,1.65345 -4.688192,4.68819 -10.772878,9.94616 -14.881007,14.05429 -3.654504,12.6314 -2.717105,-1.22147 -4.133619,-8.26723 z"
       id="path131897"
       inkscape:connector-curvature="0"
       sodipodi:nodetypes="cssssssssssssssssssssssssssssssscc" />
    <path
       style="fill:#de2121;stroke:#421c1c;stroke-width:4;stroke-linecap:round;stroke-linejoin:round;stroke-miterlimit:4;stroke-opacity:1;stroke-dasharray:none;fill-opacity:1"
       d="m 213.91205,379.69895 c -1.51991,-0.0295 -2.79428,0.079 -3.17151,0.45617 -2.20573,2.20573 -8.28512,2.07891 -9.08008,2.47639 -6.8013,3.40065 -9.82887,7.06165 -17.35641,11.57818 -19.46315,25.35544 -26.45822,55.91186 -26.45822,87.62926 0,5.29189 -1.25091,19.82905 0.82547,23.98182 2.25957,4.51915 4.99198,9.21945 6.60368,14.05457 1.47759,4.43272 8.12162,22.25761 13.22911,23.96011 4.66263,1.5542 35.99818,11.14001 39.68732,7.45087 2.97574,-2.97574 10.49877,-2.78386 14.88003,-4.97449 5.16151,-2.58075 25.05196,-14.5439 28.10913,-20.65826 2.04451,-4.08902 3.21978,-8.93765 4.95278,-12.40364 0.85709,-1.7142 2.47638,-3.77689 2.47638,-5.77824 0,-6.5806 2.34674,-18.33323 -2.47638,-23.15636 -2.79508,-2.79507 -17.64477,1.65092 -21.48373,1.65092 -2.47463,0 -5.79995,2.83921 -5.79995,1.65093 -0.13393,0.43676 -0.82546,5.34658 -0.82546,10.75272 0,5.10559 -2.47526,19.02849 -10.731,23.15636 -4.80547,2.40273 -9.06379,2.47639 -15.72721,2.47639 -19.2427,0 -17.95674,-11.14964 -24.78557,-24.80729 -0.52187,-1.04375 0.79366,-4.15913 0,-4.95277 -0.96451,-0.96451 0.13905,-4.00998 -0.82546,-4.97449 -1.70208,-1.70208 -2.55971,-6.75223 -2.73706,-12.88154 3.23867,-0.37182 7.00873,-0.55288 10.16621,0.49961 4.25361,1.41787 7.39551,0 12.40364,0 16.63051,0 43.31201,-1.47114 52.91643,-20.67997 3.82404,-7.64809 4.95277,-24.0522 4.95277,-31.41098 0,-4.23617 -8.06982,-25.37899 -11.57818,-28.91288 -0.004,-0.004 0.004,-0.0183 0,-0.0217 -0.20257,-0.71222 -0.46257,-1.28802 -0.82546,-1.65092 -7.27036,-7.27036 -16.0038,-14.05457 -30.58553,-14.05457 -0.98794,0 -4.22259,-0.40705 -6.75574,-0.45617 z m 5.71306,40.25211 c 6.36496,-0.22732 12.8136,2.79802 13.40289,6.73402 0.004,0.0209 -0.003,0.0442 0,0.0652 0.0761,1.30058 0.0434,2.744 0.0434,4.64865 0,0.77945 1.65092,0.8932 1.65092,1.67264 0,1.77715 -2.47638,2.66204 -2.47638,4.12732 0,0.87143 1.44166,1.86018 0.82546,2.47638 -2.564,2.56399 -4.28555,3.61833 -5.77823,6.60369 -5.01963,10.03926 -25.77264,6.62542 -36.38547,6.62542 -1.57571,0 -3.73305,-0.14308 -5.45239,-0.43446 0.81456,-3.32242 1.83106,-5.87148 2.976,-7.01642 1.54881,-1.54881 0.75413,-7.35782 2.47639,-9.08008 5.96182,-5.96182 13.74521,-10.58718 22.3309,-14.88003 1.94956,-0.97478 4.1608,-1.46282 6.38647,-1.54231 z"
       id="path131925"
       inkscape:connector-curvature="0" />
    <path
       style="fill:#de2121;fill-opacity:1;stroke:#421c1c;stroke-width:4;stroke-linecap:round;stroke-linejoin:round;stroke-miterlimit:4;stroke-opacity:1;stroke-dasharray:none"
       d="m 340.69476,380.74497 c -1.69444,0.0165 -3.46864,0.10944 -5.29685,0.26707 -2.58356,-0.77844 -13.77489,3.6263 -20.31943,10.17084 -2.2365,2.2365 -7.09463,4.53523 -9.32512,6.76572 -3.30844,3.30843 -6.50544,9.91056 -9.30287,12.70799 -2.77994,2.77994 -6.07647,16.22506 -8.47941,18.628 -3.31455,3.31455 -2.5907,13.60725 -5.0743,16.09085 -3.71834,3.71834 -0.85512,11.03537 -3.38286,16.09085 -6.23222,12.46444 7.08952,64.70946 13.53145,71.15139 l 9.32513,9.32512 9.32512,9.32513 c 1.73457,1.73456 14.03692,3.98697 16.93657,2.53715 3.07095,-1.53548 22.41749,-5.48093 23.72454,-6.78799 1.17779,-1.17778 3.56623,-1.02908 5.0743,-2.53714 0.22352,-0.22352 0.46022,-0.44363 0.68992,-0.66767 0.10454,1.43287 0.15579,2.7879 0.15579,4.05053 0,11.07652 -1.72453,59.27826 3.38287,64.38566 0.67605,0.67605 -0.44432,3.33995 0,4.22858 2.53471,5.06943 10.93826,11.0726 16.09085,5.92001 0.98817,-0.98818 4.10837,0.14245 5.09655,-0.84572 1.24932,-1.24933 3.19036,-2.34464 4.22857,-3.38286 0.80758,-0.80758 2.53715,-31.30847 2.53715,-34.71885 0,-1.53306 -1.87622,-4.72697 -0.84572,-6.78798 3.61246,-7.22492 1.97422,-63.23171 -1.31308,-73.555 0.14769,-0.3214 0.30053,-0.64557 0.46737,-0.97925 1.64725,-3.2945 -0.59702,-30.00092 -1.69143,-41.50682 -0.49453,-5.19924 0,-16.67221 0,-22.01086 0,-12.66374 -7.43142,-32.83462 -12.70799,-41.50683 -6.21371,-10.21244 -16.44753,-16.51776 -32.82712,-16.35792 z m -0.31158,41.4178 c 5.47015,-0.0446 10.97574,1.89542 15.35642,6.2761 2.31807,2.31808 2.53714,13.09261 2.53714,16.09085 0,14.44095 -0.0767,30.20557 3.38287,44.04398 -4.46221,-0.33643 -1.93897,20.58922 -8.45716,27.10741 -4.84666,4.84666 -26.19477,10.23776 -33.04967,3.38286 -2.35143,-2.35142 -3.21314,-5.75029 -5.92001,-8.45715 -0.39154,-0.39155 0.2557,-2.02575 0,-2.53715 -2.86228,-5.72457 -2.06216,-12.62598 -5.07429,-18.65025 -0.79055,-1.58109 0.79053,-4.33894 0,-5.92001 -1.91851,-3.83703 -2.98198,-22.8794 -0.86798,-27.10741 5.1983,-10.3966 8.13569,-19.97571 15.2674,-27.10741 4.47358,-4.47359 10.62578,-7.0713 16.82528,-7.12182 z"
       id="path3786"
       inkscape:connector-curvature="0" />
    <path
       style="fill:#de2121;fill-opacity:1;stroke:#421c1c;stroke-width:4;stroke-linecap:round;stroke-linejoin:round;stroke-miterlimit:4;stroke-opacity:1;stroke-dasharray:none"
       d="m 422.64738,385.47594 c -0.20468,1.29008 -7.14955,-1.90499 -19.48117,0 -5.11816,5.11816 -5.08205,32.88208 -5.08205,42.3504 0,15.5856 -0.45189,64.31584 4.23504,73.68969 0.6776,1.35522 -0.67761,3.72684 0,5.08205 8.08371,16.16744 19.85831,30.25735 35.57433,38.11536 2.46124,1.23062 32.64806,10.54935 36.42134,6.77606 1.26637,-1.26636 4.78996,-1.40192 5.92905,-2.54102 3.37777,-3.37777 8.31274,-9.15974 11.85812,-12.70512 3.16946,-3.16945 3.85504,-9.7841 7.62307,-13.55213 2.51538,-2.51538 5.10661,-22.89378 7.62307,-25.41024 2.8052,-2.8052 -0.0298,-36.36178 1.69402,-39.80937 1.02768,-2.05537 0.71414,-31.60503 -0.84701,-34.72733 -1.24228,-2.48455 1.24228,-6.83253 0,-9.31708 -1.32477,-2.64954 -0.84701,-6.14538 -0.84701,-9.31709 0,-15.29229 -2.41146,-17.29888 -13.55213,-22.86922 -1.25486,-0.62743 -4.49511,0 -5.92905,0 -8.58768,0 -6.25059,3.18409 -9.31709,9.31709 -2.24582,4.49165 0,16.04189 0,21.1752 0,18.04392 3.21782,74.70691 -5.92906,83.85379 -0.58685,0.58685 -0.26015,3.64818 -0.847,4.23504 -1.46019,1.46019 -2.567,4.26101 -4.23504,5.92906 -2.45747,2.45746 -19.64507,10.00021 -24.56323,5.08205 -3.6205,-3.62051 -5.17773,-8.56577 -8.47008,-11.85812 -0.87302,-0.87302 -0.821,-4.20903 -1.69402,-5.08205 -0.57877,-0.57877 -1.6468,-24.65766 0,-27.95126 2.67042,-5.34084 -0.84701,-16.67358 -0.84701,-22.02221 0,-5.81371 -1.47429,-18.85389 1.69402,-22.0222 0.70548,-0.70548 -0.84701,-25.55905 -0.84701,-27.10426 0,-5.49329 -3.66756,-9.31709 -10.1641,-9.31709 z"
       id="path3820"
       inkscape:connector-curvature="0"
       sodipodi:nodetypes="ccsssssssssssssssssssssssssssc" />
    <path
       style="fill:#de2121;fill-opacity:1;stroke:#421c1c;stroke-width:4;stroke-linecap:round;stroke-linejoin:round;stroke-miterlimit:4;stroke-opacity:1;stroke-dasharray:none"
       d="m 548.85157,388.6318 c -12.75615,-0.81463 -20.32818,26.90212 -20.32818,48.27946 0,5.19782 0.0943,34.06887 1.69401,37.26835 1.81333,3.62667 2.54102,10.22986 2.54102,14.39913 0,5.26004 3.30744,46.50486 5.08205,48.27946 2.0224,2.0224 4.92704,9.23958 8.47008,11.01111 14.18592,7.09295 13.51157,0.88755 22.02221,-7.62308 4.57381,-4.57381 -1.20288,-14.53441 1.69401,-20.32819 3.12773,-6.25546 2.8506,-32.41418 0,-38.11536 -2.33566,-4.67132 0,-16.68356 0,-22.02221 0,-7.9082 -4.25956,-43.24644 -6.77606,-48.27945 -2.44488,-4.88976 1.34643,-12.20569 -2.54103,-16.09315 -5.16591,-5.16592 -1.28387,-8.89091 -11.85811,-6.77607 z"
       id="path3835"
       inkscape:connector-curvature="0"
       sodipodi:nodetypes="csssssssssssc" />
    <path
       sodipodi:nodetypes="cssssssssssssssssssssssssssssssscc"
       inkscape:connector-curvature="0"
       id="path3837"
       d="m 632.74097,390.89804 c 4.0389,-1.28063 -25.84049,-5.36292 -29.76203,2.48017 -5.29132,10.58264 -7.21695,38.6999 -3.30689,50.4301 1.23277,3.6983 -0.91003,8.1006 0.82673,11.57412 0.9597,1.9194 -1.37619,5.51486 -0.82673,6.61378 3.55062,7.10125 -0.10689,17.04052 2.48017,24.80169 1.40968,4.22902 -1.97613,10.92875 0,14.88101 1.76266,3.52532 -0.88935,8.9687 0.82672,12.40085 4.5909,9.18179 -1.73443,28.85431 2.48017,33.06892 0.87997,0.87995 4.27548,0.89765 5.78706,1.65344 5.92445,2.96222 12.54866,-4.47308 18.18791,-1.65344 1.48122,0.7406 12.2773,2.12857 16.53445,0 0.47295,-0.23648 1.27174,-2.09846 2.48018,-3.3069 0.26543,-0.26543 -1.65346,-13.50071 -1.65346,-17.36118 0,-10.65177 -0.82672,-24.50097 -0.82672,-33.89564 0,-1.23241 -1.1023,-2.20459 -1.65344,-3.30689 -0.78445,-1.56892 1.19249,-6.24801 0,-7.44051 -2.26964,-2.26964 -3.01795,-15.95658 -4.96034,-19.84135 -0.99207,-1.98414 0.99207,-5.45637 0,-7.44051 -3.57438,-7.14876 2.86643,-33.26204 10.7474,-37.20253 10.3093,-5.15465 32.3611,-8.85615 38.85597,4.13362 3.28636,6.57269 -2.09242,16.9222 3.3069,22.32152 0.33954,0.33954 16.8553,-1.97429 17.36118,-2.48017 2.71398,-2.71399 7.48105,1.61291 9.9207,-0.82673 1.59679,-1.59677 -0.28636,-5.21441 0.8267,-7.4405 4.45278,-8.90555 -1.84405,-23.33885 -8.26723,-29.76203 -1.97418,-1.97417 -3.74853,-8.90141 -7.44051,-10.7474 -6.20681,-3.1034 -9.51387,-6.82373 -15.70774,-9.92067 -3.99241,-1.99622 -8.95368,-0.34323 -13.22756,-2.48016 -1.50303,-0.75152 -4.7708,1.65344 -7.44051,1.65344 -3.20265,0 -6.03444,0.12369 -9.09395,1.65344 -2.10952,1.05476 -5.62895,-0.15812 -7.44051,1.65345 -4.68819,4.68819 -10.77288,9.94616 -14.881,14.05429 -3.6545,12.6314 -2.71711,-1.22147 -4.13362,-8.26723 z"
       style="fill:#de2121;fill-opacity:1;stroke:#421c1c;stroke-width:4;stroke-linecap:round;stroke-linejoin:round;stroke-miterlimit:4;stroke-opacity:1;stroke-dasharray:none" />
    <path
       style="fill:#de2121;stroke:#421c1c;stroke-width:4;stroke-linecap:round;stroke-linejoin:round;stroke-miterlimit:4;stroke-opacity:1;stroke-dasharray:none;fill-opacity:1"
       d="m 784.5625,379.68922 c -1.01729,0.0358 -1.81082,0.18587 -2.09375,0.46875 -2.2057,2.20573 -8.26749,2.07127 -9.0625,2.46875 -6.80126,3.40065 -9.84746,7.07722 -17.375,11.59375 -19.46314,25.35544 -26.46875,55.9076 -26.46875,87.625 0,5.29189 -1.23262,19.81598 0.84375,23.96875 2.25954,4.51915 4.98201,9.22738 6.59375,14.0625 1.47757,4.43272 8.14252,22.26625 13.25,23.96875 4.66265,1.5542 35.96715,11.12664 39.65625,7.4375 2.97578,-2.97574 10.52498,-2.77812 14.90625,-4.96875 5.16153,-2.58075 25.03657,-14.54189 28.09375,-20.65625 2.04453,-4.08902 3.23573,-8.94026 4.96875,-12.40625 0.85704,-1.7142 2.46875,-3.7799 2.46875,-5.78125 0,-6.5806 2.35436,-18.33312 -2.46875,-23.15625 -2.79509,-2.79507 -17.66106,1.65625 -21.5,1.65625 -2.47462,0 -5.78125,2.84453 -5.78125,1.65625 -0.13396,0.43676 -0.84375,5.34386 -0.84375,10.75 0,5.10559 -2.463,19.02838 -10.71875,23.15625 -4.80544,2.40273 -9.08662,2.46875 -15.75,2.46875 -19.24272,0 -17.95235,-11.15485 -24.78125,-24.8125 -0.52181,-1.04375 0.79366,-4.14386 0,-4.9375 -0.96451,-0.96451 0.15201,-4.00424 -0.8125,-4.96875 -1.70211,-1.70208 -2.57267,-6.77694 -2.75,-12.90625 3.23864,-0.37182 7.03005,-0.55249 10.1875,0.5 4.25365,1.41787 7.39812,0 12.40625,0 16.63051,0 43.30184,-1.44742 52.90625,-20.65625 3.82406,-7.64809 4.9375,-24.07872 4.9375,-31.4375 0,-4.23617 -8.05408,-25.37236 -11.5625,-28.90625 0,-0.004 0.007,-0.0279 0,-0.0312 -0.20255,-0.71222 -0.48089,-1.2621 -0.84375,-1.625 -7.27038,-7.27036 -15.98073,-14.0625 -30.5625,-14.0625 -0.98794,0 -4.21684,-0.41963 -6.75,-0.46875 -0.37996,-0.007 -0.75465,-0.0119 -1.09375,0 z m -3.21875,29.625 c 7.04862,-0.34356 21.16636,4.33269 22.34375,15.09375 0.56471,0.7118 0.94137,1.47215 1.0625,2.28125 0.007,0.0209 0,0.0415 0,0.0625 0.0762,1.30058 0.0625,2.7516 0.0625,4.65625 0,0.77945 1.625,0.87681 1.625,1.65625 0,1.77715 -2.46875,2.65972 -2.46875,4.125 0,0.87143 1.46,1.8838 0.84375,2.5 -2.564,2.56399 -4.28859,3.60839 -5.78125,6.59375 -5.01959,10.03926 -25.7934,6.625 -36.40625,6.625 -1.5757,0 -3.71815,-0.14612 -5.4375,-0.4375 0.62633,-2.55458 1.38706,-4.64655 2.21875,-6 0.27822,-2.68945 1.75,-6.58849 1.75,-9.9375 0,-1.97548 1.05592,-12.96217 4.75,-16.65625 3.41336,-3.41336 8.04493,-5.63868 11.90625,-9.5 0.6144,-0.6144 1.88344,-0.98218 3.53125,-1.0625 z"
       id="path3839"
       inkscape:connector-curvature="0" />
    <path
       style="fill:#de2121;fill-opacity:1;stroke:#421c1c;stroke-width:4;stroke-linecap:round;stroke-linejoin:round;stroke-miterlimit:4;stroke-opacity:1;stroke-dasharray:none"
       d="m 890.924,337.82188 c -6.5969,-0.58192 -5.19939,10.17075 -11.28586,21.2735 -8.72528,15.91638 -13.64674,36.05013 -16.70143,55.1693 -0.78672,4.92402 1.31027,10.67084 0.15157,15.50602 -8.76361,36.56996 0.31273,80.87351 17.85466,109.47268 3.27911,5.34603 5.7849,12.55054 9.73328,15.86847 4.09525,3.44136 10.10937,4.57595 16.12284,6.95761 14.53611,5.7571 12.69783,-18.75868 12.16231,-24.93089 -0.28917,-3.33284 -11.63336,-17.46517 -13.59628,-19.11466 -8.15686,-6.85444 -14.60281,-38.63456 -19.20691,-42.50351 -2.1461,-1.80343 0.70756,-5.60409 0.46526,-8.39684 -0.19483,-2.2455 -4.72236,-12.68114 -2.52131,-15.30043 0.15589,-0.1855 11.15211,-44.04664 13.55806,-50.12143 2.39583,-6.04922 5.65593,-9.94737 8.14247,-16.22564 1.57972,-3.98863 1.23731,-8.90179 2.52658,-12.15705 4.43947,-11.20922 11.42851,-18.74485 15.40849,-28.79389 3.36903,-8.50649 -12.2861,-14.71825 -14.57553,-16.64213 -4.37935,-3.68008 -16.40015,8.1874 -18.2382,9.93889 z"
       id="path3845"
       inkscape:connector-curvature="0" />
    <path
       style="fill:#de2121;fill-opacity:1;stroke:#421c1c;stroke-width:4;stroke-linecap:round;stroke-linejoin:round;stroke-miterlimit:4;stroke-opacity:1;stroke-dasharray:none"
       d="m 950.26248,330.6872 c -1.95551,1.73221 -15.16075,14.87247 -5.94658,33.30081 2.59081,5.18162 2.36589,11.8804 5.94658,15.46109 1.47516,1.47517 4.65784,12.98305 7.13589,15.46109 2.40073,2.40073 1.87279,14.95526 4.75726,17.83973 2.47118,2.47118 2.65739,21.68642 4.75725,23.78629 4.00807,4.00806 4.75726,19.22485 4.75726,26.16493 0,15.16468 -6.09207,45.33945 -14.27177,53.51916 -5.81619,5.81618 -11.35764,12.01144 -14.27178,17.83972 -1.66903,3.33805 -7.61753,8.55123 -4.75726,14.27178 6.61163,13.22326 7.98591,6.79659 13.08246,11.89315 2.20111,2.20111 6.74112,-1.98386 7.13589,-2.37863 0.59466,-0.59466 2.97329,0.59465 3.56795,0 4.67591,-4.67592 11.36461,-8.98598 15.46109,-13.08247 5.28978,-5.28978 4.6615,-11.79739 9.51452,-16.6504 4.55714,-4.55714 5.03289,-16.92604 9.51451,-21.40767 2.06257,-2.06256 1.74694,-7.69351 3.56795,-9.51452 6.867,-6.86703 4.2284,-17.97131 7.1359,-23.78629 2.4578,-4.91563 -1.2095,-9.4741 1.1893,-14.27178 9.4278,-18.85561 -8.73842,-60.29217 -15.46109,-73.73751 -5.15255,-10.3051 -5.90794,-23.74766 -13.08246,-30.92219 -7.8609,-7.86089 -11.92946,-34.46834 -29.73287,-23.78629 z"
       id="path3847"
       inkscape:connector-curvature="0" />
    <path
       style="fill:#de2121;fill-opacity:1;stroke:#421c1c;stroke-width:4;stroke-linecap:round;stroke-linejoin:round;stroke-miterlimit:4;stroke-opacity:1;stroke-dasharray:none"
       d="m 530.92474,341.87302 c -0.25335,-1.10765 -0.86117,-7.05597 4.27629,-11.61162 3.18064,-2.82043 13.86434,-8.50363 18.07282,-6.07387 9.09127,5.24885 17.78527,19.65336 10.91646,31.55048 -3.98313,6.899 -11.87213,9.7858 -20.63698,7.9922 -0.4024,-0.0823 -2.18153,0.19711 -2.45148,0.0412 -2.24242,-1.29467 -4.87874,-4.75889 -7.17037,-6.08196 -3.19989,-1.84746 -2.97243,-13.77658 -3.00674,-15.81648 z"
       id="path3865"
       inkscape:connector-curvature="0" />
    <path
       style="fill:#28c150;fill-opacity:1;stroke:#153d21;stroke-width:4;stroke-linecap:round;stroke-linejoin:round;stroke-opacity:1;stroke-miterlimit:4;stroke-dasharray:none"
       d="M 215.53125 430.5625 C 187.85613 430.5091 146.6917 470.6959 158.09375 493.5 C 160.28414 497.88077 161.88763 503.98138 164.84375 506.9375 C 171.80683 513.90058 181.50352 516.12676 190.0625 520.40625 C 217.87076 534.31038 220.18926 538.62852 233.78125 565.8125 C 235.0551 568.36018 237.23413 577.40674 235.46875 580.9375 C 232.46849 586.93802 225.76691 592.04125 217.625 595.5625 C 211.91817 596.13647 202.83873 598.77623 201 596.9375 C 200.5907 596.5282 197.49718 594.67569 194.15625 592.90625 C 189.15251 586.84825 184.1875 579.11933 184.1875 573.375 C 184.1875 572.93379 173.6558 559.49956 171.5625 557.40625 C 170.55398 556.39773 168.76161 557.27143 167.34375 556.5625 C 159.34393 552.56259 154.06724 558.90151 150.53125 562.4375 C 149.68732 563.28143 149.62715 565.16558 149.90625 567.21875 C 149.80211 567.22105 149.69672 567.21592 149.59375 567.21875 C 149.71231 567.27355 149.82115 567.34874 149.9375 567.40625 C 150.43615 570.83797 151.85101 574.69477 152.21875 575.0625 C 153.26261 576.10637 155.1385 589.33949 156.40625 591.875 C 162.9525 604.9675 169.52279 611.02202 182.71875 616.375 C 197.17622 628.8397 219.0111 627.19253 238.53125 626.0625 C 246.52352 622.73846 253.60814 618.32936 259.03125 612.90625 C 261.43188 610.50561 262.29404 602.89346 265.75 599.4375 C 268.14368 597.04382 274.52964 588.43427 270.78125 580.9375 C 264.95607 569.28715 266.37523 557.00045 260.6875 545.625 C 253.69582 531.64164 235.13489 520.07238 227.0625 512 C 225.29784 510.23533 219.59787 509.56662 216.96875 506.9375 C 216.07781 506.04656 215.09334 504.68278 214.0625 503.0625 C 203.51403 500.67839 192.81429 480.63405 203 474.34375 C 203.0147 473.46791 203.18789 472.81211 203.53125 472.46875 C 207.60133 468.39867 214.25878 468.45997 217.8125 464.90625 C 219.19166 463.52709 227.74624 468.69555 232.9375 471 C 234.90244 480.41929 248.2462 499.5587 251.4375 502.75 C 252.31762 503.63012 254.92391 504.46195 256.5 505.25 C 258.89675 506.44837 261.43634 505.4725 263.59375 503.375 C 271.016 502.02291 279.58373 485.82372 275.84375 478.34375 C 268.87559 464.40744 245.72795 427.75793 225.625 432.8125 C 222.59205 431.26893 219.18645 430.56955 215.53125 430.5625 z "
       transform="translate(0,308.2677)"
       id="path3995" />
    <path
       style="fill:#28c150;fill-opacity:1;stroke:#153d21;stroke-width:4;stroke-linecap:round;stroke-linejoin:round;stroke-opacity:1;stroke-miterlimit:4;stroke-dasharray:none"
       d="m 338.12222,732.48645 c -0.67232,0.0339 -1.33263,0.13194 -1.90625,0.3125 -6.05871,1.90714 -11.05956,3.51293 -16.6875,5.875 -0.44081,0.18501 -0.90506,0.45006 -1.375,0.8125 -9.85203,-1.8717 -24.84832,2.3262 -29.6875,16.84375 -5.41104,16.23312 -6.20593,56.2572 -0.84375,72.34375 1.70461,5.11382 -0.82695,11.80038 0.84375,16.8125 0.0196,0.0588 0.0435,0.12642 0.0625,0.1875 0.16587,5.17959 0.47419,10.39608 0.96875,15.59375 -0.28792,13.15141 -1.875,29.92464 -1.875,37.1875 0,34.49715 1.6875,68.55503 1.6875,105.125 0,8.1797 -1.75557,24.3382 3.34375,29.4375 0.82465,0.8246 1.77422,1.5118 2.78125,2.0937 4.11007,5.0254 11.47888,8.4325 17.40625,5.4688 0.50775,-0.2539 2.1425,0.3888 2.53125,0 7.60967,-7.6097 15.99923,-41.1578 10.09375,-52.96875 -1.85612,-3.71226 0.46294,-9.16787 -0.84375,-11.78125 -3.23085,-6.46171 2.96788,-27.68925 -0.84375,-35.3125 -0.5605,-1.12101 -0.83251,-2.99641 -0.96875,-5.25 1.71592,1.02937 3.53174,1.93201 5.40625,2.71875 5.37415,2.25555 15.02569,-0.11186 20.03125,-1.6875 6.83609,-2.15184 17.96029,0.0815 24.03125,-7.5625 5.48382,-6.90473 12.61136,-12.19025 17.375,-20.1875 10.44023,-17.52716 19.5709,-68.19995 14.03125,-89.125 -0.92405,-11.30283 -5.80064,-26.53043 -6.6875,-27.75 -2.23085,-2.80888 -3.71207,-13.84649 -6,-17.6875 -13.17602,-22.12002 -23.07896,-41.1875 -46.75,-41.1875 -1.79164,0 -4.10803,-0.41407 -6.125,-0.3125 z m 4.65625,31.125 c 2.09576,-0.0161 3.96138,0.55513 5.375,1.96875 0.45287,0.45287 0.87636,0.94889 1.25,1.4375 2.03191,0.25304 4.51231,-0.15795 5.53125,1.125 1.29493,1.63045 4.47088,3.10592 6,5.03125 3.47027,4.36944 7.04146,9.32367 8.6875,13.46875 1.68793,4.25058 2.84691,8.95591 3.46875,14.125 1.02349,3.49623 1.85481,6.85112 2.53125,9.40625 0.7943,3.0003 -0.49496,6.97772 0,10.09375 1.33159,8.38304 3.78398,19.76624 2.03125,28.59375 -1.37764,6.93838 -2.65471,14.09841 -4.03125,21.03125 -1.27504,6.42163 -5.71526,11.50493 -7.34375,17.65625 -3.11106,11.75148 -12.27497,20.1875 -22.03125,20.1875 -0.91231,0 -3.21485,0.45992 -4.34375,0.125 -5.53973,-0.47666 -18.65625,-3.99228 -18.65625,-10.25 0,-3.01002 -2.44281,-21.75531 -3.375,-22.6875 -1.02328,-1.02328 0,-8.48581 0,-10.09375 0,-19.86832 -0.8125,-35.28676 -0.8125,-56.34375 0,-4.07602 -2.46559,-16.87816 -0.84375,-18.5 3.25999,-3.25999 2.5669,-12.6919 5.875,-16 2.83202,-2.83202 13.20264,-10.31765 20.6875,-10.375 z"
       id="path3940"
       inkscape:connector-curvature="0" />
    <path
       style="fill:#28c150;fill-opacity:1;stroke:#153d21;stroke-width:4;stroke-linecap:round;stroke-linejoin:round;stroke-opacity:1;stroke-miterlimit:4;stroke-dasharray:none"
       d="m 480.89038,733.96508 c -3.1345,0.17936 -6.44957,0.86009 -9.97775,2.14154 -4.3794,1.59063 -9.94003,0.50872 -14.23123,2.06731 -13.67402,4.96648 -30.05547,15.69479 -34.51584,30.36768 -0.30939,1.01777 -2.15354,1.58 -2.46293,2.59778 -0.73355,2.41308 0.10174,5.13577 -0.64201,7.58229 -0.85201,2.80294 -2.03436,11.35478 -0.46304,14.29865 4.41353,8.26877 7.29524,5.05831 11.97852,7.246 6.08426,2.84215 11.7649,0.0572 16.61792,-4.00657 1.43724,-2.53904 2.43474,-7.17501 2.42845,-7.41107 -0.0187,-0.70107 3.53395,-2.89241 4.09612,-3.48534 0.68189,-0.71923 0.0716,-2.67705 0.75355,-3.39628 2.90698,-3.06615 8.69503,-4.83531 11.57562,-7.87363 1.06281,-1.12099 5.70974,-0.85154 5.85044,-0.99995 0.6313,-0.66586 2.06724,-0.17391 3.74157,0.80688 6.30806,0.11814 13.00971,2.77316 18.37207,7.85716 2.49229,2.36292 1.56131,9.71039 2.86779,13.30747 -1.64388,5.6285 -1.71171,10.52031 -1.27773,20.22959 -1.80016,1.89871 -3.13199,5.09351 -6.56781,6.9274 -6.54629,3.49414 -15.66409,-4.16621 -20.97834,1.43902 -0.65312,0.68887 -3.34701,-0.35212 -4.21725,0.11237 -16.38565,8.74597 -35.47354,11.08638 -44.60601,30.63655 -2.03819,4.36322 -2.64505,9.26162 -4.6707,13.59798 -1.00906,2.16014 -0.68516,7.50147 0.24639,9.24672 0.70722,1.32497 0.0934,11.14134 1.22386,14.25371 3.87455,10.66764 11.45864,24.31426 22.68756,31.37555 8.76298,5.5106 19.66088,6.73609 29.67344,8.46259 5.93115,1.02274 19.18326,5.12715 25.30847,1.85777 3.3163,-1.7701 7.24258,-3.20461 11.09324,-4.85971 1.29733,1.62283 4.11047,1.99724 5.66834,2.72498 7.99189,3.73324 8.29146,3.33053 15.02974,-3.77669 3.4504,-3.63932 2.92566,-19.26563 1.93703,-31.7191 3.74729,-9.88667 -8.01038,-34.26427 -4.81905,-44.76252 1.86988,-6.1512 -0.287,-13.71756 1.15,-20.19405 1.83433,-8.26737 0.0653,-58.47507 -3.25516,-64.69597 -7.46206,-13.98022 -19.26541,-32.25069 -38.272,-31.9919 -0.43997,0.006 -0.89548,0.0102 -1.34327,0.0358 z m -1.98595,108.50738 c 1.05187,-0.005 1.95833,0.69959 2.30958,1.03259 1.15076,1.09104 4.74463,-0.40406 5.89539,0.68696 2.01384,1.90931 2.37361,5.53897 4.38745,7.44828 5.29188,5.01717 5.22756,23.44977 5.2158,33.84182 -1.89712,4.11929 -3.84217,15.74309 -9.60952,21.82621 -2.31923,2.4462 -5.99821,2.99204 -10.03107,2.48683 -2.86996,-0.71421 -6.18597,-1.65129 -8.97634,-2.51178 -4.8848,-1.995 -9.27975,-4.68733 -11.46537,-6.7595 -1.49552,-1.41789 -3.60897,-3.02389 -5.49879,-4.5739 -1.73435,-2.15815 -2.88419,-4.92938 -3.17413,-7.66817 0.005,-0.53238 0.004,-0.87888 -0.0883,-0.96674 -0.005,-0.005 0.004,-0.0259 -8.3e-4,-0.0312 -0.005,-0.20193 -0.14872,-0.39436 -0.39068,-0.58355 -1.14895,-2.43827 -1.21995,-9.79358 0.0777,-11.16228 0.58596,-0.61804 -1.72217,-6.82298 -0.22392,-8.40327 1.90423,-2.00848 2.03533,-7.31759 4.79184,-10.22502 4.15447,-4.38194 10.51843,-9.53012 17.51111,-12.72096 3.48015,-0.28125 6.53746,-0.55871 8.18337,-1.43724 0.37258,-0.19886 0.73608,-0.27748 1.0867,-0.27904 z"
       id="path4009"
       inkscape:connector-curvature="0"
       sodipodi:nodetypes="csssscssccccsccsccsssssssssscsscsssccccsscsccscccccssscccc" />
    <path
       style="fill:#28c150;fill-opacity:1;stroke:#153d21;stroke-width:4;stroke-linecap:round;stroke-linejoin:round;stroke-opacity:1;stroke-miterlimit:4;stroke-dasharray:none"
       d="m 661.6875,421.6875 c -0.60955,0.0302 -1.15264,0.12319 -1.53125,0.3125 -5.03192,2.51596 -10.75864,4.73603 -13.4375,10.09375 -4.84188,9.68375 -4.51861,19.97473 -9.25,29.4375 -0.44851,0.89704 0.44852,2.47797 0,3.375 -3.63076,7.26154 -7.59375,22.82741 -7.59375,31.9375 0,4.1517 -4.615,55.51876 -5.87222,55.51876 -1.1213,0 0,-2.2537 0,-3.375 l 0,-13.46875 c 0,-5.74618 -2.34966,-49.42814 -5.87778,-52.95626 -2.34657,-2.34657 -7.23151,-3.70599 -10.09375,-0.84375 -0.42049,0.42049 -2.11077,-0.42048 -2.53125,0 -3.13691,3.13691 -7.35905,8.81185 -10.09375,14.28125 -1.49277,2.98553 -6.55748,43.57902 -6.71597,43.73751 -0.7974,0.7974 -4.84516,15.37359 -5.90625,14.3125 -1.99331,-1.99331 -0.84653,-72.05322 -0.84653,-79.89376 0,-3.53771 -2.33293,-10.26082 -0.8125,-11.78125 10e-6,-9.42278 -6.73563,-26.7523 -14.3125,-31.125 -9.92814,0.0586 -19.7747,7.98035 -22.71875,16.8125 -3.80082,11.40247 -9.48056,63.41388 -4.1875,74 2.67251,5.34501 -0.28042,15.12751 1.6875,21.03125 0.53824,1.61473 -1.495,3.10874 -0.84375,5.0625 3.16107,9.4832 2.8043,20.22539 5.875,29.4375 0.50458,1.51375 -0.50458,3.5175 0,5.03125 2.7972,8.3916 4.49297,25.52422 10.09375,31.125 0.58267,0.58267 0.26108,3.60483 0.84375,4.1875 1.59902,1.59902 2.79257,6.45878 5.0625,7.59375 1.4622,0.7311 3.89351,1.36226 5.03125,2.5 1.17528,1.17528 8.18687,-2.28062 8.40625,-2.5 1.16939,-1.1694 1.03393,-3.56518 2.53125,-5.0625 5.1996,-5.1996 15.17663,-14.38451 19.34375,-22.71875 0.44404,-0.88807 2.33914,-4.4095 4.03125,-7.40625 1.63424,3.74012 3.60461,7.55296 4.375,9.09375 0.18661,0.37322 0.39817,0.95472 0.625,1.59375 0.41922,1.88449 0.89109,3.47621 1.40625,4.4375 0.01,0.0185 0.0213,0.0444 0.0312,0.0625 3.06825,10.07055 8.18513,27.43368 15.28125,22.59375 3.61948,0.41617 9.15626,1.99999 12.09375,-0.9375 4.04119,-4.04119 12.59375,-18.70966 12.59375,-23.53125 0,-6.12829 0.51574,-15.31273 4.21875,-22.71875 1.76685,-3.5337 -0.0713,-9.07613 1.6875,-12.59375 2.87168,-5.74334 2.84223,-13.30946 5.03125,-17.6875 12.01931,-24.03862 12.625,-55.41435 12.625,-84.09375 0,-6.58987 -0.16773,-37.3042 -2.53125,-42.03125 -0.86041,-1.7208 -5.07737,-2.97459 -7.71875,-2.84375 z"
       transform="translate(0,308.2677)"
       id="path4077"
       inkscape:connector-curvature="0"
       sodipodi:nodetypes="ssssssssssssssssccssssssssssssscsccccssssssss" />
    <path
       style="fill:#28c150;fill-opacity:1;stroke:#153d21;stroke-width:4;stroke-linecap:round;stroke-linejoin:round;stroke-opacity:1;stroke-miterlimit:4;stroke-dasharray:none"
       d="m 707,736.2677 c -0.33917,-0.009 -0.69267,0.0106 -1.03125,0.0312 -7.47769,0.4556 -14.7014,8.08075 -15.53125,20.03125 -1.18536,17.0701 -6.20593,56.2572 -0.84375,72.34375 1.70461,5.11382 -0.82695,11.80038 0.84375,16.8125 0.0196,0.0588 0.0435,0.12642 0.0625,0.1875 0.16587,5.17959 0.47419,10.39608 0.96875,15.59375 -0.28792,13.15141 -1.875,29.92464 -1.875,37.1875 0,1.13809 0.0277,2.26901 0.0312,3.40625 0.8822,0.99923 0.30362,6.38384 0.0625,10.25 0.0115,1.01893 0.0489,2.04358 0.0625,3.0625 0.96169,3.97291 7.18864,21.75115 9.09375,23.65625 1.00062,1.00062 15.65618,4.53132 18.5,1.6875 0.88905,-0.88905 1.3542,-1.6875 3.375,-1.6875 5.71397,0 7.19775,-17.17725 4.1875,-20.1875 -1.5981,-1.59809 -0.84375,-8.9788 -0.84375,-6.71875 0,0.46908 0.71542,-5.32974 0.8125,-10.65625 -1.01226,-1.09137 -1.65625,-2.30691 -1.65625,-3.65625 0,-3.01002 -2.44281,-21.75531 -3.375,-22.6875 -1.02328,-1.02328 0,-8.48581 0,-10.09375 0,-19.86832 -0.8125,-35.28676 -0.8125,-56.34375 0,-2.03257 -0.61761,-6.22106 -1.03125,-10.125 -10e-4,-0.0104 10e-4,-0.0208 0,-0.0312 1.37405,-2.52662 -0.64052,-5.84396 1.03125,-9.1875 4.0982,-8.19641 4.64404,-15.97153 11.76944,-16.8125 6.00645,-0.7681 10.64579,1.48572 14.3125,5.03403 0.80405,0.80405 3.70585,4.83933 6.34375,8.5625 1.6626,4.21957 2.82142,8.87876 3.4375,14 1.02349,3.49623 1.85481,6.85112 2.53125,9.40625 0.7943,3.0003 -0.49496,6.97772 0,10.09375 1.26236,7.94721 3.51074,18.58124 2.25,27.1875 -0.0979,0.19183 -0.18319,0.36639 -0.28125,0.5625 -0.15471,0.30941 -0.15151,0.83292 -0.0625,1.5 10e-4,0.0112 -0.002,0.02 0,0.0312 -0.0486,0.24139 -0.10945,0.47992 -0.15625,0.71875 0.0885,-0.02 0.19152,-0.043 0.28125,-0.0625 0.59011,3.05912 2.42469,7.91906 1.625,8.71875 -1.76841,1.76842 -3.72445,66.57402 0,74.02292 2.23367,4.46732 10.67885,7.25571 16.80417,4.19305 4.0534,-2.0267 9.37873,-1.88176 11.80139,-6.72708 2.46824,-4.93649 4.39005,-39.08657 1.65625,-44.55417 -0.62085,-1.2417 0.84375,-20.07057 0.84375,-23.5625 0,-2.45747 1.37586,-12.70922 0.53125,-16.46875 -0.002,-0.009 0.002,-0.0223 0,-0.0312 0.65229,-10.08286 0.33904,-19.17482 -1.34375,-25.53125 -0.92405,-11.30283 -5.80064,-26.53043 -6.6875,-27.75 -2.23085,-2.80888 -3.71207,-13.84649 -6,-17.6875 -7.03473,-22.00057 -16.55953,-33.76218 -36.84375,-30.96875 -0.0373,-0.0389 -0.0551,-0.0864 -0.0937,-0.125 -1.31769,-1.31768 -10.89303,1.6875 -16,1.6875 -0.68248,0 -3.18156,1.54347 -5.46875,3.09375 C 717.1615,739.92068 712.08753,736.40339 707,736.2677 z"
       id="path4095"
       inkscape:connector-curvature="0"
       sodipodi:nodetypes="ccsssccscccssssscssssccsccccsscsccccssssssccccccsscc" />
    <path
       inkscape:connector-curvature="0"
       id="path4128"
       d="m 844.22635,710.04972 c -7.36692,-0.64984 -5.80629,11.35792 -12.60319,23.75663 -9.74373,17.7742 -15.23964,40.25803 -18.65088,61.60886 -0.87855,5.49877 1.46321,11.91638 0.16926,17.31594 -9.78653,40.83855 0.34923,90.31337 19.93872,122.25075 3.66186,5.97003 6.46014,14.01548 10.86939,17.72069 4.57326,3.84305 11.28937,5.11008 18.00475,7.76973 16.23282,6.42909 14.17997,-20.94826 13.58194,-27.84092 -0.32292,-3.72186 -12.99125,-19.50377 -15.18328,-21.34579 -9.10896,-7.65452 -16.30731,-43.14413 -21.44882,-47.46468 -2.3966,-2.01393 0.79015,-6.25822 0.51957,-9.37695 -0.21757,-2.5076 -5.27357,-14.16133 -2.81561,-17.08635 0.17409,-0.20716 12.45383,-49.18793 15.14061,-55.97179 2.67548,-6.75531 6.31611,-11.10847 9.09289,-18.11956 1.76411,-4.4542 1.38173,-9.94084 2.82149,-13.57607 4.95766,-12.5176 12.76249,-20.93282 17.20703,-32.15482 3.76227,-9.4994 -13.72018,-16.43622 -16.27684,-18.58466 -4.89053,-4.10963 -18.31444,9.14306 -20.36703,11.09899 z"
       style="fill:#28c150;fill-opacity:1;stroke:#153d21;stroke-width:4;stroke-linecap:round;stroke-linejoin:round;stroke-miterlimit:4;stroke-opacity:1;stroke-dasharray:none" />
    <path
       inkscape:connector-curvature="0"
       id="path4130"
       d="m 910.49104,702.08226 c -2.18377,1.9344 -16.93037,16.60844 -6.64069,37.1878 2.89322,5.78644 2.64205,13.26713 6.64069,17.26577 1.64734,1.64736 5.20152,14.49848 7.96881,17.26576 2.68096,2.68096 2.09139,16.7009 5.31255,19.92205 2.75963,2.75963 2.96757,24.21775 5.31253,26.56272 4.47591,4.4759 5.31255,21.46885 5.31255,29.219 0,16.93476 -6.80316,50.63164 -15.93763,59.76612 -6.49507,6.49506 -12.68334,13.41346 -15.93763,19.92203 -1.86385,3.72768 -8.50668,9.54937 -5.31255,15.93764 7.38337,14.76673 8.91806,7.58991 14.6095,13.28136 2.45803,2.45804 7.52797,-2.21542 7.96882,-2.65627 0.66407,-0.66407 3.32034,0.66406 3.98441,0 5.2217,-5.22171 12.69113,-10.03486 17.26577,-14.6095 5.90722,-5.90723 5.2056,-13.17443 10.62509,-18.5939 5.08906,-5.08907 5.62034,-18.90171 10.62508,-23.90645 2.30332,-2.30331 1.95085,-8.59153 3.98441,-10.6251 7.66854,-7.66857 4.72196,-20.06898 7.96883,-26.56271 2.74468,-5.4894 -1.35068,-10.57995 1.32812,-15.93764 10.52825,-21.0565 -9.7584,-67.32969 -17.26577,-82.34442 -5.75397,-11.50795 -6.59753,-26.51958 -14.60949,-34.53155 -8.77845,-8.77844 -13.32191,-38.49161 -33.2034,-26.56271 z"
       style="fill:#28c150;fill-opacity:1;stroke:#153d21;stroke-width:4;stroke-linecap:round;stroke-linejoin:round;stroke-miterlimit:4;stroke-opacity:1;stroke-dasharray:none" />
    <g
       id="g4170">
      <path
         inkscape:connector-curvature="0"
         id="path4132"
         d="m 502.29976,546.01043 c -1.10499,0.0293 -2.54764,0.3806 -4.45351,1.14294 -0.59279,-0.0139 -2.93334,1.41315 -5.99057,7.52762 -1.11576,2.23152 0.37245,16.87296 1.41882,24.82933 -5.09762,-0.0405 -9.55735,-0.11818 -10.44408,-0.11818 -6.60837,0 -42.01829,1.12049 -47.25455,-1.49764 -1.21561,-0.60782 -10.55519,0.43495 -12.72995,0 -6.53099,-2.23106 -13.91296,-0.31464 -21.0064,6.7788 -2.2671,2.2671 7.78959,5.99057 8.98585,5.99057 2.71533,0 8.0716,1.76964 10.52291,2.99528 3.34281,1.67141 28.53673,0.74882 34.48517,0.74882 12.66468,0 25.57381,0.17555 38.6234,0.35471 -0.58948,8.66251 -1.94297,19.81226 -1.10353,20.65169 4.45899,4.459 -0.82824,15.60582 2.24646,21.75522 0.87195,1.7439 0.36605,7.10544 1.49765,8.23703 3.72977,3.72978 3.7441,15.29469 3.7441,19.50876 0,0.52134 2.40758,3.1564 2.99528,3.7441 1.11711,1.1171 1.92947,4.48859 3.07411,7.40939 -0.0251,0.0255 -0.0537,0.0537 -0.0788,0.0788 -0.37497,0.37499 0.37498,1.87148 0,2.24646 l -4.49293,4.49293 c -1.84016,1.84015 -2.09898,6.63133 -3.7441,8.27644 -0.62498,0.62497 -2.37031,0.12385 -2.99529,0.74882 -3.60386,3.60386 -4.9487,5.64134 -10.5229,8.98585 -1.2544,3.62249 -18.13615,7.02887 -22.50404,15.76465 -0.8634,1.72679 0.78823,3.86498 0.78823,5.24175 0,10.21398 14.50304,2.48316 17.9717,0.74882 3.92423,-1.9621 6.82331,-5.28624 9.02527,-7.48821 3.655,-3.65499 19.65772,-16.14142 21.7158,-20.25757 0.67387,-1.34776 1.53789,-2.7087 2.48294,-4.0594 1.24262,2.35343 2.09694,4.85575 4.29586,7.05468 2.10616,2.10614 6.48311,4.23664 8.98586,6.73939 7.94216,7.94217 14.39765,15.01583 26.24814,15.01583 0.45765,0 2.70307,0.29221 2.99528,0 5.80387,-5.80387 15.01583,-9.84356 15.01583,-19.50876 0,-4.80352 -3.7441,-9.3797 -3.7441,-11.98113 0,-0.762 0.41685,-2.58387 0.63059,-3.07411 -0.32805,-0.128 -3.26466,-2.00674 -5.16293,-2.95587 -1.00403,-0.50202 -4.01957,1.81253 -4.49292,2.28587 -0.83207,0.83207 -0.79357,4.53767 -1.49765,5.24175 -2.87791,2.87792 -3.31254,8.77008 -8.23703,11.23231 -10.61411,5.30707 -17.30092,-15.80328 -24.00168,-22.50404 0.23536,-0.23498 0.52613,-0.52612 0.74882,-0.74882 0.66506,-0.66506 0.29686,-2.09135 0.74882,-2.99528 0.51677,-1.03353 1.75543,-1.00662 2.24647,-1.49764 0.90928,-0.90928 0.73039,-3.72568 1.49764,-4.49293 2.46277,-2.46276 5.26691,-6.76455 7.48821,-8.98585 2.06799,-2.06798 2.0126,-7.25435 4.53234,-9.77408 0.49998,-0.49998 -0.49998,-2.49531 0,-2.99529 3.70954,-3.70955 3.49583,-10.23522 6.73938,-13.47877 1.18679,-1.18678 1.83394,-9.36156 3.74411,-11.27173 3.24392,-3.24392 -3.98741,-17.72841 -8.23703,-13.47878 -1.87491,1.87491 -4.15507,3.36684 -6.02998,5.24175 -1.47638,1.47638 -0.41764,5.65937 -1.49764,6.73939 -2.11973,2.11971 -3.62297,6.61825 -5.99057,8.98585 -1.81224,1.81224 -4.15327,16.92263 -6.73939,19.50876 -1.51417,1.51417 -2.10396,5.09924 -3.7441,6.73938 -0.67126,0.67126 -1.28309,1.49969 -1.89176,2.32529 -1.64833,-2.86046 -4.61286,-5.79522 -6.38468,-7.56703 -1.3864,-1.3864 -0.57984,-6.40141 -1.49765,-8.23703 -1.63421,-3.26842 -0.74882,-7.3939 -0.74882,-10.4835 0,-3.66043 -1.97422,-15.22019 -3.7441,-18.75993 -0.59997,-1.19994 0.59998,-3.29298 0,-4.49293 -0.69181,-1.38362 -2.74845,-7.27247 -2.24646,-8.27644 0.50242,-1.00486 0.96701,-2.95945 1.3794,-5.47821 10.46541,0.13488 20.98443,0.23647 31.60813,0.23647 10.14519,0 21.82019,-0.8138 26.99696,-5.99057 0.44106,-0.44106 4.26819,-1.76181 2.28588,-3.74411 -4.09976,-4.09975 -42.49846,-10.65448 -50.24983,-6.7788 -0.89254,0.44627 -4.60682,0.67336 -9.1435,0.78824 0.59109,-10.30009 0.53619,-20.58845 -0.63058,-21.75522 -2.70998,-2.71 1.43461,-11.82363 -4.53234,-11.66585 z m 66.68448,139.08364 c 0.0194,0.008 0.11817,0.0844 0.11817,0.0788 0,-0.26873 -0.0429,-0.2517 -0.11817,-0.0788 z"
         style="fill:#ae3fe8;fill-opacity:1;stroke:#340d48;stroke-width:4;stroke-linecap:round;stroke-linejoin:round;stroke-miterlimit:4;stroke-opacity:1;stroke-dasharray:none" />
      <path
         inkscape:connector-curvature="0"
         id="path4134"
         d="m 521.0888,547.91241 c -0.99994,0.49997 -2.49988,2.49988 -2.99986,1.49992 -0.49996,-0.99995 3.7904,-2.29045 2.99986,-1.49992 -0.23633,0.23634 -8.25436,5.24501 -5.99972,7.49964 3.73748,3.73747 23.16701,24.41485 28.49869,21.749 7.30717,-3.65359 4.1413,-9.35807 0,-13.49938 -2.94927,-2.94926 -5.7863,-7.76792 -9.74955,-9.74954 -5.62693,-2.81346 -5.66737,-3.16691 -12.74942,-5.99972 z"
         style="fill:#ae3fe8;fill-opacity:1;stroke:#340d48;stroke-width:4;stroke-linecap:round;stroke-linejoin:round;stroke-miterlimit:4;stroke-opacity:1;stroke-dasharray:none" />
      <path
         inkscape:connector-curvature="0"
         id="path4140"
         d="m 440.84252,688.15592 c 0.28424,1.12365 -10.25009,0.50054 -13.49938,3.74983 -0.83926,0.83924 -6.36855,-0.94054 -8.24961,0 -4.61118,2.30558 -10.94825,2.69863 -14.24934,5.99972 -7.51955,7.51954 14.2539,6.37698 16.49923,7.49965 1.82642,0.9132 6.7757,-0.013 8.24962,-0.74997 4.348,-2.174 11.44545,0.65199 15.74928,-1.49993 2.47613,-1.23808 12.27978,-2.53022 13.49937,-3.74983 4.32565,-4.32565 14.51992,-6.88497 20.24906,-9.74955 0.84229,-0.42114 3.92666,-0.17683 4.4998,-0.74996 2.62787,-2.62787 8.36756,-8.13167 5.24975,-11.24947 -3.04987,-3.04988 -41.82196,10.49951 -47.99778,10.49951 z"
         style="fill:#ae3fe8;fill-opacity:1;stroke:#340d48;stroke-width:4;stroke-linecap:round;stroke-linejoin:round;stroke-miterlimit:4;stroke-opacity:1;stroke-dasharray:none" />
      <path
         inkscape:connector-curvature="0"
         id="path4142"
         d="m 449.80347,610.96079 c -11.91293,-0.12877 -24.3034,0.99564 -29.20401,2.95588 -4.20591,2.25065 -2.99529,8.74454 -2.99529,14.97642 0,0.16719 -2.10135,13.9768 -2.24646,14.26701 -0.36598,0.73195 1.24879,4.99063 0.74882,5.99056 -2.20145,4.40289 0.37372,19.88248 2.99528,22.50404 1.24264,1.24262 4.78543,2.70278 5.24175,2.24646 0.99039,-0.99038 2.54344,-4.3482 2.91646,-4.0988 -0.10102,-0.95065 -0.22754,-3.08305 0.0788,-3.3894 0.9224,-0.9224 0.95199,-2.45204 0.86706,-4.29587 10.89413,1.70145 28.5451,0.0164 37.24399,-1.0247 -0.12107,4.31882 0.27968,7.68906 1.65529,9.06467 2.17355,2.17355 9.7539,0.71036 11.23231,-2.24646 2.14372,-4.28741 -0.20662,-50.45643 -2.24646,-52.49629 -2.94508,-2.94508 -14.37463,-4.32474 -26.28756,-4.45352 z m 10.04997,11.74467 c 3.29082,-0.0458 5.56637,0.009 5.75409,0.19706 3.53086,3.53085 1.89193,16.21546 0.70941,27.66696 -7.19787,-1.12665 -27.78546,2.14128 -38.78104,1.06412 -0.80563,-9.20131 -2.07652,-23.85632 -0.94588,-24.98698 0.71214,-0.71212 1.66932,-1.58347 2.99529,-2.24646 1.14442,-0.57221 20.39563,-1.55726 30.26813,-1.6947 z m -32.59342,47.13631 c 0.0138,0.12574 0.0673,0.2455 0.0788,0.31529 0,-0.17701 -0.0367,-0.26855 -0.0788,-0.31529 z"
         style="fill:#ae3fe8;fill-opacity:1;stroke:#340d48;stroke-width:4;stroke-linecap:round;stroke-linejoin:round;stroke-miterlimit:4;stroke-opacity:1;stroke-dasharray:none" />
    </g>
  </g>
</svg>
