<?xml version="1.0" encoding="UTF-8" standalone="no"?>
<!-- Created with Inkscape (http://www.inkscape.org/) -->

<svg
   xmlns:dc="http://purl.org/dc/elements/1.1/"
   xmlns:cc="http://creativecommons.org/ns#"
   xmlns:rdf="http://www.w3.org/1999/02/22-rdf-syntax-ns#"
   xmlns:svg="http://www.w3.org/2000/svg"
   xmlns="http://www.w3.org/2000/svg"
   xmlns:sodipodi="http://sodipodi.sourceforge.net/DTD/sodipodi-0.dtd"
   xmlns:inkscape="http://www.inkscape.org/namespaces/inkscape"
   width="1052.3622"
   height="744.09448"
   id="svg4470"
   version="1.1"
   inkscape:version="0.48.3.1 r9886"
   sodipodi:docname="school_of_fish.svg"
   inkscape:export-filename="/home/substack/projects/talks/hujs/images/school_of_fish.png"
   inkscape:export-xdpi="99.947403"
   inkscape:export-ydpi="99.947403">
  <defs
     id="defs4472" />
  <sodipodi:namedview
     id="base"
     pagecolor="#392a41"
     bordercolor="#666666"
     borderopacity="1.0"
     inkscape:pageopacity="1"
     inkscape:pageshadow="2"
     inkscape:zoom="0.35355339"
     inkscape:cx="559.68396"
     inkscape:cy="331.63269"
     inkscape:document-units="px"
     inkscape:current-layer="layer1"
     showgrid="false"
     inkscape:window-width="1364"
     inkscape:window-height="766"
     inkscape:window-x="0"
     inkscape:window-y="0"
     inkscape:window-maximized="0" />
  <metadata
     id="metadata4475">
    <rdf:RDF>
      <cc:Work
         rdf:about="">
        <dc:format>image/svg+xml</dc:format>
        <dc:type
           rdf:resource="http://purl.org/dc/dcmitype/StillImage" />
        <dc:title></dc:title>
      </cc:Work>
    </rdf:RDF>
  </metadata>
  <g
     inkscape:label="Layer 1"
     inkscape:groupmode="layer"
     id="layer1"
     transform="translate(0,-308.2677)">
    <path
       style="fill:#808080;stroke:#ffffff;stroke-width:0.65816724px;stroke-linecap:butt;stroke-linejoin:miter;stroke-opacity:0"
       d="m 478.09811,646.60764 c -0.61658,0.44585 -1.66699,2.85295 -1.74607,3.34507 -0.31382,1.95294 -0.44386,6.16584 -1.6544,8.48495 -1.03507,1.98296 -0.54642,5.91272 -0.14006,8.39259 0.19108,1.16602 0.15278,2.20657 0.13838,3.17789 -0.1121,0.0786 -0.21401,0.15352 -0.3292,0.23805 -3.04857,2.24025 -6.93954,6.47449 -8.64911,8.83809 -0.0297,-0.0326 -0.0663,-0.0414 -0.0985,-0.083 -2.11608,1.82446 -6.66559,3.70923 -7.56454,5.43151 -1.80862,3.46492 -4.75745,5.33897 -6.59285,8.85518 -4.7564,9.11217 -8.63878,19.5652 -7.83373,24.09837 2.04571,-0.5127 6.88973,-3.23472 8.79612,-2.92838 0.51523,0.0828 0.78488,1.71514 1.30011,1.79794 0.79659,0.128 2.42767,-0.4156 3.22426,-0.2876 1.00277,0.16113 6.27649,-3.35563 8.03603,-3.07289 1.92544,0.3094 13.64068,-8.90884 16.40005,-8.46543 0.69174,0.11115 1.78697,-3.27135 3.28457,-3.03071 2.04042,0.32787 4.29727,2.66002 6.23665,2.97166 5.32721,0.85603 11.30517,2.62233 16.89121,3.51995 3.50239,0.5628 -9.91843,-16.10617 -10.01094,-16.67078 -0.17026,-1.03896 1.75842,-3.31877 2.93666,-3.51184 2.82277,-0.46256 6.35072,-1.99056 10.08604,-4.13108 5.14161,0.99385 7.24927,1.1219 8.87319,-5.91498 7.92941,-5.95737 15.23348,-13.17696 17.62471,-17.758 3.59819,-6.89331 9.82026,-11.35355 13.14206,-17.71737 0.75279,-1.44217 3.51913,-0.62068 4.44017,-0.47268 0.53548,0.0861 2.02256,-1.24163 2.55803,-1.15559 1.01695,0.16342 16.50893,-3.62173 15.16043,-5.48658 -0.0513,-0.0709 -1.79842,0.0915 -2.00133,0.0589 -5.65664,-0.90897 -10.85425,-1.34131 -17.4296,-2.39792 -2.75434,-0.44258 -6.69233,-3.47011 -9.68261,-3.95062 -1.21187,-0.19475 -3.73354,-5.47585 -5.22413,-4.39798 -0.21516,0.15559 0.99994,4.63296 1.31697,6.5677 0.42465,2.59141 1.25257,4.46148 0.86817,6.85368 -0.18228,1.13434 -10.14967,12.72357 -12.39883,13.09212 -0.71153,0.1166 -2.96645,1.89566 -3.46966,1.8148 -3.13467,-0.5037 -17.54723,3.37105 -22.88373,4.24552 -4.3996,0.72094 -8.85238,4.82086 -13.28532,6.21313 -0.28419,0.0893 -1.26312,0.57274 -2.33284,1.14701 -2.99434,-3.96416 -6.40996,-10.66761 -6.14921,-12.2903 0.17512,-1.08993 -1.06908,-1.94365 -1.2756,-3.20397 -0.0435,-0.26529 -0.39116,-2.33951 -0.56145,-2.21637 z"
       id="path4622"
       inkscape:connector-curvature="0" />
    <path
       style="fill:#6f916f;stroke:#ffffff;stroke-width:1px;stroke-linecap:butt;stroke-linejoin:miter;stroke-opacity:0"
       d="m 164.54768,632.4787 c -2.98533,-0.39944 -6.63467,4.21937 -7.84739,5.18698 -2.22262,1.77335 -6.4703,10.47697 -7.15098,11.02005 -7.13439,5.69231 -7.47689,15.28208 -5.71773,23.44548 -0.86487,3.18061 -0.89693,6.57774 -0.40299,10.0177 -1.16709,3.05491 -1.94716,5.6808 -2.58249,6.18771 -0.19199,0.15319 -3.85567,5.65488 -3.26605,6.39388 1.55857,1.95341 5.76857,1.2112 9.69356,0.20932 4.49217,10.46279 10.96653,19.37467 10.72179,21.55156 -0.23995,2.13423 -1.48699,18.71301 1.56628,16.2769 1.33105,-1.06201 0.79586,-5.24279 2.40002,-6.5227 3.96849,-3.16633 8.38869,-10.26841 14.97999,-12.68705 0.67795,-0.24877 6.35825,-4.33001 7.82295,-4.9696 -1.95441,0.1145 -12.26758,-0.61495 -6.69523,-5.06095 1.69748,-1.35437 1.42373,-12.6635 1.69332,-15.06136 0.0573,-0.50999 0.66259,-2.96058 0.37357,-3.32282 -0.21006,-0.26328 -3.23362,-5.78752 -1.76475,-6.95949 1.6633,-1.32709 10.37798,-16.63215 7.00693,-17.01116 -3.27291,-0.36796 -7.13036,-1.91136 -9.75125,-3.61206 -0.99578,-0.64617 -4.31873,0.32687 -5.0308,-0.56561 -1.16595,-1.46132 -2.50565,-7.64189 -2.1951,-10.40413 0.11475,-1.02065 -0.83007,-6.19211 -2.013,-9.78617 0.2594,-1.63328 0.33862,-2.79977 0.0697,-3.13686 -0.58226,-0.72977 -1.22138,-1.09744 -1.9103,-1.18962 z m 20.21696,76.11023 c 0.19551,-0.0114 0.34916,-0.0289 0.35207,-0.0547 0.0106,-0.094 -0.12512,-0.0444 -0.35207,0.0547 z"
       id="path5457"
       inkscape:connector-curvature="0" />
    <path
       style="fill:#a05a2c;stroke:#ffffff;stroke-width:1px;stroke-linecap:butt;stroke-linejoin:miter;stroke-opacity:0"
       d="m 533.45267,739.59923 c -2.90911,0.93124 -17.69905,0.8796 -19.34237,2.52292 -0.97117,0.97117 12.60591,15.14619 11.77362,15.97848 -1.19232,1.19232 -4.10029,-0.84098 -5.04584,-0.84098 -4.21695,0 -15.30819,1.51126 -17.66042,-0.84097 -4.53193,-4.53193 -5.11997,7.64289 -6.72778,9.2507 -2.99435,2.99435 -4.09265,-7.56875 -7.56875,-7.56875 -4.83984,0 -7.7388,8.57977 -10.93265,11.77361 -2.20537,2.20537 -3.89333,-8.09819 -4.20486,-8.40972 -0.99416,-0.99416 -1.22352,-2.90547 -2.52292,-4.20487 -1.59619,-1.59619 -12.1225,-0.84097 -13.45556,-0.84097 -14.3591,0 -15.86057,-12.61459 -31.11598,-12.61459 -3.64422,0 -7.28843,0 -10.93264,0 -1.01012,0 -3.32059,0.44214 -4.20487,0 -0.56065,-0.28032 -1.68194,-1.46779 -1.68194,-0.84097 0,3.383 5.5337,-3.18734 7.56875,-4.20486 4.86623,-2.43312 13.21297,-23.54723 10.93264,-23.54723 -0.0662,0 1.40093,6.16574 1.68195,6.72778 1.28909,2.57818 0.82029,10.09167 4.20486,10.09167 1.35673,0 4.12634,-3.28537 5.04584,-4.20486 1.16178,-1.16179 5.56599,-1.36114 6.72778,-2.52292 0.70081,-0.70081 3.50405,0.70081 4.20486,0 5.25336,-5.25336 30.38943,0.9554 34.47987,5.04583 1.98259,1.98259 13.79933,13.1118 18.5014,8.40973 0.99416,-0.99416 4.58741,0.45842 5.88681,-0.84097 0.98113,-0.98114 -0.14017,-4.0647 0.84097,-5.04584 1.95474,-1.95474 5.05042,-4.20945 6.72778,-5.88681 1.21489,-1.21489 11.37799,-5.44145 13.45556,-3.36389 1.26146,1.26146 4.62535,0.42049 5.88681,1.68195 0.83599,0.83599 -14.65213,9.73608 -13.45556,10.93264 0.36657,0.36658 2.18868,-2.01618 3.36389,-0.84097 1.36497,1.36498 4.77648,2.5295 7.56875,4.20486 z"
       id="path5517"
       inkscape:connector-curvature="0" />
    <path
       style="fill:#782121;stroke:#ffffff;stroke-width:1px;stroke-linecap:butt;stroke-linejoin:miter;stroke-opacity:0"
       d="m 306.19688,650.47079 c -13.7773,0.54565 -22.20857,15.52603 -23.4375,33.03125 -0.2602,0.17569 -0.48819,0.36319 -0.71875,0.59375 -0.9476,0.94759 -5.84549,13.49826 -5.0625,14.28125 0.38226,0.38226 2.85467,-2.02248 5.9375,-3.875 0.71747,7.13801 2.62924,14.28972 5.84375,20.71875 1.96604,3.93207 7.5823,7.5823 10.09375,10.09375 1.99439,1.99439 7.67829,0.92828 9.25,2.5 1.67262,1.67262 4.43129,1.6875 7.5625,1.6875 14.9368,0 22.84076,-6.84076 31.125,-15.125 0.83549,-0.8355 15.21769,2.4849 18.5,0.84375 1.22952,-0.61476 -9.43691,-5.24941 -10.9375,-6.75 -2.99816,-2.99816 -5.31386,-8.65761 -8.40625,-11.75 -1.60055,-1.60055 0.70838,-8.54162 -0.84375,-10.09375 -0.25087,-0.25087 -0.68776,-0.76455 -0.90625,-1.15625 -0.59829,0.99735 -2.46875,3.23714 -2.46875,5.34375 0,1.08552 -1.63759,7.54385 -2.5,8.40625 -0.84097,0.84097 -0.84653,2.53403 -1.6875,3.375 -3.02363,3.02363 -13.44141,5.0586 -17.65625,0.84375 -1.25734,-1.25734 -5.58778,-0.55652 -6.71875,-1.6875 -0.80095,-0.80095 -7.92046,-7.2358 -5.90625,-9.25 1.26146,-1.26146 4.64479,-0.42605 5.90625,-1.6875 0.35756,-0.35756 0.90392,-1.18845 1.28125,-1.59375 -1.49029,-1.30576 -6.84968,-11.33782 -5.5,-12.6875 3.32063,-3.32062 9.16436,-16.08565 3.375,-21.875 -2.87729,-2.8773 2.91097,5.77934 -5.0625,-4.1875 -0.35695,-0.005 -0.71241,-0.0139 -1.0625,0 z m 8.25,38.75 c 0.23531,0.20617 0.375,0.20558 0.375,-0.0937 0,-0.28721 -0.16069,-0.13645 -0.375,0.0937 z m 29.75,-3.75 c 0.19943,-0.33245 0.26033,-0.53125 0.0625,-0.53125 -0.27204,0 -0.23003,0.23091 -0.0625,0.53125 z"
       id="path5519"
       inkscape:connector-curvature="0" />
    <path
       style="fill:#aa4400;stroke:#ffffff;stroke-width:1px;stroke-linecap:butt;stroke-linejoin:miter;stroke-opacity:0"
       d="m 363.60891,678.20825 c 2.84478,-2.62279 6.29178,-6.69675 7.56876,-9.2507 1.05133,-2.10266 1.79089,-21.75634 0.84097,-22.70625 -0.65094,-0.65094 -3.36389,-7.21962 -3.36389,-8.40973 0,-2.26602 12.49305,10.09167 12.61459,10.09167 0.6639,0 0.52147,-3.88537 0.84097,-4.20486 2.28292,-2.28292 4.69795,-5.53893 7.56875,-8.40973 2.69712,-2.69712 16.12046,-4.34684 17.66042,-5.8868 1.97621,-1.97621 0.0202,-18.5014 2.52292,-18.5014 1.36843,0 4.37196,17.82752 5.88681,19.34237 0.23941,0.23941 12.55985,-0.0547 16.81945,4.20486 5.99299,5.99299 4.42536,17.26044 8.40973,25.22918 2.08788,4.17576 11.77361,6.6751 11.77361,8.40972 0,1.42938 -3.19414,-0.16975 -4.20486,0.84097 -0.71676,0.71676 -6.72778,3.67933 -6.72778,5.04584 0,1.40162 2.37279,1.53182 3.36389,2.52292 1.51625,1.51625 -4.49363,3.94142 -5.04584,5.04583 -0.53087,1.06175 0.80733,4.23851 0,5.04584 -2.01433,2.01433 -15.66584,9.40701 -21.02431,6.72778 -1.45299,-0.7265 -7.80529,-4.50708 -8.40973,-4.20486 -2.06808,1.03404 -2.94406,4.41543 -5.8868,5.8868 -6.5149,3.25745 -10.64914,4.90408 -15.97848,7.56876 -0.31841,0.1592 3.4478,-7.65266 5.04583,-9.2507 0.28966,-0.28966 -0.21819,-5.04584 0,-5.04584 0.56065,0 -0.28032,0.84098 -0.84097,0.84098 -0.8479,0 -10.49367,8.00772 -11.77361,6.72778 -0.73074,-0.73074 4.84431,-6.92931 2.52291,-9.2507 -0.94279,-0.9428 -4.64661,0.62009 -5.8868,0 -1.33785,-0.66893 -1.808,-2.64897 -2.52292,-3.36389 -1.76224,-1.76225 1.68194,-10.10319 1.68194,-8.40973 0,1.01073 -2.0709,0.77793 -2.52291,1.68195 -2.30559,4.61118 -5.59681,2.74911 -10.93265,1.68194 z"
       id="path5563"
       inkscape:connector-curvature="0" />
    <path
       style="fill:#89a02c;stroke:#ffffff;stroke-width:1px;stroke-linecap:butt;stroke-linejoin:miter;stroke-opacity:0"
       d="m 620.58295,621.36263 c 4.05947,1.78732 8.5735,-1.94159 12.57114,-1.34226 11.89372,1.78311 28.0389,2.25764 38.37194,9.5175 1.79111,1.25841 5.02609,4.98477 7.1014,6.44286 1.24898,0.87752 1.27617,3.80363 2.52514,4.68115 6.38764,4.48786 12.631,16.34112 22.13266,19.18387 6.88393,2.05959 12.82627,6.49441 20.10667,7.5859 6.54639,0.98144 13.97683,1.4337 20.21155,3.29904 3.91237,1.17052 10.18137,-1.56398 13.11014,-3.14382 6.33435,-3.41692 15.11992,-6.00439 19.26357,-11.9021 7.09895,-10.10402 13.38893,-27.33182 21.40492,-38.74106 4.34044,-6.17781 19.3169,-14.24154 27.83728,-11.69236 0.74999,0.22438 2.69644,-1.01254 3.31371,-0.57885 2.27066,1.59534 5.22505,2.21753 7.4957,3.81287 0.32439,0.22791 1.04136,1.07423 0.97315,0.68371 -4.73312,-27.09546 6.11697,-12.84396 15.1466,-25.69594 0.0833,-0.1185 -11.50021,-3.28519 -14.3727,0.80325 -0.407,0.5793 -6.29221,2.84672 -6.338,2.81456 -4.02681,-2.82919 -7.46164,-3.81882 -14.95155,-2.51046 -4.524,0.79027 -8.70902,3.08606 -10.87444,6.16811 -0.80214,1.14172 -5.62317,0.76275 -6.48271,1.98614 -2.97241,4.23067 -10.17819,7.24594 -13.31986,11.71752 -5.93198,8.44305 -7.95701,17.53171 -14.17347,26.37966 -2.16255,3.07798 -17.43312,13.65665 -14.08328,2.46011 1.05912,-3.54001 -0.17616,-10.78274 0.065,-9.40212 0.23276,1.33251 -4.22201,4.97483 -4.93072,5.98355 -6.49558,9.24524 -20.59739,9.51146 -30.25755,2.72436 -1.88413,-1.32376 -9.35632,-0.75959 -11.49313,-2.26088 -4.28367,-3.00965 -12.50202,-5.14998 -16.79296,-8.16473 -2.56608,-1.80289 -5.89677,-4.43387 -5.83885,-4.1023 0.2687,1.53823 9.3668,-9.91162 9.17774,-10.99397 -0.27842,-1.59382 -3.95889,1.54526 -7.31115,2.13084 -2.83327,0.49493 -15.98983,3.0674 -16.56856,2.89425 -1.30619,-0.39079 -2.26286,-3.04337 -3.20885,-3.708 -2.42879,-1.70643 -5.70126,-2.55213 -8.46884,-4.49659 -4.0854,-2.87036 -24.59592,0.16135 -28.64054,-2.68034 -4.72593,-3.32038 -22.11548,9.75485 -22.86671,10.82409 -1.77347,2.5242 -7.30771,2.12595 -9.36229,5.05026 -0.15446,0.21985 10.47128,-0.42232 6.81198,4.786 -0.87472,1.24501 -8.42298,12.25101 -7.08674,13.18984 9.97669,7.00947 17.85345,-4.44856 19.80259,-13.70366 z"
       id="path5578"
       inkscape:connector-curvature="0" />
    <path
       style="fill:#806600;stroke:#ffffff;stroke-width:1px;stroke-linecap:butt;stroke-linejoin:miter;stroke-opacity:0"
       d="m 271.6427,687.59731 c -0.45496,-1.02484 -2.38973,-2.61959 -1.36489,-3.07455 1.02486,-0.45496 1.81986,4.0994 1.36489,3.07455 -1.99405,-4.49181 -3.01676,-8.09963 -2.81241,-12.55321 0.0571,-1.24479 0.99748,-5.98816 -0.0826,-6.40413 -1.40451,-0.54088 -8.78982,10.63404 -10.25086,10.07137 -0.95815,-0.36898 -1.60957,-13.36444 -2.385,-13.66307 -1.11914,-0.43099 -4.61135,6.18591 -5.21162,6.91418 -1.70738,2.07143 -20.73887,15.64744 -22.97647,16.64078 -0.5729,0.25433 0.0575,-1.25233 0.0862,-1.87849 0.12602,-2.74662 -0.12305,-5.52362 0.004,-8.28262 0.16307,-3.55401 -0.57257,-16.71472 0.5207,-19.55359 1.21008,-3.14218 -5.82967,6.03893 -8.88241,4.8633 -0.49594,-0.19099 -4.40117,-16.70116 -6.65561,-10.8471 -2.31333,6.00699 -5.81259,11.78407 -7.94849,17.33032 -0.93949,2.43954 -0.29335,5.72576 -1.11341,7.8552 -1.30939,3.40008 7.00296,16.56387 6.31083,18.36108 -0.91825,2.38443 -9.93663,0.82054 -12.21199,3.58106 -3.06081,3.71345 -8.68455,5.21456 -11.70194,8.87532 -7.07342,8.58166 -10.92196,16.4923 -11.454,28.08769 -0.40619,8.85228 11.19309,18.62492 10.8329,26.47487 -0.0642,1.39862 0.78801,6.81297 3.071,6.91773 5.06925,0.23259 11.25638,-19.24258 12.90153,-18.60902 1.30931,0.50422 -1.83907,3.12082 -2.05088,3.6708 -1.04069,2.70233 -7.42537,16.78674 -2.82661,20.57726 5.47179,4.51011 10.4578,-6.1683 11.18833,-5.88697 5.79212,2.23058 9.68138,4.20912 16.73408,4.53273 10.54093,0.48366 12.00504,-16.40535 17.59599,-14.25223 3.58358,1.38006 9.15731,4.80101 12.89089,6.23883 2.67205,1.02903 6.75205,0.68302 5.97671,1.02722 -0.5613,0.24918 0.089,-6.33803 -2.30236,-7.25895 -1.14262,-0.44003 -11.00435,-16.10163 -10.92265,-16.31376 0.53538,-1.39021 21.96179,-4.07793 22.4593,-5.36981 0.0903,-0.2345 -7.57891,-6.73429 -9.04771,-7.94494 -5.15346,-4.24774 0.0674,-11.75778 1.03076,-14.25933 1.60972,-4.17991 -8.81966,-11.84642 -8.4479,-12.81179 1.89839,-4.92949 11.28746,-13.29191 17.68219,-16.13073 z"
       id="path5632"
       inkscape:connector-curvature="0" />
    <path
       style="fill:#6c5353;fill-opacity:1;stroke:#ffffff;stroke-width:1px;stroke-linecap:butt;stroke-linejoin:miter;stroke-opacity:0"
       d="m 233.80035,784.5242 c 0.13346,-0.241 0.49641,-0.3361 0.97987,-0.35051 -0.75327,0.54684 -1.27145,0.87718 -0.97987,0.35051 z m 0.97987,-0.35051 c 1.33962,-0.9725 3.76785,-2.87586 5.98036,-3.51154 2.56548,-0.73711 13.4631,-5.22044 15.41838,-8.75224 1.05638,-1.90814 5.15023,-6.06038 5.29757,-9.56894 0.23924,-5.69635 4.2891,-12.99896 2.97591,-17.56952 -0.0463,-0.16114 1.16885,-1.96593 1.19573,-2.15984 0.12351,0.45486 3.16535,4.37528 3.23332,4.61186 0.64692,2.25161 2.9496,5.04501 4.90097,7.53541 -0.14178,0.35312 -0.23297,0.69364 -0.29591,1.05063 0.10231,-0.0371 0.2056,-0.0821 0.31247,-0.11276 1.07295,-0.30828 6.78611,3.72299 12.4137,7.83692 0.26786,-0.19489 0.5137,-0.42092 0.75482,-0.65369 6.33463,0.6118 18.08618,3.01138 23.35256,1.49827 4.16346,-1.19622 9.75201,-4.02042 13.37503,-5.06136 1.10354,-0.31706 9.55446,-5.55562 8.98846,-7.52559 -0.82448,-2.8696 -12.75457,-9.98351 -13.07415,-11.09583 -0.0951,-0.33101 -5.71961,-2.70199 -4.02039,-3.19019 7.7056,-2.21392 21.01068,3.25172 29.30985,0.86724 1.59512,-0.4583 8.05929,-13.44321 10.76634,-14.22099 2.8183,-0.80974 6.27457,-6.12509 9.72662,-7.11692 3.38976,-0.97391 8.88502,-4.28479 12.32249,-6.64421 2.83849,-1.9483 6.7532,-1.94029 9.13228,-2.62384 9.41635,-2.70545 14.07623,-4.53398 17.38321,-1.91365 -5.57623,3.20524 3.24263,4.62243 0.10715,6.77457 -12.77407,8.7679 5.7433,7.10631 6.04923,8.17111 0.26285,0.91487 -9.83868,3.89981 -10.76697,5.57654 -1.08977,1.96846 -9.85974,8.99445 -12.08434,9.63362 -2.58744,0.74339 -10.13626,17.7875 -14.33785,18.99468 -2.08568,0.59924 -14.99863,6.63344 -16.89474,7.9349 -1.48124,1.0167 -16.40981,27.45612 -16.96039,27.1513 -0.76814,-0.42526 4.33811,-16.7194 -0.0927,-15.44636 -2.9831,0.8571 -4.15548,6.13701 -6.69475,6.86658 -5.86401,1.68481 -12.78997,4.3185 -18.68839,6.01319 -5.68929,1.63461 -16.81852,-4.45619 -22.47126,-2.83206 -2.92645,0.84081 -9.31577,-6.61183 -12.19214,-5.78542 -1.71461,0.49264 -3.23897,1.55137 -4.95358,2.04399 -7.80081,2.24128 -21.28198,3.01083 -28.83651,5.18136 -1.59736,0.45894 -8.0952,-2.0328 -10.63242,-1.9572 z m 30.86795,-41.56208 c -0.0117,-0.043 -0.0156,-0.0801 0.0303,-0.0547 0.004,0.002 -0.029,0.0463 -0.0303,0.0547 z"
       id="path5634"
       inkscape:connector-curvature="0" />
    <path
       style="fill:#c8ab37;stroke:#ffffff;stroke-width:1px;stroke-linecap:butt;stroke-linejoin:miter;stroke-opacity:0"
       d="m 251.99698,545.35903 c -3.51928,0.0948 -7.1243,0.89027 -10.34375,2.5 -2.51486,1.25743 -6.71057,-0.42596 -9.25,0.84375 -4.95897,2.47949 -21.63307,5.66432 -24.375,8.40625 -1.89796,1.89796 -5.40152,3.03809 -8.375,4.28125 -5.06675,-0.64127 -10.34719,-0.71532 -12.65625,1.59375 -1.96227,1.96227 -4.75648,3.10023 -6.71875,5.0625 -0.19164,0.19163 -0.50253,0.66821 -0.6875,0.84375 0.18695,0.18734 0.50082,0.65708 0.6875,0.84375 1.00048,1.00048 2.04236,1.89485 3.09375,2.78125 -13.10905,13.22692 -22.52083,31.09261 -13.1875,40.9375 9.74485,3.89795 11.91423,12.75798 18.5,19.34375 2.73509,2.73509 6.79674,3.42174 9.25,5.875 1.15013,1.15013 3.6915,-2.21476 5.0625,-0.84375 2.39382,2.39381 4.20849,9.27099 7.5625,12.625 1.37077,1.37078 0,-6.26298 0,-12.625 0,-6.33409 3.11437,-13.20812 6.71875,-16.8125 2.50599,-2.506 -5.98645,0.89948 -7.5625,1.6875 -7.56229,3.78115 -12.16148,-0.41148 -15.96875,-4.21875 -1.45113,-1.45113 -0.48343,-5.51469 -1.6875,-6.71875 -1.0728,-1.07281 -0.84375,-2.82511 -0.84375,-5.03125 0,-11.14876 12.02026,-16 21.84375,-16 2.22268,0 12.25835,1.21039 12.625,0.84375 3.59103,-3.59103 -3.39124,-12.5775 0,-15.96875 4.81369,-4.81369 27.05187,-6.02063 31.96875,-10.9375 1.14608,-1.14608 -2.53125,-3.91161 -2.53125,-4.1875 0,-0.43758 3.375,-1.24992 3.375,-1.6875 0,-2.83274 12.72391,-4.08859 8.40625,-8.40625 -3.37281,-3.37281 -9.04079,-5.18922 -14.90625,-5.03125 z m -72.40625,23.53125 c -0.0938,-0.094 -0.15625,-0.13244 -0.15625,0 0,0.12542 0.0707,0.0812 0.15625,0 z"
       id="path5642"
       inkscape:connector-curvature="0" />
    <path
       style="fill:#d35f5f;stroke:#ffffff;stroke-width:1px;stroke-linecap:butt;stroke-linejoin:miter;stroke-opacity:0"
       d="m 439.93448,498.20278 c -1.50806,0.0124 -10.93297,2.77672 -11.5625,3.40625 -0.76972,0.76972 -16.03973,6.33236 -18.5,7.5625 -11.29452,5.64726 -23.06776,30.44375 -24.40625,32.8125 -4.23646,2.54188 -7.82572,3.34375 -12.59375,3.34375 -1.96226,0 -5.90625,-1.96227 -5.90625,0 0,1.15214 2.76858,0.23734 3.375,0.84375 2.01538,2.01539 9.63553,5.74069 13.03125,9.8125 -1.24937,1.93297 -4.32277,7.9768 -6.84375,13.28125 -4.30207,2.75114 -9.19888,5.16762 -12.90625,8.875 -2.30261,2.30261 -3.54911,6.04911 -5.90625,8.40625 -0.649,0.649 -2.32377,-2.32377 -2.53125,-2.53125 -1.71953,-1.71952 -14.02731,-2.78518 -15.96875,-0.84375 -0.29396,0.29397 7.18714,5.53089 7.5625,5.90625 5.20905,5.20905 10.9375,11.11015 10.9375,20.15625 0,1.50959 0.62006,-3.12006 1.6875,-4.1875 2.53651,-2.53651 3.4821,-7.70085 5.875,-10.09375 0.92539,-0.92539 4.95486,-1.14566 8.25,-1.5 1.53541,-0.66884 2.97469,-1.31844 3.53125,-1.875 5.80869,-5.8087 11.2914,-10.44765 16.8125,-15.96875 2.7835,-2.7835 6.36459,-14.58193 11.375,-18.5625 -0.12487,-1.41278 -0.25954,-2.82466 0.40625,-4.15625 0.1474,-0.2948 0.36418,-0.51673 0.59375,-0.71875 5.82043,1.79968 13.40921,3.55953 13.71875,3.25 0.45986,-0.45986 -0.72478,-3.03079 -1.375,-4.375 0.21901,-0.17585 0.39848,-0.3907 0.53125,-0.65625 0.8913,-1.78259 -2.0435,-5.19424 -0.84375,-7.59375 0.77197,-1.54403 -0.12413,-7.43837 0.84375,-8.40625 0.94766,-0.94766 1.7431,-3.1984 2.5625,-5.90625 8.62679,-6.29103 18.25114,-17.78032 10.40625,-19.8125 3.747,-3.98428 8.81421,-9.65454 8.03125,-10.4375 -0.025,-0.025 -0.087,-0.0321 -0.1875,-0.0312 z"
       id="path5647"
       inkscape:connector-curvature="0" />
    <path
       style="fill:#37c871;stroke:#ffffff;stroke-width:1px;stroke-linecap:butt;stroke-linejoin:miter;stroke-opacity:0"
       d="m 269.90323,559.23403 c -0.30847,-0.002 -0.46875,0.12842 -0.46875,0.40625 0,1.52391 2.56838,7.63087 3.34375,8.40625 0.49516,0.49516 0.72241,1.67434 0.75,3.25 0.99556,1.83512 0.23042,3.74207 1.78125,6.84375 0.77624,1.55248 4.2001,8.4249 2.53125,10.09375 -1.19331,1.19331 -6.95898,7.48057 -12.375,10.90625 -3.19225,3.4343 -6.24093,6.83468 -9.5,10.09375 -0.28122,0.28123 -6.69242,-5.84867 -6.71875,-5.875 -4.95354,-4.95354 -14.36088,-2.5726 -18.5,1.6875 -0.87077,-1.57959 8.34988,19.42523 4.1875,27.75 -0.53087,1.06174 0.80733,4.22392 0,5.03125 -0.18483,0.18482 -4.05203,6.88546 -3.34375,7.59375 2.27003,2.27003 16.11854,-4.36854 16.8125,-5.0625 l 5.875,-5.875 c 1.40162,-1.40163 1.12963,-4.50463 2.53125,-5.90625 1.21195,-1.21195 3.61016,-0.5506 6.125,0.125 4.33421,4.38516 13.15459,6.84491 22.6875,7.59375 -2.37673,8.42141 -5.60088,20.55538 -5.28125,20.875 0.50157,0.50158 6.52837,-4.49856 7.59375,-5.03125 6.58577,-3.29288 13.05894,-9.35334 16.59375,-16.59375 0.68239,-0.11412 1.34115,-0.24159 2,-0.375 8.86798,2.25491 21.57625,-1.96471 25.875,-8.34375 0.003,-0.005 0.028,0.005 0.0312,0 2.00301,0.44399 3.88769,0.69678 5.09375,0.0937 1.71606,-0.85803 4.10141,-0.72641 5.0625,-1.6875 1.21968,-1.21967 -6.00487,-5.90625 -0.84375,-5.90625 2.23817,0 15.96875,-1.38959 15.96875,-3.34375 0,-0.0212 -7.83779,-4.49404 -8.40625,-5.0625 -2.50534,-2.50534 -4.0974,-8.31615 -6.71875,-10.9375 -3.87448,-3.87448 -9.11714,-9.06385 -15.375,-12.75 -0.20375,-0.23248 -0.40689,-0.46938 -0.625,-0.6875 -1.89599,-1.89599 -4.43565,-2.36199 -7.03125,-2.71875 -1.68077,-0.50133 -3.40721,-0.84201 -5.1875,-1 -0.42215,-0.14079 -0.82544,-0.30334 -1.21875,-0.5 -2.60322,-1.3016 -8.26759,-1.52687 -12.03125,-0.71875 -4.65208,-6.06893 -16.40296,-14.32648 -19.9375,-16.09375 -0.46407,-0.23204 -9.12197,-6.26517 -11.28125,-6.28125 z"
       id="path5661"
       inkscape:connector-curvature="0" />
    <path
       style="fill:#6c5353;stroke:#ffffff;stroke-width:1px;stroke-linecap:butt;stroke-linejoin:miter;stroke-opacity:0"
       d="m 445.18326,621.86309 c -1.33523,-2.08829 -15.78303,-12.41914 -23.54723,-20.18334 -2.08447,-2.08448 -2.52108,-5.88498 -4.20486,-7.56876 -3.77004,-3.77003 3.94002,-13.19071 5.04583,-14.29653 2.01806,-2.01806 5.91431,-0.86847 7.56876,-2.52292 1.05008,-1.05008 -4.20487,-18.40454 -4.20487,-21.86528 0,-1.08003 7.15942,3.79553 7.56876,4.20486 2.17441,2.17441 7.87574,3.67088 10.09167,5.88681 1.97503,1.97503 3.73008,-2.04814 5.04583,-3.36389 2.62892,-2.62892 8.41624,-2.52618 11.77362,-4.20486 8.06315,-4.03158 33.1602,6.24907 37.00279,10.09167 2.81307,2.81307 6.19882,7.03979 9.2507,10.09167 0.9485,0.9485 1.63197,10.0417 2.52291,10.93264 0.88905,0.88904 1.68195,1.34308 1.68195,3.36389 0,2.83999 3.15403,7.56875 1.68194,7.56875 -1.77832,0 -9.16731,-2.6063 -10.09167,-1.68194 -0.27914,0.27914 -1.78685,4.94093 -4.20486,2.52291 -3.18954,-3.18954 -23.79251,-18.25611 -30.27501,-11.77361 -0.98113,0.98113 -4.0647,-0.14016 -5.04584,0.84097 -0.98113,0.98114 -4.0647,-0.14016 -5.04583,0.84097 -1.99943,1.99943 -3.04641,6.4103 -5.04584,8.40973 -2.03308,2.03308 3.40236,7.64569 4.20487,9.2507 5.04321,10.08642 21.65846,0.63414 25.22917,4.20486 0.36426,0.36426 -5.44231,1.4597 -5.8868,1.68195 -5.33896,2.66947 -7.37164,5.68969 -10.93265,9.25069 -2.95327,2.95328 -3.36389,11.71662 -3.36389,15.97848 0,2.07454 -0.84097,3.10069 -0.84097,5.04584 0,0.84097 0.84097,2.52291 0,2.52291 -1.23524,0 -8.40358,-20.17105 -9.2507,-21.86528 -0.87642,-1.75285 -4.86521,-2.61887 -6.72778,-3.36389 z"
       id="path5705"
       inkscape:connector-curvature="0" />
    <path
       style="fill:#c8b7b7;stroke:#ffffff;stroke-width:1px;stroke-linecap:butt;stroke-linejoin:miter;stroke-opacity:0"
       d="m 346.78948,542.81167 c -5.25599,-2.20459 -14.27448,5.05686 -17.66043,3.36389 -1.49949,-0.74975 -2.22967,-4.75259 -3.36389,-5.88681 -1.70142,-1.70142 -1.80664,-6.0115 -3.36389,-7.56875 -0.70792,-0.70792 -1.26521,3.78813 -1.68194,4.20486 -2.76029,2.76029 -5.55977,10.09167 -10.09167,10.09167 -7.74131,0 -13.66425,0.84098 -21.86529,0.84098 -2.24259,0 -6.72778,-2.2426 -6.72778,0 0,0.74779 3.6336,6.15652 4.20486,6.72778 2.7707,2.77069 -0.0525,8.35717 0,8.40972 0.26655,0.26655 4.72517,-2.20225 5.04584,-2.52292 1.37902,-1.37902 10.43205,-0.84097 12.61459,-0.84097 5.4624,0 12.40798,1.47534 15.1375,4.20486 0.18053,0.18053 5.18271,2.52292 5.04584,2.52292 -0.56065,0 0,-1.1213 0,-1.68194 0,-4.95288 -2.0102,-5.3022 2.52292,-7.56876 1.77359,-0.8868 7.0617,1.34803 8.40972,0 0.80588,-0.80588 15.64562,-3.69674 17.66042,-1.68194 1.26959,1.26958 3.71881,2.87783 5.04584,4.20486 0.71128,0.71128 2.01621,11.77362 1.68194,11.77362 -0.31786,0 2.94012,-4.1983 3.36389,-5.04584 1.47227,-2.94453 5.25598,-5.25597 7.56876,-7.56875 0.40231,-0.40231 4.20486,-0.51086 4.20486,-1.68195 0,-2.21734 -5.7513,-0.77322 -7.56875,-1.68194 -3.17134,-1.58567 -0.20199,-6.08879 -2.52292,-8.40973 -4.04409,-4.04408 -10.96184,-4.20486 -17.66042,-4.20486 z"
       id="path5707"
       inkscape:connector-curvature="0" />
    <path
       style="fill:#a02c2c;stroke:#ffffff;stroke-width:1px;stroke-linecap:butt;stroke-linejoin:miter;stroke-opacity:0"
       d="m 528.39996,572.46312 c -0.16169,1.10958 0.6245,3.49043 -0.48508,3.32873 -1.10957,-0.16169 0.64678,-4.43831 0.48508,-3.32873 -0.28504,1.95601 -0.72631,15.37678 -2.4254,16.64366 -0.64643,0.48199 -3.13159,3.99403 -3.34544,5.46147 -0.43006,2.95117 -4.97576,6.07374 -4.29889,6.17238 5.51587,0.8038 14.45923,-13.43702 16.79834,-10.29988 1.6588,2.22473 7.13141,1.6058 8.7902,3.83052 2.1817,2.92602 3.74834,13.29406 4.83841,13.45291 0.86089,0.12546 6.45232,-7.55829 14.52763,-6.38151 6.89879,1.00533 16.03998,11.0349 23.89076,5.1812 1.33795,-0.9976 5.56205,0.3034 6.9,-0.6942 2.80517,-2.09159 19.56278,-10.57161 18.70525,-11.7217 -2.24277,-3.00795 -8.2856,-1.16417 -8.32182,-1.2127 -1.27681,-1.71242 2.02554,-4.08913 -0.81548,-6.06782 -1.34599,-0.93746 -19.83122,3.66011 -20.11036,3.86824 -2.51363,1.87421 -14.94695,-3.1343 -15.56893,-3.9685 -1.25729,-1.68623 -0.93914,-4.04343 -1.64766,-6.18909 -0.43318,-1.3118 -0.50215,-3.65794 -1.05801,-4.40346 -0.47395,-0.63562 -2.20642,-2.02123 -1.42183,-1.9069 0.37158,0.0541 -3.49423,3.04286 -3.93508,3.67583 -1.48082,2.12617 -6.07856,6.76289 -9.41327,6.27694 -11.35979,-1.65541 -13.39127,-6.67735 -22.08842,-11.71739 z"
       id="path5709"
       inkscape:connector-curvature="0" />
    <path
       style="fill:#87cdde;stroke:#ffffff;stroke-width:1px;stroke-linecap:butt;stroke-linejoin:miter;stroke-opacity:0"
       d="m 528.15323,615.70278 c -2.20893,0.0742 -6.48298,1.96875 -7.28125,1.96875 -2.71421,0 -6.07067,1.14215 -9.5,2.84375 -0.008,0.004 -0.023,-0.004 -0.0312,0 -3.81779,-1.36897 -15.65544,-4.18147 -10.03125,3.3125 -0.2058,0.53117 0.63166,1.19485 1.46875,1.875 -3.832,2.66669 -7.1033,5.38455 -8.8125,7.09375 -1.37737,1.37736 -3.71916,-0.24452 -5.78125,-0.71875 -1.00751,-1.19202 -1.59841,-1.81362 -0.15625,-0.0312 -0.27527,-0.0554 -0.51942,-0.0937 -0.78125,-0.0937 2.49199,2.57863 3.23623,3.22078 3.15625,2.96875 0.39029,0.47072 0.549,0.6713 1.03125,1.25 2.59403,3.11284 1.37935,10.09375 1.6875,10.09375 2.7921,0 4.05483,-8.27358 5.03125,-9.25 0.76664,-0.76663 6.3892,0 7.59375,0 8.29292,0 26.7853,-17.77721 23.53125,-21.03125 -0.22215,-0.22215 -0.61525,-0.29837 -1.125,-0.28125 z"
       id="path5711"
       inkscape:connector-curvature="0" />
    <path
       style="fill:#ddff55;stroke:#ffffff;stroke-width:1px;stroke-linecap:butt;stroke-linejoin:miter;stroke-opacity:0"
       d="m 715.96573,510.01528 c -1.77294,0 -0.86337,3.44549 -1.65625,5.03125 -1.24237,2.48474 -4.21875,7.57906 -4.21875,10.09375 0,3.18267 -7.45503,22.01372 -4.21875,25.25 0.15195,0.15195 0.28591,0.3184 0.40625,0.5 -0.80982,2.93518 -2.20704,9.85158 -2.90625,11.25 -0.78274,1.56547 -4.58678,8.06947 -4.21875,8.4375 0.5501,0.5501 7.00657,-5.6132 12.0625,-8.28125 6.68123,12.11861 -7.10246,35.42707 -7.84375,36.03125 0,1.42479 -0.58051,15.67426 3.34375,11.75 1.07618,-1.07618 1.78968,-3.44594 3.375,-5.03125 0.77045,-0.77045 1.48147,-1.66583 2.15625,-2.59375 1.90858,-0.93842 3.85884,-1.48491 6.25,0.90625 0.56065,0.56065 0.28311,1.9706 0.84375,2.53125 0.6175,0.6175 3.49102,6.50234 4.09375,8.03125 0.34904,-1.61847 4.3125,-8.30564 4.3125,-14.75 0,-7.522 -1.2968,-14.64625 -2.03125,-21.46875 0.11299,-0.1428 0.22532,-0.28782 0.34375,-0.40625 2.36313,-2.36313 1.34898,-7.22399 3.375,-9.25 4.32103,-4.32103 -5.59543,-29.74832 -3.375,-31.96875 1.33071,-1.33072 15.15625,-9.92579 15.15625,-10.9375 0,-0.62683 -1.12686,0.56343 -1.6875,0.84375 -1.0659,0.53295 -3.84462,0 -5.0625,0 -4.03327,0 -8.67535,-1.11285 -10.90625,-3.34375 -2.6521,-2.6521 -6.45221,-12.625 -7.59375,-12.625 z m 7.46875,103.9375 c -0.0458,0.22615 -0.002,0.34375 0.125,0.34375 0.0267,0 -0.0401,-0.12669 -0.125,-0.34375 z"
       id="path5729"
       inkscape:connector-curvature="0" />
    <path
       style="fill:#d3bc5f;stroke:#ffffff;stroke-width:1px;stroke-linecap:butt;stroke-linejoin:miter;stroke-opacity:0"
       d="m 759.70699,549.53945 c -0.75842,2.55459 6.88097,7.72195 12.61459,13.45556 3.36756,3.36756 26.91112,10.59984 26.91112,11.77361 0,2.06321 -20.5028,1.16043 -21.02432,1.68195 -1.10274,1.10275 0.84098,7.9478 0.84098,10.09167 0,1.70444 -2.5478,8.38485 -0.84098,10.09167 1.61722,1.61722 7.31374,7.82377 4.20487,10.93264 -1.68195,1.68195 -7.56876,-0.84097 -9.2507,0.84097 -0.68432,0.68433 -2.14195,5.50585 -5.04584,8.40973 -2.01164,2.01164 -31.04231,14.3702 -33.6389,11.77362 -0.84097,-0.84098 0.84098,-4.20487 0,-5.04584 -5.24476,-5.24477 0.13174,-43.86231 3.36389,-47.09446 1.87909,-1.87908 5.61019,3.36389 5.88681,3.36389 1.45838,0 6.77601,-5.93504 7.56875,-6.72778 1.2994,-1.2994 4.05168,-0.68779 5.04584,-1.68195 0.0619,-0.0619 2.85361,-19.31387 3.36389,-21.86528 z"
       id="path5749"
       inkscape:connector-curvature="0" />
    <path
       style="fill:#a05a2c;stroke:#ffffff;stroke-width:1px;stroke-linecap:butt;stroke-linejoin:miter;stroke-opacity:0"
       d="m 799.23269,655.50199 c 8.1317,-2.70577 15.4355,-4.77434 22.70626,-8.40973 2.34637,-1.17318 3.01962,-3.19175 5.04584,-4.20486 10.4919,-5.24595 15.04949,-17.5724 21.02431,-23.54723 5.17496,-5.17495 10.81886,-9.13691 15.97848,-14.29653 1.14855,-1.14856 -5.16765,-0.12182 -8.40973,-3.36389 -0.45525,-0.45525 -4.75309,-6.17955 -5.04583,-5.88681 -1.82211,1.82211 1.82211,9.11054 0,10.93264 -0.42049,0.42049 -2.10243,-0.42048 -2.52292,0 -2.74041,2.74041 -5.85284,5.85284 -8.40972,8.40973 -1.06394,1.06393 -3.85304,1.33011 -5.04584,2.52292 -2.61453,2.61452 -11.05546,14.77843 -13.45556,15.97847 -2.32654,1.16327 -7.56875,-1.6118 -7.56875,-2.52291 0,-2.29471 -0.69097,7.41875 -0.84097,7.56875 -2.69021,2.69021 -11.44676,7.56875 -15.97848,7.56875 -2.86436,0 -6.79489,5.95391 -8.40973,7.56875 -1.02706,1.02707 -8.40972,2.31346 -8.40972,5.04584 0,1.76301 17.45286,-2.60809 19.34236,-3.36389 z"
       id="path5751"
       inkscape:connector-curvature="0" />
    <path
       style="fill:#ff9955;stroke:#ffffff;stroke-width:1px;stroke-linecap:butt;stroke-linejoin:miter;stroke-opacity:0"
       d="m 552.82774,610.08947 c -0.56064,1.1213 -0.56064,3.92454 -1.68194,3.36389 -1.1213,-0.56065 2.56841,-4.25035 1.68194,-3.36389 -3.42681,3.42682 -5.31836,7.84128 -7.56875,10.09167 -1.26922,1.26922 -3.36389,5.99982 -3.36389,4.20487 0,-0.79579 6.58964,0.0691 10.09167,-1.68195 4.73779,-2.36889 2.86513,2.52292 8.40973,2.52292 3.00334,0 12.53959,-0.91597 14.29653,0.84097 1.01125,1.01125 1.10023,1.81158 2.52292,2.52292 6.96046,3.48023 -0.35651,19.34237 12.61459,19.34237 0.51319,0 3.03621,0.32767 3.36389,0 4.45298,-4.45299 3.81472,-14.68667 -0.84098,-19.34237 -1.95142,-1.95143 6.00265,-9.97584 4.20487,-11.77362 -1.77114,-1.77113 -10.33626,4.20487 -11.77362,4.20487 -0.34081,0 -2.15128,-2.99226 -2.52292,-3.36389 -1.34077,-1.34078 -5.49701,-1.29215 -6.72778,-2.52292 -3.26379,-3.2638 -14.15146,2.59545 -17.66042,0.84097 -1.00977,-0.50489 -5.00615,-5.83721 -5.04584,-5.88681 z"
       id="path5803"
       inkscape:connector-curvature="0" />
    <path
       style="fill:#ffcc00;stroke:#ffffff;stroke-width:1px;stroke-linecap:butt;stroke-linejoin:miter;stroke-opacity:0"
       d="m 114.59358,434.91731 c 2.44605,-9.36951 12.1521,-13.34142 19.02903,-20.21835 27.05681,-27.05681 57.91783,-31.59553 91.57724,-42.81533 7.05704,-2.35235 15.58385,-1.23024 22.59698,-3.56795 6.07365,-2.02455 13.39704,-3.56794 20.21835,-3.56794 1.03893,0 13.42539,38.90446 11.89315,40.4367 -1.38754,1.38753 -6.93767,-1.38753 -8.32521,0 -5.25737,5.25737 -47.34289,8.09551 -57.0871,17.83972 -0.90238,0.90237 3.78932,12.33591 4.75725,14.27178 5.24758,10.49514 17.75984,59.38585 21.40767,63.03368 0.64897,0.64897 4.14091,13.69881 3.56794,14.27178 -1.5347,1.5347 -16.72296,1.22559 -21.40766,3.56794 -4.69337,2.34668 -9.88972,2.75383 -13.08246,5.94657 -0.63695,0.63695 -8.02526,8.62516 -9.51452,7.13589 -5.92018,-5.92018 -3.91528,-18.53438 -8.3252,-27.35424 -3.73506,-7.47011 -9.14878,-19.85261 -14.27178,-24.97561 -1.17739,-1.17739 -10.78451,-28.62423 -14.27178,-32.11149 -3.34735,-3.34735 -32.73511,30.92218 -33.30081,30.92218 -0.88646,0 -0.56249,-1.75181 -1.18932,-2.37863 -7.23479,-7.23479 -16.28698,-18.66561 -22.59698,-24.97561 -1.34053,-1.34053 6.84179,-12.98874 8.32521,-15.46109 z"
       id="path5900"
       inkscape:connector-curvature="0" />
    <path
       style="fill:#ffcc00;stroke:#ffffff;stroke-width:1px;stroke-linecap:butt;stroke-linejoin:miter;stroke-opacity:0"
       d="m 300.12668,362.36911 c 1.93257,17.77979 3.95454,36.03654 8.3252,53.51916 3.42667,13.70666 7.39231,30.24572 13.08246,41.62602 3.17913,6.35826 3.88479,27.67108 7.13589,30.92218 2.55446,2.55446 1.38103,14.27178 5.94658,14.27178 7.92246,0 23.14445,-1.83115 27.35423,2.37863 1.19369,1.19368 15.58113,2.37863 16.65041,2.37863 0.79288,0 3.36973,1.18931 2.37863,1.18931 -2.54404,0 -13.08246,-38.55785 -13.08246,-42.81533 0,-5.27758 -10.23212,-66.84751 -11.89315,-70.16957 -4.38262,-8.76525 2.90999,-31.58013 -3.56794,-38.05807 -0.47864,-0.47863 -48.57819,4.00693 -52.32985,4.75726 z"
       id="path5902"
       inkscape:connector-curvature="0" />
    <path
       style="fill:#ffcc00;stroke:#ffffff;stroke-width:1px;stroke-linecap:butt;stroke-linejoin:miter;stroke-opacity:0"
       d="m 416.67952,471.78607 c 1.89436,-17.50625 -2.37863,-34.654 -2.37863,-51.14054 0,-7.30538 -9.74051,-59.23974 -7.13588,-61.84436 1.6677,-1.66771 55.30553,1.78637 55.89779,2.37863 2.44878,2.44877 2.65722,7.69306 4.75726,11.89314 2.17511,4.35022 4.87006,8.55081 7.13589,13.08246 3.4027,6.80542 1.42352,15.92951 4.75726,22.59698 0.92348,1.84697 -0.65159,5.18113 0,7.13589 2.80476,8.4143 9.51451,17.65726 9.51451,26.16493 0,7.82363 7.13589,19.17052 7.13589,26.16492 0,3.97231 4.68529,8.3252 3.56795,8.3252 -0.94744,0 4.75725,-45.79659 4.75725,-49.95122 0,-3.7025 2.40843,-9.60389 3.56795,-13.08246 2.90785,-8.72355 4.75726,-30.89353 4.75726,-40.4367 0,-2.8698 -0.28314,-6.85275 1.18931,-8.3252 2.61219,-2.61219 43.49632,9.00619 45.19396,10.70383 0.2372,0.2372 -3.56794,12.57032 -3.56794,16.65041 0,6.84912 -2.96438,29.71505 -5.94657,35.67944 -2.34257,4.68512 -3.13603,34.3837 -5.94658,42.81533 -3.53393,10.60179 -8.3252,24.58835 -8.3252,35.67944 0,2.97447 -3.36848,15.26163 -4.75726,16.65041 -1.82101,1.82101 0.87325,9.83058 -1.18932,11.89315 -0.32952,0.32953 -24.18943,-6.7428 -27.35423,-8.32521 -3.6468,-1.82339 -23.87445,-4.75726 -29.73287,-4.75726 -1.05717,0 -2.79774,1.95952 -3.56795,1.18932 -2.24739,-2.24739 0.40367,-13.46444 -1.18931,-16.65041 -3.74169,-7.48338 -0.11847,-16.88734 -3.56795,-23.78629 -7.55886,-15.11774 -4.72958,-51.11286 -15.46109,-61.84437 -1.64055,-1.64055 -1.18931,3.14657 -1.18931,3.56795 0,2.01176 -1.60703,5.17496 -2.37863,5.94657 -1.79242,1.79242 1.18931,33.18582 1.18931,36.86876 0,0.93124 0.59344,5.35313 0,5.94657 -1.98219,1.98219 -9.91095,-1.98219 -11.89315,0 -0.60324,0.60325 -14.50512,6.35054 -15.46109,4.75726 -1.09839,-1.83065 -1.58575,-3.96438 -2.37863,-5.94657 z"
       id="path5904"
       inkscape:connector-curvature="0" />
    <path
       style="fill:#ffcc00;stroke:#ffffff;stroke-width:1px;stroke-linecap:butt;stroke-linejoin:miter;stroke-opacity:0"
       d="m 579.61564,388.53403 c 3.78769,8.95711 9.52562,16.69479 11.89315,26.16493 2.98044,11.92175 29.42221,58.89773 24.97561,67.79094 -2.08988,4.17975 -10.70383,53.95363 -10.70383,60.65505 0,3.99412 -4.32601,7.56714 -1.18932,10.70383 2.815,2.815 15.02473,-1.62568 17.83973,1.18932 0.0289,0.0289 17.82952,8.3252 19.02903,8.3252 1.94959,0 2.37863,-10.34331 2.37863,-13.08246 0,-5.98688 14.69029,-63.45219 16.65041,-65.41231 4.16016,-4.16017 16.79207,-6.04102 23.78629,-10.70384 5.90256,-3.93503 34.14861,-25.48188 35.67944,-28.54355 1.41215,-2.82429 13.35454,-10.43176 13.08247,-10.70383 -1.7416,-1.7416 -43.49863,-19.02904 -45.19396,-19.02904 -1.8809,0 -9.68987,-3.3926 -11.89315,-1.18931 -7.75075,7.75074 -20.63763,21.0569 -26.16493,32.1115 -0.63923,1.27847 -0.94925,3.56794 -2.37863,3.56794 -1.76938,0 -4.77489,-26.2002 -5.94657,-28.54355 -3.04076,-6.08152 -1.00381,-17.65422 -4.75726,-21.40767 -0.79287,-0.79288 -3.96438,0.79288 -4.75726,0 -6.24843,-6.24843 -41.02223,-14.15467 -52.32985,-11.89315 z"
       id="path5919"
       inkscape:connector-curvature="0" />
    <path
       style="fill:#71c837;stroke:#ffffff;stroke-width:1px;stroke-linecap:butt;stroke-linejoin:miter;stroke-opacity:0"
       d="m 249.7351,833.82506 c -1.16831,-0.10277 -2.47652,1.14422 -2.63555,1.25979 -1.5624,1.13547 -46.2971,-0.11277 -51.64116,-0.95846 -0.4837,-0.0765 -3.15856,-0.81856 -3.51871,-0.55683 -1.14415,0.83151 -8.94863,26.15837 -9.34164,28.6419 -1.28428,8.11562 -6.42048,19.66621 -10.35492,27.24764 -2.2294,4.29593 -1.67542,10.58711 -3.59072,15.09302 -12.68587,29.84455 -14.70238,64.66655 -27.96078,93.11784 -1.21903,3.29514 -11.13109,24.55504 -11.52783,27.06214 -0.025,0.1578 6.3864,-0.8938 7.43951,-1.2273 4.37375,-1.3852 10.12805,1.249 14.44608,-0.1185 11.29066,-3.5757 26.35324,-3.075 36.36742,-1.4903 1.1747,0.1859 0.37094,-2.344 0.55683,-3.5187 0.68937,-4.3563 1.96841,-4.8413 2.65778,-9.1976 1.18466,-7.486 12.13149,-60.19311 13.18509,-60.52678 1.36663,-0.4328 30.48673,-2.42083 31.6758,-2.23266 0.48369,0.0765 3.25697,0.19667 3.51871,0.55683 1.64318,2.26102 0.93568,6.51881 2.02895,9.97093 3.86747,12.21206 11.79804,44.83768 18.02937,53.41208 1.48321,2.0408 -0.41067,6.5763 1.07253,8.6172 0.54027,0.7434 18.99257,-2.3846 19.73026,-2.9207 1.69752,-1.2337 11.50914,0.9779 14.63169,-1.2913 2.67122,-1.9414 21.46187,2.0761 25.4043,-0.789 0.3426,-0.249 -9.43837,-24.45124 -11.34506,-27.07484 -1.97986,-2.7242 -5.74057,-32.19847 -8.15643,-39.82684 -3.72226,-11.75352 -8.51498,-23.36914 -12.41758,-35.69209 -0.81778,-2.58225 -4.31377,-5.33733 -4.75086,-7.96548 -3.72637,-22.40587 -21.12662,-53.38892 -32.43431,-68.94827 -0.31034,-0.42703 -0.67934,-0.60946 -1.06877,-0.64372 z m -28.55509,35.69421 c -1.82301,11.51992 3.14755,22.29801 6.71269,33.55539 2.10657,6.65179 3.8071,15.01401 4.40843,16.32723 0.14713,0.006 0.24771,0.0341 0.24205,0.0699 -0.0346,0.21863 -0.14139,0.14987 -0.24205,-0.0699 -2.42097,-0.10112 -24.27127,3.55073 -24.39144,3.3854 -1.27831,-1.75896 1.63955,-4.30557 1.91535,-4.50601 3.78267,-2.74904 3.91281,-29.59426 6.75097,-35.06326 2.08987,-4.02706 2.41033,-9.1872 4.604,-13.69875 z"
       id="path5934"
       inkscape:connector-curvature="0" />
    <path
       style="fill:#71c837;stroke:#ffffff;stroke-width:1px;stroke-linecap:butt;stroke-linejoin:miter;stroke-opacity:0"
       d="m 368.57762,823.1621 c -25.71656,-3.78849 -50.25716,13.44818 -74.03357,10.10625 -3.41385,20.03648 6.4345,38.87276 8.54731,58.85635 0.74811,7.07571 3.49254,13.93048 4.24143,21.01366 1.90377,18.00635 1.19876,35.70257 4.47375,53.48709 1.50444,8.16971 -2.38775,38.72675 1.12758,43.39185 3.20796,4.2573 22.26973,-2.8657 26.72808,-2.239 7.29566,1.0254 13.64383,-0.5122 21.53279,0.5967 0.48494,0.068 3.17225,0.7638 3.52782,0.4958 1.38014,-1.04 -2.37613,-8.6896 -2.20553,-9.90334 0.3021,-2.1493 -3.68017,-14.3383 -4.73728,-17.4859 -0.87933,-2.6183 0.60315,-45.7197 1.75111,-46.58474 4.39852,-3.31441 13.83268,2.42662 19.01129,1.47299 9.12796,-1.6809 24.14704,-2.42461 31.08668,-7.65384 4.31005,-3.24775 10.21989,-7.29584 13.77379,-12.45407 5.76136,-8.3622 10.69266,-45.88082 5.06811,-53.3451 -5.93257,-7.87305 -11.94739,-16.82769 -20.57025,-24.50795 -7.11341,-6.3358 -16.54714,-6.53846 -24.90993,-10.6963 -4.84432,-2.40853 -9.65085,-3.84888 -14.41318,-4.55045 z m -9.26468,30.66521 c 17.14235,2.18504 32.85791,32.75927 29.04687,38.29072 -2.57562,3.73832 -2.22184,7.98258 -5.01541,10.08761 -1.63884,1.23492 -31.77464,3.98699 -31.7977,3.95638 -3.73757,-4.96008 -4.61087,-37.10116 -5.33113,-47.61174 4.25729,-4.01739 8.72775,-5.27994 13.09737,-4.72297 z"
       id="path5939"
       inkscape:connector-curvature="0" />
    <path
       style="fill:#71c837;stroke:#ffffff;stroke-width:1px;stroke-linecap:butt;stroke-linejoin:miter;stroke-opacity:0"
       d="m 468.25167,823.29926 c -6.8972,-0.99282 -16.17003,0.88682 -24.03002,2.93743 -5.1723,1.34941 -20.07833,2.63721 -23.51952,5.27454 -0.95327,0.73059 -1.69917,1.50761 -2.2959,2.34423 -0.12206,-0.10107 -0.24617,-0.20263 -0.36997,-0.3011 -0.006,0.28273 -0.0132,0.56589 -0.0177,0.84875 -2.0256,3.31577 -1.56531,7.33531 0.25589,11.41331 0.004,0.009 -0.008,0.0227 -0.004,0.0309 1.55618,28.6756 9.82687,57.96929 13.09636,86.6524 1.18249,10.37393 1.24079,20.39376 3.16727,30.39635 1.50108,7.79386 0.60179,40.88913 3.64945,44.86573 0.39215,0.5116 36.73994,-2.7115 37.64652,-3.4063 4.62847,-3.5473 -3.73935,-23.43874 -4.65589,-28.19754 -0.86432,-4.48768 -0.45764,-28.24125 -2.01691,-30.27577 -1.33585,-1.74302 -2.98467,-4.6039 -2.59764,-7.53056 0.073,-0.55192 -3.36848,-11.19936 -1.9708,-12.27054 1.03666,-0.79451 26.41495,10.5799 36.24535,7.18894 5.61597,-1.93722 12.86759,-2.42838 17.60228,-6.05706 17.10795,-13.11156 30.72185,-42.98107 23.01336,-65.32799 -1.18887,-3.44652 -0.92249,-8.14194 -3.30373,-11.24897 -2.05813,-2.68546 -8.17043,-10.69545 -11.54449,-12.33877 -7.53601,-3.67041 -26.49958,-10.66312 -41.35396,-12.65589 -4.10142,-0.55046 -7.87662,-0.6794 -11.02566,-0.29177 -1.62396,-1.06683 -3.67115,-1.71949 -5.97022,-2.05041 z m 5.43052,38.07182 c 11.21372,1.1476 21.41535,7.74543 27.4138,15.5722 1.58084,2.06268 0.21089,5.79672 1.42039,7.37487 0.20739,0.27061 2.28035,3.54199 0.55451,4.86469 -2.78105,2.13141 -5.8431,6.59401 -8.34407,8.51077 -0.95428,0.73135 -28.68352,-0.11939 -29.7736,-1.54173 -4.23254,-5.52261 -2.84853,-24.78031 -2.69612,-33.95908 3.8478,-0.97851 7.68719,-1.20426 11.42509,-0.82172 z"
       id="path5957"
       inkscape:connector-curvature="0" />
    <path
       style="fill:#71c837;stroke:#ffffff;stroke-width:1px;stroke-linecap:butt;stroke-linejoin:miter;stroke-opacity:0"
       d="m 574.72449,825.51628 c -24.02425,5.04135 -37.2461,14.12529 -42.58299,34.44836 -0.50785,1.93389 -2.52803,11.41314 0.3647,13.3024 2.14454,1.40061 6.14183,4.37317 10.16866,7.22184 0.11527,0.94374 -0.10103,2.3885 0.41185,2.72347 7.92684,5.17707 14.91564,11.74731 23.02181,17.04149 5.65821,3.69542 17.3555,3.28531 21.98267,6.30734 3.19489,2.0866 10.59931,1.90792 14.28434,4.31464 2.74139,1.79042 5.53364,4.24194 8.12976,6.78756 0.0273,0.0267 0.0532,0.0522 0.0804,0.0789 0.2338,0.33226 0.46427,0.65289 0.71397,0.96775 1.40023,1.76563 1.47798,7.04325 1.95102,9.2975 3.77913,18.00924 -5.76627,22.85313 -13.65643,32.30576 -11.32809,1.40456 -27.7717,-2.9532 -31.09485,-2.25586 -1.04547,0.21939 -2.31586,-0.0353 -3.72553,-0.5593 -1.26747,-0.0555 -2.51451,-0.16089 -3.73535,-0.3018 -3.15056,-0.36362 -6.12802,2.01521 -8.37919,0.54496 -0.21946,-0.14334 -2.0477,-3.00708 -2.81213,-1.83662 -0.57117,0.87454 -0.7543,2.52621 -0.69828,4.58489 -0.24318,0.10896 -0.4893,0.26426 -0.68117,0.55803 -1.76686,2.70531 -8.39663,41.70571 -8.20981,41.82771 2.68015,1.7504 7.92426,2.193 10.52331,3.8905 5.79004,3.7815 12.88307,5.3789 18.98387,9.3633 1.70737,1.1151 6.93852,-1.4858 8.37919,-0.5449 10.42072,6.8058 48.8079,-11.6512 54.1696,-19.86084 1.3127,-2.0099 6.46281,-3.7126 8.35257,-6.6061 5.96831,-9.1384 10.91657,-20.6618 13.92186,-32.10606 2.55978,-9.74767 -1.7889,-25.87157 -4.08649,-36.82061 -0.41729,-1.98858 -1.10401,-3.92077 -1.95491,-5.81625 -0.73223,-2.86253 -2.26954,-5.96894 -3.05213,-6.48006 -1.68678,-1.10164 -4.81871,-8.9562 -5.96234,-10.9144 -3.88847,-6.65798 -28.32407,-13.48406 -33.96925,-17.17096 -2.81643,-1.83943 -4.70166,-5.07651 -7.51809,-6.91592 -1.56637,-1.02301 -0.31473,-5.1292 -0.0636,-6.0854 3.1304,-11.92069 16.86312,-1.02152 21.01358,1.68917 0.32005,0.20902 1.06261,0.49924 1.36114,0.70422 0.15732,-1.22181 3.19444,-7.90594 2.98011,-8.92732 -0.77027,-3.67068 9.06921,-20.20527 7.74399,-21.07078 -1.00606,-0.65706 -2.34252,-1.27112 -3.87274,-1.8695 0.39668,-1.33828 0.23778,-2.48394 -0.8638,-3.20339 -9.45541,-6.17538 -27.50153,-4.92358 -34.83035,-9.71008 -1.40822,-0.9197 -4.64656,0.9771 -6.05482,0.0572 -0.61779,-0.40349 -2.22628,0.0592 -3.98573,1.09182 -2.25573,-0.39594 -4.55259,-0.51347 -6.74842,-0.0527 z m 45.63176,43.68473 c -0.0174,0.13447 -0.0164,0.22697 0.0449,0.21409 0.17458,-0.0366 0.0944,-0.11841 -0.0449,-0.21409 z"
       id="path5965"
       inkscape:connector-curvature="0" />
    <text
       xml:space="preserve"
       style="font-size:82.17855835px;font-style:normal;font-weight:normal;line-height:125%;letter-spacing:0px;word-spacing:0px;fill:#ffffff;fill-opacity:1;stroke:none;font-family:monospace;-inkscape-font-specification:monospace"
       x="403.3956"
       y="254.41983"
       id="text3338"
       sodipodi:linespacing="125%"
       transform="matrix(0.99976389,0.02172947,-0.02172947,0.99976389,0,0)"><tspan
         sodipodi:role="line"
         id="tspan3340"
         x="403.3956"
         y="254.41983">小软件</tspan></text>
    <g
       id="g4830"
       transform="matrix(0.9820533,0.1886036,-0.1886036,0.9820533,545.24149,51.743927)">
      <path
         inkscape:connector-curvature="0"
         id="path4746"
         d="m 289.625,646.09375 c -4.63461,-0.16641 -10.55563,3.50004 -9,8.96875 5.59936,16.98493 9.80873,34.51235 13.2692,52.00965 0.97088,6.63675 3.64757,13.92496 1.76205,20.4591 -4.4871,3.53817 -12.59045,2.87797 -14.46875,9.53125 -1.09705,7.77254 9.86041,13.36116 16.125,9.03125 7.50389,-4.12707 16.16111,-9.80337 16.21875,-19.4375 0.92217,-4.84588 -1.94294,-9.37548 -2.78125,-13.9375 -4.98251,-10.24566 -3.54039,-22.38445 -7.9375,-32.75 -0.50648,-4.39263 -3.17903,-7.98307 -2.4375,-12.59375 -0.57045,-8.07244 -2.45075,-17.03904 -9.53125,-21.96875 l -0.87098,0.49132 -0.34777,0.19618 z"
         style="fill:#6e4427;fill-opacity:1;stroke:#ffffff;stroke-width:1px;stroke-linecap:butt;stroke-linejoin:miter;stroke-opacity:0" />
      <path
         inkscape:connector-curvature="0"
         id="path4748"
         d="m 278.875,674.40625 c -4.00583,-0.73199 -10.04354,1.18482 -8.5625,6.3125 -1.10521,12.22382 -3.85962,24.5379 -7.98745,36.02575 -0.18495,3.3868 -6.22378,9.76133 -2.19534,10.674 4.45074,1.04669 10.61129,5.86598 14.24529,0.55025 2.76803,-5.35675 4.88411,-10.84605 5.65625,-16.78125 5.17056,-9.7173 3.97378,-20.87299 7.125,-31.15625 0.45354,-4.6421 -4.5287,-6.14421 -8.28125,-5.625 z"
         style="fill:#6e4427;fill-opacity:1;stroke:#ffffff;stroke-width:1px;stroke-linecap:butt;stroke-linejoin:miter;stroke-opacity:0" />
      <path
         inkscape:connector-curvature="0"
         id="path4750"
         d="m 314.625,666.40625 c -4.72573,0.7858 -8.09622,4.62284 -11.6875,7.46875 5.42033,7.99384 9.14637,17.4733 17.09375,23.375 6.09425,6.84067 14.29776,13.59424 23.6875,14.0625 4.46439,-2.13792 5.01082,-8.12951 5.75,-12.34375 -1.05573,-4.48835 -6.80777,-2.81537 -9.375,-5.625 -8.4059,-2.59514 -11.96563,-11.26328 -17.0625,-17.59375 -2.80701,-2.99518 -3.10044,-9.75521 -8.40625,-9.34375 z"
         style="fill:#6e4427;fill-opacity:1;stroke:#000000;stroke-width:1px;stroke-linecap:butt;stroke-linejoin:miter;stroke-opacity:0" />
      <path
         inkscape:connector-curvature="0"
         id="path4752"
         d="m 370.96875,618.375 c -6.29871,1.95918 -14.80373,5.92094 -13.90625,13.9375 0.32222,4.38928 -5.35192,3.30347 -8.0625,4.8125 -2.67647,1.47321 -9.65455,-0.69877 -7.375,3.9375 0.18691,4.48169 -3.96273,12.60533 2.3125,14.5625 3.70394,0.32441 6.64824,-2.59273 10,-3.71875 -1.3572,8.70029 -2.6654,17.40721 -3.90625,26.125 4.81421,5.55118 11.28888,-0.14282 16.71875,-0.8125 2.12091,0.33394 5.65743,-2.28875 6.75,-1.0625 -0.60263,3.68986 0.23344,7.42707 0.3125,11.125 -4.8365,3.72327 -10.26933,6.5806 -15.59375,9.15625 -3.07418,3.55269 0.0973,8.86506 2.5625,11.8125 5.22945,3.83667 11.46444,-2.44612 15.125,-4.40625 0.85737,5.39527 -0.029,13.20585 5.28125,16.1875 4.02658,0.90726 6.49361,-3.71199 10.15625,-3.75 5.03504,-4.5235 -1.53078,-10.39984 -0.1875,-15.71875 -0.6104,-3.8054 -2.30905,-9.06267 2.71875,-10.40625 3.89271,-1.57072 9.44888,-5.35238 6.3125,-10.21875 -0.5604,-4.01778 -4.36117,-10.73815 -9.0625,-6.9375 -1.84264,0.64934 -3.61703,5.4642 -3.96875,1.5 -2.54528,-3.82844 2.93173,-4.51559 5.5,-4.875 4.69817,-2.2105 1.76753,-9.20792 1.96493,-13.37023 0.8415,-3.8263 -1.87665,-4.90906 -4.87118,-3.47352 -2.19482,0.3983 -6.22158,4.42297 -5.875,0.25 -1.00002,-4.63669 -7.38416,-6.5354 -10.40625,-2.53125 -2.80566,1.75311 -5.20173,5.16256 -3.6875,8.53125 -3.87062,1.20042 -0.0788,-3.62625 -0.4375,-5.84375 0.36162,-4.20352 3.91739,-6.00384 7.875,-6.09375 4.58141,-0.93801 9.22101,-1.55086 13.84375,-2.25 -5.00796,-3.50931 0.35052,-12.18235 -6.3125,-14.0625 -2.73957,-1.31915 -10.42689,3.16186 -9.81582,-0.62535 1.35549,-3.81107 1.91803,-11.87422 -3.96543,-11.7809 z"
         style="fill:#6e4427;fill-opacity:1;stroke:#ffffff;stroke-width:1px;stroke-linecap:butt;stroke-linejoin:miter;stroke-opacity:0" />
      <path
         inkscape:connector-curvature="0"
         id="path4754"
         d="m 414.875,609.90625 c -2.73709,1.54774 -5.47817,2.73151 -8.78125,2.1875 -4.83723,1.44599 -1.84607,7.77243 -4.0646,11.17777 -1.91628,6.85783 -4.78886,13.41269 -8.9354,19.04098 -0.8608,2.88617 -2.13443,5.09657 -5.25,5.40625 -3.9791,3.13095 1.84563,6.06648 3.875,8.03125 3.16134,5.00289 11.59121,4.82442 13.65625,-1.125 3.69029,-4.8885 7.19323,-10.24284 9.125,-15.90625 5.33264,-0.22433 10.43389,-2.15537 15.78125,-2.40625 -2.49191,3.05883 -4.9678,10.08083 0.875,11 3.34123,1.28299 8.71909,6.29239 11.53125,1.40625 2.79057,-9.6329 6.86731,-21.5073 1.0625,-30.71875 -4.08767,-3.53528 -8.4756,1.52982 -12.90625,0.8125 -4.16777,0.58439 -9.00228,3.97644 -12.3125,3.875 1.60109,-4.29939 1.04142,-10.09924 -2.6875,-12.75 -0.31966,-0.0593 -0.64696,-0.1637 -0.96875,-0.0312 z"
         style="fill:#6e4427;fill-opacity:1;stroke:#ffffff;stroke-width:1px;stroke-linecap:butt;stroke-linejoin:miter;stroke-opacity:0" />
      <path
         inkscape:connector-curvature="0"
         id="path4756"
         d="m 421.09375,637.4375 c -4.4896,0.31789 -11.45159,2.86244 -9.71875,8.65625 -0.80921,12.36404 1.93237,25.7021 -2.5,37.375 -4.0171,4.91603 -6.00148,11.44001 -11.78125,14.6875 -3.79269,4.14912 -0.72783,9.74416 2.5,13.09375 1.62332,3.73789 5.49054,6.84051 9.71875,5.1875 2.21293,-8.30469 9.69376,-14.06521 11.81987,-22.49883 1.4445,-3.42657 2.1279,-8.95523 3.18013,-11.40742 7.30404,9.02791 13.57223,19.98937 25.0625,24.25 2.93998,1.92839 4.4301,0.616 5.59375,-2.21875 2.5974,-3.79826 8.52878,-10.02013 2.16671,-13.49611 -8.81474,-7.39198 -16.81564,-16.20166 -22.66671,-25.91014 -1.50764,-5.26658 -4.30933,-10.17362 -6.21875,-15.03125 -0.12492,-4.78311 -0.37154,-12.99221 -7.15625,-12.6875 z"
         style="fill:#6e4427;fill-opacity:1;stroke:#ffffff;stroke-width:1px;stroke-linecap:butt;stroke-linejoin:miter;stroke-opacity:0" />
      <path
         inkscape:connector-curvature="0"
         id="path4758"
         d="m 493.125,597.96875 c -6.88374,3.21411 -5.29793,12.75407 -7.0625,18.96875 -2.09039,5.86304 -3.71321,12.41198 -8.96875,16.3125 -1.73063,5.17827 -7.6848,6.82085 -10.4375,11.40625 -2.98347,3.80607 -9.59146,7.71705 -7,13.34375 2.97427,1.29925 5.21878,3.52219 7.96875,5.375 4.74832,1.61843 7.71248,-4.26315 11.34375,-6.25 0.40209,7.51735 0.61317,16.11498 2.71875,23.8125 -0.88744,4.5619 0.16228,9.00074 0.5,13.5 -2.79061,5.34231 3.83782,12.22846 9,8.15625 3.64366,-1.39496 9.98461,-3.76175 7.6875,-8.90625 -0.83938,-16.6586 -3.69815,-33.10096 -6.21875,-49.46875 -0.0441,-7.37236 7.62172,-12.11113 8.28125,-19.5 -0.30386,-5.08817 3.51582,-9.34504 3.09375,-14.34375 2.49304,-3.20512 4.53737,-10.66949 -1.53125,-11.1875 -3.30663,1.19114 -6.02871,-1.66257 -9.375,-1.21875 z"
         style="fill:#6e4427;fill-opacity:1;stroke:#ffffff;stroke-width:1px;stroke-linecap:butt;stroke-linejoin:miter;stroke-opacity:0" />
      <path
         inkscape:connector-curvature="0"
         id="path4760"
         d="m 528.75,591.96875 c -5.78084,1.31791 -9.12778,7.95925 -6.7721,13.36969 -0.0298,1.56939 -3.90369,-0.90976 -5.38415,-0.71344 -3.91175,-2.97553 -9.03551,0.71383 -8.5,5.34375 0.45173,10.1116 -9.03119,17.06387 -10.5625,26.8125 -2.9622,3.03829 -7.47163,8.37472 -3.46875,12.4375 2.80064,3.32539 8.16707,7.03721 11.34375,2.15625 3.5893,-4.58357 3.46298,-12.55884 10.25,-13.6875 3.16511,-1.37948 6.75609,-1.51804 10,-1.125 0.47323,4.56416 2.31356,9.62137 2.9375,13.5625 -8.32017,-0.45787 -15.55691,4.38404 -23.78125,4.25 -3.88696,0.69207 -9.65045,0.26547 -9.4375,5.46875 -1.93452,4.16675 0.52948,10.07368 5.71875,9.21875 5.46384,-0.46372 10.95163,-1.66223 16.3125,-2.21875 4.14398,-2.67281 9.01633,-4.51998 13.8125,-4.5625 1.79906,7.68296 1.03563,16.11165 2.8125,23.96875 1.10769,4.19783 6.05271,3.48728 8.90625,1.84375 4.13116,1.7302 10.62868,-2.80924 6.5625,-7 -3.07739,-2.82978 -1.82205,-7.68664 -3.59375,-11.25 0.01,-3.3661 -3.36315,-7.25797 -2.4375,-10 3.38213,-1.37093 6.71084,-3.56448 10.4375,-2.34375 2.75993,-0.95139 5.28931,-1.67065 8.09375,-1.4375 4.59101,-1.94863 1.98878,-7.41463 2.0625,-11.03125 -1.8931,-4.79179 -7.83902,-4.06212 -11.53125,-1.90625 -3.50885,1.01964 -7.25119,1.23835 -10.8125,2.3125 -0.0233,-4.06626 -1.47018,-8.99905 -1.5625,-12.5 6.42834,-1.54933 15.4933,-0.63992 19.5625,-6.75 0.67663,-4.92131 -3.08494,-10.51697 -8.5,-8.96875 -4.52717,0.78025 -9.19965,2.91022 -13.59375,3.21875 -0.49389,-7.60541 -0.5604,-15.51872 -2.40625,-23.03125 -0.97258,-2.76449 -3.05318,-6.10627 -6.46875,-5.4375 z m -5.25,27.71875 c 2.17643,5.88176 -8.60551,5.1735 -2.28244,-0.45527 1.82849,-3.31072 1.79526,-6.61685 2.28244,0.45527 z"
         style="fill:#6e4427;fill-opacity:1;stroke:#ffffff;stroke-width:1px;stroke-linecap:butt;stroke-linejoin:miter;stroke-opacity:0" />
      <path
         sodipodi:nodetypes="cssscccssssssc"
         inkscape:connector-curvature="0"
         id="path3357"
         d="m 290.37009,650.30169 c -1.66998,1.25586 -2.34065,-1.27421 -5.75788,1.69447 -0.70219,0.61002 2.85705,13.09359 3.27559,13.57538 1.88954,2.17502 13.12804,52.59838 12.66948,59.1268 -0.70749,10.07238 -9.7814,7.85352 -13.39705,10.99456 0.1867,1.71997 -2.55748,0.75332 -1.96028,2.93236 -1.12792,0.97986 2.29265,3.72353 5.35332,4.51118 0.0624,0.20816 0.14832,0.40659 0.27451,0.55184 1.29694,1.49291 17.36408,-7.70894 17.72096,-12.78976 0.12796,-1.82176 2.2501,-7.24845 0.63937,-9.10257 -1.27214,-1.46434 -0.81222,-6.22485 -2.23577,-7.86348 -4.03696,-4.64693 -4.17005,-27.44228 -8.26704,-32.1583 -0.4329,-0.49831 0.62997,-2.30728 0.19707,-2.80559 -4.04317,-4.65406 -0.38996,-21.17767 -8.51228,-28.66689 z"
         style="fill:#ffd500;fill-opacity:1;stroke:#ffffff;stroke-width:1px;stroke-linecap:butt;stroke-linejoin:miter;stroke-opacity:0" />
      <path
         inkscape:connector-curvature="0"
         id="path3451"
         d="m 281.59323,678.4747 c -1.99274,-0.18087 -5.68065,0.0473 -7.22239,0.24454 0.79857,8.66422 -3.17148,16.60798 -3.74679,24.79842 -0.15702,2.23552 -4.37331,14.83678 -7.00879,20.84138 1.35396,0.4752 3.02347,0.95895 3.93594,1.49822 0.86393,0.51058 1.71477,0.71684 2.54578,0.77403 0.004,-0.005 0.0273,0.007 0.0311,0.002 0.30418,-0.37517 0.61548,-0.73959 0.94949,-1.02975 1.19212,-1.03563 1.97986,-6.40334 3.55317,-7.77013 0.98594,-0.85651 0.83535,-7.12686 1.59312,-8.40904 3.4673,-5.86687 4.54324,-14.72959 5.10297,-22.69823 0.10716,-1.52561 2.56718,-6.74871 1.55809,-7.91027 -0.14211,-0.16358 -0.62751,-0.28106 -1.29176,-0.34135 z"
         style="fill:#ffd500;fill-opacity:1;stroke:#ffffff;stroke-width:1px;stroke-linecap:butt;stroke-linejoin:miter;stroke-opacity:0" />
      <path
         inkscape:connector-curvature="0"
         id="path3479"
         d="m 308.2439,674.58323 c 3.01238,4.07718 6.09239,12.42265 10.42071,15.76892 4.56847,3.53194 7.76214,9.00295 12.69607,11.91889 2.22051,1.31231 11.54546,6.89217 11.69023,4.83098 0.0627,-0.89315 2.80147,-7.01812 2.5206,-7.34143 -0.58298,-0.67106 -3.41107,-0.15278 -3.95513,-0.77904 -2.48882,-2.86487 -7.8569,-3.11394 -10.12386,-5.72343 -3.93816,-4.5332 -7.42406,-9.62398 -10.59588,-13.27506 -2.76796,-3.18619 -3.37514,-7.1197 -5.35464,-9.39829 -1.05374,-1.21295 -6.58348,3.37765 -7.2981,3.99846 z"
         style="fill:#ffd500;fill-opacity:1;stroke:#000000;stroke-width:1px;stroke-linecap:butt;stroke-linejoin:miter;stroke-opacity:0" />
      <path
         inkscape:connector-curvature="0"
         id="path3497"
         d="m 371.3542,622.36824 c -1.26717,0.0698 -8.2717,4.27963 -9.3764,5.0429 -0.20235,0.54143 -0.96859,4.90477 -1.86671,10.52006 -1.23847,0.21656 -2.2379,0.41465 -2.47968,0.51502 -4.37364,1.81584 -7.6226,2.80427 -12.26829,3.39874 0.0124,10e-4 -0.7021,9.88134 -0.69412,9.8819 1.03477,0.0727 5.05513,-2.47708 6.57778,-3.10925 1.83227,-0.76072 4.50148,-1.09338 7.42152,-1.29567 -2.1176,13.68435 -4.41831,29.14686 -4.39843,29.16975 0.63013,0.72535 7.09386,-2.06853 7.96138,-2.29154 3.7202,-0.95636 9.27572,-1.9736 14.4548,-3.30781 0.587,3.08533 0.91105,6.20739 0.69013,9.3526 -0.19075,2.71568 0.49349,5.82157 1.06806,8.8779 -2.06053,1.18269 -4.21159,2.48794 -6.21799,4.23097 -0.36874,0.32034 -1.59866,1.00208 -3.03705,1.76027 -0.26037,0.11452 -0.52028,0.26209 -0.781,0.41505 -0.6029,0.30983 -1.14749,0.59658 -1.78678,0.90829 -0.0471,0.15761 -0.10375,0.30957 -0.15754,0.45884 -1.50905,1.11295 -3.03081,2.19929 -4.56402,2.09159 -0.51628,-0.0363 -0.0889,0.23672 0.5217,0.60053 -0.48682,0.15779 -0.90991,0.31149 -1.41103,0.46478 0.80343,1.9147 1.61213,4.34905 2.56242,5.44292 0.69406,0.79894 7.0686,-2.83314 7.29257,-3.02771 1.04545,-0.90822 4.35615,-3.47977 8.25041,-6.40641 -0.14201,2.71537 1.94494,18.88348 2.86009,19.9369 0.85806,0.98771 2.92067,-1.89333 2.95448,-1.92271 0.63667,-0.5531 3.70142,-0.5519 4.33809,-1.105 0.61852,-0.53733 -2.3015,-7.8197 -2.19301,-9.36418 0.16662,-2.37214 -0.31241,-7.14401 -1.08806,-12.60722 5.38619,-3.9113 10.29849,-7.29634 11.00357,-7.24681 0.6978,0.049 -2.67707,-8.27042 -2.97735,-8.00955 -3.15866,2.74404 -5.59731,6.13081 -8.97305,9.11242 -0.92399,-5.51116 -2.02791,-11.13638 -3.07749,-15.50374 2.65033,-0.91705 4.90416,-1.9773 6.33496,-3.22029 0.56084,-0.48723 1.72243,-0.27847 2.82967,-0.14584 0.0142,-0.10204 0.0535,-0.31694 0.0574,-0.37189 0.12868,-1.83193 -0.23986,-5.53187 -0.48454,-8.71161 -3.53184,1.23894 -7.45132,2.57049 -11.00333,3.67555 -0.0373,-2.79558 0.99818,-6.26362 -0.38779,-7.85899 -1.45829,-1.67863 -4.06036,1.86225 -5.88977,3.12625 0.29073,2.07247 0.74157,4.16434 1.22301,6.226 -1.80848,0.47688 -3.21013,0.74565 -3.80866,0.70361 -1.39936,-0.0983 -7.39741,2.90704 -7.9592,2.26037 -0.0216,-0.0249 0.15082,-1.67472 0.39673,-3.41811 -0.0534,-0.0197 -0.10003,-0.0477 -0.1493,-0.10441 -0.0293,-0.0337 0.20693,-0.95024 0.52954,-2.18702 0.17777,-1.03409 0.33621,-1.90198 0.45406,-2.00437 0.0279,-0.0242 0.0696,-0.0322 0.0978,-0.0558 0.71553,-2.68454 1.68807,-6.35454 2.73299,-10.36523 0.36764,-0.0209 0.70801,-0.0571 1.07084,-0.0814 0.0894,-0.41777 0.22916,-0.82726 0.46166,-1.22065 0.69819,-1.18138 9.5913,-2.89175 16.53142,-3.88246 -0.20389,-0.69423 -0.55761,-1.42734 -0.51012,-2.10342 0.0552,-0.78621 0.15234,-4.40697 -0.33985,-4.97353 -0.10739,-0.12362 -7.56975,0.84732 -14.60346,1.85632 1.65914,-7.08764 2.78798,-13.16588 1.99163,-14.08256 -0.0299,-0.0344 -0.10037,-0.0489 -0.18485,-0.0443 z"
         style="fill:#ffd500;fill-opacity:1;stroke:#ffffff;stroke-width:1px;stroke-linecap:butt;stroke-linejoin:miter;stroke-opacity:0" />
      <path
         sodipodi:nodetypes="csccscscccsccccccssscsscc"
         inkscape:connector-curvature="0"
         id="path3641"
         d="m 413.79883,614.72175 c -1.2216,0.52658 -2.51763,1.1058 -2.84396,1.24128 -0.60173,0.24983 -2.10129,0.11225 -3.51111,0.0353 -0.45378,5.85389 -3.52694,16.19332 -5.86403,19.26146 -0.54528,2.52381 -1.26765,4.55524 -2.26014,5.41745 -4.82164,4.18875 -3.44663,9.51619 -7.10162,10.12103 2.9181,2.04189 5.02912,4.90991 5.34456,4.63588 0.15693,-0.13633 0.36082,-0.36469 0.57812,-0.64859 0.33037,-0.0634 0.68528,-0.18828 0.87503,0.0302 1.70877,2.06223 4.12593,-5.52458 6.96541,-8.01572 2.41256,-2.09588 3.61833,-9.11465 5.71408,-10.93532 1.41973,-1.23337 2.0012,-1.66589 3.78406,-0.91296 2.26496,-0.57615 4.53749,-1.19567 6.61051,-1.79122 3.64858,0.098 8.92346,-0.94281 12.32343,-1.95382 0.44573,0.9049 0.72721,2.0347 0.81195,3.15841 -1.20728,3.11181 -2.54207,6.25782 -3.66974,8.98364 2.73197,1.09742 6.00545,2.5008 7.66077,3.32621 2.99647,-8.3429 4.82286,-22.34679 1.87098,-25.74468 -1.0711,-1.23294 -3.90524,1.8246 -7.19185,1.59374 -2.77913,-0.19521 -9.84291,2.73981 -13.03564,4.06536 -2.10991,0.876 -4.44268,1.04256 -6.82048,1.21258 0.41716,-2.56079 0.71212,-5.23231 0.90783,-8.0186 0.047,-0.66891 0.69383,-3.78366 0.29779,-4.23955 -0.32362,-0.37252 -0.80871,-0.3706 -1.36724,-0.15869 -0.0271,-0.22848 -0.0498,-0.42417 -0.0787,-0.6634 z"
         style="fill:#ffd500;fill-opacity:1;stroke:#ffffff;stroke-width:1px;stroke-linecap:butt;stroke-linejoin:miter;stroke-opacity:0" />
      <path
         inkscape:connector-curvature="0"
         id="path3745"
         d="m 422.10616,641.40066 c -1.69308,-0.12294 -6.40004,1.78282 -6.67504,1.818 -0.36738,7.15196 1.09707,38.79692 -2.97353,42.3332 -1.22942,1.06805 -3.54988,4.74307 -4.73441,6.74735 -0.7754,1.31203 -1.30146,3.12106 -2.41756,4.09066 -0.55585,0.48289 -6.71249,5.26322 -6.13721,6.64882 1.67116,4.02518 5.5883,8.21378 6.32977,9.34148 0.15843,-0.327 0.6261,-0.80736 0.88714,-1.03413 2.23958,-1.94561 3.74967,-6.56511 5.55212,-8.13096 3.34985,-2.91014 8.40788,-18.90612 8.8275,-24.88012 0.26528,-3.77673 1.54908,-8.53002 2.21307,-13.22118 0.48283,2.02543 1.14448,4.14767 1.23627,4.25332 1.88308,2.1676 0.75857,7.67931 2.86182,10.10035 7.47074,8.59954 9.73496,15.70455 20.41382,22.01572 0.46452,0.27453 2.07099,0.93186 3.79811,1.6765 1.51393,-2.53566 3.27761,-5.24434 4.85807,-7.61582 -4.00818,-4.04573 -9.42398,-7.91655 -13.0592,-12.10103 -3.56016,-4.09808 -6.64377,-9.16383 -10.39351,-13.48014 -3.78396,-4.35569 -3.44451,-10.83847 -6.77023,-14.66667 -2.34056,-2.69422 -1.347,-11.45648 -3.29801,-13.70227 -0.0967,-0.11136 -0.27713,-0.17547 -0.51899,-0.19308 z m -16.60798,70.97951 c -0.083,0.1714 -0.078,0.30779 0.10279,0.32049 0.0891,0.006 0.025,-0.12618 -0.10279,-0.32049 z"
         style="fill:#ffd500;fill-opacity:1;stroke:#ffffff;stroke-width:1px;stroke-linecap:butt;stroke-linejoin:miter;stroke-opacity:0" />
      <path
         id="path3763"
         transform="translate(0,308.2677)"
         d="m 493.6875,293.625 c -0.053,0.007 -0.10253,0.009 -0.125,0.0312 -2.37365,2.37366 -2.49573,14.17897 -4.25,17.6875 -1.86775,3.7355 -2.66991,9.73241 -5.65625,12.71875 -0.47533,0.47534 -3.13326,2.3373 -3.53125,3.53125 -0.50123,1.5037 -1.00781,3.34765 -2.8125,4.25 -3.41451,1.70725 -8.2784,8.08717 -11.90625,12.34375 0.005,-0.13096 -0.017,-0.23148 -0.125,-0.3125 -0.94281,-0.7071 -1.41789,1.86969 -2.125,2.8125 -0.18229,0.18229 -0.10778,0.17955 0.0625,0.0625 2.38268,1.89931 4.68097,3.40202 6.03125,4.65625 1.55723,-1.22185 3.45982,-2.59317 5.09375,-3.8125 1.13415,-1.07043 2.29146,-2.14092 3.46875,-3.1875 1.0217,-1.84428 3.38306,-6.52319 3.71875,-6.1875 1.54675,1.54675 1.58023,6.73229 1.3125,11.59375 0.37243,1.61989 0.69061,3.08489 0.78125,4.0625 -0.026,0.66491 -0.0467,1.32029 -0.0625,1.96875 -0.0974,1.15099 -0.19805,2.52002 -0.0312,3.25 1.3e-4,0.01 -1.3e-4,0.0213 0,0.0312 0.0523,3.94262 0.43775,7.31301 1.53125,9.5 1.75106,3.50212 -1.07231,9.13663 0.71875,12.71875 1.3103,2.62061 -1.19731,7.9902 0.71875,9.90625 0.0531,0.0531 0.13897,0.11315 0.25,0.15625 1.32076,-0.20883 2.48451,-0.47663 3.28125,-0.875 0.6815,-0.34075 3.06658,-1.64259 5.15625,-2.59375 -0.28798,-2.17388 -0.90625,-4.75291 -0.90625,-5.875 0,-17.71877 -4.55135,-32.59254 -5.9375,-49.90625 2.58331,-3.64073 5.48455,-9.76581 6.625,-10.90625 2.4126,-2.4126 1.78737,-11.69362 4.25,-14.15625 0.4463,-0.4463 0.63618,-2.75948 0.4375,-4.9375 1.53454,-3.32461 3.11016,-7.04609 3.09375,-7.0625 -0.70711,-0.70711 -3.54289,0.7071 -4.25,0 -0.0565,-0.0565 -4.01832,-1.57656 -4.8125,-1.46875 z"
         style="fill:#ffd500;fill-opacity:1;stroke:#ffffff;stroke-width:1px;stroke-linecap:butt;stroke-linejoin:miter;stroke-opacity:0"
         inkscape:connector-curvature="0" />
      <path
         id="path3858"
         transform="translate(0,308.2677)"
         d="m 529.5,287.65625 c -1.28848,0.0521 -2.91935,2.22297 -4.125,3.1875 0.46835,4.40665 1.54382,16.10119 2.9375,27.125 -2.7114,0.53328 -5.25997,1.06857 -8.03125,1.625 -1.51152,0.23149 -2.88791,0.48607 -4.03125,0.8125 -0.0884,0.0252 -0.19595,0.0366 -0.28125,0.0625 -1.27669,0.2602 -2.84208,0.54706 -3.96875,0.78125 4.3755,-9.11598 8.4375,-18.18041 8.4375,-19.8125 0,-0.39385 -3.20846,-0.36471 -3.53125,-0.6875 -0.22004,-0.22004 -3.34955,-1.70383 -4.125,-1.5 -0.0517,0.0136 -0.0957,0.0332 -0.125,0.0625 -0.51043,0.51043 -0.71875,5.7985 -0.71875,6.375 0,5.51517 -9.1875,16.65062 -9.1875,19.8125 0,1.66049 -2.88295,6.94863 -4.90625,10 0.17649,-0.3704 0.21778,-0.68799 -0.0312,-0.8125 -0.9428,-0.47141 -0.96609,1.86969 -1.4375,2.8125 2.21847,1.77478 4.64926,4.56949 4.96875,4.25 0.719,-0.719 3.91459,-6.74113 7.46875,-13.90625 4.31955,-1.46397 8.60616,-3.78125 13.03125,-3.78125 0.67057,0 3.82298,0.42702 4.25,0 0.48178,-0.48178 1.56678,-0.95364 2.84375,-1.375 1.26287,9.09626 2.7301,16.8551 4.21875,18.34375 0.23306,0.23306 0.45802,1.7004 0.6875,3.5625 -0.48146,0.22597 -0.97616,0.47246 -1.40625,0.6875 -3.18885,1.59443 -8.17428,-0.16286 -11.3125,1.40625 -6.19264,3.09633 -21.73991,3.78664 -21.1875,4.25 -0.29754,0.74386 -1.93837,4.43663 -0.71875,5.65625 0.50589,0.50588 8.08596,-0.30472 8.46875,-0.6875 1.54074,-1.54074 7.57312,0.20813 9.21875,-1.4375 2.92131,-2.92131 10.48747,-4.012 17.46875,-5.1875 0.43494,3.9402 0.94368,8.07486 1.625,9.4375 1.46513,2.93026 0.2274,16.50865 2.09375,18.375 0.81534,0.81534 2.20403,-1.08639 2.84375,-1.40625 1.19244,-0.59622 4.74985,0.9064 5.65625,0 0.0554,-0.0554 -2.72231,-3.40982 -2.84375,-3.53125 -0.18717,-0.18718 0,-1.83384 0,-2.125 0,-3.63213 -2.09375,-5.67921 -2.09375,-9.1875 0,-0.90516 -1.46666,-4.99791 -2.125,-5.65625 -0.28261,-0.28261 -0.5234,-3.09087 -0.8125,-6.6875 3.84068,-0.76917 7.08198,-1.70698 8.59375,-3.21875 0.6446,-0.64461 5.33094,0 6.34375,0 0.67749,0 2.41413,-0.97662 2.84375,-1.40625 0.70711,-0.7071 3.5429,0.70711 4.25,0 0.66371,-0.6637 -0.5459,-1.7793 -0.71875,-2.125 -0.44637,-0.89273 0.67881,-3.57118 0,-4.25 -1.42496,-1.42496 -8.19214,2.125 -9.90625,2.125 -3.03344,0 -7.70287,1.42927 -11.90625,3.09375 -0.68983,-8.38122 -1.67214,-18.07838 -3.65625,-20.0625 -0.0699,-0.0699 -0.12587,-0.46182 -0.1875,-0.96875 10.49037,-1.66437 20.04149,-3.32274 21.40625,-4.6875 0.66371,-0.66371 -0.51465,-1.77931 -0.6875,-2.125 -0.49947,-0.99895 -0.0345,-1.44073 -0.71875,-2.125 -0.39413,-0.39413 -7.80272,1.46338 -13.28125,3.03125 -0.0556,-0.0617 -0.0938,-0.12509 -0.15625,-0.1875 -0.0421,-0.0421 -3.10832,0.53837 -6.96875,1.28125 -0.59415,-9.2569 -1.3881,-26.63809 -3.625,-28.875 -0.25195,-0.25195 -0.54641,-0.35578 -0.84375,-0.34375 z"
         style="fill:#ffd500;fill-opacity:1;stroke:#ffffff;stroke-width:1px;stroke-linecap:butt;stroke-linejoin:miter;stroke-opacity:0"
         inkscape:connector-curvature="0" />
    </g>
  </g>
</svg>
