<?xml version="1.0" encoding="UTF-8" standalone="no"?>
<!-- Created with Inkscape (http://www.inkscape.org/) -->

<svg
   xmlns:dc="http://purl.org/dc/elements/1.1/"
   xmlns:cc="http://creativecommons.org/ns#"
   xmlns:rdf="http://www.w3.org/1999/02/22-rdf-syntax-ns#"
   xmlns:svg="http://www.w3.org/2000/svg"
   xmlns="http://www.w3.org/2000/svg"
   xmlns:sodipodi="http://sodipodi.sourceforge.net/DTD/sodipodi-0.dtd"
   xmlns:inkscape="http://www.inkscape.org/namespaces/inkscape"
   width="1052.3622"
   height="744.09448"
   id="svg4197"
   version="1.1"
   inkscape:version="0.48.3.1 r9886"
   sodipodi:docname="two_of_us.svg"
   inkscape:export-filename="/home/substack/projects/talks/hujs/images/two_of_us.png"
   inkscape:export-xdpi="100"
   inkscape:export-ydpi="100">
  <defs
     id="defs4199" />
  <sodipodi:namedview
     id="base"
     pagecolor="#282d23"
     bordercolor="#666666"
     borderopacity="1.0"
     inkscape:pageopacity="1"
     inkscape:pageshadow="2"
     inkscape:zoom="0.59454974"
     inkscape:cx="526.16675"
     inkscape:cy="321.53979"
     inkscape:document-units="px"
     inkscape:current-layer="layer1"
     showgrid="false"
     inkscape:window-width="1364"
     inkscape:window-height="766"
     inkscape:window-x="0"
     inkscape:window-y="0"
     inkscape:window-maximized="0" />
  <metadata
     id="metadata4202">
    <rdf:RDF>
      <cc:Work
         rdf:about="">
        <dc:format>image/svg+xml</dc:format>
        <dc:type
           rdf:resource="http://purl.org/dc/dcmitype/StillImage" />
        <dc:title></dc:title>
      </cc:Work>
    </rdf:RDF>
  </metadata>
  <g
     inkscape:label="Layer 1"
     inkscape:groupmode="layer"
     id="layer1"
     transform="translate(0,-308.2677)">
    <path
       style="fill:#2a2e24;stroke:#ffffff;stroke-width:1px;stroke-linecap:butt;stroke-linejoin:miter;stroke-opacity:0;fill-opacity:1"
       d="m 444.03349,-113.69749 c -29.77308,-17.3384 -106.41028,12.04863 -136.23755,20.183338 -49.61625,13.531704 -91.05698,38.677448 -129.50976,72.323637 C 165.5506,-10.046889 150.69992,-0.49983841 139.60144,12.448386 97.021216,62.125312 77.974918,139.40198 68.959747,202.50818 c -3.36919,23.58432 1.270971,52.01598 13.45556,72.32363 9.282517,15.47087 25.337973,28.1579 20.183343,48.77641 -2.56689,10.26755 -11.684685,19.60722 -16.819452,28.59307 -14.417399,25.23044 -32.004996,50.89071 -35.320847,80.73336 -6.520191,58.68173 51.492099,91.98169 60.550019,146.32922 1.31831,7.90983 4.58026,13.35072 3.36389,21.86528 -2.6696,18.68721 -8.4731,37.73245 -15.137502,55.50419 -11.754766,31.34604 -49.250632,78.10297 -31.956956,112.69032 2.330569,4.66114 17.109198,18.98431 21.865286,26.91112 38.374752,63.95792 88.506642,64.26241 153.057002,85.7792 22.46288,7.48762 44.41643,18.37076 67.2778,25.22917 27.53286,8.25986 56.17014,13.20156 84.09725,20.18334 22.16551,5.54138 44.30536,13.22314 67.2778,15.13751 49.73761,4.1448 99.61893,3.36389 149.69311,3.36389 33.23868,0 67.81748,2.75827 100.91671,0 21.4711,-1.78926 43.36348,-7.8509 63.91391,-13.45556 12.04001,-3.28364 24.93959,-3.43782 37.00279,-6.72778 26.45252,-7.21433 51.25565,-18.05907 75.68753,-30.27501 19.09017,-9.54509 42.13708,-19.17999 55.50418,-37.00279 4.40088,-5.86785 9.4112,-14.77804 11.77362,-21.86529 3.88229,-11.64689 9.3545,-78.63619 6.72778,-89.14309 -4.87456,-19.49824 -9.55944,-42.53823 -1.68195,-62.23196 7.7766,-19.4415 18.05904,-35.85233 30.27501,-52.1403 4.53665,-6.04886 6.20568,-15.38863 10.09167,-21.86529 9.4656,-15.77592 20.7859,-31.27924 30.275,-47.09446 10.3942,-17.32367 13.483,-52.25007 18.5014,-72.32363 6.4798,-25.91934 20.7385,-48.74362 25.2292,-75.68753 1.8526,-11.11593 0.1149,-24.5399 -1.682,-35.32085 -3.7295,-22.37717 3.2098,-46.49126 0,-68.95975 -2.1863,-15.30441 -5.8702,-30.17568 -8.4097,-45.41251 -2.1942,-13.16529 -1.1542,-27.10856 -3.3639,-40.36668 -2.5401,-15.24052 -10.4948,-28.92676 -13.4555,-43.73057 -3.169,-15.84485 -5.2862,-31.4769 -8.4098,-47.09447 -5.2539,-26.26965 -30.1232,-48.548703 -43.73053,-68.959742 -3.06168,-4.592515 -8.55108,-5.794961 -11.77362,-10.091671 C 972.99569,41.589411 948.23081,12.19092 933.4795,2.3567157 850.30116,-53.095513 739.69677,-72.269357 642.50301,-88.468317 c -14.7249,-2.454149 -28.95318,-7.980614 -43.73057,-10.09167 -20.15601,-2.879433 -40.58062,-3.399543 -60.55002,-6.727783 -18.40932,-3.06822 -36.13891,-2.51528 -53.82225,-8.40972 -9.72649,-3.24217 -21.79496,-8.40973 -20.18334,-8.40973 0.45671,0 -8.53105,6.07927 -20.18334,8.40973 z"
       id="path5431"
       inkscape:connector-curvature="0"
       transform="translate(0,308.2677)" />
    <path
       style="fill:#2d3126;stroke:#ffffff;stroke-width:1px;stroke-linecap:butt;stroke-linejoin:miter;stroke-opacity:0;fill-opacity:1"
       d="m 524.76686,2.3567157 c -2.2426,-1.68194509 -8.40973,-2.80324179 -6.72778,-5.0458352 1.68194,-2.2425934 8.70997,7.0280264 6.72778,5.0458352 -7.13434,-7.1343345 -23.42437,-18.4604397 -33.63891,-21.8652857 -12.82779,-4.275933 -27.1038,-4.075204 -40.36668,-6.72778 -72.01014,-14.402029 -132.59934,31.6826423 -179.96812,79.051417 -31.40611,31.406114 -50.74381,45.157895 -60.55002,94.188923 -7.63421,38.17107 11.05932,74.25893 26.91112,105.96254 5.47367,10.94734 -14.64897,29.05368 -18.50139,38.68473 -7.49583,18.73957 -10.61653,38.99482 -13.45556,58.86808 -2.51593,17.61149 2.6511,71.37326 13.45556,85.7792 11.86329,15.81772 27.88839,27.18373 35.32084,42.04862 1.18112,2.36225 -10.53929,50.79743 -5.04583,67.27781 2.70891,8.12675 17.78696,36.03527 10.09167,43.73057 -25.96405,25.96404 -39.69991,62.58037 -55.50419,94.18892 -2.82063,5.64126 1.07755,14.66436 -1.68194,20.18334 -1.39201,2.784 -3.21329,0.45182 -1.68195,5.04584 12.1614,36.48419 22.90398,60.68183 55.50419,82.4153 14.81283,9.87522 24.77011,32.26268 43.73057,37.00279 26.25375,6.56344 49.97055,6.84974 77.36947,0 6.51747,-1.62936 14.30907,1.2552 20.18334,-1.68194 8.14754,-4.07377 15.99821,-9.68105 23.54723,-13.45556 10.633,-5.3165 58.66209,15.51509 77.36947,11.77361 33.28562,-6.65712 66.57049,-21.06886 99.23476,-31.95695 6.8848,-2.29493 10.63561,-8.6817 16.81945,-11.77362 2.48042,-1.2402 28.9055,11.87776 33.6389,13.45556 8.99793,2.99931 52.92665,3.54301 62.23197,1.68195 7.01475,-1.40295 15.72962,-1.978 21.86529,-5.04584 8.05431,-4.02715 7.34938,-16.91087 11.77361,-23.54723 3.94946,-5.92418 15.94327,-12.17649 21.86529,-15.1375 35.2346,-17.6173 75.37577,-11.30599 102.59865,-52.1403 34.58611,-51.87918 -47.21102,-166.1629 -30.27502,-216.97091 5.70772,-17.12314 19.39518,-27.8049 31.95696,-40.36668 4.31078,-4.31078 5.41007,-10.13807 8.40973,-15.13751 3.76976,-6.28294 10.50129,-12.70613 15.1375,-18.50139 13.83733,-17.29666 25.45109,-45.28393 28.59307,-67.2778 2.31914,-16.23403 -3.67853,-31.84822 -6.72778,-47.09447 -7.29723,-36.48612 -24.74429,-68.23241 -45.41252,-99.23475 -9.66343,-14.49515 -31.31128,-27.94739 -43.73057,-40.36668 C 812.22438,141.80307 818.12249,115.45669 812.37946,98.227583 805.77326,78.408998 800.5802,53.902166 787.15028,35.995617 776.15073,21.329544 766.56817,3.3190948 751.82944,-7.7349546 710.14521,-38.998124 638.16651,-47.01751 588.68077,-34.646075 559.63782,-27.385339 546.10719,-6.1794188 524.76686,2.3567157 z"
       id="path5429"
       inkscape:connector-curvature="0"
       transform="translate(0,308.2677)" />
    <path
       style="fill:#313529;stroke:#ffffff;stroke-width:1px;stroke-linecap:butt;stroke-linejoin:miter;stroke-opacity:0;fill-opacity:1"
       d="m 533.17658,101.59147 c -1.55999,-16.715078 -46.60504,-57.186128 -90.82503,-57.186128 -24.57324,0 -47.75034,7.507056 -70.64169,15.137505 -2.16593,0.721974 -4.56186,4.323861 -6.72778,5.045835 -18.1572,6.052398 -43.42545,19.267954 -50.45836,40.366678 -8.05406,24.16221 -14.9889,50.75556 -3.36389,74.00559 3.19089,6.38177 1.82068,15.41495 5.04584,21.86528 3.18864,6.37729 26.92615,38.6697 23.54723,42.04863 -17.35549,17.35549 -27.58772,28.9409 -37.00279,57.18613 -2.41364,7.24091 0.76484,16.20687 -1.68195,23.54723 -2.56458,7.69376 -3.83351,24.28993 0,31.95696 4.03141,8.06281 -1.31885,18.86449 5.04584,25.22917 5.38565,5.38565 11.31791,11.31791 16.81945,16.81945 2.65237,2.65237 12.08148,1.98982 15.1375,5.04584 1.1213,1.12129 0.56065,3.92454 1.68195,5.04583 1.59793,1.59793 -5.648,18.02378 -6.72778,20.18334 -7.63212,15.26425 -8.40973,34.97426 -8.40973,50.45835 0,1.91309 -2.88577,4.32012 -1.68194,6.72778 4.0483,8.09661 1.26835,24.81558 6.72778,30.27502 1.96468,1.96467 14.29757,11.77154 11.77362,16.81945 -3.18746,6.37491 -0.26749,15.67248 -3.3639,21.86528 -5.84172,11.68345 -6.69014,26.83586 -11.77361,37.00279 -6.12261,12.24523 -18.82385,17.1419 -28.59307,26.91112 -11.34744,11.34745 -15.58139,23.19695 -20.18334,37.00279 -14.64748,43.94246 17.44442,86.09169 53.82224,104.2806 15.95356,7.97677 44.004,-6.02352 55.50419,-11.77362 8.8146,-4.4073 13.14606,-14.98275 20.18334,-18.50139 4.42326,-2.21163 27.48121,25.51422 37.00279,30.27501 26.04312,13.02155 59.99735,2.51095 77.36948,-23.54723 3.76949,-5.65425 13.49863,-8.49588 16.81945,-15.13751 2.69864,-5.39728 -4.06338,-83.39776 1.68194,-89.14309 4.35521,-4.3552 6.2354,56.69375 6.72778,57.18614 4.35833,4.35833 11.20641,4.47863 15.13751,8.40972 13.89063,13.89064 22.28047,34.68747 43.73057,45.41252 26.27966,13.13983 57.9782,-9.2018 77.36947,-28.59307 3.55722,-3.55722 1.60475,-13.41696 5.04584,-15.1375 9.81429,-4.90715 25.63835,1.47735 35.32084,-3.36389 20.24311,-10.12156 28.92338,-19.16203 38.68474,-38.68474 13.5852,-27.1704 -38.68474,-87.32404 -38.68474,-114.37226 0,-8.76707 1.33283,-19.4851 5.04584,-26.91112 2.70641,-5.41283 -1.49127,-23.73791 0,-25.22918 5.80973,-5.80974 4.25511,-33.7394 10.09167,-45.41252 7.35755,-14.71511 27.74844,-37.4178 38.68473,-53.82224 4.5094,-6.76409 9.84125,-19.18165 11.77362,-26.91112 1.42317,-5.69268 -1.85013,-12.95102 0,-18.50139 0.95537,-2.86611 2.44816,-4.57864 1.68194,-8.40973 -16.23207,-81.16038 -15.25228,-89.25787 -68.95974,-142.96533 -2.28869,-2.28869 9.36578,-30.50518 11.77361,-35.32084 4.97599,-9.95197 -3.72519,-33.04086 -6.72778,-42.04863 -10.90451,-32.713535 -46.50171,-57.549199 -75.68753,-67.277803 -15.98869,-5.329564 -34.83988,3.243649 -48.7764,6.72778 -13.55395,3.388486 -35.58232,6.989251 -45.41252,16.819451 -3.44691,3.446915 -6.17526,11.221096 -8.40972,13.45556 -4.76692,4.76692 -8.16904,6.426916 -15.13751,15.137502 z"
       id="path5427"
       inkscape:connector-curvature="0"
       transform="translate(0,308.2677)" />
    <path
       style="fill:#be6010;fill-opacity:1;stroke:#f89b4d;stroke-width:4;stroke-linecap:round;stroke-linejoin:round;stroke-miterlimit:4;stroke-opacity:1;stroke-dasharray:none"
       d="m 625.39445,404.65869 c -5.57311,0.0886 -11.39526,1.47293 -15.28125,3.40625 -0.78586,0.39099 -3.65004,0.0272 -4.1875,0.5625 -2.49155,2.48166 -7.62841,4.02539 -9.5,7.75 -1.93542,3.85163 -4.19328,8.33648 -6.5625,11.875 -2.32814,3.4772 -2.91318,7.98415 -4.21875,11.875 -1.08665,3.23845 -3.08437,6.89934 -4.15625,10.09375 -0.68604,2.04455 0.56666,5.66226 0.5625,7.75 -0.003,1.47035 0.10014,2.95745 0.25,4.4375 -0.29559,2.68264 -0.26713,5.18448 0.3125,6.34375 0.15608,0.31216 0.28451,10.10027 1.78125,13.09375 0.31194,0.62388 -0.47464,2.49412 0,2.96875 2.43221,2.43222 2.73308,5.73308 5.34375,8.34375 4.76246,4.76247 10.90499,9.32666 17.03125,14.1875 0.0335,0.25506 0.0886,0.48904 0.15625,0.625 4.43658,8.91752 -0.17267,17.80257 1.21875,25.4375 -0.0346,0.0378 -0.0575,0.0887 -0.0937,0.125 -0.38001,0.37849 -0.21761,3.30582 -0.0937,4.90625 -13.60643,0.96302 -25.09355,3.87481 -30.28125,9.0625 -0.86674,0.86674 -4.76446,0.0145 -5.9375,1.1875 -5.51003,5.51003 -6.95098,10.30822 -10.71875,17.84375 -1.85594,3.71189 0,8.76484 0,11.90625 0,0.78684 -0.0119,1.58311 -0.0312,2.375 -0.491,15.20035 -15.7003,86.30011 9.21875,101.15625 0.18639,2.48349 0.3125,4.63268 0.3125,5.875 0,10.95536 -1.93044,25.15519 -2.59375,38.59375 0.12074,0.97856 0.23138,1.66888 0.40625,1.84375 1.09757,1.09757 6.97343,22.54803 8.6875,37.34375 -1.44629,5.85563 -3.66556,18.19082 -2.75,20.9375 3.92906,11.78719 5.96875,27.43403 5.96875,40.4375 0,7.29018 -3.65807,14.8953 -2.375,22.59375 3.27196,19.63175 2.375,41.67125 2.375,60.65625 0,13.13424 -0.43651,55.03324 1.1875,58.28126 1.80225,3.6045 5.07141,5.0714 7.125,7.125 0.44084,0.4408 0.82012,4.0152 1.1875,4.75 4.39667,8.79334 13.71679,12.81154 21.40625,16.65624 1.90291,0.9515 5.25335,-0.9514 7.15625,0 1.58127,0.7906 4.97698,2.2615 7.125,1.1875 12.32356,-6.1618 3.99934,-22.90754 -1.1875,-33.28125 -1.78522,-3.57044 -6.59417,-5.40667 -8.34375,-7.15625 -1.53428,-1.53429 -1.11117,-4.67367 -3.5625,-7.125 -0.83219,-0.83218 2.80865,-11.15241 3.5625,-11.90625 1.36116,-1.36116 -3.1138,-14.72994 0,-17.84375 1.32307,-1.32306 -0.18074,-61.41977 7.15625,-76.09375 1.90994,-3.81987 -1.44504,-62.20303 2.57361,-56.03404 7.7917,11.96094 7.64925,69.38601 9.30139,72.69029 2.49902,4.99803 2.375,35.67661 2.375,41.625 0,2.19474 2.40625,7.30526 2.40625,9.5 0,15.69559 1.1875,33.44807 1.1875,44 0,1.76489 8.06894,13.09376 10.6875,13.09376 1.44172,0 6.95804,4.6509 9.53125,5.9375 4.97209,2.486 30.86193,5.9818 35.65625,1.1875 2.77584,-2.7759 2.375,-7.6278 2.375,-10.68751 0,-18.16951 -20.74196,-23.88716 -30.03125,-27.21875 -0.23317,-2.02759 0.3125,-6.21363 0.3125,-7.28125 0,-6.58553 0.57936,-9.56003 -2.375,-15.46875 -1.36527,-2.73055 2.91024,-25.08577 1.1875,-28.53125 -0.63924,-1.27847 -2.375,-2.13312 -2.375,-3.5625 0,-1.77293 2.375,-3.00833 2.375,-4.78125 0,-8.66164 -1.1875,-16.61395 -1.1875,-28.53125 0,-1.05716 -1.9577,-2.7923 -1.1875,-3.5625 2.81414,-2.81414 3.5625,-21.7696 3.5625,-28.5625 0,-6.06998 1.76445,-23.2043 0,-24.96875 -0.44021,-0.44021 -0.93507,-0.82656 -1.4375,-1.1875 -0.4594,-3.69892 -0.86665,-7.0172 -0.875,-9.03125 0.0338,-0.46782 0.0688,-0.93028 0.0937,-1.40625 0.0253,-0.10487 0.0593,-0.23593 0.0937,-0.3125 l -0.0625,0 c 0.21112,-4.36941 0.0328,-9.02728 -0.71875,-13.25 0.12008,-0.39288 0.29245,-0.72995 0.53125,-0.96875 -4.87032,-7.63549 2.5174,-16.00023 4.75,-29.75 -0.58519,-18.35711 -0.3096,-35.02346 0.23299,-49.9743 7.93973,0.59969 16.44853,0.11309 20.76701,-2.74445 3.67165,-2.42953 6.47791,-14.50845 8.21875,-27.6875 1.04414,-3.84832 1.83886,-7.65135 3.28125,-9.09375 0.15193,-0.15192 -0.35105,-3.92288 0,-4.625 0.28033,-0.56064 0.84375,-1.06068 0.84375,-1.6875 0,-1.26131 -0.73267,-4.81591 -0.40625,-5.46875 0.84594,-1.69189 1.15765,-6.0597 0.40625,-7.5625 -1.24904,-2.49808 1.41941,-7.86184 -0.40625,-9.6875 -0.50316,-0.50316 0.91327,-2.83673 0.40625,-3.34375 -0.0269,-0.0269 -0.79199,-4.32228 0,-5.90625 0.0547,-0.10947 0.76621,-0.51504 0.4375,-0.84375 -0.21476,-0.21476 -0.84375,-1.92275 -0.84375,-2.5 0,-2.74977 1.81498,-9.96627 1.25,-10.53125 -1.3797,-1.37971 0.19826,-3.58299 -0.84375,-4.625 -0.56549,-0.56549 -0.21508,-2.71508 -0.84375,-3.34375 -2.81321,-2.81322 -2.85866,-7.76995 -4.84375,-11.84375 -0.003,-0.0107 0.003,-0.0206 0,-0.0312 -1.48457,-6.05567 -2.27416,-8.65087 -5.5625,-9.9375 0.33344,-6.14536 -8.15415,-11.71748 -15.34375,-13.96875 -0.32092,-0.84605 -0.63893,-1.67544 -0.96875,-2.5 -8.58866,-5.2895 -23.51198,-9.00591 -39.375,-10.71875 0.0725,-0.0637 0.15153,-0.12054 0.21875,-0.1875 1.52332,-1.51728 1.85434,-10.6386 1.90625,-19.375 2.48089,-0.25083 4.91273,-0.7678 7.0625,-1.53125 5.9533,2.7222 13.13034,-3.15268 17.5625,-7.21875 3.58177,-3.28591 3.32687,-12.08554 2.34375,-19.65625 0.5035,-1.43806 1.04293,-3.02337 2.125,-5.1875 0.24393,-0.48788 1.23589,-7.51203 1.625,-12.03125 0.86485,-1.26832 1.54082,-2.64641 1.59375,-3.875 0.13299,-3.08704 1.13144,-10.22099 2.96875,-13.53125 0.20281,-0.3654 -1.38265,-1.5965 -0.5,-2.40625 1.95243,-1.79116 -2.58967,-20.91989 -3.78125,-22.21875 -0.12898,-0.14059 -0.39823,-0.0399 -0.65625,0.0312 -0.0837,-0.32644 -0.16033,-0.64985 -0.25,-0.96875 0.178,-0.45801 0.29044,-0.97904 -0.1875,-1.5 -0.067,-0.073 -0.17823,-0.0669 -0.28125,-0.0625 -0.47322,-1.45094 -0.99358,-2.79367 -1.59375,-4 -2.60738,-5.24081 -6.65274,-9.10551 -10.65625,-13.125 -1.33758,-1.34293 -2.66277,-3.64463 -4.1875,-4.15625 -6.29216,-2.1113 -11.27659,-2.70189 -17.9375,-1.71875 -2.49549,-1.14818 -5.58879,-1.69796 -8.8125,-1.78125 -0.46053,-0.0119 -0.90967,-0.007 -1.375,0 z m 41.90625,377.09375 0.9375,0.0625 c -0.47753,-0.47753 -0.76064,-0.45423 -0.9375,-0.0625 z m 7.375,-175.03125 c 1.6845,11.15305 4.91855,23.93098 2.875,33.96875 -0.37934,1.86329 -1.61144,5.29795 -3.4375,7.15625 -0.19693,-1.76988 -0.58259,-3.39528 -1.03125,-4.34375 -1.84676,-3.90413 2.63079,-7.78061 -2.71875,-14.78125 0.0296,-1.73958 0.0625,-3.44965 0.0625,-5.09375 0,-5.07618 1.73299,-11.53795 4.25,-16.90625 z"
       id="path4538"
       inkscape:connector-curvature="0"
       sodipodi:nodetypes="ccsssssccsssscccccscssccscscssssssssssssssssssssssssscssssssssscccccccccscccssssscssssscccccccccscccssssccccssscscccccccscscc" />
    <path
       style="fill:#3f8f8f;fill-opacity:1;stroke:#a3e9e9;stroke-width:4;stroke-linecap:round;stroke-linejoin:round;stroke-miterlimit:4;stroke-opacity:1;stroke-dasharray:none"
       d="m 426.27153,405.09203 c -0.32983,0.011 -0.61698,0.0508 -0.8125,0.125 -2.64932,1.00582 -5.9114,2.42684 -7.96875,2.21875 -0.0936,-0.009 -1.20396,1.51664 -1.375,1.65625 -1.10482,0.90185 -3.86393,0.97315 -4.96875,1.875 -5.33895,4.35813 -12.85808,6.8957 -17.59375,14.375 -2.42482,3.82966 -2.92978,10.08704 -5.625,14.34375 -0.4398,0.6946 0.4913,2.7387 -0.40625,4.15625 -1.5066,2.37946 -2.75136,15.89285 -2.28125,16.46875 0.0307,0.0376 0.0654,0.11465 0.0937,0.15625 -0.6338,2.05572 -1.12445,4.14438 -1.34375,6.3125 -1.14919,11.36157 3.1263,20.41303 8.84375,29.6875 1.16436,4.14779 2.68042,9.90445 2.21875,14.46875 -0.51939,5.135 6.42284,11.82483 9.21875,15.25 0.81426,0.99751 3.60898,1.15143 4.53125,2.28125 1.04378,1.27869 5.00526,0.12201 5.875,1.1875 0.90775,1.11203 7.70782,1.859 8.875,0.90625 0.71137,-0.58068 1.63537,-1.05255 2.65625,-1.46875 0.67952,2.40104 1.32468,4.46204 1.71875,5.5 1.14465,3.01498 -0.15507,6.34024 1.46875,8.4375 0.19074,1.89669 0.40625,3.80233 0.40625,4.78125 0,0.83339 -0.18187,2.58898 -0.34375,4.15625 -6.34304,1.38206 -11.94931,3.1934 -16.3125,5.375 -4.32555,2.16277 -14.23381,1.14006 -19.03125,5.9375 l -6.46875,6.46875 c -2.17238,1.42741 -4.39092,3.23468 -6.59375,5.4375 -8.13825,8.13826 -26.8127,84.70303 -10.71875,92.75 0.78276,0.39138 6.68155,-0.23859 15.09375,-1.40625 -0.89948,29.68596 -3.1875,55.48273 -3.1875,89.40625 0,9.40306 2.31812,21.36402 2.625,31.9375 1.06713,1.29312 2.13237,2.56987 3.3125,3.75 1.23001,1.23001 2.83476,1.84972 4.625,2.15625 -4.36444,29.51803 5.58756,66.8747 0.125,94.1875 -1.97115,9.85577 -3.23079,25.43983 -1.1875,35.65625 0.37103,1.85516 3.57899,31.80019 2.71875,38.09375 -2.14756,0.031 -4.96373,0.57181 -8.3125,2.1875 -0.11566,0.0558 -0.22688,0.0978 -0.34375,0.15625 -1.83174,0.91587 -1.97176,2.375 -3.5625,2.375 -3.09799,0 -4.93362,3.74611 -5.96875,4.78125 -2.20543,2.20543 -7.8833,3.1333 -9.5,4.75 -1.38754,1.38753 -0.98747,4.54997 -2.375,5.9375 -7.72411,7.72411 -6.71802,18.64087 3.5625,23.78117 3.75508,1.8776 22.73403,-4.2264 26.15625,-5.93746 6.60685,-3.3034 26.95933,-4.3343 28.5625,-5.9375 4.98664,-4.9866 21.40021,-16.66225 10.6875,-27.37496 -0.0211,-0.0211 -0.0419,-0.041 -0.0625,-0.0625 0.42215,-0.36366 0.84828,-0.72328 1.25,-1.125 0.74223,-0.74223 1.47418,-1.3496 2.1875,-1.90625 0.20578,-8.35453 -0.91407,-21.70313 -2.1875,-24.25 -2.40817,-4.81633 0,-13.48189 0,-17.84375 0,-4.78757 -0.89363,-13.76177 -1.90625,-23.875 0.40929,-7.14062 7.00941,-34.33074 8,-41.9375 0.77336,5.37676 4.06068,20.68387 4.625,21.8125 3.1797,6.35941 5.56009,66.16107 4.75,67.78125 -1.37821,2.75642 -0.99378,15.31651 -0.1875,23.90625 -0.63173,0.66559 -1.33667,1.43042 -2.1875,2.28125 -1.18931,1.18931 0.002,4.74819 -1.1875,5.9375 -2.78553,2.78553 -2.27902,8.21651 -2.375,8.3125 -11.55584,11.55581 17.35097,25.46147 27.34375,15.46867 4.22196,-4.22186 6.6387,-9.43476 7.5,-14.68742 0.26929,-0.25843 0.54864,-0.51739 0.8125,-0.78125 4.17681,-4.17682 -1.68828,-15.65469 1.1875,-21.40625 1.77325,-3.5465 -1.60496,-11.04007 0,-14.25 0.43638,-0.87275 2.40625,-3.92292 2.40625,-4.78125 0,-3.50669 -2.49223,-15.2968 -1.21875,-17.84375 2.24133,-4.48267 6.12633,-79.3411 5.96875,-79.65625 -1.94297,-3.88595 -3.5625,-10.5203 -3.5625,-15.46875 0,-2.29155 2.375,-6.20617 2.375,-10.71875 0,-8.57037 -0.27098,-19.48088 -2.09375,-29.53125 1.66221,-1.1759 3.15231,-2.43356 4.46875,-3.75 0.91212,-0.91212 0,-17.81293 0,-22.59375 0,-4.45752 2.744,-17.10575 1.1875,-20.21875 -2.56351,-5.12701 -3.12795,-35.81608 -2.96875,-55.96875 7.53163,1.73356 14.77256,2.41154 21.3125,1.5 4.65721,-0.64913 12.80332,2.2936 16.9375,-1.8125 9.64243,-9.57693 7.61734,-29.92637 7.65625,-41.34375 0.0125,-3.68647 1.97734,-6.74913 2.28125,-10.53125 0.80025,-9.95936 -4.75155,-30.45715 -9.25,-39.53125 -2.39963,-4.84044 -4.16524,-9.29609 -5.75,-13.46875 0.68998,-6.55214 0.27593,-12.13564 -1.6875,-16.0625 -6.47747,-12.95494 -30.43705,-18.79028 -54.875,-19.21875 -0.50222,-0.74249 -1.30747,-1.67264 -2.1875,-3.375 -0.70653,-1.41307 -1.12907,-3.46315 -1.9375,-5.46875 2.05009,-7.06822 2.9841,-25.83018 4.1875,-26.8125 2.47166,-2.01758 5.26465,-10.90906 5.375,-12 0.0213,-0.21035 4.88591,-7.27022 5.625,-8.4375 1.07033,-1.69043 1.36096,-4.51856 1.6875,-7.28125 1.06766,-1.9453 2.02277,-3.93896 2.65625,-6 6.43403,-20.93279 6.80243,-45.4789 -12.96875,-56.75 -3.86491,-3.68309 -9.56241,-7.57467 -14.28125,-10.5625 -2.21632,-1.4033 -18.66794,-6.53378 -24.84375,-7 -0.44113,-0.0333 -0.82642,-0.0423 -1.15625,-0.0312 z"
       id="path4332"
       inkscape:connector-curvature="0" />
    <path
       style="fill:#3f8f8f;fill-opacity:1;stroke:#a3e9e9;stroke-width:4;stroke-linecap:round;stroke-linejoin:round;stroke-miterlimit:4;stroke-opacity:1;stroke-dasharray:none"
       d="m 379.4881,617.35152 c 10.58732,3.56925 29.27881,31.0706 41.60909,40.38414 21.5906,16.30822 61.75509,40.26124 89.38688,36.40989 4.65721,-0.64913 12.79639,2.28332 16.93057,-1.82278 9.64243,-9.57693 7.62392,-29.92713 7.66283,-41.34451 0.0125,-3.68647 1.98853,-6.74076 2.29244,-10.52288 0.80025,-9.95936 -4.76928,-30.44763 -9.26773,-39.52173 -7.41956,-14.96643 -6.20821,-23.3233 -8.21335,-30.13862 m -15.90497,80.66544 c 0.0225,0.13988 1.82009,3.22878 1.74663,3.33078 -11.4931,1.54765 -20.92057,-1.98794 -37.28835,-14.41977 -6.0775,-10.62929 -24.31647,-18.54999 -32.94618,-24.76543 -4.10215,-2.95452 -6.07956,-6.4515 -9.93545,-9.22865 -6.03133,-4.344 -22.03603,-6.41641 -27.99141,-4.09432 -1.04469,0.40733 -9.98684,5.80034 -8.26352,9.08884 1.18943,2.2697 -7.07553,8.07703 -1.52896,7.17499"
       id="path4317"
       inkscape:connector-curvature="0"
       sodipodi:nodetypes="cssscssccccssssc" />
    <path
       style="fill:#3f8f8f;fill-opacity:1;stroke:#a3e9e9;stroke-width:4;stroke-linecap:round;stroke-linejoin:round;stroke-miterlimit:4;stroke-opacity:1;stroke-dasharray:none"
       d="m 396.51458,560.99201 c -4.14515,2.83219 -7.17314,5.8919 -15.46875,14.1875 -8.13825,8.13826 -26.8127,84.70303 -10.71875,92.75 3.13106,1.56553 87.97799,-13.00924 89.21875,-14.25 6.69639,-6.69639 28.58704,8.98773 42.375,2.09375 0.99021,-0.4951 3.9956,0.7544 4.75,0 1.82101,-1.82101 5.06243,-3.90619 7.125,-5.96875 1.59587,-1.59587 1.57571,-9.18261 -1.1875,-14.46875 -2.92329,-5.59234 -12.95332,-4.57832 -17.46875,-9.09375 -1.3759,-1.3759 -63.50605,-4.90423 -67.71875,-3.5 -2.22464,0.74155 -27.92044,5.36082 -28.53125,4.75 -0.20995,-0.20995 -0.3298,-0.46503 -0.375,-0.78125 -2.07965,0.47522 -4.27578,0.84922 -5.75,-0.625 -0.3377,-0.3377 -1.03403,-2.68194 -0.59375,-3.5625 0.23124,-0.46247 1.45556,-1.51318 1.1875,-1.78125 -3.52199,-3.52199 2.60907,-7.95282 4.15625,-9.5 0.66831,-0.66831 -1.21269,-2.97028 0.59556,-4.77853 1.30779,-1.30779 5.11249,-2.74202 5.34194,-2.97147 1.43929,-1.43929 2.14347,-0.59375 3.59375,-0.59375 1.79842,0 3.08288,-0.28757 4.0625,-0.53125"
       id="path4349"
       inkscape:connector-curvature="0"
       sodipodi:nodetypes="csssssssssscsscssssc" />
    <path
       style="fill:#be6010;fill-opacity:1;stroke:#f89b4d;stroke-width:4;stroke-linecap:round;stroke-linejoin:round;stroke-miterlimit:4;stroke-opacity:1;stroke-dasharray:none"
       d="m 674.22441,590.629 c -2.5601,12.57506 6.41818,34.05266 3.32906,49.2262 -0.56739,2.78695 -3.07462,9.08375 -6.55973,8.37423 -4.18427,-0.85186 -38.66363,-11.11089 -43.79661,-15.13167 -74.53797,4.05413 34.3567,67.53543 64.33618,52.8085"
       id="path4392"
       inkscape:connector-curvature="0"
       sodipodi:nodetypes="csscc" />
    <path
       style="fill:#be6010;fill-opacity:1;stroke:#f89b4d;stroke-width:4;stroke-linecap:round;stroke-linejoin:round;stroke-miterlimit:4;stroke-opacity:1;stroke-dasharray:none"
       d="m 561.7382,581.59619 c -5.50641,19.73756 -17.23863,92.90786 11.375,100.59375 11.75341,3.15709 22.30467,-3.12074 31.40625,-10.6875 5.71244,-2.12283 13.27053,-3.53108 20.65625,-4.96875 8.19935,-3.97478 20.44033,-7.90908 26.15625,-13.625 1.47365,-1.47364 4.54663,-1.20288 5.875,-2.53125 0.45845,-0.45844 2.15684,-0.63955 4.1875,-0.71875 0.62836,-0.26388 1.32035,-0.56642 2.125,-0.96875 2.39223,-1.19611 5.77204,-0.36232 8.40625,-1.25 4.43939,-1.496 3.15863,-3.49726 3.375,-5.46875 0.42049,-3.83141 -3.28484,-4.51806 -1.25,-6.3125 3.74342,-3.30116 0.974,-7.43606 -9.25,-10.9375 -9.33267,-3.19617 -29.40072,1.01221 -47.15625,1.59375 -0.01,9.1e-4 -0.0217,-9e-4 -0.0312,0 -0.59861,0.0564 -1.12779,0.0937 -1.59375,0.0937 -2.52789,0 -4.64455,1.69727 -6.3125,2.53125 -5.83166,2.91582 -13.33094,3.64344 -17.25,7.5625 -0.49786,0.49786 -3.13642,0.23241 -4.84375,-0.0625 0.14179,-2.94311 -0.11566,-5.88434 0.65625,-6.65625 0.64584,-0.64585 -0.81951,-0.89924 -0.4375,-1.28125 2.45037,-2.45037 2.9375,-9.46842 2.9375,-13.03125 0,-0.17053 -0.20995,-0.0945 -0.4375,-0.0312 0.12117,-0.80642 0.2384,-1.59371 0.375,-2.40625 -0.0406,0.008 -0.0852,0.0231 -0.125,0.0312"
       id="path4394"
       inkscape:connector-curvature="0"
       sodipodi:nodetypes="csccsscsssssccssscsssccc" />
    <path
       style="fill:#be6010;fill-opacity:1;stroke:#f89b4d;stroke-width:4;stroke-linecap:round;stroke-linejoin:round;stroke-miterlimit:4;stroke-opacity:1;stroke-dasharray:none"
       d="m 591.5507,632.40453 c -0.5381,0.002 -1.07655,0.0467 -1.59375,0.15625 -2.11131,0.44732 -4.01359,1.82468 -5.5,4.59375 -0.9375,1.74648 -4.10329,2.91465 -3.53125,4.8125 1.90854,6.33198 4.20223,10.88867 6.6875,14.40625 0.0637,0.0902 0.12349,0.19261 0.1875,0.28125 0.82467,0.13651 1.81355,0.27419 2.6875,0.3125 0.93529,0.041 1.71982,-0.0323 1.96875,-0.28125 0.97977,-0.97976 2.18596,-1.77261 3.53125,-2.4375 1.34529,-0.66489 2.82817,-1.20062 4.375,-1.71875 1.54683,-0.51813 3.16563,-0.99176 4.75,-1.53125 1.58437,-0.53949 3.13584,-1.14605 4.59375,-1.875 0.83398,-0.41699 1.79011,-1.06518 2.84375,-1.59375 0.15788,-0.0792 0.3373,-0.11406 0.5,-0.1875 -3.31103,-3.60034 -13.42856,-14.97345 -21.5,-14.9375 z"
       id="path5297"
       inkscape:connector-curvature="0" />
  </g>
</svg>
