<?xml version="1.0" encoding="UTF-8" standalone="no"?>
<!-- Created with Inkscape (http://www.inkscape.org/) -->

<svg
   xmlns:dc="http://purl.org/dc/elements/1.1/"
   xmlns:cc="http://creativecommons.org/ns#"
   xmlns:rdf="http://www.w3.org/1999/02/22-rdf-syntax-ns#"
   xmlns:svg="http://www.w3.org/2000/svg"
   xmlns="http://www.w3.org/2000/svg"
   xmlns:sodipodi="http://sodipodi.sourceforge.net/DTD/sodipodi-0.dtd"
   xmlns:inkscape="http://www.inkscape.org/namespaces/inkscape"
   width="1052.3622"
   height="744.09448"
   id="svg2"
   version="1.1"
   inkscape:version="0.48.3.1 r9886"
   sodipodi:docname="whale.svg"
   inkscape:export-filename="/home/substack/projects/talks/hujs/images/whale.png"
   inkscape:export-xdpi="99.947403"
   inkscape:export-ydpi="99.947403">
  <defs
     id="defs4" />
  <sodipodi:namedview
     id="base"
     pagecolor="#233338"
     bordercolor="#666666"
     borderopacity="1.0"
     inkscape:pageopacity="1"
     inkscape:pageshadow="2"
     inkscape:zoom="0.5"
     inkscape:cx="566.77586"
     inkscape:cy="399.13649"
     inkscape:document-units="px"
     inkscape:current-layer="layer1"
     showgrid="false"
     inkscape:window-width="1364"
     inkscape:window-height="766"
     inkscape:window-x="0"
     inkscape:window-y="0"
     inkscape:window-maximized="0" />
  <metadata
     id="metadata7">
    <rdf:RDF>
      <cc:Work
         rdf:about="">
        <dc:format>image/svg+xml</dc:format>
        <dc:type
           rdf:resource="http://purl.org/dc/dcmitype/StillImage" />
        <dc:title></dc:title>
      </cc:Work>
    </rdf:RDF>
  </metadata>
  <g
     inkscape:label="Layer 1"
     inkscape:groupmode="layer"
     id="layer1"
     transform="translate(0,-308.2677)">
    <path
       style="fill:#12c589;fill-opacity:1;stroke:#ffffff;stroke-width:1px;stroke-linecap:butt;stroke-linejoin:miter;stroke-opacity:0"
       d="m 510.08335,344.19965 c -6.62947,0.18387 -13.23519,1.68485 -18.96875,5.125 -6.79934,25.96602 -6.71875,53.46037 -6.71875,80.71875 0,24.06108 -3.375,48.53037 -3.375,72.3125 0,6.89429 -4.23406,78.1722 -3.34375,79.0625 3.1188,3.1188 27.4314,5.30945 33.625,8.40625 2.90655,1.45327 24.28855,7.6802 25.25,6.71875 2.90039,-2.90039 0,-24.03605 0,-28.59375 0,-57.77141 8.40625,-115.65273 8.40625,-171.53125 0,-7.3173 3.48845,-26.14356 5.4375,-37.09375 -1.76684,-2.26464 -3.42176,-4.64052 -5.4375,-6.65625 -1.58858,-1.58859 -5.41469,-0.76482 -6.46875,-2.34375 -7.53828,-3.50953 -18.00958,-6.41336 -28.40625,-6.125 z"
       id="path4362"
       inkscape:connector-curvature="0" />
    <path
       style="fill:#12c589;fill-opacity:1;stroke:#ffffff;stroke-width:1px;stroke-linecap:butt;stroke-linejoin:miter;stroke-opacity:0"
       d="m 352.51529,334.74964 c -30.11146,-0.33091 -66.25829,10.60039 -81.71875,22.96875 8.68049,28.94894 13.4375,62.91861 13.4375,94.1875 0,15.66309 3.33762,40.30025 10.09375,53.8125 1.79407,3.58815 -1.79408,9.8806 0,13.46875 8.09951,16.19903 0.24511,54.05761 11.78125,65.59375 4.05658,4.05658 38.5694,-1.5694 40.375,-3.375 1.89103,-1.89103 51.04636,-1.11692 58.875,-5.03125 17.33817,-8.66908 23.70176,-18.67051 33.625,-28.59375 2.3671,-2.3671 3.25065,-8.28191 5.0625,-10.09375 2.87579,-2.8758 0.80843,-24.41032 -1.6875,-26.90625 -4.36274,-4.36275 1.67928,-18.50822 -3.375,-23.5625 -6.88419,-6.88419 -13.00421,-16.34797 -20.1875,-23.53125 -8.36543,-8.36544 -36.48659,-16.2991 -37,-16.8125 -0.59826,-0.59826 9.46468,-4.43343 10.09375,-5.0625 7.27946,-7.27946 14.64942,-12.96192 20.1875,-18.5 13.52424,-13.52424 6.65746,-50.59132 0,-63.90625 -2.73257,-5.46513 -11.84939,-7.61219 -16.8125,-10.09375 -5.08635,-2.54317 -6.56561,-5.79843 -11.78125,-8.40625 -8.33667,-4.16833 -19.18601,-6.02676 -30.96875,-6.15625 z m -14.5,29.59375 c 17.05454,-0.0991 30.1563,13.18759 38.75,30.375 1.53392,3.06783 5.4952,7.47835 3.34375,11.78125 -2.61073,5.22147 -5.22705,10.2583 -8.40625,13.4375 -1.3879,1.3879 -37.68249,16.13001 -42.03125,11.78125 -2.53108,-2.53108 -1.30158,-10.97818 -3.375,-15.125 -6.2175,-12.435 0.22541,-32.23645 -10.09375,-45.40625 7.85375,-4.71225 15.13899,-6.80495 21.8125,-6.84375 z m 22.34375,115.09375 c 3.74416,0.0828 7.48915,0.8227 11.34375,2.75 9.65199,4.826 7.96922,9.62546 13.46875,15.125 40.32315,40.32315 -35.28393,55.55982 -40.375,50.46875 -1.92496,-1.92496 -3.4985,-61.05928 -10.09375,-65.59375 9.21066,0 17.4191,-2.93219 25.65625,-2.75 z"
       id="path4316"
       inkscape:connector-curvature="0" />
    <path
       style="fill:#c5c512;fill-opacity:1;stroke:#ffffff;stroke-width:1px;stroke-linecap:butt;stroke-linejoin:miter;stroke-opacity:0"
       d="m 406.30899,806.62815 c -5.62553,-0.25085 -39.93462,8.59375 -44.6875,8.59375 -6.10043,0 -20.57905,3.7353 -23.5625,6.71875 -6.69542,6.69542 -3.49409,22.11318 -8.40625,31.9375 -7.82916,15.65833 -7.35541,34.92956 -15.125,50.46875 -1.1213,2.24259 1.12129,6.16366 0,8.40625 -13.59019,27.18038 -16.17078,82.49486 -18.5,95.87495 -1.21412,3.0353 -5.0625,5.1372 -5.0625,8.4063 0,6.9626 25.78905,-1.6875 30.28125,-1.6875 3.69676,0 21.866,1.6965 21.875,1.6875 3.64219,-3.6422 -1.6875,-18.95249 -1.6875,-21.84379 l 0,-37.0312 c 0,-10.6757 2.33488,-21.84376 1.6875,-21.84376 l 8.40625,0 28.59375,0 c 1.97545,0 17.49416,1.33207 18.5,3.34375 0.12235,0.24471 5.03125,46.90431 5.03125,47.09371 0,14.23539 2.87191,27.44059 3.375,26.93749 2.54135,-2.5413 50.46875,2.1544 50.46875,1.6563 0,-1.8547 -8.02059,-31.55189 -10.09375,-33.62499 -0.81996,-0.82 -16.3505,-83.13851 -21.875,-94.18751 -8.1507,-16.3014 -4.35893,-58.20268 -16.8125,-70.65625 -1.59005,-1.59004 -0.28043,-8.68668 -1.6875,-10.09375 -0.10282,-0.10282 -0.34371,-0.13953 -0.71875,-0.15625 z m -30.4375,31.9375 c 0.43981,0.0209 0.76369,0.0762 0.875,0.1875 4.92678,4.92678 5.3126,44.0001 8.40625,47.09375 1.37211,1.37211 7.74047,22.57203 6.75,23.5625 -8.4337,8.4337 -41.9992,-3.49332 -42.0625,-1.6875 1.99435,-9.97173 3.375,-16.41622 3.375,-25.25 0,-4.02836 1.6875,-7.6554 1.6875,-13.4375 0,-13.02076 3.8843,-30.28125 16.8125,-30.28125 0.51942,0 2.83682,-0.25011 4.15625,-0.1875 z"
       id="path4251"
       inkscape:connector-curvature="0" />
    <path
       style="fill:#c5c512;fill-opacity:1;stroke:#ffffff;stroke-width:1px;stroke-linecap:butt;stroke-linejoin:miter;stroke-opacity:0"
       d="m 523.46248,746.99412 c -9.41219,-0.0569 -18.69899,1.69325 -27.3125,6 -7.59923,3.79961 -17.157,3.7195 -21.84375,8.40625 -0.84097,0.84097 -4.22153,-0.84098 -5.0625,0 -8.75849,8.75849 -16.56941,5.77193 -25.21875,20.1875 3.84707,5.62528 -1.48977,13.83296 1.6875,20.1875 9.26708,18.53417 4.18351,43.64826 11.78125,58.84375 4.61411,9.22822 -3.0532,24.23736 1.65625,33.65625 4.46356,8.92713 -1.24871,22.6901 3.375,31.9375 4.98432,9.96864 -2.44823,27.83304 5.0625,35.34374 4.1815,4.1815 -0.15681,21.5439 0.84375,30.3438 -0.36735,2.9697 -0.65219,5.9871 -0.78125,8.78119 -2.55764,3.8894 -3.91958,7.4554 -1.75,9.625 0.23852,0.2385 1.22254,0.4528 2.71875,0.6563 0.19285,0.4104 0.39955,0.7745 0.65625,1.0312 0.64233,0.6423 2.96389,0.3095 5.78125,-0.4375 13.98372,0.8747 39.22061,0.8419 41.3125,-1.25 1.51473,-1.5147 -0.0385,-5.8234 -1.6875,-10.40619 0.62058,-0.4084 1.17926,-0.8668 1.6875,-1.375 0.0253,-0.025 -2.18609,-3.9948 -4.34375,-8.75 -0.003,-1.2557 0.2649,-2.2962 0.96875,-3 l -2.375,-0.25 c -0.36782,-0.9019 -0.71359,-1.7964 -1.03125,-2.6875 -0.1757,-10.7852 -3.55746,-92.72384 -3.34375,-92.93754 3.52613,-3.52613 28.13701,-4.80288 35.34375,-8.40625 9.04894,-4.52447 20.24172,-10.14798 28.59375,-18.5 11.67504,-11.67505 38.17138,-51.50097 28.59375,-70.65625 -5.07087,-10.14172 -10.44785,-25.38018 -23.5625,-31.9375 -15.31408,-7.65705 -33.78127,-14.29753 -51.75,-14.40625 z m -8.53125,36.84375 c 3.29055,-0.0732 6.28344,0.15735 8.15625,1.09375 11.16664,5.58332 40.05943,22.44365 30.25,42.0625 -8.44482,16.88963 -17.8508,21.5504 -35.3125,30.28125 -4.56919,2.28459 -10.31508,0.22133 -13.4375,3.34375 -1.12129,1.12129 -5.6287,-1.1213 -6.75,0 -0.41495,0.41495 -6.16366,3.93009 -8.40625,1.6875 -0.90094,-0.90094 -10.96414,-61.40548 -10.09375,-68.96875 7.91501,-6.33201 7.12567,-5.43818 10.09375,-8.40625 1.01571,-1.01571 8.49872,0 10.09375,0 3.56723,0 9.922,-0.97182 15.40625,-1.09375 z"
       id="path4255"
       inkscape:connector-curvature="0" />
    <path
       style="fill:#c5c512;fill-opacity:1;stroke:#ffffff;stroke-width:1px;stroke-linecap:butt;stroke-linejoin:miter;stroke-opacity:0"
       d="m 635.30623,688.70732 c -4.14128,0.0217 -8.12192,0.43596 -11.3125,2.03125 -4.13409,2.06704 -10.93169,-0.40916 -15.125,1.6875 -10.33932,5.16966 -20.73184,10.07035 -31.96875,16.8125 1.64347,23.5556 11.78125,47.64185 11.78125,70.65625 0,14.8572 -6.65922,37.20985 -1.6875,52.125 2.36789,7.10367 -1.66414,20.20298 1.6875,26.90625 8.77418,17.54836 3.375,50.00696 3.375,70.65625 0,9.51165 -3.28078,35.02819 -2.375,43.09379 0.002,0.018 -0.002,0.044 0,0.062 -1.82525,12.132 -6.45068,35.48679 -1,40.93749 0.87558,0.8755 14.73017,-3.375 18.5,-3.375 4.00628,0 38.33304,-4.097 41.75,-3.4688 -1.08225,-1.7675 -4.75,-12.16229 -4.75,-21.74999 0,-3.6775 0.44556,-11.3809 0.4375,-18.5312 0.20241,-0.024 0.20124,-0.069 0,-0.125 -0.0129,-6.9337 -0.46436,-13.3082 -2.125,-14.9688 l -1.96875,-0.5 c -2.8187,-12.36597 3.52846,-31.69308 0.28125,-38.18749 -2.977,-5.95401 -3.85608,-95.36267 -1.65625,-97.5625 3.60729,-3.6073 32.8603,-4.66452 40.34375,-8.40625 28.18372,-14.09185 40.375,-38.63072 40.375,-70.65625 0,-6.95881 1.24129,-15.98617 -1.6875,-21.84375 -12.5916,-25.18321 -43.91582,-25.25 -70.625,-25.25 -3.79155,0 -8.10872,-0.36541 -12.25,-0.34375 z m 13.625,318.12498 c 0.1874,0.306 0.3125,0.387 0.3125,0.125 0,-0.061 -0.13311,-0.092 -0.3125,-0.125 z m -6.59375,-293.78123 c 22.86839,-0.28892 50.82198,32.99052 40.53125,43.28125 -14.56319,14.56319 -18.2116,21.875 -47.09375,21.875 -0.91672,0 -4.5763,3.82996 -6.71875,1.6875 -3.57887,-3.57886 -5.51255,-47.53821 -5.0625,-55.5 4.80155,-8.00259 11.34322,-11.25531 18.34375,-11.34375 z"
       id="path4259"
       inkscape:connector-curvature="0" />
    <path
       style="fill:#c5c512;fill-opacity:1;stroke:#ffffff;stroke-width:1.05570173000000000px;stroke-linecap:butt;stroke-linejoin:miter;stroke-opacity:0"
       d="m 815.74335,680.65233 c -41.62939,-18.1576 -123.94308,19.90637 -99.23476,74.98152 6.14295,13.69271 31.26367,28.44727 37.00279,41.23984 8.08982,18.0323 34.13372,68.25496 23.54723,91.85237 -10.33656,23.04031 -23.26975,29.26468 -45.41251,37.49076 -3.3441,1.24234 -8.64788,-1.74182 -11.77362,0 -3.30556,1.84204 -14.40529,4.1571 -18.5014,1.87454 -2.98,-1.66062 -25.53108,-5.28714 -26.91112,-3.74908 -1.53327,1.70884 0,14.18589 0,16.87085 0,21.08168 -6.51009,62.10237 1.68195,71.23247 0.15381,0.1714 34.39288,-4.1693 37.00279,-5.6237 16.08602,-8.96389 37.73574,-6.032 53.82224,-14.99629 6.52199,-3.6344 12.01769,-9.5087 18.5014,-13.1217 4.63726,-2.5842 13.05776,-3.3057 16.81945,-7.4982 10.67407,-11.8963 27.44127,-27.42524 35.32084,-44.98889 4.10686,-9.15423 5.80042,-25.20998 11.77362,-31.86715 2.33889,-2.60671 0.16598,-11.61721 1.68194,-14.9963 3.02252,-6.73723 1.19472,-16.08236 -1.68194,-22.49446 -2.47516,-5.51716 -0.70412,-10.94219 -3.36389,-16.87085 -8.89806,-19.83386 -21.20938,-29.26159 -35.32085,-44.98891 -3.47615,-3.87419 -16.08598,-11.00759 -13.45556,-16.87084 9.85505,-21.96702 32.74156,-10.24714 33.6389,-11.24723 1.74185,-1.9413 -1.15351,-6.32027 -1.68194,-7.49815 -1.19434,-2.66219 1.68194,-23.36966 1.68194,-29.99261 0,-14.66666 4.90639,-48.73799 -15.1375,-48.73799 z"
       id="path4263"
       inkscape:connector-curvature="0" />
    <path
       style="fill:#12c589;fill-opacity:1;stroke:#ffffff;stroke-width:1px;stroke-linecap:butt;stroke-linejoin:miter;stroke-opacity:0"
       d="m 723.23636,416.58696 c -1.54243,-19.09801 -7.95717,-40.98138 -20.18334,-47.09446 -8.52552,-4.26276 -17.12565,-7.72186 -25.22917,-11.77362 -13.49514,-6.74757 -40.73708,14.48173 -48.77641,18.5014 -8.09374,4.04687 -15.9172,11.65106 -20.18334,20.18334 -3.27445,6.54891 -11.01445,9.49613 -13.45556,16.81945 -7.06804,21.20411 -21.86528,40.49894 -21.86528,65.59586 0,12.73255 -4.85284,27.6831 -1.68195,40.36668 2.2547,9.01878 5.04584,19.15979 5.04584,28.59306 0,13.58646 4.21816,26.93772 10.09167,38.68474 2.42265,4.84531 3.43512,10.30538 5.04583,15.1375 1.68012,5.04035 12.64763,14.73354 16.81945,16.81945 3.23208,1.61604 5.17765,5.11175 8.40973,6.72779 6.98386,3.49193 16.11558,-0.79528 23.54723,1.68194 27.35661,9.11887 54.1281,-15.44337 68.95974,-30.27501 6.35427,-6.35427 11.77362,-44.82424 11.77362,-58.86808 0,-6.31396 7.50044,-19.41067 3.36389,-23.54722 -7.64622,-7.64622 -79.6272,-9.76251 -84.09725,0 -5.15476,11.25787 -13.81738,34.95902 -11.77362,37.00278 2.46885,2.46885 9.47378,1.373 13.45556,3.36389 2.41119,1.2056 11.91583,8.26752 15.13751,5.04584 5.97203,-5.97203 9.40642,-23.23578 18.50139,-5.04584 8.77128,17.54256 -25.83327,58.26398 -45.41251,38.68474 -25.26824,-25.26824 -30.66022,-76.59907 -13.45556,-111.00837 6.85421,-13.70842 6.54372,-25.04512 18.50139,-37.0028 10.13824,-10.13823 41.44869,-46.78299 45.41252,-13.45556 1.77353,14.91164 -3.08357,33.91923 1.68194,38.68474 1.87563,1.87563 15.55417,3.36389 18.5014,3.36389 4.10861,0 15.91409,5.9512 18.50139,3.36389 11.2187,-11.21869 9.25599,-45.81978 3.36389,-60.55002 z"
       id="path4406"
       inkscape:connector-curvature="0"
       sodipodi:nodetypes="cssssssssssssssssssssssssssssc" />
    <g
       id="g4303"
       transform="matrix(0.99147441,0.13030157,-0.13030157,0.99147441,83.632258,-26.372099)">
      <path
         transform="translate(0,308.2677)"
         id="path3011"
         d="m 751.65625,168.46875 c -0.11227,-0.0561 -5.11057,15.26921 -5.96875,17.84375 -7.99708,23.99123 13.92318,47.1224 2.40625,70.15625 -2.30329,4.60658 -7.33962,7.33962 -9.53125,9.53125 -2.79625,2.79625 -46.26947,4.80277 -51.125,2.375 -7.2722,-3.6361 -22.78164,-7.15625 -30.9375,-7.15625 -9.17897,0 -31.80936,-2.21718 -39.25,-5.9375 -4.03646,-2.01823 -29.32443,-2.23314 -36.875,-4.75 -6.08481,-2.02827 -14.15097,0.8351 -20.21875,-1.1875 -14.9388,-4.9796 -32.17617,-2.09092 -47.5625,-5.9375 -3.73119,-0.9328 -8.17507,0.9328 -11.90625,0 -8.07285,-2.01821 -21.70932,-3.6129 -35.21875,-4.03125 -2.90247,-8.25775 -0.88582,-18.73918 4.90625,-24.53125 0.89774,-0.89773 0.8429,-3.81165 1.78125,-4.75 1.91393,-1.91393 3.79019,-5.75447 6.53125,-7.125 3.25626,-1.62813 5.18273,-9.12977 4.78125,-9.53125 -1.97634,-1.97633 -17.91364,3.59745 -19.03125,4.15625 -6.44598,3.223 -16.67363,10.73613 -21.40625,15.46875 -2.97988,2.97988 -5.42194,7.20319 -8.9375,10.71875 -0.87711,0.87711 -0.4586,3.42735 -1.1875,4.15625 -2.27952,2.27952 -3.65798,5.43923 -5.9375,7.71875 -2.46481,2.46481 -6.11484,4.12418 -9.84375,6.0625 -1.12821,0.0248 -2.2274,0.15913 -3.25,0.5 -11.15002,3.71667 -49.8882,7.04445 -55.90625,13.0625 -1.39393,1.39393 -34.16325,2.816 -38.03125,4.75 -2.45836,1.22917 -17.3985,4.33599 -17.84375,4.78125 -5.5429,5.54289 -17.08298,4.36961 -24.96875,8.3125 -7.28057,3.64028 -14.24575,7.69994 -21.4375,13.09375 -17.64955,-2.03724 -35.94415,30.51995 -41.625,47.5625 -4.94127,14.8238 -12.08375,58.87376 -7.125,73.75 l 11.90625,35.65625 c 3.61761,10.85285 8.84257,32.37441 20.21875,38.0625 7.65078,3.82539 13.65254,9.32168 21.40625,11.90625 2.49756,0.83252 5.81494,-0.83252 8.3125,0 22.51509,7.50503 51.07692,-3.95273 71.375,-10.71875 2.69791,-0.89931 5.70232,-1.18308 8.65625,-1.5625 -9.09501,5.62837 -18.19278,9.90625 -24.125,9.90625 -1.12232,0 -11.90625,6.66199 -11.90625,7.125 0,2.09749 27.75009,2.375 33.3125,2.375 1.89055,0 17.33619,4.07007 20.21875,1.1875 1.65378,-1.65377 5.00748,-1.44498 7.125,-3.5625 0.85644,-0.85644 1.80841,-1.70401 2.78125,-2.5625 13.18165,-6.39494 30.37144,-5.27888 43.59375,-14.09375 10.45271,-6.96848 25.313,-8.87537 35.6875,-16.65625 17.21847,-12.91385 32.72489,-25.09835 49.96875,-38.03125 11.80245,-8.85183 28.36635,-12.92885 38.0625,-22.625 2.52262,-2.52262 24.80257,-21.07389 26.15625,-23.78125 5.46524,-10.9305 16.61836,-17.80586 24.96875,-26.15625 3.82298,-3.82298 6.36875,-8.74374 9.53125,-11.90625 4.52487,-4.52486 18.14937,-10.17016 24.96875,-11.875 13.99853,-3.49963 60.76572,-19.78643 73.71875,-15.46875 3.46429,1.15476 28.77638,2.58888 29.75,3.5625 4.50295,4.50296 48.4579,10.30842 58.28125,8.34375 12.96254,-2.5925 26.05648,-5.70505 39.25,-8.34375 5.1596,-1.03192 10.0379,-4.59774 14.25,-7.125 29.78345,-17.87007 51.04715,-28.977 71.375,-59.46875 5.6667,-8.50006 7.6332,-18.86 11.875,-27.34375 0.6343,-1.26864 -8.33,1.19624 -10.6875,2.375 -7.56605,3.78303 -22.25858,7.125 -30.9375,7.125 -23.1063,0 -45.14648,-4.40068 -66.59375,-16.65625 -7.9088,-4.51932 -15.60957,-8.97666 -23.78125,-13.0625 -6.37863,-3.18931 -13.012,-7.1072 -19.03125,-10.71875 -10.08986,-6.05392 -14.43029,-19.69952 -24.96875,-24.96875 z"
         style="fill:#758492;fill-opacity:1;stroke:#000000;stroke-width:1px;stroke-linecap:butt;stroke-linejoin:miter;stroke-opacity:1"
         inkscape:connector-curvature="0" />
      <path
         transform="translate(0,308.2677)"
         d="m 478.53125,194.78125 c -1.438,0.27077 -2.93531,0.57848 -4.5625,1.03125 -2.15461,0.59952 -4.27634,1.27951 -5.9375,1.84375 -0.83058,0.28212 -1.56201,0.52179 -2.09375,0.71875 -0.53174,0.19696 -0.9614,0.38695 -0.9375,0.375 -1.5503,0.77515 -3.36621,1.84634 -5.28125,3.0625 -1.91793,1.21799 -3.92211,2.54998 -5.875,3.96875 -3.91329,2.84299 -7.62599,5.90724 -9.90625,8.1875 -1.4021,1.4021 -2.73366,3.16329 -4.15625,5.03125 -1.4226,1.86797 -2.94359,3.84984 -4.78125,5.6875 0.0661,-0.0661 -0.18794,0.5612 -0.28125,1.375 -0.0466,0.40692 -0.0904,0.85112 -0.1875,1.3125 -0.0971,0.46138 -0.21984,0.96984 -0.71875,1.46875 -1.01657,1.01657 -1.89545,2.32389 -2.8125,3.6875 -0.91705,1.36362 -1.87041,2.77666 -3.125,4.03125 -1.35531,1.35531 -2.94994,2.44318 -4.6875,3.4375 -1.73755,0.99432 -3.62203,1.91506 -5.46875,2.875 a 1.2924695,1.2924695 0 0 1 -0.5625,0.125 c -1.04414,0.023 -2.01934,0.15228 -2.875,0.4375 -2.94902,0.98301 -7.47191,1.88109 -12.78125,2.8125 -5.31114,0.93173 -11.37968,1.88423 -17.28125,2.90625 -5.90022,1.02178 -11.63346,2.11366 -16.21875,3.3125 -2.28599,0.59768 -4.26043,1.23077 -5.84375,1.875 -1.58324,0.6442 -2.76374,1.32624 -3.28125,1.84375 -0.51728,0.51728 -0.79733,0.48623 -1.1875,0.59375 -0.39017,0.10752 -0.83021,0.21975 -1.375,0.3125 -1.08958,0.1855 -2.54129,0.35005 -4.21875,0.53125 -3.35125,0.36201 -7.66845,0.73923 -12.09375,1.125 -4.42842,0.38604 -8.92904,0.76461 -12.53125,1.1875 -1.80277,0.21164 -3.4006,0.43425 -4.625,0.65625 -1.2244,0.222 -2.15372,0.49873 -2.34375,0.59375 -0.88875,0.44437 -2.22196,0.80352 -4,1.28125 -1.77804,0.47773 -3.88486,1.00612 -5.9375,1.5 -2.05264,0.49388 -4.04535,0.97464 -5.53125,1.34375 -0.74295,0.18455 -1.35465,0.34713 -1.78125,0.46875 -0.2133,0.0608 -0.37969,0.0935 -0.46875,0.125 -0.0445,0.0157 -0.0783,0.0385 -0.0625,0.0312 -0.71716,0.67254 -1.4771,1.29045 -2.3125,1.78125 -0.92814,0.54529 -1.93657,1.0145 -3,1.40625 -2.10378,0.77499 -4.35721,1.26918 -6.65625,1.71875 -2.30584,0.4509 -4.68364,0.82545 -6.90625,1.34375 -2.22141,0.51802 -4.31728,1.17426 -6.15625,2.09375 -3.61811,1.80905 -7.14228,3.69029 -10.65625,5.8125 -3.51397,2.12221 -7.00076,4.48495 -10.5625,7.15625 a 1.2924695,1.2924695 0 0 1 -0.9375,0.25 c -1.00807,-0.11636 -1.99747,-0.1186 -3,0 -1.0102,0.11951 -2.03706,0.34798 -3.0625,0.6875 -1.00757,0.3336 -2.0458,0.82327 -3.09375,1.375 -1.037,0.54596 -2.06697,1.17985 -3.09375,1.90625 -2.06505,1.46093 -4.10787,3.25421 -6.09375,5.3125 -1.98871,2.06122 -3.93598,4.37641 -5.78125,6.84375 -1.84416,2.46586 -3.60778,5.10554 -5.25,7.78125 -1.64206,2.67545 -3.1509,5.38221 -4.53125,8.0625 -1.3812,2.68194 -2.6217,5.29336 -3.6875,7.78125 -1.06448,2.48481 -1.95816,4.84325 -2.65625,6.9375 -1.20482,3.61444 -2.56378,9.11969 -3.84375,15.53125 -1.28019,6.41264 -2.48753,13.73509 -3.375,21.0625 -0.44327,3.65988 -0.8007,7.32646 -1.0625,10.875 -0.26193,3.55025 -0.44432,6.97079 -0.46875,10.15625 -0.0245,3.18574 0.11101,6.14819 0.375,8.75 0.26355,2.59746 0.67666,4.84247 1.25,6.5625 l 11.90625,35.65625 c 0.61827,1.85483 1.32774,4.24659 2.0625,6.59375 1.21261,0.1388 2.39082,0.29427 3.375,0.21875 1.21223,-0.093 2.18741,-0.40616 3.125,-1.34375 0.0753,-0.0753 0.57942,-1.24896 0.90625,-2.46875 0.16342,-0.60989 0.32386,-1.22004 0.53125,-1.8125 0.20739,-0.59246 0.4137,-1.1637 0.9375,-1.6875 -0.21678,0.21678 0.15411,-0.46855 0.15625,-1.65625 0.002,-1.1877 -0.1502,-2.83603 -0.40625,-4.78125 -0.5121,-3.89044 -1.44702,-8.97422 -2.34375,-14.21875 -0.89673,-5.24453 -1.74541,-10.65011 -2.125,-15.34375 -0.37959,-4.69364 -0.40509,-8.59606 0.90625,-11.21875 l 4.75,-9.5 c 0.32362,-0.64724 0.55992,-2.00597 0.84375,-3.40625 0.28383,-1.40028 0.61862,-2.93112 1.78125,-4.09375 4.02629,-4.02629 8.53999,-4.63729 12.78125,-3.5625 4.24126,1.07479 8.32789,3.60145 12.5,5.6875 0.5708,0.2854 1.32737,0.2487 2.21875,-0.0312 0.89138,-0.27995 1.8373,-0.77802 2.59375,-1.15625 7.11103,-3.55552 9.38611,-5.04058 11.0625,-6.71875 1.67639,-1.67817 2.97574,-3.85075 7.625,-8.5 0.52044,-0.52044 1.22968,-2.94423 1.65625,-5.53125 0.42657,-2.58702 0.69618,-5.26736 1.65625,-7.1875 0.42746,-0.85491 0.43069,-1.70356 0,-2.84375 -0.43069,-1.14019 -1.34239,-2.51679 -2.59375,-3.96875 -2.50272,-2.90393 -6.34062,-6.18486 -10.125,-9.6875 -3.78438,-3.50264 -7.53569,-7.20608 -9.90625,-11.1875 -2.37056,-3.98142 -3.31739,-8.42772 -1.15625,-12.75 2.18799,-4.37597 4.92465,-6.51379 7.65625,-8.09375 2.7316,-1.57996 5.39895,-2.6802 8.0625,-5.34375 8.53632,-8.53632 18.44963,-9.12486 28.28125,-8.8125 9.83162,0.31236 19.70112,1.39944 29.125,-3.3125 2.22174,-1.11087 6.09627,-3.39997 8.65625,-5.875 1.27999,-1.23751 2.19811,-2.52407 2.5,-3.5625 0.30189,-1.03843 0.21787,-1.78213 -0.78125,-2.78125 -1.18605,-1.18605 -1.32602,-2.95485 -0.75,-4.25 0.57602,-1.29515 1.63283,-2.33589 2.75,-3.3125 1.11717,-0.97661 2.31755,-1.85475 3.3125,-2.53125 0.49747,-0.33825 0.9502,-0.61773 1.28125,-0.84375 0.33105,-0.22602 0.6043,-0.44804 0.53125,-0.375 1.61922,-1.61922 3.87441,-2.09822 6.15625,-2.03125 2.28184,0.067 4.68828,0.65095 7.0625,1.28125 2.37422,0.6303 4.70001,1.30852 6.65625,1.6875 1.95624,0.37898 3.52052,0.36474 4.25,0 2.65794,-1.32897 7.47241,-2.46165 12.5,-3.375 5.02759,-0.91335 10.10702,-1.53125 13.0625,-1.53125 0.44581,0 1.5902,-0.29128 3,-0.875 1.4098,-0.58372 3.1385,-1.44118 5.0625,-2.5 3.848,-2.11765 8.47012,-5.02261 13.0625,-8.09375 9.18476,-6.14228 18.3727,-13.09145 20.78125,-15.5 1.70621,-1.70621 2.73309,-4.38071 3.8125,-7.25 1.07941,-2.86929 2.21405,-5.93279 4.5,-8.21875 5.00566,-5.00566 9.80984,-7.87932 14.3125,-10.90625 3.77782,-2.53965 7.33163,-5.28025 10.8125,-9.4375 z"
         id="path4119"
         style="fill:#7b8b9a;fill-opacity:1;stroke:none"
         inkscape:original="M 481.59375 193.0625 C 481.05562 193.0675 480.50182 193.0899 479.8125 193.1875 C 478.02299 193.44085 475.81053 193.95437 473.625 194.5625 C 469.25393 195.77875 464.99631 197.31435 464.4375 197.59375 C 462.82601 198.3995 460.97051 199.48721 459.03125 200.71875 C 457.09199 201.95029 455.07087 203.31363 453.09375 204.75 C 449.13951 207.62274 445.39756 210.69619 443.03125 213.0625 C 441.54131 214.55244 440.17244 216.35099 438.75 218.21875 C 437.32756 220.08651 435.85153 222.02347 434.09375 223.78125 C 433.65519 224.2198 433.53362 225.06794 433.4375 225.90625 C 433.3414 226.74456 433.2707 227.57305 432.90625 227.9375 C 431.76649 229.07726 430.85199 230.45269 429.9375 231.8125 C 429.02301 233.17231 428.10851 234.51649 426.96875 235.65625 C 425.73635 236.88865 424.21797 237.90977 422.53125 238.875 C 420.84453 239.84023 418.98945 240.74959 417.125 241.71875 C 415.99679 241.74355 414.8976 241.87788 413.875 242.21875 C 411.08749 243.14792 406.57496 244.04008 401.28125 244.96875 C 395.98754 245.89742 389.91528 246.85061 384 247.875 C 378.08472 248.89939 372.33971 250.00241 367.6875 251.21875 C 365.36139 251.82692 363.31322 252.48205 361.65625 253.15625 C 359.99928 253.83045 358.72101 254.52899 357.96875 255.28125 C 357.62027 255.62973 355.29733 255.98419 351.96875 256.34375 C 348.64017 256.70331 344.30004 257.083 339.875 257.46875 C 335.44996 257.8545 330.95034 258.22918 327.3125 258.65625 C 323.67466 259.08332 320.9045 259.54775 319.9375 260.03125 C 318.70832 260.64584 314.34799 261.73274 310.25 262.71875 C 306.15201 263.70476 302.31637 264.58987 302.09375 264.8125 C 301.40089 265.50536 300.61142 266.08766 299.75 266.59375 C 298.88858 267.09984 297.96103 267.54071 296.96875 267.90625 C 294.98418 268.63733 292.7818 269.1163 290.5 269.5625 C 288.2182 270.0087 285.83993 270.40642 283.5625 270.9375 C 281.28507 271.46858 279.09644 272.13928 277.125 273.125 C 273.48471 274.94514 269.92534 276.85582 266.375 279 C 262.82466 281.14418 259.28338 283.52185 255.6875 286.21875 C 254.5844 286.09142 253.4799 286.08804 252.375 286.21875 C 251.2701 286.34946 250.16273 286.60447 249.0625 286.96875 C 247.96227 287.33303 246.87033 287.83287 245.78125 288.40625 C 244.69217 288.97963 243.60271 289.64824 242.53125 290.40625 C 240.38833 291.92227 238.2836 293.76725 236.25 295.875 C 234.2164 297.98275 232.24749 300.34001 230.375 302.84375 C 228.50251 305.34749 226.72208 308.01476 225.0625 310.71875 C 223.40292 313.42274 221.86363 316.16649 220.46875 318.875 C 219.07387 321.58351 217.82839 324.23272 216.75 326.75 C 215.67161 329.26728 214.77261 331.65093 214.0625 333.78125 C 212.82718 337.4872 211.44324 343.02203 210.15625 349.46875 C 208.86926 355.91547 207.67297 363.2625 206.78125 370.625 C 206.33539 374.30625 205.98199 377.99449 205.71875 381.5625 C 205.45551 385.13051 205.27475 388.58586 205.25 391.8125 C 205.2252 395.03914 205.35539 398.03035 205.625 400.6875 C 205.89461 403.34465 206.31766 405.67172 206.9375 407.53125 L 218.84375 443.1875 C 219.53258 445.25401 220.35074 447.93659 221.1875 450.59375 C 224.19623 450.92803 227.19206 451.49544 229.53125 449.15625 C 230.65558 448.03193 230.9113 444.18244 231.90625 443.1875 C 234.91869 440.17505 224.16154 403.98942 228.34375 395.625 L 233.09375 386.125 C 234.06027 384.19197 233.87056 380.56695 235.46875 378.96875 C 242.97413 371.46337 250.81135 377.1088 259.28125 381.34375 C 261.27009 382.33818 263.79578 380.86774 265.21875 380.15625 C 279.49966 373.01579 275.07021 373.86728 284.25 364.6875 C 286.41545 362.52204 286.30716 354.63568 287.8125 351.625 C 292.63758 341.97485 256.25922 326.73156 264.03125 311.1875 C 268.18132 302.88738 273.82281 303.77094 279.5 298.09375 C 295.91629 281.67746 316.93382 296.0331 336.5625 286.21875 C 341.17977 283.91012 352.36145 277.0177 347.28125 271.9375 C 343.85145 268.5077 353.49369 263.35005 354.40625 262.4375 C 359.54908 257.29466 373.2969 266.0703 378.1875 263.625 C 382.84804 261.29473 397.65847 258.84375 403.1875 258.84375 C 409.67667 258.84375 440.66974 236.83026 446 231.5 C 449.96254 227.53746 450.28134 220.06242 454.3125 216.03125 C 464.08715 206.25661 473.13626 204.80216 481.59375 193.0625 z "
         inkscape:radius="-1.2923403"
         sodipodi:type="inkscape:offset" />
      <path
         transform="translate(0,308.2677)"
         inkscape:connector-curvature="0"
         id="path3057"
         d="m 349.36121,367.37903 c -1.21436,-0.52186 -2.81386,1.02989 -4.75726,2.97329 -0.41845,0.41845 -0.57169,1.46368 -0.89199,1.78397 -0.14866,0.14867 0.14867,0.74333 0,0.89199 -2.28273,2.28273 4.00718,9.88956 8.32521,7.73055 0.57948,-0.28974 0.80015,0.0918 1.18931,-0.29733 0.54023,-0.54024 2.20708,-0.42311 2.67596,-0.89199 0.8217,-0.8217 1.76868,-2.06601 2.37863,-2.67596 1.4181,-1.4181 -1.13841,-12.62709 -8.91986,-9.51452 z"
         style="fill:#ffffff;stroke:#000000;stroke-width:1px;stroke-linecap:butt;stroke-linejoin:miter;stroke-opacity:1" />
      <path
         transform="translate(0,308.2677)"
         inkscape:connector-curvature="0"
         id="path3083"
         d="m 346.68525,372.73095 c 0.39802,0.80553 -1.31157,0.76973 0,2.0813 0.14866,0.14867 -0.14866,0.74332 0,0.89199 0.61073,0.61073 1.01613,1.01613 1.78397,1.78397 2.44633,2.44633 7.43322,-0.28197 7.43322,-3.27062 0,-0.18144 0.11585,-1.07346 0,-1.18931 -3.4809,-3.4809 -6.18141,-5.35696 -9.21719,-0.29733 z"
         style="fill:#483737;stroke:#000000;stroke-width:1px;stroke-linecap:butt;stroke-linejoin:miter;stroke-opacity:1" />
      <path
         transform="translate(0,308.2677)"
         inkscape:connector-curvature="0"
         id="path4000"
         d="m 362.14634,252.90749 c -0.79287,0.19822 -2.18041,1.38753 -2.37863,0.59466 -0.19822,-0.79288 2.95653,-1.17256 2.37863,-0.59466 -1.42999,1.42999 -3.31369,0.93506 -4.1626,1.78397 -4.11285,4.11286 9.70164,1.59685 10.70383,0.59466 4.40241,-4.40241 -4.75338,-3.09377 -6.54123,-2.37863 z"
         style="fill:#55606b;fill-opacity:1;stroke:#000000;stroke-width:1px;stroke-linecap:butt;stroke-linejoin:miter;stroke-opacity:1" />
      <path
         transform="translate(0,308.2677)"
         d="m 748.84375,181.03125 c -0.77173,2.3174 -1.63457,4.87245 -1.90625,5.6875 -0.47855,1.43565 -0.85296,2.90133 -1.125,4.34375 -0.27166,1.44042 -0.44045,2.87991 -0.53125,4.3125 -0.18207,2.87262 -0.0235,5.73723 0.34375,8.625 0.36723,2.88811 0.94014,5.75257 1.625,8.65625 0.68454,2.90236 1.48744,5.82573 2.25,8.75 0.76275,2.92501 1.47307,5.87101 2.0625,8.8125 0.59064,2.94751 1.02796,5.90391 1.1875,8.875 0.0792,1.47529 0.10995,2.96162 0.0312,4.46875 -0.0782,1.49869 -0.26253,2.97402 -0.53125,4.46875 -0.26942,1.49861 -0.63026,3.02783 -1.125,4.53125 -0.49399,1.50115 -1.09586,3.00421 -1.84375,4.5 -0.63923,1.27847 -1.4558,2.40284 -2.34375,3.40625 -0.8943,1.0106 -1.87799,1.86949 -2.8125,2.65625 -1.8794,1.58225 -3.68655,2.87406 -4.625,3.8125 -0.46965,0.46965 -0.94198,0.61729 -1.5,0.8125 -0.55802,0.19521 -1.20327,0.36532 -1.96875,0.53125 -1.52489,0.33054 -3.50849,0.66201 -5.8125,0.9375 -4.59453,0.54936 -10.43849,0.97504 -16.375,1.25 -5.94063,0.27515 -11.93859,0.36053 -16.78125,0.25 -2.41462,-0.0551 -4.55213,-0.1332 -6.28125,-0.3125 -1.72057,-0.17842 -2.95996,-0.35498 -3.9375,-0.84375 -1.72893,-0.86446 -4.00306,-1.76684 -6.5625,-2.59375 -2.5594,-0.8269 -5.3788,-1.59001 -8.25,-2.25 -2.87325,-0.66046 -5.80162,-1.21368 -8.46875,-1.59375 -2.66787,-0.38018 -5.1126,-0.59375 -7.0625,-0.59375 -2.34838,0 -5.50997,-0.13846 -9.0625,-0.40625 -3.5497,-0.26758 -7.50877,-0.64263 -11.40625,-1.15625 -3.89643,-0.51348 -7.73075,-1.16382 -11.09375,-1.90625 -3.36598,-0.74309 -6.23215,-1.5692 -8.28125,-2.59375 -0.53108,-0.26554 -2.95163,-0.78612 -5.96875,-1.125 -3.0168,-0.33885 -6.76708,-0.62687 -10.65625,-0.9375 -3.88436,-0.31024 -7.90543,-0.6214 -11.4375,-1.03125 -3.53235,-0.40988 -6.53857,-0.89828 -8.625,-1.59375 -1.34659,-0.44887 -2.86924,-0.64126 -4.5,-0.6875 4.565,1.57558 9.26509,2.875 13.84375,2.875 3.18881,0 9.69808,1.70841 12.46875,3.09375 0.86737,0.43369 2.49889,0.38177 4.34375,0.1875 1.84486,-0.19427 3.90204,-0.53336 5.78125,0.40625 -0.0885,-0.0442 0.33134,0.10426 0.875,0.125 0.54366,0.0207 1.2398,-0.0183 1.9375,-0.0312 0.6977,-0.0129 1.41154,-0.0212 2.0625,0.0312 0.65096,0.0525 1.27598,-0.005 2,0.71875 -0.22811,-0.22811 -0.0137,-0.009 0.3125,0.125 0.32625,0.13447 0.81436,0.31663 1.375,0.5 1.12128,0.36674 2.57851,0.80006 4.125,1.25 3.09297,0.89988 6.3719,1.7797 8.125,2.65625 0.69512,0.34756 1.61931,0.31747 2.84375,0.1875 1.22445,-0.12996 2.74915,-0.3598 4.28125,0.40625 0.31587,0.15794 0.94501,0.2123 1.78125,0.1875 0.83624,-0.0248 1.87865,-0.13877 2.96875,0.40625 2.7754,1.3877 7.00412,1.90398 11.1875,2.5625 4.18338,0.65852 8.4149,1.44614 11.1875,4.21875 -0.22142,-0.22142 -0.0981,-0.0459 0.21875,0.0312 0.31689,0.0771 0.8022,0.15645 1.375,0.21875 1.14561,0.12461 2.6586,0.2056 4.21875,0.28125 1.56015,0.0756 3.1918,0.14758 4.59375,0.28125 1.40195,0.13367 2.5175,0.2275 3.5,0.71875 1.64002,0.82001 3.83154,1.00226 6.15625,1.125 2.32471,0.12274 4.77943,0.17096 6.9375,1.25 0.47285,0.23642 1.29402,0.39166 2.25,0.5 0.95598,0.10834 2.04398,0.16262 3.09375,0.6875 6.65004,3.32502 14.22267,3.56446 21.40625,7.15625 1.16646,0.58323 3.2189,0.46067 5.5,0.1875 2.2811,-0.27317 4.79012,-0.69869 7,0.40625 3.41105,1.70553 6.38863,2.30369 10.09375,4.15625 0.18774,0.0939 1.25938,0.3982 2.6875,0.5625 1.42812,0.1643 3.2812,0.26844 5.40625,0.34375 4.2501,0.15062 9.58536,0.12697 14.90625,-0.0312 5.32089,-0.15822 10.62908,-0.43581 14.84375,-0.8125 2.10733,-0.18834 3.93784,-0.40385 5.34375,-0.625 1.40591,-0.22115 2.45684,-0.54092 2.625,-0.625 3.6807,-1.84035 9.37812,-1.54808 15.15625,-1.46875 5.77813,0.0793 11.59619,-0.0168 14.5625,-1.5 2.6443,-1.32215 6.19678,-0.95559 9.65625,-0.75 3.45947,0.20559 6.83992,0.23629 8.1875,-0.4375 3.38307,-1.69153 7.17707,-1.03819 9.6875,-1.875 13.57228,-4.52409 27.39851,-9.14851 35.75,-17.5 0.41054,-0.41054 1.2952,-1.76121 2.09375,-3.46875 0.79855,-1.70754 1.60304,-3.79194 2.15625,-5.84375 0.55321,-2.05181 0.86667,-4.08364 0.78125,-5.59375 -0.0854,-1.51011 -0.50534,-2.28392 -1.125,-2.59375 -5.0384,-2.5192 -11.54124,-1.92687 -17.25,-4.78125 -0.92395,-0.46197 -2.39354,-0.5101 -4.09375,-0.46875 -1.70021,0.0413 -3.63188,0.16844 -5.40625,-0.71875 -1.05818,-0.52909 -2.5638,-0.41239 -4.34375,-0.1875 -1.77995,0.22489 -3.83361,0.56757 -5.78125,-0.40625 -0.41002,-0.20501 -1.54421,-0.52885 -2.90625,-0.75 -1.36204,-0.22115 -2.97063,-0.40217 -4.5625,-0.59375 -1.59187,-0.19158 -3.1579,-0.37366 -4.46875,-0.625 -0.65543,-0.12567 -1.2544,-0.26021 -1.78125,-0.4375 -0.52685,-0.17729 -1.00919,-0.35294 -1.46875,-0.8125 0.1441,0.1441 0.0511,0.0215 -0.0937,-0.0625 -0.14484,-0.084 -0.35096,-0.17515 -0.625,-0.3125 -0.54807,-0.27471 -1.31715,-0.65613 -2.21875,-1.0625 -1.8032,-0.81274 -4.16788,-1.81171 -6.59375,-2.84375 -4.85173,-2.06408 -9.86841,-4.13733 -11.53125,-4.96875 -4.02599,-2.01299 -9.20094,-3.1697 -12.84375,-6.8125 -3.99626,-3.99626 -10.23101,-6.93385 -16.59375,-9.875 -6.36274,-2.94115 -12.8533,-5.88455 -17.3125,-10.34375 -0.48164,-0.48164 -1.95833,-1.12593 -3.59375,-1.71875 -1.63542,-0.59282 -3.43867,-1.15743 -4.71875,-2.4375 -1.74326,-1.74326 -2.9261,-4.22614 -3.96875,-6.46875 -1.04265,-2.24261 -2.06202,-4.31203 -2.5625,-4.8125 -0.94387,-0.94388 -1.66774,-2.12982 -2.46875,-3.25 z"
         id="path4139"
         style="fill:#7b8b9a;fill-opacity:1;stroke:#ffffff;stroke-width:1px;stroke-linecap:butt;stroke-linejoin:miter;stroke-opacity:0"
         inkscape:original="M 748.375 178.25 C 747.12984 182.0232 746.07512 185.14963 745.6875 186.3125 C 745.18768 187.81195 744.81281 189.31958 744.53125 190.8125 C 744.24969 192.30542 744.06298 193.79449 743.96875 195.28125 C 743.78029 198.25477 743.93725 201.20514 744.3125 204.15625 C 744.68774 207.10736 745.27729 210.03707 745.96875 212.96875 C 746.66021 215.90043 747.45855 218.83477 748.21875 221.75 C 748.97895 224.66523 749.69978 227.56699 750.28125 230.46875 C 750.86272 233.37051 751.28225 236.26498 751.4375 239.15625 C 751.5151 240.60189 751.54413 242.05643 751.46875 243.5 C 751.39345 244.94357 751.22797 246.37062 750.96875 247.8125 C 750.70953 249.25438 750.34905 250.71569 749.875 252.15625 C 749.40095 253.59681 748.81356 255.02913 748.09375 256.46875 C 747.51793 257.6204 746.7678 258.65548 745.9375 259.59375 C 745.1072 260.53202 744.19172 261.35848 743.28125 262.125 C 741.4603 263.65804 739.65832 264.90419 738.5625 266 C 738.21297 266.34953 737.21581 266.68227 735.75 267 C 734.28419 267.31773 732.33485 267.63455 730.0625 267.90625 C 725.5178 268.44965 719.69364 268.88241 713.78125 269.15625 C 707.86886 269.43009 701.89586 269.51585 697.09375 269.40625 C 694.69269 269.35145 692.56512 269.26577 690.90625 269.09375 C 689.24738 268.92173 688.04444 268.67847 687.4375 268.375 C 685.61945 267.46598 683.2916 266.56009 680.6875 265.71875 C 678.0834 264.87741 675.21543 264.10478 672.3125 263.4375 C 669.40957 262.77022 666.46456 262.19933 663.75 261.8125 C 661.03544 261.42567 658.53896 261.21875 656.5 261.21875 C 654.20526 261.21875 651.0599 261.07849 647.53125 260.8125 C 644.0026 260.54651 640.08627 260.16592 636.21875 259.65625 C 632.35123 259.14658 628.53011 258.51228 625.21875 257.78125 C 621.90739 257.05022 619.11016 256.21133 617.25 255.28125 C 616.24088 254.77669 613.9001 254.37454 610.84375 254.03125 C 607.7874 253.68796 604.01019 253.40406 600.125 253.09375 C 596.23981 252.78344 592.24562 252.46812 588.75 252.0625 C 585.25438 251.65688 582.26264 251.16046 580.375 250.53125 C 578.8538 250.02418 577.20669 249.82964 575.5 249.78125 C 573.79331 249.73285 572.01781 249.83275 570.25 249.9375 C 569.67825 249.9714 569.13203 249.9713 568.5625 250 C 574.87747 252.74895 582.25027 255.28125 589.3125 255.28125 C 591.88266 255.28125 598.87376 257.09313 601.1875 258.25 C 603.94124 259.62687 608.58158 257.47829 611.3125 258.84375 C 612.53354 259.45427 617.06209 258.65584 617.84375 259.4375 C 618.75637 260.35012 629.2294 262.77095 632.125 264.21875 C 634.35222 265.33236 637.02278 263.69889 639.25 264.8125 C 640.66961 265.52231 642.64562 264.7291 644 265.40625 C 650.24022 268.52636 661.29745 267.20369 666.03125 271.9375 C 667.21717 273.12341 677.95094 272.55359 680.28125 273.71875 C 684.22546 275.69085 689.78947 274.30098 693.375 276.09375 C 694.92287 276.86768 697.25675 276.55025 698.71875 277.28125 C 705.68835 280.76605 713.26613 281.00807 720.125 284.4375 C 723.50784 286.12892 729.26106 283.34928 732.625 285.03125 C 736.1928 286.81515 739.17128 287.41376 742.71875 289.1875 C 747.14355 291.3999 785.62786 290.04544 789.71875 288 C 795.86543 284.92666 812.43815 288.53093 819.4375 285.03125 C 823.54321 282.97839 833.35053 285.80911 837.28125 283.84375 C 840.12506 282.42185 843.80984 283.02172 846.78125 282.03125 C 860.34948 277.50851 874.37449 272.90676 883.0625 264.21875 C 885.73786 261.54339 891.39384 246.97817 886.625 244.59375 C 881.14608 241.85429 874.62394 242.43697 869.375 239.8125 C 866.69302 238.47151 862.60405 239.98953 859.875 238.625 C 856.83546 237.10523 852.69125 239.50187 849.75 238.03125 C 846.94684 236.62967 836.38449 236.54075 834.90625 235.0625 C 833.92298 234.07923 816.46701 227.046 813.5 225.5625 C 809.27657 223.45079 804.28104 222.28103 801 219 C 792.50743 210.50742 775.50741 207.19491 767.09375 198.78125 C 765.37862 197.06611 760.65216 196.4959 758.78125 194.625 C 755.78691 191.63066 754.06358 185.15732 752.25 183.34375 C 750.799 181.89274 749.48135 180.10085 748.375 178.25 z "
         inkscape:radius="-1.3163302"
         sodipodi:type="inkscape:offset" />
      <path
         transform="translate(0,308.2677)"
         d="m 609.5625,289.5 c -3.2505,-0.10055 -6.53123,0.17968 -9.8125,1 -4.50261,1.12565 -9.28392,2.00089 -13.40625,3.375 -1.83877,0.61292 -2.58451,2.27826 -3.3125,4.1875 -0.72799,1.90924 -1.38965,4.0542 -3.34375,5.03125 -2.5356,1.2678 -4.98451,2.8985 -7.5625,4.1875 -0.21721,0.1086 -0.40809,0.13478 -0.6875,0.1875 -0.27941,0.0527 -0.61467,0.10364 -1.03125,0.15625 -0.83317,0.10522 -1.93419,0.20809 -3.21875,0.3125 -2.56912,0.20882 -5.88009,0.42612 -9.21875,0.5625 -3.33866,0.13638 -6.70847,0.19093 -9.40625,0.15625 -1.34889,-0.0173 -2.535,-0.0447 -3.46875,-0.125 -0.93375,-0.0803 -1.57116,-0.16058 -2.0625,-0.40625 -2.12953,-1.06476 -4.92259,-1.32867 -7.78125,-1.59375 -2.85866,-0.26508 -5.78315,-0.5322 -8.21875,-1.75 -7.19743,-3.59871 -16.11933,-3.88779 -23.53125,-7.59375 -1.73194,-0.86597 -4.03011,-0.83954 -6.4375,-0.78125 -2.40739,0.0583 -4.92425,0.14725 -7.03125,-0.90625 -2.49211,-1.24605 -5.63806,-0.45104 -8.90625,0.4375 -3.26819,0.88854 -6.65798,1.87413 -9.59375,0.40625 -2.8331,-1.41655 -7.81292,-1.74476 -12.78125,-1.40625 -4.96833,0.33851 -9.94341,1.31447 -12.84375,2.28125 -11.18126,3.72708 -20.84071,9.17035 -31.0625,14.28125 -1.9546,0.9773 -2.928,3.606 -3.9375,5.625 -1.09465,2.18929 -1.17774,4.31021 -0.5,6.46875 0.67774,2.15854 2.13089,4.34316 4.15625,6.53125 4.05072,4.37617 10.32999,8.71753 16.6875,12.90625 6.35751,4.18872 12.80337,8.22726 17.28125,12.125 2.23894,1.94887 4.00547,3.85346 5,5.78125 0.99453,1.92779 1.18676,3.93898 0.25,5.8125 -1.89437,3.78875 -5.08546,6.11545 -8.875,7.59375 -3.78954,1.4783 -8.19055,2.12759 -12.625,2.625 -8.86891,0.99481 -17.84962,1.44337 -22.3125,5.90625 0.0133,-0.0133 -0.0936,0.13726 -0.15625,0.40625 -0.0626,0.26899 -0.11202,0.6425 -0.15625,1 -0.0442,0.3575 -0.0942,0.70525 -0.15625,1.03125 -0.062,0.326 -0.072,0.63448 -0.375,0.9375 -1.211,1.211 -1.7332,2.18242 -1.8125,2.96875 -0.0793,0.78633 0.23516,1.45266 0.90625,2.125 1.34219,1.34467 4.14414,2.50698 7.09375,3.53125 2.94961,1.02427 6.01177,1.94088 8,3.125 0.99412,0.59206 1.7799,1.26938 2.03125,2.1875 0.25135,0.91812 -0.13714,1.91839 -1.09375,2.875 -0.687,0.687 -2.88936,2.93448 -5.1875,5.15625 -1.14907,1.11089 -2.34547,2.22668 -3.375,3.125 -1.02953,0.89832 -1.87068,1.57597 -2.53125,1.90625 -2.74426,1.37212 -5.62586,2.3446 -7.40625,4.125 -0.25559,0.25559 -0.50226,0.2957 -0.84375,0.40625 -0.34149,0.11055 -0.76482,0.22759 -1.28125,0.34375 -1.03286,0.23232 -2.40842,0.49136 -4.03125,0.78125 -3.24567,0.57979 -7.46564,1.28425 -11.75,2.1875 -4.28436,0.90325 -8.6406,1.9881 -12.125,3.3125 -3.4844,1.3244 -6.06457,2.94165 -6.875,4.5625 -1.05044,2.10087 -0.45581,4.67022 0.65625,6.96875 1.11206,2.29853 2.73941,4.27066 3.46875,5 0.0794,0.0794 0.2553,0.17444 0.5625,0.21875 0.3072,0.0443 0.70669,0.0621 1.125,0.0625 0.41831,3.6e-4 0.85587,0.001 1.28125,0.0625 0.42538,0.0613 0.87765,0.15899 1.21875,0.5 0.37182,0.37182 0.3693,0.84878 0.34375,1.28125 -0.0256,0.43247 -0.0999,0.90791 -0.1875,1.34375 -0.0876,0.43584 -0.16925,0.84737 -0.1875,1.15625 -0.0183,0.30888 0.0527,0.42767 0.0312,0.40625 2.0375,2.0375 2.62323,5.07993 2.4375,8.125 -0.18573,3.04507 -1.15058,6.1449 -2.34375,8.53125 -0.59841,1.19681 -1.77348,1.98588 -3.1875,2.59375 -1.41402,0.60787 -3.09446,1.03995 -4.78125,1.4375 -1.68679,0.39755 -3.398,0.77415 -4.84375,1.21875 -1.44575,0.4446 -2.61008,0.98508 -3.25,1.625 -1.99693,1.99693 -5.57683,2.43652 -8.875,2.78125 -1.64908,0.17236 -3.21784,0.31982 -4.5,0.53125 -1.28216,0.21143 -2.24102,0.55352 -2.59375,0.90625 -1.44424,1.44423 -3.70688,1.60444 -5.8125,1.8125 -2.10562,0.20806 -4.05419,0.46044 -5.125,1.53125 -3.53649,3.53649 -10.18561,5.21624 -16.53125,6.71875 -3.17282,0.75125 -6.2848,1.4504 -8.875,2.25 -2.5902,0.7996 -4.63258,1.72633 -5.71875,2.8125 -0.54776,0.54776 -1.35042,0.57867 -2.15625,0.53125 -0.80583,-0.0474 -1.68692,-0.1998 -2.5625,-0.375 -0.87558,-0.1752 -1.72351,-0.36607 -2.40625,-0.40625 -0.68274,-0.0402 -1.1282,0.0969 -1.28125,0.25 -0.90789,0.90789 -2.45728,1.44758 -4.3125,1.9375 -1.85522,0.48992 -4.02857,0.881 -6.15625,1.21875 -2.12768,0.33775 -4.20649,0.62103 -5.84375,0.9375 -0.81863,0.15823 -1.52698,0.33085 -2.0625,0.5 -0.53552,0.16915 -0.8885,0.3885 -0.96875,0.46875 -0.0299,0.0299 -0.0886,0.11447 -0.125,0.15625 0.7663,0.19031 1.51547,0.40329 2.25,0.5 2.94361,0.38755 5.97497,0.5305 9.03125,0.46875 3.05627,-0.0617 6.17009,-0.32868 9.28125,-0.75 3.1131,-0.42158 6.23504,-0.96641 9.34375,-1.65625 3.10919,-0.68995 6.19696,-1.5073 9.25,-2.375 3.05241,-0.86752 6.03185,-1.79744 8.96875,-2.75 5.87429,-1.90526 11.4801,-3.89961 16.5625,-5.59375 1.39194,-0.46399 2.83899,-0.7667 4.3125,-1 1.4735,-0.2333 2.99665,-0.40467 4.46875,-0.59375 a 0.55848961,0.55848961 0 0 1 0.34375,1.03125 c -2.28129,1.41176 -4.57484,2.7692 -6.8125,3.96875 -2.23789,1.19967 -4.40678,2.23132 -6.5,3.125 -2.09351,0.89381 -4.07306,1.6266 -5.9375,2.125 -1.86413,0.49832 -3.60768,0.78125 -5.15625,0.78125 0.0668,0 -0.01,-0.008 -0.125,0.0312 -0.11513,0.0397 -0.2775,0.1011 -0.46875,0.1875 -0.38251,0.17279 -0.89102,0.4395 -1.46875,0.75 -1.15545,0.62101 -2.61957,1.45474 -4.03125,2.3125 -1.41168,0.85776 -2.79506,1.75167 -3.8125,2.4375 -0.50872,0.34292 -0.90707,0.62866 -1.1875,0.84375 0.14926,0.0657 0.30745,0.11847 0.5625,0.1875 0.71023,0.19224 1.78904,0.3405 3.125,0.5 2.66134,0.31774 6.28461,0.55329 10.09375,0.71875 7.61884,0.33095 15.94755,0.40625 18.71875,0.40625 0.33776,0 0.78786,0.0792 1.40625,0.1875 0.61839,0.10831 1.36921,0.26769 2.25,0.4375 1.76158,0.33963 3.97422,0.73622 6.1875,1.0625 2.21243,0.32615 4.4174,0.5544 6.25,0.53125 0.91668,-0.0116 1.73545,-0.0688 2.375,-0.21875 0.64101,-0.1503 1.09537,-0.40787 1.34375,-0.65625 0.47624,-0.47623 1.06018,-0.79638 1.6875,-1.0625 0.63123,-0.26778 1.30002,-0.45222 1.9375,-0.65625 0.64507,-0.20646 1.27375,-0.43224 1.875,-0.71875 0.59819,-0.28505 1.15244,-0.65244 1.625,-1.125 0.87248,-0.87248 1.83845,-1.70294 2.8125,-2.5625 a 0.55848961,0.55848961 0 0 1 0.125,-0.0937 c 1.67054,-0.81045 3.41041,-1.51956 5.1875,-2.125 1.77704,-0.60542 3.59325,-1.09418 5.4375,-1.5625 3.69418,-0.93807 7.49037,-1.65937 11.28125,-2.46875 3.79173,-0.80956 7.5752,-1.71382 11.21875,-2.9375 1.82008,-0.61127 3.60352,-1.30925 5.34375,-2.125 1.73837,-0.81488 3.43477,-1.75859 5.0625,-2.84375 1.32396,-0.88264 2.71075,-1.69372 4.15625,-2.4375 1.44785,-0.74499 2.95176,-1.38925 4.46875,-2.03125 3.04284,-1.28777 6.21644,-2.46505 9.375,-3.625 3.15798,-1.15974 6.32267,-2.31737 9.3125,-3.6875 1.49188,-0.68367 2.90624,-1.44722 4.3125,-2.25 1.40468,-0.80188 2.75792,-1.63875 4.03125,-2.59375 17.21233,-12.90924 32.71876,-25.09375 49.96875,-38.03125 2.98427,-2.23821 6.27704,-4.18225 9.65625,-5.96875 3.37855,-1.78615 6.83986,-3.42683 10.25,-5.09375 3.40983,-1.66677 6.76877,-3.35039 9.84375,-5.21875 1.54009,-0.93576 2.99088,-1.89568 4.375,-2.9375 1.38461,-1.04219 2.68297,-2.18297 3.875,-3.375 0.68053,-0.68053 2.53074,-2.27143 5,-4.40625 2.46926,-2.13482 5.5375,-4.76245 8.5625,-7.40625 3.02354,-2.64253 6.00023,-5.31525 8.3125,-7.46875 1.15542,-1.07609 2.1408,-2.02297 2.875,-2.78125 0.7342,-0.75828 1.22433,-1.38616 1.3125,-1.5625 0.69682,-1.39366 1.48962,-2.70383 2.34375,-3.96875 0.8534,-1.26383 1.76279,-2.51371 2.75,-3.6875 1.96811,-2.34006 4.17083,-4.4585 6.4375,-6.53125 2.26653,-2.07263 4.60197,-4.10497 6.90625,-6.09375 2.30304,-1.98771 4.55493,-3.96118 6.625,-6.03125 1.8706,-1.8706 3.4292,-3.99223 4.9375,-6.09375 1.5083,-2.10152 2.96308,-4.18183 4.59375,-5.8125 1.1876,-1.18759 2.92398,-2.38703 4.96875,-3.59375 2.04426,-1.20641 4.41825,-2.39889 6.84375,-3.5 2.42581,-1.10125 4.89781,-2.12398 7.21875,-2.96875 2.32156,-0.845 4.48689,-1.50454 6.21875,-1.9375 6.94392,-1.73598 22.13715,-6.68131 37.21875,-10.65625 3.76891,-0.99334 7.55783,-1.94258 11.1875,-2.75 3.62818,-0.80708 7.11477,-1.51028 10.34375,-2 3.23003,-0.48988 6.20016,-0.773 8.78125,-0.8125 1.29529,-0.0198 2.48056,0.0365 3.5625,0.15625 1.08202,0.11975 2.07315,0.30563 2.9375,0.59375 0.70571,0.23524 2.97648,0.56383 5.84375,0.875 2.86654,0.31109 6.40163,0.62514 9.84375,0.9375 3.44125,0.31228 6.80015,0.61562 9.375,0.90625 1.28784,0.14536 2.37778,0.29751 3.1875,0.4375 0.40486,0.07 0.73195,0.14583 1,0.21875 0.26805,0.0729 0.45844,0.0522 0.71875,0.3125 0.41758,0.41758 1.56331,1.01777 3.1875,1.59375 1.62211,0.57524 3.71609,1.17977 6.15625,1.75 4.88207,1.14085 11.09208,2.21123 17.46875,3.09375 6.37723,0.8826 12.91525,1.56907 18.46875,1.90625 2.7749,0.16848 5.33429,0.23908 7.46875,0.21875 2.13484,-0.0204 3.84078,-0.14316 5,-0.375 12.94917,-2.58983 26.04334,-5.70242 39.25,-8.34375 1.24749,-0.2495 2.49791,-0.64893 3.71875,-1.15625 1.22013,-0.50702 2.409,-1.11909 3.59375,-1.78125 2.36531,-1.32197 4.65798,-2.81979 6.78125,-4.09375 7.4492,-4.46953 14.35298,-8.50591 20.84375,-12.53125 2.67709,-1.66023 5.23544,-3.34718 7.78125,-5.03125 -8.50434,0.53334 -17.21746,7.40561 -25.65625,11.625 -3.19931,1.59966 -8.30116,2.20989 -13.5625,2.78125 -5.26134,0.57136 -10.6651,1.08628 -14.25,2.28125 -2.20045,0.73348 -4.63044,0.59837 -6.96875,0.46875 -2.33831,-0.12962 -4.58521,-0.25285 -6.46875,0.375 -7.87317,2.62439 -21.35974,2.53634 -28.96875,0 -3.30669,-1.10223 -7.19762,-0.76883 -11.15625,-0.40625 -3.95863,0.36258 -7.98475,0.75508 -11.5625,-0.4375 -2.96131,-0.98711 -10.63333,-1.78975 -17.75,-2.4375 -3.55833,-0.32387 -6.98674,-0.61898 -9.6875,-0.90625 -1.35038,-0.14364 -2.5253,-0.29342 -3.4375,-0.4375 -0.9122,-0.14408 -1.51919,-0.24397 -1.96875,-0.46875 -2.95462,-1.4773 -10.05967,-2.98816 -17.3125,-4.0625 -7.25283,-1.07434 -14.72782,-1.75 -18.59375,-1.75 -16.00027,0 -33.49564,1.4702 -48.125,-3.40625 -8.44597,-2.81533 -17.96252,-6.57323 -27.71875,-6.875 z"
         id="path4172"
         style="fill:#6c7d8d;fill-opacity:1;stroke:none"
         inkscape:original="M 609.59375 288.9375 C 606.29785 288.83555 602.96079 289.1348 599.625 289.96875 C 595.14824 291.08794 590.33499 291.95084 586.15625 293.34375 C 581.98729 294.7334 582.82833 300.89833 579.4375 302.59375 C 576.85992 303.88254 574.41031 305.51359 571.875 306.78125 C 570.4254 307.50605 545.71087 308.83981 543.28125 307.625 C 538.74855 305.35865 531.88291 306.58208 527.28125 304.28125 C 519.93259 300.60692 511.00882 300.31691 503.75 296.6875 C 499.93383 294.77941 494.14751 296.93313 490.28125 295 C 484.80595 292.26235 477.15216 298.5292 471.78125 295.84375 C 465.72298 292.81462 451.66876 294.70416 445.71875 296.6875 C 434.47426 300.43566 424.79925 305.89725 414.59375 311 C 412.36326 312.11525 411.38704 314.91343 410.40625 316.875 C 401.16148 335.36454 460.11575 352.83099 453.28125 366.5 C 445.98703 381.08844 418.97815 373.05309 409.5625 382.46875 C 409.01117 383.02007 409.14008 385.42242 408.71875 385.84375 C 398.61474 395.94776 430.90093 395.59907 423.84375 402.65625 C 422.4476 404.0524 415.06363 411.67131 412.90625 412.75 C 410.21356 414.09634 407.26125 415.05124 405.34375 416.96875 C 403.89921 418.41329 372.12143 421.16339 368.34375 428.71875 C 366.00982 433.38659 370.98651 439.76777 372.5625 441.34375 C 373.40347 442.18473 375.90903 441.34675 376.75 442.1875 C 377.45081 442.88831 376.04919 445.67419 376.75 446.375 C 380.50824 450.13324 379.06848 457.73804 376.75 462.375 C 374.72008 466.43485 363.82821 466.04679 360.78125 469.09375 C 357.22191 472.65309 346.94772 471.17727 344.8125 473.3125 C 342.32601 475.79898 336.41078 474.12047 333.875 476.65625 C 327.18246 483.34879 307.61774 483.56976 302.75 488.4375 C 301.34838 489.83913 295.74537 487.03588 294.34375 488.4375 C 291.33747 491.44379 276.72914 491.77086 275 493.5 C 274.76216 493.73784 274.46895 494.14382 274.21875 494.40625 C 275.3105 494.62488 276.35696 494.97862 277.46875 495.125 C 280.44415 495.51674 283.48199 495.65599 286.5625 495.59375 C 289.64301 495.53155 292.77653 495.26758 295.90625 494.84375 C 299.03597 494.41992 302.18947 493.84927 305.3125 493.15625 C 308.43553 492.46323 311.53332 491.65105 314.59375 490.78125 C 317.65418 489.91145 320.65181 488.98544 323.59375 488.03125 C 329.47764 486.12288 335.08173 484.12901 340.15625 482.4375 C 341.5052 481.98784 342.91742 481.69953 344.375 481.46875 C 345.83258 481.23797 347.33553 481.06471 348.8125 480.875 C 346.53875 482.28209 344.25584 483.61996 342.03125 484.8125 C 339.80666 486.00504 337.63892 487.05099 335.5625 487.9375 C 333.48608 488.82401 331.51674 489.54226 329.6875 490.03125 C 327.85826 490.52024 326.17055 490.78125 324.6875 490.78125 C 324.12634 490.78125 321.14877 492.43288 318.3125 494.15625 C 315.47623 495.87962 312.78125 497.67474 312.78125 497.90625 C 312.78125 498.16844 313.23034 498.41668 314 498.625 C 314.76966 498.83332 315.87451 498.99576 317.21875 499.15625 C 319.90723 499.47723 323.52734 499.70922 327.34375 499.875 C 334.97657 500.20656 343.31255 500.28125 346.09375 500.28125 C 347.03903 500.28125 351.3857 501.31155 355.84375 501.96875 C 358.07277 502.29735 360.30457 502.52379 362.1875 502.5 C 363.12896 502.4881 363.9856 502.4146 364.6875 502.25 C 365.3894 502.08542 365.95218 501.82907 366.3125 501.46875 C 366.72595 501.05531 367.23244 500.74607 367.8125 500.5 C 368.39256 500.25393 369.03258 500.08461 369.6875 499.875 C 370.34242 499.66539 371.01822 499.42904 371.65625 499.125 C 372.29428 498.82096 372.90812 498.43563 373.4375 497.90625 C 374.29394 497.04981 375.24591 496.20224 376.21875 495.34375 C 377.86646 494.54438 379.58637 493.84872 381.34375 493.25 C 383.10113 492.65128 384.88284 492.1537 386.71875 491.6875 C 390.39056 490.75511 394.20103 490.02986 398 489.21875 C 401.79897 488.40764 405.60436 487.51613 409.28125 486.28125 C 411.1197 485.66381 412.9263 484.95058 414.6875 484.125 C 416.4487 483.29942 418.15971 482.35186 419.8125 481.25 C 421.11909 480.37894 422.47929 479.57799 423.90625 478.84375 C 425.33321 478.10951 426.83117 477.45264 428.34375 476.8125 C 431.36892 475.53221 434.52826 474.37895 437.6875 473.21875 C 440.84674 472.05855 444.01586 470.88184 447.03125 469.5 C 448.53894 468.80908 449.98663 468.06041 451.40625 467.25 C 452.82587 466.43959 454.20319 465.56636 455.5 464.59375 C 472.71847 451.6799 488.22489 439.4954 505.46875 426.5625 C 508.41936 424.34954 511.66716 422.43476 515.03125 420.65625 C 518.39534 418.87774 521.8671 417.23138 525.28125 415.5625 C 528.6954 413.89362 532.05545 412.19655 535.15625 410.3125 C 536.70665 409.37047 538.18983 408.40047 539.59375 407.34375 C 540.99767 406.28703 542.31923 405.14952 543.53125 403.9375 C 544.79256 402.67619 551.00797 397.41656 557.0625 392.125 C 560.08976 389.47922 563.05648 386.81557 565.375 384.65625 C 567.69352 382.49693 569.34908 380.83309 569.6875 380.15625 C 570.37065 378.78994 571.15568 377.50039 572 376.25 C 572.84432 374.99961 573.74644 373.78107 574.71875 372.625 C 576.66338 370.31286 578.83613 368.18948 581.09375 366.125 C 583.35137 364.06052 585.69473 362.05213 588 360.0625 C 590.30527 358.07287 592.56865 356.0876 594.65625 354 C 596.56774 352.08851 598.14662 349.91588 599.65625 347.8125 C 601.16588 345.70912 602.60625 343.675 604.1875 342.09375 C 605.31872 340.96254 607.01109 339.75469 609.03125 338.5625 C 611.05141 337.37031 613.40042 336.18877 615.8125 335.09375 C 618.22458 333.99873 620.69303 332.99594 623 332.15625 C 625.30697 331.31656 627.45141 330.64496 629.15625 330.21875 C 636.15551 328.46893 651.34551 323.53194 666.40625 319.5625 C 670.17144 318.57014 673.94369 317.6175 677.5625 316.8125 C 681.18131 316.0075 684.66266 315.33095 687.875 314.84375 C 691.08734 314.35655 694.01672 314.07021 696.5625 314.03125 C 697.83539 314.01175 699.00502 314.07045 700.0625 314.1875 C 701.11998 314.30453 702.06544 314.48014 702.875 314.75 C 703.74107 315.03869 705.96836 315.3442 708.84375 315.65625 C 711.71914 315.9683 715.24612 316.28146 718.6875 316.59375 C 722.12888 316.90604 725.49845 317.21059 728.0625 317.5 C 730.62655 317.78941 732.3816 318.0691 732.625 318.3125 C 733.18787 318.87537 734.37922 319.4454 736.03125 320.03125 C 737.68328 320.6171 739.79625 321.20785 742.25 321.78125 C 747.15749 322.92804 753.39149 324.02192 759.78125 324.90625 C 766.17101 325.79058 772.70871 326.47416 778.28125 326.8125 C 781.06752 326.98167 783.63044 327.05174 785.78125 327.03125 C 787.93206 327.01075 789.67833 326.90183 790.90625 326.65625 C 803.86879 324.06375 816.96273 320.9512 830.15625 318.3125 C 831.44615 318.05452 832.72003 317.6439 833.96875 317.125 C 835.21747 316.6061 836.42948 315.98068 837.625 315.3125 C 840.01604 313.97615 842.3002 312.45113 844.40625 311.1875 C 851.85211 306.71998 858.75061 302.68694 865.25 298.65625 C 868.4997 296.64091 871.66123 294.62185 874.71875 292.5625 C 874.40277 292.56344 874.09095 292.5 873.78125 292.5 C 864.648 292.5 855.53588 299.93519 846.84375 304.28125 C 840.77948 307.31339 826.48834 306.84763 819.09375 309.3125 C 814.9733 310.68598 809.7085 308.8055 805.65625 310.15625 C 797.97274 312.71742 784.48264 312.62963 777.0625 310.15625 C 770.14012 307.84879 761.18666 311.59347 754.34375 309.3125 C 748.06212 307.21862 723.88039 306.2527 721.5625 305.09375 C 715.30132 301.96317 693.26807 299.21875 685.40625 299.21875 C 669.37235 299.21875 651.93864 300.66704 637.46875 295.84375 C 629.0456 293.03603 619.48145 289.24334 609.59375 288.9375 z "
         inkscape:radius="-0.55843377"
         sodipodi:type="inkscape:offset" />
      <path
         inkscape:connector-curvature="0"
         id="path4028"
         d="m 482.96381,747.20093 c 11.72055,1.98803 23.5987,0.79819 33.89547,5.94657 7.82204,3.91102 36.65412,4.37724 42.81533,-1.78397 3.42478,-3.42478 9.68492,-4.33301 13.08246,-7.73055 0.82902,-0.82901 3.3858,-2.01432 4.16261,-3.56794 0.12536,-0.25073 0.59465,-0.87498 0.59465,-0.59466 0,0.56065 -0.79287,-0.79288 -1.18931,-1.18931 -1.4167,-1.41671 -3.95922,-1.38496 -5.94657,-2.37863 -2.24651,-1.12326 -14.64108,-1.78398 -18.43438,-1.78398 -2.75518,0 -18.61279,-0.41624 -20.21835,1.18932 -0.94884,0.94884 -12.80579,7.41257 -14.27178,5.94657 -1.73944,-1.73944 -4.44486,-2.66089 -6.54123,-4.75726 -1.27445,-1.27444 -1.19889,-2.98286 -2.37863,-4.1626 -1.6023,-1.6023 -4.75726,-6.08602 -4.75726,-8.91986"
         style="fill:#657684;fill-opacity:1;stroke:#000000;stroke-width:1px;stroke-linecap:butt;stroke-linejoin:miter;stroke-opacity:1" />
      <path
         transform="translate(0,308.2677)"
         d="m 643.21875,313.25 c -2.2765,0.01 -4.27715,0.0778 -5.84375,0.21875 -1.5666,0.14095 -2.71007,0.38629 -3.1875,0.625 -5.60123,2.80061 -11.81174,4.70275 -16.65625,7.125 -4.03555,2.01777 -11.10014,2.36896 -18.28125,2.84375 -7.18111,0.47479 -14.46218,1.05922 -18.59375,3.125 -1.58842,0.79421 -3.99613,1.7159 -6.28125,2.71875 -2.28512,1.00285 -4.45077,2.13827 -5.4375,3.125 -1.22572,1.22572 -2.67391,3.12908 -4.28125,4.96875 -1.60734,1.83967 -3.37509,3.60942 -5.40625,4.625 -2.03211,1.01606 -4.50968,0.84124 -6.875,0.6875 -2.36532,-0.15374 -4.6192,-0.28415 -6.1875,0.5 -7.13479,3.56739 -14.80998,4.9625 -22.03125,6.84375 -7.22127,1.88125 -13.9707,4.25195 -19.4375,9.71875 -1.95315,1.95315 -2.4351,3.73193 -2.21875,5.625 0.21635,1.89307 1.18904,3.91505 2.3125,6.03125 1.12346,2.1162 2.377,4.33032 3.03125,6.71875 0.65425,2.38843 0.68298,4.97778 -0.65625,7.65625 -2.28111,4.56222 -6.33251,6.73293 -10.15625,8.1875 -3.82374,1.45457 -7.4389,2.3139 -8.96875,3.84375 -3.54158,3.54158 -8.56527,7.37777 -11.90625,10.71875 -0.0842,0.0842 -0.0627,0.0589 -0.0625,0.0625 1.5e-4,0.004 0.015,0.0821 0.125,0.21875 0.21998,0.27332 0.75378,0.68368 1.5,1.125 1.49244,0.88263 3.74753,1.94061 5.875,3.125 2.12747,1.18439 4.16918,2.5034 5.28125,4.125 0.55604,0.8108 0.85716,1.71486 0.75,2.6875 -0.10716,0.97264 -0.61263,1.95638 -1.5625,2.90625 -1.29137,1.29137 -4.13137,2.48614 -7.84375,3.84375 -3.71238,1.35761 -8.26618,2.79577 -12.75,4.15625 -4.48382,1.36048 -8.90033,2.63877 -12.34375,3.75 -1.72171,0.55561 -3.20334,1.05997 -4.3125,1.5 -1.10916,0.44003 -1.8725,0.90375 -2,1.03125 -2.54681,2.54681 -5.04407,4.30328 -8.5,6.03125 -0.39311,0.19656 -0.72324,0.16081 -1.125,0.125 -0.40176,-0.0358 -0.87061,-0.11994 -1.40625,-0.21875 -1.07128,-0.19763 -2.38991,-0.47685 -3.75,-0.6875 -1.36009,-0.21065 -2.74747,-0.33257 -3.9375,-0.25 -1.19003,0.0826 -2.13347,0.38347 -2.6875,0.9375 -3.52559,3.52558 -5.38429,6.38876 -6.28125,8.78125 -0.89696,2.39249 -0.84581,4.30018 -0.59375,6.0625 0.25206,1.76232 0.75547,3.36823 0.78125,5.03125 0.0258,1.66302 -0.51288,3.38788 -2.25,5.125 -3.84057,3.84057 -10.2134,6.6509 -14.25,10.6875 -0.87797,0.87797 -2.19411,1.09918 -3.625,1.125 -1.43089,0.0258 -3.03829,-0.17655 -4.625,-0.375 -1.58671,-0.19845 -3.14144,-0.36714 -4.4375,-0.34375 -1.29606,0.0234 -2.27168,0.27168 -2.78125,0.78125 -7.8569,7.8569 -20.88215,10.45669 -31.09375,15.5625 -2.50657,1.25329 -5.06621,1.26826 -7.46875,1.28125 -2.40254,0.013 -4.64649,0.0264 -6.78125,1.09375 -0.38603,0.19301 -0.59512,0.42069 -0.90625,0.625 1.20248,0.0265 2.58362,0.0625 3,0.0625 0.43272,0 0.88184,0.0792 1.5,0.1875 0.63584,0.11137 1.40683,0.26892 2.28125,0.4375 1.75505,0.33837 3.95544,0.73806 6.15625,1.0625 2.19527,0.32362 4.38023,0.55369 6.15625,0.53125 0.89599,-0.0113 1.6892,-0.0873 2.25,-0.21875 0.55296,-0.12965 0.8963,-0.36505 1.03125,-0.5 0.55554,-0.55553 1.2112,-0.9059 1.875,-1.1875 0.68092,-0.28886 1.37877,-0.48867 2,-0.6875 0.63175,-0.2022 1.24782,-0.41842 1.8125,-0.6875 0.54675,-0.26054 1.02155,-0.58405 1.4375,-1 0.89472,-0.89472 1.87355,-1.73759 2.84375,-2.59375 a 0.6074909,0.6074909 0 0 1 0.28125,-0.125 l 0,-0.0312 c 1.69437,-0.82201 3.45042,-1.54315 5.25,-2.15625 1.80217,-0.61398 3.61899,-1.12403 5.46875,-1.59375 3.7184,-0.94422 7.53053,-1.66127 11.3125,-2.46875 3.78209,-0.8075 7.54739,-1.69422 11.15625,-2.90625 1.80131,-0.60497 3.56486,-1.32043 5.28125,-2.125 1.71269,-0.80284 3.36785,-1.71398 4.96875,-2.78125 1.34395,-0.89597 2.75404,-1.71509 4.21875,-2.46875 1.47333,-0.7581 2.98138,-1.41981 4.5,-2.0625 3.06008,-1.29506 6.24644,-2.46459 9.40625,-3.625 3.15847,-1.15992 6.3212,-2.33102 9.28125,-3.6875 1.46835,-0.67288 2.85201,-1.42069 4.25,-2.21875 1.39253,-0.79494 2.72441,-1.62925 3.96875,-2.5625 17.20565,-12.90423 32.71209,-25.08875 49.96875,-38.03125 1.51082,-1.13312 3.11823,-2.19037 4.75,-3.1875 1.63177,-0.99713 3.30173,-1.91467 5,-2.8125 3.39422,-1.79443 6.84427,-3.42899 10.25,-5.09375 3.40624,-1.66501 6.76689,-3.36823 9.8125,-5.21875 1.52722,-0.92794 2.94809,-1.87926 4.3125,-2.90625 1.36022,-1.02383 2.6394,-2.1394 3.8125,-3.3125 0.73508,-0.73508 2.56261,-2.30321 5.03125,-4.4375 2.47104,-2.13636 5.54058,-4.76515 8.5625,-7.40625 3.01947,-2.63898 6.00706,-5.29036 8.3125,-7.4375 1.15142,-1.07236 2.1227,-2.03655 2.84375,-2.78125 0.35581,-0.36748 0.66138,-0.67792 0.875,-0.9375 0.21362,-0.25958 0.37204,-0.52534 0.34375,-0.46875 0.71114,-1.4223 1.50956,-2.74959 2.375,-4.03125 0.86146,-1.27576 1.7756,-2.55428 2.78125,-3.75 1.99558,-2.37272 4.22585,-4.48291 6.5,-6.5625 2.27395,-2.07941 4.6007,-4.13512 6.90625,-6.125 2.30076,-1.98574 4.54294,-3.94919 6.59375,-6 1.82751,-1.82751 3.36936,-3.90219 4.875,-6 1.50546,-2.09756 2.97066,-4.22066 4.65625,-5.90625 1.25233,-1.25232 3.02688,-2.46774 5.09375,-3.6875 2.07064,-1.22198 4.46629,-2.42357 6.90625,-3.53125 2.43835,-1.10694 4.91126,-2.1175 7.25,-2.96875 2.34017,-0.85177 4.52415,-1.52948 6.28125,-1.96875 6.88284,-1.72071 22.11431,-6.67529 37.21875,-10.65625 3.77371,-0.9946 7.57804,-1.94012 11.21875,-2.75 1.20714,-0.26853 2.28901,-0.43425 3.4375,-0.65625 -3.46899,-0.1942 -7.05844,-0.40551 -13.09375,-0.78125 -8.25338,-0.51383 -17.60961,-1.0297 -24.4375,-1 z"
         id="path4205"
         style="fill:#657684;fill-opacity:1;stroke:none"
         inkscape:original="M 643.21875 312.65625 C 638.64564 312.67614 635.1947 312.91828 633.90625 313.5625 C 628.36797 316.33164 622.16543 318.22979 617.25 320.6875 C 609.65458 324.48521 589.0544 322.31655 580.375 326.65625 C 577.30447 328.19151 570.75319 330.34056 568.5 332.59375 C 565.94392 335.14983 562.76743 340.19441 558.96875 342.09375 C 555.33007 343.91309 549.47655 341.4961 545.90625 343.28125 C 531.83724 350.31575 515.44486 348.77389 504.28125 359.9375 C 496.05967 368.15908 511.73385 375.9698 506.65625 386.125 C 502.28164 394.87422 491.15269 394.47231 487.625 398 C 484.1321 401.4929 479.10987 405.32763 475.71875 408.71875 C 472.99609 411.44141 494.69426 415.89949 487.625 422.96875 C 483.2828 427.31094 450.8433 434.7817 448.375 437.25 C 445.86817 439.75683 443.44369 441.48128 440.03125 443.1875 C 438.8687 443.76878 429.81312 440.34312 426.96875 443.1875 C 412.69928 457.45696 425.2114 461.6011 418.625 468.1875 C 414.92218 471.89032 408.53423 474.71577 404.375 478.875 C 401.59993 481.65007 391.68132 477.28743 388.90625 480.0625 C 381.24193 487.72682 368.28796 490.37164 357.96875 495.53125 C 353.24712 497.89208 348.2894 495.62095 343.71875 497.90625 C 342.64662 498.44231 341.88121 499.03513 341.21875 499.625 C 342.58354 499.6384 345.37207 499.71875 346.09375 499.71875 C 346.43151 499.71875 346.88161 499.79795 347.5 499.90625 C 348.11839 500.01456 348.86921 500.17394 349.75 500.34375 C 351.51158 500.68338 353.72422 501.07997 355.9375 501.40625 C 358.14993 501.7324 360.3549 501.96065 362.1875 501.9375 C 363.10418 501.9259 363.92295 501.8687 364.5625 501.71875 C 365.20351 501.56845 365.65787 501.31088 365.90625 501.0625 C 366.38249 500.58627 366.96643 500.26612 367.59375 500 C 368.22498 499.73222 368.89377 499.54778 369.53125 499.34375 C 370.17632 499.13729 370.805 498.91151 371.40625 498.625 C 372.00444 498.33995 372.55869 497.97256 373.03125 497.5 C 373.90373 496.62752 374.8697 495.79706 375.84375 494.9375 A 0.55848961 0.55848961 0 0 1 375.875 494.90625 A 0.55848961 0.55848961 0 0 1 375.9375 494.875 A 0.55848961 0.55848961 0 0 1 375.96875 494.84375 C 377.63929 494.0333 379.37916 493.32419 381.15625 492.71875 C 382.93329 492.11333 384.7495 491.62457 386.59375 491.15625 C 390.28793 490.21818 394.08412 489.49688 397.875 488.6875 C 401.66673 487.87794 405.4502 486.97368 409.09375 485.75 C 410.91383 485.13873 412.69727 484.44075 414.4375 483.625 C 416.17587 482.81012 417.87227 481.86641 419.5 480.78125 C 420.82396 479.89861 422.21075 479.08753 423.65625 478.34375 C 425.1041 477.59876 426.60801 476.9545 428.125 476.3125 C 431.16784 475.02473 434.34144 473.84745 437.5 472.6875 C 440.65798 471.52776 443.82267 470.37013 446.8125 469 C 448.30438 468.31633 449.71874 467.55278 451.125 466.75 C 452.52968 465.94812 453.88292 465.11125 455.15625 464.15625 C 472.36858 451.24701 487.87501 439.0625 505.125 426.125 C 506.61713 425.0059 508.19387 423.95785 509.8125 422.96875 C 511.43113 421.97965 513.09164 421.0495 514.78125 420.15625 C 518.1598 418.3701 521.62111 416.72942 525.03125 415.0625 C 528.44108 413.39573 531.80002 411.71211 534.875 409.84375 C 536.41509 408.90799 537.86588 407.94807 539.25 406.90625 C 540.63461 405.86406 541.93297 404.72328 543.125 403.53125 C 543.80553 402.85072 545.65574 401.25982 548.125 399.125 C 550.59426 396.99018 553.6625 394.36255 556.6875 391.71875 C 559.71104 389.07622 562.68773 386.4035 565 384.25 C 566.15542 383.17391 567.1408 382.22703 567.875 381.46875 C 568.6092 380.71047 569.09933 380.08259 569.1875 379.90625 C 569.88432 378.51259 570.67712 377.20242 571.53125 375.9375 C 572.38465 374.67367 573.29404 373.42379 574.28125 372.25 C 576.24936 369.90994 578.45208 367.7915 580.71875 365.71875 C 582.98528 363.64612 585.32072 361.61378 587.625 359.625 C 589.92804 357.63729 592.17993 355.66382 594.25 353.59375 C 596.1206 351.72315 597.6792 349.60152 599.1875 347.5 C 600.6958 345.39848 602.15058 343.31817 603.78125 341.6875 C 604.96885 340.49991 606.70523 339.30047 608.75 338.09375 C 610.79426 336.88734 613.16825 335.69486 615.59375 334.59375 C 618.01956 333.4925 620.49156 332.46977 622.8125 331.625 C 625.13406 330.78 627.29939 330.12046 629.03125 329.6875 C 635.97517 327.95152 651.1684 323.00619 666.25 319.03125 C 670.01891 318.03791 673.80783 317.08867 677.4375 316.28125 C 680.28687 315.64741 682.94398 315.17136 685.5625 314.71875 C 680.65454 314.64675 656.93809 312.59657 643.21875 312.65625 z "
         inkscape:radius="-0.60743016"
         sodipodi:type="inkscape:offset" />
      <path
         sodipodi:type="inkscape:offset"
         inkscape:radius="-1.3163302"
         inkscape:original="M 748.375 178.25 C 747.12984 182.0232 746.07512 185.14963 745.6875 186.3125 C 745.18768 187.81195 744.81281 189.31958 744.53125 190.8125 C 744.24969 192.30542 744.06298 193.79449 743.96875 195.28125 C 743.78029 198.25477 743.93725 201.20514 744.3125 204.15625 C 744.68774 207.10736 745.27729 210.03707 745.96875 212.96875 C 746.66021 215.90043 747.45855 218.83477 748.21875 221.75 C 748.97895 224.66523 749.69978 227.56699 750.28125 230.46875 C 750.86272 233.37051 751.28225 236.26498 751.4375 239.15625 C 751.5151 240.60189 751.54413 242.05643 751.46875 243.5 C 751.39345 244.94357 751.22797 246.37062 750.96875 247.8125 C 750.70953 249.25438 750.34905 250.71569 749.875 252.15625 C 749.40095 253.59681 748.81356 255.02913 748.09375 256.46875 C 747.51793 257.6204 746.7678 258.65548 745.9375 259.59375 C 745.1072 260.53202 744.19172 261.35848 743.28125 262.125 C 741.4603 263.65804 739.65832 264.90419 738.5625 266 C 738.21297 266.34953 737.21581 266.68227 735.75 267 C 734.28419 267.31773 732.33485 267.63455 730.0625 267.90625 C 725.5178 268.44965 719.69364 268.88241 713.78125 269.15625 C 707.86886 269.43009 701.89586 269.51585 697.09375 269.40625 C 694.69269 269.35145 692.56512 269.26577 690.90625 269.09375 C 689.24738 268.92173 688.04444 268.67847 687.4375 268.375 C 685.61945 267.46598 683.2916 266.56009 680.6875 265.71875 C 678.0834 264.87741 675.21543 264.10478 672.3125 263.4375 C 669.40957 262.77022 666.46456 262.19933 663.75 261.8125 C 661.03544 261.42567 658.53896 261.21875 656.5 261.21875 C 654.20526 261.21875 651.0599 261.07849 647.53125 260.8125 C 644.0026 260.54651 640.08627 260.16592 636.21875 259.65625 C 632.35123 259.14658 628.53011 258.51228 625.21875 257.78125 C 621.90739 257.05022 619.11016 256.21133 617.25 255.28125 C 616.24088 254.77669 613.9001 254.37454 610.84375 254.03125 C 607.7874 253.68796 604.01019 253.40406 600.125 253.09375 C 596.23981 252.78344 592.24562 252.46812 588.75 252.0625 C 585.25438 251.65688 582.26264 251.16046 580.375 250.53125 C 578.8538 250.02418 577.20669 249.82964 575.5 249.78125 C 573.79331 249.73285 572.01781 249.83275 570.25 249.9375 C 569.67825 249.9714 569.13203 249.9713 568.5625 250 C 574.87747 252.74895 582.25027 255.28125 589.3125 255.28125 C 591.88266 255.28125 598.87376 257.09313 601.1875 258.25 C 603.94124 259.62687 608.58158 257.47829 611.3125 258.84375 C 612.53354 259.45427 617.06209 258.65584 617.84375 259.4375 C 618.75637 260.35012 629.2294 262.77095 632.125 264.21875 C 634.35222 265.33236 637.02278 263.69889 639.25 264.8125 C 640.66961 265.52231 642.64562 264.7291 644 265.40625 C 650.24022 268.52636 661.29745 267.20369 666.03125 271.9375 C 667.21717 273.12341 677.95094 272.55359 680.28125 273.71875 C 684.22546 275.69085 689.78947 274.30098 693.375 276.09375 C 694.92287 276.86768 697.25675 276.55025 698.71875 277.28125 C 705.68835 280.76605 713.26613 281.00807 720.125 284.4375 C 723.50784 286.12892 729.26106 283.34928 732.625 285.03125 C 736.1928 286.81515 739.17128 287.41376 742.71875 289.1875 C 747.14355 291.3999 785.62786 290.04544 789.71875 288 C 795.86543 284.92666 812.43815 288.53093 819.4375 285.03125 C 823.54321 282.97839 833.35053 285.80911 837.28125 283.84375 C 840.12506 282.42185 843.80984 283.02172 846.78125 282.03125 C 860.34948 277.50851 874.37449 272.90676 883.0625 264.21875 C 885.73786 261.54339 891.39384 246.97817 886.625 244.59375 C 881.14608 241.85429 874.62394 242.43697 869.375 239.8125 C 866.69302 238.47151 862.60405 239.98953 859.875 238.625 C 856.83546 237.10523 852.69125 239.50187 849.75 238.03125 C 846.94684 236.62967 836.38449 236.54075 834.90625 235.0625 C 833.92298 234.07923 816.46701 227.046 813.5 225.5625 C 809.27657 223.45079 804.28104 222.28103 801 219 C 792.50743 210.50742 775.50741 207.19491 767.09375 198.78125 C 765.37862 197.06611 760.65216 196.4959 758.78125 194.625 C 755.78691 191.63066 754.06358 185.15732 752.25 183.34375 C 750.799 181.89274 749.48135 180.10085 748.375 178.25 z "
         style="fill:#7b8b9a;fill-opacity:1;stroke:#ffffff;stroke-width:1px;stroke-linecap:butt;stroke-linejoin:miter;stroke-opacity:0"
         id="path4222"
         d="m 748.84375,181.03125 c -0.77173,2.3174 -1.63457,4.87245 -1.90625,5.6875 -0.47855,1.43565 -0.85296,2.90133 -1.125,4.34375 -0.27166,1.44042 -0.44045,2.87991 -0.53125,4.3125 -0.18207,2.87262 -0.0235,5.73723 0.34375,8.625 0.36723,2.88811 0.94014,5.75257 1.625,8.65625 0.68454,2.90236 1.48744,5.82573 2.25,8.75 0.76275,2.92501 1.47307,5.87101 2.0625,8.8125 0.59064,2.94751 1.02796,5.90391 1.1875,8.875 0.0792,1.47529 0.10995,2.96162 0.0312,4.46875 -0.0782,1.49869 -0.26253,2.97402 -0.53125,4.46875 -0.26942,1.49861 -0.63026,3.02783 -1.125,4.53125 -0.49399,1.50115 -1.09586,3.00421 -1.84375,4.5 -0.63923,1.27847 -1.4558,2.40284 -2.34375,3.40625 -0.8943,1.0106 -1.87799,1.86949 -2.8125,2.65625 -1.8794,1.58225 -3.68655,2.87406 -4.625,3.8125 -0.46965,0.46965 -0.94198,0.61729 -1.5,0.8125 -0.55802,0.19521 -1.20327,0.36532 -1.96875,0.53125 -1.52489,0.33054 -3.50849,0.66201 -5.8125,0.9375 -4.59453,0.54936 -10.43849,0.97504 -16.375,1.25 -5.94063,0.27515 -11.93859,0.36053 -16.78125,0.25 -2.41462,-0.0551 -4.55213,-0.1332 -6.28125,-0.3125 -1.72057,-0.17842 -2.95996,-0.35498 -3.9375,-0.84375 -1.72893,-0.86446 -4.00306,-1.76684 -6.5625,-2.59375 -2.5594,-0.8269 -5.3788,-1.59001 -8.25,-2.25 -2.87325,-0.66046 -5.80162,-1.21368 -8.46875,-1.59375 -2.66787,-0.38018 -5.1126,-0.59375 -7.0625,-0.59375 -2.34838,0 -5.50997,-0.13846 -9.0625,-0.40625 -3.5497,-0.26758 -7.50877,-0.64263 -11.40625,-1.15625 -3.89643,-0.51348 -7.73075,-1.16382 -11.09375,-1.90625 -3.36598,-0.74309 -6.23215,-1.5692 -8.28125,-2.59375 -0.53108,-0.26554 -2.95163,-0.78612 -5.96875,-1.125 -3.0168,-0.33885 -6.76708,-0.62687 -10.65625,-0.9375 -3.88436,-0.31024 -7.90543,-0.6214 -11.4375,-1.03125 -3.53235,-0.40988 -6.53857,-0.89828 -8.625,-1.59375 -1.34659,-0.44887 -2.86924,-0.64126 -4.5,-0.6875 4.565,1.57558 9.26509,2.875 13.84375,2.875 3.18881,0 9.69808,1.70841 12.46875,3.09375 0.86737,0.43369 2.49889,0.38177 4.34375,0.1875 1.84486,-0.19427 3.90204,-0.53336 5.78125,0.40625 -0.0885,-0.0442 0.33134,0.10426 0.875,0.125 0.54366,0.0207 1.2398,-0.0183 1.9375,-0.0312 0.6977,-0.0129 1.41154,-0.0212 2.0625,0.0312 0.65096,0.0525 1.27598,-0.005 2,0.71875 -0.22811,-0.22811 -0.0137,-0.009 0.3125,0.125 0.32625,0.13447 0.81436,0.31663 1.375,0.5 1.12128,0.36674 2.57851,0.80006 4.125,1.25 3.09297,0.89988 6.3719,1.7797 8.125,2.65625 0.69512,0.34756 1.61931,0.31747 2.84375,0.1875 1.22445,-0.12996 2.74915,-0.3598 4.28125,0.40625 0.31587,0.15794 0.94501,0.2123 1.78125,0.1875 0.83624,-0.0248 1.87865,-0.13877 2.96875,0.40625 2.7754,1.3877 7.00412,1.90398 11.1875,2.5625 4.18338,0.65852 8.4149,1.44614 11.1875,4.21875 -0.22142,-0.22142 -0.0981,-0.0459 0.21875,0.0312 0.31689,0.0771 0.8022,0.15645 1.375,0.21875 1.14561,0.12461 2.6586,0.2056 4.21875,0.28125 1.56015,0.0756 3.1918,0.14758 4.59375,0.28125 1.40195,0.13367 2.5175,0.2275 3.5,0.71875 1.64002,0.82001 3.83154,1.00226 6.15625,1.125 2.32471,0.12274 4.77943,0.17096 6.9375,1.25 0.47285,0.23642 1.29402,0.39166 2.25,0.5 0.95598,0.10834 2.04398,0.16262 3.09375,0.6875 6.65004,3.32502 14.22267,3.56446 21.40625,7.15625 1.16646,0.58323 3.2189,0.46067 5.5,0.1875 2.2811,-0.27317 4.79012,-0.69869 7,0.40625 3.41105,1.70553 6.38863,2.30369 10.09375,4.15625 0.18774,0.0939 1.25938,0.3982 2.6875,0.5625 1.42812,0.1643 3.2812,0.26844 5.40625,0.34375 4.2501,0.15062 9.58536,0.12697 14.90625,-0.0312 5.32089,-0.15822 10.62908,-0.43581 14.84375,-0.8125 2.10733,-0.18834 3.93784,-0.40385 5.34375,-0.625 1.40591,-0.22115 2.45684,-0.54092 2.625,-0.625 3.6807,-1.84035 9.37812,-1.54808 15.15625,-1.46875 5.77813,0.0793 11.59619,-0.0168 14.5625,-1.5 2.6443,-1.32215 6.19678,-0.95559 9.65625,-0.75 3.45947,0.20559 6.83992,0.23629 8.1875,-0.4375 3.38307,-1.69153 7.17707,-1.03819 9.6875,-1.875 13.57228,-4.52409 27.39851,-9.14851 35.75,-17.5 0.41054,-0.41054 1.2952,-1.76121 2.09375,-3.46875 0.79855,-1.70754 1.60304,-3.79194 2.15625,-5.84375 0.55321,-2.05181 0.86667,-4.08364 0.78125,-5.59375 -0.0854,-1.51011 -0.50534,-2.28392 -1.125,-2.59375 -5.0384,-2.5192 -11.54124,-1.92687 -17.25,-4.78125 -0.92395,-0.46197 -2.39354,-0.5101 -4.09375,-0.46875 -1.70021,0.0413 -3.63188,0.16844 -5.40625,-0.71875 -1.05818,-0.52909 -2.5638,-0.41239 -4.34375,-0.1875 -1.77995,0.22489 -3.83361,0.56757 -5.78125,-0.40625 -0.41002,-0.20501 -1.54421,-0.52885 -2.90625,-0.75 -1.36204,-0.22115 -2.97063,-0.40217 -4.5625,-0.59375 -1.59187,-0.19158 -3.1579,-0.37366 -4.46875,-0.625 -0.65543,-0.12567 -1.2544,-0.26021 -1.78125,-0.4375 -0.52685,-0.17729 -1.00919,-0.35294 -1.46875,-0.8125 0.1441,0.1441 0.0511,0.0215 -0.0937,-0.0625 -0.14484,-0.084 -0.35096,-0.17515 -0.625,-0.3125 -0.54807,-0.27471 -1.31715,-0.65613 -2.21875,-1.0625 -1.8032,-0.81274 -4.16788,-1.81171 -6.59375,-2.84375 -4.85173,-2.06408 -9.86841,-4.13733 -11.53125,-4.96875 -4.02599,-2.01299 -9.20094,-3.1697 -12.84375,-6.8125 -3.99626,-3.99626 -10.23101,-6.93385 -16.59375,-9.875 -6.36274,-2.94115 -12.8533,-5.88455 -17.3125,-10.34375 -0.48164,-0.48164 -1.95833,-1.12593 -3.59375,-1.71875 -1.63542,-0.59282 -3.43867,-1.15743 -4.71875,-2.4375 -1.74326,-1.74326 -2.9261,-4.22614 -3.96875,-6.46875 -1.04265,-2.24261 -2.06202,-4.31203 -2.5625,-4.8125 -0.94387,-0.94388 -1.66774,-2.12982 -2.46875,-3.25 z"
         transform="translate(0,308.2677)" />
      <path
         transform="translate(0,308.2677)"
         id="path4220"
         d="m 746.28125,207.53125 c 0.30758,1.7051 0.56318,3.40545 0.96875,5.125 0.68454,2.90236 1.48744,5.82573 2.25,8.75 0.76275,2.92501 1.47307,5.87101 2.0625,8.8125 0.59064,2.94751 1.02796,5.90391 1.1875,8.875 0.0792,1.47529 0.10995,2.96162 0.0312,4.46875 -0.0782,1.49869 -0.26253,2.97402 -0.53125,4.46875 -0.26942,1.49861 -0.63026,3.02783 -1.125,4.53125 -0.49399,1.50115 -1.09586,3.00421 -1.84375,4.5 -0.63923,1.27847 -1.4558,2.40284 -2.34375,3.40625 -0.8943,1.0106 -1.87799,1.86949 -2.8125,2.65625 -1.8794,1.58225 -3.68655,2.87406 -4.625,3.8125 -0.46965,0.46965 -0.94198,0.61729 -1.5,0.8125 -0.55802,0.19521 -1.20327,0.36532 -1.96875,0.53125 -0.59877,0.12979 -1.5494,0.24837 -2.28125,0.375 0.41495,0.10135 0.85601,0.0843 1.25,0.28125 1.98336,0.99168 18.64266,2.8818 21.03125,1.6875 3.2781,-1.63905 7.71086,-0.91792 10.9375,-2.53125 13.62427,-6.81213 25.15075,-9.18201 35.3125,-19.34375 4.3901,-4.3901 -5.76216,-15.06858 -9.25,-16.8125 -10.46714,-5.23357 -36.40031,-15.36907 -43.71875,-22.6875 -0.73749,-0.73749 -1.85536,-1.24533 -3.03125,-1.71875 z"
         style="fill:#8392a0;fill-opacity:1;stroke:#ffffff;stroke-width:1px;stroke-linecap:butt;stroke-linejoin:miter;stroke-opacity:0"
         inkscape:connector-curvature="0" />
    </g>
    <path
       style="fill:#ffffff;stroke:#ffffff;stroke-width:1px;stroke-linecap:butt;stroke-linejoin:miter;stroke-opacity:0"
       d="M 307.28125 313.25 C 305.29053 313.41663 301.43821 315.37429 301.21875 315.59375 C 300.10296 316.70954 295.22374 315.21376 294.15625 316.28125 C 293.46907 316.96843 294.875 318.15317 294.875 319.125 C 294.875 324.0651 296.24146 336.70166 298.40625 341.03125 C 298.43775 341.09424 298.4689 341.1344 298.5 341.1875 C 298.33936 345.46655 300.15081 348.77038 301.9375 352.34375 C 302.90552 354.2798 302.58892 356.58785 303.34375 358.3125 C 295.18219 359.42323 287.1575 360.59251 282.8125 362.15625 C 282.12493 362.06069 278.49883 362.29745 274.34375 364.375 C 271.96135 365.5662 259.25279 366.72433 259.5 367.21875 C 261.00075 370.22025 260.60266 377.50891 263.03125 379.9375 C 263.47635 380.38259 270.66595 377.09375 271.53125 377.09375 C 273.45561 377.09375 286.87925 373.45474 296.96875 370.40625 C 299.19786 370.27231 301.37977 370.09841 303.40625 369.8125 C 303.42407 377.04615 303.34375 389.3628 303.34375 396.1875 C 303.34375 410.07505 293.38011 422.48978 287.78125 433.6875 C 284.98724 439.27551 280.95572 442.40106 278.59375 447.125 C 277.12927 450.05396 274.49309 451.22566 272.9375 452.78125 C 272.53092 453.18782 272.03334 454.33136 271.75 454.8125 C 273.07981 455.23562 280.53286 462.65625 281.4375 462.65625 C 282.48556 462.65625 282.73893 458.54232 283.5625 457.71875 C 286.03905 455.2422 288.40887 450.80727 289.90625 447.8125 C 301.12593 425.37314 312.70896 425.80526 313.21875 392.15625 C 316.82372 396.99209 319.31171 405.09296 323.15625 408.9375 C 324.53253 410.31377 324.45194 414.48319 325.96875 416 C 329.82244 419.85369 333.09333 423.81209 336.59375 427.3125 C 338.68664 429.4054 341.85157 431.16407 343.65625 432.96875 C 345.42911 434.74162 349.96394 433.29447 352.125 434.375 C 355.16015 435.89258 365.40826 440.03125 368.40625 440.03125 C 369.58399 440.03125 372.19694 430.38444 371.9375 430.125 C 370.11795 428.30546 365.19906 429.94328 362.75 428.71875 C 358.47144 426.57947 353.57767 425.91383 349.3125 423.78125 C 335.62682 416.93841 327.08741 400.54982 320.3125 387 C 317.81577 382.00653 316.14966 372.90542 314.28125 366.84375 C 320.38626 365.8843 329.90806 366.28035 335.15625 363.65625 C 336.54406 362.96235 347.81644 359.88293 349.71875 360.03125 C 349.56061 359.85007 349.38704 359.58658 349.3125 359.4375 C 348.0738 356.96011 348.74099 351.8035 347.1875 350.25 C 347.06641 350.12892 338.66936 351.32157 338 351.65625 C 336.20122 352.55564 329.98879 351.88621 328.8125 353.0625 C 327.15853 354.71647 320.26151 355.94084 312.15625 357.09375 C 310.79823 353.1157 312.30582 347.67416 310.40625 343.875 C 309.28167 341.62586 310.67823 332.11573 310.40625 331.84375 C 310.30048 331.73798 310.04737 331.7486 309.6875 331.8125 C 309.62692 325.85056 309.39114 314.54739 308.3125 313.46875 C 308.11815 313.2744 307.74065 313.21155 307.28125 313.25 z M 349.71875 360.03125 C 349.87689 360.21243 350.03125 360.29166 350.03125 360.125 C 350.03125 360.05078 349.8948 360.04498 349.71875 360.03125 z M 271.75 454.8125 C 271.61915 454.77087 271.53125 454.76681 271.53125 454.875 C 271.53125 455.14985 271.61456 455.04249 271.75 454.8125 z "
       transform="translate(0,308.2677)"
       id="path3013" />
    <path
       style="fill:#ffffff;fill-opacity:1;stroke:#ffffff;stroke-width:1px;stroke-linecap:butt;stroke-linejoin:miter;stroke-opacity:0"
       d="m 395.30085,616.65374 c -3.35721,0.50017 -9.49368,2.74248 -10.625,2.96875 0.72936,0.57808 -1.55491,8.45771 -4.46875,18.375 -6.67132,0.0498 -13.45528,2.40441 -18.875,5.65625 1.71914,1.7056 -0.51684,5.54622 -1.0625,8.25 4.3679,-1.07949 10.5545,-1.492 11.65625,-2.59375 0.16399,-0.16399 5.42945,-3.07055 6.375,-2.125 1.51218,1.51217 -1.56528,10.75278 -2.125,11.3125 -0.54021,0.54021 -1.09118,13.98927 -2.15625,22.78125 2.00446,-0.81513 4.41833,-2.08736 5,-2.28125 5.17987,-1.72662 15.13452,-1.57674 20.6875,-4 0.29144,2.51029 0.5,5.04878 0.5,7.5625 0,5.14961 0.54385,9.6919 0.6875,14.1875 -8.41623,3.54074 -18.67121,7.32747 -22.59375,11.25 -0.45667,0.45668 -2.21131,-0.40497 -2.75,-0.0312 -0.0174,0.0121 -0.0478,0.0165 -0.0625,0.0312 -0.26336,0.2474 -0.43381,0.43381 -0.71875,0.71875 -0.27615,0.27615 -0.43534,1.43305 -0.6875,2.71875 1.19817,1.84267 1.20248,5.67937 4.21875,7.1875 0.0762,0.0381 6.85918,-5.55459 8.5,-6.375 2.1533,-1.07665 9.0579,-3.51622 13.96875,-5.4375 -0.21152,6.14989 -0.5625,12.25183 -0.5625,18.15625 0,1.48467 -0.52558,5.49433 -1.40625,6.375 -0.2357,0.23571 -1.02083,0.6875 -0.6875,0.6875 1.3862,0 7.41821,-1.76195 8.46875,-2.8125 1.14759,-1.14758 0,-9.50918 0,-11.3125 0,-4.88592 0.41256,-9.70979 0.875,-14.5 3.30331,-1.56154 8.87794,-1.62794 10.4375,-3.1875 0.11514,-0.11515 3.27382,-1.91931 4.0625,-2.125 -0.83771,-1.08237 -4.20994,-9.0088 -4.75,-8.46875 -2.28269,2.28269 -5.2021,2.20954 -8.84375,3.75 0.19794,-2.67457 0.34375,-5.34282 0.34375,-8 0,-2.88725 -0.58932,-8.0023 -0.84375,-12.84375 2.34068,-0.0437 4.74118,-0.0737 5.78125,-0.59375 1.73707,-0.86853 7.22629,0.55496 8.5,-0.71875 0.47667,-0.47667 1.63652,-1.08099 2.3125,-1.09375 -0.40241,-0.87679 -0.90625,-2.38023 -0.90625,-3.125 0,-2.96662 0.63659,-9.1875 -2.125,-9.1875 -1.84915,0 -6.90975,1.2931 -12.375,2.90625 0.13581,-0.89411 0.20101,-2.00373 0.28125,-3.0625 -0.34815,-0.63188 -0.625,-2.75951 -0.625,-3.40625 0,-0.1084 -0.17025,-0.4773 -0.375,-0.9375 -0.76093,0.20555 -1.60093,0.46973 -2.4375,0.71875 l -0.0312,0 -6.125,2.96875 c -0.71253,2.2594 -0.97895,4.5839 -1,6.96875 -4.12227,1.40006 -7.3173,2.6298 -7.71875,3.03125 -0.3237,0.3237 -5.27917,2.50208 -5.65625,2.125 -0.10282,-0.10282 -0.13015,-0.32465 -0.0937,-0.625 -0.005,-0.003 0.005,-0.0278 0,-0.0312 -3.19213,-2.3556 3.76927,-22.11301 4.34375,-22.6875 3.58396,-3.58396 14.91595,-4.32219 16.96875,-6.375 1.05233,-1.05233 5.39469,-0.31148 8.125,-0.40625 0.0755,-3.38036 -0.0326,-7.75137 -0.34375,-8.0625 -0.53447,-0.53447 -9.65385,1.68758 -18.375,3.78125 -0.008,0.004 -0.0235,-0.004 -0.0312,0 -1.81826,0.94445 -3.38857,1.26768 -4.21875,0.4375 -0.1786,-0.17859 2.18569,-11.73641 3.71875,-18.5 -0.0526,0.007 -0.1022,-0.008 -0.15625,0 z m 29.15625,53.46875 c 0.2834,0.61749 0.5,0.93077 0.5,0.40625 0,-0.29772 -0.20145,-0.41189 -0.5,-0.40625 z m -2.5,27.96875 c 0.11967,0.15462 0.1875,0.17018 0.1875,0 0,-0.0462 -0.0748,-0.0294 -0.1875,0 z"
       id="path3065"
       inkscape:connector-curvature="0" />
    <path
       style="fill:#ffffff;fill-opacity:1;stroke:#ffffff;stroke-width:1px;stroke-linecap:butt;stroke-linejoin:miter;stroke-opacity:0"
       d="m 445.96861,620.97911 c -2.38695,0.3742 -5.46711,2.31372 -7.00764,3.41862 -0.45921,0.32935 -3.69392,22.05607 -4.35568,25.57613 -1.19715,6.36804 -3.51171,11.79067 -7.20511,16.50356 0.0621,0.0517 0.18821,0.14293 0.21118,0.16037 0.43392,0.3295 -0.0493,1.39581 -0.35086,2.50817 0.0631,0.002 0.12703,0.003 0.19,0.006 -0.0804,0.35392 -0.12473,0.70234 -0.0728,1.08234 0.1028,0.75161 2.01464,2.37241 3.93803,3.65634 1.25015,0.0894 2.80332,-0.40046 4.29946,-0.61952 0.86953,-2.32738 2.47536,-4.72127 4.10696,-6.86988 1.61272,-2.12375 1.64107,-5.44953 3.25378,-7.57327 1.46583,-1.93031 0.84968,-13.24295 2.97369,-14.69474 0.70718,-0.48336 2.40527,-0.40174 4.05891,-0.3028 4.34546,-1.18608 11.7398,-3.21671 13.1775,-4.19938 2.0912,-1.42936 7.32739,-5.5093 10.82704,-4.31948 0.98587,0.33518 2.94115,10.15752 2.21408,11.11499 -1.00058,1.31764 -0.94963,4.46137 -1.9976,5.91904 -0.0528,4.37944 -0.60788,8.60445 -1.40449,10.94754 -0.19791,0.58212 -1.46433,2.02333 -1.10532,2.29596 0.48076,0.36507 8.87841,-2.59376 8.9122,-2.63825 0.41029,-0.5403 1.89505,-11.07883 2.70927,-17.78113 0.42546,-0.60262 0.78374,-1.30665 1.01959,-2.00037 0.98022,-2.88314 -0.83105,-23.24965 -5.45435,-19.12479 -3.4089,1.00489 -29.67099,10.22319 -31.90584,12.09124 -4.06186,3.39518 4.89495,-11.51296 2.88052,-15.37591 -0.0609,-0.11683 -0.0752,-0.16 -0.17598,-0.13363 -1.22755,1.50533 -2.26536,0.13826 -3.73658,0.35334 z"
       id="path3130"
       inkscape:connector-curvature="0"
       sodipodi:nodetypes="csscsccsccssscssscscscscsscc" />
    <path
       style="fill:#ffffff;fill-opacity:1;stroke:#ffffff;stroke-width:1px;stroke-linecap:butt;stroke-linejoin:miter;stroke-opacity:0"
       d="m 462.37379,648.81488 0.1875,1.21875 c 0.0712,-0.65181 0.0653,-1.10192 -0.0312,-1.1875 -0.0422,-0.0374 -0.0911,-0.0451 -0.15625,-0.0312 z m -3.21875,2.25 c -1.98652,0.89302 -4.85887,1.80889 -7,1.9375 -2.47561,0.1487 -0.0802,10.20784 0.0312,12.0625 0.53725,8.94415 -14.77312,44.03497 -24,48.90625 1.90272,2.106 4.83576,7.37365 6.71875,5.25 7.41899,-8.36722 21.951,-23.65492 21.125,-37.40625 -0.12959,-2.15731 0.76428,-4.4965 1.3125,-5.90625 0.23785,0.80771 0.79256,1.78543 1.28125,2.21875 1.28991,1.14371 -0.28602,6.41221 1.1875,7.71875 2.56206,2.2717 2.73934,8.44136 5.625,11 4.43181,3.92956 8.57961,6.95662 11.90625,9.90625 0.60158,0.53342 5.01451,3.27049 7.0625,3.8125 0.18804,0.35836 0.38305,0.69555 0.65625,0.96875 1.48925,1.48925 7.32424,-7.23816 6,-9.53125 0.0948,-0.12638 0.162,-0.24814 0.15625,-0.34375 -0.008,-0.13368 -7.23643,-1.33891 -7.90625,-1.625 -6.66706,-2.84753 -9.24853,-10.20973 -13.59375,-14.0625 -0.57179,-0.50702 -0.49353,-3.41859 -0.9375,-4.1875 -4.38414,-7.59277 -6.59336,-15.20248 -7.1875,-25.09375 -0.0251,-0.41769 0.19673,-1.77044 0.4375,-3.21875 -0.91963,-0.8223 -1.94312,-1.62527 -2.875,-2.40625 z"
       id="path3173"
       inkscape:connector-curvature="0" />
    <path
       style="fill:#ffffff;fill-opacity:1;stroke:#ffffff;stroke-width:1px;stroke-linecap:butt;stroke-linejoin:miter;stroke-opacity:0"
       d="M 546.65625 297 C 546.56265 296.9005 537.89245 297.69678 537.4375 298.125 C 535.92069 299.55273 537.52348 303.91601 536.46875 305.875 C 534.90251 308.78406 534.54096 312.51305 533.375 315.6875 C 530.29334 324.07767 521.88951 335.46675 514.1875 340.5625 C 515.61898 341.48138 520.78727 348.1028 521.0625 347.84375 C 524.11887 344.96689 526.51594 342.35018 528.59375 339.6875 C 528.66775 344.09839 528.7943 348.46817 528.65625 353.03125 C 528.50109 358.15943 529.77846 363.55295 529.625 368.625 C 529.41772 375.47586 529.82183 383.49612 529.625 390.84375 C 529.43693 391.54426 529.38007 392.1265 529.53125 392.46875 C 529.4588 393.18123 529.4057 393.92714 529.5625 394.09375 C 529.71971 394.26077 530.08058 394.0344 530.5 393.6875 C 531.3824 394.43364 532.74779 394.65698 533.65625 393.6875 C 536.01455 394.03306 538.25916 391.26617 539.21875 389.65625 C 539.38346 389.57611 539.52945 389.49803 539.59375 389.4375 C 539.59603 389.43536 539.53857 389.19242 539.53125 389.15625 C 539.53048 389.15245 539.53212 389.12915 539.53125 389.125 L 539.5 389.09375 C 539.37231 388.50353 538.52097 385.37773 538.3125 385.15625 C 537.17059 383.94307 537.77725 379.54168 537.84375 377.34375 C 538.18468 366.07582 535.11213 350.88055 535.46875 339.09375 C 535.49305 338.29178 534.9369 334.43636 534.4375 330.84375 C 536.46454 327.33932 538.48588 323.47766 541.03125 318.75 C 543.1124 314.88456 542.18399 310.59177 544.21875 306.8125 C 544.9344 305.48329 548.40552 298.85843 546.65625 297 z "
       transform="translate(0,308.2677)"
       id="path3207" />
    <path
       style="fill:#ffffff;stroke:#ffffff;stroke-width:1px;stroke-linecap:butt;stroke-linejoin:miter;stroke-opacity:0;fill-opacity:1"
       d="M 583.84375 295.375 C 582.37331 295.35625 580.46255 297.55496 579.125 298.625 C 580.59448 297.85006 580.97421 306.82163 582.625 313.46875 C 579.05057 313.99366 575.97255 314.6856 574.15625 315.59375 C 570.19975 317.572 566.23302 318.269 563.375 318.84375 C 566.33835 310.91604 569.21875 302.61824 569.21875 301.4375 C 569.21875 301.3539 569.09153 301.32312 568.84375 301.3125 C 567.10928 301.23817 560.15437 302.75188 560.03125 302.875 C 559.22008 303.68617 556.9565 319.64951 555.09375 323.375 C 552.35157 328.85936 548.61961 329.95729 545.1875 335.375 C 545.82408 336.01159 549.60601 341.55024 550.125 341.03125 L 557.1875 333.96875 C 557.51169 333.64456 558.76588 330.6385 560.3125 326.71875 C 566.33745 324.65849 575.59358 321.23446 577 320.53125 C 578.15918 319.95166 581.07078 319.56341 584.59375 319.28125 C 585.52841 324.09553 581.94986 331.14972 584.0625 335.375 C 584.889 337.028 585.36598 339.83542 585.6875 343.03125 C 576.84058 345.20628 568.25676 347.64949 567.09375 348.8125 C 566.38317 349.52308 552.39346 351.88012 549.4375 353.0625 C 549.73754 354.69485 549.08161 358.39411 550.125 359.4375 C 550.45379 359.76629 554.54445 357.58716 555.09375 357.3125 C 557.59115 356.0638 560.68625 356.985 562.84375 355.90625 C 567.5732 353.54152 574.52752 354.65812 577.71875 353.0625 C 580.36036 351.7417 583.22911 350.99622 586.21875 350.4375 C 586.57769 356.22007 586.94581 361.60206 588.3125 362.96875 C 588.60429 363.26053 587.2164 381.75235 591.15625 377.8125 C 591.88507 377.08368 594.64618 377.13507 595.375 376.40625 C 596.2354 375.54585 595.375 369.25825 595.375 367.90625 C 595.375 365.29005 594.62425 357.63042 593.625 349.25 C 597.64068 348.61646 601.63766 347.8218 605.28125 346 C 607.77712 344.75206 611.97287 346.52919 614.46875 345.28125 C 614.72839 345.15143 617.24799 344.65827 617.3125 344.59375 C 617.63621 344.27004 617.63621 337.1362 617.3125 336.8125 C 615.2193 334.71929 607.86605 338.9375 606 338.9375 C 604.40393 338.9375 598.94699 339.94977 592.625 341.375 C 591.36006 331.88127 589.95507 323.09763 589.03125 321.25 C 588.76094 320.70938 588.69411 319.90909 588.75 319 C 597.35688 318.52523 607.43319 318.41056 608.125 317.71875 C 610.00238 315.84137 605.29486 312.0625 603.875 312.0625 C 600.28881 312.0625 594.90056 312.24144 589.59375 312.6875 C 589.66603 311.48793 589.5662 310.47245 589.03125 309.9375 C 586.26908 307.17533 588.24129 299.2413 584.78125 295.78125 C 584.50174 295.50174 584.18308 295.37933 583.84375 295.375 z "
       transform="translate(0,308.2677)"
       id="path3218" />
  </g>
</svg>
