<?xml version="1.0" encoding="UTF-8" standalone="no"?>
<!-- Created with Inkscape (http://www.inkscape.org/) -->

<svg
   xmlns:dc="http://purl.org/dc/elements/1.1/"
   xmlns:cc="http://creativecommons.org/ns#"
   xmlns:rdf="http://www.w3.org/1999/02/22-rdf-syntax-ns#"
   xmlns:svg="http://www.w3.org/2000/svg"
   xmlns="http://www.w3.org/2000/svg"
   xmlns:sodipodi="http://sodipodi.sourceforge.net/DTD/sodipodi-0.dtd"
   xmlns:inkscape="http://www.inkscape.org/namespaces/inkscape"
   width="744.09448819"
   height="1052.3622047"
   id="svg2"
   version="1.1"
   inkscape:version="0.48.1 r9760"
   sodipodi:docname="1up.svg"
   inkscape:export-filename="/home/substack/media/vector/1up.png"
   inkscape:export-xdpi="146.32642"
   inkscape:export-ydpi="146.32642">
  <defs
     id="defs4" />
  <sodipodi:namedview
     id="base"
     pagecolor="#ffffff"
     bordercolor="#666666"
     borderopacity="1.0"
     inkscape:pageopacity="0.0"
     inkscape:pageshadow="2"
     inkscape:zoom="0.35355339"
     inkscape:cx="362.02188"
     inkscape:cy="464.99357"
     inkscape:document-units="px"
     inkscape:current-layer="layer1"
     showgrid="false"
     inkscape:window-width="1364"
     inkscape:window-height="766"
     inkscape:window-x="0"
     inkscape:window-y="0"
     inkscape:window-maximized="0" />
  <metadata
     id="metadata7">
    <rdf:RDF>
      <cc:Work
         rdf:about="">
        <dc:format>image/svg+xml</dc:format>
        <dc:type
           rdf:resource="http://purl.org/dc/dcmitype/StillImage" />
        <dc:title></dc:title>
      </cc:Work>
    </rdf:RDF>
  </metadata>
  <g
     inkscape:label="Layer 1"
     inkscape:groupmode="layer"
     id="layer1">
    <path
       style="fill:#ffffff;stroke:#000000;stroke-width:2;stroke-linecap:round;stroke-linejoin:round;stroke-opacity:1;stroke-miterlimit:4;stroke-dasharray:none"
       d="m 405.3125,557.625 c -3.36352,-0.0106 -6.55884,0.88271 -8.59375,2.71875 -0.4061,0.0147 -0.7889,0.0312 -1.21875,0.0312 -1.96483,1.28801 -3.61886,4.50296 -4.75,8.28125 -5.32815,-2.93018 -10.18139,1.9503 -5.84375,6.15625 0.33207,2.46805 1.28386,5.94274 1.59375,6.5625 0.60129,1.20259 1.71467,2.10573 3,2.59375 0.0115,0.19821 0.21118,0.28066 0.5,0.3125 0.36467,1.0548 0.8569,1.95065 1.5,2.59375 2.48806,2.48807 5.32964,5.41482 8.5,7 2.77075,1.38538 7.75399,-0.75133 10,-1.5 3.34596,-1.11532 8.54458,-5.08917 10,-8 1.9314,-3.8628 1.13263,-9.59804 -1.09375,-14.40625 2.15371,-7.90331 -6.09798,-12.32007 -13.59375,-12.34375 z"
       id="path4712"
       inkscape:connector-curvature="0" />
    <path
       style="fill:#e3dbdb;stroke:#000000;stroke-width:2;stroke-linecap:round;stroke-linejoin:round;stroke-miterlimit:4;stroke-opacity:1;stroke-dasharray:none"
       d="m 416.03125,579.34375 c -8.04827,1.46122 -16.98218,-0.73032 -24.58636,3.31539 -6.39598,3.64441 -3.23505,12.36191 -3.60328,18.39511 0.47818,11.74503 2.59546,23.63962 0.61863,35.33528 -2.1033,6.28557 -7.24029,10.93796 -10.09789,16.86064 -7.17367,9.0227 -15.61565,17.24276 -25.23735,23.62483 -9.69974,-4.20821 -21.3453,-7.74286 -31.625,-3.5 -5.06217,4.2381 -6.41152,12.00914 -3.35657,17.85141 4.40376,11.76987 9.10259,23.80814 17.09779,33.6532 4.70263,4.5574 11.28884,6.66721 17.55654,8.04905 10.03014,-1.81275 15.93483,-11.4983 19.99514,-20.03837 1.7879,-4.29078 5.07247,3.5977 8.38193,-0.26582 5.81615,0.35589 11.85547,-2.39033 14.24776,-7.93768 5.85278,-4.90808 11.14871,-10.76796 15.18501,-17.32564 2.95414,-7.54853 6.47842,-14.5898 8.2985,-22.40577 2.22611,-8.04914 6.47106,-15.53824 6.96676,-24.06725 1.43265,-14.29795 1.66486,-28.80086 0.30219,-43.11357 -0.9495,-5.53762 -3.19818,-10.99882 -5.18877,-15.67891 -1.84839,-0.55109 -3.04712,-2.55994 -4.95503,-2.7519 z"
       id="path4529"
       inkscape:connector-curvature="0" />
    <path
       style="fill:#483737;fill-opacity:1;stroke:#000000;stroke-width:2;stroke-linecap:round;stroke-linejoin:round;stroke-miterlimit:4;stroke-opacity:1;stroke-dasharray:none"
       d="m 417.3679,799.50996 c 15.19209,-3.02271 -12.96932,0.72938 8.19502,-0.46086 3.63841,-0.20463 24.3014,3.91258 25.95333,2.0637 6.53054,-7.30883 -1.31915,-23.40323 1.60282,-34.14835 1.66918,-6.13677 2.70863,-14.48561 2.32706,-21.27044 -0.0673,-1.19853 2.38422,-5.65291 0.77569,-7.09014 -2.35342,-2.1028 -4.098,-6.9973 -6.38029,-9.03656 -4.46506,-3.98958 -13.07682,23.34612 -13.90257,24.27027 -2.56809,2.87415 -11.08549,4.94022 -13.65358,7.81436 -1.28899,1.44273 -0.72325,4.54267 -2.01224,5.98529 -1.51891,1.69991 -4.07248,1.92066 -2.14394,3.64384"
       id="path4552"
       inkscape:connector-curvature="0" />
    <path
       style="fill:#916f6f;fill-opacity:1;stroke:#000000;stroke-width:2;stroke-linecap:round;stroke-linejoin:round;stroke-miterlimit:4;stroke-opacity:1;stroke-dasharray:none"
       d="m 370.17673,786.4622 c 1.12277,-2.12277 6.57112,6.38519 9.42914,7.68411 7.98631,5.80507 18.13417,7.17335 27.6117,8.91267 4.79749,-0.0159 11.60518,2.2113 14.78578,-2.41281 1.64148,-6.50217 0.0576,-13.46119 -0.002,-20.11471 -2.3198,-7.88141 3.0394,-15.52866 0.69533,-23.05115 -6.07645,-3.8895 -14.99281,1.92209 -21.90908,-2.39171 -9.2834,-6.03453 -11.50895,6.04457 -13.96931,12.18103"
       id="path4537"
       inkscape:connector-curvature="0"
       sodipodi:nodetypes="cccccccc" />
    <path
       style="fill:#483737;fill-opacity:1;stroke:#000000;stroke-width:2;stroke-linecap:round;stroke-linejoin:round;stroke-opacity:1;stroke-miterlimit:4;stroke-dasharray:none"
       d="m 297.5,809.36218 c -1.33333,0.33334 -3.66667,2.33334 -4,1 -0.33333,-1.33333 4.97183,-1.97182 4,-1 -4.68363,4.68363 -14.17406,0.17407 -18,4 -5.48084,5.48084 -6.07957,22.07957 -9,25 -1.46218,1.46218 -13.09085,-1.09084 -14,-2 -3.26728,-3.26728 -5.11358,-51.88641 -1,-56 0.29334,-0.29334 35.51376,2 39,2"
       id="path4593"
       inkscape:connector-curvature="0" />
    <path
       style="fill:#f4cf27;stroke:#000000;stroke-width:2;stroke-linecap:round;stroke-linejoin:round;stroke-opacity:1;fill-opacity:1;stroke-miterlimit:4;stroke-dasharray:none"
       d="m 297.14286,541.6479 c 0.44889,-18.66811 -4.12977,-37.41881 -0.51288,-55.98545 0.56873,-11.91343 -0.82599,-23.98837 1.85652,-35.73435 0.82918,-9.70206 -3.55763,-18.89876 -3.197,-28.62091 -0.21849,-6.29992 0.20428,-12.63017 1.38392,-18.82563 4.91252,-6.8831 14.06249,-3.55988 20.92051,-2.56737 9.66794,1.01562 19.34366,-0.33221 28.87546,-2.06866 13.52817,-1.84072 27.21178,2.70633 40.65221,-0.48576 15.27051,-1.69069 30.66897,-2.6864 46.0297,-1.84078 8.51201,4.67268 9.58457,16.03169 7.81171,24.62462 -1.75389,9.33214 -1.86082,18.86093 0.57772,28.07568 1.58299,8.77528 -2.27183,17.69061 0.58269,26.40244 3.2041,12.18026 0.76435,25.0154 0.85025,37.45932 -1.39659,9.31992 3.17192,18.7913 0.18954,27.80008 -3.27856,8.51912 -13.24686,8.71246 -20.87813,7.93879 -8.88425,-0.72533 -18.14576,-3.0595 -26.83381,0.0903 -10.82501,0.001 -21.55139,-3.75032 -32.3954,-1.45589 -8.46057,1.49926 -17.19963,2.83273 -25.63113,0.44598 -11.90708,-1.52971 -24.00864,1.17565 -35.84921,-0.65442 -2.04828,-0.7896 -3.79554,-2.46807 -4.43267,-4.59795 z"
       id="path3310"
       inkscape:connector-curvature="0" />
    <g
       id="g3288"
       transform="matrix(0.99945831,0.03291046,-0.03291046,0.99945831,77.422268,-187.81317)"
       style="stroke-width:1.99999999000000006;stroke-miterlimit:4;stroke-dasharray:none;stroke-linejoin:round;stroke-linecap:round">
      <path
         id="path3011"
         d="m 349.02233,471.49107 c -9.7252,0.11179 -19.04276,1.9638 -27.59375,6.59375 -8.33334,9.52381 -11.20387,15.48065 -17.15625,20.71875 -3.04352,6.0215 -3.58276,13.84903 -3.5625,20.6875 1.7178,1.71781 2.43237,7.73975 3.5625,10 0.32299,0.64598 0.62533,1.06066 0.9375,1.65625 2.03199,2.32058 3.95474,4.6735 6.34375,7.0625 0.25227,0.25227 0.5741,0.38946 0.9375,0.46875 0.1817,0.0397 0.36784,0.074 0.5625,0.0937 0.005,0.005 0.0261,-0.005 0.0312,0 1.24706,1.25694 2.57419,2.54294 4,3.96875 1.41665,1.41665 3.79134,1.76009 5.0625,3.03125 1.02972,1.02972 8.74044,1.83897 11.125,3.03125 3.53354,1.76677 18.10913,-0.25793 20.6875,1.03125 2.68206,1.34103 18.93639,1.78237 20.71875,0 0.0765,-0.0765 18.01409,-2.88909 19.1875,-4.0625 1.08589,-1.08589 2.723,-1.19176 4.03125,-2.5 l 2.3125,-2.3125 c 0.1396,-0.031 0.30179,-0.0627 0.4375,-0.0937 1.68811,-0.38608 3.0874,-0.77808 3.84375,-1.15625 1.08856,-0.54428 2.05516,-1.20805 2.96875,-2 0.91359,-0.79195 1.7546,-1.68722 2.5625,-2.625 1.49573,-1.7362 2.90298,-3.63658 4.375,-5.375 0.84079,-2.56902 1.3125,-5.74628 1.3125,-10.21875 0,-4.33202 1.95075,-9.66099 0,-13.5625 -4.34541,-8.69081 -15.16857,-25.39371 -27.84375,-28.5625 -11.69203,-2.92301 -23.41526,-5.39898 -34.65625,-5.8125 -1.40512,-0.0517 -2.79819,-0.0785 -4.1875,-0.0625 z"
         style="fill:#ffffff;fill-opacity:1;stroke:#000000;stroke-width:1.99999999000000006;stroke-linecap:round;stroke-linejoin:round;stroke-opacity:1;stroke-miterlimit:4;stroke-dasharray:none"
         inkscape:connector-curvature="0" />
      <path
         inkscape:connector-curvature="0"
         id="path3039"
         d="m 338.60733,502.36218 c -3.40152,3.22992 -2.85714,5.79126 -2.85714,10 0,2.50077 -0.32683,5.06063 0.71428,7.14286 1.17609,2.35218 1.55445,5.84016 3.57143,7.85714 6.9722,6.9722 18.68511,-29.02274 -1.42857,-25 z"
         style="fill:#483737;stroke:#000000;stroke-width:1.99999999000000006;stroke-linecap:round;stroke-linejoin:round;stroke-opacity:1;stroke-miterlimit:4;stroke-dasharray:none" />
      <path
         inkscape:connector-curvature="0"
         id="path3067"
         d="m 373.78065,501.14281 c -8.55304,0.79632 -5.22912,30.82885 2.14285,27.14286 6.83579,-3.41789 8.9632,-20.32252 3.57143,-25.71428 -0.82622,-0.82622 -5.09065,-1.30385 -5.71428,-1.42858 z"
         style="fill:#483737;stroke:#000000;stroke-width:1.99999999000000006;stroke-linecap:round;stroke-linejoin:round;stroke-opacity:1;stroke-miterlimit:4;stroke-dasharray:none" />
      <path
         sodipodi:nodetypes="cssssssssssssscsscccc"
         inkscape:connector-curvature="0"
         id="path3009"
         d="m 342.14287,501.64789 c -18.56032,0.71984 -23.15858,10.71429 -36.42857,10.71429 -1.61811,0 -13.30533,0.2661 -14.28572,-0.71429 -2.91651,-2.91651 -2.776,-5.55201 -5,-10 -1.68182,-3.36364 -3.53442,-6.35456 -5,-9.28571 -3.12232,-6.24465 -0.63824,-35.15208 2.14286,-40.71429 1.13635,-2.27269 2.77387,-4.75018 3.57143,-7.14285 1.39411,-4.18234 4.83809,-14.91905 9.28571,-17.14286 5.03224,-2.51612 8.50051,-8.17883 13.57143,-10.71429 7.2814,-3.64069 16.28808,-3.50118 23.57143,-7.14285 3.8986,-1.9493 9.62841,-3.19984 12.14286,-5.71429 0.57656,-0.57656 33.06261,-2.39726 35,-1.42857 4.87628,2.43814 11.51112,3.6127 17.14285,6.42857 11.89489,5.94744 20.05511,13.62654 29.28572,22.85714 2.52313,2.52313 3.84005,18.84005 4.28571,24.28572 0.89842,3.04127 4.57189,17.7152 4.28572,24.28571 -0.52594,12.07564 -3.48602,24.63708 -7.14287,26.42858 -5.72603,2.80518 -10.06738,5.32344 -15.71428,4.99999 -10.25865,-3.44186 -14.81782,-6.63661 -24.28571,-8.57142 -2.41485,-1.20743 -14.20873,1.50556 -21.42858,-1.42857 -7.98874,-0.1008 -14.80527,0.81019 -24.99999,-10e-6 z"
         style="fill:#7dc418;fill-opacity:1;stroke:#000000;stroke-width:1.99999999000000006;stroke-linecap:round;stroke-linejoin:round;stroke-opacity:1;stroke-miterlimit:4;stroke-dasharray:none" />
      <path
         inkscape:connector-curvature="0"
         id="path3093"
         d="m 354.47435,451.84136 c -2.86895,-0.94163 -10.01077,1.42447 -16.16244,7.57614 -1.53244,1.53244 -3.77119,2.12125 -5.05076,4.04061 -3.10708,4.66061 -5.33372,10.76789 -3.53554,16.16244 1.13282,3.39845 1.53295,6.74617 5.05076,9.09138 8.36306,5.57537 29.10909,6.12269 38.3858,3.03045 11.74171,-3.9139 19.964,-14.50071 12.12183,-26.26396 -1.02125,-1.53187 -2.49078,-4.52262 -4.04061,-5.55584 -9.42062,-6.28042 -15.68159,-8.08122 -26.76904,-8.08122 z"
         style="fill:#ffffff;fill-opacity:1;stroke:#000000;stroke-width:1.99999999000000006;stroke-linecap:round;stroke-linejoin:round;stroke-opacity:1;stroke-miterlimit:4;stroke-dasharray:none" />
      <path
         id="path3095"
         d="m 289.77233,437.52232 c -1.04563,2.62005 -2.1017,5.39883 -2.625,6.96875 -0.39878,1.19633 -1.00513,2.42246 -1.65625,3.625 -0.65112,1.20254 -1.33808,2.3949 -1.90625,3.53125 -0.34764,0.69528 -0.70326,1.7588 -1.03125,3.09375 -0.32799,1.33495 -0.64991,2.95508 -0.9375,4.75 -0.57519,3.58983 -1.05457,7.89864 -1.34375,12.25 -0.28918,4.35136 -0.38149,8.73111 -0.21875,12.40625 0.0814,1.83757 0.24329,3.50732 0.46875,4.90625 0.0806,0.50017 0.21167,0.75899 0.3125,1.1875 3.95987,0.57421 7.65116,0.84884 8.5,0 0.80857,-0.80857 3.59765,-2.05338 5.03125,-2.53125 8.33384,-2.77795 13.70999,-9.17873 18.6875,-14.15625 1.18152,-1.18151 2.00686,-4.53811 3.03125,-5.5625 0.56623,-0.56623 -0.37242,-2.78641 0,-3.53125 0.3961,-0.7922 1.3382,-6.2243 0.5,-7.0625 -1.9841,-1.98409 -1.59257,-6.65507 -3.53125,-8.59375 -6.84863,-6.84863 -15.50337,-12.42836 -23.28125,-11.28125 z"
         style="fill:#ffffff;fill-opacity:1;stroke:#000000;stroke-width:1.99999999000000006;stroke-linecap:round;stroke-linejoin:round;stroke-opacity:1;stroke-miterlimit:4;stroke-dasharray:none"
         inkscape:connector-curvature="0" />
      <path
         id="path3167"
         d="m 344.74108,404.45982 c -0.46574,0.34184 -0.86701,0.6995 -1.4375,1 -0.95168,0.50129 -2.03921,0.97095 -3.15625,1.40625 -2.23408,0.8706 -4.6132,1.65035 -6.5625,2.625 -1.82084,0.91042 -3.76763,1.60033 -5.75,2.15625 -1.98237,0.55592 -4.02637,0.99979 -6.0625,1.4375 -2.03613,0.43771 -4.04912,0.88171 -6.03125,1.4375 -1.98213,0.55579 -3.92965,1.21483 -5.75,2.125 -1.26773,0.63386 -2.41437,1.44826 -3.53125,2.375 -0.84881,0.70431 -1.65677,1.50743 -2.46875,2.28125 0.66923,0.57836 1.27094,1.20321 2,1.75 4.02563,3.01923 9.10616,3.93279 13.625,5.0625 13.10393,3.27599 16.0466,-3.9216 23.25,-11.125 1.3964,-1.3964 1.09525,-5.25301 2,-7.0625 0.77351,-1.54702 0.42266,-3.51245 -0.125,-5.46875 z"
         style="fill:#ffffff;fill-opacity:1;stroke:#000000;stroke-width:1.99999999000000006;stroke-linecap:round;stroke-linejoin:round;stroke-opacity:1;stroke-miterlimit:4;stroke-dasharray:none"
         inkscape:connector-curvature="0" />
      <path
         id="path3170"
         d="m 421.11608,425.80357 c -0.26135,-0.2481 -0.5198,-0.53584 -0.78125,-0.78125 -2.24893,-2.1109 -4.50338,-4.12273 -6.84375,-6.03125 -2.34037,-1.90852 -4.76178,-3.70575 -7.34375,-5.40625 -2.58197,-1.7005 -5.30753,-3.29439 -8.28125,-4.78125 -2.81587,-1.40794 -5.90279,-2.42461 -8.875,-3.375 -2.97221,-0.95039 -5.84311,-1.84343 -8.28125,-3.0625 -0.48435,-0.24217 -2.86048,-0.32473 -6.1875,-0.28125 -1.02099,0.0133 -2.45641,0.0925 -3.625,0.125 -0.0452,1.12411 -0.033,2.28837 -0.25,3.15625 -1.7843,7.13721 -1.35972,18.65602 5.53125,23.25 3.45548,2.30366 8.27913,6.10103 12.125,7.0625 12.32177,3.08044 25.59358,-0.61202 32.8125,-9.875 z"
         style="fill:#ffffff;fill-opacity:1;stroke:#000000;stroke-width:1.99999999000000006;stroke-linecap:round;stroke-linejoin:round;stroke-opacity:1;stroke-miterlimit:4;stroke-dasharray:none"
         inkscape:connector-curvature="0" />
      <path
         id="path3153"
         d="m 434.89733,489.17857 c 0.40861,-2.90376 0.68102,-5.94984 0.8125,-8.96875 0.0715,-1.64263 -0.0881,-3.77782 -0.40625,-6.125 -0.31818,-2.34718 -0.7838,-4.90877 -1.28125,-7.34375 -0.9949,-4.86996 -2.14454,-9.29187 -2.59375,-10.8125 -0.15067,-1.84114 -0.5747,-5.56427 -0.9375,-8.9375 -13.30371,4.29424 -26.54703,14.87437 -23.5,27.0625 0.76617,3.0647 1.035,6.07542 4.0625,8.09375 5.4606,3.6404 15.0591,6.14621 23.84375,7.03125 z"
         style="fill:#ffffff;fill-opacity:1;stroke:#000000;stroke-width:1.99999999000000006;stroke-linecap:round;stroke-linejoin:round;stroke-opacity:1;stroke-miterlimit:4;stroke-dasharray:none"
         inkscape:connector-curvature="0" />
    </g>
    <path
       style="fill:#ffffff;fill-opacity:1;stroke:#000000;stroke-width:2;stroke-linecap:round;stroke-linejoin:round;stroke-opacity:1;stroke-miterlimit:4;stroke-dasharray:none"
       d="m 365,475.93361 c -0.62465,1.37393 -1.24558,2.73251 -1.80738,4.96039 -0.83765,3.32179 10.15065,17.41063 13.95024,13.61104 1.19048,-1.19047 3.09524,-1.66666 4.28571,-2.85714 2.38348,-2.38348 -0.24061,-7.61653 2.14286,-10 2.66576,-2.66575 9.13385,-4.13385 11.42857,-6.42857 1.46383,-1.46383 3.33679,-4.05107 4.28572,-5 8.81644,-8.81645 1.32399,-29.3903 -5,-35.71429 -3.0349,-3.0349 -8.11455,-3.70013 -12.14286,-5.71428 -8.06374,-4.03187 -21.77522,0 -30,0 -6.38742,0 -10.2987,11.72727 -13.57143,15 -0.33019,0.33018 0.21564,1.71159 0,2.14285 -2.92198,5.84397 -4.2043,22.85715 4.28572,22.85715 0.43588,0 2.57883,0.27831 2.85714,0 0.97541,-0.97541 4.02459,-1.16745 5,-2.14286 1.47387,-1.47387 2.55905,-5.41619 4.28571,-7.14286 2.53991,-2.5399 -1.39224,-11.50122 0,-14.28571 1.68632,-3.37264 4.8614,-5.57568 7.14286,-7.85715 0.67526,-0.67525 3.68817,-0.11673 4.28571,-0.71428 4.7326,-4.7326 13.64005,4.35433 15,5.71428 1.19048,1.19048 0.95239,3.80953 2.14286,5 0.91119,0.9112 0.71429,2.41192 0.71429,4.28572 0,11.60509 -13.99236,18.05598 -19.28572,24.28571 z"
       id="path3406"
       inkscape:connector-curvature="0"
       sodipodi:nodetypes="csssssssssccssssssssssc" />
    <path
       style="fill:#ffffff;fill-opacity:1;stroke:#000000;stroke-width:2;stroke-linecap:round;stroke-linejoin:round;stroke-opacity:1;stroke-miterlimit:4;stroke-dasharray:none"
       d="m 372.1503,502.44512 c -3.24574,0.5177 -8.11325,3.73717 -8.74846,8.16045 -0.69146,4.81493 2.90649,13.32267 9.36865,11.54369 15.86902,-4.3686 7.0657,-19.97862 -0.62019,-19.70414 z"
       id="path3408"
       inkscape:connector-curvature="0"
       sodipodi:nodetypes="cssc" />
    <path
       style="fill:#ffffff;fill-opacity:1;stroke:#000000;stroke-width:2;stroke-linecap:round;stroke-linejoin:round;stroke-opacity:1;stroke-miterlimit:4;stroke-dasharray:none"
       d="m 307.85714,530.21932 c -2.26322,0.0369 -4.06501,0.98717 -5,2.85715 -2.12313,4.24627 1.88198,11.38044 7.5,8.57143 0.37468,-0.18734 1.51423,-0.0857 1.78572,-0.35715 4.75015,-4.75015 3.2717,-12.58291 -4.28572,-11.07143 z"
       id="path4440"
       inkscape:connector-curvature="0" />
    <path
       style="fill:#ffffff;fill-opacity:1;stroke:#000000;stroke-width:2;stroke-linecap:round;stroke-linejoin:round;stroke-opacity:1;stroke-miterlimit:4;stroke-dasharray:none"
       d="m 430,529.86218 c -3.23071,-0.9938 -4.46116,1.24063 -5.35714,3.92857 -1.52047,4.56141 3.02361,10.53975 7.85714,8.92857 1.25383,-0.41794 2.38769,-1.19384 3.57143,-1.78571 3.68522,-1.84261 0.8368,-12.45308 -6.07143,-11.07143 z"
       id="path4455"
       inkscape:connector-curvature="0" />
    <path
       style="fill:#ffffff;stroke:#000000;stroke-width:2;stroke-linecap:round;stroke-linejoin:round;stroke-opacity:1;fill-opacity:1;stroke-miterlimit:4;stroke-dasharray:none"
       d="m 427.85714,400.57647 c -2.39478,-0.57454 -7.35434,1.70587 -8.21428,4.28571 -2.64042,7.92127 9.64158,10.3597 12.5,4.64286 1.93782,-3.87565 0.36982,-10.79079 -4.28572,-8.92857 z"
       id="path4457"
       inkscape:connector-curvature="0" />
    <path
       style="fill:#ffffff;stroke:#000000;stroke-width:2;stroke-linecap:round;stroke-linejoin:round;stroke-opacity:1;fill-opacity:1;stroke-miterlimit:4;stroke-dasharray:none"
       d="m 304.64286,403.07647 c -0.81663,-1.33187 -1.36246,1.39551 -3.57143,2.5 -0.67536,0.33768 -0.45544,1.26802 -0.71429,1.78571 -2.39035,4.7807 4.72941,9.95673 8.92857,7.85714 6.9817,-3.49084 3.80691,-13.83281 -4.64285,-12.14285 z"
       id="path4459"
       inkscape:connector-curvature="0" />
    <path
       style="fill:#916f6f;stroke:#000000;stroke-width:2;stroke-linecap:round;stroke-linejoin:round;stroke-miterlimit:4;stroke-opacity:1;stroke-dasharray:none"
       d="M 319.03125 666.59375 C 316.67714 666.60626 314.00928 666.86825 310.96875 667.375 C 310.16696 667.50863 310.48175 667.45696 309.84375 667.5625 C 309.57765 667.64758 308.46151 667.87816 305.09375 668.53125 C 298.81255 672.29998 296.70322 675.76563 293.375 679.09375 C 292.18667 680.28208 293.375 688.9453 293.375 690.8125 C 293.375 697.66705 289.41125 743.13 293.375 747.09375 C 296.31825 750.03698 299.06259 758.65635 302.75 762.34375 C 303.84405 763.4378 309.78125 768.03125 309.78125 770.5625 C 309.78125 777.62601 282.68332 776.56667 281.65625 777.59375 C 278.6631 780.587 282.69189 797.29013 285.15625 802.21875 C 287.15225 806.21064 280.92832 816.74093 282.8125 818.625 C 285.08053 820.89514 295.89646 819.29198 299.25 820.96875 C 308.78804 825.73782 324.81356 816.49892 329.71875 811.59375 C 329.99977 811.31273 330.25397 810.97592 330.46875 810.625 C 332.78814 809.34168 334.34497 807.53003 336.5 805.375 C 337.89861 803.97639 339.42933 801.63522 340.5 799 C 346.61255 799.75441 368.14714 802.47794 370.75 799.875 C 376.10751 794.5175 381.34858 792.80776 387.1875 786.96875 C 391.07668 783.07957 389.68042 776.25708 393.03125 772.90625 C 394.5947 771.34289 391.46779 765.06345 393.03125 763.5 C 397.72049 758.81076 386.80774 702.18274 383.65625 699.03125 C 380.0865 695.46148 372.77038 681.9471 370.75 677.90625 C 368.36847 673.14328 352.99317 662.85059 347.3125 668.53125 C 346.00391 669.83984 355.08183 678.64433 356.6875 680.25 C 359.51002 683.0725 370.01332 710.75 364.90625 710.75 C 362.98306 710.75 354.15003 714.05627 352 711.90625 C 349.58358 709.48983 349.04781 701.92291 347.3125 700.1875 C 334.98766 687.86266 341.78768 666.47286 319.03125 666.59375 z M 309.84375 667.5625 C 310.80344 667.25568 298.42643 669.45119 309.84375 667.5625 z "
       id="path4535" />
    <path
       style="fill:#e3dbdb;stroke:#000000;stroke-width:2;stroke-linecap:round;stroke-linejoin:round;stroke-opacity:1;fill-opacity:1;stroke-miterlimit:4;stroke-dasharray:none"
       d="m 291,673.86218 c -1.73183,-1.19353 16.02066,-10.97934 21.5,-5.5 9.7528,9.7528 14.92565,51.57436 4.5,62 -1.43281,1.43281 -3.41807,1 -5,1 -0.79621,0 -4.49328,0.50672 -5,0 -0.61788,-0.61788 -2.71344,-1.21344 -3.5,-2 -2.05969,-2.05969 -3.88215,-5.38215 -6.5,-8 -1.54599,-1.54599 -1.28232,-5.78232 -2.5,-7 -1.10451,-1.10451 -1.63445,-2.73111 -1,-4"
       id="path4830"
       inkscape:connector-curvature="0" />
    <path
       style="fill:#ffffff;stroke:#000000;stroke-width:2;stroke-linecap:round;stroke-linejoin:round;stroke-opacity:1;stroke-miterlimit:4;stroke-dasharray:none"
       d="m 322.9375,600 c -5.80468,0.0579 -11.02597,0.40109 -14.03125,1.15625 -1.32522,0.333 -2.62916,0.71287 -3.90625,1.09375 0.64746,0.69781 1.1481,1.42119 1.5,2.125 1.90941,3.81883 -6.27584,3.77584 -7.5,5 -5.35235,5.35236 -7.89619,4.29238 -12.5,13.5 -1.23853,2.47706 0.53557,9.53557 1.5,10.5 0.95676,0.95676 3.25227,12.25227 5,14 3.51363,3.51364 5.99986,7.99986 9.5,11.5 0.83731,0.83731 1.10037,3.10037 2,4 2.39466,2.39466 4.0667,3.21056 5.78125,5.375 9.35128,5.80077 23.13717,10.14701 32.75,12.5625 0.76713,0.19276 1.36985,1.02115 2.15625,1.21875 4.89755,1.23065 18.21764,2.56024 22.9375,0.78125 11.03074,-4.15766 18.125,-25.70961 18.125,-34.96875 0,-0.99302 0.58358,-3.1514 0,-4.03125 -0.50653,-0.76366 -0.3846,-3.11398 -1.0625,-3.625 -1.81851,-1.37085 -2.41297,-3.6563 -3.71875,-5.625 -0.34435,-0.51914 1.59375,-6.76698 1.59375,-8.4375 0,-4.05868 -8.88134,-17.38446 -14.9375,-18.90625 -6.318,-1.58756 -12.42408,-4.37573 -19.21875,-5.65625 -5.05553,-0.95275 -16.29429,-1.65895 -25.96875,-1.5625 z"
       id="path4636"
       inkscape:connector-curvature="0" />
    <path
       style="fill:#3e3e3e;fill-opacity:1;stroke:#000000;stroke-width:2;stroke-linecap:round;stroke-linejoin:round;stroke-opacity:1;stroke-miterlimit:4;stroke-dasharray:none"
       d="m 379.1875,624.9375 c -4.63069,-0.16127 -11.89682,4.9375 -15.1875,4.9375 -0.83887,0 -1.95063,1.02469 -3,0.5 -2.51995,-1.25997 -10.77387,-2.73806 -14,-2 -3.38529,0.77447 -7.98007,2.5 -11.5,2.5 -11.46499,0 -23.96032,-2.70797 -35,0.5 4.54031,4.54031 31.72454,5.22454 33,6.5 0.5,0.5 1.5,0.5 2,1 0.89042,0.89042 0.39848,2.89849 1.5,4 2.64505,2.64505 11.23189,2.5 16,2.5 1.77877,0 5.57516,-0.0752 6.5,-1 3.51767,-3.51767 1.5323,-14.4677 9,-7 0.73252,0.73252 1.98816,3.48817 3,4.5 1.80036,1.80036 12.56772,3.93228 15,1.5 1.33878,-1.33877 1.06926,-3.13851 2,-5 4.35051,-8.70103 -2.28668,-10.39334 -7.5,-13 -0.53426,-0.26713 -1.15097,-0.41446 -1.8125,-0.4375 z m 0.1875,2.78125 c 1.00269,-0.0273 2.0104,0.13205 3.0625,0.59375 1.75414,0.6796 5.02032,2.98432 5.6875,4.59375 1.08178,1.78222 -0.28139,4.82977 -0.96875,6.78125 -1.89374,2.04323 -3.06035,2.27939 -5.8125,2 -2.44838,0.0994 -5.67582,-1.53505 -8.0625,-1.46875 -1.86831,-2.35765 -1.54405,-1.87682 -2.78125,-4.59375 -0.1831,-1.58989 -0.35993,-3.9305 0.21875,-4.25 2.82892,-1.64947 5.64819,-3.57438 8.65625,-3.65625 z M 350,630.125 c 2.83333,0 4.41667,0.25 6,0.75 1.57865,0.49852 6.52257,3.97744 4,6.5 -1.07519,1.07519 -1.81303,2.81303 -3.5,4.5 -0.41667,0.41667 -3.33333,0.58334 -5.5,0.75 -3.71323,0.28562 -10.84341,0.65659 -11.25,-2.5 -1.05895,-2.52373 0.18637,-5.36352 1.25,-7.25 1.26938,-0.94234 5.77967,-2.75 9,-2.75 z"
       id="path4638"
       inkscape:connector-curvature="0" />
    <path
       style="fill:#ffffff;stroke:#000000;stroke-width:2;stroke-linecap:round;stroke-linejoin:round;stroke-opacity:1;stroke-miterlimit:4;stroke-dasharray:none"
       d="m 308.43951,629.26796 c -2.85489,-1.74694 -3.4818,-1.43589 -6.5233,-2.60996 -3.23199,-0.62104 -6.07947,2.67567 -6.04431,5.74915 0.0923,4.88192 2.70849,9.29086 5.41531,13.19771 1.05093,1.51312 2.3366,3.66219 4.50893,3.27368 2.23404,-0.33989 2.50543,2.43477 2.31072,4.02239 0.0154,1.75089 -0.41171,4.87615 1.96539,5.1795 2.10714,-0.16696 3.90458,-1.53187 5.6265,-2.64172 1.97933,-1.08516 2.4741,-3.95574 0.28612,-5.10038 -2.36151,-1.87016 -5.60188,-2.28789 -7.81548,-4.33422 -1.81676,-1.98947 -3.29797,-4.26985 -5.12791,-6.24082 -1.47899,-2.85406 0.23794,-6.12272 1.93565,-8.47396 0.94378,-1.80253 3.24993,0.32097 3.46238,-2.02137 z"
       id="path4649"
       inkscape:connector-curvature="0"
       sodipodi:nodetypes="ccccccccccccc" />
    <path
       style="fill:#483737;fill-opacity:1;stroke:#000000;stroke-width:2;stroke-linecap:round;stroke-linejoin:round;stroke-miterlimit:4;stroke-opacity:1;stroke-dasharray:none"
       d="m 332.90625,569.90625 c -0.37809,0.0396 -0.72264,0.16327 -0.96875,0.40625 -2.16613,2.13851 -28.60939,8.4293 -34.09375,13.84375 -4.58678,4.5284 -7.90265,17.15649 -10.65625,19.875 -2.35759,2.32753 -6.37464,1.61729 -8.25,3.46875 -0.95954,0.9473 -13.61788,8.5921 -12.9375,9.28125 0.64544,0.65378 1.63858,1.07528 2.78125,1.34375 -0.30638,0.42525 -0.76605,1.26521 -0.28125,1.75 1.21982,1.21983 2.77749,2.88875 5,4 3.62111,1.81056 18.74509,2.12746 23,0 1.50247,-0.75123 4.28375,0.0721 6,-0.5 4.48001,-1.49333 9.79689,0.60156 14,-1.5 1.33333,-0.66666 3.66667,0.66667 5,0 4.43939,-2.21969 10.95899,-0.22949 15.5,-2.5 3.07573,-1.53786 10.98488,0 14.5,0 15.41703,0 41.44679,3.05322 50,-5.5 0.19482,-0.19482 0,-1.69488 0,-2 0,-0.0107 7e-5,-0.0206 0,-0.0312 0.63652,-0.31997 1.21257,-0.71904 1.71875,-1.21875 3.05184,-3.01295 -24.68217,-9.66879 -25.71875,-10.71875 -7.83408,-7.93523 -13.90683,-17.61322 -22.125,-25.9375 -4.38653,-4.44308 -12.08437,0.34527 -17.5625,-2.4375 -0.70577,-0.35895 -3.26787,-1.79644 -4.90625,-1.625 z"
       id="path4525"
       inkscape:connector-curvature="0" />
    <path
       style="fill:#ffffff;stroke:#000000;stroke-width:2;stroke-linecap:round;stroke-linejoin:round;stroke-opacity:1;stroke-miterlimit:4;stroke-dasharray:none"
       d="M 277.4375 718.875 C 275.30791 718.95347 273.16126 719.57825 271 720.875 C 270.68268 721.19232 270.26197 721.32455 269.8125 721.4375 C 269.57995 721.54766 269.37014 721.58762 269.21875 721.5625 C 268.96478 721.63325 268.71924 721.74345 268.5 721.875 C 267.20172 722.65397 262.19672 738.57172 264 740.375 C 264.74951 741.12451 265.06976 743.44476 266 744.375 C 268.04818 746.42318 270.7788 749.5144 273.5 750.875 C 276.96751 752.60876 282.78747 756.48127 287 754.375 C 287.41629 754.16686 288.68284 754.69216 289 754.375 C 290.69879 752.67622 294.94477 752.48546 296.5 749.375 C 297.17215 748.0307 297.76078 746.67694 298.375 745.3125 C 299.09826 746.47017 299.92461 747.375 301 747.375 C 301.3915 747.375 303.25051 747.62449 303.5 747.375 C 305.63569 745.23931 304.50411 731.37911 302.5 729.375 C 301.22352 728.09852 299.78495 727.97795 298.15625 727.59375 C 297.7652 726.82168 297.36054 726.23554 297 725.875 C 294.91995 723.79496 290.39702 722.32351 287.5 720.875 C 286.96667 720.60834 286.03333 721.14167 285.5 720.875 C 282.88045 719.56522 280.17554 718.77412 277.4375 718.875 z M 269.21875 721.5625 C 269.41054 721.50907 269.61911 721.4861 269.8125 721.4375 C 270.20833 721.25 270.66666 720.95834 271 720.875 C 271.48591 720.38909 268.83333 720.70834 269 721.375 C 269.03438 721.5125 269.11246 721.54486 269.21875 721.5625 z "
       id="path4699" />
    <path
       style="fill:#e3dbdb;stroke:#000000;stroke-width:2;stroke-linecap:round;stroke-linejoin:round;stroke-opacity:1;stroke-miterlimit:4;stroke-dasharray:none"
       d="m 293.82222,671.49846 c -10.82674,1.82021 -13.66113,8.68023 -17.69635,14.22082 -3.82704,5.25474 -6.64333,12.95161 -7.11061,17.10086 -0.2895,2.57058 -3.86559,10.63529 -2.34922,12.53653 0.90957,1.14045 0.20458,5.62767 0.85936,7.4131 0.99649,2.71723 5.49755,5.75892 7.16636,7.85132 1.63947,2.05562 8.2572,3.94888 11.09203,4.26813 2.7535,0.3101 8.22664,0.57821 10.161,-0.86832 7.89296,-5.90243 2.62321,-10.8683 6.17495,-16.33947 1.71575,-2.64296 2.76416,-10.71783 3.3578,-19.22732"
       id="path4675"
       inkscape:connector-curvature="0"
       sodipodi:nodetypes="cssssssssc" />
    <path
       style="fill:none;stroke:#000000;stroke-width:2;stroke-linecap:round;stroke-linejoin:round;stroke-opacity:1;stroke-miterlimit:4;stroke-dasharray:none"
       d="m 360.93817,651.07908 c -0.4714,0.11785 -1.29636,0.82496 -1.41421,0.35355 -0.11785,-0.4714 1.7578,-0.69714 1.41421,-0.35355 -0.39704,0.39704 -4.31506,2.0489 -2.47487,3.88909 1.69641,1.69641 5.3857,0.0824 6.36396,1.06066 2.30393,2.30393 8.31764,3.70317 10.96015,1.06066 0.34872,-0.34872 0.44945,-1.15656 0.70711,-1.41421 1.23329,-1.2333 -2.85773,-7.12968 -3.18198,-7.77818 -1.34693,-2.69387 -3.44701,-5.56833 -5.65686,-7.77817"
       id="path4781"
       inkscape:connector-curvature="0" />
    <path
       style="fill:#483737;fill-opacity:1;stroke:#000000;stroke-width:2;stroke-linecap:round;stroke-linejoin:round;stroke-opacity:1;stroke-miterlimit:4;stroke-dasharray:none"
       d="m 348.91735,633.40141 c -1.72734,0.40717 -2.99969,0.17127 -4.24264,1.41422 -4.27018,4.27018 4.39123,6.64322 7.77818,4.94975 5.41607,-2.70804 1.12041,-7.29515 -3.53554,-6.36397 z"
       id="path4783"
       inkscape:connector-curvature="0" />
    <path
       style="fill:#483737;fill-opacity:1;stroke:#000000;stroke-width:2;stroke-linecap:round;stroke-linejoin:round;stroke-opacity:1;stroke-miterlimit:4;stroke-dasharray:none"
       d="m 377.20163,631.9872 c -1.1262,-0.0435 -2.24022,-0.23466 -4.24264,1.76777 -1.88777,1.88777 2.79366,7.08845 6.36396,5.3033 4.30138,-2.15069 3.40486,-9.28154 -2.12132,-7.07107 z"
       id="path4785"
       inkscape:connector-curvature="0" />
    <path
       style="fill:#e3dbdb;stroke:#000000;stroke-width:2;stroke-linecap:round;stroke-linejoin:round;stroke-opacity:1;fill-opacity:1;stroke-miterlimit:4;stroke-dasharray:none"
       d="m 336.93638,705.87986 c -1.10057,0.3911 -2.23091,0.46314 -4.24264,2.47487 -1.3034,1.3034 -2.46564,6.37319 -0.70711,8.13173 1.06007,1.06007 2.85807,2.13614 4.24264,2.82843 1.48233,0.74116 4.99963,-1.26238 6.01041,-1.76777 4.69748,-2.34874 2.47971,-13.22386 -5.3033,-11.66726 z"
       id="path4848"
       inkscape:connector-curvature="0" />
    <path
       style="fill:#e3dbdb;stroke:#000000;stroke-width:2;stroke-linecap:round;stroke-linejoin:round;stroke-opacity:1;fill-opacity:1;stroke-miterlimit:4;stroke-dasharray:none"
       d="m 377.59502,701.99077 c -1.86435,-0.14503 -4.17907,0.57997 -4.94975,2.12132 -0.61445,1.22891 -1.53603,3.30381 -2.12132,3.88909 -0.98567,0.98567 2.9711,11.0656 10.96016,7.07107 2.90681,-1.45341 4.48316,-13.08148 -3.88909,-13.08148 z"
       id="path4850"
       inkscape:connector-curvature="0" />
    <path
       style="fill:none;stroke:#000000;stroke-width:2;stroke-linecap:round;stroke-linejoin:round;stroke-opacity:1;stroke-miterlimit:4;stroke-dasharray:none"
       d="m 346.48232,666.98899 c 5.698,2.54341 31.97935,1.60823 35.35534,-1.76777"
       id="path4865"
       inkscape:connector-curvature="0" />
    <path
       style="fill:#ef5710;fill-opacity:1;stroke:#000000;stroke-width:2;stroke-linecap:butt;stroke-linejoin:miter;stroke-miterlimit:4;stroke-opacity:1;stroke-dasharray:none"
       d="m 540.72953,392.21108 c -11.51937,7.41245 -20.4995,19.31835 -28.91075,31.17962 -6.83332,9.63612 -18.43702,17.33513 -23.79753,27.3254 -2.81141,5.23957 -11.26464,9.01858 -11.39897,13.67711 -0.0125,0.43316 -1.29047,1.96362 -1.05724,1.97035 0.25515,0.007 0.52398,0.0171 0.78093,0.0225 -0.33719,0.77836 -0.33503,1.47997 0.16101,2.00547 4.2116,4.46172 18.02848,1.5203 24.96079,1.7202 3.09374,0.0892 12.88464,2.34523 19.36997,2.62192 0.17893,3.70937 0.3492,7.40495 0.247,10.94917 -0.13537,4.69439 2.61197,29.18326 1.07678,32.04435 -2.45921,4.58318 -3.45453,15.71918 -3.60407,20.9048 -0.0771,2.67291 -0.56838,6.60871 0.76899,8.0255 0.25697,0.27223 2.58716,0.0746 2.99875,0.0865 l 25.9892,0.74943 c 3.34285,0.0964 19.68664,2.8092 21.99086,0.63414 3.50433,-3.30789 -4.06842,-50.52692 -7.15641,-75.98785 10.78583,0.0975 20.4961,0.34093 23.34126,0.42298 6.07548,0.17519 20.0493,1.63888 23.4109,-3.07647 0.40688,0.16045 0.68303,0.16504 0.69442,-0.23008 0.002,-0.0843 -0.13087,-0.24703 -0.29976,-0.44633 0.20941,-0.46848 0.3408,-0.97672 0.35741,-1.55284 0.0129,-0.447 -2.16234,-1.53655 -5.10878,-2.80468 -2.54097,-2.19893 -5.18661,-4.49836 -5.65605,-5.50907 -3.69553,-7.9565 -17.35257,-9.75745 -20.53008,-16.59866 -1.31001,-2.82046 -4.82846,-5.11519 -6.79532,-7.19887 -4.97079,-5.26598 -6.85787,-12.41573 -10.53424,-16.31042 -6.52079,-6.90802 -13.73669,-14.59149 -21.29907,-24.62417 z"
       id="path4900"
       inkscape:connector-curvature="0" />
    <path
       inkscape:connector-curvature="0"
       id="path4908"
       d="m 546.75583,711.42202 c 11.51937,-7.41245 20.4995,-19.31835 28.91075,-31.17962 6.83332,-9.63612 18.43702,-17.33513 23.79753,-27.3254 2.81141,-5.23957 11.26464,-9.01858 11.39897,-13.67711 0.0125,-0.43316 1.29047,-1.96362 1.05724,-1.97035 -0.25515,-0.007 -0.52398,-0.0171 -0.78093,-0.0225 0.33719,-0.77836 0.33503,-1.47997 -0.16101,-2.00547 -4.2116,-4.46172 -18.02848,-1.5203 -24.96079,-1.7202 -3.09374,-0.0892 -12.88464,-2.34523 -19.36997,-2.62192 -0.17893,-3.70937 -0.3492,-7.40495 -0.247,-10.94917 0.13537,-4.69439 -2.61197,-29.18326 -1.07678,-32.04435 2.45921,-4.58318 3.45453,-15.71918 3.60407,-20.9048 0.0771,-2.67291 0.56838,-6.60871 -0.76899,-8.0255 -0.25697,-0.27223 -2.58716,-0.0746 -2.99875,-0.0865 l -25.9892,-0.74943 c -3.34285,-0.0964 -19.68664,-2.8092 -21.99086,-0.63414 -3.50433,3.30789 4.06842,50.52692 7.15641,75.98785 -10.78583,-0.0975 -20.4961,-0.34093 -23.34126,-0.42298 -6.07548,-0.17519 -20.0493,-1.63888 -23.4109,3.07647 -0.40688,-0.16045 -0.68303,-0.16504 -0.69442,0.23008 -0.002,0.0843 0.13087,0.24703 0.29976,0.44633 -0.20941,0.46848 -0.3408,0.97672 -0.35741,1.55284 -0.0129,0.447 2.16234,1.53655 5.10878,2.80468 2.54097,2.19893 5.18661,4.49836 5.65605,5.50907 3.69553,7.9565 17.35257,9.75745 20.53008,16.59866 1.31001,2.82046 4.82846,5.11519 6.79532,7.19887 4.97079,5.26598 6.85787,12.41573 10.53424,16.31042 6.52079,6.90802 13.73669,14.59149 21.29907,24.62417 z"
       style="fill:#e3dbdb;fill-opacity:1;stroke:#000000;stroke-width:2;stroke-linecap:butt;stroke-linejoin:miter;stroke-miterlimit:4;stroke-opacity:1;stroke-dasharray:none" />
  </g>
</svg>
