<?xml version="1.0" encoding="UTF-8" standalone="no"?>
<!-- Created with Inkscape (http://www.inkscape.org/) -->

<svg
   xmlns:dc="http://purl.org/dc/elements/1.1/"
   xmlns:cc="http://creativecommons.org/ns#"
   xmlns:rdf="http://www.w3.org/1999/02/22-rdf-syntax-ns#"
   xmlns:svg="http://www.w3.org/2000/svg"
   xmlns="http://www.w3.org/2000/svg"
   xmlns:sodipodi="http://sodipodi.sourceforge.net/DTD/sodipodi-0.dtd"
   xmlns:inkscape="http://www.inkscape.org/namespaces/inkscape"
   width="1052.3622"
   height="744.09448"
   id="svg2"
   version="1.1"
   inkscape:version="0.48.3.1 r9886"
   sodipodi:docname="a_pipe_b_pipe_a.svg"
   inkscape:export-filename="/home/substack/projects/talks/lxjs_2012/images/a_pipe_b_pipe_a.png"
   inkscape:export-xdpi="100"
   inkscape:export-ydpi="100">
  <defs
     id="defs4" />
  <sodipodi:namedview
     id="base"
     pagecolor="#22112f"
     bordercolor="#666666"
     borderopacity="1.0"
     inkscape:pageopacity="1"
     inkscape:pageshadow="2"
     inkscape:zoom="0.49497475"
     inkscape:cx="645"
     inkscape:cy="358.57143"
     inkscape:document-units="px"
     inkscape:current-layer="layer1"
     showgrid="false"
     inkscape:window-width="1364"
     inkscape:window-height="766"
     inkscape:window-x="0"
     inkscape:window-y="0"
     inkscape:window-maximized="0" />
  <metadata
     id="metadata7">
    <rdf:RDF>
      <cc:Work
         rdf:about="">
        <dc:format>image/svg+xml</dc:format>
        <dc:type
           rdf:resource="http://purl.org/dc/dcmitype/StillImage" />
        <dc:title></dc:title>
      </cc:Work>
    </rdf:RDF>
  </metadata>
  <g
     inkscape:label="Layer 1"
     inkscape:groupmode="layer"
     id="layer1"
     transform="translate(0,-308.2677)">
    <path
       style="fill:#ff2d2d;fill-opacity:1;stroke:#ffffff;stroke-width:0.51144481px;stroke-linecap:butt;stroke-linejoin:miter;stroke-opacity:0"
       d="m 58.740886,625.94539 c -15.621539,0.12859 -39.863261,14.22711 -34.826194,27.04265 0.974179,0.73063 1.880634,1.5631 2.924825,2.18962 1.481671,0.88901 6.661717,-0.7352 8.758492,-0.7352 1.461269,0 4.395229,1.46127 4.395229,0 0,-14.79581 17.471102,-13.98069 23.366634,-2.18963 0.993988,1.98798 -0.251534,8.29081 -1.45442,9.4937 -0.130725,0.13073 -6.035862,-2.45612 -8.039274,-1.45442 -3.119895,1.55994 -7.121613,1.37118 -10.228896,2.92483 -5.220956,2.61048 -13.263952,8.24375 -16.078546,13.87294 -3.982416,7.96483 -7.544809,31.30152 2.924825,36.53633 2.32935,1.16467 5.065539,1.80556 7.304071,2.92483 1.023616,0.51181 7.129679,0.8224 8.774476,0 4.58813,-2.29405 10.062808,-2.84179 14.608142,-5.11445 0.727254,-0.36363 3.860334,-4.17895 5.114447,-2.92483 1.409025,1.40902 -0.266713,8.49179 0,8.7585 0.09488,0.0949 4.270032,-1.76741 5.114448,-2.18963 3.207844,-1.60391 7.794597,0.24467 10.228895,-2.18962 1.299867,-1.29987 1.470405,-19.96033 1.470405,-23.38262 0,-22.25043 6.834749,-50.26835 -16.813748,-62.09259 -2.060999,-1.0305 -4.650936,-1.49422 -7.543811,-1.47041 z m -2.189622,46.36567 c 3.697786,-0.15025 6.034808,2.08717 6.808608,1.85399 0.347133,1.73564 3.482387,19.181 2.924825,19.73857 -5.387017,5.38702 -24.855532,12.38154 -29.951486,2.18962 -3.920373,-7.84075 10.241964,-19.72912 16.078546,-22.64741 1.523968,-0.76197 2.90691,-1.08469 4.139507,-1.13477 z"
       id="path2985"
       inkscape:connector-curvature="0" />
    <path
       style="fill:#00ff00;stroke:#ffffff;stroke-width:0.51144481px;stroke-linecap:butt;stroke-linejoin:miter;stroke-opacity:0"
       d="m 104.2823,696.08905 c -9.488069,-0.0496 7.4109,-1.84401 -3.65317,0 -7.533496,1.25559 -3.806043,14.45986 -1.46128,16.80462 2.08966,2.08966 27.73863,-5.49251 5.11445,-16.80462 z"
       id="path2990"
       inkscape:connector-curvature="0" />
    <path
       style="fill:#00ff00;stroke:#ffffff;stroke-width:0.51144481px;stroke-linecap:butt;stroke-linejoin:miter;stroke-opacity:0"
       d="m 164.67388,625.40199 c -2.58672,0.0255 -5.1989,0.41705 -7.78355,1.2786 -1.70784,0.56929 -3.39604,2.78483 -5.11444,3.64405 -1.22418,0.61209 -3.01959,0.92471 -3.66003,2.20561 -1.34209,2.68419 -2.65562,5.58044 -4.37925,7.30406 -0.27585,0.27587 1.8992,-9.8001 0,-11.6993 -2.77461,-2.77461 -17.54622,2.49541 -20.45779,3.66003 0.54805,20.20301 -1.39128,40.71821 1.45443,60.63818 1.31849,9.22945 1.47039,18.34123 1.47039,27.76186 l 0,48.21966 c 0,1.0465 -0.66605,5.91879 0,6.58485 2.08412,2.08413 9.43418,0.25958 12.41852,-0.7352 1.64327,-0.54776 6.88284,1.15642 8.03928,0 1.18618,-1.18619 0.7352,-5.03376 0.7352,-7.30407 0,-6.69266 -1.47041,-49.69006 -2.92483,-52.5989 -0.84856,-1.69712 -0.7352,-8.50656 -0.7352,-10.22889 0,-2.19191 -2.1919,-6.58486 0,-6.58486 0.48709,0 -0.21783,1.03474 0,1.47041 l 2.18963,4.37924 c 3.23718,6.47436 12.17189,11.0463 21.19299,8.03927 7.51268,-2.50422 22.66056,-9.53313 25.57224,-18.26818 6.32012,-18.96033 11.11551,-40.76415 -5.11444,-56.99411 -1.96862,-1.96862 -3.98132,-5.26711 -6.58485,-6.56887 -5.04828,-2.52415 -10.62752,-4.25963 -16.3183,-4.20344 z m 1.35853,20.82539 c 0.44386,-0.006 0.81871,0.0418 1.08682,0.17581 1.78921,0.8946 4.09029,0.59073 5.84965,1.4704 8.60684,4.30342 9.9371,26.43165 7.30407,34.33073 -0.57894,1.73684 -3.17713,2.31578 -4.39523,2.92483 -8.57807,4.28903 -22.36012,3.93135 -28.48108,-2.18963 -2.47571,-2.47571 -0.7352,-13.34914 -0.7352,-16.81375 0,-4.60919 -1.4044,-9.12436 0.7352,-13.13773 2.70199,-0.67549 14.34519,-6.70097 18.63577,-6.76066 z"
       id="path2992"
       inkscape:connector-curvature="0" />
    <path
       style="fill:#00ff00;stroke:#ffffff;stroke-width:0.51144481px;stroke-linecap:butt;stroke-linejoin:miter;stroke-opacity:0"
       d="m 208.76316,628.13996 c -0.56966,13.3494 1.15312,26.99873 -0.73063,40.18495 -0.39103,2.73721 -2.86468,40.97345 -1.46127,42.37685 1.54304,1.54304 12.25931,-1.05557 13.88208,-1.46127 3.10783,-0.77696 12.78531,1.46288 14.61271,-2.1919 1.10508,-2.21021 0,-7.79574 0,-10.22891 0,-16.79728 4.38017,-42.38776 -0.73064,-57.7202 -1.12482,-3.37444 0.94161,-11.58467 -2.19191,-13.15143 -1.04595,-0.52298 -21.69162,-1.03389 -21.91907,-0.73064 -0.6535,0.87134 -0.97418,1.94836 -1.46127,2.92255 z"
       id="path2994"
       inkscape:connector-curvature="0" />
    <path
       style="fill:#00ff00;stroke:#ffffff;stroke-width:0.51144481px;stroke-linecap:butt;stroke-linejoin:miter;stroke-opacity:0"
       d="m 224.83714,579.91802 c -1.90006,1.06799 -1.54611,-2.88012 -7.30635,0 -22.02375,11.01188 -2.02953,31.60674 11.69017,27.03352 9.08758,-3.02921 12.94536,-20.19552 3.65317,-24.84161 -2.57838,-1.2892 -4.79167,-1.54285 -8.03699,-2.19191 z"
       id="path2996"
       inkscape:connector-curvature="0" />
    <path
       id="path3001"
       d="m 286.69,623.21008 c -2.58671,0.0255 -5.1989,0.41707 -7.78355,1.2786 -1.70785,0.56929 -3.39603,2.78484 -5.11445,3.64405 -1.22419,0.61209 -3.01957,0.92472 -3.66002,2.20561 -1.3421,2.68419 -2.65562,5.58044 -4.37926,7.30407 -0.27585,0.27586 1.89921,-9.8001 0,-11.6993 -2.7746,-2.77461 -17.54622,2.4954 -20.45778,3.66004 0.54806,20.20299 -1.39129,40.7182 1.45442,60.63818 1.31849,9.22945 1.47041,18.34123 1.47041,27.76185 l 0,48.21965 c 0,1.04651 -0.66606,5.9188 0,6.58486 2.08412,2.08412 9.43417,0.25958 12.41851,-0.7352 1.64326,-0.54777 6.88284,1.15643 8.03928,0 1.18617,-1.18619 0.7352,-5.03376 0.7352,-7.30408 0,-6.69266 -1.47041,-49.69006 -2.92483,-52.5989 -0.84855,-1.69712 -0.73521,-8.50656 -0.73521,-10.22889 0,-2.19191 -2.19189,-6.58486 0,-6.58486 0.48709,0 -0.21782,1.03474 0,1.47041 l 2.18963,4.37925 c 3.2372,6.47435 12.17191,11.04629 21.193,8.03927 7.51267,-2.50423 22.66056,-9.53313 25.57224,-18.26817 6.32011,-18.96034 11.11552,-40.76417 -5.11445,-56.99413 -1.96861,-1.96861 -3.98131,-5.26711 -6.58485,-6.56887 -5.04828,-2.52414 -10.62751,-4.25962 -16.31829,-4.20344 z m 1.35852,20.82539 c 0.44386,-0.006 0.81873,0.0418 1.08683,0.17581 1.7892,0.8946 4.09029,0.59074 5.84964,1.4704 8.60685,4.30343 9.93711,26.43165 7.30409,34.33074 -0.57896,1.73684 -3.17715,2.31578 -4.39524,2.92482 -8.57806,4.28903 -22.36012,3.93136 -28.48108,-2.18962 -2.47571,-2.47571 -0.7352,-13.34914 -0.7352,-16.81375 0,-4.6092 -1.40441,-9.12436 0.7352,-13.13774 2.70199,-0.67549 14.34519,-6.70096 18.63576,-6.76066 z"
       style="fill:#00ff00;stroke:#ffffff;stroke-width:0.51144481px;stroke-linecap:butt;stroke-linejoin:miter;stroke-opacity:0"
       inkscape:connector-curvature="0" />
    <path
       style="fill:#00ff00;stroke:#ffffff;stroke-width:0.54519558px;stroke-linecap:butt;stroke-linejoin:miter;stroke-opacity:0"
       d="m 359.70788,627.103 c -8.3739,0.17568 -16.74907,2.90724 -23.91004,7.41595 -6.32851,9.07219 -12.15716,26.08314 -11.29974,38.02272 1.00859,14.04431 6.71025,20.9286 12.45049,30.60676 0.17174,0.28957 0.2925,0.70012 0.38357,1.18272 2.98038,1.38374 6.72721,2.13876 9.23799,2.55723 14.80565,2.46761 30.52419,5.3089 41.28318,-5.45008 1.76624,-1.76625 8.95877,-15.97416 7.01638,-17.91655 -1.95926,-1.95926 -5.33676,-1.55031 -9.34985,-1.55031 -1.27252,0 -5.23221,-1.78417 -6.23323,-0.78316 -4.75672,4.75672 -2.86948,3.76022 -10.91615,7.78356 -1.31996,0.65997 -4.70885,0 -6.21725,0 -13.81319,0 -25.56512,-8.53063 -17.1334,-22.58349 6.55433,-0.7559 13.07082,0.78315 19.46686,0.78315 3.06328,0 7.14335,0.74341 10.11703,0 7.71669,-1.92917 22.77252,-8.83067 19.48285,-18.69971 -2.55754,-7.67258 -3.62352,-11.49915 -10.90017,-16.35025 -4.50127,-3.00084 -8.44162,-2.69776 -13.24962,-3.89977 -2.96752,-0.74187 -6.01433,-1.09641 -9.06216,-1.11877 -0.38779,-0.003 -0.77875,-0.009 -1.16674,0 z m 11.2358,17.61287 c 1.91883,-0.0227 3.48474,0.16009 4.44317,0.63931 1.53293,0.76646 5.3502,4.74885 2.34946,6.24921 -2.37262,1.18633 -5.39077,1.12909 -7.79953,2.33347 -2.15791,1.07896 -9.32581,0.78315 -11.68332,0.78315 l -10.90016,0 c 0,-1.29808 -0.25459,-2.64287 0,-3.91575 0.38074,-1.90377 15.27544,-5.99101 23.59038,-6.08939 z"
       id="path3016"
       inkscape:connector-curvature="0" />
    <path
       style="fill:#00ff00;fill-opacity:1;stroke:#ffffff;stroke-width:0.51144481px;stroke-linecap:butt;stroke-linejoin:miter;stroke-opacity:0"
       d="m 434.87085,582.77298 c -2.1711,-1.92504 -4.35948,3.40167 -10.33275,11.36602 -5.54731,7.39643 -12.86711,15.20623 -14.46584,24.79859 -4.68099,28.08591 -7.32579,98.06823 13.43256,118.82658 4.56322,4.56321 28.13526,24.56176 33.06479,19.63221 1.0247,-1.0247 7.20244,-5.22734 5.16638,-9.29947 -3.1743,-6.34859 -7.04902,-10.14885 -11.36603,-14.46585 -3.73288,-3.73288 -19.43671,-32.67377 -21.69876,-37.19787 -3.60365,-7.2073 -2.06655,-20.43443 -2.06655,-29.96497 0,-10.23317 5.78934,-37.82085 11.36602,-43.39754 5.2439,-5.2439 11.8438,-12.32156 15.49913,-19.6322 3.04824,-6.09651 -3.17981,-17.64565 -6.19967,-20.6655 -1.03326,-1.03328 -3.09981,-1.03328 -4.13308,-2.06654 -2.00833,-2.00833 -5.62915,1.01172 -8.2662,2.06654 z"
       id="path3063"
       inkscape:connector-curvature="0" />
    <path
       inkscape:connector-curvature="0"
       style="fill:#4343ff;fill-opacity:1;stroke:#ffffff;stroke-width:0.51144481px;stroke-linecap:butt;stroke-linejoin:miter;stroke-opacity:0"
       d="m 503.71182,720.22542 c -2.58671,-0.0255 -5.19891,-0.41705 -7.78355,-1.2786 -1.70785,-0.56929 -3.39604,-2.78483 -5.11445,-3.64405 -1.22417,-0.61209 -3.01957,-0.92471 -3.66001,-2.20561 -1.34211,-2.68418 -2.65563,-5.58044 -4.37926,-7.30406 -0.27585,-0.27586 1.8992,9.8001 0,11.69929 -2.77461,2.77462 -17.54623,-2.4954 -20.4578,-3.66002 0.54806,-20.20301 -1.39128,-40.71821 1.45443,-60.63817 1.3185,-9.22946 1.4704,-18.34124 1.4704,-27.76188 l 0,-48.21965 c 0,-1.0465 -0.66605,-5.91879 0,-6.58485 2.08412,-2.08413 9.43418,-0.25958 12.41852,0.73521 1.64327,0.54775 6.88284,-1.15644 8.03928,0 1.18618,1.18617 0.7352,5.03375 0.7352,7.30406 0,6.69266 -1.47041,49.69007 -2.92483,52.5989 -0.84856,1.69712 -0.7352,8.50656 -0.7352,10.22889 0,2.19191 -2.1919,6.58486 0,6.58486 0.48709,0 -0.21784,-1.03473 0,-1.4704 l 2.18963,-4.37925 c 3.23718,-6.47436 12.1719,-11.0463 21.19299,-8.03927 7.51267,2.50422 22.66057,9.53314 25.57224,18.26817 6.32012,18.96034 11.11551,40.76417 -5.11445,56.99412 -1.96861,1.96862 -3.98131,5.26711 -6.58486,6.56888 -5.04826,2.52414 -10.62751,4.25962 -16.31828,4.20343 z m 1.35853,-20.82539 c 0.44384,0.006 0.81871,-0.0418 1.08682,-0.17581 1.7892,-0.8946 4.0903,-0.59073 5.84965,-1.4704 8.60685,-4.30342 9.9371,-26.43165 7.30407,-34.33073 -0.57895,-1.73684 -3.17713,-2.31578 -4.39522,-2.92483 -8.57808,-4.28903 -22.36013,-3.93134 -28.48109,2.18963 -2.47571,2.47571 -0.7352,13.34915 -0.7352,16.81375 0,4.60919 -1.4044,9.12436 0.7352,13.13774 2.70199,0.67549 14.34518,6.70097 18.63577,6.76065 z"
       id="path3065" />
    <path
       inkscape:connector-curvature="0"
       id="path3835"
       d="m 547.44184,751.99613 c 2.1711,1.92505 4.35948,-3.40167 10.33275,-11.36602 5.54731,-7.39642 12.86712,-15.20623 14.46584,-24.79859 4.68099,-28.08591 7.32579,-98.06822 -13.43256,-118.82658 -4.56322,-4.56321 -28.13526,-24.56176 -33.06479,-19.63221 -1.0247,1.0247 -7.20243,5.22734 -5.16638,9.29947 3.17429,6.34859 7.04902,10.14885 11.36602,14.46585 3.73289,3.73288 19.43672,32.67378 21.69876,37.19787 3.60366,7.2073 2.06656,20.43443 2.06656,29.96497 0,10.23317 -5.78934,37.82085 -11.36602,43.39754 -5.2439,5.24391 -11.8438,12.32156 -15.49913,19.6322 -3.04825,6.09651 3.1798,17.64565 6.19967,20.6655 1.03326,1.03328 3.09981,1.03328 4.13308,2.06655 2.00832,2.00832 5.62915,-1.01173 8.2662,-2.06655 z"
       style="fill:#00ff00;fill-opacity:1;stroke:#ffffff;stroke-width:0.51144481px;stroke-linecap:butt;stroke-linejoin:miter;stroke-opacity:0" />
    <path
       inkscape:connector-curvature="0"
       id="path3837"
       d="m 593.86722,696.08905 c -9.48807,-0.0496 7.41091,-1.84401 -3.65317,0 -7.5335,1.25559 -3.80604,14.45986 -1.46128,16.80462 2.08966,2.08966 27.73864,-5.49251 5.11445,-16.80462 z"
       style="fill:#00ff00;stroke:#ffffff;stroke-width:0.51144481px;stroke-linecap:butt;stroke-linejoin:miter;stroke-opacity:0" />
    <path
       inkscape:connector-curvature="0"
       id="path3839"
       d="m 654.2588,625.40199 c -2.58671,0.0255 -5.1989,0.41705 -7.78355,1.2786 -1.70784,0.56929 -3.39603,2.78483 -5.11444,3.64405 -1.22419,0.61209 -3.01959,0.92471 -3.66003,2.20561 -1.3421,2.68419 -2.65562,5.58044 -4.37925,7.30406 -0.27585,0.27587 1.89921,-9.8001 0,-11.6993 -2.77461,-2.77461 -17.54623,2.49541 -20.4578,3.66003 0.54807,20.20301 -1.39128,40.71821 1.45443,60.63818 1.31849,9.22945 1.47041,18.34123 1.47041,27.76186 l 0,48.21966 c 0,1.0465 -0.66606,5.91879 0,6.58485 2.08411,2.08413 9.43416,0.25958 12.41852,-0.7352 1.64325,-0.54776 6.88284,1.15642 8.03927,0 1.18619,-1.18619 0.7352,-5.03376 0.7352,-7.30407 0,-6.69266 -1.47041,-49.69006 -2.92483,-52.5989 -0.84856,-1.69712 -0.7352,-8.50656 -0.7352,-10.22889 0,-2.19191 -2.1919,-6.58486 0,-6.58486 0.48709,0 -0.21784,1.03474 0,1.47041 l 2.18963,4.37924 c 3.23718,6.47436 12.1719,11.0463 21.19299,8.03927 7.51267,-2.50422 22.66057,-9.53313 25.57223,-18.26818 6.32012,-18.96033 11.11553,-40.76415 -5.11443,-56.99411 -1.96862,-1.96862 -3.98132,-5.26711 -6.58486,-6.56887 -5.04827,-2.52415 -10.62752,-4.25963 -16.31829,-4.20344 z m 1.35853,20.82539 c 0.44385,-0.006 0.81871,0.0418 1.08682,0.17581 1.7892,0.8946 4.09029,0.59073 5.84966,1.4704 8.60684,4.30342 9.93709,26.43165 7.30406,34.33073 -0.57894,1.73684 -3.17713,2.31578 -4.39522,2.92483 -8.57807,4.28903 -22.36012,3.93135 -28.48109,-2.18963 -2.47572,-2.47571 -0.7352,-13.34914 -0.7352,-16.81375 0,-4.60919 -1.40441,-9.12436 0.7352,-13.13773 2.70199,-0.67549 14.34518,-6.70097 18.63577,-6.76066 z"
       style="fill:#00ff00;stroke:#ffffff;stroke-width:0.51144481px;stroke-linecap:butt;stroke-linejoin:miter;stroke-opacity:0" />
    <path
       inkscape:connector-curvature="0"
       id="path3841"
       d="m 698.34809,628.13996 c -0.56967,13.3494 1.1531,26.99873 -0.73064,40.18495 -0.39103,2.73721 -2.86468,40.97345 -1.46127,42.37685 1.54303,1.54304 12.25931,-1.05557 13.88208,-1.46127 3.10782,-0.77696 12.78531,1.46288 14.6127,-2.1919 1.1051,-2.21021 0,-7.79574 0,-10.22891 0,-16.79728 4.38018,-42.38776 -0.73063,-57.7202 -1.12481,-3.37444 0.94161,-11.58467 -2.19191,-13.15143 -1.04595,-0.52298 -21.69162,-1.03389 -21.91906,-0.73064 -0.65351,0.87134 -0.97419,1.94836 -1.46127,2.92255 z"
       style="fill:#00ff00;stroke:#ffffff;stroke-width:0.51144481px;stroke-linecap:butt;stroke-linejoin:miter;stroke-opacity:0" />
    <path
       inkscape:connector-curvature="0"
       id="path3843"
       d="m 714.42206,579.91802 c -1.90006,1.06799 -1.54611,-2.88012 -7.30636,0 -22.02375,11.01188 -2.02952,31.60674 11.69018,27.03352 9.08758,-3.02921 12.94536,-20.19552 3.65316,-24.84161 -2.57836,-1.2892 -4.79167,-1.54285 -8.03698,-2.19191 z"
       style="fill:#00ff00;stroke:#ffffff;stroke-width:0.51144481px;stroke-linecap:butt;stroke-linejoin:miter;stroke-opacity:0" />
    <path
       inkscape:connector-curvature="0"
       style="fill:#00ff00;stroke:#ffffff;stroke-width:0.51144481px;stroke-linecap:butt;stroke-linejoin:miter;stroke-opacity:0"
       d="m 776.27492,623.21008 c -2.58672,0.0255 -5.1989,0.41707 -7.78355,1.2786 -1.70784,0.56929 -3.39604,2.78484 -5.11445,3.64405 -1.22418,0.61209 -3.01958,0.92472 -3.66002,2.20561 -1.34209,2.68419 -2.65563,5.58044 -4.37925,7.30407 -0.27586,0.27586 1.8992,-9.8001 0,-11.6993 -2.77461,-2.77461 -17.54623,2.4954 -20.4578,3.66004 0.54807,20.20299 -1.39127,40.7182 1.45443,60.63818 1.3185,9.22945 1.4704,18.34123 1.4704,27.76185 l 0,48.21965 c 0,1.04651 -0.66605,5.9188 0,6.58486 2.08412,2.08412 9.43418,0.25958 12.41851,-0.7352 1.64328,-0.54777 6.88286,1.15643 8.03929,0 1.18618,-1.18619 0.7352,-5.03376 0.7352,-7.30408 0,-6.69266 -1.47041,-49.69006 -2.92483,-52.5989 -0.84856,-1.69712 -0.7352,-8.50656 -0.7352,-10.22889 0,-2.19191 -2.19191,-6.58486 0,-6.58486 0.48709,0 -0.21784,1.03474 0,1.47041 l 2.18963,4.37925 c 3.23718,6.47435 12.1719,11.04629 21.19299,8.03927 7.51268,-2.50423 22.66056,-9.53313 25.57223,-18.26817 6.32013,-18.96034 11.11552,-40.76417 -5.11443,-56.99413 -1.96861,-1.96861 -3.98132,-5.26711 -6.58486,-6.56887 -5.04827,-2.52414 -10.62752,-4.25962 -16.31829,-4.20344 z m 1.35852,20.82539 c 0.44386,-0.006 0.81872,0.0418 1.08683,0.17581 1.78919,0.8946 4.0903,0.59074 5.84965,1.4704 8.60684,4.30343 9.93709,26.43165 7.30407,34.33074 -0.57894,1.73684 -3.17713,2.31578 -4.39523,2.92482 -8.57807,4.28903 -22.36012,3.93136 -28.48108,-2.18962 -2.47571,-2.47571 -0.7352,-13.34914 -0.7352,-16.81375 0,-4.6092 -1.4044,-9.12436 0.7352,-13.13774 2.70199,-0.67549 14.34519,-6.70096 18.63576,-6.76066 z"
       id="path3845" />
    <path
       inkscape:connector-curvature="0"
       id="path3847"
       d="m 849.2928,627.103 c -8.3739,0.17568 -16.74908,2.90724 -23.91004,7.41595 -6.32851,9.07219 -12.15716,26.08314 -11.29973,38.02272 1.00858,14.04431 6.71025,20.9286 12.45047,30.60676 0.17174,0.28957 0.29251,0.70012 0.38359,1.18272 2.98037,1.38374 6.7272,2.13876 9.23797,2.55723 14.80566,2.46761 30.52419,5.3089 41.28322,-5.45008 1.76623,-1.76625 8.95873,-15.97416 7.01633,-17.91655 -1.95923,-1.95926 -5.33675,-1.55031 -9.34986,-1.55031 -1.27245,0 -5.23215,-1.78417 -6.2332,-0.78316 -4.75668,4.75672 -2.86947,3.76022 -10.91615,7.78356 -1.31995,0.65997 -4.70885,0 -6.21724,0 -13.8132,0 -25.56513,-8.53063 -17.13341,-22.58349 6.55434,-0.7559 13.07083,0.78315 19.46687,0.78315 3.06327,0 7.14333,0.74341 10.11705,0 7.71671,-1.92917 22.7725,-8.83067 19.48283,-18.69971 -2.55758,-7.67258 -3.6235,-11.49915 -10.90019,-16.35025 -4.50125,-3.00084 -8.44158,-2.69776 -13.24962,-3.89977 -2.9675,-0.74187 -6.01431,-1.09641 -9.06215,-1.11877 -0.38779,-0.003 -0.77875,-0.009 -1.16674,0 z m 11.23581,17.61287 c 1.91884,-0.0227 3.48473,0.16009 4.44318,0.63931 1.5329,0.76646 5.35018,4.74885 2.34943,6.24921 -2.37256,1.18633 -5.39075,1.12909 -7.79953,2.33347 -2.15789,1.07896 -9.3258,0.78315 -11.6833,0.78315 l -10.90017,0 c 0,-1.29808 -0.25458,-2.64287 0,-3.91575 0.38075,-1.90377 15.27545,-5.99101 23.59039,-6.08939 z"
       style="fill:#00ff00;stroke:#ffffff;stroke-width:0.54519558px;stroke-linecap:butt;stroke-linejoin:miter;stroke-opacity:0" />
    <path
       inkscape:connector-curvature="0"
       id="path3849"
       d="m 924.45575,582.77298 c -2.17105,-1.92504 -4.35944,3.40167 -10.33271,11.36602 -5.54737,7.39643 -12.86716,15.20623 -14.46587,24.79859 -4.68101,28.08591 -7.32574,98.06823 13.4326,118.82658 4.56316,4.56321 28.13519,24.56176 33.06474,19.63221 1.02477,-1.0247 7.20245,-5.22734 5.16643,-9.29947 -3.17429,-6.34859 -7.04906,-10.14885 -11.36605,-14.46585 -3.73286,-3.73288 -19.43674,-32.67377 -21.69877,-37.19787 -3.6036,-7.2073 -2.06653,-20.43443 -2.06653,-29.96497 0,-10.23317 5.78935,-37.82085 11.36596,-43.39754 5.24399,-5.2439 11.84384,-12.32156 15.49914,-19.6322 3.04829,-6.09651 -3.17973,-17.64565 -6.19962,-20.6655 -1.03327,-1.03328 -3.09981,-1.03328 -4.13307,-2.06654 -2.00839,-2.00833 -5.62917,1.01172 -8.26625,2.06654 z"
       style="fill:#00ff00;fill-opacity:1;stroke:#ffffff;stroke-width:0.51144481px;stroke-linecap:butt;stroke-linejoin:miter;stroke-opacity:0" />
    <path
       style="fill:#00ff00;fill-opacity:1;stroke:#ffffff;stroke-width:0.51144481px;stroke-linecap:butt;stroke-linejoin:miter;stroke-opacity:0"
       d="m 1004.3878,751.99613 c 2.1711,1.92505 4.3594,-3.40167 10.3327,-11.36602 5.5473,-7.39642 12.8671,-15.20623 14.4658,-24.79859 4.6811,-28.08591 7.3259,-98.06822 -13.4326,-118.82658 -4.5631,-4.56321 -28.13511,-24.56176 -33.06469,-19.63221 -1.02467,1.0247 -7.20245,5.22734 -5.16634,9.29947 3.17429,6.34859 7.04897,10.14885 11.36597,14.46585 3.73294,3.73288 19.43666,32.67378 21.69866,37.19787 3.6037,7.2073 2.0667,20.43443 2.0667,29.96497 0,10.23317 -5.7894,37.82085 -11.3661,43.39754 -5.24385,5.24391 -11.84379,12.32156 -15.49905,19.6322 -3.04831,6.09651 3.17982,17.64565 6.19956,20.6655 1.03336,1.03328 3.09988,1.03328 4.13314,2.06655 2.00839,2.00832 5.62915,-1.01173 8.26625,-2.06655 z"
       id="path3853"
       inkscape:connector-curvature="0" />
    <path
       inkscape:connector-curvature="0"
       id="path3866"
       d="m 967.47923,625.94539 c -15.62158,0.12859 -39.86331,14.22711 -34.8262,27.04265 0.97418,0.73063 1.88058,1.5631 2.92483,2.18962 1.48162,0.88901 6.66166,-0.7352 8.75848,-0.7352 1.4613,0 4.39522,1.46127 4.39522,0 0,-14.79581 17.47113,-13.98069 23.36661,-2.18963 0.99398,1.98798 -0.25152,8.29081 -1.45442,9.4937 -0.1307,0.13073 -6.03586,-2.45612 -8.03923,-1.45442 -3.11987,1.55994 -7.12167,1.37118 -10.22888,2.92483 -5.22102,2.61048 -13.26398,8.24375 -16.07861,13.87294 -3.98241,7.96483 -7.54477,31.30152 2.92482,36.53633 2.32936,1.16467 5.06559,1.80556 7.30407,2.92483 1.02366,0.51181 7.12975,0.8224 8.77455,0 4.58807,-2.29405 10.06273,-2.84179 14.60812,-5.11445 0.72725,-0.36363 3.86031,-4.17895 5.11439,-2.92483 1.4091,1.40902 -0.26665,8.49179 0,8.7585 0.0949,0.0949 4.27007,-1.76741 5.11449,-2.18963 3.2078,-1.60391 7.79462,0.24467 10.22894,-2.18962 1.2998,-1.29987 1.47034,-19.96033 1.47034,-23.38262 0,-22.25043 6.83478,-50.26835 -16.81377,-62.09259 -2.06093,-1.0305 -4.6509,-1.49422 -7.54375,-1.47041 z m -2.18966,46.36567 c 3.69781,-0.15025 6.03484,2.08717 6.8086,1.85399 0.34717,1.73564 3.48243,19.181 2.92481,19.73857 -5.38699,5.38702 -24.85545,12.38154 -29.95148,2.18962 -3.92034,-7.84075 10.24197,-19.72912 16.07861,-22.64741 1.52397,-0.76197 2.90688,-1.08469 4.13946,-1.13477 z"
       style="fill:#ff2d2d;fill-opacity:1;stroke:#ffffff;stroke-width:0.51144481px;stroke-linecap:butt;stroke-linejoin:miter;stroke-opacity:0" />
  </g>
</svg>
