<?xml version="1.0" encoding="UTF-8" standalone="no"?>
<!-- Created with Inkscape (http://www.inkscape.org/) -->

<svg
   xmlns:dc="http://purl.org/dc/elements/1.1/"
   xmlns:cc="http://creativecommons.org/ns#"
   xmlns:rdf="http://www.w3.org/1999/02/22-rdf-syntax-ns#"
   xmlns:svg="http://www.w3.org/2000/svg"
   xmlns="http://www.w3.org/2000/svg"
   xmlns:sodipodi="http://sodipodi.sourceforge.net/DTD/sodipodi-0.dtd"
   xmlns:inkscape="http://www.inkscape.org/namespaces/inkscape"
   width="1052.3622"
   height="744.09448"
   id="svg20164"
   version="1.1"
   inkscape:version="0.48.3.1 r9886"
   sodipodi:docname="airport.svg"
   inkscape:export-filename="/home/substack/media/vector/airport.png"
   inkscape:export-xdpi="81.479156"
   inkscape:export-ydpi="81.479156">
  <defs
     id="defs20166" />
  <sodipodi:namedview
     id="base"
     pagecolor="#ffffff"
     bordercolor="#666666"
     borderopacity="1.0"
     inkscape:pageopacity="0.0"
     inkscape:pageshadow="2"
     inkscape:zoom="0.84082031"
     inkscape:cx="477.89696"
     inkscape:cy="444.61617"
     inkscape:document-units="px"
     inkscape:current-layer="layer1"
     showgrid="false"
     inkscape:window-width="1364"
     inkscape:window-height="766"
     inkscape:window-x="0"
     inkscape:window-y="0"
     inkscape:window-maximized="0" />
  <metadata
     id="metadata20169">
    <rdf:RDF>
      <cc:Work
         rdf:about="">
        <dc:format>image/svg+xml</dc:format>
        <dc:type
           rdf:resource="http://purl.org/dc/dcmitype/StillImage" />
        <dc:title></dc:title>
      </cc:Work>
    </rdf:RDF>
  </metadata>
  <g
     inkscape:label="Layer 1"
     inkscape:groupmode="layer"
     id="layer1"
     transform="translate(0,-308.2677)">
    <path
       style="fill:none;stroke:#374837;stroke-width:1px;stroke-linecap:round;stroke-linejoin:round;stroke-opacity:1"
       d="m 723.10312,406.8586 c 0.0495,2.96388 -0.29733,5.80369 -0.29733,8.77119 0,0.50311 -0.15771,1.31085 0,1.78398 0.24186,0.72557 0.29733,1.54979 0.29733,2.37862 0,0.7799 -0.39631,2.87432 0,3.27062"
       id="path21096"
       inkscape:connector-curvature="0" />
    <path
       style="fill:#93ac93;fill-opacity:1;stroke:#374837;stroke-width:1px;stroke-linecap:butt;stroke-linejoin:miter;stroke-opacity:1"
       d="m 713.29127,429.00958 c -0.89469,-1.04713 -3.1753,-6.19055 -2.67596,-6.68989 0.28462,-0.28462 0.90327,-0.3773 1.33798,-0.59466 0.95832,-0.47916 1.90872,-0.88002 2.82462,-1.33798 1.38407,-0.69203 11.11478,-0.0175 12.33914,0.59466 1.06947,0.53473 2.02285,0.83353 2.67596,1.48664 0.18664,0.18664 -0.12549,0.42283 -0.14866,0.446 -0.58518,0.58517 -1.04783,3.29214 -1.33798,4.1626 -0.35371,1.06111 -1.63531,2.71353 -1.63531,2.97328"
       id="path21049"
       inkscape:connector-curvature="0" />
    <path
       style="fill:#374837;fill-opacity:1;stroke:#374837;stroke-width:1px;stroke-linecap:butt;stroke-linejoin:miter;stroke-opacity:1"
       d="m 705.56072,449.67393 c -0.19822,-0.39644 -0.39643,-0.79288 -0.59465,-1.18932 -0.0991,-0.0991 -0.23465,-0.17196 -0.29733,-0.29733 -0.21924,-0.43847 0.33333,-1.74797 0,-2.0813 -0.59339,-0.59339 -1.41384,-2.23302 -1.78397,-2.97328 -0.0898,-0.17952 0.13744,-0.75454 0,-0.89199 -2.21894,-2.21893 -1.60342,-6.658 -3.86528,-8.91986 -0.11652,-0.11652 0.23706,-1.12904 0.29733,-1.18931 1.41018,-1.41018 4.23907,-2.4551 5.64925,-3.86528 0.14601,-0.14601 8.27908,0 9.21719,0 3.58585,0 14.97408,-1.97364 16.94773,0 0.80418,0.80418 3.38268,-0.2413 4.45993,0.29733 1.32861,0.66431 3.07519,1.88588 4.1626,2.97329 0.78231,0.78231 2.34054,0.85389 2.97329,1.48664 0.24707,0.24707 -0.89199,2.32209 -0.89199,2.97329 0,0.49662 -2.1918,6.3544 -2.37863,6.54123 -0.69566,0.69566 -0.0824,3.13813 -0.59465,4.1626 -0.27563,0.55125 -0.89199,1.79099 -0.89199,2.37863 0,5.49902 -9.86479,2.10777 -13.37979,3.86527"
       id="path20986"
       inkscape:connector-curvature="0" />
    <path
       style="fill:none;stroke:#374837;stroke-width:1px;stroke-linecap:butt;stroke-linejoin:miter;stroke-opacity:1"
       d="m 723.61068,427.42529 c -0.40723,6.43762 -1.39955,13.40968 -1.39955,19.57268"
       id="path20990"
       inkscape:connector-curvature="0"
       sodipodi:nodetypes="cc" />
    <path
       style="fill:none;stroke:#374837;stroke-width:1px;stroke-linecap:round;stroke-linejoin:round;stroke-opacity:1"
       d="m 739.90219,413.39983 c -0.61673,6.66406 -0.29733,13.48715 -0.29733,20.06968"
       id="path21139"
       inkscape:connector-curvature="0" />
    <path
       style="fill:none;stroke:#374837;stroke-width:1px;stroke-linecap:round;stroke-linejoin:round;stroke-opacity:1"
       d="m 732.91496,408.34524 c 0.68568,7.24728 0,14.41151 0,21.70499"
       id="path21094"
       inkscape:connector-curvature="0" />
    <path
       style="fill:none;stroke:#374837;stroke-width:1px;stroke-linecap:round;stroke-linejoin:round;stroke-opacity:1"
       d="m 708.98001,416.37312 c 0.27723,2.87614 -0.46936,5.50907 0,8.3252 0.30822,1.84936 -0.43703,4.18951 0.14866,5.94658 0.18609,0.55828 -0.14866,1.14643 -0.14866,1.6353"
       id="path21098"
       inkscape:connector-curvature="0"
       sodipodi:nodetypes="cssc" />
    <path
       style="fill:#93ac93;fill-opacity:1;stroke:#374837;stroke-width:1px;stroke-linecap:butt;stroke-linejoin:miter;stroke-opacity:1"
       d="m 722.1834,425.63578 c -0.15314,-0.15315 -10.50552,1.88052 -10.71875,2.09375 -0.254,0.254 -2.10248,0.31351 -3.75,0.46875 -1.45505,-0.003 -2.69641,0.009 -2.75,0.0625 -1.41018,1.41017 -4.24607,2.46482 -5.65625,3.875 -0.0603,0.0603 -0.39777,1.07098 -0.28125,1.1875 1.39204,1.39204 1.67494,3.6087 2.21875,5.625 0.008,-0.005 0.0236,0.004 0.0312,0 1.42415,-0.82565 2.71883,-1.96884 3.40625,-2.65625 0.44599,-0.44599 1.61651,-0.14775 2.0625,-0.59375 0.24219,-0.24219 7.70799,-1.59358 8.73003,-1.59948 2.74914,-0.016 5.12769,-1.02319 7.42622,-0.71302 2.26164,0.30518 9.96982,1.53125 10.71875,1.53125 0.49815,0 5.366,4.69863 5.84375,4.9375 0.20067,0.10033 0.54436,0.16838 0.90625,0.21875 0.0206,0.003 0.0418,-0.003 0.0625,0 0.65716,-1.7454 1.40625,-3.77366 1.40625,-4.0625 0,-0.6512 1.12207,-2.75293 0.875,-3 -0.63275,-0.63275 -2.18644,-0.68644 -2.96875,-1.46875 -1.08741,-1.08741 -2.82764,-2.30445 -4.15625,-2.96875 -0.64151,-0.32076 -3.29839,-1.12449 -4.31545,-1.05122 -2.33789,-1.34893 -6.63199,-0.0729 -9.0908,-1.88628 z"
       id="path21025"
       inkscape:connector-curvature="0"
       sodipodi:nodetypes="cscscsccsscsscccsssscc" />
    <path
       style="fill:#93ac93;fill-opacity:1;stroke:#374837;stroke-width:1px;stroke-linecap:butt;stroke-linejoin:miter;stroke-opacity:1"
       d="m 480.32987,580.58758 c -0.67466,3.7025 2.79858,5.0025 4.1626,7.73054 1.47563,2.95126 4.10254,2.31857 5.94657,4.1626 7.56684,7.56684 5.2875,-4.88609 2.97329,-9.51451 -1.61704,-3.23408 -4.68745,-2.90348 -6.54123,-4.75726 -2.29843,-2.29843 -4.3641,-0.34279 -6.54123,2.37863 z"
       id="path20270"
       inkscape:connector-curvature="0" />
    <path
       style="fill:#93ac93;fill-opacity:1;stroke:#374837;stroke-width:1px;stroke-linecap:butt;stroke-linejoin:miter;stroke-opacity:1"
       d="m 512.44137,581.18223 c -1.15606,5.31991 9.73521,15.83505 13.08246,12.48781 2.62347,-2.62347 -8.33862,-16.04681 -10.10918,-14.86644 -1.05605,0.70404 -1.98219,1.58576 -2.97328,2.37863 z"
       id="path20272"
       inkscape:connector-curvature="0" />
    <path
       style="fill:#93ac93;fill-opacity:1;stroke:#374837;stroke-width:1px;stroke-linecap:butt;stroke-linejoin:miter;stroke-opacity:1"
       d="m 540.98492,580.58758 c 2.35561,2.83446 12.10055,11.68574 13.67712,10.10917 2.45507,-2.45507 0.44461,-8.47525 -1.18931,-10.10917 -0.30092,-0.30092 1.27844,-4.07348 0,-5.35192 0.93433,-3.73735 -1.4252,-5.22902 -2.97329,-8.3252 -1.28422,-2.56843 -1.8253,-4.20394 -4.1626,-6.54123 -4.12709,-4.12709 -23.52585,-2.71284 -14.86644,5.94657 0.49555,0.49555 0.0991,1.88308 0.59466,2.37863 3.04148,3.04148 7.3256,6.61236 8.91986,11.89315 z"
       id="path20278"
       inkscape:connector-curvature="0" />
    <path
       style="fill:#93ac93;fill-opacity:1;stroke:#374837;stroke-width:1px;stroke-linecap:butt;stroke-linejoin:miter;stroke-opacity:1"
       d="m 565.96053,569.28909 c 1.97811,3.27378 4.24799,6.62662 6.54123,8.91986 1.92535,1.92535 3.54174,4.73105 5.35192,6.54123 1.31259,1.31259 3.52589,-0.55261 4.1626,-1.18932 3.74585,-3.74585 -8.61645,-17.24749 -16.05575,-14.27177 z"
       id="path20280"
       inkscape:connector-curvature="0" />
    <path
       style="fill:#374837;fill-opacity:1;stroke:#1c241c;stroke-width:1px;stroke-linecap:butt;stroke-linejoin:miter;stroke-opacity:1"
       d="m 383.01011,599.02195 c -4.14125,1.44965 -2.49689,5.47018 -4.75726,7.73055 -2.85578,2.85579 -7.91163,2.14615 -10.10917,6.54123 -3.46236,6.92471 7.54143,7.325 10.10917,4.75726 1.23705,-1.23705 2.80109,1.01711 2.97329,1.18932 2.65646,2.65646 12.25208,-2.14291 13.08246,-2.97329 0.0839,-0.0839 0.061,-1.66199 0,-1.78397 -2.19683,-4.39366 -5.63321,-2.37863 -8.91986,-2.37863 -1.43679,0 0.28779,-4.73819 0.59466,-5.35192 0.65096,-1.30192 -1.07467,-3.79723 -0.59466,-4.75726"
       id="path20274"
       inkscape:connector-curvature="0" />
    <path
       style="fill:#374837;fill-opacity:1;stroke:#1c241c;stroke-width:1px;stroke-linecap:butt;stroke-linejoin:miter;stroke-opacity:1"
       d="m 360.25135,591.98809 c -1.33331,3.04897 0.0356,7.69498 -1.78398,9.51452 -1.28357,1.28357 -4.19209,0.62415 -5.94657,2.37863 -0.49094,0.49094 -3.14091,8.15758 -2.37863,8.91986 5.0574,5.05739 16.03465,-1.76287 18.43438,-4.16261 1.15411,-1.1541 -0.81728,-4.60784 -1.18932,-5.35191 -1.39699,-2.79399 -3.94024,0.81702 -5.35191,-0.59466 -0.66666,-0.66666 0.43847,-3.28565 0,-4.1626 -0.95148,-1.90295 -1.78397,-4.29153 -1.78397,-6.54123 z"
       id="path20276"
       inkscape:connector-curvature="0" />
    <path
       style="fill:#93ac93;fill-opacity:1;stroke:#374837;stroke-width:1px;stroke-linecap:butt;stroke-linejoin:miter;stroke-opacity:1"
       d="m 231.76308,567.50511 c 0.0247,-4.58107 -13.88744,6.12058 -11.29849,11.29849 2.08772,4.17545 7.28766,9.76333 11.89315,11.29849 2.15291,0.71764 4.6262,3.43689 5.94657,4.75726 1.80256,1.80256 5.15079,1.08875 7.73055,2.37863 4.61796,2.30898 7.83505,-4.2671 9.51452,-5.94657 0.29733,-0.29733 -0.29733,-1.48664 0,-1.78397 2.44782,-2.44783 6.61042,-7.0667 4.1626,-9.51452 -6.01625,-6.01625 -16.7245,-14.73269 -27.9489,-12.48781 z"
       id="path20245"
       inkscape:connector-curvature="0" />
    <path
       style="fill:#93ac93;fill-opacity:1;stroke:#374837;stroke-width:1px;stroke-linecap:butt;stroke-linejoin:miter;stroke-opacity:1"
       d="m 281.7143,563.34251 c -2.70977,-2.13465 -7.29402,1.94211 -11.29849,5.94658 -0.39644,0.39643 0.39644,1.98219 0,2.37863 -3.90685,3.90685 11.53951,22.83799 14.27178,25.57026 0.71219,0.71219 6.16074,2.75912 7.13589,1.78397 1.17601,-1.17601 -0.70621,-4.6457 0,-5.35191 0.69377,-0.69377 3.46883,0.69377 4.1626,0 1.16716,-1.16716 2.59539,-2.00073 3.56795,-2.97329 1.29207,-1.29207 -1.78398,-5.25017 -1.78398,-6.54123 0,-0.0488 -5.12663,-11.66786 -5.35191,-11.89315 -1.18304,-1.18303 -3.72232,-3.12766 -4.75726,-4.1626 -0.91834,-0.91834 -1.64294,-4.49119 -2.97329,-4.75726 -0.97185,-0.19437 -1.98219,0 -2.97329,0 z"
       id="path20247"
       inkscape:connector-curvature="0" />
    <path
       style="fill:#93ac93;fill-opacity:1;stroke:#374837;stroke-width:1px;stroke-linecap:butt;stroke-linejoin:miter;stroke-opacity:1"
       d="m 254.36006,577.01963 c -0.0736,3.2749 1.75686,4.70303 2.97329,7.13589 1.28951,2.57901 2.58179,4.96042 4.75726,7.13589 1.78282,1.78282 7.29202,6.38509 9.51452,4.1626 0.34264,-0.34264 -5.69964,-20.74346 -17.24507,-18.43438 z"
       id="path20249"
       inkscape:connector-curvature="0" />
    <path
       style="fill:#93ac93;fill-opacity:1;stroke:#374837;stroke-width:1px;stroke-linecap:butt;stroke-linejoin:miter;stroke-opacity:1"
       d="m 296.58074,581.77689 c 0.36279,4.01512 3.0269,7.83778 4.75726,11.29849 0.84869,1.69738 3.01943,4.80341 4.1626,5.94657 1.51086,1.51086 9.51452,3.74395 9.51452,0.59466 0,-0.95697 1.03171,-0.3152 0.59465,-1.18931 -3.56199,-7.12398 -6.6594,-14.38995 -11.89314,-19.6237 -1.05876,-1.05876 -3.33572,-0.36242 -4.1626,-1.18931 -0.0595,-0.0595 -0.45591,-1.32807 -1.18932,-0.59466 -1.19754,1.19755 -1.15499,3.18481 -1.78397,4.75726 z"
       id="path20251"
       inkscape:connector-curvature="0" />
    <path
       style="fill:#93ac93;fill-opacity:1;stroke:#374837;stroke-width:1px;stroke-linecap:butt;stroke-linejoin:miter;stroke-opacity:1"
       d="m 316.20443,585.34484 c 1.55064,3.22425 2.68345,6.5562 4.1626,9.51451 2.32305,4.64609 12.96187,7.48935 9.51452,0.59466 -0.55501,-1.11003 0.55502,-3.05257 0,-4.1626 -1.34841,-2.69683 -9.24053,-11.75616 -10.70383,-12.48781 -1.41266,-0.70633 -2.3152,0.86027 -2.97329,1.18932 -2.09247,1.04623 -0.54325,3.99378 0,5.35192 z"
       id="path20253"
       inkscape:connector-curvature="0" />
    <path
       style="fill:#93ac93;fill-opacity:1;stroke:#374837;stroke-width:1px;stroke-linecap:butt;stroke-linejoin:miter;stroke-opacity:1"
       d="m 332.85484,588.91278 c 1.43701,2.61039 2.35023,5.29512 3.56794,7.73055 2.40716,4.81431 16.0127,8.83375 12.48781,1.78397 -1.62755,-3.2551 -2.47207,-7.32277 -4.1626,-10.70384 -1.30391,-2.60781 -10.10918,-8.08336 -10.10918,-3.56794"
       id="path20255"
       inkscape:connector-curvature="0" />
    <path
       style="fill:#93ac93;fill-opacity:1;stroke:#374837;stroke-width:1px;stroke-linecap:butt;stroke-linejoin:miter;stroke-opacity:1"
       d="m 473.58971,611.53965 c 9.97378,-2.16022 21.0178,-0.59466 30.32752,-0.59466 7.95761,0 15.69561,0 23.7863,0 4.54615,0 11.65178,-0.64825 16.05575,-0.59466 5.22477,0.0636 13.40056,-1.35592 18.43437,-1.78397 10.3202,-0.87756 0.20205,-5.14987 0,-5.35191 -5.1635,-5.16351 -24.66788,-4.16261 -33.30081,-4.16261 -14.56442,0 -30.5296,-0.59465 -46.38327,-0.59465 -2.61532,0 -8.12173,-1.39279 -9.51452,0 -1.0817,1.08169 -14.55095,-0.31549 -16.05575,1.18931 -0.43027,0.43027 8.57375,8.57375 9.51452,9.51452 0.90949,0.90949 5.40407,1.6859 7.13589,2.37863 z"
       id="path20297"
       inkscape:connector-curvature="0"
       sodipodi:nodetypes="csssscsssssc" />
    <path
       style="fill:#93ac93;fill-opacity:1;stroke:#374837;stroke-width:1px;stroke-linecap:butt;stroke-linejoin:miter;stroke-opacity:1"
       d="m 417.45269,557.21678 c -0.58822,0.0213 -1.04833,0.089 -1.34375,0.1875 -3.43266,1.14421 -7.19674,0.0117 -10.71875,1.1875 l 22,30.3125 c 2.46438,-2.46437 27.27716,-4.28023 33.90625,-5.9375 3.03889,-0.75972 12.79983,-0.98241 20.03125,-0.6875 0.92325,2.4066 1.94799,4.22924 3.75,6.03125 0.0566,0.0566 34.24941,-1.78125 38.0625,-1.78125 1.33668,0 6.90195,0.25431 7.75,-0.59375 0.65759,-0.65759 2.28796,-1.68188 3.09375,-1.65625 -0.692,-0.66963 -2.87919,-2.87919 -3.09375,-3.09375 -0.48797,-0.48797 -1.04966,-1.02651 -1.59375,-1.5625 1.37454,-0.14876 2.57271,-0.32554 3.5625,-0.5625 1.6463,2.11949 3.64908,4.41775 3.9375,4.96875 0.64938,-0.21206 2.77942,-0.65534 3.59375,-1.0625 1.96432,-0.98217 7.94813,-0.59375 10.09375,-0.59375 3.82514,0 29.81837,-1.84962 30.9375,-2.96875 0.73341,-0.73341 -0.53428,-1.12804 -0.59375,-1.1875 -0.46049,-0.4605 -1.0579,-1.48724 -1.65625,-2.625 1.45053,0.22119 2.84089,0.25143 4.03125,-0.34375 6.14081,-3.07041 14.93931,-1.25091 20.8125,-4.1875 0.95145,-0.47573 2.61104,0.47572 3.5625,0 8.03338,-4.0167 27.03295,-2.63306 31.52762,-4.15444 2.48273,-0.84036 33.35283,-2.4135 35.09738,-4.15806 0.73341,-0.73341 -0.53425,-1.128 -0.59375,-1.1875 -4.78461,-4.78461 -19.34303,-1.78125 -26.78125,-1.78125 -3.14915,0 -15.65218,-0.14248 -18.71447,-0.003 -5.23511,0.23893 -24.30782,0.59647 -30.03553,0.59647 -3.52918,0 -21.36127,0.57126 -23.78125,1.78125 -1.96957,0.98479 -11.1103,-1.1875 -13.6875,-1.1875 -7.96376,0 -35.00705,1.81015 -40.4375,0 -8.81265,-2.93755 -20.50299,-1.78125 -30.3125,-1.78125 -17.2256,0 -36.38313,-0.59375 -54.71875,-0.59375 -3.22787,0 -13.56998,-1.52433 -17.6875,-1.375 z m 119.34375,26.8125 c -0.24478,0.0799 -0.31194,0.125 0.0312,0.125 0.0371,0 0.0104,-0.0455 -0.0312,-0.125 z m -2.78125,0.25 c 0.10597,0.10234 0.4375,0.47582 0.4375,0.46875 0,-0.31341 -0.17226,-0.45223 -0.4375,-0.46875 z"
       id="path20238"
       inkscape:connector-curvature="0"
       sodipodi:nodetypes="ccccscssscscccsssccssssssssssssssccsccsc" />
    <path
       style="fill:#b7c8b7;stroke:#374837;stroke-width:1px;stroke-linecap:butt;stroke-linejoin:miter;stroke-opacity:1"
       d="m 329.29644,507.43553 c -11.68955,4.24531 -21.12387,8.29789 -25,13.6875 -3.03548,4.22071 -0.8803,11.86621 3.59375,19.625 2.80974,4.87258 11.92659,12.43282 21.34375,18.75 -3.59961,0.54361 -6.95649,1.697 -10.0625,3.25 -1.86547,0.93274 -6.86252,-0.85623 -8.3125,0.59375 -1.72261,1.72261 -6.69895,0.83715 -9.53125,1.78125 -3.9674,1.32247 -8.70526,0.19638 -13.0625,2.375 -4.05582,2.02791 -13.72009,-0.28058 -17.84375,1.78125 -4.75726,2.37863 -10.11321,-0.59466 -17.84375,0 -4.00932,0.30841 -15.43157,1.78125 -19.625,1.78125 -9.19361,0 -24.06278,-0.76231 -32.125,1.1875 -0.77521,0.18748 -8.30835,2.4104 -5.9375,4.78125 4.1195,4.1195 17.79789,1.17221 23.1875,2.96875 1.24604,0.41535 2.09499,1.1875 3.5625,1.1875 1.42461,0 3.84545,0.67765 5.375,1.1875 5.44856,1.81618 17.32084,-3.2302 22.59375,-0.59375 0.96551,0.48276 7.22655,1.08302 14.4375,1.625 0.18853,2.27819 0.54003,5.00879 1.03125,5.5 0.1402,0.1402 21.18657,-0.59375 23.78125,-0.59375 2.81626,0 4.08137,0.59375 7.125,0.59375 0.59466,0 1.64184,-0.424 2.125,-0.3125 -0.22956,-0.91043 -0.59552,-2.62307 -1.09375,-4.125 0.83193,-0.0318 1.71954,-0.0303 2.59375,-0.0625 0.20785,1.13446 -0.0234,3.9452 0.53125,4.5 0.13143,0.13143 16.32055,2.11695 16.65625,1.78125 0.32191,-0.32191 6.15879,-1.55996 7.125,-0.59375 0.55456,0.55456 11.99486,3.47389 12.5,2.96875 0.92339,-0.92339 0.2956,-4.05905 -0.5625,-6.90625 0.30261,-0.0378 0.60623,-0.0609 0.90625,-0.0937 0.46725,3.22446 1.20739,7.39489 1.4375,7.625 1.95849,1.95849 14.78844,-0.0865 16.0625,1.1875 2.07535,2.07535 10.66699,5.34375 14.28125,5.34375 1.10207,0 7.49655,2.5972 7.71875,2.375 0.45556,-0.45556 0.42333,-1.14413 0.21875,-1.875 1.68727,0.81314 3.11386,1.64511 3.9375,2.46875 2.01441,2.01441 10.27127,1.92752 11.90625,3.5625 1.75298,1.75298 5.5453,0.9914 8.3125,2.375 1.20053,0.60027 8.75753,1.60129 8.9375,1.78125 1.58074,1.58074 11.17446,1.47036 19.03125,0.6875 4.69019,1.78487 9.33799,3.71587 13.65625,5.875 2.40594,1.20298 5.76802,0.32892 8.34375,1.1875 8.82585,2.94195 17.29614,3.5625 26.75,3.5625 2.14632,0 22.76199,-1.61301 18.4375,-5.9375 -0.93835,-0.93835 -2.66477,-2.10227 -3.5625,-3 -0.79027,-0.79027 0.92158,-3.23467 0.59375,-3.5625 -0.87826,-0.87827 -1.8145,-2.44151 -2.375,-3.5625 -0.27525,-0.5505 -4.48618,-3.26805 -8.78125,-6.09375 0.99242,-2.68156 1.04899,-7.61149 2.21875,-8.78125 2.01859,-2.01859 1.34692,-5.06885 2.96875,-8.3125 5.42597,-10.85194 9.87718,-44.34592 14.875,-49.34375 1.3245,-1.32449 6.77907,-18.78344 6.53125,-19.03125 -1.18291,-1.18292 -12.74534,-4.93983 -15.4375,-3.59375 -3.25217,1.62609 -4.44078,6.22202 -6.5625,8.34375 -3.18774,3.18774 -5.46244,7.83744 -8.90625,11.28125 -1.08829,1.08828 -0.65544,4.84294 -1.78125,5.96875 -3.34751,3.34751 -10.18667,17.14261 -13.09375,21.40625 -2.73238,4.00742 -6.31653,10.22921 -10,15.25 -3.39725,-2.39541 -6.8598,-4.76605 -7.84375,-5.75 -2.92651,-2.92651 -12.40164,-5.87039 -15.4375,-8.90625 -4.16515,-4.16515 -13.75285,-9.35511 -19.625,-11.3125 -3.32551,-1.1085 -13.95584,-9.17459 -16.0625,-11.28125 -0.79288,-0.79287 -2.76963,-0.39463 -3.5625,-1.1875 -3.89746,-3.89746 -10.15685,-5.09405 -15.46875,-7.75 -13.63002,-6.815 -27.82991,-19.625 -45.1875,-19.625 z m -31.1875,81.15625 c 0.15338,0.6083 0.25,0.91087 0.25,0.3125 0,-0.19822 -0.089,-0.27533 -0.25,-0.3125 z"
       id="path20194"
       inkscape:connector-curvature="0" />
    <path
       sodipodi:type="inkscape:offset"
       inkscape:radius="-1.1227823"
       inkscape:original="M 379.40625 273.125 C 378.58897 273.125 377.5779 273.1409 377 273.71875 C 376.87683 273.84192 375.52937 275.52749 375.8125 276.09375 C 378.65994 281.78862 380.05276 288.64079 382.03125 295.6875 C 382.35422 295.81222 382.52881 295.98895 382.90625 296.09375 C 383.98915 296.39443 385.27106 296.62652 386.53125 296.84375 C 387.79144 297.06098 389.02703 297.278 390.0625 297.53125 C 391.09797 297.7845 391.90375 298.06 392.3125 298.46875 C 392.75074 298.90699 393.32347 299.20952 393.96875 299.40625 C 394.61403 299.60298 395.3372 299.71166 396.09375 299.8125 C 396.8503 299.91334 397.63419 300.00569 398.40625 300.15625 C 399.17831 300.30681 399.9332 300.49785 400.625 300.84375 C 401.22527 301.14389 403.43819 301.55847 405.5 301.90625 C 407.56181 302.25403 409.47251 302.53502 409.5625 302.625 C 409.95768 303.02018 410.88053 303.33154 412.125 303.53125 C 413.36947 303.73096 414.96094 303.83893 416.75 303.875 C 420.32812 303.9471 424.66535 303.70393 428.59375 303.3125 C 433.28394 305.09737 437.93174 307.02837 442.25 309.1875 C 442.85149 309.48825 443.52497 309.68061 444.21875 309.78125 C 444.91253 309.88189 445.64339 309.91791 446.375 309.9375 C 447.83823 309.9767 449.30588 309.9455 450.59375 310.375 C 452.80021 311.11049 455.00456 311.71561 457.1875 312.1875 C 459.37044 312.65939 461.54873 313.01981 463.75 313.28125 C 468.15254 313.80413 472.61682 313.9375 477.34375 313.9375 C 477.38565 313.9375 477.63181 313.90745 477.6875 313.90625 C 474.86816 312.49556 471.83484 311.45984 470.375 310 C 469.78035 309.40534 467.40716 310.59466 466.8125 310 C 466.31694 309.50445 466.7143 308.12055 466.21875 307.625 C 465.92799 307.33424 459.10314 309.44688 457.875 308.21875 C 456.58761 306.93136 455.31163 304.43664 453.71875 302.84375 C 451.81726 300.94227 447.72493 302.78745 446 301.0625 C 445.20713 300.26962 445.60537 298.29288 444.8125 297.5 C 443.95474 296.64225 440.56601 298.06426 439.4375 297.5 C 436.03397 295.79824 436.33848 294.40097 434.09375 292.15625 C 432.85986 290.92235 428.11818 294.49319 426.375 292.75 C 425.53689 291.9119 428.05482 290.86732 426.96875 289.78125 C 425.84534 288.65784 420.47803 291.63427 418.625 289.78125 C 418.22856 289.38481 419.02144 287.80269 418.625 287.40625 C 418.23379 287.01504 413.75068 288.35904 413.28125 288.59375 C 409.22242 290.62317 407.91845 286.79344 406.75 285.625 C 404.84918 283.72418 399.78789 288.19414 398.40625 286.8125 C 397.57413 285.98038 398.41915 285.05694 397.8125 283.84375 C 396.64355 281.50585 393.21653 285.18528 391.875 283.84375 C 391.20837 283.17712 391.68375 281.34187 390.6875 280.84375 C 389.31436 280.15718 385.81969 280.72594 384.75 279.65625 C 384.35356 279.25981 385.14644 277.67769 384.75 277.28125 C 383.75891 276.29016 381.58485 276.4911 380.59375 275.5 C 379.96693 274.87318 380.29271 273.125 379.40625 273.125 z "
       style="fill:#93ac93;fill-opacity:1;stroke:#ffffff;stroke-width:1px;stroke-linecap:butt;stroke-linejoin:miter;stroke-opacity:0"
       id="path21649"
       d="m 379,274.3125 c -0.53773,0.0459 -1.12713,0.0959 -1.21875,0.1875 0.15082,-0.15082 -0.033,0.0869 -0.15625,0.25 -0.12327,0.16309 -0.2718,0.37838 -0.40625,0.59375 -0.12857,0.20595 -0.26494,0.3783 -0.3125,0.5 2.79732,5.70007 4.22438,12.32261 6.09375,19.0625 0.0427,0.024 0.17762,0.0823 0.21875,0.0937 1.00632,0.27942 2.24613,0.53386 3.5,0.75 1.26248,0.21762 2.5331,0.42045 3.625,0.6875 1.08743,0.26596 1.99792,0.49792 2.75,1.25 0.27507,0.27507 0.67208,0.49911 1.1875,0.65625 0.53178,0.16213 1.22404,0.24449 1.96875,0.34375 0.74486,0.0993 1.54746,0.21362 2.375,0.375 0.81224,0.1584 1.66388,0.36319 2.5,0.78125 -0.009,-0.004 0.76447,0.22692 1.625,0.40625 0.86053,0.17933 1.91378,0.38982 2.9375,0.5625 1.02372,0.17268 2.02592,0.31108 2.78125,0.4375 0.37767,0.0632 0.69017,0.13844 0.9375,0.1875 0.12367,0.0245 0.20743,0.035 0.3125,0.0625 0.0525,0.0137 0.11289,0.0353 0.1875,0.0625 0.0746,0.0272 0.13232,-0.0239 0.4375,0.28125 -0.0143,-0.0143 0.8188,0.40921 1.96875,0.59375 1.15911,0.18601 2.71142,0.27707 4.46875,0.3125 3.50901,0.0707 7.79458,-0.17461 11.6875,-0.5625 A 1.1228946,1.1228946 0 0 1 429,302.25 c 4.71133,1.79292 9.38301,3.754 13.75,5.9375 0.47292,0.23647 1.03021,0.38247 1.625,0.46875 0.62058,0.09 1.31645,0.13711 2.03125,0.15625 1.42719,0.0382 2.98505,-0.0156 4.53125,0.5 2.1689,0.72297 4.35824,1.31826 6.5,1.78125 2.14757,0.46424 4.2701,0.80508 6.4375,1.0625 2.71651,0.32263 5.60599,0.32212 8.4375,0.40625 -1.00987,-0.52362 -1.99804,-1.06054 -2.71875,-1.78125 0.2477,0.2477 0.31651,0.17622 0.125,0.1875 -0.19151,0.0113 -0.53527,0.0507 -0.90625,0.125 -0.37098,0.0743 -0.77946,0.16162 -1.21875,0.1875 -0.43929,0.0259 -1.01748,0.045 -1.5625,-0.5 -0.72341,-0.7234 -0.60045,-1.43639 -0.625,-1.90625 -0.002,-0.0312 0.003,-0.002 0,-0.0312 -0.0843,0.0158 -0.12426,0.0126 -0.21875,0.0312 -0.68242,0.13453 -1.61971,0.32621 -2.59375,0.5 -0.97404,0.17379 -1.98395,0.32026 -2.90625,0.34375 -0.9223,0.0235 -1.80524,0.0697 -2.59375,-0.71875 -1.53792,-1.53792 -2.76585,-3.98459 -4.15625,-5.375 -0.53756,-0.53756 -1.65986,-0.63293 -3.125,-0.625 -1.46514,0.008 -3.27582,0.1617 -4.59375,-1.15625 -0.79279,-0.7928 -0.83884,-1.71384 -0.9375,-2.40625 -0.0987,-0.6924 -0.24992,-1.15617 -0.25,-1.15625 0.15662,0.15662 0.0826,0.0597 -0.25,0.0625 -0.33264,0.003 -0.83752,0.069 -1.375,0.15625 -0.53748,0.0872 -1.11907,0.20293 -1.6875,0.25 -0.56843,0.0471 -1.12936,0.0759 -1.78125,-0.25 -1.82369,-0.91184 -2.80336,-1.84935 -3.5,-2.78125 -0.67426,-0.90196 -1.11025,-1.71175 -2.0625,-2.6875 -0.0768,-0.007 -0.27272,-0.0224 -0.53125,0.0312 -0.51706,0.10738 -1.26631,0.39014 -2.0625,0.65625 -0.79619,0.26611 -1.6501,0.53756 -2.53125,0.625 -0.88115,0.0874 -1.90496,-0.0612 -2.65625,-0.8125 -0.24538,-0.24537 -0.45505,-0.59904 -0.5,-0.96875 -0.0449,-0.36971 0.0536,-0.70145 0.15625,-0.9375 0.20532,-0.4721 0.44623,-0.73818 0.625,-0.96875 0.0172,-0.0222 0.0158,-0.0101 0.0312,-0.0312 -0.0909,-0.008 -0.004,0.0213 -0.3125,0.0625 -0.58713,0.0784 -1.40169,0.27781 -2.28125,0.46875 -0.87956,0.19094 -1.81328,0.37391 -2.75,0.375 -0.93672,0.001 -1.95759,-0.20759 -2.71875,-0.96875 -0.49547,-0.49547 -0.45719,-1.00959 -0.4375,-1.34375 0.0146,-0.24759 0.0549,-0.42871 0.0937,-0.625 -0.37464,0.0716 -0.79474,0.13272 -1.25,0.25 -0.59323,0.15282 -1.18195,0.32148 -1.65625,0.46875 -0.4743,0.14727 -0.95115,0.35057 -0.8125,0.28125 -2.32512,1.16256 -4.37947,0.61611 -5.59375,-0.4375 -1.21428,-1.05361 -1.92056,-2.45181 -2.21875,-2.75 -0.14346,-0.14346 -0.35421,-0.19321 -0.9375,-0.0937 -0.58329,0.0995 -1.39705,0.40321 -2.21875,0.75 -0.8217,0.34679 -1.66711,0.73615 -2.5,0.96875 -0.41645,0.1163 -0.81727,0.17944 -1.28125,0.15625 -0.46398,-0.0232 -1.00534,-0.19284 -1.40625,-0.59375 -0.69728,-0.69728 -0.75264,-1.66259 -0.71875,-2.1875 0.0339,-0.52491 0.0653,-0.74435 -0.0937,-1.0625 -0.14142,-0.28283 -0.0452,-0.18557 -0.25,-0.1875 -0.20482,-0.002 -0.69464,0.12554 -1.25,0.34375 -0.55536,0.21821 -1.17964,0.52983 -1.875,0.6875 -0.69536,0.15767 -1.6579,0.12335 -2.34375,-0.5625 -0.79196,-0.79196 -0.73131,-1.63622 -0.8125,-2.1875 -0.0406,-0.27564 -0.0871,-0.47216 -0.125,-0.5625 -0.0379,-0.0903 0.002,-0.046 0.0312,-0.0312 -0.23487,-0.11743 -1.44545,-0.26432 -2.65625,-0.34375 -1.2108,-0.0794 -2.52501,-0.025 -3.5625,-1.0625 -0.49547,-0.49547 -0.45719,-1.00959 -0.4375,-1.34375 0.0197,-0.33416 0.0754,-0.59643 0.125,-0.84375 0.025,-0.12477 0.0464,-0.18488 0.0625,-0.28125 -0.2551,-0.15955 -0.64761,-0.33401 -1.3125,-0.5 -0.79129,-0.19754 -1.78112,-0.37487 -2.59375,-1.1875 -0.75122,-0.75122 -0.71869,-1.51986 -0.8125,-1.96875 z"
       transform="translate(0,308.2677)" />
    <path
       sodipodi:type="inkscape:offset"
       inkscape:radius="-0.7994498"
       inkscape:original="M 348.96875 257.625 C 347.53747 257.72561 346.03995 258.23002 344.8125 258.84375 C 343.96475 259.26723 339.44811 257.89563 338.0625 259.28125 C 337.43177 259.91198 337.00573 260.74427 336.375 261.375 C 335.30834 262.44166 329.94203 261.01336 328.40625 261.78125 C 327.02633 262.47121 325.50924 264.27202 324.625 265.15625 C 323.62512 266.15613 317.49865 263.46875 316.21875 263.46875 C 311.86835 263.46875 309.32867 264.39816 306.125 266 C 303.39373 267.36563 299.01297 263.44664 295.59375 265.15625 C 293.44809 266.22908 290.54415 268.09375 288.46875 268.09375 C 285.78767 268.09375 282.60325 266.85733 280.03125 266 C 276.7559 264.90822 272.75351 268.25176 269.9375 266.84375 C 268.06571 265.90786 263.46709 264.81305 261.125 265.59375 C 259.8426 266.02121 251.60148 268.81636 251.03125 268.53125 C 247.37433 266.70279 243.02455 266.20648 239.25 268.09375 C 238.29232 268.57264 236.91007 268.02935 235.90625 268.53125 C 234.9284 269.02014 229.81561 266.93594 225.8125 268.9375 C 224.09765 269.79492 219.69937 268.73062 219.0625 268.09375 C 218.46708 267.49833 216.59517 268.53125 216.125 268.53125 C 209.75665 268.53125 207.23589 267.96057 203.5 270.96875 C 204.35859 271.00125 205.1138 271.12448 206 271.125 C 208.30412 271.126 210.64537 271.05295 212.75 271.09375 C 214.85463 271.13445 216.7151 271.26961 218.0625 271.71875 C 218.68552 271.92642 219.22982 272.22379 219.78125 272.46875 C 220.33268 272.71371 220.89125 272.90625 221.625 272.90625 C 223.04961 272.90625 225.47045 273.5839 227 274.09375 C 227.68107 274.32077 228.48737 274.45902 229.34375 274.5 C 230.20013 274.541 231.11294 274.49495 232.09375 274.40625 C 234.05537 274.22975 236.22087 273.85251 238.375 273.5 C 240.52913 273.14749 242.68534 272.82397 244.625 272.75 C 245.59483 272.713 246.50384 272.72595 247.34375 272.84375 C 248.18366 272.96163 248.93464 273.17044 249.59375 273.5 C 250.0765 273.74138 251.91268 274.03434 254.5 274.3125 C 257.08732 274.59066 260.42577 274.85401 264.03125 275.125 C 264.12555 276.26409 264.26466 277.53368 264.4375 278.5625 C 264.61034 279.59132 264.81689 280.37939 265.0625 280.625 C 265.2027 280.7652 286.24907 280.03125 288.84375 280.03125 C 291.66001 280.03125 292.92512 280.625 295.96875 280.625 C 296.56341 280.625 297.61059 280.201 298.09375 280.3125 C 297.86419 279.40207 297.49823 277.68943 297 276.1875 C 297.83193 276.1557 298.71954 276.1572 299.59375 276.125 C 299.69768 276.69223 299.7125 277.67991 299.75 278.59375 C 299.7875 279.50759 299.8477 280.3476 300.125 280.625 C 300.1907 280.6907 304.30058 281.21665 308.40625 281.6875 C 312.51192 282.15835 316.6134 282.5741 316.78125 282.40625 C 316.94221 282.24529 318.50476 281.85397 320.125 281.625 C 320.93512 281.51051 321.74939 281.45397 322.4375 281.46875 C 323.12561 281.48355 323.6647 281.57095 323.90625 281.8125 C 324.18353 282.08978 327.19496 282.98274 330.1875 283.71875 C 333.18004 284.45476 336.15368 285.03382 336.40625 284.78125 C 336.6371 284.5504 336.78616 284.18706 336.84375 283.71875 C 336.90135 283.25044 336.8868 282.69012 336.8125 282.0625 C 336.66371 280.80726 336.2728 279.2986 335.84375 277.875 C 336.14636 277.8372 336.44998 277.81405 336.75 277.78125 C 337.21725 281.00571 337.95739 285.17614 338.1875 285.40625 C 338.43231 285.65106 338.86551 285.83475 339.40625 285.96875 C 339.94699 286.10275 340.62594 286.1982 341.375 286.25 C 342.87313 286.3536 344.69422 286.33485 346.5 286.28125 C 348.30578 286.22765 350.08743 286.13821 351.5 286.15625 C 352.91257 286.17425 353.93149 286.27525 354.25 286.59375 C 354.76884 287.11259 355.72121 287.71424 356.875 288.3125 C 358.02879 288.91076 359.41419 289.52424 360.84375 290.0625 C 362.27331 290.60076 363.7476 291.06741 365.09375 291.40625 C 366.4399 291.74509 367.62768 291.9375 368.53125 291.9375 C 369.63332 291.9375 376.0278 294.5347 376.25 294.3125 C 376.47778 294.08472 376.60169 293.82045 376.625 293.5 C 376.6483 293.17955 376.571 292.80293 376.46875 292.4375 C 378.15602 293.25064 379.58261 294.08261 380.40625 294.90625 C 380.90985 295.40985 381.82335 295.79307 382.90625 296.09375 C 383.98915 296.39443 385.27106 296.62652 386.53125 296.84375 C 387.79144 297.06098 389.02703 297.278 390.0625 297.53125 C 390.4965 297.63739 390.65559 297.81013 391 297.9375 C 390.76949 296.84157 390.9027 295.70444 390.625 294.59375 C 389.21813 288.96629 386.33237 283.47724 383.90625 278.625 C 383.13808 277.08867 382.85522 275.04273 381.8125 274 C 379.83483 272.02234 371.79925 263.94649 370.03125 263.0625 C 367.08306 261.5884 363.93088 260.33713 362.03125 258.4375 C 360.58536 256.99161 353.57189 259.63439 352.78125 258.84375 C 351.76508 257.82758 350.40003 257.52439 348.96875 257.625 z "
       style="fill:#93ac93;fill-opacity:1;stroke:#ffffff;stroke-width:1px;stroke-linecap:butt;stroke-linejoin:miter;stroke-opacity:0"
       id="path21489"
       d="m 349.03125,258.4375 c -1.28375,0.0902 -2.72347,0.54923 -3.875,1.125 -0.62016,0.30979 -1.03198,0.1748 -1.625,0.125 -0.59302,-0.0498 -1.28815,-0.13107 -1.96875,-0.1875 -0.6806,-0.0564 -1.33573,-0.0935 -1.875,-0.0312 -0.53927,0.0622 -0.91629,0.22878 -1.0625,0.375 -0.50936,0.50936 -0.9354,1.34165 -1.6875,2.09375 -0.56674,0.56674 -1.25342,0.62527 -2,0.65625 -0.74658,0.031 -1.59885,-0.0295 -2.4375,-0.0937 -0.83865,-0.0643 -1.68457,-0.14757 -2.375,-0.15625 -0.69043,-0.009 -1.24629,0.0919 -1.375,0.15625 -1.09188,0.54594 -2.61779,2.27406 -3.5625,3.21875 -0.33261,0.33261 -0.72833,0.40696 -1.09375,0.4375 -0.36542,0.0305 -0.75165,-0.001 -1.15625,-0.0625 -0.8092,-0.12258 -1.73321,-0.37838 -2.65625,-0.65625 -0.92304,-0.27787 -1.83782,-0.58049 -2.59375,-0.8125 -0.75593,-0.23201 -1.42854,-0.34375 -1.46875,-0.34375 -4.23654,0 -6.58685,0.85592 -9.75,2.4375 -0.89608,0.44804 -1.87491,0.44557 -2.8125,0.28125 -0.93759,-0.16432 -1.85796,-0.48636 -2.78125,-0.78125 -1.84659,-0.58978 -3.56859,-1.0282 -4.9375,-0.34375 -1.03615,0.51808 -2.29961,1.25533 -3.59375,1.875 -1.29414,0.61967 -2.59787,1.15625 -3.875,1.15625 -2.92687,0 -6.14645,-1.30924 -8.6875,-2.15625 -1.31273,-0.43758 -2.98199,0.0373 -4.75,0.5625 -1.76801,0.52519 -3.66759,1.13496 -5.4375,0.25 -0.81319,-0.40659 -2.42319,-0.90635 -4.03125,-1.1875 -1.60806,-0.28115 -3.27173,-0.33651 -4.1875,-0.0312 -0.63266,0.21088 -3.00826,1.02955 -5.3125,1.75 -1.15212,0.36023 -2.29163,0.70283 -3.1875,0.9375 -0.44794,0.11733 -0.83539,0.19322 -1.15625,0.25 -0.16043,0.0284 -0.2919,0.0547 -0.4375,0.0625 -0.1456,0.008 -0.26904,0.0686 -0.59375,-0.0937 -3.48187,-1.74094 -7.58908,-2.18983 -11.09375,-0.4375 -0.72462,0.36235 -1.44321,0.29441 -2.03125,0.28125 -0.58804,-0.0132 -1.04507,0.0225 -1.3125,0.15625 -0.34846,0.17422 -0.60814,0.16403 -0.90625,0.15625 -0.29811,-0.008 -0.61687,-0.0444 -0.96875,-0.0937 -0.70376,-0.0988 -1.55012,-0.24238 -2.46875,-0.34375 -1.83727,-0.20273 -3.96949,-0.20276 -5.75,0.6875 -1.2203,0.61015 -2.77961,0.47041 -4.25,0.21875 -0.7352,-0.12583 -1.42419,-0.30838 -2,-0.5 -0.57581,-0.19162 -1.00042,-0.31292 -1.40625,-0.71875 0.081,0.081 0.11913,0.0551 -0.0312,0.0625 -0.15038,0.007 -0.41762,0.0425 -0.6875,0.125 -0.26988,0.0825 -0.54905,0.18934 -0.8125,0.28125 -0.26345,0.0919 -0.43349,0.21875 -0.84375,0.21875 -3.20806,0 -5.40893,-0.15672 -7.1875,0.0625 -1.0353,0.12761 -1.95708,0.45302 -2.875,0.90625 2.26683,-3.7e-4 4.57266,-0.0722 6.6875,-0.0312 2.12973,0.0412 4.0513,0.18376 5.5625,0.6875 0.7077,0.2359 1.27082,0.5545 1.78125,0.78125 0.51042,0.22674 0.93735,0.34375 1.53125,0.34375 1.67813,0 4.05698,0.72733 5.625,1.25 0.59387,0.19795 1.33043,0.30573 2.125,0.34375 0.80071,0.0383 1.69503,0.0244 2.65625,-0.0625 1.91266,-0.17209 4.05918,-0.55285 6.21875,-0.90625 2.1611,-0.35365 4.33793,-0.70476 6.34375,-0.78125 0.99595,-0.038 1.9645,-0.003 2.875,0.125 0.90364,0.12682 1.7132,0.34097 2.46875,0.71875 -0.006,-0.003 0.61811,0.17816 1.4375,0.3125 0.81939,0.13434 1.93476,0.29946 3.21875,0.4375 2.56797,0.27608 5.89634,0.5104 9.5,0.78125 a 0.79952975,0.79952975 0 0 1 0.71875,0.75 c 0.093,1.12334 0.2396,2.38304 0.40625,3.375 0.0833,0.49599 0.19184,0.91226 0.28125,1.21875 0.0416,0.14248 0.0263,0.11285 0.0625,0.1875 0.13436,2.2e-4 0.24182,0.002 0.4375,0 0.58705,-0.007 1.45375,-0.038 2.46875,-0.0625 2.03,-0.049 4.72992,-0.10453 7.53125,-0.1875 5.60265,-0.16594 11.47103,-0.375 12.84375,-0.375 2.92862,0 4.18534,0.59375 7.125,0.59375 0.10732,0 0.52768,-0.0611 0.9375,-0.15625 0.0563,-0.0131 0.13143,-0.0169 0.1875,-0.0312 -0.22837,-0.95562 -0.46851,-2.05632 -0.84375,-3.1875 a 0.79952975,0.79952975 0 0 1 0.71875,-1.0625 c 0.85458,-0.0327 1.74034,-0.0311 2.59375,-0.0625 a 0.79952975,0.79952975 0 0 1 0.8125,0.65625 c 0.13115,0.7158 0.15061,1.69487 0.1875,2.59375 0.0184,0.44944 0.0172,0.85767 0.0625,1.15625 0.0246,0.16243 0.0105,0.13108 0.0312,0.1875 0.0999,0.0156 0.17113,0.0422 0.3125,0.0625 0.45135,0.0648 1.10292,0.15103 1.875,0.25 1.54416,0.19795 3.60689,0.45247 5.65625,0.6875 2.04936,0.23503 4.10853,0.45301 5.65625,0.59375 0.77386,0.0704 1.42448,0.10332 1.875,0.125 0.21124,0.0102 0.36699,0.0331 0.46875,0.0312 0.007,-1.2e-4 0.0251,1.7e-4 0.0312,0 0.0186,-0.007 0.0436,-0.0543 0.0625,-0.0625 0.0984,-0.0426 0.1996,-0.0572 0.3125,-0.0937 0.2258,-0.073 0.49183,-0.17336 0.8125,-0.25 0.64135,-0.15328 1.44391,-0.28792 2.28125,-0.40625 0.8475,-0.11977 1.72334,-0.20351 2.46875,-0.1875 0.74678,0.0161 1.40609,-1.6e-4 2,0.59375 -0.1453,-0.1453 -0.0835,-0.0694 0,-0.0312 0.0835,0.0381 0.2031,0.0936 0.375,0.15625 0.3438,0.12536 0.8345,0.29652 1.40625,0.46875 1.1435,0.34445 2.64115,0.7288 4.125,1.09375 1.48385,0.36495 2.97232,0.70599 4.09375,0.90625 0.56072,0.10013 1.02756,0.16099 1.34375,0.1875 0.0474,0.004 0.054,-0.002 0.0937,0 0.0536,-0.0969 0.12646,-0.16403 0.15625,-0.40625 0.0462,-0.37543 0.038,-0.88419 -0.0312,-1.46875 -0.13834,-1.16706 -0.51477,-2.65986 -0.9375,-4.0625 a 0.79952975,0.79952975 0 0 1 0.65625,-1 c 0.32804,-0.041 0.62376,-0.0629 0.90625,-0.0937 a 0.79952975,0.79952975 0 0 1 0.875,0.65625 c 0.23205,1.60135 0.5428,3.44539 0.8125,4.90625 0.13485,0.73043 0.27062,1.3903 0.375,1.84375 0.0491,0.21339 0.0917,0.35585 0.125,0.46875 0.0976,0.07 0.32915,0.20821 0.75,0.3125 0.47512,0.11774 1.12895,0.20057 1.84375,0.25 1.44703,0.10007 3.23588,0.0845 5.03125,0.0312 1.795,-0.0533 3.57636,-0.14358 5.03125,-0.125 0.72289,0.009 1.37246,0.0487 1.90625,0.125 0.53379,0.0763 0.97547,0.13173 1.40625,0.5625 0.39147,0.39147 1.31856,0.98231 2.4375,1.5625 1.1199,0.58069 2.47351,1.19106 3.875,1.71875 1.40253,0.52808 2.8446,0.98234 4.15625,1.3125 1.30767,0.32915 2.45992,0.5 3.25,0.5 0.58952,0 1.09899,0.19176 1.875,0.4375 0.77601,0.24574 1.71028,0.595 2.59375,0.90625 0.88347,0.31125 1.71267,0.60578 2.34375,0.8125 0.19589,0.0642 0.32502,0.0828 0.46875,0.125 0.006,-0.15409 -0.0366,-0.43397 -0.125,-0.75 a 0.79952975,0.79952975 0 0 1 1.125,-0.9375 c 1.72063,0.82922 3.19657,1.66532 4.15625,2.625 0.30519,0.30519 1.1304,0.68391 2.15625,0.96875 1.02837,0.28554 2.27556,0.53355 3.53125,0.75 1.19629,0.20621 2.36991,0.41114 3.40625,0.65625 -0.0397,-0.66512 -0.0831,-1.39487 -0.21875,-1.9375 -1.37415,-5.49658 -4.22458,-10.94916 -6.65625,-15.8125 -0.43001,-0.86002 -0.68239,-1.75871 -0.96875,-2.5625 -0.28636,-0.80379 -0.60669,-1.48169 -0.96875,-1.84375 -0.99076,-0.99075 -3.50066,-3.50698 -5.96875,-5.875 -1.23404,-1.18401 -2.45021,-2.31908 -3.46875,-3.21875 -1.01854,-0.89967 -1.90184,-1.57592 -2.125,-1.6875 -2.90617,-1.45309 -6.13056,-2.69306 -8.21875,-4.78125 -0.0469,-0.0469 -0.55096,-0.21662 -1.34375,-0.1875 -0.79279,0.0291 -1.80814,0.18671 -2.8125,0.375 -1.00436,0.18829 -2.00833,0.37966 -2.84375,0.5 -0.41771,0.0602 -0.80586,0.10182 -1.15625,0.0937 -0.35039,-0.008 -0.70725,0.0115 -1.09375,-0.375 -0.81927,-0.81927 -1.90375,-1.05899 -3.1875,-0.96875 z"
       transform="translate(0,308.2677)" />
    <path
       style="fill:#b7c8b7;fill-opacity:1;stroke:#374837;stroke-width:1px;stroke-linecap:butt;stroke-linejoin:miter;stroke-opacity:1"
       d="m 474.38329,615.0777 c 0,0.79288 -1.58575,0 -2.37863,0 -3.0378,0 -5.33479,0.59466 -8.3252,0.59466 -8.34151,0 -23.78979,-3.86353 -31.51684,0 -1.2686,0.6343 -3.48866,-0.6343 -4.75726,0 -5.56537,2.78269 -17.43546,1.70782 -23.19164,-0.59466 -0.59465,-0.79287 -2.57684,-1.78397 -1.78397,-2.37863 -3.63819,-3.44179 19.0526,-5.87661 29.13821,-10.10917 2.50726,-1.25363 6.34764,0.0968 8.91986,-1.18932 2.61798,-1.30898 5.88624,0.655 7.73055,-1.18931 0.24734,-0.24735 5.69923,-0.24735 5.94657,0"
       id="path20295"
       inkscape:connector-curvature="0"
       sodipodi:nodetypes="csssscccscc" />
    <path
       style="fill:none;stroke:#374837;stroke-width:1px;stroke-linecap:butt;stroke-linejoin:miter;stroke-opacity:1"
       d="m 328.96455,558.14441 c 5.1504,-2.42063 23.0788,-2.15038 31.95696,6.72778 1.07934,1.07934 3.96649,0.6026 5.04583,1.68194 5.23438,5.23438 11.90045,12.74143 17.66043,18.5014 1.54178,1.54178 1.8221,4.34502 3.36389,5.88681"
       id="path20300"
       inkscape:connector-curvature="0" />
    <path
       style="fill:none;stroke:#374837;stroke-width:1px;stroke-linecap:butt;stroke-linejoin:miter;stroke-opacity:1"
       d="m 713.02084,450.41675 c -2.64193,-3.3333 -3.07066,-7.58081 -5.00738,-10.42505 -0.94279,-1.38458 -2.29797,-8.61214 -3.41642,-11.62727"
       id="path20988"
       inkscape:connector-curvature="0"
       sodipodi:nodetypes="csc" />
    <path
       style="fill:none;stroke:#1c241c;stroke-width:1px;stroke-linecap:butt;stroke-linejoin:miter;stroke-opacity:1"
       d="m 706.62717,436.34981 c 0.48197,1.7504 2.61876,9.55678 3.15365,10.09167"
       id="path21158"
       inkscape:connector-curvature="0" />
    <path
       style="fill:#93ac93;fill-opacity:1;stroke:#374837;stroke-width:1px;stroke-linecap:butt;stroke-linejoin:miter;stroke-opacity:1"
       d="m 694.85689,462.16173 c -0.39644,-0.0991 -1.28842,0.0991 -1.18931,-0.29733 0.0991,-0.39643 1.59795,0.29733 1.18931,0.29733 -1.68424,0 -6.71748,0.71574 -7.13589,0.29733 -0.44599,-0.44599 -0.74332,-1.04065 -1.18931,-1.48664 -0.57545,-0.57545 -0.19818,-2.77511 0.29733,-3.27062 1.8347,-1.8347 4.96233,-3.51434 7.69447,-4.88041 1.36604,-0.68302 1.83972,-1.54239 2.67596,-2.37863 1.76355,-1.76356 5.31362,-2.18111 6.5773,-3.44479 1.42087,-1.42087 5.4064,-0.6219 7.73055,-1.78397 0.79287,-0.39644 2.18041,0.39644 2.97328,0 1.7952,-0.8976 19.363,-0.2607 20.51568,0.89198 2.2751,2.2751 6.20711,3.08516 8.32521,5.20326 0.56516,0.56516 2.8137,1.03519 3.7166,1.48664 1.47464,0.73732 2.44833,0.96168 3.27062,1.78397 0.41723,0.41723 2.25873,1.06941 2.67596,1.48665 1.44998,1.44998 2.62734,1.73535 4.01394,3.12195 1.86612,1.86612 -2.28265,5.35191 -3.56795,5.35191"
       id="path20927"
       inkscape:connector-curvature="0"
       sodipodi:nodetypes="ccsssssssssssssssc" />
    <path
       style="fill:#374837;fill-opacity:1;stroke:#1c241c;stroke-width:1px;stroke-linecap:butt;stroke-linejoin:miter;stroke-opacity:1"
       d="m 692.12039,474.19357 c 0.24456,-1.97779 -3.82598,-0.46209 -4.62535,-1.26145 -0.10035,-0.10036 0.92164,-6.88911 1.26146,-7.56876 0.45949,-0.91897 -0.47101,-4.57482 -0.42048,-4.62535 1.12773,-1.12773 3.19097,-1.50902 4.20486,-2.52292 1.94896,-1.94896 6.5466,-2.50495 9.42487,-3.46591 3.57948,-1.19509 28.48876,-1.16171 31.18812,-0.54365 1.54576,0.35393 4.62105,0.71158 6.13313,1.18932 2.60794,0.82396 6.25215,0.61166 7.37345,1.73295 1.8807,1.8807 6.12063,2.75674 7.98924,4.62535 0.42049,0.42049 0.84097,0.84098 1.26146,1.26146 0.26887,0.26887 -1.27385,5.14277 -1.55879,5.71264 -0.80986,1.61973 0.53938,4.92695 -0.84097,6.3073 -0.24695,0.24694 -18.79147,2.9434 -20.60383,2.9434"
       id="path20925"
       inkscape:connector-curvature="0"
       sodipodi:nodetypes="cccssssssssscc" />
    <path
       style="fill:#93ac93;fill-opacity:1;stroke:#374837;stroke-width:1px;stroke-linecap:butt;stroke-linejoin:miter;stroke-opacity:1"
       d="m 722.40215,462.85453 c -4.43198,0.31129 -20.16566,-0.0531 -21.03125,0.8125 -5.4508,5.4508 -14.45445,7.94244 -14.28958,8.83229 6.74925,8.78795 14.40833,24.58646 12.60208,56.79271 0.8469,19.52748 0,40.72057 0,56.34375 0,6.97156 -0.96484,21.5729 -1.6875,26.90625 -1.05448,7.78225 0.99977,16.48588 0.84375,21.84375 -0.25365,8.71084 0,29.69411 0,38.6875 l 0,6.75 c 0,0.94046 -0.97834,2.36541 -0.84375,2.5 0.38875,0.38876 2.02349,-0.25387 2.53125,0 10.22763,5.11382 18.8757,5.2809 29.4375,0 2.81493,-1.40746 5.75408,-0.33016 8.40625,-1.65625 0.4714,-0.2357 1.25931,-0.4118 2.09375,-0.5625 0.39412,1.68429 0.83675,3.01725 1.28125,3.90625 l -1.0625,-3.9375 c 1.43216,-0.25433 2.97002,-0.50126 3.5625,-1.09375 0.75696,-0.75695 -0.0909,-20.30962 -0.8125,-21.03125 -3.20642,-3.20641 -4.17199,-42.12476 -0.84375,-48.78125 1.56683,-3.13364 0.72492,-21.15008 -0.84375,-22.71875 -0.14744,-0.14744 0,-48.92362 0,-52.125 0,-4.12102 0.91083,-14.67803 0.46875,-21.375 0.12631,-0.61517 0.26714,-1.12803 0.375,-1.34375 0.76302,-1.52604 1.65625,-5.78815 1.65625,-6.71875 0,-12.58436 8.41458,-26.08233 8.41458,-27.32951 0,-0.63206 3.47413,-1.16235 1.26424,-4.63369 -2.68667,-4.22027 -6.83876,-3.64306 -10.12086,-6.92516 -2.18751,-2.18751 -8.85022,-2.33039 -12.15171,-2.33039 -4.08478,-0.44132 -6.06774,-1.18211 -9.25,-0.8125 z"
       id="path20920"
       inkscape:connector-curvature="0"
       sodipodi:nodetypes="csccsssssscssccccsssscssssscc" />
    <path
       sodipodi:type="inkscape:offset"
       inkscape:radius="-1.0709858"
       inkscape:original="M 530.125 101.3125 C 528.3049 101.52003 525.50267 102.96608 524.78125 103.6875 C 523.40198 105.06677 519.80359 104.88391 518.46875 106.21875 C 517.79207 106.89544 516.97103 106.71176 516.3125 106.625 C 517.74944 108.5988 519.20929 110.68609 520.59375 113.40625 C 521.41321 115.01632 522.19092 116.76658 522.9375 118.6875 C 523.68408 120.60842 524.39809 122.70027 525.03125 124.96875 C 525.66441 127.23723 526.23953 129.69101 526.71875 132.34375 C 527.19797 134.99649 527.59025 137.86379 527.875 140.9375 C 528.15975 144.01121 528.32525 147.31236 528.375 150.84375 C 528.4248 154.37514 528.3508 158.13047 528.125 162.15625 C 528.54845 171.91999 528.54336 182.08915 528.4375 191.78125 C 528.33164 201.47335 528.125 210.68841 528.125 218.5 C 528.125 221.98578 527.89404 227.37405 527.5625 232.5625 C 527.23096 237.75095 526.79883 242.73958 526.4375 245.40625 C 526.17388 247.35181 526.11439 249.34969 526.15625 251.34375 C 526.19815 253.33781 526.35013 255.34079 526.53125 257.25 C 526.8935 261.06842 527.35926 264.57107 527.28125 267.25 C 527.0276 275.96084 527.28125 296.94411 527.28125 305.9375 L 527.28125 312.6875 C 527.28125 313.62796 526.30291 315.05291 526.4375 315.1875 C 526.63188 315.38188 527.1355 315.33033 527.65625 315.25 C 528.177 315.1697 528.71487 315.06056 528.96875 315.1875 C 531.31012 316.35819 533.56353 317.19757 535.78125 317.84375 C 536.48261 316.76016 537.05054 315.54321 537.8125 314.78125 C 545.08883 307.50491 542.13745 297.03671 542 286.59375 C 542.40102 285.79171 540.62055 268.4018 539.46875 267.25 C 538.68847 266.46972 536.96875 263.24511 536.96875 261.78125 C 536.96875 260.97728 536.45711 257.26164 536.96875 256.75 C 537.62357 256.09518 539.79932 248.99511 540.75 247.09375 C 541.2378 246.11817 540.00853 243.21023 540.75 242.46875 C 544.06102 239.15774 541.20133 234.00358 542.4375 231.53125 C 542.92425 230.55774 545.07376 225.76126 544.09375 224.78125 C 543.49989 224.18738 541.45806 221.70888 542.4375 219.75 C 543.05322 218.51856 544.71468 214.67935 544.09375 213.4375 C 543.67765 212.60528 542.89281 211.79906 542.4375 211.34375 C 541.60216 210.50841 540.28513 203.28903 539.46875 201.65625 C 538.68305 200.08486 540.62971 174.02654 540.75 173.90625 C 541.96353 172.69273 539.95164 167.94048 540.75 166.34375 C 542.16753 163.50869 541.15625 157.87309 541.15625 154.5625 C 541.15625 140.65838 538.72488 123.53738 531.90625 116.71875 C 531.15759 115.97009 531.24095 114.80345 530.65625 114.21875 C 529.3493 112.9118 534.26462 104.35838 531.5 101.59375 C 531.22286 101.31661 530.7317 101.24332 530.125 101.3125 z "
       style="fill:#b7c8b7;fill-opacity:1;stroke:#ffffff;stroke-width:1px;stroke-linecap:butt;stroke-linejoin:miter;stroke-opacity:0"
       id="path21217"
       d="m 530.75,102.34375 c 0.10348,0.10348 -0.0425,-0.0209 -0.5,0.0312 -0.69333,0.079 -1.7987,0.46002 -2.75,0.90625 -0.9513,0.44623 -1.84531,1.03281 -1.96875,1.15625 -1.03566,1.03566 -2.44639,1.26842 -3.6875,1.5625 -1.24111,0.29408 -2.31512,0.65887 -2.625,0.96875 -0.32769,0.3277 -0.71326,0.37528 -1.09375,0.5 1.15152,1.6336 2.31854,3.23898 3.4375,5.4375 0.83753,1.64557 1.61702,3.456 2.375,5.40625 0.75816,1.95072 1.48162,4.06992 2.125,6.375 0.64178,2.29935 1.23342,4.78219 1.71875,7.46875 0.48504,2.68498 0.86881,5.58474 1.15625,8.6875 0.28773,3.10589 0.44991,6.44456 0.5,10 0.0498,3.52775 -0.0272,7.26911 -0.25,11.28125 9e-4,0.0206 -8.9e-4,0.0419 0,0.0625 -6.2e-4,0.0111 6.2e-4,0.0201 0,0.0312 0.42081,9.76776 0.41811,19.89325 0.3125,29.5625 -0.10595,9.69991 -0.3125,18.92605 -0.3125,26.71875 0,3.53309 -0.22997,8.92105 -0.5625,14.125 -0.33253,5.20395 -0.75506,10.20731 -1.125,12.9375 -0.2534,1.87013 -0.32235,3.79223 -0.28125,5.75 0.0411,1.95474 0.19521,3.94857 0.375,5.84375 0.35991,3.7938 0.83241,7.29494 0.75,10.125 -0.25159,8.64006 0,29.64272 0,38.65625 l 0,6.75 c 0,0.60512 -0.22038,1.00979 -0.40625,1.4375 0.12786,-0.0193 0.2359,-0.0496 0.375,-0.0625 0.30081,-0.0279 0.61765,-0.0974 1.125,0.15625 2.03248,1.01625 4.00068,1.71264 5.9375,2.3125 0.48771,-0.84423 0.93031,-1.74281 1.6875,-2.5 3.40539,-3.40539 4.41242,-7.49413 4.5625,-12.1875 0.15008,-4.69337 -0.61751,-9.93236 -0.6875,-15.25 A 1.0710929,1.0710929 0 0 1 541,286.1875 c 0.009,-0.0264 -0.0329,0.0318 -0.0312,0 0.006,-0.12732 0.006,-0.33205 0,-0.59375 -0.0118,-0.5234 -0.0303,-1.25536 -0.0937,-2.125 -0.12693,-1.73929 -0.35721,-3.99979 -0.625,-6.28125 -0.26779,-2.28146 -0.58999,-4.57455 -0.90625,-6.34375 -0.15813,-0.8846 -0.32439,-1.65133 -0.46875,-2.1875 -0.0722,-0.26808 -0.13566,-0.49518 -0.1875,-0.625 -0.0518,-0.12982 -0.11058,-0.17308 0.0312,-0.0312 -0.63357,-0.63357 -1.19026,-1.59683 -1.75,-2.75 -0.55974,-1.15317 -1.0625,-2.31743 -1.0625,-3.46875 0,-0.1748 -0.1212,-1.42898 -0.1875,-2.5625 -0.0331,-0.56676 -0.0594,-1.11699 -0.0312,-1.625 0.0141,-0.254 0.0371,-0.50336 0.0937,-0.75 0.0567,-0.24664 0.11284,-0.51909 0.4375,-0.84375 -0.15544,0.15544 -0.0123,-0.0272 0.0937,-0.25 0.10605,-0.22277 0.25584,-0.52533 0.40625,-0.90625 0.30081,-0.76184 0.65987,-1.76786 1.03125,-2.8125 0.74276,-2.08929 1.46359,-4.27094 2.03125,-5.40625 -0.0537,0.10739 0.0288,-0.12277 0,-0.46875 -0.0288,-0.34598 -0.10907,-0.80062 -0.1875,-1.28125 -0.0784,-0.48063 -0.15189,-0.98964 -0.15625,-1.5 -0.004,-0.51036 0.025,-1.11875 0.5625,-1.65625 1.35002,-1.35001 1.45217,-3.05132 1.3125,-4.96875 -0.13967,-1.91743 -0.7427,-3.8896 0.15625,-5.6875 0.21075,-0.4215 0.89368,-1.8845 1.34375,-3.25 0.22504,-0.68275 0.38083,-1.3335 0.4375,-1.8125 0.0567,-0.479 -0.10854,-0.67104 0.0937,-0.46875 -0.38973,-0.38974 -1.08683,-1.18838 -1.625,-2.28125 -0.53817,-1.09287 -0.95365,-2.56145 -0.25,-3.96875 0.28109,-0.56217 0.85976,-1.83719 1.25,-3.03125 0.19512,-0.59703 0.34217,-1.17037 0.40625,-1.625 0.0641,-0.45463 -0.0289,-0.77659 0,-0.71875 -0.29893,-0.59787 -0.99404,-1.36904 -1.4375,-1.8125 -0.32737,-0.32737 -0.42287,-0.60426 -0.5625,-0.9375 -0.13963,-0.33324 -0.27343,-0.6958 -0.40625,-1.125 -0.26564,-0.8584 -0.54356,-1.90782 -0.8125,-2.96875 -0.26894,-1.06093 -0.53533,-2.13155 -0.78125,-3.03125 -0.24592,-0.8997 -0.51057,-1.67739 -0.625,-1.90625 -0.20126,-0.40252 -0.18506,-0.61407 -0.21875,-0.9375 -0.0337,-0.32343 -0.0512,-0.70776 -0.0625,-1.15625 -0.0226,-0.89699 -0.006,-2.03153 0.0312,-3.375 0.0745,-2.68695 0.23536,-6.09918 0.4375,-9.46875 0.20214,-3.36957 0.43744,-6.69741 0.625,-9.1875 0.0938,-1.24505 0.1862,-2.29731 0.25,-3.03125 0.0319,-0.36697 0.0719,-0.66551 0.0937,-0.875 0.0109,-0.10475 0.0212,-0.17625 0.0312,-0.25 0.005,-0.0369 -0.01,-0.0753 0,-0.125 0.005,-0.0248 0.0153,-0.0377 0.0312,-0.0937 0.008,-0.028 0.005,-0.0629 0.0312,-0.125 0.0259,-0.0621 0.24953,-0.34328 0.25,-0.34375 -0.0484,0.0484 0.0982,-0.19598 0.0937,-0.71875 -0.004,-0.52277 -0.12586,-1.24015 -0.25,-2 -0.12414,-0.75985 -0.24883,-1.54798 -0.3125,-2.3125 -0.0637,-0.76452 -0.12509,-1.49982 0.25,-2.25 0.53626,-1.07252 0.69864,-3.09897 0.625,-5.21875 -0.0736,-2.11978 -0.3125,-4.3294 -0.3125,-6.09375 0,-6.88963 -0.62384,-14.57436 -2.0625,-21.34375 -1.43866,-6.76939 -3.7376,-12.6126 -6.875,-15.75 -0.58507,-0.58507 -0.81693,-1.27283 -0.96875,-1.75 -0.15182,-0.47717 -0.25873,-0.72748 -0.28125,-0.75 -0.48855,-0.48855 -0.53663,-1.06271 -0.53125,-1.5625 0.005,-0.49979 0.0934,-1.01106 0.21875,-1.5625 0.25065,-1.10289 0.64769,-2.39193 1,-3.6875 0.35231,-1.29557 0.6423,-2.5957 0.6875,-3.65625 0.0452,-1.06055 -0.14755,-1.77255 -0.53125,-2.15625 z"
       transform="translate(171.5584,367.13578)" />
    <path
       style="fill:none;stroke:#1c241c;stroke-width:1px;stroke-linecap:butt;stroke-linejoin:miter;stroke-opacity:1"
       d="m 702.29011,463.05372 c -0.11024,-1.76018 0.61166,-8.04487 1.48664,-8.91986"
       id="path20929"
       inkscape:connector-curvature="0" />
    <path
       style="fill:none;stroke:#1c241c;stroke-width:1px;stroke-linecap:butt;stroke-linejoin:miter;stroke-opacity:1"
       d="m 741.53749,465.13502 c -0.50634,-0.11571 0.89199,-6.27772 0.89199,-9.51452"
       id="path20931"
       inkscape:connector-curvature="0" />
    <path
       style="fill:none;stroke:#1c241c;stroke-width:1px;stroke-linecap:butt;stroke-linejoin:miter;stroke-opacity:1"
       d="m 715.6699,453.5392 c -0.80137,2.9738 0,6.04425 0,8.91986"
       id="path20946"
       inkscape:connector-curvature="0" />
    <path
       style="fill:none;stroke:#1c241c;stroke-width:1px;stroke-linecap:butt;stroke-linejoin:miter;stroke-opacity:1"
       d="m 728.1577,454.13386 c 0.13298,3.12831 0.96535,6.39451 -0.29732,8.91986"
       id="path20948"
       inkscape:connector-curvature="0"
       sodipodi:nodetypes="cc" />
    <path
       style="fill:none;stroke:#1c241c;stroke-width:1px;stroke-linecap:butt;stroke-linejoin:miter;stroke-opacity:1"
       d="m 752.24133,460.67509 c 0.21113,0.44075 -1.48665,5.82864 -1.48665,9.81185"
       id="path20950"
       inkscape:connector-curvature="0" />
    <path
       style="fill:none;stroke:#1c241c;stroke-width:1px;stroke-linecap:butt;stroke-linejoin:miter;stroke-opacity:1"
       d="m 694.26223,457.40447 c -0.47502,0.3708 -0.89198,8.44463 -0.89198,11.59583"
       id="path20952"
       inkscape:connector-curvature="0" />
    <path
       style="fill:none;stroke:#374837;stroke-width:1px;stroke-linecap:butt;stroke-linejoin:miter;stroke-opacity:1"
       d="m 703.47942,454.13386 c 0.30286,0.26235 -1.34749,-1.32847 -0.89198,-1.78397 2.38788,-2.38789 4.30703,-4.30703 6.54123,-6.54123"
       id="path20954"
       inkscape:connector-curvature="0" />
    <path
       style="fill:none;stroke:#374837;stroke-width:1px;stroke-linecap:butt;stroke-linejoin:miter;stroke-opacity:1"
       d="m 734.8731,430.45578 c -1.00379,3.01971 -0.97768,4.38363 -1.95814,7.325 -0.57886,1.73658 -0.86158,5.2339 -1.59486,6.70046"
       id="path20992"
       inkscape:connector-curvature="0"
       sodipodi:nodetypes="csc" />
    <path
       style="fill:none;stroke:#374837;stroke-width:1px;stroke-linecap:butt;stroke-linejoin:miter;stroke-opacity:1"
       d="m 741.83482,455.6205 c 0.40192,-2.44467 -4.37447,-7.34776 -7.13589,-10.10917"
       id="path20956"
       inkscape:connector-curvature="0" />
    <path
       style="fill:none;stroke:#374837;stroke-width:1px;stroke-linecap:butt;stroke-linejoin:miter;stroke-opacity:1"
       d="m 686.14727,458.38355 c 1.60894,-1.96318 3.38873,-0.95104 5.05459,-1.78397 1.63716,-0.81858 5.28257,-2.30929 6.2439,-3.27062 0.69377,-0.69377 2.57685,-0.19822 3.27062,-0.89198 0.75374,-0.75375 4.74579,-0.88052 5.64924,-1.78398 0.10387,-0.10386 8.58429,0 9.51452,0 2.01324,0 9.48464,0.90693 11.29849,0 0.78764,-0.39382 11.16268,-0.1358 11.29849,0 0.44932,0.44932 1.48074,0.29438 2.0813,0.59466 0.75872,0.37936 2.36701,1.02903 2.97329,1.63531 0.64421,0.64421 3.81571,1.13981 4.45992,1.78397 1.18645,1.18645 5.17126,2.36263 7.73055,3.41928"
       id="path20971"
       inkscape:connector-curvature="0"
       sodipodi:nodetypes="cssscsscsscc" />
    <path
       style="fill:none;stroke:#374837;stroke-width:1px;stroke-linecap:butt;stroke-linejoin:miter;stroke-opacity:1"
       d="m 733.74853,434.8781 c 0.0696,-0.0448 1.2245,-5.42935 2.52292,-6.72778"
       id="path21029"
       inkscape:connector-curvature="0" />
    <path
       style="fill:none;stroke:#374837;stroke-width:1px;stroke-linecap:butt;stroke-linejoin:miter;stroke-opacity:1"
       d="m 722.81589,433.4064 c 0.0974,-2.04644 -0.63073,-6.32182 -0.63073,-7.56875"
       id="path21031"
       inkscape:connector-curvature="0"
       sodipodi:nodetypes="cc" />
    <path
       style="fill:none;stroke:#374837;stroke-width:1px;stroke-linecap:round;stroke-linejoin:round;stroke-opacity:1"
       d="m 704.96607,428.71226 c -0.4804,-0.07 0.29733,-1.44443 0.29733,-2.5273 0,-0.92544 -0.67579,-8.39274 -0.29733,-8.77119 0.28671,-0.28672 1.19514,-8.46222 0.89198,-9.06853"
       id="path21051"
       inkscape:connector-curvature="0" />
    <path
       style="fill:none;stroke:#374837;stroke-width:1px;stroke-linecap:round;stroke-linejoin:round;stroke-opacity:1"
       d="m 700.80346,430.79356 c -0.47061,-0.84197 0.21208,-1.53031 0,-2.37863 -0.69609,-2.78438 0.0964,-5.76217 -0.44599,-8.47387 -0.27301,-1.36505 -0.76713,-3.94251 -0.29733,-5.35192 0.22266,-0.66795 0.76441,-2.9522 0.29733,-3.41928"
       id="path21053"
       inkscape:connector-curvature="0" />
    <path
       style="fill:none;stroke:#1c241c;stroke-width:1px;stroke-linecap:butt;stroke-linejoin:miter;stroke-opacity:1"
       d="m 722.81589,433.4064 c 0.27725,0.20934 -0.34238,11.01075 0.21024,11.56338"
       id="path21141"
       inkscape:connector-curvature="0"
       sodipodi:nodetypes="cc" />
    <path
       style="fill:none;stroke:#1c241c;stroke-width:1px;stroke-linecap:butt;stroke-linejoin:miter;stroke-opacity:1"
       d="m 733.53829,435.29859 c -0.21024,0.28033 -0.45045,0.5405 -0.63073,0.84097 -0.12148,0.20247 -2.10243,8.91485 -2.10243,9.2507"
       id="path21143"
       inkscape:connector-curvature="0" />
    <path
       style="fill:#7e9c7e;fill-opacity:1;stroke:#ffffff;stroke-width:1px;stroke-linecap:butt;stroke-linejoin:miter;stroke-opacity:0"
       d="m 730.9334,682.01078 c 0.38479,-0.12242 0.76964,-0.27994 1.15625,-0.34375 0.71284,-0.11765 1.41591,-0.15132 2.125,-0.1875 0.70909,-0.0362 1.43251,-0.08 2.125,-0.1875 0.69249,-0.10748 1.36821,-0.29348 2.03125,-0.625 0.4714,-0.2357 1.25931,-0.4118 2.09375,-0.5625 0.39412,1.68429 0.83675,3.01725 1.28125,3.90625 l -1.0625,-3.9375 c 0.71608,-0.12716 1.4562,-0.23866 2.09375,-0.40625 0.63755,-0.16759 1.17251,-0.39126 1.46875,-0.6875 0.18924,-0.18924 0.26556,-1.54922 0.28125,-3.5 0.0157,-1.95078 -0.0212,-4.49475 -0.125,-7.03125 -0.20754,-5.07299 -0.60795,-10.13918 -0.96875,-10.5 -0.4008,-0.4008 -0.76698,-1.36596 -1.09375,-2.75 -0.32677,-1.38404 -0.59904,-3.1795 -0.84375,-5.28125 -0.48942,-4.2035 -0.82442,-9.58128 -0.9375,-15.0625 -0.11308,-5.48122 -0.0149,-11.08399 0.3125,-15.71875 0.16371,-2.31738 0.37039,-4.38627 0.65625,-6.09375 0.28586,-1.70748 0.64647,-3.04294 1.0625,-3.875 0.39171,-0.78341 0.6331,-2.50203 0.75,-4.65625 0.1169,-2.15422 0.10535,-4.7353 0,-7.28125 -0.10535,-2.54595 -0.31871,-5.0414 -0.59375,-7 -0.27504,-1.9586 -0.60783,-3.38908 -1,-3.78125 -0.14744,-0.14744 0,-48.92362 0,-52.125 0,-2.06051 0.2338,-5.72725 0.40625,-9.71875 0.17245,-3.9915 0.28354,-8.30776 0.0625,-11.65625 0.12631,-0.61517 0.26714,-1.12803 0.375,-1.34375 0.38151,-0.76302 0.80632,-2.22114 1.125,-3.59375 0.31868,-1.37261 0.53125,-2.6597 0.53125,-3.125 0,-1.57305 0.14491,-3.17412 0.375,-4.75 0.23009,-1.57588 0.54307,-3.12895 0.9375,-4.65625 0.78887,-3.0546 1.85443,-5.94828 2.90625,-8.5 2.10365,-5.10343 4.1875,-8.81391 4.1875,-9.4375 0,-0.0289 0.11137,-0.0963 0.125,-0.125 -2.89329,-2.19686 -6.59225,-5.49851 -8.9375,-7.84375 -0.96709,-0.9671 -2.4803,-1.19905 -3.375,-2.09375 -1.42711,-1.42711 -12.58353,1.67699 -15.125,0.40625 -1.95474,-0.97737 -9.60491,-0.0826 -10.9375,1.25 -2.53955,2.53955 7.04704,4.80478 7.5625,5.0625 1.24282,0.62142 3.84144,2.56019 4.625,3.34375 0.43017,0.43018 2.45894,-0.0723 2.96875,0.4375 1.78174,1.78174 -3.06966,5.3366 -1.6875,6.71875 0.45115,0.45115 5.59689,4.49687 3.78125,6.3125 -2.92054,2.92054 -0.95115,13.2773 -2.9375,17.25 -0.78491,1.56982 0.78491,4.30518 0,5.875 -1.51199,3.02397 -0.61288,15.94452 -1.6875,18.09375 -0.89652,1.79304 0.43532,4.56685 -0.4375,6.3125 -1.49972,2.99944 0.61291,7.58669 -0.84375,10.5 -1.97051,3.94102 1.6875,26.80119 1.6875,32.375 -0.76814,7.9928 1.95401,20.26297 -0.40625,27.34375 -0.39487,1.18463 0.55484,3.07783 0,4.1875 -1.79735,3.59471 -5.89759,11.75866 -2.09375,15.5625 0.0673,0.0673 -0.4375,0.77977 -0.4375,1.25 0,2.30829 0.26655,5.62685 1.25,7.59375 0.32355,0.6471 2.33161,10.29339 2.125,10.5 -1.27713,1.27713 -1.86156,3.31688 -2.9375,5.46875 -0.14221,0.28444 0.2217,19.38089 0.40625,19.75 0.68629,1.37259 1.19944,2.75455 1.6875,4.21875 0.50255,1.50765 2.15106,3.21176 3.90625,4.71875 z"
       id="path21232"
       inkscape:connector-curvature="0" />
    <path
       style="fill:#374837;fill-opacity:1;stroke:#1c241c;stroke-width:1;stroke-linecap:butt;stroke-linejoin:round;stroke-miterlimit:4;stroke-opacity:1;stroke-dasharray:none"
       d="m 777.21465,667.10453 c -0.50459,-0.01 -0.86663,0.0271 -1,0.0937 -5.68314,2.84157 -15.3679,0.12145 -20.1875,2.53125 -3.81979,1.90989 -15.67672,3.05172 -17.65625,5.03125 -1.26146,1.26146 -6.30104,-1.26146 -7.5625,0 -1.05457,1.05457 -3.6894,1.98485 -5.875,2.53125 -3.65047,2.36454 -30.18576,-5.51649 -42.90625,0.84375 -1.38297,0.69149 -6.62064,4.31686 -8.40625,2.53125 -1.62316,-1.62315 -1.3588,-4.47628 -4.21875,-5.90625 -4.11302,-2.05651 -4.35548,4.21875 -7.5625,4.21875 -4.66987,0 -8.05155,-1.51014 -11.78125,-3.375 -0.66249,-0.33124 -29.48686,4.25905 -31.09375,5.0625 -2.01477,1.00738 -2.3755,2.42213 -4.21875,3.34375 -4.72966,2.36483 -8.25214,-3.85488 -11.78125,-5.03125 -6.71234,-2.23744 -8.09335,2.35918 -13.4375,5.03125 -3.14586,1.57293 -5.69662,-5.96419 -10.9375,-3.34375 -14.77719,7.3886 -64.10659,2.5 -83.25,2.5 -4.70244,0 -9.83328,0.5677 -14.3125,1.6875 -12.07788,3.01947 -26.16137,-2.20663 -37.84375,1.6875 -6.67408,2.22469 -23.03445,-1.9359 -28.59375,0.84375 -3.78387,1.89194 -9.84398,2.53125 -14.28125,2.53125 -3.54034,0 -11.25408,0.12704 -14.3125,1.65625 -1.89263,0.94632 -24.10272,-0.67636 -26.0625,-1.65625 -4.27854,-2.13927 -21.27792,0.8125 -26.90625,0.8125 -10.1054,0 -18.13136,-0.8125 -28.59375,-0.8125 -0.79752,0 -4.55464,0.50785 -5.0625,0 -0.24334,-0.24334 -1.61142,-2.52035 -2.84375,-5 -2.10555,-0.23557 -4.35853,-1.23853 -6.4375,-2.71875 -0.62603,0.35905 -1.21443,0.69504 -1.625,0.96875 -7.91326,5.27551 -5.44205,0.84375 -9.25,0.84375 -1.99542,0 -5.25833,5.90625 -6.75,5.90625 -0.15345,0 -1.1778,-6.27155 -1.65625,-6.75 -1.64468,-1.64468 -6.33837,2.96336 -6.75,3.375 -2.71155,2.71155 -6.08109,-3.47804 -7.5625,-4.21875 -2.79986,-1.39992 -6.39347,3.04971 -7.5625,4.21875 -2.00952,2.00951 -7.98324,-6.32926 -10.09375,-4.21875 -9.04027,9.04027 -13.00335,-1.90458 -18.5,0.84375 -4.96762,2.48381 -5.74429,4.96589 -10.9375,7.5625 -3.86343,1.93171 -36.51698,-2.5 -42.875,-2.5 4.67092,2.46661 -6.35291,6.27209 -4.21875,8.40625 8.42016,8.42017 26.07554,-1.95399 39.53125,2.53125 6.66214,2.22071 13.73297,2.03599 20.1875,4.1875 7.41592,2.47197 18.34748,-0.84375 26.0625,-0.84375 20.45458,0 39.52201,0.84375 59.71875,0.84375 9.3971,0 21.97773,-2.27901 31.09375,0 17.4172,4.3543 36.78939,-0.86937 54.6875,1.6875 4.38843,0.62692 8.8552,1.04864 13.3125,1.5 8.52971,-1.95362 18.57377,-3.63499 21.15625,-2.34375 3.91203,1.95602 12.52294,2.53125 16.8125,2.53125 5.86225,0 14.10712,-0.78571 19.34375,-2.53125 2.70555,-0.90185 11.71375,-1.21708 22.53125,-1.15625 0.62944,-0.14679 1.23727,-0.32909 1.84375,-0.53125 4.54492,-1.51498 10.49354,1.16567 15.15625,0 18.5025,-4.62563 46.1916,-2.53125 65.59375,-2.53125 25.45317,0 52.72307,0.077 76.53125,-5.875 4.5756,-1.1439 10.07371,-0.42748 14.28125,-2.53125 5.05082,-2.52541 24.07103,0.60511 30.28125,-2.5 1.53883,-0.76941 15.23117,0.2859 26.15625,0.21875 2.92536,0.69433 6.72733,-0.46589 10,0.625 10.75847,3.58615 43.37664,3.12418 53,-1.6875 2.21638,-1.10819 10.80896,-0.0973 11.75,0.84375 2.13943,2.13944 25.09779,-4.06654 26.09375,-5.0625 0.38664,-0.38664 1.35683,-2.6824 1.6875,-3.34375 0.95994,-1.91987 -2.08787,-2.85746 -6.21875,-3.28125 0.44705,-0.29456 0.83814,-0.61939 1.15625,-0.9375 4.30741,-4.30742 -16.66024,-7.5625 -19.34375,-7.5625 -2.5587,0 -13.96789,-1.7146 -17.5,-1.78125 z"
       id="path20866"
       inkscape:connector-curvature="0" />
    <path
       sodipodi:type="inkscape:offset"
       inkscape:radius="-0.97745317"
       inkscape:original="M 481.0625 292.15625 C 480.69841 292.19645 480.39082 292.29667 480.1875 292.5 C 479.00845 293.67905 479.51808 296.16117 480.625 298.375 C 481.09855 299.32212 483.49281 299.99281 483.96875 300.46875 C 485.46288 301.96287 481.613 304.137 481.46875 304.28125 C 481.45825 304.29175 483.46339 307.42677 483.5625 307.625 C 485.28649 311.07299 482.36764 312.34311 479.375 313.78125 C 480.16007 313.72915 480.58241 313.74285 481.75 313.625 C 483.91698 313.40621 486.55918 313.06566 489 312.59375 C 491.44082 312.12184 493.67313 311.50935 495.03125 310.75 C 495.71031 310.37032 496.18972 309.95797 496.34375 309.5 C 496.49778 309.04203 496.32185 308.54056 495.78125 308 C 494.8429 307.06165 493.11648 305.89773 492.21875 305 C 492.02118 304.80243 491.98702 304.50167 492.03125 304.15625 C 492.07545 303.81083 492.19965 303.43793 492.34375 303.0625 C 492.63195 302.31164 492.97641 301.60141 492.8125 301.4375 C 491.93424 300.55923 490.998 298.99599 490.4375 297.875 C 490.18256 297.36511 486.25977 294.81081 482.3125 292.21875 C 481.84721 292.13587 481.42659 292.11605 481.0625 292.15625 z "
       style="fill:#93ac93;fill-opacity:1;stroke:#ffffff;stroke-width:1px;stroke-linecap:butt;stroke-linejoin:miter;stroke-opacity:0"
       id="path21398"
       d="m 481.15625,293.125 c -0.24764,0.0273 -0.31291,0.0942 -0.28125,0.0625 -0.29723,0.29723 -0.44334,0.87125 -0.34375,1.75 0.0996,0.87875 0.4538,1.97011 0.96875,3 -0.0166,-0.0333 0.54072,0.45459 1.21875,0.78125 0.33902,0.16333 0.70773,0.31218 1.03125,0.46875 0.32352,0.15657 0.57868,0.26618 0.90625,0.59375 0.60575,0.60575 0.74473,1.55334 0.5,2.21875 -0.24473,0.66541 -0.70217,1.16565 -1.15625,1.59375 -0.42352,0.39929 -0.8517,0.71197 -1.21875,0.96875 0.15867,0.25113 0.34485,0.51787 0.53125,0.8125 0.25636,0.4052 0.51532,0.80037 0.71875,1.125 0.10172,0.16231 0.18283,0.29685 0.25,0.40625 0.0672,0.1094 0.0795,0.12777 0.15625,0.28125 0.49107,0.98215 0.70096,1.91984 0.59375,2.78125 -0.10721,0.86141 -0.54447,1.58223 -1.09375,2.15625 -0.0978,0.10218 -0.23903,0.15506 -0.34375,0.25 1.71445,-0.20618 3.47024,-0.41194 5.21875,-0.75 2.39511,-0.46307 4.59468,-1.07279 5.75,-1.71875 0.58698,-0.3282 0.82856,-0.6736 0.84375,-0.71875 0.0136,-0.0405 0.0893,-0.0982 -0.3125,-0.5 -0.80024,-0.80024 -2.52041,-1.95791 -3.5625,-3 -0.50845,-0.50845 -0.53011,-1.17704 -0.46875,-1.65625 0.0622,-0.48623 0.22064,-0.91034 0.375,-1.3125 0.15384,-0.4008 0.29362,-0.76631 0.375,-1 0.006,-0.0175 -0.005,-0.0153 0,-0.0312 -0.8934,-1.02204 -1.72668,-2.32837 -2.25,-3.375 0.11934,0.23869 0.0758,0.095 -0.0312,0 -0.10705,-0.095 -0.27938,-0.2395 -0.5,-0.40625 -0.44124,-0.3335 -1.06614,-0.77261 -1.8125,-1.28125 -1.4312,-0.97536 -3.32692,-2.19553 -5.21875,-3.4375 -0.31452,-0.0438 -0.63466,-0.0856 -0.84375,-0.0625 z"
       transform="translate(0,308.2677)" />
    <path
       sodipodi:type="inkscape:offset"
       inkscape:radius="-0.28388777"
       inkscape:original="M 458.46875 296 C 456.34299 295.71863 454.11286 296.08419 452.03125 297.125 C 450.53237 297.87444 449.68383 297.34743 448.65625 298.375 C 447.95544 299.07581 445.16956 297.67419 444.46875 298.375 C 444.10031 298.74344 443.4979 299.26668 442.78125 299.625 C 440.57924 300.72601 436.61889 298.94056 434.375 300.0625 C 431.06515 301.71742 426.31604 301.77948 423 303.4375 C 422.02442 303.92529 419.11648 302.69602 418.375 303.4375 C 417.80951 304.00299 417.31617 305.30883 416.6875 305.9375 C 415.21241 307.41258 410.23437 306.10938 408.71875 307.625 C 408.59999 307.74376 408.59486 307.87927 408.5 308 C 408.85536 308.0777 409.09948 308.17996 409.46875 308.25 C 411.47799 308.63108 413.68364 308.89565 415.875 309 C 418.06636 309.10435 420.26461 309.0671 422.25 308.8125 C 424.23539 308.55793 426.01491 308.10192 427.40625 307.40625 C 428.04055 307.0891 428.90909 307.24767 429.78125 307.40625 C 430.65341 307.56483 431.52195 307.7234 432.15625 307.40625 C 433.12213 306.92331 434.22804 306.54536 435.40625 306.28125 C 436.58446 306.01714 437.85489 305.8718 439.1875 305.78125 C 441.85273 305.60015 444.75218 305.72725 447.6875 305.96875 C 450.62282 306.21022 453.57046 306.57316 456.3125 306.875 C 459.05454 307.17684 461.60212 307.40625 463.6875 307.40625 C 466.67791 307.40625 468.9622 306.8125 472 306.8125 C 472.39644 306.8125 473.00445 306.99464 473.5 307.09375 C 472.04167 304.683 467.27342 300.14842 466.75 299.625 C 466.34837 299.22337 464.6991 299.29284 464.21875 298.8125 C 462.61591 297.20966 460.59451 296.28137 458.46875 296 z "
       style="fill:#93ac93;fill-opacity:1;stroke:#ffffff;stroke-width:1px;stroke-linecap:butt;stroke-linejoin:miter;stroke-opacity:0"
       id="path21431"
       d="m 456.875,296.1875 c -1.57879,0.0319 -3.19411,0.42518 -4.71875,1.1875 -0.79241,0.39621 -1.42495,0.47476 -1.9375,0.5625 -0.51255,0.0877 -0.906,0.156 -1.375,0.625 -0.27516,0.27516 -0.66041,0.30501 -1.0625,0.28125 -0.40209,-0.0238 -0.84541,-0.0999 -1.28125,-0.1875 -0.43584,-0.0876 -0.84824,-0.16746 -1.1875,-0.1875 -0.33926,-0.02 -0.581,0.0185 -0.65625,0.0937 -0.38282,0.38282 -0.99139,0.9332 -1.75,1.3125 -1.2168,0.6084 -2.79831,0.41845 -4.34375,0.25 -1.54544,-0.16845 -3.05419,-0.31665 -4.0625,0.1875 -3.40447,1.70223 -8.1534,1.7642 -11.375,3.375 -0.33701,0.16851 -0.74611,0.16173 -1.1875,0.125 -0.44139,-0.0367 -0.90679,-0.1111 -1.375,-0.1875 -0.46821,-0.0764 -0.92046,-0.15317 -1.28125,-0.15625 -0.36079,-0.003 -0.62672,0.0642 -0.71875,0.15625 -0.23467,0.23467 -0.47689,0.71089 -0.75,1.1875 -0.27311,0.47661 -0.57993,0.95493 -0.9375,1.3125 -0.44001,0.44 -1.08765,0.66809 -1.8125,0.78125 -0.72485,0.11316 -1.53486,0.13224 -2.34375,0.15625 -0.80889,0.024 -1.60587,0.0467 -2.28125,0.15625 -0.67538,0.10955 -1.22167,0.28417 -1.53125,0.59375 0.19994,0.0571 0.40474,0.11447 0.625,0.15625 1.9955,0.37847 4.16612,0.6463 6.34375,0.75 2.17914,0.10377 4.38112,0.0642 6.34375,-0.1875 1.9642,-0.25185 3.71338,-0.70044 5.0625,-1.375 0.76087,-0.38044 1.69047,-0.18981 2.5625,-0.0312 0.87229,0.1586 1.67977,0.28511 2.1875,0.0312 0.99042,-0.49521 2.11488,-0.88779 3.3125,-1.15625 1.19902,-0.26877 2.47157,-0.40888 3.8125,-0.5 2.68809,-0.18265 5.62007,-0.0546 8.5625,0.1875 2.94301,0.2421 5.88557,0.6047 8.625,0.90625 2.73858,0.30146 5.27919,0.53125 7.34375,0.53125 2.95283,0 5.23771,-0.59375 8.3125,-0.59375 0.2519,0 0.53201,0.0929 0.8125,0.15625 -0.78938,-1.12269 -2.01084,-2.55241 -3.25,-3.84375 -1.4348,-1.49523 -2.72335,-2.7546 -3,-3.03125 -0.0288,-0.0288 -0.17524,-0.10373 -0.375,-0.15625 -0.19976,-0.0525 -0.45607,-0.0783 -0.71875,-0.125 -0.52536,-0.0934 -1.07761,-0.17137 -1.4375,-0.53125 -1.55721,-1.55721 -3.5253,-2.44497 -5.59375,-2.71875 -0.51711,-0.0684 -1.03624,-0.1044 -1.5625,-0.0937 z"
       transform="translate(0,308.2677)" />
    <path
       style="fill:#93ac93;fill-opacity:1;stroke:#ffffff;stroke-width:1px;stroke-linecap:butt;stroke-linejoin:miter;stroke-opacity:0"
       d="M 497.125 203.46875 C 496.32139 204.67276 495.43314 205.97746 495.125 206.59375 C 494.91258 207.01859 494.81234 207.68032 494.75 208.4375 C 494.68766 209.19468 494.66399 210.04704 494.28125 210.8125 C 494.19897 210.97706 494.12041 211.04558 494 211.21875 C 493.87959 211.39192 493.71095 211.62867 493.53125 211.875 C 493.17184 212.36766 492.73477 212.96225 492.28125 213.5625 C 491.82773 214.16275 491.37716 214.74326 491.03125 215.1875 C 490.85829 215.40962 490.70459 215.61324 490.59375 215.75 C 490.53833 215.81838 490.47809 215.85939 490.4375 215.90625 C 490.4172 215.92968 490.3993 215.97475 490.375 216 C 490.36285 216.01262 490.36658 216.01074 490.34375 216.03125 C 490.33234 216.04151 490.30311 216.04584 490.28125 216.0625 C 490.25939 216.07916 490.1884 216.1558 490.1875 216.15625 C 489.59842 216.45079 488.91914 216.70473 488.3125 216.96875 C 487.83392 217.17703 487.49957 217.35456 487.25 217.53125 C 487.30584 217.74351 487.35891 218.03539 487.4375 218.34375 C 487.52252 218.67734 487.6141 219.02698 487.65625 219.375 C 487.6984 219.72302 487.76871 220.05633 487.5625 220.46875 C 486.98345 221.62685 485.8137 222.62379 485.28125 223.15625 C 484.97565 223.46185 484.75596 224.21306 484.5625 225.03125 C 484.36904 225.84944 484.24723 226.72152 483.59375 227.375 C 483.62357 227.34518 483.55812 227.44538 483.53125 227.65625 C 483.50438 227.86712 483.52204 228.17449 483.53125 228.5 C 483.54966 229.15102 483.70053 229.84887 483.34375 230.5625 C 482.8272 231.59561 481.74403 232.09061 480.78125 232.53125 C 479.81847 232.97189 478.88315 233.36685 478.5625 233.6875 C 478.4951 233.7549 478.45508 233.89898 478.4375 234.1875 C 478.41992 234.47602 478.44694 234.86915 478.5 235.28125 C 478.55306 235.69335 478.62599 236.12982 478.625 236.5625 C 478.62401 236.99518 478.54657 237.48468 478.15625 237.875 C 477.45962 238.57163 476.52728 238.55342 475.6875 238.65625 C 474.84772 238.75908 474.11213 238.95037 473.9375 239.125 C 473.49859 239.56391 472.81594 241.15067 472.25 242.65625 C 471.96703 243.40904 471.69965 244.15116 471.4375 244.78125 C 471.17535 245.41134 470.95441 245.88934 470.5625 246.28125 C 470.30068 246.54307 470.06779 246.65777 469.78125 246.78125 C 469.49471 246.90473 469.17338 247.00073 468.875 247.125 C 468.27824 247.37354 467.81048 247.75403 467.78125 247.8125 C 467.72456 247.92587 467.71887 247.96207 467.75 248.09375 C 467.78113 248.22543 467.84865 248.41989 467.96875 248.65625 C 468.08885 248.89261 468.26014 249.17756 468.34375 249.53125 C 468.42736 249.88494 468.42371 250.34008 468.21875 250.75 C 468.15004 250.88742 467.91532 251.44234 467.6875 252.125 C 467.45968 252.80766 467.20007 253.65534 467 254.5 C 466.79993 255.34466 466.65178 256.18198 466.625 256.84375 C 466.59822 257.50552 466.75573 257.94323 466.78125 257.96875 C 466.92989 258.11739 466.96261 258.13902 467.03125 258.25 C 467.09989 258.36098 467.16555 258.49666 467.25 258.65625 C 467.4189 258.97542 467.61938 259.39953 467.78125 259.84375 C 467.94312 260.28797 468.06416 260.76415 468.09375 261.25 C 468.12334 261.73585 468.0386 262.2739 467.625 262.6875 C 467.50965 262.80285 467.48229 262.82695 467.40625 262.875 C 467.33021 262.92305 467.22506 262.97436 467.125 263.03125 C 466.92487 263.14503 466.66732 263.27967 466.375 263.4375 C 465.79035 263.75317 465.0694 264.16173 464.375 264.5625 C 463.6806 264.96327 463.02246 265.37072 462.625 265.6875 C 462.53467 265.7595 462.52653 265.7871 462.46875 265.84375 L 462.59375 265.96875 C 462.57356 265.97817 462.55119 265.99003 462.53125 266 C 461.05786 266.7367 455.26331 270.77662 456.65625 273.5625 C 457.33638 274.92277 459.45163 275.10788 460.4375 276.09375 C 461.8933 277.54956 463.27042 279.36417 464.625 280.71875 C 465.53605 281.6298 467.49519 281.49519 468.40625 282.40625 C 470.50449 284.50448 472.80205 285.9583 474.71875 287.875 C 475.03714 288.19339 479.70366 290.45259 480.1875 289.96875 C 480.36952 289.78673 480.53854 289.59074 480.65625 289.375 C 480.89681 289.45549 481.16965 289.53828 481.4375 289.625 C 481.66082 288.68321 481.86573 287.71614 482.03125 286.71875 C 482.17392 285.85902 482.3315 285.03319 482.53125 284.3125 C 482.72675 283.60715 482.93268 283.00482 483.40625 282.53125 C 483.84093 282.09657 484.12549 281.61251 484.34375 281.0625 C 484.56827 280.49671 484.73599 279.87511 484.875 279.1875 C 485.1557 277.79901 485.34991 276.11267 486.21875 274.375 C 486.87488 273.06275 487.54358 271.38102 488.1875 269.4375 C 488.83368 267.48713 489.49925 265.29655 490.125 262.9375 C 491.37881 258.21066 492.60406 252.86723 493.8125 247.6875 C 495.02067 242.50892 496.19178 237.51305 497.40625 233.46875 C 498.01284 231.44875 498.62194 229.64328 499.25 228.1875 C 499.87569 226.73722 500.50255 225.62245 501.25 224.875 C 501.23533 224.88967 501.51363 224.45735 501.78125 223.875 C 502.04887 223.29265 502.37537 222.49799 502.71875 221.59375 C 503.40742 219.78023 504.19132 217.49048 504.9375 215.21875 C 505.68414 212.94566 506.38561 210.71693 506.875 209.03125 C 507.1197 208.18841 507.31509 207.45865 507.4375 206.96875 C 507.47743 206.80893 507.50769 206.73363 507.53125 206.625 C 507.40889 206.54432 507.32434 206.50362 507.0625 206.375 C 506.65546 206.17505 506.10154 205.93111 505.46875 205.6875 C 504.20769 205.20203 502.60745 204.70464 500.9375 204.25 C 499.62263 203.89203 498.34289 203.6636 497.125 203.46875 z "
       transform="translate(0,308.2677)"
       id="path21464" />
    <path
       style="fill:none;stroke:#000000;stroke-width:1px;stroke-linecap:butt;stroke-linejoin:miter;stroke-opacity:1"
       d="M 298.09375 280.3125 C 298.17044 280.61665 298.23792 280.86062 298.28125 280.9375 C 298.32458 281.01438 298.34375 280.92419 298.34375 280.625 C 298.34375 280.42678 298.25475 280.34967 298.09375 280.3125 z "
       id="path21476"
       transform="translate(0,308.2677)" />
    <path
       sodipodi:type="inkscape:offset"
       inkscape:radius="-0.39295527"
       inkscape:original="M 311.09375 543.21875 C 310.70429 543.27386 310.29985 543.3993 309.9375 543.40625 C 310.3528 543.90553 310.5989 544.31499 311.09375 544.84375 C 312.49072 546.33643 314.18996 547.94936 316.09375 549.59375 C 319.50335 552.53878 323.64872 555.58694 327.84375 558.46875 C 330.17875 557.78711 332.58897 556.93989 333.59375 556.4375 C 333.63255 556.4181 343.30183 557.80183 340.75 555.25 C 338.80691 553.30691 335.62871 552.70498 332.40625 551.09375 C 331.02944 550.40535 328.6014 552.63265 327.65625 551.6875 C 327.30195 551.3332 328.25066 549.875 327.0625 549.875 C 326.17603 549.875 325.48037 551.49019 324.6875 551.09375 C 323.868 550.68401 323.88934 549.67059 323.5 549.28125 C 322.60802 548.38927 320.23574 548.98573 319.34375 548.09375 C 318.94668 547.69667 320.00006 545.71875 318.75 545.71875 C 318.14015 545.71875 315.59522 546.53198 313.96875 545.71875 C 312.85279 545.16077 313.11634 543.80817 312.1875 543.34375 C 311.85769 543.17885 311.48321 543.16364 311.09375 543.21875 z "
       style="fill:#93ac93;fill-opacity:1;stroke:#ffffff;stroke-width:1px;stroke-linecap:butt;stroke-linejoin:miter;stroke-opacity:0"
       id="path21629"
       d="m 311.15625,543.59375 c -0.1417,0.02 -0.33796,0.0596 -0.5,0.0937 0.21815,0.2895 0.42318,0.55918 0.71875,0.875 1.38484,1.47972 3.07362,3.08184 4.96875,4.71875 3.34711,2.89105 7.43123,5.90673 11.5625,8.75 2.26059,-0.66801 4.58811,-1.48156 5.5,-1.9375 1.5e-4,-8e-5 0.15581,-0.0625 0.15625,-0.0625 4.4e-4,-3e-5 0.0237,-9e-5 0.0312,0 0.0151,1.8e-4 0.0245,-4.7e-4 0.0312,0 0.0134,9.3e-4 0.0195,0.03 0.0312,0.0312 0.0236,0.002 0.0569,-0.004 0.0937,0 0.0738,0.009 0.18152,0.0158 0.3125,0.0312 0.26195,0.0309 0.62968,0.0818 1.0625,0.125 0.86564,0.0865 1.99913,0.17546 3.03125,0.1875 1.03212,0.012 1.98528,-0.0738 2.40625,-0.25 0.21049,-0.0881 0.21731,-0.14159 0.21875,-0.15625 0.001,-0.0147 -0.0311,-0.18736 -0.3125,-0.46875 -1.82029,-1.82029 -4.97012,-2.45381 -8.25,-4.09375 -0.22707,-0.11353 -0.51565,-0.11836 -0.90625,-0.0312 -0.3906,0.0871 -0.86259,0.26068 -1.3125,0.4375 -0.44991,0.17682 -0.89989,0.36182 -1.34375,0.4375 -0.44386,0.0757 -0.93091,0.0378 -1.28125,-0.3125 -0.24588,-0.24588 -0.21178,-0.52968 -0.1875,-0.75 0.0243,-0.22032 0.075,-0.45188 0.0937,-0.625 0.0188,-0.17312 0.007,-0.26858 0,-0.28125 -0.007,-0.0127 -0.002,-0.0312 -0.21875,-0.0312 -0.20457,0 -0.57442,0.26107 -0.96875,0.625 -0.19716,0.18197 -0.39715,0.36992 -0.65625,0.5 -0.2591,0.13008 -0.62326,0.18837 -0.9375,0.0312 -0.52688,-0.26343 -0.77899,-0.70963 -0.9375,-1.09375 -0.15851,-0.38412 -0.27216,-0.70966 -0.34375,-0.78125 -0.29186,-0.29186 -1.02768,-0.39487 -1.84375,-0.46875 -0.81607,-0.0739 -1.71237,-0.11863 -2.3125,-0.71875 -0.13802,-0.13802 -0.16969,-0.29659 -0.1875,-0.4375 -0.0178,-0.14091 -0.0131,-0.27073 0,-0.40625 0.0263,-0.27105 0.0676,-0.56445 0.0937,-0.8125 0.0262,-0.24805 0.0306,-0.46077 0,-0.53125 -0.0306,-0.0705 -0.01,-0.0625 -0.21875,-0.0625 -0.0651,0 -0.36816,0.0301 -0.71875,0.0937 -0.35059,0.0637 -0.77586,0.13487 -1.25,0.1875 -0.94828,0.10526 -2.06658,0.12296 -3,-0.34375 -0.68265,-0.34132 -0.9319,-0.93198 -1.125,-1.40625 -0.1931,-0.47427 -0.34161,-0.81143 -0.65625,-0.96875 -0.23204,-0.11601 -0.49882,-0.14256 -0.84375,-0.0937 z" />
    <path
       style="fill:none;stroke:#374837;stroke-width:1px;stroke-linecap:round;stroke-linejoin:miter;stroke-opacity:1"
       d="m 491.96893,305.10682 c 0.20342,1.12454 -8.82551,5.46868 -13.03508,3.36389"
       id="path21664"
       inkscape:connector-curvature="0"
       transform="translate(0,308.2677)" />
  </g>
</svg>
