<?xml version="1.0" encoding="UTF-8" standalone="no"?>
<!-- Created with Inkscape (http://www.inkscape.org/) -->
<svg
   xmlns:dc="http://purl.org/dc/elements/1.1/"
   xmlns:cc="http://creativecommons.org/ns#"
   xmlns:rdf="http://www.w3.org/1999/02/22-rdf-syntax-ns#"
   xmlns:svg="http://www.w3.org/2000/svg"
   xmlns="http://www.w3.org/2000/svg"
   xmlns:sodipodi="http://sodipodi.sourceforge.net/DTD/sodipodi-0.dtd"
   xmlns:inkscape="http://www.inkscape.org/namespaces/inkscape"
   width="744.09448819"
   height="1052.3622047"
   id="svg2"
   sodipodi:version="0.32"
   inkscape:version="0.46"
   sodipodi:docname="arrows.svg"
   inkscape:output_extension="org.inkscape.output.svg.inkscape">
  <defs
     id="defs4">
    <inkscape:perspective
       sodipodi:type="inkscape:persp3d"
       inkscape:vp_x="0 : 526.18109 : 1"
       inkscape:vp_y="0 : 1000 : 0"
       inkscape:vp_z="744.09448 : 526.18109 : 1"
       inkscape:persp3d-origin="372.04724 : 350.78739 : 1"
       id="perspective10" />
  </defs>
  <sodipodi:namedview
     id="base"
     pagecolor="#ffffff"
     bordercolor="#666666"
     borderopacity="1.0"
     gridtolerance="10000"
     guidetolerance="10"
     objecttolerance="10"
     inkscape:pageopacity="0.0"
     inkscape:pageshadow="2"
     inkscape:zoom="2"
     inkscape:cx="197.54825"
     inkscape:cy="995.77592"
     inkscape:document-units="px"
     inkscape:current-layer="layer1"
     showgrid="false"
     inkscape:window-width="1438"
     inkscape:window-height="898"
     inkscape:window-x="0"
     inkscape:window-y="0" />
  <metadata
     id="metadata7">
    <rdf:RDF>
      <cc:Work
         rdf:about="">
        <dc:format>image/svg+xml</dc:format>
        <dc:type
           rdf:resource="http://purl.org/dc/dcmitype/StillImage" />
      </cc:Work>
    </rdf:RDF>
  </metadata>
  <g
     inkscape:label="Layer 1"
     inkscape:groupmode="layer"
     id="layer1">
    <path
       style="opacity:1;fill:#ffffff;fill-opacity:1;fill-rule:evenodd;stroke:#000000;stroke-width:2;stroke-linecap:butt;stroke-linejoin:miter;marker:none;marker-start:none;marker-mid:none;marker-end:none;stroke-miterlimit:4;stroke-dasharray:none;stroke-dashoffset:0;stroke-opacity:1;visibility:visible;display:inline;overflow:visible;enable-background:accumulate"
       d="M 237.8987,76.641638 C 237.49875,76.994864 237.09882,77.348088 236.69887,77.701314 C 235.85724,78.44463 234.83939,78.490644 233.76329,79.095902 C 232.64521,79.724771 231.20946,80.019223 230.3283,80.514833 C 229.4255,81.022621 228.06917,81.451452 227.38056,81.659715 C 226.10117,82.046644 224.69467,82.218629 223.42181,82.603585 C 222.25169,82.95747 221.55617,83.167818 220.46189,83.498765 C 219.30514,83.848603 218.42942,84.098436 217.24009,84.156413 C 215.99623,84.217048 214.8941,84.251184 213.73207,84.077124 C 212.99469,83.966669 210.99832,84.587167 210.51027,84.734772 C 209.63982,84.998024 209.55769,82.422889 209.36539,81.78702 C 209.06079,80.779873 209.24645,79.347155 209.19497,78.291171 C 209.13515,77.063936 209.10057,75.65674 209.27426,74.78315 C 209.38666,74.217849 212.83576,73.102101 213.43402,72.828294 C 215.26953,71.988231 216.97101,71.608537 218.83011,70.562873 C 220.99091,69.347516 223.44114,68.661574 225.71225,67.974714 C 228.15345,67.236416 230.32419,66.999002 232.91714,66.872602 C 234.57463,66.791804 236.15402,68.615267 237.04629,69.424582 C 237.76154,70.073333 238.13007,70.884937 238.90376,71.586707 C 239.90412,72.494056 238.74158,74.396742 238.31289,74.86937 C 238.19195,75.002717 237.90279,76.614345 237.8987,76.641638 z"
       id="path3195" />
    <path
       style="opacity:1;fill:#ffffff;fill-opacity:1;fill-rule:evenodd;stroke:#000000;stroke-width:2;stroke-linecap:butt;stroke-linejoin:miter;marker:none;marker-start:none;marker-mid:none;marker-end:none;stroke-miterlimit:4;stroke-dasharray:none;stroke-dashoffset:0;stroke-opacity:1;visibility:visible;display:inline;overflow:visible;enable-background:accumulate"
       d="M 163.6819,79.112182 C 163.51523,79.528848 163.34856,79.945515 163.1819,80.362182 C 162.88954,81.093061 162.13287,81.710232 161.6819,82.612182 C 161.20145,83.573081 160.32306,84.471016 159.9319,84.862182 C 159.29725,85.496829 158.30263,84.079864 157.4319,83.862182 C 156.22623,83.560765 155.27016,83.634247 154.1819,83.362182 C 152.97151,83.059586 152.58848,82.612182 151.1819,82.612182 C 150.32683,82.612182 148.64653,82.040839 147.9319,81.862182 C 147.20295,81.679944 145.92654,81.234505 145.1819,80.862182 C 144.43034,80.486403 143.14984,80.291668 142.4319,80.112182 C 141.29956,79.829098 140.14925,79.612182 138.9319,79.612182 C 137.84788,79.612182 136.7167,79.058384 135.9319,78.862182 C 134.63809,78.538731 135.04236,78.170312 135.4319,76.612182 C 135.81216,75.091114 136.23337,74.323575 137.1819,73.612182 C 137.99494,73.002399 139.80486,73.392923 140.6819,73.612182 C 142.13648,73.975827 143.67884,73.986418 145.1819,74.362182 C 146.35502,74.655463 147.66663,74.862182 148.9319,74.862182 C 150.27159,74.862182 151.63462,75.362182 153.1819,75.362182 C 154.77897,75.362182 157.08905,76.190757 158.4319,76.862182 C 159.41989,77.356177 160.59107,77.191768 161.4319,77.612182 C 162.54695,78.16971 162.39376,77.502008 163.6819,79.112182 z"
       id="path2394" />
    <path
       style="opacity:1;fill:#d0ff8f;fill-opacity:1;fill-rule:evenodd;stroke:#000000;stroke-width:2;stroke-linecap:butt;stroke-linejoin:miter;marker:none;marker-start:none;marker-mid:none;marker-end:none;stroke-miterlimit:4;stroke-dasharray:none;stroke-dashoffset:0;stroke-opacity:1;visibility:visible;display:inline;overflow:visible;enable-background:accumulate"
       d="M 245.90879,23.5625 C 246.01594,23.601394 246.08518,23.768049 246.15879,24.0625 C 246.52855,25.541534 246.65879,27.069196 246.65879,28.59375 C 246.6588,30.729694 247.17437,33.593953 246.65879,35.65625 C 246.4889,36.335849 245.02112,44.09059 245.65879,44.25 C 246.53049,44.467931 248.31103,44.40525 249.69004,44.75 C 252.72632,45.509069 256.10543,45.25 259.31504,45.25 C 263.43799,45.249998 266.93794,44.25 270.90879,44.25 C 273.55994,44.250001 276.3927,44.27196 279.00254,43.75 C 281.94979,43.16055 285.00562,43.25 288.09629,43.25 C 290.71719,43.250002 294.18104,43.87725 296.69004,43.25 C 299.16792,42.630532 301.97487,42.75 304.75254,42.75 C 307.44629,42.749999 310.15254,42.75 312.84629,42.75 C 316.55018,42.749999 320.23615,42.75 323.94004,42.75 C 326.64401,42.749999 329.02485,43.25 331.53379,43.25 C 334.22753,43.250002 336.90255,43.25 339.59629,43.25 C 342.12167,43.250002 344.66466,43.25 347.19004,43.25 C 348.22748,43.250002 356.78379,43.51983 356.78379,42.75 C 357.1205,43.591799 357.44708,44.4082 357.78379,45.25 C 358.39084,46.767608 357.16947,51.30104 356.78379,52.84375 C 356.33759,54.628502 357.28379,57.51012 357.28379,59.90625 C 357.28378,62.26327 357.28379,64.61172 357.28379,66.96875 C 357.28378,69.099887 357.78379,69.69881 357.78379,72.53125 C 357.78379,72.867973 357.78379,73.19453 357.78379,73.53125 C 357.00026,74.314781 357.78379,81.18234 357.78379,82.625 C 357.78379,85.193131 357.78379,86.95172 357.78379,89.71875 C 357.78379,92.917563 351.38886,89.71875 348.19004,89.71875 C 345.2863,89.718753 343.05781,90.21875 340.12754,90.21875 C 336.934,90.21875 333.83432,89.71875 330.50254,89.71875 C 326.00404,89.718753 321.78156,89.21875 317.37754,89.21875 C 314.34707,89.218747 311.31425,89.21875 308.28379,89.21875 C 303.58274,89.218747 298.96468,89.21875 294.15879,89.21875 C 289.84265,89.218747 285.14975,89.71649 281.03379,88.6875 C 278.70111,88.10432 275.36619,88.6875 272.94004,88.6875 C 268.73978,88.6875 265.0049,89.71875 260.81504,89.71875 C 257.61944,89.718753 254.72525,90.21875 251.72129,90.21875 C 249.23854,90.21875 246.87642,90.27316 244.65879,89.71875 C 244.49546,89.677923 244.32715,89.71875 244.15879,89.71875 C 242.56434,89.320143 243.44257,100.9189 243.62754,101.84375 C 244.14816,104.44682 244.65879,106.1613 244.65879,108.90625 C 244.65879,111.9868 244.73668,111.71922 243.62754,113.9375 C 242.66333,115.86592 240.52472,110.87046 238.59629,109.90625 C 236.01598,108.61609 234.52422,106.86543 232.53379,104.875 C 230.81633,103.15754 228.84009,101.80423 226.97129,99.3125 C 225.21274,96.967753 221.59314,95.38826 219.40879,93.75 C 219.21688,93.606069 219.02572,93.458944 218.84629,93.3125 C 219.18208,93.265589 219.54291,93.224282 219.94004,93.125 C 220.68511,92.938733 222.06876,92.874999 223.19004,92.875 C 224.35671,92.875 225.52337,92.874999 226.69004,92.875 C 228.33132,92.875 228.81219,92.470883 229.94004,91.625 C 230.55049,91.167164 231.67174,90.448196 231.94004,89.375 C 232.21849,88.261178 232.66172,87.738282 232.94004,86.625 C 233.2301,85.464751 233.14435,84.307761 233.44004,83.125 C 233.64033,82.323824 233.94004,81.051662 233.94004,79.875 C 233.94004,78.77246 233.85082,77.28578 233.19004,76.625 C 232.61465,76.049607 231.63626,75.075944 230.44004,75.375 C 229.05154,75.722124 229.07418,76.18293 227.69004,76.875 C 226.68071,77.379665 226.07165,78.092097 224.94004,78.375 C 223.65938,78.695165 222.53437,79.288916 221.19004,79.625 C 220.00963,79.920102 218.76952,79.83526 217.69004,80.375 C 216.59274,80.92365 214.69406,81.124999 213.44004,81.125 C 212.02337,81.125 210.60671,81.124999 209.19004,81.125 C 208.41786,81.125 207.63052,81.113768 206.81504,81.21875 C 206.80459,81.220095 206.79424,81.217365 206.78379,81.21875 C 205.27207,79.82592 204.27414,79.146596 202.22129,77.09375 C 199.88406,74.756511 198.32423,73.6967 196.15879,71.53125 C 193.95036,69.32283 191.42806,68.632289 190.59629,66.96875 C 189.78187,65.339918 193.8711,65.2252 195.15879,63.9375 C 196.5423,62.462153 199.218,60.65909 200.22129,59.90625 C 201.31286,58.81468 203.92929,58.19825 205.25254,56.875 C 207.16609,54.96144 209.13679,53.32119 211.81504,51.3125 C 213.38769,50.13301 215.83121,47.804421 217.87754,46.78125 C 220.36408,45.537981 222.42439,43.47658 224.94004,42.21875 C 226.53489,41.421319 230.04493,40.17636 231.53379,38.6875 C 232.76221,37.45909 234.40693,34.9853 236.06504,34.15625 C 238.03238,33.172584 240.39308,31.859462 242.12754,30.125 C 243.62986,28.622687 245.15875,23.290245 245.90879,23.5625 z"
       id="path2383" />
    <path
       style="opacity:1;fill:#d0ff8f;fill-opacity:1;fill-rule:evenodd;stroke:#000000;stroke-width:2;stroke-linecap:butt;stroke-linejoin:miter;marker:none;marker-start:none;marker-mid:none;marker-end:none;stroke-miterlimit:4;stroke-dasharray:none;stroke-dashoffset:0;stroke-opacity:1;visibility:visible;display:inline;overflow:visible;enable-background:accumulate"
       d="M 134.33815,21.28125 C 134.42097,21.308706 134.52738,21.506936 134.6194,21.875 C 135.01613,22.271741 136.2127,23.671649 136.6194,23.875 C 139.06192,25.096266 139.14838,25.903982 141.1819,27.9375 C 142.49081,29.246411 144.05994,30.264464 145.71315,32.46875 C 147.20221,34.454161 148.71147,35.967072 150.77565,38.03125 C 152.69117,39.946773 154.83389,42.089487 156.83815,44.09375 C 158.66736,45.922954 161.16003,48.975783 163.40065,50.65625 C 165.73943,52.410333 168.03273,54.28832 169.96315,56.21875 C 171.59686,57.852456 173.23306,59.095678 174.52565,61.25 C 174.86722,61.760118 175.18408,62.271133 175.52565,62.78125 C 176.77468,64.6466 177.99439,65.249992 179.1194,66.375 C 180.88983,67.475249 180.24456,67.518444 178.7444,68.5 C 177.91106,69.333337 176.73398,69.822917 175.90065,70.65625 C 175.12468,71.432212 173.3865,72.826646 172.33815,73.875 C 171.08052,75.132623 170.25817,76.298735 169.1194,77.4375 C 168.06413,78.492767 167.30738,79.394566 166.5569,80.25 C 166.54746,80.252479 166.53512,80.247593 166.52565,80.25 C 165.58179,80.489794 164.44565,80.375 163.4319,80.375 C 162.17725,80.374999 161.42866,79.875 160.1819,79.875 C 159.06061,79.874999 157.67696,79.811267 156.9319,79.625 C 155.78793,79.339008 154.38302,79.125 153.1819,79.125 C 151.95122,79.124999 150.96881,78.384228 149.9319,78.125 C 148.83507,77.850791 148.28357,77.625 146.9319,77.625 C 146.37458,77.624999 144.77727,77.023842 144.1819,76.875 C 143.18135,76.624863 141.54758,76.97108 140.9319,77.125 C 139.85548,77.394102 139.9319,78.769334 139.9319,79.625 C 139.9319,80.807591 140.40084,82.250765 140.6819,83.375 C 141.00843,84.681138 141.60905,85.833614 141.9319,87.125 C 142.24725,88.386427 142.36942,89.000052 142.9319,90.125 C 143.50198,91.265175 143.9893,91.739814 144.4319,92.625 C 144.95478,93.670774 145.99411,94.43721 146.6819,95.125 C 147.26523,95.708332 147.84856,96.291666 148.4319,96.875 C 148.60073,97.043832 148.86261,97.210131 149.15065,97.375 C 149.01746,97.509614 148.87736,97.648287 148.7444,97.78125 C 147.51072,99.014922 146.47518,101.11297 145.52565,102.0625 C 144.39919,103.18896 143.56876,104.42564 142.33815,105.65625 C 141.30334,106.69105 138.7917,109.46728 138.46315,109.90625 C 137.69501,110.55886 135.65325,111.76432 135.6194,111.78125 C 135.6194,112.68789 134.95611,113.43945 134.6194,114.28125 C 134.03957,115.7308 133.95566,109.68878 133.08815,106.21875 C 132.47291,103.75786 133.02881,99.862365 133.58815,97.625 C 134.11272,93.096427 134.15942,95.988148 133.08815,91.5625 C 133.04731,91.399164 133.08815,91.230859 133.08815,91.0625 C 130.02452,91.062501 127.27861,91.5625 123.9944,91.5625 C 120.12215,91.562496 116.27291,91.5625 112.40065,91.5625 C 108.02332,91.562496 103.62173,91.5625 99.244397,91.5625 C 96.213937,91.562496 93.212357,91.5625 90.181897,91.5625 C 86.918497,91.562496 83.750147,90.5625 80.556897,90.5625 C 77.533997,90.562498 73.593057,90.052901 70.463147,89.53125 C 67.762857,89.0812 64.607787,89.53125 61.869397,89.53125 C 59.195177,89.531251 56.877647,89.548939 54.806897,89.03125 C 52.444107,88.440551 49.206537,89.03125 46.744397,89.03125 C 44.041147,89.031247 41.926117,88.53125 39.150647,88.53125 C 38.731827,88.531253 36.791497,88.919233 36.119397,89.03125 C 33.443797,88.362346 30.028027,88.405655 27.525647,89.03125 C 24.085447,89.891296 22.994397,89.093653 22.994397,86 C 22.994387,83.642974 22.994397,81.294523 22.994397,78.9375 C 22.994387,76.580474 22.994397,74.232023 22.994397,71.875 C 22.994387,69.260157 23.494397,67.02775 23.494397,64.28125 C 23.494387,61.924229 23.494397,59.575773 23.494397,57.21875 C 23.494387,54.702806 23.528857,52.483977 23.994397,50.15625 C 24.571257,47.271968 23.006717,47.312953 24.494397,43.59375 C 24.662757,43.593751 24.862317,43.552917 25.025647,43.59375 C 25.921467,43.817706 30.659287,44.950965 32.088147,44.59375 C 34.422377,44.010196 36.783947,44.09375 39.650647,44.09375 C 40.746187,44.093749 46.303097,44.114225 48.306897,44.09375 C 50.369637,44.306821 56.035817,43.324328 57.838147,43.59375 C 60.743277,44.320031 63.856377,44.09375 66.931897,44.09375 C 70.130707,44.093749 73.326827,44.09375 76.525647,44.09375 C 79.387747,44.093749 82.257297,44.09375 85.119397,44.09375 C 88.255207,44.093749 91.043387,44.59375 94.213147,44.59375 C 96.822587,44.593752 99.032687,45.09375 101.77565,45.09375 C 105.63549,45.09375 110.69175,44.166527 114.40065,45.09375 C 117.21038,45.796185 120.40425,45.59375 123.4944,45.59375 C 124.44622,45.59375 133.43394,44.476923 133.58815,45.09375 C 134.18871,41.232605 135.36821,42.395361 134.6194,38.53125 C 134.03786,36.20514 134.72831,33.404386 134.1194,30.96875 C 133.47528,28.392304 133.75839,21.089061 134.33815,21.28125 z"
       id="path2387" />
    <path
       style="opacity:1;fill:#ffffff;fill-opacity:1;fill-rule:evenodd;stroke:#000000;stroke-width:2;stroke-linecap:butt;stroke-linejoin:miter;marker:none;marker-start:none;marker-mid:none;marker-end:none;stroke-miterlimit:4;stroke-dasharray:none;stroke-dashoffset:0;stroke-opacity:1;visibility:visible;display:inline;overflow:visible;enable-background:accumulate"
       d="M 154.6819,45.362182 C 155.09856,45.778848 155.51523,46.195515 155.9319,46.612182 C 156.62802,47.308308 156.90438,48.502131 157.1819,49.612182 C 157.45006,50.684851 157.4319,51.895386 157.4319,53.112182 C 157.4319,54.805235 157.10436,55.382224 156.1819,56.612182 C 155.45866,57.576497 155.02122,57.77286 154.1819,58.612182 C 153.53785,59.256229 151.94993,59.607673 150.9319,59.862182 C 149.67647,60.176037 148.51668,60.133378 147.4319,59.862182 C 146.18464,59.550367 145.22367,58.653958 144.1819,57.612182 C 143.28331,56.713591 142.76157,55.680892 142.4319,54.362182 C 142.09146,53.000452 141.5551,52.369376 141.9319,50.862182 C 142.22614,49.68521 142.61616,48.993645 143.1819,47.862182 C 143.70677,46.812443 144.72737,46.390574 145.4319,45.862182 C 146.22291,45.268918 147.39401,45.112182 148.4319,45.112182 C 149.80809,45.112182 150.70962,44.494112 152.1819,44.862182 C 153.14671,45.103386 153.68834,45.16347 154.6819,45.362182 z"
       id="path3166" />
    <path
       style="opacity:1;fill:#ff6969;fill-opacity:1;fill-rule:evenodd;stroke:#000000;stroke-width:2;stroke-linecap:butt;stroke-linejoin:miter;marker:none;marker-start:none;marker-mid:none;marker-end:none;stroke-miterlimit:4;stroke-dasharray:none;stroke-dashoffset:0;stroke-opacity:1;visibility:visible;display:inline;overflow:visible;enable-background:accumulate"
       d="M 145.1819,54.862182 C 147.62996,55.201419 147.30846,53.365315 146.6819,52.112182 C 145.82878,50.405951 144.4846,50.960827 143.6819,51.362182 C 142.0552,52.175531 144.65216,54.650286 145.1819,54.862182 z"
       id="path3168" />
    <path
       style="opacity:1;fill:none;fill-opacity:1;fill-rule:evenodd;stroke:#000000;stroke-width:2;stroke-linecap:round;stroke-linejoin:round;marker:none;marker-start:none;marker-mid:none;marker-end:none;stroke-miterlimit:4;stroke-dasharray:none;stroke-dashoffset:0;stroke-opacity:1;visibility:visible;display:inline;overflow:visible;enable-background:accumulate"
       d="M 171.6819,68.862182 C 172.09856,69.028848 172.51523,69.195515 172.9319,69.362182 C 174.10819,69.832698 174.33832,68.237877 174.1819,67.612182 C 173.81642,66.150295 172.41629,66.862182 171.4319,66.862182 C 170.1587,66.862182 169.93069,67.867009 169.6819,68.862182 C 169.55407,69.373492 169.30972,69.850872 169.1819,70.362182"
       id="path3174" />
    <path
       style="opacity:1;fill:none;fill-opacity:1;fill-rule:evenodd;stroke:#000000;stroke-width:2;stroke-linecap:round;stroke-linejoin:round;marker:none;marker-start:none;marker-mid:none;marker-end:none;stroke-miterlimit:4;stroke-dasharray:none;stroke-dashoffset:0;stroke-opacity:1;visibility:visible;display:inline;overflow:visible;enable-background:accumulate"
       d="M 155.4319,33.112182 C 155.01523,33.028848 154.59856,32.945515 154.1819,32.862182 C 153.08875,32.643551 151.65291,32.869429 150.6819,33.112182 C 149.38131,33.437327 148.38247,33.899248 147.4319,34.612182 C 146.41302,35.37634 145.97983,35.766305 145.4319,36.862182 C 144.80809,38.109791 144.01713,38.441724 143.4319,39.612182 C 142.91767,40.640643 142.20255,41.584638 141.4319,42.612182 C 140.85908,43.375937 140.6346,44.301384 140.4319,45.112182"
       id="path3180" />
    <path
       style="opacity:1;fill:#ffffff;fill-opacity:1;fill-rule:evenodd;stroke:#000000;stroke-width:2;stroke-linecap:butt;stroke-linejoin:miter;marker:none;marker-start:none;marker-mid:none;marker-end:none;stroke-miterlimit:4;stroke-dasharray:none;stroke-dashoffset:0;stroke-opacity:1;visibility:visible;display:inline;overflow:visible;enable-background:accumulate"
       d="M 224.52291,46.563445 C 223.54389,46.127055 222.62311,47.148602 221.5177,47.977659 C 220.5909,48.672761 219.49391,49.550365 219.04283,50.452533 C 218.53649,51.465213 218.65517,53.110403 218.86605,54.164843 C 219.10986,55.383887 219.17196,56.238514 220.10349,57.170047 C 220.84725,57.913806 221.90711,58.655343 222.75514,59.291367 C 223.76443,60.048338 224.62266,60.352027 225.93712,60.352027 C 226.92315,60.352027 227.74447,60.175251 228.76555,60.175251 C 229.94257,60.175251 230.41507,59.556827 231.24042,58.937814 C 232.06264,58.321152 232.65357,56.645063 232.83141,55.755833 C 233.12037,54.311067 233.53852,53.181434 233.53852,51.689969 C 233.53852,50.182954 233.098,49.217942 232.47786,47.977659 C 232.05637,47.134678 230.78527,46.247482 230.00299,45.856338 C 229.14999,45.429842 228.33381,45.502785 227.35133,45.502785 C 226.13643,45.502785 225.59262,45.921615 224.52291,46.563445 z"
       id="path3197" />
    <path
       style="opacity:1;fill:#ff6969;fill-opacity:1;fill-rule:evenodd;stroke:#000000;stroke-width:2;stroke-linecap:butt;stroke-linejoin:miter;marker:none;marker-start:none;marker-mid:none;marker-end:none;stroke-miterlimit:4;stroke-dasharray:none;stroke-dashoffset:0;stroke-opacity:1;visibility:visible;display:inline;overflow:visible;enable-background:accumulate"
       d="M 231.06365,55.93261 C 229.72117,55.93261 229.16985,56.489146 228.76555,54.87195 C 228.55904,54.045931 228.59397,53.260149 228.76555,52.573853 C 228.96911,51.759602 229.82903,51.734869 230.35654,51.866746 C 231.41181,52.130565 231.51966,52.630157 231.77075,53.634513 C 232.00201,54.559558 231.6104,55.249167 231.06365,55.93261 z"
       id="path3199" />
    <path
       style="opacity:1;fill:none;fill-opacity:1;fill-rule:evenodd;stroke:#000000;stroke-width:2;stroke-linecap:round;stroke-linejoin:round;marker:none;marker-start:none;marker-mid:none;marker-end:none;stroke-miterlimit:4;stroke-dasharray:none;stroke-dashoffset:0;stroke-opacity:1;visibility:visible;display:inline;overflow:visible;enable-background:accumulate"
       d="M 214.44664,38.608494 C 214.64976,39.420978 215.44543,37.256145 216.03763,36.66395 C 216.7379,35.963677 217.34399,35.851223 218.33572,35.60329 C 219.3974,35.337872 220.48367,35.219707 221.5177,35.426513 C 222.58729,35.64043 223.52933,35.70845 224.52291,35.956843 C 225.5586,36.215765 226.14388,36.590554 226.99778,37.017504 C 228.04902,37.543124 228.19045,37.967393 229.1191,38.431717 C 230.01664,38.880489 230.65497,39.967581 231.24042,40.553038 C 232.06566,41.378272 232.35691,41.483466 232.65464,42.674358 C 232.9015,43.661812 233.13047,44.224157 233.36174,45.149232 C 233.38195,45.230077 233.47959,45.267083 233.53852,45.326008"
       id="path3201" />
    <path
       style="opacity:1;fill:none;fill-opacity:1;fill-rule:evenodd;stroke:#000000;stroke-width:2;stroke-linecap:round;stroke-linejoin:round;marker:none;marker-start:none;marker-mid:none;marker-end:none;stroke-miterlimit:4;stroke-dasharray:none;stroke-dashoffset:0;stroke-opacity:1;visibility:visible;display:inline;overflow:visible;enable-background:accumulate"
       d="M 199.22734,67.362435 C 199.51624,67.420216 199.81659,67.362435 200.11122,67.362435 C 201.09481,67.362435 200.29201,66.127003 199.93444,65.948222 C 199.0704,65.516201 198.22128,66.009306 197.63635,66.301775 C 196.59181,66.824042 197.32445,68.152859 197.63635,68.776649 C 198.06122,69.626397 198.99879,69.798483 199.75767,70.367639 C 200.33151,70.798025 200.84246,70.261147 201.17188,70.014086"
       id="path3207" />
  </g>
</svg>
