<?xml version="1.0" encoding="UTF-8" standalone="no"?>
<!-- Created with Inkscape (http://www.inkscape.org/) -->

<svg
   xmlns:dc="http://purl.org/dc/elements/1.1/"
   xmlns:cc="http://creativecommons.org/ns#"
   xmlns:rdf="http://www.w3.org/1999/02/22-rdf-syntax-ns#"
   xmlns:svg="http://www.w3.org/2000/svg"
   xmlns="http://www.w3.org/2000/svg"
   xmlns:sodipodi="http://sodipodi.sourceforge.net/DTD/sodipodi-0.dtd"
   xmlns:inkscape="http://www.inkscape.org/namespaces/inkscape"
   width="744.09448819"
   height="1052.3622047"
   id="svg2"
   version="1.1"
   inkscape:version="0.48.3.1 r9886"
   sodipodi:docname="baudio.svg"
   inkscape:export-filename="/home/substack/projects/substack.net/static/images/baudio.png"
   inkscape:export-xdpi="74.208397"
   inkscape:export-ydpi="74.208397">
  <defs
     id="defs4" />
  <sodipodi:namedview
     id="base"
     pagecolor="#ffffff"
     bordercolor="#666666"
     borderopacity="1.0"
     inkscape:pageopacity="0.0"
     inkscape:pageshadow="2"
     inkscape:zoom="0.84082031"
     inkscape:cx="434.37096"
     inkscape:cy="835.26143"
     inkscape:document-units="px"
     inkscape:current-layer="layer1"
     showgrid="false"
     inkscape:window-width="1364"
     inkscape:window-height="766"
     inkscape:window-x="0"
     inkscape:window-y="0"
     inkscape:window-maximized="0" />
  <metadata
     id="metadata7">
    <rdf:RDF>
      <cc:Work
         rdf:about="">
        <dc:format>image/svg+xml</dc:format>
        <dc:type
           rdf:resource="http://purl.org/dc/dcmitype/StillImage" />
        <dc:title></dc:title>
      </cc:Work>
    </rdf:RDF>
  </metadata>
  <g
     inkscape:label="Layer 1"
     inkscape:groupmode="layer"
     id="layer1">
    <g
       transform="matrix(0.58883428,0,0,0.58883428,-153.80445,-238.28903)"
       id="layer1-9"
       inkscape:label="Layer 1">
      <path
         sodipodi:nodetypes="csssscscssssscssssccsssssssssssssssssssc"
         inkscape:connector-curvature="0"
         id="path5613"
         d="m 524.62422,609.21201 c -2.82538,0.82514 -15.52415,5.9375 -19.34375,5.9375 -9.07172,0 -21.16397,5.87757 -30.0625,8.84375 -11.95333,3.98444 -25.32044,5.66604 -38.03125,8.84375 -12.30186,3.07546 -24.23213,8.44285 -36.25,13.25 -20.16003,8.06401 -42.35947,11.9759 -62.09375,19.5625 -0.75497,-0.0321 -3.2031,-0.35941 -3.5625,0 -0.39136,0.39136 -0.76872,0.98746 -1.09375,1.75 0.0229,1.83458 -0.15625,3.87821 -0.15625,5.125 0,5.32792 1.12617,38.26037 1.25058,46.28212 0.16734,10.79027 2.49942,37.71265 2.49942,44.40538 0,1.81852 -0.79562,5.90877 0,7.5 0.54294,1.08589 8.82321,5.04196 10.03125,6.25 0.42043,0.42043 2.1813,1.11001 3.875,1.9375 7.75725,0.32904 16.56802,0.98692 22.71875,1.625 8.74967,0.90769 30.15261,-0.33111 36.25,-0.0312 10.78838,0.53058 25.47684,-4.05845 31.84375,-0.875 3.91818,1.95909 50.67834,2.58639 55.71875,0.90625 5.25386,-1.75128 14.49642,1.56429 19.4375,-0.90625 0.19981,-0.0999 0.65585,-0.16003 0.90625,-0.25 0.008,-4.93217 0.53616,-19.47567 1.46875,-33.75 0.46974,-7.18993 1.04498,-14.26603 1.6875,-19.9375 0.32126,-2.83573 0.67456,-5.34486 1.03125,-7.3125 0.35669,-1.96764 0.7068,-3.41359 1.09375,-4.1875 0.45661,-0.91321 0.7382,-1.97181 0.875,-3.15625 0.1368,-1.18444 0.14634,-2.47408 0.0625,-3.84375 -0.16767,-2.73934 -0.6698,-5.7858 -1.125,-8.75 -0.4552,-2.9642 -0.86311,-5.84274 -0.8125,-8.34375 0.0253,-1.2505 0.16824,-2.40055 0.46875,-3.40625 0.30051,-1.0057 0.76262,-1.88762 1.4375,-2.5625 0.26698,-0.26698 0.44888,-1.30169 0.5625,-2.90625 0.11362,-1.60456 0.14751,-3.76491 0.15625,-6.34375 0.0175,-5.15768 -0.13883,-11.9063 -0.25,-18.78125 -0.11117,-6.87495 -0.17926,-13.87676 -0.0312,-19.5625 0.074,-2.84287 0.19473,-5.37439 0.40625,-7.375 0.21152,-2.00061 0.50873,-3.48621 0.90625,-4.28125 0.28692,-0.57383 0.43698,-1.26932 0.46875,-2.0625 0.0318,-0.79318 -0.0445,-1.67789 -0.1875,-2.625 -0.28594,-1.89422 -0.84125,-4.03879 -1.34375,-6.15625 -0.40081,-1.68897 -0.64173,-3.28075 -0.8125,-4.8125 z"
         style="fill:#b7b2ab;fill-opacity:1;stroke:#ffffff;stroke-width:1px;stroke-linecap:butt;stroke-linejoin:miter;stroke-opacity:0" />
      <path
         inkscape:connector-curvature="0"
         id="path5575"
         d="m 525.37422,608.96201 c -0.0805,0.0182 -0.63205,0.21555 -0.75,0.25 0.17077,1.53175 0.41169,3.12353 0.8125,4.8125 0.5025,2.11746 1.05781,4.26203 1.34375,6.15625 0.14297,0.94711 0.21927,1.83182 0.1875,2.625 -0.0318,0.79318 -0.18183,1.48867 -0.46875,2.0625 -0.39752,0.79504 -0.69473,2.28064 -0.90625,4.28125 -0.21152,2.00061 -0.33224,4.53213 -0.40625,7.375 -0.14801,5.68574 -0.0799,12.68755 0.0312,19.5625 0.11117,6.87495 0.26747,13.62357 0.25,18.78125 -0.009,2.57884 -0.0426,4.73919 -0.15625,6.34375 -0.11362,1.60456 -0.29552,2.63927 -0.5625,2.90625 -0.67488,0.67488 -1.13699,1.5568 -1.4375,2.5625 -0.30051,1.0057 -0.44345,2.15575 -0.46875,3.40625 -0.0506,2.50101 0.3573,5.37955 0.8125,8.34375 0.4552,2.9642 0.95733,6.01066 1.125,8.75 0.0838,1.36967 0.0743,2.65931 -0.0625,3.84375 -0.1368,1.18444 -0.41839,2.24304 -0.875,3.15625 -0.38695,0.77391 -0.73706,2.21986 -1.09375,4.1875 -0.35669,1.96764 -0.70999,4.47677 -1.03125,7.3125 -0.64252,5.67147 -1.21776,12.74757 -1.6875,19.9375 -0.93259,14.27433 -1.46071,28.81783 -1.46875,33.75 8.35876,-3.00352 43.86395,-0.625 53.03125,-0.625 33.61677,0 67.12581,-3.53125 100.8125,-3.53125 6.89695,0 13.93193,-0.0734 21.03125,-0.1875 2.76805,-3.49857 6.40625,-7.55696 6.40625,-8.0625 0,-7.03754 1.11958,-29.14539 4.375,-35.65625 1.45545,-2.91073 -1.5344,-18.4656 0,-20 2.30045,-2.30043 1.54255,-16.57369 3.12505,-18.15625 0.3026,-0.30264 0.7184,-0.63228 1.1874,-0.96875 0.2292,-1.74615 0.5865,-3.18018 1.0313,-3.625 2.3581,-2.35812 -1.4831,-10.92313 0.875,-13.28125 0.1792,-0.17924 2.0182,-2.38804 0.875,-3.53125 -1.6048,-1.60482 -66.0886,-23.80037 -74.28125,-26.53125 -24.06879,-8.02293 -48.33996,-15.23832 -71.625,-23 -11.14305,-3.71435 -25.96459,-3.83959 -32.71875,-10.59375 -1.41805,-1.41805 -5.88442,-1.47817 -7.0625,-2.65625 -0.0198,-0.0198 -0.11603,-0.0303 -0.25,0 z"
         style="fill:#999289;fill-opacity:1;stroke:#ffffff;stroke-width:1px;stroke-linecap:butt;stroke-linejoin:miter;stroke-opacity:0" />
      <path
         inkscape:connector-curvature="0"
         id="path5724"
         d="m 434.81172,642.39951 c -1.22252,0.12889 -2.6418,0.17305 -3.21875,0.75 -5.41506,5.41505 -32.71454,5.18329 -38.78125,11.25 -0.64449,0.64449 -3.7305,-0.0195 -4.375,0.625 -4.99405,4.99405 -28.34625,6.47125 -33.125,11.25 -0.64449,0.64449 -3.7305,-0.0195 -4.375,0.625 -2.43373,2.43373 -8.01755,2.4171 -10.625,5 -4e-5,5.5e-4 -0.0312,-5.5e-4 -0.0312,0 -0.3075,4.42632 1.18149,10.69352 0,11.875 -2.06657,2.06657 -0.1598,35.49645 1.25,36.90625 0.82436,0.82436 0,6.82962 0,8.125 0,5.88335 -0.71724,28.65776 1.875,31.25 1.28496,1.28496 -1.25,5.70915 -1.25,6.90625 0,0.36485 4.85572,-2.32448 5.03125,-2.5 1.21928,-1.21929 7.45117,-4.30858 8.75,-6.90625 l 68.78125,-74.40625 c 0,-1.61574 8.08926,-29.33927 9.375,-30.625 0.0172,-0.0172 0.0451,-0.0441 0.0625,-0.0625 0.15862,-2.32286 0.35688,-5.67657 0.65625,-10.0625 z"
         style="fill:#a7a199;fill-opacity:1;stroke:#ffffff;stroke-width:1px;stroke-linecap:butt;stroke-linejoin:miter;stroke-opacity:0" />
      <path
         inkscape:connector-curvature="0"
         id="path5644"
         d="m 433.05835,651.27114 c -1.78134,0.0618 -6.61958,2.65625 -7.5625,2.65625 -0.0481,0 -5.89665,0.89665 -6.25,1.25 -0.51005,0.51005 -1.05393,1.08198 -1.59375,1.6875 -0.0974,0.0592 -0.24654,0.15452 -0.3125,0.1875 -3.0403,1.52015 -5.1768,1.6509 -8.125,3.125 -3.57155,1.78577 -8.07486,1.22493 -11.875,3.125 -16.25885,8.12943 -36.50549,5.72842 -51.28125,14.375 0.74585,3.72924 0.83589,7.24405 0.71875,10.71875 1.20986,7.54446 0.30245,23.3455 0.96875,24.09375 2.54866,2.86221 0.12633,31.37364 0.65625,31.96875 0.34635,0.38896 0.96199,9.75923 1.40625,18.34375 2.81423,0.30438 17.67629,1.01121 18.15625,0.53125 1.8126,-1.8126 6.22241,0.63879 8.75,-0.625 5.16855,-2.58428 24.72663,1.07419 29.375,-1.25 2.22353,-1.11176 13.59543,-0.43918 14.40625,-1.25 0.15362,-0.15362 4.86293,-0.93993 9.96875,-1.75 -0.2705,-5.50271 -0.8839,-12.0447 0.0312,-13.875 1.24444,-2.48888 3.125,-44.84902 3.125,-50.65625 l 0,-36.875 c 0,-1.70277 1.56539,-4.0596 0,-5.625 -0.10892,-0.10892 -0.30802,-0.16507 -0.5625,-0.15625 z"
         style="fill:#38a4d1;fill-opacity:1;stroke:#ffffff;stroke-width:1px;stroke-linecap:butt;stroke-linejoin:miter;stroke-opacity:0" />
      <path
         inkscape:connector-curvature="0"
         id="path5672"
         d="m 519.06172,763.11826 c -8.24821,0.41756 -16.08163,0.97831 -16.8125,1.34375 -4.06651,2.03325 -28.79907,-1.5536 -33.15625,0.625 -3.43477,1.71738 -28.12225,1.24725 -28.75,1.875 -3.31641,3.31641 -13.61871,-1.62815 -18.125,0.625 -4.97479,2.4874 -15.19212,-1.16956 -20.03125,1.25 -2.16441,1.08221 -5.40557,-0.42221 -7.5,0.625 -4.40686,2.20343 -11.32036,-0.90232 -15.625,1.25 -5.69444,2.84722 -29.2624,0.21948 -41.40625,-0.4375 0.043,0.14701 0.0648,0.31706 0.125,0.4375 0.54294,1.08589 8.82321,5.04196 10.03125,6.25 0.42043,0.42043 2.1813,1.11001 3.875,1.9375 7.75725,0.32904 16.56802,0.98692 22.71875,1.625 8.74967,0.90769 30.15261,-0.33116 36.25,-0.0312 10.78838,0.53058 25.47684,-4.05845 31.84375,-0.875 3.91818,1.95909 50.67834,2.58639 55.71875,0.90625 5.25386,-1.75128 14.49642,1.56429 19.4375,-0.90625 0.19981,-0.0999 0.65585,-0.16003 0.90625,-0.25 0.005,-2.82844 0.17511,-8.96331 0.5,-16.25 z"
         style="fill:#a7a199;fill-opacity:1;stroke:#ffffff;stroke-width:1px;stroke-linecap:butt;stroke-linejoin:miter;stroke-opacity:0" />
      <path
         inkscape:connector-curvature="0"
         id="path5677"
         d="m 622.24922,762.86826 c -10.01051,0.11484 -28.34471,1.40673 -29.96875,2.21875 -3.54187,1.77093 -41.0632,-0.625 -47.53125,-0.625 -3.38041,0 -17.64917,-0.8081 -25.6875,-0.90625 -0.31286,7.09474 -0.49548,13.03909 -0.5,15.8125 8.35876,-3.00352 43.86395,-0.625 53.03125,-0.625 33.61677,0 67.12581,-3.53125 100.8125,-3.53125 6.89695,0 13.93193,-0.0734 21.03125,-0.1875 2.76805,-3.49857 6.40625,-7.55696 6.40625,-8.0625 0,-0.201 -0.002,-0.52513 0,-0.75 -10.50359,-0.30173 -23.59425,-0.5 -26.28125,-0.5 -7.74307,0 -40.4063,-0.20315 -45,-2.5 -0.56531,-0.28266 -2.97566,-0.38203 -6.3125,-0.34375 z"
         style="fill:#8f877d;fill-opacity:1;stroke:#ffffff;stroke-width:1px;stroke-linecap:butt;stroke-linejoin:miter;stroke-opacity:0" />
      <path
         inkscape:connector-curvature="0"
         id="path5802"
         d="m 423.46797,674.27451 c -0.62606,0 -0.8266,0.12182 -1.09375,0.21875 -0.26715,0.0969 -0.53562,0.21475 -0.8125,0.34375 -0.55376,0.258 -1.16491,0.5597 -1.8125,0.90625 -1.29518,0.6931 -2.70684,1.50967 -3.4375,1.875 -0.61653,0.30826 -2.36902,0.46782 -4.21875,0.5625 -1.84973,0.0947 -3.97654,-0.0235 -5.6875,1.6875 -0.66036,0.66036 -0.71273,1.14173 -0.84375,1.65625 -0.13102,0.51452 -0.21352,1.05784 -0.28125,1.6875 -0.13546,1.25932 -0.19963,2.83272 -0.21875,4.65625 -0.0382,3.64705 0.10542,8.29476 0.3125,13 0.20708,4.70524 0.46869,9.46402 0.6875,13.3125 0.21881,3.84848 0.375,6.87197 0.375,7.71875 0,1.78016 0.24927,4.11524 0.21875,6.0625 -0.0153,0.97363 -0.10587,1.85339 -0.25,2.375 -0.1081,0.39121 -0.21936,0.48896 -0.1875,0.46875 -1.95637,0.9583 -4.5783,1.625 -7.15625,1.625 -0.85839,0 -1.44407,0.15233 -2.34375,0.34375 -0.89968,0.19142 -1.93747,0.45073 -2.9375,0.65625 -0.90543,0.18608 -1.72152,0.33182 -2.375,0.40625 0.0321,-0.35004 0.0474,-0.68051 0.125,-1.15625 0.11126,-0.68186 0.24864,-1.41998 0.3125,-2.1875 0.0639,-0.76752 0.13437,-1.57501 -0.375,-2.59375 -0.53971,-1.07941 -0.91708,-4.40797 -0.78125,-8.4375 0.13583,-4.02953 0.61339,-8.87366 1.125,-13.59375 0.51161,-4.72009 1.04957,-9.30927 1.25,-13.03125 0.10022,-1.86099 0.12712,-3.4891 0,-4.875 -0.12712,-1.3859 -0.21117,-2.58616 -1.34375,-3.71875 -4.7e-4,-4.7e-4 -0.24902,-0.23829 -0.375,-0.3125 -0.12598,-0.0742 -0.24409,-0.12034 -0.34375,-0.15625 -0.19932,-0.0718 -0.35458,-0.11203 -0.46875,-0.125 -0.22833,-0.0259 -0.34368,-0.009 -0.4375,0 -0.18764,0.0184 -0.26614,0.0433 -0.34375,0.0625 -0.15523,0.0384 -0.25631,0.0848 -0.375,0.125 -0.23737,0.0804 -0.5231,0.1873 -0.84375,0.3125 -0.64131,0.25039 -1.44985,0.57398 -2.3125,0.9375 -1.7253,0.72704 -3.51734,1.50867 -4.3125,1.90625 0.16534,-0.0827 -0.83303,0.27876 -1.90625,0.5625 -1.07322,0.28374 -2.40816,0.61513 -3.71875,0.9375 -1.31059,0.32237 -2.59427,0.63493 -3.59375,0.90625 -0.49974,0.13566 -0.91766,0.25184 -1.28125,0.375 -0.18179,0.0616 -0.33292,0.12689 -0.53125,0.21875 -0.0992,0.0459 -0.21535,0.0814 -0.375,0.1875 -0.15965,0.10611 -0.40907,0.19315 -0.71875,0.8125 -0.63308,1.26616 -0.81714,2.67799 -0.9375,4.4375 -0.12036,1.75951 -0.10729,3.83551 -0.0312,6.15625 0.15197,4.64148 0.61464,10.21491 1.09375,15.65625 0.47911,5.44134 0.97617,10.74575 1.21875,14.78125 0.12129,2.01775 0.16163,3.72342 0.125,4.90625 -0.0157,0.50735 -0.0557,0.86072 -0.0937,1.125 -0.0742,0.0174 -0.0965,0.0553 -0.5625,0.15625 -0.67172,0.14549 -1.62008,0.27319 -2.59375,0.34375 -1.94733,0.14111 -4.05129,0.125 -5.1875,0.125 -0.86611,0 -1.2552,0.14742 -2.09375,0.3125 -0.83855,0.16508 -1.83431,0.37429 -2.8125,0.5625 -0.76858,0.14788 -1.44752,0.25448 -2.0625,0.34375 0.006,-0.20302 -0.0128,-0.34257 0,-0.5625 0.0669,-1.14902 0.21875,-2.15914 0.21875,-3.03125 0,-3.95723 -0.58894,-9.64724 -0.71875,-15.21875 -0.12981,-5.57151 0.3057,-11.01766 1.75,-13.90625 0.69732,-1.39466 0.31256,-2.43718 0.1875,-3.125 -0.12506,-0.68782 0.01,-1.0192 -0.1875,-0.625 0.27734,-0.55468 0.36862,-0.94786 0.53125,-1.5625 0.16263,-0.61464 0.31505,-1.33908 0.4375,-2.09375 0.12245,-0.75467 0.20504,-1.51168 0.1875,-2.28125 -0.0175,-0.76957 0.0747,-1.64407 -0.90625,-2.625 -0.68893,-0.68892 -1.36689,-0.71312 -1.8125,-0.71875 -0.44561,-0.006 -0.79697,0.0756 -1.15625,0.15625 -0.71855,0.16138 -1.42449,0.40731 -2.125,0.6875 -0.70051,0.28019 -1.39825,0.57647 -1.9375,0.84375 -0.26962,0.13364 -0.48168,0.25838 -0.6875,0.375 -0.20582,0.11662 -0.25592,0.0372 -0.75,0.53125 -0.0344,0.0344 -0.59433,0.25522 -1.5,0.40625 0.0328,1.36666 0.086,2.71371 0.0937,4.0625 0.0779,-0.0132 0.13578,-0.0508 0.21875,-0.0625 1.04829,-0.14828 2.5092,-0.24191 3.78125,-1.34375 -0.003,0.006 0.0851,-0.0889 0.125,-0.125 0.11064,-0.0627 0.27972,-0.14081 0.5,-0.25 0.44057,-0.21837 1.04137,-0.48531 1.625,-0.71875 0.16728,-0.0669 0.27482,-0.0973 0.4375,-0.15625 -0.0227,0.20405 0.004,0.34628 -0.0312,0.5625 -0.0976,0.60179 -0.24535,1.22876 -0.375,1.71875 -0.12965,0.48999 -0.33667,0.98584 -0.25,0.8125 -0.69733,1.39466 -0.28131,2.43718 -0.15625,3.125 0.0938,0.51586 0.0202,0.85336 0.0625,0.8125 -2.02823,4.21175 -2.19519,9.89849 -2.0625,15.59375 0.13466,5.77984 0.71875,11.57792 0.71875,15.125 0,0.0235 -0.14315,1.51413 -0.21875,2.8125 -0.0378,0.64919 -0.0657,1.31339 -0.0312,1.9375 0.0172,0.31206 0.0457,0.59127 0.125,0.9375 0.0793,0.34623 0.12708,0.78333 0.6875,1.34375 0.50218,0.50218 0.9084,0.56549 1.1875,0.625 0.2791,0.0595 0.48026,0.0586 0.6875,0.0625 0.41447,0.008 0.81481,-0.0114 1.25,-0.0625 0.87037,-0.10215 1.88912,-0.30429 2.90625,-0.5 1.01713,-0.19571 2.03858,-0.404 2.84375,-0.5625 0.80517,-0.1585 1.69094,-0.21875 1.3125,-0.21875 1.10189,0 3.3316,8.8e-4 5.5,-0.15625 1.0842,-0.0786 2.14791,-0.19462 3.125,-0.40625 0.97709,-0.21163 1.8672,-0.36723 2.78125,-1.28125 0.75331,-0.75331 0.77166,-1.30267 0.875,-1.875 0.10334,-0.57233 0.13435,-1.19907 0.15625,-1.90625 0.0438,-1.41437 -1.5e-4,-3.20423 -0.125,-5.28125 -0.2497,-4.15403 -0.77236,-9.45038 -1.25,-14.875 -0.47764,-5.42462 -0.91574,-10.95503 -1.0625,-15.4375 -0.0734,-2.24124 -0.0739,-4.24274 0.0312,-5.78125 0.0836,-1.22163 0.27399,-1.82494 0.40625,-2.28125 0.17235,-0.0504 0.2822,-0.0971 0.5,-0.15625 0.92105,-0.25003 2.19137,-0.55311 3.5,-0.875 1.30863,-0.32189 2.65158,-0.63884 3.78125,-0.9375 1.12967,-0.29866 1.85065,-0.45658 2.6875,-0.875 0.45395,-0.22698 2.37811,-1.07145 4.0625,-1.78125 0.49756,-0.20967 0.87847,-0.35449 1.3125,-0.53125 0.006,0.0485 -0.005,0.0115 0,0.0625 0.0957,1.04288 0.0634,2.55372 -0.0312,4.3125 -0.18942,3.51756 -0.70546,8.1082 -1.21875,12.84375 -0.51329,4.73555 -1.01316,9.63001 -1.15625,13.875 -0.14127,4.19106 -0.10417,7.64479 1.15625,10.25 -0.0287,-0.0233 0.0303,0.19811 0,0.5625 -0.0404,0.48587 -0.16401,1.18773 -0.28125,1.90625 -0.11724,0.71852 -0.21188,1.44606 -0.21875,2.25 -0.007,0.80394 0.004,1.84797 0.9375,2.78125 0.72544,0.72544 1.3253,0.73576 1.8125,0.78125 0.4872,0.0455 0.95936,0.0133 1.4375,-0.0312 0.95627,-0.0893 2.00324,-0.28231 3.0625,-0.5 1.05926,-0.21769 2.11678,-0.44373 2.96875,-0.625 0.85197,-0.18127 1.65849,-0.28125 1.5,-0.28125 3.29065,0 6.46645,-0.81134 9.03125,-2.09375 1.29106,-0.64552 1.88764,-1.85231 2.1875,-2.9375 0.29986,-1.08519 0.35695,-2.22367 0.375,-3.375 0.0361,-2.30266 -0.21875,-4.76235 -0.21875,-6.125 0,-1.26844 -0.15619,-4.08904 -0.375,-7.9375 -0.21881,-3.84846 -0.48195,-8.61065 -0.6875,-13.28125 -0.20555,-4.6706 -0.34925,-9.27637 -0.3125,-12.78125 0.0184,-1.75244 0.0768,-3.2211 0.1875,-4.25 0.0491,-0.45652 0.10471,-0.7716 0.15625,-1 0.1301,-0.0453 1.20288,-0.38316 2.875,-0.46875 1.76353,-0.0903 3.84164,-0.0146 5.8125,-1 0.93458,-0.46729 2.29425,-1.24428 3.53125,-1.90625 0.39013,-0.20877 0.70004,-0.33339 1.03125,-0.5 0.13133,0.54174 0.28118,1.12127 0.375,1.90625 0.2492,2.08503 0.3125,4.55935 0.3125,5.59375 0,2.79197 -0.60933,13.61016 -0.90625,23.84375 -0.14846,5.11679 -0.2069,10.13243 -0.0937,14.0625 0.0566,1.96503 0.13515,3.643 0.3125,5 0.0887,0.6785 0.22032,1.26444 0.375,1.8125 0.15468,0.54806 0.24258,1.08633 0.875,1.71875 0.51167,0.51167 0.79347,0.48842 0.96875,0.53125 0.17528,0.0428 0.28944,0.0554 0.375,0.0625 0.17112,0.0143 0.26109,0.003 0.375,0 0.22782,-0.006 0.46995,-0.006 0.75,-0.0312 0.56011,-0.0499 1.28963,-0.14452 2.15625,-0.25 0.90071,-0.10963 2.13756,-0.25944 3.25,-0.40625 0.094,-1.34675 0.18941,-2.59514 0.28125,-4.0625 -1.40721,0.17916 -2.90452,0.36667 -4,0.5 -0.56111,0.0683 -0.93202,0.11259 -1.34375,0.15625 -0.0337,-0.18888 -0.0628,-0.29457 -0.0937,-0.53125 -0.14623,-1.11883 -0.22686,-2.73504 -0.28125,-4.625 -0.10878,-3.77992 -0.0535,-8.73257 0.0937,-13.8125 0.29478,-10.15985 0.90625,-20.65955 0.90625,-23.96875 0,-1.18483 -0.0614,-3.70002 -0.34375,-6.0625 -0.14118,-1.18124 -0.32539,-2.30891 -0.65625,-3.3125 -0.16543,-0.5018 -0.37364,-0.99664 -0.75,-1.5 -0.37636,-0.50336 -1.12355,-1.125 -2.125,-1.125 z"
         style="font-size:medium;font-style:normal;font-variant:normal;font-weight:normal;font-stretch:normal;text-indent:0;text-align:start;text-decoration:none;line-height:normal;letter-spacing:normal;word-spacing:normal;text-transform:none;direction:ltr;block-progression:tb;writing-mode:lr-tb;text-anchor:start;baseline-shift:baseline;color:#000000;fill:#b8eefb;fill-opacity:1;stroke:none;stroke-width:4;marker:none;visibility:visible;display:inline;overflow:visible;enable-background:accumulate;font-family:Sans;-inkscape-font-specification:Sans" />
      <path
         inkscape:connector-curvature="0"
         id="path6211"
         d="m 507.56172,627.52451 c -0.1439,-0.1439 -7.99118,3.125 -10,3.125 -1.0324,0 -3.12238,0.77993 -4.0625,1.25 -1.72918,0.86459 -4.1985,0.38049 -5.9375,1.25 -0.98527,0.49263 -4.57728,1.13978 -5,1.5625 -1.04141,1.04141 -7.20421,2.96148 -9.40625,4.0625 -0.57928,0.28964 -2.40214,0.21464 -2.8125,0.625 -0.98318,0.98318 -11.99244,3.65247 -14.6875,5 -2.5638,1.2819 -3.98689,0.43952 -6.5625,2.5 1.50251,13.15372 0.9375,27.77832 0.9375,41.25 0,2.06825 -0.042,4.12616 -0.0625,6.1875 3.06418,-1.1625 10.09325,-0.64037 12.875,-2.03125 0.9043,-0.45214 3.12426,0.18823 3.75,-0.4375 1.08107,-1.08108 7.52261,-0.90193 9.28125,-1.78125 1.74555,-0.87277 11.81619,-1.87869 12.15625,-2.21875 0.23786,-0.23786 13.16698,-2.875 14.15625,-2.875 0.79578,0 2.8761,-0.47521 5.03125,-1.03125 0.037,-3.20893 0.0312,-6.14864 0.0312,-7.375 0,-2.6435 -1.39413,-11.27423 -0.3125,-13.4375 1.45352,-2.90704 0.625,-12.86946 0.625,-16.5625 0,-3.04413 1.20159,-9.47181 0,-11.875 -0.75852,-1.51703 1.15295,-6.03455 0,-7.1875 z"
         style="fill:#cdcac5;fill-opacity:1;stroke:#ffffff;stroke-width:1px;stroke-linecap:butt;stroke-linejoin:miter;stroke-opacity:0" />
      <path
         inkscape:connector-curvature="0"
         id="path6205"
         d="m 507.12422,688.43076 c -1.27781,0.17105 -2.34293,0.34984 -2.78125,0.4375 -5.8495,1.1699 -11.80202,3.08217 -17.8125,3.75 -12.24417,1.36047 -24.66886,2.74923 -36.59375,5.71875 -0.0926,6.74917 -0.21875,13.4735 -0.21875,20.15625 0,1.64585 0.36259,6.0333 0.40625,9.53125 1.32393,-0.22466 2.66467,-0.39483 3.875,-1 0.9563,-0.47815 2.57268,0.26054 3.53125,-0.21875 3.00717,-1.50358 7.30334,-0.57354 10.15625,-2 0.41267,-0.20633 1.14983,0.20634 1.5625,0 2.81975,-1.40987 9.04013,-0.77006 11.9375,-2.21875 0.93582,-0.46791 2.3574,0.04 3.3125,-0.4375 1.294,-0.64701 3.49271,0.0232 4.875,-0.4375 2.22756,-0.74252 7.27651,0.23674 9.5,-0.875 1.13035,-0.56518 3.83466,-0.12798 5.59375,-0.3125 0.17537,-1.16305 0.28125,-2.32599 0.28125,-3.28125 0,-1.21395 0.64375,-7.53752 1.25,-8.75 1.37962,-2.75925 -1.04923,-7.58904 0.3125,-10.3125 0.47055,-0.9411 0.69558,-5.20662 0.8125,-9.75 z"
         style="fill:#cdcac5;fill-opacity:1;stroke:#ffffff;stroke-width:1px;stroke-linecap:butt;stroke-linejoin:miter;stroke-opacity:0" />
      <path
         inkscape:connector-curvature="0"
         id="path5864"
         d="m 503.09297,725.83701 c -3.73283,0.53697 -7.60005,0.22936 -11.375,0.6875 -13.70006,1.66269 -28.10519,1.58052 -41.6875,4.625 -0.0654,0.60203 -0.16835,1.11794 -0.3125,1.40625 -1.04087,2.08176 -0.625,7.04334 -0.625,9.375 0,1.18906 -0.96627,8.72123 -0.9375,8.75 0.15544,0.15544 4.42662,-0.9375 5.625,-0.9375 1.45383,0 4.51084,1.49458 6.25,0.625 1.30419,-0.65209 4.9599,-1.15919 6.5625,-0.625 1.67296,0.55766 5.72976,0.90258 7.5,0.3125 1.86271,-0.6209 4.34978,0.32091 6.25,-0.3125 1.96185,-0.65395 4.41346,-1.25 6.59375,-1.25 3.3715,0 7.50157,-1.25 10.625,-1.25 2.15759,0 4.0625,-1.77268 4.0625,-1.5625 l 0,-2.8125 c 0,-1.75498 0.625,-4.34012 0.625,-6.5625 0,-1.60674 0.34891,-7.42612 0.84375,-10.46875 z"
         style="fill:#cdcac5;fill-opacity:1;stroke:#ffffff;stroke-width:1px;stroke-linecap:butt;stroke-linejoin:miter;stroke-opacity:0" />
      <path
         style="fill:#8f877d;fill-opacity:1;stroke:#ffffff;stroke-width:1.41628027px;stroke-linecap:butt;stroke-linejoin:miter;stroke-opacity:0"
         d="m 475.48125,731.88858 c -0.60194,0.0627 -1.44798,0.58416 -1.72259,0.58582 -0.99184,0.006 -8.70115,3.90904 -9.26734,4.48212 -0.33446,0.33853 -0.55739,0.67324 -0.55111,1.70898 -0.15692,1.43745 -0.14852,1.32584 -0.14739,1.51228 0.006,1.10662 1.08686,2.00166 1.84117,2.74686 1.91303,1.88999 9.45879,5.12057 11.52583,3.02832 1.10924,-1.12278 2.00663,-2.73074 2.84995,-4.44323 0.23495,-0.47711 0.14736,-1.03975 0.43453,-1.33042 0.33958,-0.34371 -0.0809,-2.34613 -0.23739,-2.65414 -0.11753,-0.23157 0.17108,-0.93081 -0.006,-1.10644 -0.33388,-0.32986 -0.4815,-1.35555 -0.89588,-1.76496 -1.33079,-1.31475 -1.71191,-1.98308 -2.97763,-2.0179 -0.10916,-0.24999 -0.21544,-0.4768 -0.35781,-0.61746 -0.11699,-0.11557 -0.287,-0.15074 -0.48764,-0.12976 z"
         id="path6150"
         inkscape:connector-curvature="0"
         sodipodi:nodetypes="ssscssscccsccss" />
      <path
         inkscape:connector-curvature="0"
         id="path5986"
         d="m 487.54901,676.28212 c 0.37986,0.67166 -0.93794,1.8802 -0.93794,4.68967 0,4.42892 10.97032,0.14245 12.50579,-0.62529 2.11858,-1.05929 1.94031,-3.19089 3.43909,-4.68967 0.15633,-0.15632 -0.15632,-0.78161 0,-0.93793 0.68722,-0.68722 0.33808,-2.5266 0.93794,-3.12645 3.1289,-3.1289 -5.35474,-15.61235 -10.31728,-13.13108 -0.67244,0.33622 -1.10618,-0.1444 -1.56322,0.31264 -0.80514,0.80514 -2.48388,0.29537 -3.43909,1.25058 -0.96076,0.96076 -0.87408,2.0608 -1.56323,3.4391 -0.0936,0.18715 0.0703,2.50115 0,2.50115 -2.22041,0 -2.57203,1.75499 -4.68967,2.81381"
         style="fill:#b7b2ab;fill-opacity:1;stroke:#ffffff;stroke-width:1px;stroke-linecap:butt;stroke-linejoin:miter;stroke-opacity:0" />
      <path
         inkscape:connector-curvature="0"
         id="path5915"
         d="m 487.86165,660.64988 c -1.70391,-0.97033 -5.59221,2.77841 -8.4414,5.62761 -0.44001,0.44 -0.60115,1.53908 -0.93794,1.87587 -0.71381,0.71381 -0.62529,3.26878 -0.62529,4.37702 0,5.80679 2.78662,10.00464 9.0667,10.00464 1.64966,0 3.35873,-0.23229 4.37703,-1.25058 0.63485,-0.63486 2.17278,-0.60956 2.8138,-1.25058 0.52107,-0.52108 1.04215,-1.04215 1.56322,-1.56323 0.34519,-0.34518 3.46325,-8.72989 2.50116,-9.69198 -0.38986,-0.38986 -0.41013,-1.66071 -0.93793,-2.18852 -2.42556,-2.42555 -4.78233,-7.77905 -9.37935,-5.94025 z"
         style="fill:#eeedeb;fill-opacity:1;stroke:#ffffff;stroke-width:1px;stroke-linecap:butt;stroke-linejoin:miter;stroke-opacity:0" />
      <path
         inkscape:connector-curvature="0"
         id="path5932"
         d="m 463.16272,682.84766 c 0.27682,-0.37899 0.39308,3.16667 1.56322,3.75174 0.83996,0.41997 3.47188,-0.97072 3.75174,-1.25058 0.43748,-0.43749 5.17662,-0.48696 5.6276,-0.93794 1.12279,-1.12279 4.41416,-7.11656 2.81381,-10.31727 -0.38542,-0.77083 -0.15481,-2.34332 -0.62529,-2.81381 -1.4318,-1.43179 -2.42383,-4.61234 -4.37703,-6.56554 -0.44393,-0.44392 -3.67945,0 -4.37703,0 -3.86434,0 -2.28371,1.53619 -3.12644,4.06439 -0.22188,0.66562 -0.30683,1.55158 -0.62529,2.18851 -0.10422,0.20843 -0.54568,0.62529 -0.31265,0.62529 1.12217,0 2.52386,-2.11603 4.06438,-2.50116"
         style="fill:#b7b2ab;fill-opacity:1;stroke:#ffffff;stroke-width:1px;stroke-linecap:butt;stroke-linejoin:miter;stroke-opacity:0" />
      <path
         inkscape:connector-curvature="0"
         id="path5930"
         d="m 463.47536,666.27749 c -0.86666,-0.31853 -5.42697,2.41254 -7.19083,5.94025 -1.67436,3.34872 -2.07539,9.17981 0.62529,11.8805 1.82382,1.82381 8.65475,2.91311 10.94257,0.62529 1.45166,-1.45166 2.82809,-3.46766 4.06438,-5.94025 0.2918,-0.58361 -0.2918,-1.60491 0,-2.18852 1.75435,-3.50869 -2.55004,-9.71642 -5.00232,-10.94256 -0.86791,-0.43396 -2.85546,0.39184 -3.43909,0.62529 z"
         style="fill:#eeedeb;fill-opacity:1;stroke:#ffffff;stroke-width:1px;stroke-linecap:butt;stroke-linejoin:miter;stroke-opacity:0" />
      <path
         inkscape:connector-curvature="0"
         id="path5988"
         d="m 463.50142,671.74313 c -0.97473,-0.58454 -2.14893,0.15928 -3.53717,1.54751 -0.99457,0.99458 -0.99922,6.07513 0,7.07435 0.5874,0.58739 1.44603,0.94408 2.21073,1.32644 0.37913,0.18956 1.50604,0.46288 1.98966,0.22107 1.82092,-0.91046 5.12129,-4.34825 3.75825,-7.07434 -0.11597,-0.23193 -0.053,-0.93732 -0.22108,-1.10537 -0.45978,-0.45978 -1.00169,-0.78062 -1.54751,-1.32644 -0.7025,-0.7025 -1.08509,-0.97677 -2.65288,-0.66322 z"
         style="fill:#cdcac5;fill-opacity:1;stroke:#ffffff;stroke-width:1px;stroke-linecap:butt;stroke-linejoin:miter;stroke-opacity:0" />
      <path
         inkscape:connector-curvature="0"
         id="path5990"
         d="m 486.71412,666.43737 c -1.18133,-0.41635 -2.47182,1.1854 -3.75825,3.75825 -1.48166,2.96332 0.65589,6.29692 3.09503,7.51649 1.09231,0.54615 3.07352,-0.54193 3.75824,-0.88429 1.27437,-0.63719 1.05873,-1.94302 1.76859,-2.65288 2.94746,-2.94746 -1.67301,-9.01381 -4.86361,-7.73757 z"
         style="fill:#cdcac5;fill-opacity:1;stroke:#ffffff;stroke-width:1px;stroke-linecap:butt;stroke-linejoin:miter;stroke-opacity:0" />
      <path
         inkscape:connector-curvature="0"
         id="path6044"
         d="m 473.05883,697.6398 c 0.6514,0.24337 -1.08502,-1.41613 -2.18851,-0.31265 -2.46895,2.46896 -7.02055,3.55354 -8.44141,7.81612 -0.57553,1.7266 -0.57513,4.52749 0,6.2529 0.67753,2.03259 0.95907,3.794 1.87587,5.6276 0.23074,0.46149 1.7294,1.33367 2.18851,1.56323 4.08294,2.04146 10.98911,4.33048 14.69431,0.62529 0.7655,-0.76551 2.48842,-1.22512 3.12644,-2.50116 0.85656,-1.71312 3.22995,-8.54705 2.18852,-10.62992 -2.40418,-4.80836 -6.65468,-11.15703 -13.44373,-8.44141 z"
         style="fill:#eeedeb;fill-opacity:1;stroke:#ffffff;stroke-width:1px;stroke-linecap:butt;stroke-linejoin:miter;stroke-opacity:0" />
      <path
         sodipodi:nodetypes="csssssssssc"
         inkscape:connector-curvature="0"
         id="path6046"
         d="m 472.74619,702.01683 c 0.56057,-1.10454 -1.47423,0.93793 -2.50116,0.93793 -0.48966,0 -0.38897,0.38897 -0.62529,0.62529 -0.62462,0.62462 -1.37901,0.75372 -1.87587,1.25058 -1.76628,1.76628 -0.12593,7.56425 0.62529,9.0667 0.91837,1.83673 3.59084,3.12644 5.31496,3.12644 0.24481,0 1.40722,0.15601 1.56323,0 0.89745,-0.89745 2.83638,-1.89845 3.75173,-2.8138 1.00581,-1.00581 0.5847,-2.41998 1.25058,-3.75174 0.44478,-0.88956 0.44095,-1.92233 0,-2.8138 -2.48157,-5.017 -3.0155,-5.6145 -7.50347,-5.6276 z"
         style="fill:#cdcac5;fill-opacity:1;stroke:#ffffff;stroke-width:1px;stroke-linecap:butt;stroke-linejoin:miter;stroke-opacity:0" />
      <path
         inkscape:connector-curvature="0"
         id="path6087"
         d="m 473.61981,705.31286 c -0.15964,-0.0243 -0.32587,-0.0403 -0.52501,-0.087 -1.50718,-0.0385 -4.14512,0.11239 -6.12181,0.85523 -0.45352,0.44436 -0.91264,0.83654 -1.00373,0.89396 -0.29048,0.18312 -0.43529,1.21343 -0.53237,1.64168 -0.2319,1.02295 0.19277,2.08212 0.56679,3.01235 0.823,0.57305 1.85207,1.03186 2.34464,1.81323 0.35361,0.56093 2.65642,0.4151 2.812,0.31703 0.29853,-0.18819 1.16768,0.43288 1.52383,0.34544 1.13128,-0.2777 1.71811,-0.56067 2.47881,-1.04021 1.37217,-0.86502 1.70626,-5.6487 0.53657,-6.60738 -1.17125,-0.95993 -1.60079,-1.0716 -2.07972,-1.14435 z"
         style="fill:#999289;fill-opacity:1;stroke:#ffffff;stroke-width:1px;stroke-linecap:butt;stroke-linejoin:miter;stroke-opacity:0" />
      <path
         inkscape:connector-curvature="0"
         id="path6105"
         d="m 474.55523,706.13372 c -0.90376,-0.1562 -3.89839,0.26625 -3.97379,0.28476 l 0.12475,0.15645 c -0.35203,-0.0945 -0.68699,-0.13185 -0.95169,-0.1837 0.33098,0.17365 0.84327,0.67993 1.09103,1.68926 0.25961,1.05753 0.0797,3.34556 -0.89815,3.96198 -0.20366,0.12839 -2.14202,0.53856 -1.95258,0.83908 0.23292,0.36947 1.63069,0.14748 1.74531,0.0752 0.38743,-0.24423 0.98487,-0.49026 1.46088,-0.79033 0.65506,-0.41295 0.88611,-1.24605 0.90055,-2.13499 l 0.0402,0.10525 c 0.21479,-0.005 0.63934,-0.229 0.64408,-0.0142 1.21271,-0.0838 3.41502,-0.59103 3.12289,-1.05442 -0.1923,-0.30506 -3.09522,0.1814 -3.82424,0.19049 -0.0728,-0.69891 -0.25131,-1.36168 -0.41932,-1.82538 0.17089,-0.11661 0.33777,-0.23986 0.5234,-0.32995 0.80581,-0.39105 1.78451,-0.2107 2.37518,-0.58306 0.34351,-0.21654 0.29273,-0.33438 -0.009,-0.38645 z m -2.41347,4.00298 c -0.19642,-0.0445 0.5475,0.16618 0.63717,0.0163 -0.25741,0.0173 -0.5089,0.0128 -0.63717,-0.0163 z m -2.38726,-3.74547 c -0.12331,-0.0647 -0.22718,-0.0799 -0.27429,-0.0622 0.0503,0.0114 0.19651,0.0469 0.27429,0.0622 z m 5.22237,5.79806 c -0.32766,-0.0118 -0.90526,0.1266 -0.92934,0.14179 -0.43638,0.27509 -1.57917,-0.57177 -2.01553,-0.29669 -0.24674,0.15554 -0.70827,0.20455 -1.20486,0.36772 0.17199,0.039 0.517,-0.0293 0.59287,0.0703 0.90261,0.0873 1.89781,0.0137 2.55843,0.16342 0.21649,0.0491 1.56966,0.21094 1.20486,-0.36772 -0.0278,-0.044 -0.0972,-0.0749 -0.20643,-0.0788 z m -3.55686,0.28314 c -0.20147,-0.0195 -0.40663,-0.0281 -0.59287,-0.0703 -0.20328,-0.0461 0.56345,0.34145 0.60953,0.13818 0.007,-0.0313 -0.003,-0.0498 -0.0167,-0.0679 z"
         style="fill:#6c655d;fill-opacity:1;stroke:#ffffff;stroke-width:1px;stroke-linecap:butt;stroke-linejoin:miter;stroke-opacity:0" />
      <path
         style="fill:#cdcac5;fill-opacity:1;stroke:#ffffff;stroke-width:1.41628027px;stroke-linecap:butt;stroke-linejoin:miter;stroke-opacity:0"
         d="m 470.85868,734.33368 c -0.0991,0.021 -0.23131,0.0561 -0.30901,0.13458 -1.01772,1.03013 0.12611,1.22444 0.80819,1.89826 0.19518,0.19284 0.33726,0.44155 0.44687,0.70545 0.0145,0.0511 0.0299,0.0753 0.0451,0.13244 0.38443,1.45339 0.98022,4.75214 -0.18534,5.9319 -0.26939,0.27268 -1.54037,1.43887 -1.53697,2.001 0.002,0.34541 2.76485,-0.8485 2.87141,-0.9026 1.18703,-0.60253 4.27995,1.0114 5.091,0.19045 1.40074,-1.4178 -4.12495,-1.21573 -4.43517,-1.52221 -0.24776,-0.24476 0.13323,-0.94269 0.21458,-1.10778 0.47896,-0.9726 -0.65857,-1.5451 0.87578,-1.5544 0.73461,-0.004 5.97056,-0.7365 5.9681,-1.14266 -10e-4,-0.25551 -0.7877,-0.33828 -0.88783,-0.43721 -1.33117,-1.31513 -3.15208,0.24039 -4.86703,0.25079 -0.17335,10e-4 -0.99532,0.1165 -1.10646,0.006 -0.0836,-0.0825 -0.42415,-1.14205 -0.49757,-1.76735 -10e-4,-0.0174 9e-4,-0.0277 -2.6e-4,-0.0442 l 0.0434,-0.13297 c -0.0197,0.01 -0.0266,-0.004 -0.0442,2.6e-4 -0.002,-0.11215 0.008,-0.23124 0.0426,-0.26581 0.2968,-0.30042 4.32251,-1.22867 3.75118,-1.79312 -0.44468,-0.43931 -2.51926,0.32351 -2.65279,0.45867 -0.249,0.25202 -1.26988,-0.0243 -1.68073,0.18723 -0.0195,-0.0382 -0.0204,-0.10807 -0.0451,-0.13243 -0.11569,-0.11429 -1.21532,-1.24192 -1.90979,-1.09492 z m 2.18044,1.93421 c 0.20599,0.26642 0.34585,0.53038 0.092,0.57482 -0.0612,-0.13871 -0.0591,-0.35134 -0.092,-0.57482 z"
         id="path6152"
         inkscape:connector-curvature="0" />
      <path
         sodipodi:nodetypes="ssscssscccsccss"
         inkscape:connector-curvature="0"
         id="path6127"
         d="m 495.2701,729.71227 c -0.65584,0.0683 -1.57766,0.63647 -1.87687,0.63829 -1.08069,0.007 -9.48058,4.2592 -10.09749,4.88363 -0.36443,0.36885 -0.60733,0.73354 -0.60049,1.86205 -0.17098,1.56623 -0.16181,1.44462 -0.16059,1.64776 0.007,1.20573 1.18422,2.18095 2.00608,2.99291 2.08442,2.05929 10.30611,5.57925 12.5583,3.29958 1.20862,-1.22334 2.18639,-2.97536 3.10525,-4.84124 0.25599,-0.51986 0.16057,-1.13289 0.47345,-1.44959 0.36999,-0.37449 -0.0882,-2.5563 -0.25863,-2.89189 -0.12809,-0.25232 0.18639,-1.01419 -0.007,-1.20556 -0.36379,-0.35941 -0.52463,-1.47697 -0.97614,-1.92305 -1.44998,-1.43253 -1.86523,-2.16071 -3.24434,-2.19866 -0.11893,-0.27239 -0.23473,-0.51951 -0.38987,-0.67278 -0.12746,-0.12592 -0.3127,-0.16425 -0.53134,-0.14137 z"
         style="fill:#8f877d;fill-opacity:1;stroke:#ffffff;stroke-width:1.54314792px;stroke-linecap:butt;stroke-linejoin:miter;stroke-opacity:0" />
      <path
         inkscape:connector-curvature="0"
         id="path6129"
         d="m 490.23347,732.37639 c -0.10803,0.0229 -0.25204,0.0611 -0.33668,0.14664 -1.10889,1.1224 0.1374,1.33412 0.88056,2.0683 0.21267,0.21012 0.36748,0.4811 0.4869,0.76864 0.0158,0.0558 0.0326,0.082 0.0491,0.1443 0.41884,1.58359 1.06801,5.17783 -0.20196,6.46328 -0.29354,0.29711 -1.67834,1.56776 -1.67463,2.18024 0.002,0.37634 3.01251,-0.9245 3.12862,-0.98345 1.29336,-0.6565 4.66333,1.102 5.54705,0.2075 1.5262,-1.54479 -4.49448,-1.32463 -4.83249,-1.65856 -0.26994,-0.26669 0.14516,-1.02714 0.23381,-1.20703 0.52185,-1.0597 -0.71757,-1.6835 0.95421,-1.69363 0.80044,-0.005 6.50543,-0.80247 6.50275,-1.24502 -10e-4,-0.27838 -0.85827,-0.36858 -0.96738,-0.47637 -1.45042,-1.43294 -3.43445,0.26194 -5.30301,0.27326 -0.18889,10e-4 -1.08447,0.12694 -1.20556,0.007 -0.091,-0.0899 -0.46215,-1.24435 -0.54214,-1.92568 -0.001,-0.0189 9.7e-4,-0.03 -2.9e-4,-0.0482 l 0.0472,-0.14489 c -0.0216,0.0104 -0.029,-0.005 -0.0482,2.9e-4 -0.002,-0.1222 0.009,-0.25196 0.0464,-0.28963 0.32342,-0.32734 4.70973,-1.33872 4.08723,-1.95373 -0.48451,-0.47868 -2.74494,0.35248 -2.89044,0.49975 -0.27128,0.2746 -1.38363,-0.0265 -1.83127,0.204 -0.0213,-0.0416 -0.0222,-0.11777 -0.0491,-0.1443 -0.12607,-0.12455 -1.32419,-1.35316 -2.08086,-1.19299 z m 2.37575,2.10747 c 0.22444,0.29029 0.37683,0.57788 0.10029,0.62631 -0.0667,-0.15114 -0.0643,-0.38281 -0.10029,-0.62631 z"
         style="fill:#cdcac5;fill-opacity:1;stroke:#ffffff;stroke-width:1.54314792px;stroke-linecap:butt;stroke-linejoin:miter;stroke-opacity:0" />
      <path
         sodipodi:nodetypes="ssscssscccsccss"
         inkscape:connector-curvature="0"
         id="path6154"
         d="m 456.95803,733.76427 c -0.56767,0.0591 -1.36554,0.5509 -1.62451,0.55246 -0.93538,0.006 -8.20581,3.6865 -8.73977,4.22696 -0.31542,0.31926 -0.52565,0.63492 -0.51973,1.6117 -0.14799,1.35562 -0.14007,1.25036 -0.139,1.42619 0.006,1.0436 1.02498,1.88769 1.73634,2.59047 1.80413,1.7824 8.92032,4.82906 10.86969,2.85592 1.0461,-1.05885 1.89239,-2.57529 2.6877,-4.19028 0.22158,-0.44996 0.13898,-0.98056 0.40979,-1.25468 0.32024,-0.32414 -0.0763,-2.21257 -0.22386,-2.50304 -0.11086,-0.21839 0.16133,-0.87782 -0.006,-1.04346 -0.31488,-0.31108 -0.4541,-1.27837 -0.8449,-1.66448 -1.25501,-1.2399 -1.61443,-1.87018 -2.8081,-1.90302 -0.10294,-0.23576 -0.20317,-0.44965 -0.33745,-0.58231 -0.11032,-0.10899 -0.27065,-0.14216 -0.45988,-0.12237 z"
         style="fill:#8f877d;fill-opacity:1;stroke:#ffffff;stroke-width:1.33565331px;stroke-linecap:butt;stroke-linejoin:miter;stroke-opacity:0" />
      <path
         inkscape:connector-curvature="0"
         id="path6156"
         d="m 452.59862,736.07017 c -0.0935,0.0198 -0.21814,0.0529 -0.29141,0.12692 -0.95978,0.97148 0.11893,1.15473 0.76217,1.79019 0.18408,0.18186 0.31806,0.41641 0.42143,0.66529 0.0137,0.0483 0.0282,0.071 0.0425,0.1249 0.36253,1.37064 0.9244,4.48161 -0.1748,5.59421 -0.25407,0.25715 -1.45267,1.35695 -1.44946,1.88708 0.002,0.32574 2.60745,-0.8002 2.70794,-0.85121 1.11945,-0.56824 4.0363,0.95381 4.80118,0.1796 1.32099,-1.33708 -3.89014,-1.14652 -4.1827,-1.43555 -0.23364,-0.23083 0.12565,-0.88903 0.20237,-1.04473 0.45168,-0.91722 -0.62108,-1.45713 0.82592,-1.4659 0.6928,-0.004 5.63068,-0.69457 5.62836,-1.07761 -10e-4,-0.24095 -0.74286,-0.31902 -0.8373,-0.41232 -1.25538,-1.24026 -2.97265,0.22672 -4.58996,0.23652 -0.16347,9.9e-4 -0.93865,0.10987 -1.04346,0.006 -0.0788,-0.0778 -0.4,-1.07704 -0.46924,-1.66675 -10e-4,-0.0164 8.5e-4,-0.026 -2.5e-4,-0.0417 l 0.0409,-0.1254 c -0.0186,0.009 -0.0251,-0.004 -0.0417,2.5e-4 -0.002,-0.10578 0.008,-0.21809 0.0402,-0.25069 0.27993,-0.28332 4.07646,-1.15872 3.53765,-1.69104 -0.41936,-0.4143 -2.37584,0.30509 -2.50177,0.43257 -0.23482,0.23766 -1.19759,-0.0229 -1.58505,0.17656 -0.0184,-0.036 -0.0192,-0.10193 -0.0425,-0.12489 -0.10911,-0.1078 -1.14614,-1.17122 -1.80107,-1.03259 z m 2.05631,1.82409 c 0.19427,0.25125 0.32616,0.50019 0.0868,0.5421 -0.0577,-0.13082 -0.0557,-0.33134 -0.0868,-0.5421 z"
         style="fill:#cdcac5;fill-opacity:1;stroke:#ffffff;stroke-width:1.33565331px;stroke-linecap:butt;stroke-linejoin:miter;stroke-opacity:0" />
      <path
         inkscape:connector-curvature="0"
         id="path6278"
         d="m 456.8248,647.44731 c -0.27798,0.30044 0.0784,0.17483 -0.33161,0.99483 -0.024,0.048 0.0682,5.88437 0.11054,5.96897 0.27343,0.54688 0.14299,1.13783 0.55268,1.54752 0.20265,0.20265 0.5711,0.23949 0.77375,0.44214 0.20489,0.20488 4.13382,-0.59664 4.2004,-0.66322 0.14941,-0.14941 1.50422,-0.19943 1.76858,-0.33161 0.32956,-0.16478 0.78577,-0.0613 1.10537,-0.22107 1.37586,-0.68793 2.7883,-0.57757 3.75824,-1.54751 0.0814,-0.0814 0.11054,-1.19968 0.11054,-1.32644 0,-1.11223 0.12334,-8.16691 -0.33161,-8.62186 -0.34802,-0.34802 -6.49251,1.07622 -6.74273,1.32644 -0.20265,0.20265 -0.79218,0.0184 -0.99483,0.22107 -1.01384,1.01384 -3.60251,0.70347 -3.97932,2.21074 z"
         style="fill:#eeedeb;fill-opacity:1;stroke:#ffffff;stroke-width:1px;stroke-linecap:butt;stroke-linejoin:miter;stroke-opacity:0" />
      <path
         sodipodi:nodetypes="ccscssssccc"
         inkscape:connector-curvature="0"
         id="path6276"
         d="m 457.26694,647.55784 c 0.22178,1.0534 -0.004,7.62282 0.33161,7.95864 0.23797,0.23796 1.20772,-0.11054 1.43698,-0.11054 0.14815,0 3.78766,-0.899 3.97931,-0.99483 0.59774,-0.29887 2.30497,-0.20477 2.65288,-0.55268 0.16154,-0.16154 0,-1.30583 0,-1.54752 0,-0.95886 -0.3081,-3.07576 -0.22107,-3.86878 0.0995,-0.90641 0.26286,-2.83217 -0.33161,-3.42664 -0.0969,-0.0969 -1.3958,0.14523 -2.21073,0.44215 -1.16313,0.24996 -1.88267,0.49918 -2.4318,0.77376 -1.43137,0.71568 -2.43909,0.049 -3.20557,1.32644 z"
         style="fill:#e64a19;fill-opacity:1;stroke:#ffffff;stroke-width:1px;stroke-linecap:butt;stroke-linejoin:miter;stroke-opacity:0" />
      <path
         style="fill:#eeedeb;fill-opacity:1;stroke:#ffffff;stroke-width:1.03299785px;stroke-linecap:butt;stroke-linejoin:miter;stroke-opacity:0"
         d="m 470.98209,642.78291 c -0.28715,0.31035 0.081,0.1806 -0.34255,1.02766 -0.0248,0.0496 0.0704,6.07854 0.11419,6.16593 0.28245,0.56493 0.1477,1.17538 0.57091,1.59858 0.20934,0.20934 0.58995,0.2474 0.79929,0.45673 0.21165,0.21164 4.27022,-0.61632 4.339,-0.6851 0.15434,-0.15434 1.55386,-0.20601 1.82694,-0.34255 0.34043,-0.17022 0.8117,-0.0633 1.14184,-0.22837 1.42126,-0.71063 2.88031,-0.59663 3.88226,-1.59857 0.0841,-0.0841 0.11418,-1.23927 0.11418,-1.37021 0,-1.14893 0.12741,-8.4364 -0.34255,-8.90636 -0.3595,-0.35951 -6.70675,1.11173 -6.96522,1.37021 -0.20934,0.20933 -0.81832,0.019 -1.02766,0.22836 -1.04729,1.04729 -3.72139,0.72668 -4.11063,2.28369 z"
         id="path6280"
         inkscape:connector-curvature="0" />
      <path
         style="fill:#795d55;fill-opacity:1;stroke:#ffffff;stroke-width:1.03299785px;stroke-linecap:butt;stroke-linejoin:miter;stroke-opacity:0"
         d="m 471.43882,642.89709 c 0.2291,1.08816 -0.004,7.87435 0.34255,8.22125 0.24583,0.24582 1.24757,-0.11418 1.4844,-0.11418 0.15304,0 3.91264,-0.92867 4.11062,-1.02766 0.61746,-0.30873 2.38103,-0.21153 2.74042,-0.57092 0.16687,-0.16687 0,-1.34892 0,-1.59858 0,-0.9905 -0.31827,-3.17726 -0.22837,-3.99644 0.10279,-0.93632 0.27154,-2.92563 -0.34255,-3.53971 -0.1001,-0.1001 -1.44186,0.15002 -2.28368,0.45674 -1.20151,0.2582 -1.94479,0.51565 -2.51204,0.79929 -1.4786,0.73929 -2.51958,0.0506 -3.31135,1.37021 z"
         id="path6282"
         inkscape:connector-curvature="0"
         sodipodi:nodetypes="ccscssssccc" />
      <path
         inkscape:connector-curvature="0"
         id="path6284"
         d="m 486.0173,638.27504 c -0.30051,0.32479 0.0848,0.189 -0.35849,1.07547 -0.0259,0.0519 0.0737,6.36135 0.1195,6.45281 0.29559,0.59121 0.15457,1.23006 0.59747,1.67295 0.21908,0.21908 0.6174,0.25891 0.83648,0.47798 0.2215,0.22149 4.4689,-0.64499 4.54088,-0.71697 0.16152,-0.16152 1.62615,-0.2156 1.91194,-0.35849 0.35626,-0.17814 0.84946,-0.0662 1.19496,-0.23899 1.48739,-0.7437 3.01432,-0.62439 4.06289,-1.67295 0.088,-0.088 0.11949,-1.29693 0.11949,-1.43396 0,-1.20238 0.13334,-8.82891 -0.35849,-9.32073 -0.37623,-0.37624 -7.01879,1.16345 -7.28928,1.43396 -0.21908,0.21907 -0.85639,0.0199 -1.07547,0.23898 -1.09602,1.09602 -3.89453,0.76049 -4.30188,2.38994 z"
         style="fill:#eeedeb;fill-opacity:1;stroke:#ffffff;stroke-width:1.08105874px;stroke-linecap:butt;stroke-linejoin:miter;stroke-opacity:0" />
      <path
         sodipodi:nodetypes="ccscssssccc"
         inkscape:connector-curvature="0"
         id="path6286"
         d="m 486.49528,638.39453 c 0.23976,1.13879 -0.004,8.24071 0.35848,8.60375 0.25727,0.25726 1.30562,-0.11949 1.55347,-0.11949 0.16016,0 4.09467,-0.97188 4.30187,-1.07547 0.64618,-0.3231 2.4918,-0.22137 2.86792,-0.59748 0.17463,-0.17464 0,-1.41168 0,-1.67296 0,-1.03658 -0.33308,-3.32508 -0.239,-4.18238 0.10757,-0.97988 0.28417,-3.06174 -0.35849,-3.70439 -0.10475,-0.10476 -1.50894,0.157 -2.38993,0.47799 -1.25741,0.27021 -2.03527,0.53964 -2.62891,0.83647 -1.54739,0.77369 -2.63681,0.053 -3.46541,1.43396 z"
         style="fill:#73d118;fill-opacity:1;stroke:#ffffff;stroke-width:1.08105874px;stroke-linecap:butt;stroke-linejoin:miter;stroke-opacity:0" />
      <path
         inkscape:connector-curvature="0"
         id="path6343"
         d="m 658.7966,747.23666 c -3.70833,-0.87281 -8.02887,-1.23195 -11.88543,-0.8733 -2.32978,0.21695 -5.40791,-0.8291 -7.72584,-1.18447 -6.27276,-0.9617 -16.05308,-2.69374 -22.13093,-2.12778 -6.58204,0.6129 -13.62193,-0.0744 -20.08505,1.03257 -2.59887,0.4451 -5.73603,-0.79696 -8.22441,0.004 -1.81202,0.58349 -9.89237,-0.92751 -11.31474,-0.4695 -1.89183,0.60917 -9.28468,0.47431 -11.40949,0.14855 -0.62399,0.45809 -3.49795,3.08027 -3.61151,2.92558 -1.04198,-1.41933 1.29102,-3.96454 1.94682,-4.44598 2.32677,-1.70817 14.99012,-1.1811 19.06321,-0.55664 3.26733,0.50092 13.77241,0.55946 16.49617,-0.3176 1.68501,-0.54257 10.32379,1.08237 11.93281,0.56422 2.27668,-0.73309 18.10373,0.69626 18.25561,0.58475 1.33214,-0.97796 16.82686,0.68199 19.75343,1.13067 1.47078,0.2255 7.31441,0.99762 7.94011,1.84992 0.3949,0.53791 0.38387,1.47661 0.99924,1.73469 1.77118,0.74281 1.09138,-1.50194 1.94897,-0.33379 0.17044,0.23216 3.123,2.64382 2.35488,3.20772 -0.47746,0.35053 -3.17902,-3.28096 -4.30385,-2.87393 z"
         style="fill:#5e514e;fill-opacity:1;stroke:#ffffff;stroke-width:1px;stroke-linecap:butt;stroke-linejoin:miter;stroke-opacity:0" />
      <path
         inkscape:connector-curvature="0"
         id="path6358"
         d="m 574.95531,722.0431 c -0.85591,-0.006 -1.60139,0.16389 -2.15625,0.71875 -0.30013,0.30013 -1.48028,-0.19736 -1.875,0 -2.65754,1.32877 -5.02314,1.27313 -6.875,3.125 -0.007,0.007 -0.14099,-0.004 -0.21875,0 -0.4636,1.69731 -0.63062,3.61376 -0.0937,4.6875 0.089,-7.08057 24.0825,-6.24333 29.6875,-4.375 1.41399,0.47133 3.80866,0 5.3125,0 2.51594,0 19.23206,-0.0871 20.03125,0.3125 2.40614,1.20307 13.04547,-0.0397 15,0.9375 0.49847,0.24923 13.19662,2.5 14.0625,2.5 1.33149,0 8.89232,1.70482 9.375,2.1875 0.25579,0.25579 2.46068,4.0625 2.8125,4.0625 0.25864,0 0.5158,-1.65659 0.625,-1.875 0.35911,-0.71821 -0.3914,-1.3289 -0.625,-1.5625 -0.68876,-0.68877 -0.69323,-1.63073 -1.25,-2.1875 -0.55665,-0.55665 -1.44026,-0.50276 -1.875,-0.9375 -0.85872,-0.85872 -11.28154,-0.34404 -12.5,-1.5625 -0.28725,-0.28725 -6.63721,-0.97485 -7.8125,-1.5625 -0.9827,-0.49135 -3.97108,0.0914 -4.6875,-0.625 -1.98992,-1.98993 -22.45886,-1.875 -27.21875,-1.875 -1.98323,0 -9.2144,0.70529 -10.625,0 -2.16936,-1.08469 -9.06635,-0.002 -10.9375,-0.9375 -0.30558,-0.15279 -0.91744,-0.29923 -1.625,-0.46875 -0.009,-0.002 -0.0217,0.002 -0.0312,0 -1.60776,0.62838 -4.36022,-0.54705 -6.5,-0.5625 z"
         style="fill:#5e514e;fill-opacity:1;stroke:#ffffff;stroke-width:1px;stroke-linecap:butt;stroke-linejoin:miter;stroke-opacity:0" />
      <path
         inkscape:connector-curvature="0"
         id="path6363"
         d="m 565.29027,712.75428 c 0.5671,-2.24658 2.35897,-3.29691 3.75174,-4.68968 0.66521,-0.66521 18.44197,-0.31467 19.69661,0.31265 2.37062,1.18531 15.49851,-0.66987 19.38398,0.62529 1.78207,0.59402 4.15817,-0.59403 5.94025,0 1.20738,0.40246 2.81987,-0.10219 4.06438,0.31264 4.69435,1.56479 10.02038,0.3179 14.6943,1.87587 1.31978,0.43993 2.82582,0.006 4.06438,0.62529 1.30781,0.6539 3.37592,-0.0316 4.68968,0.62529 2.44354,1.22177 12.31315,2.62117 13.44372,3.75174 0.46388,0.46388 4.37703,4.72235 4.37703,5.31496 0,0.56121 0.3743,-1.06126 0.62528,-1.56322 0.32009,-0.64017 -0.0887,-1.96454 -0.31264,-2.18852 -0.49604,-0.49604 -0.45099,-3.26479 -1.25058,-4.06438 -0.1888,-0.1888 -1.57938,0 -1.87587,0 -3.08651,0 -6.07377,-0.93793 -9.37934,-0.93793 -2.96801,0 -21.82778,-3.38175 -23.13571,-4.68968 -0.63862,-0.63862 -11.17058,-0.27033 -12.50579,-0.93793 -2.61404,-1.30702 -8.75815,0.15428 -10.94257,-0.93793 -1.0843,-0.54216 -2.70339,0.21152 -3.75173,-0.31265 -3.36136,-1.68067 -16.71472,-1.25058 -21.57249,-1.25058 -1.99177,0 -6.99436,-0.50912 -8.12876,0.62529 -0.67078,0.67078 -0.66489,3.79133 -1.25058,4.37703 -0.57023,0.57023 -0.88242,2.09794 -0.62529,3.12645 z"
         style="fill:#5e514e;fill-opacity:1;stroke:#ffffff;stroke-width:1px;stroke-linecap:butt;stroke-linejoin:miter;stroke-opacity:0" />
      <path
         inkscape:connector-curvature="0"
         id="path6365"
         d="m 577.73656,684.9181 c -3.85288,0.003 -8.64084,0.26584 -9,0.625 -1.10565,1.10565 -1.69839,7.78929 -1.25,10.03125 0.30295,0.0358 1.16711,-3.69835 2.8125,-5.34375 0.29819,-0.29819 0.76501,-0.51658 1.34375,-0.71875 0.0245,-0.015 0.0378,-0.0475 0.0625,-0.0625 1.91753,-1.16052 4.58899,-2.03125 5.78125,-2.03125 3.57587,0 21.35259,1.77005 23.4375,2.8125 1.00047,0.50024 2.74954,-0.50023 3.75,0 3.15296,1.57648 10.18683,0.39029 13.78125,2.1875 0.50023,0.25011 1.37477,-0.25012 1.875,0 0.60716,0.30358 3.61216,1.12668 5.75,2 2.70117,0.38521 5.28849,0.89425 7.0625,1.78125 1.21492,0.60747 3.06875,0.18959 4.375,0.625 2.77068,0.92356 10.05887,3.4375 12.5,3.4375 2.30218,0 7.83854,1.27605 9.0625,2.5 0.53698,0.53699 0.51032,4.6875 1.25,4.6875 0.32956,0 0.0795,-0.70447 0.3125,-0.9375 0.22108,-0.22107 0,-1.84023 0,-2.1875 0,-0.97793 0.68946,-2.43555 0,-3.125 -0.94939,-0.94939 -9.46656,-1.96656 -10,-2.5 -0.31966,-0.31966 -2.26326,-1.25 -2.8125,-1.25 -0.29892,0 -12.32678,-3.22589 -13.4375,-3.78125 -1.55484,-0.77742 -4.07016,0.15242 -5.625,-0.625 -1.11149,-0.55575 -2.68454,-0.0923 -3.75,-0.625 -4.20474,-2.10237 -9.89703,-1.02664 -14.09375,-3.125 -1.73357,-0.86678 -4.53077,0.23462 -6.25,-0.625 -4.26314,-2.13157 -11.3763,-1.00065 -15.625,-3.125 -1.78486,-0.89242 -4.79221,0.57265 -6.5625,-0.3125 -0.4566,-0.2283 -2.43827,-0.31458 -4.75,-0.3125 z"
         style="fill:#5e514e;fill-opacity:1;stroke:#ffffff;stroke-width:1px;stroke-linecap:butt;stroke-linejoin:miter;stroke-opacity:0" />
      <path
         inkscape:connector-curvature="0"
         id="path6711"
         d="m 496.96459,693.58311 c -2.26355,0.006 -4.32434,1.35681 -5.36573,3.43957 -0.25698,0.51398 -0.0918,1.23866 -0.27517,1.78858 -0.17721,0.53159 -0.26368,1.39878 0,1.92616 0.29549,0.59097 0.26331,1.50154 0.68791,1.92616 0.78496,0.78495 1.52493,1.45037 2.4765,1.92616 0.38203,0.19103 1.00034,-0.0502 1.37582,0.13758 0.52513,0.26256 2.06917,0.27248 2.61409,0 3.72114,-1.86057 5.27126,-6.83604 2.33891,-9.76839 -0.79409,-0.79408 -2.82165,-1.1697 -3.85233,-1.37582 z"
         style="fill:#b7b2ab;fill-opacity:1;stroke:#ffffff;stroke-width:1.08960176px;stroke-linecap:butt;stroke-linejoin:miter;stroke-opacity:0" />
      <path
         sodipodi:nodetypes="csssscccc"
         inkscape:connector-curvature="0"
         id="path6709"
         d="m 494.37427,694.61374 c -0.82622,0.702 -0.72042,0.86585 -1.14998,1.72497 -0.12421,0.24843 -1.86915,2.73076 -1.58122,3.01869 0.72219,0.72219 1.65102,3.98794 2.29996,4.31242 0.68405,0.34202 2.38464,0 3.16244,0 0.32851,0 1.9555,0.0569 2.1562,-0.14375 0.5308,-0.5308 2.51129,-4.96357 2.44371,-5.03116 -1.32868,-1.32867 -1.52925,-2.67922 -2.7312,-3.88117 -0.37815,-0.37816 -4.13845,-0.11535 -4.59991,0 z"
         style="fill:#eeedeb;fill-opacity:1;stroke:#ffffff;stroke-width:1.1384201px;stroke-linecap:butt;stroke-linejoin:miter;stroke-opacity:0" />
      <path
         inkscape:connector-curvature="0"
         id="path6668"
         d="m 496.24298,696.48246 c -0.0919,-0.10849 -0.64621,-0.0725 -1.43747,0.71874 -1.55889,1.55888 -0.48358,5.91981 2.15621,4.59991 0.15081,-0.0754 0.60947,-0.0345 0.71873,-0.14375 0.20701,-0.20701 0.72327,-0.29201 1.00624,-0.57499 1.23749,-1.23749 0.2462,-3.63498 -0.43124,-4.31241 -0.37072,-0.37072 -1.36128,-0.2875 -2.01247,-0.2875 z"
         style="fill:#8f877d;fill-opacity:1;stroke:#ffffff;stroke-width:1.1384201px;stroke-linecap:butt;stroke-linejoin:miter;stroke-opacity:0" />
      <path
         style="fill:#b7b2ab;fill-opacity:1;stroke:#ffffff;stroke-width:1.0140245px;stroke-linecap:butt;stroke-linejoin:miter;stroke-opacity:0"
         d="m 496.41291,706.94022 c -2.10655,0.006 -4.0244,1.26271 -4.99356,3.201 -0.23915,0.47832 -0.0854,1.15274 -0.25608,1.66451 -0.16492,0.49472 -0.24539,1.30177 0,1.79256 0.27499,0.54999 0.24505,1.39739 0.64019,1.79256 0.73053,0.7305 1.41916,1.34977 2.30472,1.79256 0.35554,0.17777 0.93097,-0.0467 1.28041,0.12804 0.4887,0.24435 1.92565,0.25357 2.43277,0 3.46303,-1.73152 4.90562,-6.36188 2.17667,-9.09083 -0.73901,-0.73901 -2.62593,-1.08857 -3.58512,-1.2804 z"
         id="path6713"
         inkscape:connector-curvature="0" />
      <path
         style="fill:#eeedeb;fill-opacity:1;stroke:#ffffff;stroke-width:1.05945659px;stroke-linecap:butt;stroke-linejoin:miter;stroke-opacity:0"
         d="m 494.00225,707.89937 c -0.76891,0.6533 -0.67045,0.80579 -1.0702,1.60532 -0.11561,0.23119 -1.73951,2.54135 -1.47155,2.80931 0.6721,0.67209 1.53649,3.71133 2.14043,4.01329 0.6366,0.31831 2.21923,0 2.94309,0 0.30572,0 1.81986,0.0529 2.00664,-0.13377 0.49399,-0.49398 2.3371,-4.61929 2.27421,-4.68219 -1.23653,-1.23651 -1.42318,-2.49339 -2.54177,-3.61196 -0.35192,-0.35194 -3.8514,-0.10736 -4.28085,0 z"
         id="path6715"
         inkscape:connector-curvature="0"
         sodipodi:nodetypes="csssscccc" />
      <path
         style="fill:#8f877d;fill-opacity:1;stroke:#ffffff;stroke-width:1.05945659px;stroke-linecap:butt;stroke-linejoin:miter;stroke-opacity:0"
         d="m 495.74135,709.63846 c -0.0855,-0.10098 -0.60139,-0.0675 -1.33776,0.66889 -1.45077,1.45076 -0.45004,5.5092 2.00665,4.28085 0.14034,-0.0701 0.56719,-0.0321 0.66888,-0.13378 0.19265,-0.19264 0.67309,-0.27175 0.93644,-0.5351 1.15165,-1.15165 0.22912,-3.38285 -0.40133,-4.0133 -0.34501,-0.345 -1.26685,-0.26756 -1.87288,-0.26756 z"
         id="path6717"
         inkscape:connector-curvature="0" />
    </g>
    <path
       style="fill:#92d8ef;stroke:#ffffff;stroke-width:1px;stroke-linecap:butt;stroke-linejoin:miter;stroke-opacity:0;fill-opacity:1"
       d="m 278.36191,101.22226 c 1.75739,1.63546 0,23.21108 0,33.6389 0,25.49513 1.68194,48.46757 1.68194,74.00558 0,3.22494 -0.89395,10.0387 0.84097,11.77362 0.18815,0.18814 8.11533,-1.82915 10.09167,-0.84098 4.67191,2.33596 34.67715,0 42.8896,0 2.24274,0 6.52448,3.5672 9.2507,0.84098 2.24447,-2.24447 -2.52292,-31.73218 -2.52292,-36.16182 0,-8.05677 0,-16.33144 0,-24.38821 0,-0.34628 0.22261,-2.3003 0,-2.52291 -0.59466,-0.59466 -4.95269,0 -5.88681,0 -5.64117,0 -25.07627,-3.44034 -30.27501,-0.84098 -3.23521,1.61761 -13.78717,2.35711 -16.81945,0.84098 -0.44323,2.21616 -2.43906,5.12968 -0.84097,6.72778 0.47636,0.47635 42.21548,-3.19705 45.41252,0 0.0903,0.0903 4.20486,28.82994 4.20486,31.11598 0,4.78016 1.68195,8.37993 1.68195,12.61459 0,2.04079 1.68194,7.9276 1.68194,5.88681 0,-0.84098 -1.68194,0 -2.52292,0 -2.84745,0 -4.82929,-0.84098 -8.40972,-0.84098 -9.99301,0 -30.42878,5.73304 -37.00279,-0.84097 -0.78138,-0.78138 -2.26868,1.93619 -3.36389,0.84097 -2.52292,-2.52292 1.68194,-11.77361 -0.84098,-14.29653 -1.243,-1.243 -0.84097,-4.25403 -0.84097,-6.72778 0,-4.4311 -2.11146,-29.41598 -1.68194,-30.27501 0.73099,-1.46199 2.52291,-2.57031 2.52291,-4.20486 0,-1.40162 -1.80179,-2.16201 -2.52291,-3.36389 -1.72395,-2.87325 0.6354,-7.9799 -0.84098,-10.93265 -1.09411,-2.18823 -1.83396,-14.14451 0,-15.97848 0.35997,-0.35996 2.54289,-26.89115 2.52292,-26.91112 -1.27034,-1.270339 -7.37613,3.90716 -8.40972,0.84098 z"
       id="path3265"
       inkscape:connector-curvature="0" />
    <path
       style="fill:#92d8ef;stroke:#ffffff;stroke-width:1px;stroke-linecap:butt;stroke-linejoin:miter;stroke-opacity:0;fill-opacity:1"
       d="M 350.625 132.78125 C 349.82891 132.82521 349.23445 132.95305 349 133.1875 C 348.30657 133.88093 349.84375 136.37698 349.84375 137.375 C 349.84375 138.30911 349.24909 142.68659 349.84375 143.28125 C 351.87801 145.31552 402 136.58916 402 140.75 C 402 143.81924 403.03071 155.93739 401.25 158.25 C 398.58069 157.99886 395.15007 157.61246 393.5625 158.40625 C 383.4154 163.4798 360.26841 156.92291 349 158.40625 C 349 164.78012 347.39847 218.17972 349.84375 220.625 C 350.22247 221.00371 390.05908 221.14234 392.71875 219.8125 C 398.92496 216.7094 411.25 221.68849 411.25 220.625 C 411.25 220.25667 410.01528 215.20278 409.5625 214.75 C 409.22032 214.40781 410.0968 176.31862 407.03125 170.1875 C 405.45039 167.02579 409.5625 161.16323 409.5625 157.5625 C 409.5625 157.40579 409.48888 157.37869 409.375 157.40625 C 409.03336 157.48892 408.29549 158.196 407.875 158.40625 C 407.71282 158.48734 407.49207 158.53272 407.25 158.5625 C 407.87059 149.21401 409.69283 134.16158 409.5625 134.03125 C 409.2966 133.76535 365.56896 133.1875 358.25 133.1875 C 357.14479 133.1875 353.01326 132.64937 350.625 132.78125 z M 360.25 163.40625 C 366.57017 163.40982 372.89017 163.79641 375.90625 166.8125 C 378.06544 168.97169 389.16837 165.96875 391.90625 165.96875 C 393.65687 165.96875 399.76934 163.73809 401.15625 165.125 C 402.85572 166.82447 403.39128 194.29752 403.65625 194.5625 C 404.57741 195.48365 408.4561 209.95016 406.1875 212.21875 C 403.10943 215.29683 370.33367 214.75 364.96875 214.75 C 361.89397 214.75 357.21598 217.09098 355.71875 215.59375 C 353.36253 213.23753 357.17865 165.804 354.0625 163.46875 C 356.04132 163.46875 358.14328 163.40506 360.25 163.40625 z "
       id="path3267" />
    <path
       style="fill:#92d8ef;fill-opacity:0.98485885;stroke:#ffffff;stroke-width:1px;stroke-linecap:butt;stroke-linejoin:miter;stroke-opacity:0"
       d="m 415.29614,157.42313 c 1.89719,8.80441 -0.59464,20.67601 3.36389,28.59306 1.85543,3.71087 -1.06063,9.65236 0.84097,13.45556 1.6333,3.26659 -0.83961,8.41244 0.84098,11.77362 1.15309,2.30619 -1.75275,9.1799 0,10.93264 1.76441,1.76442 42.59762,-0.84097 50.45835,-0.84097 1.33917,0 7.55744,0.85228 8.40972,0 1.73257,-1.73257 -0.84097,-10.20474 -0.84097,-11.77362 0,-14.64854 -2.52292,-30.46352 -2.52292,-44.57154 0,-1.20455 0.76664,-6.80212 0,-7.56875 -0.4501,-0.4501 -7.18376,1.29695 -7.56875,1.68194 -0.76664,0.76664 0,6.36421 0,7.56876 0,4.06135 8.04803,45.77421 4.20486,49.61738 -2.64131,2.64131 -20.06179,-2.64447 -21.86528,-0.84098 -0.76219,0.76219 -23.3091,5.28397 -25.22918,3.36389 -2.25177,-2.25177 0.63014,-7.14945 0,-14.29653 -0.66884,-7.58609 -2.85363,-44.06128 -3.36389,-44.57154 -1.59105,-1.59105 -4.91961,-3.24619 -6.72778,-2.52292 z"
       id="path3301"
       inkscape:connector-curvature="0"
       sodipodi:nodetypes="cssssssssssssssssc" />
    <path
       id="path3303"
       d="m 538.99399,134.02222 c -0.84097,7.2741 1.87169,21.91517 0.091,24.22778 -2.66931,-0.25114 -5.91261,0.14003 -7.6875,0.15625 -10.1471,0.0927 -33.29409,-2.75106 -44.5625,0 0,6.37387 -1.60153,59.77347 0.84375,62.21875 0.37872,0.37871 40.21533,0.51734 42.875,-0.8125 6.20621,-3.1031 18.53125,1.87599 18.53125,0.8125 0,-0.36833 -1.23472,-5.42222 -1.6875,-5.875 -0.34218,-0.34219 0.5343,-38.43138 -2.53125,-44.5625 -1.58086,-3.16171 2.53125,-9.02427 2.53125,-12.625 0,-0.15671 -0.0736,-0.18381 -0.1875,-0.15625 -0.34164,0.0827 -1.07951,0.78975 -1.5,1 -0.16218,0.0811 -0.38293,0.12647 -0.625,0.15625 0.62059,-9.34849 2.44283,-24.40092 2.3125,-24.53125 -3.20655,-6.4004 -0.13997,-32.09911 -2.5318,-34.490938 -2.02669,-1.068223 -4.9794,-1.592787 -5.8868,0 -2.9538,5.907588 1.21844,24.073688 0.0151,34.481908 z m -40.90902,29.38403 c 6.32017,0.004 11.7992,1.23114 16.49722,1.72431 3.03687,0.31879 12.42115,0.83797 15.15903,0.83797 1.75062,0 7.86309,-2.23066 9.25,-0.84375 1.69947,1.69947 2.23503,29.17252 2.5,29.4375 0.92116,0.92115 4.79985,15.38766 2.53125,17.65625 -3.07807,3.07808 -35.85383,2.53125 -41.21875,2.53125 -3.07478,0 -7.75277,2.34098 -9.25,0.84375 -2.35622,-2.35622 1.4599,-49.78975 -1.65625,-52.125 2.11348,0.0109 4.28788,-0.0592 6.1875,-0.0623 z"
       style="fill:#92d8ef;fill-opacity:1;stroke:#ffffff;stroke-width:1px;stroke-linecap:butt;stroke-linejoin:miter;stroke-opacity:0"
       inkscape:connector-curvature="0"
       sodipodi:nodetypes="scscssscssccccccscsssccssccc" />
    <path
       style="fill:#92d8ef;fill-opacity:1;stroke:#ffffff;stroke-width:1px;stroke-linecap:butt;stroke-linejoin:miter;stroke-opacity:0"
       d="m 562.46633,157.56742 c 0,0.90942 0,9.53086 0,18.50139 0,6.69251 0.84098,10.87235 0.84098,17.66042 0,4.48693 -0.81392,25.25624 0.84097,26.91113 0.32767,0.32767 2.85069,0 3.36389,0 1.02656,0 1.93926,0.32633 2.52292,-0.84098 0.93231,-1.86463 -2.52292,-42.13029 -2.52292,-44.57154 0,-3.92006 1.63164,-8.46003 0,-10.09167 -1.70712,-1.70712 1.51181,-7.73888 0.84097,-8.40973 -1.40162,-1.40162 -3.94311,0.45224 -5.88681,0.84098 z"
       id="path3305"
       inkscape:connector-curvature="0" />
    <path
       style="fill:#92d8ef;fill-opacity:1;stroke:#ffffff;stroke-width:1px;stroke-linecap:butt;stroke-linejoin:miter;stroke-opacity:0"
       d="m 559.94342,131.49727 c 0.28032,1.12129 1.96227,3.08356 0.84097,3.36389 -1.1213,0.28032 -0.84097,-4.5197 -0.84097,-3.36389 0,0.4085 1.16663,12.94024 1.68194,13.45556 1.01073,1.01072 2.77549,-0.84097 4.20487,-0.84097 0.51319,0 3.03621,0.32767 3.36389,0 0.63025,-0.63026 1.77639,-12.52014 0.84097,-13.45556 -1.81693,-1.81694 -8.45037,0.18445 -10.09167,0.84097 z"
       id="path3320"
       inkscape:connector-curvature="0" />
    <path
       style="fill:#92d8ef;fill-opacity:1;stroke:#ffffff;stroke-width:1px;stroke-linecap:butt;stroke-linejoin:miter;stroke-opacity:0"
       d="m 642.34242,154.53125 c -2.42906,0.0265 -6.18153,1.34375 -7.40625,1.34375 -17.14728,0 -33.173,1.6875 -50.46875,1.6875 -0.86278,2.22133 -1.30035,3.26707 -1.46875,3.59375 2.78203,-8.39466 -0.0942,-0.26964 -0.0625,0.125 -0.10292,0.31014 -0.0378,0.14476 -0.15625,0.5 -1.25073,3.75219 4.21875,42.63608 4.21875,49.59375 0,1.67844 -0.1709,7.42285 0.84375,8.4375 0.15448,0.15448 4.12971,-1.6875 5.03125,-1.6875 10.03393,0 21.7159,0.84375 32.8125,0.84375 2.75253,0 21.37168,1.34708 21.875,0.84375 3.34495,-3.34494 -3.375,-45.27524 -3.375,-53.84375 0,-1.7422 1.10871,-9.8288 0,-10.9375 -0.37339,-0.37339 -1.03406,-0.50883 -1.84375,-0.5 z m -5.96875,3.53125 c 0.41898,-0.0251 0.80693,0.0569 1.09375,0.34375 0.89824,0.89824 0.47373,37.16621 3.34375,42.90625 2.1788,4.35759 -0.49061,12.59375 0.84375,12.59375 0.46645,0 -7.31717,-0.84375 -15.125,-0.84375 -1.3518,0 -5.86174,0.83048 -6.71875,1.6875 -1.22728,1.22728 -22.89515,-0.84375 -24.40625,-0.84375 -0.44938,0 -2.43527,1.78348 -3.375,0.84375 -0.41963,-0.41963 0,-3.52901 0,-4.1875 0,-16.21381 -2.86036,-41.65838 -2.5,-47.9375 1.97852,0 7.17238,0.41905 10.09375,0 9.43442,-1.35331 23.69107,-3.375 33.625,-3.375 0.27844,0 1.86806,-1.11231 3.125,-1.1875 z"
       id="path3322"
       inkscape:connector-curvature="0" />
  </g>
</svg>
