<?xml version="1.0" encoding="UTF-8" standalone="no"?>
<!-- Created with Inkscape (http://www.inkscape.org/) -->
<svg
   xmlns:dc="http://purl.org/dc/elements/1.1/"
   xmlns:cc="http://creativecommons.org/ns#"
   xmlns:rdf="http://www.w3.org/1999/02/22-rdf-syntax-ns#"
   xmlns:svg="http://www.w3.org/2000/svg"
   xmlns="http://www.w3.org/2000/svg"
   xmlns:sodipodi="http://sodipodi.sourceforge.net/DTD/sodipodi-0.dtd"
   xmlns:inkscape="http://www.inkscape.org/namespaces/inkscape"
   width="744.09448819"
   height="1052.3622047"
   id="svg3372"
   sodipodi:version="0.32"
   inkscape:version="0.46"
   sodipodi:docname="bed.svg"
   inkscape:output_extension="org.inkscape.output.svg.inkscape">
  <defs
     id="defs3374">
    <inkscape:perspective
       sodipodi:type="inkscape:persp3d"
       inkscape:vp_x="0 : 526.18109 : 1"
       inkscape:vp_y="0 : 1000 : 0"
       inkscape:vp_z="744.09448 : 526.18109 : 1"
       inkscape:persp3d-origin="372.04724 : 350.78739 : 1"
       id="perspective3380" />
  </defs>
  <sodipodi:namedview
     id="base"
     pagecolor="#ffffff"
     bordercolor="#666666"
     borderopacity="1.0"
     gridtolerance="10000"
     guidetolerance="10"
     objecttolerance="10"
     inkscape:pageopacity="0.0"
     inkscape:pageshadow="2"
     inkscape:zoom="1.4"
     inkscape:cx="248.21429"
     inkscape:cy="822.85714"
     inkscape:document-units="px"
     inkscape:current-layer="layer1"
     showgrid="false"
     inkscape:window-width="1438"
     inkscape:window-height="898"
     inkscape:window-x="0"
     inkscape:window-y="0" />
  <metadata
     id="metadata3377">
    <rdf:RDF>
      <cc:Work
         rdf:about="">
        <dc:format>image/svg+xml</dc:format>
        <dc:type
           rdf:resource="http://purl.org/dc/dcmitype/StillImage" />
      </cc:Work>
    </rdf:RDF>
  </metadata>
  <g
     inkscape:label="Layer 1"
     inkscape:groupmode="layer"
     id="layer1">
    <path
       style="opacity:1;fill:#b2e180;fill-opacity:1;fill-rule:evenodd;stroke:#000000;stroke-width:2;stroke-linecap:butt;stroke-linejoin:miter;marker:none;marker-start:none;marker-mid:none;marker-end:none;stroke-miterlimit:4;stroke-dasharray:none;stroke-dashoffset:0;stroke-opacity:1;visibility:visible;display:inline;overflow:visible;enable-background:accumulate"
       d="M 404.28571,162.36218 C 407.03958,162.36218 406.76872,162.98293 404.28571,162.36218 C 400.95027,161.52832 397.92481,160.95053 395,160.21932 C 391.90653,159.44596 388.2844,158.719 385.71429,158.07647 C 382.28914,157.22018 378.06573,155.70289 374.28571,156.6479 C 369.97754,157.72494 365.27066,157.36218 360.71429,157.36218 C 356.90476,157.36218 353.09524,157.36218 349.28571,157.36218 C 344.76191,157.36218 340.2381,157.36218 335.71429,157.36218 C 331.42857,157.36218 327.14286,157.36218 322.85714,157.36218 C 318.90542,157.36218 314.15983,156.6479 310.71429,156.6479 C 304.92554,156.6479 299.26123,155.21932 293.57143,155.21932 C 288.98848,155.21932 284.1922,155.55309 280,154.50504 C 277.07151,153.77292 273.78193,153.79075 270,153.79075 C 266.04208,153.79075 262.38073,153.07647 258.57143,153.07647 C 255.2381,153.07647 251.90476,153.07647 248.57143,153.07647 C 245.2381,153.07647 241.90476,153.07647 238.57143,153.07647 C 234.74746,153.07647 231.40531,153.79075 227.85714,153.79075 C 224.59982,153.79075 220.62956,154.50504 217.85714,154.50504 C 214.52381,154.50504 211.19048,154.50504 207.85714,154.50504 C 204.47811,154.50504 201.88296,155.93361 198.57143,155.93361 C 194.41871,155.93361 191.31995,157.37613 186.42857,156.6479 C 189.63753,157.45014 180.19606,159.30898 177.85714,161.6479 C 175.88196,163.62308 174.43269,164.21109 172.85714,167.36218 C 171.31823,170.44 169.56675,171.95233 168.57143,175.93361 C 167.71769,179.34857 167.28674,182.50095 166.42857,185.93361 C 165.57834,189.33452 165.71429,192.98001 165.71429,196.6479 C 165.71429,200.57376 166.46057,203.91875 167.14286,206.6479 C 168.03399,210.21241 168.57143,213.42646 168.57143,217.36218 C 168.57143,221.17171 168.57143,224.98123 168.57143,228.79075 C 168.57143,232.52285 168.44213,236.13071 169.28571,239.50504 C 170.0644,242.6198 169.28571,246.98971 169.28571,250.21932 C 169.28571,254.55354 171.47983,251.6479 175.71429,251.6479 C 179.73263,251.6479 182.78178,249.50504 186.42857,249.50504 C 190.46839,249.50504 194.28245,248.79075 198.57143,248.79075 C 202.51536,248.79075 206.42801,248.61204 210,249.50504 C 213.56678,250.39673 218.4629,249.50504 222.14286,249.50504 C 225.95238,249.50504 229.76191,249.50504 233.57143,249.50504 C 237.71373,249.50504 240.90245,250.21932 245,250.21932 C 249.2548,250.21932 253.29727,250.6865 257.14286,251.6479 C 261.51534,252.74102 268.91781,251.91844 272.85714,250.93361 C 278.86488,249.43168 286.18462,251.6479 292.14286,251.6479 C 297.00051,251.6479 303.06794,252.83291 307.85714,253.79075 C 313.53483,254.92629 319.81157,254.50504 325.71429,254.50504 C 331.45838,254.50504 336.69719,255.21932 342.14286,255.21932 C 347.61905,255.21932 353.09524,255.21932 358.57143,255.21932 C 363.71504,255.21932 367.81921,255.93361 372.85714,255.93361 C 377.20732,255.93361 380.90177,256.6479 385,256.6479 C 389.52381,256.6479 394.04762,256.6479 398.57143,256.6479 C 403.80952,256.6479 409.04762,256.6479 414.28571,256.6479 C 418.00641,256.6479 421.62184,256.77815 425,255.93361 C 427.61818,255.27906 424.32806,255.93361 424.28571,255.93361 C 423.86082,253.80913 423.62232,248.58718 424.28571,245.93361 C 424.91458,243.41813 425,240.10194 425,236.6479 C 425,232.68908 424.24692,231.12761 425,227.36218 C 425.67831,223.97062 424.84676,220.11802 425.71429,216.6479 C 426.63696,212.95721 425.71429,211.27159 425.71429,207.36218 C 425.71429,203.65062 425.84856,200.04213 425,196.6479 C 424.02739,192.75744 422.44714,189.29359 421.42857,185.21932 C 420.60623,181.92996 419.43292,179.37957 418.57143,175.93361 C 417.70549,172.46985 417.76463,170.84109 415,168.07647 C 414.19823,167.27469 407.18437,161.63751 404.28571,162.36218 z"
       id="path3400" />
    <path
       style="opacity:1;fill:#d4eabc;fill-opacity:1;fill-rule:evenodd;stroke:#000000;stroke-width:2;stroke-linecap:butt;stroke-linejoin:miter;marker:none;marker-start:none;marker-mid:none;marker-end:none;stroke-miterlimit:4;stroke-dasharray:none;stroke-dashoffset:0;stroke-opacity:1;visibility:visible;display:inline;overflow:visible;enable-background:accumulate"
       d="M 169.28571,164.50504 C 170.47741,161.73825 175.56038,158.8677 178.57143,157.36218 C 178.78439,157.2557 179.04762,157.36218 179.28571,157.36218 C 181.962,157.36218 185.57799,154.53911 188.57143,153.79075 C 192.16986,152.89115 195.74199,152.53383 199.28571,151.6479 C 202.72504,150.78806 206.62309,150.34927 210,149.50504 C 213.42273,148.64936 217.16595,148.78498 220,148.07647 C 223.55802,147.18696 227.66679,148.74316 230.71429,149.50504 C 234.20576,150.37791 235.69102,150.74922 239.28571,151.6479 C 242.21885,152.38118 246.42659,151.82597 248.57143,152.36218 C 249.81582,152.67328 252.29757,157.67161 252.85714,158.79075 C 254.01091,161.09829 252.95439,166.32259 253.57143,168.79075 C 254.34884,171.9004 253.68333,175.66691 254.28571,178.07647 C 255.07945,181.25142 253.57284,185.92798 252.85714,188.79075 C 251.85724,192.79037 252.517,195.89961 250.71429,199.50504 C 249.50573,201.92216 250,206.64177 250,209.50504 C 250,212.87274 249.28571,215.89168 249.28571,219.50504 C 249.28571,222.7637 248.41796,226.03403 249.28571,229.50504 C 249.9129,232.01379 250.13947,235.77719 250.71429,238.07647 C 251.89056,242.78158 250.63452,243.95029 250,245.21932 C 249.67148,245.87637 241.07939,245.21932 240,245.21932 C 236.48817,245.21932 233.17241,245.14051 230,245.93361 C 226.40157,246.83322 222.82944,247.19054 219.28571,248.07647 C 215.72013,248.96786 212.16005,249.32217 208.57143,250.21932 C 205.53842,250.97758 201.61397,250.88726 198.57143,251.6479 C 195.31573,252.46182 191.84991,252.43542 189.28571,253.07647 C 186.09164,253.87499 182.99136,254.65006 180.71429,255.21932 C 177.43994,256.03791 175.75617,256.6479 172.14286,256.6479 C 169.4653,256.6479 169.09597,251.60321 168.57143,249.50504 C 167.76262,246.26979 167.14286,242.98319 167.14286,239.50504 C 167.14286,236.51634 164.91482,232.02145 164.28571,229.50504 C 163.50561,226.38462 163.0171,224.43058 162.14286,220.93361 C 161.34975,217.7612 161.42857,214.44544 161.42857,210.93361 C 161.42857,207.6566 160.71429,203.76523 160.71429,200.21932 C 160.71429,196.56393 161.42857,193.82445 161.42857,190.21932 C 161.42857,186.85743 162.28487,183.22268 162.85714,180.93361 C 163.798,177.17017 165,174.71937 165,170.93361 C 165,167.31021 168.24763,161.90984 170.71429,168.07647"
       id="path3404" />
    <path
       style="opacity:1;fill:#c9d7f3;fill-opacity:0.90202701;fill-rule:evenodd;stroke:#000000;stroke-width:2;stroke-linecap:butt;stroke-linejoin:miter;marker:none;marker-start:none;marker-mid:none;marker-end:none;stroke-miterlimit:4;stroke-dasharray:none;stroke-dashoffset:0;stroke-opacity:1;visibility:visible;display:inline;overflow:visible;enable-background:accumulate"
       d="M 160.28125 90.71875 C 159.4559 90.689029 158.63828 90.738868 157.84375 90.9375 C 156.89137 91.175595 155.95238 91.418155 155 91.65625 C 154.7619 92.846726 154.51935 94.028276 154.28125 95.21875 C 153.67045 98.272752 154.28125 102.09495 154.28125 105.21875 C 154.28125 108.79018 154.28125 112.36607 154.28125 115.9375 C 154.28125 119.44933 154.2069 122.76509 155 125.9375 C 155.88595 129.4813 155.71875 133.68784 155.71875 137.375 C 155.71875 141.35916 155 144.65546 155 148.78125 C 155 152.05826 154.28125 155.9541 154.28125 159.5 C 154.28125 163.07143 154.28125 166.64734 154.28125 170.21875 C 154.28125 173.42382 155 177.31006 155 180.9375 C 155 185.06753 155.25528 189.16639 154.28125 193.0625 C 153.50257 196.17725 154.28125 200.55163 154.28125 203.78125 C 154.28125 206.98631 155 210.87256 155 214.5 C 155 218.21028 154.89346 221.91764 155.71875 225.21875 C 156.49744 228.33351 155.71875 232.70789 155.71875 235.9375 C 155.71875 236.91919 156.19941 237.82886 156.4375 238.78125 C 156.4375 240.95457 167.05587 240.21876 168.5625 240.21875 C 172.34685 240.21875 174.46126 241.65625 177.84375 241.65625 C 178.07282 241.65625 178.5625 232.75904 178.5625 231.65625 C 178.5625 231.18006 178.5625 230.69496 178.5625 230.21875 C 178.5625 230.00615 188.8285 237.14862 189.28125 237.375 C 192.69045 239.0796 194.88135 239.4563 197.84375 240.9375 C 200.91624 242.47374 204.45404 242.93382 207.84375 243.78125 C 211.18539 244.61666 214.50211 244.61665 217.84375 243.78125 C 221.2972 242.91789 222.70738 241.72445 225.71875 240.21875 C 229.55026 238.303 232.51493 236.26631 235 233.78125 C 237.65939 231.12187 238.64635 228.7007 240.71875 225.9375 C 242.94881 222.96408 244.4093 219.27513 245.71875 216.65625 C 245.82523 216.44329 245.71875 216.1756 245.71875 215.9375 C 245.71875 214.13472 249.23647 208.18331 250 206.65625 C 251.18234 204.29158 251.39911 199.68482 252.15625 196.65625 C 252.96545 193.41944 252.03799 189.0582 251.4375 186.65625 C 250.57039 183.18782 248.52229 180.77668 247.84375 178.0625 C 247.10953 175.12559 241.80302 171.30304 240.71875 170.21875 C 238.07535 167.57536 234.61573 166.4485 232.15625 165.21875 C 229.35339 163.81733 224.95507 163.76219 222.15625 163.0625 C 219.23972 162.33337 215.17694 163.06249 212.15625 163.0625 C 208.67969 163.0625 205.22103 163.01505 202.15625 163.78125 C 198.41595 164.71633 195.86185 165.0111 192.15625 165.9375 C 188.05387 166.96309 186.45626 168.76248 183.5625 171.65625 C 181.13979 174.07896 180.43912 177.18427 179.28125 179.5 C 178.70785 180.64682 178.99056 176.51091 177.84375 175.9375 C 178.62928 172.00985 178.05058 169.51481 177.15625 165.9375 C 176.30925 162.54951 177.15626 159.15364 177.15625 155.9375 C 177.15625 152.12409 177.84374 149.12897 177.84375 145.21875 C 177.84375 141.88542 177.84374 138.5521 177.84375 135.21875 C 177.84375 131.98914 177.06505 127.61476 177.84375 124.5 C 178.37996 122.35516 177.82922 118.15189 178.5625 115.21875 C 179.43025 111.74775 178.5625 108.47742 178.5625 105.21875 C 178.5625 100.93304 182.84821 92.374999 178.5625 92.375 C 177.84821 92.136904 177.19042 91.65625 176.4375 91.65625 C 173.13545 91.65625 169.34962 91.65625 167.84375 91.65625 C 165.33698 91.65625 162.75731 90.807912 160.28125 90.71875 z M 206.21875 178.5 C 207.56311 178.4341 208.88128 178.50157 210 178.78125 C 214.06836 179.79834 214.75775 181.16012 218.5625 183.0625 C 221.59553 184.57901 222.7805 185.77974 224.28125 188.78125 C 226.16036 192.53946 226.8 193.8875 227.84375 198.0625 C 228.49573 200.6704 229.40331 204.01177 228.5625 207.375 C 227.726 210.72099 226.6718 213.78521 222.84375 216.65625 C 220.88112 218.12822 218.26156 219.58306 215.71875 220.21875 C 213.40209 220.79792 209.46063 221.61922 206.4375 222.375 C 203.06644 223.21777 199.77845 223.21024 196.4375 222.375 C 194.20226 221.81619 190.71199 220.21537 187.84375 218.78125 C 185.71973 217.71924 183.76768 216.11142 182.15625 214.5 C 180.06484 212.40859 178.5625 212.52828 178.5625 208.0625 C 178.5625 204.52155 180.6522 199.26505 180 196.65625 L 183.5625 194.5 C 179.16004 197.14147 179.9151 195.30366 185 190.21875 C 187.35955 187.8592 189.26988 185.94319 192.15625 184.5 C 194.88684 183.1347 196.32345 180.41914 200 179.5 C 201.65614 179.08596 203.97815 178.60983 206.21875 178.5 z "
       id="path3382" />
    <path
       style="opacity:1;fill:#c9d7f3;fill-opacity:0.90202701;fill-rule:evenodd;stroke:#000000;stroke-width:2;stroke-linecap:butt;stroke-linejoin:miter;marker:none;marker-start:none;marker-mid:none;marker-end:none;stroke-miterlimit:4;stroke-dasharray:none;stroke-dashoffset:0;stroke-opacity:1;visibility:visible;display:inline;overflow:visible;enable-background:accumulate"
       d="M 300.46875 164.03125 C 297.6208 163.9361 293.77232 164.81474 292.15625 165.21875 C 288.41833 166.15323 285.86675 166.44738 282.15625 167.375 C 279.22319 168.10827 276.34507 169.52312 273.5625 170.21875 C 271.59527 170.71056 269.71018 174.94055 269.28125 176.65625 C 268.61512 179.32077 265.36668 182.32914 264.28125 184.5 C 262.67188 187.71875 262.26514 191.90827 261.4375 195.21875 C 260.57466 198.67011 260 202.15163 260 205.9375 C 260 210.04049 260.79423 212.49472 262.15625 215.21875 C 263.79525 218.49677 264.62667 221.59708 266.4375 225.21875 C 268.06321 228.47018 269.60093 229.81967 271.4375 231.65625 C 274.29309 234.51184 276.16093 236.50232 279.28125 238.0625 C 282.6577 239.75072 284.83471 240.90399 287.84375 241.65625 C 290.15045 242.23292 294.51388 243.89757 297.15625 245.21875 C 300.13093 246.7061 302.65155 246.65625 306.4375 246.65625 C 309.58166 246.65625 314.01836 246.65625 315.71875 246.65625 C 320.05052 246.65625 322.55845 244.81655 325 242.375 C 327.51671 239.8583 331.31364 237.49846 333.5625 234.5 C 335.4604 231.96947 336.69928 228.94517 337.84375 226.65625 C 338.98906 224.36562 339.28125 220.00617 339.28125 216.65625 C 339.28125 213.30633 329.22052 212.46517 328.5625 213.78125 C 327.90447 215.09732 326.78318 219.51825 325.71875 220.9375 C 324.30681 222.82008 321.12713 227.13955 317.84375 228.78125 C 315.728 229.83913 310.94177 231.65625 307.84375 231.65625 C 304.82307 231.65625 300.76027 232.38538 297.84375 231.65625 C 294.6949 230.86903 291.79933 230.75903 289.28125 229.5 C 285.73483 227.72679 283.15649 226.21899 280.71875 223.78125 C 278.86592 221.92843 277.15626 219.74682 277.15625 215.9375 C 277.15625 214.15871 276.25694 202.12673 280 203.0625 C 279.52381 203.30059 278.04599 203.65212 278.5625 203.78125 C 281.94197 204.62612 284.12492 205.0078 287.84375 205.9375 C 291.21161 206.77946 293.57904 207.34787 296.4375 208.0625 C 299.21078 208.75582 302.13576 208.78124 305.71875 208.78125 C 308.23791 208.78125 313.52451 209.15961 315.71875 208.0625 C 317.7497 207.04702 321.4837 205.14127 323.5625 203.0625 C 325.72341 200.90158 327.99703 199.2247 330 195.21875 C 330.77841 193.66193 334.42096 189.81067 332.84375 186.65625 C 331.89938 184.7675 330.76031 181.69782 329.28125 180.21875 C 328.84605 179.78355 323.81076 173.78124 323.5625 173.78125 C 323.3244 173.78125 323.0121 173.9496 322.84375 173.78125 C 320.50484 171.44234 311.32273 170.2605 314.28125 168.78125 C 314.06748 168.99503 303.33399 164.74512 302.84375 164.5 C 302.24005 164.19815 301.41807 164.06297 300.46875 164.03125 z M 299.90625 177.65625 C 301.00806 177.62903 302.16883 177.71408 303.5625 178.0625 C 307.13081 178.95458 310.68553 178.77929 313.5625 181.65625 C 315.92446 184.0182 316.63778 186.94211 312.15625 188.0625 C 309.2608 188.78636 307.77422 190.06426 304.28125 190.9375 C 300.51387 191.87935 297.97901 191.45056 294.28125 192.375 C 290.61266 193.29215 285.11621 191.83626 281.4375 193.0625 C 281.99676 191.66435 281.94024 189.98592 282.84375 188.78125 C 284.17635 187.00446 285.67827 183.85299 287.15625 182.375 C 288.61742 180.91383 291.94635 178.06249 294.28125 178.0625 C 296.42251 178.0625 298.06989 177.70162 299.90625 177.65625 z "
       id="path3386" />
    <path
       style="opacity:1;fill:#c9d7f3;fill-opacity:0.90202701;fill-rule:evenodd;stroke:#000000;stroke-width:2;stroke-linecap:butt;stroke-linejoin:miter;marker:none;marker-start:none;marker-mid:none;marker-end:none;stroke-miterlimit:4;stroke-dasharray:none;stroke-dashoffset:0;stroke-opacity:1;visibility:visible;display:inline;overflow:visible;enable-background:accumulate"
       d="M 424.15625 92.65625 C 421.43753 92.62049 418.75216 92.832918 418.5625 93.78125 C 418.80059 93.78125 419.32795 93.547775 419.28125 93.78125 C 418.58103 97.282383 418.56249 100.70818 418.5625 104.5 C 418.5625 107.83333 418.56249 111.16667 418.5625 114.5 C 418.5625 118.08727 417.15626 121.30165 417.15625 124.5 C 417.15625 127.72961 417.93495 132.10401 417.15625 135.21875 C 416.26267 138.79305 416.43751 142.71745 416.4375 146.65625 C 416.4375 150.22767 416.43751 153.80357 416.4375 157.375 C 416.4375 161.45823 415.71875 163.75802 415.71875 167.375 C 415.71875 168.58328 413.63269 179.5702 413.5625 179.5 C 411.69687 179.03359 409.98758 178.80009 408.5625 177.375 C 406.05232 174.86482 404.85028 174.76887 401.4375 173.0625 C 400.75829 172.72289 391.49454 168.00546 390 169.5 C 387.81471 172.41372 382.81467 166.49165 379.28125 167.375 C 376.27163 168.12741 372.29884 168.06249 369.28125 168.0625 C 366.37362 168.0625 362.27216 169.65072 360 170.21875 C 356.79129 171.02093 354.24033 174.07538 352.84375 175.9375 C 350.90735 178.51937 348.82551 179.13541 347.84375 183.0625 C 347.02842 186.32383 346.54305 189.76527 345.71875 193.0625 C 344.98961 195.97902 345.71875 200.04181 345.71875 203.0625 C 345.71875 207.17188 346.43751 209.42567 346.4375 213.0625 C 346.4375 216.47405 348.22399 219.54171 349.28125 221.65625 C 350.71599 224.52573 351.36338 226.56785 353.5625 229.5 C 355.69571 232.34428 357.72096 233.50949 360 235.21875 C 362.99262 237.46322 365.33026 239.23102 369.28125 240.21875 C 372.61252 241.05157 375.32758 241.65625 379.28125 241.65625 C 383.36597 241.65625 385.43388 243.06249 389.28125 243.0625 C 392.26319 243.0625 396.68373 242.23626 399.28125 240.9375 C 403.09997 239.02815 404.6199 237.72384 407.84375 234.5 C 410.44849 231.89526 412.39284 229.98217 415 227.375 C 415.12627 227.24873 415.22099 227.08855 415.28125 226.9375 C 415.70304 225.88014 414.69683 224.27517 415 223.0625 L 416.4375 220.21875 C 416.4375 222.37851 415.88631 224.67727 415.28125 226.9375 C 414.48446 229.91392 413.56249 232.81999 413.5625 235.21875 C 413.5625 238.39534 408.35577 243.72956 411.4375 244.5 C 413.51638 245.01972 415.70089 244.5 417.84375 244.5 C 420.86443 244.5 424.92722 243.77087 427.84375 244.5 C 429.60289 244.93978 432.84374 248.46953 432.84375 246.65625 C 432.84375 243.15591 432.15626 241.25279 432.15625 237.375 C 432.15625 233.94473 430.47915 231.20844 431.4375 227.375 C 432.09182 224.75773 432.84374 220.00706 432.84375 217.375 C 432.84375 213.99548 433.60083 210.78417 434.28125 208.0625 C 435.071 204.90351 435 201.93207 435 198.0625 C 435 195.39735 434.93346 191.20365 435.71875 188.0625 C 436.62561 184.43505 437.15626 181.87947 437.15625 178.0625 C 437.15625 174.35722 437.84374 171.26897 437.84375 167.375 C 437.84375 163.46282 438.56249 161.53157 438.5625 157.375 C 438.5625 155.45149 438.56249 151.39889 438.5625 148.0625 C 438.5625 144.50108 437.84374 141.21183 437.84375 137.375 C 437.84375 133.59298 439.28125 130.27512 439.28125 126.65625 C 439.28125 123.05112 440 120.31164 440 116.65625 C 440 113.32291 440 109.98958 440 106.65625 C 440 105.54738 441.14156 94.500004 440.71875 94.5 C 440.50531 94.07312 441.18449 93.062498 440 93.0625 C 436.97932 93.0625 432.91653 93.79163 430 93.0625 C 429.63598 92.971495 426.87497 92.69201 424.15625 92.65625 z M 381.4375 180.9375 C 383.13024 180.9375 388.7337 182.15251 390.71875 181.65625 C 394.3298 180.75349 396.54456 185.25333 399.28125 185.9375 C 400.87402 186.33569 405.45123 188.64749 407.15625 189.5 C 410.57638 191.21006 407.39841 188.70622 412.84375 193.0625 C 413.39653 193.20068 413.5625 201.40525 413.5625 204.5 C 413.56249 207.59168 411.95401 210.99646 411.4375 213.0625 C 410.74833 215.81923 406.5332 217.63135 405 218.78125 C 402.54843 220.61992 400.13742 221.22817 397.84375 222.375 C 395.15301 223.72037 391.03981 223.0625 387.84375 223.0625 C 383.98814 223.06249 381.08669 222.1996 378.5625 220.9375 C 375.46227 219.38739 373.68744 217.78122 371.4375 216.65625 C 367.48708 214.68103 366.33818 214.63841 363.5625 210.9375 C 361.58506 208.30092 361.47922 201.48939 362.15625 198.78125 C 362.73003 196.48615 363.61189 191.35083 365 189.5 C 366.22412 187.86785 369.94976 185.269 371.4375 183.78125 C 373.43756 181.7812 378.68449 180.9375 381.4375 180.9375 z "
       id="path3392" />
    <path
       style="opacity:1;fill:#eef3c9;fill-opacity:1;fill-rule:evenodd;stroke:#000000;stroke-width:2;stroke-linecap:butt;stroke-linejoin:miter;marker:none;marker-start:none;marker-mid:none;marker-end:none;stroke-miterlimit:4;stroke-dasharray:none;stroke-dashoffset:0;stroke-opacity:1;visibility:visible;display:inline;overflow:visible;enable-background:accumulate"
       d="M 174.56049,151.16065 C 174.30564,153.89065 176.01688,156.53941 177.97564,159.30915 C 179.63691,161.65822 183.17731,163.67037 186.00899,164.5829 C 187.38837,165.02741 191.53145,167.70196 193.1201,168.5526 C 195.77849,169.97605 196.01902,170.73715 200.01505,171.11019 C 203.22533,171.40989 205.54357,172.49625 208.21404,172.74555 C 212.40122,173.13644 210.70419,172.16445 211.09587,167.96878 C 211.37303,164.99982 215.52981,167.51274 217.5585,167.70213 C 219.65586,167.89791 224.52256,163.95086 226.19691,162.76677 C 229.35455,160.53367 231.60932,158.43211 234.72722,157.12535 C 236.94342,156.19652 239.49659,154.53493 241.35551,153.22031 C 245.08557,150.5824 244.22163,151.56538 240.70703,148.98395 C 239.53329,148.12184 243.8664,146.81256 241.25451,143.11929 C 240.31334,141.78845 234.21972,140.18102 232.0252,139.47382 C 228.29557,138.27191 226.1178,136.89887 222.7959,135.82836 C 220.07213,134.95059 216.29547,134.06914 212.96863,132.99703 C 209.78542,131.9712 206.75511,131.72102 204.06357,131.46975 C 200.80648,131.16569 197.22838,131.89256 194.88478,132.87479 C 193.49596,133.45686 196.07589,135.66555 196.94538,136.895 C 198.91374,139.67831 190.52879,139.2086 187.38476,140.52631 C 184.39151,141.78083 183.48268,143.10093 180.0504,144.53945 C 177.36226,145.66607 175.65623,148.48378 174.56049,151.16065 z"
       id="path3402" />
    <path
       style="opacity:1;fill:none;fill-opacity:1;fill-rule:evenodd;stroke:#000000;stroke-width:2;stroke-linecap:butt;stroke-linejoin:miter;marker:none;marker-start:none;marker-mid:none;marker-end:none;stroke-miterlimit:4;stroke-dasharray:none;stroke-dashoffset:0;stroke-opacity:1;visibility:visible;display:inline;overflow:visible;enable-background:accumulate"
       d="M 180.71429,156.6479 C 181.62269,156.6479 188.80204,156.6479 192.14286,156.6479 C 194.96871,156.6479 198.61204,159.54565 200,160.93361 C 201.98642,162.92003 202.95697,163.79075 207.14286,163.79075 C 209.07841,163.79075 212.1168,160.93361 215.71429,160.93361 C 219.35517,160.93361 221.04072,159.26021 223.57143,157.36218 C 226.606,155.08625 228.6683,152.97959 230.71429,150.93361 C 231.76296,149.88493 231.59288,150.93361 230.71429,150.93361"
       id="path3406" />
  </g>
</svg>
