<?xml version="1.0" encoding="UTF-8" standalone="no"?>
<!-- Created with Inkscape (http://www.inkscape.org/) -->

<svg
   xmlns:dc="http://purl.org/dc/elements/1.1/"
   xmlns:cc="http://creativecommons.org/ns#"
   xmlns:rdf="http://www.w3.org/1999/02/22-rdf-syntax-ns#"
   xmlns:svg="http://www.w3.org/2000/svg"
   xmlns="http://www.w3.org/2000/svg"
   xmlns:sodipodi="http://sodipodi.sourceforge.net/DTD/sodipodi-0.dtd"
   xmlns:inkscape="http://www.inkscape.org/namespaces/inkscape"
   width="744.09448819"
   height="1052.3622047"
   id="svg2"
   version="1.1"
   inkscape:version="0.48.2 r9819"
   sodipodi:docname="cannon.svg">
  <defs
     id="defs4" />
  <sodipodi:namedview
     id="base"
     pagecolor="#ffffff"
     bordercolor="#666666"
     borderopacity="1.0"
     inkscape:pageopacity="0.0"
     inkscape:pageshadow="2"
     inkscape:zoom="0.5"
     inkscape:cx="340.12966"
     inkscape:cy="447.51429"
     inkscape:document-units="px"
     inkscape:current-layer="layer1"
     showgrid="false"
     showguides="true"
     inkscape:guide-bbox="true"
     inkscape:window-width="1364"
     inkscape:window-height="766"
     inkscape:window-x="0"
     inkscape:window-y="0"
     inkscape:window-maximized="0" />
  <metadata
     id="metadata7">
    <rdf:RDF>
      <cc:Work
         rdf:about="">
        <dc:format>image/svg+xml</dc:format>
        <dc:type
           rdf:resource="http://purl.org/dc/dcmitype/StillImage" />
        <dc:title></dc:title>
      </cc:Work>
    </rdf:RDF>
  </metadata>
  <g
     inkscape:label="Layer 1"
     inkscape:groupmode="layer"
     id="layer1">
    <g
       id="g3717"
       transform="translate(-101.24011,-50.19975)">
      <path
         style="fill:#502d16;fill-opacity:1;stroke:#000000;stroke-width:1px;stroke-linecap:butt;stroke-linejoin:miter;stroke-opacity:1"
         d="m 474.729,509.09393 c -0.56065,0.14017 -1.54179,0.98114 -1.68195,0.42049 -0.14016,-0.56065 2.25985,-0.42049 1.68195,-0.42049 -2.25518,0 -13.7172,4.36373 -11.77362,6.3073 6.44095,-3.86096 13.65575,-1.03798 14.92727,-0.42049 2.64049,1.28232 4.8374,3.33826 5.67655,4.41511 1.48444,1.90492 4.24571,4.2457 5.67657,6.30729 1.06545,1.5351 3.99462,9.1315 4.62535,12.19411 0.26844,1.30344 2.1799,10.71446 2.73316,12.61458 0.56259,1.93215 1.93333,9.2802 1.68195,12.82484 0.28691,4.51104 -0.18527,12.07956 -0.63073,16.6092 -0.99834,2.89053 -2.94341,8.52879 -2.94341,10.7224 -0.8957,1.68092 -2.30432,8.0417 -3.15364,9.67118 -0.53135,2.00305 -1.94823,5.10187 -3.57414,6.72778 -2.18823,2.18823 -6.02168,4.76023 -7.98924,6.72778 -0.93205,0.93205 -4.53758,2.23953 -6.93802,2.52292 -2.03367,0.24009 -8.94407,-1.01541 -13.03508,-3.15364 -1.44997,-0.75786 1.44818,3.97108 2.94341,4.4151 5.62293,1.66976 16.32904,3.62722 18.70626,1.75 1.0953,-0.86492 7.20349,-3.95211 7.78437,-5.11389 0.7213,-1.4426 2.27211,-2.27211 3.36389,-3.36389 2.10501,-2.105 3.62775,-6.15067 5.46633,-7.98924 0.42048,-0.42048 0,-1.68194 0.42048,-2.10243 3.09947,-3.09947 4.39683,-10.89608 6.3073,-14.71702 0.97292,-1.94585 0.24852,-4.87387 1.68194,-6.30729 0.24124,-0.24124 0.93653,-16.62834 0,-18.5014 -0.33639,-0.67278 0.33639,-1.85014 0,-2.52292 -2.3739,-4.74781 -0.97499,-12.04166 -3.36389,-16.81945 -0.17504,-0.35009 0.26672,-1.41522 0,-1.68194 -1.84308,-1.84309 -2.4181,-9.14588 -4.62535,-11.35313 -1.0548,-1.0548 -1.4014,-2.66286 -2.52291,-3.78438 -1.18023,-1.18022 -3.7543,-3.33381 -5.04584,-4.62535 -1.22852,-1.22851 -2.31519,-4.41762 -3.36389,-5.46632 -3.20291,-3.20291 -8.62321,-4.12206 -13.03507,-5.88681 z"
         id="path3719"
         inkscape:connector-curvature="0"
         sodipodi:nodetypes="csscsssssccccsssssssssssssscsssssc" />
      <path
         style="fill:#28170b;fill-opacity:1;stroke:#000000;stroke-width:1px;stroke-linecap:butt;stroke-linejoin:miter;stroke-opacity:1"
         d="m 481.75392,567.82062 c 0.47821,0.47568 0.25563,-0.17694 1.55538,0.78231 0.87609,0.6466 1.85785,2.21836 2.88351,2.61564 0.68248,0.26435 1.72815,0.97245 2.2279,1.52241 1.12029,1.23286 2.74615,3.80774 4.2032,4.62553 2.32044,1.30238 4.20905,3.33087 5.43924,4.68466 0.45325,0.49879 -0.073,1.5274 -0.0929,1.94232 -0.007,0.13589 -0.45479,0.0755 -0.53817,0.15124 -1.51076,1.37282 -3.03079,-1.02988 -4.01899,-1.07715 -0.3682,-0.0176 -1.1819,-0.92891 -1.53006,-1.31204 -0.19086,-0.21003 -2.19357,-1.86577 -2.55571,-2.06902 -1.18453,-0.66483 -2.97343,-4.20729 -4.70758,-5.1806 -0.77919,-0.43733 -1.49026,-1.45413 -2.02598,-2.04368 -0.74978,-0.82512 -2.75819,-1.9201 -3.077,-2.27094 -0.23191,-0.25522 0.47562,-0.15423 0.53818,-0.15123"
         id="path3721"
         inkscape:connector-curvature="0" />
      <path
         style="fill:#28170b;fill-opacity:1;stroke:#000000;stroke-width:0.75978661px;stroke-linecap:butt;stroke-linejoin:miter;stroke-opacity:1"
         d="m 471.13128,574.23718 c -0.18202,0.22864 0.0722,0.70193 0.0722,0.875 0,0.46593 -0.14433,1.2829 -0.14433,1.75 0,0.0581 0.12726,0.31588 0.14433,0.375 0.0677,0.23479 -0.0722,0.43193 -0.0722,0.625 0,0.19324 0.16177,3.5646 0.14433,3.625 -0.15212,0.52702 -0.14433,1.93527 -0.14433,2.5 0,0.22414 0.14433,0.77289 0.14433,1 0,0.68117 -0.21649,1.31883 -0.21649,2 0,1.30717 -0.14431,2.9857 -0.14431,4.375 0,3.00351 0.0721,6.65569 0.0721,10 0,0.59789 -0.25795,3.48131 -0.14432,3.875 0.16849,0.58372 0.14432,2.02227 0.14432,2.75 0,1.58563 -0.16074,7.47155 0.28864,8.25 0.62831,1.08841 1.87076,1.25 2.88638,1.25 0.12843,0 0.50511,-0.41258 0.50511,-0.5 0,-0.21246 0.27409,0.0252 0.3608,-0.125 0.21684,-0.37563 0.31795,-0.80076 0.50512,-1.125 0.26747,-0.46332 0.0662,-2.47944 0.21648,-3 0.18581,-0.64375 0,-1.87353 0,-2.5 0,-0.13221 0.12414,-0.34005 0.14432,-0.375 0.11763,-0.20377 -0.0721,-0.96632 -0.0721,-1.125 0,-0.62896 0.099,-1.51437 0.21647,-2.125 0.0677,-0.35188 -0.0702,-4.49295 -0.14431,-4.75 -0.0801,-0.27771 0.18085,-0.87343 0.0721,-1.25 -0.30361,-1.05188 0.0153,-5.07211 -0.21647,-5.875 -0.24364,-0.84412 -0.14432,-5.90391 -0.14432,-7 0,-0.18943 0.15354,-0.46804 0.0721,-0.75 -0.1327,-0.45974 0.10361,-2.89104 0,-3.25 -0.20774,-0.71972 0.0775,-1.48128 -0.0721,-2 -0.11808,-0.40907 -0.0312,-0.98302 -0.14432,-1.375 -0.32997,-1.14319 -0.14433,-2.37167 -0.14433,-3.5 0,-0.17277 -0.14431,-0.84416 -0.14431,-0.875 0,-1.07628 -0.37033,-1 -1.22671,-1 -0.12935,0 -0.46046,0.10118 -0.57727,0 -0.18964,-0.16425 -0.29602,-0.25 -0.50512,-0.25 -0.15627,0 -1.75192,-0.32592 -1.73183,-0.5 0.024,-0.20833 0.24054,0.0833 0.36079,0.125"
         id="path3723"
         inkscape:connector-curvature="0" />
      <path
         style="fill:#502d16;fill-opacity:1;stroke:#000000;stroke-width:1px;stroke-linecap:butt;stroke-linejoin:miter;stroke-opacity:1"
         d="m 466.75,510.61218 c 0,-0.33333 -0.33333,-1 0,-1 0.33333,0 -0.2357,1.2357 0,1 1.08484,-1.08484 -0.56128,-2.68493 -2.08839,-2.68934 -1.74085,-0.005 -6.61283,0.50928 -8.63128,2.52773 -1.12159,1.12159 -2.95412,2.3354 -4.03033,3.41161 -0.8187,0.8187 -0.90166,2.15167 -1.5,2.75 -0.16667,0.16667 -0.33333,-0.16666 -0.5,0 -0.39119,0.39119 -0.32757,1.32757 -0.75,1.75 -1.06408,1.06408 -1.97224,2.19448 -2.75,3.75 -1.0099,2.01981 -1.20808,5.45808 -2.75,7 -0.125,0.125 0.125,0.625 0,0.75 -2.90672,2.90673 -5.03222,9.81444 -7.25,14.25 -0.48578,0.97156 -0.23476,1.96953 -1,3.5 -0.69884,1.39769 0.2076,3.58481 -0.5,5 -0.0256,0.0513 -0.0353,0.71475 0,0.75 0.13176,0.13176 0.5,0.0637 0.5,0.25 0,0.0653 -0.75,1.33824 -0.75,1.75 0,1.806 -0.47113,4.80774 0.5,6.75 0.211,0.422 -0.5,0.45121 -0.5,0.75 0,0.26442 0.4301,0.6801 0.5,0.75 0.0861,0.0861 -0.42942,1.14117 -0.25,1.5 0.63431,1.26863 -0.42613,5.57387 0.75,6.75 0.14469,0.14469 -0.25,0.88816 -0.25,1.25 0,0.85345 0.25,2.17838 0.25,3.25 0,0.81223 1.67135,7.67135 1.75,7.75 0.28144,0.28144 0.75,0.8611 0.75,1.5 0,1.33011 0.73709,6.23709 1.75,7.25 0.46645,0.46645 1.47797,6.70595 2,7.75 1.35964,2.71928 3.12862,7.87862 4.75,9.5 0.7025,0.7025 0.14772,2.39772 0.75,3 1.34814,1.34814 2.70458,3.70458 4,5 0.68883,0.68883 3.36347,1.61347 4,2.25 1.3485,1.34851 3.30833,2.65417 5,3.5 1.01956,0.50978 2.4647,0.23235 3.5,0.75 0.51089,0.25545 5.85481,0.10481 5,-0.75 -1.32537,-1.32537 -3.30806,-2.77903 -5.75,-4 -1.54534,-0.77267 -4.88914,-5.13913 -6.25,-6.5 -1.66497,-1.66497 -3.78447,-3.03446 -5.25,-4.5 -1.38161,-1.38161 -2.00447,-3.25447 -3.25,-4.5 -0.68947,-0.68947 -0.98572,-3.73572 -1.75,-4.5 -0.6409,-0.6409 -0.57236,-4.14471 -1,-5 -1.38717,-2.77434 -1.43049,-6.54147 -2.5,-9.75 -0.32647,-0.97941 -0.0333,-2.06668 -0.5,-3 -0.39421,-0.78842 0.27986,-2.16043 0,-3 -2.44266,-7.32797 -3.71484,-23.32031 -0.25,-30.25 0.90104,-1.80207 0.64586,-4.89585 2,-6.25 0.17331,-0.17331 -0.0792,-1.01255 0,-1.25 0.84534,-2.53603 2.90342,-8.15341 4.5,-9.75 0.56592,-0.56592 2.26621,-6.5162 2.75,-7 0.83739,-0.83739 1.66261,-2.66261 2.5,-3.5 0.83677,-0.83677 2.52616,-2.27616 3.5,-3.25 0.58592,-0.58591 0.41408,-1.41408 1,-2 1.83078,-1.83077 4.8144,-6.0464 8,-5.25 z"
         id="path3725"
         inkscape:connector-curvature="0"
         sodipodi:nodetypes="csssssscssssssccssssscssssssssssssssssssssscssscsssssc" />
      <path
         style="fill:#28170b;fill-opacity:1;stroke:#000000;stroke-width:0.89342898px;stroke-linecap:butt;stroke-linejoin:miter;stroke-opacity:1"
         d="m 481.9236,563.26274 c 0.97928,-0.39577 4.48006,0 5.65686,-0.2822 0.35179,-0.0844 3.85734,0.22431 4.06586,0.1411 0.24634,-0.0983 1.97637,-0.3076 3.18198,-0.1411 1.76982,-0.14276 3.87678,-0.15221 4.94975,0.2822 1.43496,0.581 2.04772,1.38745 1.41421,2.3988 -0.60116,0.95971 -1.09444,0.87359 -1.94454,1.55217 -0.25101,0.20035 -2.08045,0 -2.47488,0 -2.34151,0 -8.58345,0.31358 -10.78337,-0.56442 -0.50885,-0.20308 -5.37612,0.2822 -5.48008,0.2822 -0.11785,0 0,-0.18814 0,-0.2822 0,-0.37629 0,-0.75257 0,-1.12885 0,-1.3911 -0.63348,-2.5846 1.41421,-2.2577 z"
         id="path3727"
         inkscape:connector-curvature="0"
         sodipodi:nodetypes="csscsscsssssc" />
      <path
         style="fill:#28170b;fill-opacity:1;stroke:#000000;stroke-width:1px;stroke-linecap:butt;stroke-linejoin:miter;stroke-opacity:1"
         d="m 480.5,560.48718 c 0.29127,-0.006 0.26137,-0.50568 0.5,-0.625 1.33599,-0.66799 2.91722,-2.05574 4.25,-2.5 0.53792,-0.17931 0.95126,-0.81708 1.5,-1 1.96956,-0.65652 7.57576,-4.70076 8.625,-5.75 0.24825,-0.24825 1.27262,-0.64762 1.5,-0.875 0.1832,-0.1832 0.95894,-1.16127 1.125,-1.375 0.87666,-1.12832 -0.35469,-2.78058 -1.75,-2.5 -1.53075,0.30782 -3.77538,2.15039 -4.375,2.75 -0.43952,0.43953 -1.77842,1.02842 -2.125,1.375 -0.74086,0.74086 -2.29883,1.17384 -3,1.875 -1.03481,1.03481 -2.20654,1.20655 -3.375,2.375 -0.11676,0.11676 -0.50824,0.13324 -0.625,0.25 -0.28134,0.28134 -0.79046,0.91546 -1.125,1.25 -0.58586,0.58586 -1.54624,0.67124 -2.125,1.25 -0.34984,0.34984 -1.17517,1.375 -1.75,1.375"
         id="path3729"
         inkscape:connector-curvature="0"
         sodipodi:nodetypes="ccscsssscssssssc" />
      <path
         style="fill:#28170b;fill-opacity:1;stroke:#000000;stroke-width:1px;stroke-linecap:butt;stroke-linejoin:miter;stroke-opacity:1"
         d="m 476.57844,554.75124 c 2.19517,-5.94495 3.55018,-11.20559 4.25537,-12.72428 0.62413,-1.34414 3.19916,-7.4786 3.67812,-9.19169 0.33924,-1.21334 0.91,-4.2946 1.50853,-4.95504 0.21624,-0.23859 0.2744,-0.90118 0.43802,-1.27305 0.54812,-1.24564 1.31639,-2.69288 2.3681,-2.74458 0.0978,-0.005 0.55888,-0.0899 0.62424,-0.0307 0.42423,0.38448 1.08316,0.6238 1.55343,1.04999 0.23467,0.21269 0.26942,1.67705 0.0921,1.87275 -0.1579,0.17423 -0.21154,0.89714 -0.31931,1.14205 -0.35697,0.81124 -0.75575,1.16233 -1.03772,1.80313 -0.93046,2.11458 -1.44609,4.4598 -2.55238,6.63332 -0.45845,0.90071 -1.01151,2.69555 -1.35089,3.07003 -0.82255,0.90762 -1.42921,3.52564 -2.01406,4.85474 -1.05531,2.3983 -1.72311,4.88756 -2.88396,7.52569 -0.32614,0.74118 -0.31675,1.69141 -0.63248,2.40896 -0.23822,0.54134 -0.55535,1.26209 -0.78803,1.79085 -0.0652,0.14824 0.0575,0.46305 0.0245,0.4994 -0.0709,0.0782 -0.25632,-0.12267 -0.24355,0.13712 0.005,0.11772 0.15828,-0.17464 0.23741,-0.26197"
         id="path3731"
         inkscape:connector-curvature="0"
         sodipodi:nodetypes="csscsscsssssssssccsc" />
      <path
         style="fill:#28170b;fill-opacity:1;stroke:#000000;stroke-width:1px;stroke-linecap:butt;stroke-linejoin:miter;stroke-opacity:1"
         d="m 480.12714,572.54572 c 1.99729,5.26065 3.03923,6.85196 4.88313,11.84134 0.53901,1.45856 2.29513,6.71088 3.35263,7.70229 0.14919,0.13988 0.0115,0.86747 0.21088,1.05442 0.82315,0.77171 1.19285,2.37111 1.69845,3.30571 1.50193,2.77633 2.1328,3.77029 1.84957,6.31656 -0.4056,0.43268 -1.17553,2.02575 -1.22835,1.97623 -0.44975,-0.42165 -1.21894,-0.62876 -1.62435,-1.00882 -1.17462,-1.1012 -1.08095,-2.33041 -1.89223,-3.83007 -1.10435,-2.0414 -1.0371,-4.54209 -2.86335,-6.25419 -0.31629,-0.29655 -0.12542,-1.31697 -0.40466,-1.57878 -0.51716,-0.48482 -1.9801,-3.30458 -2.63424,-4.51376 -0.39565,-1.62053 -1.38897,-4.83333 -1.67698,-5.10329 -1.21161,-1.13589 -2.40663,-6.49172 -3.51767,-8.54547"
         id="path3733"
         inkscape:connector-curvature="0"
         sodipodi:nodetypes="ccccsccssccccc" />
      <path
         style="fill:#28170b;fill-opacity:1;stroke:#000000;stroke-width:1px;stroke-linecap:butt;stroke-linejoin:miter;stroke-opacity:1"
         d="m 470.37656,554.17693 c -1.8185,0.65597 -1.0452,0.82896 -2.9434,4.62535 -2.21947,4.43894 -0.94983,13.7672 0.42048,15.13751 1.03619,1.03618 4.84029,1.68194 5.88681,1.68194 1.15613,0 3.25029,0.95457 4.20486,0 1.94533,-1.94533 4.41943,-5.05405 4.32926,-9.50437 -0.0779,-3.84642 -0.74461,-7.74224 -3.05634,-10.05397 -1.60203,-1.60203 -5.84458,-1.88646 -8.84167,-1.88646 z"
         id="path3735"
         inkscape:connector-curvature="0"
         sodipodi:nodetypes="cssssssc" />
      <path
         style="fill:#28170b;fill-opacity:1;stroke:#000000;stroke-width:1px;stroke-linecap:butt;stroke-linejoin:miter;stroke-opacity:1"
         d="m 458.375,522.5 c -1.0873,1.7277 -2.13868,3.49018 -3.125,5.28125 0.85688,2.22719 1.9453,5.38322 2.34375,5.75 0.47283,0.43527 0.16598,1.67123 0.625,2.09375 0.37713,0.34714 1.7228,3.18725 1.75,3.84375 0.009,0.22228 0.003,1.58964 0.28125,2.09375 1.48374,2.68383 2.42633,6.85008 4.21875,8.5 0.45907,0.42258 0.44564,1.42472 0.96875,1.90625 0.44016,0.40517 0.86523,3.1419 1.59375,3.8125 0.64303,0.59191 0.36483,1.55419 0.78125,1.9375 0.39853,0.36685 1.03896,0.44565 1.4375,0.8125 0.24679,0.22717 0.6465,0.43844 0.90625,0.15625 0.17322,-0.1881 1.01347,-0.027 1.21875,-0.25 0.56914,-0.61831 0.44833,-2.81457 -0.5,-3.6875 -0.3819,-0.35155 -2.24076,-7.16266 -2.4375,-7.34375 -0.592,-0.54493 -1.85138,-5.78216 -2.59375,-7.125 -0.102,-0.1845 0.0708,-0.53425 -0.0312,-0.71875 -1.23219,-2.22884 -1.89783,-4.4305 -3.09375,-6.59375 -0.50502,-0.91349 -0.34166,-2.24804 -0.84375,-3.15625 -1.11399,-2.01504 -2.46231,-5.04438 -3.5,-7.3125 z"
         id="path3737"
         inkscape:connector-curvature="0" />
      <path
         style="fill:#28170b;fill-opacity:1;stroke:#000000;stroke-width:0.92885226px;stroke-linecap:butt;stroke-linejoin:miter;stroke-opacity:1"
         d="m 445.46875,562.375 c -0.0436,0.41635 -0.12658,0.83363 -0.15625,1.25 -0.0727,1.02097 -0.0358,2.04207 -0.0312,3.0625 2.54639,0.11371 7.19093,0.125 8.34375,0.125 2.81878,0 11.29246,1.252 12.5625,0.15625 0.0304,-0.0262 1.70789,0.19809 1.9375,0 0.42696,-0.36837 0.56747,-0.63541 1.0625,-1.0625 0.43949,-0.37918 0.1875,-1.6546 0.1875,-1.375 0,0.0475 0.331,-1.6875 -1.40625,-1.6875 -2.90457,0 -5.24493,-0.15625 -8.5,-0.15625 -2.34629,0 -4.52053,-0.3125 -6.53125,-0.3125 -2.48744,0 -5.16365,-0.0236 -7.46875,0 z"
         id="path3739"
         inkscape:connector-curvature="0" />
      <path
         style="fill:#502d16;stroke:#000000;stroke-width:1px;stroke-linecap:butt;stroke-linejoin:miter;stroke-opacity:1"
         d="m 474.87691,556.23388 c -0.74182,0.7625 -1.32438,1.15239 -2.10243,3.65937 -0.5,1.61106 -1.55695,3.34016 -1.55695,5.63681 0,4.76014 2.09484,10.27263 6.3073,7.56875 1.32156,-0.84828 2.05711,-2.5457 2.80694,-4.04548 1.32746,-3.82746 -0.0249,-10.28745 -2.93194,-12.31945 -0.68928,-0.48181 -1.68195,-0.5 -2.52292,-0.5 z"
         id="path3741"
         inkscape:connector-curvature="0"
         sodipodi:nodetypes="cssscsc" />
      <path
         style="fill:#28170b;fill-opacity:1;stroke:#000000;stroke-width:0.8012687px;stroke-linecap:butt;stroke-linejoin:miter;stroke-opacity:1"
         d="m 471.54516,553.73718 c 0.29917,-1.34564 -0.80254,-8.7972 -0.80254,-13.25 0,-4.49109 -0.16051,-8.4955 -0.16051,-12.25 0,-5.1584 0.17446,-8.20664 0,-12.03033 0.0574,-2.60848 0.432,-3.12937 0.89489,-3.53033 0.61955,-0.2184 1.45661,-0.34018 2.00399,-0.36872 0.6886,0.30343 1.41792,0.13788 1.73637,0.98744 0.23388,0.62394 0.17999,4.03754 0.17999,4.91161 0,1.0079 0.28265,6.84008 0,7.28033 -0.33895,0.52794 -0.48132,10.75065 -0.32102,11.25 0.73104,2.27726 0.48153,9.61391 0.48153,12.5 0,1.01235 -0.28292,3.36868 -0.16051,3.75 0.122,0.38006 0.43331,1.25 0.16051,1.25 -0.0438,0 -0.47946,-0.757 -0.48153,-0.75 -0.68627,2.31184 -3.19162,0.97459 -3.53117,0.25 z"
         id="path3743"
         inkscape:connector-curvature="0"
         sodipodi:nodetypes="csscccssssssssc" />
      <path
         style="fill:#28170b;fill-opacity:1;stroke:#000000;stroke-width:1px;stroke-linecap:butt;stroke-linejoin:miter;stroke-opacity:1"
         d="m 448.25,544.5 c -0.40919,1.43645 -0.78513,2.88272 -1.09375,4.34375 1.4426,0.94703 2.92956,1.84229 4.3125,2.875 1.10091,1.13862 2.65297,1.68767 3.8125,2.75 1.13238,0.32435 1.8437,1.26885 2.875,1.78125 0.98505,0.15623 1.51516,1.11532 2.21875,1.71875 1.02627,0.60498 2.0783,1.06897 2.90625,1.96875 1.05439,0.32987 1.79576,1.34892 2.875,1.5 1.0628,0.27459 1.55012,0.35881 2.65625,-0.34375 0.25476,-1.90325 -0.36116,-2.8805 -1.875,-3.875 -1.35044,-0.72308 -2.48773,-1.74142 -3.75,-2.59375 -2.11741,-1.40991 -4.57018,-2.31199 -6.5,-4 -1.75109,-1.58218 -3.38775,-3.33415 -5.46875,-4.5 -1.01519,-0.49675 -2.00813,-1.02707 -2.96875,-1.625 z"
         id="path3745"
         inkscape:connector-curvature="0" />
      <path
         style="fill:#28170b;fill-opacity:1;stroke:#000000;stroke-width:1px;stroke-linecap:butt;stroke-linejoin:miter;stroke-opacity:1"
         d="m 454.69843,606.0756 c 0.70252,-3.62597 3.71767,-8.82051 3.95701,-10.19183 0.84036,-0.84798 1.47021,-3.1004 2.01089,-3.94731 0.91301,-1.43009 1.22233,-3.41454 1.63756,-4.64418 0.40201,-1.19051 1.31804,-3.77004 2.14276,-5.54266 1.53608,-3.3016 2.25987,-6.03052 4.53696,-8.43971 0.23856,-0.25239 1.88899,-0.23009 1.93879,-0.23149 0.44393,-0.0125 0.82555,0.95228 1.09511,1.20705 0.18565,0.17548 -1.909,4.7494 -2.32944,5.19423 -0.38911,0.41169 -0.44193,2.64179 -1.2941,4.28081 -0.76943,1.47988 -0.97309,3.12139 -1.80927,4.82586 -0.20055,1.83875 -0.87407,3.75748 -1.80928,4.82587 -0.18637,0.19718 -0.70576,1.70443 -1.32399,3.22057 -0.88231,1.89642 -1.67894,3.98349 -2.49119,5.72933 -0.46885,1.00773 -3.80751,9.12915 -3.62852,9.29832"
         id="path3747"
         inkscape:connector-curvature="0"
         sodipodi:nodetypes="ccssscscsscccsc" />
      <path
         style="fill:#28170b;fill-opacity:1;stroke:#000000;stroke-width:1px;stroke-linecap:butt;stroke-linejoin:miter;stroke-opacity:1"
         d="m 448.67283,591.07834 c -0.21354,0.34705 5.08872,-5.14626 6.18449,-5.83113 2.16029,-1.35018 2.32847,-2.52362 4.00693,-3.94978 1.32113,-1.12254 2.62856,-2.30656 2.90516,-2.56735 0.71648,-0.67555 1.27886,-1.893 2.02166,-2.59335 1.22711,-1.157 2.06351,-1.6691 2.73884,-2.92596 0.80695,-1.50182 3.97809,-2.15825 1.55391,-4.72933 -0.72363,-0.76748 -2.61207,0.45374 -3.01949,0.44176 -0.51383,-0.0151 -1.88002,1.60079 -2.17757,1.88134 -0.3693,0.3482 -1.00251,0.42982 -1.43959,0.84193 -0.12126,0.11434 -0.071,0.41057 -0.19228,0.52491 -1.16611,1.09946 -2.871,2.19154 -4.16805,3.41448 -0.48716,0.45933 -1.18032,1.80009 -1.83976,2.42184 -0.85958,0.81047 -2.11871,2.16946 -2.91554,2.92076 -0.83053,0.78307 -1.22697,1.84406 -2.20355,2.76485 -0.38561,0.36357 -1.68578,1.1331 -1.99567,1.70983 -0.54214,1.009 -1.59113,1.12397 -2.00086,1.88655 -0.20907,0.38909 -0.37339,0.66928 -0.36899,0.51971 0.006,-0.21237 0.34775,-0.24843 0.54049,-0.33782"
         id="path3749"
         inkscape:connector-curvature="0"
         sodipodi:nodetypes="cssssssssscssscccsc" />
      <path
         style="fill:#28170b;stroke:#000000;stroke-width:1px;stroke-linecap:butt;stroke-linejoin:miter;stroke-opacity:1"
         d="m 473.46875,506.5625 c -3.16076,0.10868 -10.92332,1.51592 -11.78125,1.6875 -3.04016,1.4302 -6.93617,9.87923 -11.78125,16.40625 -1.6172,2.1786 -5.36306,13.28863 -7.125,16.8125 -1.12296,2.24592 -1.32849,5.17296 -2.125,7.5625 -0.4352,1.30562 0.61118,3.40264 0,4.625 -0.55849,1.117 0.12848,2.71179 -0.40625,3.78125 -3.63063,7.26126 2.26968,33.13311 5.46875,39.53125 1.52785,5.27182 7.34335,18.48982 12.1875,21.03125 1.62297,0.81149 2.36843,2.66859 3.78125,3.375 3.75661,1.87831 12.62681,4.6232 15.15625,2.09375 0.49732,-0.49731 7.14559,-1.70809 9.65625,-4.21875 2.3785,-2.3785 7.19175,-4.66475 8.84375,-7.96875 1.14842,-2.29683 2.15075,-5.932 3.78125,-7.5625 2.62009,-3.66728 2.13274,-8.02147 3.78125,-11.78125 0.99942,-1.99883 2.20411,-6.42286 3.34375,-7.5625 1.08111,-1.08111 0.24989,-7.81239 1.6875,-9.25 0.17849,-4.44743 1.20767,-14.16648 -0.40625,-17.6875 -0.50458,-1.00917 0.50458,-2.77208 0,-3.78125 -2.79059,-5.28031 -2.2119,-10.74165 -3.78125,-15.96875 -1.8238,-5.4714 -2.49502,-10.05752 -5.46875,-13.03125 -1.79946,-1.79945 -4.88722,-7.41847 -6.71875,-9.25 -3.26259,-3.2626 -8.83353,-9.16215 -18.09375,-8.84375 z m 0.96875,5.96875 c 5.73213,0.0177 10.51378,4.18391 13.8125,8.4375 7.19892,7.40286 10.13172,17.25467 11.28125,27.25 3.56026,11.88838 4.35025,25.57029 -0.625,37.15625 -2.82925,7.80382 -4.30393,16.19211 -9.0625,23.09375 -4.59306,5.18476 -11.23744,9.58236 -18.25,9.8125 C 459.98896,616.92373 454.79038,604.25106 451,594.625 c -3.26155,-11.43009 -7.48361,-23.50758 -5.09375,-35.5 0.42339,-14.79247 6.85135,-28.65774 15.15625,-40.71875 1.39926,-5.4476 7.61878,-5.64009 12.21875,-5.8125 0.3906,-0.0369 0.77411,-0.0637 1.15625,-0.0625 z"
         id="path3751"
         inkscape:connector-curvature="0" />
    </g>
    <path
       style="fill:#c8b7b7;stroke:#000000;stroke-width:1px;stroke-linecap:butt;stroke-linejoin:miter;stroke-opacity:1"
       d="m 382.96875,477.59375 c -1.13025,0.0274 -2.12412,0.0911 -2.9375,0.1875 -11.45267,-0.71505 -16.82875,10.5638 -11.1875,16.96875 4.9521,5.6225 26.00459,7.5494 36.5625,8.21875 1.36365,0.0864 10.08628,-0.22601 13.375,1.6875 2.02276,1.17688 3.88349,-1.64567 5.90625,-0.46875 2.15494,1.25383 5.72371,2.05463 8.3125,2.21875 2.66323,0.16884 11.1035,4.47686 13.3125,2.53125 1.58939,-1.39989 4.90881,-0.36198 6.875,-2.09375 1.60584,-1.41435 3.84916,-3.40238 5.34375,-4.71875 3.39852,-2.9933 -1.22545,-9.50772 -4.21875,-12.90625 -0.15694,-0.17819 -0.38733,-0.34833 -0.65625,-0.53125 -7.34017,-0.85904 -14.92897,-1.46822 -21.28125,-4.46875 -1.62789,-0.76894 -4.08515,-0.60146 -5.78125,-1.125 -1.60376,-0.49502 -10.10233,-1.0789 -10.28125,-1.25 -1.17377,-1.12241 -20.0526,-3.3068 -22.59375,-3.25 -1.36,0.0304 -4.28734,-0.41624 -7.09375,-1 -1.34632,-0.0329 -2.56337,-0.0265 -3.65625,0 z"
       id="path3096"
       inkscape:connector-curvature="0" />
    <path
       sodipodi:type="inkscape:offset"
       inkscape:radius="-0.69958013"
       inkscape:original="M 416.125 533.6875 C 415.90427 533.46677 414.377 534.748 414.375 534.75 C 413.70693 535.41807 406.94803 537.26053 405.875 536.1875 C 405.45801 535.77051 405.07761 534.94686 404.6875 534.21875 C 404.6673 534.57548 404.57355 534.92565 404.59375 535.28125 C 404.64895 536.25471 404.87949 537.23627 405.25 538.15625 C 405.62051 539.07623 406.13859 539.94938 406.84375 540.75 C 407.46276 541.45281 408.33604 542.09541 409.40625 542.6875 C 410.47646 543.27959 411.73874 543.82162 413.15625 544.3125 C 415.99128 545.29427 419.43031 546.08465 423.03125 546.71875 C 426.63219 547.35285 430.40175 547.82487 433.9375 548.1875 C 437.47325 548.55013 440.76677 548.80141 443.40625 548.96875 C 444.08808 549.01195 446.6128 548.95315 449.375 549.125 C 450.7561 549.2109 452.19847 549.3526 453.5 549.59375 C 454.80153 549.8349 455.95907 550.17787 456.78125 550.65625 C 457.28694 550.95047 457.79075 550.98698 458.28125 550.90625 C 458.77175 550.82555 459.26456 550.61196 459.75 550.40625 C 460.23544 550.20054 460.697 550.01822 461.1875 549.9375 C 461.678 549.8568 462.18181 549.8933 462.6875 550.1875 C 463.76497 550.81442 465.20234 551.34131 466.6875 551.71875 C 468.17266 552.09619 469.7056 552.32419 471 552.40625 C 472.33161 552.49065 475.0934 553.61384 477.8125 554.46875 C 479.17205 554.8962 480.54397 555.24209 481.6875 555.375 C 482.25926 555.4415 482.77135 555.47435 483.21875 555.40625 C 483.66615 555.33815 484.03638 555.1807 484.3125 554.9375 C 484.70985 554.58753 485.21582 554.37661 485.78125 554.25 C 486.34668 554.12339 486.9566 554.06599 487.59375 554 C 488.2309 553.934 488.88747 553.88685 489.5 553.71875 C 490.11253 553.55065 490.69595 553.27669 491.1875 552.84375 C 492.79334 551.4294 495.03666 549.44137 496.53125 548.125 C 496.95607 547.75084 497.24453 547.31498 497.4375 546.84375 C 497.63047 546.37252 497.71993 545.85488 497.71875 545.3125 C 497.71793 544.935 497.48562 544.49506 497.40625 544.09375 C 494.58815 544.65098 491.51814 545.11189 490.71875 544.3125 C 490.40503 543.99878 489.57426 542.53125 488.96875 542.53125 C 487.86008 542.53125 483.90702 546.31328 482.25 544.65625 C 481.50115 543.9074 479.48023 542.33801 477.65625 543.25 C 476.90099 543.62763 475.89802 544.85526 474.8125 544.3125 C 473.1232 543.46785 473.03954 540.92602 472 540.40625 C 470.54258 539.67755 467.12419 541.60978 465.96875 542.1875 C 463.90284 543.22046 461.8917 539.17295 461.375 538.65625 C 461.11254 538.39379 455.35568 541.10567 453.96875 539.71875 C 453.45188 539.20187 452.91282 537.94406 452.5625 537.59375 C 452.03605 537.0673 444.81997 540.10123 443.71875 539 C 443.38682 538.66808 442.32976 537.98601 441.9375 537.59375 C 441.20026 536.8565 442.35674 534.77212 440.1875 533.6875 C 439.36741 533.27745 432.71688 535.29781 431.6875 535.8125 C 430.13079 536.59086 428.07866 533.6875 427.09375 533.6875 C 426.37075 533.6875 424.77798 536.81413 423.90625 537.25 C 420.9869 538.70967 421.73381 535.07757 420.71875 534.0625 C 419.90982 533.25357 417.55822 536.18321 416.84375 535.46875 C 416.50385 535.12885 416.57878 534.14128 416.125 533.6875 z "
       style="fill:#b7a0a0;fill-opacity:1;stroke:none"
       id="path4851"
       d="m 439.875,534.3125 c 0.1694,0.0847 0.0292,0.0172 -0.1875,0.0312 -0.21671,0.014 -0.54526,0.0581 -0.90625,0.125 -0.72197,0.13369 -1.65882,0.33794 -2.59375,0.59375 -0.93493,0.25581 -1.85613,0.5611 -2.625,0.8125 -0.76887,0.2514 -1.41092,0.48671 -1.5625,0.5625 -0.59977,0.29989 -1.27461,0.23639 -1.8125,0.0312 -0.53789,-0.20514 -1.00058,-0.54442 -1.4375,-0.875 -0.43692,-0.33058 -0.83388,-0.67026 -1.15625,-0.90625 -0.27528,-0.20152 -0.43348,-0.2307 -0.4375,-0.25 -0.0566,0.0494 -0.12995,0.1181 -0.21875,0.21875 -0.22834,0.25882 -0.51592,0.64749 -0.8125,1.0625 -0.29658,0.41501 -0.60222,0.83827 -0.90625,1.21875 -0.30403,0.38048 -0.55905,0.71702 -1,0.9375 -0.82296,0.41148 -1.56664,0.5445 -2.1875,0.28125 -0.62086,-0.26325 -0.91272,-0.8379 -1.09375,-1.34375 -0.18103,-0.50585 -0.26527,-1.01054 -0.375,-1.4375 -0.0975,-0.37928 -0.23211,-0.60649 -0.3125,-0.71875 -0.036,0.009 -0.033,0.005 -0.0937,0.0312 -0.24313,0.1054 -0.61415,0.35632 -1,0.625 -0.38585,0.26868 -0.79659,0.54555 -1.21875,0.75 -0.21108,0.10222 -0.41184,0.19791 -0.6875,0.21875 -0.27566,0.0208 -0.66458,-0.0708 -0.90625,-0.3125 -0.42767,-0.42767 -0.42269,-0.855 -0.5,-1.1875 -0.0277,-0.11921 -0.0324,-0.13008 -0.0625,-0.21875 -0.0792,0.0514 -0.13445,0.096 -0.21875,0.15625 -0.38062,0.2722 -0.6865,0.53025 -0.6875,0.53125 -0.23519,0.23519 -0.4369,0.31141 -0.71875,0.4375 -0.28185,0.12609 -0.64398,0.24498 -1.03125,0.375 -0.77454,0.26004 -1.70771,0.53939 -2.6875,0.75 -0.97979,0.21061 -1.9836,0.37133 -2.84375,0.40625 -0.74188,0.0301 -1.38569,-0.0303 -1.9375,-0.40625 0.0948,0.36465 0.10871,0.74291 0.25,1.09375 0.34339,0.85264 0.818,1.63616 1.46875,2.375 0.54311,0.61663 1.35135,1.21492 2.375,1.78125 1.02457,0.56684 2.23661,1.11296 3.625,1.59375 2.77943,0.96252 6.20317,1.74493 9.78125,2.375 3.57721,0.62992 7.31909,1.10726 10.84375,1.46875 3.52452,0.36148 6.80548,0.61438 9.4375,0.78125 0.53309,0.0338 3.17031,-0.0178 5.96875,0.15625 1.39855,0.087 2.87445,0.21968 4.21875,0.46875 1.3453,0.24926 2.55675,0.60742 3.5,1.15625 0.35286,0.2053 0.64985,0.21902 1.03125,0.15625 0.36945,-0.0608 0.82349,-0.26153 1.3125,-0.46875 0.49539,-0.20993 1.00609,-0.40329 1.59375,-0.5 0.59956,-0.0986 1.31023,-0.0394 1.96875,0.34375 0.99098,0.5766 2.40479,1.0718 3.84375,1.4375 1.43896,0.3657 2.9087,0.60841 4.15625,0.6875 0.83085,0.0527 1.85286,0.37876 3.0625,0.78125 1.20964,0.40249 2.59692,0.89101 3.9375,1.3125 1.3341,0.41945 2.68099,0.75075 3.75,0.875 0.55041,0.064 1.00795,0.0824 1.34375,0.0312 0.34557,-0.0526 0.563,-0.17532 0.71875,-0.3125 0.51378,-0.45251 1.14099,-0.70039 1.78125,-0.84375 0.62611,-0.1402 1.27326,-0.18444 1.90625,-0.25 0.65218,-0.0676 1.25956,-0.13808 1.78125,-0.28125 0.53479,-0.14677 1.01089,-0.37053 1.40625,-0.71875 1.60434,-1.41303 3.84755,-3.40096 5.34375,-4.71875 0.34047,-0.29987 0.5611,-0.61503 0.71875,-1 0.15362,-0.37513 0.25101,-0.81676 0.25,-1.28125 -8e-5,-0.0367 -0.0818,-0.30544 -0.125,-0.4375 -1.22075,0.23077 -2.47579,0.45555 -3.5625,0.53125 -0.6387,0.0445 -1.19836,0.0396 -1.71875,-0.0312 -0.52039,-0.0709 -1.02432,-0.18057 -1.40625,-0.5625 -0.1621,-0.1621 -0.24174,-0.31581 -0.375,-0.5 -0.13326,-0.18419 -0.29101,-0.37809 -0.4375,-0.5625 -0.14649,-0.18441 -0.29823,-0.34585 -0.40625,-0.4375 -0.10802,-0.0916 -0.16246,-0.0937 -0.0312,-0.0937 0.12058,0 -0.40349,0.15102 -0.9375,0.46875 -0.53401,0.31773 -1.17932,0.73993 -1.875,1.125 -0.69568,0.38507 -1.4363,0.75921 -2.1875,0.90625 -0.7512,0.14704 -1.61206,0.0442 -2.21875,-0.5625 -0.32471,-0.32471 -0.97535,-0.86714 -1.6875,-1.1875 -0.71215,-0.32036 -1.41777,-0.43174 -2.09375,-0.0937 -0.2172,0.1086 -0.68324,0.50633 -1.25,0.84375 -0.56676,0.33742 -1.4102,0.62302 -2.21875,0.21875 -1.09159,-0.54579 -1.59431,-1.57258 -1.96875,-2.40625 -0.18722,-0.41684 -0.35033,-0.79324 -0.5,-1.0625 -0.14967,-0.26926 -0.28451,-0.40788 -0.34375,-0.4375 -0.3118,-0.1559 -1.438,-0.004 -2.5625,0.4375 -1.1245,0.4419 -2.23382,1.03879 -2.84375,1.34375 -0.72054,0.36027 -1.5345,0.27796 -2.15625,-0.0312 -0.62175,-0.30921 -1.11638,-0.8006 -1.5625,-1.3125 -0.44612,-0.5119 -0.8262,-1.05613 -1.125,-1.5 -0.20438,-0.30361 -0.27829,-0.42444 -0.375,-0.5625 -0.14709,0.0416 -0.30234,0.0814 -0.53125,0.15625 -0.58926,0.19271 -1.40454,0.47632 -2.25,0.71875 -0.84546,0.24243 -1.73803,0.46976 -2.5625,0.53125 -0.82447,0.0615 -1.65155,0.005 -2.25,-0.59375 -0.37308,-0.37309 -0.62818,-0.85204 -0.875,-1.28125 -0.20172,-0.35079 -0.36011,-0.57027 -0.4375,-0.6875 -0.1934,0.0236 -0.50426,0.0942 -0.875,0.1875 -0.74148,0.18658 -1.73672,0.46985 -2.75,0.75 -1.01328,0.28015 -2.03765,0.55745 -2.9375,0.6875 -0.44992,0.065 -0.86252,0.0924 -1.25,0.0625 -0.38748,-0.0299 -0.7955,-0.108 -1.125,-0.4375 -0.0728,-0.0728 -0.42509,-0.36295 -0.78125,-0.625 -0.35616,-0.26205 -0.72505,-0.5063 -1,-0.78125 -0.36552,-0.36553 -0.43407,-0.8427 -0.46875,-1.21875 -0.0347,-0.37605 -0.0307,-0.71045 -0.0625,-1.03125 -0.0636,-0.64161 -0.15144,-1.09135 -1.03125,-1.53125 z"
       transform="translate(-38,-46)" />
    <path
       style="fill:#ab9090;fill-opacity:1;stroke:none"
       d="m 368.71875,493.25 c 0.22111,0.34256 0.37142,0.70786 0.65625,1.03125 0.54311,0.61663 1.35135,1.21492 2.375,1.78125 1.02457,0.56684 2.23661,1.11296 3.625,1.59375 2.77943,0.96252 6.20317,1.74493 9.78125,2.375 3.57721,0.62992 7.31909,1.10726 10.84375,1.46875 3.52452,0.36148 6.80548,0.61438 9.4375,0.78125 0.53309,0.0338 3.17031,-0.0179 5.96875,0.15625 1.39855,0.087 2.87445,0.21968 4.21875,0.46875 1.3453,0.24926 2.55675,0.60742 3.5,1.15625 0.35286,0.2053 0.64985,0.21902 1.03125,0.15625 0.36945,-0.0608 0.82349,-0.26153 1.3125,-0.46875 0.49539,-0.20993 1.00609,-0.40329 1.59375,-0.5 0.59956,-0.0986 1.31023,-0.0394 1.96875,0.34375 0.99098,0.5766 2.40479,1.0718 3.84375,1.4375 1.43896,0.3657 2.9087,0.60841 4.15625,0.6875 0.83085,0.0527 1.85286,0.37876 3.0625,0.78125 1.20964,0.40249 2.59692,0.89101 3.9375,1.3125 1.3341,0.41945 2.68099,0.75075 3.75,0.875 0.55041,0.064 1.00795,0.0824 1.34375,0.0312 0.34557,-0.0526 0.563,-0.17532 0.71875,-0.3125 0.51378,-0.45251 1.14099,-0.70039 1.78125,-0.84375 0.62611,-0.1402 1.27326,-0.18444 1.90625,-0.25 0.65218,-0.0676 1.25956,-0.13808 1.78125,-0.28125 0.53479,-0.14677 1.01089,-0.37053 1.40625,-0.71875 1.19085,-1.04884 2.64069,-2.32683 3.96875,-3.5 -0.71923,-0.0179 -1.40263,0.0451 -1.9375,0.3125 -0.96588,0.48294 -3.46115,2.14443 -4.75,1.5 -1.23367,-0.61684 -1.10438,-2.30219 -2,-2.75 -1.05793,-0.52896 -3.26035,1.17012 -4.25,1.5 -1.75277,0.58426 -3.00455,-0.87727 -4.25,-1.5 -0.19358,-0.0968 -6.5908,0.75 -7.25,0.75 -1.14851,0 -0.95469,-0.70469 -1.5,-1.25 -0.87509,-0.87509 -3.60128,1.14872 -4.5,0.25 -0.2133,-0.2133 -0.78836,-1.01918 -1.25,-1.25 -1.76308,-0.88154 -4.01835,1.86583 -5.25,1.25 -0.79777,-0.39888 -3.3124,-1.8438 -4.5,-1.25 -0.48241,0.24121 -1.47068,0.75 -2,0.75 -0.94275,0 -2.88221,-1.0661 -3.75,-1.5 -1.5938,-0.7969 -3.65688,0.79656 -5.25,0 -0.68207,-0.34104 -1.40521,-1.40521 -1.75,-1.75 -0.74162,-0.74162 -3.17947,1.07053 -4,0.25 -0.72053,-0.72053 -1.83493,-1.16746 -3,-1.75 -1.53012,-0.76506 -4.48976,2.01024 -5.75,0.75 -0.59093,-0.59093 -2.37161,-1.5 -3.25,-1.5 -0.87269,0 -1.96486,1.03514 -2.75,0.25 -0.59992,-0.59992 -0.75817,-1.25817 -1.25,-1.75 -0.44413,-0.44413 -3.00234,1.25117 -3.5,1.5 -0.71472,0.35736 -5.74349,0.12826 -6.5,-0.25 -0.52022,-0.26011 -2.27252,-1.31421 -3.78125,-2.125 z"
       id="path4853"
       inkscape:connector-curvature="0" />
    <path
       style="fill:#916f6f;stroke:#000000;stroke-width:1px;stroke-linecap:butt;stroke-linejoin:miter;stroke-opacity:1"
       d="m 413.90625,512.875 c 0.18973,0.14248 0.40734,0.21455 0.625,0.25 0.43532,0.0709 0.7893,-0.0346 0.53125,-0.15625 -0.0946,-0.0446 -0.87017,-0.0522 -1.15625,-0.0937 z"
       id="path3118"
       inkscape:connector-curvature="0" />
    <path
       style="fill:#ac9393;stroke:#000000;stroke-width:1px;stroke-linecap:butt;stroke-linejoin:miter;stroke-opacity:1"
       d="m 412.3125,490.59375 c -2.26446,7.77047 -7.1355,11.75381 -11.6875,11.96875 -0.50321,0.0238 -0.97722,-0.0224 -1.46875,-0.0937 -1.13032,-0.0978 -2.01655,-0.15801 -3.21875,-0.28125 -3.53516,-0.36239 -7.3061,-0.83497 -10.90625,-1.46875 -0.38661,-0.0681 -0.68044,-0.17832 -1.0625,-0.25 -0.68126,3.28658 -1.37591,6.72321 -1.34375,7.34375 1.79735,0.19001 3.70119,0.69308 5.625,1.28125 1.97693,0.60441 3.96239,1.29848 5.84375,1.84375 1.88136,0.54527 3.66519,0.9375 5.21875,0.9375 3.04584,0 4.9872,0.19601 6.78125,0.40625 1.79405,0.21024 3.41998,0.4375 5.8125,0.4375 1.28298,0 1.50528,0.0843 2,0.15625 -0.18973,-0.14248 -0.34739,-0.36747 -0.375,-0.65625 -0.0276,-0.28878 0.0751,-0.65066 0.34375,-1.125 0.26868,-0.47434 0.70709,-1.05084 1.40625,-1.75 0.42048,-0.42048 0.4375,-1.25278 0.4375,-2.09375 0,-0.84097 -0.0142,-1.67327 0.40625,-2.09375 0.25714,-0.25714 0.27203,-0.78737 0.34375,-1.25 0.0411,-0.26507 0.19016,-0.40708 0.1875,-0.71875 -0.007,-0.85563 -0.14486,-1.87895 -0.3125,-2.90625 -0.16764,-1.0273 -0.361,-2.04927 -0.4375,-2.96875 -0.0765,-0.91948 -0.0473,-1.71783 0.21875,-2.25 0.65917,-1.31833 0.93457,-2.79606 1.15625,-4.25 -1.73721,-0.0684 -3.32186,-0.14162 -4.96875,-0.21875 z"
       id="path3159"
       inkscape:connector-curvature="0" />
    <path
       style="fill:#6c5353;stroke:#000000;stroke-width:1px;stroke-linecap:butt;stroke-linejoin:miter;stroke-opacity:1"
       d="m 413.625,511.90625 c -0.0131,0.0922 -0.10141,0.23241 -0.0937,0.3125 0.0276,0.28878 0.18527,0.51377 0.375,0.65625 0.28608,0.0416 1.0617,0.0492 1.15625,0.0937 0.25805,0.12161 -0.0959,0.22715 -0.53125,0.15625 -0.21766,-0.0354 -0.43527,-0.10752 -0.625,-0.25 -0.49472,-0.0719 -0.71702,-0.15625 -2,-0.15625 -2.39252,0 -4.01845,-0.22726 -5.8125,-0.4375 -1.79405,-0.21024 -3.73541,-0.40625 -6.78125,-0.40625 -1.55356,0 -3.33739,-0.39223 -5.21875,-0.9375 -1.88136,-0.54527 -3.86682,-1.23934 -5.84375,-1.84375 -1.92381,-0.58817 -3.82765,-1.09124 -5.625,-1.28125 0.003,0.0613 -0.13967,0.67283 -0.125,0.6875 3.20665,3.20665 27.71842,18.28898 35.3125,20.1875 12.73013,9.18016 39.80416,33.16295 52.875,44.0625 3.57898,1.42794 6.93612,-1.41264 12.3125,2 1.21667,0.2001 2.3726,0.20544 3.59375,0.34375 -1.0127,-1.77064 -2.04115,-3.52714 -3.28125,-5.0625 -1.61604,-2.0008 -3.39039,-3.82667 -5.25,-5.59375 -3.71922,-3.53415 -7.74349,-6.80598 -11.46875,-10.53125 -0.5584,-0.5584 -1.32858,-1.06654 -2.21875,-1.5625 -0.89017,-0.49596 -1.90209,-0.95895 -2.9375,-1.46875 -1.03541,-0.5098 -2.09963,-1.05634 -3.09375,-1.65625 -0.99412,-0.59991 -1.92121,-1.26496 -2.6875,-2.03125 -3.01559,-3.01559 -6.73259,-6.49774 -10.71875,-10.09375 -3.98616,-3.59601 -8.25863,-7.31338 -12.34375,-10.75 -4.08512,-3.43662 -8.00002,-6.5876 -11.3125,-9.125 -3.29709,-2.52561 -5.98616,-4.40902 -7.65625,-5.3125 z"
       id="path3123"
       inkscape:connector-curvature="0"
       sodipodi:nodetypes="ccccscssssscsccccssssssssssc" />
    <path
       style="fill:#6c5353;fill-opacity:1;stroke:#000000;stroke-width:1px;stroke-linecap:butt;stroke-linejoin:miter;stroke-opacity:1"
       d="m 343.67345,571.99151 c 2.2685,-0.27413 5.55995,0.16422 8.48528,0.16422 2.88017,0 9.56947,1.04865 12.43503,0.66421 1.79254,-0.24048 7.62246,0.58636 8.36396,0.95711 0.27512,1.4274 2.77899,-2.15324 2.49264,-3.57843 -2.05312,-0.30313 -4.45544,-0.2772 -15.24264,-0.82843 -2.32021,-0.11856 -13.77035,0.72839 -15.37006,-0.87132"
       id="path3842"
       inkscape:connector-curvature="0"
       sodipodi:nodetypes="cssccsc" />
    <path
       style="fill:#916f6f;fill-opacity:1;stroke:#000000;stroke-width:1px;stroke-linecap:butt;stroke-linejoin:miter;stroke-opacity:1"
       d="m 412,513.36218 c -7.03137,5.12599 -10.30142,14.56857 -15.5,21.5 -4.57538,6.10051 -6.96262,12.95017 -11.5,19 -3.48652,4.6487 -11.71908,17.76622 -14,20.5 -5.03666,6.03666 -2.5222,9.0222 0,6.5 1.81578,-1.81578 3.81425,-4.12849 5,-6.5 0.27445,-0.54889 0.58252,-2.58252 1,-3 0.42918,-0.42918 1.63691,-0.27381 2,-1 1.64321,-3.28642 4.17403,-6.84806 6,-10.5 0.67954,-1.35908 2.32046,-2.14091 3,-3.5 0.29787,-0.59574 0.54847,-2.04847 1,-2.5 5.57272,-5.57272 9.15595,-12.31189 12.5,-19 2.44453,-4.88906 4.56271,-11.06271 8,-14.5 0.92938,-0.92938 3.26898,-4.11147 3.5,-4.5 0.44898,-0.7551 1.28823,-1.10537 1.375,-1.375 -1.42096,-1.49905 -0.30154,-1.42824 -2.375,-1.125 z"
       id="path3805"
       inkscape:connector-curvature="0"
       sodipodi:nodetypes="cssssssssssssscc" />
    <path
       style="fill:#916f6f;stroke:#000000;stroke-width:1px;stroke-linecap:butt;stroke-linejoin:miter;stroke-opacity:1"
       d="m 417.28125,490.8125 c -0.22168,1.45394 -0.49708,2.93167 -1.15625,4.25 -0.26608,0.53217 -0.29525,1.33052 -0.21875,2.25 0.0765,0.91948 0.26986,1.94145 0.4375,2.96875 0.16764,1.0273 0.30519,2.05062 0.3125,2.90625 0.007,0.85563 -0.12678,1.56428 -0.53125,1.96875 -0.42048,0.42048 -0.40625,1.25278 -0.40625,2.09375 0,0.84097 -0.017,1.67327 -0.4375,2.09375 -0.69916,0.69916 -1.13757,1.27566 -1.40625,1.75 -0.19416,0.34278 -0.21574,0.57232 -0.25,0.8125 1.67009,0.90348 4.35916,2.78689 7.65625,5.3125 3.31248,2.5374 7.22738,5.68838 11.3125,9.125 4.08512,3.43662 8.35759,7.15399 12.34375,10.75 3.98616,3.59601 7.70316,7.07816 10.71875,10.09375 0.76629,0.76629 1.69338,1.43134 2.6875,2.03125 0.99412,0.59991 2.05834,1.14645 3.09375,1.65625 1.03541,0.5098 2.04733,0.97279 2.9375,1.46875 0.89017,0.49596 1.66035,1.0041 2.21875,1.5625 3.72526,3.72527 7.74953,6.9971 11.46875,10.53125 1.85961,1.76708 3.63396,3.59295 5.25,5.59375 1.2401,1.53536 2.26855,3.29186 3.28125,5.0625 6.5287,0.73946 12.98142,0.82719 16.96875,0.6875 1.08329,0 5.06242,0.51032 7.46875,0.40625 0.15441,0.0689 0.30604,0.14979 0.40625,0.25 0.4302,0.4302 3.54275,0 4.21875,0 1.8976,0 6.16855,0.61491 10.46875,1.15625 -0.2628,-1.86937 -0.83001,-4.72308 -1.375,-7.53125 -1.04766,-0.22699 -1.94758,-0.47379 -2.375,-0.6875 -0.75862,-0.37931 -7.8738,0 -9.53125,0 -0.76161,0 -3.25696,0.22716 -5.75,0.4375 -0.20627,-0.0335 -0.42078,-0.0529 -0.625,-0.0937 -1.78644,-0.35728 -5.7072,-1.11226 -7.40625,-0.6875 -0.35468,0.0887 -0.96995,0.17439 -1.6875,0.25 -0.2729,-0.56379 -0.49446,-1.36945 -0.8125,-1.6875 -0.75038,-0.75037 -5.03612,-5.08758 -7.6875,-6.46875 -0.1476,-0.23302 -0.29682,-0.45307 -0.4375,-0.59375 -3.80869,-3.8087 -8.76804,-9.86179 -13.0625,-14.15625 -1.47124,-1.47124 -3.31449,-2.67086 -4.9375,-3.875 -10.25739,-6.66512 -19.0382,-18.36024 -27.40625,-23.90625 -9.68064,-8.92075 -13.58286,-16.01006 -25.21875,-27.75 -0.2209,-0.008 -0.31186,-0.0226 -0.53125,-0.0312 z"
       id="path3000"
       inkscape:connector-curvature="0" />
    <path
       style="fill:#28170b;fill-opacity:1;stroke:#000000;stroke-width:1px;stroke-linecap:butt;stroke-linejoin:miter;stroke-opacity:1"
       d="m 374.09551,506.98718 c -4.15674,2.22478 -4.54041,12.84978 -2.47431,15.66859 2.06609,2.8188 8.58196,0.83141 14.22431,1.83141 2.3861,0.42289 6.12178,-1.56411 8.25,-0.5 0.33333,0.16667 0.91667,-0.16666 1.25,0 0.11825,0.0591 0.63385,0.5 0.75,0.5 2.03642,0 9.52108,0.63554 11.25,1.5 0.6,0.3 1.65,-0.3 2.25,0 2.401,1.2005 11.59799,0.5 14.75,0.5 2.3841,0 3.29985,0.5 5.5,0.5 1.05656,0 2.00527,0.25 1.75,0.25 -0.0183,0 0.0229,-0.70413 0,-0.75 1.8746,-3.87015 2.83344,-1.45364 1.25,-10.25 -1.13858,-2.19429 -7.72028,-2.97028 -8,-3.25 -1.36795,-1.36795 -10.90854,0.34146 -12,-0.75 -0.90585,-0.90585 -11.28511,-0.75 -13.5,-0.75 -1.60097,0 -1.09051,0.46812 -6.75,-0.25 -3.52556,-0.44735 -14.64297,-4.25 -18.5,-4.25 z"
       id="path3883"
       inkscape:connector-curvature="0"
       sodipodi:nodetypes="cssccssssssccssssc" />
    <path
       style="fill:#6c5353;fill-opacity:1;stroke:#000000;stroke-width:0.83733392px;stroke-linecap:butt;stroke-linejoin:miter;stroke-opacity:1"
       d="m 374.43073,480.08636 c -1.22764,-0.2246 -2.87599,1.69439 -5.02735,4.0686 -0.72015,0.79474 -0.41273,3.04459 -1.00548,3.69873 -0.42755,0.47184 -0.33516,1.24895 -0.33516,2.21924 0,5.33859 8.28844,7.49732 10.38988,5.17822 0.24424,-0.26955 1.3452,-0.006 1.67577,-0.36986 5.65265,-6.23816 5.30848,-19.6534 -5.69766,-14.79493 z"
       id="path3173"
       inkscape:connector-curvature="0" />
    <path
       style="fill:#919aad;fill-opacity:0.15246636;stroke:none"
       d="m 447,495.36218 c -1.06661,-8.74265 6.87998,-11.87998 11,-16 0.81031,-0.81031 2.05443,2 2,2 -0.93017,0 -0.64489,-7.35511 2,-10 0.94281,-0.94281 5.33333,0 4,0 -1.82632,0 1.98016,-7.98016 2,-8 2.71929,-2.71929 8.54739,4.54739 9,5 1.13537,1.13537 1.77822,-1.88911 4,-3 5.85468,-2.92734 3.05512,2.05512 5,4 0.51657,0.51657 3.80799,-4.596 7,-3 2.14775,1.07388 1.21649,12.78351 1,13 -2.77033,2.77033 -15.59484,9 -17,9 -4.78799,0 -8.31889,-4 -8,-4 0.86019,0 -2.25922,7 -8,7 -3.18854,0 -2.55234,-0.55234 -4,-2 -1.67029,-1.67029 -1.15195,3.07598 -3,4 -3.35412,1.67706 -0.004,-0.79823 -7,2 z"
       id="path4758"
       inkscape:connector-curvature="0" />
    <g
       id="g3698"
       transform="translate(-38,-46)">
      <path
         sodipodi:nodetypes="csscsssssccccsssssssssssssscsssssc"
         inkscape:connector-curvature="0"
         id="path3323"
         d="m 474.729,509.09393 c -0.56065,0.14017 -1.54179,0.98114 -1.68195,0.42049 -0.14016,-0.56065 2.25985,-0.42049 1.68195,-0.42049 -2.25518,0 -13.7172,4.36373 -11.77362,6.3073 6.44095,-3.86096 13.65575,-1.03798 14.92727,-0.42049 2.64049,1.28232 4.8374,3.33826 5.67655,4.41511 1.48444,1.90492 4.24571,4.2457 5.67657,6.30729 1.06545,1.5351 3.99462,9.1315 4.62535,12.19411 0.26844,1.30344 2.1799,10.71446 2.73316,12.61458 0.56259,1.93215 1.93333,9.2802 1.68195,12.82484 0.28691,4.51104 -0.18527,12.07956 -0.63073,16.6092 -0.99834,2.89053 -2.94341,8.52879 -2.94341,10.7224 -0.8957,1.68092 -2.30432,8.0417 -3.15364,9.67118 -0.53135,2.00305 -1.94823,5.10187 -3.57414,6.72778 -2.18823,2.18823 -6.02168,4.76023 -7.98924,6.72778 -0.93205,0.93205 -4.53758,2.23953 -6.93802,2.52292 -2.03367,0.24009 -8.94407,-1.01541 -13.03508,-3.15364 -1.44997,-0.75786 1.44818,3.97108 2.94341,4.4151 5.62293,1.66976 16.32904,3.62722 18.70626,1.75 1.0953,-0.86492 7.20349,-3.95211 7.78437,-5.11389 0.7213,-1.4426 2.27211,-2.27211 3.36389,-3.36389 2.10501,-2.105 3.62775,-6.15067 5.46633,-7.98924 0.42048,-0.42048 0,-1.68194 0.42048,-2.10243 3.09947,-3.09947 4.39683,-10.89608 6.3073,-14.71702 0.97292,-1.94585 0.24852,-4.87387 1.68194,-6.30729 0.24124,-0.24124 0.93653,-16.62834 0,-18.5014 -0.33639,-0.67278 0.33639,-1.85014 0,-2.52292 -2.3739,-4.74781 -0.97499,-12.04166 -3.36389,-16.81945 -0.17504,-0.35009 0.26672,-1.41522 0,-1.68194 -1.84308,-1.84309 -2.4181,-9.14588 -4.62535,-11.35313 -1.0548,-1.0548 -1.4014,-2.66286 -2.52291,-3.78438 -1.18023,-1.18022 -3.7543,-3.33381 -5.04584,-4.62535 -1.22852,-1.22851 -2.31519,-4.41762 -3.36389,-5.46632 -3.20291,-3.20291 -8.62321,-4.12206 -13.03507,-5.88681 z"
         style="fill:#502d16;fill-opacity:1;stroke:#000000;stroke-width:1px;stroke-linecap:butt;stroke-linejoin:miter;stroke-opacity:1" />
      <path
         inkscape:connector-curvature="0"
         id="path3652"
         d="m 481.75392,567.82062 c 0.47821,0.47568 0.25563,-0.17694 1.55538,0.78231 0.87609,0.6466 1.85785,2.21836 2.88351,2.61564 0.68248,0.26435 1.72815,0.97245 2.2279,1.52241 1.12029,1.23286 2.74615,3.80774 4.2032,4.62553 2.32044,1.30238 4.20905,3.33087 5.43924,4.68466 0.45325,0.49879 -0.073,1.5274 -0.0929,1.94232 -0.007,0.13589 -0.45479,0.0755 -0.53817,0.15124 -1.51076,1.37282 -3.03079,-1.02988 -4.01899,-1.07715 -0.3682,-0.0176 -1.1819,-0.92891 -1.53006,-1.31204 -0.19086,-0.21003 -2.19357,-1.86577 -2.55571,-2.06902 -1.18453,-0.66483 -2.97343,-4.20729 -4.70758,-5.1806 -0.77919,-0.43733 -1.49026,-1.45413 -2.02598,-2.04368 -0.74978,-0.82512 -2.75819,-1.9201 -3.077,-2.27094 -0.23191,-0.25522 0.47562,-0.15423 0.53818,-0.15123"
         style="fill:#28170b;fill-opacity:1;stroke:#000000;stroke-width:1px;stroke-linecap:butt;stroke-linejoin:miter;stroke-opacity:1" />
      <path
         inkscape:connector-curvature="0"
         id="path3439"
         d="m 471.13128,574.23718 c -0.18202,0.22864 0.0722,0.70193 0.0722,0.875 0,0.46593 -0.14433,1.2829 -0.14433,1.75 0,0.0581 0.12726,0.31588 0.14433,0.375 0.0677,0.23479 -0.0722,0.43193 -0.0722,0.625 0,0.19324 0.16177,3.5646 0.14433,3.625 -0.15212,0.52702 -0.14433,1.93527 -0.14433,2.5 0,0.22414 0.14433,0.77289 0.14433,1 0,0.68117 -0.21649,1.31883 -0.21649,2 0,1.30717 -0.14431,2.9857 -0.14431,4.375 0,3.00351 0.0721,6.65569 0.0721,10 0,0.59789 -0.25795,3.48131 -0.14432,3.875 0.16849,0.58372 0.14432,2.02227 0.14432,2.75 0,1.58563 -0.16074,7.47155 0.28864,8.25 0.62831,1.08841 1.87076,1.25 2.88638,1.25 0.12843,0 0.50511,-0.41258 0.50511,-0.5 0,-0.21246 0.27409,0.0252 0.3608,-0.125 0.21684,-0.37563 0.31795,-0.80076 0.50512,-1.125 0.26747,-0.46332 0.0662,-2.47944 0.21648,-3 0.18581,-0.64375 0,-1.87353 0,-2.5 0,-0.13221 0.12414,-0.34005 0.14432,-0.375 0.11763,-0.20377 -0.0721,-0.96632 -0.0721,-1.125 0,-0.62896 0.099,-1.51437 0.21647,-2.125 0.0677,-0.35188 -0.0702,-4.49295 -0.14431,-4.75 -0.0801,-0.27771 0.18085,-0.87343 0.0721,-1.25 -0.30361,-1.05188 0.0153,-5.07211 -0.21647,-5.875 -0.24364,-0.84412 -0.14432,-5.90391 -0.14432,-7 0,-0.18943 0.15354,-0.46804 0.0721,-0.75 -0.1327,-0.45974 0.10361,-2.89104 0,-3.25 -0.20774,-0.71972 0.0775,-1.48128 -0.0721,-2 -0.11808,-0.40907 -0.0312,-0.98302 -0.14432,-1.375 -0.32997,-1.14319 -0.14433,-2.37167 -0.14433,-3.5 0,-0.17277 -0.14431,-0.84416 -0.14431,-0.875 0,-1.07628 -0.37033,-1 -1.22671,-1 -0.12935,0 -0.46046,0.10118 -0.57727,0 -0.18964,-0.16425 -0.29602,-0.25 -0.50512,-0.25 -0.15627,0 -1.75192,-0.32592 -1.73183,-0.5 0.024,-0.20833 0.24054,0.0833 0.36079,0.125"
         style="fill:#28170b;fill-opacity:1;stroke:#000000;stroke-width:0.75978661px;stroke-linecap:butt;stroke-linejoin:miter;stroke-opacity:1" />
      <path
         sodipodi:nodetypes="csssssscssssssccssssscssssssssssssssssssssscssscsssssc"
         inkscape:connector-curvature="0"
         id="path3338"
         d="m 466.75,510.61218 c 0,-0.33333 -0.33333,-1 0,-1 0.33333,0 -0.2357,1.2357 0,1 1.08484,-1.08484 -0.56128,-2.68493 -2.08839,-2.68934 -1.74085,-0.005 -6.61283,0.50928 -8.63128,2.52773 -1.12159,1.12159 -2.95412,2.3354 -4.03033,3.41161 -0.8187,0.8187 -0.90166,2.15167 -1.5,2.75 -0.16667,0.16667 -0.33333,-0.16666 -0.5,0 -0.39119,0.39119 -0.32757,1.32757 -0.75,1.75 -1.06408,1.06408 -1.97224,2.19448 -2.75,3.75 -1.0099,2.01981 -1.20808,5.45808 -2.75,7 -0.125,0.125 0.125,0.625 0,0.75 -2.90672,2.90673 -5.03222,9.81444 -7.25,14.25 -0.48578,0.97156 -0.23476,1.96953 -1,3.5 -0.69884,1.39769 0.2076,3.58481 -0.5,5 -0.0256,0.0513 -0.0353,0.71475 0,0.75 0.13176,0.13176 0.5,0.0637 0.5,0.25 0,0.0653 -0.75,1.33824 -0.75,1.75 0,1.806 -0.47113,4.80774 0.5,6.75 0.211,0.422 -0.5,0.45121 -0.5,0.75 0,0.26442 0.4301,0.6801 0.5,0.75 0.0861,0.0861 -0.42942,1.14117 -0.25,1.5 0.63431,1.26863 -0.42613,5.57387 0.75,6.75 0.14469,0.14469 -0.25,0.88816 -0.25,1.25 0,0.85345 0.25,2.17838 0.25,3.25 0,0.81223 1.67135,7.67135 1.75,7.75 0.28144,0.28144 0.75,0.8611 0.75,1.5 0,1.33011 0.73709,6.23709 1.75,7.25 0.46645,0.46645 1.47797,6.70595 2,7.75 1.35964,2.71928 3.12862,7.87862 4.75,9.5 0.7025,0.7025 0.14772,2.39772 0.75,3 1.34814,1.34814 2.70458,3.70458 4,5 0.68883,0.68883 3.36347,1.61347 4,2.25 1.3485,1.34851 3.30833,2.65417 5,3.5 1.01956,0.50978 2.4647,0.23235 3.5,0.75 0.51089,0.25545 5.85481,0.10481 5,-0.75 -1.32537,-1.32537 -3.30806,-2.77903 -5.75,-4 -1.54534,-0.77267 -4.88914,-5.13913 -6.25,-6.5 -1.66497,-1.66497 -3.78447,-3.03446 -5.25,-4.5 -1.38161,-1.38161 -2.00447,-3.25447 -3.25,-4.5 -0.68947,-0.68947 -0.98572,-3.73572 -1.75,-4.5 -0.6409,-0.6409 -0.57236,-4.14471 -1,-5 -1.38717,-2.77434 -1.43049,-6.54147 -2.5,-9.75 -0.32647,-0.97941 -0.0333,-2.06668 -0.5,-3 -0.39421,-0.78842 0.27986,-2.16043 0,-3 -2.44266,-7.32797 -3.71484,-23.32031 -0.25,-30.25 0.90104,-1.80207 0.64586,-4.89585 2,-6.25 0.17331,-0.17331 -0.0792,-1.01255 0,-1.25 0.84534,-2.53603 2.90342,-8.15341 4.5,-9.75 0.56592,-0.56592 2.26621,-6.5162 2.75,-7 0.83739,-0.83739 1.66261,-2.66261 2.5,-3.5 0.83677,-0.83677 2.52616,-2.27616 3.5,-3.25 0.58592,-0.58591 0.41408,-1.41408 1,-2 1.83078,-1.83077 4.8144,-6.0464 8,-5.25 z"
         style="fill:#502d16;fill-opacity:1;stroke:#000000;stroke-width:1px;stroke-linecap:butt;stroke-linejoin:miter;stroke-opacity:1" />
      <path
         sodipodi:nodetypes="csscsscsssssc"
         inkscape:connector-curvature="0"
         id="path3441"
         d="m 481.9236,563.26274 c 0.97928,-0.39577 4.48006,0 5.65686,-0.2822 0.35179,-0.0844 3.85734,0.22431 4.06586,0.1411 0.24634,-0.0983 1.97637,-0.3076 3.18198,-0.1411 1.76982,-0.14276 3.87678,-0.15221 4.94975,0.2822 1.43496,0.581 2.04772,1.38745 1.41421,2.3988 -0.60116,0.95971 -1.09444,0.87359 -1.94454,1.55217 -0.25101,0.20035 -2.08045,0 -2.47488,0 -2.34151,0 -8.58345,0.31358 -10.78337,-0.56442 -0.50885,-0.20308 -5.37612,0.2822 -5.48008,0.2822 -0.11785,0 0,-0.18814 0,-0.2822 0,-0.37629 0,-0.75257 0,-1.12885 0,-1.3911 -0.63348,-2.5846 1.41421,-2.2577 z"
         style="fill:#28170b;fill-opacity:1;stroke:#000000;stroke-width:0.89342898px;stroke-linecap:butt;stroke-linejoin:miter;stroke-opacity:1" />
      <path
         sodipodi:nodetypes="ccscsssscssssssc"
         inkscape:connector-curvature="0"
         id="path3516"
         d="m 480.5,560.48718 c 0.29127,-0.006 0.26137,-0.50568 0.5,-0.625 1.33599,-0.66799 2.91722,-2.05574 4.25,-2.5 0.53792,-0.17931 0.95126,-0.81708 1.5,-1 1.96956,-0.65652 7.57576,-4.70076 8.625,-5.75 0.24825,-0.24825 1.27262,-0.64762 1.5,-0.875 0.1832,-0.1832 0.95894,-1.16127 1.125,-1.375 0.87666,-1.12832 -0.35469,-2.78058 -1.75,-2.5 -1.53075,0.30782 -3.77538,2.15039 -4.375,2.75 -0.43952,0.43953 -1.77842,1.02842 -2.125,1.375 -0.74086,0.74086 -2.29883,1.17384 -3,1.875 -1.03481,1.03481 -2.20654,1.20655 -3.375,2.375 -0.11676,0.11676 -0.50824,0.13324 -0.625,0.25 -0.28134,0.28134 -0.79046,0.91546 -1.125,1.25 -0.58586,0.58586 -1.54624,0.67124 -2.125,1.25 -0.34984,0.34984 -1.17517,1.375 -1.75,1.375"
         style="fill:#28170b;fill-opacity:1;stroke:#000000;stroke-width:1px;stroke-linecap:butt;stroke-linejoin:miter;stroke-opacity:1" />
      <path
         sodipodi:nodetypes="csscsscsssssssssccsc"
         inkscape:connector-curvature="0"
         id="path3557"
         d="m 476.57844,554.75124 c 2.19517,-5.94495 3.55018,-11.20559 4.25537,-12.72428 0.62413,-1.34414 3.19916,-7.4786 3.67812,-9.19169 0.33924,-1.21334 0.91,-4.2946 1.50853,-4.95504 0.21624,-0.23859 0.2744,-0.90118 0.43802,-1.27305 0.54812,-1.24564 1.31639,-2.69288 2.3681,-2.74458 0.0978,-0.005 0.55888,-0.0899 0.62424,-0.0307 0.42423,0.38448 1.08316,0.6238 1.55343,1.04999 0.23467,0.21269 0.26942,1.67705 0.0921,1.87275 -0.1579,0.17423 -0.21154,0.89714 -0.31931,1.14205 -0.35697,0.81124 -0.75575,1.16233 -1.03772,1.80313 -0.93046,2.11458 -1.44609,4.4598 -2.55238,6.63332 -0.45845,0.90071 -1.01151,2.69555 -1.35089,3.07003 -0.82255,0.90762 -1.42921,3.52564 -2.01406,4.85474 -1.05531,2.3983 -1.72311,4.88756 -2.88396,7.52569 -0.32614,0.74118 -0.31675,1.69141 -0.63248,2.40896 -0.23822,0.54134 -0.55535,1.26209 -0.78803,1.79085 -0.0652,0.14824 0.0575,0.46305 0.0245,0.4994 -0.0709,0.0782 -0.25632,-0.12267 -0.24355,0.13712 0.005,0.11772 0.15828,-0.17464 0.23741,-0.26197"
         style="fill:#28170b;fill-opacity:1;stroke:#000000;stroke-width:1px;stroke-linecap:butt;stroke-linejoin:miter;stroke-opacity:1" />
      <path
         sodipodi:nodetypes="ccccsccssccccc"
         inkscape:connector-curvature="0"
         id="path3680"
         d="m 480.12714,572.54572 c 1.99729,5.26065 3.03923,6.85196 4.88313,11.84134 0.53901,1.45856 2.29513,6.71088 3.35263,7.70229 0.14919,0.13988 0.0115,0.86747 0.21088,1.05442 0.82315,0.77171 1.19285,2.37111 1.69845,3.30571 1.50193,2.77633 2.1328,3.77029 1.84957,6.31656 -0.4056,0.43268 -1.17553,2.02575 -1.22835,1.97623 -0.44975,-0.42165 -1.21894,-0.62876 -1.62435,-1.00882 -1.17462,-1.1012 -1.08095,-2.33041 -1.89223,-3.83007 -1.10435,-2.0414 -1.0371,-4.54209 -2.86335,-6.25419 -0.31629,-0.29655 -0.12542,-1.31697 -0.40466,-1.57878 -0.51716,-0.48482 -1.9801,-3.30458 -2.63424,-4.51376 -0.39565,-1.62053 -1.38897,-4.83333 -1.67698,-5.10329 -1.21161,-1.13589 -2.40663,-6.49172 -3.51767,-8.54547"
         style="fill:#28170b;fill-opacity:1;stroke:#000000;stroke-width:1px;stroke-linecap:butt;stroke-linejoin:miter;stroke-opacity:1" />
      <path
         sodipodi:nodetypes="cssssssc"
         inkscape:connector-curvature="0"
         id="path3306"
         d="m 470.37656,554.17693 c -1.8185,0.65597 -1.0452,0.82896 -2.9434,4.62535 -2.21947,4.43894 -0.94983,13.7672 0.42048,15.13751 1.03619,1.03618 4.84029,1.68194 5.88681,1.68194 1.15613,0 3.25029,0.95457 4.20486,0 1.94533,-1.94533 4.41943,-5.05405 4.32926,-9.50437 -0.0779,-3.84642 -0.74461,-7.74224 -3.05634,-10.05397 -1.60203,-1.60203 -5.84458,-1.88646 -8.84167,-1.88646 z"
         style="fill:#28170b;fill-opacity:1;stroke:#000000;stroke-width:1px;stroke-linecap:butt;stroke-linejoin:miter;stroke-opacity:1" />
      <path
         id="path3559"
         d="m 458.375,522.5 c -1.0873,1.7277 -2.13868,3.49018 -3.125,5.28125 0.85688,2.22719 1.9453,5.38322 2.34375,5.75 0.47283,0.43527 0.16598,1.67123 0.625,2.09375 0.37713,0.34714 1.7228,3.18725 1.75,3.84375 0.009,0.22228 0.003,1.58964 0.28125,2.09375 1.48374,2.68383 2.42633,6.85008 4.21875,8.5 0.45907,0.42258 0.44564,1.42472 0.96875,1.90625 0.44016,0.40517 0.86523,3.1419 1.59375,3.8125 0.64303,0.59191 0.36483,1.55419 0.78125,1.9375 0.39853,0.36685 1.03896,0.44565 1.4375,0.8125 0.24679,0.22717 0.6465,0.43844 0.90625,0.15625 0.17322,-0.1881 1.01347,-0.027 1.21875,-0.25 0.56914,-0.61831 0.44833,-2.81457 -0.5,-3.6875 -0.3819,-0.35155 -2.24076,-7.16266 -2.4375,-7.34375 -0.592,-0.54493 -1.85138,-5.78216 -2.59375,-7.125 -0.102,-0.1845 0.0708,-0.53425 -0.0312,-0.71875 -1.23219,-2.22884 -1.89783,-4.4305 -3.09375,-6.59375 -0.50502,-0.91349 -0.34166,-2.24804 -0.84375,-3.15625 -1.11399,-2.01504 -2.46231,-5.04438 -3.5,-7.3125 z"
         style="fill:#28170b;fill-opacity:1;stroke:#000000;stroke-width:1px;stroke-linecap:butt;stroke-linejoin:miter;stroke-opacity:1"
         inkscape:connector-curvature="0" />
      <path
         id="path3443"
         d="m 445.46875,562.375 c -0.0436,0.41635 -0.12658,0.83363 -0.15625,1.25 -0.0727,1.02097 -0.0358,2.04207 -0.0312,3.0625 2.54639,0.11371 7.19093,0.125 8.34375,0.125 2.81878,0 11.29246,1.252 12.5625,0.15625 0.0304,-0.0262 1.70789,0.19809 1.9375,0 0.42696,-0.36837 0.56747,-0.63541 1.0625,-1.0625 0.43949,-0.37918 0.1875,-1.6546 0.1875,-1.375 0,0.0475 0.331,-1.6875 -1.40625,-1.6875 -2.90457,0 -5.24493,-0.15625 -8.5,-0.15625 -2.34629,0 -4.52053,-0.3125 -6.53125,-0.3125 -2.48744,0 -5.16365,-0.0236 -7.46875,0 z"
         style="fill:#28170b;fill-opacity:1;stroke:#000000;stroke-width:0.92885226px;stroke-linecap:butt;stroke-linejoin:miter;stroke-opacity:1"
         inkscape:connector-curvature="0" />
      <path
         sodipodi:nodetypes="cssscsc"
         inkscape:connector-curvature="0"
         id="path3308"
         d="m 474.87691,556.23388 c -0.74182,0.7625 -1.32438,1.15239 -2.10243,3.65937 -0.5,1.61106 -1.55695,3.34016 -1.55695,5.63681 0,4.76014 2.09484,10.27263 6.3073,7.56875 1.32156,-0.84828 2.05711,-2.5457 2.80694,-4.04548 1.32746,-3.82746 -0.0249,-10.28745 -2.93194,-12.31945 -0.68928,-0.48181 -1.68195,-0.5 -2.52292,-0.5 z"
         style="fill:#502d16;stroke:#000000;stroke-width:1px;stroke-linecap:butt;stroke-linejoin:miter;stroke-opacity:1" />
      <path
         sodipodi:nodetypes="csscccssssssssc"
         inkscape:connector-curvature="0"
         id="path3418"
         d="m 471.54516,553.73718 c 0.29917,-1.34564 -0.80254,-8.7972 -0.80254,-13.25 0,-4.49109 -0.16051,-8.4955 -0.16051,-12.25 0,-5.1584 0.17446,-8.20664 0,-12.03033 0.0574,-2.60848 0.432,-3.12937 0.89489,-3.53033 0.61955,-0.2184 1.45661,-0.34018 2.00399,-0.36872 0.6886,0.30343 1.41792,0.13788 1.73637,0.98744 0.23388,0.62394 0.17999,4.03754 0.17999,4.91161 0,1.0079 0.28265,6.84008 0,7.28033 -0.33895,0.52794 -0.48132,10.75065 -0.32102,11.25 0.73104,2.27726 0.48153,9.61391 0.48153,12.5 0,1.01235 -0.28292,3.36868 -0.16051,3.75 0.122,0.38006 0.43331,1.25 0.16051,1.25 -0.0438,0 -0.47946,-0.757 -0.48153,-0.75 -0.68627,2.31184 -3.19162,0.97459 -3.53117,0.25 z"
         style="fill:#28170b;fill-opacity:1;stroke:#000000;stroke-width:0.8012687px;stroke-linecap:butt;stroke-linejoin:miter;stroke-opacity:1" />
      <path
         id="path3577"
         d="m 448.25,544.5 c -0.40919,1.43645 -0.78513,2.88272 -1.09375,4.34375 1.4426,0.94703 2.92956,1.84229 4.3125,2.875 1.10091,1.13862 2.65297,1.68767 3.8125,2.75 1.13238,0.32435 1.8437,1.26885 2.875,1.78125 0.98505,0.15623 1.51516,1.11532 2.21875,1.71875 1.02627,0.60498 2.0783,1.06897 2.90625,1.96875 1.05439,0.32987 1.79576,1.34892 2.875,1.5 1.0628,0.27459 1.55012,0.35881 2.65625,-0.34375 0.25476,-1.90325 -0.36116,-2.8805 -1.875,-3.875 -1.35044,-0.72308 -2.48773,-1.74142 -3.75,-2.59375 -2.11741,-1.40991 -4.57018,-2.31199 -6.5,-4 -1.75109,-1.58218 -3.38775,-3.33415 -5.46875,-4.5 -1.01519,-0.49675 -2.00813,-1.02707 -2.96875,-1.625 z"
         style="fill:#28170b;fill-opacity:1;stroke:#000000;stroke-width:1px;stroke-linecap:butt;stroke-linejoin:miter;stroke-opacity:1"
         inkscape:connector-curvature="0" />
      <path
         sodipodi:nodetypes="ccssscscsscccsc"
         inkscape:connector-curvature="0"
         id="path3596"
         d="m 454.69843,606.0756 c 0.70252,-3.62597 3.71767,-8.82051 3.95701,-10.19183 0.84036,-0.84798 1.47021,-3.1004 2.01089,-3.94731 0.91301,-1.43009 1.22233,-3.41454 1.63756,-4.64418 0.40201,-1.19051 1.31804,-3.77004 2.14276,-5.54266 1.53608,-3.3016 2.25987,-6.03052 4.53696,-8.43971 0.23856,-0.25239 1.88899,-0.23009 1.93879,-0.23149 0.44393,-0.0125 0.82555,0.95228 1.09511,1.20705 0.18565,0.17548 -1.909,4.7494 -2.32944,5.19423 -0.38911,0.41169 -0.44193,2.64179 -1.2941,4.28081 -0.76943,1.47988 -0.97309,3.12139 -1.80927,4.82586 -0.20055,1.83875 -0.87407,3.75748 -1.80928,4.82587 -0.18637,0.19718 -0.70576,1.70443 -1.32399,3.22057 -0.88231,1.89642 -1.67894,3.98349 -2.49119,5.72933 -0.46885,1.00773 -3.80751,9.12915 -3.62852,9.29832"
         style="fill:#28170b;fill-opacity:1;stroke:#000000;stroke-width:1px;stroke-linecap:butt;stroke-linejoin:miter;stroke-opacity:1" />
      <path
         sodipodi:nodetypes="cssssssssscssscccsc"
         inkscape:connector-curvature="0"
         id="path3624"
         d="m 448.67283,591.07834 c -0.21354,0.34705 5.08872,-5.14626 6.18449,-5.83113 2.16029,-1.35018 2.32847,-2.52362 4.00693,-3.94978 1.32113,-1.12254 2.62856,-2.30656 2.90516,-2.56735 0.71648,-0.67555 1.27886,-1.893 2.02166,-2.59335 1.22711,-1.157 2.06351,-1.6691 2.73884,-2.92596 0.80695,-1.50182 3.97809,-2.15825 1.55391,-4.72933 -0.72363,-0.76748 -2.61207,0.45374 -3.01949,0.44176 -0.51383,-0.0151 -1.88002,1.60079 -2.17757,1.88134 -0.3693,0.3482 -1.00251,0.42982 -1.43959,0.84193 -0.12126,0.11434 -0.071,0.41057 -0.19228,0.52491 -1.16611,1.09946 -2.871,2.19154 -4.16805,3.41448 -0.48716,0.45933 -1.18032,1.80009 -1.83976,2.42184 -0.85958,0.81047 -2.11871,2.16946 -2.91554,2.92076 -0.83053,0.78307 -1.22697,1.84406 -2.20355,2.76485 -0.38561,0.36357 -1.68578,1.1331 -1.99567,1.70983 -0.54214,1.009 -1.59113,1.12397 -2.00086,1.88655 -0.20907,0.38909 -0.37339,0.66928 -0.36899,0.51971 0.006,-0.21237 0.34775,-0.24843 0.54049,-0.33782"
         style="fill:#28170b;fill-opacity:1;stroke:#000000;stroke-width:1px;stroke-linecap:butt;stroke-linejoin:miter;stroke-opacity:1" />
      <path
         id="path3258"
         d="m 473.46875,506.5625 c -3.16076,0.10868 -10.92332,1.51592 -11.78125,1.6875 -3.04016,1.4302 -6.93617,9.87923 -11.78125,16.40625 -1.6172,2.1786 -5.36306,13.28863 -7.125,16.8125 -1.12296,2.24592 -1.32849,5.17296 -2.125,7.5625 -0.4352,1.30562 0.61118,3.40264 0,4.625 -0.55849,1.117 0.12848,2.71179 -0.40625,3.78125 -3.63063,7.26126 2.26968,33.13311 5.46875,39.53125 1.52785,5.27182 7.34335,18.48982 12.1875,21.03125 1.62297,0.81149 2.36843,2.66859 3.78125,3.375 3.75661,1.87831 12.62681,4.6232 15.15625,2.09375 0.49732,-0.49731 7.14559,-1.70809 9.65625,-4.21875 2.3785,-2.3785 7.19175,-4.66475 8.84375,-7.96875 1.14842,-2.29683 2.15075,-5.932 3.78125,-7.5625 2.62009,-3.66728 2.13274,-8.02147 3.78125,-11.78125 0.99942,-1.99883 2.20411,-6.42286 3.34375,-7.5625 1.08111,-1.08111 0.24989,-7.81239 1.6875,-9.25 0.17849,-4.44743 1.20767,-14.16648 -0.40625,-17.6875 -0.50458,-1.00917 0.50458,-2.77208 0,-3.78125 -2.79059,-5.28031 -2.2119,-10.74165 -3.78125,-15.96875 -1.8238,-5.4714 -2.49502,-10.05752 -5.46875,-13.03125 -1.79946,-1.79945 -4.88722,-7.41847 -6.71875,-9.25 -3.26259,-3.2626 -8.83353,-9.16215 -18.09375,-8.84375 z m 0.96875,5.96875 c 5.73213,0.0177 10.51378,4.18391 13.8125,8.4375 7.19892,7.40286 10.13172,17.25467 11.28125,27.25 3.56026,11.88838 4.35025,25.57029 -0.625,37.15625 -2.82925,7.80382 -4.30393,16.19211 -9.0625,23.09375 -4.59306,5.18476 -11.23744,9.58236 -18.25,9.8125 C 459.98896,616.92373 454.79038,604.25106 451,594.625 c -3.26155,-11.43009 -7.48361,-23.50758 -5.09375,-35.5 0.42339,-14.79247 6.85135,-28.65774 15.15625,-40.71875 1.39926,-5.4476 7.61878,-5.64009 12.21875,-5.8125 0.3906,-0.0369 0.77411,-0.0637 1.15625,-0.0625 z"
         style="fill:#28170b;stroke:#000000;stroke-width:1px;stroke-linecap:butt;stroke-linejoin:miter;stroke-opacity:1"
         inkscape:connector-curvature="0" />
    </g>
    <path
       style="fill:#979da9;fill-opacity:0.367713;stroke:none"
       d="m 443.5,491.86218 c -8.45412,1.01564 -5.00803,-10.99197 -1,-15 1.94365,-1.94365 8,0.74874 8,-2 0,-0.46461 -1.76349,-2.52698 -2,-3 -1.73088,-3.46176 4.01951,-11.50975 7,-13 1.68065,-0.84032 6,-1.28367 6,1 0,0.29646 -1.69355,-1.61289 -1,-3 0.67336,-1.34672 2.83937,-2.41968 4,-3 9.41489,-4.70744 5,5.40134 5,-3 0,-4.22015 -9.40326,-9.59674 -7,-12 3.11246,-3.11246 9.84263,-8.07868 4,-11 -3.6628,-1.8314 -1.9525,-8.09499 -2,-8 -6.54886,13.09773 -30.44882,0.34647 -26,-13 1.47289,-4.41868 4.7391,-8.7391 7,-11 0.4765,-0.4765 -4.27431,-1.45138 -2,-6 1.48575,-2.9715 7.30658,-4.30658 9,-6 3.27495,-3.27495 4.55274,4.55274 5,5 0.68613,0.68613 2.0843,-2.54215 3,-3 6.82184,-3.41092 8,4.25814 8,-1 0,-9.26518 -0.0488,-13.97561 10,-19 3.11423,-1.55711 4.80333,2 6,2 0.81451,0 2.37135,-7.05703 3,-8 3.60295,-5.40443 11.70129,-5.76623 17,-4 5.30946,1.76982 1.8539,6.85391 4,9 2.50971,2.50971 11.9964,1.99281 14,6 3.51772,7.03544 -9,11.69039 -9,11 0,-0.001 5,3.66233 5,6 0,8.58878 -6.39059,8.3906 -11,13 -0.67391,0.67392 8,15.94167 8,24 0,3.46351 -18.08268,12.91732 -16,15 2.74794,2.74794 8.74918,2.49836 11,7 3.32161,6.64323 -3.26682,13.26682 -6,16 -0.92094,0.92094 1.46993,8.53007 -2,12 -2.38061,2.38061 -3.4423,3.4423 -5,5 -2.23486,2.23486 -6.00996,-3 -6,-3 11.88795,0 12.53941,18.46059 7,24 -5.62757,5.62757 -20.31035,4.37931 -24,-3 -0.97651,-1.95302 2.58111,-9 -1,-9 -1.01502,0 -4.47785,2.52216 -5,2 -0.21517,-0.21517 -1.51786,-7 -1,-7 3.6501,0 -4.88428,10.44214 -6,11 -6.91362,3.45681 -9.5492,-4.69016 -18,-3 z"
       id="path4756"
       inkscape:connector-curvature="0" />
    <path
       style="fill:#916f6f;fill-opacity:1;stroke:#000000;stroke-width:1px;stroke-linecap:butt;stroke-linejoin:miter;stroke-opacity:1"
       d="m 384.5,510.86218 c -2.41246,3.59452 -3.44743,8.44743 -6,11 -3.48337,3.48337 -8.94978,10.44979 -13,14.5 -0.78656,0.78656 -0.88211,3.38212 -1.5,4 -0.98924,0.98924 -2.92706,2.85413 -3.5,4 -0.50655,1.01309 -0.1249,2.6249 -1,3.5 -1.37382,1.37383 -2.72995,5.22995 -4.5,7 -4.18812,4.18812 -8.01752,10.51753 -11.5,14 -1.51732,1.51732 -4.64772,4.85514 -4.625,6.5 0.0215,1.55565 3.77553,1.72448 5.125,0.5 0.86274,-0.86274 0.1417,-2.6417 1.5,-4 2.70677,-2.70677 4.72055,-6.72054 8,-10 9.82474,-9.82473 17.305,-26.805 28,-37.5 1.17189,-1.17188 2.02942,-3.52942 3,-4.5 0.6823,-0.68229 5.53795,-9.46205 4.5,-10.5 -1.11803,-1.11803 -3.14418,0.68651 -4.5,1.5 z"
       id="path3764"
       inkscape:connector-curvature="0"
       sodipodi:nodetypes="csssssssscsssssc" />
    <path
       style="fill:#fdfdfe;fill-opacity:0.78026907;stroke:none"
       d="m 163.4375,447.46875 c 0.18151,0.0786 0.36005,0.23119 0.53125,0.25 0.37105,0.0408 0.72928,-0.0418 1.03125,-0.34375 0.2357,-0.2357 -0.70186,-0.14907 -1,0 -0.15124,0.0756 -0.38371,0.0476 -0.5625,0.0937 z"
       id="path4740"
       inkscape:connector-curvature="0" />
    <path
       style="fill:#919aad;fill-opacity:0.15246636;stroke:none"
       d="m 479,448.36218 c -7.06582,0.8586 -3.8425,-7.31501 -2,-11 2.29201,-4.58401 7.48878,-2 7,-2 -0.38695,0 -3.9476,-5.1048 -3,-7 2.33499,-4.66998 11.49815,-5 10,-5 -10.44981,0 -26.36822,-17 -16,-17 1.61495,0 -5.09451,4.81099 -7,1 -2.13243,-4.26486 0.0768,-12.0384 4,-14 3.16734,-1.58367 16.49498,-6.01004 19,-1 0.65627,1.31254 -2.02941,1.97059 -1,3 0.3309,0.3309 8.3406,-1.8297 10,-1 6.6417,3.32085 3.78497,15 1,15 -0.36123,0 3.80272,-2.19727 5,-1 2.15727,2.15727 2.98594,8.01407 0,11 -4.89251,4.89252 -1.29913,7.29913 -5,11 -1.90046,1.90046 -7.80877,-2.19122 -9,-1 -1.11504,1.11504 -0.29259,4.58518 -1,6 -0.74536,1.49071 -5.66667,3 -4,3 1.31759,0 6.93266,10 -8,10 z"
       id="path4760"
       inkscape:connector-curvature="0" />
    <path
       style="fill:#919aad;fill-opacity:0.15246636;stroke:none"
       d="m 488,378.36218 c -1.33333,0.33334 -3.66667,2.33334 -4,1 -0.33333,-1.33333 5.37437,-1 4,-1 -1.69967,0 -3.30033,1 -5,1 -1,0 -0.98058,-3.19611 0,-3 1.7602,0.35204 4.00428,3.49358 5,2 1.07814,-1.61721 -2.38536,-3.15609 -3,-5 -0.28345,-0.85035 3.82833,-2.88555 4,-3 1.58995,-1.05997 0.28552,-2.14276 2,-3 8.60044,-4.30022 7.94569,5 9,5 0.52803,0 11,-7.99634 11,4 0,1.88967 -3.97516,7.04968 -3,9 0.51602,1.03204 4.95741,5.04259 3,7 -1.99308,1.99308 -15.24213,7.75787 -19,4 -1.04177,-1.04177 -3.0482,-3.09641 -4,-5 -1.47735,-2.95469 1.51368,-6.43161 1,-9 -0.26954,-1.34768 -2.37437,-4 -1,-4 1.49071,0 1.33333,2.66667 2,4"
       id="path4762"
       inkscape:connector-curvature="0" />
    <path
       style="fill:#979da9;fill-opacity:0.36862745;stroke:none"
       d="m 211,339.375 c -1.64214,0 -3.56819,5.56819 -4,6 -0.7349,0.73491 -1.25414,-1.87293 -3,-1 -2.32199,1.161 -5.04076,2.04076 -7,4 -4.30724,4.30725 -2.19713,10.42215 -1.3125,11.8125 -2.02881,-0.18164 -14.23424,5.28098 -15.6875,8.1875 -3.22495,6.44991 -0.72507,14.45335 3.40625,21.28125 C 182.04892,391.45086 181,393.20362 181,394.375 c 0,0.0553 4.59864,3.40136 3,5 -1.54511,1.54512 -3.81784,1.81785 -5,3 -3.03515,3.03515 -2.66705,13.33411 -5,18 -0.90701,1.81401 2.54935,6.50827 3.65625,6.5 -1.00272,2.09951 -3.65858,10.49651 0.34375,16.5 2.19886,3.2983 18,7.89936 18,9 0,4.96584 -9.7314,8.53719 -6,16 2.60226,5.20452 12.46728,7.48909 17,9 3.49444,1.16482 3.03569,22.25892 18,26 10.97014,2.74254 19.83905,-7.83905 26,-14 1.2291,-1.2291 10.63443,3 14,3 0.26926,0 19.54959,-1.77479 20,-2 1.1821,-0.59105 3.76138,-3 5,-3 0.66667,0 -0.4714,1.5286 0,2 2.61431,2.61431 7.32047,5.77349 11,7 7.93665,2.64555 12.70206,-12.14897 19,-9 4.66313,2.33157 6.5194,11.17313 12,13 7.18088,2.39363 14.85558,2.38148 22,0 0.90533,-0.30177 4.32858,-3.79903 5.09375,-5.3125 1.02669,0.84749 3.54528,2.19218 3.90625,2.3125 6.78072,2.26024 12.1622,-0.45274 15,-4 1.17794,-1.47242 2.66667,-2.66666 4,-4 -1.47607,-2.46012 -3.751,-8.8755 -6,-10 -3.09886,-1.54943 -4.5559,4.22205 -7,3 -2.51391,-1.25695 -4.73419,-4.73419 -6,-6 -0.004,-0.004 -5.90425,1.09575 -8,-1 -2.18586,-2.18586 0.29769,-7.40461 -1,-10 -1.3096,-2.6192 -3,0.58596 -3,-3 0,-4.01378 -0.20166,-3.20166 -2,-5 -2.8975,-2.8975 3.10996,-19 -11,-19 -0.61024,0 -3.61036,-0.38964 -4,0 -2.31244,2.31244 -2.58199,5.67571 -2.375,9.4375 -1.24415,1.80874 -1.09855,5.03606 -2.625,6.5625 -0.20269,0.2027 -3.80505,-2 -5,-2 -0.85074,0 -3.91379,3.08622 -5,2 -5.20448,-5.20448 0.68686,-12 -9,-12 -1.81758,0 -1.40571,-1.59429 -3,0 -1.15595,1.15595 -3.0528,3.30678 -5.25,5.34375 -0.29077,-0.59737 -0.8305,-0.8035 -1.75,-0.34375 -2.49621,1.24811 -4.66318,2.8316 -7,4 -0.8974,0.4487 -2.03018,0.24839 -3.125,-0.0937 -0.31252,-0.29194 -4.45666,-3.99634 -5.59375,-4.78125 1.54579,-0.48692 9.78177,-10.06198 8.71875,-11.125 -1.27435,-1.27435 -2.24026,-5.24026 -4,-7 -0.50246,-0.50245 -7.69821,-4.15732 -7.96875,-4 0.26798,-0.22944 2.30422,-5.66453 -1.03125,-9 -0.72877,-0.72877 -4.01368,-0.0137 -5,-1 -0.0615,-0.0615 1.59609,-5.40391 0,-7 -1.39914,-1.39913 -5.75619,-8.1219 -10,-6 -1.88552,0.94276 -11.38259,6.38259 -8,3 5.94508,-5.94508 23.33142,-15.33715 18,-26 -0.30189,-0.60377 0.46226,-2.53773 0,-3 -6.99436,-6.99436 -9.92688,-7.72737 -11.8125,-6.59375 0.54854,-2.82174 2.06869,-7.15006 1.8125,-7.40625 -1.54511,-1.54511 -4.81784,-0.81784 -6,-2 -2.78924,-2.78923 1.57198,-8.21401 0,-9 -1.43183,-0.71591 -5.4931,0 -7,0 -5.93607,0 -7.30799,0.4958 -7.71875,1.5625 -0.55484,-0.13956 -1.10782,-0.30505 -1.65625,-0.53125 -0.001,-0.003 -0.03,0.003 -0.0312,0 -2.29103,-6.2346 -7.14423,-13.75601 -12.59375,-11.03125 -1.9247,0.96235 -4.80005,1.60011 -6,4 -0.33333,0.66667 -0.25464,2 -1,2 -2.80217,0 -1.32643,-4.10881 -4,-5 -2.04924,-0.68308 -7.9711,-2 -8,-2 z"
       id="path4823"
       inkscape:connector-curvature="0" />
    <path
       style="fill:#919aad;fill-opacity:0.15294118;stroke:none"
       d="m 368,501.36218 c -4.15279,0.93477 -13.86933,7.13067 -18,3 -0.98632,-0.98632 -2.27123,-2.27123 -3,-3 -0.14706,-0.14706 0.11765,-3 0,-3 -1.1687,0 -6.83833,5.16167 -8,4 -1.72553,-1.72553 -2.56825,-4.56824 -4,-6 -1.0098,-1.0098 1,-2.55882 1,-2 0,2.62225 -11.37704,-5 -8,-5 2.0246,0 -6.74921,6.25079 -10,3 -1.84055,-1.84054 -3.86741,-7.8674 -6,-10 -2.34707,-2.34707 -7.88836,4.55582 -11,3 -5.016,-2.508 -6.47298,-12.26351 -13,-9 -2.14043,1.07022 -4.64785,4.32393 -8,6 -1.90233,0.95117 -8.57007,-3.42993 -10,-2 -0.72877,0.72877 -1.01368,3.01368 -2,4 -6.58909,6.58909 -17.71371,-0.7137 -22,-5 -1.8287,-1.82869 -8.86725,-3.26549 -7,-7 0.41923,-0.83847 5.63484,-7 7,-7 0.94281,0 1.15673,1.57837 2,2 2.14037,1.07019 8.02252,-4.01126 10,-5 2.75992,-1.37996 11.24909,1.75091 12,1 2.35363,-2.35363 -0.33519,-11.32963 1,-14 1.8792,-3.7584 10.43938,-13.21969 14,-15 5.03384,-2.51692 6,8.68209 6,7 0,-3.43254 15.93747,-9.12505 19,-3 4.32311,8.64623 0.16394,14.16394 7,21 2.76812,2.76812 -2.86741,9.13259 0,12 3.56221,3.56221 12.12633,-9.93683 16,-8 3.76542,1.88271 5.64772,20.64772 9,24 2.22955,2.22956 8.26078,-2.73922 10,-1 1.77158,1.77158 1.99511,4.99511 4,7 4.81406,4.81406 5.7958,-7.51051 12,8 z"
       id="path4825"
       inkscape:connector-curvature="0" />
    <path
       style="fill:#919aad;fill-opacity:0.15294118;stroke:none"
       d="m 228.7864,398.55845 c -4.03897,0.84024 -7.51096,2.01831 -9.09424,3.2599 -1.38346,1.0849 -2.79285,4.47744 -1.67494,5.70021 -3.19996,0.0499 -9.05477,1.37005 -9.84194,7.87776 -0.26681,2.20586 -0.7259,6.69378 1.16969,9.01063 -0.14071,-0.0628 -0.26549,-0.0582 -0.34931,0.008 l -3.51913,2.75966 c -2.08691,1.63654 -3.56986,8.44593 -3.87856,10.99804 -0.54931,4.54132 2.67822,8.99709 1.62045,12.93731 -1.38421,5.15626 -0.10598,6.3874 3.18,10.57769 1.55478,1.98266 4.98693,1.60084 6.67883,2.71906 0.21969,0.1452 0.57337,0.47097 0.84237,0.68919 -0.24928,0.24358 -0.52567,0.86215 -0.44233,1.27039 0.33775,1.65448 0.53314,5.95772 1.22159,9.73361 4.53042,1.3003 8.68378,2.21029 9.21699,1.40354 l 5.45841,-8.25868 c 0.43755,-0.66201 0.95157,-1.22586 1.4946,-1.74037 -0.8221,-1.75838 -2.26915,-2.14624 -3.6745,-3.93836 -2.372,-3.02479 0.76269,-6.28366 1.53924,-7.4586 1.34374,-2.03309 -2.38147,-1.66656 -2.55964,-2.53934 -0.004,-0.0196 4.36771,1.14961 7.25858,0.55945 2.10686,-0.4301 6.62564,-1.17177 11.28011,-2.23898 -2.91063,-4.51584 -16.52443,-9.06263 -10.38153,-18.35695 3.3653,-5.09176 11.52354,1.80105 14.69689,-3.00029 1.08429,-1.64055 3.89034,-2.03888 5.27869,-4.13949 0.99329,-1.50287 1.88093,-5.81566 3.4981,-9.58079 -3.25829,-1.88239 -7.58459,-2.44361 -9.23774,-3.53624 -1.87381,-1.23846 6.98774,-11.82842 -1.0407,-15.09692 -3.70834,-1.50972 -12.00837,-1.01935 -18.73998,0.38105 z"
       id="path4827"
       inkscape:connector-curvature="0" />
    <path
       style="fill:#919aad;fill-opacity:0.15294118;stroke:none"
       d="m 253,430.36218 c -1.38858,0.51672 -8,1.50993 -8,9 0,14.30521 14.55417,5.27709 16,6 1.65717,0.82859 3.01384,3.99308 5,3 2.73495,-1.36747 7.09177,-7 8,-7 0.94281,0 1.15673,1.57837 2,2 3.75387,1.87694 9.30184,-2.30184 12,-5 0.5,-0.5 -0.5,-2.5 0,-3 4.88134,-4.88133 -11.83451,-10.41725 -15,-12 -0.41649,-0.20824 -6.50665,-11.49335 -11,-7 -5.27819,5.27819 2.91077,9.23569 -9,14 z"
       id="path4831"
       inkscape:connector-curvature="0" />
    <path
       style="fill:#919aad;fill-opacity:0.15294118;stroke:none"
       d="m 214.65887,361.33545 c -4.67981,-0.72541 -17.63999,1.72123 -20.13024,6.69128 -0.98066,1.95718 2.44233,7.34758 3.12259,9.39411 0.0717,0.21565 -3.72226,2.25219 -3.13388,4.02229 0.5608,1.68712 0.81302,4.68764 1.33638,6.26212 0.85339,2.56736 9.28571,1.03474 9.83644,2.69155 0.81225,2.4436 -7.3733,12.963 1.33073,12.97032 11.09436,0.009 9.50907,-9.91263 12.97972,-12.51107 2.0905,-1.56513 5.46942,0.93311 8.49818,-1.33449 2.80264,-2.0983 3.11044,-12.21111 4.03546,-12.51859 0.2156,-0.0717 2.73531,3.4701 4.47213,0.004 2.11659,-4.2243 -0.14702,-7.16747 -1.33261,-10.73425 -0.20624,-0.62045 -7.30796,-3.27329 -7.15241,-3.58373 1.33708,-2.66855 -1.26875,-9.26518 -6.25459,-7.60789 -1.77073,0.58859 -1.58979,3.46095 -1.79187,3.5762 -1.85405,1.05739 -6.48927,0.65298 -5.81603,2.67839 0.67325,2.02541 4.13389,-1.17446 6.26212,-1.33637 2.12822,-0.16191 -4.1339,1.17447 -6.26212,1.33637 z"
       id="path4829"
       inkscape:connector-curvature="0" />
  </g>
</svg>
