<?xml version="1.0" encoding="UTF-8" standalone="no"?>
<!-- Created with Inkscape (http://www.inkscape.org/) -->

<svg
   xmlns:dc="http://purl.org/dc/elements/1.1/"
   xmlns:cc="http://creativecommons.org/ns#"
   xmlns:rdf="http://www.w3.org/1999/02/22-rdf-syntax-ns#"
   xmlns:svg="http://www.w3.org/2000/svg"
   xmlns="http://www.w3.org/2000/svg"
   xmlns:sodipodi="http://sodipodi.sourceforge.net/DTD/sodipodi-0.dtd"
   xmlns:inkscape="http://www.inkscape.org/namespaces/inkscape"
   width="744.09448819"
   height="1052.3622047"
   id="svg13152"
   version="1.1"
   inkscape:version="0.48.3.1 r9886"
   sodipodi:docname="cash_register.svg">
  <defs
     id="defs13154" />
  <sodipodi:namedview
     id="base"
     pagecolor="#ffffff"
     bordercolor="#666666"
     borderopacity="1.0"
     inkscape:pageopacity="0.0"
     inkscape:pageshadow="2"
     inkscape:zoom="0.5"
     inkscape:cx="274.1805"
     inkscape:cy="722.14035"
     inkscape:document-units="px"
     inkscape:current-layer="layer1"
     showgrid="false"
     inkscape:window-width="1364"
     inkscape:window-height="766"
     inkscape:window-x="0"
     inkscape:window-y="0"
     inkscape:window-maximized="0" />
  <metadata
     id="metadata13157">
    <rdf:RDF>
      <cc:Work
         rdf:about="">
        <dc:format>image/svg+xml</dc:format>
        <dc:type
           rdf:resource="http://purl.org/dc/dcmitype/StillImage" />
        <dc:title></dc:title>
      </cc:Work>
    </rdf:RDF>
  </metadata>
  <g
     inkscape:label="Layer 1"
     inkscape:groupmode="layer"
     id="layer1">
    <path
       style="fill:#916f6f;stroke:#ffffff;stroke-width:1px;stroke-linecap:butt;stroke-linejoin:miter;stroke-opacity:0"
       d="m 465,108.36218 c 0.88138,-2.71168 9.93836,-3.93836 15,-8.999997 1.53114,-1.531142 2.26575,-5.265754 4,-7 1.13807,-1.138072 1.86193,2.138071 3,1 3.89618,-3.896184 18.88997,-2 24,-2 3.8848,0 11.91825,-1.081754 14,1 0.79156,0.79156 2.529,16.470997 1,17.999997 -3.54288,3.54288 2.02681,32.94637 -1,39 -1.99839,3.99678 0.94215,10.1157 -1,14 -5.41038,10.82076 -3,70.77753 -3,87 0,2.78133 -1.98578,31.98578 -2,32 -4.2906,4.29061 -11.25266,7.25266 -16,12 -8.42834,8.42835 -21.42491,22.42491 -31,32 -1.47334,1.47334 -6.33102,4.11034 -9,5 -3.4037,1.13457 -6.53447,7.53447 -8,9 -4.48162,4.48162 -3.6445,2.6445 -7,6 -4.25404,4.25404 -43.66803,-33.66803 -48,-38 -12.99427,-12.99427 -18.66495,-29.10654 -25,-46 -16.46181,-43.89816 -0.0664,-73.93363 31,-105 6.02219,-6.02218 12.86924,-15.86924 18,-21 6.09084,-6.09084 17.34845,-12.17422 25,-16 3.22842,-1.61421 7.20187,-1.20187 10,-4 1.51998,-1.51998 3.66686,-5.08357 6,-8 z"
       id="path13477"
       inkscape:connector-curvature="0"
       sodipodi:nodetypes="csssssssssssssssssssssc" />
    <path
       style="fill:#c8b7b7;fill-opacity:1;stroke:#ffffff;stroke-width:1px;stroke-linecap:butt;stroke-linejoin:miter;stroke-opacity:0"
       d="m 497.16208,221.85486 c -1.58681,-0.10261 7.77818,14.20865 7.77818,21.92031 0,15.34604 -4.45227,27.07969 -12.72792,35.35534 -0.56439,0.56438 0.37092,2.79368 0,3.53553 -1.98839,3.97678 -0.27432,7.50386 2.12132,9.8995 2.85125,2.85125 3.43696,2.02274 5.65685,4.24264 1.25889,1.25888 18.05153,-4.6165 19.09188,-5.65686 1.29637,-1.29636 5.0676,-0.11785 6.36397,-1.41421 0.11316,-0.11317 -0.70711,-1.33056 -0.70711,-2.12132 0,-2.35702 0,-4.71404 0,-7.07107 0,-1.94365 1.41421,-7.6005 1.41421,-5.65685 0,1.71594 -3.73639,-0.20086 -4.94974,-1.41421 -0.81382,-0.81382 -5.77282,-0.058 -7.07107,-0.70711 -0.82443,-0.41221 -7.70934,0.56944 -7.07107,-0.70711 0.74437,-1.48875 1.93666,-3.35087 2.82843,-4.24264 1.71293,-1.71293 0.40838,-8.18656 2.12132,-9.89949 1.53336,-1.53337 -4.89933,-29.64807 -5.65686,-30.4056 -1.75586,-1.75586 -2.83866,-4.95997 -4.24264,-6.36396 -1.17851,-1.17851 -3.31544,0.38025 -4.94975,0.70711 z"
       id="path13602"
       inkscape:connector-curvature="0" />
    <path
       style="fill:#ac9393;fill-opacity:1;stroke:#ffffff;stroke-width:1px;stroke-linecap:butt;stroke-linejoin:miter;stroke-opacity:0"
       d="m 485.125,92.6875 c -3.32851,-0.0678 -8.74451,3.307014 -9.125,3.6875 -3.16667,3.166666 -13.83333,-1.166667 -17,2 -1.04336,1.04336 -5.10566,0.924995 -10.03125,0.625 -0.03,-0.0049 -0.0638,0.005 -0.0937,0 -2.47402,-0.410884 -4.81592,-0.938639 -6.875,-1.625 -7.2,-2.4 -16.8,2.4 -24,0 -12.65583,-4.218611 -42.38798,-3 -57,-3 -2.68136,0 8.55752,-0.494705 6.67767,-1.12132 -8.00726,-2.669088 -59.50331,-1.248344 -66,2 -4.56367,2.281835 -16.64441,-1.35559 -20,2 -1.18889,1.188891 5.99726,22.00549 4,26 -3.00784,6.01568 -0.94224,14.44224 -5.5,19 -0.87095,0.87095 -7.62331,7.75338 -6.5,10 2.95821,5.91642 7.26975,6.33776 12.90625,11.9375 0.0191,0.009 0.0441,0.0224 0.0625,0.0312 0.0106,0.0105 0.0207,0.0207 0.0312,0.0312 L 449,171.3749 c 4.00802,2.00401 9.65618,-3.65618 12,-6 2.60973,-2.60973 7.77855,-1.77855 10,-4 2.24953,-2.24953 15.26579,-8.16671 16.5,-12 2.37432,-7.37431 2,-15.7198 1.5,-23 -0.2671,-3.88911 0.5868,-9.91319 0,-15 -0.31883,-2.76385 1.39967,-8.60033 -1,-11 -0.15254,-0.15255 -0.41086,-0.3041 -0.71875,-0.40625 0.40857,-2.796248 0.54572,-5.766786 -0.28125,-6.59375 -0.45958,-0.459581 -1.10688,-0.671854 -1.875,-0.6875 z m -198.54108,71.50368 c -0.82052,-0.72677 -3.40625,-2.9375 -3.90625,-1.9375 -0.65238,1.30476 2.52029,1.3122 3.90625,1.9375 z"
       id="path13345"
       inkscape:connector-curvature="0"
       sodipodi:nodetypes="cssccsssssssssccccsssssccsscccc" />
    <path
       style="fill:#ac9393;stroke:#ffffff;stroke-width:1px;stroke-linecap:butt;stroke-linejoin:miter;stroke-opacity:0"
       d="m 237.16603,270.625 c -4.50471,-0.0148 -11.84902,1.75 -12.78125,1.75 1.29901,24.92482 -0.87389,56.94464 -1,74 2.36898,2.36899 27.22274,1.22274 38,2 5.05558,0.36461 21.82891,-0.17109 36,0 6.04582,0.073 18.84365,0 28.61522,0 29.37289,0 41.75265,-1 71,-1 10.506,-2.35767 30.25371,-3.14965 52.25,-1.90625 0.1387,-2.33285 -2.25,-10.10183 -2.25,-12.09375 0,-11.93424 -0.95954,-23.08359 -1,-35.21875 l 0.71875,0.1875 C 447.01173,290.92456 448,280.12683 448,278.375 c 0,-1.12114 -0.14398,-2.49754 -0.34375,-3.9375 C 432.87248,274.32626 419.07482,274.375 415,274.375 c -2.23123,0 -12.58009,-1.4199 -14,0 -0.21923,0.21923 -0.40925,0.43326 -0.59375,0.65625 C 386.942,274.91406 373.36438,275.375 363,275.375 c -20.78295,0 -27.57884,-5.00909 -47.61522,0 -8.8052,2.2013 -71.21074,-0.21074 -75,-4 -0.52629,-0.52629 -1.71718,-0.74507 -3.21875,-0.75 z"
       id="path13197"
       inkscape:connector-curvature="0"
       sodipodi:nodetypes="sccsssccsccscsscssss" />
    <path
       style="fill:#c8b7b7;stroke:#ffffff;stroke-width:1px;stroke-linecap:butt;stroke-linejoin:miter;stroke-opacity:0"
       d="m 280.38478,143.375 c -5.05049,5.05049 -8.6655,9.781 -9.90625,13.8125 -8.38188,7.87792 -17.69018,14.78393 -24.09375,21.1875 -1.25593,1.25593 -2.86269,5.72538 -4,8 -1.75759,3.51518 -9.06413,16.06413 -11,18 -4.12488,4.12488 -6.17889,20.35779 -9,26 -3.42843,6.85687 1.25194,18.46107 0.1875,26.0625 0.42017,2.79047 0.82312,5.54937 1.125,8.21875 -0.50816,0.17879 -0.96945,0.3757 -1.3125,0.71875 -1.9734,1.9734 1.52547,7.16842 1.96875,8.71875 0.003,0.0113 -0.003,0.0203 0,0.0312 0.008,0.41377 0.0306,0.84076 0.0312,1.25 l 0,7 c 0,1.1183 -1.16004,2.83996 -1,3 1.11515,1.11516 9.24773,0 11,0 1.6418,0 6.00977,1.00977 7,2 1.11515,1.11516 9.24773,0 11,0 5.74204,0 49.74613,5.25388 53,2 0.11546,-0.11546 0.22297,-0.32008 0.34375,-0.53125 22.23622,0.0967 31.51341,-0.46875 38.27147,-0.46875 15.81827,0 35.52203,3.0956 51,0 13.1782,-2.63564 27.20893,-2 41,-2 3.08011,0 5.24451,-1 8,-1 1,0 3,1 3,0 0,-0.37747 -0.16375,-1.02756 -0.40625,-1.78125 2.90761,-4.9116 -0.74288,-19.06961 1.40625,-21.21875 1.906,-1.90599 4.00951,-34.69322 7,-55.125 -1.1e-4,-0.0105 9e-5,-0.0208 0,-0.0312 -0.0826,-9.13474 5.77833,-17.62208 15,-26.84375 2.71229,-2.71228 7.61999,-4.61999 10,-7 3,-3 4,-8 7,-11 1.39349,-1.39349 0.76392,-9.73698 1.65625,-18.03125 -4.72621,-0.15587 -8.8984,-0.0977 -10.15625,0.53125 -4.72184,2.36092 -37.78644,1 -45.5,1 -34.5474,0 -49.17178,-0.5 -82.11522,-0.5 -3.82196,0 -32.9708,1.0292 -34,0 -0.006,-0.006 0.003,-0.0232 0,-0.0312 -0.11042,0.002 -0.41869,0.0312 -0.5,0.0312 -8.05867,0 -35.79027,-2.20973 -36,-2 z"
       id="path13199"
       inkscape:connector-curvature="0"
       sodipodi:nodetypes="scssssccscccsssssscssssscsccssscsssscss" />
    <path
       style="fill:#c8b7b7;fill-opacity:1;stroke:#ffffff;stroke-width:1px;stroke-linecap:butt;stroke-linejoin:miter;stroke-opacity:0"
       d="m 333.34375,89.25 c -11.5289,0.972046 -7.0581,-0.99632 -14.66608,-0.99632 -9.44917,0 -43.96085,-1.078296 -48,7 -2.24467,4.489331 17.38629,4.613707 19,3 0.72413,0.144825 10.58312,0.0138 16.84375,-0.03125 -0.0467,-0.449675 -0.0227,-0.789824 0.15625,-0.96875 2.67303,-2.673028 13.20989,1 18,1 4.60977,0 34.68079,0.90499 36.17157,-0.585786 1.48122,-1.481221 18.34093,0.292892 20.3934,0.292892 7.03025,0 19.313,1.874014 24.75736,1.414214 0.0103,0.0052 0.0216,0.02182 0.0312,0.03125 C 420.62523,99.360971 434.03937,99.375 437,99.375 c 3.49106,0 35.61564,0.384357 36,0 0.61818,-0.618185 21.26393,-3 24,-3 12.61578,0 28.64392,1.356084 36,-6 -14.82313,0.383368 -32.10824,-1 -40,-1 l -152,0 c -2.52025,0 -5.07344,-0.05062 -7.65625,-0.125 z M 533,90.375 c 0.0656,-0.06562 1.53495,0.160739 2.125,-0.09375 -0.70707,0.02736 -1.40488,0.07513 -2.125,0.09375 z"
       id="path13363"
       inkscape:connector-curvature="0"
       sodipodi:nodetypes="csscccsssccssscsscccc" />
    <path
       style="fill:#916f6f;fill-opacity:1;stroke:#ffffff;stroke-width:1.06113231px;stroke-linecap:butt;stroke-linejoin:miter;stroke-opacity:0"
       d="m 377.64318,106.50639 c 9.05693,-1.74889 24.82902,0.58684 32.62442,0.88713 9.76097,0.37602 45.6367,-0.91188 56.44048,-0.91527 3.6196,-0.001 10.33164,-0.69041 11.29289,-0.004 0.58377,0.41715 -1.24469,17.12654 -1.24359,18.87878 10e-4,2.25987 -0.0382,13.46092 -1.24556,14.32513 -3.26206,2.33502 -62.65407,0.46798 -69.07003,0.47001 -5.03928,0.001 -37.37537,0.61017 -37.5843,0.46089 -2.43396,-1.73918 -1.26942,-23.82894 -1.2713,-26.92106 -5.3e-4,-0.99676 -0.89074,-5.64686 -0.003,-6.28168 1.69078,-1.21026 9.19279,-1.02426 10.06087,-0.90037 z"
       id="path13537"
       inkscape:connector-curvature="0"
       sodipodi:nodetypes="csscsssscsc" />
    <path
       style="fill:#c8b7b7;fill-opacity:1;stroke:#ffffff;stroke-width:1px;stroke-linecap:butt;stroke-linejoin:miter;stroke-opacity:0"
       d="m 487.26259,204.8843 c -0.69025,2.31811 -2.15224,0.76895 -4.94975,6.36396 -3.67449,7.34899 -4.45799,13.71143 -0.7071,21.2132 0.6716,1.34321 0.61751,2.78363 2.12132,3.53554 0.53322,0.26661 1.55331,2.12132 2.12132,2.12132 0.93472,0 2.4191,-3.83332 3.53553,-4.94975 1.08268,-1.08268 3.72345,-1.60213 4.94975,-2.82843 2.66622,-2.66622 9.71166,2.21524 12.72792,0.70711 2.68277,-1.34139 9.19239,-1.91324 9.19239,-4.94975 0,-1.63283 2.29118,-9.02252 0.7071,-10.6066 -5.89564,-5.89565 -19.34917,-3.79282 -19.79899,-4.24264 -1.95332,-1.95332 -6.66339,-3.77508 -9.89949,-6.36396 z"
       id="path13568"
       inkscape:connector-curvature="0" />
    <path
       style="fill:#ac9393;fill-opacity:1;stroke:#ffffff;stroke-width:1px;stroke-linecap:butt;stroke-linejoin:miter;stroke-opacity:0"
       d="m 495.04076,208.41983 c -5.26554,10.3989 3.69179,-9.50489 -3.53553,4.94975 -2.48367,4.96732 -3.25606,12.30029 0.7071,16.26345 0.0707,0.0707 0.54212,1.57921 1.41422,0.70711 0.94281,-0.94281 2.59272,-1.17851 3.53553,-2.12132 0.94281,-0.94281 -0.53266,-3.36109 -0.70711,-3.53554 -0.58269,-0.58269 -1.60492,-9.70878 -0.7071,-10.6066 0.60092,-0.60092 1.72983,-1.33226 1.41421,-2.12132 -0.51043,-1.27607 -1.41421,-2.35702 -2.12132,-3.53553 z"
       id="path13570"
       inkscape:connector-curvature="0" />
    <path
       style="fill:#ac9393;fill-opacity:1;stroke:#ffffff;stroke-width:1px;stroke-linecap:butt;stroke-linejoin:miter;stroke-opacity:0"
       d="m 507.06158,212.66247 c -0.94281,0.94281 -1.88562,3.77124 -2.82843,2.82843 -0.94281,-0.94281 2.82843,-4.16176 2.82843,-2.82843 0,5.75597 -2.43193,2.03543 -3.53553,4.24264 -1.60728,3.21455 0,7.79159 0,10.6066 0,0.71495 2.95014,6.24225 4.94974,4.24265 0.63785,-0.63785 -1.78827,-4.6167 -2.12132,-4.94975 -2.28684,-2.28685 0.70711,-10.87063 0.70711,-14.14214 z"
       id="path13585"
       inkscape:connector-curvature="0" />
    <path
       style="fill:#ac9393;fill-opacity:1;stroke:#ffffff;stroke-width:1px;stroke-linecap:butt;stroke-linejoin:miter;stroke-opacity:0"
       d="m 514.13265,216.90511 c -0.47141,0.94281 -0.47141,3.29983 -1.41422,2.82843 -0.94281,-0.4714 2.15957,-3.57378 1.41422,-2.82843 -2.31597,2.31597 -2.12132,3.24361 -2.12132,5.65686 0,0.55367 -0.35283,3.1827 0,3.53553 0.74267,0.74268 21.51857,-4.34307 2.12132,-9.19239 z"
       id="path13587"
       inkscape:connector-curvature="0" />
    <path
       style="fill:#c8b7b7;fill-opacity:1;stroke:#ffffff;stroke-width:1px;stroke-linecap:butt;stroke-linejoin:miter;stroke-opacity:0"
       d="m 512.71843,284.90868 c 1.04438,-0.23721 -0.0743,8.41094 2.12132,10.60661 10.50987,10.50987 19.20339,-16.15196 14.14214,-21.21321 -1.70352,-1.70351 -2.96278,-3.66988 -4.94975,-5.65685 -3.48973,-3.48973 -12.99738,7.84509 -11.31371,16.26345 z"
       id="path13619"
       inkscape:connector-curvature="0" />
    <path
       style="fill:#916f6f;fill-opacity:1;stroke:#ffffff;stroke-width:1px;stroke-linecap:butt;stroke-linejoin:miter;stroke-opacity:0"
       d="m 526.86057,272.05944 c -2.45193,0.87372 -2.82843,9.04889 -2.82843,18.38478 0,2.88063 2.84804,6.36396 2.12132,6.36396 -0.13479,0 2.54325,-2.54325 4.24264,-4.24264 2.94628,-2.94628 6.95322,-4.8319 9.8995,-7.77818 0.067,-0.067 4.90553,4.22054 6.36396,4.94975 3.12107,1.56053 19.49297,5.80987 24.04163,3.53554 7.68443,-3.84222 13.43503,-4.55308 13.43503,-14.84925 0,-3.25466 -0.93514,-6.59199 -2.82843,-8.48528 -2.26254,-2.26254 -24.28621,-4.70516 -26.87006,-2.12132 -4.02044,4.02045 -11.39612,5.03217 -15.55635,9.19239 -0.0108,0.0108 -10.04597,-4.15981 -12.02081,-4.94975 z"
       id="path13634"
       inkscape:connector-curvature="0" />
    <path
       style="fill:#c8b7b7;fill-opacity:1;stroke:#ffffff;stroke-width:1px;stroke-linecap:butt;stroke-linejoin:miter;stroke-opacity:0"
       d="m 538.25,276.86218 c -0.16667,0.33334 -0.16667,1.16667 -0.5,1 -0.33333,-0.16666 0.5,-1.37268 0.5,-1 0,0.53186 -0.74291,1.73583 -1,2.25 -0.95073,1.90146 0.65138,9.59862 2.75,7.5 0.52757,-0.52757 1.56312,0.43688 2,0 0.094,-0.094 -2.11363,-2.97726 -2.5,-3.75 -0.49352,-0.98705 1.27341,-6.52341 1.75,-7 0.13474,-0.13474 0.75,-0.33555 0.75,-0.75 0,-0.37892 -3.4397,1.56382 -3.75,1.75 z"
       id="path13677"
       inkscape:connector-curvature="0" />
    <path
       style="fill:#ac9393;fill-opacity:1;stroke:#ffffff;stroke-width:1px;stroke-linecap:butt;stroke-linejoin:miter;stroke-opacity:0"
       d="m 514.75,278.375 c -0.10053,0 -0.14858,0.10893 -0.1875,0.28125 0.26055,-0.16568 0.42095,-0.28125 0.1875,-0.28125 z m -0.1875,0.28125 c -0.33499,0.21302 -0.85026,0.50651 -1.0625,0.71875 -1.23817,1.23817 -1.43208,2.61417 -2.25,4.25 -0.6034,1.20681 0.63375,5.11626 -0.25,6 -0.75125,0.75126 -1.10153,1.60153 -1.75,2.25 -0.46331,0.46331 -1.63204,0.38204 -2,0.75 -1.42656,1.42656 -4.42958,-2.82042 -5.75,-1.5 -0.70185,0.70185 -0.94146,2.69146 -1,2.75 -1.5079,1.50791 -4.93804,-0.43804 -5.75,-1.25 -0.34727,-0.34727 -1.65095,-2.53112 -2.625,-3.125 0.54648,1.1549 1.33663,2.18038 2.21875,3.0625 2.85125,2.85125 3.43636,2.0301 5.65625,4.25 0.86898,0.86898 9.05553,-1.66328 14.4375,-3.65625 -1.43707,-2.29317 -0.6875,-5.97885 -0.6875,-9.28125 0,-1.5135 0.75,-2.3046 0.75,-3.75 0,-0.2982 -0.0312,-1.05398 0.0625,-1.46875 z"
       id="path13729"
       inkscape:connector-curvature="0" />
    <path
       style="fill:#c8b7b7;fill-opacity:1;stroke:#ffffff;stroke-width:0.22102694px;stroke-linecap:butt;stroke-linejoin:miter;stroke-opacity:0"
       d="m 380.93328,108.45025 c -0.35923,0.007 -0.82018,0.0622 -0.96009,0.0622 -0.30903,0 -1.37496,-0.0341 -1.561,0.15196 -0.13221,0.13221 0.24588,3.2249 0.55257,5.00074 -0.49034,-0.0408 -0.96844,-0.0633 -1.42977,-0.0622 -0.23804,5.8e-4 -0.47228,0.009 -0.69761,0.0207 -0.007,-0.0865 -0.0138,-0.17654 -0.0138,-0.26938 0,-0.60042 -0.39684,-2.80863 -0.2003,-3.12201 0.11414,-0.18202 0.33861,-1.33099 0.0414,-1.56791 -0.19078,-0.1521 -0.95585,0.0553 -1.21565,0.15886 -0.50113,0.19978 -1.245,0.0534 -1.56791,0.31084 -0.0237,0.0188 -0.0276,2.51163 -0.0207,5.00763 -0.81026,0.005 -2.00281,-0.0141 -2.47965,0.46278 -0.0708,0.0708 0.14055,1.22735 0.31082,1.5679 0.3374,0.67481 -0.33136,2.01015 0.15886,2.50037 0.0182,0.0182 0.71114,-0.1967 0.93937,-0.31082 0.31872,-0.15936 0.8599,0.0725 1.09131,-0.15886 1e-4,0.0332 0,0.29408 0,0.31082 0,0.034 0.0258,0.0154 0.0622,-0.0207 0.0297,0.5391 0.0986,1.05475 0.24865,1.42978 0.36865,3.9664 -0.15196,7.88434 -0.15196,11.87328 0,0.1364 -0.0217,0.30828 -0.0483,0.49041 -0.22517,-0.0355 -0.42169,-0.0934 -0.5802,-0.17268 -0.41587,-0.20793 -1.3129,-0.46968 -1.71986,-0.46968 -0.30627,0 -0.7805,3.62522 -0.7805,3.43973 0,-0.12496 2.22446,-0.31773 2.50036,-0.31773 0.31293,0 0.6528,0.006 1.01534,0.0138 -0.0602,1.79252 -0.54755,4.04566 -0.0759,4.51723 0.20512,0.20513 1.18831,-0.2039 1.40213,-0.31081 0.37834,-0.18916 1.1196,-0.15196 1.56791,-0.15196 0.17479,0 0.43776,0.17698 0.46277,0.15196 0.18784,-0.18783 -0.15195,-0.51486 -0.15195,-0.7805 0,-0.63303 -0.12171,-2.11819 -0.31772,-3.39138 0.74502,-0.0117 1.49551,-0.0526 2.21026,-0.13815 -0.10669,1.72729 -0.20642,3.97238 -0.0207,4.15807 0.078,0.078 0.66502,0 0.7874,0 0.38531,0 0.59682,0.0249 0.78051,-0.15886 0.20838,-0.20839 1.04179,0.20839 1.25019,0 0.0616,-0.0617 -0.1776,-2.83393 -0.33156,-4.60703 0.0579,-0.0261 0.11696,-0.0551 0.17269,-0.0829 1.4855,-0.74275 2.1505,-1.68082 3.28086,-2.81119 0.37588,-0.37589 0.65465,-1.10148 0.77359,-1.87182 4.9e-4,-0.005 0.007,-0.009 0.007,-0.0138 0.39115,-1.29061 0.49605,-3.08872 -0.31082,-3.8956 -0.80114,-0.80114 -1.90414,-1.5356 -1.87182,-1.5679 0.29521,-0.29522 1.17487,-0.26971 1.56099,-0.46278 1.89352,-0.94676 1.61127,-4.90712 0.78051,-6.56864 -0.69923,-1.39847 -2.93631,-2.35957 -5.34609,-2.83882 0.13046,-1.66775 0.1865,-3.87123 0.1865,-4.50341 0,-0.3169 0.38293,-0.7153 0.15886,-0.93937 -0.0534,-0.0534 -0.23343,-0.0663 -0.44896,-0.0622 z m -1.27091,9.442 c 2.41742,0 5.06233,1.65827 2.97006,3.75054 -0.17952,0.17951 -5.24054,1.31431 -5.62238,0.93246 -0.27999,-0.27998 -0.42289,-3.88559 -0.31772,-4.53105 0.99966,0 1.91987,-0.15195 2.97004,-0.15195 z m 0.45587,7.7014 c 0.0671,-0.003 0.13531,-0.003 0.2003,0 0.24001,0.01 0.46516,0.0685 0.66309,0.18649 2.63182,1.56889 2.20685,3.49523 0.0759,5.33228 -0.33881,0.29209 -3.49533,1.0268 -3.95776,0.4904 -0.0562,-0.0652 0.0413,-0.52652 0.0483,-0.62163 0.0753,-1.0159 -0.16594,-2.02109 -0.0829,-3.14273 l 0.11742,-1.561 c 0.71391,0.0528 1.92922,-0.63283 2.93552,-0.68381 z"
       id="path13734"
       inkscape:connector-curvature="0" />
    <path
       style="fill:#755959;fill-opacity:1;stroke:#ffffff;stroke-width:1px;stroke-linecap:butt;stroke-linejoin:miter;stroke-opacity:0"
       d="m 396.08579,110.71573 c -2.13134,2.51628 -4.03205,5.09617 -5,8 -0.55855,1.67566 -0.17612,14.49546 3.18198,17.5 3.00127,2.68528 7.69854,-0.0597 11.81802,2 0.26119,0.1306 3.5,-0.0982 3.5,0 0,1.7018 -5,-3.2299 -5,-5.5 0,-4.87866 -1.24709,-10.50582 1,-15 1.02384,-2.04768 1.86272,-4.86272 3,-6 0.22888,-0.22887 1.5,-2.66101 1.5,-2.5 0,0.27217 -2.89247,0 -4,0 -3.70621,0 -6.75907,-0.44456 -10,1.5 z"
       id="path13769"
       inkscape:connector-curvature="0"
       sodipodi:nodetypes="csscssscssc" />
    <path
       style="fill:#755959;fill-opacity:1;stroke:#ffffff;stroke-width:1px;stroke-linecap:butt;stroke-linejoin:miter;stroke-opacity:0"
       d="m 428.31802,110.86218 c -2.41709,-1.47226 -5.25546,-1 -8,-1 -1.11561,0 -6.29005,-0.70995 -7,0 -4.46525,4.46525 -4.96943,23.53058 -0.5,28 0.50912,0.50912 18.5,0.45933 18.5,1 0,3.27409 -4.16135,-5.16135 -5.5,-6.5 -0.5,-0.5 0,-2 -0.5,-2.5 -3.37907,-3.37907 2.36364,-15.81818 3,-19 z"
       id="path13771"
       inkscape:connector-curvature="0" />
    <path
       style="fill:#755959;fill-opacity:1;stroke:#ffffff;stroke-width:1px;stroke-linecap:butt;stroke-linejoin:miter;stroke-opacity:0"
       d="m 452.96447,109.71573 c -3.19828,-0.50227 -14.99205,-1.24018 -16.52513,0.29289 -1.14357,1.14358 -3.82695,4.7027 -4.32842,6.20711 -2.40119,7.20358 -1.19368,16.95278 3.35355,21.5 1.08532,1.08532 17,-1.10181 17,0.5 0,0.035 -3.22572,-2.72572 -3.5,-3 -1.1845,-1.1845 -3.5,-5.28011 -3.5,-7.5 0,-7.41492 2.30791,-13.84633 7.5,-18 z"
       id="path13773"
       inkscape:connector-curvature="0"
       sodipodi:nodetypes="cssssssc" />
    <path
       style="fill:#755959;fill-opacity:1;stroke:#ffffff;stroke-width:1.19975615px;stroke-linecap:butt;stroke-linejoin:miter;stroke-opacity:0"
       d="m 473.74608,109.36218 c -3.88893,-0.12524 -12.29356,-1.24873 -14.8107,0.5 -2.91848,2.02754 -7.43942,13.65493 -3.99604,18.43934 1.78246,2.47667 3.33309,6.60009 5.43545,8.06066 0.74422,0.51703 7.95851,0.81924 10.89642,0.14645 4.01268,-0.91893 1.07205,-3.9407 1.02286,-3.97488 -1.86973,-1.29895 -0.42347,-1.69867 -1.84337,-3.67157 -2.89772,-4.02623 -1.83864,-12.8855 3.29538,-19.5 z"
       id="path13775"
       inkscape:connector-curvature="0"
       sodipodi:nodetypes="csssscsc" />
    <path
       style="fill:#e3dbdb;fill-opacity:1;stroke:#ffffff;stroke-width:1px;stroke-linecap:butt;stroke-linejoin:miter;stroke-opacity:0"
       d="m 450.12132,150.24086 c -13.27352,-0.70768 11.42329,-1 -7,-1 -10.73409,0 -26.78709,5.21292 -17,15 0.29527,0.29527 4.33,0.665 5,1 12.01762,6.00881 43.58789,-10.08242 19,-15 z"
       id="path14285"
       inkscape:connector-curvature="0" />
    <path
       style="fill:#dacfcf;fill-opacity:1;stroke:#ffffff;stroke-width:1px;stroke-linecap:butt;stroke-linejoin:miter;stroke-opacity:0"
       d="m 423.63604,178.65508 c -3.65335,-1.86313 -10.13016,0.44461 -14.30313,2.84048 -5.15046,1.24198 -11.64493,7.66612 -5.22884,11.8361 5.06777,3.75775 12.45062,5.76418 18.14152,2.15501 4.91349,-2.44819 11.84719,-3.64201 14.01877,-9.28268 -1.07575,-5.83095 -7.02705,-8.65377 -12.62832,-7.54891 z"
       id="path14300"
       inkscape:connector-curvature="0" />
    <path
       style="fill:#d0c3c3;fill-opacity:1;stroke:#000000;stroke-width:1px;stroke-linecap:butt;stroke-linejoin:miter;stroke-opacity:0"
       d="m 412.35469,214.10488 c -1.43404,1.47084 -7.46229,-0.79446 -9.80665,2.19761 -2.17662,2.77798 -6.86613,5.32363 -9.08372,8.1539 -3.58414,4.57437 0.86357,11.98325 7.40217,11.18964 23.2213,-2.81847 32.87442,-28.58511 11.4882,-21.54115 z"
       id="path14302"
       inkscape:connector-curvature="0" />
    <path
       style="fill:#bdaaaa;fill-opacity:1;stroke:#ffffff;stroke-width:1px;stroke-linecap:butt;stroke-linejoin:miter;stroke-opacity:0"
       d="m 405.63604,249.36218 c -14.73159,8.07791 13.45451,-9.72725 -6,0 -11.73924,5.86962 -9.197,32.5985 6,25 16.19078,-8.09539 21.41155,-20.71769 0,-25 z"
       id="path14317"
       inkscape:connector-curvature="0" />
    <path
       style="fill:#e3dbdb;fill-opacity:1;stroke:#ffffff;stroke-width:1px;stroke-linecap:butt;stroke-linejoin:miter;stroke-opacity:0"
       d="m 403.82843,153.36218 c -1.33333,-0.66666 -4.66667,-0.66666 -4,-2 0.66667,-1.33333 5.49071,2 4,2 -2.00877,0 -4.54575,-2 -7,-2 -7.8489,0 -18,2.00641 -18,10 0,0.41177 -0.26471,2.7353 0,3 6.936,6.93601 25.72351,4.2765 32,-2 3.46015,-3.46014 1.57691,-12.43076 -7,-9 z"
       id="path14319"
       inkscape:connector-curvature="0" />
    <path
       style="fill:#dacfcf;fill-opacity:1;stroke:#ffffff;stroke-width:1px;stroke-linecap:butt;stroke-linejoin:miter;stroke-opacity:0"
       d="m 376.92893,177.36218 c -3.1745,0.25076 -5.80472,-3.68281 -1.19098,-1.5 3.7459,3.28406 -5.71767,-0.0525 -7.6619,0.50251 -7.28972,0.0135 -12.85904,8.35242 -9.62348,15.05115 2.2075,6.44906 10.02502,10.64719 16.37102,7.30507 5.28445,-2.1224 11.97066,-3.70065 14.75981,-9.18828 0.91398,-5.9856 -6.606,-13.25434 -12.65447,-12.17045 z"
       id="path14321"
       inkscape:connector-curvature="0" />
    <path
       style="fill:#d0c3c3;fill-opacity:1;stroke:#000000;stroke-width:1px;stroke-linecap:butt;stroke-linejoin:miter;stroke-opacity:0"
       d="m 357.27208,215.77639 c -2.81262,0.006 -2.54527,-0.72736 -10,3 -1.79343,0.89672 -1.78126,2.78126 -3,4 -9.42066,9.42066 6.44285,20.77858 16,16 14.88181,-7.4409 10.99199,-17.008 3,-25 -1.49071,-1.49071 -4.0426,1.21704 -6,2 z"
       id="path14323"
       inkscape:connector-curvature="0" />
    <path
       style="fill:#bdaaaa;fill-opacity:1;stroke:#ffffff;stroke-width:1px;stroke-linecap:butt;stroke-linejoin:miter;stroke-opacity:0"
       d="m 354.68629,249.82665 c -1.33333,0 -4,1.33334 -4,0 0,-1.33333 5.33333,0 4,0 -1.66667,0 -3.33333,0 -5,0 0,0.33334 0.2357,0.7643 0,1 -1.66279,1.66279 -3.78356,2.56713 -5,5 -13.14116,26.28232 25,20.71349 25,4 0,-0.61024 0.38964,-3.61036 0,-4 -4.12085,-4.12085 -7.97998,-3.19199 -15,-6 z"
       id="path14325"
       inkscape:connector-curvature="0" />
    <path
       style="fill:#e3dbdb;fill-opacity:1;stroke:#ffffff;stroke-width:1px;stroke-linecap:butt;stroke-linejoin:miter;stroke-opacity:0"
       d="m 350.65686,151.36218 c -0.35134,0.81168 -2.96401,-2.51799 -8,0 -22.92895,11.46448 9.18923,20.81077 13,17 1.62176,-1.62175 17.28846,-6.71154 11,-13 -6.06803,-6.06802 -8.17553,-4 -16,-4 z"
       id="path14340"
       inkscape:connector-curvature="0" />
    <path
       style="fill:#e3dbdb;fill-opacity:1;stroke:#ffffff;stroke-width:1px;stroke-linecap:butt;stroke-linejoin:miter;stroke-opacity:0"
       d="M 307.0625 148.0625 C 302.74141 148.24887 297.05533 150.55175 293.875 153.0625 C 293.85794 153.07597 293.82941 153.08027 293.8125 153.09375 C 288.27117 155.93585 287.75491 161.72121 297.0625 166.375 C 298.64461 167.16606 310.15018 165.143 317.3125 163.6875 C 317.37544 163.63259 317.44107 163.59018 317.5 163.53125 C 318.70181 162.32944 319.82944 159.79556 321.03125 158.59375 C 322.53804 157.08696 321.58071 154.56279 320.28125 152.28125 C 319.8321 152.18603 319.34779 152.10751 318.875 152.03125 C 318.65506 151.48656 318.41297 151.03797 318.1875 150.8125 C 317.27993 149.90493 315.33604 150.0548 314.65625 149.375 C 314.18484 148.9036 312.31516 149.84641 311.84375 149.375 C 310.81377 148.34502 309.08982 147.97506 307.0625 148.0625 z "
       id="path14342" />
    <path
       style="fill:#dacfcf;fill-opacity:1;stroke:#ffffff;stroke-width:1px;stroke-linecap:butt;stroke-linejoin:miter;stroke-opacity:0"
       d="m 328.41421,175.06929 c -7.66996,-2.36842 -12.03372,6.65693 -13.77286,12.60494 -0.10868,7.08263 7.09487,11.70687 13.19127,13.46479 6.02201,1.15042 11.88694,-3.86627 14.92727,-8.69558 2.84337,-6.46384 -3.17763,-12.07301 -7.13893,-16.3974 -1.62421,-2.50906 -4.85263,-1.3123 -7.20675,-0.97675 z"
       id="path14357"
       inkscape:connector-curvature="0" />
    <path
       style="fill:#d0c3c3;fill-opacity:1;stroke:#000000;stroke-width:1px;stroke-linecap:butt;stroke-linejoin:miter;stroke-opacity:0"
       d="m 311,211.36218 c -0.32638,-0.57655 -7.98836,-2.02328 -12,6 -1.05207,2.10414 -0.58881,4.23356 0,6 1.16767,3.50301 0.18787,7.18787 3,10 3.43234,3.43234 18.38102,4.61898 22,1 10.78759,-10.78759 3.22894,-26.24579 -13,-23 z"
       id="path14372"
       inkscape:connector-curvature="0" />
    <path
       style="fill:#bdaaaa;fill-opacity:1;stroke:#ffffff;stroke-width:1px;stroke-linecap:butt;stroke-linejoin:miter;stroke-opacity:0"
       d="m 307,246.36218 c -19.3849,3.53727 -18.88874,25 3,25 0.93513,0 3.01063,1.98937 4,1 1.68661,-1.68661 6.42974,-3.42974 8,-5 1.26836,-1.26836 1,-4.11418 1,-6 0,-10.78603 -6.88295,-11.35318 -16,-15 z"
       id="path14387"
       inkscape:connector-curvature="0" />
    <path
       style="fill:#bdaaaa;fill-opacity:1;stroke:#ffffff;stroke-width:1px;stroke-linecap:butt;stroke-linejoin:miter;stroke-opacity:0"
       d="m 262,246.36218 c -2.95305,1.06564 -1.80863,-1.59568 -9,2 -1.6304,0.8152 -2.14834,3.14835 -3,4 -13.75348,13.75348 6.89746,25.55127 18,20 12.16788,-6.08394 9.85025,-26 -6,-26 z"
       id="path14389"
       inkscape:connector-curvature="0" />
    <path
       style="fill:#d0c3c3;fill-opacity:1;stroke:#000000;stroke-width:1px;stroke-linecap:butt;stroke-linejoin:miter;stroke-opacity:0"
       d="m 263,208.36218 c -3.10886,-1.12267 -5.46243,-0.53756 -12,6 -4.97305,4.97306 4.63849,19.6385 7,22 1.50948,1.50949 6.68385,1 9,1 0.61024,0 3.61036,0.38964 4,0 2.43874,-2.43873 5.10453,-6.10453 7,-8 1.61519,-1.61519 -0.49661,-29.70203 -15,-21 z"
       id="path14391"
       inkscape:connector-curvature="0" />
    <path
       style="fill:#dacfcf;fill-opacity:1;stroke:#ffffff;stroke-width:1px;stroke-linecap:butt;stroke-linejoin:miter;stroke-opacity:0"
       d="m 281.24264,173.77639 c -6.10078,0.62194 -12.6759,4.10831 -14.10347,10.59675 -1.25648,9.11817 8.34827,18.05967 17.32809,16.54582 5.56027,-1.98318 8.39474,-8.00449 10.56299,-13.10499 1.92896,-4.58549 1.2367,-12.29465 -4.78761,-13.03758 -2.28779,-3.65118 -5.75715,-2.56087 -9,-1 z"
       id="path14393"
       inkscape:connector-curvature="0" />
    <path
       style="fill:#916f6f;fill-opacity:1;stroke:#ffffff;stroke-width:1px;stroke-linecap:butt;stroke-linejoin:miter;stroke-opacity:0"
       d="M 437.65625 291.875 C 429.32295 292.07222 413.6189 294.6875 410.1875 294.6875 C 406.25944 294.6875 392.33334 295.8177 388.96875 297.5 C 383.13002 300.41936 373.31552 295.41565 367.0625 297.5 C 365.53034 298.01071 361.16495 299.1606 359.28125 298.21875 C 354.48619 295.82122 317.72052 296.8125 309.78125 296.8125 C 305.43747 296.8125 285.4388 295.95377 282.90625 294.6875 C 279.8623 293.16552 269.21376 296.34125 267.34375 295.40625 C 261.08146 292.2751 243.00422 293.96875 235.53125 293.96875 C 236.18337 294.45077 231.73347 295.9337 227.6875 297.9375 C 225.53938 298.16295 221.68664 300.3446 220.625 301.40625 C 220.44822 301.58302 219.73927 301.22947 219.5625 301.40625 C 217.66562 303.30312 212.1656 304.2094 210 306.375 C 208.2503 308.1247 205.68315 308.91059 204 310.59375 C 200.6022 313.99154 195.65816 317.87309 191.96875 321.5625 C 190.4552 323.07605 201.05813 322.625 201.875 322.625 C 202.59906 322.625 205.139 322.2626 207.28125 322.03125 C 208.37298 322.09571 209.44611 322.1146 210.46875 321.96875 C 210.82364 322.15079 211.7621 322.64415 212.125 322.28125 C 212.39225 322.014 212.60569 321.70916 212.75 321.40625 C 217.66917 319.87837 223.65489 319.4375 229.15625 319.4375 C 237.84912 319.4375 269.94402 318.25326 275.125 320.84375 C 277.63285 322.09768 290.34509 318.92254 295.625 321.5625 C 300.89709 324.19854 320.18969 319.37572 326.75 321.5625 C 334.31843 324.08531 357.15888 321.92319 360.6875 323.6875 C 365.28889 325.98819 388.53725 325.09375 392.5 325.09375 C 393.07097 325.09375 396.42821 322.60303 397.46875 321.5625 C 402.16969 316.86155 425.83493 307.23641 427.15625 304.59375 C 428.12567 302.65492 444.11128 293.95503 442.71875 292.5625 C 442.27621 292.11996 441.00663 291.91112 439.21875 291.875 C 438.73453 291.86522 438.2118 291.86185 437.65625 291.875 z "
       id="path14412" />
    <path
       style="fill:#ffe26a;fill-opacity:1;stroke:#ffffff;stroke-width:1px;stroke-linecap:butt;stroke-linejoin:miter;stroke-opacity:0"
       d="m 241.18944,308.00056 c -0.43874,0.12698 -5.1517,0.30293 -9.19239,6.36397 -15.10758,22.66136 6.31894,28.66033 24.04163,19.79898 3.02554,-1.51277 4.78777,-5.17092 5.65685,-7.77817 0.34737,-1.04211 1.78247,-1.81185 2.12132,-2.82843 2.49668,-7.49002 -1.13402,-16.47691 -7.77817,-19.79899 -5.52184,-2.76092 -10.63053,3.18796 -14.84924,4.24264 z"
       id="path14503"
       inkscape:connector-curvature="0" />
    <path
       style="fill:#ffe26a;fill-opacity:1;stroke:#ffffff;stroke-width:1px;stroke-linecap:butt;stroke-linejoin:miter;stroke-opacity:0"
       d="m 405.94531,308.34371 c -5.25654,-0.6408 -8.3689,2.78964 -12.72792,4.24264 -15.12159,5.04053 -15.5214,36.0508 7.77817,28.28427 2.33997,-0.77998 5.60413,0.37992 7.77818,-0.7071 3.79701,-1.89851 7.87775,-3.63511 10.6066,-6.36396 6.21135,-6.21136 4.08733,-19.9543 -0.70711,-24.74874 -1.70772,-1.70772 -10.40467,-0.70711 -12.72792,-0.70711 z"
       id="path14493"
       inkscape:connector-curvature="0" />
    <path
       style="fill:#ffe26a;fill-opacity:1;stroke:#ffffff;stroke-width:1px;stroke-linecap:butt;stroke-linejoin:miter;stroke-opacity:0"
       d="m 331.6991,303.17214 c -3.11504,-2.5724 -10.25699,2.59535 -19.09189,8.48528 -1.54007,1.02672 -3.63127,6.65119 -4.24264,8.48528 -0.61204,1.83615 -3.38615,4.5414 -2.12132,7.07107 4.55356,9.10711 19.79354,8.4871 28.28427,5.65685 1.25625,-0.41874 2.34985,-2.43319 3.53554,-2.82842 18.1371,-6.0457 11.17905,-33.88726 -6.36396,-26.87006 z"
       id="path14499"
       inkscape:connector-curvature="0" />
    <path
       style="fill:#f6ce55;fill-opacity:1;stroke:#ffffff;stroke-width:1px;stroke-linecap:butt;stroke-linejoin:miter;stroke-opacity:0"
       d="m 270.18081,308.829 c -1.35677,-1.2532 -5.59591,-0.73758 -12.72793,2.82842 -1.03627,0.51814 -1.30892,2.01604 -2.12132,2.82843 -8.76577,8.76577 5.80075,23.96968 15.55635,19.09188 6.20929,-3.10464 15.55635,-8.06374 15.55635,-16.26345 0,-0.43151 0.27552,-2.55291 0,-2.82843 -1.76665,-1.76665 -4.14325,-2.42518 -6.36396,-3.53553 -3.67667,-1.83834 -4.97602,-3.10602 -9.89949,-2.12132 z"
       id="path14505"
       inkscape:connector-curvature="0" />
    <path
       style="fill:#ac9393;fill-opacity:1;stroke:#ffffff;stroke-width:1px;stroke-linecap:butt;stroke-linejoin:miter;stroke-opacity:0"
       d="m 294.9375,296.15625 c -4.43948,2.91833 -18.47393,14.35406 -30.25,23.25 4.97262,0.23423 8.89771,0.6676 10.4375,1.4375 2.50785,1.25393 15.22009,-1.92121 20.5,0.71875 0.23957,0.11979 0.51758,0.22216 0.8125,0.3125 -0.0312,-6.30733 -0.8125,-14.4134 -0.8125,-17.28125 0,-0.65536 0.65846,-6.23286 0.75,-8.34375 -0.48749,-0.0298 -0.95317,-0.0618 -1.4375,-0.0937 z"
       id="path14442"
       inkscape:connector-curvature="0" />
    <path
       style="fill:#ffad43;fill-opacity:1;stroke:#ffffff;stroke-width:1px;stroke-linecap:butt;stroke-linejoin:miter;stroke-opacity:0"
       d="m 300.70772,307.31428 c -2.41099,-1.48536 -6.31559,0.91056 -13.43503,5.65685 -2.54114,1.6941 -4.01251,6.01877 -5.65685,8.48528 -12.80475,19.20713 11.12483,17.06501 22.62742,11.31371 14.08308,-7.04154 14.54612,-32.68851 -3.53554,-25.45584 z"
       id="path14497"
       inkscape:connector-curvature="0" />
    <path
       style="fill:#f6ce55;fill-opacity:1;stroke:#ffffff;stroke-width:1px;stroke-linecap:butt;stroke-linejoin:miter;stroke-opacity:0"
       d="m 313.9001,312.26403 c -8.76306,-0.51337 -23.48092,10.31379 -18.38477,20.50609 5.77525,11.5505 35.85929,3.94184 40.30508,-4.94974 0.54984,-1.09968 3.43537,-5.8572 2.82843,-7.07107 -2.84503,-5.69007 -4.84444,-5.95776 -9.8995,-8.48528 -0.70001,-0.35001 -3.19222,-2.46464 -4.24264,-1.41422 -2.04279,2.04279 -7.14262,2.10701 -10.6066,1.41422 z"
       id="path14501"
       inkscape:connector-curvature="0" />
    <path
       style="fill:#ac9393;fill-opacity:1;stroke:#ffffff;stroke-width:1px;stroke-linecap:butt;stroke-linejoin:miter;stroke-opacity:0"
       d="m 366.90625,298.875 c -1.13726,-0.0682 -6.85742,2.82617 -7.625,3.59375 -2.66566,2.66566 -6.22482,4.89366 -9.1875,6.375 -1.96742,0.98371 -3.13097,3.71231 -4.96875,4.9375 -4.16032,2.77355 -8.07609,5.76983 -11.96875,8.8125 9.84185,0.74828 24.7368,-0.30348 27.53125,1.09375 1.22512,0.61256 3.78384,0.98118 6.9375,1.21875 -0.009,-11.56814 -0.0337,-25.4399 -0.5625,-25.96875 -0.0324,-0.0324 -0.0804,-0.058 -0.15625,-0.0625 z"
       id="path14444"
       inkscape:connector-curvature="0" />
    <path
       style="fill:#ffad43;fill-opacity:1;stroke:#ffffff;stroke-width:1px;stroke-linecap:butt;stroke-linejoin:miter;stroke-opacity:0"
       d="m 379.43921,309.75793 c -8.46296,-1.80457 -18.15992,4.01779 -24.04163,9.89949 -1.31823,1.31823 -2.12132,5.0939 -2.12132,7.07107 0,0.89935 -0.57244,5.08441 0,5.65685 5.58899,5.58899 22.91191,9.05014 31.1127,4.94975 21.04397,-10.52198 12.88777,-31.14467 -4.94975,-27.57716 z"
       id="path14495"
       inkscape:connector-curvature="0" />
    <path
       style="fill:#f6ce55;fill-opacity:1;stroke:#ffffff;stroke-width:1px;stroke-linecap:butt;stroke-linejoin:miter;stroke-opacity:0"
       d="m 349.37677,333.79956 c 3.44254,-7.61985 24.84145,-26.77735 42.42641,-9.19239 1.1666,1.1666 6.28894,9.2674 3.53553,12.02081 -2.09022,2.09023 -3.82015,7.35569 -7.07107,10.60661 -0.46356,0.46356 -2.47416,0.35284 -2.82843,0.7071 -9.65473,9.65474 -26.49412,5.32568 -33.23401,-1.41421 -2.96632,-2.96631 -1.39622,-9.14739 -2.82843,-12.72792 z"
       id="path14491"
       inkscape:connector-curvature="0" />
    <path
       style="fill:#ffad43;fill-opacity:1;stroke:#ffffff;stroke-width:1px;stroke-linecap:butt;stroke-linejoin:miter;stroke-opacity:0"
       d="m 231.99704,314.48584 c -4.01656,-2.17919 -13.76785,1.70557 -15.55635,7.07107 -0.91764,2.75293 -4.03747,8.28011 -5.65685,9.8995 -0.18718,0.18717 0,1.83016 0,2.12132 0,5.94272 6.35676,6.36396 11.3137,6.36396 9.26291,0 24.74874,-6.51132 24.74874,-16.97056 0,-0.43151 0.27552,-2.55292 0,-2.82843 -2.02756,-2.02757 -4.68178,-4.68179 -6.36396,-6.36396 -0.26029,-0.26029 -7.7716,0.7071 -8.48528,0.7071 z"
       id="path14507"
       inkscape:connector-curvature="0" />
    <path
       style="fill:#c8b7b7;fill-opacity:1;stroke:#ffffff;stroke-width:1px;stroke-linecap:butt;stroke-linejoin:miter;stroke-opacity:0"
       d="M 440.59375 291.84375 C 440.56195 291.84375 440.48522 291.9022 440.40625 291.9375 C 440.52474 291.9475 440.67029 291.95685 440.78125 291.96875 C 440.71795 291.90175 440.66204 291.84375 440.59375 291.84375 z M 441.5 294.34375 C 437.91083 297.38864 427.91779 303.07069 427.15625 304.59375 C 425.83493 307.23641 402.16969 316.86155 397.46875 321.5625 C 396.42821 322.60303 393.07097 325.09375 392.5 325.09375 C 388.53725 325.09375 365.28889 325.98819 360.6875 323.6875 C 357.15888 321.92319 334.31843 324.08531 326.75 321.5625 C 320.18969 319.37572 300.89709 324.19854 295.625 321.5625 C 290.34509 318.92254 277.63285 322.09768 275.125 320.84375 C 269.94402 318.25326 237.84912 319.4375 229.15625 319.4375 C 225.09947 319.4375 220.77797 319.67353 216.8125 320.40625 C 210.55572 320.20727 198.17378 319.67705 194.15625 320.75 C 193.00169 320.78191 191.90183 320.90772 190.96875 321.21875 C 190.0783 325.22115 191.39858 333.6763 190.96875 340.65625 C 189.4281 343.73756 188.87777 367.50276 191 369.625 C 191.90625 370.53125 224.64332 368.36028 230.59375 370.34375 C 240.46713 373.63488 270.15505 368.90565 275.84375 371.75 C 279.40791 373.53208 308.58945 373.875 314.71875 373.875 C 332.56055 373.875 350.58031 374.59375 368.46875 374.59375 C 368.67695 374.59375 369.16468 374.61995 369.625 374.65625 C 371.81607 376.13517 375.97105 375.65625 378.3125 375.65625 C 380.27918 375.65625 388.02689 377.97311 389.625 376.375 C 392.7801 373.2199 398.35303 371.86572 402.34375 367.875 C 407.84784 362.37091 413.18445 357.75304 417.90625 353.03125 C 421.15172 349.78578 427.63836 348.1913 429.875 346 C 429.8854 345.9898 429.89615 345.97885 429.90625 345.96875 C 435.97223 343.06895 441.76326 340.20549 442.71875 339.25 C 443.99891 337.97017 442 303.71188 442 300.34375 C 442 299.38119 441.84488 296.48763 441.5 294.34375 z "
       id="path14414" />
    <path
       style="fill:#ac9393;stroke:#ffffff;stroke-width:1px;stroke-linecap:butt;stroke-linejoin:miter;stroke-opacity:0;fill-opacity:1"
       d="m 232.63813,286.56554 c -1.84728,0.28546 1.03759,-14.51876 -2.82843,-18.38478 -1.91486,-1.91487 -0.0213,-9.94203 -1.41421,-12.72792 -0.80368,-1.60736 0.70711,-13.71378 0.70711,-16.26346 0,-20.09462 11.27516,-45.92339 23.33452,-57.98275 5.14175,-5.14175 11.50401,-10.0898 16.26346,-14.84924 3.39532,-3.39533 19.09188,-25.09166 19.09188,-28.99138 0,-0.28687 7.07107,1.33147 7.07107,2.12132 0,1.52051 -4.87187,6.28608 -5.65686,7.07107 -1.70024,1.70023 -4.69752,9.64726 -7.07106,12.02081 -8.59144,8.59144 -21.26977,18.44134 -29.69849,26.87006 -5.29299,5.29298 -9.1744,26.14496 -12.72792,29.69848 -1.29636,1.29637 -0.11785,5.0676 -1.41421,6.36396 -0.95095,0.95095 0.35009,5.30677 -0.70711,6.36397 -2.39613,2.39612 -5.46661,37.85715 -2.82843,43.13351 1.08232,2.16464 2.12132,8.19117 2.12132,9.89949 0,2.13298 4.34834,9.0867 3.53554,9.8995 -1.35078,1.35078 -7.22763,-3.91231 -7.77818,-4.24264 z"
       id="path14523"
       inkscape:connector-curvature="0" />
    <path
       style="fill:#ac9393;stroke:#ffffff;stroke-width:1px;stroke-linecap:butt;stroke-linejoin:miter;stroke-opacity:0;fill-opacity:1"
       d="m 434.16356,287.27265 c -5.56358,-13.82651 -1.7683,-83.43754 7.77818,-102.53049 3.42036,-6.84072 11.44159,-14.91318 18.38477,-18.38477 2.4822,-1.2411 1.76045,-3.70865 4.24265,-4.94975 6.85415,-3.42708 9.34663,-14.29638 13.43502,-18.38478 1.06066,-1.06066 0.35356,-3.88909 1.41422,-4.94975 0.29411,-0.29411 5.32578,-1.74528 6.36396,-0.7071 0.22484,0.22484 -3.40699,16.84201 -3.53554,16.97056 -3.90365,3.90365 -9.24818,9.24819 -12.72792,12.72792 -2.16708,2.16709 -6.56498,3.02945 -8.48528,4.94975 -2.90671,2.90671 -6.1872,7.60142 -9.89949,11.31371 -5.44407,5.44407 -5.19777,14.63818 -8.48528,21.2132 -0.67093,1.34185 0.28829,5.36856 -0.70711,6.36396 -4.64534,4.64534 -3.53554,43.20433 -3.53554,53.74012 0,2.71578 -1.76346,8.49388 -0.7071,10.6066 0.79357,1.58714 1.41421,4.57005 1.41421,6.36396 0,4.71419 1.94688,9.8995 1.41421,9.8995 -0.34005,0 -5.45684,-3.69838 -6.36396,-4.24264 z"
       id="path14544"
       inkscape:connector-curvature="0" />
    <path
       style="fill:#ac9393;stroke:#ffffff;stroke-width:1px;stroke-linecap:butt;stroke-linejoin:miter;stroke-opacity:0;fill-opacity:1"
       d="M 442.125 303.75 C 436.60207 306.34971 431.1917 310.0583 429.21875 312.03125 C 427.07844 314.17155 422.92786 314.0409 420.71875 316.25 C 414.17629 322.79247 402.45975 323.91525 395.96875 330.40625 C 395.37949 330.9955 393.74551 330.53574 393.15625 331.125 C 391.21041 333.07083 388.80621 359.13918 388.375 376.875 C 388.91773 376.79626 389.36207 376.63793 389.625 376.375 C 392.7801 373.2199 398.35303 371.86572 402.34375 367.875 C 407.84784 362.37091 413.18445 357.75304 417.90625 353.03125 C 421.15172 349.78578 427.63836 348.1913 429.875 346 C 429.88539 345.98982 429.89605 345.97895 429.90625 345.96875 C 435.97223 343.06895 441.76326 340.20549 442.71875 339.25 C 443.81101 338.15774 442.52816 313.1802 442.125 303.75 z "
       id="path14562" />
    <path
       style="fill:#dacfcf;stroke:#ffffff;stroke-width:1px;stroke-linecap:butt;stroke-linejoin:miter;stroke-opacity:0;fill-opacity:1"
       d="M 197.6875 329.375 C 197.20591 329.37564 196.72956 329.4005 196.25 329.40625 C 196.17987 330.4115 196.4008 331.57339 196 332.375 C 194.41049 335.55402 195.5 341.65868 195.5 345.375 C 195.5 348.21533 194.5 350.95715 194.5 353.375 C 194.5 355.20422 194.73838 362.71511 194.78125 369.84375 C 203.5864 369.84362 225.77065 368.73605 230.59375 370.34375 C 240.46713 373.63488 270.15505 368.90565 275.84375 371.75 C 279.40791 373.53208 308.58945 373.875 314.71875 373.875 C 332.56055 373.875 350.58031 374.59375 368.46875 374.59375 C 368.67695 374.59375 369.16468 374.61996 369.625 374.65625 C 371.81607 376.13517 375.97105 375.65625 378.3125 375.65625 C 379.07044 375.65625 380.73895 376.01223 382.53125 376.34375 C 382.52813 376.1372 382.53125 375.81179 382.53125 375.65625 C 382.53125 372.06007 382.9776 367.70106 384.65625 364.34375 C 385.55837 362.53953 386.09375 344.36987 386.09375 341 C 386.09375 339.56473 388.26015 334.3332 386.09375 333.25 C 383.50845 331.95735 358.21512 333.03306 354.96875 334.65625 C 352.37106 335.9551 323.34668 333.44043 322.4375 332.53125 C 321.7115 331.80525 295.99152 332.53125 293.4375 332.53125 C 291.69213 332.53125 270.48673 333.43086 270.125 333.25 C 265.94042 331.1577 251.53345 331.8125 246.0625 331.8125 C 229.88536 331.8125 213.30872 329.3543 197.6875 329.375 z "
       id="path14580" />
  </g>
</svg>
