<?xml version="1.0" encoding="UTF-8" standalone="no"?>
<!-- Created with Inkscape (http://www.inkscape.org/) -->

<svg
   xmlns:dc="http://purl.org/dc/elements/1.1/"
   xmlns:cc="http://creativecommons.org/ns#"
   xmlns:rdf="http://www.w3.org/1999/02/22-rdf-syntax-ns#"
   xmlns:svg="http://www.w3.org/2000/svg"
   xmlns="http://www.w3.org/2000/svg"
   xmlns:sodipodi="http://sodipodi.sourceforge.net/DTD/sodipodi-0.dtd"
   xmlns:inkscape="http://www.inkscape.org/namespaces/inkscape"
   width="744.09448819"
   height="1052.3622047"
   id="svg2"
   version="1.1"
   inkscape:version="0.48.1 r9760"
   sodipodi:docname="charms.svg">
  <defs
     id="defs4" />
  <sodipodi:namedview
     id="base"
     pagecolor="#ffffff"
     bordercolor="#666666"
     borderopacity="1.0"
     inkscape:pageopacity="0.0"
     inkscape:pageshadow="2"
     inkscape:zoom="0.5"
     inkscape:cx="352.67843"
     inkscape:cy="757.64553"
     inkscape:document-units="px"
     inkscape:current-layer="layer1"
     showgrid="false"
     inkscape:window-width="1364"
     inkscape:window-height="766"
     inkscape:window-x="0"
     inkscape:window-y="0"
     inkscape:window-maximized="0" />
  <metadata
     id="metadata7">
    <rdf:RDF>
      <cc:Work
         rdf:about="">
        <dc:format>image/svg+xml</dc:format>
        <dc:type
           rdf:resource="http://purl.org/dc/dcmitype/StillImage" />
        <dc:title></dc:title>
      </cc:Work>
    </rdf:RDF>
  </metadata>
  <g
     inkscape:label="Layer 1"
     inkscape:groupmode="layer"
     id="layer1">
    <path
       sodipodi:nodetypes="cssssscssssssssssccsssscssccssssc"
       inkscape:connector-curvature="0"
       id="path4214"
       d="m 304.5,261.57646 c -4.25374,-0.35714 -9.88592,-1.07142 -14.28571,-1.78571 -3.09145,-0.50188 -6.32683,-0.71428 -9.64286,-0.71428 -3.65947,0 -16.90982,-0.75565 -20,-1.78572 -2.69886,-0.89962 -6.19708,0.32573 -8.92857,-0.35714 -13.61593,-3.40398 -62.85715,-88.56727 -62.85715,-102.14286 0,-0.88386 2.77078,-1.9988 3.67753,-2.71804 3.45661,-2.91999 14.06179,-7.56061 17.93021,-7.82869 6.83567,-0.4737 15.28507,-3.09684 21.46574,-4.04061 4.5954,-0.7017 9.29115,-2.62353 14.14214,-3.28299 5.31129,-0.72202 19.87069,-1.45801 26.01142,-1.76777 4.99901,-0.25217 22.53154,-1.854 29.54696,-2.0203 5.56725,-0.13197 21.76491,-1.25447 36.3655,-1.76777 9.02951,-0.31744 47.02979,-1.10375 56.06347,-1.26269 9.16116,-0.16117 65.14631,7.06681 70.2056,7.57615 4.56571,0.45965 19.99662,2.94396 29.79949,4.0406 9.8037,1.09674 23.16612,3.91982 28.03174,5.3033 5.64597,1.60536 14.08801,7.43879 16.41498,9.09138 1.92564,5.1709 -4.68874,5.49711 -7.15477,7.96315 -0.17858,0.17857 -0.89286,-0.17857 -1.07143,0 -3.36994,3.36994 -16.15695,89.01409 -17.5,90.35714 -0.81839,0.81838 -4.20745,0.13944 -5.35715,0.71429 -1.79918,0.89959 -7.88476,0.19238 -10.35714,1.42857 -2.16161,1.0808 -6.64082,-0.0725 -8.92857,1.07143 -2.21929,1.10964 -14.91446,-0.79983 -16.07143,0.35714 -0.63312,0.63312 -2.71744,0.35714 -3.92857,0.35714 -2.24416,0 -7.8762,0.36714 -14.28572,0.71429 -6.81519,1.31679 -24.12532,2.43637 -31.42857,3.21428 -5.53661,-0.17947 -15.56255,0 -18.92857,0 -6.53366,0 -17.25376,-0.0616 -22.85714,-0.35714 -4.49919,-0.23734 -10.43759,0 -15,0 -11.47313,0 -22.76977,-0.35714 -34.28572,-0.35714 -13.01453,0 -22.0413,-0.24531 -26.78571,-10e-6 z"
       style="fill:#584141;fill-opacity:1;stroke:#000000;stroke-width:2;stroke-linecap:butt;stroke-linejoin:miter;stroke-miterlimit:4;stroke-opacity:1;stroke-dasharray:none" />
    <g
       id="g4280"
       transform="matrix(-0.66743106,-0.74467158,-0.74467158,0.66743106,839.03646,33.40149)">
      <path
         inkscape:connector-curvature="0"
         id="path4272"
         d="m 239.00209,431.52243 c -1.16691,11.16457 10.06352,18.5488 15.55635,24.04163 3.91109,3.91109 7.51093,9.63224 10.6066,12.72792 2.72579,2.72579 7.15456,3.61903 9.19239,5.65686 1.05749,1.05748 10.47995,1.54086 12.02082,0 1.39368,-1.39369 5.36498,-3.95077 7.07106,-5.65686 0.58926,-0.58925 0.11786,-2.23917 0.70711,-2.82843 5.2212,-5.22119 8.38935,-15.86193 13.43503,-18.38477 2.0733,-1.03665 12.71625,-8.47361 14.14214,-9.8995 0.90766,-0.90767 3.81003,-10.3321 2.12132,-12.02081 -1.30869,-1.30869 -1.05842,-4.59395 -2.82843,-6.36396 -1.89643,-1.89644 -3.95185,-3.95185 -5.65686,-5.65686 -3.81306,-3.81306 -11.33306,-6.38331 -15.55634,-10.6066 -1.19393,-1.19393 -12.47074,-2.12132 -12.72793,-2.12132 -3.83906,0 -13.61863,-3.79729 -18.38477,-1.41421 -2.98343,1.49171 -6.65674,1.5606 -9.19239,2.82842 -14.81446,7.40723 -14.81181,15.46277 -20.5061,29.69849 z"
         style="fill:#fff6e9;fill-opacity:1;stroke:#000000;stroke-width:2;stroke-linecap:butt;stroke-linejoin:miter;stroke-miterlimit:4;stroke-opacity:1;stroke-dasharray:none" />
      <path
         sodipodi:nodetypes="zsssssssssssssssssssssszz"
         inkscape:connector-curvature="0"
         id="path4244"
         d="m 207.70711,365.24086 c -0.14583,-7.9859 20.39025,12.12132 29.29289,12.12132 3.32544,0 23.72838,-10.27162 24,-10 1.59882,1.59882 -6.87245,23 -3,23 3.09016,0 18.83347,5.83347 21,8 1.64075,1.64076 7.45931,3 7,3 -1.94913,0 -6.76651,2.76652 -8,4 -0.95516,0.95516 -4.85765,0.85765 -6,2 -4.39264,4.39264 1,7.78126 1,11 0,2.77111 24.58618,19.79309 29,22 1.41109,0.70555 8.64528,5.35472 7,7 -2.73231,2.73231 -10,8.72041 -10,12 0,1.77212 -9.08909,-5.17818 -10,-7 -3.04763,-6.09526 -14.85537,-12.85537 -19,-17 -3.33333,-3.33333 -6.66667,-6.66666 -10,-10 -1.37437,-1.37437 -6.94365,-3 -5,-3 0.86608,0 -3.96962,1.96962 -4,2 -0.96138,0.96138 -1.71651,2.71651 -3,4 -1.15777,1.15778 -6.80118,9 -8,9 -3.87646,0 -1.68469,-28 -10,-28 -6.81629,0 -12.99086,0 -19,0 -0.41886,0 -11,3.13999 -11,2 0,-1.91295 9.37795,-8.37795 12,-11 0.61086,-0.61086 3.41214,-5.18199 3.64645,-8.59619 0.23431,-3.4142 -7.79352,-18.53923 -7.93934,-26.52513 z"
         style="fill:#ffa830;fill-opacity:1;stroke:#000000;stroke-width:2;stroke-linecap:butt;stroke-linejoin:miter;stroke-miterlimit:4;stroke-opacity:1;stroke-dasharray:none" />
    </g>
    <g
       id="g4227"
       transform="matrix(0.90615423,-0.42294742,0.42294742,0.90615423,-55.446447,-206.76033)">
      <path
         inkscape:connector-curvature="0"
         id="path4219"
         d="m 290,452.36218 c 0.95134,2.00123 31.3038,-6.69619 37,-1 6.51616,6.51616 9.93797,13.93798 15,19 3.56769,3.56769 2.86511,9.86511 6,13 4.18852,4.18853 1.69811,28.69811 4,31 0.74988,0.74988 4.54869,13.45131 3,15 -1.8457,1.8457 -20.90202,3.90203 -22,5 -1,1 -5,-1 -6,0 -0.14088,0.14088 -7,2.62114 -7,2 0,-2.10818 3.49071,-4.50929 2,-6 -4.00242,-4.00242 -13.91355,-1.08645 -17,2 -0.83324,0.83325 -14.87475,5.12525 -17,3 -2.60907,-2.60907 -12.27431,-53.72569 -7,-59 2.57316,-2.57316 2.94473,-11.94473 5,-14 1.21243,-1.21243 0.97695,-4.97695 2,-6 1.05409,-1.05409 3.49071,-4 2,-4 -1.49071,0 -1.33333,2.66667 -2,4"
         style="fill:#c35a4d;fill-opacity:1;stroke:#000000;stroke-width:2;stroke-linecap:butt;stroke-linejoin:miter;stroke-miterlimit:4;stroke-opacity:1;stroke-dasharray:none" />
      <path
         inkscape:connector-curvature="0"
         id="path4217"
         d="m 263,531.36218 c 2.3248,9.57587 -4,-14.7621 -4,-21 0,-6.75329 -5.24358,-19.51284 -2,-26 1.23434,-2.46867 5,-9.29916 5,-11 0,-2.71088 5.50145,-6.0029 7,-9 5.18817,-10.37633 17.2081,-12 30,-12 1.9367,0 6.30526,-0.84737 8,0 3.95487,1.97744 10.10068,6.10068 14,10 10.15099,10.15099 11.24987,29.49974 18,43 0.8,1.6 -0.8,4.4 0,6 1.58643,3.17287 3.56009,18.43992 1,21 -2.24791,2.24791 -9.75642,3 -13,3 -3.17857,0 -6.96298,3.51851 -10,2 -4.8144,-2.4072 -9.08757,-26.08757 -14,-31 -1.16576,-1.16575 -8.73105,-10.26894 -11,-8 -6.73747,6.73747 5.2948,37.70521 5,38 -0.66667,0.66667 -3.33333,-0.66666 -4,0 -3.20566,3.20566 -25.37933,9 -27,9 -0.18222,0 -2.60513,-13.21026 -3,-14 z"
         style="fill:#d07e74;fill-opacity:1;stroke:#000000;stroke-width:2;stroke-linecap:butt;stroke-linejoin:miter;stroke-miterlimit:4;stroke-opacity:1;stroke-dasharray:none" />
    </g>
    <g
       id="g4077"
       transform="matrix(0.96264535,0.27076543,-0.27076543,0.96264535,294.88294,-283.23457)">
      <path
         inkscape:connector-curvature="0"
         id="path4015"
         d="m 71.41778,458.39249 c 3.22985,-3.46103 24.81545,0.6404 26.87006,-1.41421 0.84098,-0.84098 -3.0654,-6.83791 -3.53553,-7.77818 -3.6621,-7.3242 0.28613,-23.7555 -4.94975,-28.99138 -0.83591,-0.83591 -2.44297,-1.02876 -3.53553,-2.12132 -1.91293,-1.91293 -5.02775,-3.14298 -8.48528,-1.41421 -2.42987,1.21493 -7.32997,0.96601 -9.19239,2.82843 -4.93736,4.93736 -2.17881,12.84289 -4.24264,16.97056 -1.54389,3.08778 0.0756,7.62686 -1.41422,10.6066 -3.47166,6.94332 2.49545,12.51168 8.48528,11.31371 z"
         style="fill:#e6ac97;fill-opacity:1;stroke:#000000;stroke-width:2;stroke-linecap:butt;stroke-linejoin:miter;stroke-miterlimit:4;stroke-opacity:1;stroke-dasharray:none" />
      <path
         inkscape:connector-curvature="0"
         id="path4013"
         d="m 64.34672,384.10874 c 5.13618,-3.73068 14.11048,0.68887 19.79899,-2.02138 1.90509,-0.90767 14.75452,-1.93112 14.84924,-2.02138 1.26683,-1.20715 9.33977,-1.20715 10.6066,0 0.96846,0.92284 11.00936,1.73136 12.72792,3.36897 8.27039,7.88074 17.09869,14.39382 22.62742,24.93032 2.03262,3.87371 1.25441,10.47612 3.53553,14.82344 0.84853,1.6171 -0.84852,4.44702 0,6.06413 2.0144,3.83899 1.41422,13.20548 1.41422,17.51861 0,0.52759 0.35283,3.03275 0,3.36896 -3.95552,3.76915 -25.86269,6.54409 -29.69849,4.71655 -2.00255,-0.95411 2.95297,-11.89093 0.70711,-16.17103 -1.97204,-3.75826 -0.8652,-9.06059 -2.82843,-12.80205 -4.01022,-7.64258 -7.031,-16.80663 -12.72792,-22.23516 -4.12846,-3.93395 -9.00812,-4.96565 -14.14214,-7.41171 -2.07297,-0.98766 -4.95138,-0.33769 -7.07106,-1.3476 -5.06378,-2.41259 -15.25349,2.30997 -19.09189,-1.34758 -2.21033,-2.1062 -2.30699,-5.62182 -0.7071,-9.43309 z"
         style="fill:#62c2c8;fill-opacity:1;stroke:#000000;stroke-width:2;stroke-linecap:butt;stroke-linejoin:miter;stroke-miterlimit:4;stroke-opacity:1;stroke-dasharray:none" />
      <path
         inkscape:connector-curvature="0"
         id="path4007"
         d="m 70.9565,458.00096 c -1.99614,-3.19544 -18.45067,6.77986 -28.54417,6.77986 -0.10177,0 -5.68989,-30.39449 -4.96421,-31.18737 2.01211,-2.19842 2.4821,-17.03808 2.4821,-20.33958 0,-9.55096 11.62274,-14.05498 16.13366,-18.98362 23.46409,-25.63686 68.25781,-1.22407 68.25781,32.54334 0,2.15927 1.25773,12.18552 0,13.55973 -2.48211,2.71195 0,10.84778 -2.48211,13.55972 -4.01479,4.38657 -17.39484,-1.33397 -21.09787,2.71194 -1.30555,1.42646 -9.92567,2.71494 -9.9284,2.71195 -3.11426,-3.40264 2.03546,-18.11564 -1.24105,-21.69556 -2.89132,-3.15905 -2.75982,-8.43927 -6.20525,-12.20375 -2.15081,-2.34997 -5.22341,-1.21437 -7.44631,0 -9.0685,4.95412 -4.9642,21.86819 -4.9642,32.54334 z"
         style="fill:#ffec4e;fill-opacity:1;stroke:#000000;stroke-width:2;stroke-linecap:butt;stroke-linejoin:miter;stroke-miterlimit:4;stroke-opacity:1;stroke-dasharray:none" />
      <path
         inkscape:connector-curvature="0"
         id="path4009"
         d="m 33.23402,463.34225 c -0.36733,1.73744 1.92828,-20.18507 -2.82843,-29.69849 -1.50729,-3.01457 0.31955,-10.21905 1.41422,-11.31371 1.22188,-1.22188 1.26521,-16.82157 5.65685,-21.2132 3.31763,-3.31763 8.08154,-8.08155 11.31371,-11.31371 4.68686,-4.68687 31.65573,-12.18489 38.18376,-5.65685 1.41422,1.41421 7.07107,-1.41422 8.48529,0 1.96649,1.9665 5.96733,1.72469 8.48528,4.24264 5.66527,5.66527 12.7195,11.30529 18.38477,16.97056 3.11867,3.11867 3.29275,16.02067 5.65686,18.38478 6.1798,6.1798 4.65864,26.45405 0,31.11269 -1.35764,1.35764 -6.69981,-0.89273 -8.48528,0 -0.6914,0.3457 -2.91523,2.74163 -4.24264,1.41422 -3.53554,-3.53554 2.12132,-16.26346 -1.41422,-19.79899 -1.44681,-1.44681 -1.11379,-6.77064 -2.82843,-8.48528 -11.79658,-11.79658 -4.85268,-28.28427 -33.94112,-28.28427 -7.21699,0 -13.90179,1.17386 -18.38478,5.65685 -12.99327,12.99327 -6.59357,23.08663 -14.14213,38.18377 -4.02771,8.05541 6.37763,21.2132 4.24264,21.2132 -12.50409,0 -9.38143,0.12952 -15.55635,-1.41421 z"
         style="fill:#7de1e7;fill-opacity:1;stroke:#000000;stroke-width:2;stroke-linecap:butt;stroke-linejoin:miter;stroke-miterlimit:4;stroke-opacity:1;stroke-dasharray:none" />
      <path
         inkscape:connector-curvature="0"
         id="path4011"
         d="m 62.22539,459.80671 c 0.26603,-3.42453 -6.94096,-36.1275 11.31371,-45.25484 14.60446,-7.30223 31.1127,35.72117 31.1127,43.84062 0,0.27769 -9.16074,-0.36938 -9.8995,0 -1.73845,0.86923 -5.65685,3.35787 -5.65685,1.41422 0,-4.51512 -3.81426,-17.95641 -9.89949,-24.04164 -0.69502,-0.69502 1.35377,-4.21242 -1.41422,-2.82842 -14.72888,7.36444 13.75067,34.19681 -15.55635,26.87006 z"
         style="fill:#ffd0be;fill-opacity:1;stroke:#000000;stroke-width:2;stroke-linecap:butt;stroke-linejoin:miter;stroke-miterlimit:4;stroke-opacity:1;stroke-dasharray:none" />
    </g>
    <g
       id="g4102"
       transform="matrix(-0.12666861,-0.99194509,0.99194509,-0.12666861,357.10244,854.4359)">
      <path
         inkscape:connector-curvature="0"
         id="path4090"
         d="m 669.06688,155.43751 c 2.63424,-2.22072 18.97204,-1.87483 26.97831,6.13143 2.69977,2.69979 6.8039,-3.00637 9.81029,0 4.08762,4.08763 4.49638,11.85411 8.584,15.94173 0.82627,0.82628 5.54657,7.94259 3.67886,9.81029 -10.67785,10.67786 -26.8886,20.93657 -40.46746,7.35772 -1.6384,-1.6384 -7.33097,-32.97602 -8.584,-39.24117 z"
         style="fill:#c4a00b;fill-opacity:1;stroke:#000000;stroke-width:2;stroke-linecap:butt;stroke-linejoin:miter;stroke-miterlimit:4;stroke-opacity:1;stroke-dasharray:none" />
      <path
         inkscape:connector-curvature="0"
         id="path4088"
         d="m 672.74574,242.50386 c 7.56752,2.20377 29.48886,-3.73685 39.24116,-13.48916 3.62841,-3.62839 3.05676,-9.18818 6.13144,-12.26286 5.32385,-5.32386 -9.43941,-18.76518 -6.13144,-22.07316 1.91687,-1.91686 4.84485,-3.61855 6.13144,-4.90515 0.79456,-0.79456 -2.62635,-6.13142 -2.45258,-6.13142 2.89039,0 -5.69362,1.22628 -8.584,1.22628 -1.99667,0 -18.35708,2.41535 -19.62058,3.67886 -0.81559,0.81558 -4.08941,0.8211 -4.90515,2.45257 -1.60555,3.2111 2.87665,21.22501 0,26.97831 -4.10278,8.20555 -7.96313,15.28988 -9.81029,24.52573 z"
         style="fill:#dfd725;fill-opacity:1;stroke:#000000;stroke-width:2;stroke-linecap:butt;stroke-linejoin:miter;stroke-miterlimit:4;stroke-opacity:1;stroke-dasharray:none" />
      <path
         inkscape:connector-curvature="0"
         id="path4086"
         d="m 641.29946,195.90497 c -4.25078,5.17786 -11.18014,-12.80398 -4.6785,-19.62059 3.12416,-3.2755 30.01616,-20.84687 32.7495,-20.84687 4.52037,0 10.61516,4.99798 12.86588,7.35772 1.41809,1.48679 5.82116,1.19802 7.01774,2.45257 6.68919,7.01325 11.69625,13.50211 11.69625,26.97831 0,2.13576 -6.01493,2.54001 -8.18738,3.67886 -14.48348,7.59255 -36.30617,9.53496 -51.46349,0 z"
         style="fill:#f0c81f;fill-opacity:1;stroke:#000000;stroke-width:2;stroke-linecap:butt;stroke-linejoin:miter;stroke-miterlimit:4;stroke-opacity:1;stroke-dasharray:none" />
      <path
         inkscape:connector-curvature="0"
         id="path4084"
         d="m 649.44629,188.54725 c 7.21642,-1.81406 17.96664,2.05326 24.52573,-1.22629 2.82815,-1.41407 22.35206,-4.62626 24.52573,-2.45257 6.00021,6.0002 -2.45256,12.80166 -2.45256,12.26287 0,-0.21823 4.20776,3.51039 4.90514,4.90514 2.22293,4.44586 3.67886,7.66683 3.67886,14.71544 0,8.25031 -24.86632,33.55258 -38.01488,26.9783 -14.63837,-7.31918 -19.60008,-2.41157 -28.20459,-19.62059 -4.38416,-8.76829 11.03657,-20.28021 11.03657,-18.39429 0,2.72944 -15.60004,-10.15196 -13.48915,-12.26287 2.47372,-2.47371 8.36465,-2.85534 13.48915,-4.90514 z"
         style="fill:#f3eb35;fill-opacity:1;stroke:#000000;stroke-width:2;stroke-linecap:butt;stroke-linejoin:miter;stroke-miterlimit:4;stroke-opacity:1;stroke-dasharray:none" />
    </g>
    <g
       id="g4066"
       transform="matrix(-0.96642279,0.25695719,-0.25695719,-0.96642279,1093.7744,222.78763)">
      <path
         inkscape:connector-curvature="0"
         id="path4039"
         d="m 641.40575,221.19724 c 0.94933,-1.26578 1.58222,-4.74667 2.84801,-3.79734 1.26577,0.94934 -3.96681,4.91614 -2.84801,3.79734 2.74605,-2.74605 3.39977,-4.34911 4.74667,-5.69601 0.44223,-0.44223 27.65801,-11.2647 31.32803,-7.59467 0.96857,0.96857 9.84382,5.69601 11.39201,5.69601 0.7076,0 0.449,-1.39833 0.94934,-1.89867 0.79419,-0.79419 2.89988,-1.95054 3.79734,-2.848 1.66316,-1.66317 21.80936,-5.72134 24.68269,-2.84801 5.08579,5.08579 8.38822,11.23622 12.34135,15.18935 2.50657,2.50658 1.14123,20.12793 2.848,21.83469 1.50292,1.50291 6.24163,3.25171 8.54401,0.94934 3.93143,-3.93143 30.32227,11.44844 23.73336,18.03735 -0.63289,0.63289 0.63289,3.16444 0,3.79733 -6.97468,6.97469 -12.21234,10.44268 -25.63203,10.44268 -1.83857,0 -5.9858,-0.80443 -7.59467,0 -6.68248,3.34124 -27.73685,3.59119 -32.27737,-0.94933 -1.26578,-1.26578 -6.32889,1.26578 -7.59467,0 -7.58609,-7.58609 -21.45296,-7.21295 -30.37871,-16.13868 -8.8017,-8.80171 -12.57663,-17.32331 -18.98668,-23.73336 -2.59524,-2.59524 -1.0766,-10.12968 -1.89867,-14.24002 z"
         style="fill:#cde462;fill-opacity:1;stroke:#000000;stroke-width:2;stroke-linecap:butt;stroke-linejoin:miter;stroke-miterlimit:4;stroke-opacity:1;stroke-dasharray:none" />
      <path
         inkscape:connector-curvature="0"
         id="path4035"
         d="m 635.70974,266.76529 c -1.85727,-10.46846 -23.9124,7.41563 -17.08801,14.24002 1.64637,1.64637 5.19177,2.34377 6.64534,3.79733 2.85694,2.85695 15.69358,-1.89866 18.98669,-1.89866 2.58768,0 15.32657,-0.13723 17.08801,-1.89867 3.19645,-3.19646 15.73018,2.10292 19.93603,0 4.04815,-2.02408 10.29883,1.02125 14.24001,-0.94934 9.41356,-4.70678 34.79448,0.16544 46.51738,-5.69601 4.38266,-2.19133 15.32923,-9.35346 9.49334,-15.18934 -2.43121,-2.43122 -10.62239,-11.21231 -16.13868,-5.69601 -0.79111,0.79111 -3.95556,-0.79112 -4.74667,0 -1.92066,1.92066 -7.73544,1.09009 -9.49334,2.848 -0.50035,0.50034 -1.89867,1.65693 -1.89867,0.94934 0,-7.21997 -1.65529,-32.03398 -7.59468,-37.97338 -2.89322,-2.89322 -6.94533,-4.09733 -9.49335,-6.64534 -1.26577,-1.26578 -5.37955,0.31645 -6.64533,-0.94933 -6.9262,-6.9262 -23.49299,7.47449 -27.5307,9.49334 -0.64709,0.32355 -4.13513,-3.1858 -4.74667,-3.79734 -1.07522,-1.07522 -13.46021,-3.6278 -15.18935,-1.89867 -2.8452,2.84521 -9.85456,3.20922 -13.29068,6.64535 -8.87045,8.87044 -5.65274,33.61526 0.94933,44.61871 z"
         style="fill:#d7f350;fill-opacity:1;stroke:#000000;stroke-width:2;stroke-linecap:butt;stroke-linejoin:miter;stroke-miterlimit:4;stroke-opacity:1;stroke-dasharray:none" />
      <path
         inkscape:connector-curvature="0"
         id="path4037"
         d="m 676.17989,233.1764 c 0.81949,-1.92634 7.31302,-22.1839 22.00143,-13.52226 1.01338,0.59758 1.70892,2.82234 2.10548,4.3588 2.43358,9.42857 -5.12106,11.32739 -8.39093,16.87243 -0.47249,0.80126 -3.8863,1.30422 -4.3588,2.10548 -0.40462,0.68616 4.28355,-0.252 6.46427,2.25332 3.55783,4.0874 9.45732,11.7147 6.34624,16.99048 -4.89754,8.30525 -13.25021,0.7588 -17.05009,-1.48195 -2.24056,-1.32124 -6.83602,-6.36907 -6.49408,-6.16741 5.08059,2.99598 -16.07671,20.13322 -21.05241,17.19909 -7.72158,-4.55335 -1.78776,-16.79148 -0.14902,-19.57046 2.17931,-3.69567 7.85212,-6.70789 7.32389,-5.81212 -2.11444,3.58568 -17.32048,-8.32631 -16.66499,-11.38581 1.38877,-6.48216 14.25626,-12.63439 21.34928,-8.45171 2.41069,1.42158 4.71558,3.72173 8.56973,6.61212 z"
         style="fill:#a3e770;fill-opacity:1;stroke:#000000;stroke-width:2;stroke-linecap:butt;stroke-linejoin:miter;stroke-miterlimit:4;stroke-opacity:1;stroke-dasharray:none" />
      <path
         inkscape:connector-curvature="0"
         id="path4054"
         d="m 719.25117,252.52527 c 1.05479,-0.68174 9.78348,-8.544 21.83469,-8.544"
         style="fill:none;stroke:#000000;stroke-width:2;stroke-linecap:butt;stroke-linejoin:miter;stroke-miterlimit:4;stroke-opacity:1;stroke-dasharray:none" />
    </g>
    <path
       id="path3026"
       style="fill:#705454;fill-opacity:1;stroke:#000000;stroke-width:2;stroke-linecap:round;stroke-linejoin:round;stroke-miterlimit:4;stroke-opacity:1;stroke-dasharray:none"
       d="m 538.44049,156.11332 c 2.16855,7.03613 -3.00793,6.58802 -8.2262,7.96315 -3.36994,3.36994 -16.15695,4.01409 -17.5,5.35714 -0.81839,0.81838 -4.20745,0.13944 -5.35715,0.71429 -1.79918,0.89959 -7.88476,0.19238 -10.35714,1.42857 -2.16161,1.0808 -6.64082,-0.0725 -8.92857,1.07143 -2.21929,1.10964 -14.91446,-0.79983 -16.07143,0.35714 -0.63312,0.63312 -2.71744,0.35714 -3.92857,0.35714 -2.24416,0 -7.8762,0.36714 -14.28572,0.71429 -6.81519,1.31679 -24.12532,2.43637 -31.42857,3.21428 -5.53661,-0.17947 -15.56255,0 -18.92857,0 -6.53366,0 -17.25376,-0.0616 -22.85714,-0.35714 -4.49919,-0.23734 -10.43759,0 -15,0 -11.47313,0 -22.76977,-0.35714 -34.28572,-0.35714 -13.01453,0 -22.0413,-0.24531 -26.78571,-1e-5 -4.25374,-0.35714 -9.88592,-1.07142 -14.28571,-1.78571 -3.09145,-0.50188 -6.32683,-0.71428 -9.64286,-0.71428 -3.65947,0 -16.90982,-0.75565 -20,-1.78572 -2.69886,-0.89962 -6.19708,0.32573 -8.92857,-0.35714 -13.61593,-3.40398 -62.85715,-3.56727 -62.85715,-17.14286 0,0 -2.49314,5.06152 -3.84811,8.44414 -4.09794,10.23037 6.04338,20.15109 9.79849,24.19316 0.66216,0.0933 3.663,1.96897 9.09137,4.04061 -6.84168,1.48453 -9.85003,-0.49605 -20.09101,13.14249 -4.49616,5.9878 -12.68462,28.44145 -12.52974,38.84447 0.12207,8.19985 1.00171,15.31716 3.44888,19.55003 1.99552,3.45166 4.9439,12.56115 7.19361,15.27485 5.19502,6.26645 16.65862,20.64639 22.661,24.70232 8.46309,5.7187 14.92437,11.08964 21.54061,14.7549 6.9481,3.84911 16.64343,9.32692 21.21321,11.11168 8.32168,3.25008 30.53304,10.26216 36.62982,12.06056 4.09772,1.20873 22.76091,5.13528 30.98912,5.88759 10.7948,0.98698 26.48338,2.92583 33.59065,2.96919 7.39882,0.0451 18.25058,0.82639 25.53917,0.82632 7.24471,-7e-5 43.29996,-2.57953 51.08885,-4.9282 7.67501,-2.31434 14.39627,-2.6831 21.0504,-5.29588 6.89395,-2.70694 15.44422,-4.99166 22.93764,-7.48948 5.94212,-1.98071 27.61684,-8.1945 38.13018,-15.85607 6.58321,-4.79749 9.87013,-5.59493 16.23423,-10.53045 5.27802,-4.09323 12.72195,-10.90662 17.11132,-15.63199 4.66567,-5.0228 12.10378,-15.21771 17.8256,-26.66135 0.80541,-1.61081 4.05321,-9.0427 4.58158,-13.1425 0.49009,-3.80282 2.46469,-26.35382 -4.82668,-37.72227 -4.02208,-6.27108 -11.91816,-24.20803 -18.66295,-25.55698 -2.78343,-0.8424 -4.74413,-2.15722 -4.74413,-2.15722 4.14805,-0.43253 6.38735,-4.33657 8.49989,-10.31445 1.74499,-4.93782 -4.79822,-19.1929 -4.79822,-19.1929 z"
       inkscape:connector-curvature="0"
       sodipodi:nodetypes="ccssscssccsssscssssccccsssssssssssssssssssscccc" />
    <path
       style="fill:#684e4e;fill-opacity:1;stroke:none"
       d="m 187.81654,158.99225 c 0.72165,0.92958 -1.41421,4.73853 -1.41421,6.36396 0,0.5654 -1.69913,4.31128 -0.70711,5.3033 1.43092,1.43093 0.93606,4.4716 2.12132,5.65686 3.4822,3.48219 5.91235,6.61945 9.54594,10.25305 1.62972,1.62971 10.96016,2.96055 10.96016,6.0104 0,0.47141 -0.94281,0 -1.41422,0 -1.29281,0 -2.03836,0.70711 -3.53553,0.70711 -1.80644,0 -12.0512,3.91947 -12.72792,4.59619 -2.62826,2.62826 -3.77769,7.66678 -6.36396,10.25305 -0.86575,0.86575 -2.85968,4.27389 -2.47488,3.88909 -5.79415,10.69788 -9.19239,21.86361 -9.19239,34.29468 0,1.30534 -0.85978,6.76571 -0.7071,7.07107 2.76139,5.52278 3.73894,9.24565 6.36396,14.49569 0.27834,0.55667 -0.0136,2.81481 0.35355,3.18198 2.66736,2.66735 4.8909,8.07287 8.13173,11.3137 0.41248,0.41248 0.29463,1.35529 0.70711,1.76777 4.16344,4.16344 7.01712,7.72423 11.31371,12.02082 8.35995,5.64739 15.13876,10.18901 21.56675,16.61701 2.31216,2.31216 10.17988,4.73638 13.43503,6.36396 6.02121,3.0106 12.0744,7.45141 18.38478,10.6066 6.58422,3.29211 13.93325,3.96142 20.85965,7.42462 1.25616,0.62808 10.73687,1.89804 10.96015,2.12132 0.66324,0.66324 3.0662,1.37562 4.24264,1.76777 1.59114,0.53038 8.24576,-0.23953 9.19239,0.7071 2.17408,2.17409 10.94108,1.2279 14.14214,2.82843 3.01699,1.5085 8.29672,-1.50849 11.31371,0 1.59309,0.79655 4.81747,1.06066 6.36396,1.06066 0.4908,0.88026 2.89448,-0.64105 3.53553,0 2.62584,2.62584 18.98426,0.43553 24.04163,2.12132 1.37359,0.45786 6.08504,-0.98603 7.07107,0 1.1711,1.1711 9.67031,1.37276 11.66726,0.70711 2.43763,-0.81255 11.66202,-1.88737 14.14214,-1.06066 2.46465,0.82155 21.52495,0.48534 24.04163,-0.35355 6.1104,-2.0368 12.70046,-3.29068 18.73833,-5.30331 3.7412,-1.24706 10.39219,-1.13023 13.78858,-2.82842 3.78326,-1.89164 8.85899,-2.83347 13.08147,-3.88909 7.39761,-1.8494 14.48821,-5.77221 21.56676,-8.13173 0.93632,-0.3121 11.048,-5.03759 11.31371,-5.3033 1.00221,-1.00221 2.61838,-2.54663 3.88909,-3.18198 4.7961,-2.39805 9.73083,-4.86542 14.14213,-7.07107 2.83787,-1.41893 5.81201,-3.69069 7.42462,-5.3033 0.2107,-0.21069 0.77696,-1.76776 1.06066,-1.76776 0.16667,0 -0.2357,0.2357 -0.35355,0.35355 -1.14725,1.14725 -3.6119,1.49058 -4.59619,2.47487 -0.46231,0.46231 -7.69476,2.74501 -7.77818,2.82843 -2.25613,2.25613 -9.79355,2.06835 -13.43503,3.88909 -1.44923,0.72461 -3.07223,-0.0549 -4.59619,0.7071 -1.97615,0.98808 -4.66945,-1.37758 -6.71752,-0.35355 -1.77879,0.8894 -8.21394,2.47487 -10.25304,2.47487 -0.82953,0 -5.35331,1.71776 -6.01041,1.06066 -0.55316,-0.55315 -0.31802,-1.21966 -1.41421,-1.76776 -0.74341,-0.3717 -1.69519,-0.28097 -2.12133,-0.70711 -0.52431,-0.52431 -4.7364,0.42366 -5.3033,0.70711 -2.00555,1.00277 -3.99486,-1.14326 -6.36396,-0.35356 -6.61232,2.20411 -13.34808,0.70711 -20.50609,0.70711 -1.04029,0 -6.14392,1.2807 -7.07107,0.35355 -2.52586,-2.52585 -16.91643,-1.76776 -21.92031,-1.76776 -1.48151,0 -4.63951,-0.72876 -6.01041,-1.41422 -1.02091,-0.51045 -22.25381,0.61371 -24.04163,1.06066 -1.15749,0.28938 -7.36267,2.53683 -8.48528,1.41422 -1.48264,-1.48264 -10.14205,-2.44713 -13.08148,-3.18198 -2.91213,-0.72804 -3.49726,-3.40493 -6.0104,-4.24264 -3.0706,-1.02354 -8.20888,0.2764 -10.60661,-2.12132 -2.94385,-2.94386 -7.73805,-6.23274 -12.37436,-7.77818 -1.22201,-0.40734 -2.82529,-0.52876 -3.88909,-1.06066 -3.8373,-1.91865 -7.77719,-4.24231 -12.02082,-5.65685 -3.61392,-1.20464 -7.60078,-4.81671 -10.6066,-7.07107 -4.05687,-3.04265 -14.96964,-7.70046 -19.44544,-9.19239 -3.03834,-1.01278 -15.84806,-13.31136 -17.32411,-16.26346 -0.46305,-0.9261 -2.43763,-1.73051 -3.18198,-2.47487 -2.57255,-2.57255 -4.64462,-5.35172 -7.07107,-7.77817 -2.27045,-2.27045 -3.03285,-5.86128 -5.3033,-8.13173 -1.09671,-1.09671 -1.92414,-2.1791 -2.82843,-3.53554 -0.64236,-0.96353 -1.88768,-1.8477 -2.82843,-2.47487 -2.30653,-3.62269 -2.23175,-6.93838 -4.24264,-10.96015 -1.32718,-2.65438 0.36903,-21.58224 1.41422,-22.62742 0.80168,-0.80169 1.52053,-2.22764 2.47487,-3.18198 0.50292,-0.50292 2.38812,-0.66373 3.18198,-1.06066 0.63288,-0.31644 10.91781,0 12.37437,0 0.59317,0 1.37931,-0.72456 2.12132,-0.35356 2.33046,1.16523 5.05572,0.22977 7.42462,1.41422 1.23886,0.61943 3.99201,-0.22824 4.94975,-0.70711 1.21292,-0.60646 9.67686,0.59579 10.6066,1.06066 0.51524,0.25762 20.87199,2.47487 23.33453,2.47487 3.69313,0 12.89685,0.91775 15.20279,1.06066 3.76911,0.23358 9.9599,0.0302 11.31371,0.70711 0.74225,0.37113 15.5076,-0.38882 22.98097,-1.41421 -2.91449,-0.92499 -6.08669,-3.33132 -9.8995,-2.47488 -1.48366,-0.74183 -9.88497,-2.10679 -10.25304,-2.47487 -2.89402,-2.89402 -8.10817,-0.165 -12.02082,-2.12132 -0.4714,-0.2357 -1.29636,0.2357 -1.76777,0 -2.02404,-1.01202 -6.21114,-0.80748 -7.42462,-1.41421 -4.39615,-2.19808 -12.98413,-3.18198 -18.38477,-3.18198 -4.76828,0 -13.01464,0.38697 -17.32412,-1.76777 -1.69206,-0.84603 -7.46507,-0.37378 -9.54594,-1.41421 -0.94281,-0.47141 -2.59273,0.4714 -3.53553,0 -1.22381,-0.61191 -3.05841,0.23856 -4.24265,-0.35356 -3.81036,-1.90518 -9.23361,-0.90449 -13.08147,-2.82842 -0.56569,-0.28285 -1.55564,0.28284 -2.12132,0 -4.73703,-2.36852 -14.87255,-0.12562 -19.79899,-1.76777 -4.43052,-1.47684 -17.57131,-5.90405 -19.79899,-8.13173 -2.12781,-2.12781 -5.0131,-5.36666 -7.42462,-7.77817 -0.99131,-0.99131 -1.01758,-3.1389 -2.12132,-4.24264 -1.74441,-1.74441 -1.76777,-0.67117 -1.76777,-2.47488 z"
       id="path3945"
       inkscape:connector-curvature="0"
       sodipodi:nodetypes="cssssssssscssscsscssssssssscssssssssssssscsssssssssssssssssssssssssssssssscssssssssssssccsssssssssssssssc" />
    <path
       style="fill:#634a4a;fill-opacity:1;stroke:none"
       d="m 196.65538,195.7618 c -0.82491,-0.51812 -3.75609,1.63477 -5.65686,3.53554 -0.94705,0.94705 -2.77012,1.3559 -3.53553,2.12132 -1.08351,1.0835 -1.98368,1.98367 -2.82843,2.82843 -2.45423,2.45423 -4.91298,10.88661 -6.71751,14.49568 -2.27573,4.55146 -4.63865,23.02342 -6.01041,24.39519 -0.47543,0.47543 1.78585,12.41054 2.12132,13.08147 0.80994,1.61988 0.1107,5.52471 1.06066,7.42463 0.70576,1.41151 1.76603,2.82669 2.82843,3.88908 0.3196,0.31961 0.48992,1.68697 0.7071,2.12132 1.65718,3.31436 6.15692,11.10667 8.48528,13.43503 3.08206,3.08206 6.35214,5.99858 9.54595,9.19239 1.07541,1.07542 2.63395,3.14658 3.18198,4.24264 0.21904,0.43809 1.77028,1.0657 2.12132,1.76777 1.54633,3.09266 11.65294,11.30893 14.84924,12.37437 3.16403,1.56496 5.51474,3.39341 7.77817,5.65685 1.56944,1.56944 13.58492,5.55502 16.61701,7.07107 6.9855,3.49275 10.65938,6.39035 17.67767,9.89949 4.28704,2.14352 9.8332,1.73462 14.14214,3.88909 1.95642,0.97821 4.72516,0.41804 6.71751,1.41421 1.922,0.961 5.24243,0.32312 7.42462,1.41422 1.00117,0.50058 2.87054,-0.15572 3.88909,0.35355 2.73321,1.36661 7.85862,1.10088 9.8995,2.12132 3.00879,1.5044 6.68747,0.86886 9.89949,2.47488 1.77599,0.88799 4.55221,-0.19877 6.36396,0.7071 1.52938,0.76469 4.12385,-0.41295 5.65686,0.35356 2.70089,1.35044 13.40376,2.12132 16.97056,2.12132 3.05511,0 14.0666,0.91763 16.61701,1.76776 2.85188,0.95063 9.11635,-0.35355 12.37437,-0.35355 1.56224,0 19.67167,0.46667 16.61701,-1.06066 3.73032,-0.31643 8.38674,-0.30428 11.3137,-1.76777 1.54489,-0.77244 4.35955,-0.15682 6.01041,-0.7071 1.22815,-0.40939 2.65871,-1.41422 3.88909,-1.41422 1.06584,0 3.30338,-0.82851 3.88909,-1.41421 0.052,-0.052 1.06066,0.0416 1.06066,0 0,-0.0899 -2.99436,0 -3.88909,0 -1.57691,0 -4.96566,-1.75981 -6.36396,-1.06066 -1.6082,0.8041 -4.48159,0.7071 -6.36396,0.7071 -0.76019,0 -2.58555,0.58567 -3.53554,1.06066 -1.56223,0.78112 -4.05472,-0.44751 -5.65685,0.35356 -1.03118,0.51559 -24.96904,-2.05469 -25.8094,-2.47488 -2.82844,-1.41422 -6.65558,-1.31034 -9.89949,-2.12132 -1.43034,-0.35758 -3.63742,0.30261 -4.94975,-0.35355 -1.68157,-0.84078 -4.01289,-0.23868 -5.65685,-1.06066 -2.28823,-1.14411 -4.99647,-1.66549 -7.42463,-2.47487 -4.90676,-1.63559 -10.10996,-6.11564 -14.84924,-8.48528 -1.05132,-0.52567 -0.96082,-1.54108 -2.12132,-2.12132 -1.58875,-0.79438 -3.96008,-0.14152 -5.65685,-0.70711 -3.00702,-1.00234 -6.32313,-1.51845 -9.19239,-2.47488 -4.68961,-1.5632 -8.43651,-8.81444 -13.43503,-11.3137 -1.23103,-0.61552 -8.21553,-1.85157 -8.48528,-2.12132 -2.16291,-2.16291 -9.92968,-5.19552 -13.43503,-6.36397 -2.59878,-0.86625 -4.2419,-4.24227 -6.36396,-5.3033 -1.84147,-1.03293 -2.50245,-2.3754 -4.24264,-3.53553 -1.0561,-0.70407 -2.21552,-0.7699 -3.18198,-1.41421 -3.92429,-2.61619 -7.39077,-5.86999 -11.31371,-8.48528 -3.22559,-2.1504 -5.10862,-6.58773 -8.48528,-8.83884 -9.42711,-6.28474 -18.00737,-14.42413 -21.56676,-25.10229 -1.36792,-4.10375 -1.18006,-8.24648 0.70711,-12.02082 0.94193,-1.88386 -0.53724,-5.45936 0,-7.07106 0.14289,-0.42868 0.62127,-1.23233 0.35355,-1.76777 -0.89501,-1.79003 -1.20644,-3.82709 -2.12132,-5.65685 -0.83576,-1.67153 1.06066,-10.48487 1.06066,-12.72793 0,-0.51028 -0.34087,-3.19466 0,-3.53553 0.24496,-0.24496 0.8157,-0.8157 1.06066,-1.06066 3.17684,-3.17684 13.3947,-11.70759 10.6066,-14.49569 -0.17677,-0.17678 0.17678,-0.88388 0,-1.06066 -0.64088,-0.64088 -1.5653,-1.91886 -2.47487,-2.82843 -0.64818,-0.64818 -2.5338,-0.0589 -3.18198,-0.7071 -1.11225,-1.11225 -5.18887,-2.20103 -7.07107,-2.82843 -2.47015,-0.82338 -6.64447,-4.02934 -9.89949,-5.65686 -1.98994,-0.99496 -9.35931,-10.43968 -10.60661,-9.19238 -0.0709,0.0709 0.0987,0.6084 -0.35355,1.06066 -0.97056,0.97056 1.18024,5.1889 1.41421,5.65685 2.02293,4.04586 4.6121,7.08697 7.77818,10.25305 0.70968,0.70968 2.78819,0.66687 3.53553,1.41421 1.65298,1.65298 6.96926,3.68547 7.77818,5.3033 1.40484,2.8097 -11.55283,3.06755 -11.66726,3.18198 -0.34359,0.34359 0.2357,0.94281 0.35355,1.41422"
       id="path3990"
       inkscape:connector-curvature="0"
       sodipodi:nodetypes="cssssssscsssssc" />
    <path
       style="fill:none;stroke:#000000;stroke-width:2;stroke-linecap:butt;stroke-linejoin:miter;stroke-miterlimit:4;stroke-opacity:1;stroke-dasharray:none"
       d="m 203.01934,191.51916 c 0.4714,0 1.41421,-0.4714 1.41421,0 0,0.47141 -1.88562,0 -1.41421,0 0.52237,0 3.79933,-0.0898 4.24264,0.35356 5.24808,5.24808 28.09083,1.49427 37.1231,6.0104 2.11429,1.05715 5.28133,-0.011 7.42462,1.06066 1.13137,0.56569 3.11127,-0.56568 4.24264,0 3.57226,1.78613 8.026,0.55402 11.66727,1.76777 4.09002,1.36334 19.9098,-1.00525 22.62741,0.35355 2.39041,1.19521 29.27843,2.37919 32.17336,1.41422 2.72818,-0.9094 9.01057,-0.31062 11.66726,0.35355 2.79571,0.69893 18.67108,0.14027 21.21321,-0.7071 2.86378,-0.9546 6.68216,0.95459 9.54594,0 5.64905,-1.88302 14.14295,-2.8e-4 19.44544,-1.76777 2.18525,-0.72842 5.021,0.67148 7.07106,-0.35356 2.98241,-1.4912 14.34016,1.23036 18.03123,0 5.62965,-1.87655 15.8462,-0.21446 21.56675,-2.12132 3.29438,-1.09812 7.86547,0.84024 10.96016,-0.7071 2.6288,-1.31441 9.41276,0.7737 12.37437,-0.70711 1.86652,-0.93326 9.96303,-0.0318 12.72792,-1.41421 1.6049,-0.80246 8.55991,-0.47925 11.13693,-1.06067 1.02824,-0.23198 4.43652,-0.20489 5.48008,-0.35355 3.70815,-0.52825 7.52212,-1.056 10.6066,-1.23744 2.80486,-0.16498 4.97331,-0.54211 6.71751,-0.88388 2.76158,-0.54113 4.74969,-0.69546 7.24785,-1.06066 2.36595,-0.34587 5.673,-0.53833 9.01561,-1.06066 2.27509,-0.25366 3.95372,-0.90078 5.83363,-1.41421 1.96476,-0.5366 3.84663,-0.95817 7.07107,-1.41422 1.8447,-0.2609 4.47774,-0.41187 5.48008,-1.41421"
       id="path3943"
       inkscape:connector-curvature="0"
       sodipodi:nodetypes="csscssssssssssssssscssssscssc" />
    <path
       style="fill:#6c5353;fill-opacity:1;stroke:#000000;stroke-width:2;stroke-linecap:butt;stroke-linejoin:miter;stroke-miterlimit:4;stroke-opacity:1;stroke-dasharray:none"
       d="m 219.9899,196.01434 c -1.43534,2.97553 -2.50908,6.05782 -4.88297,8.49773 -1.95839,2.92613 -3.63549,6.07296 -6.08249,8.63716 -0.18229,2.69125 -2.27838,5.17389 -1.74811,7.46591 3.78126,1.36244 6.50285,1.50816 10.57974,1.47483 3.9439,0.68256 7.69173,2.39047 11.75031,2.75006 3.69128,0.7984 7.62799,0.92945 11.09165,2.48904 2.72757,1.87367 6.4821,1.18915 9.15848,3.23788 2.60506,1.70272 0.48501,-3.96918 0.7754,-5.58273 1.54672,-3.58798 0.67554,-7.60554 1.61262,-11.29067 1.34056,-3.52841 3.34503,-6.72094 3.51238,-10.62423 1.00673,-3.13716 2.11572,-6.89042 5.77453,-7.75044 3.2242,-2.36854 7.63283,-0.50368 9.67208,2.55365 2.43262,2.67001 4.43095,5.91527 2.01421,9.34719 -1.78776,3.71765 -3.54588,7.52138 -6.18887,10.70647 -1.41889,3.89652 -1.65284,8.25949 -4.82503,11.26475 -0.79397,2.03525 -3.02392,3.93623 -0.42415,4.74918 6.17815,2.26319 5.29189,5.86883 4.67189,8.10231 -1.19513,4.02305 -4.657,4.90533 -9.06793,4.73237 -3.25957,-0.0547 -6.453,-1.04198 -9.7498,-1.07109 -9.8303,-1.30875 -19.71947,-2.79495 -29.20647,-5.75356 -3.25242,-2.51658 -7.57682,-1.58157 -11.16293,-3.2026 -3.8107,-1.23362 -5.75537,-2.51806 -11.97993,-3.73953 -3.82685,-0.88519 -6.50901,-5.39046 -5.6506,-8.94236 0.1954,-3.06476 3.78862,-6.49462 7.48061,-6.07352 2.75826,1.3217 3.80472,-6.70529 4.57765,-9.75677 3.09137,-5.61564 2.93768,-12.50686 6.37431,-17.94051 1.51201,-1.35713 2.67649,-3.61122 5.06759,-3.24107 3.6993,-0.27434 8.0715,2.38091 7.63073,6.50614 -0.0935,0.8593 -0.38124,1.68841 -0.7749,2.45441 z"
       id="path3880"
       inkscape:connector-curvature="0"
       sodipodi:nodetypes="cccccccccccccccccccccccccccccc" />
    <path
       style="fill:#5e4646;fill-opacity:1;stroke:none"
       d="m 196.46429,232.11218 c -0.63359,-0.1701 -3.69022,-1.19022 -5.35715,-2.85714 -0.71319,-0.71319 -0.62634,-2.32411 -1.07143,-3.21429 -0.3238,-0.6476 0.35715,-1.43876 0.35715,-1.96428 0,-1.34484 1.88294,-2.95438 2.67857,-3.75 0.46602,-0.46603 1.38903,-0.3176 1.78571,-0.71429 0.32745,-0.32745 3.34794,0.58064 4.46429,-0.53571 0.90086,-0.90087 1.53334,-3.6762 1.78571,-3.92857 0.33497,-0.33497 0.7609,-0.80751 1.07143,-1.42858 0.27898,-0.55795 0.54223,-1.43508 0.89286,-1.78571 0.47491,-0.47491 0.58691,-3.1381 1.07143,-4.10714 1.66198,-3.32396 2.49118,-14.45547 4.28571,-16.25 0.2381,-0.2381 0.11905,-0.83334 0.35714,-1.07143 1.1106,-1.1106 3.12089,-1.60714 4.64286,-1.60714 1.56435,0 2.92716,-0.28713 3.92857,0.71428 0.21045,0.21045 0.83334,0.71429 0.53572,0.71429 -0.28954,0 -1.58226,-0.45887 -2.14286,-0.17857 -1.53713,0.76856 -3.73187,1.03516 -4.46429,2.5 -0.49404,0.98809 1.58598,1.98545 0.89286,2.67857 -0.52136,0.52135 -1.1833,1.36188 -1.78571,1.96428 -0.17143,0.17143 0.11272,0.84598 0,1.07143 -0.50467,1.00934 -1.12617,2.1976 -1.78572,2.85714 -0.43783,0.43784 0.18365,2.13779 -0.35714,2.67858 -0.73904,0.73903 -1.28616,1.85803 -1.78571,2.85714 -0.44337,0.88673 0.25787,2.3414 -0.17858,3.21428 -1.01779,2.03559 -1.60307,4.63472 -2.67857,6.78572 -0.63303,1.26607 -1.54583,1.90297 -2.5,2.85714 -0.49928,0.49929 -0.38412,1.27698 -0.89285,1.78572 -0.69147,0.69147 -2.14286,0.34048 -2.14286,1.78571 0.29401,0.16964 0.61405,0.30058 0.88204,0.50891 0.54607,0.42451 1.92647,1.21936 2.47488,1.76777 0.24693,0.24693 3.7792,0.95078 4.24264,1.41421 0.0834,0.0834 2.39052,0.31138 2.82842,0.53033 0.67386,0.33693 2.68398,-0.14444 3.18198,0.35356 0.67068,0.67067 0.34974,1.76394 1.06066,2.47487 1.2942,1.2942 4.02288,0.774 5.65686,1.59099 0.6698,0.3349 0.97999,0.97999 1.41421,1.41421 0.32647,0.32647 1.16303,0.49313 1.59099,0.70711 0.37658,0.18829 1.01089,-0.13444 1.41422,0 0.62743,0.20914 4.13424,1.29163 4.59619,1.06066 0.93129,-0.46564 3.56095,-0.6944 4.59619,-0.17678 0.7081,0.35405 0.45745,0.811 0.88389,1.23744 1.44274,1.44275 2.8304,1.94454 5.3033,1.94454 1.60494,0 5.22255,1.90417 6.71751,2.65165 1.01217,0.50609 2.18647,0.0326 3.18198,0.53033 0.55586,0.27793 0.56531,0.63621 1.06066,0.88389 0.18979,0.0949 1.9672,1.39156 1.94455,1.41421 -0.23623,0.23623 -7.1557,0.13447 -8.13173,-0.35355 -1.17475,-0.58738 -3.08335,0.22609 -4.24264,-0.35356 -1.14302,-0.57151 -3.20244,-0.27539 -4.06587,-0.7071 -2.77183,-1.38592 -6.35716,-0.7921 -9.01561,-2.12132 -0.6643,-0.33215 -2.87841,0.30356 -3.35875,-0.17678 -0.60133,-0.60132 -2.0747,-0.66048 -2.65165,-1.23744 -2.55446,-2.55445 -7.69874,-2.0816 -11.31371,-3.88908 -0.69513,-0.34757 -1.77975,-0.006 -2.47488,-0.35356 -0.86386,-0.43193 -3.50139,-1.02651 -4.06586,-1.59099 -0.0692,-0.0692 -4.86122,-0.4426 -5.31761,-0.59595 z"
       id="path3896"
       inkscape:connector-curvature="0"
       sodipodi:nodetypes="cssscssscsssssssssssccssssssc" />
    <path
       style="fill:#5e4646;fill-opacity:1;stroke:none"
       d="m 264.67857,195.50504 c -0.65652,-0.17025 -2.20227,0.95227 -3.39286,2.14286 -0.76007,0.76007 -1.83946,1.12517 -2.5,1.78571 -1.03306,1.03307 -1.25893,7.15179 -1.60714,7.5 -0.5654,0.5654 -2.33978,6.28671 -3.03571,7.67857 -0.68841,1.37683 -0.53554,3.57125 -1.42857,4.46429 -0.25356,0.25355 0,2.10156 0,2.5 0,1.03451 0.009,4.66148 0.35714,5.35714 0.29819,0.59637 0.96063,2.90016 0.71428,3.39286 -0.46257,0.92514 -0.7445,1.63736 -1.25,2.14285 -0.30261,0.30262 -1.56159,-0.17857 -1.96428,-0.17857 -0.31003,0 -1.17111,-0.3177 -1.60714,-0.53571 -0.67072,-0.33536 -3.15378,-0.32689 -3.92858,-0.71429 -1.03257,-0.51628 -1.95958,-0.97979 -3.21428,-1.60714 -0.14868,-0.0743 -0.60102,0.11327 -0.71429,0 -0.30767,-0.30768 -1.0064,-0.77106 -1.60714,-1.07143 -1.03518,-0.51759 -4.98808,-0.44047 -6.25,-1.07143 -0.53961,-0.2698 -2.09031,0.23112 -2.5,-0.17857 -0.11599,-0.11599 0.8991,0.27098 1.78571,0.71429 0.76461,0.3823 4.39789,1.00502 4.82143,1.42857 0.87181,0.8718 1.82218,1.46503 2.85715,2.5 0.53832,0.53832 1.68052,0.21526 2.32142,0.53571 2.61505,1.30753 8.52806,4.15052 10.89286,1.78572 0.40266,-0.40266 0.38483,-1.27769 0.71429,-1.60715 2.65941,-2.6594 1.00574,-7.01148 2.67857,-10.35714 0.29494,-0.58988 0.51198,-3.54769 0.89286,-3.92857 1.16283,-1.16283 2.91707,-1.90557 3.57142,-3.21429 0.87353,-1.74705 -1.52889,-7.47792 -0.53571,-9.46428 0.64436,-1.28871 1.32025,-4.05298 2.5,-4.64286 0.70399,-0.35199 1.90814,-1.01528 2.32143,-1.42857 0.23897,-0.23897 3.30906,-0.45192 3.92857,-1.07143 0.40796,-0.40796 0.80533,0.44819 0.53571,0.17857 -0.4096,-0.4096 -4.08066,-2.95899 -4.46428,-3.03571 -0.70788,-0.14158 -1.4344,0.35714 -1.96429,0.35714 -0.12528,0 0.17319,-0.7089 -0.35714,-0.17857"
       id="path3898"
       inkscape:connector-curvature="0" />
    <path
       style="fill:#765b5b;fill-opacity:1;stroke:none"
       d="m 271.22932,200.72017 c 2.54257,4.1636 0.47565,6.71213 -1.99383,9.36153 -0.5135,0.55091 -0.90625,1.52785 -1.35869,2.01325 -0.47827,0.51312 -1.07713,4.30384 -1.44307,4.69644 -0.90088,0.96652 -1.637,2.4303 -2.19455,3.65077 -0.5738,1.25607 -0.88966,4.65829 -1.59644,5.41657 -0.21182,0.22725 -0.002,0.96591 -0.13455,1.2555 -0.54711,1.19764 -1.13504,1.71586 -1.68425,2.9181 -0.43938,0.9618 -0.15975,2.20847 -0.79195,2.88674 -0.32008,0.34339 0.24253,1.81678 0.24745,1.9568 0.0494,1.40555 2.62316,1.40933 3.28758,2.02863 0.47849,0.446 0.71751,0.84139 1.11467,1.21159 0.20601,0.19202 0.058,1.65036 0.069,1.96308 0.0105,0.2995 0.0446,1.2485 -0.12828,1.43396 -0.71962,0.77204 -0.6927,2.0395 -1.5058,2.91183 -0.40087,0.43008 -6.22306,0.24104 -6.61561,-0.12484 -0.32845,-0.30615 -2.42852,-0.36485 -2.88674,-0.79195 -0.22202,-0.20694 -1.2019,-0.13644 -0.89858,-0.1471 2.64037,-0.0928 2.93163,-1.66369 4.01052,-2.82118 0.14349,-0.15395 0.01,-0.56617 0.15337,-0.72011 0.34565,-0.37083 -0.44645,-2.53469 -0.46982,-3.19977 -0.0732,-2.0826 0.54908,-6.88555 1.68082,-8.09974 0.0959,-0.10294 1.23069,-5.20937 1.76235,-5.77976 0.59422,-0.63751 0.90295,-2.16876 1.32105,-3.08402 0.95116,-2.08209 2.23225,-3.73327 3.19005,-5.82994 0.44104,-0.96544 0.52111,-2.10167 0.96414,-3.07147 0.80472,-1.76156 -1.16371,-4.30723 0.84496,-6.46225 1.32995,-1.42684 2.61493,-2.24986 3.63478,-3.34402 0.55555,-0.59602 1.04477,0.27766 1.42142,-0.22864 z"
       id="path3900"
       inkscape:connector-curvature="0" />
    <path
       style="fill:#765b5b;fill-opacity:1;stroke:none"
       d="m 218.96429,191.75504 c -0.2381,-0.17857 -0.89286,-0.29762 -0.71429,-0.53572 0.17857,-0.23809 1.01191,0.53572 0.71429,0.53572 -0.45543,0 -1.10114,-0.71429 -1.60715,-0.71429 -0.82216,0 -2.96059,1.32513 -2.14285,2.14286 0.2791,0.2791 2.35842,1.03443 1.42857,1.96429 -0.26639,0.26639 -2.76427,2.05715 -1.78572,3.03571 0.26514,0.26513 0.41111,0.60636 0.17857,1.07143 -0.49321,0.98643 -1.68341,1.40254 -2.14285,2.32143 -0.24341,0.48681 0.60269,1.54016 0.17857,1.96428 -0.50985,0.50985 -2.32201,2.32258 -2.67857,3.03572 -0.197,0.394 0.53735,0.89121 0.17857,1.25 -0.46242,0.46241 -1.07131,0.71417 -1.42857,1.07143 -0.56221,0.5622 -0.70562,1.24133 -1.25,1.78571 -0.3383,0.3383 -0.71846,1.96011 -0.71429,1.96429 0.20361,0.2036 2.41167,-3.30453 2.85714,-3.75 0.79939,-0.79939 1.6226,-1.44403 2.5,-2.32143 0.46254,-0.46254 0.33037,-1.22323 0.71429,-1.60715 1.92796,-1.92795 2.18208,-5.39636 4.10714,-7.32142 0.58791,-0.58791 0.52469,-1.77469 1.25,-2.5 0.51357,-0.51357 0.35715,-2.70332 0.35715,-3.39286 z"
       id="path3902"
       inkscape:connector-curvature="0" />
    <path
       style="fill:#765b5b;fill-opacity:1;stroke:none"
       d="m 541.72348,191.87272 c 1.04343,0.53063 0.17403,1.23469 1.76777,2.82842 1.64631,1.64631 3.43971,2.0255 4.94975,3.53554 1.28323,1.28322 0.67279,2.61734 1.94454,3.88908 0.63325,0.63325 2.26432,3.64476 2.65165,4.41942 1.66078,3.32156 3.06358,8.1901 5.3033,10.42983 0.36442,0.36441 0.3427,1.75691 0.70711,2.12132 0.71168,0.71168 0.56004,7.98466 1.06066,8.48528 0.76602,0.76602 0.76602,7.71926 0,8.48528 -0.6043,0.60431 0.0602,7.71792 -1.06066,8.83884 -0.44662,0.44662 -1.52969,11.78273 -2.82843,13.08147 -4.89836,4.89836 -9.94111,8.32931 -16.61701,11.66726 -0.13315,0.0666 -1.31608,-1.92506 -1.41421,-2.12132 -0.19191,-0.38381 -4.55244,-2.45299 -5.3033,-2.82842 -2.48508,-1.24255 -9.61683,1.69687 -12.37437,-1.06066 -1.55068,-1.55069 -1.8645,-3.93746 -4.59619,-5.30331 -2.40957,-1.20478 -6.70819,-1.40488 -8.48528,-3.18198 -0.88711,-0.88711 1.06066,-2.11691 1.06066,-1.76776 0,0.0845 -1.69583,-2.26111 -3.18198,-4.24264 -1.61609,-2.15478 -4.31398,-5.51575 -6.71752,-6.71752 -1.28476,-0.64238 -1.13794,-2.33673 -2.12132,-2.82843 -1.7519,-0.87595 -3.97869,-2.42208 -6.01041,-2.82842 -1.34146,-0.2683 -3.36935,0.25986 -4.59619,-0.35356 -0.78433,-0.39216 -1.34103,-1.97495 -1.76777,-2.82842 -0.51446,-1.02893 -2.39178,-2.03823 -3.18198,-2.82843 -0.35788,-0.35789 1.78168,-1.04674 0.70711,-2.12132 -1.73791,-1.73791 -10.146,-3.78203 -11.66726,-5.3033 -0.73626,-0.73625 -1.16291,-1.87001 -2.12132,-2.82843 -1.99183,-1.99183 -6.36536,-0.23617 -8.83884,-1.06066 -2.48085,-0.82695 -1.5578,-1.48601 -3.53553,-2.47487 -0.93792,-0.46896 -3.12248,0.098 -3.88909,0.35355 -1.16825,0.38942 -2.69054,-0.29964 -3.88909,0 -1.81885,0.45471 -9.45491,1.50524 -10.96015,0 -0.5963,-0.5963 -1.66427,-2.26788 -2.12132,-3.18198 -0.65859,-1.31718 -9.2778,-4.15723 -7.42462,-6.01041 1.31496,-1.31496 3.01539,-2.56836 4.94974,-3.53553 0.89367,-0.44683 3.36061,0.61964 4.24264,1.06066 1.11535,0.55767 4.17465,-0.33089 5.3033,-0.70711 2.65677,-0.88559 5.73334,0.70711 8.13173,0.70711 2.83528,0 6.71134,-1.76931 9.54594,-1.06066 2.23839,0.5596 8.49227,2.8261 10.60661,2.12132 2.11658,-0.70553 5.35124,-2.52282 6.71751,-3.88909 0.64377,-0.64377 8.42775,-1.739 9.8995,-2.47487 2.22433,-1.11217 5.24129,2.50588 7.42462,1.41421 4.09043,-2.04522 6.65928,-3.88909 12.37437,-3.88909 5.16473,0 8.89334,-2.32535 12.72792,-4.24264 0.43918,-0.21959 2.18332,-0.062 2.47487,-0.35355 0.97829,-0.97829 2.91029,-1.45514 4.24264,-2.12132 0.56136,-0.28068 11.63039,-1.45108 12.02082,-1.06066 0.96852,0.96852 2.10299,1.41055 3.88908,1.76777 z"
       id="path3947"
       inkscape:connector-curvature="0"
       sodipodi:nodetypes="csssscssscscsssssssssssssssssscssssssssssssssssssc" />
    <path
       style="fill:#765b5b;fill-opacity:1;stroke:none"
       d="m 297.41809,177.02347 c 6.2435,3.46995 25.54053,1.41422 37.83021,1.41422 3.89073,0 9.56108,1.64487 13.43503,0.35355 3.04942,-1.01647 21.21001,-1.06226 24.04163,0.35355 1.33963,0.66982 2.96687,-0.81466 3.88909,-0.35355 3.76779,1.8839 23.11051,0 28.28427,0 3.8553,0 23.39018,2.09349 25.45585,1.06066 3.89534,-1.94767 9.20332,-0.71075 13.43503,-2.12132 0.69773,-0.23258 1.8218,0.32654 2.47487,0 3.92618,-1.96309 27.73446,-2.12132 33.94112,-2.12132 4.73043,0 21.53153,-0.86627 24.74874,-2.47487 2.30631,-1.15316 6.71976,-0.1779 9.19239,-1.41422 1.88734,-0.94366 11.57989,-1.32684 12.72792,-2.47487 0.71443,-0.71443 3.15585,-0.68097 3.88909,-1.41421 1.55406,-1.55407 3.93486,-1.81354 5.65685,-3.53554 0.94281,-0.94281 1.53207,0.58926 2.47487,-0.35355 2.44454,-3.25707 1.4534,3.92415 1.41422,5.65686 0,3.04088 0.48886,8.70353 -2.47487,11.66726 -2.46418,2.46417 -8.11823,1.58424 -10.6066,2.82842 -1.38715,0.69357 -3.24132,0.38322 -4.5962,1.06066 -8.71253,4.35627 -25.73775,2.47488 -36.06244,2.47488 -4.39725,0 -8.92544,0.0217 -13.08148,1.06066 -1.14243,0.2856 -4.09775,1.30988 -5.3033,0.7071 -1.01134,-0.50567 -1.08506,-1.06879 -2.12132,-1.41421 -3.50431,-1.1681 -15.72938,-0.70711 -20.15254,-0.70711 -1.21193,0 -3.88253,0.53362 -4.94975,0 -2.36433,-1.18216 -10.58181,-1.6313 -13.43503,-1.06066 -6.50713,1.30143 -18.45983,1.10708 -25.10229,0 -2.56795,-0.42799 -10.53106,-0.6376 -13.08148,0 -0.94524,0.23631 -2.38497,0.6412 -3.53553,0.35356 -3.34915,-0.83729 -9.53409,-1.06066 -13.08148,-1.06066 -3.16168,0 -6.23418,-0.24167 -8.83883,1.06066 -2.21712,1.10855 -9.66021,-0.0988 -12.37437,0.35355 -7.29998,1.21666 -16.20831,1.19689 -22.98097,-1.06066 -3.62383,-1.20794 -7.71779,-0.56913 -11.31371,-1.76777 -1.63144,-0.54381 -3.62251,0.20671 -5.3033,-0.35355 -1.37886,-0.45962 -3.21734,0.45962 -4.59619,0 -1.53999,-0.51333 -4.19965,0.0215 -5.65686,-0.70711 -1.71512,-0.85756 -3.49849,-2.10897 -5.65685,-2.82843 -1.32888,-0.44295 -2.8902,-0.0154 -4.24264,-0.35355 -2.76236,-0.69059 -5.56438,-1.61909 -8.13173,-2.47487 -0.90387,-0.30129 -6.21128,-2.12132 -6.71752,-2.12132 -1.17851,0 -2.35702,0 -3.53553,0 -0.2357,0 -0.70711,0.2357 -0.70711,0 0,-0.0637 1.85291,0.35355 2.12132,0.35355 2.59273,0 5.18545,0 7.77818,0 5.08884,0 9.98106,2.38785 14.84924,1.41421 z"
       id="path3949"
       inkscape:connector-curvature="0"
       sodipodi:nodetypes="cssssssssssssssccsssssssssssssssssssssscssssssc" />
  </g>
</svg>
