<?xml version="1.0" encoding="UTF-8" standalone="no"?>
<!-- Created with Inkscape (http://www.inkscape.org/) -->

<svg
   xmlns:dc="http://purl.org/dc/elements/1.1/"
   xmlns:cc="http://creativecommons.org/ns#"
   xmlns:rdf="http://www.w3.org/1999/02/22-rdf-syntax-ns#"
   xmlns:svg="http://www.w3.org/2000/svg"
   xmlns="http://www.w3.org/2000/svg"
   xmlns:sodipodi="http://sodipodi.sourceforge.net/DTD/sodipodi-0.dtd"
   xmlns:inkscape="http://www.inkscape.org/namespaces/inkscape"
   width="744.09448819"
   height="1052.3622047"
   id="svg2"
   version="1.1"
   inkscape:version="0.48.2 r9819"
   sodipodi:docname="clocker.svg">
  <defs
     id="defs4" />
  <sodipodi:namedview
     id="base"
     pagecolor="#ffffff"
     bordercolor="#666666"
     borderopacity="1.0"
     inkscape:pageopacity="0.0"
     inkscape:pageshadow="2"
     inkscape:zoom="0.70710678"
     inkscape:cx="299.01724"
     inkscape:cy="508.52082"
     inkscape:document-units="px"
     inkscape:current-layer="layer1"
     showgrid="false"
     inkscape:window-width="1364"
     inkscape:window-height="766"
     inkscape:window-x="0"
     inkscape:window-y="0"
     inkscape:window-maximized="0" />
  <metadata
     id="metadata7">
    <rdf:RDF>
      <cc:Work
         rdf:about="">
        <dc:format>image/svg+xml</dc:format>
        <dc:type
           rdf:resource="http://purl.org/dc/dcmitype/StillImage" />
        <dc:title></dc:title>
      </cc:Work>
    </rdf:RDF>
  </metadata>
  <g
     inkscape:label="Layer 1"
     inkscape:groupmode="layer"
     id="layer1">
    <path
       style="fill:#ff6600;fill-opacity:1;stroke:#ffffff;stroke-width:1px;stroke-linecap:butt;stroke-linejoin:miter;stroke-opacity:0"
       d="m 243,610.36218 c -11.90194,8.57993 -30.80443,46.31637 -36,88 -1.56052,12.51992 5.80237,17.59882 13,14 10.0522,-5.0261 20.67626,-49.69065 26,-63 5.22218,-13.05545 14.49638,-27.99275 20,-39"
       id="path3628"
       inkscape:connector-curvature="0"
       sodipodi:nodetypes="csssc" />
    <path
       style="fill:#ff9955;stroke:#ffffff;stroke-width:1px;stroke-linecap:butt;stroke-linejoin:miter;stroke-opacity:0"
       d="m 203.64675,431.52243 c -1.88562,-1.88562 -7.54247,-3.77124 -5.65685,-5.65686 1.88562,-1.88561 7.54247,7.54248 5.65685,5.65686 -5.77892,-5.77892 -25.47057,-15.58581 -28.28427,-21.2132 -3.45111,-6.90222 3.53791,-12.02319 5.65686,-14.14214 3.43556,-3.43556 4.42217,-11.49324 8.48528,-15.55635 16.77623,-16.77623 28.87847,-32.82401 50.91169,-43.84062 28.48711,-14.24356 65.11884,-24.04163 100.40916,-24.04163 47.27213,0 88.7219,20.83965 113.13708,45.25483 3.81367,3.81367 9.87733,5.63469 14.14214,9.8995 17.14124,17.14124 26.09165,39.45538 36.76955,60.81118 3.90491,7.80982 1.45726,18.51391 4.24264,26.87006 1.88408,5.65224 6.20647,22.94239 2.82843,29.69848 -4.21802,8.43604 -2.88778,17.08928 -7.07107,25.45585 -4.97206,9.94411 -9.30464,20.0235 -14.14213,29.69848 -3.57637,7.15273 -14.80641,17.63483 -19.79899,22.62742 -4.16247,4.16247 -6.0337,10.27634 -9.8995,14.14214 -29.33794,29.33794 -63.63296,65.05382 -115.96551,65.05382 -9.66895,0 -24.08341,10.58571 -33.94113,5.65685 -13.50501,-6.7525 -48.66375,-41.91995 -52.3259,-56.56854 -2.02337,-8.0935 -5.04745,-15.94716 -7.07107,-24.04163 -1.28837,-5.15349 0.29761,-10.42089 -1.41421,-15.55635"
       id="path3554"
       inkscape:connector-curvature="0" />
    <path
       style="fill:#ff6600;stroke:#ffffff;stroke-width:1px;stroke-linecap:butt;stroke-linejoin:miter;stroke-opacity:0;fill-opacity:1"
       d="M 449.25 353.5 C 447.75917 355.30164 445.84308 356.21853 442.65625 355.15625 C 420.83443 347.88231 437.08446 373.44679 436.28125 374.25 C 435.17572 375.35553 417.63861 370.95514 415.0625 373.53125 C 414.02742 374.56634 418.96534 378.84034 420.03125 379.90625 C 424.15868 384.03369 426.36063 391.89188 429.21875 394.75 C 429.40592 394.93717 429.21875 396.58383 429.21875 396.875 C 429.21875 403.47239 405.57662 406.45162 412.25 413.125 C 412.72141 413.59641 411.7786 415.49734 412.25 415.96875 C 417.49441 421.21316 422.10783 443.4485 424.96875 452.03125 C 426.50197 456.6309 429.34947 461.05415 430.625 466.15625 C 432.24426 472.63331 432.8301 479.33797 434.15625 485.96875 C 438.08753 505.62514 428.4401 525.75065 428.5 544.65625 L 398.8125 567.28125 C 408.43963 572.09481 434.50747 571.90863 445.46875 570.8125 C 451.6221 570.19717 457.83861 570.69963 463.875 568.6875 C 465.07932 568.28606 466.35394 567.78711 467.6875 567.25 C 468.64529 565.75136 469.67943 564.28932 470.9375 563.03125 C 475.93008 558.03866 487.14238 547.55898 490.71875 540.40625 C 495.55624 530.73127 499.90294 520.66286 504.875 510.71875 C 509.05829 502.35218 507.71948 493.68604 511.9375 485.25 C 515.31554 478.49391 511.00908 461.21474 509.125 455.5625 C 506.33962 447.20635 508.77991 436.49732 504.875 428.6875 C 494.1971 407.3317 485.23499 385.01624 468.09375 367.875 C 463.82894 363.61019 457.78242 361.78242 453.96875 357.96875 C 452.46299 356.46299 450.88271 354.97451 449.25 353.5 z "
       id="path3572" />
    <path
       style="fill:#d45500;stroke:#ffffff;stroke-width:1px;stroke-linecap:butt;stroke-linejoin:miter;stroke-opacity:0;fill-opacity:1"
       d="M 505.46875 430.25 C 504.58391 430.35606 503.75161 430.52964 503.46875 430.8125 C 501.39265 432.8886 506.42009 444.77409 507 447.09375 C 507.57338 449.38725 508.09757 458.30486 507 460.5 C 506.15136 462.19728 502.75 460.16325 502.75 461.9375 C 502.75 467.3118 508.93775 478.562 505.59375 485.25 C 503.35985 489.7178 501.10735 493.26766 497.8125 496.5625 C 495.59952 498.77549 491.00313 493.89999 489.3125 497.28125 C 485.06516 505.77593 485.46954 516.68671 478.71875 523.4375 C 478.09641 524.05984 474.26908 529.61283 472.34375 527.6875 C 471.36479 526.70854 473.95107 514.96875 473.0625 514.96875 C 471.87915 514.96875 468.55135 519.7098 468.09375 520.625 C 465.06335 526.6858 461.8179 532.55709 457.5 536.875 C 455.62032 538.75468 452.31421 539.96703 450.4375 541.84375 C 449.89999 542.38126 447.64807 542.16034 446.90625 542.53125 C 446.46193 542.75341 444.79479 543.98229 444.0625 543.25 C 442.71109 541.89856 448.74909 516.65715 442.65625 522.75 C 433.4838 531.92245 421.58643 542.38231 411.53125 552.4375 C 408.67963 555.28911 399.17922 559.63818 395.28125 560.9375 C 389.9995 562.69808 386.05983 569.16756 381.125 570.8125 C 369.14199 574.80684 354.46213 582.09486 341.53125 584.25 C 334.43602 585.43254 326.32061 586.26813 319.625 588.5 C 316.85368 589.42377 309.22059 588.95404 306.875 587.78125 C 302.0951 585.3913 281.89733 589.34821 277.90625 591.34375 C 276.12522 592.23426 274.17544 590.7933 272.9375 592.03125 C 268.98579 595.98296 270.64695 606.5081 272.3125 612.5625 C 284.77551 627.41406 302.42545 643.55648 311.125 647.90625 C 320.98272 652.83511 335.39355 642.25 345.0625 642.25 C 397.39505 642.25 431.69331 606.52544 461.03125 577.1875 C 464.89705 573.3217 466.77503 567.19372 470.9375 563.03125 C 475.93008 558.03866 487.14238 547.55898 490.71875 540.40625 C 495.55624 530.73127 499.90294 520.66286 504.875 510.71875 C 509.05829 502.35218 507.71948 493.68604 511.9375 485.25 C 515.31554 478.49391 511.00908 461.21474 509.125 455.5625 C 506.52101 447.75052 508.48555 437.88286 505.5625 430.25 C 505.53037 430.25366 505.50082 430.24616 505.46875 430.25 z "
       id="path3567" />
    <path
       style="fill:#ff9955;fill-opacity:1;stroke:#ffffff;stroke-width:1.24194074px;stroke-linecap:butt;stroke-linejoin:miter;stroke-opacity:0"
       d="m 127.96454,426.72932 c -9.73754,3.27696 -14.38611,-6.67747 -21.58402,-11.213 -27.502028,-17.32951 -51.882591,-55.04983 -53.843864,-88.83956 -1.479325,-25.48614 27.513036,-56.57378 47.567824,-67.91261 49.12607,-27.77552 99.6562,-6.46854 149.21435,5.6865 8.15515,2.00019 27.52007,4.34888 33.35918,11.47034 1.70286,2.07686 -0.71886,3.28658 -0.12868,5.88758 0.13015,0.57354 1.23321,3.72627 0.94816,4.17863 -2.52199,4.00243 -9.64426,8.2145 -13.42536,11.83386 -24.29599,23.25673 -50.274,44.61816 -75.61283,66.9532 -23.14534,20.40157 -43.0815,45.81198 -66.49476,61.95506 z"
       id="path2989"
       inkscape:connector-curvature="0" />
    <path
       style="fill:#ffb380;stroke:#ffffff;stroke-width:1px;stroke-linecap:butt;stroke-linejoin:miter;stroke-opacity:0;fill-opacity:1"
       d="M 151.15625 245.15625 C 137.34602 245.40925 123.6068 247.91249 109.9375 253.875 C 121.17779 253.20717 134.50452 251.375 139 251.375 C 144.87063 251.375 136.597 258.972 139 261.375 C 142.36941 264.74441 173.35988 253.73489 177 257.375 C 178.50184 258.87684 182.12724 260.50225 184 262.375 C 185.67821 264.05321 183.00626 266.87813 186 268.375 C 190.06136 270.40568 206.41397 261.78897 209 264.375 C 210.7477 266.1227 205.26609 272.64109 208 275.375 C 211.61766 278.99266 222.62885 269.00385 226 272.375 C 227.8385 274.21351 230.57131 280.16066 235 282.375 C 238.57694 284.16347 247.00304 278.37804 250 281.375 C 252.54627 283.92127 251.90248 290.32624 256 292.375 C 262.52426 295.63713 265.37604 290.77889 272.21875 295.9375 C 276.113 292.77746 281.40014 289.3325 283.5 286 C 283.78505 285.54764 282.69265 282.38604 282.5625 281.8125 C 281.97232 279.2115 284.39036 277.98311 282.6875 275.90625 C 276.84839 268.78479 257.46765 266.43769 249.3125 264.4375 C 216.78996 256.46076 183.84446 244.55741 151.15625 245.15625 z "
       id="path3597" />
    <path
       style="fill:#d45500;fill-opacity:0.99526152;stroke:#ffffff;stroke-width:1px;stroke-linecap:butt;stroke-linejoin:miter;stroke-opacity:0"
       d="m 398.31303,270.36717 c -5.64135,-7.65843 -9.1483,-94.97602 -7.88939,-112.01677 0.0934,-1.26467 2.17779,-19.26568 0.80683,-20.23238 -0.11938,-0.0842 -70.80566,3.0429 -78.33106,3.49934 -28.3606,1.72016 -147.86239,14.25159 -161.5448,45.15833 -11.42286,25.80271 31.89536,78.52249 43.63922,102.96416 1.25468,7.30858 27.08976,36.53874 28.00617,35.62233 1.33514,-1.33514 -3.74218,-9.74218 -4,-10 -1.36557,-1.36557 -1.63443,-5.63443 -3,-7 -6.01118,-6.01118 -10.06915,-17.06914 -16,-23 -3.81432,-3.81432 -4.65571,-13.65571 -10,-19 -3.82357,-3.82357 -7.02032,-18.02032 -11,-22 -5.0787,-5.0787 -27.71538,-49.28462 -18,-59 9.2267,-9.2267 21.99899,-9.99949 36,-17 2.56079,-1.28039 6.43921,-0.7196 9,-2 33.87899,-16.93949 105.62034,-20 146,-20 10.09959,0 17.32169,-2 26,-2 1.1183,0 2.83996,-1.16004 3,-1 7.50599,7.506 6.24646,72.50708 1,83 -2.66345,5.3269 1,16.65163 1,21 0,2.70978 1.72442,15.27558 0,17 -0.33193,0.33193 -3.3034,4.6966 -2,6 1.37737,1.37737 10.37246,-1.18623 12,-2 1.69308,-0.84654 3.5555,2.708 5.31303,2.00499 1.34498,-0.53799 1.12465,-2.66999 1.68697,-4.00499"
       id="path3019"
       inkscape:connector-curvature="0" />
    <path
       style="fill:#ffb380;stroke:#ffffff;stroke-width:1px;stroke-linecap:butt;stroke-linejoin:miter;stroke-opacity:0"
       d="M 340.8125 312.71875 C 305.52218 312.71875 268.89336 322.53769 240.40625 336.78125 C 218.37303 347.79786 206.27623 363.84877 189.5 380.625 C 188.96672 381.15828 188.50228 381.75482 188.0625 382.40625 C 194.72635 379.51545 201.03485 376.15265 202.9375 374.25 C 205.62763 371.55986 225.64329 368.53773 231.21875 365.75 C 234.10081 364.30897 238.33766 365.01867 241.125 363.625 C 246.37424 361.00038 262.89539 356.72961 265.875 353.75 C 266.29862 353.32638 289.04948 350.27213 292.03125 348.78125 C 298.67158 345.46108 272.2934 346.61284 279.3125 339.59375 C 282.13988 336.76636 291.16894 339.04981 294.15625 336.0625 C 294.32119 335.89757 299.04394 333.15947 300.65625 332.59375 C 299.84323 332.04776 298.49902 330.28224 299.09375 329.6875 C 301.03772 327.74353 304.38393 327.46577 308.3125 326.15625 C 313.61489 324.38878 342.37194 327.44056 342.9375 326.875 C 343.94754 325.86496 336.99819 320.09557 338 319.09375 C 339.83321 317.26055 352.33496 318.08627 355.6875 316.96875 C 357.47011 316.37455 364.33796 315.87387 369.65625 315.3125 C 360.37034 313.6432 350.71206 312.71875 340.8125 312.71875 z M 300.65625 332.59375 C 300.98242 332.81279 301.21875 332.86868 301.21875 332.53125 C 301.21875 332.42128 300.98559 332.47819 300.65625 332.59375 z "
       id="path3577" />
    <path
       style="fill:#ff6600;stroke:#ffffff;stroke-width:1px;stroke-linecap:butt;stroke-linejoin:miter;stroke-opacity:0"
       d="m 205.06097,367.88282 c -32.59317,15.87643 -50.84498,56.00123 -54.09336,78.23528 -5.34576,29.80568 -6.22326,62.81618 1.14398,87.14574 11.72894,35.20816 29.69106,64.10146 60.29808,84.76736 32.99359,22.86202 79.95513,31.06554 116.45168,27.24608 29.01531,-5.08149 64.83589,-19.42103 88.5739,-36.6663 21.33544,-24.59579 28.76191,-46.81973 41.52587,-76.06749 6.5332,-38.49029 1.59158,-84.74441 -17.37825,-119.39908 -11.18914,-28.40481 -44.93616,-43.52238 -71.96167,-54.85099 -29.64498,-6.86874 -55.87965,-15.52263 -87.42523,-13.26416 -30.59655,-5.68447 -51.08442,11.40265 -77.135,22.85356 z"
       id="path3038"
       inkscape:connector-curvature="0"
       sodipodi:nodetypes="ccccccccccc" />
    <path
       style="fill:#ffe6d5;stroke:#ffffff;stroke-width:1.00939976999999992px;stroke-linecap:butt;stroke-linejoin:miter;stroke-opacity:0"
       d="m 172.28422,421.36218 c -12.24748,25.12383 -13.83775,44.44792 -15.33214,72.18848 -5.23341,24.79857 9.6677,47.83777 20.5611,69.02072 6.30515,13.19618 15.33218,32.74835 30.68467,41.69565 14.40383,12.67673 35.24761,23.20844 54.15307,26.40877 24.07847,1.51384 37.9453,12.90639 62.31549,6.51278 20.10713,-1.49363 44.78404,-10.55275 55.24123,-17.77171 15.40578,-11.85615 37.20514,-30.3393 49.85353,-48.2468 13.56762,-19.96766 17.42049,-33.00962 21.4878,-56.39508 4.62671,-28.93285 -11.39564,-76.00729 -24.93165,-99.04689 -13.7891,-22.55646 -35.31508,-41.76137 -62.52089,-46.16594 -28.84507,-7.59481 -59.0193,-12.65312 -88.77547,-8.21134 -21.23181,0.39422 -37.83787,15.69145 -58.44409,20.07491 -25.19432,11.10122 -36.91837,26.14936 -44.29265,39.93645 z"
       id="path3179"
       inkscape:connector-curvature="0"
       sodipodi:nodetypes="cccccccccccccc" />
    <path
       style="fill:#ff6600;stroke:#ffffff;stroke-width:1px;stroke-linecap:butt;stroke-linejoin:miter;stroke-opacity:0;fill-opacity:1"
       d="m 400.5,543.36218 c -6.79057,1.03788 -15.96265,10.94397 -20,17 -0.6755,1.01325 -4.92145,4.07856 -3.5,5.5 0.46202,0.46202 24.76538,-1 27.5,-1 3.43439,0 7.5,-1.48109 7.5,-1 0,0.24448 -6.31551,19.18449 -5.5,20 0.65296,0.65296 3.48056,-0.24028 4,-0.5 0.56155,-0.28077 2.61789,-0.11789 3,-0.5 2.42436,-2.42436 -0.088,-10.23603 1,-13.5 0.56628,-1.69884 0.29465,-4.79464 1.5,-6 0.31674,-0.31674 6.12737,2.37263 7.5,1 0.17551,-0.1755 -0.5,-2.22569 -0.5,-3 0,-0.63594 0.40478,-3.59522 0,-4 -1.02872,-1.02871 -7.33347,3.16653 -8.5,2 -0.27716,-0.27715 1.30528,-5.91583 1.5,-6.5 0.96604,-2.89813 -0.83755,-7.8249 0.5,-10.5 0.11825,-0.2365 1,-1.26769 1,-1.5 0,-0.4714 -0.66667,0.66667 -1,1 -1.30703,1.30703 -4.35439,0.85439 -5.5,2 -1.03256,1.03256 1.88828,10.61172 -0.5,13 -2.90074,2.90074 -12.37449,0.95817 -17,2.5 -0.26456,0.0882 -7,2.74777 -7,1 0,-1.45604 14.22602,-10.22602 16,-12 0.41558,-0.41558 -0.92208,-0.92208 -1,-1 -0.35663,-0.35663 -0.91876,-3.67503 -1,-4 z"
       id="path3421"
       inkscape:connector-curvature="0" />
    <path
       style="fill:#ff6600;fill-opacity:1;stroke:#ffffff;stroke-width:1px;stroke-linecap:butt;stroke-linejoin:miter;stroke-opacity:0"
       d="m 416.5,490.36218 c 2.40009,-8.86952 10.01326,-12 19,-12 2.01875,0 5.12156,0.12156 6.5,1.5 1.53414,1.53414 4.05488,10.44513 1.5,13 -1.24791,1.24791 -3.57802,1.57802 -5,3 -0.47624,0.47625 4.23615,2.23615 5.5,3.5 2.67623,2.67623 4.10748,10.28505 2,14.5 -2.23534,4.47068 -5.96149,9.3205 -11,11 -1.56381,0.52127 -3.40981,-0.0301 -5,0.5 -0.70221,0.23407 -1.51824,0.99088 -2.5,0.5 -1.73082,-0.86541 -4.18606,-1.89535 -6,-2.5 -0.79602,-0.26534 -2.38856,-0.38856 -3,-1 -0.90613,-0.90613 -5.72787,-7.77213 -3.5,-10 0.13235,-0.13235 1.29412,0 1.5,0 5.01014,0 1.33121,4.33121 3.5,6.5 1.03713,1.03713 3.0635,1.0635 4,2 0.31716,0.31716 1.58371,-0.20814 2,0 5.20499,2.6025 11.86762,-5.36762 14,-7.5 0.4434,-0.4434 0.19867,-1.39734 0.5,-2 2.57211,-5.14422 -0.49265,-10.49264 -3.5,-13.5 -2.49794,-2.49794 -13.458,5.542 -15,4 -0.43148,-0.43147 1.2645,-3.2645 1.5,-3.5 1.26709,-1.26709 3.23291,1.2671 4.5,0 3.71412,-3.71412 14.25107,-8.74893 7.5,-15.5 -8.07092,-8.07092 -15.72246,8.65551 -16.5,8.5 -0.8801,-0.17602 -1.66667,-0.66666 -2.5,-1 z"
       id="path3227"
       inkscape:connector-curvature="0" />
    <path
       style="fill:#483737;stroke:#ffffff;stroke-width:0.83385897px;stroke-linecap:butt;stroke-linejoin:miter;stroke-opacity:0"
       d="m 414.2506,461.69546 c 2.61321,4.49041 8.7837,7.35935 9.4375,12.71875 -5.01035,5.42323 -14.04129,5.00848 -17.97829,11.71489 -2.7586,2.4619 -6.91104,9.80523 -11.14671,5.87886 -2.07964,-3.53686 0.10947,-9.48106 -1.15625,-12.09375 -12.23925,7.68441 -24.82112,15.40155 -37.78125,21.625 -7.08702,-0.20608 -6.80537,-9.20453 -8.5,-14.125 -14.78719,4.8681 -26.94137,15.83082 -41.15625,22.3125 3.16191,4.96624 8.97446,-0.27556 12.9375,-1.34375 4.80577,-1.51646 8.84212,-5.72456 13.625,-6.6875 4.63665,2.60671 1.93644,9.74547 3.1875,13.96875 0.11771,2.02828 0.80436,5.21889 3.3125,2.3125 11.10479,-6.01635 22.35224,-11.89939 34.0625,-16.4375 3.88615,-2.1577 7.33567,-9.71618 12.53125,-7.0625 1.97241,3.53323 -2.50615,8.15566 -0.71875,11.0625 3.63605,1.5174 7.2812,0.81588 9.46875,-2.53125 8.61786,-7.8806 18.80141,-14.24274 29.96875,-17.53125 -0.77202,-4.13196 6.80023,-4.6583 5.64992,0.18811 0.74667,1.60179 1.85138,10.86603 2.35008,5.43689 2.57149,-9.98816 5.49329,-20.66068 12.65625,-28.3125 -10.20233,-1.0239 -21.0166,2.14065 -30.84375,-2.03125 -1.53555,-0.69835 -0.17402,0.47241 0.0937,0.9375 z"
       id="path3067"
       inkscape:connector-curvature="0" />
    <path
       style="fill:#ff6600;stroke:#ffffff;stroke-width:1px;stroke-linecap:butt;stroke-linejoin:miter;stroke-opacity:0;fill-opacity:1"
       d="m 174,430.86218 c 0.5,-0.66666 0.83333,-2.5 1.5,-2 0.66667,0.5 -2.08926,2.58926 -1.5,2 3.74656,-3.74655 8.41873,-7.41873 12,-11 0.0954,-0.0954 0.59054,-1.5 1,-1.5 0.39902,0 -0.5,5.35919 -0.5,5.5 0,5.93216 -0.66005,12.98016 -2.5,18.5 -0.34737,1.0421 0.7707,4.7293 0,5.5 -0.63783,0.63784 -0.5,1.68834 -0.5,3 0,0.51471 -0.87255,0.62745 -0.5,1 0.40743,0.40743 8.10434,-3.70869 7,-1.5 -0.75277,1.50553 -1.25447,3.00894 -2,4.5 -0.36868,0.73736 0.56054,2.93946 0,3.5 -0.13235,0.13236 -1.29412,0 -1.5,0 -4.42177,0 -9.95799,-0.521 -14,1.5 -0.59373,0.29687 -3.99482,2.00518 -4,2 -0.0903,-0.0903 1.06811,-7.13621 1.5,-8 0.18599,-0.37198 -0.0889,-4.5 0.5,-4.5 0.83008,0 6.26417,1.23583 7.5,0 1.92831,-1.92831 -0.22977,-8.04047 1,-10.5 0.67963,-1.35927 3.74655,-8.25345 2.5,-9.5 -0.9203,-0.9203 -6.6464,1.32928 -7.5,1.5 z"
       id="path3515"
       inkscape:connector-curvature="0" />
    <path
       style="fill:#483737;stroke:#ffffff;stroke-width:1px;stroke-linecap:butt;stroke-linejoin:miter;stroke-opacity:0"
       d="m 156.97771,462.63513 c 1.88561,0.94281 3.9703,1.56351 5.65685,2.82843 3.51922,2.63941 7.43075,10.61885 9.89949,15.55634 2.96863,5.93726 9.58615,11.31371 8.48529,11.31371 -2.35703,0 0,-4.71404 0,-7.07107 0,-1.5813 -3.41678,-7.89692 -1.41422,-9.89949 0.7092,-0.70919 8.78421,5.95578 9.8995,7.07107 4.17425,4.17426 16.69273,16.41491 18.38477,19.79899 0.52622,1.05244 5.84653,4.24264 5.65686,4.24264 -1.05409,0 0.94281,-1.88562 1.41421,-2.82843 1.03845,-2.07689 0.30135,-4.84534 1.41421,-7.07107 1.3538,-2.70759 -0.83865,-10.73814 2.82843,-7.07106 7.30701,7.30701 17.10504,7.20554 24.04163,14.14213 0.58824,0.58824 6.01888,8.12326 7.07107,7.07107 2.55748,-2.55748 0.95768,-14.14214 5.65685,-14.14214 3.24106,0 29.6798,33.95982 35.35534,28.28427 3.59003,-3.59003 6.54749,-10.79012 9.8995,-14.14213 1.80006,-1.80006 -12.1567,-4.81386 -14.14214,-2.82843 -1.34593,1.34593 -0.49434,8.48528 -2.82842,8.48528 -2.4037,0 0.28546,-5.37139 -1.41422,-7.07106 -5.55815,-5.55816 -9.20963,-10.62385 -14.14213,-15.55635 -23.2149,-23.2149 -18.54731,12.40286 -25.45585,-1.41422 -2.4423,-4.8846 -22.91575,-22.33908 -25.45584,-19.79899 -2.85784,2.85784 -6.34566,21.57591 -12.72792,18.38478 -6.16353,-3.08177 -7.05703,-10.59958 -11.31371,-12.72792 -0.55445,-0.27723 -8.48528,-4.33589 -8.48528,-5.65686 0,-3.31486 16.97056,-18.78934 16.97056,-15.55635 0,0.47781 -15.69676,-0.6369 -16.97056,0 -7.691,3.8455 -21.50324,7.35212 -28.28427,5.65686 z"
       id="path3082"
       inkscape:connector-curvature="0" />
    <path
       style="fill:#ff6600;fill-opacity:1;stroke:#ffffff;stroke-width:1px;stroke-linecap:butt;stroke-linejoin:miter;stroke-opacity:0"
       d="m 212.4375,536.125 c -1.44436,-0.0381 -3.23045,0.19824 -5.4375,0.75 l 2,-0.5 c -6.58183,-0.25792 -21,6.56038 -21,11 0,0.56383 -2.16837,3.83164 -1,5 0.4014,0.40141 3,2.92866 3,3 0,0.33334 -0.7643,-0.2357 -1,0 -0.75,0.75 -1.75,1.25 -2.5,2 -0.89524,0.89524 -0.5,4.33483 -0.5,6 0,3.29378 1.53138,13.03138 3.5,15 6.62115,6.62115 16.56527,15.93473 26,6.5 0.97611,-0.97611 3.85468,-1.70936 5,-4 1.1981,-2.3962 4.15969,-14.68062 2.5,-18 -1.41976,-2.83953 -2.95346,-4.95346 -4.5,-6.5 -0.29882,-0.29881 -1,0.54044 -1,-0.5 0,-0.0171 3.85041,-1.85041 5,-3 1.00452,-1.00452 -0.60771,-5.21542 -1,-6 -2.70978,-5.41955 -2.80361,-10.58507 -9.0625,-10.75 z m -2.78125,4.0625 c 0.28725,-0.004 0.58023,0.0557 0.84375,0.1875 2.12302,1.06151 8.05076,5.89848 6.5,9 -0.84541,1.69083 -2.65136,2.15136 -3.5,3 -2.38456,2.38456 -20,1.57482 -20,-3.5 0,-0.97164 -0.19434,-1.15283 0.5,-1.5 6.11665,-3.05832 8.02011,-8.48296 13,-6.5 0.86672,-0.17334 1.79449,-0.67516 2.65625,-0.6875 z M 204,557 c 0.72053,0.0592 1.48912,0.36956 2.5,0.875 2.62545,1.31273 5.35033,-0.14966 7.5,2 3.86237,3.86237 5.43563,19.06438 1.5,23 -1.44092,1.4409 -4.84316,3.07842 -8,1.5 -2.31043,-1.15521 -5.95314,0.0234 -8,-1 -5.37696,-2.68848 -8,-10.47977 -8,-16.5 0,-5.96168 2.37554,-9.25239 8.5,-8 1.74261,-1.39409 2.79912,-1.97365 4,-1.875 z"
       id="path3482"
       inkscape:connector-curvature="0" />
    <path
       style="fill:#ffb380;stroke:#ffffff;stroke-width:0.81473106px;stroke-linecap:butt;stroke-linejoin:miter;stroke-opacity:0"
       d="m 282.49526,531.7401 c -11.78169,-6.86636 9.68051,4.4329 -4.07366,-2.44419 -2.41391,-1.20695 -8.00306,0.67048 -8.96204,1.62946 -1.77525,1.77525 -8.69539,-0.26664 -10.5915,1.62946 -2.37933,2.37934 -4.15466,7.41359 -5.70312,8.96204 -2.40424,2.40425 3.48935,8.73162 0.81473,11.40624 -7.56305,7.56305 -22.91226,9.67697 -32.58924,0 -4.24833,-4.24833 -1.67658,-15.52701 4.07366,-9.77677 0.99691,0.99692 -0.81474,3.52787 -0.81474,4.07365 0,1.3037 7.55734,-3.8489 4.07366,-7.33258 -7.02765,-7.02764 -15.22852,10.84288 -13.85043,12.22097 1.40728,1.40727 2.00852,4.67055 4.07366,5.70312 4.84973,2.42486 27.26629,10.80878 34.2187,7.33257 4.54106,-2.27052 5.66056,-4.03109 8.96204,-7.33257 4.61102,-4.61102 -5.10662,-12.81747 4.07366,-21.99774 3.49083,-3.49084 16.57561,3.79266 18.73881,1.62946 4.39622,-4.39621 9.17545,-2.87101 13.0357,-10.5915 0.10605,-0.21212 1.45163,-0.99257 0.81473,-1.62947 -1.01451,-1.01451 -3.16195,1.98835 -4.07366,2.4442 -4.19614,2.09807 -6.4773,2.92492 -12.22096,4.07365 z"
       id="path3086"
       inkscape:connector-curvature="0" />
    <path
       style="fill:#ffb380;stroke:#ffffff;stroke-width:1px;stroke-linecap:butt;stroke-linejoin:miter;stroke-opacity:0"
       d="m 304.5,527.86218 c 1.33333,-1 3,-4.33333 4,-3 1,1.33334 -5.66667,3 -4,3 3.32925,0 11.93049,-8.0695 17,-3 6.58515,6.58515 4.87963,22 18,22 15.86234,0 15.13876,-6.13876 23,-14 1.33333,-1.33333 4.66667,-0.66666 6,-2 2.56881,-2.5688 10.43002,17.78499 20,13 5.94626,-2.97313 22.6892,-18.6216 18,-28 -0.73831,-1.47662 -2.54447,-2 -4,-2 -2.79427,0 -10.12661,4.87339 -8,7 0.52705,0.52705 2,0.25465 2,1 0,2.57641 -7.44065,-0.44065 -8,-1 -3.51709,-3.51709 9.25167,-13.12583 11,-14 6.43756,-3.21878 22.56004,8.43996 16,15 -4.91131,4.91131 -11.80897,14.80897 -16,19 -3.61201,3.61202 -10.27446,4.27446 -13,7 -1.8663,1.86631 -12.05853,-1.05853 -13,-2 -1.72212,-1.72212 -6.63725,-11.36275 -11,-7 -1.67461,1.67462 -6.20074,2.20074 -8,4 -1.39803,1.39803 -4.03457,6 -7,6 -1.58891,0 -11.33362,6.66638 -15,3 -2.23406,-2.23406 -6.95402,-4.95402 -9,-7 -4.39096,-4.39096 -5.23156,-9.23156 -9,-13 -1.19923,-1.19923 -3.31403,-0.15701 -5,-1 -1.73845,-0.86922 -3.15609,-3.61463 -5,-3 -2.61725,0.87242 -0.69565,4.17392 -1,6"
       id="path3088"
       inkscape:connector-curvature="0" />
    <path
       style="fill:#ff6600;fill-opacity:0.96684798;stroke:#ffffff;stroke-width:0.8229807px;stroke-linecap:butt;stroke-linejoin:miter;stroke-opacity:0"
       d="m 330.45999,407.86859 c -7.43837,3.18447 -11.79212,11.23954 -14.81365,17.28259 -1.03836,2.07673 -1.20409,5.31901 -2.46894,6.58385 -3.4332,3.4332 2.26128,16.04429 3.29192,18.10557 8.0722,16.1444 35.95815,6.83685 45.26394,-2.46894 2.54554,-2.54554 5.06995,-6.02499 7.40683,-10.69875 0.81132,-1.62264 0.0299,-4.17473 0.82298,-5.76086 6.19963,-12.39928 -5.76995,-18.11465 -10.69875,-23.04346 -2.14192,-2.14192 -12.33338,-1.64596 -15.63663,-1.64596 -5.80721,0 -7.29689,-1.87652 -13.1677,1.64596 z"
       id="path3185"
       inkscape:connector-curvature="0" />
    <path
       style="fill:#ff6600;fill-opacity:1;stroke:#ffffff;stroke-width:1px;stroke-linecap:butt;stroke-linejoin:miter;stroke-opacity:0"
       d="m 346.5,381.86218 c 0.66667,-0.66666 1.33333,-2.66666 2,-2 0.66667,0.66667 -2.66667,2.66667 -2,2 2.69131,-2.69131 5.15558,-4.65558 7.5,-7 0.48087,-0.48087 3.48192,-4.01808 3.5,-4 0.37255,0.37255 -0.5,0.4853 -0.5,1 0,1.33334 0,2.66667 0,4 0,3.22857 -0.37292,7.75417 1,10.5 1.41822,2.83644 0,16.73928 0,20.5 0,9.42812 8.09838,-0.90162 11,2 0.19161,0.19162 -0.84465,2.68931 -1,3 -0.89971,1.79942 1.13147,3.5 -2,3.5 -3.6595,0 -19.04216,3.95784 -21,2 -0.61119,-0.61118 0.11124,-6.11123 0.5,-6.5 0.4143,-0.4143 1.97942,0.97942 2,1 0.93541,0.93541 6.03364,-1.03364 6.5,-1.5 0.40478,-0.40477 0,-3.36406 0,-4 0,-1.99901 0.0936,-22.40637 -0.5,-23 -0.87184,-0.87184 -5.32489,-0.82996 -7,-1.5 z"
       id="path3417"
       inkscape:connector-curvature="0" />
    <path
       style="fill:#ffffff;stroke:#ffffff;stroke-width:0.8229807px;stroke-linecap:butt;stroke-linejoin:miter;stroke-opacity:0"
       d="m 334.5749,415.27541 c -10.26742,1.28321 -10.76265,10.82655 -14.81365,18.92856 -0.60964,1.21927 0,4.3676 0,5.76087 0,23.66705 33.21179,16.69746 41.14903,0.82298 9.22541,-18.45081 -13.54467,-46.83026 -26.33538,-25.51241 z"
       id="path3092"
       inkscape:connector-curvature="0" />
    <path
       style="fill:#aa4400;stroke:#ffffff;stroke-width:0.8229807px;stroke-linecap:butt;stroke-linejoin:miter;stroke-opacity:0"
       d="m 351.96037,416.93193 c -2.13679,0.005 -4.63991,0.99609 -7.5097,3.29192 -5.28291,0.50031 -6.89331,4.61194 -9.12995,7.89547 0.60602,4.4212 1.82356,9.73984 2.34036,11.3417 5.67491,4.07265 14.72201,6.57261 19.1343,2.16033 6.61461,-6.61461 4.42439,-24.71155 -4.83501,-24.68942 z"
       id="path3135"
       inkscape:connector-curvature="0" />
    <path
       style="fill:#ff6600;fill-opacity:1;stroke:#ffffff;stroke-width:1px;stroke-linecap:butt;stroke-linejoin:miter;stroke-opacity:0"
       d="m 264.5,383.86218 c 1.33333,-1.33333 2.66667,-5.33333 4,-4 1.33333,1.33334 -4,5.88562 -4,4 0,-1.02649 8.33144,-9.33143 9,-10 0.45779,-0.45779 3.07276,-7.92724 4,-7 0.64331,0.64331 -0.32055,28.32055 -1,29 -0.24671,0.24671 -0.24671,5.75329 0,6 1.71594,1.71594 5.28406,-3.71594 7,-2 0.38964,0.38964 0,3.38976 0,4 0,0.41177 0.26471,2.7353 0,3 -1.11515,1.11516 -9.24773,0 -11,0 -1.35199,0 -7.68046,1.31954 -8,1 -0.21902,-0.21901 0.66807,-6.66807 1,-7 0.83333,-0.83333 4.16667,0.83334 5,0 1.11515,-1.11515 0,-9.24772 0,-11 0,-1.44818 -0.63373,-4.73254 0,-6 0.13017,-0.26035 1.78173,-1.21827 1,-2 -1.71594,-1.71594 -4.74686,1.09875 -7,2 z"
       id="path3187"
       inkscape:connector-curvature="0" />
    <path
       style="fill:#ff6600;fill-opacity:1;stroke:#ffffff;stroke-width:1px;stroke-linecap:butt;stroke-linejoin:miter;stroke-opacity:0"
       d="m 289.5,373.86218 c -6.22645,-1.03168 10.15119,-13.8488 14,-10 4.97636,4.97636 -1.80787,28.80787 -5,32 -10.67867,10.67868 14.82729,0.17271 6,9 -0.5,0.5 0.5,2.5 0,3 -0.7451,0.7451 -0.97059,-1 -2,-1 -2,0 -4,0 -6,0 -1.79505,0 -3.7307,3.2693 -5,2 -1.25943,-1.25943 -3.00884,-13.98232 -2,-16 1.49018,-2.98035 5.06555,-9.06555 7,-11 2.17783,-2.17783 1.22837,-13.88581 -1,-15 -1.17282,-0.58641 -5.77825,6.72282 -6,7 z"
       id="path3189"
       inkscape:connector-curvature="0" />
    <path
       style="fill:#ff6600;fill-opacity:1;stroke:#ffffff;stroke-width:1px;stroke-linecap:butt;stroke-linejoin:miter;stroke-opacity:0"
       d="m 303,593.875 c -18.40351,0 -17.57185,23.14223 -10,34.5 1.35113,2.0267 4.42088,4.80696 6.5,5.5 3.66697,1.22233 12.73447,1.03107 14.5,-2.5 1.89488,-3.78976 5.43489,-12.06511 1.5,-16 -1.93576,-1.93576 -5.6641,-2.83205 -8,-4 -1.89479,-0.94739 -7.46453,-1.03547 -9,0.5 -0.77487,0.77488 -3.38209,10.11791 -4.5,9 -0.41828,-0.41828 -1.02732,-1.52732 -1.5,-2 -0.60186,-0.60186 -0.0947,-2.18936 -0.5,-3 -2.6502,-5.30039 -1.36463,-11.13537 1.5,-14 1.67388,-1.67388 7.28667,-1.28667 8,-2 0.18701,-0.187 3.271,-1.229 4,-0.5 1.08947,1.08947 3.33636,1.83636 4.5,3 1.19984,1.19984 0.0163,4.01635 1,5 0.30273,0.30273 1.01695,-0.91949 1.5,-1 0.822,-0.137 1.66667,0 2.5,0 -0.624,-0.31235 1.06762,-6.21619 -2.5,-8 -0.85724,-0.42862 -0.20502,-0.97001 -1,-1.5 -2.81103,-1.87402 -4.96937,-3 -8.5,-3 z m 4.625,20.5 c 0.55386,-0.0276 1.07635,0.053 1.40625,0.40625 6.90241,7.39061 1.16785,20.84119 -4.78125,17.65625 -0.4556,-0.2439 -1.80965,0.37112 -2.15625,0 -0.56894,-0.60918 -1.30952,-1.37371 -2.1875,-1.84375 -1.63647,-0.8761 -2.1173,-1.29281 -3.03125,-3.25 -1.59503,-3.41567 0.6332,-8.30532 3.46875,-8.84375 1.10286,-1.47607 2.86789,-3.71875 4.78125,-3.71875 0.54539,0 1.5769,-0.36026 2.5,-0.40625 z"
       id="path3191"
       inkscape:connector-curvature="0" />
    <path
       style="fill:#ff6600;fill-opacity:1;stroke:#ffffff;stroke-width:1px;stroke-linecap:butt;stroke-linejoin:miter;stroke-opacity:0"
       d="m 170.09375,491.34375 c -0.8859,0.0307 -1.71638,0.15388 -2.09375,0.53125 -2.2092,2.20921 -4.92674,3.35349 -6.5,6.5 -3.30929,6.61859 -1.00871,13.99129 3,18 1.40236,1.40236 3.89695,0.19848 5.5,1 0.74112,0.37056 5.69928,1.30072 6.5,0.5 2.25929,-2.25929 7.6903,-4.6903 10,-7 1.98343,-1.98343 4.06685,-0.43315 5,0.5 0.31716,0.31716 -0.20815,1.58371 0,2 4.08967,8.17934 -7.6122,16.0561 -13.5,19 -3.3271,1.66355 -8.68592,-4.68591 -10,-6 -0.2505,-0.2505 -0.17221,-1.67221 -0.5,-2 -0.66385,-0.66385 -5.0485,0.18938 0,6.5 1.10342,2.43353 9.60671,9.19665 19,4.5 2.80934,-1.40467 4.95437,-5.45437 7,-7.5 11.20179,-11.20179 -6.03153,-36.5 -21,-36.5 -0.57904,0 -1.52035,-0.0619 -2.40625,-0.0312 z m 0.75,5.96875 c 7.53187,-0.33234 20.11828,5.60047 14.15625,11.5625 -2.07313,2.07313 -5.66114,3.66114 -7.5,5.5 -0.24949,0.24949 -2.1085,0 -2.5,0 -6.58107,0 -11,-5.10102 -11,-11.5 0,-1.7684 2.00349,-3.90156 4,-5 0.80116,-0.32046 1.76777,-0.51502 2.84375,-0.5625 z"
       id="path3222"
       inkscape:connector-curvature="0" />
    <path
       style="fill:#ff6600;stroke:#ffffff;stroke-width:1px;stroke-linecap:butt;stroke-linejoin:miter;stroke-opacity:0;fill-opacity:1"
       d="m 402,416.86218 c -0.41666,-0.42903 -1.28816,-2.35592 3,-4.5 12.13203,-6.06601 14.21093,9.86721 11.5,18 -2.22362,6.67086 -9.93694,9.93694 -14,14 -3.16627,3.16627 11.25981,-1.24019 12,-0.5 1.25567,1.25567 -0.37368,5 -2.5,5 -3.93762,0 -24.88661,3.61339 -27,1.5 -0.91679,-0.91678 0.5,-4.67993 0.5,-5.5 0,-2.58415 4.76245,-1.13122 6.5,-2 5.03583,-2.51791 9.15702,-5.15701 13,-9 2.22514,-2.22514 3.21424,-12.78576 1,-15 -0.30195,-0.30194 -2.52584,0 -3,0 -0.96164,0 -2.72323,1 -3,1 -1.58999,0 5.21554,-7.28739 0.5,-1"
       id="path3419"
       inkscape:connector-curvature="0" />
    <path
       style="fill:#ff6600;stroke:#ffffff;stroke-width:1px;stroke-linecap:butt;stroke-linejoin:miter;stroke-opacity:0;fill-opacity:1"
       d="m 369.5,582.36218 c -3.28061,-0.64929 -13.71007,-0.28993 -15.5,1.5 -1.01888,1.01888 0.5,8.02829 0.5,9.5 0,0.86515 -0.64575,5.85425 0,6.5 0.45577,0.45578 4.88281,-3.2207 6,-3.5 5.17852,-1.29463 9.62271,-2.79243 15,-1 5.08036,1.69345 5.1202,14.1266 -0.5,16 -10.05509,3.3517 -13.83377,3.38875 -24,0 -2.26256,-0.75418 -5.68405,-7.5 -4,-7.5 0.82824,0 -2.8156,4.8156 -3,5 -0.33708,0.33708 4.09135,5.09135 4.5,5.5 1.83452,1.83452 5.79964,0.89982 8,2 1.90977,0.95489 6.59023,0.95489 8.5,0 1.39234,-0.69617 4.89826,0.60174 6,-0.5 1.35388,-1.35388 5.19464,-0.69463 7,-2.5 6.16097,-6.16096 6.83947,-4.67894 11,-13 0.46906,-0.93811 -0.14178,-2.28356 -0.5,-3 -0.75605,-1.5121 -0.72794,-3.45588 -1.5,-5 -1.0006,-2.0012 -12.16555,-5.66722 -14.5,-4.5 -1.09497,0.54749 -1.82394,0.10798 -3,0.5 -2.53143,0.84381 -5.33014,3.5 -7.5,3.5 -0.49352,0 -3.5,1.70517 -3.5,1.5 0,-0.20465 -0.58102,-4.91897 0,-5.5 1.43902,-1.43901 8.34614,-1.5 10.5,-1.5 3.11486,0 0.5,-6.36953 0.5,-2"
       id="path3423"
       inkscape:connector-curvature="0" />
    <path
       style="fill:#ff6600;stroke:#ffffff;stroke-width:1px;stroke-linecap:butt;stroke-linejoin:miter;stroke-opacity:0;fill-opacity:1"
       d="M 230 581.875 C 229.57342 582.30158 229.72119 586.67508 229.875 590.65625 C 230.31926 590.70098 230.7472 590.73616 231.1875 590.78125 C 231.64022 588.98563 232.34839 587.45081 233.5 586.875 C 234.62376 586.31312 235.50526 587.875 236.5 587.875 C 238.9184 587.875 248.18769 590.71885 250.5 591.875 C 252.50838 592.87919 254.18281 590.875 255.5 590.875 C 255.61934 590.875 253.62115 592.75385 253.5 592.875 C 252.26908 594.10592 248.5 600.69158 248.5 602.875 C 248.5 605.05725 243.4389 622.8139 243.5 622.875 C 244.90046 624.27546 248.19788 624.22394 250.5 625.375 C 250.74865 625.49933 253.32982 625.54518 253.5 625.375 C 253.80195 625.07306 253.5 622.84916 253.5 622.375 C 253.5 616.43584 255.16666 610.87503 257 605.375 C 258.3813 601.23112 260.36588 597.50913 263.5 594.375 C 264.18377 593.69123 267.68052 590.55552 267.5 590.375 C 266.90542 589.78042 254.46051 588.24013 253 587.875 C 250.44176 587.23544 230.12675 581.74826 230 581.875 z "
       id="path3451" />
    <path
       style="fill:#ff6600;stroke:#ffffff;stroke-width:1px;stroke-linecap:butt;stroke-linejoin:miter;stroke-opacity:0;fill-opacity:1"
       d="m 199.875,420.65625 c -0.44955,0.033 -0.9018,0.12411 -1.375,0.21875 -4.28786,0.92057 -6,6.58482 -6,10.5 0,2.67562 -0.33059,6.00823 0.5,8.5 1.31631,3.94894 1.21976,11.21976 3.5,13.5 1.24323,1.24323 3.8908,2.0546 6,1 13.81332,-6.90665 11.31095,-34.74093 -2.625,-33.71875 z m 1.78125,3.8125 c 0.25513,-0.029 0.52709,0.0896 0.84375,0.40625 4.25787,4.25787 6.09017,19.95492 -1,23.5 -6.90684,3.45342 -5.73325,-26.33685 -1.5,-21 0.004,-0.0206 0.55069,-2.78068 1.65625,-2.90625 z"
       id="path3517"
       inkscape:connector-curvature="0" />
    <path
       style="fill:#ff6600;fill-opacity:1;stroke:#ffffff;stroke-width:1px;stroke-linecap:butt;stroke-linejoin:miter;stroke-opacity:0"
       d="m 216,390.86218 c 5.72185,-6.51614 -5.50468,5.50468 2.5,-2.5 2.6045,-2.6045 4.27194,-4.27193 6,-6 0.12115,-0.12115 2,-2.11934 2,-2 0,6.69962 -2.5,17.62906 -2.5,25.5 0,0.62844 -0.42732,4.07268 0,4.5 0.19482,0.19482 1.69488,0 2,0 5.30232,0 1.5,-0.65167 1.5,3.5 0,0.005 -0.42022,1.42022 -0.5,1.5 -0.91989,0.91989 -5.23225,-0.42258 -6.5,0 -0.65634,0.21878 -10.72301,2.22301 -8,-0.5 1.0067,-1.00669 0.94452,-4.44452 2,-5.5 0.91667,-0.91666 4.08333,0.41667 5,-0.5 0.37255,-0.37255 -0.5,-0.48529 -0.5,-1 0,-3.16666 0,-6.33333 0,-9.5 0,-1.3505 1.03417,-8.96582 1,-9 -0.0721,-0.0721 -3.28129,1.21252 -4,1.5 z"
       id="path3522"
       inkscape:connector-curvature="0" />
    <path
       style="fill:#fc6500;fill-opacity:1;stroke:#ffffff;stroke-width:0.7458663px;stroke-linecap:butt;stroke-linejoin:miter;stroke-opacity:0"
       d="m 240.50185,412.13349 c -9.09848,1.90069 -5.74752,5.52812 -10.44213,14.91732 -0.87942,1.75884 0.46183,3.2675 -0.74586,4.4752 -0.99449,0.99449 0.24862,4.22658 -0.74587,5.22106 -2.98587,2.98587 2.34055,13.52854 3.72934,14.91733 13.027,13.027 28.15251,18.09119 43.26023,2.98346 3.39363,-3.39361 3.34153,-8.17478 5.22107,-11.93386 10.78668,-21.57337 -26.18012,-41.85784 -40.27678,-30.58051 z"
       id="path3183"
       inkscape:connector-curvature="0" />
    <path
       style="fill:#ff6600;fill-opacity:1;stroke:#ffffff;stroke-width:1px;stroke-linecap:butt;stroke-linejoin:miter;stroke-opacity:0"
       d="m 232,382.36218 c 0.4033,-0.43907 8.5,-9.38948 8.5,-8.5 0,8.42477 -3,17.2054 -3,26 0,0.63594 -0.40478,3.59523 0,4 1.83703,1.83703 4.5,-3.12852 4.5,1.5 0,1.15649 -0.5,1.76659 -0.5,3 0,1.06239 -0.52123,1.52123 -1,2 -1.17274,1.17274 -10.58676,-0.67353 -11,-1.5 -0.52486,-1.04972 -0.5,-3.27159 -0.5,-4.5 0,-2.9205 2.19621,-0.19621 3.5,-1.5 0.15658,-0.15658 -0.68282,-3.86565 -1,-4.5 -0.77657,-1.55314 1.5,-6.90205 1.5,-9 0,-0.15581 1.97401,-12.94801 -2,-5"
       id="path3524"
       inkscape:connector-curvature="0" />
    <path
       style="fill:#ffffff;stroke:#ffffff;stroke-width:0.7992897px;stroke-linecap:butt;stroke-linejoin:miter;stroke-opacity:0"
       d="m 239.84886,417.18982 c -3.42056,0.17243 -7.99289,5.56416 -7.99289,15.9858 0,20.62623 25.57763,32.77053 40.76377,17.58437 0.63883,-0.63882 2.44253,-0.8886 3.19716,-2.39787 1.38414,-2.76827 2.6437,-9.09982 0.79929,-12.78863 -1.83757,-3.67514 -0.97882,-10.5703 -3.99645,-13.58793 -7.57325,-7.57325 -20.44242,-12.1928 -32.77088,-4.79574 z"
       id="path3090"
       inkscape:connector-curvature="0" />
    <path
       style="fill:#aa4400;stroke:#ffffff;stroke-width:0.7992897px;stroke-linecap:butt;stroke-linejoin:miter;stroke-opacity:0"
       d="m 244.6446,425.98201 c -19.25626,5.57707 -3.62633,30.5876 12.78864,22.38011 8.63111,-4.31555 13.56965,-15.99493 2.39787,-21.58082 -3.70927,-1.85463 -10.89537,-0.79929 -15.18651,-0.79929 z"
       id="path3122"
       inkscape:connector-curvature="0" />
    <path
       sodipodi:type="arc"
       id="path3539"
       style="fill:#000000;stroke:none"
       sodipodi:cx="223.44574"
       sodipodi:cy="394.75287"
       sodipodi:rx="1.5"
       sodipodi:ry="1.5"
       d="m 224.94574,394.75287 a 1.5,1.5 0 1 1 -3,0 1.5,1.5 0 1 1 3,0 z" />
    <path
       style="fill:#ff6600;fill-opacity:1;stroke:#ffffff;stroke-width:1px;stroke-linecap:butt;stroke-linejoin:miter;stroke-opacity:0"
       d="m 329.41081,297.24949 c -7.38397,30.98588 31.48773,44.83169 52.02515,57.77267 12.32673,7.76728 24.50191,15.99175 38.01954,22.03441 17.13377,7.65915 39.52665,1.59499 55.3606,-5.48595 3.40422,-1.52237 7.8922,-0.86468 11.21536,-2.54483 5.154,-2.60578 36.38389,-16.55563 38.08494,-19.25519 3.43178,-5.44626 4.02754,-16.421 6.1257,-24.97554 10.56358,-43.06953 -5.97263,-89.30862 -43.28923,-112.82245 -14.56718,-9.17904 -25.05538,-19.32843 -42.76016,-22.13802 -25.55379,-4.05516 -61.93765,32.02112 -75.86812,50.23471 -11.96136,15.63907 -39.36741,39.55474 -38.91378,57.18019 z"
       id="path2991"
       inkscape:connector-curvature="0" />
    <path
       style="fill:#d45500;stroke:#ffffff;stroke-width:1px;stroke-linecap:butt;stroke-linejoin:miter;stroke-opacity:0;fill-opacity:1"
       d="M 469 204.375 C 467.51762 204.375 463.39665 208.77165 466 211.375 C 467.5949 212.9699 470.4051 212.78011 472 214.375 C 474.55476 216.92976 467.60354 215.97854 469 217.375 C 472.75056 221.12556 478.40433 222.18366 481 227.375 C 482.92298 231.22097 477 232.96723 477 234.375 C 477 237.8165 492.05847 241.25806 488 249.375 C 486.62505 252.1249 486.11441 255.26059 484 257.375 C 483.75329 257.62171 480.22828 259.60328 481 260.375 C 483.12832 262.50332 488.20716 263.78932 490 267.375 C 492.04316 271.46132 485.27839 270.81823 484 273.375 C 482.21726 276.94049 494.57655 286.79845 491 290.375 C 487.44552 293.92948 469.23756 294.13744 464 299.375 C 459.61501 303.75999 472.11502 312.25998 469 315.375 C 468.36935 316.00566 442.86743 322.24243 447 326.375 C 450.92342 330.29842 459.77904 334.15404 465 339.375 C 471.28752 345.66252 449.3402 350.7049 446 352.375 C 440.75208 354.99896 455 361.58905 455 363.375 C 455 366.03492 418.88607 364.31804 415 362.375 C 412.65264 361.20133 398.28484 359.17048 388.5625 359.5625 C 398.51223 365.89664 408.55515 372.1839 419.46875 377.0625 C 436.60252 384.72165 458.97855 378.64344 474.8125 371.5625 C 478.21672 370.04013 482.70809 370.7114 486.03125 369.03125 C 491.18525 366.42547 522.42395 352.48081 524.125 349.78125 C 527.55678 344.33499 528.15184 333.33579 530.25 324.78125 C 540.81358 281.71172 524.2541 235.48258 486.9375 211.96875 C 482.93841 209.44885 479.27422 206.86923 475.65625 204.375 C 473.4347 204.37767 471.23686 204.375 469 204.375 z "
       id="path3582" />
    <path
       style="fill:#ff6600;stroke:#ffffff;stroke-width:1px;stroke-linecap:butt;stroke-linejoin:miter;stroke-opacity:0;fill-opacity:1"
       d="M 76.84375 277.46875 C 63.141456 291.7286 51.583557 310.36044 52.53125 326.6875 C 54.492523 360.47723 78.872972 398.20174 106.375 415.53125 C 113.57291 420.06678 118.23121 429.99571 127.96875 426.71875 C 148.0548 412.86973 165.59169 392.2263 184.78125 373.75 C 179.42262 369.01856 166.18423 380.375 161 380.375 C 157.10912 380.375 157.04244 378.89622 154 377.375 C 151.91735 376.33368 147.68763 377.06264 146 375.375 C 143.1328 372.5078 145.44699 366.0985 142 364.375 C 138.43816 362.59408 132.53583 367.91083 130 365.375 C 127.47004 362.84504 132.78713 356.16213 130 353.375 C 127.77784 351.15284 116.93521 354.84261 114 353.375 C 108.77308 350.76154 111.93862 342.84431 107 340.375 C 101.09316 337.42159 87.0774 342.4524 83 338.375 C 78.744348 334.11935 87.177792 321.55279 83 317.375 C 78.807356 313.18236 76.797253 318.375 71 318.375 C 70.127787 318.375 70.811307 297.75239 72 295.375 C 73.066523 293.24196 77.458911 282.54969 76.84375 277.46875 z "
       id="path3587" />
    <path
       style="fill:#ff9955;stroke:#ffffff;stroke-width:1px;stroke-linecap:butt;stroke-linejoin:miter;stroke-opacity:0;fill-opacity:1"
       d="M 431.375 190.71875 C 407.68585 196.78494 380.0352 224.7355 368.3125 240.0625 C 356.35114 255.70157 328.95262 279.62455 329.40625 297.25 C 325.90306 311.95069 332.82764 322.78155 343.25 331.5 C 343.0302 322.40037 336.2817 305.0933 342 299.375 C 346.63549 294.73951 358.29629 298.07871 361 295.375 C 361.88763 294.48737 355.17587 286.02326 357 282.375 C 359.41277 277.54947 372.36331 275.01169 376 271.375 C 379.76844 267.60656 373.72407 261.92687 376 257.375 C 380.01162 249.35177 388.06156 244.31344 395 237.375 C 397.67593 234.69907 394.45161 229.47178 396 226.375 C 399.46739 219.44023 410.96612 221.40888 416 216.375 C 418.684 213.691 417.95237 207.42263 421 204.375 C 423.88677 201.48824 432.9297 205.4453 436 202.375 C 438.02111 200.35389 433.25697 194.61866 431.375 190.71875 z "
       id="path3592" />
    <path
       style="fill:#ff6600;fill-opacity:1;stroke:#ffffff;stroke-width:1px;stroke-linecap:butt;stroke-linejoin:miter;stroke-opacity:0"
       d="m 453,568.36218 c -2.87747,-5.75494 4.10456,-4.44772 7,-3 11.88984,5.94492 19.74341,18.74342 29,28 16.80756,16.80756 67.72819,77.27181 49,96 -2.59663,2.59663 -21.06727,-10.10091 -23,-13 -3.34247,-5.0137 -10.64201,-9.642 -15,-14 -17.48686,-17.48686 -37.71895,-36.79737 -47,-60 -1.86913,-4.67281 -5.96879,-8.00734 -4,-13 -1.73076,-7.84558 -1.24609,-21 8,-21"
       id="path3656"
       inkscape:connector-curvature="0" />
    <path
       style="fill:#aa4400;fill-opacity:1;stroke:#ffffff;stroke-width:1px;stroke-linecap:butt;stroke-linejoin:miter;stroke-opacity:0"
       d="m 272.94322,570.82247 c -3.35198,2.55183 11.23767,-23.41056 16.97056,-17.67767 3.48616,3.48615 2.16558,9.23664 7.07107,14.14213 2.30372,2.30372 18.74775,-10.08098 22.62742,-12.02081 7.21063,-3.60532 3.31743,19.55449 16.97056,12.72792 2.23465,-1.11733 3.81747,-1.27098 4.94975,-3.53554 2.86771,-5.73542 10.3729,-10.8403 15.55635,-5.65685 2.257,2.257 -1.13397,8.48528 4.24264,8.48528 5.85393,0 10.93683,-7.4013 9.89949,-6.36396 -0.86977,0.86978 -1.3368,3.38072 -2.12132,4.94975 -2.45497,4.90994 -10.62577,6.01999 -15.55635,8.48528 -1.82254,0.91127 -9.11593,0.0765 -9.89949,-0.70711 -0.3504,-0.3504 -0.81898,-4.13077 -1.41421,-3.53553 -0.58926,0.58925 -0.11786,2.23917 -0.70711,2.82843 -4.52493,4.52492 -2.94104,3.94539 -9.19239,7.07106 -0.57496,0.28748 -0.58507,1.12168 -1.41421,0.70711 -1.87843,-0.93921 -4.56366,0.19305 -6.36396,-0.70711 -5.32049,-2.66024 -5.92129,-7.3355 -9.19239,-10.6066 -2.57756,-2.57756 -10.10199,5.7581 -11.31371,6.36396 -5.61276,2.80638 -9.48699,6.06936 -14.14214,1.41422 -0.0348,-0.0348 -3.75928,-9.19239 -2.82842,-9.19239 0.0629,0 -1.71746,2.42456 -3.53554,4.24264 -3.16464,3.16464 -6.11798,8.48528 -10.6066,8.48528 -13.54109,0 -12.99464,-9.32575 -18.38478,-12.02082 -1.37875,-0.68937 -10.44574,6.52482 -12.02081,4.94975 -0.48635,-0.48635 11.85599,-7.34221 12.72792,-7.77817 13.02955,-6.51478 10.76734,10.47801 21.2132,2.12132"
       id="path3706"
       inkscape:connector-curvature="0" />
  </g>
</svg>
