<?xml version="1.0" encoding="UTF-8" standalone="no"?>
<!-- Created with Inkscape (http://www.inkscape.org/) -->

<svg
   xmlns:dc="http://purl.org/dc/elements/1.1/"
   xmlns:cc="http://creativecommons.org/ns#"
   xmlns:rdf="http://www.w3.org/1999/02/22-rdf-syntax-ns#"
   xmlns:svg="http://www.w3.org/2000/svg"
   xmlns="http://www.w3.org/2000/svg"
   xmlns:sodipodi="http://sodipodi.sourceforge.net/DTD/sodipodi-0.dtd"
   xmlns:inkscape="http://www.inkscape.org/namespaces/inkscape"
   width="744.09448819"
   height="1052.3622047"
   id="svg2"
   version="1.1"
   inkscape:version="0.48.3.1 r9886"
   sodipodi:docname="virus_copter.svg">
  <defs
     id="defs4">
    <inkscape:perspective
       sodipodi:type="inkscape:persp3d"
       inkscape:vp_x="0 : 526.18109 : 1"
       inkscape:vp_y="0 : 1000 : 0"
       inkscape:vp_z="744.09448 : 526.18109 : 1"
       inkscape:persp3d-origin="372.04724 : 350.78739 : 1"
       id="perspective4386-2" />
    <inkscape:perspective
       sodipodi:type="inkscape:persp3d"
       inkscape:vp_x="0 : 526.18109 : 1"
       inkscape:vp_y="0 : 1000 : 0"
       inkscape:vp_z="744.09448 : 526.18109 : 1"
       inkscape:persp3d-origin="372.04724 : 350.78739 : 1"
       id="perspective6323-5" />
    <inkscape:perspective
       id="perspective6567-1"
       inkscape:persp3d-origin="372.04724 : 350.78739 : 1"
       inkscape:vp_z="744.09448 : 526.18109 : 1"
       inkscape:vp_y="0 : 1000 : 0"
       inkscape:vp_x="0 : 526.18109 : 1"
       sodipodi:type="inkscape:persp3d" />
    <inkscape:perspective
       sodipodi:type="inkscape:persp3d"
       inkscape:vp_x="0 : 526.18109 : 1"
       inkscape:vp_y="0 : 1000 : 0"
       inkscape:vp_z="744.09448 : 526.18109 : 1"
       inkscape:persp3d-origin="372.04724 : 350.78739 : 1"
       id="perspective6323-7" />
    <inkscape:perspective
       id="perspective6567-9"
       inkscape:persp3d-origin="372.04724 : 350.78739 : 1"
       inkscape:vp_z="744.09448 : 526.18109 : 1"
       inkscape:vp_y="0 : 1000 : 0"
       inkscape:vp_x="0 : 526.18109 : 1"
       sodipodi:type="inkscape:persp3d" />
    <inkscape:perspective
       sodipodi:type="inkscape:persp3d"
       inkscape:vp_x="0 : 526.18109 : 1"
       inkscape:vp_y="0 : 1000 : 0"
       inkscape:vp_z="744.09448 : 526.18109 : 1"
       inkscape:persp3d-origin="372.04724 : 350.78739 : 1"
       id="perspective6323" />
    <inkscape:perspective
       id="perspective6567"
       inkscape:persp3d-origin="372.04724 : 350.78739 : 1"
       inkscape:vp_z="744.09448 : 526.18109 : 1"
       inkscape:vp_y="0 : 1000 : 0"
       inkscape:vp_x="0 : 526.18109 : 1"
       sodipodi:type="inkscape:persp3d" />
    <inkscape:perspective
       sodipodi:type="inkscape:persp3d"
       inkscape:vp_x="0 : 526.18109 : 1"
       inkscape:vp_y="0 : 1000 : 0"
       inkscape:vp_z="744.09448 : 526.18109 : 1"
       inkscape:persp3d-origin="372.04724 : 350.78739 : 1"
       id="perspective3845" />
    <inkscape:perspective
       sodipodi:type="inkscape:persp3d"
       inkscape:vp_x="0 : 526.18109 : 1"
       inkscape:vp_y="0 : 1000 : 0"
       inkscape:vp_z="744.09448 : 526.18109 : 1"
       inkscape:persp3d-origin="372.04724 : 350.78739 : 1"
       id="perspective4386" />
    <marker
       inkscape:stockid="Arrow1Mend"
       orient="auto"
       refY="0.0"
       refX="0.0"
       id="Arrow1Mend"
       style="overflow:visible;">
      <path
         id="path6474"
         d="M 0.0,0.0 L 5.0,-5.0 L -12.5,0.0 L 5.0,5.0 L 0.0,0.0 z "
         style="fill-rule:evenodd;stroke:#000000;stroke-width:1.0pt;marker-start:none;"
         transform="scale(0.4) rotate(180) translate(10,0)" />
    </marker>
    <marker
       inkscape:stockid="Arrow2Mend"
       orient="auto"
       refY="0.0"
       refX="0.0"
       id="Arrow2Mend"
       style="overflow:visible;">
      <path
         id="path6492"
         style="font-size:12.0;fill-rule:evenodd;stroke-width:0.62500000;stroke-linejoin:round;"
         d="M 8.7185878,4.0337352 L -2.2072895,0.016013256 L 8.7185884,-4.0017078 C 6.9730900,-1.6296469 6.9831476,1.6157441 8.7185878,4.0337352 z "
         transform="scale(0.6) rotate(180) translate(0,0)" />
    </marker>
    <marker
       inkscape:stockid="Arrow1Send"
       orient="auto"
       refY="0.0"
       refX="0.0"
       id="Arrow1Send"
       style="overflow:visible;">
      <path
         id="path6480"
         d="M 0.0,0.0 L 5.0,-5.0 L -12.5,0.0 L 5.0,5.0 L 0.0,0.0 z "
         style="fill-rule:evenodd;stroke:#000000;stroke-width:1.0pt;marker-start:none;"
         transform="scale(0.2) rotate(180) translate(6,0)" />
    </marker>
    <marker
       inkscape:stockid="Arrow1Lend"
       orient="auto"
       refY="0.0"
       refX="0.0"
       id="Arrow1Lend"
       style="overflow:visible;">
      <path
         id="path6468"
         d="M 0.0,0.0 L 5.0,-5.0 L -12.5,0.0 L 5.0,5.0 L 0.0,0.0 z "
         style="fill-rule:evenodd;stroke:#000000;stroke-width:1.0pt;marker-start:none;"
         transform="scale(0.8) rotate(180) translate(12.5,0)" />
    </marker>
    <inkscape:perspective
       sodipodi:type="inkscape:persp3d"
       inkscape:vp_x="0 : 526.18109 : 1"
       inkscape:vp_y="0 : 1000 : 0"
       inkscape:vp_z="744.09448 : 526.18109 : 1"
       inkscape:persp3d-origin="372.04724 : 350.78739 : 1"
       id="perspective5247" />
  </defs>
  <sodipodi:namedview
     id="base"
     pagecolor="#ffffff"
     bordercolor="#666666"
     borderopacity="1.0"
     inkscape:pageopacity="0.0"
     inkscape:pageshadow="2"
     inkscape:zoom="0.49497475"
     inkscape:cx="236.64236"
     inkscape:cy="637.75407"
     inkscape:document-units="px"
     inkscape:current-layer="layer1"
     showgrid="false"
     inkscape:window-width="1364"
     inkscape:window-height="766"
     inkscape:window-x="0"
     inkscape:window-y="0"
     inkscape:window-maximized="0" />
  <metadata
     id="metadata7">
    <rdf:RDF>
      <cc:Work
         rdf:about="">
        <dc:format>image/svg+xml</dc:format>
        <dc:type
           rdf:resource="http://purl.org/dc/dcmitype/StillImage" />
        <dc:title></dc:title>
      </cc:Work>
    </rdf:RDF>
  </metadata>
  <g
     inkscape:label="Layer 1"
     inkscape:groupmode="layer"
     id="layer1">
    <text
       xml:space="preserve"
       style="font-size:32px;font-style:normal;font-variant:normal;font-weight:bold;font-stretch:normal;fill:#000000;fill-opacity:1;stroke:none;font-family:FreeSans;-inkscape-font-specification:Sans Bold"
       x="583.79651"
       y="337.46619"
       id="text6212"><tspan
         sodipodi:role="line"
         id="tspan6214"
         x="583.79651"
         y="337.46619" /></text>
    <g
       id="g4166"
       transform="matrix(0.63864756,0,0,0.63864756,448.78396,405.67821)" />
    <text
       xml:space="preserve"
       style="font-size:20.4367218px;font-style:normal;font-variant:normal;font-weight:bold;font-stretch:normal;fill:#000000;fill-opacity:1;stroke:none;font-family:FreeSans;-inkscape-font-specification:Sans Bold"
       x="403.83542"
       y="420.45126"
       id="text6212-4"><tspan
         sodipodi:role="line"
         id="tspan6214-4"
         x="403.83542"
         y="420.45126" /></text>
    <path
       inkscape:connector-curvature="0"
       style="color:#000000;fill:#967d3d;fill-opacity:1;fill-rule:nonzero;stroke:#ffffff;stroke-width:0.83561635000000001;stroke-linecap:round;stroke-linejoin:round;stroke-miterlimit:4;stroke-opacity:0;stroke-dasharray:none;stroke-dashoffset:0;marker:none;visibility:visible;display:inline;overflow:visible;enable-background:accumulate"
       d="m 637.25566,190.69504 -437.68751,18.25 c -11.25467,1.3238 -22.20947,2.03125 -27.8125,2.03125 -4.95105,0 -21.35866,-0.14134 -23.5,2 -1.11895,1.11896 -6.41759,0.2088 -8,1 -4.35316,2.17658 -12.28004,3.78004 -15.5,7 -4.18092,4.18093 -7.39573,8.89573 -11,12.5 -2.04443,2.04443 -1.36591,11.23181 -3,14.5 -0.01,0.0198 -0.0216,0.042 -0.0312,0.0625 l 0.75,17.84375 c 0.68529,5.67275 1.24741,10.88007 0.53125,12.625 l 6.59375,158.0625 424.50001,-17.71875 c 14.5543,-1.93758 31.46133,-2.72325 38.90625,-2.53125 4.94941,0.12764 21.33542,0.71042 23.53125,-1.375 1.14744,-1.08973 6.42896,-0.0623 8.03125,-0.8125 4.40783,-2.06362 12.38559,-3.45787 15.6875,-6.59375 4.28731,-4.07174 7.61651,-8.67735 11.3125,-12.1875 2.09646,-1.99103 1.65719,-11.21252 3.375,-14.4375 2.41797,-4.53944 -2.66609,-28.67572 -0.21875,-31 0.0467,-0.0443 0.12573,-0.0763 0.1875,-0.0937 l -6.6563,-159.12505 z"
       id="rect5349-9"
       inkscape:export-filename="/home/substack/media/vector/copter.png"
       inkscape:export-xdpi="84.202003"
       inkscape:export-ydpi="84.202003" />
    <path
       style="fill:#bcc9ae;stroke:none;stroke-width:1px;stroke-linecap:butt;stroke-linejoin:miter;stroke-opacity:1;fill-opacity:0.49803922"
       d="M 338.59375 203.15625 L 275.96875 205.75 C 274.12976 206.64348 272.55995 207.5338 271.71875 208.375 C 271.20655 208.88721 262.09354 211.46896 260.625 212.9375 C 260.49608 213.06642 263.78001 212.40625 267.6875 212.40625 C 271.11295 212.40625 274.13822 213.9375 277.78125 213.9375 C 283.10316 213.9375 289.10876 213.0075 293.96875 215.4375 C 295.93062 216.41843 299.01257 214.95942 301.03125 215.96875 C 303.87721 217.39174 308.49833 213.84208 310.625 215.96875 C 310.7496 216.09336 313.53164 216.09336 313.65625 215.96875 C 316.2674 213.3576 321.00285 212.90435 324.75 210.40625 C 326.6191 209.16018 329.27425 208.06483 331.34375 207.375 C 333.38206 206.69556 336.31516 204.84086 338.59375 203.15625 z "
       id="path5685"
       inkscape:export-filename="/home/substack/media/vector/copter.png"
       inkscape:export-xdpi="84.202003"
       inkscape:export-ydpi="84.202003" />
    <path
       style="fill:#333c28;stroke:none;stroke-width:1px;stroke-linecap:butt;stroke-linejoin:miter;stroke-opacity:1;fill-opacity:0.33725491000000002"
       d="M 212.5625 208.40625 L 199.5625 208.9375 C 188.30783 210.2613 177.35303 210.96875 171.75 210.96875 C 166.79895 210.96875 150.39134 210.82741 148.25 212.96875 C 147.13105 214.08771 141.83241 213.17755 140.25 213.96875 C 139.57903 214.30424 138.81045 214.65248 138 214.96875 C 145.93429 215.00984 154.50726 215.4375 162.125 215.4375 L 189.90625 215.4375 C 190.77487 215.4375 193.43332 215.97293 193.4375 215.96875 C 193.96763 215.43863 198.80434 213.00408 200 212.40625 C 201.88261 211.46495 210.55933 209.37175 212.5625 208.40625 z M 121.78125 224.1875 C 118.94431 227.44632 116.4532 230.76555 113.75 233.46875 C 113.52 233.69875 113.32449 234.04529 113.15625 234.4375 C 114.04431 235.75019 115.02014 237.05139 116.15625 238.1875 C 116.99805 239.02929 118.34571 239.3457 119.1875 240.1875 C 119.4184 240.4184 122.11501 243.82249 122.71875 243.21875 C 124.34043 241.59707 125.84024 240.90801 128.28125 239.6875 C 129.14612 239.25507 132.24077 239.79048 132.84375 239.1875 C 133.16092 238.87033 134.5531 237.5672 135.375 237.15625 C 135.68704 237.00023 137.18778 236.84347 137.375 236.65625 C 137.57386 236.45739 143.70143 233.24926 146.0625 232.84375 C 145.10996 232.43749 143.71883 231.76567 143.4375 231.625 C 141.79412 230.80331 135.59052 228.30928 134.34375 227.0625 C 133.63999 226.35874 126.50047 225.38291 121.78125 224.1875 z M 146.0625 232.84375 C 146.57009 233.06024 146.96875 233.21489 146.96875 233.125 C 146.96875 232.82012 146.62902 232.74645 146.0625 232.84375 z "
       id="path5655"
       inkscape:export-filename="/home/substack/media/vector/copter.png"
       inkscape:export-xdpi="84.202003"
       inkscape:export-ydpi="84.202003" />
    <path
       style="fill:#bcc9ae;stroke:none;stroke-width:1px;stroke-linecap:butt;stroke-linejoin:miter;stroke-opacity:1;fill-opacity:0.49803922"
       d="m 157.07872,286.16148 c -2.81921,-0.17413 -1.86253,-3.88284 -5.55584,-7.57615 -1.83438,-1.83438 -14.24614,-14.03812 -13.13198,-15.15229 3.73887,-3.73887 11.68595,-3.60472 15.15229,-7.07106 0.99327,-0.99328 9.59645,-3.03991 9.59645,-3.53554 0,-0.0854 -1.90889,0.11142 -2.02031,0 -0.90726,-0.90726 -4.04268,-1.51729 -5.05076,-2.52538 -2.93108,-2.93108 -21.21321,-10.75755 -21.21321,-12.62691 0,-0.85846 1.91836,0.10195 2.52539,-0.50507 0.70104,-0.70104 7.14871,-2.52538 8.58629,-2.52538 1.50025,0 10.72469,-4.66378 12.12183,-6.06092 0.85043,-0.85043 12.71084,-3.99865 13.63706,-3.53553 1.22926,0.61462 2.55898,1.01015 4.04061,1.01015 1.80428,0 7.04689,-0.52926 8.08122,0.50508 1.00463,1.00462 20.40166,6.06091 22.72844,6.06091 1.25427,0 2.97263,1.01015 4.54568,1.01015 0.8418,0 2.52538,-0.84179 2.52538,0 0,0.40913 -2.81968,0.79938 -3.03045,1.01016 -3.96412,3.96411 -15.82904,5.7275 -17.67767,7.57614 -0.92919,0.92918 -4.15178,2.52538 -6.06092,2.52538 -1.79446,0 -4.04061,1.80248 -4.04061,1.51523 0,-1.5959 3.50664,1.48633 5.05076,3.03046 0.51672,0.51672 2.92317,-0.1073 3.53554,0.50507 1.50898,1.50898 4.04686,2.02656 5.55584,3.53554 0.74784,0.74784 2.50552,-0.01 3.53553,0.50508 1.6673,0.83364 4.79781,0.25212 6.06092,1.51522 0.76138,0.76138 6.70386,4.04061 8.58629,4.04061 0.68018,0 5.24426,1.63332 5.05077,2.02031 -0.47084,0.94167 -1.72718,1.2221 -3.03046,2.52538 -0.36809,0.36809 -0.51199,1.52214 -1.01016,2.02031 -2.60371,2.60371 -6.9436,3.97688 -10.10152,5.55583 -2.56832,1.28417 -6.62157,3.59112 -8.08122,5.05077 -0.14346,0.14346 -2.52538,-0.10857 -2.52538,0 0,1.10677 -20.62842,8.04136 -24.74874,10.10152 -0.80812,0.40406 -2.22234,-0.40406 -3.03046,0 -4.73391,2.36696 -5.68637,-1.48912 -10.6066,-0.50507 z"
       id="path5640"
       inkscape:connector-curvature="0"
       inkscape:export-filename="/home/substack/media/vector/copter.png"
       inkscape:export-xdpi="84.202003"
       inkscape:export-ydpi="84.202003" />
    <path
       style="fill:#333c28;stroke:none;stroke-width:1px;stroke-linecap:butt;stroke-linejoin:miter;stroke-opacity:1;fill-opacity:0.33725491"
       d="M 121.21875 242.21875 C 119.73987 242.21875 117.73156 243.96235 116.15625 244.75 C 114.90202 245.37712 113.09105 245.41317 111.46875 245.65625 C 111.29358 246.57304 111.04964 247.36947 110.75 247.96875 C 110.74 247.98855 110.72835 248.01075 110.71875 248.03125 L 110.96875 253.6875 C 110.97293 253.75205 110.96424 253.81043 110.96875 253.875 C 111.03974 254.89067 111.16065 255.91066 111.625 256.375 C 113.02273 257.77274 113.7861 263.56735 114.15625 263.9375 C 116.05652 265.83777 117.41628 270.26003 119.1875 272.03125 C 119.78084 272.62459 118.08621 271.58189 117.1875 272.03125 C 115.73595 272.75702 115.04977 272.83449 113.65625 273.53125 C 113.21857 273.75009 112.73785 273.95313 112.28125 274.15625 C 112.38105 276.13731 112.32999 277.69598 112 278.5 L 113 302.125 C 114.67328 301.15704 116.38116 300.18442 118.1875 299.28125 C 120.73856 298.00572 123.05181 297.94819 124.75 296.25 C 125.45581 295.54419 126.56109 297.00141 126.78125 296.78125 C 127.01787 296.54464 125.85238 295.35238 125.75 295.25 C 124.83075 294.33074 119.51002 272.70872 119.6875 272.53125 C 121.8843 270.33444 127.39433 268.17784 130.8125 266.46875 C 132.64155 265.55423 135.77796 264.4375 137.875 264.4375 L 140.40625 264.4375 C 139.83112 264.4375 136.9222 261.45345 136.875 261.40625 C 136.12312 260.65437 121.23915 242.21875 121.21875 242.21875 z "
       id="path5638"
       inkscape:export-filename="/home/substack/media/vector/copter.png"
       inkscape:export-xdpi="84.202003"
       inkscape:export-ydpi="84.202003" />
    <path
       style="fill:#333c28;stroke:none;stroke-width:1px;stroke-linecap:butt;stroke-linejoin:miter;stroke-opacity:1;fill-opacity:0.33725491"
       d="M 352.1875 367.5625 C 351.75705 367.51929 351.373 367.627 351.03125 367.96875 C 348.4691 370.5309 343.13975 375.477 338.90625 377.59375 C 337.46705 378.31335 334.6365 379.33225 333.34375 380.625 C 329.37198 384.59677 317.19413 393.89362 311.625 395.75 C 310.38485 396.16338 308.7521 398.65415 308.09375 399.3125 C 307.25784 400.14841 295.01425 409.8835 293.96875 410.40625 C 284.43674 415.17226 275.24993 422.99398 265.96875 430.40625 L 341.28125 427.28125 C 343.25823 425.46735 345.96651 424.06474 347.5 422.53125 L 363.15625 406.875 C 366.11691 403.91434 369.28516 402.77735 372.25 399.8125 C 375.81027 396.25223 381.40582 392.65668 384.875 389.1875 C 385.10263 388.95987 386.375 389.07619 386.375 388.6875 C 386.375 387.85088 382.63596 387.44846 381.84375 386.65625 C 376.79716 381.60966 368.55446 381.46071 363.65625 376.5625 C 362.65422 375.56048 358.17621 372.61371 357.09375 371.53125 C 356.4943 370.93181 354.05279 367.74976 352.1875 367.5625 z "
       id="path5634"
       inkscape:export-filename="/home/substack/media/vector/copter.png"
       inkscape:export-xdpi="84.202003"
       inkscape:export-ydpi="84.202003" />
    <path
       style="fill:#bcc9ae;fill-opacity:0.49803922;stroke:none"
       d="M 610.03125 357 C 609.37774 357.02106 608.87774 357.12226 608.625 357.375 C 606.90544 359.09456 606.83162 361.19964 605.09375 362.9375 C 603.04096 364.99029 601.35699 368.17426 599.53125 370 C 599.04882 370.48243 599.07698 372.45427 598.5 373.03125 C 594.29981 377.23144 591.85577 383.23798 587.40625 387.6875 C 587.04526 388.04848 582.84375 391.05633 582.84375 391.71875 C 582.84375 392.33489 592.00643 392.25321 596 394.25 C 598.72135 395.61067 606.0966 397.2841 607.59375 398.78125 C 609.02678 400.21427 610.83317 401.93221 612.65625 402.84375 C 614.3426 403.68692 617.01979 402.99426 618.71875 403.84375 C 621.82375 405.39624 626.12413 406.57121 629.3125 407.46875 C 633.56856 403.41225 636.88517 398.83617 640.5625 395.34375 C 642.65896 393.35272 642.21969 384.13123 643.9375 380.90625 C 645.01937 378.87517 644.57526 372.91831 644 366.75 C 643.65165 366.65648 643.32658 366.55821 642.96875 366.46875 C 639.16894 365.5188 635.19518 363.40036 631.34375 362.4375 C 627.37026 361.44413 623.6415 359.88694 619.71875 358.90625 C 618.57512 358.62034 612.86311 356.90873 610.03125 357 z "
       id="path5615"
       inkscape:export-filename="/home/substack/media/vector/copter.png"
       inkscape:export-xdpi="84.202003"
       inkscape:export-ydpi="84.202003" />
    <path
       style="fill:#bcc9ae;stroke:none;stroke-width:1px;stroke-linecap:butt;stroke-linejoin:miter;stroke-opacity:1;fill-opacity:0.49803922"
       d="m 477.80215,212.42034 c -0.37507,0.97907 -4.69484,3.61011 -10.6066,6.56599 -4.39766,2.19884 -10.43263,4.8768 -13.13198,7.57615 -0.12648,0.12648 -7.72047,3.3912 -7.07107,4.04061 1.35539,1.35538 11.0809,-0.11858 12.62691,-0.50508 2.36611,-0.59153 22.80248,1.29972 25.25381,2.52538 2.75378,1.37689 5.52667,-1.27728 8.08122,0 5.28612,2.64306 13.31252,0.50508 19.69798,0.50508 2.4563,0 18.68782,-0.0301 18.68782,0 0,0.0594 -1.44095,-0.0743 -1.51523,0 -2.18266,2.18266 -6.01271,2.47718 -8.5863,5.05076 -2.5523,2.55231 -6.61955,3.57124 -9.59645,5.55584 -3.7442,2.49614 -7.95895,5.93865 -10.6066,8.5863 -1.16822,1.16822 -4.04136,2.27321 -5.55584,3.03045 -4.3843,2.19216 -8.91768,6.39231 -12.12183,9.59645 -0.81247,0.81247 -7.54174,7.61055 -7.07106,8.08122 0.85741,0.85742 11.76201,1.08279 13.63705,2.02031 3.53888,1.76943 8.07789,0.75594 11.61676,2.52538 0.94281,0.4714 2.59272,-0.4714 3.53553,0 2.04055,1.02028 6.50611,2.52538 8.5863,2.52538 1.83261,0 5.24808,-4.74301 6.06091,-5.55584 2.20361,-2.2036 6.428,-3.39754 8.5863,-5.55584 3.46023,-3.46023 9.12384,-7.10353 13.13198,-11.11167 5.16041,-5.16041 11.61202,-8.58157 16.66752,-13.63706 0.89927,-0.89927 2.32814,-0.81291 3.03046,-1.51523 1.99507,-1.99507 3.78947,-3.2844 5.55584,-5.05077 0.0304,-0.0304 1.51523,-1.91615 1.51523,-1.51522 0,0.18093 -6.37497,0.50507 -7.57615,0.50507 -1.72798,0 -12.31697,0.66005 -12.6269,0.50508 -2.76734,-1.38367 -9.81532,-2.52538 -12.62691,-2.52538 -0.79426,0 -6.46499,-1.11116 -5.55584,-2.02031 5.91799,-5.91799 13.7331,-9.69248 19.1929,-15.15229 1.74214,-1.74214 4.67668,-3.66653 6.56599,-5.55584 1.54393,-1.54393 3.06047,-2.52538 3.03046,-2.52538 -2.56289,0 -25.62879,-0.0651 -25.75889,0 -2.40547,1.20274 -7.88659,1.01016 -10.6066,1.01016 -4.75061,0 -17.47301,-1.36503 -21.21321,0.50507 -4.37284,2.18642 -16.43573,-1.88366 -23.23351,1.51523 z"
       id="path5600"
       inkscape:connector-curvature="0"
       inkscape:export-filename="/home/substack/media/vector/copter.png"
       inkscape:export-xdpi="84.202003"
       inkscape:export-ydpi="84.202003" />
    <path
       style="fill:#bcc9ae;stroke:none;stroke-width:1px;stroke-linecap:butt;stroke-linejoin:miter;stroke-opacity:1;fill-opacity:0.49803922000000000"
       d="m 145.71429,351.6479 c 6.60238,9.82573 9.28418,21.42551 14.28571,31.42857 1.93126,3.86252 2.50957,20.36671 5,22.85714 1.26854,1.26854 2.81912,-2.48099 3.57143,-2.85714 5.35192,-2.67596 10.17234,-6.51475 15.71428,-9.28572 10.96372,-5.48186 24.27522,-9.27521 32.14286,-17.14285 2.41209,-2.4121 7.57658,-2.57658 9.28572,-4.28572 1.44315,-1.44315 -14.32088,-19.32087 -16.42858,-21.42857 -2.3137,-2.3137 -2.10967,-6.39539 -4.28571,-8.57143 -3.09307,-3.09307 -6.0897,-6.80399 -8.57143,-9.28571 -0.95924,-0.95925 -2.67234,-6.79818 -3.57143,-5 -2.78211,5.56423 -31.06814,15.35386 -37.85714,22.14285 -1.45082,1.45083 -7.36016,1.42858 -9.28571,1.42858 z"
       id="path5585"
       inkscape:connector-curvature="0"
       inkscape:export-filename="/home/substack/media/vector/copter.png"
       inkscape:export-xdpi="84.202003"
       inkscape:export-ydpi="84.202003" />
    <path
       style="fill:#333c28;stroke:#ffffff;stroke-width:1px;stroke-linecap:butt;stroke-linejoin:miter;stroke-opacity:0;fill-opacity:0.33632287000000000"
       d="m 271.42857,425.21932 c 6.38905,-3.06104 10.87841,-9.15703 16.42857,-12.85714 9.89509,-6.59672 17.97306,-13.68734 25,-20.71428 3.23836,-3.23836 9.79952,-4.79952 12.85715,-7.85715 0.59523,-0.59523 2.2619,-0.11904 2.85714,-0.71428 2.11465,-2.11465 21.48121,-15.66165 20.71428,-16.42857 -6.76007,-6.76008 -19.51078,-10.82683 -27.85714,-15 -3.70005,-1.85003 -5.898,-3.75515 -7.85714,-5.71429 -1.25773,-1.25772 -5.44422,-1.15851 -7.14286,-2.85714 -3.48623,-3.48623 -8.69478,-7.26621 -12.14286,-10.71429 -1.69064,-1.69065 -5.4522,-2.59506 -7.14285,-4.28571 -0.91665,-0.91665 5.38306,-3.76296 6.42857,-4.28572 6.15247,-3.07623 12.19515,-5.05229 16.42857,-9.28571 4.67275,-4.67275 9.95717,-5.69287 15.71429,-8.57143 10.73348,-5.36674 22.96708,-11.53851 30,-18.57143 0.48975,-0.48975 7.14285,-3.0185 7.14285,-4.28571 0,-1.42857 -2.85714,0 -4.28571,0 -5.13184,0 -10.42592,-1.33245 -15,-2.85715 -6.90992,-2.3033 -15.15677,-0.43552 -21.42857,-3.57142 -1.33334,-0.66667 -3.66667,0.66666 -5,0 -2.03092,-1.01546 -10.85428,-5 -12.14286,-5 -0.98502,0 -4.45992,-1.69862 -6.42857,-0.71429 -6.46558,3.23279 -13.10993,7.54948 -20,12.14286 -3.90066,2.60044 -7.1769,5.01702 -11.42857,7.14285 -2.95095,1.47548 -24.28572,14.78319 -24.28572,12.85715 0,-0.80067 3.90118,0.16487 7.85715,2.14285 4.47826,2.23914 8.47096,6.32811 11.42857,9.28572 0.81596,0.81596 3.60345,0.74631 4.28571,1.42857 1.54447,1.54447 5.42948,4.7152 7.14286,6.42857 1.8963,1.89631 12.85714,5.84635 12.85714,7.85714 0,0.78733 -16.05517,6.05518 -20,10 -4.05892,4.05893 -10.73143,7.87429 -14.28571,11.42858 -1.40554,1.40553 -4.2071,1.34995 -5.71429,2.85714 -2.03534,2.03534 -4.54785,5.48821 -7.85714,7.14286 -2.45604,1.22801 -10.59662,6.3109 -12.14286,7.85714 -0.30309,0.30309 4.50664,4.01327 5,5 1.66321,3.32641 4.45261,6.59546 7.14286,9.28571 7.49467,7.49468 10.63971,18.49686 18.57143,26.42857 4.90492,4.90493 7.98274,12.47882 14.28571,15 z"
       id="path5583"
       inkscape:connector-curvature="0"
       inkscape:export-filename="/home/substack/media/vector/copter.png"
       inkscape:export-xdpi="84.202003"
       inkscape:export-ydpi="84.202003" />
    <path
       style="fill:#333c28;stroke:#ffffff;stroke-width:1px;stroke-linecap:butt;stroke-linejoin:miter;stroke-opacity:0;fill-opacity:0.33632287"
       d="M 638.09375 211.1875 C 635.01577 212.90941 633.0471 215.73415 628.5625 220.21875 C 625.88771 222.89355 621.28907 224.64843 618.5625 227.375 C 615.09705 230.84045 611.59753 235.49811 607.84375 237.375 C 605.35139 238.62118 594.31917 236.65625 590.71875 236.65625 C 586.91255 236.65625 570.44478 234.99636 568.5625 235.9375 C 566.76826 236.83462 566.77537 239.88087 565.71875 240.9375 C 563.67757 242.97868 560.21289 242.84962 557.84375 245.21875 C 549.85892 253.20359 539.76911 259.01213 530.71875 268.0625 C 528.07175 270.7095 516.4375 276.91262 516.4375 278.78125 C 516.4375 279.53414 518.0301 278.9676 518.5625 279.5 C 524.59457 285.53207 536.58446 279.58911 540.71875 281.65625 C 543.07693 282.83534 546.26034 283.78125 549.28125 283.78125 C 552.46504 283.78125 556.5042 285.8708 556.4375 285.9375 C 548.83388 293.54112 539.3329 300.1671 532.84375 306.65625 C 529.5115 309.9885 517.95814 324.45843 515 325.9375 C 501.61577 332.62962 519.58605 324.35466 510 328.78125 C 515.65376 338.20419 535.63466 334.41591 540.71875 339.5 C 541.19494 339.97619 543.08631 339.02381 543.5625 339.5 C 546.19338 342.13088 572.17812 347.39687 575 350.21875 C 576.79739 352.01615 583.89006 349.82756 585.71875 351.65625 C 587.08332 353.02082 598.22854 352.00979 600 353.78125 C 600.79269 354.57395 608.44154 358.21471 609.28125 357.375 C 612.14648 354.50978 632.84375 325.45619 632.84375 323.78125 C 632.84375 322.71873 636.01244 318.51881 637.15625 317.375 C 638.8226 315.70865 639.11615 311.1026 640.71875 309.5 C 641.16953 309.04922 641.64463 308.62185 642.15625 308.1875 L 641.6875 297.0625 C 640.08953 297.21961 638.05205 297.8229 637.15625 297.375 C 632.09278 294.84327 620.39393 296.11884 617.15625 294.5 C 611.08183 291.46279 603.97833 290.21875 596.4375 290.21875 C 594.02972 290.21875 575.4308 289.35603 574.28125 288.78125 C 573.23864 288.25995 571.37092 287.375 570.71875 287.375 C 566.58816 287.375 564.61229 286.65625 560.71875 286.65625 C 560.3744 286.65625 559.91693 286.32355 559.5 286.0625 C 562.37953 284.17127 571.08269 272.72981 571.4375 272.375 L 599.28125 244.5 C 600.65172 243.12953 601.99245 241.07005 603.5625 239.5 C 605.45173 237.61077 621.76467 240.21875 627.84375 240.21875 C 631.16199 240.21875 638.11388 239.77013 639.28125 240.9375 C 639.29348 240.94973 639.32723 240.95788 639.34375 240.96875 L 638.09375 211.1875 z "
       id="path5566"
       inkscape:export-filename="/home/substack/media/vector/copter.png"
       inkscape:export-xdpi="84.202003"
       inkscape:export-ydpi="84.202003" />
    <path
       style="fill:#ff0000;stroke:#ffffff;stroke-width:1px;stroke-linecap:butt;stroke-linejoin:miter;stroke-opacity:0;fill-opacity:0.30044842"
       d="m 191.07143,280.57647 c -2.72449,3.67131 -3.59278,7.51067 -7.85714,9.64285 -2.2463,1.12315 -4.38618,2.5 -4.28572,2.5 0.44453,0 1.0626,11.44624 0.35714,12.85715 -0.36895,0.73791 -1.39645,5.7464 -1.07142,6.07143 0.28112,0.28112 1.90426,-0.23785 2.14285,-0.35715 2.52355,-1.26177 10.46889,-1.07143 13.57143,-1.07143 2.52998,0 7.48716,2.86999 7.5,2.85715 1.88132,-1.88132 6.04265,-8.02133 8.57143,-9.28572 0.71544,-0.35772 4.64286,-2.16425 4.64286,-2.5 0,-0.23809 -0.54593,0.16836 -0.71429,0 -0.47947,-0.47946 -1.07143,-2.13168 -1.07143,-3.21428 0,-4.84408 0.88818,-6.95961 4.28572,-10.35715 0.40057,-0.40057 3.21428,-3.68315 3.21428,-3.57142 0,0.20077 -6.3099,0 -7.85714,0 -2.28388,0 -14.60337,-3.17481 -15.35714,-3.92858 -0.65046,-0.65045 -3.36182,-3.42389 -3.92857,-2.85714 -0.5938,0.59379 -1.4285,2.02368 -2.14286,3.21429 z"
       id="path5515"
       inkscape:connector-curvature="0"
       inkscape:export-filename="/home/substack/media/vector/copter.png"
       inkscape:export-xdpi="84.202003"
       inkscape:export-ydpi="84.202003" />
    <path
       style="fill:#ff0000;stroke:#ffffff;stroke-width:1px;stroke-linecap:butt;stroke-linejoin:miter;stroke-opacity:0;fill-opacity:1"
       d="m 193.92857,283.07647 c -2.35813,3.31296 -3.49411,6.70839 -6.42857,9.64285 -0.35226,0.35226 -1.1683,0.45401 -1.42857,0.71429 -0.31853,0.31853 1.58693,3.72979 2.5,4.64286 1.27417,1.27417 -0.76246,5.30896 0.35714,6.42857 0.21485,0.21485 1.64085,-1.28371 1.78572,-1.42857 0.99497,-0.99498 3.67267,-1.83634 5,-2.5 1.91046,-0.95523 4.48258,-0.71429 6.78571,-0.71429 0.36251,0 1.59923,0.90077 1.78571,0.71429 0.65477,-0.65476 -0.65476,-3.27381 0,-3.92857 0.86638,-0.86638 0.9195,-1.83899 1.42858,-2.85715 0.46397,-0.92795 1.34924,-0.91278 1.78571,-1.78571 0.27329,-0.54658 4.64286,-3.1087 4.64286,-2.5 0,0.57161 -9.7558,-0.82723 -10.71429,-1.78572 -0.58334,-0.58334 -2.10794,-0.67937 -2.85714,-1.42857 -1.00545,-1.00544 -1.62471,-2.33899 -2.5,-3.21428 -0.50508,-0.50508 -1.42857,0 -2.14286,0 z"
       id="path5513"
       inkscape:connector-curvature="0"
       inkscape:export-filename="/home/substack/media/vector/copter.png"
       inkscape:export-xdpi="84.202003"
       inkscape:export-ydpi="84.202003" />
    <path
       style="fill:#ff0000;stroke:none;stroke-width:1px;stroke-linecap:butt;stroke-linejoin:miter;stroke-opacity:1;fill-opacity:0.29147983"
       d="m 375,266.29075 c -0.0278,-1.10058 0.40523,-0.81046 1.78571,-3.57143 0.64041,-1.28081 2.14322,-2.50142 2.5,-3.92857 1.56111,-6.24442 4.53374,-12.0635 6.07143,-18.21428 0.84842,-3.39366 2.754,-14.53972 4.28572,-16.07143 0.55725,-0.55725 4.10103,1.60511 4.64285,1.78571 6.31252,2.10417 19.05739,2.37851 25.71429,0.71429 5.18977,-1.29745 9.79739,-3.47013 14.28571,-5.71429 0.38225,-0.19112 3.78921,-2.63936 3.92858,-2.5 0.0183,0.0183 -1.02564,0.97986 -1.07143,1.07143 -0.46775,0.93549 -1.31419,1.91409 -1.78572,2.85714 -1.36561,2.73123 -1.12699,6.95241 -2.14285,10 -2.42888,7.28663 4.77425,21.55997 8.57142,25.35715 0.0237,0.0237 -2.08917,1.39278 -3.21428,2.14285 -3.38519,2.2568 -6.10015,4.91925 -8.57143,8.21429 -3.05214,4.06951 -7.29646,9.74651 -8.92857,14.64286 -0.61919,1.85755 -3.60992,10.03849 -4.28572,10.71428 -0.20344,0.20345 -4.1888,-4.18881 -5,-5 -3.26241,-3.26241 -7.32653,-4.28912 -11.07142,-6.78571 -3.0723,-2.0482 -18.16021,-7.70561 -22.14286,-5.71429 -0.49134,0.24567 -2.42218,1.07143 -2.85714,1.07143 -0.1474,0 0.70561,-2.49133 0.71428,-2.5 0.0945,-0.0945 0,-0.92437 0,-1.07143 0,-0.99332 1.16431,-4.90712 0.35714,-5.71428 -0.46317,-0.46318 -0.84126,-0.84127 -1.78571,-1.78572 z"
       id="path5473"
       inkscape:connector-curvature="0"
       inkscape:export-filename="/home/substack/media/vector/copter.png"
       inkscape:export-xdpi="84.202003"
       inkscape:export-ydpi="84.202003" />
    <path
       style="fill:#ff0000;stroke:#ffffff;stroke-width:0.84790266px;stroke-linecap:butt;stroke-linejoin:miter;stroke-opacity:0"
       d="m 389.42395,253.70132 c 0.9139,-0.1184 4.97771,-4.50461 6.96492,-8.47903 0.3189,-0.6378 0.5452,-1.45367 0.90846,-1.81693 0.31213,-0.31212 -0.009,-1.80763 0.30283,-2.11976 0.38255,-0.38255 0.90847,-1.48962 0.90847,-2.11976 0,-1.70954 5.81582,0.60565 6.96491,0.60565 3.23971,0 14.77292,-2.05438 16.35241,-3.63386 0.0436,-0.0436 -0.70223,1.10163 -1.51412,2.72539 -0.76556,1.53113 -1.50545,7.28506 -0.60564,9.08468 0.64534,1.29068 1.87094,5.50481 2.42258,6.05644 0.0949,0.0949 1.06868,1.05108 0.90847,1.2113 -0.62109,0.62108 -2.229,1.22373 -3.02823,2.42257 -1.43982,2.15973 -2.75207,4.569 -4.54233,6.35927 -0.70245,0.70245 -1.81689,1.51405 -2.42258,2.42258 -1.23776,1.85664 -2.4826,4.29954 -3.63387,5.4508 -0.2253,0.22531 -1.38815,-1.38815 -1.51412,-1.51411 -1.38008,-1.38008 -3.11626,-2.92083 -5.14797,-3.93669 -1.35993,-0.67996 -6.00747,-1.76794 -6.6621,-2.42258 -0.54241,-0.54242 -5.95416,0.70794 -6.05644,0.60564 -0.19362,-0.19361 1.82235,-7.86796 0.90846,-8.78184 -0.42027,-0.42027 -0.83918,-1.2761 -1.51411,-2.11976 z"
       id="path5458"
       inkscape:connector-curvature="0"
       inkscape:export-filename="/home/substack/media/vector/copter.png"
       inkscape:export-xdpi="84.202003"
       inkscape:export-ydpi="84.202003" />
    <path
       style="fill:#57ff1f;stroke:none;stroke-width:1px;stroke-linecap:butt;stroke-linejoin:miter;stroke-opacity:1;fill-opacity:0.26905829"
       d="m 302.03561,229.08786 c 7.55133,-0.99498 13.11917,-13.13199 18.68782,-13.13199 4.14216,0 6.49094,4.04061 12.12183,4.04061 0.47539,0 8.08122,-1.93369 8.08122,-1.51522 0,0.55191 -5.95703,6.66987 -3.53553,9.09137 0.41183,0.41183 2.30964,6.27666 2.02031,6.56599 -1.4027,1.4027 -4.70848,1.79211 -6.566,3.03046 -4.5545,3.03633 -7.41891,7.41891 -10.10152,10.10152 -0.54707,0.54707 -6.76488,-5.79049 -9.09137,-6.56599 -2.30994,-0.76998 -5.39057,-1.43259 -7.57615,-2.52538 -0.34684,-0.17342 -2.52538,0.7318 -2.52538,0.50508 0,-3.68577 0.18638,-5.34244 -1.51523,-9.59645 z"
       id="path5454"
       inkscape:connector-curvature="0"
       inkscape:export-filename="/home/substack/media/vector/copter.png"
       inkscape:export-xdpi="84.202003"
       inkscape:export-ydpi="84.202003" />
    <path
       style="fill:#57ff1f;stroke:#ffffff;stroke-width:1px;stroke-linecap:butt;stroke-linejoin:miter;stroke-opacity:0;fill-opacity:0.14798206"
       d="m 292.43916,240.70461 c 3.11185,-2.16973 -0.35017,-14.45193 0,-15.15229 1.03693,-2.07384 7.03756,-2.50025 9.09137,-4.04061 3.66748,-2.7506 7.8362,-5.13744 12.12184,-6.56599 2.98503,-0.99501 6.15804,-4.64282 7.57614,-6.06091 0.92679,-0.92679 15.64333,2.5207 17.17259,3.03045 3.21737,1.07246 7.00044,0.48154 10.10153,1.51523 0.37655,0.12552 5.55584,-0.0935 5.55584,0 0,0.0789 -1.81617,2.41804 -2.02031,3.03046 -0.59107,1.7732 -0.95231,3.86709 -1.51523,5.55584 -1.2468,3.74042 -0.31566,8.20748 -2.0203,11.61675 -0.14839,0.29678 -14.75736,12.70034 -16.16244,13.63706 -4.47753,2.98502 -8.03851,9.82763 -12.62691,12.12183 -1.5316,0.7658 -3.76876,-2.7586 -4.54569,-3.53553 -1.13317,-1.13317 -3.25547,-1.55772 -4.54568,-2.52538 -7.22361,-5.41771 -12.8343,-7.27846 -18.18275,-12.62691 z"
       id="path5456"
       inkscape:connector-curvature="0"
       inkscape:export-filename="/home/substack/media/vector/copter.png"
       inkscape:export-xdpi="84.202003"
       inkscape:export-ydpi="84.202003" />
    <path
       style="fill:#525149;stroke:#ffffff;stroke-width:1px;stroke-linecap:butt;stroke-linejoin:miter;stroke-opacity:0;fill-opacity:1"
       d="m 266.1752,232.11832 c -0.67344,0.50507 -1.51523,2.18866 -2.02031,1.51522 -0.50508,-0.67343 2.61554,-2.11046 2.02031,-1.51522 -0.76228,0.76227 -1.76311,1.25802 -2.52539,2.0203 -2.35493,2.35493 10.63125,9.83667 13.13199,8.5863 2.90829,-1.45415 12.40314,-5.33208 14.14213,-7.07107 4.22417,-4.22417 11.85172,-8.1987 17.67767,-11.11168 1.56101,-0.7805 4.54276,-0.50214 5.55584,-1.51523 3.40389,-3.40389 11.04775,-4.00864 16.16244,-6.56599 3.33575,-1.66788 7.90519,-0.92213 11.11168,-2.52538 2.89662,-1.44831 8.57668,-3.03046 11.61675,-3.03046 2.50337,0 6.59837,-1.75158 9.09138,-0.50507 1.4799,0.73995 5.73853,2.43403 7.57614,1.51522 1.15543,-0.57771 2.36764,-2.71496 3.03046,-4.04061 0.94594,-1.89187 1.55214,-4.97693 0.50508,-7.07106 -0.42578,-0.85155 0.10062,-1.91968 -0.50508,-2.52538 -0.58926,-0.58926 -1.43105,-0.92598 -2.02031,-1.51523 -0.13998,-0.13998 -15.28554,-0.8769 -15.65736,-0.50508 -0.8132,0.8132 -4.41782,1.51523 -6.06092,1.51523 -6.52723,0 -43.51011,13.71061 -48.48732,18.68782 -1.78413,1.78414 -6.7062,1.15036 -8.58629,3.03046 -4.0639,4.06389 -19.54791,8.90032 -25.75889,12.62691 z"
       id="path5135"
       inkscape:connector-curvature="0"
       inkscape:export-filename="/home/substack/media/vector/copter.png"
       inkscape:export-xdpi="84.202003"
       inkscape:export-ydpi="84.202003" />
    <path
       style="fill:#525149;stroke:#ffffff;stroke-width:1px;stroke-linecap:butt;stroke-linejoin:miter;stroke-opacity:0;fill-opacity:1"
       d="m 323.75389,243.73507 c -5.5448,6.01644 -2.5192,15.01868 2.58257,20.28589 4.92877,9.49223 6.28519,-6.10411 12.84845,-6.58814 6.17443,-5.46622 12.66096,-10.64473 20.15692,-14.23967 6.67098,-3.55029 13.83519,-6.44321 19.4061,-11.70017 6.67814,-2.91844 12.93931,-6.73491 19.73986,-9.17732 6.83235,-2.06825 13.58655,-4.57274 20.35121,-6.70928 7.05079,0.2027 13.94616,-2.33435 21.06469,-2.79635 6.33009,-1.76573 13.43149,-1.62352 20.22337,-2.32451 6.97417,-0.81422 13.52464,2.13835 20.50308,1.78813 7.34554,-0.64531 13.43546,2.96442 19.67635,6.13543 3.29664,3.51538 14.39775,12.03452 13.50842,1.60596 0.0994,-8.06383 -0.75122,-17.05919 -7.22341,-22.74699 -2.22602,-8.46353 -14.474,-5.02217 -21.07541,-7.51103 -7.56317,-1.43998 -14.58099,0.2743 -21.92511,1.39775 -7.22346,0.72766 -14.98511,-3.3998 -21.61768,0.77842 -6.98291,0.68859 -13.27516,3.89029 -20.3577,4.14896 -7.4023,-0.0933 -13.09562,4.76039 -20.09236,6.29262 -7.06824,1.84325 -14.26068,3.31918 -20.32073,7.56391 -10.81341,4.63263 -22.08186,8.67353 -31.68973,15.61364 -4.13732,5.49893 -11.57076,6.5845 -17.02337,10.44218 -3.25856,2.0519 -6.9833,4.1489 -8.73552,7.74057 z"
       id="path5026"
       inkscape:connector-curvature="0"
       inkscape:export-filename="/home/substack/media/vector/copter.png"
       inkscape:export-xdpi="84.202003"
       inkscape:export-ydpi="84.202003" />
    <path
       style="fill:#ff0000;stroke:none;stroke-width:1px;stroke-linecap:butt;stroke-linejoin:miter;stroke-opacity:1;fill-opacity:0.12107623"
       d="m 367.85714,290.21932 c -1.01857,-2.4735 -2.05966,-15.19074 -5.35714,-21.78571 -1.24261,-2.48523 -4.45646,-5.17075 -5.71429,-6.42857 -0.22848,-0.22848 -1.42857,-0.3416 -1.42857,-0.71429 0,-0.82723 3.7627,-4.14523 4.28572,-5.71428 0.79973,-2.3992 2.47949,-4.6121 3.92857,-6.78572 1.26359,-1.89538 1.52676,-4.43299 2.85714,-6.42857 2.41074,-3.6161 5.3979,-7.9794 6.78572,-12.14286 0.9982,-2.99459 5.08152,-16.29076 6.78571,-17.14285 1.77742,-0.88871 6.45805,0.0644 8.21429,0.35714 4.18761,0.69794 8.66941,-0.34081 12.85714,0.35714 5.9176,0.98627 12.90336,1.91933 18.92857,0.71429 8.58474,-1.71695 18.96335,-2.63064 27.14286,-5.35714 1.64613,-0.54872 5.37649,-1.7954 6.78571,-2.5 0.57341,-0.28671 1.78572,-1.35538 1.78572,-0.71429 0,0.0965 -2.11013,1.55804 -2.5,2.14286 -1.21834,1.82751 -2.83811,3.81436 -3.21429,6.07143 -0.64325,3.85948 -2.21397,7.56953 -2.85714,11.42857 -0.26905,1.61429 0.32073,3.39634 0,5 -0.16772,0.83856 -0.54599,1.55576 -0.35715,2.5 0.79096,3.95479 2.07415,7.87073 2.85715,11.78571 0.72998,3.64992 3.71836,8.43469 5.71428,11.42857 0.83467,1.252 2.22174,2.30062 2.85715,3.57143 1.04631,2.09263 4.03058,3.82656 3.92857,3.92857 -0.29989,0.29989 -2.09015,-0.10246 -2.5,0 -1.54969,0.38743 -3.27161,1.32011 -4.64286,2.14286 -10.18642,6.11185 -23.0177,8.84273 -32.5,16.42857 -5.50847,4.40678 -11.05044,8.17232 -14.28571,14.64286 -0.42856,0.8571 -2.13256,3.92857 -2.5,3.92857 -0.77603,0 -5.46031,-3.25555 -7.14286,-3.92857 -6.45808,-2.58323 -13.04094,-4.42095 -19.64286,-6.07143 -2.9793,-0.74483 -5.83402,1.07143 -8.57143,1.07143 -1.07143,0 -3.42441,1.05062 -3.21428,0 0.12573,-0.62864 0.47619,-1.19048 0.71428,-1.78572 z"
       id="path5475"
       inkscape:connector-curvature="0"
       inkscape:export-filename="/home/substack/media/vector/copter.png"
       inkscape:export-xdpi="84.202003"
       inkscape:export-ydpi="84.202003" />
    <path
       style="fill:#2e2d29;fill-opacity:1;stroke:#ffffff;stroke-width:1px;stroke-linecap:butt;stroke-linejoin:miter;stroke-opacity:0"
       d="m 482.40625,187 c -4.79006,-0.0232 -9.58739,0.17848 -13.46875,0.65625 -10.14523,-1.17517 -25.51764,2.2653 -31.5625,3.21875 -5.96049,0.37317 -32.76701,7.20067 -38.6875,8.6875 -17.02859,6.86113 -30.65337,13.21013 -47.03125,21.65625 -12.76645,6.68327 -23.99055,15.82881 -31.6875,22.96875 -5.29608,6.25642 -1.2216,13.77145 2.875,6.34375 5.31939,-6.98419 12.1019,-11.17199 18,-17.5625 6.86215,-6.54831 17.43251,-11.30596 25.46875,-15.90625 13.03218,-6.99155 23.86605,-10.38036 37.75,-15.1875 7.16563,-1.37559 14.92883,-4.38275 26.34375,-7.1875 7.65056,-0.26451 17.13617,-2.83961 24.90625,-2.21875 7.6345,-1.75119 15.4487,-1.96248 23.4375,-0.71875 2.91517,0.90588 16.63973,-0.17592 26.625,9 6.3052,6.81928 2.25771,14.69904 -2.6875,22.09375 -5.82473,7.33203 -12.22875,10.74387 -20.25,15.4375 -7.27215,4.65156 -17.28556,11.1617 -25.53633,13.48398 -5.23919,2.39977 -15.21983,6.40995 -21.58867,8.45352 -7.58994,3.82217 -18.3759,6.74285 -24.21875,9.96875 -8.25129,1.38843 -18.6901,3.3732 -27,4.25 -12.36677,2.33358 -24.84069,-1.19778 -44.1875,-7.46875 -0.007,-0.005 -0.0238,0.005 -0.0312,0 -0.0671,-0.0405 -0.12178,-0.0839 -0.1875,-0.125 -0.68255,-0.42658 -1.27529,-0.86904 -1.78125,-1.375 -0.11624,-0.11624 -0.98255,-0.34563 -2.03125,-0.59375 -1.97227,-0.86321 -3.97722,-1.52636 -5.53125,-1.75 -0.41881,-0.21922 -0.77875,-0.435 -1.03125,-0.6875 -0.65009,-0.65009 -2.88499,0.35374 -3.03125,0.5 -1.21734,1.21734 0.36644,2.78334 2.53125,4.1875 1.5027,2.03063 4.35335,4.92568 9.09375,8.9375 7.94738,1.22139 8.76372,4.6774 11.625,11.125 6.23781,6.04635 14.16145,8.6796 22.25,11.65625 9.2598,3.79579 19.42364,4.54932 29.1875,2.3125 8.81282,-2.6772 18.27527,-2.62134 26.59375,-6.9375 12.80342,-6.81506 26.76228,-11.28128 39.21875,-18.75 9.03261,-6.55763 18.71076,-12.39617 26.78125,-20.15625 8.16065,-6.94225 16.86551,-13.34374 23.90625,-21.53125 6.52271,-5.61235 7.6854,-14.38086 10.71875,-21.84375 -0.11722,-8.96248 -7.06804,-15.55544 -12.625,-18.90625 -7.86175,-3.29797 -14.75846,-4.14466 -19.8125,-5.34375 -3.78377,-0.43043 -8.55369,-0.66434 -13.34375,-0.6875 z"
       id="path4955"
       inkscape:connector-curvature="0"
       sodipodi:nodetypes="sccccccccccccccccccccccsccssccccccccccccs"
       inkscape:export-filename="/home/substack/media/vector/copter.png"
       inkscape:export-xdpi="84.202003"
       inkscape:export-ydpi="84.202003" />
    <path
       style="fill:#181816;fill-opacity:1;stroke:#ffffff;stroke-width:1px;stroke-linecap:butt;stroke-linejoin:miter;stroke-opacity:0"
       d="m 353.55339,303.33407 c 7.44982,6.44749 14.33319,17.70555 25.8572,14.38656 15.07301,-2.95822 30.93382,-3.79463 44.57639,-11.54076 15.82085,-2.97401 34.0502,-11.30412 40.93598,-13.93786 5.33305,-2.35841 18.98421,-12.09024 27.03903,-16.73214 15.63777,-10.34636 30.26592,-23.29007 36.64088,-41.02138 -0.23831,-9.6772 0.56931,-20.47051 -0.79817,-30.14936 -0.75305,8.69615 -3.3064,19.91177 -11.13388,25.05382 -11.46542,12.21649 -27.17868,19.10714 -40.90766,28.35037 -10.92047,7.4091 -26.01065,14.09157 -38.42244,17.70354 -12.52329,5.98026 -32.69318,12.42608 -41.93272,13.22271 -9.43891,0.69689 -31.96796,-4.5989 -41.87636,-8.19333 -8.6862,-5.43853 -18.84355,-10.16903 -31.0587,-17.96397 -11.0393,-3.72319 5.18409,22.0864 15.59188,25.54277 5.16568,5.12411 9.79309,10.76153 15.48857,15.27903 z"
       id="path4938"
       inkscape:connector-curvature="0"
       sodipodi:nodetypes="ccccccccccccccc"
       inkscape:export-filename="/home/substack/media/vector/copter.png"
       inkscape:export-xdpi="84.202003"
       inkscape:export-ydpi="84.202003" />
    <path
       style="fill:#57ff1f;stroke:#ffffff;stroke-width:1px;stroke-linecap:butt;stroke-linejoin:miter;stroke-opacity:0;fill-opacity:1"
       d="m 309.10668,229.08786 c -0.15235,0.0866 5.0449,-2.51952 7.57614,-5.05077 0.33112,-0.33111 0.25204,-1.76726 0.50508,-2.0203 0.30175,-0.30175 5.73477,2.52538 8.08122,2.52538 1.0715,0 4.34204,-1.21379 4.54569,-1.01015 0.0611,0.0611 -1.3294,3.3497 -1.51523,3.53553 -1.08507,1.08507 2.0203,5.1056 2.0203,6.06092 0,0.47324 -4.16256,-0.69664 -6.56599,0.50507 -2.456,1.228 -4.87468,4.21669 -5.05076,4.04061 -0.92154,-0.92154 -1.73485,-3.64534 -3.53554,-4.54568 -2.66769,-1.33385 -3.07508,-1.65195 -6.06091,-4.04061 z"
       id="path5452"
       inkscape:connector-curvature="0"
       inkscape:export-filename="/home/substack/media/vector/copter.png"
       inkscape:export-xdpi="84.202003"
       inkscape:export-ydpi="84.202003" />
    <path
       style="fill:#2e2d29;stroke:#ffffff;stroke-width:1px;stroke-linecap:butt;stroke-linejoin:miter;stroke-opacity:0;fill-opacity:1"
       d="m 257.5889,253.33152 c -0.67344,0.50508 -1.42507,0.91999 -2.02031,1.51523 -0.64763,0.64763 6.16492,10.7106 7.07107,11.61675 1.43587,1.43587 0.7143,9.3006 1.51523,10.10153 0.58926,0.58925 1.93613,0.42089 2.52538,1.01015 1.79796,1.79795 5.09284,4.58776 7.07107,6.56599 1.54124,1.54124 3.53287,1.51256 5.05076,3.03046 1.90801,1.908 10.68243,3.57344 13.63706,5.05076 4.03376,2.01688 13.10224,-0.77248 16.66752,1.01015 3.64801,1.82401 7.86568,0.50508 12.12183,0.50508 2.83629,0 9.85587,0.24565 11.61675,-1.51523 1.19547,-1.19547 2.34007,-3.35021 3.53554,-4.54568 1.00908,-1.00909 2.065,-22.17866 1.01015,-23.23351 -2.58494,-2.58495 -4.72045,-10.2763 -8.08122,-13.63706 -6.33183,-6.33183 -15.83535,8.42275 -20.20305,10.6066 -2.30146,1.15073 -9.28403,0.0642 -12.12183,1.01015 -5.85552,1.95184 -28.78995,0.50448 -32.32488,-3.03046 -2.29403,-2.29402 -3.26606,-3.7779 -7.07107,-6.06091 z"
       id="path5418"
       inkscape:connector-curvature="0"
       inkscape:export-filename="/home/substack/media/vector/copter.png"
       inkscape:export-xdpi="84.202003"
       inkscape:export-ydpi="84.202003" />
    <path
       style="fill:#181816;stroke:#ffffff;stroke-width:1px;stroke-linecap:butt;stroke-linejoin:miter;stroke-opacity:0;fill-opacity:1"
       d="m 147.14286,345.21932 c -0.0117,-0.0999 -17.90963,4.94752 -22.85715,0 -2.04117,-2.04117 -2.63086,-4.77371 -5,-7.14285 -2.11438,-2.11438 -4.98298,-4.96598 -6.42857,-7.85715 -1.02068,-2.04136 -4.71656,-3.85486 -2.85714,-5.71428 1.19048,-1.19048 3.80952,-0.95238 5,-2.14286 0.2381,-0.23809 0.71429,-1.051 0.71429,-0.71428 0,1.97597 4.22764,1.3705 5.71428,2.85714 5.28101,5.28101 18.24276,9.45005 27.14286,5 6.5644,-3.2822 13.80638,-5.11748 20.71428,-8.57143 2.4886,-1.2443 6.93621,-0.50763 8.57143,-2.14286 1.87224,-1.87223 8.84957,-5.71428 11.42857,-5.71428 2.4528,0 8.83,-5.45573 10,-4.28572 2.26911,2.2691 -4.46822,7.9484 -5.71428,8.57143 -3.72698,1.86349 -6.12239,6.12239 -9.28572,9.28572 -0.16648,0.16648 -14.21747,9.96588 -15.71428,10.71428 -5.91185,2.95593 -9.24784,12.10499 -12.14286,15 -0.76444,0.76444 -1.24589,-1.96017 -1.42857,-2.14286 -1.65025,-1.65024 -4.13614,-3.5116 -7.85714,-5 z"
       id="path4750"
       inkscape:connector-curvature="0"
       inkscape:export-filename="/home/substack/media/vector/copter.png"
       inkscape:export-xdpi="84.202003"
       inkscape:export-ydpi="84.202003" />
    <path
       style="fill:#2e2d29;stroke:#ffffff;stroke-width:1px;stroke-linecap:butt;stroke-linejoin:miter;stroke-opacity:0;fill-opacity:1"
       d="M 321.09375 219.9375 C 321.0827 219.956 321.11373 220.0085 321.125 220.0625 C 318.21628 221.81487 315.33584 223.88291 313.65625 225.5625 C 313.23537 225.9834 313.57715 227.1416 313.15625 227.5625 C 308.61767 232.10108 306.68875 240.5925 302.53125 244.75 C 302.14414 245.13711 303.41624 247.13499 303.5625 247.28125 C 304.42195 248.1407 310.37974 238.02414 311.625 236.15625 C 312.8937 234.2532 314.84365 230.51568 316.6875 229.59375 C 318.76304 228.55598 322.9265 234.47975 325.28125 232.125 C 326.97091 230.43534 324.51789 225.1097 322.6875 222.0625 C 322.70632 222.05408 322.73219 222.04461 322.75 222.03125 C 323.42343 221.52617 321.72383 220.67344 321.21875 220 C 321.14434 219.9256 321.11011 219.91012 321.09375 219.9375 z M 318.875 224.46875 C 318.9865 224.46055 319.09822 224.47099 319.21875 224.53125 C 324.74361 225.63622 323.61012 230.95387 322.25 229.59375 C 320.55273 227.89648 317.52391 227.55327 317.6875 227.0625 C 317.99793 226.13119 320.09681 224.97028 319.21875 224.53125 C 318.7998 224.67464 318.15829 225.17106 317.59375 225.625 C 317.31287 225.99864 317.01282 226.36731 316.6875 226.5625 C 316.14282 226.88931 316.78392 226.27616 317.59375 225.625 C 318.01123 225.06965 318.40844 224.50308 318.875 224.46875 z "
       id="path5406"
       inkscape:export-filename="/home/substack/media/vector/copter.png"
       inkscape:export-xdpi="84.202003"
       inkscape:export-ydpi="84.202003" />
    <path
       style="fill:#2e2d29;stroke:#ffffff;stroke-width:1px;stroke-linecap:butt;stroke-linejoin:miter;stroke-opacity:0;fill-opacity:1"
       d="m 258.59905,238.68431 c 2.888,-6.05987 9.52259,-8.07084 14.85302,-11.03369 6.10989,-2.98772 11.06709,-7.70716 17.4275,-10.23972 6.75955,-3.2732 15.39167,-6.68796 22.50732,-9.23893 4.19733,-1.4885 15.80025,-4.83028 20.42997,-6.27964 6.36915,-2.67152 23.17254,-7.69364 32.79963,-7.83119 6.94336,-2.20007 16.55326,1.25366 13.14543,9.85797 -1.64028,6.04362 -6.46379,10.56195 -12.36202,12.39589 -4.97179,2.1657 -9.05867,5.68625 -14.19496,7.45414 -4.86966,3.14791 -10.85923,4.38676 -14.73183,8.97238 -7.01436,6.23272 -15.25216,11.04607 -21.75041,17.90453 -4.64732,-0.93973 -7.72088,-7.77522 -9.49826,-11.00357 7.92647,-2.71938 15.61948,-6.32542 23.92358,-8.66553 5.88786,-3.30999 12.83251,-4.55531 18.25079,-8.85203 7.89266,-4.61209 18.15579,-7.20153 22.43079,-16.10347 2.20628,-8.60674 -10.28587,-10.08975 -16.3911,-8.42952 -5.74908,1.59349 -11.58694,3.02669 -17.32824,4.70593 -9.75851,3.59102 -20.5353,4.74115 -29.33618,10.63356 -6.08264,0.81702 -10.88459,4.11964 -16.1516,6.87275 -5.02616,2.62627 -9.65431,5.15616 -14.79012,7.46945 -5.92565,2.85786 -10.66696,7.41221 -15.94841,11.2572 -1.08036,0.23241 -2.18968,0.15361 -3.2849,0.15349 z"
       id="path5131"
       inkscape:connector-curvature="0"
       sodipodi:nodetypes="cccccccccccccccccccccc"
       inkscape:export-filename="/home/substack/media/vector/copter.png"
       inkscape:export-xdpi="84.202003"
       inkscape:export-ydpi="84.202003" />
    <path
       style="fill:#2e2d29;stroke:#ffffff;stroke-width:1px;stroke-linecap:butt;stroke-linejoin:miter;stroke-opacity:0;fill-opacity:1"
       d="M 256.78125 244.09375 C 252.51981 244.14898 248.19494 244.86604 244 245 C 236.79011 245.2622 229.82617 246.72729 223.375 250 C 216.65342 252.8608 214.72985 254.72869 203.8125 259.0625 C 197.66989 263.16682 190.77006 265.39217 185.4375 267.46875 C 179.8138 269.17452 171.9711 273.99789 165.34375 276.65625 C 162.25646 277.75249 152.69927 283.79104 146.28125 286.90625 C 138.66092 290.70534 125.54355 300.99911 122 305.34375 C 118.53892 307.82396 112.24574 318.87866 109.375 322.71875 C 110.5017 329.78824 118.18202 331.92852 124.21875 333.03125 C 134.57554 334.15263 144.37273 331.53718 154.03125 328.1875 C 155.64275 327.84338 157.26678 327.50097 158.875 327.15625 C 165.43895 322.36322 174.18723 323.90494 181.40625 320.625 C 187.2834 319.17882 192.16771 314.99892 198.09375 314.3125 C 205.1073 312.72103 211.06578 307.68177 216.4375 303.0625 C 222.00293 299.39121 228.18224 296.08962 234.15625 293.5 C 237.81565 290.44751 242.25026 288.4668 246.84375 287.15625 C 251.48669 286.09979 254.95681 282.8784 258.6875 280.21875 C 264.63117 277.86672 268.64419 272.83403 273.59375 269.03125 C 275.49526 267.36682 281.89239 262.18887 281.6875 259.75 C 282.54835 258.12487 282.98943 256.31546 282.8125 254.375 C 281.59628 246.74504 272.24669 247.46334 266.46875 245.78125 C 263.36352 244.40569 260.09571 244.05079 256.78125 244.09375 z M 246.34375 264.40625 C 247.6848 264.42439 248.96693 264.53623 250.15625 264.6875 C 250.15756 264.69777 250.15491 264.70848 250.15625 264.71875 C 250.51729 273.87867 242.02769 278.04915 234.71875 280.71875 C 229.03579 284.85132 222.84805 288.02249 216.53125 291.125 C 203.69189 303.75647 185.95218 308.85369 169.84375 315.875 C 164.8034 319.52117 158.85006 318.57329 153.34375 320.5625 C 151.71965 320.93285 150.06721 321.22468 148.40625 321.53125 C 146.41734 320.0476 140.87791 323.97166 138.5625 321.65625 C 138.12536 321.21911 137.62421 320.81483 137.09375 320.4375 C 142.95712 311.48119 153.90153 300.76799 165 295.21875 C 167.25012 294.09369 177.93632 289.40744 179.28125 288.0625 C 182.21543 285.12832 188.85792 281.86792 192.15625 280.21875 C 194.63962 278.97707 212.62129 273.28496 212.84375 273.0625 C 216.63833 269.26792 234.11688 264.24084 246.34375 264.40625 z M 152.65625 328.5 C 150.47697 329.42507 147.92405 329.937 145.25 330.1875 C 147.70802 329.58885 150.17911 329.03392 152.65625 328.5 z "
       id="path4793"
       inkscape:export-filename="/home/substack/media/vector/copter.png"
       inkscape:export-xdpi="84.202003"
       inkscape:export-ydpi="84.202003" />
    <path
       style="fill:#0b0b0a;fill-opacity:1;stroke:#ffffff;stroke-width:1px;stroke-linecap:butt;stroke-linejoin:miter;stroke-opacity:0"
       d="m 341.53899,277.15674 c 2.35768,-1.02605 4.60971,-5.74802 7.54857,-4.82168 1.6857,0.53133 2.82153,1.72668 4.32986,2.20212 5.35428,1.68768 10.44463,3.51458 13.58232,5.78838 0.28335,0.20535 1.53631,-0.13417 1.81968,0.0712 2.22771,1.61437 5.50497,1.18242 7.67285,2.75344 0.8616,0.62439 1.61928,2.73284 2.32639,3.24527 0.75924,0.5502 0.52377,1.82721 1.15576,2.70882 2.15945,3.01239 -1.90353,7.36077 -2.93723,8.78718 -1.02742,1.41778 -6.86032,4.07293 -9.0007,2.52184 -1.52827,-1.1075 -4.29214,-1.86289 -5.90946,-3.03494 -0.89669,-0.6498 -1.04888,-1.6792 -2.1575,-2.18724 -3.07209,-1.40781 -5.10948,-3.39085 -7.71427,-5.27848 -4.53913,-3.28941 -10.95713,-6.59816 -10.71627,-12.75589 z"
       id="path5269"
       inkscape:connector-curvature="0"
       inkscape:export-filename="/home/substack/media/vector/copter.png"
       inkscape:export-xdpi="84.202003"
       inkscape:export-ydpi="84.202003" />
    <path
       style="fill:#ffffff;stroke:#ffffff;stroke-width:1px;stroke-linecap:butt;stroke-linejoin:miter;stroke-opacity:0;fill-opacity:1;opacity:1"
       d="M 281.46875 231.84375 C 275.60323 231.90575 270.00205 232.52015 266.6875 233.625 C 261.82895 235.24452 257.33382 238.08664 252.53125 239.6875 C 249.52333 240.69014 247.08061 241.77419 245.34375 242.90625 C 245.34547 243.01774 245.36809 243.13387 245.375 243.25 C 248.55846 244.51627 253.00665 252.78791 254.5625 254.34375 C 258.13837 257.91962 264.52209 260.27208 267.1875 262.9375 C 267.23422 262.98422 267.27065 263.04223 267.3125 263.09375 C 269.61958 263.60893 272.37313 264.56064 272.75 264.9375 C 275.11821 267.30572 298.59802 268.90198 301.53125 265.96875 C 302.35937 265.14063 306.83915 266.09605 308.09375 265.46875 C 311.08564 263.9728 314.62193 267.46875 316.1875 267.46875 C 317.00586 267.46875 319.90355 271.13212 322.34375 272.21875 C 321.43163 266.29046 321.26955 258.80465 322.75 255.84375 C 323.15175 255.04026 324.32063 254.77312 324.75 254.34375 C 324.93393 254.15982 325.51578 254.0578 326.3125 254.03125 C 327.54236 253.99026 329.32098 254.13212 331.125 254.3125 C 330.76409 253.06273 330.54444 251.54444 329.8125 250.8125 C 327.93359 248.93359 326.39631 245.07315 323.75 243.75 C 321.2004 242.4752 318.01595 240.01596 316.1875 238.1875 C 314.31331 236.31331 307.03796 235.64807 304.0625 234.65625 C 303.23235 234.37953 301.81561 235.04843 301.03125 234.65625 C 296.98124 232.63124 289.01013 231.76404 281.46875 231.84375 z "
       id="path5152"
       inkscape:export-filename="/home/substack/media/vector/copter.png"
       inkscape:export-xdpi="84.202003"
       inkscape:export-ydpi="84.202003" />
    <path
       style="fill:#2e2d29;fill-opacity:1;stroke:#ffffff;stroke-width:1px;stroke-linecap:butt;stroke-linejoin:miter;stroke-opacity:0"
       d="m 317.125,275.15625 c -12.17876,3.46551 -24.8999,1.80545 -37.25,4.84375 -10.1868,2.27262 -21.11651,3.85596 -31.8125,5.5625 -14.76193,5.15415 -28.93543,11.39235 -44.1875,17.40625 -11.24664,6.869 -30.43186,19.71853 -42.96875,27.53125 -8.5632,7.00243 -22.90402,21.42655 -29.46875,29 -8.25694,7.94448 -13.74797,19.72643 -17.46875,29.8125 -0.42341,12.86813 4.29891,25.88557 14.53125,34.125 10.09623,9.06603 22.65054,14.93219 32.71875,24 14.12924,3.83545 29.20501,3.1633 43.65625,1.625 17.62786,-6.11269 32.71034,-6.54231 47.375,-10.03125 12.90597,-3.72133 25.85254,-8.67612 40.34375,-14.21875 7.97757,-3.84528 30.60678,-15.23821 37.40625,-20.65625 7.09492,-7.44806 21.18417,-19.0486 34.625,-33.28125 6.94103,-7.44846 19.55115,-24.74342 13.0625,-34.8125 -3.986,-13.92096 -1.97124,-31.45401 -15.125,-40.9375 -7.1659,-6.09543 -13.37113,-13.65846 -22.8125,-16.125 -6.52262,-4.02198 -15.33909,-0.86616 -22.625,-3.84375 z m -42.84375,29.875 c 1.1879,0.004 2.36828,0.0223 3.5625,0.0312 19.01405,0.7066 38.68689,-1.71892 57.125,4.0625 1.4874,0.45662 6.02896,1.4337 7.29009,2.26461 -0.0308,2.90181 -0.51709,6.88598 -0.88384,8.45414 -1.58093,7.01297 -7.10855,12.08468 -9.84375,18.6875 -9.19382,10.02 -18.5839,19.91167 -28.1875,29.5625 -10.39825,6.82964 -21.30164,13.32039 -33.25,17 -6.47349,4.79485 -15.0492,4.63248 -22.34375,7.65625 -6.60741,3.38535 -12.92674,7.38591 -20.8125,6.5 -7.50415,-0.86645 -14.33008,2.54769 -21.5,2.0625 -13.53748,4.3532 -28.27945,5.4328 -42.40625,3.46875 -6.47454,-1.78482 -14.90806,-3.13153 -15.71875,-10.375 0.76923,-6.60263 3.97966,-13.32248 8,-18.21875 11.10195,-15.38844 25.76611,-27.79422 42.125,-37.28125 8.95984,-4.84646 14.93788,-14.23423 25.3125,-16.4375 9.92584,-3.04604 17.13822,-11.32532 27.9375,-12.34375 7.1556,-4.75284 15.27847,-5.12257 23.59375,-5.09375 z"
       id="path3821"
       inkscape:connector-curvature="0"
       sodipodi:nodetypes="cccccccccccccccccccccccccccccccccccsc"
       inkscape:export-filename="/home/substack/media/vector/copter.png"
       inkscape:export-xdpi="84.202003"
       inkscape:export-ydpi="84.202003" />
    <path
       style="fill:#181816;fill-opacity:1;stroke:#ffffff;stroke-width:1px;stroke-linecap:butt;stroke-linejoin:miter;stroke-opacity:0"
       d="M 364.03125 296.28125 C 359.74251 305.59897 363.90854 316.88338 358.5625 325.625 C 355.57591 334.62016 353.15943 343.5714 347.40625 351.25 C 344.9802 359.80425 337.7778 364.01279 331.375 369.03125 C 321.76793 378.26815 307.5147 387.43801 299.90625 392.875 C 291.07711 397.61339 273.32115 404.94841 265.65625 407.875 C 257.92309 412.52449 249.17676 415.61683 240.625 418.40625 C 230.53013 420.70177 220.24814 421.9352 210.125 424.0625 C 206.09915 425.91273 202.19577 426.24127 198.25 426.0625 C 192.69273 427.57033 187.1131 428.62556 181.28125 427.5625 C 171.09236 427.4192 159.4597 428.42548 150.25 425.28125 C 141.43987 421.06839 125.12014 419.2615 116.34375 401.4375 C 118.4989 406.81048 116.89144 411.71208 120.5 414.46875 C 130.64472 429.24773 148.26597 435.67543 161.21875 447.4375 C 175.95417 451.18712 191.65907 451.02238 206.53125 448.5 C 226.62191 441.75098 248.4151 442.19728 268.09375 433.9375 C 289.35718 426.95594 309.72987 417.34833 328.5625 405.25 C 343.80447 390.25634 361.52931 377.20771 373.53125 359.25 C 379.80841 350.87547 380.68764 340.29672 376.46875 330.90625 C 374.10177 318.94818 374.18095 304.81169 364.03125 296.28125 z "
       id="path4679"
       inkscape:export-filename="/home/substack/media/vector/copter.png"
       inkscape:export-xdpi="84.202003"
       inkscape:export-ydpi="84.202003" />
    <path
       style="fill:#525149;fill-opacity:1;stroke:#ffffff;stroke-width:1px;stroke-linecap:butt;stroke-linejoin:miter;stroke-opacity:0"
       d="M 285.34375 283.5 C 272.26421 283.75023 256.24604 287.3301 251.53125 289.6875 C 244.66381 293.12122 223.04388 301.96555 217.6875 305.34375 C 209.48186 310.51894 190.10462 318.80163 178.8125 330.09375 C 176.54849 332.35776 172.37916 332.49584 170.71875 334.15625 C 166.82262 338.05238 160.9133 342.93045 156.5625 347.28125 C 153.94601 349.89774 153.70303 353.17197 151.53125 355.34375 C 144.54021 362.33479 141.04309 387.03652 147.15625 398.5625 C 146.7353 390.72081 150.44039 382.12112 155.3125 376.1875 C 166.41445 360.79906 181.07861 348.39328 197.4375 338.90625 C 206.39734 334.05979 212.37538 324.67202 222.75 322.46875 C 232.67584 319.42271 239.88822 311.14343 250.6875 310.125 C 258.86533 304.69318 268.29002 304.99077 277.84375 305.0625 C 296.8578 305.7691 316.53064 303.34358 334.96875 309.125 C 338.0624 310.07474 340.67527 311.90738 342.75 314.28125 C 343.22461 309.77751 341.78456 303.19081 340.40625 301.8125 C 336.13283 297.53908 327.30808 294.74558 322.25 289.6875 C 320.37948 287.81697 314.1687 288.69996 312.125 286.65625 C 309.93946 284.47072 302.91265 287.11258 300 285.65625 C 296.60061 283.95656 291.289 283.38626 285.34375 283.5 z "
       id="path4676"
       inkscape:export-filename="/home/substack/media/vector/copter.png"
       inkscape:export-xdpi="84.202003"
       inkscape:export-ydpi="84.202003" />
    <path
       style="fill:#57ff1f;stroke:#ffffff;stroke-width:1px;stroke-linecap:butt;stroke-linejoin:miter;stroke-opacity:0;fill-opacity:0.14798206"
       d="M 261.625 289.6875 C 247.42421 303.6088 232.35849 320 208.09375 320 C 206.50983 320 193.9375 323.50775 193.9375 324.03125 C 193.9375 325.22434 196.31711 329.82173 196.96875 331.125 C 198.66052 334.50853 196.2517 339.7534 198 343.25 C 200.26549 347.78098 195.96875 357.4263 195.96875 362.4375 C 195.96875 367.18465 191.45734 380.14484 191.9375 380.625 C 192.84165 381.52915 197.04258 378.66758 199 380.625 C 203.59659 385.22159 218.54902 391.83418 222.875 399.15625 C 224.21081 399.07789 225.56243 399.09123 226.9375 399.25 C 234.82326 400.13591 241.14259 396.13535 247.75 392.75 C 255.04455 389.72623 263.62026 389.8886 270.09375 385.09375 C 280.93019 381.75657 290.88616 376.0862 300.40625 369.96875 C 297.64349 360.97845 297.6454 355.05295 304.0625 342.21875 C 305.53939 339.26497 306.15978 335.05897 308.09375 333.125 C 308.51391 332.70483 313.90781 328.84531 313.15625 328.09375 C 311.8232 326.7607 291.49059 320.55309 288.90625 317.96875 C 286.36304 315.42555 281.59924 311.81525 277.78125 309.90625 C 273.67309 307.85217 264.23584 294.0389 261.625 289.6875 z "
       id="path5450"
       inkscape:export-filename="/home/substack/media/vector/copter.png"
       inkscape:export-xdpi="84.202003"
       inkscape:export-ydpi="84.202003" />
    <path
       style="fill:#57ff1f;fill-opacity:0.51569507;stroke:#ffffff;stroke-width:0.80042261px;stroke-linecap:butt;stroke-linejoin:miter;stroke-opacity:0"
       d="m 223.24686,337.65683 c 3.99343,-1.3032 9.47965,-0.69708 12.93679,-2.42565 8.44426,-4.22213 14.89227,-10.04097 20.21372,-15.36243 0.41867,-0.41867 1.36307,0.27727 1.6171,0.40428 0.69366,0.34683 2.75588,0.73452 3.23419,1.21283 2.09236,2.09235 3.23865,7.4813 6.06412,8.89404 1.40776,0.70388 3.34054,1.72343 4.44702,2.82991 0.67096,0.67097 5.32787,1.45112 6.46839,2.02137 1.19396,0.59698 4.75242,-0.90741 5.65984,0 0.10258,0.10259 -2.49331,4.24573 -2.82992,5.25557 -1.74685,5.24058 -5.55795,14.35338 -2.42564,20.618 0.41682,0.83365 3.199,4.88649 2.02137,6.06412 -1.15111,1.1511 -3.89081,-0.27811 -5.25557,0.40427 -1.96285,0.98143 -4.94572,-0.15492 -6.87267,0.80855 -0.99452,0.49726 -2.25825,0.32058 -3.23419,0.80855 -2.47509,1.23755 -4.40686,2.80315 -6.87266,4.44702 -0.9755,0.65033 -2.67517,1.71185 -3.2342,2.82992 -0.79179,1.58357 -3.37315,6.60734 -4.04275,7.27694 -0.32235,0.32236 -7.66802,-5.65105 -8.89404,-6.46839 -3.07929,-2.05286 -6.48799,-2.83973 -9.70259,-4.44702 -0.46574,-0.23287 -3.23419,-0.58427 -3.23419,-0.80855 0,-0.23462 1.0697,-1.33086 1.21282,-1.61709 1.60364,-3.20727 -0.29245,-7.0533 -1.61709,-9.70259 -1.28883,-2.57765 -4.25934,-4.66362 -6.06412,-6.46839 -0.83749,-0.8375 -3.2342,-1.59985 -3.2342,-1.6171 0,-0.51532 2.10167,-1.37342 2.42565,-2.02138 1.90617,-3.81233 1.97581,-9.12184 1.21282,-12.93678 z"
       id="path5435"
       inkscape:connector-curvature="0"
       inkscape:export-filename="/home/substack/media/vector/copter.png"
       inkscape:export-xdpi="84.202003"
       inkscape:export-ydpi="84.202003" />
    <path
       style="fill:#525149;fill-opacity:1;stroke:#ffffff;stroke-width:1px;stroke-linecap:butt;stroke-linejoin:miter;stroke-opacity:0"
       d="M 241.90625 259.25 C 241.31929 259.26955 240.74382 259.31311 240.15625 259.40625 C 234.77982 260.01835 229.65243 261.81657 224.34375 262.65625 C 218.64991 262.23283 214.5446 266.00472 209.34375 267.28125 C 203.7987 267.96266 198.7075 270.28743 194.28125 273.0625 C 182.4495 279.10601 169.11813 283.06105 159.28125 292.375 C 155.85712 295.14072 152.21243 297.99262 148.46875 300.125 C 145.30478 300.0997 143.80156 303.25268 141.625 305.03125 C 138.72032 307.47319 136.83755 310.72769 135.4375 314.21875 C 132.23942 316.98443 135.78894 321.06617 139.15625 322.125 C 139.16094 322.26159 139.18443 322.375 139.28125 322.375 C 139.44271 322.375 139.40514 322.27738 139.28125 322.15625 C 139.42924 322.19951 139.57237 322.25032 139.71875 322.28125 C 139.55717 322.24001 139.39978 322.19107 139.25 322.125 C 139.21769 322.09564 139.19858 322.06559 139.15625 322.03125 C 139.15438 322.05409 139.15644 322.07309 139.15625 322.09375 C 138.93865 321.9875 138.74234 321.83609 138.5625 321.65625 C 138.43245 321.5262 138.29672 321.40564 138.15625 321.28125 C 138.55094 321.5827 138.92479 321.84347 139.15625 322.03125 C 139.20763 321.40307 139.87433 320.00066 140.71875 319.15625 C 143.27493 316.60006 146.77794 313.44081 150 310.21875 C 152.03897 308.17979 155.80668 304.45604 159.28125 302.71875 C 162.3303 301.19423 165.23467 299.26533 167.5 297 C 169.66999 294.83001 181.94202 289.41962 185.34375 287.71875 C 189.21544 285.78291 200.82968 279.4624 217.15625 274.15625 C 220.32158 272.92716 226.44888 271.26987 227.84375 269.875 C 228.24413 269.47462 230.15479 269.78194 230.71875 269.5 C 233.60362 268.05756 242.11586 266.28125 245.34375 266.28125 C 246.20563 266.28125 248.39534 266.83284 248.9375 267.375 C 249.00812 267.44562 249.42285 268.10345 249.71875 268.5 C 249.01041 271.13412 247.48095 273.26161 245.46875 275 C 245.95538 274.82087 246.43571 274.60506 246.90625 274.40625 C 248.06416 273.09729 249.28125 271.9057 249.28125 271.65625 C 249.28125 271.00748 250.89697 267.19678 251.4375 266.65625 C 252.61851 265.47524 251.01103 262.62169 250.34375 260.125 C 247.52196 259.80842 244.71592 259.15642 241.90625 259.25 z M 223.75 268.03125 C 222.33068 268.8937 220.88132 269.6854 219.28125 270.21875 C 218.37463 270.52096 217.34955 270.65347 216.34375 270.8125 C 218.31977 269.85376 220.88733 268.90497 223.75 268.03125 z M 137.125 320.375 C 137.26147 320.51603 137.40731 320.64675 137.5625 320.78125 C 137.41145 320.66462 137.25084 320.54924 137.09375 320.4375 C 137.10615 320.41856 137.11255 320.39396 137.125 320.375 z M 141.46875 322.34375 C 141.01014 322.39965 140.56703 322.4232 140.15625 322.375 C 140.59754 322.4297 141.04585 322.4596 141.4375 322.375 C 141.4477 322.3644 141.45865 322.35435 141.46875 322.34375 z "
       id="path4847"
       inkscape:export-filename="/home/substack/media/vector/copter.png"
       inkscape:export-xdpi="84.202003"
       inkscape:export-ydpi="84.202003" />
    <path
       style="fill:#ff0000;stroke:none;stroke-width:1px;stroke-linecap:butt;stroke-linejoin:miter;stroke-opacity:1;fill-opacity:0.16591929"
       d="M 196.0625 270.5625 C 190.49528 275.69832 186.00232 282.49923 177.84375 285.21875 C 174.90109 286.19964 171.78762 287 168.5625 287 C 168.34456 287 167.2954 286.86084 167.15625 287 C 166.78638 287.36986 167.38779 288.21309 167.5 288.4375 C 167.63891 288.71532 167.31988 296.32898 167.15625 296.65625 C 166.02692 298.91491 166.2424 303.63261 164.65625 305.21875 C 163.8033 306.0717 160.34375 309.49719 160.34375 310.5625 C 160.34375 310.81306 162.14454 311.28908 162.5 312 C 163.14775 313.2955 164.43899 314.84672 165.34375 316.65625 C 165.4449 316.85855 165.55427 317.35491 165.65625 317.96875 C 167.10003 317.50727 168.50351 316.84453 169.84375 315.875 C 185.95218 308.85369 203.69189 303.75647 216.53125 291.125 C 220.64395 289.10504 224.69416 287.04331 228.59375 284.71875 C 229.31427 282.62296 230.07102 280.42046 230.34375 279.875 C 230.7478 279.06691 233.22547 274.88171 232.5 274.15625 C 232.28942 273.94566 228.55042 275.9375 226.78125 275.9375 C 224.5153 275.9375 221.55091 276.43258 219.28125 277 C 212.47642 278.70121 200.34658 274.84658 196.0625 270.5625 z "
       id="path5530"
       inkscape:export-filename="/home/substack/media/vector/copter.png"
       inkscape:export-xdpi="84.202003"
       inkscape:export-ydpi="84.202003" />
    <path
       style="fill:#2e2d29;stroke:#ffffff;stroke-width:1px;stroke-linecap:butt;stroke-linejoin:miter;stroke-opacity:0;fill-opacity:1"
       d="m 376.7869,205.85435 c -0.16836,-0.67344 -1.17851,-1.85195 -0.50508,-2.02031 0.67344,-0.16835 0.50508,2.71447 0.50508,2.02031 0,-1.47739 -0.68445,-9.41708 -0.50508,-9.59645 1.084,-1.084 3.57176,2.05653 4.04061,2.52538 0.85751,0.85751 12.1979,0.50508 14.64722,0.50508 2.83234,0 6.06281,-1.01015 8.08122,-1.01015 0.76555,0 3.47897,-0.44852 3.03045,0 -4.88887,4.88886 -9.90057,5.55583 -19.19289,5.55583 -1.33975,0 -7.45458,-1.63679 -8.08123,-1.01015 -0.85846,0.85847 -1.26189,2.08244 -2.0203,3.03046 z"
       id="path5137"
       inkscape:connector-curvature="0"
       inkscape:export-filename="/home/substack/media/vector/copter.png"
       inkscape:export-xdpi="84.202003"
       inkscape:export-ydpi="84.202003" />
    <path
       style="fill:#8a8a7f;stroke:#ffffff;stroke-width:1px;stroke-linecap:butt;stroke-linejoin:miter;stroke-opacity:0;fill-opacity:1"
       d="M 281.46875 231.84375 C 278.30878 231.87715 275.22395 232.05668 272.53125 232.40625 C 267.96768 235.23305 263.52517 238.81858 261.125 241.21875 C 260.97418 241.36958 257.9253 244.08155 259.09375 245.25 C 261.10047 247.25672 263.59272 249.24898 265.65625 251.3125 C 266.88746 252.54371 269.46645 253.09145 270.71875 254.34375 C 271.30801 254.93301 273.16074 254.25447 273.75 254.84375 C 278.23721 259.33095 302.19243 258.24506 306.59375 253.84375 C 307.183 253.25449 309.03574 253.93303 309.625 253.34375 C 312.03178 250.93697 315.9827 249.98605 318.1875 247.78125 C 319.48397 246.48478 311.21371 241.2762 310.125 240.1875 C 306.94927 237.01176 301.60472 236.62699 298.59375 233.71875 C 294.23181 232.36207 287.72375 231.77763 281.46875 231.84375 z "
       id="path5167"
       inkscape:export-filename="/home/substack/media/vector/copter.png"
       inkscape:export-xdpi="84.202003"
       inkscape:export-ydpi="84.202003" />
    <path
       style="fill:#57ff1f;fill-opacity:1;stroke:#ffffff;stroke-width:1px;stroke-linecap:butt;stroke-linejoin:miter;stroke-opacity:0"
       d="m 235.03378,338.84785 c 5.51073,0.49778 16.42111,-4.05286 18.68783,-8.5863 0.99473,-1.98946 2.52538,-3.62017 2.52538,-3.53553 0,5.88279 6.71466,9.74512 10.10152,13.13198 1.5693,1.5693 7.07107,0.61795 7.07107,1.01016 0,0.0799 -1.38263,0.87755 -1.51523,1.01015 -1.48101,1.48101 -3.15404,5.29793 -4.54568,8.08122 -0.87237,1.74473 0.14601,10.96566 0,11.11168 -0.0976,0.0976 -11.05016,-3.59706 -14.14214,-0.50508 -1.16244,1.16244 -3.84392,2.83376 -5.05076,4.04061 -0.61542,0.61541 -1.53994,3.03046 -2.02031,3.03046 -0.33671,0 0.2381,-0.77206 0,-1.01016 -1.62266,-1.62266 -1.24433,-5.67293 -4.04061,-7.07106 -0.57577,-0.28789 -6.86063,-4.84033 -7.07107,-5.05077 -0.2335,-0.2335 -4.04061,0.17538 -4.04061,0 0,-0.38869 1.28761,-0.27744 1.51523,-0.50507 0.33112,-0.33112 0.75711,-1.26219 1.01016,-1.51523 1.40552,-1.40552 2.46403,-11.26504 1.51522,-13.63706 z"
       id="path5433"
       inkscape:connector-curvature="0"
       inkscape:export-filename="/home/substack/media/vector/copter.png"
       inkscape:export-xdpi="84.202003"
       inkscape:export-ydpi="84.202003" />
    <path
       style="fill:#2e2d29;fill-opacity:1;stroke:#ffffff;stroke-width:1px;stroke-linecap:butt;stroke-linejoin:miter;stroke-opacity:0"
       d="m 279.78033,297.62897 c -0.59394,-0.0765 -1.18401,-0.11631 -1.76997,-0.22101 -4.81768,6.77904 -14.64674,26.8237 -27.43124,35.73225 -5.5497,3.86716 -13.66522,-4.02492 -15.4737,-2.76473 -2.30702,1.60759 -0.046,5.3941 -1.2532,7.01393 -1.03512,1.38895 -2.61749,2.47032 -3.43151,3.03754 -1.80607,1.25851 2.84803,4.08717 2.88036,4.13356 1.55014,2.22459 7.99004,-2.4973 9.30845,-3.41601 2.83528,-1.97569 5.34187,2.61624 5.003,4.51281 -0.35642,1.99484 -2.18448,9.23332 -1.17775,10.67807 2.39408,3.4357 4.22407,19.73588 12.12785,17.40446 2.43852,-0.71931 3.82692,1.0231 5.88244,-0.40923 8.65429,-6.03053 -5.9723,-35.81435 -2.10107,-41.00887 2.03083,-2.72504 15.04551,-23.44379 15.67108,-26.94497 0.49438,-2.76697 5.99114,-6.36481 3.50225,-7.34221 -0.55405,-0.21758 -1.14306,-0.32911 -1.73699,-0.40559 z m -25.57359,38.12758 c 5.61781,1.15322 6.88134,23.09385 8.7068,25.71353 1.53493,2.20274 -4.04171,11.86319 -5.97337,9.09109 -2.09224,-3.00255 -2.43521,-5.98341 -3.87073,-10.84996 -0.83864,-2.84312 0.40987,-5.4766 -0.58034,-8.83354 -1.30539,-4.4254 -2.13334,-7.10147 -2.91584,-12.10786 1.81968,-2.44171 3.33706,-3.27939 4.63348,-3.01326 z"
       id="path5271"
       inkscape:connector-curvature="0"
       inkscape:export-filename="/home/substack/media/vector/copter.png"
       inkscape:export-xdpi="84.202003"
       inkscape:export-ydpi="84.202003" />
    <path
       style="fill:#2e2d29;stroke:#ffffff;stroke-width:1px;stroke-linecap:butt;stroke-linejoin:miter;stroke-opacity:0;fill-opacity:1"
       d="M 411.4375 242.375 C 406.85375 242.375 392.76893 246.01232 390 248.78125 C 388.05506 250.72619 385.72642 253.77742 382.84375 255.21875 C 381.05359 256.11384 375.65529 256.00096 374.28125 257.375 C 370.7612 260.89506 346.37132 268.25382 338.5625 267.375 C 340.79614 269.60864 342.18529 270.60827 344.28125 271.65625 C 346.63313 272.83218 349.45559 270.21875 350.71875 270.21875 C 352.54636 270.21875 374.76626 266.07672 379.1875 264.78125 C 372.46615 280.52058 394.12804 271.19064 385.53125 262.09375 C 385.91356 262.08538 386.23424 262.17174 386.4375 262.375 C 388.33342 264.27092 391.23212 272.88838 393.5625 275.21875 C 395.62174 277.27799 402.48783 279.14409 403.5625 280.21875 C 404.03132 280.68758 409.23545 284.54579 410.71875 283.0625 C 413.93255 279.8487 403.98538 264.79588 405 263.78125 C 408.87724 259.90402 415.30971 258.13058 417.84375 253.0625 C 418.80882 251.13237 417.15625 248.23455 417.15625 246.65625 C 417.15625 242.83945 415.28738 242.375 411.4375 242.375 z M 395.71875 260.9375 C 400.87647 261.96905 402.17574 264.57023 404.28125 268.78125 C 405.02838 270.27549 403.69003 276.75253 401.4375 274.5 C 400.96984 274.03233 400.98436 272.86718 400 272.375 C 397.12648 270.93824 395.74105 264.34438 395.71875 260.9375 z "
       id="path5302"
       inkscape:export-filename="/home/substack/media/vector/copter.png"
       inkscape:export-xdpi="84.202003"
       inkscape:export-ydpi="84.202003" />
    <path
       style="fill:#2e2d29;fill-opacity:1;stroke:#ffffff;stroke-width:1px;stroke-linecap:butt;stroke-linejoin:miter;stroke-opacity:0"
       d="m 407.04011,232.69062 c -2.11251,-0.0794 -21.74757,0.78131 -31.00316,-0.73443 -0.63063,-0.10328 -9.28301,-0.7718 -9.39451,-0.0909 -0.077,0.46993 1.13191,-0.15582 1.40979,0.23088 2.34901,3.26905 6.89437,7.74361 10.59798,10.42118 9.40113,6.79668 13.43061,4.65409 21.1346,-0.88169 1.82343,-1.31024 6.19268,-0.0962 8.21562,-1.54978 0.93566,-0.67233 15.98826,7.61717 17.40378,8.64054 1.78431,1.28999 6.94261,1.13696 9.16366,1.50069 5.48975,0.89903 11.66316,-0.26139 16.55891,0.54036 0.55194,0.0904 3.11516,0.87131 3.52449,0.57719 1.50394,-1.08067 5.07099,0.70982 6.57493,-0.37086 0.86471,-0.62134 3.22254,-1.99883 3.05046,-0.94804 -0.17546,1.0714 -3.09644,-3.40228 -5.17742,-3.74308 -5.68864,-0.9316 -10.81726,-4.66669 -16.45575,-5.59008 -7.11951,-1.16593 -18.80093,-2.35513 -26.90149,-3.68172 -0.29103,-0.0477 -3.49463,1.19545 -4.34481,0.0123 -1.45285,-2.02189 -0.46571,-1.98494 -4.35708,-4.33254 z"
       id="path5323"
       inkscape:connector-curvature="0"
       inkscape:export-filename="/home/substack/media/vector/copter.png"
       inkscape:export-xdpi="84.202003"
       inkscape:export-ydpi="84.202003" />
    <path
       style="fill:#2e2d29;fill-opacity:1;stroke:#ffffff;stroke-width:1px;stroke-linecap:butt;stroke-linejoin:miter;stroke-opacity:0"
       d="m 238.35069,306.75767 c 0.87067,-0.8119 1.80009,-3.30636 2.61199,-2.4357 0.8119,0.87066 -3.58872,3.11631 -2.61199,2.4357 4.30345,-2.99875 5.42823,-4.39813 8.41348,-6.47832 0.96047,-0.66928 12.77203,-1.99031 14.4399,0.40323 0.84157,1.20771 -2.01665,4.84429 -2.41137,5.37393 -2.76193,3.70604 -19.27102,28.20305 -20.41967,29.00345 -0.70628,0.49215 2.96341,7.78056 2.58566,9.89475 -0.16523,0.92474 0.46043,8.61176 1.17937,9.6435 0.9663,1.38673 -8.57084,21.97811 -9.89676,22.90203 -2.67634,1.86494 -16.37192,14.49306 -17.53009,12.831 -1.29285,-1.85536 3.17887,-9.66954 3.54207,-11.70229 1.02089,-5.71373 13.24305,-48.01122 13.71641,-48.34108 0.96692,-0.67376 2.22259,-0.93314 3.18951,-1.60691 0.62929,-0.43851 -0.56066,-4.98422 -0.40124,-5.87647 1.00679,-5.63481 2.63171,-10.66814 3.59273,-16.04682 z"
       id="path5364"
       inkscape:connector-curvature="0"
       inkscape:export-filename="/home/substack/media/vector/copter.png"
       inkscape:export-xdpi="84.202003"
       inkscape:export-ydpi="84.202003" />
    <path
       style="fill:#2e2d29;fill-opacity:1;stroke:#ffffff;stroke-width:1px;stroke-linecap:butt;stroke-linejoin:miter;stroke-opacity:0"
       d="m 185.30781,289.24731 c -6.72769,7.41721 -17.63192,12.07812 -23.03047,19.43607 -0.71374,0.97278 -1.57873,3.85742 -2.87938,4.77824 -0.61233,0.43352 -5.22509,5.56296 -4.88894,5.80958 0.0103,0.008 14.55906,-7.29491 16.89105,-7.6531 6.68961,-1.02753 15.87372,-9.68179 19.44509,-14.54938 1.49828,-2.04207 -0.13695,-5.79 1.63115,-8.19983 2.1919,-2.98746 9.87091,-0.64644 11.78521,-3.25554 1.8118,-2.46938 5.69869,-3.49799 7.71298,-6.24335 3.31937,-4.52415 7.29966,-9.94908 9.56101,-13.03118 5.25315,-7.1598 -11.41027,5.33843 -14.06703,7.21934 -7.56011,5.35235 -15.78912,8.76203 -22.16067,15.68915 z"
       id="path5379"
       inkscape:connector-curvature="0"
       inkscape:export-filename="/home/substack/media/vector/copter.png"
       inkscape:export-xdpi="84.202003"
       inkscape:export-ydpi="84.202003" />
    <path
       style="fill:#2e2d29;fill-opacity:1;stroke:#ffffff;stroke-width:1px;stroke-linecap:butt;stroke-linejoin:miter;stroke-opacity:0"
       d="m 318.32632,219.33172 c 0.75407,0.33997 -1.91184,-0.71429 -5.71428,-0.71429 -1.71221,0 -12.85715,0.66206 -12.85715,2.14286 0,0.98169 2.16299,0.0201 2.85715,0.71429 1.62693,1.62693 3.84387,2.27908 6.42857,3.57142 4.87064,2.43532 9.13626,-2.14285 11.42857,-2.14285 1.56832,0 6.32222,3.46508 7.14286,4.28571 2.15369,2.1537 19.15993,-2.73136 20,-3.57143 5.60326,-5.60326 -16.69214,-3.1207 -17.85715,-4.28571 -0.32242,-0.32242 -5.4676,-1.90906 -6.42857,-1.42857 -2.17688,1.08844 -1.10941,0.65045 -5,1.42857 z"
       id="path5381"
       inkscape:connector-curvature="0"
       inkscape:export-filename="/home/substack/media/vector/copter.png"
       inkscape:export-xdpi="84.202003"
       inkscape:export-ydpi="84.202003" />
    <path
       style="fill:#2e2d29;fill-opacity:1;stroke:#ffffff;stroke-width:1px;stroke-linecap:butt;stroke-linejoin:miter;stroke-opacity:0"
       d="m 243.69569,281.43547 c -2.94729,0.41423 -5.90818,0.88102 -8.89276,0.70629 -6.92161,0.23895 -13.78083,1.38906 -20.50987,2.97671 -2.9489,0.35633 -5.83321,-0.57197 -8.75353,-0.7913 -4.18048,1.15795 -7.45322,4.33265 -11.63933,5.4765 -2.64647,-0.072 -2.23288,3.26788 -3.09778,4.96159 -0.88048,1.75949 -0.0399,5.04826 2.4443,3.78859 2.69322,-1.34427 5.72144,-2.13985 8.07726,-4.08212 1.49528,-1.58716 1.02528,-4.79932 3.40532,-5.70472 5.39686,-0.74314 10.96127,-0.16998 16.24799,-1.6757 3.19024,-0.35347 6.24316,1.6341 9.43573,0.76557 2.15983,-0.59554 4.57625,1.98545 6.37787,0.39075 2.20254,-2.20171 4.78342,-4.00274 6.95984,-6.23339 0.1785,-0.15218 0.48066,-0.72678 -0.055,-0.57881 z m -44.13076,8.4757 c 2.45159,1.87009 -0.8051,4.40568 -2.63608,5.06138 -1.87427,1.87498 -3.80015,-1.14535 -1.69764,-2.41825 1.74297,-0.63906 3.01693,-1.48598 4.33372,-2.64313 z"
       id="path5383"
       inkscape:connector-curvature="0"
       sodipodi:nodetypes="ccccccccccccccccccc"
       inkscape:export-filename="/home/substack/media/vector/copter.png"
       inkscape:export-xdpi="84.202003"
       inkscape:export-ydpi="84.202003" />
    <path
       style="fill:#bcc9ae;stroke:#ffffff;stroke-width:1px;stroke-linecap:butt;stroke-linejoin:miter;stroke-opacity:0;fill-opacity:0.49775785"
       d="m 387.14286,389.50504 c 0.11984,1.82437 11.81816,8.24673 17.14285,13.57143 1.4533,1.45329 8.20059,2.48629 11.42858,5.71428 0.84439,0.8444 3.18206,0.32492 4.28571,1.42857 0.4252,0.42521 3.44965,3.69322 4.28571,2.85715 1.07143,-1.07143 1.07143,-3.21429 2.14286,-4.28572 4.55395,-4.55395 11.68196,-13.82481 15.71429,-17.85714 4.69763,-4.69763 15.75827,-8.61542 20,-12.85714 5.61614,-5.61614 12.16566,-10.73709 17.85714,-16.42857 1.57359,-1.5736 1.58511,-3.72797 2.85714,-5 0.91319,-0.91319 20.65129,7.14285 23.57143,7.14285 4.73221,0 21.09902,8.73621 21.42857,8.57143 1.16457,-0.58228 1.53454,-2.24882 2.14286,-2.85714 7.3624,-7.3624 11.23343,-10.51914 17.85714,-17.14286 1.30588,-1.30587 10.06444,-9.22127 10,-9.28571 -3.53709,-3.53709 -23.48849,-2.05992 -25.71428,-4.28572 -2.06685,-2.06684 -19.21407,-9.28571 -22.14286,-9.28571 -0.80802,0 -4.01417,4.72845 -5,5.71428 -3.04945,3.04946 -7.81236,4.24093 -10.71429,7.14286 -3.6063,3.6063 -6.60772,8.0363 -10,11.42857 -0.45696,0.45697 -0.68319,2.85715 -1.42857,2.85715 -1.99818,0 -7.59043,-3.30472 -8.57143,-4.28572 -0.45308,-0.45308 -2.26243,0.29735 -2.85714,0 -5.77696,-2.88848 -30,-8.58882 -30,-12.85714 0,-0.13851 5.42081,-3.06755 6.42857,-3.57143 4.06617,-2.03308 18.69423,-11.67416 20,-14.28571 0.29848,-0.59696 4.85022,-3.72122 4.28572,-4.28572 -0.53222,-0.53221 -0.69328,0.71429 -1.42857,0.71429 -3.60056,0 -9.07376,-0.60831 -12.14286,-2.14286 -2.28105,-1.14052 -5.65577,0.3864 -7.85714,-0.71429 -4.40939,-2.20469 -9.28505,-3.21395 -12.85715,-5 -1.30383,-0.65191 -8.3119,-3.83095 -9.28571,-2.85714 -1.6217,1.6217 -4.92147,5.63576 -6.42857,7.14286 -2.28692,2.28692 -7.94792,5.75967 -10.71429,7.14286 -3.30246,1.65123 -7.14286,5.34229 -7.14286,4.28571 0,-1.70538 13.15769,5.15027 14.28572,5.71429 6.90511,3.45255 14.02473,3.31044 18.57143,7.85714 0.65152,0.65152 3.57143,-0.54765 3.57143,0.71428 0,0.16475 -5.81795,3.67509 -6.42858,4.28572 -5.32305,5.32305 -14.91469,14.9147 -21.42857,21.42857 -6.08727,6.08727 -14.81144,8.38287 -20.71428,14.28571 -2.45173,2.45173 -3.19424,3.90853 -5,5.71429 -0.5324,0.5324 -2.47958,0.0409 -2.14286,0.71429 0.5324,1.06479 1.42857,1.90476 2.14286,2.85714 z"
       id="path5562"
       inkscape:connector-curvature="0"
       inkscape:export-filename="/home/substack/media/vector/copter.png"
       inkscape:export-xdpi="84.202003"
       inkscape:export-ydpi="84.202003" />
    <path
       style="fill:#333c28;stroke:#ffffff;stroke-width:1px;stroke-linecap:butt;stroke-linejoin:miter;stroke-opacity:0;fill-opacity:0.33632287000000000"
       d="M 527.84375 372.375 C 521.26264 378.95611 515.29707 387.76543 509.28125 393.78125 C 505.87738 397.18513 504.05443 402.60181 500 406.65625 C 494.95834 411.69791 487.6245 416.34349 481.84375 421.40625 L 543.09375 418.84375 C 549.94766 417.93131 557.3052 417.29473 563.96875 416.875 C 564.93173 415.54934 565.99286 414.22589 567.15625 413.0625 C 569.34962 410.86912 585.44079 392.09704 585 391.65625 C 581.36277 388.01902 572.18794 391.68793 568.5625 388.0625 C 566.46604 385.96604 544.05233 375.9375 540 375.9375 C 538.49188 375.9375 527.94987 372.26889 527.84375 372.375 z M 425 410.21875 C 423.28317 411.07716 413.90045 421.1837 410.8125 424.375 L 440.59375 423.125 C 439.34994 422.20965 438.192 421.2545 437.15625 420.21875 C 433.64389 416.7064 425.45541 409.99104 425 410.21875 z "
       id="path5581"
       inkscape:export-filename="/home/substack/media/vector/copter.png"
       inkscape:export-xdpi="84.202003"
       inkscape:export-ydpi="84.202003" />
    <path
       style="fill:#333c28;stroke:none;stroke-width:1px;stroke-linecap:butt;stroke-linejoin:miter;stroke-opacity:1;fill-opacity:0.33725491000000002"
       d="M 620.65625 191.375 L 581.46875 193 C 579.84688 194.52717 578.48795 195.6683 577.15625 197 C 576.55807 197.59818 574.53568 197.83932 573.9375 198.4375 C 571.83042 200.54459 569.42495 203.17815 566.78125 204.5 C 565.00502 205.38811 564.24842 206.84454 562.5 207.71875 C 562.40086 207.7683 560.59651 209.05525 559.59375 209.625 C 561.65216 209.43199 568.14343 210.21875 568.9375 210.21875 L 589.28125 210.21875 C 590.53233 210.21875 596.7514 211.65485 597.84375 210.5625 C 599.81267 208.59358 604.68878 202.92623 607.15625 201.28125 C 608.37755 200.46705 609.92648 199.94851 610.71875 199.15625 C 610.96794 198.90705 611.8596 197.52333 612.15625 197.375 C 614.22585 196.3402 618.04527 193.98598 619.65625 192.375 C 619.77191 192.25934 620.40075 191.63253 620.65625 191.375 z M 559.59375 209.625 C 559.20402 209.66154 558.9375 209.75715 558.9375 209.875 C 558.9375 209.98707 559.20818 209.84408 559.59375 209.625 z "
       id="path5636"
       inkscape:export-filename="/home/substack/media/vector/copter.png"
       inkscape:export-xdpi="84.202003"
       inkscape:export-ydpi="84.202003" />
    <path
       style="fill:#333c28;stroke:none;stroke-width:1px;stroke-linecap:butt;stroke-linejoin:miter;stroke-opacity:1;fill-opacity:0.33725491"
       d="m 263.14474,240.70461 c -5.69245,-0.0708 -16.80448,-0.13696 -20.20305,-3.53553 -0.35263,-0.35263 -9.5504,-1.46918 -11.11168,-3.03046 -1.09174,-1.09174 -4.82889,-0.64668 -6.56599,-1.51523 -0.81485,-0.40742 -11.61676,-0.2052 -11.61676,-0.50507 0,-0.33672 0.70899,0.15058 1.01016,0 2.11321,-1.05661 4.65175,-1.21387 7.07106,-2.02031 3.86981,-1.28994 11.88847,-4.31232 14.14214,-6.56599 0.58926,-0.58926 2.4412,0.0842 3.03046,-0.50508 1.19572,-1.19572 1.51523,-1.61284 1.51523,-1.51523 0,0.2381 0.50507,0.74318 0.50507,0.50508 0,-0.2381 -0.50507,-0.74317 -0.50507,-0.50508 0,0.2381 0.50507,0.74318 0.50507,0.50508 0,-0.4694 -11.50701,0.50508 -12.6269,0.50508 -2.62182,0 -7.54783,1.78192 -10.10153,0.50507 -2.99469,-1.49734 -18.42911,-2.0203 -23.23351,-2.0203 -0.76095,0 -8.08122,-0.61046 -8.08122,-1.01016 0,-0.45872 6.7765,-2.23081 7.07107,-2.52538 6.48715,-6.48715 23.62154,-2.0203 35.35534,-2.0203 2.3987,0 12.45491,0.33853 14.14213,-0.50508 2.98305,-1.49152 9.66669,-2.0203 12.62691,-2.0203 1.02409,0 2.30632,-1.22922 3.03046,-0.50508 0.38621,0.38621 -3.39714,1.37684 -3.53554,1.51523 -0.88158,0.88159 -14.89697,6.31623 -14.14213,7.07107 0.79365,0.79365 6.27351,0.50507 7.57614,0.50507 2.91032,0 15.11337,0.97123 16.16244,2.02031 0.40889,0.40889 3.39822,0 4.04061,0 8.30883,0 16.05149,0.50507 24.24366,0.50507 3.02082,0 9.01439,1.30119 9.59645,1.01016"
       id="path5670"
       inkscape:connector-curvature="0"
       inkscape:export-filename="/home/substack/media/vector/copter.png"
       inkscape:export-xdpi="84.202003"
       inkscape:export-ydpi="84.202003" />
  </g>
</svg>
