<?xml version="1.0" encoding="UTF-8" standalone="no"?>
<!-- Created with Inkscape (http://www.inkscape.org/) -->

<svg
   xmlns:dc="http://purl.org/dc/elements/1.1/"
   xmlns:cc="http://creativecommons.org/ns#"
   xmlns:rdf="http://www.w3.org/1999/02/22-rdf-syntax-ns#"
   xmlns:svg="http://www.w3.org/2000/svg"
   xmlns="http://www.w3.org/2000/svg"
   xmlns:xlink="http://www.w3.org/1999/xlink"
   xmlns:sodipodi="http://sodipodi.sourceforge.net/DTD/sodipodi-0.dtd"
   xmlns:inkscape="http://www.inkscape.org/namespaces/inkscape"
   width="744.09448819"
   height="1052.3622047"
   id="svg2"
   version="1.1"
   inkscape:version="0.48.1 r9760"
   sodipodi:docname="seaport.svg">
  <defs
     id="defs4" />
  <sodipodi:namedview
     id="base"
     pagecolor="#ffffff"
     bordercolor="#666666"
     borderopacity="1.0"
     inkscape:pageopacity="0.0"
     inkscape:pageshadow="2"
     inkscape:zoom="0.35355339"
     inkscape:cx="644.33236"
     inkscape:cy="312.97049"
     inkscape:document-units="px"
     inkscape:current-layer="layer1"
     showgrid="false"
     inkscape:window-width="1364"
     inkscape:window-height="766"
     inkscape:window-x="0"
     inkscape:window-y="0"
     inkscape:window-maximized="0"
     showguides="true"
     inkscape:guide-bbox="true" />
  <metadata
     id="metadata7">
    <rdf:RDF>
      <cc:Work
         rdf:about="">
        <dc:format>image/svg+xml</dc:format>
        <dc:type
           rdf:resource="http://purl.org/dc/dcmitype/StillImage" />
        <dc:title></dc:title>
      </cc:Work>
    </rdf:RDF>
  </metadata>
  <g
     inkscape:label="Layer 1"
     inkscape:groupmode="layer"
     id="layer1">
    <path
       style="fill:none;stroke:#ff0000;stroke-width:3;stroke-linecap:butt;stroke-linejoin:miter;stroke-miterlimit:4;stroke-opacity:1;stroke-dasharray:none"
       d="m 167.70435,202.49556 0.86708,1481.29524"
       id="path4112"
       inkscape:connector-curvature="0"
       inkscape:transform-center-x="-5.4390847"
       inkscape:transform-center-y="-638.64288"
       sodipodi:nodetypes="cc" />
    <path
       sodipodi:nodetypes="cc"
       inkscape:connector-curvature="0"
       id="path5293"
       d="M 1014.1932,646.28086 258.2757,45.776141"
       style="fill:none;stroke:#ff0000;stroke-width:3;stroke-linecap:butt;stroke-linejoin:miter;stroke-miterlimit:4;stroke-opacity:1;stroke-dasharray:none" />
    <path
       style="fill:none;stroke:#ff0000;stroke-width:3;stroke-linecap:butt;stroke-linejoin:miter;stroke-miterlimit:4;stroke-opacity:1;stroke-dasharray:none"
       d="M 1014.1932,646.28086 112.6117,66.989344"
       id="path5295"
       inkscape:connector-curvature="0"
       sodipodi:nodetypes="cc" />
    <path
       style="fill:none;stroke:#ff0000;stroke-width:3;stroke-linecap:butt;stroke-linejoin:miter;stroke-miterlimit:4;stroke-opacity:1;stroke-dasharray:none"
       d="M -1214.2857,703.79075 688.94791,171.57076"
       id="path3142"
       inkscape:connector-curvature="0"
       sodipodi:nodetypes="cc" />
    <path
       style="fill:none;stroke:#ff0000;stroke-width:3;stroke-linecap:butt;stroke-linejoin:miter;stroke-miterlimit:4;stroke-opacity:1;stroke-dasharray:none"
       d="M 1014.1932,646.28086 -161.09445,381.40836"
       id="path5010"
       inkscape:connector-curvature="0"
       sodipodi:nodetypes="cc" />
    <path
       sodipodi:nodetypes="cc"
       inkscape:connector-curvature="0"
       id="path5012"
       d="M -1214.2857,703.79075 526.31335,347.64035"
       style="fill:none;stroke:#ff0000;stroke-width:3;stroke-linecap:butt;stroke-linejoin:miter;stroke-miterlimit:4;stroke-opacity:1;stroke-dasharray:none" />
    <path
       sodipodi:nodetypes="cc"
       inkscape:connector-curvature="0"
       id="path4184"
       d="M 1014.1932,646.28086 36.23346,552.85435"
       style="fill:none;stroke:#ff5555;stroke-width:3;stroke-linecap:butt;stroke-linejoin:miter;stroke-miterlimit:4;stroke-opacity:1;stroke-dasharray:none" />
    <path
       style="fill:none;stroke:#ff5555;stroke-width:3;stroke-linecap:butt;stroke-linejoin:miter;stroke-miterlimit:4;stroke-opacity:1;stroke-dasharray:none"
       d="M 1014.1932,646.28086 31.23346,566.85435"
       id="path4186"
       inkscape:connector-curvature="0"
       sodipodi:nodetypes="cc" />
    <path
       inkscape:connector-curvature="0"
       id="path4103"
       d="M -1188.5714,692.36218 422.84278,557.68881"
       style="fill:none;stroke:#ff0000;stroke-width:3;stroke-linecap:butt;stroke-linejoin:miter;stroke-miterlimit:4;stroke-opacity:1;stroke-dasharray:none"
       sodipodi:nodetypes="cc" />
    <path
       sodipodi:nodetypes="cc"
       inkscape:connector-curvature="0"
       id="path3222"
       d="M 1014.1932,646.28086 48.972094,120.72946"
       style="fill:none;stroke:#ff0000;stroke-width:3;stroke-linecap:butt;stroke-linejoin:miter;stroke-miterlimit:4;stroke-opacity:1;stroke-dasharray:none" />
    <path
       style="fill:none;stroke:#ff0000;stroke-width:3;stroke-linecap:butt;stroke-linejoin:miter;stroke-miterlimit:4;stroke-opacity:1;stroke-dasharray:none"
       d="M 240.71428,374.50505 174.28571,1686.6479"
       id="path3330"
       inkscape:connector-curvature="0"
       sodipodi:nodetypes="cc"
       inkscape:transform-center-x="-42.92857"
       inkscape:transform-center-y="-658.64285" />
    <path
       style="fill:none;stroke:#ff0000;stroke-width:3;stroke-linecap:butt;stroke-linejoin:miter;stroke-miterlimit:4;stroke-opacity:1;stroke-dasharray:none"
       d="M 347.14285,392.36219 C 341.42857,389.50504 171.42857,1686.6479 171.42857,1686.6479"
       id="path3332"
       inkscape:connector-curvature="0"
       sodipodi:nodetypes="cc"
       inkscape:transform-center-x="-87.214285"
       inkscape:transform-center-y="-641.50238" />
    <path
       style="fill:none;stroke:#ff0000;stroke-width:3;stroke-linecap:butt;stroke-linejoin:miter;stroke-miterlimit:4;stroke-opacity:1;stroke-dasharray:none"
       d="M -1205.7143,698.07647 914.28571,655.21933"
       id="path4104"
       inkscape:connector-curvature="0" />
    <path
       style="fill:none;stroke:#ff0000;stroke-width:3;stroke-linecap:butt;stroke-linejoin:miter;stroke-miterlimit:4;stroke-opacity:1;stroke-dasharray:none"
       d="M 1014.1932,646.28086 381.31228,-0.89290624"
       id="path5106"
       inkscape:connector-curvature="0"
       sodipodi:nodetypes="cc" />
    <g
       id="g5550">
      <path
         sodipodi:nodetypes="csssssssssssssssssssssssssssssssssssssscc"
         inkscape:connector-curvature="0"
         id="path5237"
         d="m 190.5,589.36218 c 1.62792,-2.89146 1.93323,-6.93323 4,-9 3.92235,-3.92235 4.03894,-7.53894 8.5,-12 0.73469,-0.73468 3.62158,-4.62157 4.5,-5.5 1.77314,-1.77314 1.86409,-4.36409 3.5,-6 2.93905,-2.93905 4.35287,-6.85287 7,-9.5 1.58989,-1.58989 2.05312,-5.05311 4,-7 2.3105,-2.3105 6.56129,-5.62258 8,-8.5 3.05099,-6.10198 12.28498,-11.56996 15,-17 8.10171,-16.20343 16.29747,-28.29747 28,-40 1.6233,-1.6233 3.06584,-5.56584 4.5,-7 1.05503,-1.05503 1.01612,-3.01612 2,-4 4.65429,-4.65429 6.32334,-10.82334 11.5,-16 1.53179,-1.53179 1.87024,-4.87023 3.5,-6.5 11.41182,-11.41182 18.96048,-24.96048 29.5,-35.5 3.45097,-3.45097 6.60482,-9.44759 11.5,-7 2.73743,1.36872 -7.35129,9.35129 -8.5,10.5 -1.3865,1.3865 -2.8252,3.3252 -4,4.5 -0.91667,0.91667 -0.58333,3.08334 -1.5,4 -4.11106,4.11107 -8.0847,11.0847 -12,15 -1.18076,1.18076 -1.41147,2.91147 -3,4.5 -3.85375,3.85376 -4.65778,9.15778 -9,13.5 -0.96824,0.96824 -5.63963,7.13963 -6.5,8 -2.61608,2.61609 -3.14675,6.64675 -6,9.5 -2.03905,2.03906 -5.71199,8.212 -7.5,10 -1.45185,1.45186 -2.04875,3.54876 -3.5,5 -3.0471,3.04711 -5.55022,9.05022 -9,12.5 -4.85651,4.85651 -7.58183,11.08183 -12,15.5 -0.58333,0.58334 -0.41667,1.91667 -1,2.5 -4.80595,4.80595 -6.8656,10.8656 -11.5,15.5 -1.44674,1.44674 -2.03087,4.53087 -3.5,6 -1.39184,1.39184 -2.71033,4.21033 -4,5.5 -4.33742,4.33742 -7.87206,9.37207 -12,13.5 -3.04701,3.04701 -3.69974,6.69974 -6,9 -2.53706,2.53706 -6.94875,13 -10,13 -3.28233,0 -4.62899,8.129 -6.5,10 -0.25,0.25 0.25,1.25 0,1.5 -0.8604,0.86041 -1.40384,1.40384 -2.5,2.5 -0.37054,0.37054 -3.51867,3.48133 -4,3 -0.23113,-0.23113 0.15094,-1.19811 0,-1.5 -0.43461,-0.86922 -1,-1.66666 -1.5,-2.5 z"
         style="fill:#e3dbdb;fill-opacity:1;stroke:#000000;stroke-width:1px;stroke-linecap:butt;stroke-linejoin:miter;stroke-opacity:1" />
      <path
         sodipodi:nodetypes="cscsssssscssssssssc"
         inkscape:connector-curvature="0"
         id="path5205"
         d="m 363,297.86218 c -2.91011,-1.18276 -6.67659,-6.91171 -2.5,-9 0.85617,-0.42808 3.90308,0.0969 4.5,-0.5 4.2649,-4.2649 16.21502,-3.35751 23.5,-7 2.53333,-1.26666 11.46667,-1.73333 17,-3.5 6.24629,-1.9943 13.09916,-3.04958 18.5,-5 2.3869,-0.86199 14.78182,-2.78182 15.5,-3.5 2.33871,-2.33871 26.02722,-7.76361 31.5,-10.5 1.16456,-0.58228 2.27293,0.11354 3.5,-0.5 3.62115,-1.81057 28.05211,-8.0521 28.5,-8.5 1.25038,-1.25037 13.0133,-5 15.5,-5 1.59596,0 15.2117,-3.35585 17.5,-4.5 2.1009,-1.05045 5.38097,0.0595 7.5,-1 1.34744,-0.67372 8.65554,-2.15554 9,-2.5 1.94182,-1.94182 23.62751,-7.31375 28,-9.5 2.06195,-1.03097 4.4068,-0.4534 6.5,-1.5 0.71473,-0.35736 11.94732,-2.55268 12,-2.5 0.45425,0.45425 -1.26797,0.73203 -0.5,1.5 0.95622,0.95623 1.3928,7.6072 1,8"
         style="fill:#e3dbdb;fill-opacity:1;stroke:#000000;stroke-width:1px;stroke-linecap:butt;stroke-linejoin:miter;stroke-opacity:1" />
      <path
         sodipodi:nodetypes="cscccsscsscc"
         inkscape:connector-curvature="0"
         id="path5329"
         d="m 428.75,272.61218 c 1.32607,1.28616 7.36307,1.11307 7.5,1.25 0.0617,0.0617 0.71995,0.78006 1,0.5 -0.152,-1.35586 -0.10697,-3.07332 0,-4.25 -1.39408,-0.42118 -2.33489,-1.38461 -3.25,-2.5 -2.7125,-1.4625 -7.50881,-4.50881 -10,-7 -1.21763,-1.21763 -2.90111,-1.40111 -4,-2.5 -0.43809,-0.43809 -3.32105,-1.28552 -4.25,-1.75 -0.20491,-0.10245 -0.70928,-0.39536 -1,-0.25 -0.008,0.004 -1.55053,3.80053 -2.25,4.5 -0.42605,0.42605 0.42523,1.60047 0.5,1.75 0.47214,0.94429 2.09529,2.90471 2.75,2.25"
         style="fill:#e3dbdb;fill-opacity:1;stroke:#000000;stroke-width:1px;stroke-linecap:butt;stroke-linejoin:miter;stroke-opacity:1" />
      <path
         inkscape:connector-curvature="0"
         id="path5331"
         d="m 494,253.73718 c 1.1947,0.28171 3.86742,1.24242 4.625,2 0.2921,0.2921 1.21865,-0.0314 1.5,0.25 0.15805,0.15805 0.94182,1 1,1 0.21847,0 0.125,-1.08554 0.125,-1.25 0,-1.6035 0.125,-3.32303 0.125,-5 0,-0.0515 0.0331,-0.34191 0,-0.375 -0.17381,-0.17381 -0.65244,-0.0274 -0.875,-0.25 -0.27157,-0.27157 -0.65863,-0.76682 -1.125,-1 -0.80114,-0.40057 -1.27707,-1.15207 -2.125,-2 -0.93876,-0.93876 -2.26449,-1.26449 -3.125,-2.125 -1.49334,-1.49334 -3.214,-3.589 -4.75,-5.125 -0.61433,-0.61433 -1.46677,-0.96677 -2,-1.5 -0.0817,-0.0817 -6.12671,2.74659 -5.75,3.5"
         style="fill:#e3dbdb;stroke:#000000;stroke-width:1px;stroke-linecap:butt;stroke-linejoin:miter;stroke-opacity:1;fill-opacity:1" />
      <path
         style="fill:#e3dbdb;fill-opacity:1;stroke:#000000;stroke-width:1px;stroke-linecap:butt;stroke-linejoin:miter;stroke-opacity:1"
         d="m 501.75,256.86218 c -1.56923,-1.20589 -4.13698,-2.38698 -5.5,-3.75 -2.70844,-2.70844 -3.34375,-2.09375 -6,-4.75 -2.7995,-2.79949 -6.4339,-5.92249 -8,-5.5 -2.59043,0.69883 -9,2.23742 -11,3 -1.42332,0.5427 6.14049,4.14049 7,5 1.73164,1.73164 3.9786,2.7286 5.75,4.5 1.59342,1.59342 5.5,4.75 5.5,4.75 2.80582,-0.8302 9.03395,-2.64197 12.25,-3.25 z"
         id="path5327"
         inkscape:connector-curvature="0"
         sodipodi:nodetypes="csssssssc" />
      <path
         sodipodi:nodetypes="csssssssc"
         inkscape:connector-curvature="0"
         id="path5325"
         d="m 437.5,274.86218 c -1.56923,-1.20589 -6.13698,-2.63698 -7.5,-4 -2.70844,-2.70844 -3.75064,-2.98832 -6.75,-5.25 -3.0495,-2.29949 -6.6839,-5.42249 -8.25,-5 -2.59043,0.69883 -9,2.23742 -11,3 -1.42332,0.5427 6.14049,4.14049 7,5 1.73164,1.73164 3.9786,2.7286 5.75,4.5 1.59342,1.59342 5.5,4.75 5.5,4.75 2.80582,-0.8302 12.03395,-2.39197 15.25,-3 z"
         style="fill:#e3dbdb;fill-opacity:1;stroke:#000000;stroke-width:1px;stroke-linecap:butt;stroke-linejoin:miter;stroke-opacity:1" />
      <path
         sodipodi:nodetypes="csssssssssscsssssccc"
         inkscape:connector-curvature="0"
         id="path5175"
         d="m 334,272.86218 c -3.41625,3.61506 -1.7402,6.2598 1,9 1.02054,1.02054 4.5089,-1 5,-1 4.4188,0 24.31523,-4.81523 26,-6.5 3.57508,-3.57508 23.53318,-5.03318 26.5,-8 1.35561,-1.3556 6.22176,0.27824 7.5,-1 2.03105,-2.03104 17.42534,-3.71267 21,-5.5 1.96804,-0.98402 5.03075,-0.0154 7,-1 3.05712,-1.52856 20.7996,-4.96436 22,-5.5 2.93437,-1.30937 18.66074,-4.55358 24.5,-6.5 4.88736,-1.62912 9.30988,-3.15494 14,-5.5 0.92267,-0.46133 5.85849,-1.9292 6.75,-2.375 0.24943,-0.12472 10.10733,-2.74116 12.5,-3.625 2.56381,-0.94706 6.70126,-1.22694 9.25,-2.125 4.65649,-1.64074 16.8832,-5.0666 19.5,-6.125 2.14427,-0.86728 12.69456,-3.06956 15.5,-4.5 3.65611,-1.86418 19.06787,-7.25 23.5,-7.25 0.52699,0 4,-0.46701 9.5,-2 -2.14755,-0.28445 -3.24454,-3.12227 -5,-4 -2.95315,-1.47658 -3.86274,-4.56863 -6,-3.5"
         style="fill:#e3dbdb;fill-opacity:1;stroke:#000000;stroke-width:1px;stroke-linecap:butt;stroke-linejoin:miter;stroke-opacity:1" />
      <path
         inkscape:connector-curvature="0"
         id="path5093"
         d="m 60.280853,454.85695 c -0.479032,-0.64951 -7.226474,0.5517 -7.424621,0.35356 -0.179153,-0.17916 0,-1.48627 0,-1.76777 0,-1.26313 -1.911011,-6.92783 -1.06066,-7.77818 0.274707,-0.2747 8.466433,-0.99545 10.253048,-1.59099 3.393187,-1.13106 7.078231,-1.90214 10.783379,-2.82842 4.307751,-1.07694 8.588926,-2.31883 12.904698,-3.18198 0.83679,-0.16736 7.571738,-1.97421 7.954952,-1.59099 1.196924,1.19692 1.237436,5.43673 1.237436,7.24784 0,1.38679 -0.06865,3.32959 0.353554,4.59619 0.09005,0.27017 0.52368,2.12797 0.353553,2.2981 -1.152417,1.15242 -9.797487,1.16774 -12.197592,1.76777 -0.743918,0.18598 -1.971026,-0.34031 -2.65165,0 -1.225292,0.61264 -4.553058,0.2436 -5.480078,0.7071 -1.850836,0.92542 -10.901344,1.00185 -11.844038,1.94455 -0.276047,0.27605 -2.779652,-0.17678 -3.181981,-0.17678 z"
         style="fill:#e3dbdb;stroke:#000000;stroke-width:1px;stroke-linecap:butt;stroke-linejoin:miter;stroke-opacity:1;fill-opacity:1" />
      <path
         sodipodi:nodetypes="ccccsssssssssssssssssssssssssssssc"
         inkscape:connector-curvature="0"
         id="path4995"
         d="m 218.496,409.60212 c 2.12091,-7.661 7.16699,-9.91785 12.72792,-14.84925 2.64554,-3.15528 5.27358,-6.26568 7.07107,-7.77817 1.94261,-3.13788 5.04486,-5.02633 8.13173,-8.13173 3.27907,-3.27907 8.61997,-6.85221 12.37437,-10.6066 1.73519,-1.7352 4.40575,-3.69864 6.36396,-5.65685 0.91898,-0.91899 2.66116,-1.95406 3.53553,-2.82843 1.01772,-1.01772 1.1547,-2.5219 2.47487,-3.18198 3.09537,-1.54768 3.41614,-3.06259 5.30331,-4.94975 0.7084,-0.7084 2.59614,-1.53548 3.18198,-2.12132 2.00366,-2.00366 4.63408,-4.28053 6.71751,-6.36396 1.48509,-1.48509 3.59196,-2.5313 4.94975,-3.88909 3.75655,-3.75655 6.97099,-6.97099 10.6066,-10.6066 1.2712,-1.2712 2.49586,-1.4352 3.53553,-2.47487 2.79403,-2.79403 4.59324,-5.30034 7.77818,-8.48528 3.50734,-3.50734 6.70458,-5.99748 9.54594,-8.83884 2.83152,-2.83151 4.29865,-5.35931 6.71751,-7.77817 1.235,-1.235 2.81746,-1.40324 3.88909,-2.47488 0.53647,-0.53646 4.61734,-4.2215 6.01041,-2.82842 0.44843,0.44843 0.35355,1.45458 0.35355,2.12132 0,5.67434 -5.67932,7.44709 -9.19239,10.96015 -2.08885,2.08886 -4.59817,4.59818 -7.07106,7.07107 -3.51595,3.51594 -5.99594,5.64238 -9.54595,9.19239 -0.81018,0.81018 -2.01824,0.95758 -2.82842,1.76776 -4.42797,4.42797 -7.19139,7.8985 -10.96015,11.66727 -2.53438,2.53438 -5.6219,4.91478 -7.77819,7.07107 -3.52566,3.52566 -6.49374,6.49374 -9.19238,9.19239 -2.90193,2.90192 -4.82945,5.183 -8.13173,8.48527 -1.32183,1.32183 -3.93229,3.9323 -5.65685,5.65686 -3.75744,3.75744 -9.97381,6.51258 -12.02082,10.6066 -2.53201,5.06401 -9.28738,8.93383 -13.43503,13.08148 -1.24644,1.24644 -4.05802,1.9367 -5.65685,3.53553 -3.42106,3.42106 -6.53226,9.80687 -11.66726,12.37437 -2.11527,1.05763 -8.13173,5.57685 -8.13173,1.06066 z"
         style="fill:#e3dbdb;fill-opacity:1;stroke:#000000;stroke-width:1px;stroke-linecap:butt;stroke-linejoin:miter;stroke-opacity:1" />
      <path
         sodipodi:nodetypes="ccsssccssc"
         inkscape:connector-curvature="0"
         id="path5044"
         d="m 45.254834,415.96608 c 10.068683,-8.60163 -11.665727,8.31305 -10.606602,9.89949 2.406761,2.40677 19.542339,1.993 22.627417,3.53554 2.055957,1.02798 25.978288,7.07107 27.577165,7.07107 1.025193,0 4.390152,1.69401 4.949747,1.41421 2.548233,-1.27412 6.851208,-1.90146 11.313709,-2.82843 6.28152,-1.93858 9.48509,-2.60583 10.6066,-3.53553 0.66301,-0.66301 25.4981,-2.87068 28.99138,-6.36396 1.33299,-1.33299 28.06748,-4.73296 28.28427,-4.94975 0.079,-0.079 -10.6066,-18.08003 -10.6066,-18.38478"
         style="fill:#e3dbdb;fill-opacity:1;stroke:#000000;stroke-width:1px;stroke-linecap:butt;stroke-linejoin:miter;stroke-opacity:1" />
      <path
         sodipodi:nodetypes="ccssscsssccsssssssssssc"
         inkscape:connector-curvature="0"
         id="path5074"
         d="m 32.5,443.36218 c -0.333333,0.25 -0.75,1.08334 -1,0.75 -0.25,-0.33333 1.294628,-1.04463 1,-0.75 -1.550257,1.55026 -2.557434,3.55744 -3.5,4.5 -0.755357,0.75536 -1.5,1.82965 -1.5,1.75 0,-0.39336 5.227981,0.27202 7,0 3.09492,-0.0949 5.145149,-0.10485 7.75,-0.25 2.508445,-0.13978 6.793034,-1 10.25,-1.75 1.929401,-0.41859 12.757554,-1.75755 13.5,-2.5 0.33371,-0.33371 3.835609,-0.2928 6.25,-1 2.507642,-0.53599 13.289863,-2.20757 17,-3 1.290053,-0.64502 3.566396,-0.0664 4.5,-1 0.73432,-0.73432 6.154597,-1.05919 6.5,-1.75 0.29156,-0.58312 0,-2.08359 0,-2.75 0,-5.82738 -7.118749,-5.25 -11.75,-5.25 -3.343326,0 -6.671807,0.58398 -10,1 -5.655065,0.70689 -11.181733,0.88635 -16.75,2 -0.648299,0.12966 -5.473279,1.93397 -6,2.25 -0.711545,0.42693 -0.226107,0.55653 -1,0.75 -3.766374,0.9416 -7.328369,2.83209 -11,3.75 -1.860579,0.46515 -4.649764,0.69988 -6.25,1.5 -0.907944,0.45397 -2.97742,-0.14381 -3.75,0.5 -0.452679,0.37723 -0.833333,0.83334 -1.25,1.25 z"
         style="fill:#e3dbdb;fill-opacity:1;stroke:#000000;stroke-width:1px;stroke-linecap:butt;stroke-linejoin:miter;stroke-opacity:1" />
      <path
         sodipodi:nodetypes="csssssscsscsssssssc"
         inkscape:connector-curvature="0"
         id="path5046"
         d="m 108.25,434.11218 c -0.34139,0.34139 -8.15861,1.15861 -8.5,1.5 -1.8026,1.8026 -8.35502,0.42751 -11.5,2 -1.269787,0.6349 -5.1268,0.75153 -6.25,1 -2.5681,0.5681 -8.995749,1.62953 -10.25,2 -2.83838,0.83838 -11.150991,2.09092 -12.75,2.75 -2.5518,1.0518 -9.403978,1.08139 -11.25,2 -0.626438,0.31172 -4.457131,1.15606 -7.25,1.5 -3.523569,1.76179 -10.519835,2.02659 -12.75,2.75 -1.90874,0.61914 -1.474985,-3.45921 -2.25,-6.5 -0.484317,-1.90023 -0.801402,-4.6986 -1.25,-7 2.159399,-0.6594 13.14665,-2.29888 15.25,-3 1.978556,-0.65952 4.155845,-1.05195 6.25,-1.75 2.529336,-0.84311 5.175968,-0.33798 7.5,-1.5 1.85739,-0.92869 4.400394,-0.5752 6.25,-1.5 1.35176,-0.67588 6.507113,-0.8357 8.5,-1.5 1.241531,-0.41384 2.755766,0.16475 4,-0.25 3.857962,-1.28599 8.085376,-1.27846 11.75,-2.5 3.52963,-1.17654 8.110166,-1.03672 11.75,-2.25"
         style="fill:#e3dbdb;fill-opacity:1;stroke:#000000;stroke-width:1px;stroke-linecap:butt;stroke-linejoin:miter;stroke-opacity:1" />
      <path
         sodipodi:nodetypes="cssssssssscsssssssssssssssssc"
         inkscape:connector-curvature="0"
         id="path4965"
         d="m 165.5,408.86218 c 3.19033,-5.59926 11.52076,-14.52076 15,-18.5 1.56827,-1.79364 4.95442,-5.47721 9.5,-9.5 1.55708,-1.378 6.78975,-6.28974 8,-7.5 4.12545,-4.12545 8.25684,-8.25684 12,-12 5.45303,-5.45303 9.59004,-9.59004 15,-15 6.02083,-6.02083 9.61679,-13.11679 15.5,-19 1.88208,-1.88208 6.07028,-6.07027 8,-8 3.20013,-3.20012 5.51271,-5.01271 9,-8.5 3.36787,-3.36787 10.67621,-11.55929 13.5,-15 2.64093,-3.2179 10.7642,-11.7642 17,-18 0.16667,-0.16666 1.33333,-0.33333 1.5,-0.5 0.59052,-0.59052 4.58911,-5.91088 6.5,-4 3.74462,3.74463 -10.50986,18.00986 -13.5,21 -3.70808,3.70809 -7.02292,7.52292 -11,11.5 -3.00245,3.00246 -13.60958,15.22302 -16.5,17.5 -2.35592,1.85592 -4.82661,6.51895 -8,9 -3.19702,2.49952 -8.09915,7.09915 -9,8 -3.07519,3.0752 -4.20198,5.20198 -7,8 -1.31237,1.31237 -3.46542,4.61187 -4.62132,5.76777 -2.26019,2.2602 -2.37367,2.43433 -5.23223,5.29289 -2.71576,2.71576 -4.00136,4.38004 -7,7.37868 -1.35763,1.35763 -3.74652,3.05369 -5.70711,5.56066 -2.64845,3.38652 -3.19007,3.75073 -5.93934,6.5 -1.42527,1.42528 -6.62318,5.62318 -8,7 -2.33836,2.33836 -6.3507,5.32122 -9,8.5 -3.74934,4.49868 -6.04513,8.04514 -8,10 -0.59962,0.59962 -1.15701,0.5785 -3.5,2.5 -2.56732,2.10547 -8.5,9.34477 -8.5,2 z"
         style="fill:#e3dbdb;fill-opacity:1;stroke:#000000;stroke-width:1px;stroke-linecap:butt;stroke-linejoin:miter;stroke-opacity:1" />
      <path
         sodipodi:nodetypes="cssssssscssssssssssssssssssssssssssssc"
         inkscape:connector-curvature="0"
         id="path5177"
         d="m 363.5,295.36218 c -0.71029,-0.36163 2.57833,1.07833 5,3.5 0.60409,0.6041 9.8719,-2.5 11.5,-2.5 0.73017,0 17.22344,-5.11172 19,-6 1.40274,-0.70137 7.42595,-0.92595 8,-1.5 1.0094,-1.0094 19.95601,-4.478 24,-6.5 1.42365,-0.71182 3.5267,-0.39761 5,-1 5.48668,-2.24334 14.55422,-3.96783 18,-5 4.20754,-1.26036 7.90495,-1.9525 12,-2.5 5.53166,-1.51583 16.09853,-4.04926 21,-5 0.85225,-0.16531 2.1782,0.27394 3,0 4.69664,-1.56554 7.83957,-2.44652 12.5,-4 1.36807,-0.45602 7.72935,-1.36467 9,-2 2.63017,-1.31508 10.74863,-2.55691 13.5,-3.5 4.77011,-1.63505 11.53955,-1.51977 20.5,-6 1.90866,-0.95433 11.77257,-2.17192 16,-4 5.69741,-2.46375 13.69354,-2.59677 19.5,-5 3.36423,-1.39242 12.22119,-2.5 19,-5.5 2.27131,-1.00518 10.09148,-1.25915 9,-2 -3.18198,-2.15981 -7.39502,-9.10498 -10,-6.5 -2.52762,2.52762 -8.27797,1.13899 -12,3 -4.07541,2.03771 -19.72386,5.72386 -21.5,7.5 -1.02017,1.02017 -9.23493,1.61747 -11,2.5 -6.30624,3.15312 -12.16408,2.33204 -18.5,5.5 -1.49814,0.74907 -4.00186,-0.24907 -5.5,0.5 -6.56813,3.28407 -14.42737,3.21369 -21,6.5 -1.50981,0.75491 -4.00479,-0.2476 -5.5,0.5 -1.94167,0.97084 -10.68273,1.68273 -11.5,2.5 -1.81802,1.81802 -17.33856,5.11286 -21.5,6.5 -7.14609,2.38203 -24.31456,3.81457 -28,7.5 -1.20145,1.20145 -3.98486,0.48486 -5,1.5 -1.17204,1.17204 -6.3655,0.18275 -8,1 -5.36598,2.68299 -9.9849,2.24245 -15.5,5 -2.31568,1.15784 -5.64896,0.32448 -8,1.5 -5.5629,2.78145 -22.35515,3.35515 -25.5,6.5 -1.12765,1.12766 -9.897,0.397 -11.5,2 -0.53009,0.53009 -5.84556,1.72779 -6,2.5 -0.16343,0.81715 0,1.66667 0,2.5 z"
         style="fill:#e3dbdb;fill-opacity:1;stroke:#000000;stroke-width:1px;stroke-linecap:butt;stroke-linejoin:miter;stroke-opacity:1" />
      <path
         sodipodi:nodetypes="cscscsssssc"
         inkscape:connector-curvature="0"
         id="path5016"
         d="m 103.9447,375.66099 c -0.33658,-1.97095 3.34206,-7.5847 7.07106,-11.31371 1.04763,-1.04763 6.71782,1.06096 7.07107,1.41422 3.34064,3.34063 28.53784,6.61752 32.52691,10.6066 0.94967,0.94967 16.68913,3.2541 16.97057,3.53553 0.91364,0.91364 -0.70711,23.42876 -0.70711,26.16295 0,2.30593 1.32622,13.4227 0,14.14214 -5.23148,2.83794 -10.43083,-2.12132 -12.02081,-2.12132 -1.02969,0 -26.11092,-4.89771 -26.87006,-5.65685 -0.53539,-0.53539 -21.88303,-4.20536 -24.04163,-6.36397 -1.8176,-1.8176 -0.8209,-26.3011 0,-30.40559 z"
         style="fill:#e3dbdb;stroke:#000000;stroke-width:1px;stroke-linecap:butt;stroke-linejoin:miter;stroke-opacity:1;fill-opacity:1" />
      <path
         inkscape:connector-curvature="0"
         id="path4116"
         d="m 345.71429,389.50504 -91.42858,-20"
         style="fill:#e3dbdb;stroke:#ff0000;stroke-width:3;stroke-linecap:butt;stroke-linejoin:miter;stroke-opacity:1;stroke-miterlimit:4;stroke-dasharray:none" />
      <path
         sodipodi:nodetypes="cccccccccccccccccccc"
         inkscape:connector-curvature="0"
         id="path4276"
         d="m 188.79751,588.14658 c 3.39381,0.14085 13.97568,0.62268 21.87757,-0.78618 4.82644,-0.94598 9.76976,-1.71459 14.77796,-1.30972 4.80734,0.17222 9.04938,-1.08355 13.77059,-1.28304 5.44375,0.01 10.64381,-1.26975 16.12686,-0.5754 4.66816,-0.88323 9.43709,-0.17776 14.0572,-0.64185 5.36976,-0.96376 10.85169,-0.91706 16.08699,-2.39459 5.59725,0.20611 10.93304,-1.59266 16.52131,-1.36577 5.07427,-1.07895 10.37651,-1.71591 15.67469,-1.56457 4.34014,0.0561 11.47759,-3.73511 10.13151,5.15526 0.0213,8.75834 -3.83657,5.38528 -11.248,6.2395 -4.97198,-0.1179 -10.43057,-0.10897 -15.28546,0.7471 -5.83593,0.74904 -12.62441,0.10849 -17.47844,1.06589 -6.31317,0.64864 -10.23568,0.91588 -16.52393,1.66312 -5.25587,0.17152 -11.07576,0.81879 -16.49771,0.69907 -5.08837,-0.59501 -11.50344,1.49646 -16.59016,1.43485 -4.21643,0.78543 -20.58968,1.57633 -26.16121,1.8214 -4.90986,0.79895 -12.4048,1.13418 -17.25366,1.31213 -2.15002,0.25989 -4.96333,-1.34733 -4.96152,-4.41336 0.049,-1.81676 -0.25557,-4.69418 2.97541,-5.80384 z"
         style="fill:#e3dbdb;fill-opacity:1;stroke:#000000;stroke-width:1px;stroke-linecap:butt;stroke-linejoin:miter;stroke-opacity:1" />
      <path
         sodipodi:nodetypes="csscsssssssssssssc"
         inkscape:connector-curvature="0"
         id="path5014"
         d="m 33.234019,425.15847 c -0.517323,1.0095 0.810189,-9.79641 -2.121321,-12.72792 -0.678816,-0.67882 0.446368,-3.34991 0,-4.24265 -1.026636,-2.05327 -2.139688,-21.19483 -2.12132,-21.2132 2.823094,-2.82309 12.637238,-3.95817 16.263456,-4.94975 3.58527,-0.98038 18.900478,-4.2657 22.084524,-5.44974 2.987067,-1.11079 8.637027,-1.48641 12.149495,-3.24264 3.931435,-1.96572 13.034206,-3.73525 15.720562,-4.32843 3.093858,-0.68316 13.590015,-2.44052 14.392135,-3.24264 0.0707,-0.0707 0.54212,-1.57921 1.41421,-0.70711 0.27552,0.27552 0,2.39692 0,2.82843 0,5.59751 0.70711,11.00969 0.70711,16.26345 0,2.70858 0.62259,22.79645 -0.70711,25.45585 -0.7761,1.55221 -10.55789,2.82843 -12.020811,2.82843 -3.296907,0 -13.475327,1.9974 -16.720562,3.24264 -2.659597,1.02052 -9.153572,1.31722 -12.270816,2.41421 -3.376332,1.18817 -10.482953,1.90202 -13.435028,2.82843 -6.042513,1.89625 -14.422384,4.24264 -23.334524,4.24264 z"
         style="fill:#e3dbdb;fill-opacity:1;stroke:#000000;stroke-width:1px;stroke-linecap:butt;stroke-linejoin:miter;stroke-opacity:1" />
      <path
         sodipodi:nodetypes="csssscssccsssc"
         inkscape:connector-curvature="0"
         id="path5076"
         d="m 108.53033,448.54416 c -3.70826,1.59099 -8.567153,1.20676 -10.792893,1.80546 -2.324747,0.62533 -5.464047,1.12402 -7.944544,1.63388 -2.291669,0.47105 -7.472573,0.88901 -8.71967,1.51256 -1.476464,0.73823 -6.112691,0.92487 -7.87132,1.38389 -2.219021,0.57918 -10.655883,1.60355 -11.260408,1.60355 -0.701636,0.0787 -8.024603,-1.19594 -8.024603,-1.273 0,-0.39205 6.939573,-1.41421 8.308505,-1.41421 1.727859,0 6.384497,-0.98254 7.954951,-1.76777 1.718126,-0.11376 3.357924,-0.27531 4.949748,-0.53033 0.56833,-0.56833 4.365171,-0.85676 5.480077,-1.41421 0.655879,-0.32794 4.899728,-0.48031 5.126524,-0.70711 0.37155,-0.37155 5.930905,-1.76776 6.540738,-1.76776 1.290761,0 6.895523,-1.41298 7.247845,-1.06066"
         style="fill:#e3dbdb;stroke:#000000;stroke-width:1px;stroke-linecap:butt;stroke-linejoin:miter;stroke-opacity:1;fill-opacity:1" />
      <path
         sodipodi:nodetypes="cscsccssssscssssscscsssscsccsscssccsscsscssssssssccccccccccccccccsccccsccccccscccccssccscsscccsssc"
         inkscape:connector-curvature="0"
         id="path4172"
         d="m 100.6875,394.65625 c -0.0618,0.008 -0.13978,0.046 -0.1875,0.0937 -0.16248,0.16248 -0.0533,6.75656 0.0937,10.4375 -0.0831,0.0152 -0.18214,0.0312 -0.25,0.0312 -0.0595,0 -0.069,0.0192 -0.0625,0.0312 L 98,406.375 c -0.168359,0.16836 -0.318291,0.39352 -0.53125,0.5 -0.831389,0.41569 -1.842097,-0.6579 -2,-0.5 -0.377068,0.37707 0.5,7.76523 0.5,10.09375 0,3.52621 -2.133721,10.35756 -0.5,13.625 0.789031,1.57807 -0.573039,7.02072 0.5,8.09375 1.720056,1.72006 3.112596,20.54848 3.53125,24.75 0,4.45741 -0.583544,18.05165 1.5,22.21875 1.21912,2.43823 -7.9e-4,10.12658 -1,12.125 -0.813893,1.62779 -0.268172,9.82558 0.5,10.59375 1.40664,1.40665 -0.93255,6.72865 0,8.59375 0.67087,1.34173 -0.14296,3.27657 0.5,4.5625 3.33975,6.67949 0.71657,15.82787 3.03125,23.21875 -1.35841,2.71682 0,17.60195 0,22.71875 0,9.53144 -0.51656,23.18564 3.5625,31.34375 1.01415,2.02795 -0.0272,5.00814 1,7.0625 1.1922,2.38439 -1.04778,16.60848 -0.5,17.15625 2.19716,2.19716 -0.48482,8.15535 1,11.125 1.36511,2.73022 -0.33283,6.92809 1,9.59375 2.22073,4.44146 4.19915,21.51562 4.4375,27.96875 1.78664,0 5.25962,-0.125 7.75,-0.125 0.10423,0 0.62855,-7.93675 0.5,-11.34375 -0.55103,-5.50987 -0.32292,-10.11564 -1.28125,-15.78125 -0.50507,-5.22663 -0.69655,-12.11649 -0.78125,-13.03125 -0.60259,-6.50848 -1.0541,-12.59055 -1,-15.3125 0.0591,-2.97138 -0.20664,-13.3287 -0.375,-14.375 -0.71629,-3.92688 -1.4609,-9.90855 -1.21875,-13.25 0.21409,-2.95434 -0.21875,-11.8093 -0.21875,-14.125 0,-5.95282 -1.58372,-24.90762 -2.15625,-31.1875 -0.53571,-5.17857 -1.46475,-22.71233 -1.46875,-18.53125 -0.003,3.62243 -0.0358,-16.88462 -0.15625,-18.0625 -0.22721,-2.22222 -0.56236,-17.41302 -0.75,-19.65625 -0.25254,-3.01898 -1.32584,-19.75078 -1.4375,-23.53125 0,-3.64462 -0.68334,-23.60985 -1.1875,-28.40625 -0.29201,-2.77809 -0.42452,-8.18893 -0.59375,-10.78125 -0.20623,-3.15894 -0.0466,-7.15174 -0.375,-10.3125 4.23349,1.0981 11.83735,2.17503 16.8125,3.96875 1.71375,0.61787 3.72908,0.77079 5.375,1.59375 2.19621,1.09811 5.16787,0.80269 7.5,1.96875 1.27937,0.63968 5.32454,1.02097 6.96875,1.59375 1.12114,0.39056 5.41276,1.51259 6.78125,1.96875 1.00833,0.33611 4.50675,0.93504 5.53125,1.25 2.29762,0.70634 6.33645,1.6459 8.9375,2.5 1.89142,0.62108 6.02931,1.05144 8.21875,1.78125 0.80951,0.26984 3.32481,1.00531 4.84375,1.40625 l 0.625,231.375 c -1.0925,0.0285 0.38928,2.88106 0.625,3.53125 0.39212,1.08151 0.83332,2.04239 1.34375,3 0.11058,0.20744 -0.16427,0.84403 0,1 0.35832,0.34011 7.60865,0.31023 7.84375,0.0625 0.17385,-0.18316 0.66355,-3.53209 0.65625,-3.8125 -0.11915,-4.56875 -0.0888,-12.63447 -0.1875,-16.6875 -0.021,-0.8456 0.52415,-10.32881 0.0625,-7.8125 -0.12954,0.70619 0.34326,-10.11186 0.6875,-11.65625 -0.29962,-2.25817 -0.19662,-12.68431 -0.15625,-16.40625 0.73632,-2.90658 0.13016,-9.48325 -0.0312,-11.125 -0.34381,-3.49635 0.0375,-13.54832 0.53125,-18.1875 -0.32747,-3.26527 0.0342,-7.85922 -0.0312,-10.375 -0.0222,-0.85392 -0.7297,-7.25466 -0.4375,-7.5625 0.18228,-0.19203 0.4974,-9.77634 0.46875,-10.875 -0.048,-1.83693 -0.86918,-8.52018 -0.25,-9.84375 0.57975,-1.23926 0.56553,-6.52913 0.53125,-7.84375 -0.0212,-0.81452 -0.1465,-6.1647 -0.1875,-8.3125 -0.0551,-2.87904 0.44432,-6.8535 0.25,-9.625 -0.077,-2.95313 -0.1459,-10.12014 -0.0625,-11.875 0.14104,-2.96673 -0.61242,-10.65067 -0.0937,-13.625 0.2409,-1.38151 -0.17397,-7.36409 0.28125,-7.84375 1.11845,-1.17834 0.003,-18.38345 0.1875,-21.71875 0.34459,-2.17878 -0.1063,-7.93326 0.0312,-9.375 0.19164,-2.01021 0.2011,-5.77368 0.28125,-8.34375 0.0778,-2.49624 0.0539,-17.41985 -0.0312,-20.6875 -0.0165,-0.63305 0.14576,-4.33074 0.125,-5.875 0.10037,-0.2418 0.15044,-0.41206 0.125,-0.4375 -0.0493,-0.0493 -0.0998,-0.0798 -0.15625,-0.125 -0.008,-0.0506 -0.0201,-0.14569 -0.0312,-0.15625 -1.25298,-0.55669 -2.36455,-0.65726 -3.5625,-1.1562 -1.24691,-0.47532 -2.45989,-0.51958 -4.16518,-0.83482 -0.94946,-0.196 -4.12512,-1.08664 -5.84821,-1.61607 -2.09952,-0.65868 -3.23772,-0.78751 -5.70536,-1.58036 -1.49895,-0.48161 -3.07248,-0.61213 -4.75,-1.09375 -1.90572,-0.54714 -3.42719,-0.36984 -5.1875,-1.25 -1.12403,-0.56197 -3.0768,-0.66561 -5.09375,-1.40625 -1.21328,-0.42807 -5.77897,-0.96762 -8.34375,-2.25 -1.08596,-0.54298 -4.91288,-1.01892 -6,-1.5625 -1.14082,-0.57041 -6.04307,-1.63235 -8.375,-2 -2.59566,-0.40922 -7.02983,-1.65554 -9.40625,-2.84375 -2.61416,-1.30708 -7.05139,-2.06142 -9.125,-2.5625 -1.3852,-0.51398 -2.59903,-0.92064 -4.09375,-1.34375 -1.23979,-1.23979 -5.23842,-1.04109 -7.53125,-2.1875 -0.8379,-0.41897 -1.92184,0.0782 -2.53125,-0.53125 -0.38293,-0.38294 -1.60713,-0.30357 -2,-0.5 -0.19848,-0.0992 -0.91136,-0.90157 -1.34375,-0.84375 z"
         style="fill:#e3dbdb;fill-opacity:1;stroke:#000000;stroke-width:1px;stroke-linecap:butt;stroke-linejoin:miter;stroke-opacity:1" />
      <path
         sodipodi:nodetypes="cssssssscsssssscssssssccc"
         inkscape:connector-curvature="0"
         id="path4166"
         d="m 106.51523,671.43869 c -1.13913,-0.67173 -2.27697,-28.91761 -2.35206,-35.12871 -0.0298,-2.46104 -2.51189,-23.49935 -2.7346,-31.09065 -0.27428,-9.34895 -0.65152,-26.90717 -1.933646,-32.85715 -1.683709,-7.81359 -1.746974,-34.06582 -3.066352,-40.71428 -1.300581,-6.55374 -3.225807,-45.47691 -3.362219,-49.53081 -0.111909,-3.3257 -2.671869,-24.095 -2.734591,-29.05549 -0.05897,-4.66362 -1.174105,-27.05941 -2.030818,-33.80167 -0.519707,-4.09004 -0.864381,-15.87802 -0.443803,-20.64775 2.619891,-0.88836 12.653039,-3.74993 12.653039,-3.43128 0,2.71167 0.80434,31.75968 1.30601,36.64124 0.42052,4.0919 0.44566,15.00968 0.86223,19.05548 0.37496,3.64172 1.85002,13.73264 1.57651,19.99383 -0.21886,5.00982 1.18092,10.50437 0.80094,15.80531 -0.40665,5.67275 1.15661,12.77337 1.01015,18.18274 -0.0419,1.54827 1.25354,26.24568 1.26269,29.29443 0.98218,16.69818 2.27284,29.04692 2.27284,46.97209 0,1.85187 0.84184,7.9129 1.01015,13.63706 0.0998,3.39533 1.9056,13.91272 1.51523,17.67767 -0.38861,3.74792 0.50508,18.43394 0.50508,23.73858 0,2.61491 1.15021,12.40195 1.51523,13.13198 0.97635,1.95271 0.50508,9.34468 0.50508,11.61676 0,0.4684 0.62471,6.38978 0.14793,9.95359 -6.53993,1.002 -2.01158,-0.008 -8.28502,0.55701 z"
         style="fill:#e3dbdb;stroke:#000000;stroke-width:1px;stroke-linecap:butt;stroke-linejoin:miter;stroke-opacity:1" />
      <path
         id="path4417"
         d="M 175.0625 429.84375 C 175.0155 434.98299 175.23455 441.36957 175.25 445 C 175.2701 449.70939 174.84248 457.24919 175.28125 460.375 C 174.93494 462.98111 175.21074 468.65377 174.875 471.46875 C 174.64298 473.41407 175.48775 481.92761 175.53125 483.59375 C 175.58945 485.82528 175.32281 495.04971 175.21875 498.25 C 175.10689 501.68925 175.0924 518.43386 174.84375 525.75 C 174.54724 531.54309 175.86517 538.29793 175.34375 544.3125 C 175.85115 547.66494 175.6442 551.18091 175.625 555.75 C 176.08629 560.04094 174.68486 564.16211 175.53125 565.75 C 176.02963 566.685 176.7639 579.71829 176.28125 580.75 C 174.90454 583.69281 176.31666 587.81751 175.84375 591.84375 C 175.61257 596.52545 175.69235 602.13078 175.875 606.46875 C 175.91706 608.08151 175.42218 622.88781 175.6875 626.84375 C 175.86741 629.52602 175.0906 644.94165 175.1875 648.65625 C 175.30629 653.21147 175.33658 658.52042 175.5625 662.9375 C 175.56334 665.57422 174.83657 671.39985 175.75 670.4375 C 178.86936 670.51908 183.28462 671.32176 184.6875 669.84375 C 185.36009 669.13515 184.17507 661.85825 184.78125 660.5625 C 185.23775 659.58669 184.40485 656.1912 185.03125 655.53125 C 186.14418 654.35871 185.58465 649.35996 185.53125 647.3125 C 185.25916 636.87855 184.87755 626.4716 185.78125 616.59375 C 185.73653 614.87902 186.02669 594.32566 185.90625 593.34375 C 185.51941 590.19114 185.10807 578.4788 185.84375 576.90625 C 187.17639 574.05765 186.52952 566.12231 186.1875 563.34375 C 185.90774 561.07071 186.03374 555.06363 185.875 551.5625 C 185.70709 547.121 185.61669 544.52509 185.90625 539.0625 C 185.89961 538.80798 186.42975 530.49105 186.40625 530.46875 C 186.24594 530.31661 186.14505 526.48535 186.21875 523.3125 C 186.20215 519.5786 184.81892 515.01265 186.3125 512.59375 C 186.41973 509.54614 186.34298 493.63845 186.0625 490.46875 C 185.75574 487.00217 186.55635 481.86178 186.46875 478.65625 C 186.39275 475.86545 186.43635 469.68796 186.46875 464.71875 C 187.32115 459.88138 185.8716 448.50267 185.9375 444.03125 C 185.96294 442.30124 185.97834 437.32441 185.9375 433.1875 C 185.61232 433.09815 185.37082 433.02789 184.8125 432.90625 C 182.67572 432.44071 181.96337 431.74556 180.90625 431.46875 C 179.40654 431.07604 176.73898 430.30883 175.90625 430.03125 C 175.68122 429.95624 175.32405 429.91305 175.0625 429.84375 z "
         style="fill:#e3dbdb;fill-opacity:1;stroke:#000000;stroke-width:1px;stroke-linecap:butt;stroke-linejoin:miter;stroke-opacity:1" />
      <path
         sodipodi:nodetypes="ccccccccccssssssssssscc"
         inkscape:connector-curvature="0"
         id="path4487"
         d="m 110.17857,418.91964 c 2.33121,1.23515 5.55907,0.62708 8.09375,1.5 3.09483,0.62577 6.1012,1.35835 9.1875,1.875 3.73859,0.25522 7.19911,1.73409 10.84375,2.25 4.24267,2.00731 9.16854,1.54398 13.4375,3.46875 3.16791,0.60949 6.5808,0.97603 9.625,2.03125 3.19722,0.92252 6.50011,1.8277 9.75,2.71875 1.6129,0.48281 3.39766,0.89565 4.47768,0.96875 1.38404,-0.0245 4.15856,-0.30476 5.87053,-0.0312 l 4.64286,-0.65626 c -1.51894,-0.40094 -9.39138,-2.74355 -10.20089,-3.01339 -2.18944,-0.72981 -6.32733,-1.16017 -8.21875,-1.78125 -2.60105,-0.8541 -6.63988,-1.79366 -8.9375,-2.5 -1.0245,-0.31496 -4.52292,-0.91389 -5.53125,-1.25 -1.36849,-0.45616 -5.66011,-1.57819 -6.78125,-1.96875 -0.8221,-0.28639 -2.24826,-0.53437 -3.625,-0.78125 -1.37674,-0.24688 -2.70407,-0.49266 -3.34375,-0.8125 -1.16607,-0.58303 -2.50354,-0.79083 -3.8125,-1 -1.30896,-0.20917 -2.58939,-0.41969 -3.6875,-0.96875 -1.64592,-0.82296 -3.66125,-0.97588 -5.375,-1.59375 -2.48757,-0.89686 -5.63546,-1.61929 -8.6875,-2.25 -3.05204,-0.63071 -6.00825,-1.1697 -8.125,-1.71875 0.20399,1.96334 0.36528,3.30724 0.39732,5.51339 z"
         style="fill:#e3dbdb;fill-opacity:1;stroke:#000000;stroke-width:1px;stroke-linecap:butt;stroke-linejoin:miter;stroke-opacity:1" />
      <path
         inkscape:connector-curvature="0"
         id="path3176"
         d="m 305.82368,398.46519 c -0.52967,1.33561 -0.17678,2.89561 -0.17678,4.41941 0,0.64142 -0.60919,4.69411 -0.53033,4.77297 0.89859,0.89859 2.39281,0.13575 3.53554,0.70711 2.00564,1.00282 7.96462,0.34388 8.3085,0 0.39453,-0.39453 0,-3.26912 0,-3.88909 0,-1.26315 -0.36286,-3.34013 0.17678,-4.41941 0.0181,-0.0363 0.0249,-0.5054 0,-0.53033 -0.0478,-0.0478 -2.4134,-0.29208 -2.82843,-0.70711 -0.85044,-0.85044 -5.07505,-2.50061 -6.18718,-1.94454 -0.96824,0.48412 -1.15313,0.90401 -2.2981,1.59099 z"
         style="fill:#e3dbdb;fill-opacity:1;stroke:#000000;stroke-width:1px;stroke-linecap:butt;stroke-linejoin:miter;stroke-opacity:1" />
      <path
         sodipodi:nodetypes="sccssssssscccccsccsccssssssssssccc"
         inkscape:connector-curvature="0"
         id="path3148"
         d="m 167.93266,436.11862 c -0.28844,-0.38427 -4.82936,2.16849 -9.8514,2.39645 -4.99868,1.78381 -8.0374,-0.3287 -13.08126,0.84711 -3.44025,0.86496 -14.62791,4.03764 -17.5,4.5 -3.10592,0.5 -12.02168,3.25 -16.25,3.25 -0.26028,0 -0.25,-4.0863 -0.25,-4.25 0,-1.44543 -0.24018,-4.62991 0,-6.75 0.14171,-1.25085 3.81807,-0.15903 5,-0.75 1.18051,-0.59025 2.87698,-0.18849 4,-0.75 3.06008,-1.53004 9.51586,-1.58862 13,-2.75 0.9086,-0.30287 2.10023,0.0499 3,-0.25 1.92927,-0.64309 4.33235,-0.36078 6.25,-1 2.88883,-0.96294 13.49027,-2.44851 13.49027,-2.44851 2.13051,-0.12002 5.79821,0.15554 7.42462,-1.23744 2.6935,-0.49884 5.13583,-1.16002 7.6014,-1.41421 1.44422,-0.72211 3.19414,-0.53438 4.77297,-1.06066 0.77912,-0.25971 1.5151,-0.79966 2.2981,-1.06066 3.64701,-0.82067 6.48358,-2.06566 9.89949,-2.12132 4.52086,-1.50695 9.17569,-2.29253 13.43503,-3.71231 1.07962,-0.35987 2.47022,0.17833 3.53553,-0.17678 2.85692,-0.9523 7.75158,-0.94927 10.96016,-1.59099 7.66224,-1.53245 15.97418,-2.4963 23.33452,-4.94974 2.15479,-0.71827 4.51137,-0.50206 6.71752,-1.23744 4.05048,-1.35016 8.2796,-2.47006 12.55114,-3.18198 1.0803,-0.18005 2.10138,-0.70379 3.18198,-0.88389 2.22343,-0.37057 4.56166,-0.52169 6.71752,-1.06066 1.94861,-0.48715 6.88376,-1.76776 8.66205,-1.76776 1.39472,0 11.96469,-2.18165 13.25826,-2.82843 1.09456,-0.54728 4.29391,-0.58161 5.83363,-0.88388 1.26831,0.29936 3.07853,-0.82567 4.24264,-0.70711 2.85581,-0.0194 4.39692,-0.30607 7.07106,-0.88389 0.22032,0.22032 -0.35355,1.62357 -0.35355,1.94455 0,3.03422 0,6.14439 0,9.01561 -0.64183,1.6238 -3.01073,1.59653 -4.06586,2.65165"
         style="fill:#e3dbdb;fill-opacity:1;stroke:#000000;stroke-width:1px;stroke-linecap:butt;stroke-linejoin:miter;stroke-opacity:1" />
      <path
         sodipodi:nodetypes="cssssscsc"
         inkscape:connector-curvature="0"
         id="path3146"
         d="m 278.81586,393.25127 c -1.83454,1.61665 -0.29498,3.67992 -0.75,5.5 -0.21434,0.85737 -5.89585,1.03092 -5.06586,1.86091 0.76176,0.76176 8.58076,0.29038 9.5,0.75 0.91196,0.45598 5.83075,-0.002 7.25,0.11612 0.8162,0.0677 0.70137,-7.20244 0.60355,-9.59836 -0.056,-1.37276 -2.98666,-1.74186 -4.87868,-2.04289 -1.34975,-0.64263 -2.20883,-0.50498 -3.87132,-1.20711 -2.94275,-1.24283 -2.43413,3.2988 -2.78769,4.62133 z"
         style="fill:#e3dbdb;stroke:#000000;stroke-width:1px;stroke-linecap:butt;stroke-linejoin:miter;stroke-opacity:1;fill-opacity:1" />
      <path
         sodipodi:nodetypes="ccssssscsccscscsccsssssscccccccccccccccssscssssscssscsscsssscccscc"
         inkscape:connector-curvature="0"
         id="path3138"
         d="m 280.95693,387.12167 c -2.17903,1.03646 -4.57919,1.39284 -6.91792,2.11435 -0.63219,-0.0124 -1.19432,0.41358 -1.76195,0.59046 -0.76273,0.23769 -1.70992,0.22787 -2.50689,0.32576 -0.9307,0.11433 -1.83894,0.45744 -2.76176,0.5708 -2.73587,0.33608 -4.84097,0.68047 -7.40554,1.47964 -1.65504,0.51575 -3.59062,0.37365 -5.26865,0.89655 -0.52534,0.1637 -1.21123,-0.0338 -1.75212,0.0906 -1.80137,0.41288 -3.56706,0.93961 -5.401,1.26903 -1.27343,0.22874 -2.77707,0.0373 -4.00906,0.42123 -2.62932,0.81935 -5.26486,1.32962 -8.03287,1.59233 -1.6453,0.78259 -4.13081,1.06215 -6.27829,1.37679 -0.78024,0.11431 -1.75386,-0.0335 -2.50443,0.20078 -1.02872,0.32057 -2.43294,0.10487 -3.38664,0.5585 -0.24926,0.11856 -0.45327,0.30555 -0.75723,0.36018 -1.15249,0.20702 -2.392,0.0829 -3.50916,0.43107 -2.49703,0.77812 -5.11108,1.26677 -7.6604,1.72468 -0.65575,0.11779 -1.35007,0.0607 -2.00453,0.21061 -2.3408,0.53652 -3.40748,-0.0183 -5.77398,0.52411 -1.33932,0.30698 -3.48493,0.46194 -4.84695,0.70659 -1.34217,0.24109 -3.63318,1.09062 -4.96276,1.32943 -2.3898,0.42927 -3.789,0.91031 -6.26738,1.27343 -1.40806,0.20631 -2.86712,0.1663 -4.25901,0.41632 -1.99979,0.35921 -4.70275,0.83087 -6.71039,1.19149 -1.46491,0.26313 -3.04444,0.70323 -4.45008,1.14125 -2.8388,0.73749 -4.442,0.83469 -6.76805,1.3028 -0.60502,0.28778 -2.81915,0.44425 -3.42932,0.73448 -3.0465,0.87953 -8.50799,2.23632 -10.77526,2.55525 -1.4817,-0.0922 -4.23702,0.38743 -6.15743,1.36851 -1.80852,0.86669 -3.70005,1.03531 -5.61179,1.18908 -1.7723,0.53143 -3.59857,1.09204 -5.44843,1.18229 -1.80429,0.49603 -3.67121,0.0284 -5.48168,0.53679 -1.56463,0.15865 -2.95522,1.2649 -4.56571,0.8523 -1.62478,0.0611 -3.26857,0.33623 -4.85146,0.7827 -1.37595,0.59006 -6.82235,1.32959 -8.13798,1.43313 -0.0485,2.42557 -0.0955,4.85133 -0.10224,7.27744 0.43988,1.65996 0.67341,5.29844 0.34441,6.52959 2.92704,1.07348 10.56528,-2.76815 13.51496,-1.86268 4.09982,0.48006 8.20908,0.20279 12.37998,-0.13155 1.31842,-0.1057 2.60886,-0.62905 3.89392,-0.92359 2.02615,-0.4644 4.11568,-1.16268 6.03079,-1.50669 1.51812,-0.27268 3.52906,-1.43094 5.03837,-1.90127 1.19494,-0.37237 2.53488,-0.51879 3.76649,-0.80108 0.93964,-0.21537 1.93198,-0.22509 2.88427,-0.44336 0.45258,-0.10373 1.20757,0.23036 1.62469,0.0319 1.16576,-0.55449 4.02879,-0.5244 5.39117,-0.76912 3.21446,-0.57739 6.53726,-0.83319 9.77761,-1.30795 2.53295,-0.37112 6.72783,-2.66184 9.11661,-3.4062 0.33891,-0.10561 0.77805,0.10162 1.12478,0.0221 3.79599,-0.87004 7.77355,-1.53288 11.5494,-2.39832 1.97622,-0.45295 3.79333,-1.40366 5.78577,-1.76155 2.27478,-0.4086 4.52169,-0.96164 6.77819,-1.36696 0.82828,-0.14878 1.68507,-0.0536 2.50444,-0.20078 3.57745,-0.64259 7.26574,-1.37608 10.91468,-1.91071 1.69918,-0.24895 3.45069,-0.34584 5.13876,-0.64906 1.22129,-0.21937 3.61753,-1.13178 4.76138,-0.53146 5.06558,-0.73545 10.96639,-2.0132 16.32061,-3.42969 1.2693,-0.3358 4.21684,-1.25741 5.47091,-1.48267 2.62584,-0.47166 3.96718,-0.61792 6.60882,-1.09242 2.05011,-0.36824 3.66925,-0.0165 5.74796,-0.49291 2.4539,-0.56244 7.09092,-3.20392 9.33522,-2.40645 1.09411,-0.8763 2.30104,-0.79985 3.5239,-1.18092 0.68253,-2.29647 0.68827,-6.10234 0.97368,-7.58691 -0.028,-1.2037 0.0288,-2.31248 -0.14545,-3.71548 -0.0874,-0.70385 0.39309,-2.66315 0.36202,-3.33459 z"
         style="fill:#e3dbdb;fill-opacity:1;stroke:#000000;stroke-width:1px;stroke-linecap:butt;stroke-linejoin:miter;stroke-opacity:1" />
      <path
         sodipodi:nodetypes="csccssccscccsscsssssscssssscscc"
         inkscape:connector-curvature="0"
         id="path3140"
         d="m 281.00233,398.52102 c -2.2797,0.30217 -8.13436,1.57662 -10.91618,1.96606 -2.22963,0.31214 -5.66615,1.38084 -8.30044,1.80367 -4.06991,0.78543 -17.43686,4.21114 -21.07142,3.92857 -5.28723,1.76241 -11.68105,2.80482 -14.28571,3.57143 -1.15668,0.34044 -6.78333,1.27295 -10.00001,2.14286 -2.87722,0.7781 -11.31499,1.90749 -13.92857,2.14286 -4.7323,1.58042 -14.9046,3.57342 -19.28572,4.64285 -2.50206,0.53675 -7.26141,0.93264 -8.21428,1.42858 -2.97906,1.55049 -8.58851,1.80279 -10.35714,2.49999 -2.74736,0.6045 -10.54965,2.31017 -13.57143,2.85715 -5.03006,1.08645 -14.0787,2.82069 -19.64286,3.57143 -2.36781,0.65843 -7.14765,1.60015 -10,2.14285 -3.78459,0.72007 -10.35714,2.64286 -10.35714,2.64286 0.11418,1.88462 0.5,4.21428 0.5,4.21428 0.29057,-0.33699 17.69493,-3.25929 20.67857,-3.64285 4.31857,-0.55518 9.90736,-1.07868 13.10714,-2.14286 1.88057,-0.62544 6.68685,-0.97256 10.71429,-2.49999 1.40443,-0.53264 7.39116,-0.9626 10.35714,-2.14287 2.77161,-1.10291 7.96997,-1.5414 11.42857,-2.5 1.40469,-0.38933 8.55286,-2.04739 10,-2.5 4.76851,-1.49139 11.42471,-2.14286 14.64286,-2.5 2.82591,-0.41661 12.48017,-1.89433 15.35714,-2.49999 2.87771,-0.60581 7.75417,-1.01994 11.07143,-2.14286 2.53824,-0.85921 6.53879,-0.92025 8.92857,-1.78571 1.67976,-0.60833 7.4001,-1.02148 8.92858,-1.78572 1.4356,-0.7178 7.81262,-1.59692 10.35714,-2.14286 3.71562,-0.79721 6.16722,-1.80725 8.52028,-2.52871 3.4027,-0.72746 9.1389,-2.25183 13.03392,-3.38748 3.05203,-0.88986 10.24348,-1.84164 10.89824,-2.4964 -5.46311,-2.22819 -6.03524,-1.73592 -8.59297,-2.85714 z"
         style="fill:#e3dbdb;fill-opacity:1;stroke:#000000;stroke-width:1px;stroke-linecap:butt;stroke-linejoin:miter;stroke-opacity:1" />
      <path
         sodipodi:nodetypes="cssssssssssssccsscssssssssssssc"
         inkscape:connector-curvature="0"
         id="path4419"
         d="m 248.90158,361.51885 c 4.10253,-8.27489 7.4245,-21.30874 10.77082,-26.20584 3.05164,-4.46584 5.95733,-11.60683 6.90685,-14.55635 0.9296,-2.88765 3.54443,-9.31084 4.24264,-10.8566 1.2357,-2.7357 2.27232,-7.21916 4.24264,-9.8995 2.08124,-2.83123 3.30387,-8.33333 4.24264,-9.89949 2.99261,-4.99261 6.83775,-14.61592 10.60661,-18.38478 2.16312,-2.16312 8.56577,2.12132 9.89949,2.12132 2.02153,0 16.47001,8.69184 21.2132,12.02082 2.98144,2.0925 19.22551,7.9118 21.92031,10.6066 2.33798,2.33797 -0.7071,8.05844 -0.7071,12.02082 0,5.99443 0.51995,27.20287 0,36.06245 -0.29288,4.99039 0.7071,33.09398 0.7071,38.18376 0,4.52838 0.47799,10.8995 -1.41421,14.14214 -6.37041,1.27408 -4.66793,-1.83951 -7.07107,-4.24264 -0.38526,-0.38527 0.70711,-10.59715 0.70711,-12.72793 0,-1.4503 0.38373,-12.8455 0.41421,-14.82106 0.0875,-5.67509 -0.88911,-12.88049 -0.41421,-15.6556 0.073,-2.92701 0,-10.57207 0,-11.24264 0,-9.35856 0.70711,-18.9639 0.70711,-27.57716 0,-2.18432 0,-10.56371 0,-10.56371 -2.15952,-2.26992 -8.93514,-4.16373 -10.81371,-5.49264 -3.41768,-2.41768 -7.35313,-4.0676 -11.27082,-6.23528 -1.09999,-0.60863 -5.82726,-2.37751 -6.65685,-3.20711 -1.64992,-1.64991 -4.25694,-1.84272 -5.90685,-3.49264 -0.35326,-0.35326 -5.10523,-3.38005 -6.36397,-2.12132 -5.25182,5.25182 -6.78693,14.68643 -9.19238,19.09188 -0.95847,1.75538 -8.60254,20.41111 -9.57843,22.15686 -3.80285,6.80285 -8.90588,19.7615 -15.17031,32.29037 -1.38705,2.77409 -5.76117,17.62551 -11.31371,14.84924 -2.18071,-1.09036 -1.34225,-4.0945 -0.70711,-6.36397 z"
         style="fill:#e3dbdb;fill-opacity:1;stroke:#000000;stroke-width:1px;stroke-linecap:butt;stroke-linejoin:miter;stroke-opacity:1" />
      <path
         sodipodi:nodetypes="ccssssscscsssccssssscssssscsscsccssssscc"
         inkscape:connector-curvature="0"
         id="path4266"
         d="m 337.64349,402.8341 c -0.59752,4.15642 -1.60799,-5.25352 -2.71662,-8.00726 -1.96131,-0.17857 -2.53188,-1.35135 -4.16317,-0.68364 -2.10218,0.86008 -4.45378,-3.19131 -4.63235,-2.1608 -0.3748,2.16291 -1.98876,10.4987 -2.24219,13.52719 -0.25048,2.99314 -1.14729,7.92775 -1.50254,9.89013 -0.23003,1.27064 -0.65301,5.41652 -0.65301,6.87981 0,2.31663 -0.0573,4.40783 -1.01016,6.31346 -1.95146,4.09519 -0.19291,12.50766 -2.0203,16.16244 -0.46752,0.93504 -0.027,2.32688 -0.50508,3.28299 -0.70637,1.41275 0.0822,4.21094 -1.01015,5.3033 -0.15077,0.15077 -0.15744,7.63849 -0.75761,8.83884 -0.56889,1.13777 -0.0369,6.85543 -0.75762,7.57614 -1.68414,1.68414 -1.69307,14.31997 -2.0203,14.64721 -1.08275,1.08275 -1.2627,6.54384 -1.2627,8.33376 -1.80037,4.46361 -0.17043,10.18985 -2.27284,14.39468 -0.61587,1.23174 -0.1304,3.03872 -0.75761,4.29314 -0.6241,1.24819 0.16945,2.9441 -0.50508,4.29315 -0.81132,1.62265 0.37068,6.32971 -0.75761,8.5863 -0.60609,1.21218 0.60609,3.3335 0,4.54569 -1.10534,2.21066 -0.0127,5.83387 -1.01016,7.82868 -1.41486,3.44899 -0.30069,14.19029 -2.27284,16.16244 -0.30162,0.30162 -0.40138,3.58069 -0.75761,4.29315 -0.64923,1.29845 0.39449,3.50416 -0.25254,4.79822 -0.89886,1.79772 -0.80824,4.19248 -1.51523,6.31345 -0.63441,1.90322 0.13527,4.52768 -0.75761,6.31346 -0.37039,0.74078 0.37038,2.03714 0,2.77792 -1.26798,2.53595 0.18125,8.22378 -0.75762,10.10152 -0.60593,1.21187 0.33912,3.10983 -0.25254,4.29315 -0.43997,0.87994 -0.75761,2.31648 -0.75761,3.283 -0.54731,3.8929 0.13042,8.32545 -1.51523,11.61675 -0.54417,1.08833 -0.19517,2.66319 -0.75762,3.78807 -0.43479,0.8696 -0.0625,2.14536 -0.50507,3.03046 -0.40406,0.80812 0.40406,2.22234 0,3.03046 -1.27168,2.54336 -0.44227,6.94546 -1.76777,9.59645 -0.58473,1.16945 0.32735,3.13338 -0.25254,4.29315 -1.09696,2.19393 -0.85581,9.17105 -1.26268,11.61675 -0.44074,2.64923 -0.48871,10.56457 -0.75762,12.37437 -0.48049,3.23382 -2.0203,11.14864 -2.0203,12.87945 4.62842,-0.0266 8.88066,1.43155 11.11167,-3.03046"
         style="fill:#e3dbdb;fill-opacity:1;stroke:#000000;stroke-width:1px;stroke-linecap:butt;stroke-linejoin:miter;stroke-opacity:1" />
      <path
         sodipodi:nodetypes="ccccccsccccccccccsccccccccscssccssssssc"
         inkscape:connector-curvature="0"
         id="path3182"
         d="m 175,437.29075 c 5.03184,-0.52459 10.81431,-1.47862 12.5,-2.13926 2.78777,-0.50103 8.62492,-1.81605 12.85714,-2.5036 4.99688,-1.30667 12.44936,-2.49562 15.54828,-3.38747 3.64246,-0.67738 10.95785,-1.9915 14.45172,-2.68395 2.95914,-1.4668 14.58279,-1.62974 16.42858,-3.21429 0.20947,-0.20948 8.68593,-1.48582 10,-2.14286 2.5711,-1.28555 5.21175,-0.46302 7.85714,-1.78571 3.0784,-0.30318 7.03115,-1.42227 11.07143,-1.9589 4.26922,-0.883 10.096,-2.12822 14.65362,-2.85355 3.33851,-0.68094 7.00058,-1.89288 8.85589,-2.1608 1.74189,-0.87095 5.19947,-1.07503 6.96608,-1.60536 2.2934,-0.32129 5.37159,-0.71043 10.66045,-2.50718 -1.75973,0 -8.8913,-1.07861 -10.5088,-1.07861 0,0 -2.22857,0.5722 -5.2701,1.09297 -3.44485,0.92694 -7.34313,0.55742 -8.21429,1.42857 -5.28381,1.21795 -12.74951,3.07436 -16.07142,3.21429 -2.53661,0.94561 -7.53939,1.09112 -8.92858,1.78571 -3.99143,1.99572 -15.09432,2.91576 -17.85714,3.92857 -2.14815,0.30598 -5.30314,1.07123 -7.14286,1.07143 -1.5943,0 -8.10508,1.87757 -10.71428,2.50001 -4.09811,0.97762 -7.09962,1.02818 -10,1.78571 -2.78705,0.83045 -9.32179,2.22425 -12.14286,2.14285 -3.53076,1.76538 -8.44604,1.08669 -11.78571,2.14286 -3.10908,0.53668 -21.67745,3.83872 -24.82143,4.57143 -1.7057,0.42842 -13.51476,2.98792 -16.21429,3.28571 -2.10794,0.56705 -5.85543,0.85629 -9.17857,1.89286 -1.44223,0.44987 -5.80612,0.5281 -8.75,1.25 -1.48966,0.74483 -3.89952,0.54384 -7,1.5 -1.90386,0.58713 -5.84461,0.89188 -7,1.25 -2.17378,0.67378 -9.82232,1.82232 -10.5,2.5 -3.43563,0.96928 -3.02988,-0.83968 -3.25,3.75 0.76545,0.76546 7.50917,-1.25 9,-1.25 1.68722,0 15.11096,-2.30548 16.5,-3 0.96059,-0.48029 4.05699,0.19301 4.75,-0.5 0.74219,-0.74219 6.62078,-1.18539 8.25,-2 1.88592,-0.94296 4.56362,0.0932 6.25,-0.75 0.56494,-0.28247 2.64464,-0.14464 3,-0.5 1.12707,-1.12707 13.13467,-2.39891 15.75,-3.07143 z"
         style="fill:#e3dbdb;fill-opacity:1;stroke:#000000;stroke-width:1px;stroke-linecap:butt;stroke-linejoin:miter;stroke-opacity:1" />
      <path
         sodipodi:nodetypes="csssssssssssssssscssssssssssssssc"
         inkscape:connector-curvature="0"
         id="path5211"
         d="m 107.48023,586.37882 c -0.57247,2.48502 1.46675,-5.00228 4.24264,-7.77817 4.08971,-4.08971 4.26447,-9.92133 8.48528,-14.14214 2.46775,-2.46775 6.14407,-10.85117 10.02082,-14.72792 1.75047,-1.75047 4.46267,-6.49821 6.65685,-8.69239 1.94682,-1.94682 3.11493,-5.56467 5.24264,-7.69239 2.7201,-2.7201 3.4121,-8.36184 5.65686,-10.6066 3.40024,-3.40025 6.69185,-9.52028 9.89949,-12.72792 3.01557,-3.01557 3.57066,-8.52041 6.36396,-11.31371 3.48082,-3.48082 5.68167,-10.5071 8.27818,-13.97056 4.49246,-5.99246 14.88185,-24.16003 16.47056,-27.74874 1.24657,-2.81585 5.97186,-11.04293 7.53553,-12.6066 3.7441,-3.74409 5.79564,-9.61826 8.60661,-13.84924 2.96933,-4.46934 4.48927,-11.56035 4.94974,-12.02082 6.72717,-6.72717 12.55035,-20.57116 15.76346,-25.28427 2.44235,-3.58253 4.13992,-8.34703 6.98528,-11.19239 1.03793,-1.03793 0.57722,-3.98287 1.41421,-5.65685 2.3923,-4.78459 7.66025,-9.8995 11.31371,-9.8995 2.07497,8.29985 -11.68982,24.67252 -15.97056,33.23402 -2.32013,4.64027 -5.03261,10.06815 -6.57107,11.6066 -2.83464,2.83464 -4.82158,10.39265 -6.15685,11.72792 -2.93926,2.93926 -7.47679,14.53551 -9.36396,17.64214 -3.09505,5.09504 -6.63209,15.03158 -13.55635,21.95584 -2.69204,2.69204 -4.6487,8.18424 -7.77818,11.31371 -3.80109,3.8011 -5.04892,9.29157 -9.19238,13.43503 -2.75322,2.75321 -4.10742,10.05541 -6.36397,12.93503 -3.62165,4.62165 -9.36455,16.22851 -16.97056,23.83452 -2.88027,2.88027 -3.70436,7.2399 -6.36396,9.8995 -3.72356,3.72356 -6.06012,10.57059 -9.36396,14.43503 -2.94664,3.44663 -4.88645,9.00777 -9.02082,13.14213 -3.25942,3.25943 -6.3585,12.01537 -10.6066,16.26346 -1.56425,1.56425 -4.1658,8.40844 -6.36396,10.6066 -1.08329,1.08329 -4.86657,-2.84156 -4.24264,-2.12132 z"
         style="fill:#e3dbdb;stroke:#000000;stroke-width:1px;stroke-linecap:butt;stroke-linejoin:miter;stroke-opacity:1;fill-opacity:1" />
      <path
         sodipodi:nodetypes="ccccsscssssccscscscscscsccsscscsssssssccsccsssscsssccsssssscssssssssccscsscccsscssssscsssscsccccsscssssscssssssc"
         inkscape:connector-curvature="0"
         id="path4236"
         d="m 257.42586,358.88788 c -0.1736,0.0246 -1.0301,-0.45733 -2.70434,-0.0205 -3.3474,3.14002 -5.80597,8.51377 -7.57691,13.92678 l -14.30086,288.48712 c 0,0.67075 1.03758,2.77512 1.8125,3.9375 0.53367,0.80051 0.54701,2.78913 1.40625,3.21875 1.72382,0.86191 7.48267,-1.82983 8.9375,-0.375 0.24368,0.24367 0,-2.09756 0,-4.28125 0,-2.83989 1.0625,-6.43127 1.0625,-9.625 0,-1.72195 1.13823,-12.23197 1.78125,-12.875 0.7104,-0.7104 0.375,-19.67185 0.375,-22.5 0,-1.45464 0.59455,-2.72368 0.71875,-4.28125 0.46039,-5.15064 1.69625,-23.74229 1.78125,-24.625 0.30462,-3.16176 1.00051,-12.00103 1.4375,-15.375 0.43526,-3.36058 0.34988,-12.54965 1.40625,-15.71875 1.10883,-3.32665 1.09375,-6.41753 1.09375,-10.34375 0,-0.27964 0.86643,-15.54501 0.6875,-18.9375 0.54297,-4.47154 1.4535,-15.70574 1.4375,-17.5 -0.0442,-4.95576 0.83773,-15.49314 0.71875,-21.4375 -0.0499,-3.67129 1.0625,-9.93447 1.0625,-12.5 0,-4.56645 -0.10915,-25.81294 1.4375,-28.90625 0.45664,-0.91325 0.34375,-12.47771 0.34375,-14.28125 0,-3.98103 1.43834,-35.3121 2.86336,-36.73712 0.71829,-0.7184 -0.0435,-12.03795 0.71875,-13.5625 0.68257,-1.36513 0.82574,-4.02853 0.875,-6.75 0.8325,0.23513 1.54911,0.42412 1.625,0.5 1.39785,1.39786 3.14983,1.31623 5.53125,2.6875 0.58384,0.33619 5.06701,1.55847 5.71796,1.79394 1.56547,0.56628 4.094,0.61743 4.81329,1.42481 0.50856,0.25427 1.27263,0.0894 1.78125,0.34375 0.65431,0.32716 3.36293,0.85847 4.84375,1.625 1.29826,0.58397 3.02824,1.2485 5.15625,2.3125 0.7919,0.39595 3.29488,1.12967 4.125,1.4375 2.07356,0.76892 2.66629,0.87165 4.09375,1.40625 1.07712,0.4034 4.64925,1.07462 6.4375,1.96875 0.92025,0.46012 5.30338,1.74088 5.71875,2.15625 1.43367,1.43367 4.8755,1.60962 6.96875,2.65625 2.05079,1.02539 5.423,1.75838 7.65625,2.875 0.8145,0.40725 2.64332,0.99545 3.71875,1.5 -0.0587,0.15411 -0.11023,0.3142 -0.1875,0.46875 -0.20203,0.40406 0.20203,1.12719 0,1.53125 -0.73011,1.46019 -0.0663,3.91391 -0.75,5.28125 -1.74317,3.48627 -1.33759,15.73699 -2.48836,19.79962 0,3.38546 -0.71079,10.76534 -2.03125,13.40625 -0.40522,0.81045 -0.34535,3.72195 -1,5.03125 -0.89719,1.79439 0.12684,5.59007 -0.75,7.34375 -0.3522,0.70439 -0.91389,4.16389 -1.03125,4.28125 -1.3992,1.3992 -1.64316,16.48979 -2.75,19.6875 0,0.55318 -0.75279,12.31808 -1.03125,12.875 -1.0433,2.08659 -1.25,6.05452 -1.25,8.84375 0,0.58315 0.81574,3.24676 0.25,3.8125 -1.71863,1.71863 -3.40386,19.1472 -3.28125,23.46875 0,0.48276 -0.28949,2.11024 -0.75,3.03125 -0.26508,0.53017 0.33973,6.19152 -0.53125,7.0625 -0.5564,0.5564 -0.70023,8.04477 -1.25,11.625 -0.14918,0.97152 -1.2315,9.07525 -1.5,9.34375 -1.29148,1.29148 -0.22916,7.48958 -1.03125,9.09375 -0.65874,1.31748 -0.42159,3.37443 -1,4.53125 -0.59324,1.18648 -0.30664,4.61915 -0.75,5.0625 -1.01978,1.01978 -0.97314,9.16215 -1.53125,11.375 -0.31648,1.70381 -0.43945,6.50782 -1,9.59375 -0.46959,2.58523 0.21351,6.91673 -1,9.34375 -0.18621,0.37242 0.28312,1.46688 0,1.75 -1.36921,1.36921 -0.69213,7.94677 -1.78125,10.125 -0.43773,0.87547 0.43774,2.40578 0,3.28125 -0.63502,1.27004 -0.44222,7.50472 -1,8.0625 -0.7252,0.7252 -0.89924,6.96174 -1.28125,7.34375 -1.00918,1.00918 -0.0281,4.36878 -0.75,5.8125 -0.75689,1.51377 0.23524,3.81076 -0.5,5.28125 -0.58068,1.16131 0.0655,2.93146 -0.5,4.0625 -0.57957,1.15905 0.0357,2.89731 -0.53125,4.03125 -1.06653,2.13305 -0.84278,6.83097 -1.59375,9.09375 2.63799,-0.11261 7.45111,1.76764 8.75,0.46875 1.51781,-1.5178 1.22661,-12.66411 2.125,-13.5625 0.45781,-0.4578 -0.30113,-2.27272 0,-2.875 1.76109,-3.52218 0.90142,-13.17782 2.09375,-15.5625 0.46421,-2.77551 0.97068,-9.34335 1.40625,-12.84375 0.48276,-2.22813 0.13063,-4.855 1.09375,-6.78125 2.01322,-4.02644 1.28456,-10.82499 2.1875,-15.15625 1.28081,-6.14383 0.55197,-13.24986 2.5,-19.28125 -0.79943,-0.79944 1.78125,-8.39099 1.78125,-10.375 0,-1.26309 1.70802,-13.11427 2.15625,-13.5625 0.80924,-0.80924 -0.5449,-11.44145 0.34375,-13.21875 0.56757,-1.13514 -0.0193,-5.32443 0.71875,-6.0625 1.19492,-1.19492 0.74106,-7.5223 1.4375,-8.21875 2.43854,-2.43853 2.17434,-22.2822 4.28125,-27.15625 -0.36786,-0.36786 1.4375,-6.52101 1.4375,-8.5625 0,-2.4581 0.79319,-8.36763 1.78125,-10.34375 0.82117,-1.64234 -0.8861,-6.64515 0.34375,-7.875 1.16123,-1.16122 0.55426,-5.14801 1.8125,-6.40625 0.51515,-0.51515 -0.33889,-2.54099 0,-3.21875 0.57026,-1.14053 -0.20659,-2.83681 0.34375,-3.9375 3.54939,-7.09878 0.50759,-18.15966 4.65625,-25.34375 0,-1.74935 3.47214,-29.50215 3.89461,-29.92462 1.65899,-1.78824 2.44075,-12.34325 3.3125,-15.78125 -0.38654,-0.11833 -0.86826,-0.25376 -1.28125,-0.375 -0.0416,-0.0457 -0.14998,-0.18123 -0.15625,-0.1875 -1.7889,-1.7889 -5.6722,-2.07235 -7.65625,-2.9375 -1.58323,-0.69038 -4.02457,-1.55916 -5.71875,-2.40625 -1.40248,-0.0762 -3.38456,-1.16472 -4.53125,-1.59375 -1.42169,-0.53192 -4.33998,-1.70658 -5.34375,-2.1875 -2.39976,-1.14977 -6.17591,-2.04108 -9.09375,-3.5 -1.3194,-0.6597 -5.40364,-1.63133 -7.21875,-2.375 -2.00671,-0.82217 -4.25561,-1.55462 -6.03125,-2.1875 -1.99213,-0.71004 -4.79137,-1.60387 -5.4375,-2.25 -0.16667,-0.16668 -1.11622,-0.45105 -3.53125,-1.4375 -2.22343,-0.9082 -3.68763,-1.38406 -5.4375,-2.0625 -0.94141,-0.365 -4.02714,-1.16982 -4.9375,-1.625 -0.80887,-0.40444 -4.14068,-1.59757 -5.0625,-2.15625 -1.47323,-0.89285 -4.61227,-1.18942 -6.09375,-1.96875 -2.04268,-1.07454 -6.10835,-1.85105 -7.28125,-2.4375 -0.32166,-0.16083 -3.40977,-1.2659 -4.625,-1.09375 z"
         style="fill:#e3dbdb;fill-opacity:1;stroke:#000000;stroke-width:1px;stroke-linecap:butt;stroke-linejoin:miter;stroke-opacity:1" />
      <path
         sodipodi:nodetypes="sssscssscsscsssscssssscccsscssscssscssss"
         inkscape:connector-curvature="0"
         id="path4281"
         d="m 252.14286,418.79075 c 0,-2.5398 -0.0735,-21.63876 0.71428,-23.21428 0.83538,-1.67076 1.42857,-15.5905 1.42857,-17.85715 0,-1.71874 0.49887,-16.83835 0.53752,-18.62975 0.027,-1.25288 -10.8583,2.90359 -14.28931,3.92858 0.32771,10.89786 -1.60535,33.81926 -1.60535,43.98689 0,2.19371 0.96862,8.41991 0,10.35714 -0.69974,1.39948 0.20957,6.57614 -0.71428,7.5 -1.09589,1.09589 -2.14286,25.60405 -2.14286,29.28572 -0.0937,4.19584 -2.40736,18.75672 -1.07143,21.42857 0.22179,0.44358 0.88221,5.18922 0.71429,5.35714 -0.99043,0.99042 -2.14286,14.47671 -2.14286,17.14286 0.48773,7.70641 -0.71429,14.14106 -0.71429,21.78571 0,0.63269 -1.0089,3.27681 -0.35714,3.92857 0.60695,0.60695 1.14976,11.9862 0.35714,13.57143 -0.71577,1.43155 -1.38079,12.39068 -1.42857,13.92858 -0.28629,9.21486 -0.35714,16.89752 -0.35714,23.21428 -0.99001,5.59153 -0.88975,13.34062 -1.07143,17.14286 -0.24528,5.13341 -0.69684,12.59433 -0.71428,18.21428 -0.0128,4.13015 -1.21129,13.49401 -1.07143,18.21429 0.11045,3.72777 -1.78572,17.71528 -1.78572,22.14285 0,4.09028 -1.07143,8.05299 -1.07143,12.14286 0,2.14286 0,4.28572 0,6.42857 2.03984,-0.10029 1.79939,0.0417 3.57143,0 2.16879,0 5.08705,-0.35714 7.5,-0.35714 0.0378,-1.81037 -0.21863,-4.06708 0.71429,-5 0.68835,-0.68835 0,-5.70403 0,-6.78571 0,-13.91781 3.21428,-28.46385 3.21428,-41.78572 -0.53784,-4.78011 -1.05622,-29.30092 0.35715,-30.71428 0.84866,-0.84867 0.10285,-4.84857 0.71428,-6.07143 0.94272,-1.88543 0.2245,-8.66328 1.42857,-11.07143 0.10697,-0.21394 1.07143,-26.8859 1.07143,-27.5 C 244.49419,532.70307 245,524.45521 245,518.79075 c 0,-10.95147 2.14286,-20.89215 2.14286,-31.78571 0,-5.31901 1.42857,-10.01558 1.42857,-15 0,-1.42996 0,-9.64846 0,-6.42857 0.61696,-5.76174 1.32485,-12.29256 1.42857,-15.35715 0.0625,-1.84615 1.23719,-7.83153 1.42858,-12.14286 0.0745,-1.67819 0.54341,-7.26959 0.71428,-9.28571 0.32802,-3.87034 0,-7.64214 0,-10 z"
         style="fill:#e3dbdb;fill-opacity:1;stroke:#000000;stroke-width:1px;stroke-linecap:butt;stroke-linejoin:miter;stroke-opacity:1" />
      <path
         inkscape:connector-curvature="0"
         id="path4372"
         d="m 264.42586,382.48163 c 0.14472,0.10346 0.28526,0.22115 0.4375,0.3125 1.90292,0.95146 4.00177,1.28214 5.9375,2.25 0.9404,0.4702 1.87929,0.45528 2.78125,0.90625 1.23761,0.61881 3.29561,0.44467 4.65625,1.125 0.83357,0.41678 1.94621,0.33248 2.78125,0.75 0.93719,0.4686 1.97572,0.69099 2.90625,1.15625 0.24349,0.12127 1.91286,0.62831 2.15625,0.75 1.44302,0.5321 2.95756,0.8921 4.78125,1.5 0.80159,0.2672 3.43355,0.90865 4.3125,1.15625 0.81853,0.23058 1.88518,0.61827 3.15625,0.875 1.30153,0.58765 3.70496,1.5764 4.15625,1.78125 1.3699,0.62181 4.79656,1.7452 6.4375,2.25 0.66021,0.2031 1.40213,0.34169 2.03125,0.65625 0.43101,0.2155 3.36785,1.0866 3.53125,1.25 0.30831,0.30831 0.82343,0.16171 1.25,0.375 1.46912,0.73456 3.47674,1.17693 4.9375,1.375 0.31993,0.31994 1.20074,0.35699 1.5,0.65625 0.34322,0.34321 1.33742,0.12271 1.90625,0.375 0.27643,0.13821 1.04252,-0.22875 1.5,0 1.58886,0.3562 4.63605,0.57764 7.28125,0.875 0.0475,-0.11349 0.0825,-0.23215 0.125,-0.34375 -1.07543,-0.50455 -2.90425,-1.09275 -3.71875,-1.5 -2.23325,-1.11662 -5.60546,-1.84961 -7.65625,-2.875 -1.04663,-0.52331 -2.41743,-0.83348 -3.71875,-1.1875 -0.65066,-0.17701 -1.28676,-0.35929 -1.84375,-0.59375 -0.55699,-0.23446 -1.04783,-0.51658 -1.40625,-0.875 -0.41537,-0.41537 -4.7985,-1.69613 -5.71875,-2.15625 -1.78825,-0.89413 -5.36038,-1.56535 -6.4375,-1.96875 -1.42746,-0.5346 -2.02019,-0.63733 -4.09375,-1.40625 -0.83012,-0.30783 -3.3331,-1.04155 -4.125,-1.4375 -2.12801,-1.064 -3.85799,-1.72853 -5.15625,-2.3125 -1.48082,-0.76653 -4.18944,-1.29784 -4.84375,-1.625 -0.50862,-0.25435 -1.27269,-0.0895 -1.78125,-0.34375 -0.35965,-0.40369 -1.17602,-0.62801 -2.09375,-0.8125 -0.91773,-0.18449 -1.93601,-0.34186 -2.71875,-0.625 -0.65095,-0.23547 -5.13491,-1.44506 -5.71875,-1.78125 -1.19071,-0.68564 -2.2146,-1.01802 -3.125,-1.34375 -0.9104,-0.32573 -1.70732,-0.64482 -2.40625,-1.34375 -0.0759,-0.0759 -0.7925,-0.26487 -1.625,-0.5 -0.0246,1.36074 -0.0602,2.69833 -0.1875,3.875 -0.0346,0.31981 -0.14009,0.4896 -0.1875,0.78125 z"
         style="fill:#e3dbdb;fill-opacity:1;stroke:#000000;stroke-width:1px;stroke-linecap:butt;stroke-linejoin:miter;stroke-opacity:1" />
      <path
         sodipodi:nodetypes="cssscssscsssssssssssc"
         inkscape:connector-curvature="0"
         id="path4490"
         d="m 325.5,384.11218 c -0.6875,-3.7139 2,-12.30801 2,-19 0,-1.93171 0.26748,-9.01748 1,-9.75 0.10396,-0.10396 0.90411,-7.02218 1,-7.75 0.53663,-4.07326 0.74862,-7.75138 1,-11 0.67987,-2.6603 0.9411,-14.6911 1.75,-15.5 0.29115,-0.29115 0.34057,-4.84056 0.75,-5.25 0.18747,-0.18747 0.69839,-5.95629 1,-8.5 0.32401,-2.73266 0.243,-6.99342 0.5,-9.25 1.01389,-3.51389 1.57825,-8 -0.5,-8 -0.57824,0 -2.5,0.51163 -3.25,1.75 -1.22448,2.02181 -0.8822,5.51439 -1,7.75 -0.0501,0.95079 -0.5,3.41859 -0.25,6.5 0.12093,1.4905 -1.01672,5.68267 -1.5,8.5 -0.4532,2.64196 -0.0846,7.41919 -0.25,10 -0.13743,2.1442 -1.12666,7.75332 -1.5,10.75 -0.37021,2.97155 -2,14.7006 -2,18.75 0,2.17199 -0.67785,9.60571 -1.25,13 -0.35821,2.12507 -0.047,6.34404 -1,8.25 -0.75315,1.5063 0.0176,9.51756 1.25,10.75 0.35985,0.35985 2.06374,-1.75165 2.25,-2 z"
         style="fill:#e3dbdb;stroke:#000000;stroke-width:1px;stroke-linecap:butt;stroke-linejoin:miter;stroke-opacity:1;fill-opacity:1" />
      <path
         sodipodi:nodetypes="csssssc"
         inkscape:connector-curvature="0"
         id="path5310"
         d="m 336.5,278.36218 c 5.80553,0.96397 29,16.23504 29,16.5 0,1.05195 -1.73658,5.47316 -2,6 -0.84512,1.69024 0.36258,5.63742 -1,7 -0.82744,0.82744 -9.20911,-6.35455 -10.5,-7 -4.22775,-2.11387 -17.3247,-7.3247 -19,-9 -0.5873,-0.5873 4.23263,-10.56948 3.5,-13.5 z"
         style="fill:#e3dbdb;fill-opacity:1;stroke:#000000;stroke-width:1px;stroke-linecap:butt;stroke-linejoin:miter;stroke-opacity:1" />
      <path
         sodipodi:nodetypes="cccsssssscccccsscsc"
         inkscape:connector-curvature="0"
         id="path4436"
         d="m 294.65642,279.24447 c -1.49063,0.60582 -0.72264,8.50082 -0.70711,12.02082 -0.52637,1.89349 -0.70695,7.89911 -1.06065,9.54594 -0.17556,2.65043 -0.99589,7.46639 -0.81067,11.02081 0.13773,2.64305 -0.65813,6.91516 -0.56066,10.19239 0.0674,2.26547 -0.57053,8.12634 -1.2071,11.1495 -0.29718,1.41137 -0.70281,10.53428 -0.95711,12.53858 -0.38381,3.02508 -1.76777,20.22129 -1.76777,24.39518 0,0.676 -0.43019,3.81245 0,4.24264 1.55554,1.55554 3.31076,0.48233 4.24264,1.41422 0.25563,0.25562 1.34058,-4.03637 1.06066,-4.5962 0.13047,-4.54657 0.39878,-9.57513 0.70711,-12.02081 0.32886,-2.89963 0.70711,-6.67765 1.06066,-10.96016 0.43256,-3.60123 0.90453,-10.31294 1.06066,-13.78858 0.18759,-3.63975 0.68776,-8.92455 0.70711,-12.72793 0.0155,-3.05657 0.70711,-7.93717 1.06066,-10.60659 0.34809,-2.62819 0.95709,-11.91725 1.41421,-14.84925 0.14559,-4.03467 -0.89932,-8.80795 0.35355,-11.3137 1.2999,-2.59979 -1.04479,-9.20825 -4.59619,-5.65686 z"
         style="fill:#e3dbdb;fill-opacity:1;stroke:#000000;stroke-width:1px;stroke-linecap:butt;stroke-linejoin:miter;stroke-opacity:1" />
      <path
         sodipodi:nodetypes="ccssssssssssssssssscssssssccsssssssc"
         inkscape:connector-curvature="0"
         id="path5160"
         d="m 329.5,277.36218 c 1.52465,-5.96325 -3.16031,-2.8429 -2,-4.5 2.30647,-2.30646 6.46353,-1.04503 10.5,-2.5 5.14221,-1.85354 14.02348,-4.98195 19,-6.5 3.93048,-1.19896 11.18756,-2.76592 16.5,-4.5 4.86398,-1.58769 7.49748,-1.86631 13,-3 6.23432,-1.28446 17.26093,-4.92031 22,-6.5 4.03275,-1.34425 13.13434,-3.06717 17,-5 3.94315,-1.97157 10.32364,-1.73788 13.5,-3 4.87083,-1.93541 10.43362,-2.64454 13,-3.5 1.8951,-0.6317 10.22458,-2.61229 12,-3.5 2.08341,-1.0417 7.15978,-2.1354 11,-3.5 5.41268,-1.92336 12.1873,-3.59365 18,-5 2.88217,-0.69732 13.41924,-3.45962 15.5,-4.5 3.75943,-1.87971 8.2105,-2.23683 12,-3.5 1.34563,-0.44854 14.25069,-3.87534 19,-5 6.60931,-1.56512 13.07989,-3.57989 18,-5 1.62808,-0.46992 9.04869,-2.77434 10.5,-3.5 1.37499,-0.68749 8.14904,-2.5 8.5,-2.5 1.67894,0 0.71379,0.21379 0.5,4 -4.09548,2.2573 -24.76414,5.76414 -28.5,9.5 -1.05707,1.05707 -9.35132,1.85132 -11,3.5 -0.0255,0.0255 -14.95329,3.95329 -16.5,5.5 -0.64033,0.64034 -14.97913,2.85167 -16.5,3.5 -3.39153,1.44577 -13.29649,3.39825 -20.5,7 -2.50146,1.25073 -7.08081,1.04041 -10,2.5 -1.6261,0.81305 -7.2016,2.20161 -12,3 -6.14341,0.80176 -20.1295,5.58766 -25,6.5 -3.31599,1.658 -16.06395,4.06395 -18,6 -0.36207,0.36207 -8.10924,1.30462 -9.5,2 -2.49185,1.24593 -8.5001,1.25005 -11,2.5 -3.18045,1.59023 -14.71046,2.21046 -16,3.5 -0.99963,0.99964 -10.63185,3.02392 -12,3.5 -3.28882,1.14441 -11.68367,3.59184 -16,5 -1.33857,0.43669 -6.79069,1.88801 -11.5,3.5 -5.36687,1.83707 -9.61951,2.15016 -13.5,4 z"
         style="fill:#e3dbdb;fill-opacity:1;stroke:#000000;stroke-width:1px;stroke-linecap:butt;stroke-linejoin:miter;stroke-opacity:1" />
      <path
         sodipodi:nodetypes="csscssscsccsssscccsc"
         inkscape:connector-curvature="0"
         id="path4056"
         d="m 293,385.11218 c -1.74024,0.90054 -2.44587,2.85998 -6,0.75 -1.84579,-1.09579 -2.76091,-1.7609 -3.5,-2.5 -0.2792,-0.2792 2.57734,-6.82733 2.75,-7 0.40393,-0.40393 1.50075,-4.75149 2,-5.75 1.30966,-2.61932 1.96579,-5.14131 3,-7 1.25438,-2.25438 3.28893,-7.69296 4.25,-10.5 0.65919,-1.92533 2.28933,-6.53932 3.75,-9.75 0.95619,-2.1284 1.7497,-5.02244 2.5,-6.75 0.95971,-2.20971 1.52497,-4.77497 2.75,-6.25 0.70653,-3.43403 2.09546,-5.80311 3.5,-9.25 1.25746,-4.00746 1.52232,-5.04463 2.5,-7 0.48874,-0.97748 1.66758,-2.84238 2.25,-5 0.72147,-2.67274 1.29117,-4.83233 2.75,-7.75 0.44227,-0.88454 2.21294,-5.91426 2.75,-6.75 1.12644,-1.75288 2.21135,-5.46134 3.75,-9 0.79208,-2.52481 3.20082,-8.92402 5.5,-13.5 1.16762,0.89225 2.01026,0.93476 3.25,1.5 1.07374,1.07375 3.10948,1.35949 4,2.25 1.26082,1.26082 -0.43157,3.5 1.5,3.5"
         style="fill:#e3dbdb;fill-opacity:1;stroke:#000000;stroke-width:1px;stroke-linecap:butt;stroke-linejoin:miter;stroke-opacity:1" />
      <path
         sodipodi:nodetypes="ccsssccccccssssccsc"
         inkscape:connector-curvature="0"
         id="path3205"
         d="m 333.9633,275.12084 c -1.83285,6.57348 -3.40063,10.85204 -6.29469,17.59114 0,0 -4.46271,11.87256 -7.09619,18.18808 -2.09719,5.02941 -6.40775,18.31835 -9.07107,23.20279 -1.66427,3.05223 -6.45676,15.84176 -7.80628,19.28446 -2.98066,7.60384 -12.89389,27.92002 -14.88178,33.41581 2.59981,1.69792 5.58084,3.11886 8.52512,3.00001 1.6959,-6.38575 6.98856,-16.09847 9.89949,-21.92032 1.80137,-3.79529 3.00968,-8.51397 3.88908,-10.96015 1.76777,-2.89007 4.24197,-8.13105 6.36396,-11.66726 1.46695,-3.14856 2.65471,-6.76004 4.44975,-10.66726 0.97655,-3.4531 1.64672,-5.76832 2.62132,-7.71752 0.80299,-1.60599 1.21762,-3.99383 2.82843,-6.71751 1.46758,-2.48151 1.90171,-4.46172 3.26776,-7.42462 1.7302,-3.7527 1.44842,-5.18972 2.74264,-8.83884 1.00538,-2.8347 3.74844,-8.89057 5.57107,-12.29899 1.04571,-3.44019 3.70332,-6.69364 4.89088,-10.83378 -0.83869,-0.83869 -3.56181,-2.19021 -4.68198,-2.76777 -4.12882,-2.12881 -1.46645,-1.41201 -5.21751,-2.86827 z"
         style="fill:#e3dbdb;fill-opacity:1;stroke:#000000;stroke-width:1px;stroke-linecap:butt;stroke-linejoin:miter;stroke-opacity:1" />
      <path
         sodipodi:nodetypes="cccccssscccssccccssssc"
         inkscape:connector-curvature="0"
         id="path4071"
         d="m 324.25,397.11218 c -0.33333,0.0833 -0.91667,0.58334 -1,0.25 -0.0833,-0.33333 1.24296,-0.49295 1,-0.25 -0.40726,0.40727 -4.56854,1.18147 -5.25,0.5 -2.03199,-0.30122 -4.02618,-1.37199 -5.25,-2.5 0.4015,-2.3486 1.84875,-5.59875 2.25,-6 0.82075,-0.82075 0.76413,-3.01413 1.75,-4 1.87915,-1.87914 2.1575,-5.06499 3.5,-7.75 0.26063,-0.52126 3.56098,-9.06098 4,-9.5 0.98482,-2.90115 3.74569,-8.85408 4.75,-11.75 0.88863,-2.57164 2.35229,-5.16376 3.25,-7.5 0.63554,-1.63554 1.18258,-4.35029 2.25,-6.25 1.28251,-2.28251 2.51966,-5.51966 3.5,-6.5 0.54952,-0.54952 2.0203,-5.27033 3,-6.5 0.64158,-2.39157 2.0257,-4.02569 2.75,-6 1.23694,-2.78934 2.03882,-5.11325 3.25,-7.75 0.57658,-1.39023 1.89797,-4.36558 2.75,-6.75 1.07809,-2.27807 1.87449,-5.24898 2.25,-6 1.40534,-2.81067 1.74263,-5.48525 3.25,-8.5 0.31759,-0.63517 0.78168,-3.89722 2.5,-4.5 2.11102,-0.74053 5.38055,2.63055 6.25,3.5 0.72483,0.72483 1.5,4.43929 1.5,5.75"
         style="fill:#e3dbdb;fill-opacity:1;stroke:#000000;stroke-width:1px;stroke-linecap:butt;stroke-linejoin:miter;stroke-opacity:1" />
      <path
         sodipodi:nodetypes="ccsssscccccscccccc"
         inkscape:connector-curvature="0"
         id="path3220"
         d="m 363.91483,291.99826 c -1.38708,3.62912 -3.44132,8.80553 -5.31981,14.63098 -2.91687,8.25127 -6.46297,15.74802 -7.98527,20.02692 -1.44137,4.05144 -4.67748,12.60369 -7.42462,17.97056 -2.9119,5.68876 -5.9572,12.0043 -8.54594,18.22056 -1.77948,4.27302 -6.37722,13.98536 -8.40686,18.20584 -2.08951,4.34498 -4.62508,11.63249 -6.94974,16.87438 2.50105,2.76847 5.44018,3.65734 7.72478,3.90524 1.58342,-4.18349 4.30134,-9.38543 5.26776,-12.24264 1.77084,-3.5386 4.80034,-9.80778 5.72488,-11.65686 1.58799,-3.46873 3.6313,-7.29328 5.12131,-11.19974 0.75304,-1.50607 2.70945,-5.44401 3.72488,-8.18198 0.98296,-2.65042 3.56777,-8.61754 4.4571,-11.28554 1.69731,-3.88756 3.63948,-7.06422 5.89645,-11.6967 1.81857,-3.63713 5.04289,-10.25564 6.29289,-13.87868 0.88232,-2.8371 4.1489,-8.78115 5.45711,-13.04289 2.14341,-5.00986 4.08289,-5.96279 4.5,-10.75 -2.8402,-2.43877 -7.51383,-4.92797 -9.53492,-5.89945 z"
         style="fill:#e3dbdb;fill-opacity:1;stroke:#000000;stroke-width:1px;stroke-linecap:butt;stroke-linejoin:miter;stroke-opacity:1" />
      <path
         sodipodi:nodetypes="cscscssccc"
         inkscape:connector-curvature="0"
         id="path4314"
         d="m 225.92062,579.30775 c 0.11785,-0.47141 -0.11785,-1.53207 0.35355,-1.41422 0.4714,0.11785 -0.69715,1.75781 -0.35355,1.41422 1.60608,-1.60609 1.15739,-3.40713 2.82842,-4.24264 0.36998,-0.18499 5.06409,0.41072 7.07107,0.70711 1.58205,-0.0929 3.13917,0.66429 5.65686,0.35355 0.51393,-0.0634 -0.70711,4.31347 -0.70711,4.59619 0,1.0127 0.0429,4.55332 -0.35356,4.94974 -0.21043,0.21044 -12.68507,-0.31065 -12.72792,-0.35355 -0.59727,-0.59727 -1.26353,-1.69243 -2.12132,-2.12132"
         style="fill:#e3dbdb;fill-opacity:1;stroke:#000000;stroke-width:1px;stroke-linecap:butt;stroke-linejoin:miter;stroke-opacity:1" />
      <path
         sodipodi:nodetypes="csssssscccsssccsccccc"
         inkscape:connector-curvature="0"
         id="path4164"
         d="m 229.68629,574.92284 c -5.71478,1.10739 -9.32065,0.0658 -11.68629,0.43934 -4.75,0.75 -11.06087,0.58092 -13.5,1 -4.22611,0.72611 -20.55381,1.5 -25,1.5 -7.34892,0 -17.20016,0.33752 -21.23223,0.93934 -3.42445,0.51112 -9.85006,0.92696 -13.26777,1.56066 -3.37162,0.62515 -13.76967,0.74339 -14.5,1 -3.56817,1.25373 -20.34926,0.99073 -28,3 l -9.12132,0.64645 c 0.678158,2.58301 -0.903357,8.09665 1,10 0.05094,0.051 3.252428,-0.2929 3.853553,-0.2929 9.090857,0 17.635677,-1.35355 25.267767,-1.35355 1.5416,0 8.60776,-1.13969 13.5,-1 4.37406,0.12489 13.51557,-1 19,-1.5 4.50562,0.004 10.31718,-0.57483 20.5,-2 6.52486,-0.22409 15.92456,-1 17.5,-1 4.66748,0 11.08021,-0.82563 14.72183,-1.14645 5.01808,0.39464 9.93541,-1.21669 13.55025,-1.14644 3.70617,0.0364 7,-0.5 7.5,-1 0.0777,-2.92806 0.76191,-7.32621 -0.0858,-9.64645 z"
         style="fill:#e3dbdb;fill-opacity:1;stroke:#000000;stroke-width:1px;stroke-linecap:butt;stroke-linejoin:miter;stroke-opacity:1" />
      <path
         sodipodi:nodetypes="cssssssssscssssc"
         inkscape:connector-curvature="0"
         id="path5263"
         d="m 576.29203,205.60181 c 1.87855,-0.9035 -1.3937,-3.88908 0.35355,-3.88908 1.98764,0 8.80879,7.39457 10.60661,9.19238 1.8873,1.88731 4.02193,2.60772 5.65685,4.24264 2.59223,2.59223 5.88343,5.88343 8.13173,8.13173 1.10758,1.10758 3.05355,1.63934 3.88909,2.47487 1.66874,1.66875 3.79479,3.44125 5.3033,4.94975 0.58614,0.58615 0.11161,5.54524 -0.35356,6.01041 -0.49728,0.49729 -4.75582,0.70711 -5.3033,0.70711 -0.71686,0 -2.12132,1.07041 -2.12132,0.35355 0,-0.23662 0.20697,-0.50013 -0.35355,-1.06066 -4.22734,-2.1022 -5.98746,-5.28035 -8.48529,-7.77817 -1.53131,-1.53131 -5.13905,-3.37129 -6.71751,-4.94975 -2.23331,-2.23331 -6.0386,-6.74571 -7.77818,-8.48528 -2.04055,-2.04055 -7.49887,-5.09825 -8.83883,-7.77817 -0.32059,-0.64119 5.83655,-1.42587 6.01041,-2.12133 z"
         style="fill:#e3dbdb;fill-opacity:1;stroke:#000000;stroke-width:1px;stroke-linecap:butt;stroke-linejoin:miter;stroke-opacity:1" />
      <path
         sodipodi:nodetypes="cssssc"
         inkscape:connector-curvature="0"
         id="path5291"
         d="m 608.11183,236.71451 c -2.12707,-1.73454 -9.84082,-9.48727 -14.84924,-14.49569 -1.56411,-1.5641 -3.7392,-2.32498 -5.3033,-3.88909 -1.83518,-1.83518 -3.94481,-3.9448 -5.65686,-5.65685 -0.85393,-0.85393 -1.13126,-2.54548 -2.12132,-3.53553 -0.88415,-0.88416 -3.92531,-3.57177 -4.24264,-3.88909"
         style="fill:none;stroke:#000000;stroke-width:1px;stroke-linecap:butt;stroke-linejoin:miter;stroke-opacity:1" />
    </g>
    <use
       x="0"
       y="0"
       xlink:href="#g5550"
       id="use5599"
       transform="translate(1170.9688,-79.195962)"
       width="744.09448"
       height="1052.3622"
       inkscape:export-filename="/home/substack/media/vector/crane.png"
       inkscape:export-xdpi="76.618698"
       inkscape:export-ydpi="76.618698" />
  </g>
</svg>
