<?xml version="1.0" encoding="UTF-8" standalone="no"?>
<!-- Created with Inkscape (http://www.inkscape.org/) -->

<svg
   xmlns:dc="http://purl.org/dc/elements/1.1/"
   xmlns:cc="http://creativecommons.org/ns#"
   xmlns:rdf="http://www.w3.org/1999/02/22-rdf-syntax-ns#"
   xmlns:svg="http://www.w3.org/2000/svg"
   xmlns="http://www.w3.org/2000/svg"
   xmlns:sodipodi="http://sodipodi.sourceforge.net/DTD/sodipodi-0.dtd"
   xmlns:inkscape="http://www.inkscape.org/namespaces/inkscape"
   width="744.09448819"
   height="1052.3622047"
   id="svg4362"
   version="1.1"
   inkscape:version="0.48.1 r9760"
   sodipodi:docname="New document 26">
  <defs
     id="defs4364" />
  <sodipodi:namedview
     id="base"
     pagecolor="#ffffff"
     bordercolor="#666666"
     borderopacity="1.0"
     inkscape:pageopacity="0.0"
     inkscape:pageshadow="2"
     inkscape:zoom="0.98994949"
     inkscape:cx="434.599"
     inkscape:cy="612.93403"
     inkscape:document-units="px"
     inkscape:current-layer="layer1"
     showgrid="false"
     inkscape:window-width="1364"
     inkscape:window-height="766"
     inkscape:window-x="0"
     inkscape:window-y="0"
     inkscape:window-maximized="0" />
  <metadata
     id="metadata4367">
    <rdf:RDF>
      <cc:Work
         rdf:about="">
        <dc:format>image/svg+xml</dc:format>
        <dc:type
           rdf:resource="http://purl.org/dc/dcmitype/StillImage" />
        <dc:title></dc:title>
      </cc:Work>
    </rdf:RDF>
  </metadata>
  <g
     inkscape:label="Layer 1"
     inkscape:groupmode="layer"
     id="layer1">
    <path
       style="fill:#ffff00;stroke:none"
       d="m 161.70445,580.90544 c 3.34415,1.07848 7.77834,-1.11111 11.11168,0 21.01199,7.004 72.91975,-1.42084 87.88327,6.06092 5.62263,2.81131 19.73493,-0.15604 26.26397,2.0203 5.68999,1.89667 15.84765,-1.67262 21.2132,1.01015 1.32976,0.66488 8.86483,2.13358 9.09137,2.02031 14.4607,-7.23035 36.13722,-10.80207 53.53809,-15.15229 6.18337,-1.54584 12.17403,-1.02755 18.18274,-3.03046 7.77658,-2.59219 17.18104,1.00804 25.25382,-1.01015 8.14063,-2.03516 28.71413,-4.18568 37.37564,-2.0203 7.09211,1.77302 31.39218,3.03045 34.34519,3.03045 8.60256,5.16154 21.0034,6.6709 30.30458,2.02031 1.32525,-0.66263 9.96309,-4.17905 8.08122,-6.06092 -1.17619,-1.17618 -5.58037,-1.5234 -7.07107,-2.0203 -4.20808,-1.4027 -7.61999,-3.92531 -12.12183,-5.05077 -5.21756,-1.30438 -10.98451,-0.72582 -16.16244,-2.0203 -1.14827,-0.28707 -19.72717,-0.47588 -16.16244,-4.04061 3.75774,-3.75774 9.98076,-8.24319 15.15228,-12.12183 2.61622,-1.96216 4.00685,-4.52881 7.07107,-6.06092 3.95949,-1.97974 7.29968,-4.52973 11.11168,-7.07106 20.60636,-13.73758 43.89722,-24.58916 63.63961,-39.39595 1.27078,-0.95309 13.13198,-7.29145 13.13198,-8.08122 0,-2.02031 -4.04061,0 -6.06091,0 -6.28253,0 -12.99259,-0.1244 -19.1929,-1.01016 -26.8058,-3.8294 -53.85247,-2.0203 -80.8122,-2.0203 -1.47824,0 -10.93431,1.18752 -12.12183,0 -2.29899,-2.29898 49.49747,-33.38379 49.49747,-43.43656 0,-3.53388 -52.04963,1.92464 -57.57869,3.03046 -2.3587,0.47174 -13.83942,2.72773 -13.13199,2.0203 6.37991,-6.3799 13.01825,-16.04871 20.20305,-23.23351 4.43147,-4.43146 11.03154,-8.03313 16.16244,-11.11167 15.45128,-9.27077 28.55326,-22.78882 44.44672,-32.32489 5.76674,-3.46004 10.42216,-9.25169 16.16244,-12.12183 0.6037,-0.30185 2.0203,0.66498 2.0203,-1.01015 0,-0.14 -4.68077,0.185 -5.05076,0 -3.05226,-1.52613 -7.50154,-2.0203 -11.11168,-2.0203 -21.74639,0 -44.50766,-0.18984 -65.65991,4.04061 -1.43166,0.28633 -14.81692,3.36583 -15.15229,3.03045 -5.22641,-5.2264 -0.64667,-49.82081 -6.06092,-52.52793 -7.94025,-3.97013 -39.97504,23.49715 -46.46701,29.29442 -3.53226,3.15427 -10.92666,7.2561 -11.11169,7.07108 -11.59001,-17.64232 -27.84368,-41.49614 -37.37564,-58.58886 -1.14363,11.24515 2.09917,10.48831 -3.03045,18.18275 -4.13627,6.20439 -5.36339,14.38247 -7.07107,21.2132 -2.12776,8.51101 -8.29101,19.00251 -13.13199,26.26397 -0.91491,1.37237 -7.8259,11.36699 -8.08122,11.11168 -2.94573,-2.94573 -9.4551,-6.78838 -12.12183,-12.12183 -4.42639,-8.85279 -7.178,-18.34315 -13.13198,-27.27413 -0.71777,-1.07664 -3.82949,-12.12183 -5.05076,-12.12183 -0.1787,0 -4.41259,13.55686 -5.05077,15.15229 -2.60298,6.50747 -2.84362,13.76848 -6.06091,20.20306 -5.09233,10.18466 -8.97068,20.28571 -12.12183,31.31473 -0.85011,2.97539 -3.67405,23.8771 -5.05076,25.25381 -1.2509,1.25089 -8.27142,-6.86115 -10.10153,-8.08122 -12.75504,-8.50336 -23.88625,-19.84564 -34.34519,-30.30458 -1.28218,-1.28218 -0.20702,-5.05076 -2.0203,-5.05076 -1.38179,0 6.26802,30.31726 7.07107,32.32488 6.56293,16.40733 8.33415,33.71524 13.13198,50.50763 0.47844,1.67452 6.85899,18.39482 6.06092,19.1929 -0.57373,0.57372 -8.24249,-4.82156 -10.10153,-6.06092 -8.56399,-5.70932 -43.65367,-21.2132 -52.52793,-21.2132 -1.07595,0 3.37035,5.39066 4.04061,6.06091 3.79503,3.79504 9.83269,12.05665 11.11167,17.1726 4.65576,18.623 14.75916,23.4574 22.22336,38.38579 3.59038,7.18076 7.6615,14.52271 12.12183,21.21321 1.64322,2.46483 5.05827,4.05561 6.06092,6.06091 0.47619,0.95238 -0.0546,3.03046 1.01015,3.03046 0.26074,0 -3.50754,-2.64465 -9.09137,-4.04061 -7.16382,-1.79095 -13.8684,-4.83678 -21.21321,-6.06091 -23.7113,-3.95189 -46.8978,-13.49222 -69.70052,-19.1929 -1.70882,-0.42721 -14.09948,-3.07312 -14.14214,-3.03046 -0.56877,0.56877 9.83174,11.21207 11.11168,13.13198 13.80606,20.7091 27.20086,43.70626 36.36549,66.67007 z"
       id="path6498"
       inkscape:connector-curvature="0"
       sodipodi:nodetypes="cssssssssscsssssssssssssssssssssssssscssccssscsssssssssssscssssssssssscsc" />
    <path
       style="fill:#784421;stroke:#000000;stroke-width:1px;stroke-linecap:butt;stroke-linejoin:miter;stroke-opacity:1"
       d="m 217.26284,544.28741 c -1.48791,1.42902 -2.80342,12.27483 -3.78807,18.18275 -0.72043,4.32255 -1.65784,9.06909 -3.283,13.13198 -1.8408,4.60199 -3.5546,9.65366 -5.05076,14.14213 -0.58728,1.76184 -0.66516,3.60318 -1.51523,5.30331 -0.18982,0.37964 -1.07356,3.78807 -0.25254,3.78807 0.39728,0 1.71422,0.4783 2.27285,0.75761 1.76413,0.88207 4.41175,-0.38647 5.80837,1.01015 0.0512,0.0512 0.91119,0.35151 1.01016,0.25254 1.73395,-1.73395 1.81257,-7.50282 2.52538,-10.35406 1.04342,-4.17368 2.06998,-8.37929 2.77792,-12.62691 0.64681,-3.88086 0.48163,-7.964 1.26269,-11.86929 0.69849,-3.49248 2.33139,-6.8587 3.03046,-10.35406 0.18439,-0.92198 3.42853,-10.96614 3.28299,-11.11168 -0.0942,-0.0942 -6.12333,0.92219 -8.08122,-0.25254 z"
       id="path6464"
       inkscape:connector-curvature="0" />
    <path
       style="fill:#784421;stroke:#000000;stroke-width:1px;stroke-linecap:butt;stroke-linejoin:miter;stroke-opacity:1"
       d="m 246.30473,545.29756 c 0.11022,8.71251 0.75761,17.63635 0.75761,26.51651 0,4.9998 0.25254,9.90327 0.25254,14.89975 0,3.39581 -0.50508,6.58239 -0.50508,9.84898 0,0.40041 -0.49362,6.06092 -0.25253,6.06092 0.69088,0 1.62341,-0.79368 2.27284,-1.01015 1.06276,-0.35426 2.3859,-0.25254 3.53553,-0.25254 1.44186,0 5.43544,0.87801 5.80838,0.50508 0.28146,-0.28146 -0.16503,-1.34023 -0.25254,-1.51523 -1.11314,-2.22629 -0.45131,-5.39454 -1.26269,-7.82869 -0.98441,-2.95322 -0.7447,-6.26179 -1.51523,-9.34391 -0.15465,-0.6186 0.20129,-1.41643 0,-2.0203 -0.54925,-1.64775 -0.093,-3.40235 -0.50507,-5.05076 -1.62036,-6.48144 -0.91788,-13.5205 -2.52538,-19.95052 -0.3625,-1.44997 -0.97173,-10.82071 -1.51523,-11.36421 -0.60215,-0.60215 -3.82838,0.31916 -4.29315,0.50507 z"
       id="path6466"
       inkscape:connector-curvature="0" />
    <path
       style="fill:#784421;stroke:#000000;stroke-width:1px;stroke-linecap:butt;stroke-linejoin:miter;stroke-opacity:1"
       d="m 275.09408,544.03487 c 2.23983,4.42188 2.77287,9.66885 4.79822,14.39468 0.80668,1.88226 1.80153,3.62557 2.52538,5.55583 0.86187,2.29831 2.38365,5.96814 2.77792,8.33376 0.44959,2.69756 0.48609,5.50836 1.51523,8.08122 1.08682,2.71705 2.07546,6.02902 2.77792,8.83884 0.10511,0.42045 3.50728,8.83883 2.52538,8.83883 -0.10331,0 0.86205,-0.43102 1.01015,-0.50507 1.48645,-0.74323 3.32298,0.86389 4.54569,0.25253 0.74262,-0.3713 1.36176,-0.60414 1.76777,-1.01015 0.11904,-0.11905 0.67343,0 0.50507,0 -0.61461,0 -3.58041,-6.19555 -4.04061,-7.57614 -0.9142,-2.7426 -2.01855,-6.05742 -3.28299,-8.5863 -0.78265,-1.56529 -0.71392,-5.46845 -1.26269,-6.56599 -1.45733,-2.91466 -2.18256,-6.54767 -3.283,-9.84899 -1.18345,-3.55034 -3.36021,-6.5451 -4.54569,-10.10152 -0.81809,-2.45429 -1.71381,-7.01712 -3.28299,-8.5863 -0.31748,-0.31748 0.0437,-1.72402 -0.25254,-2.0203 -0.33847,-0.33848 -1.50644,0.37441 -1.76777,0.50507 -0.79474,0.39737 -2.36905,-0.13228 -3.03045,0 z"
       id="path6468"
       inkscape:connector-curvature="0" />
    <path
       style="fill:#c87137;stroke:#000000;stroke-width:1px;stroke-linecap:butt;stroke-linejoin:miter;stroke-opacity:1"
       d="m 233.93036,535.95365 c -7.02306,0.50275 -18.07225,-0.18152 -23.99113,2.77792 -0.31838,0.15919 -0.92396,0.0832 -1.26269,0.25254 -0.72825,0.36412 -3.32535,3.24063 -2.27284,4.29314 0.31801,0.31801 0.81006,1.41519 1.51523,1.76777 1.19829,0.59915 2.51257,0.83753 3.78807,1.26269 2.21385,0.73795 4.33887,2.03555 6.56599,2.77792 4.42907,1.47636 21.00799,0.79182 25.75889,0 5.43691,-0.90615 13.04766,0.77448 18.18275,-0.25254 1.88766,-0.37753 3.96607,-0.0445 5.80837,-0.50507 6.0089,-1.50223 12.71692,-1.93905 17.93021,-4.54569 1.7042,-0.8521 2.84578,-4.22529 1.51523,-5.55584 -0.52787,-0.52787 -1.69668,-1.10088 -2.52538,-1.51523 -3.02036,-1.51018 -15.94448,-1.84042 -19.1929,-0.75761 -3.00386,1.00128 -7.00427,-0.52178 -10.10152,0.25254 -1.85233,0.46308 -4.57874,-0.91496 -6.566,-0.25254 -2.87513,0.95838 -12.07185,0.61608 -15.15228,0 z"
       id="path6462"
       inkscape:connector-curvature="0" />
    <path
       style="fill:#333333;fill-opacity:1;stroke:#000000;stroke-width:1px;stroke-linecap:butt;stroke-linejoin:miter;stroke-opacity:1"
       d="m 273.93142,536.80773 c 2.12124,0.36074 19.95679,0.0432 20.35714,-0.35715 0.31636,-0.31635 0.0945,-1.23966 0,-1.42857 -0.63843,-1.27686 1.29526,-4.06188 0.35714,-5 -0.0874,-0.0874 -2.71321,0.35715 -3.21428,0.35715 -3.68001,0 -7.08653,0.35714 -10.35714,0.35714 -4.14203,0 -21.98537,0.15749 -23.57143,-1.42857 -0.32558,-0.32558 -2.70274,0 -3.21429,0 -2.37212,0 -6.84093,0.0276 -8.92857,1.07143 -0.59649,0.29824 -8.0208,0 -9.28571,0 -4.10578,0 -14.87226,-1.55632 -17.5,1.07142 -1.2412,1.2412 -6.65121,0.0881 -7.50001,1.78572 -0.15057,0.30113 -1.42857,2.65596 -1.42857,2.5 0,-0.35714 0.71428,0 1.07143,0 1.38434,0 2.71576,-0.35714 3.92857,-0.35714 6.00696,0 11.59859,0.71428 17.5,0.71428 8.73488,0 17.34167,-0.35714 26.42858,-0.35714 0.73987,0 4.17201,-0.47084 4.64285,0 1.3841,1.38409 8.82093,1.82877 10.71429,1.07143 z"
       id="path6404"
       inkscape:connector-curvature="0" />
    <path
       style="fill:#333333;fill-opacity:1;stroke:#000000;stroke-width:1px;stroke-linecap:butt;stroke-linejoin:miter;stroke-opacity:1"
       d="m 190.71713,472.52201 c 1.50279,-0.348 13.89036,-1.10964 13.92857,-1.07143 0.9956,0.99561 1.2868,7.21647 2.14286,8.92858 1.53891,3.07783 1.96511,6.43022 3.57142,9.64285 1.11497,2.22994 0.60554,4.7825 1.78572,7.14286 0.93982,1.87964 0.47472,4.52087 1.42857,6.42857 0.90555,1.8111 0.22998,7.6028 1.07143,9.28572 0.76889,1.53778 2.85714,7.73897 2.85714,9.28571 0,1.74418 3.05761,12.65668 2.85715,12.85714 -1.7721,1.7721 -11.48504,-0.65782 -12.50001,0.35715 -0.50371,0.50371 -2.47981,-2.81677 -2.85714,-3.57143 -0.50495,-1.00991 -1.28076,-1.4901 -1.78571,-2.5 -1.83375,-3.6675 -3.57143,-11.64197 -3.57143,-15.71429 0,-1.8916 -0.93743,-5.58028 -1.78572,-6.42857 -0.63579,-0.6358 -0.61331,-6.3276 -1.07142,-6.78571 -0.74521,-0.74521 -2.34757,-7.39986 -2.85715,-8.92858 -0.68616,-2.0585 -0.46621,-4.861 -1.42857,-6.78571 -1.44884,-2.89768 -3.04882,-8.98509 -1.78571,-12.14286 z"
       id="path6400"
       inkscape:connector-curvature="0" />
    <path
       style="fill:#ffffff;stroke:#000000;stroke-width:0.99619728px;stroke-linecap:butt;stroke-linejoin:miter;stroke-opacity:1"
       d="m 423.7058,313.36623 c -1.64439,0.61679 -6.0362,0.54585 -7.02321,-0.9569 -0.25368,-0.38624 0.50631,-1.16865 0.55964,-1.4197 0.22648,-1.06632 0.17227,-5.61145 1.05507,-6.1825 0.20729,-0.1341 0.69028,-0.44653 0.89758,-0.58063 1.78005,-1.15146 4.81375,3.23229 3.5237,4.06678"
       id="path6321"
       inkscape:connector-curvature="0" />
    <path
       style="fill:#781414;fill-opacity:1;stroke:#000000;stroke-width:1px;stroke-linecap:butt;stroke-linejoin:miter;stroke-opacity:1"
       d="m 440.34213,313.07501 c -1.12201,0.054 -3.48835,1.1836 -4.09375,0.65625 -0.10917,-0.0951 -1.42471,-1.0713 -2.03125,-0.375 -0.11617,0.13337 0.59387,1.54814 0.625,2 l 0.46875,6.53125 c 0.3098,4.4965 -1.97436,8.11772 -1.6875,12.28125 0.68619,9.95968 -1.72518,29.37946 -5.03125,37.3125 -1.41681,3.39971 0.29206,8.36987 -1.78125,10.75 -0.4504,0.51705 0.46175,2.37318 0.1875,3.03125 -2.14276,5.14162 -0.79809,10.74139 -2.9375,15.875 -0.86484,2.07521 0.34969,5.0111 -0.53125,7.125 -0.52134,1.25097 0.83384,3.28027 0.3125,4.53125 -2.58508,6.20301 -1.02678,14.62022 -0.53125,21.8125 0.14609,2.12037 -0.29644,6.36116 -0.71875,10.0625 -3.11138,-4.88905 -3.3125,-9.65116 -3.3125,-15.78125 0,-0.47812 -1.00128,-6.5625 -1.5,-6.5625 -0.0712,0 -7.18453,10.21578 -9.59375,12.625 -10.80229,10.80229 -24.07155,30.21648 -41.9375,25.75 -2.6269,-0.65673 -5.59197,0.32351 -8.0625,-0.5 -5.16524,-1.72175 -10.84503,1.5419 -15.15625,-3.03125 -0.15711,1.9242 -0.0688,3.72722 0.1875,5.46875 -0.42046,0.12945 -0.75063,0.34121 -0.6875,0.59375 0.0421,0.16836 0.13657,0.22138 0.28125,0.21875 -0.27784,0.0735 -0.53272,0.15698 -0.78125,0.28125 -2.45095,1.22548 -6.38474,4.35348 -8.59375,6.5625 -6.34867,6.34866 -15.08987,7.77834 -22.21875,13.125 -4.52732,3.39549 -10.62157,4.69274 -15.15625,8.09375 -5.64358,4.23269 -13.65065,8.40438 -20.21875,10.59375 -3.58882,1.19627 -6.64582,4.41319 -10.09375,5.5625 -1.56863,0.52288 -5.44295,1.41171 -6.5625,2.53125 -1.73305,1.73306 -3.28032,2.64016 -6.0625,4.03125 -1.83401,0.91701 -9.55028,5.60597 -7.0625,8.09375 0.2662,0.2662 0.12353,1 0.5,1 0.7045,0 1.23787,-2.26911 1.5,-2.53125 2.95909,-2.95908 11.75033,-7.37517 17.1875,-10.09375 2.47974,-1.23987 10.28472,-2.19097 12.125,-4.03125 3.43492,-3.43493 12.69659,-6.13409 14.65625,-8.09375 3.81396,-3.81396 20.90915,-12.23582 26.75,-15.15625 4.67776,-2.33888 18.44185,-6.31685 20.71875,-8.59375 1.62201,-1.62201 4.31373,-2.55442 6.15625,-3.5625 1.19042,3.2101 2.52097,6.49014 3.4375,10.15625 0.6406,2.56241 0.86095,5.22189 2.03125,7.5625 4.43105,8.8621 3.84046,19.83715 8.0625,28.28125 0.46461,0.92921 2.32789,5.26586 2.03125,5.5625 -4.71788,4.71788 -6.62969,19.33387 -9.59375,26.25 -3.41392,7.96583 -4.96629,16.43134 -8.09375,24.25 -1.55038,3.87596 -1.80302,8.16853 -3.53125,11.625 -0.14822,0.29643 -0.42324,2.27063 -0.65625,3.46875 30.39133,5.39647 46.85635,-0.0387 69.64732,-0.55357 5.61659,-2.51818 40.51835,-0.47475 37.07143,-22.60268 1.45271,-2.90542 2.53125,-7.2344 2.53125,-10.625 0,-5.32699 2.94028,-10.88334 4.53125,-15.65625 0.69701,-2.09102 2.14328,-9.40095 1.03125,-11.625 -0.41649,-0.83299 -1.03125,-2.62331 -1.03125,-3.53125 0,-1.86211 -1.59044,-4.24338 -2.5,-6.0625 -0.49158,-0.98316 -1.28325,-7.8145 -1.53125,-8.0625 -1.21739,-1.2174 -7.43543,-19.27506 -8.59375,-22.75 -2.4427,-7.32811 -5.67563,-14.55815 -8.0625,-21.71875 -0.53283,-1.5985 -2.00339,-2.94769 -2.53125,-4.53125 -1.28787,-3.86362 -2.78368,-7.91742 -4.71875,-11.65625 1.16459,-10.54968 1.93203,-31.16773 3.1875,-44.15625 0.72599,-7.51073 1.68342,-15.07378 3,-22.46875 0.2004,-1.12562 -0.4504,-2.40562 -0.25,-3.53125 1.05433,-5.922 1.2797,-12.07386 2.3125,-17.875 1.24703,-7.00431 1.35628,-14.12651 3.125,-20.96875 0.19987,-0.77319 -0.38737,-1.75807 -0.1875,-2.53125 2.13019,-8.24063 1.61508,-16.74629 4.46875,-23.59375 0.28454,-0.68278 0.01,-0.8683 -0.5,-0.84375 z m -101,275.34375 -0.34375,0.0625 c 0,1.36547 0.15677,0.89891 0.34375,-0.0625 z"
       id="path5715"
       inkscape:connector-curvature="0"
       sodipodi:nodetypes="sccccsssssssscssssscccccssssssssscssssscssssssccccssssssssscssssssssccc" />
    <path
       style="fill:#784421;stroke:#000000;stroke-width:1px;stroke-linecap:butt;stroke-linejoin:miter;stroke-opacity:1"
       d="m 383.24838,358.98126 c -4.12645,-0.13684 -8.28898,0.39449 -10.9375,1.71875 -1.0775,0.53874 -2.95376,-0.53875 -4.03125,0 -4.88372,2.44185 -25.85599,1.60598 -28.28125,4.03125 -5.26068,5.26067 -19.33975,9.867 -23.25,17.6875 -0.86115,1.72231 -1.93324,4.46449 -3.03125,5.5625 -2.15569,2.15569 0.9327,34.2452 2.53125,35.84375 2.48388,2.48388 4.98252,5.96735 9.0625,7.84375 -0.31238,-0.60847 -0.66028,-1.16431 -0.96875,-1.78125 -1.68308,-3.36617 -2.90489,-7.27851 -4.5625,-10.59375 -0.23602,-0.47202 -0.7776,-4.60245 -1.25,-8.625 -0.4724,-4.02255 -0.85531,-7.95719 -0.75,-8.0625 0.33672,-0.33671 0.41582,-0.91074 0.5,-1.5 0.0842,-0.58926 0.16328,-1.19454 0.5,-1.53125 0.34708,-0.34708 0.98667,-0.48692 1.53125,-0.65625 0.27229,-0.0847 0.50498,-0.17866 0.6875,-0.3125 0.18252,-0.13384 0.3125,-0.28583 0.3125,-0.53125 0,-0.85847 -0.33164,-1.68946 -0.5,-2.53125 -0.0217,-0.48557 0.007,-1.52998 0.46875,-2.875 0.23083,-0.67251 0.5673,-1.42399 1.0625,-2.21875 0.4952,-0.79476 1.14475,-1.61349 2,-2.46875 0.47178,-0.47178 0.52822,-2.05947 1,-2.53125 1.24183,-1.24182 2.78119,-2.9738 4.4375,-4.59375 0.82815,-0.80997 1.69474,-1.58925 2.5625,-2.28125 0.86776,-0.692 1.72905,-1.2864 2.59375,-1.71875 1.86478,-0.93239 3.90238,-1.64026 6.03125,-2.21875 2.12887,-0.57849 4.34862,-1.01936 6.59375,-1.4375 2.24513,-0.41814 4.53644,-0.82993 6.75,-1.28125 2.21356,-0.45132 4.37209,-0.94694 6.40625,-1.625 1.1085,-0.3695 2.29571,-0.54493 3.53125,-0.59375 1.23554,-0.0488 2.50386,0.0355 3.78125,0.0937 1.27739,0.0582 2.54719,0.11083 3.78125,0.0625 1.23406,-0.0483 2.42571,-0.19399 3.53125,-0.5625 0.87471,-0.29157 1.88539,-0.53919 2.96875,-0.6875 1.08336,-0.14831 2.2477,-0.20308 3.46875,-0.21875 2.4421,-0.0313 5.08914,0.18953 7.65625,0.625 2.56711,0.43547 5.06305,1.08896 7.1875,1.90625 1.06222,0.40864 2.02988,0.85559 2.875,1.34375 0.84512,0.48816 1.56794,1.00544 2.125,1.5625 1.29909,1.29909 2.53846,2.71732 3.71875,4.21875 1.18029,1.50143 2.29381,3.08359 3.375,4.75 2.16239,3.33282 4.147,6.95025 6.03125,10.71875 0.85042,1.70085 1.50104,3.76218 2.25,5.6875 0.37448,0.96266 0.7652,1.87722 1.21875,2.71875 0.45355,0.84153 0.99151,1.61651 1.59375,2.21875 0.37898,0.37898 0.58247,0.90358 0.71875,1.53125 0.13628,0.62767 0.18555,1.3644 0.21875,2.09375 0.0332,0.72935 0.0553,1.47223 0.125,2.15625 0.0697,0.68402 0.19166,1.28956 0.4375,1.78125 0.25553,0.51105 0.36884,1.19096 0.375,2 0.006,0.80904 -0.0921,1.76145 -0.28125,2.78125 -0.37832,2.03959 -1.10213,4.39075 -1.9375,6.75 -0.48558,1.37137 -0.85048,1.95704 -1.375,3.25 2.36914,-0.181 6.55371,-2.85254 6.25,-3.15625 -0.64109,-0.64109 0.35891,-1.89016 1,-2.53125 0.40034,-0.40034 1.72596,-6.98318 2.53125,-8.59375 0.31766,-0.63532 0.4347,-7.1278 0,-7.5625 -3.04539,-3.04539 -5.46689,-18.59189 -6.0625,-19.1875 -4.02293,-4.02293 -5.9938,-11.05629 -10.09375,-15.15625 -4.12111,-4.1211 -11.72849,-5.166 -15.65625,-9.09375 -0.32037,-0.32037 -1.61073,0.21026 -2.03125,0 -2.56396,-1.28198 -6.6548,-2.08191 -10.78125,-2.21875 z"
       id="path5666"
       inkscape:connector-curvature="0" />
    <path
       style="fill:#ffffff;stroke:#000000;stroke-width:1px;stroke-linecap:butt;stroke-linejoin:miter;stroke-opacity:1"
       d="m 320.80348,395.54245 c -0.0433,-0.97113 0.11451,-4.15512 3.53553,-7.57615 0.47178,-0.47178 0.53837,-2.0536 1.01015,-2.52538 2.48365,-2.48364 6.13765,-6.8569 9.59645,-8.5863 7.45914,-3.72956 17.62225,-3.85377 25.75889,-6.56599 4.43401,-1.478 10.22506,0.4639 14.64722,-1.01015 6.99767,-2.33256 21.80751,0.0892 26.26396,4.54569 5.19635,5.19635 9.36348,12.16096 13.13199,19.69797 1.70085,3.4017 2.64179,8.19764 5.05076,10.6066 1.51592,1.51593 0.53185,5.60939 1.51523,7.57615 2.04421,4.08843 -4.75579,19.10802 -6.56599,22.72843 -2.82953,5.65905 -8.29587,22.83576 -13.13199,25.25381 -3.26968,1.63484 -6.98056,3.23774 -10.6066,5.05077 -3.01301,1.5065 -17.94625,2.52538 -22.22336,2.52538 -0.78305,0 -2.49892,1.03661 -3.03045,0.50507 -0.99729,-0.99728 -9.20486,-1.31943 -11.61676,-2.52538 -1.80686,-0.90343 -5.07257,-0.52689 -6.56599,-2.0203 -9.75564,-9.75564 -16.88639,-20.64079 -23.23351,-33.33504 -1.68308,-3.36617 -2.88807,-7.29136 -4.54568,-10.6066 -0.47203,-0.94404 -2.23093,-16.45689 -2.02031,-16.66752 0.67344,-0.67343 0.33672,-2.35702 1.01015,-3.03045 0.69416,-0.69416 2.52538,-0.53354 2.52538,-1.51523 0,-0.85847 -0.33671,-1.68359 -0.50507,-2.52538 z"
       id="path5539"
       inkscape:connector-curvature="0" />
    <path
       style="fill:#ffffff;stroke:#000000;stroke-width:1px;stroke-linecap:butt;stroke-linejoin:miter;stroke-opacity:1"
       d="m 318.45667,380.44617 c -0.67344,0 -3.09174,1.07143 -3.09174,1.07143 -8.18993,2.02827 -12.24948,18.12649 -0.62237,23.11622 1.57811,0.52604 2.95115,0.61152 4.54569,1.01015 2.70099,0.67525 6.02065,0.85522 8.5863,0 1.68672,-0.56224 3.29172,-2.28157 4.54568,-3.53553 8.21591,-8.21591 -1.35594,-18.97144 -9.59645,-21.71828 z"
       id="path5558"
       inkscape:connector-curvature="0"
       sodipodi:nodetypes="cccssscc" />
    <path
       style="fill:#ffffff;stroke:#000000;stroke-width:1px;stroke-linecap:butt;stroke-linejoin:miter;stroke-opacity:1"
       d="m 394.46322,359.56474 c -1.42879,-0.65491 -4.4682,0.14586 -5.35189,0.53571 -12.13984,5.35564 -8.08202,23.35958 5.55584,26.76904 2.83755,0.70939 5.15289,1.74224 8.08122,1.01016 10.15612,-2.53903 6.84111,-17.40256 1.51523,-22.72844 -0.61556,-0.61556 -0.60941,-1.56739 -1.51523,-2.0203 -3.54789,-1.77395 -3.89159,-2.68745 -8.28517,-3.56617 z"
       id="path5560"
       inkscape:connector-curvature="0"
       sodipodi:nodetypes="csssssc" />
    <path
       style="fill:#000000;stroke:#000000;stroke-width:1px;stroke-linecap:butt;stroke-linejoin:miter;stroke-opacity:1"
       d="m 399.59538,370.28864 c -0.67344,0 -2.02031,0.67343 -2.02031,0 0,-0.67344 2.32148,-0.60234 2.02031,0 -0.40547,0.81092 -1.74795,0.54369 -2.52538,1.01015 -1.70503,1.02302 6.18316,5.08615 2.52538,-1.01015 z"
       id="path5595"
       inkscape:connector-curvature="0" />
    <path
       style="fill:#000000;stroke:#000000;stroke-width:1px;stroke-linecap:butt;stroke-linejoin:miter;stroke-opacity:1"
       d="m 316.76287,388.97645 c -5.93931,1.45437 4.14482,6.90804 0,0 z"
       id="path5597"
       inkscape:connector-curvature="0" />
    <path
       style="fill:#000000;stroke:#000000;stroke-width:1.05987513px;stroke-linecap:butt;stroke-linejoin:miter;stroke-opacity:1"
       d="m 380.28375,389.11141 c -4.12068,0.21384 -7.45415,0.54607 -7.8321,0.90987 -1.84302,1.77402 -15.83764,4.99024 -19.64778,6.82399 -7.37113,3.54758 -15.31078,9.97371 -16.37315,11.53579 0.0877,0.0676 0.3268,0.26712 0.43887,0.35744 -2.21853,2.99286 3.53615,8.18056 7.76459,12.25069 0.81016,0.77982 0.81028,2.89213 1.62043,3.67196 5.62141,5.41094 2.97376,16.42311 3.94981,22.68164 -0.45897,1.74493 -0.79668,3.28865 -0.87773,4.45184 4.73621,2.06734 13.8398,5.45988 19.31018,2.82708 1.17356,-0.56481 1.93686,0.21535 2.73449,-0.55242 1.21282,-1.16741 5.20374,-0.26463 6.54926,-1.55977 1.04223,-1.0032 8.21935,-2.12749 9.82388,-3.67195 1.19246,-1.14782 5.73078,-0.46152 8.00091,-0.38995 0.98288,-4.56346 1.89954,-9.22634 0.70894,-13.81045 -1.47213,-5.66804 -1.68995,-11.48224 -2.70073,-17.31994 -1.70357,-9.83877 -8.55058,-19.03058 -13.46987,-28.20582 z"
       id="path5599"
       inkscape:connector-curvature="0" />
    <path
       style="fill:#ffffff;stroke:#000000;stroke-width:1px;stroke-linecap:butt;stroke-linejoin:miter;stroke-opacity:1"
       d="m 353.63344,444.02977 c 0.77168,1.62807 7.24808,3.03046 13.63706,3.03046 6.46027,0 17.83305,-2.68076 21.2132,-6.06092 1.13892,-1.13892 2.68837,-5.13226 4.54569,-6.06092 0.71798,-0.35899 -0.11322,3.3091 0.50508,4.54569 0.45995,0.91991 2.2867,6.29959 1.51522,7.07107 -0.76314,0.76314 -4.48638,-3.59484 -6.06091,-2.02031 -5.84887,5.84887 -30.73046,12.78531 -35.86042,2.52539 -0.45798,-0.91598 0.50508,-2.00638 0.50508,-3.03046 z"
       id="path5649"
       inkscape:connector-curvature="0" />
    <path
       style="fill:#ffffff;stroke:#000000;stroke-width:1px;stroke-linecap:butt;stroke-linejoin:miter;stroke-opacity:1"
       d="m 338.98623,407.1592 c 0.85235,-2.29958 5.3964,-3.96089 12.6269,-7.57614 3.2636,-1.6318 6.88503,-2.43236 10.10153,-4.04061 2.33157,-1.16579 15.4307,-7.29773 17.67767,-5.05076 1.10232,1.10232 1.25791,2.77313 2.0203,3.53553 0.22192,0.22192 1.51523,1.81903 1.51523,2.02031 0,0.33671 -0.67343,0 -1.01015,0 -2.73062,0 -16.88062,2.73848 -17.67767,3.53553 -1.02021,1.02021 -14.1169,5.54322 -17.17259,7.07107 -3.20221,1.6011 -5.70392,5.91283 -6.06092,5.55584 -1.09542,-1.09543 -1.5584,-2.74123 -2.0203,-5.05077 z"
       id="path5664"
       inkscape:connector-curvature="0" />
    <path
       style="fill:#784421;fill-opacity:1;stroke:#000000;stroke-width:1px;stroke-linecap:butt;stroke-linejoin:miter;stroke-opacity:1"
       d="m 339.46713,454.01251 c 0.43178,0.54363 0.80687,1.11968 1.25,1.65625 2.13957,2.59072 4.40484,5.12359 6.84375,7.5625 0.37336,0.37335 0.86185,0.62367 1.40625,0.8125 0.5444,0.18883 1.16677,0.30352 1.78125,0.40625 1.22896,0.20547 2.47157,0.32954 3.375,0.78125 0.60298,0.30149 1.59453,0.56588 2.71875,0.78125 1.12422,0.21537 2.38598,0.38453 3.625,0.5625 1.23902,0.17797 2.45886,0.37321 3.40625,0.5625 0.94739,0.18929 1.62568,0.37568 1.875,0.625 0.26576,0.26577 0.84421,0.13021 1.4375,-0.0625 0.59329,-0.19271 1.20222,-0.4375 1.59375,-0.4375 2.13855,0 6.94918,-0.24447 11.59375,-0.6875 2.32229,-0.22152 4.60947,-0.50513 6.5,-0.8125 1.89053,-0.30737 3.37175,-0.65463 4.125,-1.03125 3.62604,-1.81303 7.35532,-3.39641 10.625,-5.03125 0.60451,-0.30226 1.22592,-0.85036 1.84375,-1.5625 0.61783,-0.71214 1.22537,-1.60561 1.84375,-2.625 1.23676,-2.03878 2.4626,-4.59809 3.625,-7.25 2.32479,-5.30382 4.39774,-11.01423 5.8125,-13.84375 0.10644,-0.21289 0.42436,-1.02533 0.5625,-1.3125 -0.4629,0.27496 -0.87705,0.62705 -1.0625,0.8125 -1.32842,1.32843 -4.10583,2.07457 -5.0625,3.03125 -1.67416,1.67415 -2.17644,5.23893 -4.03125,7.09375 -1.01236,1.01235 -1.46015,3.46015 -2.53125,4.53125 l -9.59375,9.59375 c -2.24572,2.24572 -7.47866,1.47371 -10.59375,3.03125 -6.48829,3.24415 -24.44148,2.87102 -28.8125,-1.5 -0.37287,-0.37287 -6.18758,-1.15633 -7.0625,-2.03125 -1.10232,-1.10232 -1.76886,-2.26885 -2.53125,-3.03125 -0.67164,-0.67164 -2.72644,-0.69864 -4.5625,-0.625 z"
       id="path5695"
       inkscape:connector-curvature="0" />
    <path
       style="fill:#774421;fill-opacity:1;stroke:#000000;stroke-width:1px;stroke-linecap:butt;stroke-linejoin:miter;stroke-opacity:1"
       d="m 339.99637,399.58306 c 0.67344,-0.50507 1.51523,-2.18866 2.02031,-1.51523 0.50507,0.67344 -2.61555,2.11047 -2.02031,1.51523 3.04239,-3.04239 7.30231,-5.67146 11.11168,-7.57614 1.59302,-0.79651 13.35789,-3.76144 13.63706,-4.04061 0.12419,-0.1242 6.56599,-0.95914 6.56599,-0.50508 0,1.92934 -6.25276,2.21215 -7.07107,3.03046 -0.57223,0.57224 -21.59901,8.56244 -24.24366,9.09137 z"
       id="path5713"
       inkscape:connector-curvature="0" />
    <path
       style="fill:#ffffff;stroke:#000000;stroke-width:1px;stroke-linecap:butt;stroke-linejoin:miter;stroke-opacity:1"
       d="m 427.8957,318.32248 c -2.22435,0.10205 -8.61179,-0.95796 -8.25,-2.125 0.0428,-0.13797 0.15633,-0.26654 0.40625,-0.40625 0.7064,-0.39488 4.61336,-1.22919 7.875,-1.4375 -0.12779,-0.24937 -0.22619,-0.44513 -0.34375,-0.6875 -2.36083,0.0288 -6.38908,0.23592 -6.84375,-0.21875 -0.68871,-0.68871 -0.75,-1.58307 -0.75,-2.78125 0,-0.80552 -0.42504,-1.18117 0,-2.03125 0.34547,-0.69095 -0.0579,-2.22334 0.5,-2.78125 0.25254,-0.25254 0.24746,-0.74746 0.5,-1 0.31563,-0.31563 1.5608,0.25 2.03125,0.25 0.42089,0 1.25,0.4209 1.25,0 0,-0.18823 0.39815,-0.3831 0.53125,-0.25 0.15428,0.15428 1.64364,0.57182 2.5,1 0.0444,0.0222 0.13629,0.0668 0.1875,0.0937 0.0416,-0.042 0.0806,-0.0817 0.125,-0.0937 0.40793,-0.1106 0.82975,-0.12025 1.25,-0.15625 -0.053,-0.16694 0.83914,-1.04282 1.0625,-0.75 0.0638,0.0837 0.0874,0.11997 0.0312,0.1875 0.17351,-0.12268 0.37274,-0.22797 0.5625,-0.3125 0.49832,-0.22198 4.09925,0.0331 4.5,0.75 0.79552,1.42309 4.25953,2.48963 5.15625,4.09375 0.57257,1.02425 0.4772,4.01158 -0.84375,4.75 -0.42358,0.23679 -1.27525,2.15834 -1.71875,2.40625 -0.92223,0.51555 -2.33294,0.69233 -3.21875,1.1875 -0.24882,0.1391 -0.89649,-0.3991 -1.1875,-0.34375 -1.02931,0.19581 -1.89593,0.0723 -2.59375,-0.25 -0.57878,0.15336 -1.34185,0.3784 -2.0625,0.78125 -0.11603,0.0649 -0.33849,0.11042 -0.65625,0.125 z m 1.0625,-12.625 c 0.26343,-0.0501 0.49354,-0.19096 0.71875,-0.34375 -0.24107,0.11771 -0.55142,0.21612 -0.71875,0.34375 z"
       id="path6257"
       inkscape:connector-curvature="0" />
    <path
       style="fill:#ffffff;stroke:#000000;stroke-width:1px;stroke-linecap:butt;stroke-linejoin:miter;stroke-opacity:1"
       d="m 430.59629,313.44438 c 1.07408,0.53703 -1.76388,10e-4 -2.52538,-0.25254 -0.77614,-0.25874 -3.50596,0.28211 -4.04061,-0.25254 -0.41834,-0.41834 -0.30956,-1.65373 0,-2.27284 0.47687,-0.95384 -0.61458,-1.40573 0.50507,-2.52538 0.24543,-0.24543 0.0842,1.09433 -0.25253,1.01015 -0.33672,-0.0842 0.16833,-0.67344 0.25253,-1.01015 0.20584,-2.49355 2.6439,-4.56119 4.04062,-1.76777 0.33052,0.66105 -0.50508,2.47303 -0.50508,3.28299"
       id="path6291"
       inkscape:connector-curvature="0" />
    <path
       style="fill:#ffffff;stroke:#000000;stroke-width:1px;stroke-linecap:butt;stroke-linejoin:miter;stroke-opacity:1"
       d="m 433.62675,304.85966 c -1.2441,-0.21747 -4.99132,-0.37143 -5.55584,0.75761 -0.93593,1.87185 0.0389,6.60488 1.01015,7.57615 2.31646,2.31645 4.18648,-2.12697 2.77792,-3.53554"
       id="path6306"
       inkscape:connector-curvature="0" />
    <path
       style="fill:#333333;stroke:#000000;stroke-width:1px;stroke-linecap:butt;stroke-linejoin:miter;stroke-opacity:1"
       d="m 205.35999,536.80772 c -0.0622,-0.6594 -0.19613,-1.58959 1.42857,-3.21428 0.50517,-0.50518 11.40303,-0.22958 12.85715,-0.71429 2.31668,-0.77222 7.39249,0.23233 9.28571,-0.71428 2.07357,-1.03679 4.93419,0.37908 7.14286,-0.35715 6.22841,-2.07613 16.69209,0.35715 23.21428,0.35715 1.41792,0 16.07143,0.68151 16.07143,0.71428 0,0.59032 0.35714,3.48123 0.35714,4.64286 0,0.35714 -0.71428,0 -1.07142,0 -1.42858,0 -2.85715,0 -4.28572,0 -3.21428,0 -6.42857,0 -9.64286,0 -7.82971,0 -14.31739,1.07143 -22.14285,1.07143 -1.80481,0 -11.86852,-0.67288 -12.5,-0.35714 -2.01674,1.00836 -10.98673,0.71428 -13.57144,0.71428 -0.14745,0 -1.62774,0.87226 -2.14285,0.35714 -1.17763,-1.17762 -2.8468,-1.20807 -5,-2.5 z"
       id="path6381"
       inkscape:connector-curvature="0" />
    <path
       style="fill:#ffffff;stroke:#000000;stroke-width:1px;stroke-linecap:butt;stroke-linejoin:miter;stroke-opacity:1"
       d="m 248.57427,517.87915 c -0.62696,-1.41996 -8.89516,5.7477 -6.07142,8.57144 0.0412,0.0412 -0.34198,3.22945 1.42857,5 0.17821,0.1782 1.50607,0 1.78571,0 3.2895,0 6.98364,0.35714 9.64286,0.35714 0.16836,0 -0.23809,-0.23809 -0.35714,-0.35714 -0.10546,-0.10546 -0.2375,-1.54643 -0.35714,-1.78572 -0.26333,-0.52665 0.0305,-2.11239 -0.35715,-2.5 -1.21803,-1.21803 -2.26611,-6.55183 -3.57142,-7.85714 z"
       id="path6398"
       inkscape:connector-curvature="0"
       sodipodi:nodetypes="cscssscccc" />
    <path
       style="fill:#333333;stroke:#000000;stroke-width:1px;stroke-linecap:butt;stroke-linejoin:miter;stroke-opacity:1"
       d="m 206.59141,538.31905 c -1.49103,-0.26596 -4.89366,-5.28806 -6.22422,-11.02104 -0.26871,-1.156 -0.40401,-3.99345 -1.13036,-4.87056 -1.23657,-1.49309 -2.15205,-4.86282 -1.96275,-6.87717 0.17342,-1.84537 -2.01697,-7.1108 -2.52795,-9.31244 -1.7755,-7.65022 -3.56833,-15.37484 -5.40977,-23.30904 -0.25575,-1.1026 -0.24268,-5.80512 -1.10548,-6.34287 -0.0668,-0.0416 -0.92552,-0.42482 -0.59012,-0.96294 0.40072,-0.64296 -0.69879,-2.22095 -0.29805,-2.86392 0.3009,-0.48278 1.71584,-0.0316 2.16812,-0.13655 0.4424,-0.10301 2.43616,-0.86222 2.78317,-0.64593 1.04361,0.65044 1.62892,7.01846 1.93779,8.34952 0.59552,2.56598 1.91151,5.0767 2.55287,7.84011 0.28299,1.21944 -0.0299,3.71989 0.70176,4.6034 0.37183,0.44896 1.0935,1.60304 0.9131,2.35453 -0.24918,1.03805 2.88349,16.75304 3.76999,17.82343 1.28524,1.55186 7.78041,22.37011 7.23,23.25322 -0.8114,1.30187 -0.34746,2.04281 -2.80809,2.11827 z"
       id="path6396"
       inkscape:connector-curvature="0" />
    <path
       style="fill:#1a1a1a;stroke:#000000;stroke-width:1px;stroke-linecap:butt;stroke-linejoin:miter;stroke-opacity:1"
       d="m 195.71713,475.02202 c 0.58298,-0.22753 7.47379,-1.09764 7.5,-1.07143 0.88124,0.88124 0.0747,4.36039 1.07143,5.35714 2.52701,2.52702 4.01432,18.02865 6.42857,22.85714 0.6303,1.26061 -0.27316,3.38225 0.35714,4.64286 2.43375,4.8675 1.81448,11.84326 4.28572,16.78571 0.68325,1.3665 -0.3199,3.64592 0.35714,5 0.31736,0.63472 1.07143,2.19985 1.07143,2.5 0,0.8418 -1.6582,-0.35714 -2.5,-0.35714 -1.19325,0 -4.82011,0.1799 -5,0 -0.29762,-0.29762 0.29762,-1.48809 0,-1.78571 -1.47565,-1.47565 -3.30108,-9.72965 -4.64286,-11.07143 -0.70406,-0.70406 -0.26041,-3.02081 -0.71429,-3.92857 -2.15026,-4.30054 -3.30767,-18.66482 -5,-20.35715 -1.01087,-1.01087 0.0162,-4.61054 -0.71428,-6.07142 -0.95384,-1.90767 -2.91607,-10.41969 -2.5,-12.5 z"
       id="path6402"
       inkscape:connector-curvature="0" />
    <path
       style="fill:none;stroke:#000000;stroke-width:1px;stroke-linecap:butt;stroke-linejoin:miter;stroke-opacity:1"
       d="m 273.93142,533.2363 c 7.56449,-0.38521 14.21541,-3.21429 21.42857,-3.21429"
       id="path6406"
       inkscape:connector-curvature="0" />
    <path
       style="fill:#ffffff;stroke:#000000;stroke-width:1px;stroke-linecap:butt;stroke-linejoin:miter;stroke-opacity:1"
       d="m 252.50285,522.87916 c 0.23809,0.47619 1.19047,1.19047 0.71428,1.42857 -0.47619,0.23809 -1.09074,-1.80504 -0.71428,-1.42857 3.75986,6.26644 -0.0733,1.03478 1.42857,1.78571 0.79113,0.39556 0.62427,1.33855 1.07143,1.78571 2.98652,2.98653 -9.30683,8.20373 -12.14286,6.78572 -3.26213,-1.63107 2.36163,-3.07592 3.21429,-3.92857 0.47121,-0.47121 1.3128,-1.78572 2.14285,-1.78572"
       id="path6434"
       inkscape:connector-curvature="0" />
    <path
       style="fill:none;stroke:#000000;stroke-width:4;stroke-linecap:round;stroke-linejoin:round;stroke-miterlimit:4;stroke-opacity:1;stroke-dasharray:none"
       d="m 395.95882,262.30333 c 4.0918,-3.1189 7.04477,-26.26397 10.10153,-26.26397 2.55044,0 6.43013,21.95164 8.08122,25.25381"
       id="path6567"
       inkscape:connector-curvature="0" />
    <path
       style="fill:none;stroke:#000000;stroke-width:4;stroke-linecap:round;stroke-linejoin:round;stroke-miterlimit:4;stroke-opacity:1;stroke-dasharray:none"
       d="m 398.98928,253.21195 c 3.74046,-0.8471 6.98108,0 11.11168,0"
       id="path6569"
       inkscape:connector-curvature="0" />
    <path
       style="fill:none;stroke:#000000;stroke-width:4;stroke-linecap:round;stroke-linejoin:round;stroke-miterlimit:4;stroke-opacity:1;stroke-dasharray:none"
       d="m 423.23294,237.04951 c 0.56695,3.4188 -1.81856,25.25382 0,25.25382 3.57493,0 4.76415,-2.16362 7.07107,-1.01016"
       id="path6571"
       inkscape:connector-curvature="0" />
    <path
       style="fill:none;stroke:#000000;stroke-width:4;stroke-linecap:round;stroke-linejoin:round;stroke-miterlimit:4;stroke-opacity:1;stroke-dasharray:none"
       d="m 441.41569,240.07997 c -0.97286,2.26755 -1.21755,22.01596 -1.01016,22.22336 1.30603,1.30603 11.04509,-2.02031 13.13199,-2.02031"
       id="path6583"
       inkscape:connector-curvature="0" />
    <path
       style="fill:none;stroke:#000000;stroke-width:4;stroke-linecap:round;stroke-linejoin:round;stroke-miterlimit:4;stroke-opacity:1;stroke-dasharray:none"
       d="m 387.8776,272.23153 c 11.23478,-1.69638 70.59667,-5.16477 73.74114,-2.0203"
       id="path6585"
       inkscape:connector-curvature="0" />
    <path
       style="fill:none;stroke:#000000;stroke-width:4;stroke-linecap:round;stroke-linejoin:round;stroke-miterlimit:4;stroke-opacity:1;stroke-dasharray:none"
       d="m 489.90301,242.10027 c -2.23882,6.69837 1.01015,13.67846 1.01015,20.20306"
       id="path6587"
       inkscape:connector-curvature="0" />
    <path
       style="fill:none;stroke:#000000;stroke-width:4;stroke-linecap:round;stroke-linejoin:round;stroke-miterlimit:4;stroke-opacity:1;stroke-dasharray:none"
       d="m 477.78118,240.07997 c 5.68413,-0.0944 21.00704,-4.24677 24.24366,-1.01015"
       id="path6589"
       inkscape:connector-curvature="0" />
    <path
       style="fill:none;stroke:#000000;stroke-width:4;stroke-linecap:round;stroke-linejoin:round;stroke-miterlimit:4;stroke-opacity:1;stroke-dasharray:none"
       d="m 512.12636,240.07997 c -2.91516,7.09556 1.01016,15.52841 1.01016,21.2132"
       id="path6591"
       inkscape:connector-curvature="0" />
    <path
       style="fill:none;stroke:#000000;stroke-width:4;stroke-linecap:round;stroke-linejoin:round;stroke-miterlimit:4;stroke-opacity:1;stroke-dasharray:none"
       d="m 514.14667,251.19165 c 3.32674,-1.29044 6.64354,-1.01016 10.10152,-1.01016"
       id="path6593"
       inkscape:connector-curvature="0" />
    <path
       style="fill:none;stroke:#000000;stroke-width:4;stroke-linecap:round;stroke-linejoin:round;stroke-miterlimit:4;stroke-opacity:1;stroke-dasharray:none"
       d="m 526.2685,239.06982 c 0.24433,5.85896 -0.441,15.72144 3.03046,19.1929"
       id="path6595"
       inkscape:connector-curvature="0" />
    <path
       style="fill:none;stroke:#000000;stroke-width:4;stroke-linecap:round;stroke-linejoin:round;stroke-miterlimit:4;stroke-opacity:1;stroke-dasharray:none"
       d="m 557.58323,235.02921 c -2.63783,0.91843 -12.12947,-1.00252 -14.14214,1.01015 -2.29929,2.29929 1.06504,12.96734 0,16.16244 -0.47289,1.41869 -2.00188,3.0673 -1.01015,5.05076 1.06856,2.13712 0.4593,7.53037 2.0203,9.09138 1.09378,1.09377 13.76213,-2.84046 8.08122,0"
       id="path6597"
       inkscape:connector-curvature="0" />
    <path
       style="fill:none;stroke:#000000;stroke-width:4;stroke-linecap:round;stroke-linejoin:round;stroke-miterlimit:4;stroke-opacity:1;stroke-dasharray:none"
       d="m 544.45124,253.21195 c 3.25022,-2.36912 5.52786,-2.0203 9.09138,-2.0203"
       id="path6599"
       inkscape:connector-curvature="0" />
    <path
       style="fill:none;stroke:#000000;stroke-width:4;stroke-linecap:round;stroke-linejoin:round;stroke-miterlimit:4;stroke-opacity:1;stroke-dasharray:none"
       d="m 159.3522,287.89244 c -0.4376,-0.95896 -2.27177,-2.43929 -1.31281,-2.8769 0.95897,-0.4376 2.03121,3.64828 1.31281,2.8769 -5.51461,-5.92127 -4.0292,-24.86828 -8.15631,-29.29973 -1.14693,-1.23151 0.78441,-3.13873 1.53896,-3.48305 10.89271,-4.97064 30.31763,11.7758 24.6859,22.10443 -0.31509,0.5779 0.36368,2.39434 -0.10051,2.82664 -3.38752,3.15489 -6.80501,9.66377 -11.65835,9.49119 -2.1717,-0.0772 -7.49324,0.183 -6.30969,-1.63948 0.81191,-1.25021 3.09881,2.58006 4.18971,1.56409"
       id="path3107"
       inkscape:connector-curvature="0" />
    <path
       style="fill:none;stroke:#000000;stroke-width:4;stroke-linecap:round;stroke-linejoin:round;stroke-miterlimit:4;stroke-opacity:1;stroke-dasharray:none"
       d="m 181.1269,252.5815 c -0.59862,7.37016 2.30975,14.14597 3.48611,21.35058 0.32861,2.01254 1.11998,12.62208 3.15637,10.72554"
       id="path3109"
       inkscape:connector-curvature="0" />
    <path
       style="fill:none;stroke:#000000;stroke-width:4;stroke-linecap:round;stroke-linejoin:round;stroke-miterlimit:4;stroke-opacity:1;stroke-dasharray:none"
       d="m 210.20048,250.78513 c -6.12505,-2.89551 4.0286,2.91697 -4.18971,-1.56409 -3.64799,-1.98909 -14.99471,3.70331 -13.02142,8.0276 3.63507,7.96595 16.44902,5.20366 19.91519,16.98191 0.40462,1.37492 1.15202,3.94694 0.50563,5.67841 -3.3003,8.84047 -21.38739,2.15389 -17.64138,-1.33487"
       id="path3111"
       inkscape:connector-curvature="0" />
    <path
       style="fill:none;stroke:#000000;stroke-width:4;stroke-linecap:round;stroke-linejoin:round;stroke-miterlimit:4;stroke-opacity:1;stroke-dasharray:none"
       d="m 224.11059,277.45925 c -1.20522,-2.79192 -2.81433,-24.02598 -1.94714,-24.83362 1.13461,-1.05669 8.03565,16.35879 8.53324,18.69983 0.35337,1.66254 2.61547,6.03908 2.67587,4.34048 0.15073,-4.23868 -1.42288,-30.13982 3.02461,-25.36438 5.73543,6.15837 7.36244,21.84454 11.10859,25.86695 0.62624,0.67241 2.44685,-0.22904 2.85177,-0.60615"
       id="path3113"
       inkscape:connector-curvature="0" />
    <path
       style="fill:none;stroke:#000000;stroke-width:4;stroke-linecap:round;stroke-linejoin:round;stroke-miterlimit:4;stroke-opacity:1;stroke-dasharray:none"
       d="m 258.10566,276.54543 c -0.88291,-1.68399 -1.78857,-3.7034 -1.21229,-5.70353 0.44201,-1.53411 2.50718,-26.6536 5.09433,-23.87568 5.80569,6.23381 9.83315,23.76381 13.17832,27.35566"
       id="path3115"
       inkscape:connector-curvature="0" />
    <path
       style="fill:none;stroke:#000000;stroke-width:4;stroke-linecap:round;stroke-linejoin:round;stroke-miterlimit:4;stroke-opacity:1;stroke-dasharray:none"
       d="m 260.70308,263.19428 c 2.79521,-0.55993 4.3825,-1.25927 7.11686,-1.16204"
       id="path3117"
       inkscape:connector-curvature="0" />
    <path
       style="fill:none;stroke:#000000;stroke-width:4;stroke-linecap:round;stroke-linejoin:round;stroke-miterlimit:4;stroke-opacity:1;stroke-dasharray:none"
       d="m 282.3834,270.3332 c -0.28225,-3.2589 -1.17405,-6.7793 -1.06153,-9.9435 0.0915,-2.57312 -1.84431,-9.89772 0.42718,-12.01322 0.0844,-0.0785 13.00497,13.96396 14.31217,15.36756 0.81266,0.87258 4.30203,4.87576 4.79585,4.41586 1.84027,-1.71388 -5.72048,-24.9678 0.8795,-24.7331"
       id="path3119"
       inkscape:connector-curvature="0" />
    <path
       style="fill:none;stroke:#000000;stroke-width:4;stroke-linecap:round;stroke-linejoin:round;stroke-miterlimit:4;stroke-opacity:1;stroke-dasharray:none"
       d="m 305.92627,244.99089 c 1.06935,-1.86508 16.58647,-5.77818 22.83928,-5.55583"
       id="path3121"
       inkscape:connector-curvature="0" />
    <path
       style="fill:none;stroke:#000000;stroke-width:4;stroke-linecap:round;stroke-linejoin:round;stroke-miterlimit:4;stroke-opacity:1;stroke-dasharray:none"
       d="m 317.30822,243.27296 c 0.80345,3.34659 1.34761,26.3908 1.87176,26.9536 0.901,0.96744 1.35278,-1.15987 1.46357,-1.36306"
       id="path3123"
       inkscape:connector-curvature="0" />
    <path
       style="fill:none;stroke:#000000;stroke-width:4;stroke-linecap:round;stroke-linejoin:round;stroke-miterlimit:4;stroke-opacity:1;stroke-dasharray:none"
       d="m 333.63679,241.73094 c 2.15141,2.50414 0.58105,26.30134 1.1651,26.92846 0.89846,0.96472 4.83949,-0.32731 5.67841,-0.50563 4.19807,-0.8923 8.56878,1.01226 12.69475,1.15897"
       id="path3125"
       inkscape:connector-curvature="0" />
    <path
       style="fill:none;stroke:#000000;stroke-width:4;stroke-linecap:round;stroke-linejoin:round;stroke-miterlimit:4;stroke-opacity:1;stroke-dasharray:none"
       d="m 369.17083,237.33408 c -4.0839,0.19337 -15.04095,1.16221 -17.16088,5.05019 -0.44092,0.80865 0.7982,3.27265 1.26255,4.29022 1.51632,3.32288 -0.55086,8.6953 0.98614,12.06348 0.77935,1.70787 -1.55919,7.12953 -0.30154,8.47992 1.66768,1.79066 16.3358,-0.83421 17.71676,-0.78511"
       id="path3127"
       inkscape:connector-curvature="0" />
    <path
       style="fill:none;stroke:#000000;stroke-width:4;stroke-linecap:round;stroke-linejoin:round;stroke-miterlimit:4;stroke-opacity:1;stroke-dasharray:none"
       d="m 353.02122,253.74109 c 3.76925,-0.16902 15.16692,-2.78933 17.0101,-0.81024"
       id="path3129"
       inkscape:connector-curvature="0" />
    <path
       style="fill:none;stroke:#000000;stroke-width:4;stroke-linecap:round;stroke-linejoin:round;stroke-miterlimit:4;stroke-opacity:1;stroke-dasharray:none"
       d="m 210.51003,310.27435 c -0.93732,-0.48225 -3.29418,-0.50941 -2.81195,-1.44671 0.48224,-0.93732 3.54867,2.20061 2.81195,1.44671 -5.80934,-5.9448 -12.97787,3.17369 -12.0689,4.10383 1.46518,1.49935 3.49565,4.29257 4.88422,5.71352 3.20965,3.28449 16.20376,7.90479 12.55597,14.99493 -3.85311,7.48917 -19.23644,-4.27209 -16.1809,-7.25801"
       id="path4021"
       inkscape:connector-curvature="0" />
    <path
       style="fill:none;stroke:#000000;stroke-width:4;stroke-linecap:round;stroke-linejoin:round;stroke-miterlimit:4;stroke-opacity:1;stroke-dasharray:none"
       d="m 219.7344,307.55203 c 7.41282,-0.93189 15.19374,-4.77498 22.68296,-4.68867"
       id="path4023"
       inkscape:connector-curvature="0" />
    <path
       style="fill:none;stroke:#000000;stroke-width:4;stroke-linecap:round;stroke-linejoin:round;stroke-miterlimit:4;stroke-opacity:1;stroke-dasharray:none"
       d="m 232.46147,307.6987 c -0.99379,3.38596 -0.63331,21.91447 2.57565,21.95145"
       id="path4025"
       inkscape:connector-curvature="0" />
    <path
       style="fill:none;stroke:#000000;stroke-width:4;stroke-linecap:round;stroke-linejoin:round;stroke-miterlimit:4;stroke-opacity:1;stroke-dasharray:none"
       d="m 247.80494,326.26152 c 0.14896,-4.57821 -1.15667,-22.63899 1.70745,-25.43786 1.15122,-1.12498 13.89053,21.91457 13.85601,24.91006"
       id="path4027"
       inkscape:connector-curvature="0" />
    <path
       style="fill:none;stroke:#000000;stroke-width:4;stroke-linecap:round;stroke-linejoin:round;stroke-miterlimit:4;stroke-opacity:1;stroke-dasharray:none"
       d="m 247.91086,317.06974 c 3.44976,-1.50549 5.8824,0.0678 9.19178,0.10593"
       id="path4029"
       inkscape:connector-curvature="0" />
    <path
       style="fill:none;stroke:#000000;stroke-width:4;stroke-linecap:round;stroke-linejoin:round;stroke-miterlimit:4;stroke-opacity:1;stroke-dasharray:none"
       d="m 268.37486,320.84134 c -1.89434,-3.10338 -1.21224,-6.58056 -2.0071,-9.92328 -0.7358,-3.09429 0.0848,-7.3582 0.12222,-10.60589 0.0109,-0.94275 -0.91015,-2.83911 0.0326,-2.82825 2.34486,0.027 18.69326,24.3776 20.24398,22.86222 2.72214,-2.66011 -1.92021,-17.46359 -1.87673,-21.23625 0.0294,-2.55513 -1.60955,-5.67577 -0.64187,-5.66462 0.66662,0.008 0.93188,0.95361 1.39782,1.43041"
       id="path4031"
       inkscape:connector-curvature="0" />
    <path
       style="fill:none;stroke:#000000;stroke-width:4;stroke-linecap:round;stroke-linejoin:round;stroke-miterlimit:4;stroke-opacity:1;stroke-dasharray:none"
       d="m 298.84362,315.53524 c -2.4475,-6.24547 -2.78917,-13.09531 -4.72942,-19.14765 -0.10629,-0.33159 -1.62853,-4.96885 -1.35708,-4.96572 6.82035,0.0786 16.16153,10.85999 18.188,17.18129 1.40607,4.38606 -4.67003,12.48615 -8.5988,9.80106 -1.24602,-0.85158 -2.03441,-3.21812 -3.5027,-2.86898 -1.23487,0.29364 0.91559,2.36773 1.37337,3.55159"
       id="path4033"
       inkscape:connector-curvature="0" />
    <path
       style="fill:none;stroke:#000000;stroke-width:4;stroke-linecap:round;stroke-linejoin:round;stroke-miterlimit:4;stroke-opacity:1;stroke-dasharray:none"
       d="m 318.60055,319.29869 c -1.48055,-3.78456 -1.36998,-26.05252 1.7319,-27.55903 4.60188,-2.23503 14.56744,24.53951 14.54678,26.33232"
       id="path4035"
       inkscape:connector-curvature="0" />
    <path
       style="fill:none;stroke:#000000;stroke-width:4;stroke-linecap:round;stroke-linejoin:round;stroke-miterlimit:4;stroke-opacity:1;stroke-dasharray:none"
       d="m 315.91083,307.24608 c 4.4612,-0.26309 9.35102,0.10777 14.1412,0.16297"
       id="path4037"
       inkscape:connector-curvature="0" />
    <path
       style="fill:none;stroke:#000000;stroke-width:4;stroke-linecap:round;stroke-linejoin:round;stroke-miterlimit:4;stroke-opacity:1;stroke-dasharray:none"
       d="m 342.70577,313.91926 c -1.26092,-1.29033 -2.76678,-18.08451 -3.97346,-23.38186 2.26403,-0.27911 4.54358,-3.63287 7.10319,-2.74676 1.25702,0.43516 2.83076,0.97997 4.22606,1.463 4.67159,1.61725 5.33988,6.19533 0.60928,8.49287 -1.70853,0.82979 -2.99401,2.1339 -4.98201,2.7712 -0.33415,0.10713 -4.24139,-0.13248 -4.24236,-0.0489 -0.0132,1.1431 5.81065,3.90027 7.00541,5.73797 1.88353,2.89707 3.25469,9.93765 6.24947,9.97217"
       id="path4039"
       inkscape:connector-curvature="0" />
    <path
       style="fill:none;stroke:#000000;stroke-width:4;stroke-linecap:round;stroke-linejoin:round;stroke-miterlimit:4;stroke-opacity:1;stroke-dasharray:none"
       d="m 366.74581,314.1963 c -2.43501,-3.29814 -1.70049,-7.12046 -3.41307,-10.64664 -1.19928,-2.46928 -3.41071,-10.85233 -3.38864,-12.76782 0.0379,-3.29232 13.95951,4.56087 16.17275,7.96507 5.45893,8.39645 1.26313,21.99772 -9.37104,15.44939 z"
       id="path4041"
       inkscape:connector-curvature="0" />
    <path
       style="fill:none;stroke:#000000;stroke-width:4;stroke-linecap:round;stroke-linejoin:round;stroke-miterlimit:4;stroke-opacity:1;stroke-dasharray:none"
       d="m 399.57204,288.40991 c -9.66761,-2.7224 8.09395,2.56539 -3.519,-1.45486 -2.52581,-0.8744 -15.20941,1.25678 -13.49117,4.79459 2.80696,5.77947 14.8111,3.39533 14.68529,14.31232 -0.0817,7.08681 -10.08218,6.85228 -14.17379,2.66527"
       id="path4043"
       inkscape:connector-curvature="0" />
    <path
       style="fill:none;stroke:#000000;stroke-width:4;stroke-linecap:round;stroke-linejoin:round;stroke-miterlimit:4;stroke-opacity:1;stroke-dasharray:none"
       d="m 445.96137,285.83988 c -0.24703,6.63972 2.12132,13.28798 2.12132,19.79899 0,1.43372 2.14083,4.24264 0.70711,4.24264 -0.15945,0 0.70017,-1.40728 0.7071,-1.41421 1e-5,9.25771 11.43155,-0.23569 13.43503,-4.24264 2.28812,-4.57625 -5.62586,-8.23925 -8.48528,-9.19239 -0.46261,-0.1542 -5.65685,-1.51616 -5.65685,-1.41421 0,3.96588 25.23377,-12.02082 2.12132,-12.02082 -2.96226,0 -1.7567,-0.16053 -4.94975,4.24264 z"
       id="path4045"
       inkscape:connector-curvature="0" />
    <path
       style="fill:none;stroke:#000000;stroke-width:4;stroke-linecap:round;stroke-linejoin:round;stroke-miterlimit:4;stroke-opacity:1;stroke-dasharray:none"
       d="m 477.07407,283.01145 c -0.45719,-0.24261 -5.73212,0.15054 -7.77817,4.24264 -3.41811,6.83621 -2.3254,22.93115 9.19238,19.09189 0.95597,-0.31866 3.53661,-10e-4 4.24264,-0.70711 6.54277,-6.54277 6.01795,-24.96238 -5.65685,-22.62742 z"
       id="path4060"
       inkscape:connector-curvature="0" />
    <path
       style="fill:none;stroke:#000000;stroke-width:4;stroke-linecap:round;stroke-linejoin:round;stroke-miterlimit:4;stroke-opacity:1;stroke-dasharray:none"
       d="m 496.87306,304.93176 c -2.1437,-3.45795 -1.17119,-7.51319 -2.12132,-11.31371 -0.39592,-1.58369 -4.06773,-15.73126 -3.53553,-16.26345 1.74947,-1.74948 15.99655,12.63432 16.97056,15.55635 1.69639,5.08918 -1.87794,11.23258 -6.36396,12.72792 -0.63246,0.21082 -0.78176,1.62503 -1.41422,1.41421 -1.30384,-0.43461 -2.35702,-1.41421 -3.53553,-2.12132 z"
       id="path4062"
       inkscape:connector-curvature="0" />
    <path
       style="fill:none;stroke:#000000;stroke-width:4;stroke-linecap:round;stroke-linejoin:round;stroke-miterlimit:4;stroke-opacity:1;stroke-dasharray:none"
       d="m 515.96494,283.01145 c -0.53893,5.33404 0.70711,10.36252 0.70711,15.55635 0,1.76506 0.45545,8.02983 1.41421,7.07107"
       id="path4064"
       inkscape:connector-curvature="0" />
    <path
       style="fill:none;stroke:#000000;stroke-width:4;stroke-linecap:round;stroke-linejoin:round;stroke-miterlimit:4;stroke-opacity:1;stroke-dasharray:none"
       d="m 538.59236,280.18302 c -2.61504,-1.65154 -3.4609,-1.80508 -5.65685,-0.7071 -1.95413,0.97706 -4.34333,0.80779 -5.65686,2.12132 -2.71118,2.71118 -1.6732,24.48975 0.70711,26.87006 1.28077,1.28077 6.50784,-1.48616 7.77817,-2.12132 1.61702,-0.80851 3.12614,0.40939 4.24264,-0.70711"
       id="path4066"
       inkscape:connector-curvature="0" />
    <path
       style="fill:none;stroke:#000000;stroke-width:4;stroke-linecap:round;stroke-linejoin:round;stroke-miterlimit:4;stroke-opacity:1;stroke-dasharray:none"
       d="m 525.15733,292.91095 c 3.31193,0.94857 11.19662,-1.53131 12.72792,0"
       id="path4068"
       inkscape:connector-curvature="0" />
    <path
       style="fill:none;stroke:#000000;stroke-width:4;stroke-linecap:round;stroke-linejoin:round;stroke-miterlimit:4;stroke-opacity:1;stroke-dasharray:none"
       d="m 561.21978,281.59724 c -0.94281,-0.47141 -3.29983,-0.47141 -2.82843,-1.41422 0.4714,-0.9428 3.88252,1.41422 2.82843,1.41422 -1.62504,0 -3.6963,-1.41422 -5.65686,-1.41422 -30.59361,0 9.9569,11.19891 4.94975,21.21321 -0.21347,0.42693 0.32687,1.79445 0,2.12132 -5.22523,5.22523 -16.92663,-1.45815 -16.97056,-1.41421"
       id="path4070"
       inkscape:connector-curvature="0" />
    <g
       id="g4255"
       transform="matrix(0.96119791,-0.27585972,0.27585972,0.96119791,-359.80462,339.87181)">
      <path
         inkscape:connector-curvature="0"
         id="path4072"
         d="m 553.66461,244.13913 c -2.84716,0.72082 -9.16419,-0.0282 -11.31371,2.12132 -2.08805,2.08805 0.27252,17.24308 1.41422,18.38478 1.10582,1.10583 7.87209,-0.70711 9.89949,-0.70711"
         style="fill:none;stroke:#000000;stroke-width:1.99999999000000006;stroke-linecap:round;stroke-linejoin:round;stroke-opacity:1;stroke-miterlimit:4;stroke-dasharray:none" />
      <path
         inkscape:connector-curvature="0"
         id="path4074"
         d="m 540.93669,254.03863 c 3.03731,-0.063 8.3431,0.14218 7.77817,0.7071"
         style="fill:none;stroke:#000000;stroke-width:1.99999999000000006;stroke-linecap:round;stroke-linejoin:round;stroke-opacity:1;stroke-miterlimit:4;stroke-dasharray:none" />
      <path
         inkscape:connector-curvature="0"
         id="path4076"
         d="m 567.49072,248.29117 c -10.74336,-7.0729 -18.02215,17.71017 1.49736,14.79046"
         style="fill:none;stroke:#000000;stroke-width:1.99999999000000006;stroke-linecap:round;stroke-linejoin:round;stroke-opacity:1;stroke-miterlimit:4;stroke-dasharray:none" />
      <path
         inkscape:connector-curvature="0"
         id="path4078"
         d="m 572.75649,263.93812 c -0.26559,-2.57025 -0.004,-4.9376 0.70711,-7.07107 0.56569,-1.69705 -0.56569,-3.95979 0,-5.65685 0.11006,-0.33019 0.57249,-4.10802 0.70711,-4.24264 0.66649,-0.66649 8.01284,14.61458 9.89949,12.72792 1.16006,-1.16006 1.69413,-14.14214 2.12132,-14.14214 2.9622,0 4.68662,14.84925 9.19239,14.84925"
         style="fill:none;stroke:#000000;stroke-width:1.99999999000000006;stroke-linecap:round;stroke-linejoin:round;stroke-opacity:1;stroke-miterlimit:4;stroke-dasharray:none" />
      <path
         inkscape:connector-curvature="0"
         id="path4080"
         d="m 600.33366,261.10969 c 0.88155,-0.0209 0.0904,-9.37315 2.82842,-14.84924 0.29437,-0.58873 -0.44852,-2.3799 0,-2.82843 1.11796,-1.11795 9.11501,16.10869 9.8995,17.67767"
         style="fill:none;stroke:#000000;stroke-width:1.99999999000000006;stroke-linecap:round;stroke-linejoin:round;stroke-opacity:1;stroke-miterlimit:4;stroke-dasharray:none" />
      <path
         inkscape:connector-curvature="0"
         id="path4082"
         d="m 601.74787,253.33152 c 2.73009,0.19516 7.21552,-0.56265 9.19239,1.41421"
         style="fill:none;stroke:#000000;stroke-width:1.99999999000000006;stroke-linecap:round;stroke-linejoin:round;stroke-opacity:1;stroke-miterlimit:4;stroke-dasharray:none" />
    </g>
    <g
       id="g4250"
       transform="matrix(0.95520117,0.2959573,-0.2959573,0.95520117,38.9333,-68.857937)">
      <path
         sodipodi:nodetypes="cssscssc"
         inkscape:connector-curvature="0"
         id="path4175"
         d="m 537.0476,300.00057 c 1.08088,4.38581 2.35313,13.31328 4.94975,15.9099 0.23873,0.23873 0.70711,-2.02788 0.70711,-2.47487 0,-1.34803 0.50551,-11.51531 2.47487,-9.54595 0.65255,0.65256 7.83634,10.19488 8.13173,9.8995 0.74511,-0.74512 0.7071,-8.79883 0.7071,-10.25305 0,-1.43372 0.35356,-2.92721 0.35356,-4.24264 0,-0.48591 -0.83947,-1.41421 -0.35356,-1.41421"
         style="fill:none;stroke:#000000;stroke-width:2;stroke-linecap:round;stroke-linejoin:round;stroke-opacity:1;stroke-miterlimit:4;stroke-dasharray:none" />
      <path
         sodipodi:nodetypes="cscsssssc"
         inkscape:connector-curvature="0"
         id="path4179"
         d="m 563.56411,299.29347 c -3.26925,-1.66719 9.75574,-4.1766 11.31371,-1.06066 1.56578,3.13156 -0.29545,6.3349 -2.47487,7.42462 -0.12283,0.0614 -4.5962,0.6874 -4.5962,0.35355 0,-0.58255 9.17281,2.51404 7.42462,6.01041 -1.84306,3.68613 -6.41877,3.98866 -9.89949,2.82843 -1.11148,-0.3705 -2.2355,-1.17485 -2.82843,-1.76777 -0.18634,-0.18634 -0.97063,-0.35355 -0.70711,-0.35355 0.48592,0 0.92831,0.35355 1.41422,0.35355"
         style="fill:none;stroke:#000000;stroke-width:2;stroke-linecap:round;stroke-linejoin:round;stroke-opacity:1;stroke-miterlimit:4;stroke-dasharray:none" />
      <path
         inkscape:connector-curvature="0"
         id="path4192"
         d="m 592.90904,298.58635 c -2.91126,-2.02904 -14.11151,-1.32232 -10.6066,9.19239 0.26871,0.80614 -0.0226,1.72256 0.35355,2.47487 1.24065,2.4813 5.13318,3.6206 8.13173,2.12133 0.59608,-0.29805 1.34377,0.0704 1.76777,-0.35356 0.27148,-0.27148 1.43616,-1.76777 1.76776,-1.76777 0.0702,0 -0.67891,0.67892 -0.7071,0.70711"
         style="fill:none;stroke:#000000;stroke-width:2;stroke-linecap:round;stroke-linejoin:round;stroke-opacity:1;stroke-miterlimit:4;stroke-dasharray:none" />
    </g>
    <g
       id="g4243"
       transform="matrix(0.91980193,-0.39238299,0.39238299,0.91980193,-225.04275,472.99543)">
      <path
         inkscape:connector-curvature="0"
         id="path4194"
         d="m 647.00271,289.04041 c -2.02677,-2.35963 -15.36649,3.5879 -13.08148,12.72792 1.78031,7.12124 10.79801,6.17256 13.08148,3.88909"
         style="fill:none;stroke:#000000;stroke-width:2;stroke-linecap:round;stroke-linejoin:round;stroke-opacity:1;stroke-miterlimit:4;stroke-dasharray:none" />
      <path
         inkscape:connector-curvature="0"
         id="path4196"
         d="m 660.43773,289.74752 c -0.4714,-0.35356 -1.76776,-0.58926 -1.41421,-1.06066 0.35355,-0.47141 2.00347,1.06066 1.41421,1.06066 -0.68718,0 -1.15313,-0.75334 -1.76776,-1.06066 -1.47159,-0.7358 -9.4873,1.53151 -8.48528,3.53553 1.48854,2.97709 7.27213,2.1699 8.83883,5.3033 1.97228,3.94455 -1.92779,9.28915 -6.36396,7.07107 -1.18421,-0.5921 -1.90874,-1.90873 -2.47487,-2.47487"
         style="fill:none;stroke:#000000;stroke-width:2;stroke-linecap:round;stroke-linejoin:round;stroke-opacity:1;stroke-miterlimit:4;stroke-dasharray:none" />
      <path
         inkscape:connector-curvature="0"
         id="path4198"
         d="m 674.22632,289.39396 c -1.64506,-2.17046 -11.13938,-0.712 -9.54594,2.47488 2.55293,5.10587 14.13541,4.96318 9.89949,13.43503 -2.19438,4.38876 -9.91856,-0.68805 -8.83883,-1.76777"
         style="fill:none;stroke:#000000;stroke-width:2;stroke-linecap:round;stroke-linejoin:round;stroke-opacity:1;stroke-miterlimit:4;stroke-dasharray:none" />
      <path
         inkscape:connector-curvature="0"
         id="path4200"
         d="m 679.17606,295.75793 c 0.6019,1.11827 3.66855,10.82714 4.5962,9.89949 0.49716,-0.49716 1.14243,-10.0895 2.12132,-8.13173 0.98653,1.97307 4.45775,7.42462 4.94975,7.42462 0.92861,0 0.7071,-6.67984 0.7071,-7.77817 0,-0.37268 -0.72623,-1.06066 -0.35355,-1.06066 0.58926,0 0.53361,1.15069 1.06066,1.41421"
         style="fill:none;stroke:#000000;stroke-width:2;stroke-linecap:round;stroke-linejoin:round;stroke-opacity:1;stroke-miterlimit:4;stroke-dasharray:none" />
      <path
         sodipodi:nodetypes="csssssssc"
         inkscape:connector-curvature="0"
         id="path4241"
         d="m 702.86414,295.75793 c -2.15378,-0.78951 -4.8249,-0.021 -6.71751,5.65685 -0.23148,0.69444 -0.79329,2.65606 -0.35356,3.53553 1.554,3.108 6.77022,-0.1581 7.42463,-2.12132 0.36665,-1.09998 1.31182,-4.09386 0.7071,-5.3033 -0.30732,-0.61463 -1.64991,-1.41421 -1.06066,-1.76776 1.32237,-0.79342 2.47488,11.16374 2.47488,12.02081 0,3.86923 -2.23635,13.78858 -6.36397,13.78858 -0.14558,0 -2.73484,-0.96706 -4.59619,-4.24264"
         style="fill:none;stroke:#000000;stroke-width:2;stroke-linecap:round;stroke-linejoin:round;stroke-opacity:1;stroke-miterlimit:4;stroke-dasharray:none" />
    </g>
  </g>
</svg>
