<?xml version="1.0" encoding="UTF-8" standalone="no"?>
<!-- Created with Inkscape (http://www.inkscape.org/) -->

<svg
   xmlns:dc="http://purl.org/dc/elements/1.1/"
   xmlns:cc="http://creativecommons.org/ns#"
   xmlns:rdf="http://www.w3.org/1999/02/22-rdf-syntax-ns#"
   xmlns:svg="http://www.w3.org/2000/svg"
   xmlns="http://www.w3.org/2000/svg"
   xmlns:sodipodi="http://sodipodi.sourceforge.net/DTD/sodipodi-0.dtd"
   xmlns:inkscape="http://www.inkscape.org/namespaces/inkscape"
   width="744.09448819"
   height="1052.3622047"
   id="svg2"
   version="1.1"
   inkscape:version="0.48.2 r9819"
   sodipodi:docname="draw_oakland.svg"
   inkscape:export-filename="/home/substack/media/vector/draw_oakland.png"
   inkscape:export-xdpi="69.957092"
   inkscape:export-ydpi="69.957092">
  <defs
     id="defs4" />
  <sodipodi:namedview
     id="base"
     pagecolor="#ffffff"
     bordercolor="#666666"
     borderopacity="1.0"
     inkscape:pageopacity="0.0"
     inkscape:pageshadow="2"
     inkscape:zoom="0.43476563"
     inkscape:cx="634.65552"
     inkscape:cy="903.05731"
     inkscape:document-units="px"
     inkscape:current-layer="layer1"
     showgrid="false"
     inkscape:window-width="1364"
     inkscape:window-height="766"
     inkscape:window-x="0"
     inkscape:window-y="0"
     inkscape:window-maximized="0" />
  <metadata
     id="metadata7">
    <rdf:RDF>
      <cc:Work
         rdf:about="">
        <dc:format>image/svg+xml</dc:format>
        <dc:type
           rdf:resource="http://purl.org/dc/dcmitype/StillImage" />
        <dc:title></dc:title>
      </cc:Work>
    </rdf:RDF>
  </metadata>
  <g
     inkscape:label="Layer 1"
     inkscape:groupmode="layer"
     id="layer1">
    <g
       transform="translate(39.614604,-538.73989)"
       id="layer1-5"
       inkscape:label="Layer 1">
      <path
         sodipodi:nodetypes="csccc"
         inkscape:connector-curvature="0"
         id="path3018"
         d="m 280.33769,1038.6072 c -4.694,-4.694 19.36939,-137.58322 -39.43083,-143.71656 -31.05657,-3.23945 -81.18027,37.58271 -130.75622,29.7517 M 70.778354,913.29832 C 56.157583,906.21867 35.806233,904.9447 17.480533,910.03576"
         style="fill:none;stroke:#4d4d4d;stroke-width:9;stroke-linecap:round;stroke-linejoin:round;stroke-miterlimit:4;stroke-opacity:1;stroke-dasharray:none" />
      <path
         sodipodi:nodetypes="ccccc"
         inkscape:connector-curvature="0"
         id="path3046"
         d="m 290.33769,1037.1786 c -2.26647,-42.38743 12.65461,-137.36476 -40,-150.57141 -43.53858,-14.44093 -75.4008,35.06817 -131.55438,27.56917 M 78.984134,907.0698 c -14.698837,-8.6751 -36.745601,-14.9413 -66.57616,-7.99663"
         style="fill:none;stroke:#4d4d4d;stroke-width:9;stroke-linecap:round;stroke-linejoin:round;stroke-miterlimit:4;stroke-opacity:1;stroke-dasharray:none" />
      <path
         sodipodi:nodetypes="ccccc"
         inkscape:connector-curvature="0"
         id="path3048"
         d="m 298.90912,1038.6072 c 0.71429,-54.52382 9.53449,-126.02346 -30,-157.14287 -57.85015,-33.39696 -97.65602,30.24051 -144.1519,23.49886 M 90.053874,896.16268 C 59.339517,883.91818 40.556063,881.21636 8.9091055,887.17862"
         style="fill:none;stroke:#4d4d4d;stroke-width:9;stroke-linecap:round;stroke-linejoin:round;stroke-miterlimit:4;stroke-opacity:1;stroke-dasharray:none" />
      <path
         sodipodi:nodetypes="ccccc"
         inkscape:connector-curvature="0"
         id="path3069"
         d="m 308.90912,1039.3215 c -3.57143,-80.95241 15.66422,-122.86551 -32.14286,-167.85717 -56.96558,-37.07577 -117.6623,29.83532 -147.69271,22.60884 M 96.836197,885.55589 C 77.518054,875.72462 38.713463,867.76473 7.4805335,876.46433"
         style="fill:none;stroke:#4d4d4d;stroke-width:9;stroke-linecap:round;stroke-linejoin:round;stroke-miterlimit:4;stroke-opacity:1;stroke-dasharray:none" />
      <path
         sodipodi:nodetypes="cccccc"
         inkscape:connector-curvature="0"
         id="path3071"
         d="m 295.76626,894.67862 c -6.06389,-31.80803 -22.032,-81.22399 -64.71428,-78.92858 -10.91898,0.82436 -24.63567,5.54587 -35.27851,12.18638 m -30.2118,18.58595 c -14.55778,8.34551 -20.87353,13.70058 -44.36457,14.40342 -32.077966,0.73069 -71.335527,-21.44592 -99.430853,-51.60432"
         style="fill:none;stroke:#4d4d4d;stroke-width:9;stroke-linecap:round;stroke-linejoin:round;stroke-miterlimit:4;stroke-opacity:1;stroke-dasharray:none" />
      <path
         sodipodi:nodetypes="ccccc"
         inkscape:connector-curvature="0"
         id="path3073"
         d="m 308.53693,936.94549 c -0.82084,-39.04888 1.9722,-94.70453 -46.77066,-126.19545 -23.9831,-12.58212 -43.68453,-10.06401 -71.6161,7.24854 m -29.12882,16.57119 C 107.0339,866.83284 67.983912,837.84162 27.480533,800.03576"
         style="fill:none;stroke:#4d4d4d;stroke-width:9;stroke-linecap:round;stroke-linejoin:round;stroke-miterlimit:4;stroke-opacity:1;stroke-dasharray:none" />
      <path
         sodipodi:nodetypes="ccccc"
         inkscape:connector-curvature="0"
         id="path3075"
         d="m 318.19484,1037.8929 c 2.38095,-141.19048 9.4348,-172.31642 -27.14286,-217.85714 -17.4433,-17.02947 -53.92434,-47.93395 -105.85941,-12.78458 m -29.58286,15.46047 c -44.44475,19.5932 -65.688756,20.75276 -123.129177,-31.96161"
         style="fill:none;stroke:#4d4d4d;stroke-width:9;stroke-linecap:round;stroke-linejoin:round;stroke-miterlimit:4;stroke-opacity:1;stroke-dasharray:none" />
      <path
         sodipodi:nodetypes="ccccc"
         inkscape:connector-curvature="0"
         id="path3077"
         d="m 326.76626,1038.6072 c 2.29818,-113.08283 8.75716,-144.05317 -3.61805,-186.1011 -26.20179,-57.02932 -76.69036,-97.63511 -142.82925,-57.68016 m -28.33501,17.20755 C 109.00234,836.7652 77.333354,815.56676 41.051963,782.8929"
         style="fill:none;stroke:#4d4d4d;stroke-width:9;stroke-linecap:round;stroke-linejoin:round;stroke-miterlimit:4;stroke-opacity:1;stroke-dasharray:none" />
      <path
         sodipodi:nodetypes="cc"
         inkscape:connector-curvature="0"
         id="path3847"
         d="M 30.424576,872.20555 C 25.813504,864.17515 18.79469,857.65548 9.2540345,852.3387"
         style="fill:none;stroke:#4d4d4d;stroke-width:9;stroke-linecap:round;stroke-linejoin:round;stroke-miterlimit:4;stroke-opacity:1;stroke-dasharray:none" />
      <path
         sodipodi:nodetypes="cc"
         inkscape:connector-curvature="0"
         id="path3849"
         d="M 40.411523,872.36852 C 37.176829,860.75773 26.903381,853.16908 16.487023,845.6621"
         style="fill:none;stroke:#4d4d4d;stroke-width:9;stroke-linecap:round;stroke-linejoin:round;stroke-miterlimit:4;stroke-opacity:1;stroke-dasharray:none" />
      <path
         sodipodi:nodetypes="cc"
         inkscape:connector-curvature="0"
         id="path3851"
         d="M 53.933653,873.99512 C 47.674113,859.03756 35.255131,849.21287 22.853261,839.37392"
         style="fill:none;stroke:#4d4d4d;stroke-width:9;stroke-linecap:round;stroke-linejoin:round;stroke-miterlimit:4;stroke-opacity:1;stroke-dasharray:none" />
      <path
         sodipodi:nodetypes="cc"
         inkscape:connector-curvature="0"
         id="path3853"
         d="M 62.588967,874.78196 C 57.853757,857.22322 45.271993,844.36363 31.508561,833.07915"
         style="fill:none;stroke:#4d4d4d;stroke-width:9;stroke-linecap:round;stroke-linejoin:round;stroke-miterlimit:4;stroke-opacity:1;stroke-dasharray:none" />
      <path
         sodipodi:nodetypes="cc"
         inkscape:connector-curvature="0"
         id="path3855"
         d="M 107.04574,860.22532 C 96.205997,907.6565 64.593027,924.97611 21.27957,923.17296"
         style="fill:none;stroke:#4d4d4d;stroke-width:9;stroke-linecap:round;stroke-linejoin:round;stroke-miterlimit:4;stroke-opacity:1;stroke-dasharray:none" />
      <path
         sodipodi:nodetypes="cc"
         inkscape:connector-curvature="0"
         id="path3857"
         d="m 117.66815,861.01217 c -11.02144,57.98591 -49.912628,73.58637 -96.38858,73.17662"
         style="fill:none;stroke:#4d4d4d;stroke-width:9;stroke-linecap:round;stroke-linejoin:round;stroke-miterlimit:4;stroke-opacity:1;stroke-dasharray:none" />
      <path
         sodipodi:nodetypes="cc"
         inkscape:connector-curvature="0"
         id="path3859"
         d="M 129.1103,861.51217 C 113.822,930.18077 66.467631,953.75451 21.27957,947.95859"
         style="fill:none;stroke:#4d4d4d;stroke-width:9;stroke-linecap:round;stroke-linejoin:round;stroke-miterlimit:4;stroke-opacity:1;stroke-dasharray:none" />
      <path
         sodipodi:nodetypes="cc"
         inkscape:connector-curvature="0"
         id="path3861"
         d="M 140.09325,858.2582 C 129.30996,920.72595 80.539674,971.18974 21.27957,961.33496"
         style="fill:none;stroke:#4d4d4d;stroke-width:9;stroke-linecap:round;stroke-linejoin:round;stroke-miterlimit:4;stroke-opacity:1;stroke-dasharray:none" />
      <path
         sodipodi:nodetypes="cccc"
         inkscape:connector-curvature="0"
         id="path3863"
         d="M 183.76317,874.38854 C 158.9849,839.78351 151.83171,810.78291 142.06036,770.52494 m -9.44215,-35.80146 c -4.05176,-21.37597 -12.3242,-42.75193 -20.45798,-64.1279"
         style="fill:none;stroke:#4d4d4d;stroke-width:9;stroke-linecap:round;stroke-linejoin:round;stroke-miterlimit:4;stroke-opacity:1;stroke-dasharray:none" />
      <path
         sodipodi:nodetypes="cccc"
         inkscape:connector-curvature="0"
         id="path3865"
         d="M 194.779,869.66747 C 170.76322,839.039 159.33415,798.81085 151.10908,766.19729 m -8.26188,-35.80146 c -6.27375,-21.90053 -13.55154,-43.80107 -20.8514,-65.7016"
         style="fill:none;stroke:#4d4d4d;stroke-width:9;stroke-linecap:round;stroke-linejoin:round;stroke-miterlimit:4;stroke-opacity:1;stroke-dasharray:none" />
      <path
         sodipodi:nodetypes="cccc"
         inkscape:connector-curvature="0"
         id="path3867"
         d="M 205.40142,866.91351 C 179.47073,835.0109 168.98058,796.19077 158.97754,761.86964 m -6.52523,-36.77104 c -4.73772,-22.2884 -12.78072,-45.05147 -20.62094,-66.30571"
         style="fill:none;stroke:#4d4d4d;stroke-width:9;stroke-linecap:round;stroke-linejoin:round;stroke-miterlimit:4;stroke-opacity:1;stroke-dasharray:none" />
      <path
         sodipodi:nodetypes="cccc"
         inkscape:connector-curvature="0"
         id="path3869"
         d="M 218.77778,861.40559 C 191.61832,829.94457 176.02462,792.04546 169.59995,756.36173 m -7.7055,-36.72332 c -4.40938,-21.37597 -12.14658,-44.97747 -21.80121,-66.35344"
         style="fill:none;stroke:#4d4d4d;stroke-width:9;stroke-linecap:round;stroke-linejoin:round;stroke-miterlimit:4;stroke-opacity:1;stroke-dasharray:none" />
      <path
         sodipodi:nodetypes="ccccc"
         inkscape:connector-curvature="0"
         id="path3871"
         d="m 330.50984,928.28745 c 18.2674,-49.51278 77.51195,-68.6911 92.06091,-150.28747 4.32401,-38.83137 -13.33913,-69.45218 -32.50733,-101.26888 m -14.70339,-37.21592 c -3.94476,-17.90864 -1.35471,-30.91616 -1.57369,-46.03046"
         style="fill:none;stroke:#4d4d4d;stroke-width:9;stroke-linecap:round;stroke-linejoin:round;stroke-miterlimit:4;stroke-opacity:1;stroke-dasharray:none" />
      <path
         sodipodi:nodetypes="cccccc"
         inkscape:connector-curvature="0"
         id="path3873"
         d="m 337.19803,1039.2327 c -0.0104,-39.615 2.37011,-96.15755 6.5816,-114.60055 23.96897,-50.36415 81.67651,-59.81862 91.38065,-160.40197 -3.27575,-40.52532 -18.68586,-61.08736 -36.42536,-91.08315 m -13.1459,-40.71346 c -3.85183,-15.77346 -1.95219,-27.23333 -1.96712,-40.12912"
         style="fill:none;stroke:#4d4d4d;stroke-width:9;stroke-linecap:round;stroke-linejoin:round;stroke-miterlimit:4;stroke-opacity:1;stroke-dasharray:none" />
      <path
         sodipodi:nodetypes="ccccc"
         inkscape:connector-curvature="0"
         id="path3875"
         d="m 393.45747,591.51761 c -0.76783,12.83279 -0.14484,25.06161 1.18027,35.80146 m 11.01583,38.16201 c 13.2453,19.67101 37.58081,46.14536 38.55544,96.78199 -0.53588,37.98728 -12.21247,66.97125 -39.34228,108.58466"
         style="fill:none;stroke:#4d4d4d;stroke-width:9;stroke-linecap:round;stroke-linejoin:round;stroke-miterlimit:4;stroke-opacity:1;stroke-dasharray:none" />
      <path
         sodipodi:nodetypes="ccccc"
         inkscape:connector-curvature="0"
         id="path3877"
         d="m 431.22605,847.63579 c 7.45248,-20.03775 26.38475,-48.33251 23.99879,-86.55299 0.15167,-31.47274 -9.42786,-64.26519 -39.7357,-101.50306 m -11.80268,-38.16201 c -1.44492,-9.96908 -1.8336,-20.06218 -1.18027,-27.93301"
         style="fill:none;stroke:#4d4d4d;stroke-width:9;stroke-linecap:round;stroke-linejoin:round;stroke-miterlimit:4;stroke-opacity:1;stroke-dasharray:none" />
      <path
         sodipodi:nodetypes="cccccc"
         inkscape:connector-curvature="0"
         id="path3925"
         d="M 327.50554,869.03021 C 322.39613,826.77371 341.59418,771.205 281.3257,777.2269 m -30.8793,-6.9548 c -33.47113,-19.62166 -50.39337,-32.24613 -80.95383,-14.74417 l -27.81919,15.57875 c -31.15749,19.29919 -66.209676,8.66921 -93.472487,-6.67661"
         style="fill:none;stroke:#4d4d4d;stroke-width:9;stroke-linecap:round;stroke-linejoin:round;stroke-miterlimit:4;stroke-opacity:1;stroke-dasharray:none" />
      <path
         sodipodi:nodetypes="cccc"
         inkscape:connector-curvature="0"
         id="path3927"
         d="m 339.1896,909.08984 c -4.33502,-81.04828 20.47794,-147.72448 -57.30752,-142.99062 m -31.15749,-7.23299 c -104.41468,-75.1118 -67.4905,45.20911 -194.734327,-3.3383"
         style="fill:none;stroke:#4d4d4d;stroke-width:9;stroke-linecap:round;stroke-linejoin:round;stroke-miterlimit:4;stroke-opacity:1;stroke-dasharray:none" />
      <path
         sodipodi:nodetypes="cccc"
         inkscape:connector-curvature="0"
         id="path3968"
         d="m 349.7609,895.18025 c -5.69448,-53.47938 25.8234,-146.2856 -66.20968,-140.76509 m -32.27024,-7.78937 c -102.04195,-70.03755 -74.82947,36.65484 -189.726873,0.55639"
         style="fill:none;stroke:#4d4d4d;stroke-width:9;stroke-linecap:round;stroke-linejoin:round;stroke-miterlimit:4;stroke-opacity:1;stroke-dasharray:none" />
      <path
         sodipodi:nodetypes="cccc"
         inkscape:connector-curvature="0"
         id="path3970"
         d="M 360.33219,883.49619 C 356.97507,824.18584 387.54667,745.32868 285.22038,742.73111 M 251.83736,736.0545 C 162.31563,663.60988 158.58384,769.55043 66.561571,733.82897"
         style="fill:none;stroke:#4d4d4d;stroke-width:9;stroke-linecap:round;stroke-linejoin:round;stroke-miterlimit:4;stroke-opacity:1;stroke-dasharray:none" />
      <path
         sodipodi:nodetypes="cc"
         inkscape:connector-curvature="0"
         id="path3972"
         d="m 251.28097,781.67796 c -7.46311,-140.0679 73.90208,-116.75208 79.56288,-208.08751"
         style="fill:none;stroke:#4d4d4d;stroke-width:9;stroke-linecap:round;stroke-linejoin:round;stroke-miterlimit:4;stroke-opacity:1;stroke-dasharray:none" />
      <path
         sodipodi:nodetypes="cc"
         inkscape:connector-curvature="0"
         id="path3974"
         d="M 261.85227,784.45989 C 257.56636,643.45238 340.8994,662.29614 341.97152,575.2596"
         style="fill:none;stroke:#4d4d4d;stroke-width:9;stroke-linecap:round;stroke-linejoin:round;stroke-miterlimit:4;stroke-opacity:1;stroke-dasharray:none" />
      <path
         sodipodi:nodetypes="cc"
         inkscape:connector-curvature="0"
         id="path3976"
         d="m 271.31079,788.35457 c -2.079,-138.72717 76.32495,-115.28244 83.45756,-214.20774"
         style="fill:none;stroke:#4d4d4d;stroke-width:9;stroke-linecap:round;stroke-linejoin:round;stroke-miterlimit:4;stroke-opacity:1;stroke-dasharray:none" />
      <path
         sodipodi:nodetypes="cc"
         inkscape:connector-curvature="0"
         id="path3978"
         d="m 280.76931,796.14394 c -1.66792,-141.43276 73.3126,-106.0701 85.6831,-219.77157"
         style="fill:none;stroke:#4d4d4d;stroke-width:9;stroke-linecap:round;stroke-linejoin:round;stroke-miterlimit:4;stroke-opacity:1;stroke-dasharray:none" />
      <path
         sodipodi:nodetypes="cc"
         inkscape:connector-curvature="0"
         id="path3980"
         d="m 66.523191,710.33127 c 14.534953,15.30011 22.918223,23.01792 36.194899,31.08039"
         style="fill:none;stroke:#4d4d4d;stroke-width:9;stroke-linecap:round;stroke-linejoin:round;stroke-miterlimit:4;stroke-opacity:1;stroke-dasharray:none" />
      <path
         sodipodi:nodetypes="cc"
         inkscape:connector-curvature="0"
         id="path3982"
         d="m 70.063992,702.06939 c 16.874422,15.42045 34.830738,32.31634 52.718658,36.58831"
         style="fill:none;stroke:#4d4d4d;stroke-width:9;stroke-linecap:round;stroke-linejoin:round;stroke-miterlimit:4;stroke-opacity:1;stroke-dasharray:none" />
      <path
         sodipodi:nodetypes="cc"
         inkscape:connector-curvature="0"
         id="path3984"
         d="m 77.539024,691.05356 c 17.39287,20.32438 35.884246,31.86076 54.292346,44.06334"
         style="fill:none;stroke:#4d4d4d;stroke-width:9;stroke-linecap:round;stroke-linejoin:round;stroke-miterlimit:4;stroke-opacity:1;stroke-dasharray:none" />
      <path
         sodipodi:nodetypes="cc"
         inkscape:connector-curvature="0"
         id="path3986"
         d="m 85.800904,684.75879 c 12.794673,13.51078 24.151756,27.5288 41.702816,29.90013"
         style="fill:none;stroke:#4d4d4d;stroke-width:9;stroke-linecap:round;stroke-linejoin:round;stroke-miterlimit:4;stroke-opacity:1;stroke-dasharray:none" />
      <path
         sodipodi:nodetypes="cc"
         inkscape:connector-curvature="0"
         id="path3988"
         d="M 235.30154,724.10106 C 224.429,692.58729 231.73088,653.44266 224.67913,610.00847"
         style="fill:none;stroke:#4d4d4d;stroke-width:9;stroke-linecap:round;stroke-linejoin:round;stroke-miterlimit:4;stroke-opacity:1;stroke-dasharray:none" />
      <path
         sodipodi:nodetypes="cc"
         inkscape:connector-curvature="0"
         id="path3990"
         d="M 219.56463,714.65892 C 216.432,684.43225 215.65541,646.65547 214.45014,609.22163"
         style="fill:none;stroke:#4d4d4d;stroke-width:9;stroke-linecap:round;stroke-linejoin:round;stroke-miterlimit:4;stroke-opacity:1;stroke-dasharray:none" />
      <path
         sodipodi:nodetypes="cc"
         inkscape:connector-curvature="0"
         id="path3992"
         d="M 210.90933,712.69181 C 207.049,679.54178 205.24785,645.36217 203.4343,611.18874"
         style="fill:none;stroke:#4d4d4d;stroke-width:9;stroke-linecap:round;stroke-linejoin:round;stroke-miterlimit:4;stroke-opacity:1;stroke-dasharray:none" />
      <path
         sodipodi:nodetypes="cc"
         inkscape:connector-curvature="0"
         id="path3994"
         d="m 198.31981,710.33127 c -6.02318,-31.7361 -4.22272,-63.4722 -6.29477,-95.2083"
         style="fill:none;stroke:#4d4d4d;stroke-width:9;stroke-linecap:round;stroke-linejoin:round;stroke-miterlimit:4;stroke-opacity:1;stroke-dasharray:none" />
      <path
         sodipodi:nodetypes="cc"
         inkscape:connector-curvature="0"
         id="path3996"
         d="m 195.17243,696.9549 c -21.95057,-6.23329 -38.7645,-23.67377 -49.17784,-55.07918"
         style="fill:none;stroke:#4d4d4d;stroke-width:9;stroke-linecap:round;stroke-linejoin:round;stroke-miterlimit:4;stroke-opacity:1;stroke-dasharray:none" />
      <path
         sodipodi:nodetypes="cc"
         inkscape:connector-curvature="0"
         id="path3998"
         d="m 193.59873,682.79168 c -20.80121,-6.21382 -28.84105,-25.18899 -37.37515,-43.66992"
         style="fill:none;stroke:#4d4d4d;stroke-width:9;stroke-linecap:round;stroke-linejoin:round;stroke-miterlimit:4;stroke-opacity:1;stroke-dasharray:none" />
      <path
         sodipodi:nodetypes="cc"
         inkscape:connector-curvature="0"
         id="path4000"
         d="m 165.66572,634.40068 c 5.47149,19.43982 14.08081,33.38844 27.93301,38.16201"
         style="fill:none;stroke:#4d4d4d;stroke-width:9;stroke-linecap:round;stroke-linejoin:round;stroke-miterlimit:4;stroke-opacity:1;stroke-dasharray:none" />
      <path
         sodipodi:nodetypes="cc"
         inkscape:connector-curvature="0"
         id="path4002"
         d="m 173.14075,629.67961 c 3.95751,12.06325 10.86328,20.58859 20.06456,26.35932"
         style="fill:none;stroke:#4d4d4d;stroke-width:9;stroke-linecap:round;stroke-linejoin:round;stroke-miterlimit:4;stroke-opacity:1;stroke-dasharray:none" />
      <path
         sodipodi:nodetypes="cccc"
         inkscape:connector-curvature="0"
         id="path4004"
         d="m 312.48318,744.95664 c 0.4643,-19.10294 0.64099,-28.55562 -10.57128,-43.95431 M 278.54378,667.06292 C 252.7546,649.83555 241.72276,624.96574 234.58947,604.74794"
         style="fill:none;stroke:#4d4d4d;stroke-width:9;stroke-linecap:round;stroke-linejoin:round;stroke-miterlimit:4;stroke-opacity:1;stroke-dasharray:none" />
      <path
         sodipodi:nodetypes="cccc"
         inkscape:connector-curvature="0"
         id="path4006"
         d="m 321.38533,747.18217 c 0.60352,-11.04522 4.86139,-33.13355 -12.79683,-55.63837 m -22.25535,-32.27025 c -19.973,-10.64454 -33.35842,-35.49912 -44.5107,-62.31499"
         style="fill:none;stroke:#4d4d4d;stroke-width:9;stroke-linecap:round;stroke-linejoin:round;stroke-miterlimit:4;stroke-opacity:1;stroke-dasharray:none" />
      <path
         sodipodi:nodetypes="cccc"
         inkscape:connector-curvature="0"
         id="path4008"
         d="m 331.40023,752.74601 c 2.31142,-25.61306 0.75201,-48.36363 -16.13513,-69.54796 m -22.81173,-31.15749 c -16.06386,-12.2688 -31.01676,-30.65238 -41.1724,-60.64583"
         style="fill:none;stroke:#4d4d4d;stroke-width:9;stroke-linecap:round;stroke-linejoin:round;stroke-miterlimit:4;stroke-opacity:1;stroke-dasharray:none" />
      <path
         sodipodi:nodetypes="cccc"
         inkscape:connector-curvature="0"
         id="path4010"
         d="m 342.52791,758.86623 c 2.58542,-41.72878 -0.62282,-62.31498 -22.81174,-85.12671 m -20.5862,-28.93195 C 280.53559,628.1241 269.47266,610.09266 259.62673,591.95111"
         style="fill:none;stroke:#4d4d4d;stroke-width:9;stroke-linecap:round;stroke-linejoin:round;stroke-miterlimit:4;stroke-opacity:1;stroke-dasharray:none" />
      <path
         sodipodi:nodetypes="cc"
         inkscape:connector-curvature="0"
         id="path4012"
         d="m 275.20548,616.98838 c 2.61864,-10.91263 4.56322,-22.72402 2.78191,-39.50325"
         style="fill:none;stroke:#4d4d4d;stroke-width:9;stroke-linecap:round;stroke-linejoin:round;stroke-miterlimit:4;stroke-opacity:1;stroke-dasharray:none" />
      <path
         sodipodi:nodetypes="cc"
         inkscape:connector-curvature="0"
         id="path4014"
         d="m 284.10762,628.67244 c 7.99452,-14.80197 7.8735,-33.08203 5.56383,-52.30007"
         style="fill:none;stroke:#4d4d4d;stroke-width:9;stroke-linecap:round;stroke-linejoin:round;stroke-miterlimit:4;stroke-opacity:1;stroke-dasharray:none" />
      <path
         sodipodi:nodetypes="cc"
         inkscape:connector-curvature="0"
         id="path4016"
         d="m 291.89699,637.57458 c 12.61441,-33.57092 10.89083,-46.54676 8.34575,-63.42775"
         style="fill:none;stroke:#4d4d4d;stroke-width:9;stroke-linecap:round;stroke-linejoin:round;stroke-miterlimit:4;stroke-opacity:1;stroke-dasharray:none" />
      <path
         sodipodi:nodetypes="cc"
         inkscape:connector-curvature="0"
         id="path4018"
         d="m 308.5885,634.23627 c 4.51659,-25.59919 5.99975,-42.47538 3.89469,-62.31497"
         style="fill:none;stroke:#4d4d4d;stroke-width:9;stroke-linecap:round;stroke-linejoin:round;stroke-miterlimit:4;stroke-opacity:1;stroke-dasharray:none" />
      <path
         sodipodi:nodetypes="cc"
         inkscape:connector-curvature="0"
         id="path4020"
         d="m 326.57561,680.43114 c 31.24022,-37.076 78.40618,-52.4543 107.4044,-82.61877"
         style="fill:none;stroke:#4d4d4d;stroke-width:9;stroke-linecap:round;stroke-linejoin:round;stroke-miterlimit:4;stroke-opacity:1;stroke-dasharray:none" />
      <path
         sodipodi:nodetypes="cc"
         inkscape:connector-curvature="0"
         id="path4022"
         d="m 333.2638,690.26671 c 38.42428,-42.69972 79.99595,-47.45292 110.55178,-88.52011"
         style="fill:none;stroke:#4d4d4d;stroke-width:9;stroke-linecap:round;stroke-linejoin:round;stroke-miterlimit:4;stroke-opacity:1;stroke-dasharray:none" />
      <path
         sodipodi:nodetypes="cc"
         inkscape:connector-curvature="0"
         id="path4024"
         d="m 338.77171,704.42993 c 38.4849,-48.42074 88.27498,-54.97627 114.48601,-95.60172"
         style="fill:none;stroke:#4d4d4d;stroke-width:9;stroke-linecap:round;stroke-linejoin:round;stroke-miterlimit:4;stroke-opacity:1;stroke-dasharray:none" />
      <path
         sodipodi:nodetypes="cc"
         inkscape:connector-curvature="0"
         id="path4026"
         d="M 342.31252,717.8063 C 373.6552,676.14966 442.37303,653.41736 461.91302,615.12297"
         style="fill:none;stroke:#4d4d4d;stroke-width:9;stroke-linecap:round;stroke-linejoin:round;stroke-miterlimit:4;stroke-opacity:1;stroke-dasharray:none" />
      <path
         sodipodi:nodetypes="cc"
         inkscape:connector-curvature="0"
         id="path4028"
         d="m 446.17611,711.90496 c 12.24685,-32.95448 29.61471,-52.74066 49.17784,-66.88186"
         style="fill:none;stroke:#4d4d4d;stroke-width:9;stroke-linecap:round;stroke-linejoin:round;stroke-miterlimit:4;stroke-opacity:1;stroke-dasharray:none" />
      <path
         sodipodi:nodetypes="cc"
         inkscape:connector-curvature="0"
         id="path4030"
         d="m 441.84846,701.28255 c 3.7896,-15.48812 24.64031,-55.61793 50.35811,-65.30818"
         style="fill:none;stroke:#4d4d4d;stroke-width:9;stroke-linecap:round;stroke-linejoin:round;stroke-miterlimit:4;stroke-opacity:1;stroke-dasharray:none" />
      <path
         sodipodi:nodetypes="cc"
         inkscape:connector-curvature="0"
         id="path4032"
         d="m 435.94712,689.87329 c 12.93464,-30.87638 29.56525,-53.95018 51.9318,-64.91475"
         style="fill:none;stroke:#4d4d4d;stroke-width:9;stroke-linecap:round;stroke-linejoin:round;stroke-miterlimit:4;stroke-opacity:1;stroke-dasharray:none" />
      <path
         sodipodi:nodetypes="cc"
         inkscape:connector-curvature="0"
         id="path4034"
         d="m 430.83263,681.21799 c 15.48373,-35.87801 33.83896,-54.527 53.50549,-65.30818"
         style="fill:none;stroke:#4d4d4d;stroke-width:9;stroke-linecap:round;stroke-linejoin:round;stroke-miterlimit:4;stroke-opacity:1;stroke-dasharray:none" />
      <path
         sodipodi:nodetypes="cccc"
         inkscape:connector-curvature="0"
         id="path4036"
         d="m 356.47574,779.96709 c 15.94675,-23.43067 34.60779,-42.19778 60.58709,-48.39099 m 31.0804,-15.34349 c 45.88412,-20.34288 33.30888,-34.83344 62.16078,-79.07797"
         style="fill:none;stroke:#4d4d4d;stroke-width:9;stroke-linecap:round;stroke-linejoin:round;stroke-miterlimit:4;stroke-opacity:1;stroke-dasharray:none" />
      <path
         sodipodi:nodetypes="cccc"
         inkscape:connector-curvature="0"
         id="path4038"
         d="m 360.01654,792.95004 c 15.3959,-24.48553 34.19241,-43.68122 59.01341,-53.50549 m 32.26066,-13.76979 c 57.37992,-20.83337 41.152,-46.39465 69.2424,-84.58589"
         style="fill:none;stroke:#4d4d4d;stroke-width:9;stroke-linecap:round;stroke-linejoin:round;stroke-miterlimit:4;stroke-opacity:1;stroke-dasharray:none" />
      <path
         sodipodi:nodetypes="cccc"
         inkscape:connector-curvature="0"
         id="path4040"
         d="m 361.59023,804.3593 c 17.73237,-21.00559 34.0385,-44.15055 59.80025,-53.11207 m 31.47382,-14.55664 c 56.29264,-16.14447 48.14913,-51.52205 77.11085,-91.66749"
         style="fill:none;stroke:#4d4d4d;stroke-width:9;stroke-linecap:round;stroke-linejoin:round;stroke-miterlimit:4;stroke-opacity:1;stroke-dasharray:none" />
      <path
         sodipodi:nodetypes="cccc"
         inkscape:connector-curvature="0"
         id="path4042"
         d="m 361.98365,826.39097 c 13.90959,-21.98877 24.86774,-44.38 60.98052,-63.34106 m 31.86724,-16.91718 c 50.04508,-12.5219 57.35012,-44.50919 83.01219,-92.0609"
         style="fill:none;stroke:#4d4d4d;stroke-width:9;stroke-linecap:round;stroke-linejoin:round;stroke-miterlimit:4;stroke-opacity:1;stroke-dasharray:none" />
      <path
         sodipodi:nodetypes="cc"
         inkscape:connector-curvature="0"
         id="path4044"
         d="m 454.43799,778.78682 c 70.88885,-37.69669 84.30391,22.62166 149.50063,-3.5408"
         style="fill:none;stroke:#4d4d4d;stroke-width:9;stroke-linecap:round;stroke-linejoin:round;stroke-miterlimit:4;stroke-opacity:1;stroke-dasharray:none" />
      <path
         sodipodi:nodetypes="cc"
         inkscape:connector-curvature="0"
         id="path4046"
         d="m 453.25772,790.98293 c 82.51946,-36.99316 76.92372,27.65404 154.61513,-7.08161"
         style="fill:none;stroke:#4d4d4d;stroke-width:9;stroke-linecap:round;stroke-linejoin:round;stroke-miterlimit:4;stroke-opacity:1;stroke-dasharray:none" />
      <path
         sodipodi:nodetypes="cc"
         inkscape:connector-curvature="0"
         id="path4048"
         d="m 449.71692,801.60534 c 73.46133,-32.69845 81.99553,26.84678 160.12304,-6.29477"
         style="fill:none;stroke:#4d4d4d;stroke-width:9;stroke-linecap:round;stroke-linejoin:round;stroke-miterlimit:4;stroke-opacity:1;stroke-dasharray:none" />
      <path
         sodipodi:nodetypes="cc"
         inkscape:connector-curvature="0"
         id="path4050"
         d="m 444.60242,815.37513 c 92.84341,-38.82913 83.83643,35.74129 181.76129,-14.95006"
         style="fill:none;stroke:#4d4d4d;stroke-width:9;stroke-linecap:round;stroke-linejoin:round;stroke-miterlimit:4;stroke-opacity:1;stroke-dasharray:none" />
      <path
         sodipodi:nodetypes="ccc"
         inkscape:connector-curvature="0"
         id="path4052"
         d="m 347.42701,1039.2327 c 0.69461,-122.13835 2.05988,-118.24276 57.83315,-168.77839 109.89146,-54.28772 127.74616,70.40774 228.97201,67.27529"
         style="fill:none;stroke:#4d4d4d;stroke-width:9;stroke-linecap:round;stroke-linejoin:round;stroke-miterlimit:4;stroke-opacity:1;stroke-dasharray:none" />
      <path
         sodipodi:nodetypes="cc"
         inkscape:connector-curvature="0"
         id="path4054"
         d="m 416.66941,852.35687 c 111.35285,-41.61 121.96104,78.81568 220.71014,73.96347"
         style="fill:none;stroke:#4d4d4d;stroke-width:9;stroke-linecap:round;stroke-linejoin:round;stroke-miterlimit:4;stroke-opacity:1;stroke-dasharray:none" />
      <path
         sodipodi:nodetypes="csc"
         inkscape:connector-curvature="0"
         id="path4056"
         d="m 356.47574,1039.2327 c 2.05841,-51.08052 3.59081,-104.12667 11.46053,-113.88507 115.7426,-143.51989 159.65944,40.04695 264.32878,23.39781"
         style="fill:none;stroke:#4d4d4d;stroke-width:9;stroke-linecap:round;stroke-linejoin:round;stroke-miterlimit:4;stroke-opacity:1;stroke-dasharray:none" />
      <path
         sodipodi:nodetypes="ccc"
         inkscape:connector-curvature="0"
         id="path4058"
         d="m 368.12156,1038.7273 c 3.87039,-76.43033 -7.46881,-108.78413 40.61601,-138.5396 94.95151,-58.50167 117.52364,74.32636 226.44818,62.31498"
         style="fill:none;stroke:#4d4d4d;stroke-width:9;stroke-linecap:round;stroke-linejoin:round;stroke-miterlimit:4;stroke-opacity:1;stroke-dasharray:none" />
      <path
         sodipodi:nodetypes="cc"
         inkscape:connector-curvature="0"
         id="path4060"
         d="m 490.52598,729.93428 c 35.39577,36.03995 74.97791,34.40258 116.2842,17.2479"
         style="fill:none;stroke:#4d4d4d;stroke-width:9;stroke-linecap:round;stroke-linejoin:round;stroke-miterlimit:4;stroke-opacity:1;stroke-dasharray:none" />
      <path
         sodipodi:nodetypes="cc"
         inkscape:connector-curvature="0"
         id="path4062"
         d="m 498.87174,722.14491 c 29.48615,28.45853 67.9102,28.75225 104.60014,16.69151"
         style="fill:none;stroke:#4d4d4d;stroke-width:9;stroke-linecap:round;stroke-linejoin:round;stroke-miterlimit:4;stroke-opacity:1;stroke-dasharray:none" />
      <path
         sodipodi:nodetypes="cc"
         inkscape:connector-curvature="0"
         id="path4064"
         d="m 505.54834,713.24277 c 35.62305,30.14256 65.91241,24.28268 95.698,15.02236"
         style="fill:none;stroke:#4d4d4d;stroke-width:9;stroke-linecap:round;stroke-linejoin:round;stroke-miterlimit:4;stroke-opacity:1;stroke-dasharray:none" />
      <path
         sodipodi:nodetypes="cc"
         inkscape:connector-curvature="0"
         id="path4066"
         d="m 511.11218,703.78425 c 29.48834,25.45832 58.97667,19.27991 88.46501,14.46597"
         style="fill:none;stroke:#4d4d4d;stroke-width:9;stroke-linecap:round;stroke-linejoin:round;stroke-miterlimit:4;stroke-opacity:1;stroke-dasharray:none" />
      <path
         sodipodi:nodetypes="cccc"
         inkscape:connector-curvature="0"
         id="path4068"
         d="m 532.81114,875.70682 c 9.12196,-3.59244 16.15943,-7.87782 22.20956,-12.71452 m 24.96387,-25.78388 c 10.44907,-11.54067 23.33807,-24.23503 45.74266,-37.16979"
         style="fill:none;stroke:#4d4d4d;stroke-width:9;stroke-linecap:round;stroke-linejoin:round;stroke-miterlimit:4;stroke-opacity:1;stroke-dasharray:none" />
      <path
         sodipodi:nodetypes="cccc"
         inkscape:connector-curvature="0"
         id="path4070"
         d="m 545.05159,886.27811 c 5.98916,-5.28397 9.15306,-8.18701 14.11952,-13.14395 m 27.41156,-28.77114 c 14.35778,-15.23582 27.6358,-27.85084 48.0467,-37.0914"
         style="fill:none;stroke:#4d4d4d;stroke-width:9;stroke-linecap:round;stroke-linejoin:round;stroke-miterlimit:4;stroke-opacity:1;stroke-dasharray:none" />
      <path
         sodipodi:nodetypes="cccc"
         inkscape:connector-curvature="0"
         id="path4072"
         d="m 555.62288,895.73663 c 4.53545,-4.6613 9.0531,-9.44722 13.56595,-14.26677 m 27.64659,-28.53536 c 13.42755,-13.67958 24.80071,-24.49204 38.90671,-33.42244"
         style="fill:none;stroke:#4d4d4d;stroke-width:9;stroke-linecap:round;stroke-linejoin:round;stroke-miterlimit:4;stroke-opacity:1;stroke-dasharray:none" />
      <path
         sodipodi:nodetypes="cccc"
         inkscape:connector-curvature="0"
         id="path4074"
         d="m 566.75055,903.52601 c 4.30819,-4.65869 8.26376,-9.01123 11.9202,-13.08431 M 604.473,861.14183 c 12.87434,-14.51794 21.52248,-23.05892 34.60744,-29.94571"
         style="fill:none;stroke:#4d4d4d;stroke-width:9;stroke-linecap:round;stroke-linejoin:round;stroke-miterlimit:4;stroke-opacity:1;stroke-dasharray:none" />
      <path
         sodipodi:nodetypes="cccccc"
         inkscape:connector-curvature="0"
         id="path4076"
         d="m 640.1932,911.31538 c -56.42051,2.41678 -92.96747,-43.17989 -106.41706,-99.0007 m -5.66238,-41.83431 c -0.17596,-4.98069 -0.17917,-9.96911 -0.008,-14.94201 m 4.88561,-37.93102 c 3.47217,-15.08518 8.76899,-29.40183 15.95454,-42.19866"
         style="fill:none;stroke:#4d4d4d;stroke-width:9;stroke-linecap:round;stroke-linejoin:round;stroke-miterlimit:4;stroke-opacity:1;stroke-dasharray:none" />
      <path
         sodipodi:nodetypes="cccccc"
         inkscape:connector-curvature="0"
         id="path4078"
         d="m 558.96118,679.85974 c -8.47676,12.81045 -14.47672,26.53427 -18.27774,40.63837 m -5.10102,36.68939 c -0.10077,5.95979 0.13607,11.90656 0.69068,17.80223 m 9.27075,41.20731 c 14.29548,47.933 50.07907,83.36533 95.20574,83.99066"
         style="fill:none;stroke:#4d4d4d;stroke-width:9;stroke-linecap:round;stroke-linejoin:round;stroke-miterlimit:4;stroke-opacity:1;stroke-dasharray:none" />
      <path
         sodipodi:nodetypes="cccccc"
         inkscape:connector-curvature="0"
         id="path4080"
         d="M 642.41874,886.83449 C 607.7265,888.03394 573.82255,860.10364 557.68442,818.248 m -9.1265,-39.36738 c -0.59838,-6.51697 -0.78967,-13.20521 -0.53298,-20.02811 m 5.66028,-36.78035 c 3.41933,-12.62025 8.44237,-25.45903 15.29087,-38.31773"
         style="fill:none;stroke:#4d4d4d;stroke-width:9;stroke-linecap:round;stroke-linejoin:round;stroke-miterlimit:4;stroke-opacity:1;stroke-dasharray:none" />
      <path
         sodipodi:nodetypes="cccccc"
         inkscape:connector-curvature="0"
         id="path4082"
         d="m 639.63682,875.15043 c -24.65905,-3.25112 -55.39822,-22.81534 -71.56891,-56.29357 m -10.5822,-38.36306 c -0.65288,-6.85858 -0.74718,-14.05762 -0.19646,-21.58707 m 7.54524,-37.3981 c 3.65611,-11.29839 8.67892,-23.14906 15.26927,-35.52866"
         style="fill:none;stroke:#4d4d4d;stroke-width:9;stroke-linecap:round;stroke-linejoin:round;stroke-miterlimit:4;stroke-opacity:1;stroke-dasharray:none" />
    </g>
    <g
       id="g4463"
       transform="translate(-22.769728,-152.88246)">
      <path
         sodipodi:nodetypes="ssccsssssscss"
         inkscape:connector-curvature="0"
         id="path3643"
         d="m 404.73143,613.17482 c -8.26755,0.0238 -14.06278,0.14489 -19.59375,0.40625 -13.96873,0.66007 -25.81593,0.77719 -77.53125,0.40625 -12.09649,4.79861 -11.40177,30.76649 1.53735,41.16866 5.41202,-0.21213 21.68886,0.12799 25.65043,-0.11248 4.26383,-0.25881 14.82557,0.90893 32.28097,0.47507 17.45541,-0.43386 56.50091,-1.783 86.75,-3 30.24908,-1.217 64.29653,-2.35414 75.6875,-2.5 41.15847,-0.527 55.68945,-4.27955 59.3125,-15.34375 3.11376,-9.50888 -0.65441,-13.51564 -16.71875,-17.8125 -12.33211,-3.29856 -47.67128,-4.61979 -73.15625,-2.71875 -2.44784,0.18266 -12.22548,0.17988 -21.71875,0 -38.02868,-0.72059 -58.72074,-1.00844 -72.5,-0.96875 z"
         style="fill:#ffffff" />
      <path
         inkscape:connector-curvature="0"
         id="path3690"
         d="m 589.29393,633.01857 c -5.1699,2.10578 -15.13218,6.56829 -16.8125,7.0625 -3.39199,0.99765 -7.08482,1.50804 -10.5625,0.8125 -0.89748,-0.17949 -1.88406,-1.07423 -2.84375,-0.8125 -6.62471,1.80674 -12.64714,2.97096 -19.5,3.65625 -3.29874,0.32987 -12.33694,1.10056 -15.0625,-1.625 -0.6894,-0.6894 -0.1717,-3.13272 -1.21875,-3.65625 -2.7913,-1.39565 -12.5368,3.40111 -15.84375,4.0625 -4.17914,0.83583 -5.54209,0.29145 -8.5625,-1.21875 -0.5101,-0.25505 -0.5423,-1.6588 -0.8125,-1.625 -8.29694,1.03712 -16.46421,4.70758 -24.78125,6.09375 -13.88738,2.31457 -3.20718,-5.17719 -11,-4.46875 -9.86088,0.89644 -19.82948,1.53352 -29.65625,2.84375 -7.38329,0.98444 -15.34446,2.84375 -22.78125,2.84375 -6.13258,0 -12.17867,-1.21875 -18.3125,-1.21875 -5.10803,0 -12.74397,4.19369 -17.46875,2.84375 -1.51898,-0.434 -2.42148,-1.41387 -3.65625,-2.03125 -2.11982,-1.05991 -4.6811,-0.61189 -6.90625,-1.21875 -1.94399,-0.53018 -2.86429,-1.22902 -4.46875,-2.03125 -1.51131,-0.75566 -10.08443,1.68564 -11.8125,2.03125 -1.4463,0.28926 -3.74436,-1.1747 -5.28125,-0.40625 -1.65347,0.82673 -4.18649,0.45585 -6.09375,1.21875 -4.03235,1.61295 -8.39058,3.76563 -13,2.84375 -2.87608,-0.57522 -0.51765,-5.62228 -4.90625,-6.5 -1.54656,-0.30931 -3.38618,-0.58631 -4.875,0.40625 -2.93708,1.95805 -5.20914,5.21998 -7.40625,8.75 1.03695,1.29263 2.19334,2.44341 3.46875,3.46875 5.41202,-0.21213 21.69468,0.14672 25.65625,-0.0937 4.26383,-0.25881 14.82585,0.90261 32.28125,0.46875 17.45541,-0.43386 56.50091,-1.783 86.75,-3 30.24908,-1.217 64.29653,-2.35414 75.6875,-2.5 41.15847,-0.527 55.68945,-4.27955 59.3125,-15.34375 0.18714,-0.57148 0.3325,-1.12326 0.46875,-1.65625 z"
         style="fill:#e2d7d7;fill-opacity:1;stroke:#000000;stroke-width:1px;stroke-linecap:butt;stroke-linejoin:miter;stroke-opacity:0" />
      <path
         inkscape:connector-curvature="0"
         id="path3685"
         d="m 404.73143,613.17482 c -8.26755,0.0238 -14.06278,0.14489 -19.59375,0.40625 -13.96873,0.66007 -25.81593,0.77719 -77.53125,0.40625 -3.64004,1.44398 -6.13033,4.81694 -7.46875,9.09375 0.28557,0.54065 0.67252,1.04752 1.15625,1.53125 1.22637,1.22638 3.00997,1.52575 4.46875,2.4375 2.80638,1.75398 6.61389,3.95847 10.15625,3.25 3.4196,-0.68392 4.25317,-6.63781 11,-7.3125 6.40207,-0.6402 9.79735,4.45928 13.8125,3.65625 6.71209,-1.34242 11.84319,-6.34364 18.71875,-7.71875 7.0723,-1.41446 15.96077,12.96099 20.71875,11.375 7.22167,-2.40723 11.0865,-12.1875 19.53125,-12.1875 2.80347,0 4.4778,2.84375 7.3125,2.84375 5.16143,0 14.05371,-0.97754 17.875,2.84375 0.41311,0.41311 3.08415,-0.044 3.65625,0 4.13104,0.31777 8.14411,1.35214 12.21875,2.03125 2.03001,0.33833 4.83946,-1.48721 6.90625,-1.625 4.89588,-0.32639 9.7484,0.16282 14.625,-0.8125 8.75339,-1.75068 17.35193,-5.87961 26.4375,-4.0625 3.03888,0.60778 4.50012,5.90631 7.3125,7.3125 1.37922,0.6896 5.3224,-1.76206 6.9375,-2.03125 0.54755,-0.0913 5.37253,-0.6322 6.09375,-0.8125 10.45125,-2.61282 5.04523,-7.0636 17.46875,1.21875 0.72209,0.48139 1.20795,1.35056 2.03125,1.625 1.25256,0.41751 22.7819,-2.70855 24.40625,-3.25 8.25001,-2.75001 28.95119,10.85475 35.78125,1.875 -2.06466,-3.47579 -7.25681,-5.8921 -16.65625,-8.40625 -12.33211,-3.29856 -47.67128,-4.61979 -73.15625,-2.71875 -2.44784,0.18266 -12.22548,0.17988 -21.71875,0 -38.02868,-0.72059 -58.72074,-1.00844 -72.5,-0.96875 z"
         style="fill:#dfdfdf;fill-opacity:1;stroke:#ffffff;stroke-width:1px;stroke-linecap:butt;stroke-linejoin:miter;stroke-opacity:0" />
      <path
         inkscape:connector-curvature="0"
         id="path3665"
         d="m 148.91682,660.1222 c -0.63704,-1.70114 -1.11868,-5.07019 -1.07031,-7.48679 0.0508,-2.53867 -1.72943,-5.14248 -4.2164,-6.16694 -8.38679,-3.45478 -10.09984,-19.61562 -2.38912,-22.53884 6.5742,-2.49235 59.06305,-9.5203 75.6469,-10.12869 38.12189,-1.39851 92.34054,-0.78241 93.90073,1.06701 0.90876,1.07724 2.40711,6.86751 3.32967,12.86727 2.05232,13.34699 -0.46824,25.79166 -5.43452,26.83178 -12.33869,2.5842 -95.40481,2.15509 -121.90299,-0.62975 -14.04673,-1.47623 -22.85979,-1.44663 -23.36342,0.0785 -0.44474,1.34689 -0.0542,2.69593 0.86784,2.99787 4.44197,1.45455 103.75478,5.56462 106.07352,4.38985 1.46358,-0.74151 7.19911,-2.42777 11.571,0.77056 4.21584,3.08416 3.75706,2.95447 2.85511,5.70887 -0.98903,3.02033 -10.8631,3.23245 -62.21571,1.33653 -61.69698,-2.27784 -71.55453,-3.4954 -73.6523,-9.09723 z"
         style="fill:#000000" />
      <path
         inkscape:connector-curvature="0"
         id="path3663"
         d="m 402.73143,624.61232 c -0.38089,0.0303 -1.0486,0.7905 -2.1875,2.15625 -1.77841,2.13261 -2.99212,2.36991 -3.40625,0.65625 -0.89513,-3.70396 -12.54742,-3.29899 -17.78125,0.625 -5.91187,4.43232 -4.78727,8.82445 2.90625,11.34375 3.65897,1.19815 6.40626,2.95188 6.09375,3.90625 -0.77637,2.3709 -10.78196,4.91222 -17.5,4.4375 -3.03104,-0.21419 -5.27994,0.56043 -5,1.71875 0.68017,2.81454 1.29476,2.90943 9.40625,1.59375 3.83756,-0.62243 7.26813,-0.54818 7.625,0.15625 0.3569,0.70441 3.52893,1.22275 7.03125,1.15625 5.3717,-0.10194 6.76546,-1.22064 8.96875,-7.1875 1.66515,-4.50948 2.41052,-5.39614 2.03125,-2.40625 -0.32718,2.57942 0.45115,5.06668 1.71875,5.5 1.35616,0.46364 0.81562,1.16705 -1.28125,1.71875 -1.95992,0.51568 -2.91946,1.13897 -2.15625,1.40625 2.66606,0.93692 26.04299,-0.52202 25.5,-1.59375 -0.30131,-0.59474 -4.18538,-0.82167 -8.625,-0.46875 -12.51314,0.99471 -12.3326,-0.48028 0.25,-2.125 7.50779,-0.98138 11.46623,-0.62893 11.875,1.0625 0.3962,1.6395 1.60491,1.62479 3.4375,-0.0625 3.55007,-3.26858 16.3574,-3.1259 16.375,0.1875 0.0154,2.90948 12.36401,1.48994 14.6875,-1.6875 1.67605,-2.29206 -3.68544,-3.98378 -8.6875,-2.75 -1.84137,0.45418 -1.98366,-0.50582 -0.4375,-2.90625 1.26166,-1.95872 2.2238,-5.18055 2.125,-7.15625 -0.14554,-2.9109 -0.89921,-3.31308 -3.90625,-2.125 -3.03519,1.19918 -3.50801,0.88408 -2.625,-1.8125 0.60216,-1.83889 -0.0329,-3.02695 -1.4375,-2.6875 -1.38502,0.33472 -2.4599,1.98944 -2.375,3.6875 0.11089,2.21784 -1.47501,2.55668 -5.65625,1.1875 -5.20492,-1.70438 -6.05154,-1.24507 -8.15625,4.375 -1.70207,4.54494 -2.21146,4.98523 -1.78125,1.59375 0.57662,-4.54578 -6.24514,-9.36675 -7.5625,-5.34375 -0.32857,1.00341 -2.68647,1.44766 -5.21875,1 -3.22254,-0.56969 -5.55739,0.82599 -7.78125,4.65625 -2.45448,4.22744 -2.87425,4.46664 -1.9375,1 0.66695,-2.46815 -0.008,-4.8865 -1.5,-5.375 -1.49181,-0.48851 -2.66045,-3.0853 -2.59375,-5.75 0.0646,-2.58006 0.0522,-3.72643 -0.4375,-3.6875 z m -12.6875,4.59375 c 1.90645,0.0243 2.1775,1.10108 0.53125,3.125 -2.84451,3.49704 -0.0592,4.10099 4.78125,1.03125 3.36338,-2.13302 3.63664,-2.0988 1.90625,0.34375 -1.1179,1.57798 -1.36407,4.1679 -0.5625,5.75 2.13873,4.22141 -0.005,4.16208 -5.96875,-0.15625 -2.89552,-2.09662 -6.44226,-4.62626 -7.90625,-5.625 -2.17998,-1.48718 -1.80574,-2.07045 2.0625,-3.34375 2.28793,-0.75311 4.01238,-1.1396 5.15625,-1.125 z m 4.1875,17.34375 c 1.64194,-0.13782 1.96948,1.15889 -0.25,3.03125 -1.08745,0.91738 -2.91572,1.37552 -4.0625,1 -1.30014,-0.42574 -0.7817,-1.51798 1.375,-2.875 1.17195,-0.7374 2.19116,-1.0936 2.9375,-1.15625 z"
         style="fill:#000000" />
      <path
         inkscape:connector-curvature="0"
         id="path3657"
         d="m 436.58927,648.48876 c 1.95989,-0.51568 4.87104,-0.45571 6.46921,0.13326 1.91598,0.7061 1.38206,1.20745 -1.56744,1.47186 -6.14863,0.55118 -9.24435,-0.46254 -4.90177,-1.60512 z"
         style="fill:#000000" />
      <path
         inkscape:connector-curvature="0"
         id="path3655"
         d="m 469.25336,639.10027 c 0.4484,-8.20087 1.477,-9.32718 8.6428,-9.46317 6.653,-0.12626 9.5148,2.40215 8.0842,7.14225 -0.2161,0.71297 1.5385,1.41404 3.8974,1.55734 6.4844,0.39393 1.0291,5.99962 -6.2207,6.3922 -11.6266,0.62959 -14.6805,-0.5638 -14.4037,-5.62862 z"
         style="fill:#000000" />
      <path
         inkscape:connector-curvature="0"
         id="path3653"
         d="m 510.20018,625.42482 c -2.5954,0.11779 -5.20676,1.21175 -7.40625,3.375 -6.5988,6.49009 -7.3992,9.88263 -3.5625,15 7.5487,10.0685 26.7468,0.10623 21.6875,-11.25 -2.14119,-4.80633 -6.39309,-7.32132 -10.71875,-7.125 z m -1.3125,3.59375 c 0.44045,-0.0458 1.0452,0.0608 1.8125,0.3125 1.3477,0.44217 1.8521,3.06637 1.125,5.8125 -1.5918,6.01233 -1.6052,6.00282 -3.0625,0.0937 -1.09035,-4.41868 -1.19634,-6.08138 0.125,-6.21875 z m -4.3125,1.46875 c 0.27117,-0.0296 0.52738,0.0799 0.75,0.34375 0.8601,1.01961 1.1755,3.07221 0.6875,4.5625 -0.488,1.4903 -1.9534,2.96789 -3.25,3.28125 -1.3424,0.32441 -1.6446,-1.63965 -0.6875,-4.5625 0.71783,-2.19214 1.68649,-3.53616 2.5,-3.625 z m 12.84375,7.8125 c 0.31487,-0.0412 -0.42476,0.75996 -2.15625,2.5625 -1.8541,1.93025 -5.33855,3.39458 -7.71875,3.25 -2.3802,-0.1446 -3.5495,-0.90757 -2.625,-1.6875 0.9245,-0.77997 2.61585,-1.10039 3.78125,-0.71875 1.1655,0.38164 3.88695,-0.42514 6.03125,-1.8125 1.5575,-1.00767 2.4426,-1.56174 2.6875,-1.59375 z"
         style="fill:#000000" />
    </g>
    <g
       transform="matrix(0.99432818,-0.10635541,0.10635541,0.99432818,-45.39714,-69.414772)"
       id="g4473">
      <path
         style="fill:#ffffff"
         d="m 404.73143,613.17482 c -8.26755,0.0238 -14.06278,0.14489 -19.59375,0.40625 -13.96873,0.66007 -25.81593,0.77719 -77.53125,0.40625 -12.09649,4.79861 -11.40177,30.76649 1.53735,41.16866 5.41202,-0.21213 21.68886,0.12799 25.65043,-0.11248 4.26383,-0.25881 14.82557,0.90893 32.28097,0.47507 17.45541,-0.43386 56.50091,-1.783 86.75,-3 30.24908,-1.217 64.29653,-2.35414 75.6875,-2.5 41.15847,-0.527 55.68945,-4.27955 59.3125,-15.34375 3.11376,-9.50888 -0.65441,-13.51564 -16.71875,-17.8125 -12.33211,-3.29856 -47.67128,-4.61979 -73.15625,-2.71875 -2.44784,0.18266 -12.22548,0.17988 -21.71875,0 -38.02868,-0.72059 -58.72074,-1.00844 -72.5,-0.96875 z"
         id="path4475"
         inkscape:connector-curvature="0"
         sodipodi:nodetypes="ssccsssssscss" />
      <path
         style="fill:#e2d7d7;fill-opacity:1;stroke:#000000;stroke-width:1px;stroke-linecap:butt;stroke-linejoin:miter;stroke-opacity:0"
         d="m 589.29393,633.01857 c -5.1699,2.10578 -15.13218,6.56829 -16.8125,7.0625 -3.39199,0.99765 -7.08482,1.50804 -10.5625,0.8125 -0.89748,-0.17949 -1.88406,-1.07423 -2.84375,-0.8125 -6.62471,1.80674 -12.64714,2.97096 -19.5,3.65625 -3.29874,0.32987 -12.33694,1.10056 -15.0625,-1.625 -0.6894,-0.6894 -0.1717,-3.13272 -1.21875,-3.65625 -2.7913,-1.39565 -12.5368,3.40111 -15.84375,4.0625 -4.17914,0.83583 -5.54209,0.29145 -8.5625,-1.21875 -0.5101,-0.25505 -0.5423,-1.6588 -0.8125,-1.625 -8.29694,1.03712 -16.46421,4.70758 -24.78125,6.09375 -13.88738,2.31457 -3.20718,-5.17719 -11,-4.46875 -9.86088,0.89644 -19.82948,1.53352 -29.65625,2.84375 -7.38329,0.98444 -15.34446,2.84375 -22.78125,2.84375 -6.13258,0 -12.17867,-1.21875 -18.3125,-1.21875 -5.10803,0 -12.74397,4.19369 -17.46875,2.84375 -1.51898,-0.434 -2.42148,-1.41387 -3.65625,-2.03125 -2.11982,-1.05991 -4.6811,-0.61189 -6.90625,-1.21875 -1.94399,-0.53018 -2.86429,-1.22902 -4.46875,-2.03125 -1.51131,-0.75566 -10.08443,1.68564 -11.8125,2.03125 -1.4463,0.28926 -3.74436,-1.1747 -5.28125,-0.40625 -1.65347,0.82673 -4.18649,0.45585 -6.09375,1.21875 -4.03235,1.61295 -8.39058,3.76563 -13,2.84375 -2.87608,-0.57522 -0.51765,-5.62228 -4.90625,-6.5 -1.54656,-0.30931 -3.38618,-0.58631 -4.875,0.40625 -2.93708,1.95805 -5.20914,5.21998 -7.40625,8.75 1.03695,1.29263 2.19334,2.44341 3.46875,3.46875 5.41202,-0.21213 21.69468,0.14672 25.65625,-0.0937 4.26383,-0.25881 14.82585,0.90261 32.28125,0.46875 17.45541,-0.43386 56.50091,-1.783 86.75,-3 30.24908,-1.217 64.29653,-2.35414 75.6875,-2.5 41.15847,-0.527 55.68945,-4.27955 59.3125,-15.34375 0.18714,-0.57148 0.3325,-1.12326 0.46875,-1.65625 z"
         id="path4477"
         inkscape:connector-curvature="0" />
      <path
         style="fill:#dfdfdf;fill-opacity:1;stroke:#ffffff;stroke-width:1px;stroke-linecap:butt;stroke-linejoin:miter;stroke-opacity:0"
         d="m 404.73143,613.17482 c -8.26755,0.0238 -14.06278,0.14489 -19.59375,0.40625 -13.96873,0.66007 -25.81593,0.77719 -77.53125,0.40625 -3.64004,1.44398 -6.13033,4.81694 -7.46875,9.09375 0.28557,0.54065 0.67252,1.04752 1.15625,1.53125 1.22637,1.22638 3.00997,1.52575 4.46875,2.4375 2.80638,1.75398 6.61389,3.95847 10.15625,3.25 3.4196,-0.68392 4.25317,-6.63781 11,-7.3125 6.40207,-0.6402 9.79735,4.45928 13.8125,3.65625 6.71209,-1.34242 11.84319,-6.34364 18.71875,-7.71875 7.0723,-1.41446 15.96077,12.96099 20.71875,11.375 7.22167,-2.40723 11.0865,-12.1875 19.53125,-12.1875 2.80347,0 4.4778,2.84375 7.3125,2.84375 5.16143,0 14.05371,-0.97754 17.875,2.84375 0.41311,0.41311 3.08415,-0.044 3.65625,0 4.13104,0.31777 8.14411,1.35214 12.21875,2.03125 2.03001,0.33833 4.83946,-1.48721 6.90625,-1.625 4.89588,-0.32639 9.7484,0.16282 14.625,-0.8125 8.75339,-1.75068 17.35193,-5.87961 26.4375,-4.0625 3.03888,0.60778 4.50012,5.90631 7.3125,7.3125 1.37922,0.6896 5.3224,-1.76206 6.9375,-2.03125 0.54755,-0.0913 5.37253,-0.6322 6.09375,-0.8125 10.45125,-2.61282 5.04523,-7.0636 17.46875,1.21875 0.72209,0.48139 1.20795,1.35056 2.03125,1.625 1.25256,0.41751 22.7819,-2.70855 24.40625,-3.25 8.25001,-2.75001 28.95119,10.85475 35.78125,1.875 -2.06466,-3.47579 -7.25681,-5.8921 -16.65625,-8.40625 -12.33211,-3.29856 -47.67128,-4.61979 -73.15625,-2.71875 -2.44784,0.18266 -12.22548,0.17988 -21.71875,0 -38.02868,-0.72059 -58.72074,-1.00844 -72.5,-0.96875 z"
         id="path4479"
         inkscape:connector-curvature="0" />
      <path
         style="fill:#ff0000"
         d="m 148.91682,660.1222 c -0.63704,-1.70114 -1.11868,-5.07019 -1.07031,-7.48679 0.0508,-2.53867 -1.72943,-5.14248 -4.2164,-6.16694 -8.38679,-3.45478 -10.09984,-19.61562 -2.38912,-22.53884 6.5742,-2.49235 59.06305,-9.5203 75.6469,-10.12869 38.12189,-1.39851 92.34054,-0.78241 93.90073,1.06701 0.90876,1.07724 2.40711,6.86751 3.32967,12.86727 2.05232,13.34699 -0.46824,25.79166 -5.43452,26.83178 -12.33869,2.5842 -95.40481,2.15509 -121.90299,-0.62975 -14.04673,-1.47623 -22.85979,-1.44663 -23.36342,0.0785 -0.44474,1.34689 -0.0542,2.69593 0.86784,2.99787 4.44197,1.45455 103.75478,5.56462 106.07352,4.38985 1.46358,-0.74151 7.19911,-2.42777 11.571,0.77056 4.21584,3.08416 3.75706,2.95447 2.85511,5.70887 -0.98903,3.02033 -10.8631,3.23245 -62.21571,1.33653 -61.69698,-2.27784 -71.55453,-3.4954 -73.6523,-9.09723 z"
         id="path4481"
         inkscape:connector-curvature="0" />
      <path
         style="fill:#000000"
         d="m 402.73143,624.61232 c -0.38089,0.0303 -1.0486,0.7905 -2.1875,2.15625 -1.77841,2.13261 -2.99212,2.36991 -3.40625,0.65625 -0.89513,-3.70396 -12.54742,-3.29899 -17.78125,0.625 -5.91187,4.43232 -4.78727,8.82445 2.90625,11.34375 3.65897,1.19815 6.40626,2.95188 6.09375,3.90625 -0.77637,2.3709 -10.78196,4.91222 -17.5,4.4375 -3.03104,-0.21419 -5.27994,0.56043 -5,1.71875 0.68017,2.81454 1.29476,2.90943 9.40625,1.59375 3.83756,-0.62243 7.26813,-0.54818 7.625,0.15625 0.3569,0.70441 3.52893,1.22275 7.03125,1.15625 5.3717,-0.10194 6.76546,-1.22064 8.96875,-7.1875 1.66515,-4.50948 2.41052,-5.39614 2.03125,-2.40625 -0.32718,2.57942 0.45115,5.06668 1.71875,5.5 1.35616,0.46364 0.81562,1.16705 -1.28125,1.71875 -1.95992,0.51568 -2.91946,1.13897 -2.15625,1.40625 2.66606,0.93692 26.04299,-0.52202 25.5,-1.59375 -0.30131,-0.59474 -4.18538,-0.82167 -8.625,-0.46875 -12.51314,0.99471 -12.3326,-0.48028 0.25,-2.125 7.50779,-0.98138 11.46623,-0.62893 11.875,1.0625 0.3962,1.6395 1.60491,1.62479 3.4375,-0.0625 3.55007,-3.26858 16.3574,-3.1259 16.375,0.1875 0.0154,2.90948 12.36401,1.48994 14.6875,-1.6875 1.67605,-2.29206 -3.68544,-3.98378 -8.6875,-2.75 -1.84137,0.45418 -1.98366,-0.50582 -0.4375,-2.90625 1.26166,-1.95872 2.2238,-5.18055 2.125,-7.15625 -0.14554,-2.9109 -0.89921,-3.31308 -3.90625,-2.125 -3.03519,1.19918 -3.50801,0.88408 -2.625,-1.8125 0.60216,-1.83889 -0.0329,-3.02695 -1.4375,-2.6875 -1.38502,0.33472 -2.4599,1.98944 -2.375,3.6875 0.11089,2.21784 -1.47501,2.55668 -5.65625,1.1875 -5.20492,-1.70438 -6.05154,-1.24507 -8.15625,4.375 -1.70207,4.54494 -2.21146,4.98523 -1.78125,1.59375 0.57662,-4.54578 -6.24514,-9.36675 -7.5625,-5.34375 -0.32857,1.00341 -2.68647,1.44766 -5.21875,1 -3.22254,-0.56969 -5.55739,0.82599 -7.78125,4.65625 -2.45448,4.22744 -2.87425,4.46664 -1.9375,1 0.66695,-2.46815 -0.008,-4.8865 -1.5,-5.375 -1.49181,-0.48851 -2.66045,-3.0853 -2.59375,-5.75 0.0646,-2.58006 0.0522,-3.72643 -0.4375,-3.6875 z m -12.6875,4.59375 c 1.90645,0.0243 2.1775,1.10108 0.53125,3.125 -2.84451,3.49704 -0.0592,4.10099 4.78125,1.03125 3.36338,-2.13302 3.63664,-2.0988 1.90625,0.34375 -1.1179,1.57798 -1.36407,4.1679 -0.5625,5.75 2.13873,4.22141 -0.005,4.16208 -5.96875,-0.15625 -2.89552,-2.09662 -6.44226,-4.62626 -7.90625,-5.625 -2.17998,-1.48718 -1.80574,-2.07045 2.0625,-3.34375 2.28793,-0.75311 4.01238,-1.1396 5.15625,-1.125 z m 4.1875,17.34375 c 1.64194,-0.13782 1.96948,1.15889 -0.25,3.03125 -1.08745,0.91738 -2.91572,1.37552 -4.0625,1 -1.30014,-0.42574 -0.7817,-1.51798 1.375,-2.875 1.17195,-0.7374 2.19116,-1.0936 2.9375,-1.15625 z"
         id="path4483"
         inkscape:connector-curvature="0" />
      <path
         style="fill:#000000"
         d="m 436.58927,648.48876 c 1.95989,-0.51568 4.87104,-0.45571 6.46921,0.13326 1.91598,0.7061 1.38206,1.20745 -1.56744,1.47186 -6.14863,0.55118 -9.24435,-0.46254 -4.90177,-1.60512 z"
         id="path4485"
         inkscape:connector-curvature="0" />
      <path
         style="fill:#000000"
         d="m 469.25336,639.10027 c 0.4484,-8.20087 1.477,-9.32718 8.6428,-9.46317 6.653,-0.12626 9.5148,2.40215 8.0842,7.14225 -0.2161,0.71297 1.5385,1.41404 3.8974,1.55734 6.4844,0.39393 1.0291,5.99962 -6.2207,6.3922 -11.6266,0.62959 -14.6805,-0.5638 -14.4037,-5.62862 z"
         id="path4487"
         inkscape:connector-curvature="0" />
      <path
         style="fill:#000000"
         d="m 510.20018,625.42482 c -2.5954,0.11779 -5.20676,1.21175 -7.40625,3.375 -6.5988,6.49009 -7.3992,9.88263 -3.5625,15 7.5487,10.0685 26.7468,0.10623 21.6875,-11.25 -2.14119,-4.80633 -6.39309,-7.32132 -10.71875,-7.125 z m -1.3125,3.59375 c 0.44045,-0.0458 1.0452,0.0608 1.8125,0.3125 1.3477,0.44217 1.8521,3.06637 1.125,5.8125 -1.5918,6.01233 -1.6052,6.00282 -3.0625,0.0937 -1.09035,-4.41868 -1.19634,-6.08138 0.125,-6.21875 z m -4.3125,1.46875 c 0.27117,-0.0296 0.52738,0.0799 0.75,0.34375 0.8601,1.01961 1.1755,3.07221 0.6875,4.5625 -0.488,1.4903 -1.9534,2.96789 -3.25,3.28125 -1.3424,0.32441 -1.6446,-1.63965 -0.6875,-4.5625 0.71783,-2.19214 1.68649,-3.53616 2.5,-3.625 z m 12.84375,7.8125 c 0.31487,-0.0412 -0.42476,0.75996 -2.15625,2.5625 -1.8541,1.93025 -5.33855,3.39458 -7.71875,3.25 -2.3802,-0.1446 -3.5495,-0.90757 -2.625,-1.6875 0.9245,-0.77997 2.61585,-1.10039 3.78125,-0.71875 1.1655,0.38164 3.88695,-0.42514 6.03125,-1.8125 1.5575,-1.00767 2.4426,-1.56174 2.6875,-1.59375 z"
         id="path4489"
         inkscape:connector-curvature="0" />
    </g>
  </g>
</svg>
