<?xml version="1.0" encoding="UTF-8" standalone="no"?>
<!-- Created with Inkscape (http://www.inkscape.org/) -->

<svg
   xmlns:dc="http://purl.org/dc/elements/1.1/"
   xmlns:cc="http://creativecommons.org/ns#"
   xmlns:rdf="http://www.w3.org/1999/02/22-rdf-syntax-ns#"
   xmlns:svg="http://www.w3.org/2000/svg"
   xmlns="http://www.w3.org/2000/svg"
   xmlns:sodipodi="http://sodipodi.sourceforge.net/DTD/sodipodi-0.dtd"
   xmlns:inkscape="http://www.inkscape.org/namespaces/inkscape"
   width="1052.3622"
   height="744.09448"
   id="svg2"
   version="1.1"
   inkscape:version="0.48.3.1 r9886"
   sodipodi:docname="duplexer.svg">
  <defs
     id="defs4" />
  <sodipodi:namedview
     id="base"
     pagecolor="#2c3908"
     bordercolor="#666666"
     borderopacity="1.0"
     inkscape:pageopacity="1"
     inkscape:pageshadow="2"
     inkscape:zoom="0.49497475"
     inkscape:cx="441.7601"
     inkscape:cy="423.7114"
     inkscape:document-units="px"
     inkscape:current-layer="layer1"
     showgrid="false"
     inkscape:window-width="1364"
     inkscape:window-height="766"
     inkscape:window-x="0"
     inkscape:window-y="0"
     inkscape:window-maximized="0" />
  <metadata
     id="metadata7">
    <rdf:RDF>
      <cc:Work
         rdf:about="">
        <dc:format>image/svg+xml</dc:format>
        <dc:type
           rdf:resource="http://purl.org/dc/dcmitype/StillImage" />
      </cc:Work>
    </rdf:RDF>
  </metadata>
  <g
     inkscape:label="Layer 1"
     inkscape:groupmode="layer"
     id="layer1"
     transform="translate(0,-308.2677)">
    <path
       style="fill:#00ff00;stroke:#ffffff;stroke-width:0.37964433px;stroke-linecap:butt;stroke-linejoin:miter;stroke-opacity:0"
       d="m 93.908663,442.72043 c -1.39022,0.0185 -2.62012,0.17707 -3.47611,0.60506 -0.30875,0.15437 1.62535,19.18594 1.62535,20.60756 0,0.92183 1.4557,2.70497 0.53387,2.70497 -2.79836,0 -0.76453,-4.00275 -5.95567,-2.70497 -11.08823,-2.35821 -19.78409,11.71239 -16.27725,22.23293 1.97568,5.92702 6.28095,9.97579 11.93507,11.38932 10.6583,2.66459 21.171477,-0.60025 24.949737,-11.93506 0.56071,-1.68208 0.10406,-3.70249 0.53388,-5.4218 0.79082,-3.16325 0.79255,-6.59375 0,-9.76397 -1.19709,-4.78838 -0.0474,-9.90636 -1.62534,-14.64004 -0.78885,-2.36651 1.15094,-10.78412 -0.53388,-12.46894 -0.27063,-0.27061 -2.29217,0 -2.71684,0 -2.13043,0 -5.934317,-0.64552 -8.992817,-0.60506 z m -6.70309,30.25291 c 0.7575,-0.0139 1.32345,0.0848 1.58976,0.17796 7.86526,-1.96631 8.11126,12.50817 4.88792,15.73151 -1.83162,1.83163 -10.82766,-1.06368 -11.38933,-1.62536 -2.16013,-2.16011 -4.38926,-8.62543 -1.62535,-11.38932 2.29467,-2.29468 4.87049,-2.86442 6.537,-2.89479 z"
       id="path2985"
       inkscape:connector-curvature="0" />
    <path
       style="fill:#00ff00;stroke:#ffffff;stroke-width:0.37964433px;stroke-linecap:butt;stroke-linejoin:miter;stroke-opacity:0"
       d="m 114.29082,464.47399 c -2.27121,5.29018 -0.54236,11.40828 -0.54236,16.81282 0,12.12222 8.10726,22.52147 20.60927,16.27047 5.08633,-2.54316 6.06449,-10.60056 7.59289,-15.18577 0.88418,-2.65252 1.80792,-7.23114 0.54234,-9.76229 -1.0163,-2.03258 -0.92769,-8.52057 -2.16939,-9.76228 -0.10165,-0.10165 -2.91573,0.54236 -3.79644,0.54236 -1.4272,0 -6.34468,0.37883 -7.05054,1.08469 -0.44814,0.44813 1.48758,13.6982 -3.25409,18.43988 -0.10995,0.10991 -0.8233,1.88844 -1.62706,1.08469 -4.22322,-4.22323 0.20912,-18.7731 -0.54235,-19.52457 -0.67146,-0.67147 -2.48775,-0.54235 -3.79643,-0.54235 -3.04823,0 -2.65058,-0.78375 -5.96584,0.54235 z"
       id="path2989"
       inkscape:connector-curvature="0" />
    <path
       style="fill:#00ff00;stroke:#ffffff;stroke-width:0.37964433px;stroke-linecap:butt;stroke-linejoin:miter;stroke-opacity:0"
       d="m 157.01266,458.65362 c -2.21354,0.006 -6.11327,2.29313 -7.47425,3.65409 -1.50649,7.24406 -1.07961,14.74182 -1.07961,22.23291 0,5.00849 -1.91676,39.31024 1.07961,42.30662 1.07261,1.07258 6.29597,-1.09148 7.59289,-1.09148 1.09967,0 2.485,1.32331 3.26257,0.54574 0.7404,-0.7404 0.5263,-15.77798 0,-17.35686 -0.48783,-1.46349 -2.69587,-21.68719 -2.17108,-21.68719 0.36156,0 -0.25568,0.82395 0,1.07962 1.48368,1.4837 2.22662,5.47733 3.79643,7.04714 1.30226,1.30227 4.06709,1.62537 5.96755,1.62537 8.32177,0 12.46842,-7.56763 15.18576,-15.71966 3.27106,-9.81318 -4.58915,-19.52796 -13.56042,-19.52796 -0.91817,0 -2.99294,-0.40175 -3.79644,0 -1.91487,0.95744 -7.23914,6.51328 -7.59288,6.51328 -0.13521,0 1.86759,-7.36251 0,-9.23011 -0.28056,-0.28055 -0.69931,-0.39303 -1.21013,-0.39151 z m 11.78083,10.63004 c 1.7265,-0.0342 3.34688,0.42837 4.61507,1.69654 1.33238,1.33239 0.6854,3.94797 1.62535,4.88793 0.88361,0.88362 0.68712,2.95608 0,4.33031 -0.38367,0.76733 0.059,2.65783 -0.54574,3.26257 -6.12956,6.12956 -19.99095,1.47532 -16.26538,-9.76397 2.43242,-1.82434 6.77245,-4.33792 10.5707,-4.41338 z"
       id="path3017"
       inkscape:connector-curvature="0" />
    <path
       style="fill:#00ff00;stroke:#ffffff;stroke-width:0.37964433px;stroke-linecap:butt;stroke-linejoin:miter;stroke-opacity:0"
       d="m 189.13499,442.23768 c -1.52103,5.68752 -2.16941,11.87028 -2.16941,17.89751 0,3.48846 -0.12223,34.04577 2.16941,36.33739 0.75834,0.75835 7.2593,-1.0847 8.67758,-1.0847 1.08746,0 7.36818,0.76707 8.13523,0 1.17944,-1.17942 -0.54234,-7.68642 -0.54234,-9.21993 0,-3.4333 -0.0826,-40.75888 -1.0847,-41.76086 -1.0151,-1.01512 -11.98058,-0.5668 -15.18577,-2.16941 z"
       id="path3023"
       inkscape:connector-curvature="0" />
    <path
       style="fill:#00ff00;stroke:#ffffff;stroke-width:0.37964433px;stroke-linecap:butt;stroke-linejoin:miter;stroke-opacity:0"
       d="m 225.47575,461.22471 c -4.458,0 -7.92781,3.02802 -10.85546,5.95566 -1.76843,1.76845 -4.87606,5.42909 -4.87606,8.13863 0,3.41184 -0.5486,5.40129 0.54574,8.68436 3.30256,9.90767 23.72612,12.18757 27.10898,5.42179 5.75758,-11.51514 -10.34826,-3.84687 -12.46894,-5.96753 -2.88432,-2.88432 -4.18962,-4.26589 -6.51327,-8.13862 3.98841,0.90116 7.81827,1.09148 11.93507,1.09148 2.26629,0 6.97035,0.69931 8.13862,-1.63722 2.15816,-4.3163 -8.91911,-13.54855 -13.01468,-13.54855 z m -0.64065,5.96752 c 4.9609,-0.29786 11.21094,7.64322 -3.70153,3.78459 0.53465,-2.67322 2.04791,-3.6853 3.70153,-3.78459 z"
       id="path3038"
       inkscape:connector-curvature="0" />
    <path
       style="fill:#00ff00;stroke:#ffffff;stroke-width:0.37964433px;stroke-linecap:butt;stroke-linejoin:miter;stroke-opacity:0"
       d="m 252.20121,460.95502 c -2.60838,0.33737 -7.98237,2.6923 -8.82419,3.10813 2.36626,4.21843 4.62611,8.60783 7.27826,12.37651 -1.5982,1.7519 -2.93913,3.19427 -3.30928,3.62745 -3.64517,4.26589 -3.73156,9.09334 -7.62791,13.65318 14.35207,-0.29399 10.50308,-1.59473 17.03973,-10.33362 1.85505,2.68839 2.88265,7.18598 5.16777,9.13861 1.3996,1.19595 7.39161,-0.92379 9.23267,-0.177 0.88133,0.35749 6.78449,0.90601 7.61138,-0.0617 0.434,-0.50789 -5.16449,-7.9441 -6.12624,-8.76589 -2.39313,-2.04491 -5.65148,-4.85383 -8.24566,-7.71898 1.47931,-1.29042 2.77033,-2.65166 3.48552,-4.41481 0.8987,-2.21558 12.17963,-10.28236 11.09206,-11.21169 -0.76875,-0.65689 -5.91726,0.46427 -7.03738,0.55215 -2.56761,0.20147 -7.86161,0.20615 -8.64593,0.67839 -1.40559,0.84626 -3.98156,3.62368 -4.88948,5.63168 -1.46504,-2.2347 -3.0707,-4.35631 -4.92903,-5.94424 -0.21691,-0.18534 -0.67035,-0.21604 -1.27229,-0.13819 z"
       id="path3043"
       inkscape:connector-curvature="0" />
    <path
       style="fill:#00ff00;stroke:#ffffff;stroke-width:0.37964433px;stroke-linecap:butt;stroke-linejoin:miter;stroke-opacity:0"
       d="m 300.91989,459.21462 c -4.86207,-0.0421 -9.16677,2.93295 -14.16547,9.59789 -2.1523,2.86972 -4.77526,5.09567 -5.96753,8.6725 -1.07818,3.23451 -0.23095,6.12337 0.54574,9.23009 2.87802,11.51213 20.10854,9.19871 28.20045,6.50141 2.79999,-0.93333 4.7739,-4.22818 6.51327,-5.96753 2.89965,-2.89965 -4.14593,-6.85089 -4.88792,-7.59289 -0.73582,-0.7358 -13.71208,7.97511 -20.06183,1.62536 -0.30577,-0.30578 -1.04271,-5.77121 -1.0796,-5.95567 3.18496,1.58543 6.62218,0.53387 10.29783,0.53387 5.81216,0 11.55378,1.46091 15.18578,-2.17109 1.86116,-1.86116 0.27102,-7.95399 -1.62535,-9.21823 -5.05313,-3.36875 -9.17375,-5.22295 -12.95537,-5.25571 z m -1.30502,6.43023 c 4.83233,-0.0199 11.60317,4.24727 0.15422,4.24727 -1.20434,0 -1.9616,-0.005 -3.2507,0.54574 -1.43722,-3.5931 0.56525,-4.78259 3.09648,-4.79301 z"
       id="path3048"
       inkscape:connector-curvature="0" />
    <path
       style="fill:#00ff00;stroke:#ffffff;stroke-width:0.37964433px;stroke-linecap:butt;stroke-linejoin:miter;stroke-opacity:0"
       d="m 338.68433,460.35016 c -4.55945,0.016 -12.9861,0.92296 -13.96378,1.4118 -1.33307,3.92233 0,8.40953 0,12.46895 0,3.18577 -0.91546,18.79735 0.54574,19.52796 1.77207,0.88603 6.30549,-1.07961 8.13861,-1.07961 1.04999,0 5.94268,1.63834 7.04715,0.53387 1.6278,-1.6278 -1.2088,-7.22903 -0.54573,-9.21825 1.19126,-3.57377 1.24959,-8.87321 1.17452,-13.61974 3.75835,-1.04775 8.16317,-1.50036 10.21481,-0.47455 1.20849,0.60425 5.57282,3.79645 5.96753,3.79645 0.3456,0 4.32004,-2.16081 4.87605,-2.71684 0.0798,-0.0797 1.63723,0.0639 1.63723,0 0,-1.11473 -1.18942,-1.80933 -1.63723,-2.70496 -3.42565,-6.85131 -13.07498,-8.44976 -20.57197,-5.86075 0.19709,-0.71233 0.2989,-1.39766 -0.0355,-1.73214 -0.24245,-0.24244 -1.32752,-0.3375 -2.84734,-0.33219 z"
       id="path3053"
       inkscape:connector-curvature="0" />
    <path
       inkscape:connector-curvature="0"
       id="path3993"
       d="m 571.3976,501.40303 c -0.26721,-3.69418 35.12857,4.60029 21.67012,18.21085 -5.39061,5.45165 -17.1876,4.41017 -24.77793,4.45285 -10.24358,0.0576 -70.53166,1.69775 -76.53913,4.7438 -8.88939,4.50733 -24.53973,-4.31939 -33.42911,0.18793 -5.95656,3.02025 -44.37666,3.30343 -47.44772,0.26672 -0.96167,-0.95092 -0.44543,-3.01129 -1.1026,-4.3074 -5.55926,-10.96398 8.38516,-18.37977 16.07231,-18.42298 3.74812,-0.0211 10.69455,-0.5562 14.00654,-2.23553 6.51703,-3.30444 37.04206,5.00945 43.1464,1.91426 5.08004,-2.57582 76.70233,-4.74474 88.40112,-4.8105 z"
       style="fill:none;stroke:#967676;stroke-width:3.77431107;stroke-linecap:butt;stroke-linejoin:miter;stroke-miterlimit:4;stroke-opacity:1;stroke-dasharray:none" />
    <path
       inkscape:connector-curvature="0"
       id="path3995"
       d="m 567.11444,506.81908 c 3.92747,-0.0397 1.55782,-2.9958 7.54854,-0.0423 13.10259,6.45948 -4.63765,19.00623 -9.62644,14.07319 -1.68509,-1.66625 -14.23715,-6.20715 -7.62125,-12.89786 2.92035,-2.95338 4.76995,-2.33583 9.69915,-1.1329 z"
       style="fill:#241c1c;stroke:#ffffff;stroke-width:0.75486225px;stroke-linecap:butt;stroke-linejoin:miter;stroke-opacity:0" />
    <path
       inkscape:connector-curvature="0"
       id="path3997"
       d="m 542.30617,505.88012 c 4.69755,-0.55063 4.25817,-0.0515 6.4762,1.04201 7.89077,3.89007 -4.41432,16.13686 -10.70479,14.07926 -17.71633,-5.795 -12.25712,-15.0286 4.22859,-15.12127 z"
       style="fill:#241c1c;stroke:#ffffff;stroke-width:0.75486225px;stroke-linecap:butt;stroke-linejoin:miter;stroke-opacity:0" />
    <path
       inkscape:connector-curvature="0"
       id="path3999"
       d="m 509.96754,508.21871 c 9.09803,0.0889 -0.12378,-3.82485 7.54851,-0.0424 14.88124,7.33636 -1.25376,18.20086 -7.46363,15.13945 -4.18511,-2.06323 -8.36026,-3.97736 -10.81995,-6.40955 -0.5422,-0.53613 0.52404,-2.69891 -0.0182,-3.23507 -5.5916,-5.52908 7.02578,-6.36204 10.7533,-5.4524 z"
       style="fill:#241c1c;stroke:#ffffff;stroke-width:0.75486225px;stroke-linecap:butt;stroke-linejoin:miter;stroke-opacity:0" />
    <path
       inkscape:connector-curvature="0"
       id="path4001"
       d="m 479.77959,509.46678 c 3.70756,0.20147 8.30483,-0.36692 10.79572,2.09612 6.45469,6.38251 -4.46144,17.15716 -10.70479,14.07926 -11.39235,-5.61636 -16.56291,-16.08278 -0.0908,-16.17538 z"
       style="fill:#241c1c;stroke:#ffffff;stroke-width:0.75486225px;stroke-linecap:butt;stroke-linejoin:miter;stroke-opacity:0" />
    <path
       inkscape:connector-curvature="0"
       id="path4003"
       d="m 425.87385,511.9266 c 14.75444,-0.78805 -12.03572,-1.01076 5.38573,-1.10869 4.83352,-0.027 7.996,12.70785 -0.98136,17.25979 -9.19753,4.66356 -19.5131,-8.46296 -13.02517,-15.02425 2.03768,-2.06074 5.81327,-0.4082 8.6208,-1.12685 z"
       style="fill:#241c1c;stroke:#ffffff;stroke-width:0.75486225px;stroke-linecap:butt;stroke-linejoin:miter;stroke-opacity:0" />
    <path
       inkscape:connector-curvature="0"
       id="path4005"
       d="m 452.82066,509.61833 c 5.17722,-0.35428 7.84695,0.54617 9.72948,4.25887 4.66919,9.20866 -10.69372,15.1601 -17.18705,11.9589 -8.57523,-4.22751 -9.56405,-19.5227 7.45757,-16.21777 z"
       style="fill:#241c1c;stroke:#ffffff;stroke-width:0.75486225px;stroke-linecap:butt;stroke-linejoin:miter;stroke-opacity:0" />
    <path
       style="fill:#0098dc;stroke:#ffffff;stroke-width:0.90421580999999995px;stroke-linecap:butt;stroke-linejoin:miter;stroke-opacity:0;fill-opacity:1"
       d="m 518.35445,415.2198 c -0.0997,0.0248 -0.20324,0.05 -0.28593,0.12254 -1.07401,0.94115 0.99811,2.34925 1.14371,2.69589 2.32334,5.529 0.15642,17.12504 -0.16339,21.97555 -0.27221,4.1294 -19.77706,-2.09328 -20.62761,-1.34793 -1.20441,1.05541 -5.46033,-0.37754 -9.02713,-0.61271 -4.27604,-0.28191 -15.86387,-5.23632 -21.81217,-2.73672 -5.83488,2.45196 -16.99941,2.79683 -23.4869,2.3691 -9.60006,-0.63292 -19.41981,-0.71148 -29.28712,-0.89863 -0.55611,8.21634 -1.17162,16.63038 -1.83811,24.75315 17.47488,-1.32357 34.96422,-5.48734 53.14164,-4.28892 7.08033,0.46681 47.94875,2.6385 51.46692,4.69738 3.20083,1.87321 -3.6095,21.75453 -2.73673,21.81217 2.06113,0.13588 11.72504,-12.6836 12.53995,-13.39774 4.60584,-4.03606 20.36842,-14.02624 20.46423,-15.48092 0.0633,-0.96072 -1.85712,-0.74637 -2.49165,-1.47048 -3.76662,-4.29834 -7.88214,-11.76915 -11.88641,-16.3387 -1.06801,-1.21874 -12.02359,-22.62309 -15.1133,-21.85303 z"
       id="path4007"
       inkscape:connector-curvature="0" />
    <path
       inkscape:connector-curvature="0"
       id="path4009"
       d="m 689.60475,427.40794 c -3.068,2.23883 2.3244,29.8204 2.4052,44.20054 0.065,11.5511 -2.5542,80.66615 -4.925,83.06384 -1.4003,1.41615 -7.5095,-0.47601 -8.6329,-1.02986 -3.2401,-1.59732 -11.1909,0.19894 -14.0126,1.15715 -4.71911,1.60256 -11.93175,-1.01132 -17.25979,-0.98137 -7.18667,0.0404 -14.65822,2.23919 -22.63342,2.28402 -4.37291,0.0246 -44.00719,1.12522 -45.27891,2.41129 -0.65432,0.66169 -19.41376,-0.48561 -19.41044,0.10914 0.006,1.25502 -1.12494,-8.28405 -1.16321,-15.09095 -0.0383,-6.81418 1.14114,-31.87431 -1.28447,-36.65807 -1.01777,-2.0073 0.97537,-5.54125 -0.0424,-7.54852 -5.06025,-9.97986 -1.24867,-30.29517 -1.31475,-42.04989 -0.0448,-7.97739 -3.32667,-16.27567 -3.36842,-23.70568 -0.0147,-2.58919 1.48574,-2.40181 -0.0304,-5.39179 -0.68586,-1.35263 -1.01381,-15.24203 -0.0908,-16.17536 4.08102,-4.12717 16.55764,3.50025 21.57322,0.95713 4.9473,-2.50852 47.33606,-3.01017 52.83953,-0.29702 3.99375,1.96887 37.22196,-3.44441 43.11606,-3.47755 2.6852,-0.015 18.8008,-0.71196 20.4949,0.96319 3.2896,3.25278 -0.3134,13.8193 -0.9814,17.25979 z"
       style="fill:#ac9393;fill-opacity:1;stroke:#ffffff;stroke-width:0.75486225px;stroke-linecap:butt;stroke-linejoin:miter;stroke-opacity:0" />
    <path
       style="fill:#00ff00;fill-opacity:1;stroke:#ffffff;stroke-width:0.57751077px;stroke-linecap:butt;stroke-linejoin:miter;stroke-opacity:0"
       d="m 710.28747,542.90457 c -3.50298,-0.003 -7.7472,1.15922 -11.82884,5.0476 -7.34265,6.99502 0.74713,15.17351 3.54782,21.13172 1.57705,3.35507 8.98159,-2.25134 9.97954,-0.12828 4.19316,8.92059 -20.67808,21.97375 -20.4844,22.38576 1.56129,3.32152 13.08747,1.13859 14.76481,0.35014 4.19614,-1.97241 7.94561,-2.81353 11.54313,-4.50457 1.86479,-0.87655 4.69666,-3.3077 7.59744,-6.52176 3.91546,-8.33865 10.60506,-17.83325 5.93775,-22.44836 -2.77705,-2.74602 -5.45722,-7.71135 -8.23429,-10.45736 -1.11471,-1.10226 -2.63128,-1.905 -4.18395,-2.66555 -0.27617,0.004 -0.54341,0.0129 -0.83007,0.0227 -0.80961,-0.70364 -3.83891,-2.20972 -7.80894,-2.21204 z"
       id="path4011"
       inkscape:connector-curvature="0" />
    <path
       style="fill:none;stroke:#967676;stroke-width:3.41150951;stroke-linecap:butt;stroke-linejoin:miter;stroke-miterlimit:4;stroke-opacity:1;stroke-dasharray:none"
       d="m 834.60162,494.87963 c 0.20391,-3.34155 -31.70318,4.51479 -19.40089,16.67952 4.92759,4.87252 15.57929,3.81135 22.44004,3.77279 9.25891,-0.052 63.7651,0.81775 69.22574,3.50979 8.08018,3.9835 22.13556,-4.15331 30.21575,-0.16983 5.41436,2.66925 40.14205,2.53476 42.88688,-0.24108 0.8595,-0.86922 0.37197,-2.72617 0.95277,-3.90429 4.91315,-9.96596 -7.76543,-16.52678 -14.71366,-16.48773 -3.38784,0.019 -9.67159,-0.39403 -12.68209,-1.87818 -5.92381,-2.9204 -33.42841,4.90402 -38.9771,2.16856 -4.6176,-2.27645 -69.37322,-3.50898 -79.94744,-3.44955 z"
       id="path3170"
       inkscape:connector-curvature="0" />
    <path
       style="fill:#241c1c;stroke:#ffffff;stroke-width:0.68230194px;stroke-linecap:butt;stroke-linejoin:miter;stroke-opacity:0"
       d="m 838.5278,499.73124 c -3.55013,0.004 -1.43841,-2.69184 -6.82289,0.0383 -11.77675,5.97136 4.38468,17.13108 8.84352,12.62182 1.50608,-1.52311 12.80475,-5.75482 6.75717,-11.73478 -2.66947,-2.63963 -4.33488,-2.06269 -8.7778,-0.92539 z"
       id="path3172"
       inkscape:connector-curvature="0" />
    <path
       style="fill:#241c1c;stroke:#ffffff;stroke-width:0.68230194px;stroke-linecap:butt;stroke-linejoin:miter;stroke-opacity:0"
       d="m 860.94047,498.63053 c -4.25133,-0.44994 -3.84917,-0.003 -5.84273,1.00756 -7.0923,3.59613 4.15371,14.53996 9.81824,12.61634 15.95348,-5.41766 10.92551,-13.70767 -3.97551,-13.6239 z"
       id="path3174"
       inkscape:connector-curvature="0" />
    <path
       style="fill:#241c1c;stroke:#ffffff;stroke-width:0.68230194px;stroke-linecap:butt;stroke-linejoin:miter;stroke-opacity:0"
       d="m 890.19247,500.41555 c -8.22205,0.17279 0.0731,-3.45823 -6.8229,0.0383 -13.37541,6.78195 1.31811,16.43755 6.89961,13.60747 3.76159,-1.9073 7.51574,-3.67974 9.71414,-5.903 0.48462,-0.49009 -0.50105,-2.43402 -0.0165,-2.92411 4.99762,-5.05412 -6.41468,-5.67872 -9.77441,-4.81871 z"
       id="path3176"
       inkscape:connector-curvature="0" />
    <path
       style="fill:#241c1c;stroke:#ffffff;stroke-width:0.68230194px;stroke-linecap:butt;stroke-linejoin:miter;stroke-opacity:0"
       d="m 917.48961,501.23685 c -3.34891,0.21974 -7.5098,-0.24725 -9.73607,2.00419 -5.76902,5.83424 4.20666,15.46167 9.81825,12.61631 10.23955,-5.19191 14.80645,-14.70419 -0.0821,-14.6205 z"
       id="path3178"
       inkscape:connector-curvature="0" />
    <path
       style="fill:#241c1c;stroke:#ffffff;stroke-width:0.68230194px;stroke-linecap:butt;stroke-linejoin:miter;stroke-opacity:0"
       d="m 966.23563,502.91232 c -13.34334,-0.56236 10.86786,-1.03583 -4.87899,-0.94734 -4.36889,0.0245 -7.0978,11.56685 1.06236,15.58976 8.3603,4.12155 17.55033,-7.84729 11.61973,-13.71157 -1.86263,-1.84181 -5.2583,-0.30986 -7.8031,-0.93085 z"
       id="path3195"
       inkscape:connector-curvature="0" />
    <path
       style="fill:#241c1c;stroke:#ffffff;stroke-width:0.68230194px;stroke-linecap:butt;stroke-linejoin:miter;stroke-opacity:0"
       d="m 941.85714,501.09987 c -4.68288,-0.2676 -7.08667,0.57338 -8.75039,3.94812 -4.12657,8.3704 9.81921,13.59331 15.65548,10.63404 7.7075,-3.90805 8.4458,-17.74218 -6.90509,-14.58216 z"
       id="path3221"
       inkscape:connector-curvature="0" />
    <path
       style="fill:#0098dc;stroke:#ffffff;stroke-width:0.94329642999999996px;stroke-linecap:butt;stroke-linejoin:miter;stroke-opacity:0;fill-opacity:1"
       d="m 975.50799,413.8668 c -0.10402,0.0259 -0.20911,0.10901 -0.29537,0.1846 -1.12044,0.98184 1.02954,2.40742 1.18145,2.76903 2.4239,5.76798 0.18594,17.86743 -0.14767,22.92757 -0.28402,4.30789 -20.63729,-2.18052 -21.52461,-1.40297 -1.25645,1.10103 -5.69375,-0.38231 -9.4147,-0.62765 -4.46084,-0.29409 -16.57453,-5.45052 -22.7799,-2.84287 -6.08705,2.55792 -17.67344,2.88293 -24.44131,2.43675 -8.81185,-0.58096 -17.83423,-0.69179 -26.87806,-0.84917 0.21055,8.65448 0.24089,17.54091 -0.14769,25.29048 16.41874,-1.70595 32.88579,-5.14956 49.95332,-4.02432 7.38636,0.48697 50.049,2.72564 53.71921,4.8735 3.33919,1.95418 -3.75338,22.71975 -2.84288,22.77988 2.1502,0.14177 12.21967,-13.24785 13.06983,-13.99283 4.8049,-4.21055 21.20309,-14.61668 21.30309,-16.13422 0.066,-1.00224 -1.9225,-0.75832 -2.5844,-1.51374 -3.92947,-4.4841 -8.19102,-12.29016 -12.36838,-17.05722 -1.11416,-1.27142 -12.57868,-23.62015 -15.80193,-22.81682 z"
       id="path3223"
       inkscape:connector-curvature="0" />
    <path
       style="fill:#ac9393;fill-opacity:1;stroke:#ffffff;stroke-width:0.68230194px;stroke-linecap:butt;stroke-linejoin:miter;stroke-opacity:0"
       d="m 727.01185,429.20262 c 2.79559,1.99234 -1.79781,26.97586 -1.72477,39.97372 0.0586,10.44078 3.12817,72.88165 5.29539,75.02464 1.28004,1.26572 6.78238,-0.50655 7.79214,-1.01853 2.91219,-1.47662 10.11658,0.066 12.6766,0.90346 4.28149,1.40049 10.77384,-1.03528 15.58974,-1.06235 6.49584,-0.0365 13.27109,1.87486 20.4797,1.83435 3.95257,-0.0222 39.78599,0.56982 40.94843,1.71928 0.59809,0.59139 17.54161,-0.63618 17.54463,-0.0987 0.006,1.13438 0.93257,-7.49872 0.898,-13.6513 -0.0346,-6.15919 -1.35528,-28.79701 0.78841,-33.14533 0.8995,-1.82456 -0.93784,-4.99836 -0.0382,-6.82292 4.47213,-9.0714 0.82073,-27.39404 0.76102,-38.01884 -0.0406,-7.21059 2.84132,-14.74407 2.80354,-21.45986 -0.0131,-2.34033 -1.36723,-2.15572 -0.0275,-4.87352 0.60614,-1.22951 0.76142,-13.78634 -0.0822,-14.62052 -3.73043,-3.68875 -14.92954,3.33183 -19.48855,1.08428 -4.49696,-2.21697 -42.81385,-2.23965 -47.76038,0.26848 -3.58959,1.82007 -33.67689,-2.7349 -39.00451,-2.70495 -2.42704,0.0136 -16.99972,-0.45246 -18.51384,1.07879 -2.94014,2.97336 0.42363,12.48695 1.06236,15.58975 z"
       id="path3157"
       inkscape:connector-curvature="0" />
    <path
       style="fill:#00ff00;fill-opacity:1;stroke:#ffffff;stroke-width:0.5712899px;stroke-linecap:butt;stroke-linejoin:miter;stroke-opacity:0"
       d="m 386.0969,418.43004 c -9.14545,3.07568 -10.5354,18.91028 -17.31268,39.2421 -2.1925,6.57752 -3.01361,45.91087 0,51.9381 3.85955,7.71911 7.25334,16.81503 10.38762,23.08358 1.66317,3.32636 8.79804,5.33553 11.54179,8.07926 0.52837,0.52838 6.05464,6.64136 6.92508,5.77091 1.1953,-1.19528 -0.79158,-3.89149 -1.15417,-4.61673 -3.30877,-6.61751 6.33285,-21.36746 1.15417,-26.54612 -1.15417,-1.15417 -3.46255,-1.15417 -4.61672,-2.30837 -8.64451,-8.64449 -9.23342,-25.16884 -9.23342,-38.08792 0,-7.14875 -0.66838,-15.97591 2.30833,-21.92941 3.64927,-7.29853 11.04736,-9.89319 15.00434,-13.85016 1.79458,-1.79458 -2.58322,-7.5295 -1.15416,-10.38762 0.90515,-1.81032 3.06959,-14.24311 1.15416,-16.15851 -3.29379,-3.29382 -13.16485,4.6672 -15.00434,5.77089 z"
       id="path4042"
       inkscape:connector-curvature="0" />
    <path
       style="fill:#00ff00;fill-opacity:1;stroke:#ffffff;stroke-width:0.50302571px;stroke-linecap:butt;stroke-linejoin:miter;stroke-opacity:0"
       d="m 1002.1606,541.41212 c 2.9928,-0.25838 -1.522,-23.75466 0,-23.75466 5.4541,0 10.2798,-7.37293 13.6954,-15.83645 5.376,-13.32093 9.6891,-30.727 5.4782,-46.37817 -2.3691,-8.80558 -10.3488,-15.08376 -14.6084,-20.36115 -0.7609,-0.94265 -2.8913,-0.18853 -3.6522,-1.13118 -0.6803,-0.84284 0.913,-1.09789 0.913,-2.26235 0,-3.01647 0,-6.03292 0,-9.04939 0,-4.23469 -2.0107,-12.21406 0,-14.70528 3.479,-4.31011 24.544,17.96521 27.391,21.49233 21.283,26.36809 8.761,71.72143 -10.0434,95.01868 -5.3215,6.59296 -8.5737,19.59412 -19.1736,16.96762 z"
       id="path4044"
       inkscape:connector-curvature="0" />
    <path
       style="fill:#00ff00;fill-opacity:1;stroke:#ffffff;stroke-width:0.39176065px;stroke-linecap:butt;stroke-linejoin:miter;stroke-opacity:0"
       d="m 7.0455883,431.94122 c -0.343592,1.69698 -0.49572,23.4998 0,24.13196 1.687599,2.15204 8.1766517,5.06428 10.5132737,8.04399 3.787445,4.82978 9.128389,12.53439 11.915042,16.08796 0.875884,1.11694 -8.189589,10.23949 -9.812387,11.61909 -4.183108,3.55624 -5.617002,9.84419 -7.709732,12.51287 -1.135765,1.44835 -3.2653847,2.37651 -4.2053097,3.57511 -2.022753,2.57944 1.330752,12.694 0,16.08797 -0.870492,2.22013 0.44828,10.15367 -0.700887,11.61909 -0.109227,0.1393 -1.580779,1.55928 -0.700882,2.68134 0.985275,1.25643 17.2777787,-26.21062 22.4283137,-29.49462 6.364022,-4.05774 12.27527,-12.07847 16.821236,-17.87553 1.529665,-1.95065 3.848226,-2.22597 4.906192,-3.5751 0.360972,-0.46031 5.369963,-4.77126 4.205307,-6.25644 -6.799136,-8.67033 -22.313463,-19.51663 -29.43716,-28.60084 -1.483272,-1.89149 -3.422921,-1.68362 -4.906194,-3.57511 -4.291964,-5.47317 -7.128663,-13.82527 -13.3168127,-16.98174 z"
       id="path4072"
       inkscape:connector-curvature="0" />
    <path
       inkscape:connector-curvature="0"
       id="path4074"
       d="m 673.66059,826.45468 c 0.31918,-4.89623 -46.49207,6.42408 -28.53568,24.32772 7.19233,7.1712 22.81006,5.68073 32.8655,5.66594 13.57032,-0.02 93.45007,1.58638 101.43687,5.56509 11.81821,5.88739 32.46747,-5.95251 44.28567,-0.0651 7.91913,3.94501 58.81733,3.95918 62.85707,-0.0925 1.26499,-1.2687 0.56177,-3.99323 1.42017,-5.71638 7.2614,-14.57635 -11.2806,-24.26913 -21.46427,-24.25416 -4.96538,0.007 -14.1724,-0.63631 -18.57562,-2.82982 -8.66424,-4.31622 -49.02299,6.98408 -57.13858,2.94119 -6.75379,-3.36448 -101.65304,-5.56478 -117.15113,-5.54198 z"
       style="fill:none;stroke:#967676;stroke-width:5;stroke-linecap:butt;stroke-linejoin:miter;stroke-miterlimit:4;stroke-opacity:1;stroke-dasharray:none" />
    <path
       inkscape:connector-curvature="0"
       id="path4076"
       d="m 679.38536,833.58913 c -5.20315,-0.0156 -2.09181,-3.95394 -9.99998,0.0147 -17.29648,8.68006 6.32206,25.1342 12.88443,18.55249 2.2166,-2.22313 18.80181,-8.35644 9.97477,-17.15755 -3.89635,-3.88492 -6.34072,-3.04947 -12.85922,-1.40965 z"
       style="fill:#241c1c;stroke:#ffffff;stroke-width:1px;stroke-linecap:butt;stroke-linejoin:miter;stroke-opacity:0" />
    <path
       inkscape:connector-curvature="0"
       id="path4078"
       d="m 712.24037,832.11223 c -6.22808,-0.68531 -5.64136,-0.0285 -8.56933,1.44118 -10.41643,5.22739 5.99932,21.33522 14.31303,18.55039 23.4146,-7.84315 16.09596,-20.0237 -5.7437,-19.99157 z"
       style="fill:#241c1c;stroke:#ffffff;stroke-width:1px;stroke-linecap:butt;stroke-linejoin:miter;stroke-opacity:0" />
    <path
       inkscape:connector-curvature="0"
       id="path4080"
       d="m 755.10167,834.90633 c -12.05141,0.20323 0.12809,-5.06799 -9.99999,0.0147 -19.64443,9.85835 1.83187,24.09912 10.02941,19.98526 5.52466,-2.77249 11.03756,-5.34737 14.27309,-8.59243 0.71323,-0.71533 -0.71953,-3.57037 -0.006,-4.2857 7.35531,-7.377 -9.3669,-8.36187 -14.29621,-7.12184 z"
       style="fill:#241c1c;stroke:#ffffff;stroke-width:1px;stroke-linecap:butt;stroke-linejoin:miter;stroke-opacity:0" />
    <path
       inkscape:connector-curvature="0"
       id="path4082"
       d="m 795.10373,836.27606 c -4.90952,0.30171 -11.00494,-0.40805 -14.28149,2.87816 -8.49065,8.51566 6.07129,22.68641 14.31301,18.55038 15.03882,-7.54707 21.78999,-21.46064 -0.0315,-21.42854 z"
       style="fill:#241c1c;stroke:#ffffff;stroke-width:1px;stroke-linecap:butt;stroke-linejoin:miter;stroke-opacity:0" />
    <path
       inkscape:connector-curvature="0"
       id="path4084"
       d="m 866.53642,839.02815 c -19.55279,-0.90532 15.93438,-1.45203 -7.14495,-1.41808 -6.40327,0.009 -10.473,16.90936 1.46218,22.85502 12.2279,6.09148 25.76973,-11.39433 17.11344,-20.02519 -2.7187,-2.7107 -7.70476,-0.4861 -11.43067,-1.41175 z"
       style="fill:#241c1c;stroke:#ffffff;stroke-width:1px;stroke-linecap:butt;stroke-linejoin:miter;stroke-opacity:0" />
    <path
       inkscape:connector-curvature="0"
       id="path4086"
       d="m 830.81797,836.22354 c -6.86164,-0.42068 -10.38981,0.79723 -12.84872,5.73319 -6.09885,12.24268 14.30851,19.98227 22.88023,15.68064 11.32,-5.68082 12.4862,-25.95183 -10.03151,-21.41383 z"
       style="fill:#241c1c;stroke:#ffffff;stroke-width:1px;stroke-linecap:butt;stroke-linejoin:miter;stroke-opacity:0" />
    <path
       inkscape:connector-curvature="0"
       id="path4088"
       d="m 712.82077,761.31426 c 22.74494,2.93041 46.16113,1.80376 68.50348,3.36991 7.17268,0.50279 19.48685,0.20778 25.95101,-2.47711 6.58981,-2.73704 19.39872,2.79191 24.12638,3.12331 3.94352,0.27643 8.6387,1.86095 9.97552,0.69926 0.94408,-0.82038 22.48115,6.16386 22.80119,1.59834 0.37592,-5.36283 2.81726,-18.20086 0.27335,-24.32617 -0.15952,-0.38401 -2.4174,-1.91411 -1.2253,-2.95004 2.9367,-2.55196 15.71421,22.70345 16.92766,24.09983 4.40744,5.07195 8.90611,13.32893 13.05199,18.09985 0.69842,0.80372 2.82469,0.56268 2.75024,1.62486 -0.11271,1.60832 -17.56253,12.58508 -22.67474,17.02754 -0.90454,0.78602 -11.64571,14.9365 -13.92454,14.77677 -0.96494,-0.0678 6.6546,-22.04006 3.12331,-24.1264 -3.88134,-2.29308 -49.07495,-4.87214 -56.90308,-5.42088 -26.13338,-1.83191 -51.04211,6.44657 -76.22821,4.68107 -1.04993,-0.0735 -20.10838,0.84569 -19.95106,-1.39855 0.7072,-10.08857 5.07175,-15.53122 3.42299,-28.40158 z"
       style="fill:#0098dc;fill-opacity:1;stroke:#ffffff;stroke-width:1px;stroke-linecap:butt;stroke-linejoin:miter;stroke-opacity:0" />
    <path
       inkscape:connector-curvature="0"
       id="path4090"
       d="m 516.375,729.54307 c 4.08514,2.93699 -2.79901,39.52526 -2.771,58.57557 0.0225,15.30248 4.14137,106.8354 7.30465,109.98937 1.86834,1.86287 9.94344,-0.70114 11.42647,-1.44538 4.27714,-2.14644 14.82659,0.15845 18.5735,1.40124 6.26651,2.07857 15.7966,-1.4518 22.85503,-1.46218 9.5206,-0.014 19.43888,2.82857 30.00418,2.81301 5.79307,-0.009 58.30743,1.07721 60.00413,2.76886 0.87296,0.87043 25.71309,-0.82569 25.71426,-0.0378 0.002,1.66263 1.4124,-10.98457 1.39914,-20.00208 -0.0132,-9.02721 -1.81114,-42.21356 1.35713,-48.57348 1.32941,-2.66864 -1.34412,-7.33136 -0.0147,-10 6.60961,-13.26797 1.36952,-40.14408 1.34662,-55.71633 -0.0155,-10.56818 4.25395,-21.59183 4.23947,-31.43484 -0.005,-3.43006 -1.99074,-3.16775 -0.0106,-7.14284 0.89585,-1.7983 1.19981,-20.20083 -0.0315,-21.42855 -5.44495,-5.42896 -21.90121,4.79239 -28.56929,1.47059 -6.57733,-3.27658 -62.73496,-3.54287 -69.99992,0.10297 -5.27205,2.64571 -49.34071,-4.21315 -57.14911,-4.20167 -3.55718,0.005 -24.9123,-0.76651 -27.14073,1.46849 -4.32718,4.33993 0.54494,18.30365 1.46219,22.85503 z"
       style="fill:#ac9393;fill-opacity:1;stroke:#ffffff;stroke-width:1px;stroke-linecap:butt;stroke-linejoin:miter;stroke-opacity:0" />
    <path
       style="fill:none;stroke:#967676;stroke-width:5;stroke-linecap:butt;stroke-linejoin:miter;stroke-miterlimit:4;stroke-opacity:1;stroke-dasharray:none"
       d="m 373.99814,828.2774 c -0.33368,-4.89527 46.5107,6.28728 28.60703,24.24366 -7.17111,7.19233 -22.79326,5.74781 -32.84866,5.76261 -13.57032,0.02 -93.44499,1.86126 -101.42006,5.86348 -11.80083,5.92211 -32.48484,-5.857 -44.28566,0.0651 -7.9075,3.96829 -58.80544,4.13218 -62.85709,0.0924 -1.26871,-1.26498 -0.5735,-3.99158 -1.43696,-5.71217 -7.30426,-14.55495 11.20915,-24.30223 21.39283,-24.31722 4.96538,-0.007 14.17046,-0.678 18.5672,-2.88444 8.65152,-4.34169 49.04334,6.83982 57.147,2.77308 6.74385,-3.38434 101.63621,-5.86379 117.13437,-5.88658 z"
       id="path4092"
       inkscape:connector-curvature="0" />
    <path
       style="fill:#241c1c;stroke:#ffffff;stroke-width:1px;stroke-linecap:butt;stroke-linejoin:miter;stroke-opacity:0"
       d="m 368.29432,835.42866 c 5.20307,-0.0311 2.08017,-3.96007 10.00004,-0.0147 17.32194,8.62914 -6.24814,25.1527 -12.82985,18.59033 -2.22313,-2.21661 -18.82631,-8.30111 -10.02521,-17.12813 3.88491,-3.89638 6.33173,-3.06813 12.85502,-1.44748 z"
       id="path4094"
       inkscape:connector-curvature="0" />
    <path
       style="fill:#241c1c;stroke:#ffffff;stroke-width:1px;stroke-linecap:butt;stroke-linejoin:miter;stroke-opacity:0"
       d="m 335.43511,834.04841 c 6.22603,-0.70363 5.64125,-0.0448 8.57352,1.41596 10.43179,5.19673 -5.93652,21.35279 -14.25838,18.59242 -23.43756,-7.77423 -16.1548,-19.97625 5.68486,-20.00838 z"
       id="path4096"
       inkscape:connector-curvature="0" />
    <path
       style="fill:#241c1c;stroke:#ffffff;stroke-width:1px;stroke-linecap:butt;stroke-linejoin:miter;stroke-opacity:0"
       d="m 292.58222,836.96858 c 12.05195,0.16781 -0.14303,-5.06758 9.99999,-0.0147 19.67334,9.80051 -1.76098,24.10441 -9.97058,20.01469 -5.53278,-2.75624 -11.05324,-5.31489 -14.2983,-8.55041 -0.71534,-0.71323 0.70903,-3.57247 -0.006,-4.28571 -7.37699,-7.35532 9.34225,-8.38939 14.2752,-7.16387 z"
       id="path4098"
       inkscape:connector-curvature="0" />
    <path
       style="fill:#241c1c;stroke:#ffffff;stroke-width:1px;stroke-linecap:butt;stroke-linejoin:miter;stroke-opacity:0"
       d="m 252.58436,838.45599 c 4.91039,0.28727 11.0037,-0.44042 14.2899,2.83614 8.51566,8.49064 -6.00453,22.70417 -14.25838,18.59241 -15.06095,-7.50281 -21.85303,-21.39645 -0.0315,-21.42855 z"
       id="path4100"
       inkscape:connector-curvature="0" />
    <path
       style="fill:#241c1c;stroke:#ffffff;stroke-width:1px;stroke-linecap:butt;stroke-linejoin:miter;stroke-opacity:0"
       d="m 181.16007,841.4182 c 19.55005,-0.96283 -15.93858,-1.40513 7.14074,-1.43908 6.40328,-0.009 10.5227,16.87846 -1.39494,22.85923 -12.20992,6.12741 -25.80312,-11.31849 -17.17225,-19.97477 2.71069,-2.7187 7.70328,-0.50877 11.42645,-1.44538 z"
       id="path4102"
       inkscape:connector-curvature="0" />
    <path
       style="fill:#241c1c;stroke:#ffffff;stroke-width:1px;stroke-linecap:butt;stroke-linejoin:miter;stroke-opacity:0"
       d="m 216.87012,838.50853 c 6.86037,-0.44086 10.39212,0.76667 12.86553,5.69537 6.13484,12.22469 -14.24967,20.02428 -22.834,15.74787 -11.33666,-5.64749 -12.56248,-25.91498 9.96847,-21.44324 z"
       id="path4104"
       inkscape:connector-curvature="0" />
    <path
       style="fill:#0098dc;fill-opacity:1;stroke:#ffffff;stroke-width:1px;stroke-linecap:butt;stroke-linejoin:miter;stroke-opacity:0"
       d="m 155,757.45577 c 22.74493,2.93041 46.16114,1.80375 68.50348,3.36992 7.17268,0.50279 19.48685,0.20777 25.95101,-2.47711 6.58982,-2.73705 19.39872,2.7919 24.12637,3.12329 3.94353,0.27644 8.63872,1.86095 9.97553,0.69927 0.94408,-0.82039 22.48115,6.16388 22.80118,1.59833 0.37593,-5.36282 2.81727,-18.20085 0.27335,-24.32616 -0.15952,-0.38401 -2.4174,-1.91412 -1.2253,-2.95004 2.93672,-2.55195 15.71423,22.70346 16.92766,24.09983 4.40745,5.07194 8.90612,13.32893 13.052,18.09985 0.69842,0.80372 2.8247,0.56267 2.75024,1.62486 -0.11271,1.60833 -17.56253,12.5851 -22.67475,17.02754 -0.90453,0.78602 -11.64571,14.9365 -13.92452,14.77676 -0.96495,-0.0677 6.65458,-22.04006 3.12329,-24.12637 -3.88134,-2.29311 -49.07494,-4.87216 -56.90308,-5.42089 -26.13336,-1.83191 -51.04209,6.44656 -76.2282,4.68105 -1.04993,-0.0735 -20.10837,0.84569 -19.95106,-1.39853 0.70719,-10.08857 5.07175,-15.53122 3.42299,-28.4016 z"
       id="path4106"
       inkscape:connector-curvature="0" />
    <path
       style="fill:#ac9393;fill-opacity:1;stroke:#ffffff;stroke-width:1px;stroke-linecap:butt;stroke-linejoin:miter;stroke-opacity:0"
       d="m 530.99792,730.90351 c -4.07648,2.94899 2.91522,39.51685 2.94325,58.56715 0.0225,15.3025 -3.82707,106.84713 -6.98102,110.01038 -1.86287,1.86828 -9.94551,-0.67186 -11.43065,-1.41174 -4.28347,-2.13385 -14.82606,0.20202 -18.5693,1.45583 -6.26035,2.09704 -15.8008,-1.40528 -22.85921,-1.3949 -9.52063,0.014 -19.43054,2.8857 -29.99579,2.90126 -5.79309,0.009 -58.30399,1.24873 -59.99574,2.94542 -0.87044,0.87289 -25.71542,-0.75013 -25.71427,0.0378 0.002,1.66262 -1.44472,-10.98034 -1.45798,-19.99785 -0.0132,-9.02719 1.68695,-42.2187 -1.50003,-48.56928 -1.33725,-2.6647 1.32256,-7.33528 -0.0147,-9.99998 -6.64862,-13.24848 -1.48762,-40.13989 -1.51052,-55.71213 -0.0155,-10.56817 -4.31746,-21.57923 -4.33194,-31.42224 -0.005,-3.43006 1.98142,-3.17359 -0.0106,-7.14283 -0.90114,-1.79566 -1.25923,-20.19722 -0.0315,-21.42857 5.42895,-5.44495 21.9152,4.72794 28.5735,1.38655 6.56764,-3.29592 62.72422,-3.72742 69.99993,-0.10295 5.27983,2.6302 49.32812,-4.35828 57.13643,-4.36976 3.55725,-0.005 24.91,-0.8398 27.14497,1.38863 4.33988,4.32717 -0.49108,18.30516 -1.39498,22.85923 z"
       id="path4108"
       inkscape:connector-curvature="0" />
    <path
       style="fill:none;stroke:#483737;stroke-width:1px;stroke-linecap:butt;stroke-linejoin:miter;stroke-opacity:1"
       d="m 521.64819,706.88239 c -2.42219,35.48566 1.43643,140.68807 1.21536,193.956"
       id="path4149"
       inkscape:connector-curvature="0" />
  </g>
</svg>
