<?xml version="1.0" encoding="UTF-8" standalone="no"?>
<!-- Created with Inkscape (http://www.inkscape.org/) -->

<svg
   xmlns:dc="http://purl.org/dc/elements/1.1/"
   xmlns:cc="http://creativecommons.org/ns#"
   xmlns:rdf="http://www.w3.org/1999/02/22-rdf-syntax-ns#"
   xmlns:svg="http://www.w3.org/2000/svg"
   xmlns="http://www.w3.org/2000/svg"
   xmlns:sodipodi="http://sodipodi.sourceforge.net/DTD/sodipodi-0.dtd"
   xmlns:inkscape="http://www.inkscape.org/namespaces/inkscape"
   width="1052.3622"
   height="744.09448"
   id="svg2"
   version="1.1"
   inkscape:version="0.48.3.1 r9886"
   sodipodi:docname="duplex_streams.svg"
   inkscape:export-filename="/home/substack/projects/talks/lxjs_2012/images/duplex_streams.png"
   inkscape:export-xdpi="100"
   inkscape:export-ydpi="100">
  <defs
     id="defs4" />
  <sodipodi:namedview
     id="base"
     pagecolor="#7f26c2"
     bordercolor="#666666"
     borderopacity="1.0"
     inkscape:pageopacity="1"
     inkscape:pageshadow="2"
     inkscape:zoom="0.35"
     inkscape:cx="711.84488"
     inkscape:cy="278.64111"
     inkscape:document-units="px"
     inkscape:current-layer="layer1"
     showgrid="false"
     inkscape:window-width="1364"
     inkscape:window-height="766"
     inkscape:window-x="0"
     inkscape:window-y="0"
     inkscape:window-maximized="0" />
  <metadata
     id="metadata7">
    <rdf:RDF>
      <cc:Work
         rdf:about="">
        <dc:format>image/svg+xml</dc:format>
        <dc:type
           rdf:resource="http://purl.org/dc/dcmitype/StillImage" />
        <dc:title></dc:title>
      </cc:Work>
    </rdf:RDF>
  </metadata>
  <g
     inkscape:label="Layer 1"
     inkscape:groupmode="layer"
     id="layer1"
     transform="translate(0,-308.2677)">
    <path
       style="fill:#ffff00;fill-opacity:1;stroke:#ffffff;stroke-width:1.24972117px;stroke-linecap:butt;stroke-linejoin:miter;stroke-opacity:0"
       d="m 559.71173,576.03277 c -8.20356,0.47124 -18.80133,8.14498 -25.88707,22.31645 -2.54462,5.08924 -0.25649,13.64636 -3.57063,16.9605 -0.87083,0.87084 -0.63638,13.90246 0,15.17519 1.81146,3.62292 4.19379,5.70959 5.35594,8.03391 5.36511,10.73023 55.44236,22.714 68.73467,16.06785 2.98202,-1.491 5.94722,0.3014 8.03391,-1.78531 1.12221,-1.1222 5.20132,-0.73802 6.24861,-1.78531 1.41863,-1.41863 5.35786,-0.002 7.14128,-1.78532 16.81612,-16.81613 7.40386,-56.60492 -2.67798,-76.7686 -7.60031,-15.2006 -28.02108,-23.82977 -39.27695,-29.45771 -3.8737,-1.93685 -24.16635,-8.44795 -26.77973,-7.14126"
       id="path4121"
       inkscape:connector-curvature="0"
       sodipodi:nodetypes="cssssssscssc" />
    <path
       style="fill:#ffff00;fill-opacity:1;stroke:#ffffff;stroke-width:0.87970746px;stroke-linecap:butt;stroke-linejoin:miter;stroke-opacity:0"
       d="m 465.56142,579.40571 c -20.62408,0.0155 -40.24633,1.47525 -49.18115,4.45352 -9.47835,3.15946 -44.88047,-1.42183 -52.78245,2.52916 -1.33647,0.66823 -2.77884,1.0772 -4.28857,1.34706 -16.57096,9.61864 -28.37707,25.04417 -52.89242,25.04417 -3.96979,0 -12.60801,1.07623 -18.66629,0.54981 -0.0629,0.0295 -0.13044,0.0514 -0.19244,0.0824 -2.14533,1.07267 1.08569,8.16958 3.65629,12.6183 1.30666,7.09832 4.5085,15.8322 4.5085,19.40855 0,23.15301 0.37522,-7.8841 1.26458,8.79708 l 108.28649,46.54206 c 5.09465,16.28785 27.052,41.47146 33.73129,51.49038 8.12954,12.19431 18.30336,14.72225 30.15747,22.62498 47.74078,31.82718 103.93451,31.42206 159.58443,31.42206 24.33339,0 47.56257,3.22848 69.13952,-7.55999 3.92813,-1.96407 9.17961,-1.61964 12.56332,-5.00334 4.56882,-4.56884 8.33524,-9.13799 12.56332,-17.59415 1.05079,-2.10158 -0.51276,-4.79177 -1.26458,-6.29541 -1.46013,-2.92026 -1.0004,-7.05912 -2.50167,-10.06165 -2.10424,-4.20849 -4.72581,-8.42982 -7.77991,-12.56332 8.55626,-1.0827 15.3124,-2.07409 15.3124,-2.50168 0,-2.82411 -8.80608,-7.55075 -11.29874,-8.79706 -11.86821,-5.93411 -32.66586,-25.13338 -40.21912,-32.68664 -3.62544,-3.62543 -13.6586,-7.36318 -18.85873,-12.56332 -7.42917,-7.42918 -20.21124,-16.44499 -28.89289,-25.12665 -9.8372,-9.83721 -20.46539,-24.23163 -28.92039,-32.68663 -14.80004,-14.80003 -34.02472,-27.50919 -53.24979,-38.12982 -2.60557,-0.41418 -8.19533,1.07214 -8.96202,1.07214 -8.91604,0 -22.49178,-1.79115 -26.99602,-6.2954 -1.12647,-1.12645 -8.16452,-2.5014 -11.32623,-5.66312 -1.69351,-1.69351 -5.74183,-2.36154 -9.12697,-3.84872 -7.58302,-0.40852 -15.54242,-0.61068 -23.36723,-0.6048 z"
       id="path3833"
       inkscape:connector-curvature="0"
       sodipodi:nodetypes="ssscscccsccsssssssscsssssscssscs" />
    <path
       style="fill:#ffff00;fill-opacity:1;stroke:#ffffff;stroke-width:0.87970746px;stroke-linecap:butt;stroke-linejoin:miter;stroke-opacity:0"
       d="m 709.68025,741.13443 c -4.9722,-0.0151 -8.88403,0.23591 -10.55649,1.07215 -10.87399,5.437 -33.84939,1.26458 -46.48705,1.26458 -4.32906,0 -24.76984,0.88027 -27.65581,3.76625 -2.93224,2.93224 -24.28508,0 -28.89288,0 -3.20502,0 -18.08373,2.03957 -20.12331,0 -4.40248,-4.40249 -36.5493,-6.21971 -43.98538,-2.50168 -3.31125,1.65564 -13.28753,1.87736 -19.02367,0.38488 -4.83892,4.03296 -8.96652,7.87138 -13.63547,17.20928 l 2.50167,45.22246 c 2.04582,14.54848 5.95112,24.80985 13.8279,32.68663 2.72546,2.72545 25.61571,0.46157 27.65581,2.50166 7.96611,7.96612 80.81876,0 95.50324,0 17.57289,0 65.29702,3.84251 75.40743,-6.26791 12.07709,-12.07709 13.8279,-39.24253 13.8279,-59.07785 0,-4.79238 2.03185,-29.39021 0,-31.42205 -1.09424,-1.09424 -1.66748,-2.8269 -2.77658,-4.31607 -5.49305,-0.26175 -11.00111,-0.50837 -15.58731,-0.52233 z"
       id="path3846"
       inkscape:connector-curvature="0" />
    <path
       style="fill:#e5e500;fill-opacity:1;stroke:#ffffff;stroke-width:0.87970746px;stroke-linecap:butt;stroke-linejoin:miter;stroke-opacity:0"
       d="m 288.1904,614.01671 c -2.98037,2.98035 -1.41753,11.47917 -3.76625,13.82789 -3.98024,3.98024 -2.69226,13.10706 0,17.59416 -4.82498,25.0037 -5.03083,50.86583 -5.03083,76.672 0,14.95948 -3.39426,87.47764 2.50167,99.26949 0.4093,0.81861 40.02844,7.55999 43.98538,7.55999 5.05245,0 10.27348,1.29692 15.09248,2.50166 18.71477,4.6787 40.30069,-2.18575 59.05036,2.50168 18.48954,4.62237 39.58461,-3.54708 57.81328,2.52915 9.36822,3.12274 30.14108,-2.10393 36.45288,0 6.21737,2.07245 27.52006,5.16658 27.6558,5.03083 0.81386,-0.81385 -1.26458,-2.64916 -1.26458,-3.76625 0,-9.22099 0.32714,-20.22227 2.50166,-28.92038 1.03826,-4.15298 12.41976,-62.98769 10.06166,-65.34577 -9.69762,-9.69762 -29.60049,-19.19878 -43.98537,-26.39123 -7.33934,-3.66967 -15.8329,-4.53415 -21.3604,-10.06165 -1.81916,-1.81915 -7.99658,-1.70117 -10.06165,-3.76625 -4.24188,-4.24187 -11.82194,-14.0895 -18.83124,-17.59415 -5.22042,-2.61021 -13.41421,-5.88172 -17.59415,-10.06165 -21.30577,-21.30577 -49.21423,-38.54848 -71.97107,-57.92325 -3.5298,1.34587 -14.84497,3.3538 -15.39488,3.90371 -1.61298,1.61298 -10.42874,2.01572 -13.19561,0.63229 -4.2662,-2.1331 -10.1675,1.13124 -13.19562,-1.89687 -1.13058,-1.13058 -5.84794,0.41998 -6.9002,-0.63229 -1.23523,-1.23523 -10.66932,-3.7691 -12.56332,-5.66311 z"
       id="path3811"
       inkscape:connector-curvature="0" />
    <path
       style="fill:#ffffff;fill-opacity:1;stroke:#ffffff;stroke-width:0.87970746px;stroke-linecap:butt;stroke-linejoin:miter;stroke-opacity:0"
       d="m 413.24777,600.96372 c 26.86606,-1.94137 53.03539,-6.40717 79.78719,-6.46946 1.20171,-0.003 12.51767,-1.95928 12.56284,-1.91435 1.07201,1.06705 14.057,13.26398 15.11284,13.78883 2.12052,1.05409 11.95219,5.70058 11.95496,6.88416 0.004,1.67563 -3.35127,0.008 -5.02689,0.0117 -8.56863,0.02 -17.48371,0.66908 -26.38968,0.68983 -2.61604,0.006 -31.26282,3.45512 -33.29289,4.47607 -5.2144,2.62239 -13.06918,-1.92011 -18.221,0.6708 -2.56716,1.29105 -7.15037,1.90175 -10.04939,1.90849 -1.85794,0.005 -10.89642,2.94611 -11.93445,1.91289 -7.42175,-7.38726 -14.93436,-12.98423 -22.03947,-20.05633 -2.80985,-2.7968 7.06522,-1.99564 7.53594,-1.90264 z"
       id="path4138"
       inkscape:connector-curvature="0" />
    <g
       id="g4140"
       transform="matrix(0.87950638,-0.01880936,0.01880936,0.87950638,37.980896,214.64193)"
       style="stroke:#ffffff;stroke-opacity:0">
      <path
         inkscape:connector-curvature="0"
         id="path3882"
         d="m 517.9079,486.54637 c -5.9284,7.09398 -26.0962,38.18951 -4.28571,60 2.55405,2.55405 6.37697,12.09125 10,15.71428 10.5938,10.5938 25.94176,15.94177 35.71428,25.71429 4.42717,4.42717 16.19405,6.19404 21.42858,11.42857 5.06735,5.06735 26.90575,2.0243 34.28571,5.71429 6.91602,3.45801 34.18968,-2.76111 37.14286,-5.71429 8.2722,-8.27221 12.85714,-15.45074 12.85714,-30 0,-40.56822 -55.61215,-49.89786 -80,-74.28572 -1.62107,-1.62107 -15.47668,-4.88119 -20,-7.14285 -11.92404,-5.96202 -33.48034,-1.42857 -47.14286,-1.42857 z"
         style="fill:#ffffff;fill-opacity:1;stroke:#ffffff;stroke-width:1px;stroke-linecap:butt;stroke-linejoin:miter;stroke-opacity:0" />
      <path
         inkscape:connector-curvature="0"
         id="path3880"
         d="m 546.47933,480.83208 c -29.3719,-0.143 -41.43765,21.40133 -32.85714,47.14286 1.62638,4.87915 6.73392,8.16249 10,11.42857 5.65426,5.65426 10.21322,15.38024 17.14286,20 7.5083,5.00553 15.5962,9.44509 22.85714,14.28571 14.86121,9.90748 27.10577,24.28572 45.71428,24.28572 18.12472,0 36.12806,1.0148 50,-12.85714 4.18813,-4.18813 3.31836,-10.92243 5.71429,-15.71429 2.2842,-4.56839 2.29711,-15.40578 0,-20 -5.75127,-11.50255 -16.7286,-29.79287 -28.57143,-35.71429 -3.71241,-1.8562 -11.4693,-4.32644 -14.28571,-7.14285 -16.32122,-16.32122 -49.01622,-36.39352 -75.71429,-25.71429 z"
         style="fill:#ffff00;fill-opacity:1;stroke:#ffffff;stroke-width:1px;stroke-linecap:butt;stroke-linejoin:miter;stroke-opacity:0" />
      <path
         transform="translate(0,308.2677)"
         inkscape:connector-curvature="0"
         id="path3884"
         d="m 534.28571,179.80877 c -2.27402,1.76307 -1.63168,-0.51118 -5,2.85714 -8.4637,8.4637 9.67948,20.32052 13.57143,16.42857 2.03666,-2.03666 5.04507,-4.33078 7.14286,-6.42857 0.45308,-0.45308 -0.29735,-2.26244 0,-2.85714 4.32771,-8.65542 -6.56884,-8.7117 -9.28571,-11.42857 -0.94359,-0.94359 -6.28756,1.40036 -6.42858,1.42857 z"
         style="fill:#ffffff;fill-opacity:1;stroke:#ffffff;stroke-width:1px;stroke-linecap:butt;stroke-linejoin:miter;stroke-opacity:0" />
      <path
         transform="translate(0,308.2677)"
         inkscape:connector-curvature="0"
         id="path3886"
         d="m 568.57143,176.23734 c -5.12458,0.60352 -6.54032,3.68318 -9.28572,6.42857 -4.79723,4.79724 13.62181,14.94962 19.28572,9.28571 0.92486,-0.92486 3.06361,-2.34932 4.28571,-3.57142 3.8338,-3.8338 -5.14804,-13.9704 -14.28571,-12.14286 z"
         style="fill:#ffffff;fill-opacity:1;stroke:#ffffff;stroke-width:1px;stroke-linecap:butt;stroke-linejoin:miter;stroke-opacity:0" />
      <path
         transform="translate(0,308.2677)"
         inkscape:connector-curvature="0"
         id="path3903"
         d="m 628.57143,209.09448 c -3.70181,-1.10809 -6.12514,2.25027 -7.85714,5.71429 -4.18518,8.37035 9.87995,19.40576 14.28571,15 0.52055,-0.52055 2.15263,-0.72406 2.85714,-1.42857 1.60737,-1.60737 1.12097,-3.6705 2.14286,-5.71429 4.46052,-8.92104 -4.74609,-12.23493 -11.42857,-13.57143 z"
         style="fill:#ffffff;fill-opacity:1;stroke:#ffffff;stroke-width:1px;stroke-linecap:butt;stroke-linejoin:miter;stroke-opacity:0" />
      <path
         transform="translate(0,308.2677)"
         inkscape:connector-curvature="0"
         id="path3905"
         d="m 642.85714,236.95162 c -1.67391,0.0274 -2.59482,-0.9766 -6.42857,2.85715 -6.59802,6.59802 7.55043,23.0105 16.42857,18.57143 7.77107,-3.88554 11.59842,-10.54445 4.28572,-17.85715 -1.38531,-1.38531 -4.42243,-2.27957 -5.71429,-3.57143 -0.59762,-0.59762 -8.42322,0 -8.57143,0 z"
         style="fill:#ffffff;fill-opacity:1;stroke:#ffffff;stroke-width:1px;stroke-linecap:butt;stroke-linejoin:miter;stroke-opacity:0" />
      <path
         transform="translate(0,308.2677)"
         inkscape:connector-curvature="0"
         id="path3907"
         d="m 628.57143,259.80877 c -4.72327,0.89562 -6.42857,4.94651 -6.42857,9.28571 0,9.28767 13.244,11.756 18.57143,6.42857 5.36914,-5.36914 -1.61726,-22.02964 -12.14286,-15.71428 z"
         style="fill:#ffffff;fill-opacity:1;stroke:#ffffff;stroke-width:1px;stroke-linecap:butt;stroke-linejoin:miter;stroke-opacity:0" />
      <path
         transform="translate(0,308.2677)"
         inkscape:connector-curvature="0"
         id="path3909"
         d="m 600,263.3802 c -4.18824,-0.15693 -7.14286,3.2482 -7.14286,7.14285 0,11.51077 14.92765,12.9295 21.42857,6.42857 C 620.89105,270.34629 609.91405,259.41458 600,263.3802 z"
         style="fill:#ffffff;fill-opacity:1;stroke:#ffffff;stroke-width:1px;stroke-linecap:butt;stroke-linejoin:miter;stroke-opacity:0" />
      <path
         transform="translate(0,308.2677)"
         inkscape:connector-curvature="0"
         id="path3924"
         d="m 572.85714,251.23734 c -3.29538,0.54229 -7.95698,5.5146 -6.42857,8.57143 9.66099,19.32197 29.35629,2.92771 22.14286,-4.28572 -1.03695,-1.03694 -2.35878,-1.64449 -3.57143,-2.85714 -3.71453,-3.71453 -7.08742,-3.45075 -12.14286,-1.42857 z"
         style="fill:#ffffff;fill-opacity:1;stroke:#ffffff;stroke-width:1px;stroke-linecap:butt;stroke-linejoin:miter;stroke-opacity:0" />
      <path
         transform="translate(0,308.2677)"
         inkscape:connector-curvature="0"
         id="path3939"
         d="m 544.28571,232.66591 c -13.70272,8.00452 8.0372,25.53423 16.42858,17.14286 4.61807,-4.61808 5.53906,-11.60379 0.71428,-16.42857 -1.81148,-1.81148 -5.82251,-2.25109 -7.14286,-3.57143 -1.38441,-1.38442 -8.54291,2.56572 -10,2.85714 z"
         style="fill:#ffffff;fill-opacity:1;stroke:#ffffff;stroke-width:1px;stroke-linecap:butt;stroke-linejoin:miter;stroke-opacity:0" />
      <path
         transform="translate(0,308.2677)"
         inkscape:connector-curvature="0"
         id="path3941"
         d="m 528.57143,208.3802 c -8.46636,8.7607 6.66368,-8.7107 -3.57143,3.57142 -7.32204,8.78645 8.91387,23.229 17.14286,15 7.59522,-7.59521 0.12901,-24.0516 -13.57143,-18.57142 z"
         style="fill:#ffffff;fill-opacity:1;stroke:#ffffff;stroke-width:1px;stroke-linecap:butt;stroke-linejoin:miter;stroke-opacity:0" />
      <path
         inkscape:connector-curvature="0"
         id="path3954"
         d="m 595,496.6479 c -3.9877,-1.7445 -9.70998,5.58002 -7.14285,10.71428 4.29437,8.58874 17.14937,11.42206 23.57143,5 C 617.49557,506.29519 605.19641,494.60862 595,496.6479 z"
         style="fill:#ffffff;fill-opacity:1;stroke:#ffffff;stroke-width:1px;stroke-linecap:butt;stroke-linejoin:miter;stroke-opacity:0" />
      <path
         inkscape:connector-curvature="0"
         id="path3995"
         d="m 562.14286,510.93361 c -2.77659,1.18084 -6.78648,8.56991 -5,12.14286 3.52069,7.04139 5.93585,14.50728 11.42857,20 5.92295,5.92295 30.40005,23.3714 41.42857,17.85714 0.43127,-0.21563 1.81267,0.33019 2.14286,0 1.98546,-1.98547 3.89408,-3.89408 6.42857,-6.42857 4.42658,-4.42658 -0.46428,-13.07142 -2.14286,-16.42857 -1.95162,-3.90325 -26.67396,-23.33698 -30,-25 -2.18861,-1.09431 -4.126,-1.26886 -5.71428,-2.85715 -1.93348,-1.93347 -16.0447,-0.2964 -18.57143,0.71429 z"
         style="fill:none;stroke:#ffffff;stroke-width:1px;stroke-linecap:butt;stroke-linejoin:miter;stroke-opacity:0" />
    </g>
    <path
       style="fill:#ffff00;fill-opacity:1;stroke:#ffffff;stroke-width:1.35816562px;stroke-linecap:butt;stroke-linejoin:miter;stroke-opacity:0"
       d="m 455.82858,522.43896 c -17.89766,0.1441 -35.9121,1.50263 -44.62629,3.68119 -4.78134,1.19533 -17.57412,-0.41591 -21.3767,1.48539 -4.67403,2.33701 -10.63956,0.60802 -15.49973,2.22808 -4.80543,1.60181 -10.69174,0.59314 -15.49972,2.1958 -11.13912,3.71303 -21.23617,4.643 -28.44846,7.55611 -4.31175,-0.48339 -9.93475,-1.62688 -12.36748,-0.12917 -2.70728,1.66674 -8.25033,1.40007 -11.43105,3.35828 -10.22906,6.29755 -23.79332,9.71637 -33.29211,15.56431 -7.05631,4.34423 -9.36321,11.70246 -13.94976,17.17886 -3.26174,3.89459 -6.86863,9.79936 -7.87903,14.04662 -0.18901,0.79457 -1.88017,4.24462 -2.84161,5.39262 -1.13548,1.35576 -1.62093,4.59109 -1.71143,7.36237 -5.01169,12.7658 -6.82156,28.51771 -3.35827,43.30235 1.5962,6.81424 16.58399,19.85861 22.8298,21.34441 2.50934,0.59697 9.18182,-0.2482 11.56021,1.74372 5.39509,4.51844 25.73434,5.56969 32.96921,3.87494 4.90516,-1.14902 11.42297,1.03434 15.30597,-1.35623 3.63502,-2.2379 8.99946,-2.34518 13.11019,-4.87595 6.67283,-4.10814 12.12539,-8.24738 18.92258,-12.43207 3.55207,-2.18685 5.71882,-8.34455 9.52586,-10.68836 2.14335,-1.31956 5.06727,-13.58524 6.39365,-14.40182 2.55655,-1.57395 3.41597,-10.12016 4.327,-13.94976 1.23935,-5.20976 1.86545,-10.23668 1.90518,-15.07994 2.29044,-4.61408 3.87971,-9.49995 4.52075,-14.33725 4.14846,-1.11815 8.4839,-2.11072 12.27061,-4.00409 6.55166,-3.27582 23.03825,-1.80244 30.99946,-4.45616 4.4285,-1.47617 10.32853,1.47615 14.75703,0 3.96728,-1.32244 40.82711,-0.99546 44.30338,0.74269 3.73962,1.8698 10.27471,-1.86982 14.01433,0 3.54186,1.77092 9.10278,-0.98653 12.56124,0.74269 6.02109,3.01055 18.32144,2.15355 24.34748,5.16658 1.85946,0.92973 12.8703,1.82676 13.27164,2.22809 2.0175,2.01751 15.63023,9.45994 19.9236,5.16657 5.3475,-5.34749 9.11806,-14.3133 4.45617,-23.63708 -1.34351,-2.68703 -0.58021,-4.97181 -2.22808,-6.61967 -1.24752,-1.24752 -0.64622,-5.8128 -2.22809,-7.39467 -1.79325,-1.79326 -3.64691,-4.35535 -5.16658,-7.39466 -8.41904,-16.8381 -34.49365,-13.22007 -52.37614,-19.1809 -4.30945,-1.43649 -9.7082,0.70344 -14.04663,-0.7427 -8.26499,-2.75501 -26.05051,-3.8253 -43.94818,-3.68119 z"
       id="path4087"
       inkscape:connector-curvature="0" />
    <path
       style="fill:#ffff00;fill-opacity:1;stroke:#ffffff;stroke-width:1.03331506px;stroke-linecap:butt;stroke-linejoin:miter;stroke-opacity:0"
       d="m 586.14158,585.1767 c 1.01525,4.1179 -13.98782,8.82126 -19.19014,14.02357 -1.08656,1.08656 -18.0782,-1.84041 -18.45204,-2.21425 -1.81629,-1.81628 -2.21425,-4.81223 -2.21425,-7.38083 0,-3.3409 21.99685,-8.41011 16.23781,-19.92822 -0.59046,-1.18092 0.59047,-3.24756 0,-4.42849 -1.06898,-2.13797 -0.69025,-8.07108 -2.21425,-9.59506 -0.87538,-0.87538 -9.38029,-15.71451 -7.38082,-17.71398 1.12139,-1.12139 5.40236,-1.97847 6.64275,-0.73808 1.52102,1.52103 9.87941,2.49861 11.80931,4.4285 6.86808,6.86807 14.22876,14.43397 18.45204,22.88054"
       id="path4123"
       inkscape:connector-curvature="0" />
    <path
       style="fill:#ffffff;fill-opacity:0.99963888;stroke:#ffffff;stroke-width:0.97372478px;stroke-linecap:butt;stroke-linejoin:miter;stroke-opacity:0"
       d="m 304.50384,858.96959 c -5.78963,-0.0367 -17.98791,3.71379 -20.96881,3.5771 -13.14361,-0.60273 -43.18602,-7.77617 -55.01849,-2.52299 -9.92377,4.4058 -72.39276,4.30094 -80.85275,2.20174 -0.90472,6.714 -6.74911,31.80588 -1.71173,37.32746 3.07473,3.37027 16.14148,-1.20929 19.75605,-1.04354 l 49.63822,2.27626 c 5.00159,38.24628 -3.17495,118.82398 3.53485,126.17868 4.50935,4.9428 23.40919,-2.0422 29.48505,1.3521 1.40901,0.7872 6.24294,4.2462 7.66119,4.3113 1.96517,0.09 0.18031,-3.9319 0.27043,-5.8971 l 1.26149,-27.50915 c 1.19046,-25.96018 0.42542,-51.78948 1.57005,-76.75033 0.15962,-3.48081 -0.0983,-11.61012 -0.46739,-19.69917 l 17.08309,0.78339 c 5.55779,0.25486 24.92651,5.48174 27.42003,3.20689 0.80082,-0.73058 0.30464,-6.64319 0.35963,-7.84241 0.30827,-6.72241 8.86201,-33.64012 3.77813,-39.21266 -0.46129,-0.50563 -1.46297,-0.72909 -2.79904,-0.73757 z"
       id="path4286"
       inkscape:connector-curvature="0" />
    <path
       style="fill:#ffff00;fill-opacity:1;stroke:#ffffff;stroke-width:0.87970746px;stroke-linecap:butt;stroke-linejoin:miter;stroke-opacity:0"
       d="m 278.55122,601.00371 c -12.75646,1.8809 -25.63224,25.90881 -19.55005,31.99099 0.9367,0.93671 3.55455,0.45258 3.55455,1.77728 0,1.18486 -2.71674,-0.83781 -3.55455,0 -6.48616,6.48615 -22.2545,6.259 -30.21373,14.21822 -6.17022,6.17022 -16.79722,22.30288 -10.66365,28.43645 0.33923,0.33923 5.33182,2.0991 5.33182,3.55455 0,0.89682 -9.05592,3.72409 -10.66367,5.33183 -3.87122,3.87123 -9.43041,11.75172 -12.44093,17.77278 -4.38989,8.77977 -2.20688,27.33299 7.10911,31.991 2.70187,1.35093 8.88637,-1.24353 8.88637,1.77727 0,1.31331 -7.76683,4.87001 -8.88637,7.1091 -2.24867,4.49735 -8.07573,21.1714 -5.33184,26.65917 2.21264,4.42528 2.59986,8.40904 7.10911,10.66367 0.65097,0.32548 8.8864,-0.24633 8.8864,0 0,3.19031 -6.63051,1.29866 -8.8864,3.55455 -0.92932,0.92932 -4.50592,7.23458 -5.33183,8.8864 -4.8703,9.74058 -1.82184,31.94643 5.33183,39.1001 2.09455,2.09453 8.8864,-2.96214 8.8864,0 0,5.34832 -15.79072,29.42747 0,37.32281 13.19421,6.59711 25.98534,-7.1091 31.99098,-7.1091 2.96214,0 0,5.92425 0,8.88639 0,8.84458 1.75119,12.38871 5.33184,19.55005 2.42802,4.85599 12.21389,9.11342 15.99549,5.33182 0.80937,-0.80933 6.18644,-9.80907 7.10912,-8.88635 0.88863,0.88858 -0.88864,4.44313 0,5.33181 7.71141,7.71142 7.65194,10.04644 19.55005,15.99546 15.44482,7.72242 22.67814,-17.09738 53.31832,-1.77728 2.25262,1.12638 8.08984,0 10.66367,0 30.2462,0 16.33915,-12.61272 26.65916,-17.77273 3.52928,-1.76468 13.46674,12.81663 21.32733,8.88637 17.40564,-8.70286 12.2094,-5.10029 24.88189,-17.77276 0.81277,-0.81277 17.51096,4.07818 23.10461,-7.10912 4.16508,-8.33016 6.98988,-23.10461 7.10911,-23.10461 4.55118,0 10.1866,-10.31756 7.1091,-19.55005 -3.04361,-9.13082 -13.94158,-15.99549 -23.10461,-15.99549 -6.40748,0 -12.44093,8.57412 -12.44093,7.10911 0,-0.2091 5.07047,0.26136 5.33183,0 0.55089,-0.55089 3.98077,-8.03396 3.55455,-8.88639 -6.7882,-13.5764 -30.92094,-30.21371 -44.43194,-30.21371 -2.44376,0 -4.99355,5.33182 -5.33182,5.33182 -0.19238,0 0.25105,-6.60697 0,-7.1091 -1.80456,-3.60911 -8.35516,-10.39804 -12.44095,-12.44095 -9.62555,-4.81277 -13.18453,7.10912 -15.9955,7.10912 -2.90419,0 -9.70025,-12.44095 -15.9955,-12.44095 -5.18489,0 -7.5913,10.66367 -8.88638,10.66367 -0.13045,0 0.16304,-5.00573 0,-5.33184 -1.60953,-3.21903 -5.7431,-13.12395 -10.66368,-10.66366 -6.68793,3.34396 -11.55092,3.99819 -17.77277,7.1091 -1.76827,0.88414 -4.92905,5.73463 -5.33183,5.33184 -8.18407,-8.18407 -14.64855,-19.33489 -31.99099,-10.66366 -12.75239,6.37619 -9.93347,35.54555 0,35.54555 4.23489,0 0.34309,-7.79528 1.77728,-10.66367 3.396,-6.792 4.22012,-7.77468 8.88638,-12.44094 7.74454,-7.74455 18.53369,10.66367 19.55005,10.66367 1.41306,0 6.23066,-8.88639 15.9955,-8.88639 22.13908,0 19.92515,15.99549 19.55006,15.99549 -1.273,0 10.94125,-12.30215 21.32733,-7.1091 5.94774,2.97387 7.58096,5.80368 10.66366,8.88638 1.70394,1.70395 -2.3289,5.33184 -1.77728,5.33184 2.47491,0 2.70433,-8.03617 3.55456,-8.8864 0.81362,-0.81361 15.22872,-4.32132 17.77277,-1.77727 2.27107,2.27107 4.67048,11.77958 5.33184,12.44094 0.39397,0.39397 17.96991,-3.35741 24.88188,3.55455 5.67136,5.67138 -5.75045,19.96866 -3.55455,17.77278 4.89667,-4.89668 23.4851,-6.72862 28.43643,-1.77727 5.91309,5.91307 2.17821,27.06009 3.55456,28.43643 0.43847,0.43848 7.61487,3.0488 3.55456,7.10912 -2.62146,2.62146 -4.93061,6.70788 -7.10912,8.88638 -2.07349,2.07349 -8.59017,-0.29621 -10.66366,1.77728 -0.94644,0.94644 -2.75316,11.63955 -5.33184,14.21822 -1.34536,1.34537 -20.98646,9.22721 -24.88188,5.33186 -0.93671,-0.93674 -0.45257,-3.55458 -1.77727,-3.55458 -1.55195,0 -2.1162,7.10913 -12.44095,7.10913 -3.43853,0 -12.07228,-11.03235 -14.21822,-8.88641 -5.42628,5.42626 -11.41396,15.99549 -17.77277,15.99549 -6.40784,0 -15.90775,3.64234 -21.32733,-1.77727 -3.08985,-3.08989 -1.77727,-9.02245 -1.77727,-8.88636 0,10.7662 -18.79201,6.73002 -26.65917,10.66363 -7.31468,3.65729 -18.41401,-19.55004 -14.21822,-19.55004 5.26416,0 -23.70795,10.0603 -30.21372,3.55455 -5.50166,-5.50166 -3.37581,-21.14858 -5.33183,-23.10461 -1.2924,-1.29241 -20.01639,0.65547 -24.88189,-1.77727 -4.18114,-2.09058 -5.18813,-6.96542 -7.10911,-8.8864 -8.51288,-8.51288 3.55455,-20.74544 3.55455,-19.55005 0,2.46896 -12.44093,-5.98573 -12.44093,-17.77277 0,-18.30615 14.72454,-6.09647 5.33182,-24.88188 -8.29047,-16.58098 8.88639,-40.63384 8.88639,-33.76828 0,6.26454 -6.86144,-8.63871 -8.88639,-10.66366 -2.68722,-2.68724 -16.92575,-31.06074 -10.66367,-37.32283 1.76101,-1.761 4.51085,-8.0654 7.10912,-10.66367 5.76948,-5.76948 10.59781,-3.48869 15.9955,-8.88638 3.66164,-3.66163 -5.4389,-12.33387 -1.77728,-15.9955 4.91694,-4.91694 12.30398,-12.30398 15.9955,-15.99551 2.66592,-2.6659 9.77502,-0.88863 12.44095,-3.55455 2.3697,-2.3697 -2.36971,-11.84852 0,-14.21822 5.55598,-5.55599 7.33135,-21.77181 12.44094,-31.99099 z"
       id="path4174"
       inkscape:connector-curvature="0" />
    <path
       style="fill:#ffff00;fill-opacity:1;stroke:#ffffff;stroke-width:1px;stroke-linecap:butt;stroke-linejoin:miter;stroke-opacity:0"
       d="m 95.700254,339.28957 c -26.476761,-4.27365 -50.421508,-5.60754 -51.529216,1.02256 -7.171309,42.92336 -1.796242,138.94738 -1.476153,147.46019 l 10.807371,4.72046 c -22.804447,-9.92568 8.301956,8.95183 16.890883,2.822 12.520784,-8.93595 76.082091,-9.64131 100.057621,-26.7524 30.91987,-22.0672 21.48004,-91.82938 -4.64161,-110.84272 -6.8579,-4.9917 -40.10191,-13.58663 -70.108896,-18.43009 z m 2.00417,24.60413 c 26.680736,4.06366 55.009236,49.50554 40.320106,61.89673 -3.65345,3.08191 -4.61181,12.83337 -12.82948,16.10603 -7.23087,2.87967 -43.650999,14.05435 -46.755055,10.37465 -11.610017,-13.7631 0.827148,-58.17237 -1.771504,-80.42264 6.229457,-6.98683 13.56533,-9.0926 21.035933,-7.95477 z"
       id="path4176"
       inkscape:connector-curvature="0" />
    <path
       style="fill:#ffff00;fill-opacity:1;stroke:#ffffff;stroke-width:1px;stroke-linecap:butt;stroke-linejoin:miter;stroke-opacity:0"
       d="m 231.00446,334.08913 c -7.40231,-0.0453 -21.62945,9.36428 -22.4375,9.6875 -14.4873,59.79602 -2.13553,109.30197 31.4375,142.875 6.17344,6.17344 15.14168,10.113 23.1875,14.0625 20.70984,-1.97567 57.41491,-23.22741 62.53125,-28.34375 8.09883,-8.09883 3.57949,-86.10225 8.5625,-88.59375 0.77368,-0.38684 1.56442,-0.69217 2.375,-1 0.0518,-17.34724 5.26071,-37.08305 -5.21875,-47.5625 -1.02351,-1.02351 -38.61741,1.49241 -40,2.875 -13.48564,13.48564 21.78531,122.84375 -20,122.84375 -6.53184,0 -12.86825,-0.98836 -18.25,-3.46875 -2.90954,-7.24601 -3.34544,-16.84713 -7.46875,-25.09375 -10.91707,-21.83415 14.76,-73.8025 -2.875,-91.4375 -2.52663,-2.52663 -4.99756,-3.7257 -7.46875,-3.96875 -0.28571,-0.71772 -0.65853,-1.31478 -1.09375,-1.75 -0.77459,-0.77459 -1.91045,-1.11661 -3.28125,-1.125 z"
       id="path4194"
       inkscape:connector-curvature="0" />
    <path
       style="fill:#ffff00;fill-opacity:1;stroke:#ffffff;stroke-width:1px;stroke-linecap:butt;stroke-linejoin:miter;stroke-opacity:0"
       d="m 413.12109,330.55788 c -24.12059,0.1468 -45.69674,3.88424 -55.1875,13.375 -10.73166,10.73166 -2,92.78393 -2,111.125 0,22.46608 -4.88251,40.54902 -2.03125,44.4375 0.67344,2.69374 0.7895,5.57899 2.03125,8.0625 1.34141,2.68282 38.159,0.21599 38.375,0 2.47829,-2.47829 0.42452,-32.73701 6.0625,-38.375 5.38444,-5.38444 46.34021,-2.95135 56.5625,-8.0625 16.10445,-8.05222 32.57476,-12.38727 44.4375,-24.25 6.59576,-6.59576 10.47155,-18.53406 16.1875,-24.25 6.9023,-6.9023 4.57043,-45.92957 -2.03125,-52.53125 -4.32119,-4.32119 -3.30586,-10.73105 -10.09375,-14.125 -16.35169,-8.17584 -57.05934,-15.62081 -92.3125,-15.40625 z m 6.625,25.40625 c 36.06222,-0.77902 86.42007,41.11809 47.28125,60.6875 -11.57942,5.78971 -28.69657,14.15625 -40.40625,14.15625 -5.91456,0 -19.76793,3.50822 -24.375,5.21875 0.0482,0.27788 0.10189,0.57193 0.15625,0.84375 -2.40002,0.2719 -2.03767,-0.14521 -0.15625,-0.84375 -1.60366,-9.25259 0.15625,-21.78235 0.15625,-33.5 0,-4.3757 -9.3769,-33.09185 -4.0625,-38.40625 5.5235,-5.5235 13.0842,-7.97648 21.40625,-8.15625 z"
       id="path4202"
       inkscape:connector-curvature="0" />
    <path
       style="fill:#ffff00;fill-opacity:1;stroke:#ffffff;stroke-width:0.95797426px;stroke-linecap:butt;stroke-linejoin:miter;stroke-opacity:0"
       d="m 571.24445,334.40194 c -8.41422,-0.0428 -28.23559,7.30666 -31.52334,8.62177 -1.56228,42.0418 3.89177,81.85421 3.89177,123.84811 0,6.93274 -1.72585,29.25863 0,30.98448 3.32577,3.32577 101.5529,5.47586 112.23267,1.91595 5.99133,-1.99711 18.44841,1.47916 29.45771,3.35291 -1.78195,-18.46367 -2.20903,-43.19481 -4.37076,-62.23839 -33.89198,3.12255 -100.19056,10.87457 -100.55736,10.50778 -5.34717,-5.34718 1.66746,-79.88911 -5.80772,-94.83946 -2.2452,-4.49038 3.41285,-17.87215 0,-21.28499 -0.59925,-0.59925 -1.76479,-0.86023 -3.32297,-0.86816 z"
       id="path4220"
       inkscape:connector-curvature="0" />
    <path
       style="fill:#ffff00;fill-opacity:1;stroke:#ffffff;stroke-width:0.86048317px;stroke-linecap:butt;stroke-linejoin:miter;stroke-opacity:0"
       d="m 703.49531,361.03149 c -1.73844,2.31792 -3.72461,4.46926 -5.21532,6.95375 -0.97636,1.62728 3.25623,89.73685 5.21532,95.61413 3.0322,9.09657 -7.32942,29.17779 0,36.50721 2.70702,2.70701 96.70704,8.69218 106.04474,8.69218 17.59786,0 21.28053,-2.2191 15.64596,-19.12281 -1.15311,-3.45933 1.61733,-8.93441 0,-12.16907 -1.06261,-2.12521 -3.23914,-7.42923 -1.73843,-10.43063 1.09206,-2.18414 4.44848,-19.88966 1.73843,-22.5997 -1.66086,-1.66087 -7.71824,3.47687 -10.43063,3.47687 -18.02947,0 -59.64481,-1.20054 -69.53754,8.6922 -2.30072,2.30071 -4.58958,-14.39449 -5.21532,-15.64595 -1.32219,-2.64438 -1.70886,-10.40105 -3.47687,-12.16907 -0.57948,-0.57947 -2.55794,-1.73844 -1.73844,-1.73844 1.67108,0 7.0137,2.63764 8.69219,3.47688 9.24204,4.62102 32.57225,0 43.46097,0 9.43782,0 14.08053,-1.73844 22.59968,-1.73844 0.75333,0 3.47689,-2.14408 3.47689,-1.73844 0,4.77851 -3.47689,-9.129 -3.47689,-13.90751 0,-2.76831 1.76182,-15.62258 0,-17.38438 -1.58476,-1.58478 -13.15592,0 -15.64593,0 -5.70494,0 -65.71408,-6.60717 -66.06067,-6.95376 -0.50342,-0.50342 -0.50342,-11.66565 0,-12.16907 10.92037,-10.92038 90.29671,3.57896 97.35256,-3.47688 3.21774,-3.21775 0,-17.24923 0,-20.86126 0,-2.76831 1.76181,-15.62257 0,-17.38438 -3.37676,-3.37676 -24.45359,5.17682 -29.55346,3.47687 -9.5135,-3.17116 -91.14156,-2.73412 -95.61412,1.73844 -3.25455,3.25456 2.93824,19.51464 3.47688,20.86126 z"
       id="path4222"
       inkscape:connector-curvature="0" />
    <path
       style="fill:#ffff00;fill-opacity:1;stroke:#ffffff;stroke-width:0.86048317px;stroke-linecap:butt;stroke-linejoin:miter;stroke-opacity:0"
       d="m 1020.6448,338.36034 c -4.4135,0.23306 -22.13439,2.94633 -23.34069,3.54949 -12.52067,6.26031 -27.45791,-3.84204 -38.26457,6.96453 -9.54175,9.54178 -17.79253,28.19902 -26.08339,36.48987 -1.69978,1.69978 -3.35279,3.52731 -5.00156,5.40491 -0.0595,-0.0618 -0.12983,-0.12985 -0.18823,-0.18823 l -31.30008,-31.30007 c -5.07704,-5.07704 -5.33552,-10.47934 -12.18121,-13.90219 -5.13738,-2.56869 -26.72483,3.16155 -36.48987,-1.72096 -1.95666,-0.97835 -5.49709,1.2702 -7.90568,2.28565 2.44406,3.34889 6.04749,10.24049 7.90568,13.3375 10.52423,13.23985 37.32566,38.172 58.21707,60.34137 -6.80237,9.37803 -13.84624,18.71336 -21.7272,26.59431 -5.8987,5.89871 -3.99397,19.64401 -10.43336,26.0834 -8.9887,8.9887 -14.78751,18.52565 -24.01286,30.38581 6.88051,-0.9017 27.95507,5.88081 37.94193,0.88737 1.88909,-0.94453 2.67108,4.29346 5.21668,1.74786 13.13572,-13.13572 24.53714,-37.84048 38.96375,-52.86593 0.40013,0.85678 0.7376,1.67497 0.99494,2.447 2.8136,8.44079 24.19576,41.56668 29.5791,46.95011 6.09102,6.09096 24.28816,-5.24035 31.27318,-1.74786 3.45338,1.72669 27.92717,6.84174 31.30007,3.46882 0.01,-0.0106 -35.20909,-38.47129 -38.23766,-39.98557 -6.31682,-3.1584 -17.89727,-30.05152 -22.61462,-34.7689 -1.29657,-1.29654 -3.25787,-2.93104 -5.45864,-4.70577 6.05694,-7.05829 11.3612,-14.06396 14.14411,-19.62977 2.63325,-5.2666 13.95996,-24.36633 17.39794,-27.80436 2.5967,-2.59668 31.30007,-35.20182 31.30007,-38.23772 0,-0.0809 -0.3644,-0.11397 -0.9949,-0.0807 z M 849.83885,502.68573 c -1.79993,0.23588 -2.64108,0.99746 -2.04365,2.63523 0.72019,-0.90021 1.36375,-1.76115 2.04365,-2.63523 z m -9.94933,-156.74239 c -1.47733,-2.02424 -2.52767,-2.74779 -2.52767,-0.56469 0,1.3372 1.05539,1.1854 2.52767,0.56469 z"
       id="path4253"
       inkscape:connector-curvature="0" />
    <path
       style="fill:#ffffff;fill-opacity:1;stroke:#ffffff;stroke-width:0.97372478px;stroke-linecap:butt;stroke-linejoin:miter;stroke-opacity:0"
       d="m 148.72615,869.71646 c -26.57873,-15.18719 -89.606454,-16.18063 -118.03328,-1.96721 -11.805586,5.90279 -12.032035,18.16241 -15.737769,25.57387 -2.722262,5.44452 -7.8031868,19.73791 -1.967216,25.57387 11.557588,11.5576 29.648323,13.91056 39.344424,23.60665 1.608457,1.60846 26.729621,3.52871 31.475536,5.90166 5.320715,2.66036 25.023145,2.67547 27.541095,3.93444 6.35239,8.46985 12.86518,11.9598 17.705,21.63944 1.68927,3.37856 -1.01346,4.9479 -1.96723,5.90167 -1.96721,1.96722 -1.96721,5.90166 -3.93444,7.86888 -15.43856,15.43857 -53.50211,-4.32158 -62.951077,-13.77055 -2.218574,-2.21857 -4.423135,1.96723 -5.901668,1.96723 -8.032119,0 -57.8065474,5.14452 -45.2460821,17.70498 6.9324821,6.93251 18.5264381,18.52641 25.5738691,25.57381 10.70301,10.703 91.286498,12.9763 102.295508,1.9672 5.74352,-5.7435 19.17993,-10.8187 23.60665,-19.6721 3.04817,-6.09636 6.71876,-16.55488 9.8361,-19.67223 1.79334,-1.79333 0,-14.88728 0,-17.70499 0,-52.43662 -54.20926,-30.60262 -62.95107,-39.34442 -2.22213,-2.22213 -26.709127,-7.86888 -31.475539,-7.86888 -3.693844,0 -33.12202,-16.05852 -23.606652,-25.57388 11.479455,-11.47946 61.418701,-7.43405 74.754401,5.90167 1.64572,1.64571 4.04193,6.00914 5.90167,7.86888 0.92736,0.92736 -1.31148,3.93444 0,3.93444 1.05587,0 14.63398,-4.79788 15.73777,-5.90167 3.21737,-3.21737 15.81107,1.89392 19.67221,-1.96721 8.26238,-8.2624 -13.603,-29.10318 -19.67221,-31.47555 z"
       id="path4284"
       inkscape:connector-curvature="0" />
    <path
       style="fill:#ffffff;fill-opacity:1;stroke:#ffffff;stroke-width:0.97372478px;stroke-linecap:butt;stroke-linejoin:miter;stroke-opacity:0"
       d="m 367.65648,846.89765 c -26.30526,0.23454 -50.89054,4.88205 -60.94909,14.94059 -6.11512,6.11513 -3.95575,75.39008 -3.95575,86.57022 l 0,66.88274 c 1.57922,3.1585 1.45876,7.3316 3.95575,9.8285 3.0308,3.0308 30.50934,10.8131 33.44136,7.8811 10.06925,-10.0693 -4.86489,-40.38288 3.92533,-49.1731 6.27605,-6.27605 28.82441,2.30847 33.44136,0 4.13413,-2.06706 9.24252,-2.01695 14.30158,-2.00831 12.91474,15.25957 19.0132,45.12111 27.02087,53.12891 0.76649,0.7665 6.65017,0 7.85065,0 12.11812,0 24.28665,3.9557 35.41924,3.9557 3.84238,0 -12.43264,-28.7906 -13.78429,-31.4939 -6.86462,-13.72925 -10.60004,-26.0885 -17.83133,-36.36254 18.00996,-9.92051 32.00855,-31.30604 41.44416,-50.17726 2.39542,-4.79084 -0.0143,-17.76872 -1.94745,-21.63494 -6.78922,-13.57844 -10.3946,-24.14846 -19.6875,-33.44136 -12.18194,-12.18193 -48.82385,-19.19789 -82.64489,-18.89635 z m -10.58926,30.73319 c 22.41154,-0.42018 56.59833,14.45431 67.67387,25.52984 4.00085,4.00089 3.92533,11.55319 3.92533,17.70962 0,4.84993 0.33415,7.51651 -1.97788,9.82854 -1.63935,1.63935 -0.30809,6.24173 -1.94745,7.88108 -4.4185,4.4185 -11.75771,7.80196 -15.76217,11.80642 -1.40168,1.40168 -59.50262,7.34965 -60.97951,5.87277 -5.16078,-5.16079 -3.21791,-65.81402 -1.94745,-76.71125 3.12137,-1.24855 6.86497,-1.8392 11.01526,-1.91702 z"
       id="path4304"
       inkscape:connector-curvature="0" />
    <path
       style="fill:#ffff00;fill-opacity:1;stroke:#ffffff;stroke-width:0.87970746px;stroke-linecap:butt;stroke-linejoin:miter;stroke-opacity:0"
       d="m 380.34631,879.77185 c -0.18195,0.0371 -0.35274,0.13974 -0.48686,0.27386 -5.42628,5.42626 -11.41166,15.97518 -17.77048,15.97518 -6.40784,0 -15.91108,3.65473 -21.33065,-1.76488 -1.90358,-1.90359 -2.14069,-4.86877 -2.03874,-6.8465 -2.30223,8.19966 -19.09333,4.95187 -26.41229,8.61138 -4.1287,2.06432 -9.45796,-4.41839 -12.56713,-10.46754 -1.94721,7.61919 -3.82147,15.32663 -4.99034,22.94339 1.00822,0.5552 2.09828,1.14042 3.34718,1.76487 15.44481,7.72243 22.67125,-17.11541 53.31143,-1.7953 2.25262,1.12637 8.10672,0 10.68054,0 30.2462,0 16.33571,-12.61047 26.65572,-17.77048 1.33938,-0.66971 3.60773,1.03111 6.32921,3.1646 -0.23957,-2.05047 -0.57921,-3.81146 -1.00415,-4.92948 -3.22362,0 -10.99412,-9.71525 -13.72344,-9.1591 z m -41.62673,7.63766 c 0.17245,-0.61418 0.27386,-1.28852 0.27386,-2.03874 0,-0.0523 -0.21034,0.80624 -0.27386,2.03874 z"
       id="path4312"
       inkscape:connector-curvature="0" />
    <path
       style="fill:#ffffff;fill-opacity:1;stroke:#ffffff;stroke-width:0.97372478px;stroke-linecap:butt;stroke-linejoin:miter;stroke-opacity:0"
       d="m 470.76669,874.80306 c -7.78436,19.2708 -7.15641,147.72374 2.82399,157.35224 4.24713,4.0974 11.54662,-0.2072 17.70214,-0.3177 36.88079,-0.6618 72.39551,6.5709 108.32094,5.9262 3.02667,-0.054 0.93644,-38.55336 -4.67511,-41.23441 -5.02002,-2.39834 -74.06577,0.64013 -74.74236,1.3414 -0.55936,0.57986 -9.51544,4.35011 -9.76393,4.11041 -3.0033,-2.89744 2.68561,-14.80479 -0.3177,-17.70219 -1.26546,-1.22084 -6.08266,-9.71722 -4.18091,-13.69773 4.08087,-8.54157 72.06898,5.43669 80.60778,-3.41421 1.96832,-2.04025 -2.31499,-19.36048 -2.39049,-23.56755 -0.066,-3.67891 2.04478,-19.28865 -0.3883,-21.63594 -1.00111,-0.96582 -1.03642,-2.93271 -2.03751,-3.89851 -0.23252,-0.22432 -8.88434,2.65792 -11.73083,4.1456 -3.55068,1.85572 -53.38682,0.95814 -60.97404,1.09431 -0.96932,0.0174 -9.3199,4.53866 -9.76392,4.1103 -0.0305,-0.0294 4.35509,-9.32843 1.7551,-11.83672 -0.40585,-0.39155 -4.60526,-5.24389 -2.10809,-7.83231 4.51087,-4.67574 60.22229,-3.04836 70.77326,-3.23772 6.91361,-0.12408 23.20886,2.76035 29.50356,-0.5295 1.83777,-0.96048 5.8282,-4.1461 5.86541,-2.0728 0.0744,4.14659 -4.07119,-7.58423 -4.14561,-11.73082 -0.12805,-7.13477 -4.52942,-23.69821 -8.36182,-27.39547 -1.93039,-1.86232 -16.83021,0.30205 -19.66904,0.353 -15.42206,0.27677 -75.86903,-2.04047 -86.50849,3.52011 -5.54016,2.89549 -8.72257,3.85759 -15.59403,8.15001 z"
       id="path4317"
       inkscape:connector-curvature="0" />
    <path
       style="fill:#ffffff;fill-opacity:1;stroke:#ffffff;stroke-width:0.89592779px;stroke-linecap:butt;stroke-linejoin:miter;stroke-opacity:0"
       d="m 681.07001,857.87199 c -4.59403,0.04 -9.26859,0.20952 -13.91488,0.47595 -21.86485,1.25378 -42.74837,4.96089 -48.01613,10.75114 -5.09264,5.5978 -7.77909,12.35261 -13.60689,18.75849 -2.2949,2.52253 -1.96928,11.71845 -4.73163,14.75481 -15.6792,17.23447 -10.03196,56.34258 -8.6513,85.56111 1.01197,21.41601 3.74088,35.71821 5.48756,39.61671 11.88863,6.3904 26.9849,6.4753 34.35323,-1.6239 4.39935,-4.8357 3.39895,-20.2821 1.39988,-39.4207 11.42161,0.2439 26.67104,1.37256 35.02519,5.06759 1.3757,0.60844 28.80458,-1.26093 36.28507,-1.67987 1.22748,18.63458 4.01106,48.65898 9.15526,43.00448 6.38606,-7.0195 27.08287,4.4822 32.56138,-1.5398 3.32252,-3.6521 -0.72847,-53.26932 -1.2039,-63.33091 -0.59798,-12.65467 -1.19343,-25.25827 -2.4918,-37.40499 -9.22234,-15.04789 -15.86129,-41.42323 -25.70194,-51.26387 -6.16596,-6.16597 -12.51416,-14.12953 -18.56249,-21.25029 -5.41414,-0.35807 -11.31246,-0.52893 -17.38661,-0.47595 z m -32.53338,23.37811 c 11.39929,-0.33532 28.0435,7.26783 31.44148,10.35916 19.21317,17.47935 21.88653,38.15579 23.15413,65.51473 -4.10408,1.93404 -8.05791,3.94641 -8.95928,4.45164 -4.33451,2.42946 -7.50391,-1.4226 -10.94712,-1.2599 -13.55402,0.64047 -37.81301,0.57706 -52.69175,-0.39197 -2.84195,-29.73463 -3.80576,-61.11216 9.26725,-75.48192 1.76578,-1.94092 4.4799,-2.88724 7.67138,-3.13575 0.3562,-0.0277 0.6962,-0.0452 1.06391,-0.056 z"
       id="path4332"
       inkscape:connector-curvature="0" />
    <path
       style="fill:#ffffff;fill-opacity:1;stroke:#ffffff;stroke-width:0.97372478px;stroke-linecap:butt;stroke-linejoin:miter;stroke-opacity:0"
       d="m 744.82807,1029.0613 c -0.91623,-44.17184 5.90166,-81.50875 5.90166,-123.93485 0,-5.33073 -3.39232,-30.05044 0,-33.44276 3.7238,-3.72381 3.62816,-8.69936 9.83611,-11.80333 5.34229,-2.67115 39.36624,-15.71595 47.2133,-7.86888 11.38526,11.38524 9.33297,40.8085 19.67221,51.14774 2.27569,2.2757 12.06615,-27.80391 13.77055,-29.50832 4.77825,-4.77828 6.58928,-12.49097 11.80331,-17.70498 8.05212,-8.05212 41.76488,-9.38287 49.18057,-1.96723 14.68026,14.68031 5.90165,131.69873 5.90165,159.34491 0,2.2559 -0.5189,22.1583 -1.96722,23.6067 -7.98522,7.9851 -2.40013,4.1508 -13.77061,9.8361 -4.64272,2.3213 -19.78589,-0.1138 -21.63938,-1.9673 -3.03412,-3.0341 -3.93443,-91.96189 -3.93443,-100.32823 0,-7.21315 0,-14.42629 0,-21.63944 0,-1.31148 -1.31151,-3.93444 0,-3.93444 3.27873,0 -3.5833,5.5505 -5.90162,7.86889 -2.00714,2.00714 -2.1419,8.21826 -3.93443,11.80332 -7.11319,14.22621 -12.95758,34.59693 -23.60672,45.24609 -1.14703,1.14703 -7.1903,20.35081 -11.80333,15.73781 -12.05572,-12.05576 -17.6058,-56.95026 -29.50832,-68.85278 -1.91179,-1.91179 0.73647,-7.86889 -1.96722,-7.86889 -2.60613,0 -5.90166,27.00569 -5.90166,31.47554 0,10.47172 5.48315,73.20563 0,78.68883 -1.31148,1.3115 -6.5574,-1.3115 -7.86888,0 -7.98817,7.9882 -21.06543,2.3117 -31.47554,-3.9345 z"
       id="path4366"
       inkscape:connector-curvature="0" />
    <path
       style="fill:#ffffff;fill-opacity:1;stroke:#ffffff;stroke-width:0.97372478px;stroke-linecap:butt;stroke-linejoin:miter;stroke-opacity:0"
       d="m 1011.7026,857.2849 c -19.18391,-0.10994 -67.35596,2.90742 -69.01275,4.56433 -4.87135,4.87126 -17.43669,7.6081 -21.635,11.80642 -6.63646,6.63642 -13.94407,15.89148 -19.68758,21.63494 -5.7997,5.79966 0.31451,33.72549 3.95585,37.36669 7.15016,7.15018 11.65695,14.68334 25.56032,21.63495 5.01069,2.50538 12.83418,-0.45979 17.70952,1.97788 25.12112,12.56059 79.25554,13.2179 47.22569,45.24779 -1.31151,1.3115 -6.56953,-1.3115 -7.88104,0 -14.7026,14.7025 -65.11759,-45.0656 -86.57034,-23.61285 -3.11047,3.11046 -3.63988,8.03445 -5.90311,11.80642 16.98721,18.08603 -14.61405,-12.66656 9.85896,11.80643 8.47209,8.4721 14.15923,17.2188 23.49115,23.2476 0.10448,0.1267 0.19465,0.2555 0.30419,0.3652 4.26238,4.2623 11.49989,5.5662 15.76227,9.8285 1.96712,1.9673 9.80872,-1.9673 11.77593,0 10.55937,10.5593 59.78864,-2.704 66.91314,-9.8285 1.1075,-1.1074 14.9388,-8.653 16.8577,-15.1536 15.313,-11.59734 30.1345,-28.15721 22.2739,-43.87846 -9.986,-19.97186 -61.8083,-20.48579 -74.76379,-33.44136 -2.87911,-2.87904 -14.57329,-0.78897 -17.70966,-3.92533 -7.52504,-7.5251 -17.40124,-11.49798 -23.61282,-17.70962 -11.25392,-11.25391 18.60379,-22.17681 27.5381,-17.70962 3.26977,1.63489 23.37966,9.62565 23.61287,9.85897 9.7821,9.78205 18.4489,14.99238 29.5161,3.92533 1.3629,-1.363 8.4655,-0.61489 9.8285,-1.97788 2.4797,-2.47966 16.8362,-22.50833 9.8285,-29.51603 l -11.776,-11.77599 c -3.1363,-3.13637 -12.8831,-3.02419 -15.7621,-5.90321 -0.4138,-0.41376 -3.2715,-0.61364 -7.6985,-0.639 z"
       id="path4368"
       inkscape:connector-curvature="0" />
  </g>
</svg>
