<?xml version="1.0" encoding="UTF-8" standalone="no"?>
<!-- Created with Inkscape (http://www.inkscape.org/) -->

<svg
   xmlns:dc="http://purl.org/dc/elements/1.1/"
   xmlns:cc="http://creativecommons.org/ns#"
   xmlns:rdf="http://www.w3.org/1999/02/22-rdf-syntax-ns#"
   xmlns:svg="http://www.w3.org/2000/svg"
   xmlns="http://www.w3.org/2000/svg"
   xmlns:sodipodi="http://sodipodi.sourceforge.net/DTD/sodipodi-0.dtd"
   xmlns:inkscape="http://www.inkscape.org/namespaces/inkscape"
   width="744.09448819"
   height="1052.3622047"
   id="svg2"
   version="1.1"
   inkscape:version="0.48.3.1 r9886"
   sodipodi:docname="New document 1">
  <defs
     id="defs4" />
  <sodipodi:namedview
     id="base"
     pagecolor="#8c54be"
     bordercolor="#666666"
     borderopacity="1.0"
     inkscape:pageopacity="1"
     inkscape:pageshadow="2"
     inkscape:zoom="0.49497475"
     inkscape:cx="562.17813"
     inkscape:cy="495.45484"
     inkscape:document-units="px"
     inkscape:current-layer="layer1"
     showgrid="false"
     inkscape:window-width="1364"
     inkscape:window-height="766"
     inkscape:window-x="0"
     inkscape:window-y="0"
     inkscape:window-maximized="0" />
  <metadata
     id="metadata7">
    <rdf:RDF>
      <cc:Work
         rdf:about="">
        <dc:format>image/svg+xml</dc:format>
        <dc:type
           rdf:resource="http://purl.org/dc/dcmitype/StillImage" />
        <dc:title></dc:title>
      </cc:Work>
    </rdf:RDF>
  </metadata>
  <g
     inkscape:label="Layer 1"
     inkscape:groupmode="layer"
     id="layer1">
    <path
       style="fill:#00ff00;fill-opacity:1;stroke:#ffffff;stroke-width:0.35080856px;stroke-linecap:butt;stroke-linejoin:miter;stroke-opacity:0"
       d="m 47.636148,590.65237 c -10.715075,0.0882 -27.342879,9.75862 -23.88787,18.54901 0.668206,0.50115 1.289958,1.07216 2.006187,1.5019 1.016303,0.60978 4.569383,-0.50429 6.007596,-0.50429 1.002309,0 3.014761,1.00231 3.014761,0 0,-10.14869 11.983722,-9.58959 16.027566,-1.5019 0.681793,1.36359 -0.172531,5.6868 -0.997611,6.51189 -0.08967,0.0897 -4.140099,-1.6847 -5.514273,-0.99762 -2.139988,1.06999 -4.884833,0.94052 -7.016171,2.00619 -3.581141,1.79058 -9.097967,5.65453 -11.028544,9.51569 -2.731606,5.46321 -5.175111,21.47023 2.006186,25.06088 1.597741,0.79886 3.474538,1.23846 5.009985,2.00619 0.702115,0.35106 4.890366,0.5641 6.01856,0 3.147076,-1.57353 6.902249,-1.94923 10.01997,-3.50809 0.498835,-0.24942 2.647867,-2.86641 3.508085,-2.00619 0.966473,0.96647 -0.182943,5.82466 0,6.0076 0.06508,0.0651 2.928886,-1.21229 3.508085,-1.5019 2.200314,-1.10015 5.346445,0.16782 7.016171,-1.5019 0.8916,-0.8916 1.008575,-13.69112 1.008575,-16.03853 0,-15.26194 4.688069,-34.4799 -11.532831,-42.59035 -1.413674,-0.70683 -3.190155,-1.02491 -5.174427,-1.00858 z m -1.501898,31.80299 c 2.536373,-0.10306 4.139376,1.43163 4.670138,1.27169 0.238104,1.1905 2.388628,13.15657 2.006187,13.53901 -3.695046,3.69505 -17.048826,8.49271 -20.544227,1.5019 -2.689049,-5.3781 7.025135,-13.53253 11.028545,-15.53424 1.045315,-0.52265 1.993898,-0.74401 2.839357,-0.77836 z"
       id="path2985"
       inkscape:connector-curvature="0" />
    <path
       style="fill:#ffff00;fill-opacity:1;stroke:#ffffff;stroke-width:0.35080856px;stroke-linecap:butt;stroke-linejoin:miter;stroke-opacity:0"
       d="m 78.873767,638.76509 c -6.508025,-0.034 5.083261,-1.26484 -2.50577,0 -5.167351,0.86123 -2.610629,9.91826 -1.002317,11.52657 1.433333,1.43333 19.026384,-3.76741 3.508087,-11.52657 z"
       id="path2990"
       inkscape:connector-curvature="0" />
    <path
       style="fill:#ffffff;fill-opacity:1;stroke:#ffffff;stroke-width:0.35080856px;stroke-linecap:butt;stroke-linejoin:miter;stroke-opacity:0"
       d="m 120.29736,590.27965 c -1.77428,0.0175 -3.56602,0.28606 -5.33887,0.87701 -1.17144,0.39049 -2.3294,1.91016 -3.50808,2.49951 -0.83969,0.41985 -2.07119,0.63428 -2.51048,1.51287 -0.92056,1.84113 -1.82153,3.82772 -3.0038,5.00998 -0.18921,0.18922 1.30269,-6.72206 0,-8.02475 -1.90315,-1.90315 -12.035241,1.71164 -14.032331,2.51048 0.37592,13.85758 -0.954302,27.9293 0.99762,41.59274 0.90437,6.33064 1.00856,12.58056 1.00856,19.04233 l 0,33.07467 c 0,0.71781 -0.45685,4.0598 0,4.51666 1.429535,1.42954 6.471061,0.17805 8.518061,-0.50429 1.12715,-0.37572 4.72106,0.79321 5.51428,0 0.81362,-0.81363 0.50429,-3.45274 0.50429,-5.00998 0,-4.59061 -1.00858,-34.08325 -2.00619,-36.07847 -0.58204,-1.16408 -0.50429,-5.83479 -0.50429,-7.01617 0,-1.50346 -1.50346,-4.51666 0,-4.51666 0.3341,0 -0.14941,0.70974 0,1.00858 l 1.5019,3.00379 c 2.22044,4.44087 8.34891,7.57684 14.53663,5.51427 5.15307,-1.71769 15.54326,-6.53893 17.54043,-12.53045 4.33508,-13.00521 7.62431,-27.96081 -3.50808,-39.09322 -1.35031,-1.3503 -2.73085,-3.61279 -4.51666,-4.50569 -3.4627,-1.73136 -7.28959,-2.92175 -11.19299,-2.88321 z m 0.93183,14.28448 c 0.30445,-0.004 0.56157,0.0287 0.74547,0.12059 1.22725,0.61362 2.8056,0.40519 4.01237,1.00857 5.90358,2.95179 6.81603,18.12992 5.00999,23.54803 -0.39711,1.19132 -2.17925,1.58843 -3.01476,2.00619 -5.88385,2.94191 -15.33718,2.69658 -19.53565,-1.50191 -1.69813,-1.69813 -0.50429,-9.1564 -0.50429,-11.53283 0,-3.16152 -0.9633,-6.25855 0.50429,-9.01139 1.85334,-0.46333 9.8396,-4.59631 12.78258,-4.63725 z"
       id="path2992"
       inkscape:connector-curvature="0" />
    <path
       style="fill:#ffffff;fill-opacity:1;stroke:#ffffff;stroke-width:0.35080856px;stroke-linecap:butt;stroke-linejoin:miter;stroke-opacity:0"
       d="m 150.53893,592.15767 c -0.39074,9.15657 0.79095,18.51888 -0.50115,27.56353 -0.26821,1.8775 -1.96493,28.10437 -1.00231,29.06699 1.0584,1.0584 8.40887,-0.72403 9.52195,-1.00231 2.13171,-0.53293 8.76966,1.00341 10.0231,-1.50346 0.758,-1.51602 0,-5.34723 0,-7.01618 0,-11.52154 3.00444,-29.07448 -0.50115,-39.59126 -0.77154,-2.31458 0.64586,-7.94611 -1.50347,-9.02078 -0.71744,-0.35872 -14.87865,-0.70916 -15.03466,-0.50116 -0.44825,0.59767 -0.66821,1.33641 -1.00231,2.00463 z"
       id="path2994"
       inkscape:connector-curvature="0" />
    <path
       style="fill:#ffff00;fill-opacity:1;stroke:#ffffff;stroke-width:0.35080856px;stroke-linecap:butt;stroke-linejoin:miter;stroke-opacity:0"
       d="m 161.56434,559.08143 c -1.30328,0.73255 -1.0605,-1.97552 -5.01154,0 -15.10646,7.55323 -1.39209,21.67959 8.01848,18.54274 6.23332,-2.07778 8.87944,-13.85244 2.50577,-17.03927 -1.76855,-0.88429 -3.28669,-1.05827 -5.51271,-1.50347 z"
       id="path2996"
       inkscape:connector-curvature="0" />
    <path
       id="path3001"
       d="m 203.99026,588.77618 c -1.77427,0.0175 -3.56602,0.28607 -5.33887,0.87701 -1.17144,0.39049 -2.32939,1.91017 -3.50809,2.49952 -0.83969,0.41984 -2.07117,0.63428 -2.51047,1.51286 -0.92057,1.84113 -1.82153,3.82772 -3.0038,5.00999 -0.18921,0.18921 1.3027,-6.72206 0,-8.02475 -1.90315,-1.90315 -12.03525,1.71164 -14.03234,2.51048 0.37593,13.85757 -0.95431,27.9293 0.99761,41.59275 0.90438,6.33063 1.00858,12.58055 1.00858,19.04231 l 0,33.07467 c 0,0.71782 -0.45686,4.05981 0,4.51667 1.42953,1.42953 6.47106,0.17805 8.51807,-0.50429 1.12714,-0.37572 4.72105,0.79322 5.51427,0 0.81362,-0.81363 0.50429,-3.45274 0.50429,-5.00999 0,-4.59061 -1.00858,-34.08325 -2.00619,-36.07847 -0.58204,-1.16408 -0.50429,-5.83479 -0.50429,-7.01616 0,-1.50347 -1.50346,-4.51667 0,-4.51667 0.3341,0 -0.14941,0.70975 0,1.00858 l 1.5019,3.0038 c 2.22045,4.44086 8.34892,7.57684 14.53663,5.51427 5.15307,-1.71769 15.54326,-6.53893 17.54043,-12.53044 4.33507,-13.00522 7.62432,-27.96083 -3.50809,-39.09323 -1.3503,-1.35031 -2.73084,-3.6128 -4.51665,-4.5057 -3.4627,-1.73135 -7.28959,-2.92175 -11.19299,-2.88321 z m 0.93183,14.28448 c 0.30445,-0.004 0.56158,0.0287 0.74547,0.12059 1.22725,0.61363 2.8056,0.4052 4.01237,1.00858 5.90358,2.95179 6.81603,18.12991 5.01,23.54803 -0.39712,1.19132 -2.17926,1.58843 -3.01477,2.00618 -5.88384,2.94192 -15.33718,2.69658 -19.53565,-1.5019 -1.69813,-1.69813 -0.50429,-9.1564 -0.50429,-11.53283 0,-3.16153 -0.96331,-6.25855 0.50429,-9.0114 1.85334,-0.46333 9.8396,-4.5963 12.78258,-4.63725 z"
       style="fill:#ffffff;fill-opacity:1;stroke:#ffffff;stroke-width:0.35080856px;stroke-linecap:butt;stroke-linejoin:miter;stroke-opacity:0"
       inkscape:connector-curvature="0" />
    <path
       style="fill:#ffffff;fill-opacity:1;stroke:#ffffff;stroke-width:0.3739588px;stroke-linecap:butt;stroke-linejoin:miter;stroke-opacity:0"
       d="m 254.07444,591.4464 c -5.74379,0.1205 -11.48846,1.99412 -16.40029,5.08672 -4.34083,6.22277 -8.3388,17.89087 -7.75068,26.08042 0.69181,9.63323 4.60267,14.35528 8.54,20.99369 0.1178,0.19862 0.20063,0.48023 0.26309,0.81125 2.0443,0.94913 4.61431,1.46701 6.3365,1.75405 10.15544,1.69257 20.93705,3.64146 28.31682,-3.7383 1.21149,-1.2115 6.14497,-10.95695 4.81265,-12.28927 -1.34389,-1.34389 -3.66057,-1.06338 -6.41322,-1.06338 -0.87284,0 -3.58886,-1.22379 -4.27547,-0.53718 -3.26272,3.26271 -1.96823,2.5792 -7.48757,5.33887 -0.90539,0.45269 -3.22988,0 -4.26452,0 -9.4747,0 -17.53554,-5.8513 -11.75209,-15.49039 4.49573,-0.51849 8.9655,0.53717 13.35265,0.53717 2.10116,0 4.89974,0.50992 6.93944,0 5.29301,-1.32325 15.62005,-6.0571 13.36361,-12.82644 -1.75426,-5.26275 -2.48543,-7.88746 -7.47661,-11.21491 -3.08749,-2.05833 -5.79024,-1.85044 -9.08813,-2.67492 -2.03547,-0.50886 -4.12533,-0.75204 -6.21589,-0.76738 -0.26599,-0.002 -0.53416,-0.006 -0.80029,0 z m 7.70683,12.08096 c 1.31616,-0.0156 2.39024,0.10981 3.04764,0.43851 1.05147,0.52573 3.66979,3.25732 1.61154,4.28644 -1.62742,0.81373 -3.69762,0.77446 -5.34983,1.60057 -1.48015,0.74007 -6.39673,0.53717 -8.01379,0.53717 l -7.4766,0 c 0,-0.89037 -0.17463,-1.81278 0,-2.68587 0.26116,-1.30583 10.47768,-4.10934 16.18104,-4.17682 z"
       id="path3016"
       inkscape:connector-curvature="0" />
    <path
       style="fill:#ffff00;fill-opacity:1;stroke:#ffffff;stroke-width:0.35080856px;stroke-linecap:butt;stroke-linejoin:miter;stroke-opacity:0"
       d="m 305.62999,561.03969 c -1.4892,-1.32041 -2.99024,2.33327 -7.08741,7.79615 -3.80499,5.07333 -8.82577,10.43021 -9.92236,17.00977 -3.21077,19.26459 -5.02489,67.26664 9.21361,81.50514 3.12999,3.12998 19.29845,16.84732 22.6797,13.46606 0.70286,-0.70286 4.94027,-3.58552 3.54371,-6.37866 -2.17731,-4.35461 -4.83505,-6.96127 -7.79616,-9.92237 -2.56044,-2.56045 -13.33196,-22.41149 -14.88354,-25.51464 -2.4718,-4.94361 -1.41748,-14.01632 -1.41748,-20.55348 0,-7.0191 3.97101,-25.94195 7.79614,-29.7671 3.59688,-3.59688 8.12386,-8.45156 10.63112,-13.46605 2.09084,-4.1817 -2.18109,-12.10345 -4.25246,-14.17482 -0.70873,-0.70874 -2.12621,-0.70874 -2.83495,-1.41747 -1.37755,-1.37755 -3.86113,0.69396 -5.66992,1.41747 z"
       id="path3063"
       inkscape:connector-curvature="0" />
    <path
       inkscape:connector-curvature="0"
       style="fill:#00ff00;fill-opacity:1;stroke:#ffffff;stroke-width:0.35080856px;stroke-linecap:butt;stroke-linejoin:miter;stroke-opacity:0"
       d="m 352.84916,655.32063 c -1.77427,-0.0175 -3.56602,-0.28607 -5.33887,-0.87702 -1.17144,-0.39048 -2.3294,-1.91016 -3.50808,-2.49951 -0.83968,-0.41984 -2.07118,-0.63428 -2.51047,-1.51287 -0.92057,-1.84112 -1.82154,-3.82771 -3.0038,-5.00997 -0.18921,-0.18922 1.30269,6.72205 0,8.02474 -1.90316,1.90315 -12.03526,-1.71164 -14.03235,-2.51047 0.37592,-13.85759 -0.9543,-27.92931 0.99762,-41.59274 0.90438,-6.33064 1.00857,-12.58056 1.00857,-19.04234 l 0,-33.07467 c 0,-0.71781 -0.45686,-4.05979 0,-4.51665 1.42953,-1.42954 6.47106,-0.17805 8.51807,0.50429 1.12715,0.37571 4.72105,-0.79322 5.51428,0 0.81362,0.81361 0.50428,3.45273 0.50428,5.00998 0,4.5906 -1.00858,34.08325 -2.00619,36.07846 -0.58204,1.16409 -0.50428,5.83479 -0.50428,7.01617 0,1.50347 -1.50346,4.51667 0,4.51667 0.3341,0 -0.14942,-0.70974 0,-1.00858 l 1.5019,-3.0038 c 2.22044,-4.44087 8.34891,-7.57684 14.53663,-5.51427 5.15306,1.71769 15.54326,6.53894 17.54043,12.53045 4.33507,13.00521 7.62431,27.96082 -3.50809,39.09322 -1.3503,1.35031 -2.73085,3.6128 -4.51667,4.5057 -3.46268,1.73135 -7.28958,2.92175 -11.19298,2.88321 z m 0.93184,-14.28449 c 0.30444,0.004 0.56157,-0.0287 0.74547,-0.12059 1.22724,-0.61362 2.8056,-0.40519 4.01237,-1.00857 5.90358,-2.95179 6.81602,-18.12991 5.00998,-23.54802 -0.39711,-1.19133 -2.17924,-1.58844 -3.01475,-2.00619 -5.88385,-2.94192 -15.33719,-2.69658 -19.53566,1.5019 -1.69813,1.69813 -0.50428,9.15641 -0.50428,11.53283 0,3.16152 -0.96331,6.25855 0.50428,9.0114 1.85334,0.46333 9.8396,4.59631 12.78259,4.63724 z"
       id="path3065" />
    <path
       inkscape:connector-curvature="0"
       id="path3835"
       d="m 382.84431,677.11269 c 1.4892,1.32042 2.99024,-2.33326 7.08741,-7.79614 3.80499,-5.07333 8.82577,-10.43021 9.92236,-17.00977 3.21077,-19.2646 5.02488,-67.26664 -9.21362,-81.50515 -3.12998,-3.12998 -19.29844,-16.84732 -22.67969,-13.46606 -0.70286,0.70286 -4.94027,3.58552 -3.54371,6.37866 2.1773,4.35461 4.83505,6.96127 7.79615,9.92237 2.56045,2.56045 13.33197,22.4115 14.88354,25.51465 2.47181,4.9436 1.41749,14.01631 1.41749,20.55347 0,7.0191 -3.97101,25.94196 -7.79614,29.7671 -3.59688,3.59689 -8.12387,8.45157 -10.63112,13.46606 -2.09084,4.18169 2.18108,12.10344 4.25246,14.17481 0.70873,0.70874 2.12621,0.70874 2.83495,1.41748 1.37754,1.37754 3.86113,-0.69396 5.66992,-1.41748 z"
       style="fill:#ffff00;fill-opacity:1;stroke:#ffffff;stroke-width:0.35080856px;stroke-linecap:butt;stroke-linejoin:miter;stroke-opacity:0" />
    <path
       inkscape:connector-curvature="0"
       id="path3837"
       d="m 414.68826,638.76509 c -6.50803,-0.034 5.08327,-1.26484 -2.50577,0 -5.16735,0.86123 -2.61063,9.91826 -1.00232,11.52657 1.43334,1.43333 19.0264,-3.76741 3.50809,-11.52657 z"
       style="fill:#ffff00;fill-opacity:1;stroke:#ffffff;stroke-width:0.35080856px;stroke-linecap:butt;stroke-linejoin:miter;stroke-opacity:0" />
    <path
       inkscape:connector-curvature="0"
       id="path3839"
       d="m 456.11186,590.27965 c -1.77427,0.0175 -3.56602,0.28606 -5.33887,0.87701 -1.17144,0.39049 -2.32939,1.91016 -3.50808,2.49951 -0.83969,0.41985 -2.07119,0.63428 -2.51048,1.51287 -0.92057,1.84113 -1.82153,3.82772 -3.0038,5.00998 -0.18921,0.18922 1.3027,-6.72206 0,-8.02475 -1.90315,-1.90315 -12.03525,1.71164 -14.03234,2.51048 0.37593,13.85758 -0.95431,27.9293 0.99761,41.59274 0.90438,6.33064 1.00858,12.58056 1.00858,19.04233 l 0,33.07467 c 0,0.71781 -0.45686,4.0598 0,4.51666 1.42953,1.42954 6.47105,0.17805 8.51807,-0.50429 1.12714,-0.37572 4.72106,0.79321 5.51427,0 0.81363,-0.81363 0.50429,-3.45274 0.50429,-5.00998 0,-4.59061 -1.00858,-34.08325 -2.00619,-36.07847 -0.58204,-1.16408 -0.50429,-5.83479 -0.50429,-7.01617 0,-1.50346 -1.50346,-4.51666 0,-4.51666 0.33411,0 -0.14942,0.70974 0,1.00858 l 1.50191,3.00379 c 2.22043,4.44087 8.34891,7.57684 14.53662,5.51427 5.15307,-1.71769 15.54327,-6.53893 17.54042,-12.53045 4.33508,-13.00521 7.62433,-27.96081 -3.50807,-39.09322 -1.35031,-1.3503 -2.73085,-3.61279 -4.51666,-4.50569 -3.4627,-1.73136 -7.2896,-2.92175 -11.19299,-2.88321 z m 0.93184,14.28448 c 0.30444,-0.004 0.56156,0.0287 0.74546,0.12059 1.22725,0.61362 2.8056,0.40519 4.01238,1.00857 5.90358,2.95179 6.81602,18.12992 5.00998,23.54803 -0.3971,1.19132 -2.17925,1.58843 -3.01475,2.00619 -5.88385,2.94191 -15.33719,2.69658 -19.53566,-1.50191 -1.69814,-1.69813 -0.50429,-9.1564 -0.50429,-11.53283 0,-3.16152 -0.96331,-6.25855 0.50429,-9.01139 1.85334,-0.46333 9.8396,-4.59631 12.78259,-4.63725 z"
       style="fill:#ffffff;fill-opacity:1;stroke:#ffffff;stroke-width:0.35080856px;stroke-linecap:butt;stroke-linejoin:miter;stroke-opacity:0" />
    <path
       inkscape:connector-curvature="0"
       id="path3841"
       d="m 486.35344,592.15767 c -0.39075,9.15657 0.79093,18.51888 -0.50116,27.56353 -0.26821,1.8775 -1.96493,28.10437 -1.00231,29.06699 1.05839,1.0584 8.40887,-0.72403 9.52195,-1.00231 2.13171,-0.53293 8.76966,1.00341 10.0231,-1.50346 0.75801,-1.51602 0,-5.34723 0,-7.01618 0,-11.52154 3.00444,-29.07448 -0.50115,-39.59126 -0.77153,-2.31458 0.64586,-7.94611 -1.50347,-9.02078 -0.71743,-0.35872 -14.87865,-0.70916 -15.03465,-0.50116 -0.44825,0.59767 -0.66821,1.33641 -1.00231,2.00463 z"
       style="fill:#ffffff;fill-opacity:1;stroke:#ffffff;stroke-width:0.35080856px;stroke-linecap:butt;stroke-linejoin:miter;stroke-opacity:0" />
    <path
       inkscape:connector-curvature="0"
       id="path3843"
       d="m 497.37885,559.08143 c -1.30329,0.73255 -1.06051,-1.97552 -5.01156,0 -15.10646,7.55323 -1.39208,21.67959 8.01849,18.54274 6.23332,-2.07778 8.87944,-13.85244 2.50576,-17.03927 -1.76854,-0.88429 -3.28668,-1.05827 -5.51269,-1.50347 z"
       style="fill:#ffff00;fill-opacity:1;stroke:#ffffff;stroke-width:0.35080856px;stroke-linecap:butt;stroke-linejoin:miter;stroke-opacity:0" />
    <path
       inkscape:connector-curvature="0"
       style="fill:#ffffff;fill-opacity:1;stroke:#ffffff;stroke-width:0.35080856px;stroke-linecap:butt;stroke-linejoin:miter;stroke-opacity:0"
       d="m 539.80476,588.77618 c -1.77428,0.0175 -3.56601,0.28607 -5.33887,0.87701 -1.17143,0.39049 -2.3294,1.91017 -3.50809,2.49952 -0.83968,0.41984 -2.07118,0.63428 -2.51046,1.51286 -0.92057,1.84113 -1.82155,3.82772 -3.00381,5.00999 -0.18921,0.18921 1.3027,-6.72206 0,-8.02475 -1.90315,-1.90315 -12.03525,1.71164 -14.03234,2.51048 0.37593,13.85757 -0.9543,27.9293 0.99761,41.59275 0.90439,6.33063 1.00858,12.58055 1.00858,19.04231 l 0,33.07467 c 0,0.71782 -0.45686,4.05981 0,4.51667 1.42953,1.42953 6.47106,0.17805 8.51806,-0.50429 1.12715,-0.37572 4.72107,0.79322 5.51428,0 0.81363,-0.81363 0.50429,-3.45274 0.50429,-5.00999 0,-4.59061 -1.00858,-34.08325 -2.00619,-36.07847 -0.58204,-1.16408 -0.50429,-5.83479 -0.50429,-7.01616 0,-1.50347 -1.50346,-4.51667 0,-4.51667 0.33411,0 -0.14942,0.70975 0,1.00858 l 1.50191,3.0038 c 2.22043,4.44086 8.34891,7.57684 14.53663,5.51427 5.15307,-1.71769 15.54325,-6.53893 17.54042,-12.53044 4.33508,-13.00522 7.62432,-27.96083 -3.50808,-39.09323 -1.3503,-1.35031 -2.73085,-3.6128 -4.51666,-4.5057 -3.4627,-1.73135 -7.2896,-2.92175 -11.19299,-2.88321 z m 0.93183,14.28448 c 0.30445,-0.004 0.56157,0.0287 0.74548,0.12059 1.22723,0.61363 2.8056,0.4052 4.01237,1.00858 5.90357,2.95179 6.81602,18.12991 5.00998,23.54803 -0.3971,1.19132 -2.17924,1.58843 -3.01476,2.00618 -5.88384,2.94192 -15.33718,2.69658 -19.53565,-1.5019 -1.69813,-1.69813 -0.50429,-9.1564 -0.50429,-11.53283 0,-3.16153 -0.9633,-6.25855 0.50429,-9.0114 1.85334,-0.46333 9.83961,-4.5963 12.78258,-4.63725 z"
       id="path3845" />
    <path
       inkscape:connector-curvature="0"
       id="path3847"
       d="m 589.88895,591.4464 c -5.7438,0.1205 -11.48848,1.99412 -16.4003,5.08672 -4.34083,6.22277 -8.3388,17.89087 -7.75067,26.08042 0.6918,9.63323 4.60267,14.35528 8.53998,20.99369 0.1178,0.19862 0.20064,0.48023 0.26311,0.81125 2.04429,0.94913 4.6143,1.46701 6.33648,1.75405 10.15545,1.69257 20.93705,3.64146 28.31685,-3.7383 1.21149,-1.2115 6.14495,-10.95695 4.81262,-12.28927 -1.34387,-1.34389 -3.66056,-1.06338 -6.41322,-1.06338 -0.8728,0 -3.58882,-1.22379 -4.27546,-0.53718 -3.26269,3.26271 -1.96822,2.5792 -7.48757,5.33887 -0.90538,0.45269 -3.22988,0 -4.26451,0 -9.47471,0 -17.53555,-5.8513 -11.75209,-15.49039 4.49573,-0.51849 8.9655,0.53717 13.35265,0.53717 2.10115,0 4.89973,0.50992 6.93945,0 5.29302,-1.32325 15.62004,-6.0571 13.3636,-12.82644 -1.75428,-5.26275 -2.48542,-7.88746 -7.47662,-11.21491 -3.08748,-2.05833 -5.79022,-1.85044 -9.08814,-2.67492 -2.03545,-0.50886 -4.12531,-0.75204 -6.21588,-0.76738 -0.26599,-0.002 -0.53415,-0.006 -0.80028,0 z m 7.70683,12.08096 c 1.31616,-0.0156 2.39023,0.10981 3.04765,0.43851 1.05144,0.52573 3.66978,3.25732 1.61151,4.28644 -1.62738,0.81373 -3.6976,0.77446 -5.34983,1.60057 -1.48013,0.74007 -6.39672,0.53717 -8.01377,0.53717 l -7.47661,0 c 0,-0.89037 -0.17462,-1.81278 0,-2.68587 0.26117,-1.30583 10.47769,-4.10934 16.18105,-4.17682 z"
       style="fill:#ffffff;fill-opacity:1;stroke:#ffffff;stroke-width:0.3739588px;stroke-linecap:butt;stroke-linejoin:miter;stroke-opacity:0" />
    <path
       inkscape:connector-curvature="0"
       id="path3849"
       d="m 641.44447,561.03969 c -1.48916,-1.32041 -2.99021,2.33327 -7.08738,7.79615 -3.80503,5.07333 -8.8258,10.43021 -9.92238,17.00977 -3.21078,19.26459 -5.02485,67.26664 9.21365,81.50514 3.12995,3.12998 19.2984,16.84732 22.67966,13.46606 0.7029,-0.70286 4.94028,-3.58552 3.54374,-6.37866 -2.1773,-4.35461 -4.83507,-6.96127 -7.79617,-9.92237 -2.56043,-2.56045 -13.33198,-22.41149 -14.88355,-25.51464 -2.47177,-4.94361 -1.41746,-14.01632 -1.41746,-20.55348 0,-7.0191 3.97101,-25.94195 7.7961,-29.7671 3.59694,-3.59688 8.12389,-8.45156 10.63112,-13.46605 2.09087,-4.1817 -2.18103,-12.10345 -4.25242,-14.17482 -0.70874,-0.70874 -2.12622,-0.70874 -2.83495,-1.41747 -1.37759,-1.37755 -3.86114,0.69396 -5.66996,1.41747 z"
       style="fill:#ffff00;fill-opacity:1;stroke:#ffffff;stroke-width:0.35080856px;stroke-linecap:butt;stroke-linejoin:miter;stroke-opacity:0" />
    <path
       style="fill:#ffff00;fill-opacity:1;stroke:#ffffff;stroke-width:0.35080856px;stroke-linecap:butt;stroke-linejoin:miter;stroke-opacity:0"
       d="m 696.27121,677.11269 c 1.48919,1.32042 2.99018,-2.33326 7.08737,-7.79614 3.80498,-5.07333 8.82576,-10.43021 9.92233,-17.00977 3.21085,-19.2646 5.02496,-67.26664 -9.21364,-81.50515 -3.12991,-3.12998 -19.29835,-16.84732 -22.67963,-13.46606 -0.70284,0.70286 -4.94028,3.58552 -3.54368,6.37866 2.1773,4.35461 4.83501,6.96127 7.79611,9.92237 2.56049,2.56045 13.33193,22.4115 14.88348,25.51465 2.47184,4.9436 1.41758,14.01631 1.41758,20.55347 0,7.0191 -3.97104,25.94196 -7.7962,29.7671 -3.59684,3.59689 -8.12385,8.45157 -10.63105,13.46606 -2.09089,4.18169 2.18109,12.10344 4.25238,14.17481 0.7088,0.70874 2.12626,0.70874 2.83499,1.41748 1.37759,1.37754 3.86113,-0.69396 5.66996,-1.41748 z"
       id="path3853"
       inkscape:connector-curvature="0" />
    <path
       inkscape:connector-curvature="0"
       id="path3866"
       d="m 670.955,590.65237 c -10.7151,0.0882 -27.34291,9.75862 -23.88787,18.54901 0.6682,0.50115 1.28992,1.07216 2.00619,1.5019 1.01626,0.60978 4.56934,-0.50429 6.00758,-0.50429 1.00233,0 3.01476,1.00231 3.01476,0 0,-10.14869 11.98374,-9.58959 16.02755,-1.5019 0.68179,1.36359 -0.17252,5.6868 -0.99761,6.51189 -0.0897,0.0897 -4.1401,-1.6847 -5.51425,-0.99762 -2.13997,1.06999 -4.88487,0.94052 -7.01616,2.00619 -3.58118,1.79058 -9.09798,5.65453 -11.02858,9.51569 -2.73161,5.46321 -5.17509,21.47023 2.00618,25.06088 1.59775,0.79886 3.47457,1.23846 5.00998,2.00619 0.70215,0.35106 4.89042,0.5641 6.01861,0 3.14704,-1.57353 6.9022,-1.94923 10.01996,-3.50809 0.49883,-0.24942 2.64785,-2.86641 3.50804,-2.00619 0.96653,0.96647 -0.1829,5.82466 0,6.0076 0.0651,0.0651 2.92892,-1.21229 3.50812,-1.5019 2.20028,-1.10015 5.34646,0.16782 7.0162,-1.5019 0.89155,-0.8916 1.00853,-13.69112 1.00853,-16.03853 0,-15.26194 4.68809,-34.4799 -11.53285,-42.59035 -1.41362,-0.70683 -3.19013,-1.02491 -5.17438,-1.00858 z m -1.50192,31.80299 c 2.53639,-0.10306 4.13939,1.43163 4.67013,1.27169 0.23813,1.1905 2.38866,13.15657 2.00617,13.53901 -3.69502,3.69505 -17.04877,8.49271 -20.54422,1.5019 -2.68902,-5.3781 7.02514,-13.53253 11.02859,-15.53424 1.04532,-0.52265 1.99388,-0.74401 2.83933,-0.77836 z"
       style="fill:#00ff00;fill-opacity:1;stroke:#ffffff;stroke-width:0.35080856px;stroke-linecap:butt;stroke-linejoin:miter;stroke-opacity:0" />
    <path
       style="fill:#ffff00;fill-opacity:1;stroke:#ffffff;stroke-width:0.90221828px;stroke-linecap:butt;stroke-linejoin:miter;stroke-opacity:0"
       d="m 428.45047,252.81446 c -5.92244,0.3402 -13.57336,5.88015 -18.68881,16.11104 -1.83704,3.67411 -0.18517,9.85178 -2.57776,12.24438 -0.62868,0.62869 -0.45943,10.03668 0,10.95551 1.30776,2.61551 3.02764,4.12196 3.86664,5.79996 3.87327,7.74654 40.02582,16.39805 49.62201,11.59996 2.15283,-1.07641 4.29352,0.21759 5.79997,-1.28887 0.81017,-0.81017 3.75502,-0.53281 4.51109,-1.28888 1.02416,-1.02417 3.86804,-0.001 5.15555,-1.28889 12.14015,-12.14017 5.34511,-40.86511 -1.93333,-55.42199 -5.48693,-10.97385 -20.22942,-17.20355 -28.35544,-21.26656 -2.79655,-1.39829 -17.44654,-6.09889 -19.33324,-5.15554"
       id="path4121"
       inkscape:connector-curvature="0"
       sodipodi:nodetypes="cssssssscssc" />
    <path
       style="fill:#ffffff;fill-opacity:1;stroke:#ffffff;stroke-width:0.6350922px;stroke-linecap:butt;stroke-linejoin:miter;stroke-opacity:0"
       d="m 360.48,255.2495 c -14.88927,0.0114 -29.05527,1.06504 -35.50563,3.21516 -6.84276,2.28093 -32.40082,-1.02646 -38.10553,1.82589 -0.96485,0.48242 -2.00615,0.77767 -3.09608,0.97249 -11.96317,6.94404 -20.48641,18.08028 -38.18493,18.08028 -2.86592,0 -9.10216,0.77696 -13.47585,0.39691 -0.0454,0.0213 -0.0942,0.0371 -0.13893,0.0594 -1.54879,0.77439 0.78379,5.89791 2.6396,9.1096 0.94333,5.12454 3.25485,11.42983 3.25485,14.01172 0,16.71499 0.27088,-5.69181 0.91295,6.35093 l 78.17588,33.60037 c 3.67801,11.75878 19.5298,29.93974 24.35182,37.17275 5.869,8.80351 13.21385,10.62851 21.77175,16.33378 34.46578,22.97717 75.03404,22.6847 115.20969,22.6847 17.56714,0 34.33712,2.33075 49.91429,-5.45782 2.83586,-1.41793 6.62709,-1.16928 9.06992,-3.6121 3.29839,-3.2984 6.0175,-6.59703 9.0699,-12.70184 0.7586,-1.51721 -0.37018,-3.45934 -0.91295,-4.54488 -1.05411,-2.10824 -0.72222,-5.09623 -1.80604,-7.26387 -1.51912,-3.03825 -3.41173,-6.08578 -5.6166,-9.0699 6.17707,-0.78164 11.05457,-1.49736 11.05457,-1.80605 0,-2.03883 -6.35742,-5.45116 -8.15697,-6.35091 -8.56807,-4.28405 -23.58264,-18.14469 -29.03561,-23.59766 -2.61733,-2.61733 -9.86063,-5.31574 -13.61479,-9.0699 -5.36338,-5.36339 -14.59121,-11.87224 -20.8588,-18.13983 -7.10183,-7.10184 -14.7747,-17.49368 -20.87867,-23.59764 -10.68468,-10.68468 -24.56366,-19.85986 -38.44292,-27.52728 -1.88105,-0.29901 -5.91651,0.77402 -6.47,0.77402 -6.43681,0 -16.23762,-1.29309 -19.4894,-4.54487 -0.81323,-0.81322 -5.89425,-1.80584 -8.1768,-4.0884 -1.2226,-1.22261 -4.14524,-1.70489 -6.58909,-2.77853 -5.47445,-0.29493 -11.22063,-0.44087 -16.86963,-0.43663 z"
       id="path3833"
       inkscape:connector-curvature="0"
       sodipodi:nodetypes="ssscscccsccsssssssscsssssscssscs" />
    <path
       style="fill:#00ff00;fill-opacity:1;stroke:#ffffff;stroke-width:0.6350922px;stroke-linecap:butt;stroke-linejoin:miter;stroke-opacity:0"
       d="m 536.71809,372.00722 c -3.58961,-0.0114 -6.4137,0.17032 -7.62111,0.77404 -7.85032,3.92515 -24.43708,0.91293 -33.56066,0.91293 -3.1253,0 -17.88223,0.63551 -19.96572,2.71899 -2.11689,2.11689 -17.53226,0 -20.85879,0 -2.31382,0 -13.0553,1.47245 -14.52774,0 -3.17831,-3.17831 -26.38624,-4.49022 -31.75462,-1.80604 -2.3905,1.19526 -9.59274,1.35532 -13.73386,0.27785 -3.49339,2.91154 -6.47325,5.68263 -9.84394,12.42399 l 1.80605,32.64771 c 1.47695,10.50307 4.29633,17.91112 9.98285,23.59764 1.96761,1.9676 18.4929,0.33323 19.96572,1.80605 5.75103,5.75102 58.34595,0 68.94719,0 12.6865,0 47.14025,2.77404 54.43932,-4.52503 8.71889,-8.71889 9.98285,-28.33058 9.98285,-42.65041 0,-3.45979 1.46687,-21.21784 0,-22.6847 -0.78996,-0.78997 -1.2038,-2.04084 -2.0045,-3.11593 -3.96564,-0.18896 -7.94211,-0.36701 -11.25304,-0.37709 z"
       id="path3846"
       inkscape:connector-curvature="0" />
    <path
       style="fill:#ffff00;fill-opacity:1;stroke:#ffffff;stroke-width:0.6350922px;stroke-linecap:butt;stroke-linejoin:miter;stroke-opacity:0"
       d="m 232.42952,280.23641 c -2.15163,2.15162 -1.02335,8.28722 -2.71898,9.98285 -2.87348,2.87347 -1.94364,9.46245 0,12.70185 -3.48332,18.05106 -3.63194,36.72185 -3.63194,55.35225 0,10.79978 -2.45043,63.15323 1.80605,71.66619 0.29549,0.59098 28.89796,5.45782 31.75461,5.45782 3.64754,0 7.41679,0.9363 10.8958,1.80604 13.51086,3.37772 29.09451,-1.57797 42.63056,1.80606 13.34826,3.33705 28.57754,-2.56077 41.73748,1.82588 6.76325,2.25441 21.75992,-1.5189 26.31663,0 4.48854,1.49617 19.86771,3.72993 19.96571,3.63193 0.58755,-0.58754 -0.91295,-1.91252 -0.91295,-2.71899 0,-6.65696 0.23618,-14.59918 1.80604,-20.87866 0.74956,-2.99817 8.96627,-45.47305 7.26387,-47.17544 -7.00106,-7.00105 -21.36965,-13.86028 -31.7546,-19.05277 -5.29854,-2.64926 -11.43034,-3.27336 -15.42084,-7.26386 -1.31332,-1.31331 -5.77302,-1.22813 -7.26386,-2.71899 -3.06237,-3.06236 -8.53469,-10.17171 -13.59495,-12.70185 -3.7688,-1.8844 -9.68419,-4.24622 -12.70184,-7.26386 -15.3814,-15.38139 -35.52952,-27.82953 -51.95849,-41.81686 -2.54829,0.97163 -10.71711,2.42123 -11.11411,2.81823 -1.16447,1.16447 -7.52889,1.45522 -9.52639,0.45647 -3.07991,-1.53996 -7.34028,0.81668 -9.52639,-1.36942 -0.8162,-0.8162 -4.22183,0.3032 -4.98149,-0.45647 -0.89175,-0.89176 -7.70257,-2.72105 -9.06992,-4.0884 z"
       id="path3811"
       inkscape:connector-curvature="0" />
    <path
       style="fill:#ffff00;fill-opacity:1;stroke:#ffffff;stroke-width:0.6350922px;stroke-linecap:butt;stroke-linejoin:miter;stroke-opacity:0"
       d="m 322.7129,270.813 c 19.39557,-1.40154 38.28815,-4.62557 57.60122,-4.67054 0.86756,-0.002 9.03695,-1.41447 9.06957,-1.38203 0.77392,0.77034 10.14825,9.57574 10.9105,9.95465 1.53088,0.76099 8.62871,4.11544 8.6307,4.96991 0.003,1.20969 -2.41939,0.006 -3.62908,0.008 -6.186,0.0145 -12.62212,0.48304 -19.05165,0.49802 -1.88862,0.005 -22.56975,2.49438 -24.03533,3.23144 -3.76446,1.89319 -9.43511,-1.3862 -13.15439,0.48427 -1.85333,0.93205 -5.16211,1.37295 -7.25501,1.37781 -1.34132,0.003 -7.86652,2.1269 -8.61591,1.38098 -5.35802,-5.33312 -10.78165,-9.37377 -15.91107,-14.47937 -2.02854,-2.0191 5.10062,-1.44073 5.44045,-1.37359 z"
       id="path4138"
       inkscape:connector-curvature="0" />
    <path
       style="fill:#ffff00;fill-opacity:1;stroke:#ffffff;stroke-width:0.6350922px;stroke-linecap:butt;stroke-linejoin:miter;stroke-opacity:0"
       d="m 387.24533,293.81192 c -3.66788,4.58481 -16.05111,24.60268 -1.90644,38.15503 1.65637,1.587 4.21323,7.59071 6.56286,9.84194 6.87036,6.58265 16.68812,9.76991 23.02585,15.84224 2.87113,2.75091 10.36647,3.71299 13.7612,6.96556 3.28631,3.14868 17.11122,0.91996 21.84721,3.1627 4.43827,2.10173 21.67114,-2.21742 23.50616,-4.13264 5.14007,-5.36474 7.95379,-9.98499 7.75622,-19.223 -0.55088,-25.75867 -35.98834,-30.92733 -51.80449,-46.08116 -1.05132,-1.00729 -9.89316,-2.88915 -12.79594,-4.26376 -7.65209,-3.62365 -21.27765,-0.45243 -29.95263,-0.26691 z"
       id="path3882"
       inkscape:connector-curvature="0" />
    <path
       style="fill:#ffffff;fill-opacity:1;stroke:#ffffff;stroke-width:0.6350922px;stroke-linecap:butt;stroke-linejoin:miter;stroke-opacity:0"
       d="m 405.30909,289.79568 c -18.65155,0.30805 -26.0201,14.1514 -20.22239,30.37939 1.09893,3.07592 4.38653,5.09131 6.50466,7.12075 3.66694,3.51338 6.69371,9.62694 11.15639,12.46615 4.83535,3.0763 10.03102,5.78535 14.70707,8.76028 9.57061,6.08893 17.54051,15.05209 29.35593,14.79939 11.50823,-0.24611 22.95317,0.15376 31.57276,-8.84256 2.60237,-2.71611 1.95867,-6.98022 3.41488,-10.05533 1.38831,-2.93171 1.24934,-9.81305 -0.27159,-12.69894 -3.80794,-7.22542 -11.02633,-18.68974 -18.62631,-22.2887 -2.38238,-1.12818 -7.34114,-2.59132 -9.16766,-4.34136 -10.58474,-10.14147 -31.6169,-22.44235 -48.42374,-15.29907 z"
       id="path3880"
       inkscape:connector-curvature="0" />
    <path
       style="fill:#ffff00;fill-opacity:1;stroke:#ffffff;stroke-width:0.6350922px;stroke-linecap:butt;stroke-linejoin:miter;stroke-opacity:0"
       d="m 397.66515,294.56106 c -1.41993,1.15034 -1.04296,-0.30241 -3.13593,1.88204 -5.25907,5.48892 6.42189,12.77101 8.84023,10.24698 1.26551,-1.32083 3.14453,-2.81833 4.44803,-4.1788 0.28153,-0.29384 -0.21951,-1.43249 -0.0388,-1.81413 2.63035,-5.5545 -4.28916,-5.44227 -6.05111,-7.13044 -0.61195,-0.58633 -3.97326,0.97453 -4.06242,0.99435 z"
       id="path3884"
       inkscape:connector-curvature="0" />
    <path
       style="fill:#ffff00;fill-opacity:1;stroke:#ffffff;stroke-width:0.6350922px;stroke-linecap:butt;stroke-linejoin:miter;stroke-opacity:0"
       d="m 419.38628,291.82782 c -3.24564,0.4528 -4.10274,2.42743 -5.80865,4.20789 -2.98084,3.11114 8.85213,9.30726 12.3715,5.63406 0.57469,-0.5998 1.91334,-1.5333 2.6727,-2.32586 2.3822,-2.48633 -3.45843,-8.80056 -9.23555,-7.51609 z"
       id="path3886"
       inkscape:connector-curvature="0" />
    <path
       style="fill:#ffff00;fill-opacity:1;stroke:#ffffff;stroke-width:0.6350922px;stroke-linecap:butt;stroke-linejoin:miter;stroke-opacity:0"
       d="m 457.92927,311.87562 c -2.36549,-0.65332 -3.85858,1.51198 -4.91127,3.73496 -2.5437,5.37157 6.53676,12.18747 9.27436,9.33022 0.32345,-0.33759 1.35696,-0.48897 1.79473,-0.94587 0.99877,-1.04242 0.66191,-2.34579 1.28301,-3.65737 2.71105,-5.72496 -3.17966,-7.70408 -7.44083,-8.46194 z"
       id="path3903"
       inkscape:connector-curvature="0" />
    <path
       style="fill:#ffff00;fill-opacity:1;stroke:#ffffff;stroke-width:0.6350922px;stroke-linecap:butt;stroke-linejoin:miter;stroke-opacity:0"
       d="m 467.37822,329.36944 c -1.06248,0.0401 -1.66084,-0.58486 -4.04301,1.90143 -4.0998,4.27899 5.10659,14.50792 10.68346,11.56879 4.88146,-2.57264 7.22119,-6.85267 2.47872,-11.39654 -0.89841,-0.86079 -2.83897,-1.38736 -3.67677,-2.19007 -0.38757,-0.37135 -5.3483,0.11437 -5.4424,0.11639 z"
       id="path3905"
       inkscape:connector-curvature="0" />
    <path
       style="fill:#ffff00;fill-opacity:1;stroke:#ffffff;stroke-width:0.6350922px;stroke-linecap:butt;stroke-linejoin:miter;stroke-opacity:0"
       d="m 458.61793,344.0765 c -2.98687,0.63281 -4.01463,3.22807 -3.95571,5.98323 0.12612,5.89718 8.56887,7.2846 11.87916,3.82963 3.33622,-3.48204 -1.32601,-13.9657 -7.92345,-9.81286 z"
       id="path3907"
       inkscape:connector-curvature="0" />
    <path
       style="fill:#ffff00;fill-opacity:1;stroke:#ffffff;stroke-width:0.6350922px;stroke-linecap:butt;stroke-linejoin:miter;stroke-opacity:0"
       d="m 440.52508,346.73215 c -2.66144,-0.0428 -4.49123,2.15943 -4.43834,4.63232 0.1563,7.30874 9.65383,8.00685 13.69329,3.79083 4.10435,-4.28373 -3.0139,-11.07573 -9.25495,-8.42315 z"
       id="path3909"
       inkscape:connector-curvature="0" />
    <path
       style="fill:#ffff00;fill-opacity:1;stroke:#ffffff;stroke-width:0.6350922px;stroke-linecap:butt;stroke-linejoin:miter;stroke-opacity:0"
       d="m 423.12591,339.39065 c -2.08503,0.38907 -4.97737,3.60953 -3.96541,5.5297 6.3966,12.13724 18.67945,1.46031 14.00135,-3.02188 -0.67249,-0.64432 -1.52003,-1.01213 -2.30647,-1.76564 -2.40897,-2.30809 -4.54699,-2.0948 -7.72947,-0.74218 z"
       id="path3924"
       inkscape:connector-curvature="0" />
    <path
       style="fill:#ffff00;fill-opacity:1;stroke:#ffffff;stroke-width:0.6350922px;stroke-linecap:butt;stroke-linejoin:miter;stroke-opacity:0"
       d="m 404.73239,327.98676 c -8.59181,5.26851 5.44992,16.10374 10.66405,10.66172 2.86953,-2.99495 3.35944,-7.44301 0.23045,-10.44098 -1.17479,-1.12559 -3.72755,-1.35025 -4.58383,-2.17067 -0.89783,-0.86023 -5.38946,1.74511 -6.31067,1.94993 z"
       id="path3939"
       inkscape:connector-curvature="0" />
    <path
       style="fill:#ffff00;fill-opacity:1;stroke:#ffffff;stroke-width:0.6350922px;stroke-linecap:butt;stroke-linejoin:miter;stroke-opacity:0"
       d="m 394.42487,312.78 c -5.25672,5.67755 4.11279,-5.62132 -2.21917,2.31616 -4.5298,5.67836 5.97527,14.62814 11.08849,9.29142 4.71943,-4.92569 -0.24468,-15.27325 -8.86932,-11.60758 z"
       id="path3941"
       inkscape:connector-curvature="0" />
    <path
       style="fill:#ffff00;fill-opacity:1;stroke:#ffffff;stroke-width:0.6350922px;stroke-linecap:butt;stroke-linejoin:miter;stroke-opacity:0"
       d="m 436.33191,299.17902 c -2.55567,-1.05352 -6.08955,3.67487 -4.38984,6.89999 2.84332,5.39508 11.04404,7.01953 15.0345,2.85466 3.76984,-3.9346 -4.19817,-11.18794 -10.64466,-9.75465 z"
       id="path3954"
       inkscape:connector-curvature="0" />
    <path
       style="fill:#ffff00;fill-opacity:1;stroke:#ffffff;stroke-width:0.6350922px;stroke-linecap:butt;stroke-linejoin:miter;stroke-opacity:0"
       d="m 415.66335,308.69586 c -1.74695,0.78747 -4.19268,5.53359 -3.00984,7.77796 2.33106,4.42311 3.96595,9.13076 7.52812,12.54376 3.84119,3.68034 19.61979,14.42679 26.54744,10.77578 0.2709,-0.14278 1.15542,0.18503 1.36059,-0.0292 1.23371,-1.28762 2.41965,-2.52541 3.99452,-4.16909 2.75052,-2.87075 -0.47231,-8.29336 -1.5837,-10.40217 -1.29218,-2.45186 -17.25344,-14.45553 -19.38789,-15.4663 -1.4045,-0.66511 -2.63702,-0.74964 -3.66706,-1.73655 -1.25392,-1.2014 -10.19156,0.0297 -11.78218,0.70572 z"
       id="path3995"
       inkscape:connector-curvature="0" />
    <path
       style="fill:#00ff00;fill-opacity:1;stroke:#ffffff;stroke-width:0.98050821px;stroke-linecap:butt;stroke-linejoin:miter;stroke-opacity:0"
       d="m 353.45351,214.12318 c -12.92096,0.10408 -25.92622,1.08479 -32.21731,2.65758 -3.45182,0.86295 -12.68738,-0.30026 -15.4326,1.07235 -3.37435,1.68717 -7.68108,0.43896 -11.18981,1.60853 -3.46922,1.15641 -7.71875,0.42821 -11.1898,1.58524 -8.04173,2.68056 -15.33115,3.35193 -20.53796,5.45502 -3.11281,-0.34898 -7.17225,-1.1745 -8.92852,-0.0933 -1.95448,1.20328 -5.95621,1.01075 -8.25249,2.42446 -7.38472,4.54642 -17.17725,7.01459 -24.03476,11.23643 -5.0942,3.13624 -6.75964,8.44842 -10.07083,12.40202 -2.35476,2.81166 -4.95871,7.07451 -5.68815,10.14076 -0.13645,0.57363 -1.35736,3.06434 -2.05146,3.89313 -0.81974,0.97877 -1.17021,3.31447 -1.23554,5.31516 -3.61812,9.21607 -4.92473,20.58793 -2.42446,31.2615 1.15235,4.91944 11.97257,14.33663 16.48165,15.40929 1.81158,0.43098 6.62868,-0.17919 8.34573,1.25885 3.8949,3.26202 18.57854,4.02095 23.80165,2.79746 3.5412,-0.82952 8.24664,0.74673 11.04992,-0.97912 2.62425,-1.61561 6.49704,-1.69306 9.46472,-3.52011 4.81735,-2.96582 8.75375,-5.95409 13.66088,-8.97515 2.56436,-1.57877 4.12862,-6.02424 6.87706,-7.71632 1.54736,-0.95264 3.65825,-9.80767 4.6158,-10.39719 1.84566,-1.13629 2.46611,-7.30611 3.12381,-10.07082 0.89474,-3.76111 1.34674,-7.39021 1.37543,-10.88674 1.65354,-3.33107 2.8009,-6.85835 3.26369,-10.35057 2.99492,-0.80724 6.12483,-1.52381 8.85859,-2.8907 4.72988,-2.36493 16.63214,-1.30125 22.37961,-3.21706 3.19709,-1.0657 7.45653,1.06569 10.65363,0 2.86412,-0.95471 29.47454,-0.71865 31.98419,0.53618 2.69976,1.34987 7.41768,-1.34989 10.11744,0 2.557,1.27849 6.57163,-0.71221 9.06841,0.53617 4.34684,2.17343 13.22691,1.55473 17.57731,3.72994 1.34241,0.67121 9.29154,1.31881 9.58128,1.60853 1.4565,1.45652 11.28402,6.82947 14.38355,3.72993 3.86056,-3.86054 6.58266,-10.33327 3.21707,-17.06444 -0.96992,-1.93987 -0.41887,-3.58933 -1.60852,-4.77898 -0.90064,-0.90063 -0.46653,-4.19647 -1.60855,-5.33847 -1.2946,-1.29462 -2.63283,-3.14429 -3.72994,-5.33848 -6.078,-12.15602 -24.90219,-9.54404 -37.8122,-13.84738 -3.11115,-1.03704 -7.00869,0.50785 -10.14076,-0.53617 -5.96679,-1.98894 -18.80679,-2.76163 -31.72776,-2.65758 z"
       id="path4087"
       inkscape:connector-curvature="0" />
    <path
       style="fill:#ffff00;fill-opacity:1;stroke:#ffffff;stroke-width:0.745987px;stroke-linecap:butt;stroke-linejoin:miter;stroke-opacity:0"
       d="m 447.53111,259.41579 c 0.73295,2.97285 -10.0983,6.36838 -13.85404,10.12412 -0.78443,0.78442 -13.0513,-1.32866 -13.32118,-1.59855 -1.31126,-1.31124 -1.59855,-3.47412 -1.59855,-5.32849 0,-2.41191 15.88031,-6.07155 11.72265,-14.38689 -0.42628,-0.85255 0.42628,-2.34453 0,-3.19709 -0.77173,-1.54348 -0.49831,-5.8268 -1.59855,-6.92701 -0.63196,-0.63196 -6.77196,-11.34487 -5.32847,-12.78835 0.80957,-0.80958 3.90016,-1.42833 4.79564,-0.53285 1.09808,1.09808 7.1323,1.80383 8.52556,3.19709 4.95831,4.9583 10.27224,10.4204 13.32118,16.51828"
       id="path4123"
       inkscape:connector-curvature="0" />
    <path
       style="fill:#ffffff;fill-opacity:0.93875433;stroke:#ffffff;stroke-width:0.6350922px;stroke-linecap:butt;stroke-linejoin:miter;stroke-opacity:0"
       d="m 225.47066,270.84187 c -9.20934,1.35789 -18.50483,18.70448 -14.11387,23.09543 0.67623,0.67625 2.56615,0.32673 2.56615,1.28308 0,0.85539 -1.96131,-0.60484 -2.56615,0 -4.6826,4.68258 -16.06632,4.51859 -21.81237,10.26464 -4.45451,4.4545 -12.12651,16.10125 -7.69847,20.52929 0.24489,0.2449 3.84922,1.51541 3.84922,2.56615 0,0.64745 -6.53779,2.68856 -7.69848,3.84924 -2.79478,2.79479 -6.80815,8.48399 -8.98155,12.83081 -3.16922,6.33843 -1.59323,19.73266 5.13232,23.09544 1.95057,0.97529 6.41538,-0.89775 6.41538,1.28308 0,0.94812 -5.60714,3.51583 -6.41538,5.1323 -1.6234,3.2468 -5.83016,15.2844 -3.84925,19.24621 1.59738,3.19477 1.87693,6.07079 5.13233,7.69849 0.46995,0.23498 6.41541,-0.17784 6.41541,0 0,2.3032 -4.7868,0.93754 -6.41541,2.56615 -0.67091,0.67091 -3.25299,5.22291 -3.84925,6.41541 -3.51604,7.03207 -1.31525,23.06327 3.84925,28.22776 1.51213,1.51212 6.41541,-2.13848 6.41541,0 0,3.86114 -11.39989,21.24474 0,26.94466 9.52536,4.7627 18.75974,-5.1323 23.09543,-5.1323 2.13846,0 0,4.27692 0,6.4154 0,6.38522 1.26424,8.94385 3.84924,14.11387 1.75287,3.50572 8.81764,6.57931 11.54772,3.84924 0.58431,-0.58429 4.46621,-7.08153 5.13232,-6.41538 0.64153,0.6415 -0.64154,3.20766 0,3.84923 5.56715,5.56715 5.52421,7.25288 14.11388,11.54769 11.15016,5.57509 16.37215,-12.3432 38.49239,-1.28308 1.62625,0.81317 5.84035,0 7.69849,0 21.83581,0 11.79582,-9.10557 19.2462,-12.83077 2.54791,-1.27398 9.72212,9.25278 15.39696,6.41539 12.56576,-6.28291 8.8144,-3.68208 17.96312,-12.8308 0.58677,-0.58676 12.64179,2.94419 16.68005,-5.13232 3.00692,-6.01384 5.04624,-16.68005 5.13231,-16.68005 3.28566,0 7.35407,-7.4486 5.13232,-14.11387 -2.19729,-6.59186 -10.06492,-11.54772 -16.68004,-11.54772 -7.00907,0.83755 -6.68119,5.30643 -12.34368,-7.03456 -1.42405,-19.07223 -11.79632,-18.05844 -22.29948,-16.06087 -1.73318,0.32963 -3.60502,3.84923 -3.84923,3.84923 -0.13889,0 0.18124,-4.7698 0,-5.13231 -1.30279,-2.60555 -6.03189,-7.50672 -8.98157,-8.98157 -6.94903,-3.47451 -9.51838,5.13232 -11.54772,5.13232 -2.09664,0 -7.00295,-8.98156 -11.54773,-8.98156 -3.74315,0 -5.48043,7.69848 -6.41538,7.69848 -0.0942,0 0.1177,-3.61381 0,-3.84924 -1.16198,-2.32394 -4.14615,-9.47465 -7.6985,-7.69847 -4.82826,2.41412 -8.33903,2.88643 -12.83079,5.1323 -1.27658,0.6383 -3.55846,4.14005 -3.84925,3.84925 -5.90836,-5.90837 -10.5753,-13.95854 -23.09543,-7.69847 -9.2064,4.60319 -7.17132,25.66159 0,25.66159 3.05731,0 0.24769,-5.62769 1.28308,-7.69848 2.45169,-4.90338 3.04666,-5.61281 6.41539,-8.98156 5.59107,-5.59107 13.38014,7.69849 14.11388,7.69849 1.02014,0 4.49814,-6.41541 11.54773,-6.41541 15.98298,0 14.38468,11.54772 14.11389,11.54772 -0.91903,0 7.89887,-8.88136 15.39696,-5.13231 4.29387,2.14694 5.47295,4.18988 7.69846,6.41539 1.23015,1.23014 -1.6813,3.84924 -1.28308,3.84924 1.78674,0 1.95235,-5.80159 2.56617,-6.4154 0.58738,-0.58738 10.99416,-3.11972 12.83079,-1.28308 1.63958,1.63957 3.37179,8.50411 3.84925,8.98157 0.28442,0.28442 12.97313,-2.42384 17.96312,2.56615 4.09436,4.09437 -4.7341,13.40207 -2.56616,12.83081 3.23706,-0.85297 15.82466,5.31314 20.52928,-1.28308 3.50554,-4.91504 1.57252,19.53565 2.56616,20.52927 0.31655,0.31656 5.49744,2.20104 2.56616,5.13233 -1.89252,1.89252 -3.55958,4.84266 -5.13232,6.4154 -1.49693,1.49692 -6.20156,-0.21385 -7.69848,1.28308 -0.68327,0.68326 -1.98761,8.403 -3.84925,10.26463 -0.97126,0.97128 -15.15087,6.66146 -17.96311,3.84927 -0.67625,-0.67627 -0.32673,-2.56619 -1.28307,-2.56619 -1.12042,0 -1.52777,5.13234 -8.98158,5.13234 -2.4824,0 -8.7154,-7.96464 -10.26463,-6.41542 -3.91743,3.91741 -8.24015,11.54772 -12.8308,11.54772 -4.62605,0 -11.48437,2.62954 -15.39696,-1.28307 -2.23068,-2.23071 -1.28308,-6.51363 -1.28308,-6.41538 0,7.7725 -13.56662,4.85863 -19.2462,7.69845 -5.28073,2.64033 -13.29373,-14.11387 -10.26464,-14.11387 3.80039,0 -17.11562,7.26289 -21.81237,2.56615 -3.97184,-3.97184 -2.43711,-15.26791 -3.84923,-16.68004 -0.93304,-0.93303 -14.45055,0.47321 -17.96313,-1.28307 -3.01851,-1.50926 -3.74549,-5.02859 -5.13231,-6.41541 -6.14576,-6.14575 2.56615,-14.97687 2.56615,-14.11388 0,1.78243 -8.98155,-4.32131 -8.98155,-12.83079 0,-13.21586 7.57278,-3.26482 3.84923,-17.96312 -2.50321,-9.88122 0.3781,-12.13869 -0.48638,-16.9016 -0.58633,-3.2304 2.9803,-15.11292 0.48638,-15.1754 -1.80294,-0.0452 -8.84942,-23.54715 -7.69849,-26.94469 0.57686,-1.70288 3.25655,-5.82269 5.13233,-7.69848 4.1652,-4.1652 7.65094,-2.51861 11.54773,-6.4154 2.64347,-2.64346 -3.92654,-8.90426 -1.28309,-11.54772 3.54972,-3.54971 8.88269,-8.88268 11.54773,-11.54773 1.92462,-1.92461 7.05693,-0.64153 8.98156,-2.56615 1.71077,-1.71077 -1.71078,-8.55388 0,-10.26464 4.01106,-4.01108 5.29277,-15.71785 8.98156,-23.09543 z"
       id="path4174"
       inkscape:connector-curvature="0"
       sodipodi:nodetypes="csssssssssssssssssssssscccscsssssssccsscsssscsscsssssssssssssssscsssscssssssssssssssssssssssssc" />
    <path
       style="fill:#ffffff;fill-opacity:0.93875433;stroke:#ffffff;stroke-width:0.6350922px;stroke-linecap:butt;stroke-linejoin:miter;stroke-opacity:0"
       d="m 298.96016,472.09452 c -0.13135,0.0268 -0.25465,0.1009 -0.35148,0.19771 -3.91742,3.91741 -8.23848,11.53306 -12.82913,11.53306 -4.62606,0 -11.48678,2.63847 -15.39937,-1.27413 -1.37426,-1.37427 -1.54543,-3.51494 -1.47184,-4.94274 -1.66206,5.91963 -13.78415,3.57494 -19.06797,6.21687 -2.98065,1.4903 -6.82804,-3.18979 -9.07266,-7.55689 -1.40576,5.50056 -2.75886,11.06483 -3.60271,16.56365 0.72788,0.40082 1.51483,0.82331 2.41646,1.27412 11.15016,5.57509 16.36718,-12.35622 38.48742,-1.29609 1.62624,0.81317 5.85253,0 7.71067,0 21.8358,0 11.79332,-9.10395 19.24371,-12.82914 0.96694,-0.48349 2.60455,0.74439 4.56928,2.28464 -0.17295,-1.48031 -0.41816,-2.75163 -0.72493,-3.55877 -2.32725,0 -7.93705,-7.01379 -9.90745,-6.61229 z m -30.05182,5.5139 c 0.1245,-0.44339 0.19771,-0.93022 0.19771,-1.47184 0,-0.0378 -0.15185,0.58205 -0.19771,1.47184 z"
       id="path4312"
       inkscape:connector-curvature="0" />
  </g>
</svg>
