<?xml version="1.0" encoding="UTF-8" standalone="no"?>
<!-- Created with Inkscape (http://www.inkscape.org/) -->

<svg
   xmlns:dc="http://purl.org/dc/elements/1.1/"
   xmlns:cc="http://creativecommons.org/ns#"
   xmlns:rdf="http://www.w3.org/1999/02/22-rdf-syntax-ns#"
   xmlns:svg="http://www.w3.org/2000/svg"
   xmlns="http://www.w3.org/2000/svg"
   xmlns:sodipodi="http://sodipodi.sourceforge.net/DTD/sodipodi-0.dtd"
   xmlns:inkscape="http://www.inkscape.org/namespaces/inkscape"
   width="1052.3622"
   height="744.09448"
   id="svg2"
   version="1.1"
   inkscape:version="0.48.3.1 r9886"
   sodipodi:docname="emit_stream.svg"
   inkscape:export-filename="/home/substack/projects/talks/lxjs_2012/images/emit_stream_0.png"
   inkscape:export-xdpi="100"
   inkscape:export-ydpi="100">
  <defs
     id="defs4" />
  <sodipodi:namedview
     id="base"
     pagecolor="#261729"
     bordercolor="#666666"
     borderopacity="1.0"
     inkscape:pageopacity="1"
     inkscape:pageshadow="2"
     inkscape:zoom="0.49497475"
     inkscape:cx="596.97037"
     inkscape:cy="329.16378"
     inkscape:document-units="px"
     inkscape:current-layer="layer1"
     showgrid="false"
     inkscape:window-width="1364"
     inkscape:window-height="766"
     inkscape:window-x="0"
     inkscape:window-y="0"
     inkscape:window-maximized="0" />
  <metadata
     id="metadata7">
    <rdf:RDF>
      <cc:Work
         rdf:about="">
        <dc:format>image/svg+xml</dc:format>
        <dc:type
           rdf:resource="http://purl.org/dc/dcmitype/StillImage" />
        <dc:title></dc:title>
      </cc:Work>
    </rdf:RDF>
  </metadata>
  <g
     inkscape:label="Layer 1"
     inkscape:groupmode="layer"
     id="layer1"
     transform="translate(0,-308.2677)">
    <g
       id="g4255"
       transform="translate(-8.081223,220.21325)">
      <path
         inkscape:connector-curvature="0"
         id="path3238"
         d="m 556.17741,482.93491 c -8.57682,1.58627 -15.80852,7.34111 -22.32852,12.76016 -11.37916,12.62472 -26.34354,21.85429 -35.35754,36.66905 -16.00031,22.47407 -30.45159,46.23896 -39.23753,72.52433 -3.84668,12.79417 -12.25776,23.38539 -16.4131,36.03626 -4.68906,12.94031 -8.43884,26.34913 -10.31003,39.9605 0.22519,8.44223 5.71759,19.10507 15.44073,18.52176 10.7678,-0.78866 17.00568,-11.23359 24.75283,-17.41934 17.85655,-15.0885 27.28023,-37.32858 42.32539,-54.929 15.23214,-17.94539 25.79228,-39.07679 35.51667,-60.35871 4.91144,-10.26881 9.05046,-20.8714 10.63065,-32.21008 1.92764,-12.96234 7.79984,-25.5884 5.53372,-38.82988 -0.64576,-5.30786 -2.50006,-12.70029 -9.18499,-12.70573 -0.45606,-0.007 -0.91212,-0.0516 -1.36828,-0.0193 z"
         style="fill:none;stroke:#00ff00;stroke-width:4;stroke-linecap:butt;stroke-linejoin:miter;stroke-miterlimit:4;stroke-opacity:1;stroke-dasharray:none" />
      <path
         inkscape:connector-curvature="0"
         id="path3171"
         d="m 447.3351,487.25442 c -8.51283,-0.53118 -12.6305,9.56653 -11.2491,16.81534 -0.72444,14.44234 9.24076,26.36418 11.01362,40.34438 5.34555,18.52975 14.20746,35.87344 23.95728,52.46145 8.04726,12.30184 15.17475,25.10327 21.87639,38.1875 11.1148,18.3151 24.38825,35.85821 41.04236,49.39044 7.92499,4.54858 15.59202,13.99761 25.8043,10.89083 8.28155,-3.07744 8.61408,-13.79559 5.73446,-20.7988 -2.59139,-16.68213 -7.04809,-32.9628 -15.14569,-47.7147 -7.89168,-15.98881 -12.67096,-33.3459 -20.13937,-49.46303 -9.74338,-19.24915 -21.29449,-37.65003 -34.19425,-54.92409 -9.18645,-9.49887 -18.19237,-19.58795 -30.22532,-25.54337 -5.76039,-3.9976 -10.77628,-9.96622 -18.47468,-9.64595 z"
         style="fill:none;stroke:#ff0000;stroke-width:4;stroke-linecap:butt;stroke-linejoin:miter;stroke-miterlimit:4;stroke-opacity:1;stroke-dasharray:none" />
      <path
         inkscape:connector-curvature="0"
         id="path3223"
         d="m 541.41801,559.20787 c -23.76697,-0.667 -47.67642,-0.41055 -70.90288,4.97963 -8.76808,2.13047 -17.69439,3.24078 -26.61515,3.41895 -17.14625,1.41869 -33.67144,6.42272 -49.67348,12.2798 -7.41302,1.55044 -14.6712,10.07721 -10.35243,17.55603 4.83656,8.84199 16.03432,9.99429 23.87539,14.99183 27.05169,8.29691 55.69622,10.32007 83.82411,7.84483 17.01398,0.0883 34.15261,1.40859 51.00611,-1.19433 20.299,-0.85685 39.27533,-9.10662 59.22366,-11.70233 7.58551,-2.77812 16.81446,-7.09444 18.77102,-15.68069 0.4036,-9.17756 -8.86474,-14.71517 -16.75473,-16.43176 -8.73316,-4.73348 -17.65824,-9.09367 -27.39258,-11.20853 -11.36768,-3.39988 -23.24468,-4.04002 -35.00904,-4.85343 z"
         style="fill:none;stroke:#0000ff;stroke-width:4;stroke-linecap:butt;stroke-linejoin:miter;stroke-miterlimit:4;stroke-opacity:1;stroke-dasharray:none" />
      <path
         inkscape:connector-curvature="0"
         id="path3140"
         d="m 459.72298,574.39805 c -1.70152,-0.19876 -3.0493,0.086 -4.33095,1.28489 -8.90474,8.32983 -0.57868,23.11174 8.66138,18.87069 12.32798,-5.65836 5.81915,-17.77118 -4.33043,-20.15558 z"
         style="fill:#f9f9f9;stroke:#000000;stroke-width:1px;stroke-linecap:butt;stroke-linejoin:miter;stroke-opacity:1" />
      <path
         inkscape:connector-curvature="0"
         id="path3144"
         d="m 493.49062,547.65184 c -15.53357,-1.7255 -5.9865,20.32168 5.21101,15.18218 0.60429,-0.27736 2.38761,0.53298 2.85555,0.0953 8.77742,-8.21073 2.6535,-12.75902 -8.06656,-15.27744 z"
         style="fill:#800080;stroke:#000000;stroke-width:1px;stroke-linecap:butt;stroke-linejoin:miter;stroke-opacity:1" />
      <path
         inkscape:connector-curvature="0"
         id="path3146"
         d="m 512.83705,546.15316 c -9.23485,1.55934 7.35067,-2.65198 -3.59326,0.59481 -11.3241,3.3596 -2.27162,20.374 5.87727,16.63378 6.41685,-2.94524 5.86787,-4.50856 6.11596,-11.9456 0.0238,-0.71389 0.5594,-1.62003 0.0714,-2.14167 -1.67948,-1.79539 -5.55058,-2.45515 -8.47141,-3.14132 z"
         style="fill:#f9f9f9;stroke:#000000;stroke-width:1px;stroke-linecap:butt;stroke-linejoin:miter;stroke-opacity:1" />
      <path
         inkscape:connector-curvature="0"
         id="path3148"
         d="m 476.97592,549.95967 c 0.22694,-0.15745 -4.33179,-0.78917 -7.94803,2.5936 -0.4918,0.46006 0.39654,2.39551 -0.0953,2.85556 -5.09296,4.76414 6.20948,17.01461 11.01738,12.51713 1.55335,-1.45305 3.50003,-1.89083 5.11629,-3.40274 3.98194,-3.72486 2.29483,-18.32105 -8.09038,-14.56355 z"
         style="fill:#f9f9f9;stroke:#000000;stroke-width:1px;stroke-linecap:butt;stroke-linejoin:miter;stroke-opacity:1" />
      <path
         inkscape:connector-curvature="0"
         id="path3142"
         d="m 471.62148,560.50131 c -3.88802,-1.2745 -8.34442,1.10538 -10.87502,4.64001 -4.35124,6.07759 3.63008,21.17998 11.56457,17.53816 7.54851,-3.46466 11.71829,-21.76427 -0.68955,-22.17817 z"
         style="fill:#800080;stroke:#000000;stroke-width:1px;stroke-linecap:butt;stroke-linejoin:miter;stroke-opacity:1" />
      <path
         inkscape:connector-curvature="0"
         id="path3019"
         d="m 523.2358,555.79093 c -4.72085,-2.9988 -9.29337,0.39401 -12.99289,3.85467 -11.70322,10.94764 10.76073,24.51462 18.72728,17.06242 0.51111,-0.47811 3.08213,-0.11669 3.59325,-0.59481 0.2459,-0.23003 0.53943,-1.88783 0.78533,-2.11785 2.26206,-2.11601 3.35186,-5.71538 1.73736,-9.23293 -0.88447,-1.927 -3.249,-4.01556 -4.09281,-5.85399 -1.14917,-2.50371 -4.58451,-2.37209 -7.75752,-3.11751 z"
         style="fill:#800080;fill-opacity:1;stroke:#000000;stroke-width:1px;stroke-linecap:butt;stroke-linejoin:miter;stroke-opacity:1" />
      <path
         inkscape:connector-curvature="0"
         id="path3023"
         d="m 532.18295,566.09496 c -4.14441,-1.56083 -7.49576,1.75976 -9.47106,5.40152 -3.49705,6.44728 -5.34648,9.80213 -1.26162,16.39562 8.45694,13.65057 28.34061,-1.04725 22.60683,-13.53953 -0.6356,-1.38479 -2.11726,-2.3156 -2.73649,-3.6647 -0.95678,-2.08456 -6.49065,-3.43031 -9.13766,-4.59291 z"
         style="fill:#f9f9f9;fill-opacity:1;stroke:#000000;stroke-width:1px;stroke-linecap:butt;stroke-linejoin:miter;stroke-opacity:1" />
      <path
         inkscape:connector-curvature="0"
         id="path3025"
         d="m 528.70823,584.5608 c -19.46943,7.06655 6.43677,27.86779 14.32486,20.48898 5.65107,-5.28622 6.54111,-15.34901 -0.78479,-19.32262 -3.20596,-1.73892 -9.73615,-1.03947 -13.54007,-1.16636 z"
         style="fill:#800080;fill-opacity:1;stroke:#000000;stroke-width:1px;stroke-linecap:butt;stroke-linejoin:miter;stroke-opacity:1" />
      <path
         inkscape:connector-curvature="0"
         id="path3021"
         d="m 515.64444,569.11667 c -4.57595,-1.54791 -12.8676,2.15517 -14.56355,8.09038 -3.49433,12.22905 14.91713,23.39303 23.79594,15.08746 6.04508,-5.65479 3.25284,-30.11367 -9.23239,-23.17784 z"
         style="fill:#800080;fill-opacity:1;stroke:#000000;stroke-width:1px;stroke-linecap:butt;stroke-linejoin:miter;stroke-opacity:1" />
      <path
         inkscape:connector-curvature="0"
         id="path3037"
         d="m 532.5629,597.55368 c -3.53404,-1.52778 -8.61024,1.02072 -8.75718,5.42534 -0.90247,27.05392 26.22759,13.49338 20.67896,1.4045 -2.90465,-6.32841 -2.81016,-6.52589 -11.92178,-6.82984 z"
         style="fill:#800080;stroke:#000000;stroke-width:1px;stroke-linecap:butt;stroke-linejoin:miter;stroke-opacity:1" />
      <path
         inkscape:connector-curvature="0"
         id="path3033"
         d="m 528.7315,605.28738 c -19.18981,-2.75956 -12.76443,27.29893 2.90265,20.10796 5.88377,-2.70057 5.63681,-18.10182 -2.90265,-20.10796 z"
         style="fill:#f9f9f9;fill-opacity:1;stroke:#000000;stroke-width:1px;stroke-linecap:butt;stroke-linejoin:miter;stroke-opacity:1" />
      <path
         inkscape:connector-curvature="0"
         id="path3027"
         d="m 518.49946,590.6524 c -4.81961,-0.63293 -6.92171,2.32515 -10.18495,5.37771 -6.85875,6.41593 7.04692,19.11406 14.44393,16.91953 12.61889,-3.74372 12.16013,-17.38886 2.18983,-22.7968 -0.82313,-0.44647 -0.86144,0.39539 -1.45159,0.66626 -1.51473,0.69524 -3.33148,-0.11113 -4.99722,-0.1667 z"
         style="fill:#f9f9f9;stroke:#000000;stroke-width:1px;stroke-linecap:butt;stroke-linejoin:miter;stroke-opacity:1" />
      <path
         inkscape:connector-curvature="0"
         id="path3035"
         d="m 506.88619,617.42295 c -3.45282,-0.24626 -6.11646,1.22679 -8.01947,4.73527 -5.2585,9.69477 11.09433,17.97803 17.46618,12.01757 7.83777,-7.33173 3.07143,-21.28207 -9.44671,-16.75284 z"
         style="fill:#f9f9f9;stroke:#000000;stroke-width:1px;stroke-linecap:butt;stroke-linejoin:miter;stroke-opacity:1" />
      <path
         inkscape:connector-curvature="0"
         id="path3029"
         d="m 491.58549,604.76294 c -3.81974,0.59937 -6.71074,2.50523 -8.06711,6.16304 -7.13331,19.23684 15.30258,24.71629 24.01026,8.66245 0.45557,-0.83989 1.39004,-2.3319 0.83295,-3.54563 -0.85866,-1.87078 -1.10414,-3.93716 -1.95114,-5.78254 -0.53301,-1.16128 -2.2273,-1.78954 -2.76031,-2.95082 -1.41445,-3.0817 -8.06471,-2.41307 -12.06465,-2.5465 z"
         style="fill:#800080;stroke:#000000;stroke-width:1px;stroke-linecap:butt;stroke-linejoin:miter;stroke-opacity:1" />
      <path
         inkscape:connector-curvature="0"
         id="path3031"
         d="m 513.0974,602.6218 c -3.5683,-1.1601 -6.94465,0.37567 -10.06588,1.80827 -7.26165,3.33299 2.04258,20.8542 9.4229,17.46673 8.92963,-4.09857 16.01247,-15.6643 0.64298,-19.275 z"
         style="fill:#800080;stroke:#000000;stroke-width:1px;stroke-linecap:butt;stroke-linejoin:miter;stroke-opacity:1" />
      <path
         inkscape:connector-curvature="0"
         id="path3039"
         d="m 503.98803,587.43593 c -0.10556,16.50873 24.48099,6.24171 17.56904,-5.9335 -3.00358,-5.2907 -10.27992,-11.22846 -15.99342,-4.87876 -1.70441,1.89418 -1.10948,7.6135 -1.57562,10.81226 z"
         style="fill:#f9f9f9;fill-opacity:1;stroke:#000000;stroke-width:1px;stroke-linecap:butt;stroke-linejoin:miter;stroke-opacity:1" />
      <path
         inkscape:connector-curvature="0"
         id="path3098"
         d="m 498.48677,590.69949 c -2.33024,0.37037 -7.35453,-0.0364 -9.352,1.83208 -2.1003,1.9647 -3.03267,11.54496 -1.16636,13.54008 0.57079,0.61017 3.0746,1.33828 3.49801,2.26072 0.81715,1.78038 1.65379,2.91391 4.18807,2.99845 7.40289,0.24695 17.29971,-8.12274 10.51835,-15.37215 -1.78192,-1.90491 -4.46191,-3.17542 -7.68607,-5.25918 z"
         style="fill:#ff0000;stroke:#000000;stroke-width:1px;stroke-linecap:butt;stroke-linejoin:miter;stroke-opacity:1" />
      <path
         inkscape:connector-curvature="0"
         id="path3134"
         d="m 465.64788,589.60404 c -3.69445,-0.58774 -9.39907,3.2436 -9.5425,7.54318 -0.11709,3.50995 3.59811,6.0645 5.44916,8.0433 15.3212,16.37866 26.46048,-23.67921 4.09334,-15.58648 z"
         style="fill:#800080;stroke:#000000;stroke-width:1px;stroke-linecap:butt;stroke-linejoin:miter;stroke-opacity:1" />
      <path
         inkscape:connector-curvature="0"
         id="path3100"
         d="m 480.37759,597.95691 c -2.88061,0.38349 -0.80347,0.36878 -5.80636,2.66505 -1.05413,0.48382 -0.88981,2.21558 -1.52303,2.80792 -6.07001,5.6781 3.44983,16.88271 10.94593,14.65879 0.68478,-0.20315 1.62003,0.55941 2.14167,0.0714 1.63447,-1.52895 4.3764,-3.37863 5.92543,-6.23449 3.12261,-5.75695 -2.19318,-12.81847 -5.23482,-14.46828 -0.90645,-0.49166 -4.23086,0.13241 -6.44882,0.49956 z"
         style="fill:#f9f9f9;fill-opacity:1;stroke:#000000;stroke-width:1px;stroke-linecap:butt;stroke-linejoin:miter;stroke-opacity:1" />
      <path
         inkscape:connector-curvature="0"
         id="path3136"
         d="m 471.97816,571.23345 c -0.66162,-0.33155 -3.03257,0.0703 -7.28177,4.04519 -9.64096,9.01851 5.88309,25.61928 11.46931,20.39372 3.92869,-3.67505 5.37253,-5.88511 8.2338,-11.16026 3.56131,-6.56576 -4.54746,-12.25479 -6.66259,-14.51592 -1.34128,-1.43383 -3.91249,0.56927 -5.75875,1.23727 z"
         style="fill:#f9f9f9;stroke:#000000;stroke-width:1px;stroke-linecap:butt;stroke-linejoin:miter;stroke-opacity:1" />
      <path
         inkscape:connector-curvature="0"
         id="path3102"
         d="m 486.56498,583.86965 c -0.82367,-0.14779 -3.79824,0.095 -4.30714,0.57101 -1.18402,1.10757 -5.02758,0.7435 -5.1401,4.11663 -0.0467,1.39962 -2.16292,6.00845 -1.66593,7.09126 7.87558,17.15864 25.23022,-1.12359 18.84688,-7.9475 -1.71054,-1.8286 -4.53271,-2.42546 -7.73371,-3.8314 z"
         style="fill:#800080;fill-opacity:1;stroke:#000000;stroke-width:1px;stroke-linecap:butt;stroke-linejoin:miter;stroke-opacity:1" />
      <path
         inkscape:connector-curvature="0"
         id="path3106"
         d="m 503.27073,554.41024 c -3.79766,-0.65107 -4.69024,0.23775 -7.23414,2.61741 -11.64436,10.89257 2.96739,25.58029 7.87605,20.98855 1.10556,-1.03418 4.70522,-1.9749 5.85399,-4.09283 3.52102,-6.49148 3.2945,-14.22244 -0.80861,-18.60872 -1.31134,-1.40186 -3.81858,-0.4654 -5.68729,-0.90441 z"
         style="fill:#f9f9f9;stroke:#000000;stroke-width:1px;stroke-linecap:butt;stroke-linejoin:miter;stroke-opacity:1" />
      <path
         inkscape:connector-curvature="0"
         id="path3138"
         d="m 480.37866,555.07596 c -4.31227,0.22725 -8.00551,4.31689 -8.11473,7.59082 -0.12497,3.74639 0.12179,5.96961 1.1182,9.32819 5.42102,18.27252 27.20451,-4.92779 23.86791,-8.49469 -0.98495,-1.05292 -1.24712,-4.29058 -2.66504,-5.80636 -0.39997,-0.42758 -2.40797,-1.09546 -2.80794,-1.52304 -3.45023,-3.68838 -6.18357,-2.98171 -11.3984,-1.09492 z"
         style="fill:#800080;stroke:#000000;stroke-width:1px;stroke-linecap:butt;stroke-linejoin:miter;stroke-opacity:1" />
      <path
         inkscape:connector-curvature="0"
         id="path3104"
         d="m 494.27541,566.97446 c -5.3386,-2.08209 -8.61233,3.14835 -10.97029,7.49557 -5.04886,9.30829 8.20814,22.06112 17.41856,13.44535 6.48624,-6.06746 4.79052,-22.80135 -6.44827,-20.94092 z"
         style="fill:#f9f9f9;fill-opacity:1;stroke:#000000;stroke-width:1px;stroke-linecap:butt;stroke-linejoin:miter;stroke-opacity:1" />
      <path
         inkscape:connector-curvature="0"
         id="path3150"
         d="m 496.84466,597.07687 c -2.84698,1.71535 -1.33627,-3.56626 -3.59326,0.59481 -0.61001,1.12464 -2.93067,2.1568 -2.97462,3.47419 -0.14909,4.46933 -1.01823,9.26235 2.4269,12.94525 0.71577,0.76518 6.15497,4.61658 8.49522,2.42744 1.57307,-1.47152 10.96552,-3.67708 8.18617,-9.73249 -0.96738,-2.10763 -0.40605,-4.87015 -1.92734,-6.49644 -0.81326,-0.86939 -3.97393,-2.27661 -2.78411,-2.23692 0.27557,0.009 -3.94664,-0.0638 -7.82896,-0.97584 z"
         style="fill:#f9f9f9;fill-opacity:1;stroke:#000000;stroke-width:1px;stroke-linecap:butt;stroke-linejoin:miter;stroke-opacity:1" />
      <path
         inkscape:connector-curvature="0"
         id="path3165"
         d="m 502.43724,579.39634 c -12.86376,1.36119 -10.03089,26.04426 -5.4e-4,21.44048 1.24311,-0.57058 6.98846,-2.3876 7.23414,-2.61741 7.23765,-6.77037 2.33732,-16.57461 -7.2336,-18.82307 z"
         style="fill:#800080;fill-opacity:1;stroke:#000000;stroke-width:1px;stroke-linecap:butt;stroke-linejoin:miter;stroke-opacity:1" />
      <path
         sodipodi:nodetypes="cssssssssc"
         inkscape:connector-curvature="0"
         id="path4064"
         d="m 581.84787,543.2453 c 0.52879,-3.19897 7.13304,-11.14266 17.17259,-16.16244 6.63093,-3.31546 15.25114,3.94176 21.21321,-2.0203 4.30478,-4.30479 4.2642,-11.33527 9.09137,-16.16244 4.08534,-4.08534 17.0478,1.13494 20.20305,-2.02031 1.60772,-1.60771 4.07165,-5.0818 6.06092,-7.07107 0.97113,-0.97113 -0.28637,-4.76439 1.01015,-6.06091 2.21317,-2.21317 4.94403,-2.92373 7.07107,-5.05076 4.36425,-4.36425 16.61577,3.58727 20.20305,0 4.76404,-4.76404 8.91005,-5.54132 10.6425,-6.40755"
         style="fill:none;stroke:#00ffff;stroke-width:4;stroke-linecap:round;stroke-linejoin:round;stroke-miterlimit:4;stroke-opacity:1;stroke-dasharray:none" />
      <path
         inkscape:connector-curvature="0"
         id="path4092"
         d="m 687.98269,498.11131 c -1.62159,1.26743 2.85714,-2.1028 2.85714,-4.28571 0,-0.66807 6.78013,-12.50559 5.71429,-13.57143 -0.59524,-0.59524 -2.97619,0.59524 -3.57143,0 -4.65087,-4.65087 -14.63473,-2.31737 -15.71429,-2.85715"
         style="fill:none;stroke:#00ffff;stroke-width:4;stroke-linecap:round;stroke-linejoin:round;stroke-miterlimit:4;stroke-opacity:1;stroke-dasharray:none" />
      <path
         inkscape:connector-curvature="0"
         id="path4111"
         d="m 734.7271,450.52283 c -1.4728,-0.16793 -0.94536,-2.5457 -4.24538,-1.54429 -8.83843,2.68205 -9.86899,13.95612 -2.24037,16.73109 7.36965,2.68078 16.50788,-10.56591 6.48575,-15.1868 z"
         style="fill:#f9f9f9;fill-opacity:1;stroke:#000000;stroke-width:1px;stroke-linecap:butt;stroke-linejoin:miter;stroke-opacity:1" />
      <path
         inkscape:connector-curvature="0"
         id="path4113"
         d="m 720.11728,462.27372 c -1.27166,-0.67537 -0.7966,-1.09344 -4.6121,-1.19697 -7.77083,-0.21086 -4.56015,13.80995 1.40725,13.97188 8.03031,0.2179 8.4003,-9.10389 3.20485,-12.77491 z"
         style="fill:#f9f9f9;fill-opacity:1;stroke:#000000;stroke-width:1px;stroke-linecap:butt;stroke-linejoin:miter;stroke-opacity:1" />
      <path
         inkscape:connector-curvature="0"
         id="path4094"
         d="m 722.53059,452.33553 c -1.07385,-1.15441 -2.21267,-2.20369 -5.65406,-2.29707 -1.9659,-0.0533 -6.28486,3.40158 -6.92853,5.17111 -0.80345,2.20876 1.23634,7.89358 4.07102,7.9705 2.1448,0.0582 5.0588,-0.22 6.7929,-0.17295 2.93495,0.0796 8.66049,-7.47094 1.71867,-10.67159 z"
         style="fill:#800080;fill-opacity:1;stroke:#000000;stroke-width:1px;stroke-linecap:butt;stroke-linejoin:miter;stroke-opacity:1" />
      <path
         inkscape:connector-curvature="0"
         id="path4096"
         d="m 733.27826,464.41721 c -0.23126,-0.9998 -3.02964,-2.9404 -7.77675,-3.06921 -5.11978,-0.13892 -6.88381,11.91737 1.73519,15.05261 5.33165,1.93943 14.79171,-7.94898 6.04156,-11.9834 z"
         style="fill:#800080;fill-opacity:1;stroke:#000000;stroke-width:1px;stroke-linecap:butt;stroke-linejoin:miter;stroke-opacity:1" />
      <path
         inkscape:connector-curvature="0"
         id="path4115"
         d="m 618.6044,566.54171 c -0.51803,-2.81789 1.25565,-4.72253 2.58923,-6.26214 0.97811,-1.1292 1.68946,-3.10258 2.76985,-3.74321 5.48202,-3.25062 19.62233,2.43872 23.17401,-1.66163 4.19117,-4.83863 4.64014,-10.36685 10.64782,-13.92917 3.54812,-2.10389 14.68008,4.68795 17.92138,2.76598 4.53429,-2.68866 5.69586,-13.12159 8.45208,-16.3036 2.11299,-2.43941 13.10532,1.59218 15.2941,1.43524 2.4526,-0.17586 3.97323,-7.31444 5.43131,-8.99777 2.27698,-2.62873 7.08376,-1.83699 10.36271,-3.78127"
         style="fill:none;stroke:#00ffff;stroke-width:4;stroke-linecap:round;stroke-linejoin:round;stroke-miterlimit:4;stroke-opacity:1;stroke-dasharray:none" />
      <path
         inkscape:connector-curvature="0"
         id="path4117"
         d="m 700.75771,513.32934 c 0.69381,0.0222 2.10367,-0.62705 2.08142,0.0667 -0.0222,0.69381 -2.75989,0.0799 -2.08142,-0.0667 1.71807,-0.37144 11.03634,-0.11045 11.99481,0.50727 0.82587,0.53225 5.43017,-1.17499 5.64384,-0.18668 0.0471,0.21793 -3.6144,3.18752 -3.80267,3.92258 -1.01625,3.96785 -2.75876,8.9506 -3.29581,11.04744"
         style="fill:none;stroke:#00ffff;stroke-width:4;stroke-linecap:round;stroke-linejoin:round;stroke-miterlimit:4;stroke-opacity:1;stroke-dasharray:none" />
      <path
         style="fill:#ff00ff;fill-opacity:1;stroke:#000000;stroke-width:1px;stroke-linecap:butt;stroke-linejoin:miter;stroke-opacity:1"
         d="m 737.92677,501.74231 c -0.30217,-0.9807 -3.23217,-2.71619 -7.97634,-2.50516 -5.1166,0.22759 -6.01386,12.37917 2.80729,14.88996 5.45671,1.55315 14.18533,-8.98651 5.16905,-12.3848 z"
         id="path4119"
         inkscape:connector-curvature="0" />
      <path
         style="fill:none;stroke:#00ffff;stroke-width:4;stroke-linecap:round;stroke-linejoin:round;stroke-miterlimit:4;stroke-opacity:1;stroke-dasharray:none"
         d="m 736.63992,561.00646 c -0.0733,2.86417 -2.20108,4.36282 -3.82308,5.59486 -1.18965,0.90362 -2.29206,2.68826 -3.48122,3.09272 -6.03384,2.05225 -18.69979,-6.4266 -23.01961,-3.14537 -5.09761,3.87202 -6.67519,9.18936 -13.28761,11.4384 -3.90528,1.32828 -13.40033,-7.61005 -16.96789,-6.39663 -4.99074,1.69747 -8.27549,11.66771 -11.62781,14.21406 -2.56999,1.95209 -12.49672,-4.25637 -14.67092,-4.55346 -2.43625,-0.33288 -5.3941,6.33966 -7.16752,7.68671 -2.76944,2.10359 -7.31021,0.33913 -10.91922,1.56663"
         id="path4149"
         inkscape:connector-curvature="0" />
      <path
         style="fill:none;stroke:#00ffff;stroke-width:4;stroke-linecap:round;stroke-linejoin:round;stroke-miterlimit:4;stroke-opacity:1;stroke-dasharray:none"
         d="m 727.49269,558.19328 c 0.69234,0.0504 2.12746,-0.54087 2.07698,0.15141 -0.0505,0.69232 -2.76085,-0.0326 -2.07698,-0.15141 1.73178,-0.30113 11.03168,0.33908 11.96421,0.99532 0.80351,0.56544 5.47352,-0.95287 5.64675,0.0433 0.0385,0.21961 -3.74121,3.03768 -3.95925,3.76445 -1.17699,3.92318 -3.12097,8.83084 -3.74297,10.90406"
         id="path4151"
         inkscape:connector-curvature="0" />
      <path
         inkscape:connector-curvature="0"
         id="path4153"
         d="m 764.63892,551.59043 c -0.0938,-1.0219 -2.60367,-3.32348 -7.28964,-4.09377 -5.05384,-0.83075 -8.43381,10.87572 -0.31862,15.14895 5.02002,2.64336 15.73167,-5.87331 7.60826,-11.05518 z"
         style="fill:#ff00ff;fill-opacity:1;stroke:#000000;stroke-width:1px;stroke-linecap:butt;stroke-linejoin:miter;stroke-opacity:1" />
    </g>
    <path
       style="fill:#ffff00;stroke:#000000;stroke-width:0.4465678px;stroke-linecap:butt;stroke-linejoin:miter;stroke-opacity:1"
       d="m 63.950403,546.4981 c -1.12808,0.009 -2.178289,0.15927 -3.125975,0.46052 -16.801856,5.34103 -26.390645,15.52802 -20.263014,34.80438 0.566273,1.78139 4.254741,5.73815 5.651874,6.46128 2.697066,1.39596 4.218882,4.89292 8.833669,6.50315 9.763015,3.40659 25.495923,-1.51114 30.715493,-6.58688 1.37375,-1.3359 2.523014,-7.77615 2.037465,-8.27546 -0.957316,-0.98444 -8.89818,-0.18699 -9.587252,1.14433 -3.775347,7.29415 -28.231071,11.45589 -27.99422,-5.49837 0.05258,-3.76398 -0.784184,-4.34622 2.037465,-8.90344 4.595726,1.48067 8.442342,0.12117 12.755093,0.18142 4.81088,0.0672 13.085559,0.81642 16.578831,0.86522 8.641444,0.12072 7.464475,-11.87204 0.85127,-15.29495 -4.227484,-2.18808 -12.399068,-5.91118 -18.490699,-5.8612 z m 3.69814,9.92218 c 5.065378,0.01 10.253317,0.71901 10.187328,5.44255 -0.01139,0.81378 -14.945942,0.29683 -15.950844,-0.22329 -1.662226,-0.86034 -3.083568,0.39195 -5.72165,-0.71172 0.672769,-0.81729 3.842263,-4.41434 5.16344,-4.3959 1.746448,0.0244 4.019281,-0.11614 6.321726,-0.11164 z"
       id="path4155"
       inkscape:connector-curvature="0" />
    <path
       style="fill:#ffff00;stroke:#000000;stroke-width:0.4465678px;stroke-linecap:butt;stroke-linejoin:miter;stroke-opacity:1"
       d="m 99.085439,548.12575 c -3.417597,14.76375 0.811235,33.2708 0.669807,43.39446 -0.0018,0.12273 3.989964,-0.58227 4.474164,-0.57551 2.43318,0.034 4.43706,-0.57603 5.11204,-0.5666 0.8767,0.0122 1.91407,1.28479 2.54266,0.67354 0.63993,-0.6223 -0.61058,-1.96397 -0.60225,-2.56048 0.0439,-3.13858 -1.30413,-13.42551 -2.31987,-16.62083 -1.35371,-4.2585 4.59983,-15.32857 8.45299,-11.36621 7.45825,7.66959 3.07009,10.95526 6.75838,18.59689 1.17731,2.43921 -1.97564,9.61538 -0.1604,11.48205 1.03787,1.06729 11.51417,-2.13878 11.48205,0.1604 -0.01,0.68514 -1.82353,-6.47975 -1.75327,-11.50878 0.1003,-7.17983 -1.897,-16.19134 5.37939,-19.70335 0.94492,-0.45608 4.1741,1.0571 4.44742,1.33815 0.94575,0.97257 2.93564,0.8314 3.7917,2.60504 1.69502,3.51185 0.5364,8.98761 1.75327,11.50878 1.50513,3.11842 1.64753,11.61163 1.10647,12.13778 -0.52819,0.51363 -0.0688,4.92612 -0.0535,3.82735 0.005,-0.37476 3.03238,-0.0368 3.18946,0.0446 1.83117,0.94779 5.09343,-1.2328 6.37891,0.0891 1.54066,1.58431 2.2957,-10.75816 1.46293,-13.37791 -0.53342,-1.67804 0.0641,-4.59164 0.0891,-6.37892 0.0834,-5.9717 -1.24366,-12.92589 -4.24247,-16.00967 -0.2965,-0.30491 -0.97927,0.28708 -1.27578,-0.0178 -1.85336,-1.90587 -5.09738,-4.53732 -8.23022,-4.58109 -2.39713,-0.0335 -9.44628,-2.7693 -12.76674,0.45966 -0.64263,0.62493 -3.00577,0.84189 -3.86299,2.4981 -0.27648,0.53416 -0.87429,1.68916 -1.29362,1.25796 -1.277,-1.31319 -2.25359,-2.96451 -3.76496,-4.5187 -2.67369,-2.74946 -11.81638,-2.35218 -14.68042,0.43293 -1.22727,1.19344 -4.1205,2.23329 -3.863,2.4981 0.77785,0.79989 0.0569,-6.41204 -0.53986,-7.02573 -0.0537,-0.0552 -6.956193,1.67219 -7.681441,1.80674 z"
       id="path4159"
       inkscape:connector-curvature="0" />
    <path
       style="fill:#ffff00;stroke:#000000;stroke-width:0.4465678px;stroke-linecap:butt;stroke-linejoin:miter;stroke-opacity:1"
       d="m 170.50258,551.03749 c 1.28619,4.42499 -0.63092,9.48162 0.44184,14.04254 0.55328,2.35228 -0.41295,16.866 -0.2406,17.22308 0.7939,1.64485 1.8169,6.95358 1.80674,7.68143 -0.004,0.3007 -0.94751,0.62478 -0.64681,0.62898 0.25911,0.004 10.86196,-1.12245 10.85307,-0.4864 -0.01,0.68267 -1.19215,-6.00396 -1.08864,-13.41355 0.0697,-4.99099 -1.31366,-10.31554 -2.34661,-14.70716 -0.69645,-2.96099 0.78777,-10.71938 0.7983,-11.47313 0.004,-0.24996 -4.64476,-0.41082 -9.57729,0.50421 z"
       id="path4161"
       inkscape:connector-curvature="0" />
    <path
       style="fill:#ffff00;stroke:#000000;stroke-width:0.4465678px;stroke-linecap:butt;stroke-linejoin:miter;stroke-opacity:1"
       d="m 177.85802,526.89563 c -3.27326,-0.71894 -2.5492,-1.2964 -3.82735,-0.0535 -3.55557,3.4576 -5.48734,12.04565 0.46857,12.12886 0.8767,0.0122 1.91408,1.28479 2.54266,0.67353 0.76462,-0.74354 2.21681,-0.89727 3.2162,-1.86911 0.0633,-0.0615 2.30927,-8.62523 2.03843,-8.90375 -1.08578,-1.11655 -1.07378,-1.25409 -4.43851,-1.97606 z"
       id="path4163"
       inkscape:connector-curvature="0" />
    <path
       style="fill:#ffff00;stroke:#000000;stroke-width:0.4465678px;stroke-linecap:butt;stroke-linejoin:miter;stroke-opacity:1"
       d="m 210.854,539.985 c -2.21128,0.0495 -8.98684,2.42985 -9.60979,2.54541 -0.2854,1.63867 -0.53014,4.824 -0.70829,8.7409 -2.92431,-0.0324 -5.79945,0.20542 -8.36489,1.34859 -0.007,0.51066 1.03763,7.03467 1.18571,7.03673 1.26768,0.0177 3.87334,-0.0847 6.93995,-0.25196 -0.17471,12.73012 0.44985,27.90787 2.84161,30.3674 3.75206,3.85837 15.31029,3.94204 18.53852,-2.29507 1.26211,-2.43844 2.53031,-3.71314 4.54537,-5.67267 0.0621,-0.0604 0.59811,-1.46497 0.96844,-2.38701 -1.24975,0.13769 -5.51187,-7.25069 -6.58372,-7.26567 -1.26505,-0.0177 -4.90351,11.78706 -9.0375,7.53593 -0.41932,-0.43121 -0.1819,-1.48925 -0.60122,-1.92046 -0.46071,-0.47376 0.69444,-4.75212 0.70824,-5.74022 0.018,-1.28536 0.23251,-7.19865 0.37107,-13.5746 3.67895,-0.43161 6.81061,-0.97261 8.14533,-1.61683 2.01656,-0.97331 6.60349,0.73426 7.63776,0.7487 0.85053,0.0119 0.0238,-1.70304 0.0357,-2.55356 0.01,-0.70854 0.50714,-4.00788 0.0624,-4.46524 -0.72191,-0.74236 -8.85222,0.51834 -12.12094,0.47268 -1.22692,-0.0171 -2.45058,0.097 -3.64586,0.22819 0.0273,-5.73604 -0.10797,-10.57107 -0.66772,-11.14669 -0.0986,-0.10139 -0.32423,-0.14162 -0.64013,-0.13455 z m 16.33663,39.43232 c 0.21295,-0.0234 0.33853,-0.25566 0.346,-0.79069 0.001,-0.0834 -0.15285,0.30979 -0.346,0.79069 z"
       id="path4165"
       inkscape:connector-curvature="0" />
    <path
       style="fill:#ffff00;stroke:#000000;stroke-width:0.4465678px;stroke-linecap:butt;stroke-linejoin:miter;stroke-opacity:1"
       d="m 276.89547,539.03836 c 0.52213,-7.9834 -9.02679,-8.02215 -13.39704,-10.20727 -4.28137,-2.14069 -11.93739,-2.32471 -16.5868,0 -4.26652,2.13326 -13.05621,14.07868 -10.20727,19.77658 0.19259,0.38517 -0.2949,1.61895 0,1.91386 1.81895,1.81895 4.53562,3.89766 6.37954,5.74158 2.60676,2.60676 11.08081,2.78741 14.03499,5.74159 1.94154,1.94153 7.41119,1.03164 9.56931,3.18977 1.37703,1.37703 4.95206,9.23451 3.18977,12.75908 -2.72479,5.44958 -12.9604,8.73003 -17.22476,4.46568 -0.31897,-0.31898 -1.59488,0.31898 -1.91386,0 -3.57612,-3.57612 -8.19887,-10.20727 -6.37954,-10.20727 2.19738,0 -11.12648,1.35134 -9.56931,4.46568 2.66289,5.32577 4.22374,9.32737 7.65545,12.75908 1.42324,1.42324 4.3501,2.43624 5.74159,3.82773 0.53163,0.53162 2.65814,-0.53163 3.18977,0 3.35908,3.35908 21.60406,-0.55159 24.24225,-3.18977 0.89953,-0.89954 3.82852,-3.82933 4.46568,-5.10364 3.3111,-6.6222 3.57605,-19.39029 -1.91386,-24.8802 -1.10163,-1.10162 -0.52212,-3.45083 -2.55182,-4.46568 -7.17777,-3.58888 -17.5093,-1.9292 -21.69044,-9.56931 -1.62297,-2.96563 4.86438,-10.88998 12.12113,-3.82773 2.88229,2.80506 4.51971,6.96347 5.74159,5.74159 1.53991,-1.53991 6.37954,0.21877 6.37954,0 z"
       id="path4184"
       inkscape:connector-curvature="0"
       sodipodi:nodetypes="csssssssssssssssssssssscc" />
    <path
       style="fill:#ffff00;stroke:#000000;stroke-width:0.4465678px;stroke-linecap:butt;stroke-linejoin:miter;stroke-opacity:1"
       d="m 304.3002,541.03895 c -4.87342,-0.36231 -4.16901,1.42714 -9.59351,-0.0835 -0.48907,1.56553 -1.26007,5.59627 -1.92704,10.67391 -2.38746,-0.27997 -4.46512,-0.62697 -5.83048,-1.0072 -0.47742,-2.90337 -1.31588,8.69625 -1.44408,10.76579 0.0225,-0.30289 2.66102,-0.523 6.33453,-0.69055 -0.70313,9.11599 -0.67572,18.98304 1.50941,24.30742 1.33537,3.25381 4.14641,3.78873 7.26271,5.64766 6.12666,3.65466 11.20936,-0.72258 15.692,-4.58483 0.31596,-0.27223 -0.0789,-1.53677 0.14174,-1.90661 2.6131,-4.38057 2.567,-3.92944 -0.11975,-7.04776 -1.81027,-2.10106 -3.63634,-4.60037 -4.00363,-5.25143 -0.29916,0.68641 -3.45447,3.28149 -3.52761,3.4041 -0.88466,1.48304 -3.90792,3.95322 -4.15821,4.16887 -1.27093,1.09503 -2.96894,-2.98128 -2.88955,-4.04911 0.2397,-3.2242 1.61112,-9.31851 2.60396,-15.0736 5.9439,-0.15372 11.08587,-0.29055 11.34517,-0.51396 1.34227,-1.1565 4.3857,0.1497 2.8313,-3.63779 -0.63339,-1.54334 0.10718,-4.14354 0.6463,-5.49348 -1.22176,0.72644 -4.53501,-0.69059 -6.04895,0.61383 -0.83279,0.71753 -3.89055,1.03927 -7.70573,1.06439 0.42882,-2.50526 1.72262,-5.89544 1.14471,-7.3036 -0.40369,-0.98364 -0.8234,-3.26578 0.23693,-3.18695 1.07794,0.0801 -2.03066,-0.78069 -2.50022,-0.8156 z m 14.87326,9.62793 c 0.26393,-0.15692 0.43654,-0.41317 0.4667,-0.81892 0.0166,-0.22328 -0.20523,0.16422 -0.4667,0.81892 z m -6.85136,21.19497 c 0.0427,-0.0981 0.0201,-0.16644 -0.0711,-0.17322 -0.0245,-0.002 0.0115,0.0676 0.0711,0.17322 z"
       id="path4186"
       inkscape:connector-curvature="0" />
    <path
       style="fill:#ffff00;stroke:#000000;stroke-width:0.43255734px;stroke-linecap:butt;stroke-linejoin:miter;stroke-opacity:1"
       d="m 339.41297,547.33542 c -1.77006,1.03879 -4.05563,0.55843 -6.05658,1.03268 -1.23591,-0.60994 -3.29828,0.0636 -6.58687,-0.58612 -2.92001,3.82603 -2.08758,2.43252 -1.53508,6.09845 -0.47168,10.92845 -0.3217,21.8681 0.13955,32.79482 0.17019,1.84376 0.0766,3.75966 0.64194,5.54023 1.8573,0.53298 3.8469,-0.25596 5.69374,-0.60007 2.12396,-0.93944 4.41981,-0.78712 6.62874,-0.15351 2.73658,0.68598 1.20291,-3.36608 1.33971,-4.7727 -0.65966,-5.78404 -2.06326,-11.47652 -2.40031,-17.29054 0.27647,-1.58573 1.59774,-2.94615 1.50717,-4.70292 0.059,-0.37665 0.11323,-0.8058 0.19537,-1.22806 -0.0414,-0.16263 -0.21239,-0.82336 -0.20932,-0.82336 0.0364,0 0.23129,-0.0829 0.47447,-0.20933 0.001,-0.004 -10e-4,-0.01 0,-0.0139 0.33379,-0.93942 0.92881,-1.72266 2.1212,-1.85605 0.39102,-0.0497 0.79681,-0.0789 1.20015,-0.11164 0.56716,-0.3784 1.05374,-0.74672 1.31179,-1.00478 1.45809,-1.45808 5.90136,-0.31368 9.30815,0.89314 0.33719,0.3587 0.63532,0.74696 0.90709,1.01873 0.31898,0.31898 1.5929,-0.31898 1.91187,0 0.75761,0.75761 1.61544,1.36339 2.51195,1.81418 1.27684,-0.51656 2.50508,-1.0956 3.22366,-1.81418 0.54364,-0.54364 1.35207,-3.58286 2.53985,-6.14031 -0.22829,-0.37821 -0.44662,-0.68385 -0.62798,-0.86522 -0.87629,-0.87629 -5.32599,-1.51621 -5.73561,-1.92583 -2.41256,-2.41256 -5.65102,-2.80179 -8.62434,-2.26075 -3.48152,-0.76675 -7.40193,0.16696 -10.15942,2.31657 -0.65092,0.594 -1.47866,1.31773 -0.8094,-0.0837 0.35893,-1.60678 1.67743,-3.53509 1.08851,-5.06575 z"
       id="path4191"
       inkscape:connector-curvature="0" />
    <path
       style="fill:#ffff00;stroke:#000000;stroke-width:0.4389427px;stroke-linecap:butt;stroke-linejoin:miter;stroke-opacity:1"
       d="m 388.18654,548.88774 c -1.32249,0.003 -2.50771,0.20694 -3.47485,0.67414 -4.28327,2.06912 -6.81463,2.36837 -10.84323,4.31447 -0.38214,0.18461 -5.10762,2.83291 -5.10762,2.46734 0,-0.39614 -3.80547,4.8994 -6.37754,9.86937 -2.76999,5.35242 -0.89405,15.77392 3.19575,19.72525 2.89769,2.79959 7.35253,5.25645 10.20128,8.00875 0.0493,0.0477 17.74114,1.3444 17.86272,1.22693 1.32163,-1.27688 5.33103,-1.65169 7.01948,-2.46734 1.63612,-0.79036 8.28942,-7.16262 8.28942,-8.62895 l 0,-4.2201 c -0.0763,0.27954 -0.70605,-1.32131 -1.26993,-1.32131 -2.6668,0 -4.39089,1.84714 -7.01949,1.84714 -0.34868,0 -1.62779,0.40459 -1.98164,0.32358 -0.45421,0.94036 -2.01658,3.53927 -2.48404,3.99089 -1.91969,1.8547 -11.04048,2.99226 -14.66696,1.24041 -4.55762,-2.20165 -10.27751,-8.22266 -7.2009,-14.89843 1.48304,-1.23936 3.3116,-2.01299 4.63314,-3.28979 0.11945,-0.1154 0.31455,-0.18241 0.5303,-0.2292 1.01606,0.16204 3.404,0.59272 4.57732,1.15952 1.09155,0.52729 10.68979,0 13.39703,0 1.79783,0 2.96707,-0.84115 3.83769,0 1.98726,1.91997 8.40214,-2.06495 8.93136,-3.08755 3.3026,-6.38156 -12.79178,-16.72254 -22.04929,-16.70512 z m 10.49435,31.81927 c 0.13331,-0.27601 0.18631,-0.43618 0.0698,-0.32358 -0.21164,0.20447 -0.199,0.294 -0.0698,0.32358 z m -8.2336,-24.16107 c 0.89728,-10e-4 1.61009,0.11291 1.92583,0.41796 0.802,0.77485 3.07527,1.12401 3.82373,1.84714 0.24131,0.23313 0.56603,0.90559 0.82336,1.41569 0.27916,-0.0103 0.44657,0.1046 0.44657,0.43144 0,0.43374 -0.18581,0.0854 -0.44657,-0.43144 -0.78821,0.029 -2.42196,1.05165 -3.37716,1.05165 -3.30204,0 -6.10975,0.62021 -9.5733,0.62021 l -3.1818,0 c 0.73647,-1.77884 1.14734,-2.96911 1.91187,-3.70776 0.56685,-0.54765 4.95564,-1.64093 7.64747,-1.64489 z"
       id="path4199"
       inkscape:connector-curvature="0" />
    <path
       style="fill:#ffff00;stroke:#000000;stroke-width:0.43496057px;stroke-linecap:butt;stroke-linejoin:miter;stroke-opacity:1"
       d="m 441.39789,548.63239 c -0.87349,0.0221 -1.71836,0.16638 -2.45612,0.51633 -1.5311,0.72627 -4.21847,-0.72627 -5.74956,0 -2.01995,0.95816 -3.77687,0.28889 -5.73561,1.21801 -6.75469,3.20406 -12.12424,6.57042 -12.85278,10.10152 -8.9e-4,0.004 8.9e-4,0.009 0,0.0132 -2.79899,3.17777 4.1419,2.88615 6.47524,2.88615 2.37351,0 4.87818,-0.3045 4.77269,-0.3045 -0.15417,0 0.60752,-1.47662 0.64194,-1.50927 0.15949,-0.15131 -0.15949,-0.74896 0,-0.90027 1.01235,-0.96041 2.24672,-1.52244 3.51672,-2.72728 1.02451,-0.97194 4.43122,-0.58955 5.09367,-1.21801 1.16287,-1.1032 3.70666,0.51688 5.70769,0.7414 2.35289,2.12441 5.75991,5.64333 3.8656,7.44044 -0.4702,0.44608 -18.27135,-0.8171 -22.95637,3.62755 -5.53219,5.24833 -9.15545,15.54208 -3.8377,20.58699 2.29926,2.18128 5.10929,3.62912 7.01949,5.44131 2.21477,2.10113 11.94645,-0.609 12.7551,-0.609 1.42936,0 4.25716,-1.49443 5.69373,-2.48897 -0.0868,1.16418 0.0678,2.42132 0.64195,3.03178 0.002,0.003 -0.002,0.0107 0,0.0132 -0.0145,0.0294 -0.008,0.0492 0.0418,0.053 0.006,4.3e-4 0.007,0 0.0139,0 0.73502,0.67764 2.41333,-0.36893 2.53986,-0.609 l 0,-0.053 c 0.79703,-0.28045 1.6416,-0.54281 2.55381,-0.54281 3.89746,0 2.55381,-3.38651 2.55381,-6.65932 0,-9.74614 6.22646,-31.54791 -5.10762,-36.92418 -1.23353,-0.58512 -3.26968,-1.17391 -5.19135,-1.12534 z m -0.19537,22.16246 c 0.47399,-0.0119 0.80245,0.0331 0.92104,0.14563 0,0.51332 1.196,1.67349 1.5909,2.42278 0.4285,0.81301 0.32097,6.69484 0.32097,7.86409 0,2.51002 -0.31953,2.68928 -0.32097,4.83231 -0.002,9e-4 0.002,0.0126 0,0.0132 -0.002,-0.002 -0.0113,0.003 -0.0139,0 -0.0568,-0.0597 -0.20734,-0.38582 -0.29306,-0.3045 -0.53618,0.50867 -2.15576,0.3045 -3.19575,0.3045 -0.37645,0 -2.52244,0.62911 -4.35404,1.27097 -0.72327,-0.86903 -3.29986,-0.52599 -4.25635,-0.9797 -1.00162,-0.47511 -3.08392,-1.06571 -4.46568,-1.54899 -0.83582,-2.38206 -2.87621,-7.51852 -0.96291,-9.33365 0.48014,-0.4555 2.422,-2.08608 3.34926,-3.11122 0.22322,0.009 0.43086,0.0258 0.58612,0.0397 0.0462,-0.13118 2.48341,-0.56929 3.40508,-0.56929 0.9675,0 5.63537,-0.99445 7.68934,-1.04589 z"
       id="path4213"
       inkscape:connector-curvature="0" />
    <path
       inkscape:connector-curvature="0"
       id="path4249"
       d="m 459.96672,550.83236 c -3.41759,14.76375 0.81124,33.2708 0.66981,43.39446 -0.002,0.12273 3.98996,-0.58227 4.47416,-0.57551 2.43318,0.034 4.43706,-0.57603 5.11204,-0.5666 0.8767,0.0122 1.91408,1.2848 2.54266,0.67354 0.63993,-0.62229 -0.61058,-1.96397 -0.60225,-2.56048 0.0439,-3.13858 -1.30413,-13.42551 -2.31987,-16.62083 -1.3537,-4.2585 4.59982,-15.32856 8.45299,-11.36621 7.45826,7.66959 3.07011,10.95526 6.7584,18.59689 1.17729,2.43921 -1.97566,9.61538 -0.1604,11.48205 1.03786,1.06729 11.51417,-2.13878 11.48206,0.16041 -0.009,0.68513 -1.82356,-6.47976 -1.75327,-11.50879 0.1003,-7.17983 -1.89702,-16.19134 5.37935,-19.70335 0.94494,-0.45608 4.17412,1.0571 4.44742,1.33816 0.94578,0.97256 2.93565,0.83139 3.79172,2.60504 1.69503,3.51184 0.53641,8.9876 1.75327,11.50878 1.50511,3.11841 1.64752,11.61162 1.10646,12.13777 -0.52816,0.51364 -0.0688,4.92612 -0.0535,3.82735 0.005,-0.37476 3.03238,-0.0368 3.18948,0.0446 1.83115,0.94779 5.09342,-1.2328 6.37891,0.0891 1.54066,1.58431 2.29567,-10.75816 1.46291,-13.37791 -0.53343,-1.67804 0.0641,-4.59164 0.0891,-6.37891 0.0834,-5.97171 -1.24364,-12.9259 -4.24248,-16.00968 -0.29652,-0.30491 -0.97928,0.28708 -1.2758,-0.0178 -1.85334,-1.90587 -5.09735,-4.53732 -8.2302,-4.58109 -2.39713,-0.0335 -9.44629,-2.7693 -12.76675,0.45967 -0.64261,0.62492 -3.00576,0.84188 -3.86299,2.4981 -0.27647,0.53415 -0.87429,1.68916 -1.29362,1.25796 -1.277,-1.3132 -2.2536,-2.96452 -3.76496,-4.51871 -2.67369,-2.74945 -11.81639,-2.35218 -14.68042,0.43293 -1.22727,1.19344 -4.1205,2.23329 -3.863,2.4981 0.77785,0.79989 0.0569,-6.41204 -0.53986,-7.02572 -0.0537,-0.0552 -6.95619,1.67219 -7.68144,1.80673 z"
       style="fill:#ffff00;stroke:#000000;stroke-width:0.4465678px;stroke-linecap:butt;stroke-linejoin:miter;stroke-opacity:1" />
    <path
       style="fill:#ffff00;fill-opacity:1;stroke:#ffffff;stroke-width:1px;stroke-linecap:butt;stroke-linejoin:miter;stroke-opacity:0"
       d="m 551.54329,513.95087 c -17.13322,15.00746 -21.49961,71.43443 -6.06092,86.87312 6.72824,6.72823 10.69438,15.74514 15.15229,20.20305 2.42921,2.42921 9.28061,5.05076 8.08122,5.05076 -1.07912,0 -1.19237,-18.18274 -1.01015,-18.18274 1.79225,0 -6.01982,-6.98888 -9.09137,-13.13199 -1.83949,-3.67897 -6.88131,-20.01328 -9.09138,-22.22335 -1.10323,-1.10324 -1.09829,-8.25749 -2.0203,-10.10152 -1.56557,-3.13115 2.88046,-22.07336 6.06091,-25.25382 3.12999,-3.12998 9.09138,-9.88834 9.09138,-7.07107 0,0.73013 1.42263,-5.23595 1.01015,-6.06091 -1.51807,-3.03615 1.73154,-15.44106 1.01015,-16.16244 -0.73943,-0.73944 -9.76464,4.71398 -13.13198,6.06091 z"
       id="path4251"
       inkscape:connector-curvature="0" />
    <path
       inkscape:connector-curvature="0"
       id="path4253"
       d="m 990.69725,621.96861 c 17.13325,-15.00746 21.49955,-71.43443 6.06092,-86.87312 -6.72824,-6.72823 -10.69438,-15.74514 -15.15229,-20.20305 -2.42921,-2.42921 -9.28061,-5.05076 -8.08122,-5.05076 1.07912,0 1.19237,18.18274 1.01015,18.18274 -1.79225,0 6.01982,6.98888 9.09137,13.13199 1.83949,3.67897 6.88131,20.01328 9.09138,22.22335 1.10323,1.10324 1.09829,8.25749 2.0203,10.10152 1.56557,3.13115 -2.88046,22.07336 -6.06091,25.25382 -3.12999,3.12998 -9.09138,9.88834 -9.09138,7.07107 0,-0.73013 -1.42263,5.23595 -1.01015,6.06091 1.51807,3.03615 -1.73154,15.44106 -1.01015,16.16244 0.73943,0.73944 9.76464,-4.71398 13.13198,-6.06091 z"
       style="fill:#ffff00;fill-opacity:1;stroke:#ffffff;stroke-width:1px;stroke-linecap:butt;stroke-linejoin:miter;stroke-opacity:0" />
    <g
       id="g3215"
       transform="translate(254.55844,-238.396)">
      <path
         inkscape:connector-curvature="0"
         id="path3170"
         d="m 490.24078,819.20052 c 0.22288,-3.65241 -34.65254,4.93481 -21.20576,18.23123 5.386,5.32581 17.02864,4.16592 24.52765,4.12377 10.12027,-0.0568 69.6972,0.89383 75.66584,3.83631 8.83188,4.35409 24.19484,-4.5397 33.02674,-0.18563 5.91806,2.91757 43.87648,2.77057 46.87667,-0.26351 0.93946,-0.95008 0.40657,-2.97978 1.0414,-4.26751 5.37023,-10.89309 -8.48785,-18.06427 -16.08248,-18.02159 -3.70301,0.0208 -10.57134,-0.43068 -13.86191,-2.05291 -6.4749,-3.19208 -36.53827,5.36025 -42.60316,2.37031 -5.04717,-2.48823 -75.82704,-3.83543 -87.38499,-3.77047 z"
         style="fill:none;stroke:#967676;stroke-width:3.72888398;stroke-linecap:butt;stroke-linejoin:miter;stroke-miterlimit:4;stroke-opacity:1;stroke-dasharray:none" />
      <path
         inkscape:connector-curvature="0"
         id="path3172"
         d="m 494.53222,824.50348 c -3.8804,0.004 -1.57223,-2.94226 -7.45763,0.0419 -12.87235,6.52688 4.79259,18.7248 9.66624,13.79604 1.64619,-1.66481 13.99598,-6.2902 7.38579,-12.82647 -2.91781,-2.8852 -4.73816,-2.25459 -9.5944,-1.01148 z"
         style="fill:#241c1c;stroke:#ffffff;stroke-width:0.74577683px;stroke-linecap:butt;stroke-linejoin:miter;stroke-opacity:0" />
      <path
         inkscape:connector-curvature="0"
         id="path3174"
         d="m 519.02995,823.30037 c -4.64683,-0.4918 -4.20726,-0.003 -6.38628,1.10129 -7.7521,3.93068 4.54013,15.89262 10.73163,13.79005 17.43764,-5.92167 11.94192,-14.9829 -4.34535,-14.89134 z"
         style="fill:#241c1c;stroke:#ffffff;stroke-width:0.74577683px;stroke-linecap:butt;stroke-linejoin:miter;stroke-opacity:0" />
      <path
         inkscape:connector-curvature="0"
         id="path3176"
         d="m 551.00328,825.25145 c -8.98695,0.18887 0.0799,-3.77995 -7.45764,0.0419 -14.61973,7.41287 1.44073,17.96674 7.54148,14.87338 4.11154,-2.08474 8.21494,-4.02207 10.61785,-6.45216 0.52971,-0.53569 -0.54766,-2.66046 -0.018,-3.19615 5.46255,-5.5243 -7.01144,-6.20701 -10.68373,-5.26699 z"
         style="fill:#241c1c;stroke:#ffffff;stroke-width:0.74577683px;stroke-linecap:butt;stroke-linejoin:miter;stroke-opacity:0" />
      <path
         inkscape:connector-curvature="0"
         id="path3178"
         d="m 580.83988,826.14916 c -3.66046,0.24018 -8.20844,-0.27025 -10.64182,2.19064 -6.30571,6.377 4.59801,16.90008 10.73165,13.79001 11.19214,-5.67492 16.1839,-16.07213 -0.0897,-15.98065 z"
         style="fill:#241c1c;stroke:#ffffff;stroke-width:0.74577683px;stroke-linecap:butt;stroke-linejoin:miter;stroke-opacity:0" />
      <path
         inkscape:connector-curvature="0"
         id="path3195"
         d="m 634.12077,827.9805 c -14.58468,-0.61468 11.8789,-1.1322 -5.33288,-1.03547 -4.77533,0.0268 -7.75812,12.64292 1.16119,17.04008 9.13806,4.50498 19.18304,-8.57733 12.70072,-14.98716 -2.03591,-2.01316 -5.74749,-0.33869 -8.52903,-1.01745 z"
         style="fill:#241c1c;stroke:#ffffff;stroke-width:0.74577683px;stroke-linecap:butt;stroke-linejoin:miter;stroke-opacity:0" />
      <path
         inkscape:connector-curvature="0"
         id="path3221"
         d="m 607.47434,825.99943 c -5.11853,-0.29249 -7.74595,0.62673 -9.56445,4.31542 -4.51046,9.1491 10.7327,14.8579 17.11192,11.62333 8.42453,-4.27162 9.23152,-19.39274 -7.54747,-15.93875 z"
         style="fill:#241c1c;stroke:#ffffff;stroke-width:0.74577683px;stroke-linecap:butt;stroke-linejoin:miter;stroke-opacity:0" />
      <path
         inkscape:connector-curvature="0"
         id="path3223-9"
         d="m 644.25574,730.65103 c -0.11369,0.0283 -0.22856,0.11915 -0.32285,0.20177 -1.22467,1.07318 1.12532,2.63139 1.29137,3.02664 2.64939,6.30457 0.20323,19.52964 -0.16141,25.06053 -0.31044,4.70865 -22.55719,-2.38338 -23.52706,-1.53349 -1.37334,1.20346 -6.22344,-0.41788 -10.29055,-0.68604 -4.87584,-0.32145 -18.11647,-5.95758 -24.89913,-3.10734 -6.65333,2.79588 -19.31761,3.15113 -26.71509,2.66344 -9.63163,-0.63501 -19.49336,-0.75615 -29.37854,-0.92817 0.23013,9.45961 0.2633,19.17275 -0.16143,27.64327 17.94618,-1.86466 35.94517,-5.62863 54.6005,-4.39871 8.07352,0.53227 54.70508,2.97921 58.71673,5.32689 3.64984,2.13597 -4.10256,24.83338 -3.10735,24.8991 2.35023,0.15496 13.35647,-14.4803 14.28572,-15.29459 5.2519,-4.60226 23.17563,-15.97648 23.28493,-17.6352 0.0721,-1.09547 -2.10135,-0.82886 -2.82483,-1.65456 -4.29503,-4.90126 -8.95303,-13.43352 -13.51902,-18.64406 -1.21781,-1.3897 -13.74888,-25.81755 -17.27199,-24.93948 z"
         style="fill:#0098dc;fill-opacity:1;stroke:#ffffff;stroke-width:1.03105175px;stroke-linecap:butt;stroke-linejoin:miter;stroke-opacity:0" />
      <path
         inkscape:connector-curvature="0"
         id="path3157"
         d="m 372.64188,747.41355 c 3.05567,2.17769 -1.96506,29.48544 -1.88522,43.69249 0.0641,11.41209 3.41918,79.66187 5.78802,82.00422 1.39912,1.38347 7.41335,-0.55367 8.51705,-1.11328 3.18311,-1.61399 11.05773,0.0721 13.85591,0.98751 4.67979,1.53078 11.77613,-1.13159 17.04006,-1.16118 7.10015,-0.0399 14.5057,2.04928 22.38493,2.005 4.32028,-0.0243 43.4873,0.62283 44.75789,1.87922 0.65373,0.64641 19.17351,-0.69536 19.17681,-0.10788 0.007,1.23991 1.01933,-8.19633 0.98154,-14.92129 -0.0378,-6.73218 -1.48136,-31.47601 0.86176,-36.22885 0.98318,-1.9943 -1.02509,-5.46336 -0.0418,-7.45766 4.88817,-9.91532 0.89708,-29.94252 0.83181,-41.55575 -0.0444,-7.8814 3.10565,-16.11572 3.06436,-23.45629 -0.0143,-2.55805 -1.49442,-2.35626 -0.0301,-5.3269 0.66253,-1.34389 0.83226,-15.06889 -0.0899,-15.98068 -4.07747,-4.03191 -16.31844,3.6418 -21.30158,1.18515 -4.91531,-2.42321 -46.79684,-2.448 -52.20355,0.29346 -3.92353,1.98939 -36.80987,-2.98933 -42.63312,-2.95659 -2.65283,0.0149 -18.58121,-0.49455 -20.23619,1.17915 -3.21366,3.24997 0.46304,13.64862 1.16119,17.04007 z"
         style="fill:#ac9393;fill-opacity:1;stroke:#ffffff;stroke-width:0.74577683px;stroke-linecap:butt;stroke-linejoin:miter;stroke-opacity:0" />
    </g>
    <path
       style="fill:#ffff00;fill-opacity:1;stroke:#ffffff;stroke-width:0.80771321px;stroke-linecap:butt;stroke-linejoin:miter;stroke-opacity:0"
       d="m 299.85715,755.76942 c -0.91554,-0.0162 -1.41612,1.36681 -1.64378,1.58655 -0.97626,0.94226 -14.89871,0.56908 -17.15074,0.52918 1.28291,3.76701 13.54029,14.64493 22.56812,25.6954 -3.18585,-0.0494 -25.77867,-1.52705 -29.56694,0.2839 -2.41416,1.15408 -6.54498,-1.31284 -8.95915,-0.15875 -4.58418,2.19143 -20.74858,0.44017 -26.13468,0.34472 -8.19792,-0.14526 -19.41694,-2.83382 -26.92796,-0.47716 -1.01402,0.31816 -1.67331,-1.58487 -2.43368,-0.85097 -2.25145,2.17305 -11.55534,1.43617 -15.52464,1.36583 1.14352,1.46041 -4.3789,9.39782 0.48624,19.57349 0.32013,0.33168 12.77959,-2.38679 14.72043,-2.99575 2.46182,-0.77242 5.715,0.91732 8.17682,0.14489 13.17317,-4.13321 43.3655,-3.296 55.54308,-3.08021 l 31.79872,0.56347 c 3.74603,0.0664 7.71931,0.62315 10.45684,1.11937 0.97093,0.87079 1.92335,1.71004 2.55827,2.36786 3.16177,3.27585 2.65276,7.14205 6.3524,9.07455 0.86919,0.45401 2.43631,0.70334 2.41893,1.68379 -0.0398,2.24762 -6.36538,5.63228 -7.50319,8.85426 -1.47077,4.16485 -3.31514,7.85917 -5.41126,11.89548 0.3474,-1.07087 0.43306,-2.12136 -0.45107,-3.03738 -0.20716,-0.21464 -16.1224,1.35523 -19.61305,1.29338 -8.35796,-0.14811 -16.28136,0.51933 -24.49426,0.37379 -2.12113,-0.0376 -6.40488,0.64707 -8.18065,1.49597 -3.51481,1.68023 -12.35376,-0.21891 -16.30315,-0.2889 -16.43986,-0.29131 -35.01476,-0.58946 -49.8252,2.37369 0.57433,3.16197 1.18177,14.19317 3.81383,15.56802 4.03645,2.10843 17.57823,-0.49636 24.46903,-0.37425 7.66574,0.13584 28.87586,2.61557 33.50773,-1.85501 1.51016,-1.45756 9.9672,-0.70964 12.24382,-1.42395 3.95942,-1.24231 24.48774,-0.68587 36.76173,-0.28264 -1.37285,3.18072 -2.89567,6.39688 -4.27508,9.03768 -4.62103,8.84663 -8.97546,18.91843 -10.45241,21.42451 2.87792,-0.89188 16.64536,0.65312 17.42074,-0.0952 0.62102,-0.59939 9.21992,-12.92453 10.06657,-15.32204 1.25533,-3.55477 1.97438,-8.015 4.29099,-11.35995 3.51522,-5.07563 6.87899,-8.46381 9.19037,-12.88881 1.69405,-3.24316 4.52503,-4.34264 6.65178,-6.39535 3.19837,-3.08698 5.2099,-8.25319 8.35415,-11.28794 3.03862,-2.93281 5.53044,-7.87512 5.82325,-8.07619 -0.21459,-0.10717 -2.68912,-3.13886 -3.15836,-4.12041 -1.26602,-2.64835 -4.08893,-5.05887 -7.19954,-8.28172 -1.80531,-1.87045 -2.85246,-1.48998 -4.85261,-2.53475 -2.44335,-1.27628 -19.75665,-17.66806 -20.85211,-19.95962 -0.6815,-1.42559 -3.5771,-2.88374 -4.82354,-4.17517 -1.57683,-1.63371 -1.44935,-4.81698 -3.14021,-6.56885 l -8.03236,-8.29647 c -0.59728,-0.61883 0.0957,-2.44707 -0.76422,-2.46231 z m -8.9749,121.82481 c -0.33371,0.10342 -0.534,0.21766 -0.53713,0.3944 -0.006,0.36199 0.19032,0.19407 0.53713,-0.3944 z"
       id="path4636"
       inkscape:connector-curvature="0" />
  </g>
</svg>
