<?xml version="1.0" encoding="UTF-8" standalone="no"?>
<!-- Created with Inkscape (http://www.inkscape.org/) -->

<svg
   xmlns:dc="http://purl.org/dc/elements/1.1/"
   xmlns:cc="http://creativecommons.org/ns#"
   xmlns:rdf="http://www.w3.org/1999/02/22-rdf-syntax-ns#"
   xmlns:svg="http://www.w3.org/2000/svg"
   xmlns="http://www.w3.org/2000/svg"
   xmlns:sodipodi="http://sodipodi.sourceforge.net/DTD/sodipodi-0.dtd"
   xmlns:inkscape="http://www.inkscape.org/namespaces/inkscape"
   width="810"
   height="450"
   id="svg2"
   sodipodi:version="0.32"
   inkscape:version="0.48.2 r9819"
   version="1.0"
   sodipodi:docname="exterminate.svg"
   inkscape:output_extension="org.inkscape.output.svg.inkscape"
   inkscape:export-filename="/home/substack/media/vector/exterminate.png"
   inkscape:export-xdpi="130.41406"
   inkscape:export-ydpi="130.41406">
  <defs
     id="defs4">
    <inkscape:perspective
       sodipodi:type="inkscape:persp3d"
       inkscape:vp_x="0 : 526.18109 : 1"
       inkscape:vp_y="0 : 1000 : 0"
       inkscape:vp_z="744.09448 : 526.18109 : 1"
       inkscape:persp3d-origin="372.04724 : 350.78739 : 1"
       id="perspective10" />
    <inkscape:perspective
       id="perspective4054"
       inkscape:persp3d-origin="372.04724 : 350.78739 : 1"
       inkscape:vp_z="744.09448 : 526.18109 : 1"
       inkscape:vp_y="0 : 1000 : 0"
       inkscape:vp_x="0 : 526.18109 : 1"
       sodipodi:type="inkscape:persp3d" />
    <inkscape:perspective
       id="perspective4528"
       inkscape:persp3d-origin="372.04724 : 350.78739 : 1"
       inkscape:vp_z="744.09448 : 526.18109 : 1"
       inkscape:vp_y="0 : 1000 : 0"
       inkscape:vp_x="0 : 526.18109 : 1"
       sodipodi:type="inkscape:persp3d" />
  </defs>
  <sodipodi:namedview
     id="base"
     pagecolor="#ffffff"
     bordercolor="#666666"
     borderopacity="1.0"
     gridtolerance="10000"
     guidetolerance="10"
     objecttolerance="10"
     inkscape:pageopacity="0.0"
     inkscape:pageshadow="2"
     inkscape:zoom="0.70710678"
     inkscape:cx="460.65306"
     inkscape:cy="208.6599"
     inkscape:document-units="px"
     inkscape:current-layer="layer1"
     showgrid="false"
     units="in"
     inkscape:window-width="1364"
     inkscape:window-height="766"
     inkscape:window-x="0"
     inkscape:window-y="0"
     inkscape:window-maximized="0" />
  <metadata
     id="metadata7">
    <rdf:RDF>
      <cc:Work
         rdf:about="">
        <dc:format>image/svg+xml</dc:format>
        <dc:type
           rdf:resource="http://purl.org/dc/dcmitype/StillImage" />
        <dc:title></dc:title>
      </cc:Work>
    </rdf:RDF>
  </metadata>
  <g
     inkscape:label="Layer 1"
     inkscape:groupmode="layer"
     id="layer1">
    <path
       style="fill:#2d2e1a;fill-opacity:1;stroke:#ffffff;stroke-width:1px;stroke-linecap:butt;stroke-linejoin:miter;stroke-opacity:0"
       d="m 353.95414,264.01906 c -3.40307,0.35028 -7.53029,7.56058 -9.9375,12.375 -0.14903,0.29805 3.57551,6.07551 3.875,6.375 0.40745,0.40745 0.45587,1.59923 0.71875,2.125 1.04914,2.09829 2.21744,4.68618 3.53125,6 0.69555,0.69555 0.21409,2.33909 1.0625,3.1875 1.14154,1.14153 3.20184,1.45184 4.59375,2.84375 0.3837,0.3837 1.94739,0.0831 2.46875,0.34375 1.13897,0.56948 3.69987,1.75 4.59375,1.75 2.84037,0 12.92596,3.05097 14.5,4.625 0.66278,0.66279 7.04757,1.19566 8.84375,2.09375 2.87662,1.43831 8.69331,-0.99152 10.96875,-1.75 2.23272,-0.74424 4.55354,-0.68451 6.71875,-1.40625 7.67226,-2.55742 15.09216,-4.69738 23.3125,-7.4375 5.4774,-1.8258 8.81403,-3.15702 13.8125,-5.65625 1.41219,-0.7061 2.73441,-1.97397 4.21875,-2.46875 5.86606,-1.95535 18.03296,-4.59546 20.875,-7.4375 0.78855,-0.78855 0.33513,-3.16893 -0.46875,-5.5625 -0.0539,0.0319 -0.14183,0.0144 -0.25,-0.0937 -0.72546,-0.72546 -4.67272,-3.72043 -4.9375,-4.25 -0.21141,-0.42282 -0.0891,-1.7125 0.1875,-3.34375 -0.063,-0.0588 -0.1291,-0.1291 -0.1875,-0.1875 -1.24429,-1.24428 -6.4543,0.71875 -7.78125,0.71875 l -100.0625,-2.84375 c -0.21972,-0.0406 -0.42938,-0.0234 -0.65625,0 z"
       id="path6514"
       inkscape:connector-curvature="0" />
    <path
       style="fill:#958029;fill-opacity:1;stroke:#ffffff;stroke-width:1px;stroke-linecap:butt;stroke-linejoin:miter;stroke-opacity:0"
       d="m 434.36039,197.98781 c 1.19617,-0.24116 6.34776,-3.15224 7,-2.5 0.90448,0.90448 1.1161,6.73219 2,8.5 1.77365,3.5473 2.73388,7.46776 4.5,11 1.25338,2.50676 0.72516,5.95033 2,8.5 0.73196,1.46392 -0.0713,5.9287 1,7 2.99739,2.99739 3.06197,13.12394 5,17 1.15376,2.30751 4,6.73805 4,9.5 0,1.97656 5.3162,11.6838 3.5,13.5 -0.75658,0.75658 -7.70785,5.39608 -9.5,4.5 -1.91519,-0.95759 -4.78563,-4.71437 -5.5,-4 -2.54846,-1.33361 -5.15108,0 -7,0"
       id="path6458"
       inkscape:connector-curvature="0" />
    <path
       style="fill:#88762b;fill-opacity:1;stroke:#ffffff;stroke-width:1px;stroke-linecap:butt;stroke-linejoin:miter;stroke-opacity:0"
       d="m 421.36039,200.48781 c 1.86155,-0.11689 1.84664,-0.42332 3,-1 2.44535,-1.22268 6.04535,-0.27267 8.5,-1.5 0.41587,-0.20793 4.53103,-1.56206 4,-0.5 -2.65285,5.30571 5.45281,45.95281 9,49.5 0.48124,0.48124 3.01725,13.51725 4.5,15 1.1344,1.1344 4.17344,13.5 2.5,13.5 -2.52604,0 -18.85975,5.64025 -19,5.5 -1.17531,-1.17531 -2.06527,-2.13054 -3,-4"
       id="path6443"
       inkscape:connector-curvature="0" />
    <path
       style="fill:#958029;fill-opacity:1;stroke:#ffffff;stroke-width:1px;stroke-linecap:butt;stroke-linejoin:miter;stroke-opacity:0"
       d="m 409.86039,200.48781 c -0.66142,-0.50255 6.79721,0.6014 10,-1 0.93333,-0.46667 2.56667,0.46667 3.5,0 0.66667,-0.33333 1.25464,-1 2,-1 0.5,0 0,1 0,1.5 0,1.88438 0.5,2.39001 0.5,4 0,2.9857 -0.29847,19.40306 0.5,21 0.88054,1.76108 1.04285,11.54285 1.5,12 2.34556,2.34556 1.986,23.486 6,27.5 1.62334,1.62334 0.065,6.06499 1.5,7.5 0.19544,0.19544 2.00561,8.48877 2,8.5 -0.74785,1.49571 -4.6859,0.84295 -6,1.5 -1.52586,0.76293 -2.94518,1.72259 -4.5,2.5 -1.51922,0.75961 -6.41,-0.09 -7.5,1 -0.12335,0.12335 -1.87314,1.12686 -2,1 -0.80016,-0.80016 -1.7308,-2.7308 -3,-4 -1.48421,-1.48421 -2.5,-2.69605 -2.5,-3.5"
       id="path6441"
       inkscape:connector-curvature="0" />
    <path
       style="fill:#a68d24;fill-opacity:1;stroke:#ffffff;stroke-width:1px;stroke-linecap:butt;stroke-linejoin:miter;stroke-opacity:0"
       d="m 396.86039,201.48781 c 4.82882,-1.24571 9.97355,-3 15,-3 0.66667,0 0,1.33333 0,2 0,1.31801 0.56074,4.37851 0,5.5 -0.92228,1.84456 0.36094,5.58283 1,7.5 1.40164,4.20492 0,14.62664 0,19.5 0,15.68094 2.5,31.10392 2.5,47 0,1.14416 1.56241,5.93759 0.5,7 -1.99559,1.99559 -9.60575,0.30287 -12,1.5 -1.17017,0.58508 -14.05592,3.94408 -15.5,2.5 -1.26024,-1.26024 -2.5,-5.19332 -2.5,-5.5"
       id="path6439"
       inkscape:connector-curvature="0" />
    <path
       style="fill:#d4b01d;fill-opacity:1;stroke:#ffffff;stroke-width:1px;stroke-linecap:butt;stroke-linejoin:miter;stroke-opacity:0"
       d="m 379.36039,199.48781 c -1.41313,2.1687 -10.98979,-3.51021 -11,-3.5 -0.58333,0.58333 0.0833,2.41667 -0.5,3 -4.6749,4.6749 -3.91661,30.91661 -8,35 -1.23299,1.23299 -0.3886,4.8886 -1.5,6 -0.76801,0.76801 -0.33181,7.83181 -2,9.5 -0.5138,0.5138 -1.36983,9.36983 -3,11 -1.25191,1.25191 -1.65694,16.07847 6.5,12"
       id="path6512"
       inkscape:connector-curvature="0" />
    <path
       style="fill:#b1951d;fill-opacity:1;stroke:#ffffff;stroke-width:1px;stroke-linecap:butt;stroke-linejoin:miter;stroke-opacity:0"
       d="m 387.36039,201.98781 c -3.31539,3.3749 -5.23519,22.47038 -10,32 -1.65471,3.30942 -1.32136,7.64272 -3,11 -1.50997,3.01993 -0.95537,7.41073 -2.5,10.5 -1.69692,3.39384 -6.5,14.09475 -6.5,17.5 0,1.47051 -3.79304,11.70696 -3,12.5 1.08333,1.08333 4.91667,-0.58333 6,0.5 1.82447,1.82447 7.30176,2.5 9.5,2.5 3.90866,1.01909 6.19024,2.5 10.5,2.5 1.91953,-7.53716 0.0464,-15.63928 2.5,-23 1.12696,-3.38087 -1.08756,-7.82489 0.5,-11 0.83791,-1.67582 -0.36689,-4.26621 0.5,-6 1.38717,-2.77435 -0.18806,-9.12387 1.5,-12.5 1.05836,-2.11671 -0.0802,-5.3395 1,-7.5 1.44578,-2.89157 0.45206,-13.40412 2,-16.5 0.88844,-1.77688 2.64403,-12.35597 2,-13 -0.69354,-0.69354 -3.36353,0.86353 -3.5,1 -0.48591,0.48591 -1.31282,-0.5 -2,-0.5 -1.83333,0 -3.66667,0 -5.5,0 z"
       id="path6385"
       inkscape:connector-curvature="0" />
    <path
       style="fill:#88762b;fill-opacity:1;stroke:#ffffff;stroke-width:1px;stroke-linecap:butt;stroke-linejoin:miter;stroke-opacity:0"
       d="m 428.08216,133.14732 c -0.67684,2.34902 1.05426,14.13048 0.29344,15.34728 -0.32638,0.52199 -1.47606,4.32034 -0.9727,4.92989 0.60832,0.73667 1.33179,-3.42941 1.3992,-4.13579 0.0908,-0.95109 1.44025,-3.71908 0.9727,-4.92989 -0.27079,-0.70126 0.22825,-3.05512 -0.16526,-3.53167 -0.71296,-0.86338 -1.03022,-5.9852 -1.52738,-7.67982 z"
       id="path5273"
       inkscape:connector-curvature="0" />
    <path
       inkscape:connector-curvature="0"
       style="fill:#2d2e1a;fill-opacity:1;fill-rule:evenodd;stroke:#ffffff;stroke-width:1.8472873;stroke-linecap:butt;stroke-linejoin:miter;stroke-miterlimit:4;stroke-opacity:0;stroke-dasharray:none;stroke-dashoffset:0;marker:none;visibility:visible;display:inline;overflow:visible;enable-background:accumulate"
       d="m 375.33599,157.65611 c 0,3.97274 -0.99578,-7.90194 -1.95933,-11.75606 -0.74916,-2.99641 -0.65311,-5.47345 -0.65311,-8.4905 0,-4.1897 0.4392,-4.5718 4.57176,-4.5718 3.04784,0 6.09577,0 9.14361,0 2.86007,0 7.08638,-0.79192 9.14361,-1.30623 2.66675,-0.66668 6.38164,0 9.14361,0 3.67454,0 6.38072,0.85401 9.79672,0 2.66675,-0.66668 6.38164,0 9.14361,0 3.51622,0 3.70012,1.73829 4.57176,5.22491 0.71204,2.84802 0,6.8437 0,9.79673 0,3.61741 -0.16514,7.17675 0.65311,10.44983"
       id="path4578" />
    <path
       style="fill:#bfa01f;fill-opacity:1;stroke:#ffffff;stroke-width:1px;stroke-linecap:butt;stroke-linejoin:miter;stroke-opacity:0"
       d="m 368.77847,281.5745 c 0.28297,-0.31413 -2.25646,1.84877 -4.89744,4.61141 -0.38771,0.40557 -3.12742,-4.48222 -3.62291,-5.41983 -1.22618,-2.32025 -7.68618,-9.35572 -5.75746,-11.37328 2.28299,-2.38817 2.78266,-19.28353 5.50328,-22.12948 0.38999,-0.40796 -0.30668,-1.96903 -0.0563,-2.49937 1.96915,-4.17042 11.84474,-29.24426 11.76529,-32.77313 -0.0499,-2.21621 2.62152,-8.69433 3.75139,-11.08725 0.40093,-0.84912 0.93142,-5.52236 1.37582,-5.53237 1.94233,-0.0437 12.59062,3.47212 13.08674,3.70637"
       id="path6486"
       inkscape:connector-curvature="0" />
    <path
       inkscape:connector-curvature="0"
       style="fill:#b1951d;fill-opacity:1;fill-rule:evenodd;stroke:#ffffff;stroke-width:1.8472873;stroke-linecap:butt;stroke-linejoin:miter;stroke-miterlimit:4;stroke-opacity:0;stroke-dasharray:none;stroke-dashoffset:0;marker:none;visibility:visible;display:inline;overflow:visible;enable-background:accumulate"
       d="m 373.37666,199.30234 c -4.00732,1.00183 7.62542,3.91868 11.75605,3.91868 3.30895,0 6.33859,1.30623 9.79672,1.30623 3.91865,0 7.83739,0 11.75604,0 4.0015,0 7.57369,-1.30623 11.75604,-1.30623 3.33722,0 6.68885,-0.0394 9.14361,-0.65311 2.6189,-0.65472 4.96071,-1.30623 7.8374,-1.30623 2.25628,0 5.28906,-2.64453 6.53118,-3.26558 1.2362,-0.61809 -1.94206,-7.76804 -1.95933,-7.83737 -0.68987,-2.75944 -0.82934,-5.57729 -1.95942,-7.83738 -1.26751,-2.5352 -0.74131,-6.31941 -1.30621,-9.1436 -0.65164,-3.25837 -1.20416,-6.98021 -2.61244,-9.79673 -1.32219,-2.64445 -1.67817,-5.31562 -2.61243,-7.18426 -1.42675,-2.85353 -2.29609,-2.61246 -6.53118,-2.61246 -3.90932,0 -5.78506,-0.46658 -9.14361,-1.30622 -3.16191,-0.79049 -5.66517,-0.65312 -9.14361,-0.65312 -3.33712,0 -6.68875,0.0394 -9.14361,0.65312 -3.28817,0.82203 -6.40861,1.95934 -9.79672,1.95934 -2.84639,0 -7.02348,2.08244 -9.14361,2.61246 -3.38903,0.84726 -4.92958,0.50544 -7.83739,1.95935 -1.88571,0.94286 -2.61244,6.00876 -2.61244,8.49049 0,2.9293 -0.16644,6.54402 -0.65311,8.49048 -0.67823,2.71315 0.65311,6.15918 0.65311,9.14361 0,3.04787 0,6.09574 0,9.1436 0,4.8329 0.22482,4.2249 5.22496,5.22493 z"
       id="path4576" />
    <path
       inkscape:connector-curvature="0"
       style="fill:#eadddd;fill-opacity:1;fill-rule:evenodd;stroke:#ffffff;stroke-width:1.8472873;stroke-linecap:butt;stroke-linejoin:miter;stroke-miterlimit:4;stroke-opacity:0;stroke-dasharray:none;stroke-dashoffset:0;marker:none;visibility:visible;display:inline;overflow:visible;enable-background:accumulate"
       d="m 381.21406,117.00988 c -1.24683,-0.62341 -2.17712,-1.74163 -3.26564,-2.61245 -2.55701,-2.04564 -4.45686,-4.63626 -5.87797,-6.53115 -2.36324,-3.15092 5.02111,-2.3878 5.87797,-1.95935 2.8403,1.42014 4.52151,2.4366 7.8374,3.26557 4.64186,1.16046 1.51902,4.14619 0.6531,5.87804 -1.02958,2.05918 -3.35504,1.95934 -5.22486,1.95934 z"
       id="path4615" />
    <path
       style="fill:#ffffff;stroke:#ffffff;stroke-width:1px;stroke-linecap:butt;stroke-linejoin:miter;stroke-opacity:0"
       d="m 375.51664,106.39406 c -0.61004,0.0265 -1.71331,0.64362 -2.6875,1.25 1.4196,1.89323 3.3263,4.46101 5.875,6.5 0.43649,0.3492 0.83378,0.7441 1.25,1.125 0.53659,-0.57212 1.09106,-1.15088 1.40625,-1.78125 0.38466,-0.76932 1.12376,-0.62376 1.5,-1 0.39726,-0.39726 -2.34409,-1.84409 -2.75,-2.25 -0.68839,-0.68839 -2.03275,-1.28275 -2.75,-2 -0.62579,-0.62579 -1.03731,-1.28731 -1.5,-1.75 -0.0786,-0.0786 -0.18966,-0.10043 -0.34375,-0.0937 z"
       id="path6116"
       inkscape:connector-curvature="0" />
    <path
       inkscape:connector-curvature="0"
       style="fill:#d4b01d;fill-opacity:1;fill-rule:evenodd;stroke:#ffffff;stroke-width:1.8472873;stroke-linecap:butt;stroke-linejoin:miter;stroke-miterlimit:4;stroke-opacity:0;stroke-dasharray:none;stroke-dashoffset:0;marker:none;visibility:visible;display:inline;overflow:visible;enable-background:accumulate"
       d="m 368.80481,135.29709 c 1.08852,-0.4354 2.17703,-0.87082 3.26564,-1.30622 2.23143,-0.8926 6.70805,0 9.14361,0 3.04784,0 6.09567,0 9.14351,0 3.04794,0 6.09578,0 9.14361,0 2.98485,0 5.78829,-0.65312 7.8374,-0.65312 3.02604,0 6.40473,-0.13168 8.4905,-0.65311 2.7278,-0.68195 6.72071,0.0474 9.14361,0.65311 2.86764,0.7169 5.93321,0.65312 9.14361,0.65312 3.13891,0 0.2541,-5.51473 0,-6.53115 -0.63953,-2.55828 -2.56754,-5.83311 -4.57176,-7.83738 -2.06194,-2.06186 -2.9697,-4.27588 -4.57185,-5.87803 -1.6935,-1.69351 -4.66929,-2.98778 -6.53118,-3.91869 -2.44848,-1.22424 -4.87526,-2.11111 -7.18419,-3.26558 -2.19707,-1.0985 -5.69759,-0.65311 -8.4905,-0.65311 -2.90911,0 -5.72465,1.30623 -8.4905,1.30623 -2.75542,0 -6.01496,1.37471 -8.4905,2.61246 -2.53458,1.26729 -3.73762,2.84846 -5.87807,3.91869 -1.29514,0.64758 -3.58873,3.91418 -4.57176,5.22491 -1.84027,2.45364 -2.27835,3.90364 -3.91865,7.18427 -1.72232,3.44454 -2.61253,4.02961 -2.61253,9.1436 z"
       id="path4609" />
    <path
       inkscape:connector-curvature="0"
       style="fill:#eadddd;fill-opacity:1;fill-rule:evenodd;stroke:#ffffff;stroke-width:1.8472873;stroke-linecap:butt;stroke-linejoin:miter;stroke-miterlimit:4;stroke-opacity:0;stroke-dasharray:none;stroke-dashoffset:0;marker:none;visibility:visible;display:inline;overflow:visible;enable-background:accumulate"
       d="m 413.86976,113.09119 c -2.75579,5.51157 4.16147,3.91869 7.18428,3.91869 2.41662,0 4.87287,-3.88473 5.87798,-5.22491 1.66597,-2.22131 3.35014,-3.43468 4.57185,-5.87804 0.45822,-0.91654 -5.23429,-4.24993 -7.18429,-5.22492 -1.66865,-0.834303 -3.98035,4.04208 -5.22496,6.53115 -1.03928,2.0787 -3.04959,3.70272 -5.22486,5.87803 z"
       id="path4617" />
    <path
       inkscape:connector-curvature="0"
       style="fill:#aaa46f;fill-opacity:1;fill-rule:evenodd;stroke:#ffffff;stroke-width:1.8472873;stroke-linecap:butt;stroke-linejoin:miter;stroke-miterlimit:4;stroke-opacity:0;stroke-dasharray:none;stroke-dashoffset:0;marker:none;visibility:visible;display:inline;overflow:visible;enable-background:accumulate"
       d="m 392.35612,114.39743 c -0.83544,1.67102 -3.8818,6.38372 -4.57176,9.1436 -1.15576,4.62311 2.59784,3.91869 5.87806,3.91869 2.99631,0 6.55446,-0.65312 9.79672,-0.65312 4.43008,0 4.42924,0.73621 3.26555,-3.91869 -0.69809,-2.79241 -0.75711,-6.29409 -1.30622,-8.49048 -0.43458,-1.7381 -6.78204,-0.26384 -7.83739,0 -0.94277,0.23568 -5.05067,0 -5.22496,0 z"
       id="path4611" />
    <path
       inkscape:connector-curvature="0"
       style="fill:#fffdc9;fill-opacity:1;fill-rule:evenodd;stroke:#ffffff;stroke-width:1.8472873;stroke-linecap:butt;stroke-linejoin:miter;stroke-miterlimit:4;stroke-opacity:0;stroke-dasharray:none;stroke-dashoffset:0;marker:none;visibility:visible;display:inline;overflow:visible;enable-background:accumulate"
       d="m 394.27632,117.663 c -0.21771,-1.08853 -0.43541,-2.17705 -0.65311,-3.26557 -0.55853,-2.79252 2.74969,-4.96701 4.57176,-5.87804 1.3608,-0.68038 1.5423,2.88001 5.22496,1.95935 1.88811,-0.47204 2.01308,6.96943 1.95932,7.18426 -0.44889,1.79559 -3.34913,3.34918 -4.57176,4.5718 -0.75692,0.75685 -4.83001,-2.87066 -6.53117,-4.5718 z"
       id="path4685" />
    <path
       inkscape:connector-curvature="0"
       style="fill:#2d2e1a;fill-opacity:1;fill-rule:evenodd;stroke:#ffffff;stroke-width:1.8472873;stroke-linecap:butt;stroke-linejoin:miter;stroke-miterlimit:4;stroke-opacity:0;stroke-dasharray:none;stroke-dashoffset:0;marker:none;visibility:visible;display:inline;overflow:visible;enable-background:accumulate"
       d="m 394.92943,113.09119 c -1.2315,0.30789 -2.17703,1.30624 -3.26555,1.95935 -2.99657,1.79792 1.3282,5.24689 1.95933,5.87803 2.52108,2.5211 6.02326,-0.72575 7.18428,-1.30623 3.65311,-1.82659 -1.3052,-6.20407 -1.95941,-6.53115 -1.16832,-0.58416 -2.61244,0 -3.91865,0 z"
       id="path4613" />
    <path
       inkscape:connector-curvature="0"
       style="fill:none;stroke:#ffffff;stroke-width:1.8472873;stroke-linecap:butt;stroke-linejoin:miter;stroke-miterlimit:4;stroke-opacity:0;stroke-dasharray:none;stroke-dashoffset:0;marker:none;visibility:visible;display:inline;overflow:visible;enable-background:accumulate"
       d="m 370.11103,164.03414 c -3.27275,0 6.86941,-0.81053 9.79672,0.65312 2.9273,1.46365 -0.65311,6.5239 -0.65311,9.79672 0,3.26557 0,6.53115 0,9.79672 0,2.62406 -0.65311,6.10249 -0.65311,9.14361 0,2.29638 -6.59408,0.6531 -8.4905,0.6531 -2.86219,0 -1.24701,-4.33512 -1.95933,-7.18425 -0.78482,-3.13942 -1.31268,-6.55715 -1.95932,-9.14361 -0.69089,-2.76352 1.4624,-5.19652 1.95932,-7.18426 0.65662,-2.62623 0.59169,-3.11208 1.95933,-6.53115 z"
       id="path4683" />
    <path
       style="fill:#aaa46f;fill-opacity:1;fill-rule:evenodd;stroke:#ffffff;stroke-width:1.8472873;stroke-linecap:butt;stroke-linejoin:miter;stroke-miterlimit:4;stroke-opacity:0;stroke-dasharray:none;stroke-dashoffset:0;marker:none;visibility:visible;display:inline;overflow:visible;enable-background:accumulate"
       d="m 375.23539,176.33156 c -0.16566,0.0198 -0.36354,0.0753 -0.5625,0.125 -2.38787,0.59696 -7.10785,2.66172 -9.625,3.09375 -2.1e-4,0.0342 0,0.13029 0,0.15625 0,1.75173 0.63229,5.91564 0.1875,7.25 -0.40502,1.21508 -0.43423,2.87966 -0.40625,4.40625 0.48482,-0.30113 1.14667,-0.5625 2.03125,-0.5625 1.42841,0 8.61773,0.35835 9.125,-0.65625 0.9483,-1.89666 2.10527,-5.29789 1.3125,-8.46875 -0.66632,-2.66531 0.42235,-5.63999 -2.0625,-5.34375 z"
       id="path4619"
       inkscape:connector-curvature="0" />
    <path
       style="fill:#d9d19b;fill-opacity:1;stroke:#ffffff;stroke-width:1px;stroke-linecap:butt;stroke-linejoin:miter;stroke-opacity:0"
       d="m 338.3506,204.45717 c 0.55842,-1.22664 6.7886,-4.03079 9.89949,-6.36396 0.88448,-0.66335 2.39288,-1.10805 3.35876,-1.59099 0.85242,-0.42621 1.09423,-1.51938 1.94454,-1.94454 0.88129,-0.44065 1.79265,-1.1951 2.65165,-1.76777 0.56533,-0.37689 1.18285,-0.68891 1.76777,-0.88388 1.32721,-0.4424 3.15721,-2.63927 4.59619,-3.35876 0.5932,-0.2966 1.6626,-0.60194 2.12132,-1.06066 0.35552,-0.35551 0.86373,-0.96219 1.41422,-1.23744 0.28732,-0.14366 0.82311,-0.116 1.06066,-0.35355 0.0809,-0.0809 0.84449,-1.10005 1.06066,-0.88388 0.21979,0.21979 1.01711,3.04875 0.53033,3.53553 -0.52857,0.52857 -1.68488,1.06433 -2.47488,1.59099 -2.57807,1.71871 -4.97745,3.554 -7.60139,5.3033 -2.47784,1.65189 -4.46416,3.91146 -7.24785,5.3033 -1.66978,0.8349 -3.74719,1.62588 -5.12652,3.00521 -1.41423,1.41422 -3.56179,2.32434 -4.94975,3.71231 -0.32469,0.32469 -2.24707,1.99557 -2.2981,1.94454 -0.29059,-0.29059 -0.7071,-4.24336 -0.7071,-4.94975 z"
       id="path6307"
       inkscape:connector-curvature="0" />
    <path
       inkscape:connector-curvature="0"
       style="fill:#aaa46f;fill-opacity:1;fill-rule:evenodd;stroke:#ffffff;stroke-width:1.8472873;stroke-linecap:butt;stroke-linejoin:miter;stroke-miterlimit:4;stroke-opacity:0;stroke-dasharray:none;stroke-dashoffset:0;marker:none;visibility:visible;display:inline;overflow:visible;enable-background:accumulate"
       d="m 399.50118,179.05578 c -0.13328,-0.53327 -0.6531,6.95754 -0.6531,13.71541 0,5.18449 2.79439,2.56697 5.22496,1.95934 3.18426,-0.79608 6.41405,-0.65312 9.79672,-0.65312 3.88558,0 3.26554,-2.64948 3.26554,-6.53114 0,-4.00165 0.24975,-8.14463 -0.65311,-11.75607 -0.52546,-2.10197 -5.11283,-0.54489 -7.83739,0 -4.0911,0.81823 -5.36462,0.2424 -9.14362,3.26558 z"
       id="path4621" />
    <path
       inkscape:connector-curvature="0"
       style="fill:none;stroke:#ffffff;stroke-width:1.8472873;stroke-linecap:butt;stroke-linejoin:miter;stroke-miterlimit:4;stroke-opacity:0;stroke-dasharray:none;stroke-dashoffset:0;marker:none;visibility:visible;display:inline;overflow:visible;enable-background:accumulate"
       d="m 388.39825,167.29972 c 0.46154,4.36981 -0.94498,7.97615 0,11.75606 0.4076,1.63018 -0.65311,6.84377 -0.65311,9.1436 0,4.37973 0.58901,4.5077 2.61243,6.53115 1.17654,1.17652 4.83399,2.18815 6.53118,2.61246 2.66674,0.66669 6.38164,0 9.14361,0 3.29639,0 5.80122,0.65311 9.14361,0.65311 3.04784,0 6.09577,0 9.14361,0 2.27494,0 1.30622,-5.66825 1.30622,-7.83737 0,-2.86153 -1.30622,-5.55517 -1.30622,-9.1436 0,-3.56049 -0.65311,-6.40876 -0.65311,-9.79672 0,-2.92655 -1.4153,-6.96759 -1.95932,-9.14361 -0.28744,-1.14953 -6.58752,0 -8.4905,0 -3.40797,0 -6.74417,-0.11004 -9.79672,0.65311 -2.84806,0.712 -6.84374,0 -9.79672,0 -4.42739,0 -4.27869,-0.1595 -5.22496,4.57181 z"
       id="path4681" />
    <path
       style="fill:#f4f0d6;fill-opacity:1;fill-rule:evenodd;stroke:#ffffff;stroke-width:1.8472873;stroke-linecap:butt;stroke-linejoin:miter;stroke-miterlimit:4;stroke-opacity:0;stroke-dasharray:none;stroke-dashoffset:0;marker:none;visibility:visible;display:inline;overflow:visible;enable-background:accumulate"
       d="m 409.32297,182.80951 c -0.37778,-0.0148 -0.80474,0.10211 -1.20862,0.20299 -0.48205,0.24961 -0.95729,0.50803 -1.45322,0.69979 -2.44458,0.94518 -5.22959,3.96436 -8.00476,5.74966 -0.01,-0.004 -0.0213,-0.002 -0.0307,-0.005 -0.0678,-0.0252 -0.13274,-0.0556 -0.21022,-0.0681 -1.54238,-0.24975 -4.63194,1.58838 -6.74971,3.08093 -0.6584,0.46402 -1.30785,1.23983 -2.02828,1.45651 -0.48867,0.14698 -1.93743,1.19439 -2.95152,2.02608 -0.15444,0.0134 -0.325,0.0393 -0.48853,0.074 -0.11285,0.0239 -0.1273,0.19827 -0.1054,0.42576 -0.13791,0.13077 -0.32009,0.29298 -0.38257,0.37776 -0.73062,0.99135 -2.75468,1.47632 -3.46792,2.44409 -1.68089,2.28073 -3.90029,3.84201 -4.46852,7.12322 -0.22152,1.27912 0.3599,2.2987 1.28587,3.01362 0.61083,-0.84969 1.21404,-1.69367 2.00764,-2.25297 0.67821,-0.47798 1.34924,-0.93475 2.01761,-1.39493 0.32478,0.58055 0.71769,1.0836 1.10542,1.49176 -0.54362,0.5281 -1.05473,1.07779 -1.45391,1.61941 -0.362,0.4912 -0.93607,1.00371 -1.56107,1.5057 0.13177,0.032 0.262,0.077 0.39497,0.10007 0.13638,0.0236 0.7602,0.22116 0.86216,0.1493 1.16889,-0.82379 2.82855,-1.51662 4.26437,-2.46473 0.11378,0.0377 0.22416,0.0583 0.28245,0.0172 0.15949,-0.11241 0.20296,-0.23796 0.18716,-0.34817 0.067,-0.0492 0.12048,-0.10738 0.18595,-0.15809 0.006,-0.004 0.0254,0.009 0.0307,0.005 0.011,0.009 0.0114,0.046 0.0254,0.0361 0.18617,-0.13122 0.3321,-0.26978 0.45482,-0.42868 0.006,-0.008 -0.001,-0.0228 0.005,-0.0307 0.31201,-0.28379 0.61029,-0.59251 0.85872,-0.92961 0.32831,-0.44549 1.11665,-0.57287 1.44497,-1.01837 0.47401,-0.64316 1.11926,-1.14885 1.77248,-1.62766 0.0134,0.003 0.0175,0.002 0.0308,0.005 0.18793,0.0437 0.38543,0.0797 0.4364,0.0439 0.025,-0.0176 0.0107,-0.0668 -0.0403,-0.13383 -0.12048,0.0649 -0.23191,0.0483 -0.31858,0.008 0.0717,-0.0522 0.14503,-0.10061 0.21674,-0.15276 0.0437,0.0465 0.0748,0.10887 0.10184,0.1445 0.0253,-0.0137 0.0453,-0.0319 0.0722,-0.0509 0.11681,-0.0823 0.23172,-0.27292 0.34231,-0.51159 0.52012,-0.39629 1.02092,-0.79634 1.40059,-1.31149 0.27287,-0.37026 0.95472,-1.07357 1.67598,-1.80296 0.0324,-0.0165 0.0721,-0.0238 0.10299,-0.0456 0.0116,-0.008 0.52638,-0.32714 0.42936,-0.46481 -0.009,-0.0125 -0.0157,-0.0252 -0.0254,-0.0361 0.29984,-0.29527 0.58936,-0.5385 0.86818,-0.80111 -9.3e-4,0.01 -0.0126,0.0612 -0.0107,0.0616 0.0896,0.0155 0.19258,-0.12469 0.27953,-0.33218 0.43351,-0.40111 0.81041,-0.73336 1.00734,-0.87215 1.08949,-0.76784 1.65025,-2.05515 2.45179,-2.62006 0.26194,-0.18461 0.0422,-1.11732 0.23996,-1.38562 0.1243,-0.16867 0.3637,-0.39198 0.2766,-0.68155 -0.0149,-0.0495 -0.0255,-0.0864 -0.0403,-0.13383 1.12626,-0.70738 2.23456,-1.35832 3.34647,-1.92596 1.97814,-1.00985 3.19036,-2.81616 5.3861,-4.36368 0.002,-0.004 0.0289,0.009 0.0307,0.005 0.41595,-0.72093 0.91976,-1.61013 0.5071,-2.19567 l -0.73832,-1.0476 c -0.13538,-0.19209 -0.37066,-0.26035 -0.65076,-0.27127 z m -11.05863,6.9017 c 0.0269,0.14172 0.0798,0.28674 0.11543,0.43229 -0.26167,-0.0204 -0.54956,-0.0436 -0.85804,0.01 0.24443,-0.16135 0.49616,-0.29542 0.74261,-0.44227 z m 0.70925,1.58173 c 0.26434,0.28075 0.56654,0.52344 0.88402,0.75568 l -2.31194,1.62939 c -0.0568,0.04 -0.13158,0.061 -0.20608,0.0912 -0.27512,-0.36078 -0.62438,-0.66402 -1.01665,-0.90551 l 1.55334,-1.09475 c 0.32121,-0.22637 0.73709,-0.36565 1.09731,-0.47598 z m -3.44935,0.32239 c -0.18437,0.23951 -0.3525,0.49539 -0.53893,0.73126 -0.0205,-0.004 -0.0409,-0.007 -0.0616,-0.0107 l -0.24633,-0.0427 c 0.27875,-0.2173 0.56025,-0.4522 0.84685,-0.67793 z m -1.50242,1.16699 c 0.0248,0.0373 0.0519,0.0736 0.0763,0.10832 0.0403,0.0571 0.10088,0.12766 0.15809,0.18595 -0.076,0.0631 -0.13719,0.12372 -0.22208,0.18355 -0.48406,0.34115 -1.17252,0.57409 -1.8038,0.8928 -0.0246,-0.0611 -0.0368,-0.14337 -0.0603,-0.20074 0.58134,-0.25384 1.19628,-0.68247 1.85179,-1.16993 z m 4.42506,1.36891 c 0.044,0.007 0.0649,0.0153 0.087,0.0467 0.11887,0.16867 -0.16337,0.55246 -0.58693,1.00839 -0.052,-0.27187 -0.0979,-0.55341 -0.21073,-0.79766 0.30625,-0.1649 0.56859,-0.28014 0.71061,-0.25752 z m -3.38828,-0.39648 c 0.16915,0.14723 0.31557,0.29433 0.42867,0.45482 0.042,0.0596 0.0916,0.13787 0.12197,0.21141 -0.91895,0.49274 -2.08484,1.2147 -2.69211,1.62699 -0.015,-0.0444 -0.0267,-0.0886 -0.0402,-0.13384 -0.0584,-0.19429 -0.122,-0.38135 -0.18648,-0.57145 0.64369,-0.42603 1.29578,-0.83212 1.93471,-1.28242 l 0.43349,-0.30551 z m -3.3931,0.36384 c 0.008,0.10533 0.0227,0.21398 0.039,0.32391 -0.0119,0.008 -0.0244,0.0172 -0.0361,0.0254 -0.53627,0.37794 -1.08778,0.77734 -1.63625,1.20725 -0.15274,-0.026 -0.31658,-0.0518 -0.4672,-0.0493 0.97454,-0.76568 1.76888,-1.37354 2.10053,-1.50743 z m 4.28056,1.47075 c 0.0448,0.12068 0.091,0.24418 0.16222,0.34524 0.0984,0.13966 0.29778,0.35221 0.51039,0.5324 -0.68144,0.58496 -1.34308,1.10876 -1.54921,1.25404 -0.24366,0.17172 -0.46618,0.34426 -0.6609,0.51985 -0.32363,-0.3049 -0.62794,-0.6559 -0.89761,-1.04347 0.33875,-0.28598 0.67843,-0.51052 1.02627,-0.61515 0.11204,-0.0337 0.72213,-0.4936 1.40884,-0.99291 z m -3.90589,0.21161 c 0.0833,0.22854 0.19076,0.45728 0.29364,0.68516 -0.0856,0.0713 -0.17158,0.14007 -0.2582,0.209 -0.22421,-0.16521 -0.47651,-0.31446 -0.71647,-0.44123 0.22539,-0.1504 0.45466,-0.3033 0.68103,-0.45293 z m -3.43043,0.57939 c 0.10183,0.0591 0.18557,0.13841 0.28126,0.20728 -0.37614,0.29728 -0.74954,0.61371 -1.14118,0.9124 -0.0478,-0.0982 -0.0902,-0.20903 -0.13676,-0.30912 0.32963,-0.27494 0.68376,-0.55558 0.99668,-0.81056 z m 4.36881,1.32745 c 0.26239,0.4268 0.55511,0.82373 0.84549,1.1613 -0.12766,0.14075 -0.26979,0.27108 -0.3879,0.40855 -0.0109,-0.0746 -0.007,-0.16734 -0.0243,-0.2262 -0.1285,-0.42725 -0.38076,-0.82093 -0.54703,-1.23648 0.0358,-0.04 0.0775,-0.0684 0.11365,-0.10718 z m -3.23966,-0.33903 c 0.22535,0.27034 0.43059,0.56354 0.61102,0.86698 -0.46649,0.45871 -0.91744,0.91684 -1.38045,1.37841 -0.22934,-0.36291 -0.45895,-0.72917 -0.66607,-1.09852 0.47088,-0.40947 0.95429,-0.78919 1.4355,-1.14687 z m -3.16397,0.68896 c 0.0425,0.0603 0.0865,0.13949 0.12197,0.21141 -0.0605,0.0432 -0.11963,0.0843 -0.18062,0.1273 -0.62286,0.43898 -1.17758,1.19027 -1.70798,1.98771 -0.18276,-0.13843 -0.36945,-0.27348 -0.51159,-0.34232 0.71457,-0.63332 1.49063,-1.31383 2.27822,-1.9841 z m 4.58608,1.90424 c 0.12375,0.33526 0.23744,0.64384 0.3179,0.91136 0.007,0.0231 -0.001,0.12144 0.004,0.15928 -0.32576,0.23914 -0.65032,0.5023 -0.99135,0.77978 -0.0718,-0.0776 -0.17225,-0.1677 -0.21434,-0.22741 -0.12744,-0.18083 -0.2295,-0.36105 -0.35109,-0.53653 0.10203,-0.0717 0.18454,-0.13006 0.28899,-0.20368 0.30449,-0.2146 0.63313,-0.52285 0.94576,-0.88281 z m -3.99999,-0.34384 c 0.14089,0.35231 0.33596,0.73495 0.62994,1.12397 -0.43282,0.39113 -0.87555,0.75223 -1.32713,1.07049 -0.034,0.024 -0.0739,0.0524 -0.10831,0.0763 -0.20901,-0.25336 -0.40325,-0.46019 -0.61223,-0.6769 0.46306,-0.5932 0.93549,-1.10238 1.41779,-1.59395 z m -3.572,1.03059 c 0.24977,0.12942 0.43772,0.22506 0.78339,0.4211 -0.29602,0.45994 -0.59849,0.9063 -0.89192,1.30444 -0.2602,0.35307 -0.35338,0.46629 -0.57506,0.75672 -0.15578,-0.5522 -0.21596,-1.1315 -0.18459,-1.68115 0.26246,-0.24332 0.54954,-0.51444 0.86818,-0.80111 z m 5.1866,1.18364 c 0.26898,0.26148 0.54237,0.49092 0.82776,0.71422 -0.51681,0.47807 -0.98258,1.00345 -1.37632,1.5377 -0.0813,0.11034 -0.19163,0.20303 -0.30499,0.29605 -0.19821,-0.48083 -0.46923,-0.93855 -0.77204,-1.4023 0.53342,-0.36567 1.0878,-0.77096 1.62559,-1.14567 z m -3.40016,-0.14482 c 0.0639,0.0443 0.13805,0.0844 0.19955,0.12966 0.11584,0.0854 0.22133,0.22019 0.34697,0.37723 -0.91527,0.61527 -1.89296,1.19643 -2.71344,1.75016 -0.0356,-0.0819 -0.0844,-0.15911 -0.11663,-0.24221 0.76756,-0.56806 1.797,-1.38371 2.28356,-2.01489 z m -3.22314,0.29814 c -0.0799,0.58631 0.003,1.24798 0.17805,1.90202 -0.0162,0.0184 -0.11002,0.12956 -0.11899,0.13797 0.0392,-0.008 0.10473,-0.0106 0.15928,-0.004 0.0451,0.15538 0.0851,0.31413 0.14089,0.46841 -0.75172,0.71249 -2.03286,2.37546 -2.82955,2.23749 -1.14457,-0.19821 1.61105,-3.7878 1.77213,-4.00636 0.0927,-0.12582 0.34976,-0.40058 0.69823,-0.7354 z m 4.46118,1.34344 c 0.25228,0.49946 0.48972,1.02165 0.62754,1.50415 -0.16856,0.0935 -0.35574,0.19665 -0.45895,0.26938 -0.55818,0.3934 -1.12588,0.8672 -1.6937,1.35588 -0.42165,-0.34371 -0.79761,-0.78575 -1.14274,-1.27621 0.86275,-0.5906 1.77216,-1.24068 2.66785,-1.8532 z"
       id="path4623"
       inkscape:connector-curvature="0" />
    <path
       inkscape:connector-curvature="0"
       style="fill:#f4ef7f;fill-opacity:1;fill-rule:evenodd;stroke:#ffffff;stroke-width:1.8472873;stroke-linecap:butt;stroke-linejoin:miter;stroke-miterlimit:4;stroke-opacity:0;stroke-dasharray:none;stroke-dashoffset:0;marker:none;visibility:visible;display:inline;overflow:visible;enable-background:accumulate"
       d="m 371.41734,229.34561 c 2.35483,-3.13978 -8.04161,3.02077 -9.79681,6.53115 -1.74763,3.49539 0.98765,6.6984 3.26563,7.83737 2.49097,1.2455 8.8957,-1.8354 10.44983,-2.61245 2.34993,-1.17497 3.91865,-5.36548 3.91865,-8.49049 0,-4.27763 -4.99322,-4.40322 -7.8373,-3.26558 z"
       id="path4639" />
    <path
       inkscape:connector-curvature="0"
       style="fill:#f4ef7f;fill-opacity:1;fill-rule:evenodd;stroke:#ffffff;stroke-width:1.8472873;stroke-linecap:butt;stroke-linejoin:miter;stroke-miterlimit:4;stroke-opacity:0;stroke-dasharray:none;stroke-dashoffset:0;marker:none;visibility:visible;display:inline;overflow:visible;enable-background:accumulate"
       d="m 366.84549,251.55151 c 0,-2.98523 -8.66775,3.71966 -9.79672,5.22492 -2.6401,3.52013 1.27804,6.51704 3.91874,7.83738 4.3305,2.16526 7.99875,-0.81455 10.44983,-3.26558 2.88518,-2.88525 3.20975,-5.28074 0.65311,-7.83737 -1.77312,-1.77311 -2.28796,-1.37196 -5.22496,-1.95935 z"
       id="path4641" />
    <path
       inkscape:connector-curvature="0"
       style="fill:#f4ef7f;fill-opacity:1;fill-rule:evenodd;stroke:#ffffff;stroke-width:1.8472873;stroke-linecap:butt;stroke-linejoin:miter;stroke-miterlimit:4;stroke-opacity:0;stroke-dasharray:none;stroke-dashoffset:0;marker:none;visibility:visible;display:inline;overflow:visible;enable-background:accumulate"
       d="m 384.9796,268.6138 c -4.91508,-4.9151 -6.53118,1.90596 -6.53118,5.22492 0,4.44913 6.12875,4.67242 9.14361,3.91869 4.887,-1.22174 5.51286,-4.72652 4.57185,-8.49049 -0.49507,-1.98027 -10.43191,-8.77209 -7.18428,-0.65312 z"
       id="path4643" />
    <path
       inkscape:connector-curvature="0"
       style="fill:#f4ef7f;fill-opacity:1;fill-rule:evenodd;stroke:#ffffff;stroke-width:1.8472873;stroke-linecap:butt;stroke-linejoin:miter;stroke-miterlimit:4;stroke-opacity:0;stroke-dasharray:none;stroke-dashoffset:0;marker:none;visibility:visible;display:inline;overflow:visible;enable-background:accumulate"
       d="m 393.12312,239.02988 c -0.77633,-3.10554 -8.88536,4.29837 -7.8373,8.49048 1.51828,6.07331 9.11303,3.93397 13.06226,1.95935 4.63817,-2.31909 0.55307,-7.97079 -1.30622,-10.44983 -1.48938,-1.98578 -5.05575,-0.68226 -7.18429,-1.95935"
       id="path4645" />
    <path
       inkscape:connector-curvature="0"
       style="fill:#f4ef7f;fill-opacity:1;fill-rule:evenodd;stroke:#ffffff;stroke-width:1.8472873;stroke-linecap:butt;stroke-linejoin:miter;stroke-miterlimit:4;stroke-opacity:0;stroke-dasharray:none;stroke-dashoffset:0;marker:none;visibility:visible;display:inline;overflow:visible;enable-background:accumulate"
       d="m 392.31699,215.21152 c -3.07564,-4.10084 -8.08225,6.04155 -6.53117,9.1436 2.82034,5.64072 11.29643,1.26599 13.71536,-1.95935 2.85942,-3.81248 -5.25294,-7.18425 -7.18419,-7.18425 z"
       id="path4647" />
    <path
       inkscape:connector-curvature="0"
       style="fill:#f4ef7f;fill-opacity:1;fill-rule:evenodd;stroke:#ffffff;stroke-width:1.8472873;stroke-linecap:butt;stroke-linejoin:miter;stroke-miterlimit:4;stroke-opacity:0;stroke-dasharray:none;stroke-dashoffset:0;marker:none;visibility:visible;display:inline;overflow:visible;enable-background:accumulate"
       d="m 414.52286,211.0584 c -5.56874,0 -7.88939,2.16743 -9.14361,7.18426 -1.37558,5.50221 8.63385,7.18426 11.75605,7.18426 5.25147,0 7.18428,-6.13583 7.18428,-9.14361 0,-4.85951 -6.10048,-4.48565 -9.79672,-5.22491 z"
       id="path4653" />
    <path
       inkscape:connector-curvature="0"
       style="fill:#f4ef7f;fill-opacity:1;fill-rule:evenodd;stroke:#ffffff;stroke-width:1.8472873;stroke-linecap:butt;stroke-linejoin:miter;stroke-miterlimit:4;stroke-opacity:0;stroke-dasharray:none;stroke-dashoffset:0;marker:none;visibility:visible;display:inline;overflow:visible;enable-background:accumulate"
       d="m 416.36976,245.3361 c 0,-1.90088 -7.36394,6.77654 -7.8374,9.14361 -0.98599,4.92978 6.27616,6.53114 9.79672,6.53114 4.65138,0 7.57573,-3.52533 8.4905,-7.18426 1.03107,-4.12425 -3.02059,-7.65367 -5.87807,-9.79671 -1.67936,-1.25953 -2.39722,0.002 -4.57175,1.30622 z"
       id="path4655" />
    <path
       inkscape:connector-curvature="0"
       style="fill:#f4ef7f;fill-opacity:1;fill-rule:evenodd;stroke:#ffffff;stroke-width:1.8472873;stroke-linecap:butt;stroke-linejoin:miter;stroke-miterlimit:4;stroke-opacity:0;stroke-dasharray:none;stroke-dashoffset:0;marker:none;visibility:visible;display:inline;overflow:visible;enable-background:accumulate"
       d="m 412.4511,268.96069 c -2.25396,-1.69042 -6.53117,5.28579 -6.53117,8.49049 0,4.50641 5.79762,6.38444 9.79672,7.18426 5.09001,1.018 7.55291,-3.4339 8.4905,-7.18426 1.12417,-4.49681 -4.56299,-8.32501 -7.83739,-9.1436 -1.10191,-0.27549 -3.15554,0.46231 -3.91866,0.65311 z"
       id="path4657" />
    <path
       inkscape:connector-curvature="0"
       style="fill:#f4ef7f;fill-opacity:1;fill-rule:evenodd;stroke:#ffffff;stroke-width:1.8472873;stroke-linecap:butt;stroke-linejoin:miter;stroke-miterlimit:4;stroke-opacity:0;stroke-dasharray:none;stroke-dashoffset:0;marker:none;visibility:visible;display:inline;overflow:visible;enable-background:accumulate"
       d="m 441.49428,260.38889 c -4.87268,-1.21818 -6.53109,6.02917 -6.53109,9.1436 0,3.65876 10.2204,3.26558 12.40916,3.26558 5.22856,0 5.77572,-4.71352 6.53117,-8.49049 0.76229,-3.81153 -5.69389,-5.34215 -7.83739,-5.87804 -1.60853,-0.40212 -3.04793,1.30623 -4.57185,1.95935 z"
       id="path4659" />
    <path
       inkscape:connector-curvature="0"
       style="fill:#f4ef7f;fill-opacity:1;fill-rule:evenodd;stroke:#ffffff;stroke-width:1.8472873;stroke-linecap:butt;stroke-linejoin:miter;stroke-miterlimit:4;stroke-opacity:0;stroke-dasharray:none;stroke-dashoffset:0;marker:none;visibility:visible;display:inline;overflow:visible;enable-background:accumulate"
       d="m 439.34117,234.57053 c -5.58823,-1.39706 -6.54984,7.76268 -5.87807,10.44983 1.32395,5.2957 8.38077,4.00099 11.10303,1.95935 3.66169,-2.74631 4.39987,-6.22186 2.61243,-9.79673 -1.66246,-3.32494 -4.63697,-3.8926 -7.83739,-2.61245 z"
       id="path4661" />
    <path
       inkscape:connector-curvature="0"
       style="fill:#f4ef7f;fill-opacity:1;fill-rule:evenodd;stroke:#ffffff;stroke-width:1.8472873;stroke-linecap:butt;stroke-linejoin:miter;stroke-miterlimit:4;stroke-opacity:0;stroke-dasharray:none;stroke-dashoffset:0;marker:none;visibility:visible;display:inline;overflow:visible;enable-background:accumulate"
       d="m 434.1163,209.09906 c -1.79528,-3.59048 -5.45097,8.91754 -2.61243,11.75606 4.23352,4.23355 10.11547,-0.62202 11.10293,-4.57181 0.92208,-3.68845 -5.79013,-6.10412 -8.4905,-7.18425 z"
       id="path4663" />
    <path
       style="fill:#88762b;fill-opacity:1;stroke:#ffffff;stroke-width:1px;stroke-linecap:butt;stroke-linejoin:miter;stroke-opacity:0"
       d="m 416.86039,132.48781 c -0.76366,1.35069 0.20783,3.12652 -0.25,4.5 -0.81115,2.43346 -0.5,10.93588 -0.5,14 0,0.78772 -0.34463,2.56074 0,3.25 0.006,0.0116 0.50903,1.25 0.25,1.25 -0.23883,0 0.43361,-1.86721 0.5,-2 0.38715,-0.7743 1,-4.90526 1,-5.75 0,-4.40123 1.17755,-11.62075 -1,-15.25 z"
       id="path5219"
       inkscape:connector-curvature="0" />
    <path
       style="fill:#88762b;fill-opacity:1;stroke:#ffffff;stroke-width:1px;stroke-linecap:butt;stroke-linejoin:miter;stroke-opacity:0"
       d="m 399.36039,133.23781 c -0.13864,5.49284 0.25,11.50955 0.25,17.25 0,0.71731 -0.45648,4.04352 0,4.5 0.97093,0.97093 1,-7.68251 1,-8.5 0,-3.39429 0.82503,-10.65621 -1.25,-13.25 z"
       id="path5232"
       inkscape:connector-curvature="0" />
    <path
       style="fill:#88762b;fill-opacity:1;stroke:#ffffff;stroke-width:1px;stroke-linecap:butt;stroke-linejoin:miter;stroke-opacity:0"
       d="m 384.11039,133.23781 c -2.48419,5.86849 -1.25,13.29851 -1.25,19.75 0,0.41931 0.39006,3.75 0.5,3.75 0.2239,0 0.67688,-0.92688 0.75,-1 0.39872,-0.39872 1.10128,-0.35128 1.5,-0.75 0.0833,-0.0833 0.25,-0.36785 0.25,-0.25 0,0.30203 -1.25,-1.53861 -1.25,-3 0,-1.36987 -0.25,-3.72329 -0.25,-5.5 0,-1.33612 -0.1775,-3.355 -0.75,-4.5 -0.68439,-1.36878 0.5,-6.83674 0.5,-8.5 z"
       id="path5258"
       inkscape:connector-curvature="0" />
    <path
       style="fill:#88762b;fill-opacity:1;stroke:#ffffff;stroke-width:1px;stroke-linecap:butt;stroke-linejoin:miter;stroke-opacity:0"
       d="m 371.61039,149.73781 c 1.79878,-0.53744 4.13452,-1.44509 6.29186,-1.81121 6.38355,-1.04366 12.96766,-0.80122 19.23846,-2.49252 2.94504,-0.005 5.76654,-0.92039 8.68014,-0.99754 2.68694,0.47121 5.25756,-0.39715 7.9112,-0.5667 3.29993,-0.10133 6.7079,-0.2081 9.89865,0.70234 1.91524,-0.50406 3.66124,0.86803 5.61738,0.73524 1.26301,-0.0397 5.50509,0.9469 2.5869,1.79564 -1.5424,-0.0456 -3.98993,3.08865 -4.33556,0.51587 -1.79678,-0.76776 -4.03968,-0.38322 -5.97319,-1.00612 -3.9632,-0.8718 -8.04332,-0.60366 -12.06264,-0.98669 -3.16517,-0.11128 -6.50494,-0.35534 -9.46352,0.9907 -2.98747,0.57141 -6.16123,-0.40288 -9.06889,0.6396 -1.82511,0.8261 -3.98851,0.72208 -5.93367,1.25837 -1.8737,0.45459 -3.65066,0.7092 -5.52988,1.23284 -1.80281,0.45124 -4.4634,0.10294 -5.47561,1.88199 1.20952,2.57099 -1.69042,0.006 -2.63823,-0.24673 -1.90954,0.009 1.65812,-2.47073 -0.4934,-1.27008 -1.67064,1.1224 -0.25021,-0.60295 0.75,-0.375 z"
       id="path5275"
       inkscape:connector-curvature="0" />
    <path
       style="fill:#88762b;fill-opacity:1;stroke:#ffffff;stroke-width:1px;stroke-linecap:butt;stroke-linejoin:miter;stroke-opacity:0"
       d="m 372.61039,142.98781 c -0.75708,-0.10868 -2.84274,0.40726 -4.5,-1.25 -1.06964,-1.06964 9.03747,-3.75 10.25,-3.75 1.3335,0 6.09669,-0.42334 7.25,-1 1.67869,-0.83934 8.91216,0.39696 11.5,-0.25 1.5952,-0.3988 3.82418,0 5.5,0 2.30616,0 15.22408,-0.34197 17,0.25 0.93206,0.31068 2.78442,0.5 3.75,0.5 3.97576,0 10.04283,-0.45717 12.5,2 0.13176,0.13176 0.5,0.0637 0.5,0.25 0,1.06213 -4.31486,1.40743 -5.5,2 -1.90208,0.95104 0.321,-1.108 0.25,-1.25 -0.48992,-0.97983 -2.07884,-1.03942 -3,-1.5 -2.02058,-1.01029 -12.935,0.68833 -15.75,-0.25 -1.62865,-0.54289 -21.05713,-0.97144 -22.5,-0.25 -1.2,0.6 -3.3,-0.6 -4.5,0 -0.86536,0.43268 -2.16262,-0.16869 -3,0.25 -2.00954,1.00477 -9.82312,1.14624 -10.5,2.5 -0.28382,0.56765 0.42348,1.20579 0.75,1.75 z"
       id="path5289"
       inkscape:connector-curvature="0" />
    <path
       style="fill:#ffffff;stroke:#ffffff;stroke-width:1px;stroke-linecap:butt;stroke-linejoin:miter;stroke-opacity:0"
       d="m 415.36039,114.23781 c -0.5773,0.47951 1.78655,-1.57309 2.75,-3.5 0.65235,-1.30471 2.05381,-3.2769 3,-3.75 1.89175,-0.94587 1.44992,-3.75 3.5,-3.75 0.79343,0 2.83522,1.08522 3.25,1.5 0.19913,0.19913 -1.84636,2.84636 -2,3 -2.35011,2.35011 -3.7298,6.2298 -5.75,8.25 -0.19543,0.19543 -0.43491,-0.21746 -0.5,-0.25 -0.31686,-0.15843 -1.13795,0 -1.5,0 -0.37444,0 -1.49531,0.50469 -1.75,0.25 -0.27202,-0.27202 -0.68821,-1.23035 -1,-1.75 z"
       id="path5315"
       inkscape:connector-curvature="0" />
    <path
       style="fill:#ffffff;stroke:#ffffff;stroke-width:1px;stroke-linecap:butt;stroke-linejoin:miter;stroke-opacity:0"
       d="m 429.11039,105.98781 c -0.4871,0 -2.87636,4.87636 -3.75,5.75 -0.66691,0.66691 -0.95636,1.70636 -1.75,2.5 -0.59103,0.59103 -1.0626,1.1874 -1,1.25 0.0208,0.0209 0.0943,0.45522 0.28125,0.875 1.74308,-1.16463 3.28249,-3.56413 4.03125,-4.5625 1.27477,-1.69971 2.57551,-2.82172 3.65625,-4.34375 -0.38747,-0.72513 -0.78358,-1.46875 -1.46875,-1.46875 z"
       id="path5330"
       inkscape:connector-curvature="0" />
    <path
       style="fill:#88762b;fill-opacity:1;stroke:#ffffff;stroke-width:1px;stroke-linecap:butt;stroke-linejoin:miter;stroke-opacity:0"
       d="m 335.36039,202.48781 c -2.63755,0.0991 -6.21774,0.74899 -6.90625,1.4375 -0.01,-0.002 -0.0217,0.002 -0.0312,0 5.4e-4,0.0204 -6.6e-4,0.0421 0,0.0625 -0.0781,0.12625 -0.0773,0.35959 -0.0312,0.65625 -0.65406,-0.0594 -1.58392,0.0527 -2.40625,0.875 -0.70098,0.70098 -1.08834,3.34915 -0.375,4.0625 0.28892,0.28892 0.89839,3.71089 1.4375,4.25 0.41868,0.41868 0.87624,1.25248 1.21875,1.9375 0.17267,0.34534 0.72609,0.62867 0.90625,0.71875 0.54978,0.27489 1.00954,1.19704 1.40625,1.59375 0.91628,0.91628 3.45452,1.75 5.28125,1.75 1.21761,0 2.25241,-0.92522 2.84375,-2.21875 0.60573,-0.16549 1.34047,-0.65461 1.59375,-0.78125 1.65113,-0.82556 1.9,-4.74374 1.9375,-4.78125 0.39048,-0.39048 0.34375,-2.25882 0.34375,-3 0,-0.52616 0.375,-1.42084 0.375,-1.9375 0,-1.05288 -2.12495,-2.65619 -2.65625,-3.1875 -0.37132,-0.37131 -1.31511,-0.29818 -1.78125,-0.53125 -0.008,-0.004 -0.0229,0.004 -0.0312,0 -0.0723,-0.19221 -0.15512,-0.37387 -0.3125,-0.53125 -0.22771,-0.22771 -0.87776,-0.34978 -1.75,-0.375 -0.32709,-0.009 -0.68571,-0.0142 -1.0625,0 z"
       id="path6189"
       inkscape:connector-curvature="0" />
    <path
       style="fill:#2f2c18;fill-opacity:1;stroke:#ffffff;stroke-width:1px;stroke-linecap:butt;stroke-linejoin:miter;stroke-opacity:0"
       d="m 327.54789,206.17531 c -0.73044,0.0876 -1.63336,0.52856 -2.21875,0.875 -0.1941,0.98214 -0.14649,2.1035 0.28125,2.53125 0.28892,0.28892 0.89839,3.71089 1.4375,4.25 0.41868,0.41868 0.87624,1.25248 1.21875,1.9375 0.17267,0.34534 0.72609,0.62867 0.90625,0.71875 0.54978,0.27489 1.00954,1.19704 1.40625,1.59375 0.91628,0.91628 3.45452,1.75 5.28125,1.75 1.21761,0 2.25241,-0.92522 2.84375,-2.21875 0.60573,-0.16549 1.34047,-0.65461 1.59375,-0.78125 1.41447,-0.70723 1.77001,-3.54384 1.875,-4.40625 -0.31772,-0.62071 -0.61648,-1.10227 -0.8125,-0.90625 -0.39789,0.3979 -0.11816,1.55567 -0.53125,1.96875 -0.38302,0.38302 -0.86698,0.64824 -1.25,1.03125 -0.0855,0.0856 -1.21288,1.44336 -1.59375,1.0625 -0.38151,-0.38152 -0.15965,-2.97214 -0.875,-3.6875 -0.21228,-0.21226 -0.1163,1.6076 -0.1875,1.75 -0.2973,0.5946 -0.5855,2.801 -1.5625,2.3125 -0.53808,-0.26904 -1.18366,-1.96106 -1.4375,-2.46875 -0.81633,-1.63264 -1.19973,-3.54348 -2.28125,-4.625 -0.56822,-0.56822 -1.44778,-1.07278 -1.9375,-1.5625 -0.12248,-0.12248 -0.78377,-0.065 -0.90625,-0.1875 -0.17677,-0.17677 -0.16697,-0.54198 -0.34375,-0.71875 -0.20955,-0.20955 -0.53447,-0.26336 -0.90625,-0.21875 z"
       id="path6302"
       inkscape:connector-curvature="0" />
    <path
       style="fill:#f4ef7f;fill-opacity:1;stroke:#ffffff;stroke-width:1px;stroke-linecap:butt;stroke-linejoin:miter;stroke-opacity:0"
       d="m 366.0274,211.95806 c -0.51732,0.72736 -2.14315,3.19493 -0.97558,5.50439 3.74201,7.40169 15.65595,6.80955 14.49542,-1.06436 -0.84242,-5.71561 -9.93036,-12.03172 -13.51984,-4.44003 z"
       id="path6360"
       inkscape:connector-curvature="0" />
    <path
       style="fill:#bfa01f;fill-opacity:1;stroke:#ffffff;stroke-width:1px;stroke-linecap:butt;stroke-linejoin:miter;stroke-opacity:0"
       d="m 405.23539,156.30031 c -3.86102,0.16409 -11.68027,1.1875 -12.375,1.1875 -3.14946,0 -5.83114,0.16557 -8.5,1.5 -0.29554,0.14777 -2.25012,1.24988 -2.5,1 -1.24718,-1.24718 -3.38441,-2.05687 -5.90625,-2.625 -1.77983,0.27776 -3.16641,0.42695 -5.1875,1.4375 -1.88571,0.94286 -2.625,6.01827 -2.625,8.5 0,0.8692 -0.0292,1.79035 -0.0625,2.71875 2.16151,-1.17923 3.95088,-2.03125 4.78125,-2.03125 0.37268,0 0.23648,0.73648 0.5,1 1.77393,1.77393 3.35415,5.03123 5,7.5 0.98166,1.47249 2.94862,2.44862 4,3.5 1.23775,1.23775 -5.5,3.6845 -5.5,4.5 0,0.7424 2.11897,3.73794 2.5,4.5 0.82746,1.65492 2.66755,2.8351 3.5,4.5 0.2044,0.4088 0.19523,2.5 1,2.5 2.27246,0 15.72196,-5.27804 13,-8 -1.32747,-1.32747 -7.55408,-4.44592 -5,-7 3.03548,-3.03548 6.54295,-7.04295 10,-10.5 1.18185,-1.18185 3.70065,-1.70065 4.5,-2.5 1.10934,-1.10934 -1.0747,-3.85059 -0.5,-5 1.10609,-2.21219 1.5,-4.94695 1.5,-6.5 0,-0.20828 -0.83799,-0.2422 -2.125,-0.1875 z"
       id="path6375"
       inkscape:connector-curvature="0" />
    <path
       style="fill:#a68d24;fill-opacity:1;stroke:#ffffff;stroke-width:1px;stroke-linecap:butt;stroke-linejoin:miter;stroke-opacity:0"
       d="m 430.98539,155.26906 c -3.30465,1.72282 -6.20391,3.25821 -7.125,3.71875 -2.55842,1.27921 5.44364,6.11273 4.5,8 -0.6608,1.32161 -8.73436,6.76564 -7,8.5 6.18505,6.18505 14.02251,0.95497 7.5,14 -0.58003,1.16007 0.88169,4.61831 0,5.5 -1.60896,1.60896 -7.12791,1.12791 -8.5,2.5 -0.94385,0.94386 -4.43023,4 -6.5,4 -0.0349,0 6,-7.412 6,-7.5 0,-1.13143 -10.29856,-0.20144 -11,0.5 -2.94176,2.94176 -8.44297,4.94297 -11.5,8 -1.19721,1.19721 -4.12584,1.25975 -6.125,1.625 1.19805,0.22532 2.40798,0.40625 3.6875,0.40625 l 11.75,0 c 4.0015,0 7.5989,-1.3125 11.78125,-1.3125 3.33722,0 6.67024,-0.0113 9.125,-0.625 2.6189,-0.65472 4.96706,-1.3125 7.84375,-1.3125 2.25628,0 5.28913,-2.6602 6.53125,-3.28125 1.2362,-0.61809 -1.95148,-7.77442 -1.96875,-7.84375 -0.68987,-2.75944 -0.80742,-5.55241 -1.9375,-7.8125 -1.26751,-2.5352 -0.7476,-6.33206 -1.3125,-9.15625 -0.65164,-3.25837 -1.21672,-6.96473 -2.625,-9.78125 -1.32219,-2.64445 -1.65949,-5.31886 -2.59375,-7.1875 -0.17834,-0.35669 -0.36266,-0.671 -0.53125,-0.9375 z m -59,35.625 c -0.71134,0.0502 -2.14128,0.973 -3.84375,2.3125 l 0,0.875 c 0,4.8329 0.24986,4.21872 5.25,5.21875 -3.01891,0.75473 2.81708,2.57497 7.65625,3.4375 -2.37928,-3.31729 -7.30357,-10.36607 -8.6875,-11.75 -0.0838,-0.0838 -0.21534,-0.10503 -0.375,-0.0937 z"
       id="path6380"
       inkscape:connector-curvature="0" />
  </g>
</svg>
