<?xml version="1.0" encoding="UTF-8" standalone="no"?>
<!-- Created with Inkscape (http://www.inkscape.org/) -->

<svg
   xmlns:dc="http://purl.org/dc/elements/1.1/"
   xmlns:cc="http://creativecommons.org/ns#"
   xmlns:rdf="http://www.w3.org/1999/02/22-rdf-syntax-ns#"
   xmlns:svg="http://www.w3.org/2000/svg"
   xmlns="http://www.w3.org/2000/svg"
   xmlns:sodipodi="http://sodipodi.sourceforge.net/DTD/sodipodi-0.dtd"
   xmlns:inkscape="http://www.inkscape.org/namespaces/inkscape"
   width="744.09448819"
   height="1052.3622047"
   id="svg4460"
   version="1.1"
   inkscape:version="0.48.3.1 r9886"
   sodipodi:docname="falafel.svg">
  <defs
     id="defs4462" />
  <sodipodi:namedview
     id="base"
     pagecolor="#ffffff"
     bordercolor="#666666"
     borderopacity="1.0"
     inkscape:pageopacity="0.0"
     inkscape:pageshadow="2"
     inkscape:zoom="0.5"
     inkscape:cx="280.71625"
     inkscape:cy="487.48781"
     inkscape:document-units="px"
     inkscape:current-layer="layer1"
     showgrid="false"
     inkscape:window-width="1364"
     inkscape:window-height="766"
     inkscape:window-x="0"
     inkscape:window-y="0"
     inkscape:window-maximized="0" />
  <metadata
     id="metadata4465">
    <rdf:RDF>
      <cc:Work
         rdf:about="">
        <dc:format>image/svg+xml</dc:format>
        <dc:type
           rdf:resource="http://purl.org/dc/dcmitype/StillImage" />
        <dc:title></dc:title>
      </cc:Work>
    </rdf:RDF>
  </metadata>
  <g
     inkscape:label="Layer 1"
     inkscape:groupmode="layer"
     id="layer1">
    <g
       id="g6166"
       transform="matrix(1.0603448,0,0,1.0603448,-40.962366,-166.84832)">
      <path
         inkscape:connector-curvature="0"
         id="path5634"
         d="m 367.68833,343.55746 c 2.16291,-1.677 3.50668,-3.83459 5.04584,-5.88681 1.77937,-2.37249 3.91055,-7.21135 6.30729,-8.40972 4.3224,-2.1612 20.68655,6.89322 22.28578,10.09167 0.54549,1.09099 -1.62516,4.51176 -2.10244,5.46632 -0.57397,1.14795 -0.0923,3.45617 -0.84097,4.20486 -0.93416,0.93417 -3.93297,-2.90231 -4.62535,-3.36389 -3.06704,-2.04469 -7.37451,-3.59014 -9.67118,-5.8868 -0.52367,-0.52367 -5.9471,9.31098 -7.14827,10.51215 -0.0925,0.0925 -9.08382,-3.62411 -9.2507,-4.62535 -0.11521,-0.69127 0,-1.40162 0,-2.10243 z"
         style="fill:#b2b95a;fill-opacity:1;stroke:#ffffff;stroke-width:1px;stroke-linecap:butt;stroke-linejoin:miter;stroke-opacity:0" />
      <path
         inkscape:connector-curvature="0"
         id="path5425"
         d="m 324.90128,538.97078 c -12.26115,6.54154 -28.12504,6.36509 -45.19396,-10.70384 -6.03336,-6.03335 -7.00917,-12.95573 -11.89315,-17.83972 -6.61057,-6.61056 -3.06861,-20.40899 -7.13589,-28.54355 -5.22381,-10.44761 -5.86628,-33.46139 0,-45.19396 2.71099,-5.42197 0.62912,-11.96207 3.56795,-17.83972 1.2686,-2.53721 -1.26861,-6.97732 0,-9.51452 4.89766,-9.79532 3.50581,-28.48143 9.51451,-34.49013 2.64015,-2.64015 1.77205,-13.05861 3.56795,-16.6504 6.68869,-13.37739 7.66745,-29.07513 17.83972,-39.24739 1.11091,-1.11092 1.26771,-4.83566 2.37863,-5.94658 1.75249,-1.75249 15.25871,11.69078 16.6504,13.08247 3.08057,3.08056 8.14687,2.20028 10.70384,4.75726 8.08226,8.08226 23.03544,11.14229 32.1115,20.21835 1.99199,1.99199 8.71183,2.76526 10.70383,4.75726 11.26863,11.26862 30.00227,12.16255 40.4367,22.59698 1.09164,1.09164 10.70383,2.81142 10.70383,5.94657 0,5.22061 -6.41635,13.30248 -8.3252,19.02904 -3.81866,11.45597 -7.94348,22.64112 -11.89315,34.49012 -3.14324,9.42974 -10.95736,18.34679 -15.46109,27.35424 -9.00526,18.01052 -18.25677,38.47513 -30.92218,51.14054 -2.34216,2.34215 -7.46422,2.70695 -9.51452,4.75726 -6.73446,6.73445 -12.18206,8.41027 -17.83972,17.83972 z"
         style="fill:#e6e4e6;fill-opacity:1;stroke:#ffffff;stroke-width:1px;stroke-linecap:butt;stroke-linejoin:miter;stroke-opacity:0" />
      <path
         inkscape:connector-curvature="0"
         id="path5173"
         d="m 293.97909,538.97077 c -0.408,-0.94456 -22.34675,-14.96064 -27.35423,-24.97561 -6.93335,-13.8667 1.99427,-37.63747 -4.75726,-51.14053 -0.50392,-1.00784 -2.59319,-5.73202 -1.18932,-7.13589 1.92572,-1.92572 -0.21295,-4.33135 1.18932,-7.13589 3.72933,-7.45867 5.76005,-15.27457 10.70383,-20.21835 0.47782,-0.47782 2.4147,-19.10118 3.56794,-21.40767 3.63315,-7.26629 6.16636,-13.52203 9.51452,-20.21835 1.37963,-2.75926 -0.86735,-11.0258 1.18932,-13.08246 4.23586,-4.23586 10.24515,-7.86652 14.27177,-11.89315 2.94528,-2.94527 27.37749,-42.79208 33.30082,-36.86875 14.94496,14.94496 44.26444,16.91021 59.46573,32.1115 1.52648,1.52647 4.8032,1.23525 5.94658,2.37862 1.38753,1.38754 -0.19822,5.74836 1.18931,7.13589 4.15649,4.15649 9.18094,44.67181 4.75726,53.51917 -4.9414,9.88281 -11.76175,21.01347 -15.46109,32.1115 -7.33834,22.015 -13.78054,44.70272 -28.54355,59.46573 -4.51132,4.51132 -19.09189,9.57737 -23.7863,14.27178 -2.38182,2.38182 -19.20994,1.37022 -23.78629,5.94657 -0.94927,0.94927 -4.69882,-0.62388 -5.94658,0 -4.56165,2.28083 -8.03023,4.63927 -14.27178,7.13589 z"
         style="fill:#e8cf9a;fill-opacity:1;stroke:#ffffff;stroke-width:1px;stroke-linecap:butt;stroke-linejoin:miter;stroke-opacity:0" />
      <path
         inkscape:connector-curvature="0"
         id="path5630"
         d="m 328.17339,343.06062 c 6.11342,-2.8543 9.65528,-14.57708 13.74025,-17.72642 4.00597,-3.08845 12.5136,2.04237 17.46062,2.68217 0.48781,0.0631 3.6568,1.23018 3.64525,1.31942 -0.0609,0.47116 -1.75889,3.02685 -2.20738,3.95441 -0.48542,1.00382 -0.55415,3.80608 -1.42728,4.47927 -1.55526,1.19905 -14.29826,-4.36937 -15.6847,-3.30048 -2.58381,1.99202 -4.93422,12.06362 -7.77976,14.25742 -1.12001,0.86349 -4.56998,-1.94161 -5.20543,-2.36917 -0.22731,-0.15289 -3.28334,-0.83947 -3.22824,-1.26549 0.0917,-0.70879 0.45778,-1.35409 0.68667,-2.03113 z"
         style="fill:#b2b95a;fill-opacity:1;stroke:#ffffff;stroke-width:1px;stroke-linecap:butt;stroke-linejoin:miter;stroke-opacity:0" />
      <path
         sodipodi:nodetypes="cssssssssssssssssssssssssssssssssssssssc"
         inkscape:connector-curvature="0"
         id="path5616"
         d="m 353.81229,502.08078 c -5.15985,3.61566 -8.35921,8.77969 -12.61459,13.03508 -3.2848,3.2848 -14.11373,7.36765 -18.5014,8.83021 -1.20523,0.40174 -5.8833,3.36039 -6.72778,4.20486 -2.06748,2.06748 -12.47463,1.40141 -13.87604,0 -2.95033,-2.95033 -2.60964,-9.93135 -4.20487,-14.71702 -1.0346,-3.10381 -2.40373,-6.06893 -3.78437,-8.83021 -0.95829,-1.91658 -1.18463,-31.76697 -0.42049,-34.05939 1.40597,-4.2179 4.73325,-8.62553 6.72778,-12.61459 0.20178,-0.40356 -0.1346,-1.27813 0,-1.68194 3.45107,-10.35321 -12.51894,-8.27618 -7.98924,-21.86529 0.33524,-1.0057 1.08231,-7.98923 2.10243,-7.98923 3.17622,0 6.37089,16.62868 10.51216,4.20486 0.48111,-1.44334 0.88903,-3.13564 1.26146,-4.62535 1.70058,-6.80234 -12.796,-16.83867 -4.62535,-22.28577 1.78399,-1.18933 10.1981,-7.04184 12.1941,-5.04584 1.70265,1.70265 5.62774,7.82782 8.83021,4.62535 5.39251,-5.39251 1.75979,-13.76694 3.36389,-20.18334 2.02204,-8.08814 9.02042,-5.84673 11.35313,-10.51216 2.00705,-4.01409 -1.77267,-7.71706 -0.42048,-11.77361 1.98466,-5.95398 20.60593,-5.04584 25.64966,-5.04584 6.74776,0 12.18444,1.81567 17.66042,5.46632 2.05107,1.36738 3.59566,3.02066 5.88681,3.78438 2.68572,0.89524 4.3855,5.38637 7.14827,6.30729 1.53426,0.51143 5.49196,2.23405 7.14826,1.68195 2.04235,-0.68078 5.7001,-2.02451 7.98924,-1.26146 4.64803,1.54935 11.53544,5.9574 12.61459,11.35313 0.35583,1.77913 0.0621,3.67426 0.42049,5.46632 0.33585,1.67929 0.78632,-0.0926 0.42048,2.10243 -1.2385,7.431 -2.66467,9.67238 -8.83021,14.29654 -0.82598,0.61948 -2.23072,0.96926 -2.9434,1.68194 -0.57958,0.57957 -1.21271,1.65757 -2.10243,2.10243 -1.04149,0.52074 -4.09049,2.29416 -4.62535,3.36389 -2.62081,5.24161 -6.88804,9.88486 -10.51216,14.71702 -3.28049,4.37398 1.17219,10.6907 -1.26146,15.55799 -3.10907,6.21816 -7.24157,12.02243 -9.67118,18.5014 -2.65962,7.09231 -9.48734,14.4106 -13.45556,21.02431 -1.30746,2.1791 -2.34139,5.70528 -4.20487,7.56875 -1.45381,1.45382 -4.04949,3.05317 -5.04583,5.04584 -1.61893,3.23786 -2.29778,5.03391 -5.46632,7.56875 z"
         style="fill:#d6b87a;fill-opacity:1;stroke:#ffffff;stroke-width:1px;stroke-linecap:butt;stroke-linejoin:miter;stroke-opacity:0" />
      <path
         inkscape:connector-curvature="0"
         id="path5618"
         d="m 337.41332,518.47975 c -0.56064,0.14016 -1.54178,0.98113 -1.68194,0.42048 -0.14016,-0.56065 2.09058,-0.82912 1.68194,-0.42048 -0.5687,0.5687 -2.65292,1.74694 -3.36389,2.10243 -1.36922,0.68461 -6.58486,1.11854 -7.14826,1.68194 -0.35735,0.35735 -0.7561,0.84098 -1.26146,0.84098 -3.28513,0 -8.14593,-17.50374 -5.88681,-19.76286 0.46718,-0.46718 2.4734,-6.20825 3.36389,-7.98924 1.3555,-2.711 -0.52241,-7.72803 3.36389,-9.67118 0.6294,-0.3147 1.25259,-1.67307 1.68195,-2.10243 4.26446,-4.26447 9.98195,-9.03127 12.61458,-14.29654 2.70628,-5.41255 5.11107,-11.06311 7.56876,-15.97847 0.721,-1.44201 -0.42049,-3.9446 -0.42049,-5.46633 0,-4.08562 0.43616,-8.03625 1.68194,-11.77361 2.28457,-6.85369 9.67019,-13.87305 11.77362,-20.18334 1.34084,-4.02253 3.68327,-8.10641 5.04584,-12.1941 0.46876,-1.40629 2.07862,-2.4515 2.52291,-3.78438 1.87674,-5.63021 4.43795,-13.89128 10.09167,-17.66042 1.91098,-1.27399 10.10253,-3.37474 10.51216,-3.78438 0.71167,-0.71167 4.78159,-2.23455 6.72778,-1.26146 2.72887,1.36444 4.77459,2.59754 7.14827,3.78438 3.86343,1.93172 9.99785,14.6718 8.83021,19.34237 -0.91181,3.64722 -3.02526,7.13702 -3.78438,10.93264 -5.34001,26.70007 -20.10322,52.06018 -39.10522,71.06218 -2.17872,2.17872 -3.72739,4.98885 -5.88681,7.14826 -4.92052,4.92052 -10.98337,9.30144 -15.97848,14.29654 -3.7787,3.7787 -5.42848,14.71702 -10.09167,14.71702 z"
         style="fill:#c8a866;fill-opacity:1;stroke:#ffffff;stroke-width:1px;stroke-linecap:butt;stroke-linejoin:miter;stroke-opacity:0" />
      <path
         sodipodi:nodetypes="cssccsssssssssssccccsssssssssssscc"
         inkscape:connector-curvature="0"
         id="path5119"
         d="m 284.44724,539.5653 c 0.66699,-0.38812 1.31949,-0.82997 2.00076,-1.17504 1.41445,-0.71643 2.86862,-1.35248 4.33509,-1.88021 1.31513,-0.47328 2.63933,-0.81154 3.98653,-1.12982 -0.19433,-0.15256 -0.59333,-0.25863 -0.69735,-0.43193 -5.20582,-8.67382 -14.58386,-11.24565 -21.33845,-22.50001 -2.40434,-4.00605 -1.96452,-13.06352 -4.3451,-17.02998 -1.71045,-2.84993 4.94046,-7.14152 4.0307,-11.23296 -1.37841,-6.19909 -7.80685,-16.31397 -10.65154,-21.05375 -2.02788,-3.3788 4.24229,-9.42708 4.9025,-9.82332 5.43455,-3.26168 -0.11496,-12.12964 4.32551,-17.31154 1.47283,-1.71875 4.82695,-2.75869 4.03134,-6.33676 -0.54103,-2.43318 -2.53929,-8.48437 -1.14577,-10.11056 l 8.63903,-10.0815 c 4.11792,-4.80549 0.41125,-24.7812 7.21171,-28.86267 3.46532,-2.07979 3.4069,-8.89993 6.33487,-10.65723 12.08502,-7.25312 13.7458,-23.94467 23.37054,-29.7212 6.12676,-5.79438 7.74415,-9.51806 14.14832,-16.4033 -0.49854,-0.12081 -0.99508,-0.15097 -1.47038,-0.0453 -2.81303,0.6255 -7.92351,-1.12038 -9.79237,0.001 -3.12465,1.87533 -4.94624,5.93232 -8.07088,7.80765 -1.31019,0.78634 2.50354,2.41469 0.28849,3.74411 -16.27175,9.7659 -15.4028,22.05539 -29.12968,38.07427 -1.61509,1.88475 -0.40753,6.21014 -2.02261,8.09489 -4.88444,5.7 -7.43756,12.73871 -11.84405,17.88095 -4.18176,4.88 -3.61509,28.63692 -6.33992,30.2723 -1.70855,1.02544 -6.14723,1.73079 -8.06393,2.88115 -4.76288,2.85856 0.66149,14.19881 1.1464,15.00674 1.81146,3.01823 -4.19171,7.74421 -1.73412,11.83899 1.24568,2.07551 -8.77913,21.31301 -8.06899,22.49622 6.88551,11.47251 11.52251,24.05076 19.06651,36.62042 1.0253,1.70833 3.67433,12.69189 5.75472,16.1582 1.78429,2.97295 7.14597,3.56659 11.14212,4.90991 z"
         style="fill:#f3e6cb;fill-opacity:1;stroke:#ffffff;stroke-width:1px;stroke-linecap:butt;stroke-linejoin:miter;stroke-opacity:0" />
      <path
         inkscape:connector-curvature="0"
         id="path5552"
         d="m 309.61446,375.87003 c -1.87206,-2.20272 -6.74468,-5.25883 -9.60324,-4.29651 -0.72334,0.24351 -1.14612,1.327 -1.68794,1.5094 -0.1632,0.0549 -2.17356,0.0669 -1.87765,0.94583 0.38544,1.14499 0.60176,2.71948 0.95141,3.75813 0.40663,1.20787 -1.05998,3.37474 -0.73931,4.3273 0.12287,0.36498 0.98208,0.018 1.31689,0.18413 0.35719,0.17727 1.91957,1.23614 2.25992,1.12156 3.20525,-1.07903 12.55684,6.33727 14.12866,8.4201 3.39694,4.50128 7.73762,9.00584 9.25458,13.51192 0.0384,0.11419 0.59108,1.36963 1.31967,1.12436 5.7253,-1.9274 2.6192,-12.72188 1.26651,-16.74004 -0.58911,-1.74997 -3.06558,-4.37437 -4.15438,-5.81713 -3.35861,-4.4505 -10.11697,-3.44706 -12.43512,-8.04905 z"
         style="fill:#f9d0f9;fill-opacity:1;stroke:#ffffff;stroke-width:1px;stroke-linecap:butt;stroke-linejoin:miter;stroke-opacity:0" />
      <path
         inkscape:connector-curvature="0"
         id="path5632"
         d="m 340.77721,354.4901 c -2.38689,1.60947 -22.47652,-7.378 -23.12674,-6.72778 -1.27238,1.27238 -3.78105,7.9826 -5.04584,10.51216 -1.66555,3.33112 -4.7142,6.99435 -5.8868,10.51216 -0.55845,1.67534 -1.10972,4.05312 -2.10244,5.04583 -1.53637,1.53637 7.25155,4.94256 7.56876,4.62535 0.16625,-0.16625 3.31817,-19.29665 7.14826,-23.12674 0.31359,-0.31359 4.26816,1.79136 5.04584,2.10243 1.1195,0.4478 13.87605,6.68483 13.87605,6.72778 0,0.15012 -2.17898,-0.26739 -1.26146,-2.10243 1.2253,-2.45062 2.66483,-4.7699 3.78437,-7.56876 z"
         style="fill:#dfe3a4;fill-opacity:1;stroke:#ffffff;stroke-width:1px;stroke-linecap:butt;stroke-linejoin:miter;stroke-opacity:0" />
      <path
         sodipodi:nodetypes="csscsscccsscscsscscsscsccc"
         inkscape:connector-curvature="0"
         id="path5532"
         d="m 356.9375,325.65625 c -1.67229,0.0172 -3.14733,0.27679 -4.28125,0.84375 -3.09084,1.54542 -5.83891,3.56008 -8.84375,5.0625 -0.4109,0.20545 -0.94615,1.21431 -1.46875,1.90625 1.55808,5.82975 1.08153,3.98903 0.21042,6.49687 -0.37301,1.07385 -5.62611,2.09688 -6.74167,2.09688 -1.07168,0 -2.0404,-0.29383 -2.96875,-0.6875 -3.09847,4.01451 -4.93858,8.91424 -5,14.15625 1.60624,2.00779 1.68447,2.1502 2.5,3.78125 0.49448,0.98899 -0.25915,2.24084 0.4375,2.9375 0.92555,0.92554 3.68123,4.79374 5.03125,5.46875 l 5.125,2.5625 c 2.39989,-2.18724 5.66189,-3.90343 8.34375,-2.5625 2.64808,1.32404 3.82594,3.2467 4.34375,5.34375 1.45675,0.11174 2.81031,-0.3125 4.46875,-0.3125 2.32934,0 4.99339,0.3147 7.15625,-0.40625 6.0676,-2.02253 11.49383,-7.74542 14.3125,-14.25 -2.25198,-1.58622 -3.7172,-3.69215 -2.125,-8.46875 0.68019,-2.04056 2.29532,-2.72009 4.03125,-2.9375 -0.12728,-1 -0.34117,-1.99225 -0.65625,-2.9375 -0.98306,-2.94918 -1.96645,-6.02664 -3.375,-8.84375 -1.20271,-2.40542 -4.58132,-4.7347 -8.5625,-6.46875 -0.63706,1.53346 -1.45063,2.86594 -2.78125,3.53125 -0.87951,0.43975 -2.67641,-0.0569 -3.375,-0.40625 -1.85894,-0.92947 -2.19436,-3.19453 -2.1875,-5.625 -1.25401,-0.19529 -2.46996,-0.29284 -3.59375,-0.28125 z"
         style="fill:#6c462d;fill-opacity:1;stroke:#ffffff;stroke-width:1px;stroke-linecap:butt;stroke-linejoin:miter;stroke-opacity:0" />
      <path
         inkscape:connector-curvature="0"
         id="path5679"
         d="m 352.85018,327.86741 c -1.74652,0.82707 -3.49523,1.30162 -5.05459,2.0813 -0.33701,0.16851 -4.28796,4.63191 -3.86527,5.05459 0.82201,0.82201 3.3255,2.19107 4.1626,3.86527 0.31636,0.63273 0.13537,2.51401 0.59466,2.97329 0.19822,0.19822 0.59465,0.31433 0.59465,0.59466 0,0.2314 -3.53641,1.02488 -3.86527,1.18931 -3.01664,1.50833 -6.73801,2.17969 -9.51452,3.56795 -0.94572,0.47286 -1.28682,1.58415 -1.78397,2.0813 -0.44897,0.44897 -0.84572,0.20481 -1.18931,0.89198 -0.31752,0.63504 0.33252,3.04367 0.59465,3.56795 0.38039,0.76078 0.0553,1.54197 0.59466,2.0813 0.40674,0.40674 2.6157,-0.17813 2.97329,-0.29733 5.26111,-1.7537 12.8728,-3.65561 16.6504,-7.43322 0.72383,-0.72383 1.30559,1.7192 1.48665,2.0813 0.9858,1.97161 2.5586,1.96395 3.86527,3.27062 0.14016,0.14016 -0.19822,0.59466 0,0.59466 0.66507,0 1.9195,-3.40614 2.37863,-3.86528 1.33291,-1.33291 3.20093,-2.30894 4.45993,-3.56794 0.26007,-0.26007 -3.00921,-1.52257 -3.27062,-1.78397 -1.38619,-1.3862 -2.95421,-2.65689 -4.45993,-4.1626 -2.42931,-2.42932 -4.37508,-4.37509 -5.94657,-5.94658 -0.3667,-0.3667 0.2676,-0.56492 0.29733,-0.59465 0.71437,-0.71437 0.63029,-5.4115 0.29733,-6.24391 z"
         style="fill:#845637;fill-opacity:1;stroke:#ffffff;stroke-width:1px;stroke-linecap:butt;stroke-linejoin:miter;stroke-opacity:0" />
      <g
         transform="translate(-28.409725,-131.89757)"
         id="g5300">
        <path
           style="fill:#494018;fill-opacity:1;stroke:#000000;stroke-width:1px;stroke-linecap:butt;stroke-linejoin:miter;stroke-opacity:0"
           d="m 370.54509,485.84606 c -0.77973,-0.8762 -8.75432,-2.53098 -17.93571,1.49123 -14.28749,6.25909 -15.80691,21.2321 -8.49108,33.51309 4.46852,7.50126 18.55229,4.24795 24.81692,4.91607 2.95855,0.31552 7.27497,-3.48034 9.23954,-5.06625 3.45993,-2.79306 11.70896,-6.94219 12.36081,-13.05436 1.19518,-11.2067 -7.71078,-19.44594 -19.99048,-21.79978 z"
           id="path5284"
           inkscape:connector-curvature="0" />
        <path
           inkscape:connector-curvature="0"
           id="path5286"
           d="m 372.02985,486.51953 c -0.6698,-0.75268 -7.52009,-2.17416 -15.40706,1.28099 -12.27318,5.37665 -13.57838,18.23871 -7.29396,28.78826 3.83853,6.44371 15.9367,3.64906 21.31811,4.22299 2.54145,0.27104 6.24931,-2.98966 7.93692,-4.35199 2.97212,-2.39928 10.05817,-5.96345 10.61812,-11.2139 1.02668,-9.62674 -6.62368,-16.70436 -17.17213,-18.72635 z"
           style="fill:#d9d49c;fill-opacity:1;stroke:#ffffff;stroke-width:0.8590157px;stroke-linecap:butt;stroke-linejoin:miter;stroke-opacity:0" />
        <path
           style="fill:#f4fbce;fill-opacity:1;stroke:#ffffff;stroke-width:1.09931457px;stroke-linecap:butt;stroke-linejoin:miter;stroke-opacity:0"
           d="m 365.95492,491.00515 c -1.23266,0.92449 -2.77348,4.00613 -3.69797,2.77348 -0.92449,-1.23266 4.7875,-3.86301 3.69797,-2.77348 -1.39527,1.39527 -3.22719,2.3027 -4.62246,3.69797 -3.35616,3.35615 7.84342,12.40681 4.62246,-3.69797 z"
           id="path5288"
           inkscape:connector-curvature="0" />
        <path
           style="fill:#f4fbce;fill-opacity:1;stroke:#ffffff;stroke-width:1.09931457px;stroke-linecap:butt;stroke-linejoin:miter;stroke-opacity:0"
           d="m 367.14806,502.32722 c -1.07571,-0.60193 -3.82903,-0.73008 -3.22711,-1.80578 0.60193,-1.0757 4.30281,2.40771 3.22711,1.80578 -21.22951,-11.87928 -10.98907,7.46959 0,0 z"
           id="path5290"
           inkscape:connector-curvature="0" />
        <path
           style="fill:#f4fbce;fill-opacity:1;stroke:#ffffff;stroke-width:1.09931457px;stroke-linecap:butt;stroke-linejoin:miter;stroke-opacity:0"
           d="m 362.00676,506.02638 c -1.23266,0.30817 -3.38981,2.15715 -3.69797,0.92449 -0.30816,-1.23265 4.59642,-1.82294 3.69797,-0.92449 -1.17345,1.17345 -3.19944,0.99517 -4.62246,1.84899 -5.21032,3.12619 7.20676,8.4882 4.62246,-1.84899 z"
           id="path5292"
           inkscape:connector-curvature="0" />
        <path
           style="fill:#f4fbce;fill-opacity:1;stroke:#ffffff;stroke-width:1.09931457px;stroke-linecap:butt;stroke-linejoin:miter;stroke-opacity:0"
           d="m 366.48457,508.13516 c -3.67525,4.27166 0.77041,7.55002 3.69798,4.62246 0.2179,-0.2179 0,-0.61632 0,-0.92449 -1.23267,-1.23266 -4.93064,-2.46531 -3.69798,-3.69797 1.27059,-1.27059 2.95409,2.10613 4.62247,2.77348 0.85836,0.34335 0.90654,-2.59217 0,-2.77348 -1.5109,-0.30218 -3.08165,0 -4.62247,0 z"
           id="path5294"
           inkscape:connector-curvature="0" />
        <path
           style="fill:#f4fbce;fill-opacity:1;stroke:#ffffff;stroke-width:1.09931457px;stroke-linecap:butt;stroke-linejoin:miter;stroke-opacity:0"
           d="m 376.39514,500.98344 c -17.91994,-4.246 -3.6867,14.74675 0,0 z"
           id="path5296"
           inkscape:connector-curvature="0" />
        <path
           style="fill:#f4fbce;fill-opacity:1;stroke:#ffffff;stroke-width:1.09931457px;stroke-linecap:butt;stroke-linejoin:miter;stroke-opacity:0"
           d="m 373.85695,494.18513 c -1.23266,0.30816 -3.3898,2.15715 -3.69797,0.92449 -0.30816,-1.23266 4.59642,-1.82294 3.69797,-0.92449 -0.39041,0.39041 -5.54597,1.848 -6.47145,2.77348 -1.62487,1.62487 8.67196,8.22906 6.47145,-2.77348 z"
           id="path5298"
           inkscape:connector-curvature="0" />
      </g>
      <path
         inkscape:connector-curvature="0"
         id="path5537"
         d="m 330.9471,403.82568 c 2.58303,-3.65696 -0.0624,-18.00621 -7.59462,-24.42363 -2.60104,-2.21606 -5.86533,-3.38947 -8.47888,-5.6162 -1.8461,-1.57287 -7.4364,-4.39852 -9.41351,-3.73294 -0.37412,0.12595 -10.8088,-2.2861 -9.58645,1.34487 0.16946,0.50337 -0.1724,5.5475 0.0168,5.6414 0.78376,0.38897 0.41369,-0.453 0.7505,-0.56639 0.95959,-0.32303 2.66082,0.55623 3.95065,0.55239 4.31998,-0.0129 16.53685,7.24073 19.4018,11.03707 3.07092,4.06928 5.30541,8.30435 6.61801,12.20343 0.44465,1.32084 -0.43346,2.44009 0.0112,3.76092 0.48488,1.44036 4.01255,-0.0438 4.3245,-0.20092 z"
         style="fill:#c729b1;fill-opacity:1;stroke:#ffffff;stroke-width:1px;stroke-linecap:butt;stroke-linejoin:miter;stroke-opacity:0" />
      <path
         inkscape:connector-curvature="0"
         id="path5624"
         d="m 318.49144,397.3797 c -5.8078,2.29775 -12.32529,-1.92498 -18.08091,-3.36389 -1.888,-0.472 -6.4882,-0.51094 -7.98924,-1.26146 -3.07521,-1.5376 -6.70572,-2.9434 -10.09167,-2.9434 -0.52507,0 -1.31848,-0.78395 -1.68194,-0.42049 -0.70145,0.70145 -2.10243,6.91965 -2.10243,7.56876 0,0.17314 -0.11131,1.15015 0,1.26146 1.11416,1.11416 5.70234,-0.72297 7.14826,0 4.01035,2.00517 26.45203,7.10965 27.33161,7.98923 0.40751,0.40752 -1.06322,2.34869 -1.26146,2.94341 -0.35688,1.07066 -0.48483,5.11018 -1.26146,5.88681 -0.16384,0.16383 -1.42534,0 -1.68194,0 -3.71132,0 -7.32488,0.42048 -10.93265,0.42048 -3.96919,0 -26.98986,3.02215 -28.59306,4.62535 -0.45272,0.45272 -0.008,8.85365 -0.42049,10.09167 -0.39594,1.18783 -2.39658,8.95654 -1.26146,10.09167 0.38332,0.38332 3.18211,0 3.78438,0 0.66959,0 3.74932,0.45554 4.20486,0 0.96132,-0.96132 -0.78706,-13.903 0.84098,-14.71702 2.13805,-1.06903 27.94012,-1.3002 30.69549,-0.84097 1.29527,0.21588 8.84284,2.0898 10.09167,0.84097 2.40502,-2.40502 5.04584,-18.81363 5.04584,-23.54723 0,-0.79475 1.51173,-3.95459 1.26146,-4.20486 -1.19344,-1.19344 -3.39084,-0.0895 -5.04584,-0.42049 z"
         style="fill:#dfe3a4;fill-opacity:1;stroke:#ffffff;stroke-width:1px;stroke-linecap:butt;stroke-linejoin:miter;stroke-opacity:0" />
      <path
         inkscape:connector-curvature="0"
         id="path5240"
         d="m 333.30706,374.44657 c -1.37302,0.0488 -2.62163,0.55913 -3.65625,1.59375 -2.30172,2.30172 -0.0605,0.51133 -7.125,4.75 -2.80489,-2.10324 -8.95594,0.91714 -14.8125,5.71875 2.16779,3.63784 4.26352,7.20523 2.90625,8.5625 -2.50918,2.50918 -6.18238,1.56008 -9.125,-0.5625 -0.38539,1.1193 -0.81016,2.18516 -1.5625,2.9375 -1.78611,1.78611 -1.21516,8.02522 -2.09375,11.09375 0.29972,0.25796 0.61228,0.48728 0.90625,0.78125 0.59465,0.59465 2.96784,-0.59466 3.5625,0 2.46096,2.46096 -2.62745,3.93349 -6.28125,4.90625 -1.06262,8.21208 4.86172,16.46862 12.75,22.15625 1.59046,-1.23136 3.16259,-1.93116 4.21875,-0.875 0.59466,0.59466 -0.59465,2.96785 0,3.5625 0.028,0.028 0.0639,0.0654 0.0937,0.0937 9.08863,5.05692 19.47281,6.52719 24.90625,1.09375 0.82403,-0.82402 5.11348,-0.36347 5.9375,-1.1875 4.77817,-4.77817 7.62433,-9.5551 10.96875,-16.0625 -2.30808,-0.97106 -4.79224,-2.02026 -3.84375,-2.96875 1.75405,-1.75406 3.92299,-1.8708 6.21875,-1.6875 0.32502,-0.6507 0.59463,-1.18926 0.9375,-1.875 4.17492,-8.34984 -2.71011,-23.50859 -11.125,-33.15625 -1.66296,1.66993 -3.17757,2.80184 -4.34375,2.21875 -4.69877,-2.34939 -3.34522,-5.39762 -1.96875,-8.125 -2.66114,-1.92291 -5.24159,-3.04794 -7.46875,-2.96875 z"
         style="fill:#6c462d;fill-opacity:1;stroke:#ffffff;stroke-width:1px;stroke-linecap:butt;stroke-linejoin:miter;stroke-opacity:0" />
      <path
         inkscape:connector-curvature="0"
         id="path5662"
         d="m 309.73751,398.63164 c -1.70948,1.7306 -5.10047,-0.8461 -6.54123,0.59465 -0.4141,0.41411 -0.11077,1.52165 -0.29732,2.0813 -0.19393,0.58179 -0.59466,1.53661 -0.59466,2.08131 0,0.51239 -0.65582,2.02014 -0.29733,2.37862 1.41555,1.41555 7.13589,-2.22075 7.13589,3.56795 0,2.46406 -1.08895,3.36721 -2.0813,5.35192 -0.16106,0.32211 -0.5685,6.59354 -0.29733,7.13588 0.43066,0.86133 1.66956,1.13211 2.37863,1.48665 0.65022,0.32511 0.76911,1.12787 1.48664,1.48664 2.55009,1.27505 4.45993,-3.78674 4.45993,2.0813 0,3.76764 -0.1097,6.802 3.56795,8.02788 0.54415,0.18138 1.69916,0.63706 2.37863,0.29732 2.19707,-1.09853 6.7267,-2.15492 7.73054,-4.1626 0.06,-0.11992 -0.60793,-1.49992 -0.89199,-1.78397 -2.57192,-2.57193 -3.23783,-6.17834 -4.75725,-9.21719 -0.52184,-1.04368 -3.04019,-4.0957 -2.0813,-5.05459 0.44875,-0.44875 1.76213,-0.59465 2.67595,-0.59465 2.62662,0 4.57072,0.94738 6.83856,2.0813 1.86441,0.9322 6.46356,7.51089 8.91986,5.05459 0.60174,-0.60174 0.23815,-2.02072 0,-2.97329 -0.61696,-2.46786 -0.78782,-4.12283 -2.37863,-6.2439 -1.4826,-1.97682 -9.202,-4.77245 -7.13588,-6.83856 0.24777,-0.24778 0.0496,-0.94154 0.29732,-1.18932 0.29733,-0.29733 0.29733,-0.89198 0.59466,-1.18931 0.2652,-0.2652 1.79714,-0.59466 2.37863,-0.59466 0.48008,0 2.1123,-0.56366 2.37863,-0.29733 2.11815,2.11815 2.34875,6.57111 6.83856,2.0813 1.06552,-1.06552 -4.26464,-12.88717 -5.05459,-13.67712 -0.13744,-0.13744 -0.71246,0.0898 -0.89198,0 -2.77648,-1.38824 -4.65254,2.68438 -6.83856,-0.59466 -3.38569,-5.07853 8.884,-8.36106 4.45993,-12.78513 -0.23732,-0.23732 -1.17471,0.15597 -1.48665,0 -1.01882,-0.50941 -1.73256,-0.17437 -2.67595,0.29733 -0.416,0.208 -1.05182,0.0799 -1.48665,0.29733 -1.98838,0.99419 -1.24941,3.89532 -3.56794,5.05459 -2.97175,1.48587 -9.54438,-0.5648 -11.89315,1.78397 -2.18856,2.18856 -0.103,6.33522 0.89199,8.3252 1.05661,2.11323 -2.93343,4.66591 -4.16261,5.64925 z"
         style="fill:#845637;fill-opacity:1;stroke:#ffffff;stroke-width:1px;stroke-linecap:butt;stroke-linejoin:miter;stroke-opacity:0" />
      <path
         sodipodi:nodetypes="scsssscsscssssssssss"
         inkscape:connector-curvature="0"
         id="path4514"
         d="m 407.9375,324.5625 c -2.53183,-0.10603 -5.38843,4.29299 -5.90625,4.84375 -4.89241,12.26472 -4.42669,25.2399 -5.375,38.34375 -0.6727,9.29533 -6.18522,19.0837 -5.84375,28.8125 1.28748,36.68104 -19.93686,84.97613 -40.875,104.90625 -6.96509,6.62976 -15.09401,12.48957 -23.3125,18.5625 -11.98452,8.85581 -25.56015,16.62261 -38.71875,23.8125 2.51216,-0.67722 5.0319,-1.39095 7.25,-2.5 2.1863,-1.09315 11.41482,1.67893 11.90625,1.1875 0.66001,-0.66001 7.38659,-2.8945 13.59375,-4 12.01693,-3.86949 27.84064,-7.21201 31.25,-12.0625 0.77198,-1.0983 4.72179,-0.17094 5.84375,-1 5.944,-4.39224 13.84558,-6.26339 19.875,-10.71875 12.53289,-9.26101 26.00526,-17.90989 38.6875,-27.28125 10.24227,-7.5684 61.91604,-67.74849 63,-74.96875 1.61154,-10.7344 17.3593,-46.64927 23.03125,-54.71875 5.63921,-8.02288 -7.10937,-9.89798 -11.625,-11.25 -11.58866,-3.46972 -25.02342,-11.0082 -37.25,-12.84375 -15.09107,-2.2656 -31.1631,-4.87903 -45.03125,-9.03125 -0.16503,-0.0494 -0.33121,-0.0867 -0.5,-0.0937 z"
         style="fill:#e8cf9a;fill-opacity:1;stroke:#ffffff;stroke-width:1px;stroke-linecap:butt;stroke-linejoin:miter;stroke-opacity:0" />
      <path
         inkscape:connector-curvature="0"
         id="path4516"
         d="m 417.05959,326.95786 c -3.82579,7.4278 -12.27398,21.45269 -20.00323,33.53085 -0.12204,2.41896 -0.23647,4.84248 -0.41235,7.27285 -0.0467,0.64586 -0.12023,1.28805 -0.20107,1.93841 9.42963,-12.93757 19.1489,-28.82347 23.19437,-36.14956 0.73211,-1.32578 2.24904,-3.05822 4.10276,-5.03002 -2.2648,-0.4858 -4.47603,-1.02201 -6.68048,-1.56253 z"
         style="fill:#b9835e;fill-opacity:1;stroke:#ffffff;stroke-width:1px;stroke-linecap:butt;stroke-linejoin:miter;stroke-opacity:0" />
      <path
         inkscape:connector-curvature="0"
         id="path4544"
         d="m 439.64832,331.51823 c -6.74839,17.46492 -20.89738,29.61538 -30.84302,43.76502 -3.6324,5.1678 -5.54995,10.85474 -8.27793,14.73583 -2.80487,3.9905 -6.61126,7.36001 -10.102,10.64472 -0.47593,4.23569 -1.2604,8.91917 -2.26805,13.90932 9.2841,-8.64875 17.44487,-21.55252 23.45602,-30.10457 3.37195,-4.79728 9.39818,-10.45036 12.98802,-15.55762 1.42358,-2.02533 5.50829,-6.44639 13.74965,-18.10139 4.70754,-6.65743 6.59797,-11.82884 9.45547,-17.9866 -2.71537,-0.42147 -5.42332,-0.84486 -8.15816,-1.30471 z"
         style="fill:#b9835e;fill-opacity:1;stroke:#ffffff;stroke-width:1px;stroke-linecap:butt;stroke-linejoin:miter;stroke-opacity:0" />
      <path
         inkscape:connector-curvature="0"
         id="path5500"
         d="m 384.95858,382.64846 c 0.95351,-2.9661 -4.06476,-3.84678 -8.9475,-5.38825 -0.80813,-0.25513 -2.71879,0.59907 -3.38817,0.11353 -0.75201,-0.54548 -2.4222,-0.76469 -3.58646,-1.13224 -4.00878,-1.26557 -7.82662,-4.57191 -12.15603,-1.4713 -1.11195,0.79636 -4.5436,8.09094 -3.72722,8.68311 1.33477,0.96818 2.62427,0.82847 4.48309,1.4153 1.92872,0.6089 3.58874,1.92174 5.51188,2.52888 5.30633,1.6752 11.11533,0.66407 14.47806,5.35948 1.34612,1.87961 1.30321,4.72636 2.78472,6.795 1.11879,1.56217 10.95828,9.49934 12.79836,8.18153 4.92805,-3.52935 -0.6817,-13.54745 -3.12533,-16.9595 -0.86616,-1.20944 0.16615,-5.38917 -0.99148,-6.22888 -1.35565,-0.98334 -1.82895,-1.37479 -4.13392,-1.89666 z"
         style="fill:#ee4242;fill-opacity:1;stroke:#ffffff;stroke-width:1px;stroke-linecap:butt;stroke-linejoin:miter;stroke-opacity:0" />
      <path
         inkscape:connector-curvature="0"
         id="path4559"
         d="m 463.05895,336.06209 c -0.94871,2.84906 -1.99646,5.77758 -3.78899,8.46471 -1.45909,2.18727 -7.65929,5.79805 -8.87204,10.23979 -3.35596,12.2913 -19.05722,20.97643 -25.44093,30.54605 -8.56918,12.84579 -19.74326,30.17879 -37.33118,43.85021 -1.2762,0.99201 -2.5029,1.9917 -3.72772,2.99782 -1.19438,4.26773 -2.48819,8.59837 -3.92979,12.93037 3.95448,-1.66304 10.10959,-7.44435 11.40113,-9.38045 2.09991,-3.14789 11.12755,-10.65007 13.05472,-13.53904 3.56908,-5.3503 12.44925,-9.53039 15.41978,-13.98342 8.67171,-12.99947 17.28091,-24.42461 25.42557,-36.634 4.36701,-6.54646 8.96535,-8.89241 13.75476,-16.07207 1.50162,-2.25101 6.74398,-9.08548 11.31948,-16.75744 -2.42718,-0.9502 -4.86731,-1.87732 -7.28479,-2.66253 z"
         style="fill:#b9835e;fill-opacity:1;stroke:#ffffff;stroke-width:1px;stroke-linecap:butt;stroke-linejoin:miter;stroke-opacity:0" />
      <path
         inkscape:connector-curvature="0"
         id="path5498"
         d="m 398.34172,386.47911 c -0.67542,-0.45685 -3.73952,-10.38895 -6.53215,-14.28832 -5.61138,-7.83521 -10.50722,-2.11186 -14.41195,-4.94422 -1.16966,-0.84843 -3.76006,-1.58144 -5.4458,-2.11362 -1.88551,-0.59525 -6.32536,-7.03486 -8.53224,-5.45436 -2.23944,1.60383 -2.94482,6.69814 -4.07638,9.16446 -1.0672,2.32604 -3.70492,6.14826 -3.37806,8.20174 0.23457,1.47362 13.58124,5.86515 15.50687,6.47306 3.3161,1.0469 6.73381,-2.09447 10.29669,0.48992 7.18275,5.2101 2.78405,15.51408 4.5694,18.00698 1.08691,1.51766 2.7678,2.37497 3.91696,3.20854 1.35835,0.9853 4.79038,-1.58037 5.61532,-2.17117 1.19891,-0.85863 3.15295,-1.81479 3.82209,-2.73729 1.25302,-1.72743 -1.06533,-12.04262 -1.35075,-13.83572 z"
         style="fill:#d62929;fill-opacity:1;stroke:#ffffff;stroke-width:1px;stroke-linecap:butt;stroke-linejoin:miter;stroke-opacity:0" />
      <path
         inkscape:connector-curvature="0"
         id="path4561"
         d="m 479.24337,342.27912 c -4.61521,9.35294 -8.02776,20.29758 -14.3379,29.27503 -5.2274,7.437 -6.6314,13.81508 -11.00179,20.03283 -3.06938,4.3668 -9.4661,10.54698 -12.96261,15.52146 -3.40297,4.84139 -10.90875,6.75861 -13.80445,10.87831 -10.54156,14.99746 -33.09601,29.19296 -52.40784,41.43689 -2.29254,5.75653 -4.76975,11.33569 -7.39079,16.54782 1.10448,-1.1062 2.11368,-2.23861 2.92835,-3.39764 3.3146,-4.71567 14.98971,-5.26354 17.72214,-9.15096 2.78588,-3.96347 13.81842,-7.97778 15.15296,-9.87644 3.28638,-4.67552 10.2316,-5.75678 12.8441,-9.47359 4.93612,-7.0226 13.97227,-12.57729 18.42896,-18.9178 1.77319,-2.52273 7.00389,-2.62497 8.77709,-5.14769 4.99206,-7.10221 12.62237,-13.5772 17.05503,-19.88353 3.46265,-4.9263 8.78973,-15.46398 12.14082,-20.23156 2.85074,-4.05574 3.17485,-11.8179 5.76496,-15.50283 4.67499,-6.65109 5.89917,-13.23446 7.32619,-19.64531 -2.04209,-0.75309 -4.12802,-1.60941 -6.23522,-2.46499 z"
         style="fill:#b9835e;fill-opacity:1;stroke:#ffffff;stroke-width:1px;stroke-linecap:butt;stroke-linejoin:miter;stroke-opacity:0" />
      <path
         inkscape:connector-curvature="0"
         id="path5453"
         d="m 367.26785,401.58457 c -5.39912,1.19442 -22.46682,0.60153 -25.22918,3.36389 -0.39665,0.39664 2.95262,9.66196 2.10243,10.51215 -0.59582,0.59582 -26.05907,0.62519 -30.69549,2.94341 -2.28346,1.14172 -17.66043,5.1773 -17.66043,5.46632 0,0.21369 3.08322,3.36284 3.36389,4.20486 0.95556,2.86668 2.80093,5.87985 3.78438,8.83021 0.44945,1.34835 2.16286,2.34413 2.52292,3.78438 0.99702,3.9881 2.44902,8.26194 4.20486,11.77361 1.13147,2.26294 0.17768,5.4012 1.26146,7.56876 0.27364,0.54728 1.30534,3.74049 1.26146,3.78437 -0.64825,0.64825 -3.57424,0.56072 -4.62535,1.26146 -2.99879,1.99919 -6.47493,4.3725 -8.83021,6.72778 -0.16522,0.16522 2.24159,0.98013 2.52291,1.26146 0.55989,0.55989 2.84064,2.5743 3.78438,2.10243 3.05421,-1.5271 5.41516,-4.94127 8.83021,-6.30729 3.27893,-1.31157 11.28188,-3.29264 13.03508,-5.04584 0.16678,-0.16678 -2.13654,-1.42435 -2.52292,-1.68194 -1.48421,-0.98947 -3.10258,-3.99661 -4.20486,-5.46632 -4.74323,-6.3243 -12.61459,-19.32881 -12.61459,-26.91112 0,-0.84513 -1.08533,-3.54003 -0.84097,-3.78438 0.87153,-0.87153 6.67529,-0.0175 7.98924,0.42049 1.77608,0.59202 7.4969,-0.91283 7.98923,-0.42049 2.74917,2.74916 2.35883,17.49633 4.20487,19.34237 0.11778,0.11778 1.9304,0.086 2.10243,0 3.7135,-1.85675 8.23193,0.84097 11.77361,0.84097 0.28033,0 0.84098,-0.28032 0.84098,0 0,0.39644 -0.56065,-0.56065 -0.84098,-0.84097 -0.62238,-0.62239 -1.90213,-1.17126 -2.52291,-2.10243 -1.97427,-2.96141 -3.74945,-6.69286 -6.3073,-9.2507 -2.67707,-2.67708 -3.55209,-5.42225 -5.04583,-8.40973 -0.17529,-0.35057 -0.91914,-1.60378 -0.84098,-1.68194 0.38365,-0.38365 15.32065,-3.36389 17.23994,-3.36389 1.45019,0 10.74413,-0.23197 11.35313,-0.84098 0.97684,-0.97683 -0.37176,-7.42258 -0.84097,-8.83021 -0.32423,-0.97269 -1.30386,-3.32149 -1.26146,-3.36389 0.54258,-0.54258 2.83302,0.73761 3.78438,0.42049 3.06489,-1.02163 9.28459,-0.45439 11.35312,-2.52292 0.89748,-0.89747 -0.17157,-2.5398 -0.42048,-3.78437 z"
         style="fill:#dfe3a4;fill-opacity:1;stroke:#ffffff;stroke-width:1px;stroke-linecap:butt;stroke-linejoin:miter;stroke-opacity:0" />
      <g
         transform="translate(-20.840973,-136.10243)"
         id="g5490">
        <path
           style="fill:#60552b;fill-opacity:1;stroke:#ffffff;stroke-width:1px;stroke-linecap:butt;stroke-linejoin:miter;stroke-opacity:0"
           d="m 382.22201,527.17484 c -0.91273,0.25813 -7.6738,4.94051 -9.67118,10.93264 -1.34573,4.0372 -1.68195,7.72057 -1.68195,12.1941 0,4.33487 -0.4029,11.37071 2.10244,13.87605 0.90119,0.9012 0.55075,3.49416 1.26145,4.20486 1.03186,1.03186 1.91155,1.91155 2.94341,2.94341 1.76282,1.76282 7.35324,-1.46644 7.98924,-2.10243 0.21066,-0.21067 1.40628,-0.14483 1.68194,-0.42049 2.52868,-2.52868 7.76599,-5.63754 9.2507,-10.09167 3.48438,-10.45315 6.81501,-27.49823 -4.62535,-33.21841 -3.13089,-1.56545 -6.50486,1.68194 -9.2507,1.68194 z"
           id="path5478"
           inkscape:connector-curvature="0" />
        <path
           style="fill:#d9d49c;fill-opacity:1;stroke:#ffffff;stroke-width:1px;stroke-linecap:butt;stroke-linejoin:miter;stroke-opacity:0"
           d="m 384.32444,528.85679 c -1.04928,-0.11919 -3.63454,3.90519 -5.46632,7.56875 -0.6571,1.31421 -0.44169,2.96461 -1.26146,3.78437 -1.03589,1.0359 0.27708,5.33265 -0.42048,6.72778 -4.07102,8.14203 2.8482,27.8473 10.09167,20.60383 5.13935,-5.13935 6.88851,-8.31071 10.09167,-14.71702 0.96297,-1.92595 -0.26557,-4.66962 0.42048,-6.72778 1.15143,-3.45429 0.88394,-11.31017 -1.68194,-13.87604 -0.36884,-0.36884 -1.73359,-0.89262 -2.10243,-1.26146 -0.58152,-0.58152 -1.36642,-2.10243 -2.94341,-2.10243 -1.15923,0 -3.98587,-2.32142 -5.04583,-1.26146 -0.0991,0.0991 0,0.28032 0,0.42048 -0.56065,0.28033 -1.1213,0.56065 -1.68195,0.84098 z"
           id="path5480"
           inkscape:connector-curvature="0" />
        <path
           style="fill:#f1f6c8;fill-opacity:1;stroke:#ffffff;stroke-width:1px;stroke-linecap:butt;stroke-linejoin:miter;stroke-opacity:0"
           d="m 385.16542,541.89186 c -0.56065,0.14016 -1.54179,0.98113 -1.68195,0.42049 -0.14016,-0.56065 2.09059,-0.82913 1.68195,-0.42049 -1.10284,1.10284 -2.26625,1.00478 -2.94341,1.68194 -2.11835,2.11836 -0.36317,6.24999 2.52292,3.36389 0.80742,-0.80742 4.57263,-6.08387 0.42049,-5.04583 z"
           id="path5482"
           inkscape:connector-curvature="0" />
        <path
           style="fill:#f1f6c8;fill-opacity:1;stroke:#ffffff;stroke-width:1px;stroke-linecap:butt;stroke-linejoin:miter;stroke-opacity:0"
           d="m 384.32444,552.40402 c -0.56064,0.56064 -1.12129,2.24259 -1.68194,1.68194 -0.56065,-0.56065 1.68194,-2.47482 1.68194,-1.68194 0,0.33032 -3.93188,4.89832 -2.9434,5.8868 3.7708,3.7708 7.14395,-2.73639 2.9434,-5.8868 z"
           id="path5484"
           inkscape:connector-curvature="0" />
        <path
           style="fill:#f1f6c8;fill-opacity:1;stroke:#ffffff;stroke-width:1px;stroke-linecap:butt;stroke-linejoin:miter;stroke-opacity:0"
           d="m 390.21125,548.61964 c -0.14016,0.56065 0.14016,1.82211 -0.42048,1.68194 -0.56065,-0.14016 0.82912,-2.09058 0.42048,-1.68194 -2.37643,2.37644 0.0962,9.57494 2.94341,6.72778 1.28494,-1.28495 1.17422,-7.75719 -2.94341,-6.72778 z"
           id="path5486"
           inkscape:connector-curvature="0" />
        <path
           style="fill:#f1f6c8;fill-opacity:1;stroke:#ffffff;stroke-width:1px;stroke-linecap:butt;stroke-linejoin:miter;stroke-opacity:0"
           d="m 393.57514,537.687 c -0.56065,0.56065 -1.12129,2.24259 -1.68194,1.68194 -0.56065,-0.56065 2.24259,-2.24259 1.68194,-1.68194 -10.79444,10.79443 6.69927,8.37408 0,0 z"
           id="path5488"
           inkscape:connector-curvature="0" />
      </g>
      <path
         inkscape:connector-curvature="0"
         id="path5427"
         d="m 370.09196,456.71196 c -17.35308,-2.8362 -17.87631,-30.13389 1.99865,-40.39604 1.5894,-0.82066 16.73633,-6.51168 16.77437,-3.58196 0.0413,3.17927 -9.70224,5.69696 -11.67437,7.72097 -7.80407,8.00938 -15.97435,21.89031 -7.09865,36.25703 z"
         style="fill:#f9d0f9;fill-opacity:1;stroke:#ffffff;stroke-width:1px;stroke-linecap:butt;stroke-linejoin:miter;stroke-opacity:0" />
      <path
         inkscape:connector-curvature="0"
         id="path5528"
         d="m 369.84756,332.69344 c 2.65806,1.48876 14.57906,17.69192 14.09255,19.1852 -0.61961,1.90185 -16.33041,9.21132 -15.75339,10.34599 1.60166,3.14961 4.28787,6.98234 6.45109,10.06205 1.93593,2.75611 2.5524,6.33107 4.05227,9.28052 0.36973,0.72707 1.88268,4.71322 1.49608,4.90982 -0.61682,0.31367 -5.51274,1.18049 -7.16934,1.64441 -7.35871,2.06077 -14.16058,3.8654 -20.95986,7.32301 -0.49436,0.2514 -2.33534,1.13015 -2.52003,0.94795 -1.11077,-1.09576 -1.01455,-4.23399 -1.23558,-5.70942 -0.084,-0.56082 -1.33554,-2.32293 -0.94793,-2.52003 1.83293,-0.93209 6.27283,-0.78781 8.8988,-1.5232 5.2256,-1.46341 10.20561,-4.85627 13.65123,-6.60847 0.18816,-0.0957 -2.09014,-4.43639 -2.29568,-5.17032 -1.81312,-6.47437 -6.54892,-11.21515 -10.87604,-15.48384 -0.28461,-0.28076 -1.32025,-1.66357 -1.20846,-1.72042 4.54732,-2.31243 13.62238,-6.59379 18.42176,-9.0344 5.27044,-2.68017 -13.22123,-10.91236 -13.7778,-12.00683 -1.05801,-2.08054 7.41082,0.11306 9.68033,-3.92202 z"
         style="fill:#b2b95a;fill-opacity:1;stroke:#ffffff;stroke-width:1px;stroke-linecap:butt;stroke-linejoin:miter;stroke-opacity:0" />
      <path
         inkscape:connector-curvature="0"
         id="path5530"
         d="m 337.29068,346.50046 c 8.92499,0.16159 18.48548,-1.28204 27.24945,-3.29382 3.3102,-0.75986 7.74483,0.42863 10.9164,-0.72908 1.58633,-0.57905 5.9719,-1.72001 7.13355,-0.6222 0.64212,0.60682 -0.17785,3.77842 0.13063,4.62351 1.33261,3.65074 3.25175,14.93682 5.09853,16.6821 0.26883,0.25407 16.12972,-2.75687 18.49401,-0.52252 1.14948,1.08632 0.13902,4.92074 0.17813,6.30478 0.0279,0.98729 1.10086,8.79148 1.09003,8.80293 -0.5122,0.54199 -3.88202,-0.31096 -4.63539,-0.28968 -2.8137,0.0795 -18.43413,1.79476 -20.16341,0.99034 -0.22453,-0.10445 -0.0999,-3.53712 -0.13063,-4.62351 -0.10009,-3.54261 -1.07747,-22.68487 -5.26478,-22.56656 -10.78196,0.30462 -21.31868,3.5469 -31.86108,3.84476 -0.76112,0.0215 -3.86237,1.25903 -4.61163,0.55096 -1.05398,-0.99606 -0.43607,-4.09399 -1.40347,-5.00821 -1.24703,-1.1785 -1.61958,-1.52667 -2.22034,-4.1438 z"
         style="fill:#dfe3a4;fill-opacity:1;stroke:#ffffff;stroke-width:1px;stroke-linecap:butt;stroke-linejoin:miter;stroke-opacity:0" />
      <path
         inkscape:connector-curvature="0"
         id="path4576"
         d="m 495.0619,347.67177 c -0.17805,0.25311 -0.2158,0.30702 -0.40662,0.5785 -0.789,1.12252 -0.77013,4.42373 -1.31913,6.25735 -0.31985,1.06827 -14.33296,35.03196 -14.3963,35.12207 -3.92118,5.57866 -8.72584,14.28283 -10.79768,21.20266 -2.64417,8.83138 -12.13666,17.2668 -16.44271,23.39301 -6.84941,9.74465 -38.29628,23.78126 -43.93705,31.80638 -1.08095,1.53785 -6.73043,2.2359 -7.81138,3.77376 -1.58952,2.26141 -26.32509,17.88459 -29.36562,18.41508 -3.10464,0.54168 -9.73001,4.01326 -15.39257,7.4122 -1.72417,2.17554 -3.45556,4.13876 -5.23211,5.82978 -3.83983,3.65498 -8.05591,7.0657 -12.42593,10.41575 1.70238,-0.66849 2.86437,-1.23158 3.09132,-1.55446 2.32605,-3.30928 14.19424,-0.5664 17.57821,-3.06694 9.1821,-6.785 25.27963,-16.92581 39.31791,-23.7361 13.38976,-6.49568 36.14073,-27.38341 48.02947,-36.16843 6.21796,-4.59468 13.91236,-9.5332 17.87682,-15.17343 2.15783,-3.06995 3.01882,-8.71392 5.17665,-11.78387 7.76542,-11.04784 12.96962,-21.89678 18.86499,-31.87304 0.0179,-0.0434 0.0222,-0.0905 0.0401,-0.13388 3.89254,-9.41309 8.37363,-19.11883 11.74714,-25.39702 0.61339,-2.28483 1.18558,-4.44699 1.71004,-6.19866 0.37241,-1.24384 1.19036,-2.87093 2.23562,-4.64082 -1.33384,-2.27097 -4.92086,-3.58212 -8.14115,-4.47989 z"
         style="fill:#b9835e;fill-opacity:1;stroke:#ffffff;stroke-width:1px;stroke-linecap:butt;stroke-linejoin:miter;stroke-opacity:0" />
      <path
         inkscape:connector-curvature="0"
         id="path4591"
         d="m 419.40775,484.77789 c -20.13174,12.37157 -61.15512,30.94038 -71.49838,32.74501 -9.11596,1.5905 -17.64467,3.59752 -26.14637,5.95764 -6.01903,4.17541 -12.34581,8.14497 -18.76475,11.90236 4.06632,-0.37933 14.17656,-4.05954 17.06336,-4.56322 10.11919,-1.76553 54.8896,-12.2667 59.49468,-18.81834 0.45735,-0.65066 1.61236,-0.8116 2.96321,-0.83423 11.10031,-7.94292 22.7648,-15.53585 33.80557,-23.69427 0.78214,-0.57795 1.85857,-1.55037 3.08268,-2.69495 z"
         style="fill:#b9835e;fill-opacity:1;stroke:#ffffff;stroke-width:1px;stroke-linecap:butt;stroke-linejoin:miter;stroke-opacity:0" />
      <path
         sodipodi:nodetypes="cssscccc"
         inkscape:connector-curvature="0"
         id="path5442"
         d="m 361.61745,451.77573 c 1.7128,1.6689 4.65733,2.87743 5.94089,4.12808 1.18145,1.15117 -6.22243,-1.3943 -8.48544,-5.77713 -3.3269,-6.44329 -5.05875,-16.96294 -0.28386,-21.86344 0.69165,-0.70985 0.10557,-2.66468 0.79723,-3.37453 5.32997,-1.47927 2.0778,-1.71172 3.31993,-3.40728 -0.50188,-2.35036 23.19018,-14.76614 27.61874,-10.4511 -7.57559,6.65143 -46.27363,19.9088 -28.90749,40.7454 z"
         style="fill:#c729b1;fill-opacity:1;stroke:#ffffff;stroke-width:1px;stroke-linecap:butt;stroke-linejoin:miter;stroke-opacity:0" />
      <path
         id="path5171"
         d="m 279.8125,537.46875 c 1.91043,0.15207 3.63762,0.48137 4.65625,1.5 0.99109,0.99109 3.7589,0.19641 4.75,1.1875 3.56593,3.56593 7.12841,3.2198 10.0625,0.96875 0.78624,-0.30389 2.02727,-0.67695 3.5,-1.03125 7.01061,-6.10991 21.14601,-9.47072 28.375,-14.8125 2.62709,-1.94125 12.13279,-1.14637 13.875,-3.625 2.92262,-4.15801 16.44517,-8.77056 16.5625,-8.9375 2.2568,-3.21074 -1.0068,-10.28925 1.25,-13.5 2.68247,-3.81635 12.88098,-5.17052 15.375,-8.71875 0.69953,-0.99524 2.19165,-20.67018 4.3125,-23.6875 2.65603,-3.77873 8.03257,-9.96928 10.84375,-13.96875 1.75805,-2.50117 -11.32491,-10.24095 -7.5625,-15.59375 1.72243,-2.45049 2.52548,-4.9998 4.65625,-8.03125 1.34491,-1.9134 4.68419,-2.30004 6.40625,-4.75 2.42532,-3.45051 2.02317,-24.85092 3.6875,-27.21875 2.88138,-4.09934 5.1102,-11.58584 8.125,-15.875 0.67496,-0.96026 -4.18335,-8.30957 -3.21875,-11.53125 0.97559,-3.25841 0.30032,-9.22717 1.65625,-11.15625 3.08958,-4.39554 -7.12083,-11.79196 -4.03125,-16.1875 4.60134,-6.54632 4.9195,-13.76297 4.875,-19.96875 -6.33728,1.65834 -15.51498,4.44333 -15.90625,5 -2.68516,3.82017 0.94081,10.29421 -1.3125,13.5 -3.66799,5.21844 -3.31706,27.39092 -5.0625,40.65625 3.65135,2.50466 7.53037,5.57147 6.21875,7.4375 -1.35879,1.93314 -3.86078,3.66698 -6.6875,5.28125 0.33464,1.81736 0.5248,3.47695 -0.0625,4.3125 -3.25411,4.62962 -1.49785,27.00881 -4.28125,30.96875 -2.39223,3.40342 -6.10308,7.38626 -7.53125,12.15625 -1.3335,4.45382 8.69447,6.63467 4.59375,12.46875 -2.14858,3.05679 -9.75712,2.19018 -12.28125,5.78125 -3.73053,5.30741 -0.30069,13.60393 -4.90625,20.15625 -3.28108,4.66799 -10.8776,6.69953 -13.8125,10.875 -1.612,2.29339 -0.48175,6.51911 -2.09375,8.8125 -1.20761,1.71806 -5.96379,7.31659 -5.59375,9.4375 1.10634,6.34103 -13.91786,7.22194 -19.09375,8.125 -7.84265,1.36834 -9.18405,6.81921 -14.96875,11.09375 -0.18718,0.13832 -0.40179,0.24892 -0.625,0.34375 -1.43351,-0.25894 -3.30616,-0.34597 -3.40625,0.46875 -2.7e-4,0.002 -0.031,-0.002 -0.0312,0 -1.53207,0.0335 -3.09112,0.0507 -4.15625,0.625 -0.86008,0.46372 -1.59413,0.82629 -2.40625,1.25 -2.5117,0.25046 -4.55666,0.15895 -5.75,-0.375 -1.22986,0.63536 -2.43257,1.28454 -3.59375,2.0625 -1.2948,0.86748 -2.55141,1.83706 -3.75,2.875 -0.5773,0.49993 -1.10323,1.08677 -1.65625,1.625 z"
         style="fill:#f3e6cb;fill-opacity:1;stroke:#ffffff;stroke-width:1px;stroke-linecap:butt;stroke-linejoin:miter;stroke-opacity:0"
         inkscape:connector-curvature="0" />
      <path
         sodipodi:nodetypes="csccsssssssssssssscssssccc"
         inkscape:connector-curvature="0"
         id="path5620"
         d="m 335.73138,473.48772 c 7.02345,-0.51946 27.20496,-13.30865 31.95696,-10.93265 2.2456,1.1228 11.57473,10.73376 13.45556,12.61459 0.13778,0.13779 -4.79741,6.13523 -5.04584,5.88681 -0.5301,-0.5301 -7.12091,-6.50386 -8.40972,-7.14827 -0.96543,-0.48271 -1.58187,-1.63191 -2.52292,-2.10243 -0.26709,-0.13354 -2.24682,-0.84097 -2.10243,-0.84097 0.29627,0 -3.01218,4.11055 -3.78438,4.62535 -2.55231,1.70154 -5.24839,2.45027 -7.98924,3.36389 -1.62858,0.54286 -3.1549,2.20818 -4.62535,2.9434 -0.54764,0.27382 -2.10243,2.11527 -2.10243,2.52292 0,0.10498 3.64701,4.30203 4.20486,5.04583 3.06113,4.0815 4.797,10.43496 6.72779,14.29654 0.17887,0.35774 -4.35862,2.48525 -5.04584,2.9434 -0.56791,0.37861 -4.16837,4.66185 -4.62535,4.20486 -1.29954,-1.29954 -2.48799,-8.7429 -3.36389,-10.93264 -1.72047,-4.30119 -4.38142,-8.34235 -6.30729,-12.1941 -1.7338,-3.46759 -2.09183,-7.12706 -3.78438,-10.51216 -1.12131,-2.24261 -0.0654,-5.66264 -0.84097,-7.98924 -0.57085,-1.71256 -1.78522,-6.10075 -0.84097,-7.98924 0.12383,-0.24766 20.0212,-7.90817 22.70625,-9.25069 3.87265,-1.93633 2.67153,-15.00157 4.62535,-15.97848 1.10163,-0.55081 3.81475,0 5.04584,0 0.58909,0 3.77309,-0.43177 4.20486,0 0.24793,0.24792 -8.08186,19.5276 -8.40972,20.18334 -1.95355,3.90709 3.52062,-4.93882 -23.12675,17.23994 z"
         style="fill:#b2b95a;fill-opacity:1;stroke:#ffffff;stroke-width:1px;stroke-linecap:butt;stroke-linejoin:miter;stroke-opacity:0" />
      <path
         id="path5356"
         d="m 308,405.78125 c -3.06998,1.04485 -5.83453,2.45953 -6.75,3.375 -0.39214,0.39214 6.97247,13.83743 8,16.40625 -3.57838,-0.15262 -21.48102,-3.36274 -22.71875,-2.125 -0.0108,0.0108 -2.03583,13.52667 -1.6875,13.875 0.82633,0.82633 7.29189,-4.05186 8.84375,-2.5 0.49708,0.49708 1.88155,0.19405 2.53125,0.84375 0.24173,0.24174 -0.64374,6.08123 -0.84375,6.28125 -0.0645,0.0645 -5.2456,1.79467 -5.90625,2.125 -2.48763,1.24381 -11.1879,15.68709 -10.5,16.375 1.2927,1.2927 6.64441,5.75757 7.5625,7.59375 0.86953,1.73906 1.40482,3.49857 2.53125,4.625 0.56565,0.56565 3.64793,-5.94064 4.1875,-6.75 0.1702,-0.25529 0.56769,-0.58981 1.03125,-0.96875 -0.54014,-0.34697 -1.03594,-0.72344 -1.4375,-1.125 -0.35177,-0.35178 -2.13374,-0.009 -2.53125,-0.40625 l -2.9375,-2.96875 c -0.66608,-0.66607 5.85858,-9.19738 7.15625,-10.0625 2.4918,-1.66119 5.79837,-3.26711 7.15625,-4.625 1.21385,-1.21384 1.37306,-9.00388 0.40625,-10.9375 -0.38533,-0.77066 -2.23193,-3.64307 -2.09375,-3.78125 0.32449,-0.32449 1.14627,1.14626 1.25,1.25 0.77647,0.77647 4.39767,-0.35702 5.46875,0 1.96588,0.6553 9.86907,1.06842 11.34375,-0.40625 0.20981,-0.20982 0,-1.79576 0,-2.125 0,-1.8765 -0.3712,-2.90245 -1.25,-3.78125 -0.63073,-0.63073 -1.46303,-1.05677 -2.09375,-1.6875 -0.75657,-0.75656 -0.5771,-3.0771 -1.28125,-3.78125 -3.08595,-3.08595 -5.31752,-9.95973 -5.4375,-14.71875 z"
         style="fill:#b2b95a;fill-opacity:1;stroke:#ffffff;stroke-width:1px;stroke-linecap:butt;stroke-linejoin:miter;stroke-opacity:0"
         inkscape:connector-curvature="0" />
      <g
         transform="matrix(0.79565953,0.6057441,-0.6057441,0.79565953,442.88729,-183.363)"
         id="g5584">
        <path
           style="fill:#c729b1;fill-opacity:1;stroke:#ffffff;stroke-width:1px;stroke-linecap:butt;stroke-linejoin:miter;stroke-opacity:0"
           d="m 312.31886,594.45264 c 1.33362,14.6688 5.19507,26.61264 -1.26146,39.52571 -2.04385,4.0877 -6.05109,5.3744 -7.98924,9.25069 -0.73106,1.46213 3.47566,3.63002 4.62535,4.20487 3.45211,1.72605 5.91183,-3.83443 7.14827,-6.3073 3.66781,-7.33563 8.60828,-29.87789 4.20486,-38.68473 -1.02791,-2.05582 0.6308,-5.25601 -0.84098,-6.72778 -0.49056,-0.49057 -1.61186,-0.3504 -2.10243,-0.84097 -1.21729,-1.21729 -1.77881,-1.22271 -3.78437,-0.42049 z"
           id="path5582"
           inkscape:connector-curvature="0"
           sodipodi:nodetypes="csssssssc" />
        <path
           style="fill:#f9d0f9;fill-opacity:1;stroke:#ffffff;stroke-width:1px;stroke-linecap:butt;stroke-linejoin:miter;stroke-opacity:0"
           d="m 304.01157,595.29361 c 1.89202,7.66318 3.78437,14.2286 3.78437,22.28578 0,4.91829 -0.64113,11.89434 -3.36389,15.97847 -1.57779,2.36669 -5.8868,6.45198 -5.8868,7.56876 0,0.41952 2.30288,1.99241 2.52291,2.10243 1.66784,0.83392 2.03977,3.12231 3.36389,3.78438 0.63785,0.31892 5.14809,-5.25034 5.88681,-6.72778 1.23955,-2.4791 2.15946,-4.31891 3.36389,-6.72779 2.59666,-5.19331 3.1067,-35.15755 -0.42048,-38.68473 -0.52265,-0.52264 -6.55755,-1.03788 -7.14827,-0.84097 -0.77534,0.25844 -1.40162,0.84097 -2.10243,1.26145 z"
           id="path5567"
           inkscape:connector-curvature="0" />
      </g>
      <path
         inkscape:connector-curvature="0"
         id="path5601"
         d="m 302.09248,467.18042 c -2.59103,1.68428 -4.32013,4.47274 -7.14827,5.88681 -2.53307,1.26653 -5.45024,4.60927 -7.56875,6.72778 -1.71396,1.71396 -10.05905,7.634 -8.40973,10.93264 0.1773,0.35459 0.48639,0.66368 0.84098,0.84098 1.97193,0.98596 5.84903,-0.11457 7.98923,0.42048 3.24468,0.81117 6.58063,1.91322 9.67119,2.94341 1.4917,0.49723 3.8688,1.26145 5.46632,1.26145 0.70081,0 2.10243,-0.70081 2.10243,0 0,0.35416 -1.70509,1.28461 -2.10243,1.68195 -2.6099,2.6099 -5.04709,6.51942 -7.14827,9.67118 -0.62692,0.94039 -0.93136,2.61332 -1.68194,3.36389 -0.89938,0.89938 -2.61526,1.86663 -3.36389,3.36389 -0.36108,0.72216 0.21662,1.0576 0.42048,1.26146 0.67745,0.67745 -0.67745,0.58401 0,1.26146 0.24957,0.24957 6.88896,0.24761 8.40973,1.26146 1.64003,1.09335 4.53757,2.10243 3.78438,2.10243 -0.64988,0 0.7493,-7.20207 0.84097,-7.56875 0.83764,-3.35058 2.58871,-12.2599 4.62535,-14.29653 0.20981,-0.20982 1.77318,0 2.10243,0 3.41002,0 23.97972,5.8748 24.80869,5.04583 0.15818,-0.15818 -0.74209,-2.64676 -0.84097,-2.9434 -0.45516,-1.36547 0.44865,-3.30756 0,-4.20487 -0.51796,-1.03591 -0.15198,-0.99294 -0.84098,-1.68194 -0.26771,-0.26771 -14.9205,-2.99428 -16.39896,-3.36389 -4.56767,-1.14192 -10.0421,-4.20486 -14.71702,-4.20486 -1.08298,0 -3.66274,-0.78016 -4.62535,-1.26146 -0.26006,-0.13003 -8.54079,1.10309 -7.56875,-0.84097 1.44197,-2.88396 16.28921,-11.45671 19.76285,-12.61459 1.0717,-0.35723 2.77584,-0.67341 3.36389,-1.26146 0.88966,-0.88966 -3.3438,-4.59522 -4.20486,-5.88681 -1.88312,-2.82467 -5.37319,-5.18623 -7.98924,-7.14827 -1.6859,-1.26442 -2.7631,-3.18359 -4.20486,-4.62534 -4.17675,-4.17676 -9.06845,-7.30709 -13.87605,-10.51216 -0.80876,-0.53918 -3.86155,-3.78438 -4.62535,-3.78438 -0.59465,0 -0.84097,0.84098 -1.26146,1.26146 -0.14016,0.14016 -1.12129,0.28033 -1.26145,0.42049 -1.02267,1.02266 -1.87874,3.33697 -2.52292,4.62535 -0.14597,0.29193 -1.51953,1.84436 -1.26146,2.10243 0.76497,0.76497 3.25256,0.36482 4.20486,0.84097 2.23579,1.11789 4.95806,2.14172 7.14827,3.78438 6.07345,4.55509 12.5707,12.93342 18.08091,15.1375 z"
         style="fill:#dfe3a4;fill-opacity:1;stroke:#ffffff;stroke-width:1px;stroke-linecap:butt;stroke-linejoin:miter;stroke-opacity:0" />
      <path
         inkscape:connector-curvature="0"
         id="path5622"
         d="m 297.3381,486.49202 c -4.84194,1.66549 -10.17861,3.64492 -14.95032,5.97407 -1.41448,0.69044 -3.02416,0.48357 -4.39921,1.15476 -1.15277,0.56267 -2.50893,0.56293 -3.46722,1.03068 -0.45414,0.22168 -1.36994,1.39719 -1.20556,0.91931 0.18592,-0.54047 1.53342,3.29843 0.74444,5.59209 -0.40459,1.17622 0.23026,11.70495 0.40739,13.03549 0.21397,1.60732 4.71661,1.50778 5.70345,1.5172 0.31388,0.003 4.35193,1.56815 4.37382,1.50451 0.59012,-1.71556 -2.05166,-17.52663 -1.42537,-17.83232 3.56355,-1.73943 17.79082,-7.01074 22.40643,-6.96666 2.71873,0.026 6.62036,0.40794 8.64897,-0.58226 0.57675,-0.28152 -0.82892,-1.95157 -0.90662,-2.53519 -0.26591,-1.99753 -0.0918,-4.31164 -0.0733,-6.25055 0.006,-0.65395 2.32461,-9.40615 0.21297,-8.37543 -0.8744,0.42681 -5.47373,4.93208 -7.50691,6.31113 -3.15938,2.14291 -5.92739,3.2874 -8.563,5.50317 z"
         style="fill:#b2b95a;fill-opacity:1;stroke:#ffffff;stroke-width:1px;stroke-linecap:butt;stroke-linejoin:miter;stroke-opacity:0" />
      <g
         transform="translate(-13.692706,-150.81945)"
         id="g5469">
        <path
           style="fill:#494018;fill-opacity:1;stroke:#ffffff;stroke-width:1px;stroke-linecap:butt;stroke-linejoin:miter;stroke-opacity:0"
           d="m 322.93345,598.65751 c -3.01526,-1.20453 -11.47089,4.49925 -14.71702,12.61458 -1.24108,3.10271 -1.30957,6.49972 -2.10243,9.67119 -4.19339,16.77354 15.09976,24.39764 28.59307,21.02431 2.72753,-0.68188 4.92554,-3.14354 7.14826,-4.62535 3.4786,-2.31906 6.23454,-8.1187 7.14827,-11.77361 2.08738,-8.34951 2.47372,-18.31576 -6.3073,-22.70626 -1.34784,-0.67392 -3.79899,-1.27607 -4.62534,-2.10243 -0.66352,-0.66352 -3.57008,0.2143 -4.20487,-0.42049 -2.50258,-2.50258 -6.94317,-2.47984 -10.93264,-1.68194 z"
           id="path5455"
           inkscape:connector-curvature="0" />
        <path
           style="fill:#d9d49c;fill-opacity:1;stroke:#ffffff;stroke-width:1px;stroke-linecap:butt;stroke-linejoin:miter;stroke-opacity:0"
           d="m 322.93345,600.33945 c -5.17556,0.80941 -9.70496,7.63631 -13.45556,15.13751 -1.47438,2.94876 -0.96121,8.16925 0.42048,10.93264 1.10902,2.21803 1.12795,4.91233 2.94341,6.72778 1.04025,1.04026 3.2735,2.01205 4.62535,3.36389 0.44147,0.44147 13.53167,2.44681 14.29653,1.68194 2.59374,-2.59374 8.34149,-4.13663 11.35313,-7.14826 9.45243,-9.45243 4.3433,-20.46539 -2.52292,-27.33161 -1.4879,-1.4879 -8.74011,-2.8533 -9.2507,-3.36389 -1.94801,-1.94802 -5.56031,-1.42471 -8.40972,0 z"
           id="path5457"
           inkscape:connector-curvature="0" />
        <path
           style="fill:#f4fbce;fill-opacity:1;stroke:#ffffff;stroke-width:1px;stroke-linecap:butt;stroke-linejoin:miter;stroke-opacity:0"
           d="m 324.1949,619.68182 c -0.17911,-0.0108 0.52562,-2.20757 -2.10243,0.42049 -1.20497,1.20497 -5.04583,1.52534 -5.04583,3.78437 0,0.43973 -0.87597,1.19148 -0.42049,2.10243 0.52958,1.05917 1.25327,1.26146 2.52292,1.26146 4.44363,0 5.04583,-3.24128 5.04583,-7.56875 z"
           id="path5459"
           inkscape:connector-curvature="0" />
        <path
           style="fill:#f4fbce;fill-opacity:1;stroke:#ffffff;stroke-width:1px;stroke-linecap:butt;stroke-linejoin:miter;stroke-opacity:0"
           d="m 328.82026,622.20473 c -5.08621,10.59861 4.30241,5.24094 2.9434,2.52292 -1.08913,-2.17827 -2.9434,-1.68912 -2.9434,-4.62535"
           id="path5461"
           inkscape:connector-curvature="0" />
        <path
           style="fill:#f4fbce;fill-opacity:1;stroke:#ffffff;stroke-width:1px;stroke-linecap:butt;stroke-linejoin:miter;stroke-opacity:0"
           d="m 337.22998,617.57939 c -0.56065,-0.14016 -1.8221,0.14016 -1.68194,-0.42049 0.14016,-0.56065 2.25985,0.42049 1.68194,0.42049 -16.12187,0 9.20675,11.50843 0,0 z"
           id="path5463"
           inkscape:connector-curvature="0" />
        <path
           style="fill:#f4fbce;fill-opacity:1;stroke:#ffffff;stroke-width:1px;stroke-linecap:butt;stroke-linejoin:miter;stroke-opacity:0"
           d="m 330.92269,609.59015 c -0.56065,0.42048 -1.26146,1.8221 -1.68194,1.26146 -0.42049,-0.56065 1.99535,-1.88829 1.68194,-1.26146 -0.67219,1.34438 -2.30135,2.07978 -2.9434,3.36389 -1.82021,3.64042 7.24566,3.80655 2.9434,-3.36389 z"
           id="path5465"
           inkscape:connector-curvature="0" />
        <path
           style="fill:#f4fbce;fill-opacity:1;stroke:#ffffff;stroke-width:1px;stroke-linecap:butt;stroke-linejoin:miter;stroke-opacity:0"
           d="m 322.09248,611.69258 c -0.56065,0 -1.68195,0.56065 -1.68195,0 0,-0.56065 2.24259,0 1.68195,0 -2.28882,0 -8.19075,2.00168 -3.78438,4.20486 2.54724,1.27362 10.88106,-2.78552 3.78438,-4.20486 z"
           id="path5467"
           inkscape:connector-curvature="0" />
      </g>
      <path
         inkscape:connector-curvature="0"
         id="path5323"
         d="m 311.34317,448.25854 c 3.08247,-4.21119 5.93274,-9.29662 9.2507,-12.61459 7.58753,-7.58753 25.04341,-8.78126 30.27501,1.68195 3.06357,6.12712 -7.7558,9.71757 -5.04583,15.1375 2.71843,5.43686 6.90729,9.60973 10.09167,15.97848 3.34766,6.69532 -14.27671,15.14742 -19.34237,12.61459 -5.40509,-2.70254 -9.8643,-9.02333 -14.29653,-13.45556 -1.12889,-1.12888 0.21173,-6.51605 0,-6.72778 -0.36299,-0.36298 -1.53819,-0.28751 -0.84097,-1.68195 0.38982,-0.77964 0.43926,-4.64412 0.84097,-5.04583 2.49255,-2.49256 5.57088,-7.04371 2.52292,-10.09167 -2.35054,-2.35054 -7.78351,3.57864 -8.40973,4.20486 -1.18931,1.18932 -3.36389,0 -5.04584,0 z"
         style="fill:#d62929;fill-opacity:1;stroke:#ffffff;stroke-width:1px;stroke-linecap:butt;stroke-linejoin:miter;stroke-opacity:0" />
      <path
         id="path5338"
         d="m 330.25,438.59375 c -2.14754,0 -4.6427,0.4552 -5.875,1.6875 -0.71574,0.71574 -4.80873,3.02936 -6.3125,3.78125 -3.00644,1.50322 -2.88807,2.76648 -4.1875,3.78125 0.0588,0.29422 0.0804,0.58224 0.125,0.875 0.9249,0.15832 1.76737,0.13888 2.375,-0.46875 0.62622,-0.62622 6.08696,-6.53804 8.4375,-4.1875 3.04796,3.04796 -0.0387,7.60119 -2.53125,10.09375 -0.40171,0.40171 -0.45393,4.25161 -0.84375,5.03125 -0.69722,1.39444 0.48076,1.32452 0.84375,1.6875 0.21173,0.21173 -1.12889,5.58987 0,6.71875 4.43223,4.43223 8.87616,10.76621 14.28125,13.46875 0.64638,0.32319 1.51433,0.4768 2.5,0.46875 0.31965,-5.48337 -3.37832,-12.31583 -5.84375,-14.78125 -0.94444,-0.94444 -0.83157,-3.33156 -1.6875,-4.1875 -0.97643,-0.97642 0,-4.00058 0,-5.0625 0,-5.1766 9.49537,-18.90625 -1.28125,-18.90625 z"
         style="fill:#ee4242;fill-opacity:1;stroke:#ffffff;stroke-width:1px;stroke-linecap:butt;stroke-linejoin:miter;stroke-opacity:0"
         inkscape:connector-curvature="0" />
      <path
         inkscape:connector-curvature="0"
         id="path5397"
         d="m 327.27991,540.16009 c 33.53616,-16.51561 56.69393,-44.40761 74.92683,-80.8734 1.9024,-3.8048 0.8299,-15.10168 3.56794,-17.83972 4.08073,-4.08073 5.52821,-14.62436 8.3252,-20.21835 0.63431,-1.26861 -0.6343,-3.48866 0,-4.75726 6.26819,-12.53638 5.08345,-28.3328 9.51452,-41.62602 1.34471,-4.03413 -1.88774,-10.49629 0,-14.27178 3.76494,-7.52988 1.84929,-39.90735 4.75726,-42.81533 3.14824,-3.14823 17.46151,13.89357 19.02904,15.4611 2.74334,2.74333 33.28356,17.83109 42.81533,22.59698 2.13143,1.06571 6.68605,1.92878 8.3252,3.56794 2.08945,2.08944 7.76697,4.19903 9.51452,5.94657 2.06348,2.06349 -19.36575,44.34136 -23.7863,48.76191 -0.77969,0.77969 -0.59346,4.16141 -1.18931,4.75726 -15.78677,15.78676 -19.27452,37.11424 -34.49013,52.32985 -6.82884,6.82884 -20.20256,17.82393 -26.16492,23.78629 -7.06683,7.06683 -22.67602,9.59356 -29.73287,16.65041 -6.15752,6.15752 -17.90571,11.95913 -23.7863,17.83972 -2.31018,2.31018 -23.98007,6.14035 -24.97561,7.13589 -3.3073,3.3073 -10.61136,5.0777 -16.6504,3.56794 z"
         style="fill:#f4f3f4;fill-opacity:1;stroke:#ffffff;stroke-width:1px;stroke-linecap:butt;stroke-linejoin:miter;stroke-opacity:0" />
      <path
         id="path5933"
         d="m 502.46875,367.78125 c -4.4858,0.0343 -8.27543,1.02543 -10.53125,3.28125 -1.64992,1.64992 -1.16258,5.41259 -2.8125,7.0625 -2.13126,2.13126 -12.03987,-4.92888 -15.5625,-1.40625 -3.69207,3.69207 -10.81893,7.97517 -14.15625,11.3125 -4.93999,4.93998 1.47403,18.33848 -2.8125,22.625 -4.9807,4.98071 -14.8318,2.0818 -19.8125,7.0625 -2.84143,2.84143 2.99767,6.78592 1.4375,9.90625 -3.16019,6.32038 -4.98343,7.79593 -8.5,11.3125 -1.12877,1.12877 0.74186,5.57879 0,7.0625 -3.19325,6.38651 -4.13544,9.82294 -8.46875,14.15625 -2.59272,2.59272 -0.25102,10.12603 -2.84375,12.71875 -4.10067,4.10067 -13.9876,4.1126 -18.375,8.5 -3.7077,3.7077 -3.50061,19.06311 -11.3125,26.875 -1.76348,1.76348 -7.51879,1.83129 -9.90625,4.21875 C 368.37984,522.90142 355.29104,527.35937 345.5,536 c 5.14653,-1.46393 21.41797,-4.54297 23.40625,-6.53125 5.88059,-5.88059 17.62373,-11.68623 23.78125,-17.84375 7.05685,-7.05685 22.68317,-9.58942 29.75,-16.65625 5.96236,-5.96236 19.32741,-16.95241 26.15625,-23.78125 15.21561,-15.21561 18.71323,-36.55699 34.5,-52.34375 0.59585,-0.59585 0.40781,-3.97031 1.1875,-4.75 3.83535,-3.83535 20.44705,-36.12773 23.4375,-45.96875 -1.80978,-0.23561 -3.58695,-0.35646 -5.25,-0.34375 z"
         style="fill:#efecef;fill-opacity:1;stroke:#ffffff;stroke-width:1px;stroke-linecap:butt;stroke-linejoin:miter;stroke-opacity:0"
         inkscape:connector-curvature="0" />
      <path
         inkscape:connector-curvature="0"
         id="path5626"
         d="m 359.6991,446.99708 c -3.59156,-0.18837 -19.32543,5.37884 -28.17258,7.14827 -2.15929,0.43186 -4.64728,0.56796 -6.72778,1.26146 -1.02066,0.34021 -1.93908,1.34717 -2.94341,1.68194 -1.89179,0.6306 -5.29329,1.08843 -6.72778,2.52292 -0.63208,0.63208 0.84097,5.17141 0.84097,6.30729 0,4.44038 2.55299,9.14568 3.78438,13.45556 1.55125,5.42939 2.96627,11.00125 4.62535,15.97848 0.34012,1.02036 1.9719,1.97191 2.52292,2.52292 0.21024,0.21024 -0.21025,1.05122 0,1.26146 0.37741,0.37742 16.81945,-1.36233 16.81945,0 0,1.53689 -3.97875,-3.13777 -4.20487,-3.36389 -2.43141,-2.43142 -5.02137,-5.57387 -7.14826,-8.40973 -3.19758,-4.26343 -5.1527,-8.30982 -6.72778,-13.03507 -1.83748,-5.51245 -5.65365,-9.06338 -1.26146,-13.45556 0.22234,-0.22234 9.74551,-0.42049 10.51216,-0.42049 5.79703,0 14.97201,-1.73711 20.18334,0 0.89549,0.2985 7.39441,0.84097 6.72778,0.84097 -0.84672,0 -1.68195,-7.50727 -1.68195,-9.25069 0,-2.75823 2.5367,-1.34936 -0.42048,-5.04584 z"
         style="fill:#dfe3a4;fill-opacity:1;stroke:#ffffff;stroke-width:1px;stroke-linecap:butt;stroke-linejoin:miter;stroke-opacity:0" />
      <path
         inkscape:connector-curvature="0"
         id="path5628"
         d="m 369.79077,441.11027 c -0.46588,-0.32657 -6.5294,-0.47601 -11.35313,-1.68194 -4.08179,-1.02045 -21.80099,-7.39066 -24.80869,-5.88681 -2.83245,1.41622 -0.26508,23.17248 0.84097,26.49063 1.12717,3.3815 -0.42048,8.56994 -0.42048,12.1941 0,0.8054 0.87684,1.18972 0.42048,2.10244 -0.51169,1.02337 -0.84097,2.13039 -0.84097,3.36389 0,0.5779 -0.82912,1.2733 -0.42048,1.68194 0.002,0.002 10.93038,0.002 10.93264,0 1.0714,-1.0714 -2.91307,-30.72583 0,-33.6389 0.57447,-0.57447 3.30916,0.18288 3.78437,0.42049 0.66681,0.3334 1.80963,-0.23777 2.52292,0 3.89491,1.2983 7.99613,1.40276 12.1941,2.10243 1.12665,0.18777 9.4607,2.31291 9.67119,2.10243 1.93354,-1.93354 -1.62527,-8.12863 -2.52292,-9.2507 z"
         style="fill:#b2b95a;fill-opacity:1;stroke:#ffffff;stroke-width:1px;stroke-linecap:butt;stroke-linejoin:miter;stroke-opacity:0" />
      <path
         inkscape:connector-curvature="0"
         id="path5677"
         d="m 321.03601,387.03582 c -0.39644,0 -1.18932,0.39644 -1.18932,0 0,-0.39644 1.58575,0 1.18932,0 -0.69215,0 -3.29938,-0.26858 -3.86528,0.29733 -0.3778,0.3778 1.0112,1.72507 1.18932,2.0813 0.7728,1.54561 0,5.41284 0,7.13589 0,0.5979 0.47934,2.49394 0.29733,2.67595 -1.15304,1.15304 -11.29849,1.22019 -11.29849,2.37863 0,0.40639 0.59872,1.18119 0.29732,1.78398 -0.0879,0.17574 -0.74325,1.33805 -0.59465,1.48664 0.0559,0.0558 9.21719,-0.42919 9.21719,0.89198 0,0.21451 -1.23706,1.87946 -1.48665,2.37863 -0.97592,1.95184 -0.61666,4.80128 -1.48664,6.54124 -0.0934,0.18682 -0.60525,0.88139 -0.29733,1.18931 0.70739,0.70739 2.22967,0.66884 3.27062,1.18931 2.627,1.31351 2.57033,-11.29849 4.75726,-11.29849 0.55044,0 4.99824,4.21895 5.35191,3.86528 0.22602,-0.22602 0.14137,-1.17472 0.29733,-1.48665 0.28536,-0.57071 0.83746,-1.43212 1.18931,-1.78397 0.61475,-0.61475 -5.34727,-5.34728 -5.64924,-5.64924 -0.32773,-0.32773 5.69291,-4.63043 6.54123,-5.05459 0.3157,-0.15785 3.27062,-0.23897 3.27062,-0.59466 0,-0.22161 -0.39644,-0.19822 -0.59466,-0.29733 -1.71728,-0.85864 -2.90583,-2.3449 -4.75726,-3.27061 -0.82165,-0.41083 -1.46144,1.64791 -2.37863,1.18931 -0.77524,-0.38762 0.008,-1.76859 -0.29733,-2.37863 -0.87163,-1.74327 -1.05855,-2.12177 -2.97328,-3.27061 z"
         style="fill:#9b6541;fill-opacity:1;stroke:#ffffff;stroke-width:1px;stroke-linecap:butt;stroke-linejoin:miter;stroke-opacity:0" />
      <path
         id="path5698"
         d="m 417.34375,474.78125 c -0.32409,0.0289 -0.62945,0.12945 -0.875,0.375 -0.99747,0.99747 -2.72137,1.06513 -3.78125,2.125 -0.68073,0.68074 -8.3103,12.28345 -7.15625,13.4375 0.98113,0.98114 2.80012,1.14387 3.78125,2.125 0.72097,0.72097 5.366,4.625 7.15625,4.625 0.55553,0 1.20247,0.28185 1.8125,0.65625 1.55557,-0.96007 2.98947,-1.98947 4.15625,-3.15625 0.27484,-0.27484 0.63253,-0.61092 0.9375,-0.90625 0.37357,-0.68846 0.74518,-1.36536 1.09375,-2.0625 2.33271,-4.66541 0.37878,-13.68561 -3.375,-15.5625 -0.44111,-0.22056 -2.34561,-1.78166 -3.75,-1.65625 z M 416.25,482.4375 c 3.91018,0.10483 6.55424,7.13326 3.75,9.9375 -0.13506,0.13506 -7.53514,-4.75644 -8,-4.5 0,-1.97668 0.73549,-4.11774 2.5,-5 0.59764,-0.29882 1.1914,-0.45248 1.75,-0.4375 z"
         style="fill:#c15b5b;fill-opacity:1;stroke:#ffffff;stroke-width:1px;stroke-linecap:butt;stroke-linejoin:miter;stroke-opacity:0"
         inkscape:connector-curvature="0" />
      <path
         id="path5700"
         d="m 422.09375,457.3125 c -2.78187,-0.0274 -4.98505,0.9185 -4.375,3.96875 -1.49549,3.10185 0.64229,6.95811 1.6875,10.09375 0.54006,1.62016 2.72175,2.72175 3.78125,3.78125 0.87449,0.87449 1.90364,2.85807 2.9375,3.375 3.60043,1.80021 10.9375,1.88878 10.9375,-3.375 0,-0.64945 0.8324,-1.30395 0.4375,-2.09375 -1.87015,-3.74031 -3.22761,-11.69193 -7.59375,-13.875 -1.67667,-0.83833 -5.03063,-1.84763 -7.8125,-1.875 z m 3.75,4.09375 c 0.64211,-0.0822 1.2121,0.0246 1.65625,0.46875 1.66133,1.66133 5.60744,7.78513 4,11 -3.28028,6.56057 -9,-3.71246 -9,-7.5 l 0,-3 c 1.02653,-0.20531 2.27357,-0.8318 3.34375,-0.96875 z"
         style="fill:#c15b5b;fill-opacity:1;stroke:#ffffff;stroke-width:1px;stroke-linecap:butt;stroke-linejoin:miter;stroke-opacity:0"
         inkscape:connector-curvature="0" />
      <path
         inkscape:connector-curvature="0"
         id="path5702"
         d="m 441.27343,462.55507 c -0.71243,1.32029 -5.90553,-4.91191 -10.09167,-6.30729 -3.03124,-1.01041 -7.38556,-3.1807 -8.83021,-4.62535 -0.8715,-0.87149 -1.68195,-2.95104 -1.68195,-4.20486 0,-0.39321 -0.8365,-1.26593 -0.42048,-1.68195 1.85888,-1.85888 8.46966,-0.90091 9.25069,-1.68194 0.10374,-0.10374 0.92421,-1.59871 0.42049,-2.10243 -2.08298,-2.08298 -4.9783,-3.71685 -7.14827,-5.88681 -1.1582,-1.1582 -0.40806,-7.58117 0.84098,-8.83021 1.02683,-1.02683 5.50969,2.56629 6.30729,3.36389 5.20938,5.20937 11.61695,9.935 15.97848,14.29653 0.57391,0.57391 3.36389,1.83267 3.36389,2.52292 0,0.16756 -1.07671,1.49719 -1.26146,1.68194 -0.63073,0.63073 0.63073,3.15365 0,3.78438 -2.30051,2.30051 -9.70254,-3.75302 -11.77361,-1.68195 -0.84963,0.84963 9.73611,7.63369 10.51215,8.40973 0.0216,0.0216 -2.91955,3.85843 -3.36389,3.78438 -0.74452,-0.12409 -1.40162,-0.56065 -2.10243,-0.84098 z"
         style="fill:#c15b5b;fill-opacity:1;stroke:#ffffff;stroke-width:1px;stroke-linecap:butt;stroke-linejoin:miter;stroke-opacity:0" />
      <path
         inkscape:connector-curvature="0"
         id="path5730"
         d="m 427.81787,422.18839 c 3.26748,5.38648 13.57348,10.748 15.97848,15.55799 0.26566,0.53133 1.94243,3.86438 2.9434,3.36389 1.95409,-0.97704 6.07096,-18.8298 4.20486,-19.76285 -1.36132,-0.68066 -5.11682,2.24441 -5.46632,2.9434 -1.15251,2.30504 0.96762,4.14155 -1.68194,5.46633 -0.70317,0.35158 -1.59934,-0.16894 -2.10243,-0.42049 -4.88225,-2.44112 3.97419,-8.21991 1.26146,-10.93264 -7.6692,-7.6692 -5.71504,6.47906 -8.83022,3.36389 -0.37483,-0.37483 -0.1972,-1.23538 -0.42048,-1.68195 -2.72776,-5.45552 4.73551,-8.72004 0,-13.45556 -0.71705,-0.71704 -1.49488,-0.84097 -2.52292,-0.84097 -0.50506,0 -1.66029,-0.22107 -2.10243,0 -2.34842,1.17421 -2.96622,13.55769 -1.26146,16.39896 z"
         style="fill:#c15b5b;fill-opacity:1;stroke:#ffffff;stroke-width:1px;stroke-linecap:butt;stroke-linejoin:miter;stroke-opacity:0" />
      <path
         sodipodi:nodetypes="sssscssscsccssssssssscs"
         inkscape:connector-curvature="0"
         id="path5745"
         d="m 444.57114,389.61002 c -2.77022,0.25667 -5.48795,1.20045 -6.72246,2.68167 -0.86941,1.04314 -1.63462,2.89314 -2.58337,4.03149 -0.64035,0.76832 -2.2388,1.61729 -2.69646,2.78663 -0.27746,0.70893 0.70709,3.29328 0.74667,3.72899 1.32044,1.00998 2.77751,1.53823 4.0315,2.58337 4.0575,3.3817 9.56638,6.87866 11.95849,10.74343 0.60953,0.98477 4.26976,6.69448 5.57324,5.39291 1.9398,-1.93697 4.04541,-4.13787 4.04541,-4.13787 -3.88882,-3.30593 -11.72735,-7.67311 -6.65017,-10.37349 4.4567,-2.37036 6.37775,3.44786 9.35874,5.95901 2.04813,-1.71958 5.02442,-3.81226 6.57549,-4.99034 -1.18872,-1.65824 -4.88991,-3.01115 -7.90736,-5.52604 -0.64289,-0.53582 -2.50688,-0.13329 -2.99896,-0.54342 -0.62473,-0.52067 0.95141,-1.93977 0.2067,-2.56045 -2.05497,-1.71272 -3.35135,-6.27381 -5.84182,-8.34948 -1.5038,-1.25333 -4.32544,-1.68328 -7.09564,-1.42641 z m -1.12646,6.25255 c 0.55251,-0.0636 0.96601,-0.0291 1.07228,0.0595 1.03887,0.86585 3.04191,1.38466 3.99474,2.17879 2.12179,1.7684 0.30313,5.67624 -0.63703,6.80428 -0.34569,0.41476 -6.82741,-3.70931 -8.05737,-4.75933 -0.89833,-3.03261 1.96984,-4.09236 3.62738,-4.28322 z"
         style="fill:#c15b5b;fill-opacity:1;stroke:#ffffff;stroke-width:1px;stroke-linecap:butt;stroke-linejoin:miter;stroke-opacity:0" />
      <path
         sodipodi:nodetypes="ccscscscccccccssccscccccc"
         inkscape:connector-curvature="0"
         id="path5795"
         d="m 477.27566,374.67496 c -0.27349,-0.0508 -0.57193,-0.0797 -0.86876,-0.10886 -1.97883,-0.19449 -4.29754,0.12297 -4.8174,1.40509 -0.34612,0.85365 -1.35628,8.86256 -1.37034,8.86366 -0.12728,0.01 -0.0262,-2.4524 -0.5676,-3.73226 -2.08062,-4.91854 -2.0662,-7.61015 -7.89242,-3.46082 2.25256,3.32764 3.70215,7.46853 4.98098,11.28382 0.39491,1.1782 0.20282,2.5568 0.59845,3.73725 0.81915,2.44389 2.45407,5.16249 2.6518,7.67817 0.0722,0.91801 0.83089,4.23067 1.22407,4.56653 0.23325,0.19927 0.25969,-0.29772 0.55846,-0.3212 0.8863,-0.0697 1.51764,-0.0781 2.06597,0.14422 0.30234,0.12255 2.42868,1.28423 2.42576,1.24707 -0.11682,-1.48635 -1.42057,-5.97866 -1.78534,-9.12083 0.61031,0.84837 1.23467,1.67337 1.81514,2.47786 1.11761,1.5489 0.84673,4.61004 1.89915,6.06859 0.46775,0.64826 4.26784,0.2994 4.64958,0.024 0.2339,-0.16877 -0.62106,-3.06078 -0.82438,-3.71048 -0.19145,-0.61162 0.32127,-1.66954 -0.0309,-2.15761 -0.92511,-1.28211 -3.50405,-5.36468 -4.04949,-7.10762 -3.09603,-1.39941 -3.9467,-2.82024 -2.74119,-7.0435 0.57716,-2.32514 2.71035,-4.7283 3.28799,-7.05522 0.10847,-0.43701 1.19055,-2.49561 0.63824,-2.96741 -0.35361,-0.30208 -1.02729,-0.55796 -1.84778,-0.7104 z"
         style="fill:#c15b5b;fill-opacity:1;stroke:#ffffff;stroke-width:0.8234517px;stroke-linecap:butt;stroke-linejoin:miter;stroke-opacity:0" />
      <path
         id="path5855"
         d="m 484.28125,375.71875 c -4.0558,0.1228 -1.61849,3.9768 -1.375,4.59375 0.97279,2.09347 1.29561,4.39968 1.09375,6.6875 -0.16554,2.51398 0.0912,5.02496 0.8125,7.4375 0.65934,2.7582 0.92165,5.6819 0.125,8.4375 -0.5196,2.15079 1.74803,2.3038 3.125,2.96875 0.38953,0.20515 0.78586,0.45138 1.15625,0.6875 1.0777,-1.87268 2.21917,-3.95528 3.4375,-6.21875 -1.30406,-0.13287 -2.67684,-0.27863 -3.28125,-1.53125 -0.3248,-1.69085 0.24723,-3.54619 -0.75,-5.0625 1.63636,-0.54846 3.58838,1.03477 5.25,1.5625 0.34699,0.18251 0.73976,0.40199 1.125,0.5625 0.70931,-1.36214 1.41779,-2.7286 2.125,-4.125 0.0272,-0.86188 -0.23597,-1.55707 -1.5,-1.65625 -2.20646,-0.99984 -5.73846,-0.56016 -7.09375,-2.59375 0.19759,-1.59769 0.17537,-4.14758 2.21875,-4.4375 1.80235,0.0842 2.59443,2.19535 4.34375,2.5625 1.23644,1.03928 0.44398,-1.66392 1.15625,-2.46875 0.49758,-1.67914 1.27398,-4.24077 -1.0625,-4.875 -2.71618,-1.39385 -5.82933,-1.69066 -8.75,-2.34375 -0.86958,-0.15501 -1.57685,-0.20504 -2.15625,-0.1875 z"
         style="fill:#c15b5b;fill-opacity:1;stroke:#ffffff;stroke-width:1px;stroke-linecap:butt;stroke-linejoin:miter;stroke-opacity:0"
         inkscape:connector-curvature="0" />
      <path
         inkscape:connector-curvature="0"
         id="path5897"
         d="m 409.92092,459.80343 c -4.08044,2.20939 3.08084,-2.81822 -1.76776,1.06066 -1.83951,1.47161 1.95728,5.82089 4.24264,3.53554 0.17677,-0.17678 0.88388,0.17678 1.06066,0 2.52904,-2.52904 0.70182,-7.13861 -3.53554,-4.5962 z"
         style="fill:#c15b5b;fill-opacity:1;stroke:#ffffff;stroke-width:1px;stroke-linecap:butt;stroke-linejoin:miter;stroke-opacity:0" />
      <path
         inkscape:connector-curvature="0"
         id="path5899"
         d="m 413.81001,452.73237 c -0.4714,0.11785 -1.29636,0.82495 -1.41421,0.35355 -0.11785,-0.4714 1.90012,-0.35355 1.41421,-0.35355 -3.58328,0 -3.22437,4.59619 0.70711,4.59619 0.21575,0 1.27645,0.13776 1.41421,0 2.07981,-2.07981 1.76454,-5.37336 -2.12132,-4.59619 z"
         style="fill:#c15b5b;fill-opacity:1;stroke:#ffffff;stroke-width:1px;stroke-linecap:butt;stroke-linejoin:miter;stroke-opacity:0" />
      <path
         id="path5938"
         d="m 490.03125,405.09375 c -5.27265,1.03546 -10.35072,3.69447 -15.0625,8.40625 -8.00323,8.00323 -10.06389,34.09514 -15.5625,39.59375 -1.9019,1.9019 -6.35436,3.54186 -8.46875,5.65625 -1.81514,1.81514 -1.48416,5.70291 -2.84375,7.0625 l -11.3125,11.3125 c -2.11439,2.11439 -6.56685,3.75435 -8.46875,5.65625 -0.66091,0.66091 -3.38983,6.29911 -6.15625,12.46875 0.0953,-0.0909 0.18886,-0.18886 0.28125,-0.28125 5.96236,-5.96236 19.32741,-16.95241 26.15625,-23.78125 15.21561,-15.21561 18.71323,-36.55699 34.5,-52.34375 0.59585,-0.59585 0.40781,-3.97031 1.1875,-4.75 1.08704,-1.08704 3.21132,-4.50011 5.75,-9 z"
         style="fill:#e9e5e9;fill-opacity:1;stroke:#ffffff;stroke-width:1px;stroke-linecap:butt;stroke-linejoin:miter;stroke-opacity:0"
         inkscape:connector-curvature="0" />
      <path
         sodipodi:nodetypes="ssccsccsscsscccsss"
         inkscape:connector-curvature="0"
         id="path5943"
         d="m 462.75,425.8125 c -1.72965,0.0432 -3.54581,1.35831 -6.25,4.0625 -3.0899,3.0899 -1.73205,10.27744 -1.5,10.5 0,8.00988 3.12836,0.62836 6,3.5 0.9167,0.91667 0.0833,3.58334 1,4.5 0.44781,0.44781 0.82574,0.96614 1.1875,1.5 0.27948,-0.53123 0.56663,-1.06066 0.84375,-1.59375 -0.92727,-1.02283 0.44351,-4.36899 -0.53125,-5.34375 -1.82552,-1.82551 -4.60649,-0.32524 -5.90625,-1.625 -1.8714,-1.87141 -0.68431,-9.57911 0,-8.0625 0.35886,-1.79433 2.36537,-5.04134 4.65625,-5.25 0.76363,-0.0696 3.56304,-0.56196 4.34375,0.21875 2.25336,2.25336 -0.22359,4.93266 1.65625,6.8125 0.12047,0.12048 1.08407,1.06185 2.0625,2.125 0.4085,-0.76047 0.8297,-1.52505 1.25,-2.28125 -0.77687,-0.77322 -1.42693,-1.36443 -1.5625,-1.5 -1,-1 1,-5 0,-6 -2.3772,-2.3772 -5.52035,-1.60575 -7.25,-1.5625 z"
         style="fill:#c15b5b;fill-opacity:1;stroke:#ffffff;stroke-width:1px;stroke-linecap:butt;stroke-linejoin:miter;stroke-opacity:0" />
      <path
         id="path5951"
         d="m 466.03125,432.5625 c -0.0235,-0.003 -0.0507,0.0118 -0.0625,0.0312 -0.0654,0.1071 0.0559,0.58046 0.53125,1.53125 0.41679,0.83358 0.22396,1.16943 0.5,1.75 -0.33333,0.25 0.5,0.66667 0.75,1 0.092,0.092 0.062,-0.0315 0,-0.1875 0.18987,-1.67995 -1.36613,-4.08738 -1.71875,-4.125 z m -3.375,0.96875 c -0.0632,0.007 -0.10696,0.0445 -0.15625,0.0937 -0.40524,0.40524 2.73533,4.30451 3.5,5.25 0,-1.00485 -2.39607,-5.44396 -3.34375,-5.34375 z m -3.5625,2.5 c -0.0589,0.0145 -0.0937,0.052 -0.0937,0.0937 0,0.28221 4.88858,4.45695 5.25,5.25 -0.84868,-2.12171 -2.06368,-2.87736 -3,-4.75 -0.091,-0.18192 -1.74406,-0.69494 -2.15625,-0.59375 z m 9.6875,0.5 c -0.28526,-0.003 -0.70722,0.19563 -0.78125,0.34375 -0.75825,1.51651 -1.45439,2.9544 -2.75,4.25 -0.24034,0.24035 -0.17913,0.92913 -0.5,1.25 -0.20506,0.20506 -0.60042,0.47542 -1,0.75 -0.25,-0.33333 -0.66667,0.5 -1,0.75 -0.003,0.0165 0.003,0.0446 0,0.0625 0.0376,7.7e-4 0.12068,-0.0514 0.21875,-0.0937 0.3669,0.0752 0.6447,0.79932 1.03125,1.03125 0.11354,0.0681 0.19132,-1.19132 0.75,-1.75 0.82519,-0.82519 2.5,-2.6564 2.5,-3.5 0,-0.33086 2.4543,-2.29569 1.75,-3 -0.0482,-0.0483 -0.12366,-0.0927 -0.21875,-0.0937 z M 462.75,443.9375 c -0.008,-1.6e-4 -0.0272,0.002 -0.0312,0 -0.095,0.0894 -0.0861,0.21281 0,0.375 2.3e-4,-0.14459 0.0142,-0.26694 0.0312,-0.375 z m -0.0312,0.375 c -10e-4,0.69763 0.18576,1.658 0.53125,1.3125 0.29644,-0.29643 -0.30435,-0.88493 -0.53125,-1.3125 z"
         style="fill:#c15b5b;fill-opacity:1;stroke:#ffffff;stroke-width:1px;stroke-linecap:butt;stroke-linejoin:miter;stroke-opacity:0"
         inkscape:connector-curvature="0" />
      <path
         id="path5961"
         d="m 486.03125,411.71875 c -2.85499,1.05235 -6.18754,2.40625 -7.03125,2.40625 -1.9731,0 -4.23196,2.13839 -6.5,2.5 0.28382,0.56765 0.30124,1.30124 0.75,1.75 0.27035,0.27035 2.23702,-0.99351 2.75,-1.25 0.49371,-0.24686 2.36552,-1.15291 4.28125,-2 0.48357,1.11977 0.95288,3.33633 1.375,5.1875 0.15847,-0.16961 0.33894,-0.33155 0.5,-0.5 -0.39872,-1.66157 -0.72146,-3.41987 -1.75,-4.75 1.8884,-0.83217 3.75768,-1.56865 4.4375,-1.65625 0.33296,-0.42325 0.75567,-1.03855 1.1875,-1.6875 z"
         style="fill:#c15b5b;fill-opacity:1;stroke:#ffffff;stroke-width:1px;stroke-linecap:butt;stroke-linejoin:miter;stroke-opacity:0"
         inkscape:connector-curvature="0" />
    </g>
  </g>
</svg>
