<?xml version="1.0" encoding="UTF-8" standalone="no"?>
<!-- Created with Inkscape (http://www.inkscape.org/) -->
<svg
   xmlns:dc="http://purl.org/dc/elements/1.1/"
   xmlns:cc="http://creativecommons.org/ns#"
   xmlns:rdf="http://www.w3.org/1999/02/22-rdf-syntax-ns#"
   xmlns:svg="http://www.w3.org/2000/svg"
   xmlns="http://www.w3.org/2000/svg"
   xmlns:sodipodi="http://sodipodi.sourceforge.net/DTD/sodipodi-0.dtd"
   xmlns:inkscape="http://www.inkscape.org/namespaces/inkscape"
   width="744.09448819"
   height="1052.3622047"
   id="svg2"
   sodipodi:version="0.32"
   inkscape:version="0.46"
   sodipodi:docname="favicon.svg"
   inkscape:output_extension="org.inkscape.output.svg.inkscape">
  <defs
     id="defs4">
    <inkscape:perspective
       sodipodi:type="inkscape:persp3d"
       inkscape:vp_x="0 : 526.18109 : 1"
       inkscape:vp_y="0 : 1000 : 0"
       inkscape:vp_z="744.09448 : 526.18109 : 1"
       inkscape:persp3d-origin="372.04724 : 350.78739 : 1"
       id="perspective10" />
  </defs>
  <sodipodi:namedview
     id="base"
     pagecolor="#ffffff"
     bordercolor="#666666"
     borderopacity="1.0"
     gridtolerance="10000"
     guidetolerance="10"
     objecttolerance="10"
     inkscape:pageopacity="0.0"
     inkscape:pageshadow="2"
     inkscape:zoom="1.979899"
     inkscape:cx="267.16622"
     inkscape:cy="520"
     inkscape:document-units="px"
     inkscape:current-layer="layer1"
     showgrid="false"
     inkscape:window-width="1438"
     inkscape:window-height="898"
     inkscape:window-x="0"
     inkscape:window-y="0" />
  <metadata
     id="metadata7">
    <rdf:RDF>
      <cc:Work
         rdf:about="">
        <dc:format>image/svg+xml</dc:format>
        <dc:type
           rdf:resource="http://purl.org/dc/dcmitype/StillImage" />
      </cc:Work>
    </rdf:RDF>
  </metadata>
  <g
     inkscape:label="Layer 1"
     inkscape:groupmode="layer"
     id="layer1">
    <path
       style="fill:#f33636;fill-opacity:1;fill-rule:evenodd;stroke:#000000;stroke-width:1px;stroke-linecap:butt;stroke-linejoin:miter;stroke-opacity:1"
       d="M 300.02838,405.87928 C 299.61225,406.08735 299.29732,406.07908 298.99713,406.37928 C 297.33245,408.04396 295.75071,408.67349 293.43463,410.41053 C 291.32552,411.99236 290.19657,413.04519 287.40338,414.44178 C 285.95704,415.16495 283.98928,416.32463 282.34088,417.97303 C 280.87464,419.43927 279.24236,420.57155 277.77838,422.03553 C 276.25547,423.55844 274.57928,425.40071 272.24713,426.56678 C 269.73341,427.82363 269.03127,429.42471 266.68463,430.59803 C 264.57022,431.65523 263.69949,433.37183 261.12213,434.66053 C 259.05088,435.69615 256.98046,436.77095 255.55963,438.19178 C 253.79684,439.95457 252.88694,441.04374 250.52838,442.22303 C 248.34694,443.31375 246.66995,444.05021 244.96588,445.75428 C 243.28589,447.43426 240.6968,448.52335 238.90338,450.31678 C 237.4292,451.79096 234.78708,452.90182 232.84088,454.84803 C 230.97543,456.71347 228.48517,459.80715 226.27838,460.91053 C 224.13355,461.98295 222.38436,463.30454 220.71588,464.97303 C 218.96417,466.72474 217.11075,468.04692 215.65338,469.50428 C 213.86026,471.2974 211.76264,472.43015 209.62213,474.03553 C 207.15925,475.88269 205.64058,476.50826 203.02838,478.59803 C 202.18658,479.27147 201.37017,479.95583 200.52838,480.62928 C 199.34284,481.22205 197.72515,482.43946 196.96588,482.62928 C 195.27173,483.05282 192.63314,483.95461 192.93463,485.16053 C 193.47914,487.33858 194.3458,488.24268 194.96588,490.72303 C 195.53705,493.00772 195.34483,494.80134 195.96588,497.28553 C 196.63804,499.97418 197.79683,501.54686 198.49713,504.34803 C 199.14559,506.94189 200.4761,508.70136 201.02838,510.91053 C 201.62348,513.29094 202.47775,515.84054 203.55963,518.00428 C 204.69865,520.28232 205.45766,522.80033 206.59088,525.06678 C 207.74045,527.36592 208.65547,530.19597 209.62213,532.12928 C 210.96507,534.81516 211.77151,537.45926 213.15338,540.22303 C 214.27032,542.4569 215.04594,544.85577 215.65338,547.28553 C 216.18127,549.39709 216.70708,552.89287 217.68463,554.84803 C 218.52376,556.52629 219.54037,558.20846 220.21588,560.91053 C 220.88581,563.59025 221.55837,565.24918 222.24713,568.00428 C 222.78606,570.15997 223.25191,573.57632 224.24713,575.56678 C 224.96592,577.00435 225.4159,579.40427 226.27838,581.12928 C 226.97529,582.52311 227.48753,584.54762 228.30963,586.19178 C 229.26182,588.09615 230.40237,590.59394 230.80963,592.22303 C 231.00052,592.98659 232.74786,599.81677 233.84088,599.81678 C 236.42967,599.81678 238.37964,599.31676 240.93463,599.31678 C 243.29165,599.31678 245.6401,599.31676 247.99713,599.31678 C 250.13308,599.31678 252.99735,598.80119 255.05963,599.31678 C 257.27726,599.87119 259.6394,599.81677 262.12213,599.81678 C 264.81587,599.81678 267.52213,599.81677 270.21588,599.81678 C 273.75141,599.81678 277.27409,599.81677 280.80963,599.81678 C 283.33501,599.81678 285.878,599.81677 288.40338,599.81678 C 291.29058,599.81678 292.57429,599.31676 295.46588,599.31678 C 297.99127,599.31678 300.53424,599.31676 303.05963,599.31678 C 305.41665,599.31678 307.76509,599.31676 310.12213,599.31678 C 312.64751,599.31678 315.15924,599.31676 317.68463,599.31678 C 320.45096,599.31678 321.83925,598.81675 324.77838,598.81678 C 327.47212,598.81678 330.14714,598.81675 332.84088,598.81678 C 335.62686,598.81678 338.42896,598.81675 340.93463,598.81678 C 343.29165,598.81678 345.6401,598.81675 347.99713,598.81678 C 350.55215,598.81678 352.6783,599.31676 355.05963,599.31678 C 357.43602,599.31678 359.80117,600.40483 362.15338,599.81678 C 362.82682,599.64842 363.47994,599.48512 364.15338,599.31678 C 364.15338,598.98006 364.07171,598.61221 364.15338,598.28553 C 364.51409,596.84267 364.76124,593.56981 365.68463,591.72303 C 366.77537,589.54154 367.68369,587.28923 368.21588,585.16053 C 368.72435,583.12664 369.14439,580.88393 369.71588,578.59803 C 370.18235,576.73215 370.63566,574.85633 371.21588,572.53553 C 371.82849,570.08508 372.70584,568.13823 373.24713,565.97303 C 373.72189,564.07401 374.66029,562.38293 375.27838,559.91053 C 375.70224,558.21509 376.70199,556.15356 377.27838,553.84803 C 377.89741,551.37193 379.25177,550.01703 379.80963,547.78553 C 380.46915,545.14748 380.67581,543.55316 381.84088,541.22303 C 382.72359,539.4576 383.29448,536.97113 383.87213,534.66053 C 384.34536,532.76763 384.38145,530.06073 384.87213,528.09803 C 385.40003,525.98646 385.92581,522.45944 386.90338,520.50428 C 388.00038,518.31029 388.9056,515.43287 389.40338,513.44178 C 390.00528,511.03419 391.32795,508.80604 391.93463,506.37928 C 392.44348,504.34389 393.35926,502.03001 394.46588,499.81678 C 395.60373,497.54109 396.43029,496.02163 396.99713,493.75428 C 397.4758,491.83959 398.94198,490.53733 399.52838,488.19178 C 399.73808,487.35298 402.07724,479.59803 401.52838,479.59803 C 401.19166,479.26131 401.00458,478.59803 400.52838,478.59803 C 400.36002,478.59803 400.17897,478.67333 400.02838,478.59803 C 397.91124,477.53946 397.19855,476.68313 394.96588,475.56678 C 392.49849,474.33308 390.07224,473.66218 387.90338,472.03553 C 385.33996,470.11297 382.63827,467.80169 380.30963,465.47303 C 378.47987,463.64327 376.03058,461.69397 374.24713,459.91053 C 371.97264,457.63604 370.16596,455.709 367.68463,453.84803 C 365.23085,452.00769 363.36218,451.02559 361.12213,448.78553 C 359.59153,447.25493 357.06999,445.00945 354.55963,443.75428 C 352.65965,442.80429 351.41975,441.43433 348.99713,440.22303 C 347.25516,439.35204 344.74365,437.56504 342.93463,436.66053 C 340.5898,435.48811 338.24112,434.31376 335.87213,433.12928 C 333.89751,432.14197 329.86238,430.65078 328.30963,429.09803 C 326.34585,427.13424 325.15335,426.87145 322.74713,425.06678 C 320.91211,423.69051 318.47272,421.84535 316.68463,420.50428 C 315.23221,419.41497 313.07665,417.42757 311.62213,415.97303 C 310.27699,414.62789 308.87227,413.40282 307.59088,412.44178 C 305.54465,410.90711 302.67999,407.2051 300.02838,405.87928 z M 300.02838,423.03553 C 300.87017,423.37225 302.52839,423.12888 302.52838,424.03553 C 302.52838,424.20388 302.37781,424.49148 302.52838,424.56678 C 304.29353,425.44936 306.01971,426.66982 307.09088,428.09803 C 307.95497,429.25014 310.0593,432.34785 311.62213,433.12928 C 313.52249,434.07946 314.49245,435.56445 316.68463,436.66053 C 319.21344,437.92494 320.56116,440.13004 322.74713,441.22303 C 324.40951,442.05422 326.99129,443.93595 328.80963,445.75428 C 330.69246,447.63711 332.9893,448.93394 334.87213,450.81678 C 336.3557,452.30034 338.70878,454.91658 340.43463,455.34803 C 342.48896,455.86162 343.59338,456.9749 345.46588,458.37928 C 347.17197,459.65885 349.6518,461.06521 351.02838,462.44178 C 352.15106,463.56446 353.31413,465.22752 354.55963,466.47303 C 355.85197,467.76538 357.24852,468.63065 359.12213,470.50428 C 360.54055,471.9227 362.00429,473.49225 364.15338,474.56678 C 365.97487,475.47753 368.11158,476.49374 369.21588,477.59803 C 370.48226,478.86441 371.75269,479.63483 373.24713,481.12928 C 374.84875,482.73091 375.61222,485.61119 377.80963,486.16053 C 377.57736,487.0896 377.69577,487.35697 377.27838,488.19178 C 376.42858,489.89138 375.3665,491.90179 374.77838,494.25428 C 374.20339,496.55424 373.80198,499.70711 372.74713,501.81678 C 371.88076,503.54952 371.3251,506.47367 370.71588,508.91053 C 370.19083,511.01073 369.29086,513.17306 368.71588,515.47303 C 368.14689,517.74898 367.66431,520.07613 366.68463,522.03553 C 365.86073,523.68333 364.73398,526.77561 364.15338,529.09803 C 363.54204,531.54337 362.73262,533.84364 362.15338,536.16053 C 361.48178,538.84694 361.29047,540.58094 360.62213,543.25428 C 359.97106,545.85857 359.74934,547.808 359.12213,550.31678 C 358.60109,552.40097 357.09088,555.21664 357.09088,557.37928 C 357.09088,559.83964 356.22264,561.821 355.55963,564.47303 C 354.92584,567.00819 354.11909,569.29767 353.55963,571.53553 C 352.98108,573.84975 352.02837,576.2841 352.02838,578.59803 C 352.02838,579.61853 351.54495,586.69181 349.52838,586.69178 C 348.45152,586.42256 347.78692,586.69181 346.49713,586.69178 C 343.97174,586.69178 341.42875,586.69181 338.90338,586.69178 C 337.07632,586.69178 334.46744,586.72343 332.34088,586.19178 C 330.09765,585.63097 327.76161,585.66053 325.27838,585.66053 C 322.92136,585.66053 320.54165,585.66053 318.18463,585.66053 C 315.65924,585.66053 313.1475,585.66053 310.62213,585.66053 C 308.09675,585.66053 305.585,585.66053 303.05963,585.66053 C 300.77594,585.66053 297.66834,585.10992 295.46588,585.66053 C 293.72014,586.09697 290.88571,586.19179 288.40338,586.19178 C 285.878,586.19178 283.335,586.19179 280.80963,586.19178 C 278.55074,586.19178 275.44555,586.7414 273.24713,586.19178 C 271.39976,585.72994 268.3151,585.12791 266.18463,585.66053 C 264.701,586.03144 261.74546,586.69181 259.62213,586.69178 C 256.97026,586.69178 255.77044,587.19175 253.02838,587.19178 C 249.93331,587.19178 247.87891,585.66053 244.46588,585.66053 C 244.06179,585.12175 242.43463,583.69054 242.43463,582.62928 C 242.43463,579.9449 241.3742,578.85632 240.93463,577.09803 C 240.46138,575.20505 238.99593,573.4057 238.40338,571.03553 C 237.79812,568.61446 236.87151,566.47181 235.87213,564.47303 C 234.69598,562.12073 234.01925,560.59275 233.34088,557.87928 C 232.74488,555.49526 231.39186,553.14566 230.80963,550.81678 C 230.20237,548.38774 229.94535,546.52574 228.80963,544.25428 C 227.87959,542.39419 226.29565,540.26087 225.77838,538.19178 C 225.29448,536.25621 224.74546,533.62591 223.74713,531.62928 C 222.54682,529.22866 222.3845,527.74123 221.71588,525.06678 C 221.11108,522.64759 219.80127,520.34592 219.21588,518.00428 C 218.57536,515.44222 217.82352,513.9661 217.18463,511.41053 C 216.65124,509.27696 215.73321,508.19865 215.15338,505.87928 C 214.55846,503.49963 213.81797,502.20843 212.62213,499.81678 C 211.47683,497.52617 210.92305,491.74807 209.46588,491.37928 C 209.17511,491.49559 208.88165,491.60672 208.59088,491.72303 C 208.90959,491.40432 209.20943,491.31438 209.46588,491.37928 C 210.0169,491.15887 210.57111,490.94344 211.12213,490.72303 C 213.31628,489.84537 215.93701,488.5656 217.68463,487.69178 C 220.46559,486.3013 222.24712,485.41054 224.74713,484.16053 C 226.81016,483.12902 228.45648,481.98241 229.80963,480.62928 C 231.33585,479.10305 233.64498,477.93036 235.37213,477.06678 C 237.78769,475.859 238.74397,474.17853 240.93463,472.53553 C 242.88378,471.07366 244.54571,469.42446 245.96588,468.00428 C 247.81897,466.15119 249.50493,464.96522 251.02838,463.44178 C 252.9761,461.49407 256.12719,460.0083 257.59088,458.91053 C 259.39885,457.55455 260.51892,456.95126 262.12213,455.34803 C 263.74349,453.72667 266.43509,452.56632 268.18463,450.81678 C 270.2259,448.77551 271.50543,448.52725 273.74713,446.28553 C 275.49779,444.53487 277.39365,443.43101 279.80963,442.22303 C 281.91858,441.16856 284.09706,438.96684 285.37213,437.69178 C 285.63833,437.42559 285.70377,436.99725 285.87213,436.66053 C 286.59721,435.21039 290.15145,432.91245 291.43463,431.62928 C 292.97778,430.08613 294.16518,429.39873 295.46588,428.09803 C 296.64439,426.91951 297.81862,425.74528 298.99713,424.56678 C 299.43055,424.13336 299.67841,423.56046 300.02838,423.03553 z"
       id="path2399" />
    <path
       style="fill:#f33636;fill-opacity:1;fill-rule:evenodd;stroke:#000000;stroke-width:1px;stroke-linecap:butt;stroke-linejoin:miter;stroke-opacity:1"
       d="M 248.26981,515.99455 C 245.86067,517.21137 250.2455,521.02645 251.46232,523.43559 C 252.52581,525.54114 254.668,526.10107 256.2213,527.2562 C 258.16841,528.70422 260.75906,528.59305 262.5513,528.58578 C 264.70613,528.57702 264.55512,525.92191 265.01942,524.50993 C 265.63593,522.63508 266.36367,521.79479 266.35358,519.30929 C 266.34434,517.03615 267.07295,515.27622 266.55377,512.98389 C 266.12768,511.1026 264.97089,508.72969 263.81668,506.44451 C 262.61519,504.06572 260.17769,502.42109 258.5977,500.59284 C 256.90916,498.639 255.12729,498.1132 252.03999,498.81244 C 250.15691,499.23894 249.553,503.5721 249.35334,504.6962 C 248.98295,506.78133 248.23943,508.51089 248.24687,510.34766 C 248.25696,512.82831 247.37403,512.7618 248.26981,515.99455 z"
       id="path2411" />
    <path
       style="fill:#f33636;fill-opacity:1;fill-rule:evenodd;stroke:#000000;stroke-width:1px;stroke-linecap:butt;stroke-linejoin:miter;stroke-opacity:1"
       d="M 275.12709,478.1703 C 274.68561,479.41389 272.4175,483.10212 271.47965,485.7439 C 270.55677,488.3435 271.24519,492.10539 271.58815,494.89058 C 271.92761,497.64744 272.1594,500.46589 273.07705,502.8495 C 274.03815,505.34592 275.73847,507.67421 276.94897,509.4972 C 278.50897,511.84653 280.15999,512.91034 281.57655,514.01629 C 283.68056,515.65895 286.13243,512.8237 286.90557,511.83343 C 288.42762,509.88391 290.48272,508.41232 291.86422,506.64283 C 293.64487,504.36207 294.00365,500.29085 294.3239,497.68881 C 294.7554,494.18289 293.91259,490.21572 293.46721,486.5987 C 293.08886,483.52607 292.27216,481.02627 291.91657,478.13849 C 291.57598,475.37253 288.53903,474.14226 287.22726,473.11811 C 285.81091,472.01232 281.29891,474.61439 280.83394,474.92314 C 278.9695,476.16115 277.67959,476.76583 275.12709,478.1703 z"
       id="path2413" />
    <path
       style="fill:#f33636;fill-opacity:1;fill-rule:evenodd;stroke:#000000;stroke-width:1px;stroke-linecap:butt;stroke-linejoin:miter;stroke-opacity:1"
       d="M 307.84295,473.02328 C 304.99892,474.38762 303.71192,481.78163 303.10795,484.56414 C 302.22255,488.64316 301.96874,492.44794 301.89973,496.66785 C 301.85548,499.37455 302.70071,502.81245 303.27438,505.27777 C 304.01251,508.44986 305.75847,509.89862 308.20885,512.43047 C 309.83505,514.11073 310.05841,514.98644 313.21766,515.0381 C 315.70178,515.07872 318.97614,512.4864 320.85885,511.12189 C 323.05824,509.52785 324.7567,506.4276 326.52955,504.1426 C 328.58543,501.49283 328.39969,496.67588 329.22802,493.57871 C 330.21393,489.8923 329.34316,486.53682 329.40142,482.97353 C 329.44119,480.54182 326.5433,477.55965 324.9637,476.33409 C 322.9005,474.73333 321.19507,473.42413 318.45639,472.69168 C 315.60641,471.92946 314.37688,472.50902 311.88302,473.08934 C 311.15106,473.25966 307.97771,473.02547 307.84295,473.02328 z"
       id="path2415" />
    <path
       style="fill:#f33636;fill-opacity:1;fill-rule:evenodd;stroke:#000000;stroke-width:1px;stroke-linecap:butt;stroke-linejoin:miter;stroke-opacity:1"
       d="M 345.68235,504.85509 C 342.84518,503.68633 338.95137,506.74663 337.02651,508.17861 C 334.77911,509.85054 333.20434,511.68085 331.57519,514.0146 C 330.42615,515.66062 329.99833,517.80062 329.62193,520.36419 C 329.20904,523.17626 330.52355,525.16621 331.73977,526.80106 C 333.78777,529.55396 335.04999,529.83953 338.36898,530.32685 C 340.98899,530.71155 342.91987,529.16691 344.8792,527.70929 C 347.36393,525.86079 348.73413,524.14046 349.90415,521.3002 C 350.76889,519.20109 350.67298,516.06389 351.00473,513.80442 C 351.38133,511.23952 350.42791,509.88309 349.81296,508.01404 C 349.41111,506.79268 347.36296,505.45561 345.68235,504.85509 z"
       id="path2419" />
    <path
       style="fill:#f33636;fill-opacity:1;fill-rule:evenodd;stroke:#000000;stroke-width:1px;stroke-linecap:butt;stroke-linejoin:miter;stroke-opacity:1"
       d="M 268.70058,533.14377 C 268.02715,533.48049 267.35371,533.81721 266.68028,534.15392 C 265.68738,534.65037 265.16505,539.26438 265.16505,540.71992 C 265.16505,543.22589 265.8479,545.62115 266.68028,547.28591 C 267.80471,549.53478 269.29357,551.44374 270.72089,553.34682 C 272.32474,555.48529 274.20389,556.85609 276.27672,557.89251 C 278.40475,558.95652 280.78848,559.91281 283.34779,559.91281 C 285.82612,559.91281 288.7623,560.41789 291.42901,560.41789 C 294.17244,560.41789 297.02603,560.92297 300.01531,560.92297 C 302.5601,560.92297 304.99579,560.92297 307.59145,560.92297 C 309.76889,560.92297 312.55107,560.44068 314.66252,559.91281 C 317.02365,559.32253 319.29481,558.37593 321.22851,557.89251 C 323.27736,557.3803 325.61986,555.52147 327.28943,553.8519 C 328.88398,552.25735 330.00326,549.93946 330.82496,548.29606 C 331.63652,546.67294 330.68039,542.66701 330.31989,541.22499 C 329.73538,538.88699 327.7753,537.16518 325.7742,535.16408 C 323.88757,533.27744 322.87643,532.23314 320.72344,530.61839 C 319.1111,529.40914 317.09403,528.80369 315.67267,528.09301 C 313.12461,526.81898 311.40782,526.64799 309.10668,526.0727 C 307.19453,525.59467 304.67194,523.85533 303.04577,523.04225 C 301.31064,522.17468 300.56515,521.52702 297.48993,521.52702 C 295.20787,521.52702 292.17321,523.42776 290.92394,524.0524 C 290.77335,524.12769 290.58722,524.0524 290.41886,524.0524 C 288.84574,524.0524 286.37399,525.82229 284.86302,526.57778 C 283.02734,527.49562 280.59811,527.70008 278.80211,528.59809 C 276.76656,529.61586 274.40686,529.78555 272.74119,530.61839 C 270.88224,531.54787 271.66084,530.77557 268.70058,533.14377 z"
       id="path2423" />
  </g>
</svg>
