<?xml version="1.0" encoding="UTF-8" standalone="no"?>
<!-- Created with Inkscape (http://www.inkscape.org/) -->

<svg
   xmlns:dc="http://purl.org/dc/elements/1.1/"
   xmlns:cc="http://creativecommons.org/ns#"
   xmlns:rdf="http://www.w3.org/1999/02/22-rdf-syntax-ns#"
   xmlns:svg="http://www.w3.org/2000/svg"
   xmlns="http://www.w3.org/2000/svg"
   xmlns:sodipodi="http://sodipodi.sourceforge.net/DTD/sodipodi-0.dtd"
   xmlns:inkscape="http://www.inkscape.org/namespaces/inkscape"
   width="744.09448819"
   height="1052.3622047"
   id="svg2"
   version="1.1"
   inkscape:version="0.48.1 r9760"
   sodipodi:docname="hat.svg"
   inkscape:export-filename="/home/substack/media/vector/hat.png"
   inkscape:export-xdpi="75"
   inkscape:export-ydpi="75">
  <defs
     id="defs4" />
  <sodipodi:namedview
     id="base"
     pagecolor="#ffffff"
     bordercolor="#666666"
     borderopacity="1.0"
     inkscape:pageopacity="0.0"
     inkscape:pageshadow="2"
     inkscape:zoom="1"
     inkscape:cx="328.56719"
     inkscape:cy="772.94033"
     inkscape:document-units="px"
     inkscape:current-layer="layer1"
     showgrid="false"
     inkscape:window-width="1364"
     inkscape:window-height="766"
     inkscape:window-x="0"
     inkscape:window-y="0"
     inkscape:window-maximized="0" />
  <metadata
     id="metadata7">
    <rdf:RDF>
      <cc:Work
         rdf:about="">
        <dc:format>image/svg+xml</dc:format>
        <dc:type
           rdf:resource="http://purl.org/dc/dcmitype/StillImage" />
        <dc:title></dc:title>
      </cc:Work>
    </rdf:RDF>
  </metadata>
  <g
     inkscape:label="Layer 1"
     inkscape:groupmode="layer"
     id="layer1">
    <path
       style="fill:#8b7d75;fill-opacity:1;stroke:#000000;stroke-width:3;stroke-linecap:round;stroke-linejoin:round;stroke-miterlimit:4;stroke-opacity:1;stroke-dasharray:none"
       d="m 281.54829,371.51937 c -3.79637,-23.24689 -4.04061,-48.88685 -4.04061,-74.75129 0,-1.11723 -2.19286,-4.70564 -1.01015,-7.07106 3.34359,-6.68718 2.02031,-21.62255 2.02031,-29.29443 0,-7.94221 -2.57854,-30.19826 0,-35.35534 3.786,-7.57201 -2.12534,-38.28076 3.03045,-43.43656 1.33831,-1.3383 -1.34527,-37.71554 3.03046,-46.46701 0.74438,-1.48877 3.03273,-2.02258 4.04061,-3.03046 7.1206,-7.1206 15.65181,-11.6112 22.22336,-18.18275 2.35043,-2.35043 8.81149,-3.76073 11.11168,-6.06092 1.92254,-1.92254 7.22699,-2.17623 9.09137,-4.04061 2.6431,-2.6431 15.14166,-1.01015 19.1929,-1.01015 10.77544,0 35.81934,-4.313686 44.44671,0 10.71536,5.35768 32.8582,11.645 39.39595,18.18275 8.09639,8.09639 -0.13234,23.97898 4.04061,32.32488 5.36451,10.72903 8.08122,84.42651 8.08122,102.02541 0,11.66022 3.49123,25.62599 7.07107,36.36549 0.7071,2.12132 -0.70711,4.94975 0,7.07107 3.61034,10.83102 5.05076,24.93824 5.05076,36.36549 0,1.74202 3.1588,23.23351 2.0203,23.23351 -1.59454,0 -1.01015,-7.45646 -1.01015,-9.09137"
       id="path3517"
       inkscape:connector-curvature="0" />
    <path
       style="fill:#7d7069;stroke:none;stroke-width:1px;stroke-linecap:butt;stroke-linejoin:miter;stroke-opacity:1;fill-opacity:1"
       d="m 298.5,237.36218 c -0.45166,-1.84101 6.53557,-4.30336 10,-9.5 0.59627,-0.8944 0.23069,-3.73069 0.5,-4 1.79497,-1.79497 5.61729,-2.61729 7.5,-4.5 1.40423,-1.40423 -3.26011,-6.73988 -1.5,-8.5 0.3238,-0.3238 1.05556,0.5 1.5,0.5 6.24165,0 3.56359,9.12718 5.5,13 1.08052,2.16104 4.47555,0.9511 5.5,3 1.4472,2.89439 -4,10.91259 -4,14 0,4.01241 1.14428,5.14429 4,8 0.41848,0.41848 2.875,0.75 2.5,1.5 -0.33854,0.67708 -13.95089,3.18036 -16,4 -3.8946,1.55784 -4.95131,2.95131 -7,5 -2.78326,2.78326 6.04915,4.02458 8,5 1.25038,0.62519 1.15337,2.42331 0,3 -6.5895,3.29475 -22.75935,4.0187 -26.5,11.5 -2.11607,4.23215 8.27733,6.27734 9.5,7.5 0.22988,0.22988 0.8034,1.6068 1,2 0.8379,1.6758 -2.2804,5.7804 -3,6.5 -2.2184,2.2184 11.9524,14.5 -5,14.5 -1.02198,0 -2.68123,0.90939 -3.5,0.5 -3.86716,-1.93358 -3.75549,-5.77742 -4.5,-9.5 -0.33724,-1.68618 -4.15772,-13.68457 -3.5,-15 1.07252,-2.14503 1.92357,-4.34713 3,-6.5 1.57229,-3.14459 -0.32429,-9.85142 1.5,-13.5 0.66667,-1.33333 -0.66667,-3.66666 0,-5 1.04178,-2.08355 2,-6.52387 2,-8.5 0,-5.6477 7.48473,-5.46946 10,-10.5 0.41931,-0.83862 5,-8.01364 5,-3"
       id="path4535"
       inkscape:connector-curvature="0" />
    <path
       style="fill:#ffffff;stroke:#000000;stroke-width:3;stroke-linecap:butt;stroke-linejoin:miter;stroke-opacity:1;stroke-miterlimit:4;stroke-dasharray:none"
       d="m 367,358.36218 c 0,-6.65532 2.12353,-30.75294 1,-33 -1.994,-3.98788 -3.70537,-13.88389 -2,-19 1.9014,-5.70417 -0.66422,-16.67155 2,-22 2.9511,-5.90225 3,-16.87643 3,-23 0,-0.22674 5.559,-12.559 6,-13 2.07844,-2.07843 14,-55.74268 14,-60 0,-5.7367 7.46747,-37.53253 5,-40 -0.69297,-0.69297 -8.97108,2.48554 -10,3 -15.90464,7.95232 -37.40173,-1.14531 -54,2 2.63479,9.77076 11.66125,59.66126 15,63 1.58729,1.58729 2.35178,17.70356 4,21 1.61322,3.22643 6.67119,17.65762 5,21 -4.15492,8.30984 -7.73032,18.19096 -11,28 -1.81337,5.44011 -1.45819,11.91639 -4,17 -1.12661,2.25323 -0.17535,6.52604 -1,9 -3.8934,11.68019 -4.11859,30.23717 -9,40 7.81495,4.38402 16.24114,4.08038 25,7 3.09264,1.03088 8.63716,-2.01265 11,-1 1.37018,0.58722 1.33333,2.66667 2,4"
       id="path4371"
       inkscape:connector-curvature="0" />
    <path
       style="fill:none;stroke:#000000;stroke-width:3;stroke-linecap:butt;stroke-linejoin:miter;stroke-opacity:1;stroke-miterlimit:4;stroke-dasharray:none"
       d="m 360.62446,186.15638 c -1.07538,11.67959 3.53553,22.09752 3.53553,33.23401 0,4.53437 -0.7071,11.33965 -0.7071,16.26346 0,3.6757 0.60465,12.12327 -1.41422,14.14214 -0.18717,0.18717 0,1.83015 0,2.12132 0,5.56531 -0.42202,12.15775 -2.82843,16.97056 -1.23873,2.47748 1.00403,13.95848 -0.7071,19.09188 -1.21987,3.65961 -0.0579,12.6122 1.41421,15.55635 1.07936,2.15871 -0.17831,18.91358 0,19.09188 0.72996,0.72996 2.12132,13.40541 2.12132,16.97057"
       id="path4420"
       inkscape:connector-curvature="0" />
    <path
       style="fill:#ff5555;stroke:#000000;stroke-width:3;stroke-linecap:round;stroke-linejoin:round;stroke-miterlimit:4;stroke-opacity:1;stroke-dasharray:none"
       d="m 330.21886,180.49953 c 0.21132,1.93044 2.82843,9.57416 2.82843,17.67767 0,1.96269 1.41421,2.82254 1.41421,4.94974 0,1.30956 0.84987,5.09251 1.41421,5.65686 0.23571,0.2357 -1.04044,0.70711 -0.7071,0.70711 6.06769,0 17.27287,-7.37338 20.50609,-10.60661 0.47141,-0.4714 2.35703,0.47141 2.82843,0 5.86193,-5.86192 18.75781,6.90403 21.92031,8.48528 3.68388,1.84194 8.78762,2.42367 11.31371,4.94975 1.01379,1.0138 4.24264,-0.72661 4.24264,0.70711 0,0.99615 1.41421,-5.44104 1.41421,-10.6066 0,-8.89574 0.70711,-17.27815 0.70711,-26.16295 0,-3.66035 -6.77697,2.68138 -8.48528,3.53553 -4.79633,2.39816 -12.00273,4.93166 -14.84924,7.77818 -0.85732,0.85731 -4.22635,-0.0163 -4.94975,0.7071 -6.24756,6.24756 -29.85014,-5.8286 -39.59798,-7.77817 z"
       id="path4416"
       inkscape:connector-curvature="0" />
    <path
       style="fill:#ffffff;stroke:#000000;stroke-width:3;stroke-linecap:butt;stroke-linejoin:miter;stroke-opacity:1;stroke-miterlimit:4;stroke-dasharray:none"
       d="m 393.15137,172.72135 c 0,5.04036 -2.4161,11.8453 -3.53553,16.97056 -0.31318,-0.62636 -17.72706,-15.50696 -22.62742,-10.6066 -1.06066,1.06066 -3.18198,1.06066 -4.24264,2.12132 -0.70447,0.70446 -0.5607,2.82843 -2.12132,2.82843 -0.37961,0 -4.39508,-4.39509 -4.94975,-4.94975 -4.00194,-4.00194 -14.75793,5.99585 -16.97056,8.48528 -1.77441,-7.12098 -2.12132,-10.95598 -2.12132,-16.26346"
       id="path4399"
       inkscape:connector-curvature="0" />
    <path
       style="fill:#4d4d4d;fill-opacity:1;stroke:#000000;stroke-width:3;stroke-linecap:butt;stroke-linejoin:miter;stroke-opacity:1;stroke-miterlimit:4;stroke-dasharray:none"
       d="m 236.40033,361.07868 c 0,-3.52577 1.51241,-4.36955 3.57143,-6.42857 0.46827,-0.46827 0.35643,-2.49929 0.71428,-2.85715 1.55813,-1.55812 3.91068,-1.95533 5.71429,-2.85714 9.55532,-4.77766 12.55416,-5.71428 24.28572,-5.71428 8.55088,0 39.95907,-0.67337 46.42857,-7.14286 0.9606,-0.96061 4.64635,-0.36064 5.71428,-1.42857 0.76325,-0.76324 10.86412,-1.14634 12.85715,-2.14286 3.92567,-1.96283 8.18631,-3.02173 12.14285,-5 0.95239,-0.47619 2.61905,0.47619 3.57143,0 5.34215,-2.67107 12.18614,-3.10966 17.85715,-5 4.62686,-1.54229 16.47338,-0.37955 20,-2.14286 6.45667,-3.22833 15.91401,-1.42857 22.85714,-1.42857 11.35846,0 22.32848,0.0619 32.85714,3.57143 5.6793,1.8931 12.26309,0.99246 17.85714,2.85714 3.25339,1.08446 24.42557,3.71128 25.71429,5 3.12438,3.12439 11.36323,4.31045 10.71429,5 -3.70219,1.83856 -3.98739,6.13025 -6.42858,8.57143 -10.99991,10.99992 -43.50307,21.27204 -58.57142,24.28572 -18.27586,3.65517 -36.33739,12.11246 -53.57143,17.85714 -5.47907,1.82635 -11.72625,3.36312 -16.42857,5.71428"
       id="path3248"
       inkscape:connector-curvature="0" />
    <path
       style="fill:#ffffff;fill-opacity:1;stroke:#000000;stroke-width:3;stroke-linecap:butt;stroke-linejoin:miter;stroke-miterlimit:4;stroke-opacity:1;stroke-dasharray:none"
       d="m 341.54319,366.79296 c -0.24985,-4.16145 -3.45461,-18.62983 0.71429,-20.71428 1.63622,-0.81811 6.76161,-1.76162 7.85714,-2.85715 1.76852,-1.76852 -6.24967,-11.78506 -7.14286,-13.57143 -1.57818,-3.15637 6.4466,-2.86615 7.85715,-3.57142 2.89589,-1.44795 -1.87956,-5.97759 -1.42857,-6.42858 0.55163,-0.55163 10.25047,3.65492 12.14285,4.28572 5.59645,1.86548 10.32114,6.05943 15.71429,7.85714 8.96543,2.98848 20.8107,7.95356 25.71428,12.85714 2.00715,2.00715 6.13634,1.13634 7.85715,2.85715 0.0714,0.0714 0.0714,2.07143 0,2.14285 -3.69293,3.69293 -9.01602,8.05574 -12.85715,12.85715 -3.75318,4.69148 -6.51059,9.36774 -9.28571,12.14285 -0.59369,0.5937 1.31725,1.31726 1.42857,1.42858"
       id="path3286"
       inkscape:connector-curvature="0" />
    <path
       style="fill:#b3b3b3;fill-opacity:1;stroke:#000000;stroke-width:3;stroke-linecap:butt;stroke-linejoin:miter;stroke-opacity:1;stroke-miterlimit:4;stroke-dasharray:none"
       d="m 436.2321,404.83299 c -0.18974,0.96402 0.4081,3.0777 -0.56921,2.89207 -0.97731,-0.18565 1.23473,-3.6232 0.56921,-2.89207 -4.40791,4.84247 -4.36828,18.7129 -7.33147,25.43255 -2.89276,6.55996 -0.70489,15.88593 -4.70782,20.28352 -0.65741,0.72222 0.63917,3.35432 0.23121,4.27947 -1.86622,4.23206 -1.53722,8.28976 -3.64647,13.07291 -0.34468,0.78163 0.49882,2.07134 0.15414,2.85298 -2.62994,5.96394 -2.27723,13.83542 -6.27012,18.22194 -2.19967,2.41654 -13.80524,6.09929 -14.15866,6.48756 -1.60131,1.75917 -7.56279,1.50816 -9.2494,3.36103 -1.03383,1.13576 -5.35244,0.59107 -6.43305,1.77821 -7.45233,8.18702 -59.8359,4.72353 -70.35736,0.22454 -0.79213,-0.33871 -2.10128,0.49503 -2.8934,0.15632 -6.85209,-2.92997 -21.35486,-3.27586 -25.77957,-7.19115 -1.14576,-1.01384 -4.05228,-2.90658 -5.29464,-4.00591 -0.67564,-0.59784 -0.39512,-1.97777 -0.87748,-2.8139 -1.04578,-1.81271 -6.7373,-7.99906 -7.73443,-8.88138 -5.76688,-5.10296 -11.54562,-8.85808 -17.4462,-14.07932 -3.76887,-3.33495 10.30569,-49.8562 11.73101,-51.42204 0.97314,-1.06908 -0.45768,-8.4713 -0.46242,-8.55895"
       id="path3181"
       inkscape:connector-curvature="0" />
    <path
       style="fill:#ffffff;stroke:#000000;stroke-width:3;stroke-linecap:butt;stroke-linejoin:miter;stroke-miterlimit:4;stroke-opacity:1;stroke-dasharray:none"
       d="m 320.11462,369.65011 c -0.71429,-0.95238 -3.09524,-2.14286 -2.14286,-2.85715 0.95238,-0.71428 2.14286,4.04762 2.14286,2.85715 0,-2.71654 -9.27799,-10.00773 -7.14286,-12.14286 1.67098,-1.67098 9.74171,-2.85714 12.14286,-2.85714 0.42161,0 7.14286,-1.72754 7.14286,-1.42857 0,2.253 -1.47408,-5.13651 -2.14286,-7.14286 -1.30098,-3.90294 -2.85714,-12.23394 -2.85714,-13.57143 0,-0.55325 2.05386,1.33958 2.85714,2.14286 1.8257,1.8257 8.47392,2.58654 11.42857,3.57143 8.05328,2.68442 15.48421,1.42857 25.71429,1.42857 0.23973,0 2.82896,-1.45676 3.57142,-0.71429 1.01858,1.01858 -1.63925,-0.42136 -0.71428,1.42857 0.55545,1.11091 2.14286,2.27362 2.14286,3.57143 0,2.16655 5.96796,10.4606 5.71428,10.71429 -0.45308,0.45308 -2.26244,-0.29736 -2.85714,0 -6.66355,3.33177 -31.27664,9.13377 -32.85714,10.71428 -0.52288,0.52288 4.48877,4.8949 5,6.42857 1.27677,3.83033 2.21727,7.85715 7.14285,7.85715"
       id="path3261"
       inkscape:connector-curvature="0" />
    <path
       style="fill:#ffffff;fill-opacity:1;stroke:#000000;stroke-width:3;stroke-linecap:butt;stroke-linejoin:miter;stroke-miterlimit:4;stroke-opacity:1;stroke-dasharray:none"
       d="m 445.8289,366.07868 c -0.95238,-0.47619 -3.33333,-0.47619 -2.85714,-1.42857 0.47619,-0.95238 3.92194,1.42857 2.85714,1.42857 -2.1172,0 -17.14285,-13.66174 -17.14285,-15 0,-1.34876 5,-4.66265 5,-7.14286 0,-1.21405 -2.48555,-0.17134 -3.57143,-0.71428 -2.1776,-1.0888 -5.43716,-3.2943 -7.14286,-5 -0.22453,-0.22454 8.06923,-4.07363 7.14286,-5 -0.35339,-0.35339 -0.91858,0.71428 -2.14286,0.71428 -2.25436,0 -2.52236,-0.71428 -5,-0.71428 -2.8626,0 -6.09128,-2.33136 -8.57143,-3.57143 -0.5947,-0.29736 -2.40406,0.45308 -2.85714,0 -1.81269,-1.81269 -14.92999,-4.93 -18.57143,-8.57143 -0.40503,-0.40503 -2.19113,2.14286 -2.85714,2.14286 -2.34495,0 -8.47347,-0.81225 -10,0.71428 -1.06362,1.06362 4.65371,8.22514 5,8.57143 2.11295,2.11295 -8.31345,1.94453 -5,8.57143 0.93709,1.87418 3.03141,3.7457 4.28571,5 1.30096,1.30096 -3.3186,5.50566 -2.85714,6.42857 0.87293,1.74587 2.64348,1.71552 3.57143,3.57143 1.77357,3.54714 -4.93164,7.21121 0.71428,12.85714 0.71429,0.71429 2.14286,0.71429 2.85715,1.42857 0.0366,0.0366 -2.14286,6.56874 -2.14286,7.14286"
       id="path3278"
       inkscape:connector-curvature="0" />
    <path
       style="fill:#7d7069;stroke:none;stroke-width:1px;stroke-linecap:butt;stroke-linejoin:miter;stroke-opacity:1;fill-opacity:1"
       d="m 429.5,223.36218 c -5.60905,1.8691 5.07495,-3.28747 -3.5,1 -1.87849,0.93925 -8,1.7011 -8,4 0,2.20459 5.88106,4.73789 2,12.5 -0.50368,1.00736 -0.10594,3.10594 -1,4 -4.65263,4.65263 -11.54501,5.84834 -18,8 -7.58497,2.52833 -2.26824,15.96351 0,20.5 1.43198,2.86396 -4.93331,15.29993 -6,18.5 -0.95691,2.87073 -2.7367,5.85505 -4.5,8.5 -0.59197,0.88796 -2,3.56719 -2,2.5 0,-0.35384 1.13008,-0.31504 1.5,-0.5 2.21557,-1.10778 5.55993,-5.0799 7,-7 3.49452,-4.65936 8.42725,-10.71362 13,-13 1.10183,-0.55091 5.98027,3.49014 7,4 2.05996,1.02998 7.2714,-2.9238 9,-3.5 1.80564,-0.60188 6.31915,1.68085 7.5,0.5 1.47565,-1.47565 -5,-14.44863 -5,-18 0,-5.82243 1.08456,-8.19485 6.5,-10 0.85381,-0.2846 1.50806,-0.83064 2.5,-0.5 1.1387,0.37957 3.31082,1 4.5,1 0.21667,0 1,-0.61666 1,-0.5 0,0.12548 -2,-1.53637 -2,-4 0,-3.40162 -3,-6.71678 -3,-10.5 0,-5.31331 -6.04458,-6.08916 -8,-10 -0.72858,-1.45716 -0.18214,-5.91071 -0.5,-7.5 z"
       id="path4537"
       inkscape:connector-curvature="0" />
    <path
       style="fill:#8b7d75;fill-opacity:1;stroke:#000000;stroke-width:3;stroke-linecap:round;stroke-linejoin:round;stroke-miterlimit:4;stroke-opacity:1;stroke-dasharray:none"
       d="m 435.09148,211.91527 c 3.11914,6.23828 5.05076,18.45621 5.05076,32.32488 0,2.25388 1.43432,12.70782 0,14.14214 -1.40464,1.40464 -1.23192,4.26238 -3.03045,6.06091 -7.14701,7.14701 -5.64789,12.71896 -13.13199,20.20305 -2.19513,2.19513 -3.32756,6.35802 -6.06091,9.09137 -4.41338,4.41339 -7.90578,14.97685 -13.13198,20.20305 -0.66224,0.66224 -0.50407,3.53453 -1.01016,4.04061 -10.83636,10.83636 -20.61809,27.68916 -32.32488,39.39595 -1.87319,1.8732 -2.66745,6.70807 -4.04061,8.08122 -9.98786,9.98786 -14.73469,29.88699 -25.25381,40.40611 11.55442,8.29096 37.87469,14.44535 49.49747,19.19289 3.20819,-11.22866 5.46918,-22.52622 10.10153,-33.33503 3.73626,-8.71795 10.76941,-16.69342 16.16244,-24.24366 13.41848,-18.78588 24.86754,-39.41818 39.39595,-57.5787 6.28,-7.85 12.79933,-15.15839 18.18274,-23.2335 2.53893,-3.8084 6.15912,-4.23701 8.08122,-8.08122 0.33651,-0.67303 -8.73432,-65.18084 -9.09137,-67.68022 -1.18315,-8.28203 -1.18502,-16.90095 -2.02031,-25.25382 -1.95443,-19.54435 -11.17503,-38.91646 -18.18274,-56.56854 -4.78473,-3.61956 -20.99034,-17.39547 -26.26397,-12.12183"
       id="path3403"
       inkscape:connector-curvature="0"
       sodipodi:nodetypes="csssssssssccssssssscc" />
    <path
       style="fill:#ffffff;stroke:#000000;stroke-width:3;stroke-linecap:butt;stroke-linejoin:miter;stroke-miterlimit:4;stroke-opacity:1;stroke-dasharray:none"
       d="m 403.61116,362.89707 c -0.72311,1.11207 -30.57103,8.78843 -31.99965,7.75926 -0.61974,-0.44646 -1.16867,-5.94191 -1.7139,-7.39701 -2.06161,-5.50197 -7.68106,-12.62778 -8.48178,-17.55452 -0.10437,-0.64214 5.07133,-3.01937 6.07583,-3.54599 5.13722,-2.69324 7.44699,-7.15024 12.24508,-9.66569 2.04024,-1.06961 11.79631,-11.48674 13.17352,-13.39849 0.27834,-0.38637 0.44865,-1.43746 0.83502,-1.15912 0.34249,0.24673 0.36327,5.50872 1.13434,6.97949 1.74148,3.32179 7.04263,14.2065 11.40435,13.49761 4.62395,-1.63522 22.14499,3.65391 16.60132,1.39551 z"
       id="path3263"
       inkscape:connector-curvature="0"
       sodipodi:nodetypes="cssssssssccc" />
    <path
       style="fill:#ffffff;fill-opacity:1;stroke:#000000;stroke-width:3;stroke-linecap:butt;stroke-linejoin:miter;stroke-miterlimit:4;stroke-opacity:1;stroke-dasharray:none"
       d="m 298.68605,372.50725 c -1.08778,-1.67181 -7.16015,-9.98271 -6.42857,-10.71429 0.96834,-0.96834 8.61428,0.0857 7.14285,-2.85714 -1.01157,-2.02315 -3.34654,-3.34654 -4.28571,-4.28571 -2.16428,-2.16428 4.24994,-5.64273 5,-7.14286 0.60227,-1.20455 -0.9156,-4.79868 0,-5.71429 0.52055,-0.52055 2.15263,-0.72405 2.85714,-1.42857 1.32869,-1.32869 -2.1478,-5 -2.14286,-5 0.24884,0 7.69289,5.71429 13.57143,5.71429 0.70264,0 12.67977,-0.89166 12.85715,-0.71429 0.12104,0.12105 -2.98096,2.26668 -3.57143,2.85715 -2.82297,2.82296 -3.57143,5.31591 -3.57143,9.28571 0,2.36846 6.42857,1.121 6.42857,1.42857 0,2.61483 -5.58993,3.82015 -3.57143,7.85714 0.52616,1.05231 7.84313,4.29973 6.42857,5.71429 -3.52713,3.52713 -16.65819,3.68624 -22.14285,6.42857 -0.67175,0.33588 -3.77391,2.24597 -5,1.42857 -1.26851,-0.84567 -2.38096,-1.90476 -3.57143,-2.85714 z"
       id="path3282"
       inkscape:connector-curvature="0" />
    <path
       style="fill:#ffffff;fill-opacity:1;stroke:#000000;stroke-width:3;stroke-linecap:butt;stroke-linejoin:miter;stroke-miterlimit:4;stroke-opacity:1;stroke-dasharray:none"
       d="m 363.38312,364.74233 c -0.30929,-1.0189 -1.94673,-2.74739 -0.92785,-3.05667 1.01889,-0.30928 1.66014,3.82967 0.92785,3.05667 -8.95891,-9.45705 -0.9661,-1.64229 -0.90052,-4.06645 0.0395,-1.46171 -2.41912,-3.9628 -2.37424,-5.6221 0.0603,-2.23086 9.26798,5.3033 11.98083,5.37669 2.54189,0.0688 -1.56773,-9.11367 -1.74643,-10.15246 -1.48582,-8.63753 3.97163,3.09894 5.59478,-1.36445 0.45449,-1.24975 0.67435,-8.06594 2.23809,-8.02364 4.32874,0.11709 8.22637,13.87688 11.65305,17.49409 2.8248,2.98187 4.66583,5.96387 7.34121,8.78801 1.30996,1.3828 2.61992,2.76559 3.92987,4.14839 0.32749,0.3457 1.32817,0.7096 0.98247,1.03709 -0.78749,0.74601 -8.14788,-2.12036 -9.06073,-1.2556 -0.24359,0.23076 0.90524,3.89216 0.90052,4.06644 -0.0118,0.43632 -7.81624,10.39906 -7.86017,10.39787 -1.03035,-0.0279 -19.58576,-12.36586 -20.35913,-13.18223 -1.55536,-1.64183 -2.14374,-5.54327 -2.3196,-7.64165 z"
       id="path3284"
       inkscape:connector-curvature="0" />
    <path
       style="fill:#666666;stroke:#000000;stroke-width:3;stroke-linecap:butt;stroke-linejoin:miter;stroke-opacity:1;stroke-miterlimit:4;stroke-dasharray:none"
       d="m 472.47456,334.2035 c -28.27031,1.31782 -59.48334,4.09522 -82.75612,17.34694 -4.39084,2.50018 -10.80001,2.10608 -16.17343,5.16575 -5.49207,3.12724 -24.86093,2.39303 -28.37569,4.39437 -6.6846,3.80626 -18.99465,2.49375 -26.39009,1.42577 -6.15621,-0.88904 -14.0312,2.00592 -20.0094,0.3657 -5.05269,-1.38628 -25.93095,-6.98476 -29.14637,-9.87054 -1.73316,-1.5555 -3.99479,-2.90661 -5.9757,-4.68445 -3.66312,-3.2876 -2.62454,-6.29615 -9.61901,-5.91826 -18.09062,0.97737 -35.96571,13.05129 -42.15928,27.31418 -0.75819,1.74603 -4.57403,10.14676 -2.1979,12.27931 0.9215,0.82703 0.58737,3.92046 1.69623,4.91565 2.08969,1.87546 3.42379,4.43011 6.09131,6.82418 0.37589,0.33735 1.76385,-0.45296 2.13974,-0.1156 4.5697,4.10124 11.24,-0.34295 16.55879,1.96669 4.02638,1.74843 9.21322,-0.86525 13.5902,-0.0189 11.4279,2.20972 34.62599,-4.08483 43.5465,-1.63734 12.66909,3.47595 27.19086,-3.21187 40.01883,-0.73143 17.94399,3.46968 36.34614,-4.12419 53.22367,-7.88279 17.88505,-3.98299 38.33912,-8.59724 54.82393,-17.98384 5.1127,-2.91121 41.81366,-20.83775 32.77148,-28.95297 -0.17719,-0.15904 -0.0257,-0.4755 -0.0385,-0.71325 -0.53972,-1.16305 -0.53712,-2.80128 -1.61916,-3.48916 -2.6541,-1.68728 -5.22655,2.77453 -8.59748,-0.25083"
       id="path3034"
       inkscape:connector-curvature="0" />
    <path
       style="fill:#b3b3b3;fill-opacity:1;stroke:#000000;stroke-width:3;stroke-linecap:butt;stroke-linejoin:miter;stroke-opacity:1;stroke-miterlimit:4;stroke-dasharray:none"
       d="m 436.63707,399.08849 c 0.79107,1.36968 18.8649,-15.32575 22.76642,-15.53654 3.92489,-0.21204 11.27463,-7.15506 15.22899,-9.4067 1.79152,-1.02011 6.27639,-0.18767 7.76863,-1.85036 5.59005,-6.22858 21.45954,-9.54331 26.37118,-15.01597 0.56226,-0.62648 2.25219,-0.24091 2.81445,-0.86739 1.51067,-1.68322 10.09941,-7.22381 5.84119,-11.04549 -2.70539,-2.42805 -7.24605,-5.1459 -10.44785,-8.01946 -1.89194,-1.69799 -10.84667,-0.91213 -13.03109,-2.87261 -1.71117,-1.53576 -14.65168,1.78088 -17.19496,-0.50167 -1.67406,-1.50244 -21.97385,6.19446 -26.83359,6.45703 -9.99385,0.53992 -51.17642,11.86336 -59.89372,16.82707 -5.12693,2.91931 -11.2095,2.33925 -16.17344,5.16576 -1.86219,1.06036 -3.80523,-0.0388 -5.66743,1.02152 -7.6546,4.35859 -31.6149,6.4912 -35.87458,11.23745 -0.80572,0.89775 -11.04542,1.87823 -12.72281,2.83335 -2.31964,1.32083 -31.47292,11.71497 -32.26981,11.75802 -5.37772,0.29053 -24.94763,8.669 -29.68658,6.61116 -4.761,-2.06743 -11.41673,0.14678 -16.52026,-1.25345 -4.18434,-1.14804 -10.74858,-2.99593 -15.17082,-2.75701 -0.97685,0.0528 -13.77786,-3.45471 -13.78287,-3.54732 -0.0181,-0.33623 0.50119,0.44981 0.75177,0.67471 1.50905,1.35434 4.34805,2.54498 5.93718,3.9712 2.98079,2.67521 11.58418,2.93136 14.61171,5.64852 0.75179,0.67471 2.85299,-0.15413 3.60477,0.52057 3.34185,2.99927 9.33808,1.61722 13.78287,3.54733 14.53448,6.31148 34.71447,3.8471 51.66196,2.93149 30.27281,-1.63554 55.86084,4.85062 85.30009,3.26012 5.48861,-0.29653 35.48778,-2.48848 36.97317,-4.14352 2.57666,-2.87098 11.93974,-4.08733 11.85543,-5.64781"
       id="path3060"
       inkscape:connector-curvature="0"
       sodipodi:nodetypes="cssssssssssssssssssssssssssssc" />
    <path
       style="fill:#9d9d9d;stroke:none;stroke-width:1px;stroke-linecap:butt;stroke-linejoin:miter;stroke-opacity:1;fill-opacity:1"
       d="m 267,412.86218 c -3.17274,6.76251 -1.15831,15.31661 -3.5,20 -0.20815,0.4163 0.31716,1.68285 0,2 -3.3542,3.35421 -3.68516,15.87032 -6,20.5 -0.31563,0.63126 0.48,2.52001 0,3 -0.14479,0.14479 -1.42701,2.07299 -1,2.5 1.96635,1.96636 4.02143,2.76072 6.5,4 2.48169,1.24085 4.0886,5.02954 7,6 1.32687,0.44229 4.01835,1.51835 5,2.5 1.38079,1.3808 3.84589,4.42295 6,5.5 2.9468,1.4734 4.66506,3.33253 8,5 0.41629,0.20815 1.68284,-0.31715 2,0 1.4783,1.4783 -3.47381,4.52619 -1.5,6.5 2.5494,2.5494 8.87382,1.43691 13,3.5 1.7618,0.8809 4.72572,-0.38714 6.5,0.5 0.66667,0.33334 2.52705,1.52705 2,1 -5.29733,-5.29733 -10.71625,-12.43249 -14,-19 -2.7677,-5.53539 16.77583,-2.61208 6,-8 -1.51059,-0.75529 -3.44902,-0.483 -5,-1 -6.31716,-2.10572 -10.92038,-8.21019 -16.5,-11 -0.48014,-0.24007 -4.45812,-4.54188 -3.5,-5.5 3.38006,-3.38005 8.97364,-3.32455 14,-5 2.88491,-0.96163 5.57222,-1.57222 5.5,-1.5 -0.14434,0.14435 -2.06787,-2.06786 -2.5,-2.5 -1.16747,-1.16747 -4.87019,-1.75961 -3.5,-4.5 0.81149,-1.62298 5.12402,-1.77067 6.5,-2 1.148,-0.19133 11.97329,0.0267 12.5,-0.5 0.13223,-0.13223 -4.25754,-8.03018 -4.5,-9 -0.38104,-1.52418 -0.1179,-4.26419 0.5,-5.5 0.20769,-0.41539 1.95572,-1.04428 1.5,-1.5 -2.61158,-2.61157 -17.46046,2.13489 -22,1 -7.20031,-1.80008 -11.32689,-7 -19,-7 z"
       id="path4545"
       inkscape:connector-curvature="0" />
    <path
       style="fill:#666666;stroke:#000000;stroke-width:3;stroke-linecap:butt;stroke-linejoin:miter;stroke-opacity:1;stroke-miterlimit:4;stroke-dasharray:none"
       d="m 428.66809,440.17663 c -25.77152,7.82541 -74.74078,3.60634 -104.51571,-8.56777 -5.86754,-2.39906 -25.40876,-3.18792 -28.37053,-5.73304 -2.51776,-2.16357 -11.77449,-4.77046 -14.734,-5.39388 -8.25524,-1.73893 -10.0043,-3.66455 -17.08001,-6.5576 -0.3841,-1.15715 -0.87218,-6.00998 0.14164,-7.18976 0.21945,-0.25539 -0.79155,-0.99412 -0.76614,-0.65836 0.098,1.29444 22.81764,-1.72642 25.641,-1.94004 12.14983,-0.91926 30.02497,-4.7975 42.13052,-1.75498 2.0863,0.52436 6.20023,-0.35932 7.78086,-1.30503 2.55478,-1.52852 18.96941,-0.82201 21.47527,-0.1922 10.33685,2.598 30.12355,-5.97408 39.22764,-2.25166 5.35599,2.18989 24.25019,-3.13521 26.40715,-1.28169 2.09416,1.79957 14.71004,-2.01005 14.90335,-1.84392 0.59184,0.50856 -1.00184,7.51456 -1.49007,8.70866 -2.59303,6.34193 0.0154,9.48299 -3.82066,13.94709 -1.70631,1.98564 0.85821,19.10705 -6.93031,22.01418 z"
       id="path3127"
       inkscape:connector-curvature="0"
       sodipodi:nodetypes="csssccssscssscssc" />
    <path
       style="fill:#5b5b5b;stroke:none;stroke-width:1px;stroke-linecap:butt;stroke-linejoin:miter;stroke-opacity:1;fill-opacity:1"
       d="m 255,342.36218 c -0.66667,0 -2,0.66667 -2,0 0,-0.66666 2.4714,-0.4714 2,0 -0.60093,0.60093 -1.69377,0.23126 -2.5,0.5 -4.81701,1.60567 -12.41258,5.82517 -15,11 -0.18587,0.37175 -1.05616,1.94385 -0.5,2.5 2.35928,2.35928 8.63475,-0.36525 11.5,2.5 6.0886,6.0886 -1.25887,11.74113 -0.5,12.5 2.10648,2.10648 6.22104,-1.33689 7.5,2.5 1.61687,4.85062 -5.62596,8.37404 0.5,14.5 2.30009,2.30009 7.73807,0.11904 10.5,1.5 4.31697,2.15849 9.50356,4.49822 14.5,2 0.92559,-0.46279 2.74391,-0.2439 3.5,-1 0.83333,-0.83333 1.16667,-2.16666 2,-3 1.50066,-1.50066 4.74386,-2.48772 6,-5 0.87741,-1.75482 2.05456,-4.05456 3,-5 0.15449,-0.15449 -1.85521,-1.35521 -2,-1.5 -1.65882,-1.65882 -3.99954,-4.49954 -6,-6.5 -2.36963,-2.36963 -3.58623,-6.08623 -6,-8.5 -1.98851,-1.98851 -7.0325,-9.26625 -8.5,-10 -3.50981,-1.7549 -7.57738,-4.03869 -11.5,-6 -2.64472,-1.32236 -3.37092,-3 -6.5,-3 z"
       id="path4541"
       inkscape:connector-curvature="0" />
    <path
       style="fill:#9d9d9d;fill-opacity:1;stroke:none"
       d="m 317,382.36218 c 0.58957,-2.4231 7.6723,-1.89076 14,-4 2.25088,-0.75029 4.76939,-2.25646 7,-3 5.41606,-1.80535 14.30454,-1.80454 18,-5.5 1.14089,-1.14088 2.68316,0.65842 4,0 1.83906,-0.91953 4.00774,-0.83591 6,-1.5 8.89684,-2.96561 19.10725,-5.05362 27,-9 0.18314,-0.0916 1.78966,0.21034 2,0 0.12335,-0.12335 1.87314,-1.12686 2,-1 0.41558,0.41559 -0.92208,0.92208 -1,1 -0.43278,0.43278 0.24486,1.87757 1,1.5 4.82549,-2.41274 11.80682,-8.7017 17,-10 10.92264,-2.73066 21.47967,-3.99322 32,-7.5 1.81955,-0.60651 4.39241,1.0269 6.5,0.5 2.3602,-0.59005 5.60602,-1.5 8,-1.5 4.88138,0 10.59087,-1.53029 15,-3 5.6415,-1.8805 12.70673,-0.5 18.5,-0.5 1.35575,0 8.5,0.88548 8.5,2.5 0,0.61058 -23.29172,4.79172 -25,6.5 -0.70489,0.70489 1.78906,1.42969 2,1.5 12.33132,4.11044 -0.24213,10.24213 -4,14 -3.38052,3.38052 -7.25556,6.37778 -11.5,8.5 -0.10245,0.0512 -1,0.57569 -1,0.5 0,-0.83333 1.23648,-1.20943 1.5,-2 0.77193,-2.31578 0.39363,-5.07451 1,-7.5 0.30802,-1.23206 1.74318,-4 1,-4 -1.19296,0 -17.99515,11.74879 -23,13 -1.35824,0.33956 -2.76845,0.88423 -4,1.5 -2.61737,1.30869 -6.11438,-0.69281 -8.5,0.5 -2.77625,1.38813 -6.2633,4.4211 -9.5,5.5 -3.10082,1.03361 -6.09089,1.04545 -9,2.5 -1.74883,0.87442 3.50733,-11 0,-11 -5.48197,0 -15.11319,6.96227 -21,5 -3.52792,-1.17597 -1.05836,-7 -3,-7 -4.49585,0 -10.13301,4.25321 -14.5,6 -3.58574,1.4343 -7.53866,2.34622 -11,3.5 -2.06302,0.68767 -1.82006,-1.58997 -3,-1 -8.4176,4.2088 -10.49029,6.99758 -20.5,9.5 -1.25231,0.31308 -10.61364,3.38636 -11,3 -0.89023,-0.89023 -0.80474,-2.30474 -1.5,-3 -0.12805,-0.12805 -1.38336,-1.30832 -2,-1 -6.17666,3.08833 -16.65074,7.31342 -8,-3.5 z"
       id="path4543"
       inkscape:connector-curvature="0" />
    <path
       style="fill:#eddfdf;fill-opacity:1;stroke:#000000;stroke-width:2.84204698000000011;stroke-linecap:butt;stroke-linejoin:miter;stroke-miterlimit:4;stroke-opacity:1;stroke-dasharray:none"
       d="m 274,369.36218 c 0.52161,4.35694 -11.61525,22.05779 0,35 3.68735,4.10861 7.68334,1.4389 9.87217,-1 2.63914,-2.94064 -4.2049,-6.68527 0.89747,-1 0.91816,1.02305 3.39923,1.78757 4.48735,3 6.21144,6.92106 16.73272,-5 11.66711,-5 -2.15725,0 3.22757,4 5.38482,4 4.45163,0 4.48735,-1.87293 4.48735,-6 0,-1.10845 3.31147,3 6.28229,3 4.45357,0 10.1019,-2.25597 12.56458,-5 0.34969,-0.38964 0,-3.38976 0,-4 0,-12.35413 -4.48466,5.00301 -14.35952,-6 -9.02529,-10.05637 19.05447,-9.76869 15.25699,-14 -0.71639,-0.79824 -17.91712,-10.03597 -17.9494,-10 -1.52145,1.69527 -3.77373,4.40973 -4.48735,6"
       id="path4289"
       inkscape:connector-curvature="0" />
    <path
       style="fill:#8b7d75;fill-opacity:1;stroke:#000000;stroke-width:3;stroke-linecap:round;stroke-linejoin:round;stroke-miterlimit:4;stroke-opacity:1;stroke-dasharray:none"
       d="m 290.63967,131.10306 c -12.46077,5.34323 -19.03626,22.06672 -28.28427,31.31473 -4.57488,4.57487 -5.37459,14.23719 -9.09137,19.19289 -17.62023,23.49364 -20.71543,55.08983 -26.26397,82.83251 -1.18575,5.92873 -0.55652,12.32761 -2.0203,18.18275 -1.0564,4.2256 -3.68452,18.53884 -1.01016,21.2132 2.26909,2.26909 3.80552,6.36579 5.05077,10.10153 2.00784,6.02352 17.96922,21.79631 22.22335,30.30457 4.31997,8.63994 8.30986,17.47745 14.14214,25.25382 6.30853,8.41138 11.16208,7.30422 21.14213,9.28427 10.76165,-4.42976 14.03363,-8.18433 28.35534,-15.34519 1.08588,-0.54294 3.03046,-0.80625 3.03046,-2.0203 0,-0.85818 -5.17376,-6.30691 -6.06092,-8.08122 -3.67316,-7.34633 -5.45948,-16.57116 -11.11167,-22.22336 -2.54906,-2.54906 -21.31077,-42.62153 -24.24366,-48.48732 -1.45867,-2.91734 2.99535,-8.01103 4.04061,-10.10153 5.68557,-11.37115 11.10927,-19.18808 17.17259,-31.31473 1.69136,-3.38273 1.30585,-9.38706 4.04061,-12.12183 3.42339,-3.42339 8.08122,-14.39842 8.08122,-19.19289 0,-3.09623 1.61853,-8.48299 3.03046,-7.07107"
       id="path3418"
       inkscape:connector-curvature="0"
       sodipodi:nodetypes="csssssssscsssssssssc" />
    <path
       style="fill:#eddfdf;stroke:#000000;stroke-width:3;stroke-linecap:butt;stroke-linejoin:miter;stroke-miterlimit:4;stroke-opacity:1;stroke-dasharray:none;fill-opacity:1"
       d="m 391.73715,156.45789 c -2.01308,2.01309 -10.12351,6.58799 -12.02081,8.48529 -5.90974,5.90974 -16.53821,15.42904 -16.97056,17.67766 -6.80196,-1.68696 -18.06603,-23.65326 -21.2132,-20.50609"
       id="path4401"
       inkscape:connector-curvature="0"
       sodipodi:nodetypes="cscc" />
    <path
       style="fill:#9e8c82;stroke:none;stroke-width:1px;stroke-linecap:butt;stroke-linejoin:miter;stroke-opacity:1;fill-opacity:1"
       d="m 287.5,136.36218 c -1.7253,0.3358 -2.56262,0.56262 -3.5,1.5 -1.40156,1.40156 -1.64607,4.29214 -2.5,6 -0.39049,0.78099 -1.53084,0.56168 -2,1.5 -1.91753,3.83507 -4.06379,6.62759 -6,10.5 -0.41514,0.83029 -1.97124,0.94249 -2.5,2 -1.48347,2.96695 -3.67384,4.84768 -5,7.5 -0.68842,1.37685 -2.21938,7.21938 -3,8 -3.43654,3.43655 -5.37113,8.74227 -7.5,13 -0.5,1 -2,1.5 -2.5,2.5 -0.58482,1.16963 -1.40069,2.30137 -2,3.5 -0.6,1.2 0.6,3.3 0,4.5 -1.31057,2.62114 -3.68382,4.36765 -5,7 -0.70302,1.40605 0.82767,3.34466 0,5 -1.97739,3.95479 -2.15859,9.31717 -3.5,12 -1.36939,2.73877 -2.85398,6.06194 -4,9.5 -0.77338,2.32013 0.5805,5.83901 -0.5,8 -0.98265,1.9653 -3,7.01177 -3,9 0,0.49217 0.91063,1.17874 0.5,2 -1.70043,3.40087 -2.26241,7.78723 -3.5,11.5 -0.87027,2.6108 0.722,6.056 -0.5,8.5 -1.65375,3.30749 -3,8.67571 -3,12.5 0,2.16008 -2.61671,14.88329 -1.5,16 2.41768,2.41768 7.31247,14.62494 9.5,19 1.90247,3.80493 5.12232,7.24464 7,11 0.64991,1.29982 5,4.0006 5,4.5 0,0.37268 -0.33333,-0.66666 -0.5,-1 -0.97803,-1.95606 -2.43116,-3.86232 -3.5,-6 -1.06941,-2.13881 -6.00315,-13.99685 -4.5,-15.5 2.24982,-2.24981 11.29523,8.20477 14.5,5 0.71765,-0.71765 -8.20353,-8.93803 -9,-10 -1.60498,-2.13996 -2.5,-4.97352 -2.5,-7.5 0,-8.03647 10.77494,-2.67518 9,-8 -1.44462,-4.33386 -11.67239,-12.9138 -4.5,-16.5 2.57071,-1.28535 6.7738,-1.2738 8.5,-3 1.11884,-1.11883 -4.81674,-12.95021 -5.5,-15 -0.37314,-1.11943 1.1521,-3.95629 1.5,-5 0.87061,-2.61183 7.51146,-5.50573 9.5,-6.5 2.25885,-1.12942 6.35557,-8.35556 8,-10 2.43469,-2.43469 8.01786,-3.51785 10.5,-6 0.63666,-0.63665 -3.98483,-1.24241 -8.5,-3.5 -6.03458,-3.01729 -10.3965,-8.207 -7,-15 3.94941,-7.89881 15.7238,-12.8619 23,-16.5 0.8018,-0.4009 6,-2.55358 6,-3.5 0,-1.29195 -8.58829,-0.91171 -6.5,-3 3.12205,-3.12204 6.48827,-4.49609 11,-6 3.97027,-1.32342 16.80622,-5.88756 15.5,-8.5 -0.34875,-0.69749 -9.97596,-2.47596 -11.5,-4 -2.41703,-2.41702 8.19094,-5.30906 8,-5.5 -1.19923,-1.19923 -13.07713,-1.15425 -15,-5 -3.4948,-6.9896 4.21924,-22.84385 -7.5,-20.5 z"
       id="path4518"
       inkscape:connector-curvature="0" />
    <path
       style="fill:#7d7069;stroke:none;stroke-width:1px;stroke-linecap:butt;stroke-linejoin:miter;stroke-opacity:1;fill-opacity:1"
       d="m 414,147.36218 c -12.28159,5.57285 -1.89629,10.79259 -3.5,14 -2.55893,5.11786 -8,1.7005 -8,10.5 0,0.42592 0.53849,2.26925 1,2.5 3.70949,1.85475 14.19155,-2.92535 16,2.5 1.3758,4.12741 -4.70515,22.39743 -1.5,24 0.76457,0.38229 3.2202,-2.5803 3.5,-3 1.7133,-2.56995 11.35038,-12.92519 13.5,-14 4.78235,-2.39117 19.1961,8.40195 25,5.5 1.72931,-0.86465 1.82663,-2.32663 3,-3.5 0.72725,-0.72725 -1.47638,-5.47638 -2,-6 -1.96035,-1.96035 -3.46513,-10.89539 -4.5,-14 -0.6461,-1.93828 -2.55792,-3.61583 -3.5,-5.5 -0.87815,-1.75631 -1.11967,-3.73935 -2,-5.5 -1.14123,-2.28246 3.68755,-6.3751 4.5,-8 1.02534,-2.05067 -2.56996,-5.36008 -1.5,-7.5 0.47406,-0.94811 1.56359,-6.2182 0,-7 -15.10523,-7.55261 -26.47294,15 -40,15 z"
       id="path4539"
       inkscape:connector-curvature="0" />
    <path
       style="fill:#e7d1d1;stroke:#000000;stroke-width:3;stroke-linecap:round;stroke-linejoin:round;stroke-miterlimit:4;stroke-opacity:1;stroke-dasharray:none;fill-opacity:1"
       d="m 342.05592,25.855093 c -20.55677,11.985248 -49.34222,14.981791 -64.05803,36.431249 -14.57742,21.247736 -8.81032,58.044918 7.07107,76.563628 37.95622,44.25937 176.17597,22.34884 187.88837,-45.938177 0.98903,-5.766347 -1.13655,-10.160129 -2.02031,-15.312725 -6.61023,-38.539743 -63.92601,-47.116078 -91.92388,-47.116078 -4.60631,0 -31.0337,-8.0815 -36.95722,-4.627897 z"
       id="path3485"
       inkscape:connector-curvature="0"
       sodipodi:nodetypes="csssscc" />
    <path
       style="fill:#efe0e0;stroke:none;stroke-width:1px;stroke-linecap:butt;stroke-linejoin:miter;stroke-opacity:1;fill-opacity:1"
       d="m 275.5,97.862182 c -0.4945,0.438113 -3.29441,-1.705585 -5,0 -2.54765,2.547648 -6.34912,7.650878 -3.5,10.499998 2.11389,2.11389 6.93415,-5.06585 10.5,-1.5 1.58532,1.58532 3.23555,3.73556 4.5,5 0.99893,0.99893 3.20539,0.20539 4,1 0.12805,0.12806 1.38336,1.30832 2,1 2.24239,-1.12119 -0.3045,-6.19549 1,-7.5 0.58424,-0.58424 2.01975,0.5 2.5,0.5 2.10085,0 7.17268,9.82732 9.5,7.5 2.61366,-2.61366 -4.45035,-10.54965 -2,-13 0.55762,-0.55762 0.88124,-1.440618 2,-1.999998 0.79875,-0.399376 2.77575,0.775748 3,0.999998 0.38541,0.38541 2.81851,-1.090744 4,-0.499998 0.88001,0.440008 2.25941,1.999998 3,1.999998 0.51637,0 1.41274,-2.543628 3.5,-1.5 1.61654,0.80827 4.7359,3 6.5,3 1.58514,0 -7.61032,-9.110319 -9,-10.499998 -2.29226,-2.292256 2.06219,-2 4,-2 0.84984,0 2.5,1.349837 2.5,0.5 0,-1.793235 -11.5,-1.65294 -11.5,-6 0,-0.727763 0.26169,-1.630843 1,-2 1.87463,-0.937317 4.04185,-1.847282 6,-2.5 0.25762,-0.08587 5,0.05687 5,0 0,-3.11691 -5.20787,-2.073032 2.5,-4 0.75426,-0.188564 9.83205,-1.333975 10.5,-1 0.31418,0.15709 1.48219,1.017808 2,0.5 0.21403,-0.214033 -1.74236,-4.257641 -1.5,-4.5 1.54899,-1.548986 7.99329,3.506712 10,1.5 0.87648,-0.876482 -1.47779,-3.022212 -0.5,-4 0.33779,-0.337792 13.7149,1.242981 15,1.5 0.6022,0.120441 2.43636,0.21818 3,0.5 0.33333,0.166667 1,0.872678 1,0.5 0,-1.651304 -1.57494,-3.96253 0.5,-5 1.61981,-0.809907 5.39503,2.604971 7,1 0.63985,-0.639846 0.55745,-2.557452 1.5,-3.5 2.78659,-2.786589 11.87869,1.375739 15,2 1.19896,0.239792 4.90275,1.097245 5,1 0.35011,-0.35011 -0.93105,-4.431051 0.5,-3 1.99925,1.999246 8.63694,5.5 12,5.5 2.33363,0 -1.55924,-5.470378 0.5,-6.5 3.61283,-1.806415 8.75533,1.122337 12,-0.5 2.37627,-1.188134 5.56379,-3 8,-3 0.58291,0 3.14515,1.854847 3.5,1.5 0.84381,-0.843812 4.36651,-6.63349 3.5,-7.5 -2.33005,-2.330051 -2.58567,-8.792834 -7,-11 -14.62142,-7.310712 -51.33672,-13.832655 -68,-10.5 -4.10616,0.821231 -16.51897,-1.740517 -19,-0.5 -2.35532,1.177662 -4.88327,1.627758 -7.5,2.5 -3.17146,1.057154 -14.7257,0.225699 -16.5,2 -1.0848,1.084798 -4.13343,5.377809 -6,6 -2.68876,0.896253 -7.29533,2.795326 -9,4.5 -1.16094,1.160939 -1.59554,3.191076 -2.5,5 -0.76442,1.528839 -7.31791,6.317908 -9,8 -1.1945,1.194499 -3.72849,3.456982 -4.5,5 -0.53548,1.070955 -4.08078,16.838449 -4,17 0.76853,1.53706 1.5,2.239725 1.5,3.5 0,0.09375 -2.12276,2.622762 -2.5,3 -1.02541,1.02541 0.42932,4.358632 1,5.5 0.90481,1.809624 -3.62058,3.151768 1,5"
       id="path4514"
       inkscape:connector-curvature="0" />
    <path
       style="fill:#d5bdbd;fill-opacity:1;stroke:none"
       d="m 307,148.86218 c 1.63648,0.78647 2.45696,-0.5 6.5,-0.5 0.61785,0 0.93096,0.78452 1.5,0.5 0.81568,-0.40784 1.45922,-1.95922 2,-2.5 1.35355,-1.35355 8.96257,2.46257 9.5,3 2.15257,2.15258 2.22976,-4.72975 4.5,-7 2.19942,-2.19941 8.17305,-1.17305 10.5,-3.5 1.69844,-1.69844 1.52418,-1.52418 2.5,-2.5 1.17306,-1.17306 1.10404,0.89596 1.5,0.5 0.9999,-0.9999 3.62622,-1.87377 4,-1.5 1.43766,1.43766 0.0267,8.52668 0.5,9 1.2411,1.2411 5.73961,0.23961 7,1.5 2.12419,2.12419 5.87808,4.37808 8,6.5 0.47389,0.47389 4.59669,1.59669 5.5,2.5 1.2304,1.2304 3.34924,-0.94975 5,-1.5 1.05671,-0.35223 1.76263,-5.26263 3.5,-7 1.22564,-1.22563 7,-2.76117 7,-4.5 0,-1.22506 2.82463,-3.67537 2,-4.5 -0.83333,-0.83333 -2.16667,-1.16666 -3,-2 -0.66667,-0.66666 -0.33333,-2.33333 -1,-3 -1.52477,-1.52476 -8.59954,-4.95023 -4.5,-7 0.87735,-0.43867 3.49543,2.99543 4,3.5 1.7417,1.7417 8.49918,2.49918 10.5,4.5 1.69174,1.69174 7.35568,-0.0722 9.5,1 2.11941,1.0597 15.99036,0.50965 17,-0.5 4.26458,-4.26458 -3.03872,-5.46128 -2,-6.5 1.49155,-1.49154 4.5282,-1.0564 5.5,-3 0.98612,-1.97224 1.36068,-4.36068 2.5,-5.5 1.08767,-1.08767 -2.80329,-2.10658 -3.5,-3.5 -0.62969,-1.25937 0.37536,-2.62464 -0.5,-3.5 -1.47987,-1.47986 -5.35849,2.21698 -4,-0.5 1.2793,-2.55859 5.88408,-3.76815 7,-6 3.87676,-7.753519 7.30805,0.84598 10,-0.5 3.00276,-1.50138 4.66931,-5.66931 6.5,-7.499998 1.7867,-1.7867 6.12763,4.872378 8,2.999998 1.84697,-1.84697 3.58908,0.70546 6,-0.5 2.4773,-1.238647 5.03068,-2.265338 7.5,-3.499998 1.20185,-0.600925 2.65629,0.5 4,0.5 0.85104,0 7.77896,-0.721037 8,-0.5 2.97613,2.976128 0.77813,6.221868 -1,7.999998 -0.5,0.5 0.5,2.5 0,3 -0.64937,0.64937 -2.15459,1.07729 -3,1.5 -2.19177,1.09589 -9.02882,-0.48559 -10,0 -2.59578,1.29789 1.14089,7.67956 -3.5,10 -3.90517,1.95259 -7.80706,6.30707 -10.5,9 -0.43995,0.43995 -2.17224,0.67224 -2.5,1 -1.14558,1.14558 -2.8343,2.8343 -4,4 -0.32779,0.32779 -1.7495,0.2495 -2,0.5 -0.81752,0.81752 -3.1226,3.3113 -4.5,4 -4.36292,2.18146 -19.92512,10.92512 -22,13 -0.52982,0.52982 -12.24844,2.56211 -14,3 -3.95771,0.98943 -7.58493,1.79247 -11,3.5 -2.44204,1.22102 -10.25607,-0.12196 -11.5,0.5 -4.94932,2.47466 -28.36786,0.5 -35,0.5 -9.48609,0 -22.11008,1.38992 -28,-4.5 -1.44384,-1.44383 -3.11463,0.30896 -6,-4.5 z"
       id="path4516"
       inkscape:connector-curvature="0" />
    <path
       style="fill:none;stroke:#000000;stroke-width:3;stroke-linecap:round;stroke-linejoin:round;stroke-miterlimit:4;stroke-opacity:1;stroke-dasharray:none"
       d="m 305.29289,120.19061 c -0.13262,-4.11827 22.13317,11.43342 31,7 3.7686,-1.8843 13.40637,-3.79681 15,-3"
       id="path4304"
       inkscape:connector-curvature="0" />
    <path
       style="fill:none;stroke:#000000;stroke-width:3;stroke-linecap:round;stroke-linejoin:round;stroke-miterlimit:4;stroke-opacity:1;stroke-dasharray:none"
       d="m 311.41421,129.36218 c 10.20158,4.32286 25.48699,4.25651 34,0 3.26203,-1.63101 2.82631,-4.91315 5,-6"
       id="path4306"
       inkscape:connector-curvature="0" />
    <path
       style="fill:none;stroke:#000000;stroke-width:3;stroke-linecap:round;stroke-linejoin:round;stroke-opacity:1;stroke-miterlimit:4;stroke-dasharray:none"
       d="m 376,121.36218 c 13.0697,3.36318 38.18983,11.62035 45,-2"
       id="path4308"
       inkscape:connector-curvature="0" />
    <path
       style="fill:none;stroke:#000000;stroke-width:3;stroke-linecap:round;stroke-linejoin:round;stroke-miterlimit:4;stroke-opacity:1;stroke-dasharray:none"
       d="m 376.34315,121.19061 c 12.212,0.59429 23.888,-4.444 33,-9"
       id="path4310"
       inkscape:connector-curvature="0" />
    <path
       style="fill:none;stroke:#000000;stroke-width:3;stroke-linecap:round;stroke-linejoin:round;stroke-miterlimit:4;stroke-opacity:1;stroke-dasharray:none"
       d="m 375.6081,121.25682 c 11.97102,8.75786 24.72005,14.58814 39.57734,10.89192"
       id="path4312"
       inkscape:connector-curvature="0" />
    <path
       style="fill:none;stroke:#000000;stroke-width:3;stroke-linecap:round;stroke-linejoin:round;stroke-miterlimit:4;stroke-opacity:1;stroke-dasharray:none"
       d="m 346.03522,162.10942 c 3.59029,-2.13593 8.39986,-3.63533 12.40513,-4.01406 5.16995,-0.48887 30.01058,-5.68582 31.2791,-7.21929 1.03876,-1.25573 10.18003,-5.24639 8.88529,-3.68123"
       id="path4318"
       inkscape:connector-curvature="0" />
    <path
       style="fill:none;stroke:#000000;stroke-width:3;stroke-linecap:round;stroke-linejoin:round;stroke-opacity:1;stroke-miterlimit:4;stroke-dasharray:none"
       d="m 319,140.36218 c 12.40602,-0.29972 27.4848,-6.96959 32,-16"
       id="path4314"
       inkscape:connector-curvature="0" />
    <path
       style="fill:none;stroke:#000000;stroke-width:3;stroke-linecap:round;stroke-linejoin:round;stroke-miterlimit:4;stroke-opacity:1;stroke-dasharray:none"
       d="m 393.64871,139.85061 c -0.14223,1.00281 2.39714,5.22746 8.03817,9.89383 1.20445,0.99635 3.61507,1.04376 4.4235,1.71251"
       id="path4320"
       inkscape:connector-curvature="0" />
    <path
       style="fill:#eddfdf;fill-opacity:1;stroke:#000000;stroke-width:3;stroke-linecap:round;stroke-linejoin:round;stroke-miterlimit:4;stroke-opacity:1;stroke-dasharray:none"
       d="m 352.13917,136.6589 c -0.94281,0 -2.82842,0.94281 -2.82842,0 0,-0.94281 3.49509,-0.66667 2.82842,0 -1.80594,1.80594 -8.87745,2.04409 -6.36396,7.07107 1.73357,3.46713 7.77818,1.14081 7.77818,1.41421 0,4.36808 13.7697,14.68191 17.67767,12.72792 7.05794,-3.52897 4.72785,-7.55628 7.77817,-10.6066 1.08608,-1.08608 1.47892,1.34951 2.12132,0.70711 1.13042,-1.13042 4.0621,-2.64788 5.65686,-4.24264 1.70196,-1.70196 -4.44662,-7.52661 -0.70711,-5.65686"
       id="path4316"
       inkscape:connector-curvature="0" />
    <path
       style="fill:#796f5c;stroke:#000000;stroke-width:3;stroke-linecap:butt;stroke-linejoin:miter;stroke-opacity:1;fill-opacity:1;stroke-miterlimit:4;stroke-dasharray:none"
       d="m 269,92.362183 c -0.66667,1.333333 -0.66667,4.666666 -2,4 -1.33333,-0.666667 0.94591,-5.054093 2,-4 6.30808,6.308081 -2.44605,3.107893 -1,6 3.95488,7.909757 6.20265,1.999997 10,1.999997 0.66667,0 -0.4714,1.5286 0,2 0.96586,0.96586 4.83349,0.16652 6,-1 0.19659,-0.19658 1.39955,-4.600449 1,-4.999997 -0.24671,-0.24671 -4.55861,-1.441394 -4,-2 1.59232,-1.592325 3.64067,-0.281348 5,-3 1.53829,-3.076589 -6,-8.53268 -6,-10 0,-2.027588 4.56628,2.43372 6,1 3.39499,-3.394986 0.98919,-12.98919 0,-12 -1.6625,1.662499 5.03155,2.905354 7,-3 0.2149,-0.644689 2.5372,-10 0,-10 -0.11817,0 3.53218,3.93563 6,-1 2.00192,-4.00384 -2.26314,-7 -2,-7 2.33042,0 10.91363,-0.08637 7,-4 -1.32036,-1.32036 0.009,6 4,6 6.9608,0 12.30451,-13.304508 10,-11 -1.46714,1.467143 1.71042,4.710418 2,5 3.39688,3.396877 12.57916,-6.420836 11,-8 -1.30818,-1.308176 -1.13208,1.735849 -1,2 3.5569,7.113796 14.26778,-4 13,-4 -1.79505,0 0.7307,3.730704 2,5 3.75787,3.757871 10.23323,-5 11,-5 1.33333,0 -0.94281,3.057191 0,4 0.5881,0.588101 5.98966,2.010337 7,1 4.72259,-4.722593 1.4035,3 8,3 2.97303,0 8.69921,-5 9,-5 2.4267,0 0.28406,5.284061 2,7 3.10489,3.104892 9,-5.814403 9,-5 0,3.49096 1.36499,4.682496 4,6 3.16381,1.581902 9.33673,-6 11,-6 0.69503,0 -2.67245,4.327551 0,7 2.58175,2.581745 8.44666,-3 9,-3 2.02759,0 -0.81353,5.093235 1,6 1.79639,0.898193 6.33361,1.666393 8,0 0.33333,-0.333334 1,-1.471405 1,-1 0,1.035402 -2.09804,3.450982 1,5 1.73845,0.869227 6.94365,-3 5,-3 -1.19914,0 -1.57334,5.426659 -1,6 1.11263,1.112629 3.70102,5.64949 7,4 0.42808,-0.214038 5.18169,-4 4,-4 -1.7545,0 -0.65525,2.310501 -1,3 -0.57986,1.159722 -3,2.682224 -3,4 0,3.020114 13.47429,2.762854 11,4 -3.63664,1.818321 -3.95228,3.952281 -6,6 -6.41325,6.413254 5.87425,5.437125 9,7 2.08624,1.04312 1.79014,2.89507 4,4 0.87326,0.436629 1.65558,-1.311166 2,-2 -1.85341,0.370114 -10.73213,7.267868 -7,11 4.62662,4.626617 17.74439,-4 20,-4 2.02759,0 4.56628,2.43372 6,1 3.3768,-3.376798 -2,-6.011677 -2,-8 0,-1.578462 2.75735,-3.485296 1,-7 -1.08405,-2.168104 -3.82028,-4.820276 -5,-6 -0.4714,-0.471405 -2,0.666666 -2,0 0,-0.964999 3.46673,-3.066531 2,-6 -2.36715,-4.73431 -5.55611,-4.556113 -8,-7 -2.09157,-2.091567 -1.33114,-8.33114 -4,-11 -0.66667,-0.666667 -3.33333,0.666666 -4,0 -0.51518,-0.515182 1.15212,-7.923939 -3,-10 -1.33333,-0.666667 -3.66667,0.666666 -5,0 -0.48889,-0.244444 -2.06137,-1.938626 -3,-1 -0.14313,0.143125 -3,2.157454 -3,2 0,-2.996982 -0.37797,-6.188984 -4,-8 -2.2419,-1.12095 -4.96703,2.032971 -6,1 -6.39177,-6.391768 -10.62349,0.376514 -18,-7 -3.12382,-3.123816 -10.26453,5 -12,5 -0.4714,0 1,-0.528596 1,-1 0,-1.068705 -2.6938,-4.693801 -3,-5 -2.11848,-2.118478 -7.54449,1 -11,1 -4.46399,0 -7.87466,-8.125343 -12,-4 -0.5,0.5 -2.5,-0.5 -3,0 -0.74536,0.745356 0.0541,3 -1,3 -0.47998,0 -14,-10.991831 -14,-2 0,3.290415 -6.96112,-8.03888 -12,-3 -1.66667,1.666666 -3.33333,3.333333 -5,5 -0.0592,0.05917 -7.43809,-1.561908 -9,0 -1.05409,1.054092 -0.50929,4 -2,4 -3.31281,0 -3.78544,-2.60728 -7,-1 -2.25313,1.126564 -3.74997,6 -5,6 -0.948,0 -2.82602,-2.826018 -3,-3 -3.01173,-3.011735 -5.92249,5 -6,5 -2.45495,0 -5.73079,-3.634604 -9,-2 -2.15838,1.079192 -3.58502,6.585018 -5,8 -0.70335,0.703353 -6.57772,-0.42228 -8,1 -1.31024,1.310239 -2.30193,5.301933 -3,6 -1.82876,1.828762 -5.77295,-1.227051 -7,0 -1,1 1,5 0,6 -1.48178,1.481775 -7.39364,1.393637 -9,3 -0.91663,0.916634 1.22771,7 1,7 -7.04882,0 -7,2.130145 -7,8 0,3.169035 -1.22743,2.454863 -3,6 -1.85381,3.707628 2.76028,3.760275 4,5 3.46976,3.469758 -5.72343,18.861717 14,9"
       id="path4326"
       inkscape:connector-curvature="0" />
    <path
       style="fill:#eddfdf;stroke:#000000;stroke-width:3;stroke-linecap:round;stroke-linejoin:round;stroke-opacity:1;fill-opacity:1;stroke-miterlimit:4;stroke-dasharray:none"
       d="m 273.65032,97.060921 c -10.61427,0.38653 10.19345,-1.414214 -4.94974,-1.414214 -22.65349,0 -4.69331,30.856253 8.48528,17.677673"
       id="path4322"
       inkscape:connector-curvature="0" />
    <path
       style="fill:#eddfdf;stroke:#000000;stroke-width:3;stroke-linecap:round;stroke-linejoin:round;stroke-opacity:1;fill-opacity:1;stroke-miterlimit:4;stroke-dasharray:none"
       d="m 463.86205,91.404067 c 6.03022,-7.378363 21.01403,-1.722977 16.26345,7.778174 -1.17495,2.349899 -1.17697,5.182389 -2.12132,7.071069 -0.95312,1.90625 -5.44156,3.32024 -6.36396,4.24264 -2.79772,2.79772 -8.48528,-3.96674 -8.48528,0"
       id="path4324"
       inkscape:connector-curvature="0" />
    <path
       style="fill:none;stroke:#000000;stroke-width:3;stroke-linecap:round;stroke-linejoin:round;stroke-opacity:1;stroke-miterlimit:4;stroke-dasharray:none"
       d="m 307,43.362183 c -7.15532,4.88524 -13.22549,26.887254 -5,31"
       id="path4328"
       inkscape:connector-curvature="0" />
    <path
       style="fill:none;stroke:#000000;stroke-width:3;stroke-linecap:round;stroke-linejoin:round;stroke-opacity:1;stroke-miterlimit:4;stroke-dasharray:none"
       d="m 320,38.362183 c -7.43483,4.532607 -14.31371,29.843147 -6,34"
       id="path4330"
       inkscape:connector-curvature="0" />
    <path
       style="fill:none;stroke:#000000;stroke-width:3;stroke-linecap:round;stroke-linejoin:round;stroke-opacity:1;stroke-miterlimit:4;stroke-dasharray:none"
       d="m 332,34.362183 c -6.48206,10.202471 -8.18811,24.623775 -3,35"
       id="path4332"
       inkscape:connector-curvature="0" />
    <path
       style="fill:none;stroke:#000000;stroke-width:3;stroke-linecap:round;stroke-linejoin:round;stroke-opacity:1;stroke-miterlimit:4;stroke-dasharray:none"
       d="m 344,32.362183 c -4.67434,8.0716 -7.38518,23.229646 -3,32"
       id="path4334"
       inkscape:connector-curvature="0" />
    <path
       style="fill:none;stroke:#000000;stroke-width:3;stroke-linecap:round;stroke-linejoin:round;stroke-opacity:1;stroke-miterlimit:4;stroke-dasharray:none"
       d="m 354,32.362183 c -3.6489,10.007518 -7.7754,26.449192 -3,36"
       id="path4336"
       inkscape:connector-curvature="0" />
    <path
       style="fill:none;stroke:#000000;stroke-width:3;stroke-linecap:round;stroke-linejoin:round;stroke-opacity:1;stroke-miterlimit:4;stroke-dasharray:none"
       d="m 365,33.362183 c -4.2703,10.444938 0.70431,23.591384 -4,33"
       id="path4338"
       inkscape:connector-curvature="0" />
    <path
       style="fill:none;stroke:#000000;stroke-width:3;stroke-linecap:round;stroke-linejoin:round;stroke-opacity:1;stroke-miterlimit:4;stroke-dasharray:none"
       d="m 372,37.362183 c 5.21642,9.61534 -3.70967,24.580667 0,32"
       id="path4340"
       inkscape:connector-curvature="0" />
    <path
       style="fill:none;stroke:#000000;stroke-width:3;stroke-linecap:round;stroke-linejoin:round;stroke-opacity:1;stroke-miterlimit:4;stroke-dasharray:none"
       d="m 382,37.362183 c -1.57627,8.268881 2.03858,17.845686 0,26 -0.62742,2.509663 -2,4.294328 -2,7"
       id="path4342"
       inkscape:connector-curvature="0" />
    <path
       style="fill:none;stroke:#000000;stroke-width:3;stroke-linecap:round;stroke-linejoin:round;stroke-opacity:1;stroke-miterlimit:4;stroke-dasharray:none"
       d="m 394,40.362183 c 8.11,11.265354 -1,21.651529 -1,32"
       id="path4344"
       inkscape:connector-curvature="0" />
    <path
       style="fill:none;stroke:#000000;stroke-width:3;stroke-linecap:round;stroke-linejoin:round;stroke-opacity:1;stroke-miterlimit:4;stroke-dasharray:none"
       d="m 408,42.362183 c 2.80885,9.583947 1.35981,21.28037 -3,30"
       id="path4346"
       inkscape:connector-curvature="0" />
    <path
       style="fill:none;stroke:#000000;stroke-width:3;stroke-linecap:round;stroke-linejoin:round;stroke-opacity:1;stroke-miterlimit:4;stroke-dasharray:none"
       d="m 420,46.362183 c 0.28376,10.792469 -0.53572,22.071441 -5,31"
       id="path4348"
       inkscape:connector-curvature="0" />
    <path
       style="fill:none;stroke:#000000;stroke-width:3;stroke-linecap:round;stroke-linejoin:round;stroke-opacity:1;stroke-miterlimit:4;stroke-dasharray:none"
       d="m 434,55.362183 c 3.90042,9.966386 -7,19.76138 -7,27"
       id="path4350"
       inkscape:connector-curvature="0" />
    <path
       style="fill:none;stroke:#000000;stroke-width:3;stroke-linecap:round;stroke-linejoin:round;stroke-opacity:1;stroke-miterlimit:4;stroke-dasharray:none"
       d="m 444,68.362183 c 1.45191,7.845761 -7,15.248692 -7,22"
       id="path4352"
       inkscape:connector-curvature="0" />
    <path
       style="fill:none;stroke:#000000;stroke-width:3;stroke-linecap:round;stroke-linejoin:round;stroke-opacity:1;stroke-miterlimit:4;stroke-dasharray:none"
       d="m 317,84.362183 c 13.29343,-3.014801 26.66971,-4.333943 40,-7 7.69231,-1.538462 16.30769,1.538461 24,0 5.10674,-1.021348 11.08119,-2.959406 15,-1"
       id="path4354"
       inkscape:connector-curvature="0" />
    <path
       style="fill:none;stroke:#000000;stroke-width:3;stroke-linecap:round;stroke-linejoin:round;stroke-opacity:1;stroke-miterlimit:4;stroke-dasharray:none"
       d="m 329,95.362183 c 21.19624,-6.435042 43.33795,-3 65,-3"
       id="path4356"
       inkscape:connector-curvature="0" />
    <path
       style="fill:#ff5555;stroke:#000000;stroke-width:3;stroke-linecap:butt;stroke-linejoin:miter;stroke-opacity:1;fill-opacity:1;stroke-miterlimit:4;stroke-dasharray:none"
       d="m 350.01786,184.74216 c -1.20037,-0.7646 0.85053,4.80632 -0.70711,6.36396 -0.48422,0.48423 1.74529,12.35189 2.12132,12.72792 0.67204,0.67204 12.90963,1.23251 14.84924,-0.7071 0.66209,-0.66209 5.75479,1.31628 6.36396,0.7071 1.00403,-1.00402 0,-8.32177 0,-9.89949 0,-3.0729 0.0984,-9.80106 0,-9.89949 -0.60937,-0.60938 -0.83721,-0.64206 -3.53553,0.7071 -5.33095,2.66548 -13.45242,1.40987 -19.09188,0 z"
       id="path4418"
       inkscape:connector-curvature="0" />
    <path
       style="fill:#9e8c82;stroke:none;stroke-width:1px;stroke-linecap:butt;stroke-linejoin:miter;stroke-opacity:1;fill-opacity:1"
       d="m 403,325.86218 c -0.6957,-2.59177 5.13314,-12.76627 8.5,-19.5 1.39296,-2.78591 4.14925,-3.7985 5.5,-6.5 1.26206,-2.52412 3.18659,-7.18659 6,-10 1.44732,-1.44731 4.75812,-4.01624 6,-6.5 0.65758,-1.31517 1.47877,-2.97877 2.5,-4 1.39273,-1.39273 3.84293,-2.84293 5,-4 2.66164,-2.66164 5.10423,-8.10422 7.5,-10.5 0.89065,-0.89065 2,-15.98459 2,-18 0,-0.15141 -0.95324,-5 -0.5,-5 0.23111,0 5.27864,11.05728 7.5,15.5 0.58981,1.17962 1.74644,4.24645 3,5.5 0.31216,0.31216 3,2.251 3,3 0,0.77359 -1.87929,0.18965 -2.5,0.5 -2.16799,1.084 -4.21067,1.47378 -6.5,3 -9.11253,6.07502 0.84881,6.1512 -3,10 -3.90984,3.90984 -10.62963,6.38889 -12.5,12 -0.36801,1.10403 -1.60908,4.28184 -1,5.5 3.20339,6.40678 3.5,2.32028 3.5,9.5 0,0.39151 0.24949,2.25051 0,2.5 -1.82867,1.82868 -12.37134,2.21784 -15.5,3 -3.27513,0.81878 -4.35532,2.85532 -6,4.5 -0.70918,0.70918 -2.86744,0.36744 -3.5,1 -3.15569,3.15569 -5.35118,3.93897 -9,8.5 z"
       id="path4520"
       inkscape:connector-curvature="0" />
    <path
       style="fill:#c3c3c3;stroke:none;stroke-width:1px;stroke-linecap:butt;stroke-linejoin:miter;stroke-opacity:1;fill-opacity:1"
       d="m 351.5,500.86218 c 3.98011,-1.30779 26.99912,-2.49912 28.5,-4 1.65627,-1.65627 4.33622,-3.66811 7,-5 2.22515,-1.11257 5.27669,-0.38834 7.5,-1.5 2.29845,-1.14922 9.94706,-2.48235 13,-3.5 0.79349,-0.2645 3.47911,-0.4791 4,-1 0.16667,-0.16666 0.5,-0.7357 0.5,-0.5 0,0.19614 -1.89728,-3.89728 -4,-6 -2.67662,-2.67662 -6.22461,-3.72461 -8.5,-6 -1.07018,-1.07018 6.55427,-3.55427 7.5,-4.5 3.69959,-3.69959 1.0351,-6.0702 2,-8 0.78669,-1.57338 2.62982,-1.25963 3.5,-3 0.2913,-0.5826 -1.26693,-1.26693 -1.5,-1.5 -1.53553,-1.53553 2.82192,-3.67808 1.5,-5 -0.91449,-0.91449 -2.24432,-0.12784 -3.5,0.5 -7.92563,3.96282 -19.32479,1.8312 -28,4 -0.59705,0.14927 -23.33019,-3.91509 -24.5,-4.5 -1.59157,-0.79578 -4.34415,-2.5 -6.5,-2.5 -0.87835,0 -6.02117,-2.97883 -6.5,-2.5 -0.97786,0.97787 14.80649,12.69351 12.5,15 -2.39837,2.39837 -8.9718,1.9436 -9.5,3 -0.48653,0.97305 8.74164,6.75836 4.5,11 -2.04756,2.04756 -16.61161,9.38839 -15.5,10.5 1.08523,1.08523 5.64031,1.57016 7.5,2.5 2.43054,1.21527 3.68285,7.18285 4,7.5 1.38842,1.38843 3.41276,2.28191 4.5,5 z"
       id="path4560"
       inkscape:connector-curvature="0" />
    <path
       style="fill:#5a5a5a;fill-opacity:1;stroke:none"
       d="m 431,408.86218 c 2.06287,0.92991 -2.86439,-1.0678 -5,0 -6.57187,3.28594 -19.02474,2.5 -26.5,2.5 -4.18829,0 -8.50581,1.20116 -12.5,2 -5.03454,1.00691 -10.53539,-2.15487 -15.5,-0.5 -2.1091,0.70303 -12.12309,1.46923 -14,1 -4.04857,-1.01214 -8.25048,-2.5 -12.5,-2.5 -1.68302,0 -22,0.80653 -22,0 0,-0.11666 0.78333,0.5 1,0.5 2.23539,0 4.36553,0.78851 6.5,1.5 2.83907,0.94636 7.34588,-1.32706 10,0 1.88228,0.94114 6.45775,2.5 8.5,2.5 3.53915,0 13.47414,1.98707 16.5,3.5 0.77648,0.38824 2.1782,-0.27393 3,0 0.63908,0.21303 1.72338,1 2.5,1 2.75423,0 9.67226,-1.41387 12.5,0 3.04004,1.52002 9.50787,1.5 13,1.5 1.9427,0 5.84402,-0.17201 7.5,-1 1.32234,-0.66117 17.67388,-0.5 20.5,-0.5 4.46449,0 9,-1.22652 9,-6.5 0,-0.3915 0.24949,-2.25051 0,-2.5 -0.11785,-0.11785 -0.33333,0 -0.5,0 -0.66667,-0.83333 -1.33333,-1.66666 -2,-2.5 z"
       id="path4562"
       inkscape:connector-curvature="0" />
    <path
       style="fill:#5a5a5a;stroke:none;stroke-width:1px;stroke-linecap:butt;stroke-linejoin:miter;stroke-opacity:1;fill-opacity:1"
       d="m 311,416.86218 c -0.66667,-0.16666 -2.16667,0.16667 -2,-0.5 0.16667,-0.66666 2.48591,0.98591 2,0.5 -3.52282,-3.52282 -10.97688,2.02312 -9,4 3.058,3.058 18.44174,4 24,4 1.36042,0 6.31312,-0.84344 8,0 2.70734,1.35367 6.1094,0.53647 9,1.5 5.0157,1.6719 10.27052,3.13526 15,5.5 3.45845,1.72923 15.14248,1 19.5,1 9.27501,0 16.98144,-2.5 26,-2.5 2.8319,0 5.37601,-0.5 8,-0.5 0.6079,0 4.9663,-0.0337 4.5,-0.5 -2.45899,-2.45899 -24.13382,2.18309 -28.5,0 -1.46259,-0.73129 -3.59295,0.20353 -5,-0.5 -4.72374,-2.36187 -11.33499,-1.16749 -16,-3.5 -2.03841,-1.0192 -4.72437,1.38782 -6.5,0.5 -3.97309,-1.98654 -8.35609,-1.92804 -12.5,-4 -1.57353,-0.78676 -3.87303,-0.18651 -5.5,-1 -0.93333,-0.46666 -2.56667,0.46667 -3.5,0 -5.45325,-2.72662 -17.7873,0.21271 -21,-3 -0.32648,-0.32648 -5.35702,-0.5428 -6.5,-1 z"
       id="path4564"
       inkscape:connector-curvature="0" />
    <path
       style="fill:#8e826c;stroke:none;stroke-width:1px;stroke-linecap:butt;stroke-linejoin:miter;stroke-opacity:1;fill-opacity:1"
       d="m 267.28636,89.636299 c -0.35355,-0.471404 -1.53206,-1.06066 -1.06066,-1.414213 0.47141,-0.353554 1.47733,1.83088 1.06066,1.414213 -1.6256,-1.625608 -1.76776,-2.853757 -1.76776,-4.949747 0,-0.614983 1.04901,-3.900737 0.35355,-4.596194 -0.95279,-0.952795 -4.38968,-1.561255 -4.59619,-1.767767 -0.6827,-0.682701 3.82156,-7.003545 4.24264,-7.424621 1.44346,-1.443463 -1.71829,-4.999229 0,-6.717515 1.85892,-1.858926 6.35366,1.788366 7.77817,-1.06066 0.44417,-0.888347 1.29669,-3.417023 0.70711,-4.596194 -0.13748,-0.274965 -0.86649,-0.901282 -0.70711,-1.06066 1.62134,-1.621343 6.64151,-2.39887 7.07107,-2.828427 0.87297,-0.872974 2.02383,-4.370674 3.18198,-4.949748 0.8222,-0.411102 3.01598,-1.082207 3.53553,-2.12132 0.715,-1.43 0.64533,-3.681419 2.47488,-4.596194 1.70236,-0.851182 4.08027,0.08118 5.65685,-0.707107 1.82821,-0.914103 2.64139,-3.528694 4.24264,-4.596194 1.56726,-1.044838 3.30139,-1.473917 4.5962,-2.121321 1.23958,-0.61979 1.8164,-1.792083 3.18198,-2.474873 0.78654,-0.393274 4.18785,2.679043 8.13172,0.707107 1.30271,-0.651355 2.64088,-1.14366 3.88909,-1.767767 0.90708,-0.453539 0.66346,-1.39239 1.41422,-1.767767 1.10299,-0.551497 3.30033,2.356516 4.24264,1.414213 0.96873,-0.968736 3.23005,-2.522944 4.24264,-3.535534 0.62345,-0.623449 3.06879,0.410146 3.88908,0 2.27964,-1.139819 4.53197,-2.796313 6.71752,-3.889087 1.21837,-0.609188 3.29324,0.434316 4.59619,0 2.30546,-0.768484 3.7864,-2.423528 6.01041,-3.535534 2.18468,-1.092339 0.24358,3.072003 0.70711,3.535534 1.1102,1.110204 5.00106,-1.514959 6.36396,-1.06066 5.72683,1.908944 1.69187,6.532406 10.96015,0.353553 4.82716,-3.218105 2.08122,3.202033 4.24264,2.121321 1.1977,-0.598851 6.90908,-2.283314 8.13173,-1.060661 1.31332,1.313314 0.28077,3.675917 2.12132,4.596194 1.59445,0.797222 5.65927,-1.768971 7.07107,-2.474873 1.72648,-0.863243 2.12433,2.299602 3.18198,2.828427 1.42657,0.713285 3.00622,-1.855648 4.59619,-1.06066 0.80882,0.40441 1.01441,2.075067 1.76777,2.828427 0.95905,0.95905 2.67987,0.04952 3.88909,-0.353554 1.41329,-0.471098 2.71733,-1.032885 4.24264,-1.414213 3.97751,-0.994377 9.4766,0.637765 11.66726,2.828427 0.17678,0.176777 0.88389,-0.176777 1.06066,0 0.65674,0.656737 -0.96378,2.378 -1.06066,2.474874 -0.51499,0.51499 -5.44577,-0.541764 -7.07107,0 -7.33542,2.44514 -11.99092,-0.08091 -18.73833,-1.767767 -3.25818,-0.814547 -6.75358,1.402191 -9.89949,0.353553 -4.41033,-1.470109 -8.54858,-2.628954 -13.08148,-3.535534 -3.90309,-0.780619 -12.90873,1.238782 -16.61701,2.474874 -1.86925,0.623085 -5.97207,-4.085033 -7.77817,-3.181981 -4.6044,2.302199 -10.7333,4.716257 -15.9099,6.010408 -3.32154,0.830384 -7.08939,0.0061 -10.25305,1.06066 -4.01937,1.339789 -7.35605,4.561909 -10.96016,6.363961 -0.94259,0.471297 -2.52568,-0.336616 -3.53553,0 -3.31986,1.10662 -5.7852,4.167571 -9.19239,5.303301 -3.1071,1.035702 -6.61369,1.362304 -9.54594,2.828427 -2.97834,1.489173 -2.27612,5.811651 -3.88909,7.424621 -1.21644,1.216443 -2.75835,1.697689 -3.88908,2.828428 -2.12373,2.123725 0.90716,5.61029 -0.35356,8.131728 -1.27095,2.541908 -4.10212,3.254498 -5.3033,5.656854 -0.43804,0.876078 -1.44021,5.984414 -0.70711,6.717514 0.0354,0.03536 0.78961,0.271058 0.35356,0.707107 -2.29446,2.294455 -1.38039,9.135208 -5.65686,7.424621 z"
       id="path4579"
       inkscape:connector-curvature="0" />
  </g>
</svg>
