<?xml version="1.0" encoding="UTF-8" standalone="no"?>
<!-- Created with Inkscape (http://www.inkscape.org/) -->

<svg
   xmlns:dc="http://purl.org/dc/elements/1.1/"
   xmlns:cc="http://creativecommons.org/ns#"
   xmlns:rdf="http://www.w3.org/1999/02/22-rdf-syntax-ns#"
   xmlns:svg="http://www.w3.org/2000/svg"
   xmlns="http://www.w3.org/2000/svg"
   xmlns:sodipodi="http://sodipodi.sourceforge.net/DTD/sodipodi-0.dtd"
   xmlns:inkscape="http://www.inkscape.org/namespaces/inkscape"
   width="518.25"
   height="182.875"
   id="svg2"
   version="1.1"
   inkscape:version="0.48.1 r9760"
   sodipodi:docname="hjkl.svg"
   inkscape:export-filename="/home/substack/media/vector/hjkl.png"
   inkscape:export-xdpi="166.31891"
   inkscape:export-ydpi="166.31891">
  <defs
     id="defs4" />
  <sodipodi:namedview
     id="base"
     pagecolor="#ffffff"
     bordercolor="#666666"
     borderopacity="1.0"
     inkscape:pageopacity="0.0"
     inkscape:pageshadow="2"
     inkscape:zoom="0.98994949"
     inkscape:cx="190.98046"
     inkscape:cy="106.35835"
     inkscape:document-units="px"
     inkscape:current-layer="layer1"
     showgrid="false"
     fit-margin-top="50"
     fit-margin-left="50"
     fit-margin-right="0"
     fit-margin-bottom="0"
     inkscape:window-width="1364"
     inkscape:window-height="766"
     inkscape:window-x="0"
     inkscape:window-y="0"
     inkscape:window-maximized="0" />
  <metadata
     id="metadata7">
    <rdf:RDF>
      <cc:Work
         rdf:about="">
        <dc:format>image/svg+xml</dc:format>
        <dc:type
           rdf:resource="http://purl.org/dc/dcmitype/StillImage" />
        <dc:title></dc:title>
      </cc:Work>
    </rdf:RDF>
  </metadata>
  <g
     inkscape:label="Layer 1"
     inkscape:groupmode="layer"
     id="layer1"
     transform="translate(-89.46875,-121.625)">
    <rect
       style="color:#000000;fill:#483737;fill-opacity:1;fill-rule:nonzero;stroke:#ffffff;stroke-width:2.06100011;stroke-linecap:round;stroke-linejoin:round;stroke-miterlimit:4;stroke-opacity:1;stroke-dasharray:none;stroke-dashoffset:0;marker:none;visibility:visible;display:inline;overflow:visible;enable-background:accumulate"
       id="rect4296"
       width="516.18793"
       height="180.81731"
       x="90.507629"
       y="122.65268"
       rx="20.715265"
       ry="0.59531742"
       inkscape:export-filename="/home/substack/media/vector/hjkl.png"
       inkscape:export-xdpi="166.31891"
       inkscape:export-ydpi="166.31891" />
    <path
       style="fill:none;stroke:#ffffff;stroke-width:1.49766755px;stroke-linecap:butt;stroke-linejoin:miter;stroke-opacity:1"
       d="m 255.61858,270.25784 c -6.85069,-0.0762 -10.85181,-7.2755 -9.81929,-13.48292 -1.15505,-6.08485 -1.54595,-12.32848 -0.50178,-18.42972 0.25381,-5.60309 0.26008,-16.33755 -0.1585,-24.50168 -0.50136,-5.7067 0.0304,-14.44515 0.4656,-19.09152 -0.0274,-4.04298 -0.007,-11.85616 2.66555,-18.62496 2.20278,-6.01048 3.99257,-9.59509 10.41696,-10.53197 5.25635,-2.30554 15.03855,-1.9287 20.64349,-2.44833 6.46633,-0.3332 14.26849,-0.22273 20.78586,-0.0807 4.70329,0.0668 18.1938,-0.48423 23.65015,-0.72768 6.56444,0.12431 14.78031,0.21679 19.14489,5.92636 5.20521,2.97743 5.6014,34.59103 5.25174,55.52869 0.0806,7.59691 1.57331,17.37693 1.14655,22.72751 0.13509,5.90011 -0.24238,17.35999 -3.01139,21.53934 -5.35116,3.8356 -14.15339,1.62656 -19.03529,2.30019 -5.14516,-0.0244 -11.25068,-0.69047 -17.67197,-0.009 -6.41271,-0.67744 -15.12309,0.0344 -19.94288,-0.1017 -8.19019,0.51498 -19.70538,0.68186 -27.3208,0.26536 -2.20051,0.56163 -4.57925,0.62523 -6.70889,-0.25737 z"
       id="path3048"
       inkscape:connector-curvature="0"
       sodipodi:nodetypes="ccccccccccccccccccc" />
    <path
       style="fill:none;stroke:#ffffff;stroke-width:1.49766755px;stroke-linecap:butt;stroke-linejoin:miter;stroke-opacity:1"
       d="m 327.21665,180.93267 c 0.26812,-5.60248 1.29361,-14.49895 -7.04595,-14.01434 -8.21891,-1.23265 -27.06565,-1.04428 -33.97661,-0.85196 -5.98325,-0.37791 -15.70948,0.71629 -23.05171,0.79015 -9.8286,-0.47597 -10.76917,13.26126 -10.25044,19.42948 -0.0394,5.32393 -1.00796,12.26654 -0.28378,19.45113 -0.0454,8.01232 -0.40964,18.00591 6.69554,23.32671 8.46372,4.37937 15.11028,2.26875 23.4161,2.2793 4.98042,-0.21345 18.20803,0.21885 24.34227,-0.29376 7.66467,-0.3759 18.18718,-0.98531 19.14313,-9.04511 0.93366,-5.62532 2.2423,-13.45972 1.38514,-19.78999 0.62425,-7.10022 -0.38628,-14.15622 -0.37369,-21.28161 z"
       id="path3833"
       inkscape:connector-curvature="0"
       sodipodi:nodetypes="cccccccccccc" />
    <path
       sodipodi:nodetypes="ccccccccccccccccccc"
       inkscape:connector-curvature="0"
       id="path3838"
       d="m 366.81472,270.25784 c -6.85069,-0.0762 -10.85181,-7.2755 -9.81929,-13.48292 -1.15505,-6.08485 -1.54595,-12.32848 -0.50178,-18.42972 0.25381,-5.60309 0.26008,-16.33755 -0.1585,-24.50168 -0.50136,-5.7067 0.0304,-14.44515 0.4656,-19.09152 -0.0274,-4.04298 -0.007,-11.85616 2.66554,-18.62496 2.20279,-6.01048 3.99258,-9.59509 10.41697,-10.53197 5.25635,-2.30554 15.03855,-1.9287 20.64349,-2.44833 6.46633,-0.3332 14.26849,-0.22273 20.78586,-0.0807 4.70329,0.0668 18.1938,-0.48423 23.65015,-0.72768 6.56444,0.12431 14.78031,0.21679 19.14489,5.92636 5.20521,2.97743 5.6014,34.59103 5.25174,55.52869 0.0806,7.59691 1.57331,17.37693 1.14655,22.7275 0.13509,5.90012 -0.24238,17.36 -3.01139,21.53933 -5.35116,3.83561 -14.15339,1.62656 -19.03529,2.3002 -5.14516,-0.0244 -11.25068,-0.69047 -17.67197,-0.009 -6.41271,-0.67744 -15.12309,0.0344 -19.94288,-0.10169 -8.19019,0.51497 -19.70538,0.68186 -27.3208,0.26537 -2.20051,0.56163 -4.57925,0.62522 -6.70889,-0.25739 z"
       style="fill:none;stroke:#ffffff;stroke-width:1.49766755px;stroke-linecap:butt;stroke-linejoin:miter;stroke-opacity:1" />
    <path
       sodipodi:nodetypes="cccccccccccc"
       inkscape:connector-curvature="0"
       id="path3840"
       d="m 442.19498,180.93267 c 0.26813,-5.60248 1.29361,-14.49895 -7.04594,-14.01434 -8.21892,-1.23265 -27.06566,-1.04428 -33.97661,-0.85196 -5.98326,-0.37791 -15.70949,0.71629 -23.05171,0.79015 -9.82861,-0.47597 -10.76918,13.26126 -10.25044,19.42948 -0.0394,5.32393 -1.00796,12.26654 -0.28378,19.45113 -0.0454,8.01232 -0.40964,18.00591 6.69553,23.32671 8.46372,4.37937 15.11028,2.26875 23.41611,2.2793 4.98042,-0.21345 18.20803,0.21885 24.34226,-0.29376 7.66468,-0.3759 18.18718,-0.98531 19.14313,-9.04511 0.93366,-5.62532 2.24231,-13.45972 1.38515,-19.78999 0.62424,-7.10022 -0.38628,-14.15622 -0.3737,-21.28161 z"
       style="fill:none;stroke:#ffffff;stroke-width:1.49766755px;stroke-linecap:butt;stroke-linejoin:miter;stroke-opacity:1" />
    <path
       style="fill:none;stroke:#ffffff;stroke-width:1.49766755px;stroke-linecap:butt;stroke-linejoin:miter;stroke-opacity:1"
       d="m 479.52373,270.25784 c -6.85069,-0.0762 -10.85182,-7.2755 -9.81929,-13.48292 -1.15505,-6.08485 -1.54596,-12.32848 -0.50178,-18.42972 0.25381,-5.60309 0.26008,-16.33755 -0.1585,-24.50168 -0.50136,-5.7067 0.0304,-14.44515 0.46559,-19.09152 -0.0274,-4.04298 -0.007,-11.85616 2.66555,-18.62496 2.20279,-6.01048 3.99258,-9.59509 10.41697,-10.53197 5.25635,-2.30554 15.03854,-1.9287 20.64349,-2.44833 6.46633,-0.3332 14.26849,-0.22273 20.78586,-0.0807 4.70329,0.0668 18.1938,-0.48423 23.65015,-0.72768 6.56444,0.12431 14.78031,0.21679 19.14489,5.92636 5.2052,2.97743 5.6014,34.59103 5.25174,55.52869 0.0806,7.59691 1.57331,17.37693 1.14655,22.7275 0.13509,5.90012 -0.24238,17.36 -3.01139,21.53933 -5.35117,3.83561 -14.15339,1.62656 -19.03529,2.3002 -5.14517,-0.0244 -11.25068,-0.69047 -17.67197,-0.009 -6.41271,-0.67744 -15.12309,0.0344 -19.94288,-0.10169 -8.19019,0.51497 -19.70538,0.68186 -27.3208,0.26537 -2.20051,0.56163 -4.57925,0.62522 -6.70889,-0.25739 z"
       id="path3842"
       inkscape:connector-curvature="0"
       sodipodi:nodetypes="ccccccccccccccccccc" />
    <path
       style="fill:none;stroke:#ffffff;stroke-width:1.49766755px;stroke-linecap:butt;stroke-linejoin:miter;stroke-opacity:1"
       d="m 556.41686,180.93267 c 0.26812,-5.60248 1.29361,-14.49895 -7.04594,-14.01434 -8.21892,-1.23265 -27.06566,-1.04428 -33.97662,-0.85196 -5.98325,-0.37791 -15.70948,0.71629 -23.0517,0.79015 -9.82861,-0.47597 -10.76918,13.26126 -10.25045,19.42948 -0.0394,5.32393 -1.00796,12.26654 -0.28377,19.45113 -0.0454,8.01232 -0.40965,18.00591 6.69553,23.32671 8.46372,4.37937 15.11028,2.26875 23.41611,2.2793 4.98041,-0.21345 18.20802,0.21885 24.34226,-0.29376 7.66467,-0.3759 18.18718,-0.98531 19.14313,-9.04511 0.93366,-5.62532 2.24231,-13.45972 1.38514,-19.78999 0.62425,-7.10022 -0.38627,-14.15622 -0.37369,-21.28161 z"
       id="path3844"
       inkscape:connector-curvature="0"
       sodipodi:nodetypes="cccccccccccc" />
    <path
       sodipodi:nodetypes="ccccccccccccccccccc"
       inkscape:connector-curvature="0"
       id="path3846"
       d="m 142.90956,270.25784 c -6.85069,-0.0762 -10.85182,-7.2755 -9.8193,-13.48292 -1.15504,-6.08485 -1.54595,-12.32848 -0.50177,-18.42972 0.25381,-5.60309 0.26008,-16.33755 -0.1585,-24.50168 -0.50136,-5.7067 0.0304,-14.44515 0.46559,-19.09152 -0.0274,-4.04298 -0.007,-11.85616 2.66555,-18.62496 2.20279,-6.01048 3.99257,-9.59509 10.41697,-10.53197 5.25635,-2.30554 15.03854,-1.9287 20.64349,-2.44833 6.46633,-0.3332 14.26849,-0.22273 20.78586,-0.0807 4.70329,0.0668 18.1938,-0.48423 23.65014,-0.72768 6.56445,0.12431 14.78032,0.21679 19.1449,5.92636 5.2052,2.97743 5.60139,34.59103 5.25173,55.52869 0.0806,7.59691 1.57332,17.37693 1.14656,22.7275 0.13509,5.90012 -0.24238,17.36 -3.01139,21.53933 -5.35117,3.83561 -14.15339,1.62656 -19.0353,2.3002 -5.14516,-0.0244 -11.25067,-0.69047 -17.67196,-0.009 -6.41272,-0.67744 -15.12309,0.0344 -19.94289,-0.10169 -8.19018,0.51497 -19.70538,0.68186 -27.32079,0.26537 -2.20051,0.56163 -4.57925,0.62522 -6.70889,-0.25739 z"
       style="fill:none;stroke:#ffffff;stroke-width:1.49766755px;stroke-linecap:butt;stroke-linejoin:miter;stroke-opacity:1" />
    <path
       sodipodi:nodetypes="cccccccccccc"
       inkscape:connector-curvature="0"
       id="path3848"
       d="m 212.99475,180.93267 c 0.26813,-5.60248 1.29361,-14.49895 -7.04594,-14.01434 -8.21891,-1.23265 -27.06565,-1.04428 -33.97661,-0.85196 -5.98326,-0.37791 -15.70948,0.71629 -23.05171,0.79015 -9.82861,-0.47597 -10.76917,13.26126 -10.25044,19.42948 -0.0394,5.32393 -1.00796,12.26654 -0.28378,19.45113 -0.0454,8.01232 -0.40964,18.00591 6.69553,23.32671 8.46373,4.37937 15.11029,2.26875 23.41611,2.2793 4.98042,-0.21345 18.20803,0.21885 24.34227,-0.29376 7.66467,-0.3759 18.18718,-0.98531 19.14312,-9.04511 0.93366,-5.62532 2.24231,-13.45972 1.38515,-19.78999 0.62424,-7.10022 -0.38628,-14.15622 -0.3737,-21.28161 z"
       style="fill:none;stroke:#ffffff;stroke-width:1.49766755px;stroke-linecap:butt;stroke-linejoin:miter;stroke-opacity:1" />
    <path
       style="fill:none;stroke:#ffffff;stroke-width:1.49766755px;stroke-linecap:butt;stroke-linejoin:miter;stroke-opacity:1"
       d="m 213.09179,216.12884 c -0.77231,3.66147 -0.2479,6.44443 0.33234,9.61212 0,3.94144 1.15072,7.31828 2.31519,10.81166 2.66516,7.99548 11.52777,26.27827 17.01982,31.77032"
       id="path3863"
       inkscape:connector-curvature="0"
       sodipodi:nodetypes="ccsc" />
    <path
       style="fill:none;stroke:#ffffff;stroke-width:1.49766755px;stroke-linecap:butt;stroke-linejoin:miter;stroke-opacity:1"
       d="m 212.2932,170.23505 c 0.79195,-1.18915 7.16826,-5.61625 12.5697,-5.61625"
       id="path3958"
       inkscape:connector-curvature="0" />
    <path
       style="fill:none;stroke:#ffffff;stroke-width:1.49766755px;stroke-linecap:butt;stroke-linejoin:miter;stroke-opacity:1"
       d="m 325.95546,222.92085 c 0.60378,6.7849 3.39568,19.09359 6.95346,26.20917 0.22145,0.44289 0.0425,1.15496 0.26744,1.60465 1.407,2.81398 2.15152,6.16312 4.01161,8.02321 0.92978,0.92978 1.15521,2.75986 1.87208,3.47673 1.39087,1.39087 2.8578,3.12524 4.01161,4.27906 0.73285,0.73284 1.86067,1.05834 2.40697,1.60463"
       id="path3962"
       inkscape:connector-curvature="0"
       sodipodi:nodetypes="cscsscc" />
    <path
       style="fill:none;stroke:#ffffff;stroke-width:1.49766755px;stroke-linecap:butt;stroke-linejoin:miter;stroke-opacity:1"
       d="m 247.59535,265.97878 c -0.35038,-5.14934 -0.22243,-14.57543 0.31689,-17.2844 0.32241,-2.85442 0.94951,-5.16954 1.97203,-9.54401 0.37226,-3.37566 2.52734,-10.61007 3.86215,-17.56672"
       id="path3964"
       inkscape:connector-curvature="0"
       sodipodi:nodetypes="cccc" />
    <path
       style="fill:none;stroke:#ffffff;stroke-width:1.49766755px;stroke-linecap:butt;stroke-linejoin:miter;stroke-opacity:1"
       d="m 140.08424,221.31621 c -1.80132,8.09989 -2.99977,16.14514 -3.91736,20.11999 -1.24741,5.07316 -1.74245,8.13773 -1.78125,10.97172 -0.41032,2.91157 -1.09856,8.55543 -0.45326,10.89646"
       id="path4016"
       inkscape:connector-curvature="0"
       sodipodi:nodetypes="cccc" />
    <path
       style="fill:none;stroke:#ffffff;stroke-width:1.49766755px;stroke-linecap:butt;stroke-linejoin:miter;stroke-opacity:1"
       d="m 326.49034,169.9676 c 2.36688,-1.90325 8.57408,-4.98307 11.49996,-5.3488"
       id="path4040"
       inkscape:connector-curvature="0"
       sodipodi:nodetypes="cc" />
    <path
       style="fill:none;stroke:#ffffff;stroke-width:1.49766755px;stroke-linecap:butt;stroke-linejoin:miter;stroke-opacity:1"
       d="m 145.43304,167.2932 c -0.3566,-0.26744 -0.71318,-0.53488 -1.06977,-0.80232 0,-0.0891 0,-0.1783 0,-0.26744"
       id="path4092"
       inkscape:connector-curvature="0" />
    <path
       style="fill:none;stroke:#ffffff;stroke-width:1.49766755px;stroke-linecap:butt;stroke-linejoin:miter;stroke-opacity:1"
       d="m 258.29298,167.82807 c -0.0617,-0.0219 -2.20782,-0.80231 -4.54648,-0.80231"
       id="path4107"
       inkscape:connector-curvature="0" />
    <path
       style="fill:none;stroke:#ffffff;stroke-width:1.49766755px;stroke-linecap:butt;stroke-linejoin:miter;stroke-opacity:1"
       d="m 368.47852,220.24644 c -1.45672,3.03814 -2.41175,6.16073 -3.74416,9.89531 -0.9623,2.69721 -2.92863,11.48428 -3.74417,14.17433 -1.23583,4.07631 -2.94186,9.53952 -2.94186,20.05805"
       id="path4148"
       inkscape:connector-curvature="0"
       sodipodi:nodetypes="cssc" />
    <path
       style="fill:none;stroke:#ffffff;stroke-width:1.49766755px;stroke-linecap:butt;stroke-linejoin:miter;stroke-opacity:1"
       d="m 457.00137,268.6532 c -3.82772,-2.75818 -4.89099,-6.98577 -6.45758,-10.98904 -2.91568,-5.87344 -3.89773,-13.04823 -5.67756,-19.27453 -0.73836,-4.14843 -3.24857,-9.01182 -3.37641,-16.00365"
       id="path4189"
       inkscape:connector-curvature="0"
       sodipodi:nodetypes="cccc" />
    <path
       style="fill:none;stroke:#ffffff;stroke-width:1.49766755px;stroke-linecap:butt;stroke-linejoin:miter;stroke-opacity:1"
       d="m 440.95494,169.43272 c 2.65051,-2.43217 6.57066,-4.23957 9.89533,-4.27906"
       id="path4207"
       inkscape:connector-curvature="0"
       sodipodi:nodetypes="cc" />
    <path
       style="fill:none;stroke:#ffffff;stroke-width:1.49766755px;stroke-linecap:butt;stroke-linejoin:miter;stroke-opacity:1"
       d="m 372.22269,168.89784 c -1.52383,-0.85921 -4.71671,-2.13952 -5.34881,-2.13952"
       id="path4235"
       inkscape:connector-curvature="0"
       sodipodi:nodetypes="cc" />
    <path
       style="fill:none;stroke:#ffffff;stroke-width:1.49766755px;stroke-linecap:butt;stroke-linejoin:miter;stroke-opacity:1"
       d="m 554.61721,168.6304 c 0.39046,-0.41069 4.14639,-2.94185 8.5581,-3.47673"
       id="path4263"
       inkscape:connector-curvature="0"
       sodipodi:nodetypes="cc" />
    <path
       style="fill:none;stroke:#ffffff;stroke-width:1.49766755px;stroke-linecap:butt;stroke-linejoin:miter;stroke-opacity:1"
       d="m 485.88497,168.6304 c -0.37141,-0.17073 -4.41164,-1.87208 -7.75578,-1.87208"
       id="path4265"
       inkscape:connector-curvature="0" />
    <path
       style="fill:none;stroke:#ffffff;stroke-width:1.49766755px;stroke-linecap:butt;stroke-linejoin:miter;stroke-opacity:1"
       d="m 483.47799,221.58365 c -2.76435,7.54739 -6.24106,16.77789 -7.89009,21.47865 -2.32214,6.61961 -4.41217,13.69739 -4.67961,21.57929"
       id="path4267"
       inkscape:connector-curvature="0"
       sodipodi:nodetypes="csc" />
    <path
       style="fill:none;stroke:#ffffff;stroke-width:1.49766755px;stroke-linecap:butt;stroke-linejoin:miter;stroke-opacity:1"
       d="m 555.95441,218.64181 c -0.75381,8.98955 1.18086,17.86464 3.59865,26.45331 1.44476,7.06856 2.81727,10.05109 4.50385,13.28057 1.65664,3.55162 4.02547,9.16585 5.00209,10.01007"
       id="path4282"
       inkscape:connector-curvature="0"
       sodipodi:nodetypes="cccc" />
    <path
       style="fill:none;stroke:#e3dbdb;stroke-width:4;stroke-linecap:round;stroke-linejoin:round;stroke-miterlimit:4;stroke-opacity:1;stroke-dasharray:none"
       d="m 167.30355,196.20578 c -0.52114,8.60993 0.5349,15.34307 0.5349,24.06966"
       id="path4311"
       inkscape:connector-curvature="0" />
    <path
       style="fill:none;stroke:#e3dbdb;stroke-width:4;stroke-linecap:round;stroke-linejoin:round;stroke-miterlimit:4;stroke-opacity:1;stroke-dasharray:none"
       d="m 167.83845,206.90341 c 5.75845,0.93976 11.78498,0.53488 17.65107,0.53488"
       id="path4326"
       inkscape:connector-curvature="0" />
    <path
       style="fill:none;stroke:#e3dbdb;stroke-width:4;stroke-linecap:round;stroke-linejoin:round;stroke-miterlimit:4;stroke-opacity:1;stroke-dasharray:none"
       d="m 185.48952,196.20578 c -0.74979,3.83697 0.19091,2.80275 0,0 0,3.26609 0,5.07922 0,8.55811 0,2.47513 0.29399,15.80554 0.53488,16.04644"
       id="path4328"
       inkscape:connector-curvature="0"
       sodipodi:nodetypes="ccsc" />
    <path
       sodipodi:nodetypes="ccccccccc"
       inkscape:connector-curvature="0"
       id="path4374"
       d="m 530.64844,183.30385 c -0.47708,1.38224 -11.05628,4.53065 -12.00066,4.10545 -0.49341,-0.5557 0.05,-1.83112 -0.25249,-2.85586 -1.87123,-0.0944 -6.16208,0.21266 -9.21217,-0.0783 -0.68725,-0.60109 -0.4099,-2.62521 0.33642,-2.95731 1.06357,-0.3726 6.41593,-0.0262 8.86865,-0.13973 -0.0545,-0.97715 -0.17833,-2.61326 0.33231,-3.19911 0.67541,-0.43138 11.74057,3.74106 11.92794,5.12493 z"
       style="fill:#ffffff;fill-opacity:1;stroke:none" />
    <path
       style="fill:#ffffff;fill-opacity:1;stroke:none"
       d="m 165.11536,182.66086 c 0.45563,-1.38946 10.9848,-4.70131 11.93564,-4.29077 0.50196,0.54798 -0.0217,1.83168 0.29671,2.8516 1.87246,0.0653 6.15805,-0.30804 9.21227,-0.0642 0.69648,0.59038 0.45048,2.61855 -0.29059,2.96216 -1.05769,0.38902 -6.41477,0.12551 -8.86542,0.27698 0.0696,0.9762 0.21877,2.6102 -0.28276,3.20387 -0.66863,0.4418 -11.79706,-3.5588 -12.00585,-4.93962 z"
       id="path4343"
       inkscape:connector-curvature="0"
       sodipodi:nodetypes="ccccccccc" />
    <path
       sodipodi:nodetypes="ccccccccc"
       inkscape:connector-curvature="0"
       id="path4352"
       d="m 292.58467,191.48128 c -1.39761,-0.43 -4.90254,-10.89648 -4.50957,-11.85472 0.53867,-0.51194 1.83177,-0.012 2.84568,-0.34909 0.0309,-1.87334 -0.42125,-6.15134 -0.23367,-9.20953 0.57747,-0.70721 2.60982,-0.49857 2.967,0.23606 0.40841,1.05035 0.24346,6.41137 0.43998,8.85883 0.97475,-0.0876 2.60574,-0.26674 3.20853,0.22378 0.45402,0.66039 -3.34123,11.86052 -4.71798,12.09467 z"
       style="fill:#ffffff;fill-opacity:1;stroke:none" />
    <path
       style="fill:none;stroke:#ffffff;stroke-width:4;stroke-linecap:round;stroke-linejoin:round;stroke-miterlimit:4;stroke-opacity:1;stroke-dasharray:none"
       d="m 298.79909,196.44703 c 0.0292,5.01282 -0.1261,10.03521 0.10094,15.00135 0.76693,5.5223 -2.78976,8.75638 -7.43169,8.26481 -3.12372,-0.86288 -6.37374,-3.01571 -5.71783,-6.43546"
       id="path4354"
       inkscape:connector-curvature="0"
       sodipodi:nodetypes="cccc" />
    <path
       style="fill:#ffffff;fill-opacity:1;stroke:none"
       d="m 406.75444,171.14547 c 1.39761,0.42999 4.90254,10.89647 4.50957,11.85471 -0.53867,0.51195 -1.83177,0.012 -2.84567,0.34909 -0.0308,1.87334 0.42125,6.15134 0.23366,9.20953 -0.57747,0.70722 -2.60982,0.49858 -2.967,-0.23606 -0.40841,-1.05034 -0.24346,-6.41136 -0.43998,-8.85882 -0.97474,0.0876 -2.60573,0.26673 -3.20853,-0.22378 -0.45402,-0.6604 3.34124,-11.86053 4.71798,-12.09467 z"
       id="path4362"
       inkscape:connector-curvature="0"
       sodipodi:nodetypes="ccccccccc" />
    <path
       style="fill:none;stroke:#ffffff;stroke-width:4;stroke-linecap:round;stroke-linejoin:round;stroke-miterlimit:4;stroke-opacity:1;stroke-dasharray:none"
       d="m 398.03073,199.11863 c -0.0475,3.52801 0.36957,5.98034 0.45226,8.29801 -0.15218,1.94423 0.38352,6.36208 0.0258,8.32058 0.17054,1.3916 0.25288,3.9177 0.32426,5.84637"
       id="path4364"
       inkscape:connector-curvature="0"
       sodipodi:nodetypes="cccc" />
    <path
       style="fill:none;stroke:#ffffff;stroke-width:4;stroke-linecap:round;stroke-linejoin:round;stroke-miterlimit:4;stroke-opacity:1;stroke-dasharray:none"
       d="m 416.08297,198.04886 c -1.60652,0.91354 -5.85347,4.64998 -7.88951,6.68603 -0.80344,0.80343 -1.86981,1.06747 -2.80812,2.00581 -0.66179,0.66177 -1.18954,1.32325 -1.87209,2.00579 -0.55321,0.55321 -1.15716,0.62227 -1.73837,1.20348 -0.23245,0.23247 -0.47464,0.77222 -0.80232,0.93605 -0.94155,0.47077 -1.32784,0.92668 -1.73835,1.3372"
       id="path4370"
       inkscape:connector-curvature="0"
       sodipodi:nodetypes="cscsccc" />
    <path
       style="fill:none;stroke:#ffffff;stroke-width:4;stroke-linecap:round;stroke-linejoin:round;stroke-miterlimit:4;stroke-opacity:1;stroke-dasharray:none"
       d="m 404.98419,208.07789 c 1.28191,1.51016 4.3336,4.65563 4.81392,5.61625 0.98683,1.22492 3.6923,3.594 4.54648,4.5465 0.94791,1.057 2.17544,2.30915 3.07557,3.20929"
       id="path4372"
       inkscape:connector-curvature="0"
       sodipodi:nodetypes="ccsc" />
    <path
       style="fill:none;stroke:#ffffff;stroke-width:4;stroke-linecap:round;stroke-linejoin:round;stroke-miterlimit:4;stroke-opacity:1;stroke-dasharray:none"
       d="m 512.68146,198.14901 c 0.37135,4.49632 0.14872,8.2706 0.20882,10.87388 -0.0713,3.42591 0.11652,8.81479 0.90449,10.43068 1.41956,1.5547 5.17276,0.81948 7.282,1.19111 2.56395,0.078 5.87519,-0.13628 8.81362,-0.18151"
       id="path4389"
       inkscape:connector-curvature="0"
       sodipodi:nodetypes="ccccc" />
  </g>
</svg>
