<?xml version="1.0" encoding="UTF-8" standalone="no"?>
<!-- Created with Inkscape (http://www.inkscape.org/) -->

<svg
   xmlns:dc="http://purl.org/dc/elements/1.1/"
   xmlns:cc="http://creativecommons.org/ns#"
   xmlns:rdf="http://www.w3.org/1999/02/22-rdf-syntax-ns#"
   xmlns:svg="http://www.w3.org/2000/svg"
   xmlns="http://www.w3.org/2000/svg"
   xmlns:sodipodi="http://sodipodi.sourceforge.net/DTD/sodipodi-0.dtd"
   xmlns:inkscape="http://www.inkscape.org/namespaces/inkscape"
   width="1052.3622"
   height="744.09448"
   id="svg2"
   version="1.1"
   inkscape:version="0.48.2 r9819"
   sodipodi:docname="hyperspace.svg"
   inkscape:export-filename="/home/substack/media/vector/hyperspace.png"
   inkscape:export-xdpi="41.003445"
   inkscape:export-ydpi="41.003445">
  <defs
     id="defs4" />
  <sodipodi:namedview
     id="base"
     pagecolor="#ffffff"
     bordercolor="#666666"
     borderopacity="1.0"
     inkscape:pageopacity="0.0"
     inkscape:pageshadow="2"
     inkscape:zoom="0.43476563"
     inkscape:cx="504.4562"
     inkscape:cy="400.11688"
     inkscape:document-units="px"
     inkscape:current-layer="layer1"
     showgrid="false"
     inkscape:window-width="1364"
     inkscape:window-height="766"
     inkscape:window-x="0"
     inkscape:window-y="0"
     inkscape:window-maximized="0" />
  <metadata
     id="metadata7">
    <rdf:RDF>
      <cc:Work
         rdf:about="">
        <dc:format>image/svg+xml</dc:format>
        <dc:type
           rdf:resource="http://purl.org/dc/dcmitype/StillImage" />
        <dc:title></dc:title>
      </cc:Work>
    </rdf:RDF>
  </metadata>
  <g
     inkscape:label="Layer 1"
     inkscape:groupmode="layer"
     id="layer1"
     transform="translate(0,-308.2677)">
    <path
       style="fill:#e3d8d8;fill-opacity:1;stroke:none"
       d="m 682.22182,299.90936 -16.09375,27.34375 c 1.6154,0.85201 3.17408,1.71165 4.625,2.53125 l 17.75,-29.03125 c -2.11806,-0.13958 -4.21301,-0.41485 -6.28125,-0.84375 z"
       id="path6353" />
    <path
       style="fill:#e3d8d8;fill-opacity:1;stroke:none"
       d="m 261.25307,331.62811 c -1.74255,0.13999 -3.72863,0.31404 -5.59375,0.46875 l 3.25,3.8125 c 1.21021,-0.93742 2.41968,-1.89928 3.625,-2.84375 l -1.28125,-1.4375 z"
       id="path6351" />
    <path
       style="fill:#e3d8d8;fill-opacity:1;stroke:none"
       d="m 593.62807,331.87811 -7.71875,27.28125 c 1.52134,1.14444 2.86408,2.30196 3.96875,3.4375 l 7,-25.84375 -3.25,-4.875 z"
       id="path6349" />
    <path
       style="fill:#e252cb;fill-opacity:1;stroke:none"
       d="m 476.28432,339.53436 c -2.46592,0.0802 -4.9812,0.1126 -7.5,0.0625 l 6.25,36.6875 c 2.22118,0.25646 4.4301,0.51239 6.6875,0.75 l -5.4375,-37.5 z"
       id="path6347" />
    <path
       style="fill:#e252cb;fill-opacity:1;stroke:none"
       d="m 657.78432,341.44061 -82.3125,139.875 c 0.68659,0.22622 1.38565,0.56221 2.09375,0.96875 l 83.75,-137.09375 c -1.20814,-1.2778 -2.35575,-2.51089 -3.53125,-3.75 z"
       id="path6345" />
    <path
       style="fill:#33b5ff;fill-opacity:1;stroke:none"
       d="m 750.00307,341.56561 -43.09375,51.875 c 1.6532,0.41894 3.3552,0.96557 5.125,1.59375 l 39.59375,-46.125 c -0.0779,-0.26346 -0.15711,-0.53471 -0.21875,-0.78125 -0.54091,-2.16364 -0.98622,-4.35787 -1.40625,-6.5625 z"
       id="path6343" />
    <path
       style="fill:#e3d8d8;fill-opacity:1;stroke:none"
       d="m 286.09682,359.40936 c -1.64198,0.82904 -3.30299,1.65843 -4.96875,2.46875 l 58.5625,68.46875 c 1.49418,-1.75914 3.06733,-3.65675 4.6875,-5.625 l -58.28125,-65.3125 z"
       id="path6341" />
    <path
       style="fill:#33b5ff;fill-opacity:1;stroke:none"
       d="m 586.75307,374.12811 c -1.74752,0.71543 -3.66915,1.31837 -5.625,1.90625 l -17.4375,61.5 c 1.6975,1.64452 3.26872,3.26435 4.53125,4.84375 l 18.53125,-68.25 z"
       id="path6339" />
    <path
       style="fill:#e3d8d8;fill-opacity:1;stroke:none"
       d="m 476.94057,387.47186 8.65625,50.5625 c 1.64763,0.1093 3.30549,0.21798 5,0.3125 l -6.875,-47.40625 c -0.74862,-0.3028 -1.45873,-0.617 -2.125,-1 -0.62193,-0.35751 -2.82503,-1.49277 -4.65625,-2.46875 z"
       id="path6337" />
    <path
       style="fill:#e3d8d8;fill-opacity:1;stroke:none"
       d="m 192.47182,407.06561 c 0.47105,4.00169 0.52641,7.91275 0.0937,11.6875 l 15.59375,10.25 c 0.37176,-3.57865 0.74893,-6.99604 1.125,-10.28125 l -16.81245,-11.65625 z"
       id="path6335" />
    <path
       style="fill:#e3d8d8;fill-opacity:1;stroke:none"
       d="m 689.81557,414.03436 -19.4375,23.40625 c 1.37729,0.41668 2.75145,0.83053 4.15625,1.25 l 17,-19.78125 c -0.63381,-1.6323 -1.22304,-3.25836 -1.71875,-4.875 z"
       id="path6333" />
    <path
       style="fill:#e3d8d8;fill-opacity:1;stroke:none"
       d="m 862.53432,421.97186 -80.75,45.0625 c 1.43223,1.40875 3.28349,3.51688 5.40625,6.0625 l 63.78125,-33.53125 c 3.99334,-5.81802 8.33922,-11.22496 11.84375,-15.28125 -0.0992,-0.77328 -0.18798,-1.53182 -0.28125,-2.3125 z"
       id="path6331" />
    <path
       style="fill:#33b5ff;fill-opacity:1;stroke:none"
       d="m 230.78432,433.65936 c -1.84767,2.26796 -3.60867,4.44227 -5.40625,6.65625 l 114.53125,75.28125 c 0.33339,-1.66006 0.77877,-3.47458 1.25,-5.34375 l -110.375,-76.59375 z"
       id="path6329" />
    <path
       style="fill:#bd3aff;fill-opacity:1;stroke:none"
       d="m 361.25307,443.59686 c -2.33567,1.28476 -4.66463,2.55205 -6.96875,3.78125 l 69,80.65625 c 1.84368,-2.76316 3.76637,-5.67294 5.65625,-8.625 l -67.6875,-75.8125 z"
       id="path6327" />
    <path
       style="fill:#e252cb;fill-opacity:1;stroke:none"
       d="m 487.81557,451.03436 14.4375,84.375 c 0.74385,-0.0826 1.53637,-0.12174 2.40625,-0.21875 l -11.96875,-82.5 c -1.56415,-0.50966 -3.21032,-1.07491 -4.875,-1.65625 z"
       id="path6325" />
    <path
       style="fill:#e3d8d8;fill-opacity:1;stroke:none"
       d="m 658.75307,451.44061 -15.875,19.15625 c 1.28843,0.25081 2.46976,0.4557 3.65625,0.6875 l 13.9375,-16.21875 c -0.58248,-1.23443 -1.15124,-2.39637 -1.71875,-3.625 z"
       id="path6323" />
    <path
       style="fill:#e3d8d8;fill-opacity:1;stroke:none"
       d="m 564.72182,455.31561 c -1.9671,0.60492 -4.29751,1.32558 -6.65625,2.09375 l -2.90625,10.3125 c 1.63001,1.27473 3.35527,2.60656 5.125,4 l 4.4375,-16.40625 z"
       id="path6321" />
    <path
       style="fill:#e3d8d8;fill-opacity:1;stroke:none"
       d="m 30.346817,465.84686 c -0.3638,0.33295 -0.713275,0.65078 -1.0625,1 -1.938085,1.93808 -9.78125,-3.24934 -9.78125,3.25 0,2.16855 4.591644,-0.9698 6.53125,0 7.664203,3.83211 14.367496,7.68562 22.75,9.78125 11.48591,2.87148 29.27384,8.19241 44.4375,14.84375 l 19.843753,6.28125 c 0.27471,-2.20845 0.5737,-4.57575 0.9375,-7.125 L 30.346817,465.84686 z"
       id="path6319" />
    <path
       style="fill:#33b5ff;fill-opacity:1;stroke:none"
       d="m 779.72182,468.19061 -134.21875,74.875 c 0.58344,1.15833 1.16147,2.34596 1.71875,3.5625 l 134.1875,-70.53125 c -0.93357,-4.33208 -1.31222,-6.20045 -1.6875,-7.90625 z"
       id="path6317" />
    <path
       style="fill:#bd3aff;fill-opacity:1;stroke:none"
       d="m 629.75307,486.37811 -55.1875,66.4375 c 0.73695,-0.0824 1.46413,-0.16366 2.1875,-0.28125 l 55.375,-64.46875 c -0.78989,-0.56357 -1.58485,-1.1163 -2.375,-1.6875 z"
       id="path6315" />
    <path
       style="fill:#e3d8d8;fill-opacity:1;stroke:none"
       d="m 555.90932,487.78436 c -2.18673,0.23015 -4.39467,0.4402 -6.625,0.6875 l -18.84375,66.4375 c 0.33135,0.33139 0.75124,0.75123 1.0625,1.0625 l -19.09375,32.4375 -6.90625,-47.65625 c -0.84021,-0.28399 -1.69482,-0.54568 -2.5,-0.84375 l 8.5625,49.96875 -4.875,8.28125 4.90625,-8 2.03125,11.84375 -4.28125,0.1875 c 0.0191,0.0311 0.0436,0.0629 0.0625,0.0937 l 4.25,-0.0625 1.28125,7.46875 -0.78125,2.75 c 1.36307,2.87173 2.7756,5.56815 3.03125,5.3125 1.47131,-1.47131 2.77042,-7.34327 3.75,-13.96875 -0.63815,7.03674 -0.91508,12.51121 -0.3125,12.8125 0.10207,0.051 0.20856,0.10835 0.3125,0.15625 l 1.1875,-4.375 5.3125,-2.78125 -6.09375,7.3125 c 0.0305,0.0127 0.0631,0.0188 0.0937,0.0312 l 6.53125,-7.625 14.375,-7.5625 34.96875,-0.59375 c 0.0427,-0.63017 0.11496,-1.18681 0.15625,-1.84375 l -33.15625,1.40625 35.3125,-18.5625 c -0.12655,-0.73016 -0.22975,-1.44172 -0.34375,-2.15625 l -37.2812,20.8126 -6.96875,0.28125 37.4375,-43.59375 c -0.41509,-0.2152 -0.83144,-0.41876 -1.25,-0.625 l -36.75,44.25 -9.375,0.40625 9.96875,-36.78125 c -2.14079,-0.48927 -4.44573,-1.0408 -6.9375,-1.59375 l -4.125,14.5 c -0.004,0.027 0.004,0.0667 0,0.0937 -0.43228,3.06104 -0.92405,6.90263 -1.40625,10.90625 -0.3285,4.29055 -0.85499,9.67313 -1.59375,14.75 0.42447,-4.62259 0.99748,-9.79935 1.59375,-14.75 0.21693,-2.83328 0.34375,-5.23434 0.34375,-6.5625 0,-0.23816 0.0249,-0.48392 0.0312,-0.71875 l -5.8125,20.46875 -2.78125,0.125 -1.9062,-13.2187 15.65625,-25.59375 4,-6.5625 c 1.17526,1.17521 2.19658,2.19639 4.03125,4.03125 l 5.1875,-19.09375 29.03125,-47.5 c -0.34194,-0.85834 -0.66907,-1.71682 -0.90625,-2.5625 l -27,45.875 13.4375,-49.5625 z"
       id="path6313" />
    <path
       style="fill:#33b5ff;fill-opacity:1;stroke:none"
       d="m 131.84682,499.87811 c -1.44225,1.9814 -2.89044,3.92267 -4.3125,5.71875 l 134.3125,42.53125 c 0.2572,-1.2859 0.5705,-2.81984 0.875,-4.40625 l -130.875,-43.84375 z"
       id="path6311" />
    <path
       style="fill:#e3d8d8;fill-opacity:1;stroke:none"
       d="m 349.47182,516.00311 c -1.01881,1.26124 -2.04753,2.53844 -3.125,3.84375 l 94.59375,62.1875 c 0.35116,-0.69062 0.51796,-1.07692 0.9375,-1.90625 l -92.40625,-64.125 z"
       id="path6309" />
    <path
       style="fill:#e3d8d8;fill-opacity:1;stroke:none"
       d="m 438.15932,529.75311 c -3.38571,1.68475 -6.60227,3.2569 -9.53125,4.53125 l 43.03125,50.28125 c 1.26332,-4.34437 1.87811,-9.39778 2.8125,-14.15625 l -36.3125,-40.65625 z"
       id="path6307" />
    <path
       style="fill:#e252cb;fill-opacity:1;stroke:none"
       d="m 827.78432,541.90936 -152.09375,42.3125 c -0.11838,0.96792 -0.25438,1.9261 -0.375,2.90625 l 156.59375,-40.78125 c -1.75207,-1.61438 -3.14962,-3.11292 -4.125,-4.4375 z"
       id="path6305" />
    <path
       style="fill:#e252cb;fill-opacity:1;stroke:none"
       d="m 266.62807,545.03436 c -0.43005,1.44002 -0.85615,2.87922 -1.28125,4.21875 l 141.8125,44.90625 c -0.0436,-0.73554 -0.0795,-1.32257 -0.125,-2.0625 l -140.40625,-47.0625 z"
       id="path6303" />
    <path
       style="fill:#e252cb;fill-opacity:1;stroke:none"
       d="m 637.50307,547.50311 -50.625,28.25 c 0.3715,0.64096 0.78723,1.2967 1.1875,1.96875 l 49.28125,-25.875 c 0.0966,-1.50559 0.12086,-2.95719 0.15625,-4.34375 z"
       id="path6301" />
    <path
       style="fill:#e3d8d8;fill-opacity:1;stroke:none"
       d="m 104.53432,559.81561 c -1.84535,2.08636 -3.74074,4.14089 -5.687503,6.1875 l 49.812503,7.4375 c -0.82235,-1.87928 -1.62689,-3.78692 -2.28125,-5.75 -0.10905,-0.32715 -0.20348,-0.64365 -0.3125,-0.96875 l -41.53125,-6.90625 z"
       id="path6299" />
    <path
       style="fill:#e3d8d8;fill-opacity:1;stroke:none"
       d="m 152.09682,567.75311 c 0.33349,2.19127 0.65735,4.33649 0.90625,6.34375 l 30.0625,4.5 c -0.0315,-1.8219 -0.0638,-3.74963 -0.15625,-5.71875 l -30.8125,-5.125 z"
       id="path6297" />
    <path
       style="fill:#bd3aff;fill-opacity:1;stroke:none"
       d="m 195.37807,574.94061 c -0.62101,1.76194 -1.23843,3.50797 -1.875,5.21875 l 131.90625,19.71875 c 0.17077,-1.05408 0.3445,-2.10884 0.5,-3.1875 l -130.53125,-21.75 z"
       id="path6295" />
    <path
       style="fill:#e252cb;fill-opacity:1;stroke:none"
       d="m 481.15932,577.90936 c -2.66897,3.4806 -5.09785,6.71701 -7.15625,9.40625 l 21.03125,24.59375 -0.875,0.3125 c 0.0302,0.0321 0.0637,0.0616 0.0937,0.0937 l 0.84375,-0.3125 5.4375,6.3125 -0.28125,1.375 c 0.98841,0.83108 1.99029,1.66253 3,2.4375 l 0.46875,-0.0937 0.46875,0.5625 -0.0937,0.1875 c 0.12576,0.0929 0.25066,0.15993 0.375,0.25 l 0.0312,-0.0625 0.1875,0.21875 c 1.82287,1.30371 3.47646,2.26247 4.5,2.40625 0.009,10e-4 0.0223,-10e-4 0.0312,0 l 0.6875,-0.0625 0.0312,-0.0312 c 0.0361,-0.0239 0.063,-0.063 0.0937,-0.0937 l -0.5625,0.0625 0.75,-0.375 c 0.0424,-0.12988 0.0625,-0.28528 0.0625,-0.46875 0,-0.81862 -1.52053,-0.55863 -2.1875,-1.0625 l -0.9375,1.125 0.125,-0.6875 -1.28125,-2.46875 1.0625,-0.21875 c -2.50487,-6.05538 -9.39007,-23.33824 -10.34375,-25.96875 l -15.5625,-17.4375 z"
       id="path6293" />
    <path
       style="fill:#33b5ff;fill-opacity:1;stroke:none"
       d="m 916.94057,585.15936 -50.3125,2.09375 c 1.78717,3.12266 3.48138,6.11309 5.09375,9 l 49.15625,-0.84375 c 5.74399,-2.82926 11.09312,-4.89787 15.125,-5.90625 -5.24369,-1.07671 -12.21749,-2.71423 -19.0625,-4.34375 z"
       id="path6291" />
    <path
       style="fill:#e252cb;fill-opacity:1;stroke:none"
       d="m 451.19057,586.59686 c -0.40256,0.4867 -0.7705,0.89696 -1.1875,1.40625 l 39.3125,25.84375 -8.625,2.9375 -63.40625,-21.25 c -0.27745,0.50695 -0.5567,1.01604 -0.8125,1.5625 l 63.21875,20.03125 -10.25,3.46875 -136.28125,-22.6875 c -0.43093,0.96462 -0.85642,1.94443 -1.28125,2.9375 l 135.90625,20.3125 -18.90625,6.4375 -100.5,-0.5625 c -0.0779,2.02319 -0.0367,4.11609 -0.0937,6.15625 l 84.71875,-0.21875 c 0.003,0.009 -0.003,0.022 0,0.0312 l -4.84375,1.65625 -30.25,10.28125 13.53125,-2.90625 22.4375,-8.0625 9.40625,-1.03125 10.28125,-0.0312 10.5625,-2.3125 16.4375,-1.8125 c 0.77837,-0.26726 1.57443,-0.55672 2.3125,-0.8125 l -11.78125,1.125 6.21875,-1.34375 -25.78125,-0.15625 17.46875,-6.25 22.40625,3.34375 1.1875,-0.25 -22.03125,-3.65625 9.71875,-3.46875 18.375,5.8125 0.625,-0.125 -18.03125,-6.03125 8.28125,-3 9.9375,6.53125 c -0.0487,-0.16363 -0.10031,-0.33695 -0.15625,-0.5 l -9.03125,-6.28125 2.5,-0.90625 c -0.0306,-0.032 -0.0632,-0.0617 -0.0937,-0.0937 l -2.59375,0.875 -38.90625,-27 z"
       id="path6289" />
    <path
       style="fill:#e3d8d8;fill-opacity:1;stroke:none"
       d="m 499.28432,623.00311 0.3125,0.0937 0.0312,-0.1875 -0.34375,0.0937 z"
       id="path6287" />
    <path
       style="fill:#e3d8d8;fill-opacity:1;stroke:none"
       d="m 499.62807,622.90941 0.28125,-0.0625 c -0.0196,-0.2893 -0.049,-0.58719 -0.0937,-0.875 l -0.1875,0.9375 z"
       id="path6285" />
    <path
       style="fill:#e3d8d8;fill-opacity:1;stroke:none"
       d="m 499.59687,623.09691 -0.0625,0.3125 0.375,0.125 c 0.003,-0.0127 0.0312,-0.0181 0.0312,-0.0312 0,-0.0933 0.003,-0.18805 0,-0.28125 l -0.34375,-0.125 z"
       id="path6283" />
    <path
       style="fill:#e3d8d8;fill-opacity:1;stroke:none"
       d="m 499.53437,623.40941 -0.875,-0.28125 -6.0625,1.3125 0.1875,0.0312 c 1.75256,-0.19034 5.3621,-0.21257 6.65625,-0.625 l 0.0937,-0.4375 z"
       id="path6281" />
    <path
       style="fill:#e3d8d8;fill-opacity:1;stroke:none"
       d="m 491.40937,624.69066 -14.09375,3.0625 6.125,0.0312 c 3.81641,-1.32636 7.01358,-2.50048 8.21875,-3.0625 l -0.25,-0.0312 z"
       id="path6279" />
    <path
       style="fill:#e3d8d8;fill-opacity:1;stroke:none"
       d="m 453.56562,632.90941 -42.125,9.125 -44.1875,15.84375 104.5,-21.40625 c -2.88988,0.005 -5.97495,-0.34375 -8.625,-0.34375 -1.15004,0 -3.4375,1.15005 -3.4375,0 0,-0.1899 4.07201,-1.58238 8.9375,-3.25 l -15.0625,0.0312 z"
       id="path6277" />
    <path
       style="fill:#e3d8d8;fill-opacity:1;stroke:none"
       d="m 367.25312,657.87816 -8.46875,1.71875 c 0.0796,0.40796 0.16784,0.81801 0.25,1.21875 l 8.21875,-2.9375 z"
       id="path6275" />
    <path
       style="fill:#e252cb;fill-opacity:1;stroke:none"
       d="m 358.78437,659.59691 c -0.0816,-0.41801 -0.16027,-0.83228 -0.25,-1.25 l 39.375,-13.40625 -178.90625,38.75 -2.8125,5.125 142.59375,-29.21875 z"
       id="path6273" />
    <path
       style="fill:#e3d8d8;fill-opacity:1;stroke:none"
       d="m 428.15937,634.65941 c -0.58792,-0.45191 -1.17869,-0.89535 -1.78125,-1.3125 l -84.59375,8 c 0.17791,0.95388 0.35844,1.91545 0.53125,2.875 l 85.84375,-9.5625 z"
       id="path6271" />
    <path
       style="fill:#e3d8d8;fill-opacity:1;stroke:none"
       d="m 664.47182,587.34686 -35.3125,9.8125 -40.875,1.71875 c 0.11802,0.76573 0.23153,1.17549 0.375,2.09375 l 28.5625,-0.46875 -29.90625,8.3125 c -0.0332,0.41612 -0.0681,0.82854 -0.0937,1.25 l 37.15625,-9.6875 76.71875,-1.28125 c 0.091,-1.61877 0.19963,-3.24871 0.3125,-4.9375 l -63.3125,2.625 26.6875,-6.9375 c -0.11652,-0.83615 -0.20588,-1.67868 -0.3125,-2.5 z"
       id="path6269" />
    <path
       style="fill:#bd3aff;fill-opacity:1;stroke:none"
       d="m 846.03432,588.09686 -136.90625,5.75 c 0.69836,1.54248 1.38525,3.26977 2.09375,5.0625 l 134.3125,-2.25 c 0.17629,-2.92001 0.33287,-5.71556 0.5,-8.5625 z"
       id="path6267" />
    <path
       style="fill:#e3d8d8;fill-opacity:1;stroke:none"
       d="m 540.25307,601.78436 -11.15625,6.21875 5.25,-6.125 5.90625,-0.0937 z"
       id="path6265" />
    <path
       style="fill:#e3d8d8;fill-opacity:1;stroke:none"
       d="m 533.84682,601.87806 -5.40625,6.5 -6.15625,3.4375 2.65625,-9.78125 8.90625,-0.15625 z"
       id="path6263" />
    <path
       style="fill:#e3d8d8;fill-opacity:1;stroke:none"
       d="m 517.06557,602.15931 -1.75,6.21875 -0.90625,-6.15625 2.65625,-0.0625 z"
       id="path6261" />
    <path
       style="fill:#e3d8d8;fill-opacity:1;stroke:none"
       d="m 578.94057,611.15931 -26.40625,7.34375 c 0.46079,0.0739 0.90423,0.17143 1.40625,0.25 l 25.28125,-6.5937 c -0.0884,-0.33241 -0.19479,-0.6717 -0.28125,-1 z"
       id="path6259" />
    <path
       style="fill:#bd3aff;fill-opacity:1;stroke:none"
       d="m 540.50307,622.22181 c -0.48177,0.003 -0.9294,0.0271 -1.40625,0.0312 l -9.5625,2.65625 -0.9375,-0.28125 -0.375,0.625 -2.4375,0.6875 -1.75,-3.21875 c -0.0238,0.002 -0.0389,0.0291 -0.0625,0.0312 l 1.65625,3.1875 c 0.0865,0.0386 0.13045,0.0544 0.21875,0.0937 l 2.28125,-0.5625 -0.71875,1.25 c 10.17562,4.48088 28.78744,12.2531 32.34375,14.03125 3.75894,1.87948 -37.38717,-6.33158 -37.96875,-5.75 -0.48829,0.48829 3.46048,17.26471 4.59375,19.53125 0.62009,1.24018 1.65537,14.86871 2.1875,16.96875 0.13015,0.1947 0.18003,0.28125 0.125,0.28125 -0.0371,0 -0.0805,-0.10543 -0.125,-0.28125 -0.67161,-1.00474 -3.57108,-4.45792 -6.3125,-8.71875 l 6.375,22.03125 c 2.47431,-0.99934 5.00979,-1.76097 7.4375,-2.125 l -12.53125,-46.28125 8.8125,2.375 38.71875,74.21875 c 0.55153,-0.17263 1.12417,-0.3464 1.6875,-0.5625 l -39.90625,-73.53125 8.96875,2.4375 42.1875,32.75 c 0.80215,-0.37836 1.58831,-0.78109 2.375,-1.125 l -42.03125,-30.9373 44.96875,12.15625 c -0.62063,-2.211 -0.5014,-4.40555 4.3125,-6.8125 0.11965,-0.0598 1.81293,-1.18379 3.9375,-2.53125 l -67.6875,-19.84375 10.625,-2.78125 z"
       id="path6257" />
    <path
       style="fill:#e3d8d8;fill-opacity:1;stroke:none"
       d="m 53.721817,625.37811 c 5.229971,2.6069 10.625665,5.43592 15.78125,8.59375 l 138.000003,-0.375 c 1.02444,-2.37297 2.20861,-4.84588 3.46875,-7.34375 l -157.250003,-0.875 z"
       id="path6255" />
    <path
       style="fill:#e3d8d8;fill-opacity:1;stroke:none"
       d="m 225.50307,626.34686 c -1.61721,2.48908 -3.17016,4.88205 -4.6875,7.21875 l 33.21875,-0.0937 c 0.44088,-1.31628 0.8689,-2.63795 1.3125,-3.96875 0.2941,-0.88232 0.79594,-1.91451 1.40625,-3 l -31.25,-0.15625 z"
       id="path6253" />
    <path
       style="fill:#e3d8d8;fill-opacity:1;stroke:none"
       d="m 264.00307,626.56561 c -1.26282,2.3143 -2.60515,4.61209 -3.96875,6.875 l 80.53125,-0.21875 c -0.61307,-2.17739 -1.16899,-4.23488 -1.71875,-6.25 l -74.84375,-0.40625 z"
       id="path6251" />
    <path
       style="fill:#e3d8d8;fill-opacity:1;stroke:none"
       d="m 507.59682,632.28436 c -0.20808,0.0498 -0.47985,0.23104 -0.78125,0.46875 l 0.875,0 c 0.106,-0.021 0.2062,-0.0412 0.3125,-0.0625 0,-0.23959 -0.0855,-0.37181 -0.21875,-0.40625 -0.053,-0.0137 -0.11814,-0.0166 -0.1875,0 z"
       id="path6249" />
    <path
       style="fill:#e3d8d8;fill-opacity:1;stroke:none"
       d="m 508.00307,632.69061 c -0.0123,0.0163 -0.0191,0.0455 -0.0312,0.0625 l 0.0312,0 c 6.5e-4,-0.0167 0,-0.0468 0,-0.0625 z"
       id="path6247" />
    <path
       style="fill:#bd3aff;fill-opacity:1;stroke:none"
       d="m 505.37807,633.19061 c -2.69059,0.49523 -5.33882,0.91759 -7.96875,1.21875 l -0.53125,2.8125 -0.65625,1.28125 -58.71875,47.15625 c -0.0258,0.7929 -0.0502,1.55188 -0.0625,2.28125 l 58.46875,-48.8125 -20.1875,40.40625 -46.125,53.96875 c 0.98474,0.35619 1.49856,0.56687 2.25,0.84375 l 44.53125,-53.875 c 0.26252,0.26635 0.51867,0.54789 0.78125,0.8125 l 1.9375,-4.09375 13.09375,-15.875 -2.4375,12.59375 c 1.2359,0.18875 2.65167,0.41527 4,0.625 2.35726,-10.40313 5.71311,-21.80686 6.1875,-22.28125 0.57502,-0.57502 -0.57502,-2.89373 0,-3.46875 0.34988,-0.34989 1.81634,-2.85225 3.40625,-5.78125 l 1.1875,-5.71875 c -0.59985,-0.44989 -0.17501,-1.54172 0.53125,-2.59375 l 0.3125,-1.5 z"
       id="path6245" />
    <path
       style="fill:#e252cb;fill-opacity:1;stroke:none"
       d="m 497.31557,634.40936 c -0.19655,0.0223 -0.39702,0.0414 -0.59375,0.0625 l -102.4375,43.15625 c -0.22341,0.89652 -0.44892,1.76866 -0.75,2.59375 l 103.78125,-45.8125 z"
       id="path6243" />
    <path
       style="fill:#e3d8d8;fill-opacity:1;stroke:none"
       d="m 515.06557,638.34686 c -0.0523,0.0151 -0.13462,0.0409 -0.1875,0.0937 -1.98649,1.98649 -19.10641,56.79984 -23,52.90625 -0.92278,-0.92278 -0.39774,-5.58369 0.71875,-11.34375 l -0.3125,0.96875 c -1.00734,-0.86975 -1.79717,-1.56642 -3.3125,-2.875 l -5.84375,30.0625 -7,20.8125 c 0.92301,0.23049 1.89562,0.48245 2.84375,0.71875 l -3.4375,17.59375 c -1.38622,-1.52833 -2.73841,-3.09657 -3.96875,-4.6875 l -27.0625,80.34375 c 1.6421,0.67153 3.27905,1.37017 4.875,1.9375 l 25.9375,-72.81245 c 1.93064,-0.34353 3.84866,-0.6979 5.8125,-1.0625 l 7.5,-36.40625 0.25,-0.6875 c -0.0304,-0.0341 -0.0636,-0.0597 -0.0937,-0.0937 l 2.25,-10.84375 c 0.56747,-0.0522 1.14955,-0.0985 1.78125,-0.125 l 11.1562,-31.3438 -0.96875,8.03125 c 2.41553,-0.31415 4.96187,-0.54245 7.4375,-0.71875 l 4.6875,-35.40625 -0.71875,-1.1875 1.03125,-2.96875 1.4375,5 c -0.58531,-3.41775 -1.164,-6.09409 -1.8125,-5.90625 z"
       id="path6241" />
    <path
       style="fill:#e3d8d8;fill-opacity:1;stroke:none"
       d="m 496.19057,640.69061 -3.71875,19.25 -11.75,13.75 15.46875,-33 z"
       id="path6239" />
    <path
       style="fill:#e3d8d8;fill-opacity:1;stroke:none"
       d="m 319.75307,643.44061 -21.28125,2 c -0.43688,1.29316 -0.83763,2.53391 -1.28125,3.8125 l 24.71875,-2.78125 c -0.75394,-1.07448 -1.46253,-2.04117 -2.15625,-3.03125 z"
       id="path6237" />
    <path
       style="fill:#e3d8d8;fill-opacity:1;stroke:none"
       d="m 606.09682,647.34686 c -1.81989,3.26921 -4.2389,6.63073 -5.34375,9.90625 l 44.125,11.9375 c 1.55256,-2.33685 3.32726,-4.35113 5.6875,-5.53125 0.69473,-0.34737 2.49231,-1.14983 4.625,-1.9375 l -49.09375,-14.375 z"
       id="path6235" />
    <path
       style="fill:#e3d8d8;fill-opacity:1;stroke:none"
       d="m 277.00307,647.50311 -25.96875,2.4375 c -0.67593,1.61532 -1.39173,3.21052 -2.15625,4.71875 l 30.25,-3.375 c -0.70287,-1.25561 -1.40425,-2.50456 -2.125,-3.78125 z"
       id="path6233" />
    <path
       style="fill:#e3d8d8;fill-opacity:1;stroke:none"
       d="m 219.69057,652.90936 -60.5,5.75 c -0.12662,0.2438 -0.2796,0.49843 -0.40625,0.71875 -1.11146,1.93355 -2.30429,3.83955 -3.53125,5.71875 l 67.03125,-7.46875 c -0.90003,-1.44864 -1.75492,-3.03852 -2.59375,-4.71875 z"
       id="path6231" />
    <path
       style="fill:#33b5ff;fill-opacity:1;stroke:none"
       d="m 348.22182,661.84686 -169.09375,57.53125 c 0.87138,1.64515 1.78459,3.32263 2.65625,5.03125 l 166.28125,-59.65625 c 0.0473,-0.97399 0.10757,-1.9199 0.15625,-2.90625 z"
       id="path6229" />
    <path
       style="fill:#e3d8d8;fill-opacity:1;stroke:none"
       d="m 122.09682,662.15936 -26.625003,2.53125 c 0.38349,2.23578 0.52604,4.55777 0.375,7 l 30.062503,-3.34375 c -1.15756,-2.05629 -2.45874,-4.11536 -3.8125,-6.1875 z"
       id="path6227" />
    <path
       style="fill:#bd3aff;fill-opacity:1;stroke:none"
       d="m 667.87807,665.44061 c -0.44873,2.62803 -1.87187,5.77271 -3.625,8.96875 l 71.34375,19.28125 c 2.56504,-2.25091 5.34844,-4.33169 8.25,-6 l -75.96875,-22.25 z"
       id="path6225" />
    <path
       style="fill:#e252cb;fill-opacity:1;stroke:none"
       d="m 590.03432,675.69061 c -0.47844,0.57553 -1.0033,1.17041 -1.5625,1.84375 l 65.84375,51.09375 c 1.48011,-0.71806 3.05401,-1.45132 4.65625,-2.1875 l -68.9375,-50.75 z"
       id="path6223" />
    <path
       style="fill:#e3d8d8;fill-opacity:1;stroke:none"
       d="m 381.59682,682.97186 -148.03125,62.40625 c 0.23503,1.74274 0.45638,3.43273 0.6875,5.125 l 148.46875,-65.53125 c -0.42542,-0.58447 -0.78738,-1.25657 -1.125,-2 z"
       id="path6221" />
    <path
       style="fill:#e252cb;fill-opacity:1;stroke:none"
       d="m 502.28432,685.47186 -11.09375,91.46875 c 2.09205,-0.57361 4.25027,-1.11801 6.4375,-1.65625 l 11.90625,-89.78125 c -2.41506,0.008 -4.90489,0.0238 -7.25,-0.0312 z"
       id="path6219" />
    <path
       style="fill:#e3d8d8;fill-opacity:1;stroke:none"
       d="m 471.34682,688.25311 -24.90625,49.78125 c 0.80044,1.27883 1.62559,2.47854 2.40625,3.625 l 24.625,-52.5 c -0.67579,-0.30356 -1.4077,-0.59424 -2.125,-0.90625 z"
       id="path6217" />
    <path
       style="fill:#e3d8d8;fill-opacity:1;stroke:none"
       d="m 431.00307,691.28436 c -0.18227,0 -0.40283,0.0395 -0.625,0.0625 l -39.25,31.5 c 0.31503,0.98431 0.6387,1.96664 0.96875,2.9375 l 40.53125,-33.8125 c -0.61149,-0.41186 -1.16379,-0.6875 -1.625,-0.6875 z"
       id="path6215" />
    <path
       style="fill:#e3d8d8;fill-opacity:1;stroke:none"
       d="m 538.50307,691.62811 c -1.74132,0.40216 -4.33393,1.06123 -7.375,1.78125 l 25.15625,86.96875 c 1.88468,-0.76001 3.77136,-1.46513 5.65625,-2.15625 l -23.4375,-86.59375 z"
       id="path6213" />
    <path
       style="fill:#e3d8d8;fill-opacity:1;stroke:none"
       d="m 760.28432,692.50311 c -1.76745,1.9067 -4.16597,3.98394 -6.6875,6.0625 l 101.0625,27.28125 c 1.7752,-1.39011 3.6568,-2.74369 5.59375,-4.0625 l -99.96875,-29.28125 z"
       id="path6211" />
    <path
       style="fill:#e3d8d8;fill-opacity:1;stroke:none"
       d="m 577.40932,721.00311 c -0.47888,0.55999 -0.86319,1.02927 -1.34375,1.59375 l 68.46875,131.28125 c 1.30875,-0.73879 2.63953,-1.48642 3.875,-2.15625 l -71,-130.71875 z"
       id="path6209" />
    <path
       style="fill:#e3d8d8;fill-opacity:1;stroke:none"
       d="m 168.00307,723.12811 -18.84375,6.4375 c 0.36451,1.82156 0.62683,3.97963 0.78125,6.3125 l 17.90625,-6.46875 c 0.16138,-1.58732 0.17066,-3.76223 0.15625,-6.28125 z"
       id="path6207" />
    <path
       style="fill:#e3d8d8;fill-opacity:1;stroke:none"
       d="m 148.12807,729.90936 -35.625,12.125 c 1.31722,1.82699 2.76215,3.76677 4.34375,5.6875 l 32.625,-11.6875 c -0.69114,-1.69838 -1.18356,-3.62599 -1.34375,-5.8125 -0.001,-0.0156 0.002,-0.26014 0,-0.3125 z"
       id="path6205" />
    <path
       style="fill:#e3d8d8;fill-opacity:1;stroke:none"
       d="m 888.65932,730.09686 c -1.06526,1.32652 -2.16346,2.68886 -3.3125,4.0625 l 51.15625,13.8125 c 0.48659,-1.12369 0.99827,-2.2719 1.53125,-3.4375 l -49.375,-14.4375 z"
       id="path6203" />
    <path
       style="fill:#bd3aff;fill-opacity:1;stroke:none"
       d="m 379.15932,732.47186 -90.9375,72.96875 c 0.61716,1.83351 1.26726,3.66215 1.90625,5.46875 l 91.78125,-76.625 c -0.92235,-0.61904 -1.84386,-1.2153 -2.75,-1.8125 z"
       id="path6201" />
    <path
       style="fill:#e3d8d8;fill-opacity:1;stroke:none"
       d="m 669.59682,734.25311 c -1.26247,1.06435 -2.52652,2.14251 -3.8125,3.25 l 37.84375,29.375 c 0.74923,-0.30127 1.47318,-0.56361 2.21875,-0.75 0.69594,-0.17398 3.06655,-0.87 5.0625,-1.4375 l -41.3125,-30.4375 z"
       id="path6199" />
    <path
       style="fill:#33b5ff;fill-opacity:1;stroke:none"
       d="m 419.12807,745.75311 -104.6875,122.5 c 1.756,0.53886 3.57534,1.08732 5.40625,1.625 l 101.0625,-122.28125 c -0.60028,-0.61323 -1.19309,-1.23247 -1.78125,-1.84375 z"
       id="path6197" />
    <path
       style="fill:#e3d8d8;fill-opacity:1;stroke:none"
       d="m 100.78432,746.00311 -37.625003,12.8125 c 0.771075,2.08056 1.527847,4.70011 2.3125,7.34375 l 35.531253,-12.78125 c 0.0893,-2.66381 -0.005,-5.0771 -0.21875,-7.375 z"
       id="path6195" />
    <path
       style="fill:#e252cb;fill-opacity:1;stroke:none"
       d="m 441.47182,748.03436 -67.78125,135.59375 c 3.28683,2.97241 4.69954,4.27156 6,5.4375 l 65.25,-139.125 c -1.14989,-0.59992 -2.30612,-1.2438 -3.46875,-1.90625 z"
       id="path6193" />
    <path
       style="fill:#e252cb;fill-opacity:1;stroke:none"
       d="m 216.90932,752.37811 -111.75,47.09375 c 0.16449,2.62904 0.30857,5.2004 0.46875,7.78125 l 113.5625,-50.125 c -0.81425,-1.63476 -1.58164,-3.23757 -2.28125,-4.75 z"
       id="path6191" />
    <path
       style="fill:#33b5ff;fill-opacity:1;stroke:none"
       d="m 60.096817,759.87811 -41.4375,14.09375 c -5.082391,4.83275 -10.0947495,9.61111 -14.8124995,14.3125 L 60.753067,767.87811 c -0.189482,-2.72315 -0.417179,-5.38011 -0.65625,-8 z"
       id="path6189" />
    <path
       style="fill:#e3d8d8;fill-opacity:1;stroke:none"
       d="m 471.37807,768.53436 -3.21875,16.6875 c 1.91764,-0.74704 4.20369,-1.65529 6.5,-2.59375 l 2.125,-10.5 c -1.71879,-1.15222 -3.53944,-2.33335 -5.40625,-3.59375 z"
       id="path6187" />
    <path
       style="fill:#e3d8d8;fill-opacity:1;stroke:none"
       d="m 720.03432,771.40936 c -1.77746,1.35648 -3.52185,2.69881 -5.3125,4.09375 l 76.4375,59.3125 c 3.04258,-1.61121 6.1592,-2.9892 9.375,-4.09375 l -80.5,-59.3125 z"
       id="path6185" />
    <path
       style="fill:#e3d8d8;fill-opacity:1;stroke:none"
       d="m 490.09682,785.94061 -8.15625,67.3125 c 1.90917,-0.86027 3.80727,-1.73048 5.6875,-2.59375 l 8.53125,-64.28125 c -2.0583,-0.13993 -4.05493,-0.27633 -6.0625,-0.4375 z"
       id="path6183" />
    <path
       style="fill:#e3d8d8;fill-opacity:1;stroke:none"
       d="m 566.75307,796.00311 c -1.90632,0.24744 -3.81274,0.53979 -5.71875,0.84375 l 15.71875,54.375 c 1.49837,-0.90097 2.89224,-1.76602 4.25,-2.59375 l -14.25,-52.625 z"
       id="path6181" />
    <path
       style="fill:#bd3aff;fill-opacity:1;stroke:none"
       d="m 465.62807,798.37811 -13.5,69.40625 c 1.69057,-0.84121 3.56108,-1.58328 5.46875,-2.3125 l 12.90625,-62.59375 c -1.81312,-1.51608 -3.50044,-3.01706 -4.875,-4.5 z"
       id="path6179" />
    <path
       style="fill:#e3d8d8;fill-opacity:1;stroke:none"
       d="m 92.284317,804.90936 -46.15625,19.46875 c 1.86054,2.02388 3.354694,4.39768 4.375,7.1875 l 43.625,-19.25 c -0.79808,-2.74355 -1.3968,-5.15957 -1.84375,-7.40625 z"
       id="path6177" />
    <path
       style="fill:#e3d8d8;fill-opacity:1;stroke:none"
       d="m 273.72182,817.12811 -114.4375,91.84375 c 0.83803,3.0981 1.67935,6.12669 2.5,9.0625 l 115.5,-96.40625 c -1.21112,-1.50734 -2.39191,-3.00747 -3.5625,-4.5 z"
       id="path6175" />
    <path
       style="fill:#e3d8d8;fill-opacity:1;stroke:none"
       d="m 438.87807,839.62811 -34.28125,101.78125 c 1.13204,-0.0732 2.27566,-0.14307 3.40625,-0.25 l 34.96875,-98.28125 c -1.40687,-1.00019 -2.78703,-2.08542 -4.09375,-3.25 z"
       id="path6173" />
    <path
       style="fill:#e3d8d8;fill-opacity:1;stroke:none"
       d="m 828.75307,851.50311 c -2.42761,1.69081 -5.37194,3.68914 -8.53125,5.84375 l 74.90625,58.125 10.1875,-7.59375 -76.5625,-56.375 z"
       id="path6171" />
    <path
       style="fill:#e3d8d8;fill-opacity:1;stroke:none"
       d="m 650.12807,854.97186 c -1.07734,0.74769 -2.36762,1.63119 -3.6875,2.5625 l 59.25,113.59375 c 2.35314,-0.30988 4.74141,-0.54543 7.125,-0.71875 l -62.6875,-115.4375 z"
       id="path6169" />
    <path
       style="fill:#e252cb;fill-opacity:1;stroke:none"
       d="m 485.87807,863.75311 c -1.72003,0.0355 -3.48843,0.096 -5.25,0.1875 l -7.875,65.03125 3.90625,4.34375 9.21875,-69.5625 z"
       id="path6167" />
    <path
       style="fill:#e3d8d8;fill-opacity:1;stroke:none"
       d="m 585.19057,864.09686 c -1.51121,0.26203 -3.02413,0.54601 -4.46875,0.84375 l 21.1875,73.15625 c 1.02163,-0.32935 2.03215,-0.64539 3.0625,-0.96875 l -19.78125,-73.03125 z"
       id="path6165" />
    <path
       style="fill:#e252cb;fill-opacity:1;stroke:none"
       d="m 304.97182,879.34686 -74.21875,86.84375 c 1.15467,0.49066 2.28686,1.01843 3.4375,1.59375 1.18682,0.59341 2.20097,1.29968 3.0625,2.0625 l 72.5,-87.71875 c -1.67887,-0.83717 -3.15971,-1.59606 -4,-2.15625 -0.17852,-0.11901 -0.4437,-0.35106 -0.78125,-0.625 z"
       id="path6163" />
    <path
       style="fill:#e3d8d8;fill-opacity:1;stroke:none"
       d="m 449.84682,879.53436 -5.09375,26.28125 3.59375,4.625 5.71875,-27.78125 c -1.6009,-1.03022 -3.03406,-2.07321 -4.21875,-3.125 z"
       id="path6161" />
    <path
       style="fill:#bd3aff;fill-opacity:1;stroke:none"
       d="m 370.75307,889.44061 -38.78125,77.59375 c 2.42326,2.54513 4.96803,5.1798 7.46875,7.90625 l 39.25,-83.71875 c -1.98523,-0.30776 -4.72796,-0.95351 -7.9375,-1.78125 z"
       id="path6159" />
    <path
       style="fill:#33b5ff;fill-opacity:1;stroke:none"
       d="m 149.06557,917.15936 -44.8125,35.96875 c -0.003,0.01 0.003,0.0216 0,0.0312 -1.95652,5.88908 -4.12328,12.0281 -6.250003,18.09375 l 56.125003,-46.84375 c -1.72017,-2.38157 -3.43038,-4.85221 -5.0625,-7.25 z"
       id="path6157" />
    <path
       style="fill:#e3d8d8;fill-opacity:1;stroke:none"
       d="m 402.34682,948.09686 -19.40625,57.65624 c 1.41763,-2.4342 2.91636,-4.7747 4.53125,-6.93749 l 17.8125,-50 c -0.99343,-0.24602 -1.94206,-0.47629 -2.9375,-0.71875 z"
       id="path6155" />
    <path
       style="fill:#e3d8d8;fill-opacity:1;stroke:none"
       d="m 608.78432,951.25311 c -1.03134,0.12279 -1.9904,0.24456 -2.96875,0.375 l 14.84375,51.31249 c 0.59723,-0.3739 1.20183,-0.7735 1.8125,-1.1562 l -13.6875,-50.53129 z"
       id="path6153" />
    <path
       style="fill:#e3d8d8;fill-opacity:1;stroke:none"
       d="m 627.47182,1020.2219 c -0.55337,0.1606 -1.10678,0.3321 -1.65625,0.5 l 10.375,35.875 c 0.26849,-0.3656 0.54245,-0.7514 0.8125,-1.1563 l -9.53125,-35.2187 z"
       id="path6151" />
    <path
       style="fill:#e3d8d8;fill-opacity:1;stroke:none"
       d="m 513.84682,613.34686 9.46875,5.40625 113.375,6.6875 c 1.17059,-1.80779 2.43875,-3.72127 3.8125,-5.6875 l -126.65625,-6.40625 z"
       id="path6149" />
    <path
       style="fill:#e252cb;fill-opacity:1;stroke:none"
       d="m 643.81557,619.94061 c -0.94254,1.65647 -2.09207,3.61759 -3.28125,5.71875 l 79.75,4.71875 c 1.36204,-2.30322 2.8045,-4.48875 4.28125,-6.375 l -80.75,-4.0625 z"
       id="path6147" />
    <path
       style="fill:#e3d8d8;fill-opacity:1;stroke:none"
       d="m 736.06557,624.59686 c -0.91683,2.31685 -1.72613,4.33741 -2.59375,6.5625 l 112.5,6.625 c 1.36288,-2.43967 2.77539,-4.91604 4.1875,-7.40625 l -114.09375,-5.78125 z"
       id="path6145" />
    <path
       style="fill:#33b5ff;fill-opacity:1;stroke:none"
       d="m 860.97182,630.90936 c -0.84131,2.55539 -1.66867,5.07831 -2.53125,7.625 l 242.87503,14.3125 -1.0938,-9.8125 -239.24998,-12.125 z"
       id="path6107" />
    <g
       id="g6013"
       transform="matrix(1.0398227,-0.47759567,0.47759567,1.0398227,-385.74659,256.60569)">
      <path
         inkscape:connector-curvature="0"
         id="path4512"
         d="m 681.76525,757.75775 c -1.79995,0.017 -3.41767,0.13353 -4.78125,0.40625 -25.3906,0.93304 -52.77123,-1.96167 -75.90625,5.75 -5.39899,1.79966 -11.71128,0.46626 -17.25,2.3125 -21.83757,7.27919 -67.27556,32.20739 -78.1875,54.03125 -5.24866,10.49733 -6.10927,26.57846 -2.3125,37.96875 8.9888,26.96642 25.63448,34.45243 47.15625,50.59375 24.93509,18.70132 54.55431,29.45889 83.96875,36.8125 9.28048,2.32012 19.47889,1.11973 28.75,3.4375 5.23622,1.30905 13.1551,2.29047 20.5625,2.34375 4.66214,1.62174 12.8838,0.9375 17.21875,0.9375 24.63694,0 50.73858,-1.80678 71.5625,-12.21875 4.26802,-2.13401 7.91949,-5.17849 12.1875,-7.3125 5.93101,-2.9655 13.80636,-5.65011 18.71875,-10.5625 3.24032,-3.24032 13.70664,-7.20665 14.625,-8.125 10.9041,-10.9041 19.78538,-13.53951 28.46875,-30.90625 2.01069,-4.02138 14.93233,-32.22392 12.1875,-34.96875 -1.08427,-1.08428 0.27178,-4.60322 -0.8125,-5.6875 -5.64411,-5.64411 -8.13254,-23.19127 -20.3125,-29.28125 -5.74849,-2.87425 -20.13778,-16.07529 -24.40625,-20.34375 -3.47495,-3.47495 -10.8589,-4.16129 -15.4375,-5.6875 -4.25528,-1.41842 -17.07213,-7.29088 -19.53125,-9.75 -1.70197,-1.70197 -17.05806,-5.27903 -21.125,-7.3125 -9.13618,-4.56809 -21.7703,-1.96328 -30.90625,-6.53125 -2.16854,-1.08427 -5.98771,1.08427 -8.15625,0 -2.17637,-1.08818 -8.52427,-2.28185 -16.21875,-3.28125 -0.0217,-0.003 -0.0408,-0.0284 -0.0625,-0.0312 -7.47342,-1.64062 -14.60014,-2.6448 -20,-2.59375 z"
         style="fill:#6c5353;fill-opacity:1;stroke:#ffffff;stroke-width:1px;stroke-linecap:butt;stroke-linejoin:miter;stroke-opacity:0" />
      <path
         inkscape:connector-curvature="0"
         id="path5571"
         d="m 597.26525,764.7265 c -4.42243,0.54014 -9.16094,0.0745 -13.4375,1.5 -3.64979,1.2166 -7.99059,2.95679 -12.6875,5.0625 0.60582,-0.0134 1.5333,0.0937 1.78125,0.0937 6.88972,0 5.3588,3.6713 9.1875,7.5 0.0552,0.0552 3.63861,-5.35736 4.03125,-5.75 1.40868,-1.40869 9.45851,-1.98976 11.5,-4.03125 1.1684,-1.16839 0.10032,-3.11715 -0.375,-4.375 z m 138.90625,1.625 c 1.61043,2.26865 5.28994,5.03125 6.375,5.03125 2.98826,0 9.91542,5.12041 13.21875,3.46875 1.59677,-0.79839 5.16339,-1.47679 9.4375,-1.90625 -3.37746,-1.01437 -6.5715,-1.98887 -8.09375,-2.75 -6.11202,-3.05601 -13.78916,-2.913 -20.9375,-3.84375 z m -165.84375,5.3125 c -2.896,1.31441 -5.95091,2.79143 -9.0625,4.375 3.66493,0.35113 7.21949,-2.58219 9.0625,-4.375 z M 795.234,786.289 c -2.07421,3.68142 -9.5625,0.80019 -9.5625,4.65625 0,1.25524 4.45143,2.13893 5.1875,2.875 2.75522,2.75522 3.70106,10.01356 4.03125,10.34375 1.62824,1.62824 8.22825,-1.05775 10.34375,0 1.17406,0.58703 1.47345,2.40782 2.875,2.875 3.4026,1.1342 14.46665,6.8146 17.25,4.03125 1.08151,-1.08151 2.43506,-2.39331 4.21875,-3.46875 -6.26721,-5.07307 -13.54003,-11.82129 -16.375,-14.65625 -3.47495,-3.47495 -10.8589,-4.16129 -15.4375,-5.6875 -0.65115,-0.21705 -1.54693,-0.5713 -2.53125,-0.96875 z m -255.5625,2.15625 c -15.06381,9.73433 -28.69151,21.13303 -34.03125,31.8125 -5.24866,10.49733 -6.10927,26.57846 -2.3125,37.96875 8.9888,26.96642 25.63448,34.45243 47.15625,50.59375 24.93509,18.70132 54.55431,29.45889 83.96875,36.8125 9.28048,2.32012 19.47889,1.11973 28.75,3.4375 5.23622,1.30905 13.1551,2.29047 20.5625,2.34375 4.66214,1.62174 12.8838,0.9375 17.21875,0.9375 24.63694,0 50.73858,-1.80678 71.5625,-12.21875 4.26802,-2.13401 7.91949,-5.17849 12.1875,-7.3125 5.93101,-2.9655 13.80636,-5.65011 18.71875,-10.5625 3.24032,-3.24032 13.70664,-7.20665 14.625,-8.125 10.77325,-10.77325 19.57213,-13.50021 28.15625,-30.3125 -3.42483,1.85652 -8.53006,3.03065 -11.09375,4.3125 -2.37979,1.1899 -0.70313,8.66406 -5.1875,10.90625 -4.54229,2.27114 -10.07293,-5.86978 -17.25,-2.28125 -1.10824,0.55412 -1.23089,2.33419 -2.3125,2.875 -8.79052,4.39526 13.2069,8.34968 -4.59375,17.25 -2.9002,1.4501 -7.03587,-3.34491 -9.78125,-4.03125 -5.29444,-1.32361 -11.6257,-0.51527 -16.09375,1.71875 -0.7667,0.38335 -2.10831,-0.38334 -2.875,0 -0.45889,0.22945 -2.12223,0.9118 -1.71875,1.71875 0.95318,1.90635 3.32385,3.62779 4.03125,5.75 1.74054,5.22164 -1.5748,13.3791 -6.34375,14.96875 -4.76848,1.58949 -15.61778,2.70193 -18.40625,-2.875 -0.62362,-1.24724 -0.72572,-3.60073 -1.71875,-4.59375 -0.38605,-0.38606 -1.8262,-1.40242 -2.28125,-2.3125 -1.30603,-2.61208 1.71875,-4.95852 1.71875,-6.3125 0,-1.69609 0.0369,-9.81532 -4.59375,-7.5 -8.49187,4.24594 0.31168,19.81331 -2.875,23 -1.57478,1.57478 -2.7139,-9.94236 -5.1875,-7.46875 -2.16349,2.16348 -5.40727,2.42239 -8.625,4.03125 -0.92004,0.46002 -2.51747,-0.46001 -3.4375,0 -3.76594,1.88297 -1.23915,8.0727 -3.46875,9.1875 -3.94523,1.97262 -9.31797,-3.66914 -13.21875,-1.71875 -3.06062,1.53031 0.92765,3.10361 0,4.03125 -2.15149,2.1515 -18.98751,4.775 -23,3.4375 -4.2436,-1.41453 -7.65798,-3.06423 -10.34375,-5.75 -0.73624,-0.73624 -8.625,1.20517 -8.625,0.59375 0,-2.4914 5.40452,-3.38599 0,-5.1875 -9.10714,-3.03571 -7.67687,1.26031 -12.09375,3.46875 -2.78438,1.39219 -9.02837,-2.05113 -11.5,-2.875 -1.14519,-0.38173 -4.35552,-0.35552 -5.15625,-1.15625 -4.98534,-4.98534 1.6349,-4.7927 0,-8.0625 -1.38879,-2.77758 -12.01051,-5.57983 -14.96875,-4.59375 -3.93601,1.312 -0.76783,3.08032 -2.875,5.1875 -0.59844,0.59844 -6.51891,2.07484 -7.46875,1.125 -0.93743,-0.93743 1.38016,-2.65109 0.59375,-3.4375 -0.46877,-0.46877 -5.04082,-2.45918 -6.34375,-1.15625 -5.12556,5.12557 -6.78597,9.54452 -16.6875,4.59375 -0.55621,-0.2781 -9.7203,-6.8157 -9.75,-6.875 -0.58933,-1.17857 -0.0289,-2.90158 -0.59375,-4.03125 -1.37659,-2.75318 -3.35108,-3.94483 -5.15625,-5.75 -0.6644,-0.66439 2.71933,-5.31191 1.125,-6.90625 -2.39587,-2.39586 -8.17115,2.17261 -10.90625,-0.5625 -1.68667,-1.68663 -0.36607,-6.14732 -1.71875,-7.5 -0.94037,-0.94037 -6.31424,3.46701 -8.625,1.15625 -6.1526,-6.1526 0.33834,-9.60456 -1.75,-13.78125 -1.01132,-2.02264 -3.71248,-0.86873 -5.15625,-2.3125 -0.37697,-0.37697 -0.30566,-2.02441 -0.59375,-2.3125 -1.75326,-1.75326 -9.49733,-1.18217 -12.0625,-6.3125 -2.45714,-4.91429 8.36745,-16.94505 6.90625,-18.40625 -2.1358,-2.1358 -5.37341,0.93909 -7.46875,-1.15625 -0.86254,-0.86253 0.26878,-3.73121 -0.59375,-4.59375 -1.37087,-1.37086 -3.29302,-1.57426 -4.59375,-2.875 -0.29741,-0.2974 2.875,-8.85333 2.875,-10.34375 0,-3.02438 -13.65623,3.15629 -16.09375,-1.71875 -0.65293,-1.30586 0.62089,-4.67928 1.15625,-5.75 1.51063,-3.02126 -0.92735,-7.7289 1.71875,-10.375 2.40029,-2.40029 9.52686,0.8169 12.0625,-1.71875 1.02381,-1.0238 0.91917,-2.63792 1.71875,-3.4375 0.43184,-0.43184 5.97038,-7.24837 5.75,-7.46875 -1.7039,-1.7039 -17.25,6.84851 -17.25,0.5625 0,-2.0886 2.75011,-2.15637 3.46875,-2.875 1.4031,-1.40311 0.87465,-4.9059 2.875,-6.90625 2.05339,-2.05339 7.47091,-2.28341 8.625,-3.4375 0.18064,-0.18065 8.19793,-4.45831 7.46875,-5.1875 -1.21943,-1.21944 -4.09329,-0.3279 -5.75,-1.15625 -0.0975,-0.0487 -0.33881,-0.12812 -0.46875,-0.1875 z m 297.5,24.59375 c -0.9237,3.51341 -4.84744,6.59745 -6.0625,7.8125 -0.5874,0.5874 5.98468,8.71814 4.59375,11.5 -2.72293,5.44586 -7.46875,5.0302 -7.46875,12.0625 0,0.35091 -0.22405,2.08845 0,2.3125 5.1543,5.1543 6.86879,-15.83123 22.40625,-8.0625 3.10118,1.55059 0.13792,4.8696 1.15625,6.90625 1.15172,2.30345 3.43795,4.03215 4.59375,6.34375 2.42402,4.84803 -3.97807,11.98739 -6.3125,16.65625 -1.30474,2.60948 -0.6245,5.07912 -0.3125,7.625 4.35629,-9.78183 11.01162,-25.89463 8.96875,-27.9375 -1.08427,-1.08428 0.27178,-4.60322 -0.8125,-5.6875 -5.64411,-5.64411 -8.13254,-23.19127 -20.3125,-29.28125 -0.13342,-0.0667 -0.29501,-0.17241 -0.4375,-0.25 z"
         style="fill:#614747;fill-opacity:1;stroke:#ffffff;stroke-width:1px;stroke-linecap:butt;stroke-linejoin:miter;stroke-opacity:0" />
      <path
         inkscape:connector-curvature="0"
         id="path5554"
         d="m 574.64185,799.57185 c -0.29678,0.50664 -3.29346,-1.30672 -4.02516,-0.57502 -1.24588,1.24588 0.0958,5.07937 -1.15004,6.32525 -0.95837,0.95837 -4.79186,-0.95837 -5.75023,0 -1.61883,1.61883 -3.76592,2.61587 -5.1752,4.02515 -1.1908,1.19081 3.02639,3.87389 1.15005,5.75023 -2.32894,2.32893 -9.73004,0.52968 -10.35041,1.15004 -0.71951,0.71951 -0.57694,2.30009 -3.45013,2.30009 -0.48982,0 -2.60974,0.61929 -2.87511,1.15005 -0.93215,1.86429 1.35157,3.82363 -0.57503,5.75022 -0.29327,0.29328 -2.74464,2.43056 -1.72506,3.45014 2.97374,2.97374 12.61455,-1.18598 12.65049,-1.15005 1.06478,1.06479 1.71175,3.43682 2.87511,4.60018 3.00139,3.00139 13.22552,-6.49641 13.22552,1.15005 0,7.84958 -4.61695,9.21712 -8.05032,12.65049 -0.88847,0.88848 -1.0453,2.19535 -1.72506,2.87511 -1.10092,1.10092 2.58889,1.58196 2.87511,1.72507 1.80559,0.90279 1.72507,3.5092 1.72507,5.75023 0,0.0266 0.20578,7.68107 0.57502,8.05031 0.67086,0.67086 2.20425,0.47919 2.87511,1.15005 1.17734,1.17734 -2.31564,5.71911 -1.15004,8.05031 0.66904,1.33808 1.53508,1.92012 2.30009,3.45013 0.69093,1.38188 0.005,4.03007 1.15004,5.17521 0.84692,0.84692 2.0258,1.75151 2.87511,3.45013 2.49399,4.98797 -0.572,5.75325 4.02516,10.35041 1.45601,1.45601 19.18413,0.73326 20.70081,-2.30009 0.0124,-0.0249 -1.43399,-10.34326 -2.30009,-12.07548 -0.99435,-1.9887 -4.55021,-4.5502 -5.75023,-5.75022 -0.26581,-0.26581 0.1736,-1.37788 0,-1.72507 -2.25101,-4.50203 -0.43808,-8.89922 1.72507,-13.22551 0.94321,-1.88641 -1.99501,-6.29012 -2.87511,-8.05032 -0.96027,-1.92055 2.12741,-5.40486 2.87511,-6.90027 0.67623,-1.35245 -0.37766,-3.07247 0.57502,-4.02516 2.20104,-2.20103 2.67097,-10.14625 2.87512,-10.3504 1.59823,-1.59823 5.87706,-1.27688 7.47529,-2.87511 0.21926,-0.21926 3.02685,-2.14835 4.02516,-1.15005 1.89161,1.89162 -1.25585,17.14488 -0.57503,17.8257 0.9873,0.9873 2.55233,1.65452 3.45014,3.45013 1.23248,2.46497 -1.53933,7.66103 0.57502,9.77539 2.02227,2.02227 3.18237,5.21469 4.60018,8.05031 0.67807,1.35614 3.16322,2.30128 4.02516,4.02516 0.85258,1.70517 0.87048,4.32062 2.30009,5.75022 1.15255,1.15255 3.95577,1.65568 5.1752,2.87511 0.88044,0.88045 1.30286,3.02793 2.30009,4.02516 0.8538,0.8538 3.17136,0.87127 4.02516,1.72507 2.23396,2.23396 5.14945,5.72448 7.47529,8.05031 1.87692,1.87693 4.83679,2.53671 6.32525,4.02516 0.70737,0.70737 3.10821,0.11655 4.02515,0.57502 1.84944,0.92472 12.39651,4.92121 12.6505,5.17521 0.87187,0.87187 8.75675,0.70643 10.3504,2.30009 0.63961,0.6396 2.44759,-0.36126 2.87511,-0.57503 1.5334,-0.76669 4.21684,0.7667 5.75023,0 0.79689,-0.39844 1.40531,-1.40531 1.72507,-1.72506 0.47829,-0.4783 3.25996,1.15004 4.02515,1.15004 2.83221,0 8.71783,0.0462 10.92543,1.15005 3.36999,1.68499 8.76981,-1.07781 12.07547,0.57502 2.80065,1.40032 10.47795,2.8326 13.80054,1.72507 3.0084,-1.00281 1.47394,-4.47462 4.02516,-5.75023 3.88966,-1.94483 11.9596,1.20798 16.67565,-1.15004 4.49057,-2.24529 6.06227,-14.68761 8.05031,-16.67566 1.66411,-1.6641 3.48911,-2.91408 5.17521,-4.60018 1.37003,-1.37003 1.55759,-4.43271 2.87511,-5.75022 2.25531,-2.25531 6.84828,-3.39815 9.20036,-5.75022 2.91847,-2.91848 -1.91609,-9.58437 0.57502,-12.07548 0.89475,-0.89475 2.94082,-6.76886 1.72507,-9.20036 -1.31205,-2.6241 -2.29738,-5.17249 -4.02516,-6.90027 -1.50356,-1.50355 2.94002,-7.9854 0.57502,-10.3504 -0.91339,-0.91339 -3.81132,-5.96406 -6.90027,-2.87511 -1.73037,1.73038 -0.60939,4.66892 -1.72506,6.90027 -1.48868,2.97735 -2.93006,8.10526 -5.17521,10.3504 -1.82276,1.82277 1.33898,7.86138 0.57503,8.62534 -2.45151,2.4515 -4.94452,11.84479 -8.62534,15.52561 -1.28288,1.28288 -3.89232,2.16725 -5.1752,3.45013 -3.64085,3.64085 -6.24053,7.14542 -11.50045,9.77538 -3.83349,1.91674 -10.54208,-1.91674 -14.37556,0 -2.13608,1.06804 -4.7731,3.04803 -6.32525,4.60018 -3.10828,3.10828 -27.72507,-0.92453 -31.62624,-2.87511 -1.33109,-0.66555 -7.34764,1.08622 -8.62533,1.72507 -1.38271,0.69135 -8.96086,-1.64523 -10.92543,-2.30009 -10.47027,-3.49009 -16.96577,-7.4805 -21.85085,-17.25068 -0.95254,-1.90506 -0.75217,-4.37944 -1.72507,-6.32524 -1.1422,-2.28441 -7.70793,-8.16007 -5.1752,-13.22552 0.59593,-1.19186 0.76983,-3.64495 1.72506,-4.60018 0.7945,-0.7945 7.90859,-4.30862 6.90027,-6.32525 -0.72816,-1.45633 -2.65742,0.21769 -3.45013,-0.57502 -2.25396,-2.25396 -9.5385,-3.21325 -12.07547,-5.75022 -1.47013,-1.47013 -10.18665,-1.56132 -12.07547,-3.45014 -2.60923,-2.60922 0,-13.60444 0,-15.52561 0,-1.26724 0.84425,-5.88483 0.57502,-5.75022 -1.98871,0.99435 -4.55021,4.55021 -5.75023,5.75022 -2.18282,2.18282 -8.71752,1.77116 -12.07547,3.45014 -2.86282,1.43141 -11.52564,11.48785 -14.95058,9.77538 -3.23828,-1.61914 -4.60018,-1.96668 -4.60018,-5.75022 0,-8.53378 8.0535,-5.18157 10.92542,-10.92543 1.28824,-2.57648 2.64977,-10.70008 4.02516,-12.07547 5.39094,-5.39094 8.71639,-3.05721 12.6505,-10.92543 2.74461,-5.48922 -2.72618,-5.32413 -5.17521,-2.87511 -3.66944,3.66945 -7.57076,13.80054 -12.07547,13.80054 -1.36961,0 -2.28136,-1.71571 -3.45013,-2.30009 -1.29184,-0.64592 -3.85138,-2.52756 -4.60018,-4.02516 -1.0861,-2.17219 1.55064,-9.37478 1.15004,-9.77538 -3.00904,-3.00905 -17.19333,3.39279 -18.97574,5.1752 -1.32566,1.32567 -0.78493,4.81009 -2.30009,6.32525 -1.61575,1.61575 -1.05699,6.4183 0,7.47529 2.31232,2.31232 7.99506,-3.76527 9.77538,-2.87511 2.35009,1.17504 4.46995,4.24755 6.32525,5.1752 4.46521,2.23261 4.39736,-6.69744 -1.15004,-1.15004"
         style="fill:#7b5e5e;fill-opacity:1;stroke:#ffffff;stroke-width:1px;stroke-linecap:butt;stroke-linejoin:miter;stroke-opacity:0" />
      <path
         inkscape:connector-curvature="0"
         id="path5569"
         d="m 735.07312,769.09566 c -0.91278,6.23124 0,-4.8513 0,3.45014 0,10.84638 5.16826,7.47529 12.65049,7.47529 2.17844,0 4.04205,4.87925 8.05032,2.87511 6.26818,-3.13409 16.66531,-5.76056 20.7008,-1.72507 1.04927,1.04927 -5.8278,2.9527 -6.32524,3.45014 -1.35176,1.35176 -2.16083,6.02875 -1.15005,8.05031 3.0093,6.0186 13.14197,4.51664 14.37556,5.75023 3.52726,3.52726 7.40469,9.12975 11.50045,13.22551 3.03937,3.03938 8.82731,0.77699 12.07548,4.02516 1.26058,1.26058 2.37382,3.52388 3.45013,4.60018 1.69542,1.69542 1.56429,9.03958 2.30009,9.77538 1.02997,1.02997 2.2073,2.2073 3.45013,3.45014 0.51204,0.51203 0.72164,7.62191 3.45014,10.3504 0.88889,0.8889 0.49212,5.0094 1.15004,6.32525 2.25942,4.51884 -7.17722,15.38713 2.30009,20.12579 1.19008,0.59503 11.06295,0.4375 12.07548,-0.57503 1.69985,-1.69985 1.52631,-8.22783 2.87511,-10.92542 1.3818,-2.76361 3.95799,-4.46586 5.1752,-6.90027 0.90334,-1.80668 1.68342,-8.09197 5.1752,-4.60018 1.85593,1.85592 -1.11399,8.51716 -1.72506,10.3504 -0.77319,2.31955 -2.05799,6.65817 -3.45014,8.05032 -0.67419,0.67418 -0.0664,4.73301 -0.57502,5.75022 -2.42186,4.84371 -6.16148,7.31152 -9.77538,10.92543 -0.28809,0.28808 -0.19805,1.92311 -0.57503,2.30009 -1.24588,1.24588 -2.77927,2.20425 -4.02515,3.45013 -0.61538,0.61538 -3.58811,4.02516 -4.60018,4.02516 -0.45282,0 0.027,-9.20036 -1.72507,-9.20036 -1.35112,0 -2.15467,-2.51489 -4.02516,-3.45014 -2.5486,-1.2743 -5.10725,0.068 -6.90027,-1.72506 -0.46551,-0.46551 0,-3.86882 0,-4.60018 0,-3.32837 -3.42179,-15.00728 -2.30009,-17.25068 1.02227,-2.04454 1.73811,-11.47436 0.57503,-13.80054 -2.51611,-5.0322 -8.41976,-17.62011 -11.50045,-20.7008 -3.87758,-3.87758 -12.90309,-0.82761 -16.10063,-4.02516 -0.45896,-0.45896 -2.27184,0.30164 -2.87512,0 -2.36151,-1.18076 -3.10544,-3.10544 -4.60017,-4.60018 -1.09895,-1.09895 -7.27063,-2.09543 -8.05032,-2.87511 -2.55911,-2.55911 -5.23621,-5.81124 -8.05031,-8.62534 -0.20724,-0.20724 -2.99717,-5.29725 -4.02516,-6.32525 -0.76463,-0.76462 -7.31804,-2.71785 -7.47529,-2.87511 -1.89532,-1.89531 -2.84367,-3.43441 -6.32525,-5.1752 -4.61014,-2.30507 -9.10189,0.0985 -12.65049,-3.45014 -0.18819,-0.18818 -1.02142,-12.13978 0,-12.65049 2.85512,-1.42756 4.2724,0.6771 7.47529,-1.72507 z"
         style="fill:#7b5e5e;fill-opacity:1;stroke:#ffffff;stroke-width:1px;stroke-linecap:butt;stroke-linejoin:miter;stroke-opacity:0" />
      <path
         inkscape:connector-curvature="0"
         id="path4789"
         d="m 707.55557,922.81669 c -1.1653,-0.0268 -2.71471,0.42144 -5.4682,1.76256 -9.8881,-0.15387 -22.50991,3.03274 -24.98235,5.14332 -2.26783,1.93592 -1.91331,6.95005 -4.18114,8.88596 -5.14149,4.38901 -5.29587,8.66409 -3.26544,12.37512 -0.001,0.0149 -0.004,0.048 -0.005,0.0623 -0.62303,7.89087 3.69393,13.63268 9.0449,16.85798 6.16794,3.71773 43.5685,1.30367 46.21886,-0.95879 l 9.88462,-8.46699 c 0.94534,-0.80698 0.94833,-5.52588 1.6938,-6.76266 5.94531,-9.86362 -4.38193,-20.17643 -8.4103,-24.89547 -2.0748,-2.43051 -10.30769,-1.9737 -13.67863,-2.23986 -3.97146,-0.31357 -4.82242,-1.71686 -6.8512,-1.76348 z"
         style="fill:#aa00ff;fill-opacity:1;stroke:#ffffff;stroke-width:1px;stroke-linecap:butt;stroke-linejoin:miter;stroke-opacity:0" />
      <path
         inkscape:connector-curvature="0"
         id="path4791"
         d="m 626.41782,926.75048 c -10.94547,-3.37133 -15.33783,1.92453 -19.55077,10.3504 -9.04689,18.09379 30.5049,26.99736 40.25158,17.25068 14.38305,-14.38305 -3.33118,-34.54893 -20.70081,-27.60108 z"
         style="fill:#00a3ff;fill-opacity:1;stroke:#ffffff;stroke-width:1px;stroke-linecap:butt;stroke-linejoin:miter;stroke-opacity:0" />
      <path
         inkscape:connector-curvature="0"
         id="path4793"
         d="m 770.02399,913.18267 c -0.98368,-0.16835 -1.86728,-0.1824 -1.92937,0.28267 -0.0173,0.12919 0.002,0.22804 0.0524,0.31571 1.62088,0.0204 3.18899,0.11702 4.50092,0.29217 0.0814,-0.002 0.16875,0.009 0.25119,0.008 0.0866,-0.10111 -1.49799,-0.66274 -2.87516,-0.89836 z m 2.87516,0.89836 c -0.0167,0.0192 -0.0992,0.0124 -0.2512,-0.008 -1.36158,-0.18178 -4.06927,0.46193 -4.50092,-0.29217 -3.20768,-0.0403 -6.60133,0.30457 -8.41858,1.42299 -9.47473,5.83121 -14.55476,20.6444 -3.90115,23.79027 3.77901,4.10644 20.61577,6.89187 24.49429,4.50485 l 8.8588,-5.42892 c 4.63667,-2.85363 4.3236,-6.73816 1.58558,-10.69615 0.0851,-0.92575 0.10799,-1.98966 0.15219,-2.32076 1.10416,-8.27083 -10.48818,-11.12327 -18.01903,-10.9723 z"
         style="fill:#00a3ff;fill-opacity:1;stroke:#ffffff;stroke-width:0.90332317px;stroke-linecap:butt;stroke-linejoin:miter;stroke-opacity:0" />
      <path
         inkscape:connector-curvature="0"
         id="path5001"
         d="m 609.48627,770.16649 c 3.5348,-0.0936 4.35383,37.55961 9.10884,43.05788 2.00609,2.31966 -1.20705,9.153 0.79904,11.47266 0.78113,0.90322 6.36222,-0.35415 8.16956,-0.22314 6.76389,0.49031 39.73936,0.91527 44.09209,-0.88049 4.90136,-2.02209 30.90768,2.15917 33.43052,-0.0226 3.76762,-3.25832 33.63489,5.12219 37.36831,1.89345 1.97711,-1.70985 -8.54327,-31.1975 -9.75559,-34.13605 -4.6465,-11.26266 -12.18041,-15.84244 -18.68946,-23.36891 -3.26072,-3.77041 -34.84644,-6.60268 -42.69308,-7.17148 -7.53574,-0.54626 -22.93513,-1.94683 -28.56406,0.37542 -1.34475,0.5548 -3.5217,-0.90755 -4.86645,-0.35276 -9.85077,4.06401 -21.52243,-0.42576 -28.39972,9.35607 z"
         style="fill:#634545;fill-opacity:1;stroke:#ffffff;stroke-width:1px;stroke-linecap:butt;stroke-linejoin:miter;stroke-opacity:0" />
      <path
         inkscape:connector-curvature="0"
         id="path4902"
         d="m 662.6715,770.7265 c -19.48436,0.0714 -37.72809,2.55155 -48.9375,8.15625 -3.25741,1.62871 -5.39412,5.36288 -6.90625,6.875 -2.22705,2.22705 -7.20857,4.92732 -9.1875,6.90625 -6.9568,6.9568 -11.47069,19.50387 -16.09375,28.75 -1.78157,3.56314 -3.04603,7.63977 -5.75,10.34375 -0.84017,0.84017 -1.25557,47.05694 0,48.3125 5.02141,5.02141 6.75951,14.50969 11.40625,21.9375 -1.08068,1.00951 1.55896,2.56775 3,3.9375 0.17973,0.19344 0.34396,0.40646 0.53125,0.59375 0.292,0.292 0.35516,0.17002 0.28125,-0.15625 1.2935,-0.62877 8.24078,-3.97797 5.46875,-6.75 -4.29751,-4.29751 -7.0263,-18.55756 -8.03125,-19.5625 -9.00569,-9.00569 -6.50085,-32.99829 -1.15625,-43.6875 2.79055,-5.58109 0.18546,-12.84171 4.59375,-17.25 6.84522,-6.84522 11.64139,-17.39139 17.25,-23 3.20557,-3.20557 7.93347,-5.65223 11.5,-9.21875 2.04185,-2.04186 22.7474,-6.6224 25.3125,-9.1875 2.18708,-2.18708 30.49416,2.28125 33.34375,2.28125 2.57182,0 31.06176,2.31175 31.0625,2.3125 3.64591,3.6459 11.76615,3.56048 18.75,4.46875 0.10191,0.18167 0.21629,0.3413 0.34375,0.46875 1.51772,1.51773 5.2894,0.72623 7.71875,1.6875 0.009,0.003 0.0226,-0.003 0.0312,0 0.72216,0.39918 1.35788,0.88913 1.90625,1.4375 1.43919,1.43919 2.76854,2.82646 4.125,4.21875 -0.42067,-1.14192 -0.83304,-2.14632 -1.21875,-2.78125 2.3193,0.8537 5.09062,1.42031 7.75,2.75 6.03981,3.0199 29.92397,15.29897 31.71875,17.09375 l 17.90625,17.875 c 3.35376,3.35377 1.4887,11.26995 4.0625,13.84375 2.37227,2.37227 -5.21897,38.56272 -5.6875,39.03125 -0.40627,0.40626 -3.72447,6.02552 -2.4375,7.3125 14.11129,14.11129 19.9143,-36.17944 15.4375,-40.65625 -1.49088,-1.49087 1.49087,-7.47787 0,-8.96875 -3.0818,-3.08179 -3.80008,-14.36259 -8.125,-18.6875 -3.476,-3.47601 -7.43279,-5.77655 -10.59375,-8.9375 -0.95549,-0.9555 -4.47931,-1.22931 -5.6875,-2.4375 -4.46594,-4.46594 -10.55853,-8.15228 -14.625,-12.21875 -1.95085,-1.95084 -13.25529,-6.72404 -16.28125,-9.75 -3.2103,-3.2103 -11.09914,-1.48707 -14.625,-3.25 -1.0584,-0.5292 -2.04844,-1.00207 -3.03125,-1.40625 -15.71327,-7.79036 -46.7377,-12.79156 -75.125,-12.6875 z"
         style="fill:#916f6f;stroke:#ffffff;stroke-width:1px;stroke-linecap:butt;stroke-linejoin:miter;stroke-opacity:0" />
      <path
         inkscape:connector-curvature="0"
         id="path5464"
         d="m 559.69127,911.12621 c -4.37503,-6.59003 0.96262,-15.33819 8.05031,-22.42588 0.96146,-0.96145 1.62114,-3.11065 3.45014,-4.02515 3.69792,-1.84897 7.78714,-4.33701 10.3504,-6.90027 0.95888,-0.95888 11.15752,-4.14121 13.22552,-5.1752 6.89381,-3.44691 13.2348,-7.47994 20.12578,-10.92543 4.88083,-2.44041 10.12333,-3.91162 14.95059,-6.32525 5.17418,-2.58709 15.64121,-4.14077 18.97574,-7.47529 2.02614,-2.02614 6.57088,-0.41033 9.20036,-1.72507 1.10618,-0.55309 6.88548,-2.8899 6.90027,-2.87511 2.58736,2.58736 -6.11116,4.02516 -7.47529,4.02516 -2.50385,0 -9.90131,3.57605 -11.50045,5.1752 -0.6285,0.62849 -16.78925,4.71377 -18.40072,6.32525 -4.4611,4.4611 -15.66069,5.31028 -19.55077,9.20036 -0.3984,0.3984 -2.4767,0.17661 -2.87511,0.57502 -6.01854,6.01854 -17.85217,6.92675 -24.15094,13.22551 -1.41046,1.41046 -5.06763,1.04248 -6.32525,2.30009 -1.42754,1.42754 -3.31542,2.7404 -5.1752,4.60018 -1.15691,1.15691 -2.15642,4.45651 -3.45014,5.75023 -3.55399,3.554 -9.0861,9.77352 -6.32524,16.67565 z"
         style="fill:#916f6f;fill-opacity:1;stroke:#ffffff;stroke-width:1px;stroke-linecap:butt;stroke-linejoin:miter;stroke-opacity:0" />
      <path
         inkscape:connector-curvature="0"
         id="path4866"
         d="m 646.78179,922.76618 c -15.11933,-10.3406 12.88145,5.29068 -6.90027,-4.60018 -3.74415,-1.87207 -9.47502,-2.73778 -12.6505,-1.15004 -0.84934,0.42467 -7.89489,-1.30547 -10.3504,1.15004 -4.10301,4.10301 -7.89518,6.74514 -11.50045,10.3504 -4.01722,4.01722 -3.41445,10.31472 -6.90027,13.80054 -1.02936,1.02936 2.22849,5.82183 0,8.05032 -1.25921,1.25921 -33.6267,-11.22506 -25.30099,-19.55077 1.44578,-1.44577 4.40097,-3.25092 5.75023,-4.60018 2.48255,-2.48255 -5.33239,-8.46815 -3.45014,-10.3504 1.34926,-1.34926 7.75458,0.29573 9.20036,-1.15004 5.26855,-5.26856 17.48544,-10.58518 21.85085,-14.95059 0.54214,-0.54214 -0.54213,-1.75795 0,-2.30009 1.15005,-1.15004 4.60018,0 5.75023,-1.15004 3.4025,-3.40251 -3.45014,-21.18676 -3.45014,-29.90117 0,-2.54469 -0.17548,-16.10063 1.15005,-16.10063 1.56388,0 6.5545,31.85549 10.3504,35.65139 4.1129,4.1129 5.48296,11.23318 10.35041,16.10063 7.18688,7.18688 16.10063,8.03588 16.10063,20.70081 z"
         style="fill:#9f6161;fill-opacity:1;stroke:#ffffff;stroke-width:1px;stroke-linecap:butt;stroke-linejoin:miter;stroke-opacity:0" />
      <path
         inkscape:connector-curvature="0"
         id="path5513"
         d="m 712.59947,840.56155 c 18.90842,5.49381 53.33348,17.18726 77.24026,27.55686 5.59656,2.42751 24.08743,6.57439 27.36471,10.48204 3.08733,3.68114 8.11215,6.50872 11.22517,10.22051 1.90619,2.27282 1.97393,5.51731 3.4067,7.22565 0.5005,0.59679 2.62955,2.92475 2.56257,3.68822 -0.0224,0.25524 -1.10846,-1.40651 -1.98975,-3.63796 -1.01457,-2.56891 -5.43568,-3.9502 -7.51696,-6.4318 -4.3707,-5.21137 -9.31792,-6.68093 -13.41595,-11.56718 -0.63358,-0.75544 -2.80181,-0.80974 -3.33642,-1.44718 -1.10121,-1.31301 -15.56884,-5.34413 -17.87802,-6.76358 -6.59181,-4.05198 -37.82309,-12.19536 -40.76065,-15.69791 -0.46767,-0.55763 -19.3524,-4.7251 -21.31493,-7.06512 -0.76859,-0.91641 -8.58195,-1.65302 -10.16003,-2.62306 -2.68116,-1.6481 -7.5529,-1.46268 -7.34619,-1.79897 1.81086,-2.94592 3.69623,-2.37755 -1.04513,-1.24615 -0.87262,0.20822 -0.7209,-1.21772 -1.61795,-1.29642 -1.145,-0.10045 -5.11661,-0.89447 -5.00463,-2.17077 0.053,-0.6038 1.0644,0.67063 1.66821,0.7236 2.63884,0.23152 5.22674,1.06073 7.91899,1.84922 z"
         style="fill:#916f6f;fill-opacity:1;stroke:#ffffff;stroke-width:1px;stroke-linecap:butt;stroke-linejoin:miter;stroke-opacity:0" />
      <path
         inkscape:connector-curvature="0"
         id="path4881"
         d="m 789.26762,849.19226 c -0.18799,-0.0989 -0.36734,-0.11345 -0.59154,-0.0405 -3.06281,0.99815 -2.68684,9.00318 -3.50469,10.99301 -0.27231,0.66258 0.11887,2.63006 0.4544,3.49785 -2.94305,4.58454 -10.71678,22.31236 -12.6434,23.11657 -2.03712,0.85033 -24.14736,22.40333 -23.51466,23.91905 0.4715,1.12957 5.497,-2.29456 5.99521,-2.50251 1.87465,-0.78253 3.79856,-1.12486 5.74095,-1.39072 -0.90911,1.0226 -1.77129,1.97395 -2.56153,2.69749 5.7516,-2.09699 26.35646,-2.80994 40.19161,11.21483 2.79899,2.83735 1.12648,10.35419 2.19218,12.42225 1.92131,3.72833 15.05974,-2.28624 15.57008,-2.45257 9.16046,-2.98526 15.64758,-7.83071 10.48126,-17.85608 -0.57939,-1.12427 -3.56287,-1.45681 -4.14231,-2.58099 -1.06218,-2.0612 3.29057,-5.90878 2.22838,-7.96998 -2.02734,-3.93412 -11.61433,3.37939 -12.88031,0.92275 -1.71117,-3.32058 -11.58958,-6.55417 -16.308,-8.49352 -1.78191,-0.7324 -4.52785,-0.60778 -5.34721,-2.19777 -0.37252,-0.7229 2.86288,-4.18172 0.6603,-4.15467 -3.80347,0.0467 -11.45543,2.55256 -9.53201,-2.12711 0.43369,-1.05515 1.26181,-2.24989 2.24836,-3.333 1.14442,-2.35803 2.50802,-4.869 3.15405,-6.44077 0.37373,-0.90929 2.93547,-13.8974 3.89879,-21.9806 -0.33904,-2.35895 -0.85565,-4.77159 -1.78985,-5.26307 z"
         style="fill:#9f6161;fill-opacity:1;stroke:#ffffff;stroke-width:0.77263033px;stroke-linecap:butt;stroke-linejoin:miter;stroke-opacity:0" />
      <path
         inkscape:connector-curvature="0"
         id="path5547"
         d="m 758.07402,821.42271 c 4.14562,7.89492 9.55665,20.56324 5.1752,29.32614 -0.46614,0.93227 0.11714,2.75797 -0.57502,3.45014 -1.91493,1.91493 -3.39121,10.29147 -4.60018,11.50045 -1.64919,1.64918 -4.61301,5.77587 -5.75023,8.05031 -3.28224,6.56448 -10.62941,11.20443 -15.52561,16.10063 -1.17334,1.17334 -3.61712,1.31704 -4.60017,2.30009 -1.83097,1.83097 -11.15474,7.47529 -13.80054,7.47529 -0.57503,0 0,-1.15004 0,-1.72507 0,-0.38334 -0.27107,-0.87897 0,-1.15004 0.9913,-0.9913 4.61781,-0.0176 5.75022,-1.15005 2.06259,-2.06258 5.24962,-2.94953 7.47529,-5.1752 4.05749,-4.05749 9.78175,-8.6317 14.37556,-13.22552 1.13151,-1.1315 1.08676,-3.38684 2.30009,-4.60017 3.02694,-3.02694 5.57805,-6.15307 8.62534,-9.20036 1.0911,-1.09111 2.61974,-8.94499 3.45014,-9.77539 1.24519,-1.24519 2.50526,-8.99518 1.15004,-10.3504 -0.13237,-0.13238 -0.28038,-9.48074 -1.72507,-10.92543 -1.29067,-1.29067 0.84912,-6.35208 0,-8.05031 -0.49982,-0.99965 -1.15004,-1.91674 -1.72506,-2.87511 z"
         style="fill:#5c4646;fill-opacity:1;stroke:#ffffff;stroke-width:1px;stroke-linecap:butt;stroke-linejoin:miter;stroke-opacity:0" />
      <path
         inkscape:connector-curvature="0"
         id="path5095"
         d="m 728.859,784.164 c 1.4129,2.08475 2.71538,4.42118 3.84375,7.15625 1.21232,2.93855 11.72711,32.4464 9.75,34.15625 -3.73342,3.22874 -33.60738,-5.16457 -37.375,-1.90625 -2.52284,2.18177 -28.53614,-1.99084 -33.4375,0.0312 -4.35273,1.79576 -37.29861,1.36531 -44.0625,0.875 -1.80734,-0.13101 -7.40637,1.12197 -8.1875,0.21875 -2.00609,-2.31966 1.22484,-9.14909 -0.78125,-11.46875 -2.58324,-2.98703 -4.0173,-15.39687 -5.34375,-26.15625 -2.93699,2.47168 -4.30187,0.75935 -5.40625,6.28125 0.2887,3.39746 1.89194,26.70443 2.4375,27.25 1.21981,1.21981 -0.81356,5.68644 0.40625,6.90625 1.08078,1.08078 -0.46679,4.03222 1.21875,4.875 4.29377,2.14688 21.38986,0.8125 27.25,0.8125 3.61002,0 13.73389,0.23421 16.6875,1.21875 2.94967,0.98322 19.13685,-0.41703 22.34375,-1.21875 4.14889,-1.03722 9.95805,0 14.25,0 4.92166,0 14.62417,-1.89611 19.09375,-0.40625 2.2778,0.75927 5.18259,0.8125 7.71875,0.8125 6.12065,0 21.80646,2.51864 26.03125,0.40625 0.59962,-0.29981 2.38791,0.45583 2.84375,0 1.72719,-1.72719 0.88995,-10.40759 -0.40625,-13 -0.80202,-1.60403 1.11308,-3.46134 0.40625,-4.875 -1.67595,-3.35191 -1.93767,-6.71909 -3.65625,-10.15625 -0.83433,-1.66865 0.4193,-4.47389 -0.40625,-6.125 -1.23779,-2.47557 -1.62825,-6.09699 -3.25,-7.71875 -1.14256,-1.14255 0.16706,-4.30169 -0.8125,-5.28125 -0.14035,-0.14035 -6.14153,-1.46005 -11.15625,-2.6875 z"
         style="fill:#916f6f;fill-opacity:1;stroke:#000000;stroke-width:1px;stroke-linecap:butt;stroke-linejoin:miter;stroke-opacity:0" />
      <path
         inkscape:connector-curvature="0"
         id="path5113"
         d="m 681.76525,757.75775 c -1.79995,0.017 -3.41767,0.13353 -4.78125,0.40625 -20.87903,0.76725 -43.08526,-1.05423 -63.1875,2.5625 -2.53685,1.61173 -5.07706,3.29581 -7.15625,5.375 -4.7305,4.7305 0.8125,15.65314 0.8125,21.15625 0,3.61621 2.99327,1.93192 5.78125,-0.375 -1.10639,-8.96444 -2.14693,-16.7612 -3.75,-16.71875 6.87729,-9.78183 18.55548,-5.27974 28.40625,-9.34375 1.34475,-0.55479 3.53025,0.89855 4.875,0.34375 5.62893,-2.32225 21.02676,-0.92126 28.5625,-0.375 7.84664,0.5688 39.42678,3.38584 42.6875,7.15625 5.69542,6.58566 12.16868,10.94415 16.8125,19.46875 3.09133,0.69024 5.51658,1.07717 5.9375,0.65625 0.73915,-0.73914 -3.56404,-6.00154 -4.0625,-6.5 -2.6197,-2.6197 -2.87202,-8.55953 -5.6875,-11.375 -1.27199,-1.27199 -3.2414,-2.74192 -4.75,-4.0625 -13.31067,-4.60101 -30.10898,-8.47323 -40.5,-8.375 z"
         style="fill:#916f6f;fill-opacity:1;stroke:#ffffff;stroke-width:1px;stroke-linecap:butt;stroke-linejoin:miter;stroke-opacity:0" />
      <path
         inkscape:connector-curvature="0"
         id="path5225"
         d="m 652.26988,827.17293 c 0.0237,2.02171 0.0402,-4.10557 1.72507,-7.47529 0.91438,-1.82877 -1.29933,-31.34979 -2.30009,-33.3513 -0.53669,-1.07338 0.53669,-2.95179 0,-4.02516 -1.47855,-2.9571 -2.87511,-12.42552 -2.87511,-15.52561 0,-2.19868 -3.80622,-6.54418 -2.30009,-8.05031 1.86964,-1.86964 4.63752,1.22472 5.1752,2.30009 0.50127,1.00253 1.33074,7.08097 1.72507,7.47529 1.31665,1.31665 0.57502,6.77539 0.57502,9.20036 0,3.24384 0.0534,7.5287 1.72507,9.20036 0.48555,0.48555 2.30009,29.00982 2.30009,32.77628 0,1.55818 0.99158,8.7838 0,9.77538 -1.45975,1.45975 -3.83349,-1.53339 -5.75023,-2.30009 z"
         style="fill:#916f6f;fill-opacity:1;stroke:#ffffff;stroke-width:1px;stroke-linecap:butt;stroke-linejoin:miter;stroke-opacity:0" />
      <path
         inkscape:connector-curvature="0"
         id="path5227"
         d="m 686.19621,759.32029 c -0.0534,0.24801 6.32525,13.30085 6.32525,20.7008 0,4.5669 2.30009,9.20915 2.30009,13.80054 0,3.92389 1.15004,7.32346 1.15004,11.50045 0,1.7995 -0.17877,19.94702 0,20.12579 0.8726,0.8726 5.48699,-0.31178 5.75022,-0.57502 0.6532,-0.6532 -1.15004,-7.98615 -1.15004,-9.20036 0,-7.75574 -3.92759,-48.20432 -6.90027,-51.177 -0.85105,-0.85105 -3.38582,-6.56812 -4.60018,-6.32525 -1.01215,0.20243 -1.91674,0.7667 -2.87511,1.15005 z"
         style="fill:#916f6f;fill-opacity:1;stroke:#ffffff;stroke-width:1px;stroke-linecap:butt;stroke-linejoin:miter;stroke-opacity:0" />
      <path
         inkscape:connector-curvature="0"
         id="path5532"
         d="m 619.4936,854.77401 c 1.21417,5.94638 10.83949,20.61487 19.55077,29.32614 0.79958,0.79959 2.42633,0.70127 3.45013,1.72507 4.83864,4.83864 10.90484,6.60247 17.25068,9.77538 3.26361,1.63181 7.72445,2.87512 12.07547,2.87512 2.13265,0 3.82525,0.96248 4.60018,0.57502 0.38334,-0.19168 1.15004,-1.00362 1.15004,-0.57502 0,1.03219 -0.42017,-2.14524 -1.15004,-2.87512 -0.73247,-0.73246 -1.98669,0.57503 -2.30009,0.57503 -4.93669,0 -8.0986,-2.87512 -13.22552,-2.87512 -0.79266,0 -3.45251,-1.15242 -4.02516,-1.72506 -0.57502,-0.57503 -2.30009,0 -2.87511,-0.57503 -2.32753,-2.32752 -9.15391,-5.12875 -11.50045,-7.47529 -6.86316,-6.86316 -12.77024,-18.52047 -19.55076,-25.30099 -0.40572,-0.40572 -0.11664,-1.35836 -0.57502,-1.72506 -0.87274,-0.69819 -2.28277,-0.77731 -2.87512,-1.72507 -0.60952,-0.97524 0.81321,-2.63693 0,-3.45014 -2.01523,-2.01523 -2.7836,-5.08369 -4.60018,-6.90027 -0.29695,-0.29695 -1.3797,-5.1752 -1.15004,-5.1752 1.56154,0 0.94111,11.91877 5.75022,15.52561 z"
         style="fill:#5c4646;fill-opacity:1;stroke:#ffffff;stroke-width:1px;stroke-linecap:butt;stroke-linejoin:miter;stroke-opacity:0" />
      <path
         inkscape:connector-curvature="0"
         id="path5268"
         d="m 677.57775,790.94525 -2.3125,0.5625 c -2.00693,-0.83133 -2.16367,7.94493 -5.15625,10.9375 -0.90737,0.90737 0.27434,4.88191 -0.59375,5.75 -1.63338,1.63337 -2.90235,54.57418 -1.15625,59.8125 1.92933,5.78799 -0.62108,17.69533 2.3125,23.5625 2.3957,4.7914 -1.59084,25.37232 1.0625,28.625 -0.008,0.009 -0.0227,0.0227 -0.0312,0.0312 -0.3952,0.39515 -0.96507,1.625 -0.40625,1.625 0.63127,0 6.89267,0.0136 7.3125,-0.40625 0.93738,-0.93739 0.14738,-3.80362 1.21875,-4.875 0.1178,-0.11779 0.42883,-0.83967 0.78125,-1.71875 0.0238,-0.009 0.0386,-0.0227 0.0625,-0.0312 1.65426,-2.94256 3.8125,-7.8416 3.8125,-8.875 -0.70614,-5.09287 3.4375,-9.22318 3.4375,-14.375 0,-1.67349 1.52095,-4.3647 2.3125,-5.15625 0.69867,-0.69867 2.875,-12.83237 2.875,-14.375 0,-1.93619 3.486,-9.73274 4,-9.21875 0.96559,0.9656 1.70428,5.12728 2.3125,6.34375 1.30375,2.6075 1.30723,4.74473 3.4375,6.875 0.84155,0.84155 0.23949,4.27074 1.15625,5.1875 0.68756,0.68756 0.94497,3.25747 1.71875,4.03125 6.13419,6.13419 10.19955,18.05534 13.8125,25.28125 0.44215,0.88431 1.63524,3.83013 2.8125,6.78125 1.3525,0.51336 4.44571,1.67964 5.21875,2.21875 -0.01,-0.49311 0.13782,-1.98718 0.0312,-2.09375 -4.12692,-4.12692 -4.91086,-9.79048 -8.0625,-16.09375 -0.56688,-1.13376 -0.008,-2.92301 -0.5625,-4.03125 -2.29495,-4.58989 -1.76217,-10.39935 -4.03125,-14.9375 -1.87002,-3.74004 -3.65446,-8.46516 -5.75,-12.65625 -0.45848,-0.91694 0.11363,-3.32388 -0.59375,-4.03125 -2.36569,-2.3657 -9.76612,-25.26711 -11.5,-30.46875 -1.46668,-4.40003 -1.57239,-8.92602 -3.4375,-12.65625 -3.1363,-6.27259 -5.95337,-10.7505 -8.625,-16.09375 -0.69579,-1.39158 0.4599,-4.1651 -0.5625,-5.1875 -3.15007,-3.15007 -3.65251,-10.34375 -6.90625,-10.34375 z m 50,128.59375 c 0.002,0.0938 0.0157,0.21875 0.0312,0.21875 0.24411,0 0.15703,-0.0874 -0.0312,-0.21875 z"
         style="fill:#916f6f;fill-opacity:1;stroke:#ffffff;stroke-width:1px;stroke-linecap:butt;stroke-linejoin:miter;stroke-opacity:0" />
      <path
         inkscape:connector-curvature="0"
         id="path5369"
         d="m 568.89163,782.32118 c -3.01428,-0.1838 -11.99989,7.97473 -16.67566,12.65049 -1.31646,1.31646 -2.3353,4.06037 -3.45013,5.17521 -3.29872,3.29872 -2.49335,8.24357 -5.75022,11.50044 -2.10842,2.10842 -1.91675,6.51693 -4.02516,8.62534 -1.41893,1.41893 -2.90873,15.55923 -3.45014,16.10063 -1.67578,1.67578 -1.37335,17.37908 0,20.12579 1.61805,3.23609 0.0876,8.22545 1.72507,11.50045 3.65433,7.30865 3.21754,15.29301 8.62534,20.7008 1.54852,1.54852 3.22629,5.92582 5.1752,6.90027 1.87258,0.93629 1.74623,3.4713 2.87511,4.60018 0.30307,0.30307 1.57864,0.57503 1.15005,0.57503 -0.86114,0 -10.29215,-20.58431 -12.07547,-24.15095 -4.25599,-8.51196 -11.30443,-30.2932 -5.75023,-41.40161 1.49609,-2.99219 -0.0419,-6.28338 2.30009,-8.62534 1.15246,-1.15246 1.764,-8.08925 4.60018,-10.92543 0.74679,-0.74679 2.27213,-6.29729 4.60018,-8.62534 1.76256,-1.76256 2.31192,-6.33708 4.60018,-8.62533 5.22476,-5.22477 9.94636,-9.12657 15.52561,-16.10063 z"
         style="fill:#916f6f;fill-opacity:1;stroke:#ffffff;stroke-width:1px;stroke-linecap:butt;stroke-linejoin:miter;stroke-opacity:0" />
      <path
         inkscape:connector-curvature="0"
         id="path5410"
         d="m 799.81655,793.63448 c 5.90025,2.84684 11.15229,6.55258 16.89823,10.20401 1.45594,0.92522 2.65511,2.46251 4.13629,3.16299 1.11849,0.52895 1.62468,2.3775 2.50137,2.7921 1.09041,0.51567 3.1959,2.16016 3.72978,3.17189 0.7542,1.42926 1.95078,3.45906 2.94349,4.40922 5.50754,5.27141 7.59906,7.38739 11.29622,14.39373 0.92223,1.74771 0.87613,18.13813 0.0298,19.92764 -1.5147,3.20291 -3.04921,14.41264 -4.53075,15.96054 -0.65437,0.68369 -0.29632,3.17858 -0.72396,4.08286 -1.24228,2.62686 -1.75858,5.41996 -3.07394,8.20134 -0.95368,2.01661 -2.16316,3.2981 -3.13626,5.3558 -0.22446,0.47462 -0.45991,2.14374 -0.75959,2.45684 -0.40945,0.42779 -4.32301,6.87851 -4.32016,7.00854 0.006,0.28245 3.59444,-2.09222 3.61402,-2.11267 2.86661,-2.99503 3.92032,-10.33307 6.22801,-12.74413 0.68608,-0.71682 8.03745,-22.97232 7.96667,-26.20332 -0.0335,-1.53033 0.58838,-6.02025 1.47463,-6.9462 1.0351,-1.08147 -1.46502,-11.17994 -1.50448,-12.98143 -0.01,-0.45153 0.23141,-2.56439 -0.0623,-2.84554 -1.81081,-1.73318 -1.45323,-6.56469 -3.43903,-8.46535 -5.06679,-4.84955 -11.60002,-11.10268 -17.03182,-16.30159 -1.21669,-1.16453 -6.55003,-3.48333 -7.83045,-4.70885 -2.0784,-1.9893 -11.56065,-7.88075 -14.40577,-7.81842 z"
         style="fill:#916f6f;fill-opacity:1;stroke:#ffffff;stroke-width:1px;stroke-linecap:butt;stroke-linejoin:miter;stroke-opacity:0" />
      <path
         inkscape:connector-curvature="0"
         id="path5466"
         d="m 620.06863,830.62307 c -7.5503,-0.23881 -29.11495,-1.83067 -35.07638,1.15004 -1.77139,0.8857 -4.48717,-0.34401 -6.32524,0.57502 -4.02157,2.01079 -10.92533,-1.4376 -14.95059,0.57503 -3.03771,1.51885 -7.40155,0.25064 -10.3504,1.72506 -4.73093,2.36547 -10.17036,2.78509 -14.95058,5.1752 -3.38526,1.69263 -14.34257,2.84212 -16.67566,5.17521 -1.43034,1.43034 -4.41544,1.54033 -5.75022,2.87511 -2.17971,2.17971 -5.1206,5.69563 -7.47529,8.05031 -1.62011,1.62012 -2.30009,8.99448 -2.30009,6.90027 0,-1.16653 3.77944,-3.77944 4.60018,-4.60018 1.15004,-1.15004 1.15004,-3.45013 2.30009,-4.60018 3.21801,-3.21801 6.87511,-4.57502 9.77538,-7.47529 0.99346,-0.99346 16.37513,-2.57459 17.25067,-3.45013 0.33522,-0.33522 11.21062,-4.74278 13.22552,-5.75023 3.71835,-1.85917 13.66386,-0.43834 16.10063,-2.87511 1.0493,-1.0493 6.55529,0.57502 8.05031,0.57502 6.17291,0 30.06354,-0.16236 33.35131,-3.45013 0.72046,-0.72047 8.00722,-0.27674 9.20036,-0.57502 z"
         style="fill:#916f6f;fill-opacity:1;stroke:#ffffff;stroke-width:1px;stroke-linecap:butt;stroke-linejoin:miter;stroke-opacity:0" />
      <path
         inkscape:connector-curvature="0"
         id="path5468"
         d="m 603.39297,796.12172 c -14.03517,-4.73934 -29.6311,-10.35041 -45.42677,-10.35041 -2.34991,0 -13.22552,0.25043 -13.22552,1.72507 0,0.27107 0.38335,-0.38335 0.57503,-0.57502 0.86253,-0.86254 2.5876,-0.86254 3.45013,-1.72507 0.7667,-0.7667 2.73325,0.43316 2.87511,0.57502 0.40903,0.40903 8.37867,-1.72506 11.50045,-1.72506 1.14348,0 5.36607,0.95796 6.90027,1.72506 1.45551,0.72776 5.79405,-1.10622 6.90027,0 1.25184,1.25184 8.06265,0.58736 9.20036,1.72507 3.00852,3.00852 12.5207,3.89536 17.25067,8.62534 z"
         style="fill:#916f6f;fill-opacity:1;stroke:#ffffff;stroke-width:1px;stroke-linecap:butt;stroke-linejoin:miter;stroke-opacity:0" />
      <path
         inkscape:connector-curvature="0"
         id="path5470"
         d="m 753.47384,829.47302 c 0.76669,-0.19167 2.10841,-1.34172 2.30009,-0.57502 0.19167,0.76669 -3.09039,0.57502 -2.30009,0.57502 4.46014,0 31.10457,1.20341 33.3513,3.45014 2.21273,2.21272 10.88906,-1.45574 13.80054,0 3.33478,1.66739 8.20455,0.0771 11.50045,1.72506 6.50391,3.25196 24.15793,6.90726 28.1761,10.92543 2.01421,2.01421 6.12519,2.10003 8.05031,4.02516 1.27966,1.27966 4.49872,2.67218 5.75023,5.1752 0.34654,0.69308 0.0651,1.79016 0.57502,2.30009 0.57502,0.57502 1.72507,0.91186 1.72507,1.72507 0,3.12023 -4.69394,-4.11892 -6.90027,-6.32525 -1.15723,-1.15723 -25.67618,-13.22552 -28.75113,-13.22552 -7.46553,0 -13.75534,-4.60018 -22.42587,-4.60018 -1.59986,0 -3.2335,0.21664 -4.02516,-0.57502 -1.59041,-1.59041 -10.23572,0.57502 -11.50045,0.57502 -3.71335,0 -26.0054,-3.18276 -29.32614,-5.1752 z"
         style="fill:#916f6f;fill-opacity:1;stroke:#ffffff;stroke-width:1px;stroke-linecap:butt;stroke-linejoin:miter;stroke-opacity:0" />
      <path
         inkscape:connector-curvature="0"
         id="path5511"
         d="m 752.89881,789.79647 c 0.7667,-0.57502 1.72507,-2.49176 2.30009,-1.72507 0.57503,0.7667 -2.97776,2.40274 -2.30009,1.72507 2.61983,-2.61982 6.42692,-2.97678 8.05032,-4.60018 0.92206,-0.92206 20.90635,-6.1197 22.42587,-4.60018 0.47919,0.47919 0.67086,1.24588 1.15005,1.72507 0.27107,0.27107 1.15004,-0.38335 1.15004,0 0,0.3471 -4.37539,-0.57502 -4.60018,-0.57502 -0.48838,0 -8.84967,0.9747 -10.3504,1.72506 -2.82709,1.41355 -11.61807,4.71781 -13.80054,6.90027 -0.38335,0.38335 -0.64668,1.35139 -1.15004,1.15005 -1.03771,-0.41508 -1.91675,-1.15005 -2.87512,-1.72507 z"
         style="fill:#916f6f;fill-opacity:1;stroke:#ffffff;stroke-width:1px;stroke-linecap:butt;stroke-linejoin:miter;stroke-opacity:0" />
      <path
         inkscape:connector-curvature="0"
         id="path5528"
         d="m 640.76943,899.05074 c 1.16066,-0.16432 2.988,-6.55103 5.75023,-12.07547 1.85133,-3.70266 3.91754,-8.51772 6.32525,-10.92543 3.48335,-3.48336 4.82446,-7.69958 8.05031,-10.92543 0.98519,-0.98518 1.71727,-6.90027 2.87511,-6.90027 0.4286,0 -0.38335,0.7667 -0.57502,1.15005 -0.40099,0.80198 -0.17403,2.07313 -0.57502,2.87511 -1.66861,3.33722 -2.70158,6.72674 -4.60018,8.62534 -0.88848,0.88847 -0.47028,2.77037 -1.15005,3.45013 -4.1033,4.10331 -5.60819,9.05833 -9.20036,12.6505 -1.18302,1.18303 -0.71661,4.16674 -2.30009,5.75022 -1.09603,1.09603 -3.89019,4.19528 -4.60018,6.32525 -2.50034,7.50102 0.54189,1.08378 1.15005,2.30009"
         style="fill:#916f6f;fill-opacity:1;stroke:#ffffff;stroke-width:1px;stroke-linecap:butt;stroke-linejoin:miter;stroke-opacity:0" />
      <path
         inkscape:connector-curvature="0"
         id="path5530"
         d="m 716.09738,861.09926 c 0.85534,0.65574 5.58096,3.11162 8.62533,9.20036 2.05354,4.10706 8.10457,7.52954 10.92543,10.3504 2.53337,2.53337 3.74688,6.04697 6.32525,8.62534 1.51524,1.51524 3.49961,4.02515 3.45013,4.02515 -0.0622,0 0.0812,-2.13763 0,-2.30009 -1.00013,-2.00025 -1.65992,-4.53503 -3.45013,-6.32524 -3.24016,-3.24016 -7.42528,-5.12519 -10.35041,-8.05032 -2.90258,-2.90258 -5.57176,-6.7218 -9.20036,-10.3504 -0.72483,-0.72484 -2.67569,-5.75023 -3.45013,-5.75023 -0.97735,0 -1.91674,0.38335 -2.87511,0.57503 z"
         style="fill:#916f6f;fill-opacity:1;stroke:#ffffff;stroke-width:1px;stroke-linecap:butt;stroke-linejoin:miter;stroke-opacity:0" />
      <path
         inkscape:connector-curvature="0"
         id="path5549"
         d="m 682.39025,805.19525 c -0.97128,-0.0279 -2.8616,1.84375 -3.09375,1.84375 -0.36135,0 0.7038,-1.7894 -0.5625,-1.15625 -2.21594,1.10797 -1.59539,5.06414 -2.875,6.34375 -0.23917,0.23917 -2.21592,3.56534 -1.75,4.03125 0.91383,0.91384 3.47618,-0.024 4.625,1.125 0.43499,0.43499 2.40746,6.21754 1.125,7.5 -1.21691,1.21691 -3.37684,0.50184 -4.59375,1.71875 -0.79958,0.79958 -0.69494,2.4137 -1.71875,3.4375 -0.0575,0.0575 -1.27169,0.44705 -0.5625,1.15625 1.29787,1.29786 2.875,1.54012 2.875,4.59375 0,1.85098 -1.618,5.4515 -0.59375,7.5 0.82183,1.64365 1.3439,2.46891 2.3125,3.4375 0.31398,0.31399 2.13706,0.31962 1.71875,1.15625 -2.38965,4.7793 -6.84356,2.34394 -9.1875,0 -0.42656,-0.42656 -1.59854,-0.3512 -2.59375,-0.34375 -0.0469,10.0198 0.19591,18.52523 0.84375,20.46875 1.92933,5.78799 -0.62108,17.69533 2.3125,23.5625 2.02311,4.04623 -0.48132,19.31552 0.28125,25.9375 1.26223,-0.51417 2.43418,-1.05918 2.59375,-1.21875 3.66846,-3.66845 3.21816,-22.74941 4.59375,-24.125 2.1695,-2.1695 1.78772,-9.81897 3.46875,-11.5 3.25081,-3.25081 4.22176,-9.06853 6.3125,-13.25 1.11891,-2.23784 5.90612,-14.29694 8.0625,-13.21875 9.62156,4.81077 15.03702,30.6678 20.125,40.84375 0.82077,1.64153 2.00818,2.3715 3.125,3.25 -0.0334,-0.35263 -0.1074,-0.68355 -0.25,-0.96875 -2.29495,-4.58989 -1.76217,-10.39935 -4.03125,-14.9375 -1.87002,-3.74004 -3.65446,-8.46516 -5.75,-12.65625 -0.45848,-0.91694 0.11363,-3.32388 -0.59375,-4.03125 -1.5004,-1.5004 -5.02301,-11.23324 -7.84375,-19.5 -1.50513,-0.74781 -2.93052,-1.61802 -4.21875,-2.90625 -1.46748,-1.46749 1.12021,-5.17076 1.15625,-6.3125 -0.1614,-0.48855 -0.47894,-1.40557 -0.59375,-1.75 -0.0314,-0.0942 -0.0636,-0.18693 -0.0937,-0.28125 -1.41897,-0.90934 -3.64443,-2.33193 -4.5,-3.1875 -1.90829,-1.90828 2.36897,-16.10637 -4.59375,-12.625 -0.87468,0.43734 -3.44645,0.5402 -4.03125,1.125 -0.0823,0.0823 -1.71875,1.24679 -1.71875,1.15625 0,-1.23278 1.66258,-3.29391 2.3125,-4.59375 0.43021,-0.86043 -1.52647,-11.27647 -1.75,-11.5 -0.0935,-0.0935 -0.205,-0.12102 -0.34375,-0.125 z m -13.1875,11.90625 c -0.23609,-0.002 -0.49354,0.0318 -0.78125,0.0937 -0.0688,1.10448 -0.12479,2.28894 -0.1875,3.53125 0.67501,-1.06937 2.07852,-3.14024 1.875,-3.34375 -0.20096,-0.20096 -0.53094,-0.27762 -0.90625,-0.28125 z m -1.34375,13 c -0.0695,2.19868 -0.13859,4.38211 -0.1875,6.65625 0.37146,-1.03565 0.6875,-2.01967 0.6875,-3.25 0,-1.11343 -0.23058,-2.25146 -0.5,-3.40625 z"
         style="fill:#806262;fill-opacity:1;stroke:#ffffff;stroke-width:1px;stroke-linecap:butt;stroke-linejoin:miter;stroke-opacity:0" />
      <path
         inkscape:connector-curvature="0"
         id="path5745"
         d="m 667.22047,969.7785 c 1.05099,1.74443 -7.84286,18.60818 -7.47529,18.97574 0.51911,0.51911 17.82569,-12.41103 17.82569,-12.65049 0,-0.60613 -1.29647,-0.14643 -1.72507,-0.57502 -1.78326,-1.78327 -3.57241,-3.57242 -5.1752,-5.17521 -0.82442,-0.82442 -2.30687,-0.34637 -3.45013,-0.57502 z"
         style="fill:#e252cb;fill-opacity:1;stroke:#ffffff;stroke-width:1px;stroke-linecap:butt;stroke-linejoin:miter;stroke-opacity:0" />
      <path
         inkscape:connector-curvature="0"
         id="path5773"
         d="m 730.47294,973.22864 c 7.39964,-6.34647 -5.63879,5.08605 2.87511,-1.72507 3.03526,-2.42821 7.97054,-6.98004 8.05031,-6.90027 0.90655,0.90654 4.10362,12.72896 5.17521,13.80054 1.06254,1.06254 4.01875,5.18161 3.45013,5.75022 -0.25921,0.25922 -1.27786,-0.92644 -1.72507,-1.15004 -6.0469,-3.02345 -10.42809,-6.81634 -17.82569,-9.77538 z"
         style="fill:#e252cb;fill-opacity:1;stroke:#ffffff;stroke-width:1px;stroke-linecap:butt;stroke-linejoin:miter;stroke-opacity:0" />
      <path
         inkscape:connector-curvature="0"
         id="path5819"
         d="m 702.55286,891.37067 c -1.18191,7.14181 -4.75262,15.39699 -5.21913,21.27782 -0.0714,0.89988 -1.78729,1.74022 -1.20146,2.427 0.61442,0.72031 12.68922,-0.97922 12.61221,-0.008 -0.0208,0.26164 -0.8085,-3.79691 -1.98955,-6.71582 -2.44304,-6.0378 -3.41493,-10.35421 -4.20207,-16.98057 z"
         style="fill:#e252cb;fill-opacity:1;stroke:#ffffff;stroke-width:1.2367897px;stroke-linecap:butt;stroke-linejoin:miter;stroke-opacity:0" />
      <path
         sodipodi:nodetypes="ccssssc"
         inkscape:connector-curvature="0"
         id="path5845"
         d="m 606.81363,955.30926 c 0.62046,0.73043 1.2409,1.46084 1.86136,2.19126 -0.0424,0.18692 -0.22941,0.3986 -0.12724,0.56076 0.42569,0.67557 8.05562,7.40468 13.43488,8.35506 6.35112,1.12209 12.3915,-0.72625 13.6611,-0.43819 4.26268,0.96717 10.11846,-3.01569 9.86295,-1.88961 -2.62919,11.58773 -42.96967,10.06916 -38.69305,-8.77928 z"
         style="fill:#0076ff;fill-opacity:1;stroke:#ffffff;stroke-width:1px;stroke-linecap:butt;stroke-linejoin:miter;stroke-opacity:0" />
      <path
         inkscape:connector-curvature="0"
         id="path5847"
         d="m 605.67316,973.32928 c 3.17849,4.39932 7.41855,5.22107 13.2558,6.54552 5.64315,1.28041 13.24543,2.31157 18.02003,1.14046 2.5527,-0.62612 5.13957,-1.86191 5.12233,-1.78596 -0.17994,0.79305 -1.54841,0.67175 -2.06402,1.30061 -4.9915,6.08785 -29.77281,3.85153 -34.53678,-3.70877 -0.62157,-0.98641 0.17266,-2.32633 0.20264,-3.49186 z"
         style="fill:#003bff;fill-opacity:1;stroke:#ffffff;stroke-width:1px;stroke-linecap:butt;stroke-linejoin:miter;stroke-opacity:0" />
      <path
         inkscape:connector-curvature="0"
         id="path5849"
         d="m 607.10565,987.80564 c 0.79185,0.9073 2.1524,2.25728 8.02983,3.59084 5.64804,1.28151 16.53494,3.51803 20.39034,1.08863 1.14668,-0.72255 2.72687,-0.7571 3.87355,-1.47966 0.22934,-0.14448 0.74798,-0.69788 0.688,-0.43353 -0.20831,0.91808 -2.4841,1.56531 -2.75202,1.73413 -2.44418,1.54015 -5.85314,3.55389 -9.25035,4.38716 -4.2428,1.04067 -17.72916,-2.20425 -19.93322,-5.70202 -0.20435,-0.32434 -1.06145,0.12414 -1.12153,-0.25448 -0.1532,-0.96526 0.0503,-1.95405 0.0754,-2.93107 z"
         style="fill:#1e00ff;fill-opacity:1;stroke:#ffffff;stroke-width:1px;stroke-linecap:butt;stroke-linejoin:miter;stroke-opacity:0" />
      <path
         inkscape:connector-curvature="0"
         id="path5851"
         d="m 608.48632,999.91166 c 0.77275,0.46854 2.33279,1.70854 7.59629,2.90284 3.26099,0.7399 11.43109,3.37 13.71294,1.9321 0.86492,-0.545 2.93913,-0.4102 3.74632,-0.9189 0.16722,-0.1053 2.6484,-1.2775 2.62478,-1.1733 -0.0937,0.4128 -1.7035,1.0734 -2.06402,1.3006 -1.81133,1.1413 -3.42616,2.6395 -4.94327,3.5955 -2.83329,1.7853 -17.26936,-0.7119 -19.19338,-3.7653 -0.48645,-0.772 -0.99635,-2.4018 -1.47966,-3.87354 z"
         style="fill:#6000ff;fill-opacity:1;stroke:#ffffff;stroke-width:1px;stroke-linecap:butt;stroke-linejoin:miter;stroke-opacity:0" />
      <path
         inkscape:connector-curvature="0"
         id="path5853"
         d="m 610.04605,1013.8272 c -0.17077,0.043 7.89781,3.888 13.5857,2.4929 0.999,-0.2451 2.36559,1.0085 3.36461,0.7634 0.73197,-0.1795 2.49874,-0.1327 3.05832,-0.4853 0.21548,-0.1358 2.3954,-1.5374 2.62478,-1.1734 1.40034,2.2223 -16.14859,6.5385 -22.63341,-1.5976 z"
         style="fill:#7e00ff;fill-opacity:1;stroke:#ffffff;stroke-width:1px;stroke-linecap:butt;stroke-linejoin:miter;stroke-opacity:0" />
      <path
         inkscape:connector-curvature="0"
         id="path5868"
         d="m 762.37275,950.039 c 0.30918,0.78045 17.61532,3.01532 24.71819,-2.94113 0.65682,-0.5508 2.13982,-0.11639 2.79664,-0.66718 2.12198,-1.77949 4.65282,-3.56624 6.47061,-5.09064 0.73434,-0.61581 1.6146,-3.14393 1.837,-2.21173 2.88551,12.09522 -28.04029,21.93463 -35.82244,10.91068 z"
         style="fill:#0076ff;fill-opacity:1;stroke:#ffffff;stroke-width:1px;stroke-linecap:butt;stroke-linejoin:miter;stroke-opacity:0" />
      <path
         inkscape:connector-curvature="0"
         id="path5870"
         d="m 770.18327,962.95466 c 9.47362,2.84678 16.17683,-3.85926 22.93236,-5.4709 3.38271,-0.807 5.77423,-5.53172 6.04473,-4.39787 0.16528,0.69279 -0.83794,2.45689 -1.0108,3.19694 -2.24028,9.59144 -23.38597,16.61737 -27.96629,6.67183 z"
         style="fill:#003bff;fill-opacity:1;stroke:#ffffff;stroke-width:1px;stroke-linecap:butt;stroke-linejoin:miter;stroke-opacity:0" />
      <path
         inkscape:connector-curvature="0"
         id="path5872"
         d="m 777.14201,977.25585 c 3.59221,0.95688 7.32232,-0.56454 10.89407,-1.41664 5.32746,-1.27096 8.12321,-3.45598 11.50455,-6.29156 0.21975,-0.18428 3.90678,-3.44763 3.94086,-3.30479 0.0379,0.15879 -1.40035,3.0542 -1.57012,3.33037 -0.14196,0.23092 -0.0171,1.58049 -0.15902,1.81142 -3.14058,5.10855 -10.37602,6.02232 -17.09781,7.62592 -1.30563,0.31148 -6.45822,1.88251 -6.84535,1.04191 -0.40089,-0.87049 -0.44479,-1.86442 -0.66718,-2.79663 z"
         style="fill:#1e00ff;fill-opacity:1;stroke:#ffffff;stroke-width:1px;stroke-linecap:butt;stroke-linejoin:miter;stroke-opacity:0" />
      <path
         inkscape:connector-curvature="0"
         id="path5874"
         d="m 782.47393,987.21586 c 2.90935,0.17811 5.71293,-0.77176 8.52333,-1.44223 1.32624,-0.31639 8.62773,-2.38844 9.24166,-3.38707 1.06473,-1.73191 3.86136,-2.39909 4.92607,-4.131 0.22448,-0.36511 -0.12443,-1.15262 0.29247,-1.25208 0.42559,-0.10153 -0.85917,6.70771 -4.68479,7.62038 -0.78877,0.18817 -15.03183,5.70645 -15.95358,4.98832 -0.88165,-0.68689 -1.56344,-1.59755 -2.34516,-2.39632 z"
         style="fill:#6000ff;fill-opacity:1;stroke:#ffffff;stroke-width:1px;stroke-linecap:butt;stroke-linejoin:miter;stroke-opacity:0" />
      <path
         inkscape:connector-curvature="0"
         id="path5876"
         d="m 788.87742,995.00921 c 2.69517,1.0487 4.07575,-0.6289 6.25127,-0.96459 1.44625,-0.22316 6.99089,-1.28611 7.78077,-2.36424 0.13618,-0.18585 2.42692,-2.25434 2.57842,-2.14334 0.5099,0.37357 -0.81371,1.2074 -0.96121,1.31198 -0.96553,0.68456 0.092,1.1957 -0.87353,1.88026 -3.22678,2.28781 -6.02979,3.83956 -10.9275,4.59528 -0.27625,0.0427 -2.75748,0.58064 -2.84148,0.43846 -0.49712,-0.84149 -0.67116,-1.83587 -1.00674,-2.75381 z"
         style="fill:#7e00ff;fill-opacity:1;stroke:#ffffff;stroke-width:1px;stroke-linecap:butt;stroke-linejoin:miter;stroke-opacity:0" />
      <path
         inkscape:connector-curvature="0"
         id="path5891"
         d="m 706.67477,936.07392 c -2.20375,-1.28769 -13.66298,0.6517 -20.33012,7.31884 -13.58649,13.5865 21.5625,23.16376 27.64896,17.0773 0.67767,-0.67767 3.38835,0.67767 4.06602,0 2.67689,-2.67689 5.7279,-5.7279 8.13205,-8.13205 3.32396,-3.32396 -10.11526,-18.14442 -19.51691,-16.26409 z"
         style="fill:#bd3aff;fill-opacity:1;stroke:#ffffff;stroke-width:1px;stroke-linecap:butt;stroke-linejoin:miter;stroke-opacity:0" />
      <path
         inkscape:connector-curvature="0"
         id="path5893"
         d="m 629.42033,933.63431 c 0.39479,0.81205 -4.13523,-0.744 -4.87923,0 -1.76194,1.76194 -3.93048,3.11729 -5.69243,4.87923 -5.45995,5.45995 11.10013,13.96684 16.26409,11.38486 9.46138,-4.73069 4.28348,-16.26409 -5.69243,-16.26409 z"
         style="fill:#33b5ff;fill-opacity:1;stroke:#ffffff;stroke-width:1px;stroke-linecap:butt;stroke-linejoin:miter;stroke-opacity:0" />
      <path
         inkscape:connector-curvature="0"
         id="path5895"
         d="m 771.73113,923.06266 c -11.12953,-0.53172 9.07174,-0.81321 -4.06603,-0.81321 -2.43533,0 -7.31833,5.69344 -5.69243,8.94525 1.45872,2.91745 5.98354,3.39837 8.94525,4.87923 8.18768,4.09384 16.26392,-13.01127 0.81321,-13.01127 z"
         style="fill:#33b5ff;fill-opacity:1;stroke:#ffffff;stroke-width:1px;stroke-linecap:butt;stroke-linejoin:miter;stroke-opacity:0" />
    </g>
  </g>
</svg>
