<?xml version="1.0" encoding="UTF-8" standalone="no"?>
<!-- Created with Inkscape (http://www.inkscape.org/) -->

<svg
   xmlns:dc="http://purl.org/dc/elements/1.1/"
   xmlns:cc="http://creativecommons.org/ns#"
   xmlns:rdf="http://www.w3.org/1999/02/22-rdf-syntax-ns#"
   xmlns:svg="http://www.w3.org/2000/svg"
   xmlns="http://www.w3.org/2000/svg"
   xmlns:sodipodi="http://sodipodi.sourceforge.net/DTD/sodipodi-0.dtd"
   xmlns:inkscape="http://www.inkscape.org/namespaces/inkscape"
   width="744.09448819"
   height="1052.3622047"
   id="svg2"
   version="1.1"
   inkscape:version="0.48.3.1 r9886"
   sodipodi:docname="icebreaker.svg"
   inkscape:export-filename="/home/substack/media/vector/icebreaker.png"
   inkscape:export-xdpi="84.202003"
   inkscape:export-ydpi="84.202003">
  <defs
     id="defs4">
    <inkscape:perspective
       id="perspective5247"
       inkscape:persp3d-origin="372.04724 : 350.78739 : 1"
       inkscape:vp_z="744.09448 : 526.18109 : 1"
       inkscape:vp_y="0 : 1000 : 0"
       inkscape:vp_x="0 : 526.18109 : 1"
       sodipodi:type="inkscape:persp3d" />
    <marker
       style="overflow:visible;"
       id="Arrow1Lend"
       refX="0.0"
       refY="0.0"
       orient="auto"
       inkscape:stockid="Arrow1Lend">
      <path
         transform="scale(0.8) rotate(180) translate(12.5,0)"
         style="fill-rule:evenodd;stroke:#000000;stroke-width:1.0pt;marker-start:none;"
         d="M 0.0,0.0 L 5.0,-5.0 L -12.5,0.0 L 5.0,5.0 L 0.0,0.0 z "
         id="path6468" />
    </marker>
    <marker
       style="overflow:visible;"
       id="Arrow1Send"
       refX="0.0"
       refY="0.0"
       orient="auto"
       inkscape:stockid="Arrow1Send">
      <path
         transform="scale(0.2) rotate(180) translate(6,0)"
         style="fill-rule:evenodd;stroke:#000000;stroke-width:1.0pt;marker-start:none;"
         d="M 0.0,0.0 L 5.0,-5.0 L -12.5,0.0 L 5.0,5.0 L 0.0,0.0 z "
         id="path6480" />
    </marker>
    <marker
       style="overflow:visible;"
       id="Arrow2Mend"
       refX="0.0"
       refY="0.0"
       orient="auto"
       inkscape:stockid="Arrow2Mend">
      <path
         transform="scale(0.6) rotate(180) translate(0,0)"
         d="M 8.7185878,4.0337352 L -2.2072895,0.016013256 L 8.7185884,-4.0017078 C 6.9730900,-1.6296469 6.9831476,1.6157441 8.7185878,4.0337352 z "
         style="font-size:12.0;fill-rule:evenodd;stroke-width:0.62500000;stroke-linejoin:round;"
         id="path6492" />
    </marker>
    <marker
       style="overflow:visible;"
       id="Arrow1Mend"
       refX="0.0"
       refY="0.0"
       orient="auto"
       inkscape:stockid="Arrow1Mend">
      <path
         transform="scale(0.4) rotate(180) translate(10,0)"
         style="fill-rule:evenodd;stroke:#000000;stroke-width:1.0pt;marker-start:none;"
         d="M 0.0,0.0 L 5.0,-5.0 L -12.5,0.0 L 5.0,5.0 L 0.0,0.0 z "
         id="path6474" />
    </marker>
    <inkscape:perspective
       id="perspective4386"
       inkscape:persp3d-origin="372.04724 : 350.78739 : 1"
       inkscape:vp_z="744.09448 : 526.18109 : 1"
       inkscape:vp_y="0 : 1000 : 0"
       inkscape:vp_x="0 : 526.18109 : 1"
       sodipodi:type="inkscape:persp3d" />
    <inkscape:perspective
       id="perspective3845"
       inkscape:persp3d-origin="372.04724 : 350.78739 : 1"
       inkscape:vp_z="744.09448 : 526.18109 : 1"
       inkscape:vp_y="0 : 1000 : 0"
       inkscape:vp_x="0 : 526.18109 : 1"
       sodipodi:type="inkscape:persp3d" />
    <inkscape:perspective
       sodipodi:type="inkscape:persp3d"
       inkscape:vp_x="0 : 526.18109 : 1"
       inkscape:vp_y="0 : 1000 : 0"
       inkscape:vp_z="744.09448 : 526.18109 : 1"
       inkscape:persp3d-origin="372.04724 : 350.78739 : 1"
       id="perspective6567" />
    <inkscape:perspective
       id="perspective6323"
       inkscape:persp3d-origin="372.04724 : 350.78739 : 1"
       inkscape:vp_z="744.09448 : 526.18109 : 1"
       inkscape:vp_y="0 : 1000 : 0"
       inkscape:vp_x="0 : 526.18109 : 1"
       sodipodi:type="inkscape:persp3d" />
    <inkscape:perspective
       sodipodi:type="inkscape:persp3d"
       inkscape:vp_x="0 : 526.18109 : 1"
       inkscape:vp_y="0 : 1000 : 0"
       inkscape:vp_z="744.09448 : 526.18109 : 1"
       inkscape:persp3d-origin="372.04724 : 350.78739 : 1"
       id="perspective6567-9" />
    <inkscape:perspective
       id="perspective6323-7"
       inkscape:persp3d-origin="372.04724 : 350.78739 : 1"
       inkscape:vp_z="744.09448 : 526.18109 : 1"
       inkscape:vp_y="0 : 1000 : 0"
       inkscape:vp_x="0 : 526.18109 : 1"
       sodipodi:type="inkscape:persp3d" />
    <inkscape:perspective
       sodipodi:type="inkscape:persp3d"
       inkscape:vp_x="0 : 526.18109 : 1"
       inkscape:vp_y="0 : 1000 : 0"
       inkscape:vp_z="744.09448 : 526.18109 : 1"
       inkscape:persp3d-origin="372.04724 : 350.78739 : 1"
       id="perspective6567-1" />
    <inkscape:perspective
       id="perspective6323-5"
       inkscape:persp3d-origin="372.04724 : 350.78739 : 1"
       inkscape:vp_z="744.09448 : 526.18109 : 1"
       inkscape:vp_y="0 : 1000 : 0"
       inkscape:vp_x="0 : 526.18109 : 1"
       sodipodi:type="inkscape:persp3d" />
    <inkscape:perspective
       id="perspective4386-2"
       inkscape:persp3d-origin="372.04724 : 350.78739 : 1"
       inkscape:vp_z="744.09448 : 526.18109 : 1"
       inkscape:vp_y="0 : 1000 : 0"
       inkscape:vp_x="0 : 526.18109 : 1"
       sodipodi:type="inkscape:persp3d" />
  </defs>
  <sodipodi:namedview
     id="base"
     pagecolor="#ffffff"
     bordercolor="#666666"
     borderopacity="1.0"
     inkscape:pageopacity="0.0"
     inkscape:pageshadow="2"
     inkscape:zoom="1.1890995"
     inkscape:cx="294.67443"
     inkscape:cy="788.30598"
     inkscape:document-units="px"
     inkscape:current-layer="layer1"
     showgrid="false"
     inkscape:window-width="1364"
     inkscape:window-height="766"
     inkscape:window-x="0"
     inkscape:window-y="0"
     inkscape:window-maximized="0" />
  <metadata
     id="metadata7">
    <rdf:RDF>
      <cc:Work
         rdf:about="">
        <dc:format>image/svg+xml</dc:format>
        <dc:type
           rdf:resource="http://purl.org/dc/dcmitype/StillImage" />
        <dc:title></dc:title>
      </cc:Work>
    </rdf:RDF>
  </metadata>
  <g
     inkscape:label="Layer 1"
     inkscape:groupmode="layer"
     id="layer1">
    <text
       xml:space="preserve"
       style="font-size:32px;font-style:normal;font-variant:normal;font-weight:bold;font-stretch:normal;fill:#000000;fill-opacity:1;stroke:none;font-family:FreeSans;-inkscape-font-specification:Sans Bold"
       x="606.06012"
       y="107.84796"
       id="text6212"><tspan
         sodipodi:role="line"
         id="tspan6214"
         x="606.06012"
         y="107.84796" /></text>
    <g
       id="g4166"
       transform="matrix(0.63864756,0,0,0.63864756,471.04755,176.05998)" />
    <text
       xml:space="preserve"
       style="font-size:20.4367218px;font-style:normal;font-variant:normal;font-weight:bold;font-stretch:normal;fill:#000000;fill-opacity:1;stroke:none;font-family:FreeSans;-inkscape-font-specification:Sans Bold"
       x="426.099"
       y="190.83302"
       id="text6212-4"><tspan
         sodipodi:role="line"
         id="tspan6214-4"
         x="426.099"
         y="190.83302" /></text>
    <path
       inkscape:connector-curvature="0"
       style="color:#000000;fill:#9da8b3;fill-opacity:1;fill-rule:nonzero;stroke:#ffffff;stroke-width:0.83561635;stroke-linecap:round;stroke-linejoin:round;stroke-miterlimit:4;stroke-opacity:0;stroke-dasharray:none;stroke-dashoffset:0;marker:none;visibility:visible;display:inline;overflow:visible;enable-background:accumulate"
       d="m 638.65204,113.48635 -437.6875,18.25 c -11.25467,1.3238 -22.20947,2.03125 -27.8125,2.03125 -4.95105,0 -21.35866,-0.14134 -23.5,2 -1.11895,1.11896 -6.41759,0.2088 -8,1 -4.35316,2.17658 -12.28004,3.78004 -15.5,7 -4.18092,4.18093 -7.39573,8.89573 -11,12.5 -2.04443,2.04443 -1.36591,11.23181 -3,14.5 -0.01,0.0198 -0.0216,0.042 -0.0312,0.0625 l 0.75,17.84375 c 0.68529,5.67275 1.24741,10.88007 0.53125,12.625 l 6.59375,158.0625 424.5,-17.71875 c 14.5543,-1.93758 31.46133,-2.72325 38.90625,-2.53125 4.94941,0.12764 21.33542,0.71042 23.53125,-1.375 1.14744,-1.08973 6.42896,-0.0623 8.03125,-0.8125 4.40783,-2.06362 12.38559,-3.45787 15.6875,-6.59375 4.28731,-4.07174 7.61651,-8.67735 11.3125,-12.1875 2.09646,-1.99103 1.65719,-11.21252 3.375,-14.4375 2.41797,-4.53944 -2.66609,-28.67572 -0.21875,-31 0.0467,-0.0443 0.12573,-0.0763 0.1875,-0.0937 l -6.6563,-159.12505 z"
       id="rect5349" />
    <path
       inkscape:connector-curvature="0"
       style="fill:#939ea9;fill-opacity:1;stroke:#ffffff;stroke-width:1px;stroke-linecap:butt;stroke-linejoin:miter;stroke-opacity:0"
       d="m 638.64443,113.47428 -437.6875,18.25 c -11.25467,1.3238 -22.20947,2.03125 -27.8125,2.03125 -4.95105,0 -21.35866,-0.14134 -23.5,2 -1.11895,1.11896 -6.41759,0.2088 -8,1 -4.35316,2.17658 -12.28004,3.78004 -15.5,7 -4.18092,4.18093 -7.39573,8.89573 -11,12.5 -2.04443,2.04443 -1.36591,11.23181 -3,14.5 -0.01,0.0198 -0.0216,0.042 -0.0312,0.0625 l 0.28125,6.5625 c 1.49426,0.0538 2.90062,-0.55686 3.65625,-1.3125 6.26271,-6.26271 82.19063,-11.78125 95.875,-11.78125 39.67849,0 76.64591,-8.40625 117.75,-8.40625 21.96114,0 58.03486,9.65445 77.34375,0 7.52803,-3.76401 19.17401,0.538 26.9375,-3.34375 7.92703,-3.96351 17.16108,0.65384 25.21875,-3.375 14.05913,-7.02956 36.11783,9.67545 45.40625,5.03125 17.84758,-8.92379 64.52664,-1.96644 70.65625,-5.03125 10.14309,-5.07154 21.31721,-5.0625 33.625,-5.0625 5.53275,0 25.60488,4.67637 30.28125,0 0.23555,-0.23555 0.48246,-0.46385 0.75,-0.6875 l -1.25,-29.9375 z"
       id="path6964" />
    <path
       inkscape:connector-curvature="0"
       style="fill:#b3b7ba;fill-opacity:1;stroke:#ffffff;stroke-width:1px;stroke-linecap:butt;stroke-linejoin:miter;stroke-opacity:0"
       d="m 610.95693,176.81803 c -1.414,0.006 -2.68755,0.0282 -3.78125,0.0937 -13.46649,0.80688 -28.3432,1.56397 -38.6875,2.53125 -3.71252,0.34716 -36.3327,0.65835 -42.03125,1.65625 -7.76556,1.35986 -28.843,1.20647 -41.21875,1.6875 -9.54684,0.37107 -20.4585,-1.3055 -29.4375,1.6875 -8.55746,2.85249 -19.2784,-1.13636 -27.75,1.6875 -10.10283,3.36761 -22.25513,-0.94403 -32.78125,1.6875 -10.86262,2.71565 -25.90143,-1.39095 -37,0 -13.49083,1.69077 -26.78341,2.53125 -37.84375,2.53125 -3.69313,0 -27.52622,1.52874 -27.78125,1.65625 -4.63264,2.31632 -21.51956,1.39267 -26.90625,0.84375 -13.32395,-1.35775 -20.94048,0.37545 -30.28125,0 -3.23914,-0.1302 -19.41744,0.82735 -22.6875,0.84375 -13.6611,0.0685 -26.48257,2.27818 -34.46875,2.53125 -15.79846,0.50064 -37.17988,-2.17962 -48.78125,1.6875 -4.20782,1.4026 -10.3703,0.30927 -15.78125,0.15625 0.0259,1.43725 -0.0794,2.54329 -0.34375,3.1875 l 6.59375,158.0625 424.5,-17.71875 c 14.5543,-1.93758 31.46133,-2.72325 38.90625,-2.53125 4.94941,0.12764 21.33542,0.71042 23.53125,-1.375 1.14744,-1.08973 6.42896,-0.0623 8.03125,-0.8125 4.40783,-2.06362 12.38559,-3.45787 15.6875,-6.59375 4.28731,-4.07174 7.61651,-8.67735 11.3125,-12.1875 2.09646,-1.99103 1.65719,-11.21252 3.375,-14.4375 2.41797,-4.53944 -2.66609,-28.67572 -0.21875,-31 0.0467,-0.0443 0.12573,-0.0763 0.1875,-0.0937 l -4,-95.375 c -8.40995,0.41287 -21.84877,-0.43974 -30.34375,-0.40625 z"
       id="path6613" />
    <path
       inkscape:connector-curvature="0"
       style="fill:#afafba;fill-opacity:1;stroke:#ffffff;stroke-width:1px;stroke-linecap:butt;stroke-linejoin:miter;stroke-opacity:0"
       d="m 212.95693,202.84928 c -5.81037,0.039 -11.82165,0.125 -12.8125,0.125 -17.29977,0 -31.31983,-0.32446 -47.09375,7.5625 -4.71957,2.35978 -8.83199,-6.30074 -10.09375,-7.5625 -0.27597,-0.27597 -16.90925,3.49513 -29.21875,6.28125 l 0.0625,1.84375 c 6.12164,-0.64099 13.03183,-1.48409 16.5625,0.28125 4.11067,2.05533 7.30179,4.77054 10.09375,7.5625 2.01451,2.01451 8.59831,-1.16819 10.0625,-1.65625 7.10798,-2.36933 22.23627,1.08499 24.40625,0 6.65615,-3.32808 13.68968,-2.61531 21.03125,-5.0625 1.48314,-0.49438 32.07108,-5.77266 28.59375,-9.25 -0.15588,-0.15587 -5.78338,-0.16397 -11.59375,-0.125 z"
       id="path6944" />
    <path
       style="fill:#bcbfc2;fill-opacity:1;stroke:#ffffff;stroke-width:1px;stroke-linecap:butt;stroke-linejoin:miter;stroke-opacity:0"
       d="m 164.83062,255.9612 c -6.17464,-0.31018 -34.1774,5.6508 -31.11599,11.77362 1.61548,3.23096 17.05564,0 21.02432,0 3.92453,0 7.84907,0 11.77361,0 0.36243,0 2.52292,-1.03919 2.52292,-0.84097 0,2.51225 -2.40743,8.52521 0,10.93264 0.67055,0.67055 4.95727,-3.27533 5.04583,-3.36389 1.75734,-1.75734 6.90742,-2.19225 9.2507,-3.36389 0.89704,-0.44852 2.46685,0.44852 3.36389,0 10.4969,-5.24845 14.49349,5.14431 21.02432,8.40972 3.00397,1.50199 9.81658,-1.12391 12.61458,-2.52291 5.69194,-2.84597 15.07688,-1.68195 21.86529,-1.68195 4.08728,0 12.90728,4.7717 16.81945,6.72778 1.58028,0.79014 5.58249,3.59624 5.04583,2.52292 -0.34962,-0.69924 -8.51877,-12.12664 -9.25069,-12.61459 -4.7254,-3.15026 -26.08239,-11.34701 -31.95696,-8.40972 -4.50985,2.25492 -10.39875,6.72778 -15.1375,6.72778 -0.55558,0 -14.28437,-20.19551 -16.81946,-17.66043 -1.67908,1.67909 -17.44896,11.77362 -20.18334,11.77362 -0.88646,0 -0.21414,-1.89609 -0.84097,-2.52292 -1.65517,-1.65517 -3.63453,-3.06421 -5.04583,-5.88681 z"
       id="path6918"
       inkscape:connector-curvature="0" />
    <path
       inkscape:connector-curvature="0"
       style="fill:#bcbfc2;fill-opacity:1;stroke:#ffffff;stroke-width:1px;stroke-linecap:butt;stroke-linejoin:miter;stroke-opacity:0"
       d="m 627.36318,212.22428 c -0.52034,0 -2.6971,4.3846 -3.375,5.0625 -2.89562,2.89562 -6.68075,3.32476 -10.09375,5.03125 -6.03258,3.0163 -17.39411,-9.36545 -19.3125,-8.40625 -3.84535,1.92267 -6.83068,4.66534 -10.9375,6.71875 -3.19816,1.59908 -10.39343,-1.95954 -12.625,-0.84375 -2.89225,1.44612 -5.03813,3.80032 -7.5625,5.0625 -3.74589,1.87295 -26.90426,-0.84326 -30.28125,-1.6875 -1.02839,-0.2571 -37.48763,-4.81869 -38.6875,-4.21875 -3.76262,1.88131 2.14122,10.9375 -4.1875,10.9375 -2.87872,0 -17.20664,3.85585 -16.84375,4.21875 0.83602,0.83601 3.33226,-0.84375 4.21875,-0.84375 8.37149,0 27.91434,-0.0652 35.3125,-2.53125 5.96394,-1.98798 12.73935,3.86967 16.8125,5.90625 4.73144,2.36572 11.63196,-1.61286 15.15625,-3.375 3.43304,-1.71653 24.51859,3.67286 28.59375,5.03125 5.56493,1.85498 11.96436,-2.7098 17.65625,-0.8125 3.60081,1.20027 7.17219,2.08864 10.9375,3.34375 0.31879,0.10626 0.83654,-0.0816 1.21875,-0.15625 -0.8152,-1.67369 -2.41672,-7.05204 -2.0625,-7.40625 2.64704,-2.64705 5.17296,-3.04651 9.25,-1.6875 2.15768,0.71922 21.82831,3.12976 33.1875,4.03125 l -0.46875,-11.28125 c -6.22766,-5.37278 -13.04851,-12.09375 -15.90625,-12.09375 z m -24,28.4375 c 0.26542,0.54494 0.46875,0.70136 0.46875,0.15625 0,-0.22462 -0.21326,-0.20615 -0.46875,-0.15625 z"
       id="path6859" />
    <path
       inkscape:connector-curvature="0"
       style="fill:#c3c6c9;fill-opacity:1;stroke:#ffffff;stroke-width:1px;stroke-linecap:butt;stroke-linejoin:miter;stroke-opacity:0"
       d="m 122.73818,285.47428 c -2.54039,0.0245 -4.35479,0.13052 -4.71875,0.3125 -0.37488,0.18744 -0.72288,0.44552 -1.0625,0.71875 l 0.4375,11 c 12.03452,-0.42631 37.75835,-1.3354 39.875,0.78125 1.62083,1.62083 7.9611,-1.06633 10.09375,0 4.84276,2.42138 10.86369,0.66621 15.46875,2.96875 0.71453,0.35726 9.53125,-0.26798 9.53125,0 0,0.35776 -3.75773,3.39852 -3,4.15625 0.62581,0.62581 2.67181,-0.59375 3.59375,-0.59375 6.27382,0 11.55338,1.1875 17.8125,1.1875 5.21066,0 16.40385,-1.4399 19.625,1.78125 1.40117,1.40117 5.157,-1.2965 6.5625,-0.59375 0.29072,0.14536 1.22309,1.15191 1.78125,0.59375 1.72134,-1.72134 -0.76808,-12.85279 9.5,-7.71875 1.17266,0.58633 3.00715,0.0192 4.15625,0.59375 1.95332,0.97666 14.875,0.30765 14.875,0.59375 0,0.88554 -9.54926,8.26324 -8.3125,9.5 0.61584,0.61584 2.00135,-0.40692 2.375,-0.59375 2.86802,-1.43401 14.98227,-0.54011 17.25,0.59375 2.51762,1.25882 7.6777,-0.59375 9.5,-0.59375 1.34711,0 6.34006,1.40995 7.15625,0.59375 0.79288,-0.79287 0.98837,-2.17588 1.78125,-2.96875 1.53279,-1.5328 8.62274,0.81975 10.09375,1.1875 4.36718,1.0918 17.61974,-0.81776 17.84375,-0.59375 1.32791,1.32791 -1.84832,3.49543 0,5.34375 0.73341,0.73341 1.12803,-0.53428 1.1875,-0.59375 0.80832,-0.80832 9.88372,0 13.09375,0 2.52661,0 14.36524,-0.47852 16.03125,1.1875 2.12746,2.12746 3.91527,-2.10277 4.1875,-2.375 0.77657,-0.77657 4.13222,0.28486 4.75,0.59375 3.89989,1.94994 17.20582,-0.31897 20.21875,1.1875 2.01123,1.00561 7.21773,1.87397 8.3125,2.96875 0.69377,0.69376 -0.69376,3.49373 0,4.1875 0.0839,0.0839 1.65926,0.061 1.78125,0 3.73081,-1.86541 9.92255,0 14.28125,0 4.05673,0 20.98363,0.38244 23.78125,1.78125 2.14544,1.07272 6.90496,-2.20377 8.9375,-1.1875 0.868,0.434 2.4258,1.1875 2.96875,1.1875 1.43523,0 6.63424,1.67826 7.71875,0.59375 1.09021,-1.09021 0.0973,-4.25354 1.1875,-5.34375 1.10873,-1.10873 7.81743,0.33059 8.34375,0.59375 2.4474,1.08114 -0.64959,4.69416 0,5.34375 0.0158,0.0158 2.73881,-0.91293 3.5625,-1.1875 1.43976,-0.47992 3.83297,0 5.34375,0 5.4383,0 21.36375,2.4175 24.96875,-1.1875 0.33714,-0.33715 7.14298,0.96967 8.8125,1.53125 -0.22062,-0.68219 -0.48281,-2.70468 0.125,-3.3125 0.42049,-0.42048 3.49573,0 4.15625,0 2.85104,0 4.95729,0.59375 7.71875,0.59375 2.18491,0 11.11814,1.97562 11.3125,1.78125 0.77351,-0.77351 -1.68722,-1.96931 -0.59375,-4.15625 1.51892,-3.03783 1.65502,-6.90378 2.96875,-9.53125 0.26899,-0.53798 1.87318,-1.68933 1.1875,-2.375 -1.03445,-1.03446 -3.84228,-0.59375 -5.34375,-0.59375 -3.56225,0 -16.51081,1.26022 -19.03125,0 -3.35908,-1.67954 -9.78804,-2.375 -13.6875,-2.375 -3.90396,0 -9.25456,-0.51194 -13.0625,-1.78125 -3.11688,-1.03896 -8.59881,0 -11.90625,0 -8.63358,0 -24.44759,-0.40962 -32.125,-2.96875 -5.80328,-1.93443 -12.52744,2.06345 -18.40625,0.59375 -7.42244,-1.85561 -15.70779,0.31469 -23.21875,-1.1875 -16.59662,-3.31932 -34.73647,1.09713 -51.125,-3 -3.28862,-0.82216 -7.51102,1.06924 -10.71875,0 -3.54185,-1.18062 -8.26137,0.61079 -11.875,-0.59375 -10.65778,-3.5526 -23.69741,1.22586 -34.5,-2.375 -3.30125,-1.10042 -7.00429,0.35724 -10.09375,-1.1875 -0.93192,-0.46596 -14.875,0.42299 -14.875,0 0,-1.34999 1.20215,-0.8833 -0.59375,-1.78125 -1.77982,0.67728 -0.0129,5.35661 -0.59375,5.9375 -0.58834,0.58833 -1.81892,-0.59375 -2.375,-0.59375 -1.04771,0 -3.72153,-0.75278 -4.15625,-1.1875 -0.19293,-0.19292 -13.31441,-0.59375 -14.875,-0.59375 -4.9603,0 -37.19364,-2.83119 -39.84375,-4.15625 -1.15096,-0.57547 -3.28811,0.15968 -4.15625,0.59375 -0.99443,0.49721 -2.28851,-0.238 -3,-0.59375 -1.46562,-0.7328 -16.37788,1.32669 -21.40625,-1.1875 -4.55917,-2.27958 -19.60006,2.0906 -24.96875,-0.59375 -0.88616,-0.44308 -15.00382,-0.97983 -22.625,-0.90625 z m 381.6875,37.53125 c 0.0453,0.13992 0.0914,0.25 0.125,0.25 0.49132,0 0.31259,-0.10281 -0.125,-0.25 z"
       id="path6765" />
    <path
       inkscape:connector-curvature="0"
       style="fill:#a8a8b4;fill-opacity:1;stroke:#ffffff;stroke-width:1px;stroke-linecap:butt;stroke-linejoin:miter;stroke-opacity:0"
       d="m 116.51943,276.22428 0.625,14.96875 c 13.60511,-0.32538 32.36667,-0.94583 32.5625,-0.75 1.28288,1.28288 -6.29836,10.09375 -4.21875,10.09375 1.89277,0 4.29112,-1.79111 5.03125,-2.53125 1.51214,-1.51214 14.13089,-0.66213 16,-2.53125 0.37474,-0.37474 5.70414,-0.84375 9.25,-0.84375 0.84944,0 -1.54553,5.62232 -1.6875,5.90625 -0.5747,1.14941 -1.1183,8.6808 1.6875,5.875 1.70383,-1.70383 48.05432,-6.57068 50.4375,-4.1875 4.85529,4.85529 15.68198,7.24448 21.03125,12.59375 0.0506,0.0506 17.83828,-9.91173 19.34375,-8.40625 3.89006,3.89006 14.10304,-0.0891 19.34375,2.53125 5.11781,2.55891 2.81186,10.37532 5.0625,9.25 8.98493,-4.49246 21.4859,-1.49295 30.25,-5.875 2.51486,-1.25743 6.71058,0.42596 9.25,-0.84375 1.85065,-0.92532 6.66381,-3.41809 8.4375,-2.53125 0.15679,0.0784 1.41684,4.79184 3.34375,6.71875 2.34632,2.34633 17.8628,-0.9126 20.1875,-1.6875 5.24003,-1.74668 26.85095,8.35096 29.4375,10.9375 2.56392,2.56393 11.76274,-10.88775 12.625,-11.75 0.32767,-0.32768 2.83055,0 3.34375,0 6.77328,0 13.67104,1.65625 21.03125,1.65625 3.35032,0 16.55564,-0.25686 18.5,1.6875 0.80327,0.80326 0.72681,4.10182 1.6875,5.0625 1.76175,1.76175 13.95746,-0.84375 16.8125,-0.84375 4.78166,0 10.31573,1.34536 14.3125,3.34375 4.9536,2.4768 17.08269,-1.3851 21,-3.34375 3.17669,-1.58835 15.62236,1.6875 20.1875,1.6875 6.43289,0 14.49577,1.47298 17.65625,-1.6875 0.63927,-0.63928 0.40262,-3.33649 0.84375,-4.21875 0.58602,-1.17204 2.43319,-1.85238 1.6875,-3.34375 -2.54036,-5.08072 -16.49287,-2.21161 -18.5,-4.21875 -1.86484,-1.86484 -42.15847,-5.77903 -44.5625,-3.375 -4.95157,4.95157 -15.48782,7.91437 -23.5625,2.53125 -2.29884,-1.53256 -22.40271,-11.2223 -23.53125,-10.09375 -1.39179,1.39178 -20.44871,9.96315 -25.25,7.5625 -5.48177,-2.74088 -13.02982,-1.45241 -18.5,-4.1875 -4.70918,-2.35459 -7.91349,-5.90625 -14.28125,-5.90625 -4.90267,0 -10.77541,3.73145 -15.125,5.90625 -4.91452,2.45726 -8.55539,-2.45668 -13.46875,0 -1.44222,0.72111 -5.72279,1.7636 -7.5625,0.84375 -2.85612,-1.42806 -39.48634,-10.13866 -40.375,-9.25 -1.45469,1.45469 -5.66423,9.77725 -10.09375,7.5625 -2.78245,-1.39123 -33.13037,-8.05712 -33.625,-7.5625 -3.24289,3.2429 -7.08846,3.71346 -9.25,5.875 -1.9794,1.97941 -9.40497,-10.9375 -12.625,-10.9375 -0.8577,0 -2.82685,0.84375 -4.21875,0.84375 -5.21375,0 -29.25082,5.14022 -31.09375,4.21875 -1.51508,-0.75754 -13.23916,-12.01085 -16,-9.25 -2.50971,2.50971 -9.63218,6.71875 -14.28125,6.71875 -10.74762,0 -6.40996,-8.94121 -10.09375,-12.625 -0.50786,-0.50786 -4.26498,0 -5.0625,0 -2.47799,0 -21.05058,2.48068 -21.84375,1.6875 -2.11474,-2.11474 -7.77408,-3.04641 -12.15625,-3.28125 z"
       id="path6734" />
    <path
       style="fill:#281818;fill-opacity:1;stroke:#ffffff;stroke-width:1px;stroke-linecap:butt;stroke-linejoin:miter;stroke-opacity:0"
       d="m 438.53656,170.71861 c -0.39644,0.39644 -0.79287,1.58575 -1.18931,1.18932 -0.39644,-0.39644 1.58575,-1.58576 1.18931,-1.18932 -1.623,1.623 -2.92026,3.51492 -4.1626,4.75726 -1.19525,1.19525 -2.57774,2.28041 -3.86527,3.56795 -1.04685,1.04684 -6.17031,7.50681 -5.64925,8.02787 0.57703,0.57703 3.83565,-4.72764 4.1626,-5.05459 1.44641,-1.44641 3.69501,-2.80302 5.35192,-4.45993 1.55004,-1.55004 3.21388,-3.5112 4.75726,-5.05459 0.44323,-0.44323 -0.36186,-1.20198 -0.59466,-1.78397 z"
       id="path6396"
       inkscape:connector-curvature="0" />
    <path
       style="fill:#868e8e;fill-opacity:1;stroke:#ffffff;stroke-width:1px;stroke-linecap:butt;stroke-linejoin:miter;stroke-opacity:0"
       d="m 464.40416,214.1286 c -0.13896,-0.10302 -0.67092,-12.56406 2.97328,-8.91986 0.77539,0.77538 0.89199,7.78296 0.89199,10.10918"
       id="path6345"
       inkscape:connector-curvature="0" />
    <path
       style="fill:#6c4b3d;fill-opacity:1;stroke:#ffffff;stroke-width:1px;stroke-linecap:butt;stroke-linejoin:miter;stroke-opacity:0"
       d="m 415.44043,227.36814 c -0.61111,0.45224 -2.62505,0.0365 -1.00194,-0.24638 0.65014,-0.0313 1.64042,0.42148 0.37473,0.1465 -1.60806,-0.25393 -3.20701,-0.76969 -4.83911,-0.7411 -1.69719,0.78883 -3.62285,1.00834 -5.46632,1.26146 0.9019,-1.30486 -0.52028,-2.9276 -0.45929,-4.58852 -0.25431,-3.17715 0.36383,-6.77767 0.45562,-9.96811 0.0548,-6.24309 -0.0531,-12.51399 0.67167,-18.72495 -0.0849,-2.00171 1.68213,-3.0892 3.28677,-3.81355 1.57057,-1.01959 3.42918,-1.27646 5.26195,-1.33193 4.60107,-0.17778 9.23451,-0.14202 13.80838,0.42267 1.48199,0.7671 0.64657,3.13824 0.84944,4.58897 -0.13884,5.39107 -0.95345,10.75596 -0.71425,16.1562 -0.026,4.67647 0.23704,9.44579 -0.86912,14.02791 -0.11254,0.38643 -0.2464,0.7679 -0.42589,1.12888"
       id="path5908"
       inkscape:connector-curvature="0"
       sodipodi:nodetypes="ccccccccccccccc" />
    <path
       style="fill:#bcbfc2;fill-opacity:1;stroke:#ffffff;stroke-width:1px;stroke-linecap:butt;stroke-linejoin:miter;stroke-opacity:0"
       d="m 259.86051,209.70771 c 8.18305,1.91147 38.84387,-12.45545 42.04863,-9.25069 1.14809,1.14808 -3.6527,3.91605 -0.84097,6.72778 1.43052,1.43053 8.86719,-1.68195 10.93264,-1.68195 6.50565,0 27.21754,-0.66279 32.79793,-2.52292 5.29765,-1.76588 11.51111,3.21928 17.66042,1.68195 6.39348,-1.59837 30.52813,-11.5205 35.32085,-6.72778 1.20847,1.20848 -1.68195,2.34384 -1.68195,3.36389 0,0.88646 1.4678,1.89609 0.84097,2.52292 -4.2456,4.2456 -19.26992,-1.48982 -25.22917,0 -10.01779,2.50444 -19.57058,3.0575 -28.59307,7.56875 -2.46601,1.23301 -41.54273,4.03733 -42.8896,3.36389 -10.02003,-5.01002 -26.82918,-5.04584 -40.36668,-5.04584 z"
       id="path6940"
       inkscape:connector-curvature="0" />
    <path
       style="fill:#aaaaab;fill-opacity:1;stroke:#ffffff;stroke-width:1px;stroke-linecap:butt;stroke-linejoin:miter;stroke-opacity:0"
       d="m 354.89041,209.70772 c -0.56065,-2.2426 -3.92454,-6.16714 -1.68195,-6.72779 2.2426,-0.56064 0.0474,8.36234 1.68195,6.72779 1.75704,-1.75704 -1.29562,-21.67212 -5.04584,-23.54724 -5.81991,-2.90995 -8.44074,-5.04583 -15.1375,-5.04583 -2.85876,0 -6.38828,3.70339 -8.40973,1.68194 -3.64438,-3.64437 -6.57951,-9.9434 -10.09167,-13.45556 -0.48706,-0.48706 -11.28656,-0.48706 -11.77361,0 -0.26213,0.26213 -1.96591,4.76187 -3.36389,3.36389 -3.38444,-3.38443 -11.09309,-10.77219 -16.81946,-5.04583 -11.07761,11.07761 8.98812,26.33273 5.04584,30.27501 -2.23894,2.23894 -9.03178,-7.78767 -11.77362,-5.04584 -0.6692,0.66921 -22.13651,4.06925 -13.45556,8.40973 4.77773,2.38886 12.68793,-4.13153 15.13751,-1.68195 2.76766,2.76767 23.12928,7.14573 25.22918,5.04584 5.45986,-5.45987 -7.68987,-12.13355 1.68194,-16.81945 13.877,-6.9385 15.74977,13.76169 21.86529,16.81945 4.58527,2.29264 14.50664,-5.6767 18.50139,-1.68195 6.80353,6.80353 -19.21634,-4.32264 8.40973,6.72779 z"
       id="path6730"
       inkscape:connector-curvature="0" />
    <path
       style="fill:#6c4b3d;fill-opacity:1;stroke:#ffffff;stroke-width:1px;stroke-linecap:butt;stroke-linejoin:miter;stroke-opacity:0"
       d="m 340.8152,200.09837 c -1.5977,1.43454 -3.09639,2.9089 -4.15625,3.96875 -1.40286,1.40286 -0.84375,8.41893 -0.84375,9.25 0,3.43307 2.08379,20.57321 1.53125,27.5 0.20552,0.046 0.40141,0.0882 0.625,0.125 -0.0353,0.0342 -0.0625,0.0724 -0.0625,0.125 0,0.56065 1.12685,0 1.6875,0 0.0701,0 0.10142,-0.017 0.0937,-0.0312 l 15.875,-3.75 c 0,-1.95034 0.64088,-8.2039 1.6875,-11.34375 1.20191,-3.60572 0,-9.61362 0,-13.46875 l 0,-9.25 c 0,-0.23385 -0.0349,-0.56558 -0.0937,-0.90625 -1.24091,-0.85792 -3.06524,-1.15707 -4.4375,-1.6875 -2.56483,-0.0735 -5.64456,-0.31658 -6.40625,-0.34375 -1.56129,-0.0556 -3.50764,-0.14684 -5.5,-0.1875 z"
       id="path5848"
       inkscape:connector-curvature="0" />
    <path
       inkscape:connector-curvature="0"
       style="fill:#7f5848;fill-opacity:1;stroke:#ffffff;stroke-width:1px;stroke-linecap:butt;stroke-linejoin:miter;stroke-opacity:0"
       d="m 340.95693,204.13053 c -1.06797,0.0765 -2.98369,1.32819 -5.125,2.8125 -0.24509,2.55177 -0.0312,5.82315 -0.0312,6.375 0,3.43307 2.08379,20.57321 1.53125,27.5 0.20552,0.046 0.40141,0.0882 0.625,0.125 -0.0353,0.0342 -0.0625,0.0724 -0.0625,0.125 0,0.56065 1.12685,0 1.6875,0 0.0701,0 0.10147,-0.017 0.0937,-0.0312 l 7.15625,-1.6875 c 1.49545,-2.28476 2.71057,-4.33557 3.09375,-4.71875 1.61778,-1.61778 -5.57254,-9.7288 -7.125,-11.28125 -2.26266,-2.26267 5.9375,-8.73765 5.9375,-9.53125 0,-0.78401 -3.61474,-1.23973 -4.15625,-1.78125 -0.97256,-0.97256 -1.8016,-2.39535 -2.96875,-3.5625 -0.69377,-0.69377 0.69377,-3.46248 0,-4.15625 -0.15825,-0.15825 -0.37597,-0.20757 -0.65625,-0.1875 z"
       id="path6312" />
    <path
       style="fill:#281818;fill-opacity:1;stroke:#ffffff;stroke-width:1px;stroke-linecap:butt;stroke-linejoin:miter;stroke-opacity:0"
       d="m 340.8152,200.09837 c -1.5977,1.43454 -3.09639,2.9089 -4.15625,3.96875 -0.47945,0.47945 -0.72199,1.61773 -0.84375,2.9375 1.60801,-0.17166 3.32656,0.19619 4.90625,-0.21875 1.66779,0.005 3.99652,-0.2231 5.71875,-0.40625 1.97681,-0.10449 3.12303,-0.13652 5.28125,-0.28125 1.87273,0.0414 3.70598,0.44419 5.53125,0.75 l 0,-3.625 c 0,-0.23385 -0.0349,-0.56558 -0.0937,-0.90625 -1.24091,-0.85792 -3.06524,-1.15707 -4.4375,-1.6875 -2.56483,-0.0735 -5.64456,-0.31658 -6.40625,-0.34375 -1.56129,-0.0556 -3.50764,-0.14684 -5.5,-0.1875 z"
       id="path5898"
       inkscape:connector-curvature="0" />
    <path
       style="fill:#b1b9b9;fill-opacity:1;stroke:#ffffff;stroke-width:1px;stroke-linecap:butt;stroke-linejoin:miter;stroke-opacity:0"
       d="m 340.85256,241.17204 c 0,-5.76222 0,4.72268 0,-2.10244 0,-0.67846 -1.26146,-2.1675 -1.26146,-2.52291 0,-1.51902 5.20171,-2.2583 6.72778,-3.78438 2.80431,-2.80431 3.45801,-11.44725 4.62535,-12.61459 0.0803,-0.0803 17.91929,-1.42308 18.08091,-1.26146 0.34672,0.34672 -0.42048,1.60343 -0.42048,2.10243 0,6.825 -0.42049,13.60249 -0.42049,20.60383"
       id="path5751"
       inkscape:connector-curvature="0" />
    <path
       style="fill:#868e8e;fill-opacity:1;stroke:#ffffff;stroke-width:1px;stroke-linecap:butt;stroke-linejoin:miter;stroke-opacity:0"
       d="m 263.11264,264.37715 c 0.52276,3.59827 -0.009,15.45229 1.18931,16.65041 1.57095,1.57095 9.13792,1.24383 11.29849,1.78397 4.76549,1.19137 9.50928,2.37732 14.27178,3.56794 4.51572,1.12893 9.74988,-0.53582 14.27177,0.59466 14.41513,3.60378 31.30283,3.56794 46.38328,3.56794 4.62986,0 8.65154,0.59466 13.08246,0.59466 0.75633,0 4.27585,-0.48141 4.75726,0 0.19822,0.19822 0.59466,0.87498 0.59466,0.59466 0,-3.09516 -0.0756,-23.26721 -0.59466,-23.7863 -0.46734,-0.46734 -30.0301,-0.89208 -30.32752,-0.59465 -0.46486,0.46485 -1.0345,-0.51725 -1.18932,-0.59466 -2.14423,-1.07212 -7.65863,0 -10.10918,0 -6.4671,0 -35.83018,-0.15075 -38.05807,-2.37863 -0.88752,-0.88752 -22.83561,0.54693 -25.57026,0 z"
       id="path6053"
       inkscape:connector-curvature="0" />
    <path
       style="fill:#afafba;stroke:#000000;stroke-width:1px;stroke-linecap:butt;stroke-linejoin:miter;stroke-opacity:0;fill-opacity:1"
       d="m 234.63134,244.18759 c 6.28861,-0.99486 25.50697,-8.69132 31.11598,-5.88681 10.37003,5.18502 10.41195,8.5399 24.3882,5.04584 2.37558,-0.5939 15.97848,-1.32806 15.97848,1.68194 0,0.56065 -1.1213,0 -1.68194,0 -4.43785,0 -10.4641,1.58824 -15.13751,2.52292 -8.47746,1.69549 -33.24027,8.80835 -33.6389,8.40972 -1.53613,-1.53613 0.0326,-7.53619 -1.68195,-9.25069 -0.95578,-0.95579 -18.28689,-2.73402 -19.34236,-2.52292 z"
       id="path6942"
       inkscape:connector-curvature="0" />
    <path
       style="fill:#6c4b3d;fill-opacity:1;stroke:#ffffff;stroke-width:1px;stroke-linecap:butt;stroke-linejoin:miter;stroke-opacity:0"
       d="m 286.55718,232.63651 c 2.25148,-3.71932 5.61536,-2.8296 8.36423,-2.27668 4.10216,0.82513 2.61049,4.18853 2.6272,4.99234 0.03,1.44629 2.42071,28.82774 2.71344,29.384 0.76416,1.45209 0.91833,3.71412 0.95436,5.44767 0.0294,1.41472 1.42358,7.10603 0.58635,7.97878 -0.6014,0.62694 -5.27494,-0.52802 -5.48261,-0.72723 -1.12352,-1.07778 -6.22646,1.0313 -6.71759,0.56016 -0.78388,-0.75196 -1.43233,-21.29643 -3.02902,-24.33053 -0.16488,-0.31333 -0.29077,-3.5624 -0.0786,-3.78355 0.0312,-0.0326 -0.42456,-14.51736 0.0623,-17.24496 z"
       id="path6048"
       inkscape:connector-curvature="0"
       sodipodi:nodetypes="cssssssscsc" />
    <path
       style="fill:#bac4c4;fill-opacity:1;stroke:#ffffff;stroke-width:1px;stroke-linecap:butt;stroke-linejoin:miter;stroke-opacity:0"
       d="m 363.01507,242.96948 c -0.10251,-3.42205 -1.58295,-21.60868 0.59466,-23.78629 0.1497,-0.1497 18.13301,0.89603 19.02904,0 0.66166,-0.66166 9.92409,-0.77975 10.10917,-0.59466 0.35911,0.35911 0,3.00402 0,3.56795 0,3.61553 -1.30181,21.03799 -2.37863,23.19163"
       id="path5807"
       inkscape:connector-curvature="0" />
    <path
       style="fill:#492631;fill-opacity:1;stroke:#ffffff;stroke-width:1px;stroke-linecap:butt;stroke-linejoin:miter;stroke-opacity:0"
       d="m 382.73577,238.70014 c 0.39646,-0.40813 -0.58048,-9.09071 0,-9.67119 0.83638,-0.83638 4.52075,0 5.04584,0 1.31713,0 3.29324,-0.91162 3.78437,-0.42049 0.69738,0.69739 -0.84097,5.33678 -0.84097,6.3073 0,0.69572 0.26295,5.88681 -0.42049,5.88681 -0.31341,0 -0.19887,-0.61936 -0.42048,-0.84098 -0.0384,-0.0384 -1.52755,-0.34328 -1.68195,-0.42048 -1.80883,-0.90442 -3.76861,-0.16189 -5.46632,-0.84097 z"
       id="path5961"
       inkscape:connector-curvature="0" />
    <path
       style="fill:#bac4c4;fill-opacity:1;stroke:#ffffff;stroke-width:1px;stroke-linecap:butt;stroke-linejoin:miter;stroke-opacity:0"
       d="m 369.18694,278.66746 c 0,-9.83707 0.0431,-19.82628 0.36937,-29.15675 0.78305,-2.5158 1.20878,-4.77673 2.37863,-5.94657 0.70758,-0.70758 2.86796,-8.81453 2.97328,-8.91986 1.7143,-1.7143 21.644,0 25.57027,0 1.90005,0 2.5441,-1.45303 3.56794,0.59466 -0.81392,11.10316 -1.78397,24.33685 -1.78397,35.08478 0.97389,3.5895 -1.11856,6.90648 -1.11856,10.02569"
       id="path5766"
       inkscape:connector-curvature="0" />
    <path
       inkscape:connector-curvature="0"
       style="fill:#868e8e;fill-opacity:1;stroke:#ffffff;stroke-width:1px;stroke-linecap:butt;stroke-linejoin:miter;stroke-opacity:0"
       d="m 390.20693,255.13053 c -4.10922,0 -7.69824,0.84375 -11.78125,0.84375 -0.34808,0 -5.17693,0.52067 -5.46875,0.8125 -0.46772,0.46771 0.28119,1.81237 0.4375,2.125 0.15388,0.30775 0.0639,1.00242 -0.0625,1.6875 -0.47223,-0.0259 -0.24068,1.11896 -0.375,1.65625 -1.58788,2.11717 -1.25,5.91405 -1.25,8.4375 0,0.31341 0.56343,-0.29734 0.84375,-0.4375 0.60207,-0.30104 2.20568,0 2.9375,0 2.14052,0 4.30328,0.4375 6.3125,0.4375 2.04166,0 14.57259,0.3521 20.5,-0.1875 -0.0147,-0.0602 -0.0149,-0.12712 -0.0312,-0.1875 0,-4.43145 0.15537,-9.29696 0.40625,-14.25 -0.90421,0.55974 -3.33053,-0.41947 -4.0625,0.3125 -0.0194,0.0194 -7.57445,-1.25 -8.40625,-1.25 z"
       id="path6125" />
    <path
       style="fill:#969ba1;fill-opacity:1;stroke:#ffffff;stroke-width:1px;stroke-linecap:butt;stroke-linejoin:miter;stroke-opacity:0"
       d="m 411.18232,252.78133 c -1.77361,1.16106 -9.69758,8.7368 -11.00116,7.43322 -0.69374,-0.69374 0,-5.7484 0,-6.83856 0,-2.56594 -0.5185,-23.86246 0.59466,-24.97561 0.79287,-0.79288 -0.49555,-3.66706 0.29733,-4.45993 0.72108,-0.72108 6.15249,0 7.13589,0 2.03848,0 4.33034,-0.29733 6.54123,-0.29733 1.25081,0 2.97328,-0.71413 2.97328,-0.59466 0,0.28033 -0.46929,0.34393 -0.59465,0.59466 -0.59218,1.18434 -0.0769,4.0295 -0.29733,5.35191 -0.36965,2.21792 0.36965,4.62065 0,6.83856 -0.98213,5.89275 -1.46101,13.59715 -5.64925,16.94774 z"
       id="path5942"
       inkscape:connector-curvature="0" />
    <path
       style="fill:#281818;fill-opacity:1;stroke:#ffffff;stroke-width:1px;stroke-linecap:butt;stroke-linejoin:miter;stroke-opacity:0"
       d="m 423.85015,218.11744 c -2.56355,1.24777 -0.54528,-0.46352 -0.44415,0.0934 -2.24681,0.66095 -5.73549,1.09317 -4.12448,-2.1773 -0.25038,-3.18138 -0.27996,-6.45304 0.73017,-9.5159 1.15271,-9.07954 0.391,-17.39068 0.8526,-26.52497 0.12348,-3.04069 -0.098,-6.33038 1.41934,-9.0718 1.2889,-1.81358 4.91727,-1.80465 6.79793,-2.00025 1.09892,0.24678 3.22545,-0.75718 1.37864,0.35891 -1.04542,3.10982 -0.11725,6.36483 -0.25508,9.55473 0.13045,6.33508 0.52784,12.77209 -0.69479,19.02285 -1.56326,3.64835 -0.7736,7.70215 -0.86152,11.54626 -0.0753,2.96635 0.35162,6.14286 -0.53529,8.9707 -1.32797,0.78286 -2.85413,-0.54121 -4.26337,-0.2566 z"
       id="path6132"
       inkscape:connector-curvature="0"
       sodipodi:nodetypes="cccccccccccccc" />
    <path
       style="fill:#b1b9b9;fill-opacity:1;stroke:#ffffff;stroke-width:1px;stroke-linecap:butt;stroke-linejoin:miter;stroke-opacity:0"
       d="m 407.61438,276.2703 c -2.24429,-1.27302 -7.26074,1.0595 -10.03613,-1.45052 -4.0562,-2.23279 -8.53997,-4.03237 -11.88907,-7.30341 1.2314,-3.43192 6.41453,-4.78947 9.52505,-6.78593 4.47202,-2.38698 9.74926,-4.94766 11.26236,-10.23292 1.17525,-3.44613 3.69219,-6.08053 3.11799,-9.76961 2.16597,-8.33997 2.38473,-19.24614 3.31343,-26.73299 2.42304,0.0914 5.93549,-0.49913 8.8206,-0.59008 3.11447,-0.10232 6.99635,-0.32963 10.16449,-0.52016 3.16904,-0.26148 5.06432,3.84048 7.0918,6.24756 4.69039,8.0961 9.37632,16.19967 13.82344,24.4319 -0.95151,12.64863 -4.0642,25.09005 -4.32706,37.80411 0.0819,1.27332 -0.0289,2.73852 0.75911,3.82191"
       id="path5595"
       inkscape:connector-curvature="0"
       sodipodi:nodetypes="ccccccccccccc" />
    <path
       style="fill:#aaaaab;fill-opacity:1;stroke:#ffffff;stroke-width:1px;stroke-linecap:butt;stroke-linejoin:miter;stroke-opacity:0"
       d="m 421.32723,190.36535 c 0,-1.1213 -1.12129,-3.36389 0,-3.36389 1.1213,0 0,4.48519 0,3.36389 0,-0.21728 1.78853,-8.30314 0.84098,-9.2507 -7.96775,-7.96774 -14.8406,-17.51197 -25.22918,-22.70626 -1.28393,-0.64196 -9.57875,-3.87681 -10.93264,-2.52291 -2.5633,2.5633 -5.18185,12.12609 -10.93264,9.25069 -6.90855,-3.45427 -23.45066,-27.00769 -31.95696,-18.50139 -1.25734,1.25734 -5.5968,0.55096 -6.72778,1.68194 -3.727,3.727 5.58916,5.58916 5.88681,5.88681 0.48891,0.48892 -1.68195,1.3511 -1.68195,2.52292 0,0.34628 0.22261,2.30031 0,2.52292 -4.21586,4.21586 -11.36678,-5.01854 -15.97848,4.20486 -2.25547,4.51095 6.87195,1.68194 8.40973,1.68194 8.69686,0 12.07681,1.14417 16.81945,5.88681 3.70129,3.7013 2.53508,-10.0795 6.72778,-5.88681 2.3963,2.3963 4.70625,7.22917 7.56875,10.09167 2.56338,2.56338 -1.3949,10.37871 1.68195,13.45556 1.33538,1.33538 11.24819,-0.31554 11.77361,-0.84097 3.1603,-3.1603 4.84977,-6.53171 7.56876,-9.2507 0.22536,-0.22536 5.36009,-0.6654 5.8868,-0.84097 8.84754,-2.94918 7.18929,7.18929 7.56876,7.56875 1.12129,1.1213 3.92453,0.56065 5.04583,1.68195 1.26146,1.26146 2.10243,2.9434 3.36389,4.20486 1.70553,1.70553 12.67581,-0.84097 14.29653,-0.84097 z"
       id="path6933"
       inkscape:connector-curvature="0" />
    <path
       inkscape:connector-curvature="0"
       style="fill:#7f5848;fill-opacity:1;stroke:#ffffff;stroke-width:1px;stroke-linecap:butt;stroke-linejoin:miter;stroke-opacity:0"
       d="m 410.86318,189.69303 c -0.84506,0.20021 -1.65801,0.51425 -2.40625,1 -1.60464,0.72435 -3.36615,1.81079 -3.28125,3.8125 -0.72477,6.21096 -0.60145,12.47566 -0.65625,18.71875 -0.0918,3.19044 -0.72306,6.7916 -0.46875,9.96875 -0.0462,1.25774 0.74842,2.50126 0.75,3.59375 2.29841,-1.34881 3.77958,-3.28459 2.21875,-6.40625 -0.15857,-0.31715 0.15858,-0.87035 0,-1.1875 -0.13706,-0.27412 -0.51613,-0.49899 -0.3125,-0.90625 1.29937,-2.59874 3.5689,-3.85016 5.0625,-5.34375 0.64312,-0.64313 -1.84827,-1.28576 -2.0625,-1.5 -0.45941,-0.4594 -0.55476,-1.11726 -0.90625,-1.46875 -1.41892,-1.41892 4.15625,-7.01259 4.15625,-7.15625 0,-1.28869 -1.78126,-1.78126 -2.375,-2.96875 -0.66428,-1.32854 -1.11286,-2.81948 -1.78125,-4.15625 -0.74424,-1.48848 3.41669,-3.57288 2.375,-5.65625 -0.0661,-0.13224 -0.17551,-0.24907 -0.3125,-0.34375 z"
       id="path6340" />
    <path
       inkscape:connector-curvature="0"
       style="fill:#281818;fill-opacity:1;stroke:#ffffff;stroke-width:1px;stroke-linecap:butt;stroke-linejoin:miter;stroke-opacity:0"
       d="m 416.58193,189.25553 c -3.03805,0.0355 -5.69979,0.24052 -6.59375,0.6875 -1.68271,0.84135 -3.17944,1.49194 -4.21875,2.53125 -0.46833,0.46833 -0.75077,2.87376 -0.9375,5.9375 4.38595,-0.87425 9.75932,-2.17653 10.59375,-2.59375 2.88618,-1.4431 9.08763,1.40053 12.78125,2.125 0.23777,-3.82375 0.35019,-7.49356 -0.15625,-8 -0.35756,-0.35756 -6.40533,-0.74662 -11.46875,-0.6875 z"
       id="path5923" />
    <path
       style="fill:#868e8e;fill-opacity:1;stroke:#ffffff;stroke-width:1px;stroke-linecap:butt;stroke-linejoin:miter;stroke-opacity:0"
       d="m 470.0534,222.15648 c 0.32362,-10.06645 4.75726,-20.92091 4.75726,-31.51685 0,-1.47493 3.20817,-20.21835 2.37863,-20.21835 -2.31941,0 -2.97329,6.3778 -2.97329,7.73055 0,1.73086 -0.35421,13.7909 -1.18931,15.46109 -1.2422,2.48441 -3.56794,23.10186 -3.56794,24.97561"
       id="path6183"
       inkscape:connector-curvature="0"
       sodipodi:nodetypes="cssssc" />
    <path
       style="fill:#868e8e;fill-opacity:1;stroke:#ffffff;stroke-width:1px;stroke-linecap:butt;stroke-linejoin:miter;stroke-opacity:0"
       d="m 444.87447,216.01501 c -1.4576,-0.83267 1.60084,-11.85472 0.84097,-12.61459 -1.4157,-1.4157 -4.6185,-1.26831 -4.20486,-1.68194 0.1832,-0.1832 2.19994,-1.35897 2.9434,-2.10244 0.51033,-0.51033 0.34681,1.75562 1.26146,0.84098 0.88422,-0.88422 -0.0124,-3.56794 1.26146,-4.20487 0.70316,-0.35158 1.59933,0.16894 2.10243,0.42049 0.35009,0.17505 1.41523,-0.26672 1.68195,0 1.32796,1.32797 -0.42049,1.55854 -0.42049,3.36389 0,0.31171 2.50292,-0.44048 2.52292,-0.42049 0.0852,0.0852 0.86938,1.23305 0.42048,1.68195 -1.70029,1.70029 -4.86656,1.92316 -6.30729,3.36389 -0.0673,0.0673 0.42048,0.79123 0.42048,1.26146 0,1.57986 2.09415,8.41801 0.84098,9.67118 -0.79905,0.79905 -2.25581,0.19887 -3.36389,0.42049 z"
       id="path6185"
       inkscape:connector-curvature="0" />
    <path
       style="fill:#98a1a6;fill-opacity:1;stroke:#ffffff;stroke-width:1px;stroke-linecap:butt;stroke-linejoin:miter;stroke-opacity:0"
       d="m 429.31648,169.34103 c 9.12791,8.20017 17.02459,18.28605 25.64966,26.91112 3.24135,3.24136 6.85726,5.5958 10.09167,8.83022 1.34661,1.3466 3.79968,1.69724 5.04583,2.9434 1.70362,1.70361 3.50064,3.50064 4.62535,4.62535 0.5847,0.58469 0.5128,1.77426 1.26146,2.52292 0.28032,0.28032 1.23741,0.84097 0.84097,0.84097 -0.0495,0 0.0618,-1.19962 0,-1.26146 -0.74882,-0.74882 -0.7556,-2.01706 -1.68194,-2.9434 -1.9742,-1.97421 -4.06948,-4.06948 -6.3073,-6.3073 -4.15288,-4.15288 -9.64158,-7.53915 -14.71701,-12.61459 -2.7786,-2.77859 -8.06969,-8.91065 -11.35314,-12.1941 -3.40024,-3.40024 -6.33758,-7.17856 -10.09166,-10.93264 -0.79263,-0.79263 -3.08233,-0.13892 -3.36389,-0.42049 -0.50537,-0.50536 0.92584,-1.59707 0.42048,-2.10243 -0.334,-0.334 -2.21751,-0.2936 -0.42048,2.10243 z"
       id="path6230"
       inkscape:connector-curvature="0"
       sodipodi:nodetypes="csssssscssssscsc" />
    <path
       style="fill:#868e8e;fill-opacity:1;stroke:#ffffff;stroke-width:1px;stroke-linecap:butt;stroke-linejoin:miter;stroke-opacity:0"
       d="m 473.91868,214.1286 c 0.26554,-0.1398 -0.9987,-4.05589 -0.59466,-4.45993 0.21024,-0.21024 1.75104,0 2.0813,0 0.35547,0 1.12539,-0.65858 1.48664,-0.29733 0.11342,0.11342 0,3.72257 0,5.05459"
       id="path6347"
       inkscape:connector-curvature="0" />
    <path
       style="fill:#868e8e;fill-opacity:1;stroke:#ffffff;stroke-width:1px;stroke-linecap:butt;stroke-linejoin:miter;stroke-opacity:0"
       d="m 451.61902,214.42593 c -0.14058,-0.88943 -0.7142,-4.04306 0,-4.75726 0.13471,-0.13471 3.77242,-1.28218 4.16261,-0.89199 0.0905,0.0905 -0.52673,2.40422 -0.59466,2.67596 -0.31505,1.2602 0.29733,2.47024 0.29733,3.56795"
       id="path6349"
       inkscape:connector-curvature="0" />
    <path
       style="fill:#bac4c4;fill-opacity:1;stroke:#ffffff;stroke-width:1px;stroke-linecap:butt;stroke-linejoin:miter;stroke-opacity:0"
       d="m 440.32053,272.10769 c -1.45149,0.8114 -3.63832,-0.37793 -0.89198,-0.29733 2.58119,0.59313 -2.47362,0.002 -3.1747,0.0907 -2.27694,-1.42898 -6.33883,3.73913 -6.44964,-0.28459 -0.0302,-4.2073 0.59468,-8.38922 0.50608,-12.60236 0.62372,-14.988 3.51263,-30.89855 2.76527,-45.94201 2.09813,-0.31804 4.4791,-0.25623 6.52315,-0.15233 3.841,0.0541 14.26562,0.15078 21.69231,0.12536 6.86512,-0.26298 11.72164,0.17336 18.50814,-0.99809 2.25161,-1.68968 -0.48438,6.71098 -0.11148,10.86358 -0.84462,6.73873 -1.59643,15.61677 -1.86178,20.2601 -1.36838,8.50597 -2.06895,19.53889 -2.81661,24.85833 -0.0817,2.25095 0.4223,4.79949 0.39603,7.05192"
       id="path5598"
       inkscape:connector-curvature="0"
       sodipodi:nodetypes="ccccccccccccc" />
    <path
       inkscape:connector-curvature="0"
       style="fill:#483737;fill-opacity:1;stroke:#ffffff;stroke-width:1px;stroke-linecap:butt;stroke-linejoin:miter;stroke-opacity:0"
       d="m 475.80068,220.53678 c -0.29922,0.0733 -0.83152,0.28125 -0.84375,0.28125 -0.91504,0 -3.74613,-0.12264 -5.75,-0.0625 -0.0879,0.48155 -0.2615,0.92925 -0.5,1.40625 -0.20051,0.401 -0.13577,2.25431 -0.125,3.15625 1.84686,0.0297 4.1905,0.0595 4.28125,-0.0312 0.44599,-0.446 1.96026,0.13349 2.40625,-0.3125 0.0775,-0.0775 0.75768,-4.39858 0.71875,-4.4375 -0.0184,-0.0184 -0.0878,-0.0244 -0.1875,0 z m -17.09375,0.25 c -2.54197,-0.004 -5.09967,0.003 -5.15625,0.0312 -0.18314,0.0916 -0.4745,0.1521 -0.8125,0.1875 -0.0873,0.95648 -0.21875,1.90374 -0.21875,2.9375 0,0.30991 -10e-4,0.7509 0,1.25 2.47438,0.0182 4.88852,0.0431 7.34375,0.0625 0.0394,-0.23076 0.0937,-0.46969 0.0937,-0.71875 0,-1.15279 0.4375,-2.14983 0.4375,-3.28125 l 0,-0.46875 c -0.74947,-0.003 -0.84541,0.001 -1.6875,0 z m 2.8125,0.0312 c -0.12201,1.31112 -0.375,2.64842 -0.375,4.15625 0,0.0424 0.0223,0.17437 0.0312,0.28125 1.82115,0.0128 3.69266,0.0312 5.46875,0.0312 0.12572,0 0.69205,0.0271 0.96875,0.0312 0.36129,-1.04266 -0.004,-3.19449 0.28125,-4.46875 -0.29027,0.0372 -0.52686,0.0603 -0.65625,0.125 -0.57968,0.28984 -2.92667,0.0992 -3.4375,-0.15625 -0.0114,-0.006 -1.48817,0.005 -2.28125,0 z m -10.90625,0.21875 c -1.21122,-0.0116 -2.41088,-0.0133 -2.875,0.21875 -0.37874,0.18937 -1.9464,0.33064 -3.84375,0.40625 0.009,1.00293 0.15625,1.83932 0.15625,2.5625 0,0.20976 0.0442,0.58633 0.0625,0.9375 2.16791,0.0104 4.40368,0.0152 6.625,0.0312 0.20521,-1.18124 0.7503,-3.06748 0.84375,-4.15625 -0.32133,0.003 -0.6335,0.003 -0.96875,0 z m -14.90625,0.375 c 0.56186,0.19852 -0.87757,3.43493 -0.4375,3.875 0.0394,0.0394 0.37628,0 0.4375,0 0.98688,0 2.49681,-0.15625 3.71875,-0.15625 1.06332,0 2.24807,-0.004 3.34375,0 0.13098,-1.19428 0.30017,-2.38601 0.46875,-3.4375 -3.10696,0.0965 -6.76948,0.0235 -7.53125,-0.28125 z"
       id="path5614" />
    <path
       style="fill:#551a2c;fill-opacity:1;stroke:#ffffff;stroke-width:1px;stroke-linecap:butt;stroke-linejoin:miter;stroke-opacity:0"
       d="m 520.00633,249.03859 c -0.0629,0.0198 -0.0994,0.0682 -0.15625,0.125 -0.95898,0.95898 -14.9089,0.84375 -17.65625,0.84375 l -11.375,0 c -7.24445,0 -13.9891,1.25 -21.03125,1.25 -2.54242,0 -17.31557,-0.34069 -18.5,0.84375 -1.49527,1.49526 -0.13812,6.63101 0.84375,8.40625 0.66425,-1.66064 -10e-4,-6.27977 0.4375,-6.71875 0.16384,-0.16383 1.4309,0 1.6875,0 3.54944,0 6.56194,-0.4375 10.09375,-0.4375 l 8.65625,0 c -0.0824,2.49344 -1.09436,6.74939 -0.6875,7.15625 0.36088,0.36088 1.6732,-0.63347 2.09375,-0.84375 0.3693,-0.18465 2.125,0.41705 2.125,-0.40625 0,-0.39643 -0.66646,-0.48916 -0.84375,-0.84375 -0.66146,-1.32292 0.25232,-3.62259 -0.0312,-5.0625 l 18.53125,0 c -0.19407,2.54136 -1.98567,6.3125 0.84375,6.3125 0.17314,0 1.13869,0.11131 1.25,0 0.95669,-0.95669 -0.86792,-4.69244 -1.6875,-6.3125 l 0.4375,0 c 4.43455,0 10.48708,1.49084 14.28125,-0.40625 0.64226,-0.32113 1.70707,-0.41865 2.9375,-0.40625 -0.23389,2.19595 -1.78362,6.59138 -0.8125,7.5625 0.20981,0.20981 1.76451,0 2.09375,0 0.32925,0 1.88394,0.20981 2.09375,0 0.20122,-0.20122 -0.84375,-3.38004 -0.84375,-3.78125 0,-0.53236 0.21551,-2.24422 0.25,-3.625 3.17001,0.25279 6.4896,0.66666 7.3125,-0.15625 0.14712,-0.14712 -1.40057,-3.79643 -2.34375,-3.5 z"
       id="path6417"
       inkscape:connector-curvature="0" />
    <path
       style="fill:#969d9e;fill-opacity:1;stroke:#ffffff;stroke-width:1px;stroke-linecap:butt;stroke-linejoin:miter;stroke-opacity:0"
       d="m 427.63453,170.60249 c 2.63934,5.43548 7.53822,9.5279 11.35313,14.29653 3.67387,4.59235 6.21373,10.10708 9.67118,14.71702 6.09688,8.12918 13.16275,15.32902 18.92189,23.96772 1.24967,1.87451 1.94648,3.89298 2.9434,5.88681 2.01628,4.03257 6.36631,7.26631 8.40972,11.35313 0.98809,1.97617 2.16466,4.26708 3.78438,5.88681 2.83367,2.83367 14.3018,16.3937 15.13751,15.55799 0.87063,-0.87064 -2.27775,-3.11872 -2.52292,-3.36389 -4.35047,-4.35047 -7.10664,-10.89102 -12.1941,-15.97848 -2.82055,-2.82055 -4.95508,-6.63702 -8.40973,-10.09167 -0.3504,-0.35041 -0.0701,-1.33154 -0.42048,-1.68195 -1.87542,-1.87541 -3.10654,-5.20896 -5.46633,-7.56875 -1.64249,-1.6425 -1.69027,-4.21319 -2.9434,-5.46632 -5.36909,-5.36909 -8.52358,-11.0465 -14.29653,-16.81945 -3.74466,-3.74466 -4.7861,-10.25242 -7.98924,-13.45556 -5.00354,-5.00354 -13.55192,-11.17353 -15.97848,-17.23994 z"
       id="path6245"
       inkscape:connector-curvature="0" />
    <path
       style="fill:#969d9d;fill-opacity:1;stroke:#ffffff;stroke-width:1px;stroke-linecap:butt;stroke-linejoin:miter;stroke-opacity:0"
       d="m 426.64341,170.42128 c -0.97265,4.19237 7.33401,23.38945 10.10918,34.49013 0.97434,3.89737 3.79496,7.44931 4.75726,11.29849 2.55972,10.23888 6.91966,22.75919 10.70383,30.32753 1.65728,3.31455 2.52178,9.65766 4.75726,11.89315 1.01072,1.01072 3.80801,3.56794 2.37863,3.56794 -0.28032,0 0.39644,-0.39644 0.59466,-0.59466 0.45473,-0.45473 -0.44795,-2.82658 -0.59466,-2.97328 -3.30071,-3.30072 -4.45009,-9.49483 -6.54123,-13.67712 -1.60232,-3.20465 -2.65526,-9.1965 -5.35192,-11.89315 -1.14765,-1.14766 -2.2718,-10.49017 -3.56794,-13.08246 -1.48391,-2.96782 -2.32047,-8.99981 -3.60402,-10.70384 -1.97105,-2.61676 -3.0027,-8.22963 -4.1626,-10.91407 -2.07944,-4.81261 -8.42723,-25.40802 -9.47845,-27.73866 z"
       id="path6202"
       inkscape:connector-curvature="0"
       sodipodi:nodetypes="csssssscsssssc" />
    <path
       style="fill:#bac4c4;fill-opacity:1;stroke:#ffffff;stroke-width:1px;stroke-linecap:butt;stroke-linejoin:miter;stroke-opacity:0"
       d="m 372.82692,249.51071 c -0.44071,0.35087 -9.11247,-0.89198 -13.37979,-0.89198 -4.46853,0 -22.17532,-2.20564 -24.67828,0.29733 -0.34923,0.34923 1.44308,7.94075 1.78397,8.62253 0.913,1.82599 0.77004,3.44599 1.78397,4.45993 0.0866,0.0865 7.55976,0 8.02788,0 2.17146,0 6.61283,0.22208 8.62253,0.89199 1.34908,0.44969 14.55898,-0.59466 17.54239,-0.59466 0.6311,0 6.46799,0.6679 6.54123,0.59466 0.82108,-0.82108 0.59466,-3.60689 0.59466,-5.05459 0,-1.11053 1.81854,-5.31735 1.48664,-5.64925 -0.82654,-0.82654 -2.96477,-0.14441 -3.86527,-0.59466 -1.65519,-0.82759 -2.64374,-1.71806 -4.45993,-2.0813 z"
       id="path6071"
       inkscape:connector-curvature="0" />
    <path
       style="fill:#929ba1;fill-opacity:1;stroke:#ffffff;stroke-width:1px;stroke-linecap:butt;stroke-linejoin:miter;stroke-opacity:0"
       d="m 311.33245,236.81255 c -1.19834,-3.13704 -1.18095,-6.12894 -1.70665,-9.43546 -0.40931,-2.57453 -1.20588,-5.51204 -0.97887,-8.10547 0.2446,-2.79434 -2.22784,-15.05296 -1.04665,-16.97539 1.55551,-2.53167 1.47669,13.4586 1.72219,14.07985 2.19238,5.54792 0.92307,12.05761 3.10441,17.5776 0.37501,0.94899 -0.63429,1.9481 -1.09443,2.85887 z"
       id="path6275"
       inkscape:connector-curvature="0" />
    <path
       inkscape:connector-curvature="0"
       style="fill:#868e8e;fill-opacity:1;stroke:#ffffff;stroke-width:1px;stroke-linecap:butt;stroke-linejoin:miter;stroke-opacity:0"
       d="m 302.55068,217.94303 c -0.35211,0.0172 -0.71209,0.0312 -1.0625,0.0312 -8.05923,0.87158 -1.82545,8.512 0.375,8.5625 0.12499,0.67182 0.24378,1.35154 0.25,2.03125 -1.24147,-0.0742 -2.45984,-0.19281 -3.78125,-0.15625 0.34193,0.42741 0.57294,1.03647 1.0625,1.28125 0.48661,0.24331 1.55315,0.27401 2.8125,0.21875 0.0608,0.6409 0.125,1.26407 0.125,1.875 0,1.78513 0.21875,3.86687 0.21875,5.46875 0,0.33586 1.88311,0.42939 2.09375,0.21875 0.3771,-0.3771 -0.4375,-1.72628 -0.4375,-1.90625 0,-0.44304 -0.31969,-3.1616 -0.65625,-5.75 0.8434,-0.0776 1.70295,-0.18365 2.53125,-0.3125 0.0202,0.3555 0.1143,0.75985 0.25,1.03125 0.33251,0.66501 -0.23651,1.79047 0,2.5 0.3374,1.0122 0.346,1.93849 0.84375,2.9375 -0.088,-0.44003 0.62111,-0.64164 0.84375,-1.03125 0.31528,-0.55174 -0.0653,-2.07098 -0.21875,-2.53125 -0.22987,-0.68959 0.24744,-2.45752 -0.0937,-3.1875 1.01869,-0.20429 1.82998,-0.41499 2.1875,-0.59375 0.75484,-0.37742 5.77677,0.34824 5.90625,0.21875 0.10513,-0.10512 -0.10512,-0.51988 0,-0.625 1.0983,-1.0983 -2.26234,-0.65625 -2.96875,-0.65625 -1.39653,0 -2.39623,0.65625 -3.78125,0.65625 -0.38607,0 -1.37419,0.37459 -1.875,0.625 -0.094,0.047 -0.20073,0.0738 -0.3125,0.0937 -0.007,-0.006 -0.0245,0.006 -0.0312,0 -0.37246,-0.31768 -0.58928,-0.24374 -0.6875,0 -0.67593,-0.0742 -1.43058,-0.3125 -1.9375,-0.3125 -0.28278,0 -0.53807,-0.0226 -0.8125,-0.0312 -0.15947,-1.19739 -0.33814,-2.49332 -0.375,-2.71875 0.76277,-0.52421 1.75205,-1.0958 2.25,-1.59375 1.32906,-1.32906 -1.31851,-6.2387 -1.6875,-6.3125 -0.3436,-0.0687 -0.67914,-0.0484 -1.03125,-0.0312 z m 4.625,18.03125 c 0.0701,0.3504 1.3886,0.21875 1.03125,0.21875 -0.35734,0 -0.68085,-0.14867 -1.03125,-0.21875 z"
       id="path6277" />
    <path
       inkscape:connector-curvature="0"
       style="fill:#b1b9b9;fill-opacity:1;stroke:#ffffff;stroke-width:1px;stroke-linecap:butt;stroke-linejoin:miter;stroke-opacity:0"
       d="m 299.92568,233.19303 c -1.87517,-0.005 -3.73673,0.10883 -5.5625,0.59375 -1.40621,3.04562 0.0217,7.00322 0.0312,10.375 0.80559,7.64242 1.89142,15.25448 2.875,22.875 0.89557,-0.004 1.85017,0.0312 2.125,0.0312 2.67864,0 5.32188,0.076 7.71875,0.875 1.84669,0.61557 6.73109,0 8.625,0 10.31759,0 20.24565,0.59375 30.625,0.59375 3.16998,0 13.06899,-1.04363 15.15625,0 1.68389,0.84194 4.68229,-1.28646 5.96875,0 0.10426,0.10426 -0.76764,6.57054 -0.90625,7.125 -0.0462,0.18492 -0.0693,0.52147 -0.0625,0.90625 l 8.96875,0.90625 c -0.34664,-3.17694 -0.01,-6.1634 1,-9.125 0.15204,-3.03142 0.19565,-6.05944 0.21875,-9.09375 -8.37414,-0.14952 -17.29394,-0.53125 -25.59375,-0.53125 -1.85295,0 -3.51607,0.59375 -5.34375,0.59375 -0.30607,0 -0.37221,0.53404 -0.59375,0.3125 -0.10436,-0.10437 0.3125,-1.3208 0.3125,-1.78125 0,-0.5553 -0.28971,-2.12077 0.28125,-2.40625 0.37685,-0.18843 1.35067,0 1.78125,0 9.47847,0 19.92288,-0.53177 29.1875,-0.3125 -0.008,-4.15691 -0.0567,-8.31251 -0.0312,-12.46875 -0.44282,-2.81122 0.61601,-8.12506 -1.8125,-8.75 -9.63961,0.0225 -20.42926,0.89393 -25.3125,0.625 -6.23935,-0.24635 -15.9973,-0.5459 -22.25,-0.5 -5.56309,-1.44986 -12.74864,-0.61417 -18,-0.5625 -3.10576,0.12455 -6.28097,-0.2729 -9.40625,-0.28125 z"
       id="path5732" />
    <path
       style="fill:#6d7575;fill-opacity:1;stroke:#ffffff;stroke-width:1px;stroke-linecap:butt;stroke-linejoin:miter;stroke-opacity:0"
       d="m 330.08172,282.45184 c 0.61778,-1.16072 -1.15829,-9.77435 -0.84097,-10.09167 1.00007,-1.00008 11.39255,1.26146 13.03507,1.26146 1.23016,0 7.07793,-1.33179 7.56875,-0.84098 0.81955,0.81955 -0.19969,10.73295 2.10243,13.03508"
       id="path6390"
       inkscape:connector-curvature="0" />
    <path
       style="fill:#6d7575;fill-opacity:1;stroke:#ffffff;stroke-width:1px;stroke-linecap:butt;stroke-linejoin:miter;stroke-opacity:0"
       d="m 314.52373,268.57579 c -0.57777,1.9606 -0.62834,4.0018 0,5.88681 0.42999,1.28997 -0.90778,5.39952 0,6.30729 2.80676,2.80676 1.48806,-8.86294 1.68194,-9.2507 0.0996,-0.19925 0.65573,-3.83142 0.42049,-3.78437 -0.74014,0.14803 -1.40162,0.56065 -2.10243,0.84097 z"
       id="path6375"
       inkscape:connector-curvature="0" />
    <path
       style="fill:#6c4b3d;fill-opacity:1;stroke:#ffffff;stroke-width:1px;stroke-linecap:butt;stroke-linejoin:miter;stroke-opacity:0"
       d="m 345.70693,229.19303 c -4.24643,2.20077 -8.73076,3.94248 -12.36738,7.1534 -8.86423,5.66413 -18.13143,10.77391 -27.65844,15.21402 -5.02658,1.8397 -9.66855,5.3241 -12.90967,6.71482 -5.64072,2.72882 -10.40554,6.07264 -15.48021,9.33573 -4.60874,3.00362 -13.83289,8.07678 -18.88375,10.79327 -4.51713,4.24196 3.28805,4.08441 5.79919,0.83661 4.69968,-3.24984 10.80037,-6.21967 14.13758,-7.79156 3.45694,-1.71211 9.3884,-6.43739 14.864,-8.45227 6.68201,-2.88602 12.14644,-7.73515 18.69017,-10.84249 5.10118,-3.12376 11.11101,-4.56544 15.59358,-8.66629 6.31795,-4.31739 13.30446,-7.50782 19.90243,-11.35774 0.0744,-1.24863 -1.06107,-2.01687 -1.6875,-2.9375 z"
       id="path5976"
       inkscape:connector-curvature="0"
       sodipodi:nodetypes="ccccccccccccc" />
    <path
       style="fill:#969d9d;fill-opacity:1;stroke:#ffffff;stroke-width:1px;stroke-linecap:butt;stroke-linejoin:miter;stroke-opacity:0"
       d="m 478.51337,213.0716 c 3.31807,1.38678 15.31379,12.79088 22.70626,20.18335 3.25577,3.25577 9.14285,7.04041 13.03507,10.93264 3.47424,3.47424 9.52728,5.59899 11.35313,9.2507 1.27378,2.54756 10.7353,7.76609 10.09167,8.40972 -1.49989,1.49989 -10.00619,-6.6423 -10.93264,-7.56875 -1.54179,-1.54178 -4.93339,-4.64813 -6.72778,-5.88681 -9.50406,-6.56066 -37.17891,-32.32055 -39.52571,-35.32085 z"
       id="path6260"
       inkscape:connector-curvature="0"
       sodipodi:nodetypes="cssssssc" />
    <path
       style="fill:#6d7575;fill-opacity:1;stroke:#ffffff;stroke-width:1px;stroke-linecap:butt;stroke-linejoin:miter;stroke-opacity:0"
       d="m 353.08635,269.01103 c -0.3379,0.61397 -0.79109,1.17738 -1.01372,1.84189 -0.51588,1.53978 1.06038,3.8007 0.76478,5.41255 -0.18437,1.00525 -0.96186,8.20333 2.13148,6.06878 0.092,-0.0635 -0.22876,-11.25772 -0.33934,-11.41795 -0.46417,-0.67268 -1.02879,-1.27018 -1.5432,-1.90527 z"
       id="path6394"
       inkscape:connector-curvature="0" />
    <path
       style="fill:#6d7575;fill-opacity:1;stroke:#ffffff;stroke-width:1px;stroke-linecap:butt;stroke-linejoin:miter;stroke-opacity:0"
       d="m 283.40774,266.47336 c -0.28032,0.56065 -0.71804,1.06729 -0.84097,1.68194 -0.0712,0.35616 0.66099,2.40347 0.84097,2.94341 0.69486,2.08457 -1.4828,8.83021 1.26146,8.83021 0.17314,0 1.15015,0.11131 1.26146,0 0.95175,-0.95175 -0.59577,-5.15121 -0.84097,-5.88681 -0.46254,-1.3876 0.46253,-3.23774 0,-4.62535 -0.20435,-0.61303 -1.66887,-2.9216 -1.68195,-2.9434 z"
       id="path6392"
       inkscape:connector-curvature="0" />
    <path
       inkscape:connector-curvature="0"
       style="fill:#551a2c;fill-opacity:1;stroke:#ffffff;stroke-width:1px;stroke-linecap:butt;stroke-linejoin:miter;stroke-opacity:0"
       d="m 469.58193,256.06803 c -13.53515,-0.0446 -25.65615,0.77495 -40.46875,2.25 -11.10334,-0.34969 -20.30281,0.37252 -27.25,2.9375 -0.6026,2.00441 -1.0032,3.85239 -1.375,5.65625 -16.2295,-2.64476 -83.36435,-2.21488 -96.78125,-2.3125 -2.67492,-0.0195 -11.88105,-1.2204 -18.40625,-1.25 -10.45461,0.59613 -22.86184,-1.04612 -32.34375,-1.3125 -0.32583,0.14566 -0.61396,0.33271 -0.84375,0.5625 -0.24367,0.24367 0.0556,2.0867 0.375,3.4375 1.68527,1.19921 3.85475,1.78443 5.84375,1.8125 2.65077,-0.3008 5.27515,-0.21013 7.90625,-0.125 0.11297,1.14423 0.15625,2.30238 0.15625,3.5 0,0.23317 -0.0719,2.34599 0.15625,4.0625 -4.55721,-0.53468 -9.18023,-1.69502 -13.28125,-1.03125 -0.23919,-2.50319 -3.16158,-4.63051 -4.8125,-6.65625 -2.40235,-0.0822 -4.97289,-0.25 -6.75,-0.25 -0.94934,0 -1.80812,0.37337 -2.46875,0.84375 0.1585,1.76819 0.31548,3.62871 0.84375,5.59375 0.97683,13.55003 6.9265,23.89925 17.21875,27.59375 6.50048,0.70316 31.67242,2.15717 46.625,3.0625 14.13469,0.64634 34.20536,3.26993 47.78125,3.5625 34.95082,1.85211 76.19505,4.13945 89.5,6.46875 17.0201,0.6201 38.37057,0.52837 48.46875,0.75 11.19519,2.02389 25.24331,2.08095 36.28125,0.90625 12.13314,-14.35967 18.44063,-32.50132 26.78125,-49.125 4.1e-4,-1.64829 0.33288,-3.33346 0.8125,-5.03125 -3.42966,-1.3212 -6.79243,-2.80005 -10.09375,-4.3125 -19.84626,-1.44675 -39.81856,-0.96663 -59.71875,-1.25 -4.9792,-0.21295 -9.64453,-0.32888 -14.15625,-0.34375 z m -196.8125,11.65625 c 1.71567,0.15422 3.41671,0.33868 5.125,0.5 -0.3429,2.37835 -0.73397,5.77577 -0.6875,7.53125 -3.30197,-0.0333 -6.56522,-0.12617 -8.875,-0.3125 -0.16087,-1.29938 -0.60436,-2.90681 -0.75,-3.34375 -0.43687,-1.31061 0.34883,-3.10851 0.0625,-4.34375 1.70796,0.049 3.41796,0.0736 5.125,-0.0312 z m 21.375,0.375 c 4.05231,-0.12771 8.08365,0.22296 12.125,0.5 -0.13295,1.15275 -0.0312,2.33773 -0.0312,3.5 0,0.57876 -0.28701,2.74411 -0.25,4.15625 -5.92383,-0.59508 -12.9506,0.0628 -18.53125,-0.3125 -1.78462,-0.12899 -4.85512,-0.16008 -8.09375,-0.1875 -0.0902,-0.56959 -0.1875,-1.18099 -0.1875,-1.28125 0,-1.84377 0.0318,-4.1035 -0.28125,-6.15625 4.08727,0.36391 8.17298,0.55936 12.3125,-0.0312 0.98033,-0.0954 1.95974,-0.15669 2.9375,-0.1875 z m 26.8125,0.34375 c 1.53059,0.0164 3.05848,0.0992 4.59375,0.1875 -0.33639,1.85092 0,3.437 0,5.25 0,1.2252 -0.27604,2.41641 -0.28125,3.5625 -4.32877,-0.0541 -12.51324,-0.9524 -16.75,-0.84375 -0.27488,-0.0503 -0.56191,-0.0823 -0.84375,-0.125 0.55802,-2.39188 0.29195,-7.23396 0.0312,-7.625 -0.0365,-0.0548 -0.0867,-0.10273 -0.125,-0.15625 2.34743,0.14674 4.70254,0.24797 7.0625,0.1875 2.08653,-0.35521 4.19677,-0.46015 6.3125,-0.4375 z m 6.3125,0.28125 c 1.42476,0.0817 2.86272,0.16584 4.28125,0.1875 2.58102,0.35668 5.67856,0.555 8.9375,0.6875 -0.36235,2.25734 -0.38382,5.43674 -0.21875,8.3125 -4.27565,-0.0355 -8.91252,-0.45344 -12.5625,-0.46875 -0.004,-2.28404 -0.0625,-5.42857 -0.0625,-5.9375 0,-0.27189 -0.20287,-1.73118 -0.375,-2.78125 z m 13.8125,0.90625 c 0.28208,0.0106 0.55935,0.0217 0.84375,0.0312 -0.0114,0.34474 -0.14383,0.59375 -0.5,0.59375 -0.28033,0 -0.35313,-0.24769 -0.34375,-0.625 z m 0.875,0.0312 c 6.9019,0.23039 14.40567,0.16673 19.8125,0.40625 0.11912,1.55777 0.5109,5.3958 0.71875,7.90625 -4.43323,0.72179 -15.84058,0.11554 -19.5,-0.0937 -0.23695,-2.93526 -0.66801,-6.01711 -1.03125,-8.21875 z"
       id="path4371" />
    <path
       inkscape:connector-curvature="0"
       style="fill:#441523;fill-opacity:1;stroke:#ffffff;stroke-width:1px;stroke-linecap:butt;stroke-linejoin:miter;stroke-opacity:0"
       d="m 411.70693,280.03678 c -4.91719,-0.0931 -13.61528,5.15625 -17.78125,5.15625 -2.72619,0 -25.52448,4.19427 -26.75,2.96875 -1.59698,-1.59697 1.62478,-3.12522 1.1875,-3.5625 -0.15741,-0.15741 -1.53639,0 -1.78125,0 -4.71274,0 -9.95831,-0.59375 -14.28125,-0.59375 -8.30874,0 -14.79922,-0.42109 -23.1875,2.375 -0.50121,0.16707 -5.34375,1.6195 -5.34375,1.78125 0,0.37346 2.59844,1.59609 2.96875,1.78125 2.41862,1.2093 2.84651,2.49724 0.59375,4.75 -1.61491,1.6149 -20.31982,0.69482 -21.40625,1.78125 -0.55587,0.55587 -9.99245,3 -11.90625,3 -1.42595,0 -7.19224,2.30776 -6.53125,2.96875 0.75642,0.75643 2.97161,1.13443 5.65625,1.34375 0.15186,0.0118 0.31396,0.0206 0.46875,0.0312 0.58944,0.0353 1.17162,0.0591 1.75,0.0937 5.56306,0.23363 11.97813,-0.0531 12.34375,0.3125 0.16316,0.16316 0.36213,0.31731 0.5625,0.46875 13.69377,0.89455 31.18689,3.04849 43.4375,3.3125 34.95082,1.85211 76.19505,4.13945 89.5,6.46875 14.03309,0.51127 30.65711,0.53817 41.84375,0.65625 -0.36047,-0.33008 -0.60349,-0.60552 -0.5,-0.8125 0.78198,-1.56398 9.33392,-3.89466 8.3125,-5.9375 -3.51673,-7.03346 -11.96279,-4.21279 -14.28125,-6.53125 -2.2972,-2.2972 4.89827,-4.03923 1.78125,-7.15625 -4.0292,-4.0292 -11.95181,1.74284 -16.625,-0.59375 -1.23732,-0.61866 -0.69289,-4.65086 0,-5.34375 0.15209,-0.15208 2.41766,-0.55109 1.78125,-1.1875 -1.89717,-1.89717 -36.5337,0.40674 -40.4375,1.1875 -1.07038,0.21408 -2.46833,0 -3.5625,0 -15.94254,0 0.56133,-5.04746 -5.96875,-8.3125 -0.52436,-0.26218 -1.14129,-0.39295 -1.84375,-0.40625 z"
       id="path6808" />
    <path
       inkscape:connector-curvature="0"
       style="fill:#672035;fill-opacity:1;stroke:#ffffff;stroke-width:1px;stroke-linecap:butt;stroke-linejoin:miter;stroke-opacity:0"
       d="m 508.80068,256.56803 c -3.30169,2.53264 -5.73685,5.13815 -4.84375,6.03125 2.8437,2.8437 10.25435,2.69621 13.0625,8.3125 0.64184,1.2837 -8.98292,6.48583 -7.71875,7.75 3.74137,3.74137 11.28906,4.73437 7.71875,11.875 -2.25553,4.51105 -7.77026,4.83276 -11.28125,8.34375 -0.72098,0.72098 -2.95414,0.57914 -3.5625,1.1875 -0.80245,0.80246 11.6394,8.3125 2.96875,8.3125 -1.87715,0 -12.85788,5.19411 -15.15625,6.90625 11.14345,1.9692 25.03287,2.00759 35.96875,0.84375 12.13314,-14.35967 18.44063,-32.50132 26.78125,-49.125 4.1e-4,-1.64829 0.33288,-3.33346 0.8125,-5.03125 -3.42966,-1.3212 -6.79243,-2.80005 -10.09375,-4.3125 -11.52164,-0.8399 -23.08842,-1.02628 -34.65625,-1.09375 z"
       id="path6803" />
    <path
       style="fill:#483737;stroke:#ffffff;stroke-width:1px;stroke-linecap:butt;stroke-linejoin:miter;stroke-opacity:0"
       d="m 430.23818,221.44303 c -0.10466,-0.003 -0.24792,0.0347 -0.40625,0.0937 -1.00555,0.073 -2.02626,0.12911 -3,0.40625 -1.16112,0.11758 -2.3129,-0.33576 -3.46875,-0.21875 -0.0447,0.35284 -0.0985,0.74267 -0.15625,1.03125 -0.15752,0.7876 -0.0521,1.63851 0.0312,2.46875 1.0576,-0.0922 2.12485,-0.12833 3.1875,-0.0312 1.02991,0.08 2.07653,0.0647 3.09375,0.1875 0.98229,-0.2369 0.29739,-1.37294 0.6875,-2 0.28482,-0.50662 0.76386,-1.91415 0.0312,-1.9375 z m -14.3125,0.28125 c 0.33763,0.93903 0.0223,2.40127 -0.1875,3.32099 0.64322,0.32148 1.29212,-0.19198 1.9375,-0.0397 1.06644,0.40619 2.20978,0.51479 3.34375,0.4375 0.32481,-0.0222 0.64404,-0.0641 0.96875,-0.0937 10e-4,-0.20646 -0.002,-0.40171 0.0625,-0.59375 0.29294,-0.87844 0.27507,-1.8914 0.28125,-2.875 -1.28504,0.16155 -2.5893,0.16461 -3.875,0 -0.839,-0.0784 -1.68774,-0.15895 -2.53125,-0.15625 z"
       id="path5609"
       inkscape:connector-curvature="0"
       sodipodi:nodetypes="ccccccccccccccccccc" />
    <path
       style="fill:#b1b9b9;fill-opacity:1;stroke:#ffffff;stroke-width:1px;stroke-linecap:butt;stroke-linejoin:miter;stroke-opacity:0"
       d="m 379.6991,245.86953 c 3.75329,0.4233 7.46704,-0.82726 11.22884,-0.39894 4.1124,0.10648 8.1966,-0.43882 12.27163,-0.87206 2.51048,0.18983 0.2438,3.05289 0.9914,4.62745 -1.00414,1.54217 -3.71729,-0.19996 -5.37914,0.82879 -2.73898,0.24703 -5.71276,1.2295 -8.27626,-0.26092 -1.90277,-0.69883 -3.63952,1.48456 -5.45823,0.4142 -2.82796,-1.50896 -5.85593,0.27212 -8.74053,0.55522 -2.71512,0.50714 -2.0412,-2.71103 -2.09416,-4.34077 0.5466,-2.78083 3.84557,-0.60606 5.45645,-0.55297 z"
       id="path5955"
       inkscape:connector-curvature="0" />
    <path
       style="fill:#492631;fill-opacity:1;stroke:#ffffff;stroke-width:1px;stroke-linecap:butt;stroke-linejoin:miter;stroke-opacity:0"
       d="m 335.12755,256.38169 c 0.14016,0.56065 0.98114,1.54178 0.42049,1.68194 -0.56065,0.14016 -0.42049,-2.25985 -0.42049,-1.68194 0,1.08271 0.42049,2.23041 0.42049,3.36389 0,0.62978 -0.84886,2.51503 -0.42049,2.9434 0.63809,0.63809 3.18248,0.6019 3.78438,0 0.46891,-0.46891 0,-3.88854 0,-4.62535 0,-0.84097 0.84097,-2.52292 0,-2.52292 -0.64476,0 -3.12884,0.67709 -3.78438,0.84098 z"
       id="path6073"
       inkscape:connector-curvature="0" />
    <path
       style="fill:#492631;fill-opacity:1;stroke:#ffffff;stroke-width:1px;stroke-linecap:butt;stroke-linejoin:miter;stroke-opacity:0"
       d="m 355.31089,255.96121 c 0.14017,0.56065 0.98114,1.54178 0.42049,1.68194 -0.56065,0.14016 -0.42049,-2.25985 -0.42049,-1.68194 0,0.49578 -0.24013,6.06716 0,6.30729 0.25393,0.25393 2.12416,0 2.52292,0 0.2566,0 1.51811,0.16384 1.68195,0 0.60286,-0.60286 -0.42049,-1.67034 -0.42049,-2.52292 0,-1.29687 0.57181,-4.3227 0,-5.46632 -0.40373,-0.80746 -2.57858,-0.42048 -3.36389,-0.42048"
       id="path6075"
       inkscape:connector-curvature="0" />
    <path
       style="fill:#492631;fill-opacity:1;stroke:#ffffff;stroke-width:1px;stroke-linecap:butt;stroke-linejoin:miter;stroke-opacity:0"
       d="m 386.00639,262.68898 c 0.56065,-0.42048 1.26146,-1.8221 1.68195,-1.26146 0.42048,0.56065 -2.17749,1.75701 -1.68195,1.26146 1.28248,-1.28247 3.14463,-2.72413 4.20487,-3.78437 1.96339,-1.96339 2.4379,-2.14494 4.20486,-1.26146 0.28032,0.14016 0.84097,0.10707 0.84097,0.42048 0,0.17658 -2.34447,1.5035 -2.52292,1.68195 -0.68519,0.6852 -4.57614,4.22126 -4.62535,4.20486 -0.77533,-0.25844 -1.40162,-0.84097 -2.10243,-1.26146 z"
       id="path6092"
       inkscape:connector-curvature="0" />
    <path
       style="fill:#492631;fill-opacity:1;stroke:#ffffff;stroke-width:1px;stroke-linecap:butt;stroke-linejoin:miter;stroke-opacity:0"
       d="m 373.81229,255.9612 c 0,0.56065 0.56065,1.68195 0,1.68195 -0.56065,0 0,-2.2426 0,-1.68195 0,0.90471 -1.46272,6.52652 -0.84097,7.14827 0.68076,0.68077 3.20918,-0.68627 3.36389,-0.84097 0.55461,-0.55462 2.03486,0.48805 2.10243,0.42048 0.33053,-0.33053 0.82609,-7.58363 0.42048,-7.98924 -0.68191,-0.68191 -4.71168,1.1278 -5.04583,1.26146 z"
       id="path6118"
       inkscape:connector-curvature="0" />
    <path
       inkscape:connector-curvature="0"
       style="fill:#868e8e;fill-opacity:1;stroke:#ffffff;stroke-width:1px;stroke-linecap:butt;stroke-linejoin:miter;stroke-opacity:0"
       d="m 353.48818,234.56803 c -0.81111,0.0146 -1.5649,0.0384 -2.25,0.0312 -0.42332,3.57493 -0.747,6.84075 -2.65625,8.75 -0.36998,0.36998 -2.88469,3.02156 -2.53125,3.375 0.57,0.57 2.27773,-0.4375 2.9375,-0.4375 0.60227,0 3.42918,0.38332 3.8125,0 1.3925,-1.39251 -0.48121,-7.47508 0.40625,-9.25 0.0818,-0.16363 0.18743,-1.29174 0.28125,-2.46875 z"
       id="path6120" />
    <path
       style="fill:#281818;fill-opacity:1;stroke:#ffffff;stroke-width:1px;stroke-linecap:butt;stroke-linejoin:miter;stroke-opacity:0"
       d="m 414.15561,172.50258 c -0.0636,0.57883 0.64085,1.2817 1.78397,3.56795 0.62063,1.24126 1.65246,2.54444 2.67596,3.56794 1.40365,1.40365 1.68514,3.17178 2.67596,4.1626 0.3504,0.35041 1.38753,1.18932 0.89198,1.18932 -0.0694,0 0.29733,-0.46582 0.29733,-0.59466 0,-0.99631 -0.0848,-2.16608 -0.59465,-2.67596 -2.70121,-2.7012 -3.3256,-8.3362 -7.73055,-9.21719 z"
       id="path6398"
       inkscape:connector-curvature="0" />
    <path
       style="fill:#281818;fill-opacity:1;stroke:#ffffff;stroke-width:1px;stroke-linecap:butt;stroke-linejoin:miter;stroke-opacity:0"
       d="m 423.00919,170.182 c -0.56065,0.28033 -1.40163,1.40162 -1.68195,0.84097 -0.28032,-0.56064 2.30877,-0.84097 1.68195,-0.84097 -0.0671,0 -3.52049,1.52535 -4.20487,0.84097 -0.0782,-0.0782 0.66569,-1.33137 0.84098,-1.68194 0.53528,-1.07057 -0.13803,-2.66735 0.42048,-3.78438 0.8235,-1.647 -0.40083,-5.48598 0.84097,-6.72778 0.43018,-0.43017 1.59262,-0.75164 2.10244,-1.26146 1.34002,-1.34002 13.21382,-2.28118 11.35312,-0.42048 -1.51409,1.51409 -1.26145,10.04795 -1.26145,12.1941 0,0.26946 -8.30687,0.12705 -10.09167,0.84097 z"
       id="path6136"
       inkscape:connector-curvature="0" />
    <path
       style="fill:#878f90;fill-opacity:1;stroke:#ffffff;stroke-width:1px;stroke-linecap:butt;stroke-linejoin:miter;stroke-opacity:0"
       d="m 375.50288,219.77785 c 4.7956,-5.29251 9.22431,-9.67387 13.08246,-15.4611 4.83264,-7.24895 10.73593,-14.30387 16.65041,-20.21835 3.94753,-3.94753 7.72631,-8.91562 10.70383,-11.89314 0.64752,-0.64752 3.19688,-6.31765 4.1626,-5.35192 2.47266,2.47266 -5.52871,8.08413 -6.54123,10.10917 -1.70969,3.41938 -7.78786,6.65587 -9.51452,10.10918 -3.34785,6.6957 -8.92013,12.48808 -13.67712,17.24506 -5.62938,5.62939 -6.63126,13.81406 -14.86643,15.4611 z"
       id="path6187"
       inkscape:connector-curvature="0" />
    <path
       style="fill:#281818;fill-opacity:1;stroke:#ffffff;stroke-width:1px;stroke-linecap:butt;stroke-linejoin:miter;stroke-opacity:0"
       d="m 425.95259,168.92055 c -5.02681,-0.38884 4.21584,-0.42049 -3.36389,-0.42049 -2.70179,0 -7.59583,-0.39341 -9.2507,1.26146 -0.20982,0.20981 0,1.77319 0,2.10243 0,0.42049 -0.42049,1.26146 0,1.26146 1.06373,0 4.41349,-0.73504 5.46632,-1.26146 2.75591,-1.37795 7.28798,0.98136 10.09167,-0.42049 1.9062,-0.9531 5.24206,0.95311 7.14827,0 0.67969,-0.33984 3.36966,-0.006 3.78437,-0.42048 0.20981,-0.20981 0,-1.77319 0,-2.10243 0,-0.22918 0.9561,-1.14633 0.42049,-1.68195 -0.52321,-0.52321 -2.54602,0.22179 -2.94341,0.42049 -0.99683,0.49842 -3.01395,-0.42049 -4.20486,-0.42049 -2.5586,0 -4.6175,0.66964 -7.14826,1.68195 z"
       id="path6138"
       inkscape:connector-curvature="0" />
    <path
       style="fill:#281818;fill-opacity:1;stroke:#ffffff;stroke-width:0.69465488px;stroke-linecap:butt;stroke-linejoin:miter;stroke-opacity:0"
       d="m 422.5887,159.66985 c 0,-0.56065 -0.27054,-1.68195 0,-1.68195 0.27053,0 0,2.2426 0,1.68195 0,-1.29489 0.30697,-5.45548 0,-6.72778 -0.97826,-4.05457 0.2029,-22.97362 0.2029,-28.17258 0,-1.47468 -0.45283,-8.31226 0,-9.2507 1.79803,-3.72613 0.60871,16.49621 0.60871,17.23994 0,6.16029 1.01012,22.19204 -0.81161,26.91112 z"
       id="path6153"
       inkscape:connector-curvature="0" />
    <path
       style="fill:#868e8e;fill-opacity:1;stroke:#ffffff;stroke-width:1px;stroke-linecap:butt;stroke-linejoin:miter;stroke-opacity:0"
       d="m 422.45624,161.31987 c -0.93729,-2.79343 -1.91119,-4.9606 -3.22446,-7.64077 -1.45632,-2.97212 -3.81557,-5.31206 -4.83619,-8.2796 -0.59768,-1.73779 -4.65914,-6.42374 -4.5859,-6.97368 0.38654,-2.90261 5.65463,6.41331 6.25312,7.1957 2.0362,2.66183 6.9467,11.54377 6.39343,15.69835 z"
       id="path6168"
       inkscape:connector-curvature="0" />
    <path
       style="fill:#868e8e;fill-opacity:1;stroke:#ffffff;stroke-width:1px;stroke-linecap:butt;stroke-linejoin:miter;stroke-opacity:0"
       d="m 408.80369,140.39109 c 0.11226,2.1337 -1.57389,3.65519 -2.67596,4.75726 -0.22945,0.22945 0.81864,0.81863 0.89199,0.89198 0.11121,0.11121 0.37045,2.30551 0.89199,1.78397 0.85828,-0.85828 0.62835,-2.41233 1.48664,-3.27061 0.0797,-0.0797 2.51498,-1.94495 2.0813,-2.37863 -0.19822,-0.19822 -0.69377,-0.0991 -0.89198,-0.29733 -0.95512,-0.95511 0.13047,-1.00803 -1.78398,-1.48664 z"
       id="path6170"
       inkscape:connector-curvature="0" />
    <path
       style="fill:#281818;fill-opacity:1;stroke:#ffffff;stroke-width:1px;stroke-linecap:butt;stroke-linejoin:miter;stroke-opacity:0"
       d="m 418.61554,117.19945 c 2.11858,0.0121 4.24881,0.0535 6.34869,-0.26721 1.30044,0.0469 2.94148,-0.36446 4.01209,0.48876 0.28307,1.0919 -1.06242,1.71264 -1.95345,1.31032 -1.41044,-0.36604 -2.89987,-1.04862 -4.35329,-0.4665 -1.09839,-0.007 -2.75802,0.93341 -3.54344,0.0625 -0.58777,-1.6059 0.71407,-1.02624 -0.5106,-1.12786 z"
       id="path6172"
       inkscape:connector-curvature="0"
       sodipodi:nodetypes="cccccccc" />
    <path
       style="fill:#281818;fill-opacity:1;stroke:#ffffff;stroke-width:1px;stroke-linecap:butt;stroke-linejoin:miter;stroke-opacity:0"
       d="m 419.50753,125.82198 c 1.43104,0.35004 2.58029,-0.29733 3.86527,-0.29733 0.49555,0 0.99109,0 1.48664,0 2.06812,0 -0.16395,0.43071 0.89199,1.48664 0.0815,0.0815 0.59466,0.26097 0.59466,0.59466 0,0.11403 -2.44471,-0.29733 -2.67596,-0.29733 -0.61893,0 -3.06485,1.09776 -3.56795,0.59466 -0.51019,-0.5102 -0.32669,-1.41138 -0.59465,-2.0813 z"
       id="path6174"
       inkscape:connector-curvature="0" />
    <path
       style="fill:#281818;fill-opacity:1;stroke:#ffffff;stroke-width:1px;stroke-linecap:butt;stroke-linejoin:miter;stroke-opacity:0"
       d="m 417.72355,135.93116 c 2.14992,-0.28599 4.12602,-0.59466 6.24391,-0.59466 0.68991,0 3.82571,-0.93155 4.45993,-0.29733 0.42628,0.42629 -0.29733,1.18111 -0.29733,1.78397 0,0.40864 0.70597,1.18932 0.29733,1.18932 -0.28555,0 -1.37277,-0.68639 -1.78398,-0.89199 -1.79882,-0.89941 -6.56369,2.05883 -8.02787,0.59466 -0.47012,-0.47012 -0.54993,-1.21387 -0.89199,-1.78397 z"
       id="path6176"
       inkscape:connector-curvature="0" />
    <path
       style="fill:#281818;fill-opacity:1;stroke:#ffffff;stroke-width:1px;stroke-linecap:butt;stroke-linejoin:miter;stroke-opacity:0"
       d="m 423.21943,152.94207 c 1.01966,-0.30995 2.09725,-0.21024 3.15364,-0.21024 0.722,0 4.83559,-0.49992 4.83559,-0.42049 0,0.1605 0.0739,-1.18759 -0.42048,-1.68195 -0.17372,-0.17371 -3.5689,0.41787 -3.99462,0.63073 -0.31795,0.15898 -3.63143,0.57344 -3.78438,0.42049 -0.021,-0.021 -0.16118,-0.46954 -0.42048,-0.21024 -0.008,0.008 0.56748,1.31358 0.63073,1.4717 z"
       id="path6413"
       inkscape:connector-curvature="0" />
    <path
       style="fill:#281818;fill-opacity:1;stroke:#ffffff;stroke-width:1px;stroke-linecap:butt;stroke-linejoin:miter;stroke-opacity:0"
       d="m 424.27064,148.10648 c 0.79489,-0.46239 3.3561,0.63851 3.99462,0 0.0819,-0.0819 0,-0.71268 0,-0.84098 0,-0.1283 0.0819,-0.75905 0,-0.84097 -0.57359,-0.57359 -3.05112,0.21024 -4.20486,0.21024 -0.0944,0 -1.26146,0.31477 -1.26146,0.21025 0,-0.0465 0.82471,0.45272 1.4717,1.26146 z"
       id="path6415"
       inkscape:connector-curvature="0" />
    <path
       style="fill:#b1b9b9;fill-opacity:1;stroke:#ffffff;stroke-width:1px;stroke-linecap:butt;stroke-linejoin:miter;stroke-opacity:0"
       d="m 469.58193,256.06803 c -11.06397,-0.0365 -21.27084,0.52685 -32.6875,1.53125 -0.11526,0.42528 -0.24822,0.84839 -0.40625,1.25 -4.45584,8.87713 -5.45958,17.82006 -9.73854,26.77552 -2.69551,4.51756 -3.45175,10.38169 -6.29271,15.13073 -0.64957,1.57988 -2.36209,8.17069 -3.875,11.15625 9.22377,0.71019 17.00268,1.45741 22.125,2.1875 2.19438,-2.53221 4.49158,-4.98877 6.375,-7.5 3.88477,-5.17968 6.30643,-11.06751 9.5,-16.65625 4.55208,-7.96615 10.6253,-14.84423 15.46875,-22.59375 2.21864,-3.54982 3.96482,-7.37406 5.6875,-11.1875 -2.08615,-0.0464 -4.14533,-0.0871 -6.15625,-0.0937 z"
       id="path6541"
       inkscape:connector-curvature="0"
       sodipodi:nodetypes="cccccccsssccc" />
    <path
       style="fill:#b1b9b9;fill-opacity:1;stroke:#ffffff;stroke-width:1px;stroke-linecap:butt;stroke-linejoin:miter;stroke-opacity:0"
       d="m 431.99113,257.98279 c -0.48289,0.0472 -2.38935,0.28654 -2.87795,0.33524 -0.56579,-0.0178 -1.10039,-0.0191 -1.65625,-0.0312 -2.51729,7.41029 -7.09857,20.06193 -7.9375,22.15625 -2.29507,5.72941 -4.02972,12.15071 -6.5625,17.84375 -0.83987,1.88782 -1.25091,4.18596 -2.51128,6.70451 -0.90032,1.79907 -2.05356,4.33116 -2.58247,6.29549 1.33798,0.0925 2.54917,0.18761 3.84375,0.28125 0.63965,-1.2677 1.58646,-4.63415 1.96024,-5.78993 1.31612,-3.01068 4.60551,-10.59778 5.36077,-12.81806 0.66384,-3.12871 2.83486,-8.72135 4.20451,-11.3467 1.39792,-3.38191 4.19196,-13.16014 6.10799,-17.94861 0.46839,-1.36123 2.33999,-4.48352 2.65069,-5.68199 z"
       id="path6517"
       inkscape:connector-curvature="0"
       sodipodi:nodetypes="cccsssccccccc" />
    <path
       style="fill:#ffffff;stroke:#ffffff;stroke-width:1px;stroke-linecap:butt;stroke-linejoin:miter;stroke-opacity:0"
       d="m 494.07136,258.90461 c 0.96677,0.0565 3.5324,1.42996 6.30729,4.20486 0.21025,0.21024 -0.21024,1.05122 0,1.26146 0.31833,0.31832 0.537,-2.21894 1.68195,-3.36389 0.74229,-0.74229 6.72778,-1.37718 6.72778,0.42048 0,0.18691 -1.96035,-2.80132 -2.10243,-2.9434 -0.13957,-0.13957 -0.13957,-3.22432 0,-3.36389 0.63461,-0.63461 2.31655,-1.46782 1.68194,-2.10243 -0.56065,-0.56065 -2.80324,0.56065 -3.36389,0 -0.75831,-0.75831 -4.13579,-4.20486 -5.46632,-4.20486 -0.32359,0 -0.23098,1.07195 -0.42048,1.26146 -0.27567,0.27566 -1.0508,0.6303 -1.26146,0.84097 -2.59848,2.59848 -7.4968,-1.29182 -3.78438,7.98924 z"
       id="path6644"
       inkscape:connector-curvature="0" />
    <path
       style="fill:#ffffff;stroke:#ffffff;stroke-width:1px;stroke-linecap:butt;stroke-linejoin:miter;stroke-opacity:0"
       d="m 248.92787,271.93968 c 1.5395,-0.80948 4.10143,4.72878 4.20486,4.62535 0.21024,-0.21024 -0.21024,-1.05122 0,-1.26146 1.16155,-1.16155 2.27542,-2.10243 4.62535,-2.10243 0.0246,0 2.52292,-0.71717 2.52292,-0.42049 0,1.00192 -1.193,-3.43235 -0.84097,-3.78437 1.13612,-1.13613 2.10243,-2.60296 2.10243,-2.52292 0,2.32278 -7.92932,-3.8443 -7.98924,-3.78438 -0.56065,0.56065 -0.70081,1.54179 -1.26146,2.10243 -2.718,2.718 -4.96637,-0.86415 -3.36389,7.14827 z"
       id="path6670"
       inkscape:connector-curvature="0" />
    <path
       style="fill:#ffffff;fill-opacity:1;stroke:#ffffff;stroke-width:1.398332px;stroke-linecap:butt;stroke-linejoin:miter;stroke-opacity:0"
       d="m 542.91484,256.18786 c -0.66103,-0.31573 -2.34469,-0.19011 -1.98309,-0.94719 0.36161,-0.75707 2.64412,1.26292 1.98309,0.94719 -1.1568,-0.55253 -2.71872,-0.57088 -3.47039,-1.65758 -1.05246,-1.52152 0.51696,-2.76626 0.13991,-4.11721 -0.0749,-0.2682 -0.45829,-0.91623 -0.22458,-0.8046 0.61264,0.29261 0.11545,1.03307 -0.0466,1.3724 -0.79175,1.65763 -0.71632,3.91523 -2.16963,4.54244 -1.31608,0.56798 -4.67092,0.85591 -4.01279,-0.52198 0.20214,-0.42321 0.60197,0.61733 0.72033,1.0414 0.54716,1.9604 3.46979,1.67491 3.37713,4.40238 -0.02,0.58942 1.07054,2.52872 1.26312,3.21872 1.49468,-5.54842 6.09793,-3.77794 5.22853,-1.51276 -0.10628,0.27679 -0.14973,-0.5364 -0.22459,-0.80459 -0.64483,-2.31037 -2.34993,-1.45389 -0.58042,-5.15862 z"
       id="path6685"
       inkscape:connector-curvature="0"
       sodipodi:nodetypes="cssscsssscscssc" />
    <path
       style="fill:#ffffff;fill-opacity:1;stroke:#ffffff;stroke-width:1px;stroke-linecap:butt;stroke-linejoin:miter;stroke-opacity:0"
       d="m 423.00918,256.80218 c 0.56065,-0.42049 1.26146,-1.82211 1.68195,-1.26146 0.42048,0.56065 -2.38276,1.26146 -1.68195,1.26146 1.67597,0 2.82748,-2.407 3.36389,-2.94341 0.50536,-0.50536 -0.2942,-2.10243 0.42049,-2.10243 0.026,0 0.27718,3.49777 0.42048,3.78438 0.93738,1.87474 4.62535,1.14771 4.62535,1.26146 0,0.32359 -1.07195,0.23098 -1.26146,0.42048 -1.013,1.01301 -1.76183,2.18232 -2.9434,3.36389 -0.93697,0.93698 0.71686,4.20486 0.42049,4.20486 -0.14532,0 -2.90596,-2.50419 -3.78438,-2.9434 -2.03771,-1.01886 -3.28014,1.68195 -3.78438,1.68195 -0.18754,0 2.10244,-1.96025 2.10244,-4.20487 0,-0.85257 0.85913,-1.79184 0.42048,-2.52291 -0.36056,-0.60094 -1.41523,0.13744 -2.10243,0 -0.77748,-0.1555 -2.47482,-1.68195 -1.68194,-1.68195 1.38043,0 2.50267,1.16926 3.78437,1.68195 z"
       id="path6687"
       inkscape:connector-curvature="0" />
    <path
       style="fill:#ffffff;fill-opacity:1;stroke:#ffffff;stroke-width:1px;stroke-linecap:butt;stroke-linejoin:miter;stroke-opacity:0"
       d="m 355.31089,232.83446 c 1.69656,0.53391 2.96736,-1.28541 5.46632,-3.78437 0.19822,-0.19822 -0.28032,-0.84098 0,-0.84098 0.19896,0 -0.13196,2.39096 0.84098,3.36389 0.68959,0.6896 2.68767,1.42622 2.9434,1.68195 0.42049,0.42049 1.26146,0.42049 1.68195,0.84097 0.22853,0.22854 -2.94341,1.82243 -2.94341,4.20486 0,0.71187 -0.31148,2.32045 0,2.94341 0.0547,0.10947 0.74919,0.51227 0.42049,0.84097 -0.53415,0.53415 -5.60511,-5.74802 -6.72778,-4.62535 -3.99301,3.99302 0.20141,0.083 -1.68195,-4.62535 z"
       id="path6702"
       inkscape:connector-curvature="0" />
    <path
       style="fill:#aaaaab;fill-opacity:1;stroke:#ffffff;stroke-width:1px;stroke-linecap:butt;stroke-linejoin:miter;stroke-opacity:0"
       d="m 240.51814,196.25215 c 1.68195,-2.24259 2.80325,-8.40972 5.04584,-6.72778 2.24259,1.68195 -7.84908,6.72778 -5.04584,6.72778 3.01888,0 15.98508,-11.77361 23.54723,-11.77361 2.25593,0 6.86235,3.22932 10.09167,0 4.23293,-4.23293 -15.1375,-21.59846 -15.1375,-30.27501 0,-4.07295 -1.56652,0.11543 -3.36389,-1.68195 -8.02334,-8.02334 -18.6478,11.92002 -21.86529,15.13751 -2.31127,2.31127 -8.68087,3.49946 -11.77361,5.04583 -6.73783,3.36892 -13.83609,-12.15414 -15.13751,-13.45556 -1.88837,-1.88837 -25.71999,0.49082 -26.91112,1.68195 -4.4325,4.4325 -8.40972,5.62599 -8.40972,13.45556 0,2.30473 7.08257,4.69104 6.72778,5.04583 -2,2 -6.91432,-4.85929 -10.09167,-1.68194 -2.19446,2.19445 -7.42697,6.2364 -11.77362,8.40972 -5.71161,2.85581 -7.47974,26.91113 1.68195,26.91113 0.21203,0 35.61113,-23.69238 42.04862,-26.91113 16.47981,-8.2399 6.42947,30.454 40.36668,10.09167 z"
       id="path6732"
       inkscape:connector-curvature="0" />
    <path
       inkscape:connector-curvature="0"
       style="fill:#672035;fill-opacity:1;stroke:#ffffff;stroke-width:1px;stroke-linecap:butt;stroke-linejoin:miter;stroke-opacity:0"
       d="m 241.70693,267.34928 c -0.94934,0 -1.80812,0.37337 -2.46875,0.84375 0.1585,1.76819 0.31548,3.62871 0.84375,5.59375 0.97683,13.55003 6.9265,23.89925 17.21875,27.59375 1.30539,0.1412 3.51641,0.30876 6.09375,0.5 0.97576,-0.56726 2.09375,-1.20027 2.09375,-1.21875 0,-0.22305 -3.32445,-1.42556 -2.375,-2.375 2.49091,-2.49092 9.39903,-1.68028 11.90625,-4.1875 2.29666,-2.29663 -10.38487,-1.44737 -11.3125,-2.375 -2.46101,-2.46102 1.92632,-7.57367 1.78125,-7.71875 -1.09399,-1.09399 -4.08815,-0.0681 -4.75,0.59375 -1.52537,1.52536 -5.04667,-1.48417 -5.34375,-1.78125 -1.46842,-1.46842 -5.01142,1.55108 -6.5625,0 -1.63784,-1.63784 -2.80748,-6.8337 -4.15625,-9.53125 -0.57632,-1.15265 0.16523,-3.78048 0.375,-5.84375 -1.24476,-0.0566 -2.40167,-0.0937 -3.34375,-0.0937 z"
       id="path6798" />
    <path
       inkscape:connector-curvature="0"
       style="fill:#bcbfc2;fill-opacity:1;stroke:#ffffff;stroke-width:1px;stroke-linecap:butt;stroke-linejoin:miter;stroke-opacity:0"
       d="m 181.05068,295.88053 c -0.67104,0 -1.75366,1.78491 -2.375,2.40625 -0.49555,0.49556 -1.87945,0.0982 -2.375,0.59375 -5.24732,5.24732 -14.35085,10.27497 -13.6875,12.46875 l 4.40625,18.4375 c 9.45361,-5.94165 18.79446,-11.60277 25.5625,-8.21875 7.70471,3.85236 10.87747,12.52396 15.125,18.6875 5.20201,0.29842 10.3917,0.75007 15.59375,1.28125 8.19202,-3.87393 18.73928,-8.94776 20.59375,-9.875 0.80915,-0.40457 26.16276,11.0065 26.90625,11.75 0.21832,0.21832 0.44598,0.54148 0.6875,0.875 4.94895,-0.39056 9.88494,-0.8125 14.8125,-0.8125 3.7322,0 7.49468,-0.31185 11.25,-0.53125 2.93203,-1.61216 5.6297,-3.0961 6.875,-3.71875 1.90813,-0.95406 12.16734,-5.52015 13.46875,-4.21875 4.55726,4.55726 10.73034,6.80594 16.6875,9.4375 23.13492,0.89325 48.22265,0.5931 68.28125,-2.75 9.94994,-1.65833 20.45928,0.78315 30.3125,-1.1875 8.05536,-1.61107 20.17391,0.76121 27.96875,-1.1875 9.7816,-2.4454 20.2001,-3.98337 29.71875,-7.15625 1.50065,-0.50022 4.37667,-1.1875 5.9375,-1.1875 0.32411,0 1.64878,1.35123 2.40625,0.59375 1.40035,-1.40034 -3.25449,-9.92412 -4.78125,-10.6875 -1.52104,-0.76052 -9.01971,0.65049 -11.28125,1.78125 -2.37901,1.18951 -17.52139,0.59375 -20.8125,0.59375 -0.96523,0 -5.32656,0.54531 -5.96875,1.1875 -1.29904,1.29905 -2.96875,4.06904 -2.96875,5.9375 0,2.42552 1.30884,3.88523 1.6875,4.125 -0.52797,-0.25535 -8.74161,-0.99009 -9.40625,-1.15625 -9.20881,-2.3022 -29.09628,-3.5625 -39.25,-3.5625 -6.35988,0 0.65418,-10.06458 -2.375,-13.09375 -0.68439,-0.68436 -4.84571,-0.0478 -5.9375,-0.59375 -0.34228,-0.17114 -20.08335,0.45835 -20.21875,0.59375 -0.83411,0.83411 -2.01537,3.20287 -3,4.1875 -1.74592,1.74593 -4.73776,1.76901 -5.9375,2.96875 -0.0166,0.0166 -17.84056,-1.1875 -22.59375,-1.1875 -1.8415,0 -11.05992,0.84633 -11.3125,0.59375 -0.17315,-0.17315 -24.0697,-4.8774 -27.34375,-5.96875 -2.64701,-0.88234 -15.77635,-8.59866 -17.25,-7.125 -0.89199,0.89198 -2.67051,0.88926 -3.5625,1.78125 -2.44078,2.44078 -12.81642,12.04492 -16.65625,10.125 -5.14096,-2.57048 -11.70427,-5.03353 -14.84375,-11.3125 -0.73364,-1.46727 -8.75627,-7.30623 -8.9375,-7.125 -2.9107,2.9107 -7.31915,4.3504 -11.28125,8.3125 -1.09125,1.09125 -3.48022,1.07397 -4.78125,2.375 -1.40729,1.40729 -5.32878,-1.79622 -7.125,0 -1.17563,1.17563 -6.50575,0.90337 -8.3125,0 -2.75696,-1.37848 -7.31556,0.81097 -10.125,-0.59375 -3.96644,-1.98322 -21.09717,-17.84375 -23.78125,-17.84375 z"
       id="path6783" />
    <path
       inkscape:connector-curvature="0"
       style="fill:#a0a4a4;fill-opacity:1;stroke:#ffffff;stroke-width:1px;stroke-linecap:butt;stroke-linejoin:miter;stroke-opacity:0"
       d="m 432.26943,279.97428 c -0.094,0.0208 -0.19612,0.0711 -0.28125,0.15625 -0.82776,0.82776 -2.31977,0.88705 -3.53125,1.46875 -0.51603,1.33891 -1.07866,2.6916 -1.71875,4.03125 -2.69551,4.51756 -3.44029,10.37596 -6.28125,15.125 -0.64957,1.57988 -2.36209,8.17069 -3.875,11.15625 9.22377,0.71019 17.00268,1.45741 22.125,2.1875 2.19438,-2.53221 4.49158,-4.98877 6.375,-7.5 3.88477,-5.17968 6.30643,-11.06751 9.5,-16.65625 0.49,-0.85751 1.00943,-1.69651 1.53125,-2.53125 -0.11635,-0.0381 -0.24274,-0.0745 -0.34375,-0.125 -0.69864,-0.34932 -0.61441,-3.60408 -2.96875,-4.78125 -1.3483,-0.67415 -5.70696,1.52535 -6.84375,2.09375 -1.59392,0.79696 -4.53956,-0.27848 -6.21875,0.28125 -3.63818,1.21272 -6.05895,-5.21886 -7.46875,-4.90625 z"
       id="path6813" />
    <path
       inkscape:connector-curvature="0"
       style="fill:#a0a4a4;fill-opacity:1;stroke:#ffffff;stroke-width:1px;stroke-linecap:butt;stroke-linejoin:miter;stroke-opacity:0"
       d="m 423.01943,282.03678 c -0.78731,0.32523 -1.54975,0.68112 -2.3125,1.0625 -0.45704,0.22851 -1.3891,0.006 -2.125,-0.25 -1.86839,5.08197 -3.44078,10.52793 -5.625,15.4375 -0.83987,1.88782 -1.23963,4.2002 -2.5,6.71875 -0.90032,1.79907 -2.06484,4.31692 -2.59375,6.28125 1.33798,0.0925 2.54917,0.18761 3.84375,0.28125 0.63965,-1.2677 1.59497,-4.62547 1.96875,-5.78125 1.31612,-3.01068 4.58849,-10.59222 5.34375,-12.8125 0.63407,-2.98841 2.62755,-8.18612 4,-10.9375 z"
       id="path6818" />
    <path
       inkscape:connector-curvature="0"
       style="fill:#929797;fill-opacity:1;stroke:#ffffff;stroke-width:1px;stroke-linecap:butt;stroke-linejoin:miter;stroke-opacity:0"
       d="m 412.39443,299.78678 c -0.52583,1.56484 -0.99222,3.32984 -1.9375,5.21875 -0.90032,1.79907 -2.06484,4.31692 -2.59375,6.28125 1.33798,0.0925 2.54917,0.18761 3.84375,0.28125 0.63965,-1.2677 1.59497,-4.62547 1.96875,-5.78125 0.24557,-0.56174 0.70978,-1.68452 1.0625,-2.5 -0.86287,-1.08761 -1.63533,-2.36312 -2.34375,-3.5 z"
       id="path6823" />
    <path
       inkscape:connector-curvature="0"
       style="fill:#929797;fill-opacity:1;stroke:#ffffff;stroke-width:1px;stroke-linecap:butt;stroke-linejoin:miter;stroke-opacity:0"
       d="m 434.42568,300.44303 c -5.75686,0.20986 -12.61037,2.11037 -14.78125,4.28125 -0.21351,0.21351 -0.41136,0.40651 -0.625,0.53125 -0.73967,2.37766 -1.61123,5.02571 -2.4375,6.65625 9.22377,0.71019 17.00268,1.45741 22.125,2.1875 2.082,-2.40253 4.23661,-4.74737 6.0625,-7.125 -0.26259,-0.16402 -0.53669,-0.3492 -0.75,-0.5625 -0.98113,-0.98114 -0.67512,-3.20636 -1.65625,-4.1875 -1.40577,-1.40577 -4.48338,-1.90717 -7.9375,-1.78125 z"
       id="path6825" />
    <path
       inkscape:connector-curvature="0"
       style="fill:#bcbfc2;fill-opacity:1;stroke:#ffffff;stroke-width:1px;stroke-linecap:butt;stroke-linejoin:miter;stroke-opacity:0"
       d="m 133.11318,322.19303 c -1.81877,-9.1e-4 -6.06711,3.11168 -6.96875,3.5625 -2.30645,1.15323 -4.81856,2.12579 -7.4375,3 l 1.28125,30.59375 73.0625,-3.0625 c -2.90095,-7.95164 -5.25047,-16.81297 -9.71875,-21.28125 -0.64829,-0.64829 -6.34726,1.92363 -7.5625,2.53125 -2.91398,1.45699 -9.37457,0.8749 -12.625,1.6875 -4.14041,1.03511 -12.46443,7.20529 -16.8125,5.03125 -6.70568,-3.35284 -7.83568,-17.05443 -12.625,-21.84375 -0.14451,-0.14451 -0.33393,-0.21862 -0.59375,-0.21875 z"
       id="path6836" />
    <path
       inkscape:connector-curvature="0"
       style="fill:#bcbfc2;fill-opacity:1;stroke:#ffffff;stroke-width:1px;stroke-linecap:butt;stroke-linejoin:miter;stroke-opacity:0"
       d="m 603.14443,294.47428 c -0.80219,0.1343 -1.8999,1 -2.6875,1 -3.47891,0 -7.45663,1.83508 -10.9375,2.53125 -5.78193,1.15639 -11.94271,0.5448 -17.65625,1.6875 -3.61094,0.72219 -7.11676,0.84375 -10.9375,0.84375 -2.98796,0 5.98498,13.54747 8.40625,15.96875 0.39692,0.39691 4.90095,2.6928 4.21875,3.375 -1.91648,1.91648 -10.05716,0.40358 -12.625,1.6875 -10.47796,5.23898 -34.69329,9.47454 -42.03125,16.8125 -1.20744,1.20744 2.2833,2.76158 4.9375,4.125 l 20.65625,-0.875 c 14.5543,-1.93758 31.46133,-2.72325 38.90625,-2.53125 4.94941,0.12764 21.33542,0.71042 23.53125,-1.375 1.14744,-1.08973 6.42896,-0.0623 8.03125,-0.8125 4.40783,-2.06362 12.38559,-3.45787 15.6875,-6.59375 4.28731,-4.07174 7.61651,-8.67735 11.3125,-12.1875 0.60468,-0.57427 0.98587,-1.79009 1.28125,-3.25 -12.64703,-4.0051 -33.5837,6.63505 -37.75,2.46875 -1.99607,-1.99607 -0.84375,-12.1724 -0.84375,-15.125 0,-1.01014 1.69498,-5.05501 0.84375,-5.90625 l -1.65625,-1.6875 c -0.18173,-0.18173 -0.4201,-0.20102 -0.6875,-0.15625 z"
       id="path6841" />
    <path
       style="fill:#bcbfc2;fill-opacity:1;stroke:#ffffff;stroke-width:1px;stroke-linecap:butt;stroke-linejoin:miter;stroke-opacity:0"
       d="m 163.14867,227.36814 c 6.1561,-2.78099 15.81824,-7.64888 22.70626,-4.20486 1.78932,0.89466 2.15027,2.33659 4.20486,3.36389 0.3179,0.15894 44.70483,-1.68195 48.77641,-1.68195 5.24476,0 11.333,1.68195 17.66042,1.68195 1.05898,0 11.49519,-0.28411 10.93264,0.84097 -1.70717,3.41435 -15.93547,3.36389 -19.34236,3.36389 -3.63918,0 -13.17396,1.40034 -15.13751,3.36389 -0.59466,0.59466 -4.95269,0 -5.88681,0 -13.82389,0 -28.68695,5.07713 -41.20765,9.2507 -1.91116,0.63705 -4.94146,-0.89316 -6.72778,0 -0.95092,0.47545 -11.89569,2.40084 -12.61459,1.68194 -1.28191,-1.28191 -15.32235,-5.6681 -18.50139,-6.72778 -2.10008,-0.70002 -16.15782,-2.70226 -16.81945,-3.36389 -3.19026,-3.19025 29.82074,-7.56875 31.95695,-7.56875 z"
       id="path6890"
       inkscape:connector-curvature="0" />
    <path
       inkscape:connector-curvature="0"
       style="fill:#aaaaab;fill-opacity:1;stroke:#ffffff;stroke-width:1px;stroke-linecap:butt;stroke-linejoin:miter;stroke-opacity:0"
       d="m 281.17568,128.38053 -51.46875,2.15625 c 6.73901,1.28478 13.59841,2.1578 20.0625,4.3125 2.43504,0.81168 13.81971,1.22596 15.125,2.53125 1.12129,1.12129 3.09745,1.40995 4.21875,2.53125 1.26146,1.26145 -1.26146,6.30104 0,7.5625 1.1213,1.12129 3.90996,0.56621 5.03125,1.6875 4.22355,4.22355 8.22657,2.896 14.25,1.6875 0.0204,0.001 0.0355,-0.001 0.0625,0 1.12129,-0.28033 3.09467,-1.96505 3.375,-0.84375 0.0526,0.21024 -0.0806,0.37722 -0.3125,0.5 3.65713,-0.66466 6.92623,-2.1875 11.21875,-2.1875 0.5132,0 3.04733,0.32768 3.375,0 0.55388,-0.55388 3.37997,-1.66939 5.03125,-0.84375 3.31321,1.65661 14.21161,6.00713 16.84375,3.375 2.46412,-2.46412 -4.97173,-9.20461 -6.75,-10.09375 -13.45701,-6.72851 -25.77119,-0.29184 -35.3125,-5.0625 -3.45321,-1.7266 -4.47231,-4.36223 -4.75,-7.3125 z m 7.28125,22.46875 c 0.515,0.0242 2.14553,0.0273 2.9375,-0.3125 -0.94594,0.16609 -1.91548,0.3125 -2.9375,0.3125 z"
       id="path6935" />
    <path
       style="fill:#afafba;fill-opacity:1;stroke:#ffffff;stroke-width:1px;stroke-linecap:butt;stroke-linejoin:miter;stroke-opacity:0"
       d="m 500.37865,195.41118 c 5.45812,-2.19606 42.71227,-7.74609 45.41252,-5.04583 3.88861,3.88861 -10.23495,10.09167 7.56875,10.09167 2.8458,0 28.59307,-1.80379 28.59307,0 0,1.40162 -2.80324,0 -4.20486,0 -3.56223,0 -7.38272,1.09029 -10.93265,1.68194 -9.32846,1.55475 -18.73719,3.63308 -27.75209,5.88681 -2.59136,0.64784 -5.94335,0.85982 -8.40973,1.68194 -1.98251,0.66084 -4.35767,1.68195 -6.72778,1.68195 -1.67004,0 -5.93557,0.88974 -6.72778,1.68194 -4.4283,4.42831 0.67439,-4.71265 0.84098,-5.04583 0.79719,-1.59439 6.54331,-6.07128 5.04583,-7.56875 -1.87633,-1.87634 -10.88569,-0.19851 -13.45556,-0.84098 -3.45509,-0.86377 -5.9928,-2.25012 -9.2507,-4.20486 z"
       id="path6946"
       inkscape:connector-curvature="0" />
    <path
       style="fill:#bcbfc2;stroke:#ffffff;stroke-width:1px;stroke-linecap:butt;stroke-linejoin:miter;stroke-opacity:0;fill-opacity:1"
       d="m 525.08246,318.55498 c -0.79287,-0.39644 -2.77507,-0.39644 -2.37863,-1.18931 0.39644,-0.79288 3.00546,1.81614 2.37863,1.18931 -4.50492,-4.50492 -9.14468,-2.85001 -14.86643,-4.75726 -2.72798,-0.90932 -10.4202,-3.25692 -10.70383,-2.97328 -3.60046,3.60045 -10.38468,2.51638 -14.86644,4.75725 -1.29798,0.64899 -8.91986,2.9069 -8.91986,3.56795 0,0.12467 6.67435,-1.18932 7.13589,-1.18932 4.09301,0 7.77199,0.59466 11.89315,0.59466 7.22008,0 13.63312,-0.59466 20.813,-0.59466 4.44815,0 5.62671,2.14979 9.51452,0.59466 z"
       id="path7230"
       inkscape:connector-curvature="0" />
    <path
       style="fill:#bcbfc2;stroke:#ffffff;stroke-width:1px;stroke-linecap:butt;stroke-linejoin:miter;stroke-opacity:0;fill-opacity:1"
       d="m 458.48084,316.77101 c -3.4218,-0.39506 -14.24003,-7.13589 -25.57027,-7.13589 -0.56393,0 -3.20884,-0.35911 -3.56794,0 -1.37289,1.37288 -17.11827,4.1626 -20.21836,4.1626 -1.64441,0 -19.62369,2.97813 -19.62369,2.37863 0,-0.0182 4.59371,-0.54014 4.75726,-0.59466 3.03212,-1.0107 7.2827,-1.78397 10.70383,-1.78397 3.41703,0 25.63058,-1.16921 27.35424,-0.59466 3.66284,1.22095 22.80257,4.24042 26.16493,3.56795 z"
       id="path7232"
       inkscape:connector-curvature="0" />
    <path
       style="fill:#bcbfc2;fill-opacity:1;stroke:#ffffff;stroke-width:1px;stroke-linecap:butt;stroke-linejoin:miter;stroke-opacity:0"
       d="m 368.68757,312.01375 c -2.77164,-2.02963 -6.73873,-0.99074 -9.51451,-2.37863 -3.37505,-1.68753 -7.41025,-2.51581 -10.70384,-4.16261 -3.60447,-1.80223 -8.29343,2.09719 -11.29849,0.59466 -1.16869,-0.58434 -5.09304,-1.31875 -6.54123,-0.59466 -1.55726,0.77863 -4.14839,1.18932 -5.94657,1.18932 -3.96981,0 -8.45279,1.78397 -12.48781,1.78397 -1.40162,0 -4.1626,1.99628 -4.1626,0.59466 0,-0.0263 3.98185,0.0361 4.1626,0 3.43709,-0.68742 6.5548,-1.18932 10.10918,-1.18932 16.70219,0 31.21693,1.12934 46.38327,4.16261 z"
       id="path7234"
       inkscape:connector-curvature="0" />
    <path
       style="fill:#bcbfc2;stroke:#ffffff;stroke-width:1px;stroke-linecap:butt;stroke-linejoin:miter;stroke-opacity:0;fill-opacity:1"
       d="m 255.70267,303.09389 c 3.08108,1.00893 14.80007,-4.19578 23.19164,0 2.15086,1.07543 5.51295,-0.51414 7.73054,0.59466 1.37969,0.68984 5.49263,-1.04861 6.54124,0 1.63343,1.63343 -9.47963,0.97946 -10.10918,1.18931 -2.24078,0.74693 -21.29104,1.84229 -23.78629,0.59466 -1.27848,-0.63924 -2.34227,-1.64322 -3.56795,-2.37863 z"
       id="path7236"
       inkscape:connector-curvature="0" />
    <path
       style="fill:#bcbfc2;stroke:#000000;stroke-width:1px;stroke-linecap:butt;stroke-linejoin:miter;stroke-opacity:0;fill-opacity:1"
       d="m 514.37863,315.58169 c 4.85674,1.20097 15.76705,-8.17222 20.21835,-5.94657 2.10519,1.0526 5.15517,2.57758 7.13589,3.56794 1.40473,0.70237 2.18625,0.99694 2.97329,1.78398 0.28032,0.28032 1.18931,-0.39644 1.18931,0 0,0.51246 -6.20847,1.78397 -7.13589,1.78397 -4.7531,0 -17.85051,5.34112 -21.40766,1.78397 -1.0816,-1.0816 -0.47692,-1.10101 -2.97329,-2.97329 z"
       id="path7238"
       inkscape:connector-curvature="0" />
  </g>
</svg>
