<?xml version="1.0" encoding="UTF-8" standalone="no"?>
<!-- Created with Inkscape (http://www.inkscape.org/) -->

<svg
   xmlns:dc="http://purl.org/dc/elements/1.1/"
   xmlns:cc="http://creativecommons.org/ns#"
   xmlns:rdf="http://www.w3.org/1999/02/22-rdf-syntax-ns#"
   xmlns:svg="http://www.w3.org/2000/svg"
   xmlns="http://www.w3.org/2000/svg"
   xmlns:sodipodi="http://sodipodi.sourceforge.net/DTD/sodipodi-0.dtd"
   xmlns:inkscape="http://www.inkscape.org/namespaces/inkscape"
   width="744.09448819"
   height="1052.3622047"
   id="svg2"
   version="1.1"
   inkscape:version="0.48.1 r9760"
   sodipodi:docname="lazource.svg"
   inkscape:export-filename="/home/substack/media/vector/lazorse.png"
   inkscape:export-xdpi="76.972954"
   inkscape:export-ydpi="76.972954">
  <defs
     id="defs4" />
  <sodipodi:namedview
     id="base"
     pagecolor="#ffffff"
     bordercolor="#666666"
     borderopacity="1.0"
     inkscape:pageopacity="0.0"
     inkscape:pageshadow="2"
     inkscape:zoom="0.70710678"
     inkscape:cx="350.79631"
     inkscape:cy="780.66364"
     inkscape:document-units="px"
     inkscape:current-layer="layer1"
     showgrid="false"
     inkscape:window-width="1364"
     inkscape:window-height="766"
     inkscape:window-x="0"
     inkscape:window-y="0"
     inkscape:window-maximized="0" />
  <metadata
     id="metadata7">
    <rdf:RDF>
      <cc:Work
         rdf:about="">
        <dc:format>image/svg+xml</dc:format>
        <dc:type
           rdf:resource="http://purl.org/dc/dcmitype/StillImage" />
        <dc:title></dc:title>
      </cc:Work>
    </rdf:RDF>
  </metadata>
  <g
     inkscape:label="Layer 1"
     inkscape:groupmode="layer"
     id="layer1">
    <path
       sodipodi:nodetypes="csssssssssscsccc"
       inkscape:connector-curvature="0"
       id="path4489"
       d="m 164.79879,268.40614 c -1.80394,-7.61068 -4.52154,-15.61124 -5.19014,-23.35727 -0.18727,-2.16958 -1.97923,-4.66086 -1.85851,-6.82246 0.29943,-5.36098 -3.21833,-21.61594 -1.4559,-26.06013 1.41061,-3.55705 0.60741,-6.62779 2.99204,-9.46297 10.25763,-12.19572 16.14097,-2.20198 24.37143,4.72053 2.85752,2.40342 4.04134,7.36593 6.59562,10.22241 2.26571,2.53378 2.49473,7.06541 5.08269,9.2421 1.36002,1.14389 3.92739,10.30529 5.21867,10.81737 1.67308,0.6635 13.61904,21.43491 15.17444,25.0347 0.4724,1.09331 2.47691,3.34493 2.24387,3.93256 -0.18061,0.45542 -0.60139,1.51651 -0.782,1.97192 -0.49594,1.25057 -3.32626,1.8704 -4.19324,2.90118 -5.57218,6.625 -24.50761,16.0997 -31.39817,16.83463 -4.43179,1.22393 -11.03806,-0.20341 -13.79217,-1.66615 -0.91066,-6.43408 -3.20563,-13.20002 -3.00863,-18.30842 z"
       style="fill:#b0ba97;fill-opacity:1;stroke:#000000;stroke-width:1px;stroke-linecap:butt;stroke-linejoin:miter;stroke-opacity:1" />
    <path
       id="path4682"
       d="m 220.67763,428.30577 c -0.0437,-0.0498 -0.10058,-0.0891 -0.14226,-0.14072 -0.61068,-0.75485 -14.32414,4.21703 -16.27908,1.80048 -1.44483,-1.78598 -3.98682,-2.25185 -6.59376,-4.21572 -5.74581,11.04297 5.45522,16.665 15.22584,17.69672 0.92932,0.0982 2.70035,0.51821 3.8503,0.43795 0.12539,-0.0302 0.25797,-0.0205 0.38276,-0.0538 0.87238,-0.23281 1.7347,-0.54791 2.55201,-0.95605 0.81731,-0.40814 1.58487,-0.92224 2.3003,-1.54825 0.71543,-0.62602 1.3674,-1.36039 1.93414,-2.24682 0.2436,-0.38101 0.26777,-0.81957 0.13454,-1.27417 -0.13324,-0.4546 -0.42609,-0.92399 -0.79121,-1.43477 -0.73024,-1.02154 -1.78712,-2.14676 -2.57515,-3.2886 -0.39402,-0.57092 -0.72603,-1.15597 -0.91706,-1.73087 -0.19103,-0.57489 -0.22833,-1.14296 -0.0714,-1.70442 0.12977,-0.46429 0.5318,-0.89672 0.99004,-1.34095 z"
       style="fill:#6c5353;fill-opacity:1;stroke:#000000;stroke-width:1px;stroke-linecap:butt;stroke-linejoin:miter;stroke-opacity:1"
       inkscape:connector-curvature="0" />
    <path
       inkscape:connector-curvature="0"
       style="fill:#6c5353;fill-opacity:1;stroke:#000000;stroke-width:1px;stroke-linecap:butt;stroke-linejoin:miter;stroke-opacity:1"
       d="m 150.30594,424.74345 c -0.053,-0.0398 -0.11672,-0.0666 -0.1681,-0.10855 -0.7525,-0.61357 -13.15481,7.06506 -15.5638,5.10081 -1.7804,-1.45171 -4.3639,-1.38635 -7.31818,-2.77383 -3.35893,11.98662 8.75701,15.19198 18.53153,14.19796 0.9297,-0.0945 2.74923,-0.0466 3.85828,-0.361 0.11652,-0.0553 0.24827,-0.073 0.36359,-0.13116 0.80609,-0.40677 1.58546,-0.89203 2.30169,-1.45911 0.71623,-0.56708 1.36204,-1.22767 1.93388,-1.9871 0.57184,-0.75943 1.05934,-1.6119 1.43224,-2.59572 0.16028,-0.42287 0.094,-0.85707 -0.12963,-1.27468 -0.22364,-0.41761 -0.60653,-0.81697 -1.06864,-1.24201 -0.92422,-0.85006 -2.18941,-1.73461 -3.19486,-2.69057 -0.50273,-0.47798 -0.94767,-0.9825 -1.25254,-1.506 -0.30487,-0.5235 -0.45788,-1.07184 -0.41945,-1.65355 0.0318,-0.48103 0.3366,-0.98672 0.69399,-1.51549 z"
       id="path4680" />
    <path
       style="fill:#d35f5f;stroke:#000000;stroke-width:1px;stroke-linecap:butt;stroke-linejoin:miter;stroke-opacity:1"
       d="m 312.5,302.56066 c 0.5,-0.66666 0.83333,-2.5 1.5,-2 0.66667,0.5 -2.33333,2 -1.5,2 1.69015,0 2.44549,-1.94549 3,-2.5 1.15577,-1.15577 12.39455,-2.60545 14,-1 1.36012,1.36012 0.5318,3.0636 1.5,5 0.3326,0.66521 1.66746,0.66746 2,1 1.77561,1.77561 8.33981,-2.66019 10.5,-0.5 0.33333,0.33334 0.16667,1.16667 0.5,1.5 0.24242,0.24242 0.92936,0.64129 0.5,1.5 -0.39129,0.78258 -1.09984,1.59984 -1.5,2 -0.12974,0.12974 -12.97728,1.52272 -13.5,1 -1.54151,-1.54151 -2.81499,-2.81499 -4,-4 -1.43421,-1.4342 -4.68018,1.5 -5.5,1.5 -1.6764,0 -6.6627,1.3373 -6,2"
       id="path4385"
       inkscape:connector-curvature="0" />
    <path
       style="fill:#ccb3b3;fill-opacity:1;stroke:#000000;stroke-width:1px;stroke-linecap:round;stroke-linejoin:miter;stroke-opacity:1"
       d="m 268.5,242.31066 c -1.44305,-2.4706 -1.30839,-5.23357 -2,-8 -0.57843,-2.31371 -0.25,-5.06877 -0.25,-7.5 0,-0.5282 0.28998,-1.07996 0.5,-1.5 0.43426,-0.86853 0.30582,-2.11164 0.75,-3 1.52256,-3.04511 4.82582,-2.94945 7.75,-1 3.52615,2.35077 5.52965,13.16106 4.25,17 -0.5897,1.76911 -0.44742,5.22371 -1.5,5.75"
       id="path4303"
       inkscape:connector-curvature="0" />
    <path
       style="fill:#c3a9a9;fill-opacity:1;stroke:none"
       d="m 272.84071,220.85723 c 1.20518,-0.16836 2.05523,1.34812 3.53553,2.82842 0.24796,0.24796 0.41441,1.12151 0.70711,1.41422 0.493,0.493 0.30766,1.72187 0.70711,2.12132 0.1729,0.1729 0.17615,3.88722 0.35355,4.41942 0.8747,2.6241 0.58253,5.72923 -0.53033,7.95495 -0.65251,1.30501 -0.48649,2.6078 -1.41421,3.53553 -0.30102,0.30102 -2.12132,-4.03795 -2.12132,-4.94975 0,-0.70973 -1.22024,-4.03147 -1.59099,-4.77297 -0.14142,-0.28284 0.14142,-0.77782 0,-1.06066 -0.36106,-0.72212 -0.005,-1.77806 -0.35356,-2.47487 -1.12295,-2.2459 0.26709,-6.81551 0.70711,-9.01561 z"
       id="path4813"
       inkscape:connector-curvature="0" />
    <path
       style="fill:#ffffff;stroke:#000000;stroke-width:1px;stroke-linecap:butt;stroke-linejoin:miter;stroke-opacity:1"
       d="m 319.5,308.56066 c -0.95112,-0.33621 4.08129,-4.45935 6.5,-3.25 1.46249,0.73125 2.5997,3.1503 1.25,4.5 -0.66721,0.66722 -0.72711,1.97711 -1.25,2.5"
       id="path4258"
       inkscape:connector-curvature="0" />
    <path
       style="fill:#ffffff;stroke:#000000;stroke-width:1px;stroke-linecap:butt;stroke-linejoin:miter;stroke-opacity:1"
       d="m 331,313.06066 c -1.21369,-0.49075 4.55435,-4.94565 6.25,-3.25 1.6822,1.6822 1.51277,4.23723 0.25,5.5"
       id="path4260"
       inkscape:connector-curvature="0" />
    <path
       style="fill:#ffffff;stroke:#000000;stroke-width:1px;stroke-linecap:butt;stroke-linejoin:miter;stroke-opacity:1"
       d="m 325.43661,290.55178 c 0.0205,0.50741 -0.28336,6.44069 3.95821,5.56396 0.69182,-0.143 1.57067,-0.45837 1.85738,-0.89449 0.91349,-1.38953 0.94141,-3.54145 1.29253,-4.86229"
       id="path4157"
       inkscape:connector-curvature="0" />
    <path
       style="fill:#ffffff;stroke:#000000;stroke-width:1px;stroke-linecap:butt;stroke-linejoin:miter;stroke-opacity:1"
       d="m 346.45265,291.81957 c -1.19469,8.47535 8.89122,7.22503 7.25278,-0.47356"
       id="path4161"
       inkscape:connector-curvature="0"
       sodipodi:nodetypes="cc" />
    <path
       style="fill:#ffffff;stroke:#000000;stroke-width:1px;stroke-linecap:butt;stroke-linejoin:miter;stroke-opacity:1"
       d="m 336,291.06066 c -0.0833,0.33333 0.0833,1.08333 -0.25,1 -0.33333,-0.0833 0.49296,-1.24295 0.25,-1 -2.26439,2.2644 0.41882,6.5 3.25,6.5 0.15256,0 0.90259,0.0974 1,0 1.25922,-1.25922 1.79706,-1.34413 2.75,-3.25 0.25393,-0.50786 0.5,-3.37006 0.5,-2.5"
       id="path4174"
       inkscape:connector-curvature="0" />
    <path
       style="fill:#c3a9a9;fill-opacity:1;stroke:#000000;stroke-width:1px;stroke-linecap:butt;stroke-linejoin:miter;stroke-opacity:1"
       d="m 125.42856,383.34639 c -0.54379,3.24316 -1.53062,23.97956 2.14286,35 1.41322,4.23964 0.15663,8.88468 2.14286,12.85714 1.62561,3.25122 5.31918,4.44531 7.85714,5.71429 2.32399,1.16199 6.96158,1.16206 9.28571,0 9.81869,-4.90934 8.47696,-10.52535 12.85715,-19.28572 0.71737,-1.43474 -0.0419,-3.48762 0.71428,-5 0.66372,-1.32743 -0.47339,-3.57983 0,-5 1.08416,-3.25247 1.50363,-9.1356 0,-12.14286 -1.34785,-2.6957 1.5761,-7.70962 -0.71428,-10 -1.03003,-1.03003 -34.28572,-0.96108 -34.28572,-2.14285 0,-1.21405 2.38096,-0.47619 3.57143,-0.71429"
       id="path3160"
       inkscape:connector-curvature="0" />
    <path
       id="path4678"
       d="m 132.30594,431.74345 c -0.053,-0.0398 -0.11672,-0.0666 -0.1681,-0.10855 -0.7525,-0.61357 -13.15481,7.06506 -15.5638,5.10081 -1.7804,-1.45171 -4.3639,-1.38635 -7.31818,-2.77383 -3.35893,11.98662 8.75701,15.19198 18.53153,14.19796 0.9297,-0.0945 2.74923,-0.0466 3.85828,-0.361 0.11652,-0.0553 0.24827,-0.073 0.36359,-0.13116 0.80609,-0.40677 1.58546,-0.89203 2.30169,-1.45911 0.71623,-0.56708 1.36204,-1.22767 1.93388,-1.9871 0.57184,-0.75943 1.05934,-1.6119 1.43224,-2.59572 0.16028,-0.42287 0.094,-0.85707 -0.12963,-1.27468 -0.22364,-0.41761 -0.60653,-0.81697 -1.06864,-1.24201 -0.92422,-0.85006 -2.18941,-1.73461 -3.19486,-2.69057 -0.50273,-0.47798 -0.94767,-0.9825 -1.25254,-1.506 -0.30487,-0.5235 -0.45788,-1.07184 -0.41945,-1.65355 0.0318,-0.48103 0.3366,-0.98672 0.69399,-1.51549 z"
       style="fill:#6c5353;fill-opacity:1;stroke:#000000;stroke-width:1px;stroke-linecap:butt;stroke-linejoin:miter;stroke-opacity:1"
       inkscape:connector-curvature="0" />
    <path
       style="fill:#c3a9a9;fill-opacity:1;stroke:#000000;stroke-width:1px;stroke-linecap:butt;stroke-linejoin:miter;stroke-opacity:1"
       d="m 202.96333,388.63614 c -1.08747,4.51971 -0.96111,9.22387 -1.48053,14.20879 -0.75355,7.23183 -1.01289,15.27585 0.54693,22.31973 3.71675,16.78422 16.98045,18.52707 25.27971,5.50672 3.11338,-4.88446 4.24649,-11.55695 6.82374,-17.2428 1.30185,-2.87209 0.71707,-7.06801 2.45725,-9.79809 0.50132,-0.78649 2.96864,-17.18464 2.56112,-17.68696 -0.78896,-0.9725 -3.69468,0.12411 -4.33667,0.26627 -2.86694,0.63487 -6.36876,-1.59721 -9.23571,-0.96234 -2.05816,0.45576 -5.34098,-0.72108 -7.17842,-0.0298 -5.00803,1.88403 -9.88382,1.84148 -15.43742,3.41851 z"
       id="path3175"
       inkscape:connector-curvature="0" />
    <path
       style="fill:#6c5353;fill-opacity:1;stroke:#000000;stroke-width:1px;stroke-linecap:butt;stroke-linejoin:miter;stroke-opacity:1"
       d="m 210.65625,433.69848 c -0.0487,-0.045 -0.10937,-0.0781 -0.15625,-0.125 -0.68656,-0.68656 -13.8021,5.6979 -16,3.5 -1.62439,-1.62439 -4.20125,-1.82075 -7,-3.5 -4.55441,11.58528 7.17506,16 17,16 0.93449,0 2.73983,0.23179 3.875,0.0312 0.12152,-0.0432 0.25438,-0.0475 0.375,-0.0937 0.8431,-0.32313 1.66757,-0.72704 2.4375,-1.21875 0.76993,-0.49171 1.47926,-1.08357 2.125,-1.78125 0.64574,-0.69768 1.21698,-1.49645 1.6875,-2.4375 0.20224,-0.40448 0.18024,-0.84316 0,-1.28125 -0.18024,-0.43809 -0.52076,-0.87414 -0.9375,-1.34375 -0.83347,-0.93921 -2.00268,-1.94722 -2.90625,-3 -0.45179,-0.52639 -0.84341,-1.07334 -1.09375,-1.625 -0.25034,-0.55166 -0.34709,-1.11266 -0.25,-1.6875 0.0803,-0.47535 0.4347,-0.9476 0.84375,-1.4375 z"
       id="path4665"
       inkscape:connector-curvature="0" />
    <path
       style="fill:#ccb3b3;fill-opacity:1;stroke:#000000;stroke-width:1px;stroke-linecap:butt;stroke-linejoin:miter;stroke-opacity:1"
       d="m 287.21875,236.79223 c -14.31875,0.38784 -30.85907,7.20282 -38.75,15.09375 -1.77044,1.77045 -2.93693,6.37442 -5.4375,8.875 -4.49066,4.49066 -8.41645,8.9238 -12.59375,12.9375 -12.33378,-3.87422 -29.26561,-4.625 -41.4375,-4.625 -4.56954,0 -13.30484,-0.93187 -20.1875,-0.875 -3.12848,0.0258 -5.85149,0.27341 -7.65625,0.875 -9.01042,3.00347 -19.34341,-0.90634 -28.59375,1.40625 -12.97546,3.24386 -26.69391,4.00942 -39.28125,7.15625 -13.12847,3.28212 -20.28774,14.2083 -23.9375,19.84375 -4.0143,6.19833 -7.26627,17.68879 -7.0625,22.78125 0.10369,2.59126 -0.17925,11.75657 -0.28125,19.15625 -0.0831,6.02676 0.93369,17.75453 2.34375,23.28125 2.3243,5.12149 9.03477,17.45933 18.9375,25.625 5.53569,2.83675 11.27386,5.08875 17.0625,6.875 0.27781,0.87348 0.62516,1.77307 0.71875,2.59375 -1.20228,6.19435 1.96304,12.55612 0.6875,18.59375 -0.44914,2.12596 1.15416,3.93126 1.34375,5.59375 0.16632,1.45849 -0.008,8.39903 1.0625,9.25 2.42229,1.92638 3.36189,7.81537 6.1875,10.0625 1.87132,1.4882 5.69118,1.98056 7.5625,3.46875 1.35164,1.07492 4.79006,1.06182 6.46875,-0.0312 2.70995,-1.76463 6.01181,-0.24008 8.28125,-3.09375 5.9324,-7.45958 5.63345,-17.89401 7.65625,-27.46875 0.4541,-2.14942 -0.8565,-5.0988 -0.0937,-7.1875 0.13247,-0.36279 0.17916,-2.6781 0.1875,-5.4375 14.09746,0.56769 26.04919,-0.294 32.875,-0.34375 2.37421,-0.0173 5.59059,-0.0889 9.15625,-0.1875 -1.80664,13.40094 -0.99553,32.26299 5.28125,40 1.3059,1.6097 4.39861,2.4195 6.09375,3.5 1.99745,1.27318 4.87673,1.58405 7.09375,0.75 3.36941,-1.26758 6.06569,-1.02864 8.1875,-2.75 2.43743,-1.97741 3.36963,-7.44275 4.65625,-10.28125 1.9682,-4.34219 8.47489,-25.83058 7.59375,-33.625 12.63788,-1.30549 15.86061,-1.07138 22.65625,-3.84375 9.43666,-5.78976 18.33809,-13.08242 21.4375,-19.28125 1.74855,-3.49709 4.64688,-6.48125 6.40625,-10 4.56801,-9.136 7.44631,-20.18269 10.71875,-30 0.0675,-0.20238 0.13126,-0.4141 0.1875,-0.625 9.11457,1.62807 19.00417,-0.4375 27.78125,-0.4375 4.88391,0 14.7605,-1.43233 18.25,-3.53125 2.50942,-1.50941 7.38711,-4.51211 10.96875,-8.09375 1.52711,-1.52711 2.67744,-4.97443 2.5625,-7 -0.55291,-2.73113 -5.06882,-1.17504 -7.59375,-2.4375 -7.04732,-3.52366 -12.42551,-4.58171 -16.625,-8.78125 2.2576,-1.55294 0.61791,-3.50159 3.21875,-3.65625 0.91406,-0.91407 -0.81525,-5.49726 0.53125,-6.84375 0.47619,-0.47619 0.24256,-1.68006 0.71875,-2.15625 1.54616,-1.54615 22.75797,3.4743 33.1875,0.0937 0.14701,-0.43136 0.3011,-0.85219 0.5,-1.25 1.33205,-2.66406 2.24172,-7.04781 2.40625,-10.71875 0.39389,-3.71174 -0.85791,-7.48291 -3.09375,-9.71875 -1.25836,-1.25837 -1.86827,-3.93079 -3.40625,-5.46875 l -9.5625,-9.5625 c -2.26996,-2.26997 -6.33044,-3.58043 -8.875,-6.125 -4.86283,-4.86282 -14.58692,-3.88721 -20.4375,-6.8125 -3.32436,-1.66219 -7.67861,-1.12055 -10.9375,-2.75 -4.27611,-2.13806 -9.52201,-2.96426 -15.125,-2.8125 z"
       id="path3089"
       inkscape:connector-curvature="0"
       sodipodi:nodetypes="csscssssssssccccsscsscssccscsssssccssscssscsccsscccsssssssc" />
    <path
       style="fill:#d8c3c3;fill-opacity:1;stroke:none"
       d="m 288.21875,237.29223 c -1.78984,0.0485 -3.59946,0.19862 -5.4375,0.4375 -1.83804,0.23888 -3.71874,0.56038 -5.5625,0.96875 -3.68752,0.81674 -7.3256,1.9432 -10.78125,3.3125 -3.45565,1.3693 -6.7097,2.99537 -9.59375,4.75 -1.44202,0.87731 -2.79582,1.77646 -4.03125,2.71875 -1.23543,0.94229 -2.35738,1.91988 -3.34375,2.90625 -0.88522,0.88522 -1.612,2.47138 -2.4375,4.15625 -0.41275,0.84244 -0.85509,1.72032 -1.34375,2.53125 -0.48866,0.81093 -1.03111,1.56235 -1.65625,2.1875 -4.49066,4.49066 -8.41645,8.9238 -12.59375,12.9375 -3.08344,-0.96855 -6.45677,-1.72855 -9.96875,-2.34375 -3.51198,-0.6152 -7.16442,-1.07026 -10.8125,-1.40625 -3.64808,-0.33599 -7.2895,-0.55658 -10.78125,-0.6875 -3.49175,-0.13092 -6.83203,-0.1875 -9.875,-0.1875 -2.28477,0 -5.6034,-0.24289 -9.21875,-0.46875 -3.61535,-0.22586 -7.52742,-0.43468 -10.96875,-0.40625 -1.56424,0.0129 -3.01509,0.0784 -4.3125,0.21875 -1.29741,0.14032 -2.44137,0.35546 -3.34375,0.65625 -1.1263,0.37543 -2.27456,0.62745 -3.4375,0.8125 -1.16294,0.18505 -2.34108,0.29777 -3.53125,0.34375 -2.38034,0.0919 -4.81708,-0.031 -7.25,-0.1875 -2.43292,-0.15647 -4.87092,-0.34934 -7.28125,-0.34375 -2.41033,0.006 -4.78117,0.2031 -7.09375,0.78125 -3.24386,0.81097 -6.53629,1.45414 -9.84375,2.03125 -3.30746,0.57711 -6.62502,1.09864 -9.9375,1.59375 -3.31248,0.49511 -6.61606,0.96627 -9.875,1.53125 -3.25894,0.56498 -6.47816,1.21329 -9.625,2 -1.64106,0.41027 -3.19692,0.93862 -4.65625,1.5625 -1.45933,0.62388 -2.80655,1.33803 -4.09375,2.125 -1.2872,0.78697 -2.50032,1.66297 -3.625,2.5625 -1.12468,0.89953 -2.18448,1.81969 -3.15625,2.78125 -1.94355,1.92312 -3.57919,3.91315 -4.96875,5.78125 -1.38956,1.8681 -2.52506,3.62239 -3.4375,5.03125 -1.00358,1.54958 -1.9463,3.44031 -2.8125,5.46875 -0.77431,1.81326 -1.48864,3.73732 -2.09375,5.65625 -0.0718,0.22772 -0.15036,0.46028 -0.21875,0.6875 -0.01,0.0323 -0.0216,0.0615 -0.0312,0.0937 -0.0869,0.27318 -0.16798,0.53997 -0.25,0.8125 -0.64465,2.14198 -1.16106,4.23479 -1.5,6.125 -0.33894,1.89021 -0.48844,3.57064 -0.4375,4.84375 0.10369,2.59126 -0.17925,11.75657 -0.28125,19.15625 -0.0416,3.01338 0.20493,7.46762 0.625,11.84375 0.42007,4.37613 1.01372,8.67414 1.71875,11.4375 0.58107,1.28037 1.45181,3.02678 2.5625,5.03125 1.11069,2.00447 2.4595,4.25232 4.0625,6.625 0.98206,1.4536 2.21945,2.95341 3.375,4.4375 0.40744,-0.3429 0.81691,-0.59816 1.21875,-1 0.63255,-0.63255 -2.70973,-13.88822 -3.53125,-15.53125 -0.75399,-1.50798 -0.0384,-5.00722 -1.40625,-6.375 -1.43059,-1.43059 -0.81563,-5.75313 -2.125,-7.0625 -1.43873,-1.43872 -1.10407,-8.41686 0,-10.625 1.47669,-2.95337 -0.0905,-7.60025 1.40625,-10.59375 4.89107,-9.78215 7.70038,-15.45039 16.28125,-24.03125 2.1763,-2.1763 5.88279,-2.26953 8.46875,-3.5625 4.4986,-2.2493 12.48928,-5.39553 15.5625,-8.46875 1.99527,-1.99528 19.60062,-5.98628 23.125,-9.03125 5.76441,0.0241 12.67031,0.78985 14.9375,-0.34375 4.25301,-2.1265 13.13414,-0.5 18,-0.5 l 37.5,0 c 2.42986,0 19.00327,0.99837 20,0.5 1.32791,-0.66395 3.22718,0.13641 4.5,-0.5 4.24,-2.12 21.98979,-6.48979 24,-8.5 4.23655,-4.23655 5.33736,-10.83736 9.5,-15 1.41003,-1.41003 3.04141,-3.54141 4,-4.5 1.95283,-1.95282 4.89193,-2.39193 6.5,-4 0.86276,-0.86276 3.28412,-0.28412 4,-1 1.87127,-1.87127 5.05322,-0.77661 7.5,-2 7.87492,-3.93746 19.50208,-1.57339 27,-6.15625 -0.88792,-0.19336 -1.8056,-0.30563 -2.71875,-0.4375 -0.95573,-0.13802 -1.89406,-0.29566 -2.8125,-0.5 -0.91844,-0.20433 -1.81028,-0.46764 -2.625,-0.875 -1.06903,-0.53451 -2.19432,-0.99925 -3.375,-1.375 -1.18068,-0.37575 -2.41432,-0.64758 -3.6875,-0.875 -2.54636,-0.45484 -5.26101,-0.63838 -8.0625,-0.5625 z"
       id="path4763"
       inkscape:connector-curvature="0" />
    <path
       style="fill:#ffffff;fill-opacity:1;stroke:#000000;stroke-width:1;stroke-linecap:butt;stroke-linejoin:miter;stroke-miterlimit:4;stroke-opacity:1;stroke-dasharray:none"
       d="m 327.1214,243.44187 c -3.97212,-0.87238 -8.92731,3.80084 -10.21381,7.66036 -0.32133,0.96398 0.19177,1.42648 0.42557,2.12788 1.49743,4.49229 2.80043,6.46596 7.66036,8.08594 19.94717,6.64905 17.97308,-21.04322 2.12788,-17.87418 z"
       id="path3318"
       inkscape:connector-curvature="0" />
    <path
       style="fill:#ffffff;stroke:#000000;stroke-width:1px;stroke-linecap:butt;stroke-linejoin:miter;stroke-opacity:1"
       d="m 303.51953,244.22582 c -5.12511,-0.22315 -7.36301,3.42136 -10.12513,6.02141 -1.64997,1.55315 -2.44482,4.27861 -1.77831,6.49967 0.72947,2.43087 0.21705,3.49291 2.53186,5.95201 1.62373,1.72494 15.30506,4.45711 17.78836,2.11952 1.38979,-1.30824 5.57796,-1.83706 6.43086,-3.42131 5.2741,-9.7966 -4.62076,-18.13691 -14.84764,-17.1713 z"
       id="path3290"
       inkscape:connector-curvature="0" />
    <path
       style="fill:#6c5353;stroke:#000000;stroke-width:1px;stroke-linecap:butt;stroke-linejoin:miter;stroke-opacity:1"
       d="m 302.90381,244.52513 c -5.07175,-1.43118 -9.2848,9.7152 -7,12 0.56141,0.56141 6.94296,5.55704 9,3.5 0.98213,-0.98213 3.6149,-2.1149 5,-3.5 1.23528,-1.23527 0.30926,-3.11851 1,-4.5 2.51205,-5.0241 -4.01662,-5.90665 -8,-7.5 z"
       id="path4101"
       inkscape:connector-curvature="0" />
    <path
       style="fill:#6c5353;stroke:#000000;stroke-width:1px;stroke-linecap:butt;stroke-linejoin:miter;stroke-opacity:1"
       d="m 327.87868,244.08579 c -1.33464,-0.13704 -2.68685,-1.81314 -6,1.5 -4.48609,4.4861 0.74749,13.12626 7,10 0.30189,-0.15094 1.26887,0.23113 1.5,0 0.5,-0.5 1.5,-0.5 2,-1 4.84952,-4.84951 2.18186,-11.83637 -4.5,-10.5 z"
       id="path4116"
       inkscape:connector-curvature="0" />
    <path
       style="fill:#ccb3b3;fill-opacity:1;stroke:#000000;stroke-width:1px;stroke-linecap:round;stroke-linejoin:miter;stroke-opacity:1"
       d="m 311.5,312.06066 c 7.60159,-7.60159 11.03469,-7.89368 10.75,-20.25 -0.24436,-0.75814 -0.25,-1.29749 -0.25,-2 0,-1.90233 0.18833,-4.12334 -0.5,-5.5 -0.93125,-1.86249 -2.75,-3.56372 -2.75,-5"
       id="path4131"
       inkscape:connector-curvature="0"
       sodipodi:nodetypes="cc" />
    <path
       style="fill:#000000;stroke:#000000;stroke-width:1px;stroke-linecap:butt;stroke-linejoin:miter;stroke-opacity:1"
       d="m 303.4467,245.1967 c -0.47378,-0.0443 -1.43033,0.18033 -2.75,1.5 -2.70769,2.70769 2.78686,8.96315 5.25,6.5 0.23879,-0.23879 1.21441,-0.21441 1.5,-0.5 2.49386,-2.49385 0.34057,-9.23622 -4,-7.5 z"
       id="path4176"
       inkscape:connector-curvature="0" />
    <path
       style="fill:#000000;stroke:#000000;stroke-width:1px;stroke-linecap:butt;stroke-linejoin:miter;stroke-opacity:1"
       d="m 326.96447,244.31802 c 0.0253,-0.4674 -2.69021,-0.36957 -3.5,1.25 -0.30957,0.61914 -1.88836,3.61164 -1,4.5 0.34346,0.34346 0.81735,1.40868 1.5,1.75 1.08149,0.54075 4.00109,0.99892 5,0 2.58523,-2.58522 3.39212,-8.57842 -2,-7.5 z"
       id="path4178"
       inkscape:connector-curvature="0" />
    <path
       style="fill:#6c5353;stroke:#000000;stroke-width:1px;stroke-linecap:round;stroke-linejoin:round;stroke-opacity:1"
       d="m 296.19638,232.84217 c -4.21521,-0.022 -8.41224,0.722 -12.6298,0.37718 -5.44212,0.0595 -11.25249,1.16013 -15.47636,4.81047 -1.37903,1.07282 -4.01693,0.77767 -4.53486,2.69265 1.07249,1.06302 3.2807,-0.30695 4.59275,-0.88088 3.43557,-1.40699 5.09569,-3.42903 6.40133,-2.9543 -2.51239,1.15475 -5.53283,3.71291 -8.30405,4.11864 -0.98304,0.0507 -4.27314,1.69256 -1.48338,1.51356 7.95953,0.0238 -2.45723,-0.3615 -3.07276,2.84526 0.41938,2.00959 3.00759,1.95214 4.54738,1.36158 1.87623,-0.72444 3.85698,-0.87945 5.82937,-1.11227 3.30327,-0.40988 6.71705,-0.89286 10.00972,-0.26249 2.73858,1.08398 5.51399,2.08378 8.34987,2.88386 2.25053,-0.95196 -0.83778,-2.9564 -2.06496,-3.34928 -2.21563,-0.69791 -4.70976,-0.53644 -6.81573,-1.61302 1.45606,-0.25772 4.86829,0.28345 7.06808,0.40746 3.18386,0.3662 6.37747,0.57158 9.5109,1.24842 2.45297,0.48523 1.06652,-1.9516 -0.50685,-1.9636 -2.67208,-0.79214 -5.59348,-0.15671 -8.19065,-1.29965 -4.61397,-1.12045 -9.36798,-0.1236 -14.02854,0.0667 -1.15189,0.23471 -4.92752,0.5661 -2.14428,-0.53858 2.40668,-1.28926 5.13991,-2.47334 7.92281,-1.82002 4.60307,0.53424 9.1847,1.31849 13.81017,1.59674 2.52508,0.43644 4.68596,2.10677 7.24506,2.35601 -2.69587,-1.9011 -5.14847,-4.67746 -8.66426,-4.87689 -6.19616,-1.07435 -12.4963,-0.2259 -18.67329,0.55015 4.26405,-1.98543 8.95734,-3.93265 13.75204,-2.94546 4.3573,0.51618 9.10359,0.99363 12.56123,3.98585 1.24674,0.79949 3.47351,2.96848 4.36968,2.50697 -1.61659,-2.69241 -4.56816,-4.10276 -6.65146,-6.36351 -0.90052,-0.83139 -3.4523,-0.98971 -3.67742,-1.38934 3.70665,-0.0705 7.5845,-0.20886 11.01659,1.43142 2.78795,0.84292 4.52773,3.33319 6.62359,5.17505 0.51153,1.26097 3.2208,4.83684 3.52164,1.73149 -1.42974,-2.94363 -3.82649,-5.35585 -6.42541,-7.27953 -4.20475,-2.28121 -9.07984,-2.85287 -13.78815,-3.0106 z"
       id="path4469"
       inkscape:connector-curvature="0"
       sodipodi:nodetypes="cccccccccccccccccccccccccccccccccccc" />
    <path
       style="fill:#d8c3c3;fill-opacity:1;stroke:#000000;stroke-width:1px;stroke-linecap:round;stroke-linejoin:miter;stroke-opacity:1"
       d="m 254.25,250.06066 c -3.41864,-2.31955 -9.40985,-13.52045 -6.75,-21.5 0.54865,-1.64593 0.90506,-3.45253 2.5,-4.25 3.17169,-1.58584 4.8726,2.6226 6.75,4.5 0.90448,0.90448 1.34552,2.34552 2.25,3.25 4.52037,4.52037 6.5,9.55655 6.5,16"
       id="path4301"
       inkscape:connector-curvature="0" />
    <path
       style="fill:none;stroke:#000000;stroke-width:1px;stroke-linecap:butt;stroke-linejoin:miter;stroke-opacity:1"
       d="m 342.5,285.56066 c -0.33333,0.0833 -0.91667,0.58334 -1,0.25 -0.0833,-0.33333 1.24296,-0.49295 1,-0.25 -0.96621,0.96621 -1.24995,0.2499 -1.75,1.25 -2.99505,5.9901 7.65215,-0.0696 1.75,-1.25 z"
       id="path4318"
       inkscape:connector-curvature="0" />
    <path
       style="fill:none;stroke:#000000;stroke-width:1px;stroke-linecap:butt;stroke-linejoin:miter;stroke-opacity:1"
       d="m 351.5,285.56066 c -0.33333,0 -1,0.33333 -1,0 0,-0.33333 1.2357,-0.2357 1,0 -1.38679,1.38679 -0.86176,-0.27648 -1.5,1 -1.04333,2.08666 0.72285,4.02715 2.25,2.5 0.32194,-0.32194 0.0675,-0.88495 0.25,-1.25 0.59265,-1.1853 0.23105,-1.51137 -1,-2.25 z"
       id="path4320"
       inkscape:connector-curvature="0" />
    <path
       style="fill:#6c5353;fill-opacity:1;stroke:#000000;stroke-width:1px;stroke-linecap:round;stroke-linejoin:round;stroke-opacity:1"
       d="m 242.5,257.47973 c -3.19707,0.34704 -5.11741,5.57096 -8.59375,2.90625 -3.29518,1.32213 -6.63929,0.66615 -9.6875,-0.1875 -1.8481,0.30199 -4.91956,5.17456 -5.1875,1.21875 -1.96445,-2.76041 -4.78408,1.3913 -7.5625,0.90625 -1.82221,-0.33941 -4.48714,3.2191 -4.59375,2.125 -1.45026,-3.65388 -6.62983,-1.38676 -8.25,0.71875 -2.24105,0.0162 -2.0662,-0.92568 -3.75,0.5 -1.09758,0.5828 -2.33342,0.94687 -2.9375,-0.625 -1.82846,-1.29075 -3.41292,0.0926 -4.84375,0.71875 -0.17673,0.50036 -0.37289,1.00136 -0.5625,1.5 -1.31154,-1.34221 -3.84742,-2.00475 -5.8125,-1.03125 -0.85684,-0.39441 -1.27441,-1.40616 -2.21875,-1.65625 -5.17051,4.2251 -4.82957,13.11002 -8.375,18.53125 0.13513,2.50678 -1.04499,8.01967 0.71875,8.75 0.62666,-5.25221 2.5531,-10.26859 4.5625,-15.125 0.87645,-1.43518 1.98917,-5.09475 3.40625,-4.8125 -0.40991,2.96553 -1.90829,5.73054 -1.90625,8.8125 -0.90844,7.34458 -0.1443,14.74218 0.625,22.0625 1.84583,2.86458 1.57283,-3.32709 1.3125,-4.5625 -0.23717,-4.70323 -1.77389,-9.92478 1.1875,-14.125 0.17894,-0.3909 0.32809,-0.80667 0.5,-1.21875 -0.76651,2.84257 -1.20256,5.75157 -1.0625,8.78125 3.69647,0.36804 3.01439,-5.51736 4.25,-7.96875 0.21721,-1.24308 1.69562,-4.1452 0.96875,-1.1875 -1.16426,7.68337 -1.23852,15.47972 -1.75,23.21875 -0.45292,1.74704 0.65369,5.52649 1.3125,1.78125 1.01063,-5.90172 0.87917,-11.95456 2.15625,-17.8125 0.63536,0.70415 -1.04762,7.13022 1.25,6.84375 0.95259,-2.08856 1.10793,-6.83715 2.5,-7.28125 0.87468,6.00007 -1.14112,12.10718 0.15625,18.0625 1.97086,2.68713 2.05537,-3.18318 1.84375,-4.59375 -0.56132,-4.38988 0.12407,-8.75665 0.125,-13.15625 0.15033,-3.47672 0.41955,-6.97231 1,-10.40625 1.4266,-2.13255 1.65847,-4.25889 2.75,-4.4375 -1.12283,6.18918 -1.82445,8.84596 -2.34375,15.125 -0.0988,2.68114 2.39476,1.99217 1.9375,-0.28125 0.97994,-3.4182 0.86924,2.67499 0.71875,3.6875 -0.2019,1.41348 -1.28246,2.93571 -0.15625,5.40625 2.00363,-3.07105 2.60039,-10.5095 2.375,-13.5625 1.74069,-2.0469 4.02666,-7.50468 4.09375,-6.625 -0.98109,6.50286 -2.09331,13.09737 -1.3125,19.6875 -0.0625,1.41714 -0.0628,7.35005 0.6875,3.28125 0.80509,-4.28686 0.56121,-8.85146 2.46875,-12.875 -0.38829,4.99429 -1.42959,10.31219 0.625,15.09375 -0.32248,2.10403 2.40101,3.86566 1.84375,0.75 0.37514,-6.34729 0.10529,-12.77195 1.40625,-19.03125 1.30674,-1.59954 1.69956,-8.07255 4.25,-3.8125 0.45719,3.26789 -1.7907,6.27466 -1.84375,9.59375 -0.68234,3.91528 -0.0581,7.86866 0.65625,11.71875 0.31611,3.68579 -0.17756,7.38477 -0.375,11.0625 3.51538,-3.28247 0.88154,-8.74029 3.625,-12.4375 2.29179,-4.53134 0.013,-9.7767 1.84375,-14.40625 1.45475,-3.72197 1.25303,-4.88694 1.59375,-8.96875 1.39071,0.75588 0.93225,1.3073 0.96875,2.5 -1.0952,4.65724 -1.51034,9.59683 -0.5625,14.28125 2.64264,-0.46752 0.99856,-5.18009 1.5,-7.46875 0.006,-2.81101 0.0593,-5.66271 0.875,-8.375 2.1125,-0.52235 1.71981,1.91365 1.8125,5.21875 1.00084,5.94113 0.67636,15.17922 1.21875,21.625 0.22787,2.95128 3.2762,7.15344 2.46875,3.71875 0.37898,-5.27771 -0.4374,-10.5642 -0.25,-15.84375 0.91804,4.07907 1.45289,8.34692 3.5,12.0625 1.93452,-3.72214 -0.82645,-7.83989 -0.40625,-11.78125 -0.7051,-5.64243 -1.16868,-11.51189 0.53125,-17.03125 2.2148,-3.1098 0.13387,3.18036 0.78125,4.375 0.65998,3.97567 1.42188,7.9291 1.8125,11.9375 1.02734,4.82346 3.05102,9.37915 4,14.21875 1.5987,2.82631 3.44421,0.24651 1.84375,-1.71875 -1.31454,-5.17406 -3.97765,-10.06546 -4.34375,-15.4375 -0.046,-6.75889 1.87581,-13.32031 3.75,-19.75 0.99177,3.25211 -0.31328,6.86485 0.96875,10.15625 0.905,2.67704 -1.20638,7.59694 2.40625,8.96875 -0.70337,-5.65609 -0.76408,-11.37149 -0.53125,-17.0625 1.34261,-3.78037 3.23142,-7.47607 3.375,-11.5625 -1.49469,-0.74028 0.52735,-3.55733 -0.6875,-3.6875 -0.22521,-0.024 -0.44311,-0.0231 -0.65625,0 z m -63.53125,7.21875 c 1.00177,0.87105 0.98996,0.43003 0,0 z"
       id="path4702"
       inkscape:connector-curvature="0"
       sodipodi:nodetypes="scccccccccccccccccccccccccccccccccccccccccccccccccccccccccccccccccccccccccccscc" />
    <path
       style="fill:#c3a9a9;fill-opacity:1;stroke:none"
       d="m 319.11336,308.24934 c -0.20914,-0.0424 -0.40299,0.0168 -0.59375,0.25 -5.24975,5.08973 -11.99557,10.16954 -19.90625,8.96875 -6.80959,-0.21525 -15.78586,-2.16364 -19.90625,4.90625 -5.3532,6.23985 -7.46203,14.23123 -9.34375,21.96875 -3.45271,6.7851 -5.43534,14.77927 -12.34375,18.96875 -3.7502,3.35695 -8.68117,4.84375 -11.78125,8.96875 -7.34712,7.10991 -17.61771,9.06821 -26.90625,12.28125 -4.96166,0.14188 -9.14407,2.5198 -14.25,2.25 -13.352,4.01206 -27.74318,5.75798 -41.53125,3.0625 -6.74357,1.42839 -13.1457,-1.39968 -19.90625,-1.28125 -4.13211,-0.9295 -8.50622,0.46674 -12.71875,-0.78125 -7.98507,-0.0752 -15.47531,-2.84606 -23.0625,-5.03125 -0.86753,1.4e-4 -1.70085,-0.11721 -2.53125,-0.21875 0.10663,0.52511 0.20158,1.18731 0.3125,1.65625 0.40413,1.7086 0.84225,2.9985 1.34375,3.5 1.25121,1.25121 2.37397,2.54257 3.40625,3.90625 1.03228,1.36368 1.98128,2.79061 2.8125,4.28125 0.83122,1.49064 1.53947,3.0554 2.1875,4.6875 0.64803,1.6321 1.23606,3.33695 1.71875,5.125 0.48269,1.78805 0.88353,3.63526 1.21875,5.59375 0.33522,1.95849 0.57563,4.01283 0.78125,6.15625 0.41124,4.28684 0.59375,8.94897 0.59375,14.0625 0,1.88558 -0.41876,4.96352 -0.625,7.96875 -0.0822,1.1978 -0.085,2.33678 -0.0625,3.4375 2.60371,1.64129 5.54287,1.47516 8.1875,-0.125 3.63635,0.0358 6.72961,-1.50375 7.71875,-5.125 3.49817,-7.84597 4.18022,-16.92701 5.09375,-25.3125 -0.8659,-4.04876 0.64791,-8.07239 0.0937,-12.1875 15.43783,0.71332 30.87537,-0.34894 46.3125,-0.53125 -0.079,0.74152 -0.14152,1.53009 -0.21875,2.28125 0.52629,-0.28519 0.95551,-0.65151 1.5,-0.90625 1.32876,-0.62165 2.60456,-1.19832 3.40625,-2 0.32637,-0.32637 1.28132,-0.92107 2.375,-1.3125 0.54684,-0.19572 1.11856,-0.33822 1.6875,-0.375 0.56894,-0.0368 1.11586,0.0111 1.59375,0.25 0.88626,0.44313 1.65104,1.20612 2.28125,2.15625 0.63021,0.95013 1.1341,2.09325 1.53125,3.3125 0.39715,1.21925 0.68792,2.53077 0.875,3.78125 0.18708,1.25048 0.28125,2.45618 0.28125,3.5 0,1.28379 -0.4661,3.31365 -1.125,5.75 -0.6589,2.43635 -1.51075,5.27112 -2.25,8.15625 -0.73925,2.88513 -1.38394,5.80736 -1.625,8.4375 -0.12053,1.31507 -0.14375,2.56814 -0.0312,3.6875 0.1125,1.11936 0.36341,2.10181 0.78125,2.9375 0.60822,1.21644 1.28111,3.06425 1.9375,4.78125 1.72786,0.20539 3.47527,0.13945 5.1875,-0.8125 4.96852,0.14814 7.25614,-4.15221 8.03125,-8.46875 4.19982,-11.87704 8.91445,-24.39233 8.25,-37.28125 10.53065,-1.28838 22.2339,-0.50948 30.5625,-8.28125 7.3387,-4.77534 12.82953,-11.34611 16.96875,-18.8125 7.8976,-10.92833 10.15467,-24.62748 14.625,-37.15625 12.18624,2.08206 24.66148,-0.2515 36.90625,-0.84375 8.31064,-0.78298 16.38854,-5.61838 21.25,-12.1875 0.85899,-1.73012 1.55144,-4.41701 -1.5,-3.59375 -6.28942,-0.72476 -11.9682,-4.39433 -17.59375,-7.03125 -0.67,-0.18583 -1.37258,-1.24782 -2,-1.375 z"
       id="path4731"
       inkscape:connector-curvature="0" />
    <path
       style="fill:#ccb3b3;fill-opacity:1;stroke:none"
       d="m 264.93842,248.37434 c -0.02,-1.45439 -0.11018,-2.8667 -0.34375,-4.1875 -0.25622,-1.44889 -0.65752,-2.81024 -1.1875,-4.125 -0.52998,-1.31476 -1.17873,-2.57275 -2,-3.78125 -0.82127,-1.2085 -1.80741,-2.36991 -2.9375,-3.5 -0.90448,-0.90448 -1.34552,-2.34553 -2.25,-3.25 -0.9387,-0.93871 -1.81864,-2.47395 -2.875,-3.5625 -0.52818,-0.54428 -1.11519,-0.98664 -1.75,-1.1875 -0.13108,-0.0415 -0.30055,0.0828 -0.4375,0.0625 -1.02358,5.70986 0.26622,12.12617 2.625,16.84375 0.71977,1.43953 2.59828,3.12953 3.53125,4.0625 0.26019,0.26019 0.89114,0.39114 1.21875,0.71875 1.18513,1.18513 4.03921,2.58774 6.40625,1.90625 z"
       id="path4785"
       inkscape:connector-curvature="0" />
    <path
       style="fill:none;stroke:#000000;stroke-width:1px;stroke-linecap:round;stroke-linejoin:round;stroke-opacity:1"
       d="m 256.94858,247.87373 c -2.1671,-2.0554 -6.54074,-9.75798 -6.54074,-15.55635 0,-0.6687 -0.34914,-1.24185 0.17677,-1.76776 0.47141,-0.47141 -0.11785,-2.00347 0.35356,-2.47488 0.49109,-0.49109 2.33665,1.62955 2.65165,1.94455 1.74468,1.74468 3.47219,3.58562 4.77297,6.18718 0.36288,0.72576 0.17332,1.76085 0.53033,2.47487 0.25587,0.51174 0.53033,1.35376 0.53033,1.94455 0,1.66228 1.06066,3.45291 1.06066,5.12652 0,0.73326 0.15749,2.10204 0,1.94454"
       id="path4811"
       inkscape:connector-curvature="0" />
    <path
       style="fill:#6c5353;fill-opacity:1;stroke:#000000;stroke-width:1px;stroke-linecap:round;stroke-linejoin:round;stroke-opacity:1"
       d="m 78.28125,283.41723 c -1.22901,0.0318 -2.41757,0.18583 -3.59375,0.46875 -6.93335,1.6679 -12.78234,7.35962 -16.65625,13.21875 -1.05064,0.89669 -2.01168,1.83777 -2.875,2.8125 -0.92259,0.28919 -4.40113,5.55197 -4.90257,6.5533 -0.86515,1.72762 -2.28302,7.19252 -4.91177,14.56802 -0.0488,1.45334 -0.18688,4.57778 -0.21875,6 -0.12804,5.71348 2.49528,17.9287 4.3125,21.15625 0.23044,0.40928 1.38224,-1.801 0.47671,-3.06158 -0.0633,-1.53098 -0.0691,-2.35161 -0.63572,-3.58671 -0.62158,-1.35494 -1.2012,-4.93728 -1.40349,-6.41421 -0.49517,-3.61526 0.50843,-14.23041 3.06158,-19.53585 -1.73871,6.47778 -2.96824,9.0491 -1.40349,16.78953 0.51258,2.53563 0.97987,9.52291 2.6875,10.65625 0.90695,0.60194 1.56524,9.29078 2.65625,10.6875 1.56353,2.00169 6.17309,18.14257 7.1875,17.9375 1.90909,-0.38593 -1.3198,-9.21061 -1.65625,-10.875 -0.78068,-3.86175 -3.19544,-11.22744 -5.25,-18.78125 -0.62743,-5.40404 -1.13544,-12.46237 -0.8125,-13.65625 0.29332,-1.08431 -0.50944,-5.63744 0.1875,-6.6875 0.85633,-1.29027 0.50247,-3.31257 0.5,-5.09375 0.4387,1.47538 0.93896,2.95739 1.46875,4.40625 0.11504,1.10409 0.21801,2.28297 0.34375,3.53125 0,0.80812 -0.0415,1.57442 -0.25,2.34375 -1.06003,3.91872 2.52984,13.87091 1.53125,17.5625 -0.67413,2.49207 4.97424,12.11795 5.5,14.71875 0.0208,0.10296 0.2296,0.55444 0.28125,0.71875 0.63889,2.03239 3.2969,7.96481 3.875,7.09375 1.03695,-1.5624 -2.75092,-9.12988 -3.3125,-11.40625 0.28917,0.22719 -0.46361,-3.41713 -0.18566,-3.20159 -0.8341,-2.26183 -1.41616,-4.57039 -1.65809,-5.76716 -0.0284,-0.14058 -0.208,-0.54799 -0.28125,-0.75 -0.5764,-1.58951 -2.19043,-4.64078 -1.6875,-6.5 0.81313,-3.00597 -1.33076,-7.96016 -0.78125,-10.8125 0.57162,0.96207 1.12462,1.70939 1.5625,2 0.39472,0.26197 0.51935,0.96846 0.65625,1.71875 0.14726,0.80702 0.27228,1.65096 0.59375,2.0625 0.89839,1.15014 3.39814,13.03787 3.91637,12.25704 1.22638,-1.84783 0.68973,-5.47158 -0.43046,-8.45526 -1.68038,-4.47582 -1.85717,-9.66566 -3.92341,-15.20803 -0.68647,-1.84134 -1.49772,-3.57828 -2.0625,-5.5 -0.0328,-0.81283 -0.0794,-1.58527 -0.0937,-2.375 0.95781,-2.76871 2.44803,-5.87237 3.125,-8.375 0.48235,-1.78316 1.32062,-3.2406 2.375,-4.53125 0.71322,-0.19534 1.26264,-0.57308 1.84375,-0.90625 0.30441,-0.17453 0.72046,-0.23658 0.96875,-0.46875 0.31034,-0.29018 0.11996,-0.67975 -0.1875,-1.0625 -0.0257,-0.032 -0.035,-0.0615 -0.0625,-0.0937 0.0638,-0.052 0.12139,-0.10471 0.1875,-0.15625 0.34196,-0.62442 0.64418,-1.38809 1,-1.9375 0.91244,-1.40886 2.04794,-3.16315 3.4375,-5.03125 0.72722,-0.97765 1.71982,-2.01214 2.59375,-3.03125 -2.74926,-0.43744 -6.24454,0.74886 -7.4375,2.4375 -1.10844,0.54097 -2.20773,1.13361 -3.28125,1.75 1.33473,-1.08653 3.11385,-2.07149 3.9375,-3.3125 0.59029,-0.88942 3.60175,-0.97657 4.21875,-1.90625 0.12546,-0.18904 0.27704,-0.28753 0.5,-0.34375 0.10148,-0.0256 0.22672,-0.0578 0.34375,-0.0625 0.65304,-0.0266 1.58685,0.28706 2.46875,0.5625 0.57115,-0.63455 0.99241,-1.24906 1.625,-1.875 0.97177,-0.96156 2.03157,-1.88172 3.15625,-2.78125 0.0966,-0.0773 0.21469,-0.14212 0.3125,-0.21875 -0.56109,-0.0886 -1.13715,-0.22266 -1.6875,-0.25 -0.41647,-0.0207 -0.84033,-0.0106 -1.25,0 z m -10.42678,11.35539 c -0.73726,0.80568 -1.53043,2.49829 -2.11427,3.32139 -1.47233,1.18333 -2.9507,0.59452 -3.19363,0.55085 0.6909,-0.84627 4.32673,-3.16733 5.3079,-3.87224 z"
       id="path4965"
       inkscape:connector-curvature="0"
       sodipodi:nodetypes="ccccscssccscssssccccccccscssccscscsccsssccscsccccsscccsscccssccsccccc" />
    <path
       style="fill:#614a4a;fill-opacity:1;stroke:none"
       d="m 236.1875,267.04223 c -1.00161,2.38316 -3.75555,3.53286 -6.09375,3 -0.47179,3.30709 -4.81783,7.01964 -7.28125,3.125 -1.32474,-1.91538 -4.74915,-0.57281 -6.46875,0.125 -3.97293,3.53011 -9.62207,3.25235 -13.46875,-0.28125 -2.59888,-0.89619 -5.96727,1.10426 -5.28125,4.25 -0.32538,2.01002 -2.1005,9.75248 -1,8.46875 1.09079,-3.11178 2.83269,-7.10034 5.53125,-9.34375 4.47199,-0.43695 1.3793,5.67638 2,7.1875 2.03199,-1.39868 4.16025,-1.68894 4.8125,-4.375 3.47729,-3.39166 7.28506,2.56732 5.40625,5.875 -0.7157,4.08055 1.5358,-1.10723 1.40625,-2.5 0.80396,-2.90626 -1.09244,-10.25978 3.71875,-6 1.99971,0.52045 5.32093,0.68003 5.15625,3.90625 0.055,3.85324 0.24935,5.9268 0.6875,9.4375 1.21186,-2.86889 0.20064,-3.14976 0.34375,-5.78125 2.3852,-3.07005 0.48428,-10.06187 5.875,-9.9375 2.7363,0.84765 -0.0781,6.66863 1.53125,5.8125 0.79878,-4.30041 2.78614,-9.10278 3.125,-12.96875 z m 3.28125,2.6875 c 2.90505,-3.81264 -2.16013,-4.44566 0,0 z M 193.5,273.69848 c -1.84222,2.38844 -4.7908,4.99297 -6.625,6.71875 0.0443,2.6883 -1.52136,6.70065 1.3125,7.875 4.37814,-1.60723 1.40103,-7.7539 3.78125,-10.84375 -0.0352,-0.75092 3.02617,-4.68438 1.53125,-3.75 z m -11.46875,1.71875 c -1.09517,-0.10333 -3.70168,2.90473 -3.125,5.53125 1.26066,-1.59992 3.43884,-0.0306 4.09375,-0.6875 -1.62311,-2.35031 3.38868,-5.18552 -1.40625,-5.4375 l 0.4375,0.59375 z"
       id="path5105"
       inkscape:connector-curvature="0" />
    <path
       style="fill:#a67a7a;fill-opacity:1;stroke:#000000;stroke-width:1px;stroke-linecap:butt;stroke-linejoin:miter;stroke-opacity:1"
       d="m 179.52038,262.07668 c -1.68154,-0.61328 -20.70775,2.12132 -31.1127,2.12132 -1.52136,0 -5.62264,-0.69 -7.07106,-1.41421 -1.0805,-0.54025 -14.83609,2.12132 -17.67767,2.12132 -0.78543,0 -4.44975,-0.5 -4.94975,0 -1.06066,1.06066 -3.18198,1.06066 -4.24264,2.12132 -2.39026,2.39026 -3.25205,11.59719 -0.70711,14.14213 2.49544,2.49544 4.65672,6.77804 7.07107,9.19239 1.96303,1.96304 1.98286,5.5184 4.24264,7.77818 3.90646,3.90646 6.5371,10.77974 10.6066,14.84924 1.19916,1.19916 1.62927,4.4577 2.82843,5.65685 3.9727,3.97271 6.96949,9.09082 11.31371,13.43503 1.66688,1.66688 5.42072,3.2994 7.07106,4.94975 0.41456,0.41456 12.75394,1.41421 14.14214,1.41421 2.12735,0 8.69746,1.90914 10.6066,0 1.48944,-1.48944 5.0996,-2.27117 6.36396,-3.53553 9.12333,-9.12332 12.26799,-7.56542 19.09189,-21.2132 2.4092,-4.81841 2.33573,-11.03543 4.94974,-16.26346 1.95112,-3.90222 0.84936,-24.18388 3.53554,-26.87006 1.99325,-1.99325 2.70391,-6.23945 4.24264,-7.77817 2.29213,-2.29214 6.00726,-5.30645 2.82843,-8.48528 -0.82496,-0.82496 -3.41769,0.11785 -4.24265,-0.70711 -5.02404,-5.02405 -31.65005,7.03712 -38.89087,8.48528 z"
       id="path4507"
       inkscape:connector-curvature="0" />
    <path
       style="fill:none;stroke:#000000;stroke-width:1px;stroke-linecap:butt;stroke-linejoin:miter;stroke-opacity:1"
       d="m 67.84375,294.76098 c -0.98117,0.70491 -4.6216,3.02873 -5.3125,3.875 0.12147,0.0218 0.57225,0.18276 1.15625,0.1875 0.584,0.005 1.32634,-0.12708 2.0625,-0.71875 0.58384,-0.8231 1.35649,-2.53807 2.09375,-3.34375 z"
       id="path5211"
       inkscape:connector-curvature="0" />
    <path
       style="fill:none;stroke:#000000;stroke-width:1px;stroke-linecap:butt;stroke-linejoin:miter;stroke-opacity:1"
       d="m 67.84375,294.76098 c -0.73726,0.80568 -1.50991,2.52065 -2.09375,3.34375 -0.73616,0.59167 -1.4785,0.72349 -2.0625,0.71875 -0.584,-0.005 -1.03478,-0.16567 -1.15625,-0.1875 0.6909,-0.84627 4.33133,-3.17009 5.3125,-3.875 z"
       id="path5209"
       inkscape:connector-curvature="0" />
    <path
       style="fill:#614a4a;fill-opacity:1;stroke:none"
       d="m 75.15625,285.82348 c -2.72301,0.67889 2.68537,-0.11393 0,0 z m -4.875,6.59375 c -2.83905,3.66315 -9.21101,1.71308 -10.34375,7 -3.57513,5.56263 -6.29329,12.79415 -2.3125,18.71875 0.31976,2.51173 3.93222,11.38711 3.40625,7.40625 -2.09074,-4.95798 -4.49661,-10.5737 -1.125,-15.5625 1.60081,-3.5249 1.93154,-8.48383 5.96875,-10.21875 0.57982,-1.87044 3.15302,-5.30326 4.40625,-7.34375 z m -13.09375,4.375 c 0.74077,5.29714 7.8357,-3.79061 0,0 z m 1.09375,1.6875 c -0.0501,1.94229 1.602,-0.34497 0,0 z m -5.25,10.3125 c 0.80848,5.23057 3.06473,-1.91655 0,0 z m 7.375,37.65625 c 0.19586,0.35653 -0.14445,-0.42096 0,0 z m 0.0625,0.0937 c 0.39085,1.59197 0.49816,1.05026 0,0 z"
       id="path5207"
       inkscape:connector-curvature="0" />
    <path
       style="fill:#c4ccb2;fill-opacity:1;stroke:#000000;stroke-width:1px;stroke-linecap:butt;stroke-linejoin:miter;stroke-opacity:1"
       d="m 136.21438,175.68183 c -0.58654,3.18202 -1.94112,5.26296 -2.50054,8.87806 -0.87763,6.26637 -0.34765,12.78377 1.35982,18.83947 1.35601,3.10611 3.53835,7.94617 4.79545,9.562 1.83737,2.78343 5.57274,7.32883 8.38407,9.25779 3.90061,2.4138 7.72608,5.26818 12.06325,6.62946 2.61397,1.22726 8.44864,2.07719 11.29047,2.65684 4.13568,-0.22936 8.60406,-0.40777 12.66853,-1.33537 5.46187,-0.96091 13.07569,-5.38305 15.0747,-6.55968 2.13518,-1.27286 6.84763,-5.83297 9.55367,-9.23826 2.00034,-2.0451 3.96834,-5.24829 5.32956,-9.09975 0.98636,-3.98731 3.00584,-11.03637 2.61622,-15.12646 0.13011,-2.68921 -1.62946,-10.06397 -2.42401,-12.72777 -1.31075,-3.76917 -3.24017,-7.15022 -5.45393,-10.51419 -3.3743,-3.51342 -7.7932,-8.49551 -10.38982,-9.81226 -2.3357,-1.95615 -9.09915,-4.97053 -11.38108,-5.27444 -3.40243,-0.57711 -10.56591,-1.72229 -13.42347,-1.64934 -2.94607,-0.39441 -9.93059,1.26903 -15.54494,3.75596 -4.04601,1.52909 -8.39427,4.09867 -11.60948,7.11311 -2.81924,3.40264 -6.04689,7.57421 -7.5916,9.61356 -0.91661,0.94634 -2.63343,3.69316 -2.81684,5.03127 z"
       id="path4109"
       inkscape:connector-curvature="0"
       sodipodi:nodetypes="ccccccccccccccccccccc" />
    <path
       sodipodi:type="inkscape:offset"
       inkscape:radius="-0.50002265"
       inkscape:original="M 278.90625 61.90625 C 278.31364 61.93169 277.65117 62.106724 277.03125 62.15625 C 278.36557 62.262364 279.74568 62.366361 280.5 63.875 C 280.593 64.061073 279.2959 65.670903 280 66.375 C 280.9625 67.337501 283.16254 66.200083 284 67.875 C 284.94232 69.759647 282.54069 69.834313 282 70.375 C 281.00781 71.367192 282.5 76.105837 282.5 77.375 C 282.5 78.363069 279.92079 80.795791 281 81.875 C 281.51899 82.393985 288.28318 83.591817 286.5 85.375 C 285.09426 86.780741 279.18966 86.995678 278 89.375 C 277.31745 90.740093 279.7642 92.346595 279 93.875 C 278.13117 95.612653 275.93596 96.503073 275 98.375 C 274.33756 99.699879 277.01315 101.86186 276 102.875 C 275.5 103.375 274 102.875 273.5 103.375 C 272.93946 103.93554 273.86868 106.13765 273.5 106.875 C 272.78585 108.30329 271.37206 108.00295 270.5 108.875 C 270.03296 109.34204 269.96704 110.90796 269.5 111.375 C 268.97992 111.89508 265.65009 110.22491 265.5 110.375 C 262.32999 113.54501 262.549 113.8995 257.5 111.375 C 255.84997 110.54999 254.19271 113.27865 253 113.875 C 251.05831 114.84585 250.36814 112.19093 249 112.875 C 248.32562 113.21219 246.82692 116.70192 246.5 116.375 C 245.22715 115.10215 245.82438 111.69938 244.5 110.375 C 242.97831 108.8533 239.3842 110.6434 238.5 108.875 C 238.07462 108.02424 237.80437 106.9426 237.53125 105.875 C 237.55535 106.33245 237.4627 106.79466 237.5 107.25 C 237.86726 108.90433 238.36459 111.03454 238.875 112.96875 C 239.38541 114.90296 239.91324 116.64895 240.375 117.5625 C 241.00943 119.10469 242.03197 121.17212 243.1875 123.15625 C 244.34303 125.14038 245.64938 127.03361 246.84375 128.25 C 248.52609 129.80885 250.15342 131.48655 251.875 133.03125 C 253.59658 134.57595 255.40866 135.97822 257.40625 137.0625 C 258.57113 137.91562 260.54582 138.84637 262.5625 139.6875 C 264.57918 140.52863 266.6299 141.28654 267.96875 141.84375 C 270.02015 142.12816 272.14265 142.43073 274.28125 142.65625 C 276.41985 142.88177 278.57277 143.0338 280.65625 142.96875 C 282.04244 142.99515 283.59348 142.82955 285.1875 142.5625 C 286.78152 142.29545 288.41408 141.93263 289.9375 141.53125 C 292.98434 140.72849 295.62489 139.823 296.71875 139.4375 C 297.88866 139.01785 299.85629 137.91289 301.9375 136.5625 C 304.01871 135.21211 306.22029 133.59874 307.875 132.1875 C 309.05286 131.37597 310.2783 130.27165 311.46875 128.9375 C 312.6592 127.60335 313.80612 126.04051 314.84375 124.28125 C 315.71047 122.41935 316.96169 119.85915 318.0625 117.25 C 318.61291 115.94543 319.13485 114.62039 319.53125 113.375 C 319.92765 112.12961 320.2118 110.9597 320.3125 109.9375 C 320.63446 108.63039 320.71834 106.09772 320.6875 103.53125 C 320.6567 100.96478 320.50921 98.383394 320.375 97 C 320.09359 95.024657 319.63482 93.100521 319.0625 91.21875 C 318.49018 89.336979 317.79465 87.488187 317.03125 85.625 C 315.71272 83.577084 314.21166 81.107751 312.75 78.9375 C 311.28834 76.767249 309.86653 74.89537 308.71875 74 C 307.76038 72.815926 305.77698 71.139729 303.75 69.6875 C 301.72302 68.235271 299.65308 66.993158 298.5625 66.625 C 296.94832 66.015231 294.45845 65.086824 292 64.25 C 289.54155 63.413176 287.12796 62.675985 285.71875 62.4375 C 285.01486 62.199345 284.03705 62.054071 282.875 61.96875 C 281.71295 61.88343 280.35317 61.844147 278.90625 61.90625 z "
       style="fill:#bac3a4;fill-opacity:1;stroke:none"
       id="path4401"
       d="m 279.8125,62.40625 c 0.44098,0.292428 0.83494,0.669888 1.125,1.25 0.09,0.180053 0.0766,0.300782 0.0625,0.375 -0.0141,0.07422 -0.0431,0.107647 -0.0625,0.15625 -0.0387,0.09721 -0.0741,0.183097 -0.125,0.28125 -0.10178,0.196306 -0.24286,0.425514 -0.34375,0.65625 -0.10089,0.230736 -0.17404,0.464004 -0.1875,0.625 -0.0135,0.160996 0.008,0.226871 0.0625,0.28125 0.13846,0.138459 0.35614,0.203557 0.65625,0.25 0.30011,0.04644 0.65575,0.03871 1.0625,0.0625 0.40675,0.02379 0.85177,0.06767 1.28125,0.25 0.42948,0.182328 0.8351,0.545197 1.09375,1.0625 0.27416,0.548332 0.34409,1.065523 0.1875,1.5 -0.15659,0.434477 -0.48354,0.713832 -0.8125,0.90625 -0.32896,0.192418 -0.68914,0.327708 -0.96875,0.4375 -0.27961,0.109792 -0.49163,0.210382 -0.5,0.21875 -0.063,0.06302 -0.18783,0.447791 -0.1875,1 3.3e-4,0.552209 0.0964,1.247946 0.21875,1.96875 0.12233,0.720804 0.28082,1.450169 0.40625,2.09375 C 282.90668,76.424831 283,76.959728 283,77.375 c 0,0.464557 -0.2319,0.814544 -0.46875,1.21875 -0.23685,0.404206 -0.50531,0.834141 -0.75,1.25 -0.24469,0.415859 -0.43167,0.825004 -0.5,1.125 -0.0683,0.299996 -0.0705,0.429531 0.0625,0.5625 -0.0931,-0.09313 0.0681,0.01451 0.28125,0.09375 0.2132,0.07924 0.50603,0.17528 0.84375,0.28125 0.67543,0.21194 1.52224,0.478538 2.3125,0.78125 0.79026,0.302712 1.53387,0.622196 2.03125,1.09375 0.24869,0.235777 0.44067,0.531455 0.46875,0.90625 0.0281,0.374795 -0.14882,0.742572 -0.4375,1.03125 -0.47069,0.47069 -1.14269,0.736714 -1.9375,1 -0.79481,0.263286 -1.70407,0.52092 -2.59375,0.78125 -1.77936,0.52066 -3.42546,1.194668 -3.875,2.09375 -0.0996,0.199304 -0.0974,0.393528 0,0.6875 0.0974,0.293972 0.31406,0.64646 0.53125,1.03125 0.21719,0.38479 0.46014,0.816633 0.59375,1.28125 0.13361,0.464617 0.12945,0.991099 -0.125,1.5 -0.49447,0.988936 -1.3211,1.671472 -2.09375,2.34375 -0.77265,0.672278 -1.49402,1.331781 -1.90625,2.15625 -0.0811,0.162141 -0.0572,0.408416 0.0625,0.75 0.11969,0.341584 0.33112,0.73687 0.5625,1.15625 0.23138,0.41938 0.47158,0.85645 0.59375,1.3125 0.12217,0.45605 0.0815,1.01228 -0.3125,1.40625 -0.24286,0.24286 -0.54095,0.33621 -0.8125,0.375 -0.27155,0.0388 -0.53125,0.0312 -0.78125,0.0312 -0.25,0 -0.4903,0.008 -0.65625,0.0312 -0.16595,0.0237 -0.24286,0.0554 -0.25,0.0625 0.0245,-0.0245 -0.0333,0.10209 -0.0312,0.34375 0.002,0.24166 0.0364,0.55445 0.0937,0.90625 0.0573,0.3518 0.12682,0.73969 0.15625,1.09375 0.0294,0.35406 0.0493,0.68272 -0.125,1.03125 -0.42237,0.84474 -1.0979,1.24171 -1.6875,1.46875 -0.5896,0.22704 -1.08605,0.33605 -1.40625,0.65625 -0.0443,0.0443 -0.24176,0.52301 -0.375,1.03125 -0.13324,0.50824 -0.20222,1.04597 -0.625,1.46875 -0.20664,0.20664 -0.45052,0.24359 -0.65625,0.25 -0.20573,0.006 -0.40816,-0.0171 -0.625,-0.0625 -0.43367,-0.0907 -0.90736,-0.26715 -1.375,-0.4375 -0.46764,-0.17035 -0.91814,-0.34496 -1.25,-0.46875 -0.12445,-0.0464 -0.20111,-0.0679 -0.28125,-0.0937 -0.6735,0.67904 -1.23649,1.26701 -1.71875,1.6875 -0.53535,0.46678 -1.0466,0.80012 -1.65625,0.90625 -1.2193,0.21225 -2.46971,-0.42236 -5,-1.6875 -0.28395,-0.14197 -0.52993,-0.11525 -0.84375,0 -0.31382,0.11525 -0.66812,0.34788 -1.03125,0.65625 -0.72627,0.61674 -1.40115,1.45058 -2.1875,1.84375 -0.57756,0.28878 -1.12598,0.31995 -1.59375,0.1875 -0.46777,-0.13245 -0.85032,-0.3866 -1.15625,-0.625 -0.30593,-0.2384 -0.55255,-0.43678 -0.75,-0.53125 -0.19745,-0.0945 -0.28872,-0.13689 -0.5,-0.0312 0.0737,-0.0369 -0.20986,0.2127 -0.4375,0.5625 -0.22764,0.3498 -0.46854,0.81264 -0.71875,1.25 -0.25021,0.43736 -0.50064,0.83912 -0.71875,1.15625 -0.10905,0.15856 -0.20633,0.31649 -0.34375,0.4375 -0.0687,0.0605 -0.15783,0.11541 -0.3125,0.15625 -0.15467,0.0408 -0.39842,-0.0234 -0.53125,-0.15625 -0.82161,-0.82161 -0.94988,-2.07616 -1.125,-3.25 -0.17512,-1.17384 -0.39079,-2.26579 -0.875,-2.75 -0.55234,-0.55234 -1.66785,-0.5365 -2.875,-0.5 -0.60358,0.0182 -1.20922,0.0296 -1.78125,-0.0937 -0.31377,-0.0677 -0.63858,-0.20901 -0.90625,-0.40625 0.25258,1.06733 0.47079,2.06691 0.75,3.125 0.50765,1.92376 1.05349,3.67845 1.46875,4.5 a 0.50007265,0.50007265 0 0 1 0.0312,0.0312 c 0.62233,1.51278 1.63718,3.5668 2.78125,5.53125 1.13777,1.95364 2.4257,3.8063 3.5625,4.96875 1.69562,1.57116 3.32704,3.25214 5.03125,4.78125 1.70372,1.52868 3.48734,2.91022 5.4375,3.96875 a 0.50007265,0.50007265 0 0 1 0.0312,0.0312 c 1.08742,0.79639 3.05974,1.72718 5.0625,2.5625 1.96006,0.81751 3.92433,1.56428 5.28125,2.125 0.02,0.003 0.0425,-0.003 0.0625,0 0.0164,0.007 0.0463,0.0245 0.0625,0.0312 2.01395,0.27951 4.10373,0.56151 6.1875,0.78125 2.1271,0.22431 4.26405,0.37646 6.3125,0.3125 1.33929,0.0255 2.86239,-0.14237 4.4375,-0.40625 1.5761,-0.26405 3.20865,-0.60213 4.71875,-1 3.02609,-0.79729 5.66256,-1.71051 6.75,-2.09375 1.07506,-0.38563 3.02878,-1.47265 5.09375,-2.8125 2.06373,-1.33905 4.27499,-2.95251 5.90625,-4.34375 a 0.50007265,0.50007265 0 0 1 0.0312,-0.0312 c 1.13677,-0.78322 2.33178,-1.87827 3.5,-3.1875 1.15885,-1.29873 2.26572,-2.81499 3.28125,-4.53125 0.005,-0.0101 0.0265,-0.0212 0.0312,-0.0312 0.86975,-1.86706 2.09978,-4.39064 3.1875,-6.96875 0.54728,-1.29715 1.07974,-2.62156 1.46875,-3.84375 0.3899,-1.22496 0.65465,-2.37584 0.75,-3.34375 a 0.50007265,0.50007265 0 0 1 0,-0.0625 c 0.29091,-1.18105 0.40566,-3.72962 0.375,-6.28125 -0.0306,-2.55134 -0.18066,-5.109816 -0.3125,-6.46875 -0.2771,-1.945107 -0.7149,-3.825343 -1.28125,-5.6875 -0.56603,-1.861101 -1.27145,-3.708098 -2.03125,-5.5625 -1.31014,-2.038651 -2.78726,-4.468288 -4.21875,-6.59375 -1.45215,-2.156131 -2.89831,-4.001836 -3.9375,-4.8125 a 0.50007265,0.50007265 0 0 1 -0.0625,-0.09375 c -0.8913,-1.101213 -2.87056,-2.782672 -4.875,-4.21875 -2.0057,-1.436982 -4.11318,-2.679528 -5.0625,-3 a 0.50007265,0.50007265 0 0 1 -0.0312,0 c -1.61212,-0.608992 -4.0821,-1.541343 -6.53125,-2.375 -2.44875,-0.833521 -4.88408,-1.555379 -6.21875,-1.78125 a 0.50007265,0.50007265 0 0 1 -0.0625,-0.03125 c -0.6292,-0.212884 -1.57761,-0.353714 -2.71875,-0.4375 -0.88844,-0.06523 -1.95907,-0.07737 -3.03125,-0.0625 z"
       transform="translate(-104.5,88.198485)" />
    <path
       inkscape:connector-curvature="0"
       style="fill:#b0ba97;fill-opacity:1;stroke:none"
       d="m 162.87629,229.03883 c 1.0395,0.3008 1.89392,0.64184 3.10349,0.88953 2.08054,0.42603 4.15163,0.78183 5.59095,1.07164 0.0202,-9e-4 0.0411,-0.0111 0.0613,-0.012 0.0174,0.004 0.0501,0.0152 0.0673,0.0186 2.03015,-0.1123 4.1352,-0.23672 6.22239,-0.42108 2.1306,-0.1882 4.25702,-0.44911 6.25509,-0.90512 1.31927,-0.23207 2.78182,-0.68921 4.27698,-1.25055 1.4961,-0.5617 3.03338,-1.20689 4.43902,-1.88725 2.81675,-1.36338 5.22887,-2.76573 6.22252,-3.3506 0.98104,-0.58484 2.68974,-2.02669 4.4591,-3.73803 1.76829,-1.71032 3.62869,-3.71826 4.96254,-5.39678 a 0.50007265,0.50007265 0 0 1 0.0246,-0.0366 c 0.96527,-0.98687 1.92784,-2.29096 2.823,-3.8001 0.88798,-1.49704 1.68319,-3.19758 2.35036,-5.07687 0.003,-0.0109 0.0219,-0.0259 0.0246,-0.0366 0.49516,-1.9993 1.21787,-4.71207 1.79044,-7.45104 0.28809,-1.37809 0.5564,-2.78008 0.70355,-4.05421 0.1475,-1.27703 0.18639,-2.45733 0.0942,-3.42554 a 0.50007265,0.50007265 0 0 1 -0.012,-0.0613 c 0.0588,-1.21493 -0.31785,-3.73813 -0.83778,-6.23641 -0.5198,-2.49802 -1.15822,-4.9801 -1.54848,-6.28845 -0.64535,-1.85574 -1.43595,-3.61696 -2.34924,-5.33576 -0.91278,-1.71783 -1.95964,-3.39505 -3.0613,-5.06911 -1.67713,-1.74922 -3.59319,-3.85011 -5.40608,-5.66124 -0.0591,-0.0591 -0.0936,-0.0709 -0.15267,-0.12935 -0.0624,0.11086 -0.0858,0.24622 -0.15469,0.34868 -0.59207,0.88003 -2.65086,0.77327 -3.24293,1.65329 -2.97575,4.423 0.75201,5.73609 3.2958,9.03536 1.30922,1.69806 -2.55512,1.81297 -0.70423,4.21356 0.51703,0.67058 1.66811,3.18949 1.35456,4.32032 -0.40337,1.45474 -2.74152,0.27464 -3.33892,1.16259 -0.0421,0.0626 2.5438,3.81943 1.54653,5.30172 -0.6873,1.02156 -3.38875,0.50543 -3.73364,1.74927 -0.80995,2.92115 5.13762,2.82373 5.56812,5.02455 0.25795,1.31872 -4.08757,-0.0601 -3.82962,1.25858 0.2375,1.21418 3.10188,0.45647 0.37316,4.51229 -0.49882,0.74141 0.15428,0.98877 -1.28013,1.26935 -1.28483,0.25132 3.68805,0.85193 2.14399,3.14695 -0.44922,0.6677 -1.11887,-0.87043 -1.56809,-0.20275 -0.19324,0.28723 1.8234,2.9901 1.25858,3.82962 -0.60989,0.9065 -2.87231,0.46902 -3.33892,1.16259 -0.29959,0.44531 1.44877,2.91356 0.37315,4.51229 -0.58463,0.86898 -3.99136,0.27126 -4.02158,0.27718 -1.36852,0.26769 -0.7301,3.61864 -1.19493,4.30954 -1.39111,2.06766 -6.7281,0.38746 -8.34191,1.63173 -1.35626,1.0457 -1.99707,4.08713 -4.42709,3.41335 -0.71494,-0.19823 -3.5877,-1.63447 -3.81884,-1.29091 -1.0468,1.55591 -3.40039,3.75116 -5.12053,5.07741 -1.69889,1.30988 -6.77884,-0.69153 -7.55247,0.45836 -0.24673,0.36673 -0.29335,0.92297 -0.34942,1.46941 z"
       id="path4403" />
    <path
       style="fill:#bac3a4;fill-opacity:1;stroke:#000000;stroke-width:1px;stroke-linecap:butt;stroke-linejoin:miter;stroke-opacity:1"
       d="m 199.35596,170.05095 c -3.62715,0.65599 -5.35309,4.53921 -7.42373,7.2029 -2.62803,2.54201 -2.11848,5.74719 -2.41752,9.10197 0.16609,5.22914 1.52155,11.70264 6.92052,13.92495 9.89615,4.66896 21.10836,2.04858 31.27242,-0.25016 3.77796,-0.67195 14.37308,-2.62854 17.90295,-3.88794 4.84973,-1.12073 19.15964,-3.49504 24.75978,-4.46105 4.2739,-0.69516 4.32837,-2.39787 6.70509,-4.71672 1.62423,-2.78939 5.49558,-6.12774 5.77891,-9.1729 -0.35401,-2.75701 -0.36672,-7.48548 -1.39622,-11.11618 -1.25924,-4.83188 -4.30978,-7.13315 -8.73958,-9.49541 -6.91368,-1.29989 -4.42644,-1.81903 -11.30249,-0.732 -3.53615,0.63379 -10.55224,2.00888 -14.30393,3.02384 -8.00256,2.13219 -16.45646,2.15231 -24.39268,4.59387 -2.54055,0.0243 -8.36253,1.81689 -12.47077,2.70711 -3.77604,0.7767 -7.23096,2.0472 -10.89275,3.27772 z"
       id="path4125"
       inkscape:connector-curvature="0"
       sodipodi:nodetypes="cccccccccccccccc" />
    <path
       sodipodi:type="inkscape:offset"
       inkscape:radius="-0.89204329"
       inkscape:original="M 364.71875 100.125 C 364.4594 100.03976 364.09082 100.07959 363.5 100.375 C 362.34939 100.95031 361.66152 102.29424 360.5 102.875 C 358.8273 103.71135 358.72889 101.01056 358 101.375 C 356.93451 101.90775 354.75669 103.375 354 103.375 C 353.56174 103.375 351.41508 100.45992 351 100.875 C 350.59694 101.27807 347.89631 105.27132 347 104.375 C 346.46475 103.83975 345.96167 100.875 345.5 100.875 C 344.74211 100.875 342.99665 103.87668 342 104.375 C 341.20375 104.77313 339.7347 101.50765 339 101.875 C 337.76932 102.49035 337.01279 103.86221 336.5 104.375 C 335.01037 105.86464 332.86617 101.44192 331 102.375 C 330.23098 102.75951 328.82557 104.375 328 104.375 C 327.31482 104.375 325.8578 102.3039 325 101.875 C 324.7019 101.72595 321.7401 104.13491 321.5 104.375 C 321.06786 104.80714 319.16026 101.875 319 101.875 C 318.18365 101.875 317.24809 104.62691 316.5 105.375 C 315.7454 106.12961 315.5685 107.30651 315 107.875 C 314.9197 107.9553 313.15949 106.71551 312.5 107.375 C 311.49693 108.37807 310.06631 110.3087 309 111.375 C 308.18284 112.19216 306.60586 110.375 306.5 110.375 C 305.98627 110.375 304.85528 113.94736 304 114.375 C 303.86649 114.4418 299.5 112.11631 299.5 112.875 C 299.5 112.9488 300.32748 115.20248 300.5 115.375 C 301.1486 116.0236 299.96322 116.39416 299.875 116.9375 C 300.49963 117.33019 301.10328 117.76 301.75 118.09375 C 302.92868 118.70203 304.13439 119.22253 305.375 119.65625 C 307.85623 120.5237 310.45341 121.07259 313.09375 121.40625 C 315.73409 121.73991 318.44371 121.85589 321.125 121.875 C 323.80629 121.8941 326.45842 121.795 329.0625 121.71875 C 330.98084 121.75165 334.645 121.81435 338.28125 121.78125 C 341.9175 121.74815 345.52201 121.62293 347.375 121.34375 C 352.34968 121.17486 366.84982 121.59174 372.53125 121.71875 C 373.61321 121.75325 374.46859 121.66465 375.15625 121.5 C 375.84391 121.33533 376.38336 121.0939 376.875 120.78125 C 377.85827 120.15595 378.64242 119.28474 380.03125 118.375 C 381.01636 117.25286 382.51507 116.10342 383.90625 114.90625 C 382.84784 115.45464 381.69607 116.07107 381.5 115.875 C 377.8473 112.22231 378.50946 112.89393 376 107.875 C 375.73352 107.34205 374.17323 107.22146 373.5 105.875 C 372.912 104.69901 373.82839 103.20339 373 102.375 C 371.93286 101.30786 368.05494 101.875 366.5 101.875 C 365.22627 101.875 365.4968 100.38071 364.71875 100.125 z "
       style="fill:#b0ba97;fill-opacity:1;stroke:none"
       id="path4452"
       d="m 364.375,101 c 0.0115,0.004 -0.041,-0.0264 -0.46875,0.1875 -0.39039,0.1952 -0.7887,0.58168 -1.25,1.0625 -0.4613,0.48082 -0.98606,1.05553 -1.75,1.4375 -0.59307,0.29654 -1.30886,0.3182 -1.8125,0.0625 -0.50364,-0.2557 -0.77307,-0.6524 -0.96875,-0.96875 -0.0978,-0.15818 -0.11991,-0.22447 -0.1875,-0.34375 -0.4677,0.26046 -1.00643,0.55908 -1.625,0.90625 -0.39759,0.22314 -0.7844,0.42798 -1.15625,0.59375 -0.37185,0.16577 -0.67879,0.34375 -1.15625,0.34375 -0.54923,0 -0.62843,-0.19365 -0.78125,-0.3125 -0.15282,-0.11885 -0.29011,-0.26027 -0.4375,-0.40625 -0.29477,-0.29197 -0.62321,-0.63807 -0.9375,-0.96875 -0.22967,-0.24165 -0.4108,-0.4253 -0.59375,-0.59375 -0.0983,0.12328 -0.10487,0.10336 -0.21875,0.25 -0.32831,0.42277 -0.74438,0.97322 -1.1875,1.46875 -0.44312,0.49553 -0.8944,0.9432 -1.40625,1.28125 -0.25593,0.16903 -0.54228,0.3201 -0.90625,0.375 -0.36397,0.0549 -0.84793,-0.0667 -1.15625,-0.375 -0.37556,-0.37556 -0.45032,-0.70299 -0.59375,-1.09375 -0.14343,-0.39076 -0.2822,-0.8184 -0.40625,-1.21875 -0.0614,-0.19825 -0.0992,-0.32997 -0.15625,-0.5 -0.20966,0.23084 -0.43173,0.49548 -0.6875,0.8125 -0.325,0.40283 -0.65709,0.83689 -1,1.21875 -0.34291,0.38186 -0.64859,0.73055 -1.125,0.96875 -0.36674,0.18337 -0.82043,0.1171 -1.09375,0 -0.27332,-0.1171 -0.45178,-0.2754 -0.625,-0.4375 -0.34644,-0.3242 -0.62525,-0.69998 -0.90625,-1.0625 -0.24298,-0.31347 -0.48255,-0.56282 -0.65625,-0.75 -0.33285,0.22902 -0.68322,0.47302 -0.96875,0.8125 -0.37049,0.4405 -0.6487,0.86745 -1.03125,1.25 -0.30207,0.30207 -0.71707,0.5158 -1.125,0.5625 -0.40793,0.0467 -0.77883,-0.051 -1.09375,-0.1875 -0.62985,-0.27301 -1.11179,-0.68881 -1.59375,-1.09375 -0.48196,-0.40494 -0.92626,-0.81027 -1.28125,-1 -0.35499,-0.18973 -0.47169,-0.1704 -0.625,-0.0937 -0.13197,0.066 -0.73495,0.55726 -1.3125,1.03125 -0.28877,0.23699 -0.61171,0.45885 -0.9375,0.65625 -0.32579,0.1974 -0.65893,0.40625 -1.15625,0.40625 -0.62069,0 -0.88546,-0.28497 -1.1875,-0.53125 -0.30204,-0.24628 -0.59072,-0.55219 -0.875,-0.84375 -0.46447,-0.47635 -0.8645,-0.81014 -1.09375,-1 -0.28745,0.18547 -0.6687,0.48209 -1.0625,0.78125 -0.3938,0.29916 -0.81617,0.62363 -1.125,0.875 -0.30883,0.25137 -0.59224,0.49848 -0.53125,0.4375 -0.17418,0.17418 -0.43199,0.29906 -0.65625,0.3125 -0.22426,0.0134 -0.40098,-0.0399 -0.53125,-0.0937 -0.26053,-0.10778 -0.43405,-0.23376 -0.59375,-0.375 -0.31941,-0.28248 -0.58658,-0.64454 -0.875,-1 -0.2115,-0.26066 -0.38973,-0.4943 -0.5625,-0.71875 -0.12803,0.19037 -0.25698,0.38461 -0.40625,0.65625 -0.41258,0.7508 -0.74571,1.58946 -1.375,2.21875 -0.23799,0.23799 -0.42101,0.61522 -0.625,1.0625 -0.20399,0.44728 -0.40582,0.96833 -0.875,1.4375 -6.3e-4,6.3e-4 -0.12226,0.11953 -0.1875,0.15625 -0.0652,0.0367 -0.13205,0.0458 -0.1875,0.0625 -0.1109,0.0334 -0.18467,0.0622 -0.25,0.0625 -0.13066,6.7e-4 -0.19719,-0.0176 -0.25,-0.0312 -0.10562,-0.0273 -0.16915,-0.0721 -0.21875,-0.0937 -0.0992,-0.0433 -0.18682,-0.0771 -0.28125,-0.125 -0.18886,-0.0958 -0.40391,-0.22221 -0.625,-0.3125 -0.22109,-0.0903 -0.42262,-0.14693 -0.53125,-0.15625 -0.90023,0.91263 -2.31866,2.78742 -3.46875,3.9375 -0.42262,0.42262 -1.07192,0.53382 -1.53125,0.4375 -0.45933,-0.0963 -0.81704,-0.31845 -1.125,-0.53125 -0.12884,-0.089 -0.20275,-0.16167 -0.3125,-0.25 -0.14349,0.27754 -0.29185,0.56857 -0.46875,0.9375 -0.22882,0.4772 -0.48667,0.99356 -0.75,1.4375 -0.26333,0.44394 -0.44343,0.86234 -1.03125,1.15625 -5.2e-4,2.6e-4 -0.11124,0.0182 -0.15625,0.0312 -0.045,0.013 -0.0907,0.0261 -0.125,0.0312 -0.0686,0.0103 -0.1154,0.0323 -0.15625,0.0312 -0.0817,-0.002 -0.11789,-0.0236 -0.15625,-0.0312 -0.0767,-0.0152 -0.11616,-0.0178 -0.15625,-0.0312 -0.0802,-0.0269 -0.17356,-0.0615 -0.25,-0.0937 -0.15289,-0.0644 -0.31504,-0.15063 -0.53125,-0.25 -0.43242,-0.19874 -0.99356,-0.45551 -1.53125,-0.6875 -0.18414,-0.0794 -0.29372,-0.11786 -0.46875,-0.1875 0.0806,0.2049 0.15145,0.40607 0.21875,0.5625 0.0469,0.10905 0.0988,0.19759 0.125,0.25 0.0262,0.0524 0.10196,0.13321 -0.0937,-0.0625 0.28825,0.28825 0.50638,0.784 0.4375,1.21875 -0.0608,0.38352 -0.22296,0.58268 -0.375,0.75 0.32032,0.20597 0.66495,0.43697 0.96875,0.59375 1.14266,0.58969 2.2993,1.08023 3.5,1.5 2.40883,0.84214 4.9707,1.39122 7.5625,1.71875 2.59054,0.32737 5.2464,0.41854 7.90625,0.4375 2.65512,0.0189 5.29728,-0.0799 7.90625,-0.15625 a 0.8921325,0.8921325 0 0 1 0.0312,0 c 1.9183,0.0329 5.59821,0.0955 9.21875,0.0625 3.62114,-0.033 7.24542,-0.14661 8.96875,-0.40625 a 0.8921325,0.8921325 0 0 1 0.0937,-0.0312 c 5.08318,-0.17257 19.54702,0.24821 25.21875,0.375 1.01837,0.0325 1.77978,-0.045 2.375,-0.1875 0.59837,-0.14329 1.05097,-0.32807 1.46875,-0.59375 0.84789,-0.53921 1.64655,-1.4378 3.125,-2.40625 0.3679,-0.40368 0.87649,-0.7657 1.3125,-1.15625 -3.59841,-3.59907 -3.17195,-3.21888 -5.65625,-8.1875 0.0831,0.16617 0.1096,0.10904 -0.0312,0.0312 -0.14085,-0.0778 -0.37183,-0.1952 -0.65625,-0.34375 -0.56885,-0.2971 -1.35737,-0.77724 -1.8125,-1.6875 -0.44455,-0.88909 -0.29997,-1.77546 -0.25,-2.375 0.025,-0.29977 0.0522,-0.54253 0.0312,-0.6875 -0.021,-0.14497 -0.0397,-0.1647 -0.0937,-0.21875 -0.0478,-0.0478 -0.33285,-0.20048 -0.78125,-0.28125 -0.4484,-0.0808 -1.03811,-0.0978 -1.65625,-0.0937 -1.23627,0.008 -2.55158,0.15625 -3.4375,0.15625 -0.49285,0 -0.9621,-0.19159 -1.28125,-0.46875 -0.31915,-0.27716 -0.47978,-0.59901 -0.59375,-0.84375 -0.10827,-0.23251 -0.20337,-0.38426 -0.25,-0.46875 z"
       transform="matrix(0.98765283,-0.15665851,0.15665851,0.98765283,-119.17381,131.45024)" />
    <path
       style="fill:#6c7a50;fill-opacity:1;stroke:#000000;stroke-width:1px;stroke-linecap:butt;stroke-linejoin:miter;stroke-opacity:1"
       d="m 215.16514,164.92067 c -6.205,-8.51002 -10.1435,-2.26396 -10.56623,5.88789 -0.22146,4.27049 0.80572,11.5106 1.94342,15.79571 0.5692,2.14384 1.35315,7.03281 2.48507,9.44868 1.59499,3.40432 3.19158,5.39968 4.98926,8.57674 1.4989,2.649 3.32342,4.69941 6.40554,4.09652 0.19211,-0.0376 1.12828,-0.0936 1.22675,-0.23996 1.04531,-1.55369 1.65842,-3.88893 2.18172,-5.77625 0.31,-1.11802 0.10282,-1.54854 0.20275,-1.56809 0.88181,-0.17248 -1.62393,1.03805 -2.16016,0.67728 -0.0974,-0.0655 -1.55896,-0.21631 -1.56809,-0.20274 -0.65433,0.97257 1.09355,2.07873 -1.28552,2.54409 -1.02779,0.38927 -1.80716,-1.5354 -2.51471,-2.43759 -0.92106,-0.61968 -1.52616,-2.58467 -2.09331,-3.53897 -0.73843,-1.24252 -1.25313,-3.08025 -1.72258,-4.24833 -0.5049,-1.2563 -2.67714,-10.63895 -3.18365,-12.36889 -0.27228,-0.92992 -1.03729,-6.3014 -1.23971,-8.29122 -0.17286,-1.69928 -0.13946,-7.70979 0.47774,-8.62717 1.5274,-1.27956 3.12602,0.38669 2.78945,1.23753 0.65238,-0.12761 2.70914,-0.53278 3.63226,-0.96523 z"
       id="path4139"
       inkscape:connector-curvature="0"
       sodipodi:nodetypes="cssssscssssccssssccc" />
    <path
       style="fill:#6c7a50;fill-opacity:1;stroke:#000000;stroke-width:1px;stroke-linecap:butt;stroke-linejoin:miter;stroke-opacity:1"
       d="m 223.43236,163.55828 c -0.58293,-1.99189 -2.50504,-5.16189 -4.93103,-4.39332 -2.49995,1.24324 -3.02048,4.31349 -3.67059,6.7568 -0.78388,2.30614 -0.35677,4.72636 -0.0581,7.0793 0.86972,6.27873 2.2938,12.48163 4.31114,18.49243 1.49417,4.10918 3.27714,8.29338 6.38658,11.45371 1.38028,1.35096 3.69384,3.0018 5.59035,1.6804 1.01961,-1.30358 2.36855,-4.10354 1.03836,-5.28712 -0.60488,0.19607 -1.28369,0.18314 -2.44656,0.57496 0.43661,4.30496 -3.27889,-0.32748 -4.52983,-3.29639 -0.78813,-1.95589 -2.03468,-4.74319 -2.5022,-6.78918 -0.69277,-2.09103 -1.42978,-3.7232 -1.81877,-5.93467 -0.44372,-1.9715 -1.18289,-5.81807 -1.50474,-7.80151 -0.67595,-2.02009 -0.85769,-6.16955 -1.04315,-8.62454 0.23518,-1.35787 0.4075,-6.66714 2.35086,-3.33928 0.87734,-0.0864 1.83646,-0.42753 2.82772,-0.57156 z"
       id="path4180"
       inkscape:connector-curvature="0"
       sodipodi:nodetypes="cccccccccccccccc" />
    <path
       style="fill:#6c7a50;fill-opacity:1;stroke:#000000;stroke-width:1px;stroke-linecap:butt;stroke-linejoin:miter;stroke-opacity:1"
       d="m 234.86515,161.44932 c -0.93734,-2.23383 -3.19546,-4.40927 -5.53565,-4.83304 -2.11185,0.41605 -2.82073,2.84245 -3.33988,4.64911 -0.60933,2.03591 -1.71467,3.8826 -1.435,6.10158 -0.24114,2.08792 -0.0395,4.1467 0.24227,6.2155 -0.45858,2.37025 0.50163,4.86859 0.85031,6.79431 0.47499,1.70455 0.84987,4.07653 1.48052,5.92284 0.64361,1.92816 1.53661,4.09289 2.1622,6.12948 1.49088,1.97513 2.04523,4.4036 3.28637,6.5098 0.97946,1.66084 2.75127,2.52756 4.06398,3.87855 1.34246,1.2069 3.68923,2.34983 5.16791,0.75674 0.99752,-1.91948 3.47217,-3.2512 2.58257,-5.67909 l -0.0439,-0.34451 c -0.1685,-0.40927 -0.19748,-0.55898 -0.38932,-0.68806 -0.24427,-0.16435 -0.82679,0.28909 -0.95741,0.31464 -1.18492,0.23178 -0.72732,0.26964 -1.9388,0.50661 -0.13719,0.0268 -0.37623,-0.0742 -0.39202,-0.0507 -0.0611,0.0908 -0.16051,2.9814 -1.84552,1.63468 -0.50658,-0.40487 -1.96475,-1.64146 -2.5654,-2.04557 -0.48349,-0.32528 -2.04074,-4.02011 -2.57862,-4.71773 -0.19798,-0.25679 -0.005,-1.17542 -0.26395,-1.34943 -0.79689,-0.53613 -1.02078,-2.69721 -1.72528,-3.61096 -0.11375,-0.14758 -0.006,-0.46579 -0.11998,-0.61337 -0.92793,-1.20351 -3.1833,-8.39501 -2.65304,-10.30741 0.17418,-0.62818 -0.56828,-2.76245 -0.25318,-3.89891 0.0598,-0.21548 -0.20372,-0.52057 -0.14398,-0.73605 0.36673,-1.32262 -0.28058,-4.01652 0.41358,-5.04829 0.29444,-0.43763 -0.27794,-2.43703 -0.0372,-2.79484 0.29393,-0.43688 0.26731,-1.18903 0.57077,-1.64007 0.27747,-0.41242 0.80636,-1.04018 1.20815,-1.63738 0.39909,-0.59319 1.24826,1.15599 1.36803,1.13346 1.23753,-0.23269 2.62157,-0.57108 2.82153,-0.55191 z"
       id="path4182"
       inkscape:connector-curvature="0"
       sodipodi:nodetypes="ccccccccccccccsscssssccscssssssc" />
    <path
       style="fill:#6c7a50;fill-opacity:1;stroke:#000000;stroke-width:1px;stroke-linecap:butt;stroke-linejoin:miter;stroke-opacity:1"
       d="m 245.56188,159.48434 c -0.89961,-2.796 -3.60208,-4.84627 -5.40014,-4.16582 -1.65355,0.62576 -1.86137,2.98141 -2.71502,4.35214 -1.32641,2.12985 -1.63433,9.87697 -0.4594,15.88361 0.37985,1.94188 0.25246,5.08815 1.58913,6.82181 1.01058,1.31071 0.65044,4.1395 1.88787,5.74443 0.35993,0.46684 0.01,2.13716 0.47992,2.45351 0.47183,0.31744 2.46585,5.70717 4.13862,6.83259 0.15451,0.10395 2.13156,3.13085 2.48532,3.58966 0.68512,0.88859 4.61068,2.33075 5.53629,0.95497 1.58297,-1.05407 1.15356,-3.20803 1.93098,-4.45352 0.32894,-0.48891 0.0978,-1.88721 -0.18388,-2.89352 -1.086,0.0515 -2.56537,0.2785 -3.33623,0.52522 -0.38194,0.14217 -0.0921,1.7203 -0.35211,2.10678 -0.95304,1.2582 -2.57809,-0.93047 -3.0321,-1.82691 -0.43581,-0.86049 -1.62448,-2.47783 -2.1173,-3.66165 -0.46342,-1.16403 -2.72882,-5.09733 -2.59723,-6.11515 0.017,-0.13125 -0.4258,-3.20728 -0.52521,-3.33622 -0.49221,-0.63839 -1.24723,-5.74658 -0.95446,-6.18175 0.0205,-0.0305 -0.60196,-3.89633 -0.39715,-4.63496 0.30869,-1.1133 -1.05257,-2.68963 -0.74388,-3.80293 0.29106,-1.04972 -0.71416,-2.44558 -0.42654,-3.4829 0.16484,-0.59449 -0.1411,-1.16467 0.0321,-1.78944 0.29262,-1.05532 0.60055,-2.63438 1.11755,-3.40282 0.23925,-0.35561 1.26114,-0.0123 1.44541,0.22674 0.17815,0.23107 0.2325,0.68904 0.41332,0.81073 0.0158,0.0106 1.96702,-0.47618 2.18416,-0.5546 z"
       id="path4184"
       inkscape:connector-curvature="0"
       sodipodi:nodetypes="csssssssscccccscccsssscsscc" />
    <path
       sodipodi:nodetypes="cccccccccc"
       inkscape:connector-curvature="0"
       id="path3565"
       d="m 271.12658,153.41244 c -0.82889,-0.0674 -10.61253,1.92149 -12.6871,2.49502 -2.15195,0.9724 -2.48009,3.39063 -3.10619,5.43535 -0.73485,1.92458 -0.65781,4.14399 -0.47919,6.14207 -0.0959,2.70432 1.22396,10.80446 2.74053,15.94809 1.13403,3.51996 2.7004,5.63832 5.22942,8.40694 1.12425,1.1851 3.39897,2.10145 4.71488,2.42537 1.52182,-0.3529 15.78117,-2.59201 14.69399,-3.63408 -1.61015,-4.99839 -6.8922,-31.4582 -7.30084,-37.96338 z"
       style="fill:#6c7a50;fill-opacity:1;stroke:#000000;stroke-width:0.84578699px;stroke-linecap:butt;stroke-linejoin:miter;stroke-opacity:1" />
    <path
       style="fill:#6c7a50;fill-opacity:1;stroke:#000000;stroke-width:0.79029429px;stroke-linecap:butt;stroke-linejoin:miter;stroke-opacity:1"
       d="m 272.61039,153.69937 c -1.1325,1.33424 -1.13928,3.23628 -1.4901,4.8796 -0.663,3.48651 -0.83057,7.05365 -0.48444,10.58611 0.23125,3.16057 1.16111,6.20473 1.80508,9.29326 0.82643,3.86969 3.46535,6.94909 5.32846,10.34124 0.85306,1.29551 2.36525,2.82381 3.96135,2.56302 1.67946,0.0545 2.64356,-1.44107 3.21168,-2.8679 0.82854,-3.08342 0.8424,-6.31655 1.05623,-9.48599 0.10451,-3.01569 -0.81994,-5.94167 -1.11659,-8.9247 -0.79358,-3.9747 -1.80605,-7.93859 -3.38035,-11.68126 -1.10558,-2.41584 -2.99062,-4.55392 -5.40139,-5.69908 -1.0715,-0.40451 -2.76114,0.13719 -3.48995,0.9957 z"
       id="path3559"
       inkscape:connector-curvature="0"
       sodipodi:nodetypes="cccccccccccc" />
    <path
       style="fill:#ff0000;stroke:#000000;stroke-width:1px;stroke-linecap:butt;stroke-linejoin:miter;stroke-opacity:1"
       d="m 276.13442,158.85364 c -1.49783,1.01977 -1.17762,5.86964 -0.59208,8.61703 0.98767,4.02308 0.95889,8.2855 2.79787,12.07217 0.31759,1.74498 2.88526,6.74975 3.64332,2.68031 0.12732,-3.35757 -0.93366,-6.64001 -1.42425,-9.94602 -0.94982,-4.00609 -1.29406,-8.19947 -2.80434,-12.04613 -0.29612,-0.56225 -0.46976,-1.48591 -1.62052,-1.37736 z"
       id="path3593"
       inkscape:connector-curvature="0"
       sodipodi:nodetypes="ccccccc" />
    <path
       style="fill:#ff0000;fill-opacity:0.27058824;stroke:none"
       d="m 576.25,22.260985 c -9.97765,1.782084 -12.172,13.884256 -11.59375,22.4375 0.14293,3.331445 -0.0965,6.665817 -0.0937,10 -3.29383,-6.200624 -8.42515,-15.288783 -16.71875,-13.96875 -8.24316,1.893125 -11.44179,12.72666 -7.46875,19.75 1.01312,4.659518 2.27554,9.266702 3.5,13.875 -5.67655,-4.718805 -15.95975,-8.894147 -21.53125,-1.84375 -4.85514,6.835663 -0.62123,15.91753 5.15625,20.6875 2.52685,3.329319 5.65795,6.434856 8.59375,9.624995 -91.36994,19.7581 -181.12961,39.69975 -259.53125,56.375 -0.51496,2.76839 -0.64609,5.76219 -0.0937,8.46875 0.98768,4.02309 0.97352,8.27583 2.8125,12.0625 0.3107,1.70712 1.67606,3.65173 2.71875,3.96875 l 248.9375,-49.75 c -4.63579,8.20205 -8.48508,16.68859 -8.9375,26.15625 3.01835,9.71059 18.01944,8.96604 22.09375,0.46875 1.94,-0.81317 -1.87783,9.1324 -2.0625,12.34375 -2.86488,14.12415 -6.75724,28.72575 -5.65625,43.15625 3.97722,9.45833 20.31901,7.02792 21.625,-3.0625 6.90126,-17.14722 12.6405,-36.67951 18.71875,-52.875 2.10113,7.71272 5.55538,18.08445 14.5,19.5625 8.91194,0.12372 14.01182,-10.5071 11.375,-18.25 -1.17983,-6.34118 -0.3416,-7.78755 3.59375,-1.9375 10.24338,11.42318 19.81309,24.03246 32.9375,32.0625 9.96629,2.61137 17.98971,-12.1098 10.40625,-19.09375 -11.31181,-16.61594 -23.70219,-32.48907 -36,-48.4375 23.61658,-4.76764 48.03652,-7.14762 70.625,-15.625 8.66517,-6.37618 1.19781,-22.649272 -9.3125,-19.937495 -19.24572,0.785676 -38.32301,3.603617 -57.46875,5.53125 9.46537,-18.311626 20.14077,-36.419291 26.75,-56.03125 1.38492,-9.889991 -12.8651,-16.107732 -19.25,-8.46875 -6.81451,7.322472 -11.2786,16.275773 -17.40625,24.21875 -4.22318,6.394841 -8.36446,12.750706 -12.65625,19.15625 -2.61398,-16.004486 -3.11507,-33.287136 -11.03125,-47.65625 -1.95999,-1.952098 -4.75772,-3.137778 -7.53125,-2.96875 z"
       id="path4467"
       inkscape:connector-curvature="0" />
    <path
       style="fill:#ff0000;fill-opacity:0.71365638;stroke:none"
       d="m 577,37.073485 -2,67.874995 -0.0625,0 L 551,54.073485 l 14,52.999995 -32,-25.999995 23.96875,27.781245 -9.90625,2.15625 c -89.82132,19.66713 -180.20667,39.06553 -269.6875,58.84375 3.14598,1.76129 -3.57677,3.76682 1.0625,3.59375 87.68307,-17.49098 186.89835,-39.36626 276.71875,-58.15625 L 534,154.07348 l 32,-37 -19,92 31,-90 13,47 -5,-47 54,60 -47,-63 82,-16 -78,8 35,-68.999995 -44,64.999995 -11,-66.999995 z"
       id="path4475"
       inkscape:connector-curvature="0" />
    <path
       style="fill:#c4ccb2;fill-opacity:1;stroke:#000000;stroke-width:1px;stroke-linecap:butt;stroke-linejoin:miter;stroke-opacity:1"
       d="m 165.875,202.16723 c -2.2216,0.13758 -4.86902,1.19175 -8.09375,3.53125 -2.99866,2.17549 -2.95973,5.35757 -5.1875,8.46875 -2.78339,3.88713 -3.28995,20.5262 -4.875,25.65625 -0.63909,2.06849 0.4984,4.9119 0.15625,7.0625 -1.22156,7.67827 -0.50665,16.08518 -0.59375,23.90625 -0.7282,2.50944 -0.91933,5.62476 -1.03125,8.90625 1.14742,1.62507 1.85088,2.45568 3.25,4.46875 1.52332,2.19178 3.12769,4.46733 4.75,6.59375 0.94338,1.23653 1.82873,2.21325 2.75,3.28125 0.66301,0.7686 1.36664,1.71039 2,2.34375 1.09473,1.06364 1.75738,2.35649 2.375,3.3125 0.30881,0.478 0.61225,0.85638 0.96875,1.09375 0.3565,0.23737 0.76576,0.33324 1.28125,0.1875 0.61284,0 1.48415,-0.24974 2.34375,-0.40625 0.8596,-0.15651 1.70505,-0.24122 2.25,0.0312 0.69792,0.34896 1.58572,0.53546 2.53125,0.625 0.94553,0.0895 1.92676,0.0937 2.75,0.0937 2.58155,0 5.22224,0.34375 4.96875,0.34375 -0.16559,0 0.70348,-1.40697 1.40625,-2.8125 1.10486,-2.20973 3.47239,-5.19477 4.59375,-7.4375 0.42318,-0.84635 0.99694,-1.5981 1.5625,-2.34375 0.46115,-0.60799 0.93461,-1.21297 1.28125,-1.90625 1.27908,-2.55815 2.55975,-5.77873 4.03125,-8.875 0.73575,-1.54814 1.52301,-3.05616 2.375,-4.4375 0.75693,-1.22722 1.58621,-2.30415 2.46875,-3.25 -2.1524,-8.10521 -5.68985,-20.16486 -6.8125,-20.96875 -1.12942,-0.80872 -1.39393,-10.31156 -2.4375,-11.75 -1.98579,-2.73718 -1.1319,-7.18161 -2.71875,-10.1875 -1.78897,-3.38872 -1.71362,-8.50896 -3.90625,-11.53125 -4.73654,-6.52877 -7.7727,-14.41274 -14.4375,-14 z"
       id="path4473"
       inkscape:connector-curvature="0" />
    <path
       style="fill:none;stroke:#000000;stroke-width:1px;stroke-linecap:butt;stroke-linejoin:miter;stroke-opacity:1"
       d="m 142.39728,274.45105 c 2.8071,2.71842 10.56329,15.86659 16.61701,21.92031 2.18945,2.12727 2.53422,5.17913 4.59619,4.59619 1.22569,0 3.50629,-0.8985 4.59619,-0.35355 1.39584,0.69792 3.65681,0.70711 5.3033,0.70711 2.58155,0 5.20324,0.35355 4.94975,0.35355 -0.16559,0 0.71145,-1.4229 1.41422,-2.82843 1.10486,-2.20973 3.47483,-5.18189 4.59619,-7.42462 0.76823,-1.53645 2.05667,-2.69912 2.82843,-4.24264 2.55815,-5.11631 5.13776,-12.91594 9.19238,-16.97056 0.98183,-0.98183 2.82844,-4.24264 2.82844,-4.24264"
       id="path4509"
       inkscape:connector-curvature="0"
       sodipodi:nodetypes="cccsssssssc" />
    <path
       sodipodi:type="inkscape:offset"
       inkscape:radius="-0.97943842"
       inkscape:original="M 170.03125 180.9375 C 168.97377 181.49807 168.1898 183.84152 166.21875 183.03125 C 163.86931 183.34397 167.89147 186.90475 165 186.375 C 163.84752 188.82455 163.71159 191.73205 161.5 193.375 C 161.4477 196.84519 164.23773 201.00335 161.4375 203.96875 C 160.06735 206.57256 164.10648 210.25816 160.25 212.5 C 158.14869 215.28374 161.52998 218.94211 158.78125 221.46875 C 159.46733 224.55661 162.23988 227.84197 159.03125 230.4375 C 158.36052 233.95901 157.20199 237.4583 156.8125 240.84375 C 157.74067 243.28278 157.53932 245.59452 155.5 247.375 C 157.74751 249.52778 157.13185 251.96836 154.03125 252.59375 C 151.00969 254.2155 156.6044 257.4338 152.75 258.96875 C 155.44491 263.12555 159.32168 266.35537 161.84375 270.625 C 164.46887 272.11684 167.87327 269.83077 170.75 271.53125 C 173.7609 270.77491 178.70995 273.87154 179.59375 269.6875 C 181.39737 266.32388 183.69214 263.24051 185.59375 259.9375 C 189.08053 255.36049 190.3295 249.52715 193.40625 244.6875 C 195.7608 242.16223 196.59571 239.67261 194.96875 236.46875 C 193.32802 231.01782 192.07464 225.37525 189.625 220.21875 C 187.95216 217.67214 188.382 214.30879 187.71875 211.40625 C 186.80841 207.5262 185.05999 203.91369 184.875 199.8125 C 182.67821 195.59621 182.75857 190.55327 180.3125 186.46875 C 178.67398 181.89844 172.58421 186.11187 171.25 181.15625 C 170.7792 180.76209 170.38374 180.75064 170.03125 180.9375 z "
       style="fill:#bac3a4;fill-opacity:1;stroke:none"
       id="path4718"
       d="m 170.5,181.8125 c -0.11822,0.0627 -0.65001,0.7053 -1.34375,1.375 -0.34687,0.33485 -0.7974,0.69487 -1.375,0.875 -0.38217,0.11918 -0.83754,-0.0195 -1.28125,-0.0937 0.0407,0.15078 0.0832,0.35369 0.21875,0.6875 0.17827,0.43905 0.5257,0.83719 0.3125,1.6875 -0.1066,0.42516 -0.58209,0.88468 -1,1 -0.11787,0.0325 -0.23114,-0.0107 -0.34375,0 -0.39685,0.98567 -0.71579,2.0412 -1.125,3.15625 -0.41386,1.12771 -1.04393,2.26172 -2.03125,3.1875 0.0499,1.42412 0.59722,3.15958 0.9375,5 0.34737,1.87875 0.32281,4.0183 -1.15625,5.75 -0.20585,0.39119 -0.23302,0.85848 -0.125,1.5 0.10802,0.64152 0.33919,1.39592 0.53125,2.21875 0.19206,0.82283 0.34518,1.73444 0.0937,2.6875 -0.22445,0.85078 -0.85671,1.61932 -1.78125,2.25 -0.007,0.009 0.006,0.0226 0,0.0312 -0.751,1.02003 -0.55412,2.21725 -0.3125,3.8125 0.12184,0.8044 0.25184,1.67475 0.125,2.59375 -0.0987,0.71517 -0.44986,1.43219 -0.96875,2.09375 0.35139,1.27051 1.04835,2.70356 1.4375,4.28125 0.2116,0.85789 0.32709,1.78669 0.0937,2.71875 -0.20377,0.81394 -0.73163,1.56005 -1.46875,2.25 -0.683,3.47038 -1.74759,6.839 -2.125,9.96875 0.77632,2.30396 0.54813,4.7099 -1.09375,6.59375 0.82554,1.07188 1.30737,2.24555 1,3.375 -0.35716,1.31242 -1.60258,2.2167 -3.21875,2.625 l 0,0.0312 c -0.52548,0.28204 -0.45584,0.27333 -0.4375,0.53125 0.0183,0.25792 0.25244,0.78617 0.53125,1.40625 0.27881,0.62008 0.64017,1.33649 0.53125,2.25 -0.0684,0.57336 -0.45407,1.09262 -0.96875,1.53125 2.49468,3.54083 5.83012,6.63236 8.28125,10.625 0.95162,0.48196 2.16288,0.38613 3.65625,0.21875 1.44297,-0.16173 3.14196,-0.24527 4.78125,0.5625 1.82044,-0.32057 3.71602,0.17884 5.1875,0.3125 0.78643,0.0714 1.41403,0.0229 1.78125,-0.15625 0.36722,-0.17912 0.60355,-0.40874 0.78125,-1.25 a 0.97953637,0.97953637 0 0 1 0.0937,-0.28125 c 1.84932,-3.44885 4.16813,-6.5451 6.03125,-9.78125 a 0.97953637,0.97953637 0 0 1 0.0625,-0.0937 c 3.31201,-4.34759 4.57771,-10.14842 7.78125,-15.1875 a 0.97953637,0.97953637 0 0 1 0.0937,-0.125 c 1.10717,-1.18745 1.78401,-2.30192 2.03125,-3.40625 0.24724,-1.10433 0.11148,-2.26845 -0.625,-3.71875 a 0.97953637,0.97953637 0 0 1 -0.0625,-0.15625 c -1.64118,-5.45241 -2.87054,-11.00886 -5.21875,-16 -0.0268,-0.0408 -0.0366,-0.0839 -0.0625,-0.125 -1.83976,-2.91691 -1.40224,-6.38405 -2,-9 -0.84819,-3.61517 -2.45967,-7.21027 -2.75,-11.375 -0.0156,-0.03 -0.0158,-0.0637 -0.0312,-0.0937 -2.30169,-4.48535 -2.2564,-9.44108 -4.5,-13.1875 a 0.97953637,0.97953637 0 0 1 -0.0937,-0.15625 c -0.32845,-0.91614 -0.72696,-1.2561 -1.34375,-1.5 -0.61679,-0.2439 -1.48177,-0.30568 -2.4375,-0.375 -0.95573,-0.0693 -2.02304,-0.14505 -3.03125,-0.625 -0.88653,-0.42203 -1.58927,-1.29275 -2.03125,-2.46875 0.008,0.01 -0.0116,-0.0416 -0.0312,-0.0312 z"
       transform="translate(0,29.698485)" />
    <path
       style="fill:#b0ba97;fill-opacity:1;stroke:none"
       d="m 181.21875,294.85473 c 1.21639,-1.89563 2.44153,-3.82595 3.53125,-5.71875 a 0.97953637,0.97953637 0 0 1 0.0625,-0.0937 c 0.828,-1.0869 1.52178,-2.26606 2.15625,-3.5 0.63447,-1.23394 1.21582,-2.53198 1.78125,-3.84375 1.13087,-2.62354 2.24198,-5.32421 3.84375,-7.84375 a 0.97953637,0.97953637 0 0 1 0.0625,-0.0937 0.97953637,0.97953637 0 0 1 0.0312,-0.0312 c 0.55358,-0.59373 1.00524,-1.15366 1.34375,-1.71875 0.33851,-0.56509 0.56388,-1.13533 0.6875,-1.6875 0.12362,-0.55217 0.1576,-1.10839 0.0625,-1.71875 -0.0951,-0.61036 -0.31926,-1.27485 -0.6875,-2 a 0.97953637,0.97953637 0 0 1 -0.0312,-0.0937 0.97953637,0.97953637 0 0 1 -0.0312,-0.0625 c -0.82059,-2.7262 -1.53774,-5.49294 -2.34375,-8.1875 -0.80601,-2.69456 -1.70089,-5.31693 -2.875,-7.8125 -0.0268,-0.0408 -0.0366,-0.0839 -0.0625,-0.125 -0.45994,-0.72923 -0.77296,-1.50514 -1,-2.28125 -0.22704,-0.77611 -0.37109,-1.56455 -0.46875,-2.34375 -0.19531,-1.55839 -0.23237,-3.06703 -0.53125,-4.375 -0.42409,-1.80759 -1.04856,-3.59749 -1.59375,-5.46875 -0.0894,-0.3068 -0.10301,-0.65793 -0.1875,-0.96875 -0.74337,-1.07522 -2.27813,-3.00311 -2.96875,-2.3125 l -3.5,3.5 c -0.35355,0.35356 0,2.94462 0,3.5 0,1.35982 0.055,17.38998 0,17.5 -0.8602,1.7204 -1,3.40086 -1,5.5 0,5.94431 0.5,12.39606 0.5,18 0,3.22767 1.59914,8.19829 3,11 0.33333,0.66667 -0.33333,1.83334 0,2.5 0.10308,0.20616 0.13136,0.54676 0.21875,0.78125 z"
       id="path4733"
       inkscape:connector-curvature="0" />
  </g>
</svg>
