<?xml version="1.0" encoding="UTF-8" standalone="no"?>
<!-- Created with Inkscape (http://www.inkscape.org/) -->

<svg
   xmlns:dc="http://purl.org/dc/elements/1.1/"
   xmlns:cc="http://creativecommons.org/ns#"
   xmlns:rdf="http://www.w3.org/1999/02/22-rdf-syntax-ns#"
   xmlns:svg="http://www.w3.org/2000/svg"
   xmlns="http://www.w3.org/2000/svg"
   xmlns:sodipodi="http://sodipodi.sourceforge.net/DTD/sodipodi-0.dtd"
   xmlns:inkscape="http://www.inkscape.org/namespaces/inkscape"
   width="744.09448819"
   height="1052.3622047"
   id="svg2"
   version="1.1"
   inkscape:version="0.48.1 r9760"
   sodipodi:docname="lettuce.svg"
   inkscape:export-filename="/home/substack/media/vector/lettuce.png"
   inkscape:export-xdpi="100.0778"
   inkscape:export-ydpi="100.0778">
  <defs
     id="defs4">
    <linearGradient
       id="linearGradient4093">
      <stop
         style="stop-color:#bbe272;stop-opacity:1;"
         offset="0"
         id="stop4095" />
      <stop
         style="stop-color:#bbe272;stop-opacity:0;"
         offset="1"
         id="stop4097" />
    </linearGradient>
  </defs>
  <sodipodi:namedview
     id="base"
     pagecolor="#ffffff"
     bordercolor="#666666"
     borderopacity="1.0"
     inkscape:pageopacity="0.0"
     inkscape:pageshadow="2"
     inkscape:zoom="2"
     inkscape:cx="389.84246"
     inkscape:cy="477.75372"
     inkscape:document-units="px"
     inkscape:current-layer="layer1"
     showgrid="false"
     inkscape:window-width="1364"
     inkscape:window-height="766"
     inkscape:window-x="0"
     inkscape:window-y="0"
     inkscape:window-maximized="0" />
  <metadata
     id="metadata7">
    <rdf:RDF>
      <cc:Work
         rdf:about="">
        <dc:format>image/svg+xml</dc:format>
        <dc:type
           rdf:resource="http://purl.org/dc/dcmitype/StillImage" />
        <dc:title></dc:title>
      </cc:Work>
    </rdf:RDF>
  </metadata>
  <g
     inkscape:label="Layer 1"
     inkscape:groupmode="layer"
     id="layer1">
    <path
       style="fill:#98c83b;stroke:#000000;stroke-width:2;stroke-linecap:butt;stroke-linejoin:miter;stroke-opacity:1;fill-opacity:1;stroke-miterlimit:4;stroke-dasharray:none"
       d="m 240,426.6479 c -0.51458,-1.59053 4.77874,-5.49303 9.28571,-10 1.28995,-1.28995 4.16448,-2.02162 5,-2.85715 4.79895,-4.79894 11.40592,-8.54877 16.42858,-13.57143 1.72409,-1.72409 6.33097,-2.04526 7.85714,-3.57142 1.89511,-1.89511 43.983,-4.28572 49.28571,-4.28572 7.79084,0 28.03113,0.88827 31.42857,4.28572 1.81528,1.81527 5.8103,2.19086 8.57143,3.57142 0.30117,0.15059 1.05101,0.71429 0.71429,0.71429 -2.23256,0 4.13838,-0.14733 5.71428,1.42857 2.74352,2.74352 12.32846,4.47131 15,7.14286 2.72651,2.7265 7.28432,5.14145 10.71429,8.57143 10.50532,10.50532 19.95425,20.66854 30,30.71428 0.71328,0.71329 1.65103,3.30205 2.14286,4.28572 1.4584,2.9168 4.26273,4.95403 5.71428,7.85714 3.55998,7.11996 6.56704,15.13846 12.14286,20.71429 2.17467,2.17467 3.12944,7.41515 5,9.28571 1.90476,1.90476 -0.47619,8.09524 1.42857,10 4.08884,4.08884 3.73492,26.1016 0.71429,32.14286 -1.48654,2.97307 0.88403,29.11596 -1.42857,31.42857 -3.0453,3.04529 -5.94139,15.19413 -7.14286,20 -1.20175,4.80701 -5.07747,9.44065 -7.14286,13.57143 -2.02895,4.0579 -8.53542,9.2497 -12.14286,12.85714 -6.56006,6.56006 -12.05698,17.5618 -20,22.85714 -8.29546,5.53032 -16.30727,10.49866 -25,15.71429 -9.05992,5.43595 -17.0246,12.77831 -25.71428,18.57143 -11.11824,7.41216 -47.93322,10.68893 -60.71429,6.42857 -22.92398,-7.64133 -56.8792,-18.7584 -67.85714,-40.71429 -2.40109,-4.80218 -8.29009,-8.00874 -10.71429,-12.85714 -3.02773,-6.05548 -6.96078,-11.77872 -10,-17.85714 -1.73305,-3.46611 -5.41485,-5.82972 -7.14285,-9.28572 -1.15834,-2.31667 -8.14859,-18.86287 -8.57143,-19.28571 -4.83022,-4.83022 -9.26873,-40.76524 -6.42857,-49.28572 2.80335,-8.41004 1.58896,-18.8922 5.71428,-27.14285 1.77521,-3.55041 7.27237,-20.12952 8.57143,-21.42857 2.91289,-2.91289 6.16388,-8.04204 8.57143,-12.85715 4.74229,-9.48457 10.23237,-19.51808 16.42857,-25.71428 2.00345,-2.00345 4.63088,-3.20231 6.42857,-5 1.44865,-1.44865 2.4697,-4.33896 3.57143,-5 1.09946,-0.65968 3.06635,-0.25006 3.57143,-1.42857 1.04274,-2.43306 -3.34941,-4.39673 2.14286,-7.14286"
       id="path2991"
       inkscape:connector-curvature="0" />
    <path
       style="fill:#98c83b;stroke:#000000;stroke-width:2;stroke-linecap:butt;stroke-linejoin:miter;stroke-opacity:1;fill-opacity:1;stroke-miterlimit:4;stroke-dasharray:none"
       d="m 275.17134,658.79075 c -8.69109,-4.45737 -33.66335,-15.68453 -46.06863,-28.57142 -0.8574,-0.8907 -3.65236,-0.93701 -4.81314,-2.14286 -2.75807,-2.86514 -7.76061,-5.91905 -10.31388,-8.57143 -5.69002,-5.91093 -8.38476,-12.42057 -11.68905,-19.28572 -5.89705,-12.25197 -26.06518,-66.56009 -18.56498,-82.14285 1.63077,-3.38816 -0.29999,-8.66242 1.37519,-12.14286 1.94761,-4.04645 0.10466,-10.21744 2.06277,-14.28571 2.27156,-4.7195 4.62173,-8.6892 6.18833,-13.57143 2.0901,-6.51375 6.58171,-20.40866 10.31387,-24.28572 4.8221,-5.0093 9.28442,-12.502 13.75183,-17.14285 2.01325,-2.09141 4.93332,-2.98199 6.87592,-5 0.60313,-0.62656 1.45963,-2.94488 2.06278,-3.57143 6.71205,-6.97263 13.63404,-10.59194 19.25256,-16.42857 1.84284,-1.91439 -1.9293,8.13445 0.68759,13.57142 2.2698,4.71584 3.40349,9.24992 6.87591,12.85715 1.06241,1.10365 3.31272,0.58417 4.12555,1.42857 0.58709,0.60988 3.24654,2.14286 4.12555,2.14286 18.86519,0 33.23272,-11.19002 48.819,-19.28572 3.11372,-1.6173 7.61207,1.47902 8.93869,2.85714 1.1054,1.14832 9.45082,3.12315 11.68906,4.28572 6.1783,3.20908 17.74047,13.4292 22.00293,17.85714 2.43399,2.52848 8.38586,2.28286 10.31387,4.28572 1.74187,1.80949 29.0027,-6.29991 30.94162,-4.28572 3.72451,3.86911 6.4046,11.65324 11.00146,16.42857 1.60431,1.66659 2.09301,5.74569 3.43796,7.14286 1.52067,1.5797 1.49962,12.27213 6.87592,17.85714 5.244,5.44759 24.80212,-1.04607 30.94162,2.14286 6.2505,3.24658 12.4669,8.66518 17.18979,13.57143 0.5375,0.55837 -0.59808,1.24261 -0.6876,1.42857 -0.50933,1.05823 0,3.79075 0,5 0,2.79105 1.67504,7.23415 0.6876,9.28571 -1.77137,3.68029 -2.06278,9.23452 -2.06278,14.28572 0,1.80511 -0.0204,22.16403 -0.68758,22.85714 -2.3979,2.49099 -5.55734,20.1176 -8.2511,25.71429 -3.26394,6.7813 -9.10064,20.16824 -13.75184,25 -3.21871,3.34367 -3.34808,9.19235 -6.87591,12.85714 -1.09664,1.13921 -3.02892,1.00365 -4.12555,2.14286 -7.13942,7.41659 -14.11659,13.95034 -21.31534,21.42857 -3.10808,3.22875 -9.84927,4.40153 -13.75183,6.42857 -4.7904,2.48818 -7.40675,5.99001 -12.37665,8.57143 -7.03483,3.65397 -16.34019,7.05871 -23.37811,10.71429 -2.49596,1.29642 -6.20719,-0.70449 -8.93869,0.71428 -8.34391,4.33392 -33.22011,2.7451 -39.88031,-0.71428 -1.941,-1.00818 -13.64598,-1.31861 -14.43942,-2.14286 -2.72497,-2.83076 -13.83049,-9.28572 -18.56498,-9.28572 z"
       id="path2989"
       inkscape:connector-curvature="0" />
    <path
       style="fill:#b0dd5b;fill-opacity:1;stroke:#000000;stroke-width:2;stroke-linecap:butt;stroke-linejoin:miter;stroke-opacity:1;stroke-miterlimit:4;stroke-dasharray:none"
       d="m 337.85714,673.79075 c 9.48657,0.34976 30.57252,-4.21482 45,-11.42857 6.39224,-3.19612 15.39475,-3.96618 20,-8.57143 1.9264,-1.92639 4.60194,-3.17336 7.14286,-5.71428 3.76429,-3.7643 6.29664,-9.93404 10.71429,-12.14286 3.00971,-1.50486 7.19129,-4.33415 9.28571,-6.42857 2.77424,-2.77424 6.1643,-6.1643 9.28571,-9.28571 1.91012,-1.91012 3.02422,-5.16708 4.28572,-6.42858 1.89623,-1.89623 0.90601,-7.33457 2.85714,-9.28571 6.07105,-6.07105 9.60094,-32.94098 5.71429,-40.71429 -1.07782,-2.15563 0.0991,-4.90092 -1.42857,-6.42857 -1.00285,-1.00284 -1.32353,-7.75209 -2.85715,-9.28571 -5.06399,-5.064 -33.82627,13.31658 -37.14285,10 -2.28523,-2.28523 -5.20585,-3.77728 -7.14286,-5.71429 -0.95009,-0.95009 -1.45909,-5.06104 -2.14286,-6.42857 -1.98161,-3.96323 -6.10192,-6.48957 -7.85714,-10 -1.61822,-3.23643 -2.52897,-8.95754 -5,-11.42857 -3.93768,-3.93768 -9.89942,-9.89942 -13.57143,-13.57143 -0.66983,-0.66983 -8.07246,5.21532 -8.57143,5.71429 -5.74705,5.74705 -16.639,22.14285 -29.28571,22.14285 -14.67543,0 -30.30273,-31.84013 -38.57143,-23.57143 -4.38556,4.38557 -9.19493,10.53273 -12.14286,16.42858 -3.11389,6.22778 -4.3369,15.05119 -8.57143,19.28571 -3.75549,3.7555 -22.56422,-3.86435 -26.42857,0 -3.22749,3.2275 -3.80156,40.96831 -1.42857,45.71429 0.56302,1.12604 2.62489,7.37511 2.14286,7.85714 -0.38683,0.38683 -21.30959,-4.4047 -24.28572,-1.42857 -0.59523,0.59524 -0.11904,2.2619 -0.71428,2.85714 -0.28094,0.28094 5.71378,25.71378 6.42857,26.42857 0.53991,0.53992 1.42857,0.30986 1.42857,1.42857 0,1.82608 3.09504,6.66647 4.28571,7.85715 0.6867,0.68669 0.51179,2.65464 1.42858,3.57143 4.07933,4.07933 6.7049,9.56204 10,12.85714 3.36698,3.36699 14.9851,7.12796 19.28571,11.42857 1.28044,1.28044 5.26959,1.69816 6.42857,2.85714 1.39051,1.39051 25.13539,2.21056 27.85714,3.57143 2.26046,1.13023 29.7138,1.00049 30,0.71429 0.16836,-0.16836 0,-0.47619 0,-0.71429 1.19048,-0.71428 2.38096,-1.42857 3.57143,-2.14286 z"
       id="path2987"
       inkscape:connector-curvature="0" />
    <path
       style="fill:#98c83b;fill-opacity:1;stroke:#000000;stroke-width:2;stroke-linecap:butt;stroke-linejoin:miter;stroke-opacity:1;stroke-miterlimit:4;stroke-dasharray:none"
       d="m 455.37677,544.65952 c 2.20235,-8.17676 13.80887,15.88961 9.19239,20.50609 -1.55869,1.55869 -2.95288,4.49155 -4.24264,7.07107 -2.06314,4.12627 3.53553,7.3884 3.53553,9.8995 0,1.36999 -11.27334,15.55634 -12.02081,15.55634 -0.8659,0 1.15064,-2.38488 0,-3.53553 -0.66677,-0.66677 -2.25002,-5.39947 -1.41422,-7.07107 0.41637,-0.83273 1.71153,-1.71152 2.12132,-2.12132 4.59054,-4.59054 -4.79543,-12.57361 -6.36396,-14.14213 -0.65157,-0.65158 1.522,-7.28665 2.12132,-8.48528 0.90869,-1.81737 -2.12132,-6.08686 -2.12132,-8.48529 0,-0.29116 0.18718,-1.93414 0,-2.12132 -2.79746,-2.79746 -13.80199,12.72793 -14.84924,12.72793 -0.52705,0 -0.33443,-1.04154 -0.70711,-1.41422 -0.57272,-0.57272 -2.34342,-1.17171 -2.82842,-1.41421 -1.8797,-0.93985 -1.26058,-2.6748 -2.12132,-3.53554 -0.75636,-0.75635 -2.82263,-0.7013 -2.82843,-0.7071 -2.4805,-2.4805 -3.27966,-2.3772 -6.36396,0.7071 -1.46474,1.46475 -1.94687,-1.94687 -2.12132,-2.12132 -5.48005,-5.48004 -2.12415,-10.60943 -4.94975,-13.43502 -1.38269,-1.3827 -4.44256,-1.61414 -5.65685,-2.82843 -1.10644,-1.10644 -0.2194,-4.46204 -1.41422,-5.65686 -0.98976,-0.98976 -3.47662,-3.4177 -2.12132,-0.7071"
       id="path4251"
       inkscape:connector-curvature="0" />
    <path
       style="fill:#9cb638;stroke:none;stroke-width:2;stroke-linecap:butt;stroke-linejoin:miter;stroke-opacity:1;fill-opacity:1;stroke-miterlimit:4;stroke-dasharray:none"
       d="m 390.5,512.86218 c 0.71772,1.33518 -0.56893,1.43108 2,4 0.87218,0.87218 5.92651,0.92651 7.5,2.5 3.25165,3.25165 6.47099,6.47099 9.5,9.5 1.72681,1.72681 4.6718,15.1718 5.5,16 3.88546,3.88547 7.96274,0.46274 11,3.5 2.30227,2.30227 14.16157,-13.33843 13,-14.5 -0.58424,-0.58424 -2.01975,0.5 -2.5,0.5 -2.57241,0 -14.62036,-1.56018 -16.5,-2.5 -4.35431,-2.17715 -7.05174,-6.55174 -10.5,-10 -1.54808,-1.54808 -3.72576,-2.72576 -5,-4 -2.28057,-2.28057 -10.66742,-3.66697 -14,-5 z"
       id="path4449"
       inkscape:connector-curvature="0" />
    <path
       style="fill:#c8b0b0;stroke:#000000;stroke-width:2;stroke-linecap:butt;stroke-linejoin:miter;stroke-opacity:1;fill-opacity:0.38596490000000000;stroke-miterlimit:4;stroke-dasharray:none"
       d="m 261.65602,542.37478 c 5.76691,-0.6323 13.39891,-0.36352 17.0801,-0.72663 11.03446,-1.08844 22.17325,-1.80573 33.40966,-2.91405 3.05137,-0.30097 8.49764,-3.15915 11.76593,-1.95921 1.32589,0.48679 0.12197,4.98364 1.45147,6.03761 1.40816,1.1163 0.56917,7.84044 1.28578,8.94587 1.6756,2.5847 2.0922,22.11679 0.62079,23.84697 -1.28797,1.51451 -2.63433,2.64534 -4.23723,4.53017 -1.49899,1.76263 -8.16631,2.30514 -10.21902,4.71889 -0.70151,0.82489 -3.48601,-0.008 -4.18753,0.81714 -1.78652,2.10076 -17.18175,5.59812 -20.14583,3.24835 -0.76352,-0.60526 -19.87499,0.80277 -22.74743,-1.47435 -1.60138,-1.26948 -3.68581,-1.39352 -5.41206,-2.76198 -0.90556,-0.71789 -2.10421,-2.43544 -3.31008,-3.39137 -0.32039,-0.25399 -0.2992,-1.75476 -0.61959,-2.00874 -6.07007,-4.81205 -8.88968,-30.90458 -8.06957,-34.6275 1.45897,-0.43404 5.44498,0.33748 7.18248,-0.72345 1.31204,-0.80109 3.53081,-1.27036 6.15213,-1.55777 z"
       id="path4500" />
    <path
       style="fill:#c0e877;stroke:none;stroke-width:2;stroke-linecap:butt;stroke-linejoin:miter;stroke-opacity:1;fill-opacity:1;stroke-miterlimit:4;stroke-dasharray:none"
       d="m 357.14286,667.36218 c 2.37023,-0.94758 27.23224,-4.37509 33.57143,-10.71428 1.50403,-1.50404 4.86362,-0.57791 6.42857,-2.14286 7.96408,-7.96408 13.97815,-13.97815 23.57143,-23.57143 1.14648,-1.14648 3.94305,-1.8002 5.71428,-3.57143 0.8728,-0.8728 1.54881,-2.97737 2.14286,-3.57143 1.11653,-1.11653 3.5363,-1.39344 4.28571,-2.14285 3.88106,-3.88106 7.58849,-8.74841 10,-13.57143 1.60582,-3.21164 3.78204,-22.64654 0.71429,-25.71429 -10.31398,-10.31397 -17.56908,8.00118 -27.85714,2.85714 -1.30033,-0.65016 -7.75519,-4.38766 -9.28572,-2.85714 -0.95671,0.95672 -7.84799,4.29029 -9.28571,3.57143 -10.25917,-5.12958 -13.11922,-14.7739 -25,-20.71429 -11.55539,-5.77769 -29.50752,16.67482 -37.14286,12.85715 -6.78285,-3.39143 -16.03532,-13.2504 -23.57143,-5.71429 -7.34057,7.34058 4.36511,23.49204 0,27.85714 -5.24142,5.24143 -17.12107,2.12108 -20.71428,5.71429 -0.45544,0.45543 0.008,17.84882 -3.57143,21.42857 -5.24847,5.24847 -14.84374,-1.0268 -20,9.28572 -1.23561,2.47121 2.14285,8.97132 2.14285,12.14285 0,2.95258 -4.28211,7.14646 -0.71428,10.71429 1.44512,1.44512 2.96305,3.67734 4.28571,5 2.24041,2.24041 17.04499,2.75928 20,5.71429 1.19036,1.19035 5.99598,0.49798 7.85715,1.42857 3.90463,1.95232 7.28709,-0.64217 11.42857,1.42857 3.18224,1.59112 9.08358,-1.42857 12.14285,-1.42857 0.20273,0 4.73964,2.40322 5.71429,1.42857 3.55662,-3.55662 17.72923,-1.30066 19.28571,-2.85714 1.6382,-1.6382 4.90161,-2.26604 7.85715,-2.85715 z"
       id="path4101"
       inkscape:connector-curvature="0" />
    <path
       style="fill:#cff191;fill-opacity:1;stroke:none;stroke-width:2;stroke-miterlimit:4;stroke-dasharray:none"
       d="m 377.85715,659.50504 c 3.23726,-0.391 20.63112,-3.48826 26.42857,-9.28571 1.18361,-1.18361 2.18203,-3.6106 3.57143,-5 0.60943,-0.60943 2.91195,-2.25247 3.57143,-3.57143 1.25276,-2.50552 9.22147,-17.07862 9.28571,-17.14286 0.35641,-0.35641 0,-3.01213 0,-3.57142 0,-8.21835 -4.43949,-11.42858 -12.85714,-11.42858 -4.63943,0 -15.11827,6.3103 -19.28572,2.14286 -0.59523,-0.59524 -2.97619,0.59524 -3.57143,0 -4.16147,-4.16147 -17.88642,-17.11358 -25.71428,-9.28571 -1.57005,1.57005 -5.77239,0.77239 -7.14286,2.14285 -3.54518,3.54519 -6.65436,7.36865 -9.28571,10 -3.07536,3.07536 -10.84354,-2.01361 -12.85715,0 -3.30858,3.30859 -6.72927,8.45855 -9.28571,13.57143 -1.56479,3.12959 1.32788,15.1007 -0.71429,17.14286 -1.36292,1.36292 -13.37725,14.47989 -11.42857,16.42857 1.55639,1.55639 1.90909,5.48052 3.57143,7.14286 4.30267,4.30266 27.42715,5.42999 31.42857,1.42857 1.79241,-1.79241 8.11421,-0.25707 10,-2.14286 1.86527,-1.86526 14.72969,-0.44397 17.14286,-2.85714 1.3681,-1.3681 4.55401,-3.64321 7.14286,-5.71429 z"
       id="path4103"
       inkscape:connector-curvature="0" />
    <path
       style="fill:#eff9dc;stroke:none;stroke-width:2;stroke-linecap:butt;stroke-linejoin:miter;stroke-opacity:1;fill-opacity:1;stroke-miterlimit:4;stroke-dasharray:none"
       d="m 363.57143,668.07647 c 0.46229,-1.88386 -15.53482,3.7509 -20,-0.71429 -1.66667,-1.66666 -8.33333,1.66667 -10,0 -0.35684,-0.35684 -6.60406,-1.96736 -6.42857,-2.14285 0.92259,-0.9226 13.08975,-3.08976 15.71428,-5.71429 0.83805,-0.83805 -1.42857,-5.62371 -1.42857,-7.14286 0,-6.57124 -2.46816,-15.3253 -6.42857,-19.28571 -0.12698,-0.12698 -3.01038,-7.14286 -2.85714,-7.14286 4.82905,0 7.60792,14.75078 10,17.14286 3.10274,3.10274 5.32048,3.01738 9.28571,5 1.13442,0.56721 4.24119,1.45083 5.71429,0.71428 10.1057,-5.05285 5.71428,-15.07318 5.71428,-25 0,-6.31024 2.43726,-15.2944 1.42857,-14.28571 -0.27065,0.27066 3.54729,21.40443 4.28572,22.14286 1.2332,1.2332 4.11605,3.2321 5,5 0.68563,1.37126 2.05657,2.22914 2.85714,1.42857 0.54297,-0.54297 2.82208,-0.33961 3.57143,-0.71429 2.38978,-1.19489 4.07884,-3.82513 6.42857,-5 2.39569,-1.19784 6.26211,-8.84534 11.42857,-11.42857 1.37713,-0.68856 5.46374,-4.53627 7.14286,-2.85714 0.79006,0.79006 -2.49186,3.55515 -2.85714,4.28571 -0.40292,0.80584 -5.31129,11.83157 -2.85715,14.28572 3.45972,3.45971 9.64177,-1.07253 10,-0.71429 0.16332,0.16332 -4.20432,14.20433 -5,15 -2.71012,2.71012 -8.69113,0.83399 -11.42857,3.57143 -5.16773,5.16773 -19.26352,9.56255 -29.28571,13.57143 z"
       id="path4120"
       inkscape:connector-curvature="0" />
    <path
       style="fill:#f09b6f;fill-opacity:1;stroke:#000000;stroke-width:2;stroke-linecap:butt;stroke-linejoin:miter;stroke-opacity:1;stroke-miterlimit:4;stroke-dasharray:none"
       d="m 364.2182,670.1145 c 3.76218,-1.42238 8.0295,-4.15556 11.85675,-4.42963 2.4445,-0.17505 7.02341,-1.16475 8.39646,-2.74962 1.26787,-1.46346 14.57157,-3.7065 16.0805,-5.44822 3.1207,-3.60212 -3.37123,-4.92545 -4.73394,-6.10604 -0.99704,-0.86378 -4.93502,0.69754 -5.64867,1.12063 -1.87483,1.11146 -5.16609,0.0918 -7.0736,1.22265 -7.75884,4.59973 -14.15766,6.31417 -19.18362,12.11547 -0.93542,1.07972 0.20408,2.84984 0.30612,4.27476 z"
       id="path4133"
       inkscape:connector-curvature="0" />
    <path
       style="fill:#6c5353;stroke:#000000;stroke-width:2;stroke-linecap:butt;stroke-linejoin:miter;stroke-opacity:1;fill-opacity:1;stroke-miterlimit:4;stroke-dasharray:none"
       d="m 243,540.86218 c -4.2764,-0.43788 -8.22755,2 -12,2 -2.77269,0 -5.27696,1 -8.5,1 -3.22986,0 -7.57999,-0.5 -10,-0.5 -1.44122,0 -3.55625,0 -3,0 0.83333,0 0,1.66667 0,2.5 0,2.68611 1,2.87909 1,4.5 0,1.81611 0.5,3.82285 0.5,3.5 0,-0.81286 8.77501,-1.5 10.5,-1.5 3.93394,0 20,-1.21669 20,-2 0,-0.84983 1.89907,1.10093 2.5,0.5 1.3023,-1.3023 -0.65051,-8.60202 -1,-10 z"
       id="path4466"
       inkscape:connector-curvature="0" />
    <path
       style="fill:#98c83b;stroke:#000000;stroke-width:2;stroke-linecap:butt;stroke-linejoin:miter;stroke-opacity:1;fill-opacity:1;stroke-miterlimit:4;stroke-dasharray:none"
       d="m 198.69701,466.17066 c -1.54404,0.0783 -8.06217,17.25455 -14.14214,23.33452 -2.67911,2.67912 -3.06844,8.7253 -5.65685,11.31371 -1.66841,1.66841 -1.53866,8.60972 -3.53554,10.6066 -0.85412,0.85413 3.26925,15.82264 2.12132,16.97057 -1.78924,1.78924 -2.69787,4.81919 -4.24264,6.36396 -0.62952,0.62952 -4.47593,28.75808 -2.82843,30.40559 1.91597,1.91597 2.31151,6.55414 4.24264,8.48528 2.70999,2.70999 4.9397,4.93969 7.77818,7.77818 1.64983,1.64983 2.15241,5.68794 3.53553,7.07106 3.22321,3.22321 -3.56945,12.69401 0,16.26346 3.8264,3.8264 12.94302,3.04352 16.97057,7.07107 1.4057,1.4057 1.78946,8.15342 2.82842,9.19239 1.09256,1.09256 3.40673,0.5783 4.24264,1.41421 0.47542,0.47542 1.09874,1.02258 2.12132,0 3.88368,-3.88368 0.45213,-12.21797 2.82843,-16.97056 1.0904,-2.18081 8.48631,-7.07004 6.36396,-9.19239 -2.79408,-2.79408 -9.19239,-8.38855 -9.19239,-13.43503 0,-6.48863 2.15011,-21.2132 8.48529,-21.2132 4.10737,0 7.46428,8.79917 12.72792,3.53553 0.7071,-0.70711 -0.70711,-3.53553 0,-4.24264 0.47645,-0.47645 3.8598,-3.91837 2.12132,-5.65685 -4.53557,-4.53557 -4.19559,-21.96737 0.7071,-26.87006 0.17922,-0.17922 2.80936,-2.82843 2.82843,-2.82843 3.7433,0 8.89518,6.77386 10.6066,8.48528 0.7499,0.74989 9.61838,-1.8402 9.8995,-2.12132 1.72577,-1.72577 2.8083,-7.77817 2.82843,-7.77817 1.62761,0 4.87901,4.92617 7.07106,5.65685 4.2798,1.4266 8.89862,-0.41333 12.02082,-3.53553 0.90757,-0.90757 0.73442,-2.85574 1.41421,-3.53554 1.50774,-1.50773 -3.83262,-7.36815 -4.94974,-8.48528 -0.35705,-0.35705 -3.53554,-3.44532 -3.53554,-3.53553 0,-4.28162 4.50266,-0.18708 -0.70711,-10.6066 -1.89688,-3.79378 -9.89949,-6.04051 -9.89949,-9.8995 0,-1.07273 0.0105,-5.66734 0.70711,-6.36396 3.41265,-3.41265 22.72086,16.17001 27.57716,11.31371 1.79232,-1.79232 4.17617,0.74034 5.65685,0 2.19246,-1.09623 1.59123,-6.09891 3.53554,-7.07107 2.71211,-1.35605 8.31263,4.41529 12.02081,0.70711 3.88362,-3.88362 -7.27476,-8.98869 -3.53553,-12.72792 1.51063,-1.51063 10.62778,-5.99982 12.72792,-4.94975 0.97492,0.48745 6.12788,3.77162 7.77818,2.12132 2.80984,-2.80985 1.86321,-7.64912 6.36396,-9.8995 8.22197,-4.11098 14.24695,6.96626 20.50609,0.70711 0.46357,-0.46356 2.47417,-0.35284 2.82843,-0.70711 0.99574,-0.99573 -0.99573,-1.83269 0,-2.82842"
       id="path4165"
       inkscape:connector-curvature="0" />
    <path
       style="fill:none;stroke:#000000;stroke-width:2;stroke-linecap:butt;stroke-linejoin:miter;stroke-opacity:1;stroke-miterlimit:4;stroke-dasharray:none"
       d="m 438.4062,572.94378 c -1.53174,0.91009 -2.51194,0.78126 -4.94974,5.65686 -1.39154,2.78307 2.41515,12.43409 0,14.84924 -2.93383,2.93383 -2.79635,11.95665 -4.94975,16.26346 -1.94617,3.89233 -5.80282,6.65588 -7.77818,10.6066"
       id="path4367"
       inkscape:connector-curvature="0" />
    <path
       style="fill:none;stroke:#000000;stroke-width:2;stroke-linecap:butt;stroke-linejoin:miter;stroke-opacity:1;stroke-miterlimit:4;stroke-dasharray:none"
       d="m 391.73716,631.63365 c 0.72483,-2.35065 0.6138,-3.44223 5.65685,-8.48528 4.40799,-4.40799 15.81206,-11.96081 13.43503,-19.09189 -3.79363,-11.38088 -30.19455,-29.20242 -18.38478,-41.01219"
       id="path4331"
       inkscape:connector-curvature="0" />
    <path
       style="fill:none;stroke:#000000;stroke-width:2;stroke-linecap:butt;stroke-linejoin:miter;stroke-opacity:1;stroke-miterlimit:4;stroke-dasharray:none"
       d="m 369.81685,558.80165 c -1.47936,8.26183 5.78554,37.60534 9.19238,41.01219 1.84115,1.84115 1.34452,13.29564 2.82843,16.26346 1.51752,3.03503 2.09255,11.34248 0,13.43503 -1.30808,1.30808 -0.18671,11.50042 -2.12132,13.43503"
       id="path4333"
       inkscape:connector-curvature="0" />
    <path
       style="fill:none;stroke:#000000;stroke-width:2;stroke-linecap:butt;stroke-linejoin:miter;stroke-opacity:1;stroke-miterlimit:4;stroke-dasharray:none"
       d="m 334.46151,548.90215 c -1.08298,9.39736 0.70867,19.80056 10.6066,29.69849 1.53206,1.53206 0.58925,5.539 2.12132,7.07107 0.43224,0.43224 -2.117,19.80763 -0.70711,22.62741"
       id="path4329"
       inkscape:connector-curvature="0" />
    <path
       style="fill:none;stroke:#000000;stroke-width:2;stroke-linecap:butt;stroke-linejoin:miter;stroke-opacity:1;stroke-miterlimit:4;stroke-dasharray:none"
       d="m 304.76302,632.34075 c -6.00868,-2.1747 -26.49186,-17.62839 -33.94112,-32.52691 -2.64663,-5.29326 -3.11361,-11.17695 -5.65686,-16.26345 -0.4714,-0.94281 0.47141,-2.59273 0,-3.53554 -1.91734,-3.83469 -0.86311,-11.15769 1.41422,-13.43503"
       id="path4365"
       inkscape:connector-curvature="0" />
    <path
       style="fill:none;stroke:#000000;stroke-width:2;stroke-linecap:butt;stroke-linejoin:miter;stroke-opacity:1;stroke-miterlimit:4;stroke-dasharray:none"
       d="m 343.6539,647.19 c -8.00815,-8.64813 -14.64219,-18.42775 -21.21321,-28.28427 -3.45831,-5.18747 -10.09182,-10.47648 -12.02081,-16.26346 -0.3577,-1.07311 -2.75831,-2.3697 -3.53554,-3.53553 -4.43708,-6.65563 -12.14604,-12.27127 -15.55635,-19.09189 -1.53305,-3.06611 -1.08799,-6.09241 -2.12132,-9.19239 -0.93824,-2.81473 -2.12132,-7.69244 -2.12132,-9.19238"
       id="path4361"
       inkscape:connector-curvature="0" />
    <path
       style="fill:#6c5353;stroke:#000000;stroke-width:2;stroke-linecap:butt;stroke-linejoin:miter;stroke-opacity:1;stroke-miterlimit:4;stroke-dasharray:none"
       d="m 283.19973,533.29212 c -3.75267,0.36622 -6.81319,0.87331 -7.26929,1.39238 -0.75238,0.85629 -19.01467,3.10824 -22.2968,3.41156 -4.59016,0.42417 -11.77261,1.98942 -11.87115,5.1439 -0.0854,2.73233 0.12851,5.62795 0.2393,6.76202 0.68565,7.01706 -1.47554,10.45313 2.09736,16.96747 0.0673,2.6351 1.51799,14.32286 6.45958,18.11156 0.38429,0.29464 0.18635,1.24792 0.5706,1.54256 l 6.45854,4.94582 c 2.12402,1.62849 9.19788,1.92467 10.99952,3.30598 0.30743,0.23571 1.37081,-0.41214 1.67825,-0.17637 2.50391,1.91975 16.83743,-1.10443 20.05041,0.0296 1.79074,0.63203 17.96714,-1.56295 18.55575,-2.23286 0.0504,-0.0573 13.34388,-2.05306 15.8718,-3.55331 4.69394,-2.78569 6.24967,-5.80342 9.32834,-9.30719 1.11138,-1.26484 -0.48617,-5.61426 0.59983,-6.85021 3.22344,-3.66851 1.07275,-15.36959 0.46656,-21.57316 -0.0936,-0.95769 -0.13386,-3.24278 -0.23455,-5.81986 0.58204,-0.11155 1.3304,-0.2655 1.57196,-0.29089 2.06189,-0.21669 16.19806,-1.01409 23.71791,-1.54989 -0.0648,3.2846 0.51165,7.96938 1.1091,9.05869 -0.54197,0.38815 0.0618,17.61904 4.60582,21.10295 0.23059,0.17679 -0.10626,1.00417 0.12411,1.18099 4.04699,3.10283 9.20505,6.86538 14.94879,8.89257 1.89787,0.66983 4.71093,-0.61834 6.8323,0.13038 3.37735,1.19201 7.4747,0.53569 10.83294,1.72096 3.38757,1.1956 13.77814,-2.77233 17.76721,-1.36443 1.6971,0.59897 4.47838,-1.85654 5.85767,-1.36972 0.80045,0.28249 6.13792,0.92064 6.8323,0.13038 1.25102,-1.42377 5.89112,-0.57598 7.05836,-1.9044 1.92245,-2.18789 9.01899,-3.63444 10.58554,-5.41727 l 6.11543,-6.98995 c 0.59318,-0.67508 0.16815,-1.93693 0.62198,-2.45344 1.36961,-1.55872 3.459,-10.3651 1.23074,-13.70368 -1.79515,-2.68965 0.20206,-9.35957 -2.3862,-11.34399 -1.25132,-0.95939 -1.14275,-14.01028 -3.24421,-15.62148 -0.84545,-0.6482 0.41928,-3.70609 -0.42623,-4.3543 -2.14203,-1.6423 -7.79293,0.36847 -11.01983,0.68676 -2.56314,0.25287 -27.66105,0.73261 -29.43116,0.10787 -0.17049,-0.0603 -0.53974,-0.0669 -1.10082,-0.01 -3.92759,0.39817 -16.16609,3.31979 -19.00908,3.60022 -2.70086,0.26644 -13.68679,-0.71087 -15.64573,1.51854 -0.66027,0.75143 -11.43052,0.74259 -12.20914,1.62872 -0.19646,0.22358 -0.34048,0.48258 -0.45322,0.77034 -3.0876,0.28306 -7.66616,0.51825 -10.14824,2.10342 -1.2893,0.82342 -9.06124,0.44951 -10.99201,0.65242 -2.5895,0.27213 -4.71971,0.48464 -6.3679,0.70058 -4.0275,-2.30911 -12.13894,-1.4816 -18.22318,-0.88146 -1.14495,0.11328 -6.38727,1.33308 -7.18248,0.72345 -1.85833,-1.42476 -5.62853,0.87812 -8.10653,0.004 -1.16463,-0.41104 -9.3159,-0.16859 -15.5703,0.44226 z m -21.54371,9.08266 c 5.76691,-0.6323 13.39891,-0.36352 17.0801,-0.72663 11.03446,-1.08844 22.17325,-1.80573 33.40966,-2.91405 3.05137,-0.30097 8.49764,-3.15915 11.76593,-1.95921 1.32589,0.48679 0.12197,4.98364 1.45147,6.03761 1.40816,1.1163 0.56917,7.84044 1.28578,8.94587 1.6756,2.5847 2.0922,22.11679 0.62079,23.84697 -1.28797,1.51451 -2.63433,2.64534 -4.23723,4.53017 -1.49899,1.76263 -8.16631,2.30514 -10.21902,4.71889 -0.70151,0.82489 -3.48601,-0.008 -4.18753,0.81714 -1.78652,2.10076 -17.18175,5.59812 -20.14583,3.24835 -0.76352,-0.60526 -19.87499,0.80277 -22.74743,-1.47435 -1.60138,-1.26948 -3.68581,-1.39352 -5.41206,-2.76198 -0.90556,-0.71789 -2.10421,-2.43544 -3.31008,-3.39137 -0.32039,-0.25399 -0.2992,-1.75476 -0.61959,-2.00874 -6.07007,-4.81205 -8.88968,-30.90458 -8.06957,-34.6275 1.45897,-0.43404 5.44498,0.33748 7.18248,-0.72345 1.31204,-0.80109 3.53081,-1.27036 6.15213,-1.55777 z m 115.63083,-9.29242 c 6.45842,-0.637 11.77427,-0.33646 18.24803,-0.97505 7.05905,-0.6963 35.77174,-1.7549 40.1032,-4.40304 1.02109,-0.62426 5.06031,-0.50063 5.54995,-0.11192 0.23127,0.1836 -0.13515,1.03171 0.0963,1.21533 3.16832,2.51553 2.04389,13.56957 3.70703,16.13845 1.48042,2.28666 1.12925,6.95933 1.40504,9.78172 0.66607,6.8164 -1.75334,12.07004 -4.88033,15.7526 -2.2804,2.68553 -9.92561,2.11768 -11.91192,4.45689 -0.44032,0.51857 -3.44518,0.39625 -4.18427,0.84822 -2.14696,1.31261 -6.313,-0.48646 -8.45997,0.82623 -1.84984,1.13095 -5.29179,0.94792 -7.57513,1.17315 -8.11438,0.80036 -20.19067,2.80418 -26.19213,-1.96075 -0.7961,-0.63206 -5.73598,-0.76968 -7.0054,-1.77756 -4.00823,-3.18238 -3.56944,-8.9993 -6.4391,-13.43182 -0.6396,-0.98794 -0.12202,-2.59403 -0.78943,-3.62484 -1.00697,-1.55537 0.65779,-6.62656 -0.75111,-7.74517 -1.55402,-1.23383 -3.15833,-12.10019 -1.42383,-14.74444 0,0 6.71134,-0.74452 10.50307,-1.418 z"
       id="path4388"
       inkscape:connector-curvature="0" />
    <path
       style="fill:#c8b0b0;stroke:#000000;stroke-width:2;stroke-linecap:butt;stroke-linejoin:miter;stroke-opacity:1;fill-opacity:0.38596490000000000;stroke-miterlimit:4;stroke-dasharray:none"
       d="m 377.28685,533.08236 c 6.45842,-0.637 11.77427,-0.33646 18.24803,-0.97505 7.05905,-0.6963 35.77174,-1.7549 40.1032,-4.40304 1.02109,-0.62426 5.06031,-0.50063 5.54995,-0.11192 0.23127,0.1836 -0.13515,1.03171 0.0963,1.21533 3.16832,2.51553 2.04389,13.56957 3.70703,16.13845 1.48042,2.28666 1.12925,6.95933 1.40504,9.78172 0.66607,6.8164 -1.75334,12.07004 -4.88033,15.7526 -2.2804,2.68553 -9.92561,2.11768 -11.91192,4.45689 -0.44032,0.51857 -3.44518,0.39625 -4.18427,0.84822 -2.14696,1.31261 -6.313,-0.48646 -8.45997,0.82623 -1.84984,1.13095 -5.29179,0.94792 -7.57513,1.17315 -8.11438,0.80036 -20.19067,2.80418 -26.19213,-1.96075 -0.7961,-0.63206 -5.73598,-0.76968 -7.0054,-1.77756 -4.00823,-3.18238 -3.56944,-8.9993 -6.4391,-13.43182 -0.6396,-0.98794 -0.12202,-2.59403 -0.78943,-3.62484 -1.00697,-1.55537 0.65779,-6.62656 -0.75111,-7.74517 -1.55402,-1.23383 -3.15833,-12.10019 -1.42383,-14.74444 0,0 6.71134,-0.74452 10.50307,-1.418 z"
       id="path4496" />
    <path
       style="fill:#98c83b;stroke:#000000;stroke-width:2;stroke-linecap:butt;stroke-linejoin:miter;stroke-opacity:1;fill-opacity:1;stroke-miterlimit:4;stroke-dasharray:none"
       d="m 442.64885,501.526 c 1.59808,-1.59809 8.31026,-0.17502 10.6066,2.12132 2.01072,2.01072 8.61502,2.25106 11.31371,4.94975 3.10402,3.10402 -1.07408,13.06806 0.7071,14.84924 0.87229,0.87229 4.94975,10.3074 4.94975,12.02082 0,1.14971 4.01031,7.3034 2.12132,9.19238 -1.14494,1.14494 0.12661,2.5752 -0.70711,4.24264 -2.71267,5.42535 -2.73592,13.03523 -7.77817,15.55635 -1.35031,0.67516 -1.41421,1.15524 -1.41421,-0.7071 0,-2.02786 2.83457,-9.90565 4.24264,-11.31371 0.87118,-0.87119 -5.45357,-16.76728 -6.36397,-17.67767 -1.28211,-1.28211 -6.08946,1.76053 -7.07106,0 -0.0746,0.1491 -2.11099,2.82843 -1.41422,2.82843 4.26651,0 -2.54223,-11.02752 -3.53553,-12.02082 -2.36733,-2.36733 -8.87459,3.53553 -10.6066,3.53553 -1.08433,0 0.18804,-6.17592 -1.41422,-7.77817 -1.93903,-1.93903 -10.23931,2.48861 -12.72792,0 -0.13947,-0.13947 1.41422,-2.68397 1.41422,-3.53553 0,-3.72966 -1.01122,-6.66808 -3.53554,-9.19239 -3.68692,-3.68692 -8.69315,5.44898 -12.72792,1.41421 -9.64912,-9.64912 2.53162,-32.52691 -16.97056,-32.52691 -1.16446,0 10.70738,9.79872 7.07106,13.43503 -1.29736,1.29736 -6.35531,-2.81978 -7.07106,-3.53554 -1.68712,-1.68711 -2.32932,3.32754 -2.82843,2.82843 -0.97069,-0.97069 -5.23366,-4.94975 -7.07107,-4.94975 -2.81671,0 -3.59875,0.77033 -4.94975,2.12132 -0.18084,0.18085 -0.65746,2.87808 -1.41421,2.12132 -1.69797,-1.69797 -2.83688,-6.36396 -7.07107,-6.36396 -4.6268,0 -7.51026,6.63188 -8.48528,5.65686 -1.21202,-1.21202 -11.77159,-7.3203 -13.43503,-5.65686 -1.44672,1.44673 -4.78424,3.37003 -6.36396,4.94975 -0.45466,0.45467 2.83624,6.35616 2.12132,7.07107 -0.79272,0.79272 -3.90697,-0.52139 -4.94975,0 -2.85691,1.42846 -5.81396,4.39975 -7.77817,6.36396 -1.76968,1.76968 8.9344,11.5717 7.77817,12.72792 -2.41517,2.41518 -6.20126,-0.3254 -8.48528,4.24264 -0.63926,1.27853 3.20881,5.98359 1.41422,7.77818 -0.15708,0.15708 -7.88319,0.10501 -10.6066,2.82842 -2.49361,2.49361 5.94196,7.49307 4.94974,8.48529 -0.84166,0.84165 -12.36191,-0.34111 -10.6066,1.41421 2.09187,2.09187 2.94051,6.47605 4.94975,8.48528 1.40103,1.40103 7.07107,2.09295 7.07107,4.24264 0,2.34116 -17.01052,4.90979 -7.77818,14.14214 0.86779,0.86778 3.45198,0.66533 4.94975,1.41421 1.53478,0.76739 3.23381,-1.41421 4.94975,-1.41421 1.05409,0 -3.29984,0.4714 -2.82843,1.41421 0.4714,0.94281 1.88562,-0.94281 2.82843,-1.41421 -4.96982,2.36376 -11.1632,5.80736 -15.55635,1.41421 -0.82496,-0.82496 0.11785,-3.41768 -0.70711,-4.24264 -0.62919,-0.62919 -2.94807,-0.2393 -3.53553,-1.41421 -0.85763,-1.71526 -1.00015,-5.36382 0,-6.36396 0.47645,-0.47646 6.01975,-1.75842 4.94974,-2.82843 -3.5404,-3.5404 -3.00778,-9.37174 -4.94974,-11.31371 -0.29412,-0.29412 -4.06163,-3.00944 -3.53554,-3.53553 0.97446,-0.97446 6.74952,-2.05733 5.65686,-4.24264 -0.7978,-1.5956 -6.81093,-9.45253 -4.24264,-12.02082 0.35355,-0.35355 1.76776,0.35355 2.12132,0 2.56966,-2.56966 2.82842,-3.6757 2.82842,-9.19239"
       id="path4167"
       inkscape:connector-curvature="0" />
    <path
       style="fill:none;stroke:#000000;stroke-width:2;stroke-linecap:butt;stroke-linejoin:miter;stroke-opacity:1;stroke-miterlimit:4;stroke-dasharray:none"
       d="m 262.33662,523.44631 c -4.00305,-5.13375 -4.95183,-13.43711 -8.48529,-16.97056 -0.30438,-0.30438 -1.41421,-16.76691 -1.41421,-18.38478 0,-1.14826 -0.83963,-4.81722 -0.70711,-4.94975 3.45237,-3.45236 3.16759,-11.99202 5.65686,-16.97056"
       id="path4182"
       inkscape:connector-curvature="0" />
    <path
       style="fill:none;stroke:#000000;stroke-width:2;stroke-linecap:butt;stroke-linejoin:miter;stroke-opacity:1;stroke-miterlimit:4;stroke-dasharray:none"
       d="m 238.29498,527.68895 c -2.65016,-3.37432 1.01854,-9.27664 -0.70711,-12.72793 -0.94206,-1.88412 0.19518,-4.5594 -0.7071,-6.36396 -4.08104,-8.16208 -2.00592,-21.3286 2.82843,-26.16295"
       id="path4184"
       inkscape:connector-curvature="0" />
    <path
       style="fill:none;stroke:#000000;stroke-width:2;stroke-linecap:butt;stroke-linejoin:miter;stroke-opacity:1;stroke-miterlimit:4;stroke-dasharray:none"
       d="m 217.78889,561.63008 c -1.13837,-0.99539 -11.28749,-36.822 -5.65686,-48.08326"
       id="path4188"
       inkscape:connector-curvature="0" />
    <path
       style="fill:none;stroke:#000000;stroke-width:2;stroke-linecap:butt;stroke-linejoin:miter;stroke-opacity:1;stroke-miterlimit:4;stroke-dasharray:none"
       d="m 189.50462,506.47575 c -4.85707,2.05544 -11.90421,12.84453 -2.82843,21.92031 1.18413,1.18413 -0.56516,6.5059 0.70711,7.77817 3.16542,3.16543 5.86853,11.52539 9.19239,14.84924 1.24919,1.2492 4.06539,14.49476 5.65685,17.67767"
       id="path4220"
       inkscape:connector-curvature="0" />
    <path
       style="fill:none;stroke:#000000;stroke-width:2;stroke-linecap:butt;stroke-linejoin:miter;stroke-opacity:1;stroke-miterlimit:4;stroke-dasharray:none"
       d="m 211.42493,604.76359 c -1.46673,0.2185 -5.05542,-5.05541 -10.6066,-10.6066 -2.1918,-2.1918 -3.28903,-12.48141 -6.36397,-15.55635 -3.86761,-3.86762 -7.95058,-11.65853 -10.6066,-16.97056 -1.11614,-2.23228 0.44791,-6.10477 1.41422,-7.07107"
       id="path4222"
       inkscape:connector-curvature="0" />
    <path
       style="fill:none;stroke:#000000;stroke-width:2;stroke-linecap:butt;stroke-linejoin:miter;stroke-opacity:1;stroke-miterlimit:4;stroke-dasharray:none"
       d="m 281.4285,445.66456 c 3.85942,0.54619 12.77119,-2.78515 15.55635,0 3.79191,3.79192 -4.3794,10.46985 -0.70711,14.14214 0.70063,0.70063 1.79468,3.20889 2.82843,4.24264 1.06066,1.06066 3.88909,0.35355 4.94975,1.41421 5.84191,5.84192 14.90185,-0.75971 18.38477,-4.24264 2.07151,-2.07151 6.20437,-2.04152 9.19239,-3.53553"
       id="path4224"
       inkscape:connector-curvature="0" />
    <path
       style="fill:none;stroke:#000000;stroke-width:2;stroke-linecap:butt;stroke-linejoin:miter;stroke-opacity:1;stroke-miterlimit:4;stroke-dasharray:none"
       d="m 268.70058,459.8067 c 0.94281,-0.2357 2.59272,-1.64992 2.82842,-0.70711 0.23571,0.94281 -3.80025,0.70711 -2.82842,0.70711 1.12857,0 5.47873,-1.50328 7.07106,-0.70711 4.92877,2.46438 -1.06744,16.08329 7.77818,20.5061 3.11999,1.56 12.25376,0.94005 13.43503,2.12132 1.82465,1.82465 1.66953,4.94975 4.94975,4.94975"
       id="path4228"
       inkscape:connector-curvature="0" />
    <path
       style="fill:none;stroke:#000000;stroke-width:2;stroke-linecap:butt;stroke-linejoin:miter;stroke-opacity:1;stroke-miterlimit:4;stroke-dasharray:none"
       d="m 320.31937,500.11179 c -0.4714,-0.94281 -2.35702,-2.35703 -1.41421,-2.82843 0.94281,-0.47141 2.15957,3.57378 1.41421,2.82843 -8.44949,-8.4495 6.0884,-11.03814 9.19239,-14.14214 2.29575,-2.29575 0.0919,-8.57719 2.12132,-10.6066 5.55747,-5.55747 12.59261,2.18898 18.38478,-0.70711 2.52874,-1.26437 5.48069,-2.82842 8.48528,-2.82842 9.64832,0 4.29671,2.88249 7.07107,5.65685 0.44596,0.44596 7.1264,0.32589 7.77817,0 3.60677,-1.80339 5.74213,-2.9137 7.77818,-4.94975 0.88075,-0.88075 3.32826,2.32859 4.24264,1.41422 2.03192,-2.03193 0.9032,-6.56006 2.82842,-8.48529 3.89602,-3.89601 13.69177,3.08517 15.55635,4.94975"
       id="path4230"
       inkscape:connector-curvature="0" />
    <path
       style="fill:none;stroke:#000000;stroke-width:2;stroke-linecap:butt;stroke-linejoin:miter;stroke-opacity:1;stroke-miterlimit:4;stroke-dasharray:none"
       d="m 371.93817,461.22091 c 7.17434,-13.74717 20.20682,-5.45294 26.87005,-2.12132"
       id="path4232"
       inkscape:connector-curvature="0" />
    <path
       style="fill:none;stroke:#000000;stroke-width:2;stroke-linecap:butt;stroke-linejoin:miter;stroke-opacity:1;stroke-miterlimit:4;stroke-dasharray:none"
       d="m 415.07168,496.57625 c 1.0236,1.69594 1.99345,11.7312 12.72792,6.36396 1.88562,-0.94281 5.18545,0.94281 7.07107,0 1.59325,-0.79662 2.24452,-1.47581 3.53553,-2.12132"
       id="path4234"
       inkscape:connector-curvature="0" />
    <path
       style="fill:none;stroke:#000000;stroke-width:2;stroke-linecap:butt;stroke-linejoin:miter;stroke-opacity:1;stroke-miterlimit:4;stroke-dasharray:none"
       d="m 434.16356,511.42549 c 14.19749,-6.99386 22.34847,4.6708 30.4056,12.72793"
       id="path4236"
       inkscape:connector-curvature="0" />
    <path
       style="fill:#98c83b;stroke:#000000;stroke-width:2;stroke-linecap:butt;stroke-linejoin:miter;stroke-opacity:1;fill-opacity:1;stroke-miterlimit:4;stroke-dasharray:none"
       d="m 281.4285,408.89501 c 4.43046,-8.04431 15.43689,-4.18291 24.04163,-8.48528 0.58873,-0.29436 2.3799,0.44853 2.82843,0 5.23841,-5.23842 13.80939,-8.85965 19.79899,-14.84924 0.71661,-0.71662 5.94506,0 7.07106,0 0.43151,0 2.55292,-0.27552 2.82843,0 4.53536,4.53536 7.80715,7.80714 12.72792,12.72792 2.23367,2.23367 7.88845,0.81738 9.8995,2.82843 2.18374,2.18374 6.10661,3.27818 7.77817,4.94974 3.66466,3.66466 10.80483,9.39062 14.84925,13.43503 0.9708,0.97081 4.03137,1.91006 4.94974,2.82843"
       id="path4268"
       inkscape:connector-curvature="0" />
    <path
       style="fill:none;stroke:#000000;stroke-width:2;stroke-linecap:butt;stroke-linejoin:miter;stroke-opacity:1;stroke-miterlimit:4;stroke-dasharray:none"
       d="m 311.83409,400.40973 c 16.64263,-5.23564 12.68163,16.97056 37.47666,16.97056"
       id="path4270"
       inkscape:connector-curvature="0" />
    <path
       style="fill:#98c83b;stroke:#000000;stroke-width:2;stroke-linecap:butt;stroke-linejoin:miter;stroke-opacity:1;fill-opacity:1;stroke-miterlimit:4;stroke-dasharray:none"
       d="m 372.64527,404.65237 c 0.94281,-0.4714 2.35703,-2.35702 2.82843,-1.41421 0.47141,0.94281 -3.57378,2.15957 -2.82843,1.41421 1.50192,-1.50192 11.935,-7.15689 12.72793,-6.36396 2.46169,2.4617 5.00868,5.00868 7.07106,7.07107 0.78845,0.78845 0.2069,3.24221 0.70711,4.24264 0.8186,1.63719 7.18196,5.06064 8.48528,6.36396 1.48892,1.48892 4.81474,0.5721 6.36396,2.12132 0.96561,0.9656 1.15572,3.98414 2.12132,4.94975 2.55307,2.55307 4.8183,5.5254 7.07107,7.77817 3.43976,3.43976 -0.24958,17.42809 7.07107,24.74874"
       id="path4272"
       inkscape:connector-curvature="0" />
    <path
       style="fill:none;stroke:#000000;stroke-width:2;stroke-linecap:butt;stroke-linejoin:miter;stroke-opacity:1;stroke-miterlimit:4;stroke-dasharray:none"
       d="m 436.99199,474.65594 c -7.03749,-2.93963 -14.92717,-5.73478 -20.5061,-11.31371 -4.00406,-4.00406 -5.69943,-9.23496 -9.89949,-13.43503 -3.1311,-3.1311 -3.3194,-11.91274 -7.77818,-14.14213 -5.6606,-2.8303 -14.53149,-4.94975 -21.92031,-4.94975 -3.85976,0 -9.03253,-0.86695 -9.19238,-0.7071"
       id="path4274"
       inkscape:connector-curvature="0" />
    <path
       style="fill:#9cb638;stroke:none;stroke-width:2;stroke-linecap:butt;stroke-linejoin:miter;stroke-opacity:1;fill-opacity:1;stroke-miterlimit:4;stroke-dasharray:none"
       d="m 217.08178,448.49299 c -5.16277,-0.69032 -7.92114,11.45667 -14.14213,17.67767 -1.95662,1.95661 -3.15037,10.22144 -5.65686,12.72792 -1.51576,1.51576 -2.05026,8.41423 -3.53553,9.8995 -3.18198,3.18198 -6.01041,6.71751 -9.19239,9.89949 -1.07534,1.07534 -4.94975,17.3499 -4.94975,15.55635 0,-3.03412 15.2933,-20.06204 17.67767,-17.67767 3.60441,3.60441 -1.74878,30.07103 0.70711,32.52691 0.88336,0.88336 2.58196,-3.0426 2.82843,-3.53553 2.33507,-4.67014 1.92536,-10.92179 4.24264,-15.55635 2.09979,-4.19959 8.40521,-12.10088 12.72792,-7.77817 3.63976,3.63976 5.65685,20.94201 5.65685,26.16295 0,1.13896 0.54034,17.84444 2.12132,16.26345 4.05469,-4.05468 1.5636,-8.07694 3.53554,-12.02081 1.10464,-2.20929 -0.79515,-9.81146 0.7071,-11.31371 1.98173,-1.98172 0.99167,-14.56468 -0.7071,-16.26346 -0.57244,-0.57244 0,-4.7575 0,-5.65685 0,-13.73174 1.65686,-22.87006 8.48528,-29.69849 0.88233,-0.88233 5.23404,-1.83703 6.36396,-0.7071 0.58926,0.58925 0.11785,2.23917 0.70711,2.82843 1.07831,1.07831 -5.58795,35.42424 -0.70711,40.30508 5.20444,5.20444 4.24264,-19.16617 4.24264,-21.2132 0,-11.1536 3.33778,-26.67231 9.19239,-32.52691 5.60282,-5.60283 5.6003,24.04163 13.43503,24.04163 0.59614,0 3.94231,3.12876 4.24264,2.82842 0.59522,-0.59522 -2.82843,-5.35244 -2.82843,-6.36396 0,-1.37141 0.65862,-9.94798 -0.70711,-11.31371 -3.0639,-3.0639 -10.94546,-6.02509 -5.65685,-11.3137 0.44853,-0.44853 2.2397,0.29436 2.82843,0 5.65353,-2.82677 11.84266,1.94317 14.84924,4.94974 1.66089,1.66089 0.40965,5.35941 2.12132,7.07107 0.78037,0.78037 3.53553,2.26742 3.53553,0 0,-2.5235 -3.71345,-17.14849 -4.94974,-18.38478 -1.41271,-1.4127 -4.53311,-0.29046 -5.65686,-1.41421 -0.35326,-0.35326 -4.79964,-3.68564 -6.36396,-2.12132 -1.42206,1.42207 -7.87513,5.65686 -10.6066,5.65686 -2.99349,0 -15.72886,-1.94881 -17.67767,0 -1.04297,1.04297 -3.3759,1.25458 -4.24264,2.12132 -2.5034,2.5034 -3.36392,5.57104 -6.36396,7.07106 -1.96306,0.98153 -15.02958,13.96181 -17.67767,11.31371 -1.48021,-1.48021 2.29615,-6.00651 2.82843,-7.07107 1.65251,-3.30502 18.35676,-27.60518 14.84924,-31.11269 -0.28145,-0.28145 -14.72001,12.0842 -16.26346,14.14213 z"
       id="path4317"
       inkscape:connector-curvature="0" />
    <path
       style="fill:#9cb638;stroke:none;stroke-width:2;stroke-linecap:butt;stroke-linejoin:miter;stroke-opacity:1;fill-opacity:1;stroke-miterlimit:4;stroke-dasharray:none"
       d="m 251.73001,422.33004 c 1.16279,-4.98438 18.13653,-3.05785 28.99138,-8.48528 3.27898,-1.63949 7.97164,-0.45029 11.31371,-2.12132 1.19244,-0.59622 4.75046,0.9064 5.65685,0 1.85925,-1.85925 19.10779,-4.22674 21.21321,-2.12132 2.03074,2.03074 -0.96676,4.69009 0,5.65685 1.86319,1.8632 6.148,1.19826 7.77817,2.82843 1.06066,1.06066 5.3033,-1.06066 6.36396,0 6.14965,6.14964 22.50873,1.88394 26.87006,10.6066 0.83545,1.67091 -2.12132,4.47371 -2.12132,6.36396 0,5.32053 6.26164,3.53554 10.6066,3.53554 0.79178,0 5.88074,0.96644 5.65686,1.41421 -3.87523,7.75046 -26.09883,0.0641 -29.69849,-3.53553 -2.32955,-2.32955 -5.78775,-6.49487 -8.48528,-9.19239 -2.82678,-2.82679 -11.7498,-4.46069 -15.55635,-6.36396 -2.06869,-1.03435 -8.86773,-0.16233 -10.6066,0.7071 -0.29931,0.14966 -12.95582,-2.60053 -15.55635,0 -2.36021,2.36021 -8.15047,4.42879 -12.02081,6.36396 -2.56396,1.28198 -5.42119,4.00697 -7.07107,5.65686 -1.02174,1.02174 -2.7937,-0.0174 -4.24264,0.70711 -9.78859,4.89429 -15.27821,-5.6647 -19.09189,-12.02082 z"
       id="path4319"
       inkscape:connector-curvature="0" />
    <path
       style="fill:#9cb638;stroke:none;stroke-width:2;stroke-linecap:butt;stroke-linejoin:miter;stroke-opacity:1;fill-opacity:1;stroke-miterlimit:4;stroke-dasharray:none"
       d="m 319.61227,396.8742 c 1.47778,-1.58698 8.95345,-9.43133 12.02081,-6.36396 0.82496,0.82495 2.71058,0.58925 3.53553,1.41421 3.40406,3.40405 1.74587,8.6511 7.07107,11.31371 0.9203,0.46015 12.53317,2.63367 12.72792,2.82842 1.96563,1.96563 5.53756,2.06168 8.48529,3.53554 2.30861,1.1543 9.67378,6.13825 11.3137,7.77817 0.90757,0.90757 0.73442,2.85574 1.41422,3.53554 0.37268,0.37267 1.41421,0.18006 1.41421,0.7071 0,0.35609 -9.54929,-1.05731 -10.6066,0 -2.43369,2.4337 -6.32574,2.79021 -8.48528,4.94975 -0.23331,0.23331 -4.35867,4.12662 -4.94975,3.53554 -5.97582,-5.97583 6.68159,-7.85003 4.24264,-12.72793 -1.53633,-3.07267 -12.92165,-8.22859 -16.26345,-9.89949 -1.67399,-0.83699 -4.61893,-0.37629 -5.65686,-1.41422 -3.77674,-3.77673 -9.88268,-7.59719 -16.26345,-9.19238 z"
       id="path4321"
       inkscape:connector-curvature="0" />
    <path
       style="fill:#9cb638;fill-opacity:1;stroke:none;stroke-width:2;stroke-miterlimit:4;stroke-dasharray:none"
       d="m 409.06961,466.31234 c 2.13568,6.01184 2.71131,13.89218 7.3962,16.11819 1.83328,0.87107 3.68065,-0.62425 4.96295,0.60757 0.71429,0.68616 5.42032,-0.92564 7.06965,-0.14198 1.68384,0.80006 3.08829,-0.49995 4.25597,0.62177 1.35545,1.30206 8.31907,-0.24859 9.91171,0.50822 1.15749,0.54999 7.39564,3.84912 8.54036,2.65748 0.53462,-0.55655 -1.98557,-1.90739 -2.16348,-2.0783 -0.94135,-0.90428 -2.5331,-4.51333 -3.64842,-5.58472 -1.59019,-1.52758 -2.16307,-6.23785 -3.691,-7.70562 -4.88401,-4.69168 -7.11595,-11.68902 -12.35916,-16.72576 -1.20194,-1.15461 -1.01835,-3.75154 -2.22029,-4.90615 -0.93514,-0.89834 1.46466,6.4145 0.84896,7.05544 -1.15988,1.20742 -9.97299,2.89957 -12.0042,0.94834 -5.34823,-5.13764 -2.7211,-26.93751 -7.07261,-35.22043 -4.87899,-9.28696 -14.5732,-4.12351 -21.3651,-7.35064 -0.46503,-0.22096 -9.07646,-5.4757 -6.47627,-5.52793 3.44479,-0.0692 5.31234,6.48981 7.24002,8.34159 1.90024,1.82539 4.78529,2.51689 6.44787,4.11399 1.11428,1.0704 0.6466,3.39444 1.49912,4.21339 0.24426,0.23465 0.63518,1.40173 -0.67857,1.42812 -0.90508,0.0182 -10.55832,2.51032 -10.57606,1.62691 -0.0167,-0.83157 12.18289,1.99663 12.78215,2.57229 2.34909,2.25658 6.60376,4.26374 9.33252,6.88505 0.84054,0.80746 0.8499,11.90964 5.27532,16.1608 2.69526,2.58913 7.93191,6.92625 10.80324,9.68451 2.6911,2.58513 10.1588,3.51887 12.85314,6.10711 0.62739,0.60268 3.38076,5.1416 2.24868,6.32008 -0.93206,0.97028 -3.02655,0.76803 -4.93455,0.80635 -14.58007,0.29283 -14.10947,-7.70317 -24.27815,-11.53563 z"
       id="path4323"
       inkscape:connector-curvature="0" />
    <path
       style="fill:#9cb638;stroke:none;stroke-width:2;stroke-linecap:butt;stroke-linejoin:miter;stroke-opacity:1;fill-opacity:1;stroke-miterlimit:4;stroke-dasharray:none"
       d="m 177.4838,535.46713 c -6.68071,11.86575 -4.35366,34.5372 9.19239,48.08326 1.29636,1.29636 1.53206,3.65338 2.82843,4.94974 1.74718,1.74719 0.23653,11.55025 1.41421,12.72793 2.91863,2.91862 9.53357,4.05968 12.72792,5.65685 0.94503,0.47251 5.44107,3.75133 5.65686,3.53553 0.66736,-0.66736 -4.14887,-6.97729 -4.94975,-7.77817 -4.38999,-4.38999 -6.03578,-12.39974 -9.8995,-16.26346 -1.06066,-1.06066 -0.35355,-3.88908 -1.41421,-4.94974 -4.24084,-4.24085 -8.07491,-8.37164 -10.6066,-13.43503 -2.56353,-5.12707 -4.99501,-25.47848 4.94975,-20.5061 5.43342,2.71671 8.22354,28.02253 14.14213,33.94113 0.64116,0.64115 4.2014,10.64784 5.65686,9.19238 1.81948,-1.81948 0.122,-10.1435 1.41421,-12.72792 0.80228,-1.60456 -0.3375,-7.44067 0.70711,-8.48528 0.0602,-0.0602 1.77379,-4.59017 1.41421,-4.94975 -0.92703,-0.92703 -4.50919,9.63294 -9.89949,4.24264 -6.85424,-6.85423 -12.7396,-33.23401 -23.33453,-33.23401 z"
       id="path4325"
       inkscape:connector-curvature="0" />
    <path
       style="fill:#9cb638;stroke:none;stroke-width:2;stroke-linecap:butt;stroke-linejoin:miter;stroke-opacity:1;fill-opacity:1;stroke-miterlimit:4;stroke-dasharray:none"
       d="m 324.56201,476.07016 c -0.4714,0.9428 -0.4714,3.29983 -1.41421,2.82842 -0.94281,-0.4714 2.15957,-3.57378 1.41421,-2.82842 -2.21313,2.21313 -1.03697,7.9431 -3.53553,9.19238 -0.91836,0.45918 -12.36042,10.267 -8.48528,14.14214 1.29636,1.29636 2.23917,2.94628 3.53553,4.24264 3.02142,3.02142 7.47843,2.52868 9.8995,4.94975 0.87782,0.87782 1.38272,6.42695 0.7071,7.77817 -1.12456,2.24913 -3.76744,3.06033 -4.94974,4.24264 -2.64105,2.64105 -3.13485,6.67038 -5.65686,9.19239 -0.61515,0.61516 -2.60364,5.88164 -1.41421,7.07107 0.74535,0.74535 2.4683,2.82843 1.41421,2.82843 -0.62863,0 -1.52744,-6.59041 -2.12132,-7.77818 -0.64821,-1.29641 -2.12132,-3.71387 -2.12132,-4.94975 0,-2.81518 9.51627,-17.16217 1.41421,-21.2132 -3.71346,-1.85673 -9.56847,1.7903 -12.02081,4.24264 -0.72085,0.72085 0.77862,1.37846 -0.70711,2.12132 -0.82327,0.41164 -6.03888,-2.66589 -7.77817,-3.53553 -2.88127,-1.44064 -3.37166,3.53553 -5.65686,3.53553 -1.64727,0 -7.66365,-5.77138 -6.36396,-7.07107 2.7662,-2.76619 15.51999,-2.08495 16.97056,-3.53553 2.35703,-2.35702 4.00694,-5.42115 6.36397,-7.77817 0.4714,-0.47141 2.35702,0.4714 2.82842,0 2.82072,-2.82072 5.90193,-3.0735 6.36396,-3.53554 5.92014,-5.92013 -8.12356,-18.02959 11.31371,-14.14213 z"
       id="path4327"
       inkscape:connector-curvature="0" />
    <path
       style="fill:none;stroke:#000000;stroke-width:2;stroke-linecap:butt;stroke-linejoin:miter;stroke-opacity:1;stroke-miterlimit:4;stroke-dasharray:none"
       d="m 342.23968,664.16056 c -9.97525,2.40166 -37.95042,-5.9727 -54.44722,-16.97056 -5.90309,-3.9354 -10.29803,-9.45808 -16.26346,-13.43503 -2.62102,-1.74735 -4.26715,-5.66911 -7.07106,-7.07107 -2.70729,-1.35364 -12.689,-8.40744 -13.43503,-9.89949"
       id="path4363"
       inkscape:connector-curvature="0" />
    <path
       style="fill:#9cb638;stroke:none;stroke-width:2;stroke-linecap:butt;stroke-linejoin:miter;stroke-opacity:1;fill-opacity:1;stroke-miterlimit:4;stroke-dasharray:none"
       d="m 343.5,515.86218 c -0.5372,-2.00409 0.10626,-4.21252 1,-6 1.24813,-2.49625 1.77013,-5.54026 3,-8 2.00532,-4.01064 22.95769,-11.04231 26.5,-7.5 1.42484,1.42485 -2.5,5.13585 -2.5,6 0,1.63731 16.22033,-3.22032 11.5,1.5 -5.92456,5.92456 -21.09207,2.09208 -24.5,5.5 -1.34903,1.34903 -1.34641,3.34641 -3,5 -1.36526,1.36526 -2.60165,2.60165 -4,4 -0.64175,0.64175 -2.01931,0.51931 -2.5,1 -0.81678,0.81679 -1.37212,-0.87212 -1.5,-1 -0.47127,-0.47127 -3.96161,-0.5 -4,-0.5 z"
       id="path4451"
       inkscape:connector-curvature="0" />
    <g
       id="g4753"
       transform="translate(58,-59)"
       style="stroke-width:2;stroke-miterlimit:4;stroke-dasharray:none">
      <path
         inkscape:connector-curvature="0"
         id="path4738"
         d="m 256.5,776.36218 c -2.20853,-0.53733 -2.7794,-5.61758 -4.5,-12.5 -0.38326,-1.53304 -2.75087,-16.74913 -1.5,-18 1.1983,-1.1983 2.08739,-3.67478 3,-5.5 1.85843,-3.71686 1.93382,-6.93382 4.5,-9.5 0.78361,-0.78361 4.93794,0.21897 6.5,1 3.09163,1.54582 10.79342,2.79342 13,5 0.78777,0.78777 16.14232,2.64232 19,5.5 0.69787,0.69787 0.5,4.36036 0.5,5.5 0,1.963 3.42408,12.57592 1.5,14.5 -1.0016,1.0016 -4.8532,0.35321 -6,1.5 -3.09448,3.09448 -21.34963,3.84964 -25.5,8 -1.96687,1.96687 -8.52853,-0.42866 -10.5,4.5 z"
         style="fill:#c83737;fill-opacity:1;stroke:#000000;stroke-width:2;stroke-linecap:butt;stroke-linejoin:miter;stroke-opacity:1;stroke-miterlimit:4;stroke-dasharray:none" />
      <path
         inkscape:connector-curvature="0"
         id="path4672"
         d="m 248.96479,731.91192 c 8.58401,3.67539 18.84665,3.88993 26.07051,8.05159 2.32785,1.34106 6.77728,0.17587 8.39674,1.9987 0.35799,0.40295 7.8348,0.90077 8.92536,1.52906 1.322,0.76161 4.66942,3.2811 5.81263,3.34864 1.55459,0.0919 3.79991,14.12249 2.08062,15.64995 -0.45544,0.40463 -1.96589,0.11214 -2.52514,0.35169 -7.56656,3.24052 -14.85488,6.11863 -22.08184,9.21369 -3.71279,1.59009 -9.52383,2.31316 -12.30349,4.78271 -1.14962,1.02136 -9.1891,3.49728 -9.22025,3.46222 -5.7715,-6.49627 -3.47041,-16.62316 -7.04025,-24.95866 -0.76293,-1.78141 1.14629,-4.70724 0.38336,-6.48868 -1.29262,-3.01826 1.54282,-9.15826 1.61753,-10.42274 0.0751,-1.27113 0.37049,-2.72945 0.23591,-3.99304 -0.0901,-0.84505 -1.19339,-2.40792 -0.35169,-2.52513 0.88895,-0.1238 0.56722,1.70308 0.85082,2.55461"
         style="fill:#c83737;fill-opacity:1;stroke:#000000;stroke-width:2;stroke-linecap:butt;stroke-linejoin:miter;stroke-opacity:1;stroke-miterlimit:4;stroke-dasharray:none" />
      <path
         inkscape:connector-curvature="0"
         id="path4740"
         d="m 306.5,748.86218 c 0.16667,0.66667 1.16667,1.83334 0.5,2 -0.66667,0.16667 -0.5,-2.68718 -0.5,-2 0,1.55689 0.7355,9.7355 1.5,10.5 0.41667,0.41667 -0.41667,2.08334 0,2.5 2.10557,2.10557 5.04687,3.54687 7.5,6 0.99123,0.99124 10.5054,3.0054 12.5,5 1.19883,1.19883 4.42429,0.71215 6,1.5 1.12863,0.56432 7.14293,2.85707 8,2 2.04327,-2.04327 2.28311,-5.28311 4,-7 2.11459,-2.11459 -0.0736,-33.57356 -2.5,-36 -0.89963,-0.89963 -0.16269,-4.16269 -1,-5 -0.41087,-0.41087 -7.01743,4.50872 -8,5 -3.60184,1.80092 -8.82368,4.32369 -11.5,7 -1.33446,1.33446 -13.17982,6.50789 -16.5,8.5 z"
         style="fill:#c83737;fill-opacity:1;stroke:#000000;stroke-width:2;stroke-linecap:butt;stroke-linejoin:miter;stroke-opacity:1;stroke-miterlimit:4;stroke-dasharray:none" />
      <path
         inkscape:connector-curvature="0"
         id="path4674"
         d="m 304.9475,750.24072 c 1.94177,-5.24069 18.79427,-12.686 28.7272,-19.39067 1.08342,-0.73131 2.75304,-0.77916 3.83646,-1.51048 1.02497,-0.69184 2.52371,-2.8515 3.64188,-2.99779 0.70641,-0.0924 7.29795,-4.20098 7.5432,-4.0125 0.7048,0.54173 0.35692,3.39579 1.01465,3.90135 6.29941,4.84172 6.08536,37.07573 3.72507,43.88763 -0.19201,0.55414 0.15611,2.11757 -0.17145,2.54374 -0.29856,0.38844 -0.99416,1.29347 -1.29273,1.68192 -0.75203,0.97844 -6.47124,-0.0687 -7.13544,-0.57921 -1.41452,-1.08722 -4.71103,-0.4491 -6.70452,-1.13985 -6.82818,-2.36592 -20.629,-6.49117 -26.1092,-10.70327 -1.71504,-1.31819 -2.93242,-2.69978 -4.54999,-3.94306 -0.0556,-0.0427 -3.47532,-7.09645 -2.52517,-7.73779 0.92669,-0.62551 2.11283,0.73208 3.16925,1.09812"
         style="fill:#c83737;fill-opacity:1;stroke:#000000;stroke-width:2;stroke-linecap:butt;stroke-linejoin:miter;stroke-opacity:1;stroke-miterlimit:4;stroke-dasharray:none" />
      <path
         inkscape:connector-curvature="0"
         id="path4691"
         d="m 297,756.36218 c -0.88629,0.27658 -32.85853,-6.64147 -37.5,-2 -8.63,8.63 9.10138,11.5 16.5,11.5 0.7835,0 3.63823,1.36178 4.5,0.5 1.2631,-1.2631 7.71913,-3 10,-3"
         style="fill:none;stroke:#000000;stroke-width:2;stroke-linecap:butt;stroke-linejoin:miter;stroke-opacity:1;stroke-miterlimit:4;stroke-dasharray:none" />
      <path
         inkscape:connector-curvature="0"
         id="path4676"
         d="m 291.5,744.36218 c -0.48792,0.38603 0.79429,9.2943 4,12.5 1,1 0.5,3.5 1.5,4.5 2.97076,2.97076 13.5151,2.9849 16.5,0 0.47684,-0.47683 -1.80108,-6.30108 -2,-6.5 -0.54009,-0.54009 -1.1192,-8.1192 -1.5,-8.5 -0.19435,-0.19435 -3.07991,-0.28995 -4.5,-1 -5.78117,-2.89058 -7.74759,-4.75144 -14,-1 z"
         style="fill:#c83737;fill-opacity:1;stroke:#000000;stroke-width:2;stroke-linecap:butt;stroke-linejoin:miter;stroke-opacity:1;stroke-miterlimit:4;stroke-dasharray:none" />
      <path
         inkscape:connector-curvature="0"
         id="path4693"
         d="m 312.5,756.36218 c 11.47909,2.1269 20.12919,-4 31.5,-4 1.60808,0 6.49203,4.00797 4.5,6 -5.6189,5.6189 -19.1965,1.5 -24,1.5"
         style="fill:none;stroke:#000000;stroke-width:2;stroke-linecap:butt;stroke-linejoin:miter;stroke-opacity:1;stroke-miterlimit:4;stroke-dasharray:none" />
      <path
         inkscape:connector-curvature="0"
         id="path4695"
         d="m 330,767.36218 c 0.66667,0.16667 2.16667,-0.16666 2,0.5 -0.16667,0.66667 -2.68718,-0.5 -2,-0.5 2.93235,0 3.70394,1 6.5,1 1.87837,0 6.89612,1.10389 8.5,-0.5 1.95161,-1.95161 4.57883,-3.07882 6.5,-5 0.33333,-0.33333 0.16667,-1.16666 0.5,-1.5"
         style="fill:none;stroke:#000000;stroke-width:2;stroke-linecap:butt;stroke-linejoin:miter;stroke-opacity:1;stroke-miterlimit:4;stroke-dasharray:none" />
      <path
         inkscape:connector-curvature="0"
         id="path4710"
         d="m 302,761.86218 c -2.32892,-3.67596 -6.18956,-8.62088 -4,-13"
         style="fill:none;stroke:#000000;stroke-width:2;stroke-linecap:butt;stroke-linejoin:miter;stroke-opacity:1;stroke-miterlimit:4;stroke-dasharray:none" />
    </g>
  </g>
</svg>
