<?xml version="1.0" encoding="UTF-8" standalone="no"?>
<!-- Created with Inkscape (http://www.inkscape.org/) -->

<svg
   xmlns:dc="http://purl.org/dc/elements/1.1/"
   xmlns:cc="http://creativecommons.org/ns#"
   xmlns:rdf="http://www.w3.org/1999/02/22-rdf-syntax-ns#"
   xmlns:svg="http://www.w3.org/2000/svg"
   xmlns="http://www.w3.org/2000/svg"
   xmlns:sodipodi="http://sodipodi.sourceforge.net/DTD/sodipodi-0.dtd"
   xmlns:inkscape="http://www.inkscape.org/namespaces/inkscape"
   width="744.09448819"
   height="1052.3622047"
   id="svg3708"
   version="1.1"
   inkscape:version="0.48.2 r9819"
   sodipodi:docname="level_party.svg"
   inkscape:export-filename="/home/substack/media/vector/level_party.png"
   inkscape:export-xdpi="75.368294"
   inkscape:export-ydpi="75.368294">
  <defs
     id="defs3710" />
  <sodipodi:namedview
     id="base"
     pagecolor="#ffffff"
     bordercolor="#666666"
     borderopacity="1.0"
     inkscape:pageopacity="0.0"
     inkscape:pageshadow="2"
     inkscape:zoom="0.43476563"
     inkscape:cx="298.33171"
     inkscape:cy="776.57801"
     inkscape:document-units="px"
     inkscape:current-layer="layer1"
     showgrid="false"
     inkscape:window-width="1364"
     inkscape:window-height="766"
     inkscape:window-x="0"
     inkscape:window-y="0"
     inkscape:window-maximized="0" />
  <metadata
     id="metadata3713">
    <rdf:RDF>
      <cc:Work
         rdf:about="">
        <dc:format>image/svg+xml</dc:format>
        <dc:type
           rdf:resource="http://purl.org/dc/dcmitype/StillImage" />
        <dc:title></dc:title>
      </cc:Work>
    </rdf:RDF>
  </metadata>
  <g
     inkscape:label="Layer 1"
     inkscape:groupmode="layer"
     id="layer1">
    <path
       style="fill:#2cd352;fill-opacity:1;stroke:#ffffff;stroke-width:1px;stroke-linecap:butt;stroke-linejoin:miter;stroke-opacity:0"
       d="m 344.55564,654.21345 c -30.44286,-11.85599 25.3974,10.8525 -10.9352,-5.81751 -7.12674,-3.26986 -46.00232,3.58641 -49.26266,6.20672 -3.05268,2.4534 7.6857,17.7602 9.19312,21.82362 2.46975,6.65745 11.44795,40.20665 13.81309,43.14949 7.23723,9.005 21.60404,6.56987 31.01674,12.63049 49.15636,31.65065 189.24328,23.17929 222.49872,-3.54777 5.06548,-4.07108 8.64787,-6.95021 12.67727,-10.1886 0.98791,-0.79397 0.8436,-7.75097 0.99547,-9.14634 1.04293,-9.58246 9.32569,-28.09545 6.26846,-36.33652 -1.36397,-3.67675 -5.76,-2.94058 -8.89748,-3.28205 -34.17567,-3.71962 -72.08799,-4.51805 -104.93411,-13.73449 -36.68554,-10.29376 -76.79096,-32.17971 -107.9673,-7.1236"
       id="path4806"
       inkscape:connector-curvature="0" />
    <path
       style="fill:#47b861;fill-opacity:1;stroke:#ffffff;stroke-width:1px;stroke-linecap:butt;stroke-linejoin:miter;stroke-opacity:0"
       d="m 289.81132,668.24718 c 10.61649,-22.13516 98.05328,-63.15265 156.40611,-43.70171 9.7229,3.24097 20.7518,-2.27459 29.90117,2.30009 11.21429,5.60715 35.18777,0.34321 48.30189,6.90027 4.88574,2.44287 68.77573,23.22786 57.50224,34.50135 -42.69044,42.69043 -157.26446,66.27343 -232.30907,39.10153 -22.14914,-8.01969 -53.86254,-9.40253 -59.80234,-39.10153 z"
       id="path4804"
       inkscape:connector-curvature="0"
       sodipodi:nodetypes="csssssc" />
    <path
       style="fill:#2cd352;stroke:#ffffff;stroke-width:1px;stroke-linecap:butt;stroke-linejoin:miter;stroke-opacity:0;fill-opacity:1"
       d="m 276.01078,546.34242 c -3.06678,-0.7667 -9.96705,0.76669 -9.20036,-2.30009 0.7667,-3.06679 12.36153,2.30009 9.20036,2.30009 -12.04123,0 -38.06717,-5.63454 -46.0018,2.30009 -9.33161,9.33161 21.3931,54.28664 29.90117,71.30278 12.84611,25.69221 27.56815,13.02287 57.50225,23.0009 57.2994,19.0998 121.8393,9.20036 184.00719,9.20036 21.50207,0 64.08056,-11.1785 75.90296,-23.0009 2.85341,-2.85341 2.30009,-16.05193 2.30009,-20.70081 0,-10.66445 3.23871,-37.74005 9.20036,-43.7017 1.17149,-1.17149 4.60018,-18.90164 4.60018,-18.40072 0,3.06678 -6.13357,0 -9.20036,0 -13.80054,0 -27.60108,0 -41.40162,0 -35.92249,0 -78.54345,-3.94006 -112.7044,4.60018 -16.70695,4.17673 -100.47065,-2.30009 -121.90476,-2.30009 -4.89628,0 -18.25354,5.82381 -20.70081,4.60018 -3.9986,-1.9993 -7.50185,-8.89957 -11.50045,-6.90027 -3.49667,1.74833 1.53339,7.66696 2.30009,11.50045"
       id="path4802"
       inkscape:connector-curvature="0" />
    <path
       style="fill:#47b861;stroke:#ffffff;stroke-width:1px;stroke-linecap:butt;stroke-linejoin:miter;stroke-opacity:0;fill-opacity:1"
       d="m 232.30907,562.44305 c 19.20669,14.55887 44.62514,8.51203 64.40252,18.40071 8.587,4.29351 23.61426,-4.2935 32.20126,0 14.97393,7.48697 42.77795,0.68817 55.20215,6.90027 28.12193,14.06097 132.42182,4.92798 161.00629,-4.60018 14.90337,-4.96779 57.65236,-27.45096 39.10153,-46.00179 -54.37841,-54.37842 -305.05479,-35.35851 -351.91375,11.50045 -3.25281,3.25281 0,9.20036 0,13.80054 z"
       id="path4798"
       inkscape:connector-curvature="0" />
    <path
       style="fill:#4de971;stroke:#ffffff;stroke-width:1px;stroke-linecap:butt;stroke-linejoin:miter;stroke-opacity:0;fill-opacity:1"
       d="m 494.51932,339.33433 c 42.74302,25.05892 95.85032,27.22435 133.40521,46.0018 2.58323,1.29162 12.04277,0.54232 13.80054,2.30009 1.44803,1.44803 -7.91388,14.1709 -9.20036,16.10063 -7.16221,10.7433 -13.5536,33.26662 -16.10063,46.00179 -1.49674,7.4837 -13.52114,61.82302 -16.10063,64.40252 -2.88635,2.88634 -17.83695,-10.54583 -20.70081,-11.50045 -35.43294,-11.81098 -69.79964,-29.40012 -105.80413,-41.40162 -8.74631,-2.91543 -86.03001,-5.52686 -87.40342,-6.90027 -3.37997,-3.37997 -20.95254,-46.50527 -25.30098,-55.20215 -3.60677,-7.21354 -34.53305,-78.17136 -34.50135,-78.20306 6.25217,-6.25217 105.20654,9.20036 121.90476,9.20036 3.43314,0 22.76538,-2.53561 25.30099,0 4.6185,4.6185 10.82309,7.22482 20.70081,9.20036 z"
       id="path3990"
       inkscape:connector-curvature="0" />
    <path
       style="fill:#2cd352;fill-opacity:1;stroke:#ffffff;stroke-width:1px;stroke-linecap:butt;stroke-linejoin:miter;stroke-opacity:0"
       d="m 207.00809,350.83478 c -10.68858,-2.92462 -19.83046,-0.43518 -29.90117,4.60018 -6.16792,3.08396 -18.4879,-2.21291 -23.0009,2.30009 -13.64078,13.64078 17.75032,67.7019 27.60108,87.40341 24.79245,49.58491 6.35389,72.89126 64.40251,87.40342 56.67548,14.16887 120.2185,13.80054 179.40701,13.80054 23.53369,0 47.33923,-2.30009 71.30279,-2.30009 1.35934,0 25.30099,-6.33941 25.30099,-4.60018 0,0.47576 -2.30009,-18.93667 -2.30009,-39.10153 0,-3.64138 4.36044,-69.24243 2.30009,-71.30279 -1.87953,-1.87952 -89.65404,-36.01825 -105.80414,-41.40161 -20.86986,-6.95662 -44.3537,-13.14855 -43.7017,-13.80054 0.76669,-0.7667 4.37017,2.07008 4.60017,2.30009"
       id="path3988"
       inkscape:connector-curvature="0" />
    <path
       style="fill:#47b861;stroke:#ffffff;stroke-width:1px;stroke-linecap:butt;stroke-linejoin:miter;stroke-opacity:0;fill-opacity:1"
       d="m 376,306.875 c -22.34154,0.16158 -40.76985,2.91816 -51.6875,9.46875 -49.22875,-5.2965 -109.85418,1.93404 -151.8125,29.90625 -5.19103,3.46069 -21.41004,21.58618 -18.40625,27.59375 22.88267,45.76534 134.54682,50.45659 177.125,55.1875 33.96465,3.77385 69.32056,6.90625 103.5,6.90625 27.74548,0 56.31703,-1.24426 84.28125,-4.15625 -2.77811,-1.67774 -5.51727,-3.31661 -8.375,-5.03125 -9.18696,-5.51217 -112.71875,-64.14047 -112.71875,-64.40625 0,-4.01299 62.88069,8.54782 66.71875,9.1875 56.90672,9.48445 113.83642,21.49398 170.84375,31.46875 4.03736,-2.63665 7.06335,-5.47045 8.5625,-8.46875 11.117,-22.23401 -34.43609,-42.73069 -48.3125,-48.28125 C 563.80565,333.48476 448.98238,306.34717 376,306.875 z"
       id="path3957"
       inkscape:connector-curvature="0" />
    <path
       style="fill:#ff7a3c;stroke:#ffffff;stroke-width:1px;stroke-linecap:butt;stroke-linejoin:miter;stroke-opacity:0;fill-opacity:1"
       d="m 103.73885,106.90725 c -3.24829,0.83783 -9.865953,14.1912 -10.736714,13.67752 -2.543416,-1.5004 -7.39758,-0.45702 -11.272655,-1.28791 -1.996203,-0.42802 -7.042841,-3.21799 -8.298321,-2.89416 -0.372731,0.0961 -2.568108,5.48411 -3.300019,6.72482 -0.578396,0.98049 -4.619628,4.86184 -4.492622,5.35424 0.269457,1.04469 9.479335,-1.60592 10.430688,-1.8513 2.886132,-0.74442 9.707,-1.61117 11.623296,-0.48072 0.652712,0.38504 1.534425,-0.32101 1.971803,-0.86359 -0.159166,2.18068 1.750447,10.31381 1.655922,11.67518 -0.873895,12.58604 0.795567,26.41556 0.891098,39.23974 0.02752,3.69382 -2.952815,11.32411 -2.45555,13.25201 0.41181,1.5966 2.920992,-1.5925 4.517578,-2.00431 7.325736,-1.88953 13.985616,-5.2855 21.653436,-7.26326 4.00756,-1.03367 8.08822,-0.40801 12.20712,-1.4704 6.31169,-1.62797 12.70507,-0.15795 18.55634,0.24832 3.3002,0.22914 4.32025,-0.28297 4.62576,-0.70904 0.13748,0.33765 0.42254,0.76236 0.5006,1.06498 0.6634,2.57204 0.90007,4.75099 1.03959,7.28368 0.69867,12.68284 7.69772,29.84425 10.96584,42.51481 0.59055,2.28957 2.16125,5.82629 3.61058,7.49192 0.16599,0.19075 0.70568,3.04784 0.8039,3.11674 -0.10737,-0.126 -1.01143,-0.41574 -1.36277,1.22286 -0.51195,2.38764 -0.59609,5.44651 -1.32066,7.89247 -2.46764,8.33025 -3.60625,17.36057 -5.93885,25.89774 -1.99004,7.28347 -3.03359,17.58064 -5.94134,22.50975 -0.43175,0.73188 4.43409,6.7564 5.3792,7.84255 2.6503,3.0458 2.79164,8.21139 5.41196,11.22274 7.76236,8.92072 12.05796,20.66116 19.801,29.97322 -0.18276,0.6333 -0.3806,1.30185 -0.63666,2.03604 -1.03159,2.95783 -3.77078,5.454 -4.46767,8.70417 -0.49238,2.29635 -2.33259,17.96818 -2.03254,18.14518 11.22688,6.6229 9.59178,-2.54785 14.95357,-7.21334 1.50506,-1.30963 3.816,-3.07651 4.69555,-4.56749 1.8616,-3.15573 0.77258,-8.80267 1.6766,-13.01883 0.17649,-0.8231 0.88725,-2.83257 1.6463,-4.87827 2.15852,-0.43417 4.96036,-0.26064 4.41983,-0.88182 -0.96765,-1.11205 -1.8842,-2.3087 -2.78531,-3.54159 0.37066,-1.0197 0.63284,-1.73043 0.57807,-1.76274 -0.29127,-0.17182 -1.00456,-0.0958 -1.79601,0.0437 -3.33612,-4.80298 -6.46129,-10.10804 -10.34077,-14.56645 -2.57652,-2.96103 -22.28968,-25.62405 -19.5755,-30.22502 1.30095,-2.20534 2.14271,-6.39351 2.7215,-9.09288 1.06781,-4.98008 8.86756,-42.59589 10.70724,-43.0704 2.13801,-0.55145 2.37182,7.40255 3.80569,8.24841 2.62321,1.54747 3.02364,9.87774 5.02326,12.96891 2.56461,3.9646 6.86053,7.33085 10.36565,10.78413 5.76864,5.68332 12.33125,12.61072 19.43761,16.80284 0.99053,0.58434 2.6818,0.63788 2.96903,1.75148 0.0941,0.36473 -9.07813,16.40783 -9.89225,20.20471 -2.05162,9.56836 -4.67685,30.86528 -4.80372,41.93497 -0.007,0.0145 -0.0155,0.0235 -0.0224,0.038 -1.9393,4.04447 -4.93768,9.68402 -2.48652,11.12999 7.45804,4.39959 25.33968,3.56551 33.94322,1.3464 1.59187,-0.41059 11.22924,-3.01323 13.90467,-2.52143 -0.91691,-0.68481 -2.53693,-2.20325 -3.12584,-4.48649 -0.40787,-1.58132 -0.23846,-10.14629 -1.06455,-10.63361 -0.11498,-0.0678 -3.31306,1.91953 -4.31465,2.79106 -1.55501,1.3531 -8.26248,2.52979 -10.22776,2.63805 -1.32225,0.0728 -4.98122,0.0827 -8.56515,-0.0499 1.4012,-13.80689 4.0267,-31.87627 8.4608,-39.39279 3.38938,-5.74555 8.96175,-12.88666 11.52877,-17.23818 0.70145,-1.18908 -12.32324,-18.56926 -14.78013,-21.39279 -3.90694,-4.48996 -12.08881,-16.49559 -16.70426,-19.21831 -4.34382,-2.56247 -8.71437,-7.2471 -12.10402,-11.14257 -4.45486,-5.11967 2.37816,-16.80523 1.22084,-21.29219 -3.52548,-13.66836 -4.02518,-28.61841 -7.62372,-42.57002 l -2.63805,-10.22776 c -0.18299,-0.70946 0.67594,-2.23197 0.4132,-2.52704 1.45534,0.006 8.73354,-0.37063 11.38807,-0.51687 8.00364,-0.4409 28.43962,-3.25998 34.51924,0.32646 1.76683,1.04228 0.18205,10.46535 0.69145,12.44031 1.03485,4.01212 0.1899,25.11176 -0.76507,29.56555 -1.61996,7.55516 6.11886,19.58837 5.53674,27.97239 -0.27827,4.00746 -0.49134,7.55764 -1.28791,11.27266 -0.12707,0.59266 -1.52195,0.60569 -1.37057,1.1926 0.0632,0.24507 4.59381,0.0418 5.12636,0.35594 1.1446,0.67522 6.38744,3.38704 7.51156,3.09709 1.91675,-0.49438 -2.50598,-8.23362 -1.65617,-9.67419 1.28714,-2.1819 9.99908,-3.76627 12.18216,-4.82033 1.72883,-0.83475 19.10207,-7.46125 19.67408,-8.43091 0.38454,-0.65187 -4.21526,-13.08945 -5.25114,-17.10559 -1.16183,-4.50444 -26.21162,17.24811 -27.6946,16.37328 -0.18412,-0.10862 0.60287,-2.81169 0.76179,-3.55286 0.47522,-2.21636 -1.50811,-5.09863 -1.03959,-7.28368 2.49737,-11.64724 -2.17099,-25.87389 -2.26167,-38.04714 -0.0397,-5.33459 2.50626,-29.44638 2.1581,-30.79622 -0.15138,-0.58691 -0.78366,1.04122 -1.37058,1.1926 -2.25611,0.58192 -5.98172,0.96142 -8.30362,0.46357 -11.13445,-2.38742 -29.70173,-1.56904 -42.38675,1.70281 -3.54156,0.91348 -9.14232,2.71342 -12.79094,2.46008 -0.0544,-0.004 -4.38263,-0.0873 -5.45442,0.37413 0.76734,-0.67409 9.43416,-9.6541 11.08193,-11.08792 4.5464,-3.95604 0.27121,-23.23325 -3.16868,-28.55092 -7.22241,-11.16497 -30.71617,-7.85901 -41.04894,-2.86998 -13.0396,6.29602 -27.42592,20.53459 -11.56885,33.22353 5.42373,4.34011 10.28605,7.64463 16.82452,9.92502 0.65209,0.22743 3.19637,1.60604 4.66345,2.31488 -2.42952,0.51152 -8.26954,4.92207 -11.71145,2.89165 -4.36179,-2.57308 -44.05179,8.69942 -45.8975,7.61061 -1.36451,-0.80494 -0.96169,-6.98168 -1.44544,-8.85719 -0.3849,-1.49227 -1.85404,-38.73814 -1.67785,-39.03681 0.80499,-1.3646 6.95826,-3.88018 9.0102,-7.35856 0.24342,-0.41264 5.2773,-2.22318 4.31465,-2.79106 -0.59729,-0.35235 -9.69911,-7.56741 -10.30263,-7.41174 z m 152.57266,258.20179 c 0.3717,0.27458 0.62879,0.43588 0.62464,0.41979 -0.052,-0.20146 -0.27129,-0.34733 -0.62464,-0.41979 z"
       id="path3729"
       inkscape:connector-curvature="0" />
    <path
       style="fill:#ff0000;stroke:#ffffff;stroke-width:1px;stroke-linecap:butt;stroke-linejoin:miter;stroke-opacity:0"
       d="m 289.90557,46.435235 c -0.84949,-0.005 -1.74664,0.0618 -2.6875,0.25 -14.04002,2.44509 -24.17069,28.90861 -17.875,41.5 4.80536,9.61072 7.33682,4.89932 10.5625,8.125 0.64646,0.64645 -1.625,5.145865 -1.625,6.499995 0,2.75504 2.27067,7.64616 0.8125,10.5625 -0.99511,1.99023 -5.12419,1.8742 -6.5,3.25 -3.66082,3.66082 -7.50255,6.73097 -9.875,10.59375 -5.8523,-0.83432 -13.70995,-1.625 -20.21875,-1.625 -1.23533,0 -6.36827,1.75672 -7.3125,0.8125 -0.66249,-0.66249 5.21427,-10.32585 5.6875,-12.21875 1.77289,-7.0916 10.06321,-43.375705 12.21875,-45.531245 0.73886,-0.73885 4.69927,-5.6875 4.875,-5.6875 1.45975,0 3.03031,-0.5928 4.0625,-1.625 4.52097,-4.52096 -18.21476,-2.59175 -19.53125,-3.25 -1.17074,-0.58537 -10.10436,-2.08314 -10.5625,-1.625 -0.61619,0.61619 -0.8125,4.62342 -0.8125,5.6875 0,1.11954 -1.88805,4.61195 -0.8125,5.6875 1.0338,1.0338 20.16988,-2.29487 12.1875,5.6875 -9.12831,9.12832 -12.1875,39.604245 -12.1875,53.687495 0,1.08508 -1.91151,7.026 -1.625,7.3125 0.70292,0.70292 2.23454,-0.8125 3.25,-0.8125 9.0087,0 17.9229,-1.625 26.84375,-1.625 0.22111,0 1.28662,-0.069 2,-0.125 -0.23632,1.05682 -0.375,2.16595 -0.375,3.375 0,3.67965 1.3998,13.62189 3.1875,23.71875 -6.94384,2.10951 -14.47664,4.63289 -18.65625,8.8125 -5.45446,5.45446 -5.1723,-16.28125 -5.6875,-16.28125 -0.81321,0 0,1.6243 0,2.4375 0,7.0205 1.68164,16.05466 0,22.78125 -0.82339,3.29356 -2.14387,7.8301 -2.375,11.21875 4.87447,-1.58357 8.84774,-4.5566 13.90625,-4.65625 4.23615,-1.60591 10.87455,-4.79731 16.1875,-7.4375 1.21906,5.18575 2.37673,9.00174 3.1875,9.8125 0.41263,0.41263 0.8125,21.01248 0.8125,23.59375 0,4.18118 -7.95314,23.71879 -9.75,30.90625 -1.03941,4.15762 -1.82196,17.45641 -3.25,20.3125 -0.65492,1.30985 -3.11255,8.2937 -2.4375,8.96875 10.9463,10.94631 26.14488,18.91475 32.53125,31.6875 0.60097,1.20193 -19.60953,14.57798 -19.53125,14.65625 1.32999,1.32999 2.4664,3.27889 4.0625,4.875 1.35493,1.35492 10.82753,-4.0625 13.8125,-4.0625 5.86671,0 21.88087,1.80075 24.40625,-3.25 0.17276,-0.34552 -4.91351,-11.44475 -5.6875,-12.21875 -0.59265,-0.59264 -0.0104,-3.26042 -0.8125,-4.0625 -3.70208,-3.70208 -12.22325,-7.317 -17.09375,-12.1875 -5.73169,-5.73169 -12.0466,-12.8591 -16.25,-17.0625 -0.76122,-0.76122 2.70937,-29.28437 3.25,-30.90625 1.30161,-3.90483 3.02931,-7.71487 4.875,-11.40625 0.76228,-1.52455 3.77008,-11.89508 4.0625,-12.1875 1.21981,-1.21981 4.49895,-0.4052 5.71875,-1.625 1.60147,-1.60147 2.66059,-4.28559 4.0625,-5.6875 5.54449,-5.54449 5.52552,-16.7698 8.9375,-23.59375 1.32006,-2.64013 -0.17878,-9.65263 -0.8125,-12.1875 -0.76574,-3.06294 -1.98793,-6.07379 -3.0625,-9.125 7.38203,-4.38136 14.25109,-9.40733 19.3125,-14.46875 1.04375,-1.04374 3.2807,-0.8432 4.0625,-1.625 0.62549,-0.62549 -12.19442,-11.78644 -13.8125,-13 -3.95459,-2.96594 -8.19171,-8.57626 -12.90625,-11.96875 0.63877,-2.05221 0.84829,-4.05332 -0.0937,-5.9375 -0.88904,-1.77807 -5.0795,-11.983 -4.0625,-13 3.63038,-3.630375 13.38185,0.43065 17.0625,-3.249995 1.84941,-1.84942 2.36627,-6.42877 4.0625,-8.125 2.24118,-2.24118 -1.86352,-9.68431 -2.4375,-11.40625 -3.70711,-11.12134 -6.53896,-31.89428 -19.28125,-31.96875 z m 3.25,90.906245 c 1.55918,1.39261 3.1249,2.6666 4.65625,3.6875 1.15344,0.76895 6.5,2.77006 6.5,3.25 0,0.39982 -6.16352,3.27969 -9.09375,4.40625 -0.54547,-3.87553 -1.14501,-8.12619 -2.0625,-11.34375 z"
       id="path3804"
       inkscape:connector-curvature="0" />
    <path
       style="fill:#ff00c0;fill-opacity:1;stroke:#ffffff;stroke-width:1px;stroke-linecap:butt;stroke-linejoin:miter;stroke-opacity:0"
       d="m 341.10503,113.46368 c -0.93241,0.0378 -1.78508,0.23629 -2.5,0.59375 -2.04232,1.02115 -3.57521,2.37267 -5.6875,4.0625 -13.61014,0.92151 -21.21166,20.72296 -18.6875,33.34375 2.48379,12.41893 10.68995,19.74862 20.15625,22.5625 -0.76382,3.43456 -1.18728,7.29563 -1.90625,9.875 -10.78215,0.64746 -21.33553,1.87295 -30.46875,4.15625 -5.1524,1.2881 -17.72316,-1.77684 -21.125,1.625 -2.1318,2.1318 0.98347,12.4871 0,15.4375 -1.45111,4.35334 0.67162,10.17262 -0.8125,14.625 -3.94052,11.82156 -2.11415,26.26646 -3.25,39.0625 -1.09103,1.4547 -3.72328,3.58921 -2.4375,4.875 1.20994,1.20993 31.70152,-0.014 33.3125,-1.625 1.15513,-1.15513 -17.875,-8.77613 -17.875,-8.96875 l 0,-47.15625 c 0,-1.07862 -0.77274,-6.53976 0,-7.3125 2.72787,-2.72787 15.0077,-4.25965 25.8125,-5.03125 -0.20873,0.24152 -0.39283,0.56692 -0.59375,0.96875 -1.84233,3.68466 -7.04763,41.9985 -4.875,46.34375 2.73877,5.47755 3.06999,34.33625 0,37.40625 -2.30408,2.30408 1.49158,10.69592 -0.8125,13 -2.00156,2.00157 -34.11417,30.94832 -33.34375,31.71875 9.0253,9.02529 21.53637,23.80456 30.0625,36.59375 3.5685,5.35276 6.78002,12.46751 10.59375,16.28125 10.89245,10.89244 -12.72755,2.1338 -14.65625,4.0625 -0.6006,0.6006 2.26261,3.07511 3.25,4.0625 1.44787,1.44788 0.49422,4.55672 1.625,5.6875 1.0371,1.0371 10.39574,-1.93224 11.40625,-2.4375 4.69778,-2.34889 22.06752,1.625 27.65625,1.625 0.69399,0 2.64748,0.36193 4.46875,0.84375 -2.36962,-1.86255 -5.04094,-4.42563 -5.28125,-4.90625 -2.19821,-4.39643 -8.13093,-8.89952 -11.40625,-13.8125 -3.17758,-4.76637 -7.51666,-9.98541 -11.375,-13.84375 -6.15629,-6.15629 -12.97439,-20.19878 -16.28125,-26.8125 -0.33332,-0.66664 -3.51002,-7.89623 -2.4375,-8.96875 4.5333,-4.5333 30.41987,-27.29888 32.53125,-25.1875 2.09693,2.09693 23.193,7.51288 26.84375,5.6875 1.7663,-0.88315 17.70334,-2.64042 19.53125,-0.8125 0.4286,0.42859 1.625,0.20637 1.625,0.8125 0,0.56096 -6.63016,12.58313 -7.34375,15.4375 -2.73855,10.95418 -6.21473,21.64018 -8.9375,32.53125 -0.69599,2.78396 -3.18634,4.68401 -4.0625,7.3125 -2.4053,7.21589 -4.875,12.97706 -4.875,20.34375 0,2.05051 -2.79021,10.2098 -2.4375,10.5625 0.23734,0.23735 9.78481,-1.625 11.375,-1.625 4.54538,0 11.97702,-1.43475 16.28125,0 1.89141,0.63047 5.15313,3.25 6.5,3.25 0.27475,0 -0.36624,-9.01753 0,-9.75 0.48894,-0.9779 3.24639,-8.12862 2.4375,-8.9375 -1.0153,-1.01531 -17.73046,2.61329 -19.53125,0.8125 -0.12014,-0.12014 4.30644,-6.17538 4.875,-7.3125 2.71969,-5.43938 4.81053,-12.33005 8.15625,-17.90625 5.6991,-9.49848 9.5779,-20.32774 15.4375,-30.09375 3.35299,-5.58832 7.74828,-11.43406 10.5625,-17.0625 0.71946,-1.43893 3.337,-9.69424 3.25,-9.78125 -0.67767,-0.67767 -3.38483,0.67767 -4.0625,0 -3.98344,-3.98343 -16.3269,-6.02788 -22.75,-7.3125 -9.18433,-1.83686 -17.88168,-7.04835 -27.03125,-7.28125 -0.0568,-1.01772 -0.005,-1.8909 0.1875,-2.46875 0.58493,-1.75479 2.89741,-37.75884 1.625,-39.03125 -0.0216,-0.0216 -0.0408,-0.0413 -0.0625,-0.0625 1.61574,-12.76096 1.68912,-28.53776 1.6875,-38.875 15.18411,0.91521 29.70476,1.95475 30.09375,2.34375 1.30604,1.30604 0.033,16.96343 -0.8125,19.5 -3.6825,11.04752 -2.45067,28.49508 -7.3125,38.21875 -2.07616,4.15231 -15.46875,6.59556 -15.46875,8.15625 0,2.33737 12.49646,-2.1598 13.84375,-0.8125 1.77084,1.77084 5.32523,-0.12075 8.125,0.8125 2.43961,0.81321 4.74092,2.4375 7.3125,2.4375 1.64884,0 -0.8125,-3.22616 -0.8125,-4.875 0,-4.22639 0.80039,-8.90821 1.625,-13.03125 2.40225,-12.01125 2.82913,-23.44753 4.0625,-35.78125 0.72885,-7.28845 1.40605,-14.71735 2.4375,-21.9375 0.69496,-4.86476 3.3966,-8.96875 3.25,-8.96875 -3.41804,0 -9.31084,1.51522 -13,2.4375 -8.11356,2.0284 -19.277,0 -27.65625,0 -1.84003,0 -3.76859,0.0308 -5.6875,0.0312 -0.005,-0.006 0.006,-0.0257 0,-0.0312 -1.98502,-1.98502 -6.30673,-5.85652 -10.71875,-9.78125 7.78445,-2.91798 14.18499,-8.9587 16.40625,-17.84375 1.87934,-7.51739 3.69012,-15.401 0,-22.78125 -3.086,-6.17199 -21.01793,-19.6463 -30.03125,-19.28125 z m 9.3125,276.28125 c 1.92783,1.5153 3.65625,2.57062 3.65625,1.59375 0,-0.45794 -1.75209,-1.09 -3.65625,-1.59375 z"
       id="path3814"
       inkscape:connector-curvature="0" />
    <path
       style="fill:#ff0067;fill-opacity:1;stroke:#ffffff;stroke-width:1px;stroke-linecap:butt;stroke-linejoin:miter;stroke-opacity:0"
       d="m 467.10432,26.500985 c -0.0988,0 -0.19434,0.0108 -0.28125,0.0312 -15.17055,0.45307 -37.9375,26.89261 -37.9375,41.4375 0,13.82997 6.26716,27.53983 17.875,33.343745 3.73303,1.86652 15.43135,2.4001 17.09375,4.0625 0.57348,0.57347 0.82249,12.1775 0.8125,12.1875 -1.69498,1.69498 -20.65131,-1.31743 -23.59375,1.625 -3.55883,3.55884 -13.42797,8.1997 -17.875,17.09375 -0.99828,1.99656 -1.83746,4.15843 -2.5625,6.4375 -5.49009,2.09839 -11.84312,5.21844 -17.78125,8.1875 -13.88367,6.94184 -29.02882,15.21631 -39.84375,26.03125 -1.05675,1.05675 -7.50389,8.74611 -6.5,9.75 6.24759,6.24759 14.19158,18.08673 22.75,25.21875 11.83251,9.86042 25.91026,20.22277 35.78125,30.09375 1.73869,1.7387 10.80907,-6.20141 13.03125,-7.3125 2.54201,-1.271 5.26856,-2.98563 8.0625,-4.375 0.69637,2.13778 0.27042,5.39542 1.6875,6.8125 1.77374,1.77374 3.87329,4.68579 5.6875,6.5 0.71579,0.71579 -3.10842,13.28316 -0.8125,17.875 4.95227,9.90454 32.53125,6.9568 32.53125,13.03125 0,16.27364 -10.05503,32.76002 -22.75,42.28125 -4.63343,3.47507 -12.51522,5.15608 -17.90625,7.3125 -4.06934,1.62773 -8.74031,4.83556 -13,5.6875 -5.23528,1.04705 -22.65822,6.40822 -26.03125,9.78125 -0.89676,0.89676 5.06007,1.31128 5.6875,1.625 5.69963,2.84982 11.842,4.28038 17.90625,7.3125 4.91867,2.45933 15.20502,8.70502 17.875,11.375 0.68319,0.68319 3.5868,8.60071 5.6875,6.5 3.31518,-3.31517 -20.1282,-22.1218 -17.875,-24.375 0.7698,-0.7698 22.20572,-4.72482 25.1875,-5.71875 15.69503,-5.23167 35.76196,-21.02391 42.3125,-34.125 2.42967,-4.85934 2.18106,-20.55701 0.8125,-26.03125 -2.79164,-11.16654 -8.76931,-24.20681 -17.09375,-32.53125 -3.10105,-3.10105 -10.27416,-2.14916 -13,-4.875 -1.86978,-1.86978 -3.1599,-4.24269 -1.625,-7.3125 0.72498,-1.44996 0.0622,-4.2181 0.8125,-5.71875 3.04153,-6.08305 8.98331,-7.05694 14.625,-8.9375 2.65799,-0.886 8.02696,1.98223 10.5625,3.25 18.12004,9.06002 34.48778,36.71335 40.6875,55.3125 1.64758,4.94272 1.5802,10.42811 3.25,15.4375 3.89447,11.68341 -21.89664,27.72836 -16.28125,33.34375 0.95194,0.95194 5.48655,-1.625 7.3125,-1.625 9.26695,0 20.94861,4.21372 30.09375,6.5 2.60874,0.65219 5.62952,0.78276 8.15625,1.625 4.58007,1.52669 13.8125,8.58297 13.8125,4.875 0,-0.66595 -2.28228,-1.46978 -2.4375,-1.625 -1.59294,-1.59294 -18.27899,-13.18637 -21.15625,-14.625 -3.93239,-1.9662 -11.06184,-2.12434 -13.8125,-4.875 -0.41003,-0.41004 6.10955,-5.29705 7.3125,-6.5 6.23074,-6.23073 10.86498,-12.61618 13,-21.15625 3.13168,-12.52675 2.29231,-30.5293 -1.625,-42.28125 -0.89437,-2.68312 -3.33241,-5.20461 -4.0625,-8.125 -0.92532,-3.70126 -1.89739,-8.15859 -4.0625,-11.40625 -2.88159,-4.32239 -6.89672,-7.90758 -9.75,-12.1875 -0.47604,-0.71406 -1.74683,-3.60206 -2.4375,-4.0625 -7.82244,-5.21497 -29.46757,-14.83372 -39.84375,-11.375 -4.38925,1.46309 -11.05372,3.25 -15.46875,3.25 -5.29485,0 -8.104,2.47948 -10.5625,-2.4375 -0.54213,-1.08428 0.54214,-2.97822 0,-4.0625 -8.59372,-17.18745 15.66532,-13.4244 18.71875,-19.53125 1.4497,-2.8994 -19.52627,-22.79121 -16.28125,-29.28125 3.34205,-6.68411 21.35862,-9.54703 28.46875,-8.125 9.0594,1.81187 17.58208,5.46016 26.84375,7.3125 5.05233,1.01046 10.63587,-0.66468 15.4375,-1.625 1.77671,-0.35535 14.4237,-0.6112 15.4375,-1.625 0.27817,-0.27817 2.93775,-12.43848 3.28125,-13.8125 2.56544,-10.26176 7.42566,-21.84539 11.375,-31.718745 0.47922,-1.19803 2.24016,-10.59375 2.4375,-10.59375 0.15408,0 -4.73698,0.84375 -9.75,0.84375 -1.10897,0 -15.46865,-0.96512 -25.21875,-1.6875 6.74454,1.44909 15.35404,4.77058 18.6875,11.4375 2.28311,4.566225 -9.52889,17.432775 -12.1875,22.749995 -4.03427,8.06853 -42.95084,10.91222 -51.21875,8.15625 -1.53375,-0.51125 -11.40625,-3.1696 -11.40625,-4.0625 0,-1.85827 5.16187,-5.14502 3.25,-8.96875 -0.58979,-1.17959 -3.64849,-5.28901 -3.25,-5.6875 0.72114,-0.72114 2.26984,-0.32242 3.25,-0.8125 8.11004,-4.05502 12.34353,-11.061645 14.65625,-20.312495 3.12301,-12.49205 -2.21181,-34.30787 -13,-41.5 -6.08996,-4.05998 -12.31021,-5.77896 -17.09375,-10.5625 -0.51518,-0.51517 -2.84391,-3.38569 -3.25,-4.0625 -0.75103,-1.25173 -0.16525,-4.0625 -1.625,-4.0625 z m 73.1875,57.6875 c -4.98083,-1.07015 -8.9375,-1.13338 -8.9375,-0.78125 0,0.0845 4.03234,0.41783 8.9375,0.78125 z m -74.4375,-56.75 c -0.45775,0.92152 -0.63953,2.30304 -1.1875,3.125 -0.7667,1.15004 -2.68031,0.8125 -4.0625,0.8125 l 5.25,-3.9375 z m -49.625,135.749995 c -0.60173,3.3542 -1.2373,6.63672 -2,9.6875 -0.88424,3.53696 -7.60068,20.05557 -4.0625,23.59375 1.84965,1.84965 7.52951,4.7474 9.78125,8.125 3.73656,5.60486 7.66318,13.59712 11.53125,19.40625 -4.83896,2.07171 -9.78579,3.72102 -13.96875,5.8125 -1.58302,0.79151 -6.20624,-4.41874 -8.15625,-5.71875 -5.78975,-3.85983 -40.65625,-29.28414 -40.65625,-31.71875 0,-0.21381 6.56108,-4.31143 7.3125,-4.875 10.71858,-8.03894 21.63665,-16.57196 34.15625,-21.9375 1.70541,-0.73089 3.83949,-1.55021 6.0625,-2.375 z"
       id="path3850"
       inkscape:connector-curvature="0" />
    <path
       style="fill:#ff8c00;fill-opacity:1;stroke:#ffffff;stroke-width:0.75524426000000000px;stroke-linecap:butt;stroke-linejoin:miter;stroke-opacity:0"
       d="m 635.22148,95.215363 c -4.66905,-0.0222 -9.36035,1.54829 -12.57954,4.76748 -0.9658,0.965807 -1.84723,1.062667 -2.24213,1.864507 -11.9796,4.68253 -22.63839,24.86187 -19.25873,35.00086 2.13055,6.39167 9.11312,7.88778 14.60926,9.95978 -2.65126,2.82335 -4.01174,6.4843 -5.73514,10.2666 -10.772,6.14475 -15.78953,20.48621 -23.60138,28.29806 -2.06878,2.06877 -3.78238,6.16981 -4.20105,6.75 0.13555,0.13079 0.35671,0.47471 0.49563,0.61363 0.0176,0.0175 2.95791,0.56901 3.09178,0.61364 1.60466,0.53488 3.41076,0.92121 5.23951,1.27447 -6.76438,13.83982 -18.7631,39.05878 -18.7631,43.56816 0,5.57114 8.42469,10.09937 11.04545,15.3409 7.3598,14.71959 17.76394,27.49551 22.72813,42.38808 0.66893,2.00681 1.9381,3.87415 3.13898,5.78234 -1.56772,2.15704 -2.89917,4.16984 -3.75262,5.87675 -3.85496,7.70991 -10.56323,17.38063 -15.95453,24.56904 -5.65075,7.53434 -6.36071,17.94909 -11.06905,25.79631 -3.21565,5.35942 -4.24837,10.92779 -6.13636,16.59177 -0.30689,0.92069 -0.74471,3.81289 -1.22727,4.29545 -0.35711,0.35712 -2.51734,0.58224 -1.22727,1.22728 1.2986,0.64929 26.55133,-4.90909 31.31903,-4.90909 2.9347,0 8.44277,-0.0859 11.06905,1.22727 0.73386,0.36693 3.23931,0.78477 3.68182,1.22727 0.20471,0.20473 0.61363,0.90316 0.61363,0.61364 0,-0.80671 -1.61629,-1.00265 -1.84091,-1.22727 -1.75897,-1.75898 -2.7136,-5.24663 -4.31905,-7.38724 -2.30359,-3.07145 -5.7351,-3.61886 -8.5909,-5.52272 -0.50031,-0.33354 -4.20652,-2.1299 -6.15996,-2.59615 2.09161,-1.92487 6.28734,-7.96304 7.38723,-9.06294 6.18981,-6.1898 12.65208,-14.2351 16.59177,-22.11449 0.43829,-0.87659 0.8954,-1.75126 1.34528,-2.61976 1.10264,2.51452 2.1146,5.02214 2.95017,7.52885 1.53871,4.61613 -3.69401,11.67048 -1.22727,14.13722 0.76183,0.76183 4.42645,0.24822 5.52273,0.61364 4.77398,1.59133 40.66857,8.34811 43.00172,3.68182 2.1892,-4.37841 -29.97584,-12.67812 -31.93267,-16.59178 -1.95049,-3.90097 2.41752,-9.31559 0.61363,-14.72726 -1.70547,-5.11642 -1.17687,-10.773 -2.47814,-15.97814 -0.46443,-1.85769 -1.08098,-3.79064 -1.6757,-5.75873 3.00254,-6.325 5.47261,-12.82645 9.06293,-18.81031 1.82286,-3.0381 3.61822,-5.45912 6.13636,-7.97726 0.51816,-0.51817 2.66319,-1.42362 2.45454,-1.84091 -3.20995,-6.4199 -23.10556,-20.32066 -29.47813,-24.56904 -7.82011,-5.21341 -15.4268,-11.17577 -21.78407,-18.03146 5.1713,-5.82663 11.44082,-12.93964 12.57953,-16.35576 1.18739,-3.56217 0.93616,-7.45004 1.84091,-11.06905 0.0138,-0.055 0.0335,-0.11013 0.0472,-0.16521 3.04192,0.94864 6.08774,1.85236 9.15733,2.61976 8.26107,2.06526 15.90329,5.98784 23.95541,8.00086 1.12104,0.28027 12.49789,2.33564 14.04282,3.77623 1.94846,-0.82658 5.77711,-2.36749 6.23077,-2.54895 6.24136,-2.49655 12.07784,-5.62666 18.40908,-8.00087 3.03554,-1.13833 19.99071,-4.62621 20.27358,-4.90909 1.3305,-1.3305 0.11808,-13.25221 -1.8409,-12.27272 -6.46233,3.23117 -50.74551,14.19146 -56.50172,12.27272 -2.76601,-0.922 -5.75777,-3.1622 -8.5909,-4.29545 -4.384,-1.7536 -14.98689,-4.60239 -22.39771,-6.89161 0.22917,-1.0641 0.47171,-2.12328 0.70804,-3.18618 3.78313,-0.87217 10.20935,-3.0128 13.07516,-3.4222 15.44791,-2.20684 31.20229,-3.94836 46.68354,-6.15996 4.74322,-0.67761 9.24904,-1.22728 14.13723,-1.22728 l 6.13636,0 c -3.15768,0 -1.21331,-7.34966 -2.45454,-8.5909 -1.21256,-1.21256 -6.42127,0.98578 -7.38724,1.22727 -1.53617,0.38404 -3.35534,-0.31074 -4.90908,0 -8.56555,1.71311 -17.62087,2.58318 -26.40995,3.68182 -6.13534,0.76692 -12.35369,0.0162 -18.40908,1.22727 -3.17219,0.63443 -12.06943,1.34072 -14.75087,0 -0.57037,-0.28518 -1.02168,-1.24272 -1.36888,-2.50175 0.77028,-2.10517 1.62241,-4.14167 2.59615,-6.08915 1.16609,-2.33218 0.65275,-5.60094 1.84091,-7.97727 0.97126,-1.94252 1.98932,-9.10321 1.88811,-10.29021 0.1868,-0.0535 0.39741,-0.12295 0.56644,-0.1652 22.16301,-5.54076 38.67285,-31.55373 14.13723,-47.910807 -2.89377,-1.92918 -6.51712,-2.90934 -10.1486,-2.92658 z m 28.48687,120.957097 c -0.6747,0.28622 -1.15647,0.49405 -1.15647,0.51923 0,0.40944 0.93775,0.28952 1.22727,0 0.15632,-0.15632 0.12329,-0.33825 -0.0708,-0.51923 z m -81.49558,-24.04981 c -0.0642,-0.062 -0.118,-0.0931 -0.118,0 0,0.0966 0.0539,0.0888 0.118,0 z m 44.347,84.49295 c 1.25078,0.55398 3.33236,1.60033 2.83217,2.10052 -0.39956,0.39957 -0.94732,0.98357 -1.46329,1.51049 -0.43043,-1.22912 -0.86319,-2.43871 -1.36888,-3.61101 z"
       id="path3868"
       inkscape:connector-curvature="0" />
  </g>
</svg>
