<?xml version="1.0" encoding="UTF-8" standalone="no"?>
<!-- Created with Inkscape (http://www.inkscape.org/) -->
<svg
   xmlns:dc="http://purl.org/dc/elements/1.1/"
   xmlns:cc="http://creativecommons.org/ns#"
   xmlns:rdf="http://www.w3.org/1999/02/22-rdf-syntax-ns#"
   xmlns:svg="http://www.w3.org/2000/svg"
   xmlns="http://www.w3.org/2000/svg"
   xmlns:sodipodi="http://sodipodi.sourceforge.net/DTD/sodipodi-0.dtd"
   xmlns:inkscape="http://www.inkscape.org/namespaces/inkscape"
   width="744.09448819"
   height="1052.3622047"
   id="svg2"
   sodipodi:version="0.32"
   inkscape:version="0.46"
   sodipodi:docname="malicious-user.svg"
   inkscape:output_extension="org.inkscape.output.svg.inkscape">
  <defs
     id="defs4">
    <inkscape:perspective
       sodipodi:type="inkscape:persp3d"
       inkscape:vp_x="0 : 526.18109 : 1"
       inkscape:vp_y="0 : 1000 : 0"
       inkscape:vp_z="744.09448 : 526.18109 : 1"
       inkscape:persp3d-origin="372.04724 : 350.78739 : 1"
       id="perspective10" />
  </defs>
  <sodipodi:namedview
     id="base"
     pagecolor="#ffffff"
     bordercolor="#666666"
     borderopacity="1.0"
     gridtolerance="10000"
     guidetolerance="10"
     objecttolerance="10"
     inkscape:pageopacity="0.0"
     inkscape:pageshadow="2"
     inkscape:zoom="0.7"
     inkscape:cx="316.49047"
     inkscape:cy="752.6643"
     inkscape:document-units="px"
     inkscape:current-layer="layer1"
     showgrid="false"
     inkscape:window-width="1438"
     inkscape:window-height="898"
     inkscape:window-x="0"
     inkscape:window-y="0" />
  <metadata
     id="metadata7">
    <rdf:RDF>
      <cc:Work
         rdf:about="">
        <dc:format>image/svg+xml</dc:format>
        <dc:type
           rdf:resource="http://purl.org/dc/dcmitype/StillImage" />
      </cc:Work>
    </rdf:RDF>
  </metadata>
  <g
     inkscape:label="Layer 1"
     inkscape:groupmode="layer"
     id="layer1">
    <path
       style="opacity:1;fill:#ccabab;fill-opacity:1;fill-rule:evenodd;stroke:#000000;stroke-width:2;stroke-linecap:butt;stroke-linejoin:miter;marker:none;marker-start:none;marker-mid:none;marker-end:none;stroke-miterlimit:4;stroke-dasharray:none;stroke-dashoffset:0;stroke-opacity:1;visibility:visible;display:inline;overflow:visible;enable-background:accumulate"
       d="M 668.1611,313.34383 C 671.34259,310.16235 682.06428,309.30322 686.34385,309.30322 C 692.09804,309.30322 695.13766,308.36746 699.47583,307.28292 C 704.33224,306.06882 708.43037,303.34494 712.60782,300.21185 C 715.09134,298.34921 717.92967,292.05642 718.66873,289.10017 C 719.86116,284.33044 722.10982,280.19769 723.71949,276.97834 C 726.97058,270.47617 727.24448,266.99517 721.69919,262.83621 C 718.17311,260.19165 709.87888,265.21083 706.5469,266.87682 C 698.89962,270.70046 700.48599,274.13956 700.48599,265.86667 C 700.48599,259.77855 703.45294,257.75369 697.45553,254.75499 C 693.83779,252.94612 688.20643,261.13136 687.354,262.83621 C 685.73216,266.0799 686.83167,253.61425 683.31339,252.73468 C 676.90018,251.13138 677.39285,257.22396 676.24233,261.82606 C 674.6789,268.07976 675.7624,269.37705 672.20172,272.93773 C 668.44549,276.69396 666.65273,278.23761 661.09004,281.01895 C 657.76351,282.68222 653.58648,279.10677 649.97836,280.0088 C 645.11456,281.22475 639.87999,286.06735 635.83622,289.10017 C 633.51898,290.83811 632.52339,293.854 630.78546,296.17124"
       id="path2438" />
    <path
       style="opacity:1;fill:#6a4d73;fill-opacity:1;fill-rule:evenodd;stroke:#000000;stroke-width:2;stroke-linecap:butt;stroke-linejoin:miter;marker:none;marker-start:none;marker-mid:none;marker-end:none;stroke-miterlimit:4;stroke-dasharray:none;stroke-dashoffset:0;stroke-opacity:1;visibility:visible;display:inline;overflow:visible;enable-background:accumulate"
       d="M 629.77531,287.07987 C 628.42844,292.46735 629.06667,298.79968 625.7347,303.24231 C 618.38218,313.04567 611.07478,323.47077 605.53165,334.55704 C 600.92651,343.76731 594.84811,354.05767 592.39966,363.85146 C 589.97947,373.53226 584.89383,382.11096 581.28799,391.12558 C 578.53741,398.00201 574.52794,403.63552 571.18646,410.31848 C 569.6119,413.4676 567.34934,422.84364 564.11539,424.46061 C 559.1856,426.92551 558.24471,424.71426 555.02402,420.42 C 551.53553,415.76869 548.80294,413.18878 544.92249,409.30833 C 541.82637,406.2122 537.33275,405.75919 533.81082,402.23726 C 531.27213,399.69858 527.12783,395.70979 523.70929,393.14589 C 518.1822,389.00057 501.85442,380.6794 508.557,379.00375 C 512.19916,374.14754 503.96834,390.28733 502.49609,396.17634 C 501.25563,401.13819 497.59565,404.66643 496.43517,409.30833 C 495.30752,413.81893 493.50825,416.97542 492.39456,421.43016 C 490.92269,427.31763 491.82789,428.32876 497.44532,432.54184 C 504.11141,437.5414 509.01664,443.7457 515.62807,448.70428 C 520.81883,452.59735 529.83987,456.29784 535.83112,457.79565 C 539.2275,458.64474 545.94746,464.37275 547.95295,465.87687 C 551.64548,468.64627 554.21005,473.14412 557.04432,475.97839 C 561.2605,480.19457 562.62468,479.00885 565.12555,479.00885 C 567.88899,479.00885 573.65834,466.95836 575.22707,464.86672 C 580.91391,457.28427 585.78519,450.11578 591.38951,442.64336 C 595.82202,436.73336 601.30101,431.72171 606.5418,426.48092 C 611.35511,421.6676 616.50778,415.88669 620.68394,410.31848 C 625.44806,403.96631 628.42994,397.97017 632.80577,392.13573 C 637.84492,385.41686 640.68675,379.00075 644.9276,371.93268 C 648.63511,365.7535 651.8803,359.29524 656.03927,353.74994 C 659.94539,348.54178 664.0225,341.8241 666.1408,337.5875 C 668.1573,333.55449 673.64676,325.60603 674.22202,324.45551 C 676.39356,320.11244 672.45771,315.62014 669.17126,312.33368 C 665.03137,308.1938 661.63081,302.77293 658.05958,299.2017 C 653.55213,294.69425 649.03948,293.6815 643.91744,291.12048 C 638.56789,288.4457 629.80432,286.90579 628.76516,293.14078"
       id="path2428" />
    <path
       style="opacity:1;fill:#a97eb7;fill-opacity:1;fill-rule:evenodd;stroke:#000000;stroke-width:2;stroke-linecap:butt;stroke-linejoin:miter;marker:none;marker-start:none;marker-mid:none;marker-end:none;stroke-miterlimit:4;stroke-dasharray:none;stroke-dashoffset:0;stroke-opacity:1;visibility:visible;display:inline;overflow:visible;enable-background:accumulate"
       d="M 408.5519,227.48087 C 411.46096,225.47135 417.30513,227.48087 422.69404,227.48087 C 427.66052,227.48087 432.3497,227.59233 436.83617,226.47072 C 441.57507,225.28599 445.94362,225.45655 449.96816,224.45041 C 456.22023,222.88739 457.72357,223.14719 459.05953,228.49102 C 459.20865,229.08752 447.52218,230.36521 446.9377,230.51133 C 442.30325,231.66994 438.47209,231.52148 433.80571,231.52148 C 428.69566,231.52148 424.42623,232.53163 419.66358,232.53163 C 408.61701,232.53163 410.30022,228.35503 412.59251,229.50117"
       id="path3324" />
    <path
       style="opacity:1;fill:#ccabab;fill-opacity:1;fill-rule:evenodd;stroke:#000000;stroke-width:2;stroke-linecap:butt;stroke-linejoin:miter;marker:none;marker-start:none;marker-mid:none;marker-end:none;stroke-miterlimit:4;stroke-dasharray:none;stroke-dashoffset:0;stroke-opacity:1;visibility:visible;display:inline;overflow:visible;enable-background:accumulate"
       d="M 642.61143,288.09002 C 638.50845,291.16726 648.67234,279.07661 648.67234,273.94789 C 648.67234,268.9824 648.57368,264.24101 649.6825,259.80575 C 650.82269,255.24498 658.29637,259.32825 659.78402,260.8159 C 661.86507,262.89695 658.77387,271.55028 658.77387,273.94789 C 658.77387,278.68869 659.81303,283.09728 661.80433,287.07987 C 662.14104,287.7533 662.47776,288.42674 662.81448,289.10017"
       id="path2440" />
    <path
       style="opacity:1;fill:#ccabab;fill-opacity:1;fill-rule:evenodd;stroke:#000000;stroke-width:2;stroke-linecap:butt;stroke-linejoin:miter;marker:none;marker-start:none;marker-mid:none;marker-end:none;stroke-miterlimit:4;stroke-dasharray:none;stroke-dashoffset:0;stroke-opacity:1;visibility:visible;display:inline;overflow:visible;enable-background:accumulate"
       d="M 74.191406,351.72963 C 72.569556,350.91871 70.824226,350.38276 69.140646,349.70933 C 64.468496,347.84047 60.531006,347.42481 57.018806,345.66872 C 53.422006,343.87032 48.733866,342.5364 44.896976,340.61795 C 40.902906,338.62092 40.125626,334.66451 38.836066,329.50628 C 37.804916,325.38169 38.836066,319.63603 38.836066,315.36414 C 38.836066,310.31338 38.836066,305.26261 38.836066,300.21185 C 38.836066,294.99913 40.841536,293.15562 43.886826,290.11033 C 46.243846,287.7533 49.467186,294.19997 50.957896,297.18139 C 52.508256,300.28212 53.557316,290.54136 56.008656,288.09002 C 59.935036,284.16364 63.323736,285.54758 65.100036,289.10017 C 67.221056,293.34222 67.178026,291.06279 71.160946,287.07987 C 76.066026,282.17479 76.709036,294.18195 76.211706,296.17124 C 75.068386,300.74455 75.133536,303.9804 76.211706,308.29307 C 77.616987,313.91419 81.236177,314.10802 84.292927,313.34383 C 88.643017,312.25631 91.192477,309.30322 95.404607,309.30322 C 100.51635,309.30322 101.28051,312.60378 102.47568,317.38445 C 103.35525,320.90272 104.89444,324.24228 106.51629,327.48597 C 107.75804,329.96948 107.99205,322.12747 108.53659,319.40475"
       id="path2432" />
    <path
       style="opacity:1;fill:#ccabab;fill-opacity:1;fill-rule:evenodd;stroke:#000000;stroke-width:2;stroke-linecap:butt;stroke-linejoin:miter;marker:none;marker-start:none;marker-mid:none;marker-end:none;stroke-miterlimit:4;stroke-dasharray:none;stroke-dashoffset:0;stroke-opacity:1;visibility:visible;display:inline;overflow:visible;enable-background:accumulate"
       d="M 99.271897,309.7724 C 101.83184,314.89228 100.66023,298.1531 99.271897,292.59981 C 97.942027,287.28032 97.913277,282.08033 92.200837,283.50844 C 86.373107,284.96537 86.139917,285.50104 86.139917,292.59981 C 86.139917,297.31386 86.139917,302.0279 86.139917,306.74195 C 86.139917,311.98857 84.794307,314.48394 83.109457,317.85363 C 82.896497,318.27954 83.782897,318.52706 84.119617,318.86378"
       id="path2434" />
    <path
       style="opacity:1;fill:#8c6997;fill-opacity:1;fill-rule:evenodd;stroke:#000000;stroke-width:2;stroke-linecap:butt;stroke-linejoin:miter;marker:none;marker-start:none;marker-mid:none;marker-end:none;stroke-miterlimit:4;stroke-dasharray:none;stroke-dashoffset:0;stroke-opacity:1;visibility:visible;display:inline;overflow:visible;enable-background:accumulate"
       d="M 220.71429,411.64789 C 222.32951,414.87834 218.57143,431.01559 218.57143,435.21932 C 218.57143,444.37995 217.14286,453.70222 217.14286,463.07647 C 217.14286,469.46096 216.42857,475.35612 216.42857,481.64789 C 216.42857,488.972 215,495.68581 215,503.07647 C 215,509.11421 214.28572,514.39537 214.28572,520.21932 C 214.28572,526.7201 212.95667,534.10693 211.42857,540.21932 C 210.06108,545.6893 210.60379,551.3756 209.28572,556.64789 C 208.36738,560.32124 207.87369,564.57122 208.57143,567.36218 C 209.32435,570.37387 214.75276,566.64789 217.85715,566.64789 C 224.71027,566.64789 232.00811,567.24627 238.57143,565.93361 C 247.48805,564.15029 258.79784,564.50504 267.85715,564.50504 C 276.81193,564.50504 285.49241,563.79075 294.28572,563.79075 C 303.41999,563.79075 312.8405,563.07647 322.14286,563.07647 C 332.38096,563.07647 342.61905,563.07647 352.85715,563.07647 C 362.27747,563.07647 372.22415,562.25668 381.42858,563.79075 C 391.0763,565.39871 402.40635,565.21932 412.14286,565.21932 C 421.46411,565.21932 430.5363,566.64789 440,566.64789 C 448.39145,566.64789 456.39914,566.64789 465,566.64789 C 471.63721,566.64789 477.52167,567.5808 483.57143,568.79075 C 487.95665,569.6678 494.0126,569.88323 495,565.93361 C 496.31056,560.69139 496.42858,555.40443 496.42858,549.50504 C 496.42858,543.23907 497.44162,536.58267 498.57143,530.93361 C 499.75929,524.99433 500.24329,519.00288 501.42858,513.07647 C 502.89416,505.74853 504.63024,498.84125 506.42858,491.64789 C 508.26224,484.31325 511.42858,477.87824 511.42858,470.21932 C 511.42858,463.22974 512.85715,456.61909 512.85715,449.50504 C 512.85715,443.72643 512.64428,437.92512 513.57143,432.36218 C 514.52538,426.6385 512.85715,420.82381 512.85715,415.21932 C 512.85715,410.95828 512.23566,405.68332 511.42858,401.64789 C 510.83281,398.66907 510.73835,395.31556 510,392.36218 C 509.17408,389.05849 507.75942,386.45244 506.42858,383.79075 C 504.55161,380.03682 501.09043,379.69311 497.85715,378.07647 C 492.59585,375.44582 484.16779,376.9572 478.57143,378.07647 C 471.78415,379.43392 464.68257,381.64789 457.85715,381.64789 C 453.1902,381.64789 447.04206,383.54536 442.85715,385.21932 C 432.8463,389.22366 419.95081,391.12448 409.28572,393.79075 C 396.34608,397.02566 381.01868,404.50504 367.85715,404.50504 C 356.68133,404.50504 345.00699,406.64789 333.57143,406.64789 C 324.73214,406.64789 314.49764,403.11179 305.71429,401.64789 C 295.19715,399.89504 284.51942,400.63489 274.28572,398.07647 C 273.10791,397.78202 271.90476,397.60028 270.71429,397.36218 C 266.0864,396.4366 262.92988,395.21932 257.85715,395.21932 C 255.08473,395.21932 251.11447,394.50504 247.85715,394.50504 C 244.04577,394.50504 241.04667,393.79075 237.14286,393.79075 C 233.88979,393.79075 230.93105,396.05799 228.57143,396.64789 C 224.362,397.70025 222.48143,397.39933 220.71429,400.93361 C 219.2312,403.89978 221.20663,411.45096 224.28572,410.21932 C 225.47619,409.74313 225.14088,412.64393 225.71429,413.79075"
       id="path3254" />
    <path
       style="opacity:1;fill:#b496bd;fill-opacity:1;fill-rule:evenodd;stroke:#000000;stroke-width:2;stroke-linecap:butt;stroke-linejoin:miter;marker:none;marker-start:none;marker-mid:none;marker-end:none;stroke-miterlimit:4;stroke-dasharray:none;stroke-dashoffset:0;stroke-opacity:1;visibility:visible;display:inline;overflow:visible;enable-background:accumulate"
       d="M 351.98336,328.49612 C 351.98336,334.56638 339.87087,327.48597 333.80061,327.48597 C 326.95793,327.48597 320.59397,331.04017 314.60771,332.53673 C 306.22215,334.63312 297.00461,337.731 288.34375,340.61795 C 281.25096,342.98221 275.32283,345.61318 269.15085,348.69917 C 263.77226,351.38847 258.83788,356.18136 253.99856,359.81085 C 249.00312,363.55743 243.65564,368.13347 239.85642,371.93268 C 235.12496,376.66415 229.60895,381.17001 225.71429,385.06467 C 221.4077,389.37126 218.18289,391.58592 215.61276,394.15604 C 214.81731,394.95149 226.71265,398.69878 228.74475,399.2068 C 237.4477,401.38254 248.27917,404.79823 257.02902,408.29817 C 267.03191,412.29933 277.17129,415.85912 287.33359,418.3997 C 296.6151,420.72008 305.35898,423.15858 314.60771,425.47077 C 324.38965,427.91625 336.72464,426.48092 346.9326,426.48092 C 357.37084,426.48092 367.80908,426.48092 378.24732,426.48092 C 392.59789,426.48092 407.75049,418.85259 421.68388,415.36924 C 436.06481,411.77401 449.80097,406.10928 464.11029,403.24741 C 475.09271,401.05093 482.91339,393.74841 493.40471,391.12558 C 501.4068,389.12506 507.40316,385.50005 505.52655,377.9936 C 504.0312,372.01221 499.03292,367.65185 495.42502,362.84131 C 491.75917,357.95351 484.28289,353.47456 479.26258,349.70933 C 473.41948,345.32701 466.179,341.65231 460.06968,338.59765 C 454.57152,335.84857 448.6431,332.96309 442.89709,331.52658 C 437.47212,330.17034 432.99812,327.78915 427.7448,326.47582 C 421.59701,324.93887 414.92599,325.73033 408.5519,324.45551 C 402.55201,323.25553 395.35727,323.44536 389.359,323.44536 C 383.55151,323.44536 379.05708,324.45551 373.19656,324.45551 C 367.42797,324.45551 364.82407,325.28595 360.06458,326.47582 C 357.19388,327.19349 355.46662,327.79947 351.98336,328.49612 z"
       id="path2426" />
    <path
       style="opacity:1;fill:#ccabab;fill-opacity:1;fill-rule:evenodd;stroke:#000000;stroke-width:2;stroke-linecap:butt;stroke-linejoin:miter;marker:none;marker-start:none;marker-mid:none;marker-end:none;stroke-miterlimit:4;stroke-dasharray:none;stroke-dashoffset:0;stroke-opacity:1;visibility:visible;display:inline;overflow:visible;enable-background:accumulate"
       d="M 290.36405,345.66872 C 293.6276,345.31635 300.82365,351.31407 306.52649,352.73978 C 311.31813,353.93769 317.69944,356.79571 321.67878,357.79055 C 327.26364,359.18676 329.80192,360.821 335.82092,360.821 C 341.54512,360.821 347.26932,360.821 352.99352,360.821 C 358.04428,360.821 363.09504,360.821 368.1458,360.821 C 373.41678,360.821 378.57672,360.99119 383.29809,359.81085 C 387.67632,358.71629 393.09808,355.41593 396.43008,353.74994 C 401.03465,351.44765 405.15592,349.22586 408.55191,346.67887 C 411.90862,344.16134 418.01271,342.95862 420.67374,341.62811 C 426.15891,338.88552 426.12783,335.1602 424.71435,329.50628 C 423.63043,325.17062 423.81024,318.98057 424.71435,315.36414 C 425.43357,312.48724 423.70419,305.61879 423.70419,301.222 C 423.70419,295.87385 421.68389,290.65249 421.68389,285.05956 C 421.68389,280.0088 421.68389,274.95804 421.68389,269.90728 C 421.68389,263.82945 419.87293,256.81188 418.65343,250.71438 C 417.13066,243.10051 417.14654,235.09872 415.62297,227.48087 C 414.52277,221.97983 414.61282,214.57778 414.61282,209.29812 C 414.61282,203.74734 412.59252,200.48015 412.59252,195.15599 C 412.59252,189.81982 411.1709,185.85888 407.54175,184.04431 C 406.74957,183.64822 396.7524,188.50942 394.40977,189.09507 C 389.03018,190.43997 384.2255,191.11538 378.24733,191.11538 C 371.89763,191.11538 365.8539,193.13568 359.05443,193.13568 C 352.20836,193.13568 345.99991,195.15599 338.85138,195.15599 C 333.06812,195.15599 326.70546,194.14584 320.66863,194.14584 C 314.21105,194.14584 307.73239,192.12553 301.47573,192.12553 C 296.72624,192.12553 289.48217,190.16936 285.31329,188.08492 C 280.64399,185.75027 276.11129,185.27934 271.17115,184.04431 C 267.37541,183.09538 269.15085,195.53825 269.15085,200.20675 C 269.15085,205.93095 269.15085,211.65515 269.15085,217.37934 C 269.15085,223.29993 268.1407,228.85338 268.1407,234.55194 C 268.1407,240.00341 269.15085,246.01301 269.15085,251.72453 C 269.15085,256.05672 271.02525,261.24245 272.18131,265.86667 C 273.26527,270.20254 274.11593,274.6153 275.21176,278.99865 C 276.543,284.32359 277.23207,288.26033 277.23207,294.15094 C 277.23207,298.66023 278.17383,304.98906 279.25237,309.30322 C 280.35361,313.70816 279.25237,319.88815 279.25237,324.45551 C 279.25237,328.97677 280.26253,333.60562 280.26253,338.59765 C 280.26253,344.6213 283.6927,345.66872 290.36405,345.66872 z"
       id="path2424" />
    <path
       style="opacity:1;fill:#ffffff;fill-opacity:1;fill-rule:evenodd;stroke:#000000;stroke-width:2;stroke-linecap:butt;stroke-linejoin:miter;marker:none;marker-start:none;marker-mid:none;marker-end:none;stroke-miterlimit:4;stroke-dasharray:none;stroke-dashoffset:0;stroke-opacity:1;visibility:visible;display:inline;overflow:visible;enable-background:accumulate"
       d="M 308.5468,232.53163 C 310.23038,231.8582 311.91397,231.18476 313.59756,230.51133 C 317.63029,228.89823 321.02523,228.49102 326.72954,228.49102 C 331.12619,228.49102 334.8838,230.58436 337.84122,233.54178 C 341.75962,237.46018 335.91382,241.07148 332.79046,242.63316 C 332.48929,242.78374 332.11702,242.63316 331.78031,242.63316 C 328.77513,242.63316 322.5742,245.6923 318.64832,246.67377 C 313.54799,247.94885 309.85007,244.4742 306.52649,243.64331 C 300.70795,242.18867 304.83236,234.76029 308.5468,232.53163 z"
       id="path2393" />
    <path
       style="opacity:1;fill:#ffffff;fill-opacity:1;fill-rule:evenodd;stroke:#000000;stroke-width:2;stroke-linecap:butt;stroke-linejoin:miter;marker:none;marker-start:none;marker-mid:none;marker-end:none;stroke-miterlimit:4;stroke-dasharray:none;stroke-dashoffset:0;stroke-opacity:1;visibility:visible;display:inline;overflow:visible;enable-background:accumulate"
       d="M 366.12549,221.41995 C 359.06436,219.65467 356.10001,224.29833 354.00366,228.49102 C 351.58172,233.33491 356.50213,235.42909 361.07473,236.57224 C 366.39102,237.90131 370.99968,236.86892 376.22702,235.56209 C 382.33157,234.03595 385.7398,234.13053 389.359,230.51133 C 394.19034,225.67999 384.35751,222.43011 381.27778,222.43011 C 377.13759,222.43011 371.30822,222.4565 366.12549,221.41995 z"
       id="path2395" />
    <path
       style="opacity:1;fill:#5e5e5e;fill-opacity:1;fill-rule:evenodd;stroke:#000000;stroke-width:2;stroke-linecap:butt;stroke-linejoin:miter;marker:none;marker-start:none;marker-mid:none;marker-end:none;stroke-miterlimit:4;stroke-dasharray:none;stroke-dashoffset:0;stroke-opacity:1;visibility:visible;display:inline;overflow:visible;enable-background:accumulate"
       d="M 285.42338,223.77869 C 282.32755,222.21411 295.1597,216.14065 297.20188,216.14943 C 300.91561,216.16539 297.59104,224.29195 307.11902,221.16139 C 310.34685,220.10084 314.45145,225.51889 320.6618,223.47839 C 323.47444,222.55426 325.73325,228.39653 330.1233,229.39191 C 336.18491,230.76631 337.77171,232.07549 339.12917,236.207 C 339.49451,237.31891 329.90039,233.80657 327.39921,232.54251 C 324.2001,230.92573 316.49329,231.59212 314.30236,231.5827 C 309.51877,231.56215 307.34194,234.30924 302.56269,230.17697 C 297.65714,225.93551 293.57694,229.20908 289.93117,226.05686 C 288.65761,224.95571 286.92597,224.53808 285.42338,223.77869 z"
       id="path2397" />
    <path
       style="opacity:1;fill:#5e5e5e;fill-opacity:1;fill-rule:evenodd;stroke:#000000;stroke-width:2;stroke-linecap:butt;stroke-linejoin:miter;marker:none;marker-start:none;marker-mid:none;marker-end:none;stroke-miterlimit:4;stroke-dasharray:none;stroke-dashoffset:0;stroke-opacity:1;visibility:visible;display:inline;overflow:visible;enable-background:accumulate"
       d="M 350.5437,223.24487 C 345.11721,223.62577 362.95606,228.13291 366.82827,224.31222 C 371.32277,219.87748 373.51093,222.72475 379.00086,219.28257 C 379.57142,218.92483 380.28144,218.86521 380.92173,218.65653 C 386.3296,216.89404 385.64226,218.57079 392.42553,218.09465 C 396.29125,217.8233 400.38795,217.91622 404.24234,218.4932 C 406.30163,218.80146 396.50843,210.0947 393.76312,209.15913 C 389.62186,207.74784 384.34384,210.3115 379.37803,210.66007 C 374.83606,210.97888 368.19513,215.36715 363.36371,216.94177 C 358.19293,218.62699 354.87344,219.63068 350.5437,223.24487 z"
       id="path2399" />
    <path
       style="opacity:1;fill:#d03a3a;fill-opacity:1;fill-rule:evenodd;stroke:#000000;stroke-width:2;stroke-linecap:butt;stroke-linejoin:miter;marker:none;marker-start:none;marker-mid:none;marker-end:none;stroke-miterlimit:4;stroke-dasharray:none;stroke-dashoffset:0;stroke-opacity:1;visibility:visible;display:inline;overflow:visible;enable-background:accumulate"
       d="M 336.60196,239.37185 C 338.85151,228.69765 325.31255,236.81662 324.32405,238.84902 C 322.5039,242.59133 333.13935,247.44658 336.60196,239.37185 z"
       id="path2401" />
    <path
       style="opacity:1;fill:#ffffff;fill-opacity:1;fill-rule:evenodd;stroke:#000000;stroke-width:2;stroke-linecap:butt;stroke-linejoin:miter;marker:none;marker-start:none;marker-mid:none;marker-end:none;stroke-miterlimit:4;stroke-dasharray:none;stroke-dashoffset:0;stroke-opacity:1;visibility:visible;display:inline;overflow:visible;enable-background:accumulate"
       d="M 416.63312,280.0088 C 416.63312,285.23171 415.76694,289.82237 413.60266,294.15094 C 411.13293,299.0904 408.38141,303.41279 404.51129,307.28292 C 400.54555,311.24866 396.8128,312.64739 391.3793,315.36414 C 387.64378,317.2319 384.68879,318.3946 379.25747,318.3946 C 374.98559,318.3946 369.23993,319.42575 365.11534,318.3946 C 360.43944,317.22562 355.88755,317.41855 351.98335,318.3946 C 348.1556,319.35154 344.9315,322.43521 339.86152,322.43521 C 335.02911,322.43521 329.51501,321.61635 324.70923,320.4149 C 319.17712,319.03187 316.35473,317.75288 311.57725,315.36414 C 307.72616,313.43859 303.78589,312.72016 300.46558,308.29307 C 297.91239,304.88882 293.56244,300.88357 292.38436,296.17124 C 291.35392,292.04949 289.3539,287.37017 289.3539,283.03926 C 289.3539,279.09074 288.57454,270.68664 291.3742,267.88697 C 293.05779,266.20338 294.74138,264.5198 296.42497,262.83621 C 294.74138,264.18308 293.05779,265.52995 291.3742,266.87682 C 289.22558,268.59571 287.59561,273.42385 286.32344,275.96819 C 284.25038,280.11432 282.51392,283.12505 281.27268,288.09002 C 280.15993,292.54102 281.29102,299.27506 282.28283,303.24231 C 283.48272,308.04187 285.41021,312.52752 287.33359,316.37429 C 289.35011,320.40733 293.30957,322.89782 296.42497,324.45551 C 299.02283,325.75445 301.918,328.71726 305.51634,330.51643 C 309.29564,332.40608 313.69967,332.56226 317.63817,333.54689 C 321.70545,334.56371 324.48076,335.56719 329.76,335.56719 C 333.43446,335.56719 340.00241,336.8651 342.89199,337.5875 C 347.01657,338.61864 352.76223,337.5875 357.03412,337.5875 C 362.51824,337.5875 364.86238,336.57734 370.1661,336.57734 C 375.5922,336.57734 380.28179,335.56719 385.31839,335.56719 C 388.88513,335.56719 394.35743,331.53967 398.45038,330.51643 C 403.0256,329.37262 406.26671,324.7204 409.56205,321.42506 C 411.64143,319.34567 413.83355,313.89221 415.62297,310.31338 C 417.5157,306.52791 419.66358,302.82615 419.66358,297.18139 C 419.66358,292.61017 421.68388,289.40723 421.68388,284.04941"
       id="path2405"
       sodipodi:nodetypes="cssssssssssssscssssssssssssssssss" />
    <path
       style="opacity:1;fill:#5e5e5e;fill-opacity:1;fill-rule:evenodd;stroke:#000000;stroke-width:2;stroke-linecap:butt;stroke-linejoin:miter;marker:none;marker-start:none;marker-mid:none;marker-end:none;stroke-miterlimit:4;stroke-dasharray:none;stroke-dashoffset:0;stroke-opacity:1;visibility:visible;display:inline;overflow:visible;enable-background:accumulate"
       d="M 314.60771,339.6078 C 314.60771,344.74388 315.88457,351.78631 317.63817,358.8007 C 319.13285,364.77941 325.09376,361.03769 326.72954,359.81085 C 329.50292,357.73082 332.45771,365.70242 335.82092,364.86161 C 339.85542,363.85299 340.85583,371.86929 341.88183,375.97329 C 343.31142,381.69166 348.32946,382.42092 350.97321,385.06467 C 355.08811,389.17957 351.72294,396.43676 360.06458,388.09512 C 363.30302,384.85668 364.90735,395.96836 368.1458,399.2068 C 371.19491,402.25591 373.17791,392.15438 376.22702,389.10528 C 377.2646,388.06769 382.96053,377.65857 385.31839,372.94284 C 387.45862,368.66237 390.61062,365.75104 394.40977,363.85146 C 398.83256,361.64006 399.46053,355.65945 399.46053,350.71948 C 399.46053,345.66872 399.46053,340.61795 399.46053,335.56719 C 399.46053,329.76965 389.87338,342.12388 388.34885,343.64841 C 386.35773,345.63953 383.14938,338.20411 377.23717,342.63826 C 372.36975,346.28883 366.60376,348.06113 361.07473,346.67887 C 357.74164,345.8456 352.30625,350.8002 347.94275,349.70933 C 343.01986,348.4786 337.85907,349.71379 333.80061,348.69917 C 328.17376,347.29246 326.08017,345.66872 320.66863,345.66872 C 312.11673,345.66872 318.1662,340.3195 319.65848,340.61795"
       id="path2407" />
    <path
       style="opacity:1;fill:#6a4d73;fill-opacity:1;fill-rule:evenodd;stroke:#000000;stroke-width:2;stroke-linecap:butt;stroke-linejoin:miter;marker:none;marker-start:none;marker-mid:none;marker-end:none;stroke-miterlimit:4;stroke-dasharray:none;stroke-dashoffset:0;stroke-opacity:1;visibility:visible;display:inline;overflow:visible;enable-background:accumulate"
       d="M 217.63307,395.16619 C 218.51335,393.99248 206.45991,403.30889 196.41986,413.34894 C 190.67594,419.09286 185.07791,424.69089 179.24727,430.52153 C 174.853,434.9158 172.67777,438.58872 171.16605,432.54184 C 167.82257,419.16792 166.5886,406.57223 158.03407,395.16619 C 147.3141,380.8729 141.68903,364.55728 132.78025,349.70933 C 127.52355,340.94815 122.71777,332.58879 116.61782,324.45551 C 112.27021,318.6587 109.40486,314.2121 105.50614,310.31338 C 104.64767,309.45491 106.85301,312.33368 107.52644,313.34383 C 106.79372,312.61111 94.426357,329.12702 93.384307,330.51643 C 89.966987,335.07286 84.208907,338.66067 80.252317,341.62811 C 76.804776,344.21376 73.118856,346.92846 72.171096,350.71948 C 70.550076,357.20357 81.292897,360.52485 85.303087,365.87177 C 91.062727,373.55129 96.833877,381.06169 100.45537,390.11543 C 103.49323,397.71006 105.99403,405.23335 109.54675,412.33878 C 113.18721,419.61972 115.55421,426.85237 118.63812,434.56214 C 121.64356,442.07573 123.11419,449.57519 126.71934,456.7855 C 129.48683,462.32048 129.49536,471.67575 130.75995,477.9987 C 132.00837,484.24082 133.36875,489.44407 134.80056,495.17129 C 136.04854,500.16321 135.93449,505.27282 141.87163,505.27282 C 147.04357,505.27282 155.6801,500.4723 160.05437,497.1916 C 168.18424,491.0942 174.07762,483.20798 180.25742,474.96824 C 184.23251,469.66813 190.1299,465.09576 194.39956,460.82611 C 197.76369,457.46198 203.64028,454.90572 206.52139,452.74489 C 210.51759,449.74773 213.41843,448.49524 216.62292,447.69412 C 223.14797,442.80033 228.79591,449.50977 230.76505,441.63321 C 232.04549,436.51144 233.11913,432.86678 231.7752,427.49107 C 230.52366,422.4849 230.92468,419.03821 229.7549,414.35909 C 228.56508,409.59982 226.80147,407.59615 225.71429,403.24741 C 224.67284,399.08161 222.03425,396.26649 217.63307,395.16619 z"
       id="path2430" />
    <path
       style="opacity:1;fill:none;fill-opacity:1;fill-rule:evenodd;stroke:#000000;stroke-width:2;stroke-linecap:butt;stroke-linejoin:miter;marker:none;marker-start:none;marker-mid:none;marker-end:none;stroke-miterlimit:4;stroke-dasharray:none;stroke-dashoffset:0;stroke-opacity:1;visibility:visible;display:inline;overflow:visible;enable-background:accumulate"
       d="M 297.85715,303.07647 C 295.04088,303.58868 291.77957,307.13228 290,309.50504 C 288.38536,311.6579 287.27048,312.94884 285.71429,314.50504"
       id="path3256" />
    <path
       style="opacity:1;fill:#5e5e5e;fill-opacity:1;fill-rule:evenodd;stroke:#000000;stroke-width:2;stroke-linecap:butt;stroke-linejoin:miter;marker:none;marker-start:none;marker-mid:none;marker-end:none;stroke-miterlimit:4;stroke-dasharray:none;stroke-dashoffset:0;stroke-opacity:1;visibility:visible;display:inline;overflow:visible;enable-background:accumulate"
       d="M 332.79046,272.93773 C 325.88486,274.66413 322.90022,281.47121 316.62802,283.03926 C 313.43911,283.83649 308.23047,286.1488 304.50619,287.07987 C 300.1442,288.17036 294.60593,286.87765 291.3742,286.06972 C 285.01686,284.48038 283.43119,287.35628 280.26253,281.01895 C 277.86966,276.23323 275.66151,273.72655 274.20161,267.88697 C 273.30908,264.31687 276.16747,263.36851 279.25237,261.82606 C 281.94611,260.47919 284.63985,267.21354 283.29298,269.90728 C 281.66416,273.16492 290.23725,264.34931 289.3539,260.8159 C 288.58772,257.7512 280.38203,257.56278 277.23207,256.77529 C 274.22038,256.02237 271.54932,260.05956 270.161,262.83621 C 269.1529,264.85242 265.17613,267.62342 264.10009,271.92758 C 263.06582,276.06466 265.33247,279.9078 264.10009,286.06972 C 263.81992,287.47055 267.13054,287.6716 267.13054,289.10017 C 267.13054,296.33414 269.15085,296.97439 269.15085,302.23216 C 269.15085,307.09512 276.43845,307.08451 277.23207,307.28292 C 281.15593,308.26388 286.59988,306.63962 287.33359,306.27277 C 290.34529,304.76692 294.16848,307.08943 297.43512,306.27277 C 299.64942,305.71919 299.22572,313.57354 306.52649,306.27277 C 313.21201,299.58725 309.0346,307.91858 315.61787,306.27277 C 318.69961,305.50233 318.76268,311.81272 320.66863,314.35399 C 321.16519,315.01607 324.34789,304.78081 330.77015,313.34383 C 333.57685,317.0861 338.70801,308.36476 342.89199,306.27277 C 346.68365,304.37694 349.36187,301.41421 349.96305,300.21185 C 351.32666,297.48465 356.00532,299.2017 359.05443,299.2017 C 360.5346,299.2017 367.37509,307.90772 370.1661,309.30322 C 371.06607,309.75321 379.84497,307.68233 382.28793,308.29307 C 384.4069,308.82281 391.43132,307.28292 393.39961,307.28292 C 396.77241,307.28292 402.56816,307.26363 406.5316,306.27277 C 411.90919,304.92837 415.907,303.60537 420.67373,301.222 C 425.44384,298.83695 427.1577,294.59126 431.78541,291.12048 C 434.2981,289.23596 435.04556,280.55958 435.82602,278.99865 C 437.83862,274.97345 442.19263,275.75554 443.90724,268.89712 C 445.18026,263.80502 440.35842,261.87918 441.88693,255.76514 C 442.75354,252.29873 432.87232,247.48895 431.78541,246.67377 C 427.5117,243.46848 422.90089,242.63316 417.64327,242.63316 C 412.19301,242.63316 408.8246,250.63374 408.5519,251.72453 C 407.40566,256.30948 418.10909,249.56814 422.69404,250.71438 C 428.22119,252.09617 421.36254,262.46874 420.67373,263.84636 C 418.79587,267.60208 412.6532,261.76537 409.56205,264.85651 C 406.39966,268.01891 403.35985,266.94746 399.46053,268.89712 C 395.46256,270.89611 390.23781,269.68757 385.31839,270.91743 C 379.89252,272.2739 379.0759,268.89712 373.19656,268.89712 C 367.98774,268.89712 363.74407,266.9671 360.06458,267.88697 C 355.00775,269.15118 350.70615,268.0205 346.9326,269.90728 C 341.38129,272.68293 328.05475,265.04489 335.82092,277.9885 C 336.02763,278.33302 346.18116,274.19836 346.9326,273.94789"
       id="path2391" />
    <path
       style="opacity:1;fill:#ccabab;fill-opacity:1;fill-rule:evenodd;stroke:#000000;stroke-width:2;stroke-linecap:butt;stroke-linejoin:miter;marker:none;marker-start:none;marker-mid:none;marker-end:none;stroke-miterlimit:4;stroke-dasharray:none;stroke-dashoffset:0;stroke-opacity:1;visibility:visible;display:inline;overflow:visible;enable-background:accumulate"
       d="M 352.99351,262.83621 C 349.4494,260.60098 342.42913,260.03718 336.83107,262.83621 C 332.37149,265.066 332.77411,266.84411 334.81076,270.91743 C 336.03532,273.36654 343.09568,275.2615 345.92244,275.96819 C 349.40758,276.83947 354.17415,280.09404 358.04427,282.02911 C 361.46499,283.73946 365.74016,285.37197 369.15595,287.07987 C 373.66347,289.33363 379.02956,294.73762 382.28793,297.18139 C 385.86276,299.86252 387.89076,301.77406 391.37931,305.26261 C 394.5945,308.47781 391.99797,297.63574 391.37931,295.16109 C 390.2207,290.52665 390.36915,286.69548 390.36915,282.02911 C 390.36915,278.19662 389.27859,273.62625 388.34885,269.90728 C 387.04652,264.69794 385.56413,261.06164 382.28793,257.78544 C 378.52213,254.01964 378.08132,256.11127 376.22702,248.69407 C 374.59092,242.14967 373.94389,243.32507 371.17626,242.63316 C 368.73599,242.02309 374.24298,247.18791 376.22702,247.68392"
       id="path2383" />
    <g
       id="g2417"
       transform="translate(230.76505,110.51994)"
       style="fill:#5e3b69;fill-opacity:1">
      <path
         id="path2409"
         d="M -19.192898,72.514214 C -21.65672,72.514214 -6.6684597,79.948355 5.0507627,84.636044 C 13.358163,87.959004 19.94466,89.686807 29.294424,89.686807 C 35.809107,89.686807 43.405121,91.194176 49.497475,92.717265 C 56.082977,94.36364 62.394716,95.18396 68.690373,96.757875 C 75.271616,98.403185 82.715199,98.77818 89.903577,98.77818 C 98.115044,98.77818 106.01689,100.81077 114.14724,98.77818 C 124.2004,96.264888 135.37905,98.26845 145.46197,95.747722 C 152.51922,93.983408 161.31518,92.717265 168.69548,92.717265 C 175.3048,92.717265 183.70279,88.907679 189.90868,87.666502 C 197.63775,86.120687 205.61443,82.477373 213.14219,80.595434 C 218.83873,79.171299 225.54748,75.332073 229.30463,72.514214 C 233.73342,69.192621 238.64337,65.113322 241.42646,61.402536 C 245.0587,56.559542 246.47722,53.306596 246.47722,51.30101 C 246.47722,50.348629 245.13035,52.64788 244.45692,53.321315 C 239.03677,49.256207 232.98858,49.280705 226.27417,49.280705 C 220.82004,49.280705 216.17519,48.270553 211.12188,48.270553 C 205.75647,48.270553 199.20159,47.563324 193.94929,46.250247 C 188.07295,44.781162 182.36824,42.597371 176.7767,41.199485 C 170.11,39.532811 162.01644,37.158875 154.55334,37.158875 C 144.51868,37.158875 132.11339,37.115556 122.22846,35.138569 C 113.54463,33.401803 104.00643,34.128417 94.954339,34.128417 C 82.978912,34.128417 71.251657,36.266015 59.599,39.17918 C 50.537013,41.444677 40.655615,42.084881 32.324881,46.250247 C 22.641942,51.091717 13.244257,53.276406 3.0304576,57.361925 C -2.9824709,59.767097 -19.192898,64.811731 -19.192898,72.514214 z"
         style="opacity:1;fill:#5e3b69;fill-opacity:1;fill-rule:evenodd;stroke:#000000;stroke-width:2;stroke-linecap:butt;stroke-linejoin:miter;marker:none;marker-start:none;marker-mid:none;marker-end:none;stroke-miterlimit:4;stroke-dasharray:none;stroke-dashoffset:0;stroke-opacity:1;visibility:visible;display:inline;overflow:visible;enable-background:accumulate" />
      <path
         sodipodi:nodetypes="csssssssssssssssssssssssssssss"
         id="path2411"
         d="M 47.47717,68.473603 C 53.211262,68.473603 46.467017,57.035103 46.467017,51.30101 C 46.467017,45.058253 43.436559,40.155421 43.436559,34.128417 C 43.436559,28.297199 42.426407,22.257152 42.426407,15.945671 C 42.426407,10.033236 41.416254,3.2469618 41.416254,-3.2472273 C 41.416254,-9.4586877 38.385797,-14.20425 38.385797,-20.419821 C 38.385797,-24.793599 35.378112,-31.440405 34.345187,-35.572109 C 33.103238,-40.539904 32.596147,-43.578421 31.314729,-48.704092 C 30.020449,-53.88121 29.495018,-56.985906 33.335034,-60.825922 C 36.621268,-64.112157 44.146726,-66.766843 49.497475,-68.907143 C 59.66614,-72.974609 69.291785,-73.876157 79.802051,-75.978211 C 89.314765,-77.880753 99.201512,-79.008668 109.09647,-79.008668 C 116.20002,-79.008668 123.81399,-79.622437 130.30968,-77.998516 C 135.33079,-76.743239 142.25065,-77.998516 147.48227,-77.998516 C 153.58179,-77.998516 158.2964,-77.31529 163.64471,-75.978211 C 167.91525,-74.910576 173.64204,-72.494774 176.7767,-70.927448 C 179.38081,-69.625391 177.3172,-54.906711 176.7767,-52.744702 C 174.87447,-45.135818 173.74624,-35.393956 173.74624,-27.490888 C 173.74624,-20.71424 170.01102,-13.865579 168.69548,-7.2878375 C 167.61767,-1.8988035 167.05785,4.3134349 165.66502,9.8847558 C 164.12326,16.051787 163.78728,23.314058 162.63456,29.077654 C 161.49179,34.791491 161.96945,40.829473 160.61425,46.250247 C 159.56229,50.458124 158.4047,56.098638 157.5838,59.382231 C 156.40029,64.116261 156.17813,64.78441 149.50258,66.453298 C 144.64015,67.668906 141.79046,72.169401 136.37059,73.524366 C 130.82012,74.911984 126.14592,76.554824 120.20815,76.554824 C 114.14724,76.554824 108.08632,76.554824 102.02541,76.554824 C 96.06445,76.554824 90.783152,77.564976 84.852814,77.564976 C 79.250321,77.564976 76.634603,78.035805 70.710678,76.554824 C 66.321192,75.457452 61.373227,73.462847 57.578695,72.514214"
         style="opacity:1;fill:#5e3b69;fill-opacity:1;fill-rule:evenodd;stroke:#000000;stroke-width:2;stroke-linecap:butt;stroke-linejoin:miter;marker:none;marker-start:none;marker-mid:none;marker-end:none;stroke-miterlimit:4;stroke-dasharray:none;stroke-dashoffset:0;stroke-opacity:1;visibility:visible;display:inline;overflow:visible;enable-background:accumulate" />
      <path
         id="path2413"
         d="M 42.426407,-53.754855 C 43.452887,-49.481124 46.691683,-46.122544 52.527932,-44.663482 C 57.117248,-43.516153 63.084213,-42.529488 66.670068,-41.633024 C 71.392595,-40.452392 76.901198,-40.622871 81.822356,-40.622871 C 86.873119,-40.622871 91.923882,-40.622871 96.974644,-40.622871 C 101.68869,-40.622871 106.40273,-40.622871 111.11678,-40.622871 C 116.82135,-40.622871 121.25429,-41.389483 126.26907,-42.643177 C 132.06555,-44.092296 137.74106,-45.543666 143.44166,-46.683787 C 147.93035,-47.581524 153.00811,-51.972085 156.57364,-53.754855 C 159.01598,-54.976021 162.5286,-58.24756 165.66502,-59.81577 C 168.11851,-61.042517 169.58891,-60.825922 171.72593,-60.825922"
         style="opacity:1;fill:#5e3b69;fill-opacity:1;fill-rule:evenodd;stroke:#000000;stroke-width:2;stroke-linecap:butt;stroke-linejoin:miter;marker:none;marker-start:none;marker-mid:none;marker-end:none;stroke-miterlimit:4;stroke-dasharray:none;stroke-dashoffset:0;stroke-opacity:1;visibility:visible;display:inline;overflow:visible;enable-background:accumulate" />
    </g>
    <path
       style="opacity:1;fill:#d03a3a;fill-opacity:1;fill-rule:evenodd;stroke:#000000;stroke-width:2;stroke-linecap:butt;stroke-linejoin:miter;marker:none;marker-start:none;marker-mid:none;marker-end:none;stroke-miterlimit:4;stroke-dasharray:none;stroke-dashoffset:0;stroke-opacity:1;visibility:visible;display:inline;overflow:visible;enable-background:accumulate"
       d="M 354.64286,230.57647 C 353.92375,232.53807 354.43337,233.86458 356.42858,234.86218 C 358.16686,235.73132 358.77593,235.93361 361.07143,235.93361 C 362.95522,235.93361 363.75538,236.64789 365.71429,236.64789 C 367.51681,236.64789 366.68353,234.09627 366.42858,233.07647 C 365.97047,231.24405 365.24601,230.82247 364.28572,229.86218 C 363.54382,229.12028 361.0532,229.14789 359.64286,229.14789 C 358.29622,229.14789 353.32896,230.57647 356.42858,230.57647"
       id="path3212" />
    <path
       style="opacity:1;fill:none;fill-opacity:1;fill-rule:evenodd;stroke:#000000;stroke-width:2;stroke-linecap:butt;stroke-linejoin:miter;marker:none;marker-start:none;marker-mid:none;marker-end:none;stroke-miterlimit:4;stroke-dasharray:none;stroke-dashoffset:0;stroke-opacity:1;visibility:visible;display:inline;overflow:visible;enable-background:accumulate"
       d="M 208.57143,403.79075 C 209.28572,404.98123 210,406.1717 210.71429,407.36218 C 212.34022,410.07207 213.09274,412.11909 214.28572,414.50504 C 214.3922,414.718 214.28572,414.98123 214.28572,415.21932 C 214.28572,418.58205 216.27708,421.04191 217.14286,424.50504 C 217.94067,427.69627 217.68624,430.96425 218.57143,434.50504 C 219.36182,437.6666 219.28572,441.17482 219.28572,444.50504 C 219.28572,445.69551 219.28572,446.88599 219.28572,448.07647"
       id="path3216" />
    <path
       style="opacity:1;fill:none;fill-opacity:1;fill-rule:evenodd;stroke:#000000;stroke-width:2;stroke-linecap:butt;stroke-linejoin:miter;marker:none;marker-start:none;marker-mid:none;marker-end:none;stroke-miterlimit:4;stroke-dasharray:none;stroke-dashoffset:0;stroke-opacity:1;visibility:visible;display:inline;overflow:visible;enable-background:accumulate"
       d="M 193.57143,419.50504 C 193.57143,425.39021 201.32371,435.51415 202.85715,441.64789 C 203.924,445.91533 204.28572,449.25217 204.28572,453.79075 C 204.28572,454.98123 204.28572,456.1717 204.28572,457.36218"
       id="path3218" />
    <path
       style="opacity:1;fill:none;fill-opacity:1;fill-rule:evenodd;stroke:#000000;stroke-width:2;stroke-linecap:butt;stroke-linejoin:miter;marker:none;marker-start:none;marker-mid:none;marker-end:none;stroke-miterlimit:4;stroke-dasharray:none;stroke-dashoffset:0;stroke-opacity:1;visibility:visible;display:inline;overflow:visible;enable-background:accumulate"
       d="M 180,433.79075 C 180,440.99609 184.28572,446.98418 184.28572,454.50504 C 184.28572,459.50504 184.28572,464.50504 184.28572,469.50504 C 184.28572,470.93361 184.28572,472.36218 184.28572,473.79075"
       id="path3220" />
    <path
       style="opacity:1;fill:none;fill-opacity:1;fill-rule:evenodd;stroke:#000000;stroke-width:2;stroke-linecap:butt;stroke-linejoin:miter;marker:none;marker-start:none;marker-mid:none;marker-end:none;stroke-miterlimit:4;stroke-dasharray:none;stroke-dashoffset:0;stroke-opacity:1;visibility:visible;display:inline;overflow:visible;enable-background:accumulate"
       d="M 170.71429,434.50504 C 170.71429,437.28529 170.14631,443.05921 169.28572,447.36218 C 168.09874,453.29708 166.88846,458.63419 165.71429,464.50504 C 164.66082,469.77236 162.70219,474.41056 161.42857,479.50504 C 160.22022,484.33845 157.32926,488.60435 153.57143,492.36218 C 150.11928,495.81434 149.31505,499.47571 145.71429,503.07647 C 144.60212,504.18864 144.60132,504.18943 143.57143,505.21932"
       id="path3222" />
    <path
       style="opacity:1;fill:none;fill-opacity:1;fill-rule:evenodd;stroke:#000000;stroke-width:2;stroke-linecap:butt;stroke-linejoin:miter;marker:none;marker-start:none;marker-mid:none;marker-end:none;stroke-miterlimit:4;stroke-dasharray:none;stroke-dashoffset:0;stroke-opacity:1;visibility:visible;display:inline;overflow:visible;enable-background:accumulate"
       d="M 166.42857,418.07647 C 161.15156,423.35348 158.94467,430.56037 153.57143,435.93361 C 150.08444,439.42061 147.50558,443.96653 143.57143,445.93361 C 139.98722,447.72572 138.56561,450.22514 135.71429,453.07647 C 133.98896,454.80179 130.38919,455.73901 128.57143,456.64789"
       id="path3224" />
    <path
       style="opacity:1;fill:none;fill-opacity:1;fill-rule:evenodd;stroke:#000000;stroke-width:2;stroke-linecap:butt;stroke-linejoin:miter;marker:none;marker-start:none;marker-mid:none;marker-end:none;stroke-miterlimit:4;stroke-dasharray:none;stroke-dashoffset:0;stroke-opacity:1;visibility:visible;display:inline;overflow:visible;enable-background:accumulate"
       d="M 160,400.93361 C 158.3925,402.54111 150.81764,405.83026 147.14286,409.50504 C 142.44611,414.20179 136.77552,417.01524 132.14286,421.64789 C 129.75205,424.0387 125.22821,425.10522 122.14286,426.64789 C 120.31092,427.56387 118.9748,429.30335 117.14286,430.21932"
       id="path3226" />
    <path
       style="opacity:1;fill:none;fill-opacity:1;fill-rule:evenodd;stroke:#000000;stroke-width:2;stroke-linecap:butt;stroke-linejoin:miter;marker:none;marker-start:none;marker-mid:none;marker-end:none;stroke-miterlimit:4;stroke-dasharray:none;stroke-dashoffset:0;stroke-opacity:1;visibility:visible;display:inline;overflow:visible;enable-background:accumulate"
       d="M 147.85715,380.21932 C 142.60296,382.84642 137.54958,384.83243 132.14286,388.07647 C 127.56863,390.821 124.76406,393.55158 120,395.93361 C 115.9557,397.95576 114.09494,400.54098 110.71429,403.07647 C 109.41063,404.05421 108.68393,404.59924 107.85715,405.21932"
       id="path3228" />
    <path
       style="opacity:1;fill:none;fill-opacity:1;fill-rule:evenodd;stroke:#000000;stroke-width:2;stroke-linecap:butt;stroke-linejoin:miter;marker:none;marker-start:none;marker-mid:none;marker-end:none;stroke-miterlimit:4;stroke-dasharray:none;stroke-dashoffset:0;stroke-opacity:1;visibility:visible;display:inline;overflow:visible;enable-background:accumulate"
       d="M 136.42857,362.36218 C 135.90343,362.75604 127.85453,364.50569 125,365.21932 C 118.59564,366.82041 111.77336,372.73168 107.14286,377.36218 C 103.67981,380.82523 100.26554,385.40254 98.571427,388.79075 C 98.464947,389.00371 98.095237,388.79075 97.857147,388.79075"
       id="path3230" />
    <path
       style="opacity:1;fill:none;fill-opacity:1;fill-rule:evenodd;stroke:#000000;stroke-width:2;stroke-linecap:butt;stroke-linejoin:miter;marker:none;marker-start:none;marker-mid:none;marker-end:none;stroke-miterlimit:4;stroke-dasharray:none;stroke-dashoffset:0;stroke-opacity:1;visibility:visible;display:inline;overflow:visible;enable-background:accumulate"
       d="M 125,338.07647 C 123.14042,341.79563 116.18367,338.43872 112.85715,340.93361 C 108.86038,343.93118 103.74359,347.19002 100.71429,350.21932 C 97.321907,353.6117 93.444447,356.06059 89.999997,359.50504 C 87.655347,361.84969 88.131397,362.69374 87.857147,363.79075"
       id="path3232" />
    <path
       style="opacity:1;fill:none;fill-opacity:1;fill-rule:evenodd;stroke:#000000;stroke-width:2;stroke-linecap:butt;stroke-linejoin:miter;marker:none;marker-start:none;marker-mid:none;marker-end:none;stroke-miterlimit:4;stroke-dasharray:none;stroke-dashoffset:0;stroke-opacity:1;visibility:visible;display:inline;overflow:visible;enable-background:accumulate"
       d="M 527.90791,393.49489 C 523.42886,397.97393 522.59619,408.62488 521.47934,414.20917 C 520.51072,419.05224 518.75448,422.25147 517.90791,425.63774 C 517.35086,427.86595 514.76609,431.25541 513.62219,432.7806 C 512.18533,434.69642 512.23738,434.74841 511.47934,437.7806"
       id="path3234" />
    <path
       style="opacity:1;fill:none;fill-opacity:1;fill-rule:evenodd;stroke:#000000;stroke-width:2;stroke-linecap:butt;stroke-linejoin:miter;marker:none;marker-start:none;marker-mid:none;marker-end:none;stroke-miterlimit:4;stroke-dasharray:none;stroke-dashoffset:0;stroke-opacity:1;visibility:visible;display:inline;overflow:visible;enable-background:accumulate"
       d="M 541.42858,408.79075 C 538.67524,412.46186 534.59053,417.5715 532.85715,424.50504 C 531.57215,429.64503 525.46651,435.15609 522.85715,439.50504 C 521.11376,442.41068 520.20648,445.52066 518.57143,448.79075"
       id="path3236" />
    <path
       style="opacity:1;fill:none;fill-opacity:1;fill-rule:evenodd;stroke:#000000;stroke-width:2;stroke-linecap:butt;stroke-linejoin:miter;marker:none;marker-start:none;marker-mid:none;marker-end:none;stroke-miterlimit:4;stroke-dasharray:none;stroke-dashoffset:0;stroke-opacity:1;visibility:visible;display:inline;overflow:visible;enable-background:accumulate"
       d="M 555.71429,422.36218 C 555,423.55266 554.28572,424.74313 553.57143,425.93361 C 550.13624,431.65894 549.28869,438.0725 545,443.79075 C 542.18091,447.54955 538.32006,451.43636 536.42858,455.21932 C 535.37065,457.33518 534.6362,458.08979 533.57143,460.21932"
       id="path3238" />
    <path
       style="opacity:1;fill:none;fill-opacity:1;fill-rule:evenodd;stroke:#000000;stroke-width:2;stroke-linecap:butt;stroke-linejoin:miter;marker:none;marker-start:none;marker-mid:none;marker-end:none;stroke-miterlimit:4;stroke-dasharray:none;stroke-dashoffset:0;stroke-opacity:1;visibility:visible;display:inline;overflow:visible;enable-background:accumulate"
       d="M 562.85715,427.36218 C 561.68983,429.69682 563.57143,440.92895 563.57143,445.93361 C 563.57143,451.60835 564.13653,455.81608 562.85715,460.93361 C 561.95505,464.542 562.14286,468.4664 562.14286,472.36218 C 562.14286,474.24759 561.42858,475.92391 561.42858,478.07647"
       id="path3240" />
    <path
       style="opacity:1;fill:none;fill-opacity:1;fill-rule:evenodd;stroke:#000000;stroke-width:2;stroke-linecap:butt;stroke-linejoin:miter;marker:none;marker-start:none;marker-mid:none;marker-end:none;stroke-miterlimit:4;stroke-dasharray:none;stroke-dashoffset:0;stroke-opacity:1;visibility:visible;display:inline;overflow:visible;enable-background:accumulate"
       d="M 570,418.79075 C 570,423.84151 578.45552,424.9875 580.71429,429.50504 C 581.19048,430.45742 581.66667,431.4098 582.14286,432.36218 C 584.22929,436.53504 585.34561,439.45887 586.42858,443.79075 C 586.68586,444.81989 587.45575,445.75658 587.85715,447.36218"
       id="path3242" />
    <path
       style="opacity:1;fill:none;fill-opacity:1;fill-rule:evenodd;stroke:#000000;stroke-width:2;stroke-linecap:butt;stroke-linejoin:miter;marker:none;marker-start:none;marker-mid:none;marker-end:none;stroke-miterlimit:4;stroke-dasharray:none;stroke-dashoffset:0;stroke-opacity:1;visibility:visible;display:inline;overflow:visible;enable-background:accumulate"
       d="M 579.28572,400.93361 C 580.31872,405.06562 587.7026,403.6362 590.71429,406.64789 C 595.1139,411.04751 598.54807,419.4116 600,425.21932 C 600.44733,427.00861 602.30507,429.82945 602.85715,430.93361"
       id="path3244" />
    <path
       style="opacity:1;fill:none;fill-opacity:1;fill-rule:evenodd;stroke:#000000;stroke-width:2;stroke-linecap:butt;stroke-linejoin:miter;marker:none;marker-start:none;marker-mid:none;marker-end:none;stroke-miterlimit:4;stroke-dasharray:none;stroke-dashoffset:0;stroke-opacity:1;visibility:visible;display:inline;overflow:visible;enable-background:accumulate"
       d="M 587.85715,383.07647 C 589.22977,388.56695 599.04387,386.10936 603.57143,389.50504 C 610.40246,394.6283 613.78475,406.07257 615.71429,413.79075 C 616.28193,416.06133 617.25694,416.87605 617.85715,418.07647"
       id="path3246" />
    <path
       style="opacity:1;fill:none;fill-opacity:1;fill-rule:evenodd;stroke:#000000;stroke-width:2;stroke-linecap:butt;stroke-linejoin:miter;marker:none;marker-start:none;marker-mid:none;marker-end:none;stroke-miterlimit:4;stroke-dasharray:none;stroke-dashoffset:0;stroke-opacity:1;visibility:visible;display:inline;overflow:visible;enable-background:accumulate"
       d="M 600,361.64789 C 601.42038,367.32941 611.14123,365.84659 615.71429,369.50504 C 623.05194,375.37516 625.69704,383.04772 630,390.21932 C 630.73902,391.45102 630.31501,392.19363 630.71429,393.79075"
       id="path3248" />
    <path
       style="opacity:1;fill:none;fill-opacity:1;fill-rule:evenodd;stroke:#000000;stroke-width:2;stroke-linecap:butt;stroke-linejoin:miter;marker:none;marker-start:none;marker-mid:none;marker-end:none;stroke-miterlimit:4;stroke-dasharray:none;stroke-dashoffset:0;stroke-opacity:1;visibility:visible;display:inline;overflow:visible;enable-background:accumulate"
       d="M 608.57143,340.93361 C 610.56557,344.25717 616.53329,341.34311 620,343.07647 C 632.58487,349.3689 637.98092,355.1716 642.85715,367.36218 C 643.95193,370.09914 645.46546,373.29309 646.42858,375.21932"
       id="path3250" />
    <path
       style="opacity:1;fill:none;fill-opacity:1;fill-rule:evenodd;stroke:#000000;stroke-width:2;stroke-linecap:butt;stroke-linejoin:miter;marker:none;marker-start:none;marker-mid:none;marker-end:none;stroke-miterlimit:4;stroke-dasharray:none;stroke-dashoffset:0;stroke-opacity:1;visibility:visible;display:inline;overflow:visible;enable-background:accumulate"
       d="M 623.57143,318.07647 C 624.81256,321.17927 630.46863,317.54963 633.57143,318.79075 C 642.44458,322.34001 648.06469,327.16272 653.57143,334.50504 C 656.13903,337.9285 657.81476,343.70597 659.28572,346.64789 C 659.76829,347.61304 659.57667,347.52074 660,348.79075"
       id="path3252" />
    <path
       style="opacity:1;fill:none;fill-opacity:1;fill-rule:evenodd;stroke:#000000;stroke-width:2;stroke-linecap:butt;stroke-linejoin:miter;marker:none;marker-start:none;marker-mid:none;marker-end:none;stroke-miterlimit:4;stroke-dasharray:none;stroke-dashoffset:0;stroke-opacity:1;visibility:visible;display:inline;overflow:visible;enable-background:accumulate"
       d="M 305,312.36218 C 302.19823,316.09788 299.4982,320.79795 298.57143,324.50504"
       id="path3258" />
    <path
       style="opacity:1;fill:none;fill-opacity:1;fill-rule:evenodd;stroke:#000000;stroke-width:2;stroke-linecap:butt;stroke-linejoin:miter;marker:none;marker-start:none;marker-mid:none;marker-end:none;stroke-miterlimit:4;stroke-dasharray:none;stroke-dashoffset:0;stroke-opacity:1;visibility:visible;display:inline;overflow:visible;enable-background:accumulate"
       d="M 319.28572,318.07647 C 316.79261,321.4006 317.14286,326.23215 317.14286,330.21932"
       id="path3260" />
    <path
       style="opacity:1;fill:none;fill-opacity:1;fill-rule:evenodd;stroke:#000000;stroke-width:2;stroke-linecap:butt;stroke-linejoin:miter;marker:none;marker-start:none;marker-mid:none;marker-end:none;stroke-miterlimit:4;stroke-dasharray:none;stroke-dashoffset:0;stroke-opacity:1;visibility:visible;display:inline;overflow:visible;enable-background:accumulate"
       d="M 337.14286,320.93361 C 336.10541,322.31688 337.48409,328.75892 338.57143,330.93361"
       id="path3262" />
    <path
       style="opacity:1;fill:none;fill-opacity:1;fill-rule:evenodd;stroke:#000000;stroke-width:2;stroke-linecap:butt;stroke-linejoin:miter;marker:none;marker-start:none;marker-mid:none;marker-end:none;stroke-miterlimit:4;stroke-dasharray:none;stroke-dashoffset:0;stroke-opacity:1;visibility:visible;display:inline;overflow:visible;enable-background:accumulate"
       d="M 364.28572,320.93361 C 362.81285,322.89744 365.32626,330.54558 367.14286,332.36218"
       id="path3264" />
    <path
       style="opacity:1;fill:none;fill-opacity:1;fill-rule:evenodd;stroke:#000000;stroke-width:2;stroke-linecap:butt;stroke-linejoin:miter;marker:none;marker-start:none;marker-mid:none;marker-end:none;stroke-miterlimit:4;stroke-dasharray:none;stroke-dashoffset:0;stroke-opacity:1;visibility:visible;display:inline;overflow:visible;enable-background:accumulate"
       d="M 388.57143,318.79075 C 386.74197,321.23004 392.45625,323.49432 394.28572,325.93361"
       id="path3266" />
    <path
       style="opacity:1;fill:none;fill-opacity:1;fill-rule:evenodd;stroke:#000000;stroke-width:2;stroke-linecap:butt;stroke-linejoin:miter;marker:none;marker-start:none;marker-mid:none;marker-end:none;stroke-miterlimit:4;stroke-dasharray:none;stroke-dashoffset:0;stroke-opacity:1;visibility:visible;display:inline;overflow:visible;enable-background:accumulate"
       d="M 404.28572,310.93361 C 404.02185,311.28544 411.99475,314.82515 413.57143,315.21932"
       id="path3268" />
    <path
       style="opacity:1;fill:#f9a79b;fill-opacity:1;fill-rule:evenodd;stroke:#000000;stroke-width:2;stroke-linecap:butt;stroke-linejoin:miter;marker:none;marker-start:none;marker-mid:none;marker-end:none;stroke-miterlimit:4;stroke-dasharray:none;stroke-dashoffset:0;stroke-opacity:1;visibility:visible;display:inline;overflow:visible;enable-background:accumulate"
       d="M 238.16016,476.96492 C 236.88373,475.21637 238.03728,470.77195 238.6215,466.87394 C 239.21208,462.93345 239.33739,459.42053 238.94561,455.36099 C 238.55824,451.34715 239.5973,449.84393 240.18655,445.91237 C 240.69662,442.50904 243.28676,443.46036 247.80151,443.02465 C 252.25558,442.59479 254.77432,443.65488 256.53914,444.3342 C 257.0188,444.51883 259.35569,453.81966 259.70133,454.79308 C 261.77881,460.6439 264.41987,452.31619 265.61986,449.19866 C 266.86335,445.96811 266.3495,443.54761 268.42,441.03478 C 268.57195,440.85036 279.54238,439.96137 280.5067,439.86831 C 286.54248,439.2858 286.70574,437.18054 287.24862,442.80568 C 287.87763,449.3234 285.40131,455.72397 287.67929,462.13943 C 289.16708,466.32951 290.12373,472.59688 290.54219,476.93283 C 290.63001,477.84279 281.36228,478.90553 280.01468,479.38403 C 275.64927,480.93409 278.6848,473.03979 278.34308,469.49889 C 277.95611,465.48925 276.95274,458.90586 277.1766,457.4122 C 277.57898,454.72748 271.66045,460.3219 271.25807,463.00662 C 270.68783,466.81139 269.99615,470.25764 269.44339,473.94581 C 268.8731,477.7509 266.9906,482.09655 266.13812,484.31126 C 265.05113,487.13521 259.98923,483.17143 258.75383,482.1535 C 255.92177,479.81996 256.10775,467.453 254.83686,463.8738 C 252.76236,458.03139 253.51639,464.50267 253.047,467.63456 C 252.18784,473.36708 249.8005,478.77666 248.93731,484.53609 C 248.25663,489.07774 245.06493,485.88263 241.1165,485.29086 C 234.18025,484.25129 237.51177,483.35104 238.16016,476.96492 z"
       id="path3270" />
    <path
       style="opacity:1;fill:#f9a79b;fill-opacity:1;fill-rule:evenodd;stroke:#000000;stroke-width:2;stroke-linecap:butt;stroke-linejoin:miter;marker:none;marker-start:none;marker-mid:none;marker-end:none;stroke-miterlimit:4;stroke-dasharray:none;stroke-dashoffset:0;stroke-opacity:1;visibility:visible;display:inline;overflow:visible;enable-background:accumulate"
       d="M 294.17156,455.05443 C 291.65289,454.67694 298.96774,448.13312 302.08581,447.8322 C 307.86973,447.274 308.85992,447.202 312.45126,451.13746 C 315.57683,454.56252 315.78422,457.80485 317.10403,462.1701 C 318.39252,466.4318 316.68677,468.58958 315.79447,470.90774 C 314.60182,474.0062 313.48936,476.9375 313.06295,479.78261 C 312.79816,481.54935 307.00563,480.45909 307.67438,475.99703 C 308.33969,471.55792 308.04566,474.63335 304.18808,477.05108 C 300.85289,479.14143 297.30953,478.04547 294.80808,476.52113 C 291.89495,474.74592 295.08833,468.67909 295.40665,467.85211 C 296.94476,463.85615 301.13311,462.00107 303.3209,460.62988 C 306.07894,458.90127 309.76121,464.27105 307.31233,457.37425 C 306.31138,454.55529 298.96647,456.4771 297.93233,456.8443 C 294.84568,457.94029 294.18922,455.12045 295.29424,459.2517"
       id="path3272" />
    <path
       style="opacity:1;fill:#f9a79b;fill-opacity:1;fill-rule:evenodd;stroke:#000000;stroke-width:2;stroke-linecap:butt;stroke-linejoin:miter;marker:none;marker-start:none;marker-mid:none;marker-end:none;stroke-miterlimit:4;stroke-dasharray:none;stroke-dashoffset:0;stroke-opacity:1;visibility:visible;display:inline;overflow:visible;enable-background:accumulate"
       d="M 304.07567,468.45068 C 296.68779,471.07394 300.47186,471.11505 304.07567,468.45068 z"
       id="path3274" />
    <path
       style="opacity:1;fill:#f9a79b;fill-opacity:1;fill-rule:evenodd;stroke:#000000;stroke-width:2;stroke-linecap:butt;stroke-linejoin:miter;marker:none;marker-start:none;marker-mid:none;marker-end:none;stroke-miterlimit:4;stroke-dasharray:none;stroke-dashoffset:0;stroke-opacity:1;visibility:visible;display:inline;overflow:visible;enable-background:accumulate"
       d="M 332.75149,438.41425 C 330.28867,439.28874 330.75004,454.85397 331.18644,459.37581 C 331.59874,463.64795 329.62772,469.65001 328.22425,473.29618 C 327.07054,476.29348 326.54223,478.67496 326.1351,481.39144 C 325.93571,482.72178 331.7976,481.56257 334.73551,481.27904 C 338.13159,480.95129 336.99955,474.996 336.68743,471.76181 C 336.29455,467.69087 336.57391,463.15 336.16331,458.8955 C 335.8001,455.13193 337.67202,452.22138 337.33564,448.7359 C 336.97022,444.94952 337.40456,442.43206 337.86559,439.3559 C 338.39078,435.85178 337.15226,436.14149 332.75149,438.41425 z"
       id="path3276" />
    <path
       style="opacity:1;fill:#f9a79b;fill-opacity:1;fill-rule:evenodd;stroke:#000000;stroke-width:2;stroke-linecap:butt;stroke-linejoin:miter;marker:none;marker-start:none;marker-mid:none;marker-end:none;stroke-miterlimit:4;stroke-dasharray:none;stroke-dashoffset:0;stroke-opacity:1;visibility:visible;display:inline;overflow:visible;enable-background:accumulate"
       d="M 349.67198,457.5918 C 349.7726,456.92045 349.11525,467.06346 346.98426,474.35609 C 346.00995,477.69036 350.80339,479.46628 351.86769,480.34324 C 355.14623,483.04465 357.78083,477.43056 358.56582,475.39118 C 359.94582,471.80598 359.4785,469.16 358.3848,466.0798 C 357.33765,463.13071 356.92598,459.38263 356.07082,456.97425 C 355.35381,454.95492 351.80493,457.38595 349.67198,457.5918 z"
       id="path3278" />
    <path
       style="opacity:1;fill:#f9a79b;fill-opacity:1;fill-rule:evenodd;stroke:#000000;stroke-width:2;stroke-linecap:butt;stroke-linejoin:miter;marker:none;marker-start:none;marker-mid:none;marker-end:none;stroke-miterlimit:4;stroke-dasharray:none;stroke-dashoffset:0;stroke-opacity:1;visibility:visible;display:inline;overflow:visible;enable-background:accumulate"
       d="M 355.4781,443.39697 C 354.37631,440.29399 346.05644,442.8327 352.33489,448.00595 C 356.45992,451.40486 356.68397,445.7319 355.4781,443.39697 z"
       id="path3280" />
    <path
       style="opacity:1;fill:#f9a79b;fill-opacity:1;fill-rule:evenodd;stroke:#000000;stroke-width:2;stroke-linecap:butt;stroke-linejoin:miter;marker:none;marker-start:none;marker-mid:none;marker-end:none;stroke-miterlimit:4;stroke-dasharray:none;stroke-dashoffset:0;stroke-opacity:1;visibility:visible;display:inline;overflow:visible;enable-background:accumulate"
       d="M 376.11556,456.47497 C 378.58086,458.50631 368.46894,458.40516 367.99547,461.56426 C 367.36058,465.80037 368.46522,469.61782 369.87292,473.58235 C 371.65518,478.6017 374.54338,478.48652 379.02226,479.15779 C 382.61598,479.6964 384.16615,478.67793 386.49998,474.8481 C 388.46864,471.61754 384.37904,469.82828 383.03851,468.72373 C 380.82583,466.90054 377.25102,471.28802 374.57534,470.2581 C 370.45453,468.67193 374.01635,464.57655 375.37976,463.72203 C 384.47209,458.02339 374.80158,455.61684 379.94494,458.97582"
       id="path3282" />
    <path
       style="opacity:1;fill:#f9a79b;fill-opacity:1;fill-rule:evenodd;stroke:#000000;stroke-width:2;stroke-linecap:butt;stroke-linejoin:miter;marker:none;marker-start:none;marker-mid:none;marker-end:none;stroke-miterlimit:4;stroke-dasharray:none;stroke-dashoffset:0;stroke-opacity:1;visibility:visible;display:inline;overflow:visible;enable-background:accumulate"
       d="M 393.4536,457.67212 C 393.62324,457.5658 389.8957,465.41983 390.76588,474.43641 C 391.1671,478.59377 391.93172,478.62952 396.86543,478.15337 C 399.11616,477.93615 399.81119,473.6931 400.37655,469.92087 C 400.87457,466.59799 398.85767,461.61822 398.49909,457.90278 C 398.02553,452.99587 394.27784,454.72215 393.89012,454.75957"
       id="path3284" />
    <path
       style="opacity:1;fill:#f9a79b;fill-opacity:1;fill-rule:evenodd;stroke:#000000;stroke-width:2;stroke-linecap:butt;stroke-linejoin:miter;marker:none;marker-start:none;marker-mid:none;marker-end:none;stroke-miterlimit:4;stroke-dasharray:none;stroke-dashoffset:0;stroke-opacity:1;visibility:visible;display:inline;overflow:visible;enable-background:accumulate"
       d="M 398.06843,438.56903 C 397.90588,436.8848 390.68508,439.00261 392.99812,445.5168 C 395.22092,451.77689 399.53243,451.08889 402.51535,447.46872 C 406.21027,442.98443 401.74837,440.32043 398.06843,438.56903 z"
       id="path3286" />
    <path
       style="opacity:1;fill:#f9a79b;fill-opacity:1;fill-rule:evenodd;stroke:#000000;stroke-width:2;stroke-linecap:butt;stroke-linejoin:miter;marker:none;marker-start:none;marker-mid:none;marker-end:none;stroke-miterlimit:4;stroke-dasharray:none;stroke-dashoffset:0;stroke-opacity:1;visibility:visible;display:inline;overflow:visible;enable-background:accumulate"
       d="M 414.43304,449.30357 C 412.72003,449.3878 411.32094,450.32627 409.37054,452.05357 C 410.04659,452.11658 405.97256,460.85867 406.30804,464.33482 C 406.67187,468.10484 412.27043,472.52164 414.43304,474.30357 C 416.88805,476.32643 422.04479,475.71225 425.30804,475.39732 C 430.01117,474.94342 431.80405,470.61463 432.37054,466.83482 C 433.10097,461.96129 430.78229,459.16554 427.71429,455.80357 C 425.3748,453.23989 420.7753,451.06329 418.55804,450.20982 C 416.84071,449.54879 415.57017,449.24766 414.43304,449.30357 z M 409.37054,452.05357 C 409.27396,452.04457 409.06279,452.23104 408.74554,452.61607 C 408.96737,452.41364 409.16309,452.23729 409.37054,452.05357 z M 418.90179,457.33482 C 419.02056,457.32616 419.12418,457.31663 419.24554,457.33482 C 422.29027,457.79116 428.67773,458.17522 429.05804,462.11607 C 429.46107,466.29207 430.59604,468.43414 426.12054,468.86607 C 421.73494,469.28931 419.9335,469.68412 416.58929,466.92857 C 413.46818,464.35686 411.12566,456.2799 416.46429,458.33482 C 417.27376,458.0474 418.07043,457.39543 418.90179,457.33482 z"
       id="path3288" />
    <path
       style="opacity:1;fill:#f9a79b;fill-opacity:1;fill-rule:evenodd;stroke:#000000;stroke-width:2;stroke-linecap:butt;stroke-linejoin:miter;marker:none;marker-start:none;marker-mid:none;marker-end:none;stroke-miterlimit:4;stroke-dasharray:none;stroke-dashoffset:0;stroke-opacity:1;visibility:visible;display:inline;overflow:visible;enable-background:accumulate"
       d="M 439.25576,448.94618 C 436.784,448.57573 437.34369,458.87636 437.64692,462.01833 C 438.14208,467.14904 439.4936,470.84332 441.08357,475.32114 C 442.3653,478.9309 450.0228,477.29446 452.66514,476.35623 C 456.6194,474.95217 458.21183,471.72782 459.73117,467.78065 C 461.2015,463.96079 460.52708,459.14966 459.27568,455.62533 C 457.61238,450.94097 460.55149,449.04377 454.39224,449.63819 C 449.03543,450.15517 450.41653,453.05674 450.88112,457.87069 C 451.346,462.6876 449.82179,463.92187 447.43861,466.81417 C 444.43016,470.46535 442.99104,465.34334 442.69241,462.24899 C 442.00658,455.14261 439.89288,448.88469 443.52166,448.53448 C 446.36881,448.2597 441.85632,448.15991 439.25576,448.94618 z"
       id="path3292" />
    <path
       style="opacity:1;fill:#f9a79b;fill-opacity:1;fill-rule:evenodd;stroke:#000000;stroke-width:2;stroke-linecap:butt;stroke-linejoin:miter;marker:none;marker-start:none;marker-mid:none;marker-end:none;stroke-miterlimit:4;stroke-dasharray:none;stroke-dashoffset:0;stroke-opacity:1;visibility:visible;display:inline;overflow:visible;enable-background:accumulate"
       d="M 480.3993,451.4339 C 481.99871,453.9858 474.59081,449.12406 471.59305,449.41337 C 468.2348,449.73747 467.59796,454.09181 467.30233,457.00351 C 467.27522,457.27057 475.95152,463.47575 476.5889,464.00092 C 479.02878,466.01131 477.15817,470.45834 475.92171,471.95895 C 474.53881,473.63729 468.08491,471.99767 466.61032,472.13998 C 462.85526,472.50238 466.14548,476.99252 467.15925,477.82784 C 469.63156,479.86496 474.92283,477.10893 476.33341,476.22485 C 479.7598,474.07735 481.63355,474.55795 483.81113,471.91516 C 485.68758,469.63783 485.84117,467.79533 484.47832,463.95713 C 483.35922,460.80542 480.51528,460.03568 477.53055,458.88681 C 472.76011,457.05059 476.9782,453.96319 480.3993,451.4339 C 481.48232,450.63321 482.47823,453.14689 483.51769,454.00337"
       id="path3296" />
    <path
       style="opacity:1;fill:#f9a79b;fill-opacity:1;fill-rule:evenodd;stroke:#000000;stroke-width:2;stroke-linecap:butt;stroke-linejoin:miter;marker:none;marker-start:none;marker-mid:none;marker-end:none;stroke-miterlimit:4;stroke-dasharray:none;stroke-dashoffset:0;stroke-opacity:1;visibility:visible;display:inline;overflow:visible;enable-background:accumulate"
       d="M 271.42857,493.07646 C 269.08716,495.24064 268.57143,501.60735 268.57143,506.64789 C 268.57143,511.34687 268.57143,515.88125 268.57143,520.93361 C 268.57143,525.07756 269.28572,528.44988 269.28572,532.36218 C 269.28572,536.13643 271.78848,540.22485 272.85715,542.36218 C 274.12484,544.89757 280.42822,545.32637 282.85715,545.93361 C 287.33208,547.05234 290.40406,544.81526 292.85715,542.36218 C 295.79196,539.42736 296.68945,537.74726 297.85715,533.07646 C 299.00375,528.49003 298.57143,523.55262 298.57143,518.79075 C 298.57143,513.98685 296.42857,510.22369 296.42857,505.21932 C 296.42857,500.21881 296.6249,498.27279 294.28572,495.93361 C 291.59573,493.24362 286.84505,497.65999 286.42857,498.07646 C 285.22717,499.27786 286.42857,508.38414 286.42857,510.21932 C 286.42857,514.22211 288.10817,517.07236 287.14286,520.93361 C 286.39042,523.94337 284.49009,527.66771 282.85715,530.93361 C 280.9879,534.67211 276.76912,531.61469 275.71429,529.50503 C 274.34789,526.77223 275,522.0502 275,518.79075 C 275,514.98123 275,511.1717 275,507.36218 C 275,503.71613 276.29745,500.02951 277.14286,496.64789 C 278.26427,492.16225 277.43732,491.87471 271.42857,493.07646 z"
       id="path3299" />
    <path
       style="opacity:1;fill:#f9a79b;fill-opacity:1;fill-rule:evenodd;stroke:#000000;stroke-width:2;stroke-linecap:butt;stroke-linejoin:miter;marker:none;marker-start:none;marker-mid:none;marker-end:none;stroke-miterlimit:4;stroke-dasharray:none;stroke-dashoffset:0;stroke-opacity:1;visibility:visible;display:inline;overflow:visible;enable-background:accumulate"
       d="M 330,492.36218 C 330.74383,489.38688 316.38326,494.00331 315.71429,494.50503 C 312.34472,497.03221 313.65189,501.09453 315,503.79075 C 316.50547,506.80168 320.55884,508.67417 323.57143,510.93361 C 327.31145,513.73862 331.30541,517.2698 334.28572,519.50503 C 337.18583,521.68011 335.40247,526.55725 334.28572,528.79075 C 332.52744,532.3073 330.32662,533.98459 326.42858,535.93361 C 322.75951,537.76814 319.54894,537.83209 315.71429,538.79075 C 311.30627,539.89275 310,536.35566 310,543.07646 C 310,546.46501 317.8381,546.64789 320.71429,546.64789 C 325.74348,546.64789 329.73652,544.52408 333.57143,541.64789 C 337.56254,538.65456 341.35146,536.08783 343.57143,531.64789 C 345.02279,528.74519 345.64072,524.79933 346.42858,521.64789 C 347.37314,517.86963 345.78838,516.0324 343.57143,513.07646 C 341.4992,510.31349 336.53032,509.58134 333.57143,507.36218 C 329.89684,504.60623 329.16372,504.97532 327.85715,502.36218 C 326.27422,499.19632 334.85583,498.65318 335.71429,495.21932 C 336.29675,492.88948 331.06676,492.36218 330,492.36218 z"
       id="path3301" />
    <path
       style="opacity:1;fill:#f9a79b;fill-opacity:1;fill-rule:evenodd;stroke:#000000;stroke-width:2;stroke-linecap:butt;stroke-linejoin:miter;marker:none;marker-start:none;marker-mid:none;marker-end:none;stroke-miterlimit:4;stroke-dasharray:none;stroke-dashoffset:0;stroke-opacity:1;visibility:visible;display:inline;overflow:visible;enable-background:accumulate"
       d="M 357.85715,494.50503 C 357.85922,494.49673 357.17626,503.24345 359.28572,513.79075 C 360.90379,521.88112 361.42858,529.04194 361.42858,537.36218 C 361.42858,543.523 361.54069,544.61715 363.57143,546.64789 C 365.17037,548.24683 377.12017,544.50503 380,544.50503 C 385.49858,544.50503 389.28572,544.15465 389.28572,538.79075 C 389.28572,531.35493 389.48931,530.9845 386.42858,530.21932 C 384.01155,529.61506 377.61075,531.70949 375,532.36218 C 371.19624,533.31312 370,534.86878 370,529.50503 C 370,526.42379 369.28572,520.97107 369.28572,520.21932 C 369.28572,516.98088 375.67488,518.81045 378.57143,517.36218 C 382.15597,515.56991 375.06115,509.69889 374.28572,509.50503 C 369.72669,508.36528 368.34505,511.45666 367.14286,506.64789 C 365.54828,500.26957 371.26907,501.64789 375.71429,501.64789 C 379.60335,501.64789 384.93252,500.95048 387.85715,500.21932 C 387.88544,500.21225 385.20502,491.03937 385,490.21932 C 384.51497,488.27917 372.25715,490.21932 370,490.21932 C 366.11532,490.21932 353.24727,494.50503 362.14286,494.50503"
       id="path3303" />
    <path
       style="opacity:1;fill:#f9a79b;fill-opacity:1;fill-rule:evenodd;stroke:#000000;stroke-width:2;stroke-linecap:butt;stroke-linejoin:miter;marker:none;marker-start:none;marker-mid:none;marker-end:none;stroke-miterlimit:4;stroke-dasharray:none;stroke-dashoffset:0;stroke-opacity:1;visibility:visible;display:inline;overflow:visible;enable-background:accumulate"
       d="M 424.55804,489.67857 C 423.10917,489.66065 421.62803,489.8017 419.99554,490.20982 C 416.43419,491.10017 406.6425,488.59361 414.27679,491.64732 L 410.71429,490.20982 C 406.64925,490.20983 407.86149,509.54535 407.15179,513.80357 C 406.05405,520.39001 407.99695,527.54793 406.43304,533.80357 C 405.59094,537.17196 405.68086,540.34357 404.99554,543.08482 C 404.68363,544.33247 410.88977,543.08482 413.55804,543.08482 C 414.94309,543.08482 414.27679,530.80689 414.27679,529.49107 C 414.27679,524.61063 414.18672,521.85871 415.71429,518.80357 C 417.63388,514.9644 424.39388,519.12586 428.55804,518.08482 C 434.01125,516.72152 432.15179,516.61986 432.15179,525.20982 C 432.15179,530.7798 431.00474,537.77787 432.15179,542.36607 C 432.87987,545.27837 438.52708,543.45967 440.71429,542.36607 C 445.35171,540.04735 445.55135,538.18305 444.27679,533.08482 C 443.0542,528.19446 441.86499,524.09386 440.71429,519.49107 C 439.98553,516.57604 444.02402,516.21259 446.43304,513.80357 C 448.88452,511.35209 448.76394,508.06467 447.87054,504.49107 C 446.76897,500.08479 445.6898,498.74782 442.87054,495.92857 C 439.92978,492.9878 436.71198,492.06861 432.15179,490.92857 C 429.31712,490.2199 426.97283,489.70844 424.55804,489.67857 z M 420.99554,495.14732 C 421.14348,495.15396 421.28581,495.17301 421.43304,495.20982 C 425.0678,496.11851 428.55119,496.46591 432.15179,497.36607 C 434.16835,497.87021 440.78962,501.49667 439.99554,503.08482 C 437.89147,507.29297 436.27798,507.36606 431.43304,507.36607 C 427.75887,507.36607 422.81735,508.2512 419.27679,507.36607 C 416.7009,506.7221 412.95688,497.15698 417.87054,495.92857 C 418.9122,495.72023 419.95993,495.10083 420.99554,495.14732 z"
       id="path3305" />
    <path
       style="opacity:1;fill:#b496bd;fill-opacity:1;fill-rule:evenodd;stroke:#000000;stroke-width:2;stroke-linecap:butt;stroke-linejoin:miter;marker:none;marker-start:none;marker-mid:none;marker-end:none;stroke-miterlimit:4;stroke-dasharray:none;stroke-dashoffset:0;stroke-opacity:1;visibility:visible;display:inline;overflow:visible;enable-background:accumulate"
       d="M 273.19146,144.64836 C 275.03274,146.46834 282.68647,150.9111 286.32344,152.72958 C 289.88404,154.50988 295.90809,154.62067 300.46558,155.76004 C 304.59017,156.79119 310.33583,155.76004 314.60771,155.76004 C 319.32176,155.76004 324.0358,155.76004 328.74985,155.76004 C 333.80061,155.76004 338.85138,155.76004 343.90214,155.76004 C 348.84862,155.76004 354.04224,154.74024 358.04427,153.73973 C 363.20106,152.45054 367.47406,150.54007 371.17626,148.68897 C 376.12676,146.21372 378.66884,145.08984 383.29809,141.6179 C 387.75987,138.27156 389.86231,136.82056 394.40977,134.54684 C 398.21329,132.64507 394.40977,134.56653 394.40977,140.60775 C 394.40977,143.34152 391.37931,147.31062 391.37931,151.71943 C 391.37931,156.81056 390.29992,161.08772 389.359,164.85141 C 388.8851,166.74701 379.4566,170.35747 377.23717,170.91233 C 374.68194,171.55113 367.75869,174.2921 365.11534,174.95294 C 360.3099,176.1543 356.02728,175.96226 351.98336,176.97324 C 347.5481,178.08206 342.80671,177.9834 337.84122,177.9834 C 333.31056,177.9834 327.71977,177.72588 324.70924,176.97324 C 320.2795,175.86581 313.87679,176.79051 310.5671,175.96309 C 306.06511,174.83759 302.58292,174.95294 297.43512,174.95294 C 291.95109,174.95294 289.25336,173.94279 284.30314,173.94279 C 278.2403,173.94279 277.31293,171.23579 276.22192,166.87172 C 275.14322,162.55693 275.0958,158.32666 274.20161,154.74989 C 273.34413,151.31998 273.19146,148.52893 273.19146,144.64836 z"
       id="path3312" />
    <path
       style="opacity:1;fill:#a476b2;fill-opacity:1;fill-rule:evenodd;stroke:#000000;stroke-width:2;stroke-linecap:butt;stroke-linejoin:miter;marker:none;marker-start:none;marker-mid:none;marker-end:none;stroke-miterlimit:4;stroke-dasharray:none;stroke-dashoffset:0;stroke-opacity:1;visibility:visible;display:inline;overflow:visible;enable-background:accumulate"
       d="M 376.7321,70.402148 C 377.86833,70.876294 382.28571,68.761205 383.80316,68.381843 C 386.38805,67.735622 388.57479,66.501108 390.87423,65.351385 C 391.75228,64.912359 392.52156,64.275183 393.39961,63.836157 C 396.17626,62.447835 391.37931,69.823147 391.37931,72.92753 C 391.37931,75.831772 390.92436,78.787916 390.36915,81.00875 C 389.73884,83.529995 388.90181,85.362915 388.34885,87.574741 C 387.79287,89.79866 387.3387,92.336603 387.3387,94.64581 C 387.3387,96.837114 386.32854,99.229253 386.32854,101.71688 C 386.32854,103.84847 385.32011,106.76077 384.81332,108.78795 C 384.22813,111.12871 383.80316,113.97788 383.80316,116.36409 C 383.80316,118.91554 382.28793,121.61956 382.28793,124.44531 C 382.28793,126.51398 381.27557,129.50493 380.77271,131.51638 C 380.08065,134.28458 380.26763,137.71262 380.26763,140.60775 C 380.26763,143.49934 379.76255,144.79162 379.76255,147.67882 C 379.76255,149.59 378.36649,151.98618 377.74225,153.23466 C 376.95786,154.80343 374.91982,155.65602 372.69149,156.77019 C 370.71209,157.75989 367.65237,158.40878 366.12549,158.7905 C 365.50918,158.94457 366.69075,154.50915 367.13565,152.72958 C 367.7823,150.14295 367.64072,147.67624 367.64072,145.15344 C 367.64072,143.22153 368.1458,141.09917 368.1458,138.58745 C 368.1458,135.82252 367.64072,133.70779 367.64072,131.0113 C 367.64072,129.07434 368.16488,125.88423 368.65088,123.94023 C 369.08917,122.18705 369.12433,119.52104 369.66103,117.37424 C 370.19271,115.24752 370.1661,113.39248 370.1661,110.80825 C 370.1661,108.29932 370.67118,105.93606 370.67118,103.23211 C 370.67118,100.87508 370.67118,98.518061 370.67118,96.161039 C 370.67118,93.391313 370.56035,90.543459 371.17626,88.079818 C 371.76657,85.718554 371.68133,82.964253 371.68133,80.503674 C 371.68133,78.461708 372.18679,75.451404 372.69149,73.432606 C 373.17005,71.51833 374.61718,71.248112 376.7321,70.402148 z"
       id="path3314" />
    <path
       style="opacity:1;fill:#a476b2;fill-opacity:1;fill-rule:evenodd;stroke:#000000;stroke-width:2;stroke-linecap:butt;stroke-linejoin:miter;marker:none;marker-start:none;marker-mid:none;marker-end:none;stroke-miterlimit:4;stroke-dasharray:none;stroke-dashoffset:0;stroke-opacity:1;visibility:visible;display:inline;overflow:visible;enable-background:accumulate"
       d="M 341.37676,77.978292 C 341.44053,77.723185 349.16258,77.168259 349.96305,76.96814 C 352.27082,76.391197 354.67983,75.915214 356.52904,75.452911 C 358.83734,74.875838 356.52904,78.154823 356.52904,81.513826 C 356.52904,85.717468 355.51889,89.866445 355.51889,94.140733 C 355.51889,94.814168 355.51889,95.487603 355.51889,96.161039 C 355.51889,100.17316 354.00366,103.68499 354.00366,107.77779 C 354.00366,111.71062 352.99351,115.26547 352.99351,119.39455 C 352.99351,122.63214 353.22196,126.0569 352.48843,128.991 C 351.78413,131.80821 351.98336,135.10812 351.98336,138.08237 C 351.98336,141.10784 352.48843,143.87408 352.48843,146.66867 C 352.48843,150.11763 352.48843,152.26567 352.48843,155.25496 C 352.48843,158.49801 353.50838,160.29593 351.47828,162.32603 C 350.40526,163.39905 345.97623,163.44901 344.40721,163.84126 C 341.23297,164.63482 340.07887,163.19232 339.35645,162.83111 C 336.64175,161.47375 340.45677,156.71592 339.86153,153.73973 C 339.2218,150.54108 339.35645,146.88594 339.35645,143.63821 C 339.35645,140.62563 338.37891,137.23526 337.84122,134.54684 C 337.24635,131.57249 336.83107,128.40923 336.83107,125.45546 C 336.83107,123.46923 335.73754,119.98783 335.31584,117.87932 C 334.70687,114.83446 334.81076,111.57646 334.81076,108.28287 C 334.81076,105.09844 334.5205,102.07106 333.80061,99.191496 C 333.00224,95.998009 332.28538,92.784699 332.28538,89.595047 C 332.28538,87.008696 331.78031,85.004375 331.78031,82.523979 C 331.78031,79.758368 332.05041,77.943171 332.79046,76.463063 C 333.6971,74.649784 336.8846,77.459834 338.85138,76.96814 C 339.73094,76.748247 340.53496,77.641575 341.37676,77.978292 z"
       id="path3316" />
    <path
       style="opacity:1;fill:#a476b2;fill-opacity:1;fill-rule:evenodd;stroke:#000000;stroke-width:2;stroke-linecap:butt;stroke-linejoin:miter;marker:none;marker-start:none;marker-mid:none;marker-end:none;stroke-miterlimit:4;stroke-dasharray:none;stroke-dashoffset:0;stroke-opacity:1;visibility:visible;display:inline;overflow:visible;enable-background:accumulate"
       d="M 302.48588,76.96814 C 304.09168,76.56669 309.28519,77.978292 311.57725,77.978292 C 314.03555,77.978292 316.4812,78.014996 318.64832,77.473216 C 322.90423,76.409239 320.66863,78.772524 320.66863,82.523979 C 320.66863,87.406383 320.66863,92.288787 320.66863,97.171191 C 320.66863,101.2118 320.66863,105.25241 320.66863,109.29302 C 320.66863,112.6519 319.96623,117.15338 319.1534,120.4047 C 318.33155,123.69208 318.51372,128.31796 319.1534,131.51638 C 319.95546,135.52667 318.64832,139.62633 318.64832,143.63821 C 318.64832,146.66867 318.64832,149.69912 318.64832,152.72958 C 318.64832,155.48264 318.14325,158.33222 318.14325,161.31588 C 318.14325,164.93127 318.12884,165.73169 314.60771,164.85141 C 312.4386,164.30913 310.54239,163.57637 309.05187,162.83111 C 308.07789,162.34412 307.53664,156.95398 307.53664,155.76004 C 307.53664,152.44859 305.51634,149.75762 305.51634,146.16359 C 305.51634,143.796 304.94233,139.82692 304.50619,138.08237 C 303.85918,135.49433 304.13696,132.56484 303.49603,130.00115 C 302.87682,127.5243 302.99096,124.48195 302.99096,121.91993 C 302.99096,118.90168 302.70256,114.70541 301.98081,111.8184 C 301.28498,109.03511 301.98081,105.07915 301.98081,102.22195 C 301.98081,98.346565 300.97065,94.591046 300.97065,90.605199 C 300.97065,87.379686 300.46558,84.776587 300.46558,81.513826 C 300.46558,78.657714 298.2714,76.96814 302.48588,76.96814 z"
       id="path3318" />
    <path
       style="opacity:1;fill:#a476b2;fill-opacity:1;fill-rule:evenodd;stroke:#000000;stroke-width:2;stroke-linecap:butt;stroke-linejoin:miter;marker:none;marker-start:none;marker-mid:none;marker-end:none;stroke-miterlimit:4;stroke-dasharray:none;stroke-dashoffset:0;stroke-opacity:1;visibility:visible;display:inline;overflow:visible;enable-background:accumulate"
       d="M 274.20161,70.402148 C 274.20161,67.682229 279.13905,72.772929 281.77775,73.432606 C 284.08891,74.010394 286.92727,74.442758 289.3539,74.442758 C 290.60316,74.442758 289.72841,81.661586 289.3539,83.534131 C 288.24213,89.092962 290.36405,94.822862 290.36405,100.20165 C 290.36405,105.16836 290.86913,110.30855 290.86913,115.35394 C 290.86913,119.73137 291.31595,124.71738 292.38436,128.991 C 293.39532,133.03484 293.94228,136.73792 294.90974,140.60775 C 295.44701,142.75685 295.41481,146.09926 295.41481,148.18389 C 295.41481,150.61923 295.83613,153.90976 296.42497,156.26512 C 296.97835,158.47864 297.43512,160.39551 297.43512,162.83111 C 297.43512,165.15741 295.20254,163.33618 292.88943,163.33618 C 290.58694,163.33618 288.37847,162.33471 286.32344,161.82095 C 283.55681,161.1293 283.19297,160.41073 282.78791,158.7905 C 282.23801,156.5909 282.59917,152.79604 282.28283,151.21435 C 281.78014,148.7009 281.38954,146.12594 280.7676,143.63821 C 280.14001,141.12783 280.36189,138.47982 279.75745,136.06206 C 279.10602,133.45634 279.38097,130.51554 278.7473,127.98084 C 278.0802,125.31244 277.73714,121.50724 277.73714,118.88947 C 277.73714,115.85901 277.73714,112.82856 277.73714,109.7981 C 277.73714,106.87919 277.23207,104.55294 277.23207,101.71688 C 277.23207,98.402912 276.72699,95.534415 276.72699,92.120428 C 276.72699,89.803233 276.22192,87.051615 276.22192,84.544284 C 276.22192,82.268938 275.25113,79.145928 274.70669,76.96814 C 274.09405,74.517603 273.76743,72.573036 274.20161,70.402148 z"
       id="path3320" />
    <path
       style="opacity:1;fill:#a476b2;fill-opacity:1;fill-rule:evenodd;stroke:#000000;stroke-width:2;stroke-linecap:butt;stroke-linejoin:miter;marker:none;marker-start:none;marker-mid:none;marker-end:none;stroke-miterlimit:4;stroke-dasharray:none;stroke-dashoffset:0;stroke-opacity:1;visibility:visible;display:inline;overflow:visible;enable-background:accumulate"
       d="M 408.04682,60.300623 C 407.66688,58.78086 401.00271,64.305299 400.97576,64.341233 C 400.1638,65.423848 400.80966,70.561463 400.47068,71.917377 C 399.53775,75.649087 399.85554,79.933781 398.95545,83.534131 C 398.19707,86.56766 398.17662,89.679907 397.44022,92.625505 C 396.44906,96.590172 394.71708,100.18031 393.90469,104.24226 C 393.31453,107.19308 392.06103,109.5966 391.37931,112.32348 C 390.77235,114.7513 390.36413,117.39435 389.86408,119.39455 C 389.28218,121.72212 389.83857,124.04225 389.359,125.96054 C 388.75898,128.36062 388.85393,130.91221 388.85393,133.53668 C 388.85393,136.23173 388.34885,138.35242 388.34885,141.11283 C 388.34885,143.95139 387.95994,146.20399 387.3387,148.68897 C 386.58466,151.70511 386.17858,152.29949 389.359,150.70928 C 391.96918,149.40419 392.01001,150.20676 392.89454,146.66867 C 393.55269,144.03605 393.77767,141.62091 394.40977,139.09252 C 395.09343,136.35787 395.92499,134.49599 395.92499,131.51638 C 395.92499,128.68169 396.82601,126.3971 397.44022,123.94023 C 398.11468,121.2424 398.23904,118.80707 399.46053,116.36409 C 400.27701,114.73112 400.47068,110.65112 400.47068,108.78795 C 400.47068,106.47075 400.97576,103.71913 400.97576,101.2118 C 400.97576,98.898121 402.08482,95.765387 402.49099,94.140733 C 403.07537,91.803182 402.93594,89.330445 403.50114,87.069665 C 404.06062,84.831732 403.47872,82.108594 404.00621,79.998597 C 404.6353,77.482241 404.91055,74.866036 405.52144,72.422453 C 406.14344,69.934448 406.5316,68.672982 406.5316,65.856462 C 406.5316,62.699192 407.65902,60.533307 410.57221,58.785394"
       id="path3322" />
    <path
       style="opacity:1;fill:#b5a2bb;fill-opacity:1;fill-rule:evenodd;stroke:#000000;stroke-width:2;stroke-linecap:butt;stroke-linejoin:miter;marker:none;marker-start:none;marker-mid:none;marker-end:none;stroke-miterlimit:4;stroke-dasharray:none;stroke-dashoffset:0;stroke-opacity:1;visibility:visible;display:inline;overflow:visible;enable-background:accumulate"
       d="M 459.05953,220.4098 C 457.24625,220.4098 455.69235,221.75667 454.00877,222.43011 C 451.34669,223.49494 458.90957,232.38167 459.05953,232.53163 C 462.97065,236.44275 465.07167,233.59056 468.1509,230.51133 C 471.24181,227.42041 465.47387,220.1065 465.12044,219.39965 C 463.78325,216.72526 460.91536,219.66747 459.05953,220.4098 z"
       id="path3326" />
    <path
       style="opacity:1;fill:#a97eb7;fill-opacity:1;fill-rule:evenodd;stroke:#000000;stroke-width:2;stroke-linecap:butt;stroke-linejoin:miter;marker:none;marker-start:none;marker-mid:none;marker-end:none;stroke-miterlimit:4;stroke-dasharray:none;stroke-dashoffset:0;stroke-opacity:1;visibility:visible;display:inline;overflow:visible;enable-background:accumulate"
       d="M 271.17115,229.50117 C 268.87591,224.91069 257.30179,228.49102 253.99856,228.49102 C 248.82586,228.49102 244.81722,229.50117 239.85642,229.50117 C 234.98921,229.50117 232.22072,228.37964 227.73459,229.50117 C 221.03431,231.17624 219.51763,227.0137 217.63307,234.55194 C 217.14251,236.51415 229.29741,234.91885 230.76505,234.55194 C 235.64078,233.333 240.13331,233.54178 244.90719,233.54178 C 249.86798,233.54178 253.87662,232.53163 259.04932,232.53163 C 264.46376,232.53163 265.99546,232.60659 271.17115,229.50117 z"
       id="path3328" />
    <path
       style="opacity:1;fill:#b5a2bb;fill-opacity:1;fill-rule:evenodd;stroke:#000000;stroke-width:2;stroke-linecap:butt;stroke-linejoin:miter;marker:none;marker-start:none;marker-mid:none;marker-end:none;stroke-miterlimit:4;stroke-dasharray:none;stroke-dashoffset:0;stroke-opacity:1;visibility:visible;display:inline;overflow:visible;enable-background:accumulate"
       d="M 214.60261,223.44026 C 223.59332,223.44026 220.00552,235.86795 218.64322,238.59255 C 216.00016,243.87867 207.49096,238.57225 205.51124,237.58239 C 202.38076,236.01716 213.79013,224.45586 214.60261,223.44026 z"
       id="path3330" />
  </g>
</svg>
