<?xml version="1.0" encoding="UTF-8" standalone="no"?>
<!-- Created with Inkscape (http://www.inkscape.org/) -->

<svg
   xmlns:dc="http://purl.org/dc/elements/1.1/"
   xmlns:cc="http://creativecommons.org/ns#"
   xmlns:rdf="http://www.w3.org/1999/02/22-rdf-syntax-ns#"
   xmlns:svg="http://www.w3.org/2000/svg"
   xmlns="http://www.w3.org/2000/svg"
   xmlns:sodipodi="http://sodipodi.sourceforge.net/DTD/sodipodi-0.dtd"
   xmlns:inkscape="http://www.inkscape.org/namespaces/inkscape"
   width="1052.3622"
   height="744.09448"
   id="svg2"
   version="1.1"
   inkscape:version="0.48.3.1 r9886"
   sodipodi:docname="max.svg"
   inkscape:export-filename="/home/substack/media/vector/max_fish.png"
   inkscape:export-xdpi="100"
   inkscape:export-ydpi="100">
  <defs
     id="defs4" />
  <sodipodi:namedview
     id="base"
     pagecolor="#ffffff"
     bordercolor="#666666"
     borderopacity="1.0"
     inkscape:pageopacity="0.0"
     inkscape:pageshadow="2"
     inkscape:zoom="0.5"
     inkscape:cx="575.98686"
     inkscape:cy="244.14519"
     inkscape:document-units="px"
     inkscape:current-layer="layer1"
     showgrid="false"
     inkscape:window-width="681"
     inkscape:window-height="766"
     inkscape:window-x="683"
     inkscape:window-y="0"
     inkscape:window-maximized="0" />
  <metadata
     id="metadata7">
    <rdf:RDF>
      <cc:Work
         rdf:about="">
        <dc:format>image/svg+xml</dc:format>
        <dc:type
           rdf:resource="http://purl.org/dc/dcmitype/StillImage" />
        <dc:title />
      </cc:Work>
    </rdf:RDF>
  </metadata>
  <g
     inkscape:label="Layer 1"
     inkscape:groupmode="layer"
     id="layer1"
     transform="translate(0,-308.2677)">
    <path
       style="fill:#916f6f;stroke:#000000;stroke-width:1.08381724px;stroke-linecap:butt;stroke-linejoin:miter;stroke-opacity:1"
       d="m 807.21983,747.68489 c -0.17454,0.0161 -0.40161,0.0992 -0.67739,0.23708 l 0.30482,0.779 c -0.1136,0.0841 -0.19864,0.19864 -0.30482,0.30482 -0.0274,0.0274 -0.043,0.0696 -0.0677,0.10161 -0.14218,-0.192 -0.23464,-0.37553 -0.27095,-0.54191 -3.60742,6.92434 -10.05317,29.51219 -2.91276,43.79299 0.74246,1.48492 -0.19622,3.94284 0.54191,5.41909 1.08656,2.17311 1.72841,4.26661 2.40472,6.36742 -0.89997,6.96989 4.92541,20.72801 5.72391,20.72801 0.37528,0 2.68805,-3.06655 5.24974,-5.55457 0.0507,0.0502 0.11895,0.0851 0.16934,0.13548 1.22695,1.22695 2.67104,5.38058 4.33527,7.04481 0.72024,0.72024 0.98371,3.15135 1.62573,3.79336 4.11843,4.11843 7.07084,7.58673 14.63153,7.58673 0.78478,0 2.5646,0.34342 3.25145,0 7.55101,-3.7755 9.8684,-6.07503 14.63153,-10.83818 1.80744,-1.80743 1.17557,-6.59465 2.70955,-8.12863 0.76092,-0.76092 -0.28821,-13.8014 0.54191,-14.63153 1.97498,-1.97499 2.16763,-11.37938 2.16763,-15.17344 0,-2.23316 -0.97702,-7.25841 0,-9.21245 1.5733,-3.14659 5.41909,-6.04407 5.41909,-9.21244 0,-1.95186 1.0861,-7.20207 1.89668,-10.22853 -1.84039,3.27956 -6.00982,4.15647 -9.4834,5.89326 -2.85941,1.4297 -19.60481,-2.75759 -21.67635,-3.79336 -2.86557,-1.43279 -4.15487,-4.71183 -4.33527,-4.87718 0,3.74447 2.69736,10.82599 4.87718,13.00581 1.47428,1.47428 2.81209,1.83083 3.79336,3.79336 0.25064,0.50128 0.27853,2.60167 0.16935,5.14813 0.82129,2.27555 1.45638,4.94822 1.45638,6.23195 0,1.78409 0.76875,3.16324 1.62572,4.87718 0.0164,0.0327 -0.32523,19.07535 -0.54191,19.50871 -1.12543,2.25088 -1.41075,4.12029 -2.70954,5.41908 -0.57287,0.57288 -3.61368,-4.15559 -3.79336,-4.33527 -0.32638,-0.32638 -0.62871,-0.68032 -0.91447,-1.04995 -0.3934,-1.21124 -0.77626,-2.42801 -1.15156,-3.65788 -0.12989,-0.42567 -0.27389,-0.85919 -0.40643,-1.28703 2.08715,-1.86387 5.182,-3.32677 5.182,-5.38522 0,-0.1343 -4.06608,-1.35653 -4.33527,-1.62572 -1.19258,-1.19258 -2.78385,-2.15624 -4.36913,-2.9805 0.0744,-0.48356 0.2124,-0.99769 0.0339,-1.35477 -1.78048,-3.56095 -2.10793,-6.92541 -3.79336,-10.29627 -0.45693,-0.91385 0.69464,-3.64063 0,-4.33527 -2.56009,-2.56008 -3.35906,-17.44866 -6.50291,-20.59252 -1.69042,-1.69042 -9.51064,-11.58134 -13.92028,-10.46561 -0.0326,-0.38431 -0.16432,-0.64761 -0.57577,-0.60965 z m 61.37115,12.76872 c 0.36421,-0.64903 0.6564,-1.37077 0.81286,-2.23537 -0.11835,-0.11835 -0.43968,0.84199 -0.81286,2.23537 z m -62.38723,-11.88812 c 0.11043,-0.21197 0.23408,-0.46168 0.33869,-0.64352 -0.30977,0.15488 -0.39545,0.38344 -0.33869,0.64352 z"
       id="path4759"
       inkscape:connector-curvature="0" />
    <path
       style="fill:#ac9393;stroke:#000000;stroke-width:1px;stroke-linecap:butt;stroke-linejoin:miter;stroke-opacity:1;fill-opacity:0.68161434"
       d="M 827.78125 432.4375 C 829.126 433.34886 830.40133 434.34288 831.875 435.125 C 834.40246 436.4664 837.10965 437.6303 840 438.59375 C 840.7462 438.84248 841.51648 438.9758 842.28125 439 C 843.04602 439.0242 843.80171 438.94511 844.5625 438.78125 C 846.08407 438.45353 847.5672 437.76741 848.9375 436.90625 C 850.3078 436.04509 851.55517 435.00911 852.59375 433.90625 C 853.63233 432.80339 854.47359 431.64658 855 430.59375 C 855.37568 429.84239 855.62582 429.09276 855.90625 428.40625 C 856.18668 427.71974 856.49739 427.09636 857 426.59375 C 857.43959 426.15416 858.02691 423.97022 858.625 421.375 C 859.22309 418.77978 859.83195 415.77326 860.34375 413.75 C 860.27407 411.04716 860.23309 407.97374 860.0625 405.28125 C 859.97721 403.935 859.85806 402.68765 859.6875 401.625 C 859.51694 400.56235 859.29587 399.68548 859 399.09375 C 858.75 398.59375 858.6875 398.01562 858.71875 397.375 C 858.75 396.73438 858.875 396.03125 859 395.34375 C 859.125 394.65625 859.25 393.95312 859.28125 393.3125 C 859.30798 392.76448 859.20041 392.29382 859.03125 391.84375 C 858.55377 395.10663 857.72376 400.64622 857.5 401.09375 C 855.06899 405.95577 853.94832 412.14543 850.5 415.59375 C 849.89378 416.19997 850.01152 418.08223 849.5 418.59375 C 848.24283 419.85092 846.02551 421.54273 845 423.59375 C 843.64576 426.30223 840.17119 426.92257 838 429.09375 C 837.75 429.34375 836.75 428.84375 836.5 429.09375 C 834.66547 430.92828 831.37129 431.86505 827.78125 432.4375 z "
       id="path4063"
       transform="translate(0,308.2677)" />
    <path
       style="fill:#f7dbae;fill-opacity:1;stroke:#000000;stroke-width:1px;stroke-linecap:butt;stroke-linejoin:miter;stroke-opacity:1"
       d="m 820.01688,616.08801 c 4.43297,-4.59303 10.61865,-10.74127 15.7033,-11.74336 1.85789,-0.36616 7.71533,6.23564 7.8846,7.09458 0.33207,1.68489 8.54648,6.79608 8.85182,8.34537 0.37835,1.91977 4.45774,4.33422 4.8361,6.25398 0.20495,1.03996 1.95351,2.59838 2.20789,3.88911 0.76458,3.87953 0.21866,7.10571 -0.45066,12.34086 -0.25301,1.97896 -2.25428,9.8135 -5.16014,10.38619 -5.04971,0.99522 -8.11787,0.57566 -13.99679,-3.36749 -1.78994,-1.20056 -0.21008,-5.36391 -1.37235,-5.13485 -1.24601,0.24557 -0.73828,2.61073 -2.7801,2.34969 -3.62652,-0.46366 -3.89677,-9.23628 -2.74976,-8.46694 0.9585,0.64289 -4.30913,3.73357 -5.26651,-1.12418 -1.30484,-6.62081 -10.18456,-14.85462 -7.7074,-20.82296 z"
       id="path4025"
       inkscape:connector-curvature="0" />
    <path
       style="fill:#c8beb7;stroke:#000000;stroke-width:1px;stroke-linecap:butt;stroke-linejoin:miter;stroke-opacity:1;fill-opacity:0.75784755"
       d="m 842.125,634.7677 c -1.38606,-10e-4 -2.78755,0.42995 -4.125,1.59375 l 3,0 c -0.26235,0.52471 -1.51903,0.36544 -3.09375,0.75 0.10928,0.14519 0.22571,0.2922 0.34375,0.4375 -1.66344,0.20905 -3.66341,1.00849 -5.65625,3.71875 -3.36485,4.57617 -5.74268,10.08755 -9.125,14.6875 -1.8857,2.56455 -2.14789,6.33363 -4.0625,8.9375 -0.99169,1.3487 -3.13264,10.82631 -4.28125,12.96875 -4.40342,8.21343 -7.60615,17.75771 -9.25,27.3125 -0.4181,2.43018 -1.18554,5.71115 -1.71875,9.0625 -0.0571,0.0325 -0.10361,0.0724 -0.15625,0.125 -1.96404,1.96404 -2.90542,4.81084 -4.5,8 -0.69294,1.38587 0.49899,6.00102 -0.5,7 -1.87446,1.87447 -5.23192,17.53615 -3.5,21 0.8631,1.72621 -0.61569,4.653 0,6.5 1.09278,3.2784 1.35554,6.8845 1.90625,10.3125 -0.31979,0.8815 -0.60227,1.7756 -0.90625,2.6875 -0.88088,2.6427 -3.5761,15.3478 -2,18.5 1.13038,2.2608 0.43645,5.3729 1.5,7.5 6.68695,13.374 10.50195,31.0013 24,40 1.11158,0.7411 1.81078,2.4054 3,3 2.44216,1.2211 5.62782,1.814 8,3 1.95429,0.9772 7.57251,2.7138 10,1.5 1.42017,-0.71 3.08653,-0.7932 4.5,-1.5 12.61244,-6.3062 19.83367,-20.1673 25.5,-31.5 0.92802,-1.856 0.5,-19.978 0.5,-23.5 0,-1.3458 0.0428,-3.7744 0.0625,-6.625 0.1343,-0.8387 0.26835,-1.5366 0.4375,-1.875 1.73635,-3.4727 1.18095,-13.4571 0,-17 -0.79827,-2.3948 0,-6.43875 0,-9 0,-7.93488 -0.59467,-17.68935 -4,-24.5 -0.18068,-0.36136 -0.25493,-0.76747 -0.3125,-1.1875 1.33321,-5.89487 0.46749,-14.84754 -1.1875,-19.8125 -1.26449,-3.79348 0.25692,-8.72923 -1,-12.5 -1.07813,-3.23438 0.58006,-7.25981 -0.5,-10.5 -1.0696,-3.20879 -0.46937,-12.43874 -1.5,-14.5 -1.0815,-2.16307 0.0649,-5.37009 -1,-7.5 -0.81624,-1.63247 -0.19627,-3.89255 -1,-5.5 -4.62567,-9.25133 -2.28473,-14.14236 -13,-19.5 -1.80395,-0.90197 -4.0649,-2.09169 -6.375,-2.09375 z m -2.03125,6.84375 c 0.0398,0.26202 0.0774,0.5202 0.0937,0.78125 0.041,0.65678 -0.10063,1.31511 -0.1875,1.96875 2.77879,1.43408 8.5,6.6665 8.5,8.5 0,2.46066 2.61201,7.72402 4,10.5 1.55946,3.11892 2.11295,11.33884 3.5,15.5 1.64914,4.94742 0.0926,11.18529 2.5,16 0.70455,1.40911 -0.23181,3.53637 0.5,5 1,2 -1,5.5 0,7.5 1.18346,2.36691 1.20439,9.25058 1.34375,14.65625 -1.02361,4.04652 -2.46457,11.96457 -3.34375,12.84375 -1.00521,1.00521 -1.24864,2.49728 -2,4 -2.10565,4.21131 -9.03042,9.98986 -15,8 -11.5614,-3.85379 -20.30212,-10.72017 -25.5625,-20.6875 1.96608,-4.33547 0.91811,-9.67089 0.375,-16.9375 -0.40783,-5.45655 2.10509,-13.80938 4.1875,-18.53125 1.04449,-2.3684 0.44314,-5.48775 1.375,-7.90625 3.61053,-9.37063 4.18469,-20.80995 10,-28.71875 1.48108,-2.01426 1.51742,-6.24109 3.34375,-7.53125 1.45573,-1.02836 3.06748,-1.31344 4.4375,-2.28125 0.22677,-0.1602 0.82929,0.3143 1.40625,0.75 0.19647,-0.62944 0.42908,-1.25202 0.5,-1.90625 0.0532,-0.49109 0.0623,-0.99095 0.0312,-1.5 z"
       id="path4651"
       inkscape:connector-curvature="0" />
    <path
       style="fill:#dba957;fill-opacity:1;stroke:#000000;stroke-width:0.98663515px;stroke-linecap:butt;stroke-linejoin:miter;stroke-opacity:1"
       d="m 609.80995,1074.9336 c 0,-40.2308 -2.78128,-81.71328 -2.78128,-122.85713 0,-9.30007 -0.86495,-72.31711 -5.56256,-77.14286 -7.73005,-7.94089 -10.06721,-1.59947 -18.07834,-5.71428 -20.98132,-10.7768 -48.49114,-3.67704 -72.31335,-8.57143 -9.03799,-1.85691 -21.10409,-6.23549 -30.5941,-4.28572 -10.16118,2.08767 -20.1497,4.39 -29.20347,10 -8.33857,11.38301 -5.56256,27.12252 -5.56256,41.42857 0,37.62259 1.39064,75.50118 1.39064,112.85715 0,4.7803 1.41826,68.5998 4.17192,71.4286 0.73901,0.7591 3.29878,-3.3888 4.17193,-4.2857 9.35029,3.6078 57.06394,1.3796 61.18821,-2.8572 5.06652,-5.2047 -3.54855,-33.0049 -5.56257,-37.1428 -0.88284,-1.8139 0.61608,-5.2443 0,-7.1429 -6.59538,-20.3258 -4.47704,-102.5437 5.56257,-112.85715 2.41171,-2.47749 0.65202,-10.66979 2.78128,-12.85714 10.06145,-10.33588 9.46618,46.59159 11.12513,50 0.74005,1.52048 9.73449,70.30949 9.73449,75.71429 0,9.5982 -3.59188,33.453 2.78129,40 2.69847,2.7721 3.45599,0 6.9532,0"
       id="path3109"
       inkscape:connector-curvature="0" />
    <path
       sodipodi:type="inkscape:offset"
       inkscape:radius="-1.3826398"
       inkscape:original="M 550.875 848.84375 C 544.97502 853.52905 539.42811 858.76618 536.34375 865.78125 C 530.73992 870.89279 534.76454 876.20316 541.09375 872.90625 C 549.6334 874.60908 556.68244 879.78212 563.5625 884.78125 C 571.48066 885.80835 571.35714 895.93276 574.71875 901.375 C 574.8373 915.56552 573.68648 929.76444 574.03125 943.96875 C 573.25774 952.92605 574.92649 961.45961 576.28125 970.21875 C 576.15941 977.80609 575.02919 985.16863 573.75 992.65625 C 572.37639 1009.3718 574.68762 1026.3497 579.125 1042.4688 C 582.88615 1055.2159 597.88371 1061.0296 609.75 1055.9375 C 609.446 1013.2524 606.78993 970.59962 606.90625 927.90625 C 606.26583 907.01114 606.37745 885.96877 603.0625 865.28125 C 601.99638 855.76894 591.53518 857.08905 584.8125 855.875 C 574.42314 850.35382 562.47881 848.93253 550.875 848.84375 z "
       style="fill:#d4a14e;fill-opacity:1;stroke:#ffffff;stroke-width:1px;stroke-linecap:butt;stroke-linejoin:miter;stroke-opacity:0"
       id="path4547"
       d="m 551.375,850.25 c -5.68772,4.55404 -10.87385,9.55224 -13.75,16.09375 a 1.382778,1.382778 0 0 1 -0.34375,0.46875 c -1.25201,1.14203 -1.89978,2.22101 -2.125,3.0625 -0.22522,0.84149 -0.0748,1.39648 0.21875,1.8125 0.5871,0.83204 2.30539,1.45246 5.09375,0 a 1.382778,1.382778 0 0 1 0.90625,-0.125 c 8.86059,1.76683 16.01083,7.03402 22.84375,12 2.02766,0.37019 3.69977,1.23633 4.9375,2.5 1.34115,1.36926 2.24332,3.08697 2.96875,4.84375 1.45086,3.51357 2.30588,7.36146 3.78125,9.75 a 1.382778,1.382778 0 0 1 0.1875,0.71875 c 0.11924,14.27297 -1.02992,28.45515 -0.6875,42.5625 a 1.382778,1.382778 0 0 1 0,0.15625 c -0.75237,8.71249 0.88976,17.11168 2.25,25.90625 a 1.382778,1.382778 0 0 1 0,0.25 c -0.12331,7.67873 -1.25585,15.05978 -2.53125,22.53125 -0.003,0.0312 0.003,0.0626 0,0.0937 -1.34071,16.4832 0.94802,33.2509 5.34375,49.2188 3.44123,11.5693 16.90345,16.9874 27.875,12.8437 -0.33739,-42.2908 -2.9267,-84.59166 -2.8125,-127 3e-5,-0.0104 -3e-5,-0.0208 0,-0.0312 -0.64038,-20.91808 -0.55438,-41.87837 -3.84375,-62.40625 a 1.382778,1.382778 0 0 1 0,-0.0625 c -0.23826,-2.12583 -0.9578,-3.49136 -1.96875,-4.5 -1.01095,-1.00864 -2.3784,-1.6595 -4.03125,-2.125 -3.3057,-0.93101 -7.55398,-0.91761 -11.125,-1.5625 a 1.382778,1.382778 0 0 1 -0.40625,-0.15625 c -9.94207,-5.28348 -21.4441,-6.71842 -32.78125,-6.84375 z"
       transform="translate(0,14)" />
    <path
       style="fill:#da911b;fill-opacity:1;stroke:#000000;stroke-width:1px;stroke-linecap:butt;stroke-linejoin:miter;stroke-opacity:1"
       d="m 564.27121,403.09602 c 4.016,12.00032 17.41213,19.70949 21.2132,31.1127 4.52863,13.58587 20.51074,100.39988 14.14214,113.13709 -4.22001,8.44002 -2.82843,24.03459 -2.82843,33.94112 0,17.09639 0.41293,65.64218 -5.65685,77.78175 -2.14541,4.29082 -0.39849,17.5878 1.41421,21.2132 4.61408,9.22816 -5.79298,55.42659 -9.89949,63.63961 -0.89274,1.78547 1.35763,7.12765 0,8.48528 -1.70063,1.70062 -10.1859,-18.67118 -11.31371,-19.79899 -1.64334,-1.64334 -4.01233,-2.3678 -5.65686,-5.65685 -1.9722,-3.94442 3.64468,-18.60307 5.65686,-22.62742 5.58735,-11.17471 -2.82843,-31.68354 -2.82843,-42.42641 0,-16.96345 1.83779,-72.69196 -4.24264,-84.85281 -5.90527,-11.81055 4.56088,-44.61836 -1.41421,-56.56854 -2.53262,-5.06524 -4.24264,-19.32534 -4.24264,-25.45585 0,-17.49886 0.10679,-32.31332 -7.07107,-46.66904 -3.10056,-6.20112 2.82843,-14.52254 2.82843,-19.79899 0,-2.09167 2.98774,-5.81618 4.24264,-7.07107 2.15405,-2.15405 -0.0291,-8.42715 1.41421,-11.31371 1.22927,-2.45855 6.99138,-7.07107 4.24264,-7.07107 -3.01846,0 -3.77123,4.71405 -5.65685,7.07107"
       id="path3176"
       inkscape:connector-curvature="0" />
    <path
       style="fill:#782121;fill-opacity:1;stroke:#000000;stroke-width:1px;stroke-linecap:butt;stroke-linejoin:miter;stroke-opacity:1"
       d="M 461.4375 250.9375 C 462.05838 249.07487 455.24256 250.47023 455.71875 252.375 C 456.19494 254.27976 459.53274 251.41369 461.4375 250.9375 z "
       id="path4620"
       transform="translate(0,308.2677)" />
    <path
       style="fill:#782121;fill-opacity:1;stroke:#000000;stroke-width:1px;stroke-linecap:butt;stroke-linejoin:miter;stroke-opacity:1"
       d="M 602.8125 526.03125 C 602.81625 523.65057 602.77694 521.23454 602.78125 518.84375 C 602.6479 519.24751 602.5018 519.62608 602.4375 520.09375 C 602.33446 520.84324 602.30408 521.65439 602.34375 522.53125 C 602.39229 523.60417 602.62131 524.843 602.8125 526.03125 z "
       id="path4618"
       transform="translate(0,308.2677)" />
    <path
       style="fill:#782121;fill-opacity:1;stroke:#000000;stroke-width:1px;stroke-linecap:butt;stroke-linejoin:miter;stroke-opacity:1"
       d="m 519.5,550.8927 c -21.38284,3.25841 -44.70907,4.54965 -63.6873,12.10891 -17.82995,8.60867 -25.13479,30.80824 -22.37485,49.52455 -3.07883,18.26374 1.62176,36.61905 -0.77718,55.27447 6.08565,21.25011 6.44304,42.46916 10.93266,63.86306 5.33243,33.36254 0.79547,67.31399 2.02986,100.92712 0.37725,16.41925 -4.56343,37.53968 14.30038,45.74691 20.42588,11.38544 44.54934,12.18605 67.00031,16.87462 24.2252,-0.61619 48.89125,-3.54556 71.84444,-11.56864 13.02845,-13.25676 1.90489,-35.83365 3.57548,-52.84475 1.91658,-31.65189 -1.45733,-63.41098 -4.14079,-94.94427 0.21486,-16.76063 3.24518,-33.34183 7.37593,-49.69858 7.26712,-19.64587 2.95524,-40.52663 5.10856,-60.85715 19.01235,-4.56452 37.14052,-15.80906 57.85784,-13.93722 17.22867,-1.96563 34.68512,-1.3042 52.30759,0.9981 21.65371,-3.22375 38.52238,4.79652 59.42122,8.54136 15.99303,-2.281 35.16351,9.21465 48.91204,1.13345 12.67123,-11.85195 4.43829,-28.20827 -12.08728,-30.00978 -32.53081,-12.09486 -68.00933,-11.84207 -100.93514,-22.7352 -12.66412,-5.10055 -41.25609,-1.12053 -81.38925,-1.78814 -10.55054,-2.56353 -23.31145,1.22575 -42.46212,-2.57752 -17.78722,-4.94117 -36.51558,-10.3344 -55.22711,-13.06738 -5.8338,-0.68667 -11.71091,-1.03282 -17.58529,-0.96392 z"
       id="path4616"
       inkscape:connector-curvature="0"
       sodipodi:nodetypes="ccccccccccccccccccccccc" />
    <path
       sodipodi:type="inkscape:offset"
       inkscape:radius="-4.1272464"
       inkscape:original="M 560.65625 542.71875 C 558.10709 542.85004 555.79559 543.89685 553.84375 546.5625 C 545.73524 556.12194 539.70108 567.20349 532.09375 577.125 C 527.39592 588.66539 522.53786 600.13142 516.40625 611 C 511.45787 624.66326 503.61741 637.16682 499.5625 651.125 C 497.24173 664.07774 500.31396 678.08529 493.21875 690 C 486.66712 703.88667 477.33925 716.31434 473.75 731.34375 C 466.15506 740.92055 460.06183 749.35973 456.96875 761.625 C 451.59573 769.26403 452.83178 792.38568 466.21875 782.1875 C 476.14024 774.20535 479.56354 798.29511 490.40625 786.8125 C 503.84867 783.63443 498.88341 762.88561 512.71875 760.25 C 523.96594 752.88516 517.03624 736.75836 514.0625 726.40625 C 515.95671 714.69709 515.92202 702.0203 520.125 691.03125 C 529.15872 683.48303 533.02129 694.79408 536.46875 699.75 C 542.91033 694.4651 548.75165 692.66911 556.5 696 C 567.27527 693.03818 569.71685 676.77603 578.40625 674.78125 C 583.75561 681.87693 580.87048 692.32335 582.21875 700.75 C 577.98553 711.14799 577.63491 722.75348 574.09375 733.3125 C 577.94051 745.70138 576.7444 758.63451 579 771.125 C 581.69026 787.82274 579.4627 805.00131 576.71875 821.5 C 578.62769 833.63462 573.15269 845.73963 575.1875 858.125 C 576.20727 866.48024 576.00095 880.56572 587.8125 873.25 C 604.08669 873.2972 607.01143 857.58526 604.40625 844.625 C 600.83143 811.93988 604.52137 778.97204 600.3125 746.3125 C 598.93728 732.54777 596.34321 717.84963 599.5625 704.40625 C 602.03255 692.15286 602.26332 679.45704 606.8125 667.59375 C 614.11075 654.28112 601.33317 654.90134 592.1875 656.65625 C 576.34977 646.81848 595.11878 633.57963 596.09375 621.1875 C 596.17385 609.13072 582.19954 595.25107 597.34375 586.1875 C 601.70776 581.67277 605.50605 576.37723 610.78125 572.875 C 600.27383 566.76921 598.38097 551.56545 586.28125 548.25 C 578.05926 550.27498 568.30372 542.32487 560.65625 542.71875 z "
       style="fill:#691e1e;fill-opacity:1;stroke:#ffffff;stroke-width:1px;stroke-linecap:butt;stroke-linejoin:miter;stroke-opacity:0"
       id="path4398"
       d="m 560.875,546.84375 c -1.55173,0.0799 -2.34898,0.32822 -3.6875,2.15625 A 4.1276591,4.1276591 0 0 1 557,549.21875 c -7.62057,8.98419 -13.59523,19.78429 -21.28125,29.90625 -4.62022,11.33801 -9.46181,22.70993 -15.59375,33.625 -5.12083,13.9911 -12.70097,26.28067 -16.53125,39.3125 -2.02385,11.67955 1.10906,26.28221 -6.65625,39.6875 -0.0288,0.0497 -0.0334,0.10659 -0.0625,0.15625 -0.0364,0.0769 -0.0885,0.14199 -0.125,0.21875 -6.77019,14.22765 -15.6963,26.3538 -19,40.1875 a 4.1276591,4.1276591 0 0 1 -0.78125,1.59375 c -7.52924,9.49395 -13.11142,17.26439 -16,28.71875 a 4.1276591,4.1276591 0 0 1 -0.625,1.375 c -1.47353,2.09497 -2.77171,9.49882 -1.78125,13.625 0.49523,2.06309 1.35978,2.90628 1.5,2.96875 0.13779,0.0614 0.95027,0.33325 3.5625,-1.625 0.03,-0.0241 0.0636,-0.0388 0.0937,-0.0625 3.35182,-2.63709 7.87359,-2.92835 10.8125,-1.4375 2.96537,1.50428 4.75455,3.75101 6.40625,5.46875 1.6517,1.71774 3.06496,2.75405 3.53125,2.875 0.46629,0.12095 0.79583,0.42431 2.9375,-1.84375 a 4.1276591,4.1276591 0 0 1 2.0625,-1.1875 c 2.32667,-0.55007 3.4835,-1.57463 4.71875,-3.40625 1.23525,-1.83162 2.25433,-4.49755 3.34375,-7.46875 1.08942,-2.9712 2.26658,-6.25535 4.40625,-9.25 1.93792,-2.71228 4.94026,-5.02977 8.8125,-6.09375 3.83656,-2.6905 4.47204,-6.31524 3.875,-11.65625 -0.61434,-5.49578 -2.96652,-11.9279 -4.53125,-17.375 A 4.1276591,4.1276591 0 0 1 510,725.75 c 1.81795,-11.23774 1.69723,-24.20219 6.28125,-36.1875 a 4.1276591,4.1276591 0 0 1 1.1875,-1.6875 c 2.75869,-2.30505 5.73761,-3.63502 8.71875,-3.5 2.98114,0.13502 5.42208,1.71821 7.125,3.40625 1.97959,1.96229 3.34146,4.1122 4.46875,6.0625 2.32256,-1.45728 4.72689,-2.68906 7.34375,-3.25 3.5151,-0.75349 7.26731,-0.23528 11.0625,1.0625 3.21524,-1.27797 5.8205,-4.60588 8.59375,-8.875 3.00248,-4.62201 6.04116,-10.50548 12.6875,-12.03125 a 4.1276591,4.1276591 0 0 1 4.21875,1.53125 c 3.47548,4.61006 4.12632,10.01852 4.25,14.875 0.12368,4.85648 -0.21579,9.44041 0.34375,12.9375 a 4.1276591,4.1276591 0 0 1 -0.25,2.21875 c -3.72015,9.13774 -4.24864,20.14831 -7.6875,31.09375 3.68616,12.93841 2.66706,25.63868 4.71875,37 a 4.1276591,4.1276591 0 0 1 0,0.0625 c 2.78813,17.30521 0.53479,34.74209 -2.1875,51.1875 1.82646,13.40705 -3.36265,25.23586 -1.625,35.8125 a 4.1276591,4.1276591 0 0 1 0.0312,0.15625 c 0.54773,4.48771 0.96121,9.94262 1.96875,12.3125 0.50377,1.18494 0.71315,1.2014 0.78125,1.21875 0.0681,0.0173 1.14031,0.11334 3.59375,-1.40625 a 4.1276591,4.1276591 0 0 1 2.1875,-0.625 c 6.80818,0.0198 9.66931,-2.59732 11.59375,-6.96875 1.92444,-4.37143 2.14903,-10.84709 0.96875,-16.71875 a 4.1276591,4.1276591 0 0 1 -0.0625,-0.375 c -3.6408,-33.28843 0.031,-66.21169 -4.09375,-98.21875 a 4.1276591,4.1276591 0 0 1 0,-0.125 c -1.34826,-13.49485 -4.12542,-28.57879 -0.6875,-43.125 0.0101,-0.0504 0.0212,-0.10583 0.0312,-0.15625 2.34211,-11.72081 2.54224,-24.6282 7.40625,-37.3125 a 4.1276591,4.1276591 0 0 1 0.21875,-0.5 c 1.58702,-2.89485 1.67988,-4.56323 1.625,-4.875 -0.0549,-0.31177 0.24408,-0.0908 -0.59375,-0.40625 -1.67566,-0.6309 -6.93814,-0.45238 -11.25,0.375 A 4.1276591,4.1276591 0 0 1 590,660.15625 c -4.62226,-2.87116 -7.4351,-6.67778 -8.09375,-10.78125 -0.65865,-4.10347 0.61723,-7.87697 2.1875,-11.25 3.11932,-6.70045 7.45744,-12.91155 7.84375,-17.15625 -0.0508,-4.41378 -3.11766,-10.62428 -4.875,-17.375 -0.89013,-3.41938 -1.38431,-7.14886 -0.25,-10.96875 1.06874,-3.59909 3.72194,-6.8832 7.71875,-9.46875 2.95316,-3.08074 5.84405,-6.86298 9.5625,-10.25 -3.6226,-3.45086 -6.07393,-7.60535 -8.40625,-11.125 -3.07919,-4.64673 -5.76678,-7.97612 -10,-9.34375 -5.07494,0.71674 -9.79853,-0.9348 -13.90625,-2.5 -4.53997,-1.7299 -8.59707,-3.21268 -10.90625,-3.09375 z"
       transform="translate(-7.0710678,5.5147186)" />
    <path
       style="fill:#f7dbae;fill-opacity:1;stroke:#000000;stroke-width:1px;stroke-linecap:butt;stroke-linejoin:miter;stroke-opacity:1"
       d="m 443.125,866.48645 c -0.0401,0.0283 -0.0625,0.0937 -0.0625,0.21875 0,0.12962 0.30255,0.22839 0.6875,0.3125 -0.28358,-0.35129 -0.5182,-0.60674 -0.625,-0.53125 z m 0.625,0.53125 c 0.46082,0.57084 1.05448,1.42948 1.4375,1.8125 L 427.5,878.73645 c -2.44052,8.42586 -5.66029,31.08972 4.96875,41.71875 2.99908,2.99909 3.9423,8.1923 7.78125,12.03125 2.30494,2.30494 5.7114,-1.3511 6.34375,-0.71875 0.91654,0.91654 8.67904,7.60221 12.03125,4.25 1.09256,-1.09256 1.28909,-2.69534 2.125,-3.53125 0.82496,-0.82496 4.11254,0.82496 4.9375,0 2.51956,-2.51956 0.70567,-10.61192 1.40625,-11.3125 0.003,-0.003 0.15526,-0.0784 0.1875,-0.0937 1.63109,1.83469 3.46492,2.53508 5.21875,0.78125 0.25,-0.25 -0.25,-1.25 0,-1.5 2.66954,-2.66954 -2.98119,-12.86832 -7.3125,-19.5625 -0.7649,-3.11243 -1.64049,-5.82799 -3.03125,-7.21875 -0.0508,-0.0508 -0.71875,-4.91633 -0.71875,-4.9375 0,-0.44838 -1.65881,-2.59119 -1.40625,-2.84375 1.30034,-1.30034 7.7488,5.6887 9.90625,3.53125 1.47001,-1.47002 2.11203,-4.90095 0.6875,-7.75 -3.62609,-7.25219 -20.55891,-9.99641 -24.71875,-14.15625 -0.11809,-0.11809 -1.3579,-0.23181 -2.15625,-0.40625 z"
       id="path4011"
       inkscape:connector-curvature="0" />
    <path
       style="fill:#782121;stroke:#000000;stroke-width:1px;stroke-linecap:butt;stroke-linejoin:miter;stroke-opacity:1"
       d="m 441.73097,577.41998 c -19.19538,1.59294 -61.51468,69.98309 -59.05542,107.05679 -5.735,12.76349 -7.82604,30.18807 -6.22915,43.46794 1.79453,14.9234 2.64845,48.36661 11.23486,63.85026 1.41283,13.38372 5.69012,20.18861 10.17391,31.65475 3.02272,7.72985 7.12714,21.03237 11.45423,28.68426 5.70847,10.09466 7.46772,19.67244 14.33329,26.47883 0.21553,0.92517 0.4598,1.60595 0.7854,1.89992 0.86596,0.78183 2.73402,0.47375 3.59996,1.25558 3.75508,3.39025 30.45035,-8.22235 24.80724,-13.3172 -0.98966,-0.89351 0.0513,-4.00251 -0.93837,-4.89602 -7.05179,-6.36668 -8.67197,-27.54358 -13.92775,-36.83773 -2.45003,-4.33256 -5.68952,-14.57408 -9.39468,-17.91928 -0.26949,-0.2433 -0.51815,-0.56288 -0.7048,-0.93402 -0.0335,-0.0666 -0.0423,-0.14534 -0.0735,-0.21528 -0.11247,-0.35541 -0.24991,-0.69245 -0.36627,-1.04518 -0.005,-0.0188 0.002,-0.0436 -0.004,-0.0625 -0.74621,-2.77138 -0.68477,-6.78078 -2.23241,-8.17806 -0.59539,-0.53755 -3.69515,-13.24783 -5.80813,-17.53915 2.88448,-11.65659 3.81017,-33.69985 4.88499,-40.98992 1.68765,-11.4465 -2.18159,-35.85154 -6.31444,-50.74403 16.12044,-17.28968 46.05241,-56.99324 48.91319,-67.30042 0.97474,-3.51189 0.89522,-6.78446 2.36135,-10.13359 4.99376,-11.40734 -17.52297,-26.79318 -23.15763,-33.14354 -1.2489,-0.87498 -2.72365,-1.22683 -4.34261,-1.09249 z"
       id="path3071"
       inkscape:connector-curvature="0"
       sodipodi:nodetypes="scscsscssssssccccscscsscs"
       inkscape:transform-center-x="22.919237"
       inkscape:transform-center-y="124.82835" />
    <path
       sodipodi:type="inkscape:offset"
       inkscape:radius="-1.3787267"
       inkscape:original="M 440.34375 564.375 C 435.24713 564.94519 430.12236 568.22423 426.53125 573.03125 C 406.33535 594.95513 391.84632 622.32238 384.53125 651.1875 C 382.27886 661.69222 383.2436 672.22434 378.71875 682.15625 C 373.02053 703.03402 377.93602 724.62747 379.53125 745.6875 C 380.06505 759.31656 385.98166 771.71975 388.78125 784.6875 C 392.6516 799.49735 399.97427 813.15781 404.59375 827.75 C 409.83056 838.80659 414.40972 850.26783 420.59375 860.8125 C 430.01242 861.87145 422.44987 844.35183 421.4375 837.40625 C 415.23647 829.86727 413.19139 819.33542 412.78125 809.75 C 413.33749 800.46245 404.67526 793.84468 402.03125 785.40625 C 401.60678 776.43969 400.12554 768.05147 397.40625 759.4375 C 394.15173 750.14103 393.0495 740.36418 390.28125 731.28125 C 391.82817 720.54335 394.27399 709.97804 392 698.9375 C 391.74929 689.84269 395.78104 681.25107 397.09375 672.25 C 399.47693 666.57351 395.54645 660.45002 400.4375 655.21875 C 403.66995 647.70142 402.7637 639.41508 410.125 633.78125 C 411.90016 620.03792 421.55676 610.97073 431.875 602.75 C 439.79371 595.7194 444.34745 589.21536 445.25 578.5625 C 447.5618 575.6113 451.35898 574.55946 453.96875 571.90625 C 450.5018 565.95129 445.44037 563.80481 440.34375 564.375 z "
       style="fill:#852b2b;fill-opacity:1;stroke:#ffffff;stroke-width:1px;stroke-linecap:butt;stroke-linejoin:miter;stroke-opacity:0"
       id="path4326"
       d="m 440.5,565.75 c -4.61768,0.51661 -9.48037,3.54974 -12.875,8.09375 a 1.3788646,1.3788646 0 0 1 -0.0937,0.125 c -20.01757,21.73029 -34.39196,48.8754 -41.65625,77.5 -0.004,0.0202 0.004,0.0423 0,0.0625 -2.16586,10.16093 -1.2413,20.74471 -5.84375,31 l 0.0312,0 c -5.58161,20.45052 -0.76223,41.86055 0.84375,63.0625 a 1.3788646,1.3788646 0 0 1 0,0.0312 c 0.51871,13.24376 6.36815,25.55894 9.21875,38.71875 0.004,0.0198 -0.004,0.0427 0,0.0625 3.80306,14.51497 11.05129,28.08591 15.71875,42.75 5.13428,10.84011 9.637,21.96846 15.53125,32.1875 0.50506,-0.0234 1.05562,-0.0111 1.3125,-0.15625 0.37969,-0.21449 0.65964,-0.51841 0.875,-1.09375 0.43073,-1.15069 0.40377,-3.29051 0,-5.75 -0.7896,-4.80963 -2.82951,-10.6329 -3.4375,-14.4375 -6.28068,-7.87764 -8.30826,-18.50015 -8.71875,-28.09375 a 1.3788646,1.3788646 0 0 1 0,-0.15625 c 0.25142,-4.19793 -1.58447,-7.85345 -3.96875,-11.65625 -2.38428,-3.8028 -5.29905,-7.65648 -6.71875,-12.1875 a 1.3788646,1.3788646 0 0 1 -0.0625,-0.34375 c -0.41825,-8.83523 -1.88921,-17.0774 -4.5625,-25.5625 -0.006,-0.0198 0.006,-0.0427 0,-0.0625 -3.30651,-9.47158 -4.41289,-19.25751 -7.125,-28.15625 a 1.3788646,1.3788646 0 0 1 -0.0625,-0.59375 c 1.55797,-10.81457 3.94952,-21.196 1.75,-31.875 a 1.3788646,1.3788646 0 0 1 -0.0312,-0.25 c -0.26259,-9.52572 3.82114,-18.18012 5.09375,-26.90625 a 1.3788646,1.3788646 0 0 1 0.0937,-0.34375 c 1.01837,-2.42565 0.70085,-5.13165 0.625,-8.125 -0.0725,-2.86222 0.28623,-6.05378 2.71875,-8.90625 0.004,-0.009 -0.004,-0.0222 0,-0.0312 1.51641,-3.53945 2.1175,-7.41656 3.25,-11.25 1.08751,-3.68114 2.81692,-7.34455 6.4375,-10.3125 2.01509,-13.97431 11.89864,-23.22146 22.125,-31.375 0.0237,-0.021 0.0389,-0.0415 0.0625,-0.0625 7.75401,-6.89817 11.9728,-12.9389 12.84375,-23.21875 a 1.3788646,1.3788646 0 0 1 0.28125,-0.71875 c 2.36636,-3.02084 5.57026,-4.28526 7.875,-6.125 -3.1653,-4.68626 -7.24314,-6.32349 -11.53125,-5.84375 z"
       transform="translate(0,14)" />
    <path
       style="fill:#782121;fill-opacity:1;stroke:#ffffff;stroke-width:1px;stroke-linecap:butt;stroke-linejoin:miter;stroke-opacity:0"
       d="m 451.13413,619.4707 c -0.34305,-1.24859 -12.14204,5.89929 -14.84925,11.31371 -2.40321,4.80643 -9.19238,8.31696 -9.19238,14.14213 0,0.83282 -1.54084,3.66216 -2.12132,4.24264 -1.71923,1.71923 0.85449,11.4611 1.41421,12.02082 2.34754,2.34754 4.6358,5.02895 6.36396,8.48528 1.27108,2.54216 0.27884,5.9357 2.12132,7.77817 0.87943,0.87943 13.88673,-6.23626 15.55635,-7.07107 8.28537,-4.14268 16.43001,-14.47524 20.5061,-22.62741 3.35001,-6.70002 -5.74752,-23.42519 -8.48528,-26.16295 -0.98807,-0.98807 -9.39382,-1.73735 -11.31371,-2.12132 z"
       id="path4013"
       inkscape:connector-curvature="0" />
    <path
       style="fill:#da911b;fill-opacity:1;stroke:#000000;stroke-width:1px;stroke-linecap:butt;stroke-linejoin:miter;stroke-opacity:1"
       d="m 451.13413,421.4808 c -8.44363,7.41359 -4.53236,26.03527 -8.48529,33.94112 -13.74721,27.49444 -3.36167,113.48481 8.48529,137.17872 4.06697,8.13394 -1.68533,48.95524 2.82842,57.98276 6.71755,13.4351 4.39994,68.98186 -1.41421,80.61017 -5.04216,10.08432 -7.52047,29.24908 1.41421,38.18376 3.12941,3.12941 0.42293,11.52518 5.65686,14.14214 1.9477,0.97385 10.46806,-9.05385 11.31371,-9.89949 3.6457,-3.64571 10.51144,10.70175 12.72792,8.48528 9.42368,-9.42368 10.65299,-38.93726 16.97056,-45.25484 3.31058,-3.31057 -1.51267,-18.58168 -2.82843,-21.2132 -0.20013,-0.40028 2.82843,-32.64367 2.82843,-39.59798 0,-6.54997 0.60793,-20.40692 4.24264,-24.04163 0.70566,-0.70566 0,-5.96373 0,-7.07107 0,-7.25526 0.63462,-49.64245 -1.41421,-53.74011 -3.41733,-6.83467 -2.36569,-27.82153 -5.65686,-31.1127 -7.94483,-7.94483 -9.44143,-29.73853 -14.14213,-43.84062 -10.78696,-32.36089 -20.26186,-64.08968 -32.52691,-94.75231 z"
       id="path3161"
       inkscape:connector-curvature="0" />
    <path
       style="fill:#e7a43a;fill-opacity:1;stroke:#ffffff;stroke-width:1px;stroke-linecap:butt;stroke-linejoin:miter;stroke-opacity:0"
       d="m 478.00418,763.72048 c 2.78444,-5.59942 5.89295,-10.60777 7.77818,-16.26346 3.39725,-10.19174 0.52321,-45.62261 -4.24264,-55.15432 -0.56332,-1.12664 -0.99303,-18.23413 -0.70711,-19.09189 0.82361,-2.47081 2.35618,-5.41946 3.53554,-7.77817 0.74535,-1.49071 -2.37378,-4.94975 -0.70711,-4.94975 0.47602,0 -1.48816,0.70711 -2.12132,0.70711 0.89706,5.55151 -1.96841,43.99353 0,45.96194 2.39936,2.39936 5.37468,28.56644 2.12132,31.8198 -1.58715,1.58715 1.04416,7.81118 0,9.8995 -2.26421,4.52841 -5.65685,10.27372 -5.65686,14.84924 z"
       id="path4328"
       inkscape:connector-curvature="0" />
    <path
       style="fill:#f7dbae;fill-opacity:1;stroke:#000000;stroke-width:1.21830726px;stroke-linecap:butt;stroke-linejoin:miter;stroke-opacity:1"
       d="m 525.5,388.92395 c -1.97158,9.7e-4 -3.73461,0.0312 -5.0625,0.0312 -9.67664,0 -18.02749,2.11046 -24.96875,5.625 -3.37023,0.94585 -6.83283,2.46219 -10.4375,4.625 -11.14813,1.21582 -34.8125,40.48949 -34.8125,71.375 0,14.22981 2.69891,37.11085 10.4375,48.71875 2.71868,4.078 3.04703,9.59406 5.21875,13.9375 4.527,9.05401 12.58788,14.30662 19.15625,20.875 6.81045,6.81044 13.99046,5.84058 22.625,8.71875 45.52481,15.17495 67.22822,-31.15341 78.3125,-64.40625 1.20742,-3.62224 -0.38452,-7.70654 -1.75,-10.4375 -1.63169,-3.26339 -1.88356,-8.54341 -2.25,-14.0625 -6.8e-4,-0.0103 6.9e-4,-0.0209 0,-0.0312 0.84555,-15.01663 -1.15499,-31.05871 -4.96875,-42.5 -2.47201,-7.41603 -9.24354,-14.26833 -12.71875,-21.21875 -3.76258,-7.52517 -17.62587,-13.40713 -22.625,-18.40625 -2.55494,-2.55494 -10.24152,-2.84667 -16.15625,-2.84375 z"
       id="path3015"
       inkscape:connector-curvature="0" />
    <path
       style="fill:#f8e1bc;fill-opacity:1;stroke:#ffffff;stroke-width:1px;stroke-linecap:butt;stroke-linejoin:miter;stroke-opacity:0"
       d="m 477.29708,446.93664 c -0.90934,-1.79432 -1.78197,2.65875 -6.36396,4.94975 -7.96147,3.98073 -15.54194,21.22762 -9.19239,27.57716 8.24711,8.24712 48.94373,-3.84225 54.44722,-14.84924 1.12066,-2.24133 1.79915,-7.00831 0.70711,-9.19239 -1.67392,-3.34783 -0.75092,-8.26418 -5.65686,-9.89949 -3.26519,-1.0884 -28.26961,-3.55019 -29.69848,-2.12132 -1.65487,1.65487 0.24731,0.84156 -4.24264,3.53553 z"
       id="path4263"
       inkscape:connector-curvature="0" />
    <path
       sodipodi:type="inkscape:offset"
       inkscape:radius="-2.8240085"
       inkscape:original="M 525.5 66.65625 C 523.52842 66.657225 521.76539 66.6875 520.4375 66.6875 C 518.01834 66.6875 515.68963 66.80973 513.4375 67.0625 C 511.18537 67.31527 509.01997 67.704034 506.9375 68.1875 C 504.85503 68.670966 502.8477 69.245412 500.9375 69.9375 C 499.0273 70.629588 497.20407 71.433865 495.46875 72.3125 C 493.78364 72.785424 492.08126 73.388582 490.34375 74.15625 C 488.60624 74.923918 486.83359 75.856096 485.03125 76.9375 C 484.33449 77.01349 483.59821 77.231774 482.8125 77.59375 C 482.02679 77.955726 481.20074 78.468465 480.34375 79.09375 C 478.85657 80.178839 477.22284 81.777879 475.59375 83.5625 L 463.875 107.6875 C 463.01634 106.83489 462.03042 106.64474 461 106.71875 C 460.09285 108.63814 459.11172 110.45854 458.28125 112.46875 C 456.6987 116.29939 455.29011 120.29041 454.09375 124.3125 C 452.89739 128.33459 451.91885 132.4054 451.25 136.4375 C 451.03927 137.70787 450.93039 138.95923 450.78125 140.21875 C 451.16216 139.32719 451.53807 138.39943 451.84375 138.09375 C 452.90372 137.03379 456.18444 136.59681 457.5 135.28125 C 461.1392 131.64205 465.88927 127.52412 471.625 124.65625 C 474.79807 123.06972 476.65553 118.25072 478.71875 116.1875 C 480.3629 114.54335 493.27898 110.67301 496.375 109.125 C 510.04703 102.28899 516.1202 96.375 533.15625 96.375 C 552.58036 96.375 554.61549 100.86549 564.28125 110.53125 C 565.14904 111.39903 564.93861 113.97099 565.6875 115.46875 C 567.76753 119.62882 566.35809 137.34118 568.5 141.625 C 570.56854 145.76208 567.48028 158.29278 570.625 161.4375 C 572.29124 163.10374 574.9831 162.84375 578.40625 162.84375 C 579.62927 162.84375 581.51208 162.75905 583.1875 162.71875 C 582.94958 161.72608 582.77269 160.6731 582.625 159.53125 C 582.31227 157.11344 582.15197 154.4158 581.96875 151.65625 C 581.96807 151.64595 581.96944 151.6353 581.96875 151.625 C 582.18014 147.87084 582.22199 144.04443 582.09375 140.25 C 581.96551 136.45557 581.65433 132.69013 581.21875 129.03125 C 580.78317 125.37237 580.21065 121.81626 579.5 118.46875 C 578.78935 115.12124 577.95344 111.98532 577 109.125 C 576.382 107.27099 575.50551 105.45013 574.46875 103.65625 C 573.43199 101.86237 572.24939 100.09819 571.03125 98.34375 C 569.81311 96.58931 568.53716 94.860682 567.375 93.125 C 566.21284 91.389318 565.15005 89.643856 564.28125 87.90625 C 563.81093 86.965604 563.18643 86.047031 562.4375 85.15625 C 561.68857 84.265469 560.82845 83.406386 559.875 82.5625 C 557.96809 80.874728 555.71802 79.268013 553.4375 77.75 C 551.15698 76.231987 548.84273 74.809516 546.78125 73.4375 C 544.71977 72.065484 542.90603 70.749781 541.65625 69.5 C 541.01752 68.861264 540.04732 68.355343 538.875 67.96875 C 537.70268 67.582157 536.33393 67.320968 534.84375 67.125 C 531.8634 66.733065 528.45736 66.654788 525.5 66.65625 z "
       style="fill:#f5d095;fill-opacity:1;stroke:#ffffff;stroke-width:1px;stroke-linecap:butt;stroke-linejoin:miter;stroke-opacity:0"
       id="path4236"
       d="m 525.5,69.46875 c -1.9435,9.61e-4 -3.69169,0.03125 -5.0625,0.03125 -2.32404,0 -4.54952,0.135041 -6.6875,0.375 -2.13257,0.239352 -4.20025,0.60114 -6.1875,1.0625 -1.99187,0.462432 -3.87124,1.009519 -5.65625,1.65625 -1.79249,0.649441 -3.51251,1.417733 -5.15625,2.25 a 2.8242909,2.8242909 0 0 1 -0.53125,0.1875 c -1.56008,0.437835 -3.10479,1.005668 -4.71875,1.71875 -1.61397,0.713083 -3.31546,1.564276 -5.03125,2.59375 a 2.8242909,2.8242909 0 0 1 -1.125,0.40625 c -0.33048,0.03604 -0.77512,0.144284 -1.34375,0.40625 -0.54842,0.252655 -1.24721,0.669491 -2,1.21875 -1.16135,0.847357 -2.63451,2.29107 -4.125,3.90625 l -11.46875,23.625 a 2.8242909,2.8242909 0 0 1 -3.90625,1.25 c -0.55691,1.13019 -1.134,2.29339 -1.59375,3.40625 -1.54404,3.73743 -2.92454,7.6317 -4.09375,11.5625 -0.83953,2.82243 -1.4174,5.64789 -2,8.46875 0.19255,-0.0977 0.71014,-0.33514 0.6875,-0.3125 3.75482,-3.75482 8.72992,-8.08371 14.875,-11.15625 0.76072,-0.38036 1.83402,-1.54845 2.875,-3.09375 1.04098,-1.5453 1.95942,-3.33442 3.46875,-4.84375 1.32657,-1.32657 2.35997,-1.53315 3.9375,-2.1875 1.57753,-0.65435 3.47966,-1.34229 5.40625,-2.03125 3.85318,-1.37792 8.07747,-2.88248 9.0625,-3.375 6.69426,-3.34713 11.61216,-6.5446 17.25,-9 5.63784,-2.455398 11.93644,-4.03125 20.78125,-4.03125 9.92967,0 15.879,1.161281 20.59375,3.8125 4.71475,2.65122 7.78291,6.40791 12.53125,11.15625 1.50101,1.50099 1.37334,2.78963 1.53125,3.78125 0.15791,0.99162 0.36829,1.83033 0.40625,1.90625 0.93554,1.87108 1.10896,3.82172 1.3125,6.25 0.20354,2.42828 0.28735,5.19695 0.375,7.9375 0.0877,2.74055 0.15243,5.44675 0.34375,7.65625 0.19132,2.2095 0.6493,4.0486 0.78125,4.3125 0.89785,1.79571 1.00759,3.59933 1.0625,5.5625 0.0549,1.96317 -0.0657,4.07147 -0.125,6.0625 -0.0593,1.99103 -0.0616,3.86965 0.0937,5.28125 0.15531,1.4116 0.60281,2.19656 0.5625,2.15625 0.24352,0.24352 0.55029,0.42389 1.53125,0.53125 0.98096,0.10736 2.46693,0.0625 4.25,0.0625 0.33281,0 0.98265,-0.0194 1.4375,-0.0312 -0.004,-0.0334 -0.0269,-0.0602 -0.0312,-0.0937 -0.33126,-2.56108 -0.47388,-5.3157 -0.65625,-8.0625 -0.0255,-0.38677 -0.0246,-0.39922 0,-0.0312 a 2.8242909,2.8242909 0 0 1 0,-0.34375 c 0.20651,-3.66751 0.25037,-7.41535 0.125,-11.125 -0.12516,-3.70333 -0.44764,-7.37893 -0.875,-10.96875 -0.42663,-3.58373 -0.96599,-7.06102 -1.65625,-10.3125 -0.69163,-3.25792 -1.52329,-6.28861 -2.4375,-9.03125 -0.5401,-1.62031 -1.31372,-3.29466 -2.28125,-4.96875 -0.97259,-1.68285 -2.11183,-3.36447 -3.3125,-5.09375 -1.18687,-1.709399 -2.47596,-3.471816 -3.6875,-5.28125 -1.20629,-1.801596 -2.33877,-3.646292 -3.28125,-5.53125 -0.35201,-0.704033 -0.83759,-1.436796 -1.46875,-2.1875 -0.63909,-0.76014 -1.40889,-1.509134 -2.28125,-2.28125 -1.7474,-1.54659 -3.89637,-3.11028 -6.125,-4.59375 -2.22433,-1.48061 -4.53272,-2.899184 -6.65625,-4.3125 -2.11868,-1.410088 -4.04747,-2.766217 -5.5625,-4.28125 -0.1549,-0.1549 -0.73976,-0.541521 -1.65625,-0.84375 -0.91072,-0.300324 -2.14104,-0.535929 -3.53125,-0.71875 -2.75278,-0.362008 -6.06229,-0.470187 -8.96875,-0.46875 z"
       transform="translate(0,322.2677)" />
    <path
       style="fill:#ffffff;stroke:#000000;stroke-width:1px;stroke-linecap:butt;stroke-linejoin:miter;stroke-opacity:1"
       d="m 481.53972,477.34223 c 0.55684,-1.89282 -9.1536,7.50221 -7.42463,10.96016 1.65767,3.31533 5.52503,4.59619 9.54595,4.59619 2.58313,0 5.61969,0.0186 7.77817,-1.06066 3.82632,-1.91316 8.39816,-8.21885 4.24264,-12.37437 -1.33926,-1.33926 -3.81633,-2.43849 -6.01041,-3.53553 -0.4714,-0.2357 -1.29636,0.2357 -1.76776,0 -2.24385,-1.12192 -4.72518,-0.22457 -6.36396,1.41421 z"
       id="path3978"
       inkscape:connector-curvature="0" />
    <path
       style="fill:#b53c20;fill-opacity:1;stroke:#000000;stroke-width:1px;stroke-linecap:butt;stroke-linejoin:miter;stroke-opacity:1"
       d="m 462.44783,545.93159 c 4.87833,9.75665 -4.47606,8.25186 5.65686,18.38478 3.4671,3.4671 -4.52773,9.61441 -1.41421,12.72792 7.26205,7.26206 0.13017,8.74564 4.24264,16.97056 1.74045,3.4809 5.62067,5.62068 7.07106,7.07107 5.36256,5.36256 -1.81728,18.99286 1.41422,25.45584 1.20514,2.41029 3.00347,4.41769 4.24264,5.65686 2.91363,2.91363 -4.32785,9.81429 -1.41422,12.72792 1.93747,1.93747 2.82843,3.00625 2.82843,7.07107 0,14.14913 0.61274,24.65437 8.48528,32.52691 0.92945,0.92944 -0.0559,14.14214 1.41422,14.14214 14.70455,0 12.92909,-46.66905 26.87005,-46.66905 0.5453,0 1.90997,15.13363 2.82843,16.97056 2.66457,5.32914 4.72174,3.30753 8.48528,7.07107 1.08512,1.08512 1.9623,17.83669 7.07107,12.72792 6.58583,-6.58582 2.02967,-19.61569 7.07107,-29.69848 2.97828,-5.95657 9.16638,-6.33796 12.72792,-9.8995 2.55455,-2.55455 3.84417,-11.93098 5.65685,-15.55635 2.83146,-5.6629 -6.18459,-24.40036 -1.41421,-33.94112 3.09704,-6.19408 5.16871,-13.65399 8.48528,-16.97057 1.87554,-1.87554 1.36573,-19.70202 4.24264,-25.45584 2.30484,-4.60968 -0.91903,-12.30407 1.41422,-16.97056 4.51867,-9.03735 8.48528,-22.88481 8.48528,-32.52691 0,-8.85786 0.12834,-45.25484 -8.48528,-45.25484 -0.60938,0 -5.15452,15.05401 -9.8995,19.79899 -1.41421,1.41421 1.41422,7.07107 0,8.48528 -2.64377,2.64377 -7.25572,1.59887 -9.89949,4.24264 -0.59643,0.59643 -7.07107,20.63749 -7.07107,22.62742 0,4.96944 7.0449,9.95183 4.24264,15.55635 -0.95221,1.90442 -15.99566,14.36179 -18.38478,15.55635 -3.32622,1.66311 -7.55645,-0.92883 -9.89949,1.41421 -0.66637,0.66637 -4.47412,4.83401 -5.65686,4.24264 -4.93985,-2.46992 -4.38547,-4.38547 -7.07106,-7.07106 -2.02114,-2.02114 -8.12901,1.59234 -8.48528,1.41421 -6.93154,-3.46577 -16.49691,-11.78062 -19.79899,-18.38478 -6.34043,-12.68084 -11.01014,-16.66699 -21.21321,-26.87006 -1.17851,-1.17851 -0.2357,-4.47834 -1.41421,-5.65685 -2.38746,-2.38746 -8.13601,-2.47916 -9.8995,-4.24264 -3.14007,-3.14007 3.31854,-9.40939 -1.41421,-14.14214 -7.78953,-7.78952 -4.88317,20.19848 -8.48528,-1.41421 4.82167,23.934 9.86212,47.64923 18.38477,67.88225 z"
       id="path3127"
       inkscape:connector-curvature="0"
       sodipodi:nodetypes="csssssssssssssssssssssssssssssssscssssscc" />
    <path
       style="fill:#da911b;fill-opacity:1;stroke:#000000;stroke-width:1px;stroke-linecap:butt;stroke-linejoin:miter;stroke-opacity:1"
       d="m 449.71991,461.07878 c -0.82778,-9.6918 21.10577,-21.10577 33.94113,-33.94113 4.91281,-4.91281 14.5946,-6.10932 18.38477,-9.89949 3.36671,-3.36671 16.465,-3.28275 21.21321,-5.65686 5.90046,-2.95023 41.54479,0.88161 43.84062,-1.41421 5.25438,-5.25438 -22.49925,-16.8424 -24.04163,-18.38478 -4.05033,-4.05033 -11.41596,-2.17244 -15.55635,-4.24264 -23.63102,-11.81551 -53.55098,2.63929 -67.88225,16.97056 -5.69196,5.69196 -6.54709,17.8608 -11.31371,22.62742 -1.17851,1.17851 1.17851,5.89256 0,7.07107 -5.48748,5.48748 -2.79992,19.8465 1.41421,26.87006 z"
       id="path3142"
       inkscape:connector-curvature="0" />
    <path
       style="fill:#e7a43a;fill-opacity:1;stroke:#ffffff;stroke-width:1px;stroke-linecap:butt;stroke-linejoin:miter;stroke-opacity:0"
       d="m 461.03362,410.16709 c 3.61913,-0.88144 6.99946,-1.37841 9.8995,-2.82843 13.92249,-6.96124 27.4668,-11.81645 42.4264,-15.55635 6.57157,-1.64289 14.97924,0.99567 19.79899,-1.41421 -4.21892,0.84378 -9.01921,2.65525 -11.31371,4.94975 -2.7011,2.7011 -9.07021,-1.5364 -11.3137,0.7071 -1.97106,1.97106 -16.11235,2.67732 -16.97057,3.53554 -1.24108,1.24108 -20.80085,8.2791 -25.45584,10.6066 -1.86716,0.93358 -5.31448,-1.12836 -7.07107,0 z"
       id="path3146"
       inkscape:connector-curvature="0" />
    <path
       style="fill:#6c5353;stroke:#000000;stroke-width:1px;stroke-linecap:butt;stroke-linejoin:miter;stroke-opacity:1"
       d="M 550.5625,456.29895 C 516.12434,456.9613 443.06164,474.5248 447,477.36145 c -6.39805,3.2687 3.34771,6.56306 15,1.5 0.70423,-0.30599 1.29302,-1.0007 2.1875,-1.40625 -0.29917,2.99654 0.43369,5.64864 1.8125,8.40625 0.5817,1.1634 -0.86576,4.13424 0,5 2.29064,2.29064 4.09987,8.54994 9,11 10.63336,5.31668 36,0.15027 36,-16 0,-3.55971 -0.11729,-13.67437 -2.15625,-17.5 3.69721,-1.35971 7.61156,-2.42599 11.625,-3.21875 -0.66976,0.75136 -1.20027,1.38316 -1.46875,1.71875 -0.0212,11.74273 4.4529,21.22645 14,26 12.31301,6.15651 26.34138,-0.34138 34,-8 2.67885,-2.67885 5.15018,-15.2001 4.46875,-22.40625 4.54784,0.38088 8.4482,1.3232 10.53125,3.40625 0.60389,0.60389 5.05168,0 6,0 0.11689,0 0.25807,0.0413 0.40625,0.0937 C 588.18491,465.54165 588,465.10878 588,464.86145 c 0,-0.1306 -2.01741,-4.50942 -2.875,-7.75 -1.1351,-0.0581 -2.34278,-0.0745 -3.59375,-0.0625 -4.03485,0.0387 -8.39428,0.36479 -11.90625,0.59375 -0.22354,-0.0604 -0.48488,-0.0216 -0.75,0.0625 -1.51245,0.0945 -2.88904,0.15625 -3.875,0.15625 -2.99278,-1.23825 -8.06006,-1.68516 -14.4375,-1.5625 z m 11.34375,5.96875 c 0.80512,1.94878 1.87,4.37 2.09375,4.59375 1.5879,1.5879 -0.37522,13.37522 -1,14 -3.11907,3.11907 -18.00715,11.99285 -24,6 -0.5,-0.5 -2.5,0.5 -3,0 -2.5,-2.5 -4.5,-5.5 -7,-8 -1.90322,-1.90322 -0.15436,-9.15436 -2,-11 -0.21275,-0.21275 -0.15175,-1.96466 -0.0625,-3.75 6.99732,-0.92931 14.16004,-1.25 21.0625,-1.25 3.53963,0 8.65363,-0.43285 13.90625,-0.59375 z m -65.84375,8.1875 c 0.90303,-0.0846 2.13744,0.14552 3.34375,0.34375 0.92995,5.42588 2.91861,16.73764 0.59375,19.0625 -0.43427,0.43427 -12.10564,14.89436 -18,9 -2.87097,-2.87097 -5.12903,-8.12902 -8,-11 -0.47767,-0.47767 -0.53646,-5.07292 -1,-6 -0.74371,-1.48743 -0.41872,-4.06275 -0.21875,-6.5 8.60951,-1.22913 19.26133,-1.54258 22.21875,-4.5 0.24034,-0.24034 0.60526,-0.36343 1.0625,-0.40625 z"
       id="path3178"
       inkscape:connector-curvature="0" />
    <path
       style="fill:none;stroke:#000000;stroke-width:1px;stroke-linecap:butt;stroke-linejoin:miter;stroke-opacity:1"
       d="m 511,498.36218 c 2.64393,3.20227 -6.17298,-0.85889 -2,9 0.98331,1.96662 8.20114,10.79886 13,6 1.33333,-1.33333 1.66667,-3.66666 3,-5 1.83333,-1.83333 7.16667,-0.16666 9,-2 4.153,-4.153 -0.1129,-11.94355 -4,-10"
       id="path3197"
       inkscape:connector-curvature="0"
       sodipodi:nodetypes="ccsssc" />
    <path
       style="fill:none;stroke:#000000;stroke-width:1px;stroke-linecap:butt;stroke-linejoin:miter;stroke-opacity:1"
       d="m 496,534.36218 c 5.06536,4.15111 11.3499,0.58748 17,2 14.20764,3.55191 28.06392,-4.06392 36,-12 0.41905,-0.41905 0.63863,-4.27726 1,-5"
       id="path3199"
       inkscape:connector-curvature="0" />
    <path
       style="fill:#b53c20;fill-opacity:1;stroke:#000000;stroke-width:1px;stroke-linecap:butt;stroke-linejoin:miter;stroke-opacity:1"
       d="m 513.0625,517.1427 c -0.62163,0.0351 -0.99398,0.10456 -1.0625,0.21875 -0.92355,1.53925 -1.33333,3.33334 -2,5 0.62575,0 1.16074,0.0268 1.625,0.0625 -0.86549,0.36663 -1.88597,0.36544 -2.96875,0.875 0.59449,-0.54429 1.11739,-0.9375 1.34375,-0.9375 l -5,0 c -0.3441,0 -10.07142,6.92858 -9,8 2.43186,2.43187 6.86171,-1.43728 10.125,-4.59375 -0.2059,0.3274 -0.41953,0.68282 -0.625,1.09375 -0.35885,0.7177 -4.52319,4.47681 -4,5 0.73313,0.73313 5.27091,-3.04182 5.5,-3.5 1.06714,-2.13428 3.76513,-2.75644 6.09375,-3.28125 -1.17394,1.20711 -2.84902,2.52598 -2.09375,3.28125 2.32385,2.32385 10.34112,-4.34112 11,-5 0.86438,-0.86438 2.75128,1 4,1 1.95672,0 13.39406,-3.98793 18.03125,-4.96875 -0.73429,-0.34392 -1.52,-0.77562 -2.03125,-1.03125 -1.69474,-0.84737 -6.0633,0 -8,0 -0.59965,0 -16.58608,-1.46449 -20.9375,-1.21875 z m 30.96875,2.25 c 1.03127,0.48302 1.96875,0.77152 1.96875,-0.0312 0,-0.27156 -0.76603,-0.22314 -1.96875,0.0312 z"
       id="path3201"
       inkscape:connector-curvature="0" />
    <path
       style="fill:#ffffff;stroke:#000000;stroke-width:1px;stroke-linecap:butt;stroke-linejoin:miter;stroke-opacity:1"
       d="m 540.58313,466.02852 c 1.70208,-0.95315 -3.92389,1.09546 -5.3033,2.47488 -5.82885,5.82885 -4.17746,11.21758 3.53553,13.78858 1.9074,0.6358 10.17163,-2.25739 12.02082,-3.18198 1.90563,-0.95282 4.00839,-2.71349 4.94975,-4.5962 0.29226,-0.58452 0.72866,-0.39666 1.06066,-1.06066 3.43335,-6.86671 -12.16689,-8.24393 -16.26346,-7.42462 z"
       id="path3980"
       inkscape:connector-curvature="0" />
    <path
       style="fill:#483737;stroke:#000000;stroke-width:1px;stroke-linecap:butt;stroke-linejoin:miter;stroke-opacity:1"
       d="m 541.29024,468.85695 c -4.08044,2.20939 3.08084,-2.81822 -1.76777,1.06066 -3.22735,2.58189 0.77568,8.80455 4.94975,6.71752 0.39708,-0.19854 1.85113,-0.0834 2.12132,-0.35356 0.66732,-0.66732 2.06751,-2.42106 2.82843,-3.18198 0.33185,-0.33185 -0.26713,-0.88781 -0.35355,-1.06066 -1.88813,-3.77625 -3.78841,-4.17942 -7.77818,-3.18198 z"
       id="path3982"
       inkscape:connector-curvature="0" />
    <path
       style="fill:#483737;stroke:#000000;stroke-width:1px;stroke-linecap:butt;stroke-linejoin:miter;stroke-opacity:1"
       d="m 484.7217,481.23132 c -4.33915,2.1139 3.35604,-2.36717 -1.76777,0.70711 -0.0524,0.0314 -0.22967,1.29033 -0.35355,1.41421 -2.70318,2.70318 3.72879,7.58492 6.36396,4.94975 3.86166,-3.86166 0.0852,-8.8022 -4.24264,-7.07107 z"
       id="path3984"
       inkscape:connector-curvature="0" />
    <path
       style="fill:none;stroke:#000000;stroke-width:1px;stroke-linecap:butt;stroke-linejoin:miter;stroke-opacity:1"
       d="m 446.5,931.36218 c 2.40586,-0.89805 -9.5,-15.02148 -9.5,-21"
       id="path4016"
       inkscape:connector-curvature="0" />
    <path
       style="fill:none;stroke:#000000;stroke-width:1px;stroke-linecap:butt;stroke-linejoin:miter;stroke-opacity:1"
       d="m 461.5,931.86218 c -1.51691,-0.65634 -7.9695,-10.43901 -11.5,-17.5 -1.1918,-2.3836 0.88178,-5.11822 -1,-7"
       id="path4018"
       inkscape:connector-curvature="0" />
    <path
       style="fill:none;stroke:#000000;stroke-width:1px;stroke-linecap:butt;stroke-linejoin:miter;stroke-opacity:1"
       d="m 466.5,920.86218 c -3.64628,-4.90733 -9.5,-12.89266 -9.5,-18.5"
       id="path4020"
       inkscape:connector-curvature="0" />
    <path
       style="fill:#f7dbae;fill-opacity:1;stroke:#000000;stroke-width:1px;stroke-linecap:butt;stroke-linejoin:miter;stroke-opacity:1"
       d="m 836.35323,625.84114 c -1.9629,-0.17347 4.55782,17.4798 10.77108,16.25527 6.19529,-1.22099 0.91722,-11.80199 0.72917,-12.75611 -0.24975,-1.26723 -0.2629,-3.16345 -0.54185,-4.57781"
       id="path4040"
       inkscape:connector-curvature="0" />
    <path
       style="fill:none;stroke:#000000;stroke-width:1px;stroke-linecap:butt;stroke-linejoin:miter;stroke-opacity:1"
       d="m 446.75,483.9552 c -0.54717,-0.3144 -1.04931,-0.64309 -1.625,-0.9375 0.20192,0.85544 0.54607,3.06774 0.6875,3.28125 0.17789,0.26856 0.32623,0.10394 0.46875,-0.34375 0.14252,-0.44769 0.29441,-1.16957 0.46875,-2 z"
       id="path4092"
       inkscape:connector-curvature="0" />
    <path
       style="fill:none;stroke:#000000;stroke-width:1px;stroke-linecap:butt;stroke-linejoin:miter;stroke-opacity:1"
       d="m 454.34375,493.79895 c 0.0447,-1.30723 0.15918,-2.65039 -0.375,-3.71875 -0.11734,-0.23468 -0.42148,-0.50366 -0.59375,-0.75 -0.0997,0.46406 -0.2461,0.97529 -0.28125,1.40625 -0.045,0.55164 -0.0394,1.08132 0.0937,1.5625 0.13316,0.48118 0.38874,0.91999 0.78125,1.3125 0.0836,0.0836 0.27429,0.111 0.375,0.1875 z"
       id="path4090"
       inkscape:connector-curvature="0" />
    <path
       sodipodi:type="inkscape:offset"
       inkscape:radius="-1.5847113"
       inkscape:original="M 521.65625 614.40625 C 519.48605 614.30884 517.87492 615.93736 518.1875 620.46875 C 521.40568 627.44894 521.77505 634.5748 522.5625 641.5625 C 522.98107 649.8813 524.19503 659.01091 533.15625 662.0625 C 534.16395 666.68795 536.34034 681.94656 542.21875 672.03125 C 545.25789 665.50294 543.75486 658.06745 545.375 651.21875 C 542.63518 649.65649 536.44373 649.96986 540.9375 645.09375 C 538.84732 640.91496 538.77363 636.57794 538.78125 632.59375 C 530.43406 634.7199 537.5914 625.33447 531.03125 623.875 C 530.47076 619.53508 525.27325 614.5686 521.65625 614.40625 z "
       style="fill:#cc5124;fill-opacity:1;stroke:#ffffff;stroke-width:1px;stroke-linecap:butt;stroke-linejoin:miter;stroke-opacity:0"
       id="path4188"
       d="m 521.59375,616 c -0.67236,-0.0302 -0.93829,0.0432 -1.28125,0.5625 -0.3344,0.50628 -0.6468,1.71504 -0.53125,3.6875 3.18733,7.16638 3.57908,14.33946 4.34375,21.125 a 1.5848698,1.5848698 0 0 1 0.0312,0.0937 c 0.20688,4.11167 0.614,8.31922 1.96875,11.71875 1.35475,3.39953 3.48647,5.99762 7.53125,7.375 a 1.5848698,1.5848698 0 0 1 1.0625,1.15625 c 0.53049,2.435 1.35027,7.33381 2.59375,10.125 0.31087,0.6978 0.63774,1.25737 0.90625,1.5625 0.26851,0.30513 0.39658,0.3115 0.40625,0.3125 0.01,10e-4 0.12009,0.0631 0.53125,-0.28125 0.4047,-0.33895 0.99094,-1.07453 1.65625,-2.1875 0.005,-0.0118 0.0259,-0.0194 0.0312,-0.0312 2.49315,-5.51879 1.52707,-12.19955 2.78125,-18.96875 -0.39568,-0.14574 -0.69639,-0.29135 -1.1875,-0.4375 -0.89002,-0.26487 -1.84167,-0.5346 -2.75,-1.03125 -0.90833,-0.49665 -1.95496,-1.53629 -1.9375,-2.90625 0.0137,-1.07818 0.60327,-2.02744 1.40625,-3.03125 -1.56774,-3.62164 -1.83614,-7.1949 -1.875,-10.5 -0.34791,0.0235 -0.77115,0.15433 -1.09375,0.125 -0.88489,-0.0805 -1.75398,-0.41182 -2.34375,-1 -1.17954,-1.17637 -1.14864,-2.65676 -1.1875,-3.84375 -0.0389,-1.18699 -0.073,-2.2779 -0.3125,-2.9375 -0.2395,-0.6596 -0.42729,-0.97659 -1.65625,-1.25 a 1.5848698,1.5848698 0 0 1 -1.21875,-1.375 c -0.21038,-1.629 -1.4595,-3.75614 -3.09375,-5.375 -1.63425,-1.61886 -3.66191,-2.63726 -4.78125,-2.6875 z"
       transform="translate(0,14)" />
    <path
       style="fill:none;stroke:#000000;stroke-width:1px;stroke-linecap:butt;stroke-linejoin:miter;stroke-opacity:1"
       d="m 446.34375,485.73645 c -0.20281,0.10928 -0.36313,0.15305 -0.59375,0.28125 0.0125,0.0225 0.0503,0.2629 0.0625,0.28125 0.17789,0.26856 0.32623,0.10394 0.46875,-0.34375 0.0158,-0.0495 0.0467,-0.16273 0.0625,-0.21875 z"
       id="path4134"
       inkscape:connector-curvature="0" />
    <path
       style="fill:none;stroke:#000000;stroke-width:1px;stroke-linecap:butt;stroke-linejoin:miter;stroke-opacity:1"
       d="m 447.0625,482.5802 c -0.79007,-0.73147 -1.57615,-1.39548 -2.4375,-1.9375 0.45992,2.45622 0.94368,5.28816 1.1875,5.65625 0.17789,0.26856 0.32623,0.10394 0.46875,-0.34375 0.14252,-0.44769 0.29441,-1.16957 0.46875,-2 0.0901,-0.4291 0.20031,-0.91124 0.3125,-1.375 z"
       id="path4169"
       inkscape:connector-curvature="0" />
    <path
       sodipodi:type="inkscape:offset"
       inkscape:radius="-1.7189813"
       inkscape:original="M 444.59375 466.65625 C 449.30051 489.88373 454.33288 513.2554 463.6875 535.125 C 462.64619 541.52123 463.81386 547.27766 468.90625 551.75 C 467.50462 557.49345 463.979 562.91235 469.84375 567.625 C 467.20155 576.95359 473.42871 583.62123 479.46875 589.46875 C 481.95982 598.51059 474.34011 609.74568 482.65625 617.125 C 487.77408 621.96752 477.06784 629.16676 484.375 633.6875 C 485.99285 643.11671 484.14249 653.26179 488.09375 662.34375 C 490.53965 667.80729 495.77065 671.71122 494.09375 678.375 C 498.31294 669.50645 502.66242 659.93099 499.25 649.9375 C 494.77472 641.33785 498.26713 632.488 502.125 624.4375 C 505.48481 618.12512 493.7839 613.72601 501.09375 607.9375 C 509.42381 599.9926 495.22218 591.70262 501.21875 584.40625 C 506.59295 579.16319 506.07514 572.02986 498 570.53125 C 487.45623 568.25389 497.7321 554.84039 489.8125 550.78125 C 483.00987 548.77859 474.77547 546.82647 477.125 537.78125 C 471.417 531.37317 464.99798 524.53309 467.15625 515.15625 C 468.95719 506.26256 456.80684 504.10233 457.40625 496.15625 C 455.13082 489.81562 449.93755 483.86576 450.25 476.5 C 449.87841 473.71214 449.49907 470.39906 447.0625 468.59375 C 446.41644 475.21839 444.90147 470.3012 444.59375 466.65625 z "
       style="fill:#cc5124;fill-opacity:1;stroke:#ffffff;stroke-width:1px;stroke-linecap:butt;stroke-linejoin:miter;stroke-opacity:0"
       id="path4186"
       d="m 447.75,472.6875 c -0.0224,0.0327 -0.0684,0.0606 -0.0937,0.0937 0.34417,1.66529 0.67863,3.33646 1.03125,5 -0.0135,-0.36493 -0.13452,-0.68949 -0.125,-1.0625 l -0.0312,0 c -0.19269,-1.44565 -0.39361,-2.83032 -0.78125,-4.03125 z m 2.40625,12 c 3.78589,17.01727 8.30363,33.80274 15.125,49.75 a 1.7191532,1.7191532 0 0 1 0.0937,0.96875 c -0.98228,6.03363 0.0155,10.98678 4.65625,15.0625 a 1.7191532,1.7191532 0 0 1 0.53125,1.6875 c -0.75,3.07326 -1.94093,5.83922 -2.21875,8.125 -0.27782,2.28578 0.012,3.95054 2.5625,6 a 1.7191532,1.7191532 0 0 1 0.59375,1.8125 c -1.19534,4.22029 -0.41686,7.65849 1.40625,10.9375 1.82311,3.27901 4.75246,6.2855 7.75,9.1875 A 1.7191532,1.7191532 0 0 1 481.125,589 c 1.41317,5.12937 0.004,10.42646 -0.53125,15.125 -0.53546,4.69854 -0.42042,8.48954 3.21875,11.71875 a 1.7191532,1.7191532 0 0 1 0.0312,0.0312 c 1.65125,1.56242 2.11843,3.65534 1.90625,5.4375 -0.21218,1.78216 -0.89121,3.36819 -1.4375,4.8125 -0.54629,1.44431 -0.91051,2.73361 -0.84375,3.625 0.0668,0.89139 0.31902,1.54478 1.8125,2.46875 a 1.7191532,1.7191532 0 0 1 0.78125,1.1875 c 1.68954,9.84706 -0.0924,19.77748 3.59375,28.25 1.0986,2.45401 2.96209,4.73191 4.46875,7.40625 0.46099,0.81826 0.72794,1.79479 1.0625,2.71875 2.96153,-6.97407 4.90382,-14.05848 2.4375,-21.28125 -4.694,-9.28243 -0.92719,-18.74776 2.9375,-26.8125 a 1.7191532,1.7191532 0 0 1 0.0312,-0.0625 c 0.60661,-1.13969 0.55796,-1.93655 0.15625,-3.03125 -0.40171,-1.0947 -1.26022,-2.35055 -2.09375,-3.71875 -0.83353,-1.3682 -1.69516,-2.88877 -1.71875,-4.78125 -0.0231,-1.85088 1.0053,-3.74685 3,-5.375 l -0.0312,-0.0312 c 1.79795,-1.71481 2.20862,-3.10092 2.15625,-4.6875 -0.0524,-1.58658 -0.72992,-3.42226 -1.59375,-5.375 -0.86383,-1.95274 -1.8929,-4.02212 -2.3125,-6.28125 -0.4196,-2.25913 -0.0618,-4.82667 1.75,-7.03125 a 1.7191532,1.7191532 0 0 1 0.125,-0.125 c 2.38843,-2.33015 3.27387,-4.9213 2.9375,-6.8125 -0.33637,-1.8912 -1.7183,-3.49503 -5.28125,-4.15625 a 1.7191532,1.7191532 0 0 1 -0.0625,0 c -3.03264,-0.65502 -5.01539,-2.41726 -5.84375,-4.53125 -0.82836,-2.11399 -0.69574,-4.35289 -0.5625,-6.46875 0.13324,-2.11586 0.28931,-4.1609 0.0312,-5.6875 -0.25254,-1.49396 -0.72787,-2.39488 -2.15625,-3.15625 -3.3179,-0.96987 -7.10899,-1.95174 -10.0625,-4.0625 -1.50796,-1.07768 -2.81221,-2.5091 -3.5,-4.375 -0.59051,-1.60197 -0.57819,-3.51008 -0.1875,-5.59375 -2.70316,-3.02679 -5.59884,-6.2383 -7.65625,-9.9375 -2.18139,-3.92213 -3.38971,-8.46615 -2.21875,-13.59375 0.002,-0.0119 -0.002,-0.0194 0,-0.0312 0.36161,-1.82262 0.0592,-3.11869 -0.65625,-4.40625 -0.72011,-1.29596 -1.933,-2.54106 -3.28125,-3.84375 -1.34825,-1.30269 -2.82323,-2.6403 -4,-4.3125 -1.05131,-1.49393 -1.7259,-3.36571 -1.75,-5.46875 -0.003,-0.008 0.003,-0.0228 0,-0.0312 -1.33963,-3.71651 -3.92167,-7.62468 -5.625,-12.03125 z"
       transform="translate(0,14)" />
    <path
       style="fill:none;stroke:#000000;stroke-width:1px;stroke-linecap:butt;stroke-linejoin:miter;stroke-opacity:1"
       d="m 544,567.0177 c -0.17255,0.0169 -0.3716,0.0971 -0.5625,0.15625 0.1274,0.0167 0.22215,0.0139 0.3125,-0.0312 0.0713,-0.0357 0.17496,-0.0864 0.25,-0.125 z"
       id="path4200"
       inkscape:connector-curvature="0" />
    <path
       sodipodi:type="inkscape:offset"
       inkscape:radius="-1.6111268"
       inkscape:original="M 581 449.96875 C 579.5465 449.1562 581.37079 457.26539 578.65625 458.96875 C 575.73699 465.61487 583.60415 474.38199 575.21875 478.90625 C 568.43809 481.95142 567.47203 488.5191 570.1875 494.625 C 567.6753 498.20739 565.68976 501.15259 570.40625 504.625 C 578.08342 511.64091 568.44958 517.60275 563.5625 522.03125 C 562.16729 527.85959 563.754 534.61905 556.34375 536.90625 C 554.11789 541.75872 544.42183 538.97457 550.65625 545.25 C 553.03815 551.44066 539.05471 551.61158 547.3125 556.1875 C 552.78712 565.16116 539.29774 566.71662 533.15625 566.59375 C 527.55039 563.61946 519.99215 561.65886 515.5625 556.5 C 513.34001 550.32671 504.31349 550.41294 506.3125 558.1875 C 503.67119 566.8975 515.99509 569.47133 514.4375 577.5625 C 515.68449 585.74423 518.9489 594.34997 514.5625 602.5625 C 513.36429 605.48399 510.85435 616.3206 515.78125 609.21875 C 521.55833 604.20882 522.09803 596.82266 523.34375 589.84375 C 526.13122 585.38855 528.10664 574.2124 534.15625 575.71875 C 535.14424 580.22097 533.6832 587.08259 540.9375 585.6875 C 545.8474 587.7825 555.54253 596.60097 548.375 600.84375 C 545.59615 600.48691 535.53792 603.74717 538.59375 603.96875 C 541.86548 602.15761 539.34001 610.28607 543.3125 611.375 C 546.68761 617.49188 556.85441 618.9871 556.09375 626.84375 C 552.8743 630.73045 542.19498 631.34758 549 638.3125 L 549.84375 639.65625 L 550.71875 641.0625 C 557.30985 637.96734 563.30991 633.43718 563.75 625.46875 C 566.77961 619.02227 566.55337 612.07707 564.5 605.34375 C 562.80891 597.68379 561.44262 589.11373 565.9375 582.09375 C 567.74625 574.64812 574.2969 569.19689 574.15625 561.34375 C 574.64737 554.23761 575.26166 547.06395 577.78125 540.375 C 577.45235 533.60875 576.93232 526.70114 580.875 520.75 C 585.80127 508.8105 587.7784 495.83725 586.78125 482.96875 C 586.16909 472.22293 586.44651 460.858 581.84375 450.90625 C 581.47987 450.38139 581.20764 450.08483 581 449.96875 z M 542.5 553 C 541.68812 553.94787 545.05679 552.82012 542.5 553 z "
       style="fill:#a3361d;fill-opacity:1;stroke:#ffffff;stroke-width:1px;stroke-linecap:butt;stroke-linejoin:miter;stroke-opacity:0"
       id="path4214"
       d="m 581.6875,455.46875 c -0.056,0.54826 -0.0272,1.07924 -0.15625,1.625 -0.21901,0.92615 -0.70605,1.84093 -1.4375,2.59375 -1.0979,2.58996 -0.0778,6.06863 0.5,9.8125 0.29118,1.88685 0.42013,3.8334 -0.1875,5.78125 -0.60763,1.94785 -2.05713,3.74694 -4.4375,5.03125 a 1.6112879,1.6112879 0 0 1 -0.0937,0.0625 c -3.02154,1.35696 -4.55835,3.31829 -5.1875,5.65625 -0.62915,2.33796 -0.273,5.14534 0.96875,7.9375 A 1.6112879,1.6112879 0 0 1 571.5,495.5625 c -1.25149,1.78463 -2.17111,3.27654 -2.3125,4.3125 -0.14139,1.03596 0.0913,1.89423 2.1875,3.4375 a 1.6112879,1.6112879 0 0 1 0.125,0.125 c 2.12704,1.94383 3.2449,4.05691 3.375,6.15625 0.1301,2.09934 -0.71787,3.98399 -1.875,5.625 -2.20225,3.12317 -5.60603,5.60838 -7.9375,7.65625 -0.53358,2.55011 -0.53778,5.4566 -1.28125,8.3125 -0.74711,2.86988 -2.67419,5.62777 -6.4375,7 -1.7043,2.69674 -4.93463,3.32057 -6.46875,3.875 -0.27972,0.10109 -0.39422,0.14596 -0.53125,0.21875 0.0459,-0.12111 0.12905,0.49524 1.46875,1.84375 a 1.6112879,1.6112879 0 0 1 0.34375,0.53125 c 0.78608,2.04307 0.13171,4.09891 -0.96875,5.34375 -1.10046,1.24484 -2.4881,2.01874 -3.53125,2.6875 -0.52157,0.33438 -0.95012,0.62666 -1.1875,0.84375 -0.0913,0.0835 -0.0357,0.027 -0.0625,0.0625 0.22348,0.23929 0.76101,0.6741 1.6875,1.1875 a 1.6112879,1.6112879 0 0 1 0.59375,0.5625 c 1.53263,2.5122 1.88749,4.94291 1.0625,6.90625 -0.82499,1.96334 -2.59132,3.19188 -4.53125,4.03125 -3.87987,1.67874 -8.86348,2.00213 -12.09375,1.9375 a 1.6112879,1.6112879 0 0 1 -0.71875,-0.1875 c -5.33517,-2.83067 -13.17419,-4.77573 -18.0625,-10.46875 a 1.6112879,1.6112879 0 0 1 -0.3125,-0.53125 c -0.87496,-2.43033 -3.07868,-3.45347 -4.53125,-3.3125 -0.72629,0.0705 -1.17642,0.33292 -1.5,0.875 -0.32358,0.54208 -0.55175,1.52777 -0.125,3.1875 a 1.6112879,1.6112879 0 0 1 -0.0312,0.875 c -0.55296,1.82345 -0.30975,3.10165 0.3125,4.40625 0.62225,1.3046 1.73677,2.58161 3,3.9375 1.26323,1.35589 2.65533,2.78393 3.6875,4.53125 0.94773,1.60437 1.45798,3.59391 1.1875,5.78125 1.20345,7.89603 4.66178,16.99746 0,25.875 l 0.0312,0 c -0.33014,0.80494 -0.73569,2.77572 -1.09375,4.5 4.93121,-4.52726 5.54094,-11.1764 6.78125,-18.125 A 1.6112879,1.6112879 0 0 1 521.96875,589 c 1.1632,-1.85914 2.43079,-5.83548 4.125,-9.1875 0.8471,-1.67601 1.82209,-3.22959 3.1875,-4.375 1.36541,-1.14541 3.26438,-1.77567 5.25,-1.28125 a 1.6112879,1.6112879 0 0 1 1.1875,1.21875 c 0.56636,2.58089 0.47716,5.4085 1,7.0625 0.26142,0.827 0.5709,1.26617 1.03125,1.53125 0.46035,0.26508 1.2921,0.42941 2.875,0.125 a 1.6112879,1.6112879 0 0 1 0.9375,0.125 c 2.8534,1.21751 6.56121,3.98722 8.9375,7.3125 1.18814,1.66264 2.06165,3.48369 2.03125,5.46875 -0.0304,1.98506 -1.20433,3.95233 -3.34375,5.21875 a 1.6112879,1.6112879 0 0 1 -1.03125,0.21875 c -0.26552,-0.0341 -1.38222,0.0373 -2.59375,0.28125 -1.21153,0.24394 -2.59863,0.61938 -3.78125,1 -0.0612,0.0197 -0.0647,0.0425 -0.125,0.0625 0.3889,0.88776 0.50545,1.71571 0.625,2.5625 0.1357,0.96114 0.3042,1.91707 0.5625,2.53125 0.2583,0.61418 0.44797,0.81188 0.90625,0.9375 a 1.6112879,1.6112879 0 0 1 0.96875,0.78125 c 1.3838,2.50793 4.51474,4.3557 7.5,6.5625 1.49263,1.1034 2.92945,2.30967 4,3.90625 1.07055,1.59658 1.69256,3.62581 1.46875,5.9375 a 1.6112879,1.6112879 0 0 1 -0.34375,0.875 c -1.07063,1.29253 -2.50662,2.10296 -3.90625,2.84375 -1.39963,0.74079 -2.80825,1.39085 -3.75,2.03125 -0.94175,0.6404 -1.27829,1.13386 -1.3125,1.53125 -0.0342,0.39739 0.23551,1.32419 1.78125,2.90625 a 1.6112879,1.6112879 0 0 1 0.21875,0.28125 l 0.84375,1.34375 0.0625,0.0937 c 2.69329,-1.37271 5.22074,-2.92571 7.09375,-4.90625 2.17061,-2.29523 3.58251,-5.02654 3.78125,-8.625 a 1.6112879,1.6112879 0 0 1 0.125,-0.59375 c 2.82701,-6.01539 2.66034,-12.49951 0.6875,-18.96875 a 1.6112879,1.6112879 0 0 1 -0.0312,-0.125 c -1.69281,-7.66775 -3.19478,-16.67274 1.5625,-24.28125 1.02522,-3.91739 3.11242,-7.18564 4.875,-10.3125 1.81289,-3.2161 3.21844,-6.24661 3.15625,-9.71875 a 1.6112879,1.6112879 0 0 1 0.0312,-0.15625 c 0.48442,-7.00914 1.10755,-14.19928 3.625,-21.0625 -0.3255,-6.56851 -0.83824,-13.70556 3.21875,-20.03125 l -0.0312,0 c 4.82729,-11.69962 6.79053,-24.40945 5.8125,-37.03125 a 1.6112879,1.6112879 0 0 1 0,-0.0312 c -0.53672,-9.42154 -0.6466,-18.98904 -3.5,-27.59375 z M 542.65625,551.75 c 0.0134,-0.004 0.016,-0.0264 -0.15625,0.0937 -0.0861,0.0601 -0.26928,0.14783 -0.46875,0.53125 -0.19947,0.38342 -0.13106,1.31191 0.21875,1.71875 0.17861,0.20773 0.22383,0.19074 0.34375,0.25 L 542.5,553 l 1.21875,1.0625 c 0.0262,-0.0306 0.37404,-0.23806 0.25,-1.03125 -0.062,-0.3966 -0.37355,-0.81891 -0.625,-1 -0.25145,-0.18109 -0.41988,-0.22908 -0.53125,-0.25 -0.44548,-0.0837 -0.18298,-0.0223 -0.15625,-0.0312 z"
       transform="translate(0,14)" />
    <path
       style="fill:#e7a43a;fill-opacity:1;stroke:#ffffff;stroke-width:1px;stroke-linecap:butt;stroke-linejoin:miter;stroke-opacity:0"
       d="m 456.08387,757.35652 c 3.33334,0.2022 -0.83333,-2.7022 0,-3.53553 3.24771,-3.24771 4.19487,-9.09684 6.36397,-13.43503 6.37488,-12.74978 5.65685,-27.68551 5.65685,-43.13352 0,-2.52739 1.11405,-8.3785 0,-10.6066 -1.87006,-3.74011 -2.12132,-12.04023 -2.12132,-16.26346 0,-4.66096 -0.0461,-9.33066 -1.41421,-13.43502 -1.06066,-3.18198 1.06066,-7.42463 0,-10.60661 -2.48039,-7.44114 -1.41422,-25.01897 -1.41422,-33.23401 0,-11.31449 -3.06285,-23.09626 -7.77817,-32.52692 -0.52136,-1.04272 0.0603,-4.18233 -0.70711,-4.94974 -1.97049,-1.9705 -6.36396,-12.05554 -6.36396,-14.84925 0,-5.05183 -1.91689,-10.7004 -3.53553,-15.55635 -1.45994,-4.37981 1.35265,-10.02261 -0.70711,-14.14213 -0.0799,-0.15985 0.68399,-14.11902 -1.41421,-12.02082 -0.69959,0.69959 0.7071,2.16719 0.7071,2.82843 0,2.28526 1.82468,5.06357 2.82843,7.07107 1.0136,2.02719 4.24264,21.54185 4.24264,22.62742 0,9.04138 4.02386,23.60407 7.77817,31.11269 1.90451,3.80902 0.21765,9.62767 2.12132,13.43503 1.29186,2.58372 0.88301,6.00865 2.12133,8.48528 1.28343,2.56688 2.88566,5.7141 4.24264,7.07107 0.73018,0.73018 0.81238,5.1603 1.41421,6.36396 1.26623,2.53247 0,9.1371 0,12.02082 0,6.34876 -0.22448,49.75562 0.70711,51.61879 1.78162,3.56325 -2.69287,9.46351 -0.70711,13.43503 1.32993,2.65986 -1.13687,11.59105 0.70711,13.43503 3.12135,3.12136 -0.59898,9.40865 1.41421,13.43503 1.12906,2.25812 -0.38252,5.59893 0.70711,7.77817 1.04867,2.09736 1.04867,4.97372 0,7.07107 -0.59622,1.19244 0.90639,4.75046 0,5.65686 -1.45478,1.45477 -1.58833,4.41675 -3.53554,6.36396 -2.43906,2.43906 -7.14768,5.15246 -11.31371,8.48528 z"
       id="path4265"
       inkscape:connector-curvature="0" />
    <path
       style="fill:#e7a43a;fill-opacity:1;stroke:#ffffff;stroke-width:1px;stroke-linecap:butt;stroke-linejoin:miter;stroke-opacity:0"
       d="m 449.71991,442.694 c 1.50499,-4.3876 5.63816,-9.89015 9.8995,-12.02081 2.30252,-1.15127 12.512,-11.09779 14.14213,-12.72793 3.63062,-3.63062 36.29516,-12.02081 42.42641,-12.02081 3.56441,0 11.65723,-4.24264 19.09188,-4.24264 1.88562,0 3.77124,0 5.65686,0 0.4714,0 1.41421,-0.47141 1.41421,0 0,0.94281 -1.88562,0 -2.82843,0 -3.14945,0 -5.3934,0.7071 -8.48528,0.7071 -4.08164,0 -7.7725,1.40855 -9.89949,3.53554 -0.47141,0.4714 -2.35702,-0.47141 -2.82843,0 -1.78015,1.78015 -10.71893,3.53553 -14.14213,3.53553 -1.18671,0 -4.94699,-0.003 -5.65686,0.70711 -4.74615,4.74615 -17.74165,5.72083 -22.62742,10.6066 -2.89236,2.89237 -21.90558,21.77594 -22.62741,21.92031 -1.15563,0.23113 -2.35703,0 -3.53554,0 z"
       id="path4278"
       inkscape:connector-curvature="0" />
    <path
       sodipodi:type="inkscape:offset"
       inkscape:radius="-2.6126335"
       inkscape:original="M 511.71875 899.53125 C 508.75007 899.40859 505.55491 904.11542 503.3125 906.0625 C 497.18963 911.89085 491.56318 918.52441 488.96875 926.71875 C 484.12559 933.38159 484.45268 942.00065 481 949.25 C 480.9307 955.45269 480.74597 961.68701 479.75 967.625 C 476.06875 976.59909 478.49777 986.57507 476.59375 995.8125 C 472.83413 1005.2718 475.76156 1015.6152 475.1875 1025.4688 C 475.2645 1042.2496 475.80136 1059.4653 481.71875 1075.375 C 492.97711 1075.1638 504.51256 1074.8827 515.375 1071.6875 C 520.44015 1067.9756 517.6202 1060.3281 517.125 1055 C 515.78659 1047.197 513.08674 1039.6712 510.78125 1032.1875 C 512.10102 1026.0145 508.83685 1020.1278 508.71875 1013.9375 C 506.30694 987.90432 506.94492 961.58874 510.1875 935.65625 C 511.46216 927.92816 512.44069 919.65565 516.90625 913.0625 C 517.04347 909.10556 518.63744 904.0195 514.5625 901.53125 C 513.66272 900.1439 512.70831 899.57214 511.71875 899.53125 z "
       style="fill:#d4a14e;fill-opacity:1;stroke:#ffffff;stroke-width:1px;stroke-linecap:butt;stroke-linejoin:miter;stroke-opacity:0"
       id="path4550"
       d="m 511.625,902.15625 c -0.0685,-0.003 -1.26661,0.49469 -2.5625,1.75 -1.27101,1.23121 -2.55773,2.78741 -3.96875,4.03125 l 0.0312,0.0312 c -5.98475,5.69687 -11.26744,11.98636 -13.65625,19.53125 a 2.6128947,2.6128947 0 0 1 -0.375,0.75 c -4.05492,5.57844 -3.98894,13.59898 -7.46875,21.40625 -0.0729,6.11569 -0.29654,12.3491 -1.3125,18.40625 a 2.6128947,2.6128947 0 0 1 -0.15625,0.5625 c -3.27008,7.97176 -0.93221,17.68677 -3,27.71875 a 2.6128947,2.6128947 0 0 1 -0.125,0.4375 c -3.32938,8.37685 -0.67612,18.27115 -1.25,28.68755 l 0.0312,0 c 0.0738,16.093 0.71441,32.2861 5.84375,47.1874 10.37283,-0.2135 20.7369,-0.611 30.375,-3.3437 1.40571,-1.1914 1.79681,-2.7637 1.6875,-5.25 -0.11403,-2.5935 -0.86151,-5.6783 -1.15625,-8.625 -0.0106,-0.062 -0.0205,-0.126 -0.0312,-0.1875 -1.29827,-7.439 -3.93975,-14.7821 -6.25,-22.2812 a 2.6128947,2.6128947 0 0 1 -0.0625,-1.3126 c 1.05465,-4.9329 -1.9065,-10.4858 -2.09375,-17.4687 -0.002,-0.066 -0.03,-0.1212 -0.0312,-0.1875 l 0.0312,0 c -2.41036,-26.1755 -1.78787,-52.61151 1.46875,-78.65625 a 2.6128947,2.6128947 0 0 1 0.0312,-0.125 c 1.21575,-7.3709 2.19958,-15.69208 6.6875,-22.8125 0.12007,-2.05821 0.47302,-4.05146 0.40625,-5.53125 -0.0735,-1.63008 -0.29883,-2.37246 -1.53125,-3.125 a 2.6128947,2.6128947 0 0 1 -0.8125,-0.8125 c -0.61915,-0.95465 -0.695,-0.77898 -0.75,-0.78125 z"
       transform="translate(0,14)" />
    <path
       sodipodi:type="inkscape:offset"
       inkscape:radius="-2.4725602"
       inkscape:original="M 636.875 590.03125 C 629.58039 590.41577 623.75504 594.92676 617.46875 597.8125 C 609.93391 598.94653 602.63972 601.3437 596.8125 606.46875 C 588.7389 611.73416 586.54882 622.08768 579.65625 628.53125 C 574.88083 635.61841 569.63544 643.99542 571 652.875 C 571.30775 661.24335 579.03803 665.48494 580.875 672.84375 C 581.17963 682.79675 591.09847 684.34831 597.875 688.53125 C 599.87531 689.8042 602.17014 690.47622 604.40625 691.1875 C 606.9671 681.86077 609.78445 672.46714 609.875 662.6875 C 610.51029 650.23228 609.3528 637.73874 610.6875 625.3125 C 629.9144 620.61624 648.12159 609.4933 668.53125 611.375 C 686.25641 609.16473 704.19603 610.49501 721.84375 612.21875 C 734.67126 610.3765 747.61318 612.91781 759.96875 616.28125 C 754.89301 609.17997 747.2013 604.22546 738.15625 605.125 C 727.98443 604.06224 718.48728 599.77573 708.65625 597.125 C 700.93019 593.8065 693.41515 591.4841 685.09375 594.65625 C 678.37646 596.81291 671.30438 596.2367 665.25 592.53125 C 656.1462 589.72285 646.33334 589.88824 636.875 590.03125 z "
       style="fill:#691e1e;fill-opacity:1;stroke:#ffffff;stroke-width:1px;stroke-linecap:butt;stroke-linejoin:miter;stroke-opacity:0"
       id="path4741"
       d="m 636.90625,592.5 c -6.30949,0.37018 -11.79086,4.52568 -18.40625,7.5625 a 2.4728074,2.4728074 0 0 1 -0.65625,0.1875 c -7.25998,1.09266 -14.06027,3.3607 -19.40625,8.0625 a 2.4728074,2.4728074 0 0 1 -0.28125,0.21875 c -3.50137,2.28351 -5.86791,5.78991 -8.25,9.78125 -2.29348,3.84287 -4.60058,8.08393 -8.1875,11.59375 -0.0208,0.0308 -0.0417,0.0629 -0.0625,0.0937 -4.71857,7.01042 -9.39817,14.82521 -8.21875,22.5 a 2.4728074,2.4728074 0 0 1 0.0312,0.28125 c 0.1265,3.4397 1.76487,6.05523 3.90625,9 2.14138,2.94477 4.81741,6.10691 5.90625,10.46875 a 2.4728074,2.4728074 0 0 1 0.0625,0.53125 c 0.12733,4.16022 1.93522,6.07731 4.9375,8 3.00228,1.92269 7.17543,3.35333 10.90625,5.65625 0.99233,0.6315 2.21851,1.11424 3.5,1.5625 2.34195,-8.48689 4.64029,-16.87036 4.71875,-25.34375 a 2.4728074,2.4728074 0 0 1 0,-0.0937 c 0.62322,-12.21862 -0.5572,-24.74786 0.8125,-37.5 a 2.4728074,2.4728074 0 0 1 1.875,-2.15625 c 18.5452,-4.52975 36.92257,-15.73784 58.125,-14 0.0422,0.003 0.0827,-0.004 0.125,0 17.98732,-2.22645 36.06099,-0.87696 53.6875,0.84375 0.0206,0.002 0.0419,-0.002 0.0625,0 10.14978,-1.35575 20.22192,-0.14132 29.9375,2.03125 -3.91995,-2.9564 -8.48022,-4.69915 -13.625,-4.1875 a 2.4728074,2.4728074 0 0 1 -0.5,0 C 727.20921,606.47611 717.57058,602.0805 708,599.5 a 2.4728074,2.4728074 0 0 1 -0.3125,-0.0937 c -7.5762,-3.25413 -14.23565,-5.29009 -21.71875,-2.4375 a 2.4728074,2.4728074 0 0 1 -0.125,0.0312 c -7.11953,2.2858 -14.74527,1.70286 -21.3125,-2.09375 C 655.96035,592.26224 646.43047,592.35761 637,592.5 c -0.0314,4.7e-4 -0.0624,-4.7e-4 -0.0937,0 z" />
    <path
       style="fill:#6c5353;stroke:#000000;stroke-width:1px;stroke-linecap:butt;stroke-linejoin:miter;stroke-opacity:1;fill-opacity:1"
       d="m 655.39741,781.11552 c 5.88156,6.1954 15.09489,6.09396 21.80037,10.23447 4.14156,2.55734 9.51826,5.67053 12.42661,6.75125 0.0734,0.0273 8.10248,2.59797 8.49016,1.55466 1.16295,-3.12961 4.52635,-6.43911 5.70629,-9.61448 0.39418,-1.06077 -5.55961,-2.4438 -5.91878,-2.73277 -3.81856,-3.07236 -10.67403,-6.10001 -14.30136,-7.4479 -4.49409,-1.66998 5.20166,-9.69191 6.1084,-12.13208 1.15423,-3.10619 -7.0226,-5.33819 -5.81118,-5.89322 1.02262,-0.46853 -2.55788,2.67467 -4.60753,5.22213 -4.47279,5.55912 -6.92437,5.96143 -12.16033,4.01579 -2.44462,-0.90841 10.49978,-12.63391 7.74242,-13.65851 -2.86672,-1.06526 -5.42509,-2.54933 -7.79353,-3.42943 -1.11149,-0.41301 -3.86814,4.66784 -4.313,5.86499 -0.42457,1.1426 -2.28971,1.85552 -2.62517,2.75833 -2.58157,6.94729 -9.35542,12.14139 -4.74337,18.50677 z"
       id="path4798"
       inkscape:connector-curvature="0" />
    <path
       style="fill:#6c5353;stroke:#000000;stroke-width:1px;stroke-linecap:butt;stroke-linejoin:miter;stroke-opacity:1;fill-opacity:1"
       d="m 680.6406,740.35824 c 2.49069,7.18612 10.30641,12.78643 15.84211,17.72081 5.20153,4.63652 12.45605,15.24224 13.76951,21.74628 0.79777,3.95045 14.57319,-9.59659 12.73578,-11.94987 -3.28186,-4.20332 -7.92534,-7.78567 -11.80991,-12.04268 -4.4618,-4.88958 -8.15474,-10.30013 -13.06291,-14.67516 -4.6179,-4.11629 -6.41141,-9.65859 -10.42369,-12.32262 -0.83765,-0.55617 -6.68339,10.48814 -7.05089,11.52324 z"
       id="path4800"
       inkscape:connector-curvature="0" />
    <path
       style="fill:#6c5353;stroke:#000000;stroke-width:1px;stroke-linecap:butt;stroke-linejoin:miter;stroke-opacity:1;fill-opacity:1"
       d="m 724.92371,710.36743 c -9.39869,0.0899 8.01716,-1.21287 -4.98437,-0.39491 -8.66542,0.54515 -20.90103,16.55821 -12.9155,19.94215 4.41929,1.87272 8.77723,-2.39413 13.36412,-1.54926 5.9937,1.10397 17.9813,4.27052 18.48636,12.29857 1.03007,16.37327 -17.71725,7.99903 -19.22715,9.71168 -0.71481,0.81079 3.98974,8.21621 5.51715,8.86346 10.81767,4.58408 23.81731,-1.90259 28.2682,-12.40598 0.73595,-1.73671 -0.36195,-5.65774 -1.14968,-7.01272 -2.64723,-4.55482 -2.54875,-13.10076 -8.78399,-15.74299 -5.34296,-2.26413 -14.22591,-1.21022 -17.99796,-4.53575 -4.75479,-4.19193 13.70703,-1.78143 -0.57718,-9.17425 z"
       id="path4802"
       inkscape:connector-curvature="0" />
    <path
       style="fill:#6c5353;stroke:#000000;stroke-width:1px;stroke-linecap:butt;stroke-linejoin:miter;stroke-opacity:1;fill-opacity:1"
       d="m 738.9168,696.39982 c 0.45076,4.61564 3.58787,9.18391 5.72603,13.40569 2.60778,5.14904 4.86362,10.58278 7.85827,15.51605 1.15979,1.91061 9.21168,15.57016 10.67936,14.08726 0.91544,-0.92492 2.40661,-1.9278 4.228,-2.85025 1.64155,-0.83139 4.7438,-1.23906 5.64585,-2.15046 1.04216,-1.05297 -16.1602,-19.92212 -14.25495,-21.84711 0.96952,-0.97957 3.67478,-1.50666 4.93875,-2.14682 0.99526,-0.50405 4.16227,-4.32229 5.64219,-2.85755 5.76528,5.70615 7.87561,17.64369 12.8444,22.56151 1.43722,1.42248 2.40011,-2.42498 2.81381,-2.84296 2.00019,-2.02092 5.4727,-4.10786 7.04182,-5.69324 1.43032,-1.44514 -2.20952,-5.38261 -2.8612,-6.3493 -4.16313,-6.17548 -6.8789,-13.05367 -11.41198,-19.03331 -2.82513,-3.72666 -6.63533,-6.68507 -9.24695,-10.55906 -7.85156,-11.64682 -1.75559,-7.97265 -10.62467,-3.48082 -1.92134,0.97308 -5.23512,2.44625 -6.34566,3.5683 -2.00161,2.02235 7.37848,10.77224 7.1293,11.27711 -0.82966,1.68091 -4.63917,3.26568 -5.6349,4.27175 -0.69899,0.70621 -6.52187,-9.26894 -7.12201,-9.86293 -1.3335,-1.31981 -6.76479,4.75922 -7.04546,4.98614 z"
       id="path4804"
       inkscape:connector-curvature="0" />
  </g>
</svg>
