<?xml version="1.0" encoding="UTF-8" standalone="no"?>
<!-- Created with Inkscape (http://www.inkscape.org/) -->

<svg
   xmlns:dc="http://purl.org/dc/elements/1.1/"
   xmlns:cc="http://creativecommons.org/ns#"
   xmlns:rdf="http://www.w3.org/1999/02/22-rdf-syntax-ns#"
   xmlns:svg="http://www.w3.org/2000/svg"
   xmlns="http://www.w3.org/2000/svg"
   xmlns:sodipodi="http://sodipodi.sourceforge.net/DTD/sodipodi-0.dtd"
   xmlns:inkscape="http://www.inkscape.org/namespaces/inkscape"
   width="1052.3622"
   height="744.09448"
   id="svg2"
   version="1.1"
   inkscape:version="0.48.1 r9760"
   sodipodi:docname="mechanical_bull.svg">
  <defs
     id="defs4" />
  <sodipodi:namedview
     id="base"
     pagecolor="#ffffff"
     bordercolor="#666666"
     borderopacity="1.0"
     inkscape:pageopacity="0.0"
     inkscape:pageshadow="2"
     inkscape:zoom="0.74184128"
     inkscape:cx="457.91589"
     inkscape:cy="320.85016"
     inkscape:document-units="px"
     inkscape:current-layer="layer1"
     showgrid="false"
     inkscape:window-width="1364"
     inkscape:window-height="766"
     inkscape:window-x="0"
     inkscape:window-y="0"
     inkscape:window-maximized="0" />
  <metadata
     id="metadata7">
    <rdf:RDF>
      <cc:Work
         rdf:about="">
        <dc:format>image/svg+xml</dc:format>
        <dc:type
           rdf:resource="http://purl.org/dc/dcmitype/StillImage" />
        <dc:title></dc:title>
      </cc:Work>
    </rdf:RDF>
  </metadata>
  <g
     inkscape:label="Layer 1"
     inkscape:groupmode="layer"
     id="layer1"
     transform="translate(0,-308.2677)">
    <path
       style="fill:#665a71;stroke:#000000;stroke-width:1px;stroke-linecap:butt;stroke-linejoin:miter;stroke-opacity:1;fill-opacity:1"
       d="M 387.59375 124.0625 C 386.12883 123.92471 384.30858 125.03516 383.25 126.09375 C 380.16975 129.17399 379.09151 131.65849 376.875 133.875 C 376.00497 134.74504 375.60453 136.27789 375.1875 137.6875 C 374.95567 137.74893 374.76961 137.85988 374.59375 138.0625 C 373.05412 139.83642 367.95864 155.67143 365.59375 161.375 C 363.67048 166.01352 359.32835 169.0941 357.28125 174.03125 C 353.95284 182.05863 350.15848 188.71884 347.4375 195.28125 C 346.35925 197.88176 343.41993 215.92921 343.25 216.125 C 342.28167 217.24068 343.81211 222.9991 343.125 224.65625 C 342.16683 226.96712 345.45136 233.40249 343.875 235.21875 C 341.97501 237.40799 345.09899 242.20426 343.875 245.15625 C 339.53524 255.62276 344.6998 277.744 342.125 280.71875 L 365.75 284 C 365.66771 283.8609 364.20695 281.99822 364.15625 281.28125 C 364.0819 280.22979 364.97127 279.34871 365.375 278.375 C 367.35439 273.60117 362.34627 264.29465 365.53125 260.625 C 365.85831 260.24816 365.32025 257.64604 365.28125 257.09375 C 364.87249 251.31296 367.24491 247.86091 366.84375 242.1875 C 365.58912 224.44387 371.538 205.21435 375.34375 198.0625 C 377.18643 194.59969 384.46671 177.8579 386.3125 173.40625 C 386.85151 172.10629 392.6064 162.21491 392.5625 161.59375 C 392.55114 161.43302 392.49537 161.26729 392.4375 161.0625 C 393.97453 160.21839 395.50304 158.86892 396.6875 156.5 C 398.59925 152.67651 396.50064 132.09501 394.5625 128.21875 C 393.1587 125.41115 390.42573 126.17574 388.90625 124.65625 C 388.54228 124.29228 388.08206 124.10843 387.59375 124.0625 z "
       transform="translate(0,308.2677)"
       id="path5190" />
    <path
       style="fill:#483737;stroke:#000000;stroke-width:1px;stroke-linecap:butt;stroke-linejoin:miter;stroke-opacity:1"
       d="M 531.78125 450.0625 C 527.47141 450.09782 523.34768 450.42422 520 451.09375 C 510.39696 453.01436 499.47826 451.72419 490 454.09375 C 478.2351 457.03498 444.96608 461.48697 433 459.09375 C 418.27564 460.29066 389.51896 478.14655 372.1875 493.25 L 372 493.09375 C 365.6639 496.93103 361 500.3778 361 508.09375 C 361 523.50365 375.52676 524.62051 384 533.09375 C 386.16667 535.26042 391.83333 533.92709 394 536.09375 C 394.26905 536.3628 394.89203 536.52242 395.78125 536.625 C 395.84767 536.69476 395.90274 536.77318 395.96875 536.84375 C 415.66592 541.36573 436.12027 544.30578 444 545.09375 C 491.75912 549.86966 539.48869 548.77865 586 536.09375 C 603.25324 531.38832 631.47788 529.98534 646 519.09375 C 654.27058 512.89081 659.62643 506.60345 664.21875 501.90625 C 680.50196 488.27775 642.82419 465.06953 619.40625 464.15625 C 615.6203 462.17739 611.84401 460.37509 608 459.09375 C 600.35762 456.54629 591.85485 455.71203 584 453.09375 C 574.25649 449.84592 561.96568 454.58517 552 452.09375 C 546.64826 450.75582 538.96432 450.00364 531.78125 450.0625 z "
       transform="translate(0,308.2677)"
       id="path4712" />
    <path
       sodipodi:type="inkscape:offset"
       inkscape:radius="-1.011748"
       inkscape:original="M 655.5625 477.53125 C 655.36619 477.54895 655.12593 477.4774 654.96875 477.5625 C 651.73801 479.31298 653.43235 484.08331 652.25 486.65625 C 650.63831 490.16345 647.5168 485.52201 646.25 486.875 C 643.96516 489.31532 642.46648 494.02897 640.5625 496.0625 C 639.16829 497.55159 633.42802 495.33298 631.5625 496.34375 C 627.65582 498.46046 626.10356 502.37946 621.84375 504.6875 C 617.19503 507.20626 613.51072 502.5651 608.84375 505.09375 C 606.67142 506.27075 603.58028 509.48333 600.03125 511.40625 C 594.39568 514.45971 576.65902 507.78393 570.03125 511.375 C 562.42302 515.49728 548.22463 517.10163 543.375 522.28125 C 541.06308 524.7505 534.65568 519.15576 532.34375 521.625 C 530.02216 524.10456 515.70524 531.18093 512.65625 531.28125 C 510.75838 531.34375 506.59515 520.31732 500.375 523.6875 C 495.04398 526.57594 488.89336 527.37859 483.59375 530.25 C 479.01673 532.72991 479.97549 526.35336 476.46875 526.46875 C 473.0485 526.58128 468.75445 527.65021 465.53125 528.84375 C 460.77396 530.60537 447.40904 526.41629 443.375 524.5625 C 438.7887 522.45494 428.169 529.68127 424.4375 526.1875 L 418.25 520.375 C 417.38637 519.5664 413.19469 520.50755 412.21875 519.59375 C 409.90487 517.4273 410.34545 515.28736 407 513.75 C 397.62084 509.43994 386.7437 512.33702 376.84375 508.75 C 373.10831 504.18307 365.47012 514.57797 369.125 518 C 370.32941 519.12767 374.9206 516.62233 376.125 517.75 C 377.32941 518.87767 376.1077 522.59109 377.3125 523.71875 C 378.59836 524.92269 381.91504 520.28136 383.25 521.53125 C 384.28235 522.49782 384.34266 524.50217 385.375 525.46875 C 387.09558 527.0797 393.65443 523.51405 395.375 525.125 C 396.40735 526.09157 396.46765 528.09593 397.5 529.0625 C 399.39262 530.83456 406.60737 526.9467 408.5 528.71875 C 409.46682 529.62397 408.4545 531.62762 410.625 532.625 C 413.39207 533.89657 420.02908 529.81626 421.59375 531.28125 C 423.54455 533.10777 423.4081 536.52931 426.8125 538.09375 C 427.80589 538.55025 436.56454 536.79169 438.78125 536.71875 C 441.40011 536.63255 443.59794 540.19615 446.84375 538.4375 C 448.47815 537.55195 454.54609 535.09786 456.78125 536.125 C 460.36553 537.7721 462.7071 538.34238 465.90625 539.8125 C 467.60961 540.59526 474.85283 538.5105 474.875 538.53125 L 477.96875 541.4375 C 478.69873 542.12097 483.85859 541.22402 484.96875 541.1875 C 488.78176 541.06203 514.4598 541.74626 515.96875 541.1875 C 520.75616 539.41473 525.55423 537.00903 529.78125 534.71875 C 532.59097 533.1964 542.79851 536.28833 546.8125 536.15625 C 556.58787 535.83461 584.0397 530.74656 591.53125 526.6875 C 599.3948 522.4269 616.2434 533.40531 622.5625 526.65625 C 623.46536 525.69196 623.47215 522.55805 624.375 521.59375 C 629.49342 516.12704 643.17592 514.99139 646.09375 511.875 C 647.06032 510.84266 644.90842 506.90734 645.875 505.875 C 646.74629 504.94442 659.07928 497.99039 660.5625 496.40625 C 662.23878 494.61591 662.8638 490.86191 664.34375 489.28125 C 664.78822 488.80655 665.65703 488.72062 666.40625 488.53125 C 666.17677 488.11458 666.0222 487.69795 665.75 487.28125 C 665.07624 486.24981 664.28712 485.23943 663.375 484.21875 C 661.55075 482.17739 659.26532 480.15494 656.6875 478.25 C 656.34565 477.99738 655.91494 477.78023 655.5625 477.53125 z "
       style="fill:#634c4c;fill-opacity:1;stroke:none"
       id="path4834"
       d="m 655.3125,478.5625 c -0.49555,0.31066 -0.81269,0.67681 -1.03125,1.1875 -0.24308,0.56797 -0.37723,1.30938 -0.4375,2.125 -0.12053,1.63123 0.0793,3.5501 -0.6875,5.21875 -0.49002,1.06633 -1.29163,1.74337 -2.1875,1.875 -0.89587,0.13163 -1.64863,-0.19326 -2.28125,-0.5 -0.63262,-0.30674 -1.2098,-0.61483 -1.5625,-0.75 -0.11757,-0.0451 -0.14301,-0.0549 -0.1875,-0.0625 -0.97228,1.06803 -1.90483,2.74212 -2.78125,4.4375 -0.89527,1.73184 -1.71571,3.45146 -2.84375,4.65625 -0.67096,0.71662 -1.59364,0.82403 -2.46875,0.84375 -0.87511,0.0197 -1.81945,-0.0964 -2.75,-0.21875 -0.93055,-0.12231 -1.84301,-0.24237 -2.59375,-0.28125 -0.75074,-0.0389 -1.32976,0.0497 -1.46875,0.125 -1.77274,0.9605 -3.02505,2.36951 -4.4375,3.90625 -1.41245,1.53674 -2.98571,3.19374 -5.28125,4.4375 -2.65165,1.43671 -5.13375,0.84173 -7.21875,0.3125 -2.085,-0.52923 -3.77377,-0.99394 -5.78125,0.0937 -1.8478,1.00116 -5.06483,4.28195 -8.8125,6.3125 -1.74011,0.94282 -4.02547,1.05055 -6.65625,0.90625 -2.63078,-0.1443 -5.61485,-0.58146 -8.59375,-1 -5.95779,-0.83707 -11.99938,-1.42785 -14.75,0.0625 -3.98756,2.16053 -9.45187,3.60083 -14.53125,5.15625 -5.07938,1.55542 -9.72001,3.29425 -11.84375,5.5625 -0.86762,0.92666 -2.16053,1.06783 -3.28125,0.90625 -1.12072,-0.16158 -2.22258,-0.57806 -3.3125,-0.96875 -1.08992,-0.39069 -2.1656,-0.75921 -2.96875,-0.875 -0.80315,-0.11579 -1.18041,-0.0267 -1.46875,0.28125 -0.7709,0.82335 -2.12816,1.68706 -3.875,2.71875 -1.74684,1.03169 -3.85511,2.16331 -6,3.21875 -2.14489,1.05544 -4.31298,2.05071 -6.15625,2.78125 -1.84327,0.73054 -3.24804,1.21292 -4.375,1.25 -0.73236,0.0241 -1.14668,-0.35753 -1.53125,-0.71875 -0.38457,-0.36122 -0.76706,-0.77964 -1.15625,-1.28125 -0.77839,-1.00322 -1.64601,-2.26648 -2.625,-3.375 -0.97899,-1.10852 -2.05551,-2.06963 -3.125,-2.53125 -1.06949,-0.46162 -2.09595,-0.52244 -3.40625,0.1875 -5.54858,3.00632 -11.70049,3.80967 -16.78125,6.5625 -1.29092,0.69944 -2.45327,0.8872 -3.40625,0.5 -0.95298,-0.3872 -1.48932,-1.15692 -1.90625,-1.84375 -0.41693,-0.68683 -0.74317,-1.34917 -1.09375,-1.75 -0.35058,-0.40083 -0.58418,-0.58132 -1.15625,-0.5625 -3.23761,0.10652 -7.49174,1.15226 -10.625,2.3125 -2.91289,1.07864 -7.43115,0.32458 -11.9375,-0.75 -4.50635,-1.07458 -8.86051,-2.57933 -11,-3.5625 -0.81264,-0.37343 -2.14002,-0.37192 -3.75,-0.0625 -1.60998,0.30942 -3.45384,0.91215 -5.3125,1.46875 -1.85866,0.5566 -3.70566,1.08331 -5.4375,1.25 -1.73184,0.16669 -3.45282,-0.0315 -4.6875,-1.1875 l -6.1875,-5.8125 c 0.15365,0.14386 -0.10983,-0.0285 -0.5625,-0.0625 -0.45267,-0.034 -1.07629,-0.0413 -1.71875,-0.0312 -0.64246,0.01 -1.30913,0.0299 -1.9375,-0.0312 -0.62837,-0.0611 -1.2415,-0.12161 -1.8125,-0.65625 -1.30165,-1.21872 -1.85396,-2.45219 -2.40625,-3.375 -0.55229,-0.92281 -1.06693,-1.62523 -2.5625,-2.3125 -4.47659,-2.05715 -9.3831,-2.39401 -14.5,-2.65625 -5.1169,-0.26224 -10.41893,-0.44884 -15.5625,-2.3125 a 1.0118491,1.0118491 0 0 1 -0.4375,-0.3125 c -0.70779,-0.86534 -1.29222,-0.91663 -2.1875,-0.625 -0.89528,0.29163 -2.00468,1.13666 -2.875,2.25 -0.87032,1.11334 -1.52875,2.48037 -1.75,3.65625 -0.22125,1.17588 -0.0363,2.03308 0.5625,2.59375 -0.0694,-0.065 0.14897,0.0794 0.65625,0.0312 0.50728,-0.0481 1.21305,-0.20279 1.9375,-0.375 0.72445,-0.17221 1.45755,-0.36826 2.1875,-0.4375 0.72995,-0.0692 1.5471,-0.0976 2.21875,0.53125 0.56563,0.52959 0.75479,1.21053 0.84375,1.84375 0.089,0.63322 0.0646,1.30113 0.0625,1.90625 -0.002,0.60512 0.004,1.17834 0.0625,1.59375 0.0497,0.35342 0.13814,0.45857 0.1875,0.53125 0.0557,-0.0149 0.0764,-0.009 0.1875,-0.0625 0.36704,-0.17635 0.92005,-0.6033 1.5,-1.03125 0.57995,-0.42795 1.1731,-0.87652 1.84375,-1.1875 0.33533,-0.15549 0.72601,-0.27163 1.15625,-0.28125 0.43024,-0.01 0.92406,0.13433 1.28125,0.46875 0.7637,0.71504 1.03934,1.63227 1.3125,2.375 0.27316,0.74273 0.54385,1.31096 0.8125,1.5625 0.0601,0.0563 0.47749,0.22843 1.25,0.15625 0.77251,-0.0722 1.80882,-0.31816 2.84375,-0.5625 1.03493,-0.24434 2.09879,-0.50079 3.09375,-0.59375 0.99496,-0.093 2.01232,-0.0929 2.8125,0.65625 0.7637,0.71504 1.03934,1.63227 1.3125,2.375 0.27316,0.74273 0.54385,1.31097 0.8125,1.5625 0.10431,0.0977 0.60762,0.2651 1.46875,0.1875 0.86113,-0.0776 1.98658,-0.32927 3.125,-0.59375 1.13842,-0.26448 2.29192,-0.5274 3.375,-0.625 1.08308,-0.0976 2.18925,-0.10086 3.03125,0.6875 0.44194,0.41378 0.62185,0.94752 0.71875,1.375 0.0969,0.42748 0.13005,0.78863 0.1875,1.09375 0.11489,0.61023 0.17129,0.91481 0.96875,1.28125 0.36578,0.16809 1.11784,0.19616 2.0625,0.0312 0.94466,-0.16491 2.0276,-0.50566 3.125,-0.84375 1.0974,-0.33809 2.19659,-0.66845 3.1875,-0.84375 0.99091,-0.1753 2.02103,-0.30155 2.84375,0.46875 1.21408,1.13673 1.6832,2.60824 2.28125,3.8125 0.59805,1.20426 1.24425,2.18052 2.6875,2.84375 -0.24408,-0.11217 -0.0377,-0.0274 0.25,-0.0312 0.28768,-0.004 0.70669,-0.0446 1.1875,-0.0937 0.96162,-0.0983 2.20996,-0.27372 3.5,-0.46875 2.58009,-0.39006 5.23081,-0.83118 6.5625,-0.875 1.7769,-0.0585 3.09089,0.98091 4.28125,1.59375 1.19036,0.61284 2.05661,0.9474 3.34375,0.25 0.93412,-0.50612 2.85922,-1.34982 4.9375,-1.96875 1.03914,-0.30947 2.09273,-0.54668 3.09375,-0.65625 1.00102,-0.10957 1.95699,-0.11189 2.8125,0.28125 3.51288,1.61429 5.84585,2.18062 9.125,3.6875 0.0238,0.0109 0.73853,0.1104 1.59375,0.0312 0.85522,-0.0792 1.88345,-0.26288 2.875,-0.46875 0.99155,-0.20587 1.95629,-0.44695 2.65625,-0.625 0.34998,-0.089 0.60875,-0.1652 0.8125,-0.21875 0.10187,-0.0268 0.18841,-0.0468 0.25,-0.0625 0.0308,-0.008 0.0632,0.007 0.0937,0 0.0153,-0.004 0.027,-0.0249 0.0625,-0.0312 0.0177,-0.003 0.0369,0.005 0.0937,0 0.0284,-0.003 0.15594,-2e-5 0.15625,0 3.1e-4,2e-5 0.62491,0.24992 0.625,0.25 l 3.09375,2.90625 c -0.1661,-0.15552 -0.15439,-0.0861 -0.0312,-0.0625 0.12314,0.0236 0.32727,0.0574 0.59375,0.0625 0.53297,0.0101 1.25873,-0.0551 2,-0.125 1.48254,-0.13984 2.94311,-0.34948 3.71875,-0.375 2.04154,-0.0672 9.32632,0.0708 16.40625,0.15625 3.53997,0.0427 7.02111,0.0788 9.6875,0.0625 1.33319,-0.008 2.44869,-0.0284 3.28125,-0.0625 0.41628,-0.0171 0.75802,-0.0396 1,-0.0625 0.24198,-0.0229 0.45303,-0.0833 0.3125,-0.0312 4.71433,-1.74571 9.48152,-4.12737 13.6875,-6.40625 1.05416,-0.57116 2.32511,-0.60876 3.8125,-0.53125 1.48739,0.0775 3.15843,0.30831 4.875,0.59375 3.43314,0.57088 7.06179,1.30658 8.78125,1.25 4.74354,-0.15608 14.07813,-1.50035 23.0625,-3.3125 8.98437,-1.81215 17.7724,-4.16396 21.21875,-6.03125 2.25896,-1.22394 4.99417,-1.30465 7.875,-0.96875 2.88083,0.3359 5.92769,1.10024 8.90625,1.78125 2.97856,0.68101 5.8753,1.26849 8.3125,1.28125 2.4372,0.0128 4.32332,-0.51388 5.65625,-1.9375 0.0785,-0.0839 0.42884,-1.03795 0.65625,-2.0625 0.22741,-1.02455 0.33195,-2.11959 1.15625,-3 2.84274,-3.03618 7.67194,-4.6659 12.125,-6.03125 2.22653,-0.68268 4.37067,-1.26263 6.09375,-1.875 1.72308,-0.61237 3.01922,-1.29901 3.5,-1.8125 -0.10557,0.11275 0.009,-0.0187 -0.0312,-0.4375 -0.0401,-0.41884 -0.16433,-1.00404 -0.3125,-1.625 -0.14817,-0.62096 -0.31363,-1.29586 -0.375,-1.9375 -0.0614,-0.64164 -0.0888,-1.37108 0.5,-2 0.30102,-0.32151 0.55955,-0.4564 1,-0.75 0.44045,-0.2936 1.00058,-0.6558 1.65625,-1.0625 1.31135,-0.8134 3.00091,-1.81866 4.6875,-2.84375 1.68659,-1.02509 3.38755,-2.0898 4.75,-2.96875 1.36245,-0.87895 2.44865,-1.68877 2.59375,-1.84375 0.63988,-0.68342 1.23269,-1.98937 1.78125,-3.34375 0.54856,-1.35438 1.03547,-2.75109 2,-3.78125 0.40761,-0.43534 0.87836,-0.65283 1.3125,-0.78125 -0.63866,-0.97522 -1.40286,-1.92331 -2.28125,-2.90625 -1.76573,-1.97587 -3.99883,-3.97236 -6.53125,-5.84375 -0.1654,-0.12222 -0.49159,-0.31963 -0.78125,-0.5 z"
       transform="translate(0,308.2677)" />
    <path
       style="fill:#a05a2c;fill-opacity:1;stroke:#000000;stroke-width:1px;stroke-linecap:butt;stroke-linejoin:miter;stroke-opacity:1"
       d="m 314.18491,647.01232 c -9.50643,0.004 -18.54082,7.47249 -26.04277,11.91871 -12.77471,7.57125 -16.88882,20.04429 -21.74614,32.39376 -1.59031,4.04326 -0.0641,13.69345 -1.89895,16.92317 -1.57692,2.77577 -2.22934,17.61327 -1.00626,18.97334 2.83948,3.15753 10.18642,-12.96425 11.77898,-14.39637 3.55245,-3.19462 6.08594,-7.65439 9.15151,-11.46892 0.80666,-0.47623 1.42246,-0.89286 1.52295,-0.98323 l 5.78357,-5.20099 c 3.56715,-3.20783 12.42797,-2.41084 15.42913,-7.69365 0.57222,-1.00725 -0.0335,-3.09892 -0.28746,-4.02086 -0.23079,-0.83795 -0.56089,-1.60112 -0.97305,-2.30477 0.7238,-0.35563 1.44735,-0.71676 2.15702,-1.13736 2.01545,-1.1945 14.42911,-6.69067 16.26883,-4.6449 l -6.03303,-27.85861 c -1.37402,-0.33415 -2.74625,-0.49983 -4.10433,-0.49932 z"
       id="path4510"
       inkscape:connector-curvature="0" />
    <path
       style="fill:#ac5353;fill-opacity:1;stroke:#000000;stroke-width:1px;stroke-linecap:butt;stroke-linejoin:miter;stroke-opacity:1"
       d="m 362.64656,783.55252 c -3.65796,13.17453 -16.89425,32.65108 -39.72088,31.44045 -2.14134,-0.11356 -7.5615,1.10893 -8.98737,-0.47666 -1.20144,-1.33601 -3.19397,-2.49423 -4.30832,-3.7334 -1.38685,-1.5422 -1.61873,-3.91504 -2.73098,-5.15188 -2.93613,-3.265 5.62052,-11.22709 7.6522,-12.11172 1.52543,-0.6642 3.83698,-2.02403 5.17834,-3.23028 1.44393,-1.29848 4.65352,-0.85637 6.12399,-2.17872 0.35051,-0.31522 1.64666,0.42118 1.99719,0.10592 3.9407,-3.54375 26.74137,-2.65091 30.35511,-5.90063 1.14255,-1.02747 3.04625,0.59152 4.44072,1.23692 z"
       id="path4567"
       inkscape:connector-curvature="0" />
    <path
       style="fill:#ffccaa;stroke:#000000;stroke-width:1px;stroke-linecap:butt;stroke-linejoin:miter;stroke-opacity:1"
       d="m 608.41852,534.4815 c -20.68791,3.38604 -31.53888,14.89932 -47.76379,26.6271 -6.50709,4.70349 -14.59075,7.42539 -21.1557,12.17071 -4.11823,2.97676 -16.03,2.62367 -21.156,3.46265 -5.74421,0.94017 -18.44394,5.63761 -23.96241,3.92199 -17.15835,-5.33428 -37.47732,-9.7939 -57.52605,-6.51247 -15.41385,2.52282 -33.52323,8.47034 -46.30958,17.71266 -22.97152,16.6044 -40.43933,60.86656 -41.07068,67.52049 -4.73031,21.3263 31.96371,27.99691 47.35431,32.78163 1.76705,0.54935 5.07305,-0.53843 9.04273,-2.01836 0.26496,4.03883 0.22957,7.71855 -0.21551,10.48499 -0.30138,1.87328 1.27052,4.04793 0.96914,5.92121 -0.84064,5.22519 0.96394,10.38574 0.52987,15.61952 -0.44649,5.38364 -0.20867,13.71326 0.67983,22.33978 l -33.97238,6.41532 c 4.75443,12.60596 18.31292,19.64825 27.04139,29.01317 15.99892,17.16552 60.22944,53.58335 83.0782,37.06767 3.63216,-2.62541 11.38194,-1.33895 15.62838,-3.57124 6.76697,-3.5573 15.53002,-3.28124 22.06986,-6.77881 10.66418,-1.57486 21.58371,-4.4193 30.57497,-5.89092 7.34777,-1.20263 19.06074,0.13424 23.3618,-5.8503 0.55024,-0.76559 3.39725,0.11951 3.94748,-0.64609 1.15818,-1.6115 5.26533,-2.47977 6.42351,-4.09127 5.37415,-7.47763 15.66965,-10.89835 22.9127,-20.97638 0.83768,-1.16556 1.74994,-2.63075 2.65824,-4.26664 0.0222,-0.04 0.0552,-0.0674 0.0774,-0.10766 1.86419,-2.06492 5.29355,-2.53301 7.97614,-4.47206 3.62065,-2.61709 12.58489,-9.02942 14.33619,-11.46619 4.63548,-6.44983 8.7806,-14.0348 13.78859,-21.00297 1.53391,-2.13428 1.70152,-6.00234 3.22949,-8.12837 0.54125,-0.75309 0.21368,-2.19375 0.5023,-3.12213 1.07119,-3.4456 5.23634,-18.79622 5.89364,-19.71079 0.48145,-0.66989 -0.47255,-2.37147 0.009,-3.04136 3.39498,-4.7238 1.51239,-19.67274 4.67335,-24.07094 0.57909,-0.80574 -0.23831,-3.30324 0.34078,-4.109 1.0381,-1.44442 1.38809,-4.35463 2.56566,-5.99311 4.13466,-5.75298 10.74172,-15.00507 12.23639,-24.29548 0.39462,-2.45281 2.66982,-4.82172 3.39101,-7.14151 0.47807,-1.53776 1.08239,-4.30021 1.72678,-7.2491 -1.08535,-18.84362 -5.32059,-37.64531 -13.39308,-53.00142 -2.75339,-5.2377 -9.66735,-8.68434 -12.40763,-13.89712 -7.92784,-15.08093 -31.04316,-22.43667 -48.08616,-19.6472 z"
       id="path2987"
       inkscape:connector-curvature="0" />
    <path
       sodipodi:type="inkscape:offset"
       inkscape:radius="-1.1778845"
       inkscape:original="M 591.96875 568.875 C 580.63354 576.22297 567.53239 579.5016 555.15625 584.46875 C 544.56645 585.35504 533.93107 582.68764 523.34375 584.78125 C 511.81412 586.91378 502.61033 578.26192 492.09375 575.28125 C 478.92146 567.52473 474.64738 589.39128 465.09375 595.375 C 457.73349 603.35499 448.91686 611.2101 447.625 622.65625 C 439.32526 637.14652 443.51624 655.23939 451.0625 669.125 C 459.1906 680.2947 477.03442 675.337 484.8125 686.59375 C 487.94819 696.47843 493.2001 709.62958 482.625 717.21875 C 468.44859 730.05719 447.5379 732.74679 434.21875 746.53125 C 429.65661 757.47428 420.33571 765.70158 414.6875 775.9375 C 415.75706 784.66117 403.4656 792.32269 415.1875 797.875 C 426.95689 808.05117 441.49366 819.90198 458.125 817.09375 C 467.98409 813.16793 478.76591 815.26297 489.0625 812.875 C 500.05208 811.80335 510.89982 810.77935 522 810.6875 C 532.50704 809.03277 543.13504 812.72798 553.5 810.46875 C 562.89133 807.93067 571.43436 803.12141 580.15625 797.71875 C 592.59941 794.23728 598.97615 782.65258 592.4375 770.90625 C 591.36574 759.69248 578.1562 753.22058 572.15625 765.34375 C 569.08883 774.46658 555.88611 782.65561 549.0625 775 C 547.3737 764.97862 549.54474 754.60985 547.46875 744.6875 C 534.30964 743.29213 524.20535 754.38343 515.96875 763.25 C 510.03993 773.57087 497.9762 768.98059 503.875 757.125 C 505.49041 746.12837 517.64846 741.39001 524.84375 734.15625 C 532.73019 729.19993 540.3318 719.28014 550.6875 722.03125 C 561.20925 726.20992 569.35563 714.86659 572.5 706.15625 C 580.49493 692.73842 562.1797 692.40276 553.28125 691 C 542.07028 692.06314 538.17385 681.15663 546.59375 674.15625 C 554.69429 667.16977 558.40211 657.98213 544.8125 655.75 C 536.94618 650.62387 522.62636 651.00383 522 639.375 C 518.50659 627.37645 537.20037 620.46298 546.28125 616.28125 C 558.76882 609.44234 569.73947 621.30641 582.3125 621.28125 C 596.22281 624.97023 608.95617 614.52773 606.6875 600.15625 C 605.27806 588.44539 600.19321 577.27191 591.96875 568.875 z "
       style="fill:#ffddc7;fill-opacity:1;stroke:none"
       id="path4697"
       d="m 591.6875,570.375 c -11.32938,7.08197 -24.1378,10.38899 -36.09375,15.1875 a 1.1780022,1.1780022 0 0 1 -0.34375,0.0937 c -10.85085,0.90814 -21.43422,-1.7463 -31.6875,0.28125 -6.10007,1.12827 -11.57995,-0.60044 -16.71875,-2.90625 -5.1388,-2.30581 -10.00514,-5.19161 -15.0625,-6.625 a 1.1780022,1.1780022 0 0 1 -0.28125,-0.125 c -3.06056,-1.80221 -5.29593,-1.81732 -7.375,-0.90625 -2.07907,0.91107 -4.03269,2.94433 -5.9375,5.5 -3.74729,5.02772 -7.1072,11.95314 -12.21875,15.3125 -7.41691,8.04141 -15.95589,15.68141 -17.1875,26.59375 a 1.1780022,1.1780022 0 0 1 -0.125,0.46875 c -7.99274,13.95429 -4.00137,31.58919 3.40625,45.25 0.011,0.0202 0.0203,0.0423 0.0312,0.0625 3.78099,5.08134 9.85265,6.5737 16.25,8.125 6.45163,1.56446 13.26302,3.20852 17.4375,9.25 a 1.1780022,1.1780022 0 0 1 0.15625,0.3125 c 1.55606,4.90519 3.69381,10.7242 4.09375,16.4375 0.39719,5.67401 -1.09551,11.37446 -6.625,15.40625 -0.033,0.0299 -0.0607,0.064 -0.0937,0.0937 -7.25312,6.53131 -16.10473,10.42935 -24.71875,14.40625 -8.60446,3.97249 -16.949,8.02518 -23.40625,14.65625 -4.71051,11.08291 -13.89445,19.25182 -19.375,29.09375 0.31648,4.70132 -2.44148,8.82439 -3.78125,12.1875 -0.69719,1.75009 -0.98187,3.19971 -0.59375,4.4375 0.38812,1.23779 1.48621,2.53463 4.25,3.84375 a 1.1780022,1.1780022 0 0 1 0.28125,0.15625 c 11.74091,10.15155 25.96653,21.64719 41.9375,18.96875 0.01,-0.004 0.0216,0.004 0.0312,0 10.19439,-3.95754 20.95095,-1.92443 30.84375,-4.21875 a 1.1780022,1.1780022 0 0 1 0.15625,-0.0312 C 499.92946,810.61562 510.83374,809.5924 522,809.5 l 0,0.0312 c 10.82779,-1.6445 21.36702,1.93542 31.25,-0.21875 9.17733,-2.49209 17.60708,-7.22065 26.28125,-12.59375 a 1.1780022,1.1780022 0 0 1 0.3125,-0.125 c 5.94539,-1.66346 10.33404,-5.23007 12.5,-9.6875 2.16596,-4.45743 2.17264,-9.8503 -0.9375,-15.4375 a 1.1780022,1.1780022 0 0 1 -0.15625,-0.4375 c -0.49432,-5.17201 -3.80431,-9.23451 -7.5,-10.5625 -1.84784,-0.66399 -3.75376,-0.67029 -5.5625,0.125 -1.80874,0.79529 -3.56346,2.44179 -4.96875,5.28125 -1.69858,4.88248 -5.91011,9.30743 -10.6875,11.65625 -2.41414,1.18692 -4.98844,1.84228 -7.5,1.65625 -2.51156,-0.18603 -4.94291,-1.27364 -6.84375,-3.40625 a 1.1780022,1.1780022 0 0 1 -0.28125,-0.59375 c -1.68463,-9.99661 0.20385,-19.99627 -1.5,-29.34375 -5.83115,-0.34198 -11.04528,1.82985 -15.84375,5.25 -5.06019,3.60669 -9.59723,8.532 -13.71875,12.96875 -3.18281,5.32901 -8.20013,7.14741 -11.84375,5.53125 -1.85028,-0.82071 -3.25764,-2.54696 -3.71875,-4.8125 -0.46111,-2.26554 -0.0283,-5.05311 1.53125,-8.1875 0.9706,-5.68688 4.55207,-9.82239 8.6875,-13.28125 4.23104,-3.53882 9.0456,-6.52713 12.5,-10 a 1.1780022,1.1780022 0 0 1 0.21875,-0.15625 c 3.78783,-2.3805 7.66051,-6.09781 11.96875,-8.9375 4.30824,-2.83969 9.226,-4.79662 14.8125,-3.3125 a 1.1780022,1.1780022 0 0 1 0.125,0.0312 c 4.82416,1.91589 8.90086,0.33812 12.4375,-2.875 3.53664,-3.21312 6.32643,-8.1093 7.84375,-12.3125 a 1.1780022,1.1780022 0 0 1 0.0937,-0.1875 c 1.8964,-3.18272 2.09911,-5.3069 1.53125,-6.8125 -0.56786,-1.5056 -2.061,-2.69025 -4.25,-3.59375 -4.29193,-1.77147 -10.82437,-2.27328 -15.375,-2.96875 -0.0447,0.004 -0.0805,-0.004 -0.125,0 -5.92681,0.51568 -10.30096,-2.1931 -11.8125,-6.15625 -1.51882,-3.98223 -0.1374,-9.00367 4.34375,-12.75 l 0,-0.0312 c 3.9242,-3.38451 6.64506,-7.3104 6.84375,-10.15625 0.0993,-1.42292 -0.27599,-2.5588 -1.46875,-3.625 -1.19276,-1.0662 -3.30108,-2.0268 -6.5625,-2.5625 A 1.1780022,1.1780022 0 0 1 544.15625,656.75 c -3.6481,-2.37731 -9.13834,-3.58897 -13.9375,-5.65625 -2.39958,-1.03364 -4.65351,-2.32605 -6.375,-4.1875 -1.66411,-1.7994 -2.74253,-4.18781 -2.96875,-7.1875 -0.0279,-0.0959 -0.0372,-0.18574 -0.0625,-0.28125 -0.84601,-3.19124 -0.26955,-6.20357 1.21875,-8.75 1.53285,-2.62264 3.94923,-4.81619 6.71875,-6.75 5.51736,-3.85248 12.48114,-6.62438 16.96875,-8.6875 0.0219,-0.012 0.0406,-0.0193 0.0625,-0.0312 6.5992,-3.5822 12.92505,-2.22856 18.875,-0.0937 5.96974,2.14192 11.74091,4.98059 17.65625,4.96875 a 1.1780022,1.1780022 0 0 1 0.3125,0.0625 c 6.6029,1.75107 12.84654,0.13029 17.1875,-3.5625 4.34096,-3.69279 6.79331,-9.44293 5.71875,-16.25 a 1.1780022,1.1780022 0 0 1 0,-0.0312 C 604.1871,589.14415 599.35409,578.49651 591.6875,570.375 z"
       transform="matrix(0.9868689,-0.16152327,0.16152327,0.9868689,-104.63826,87.139974)" />
    <path
       style="fill:#916f6f;stroke:#000000;stroke-width:1px;stroke-linecap:butt;stroke-linejoin:miter;stroke-opacity:1"
       d="m 335.85124,645.00081 c -3.59941,-6.89868 12.97344,-27.11015 20.10502,-29.6823 7.26224,-2.61926 12.95158,-1.80377 20.49617,-1.07553 20.88008,2.01546 34.48359,16.97542 41.34809,36.00814 1.38248,3.83309 2.8813,10.27502 1.96188,14.37536 -5.73123,25.55955 -21.04146,56.0012 -36.15737,74.53284 -0.79416,0.97364 -0.087,-1.89596 -1.29788,-2.88366 -1.3591,-1.1086 -2.25638,-7.37501 -2.50229,-9.79738 -0.0631,-0.62152 -0.85162,-1.53798 -0.69943,-1.93927 0.57358,-1.51247 2.09375,-1.7374 2.68167,-3.28765 2.04123,-5.38247 6.39185,-10.54854 8.43394,-15.93327 1.33842,-3.52925 4.71879,-6.13688 6.05524,-9.66094 4.70495,-12.40638 10.31016,-22.20444 8.85073,-36.58094 -0.21367,-2.10483 -0.0904,-4.73804 -1.1539,-6.41626 -1.22043,-1.92592 -0.041,-5.4955 -1.25492,-7.41115 -0.97635,-1.54077 -1.28848,-5.15727 -2.64625,-6.26477 -8.07778,-6.58889 -13.5728,-16.21211 -27.13704,-14.83514 -1.93331,0.19626 -6.9545,0.69513 -7.8581,1.80286 -0.20512,0.25147 -9.03947,2.69181 -10.59027,4.59305 -2.63482,3.23021 -5.26977,6.32857 -6.94914,10.75684 -0.52554,1.38579 -0.54427,5.14207 -1.38379,6.17131 -0.93864,1.15075 -7.02651,1.42394 -8.55753,-0.13642 -0.68063,-0.69368 -0.77795,-2.43388 -1.74482,-2.33572 -1.1607,0.11782 0.23566,2.3214 0.35349,3.4821"
       id="path4285"
       inkscape:connector-curvature="0" />
    <path
       style="fill:#ffd7be;fill-opacity:1;stroke:#000000;stroke-width:1px;stroke-linecap:butt;stroke-linejoin:miter;stroke-opacity:1"
       d="m 383.65696,636.99009 c -0.38843,-0.0296 -0.7871,-0.0291 -1.18749,-0.0317 -2.80266,-0.0183 -5.85834,0.56914 -8.19965,1.19241 -5.48062,0.15284 -12.74928,1.3407 -15.76786,0.50937 -2.21753,-0.61069 -19.64126,1.46449 -21.45803,2.1791 -0.83235,0.32744 -2.02396,-0.16593 -2.8563,0.16146 -3.73358,1.46862 -9.49815,2.39369 -14.19575,3.90991 -0.008,-0.005 -0.0231,0.002 -0.0312,-0.002 -0.63768,-0.31835 -1.53569,-0.2485 -2.50311,-0.008 -4.93917,4.85297 -10.11957,9.66572 -14.48234,14.03395 -1.86609,1.86841 -2.07007,6.18672 -3.48237,9.01571 -0.33292,0.66688 0.327,1.80505 -0.006,2.47191 -0.98351,1.9701 -2.01094,3.75261 -2.00952,6.02703 0.002,3.00023 -1.41626,12.35571 -2.88974,17.90333 -0.5562,5.10716 -0.78491,10.05654 -0.9845,13.84229 -1.43575,3.53239 -2.87805,7.16516 -4.42589,10.87461 -0.66227,1.58713 0.99364,4.50321 2.59385,7.14741 -0.15489,0.23566 -0.32181,0.46555 -0.47164,0.63216 -0.079,0.0878 -0.87263,8.27919 -0.57831,8.54385 0.23066,0.20742 0.76957,1.38955 0.78606,1.70027 0.0167,0.31382 0.60043,0.78099 0.38392,1.02178 -0.65619,0.72973 -1.07358,1.62174 -1.62036,2.2298 -1.08944,1.21154 1.00219,5.62834 -0.0142,6.75874 -1.32571,1.47428 2.57826,25.00091 3.55831,26.72596 0.2943,0.51799 0.6044,1.02175 0.95201,1.52131 0.45309,9.41553 4.00341,18.92303 8.38556,26.57515 5.85565,0.33736 12.34263,4.54481 19.22486,4.52453 10.57667,-0.85102 22.61773,-4.64847 29.09553,-10.47376 2.11636,-1.90317 1.23613,-5.90368 3.36652,-6.83129 0.42083,0.96648 1.79998,6.94007 0.57491,8.04174 l -9.46402,8.51071 c -2.18241,1.96258 -5.48649,1.90115 -8.17414,3.07139 -6.94829,3.02542 -17.4504,5.00234 -25.07084,0.67316 -1.41971,-0.80653 -2.48777,-0.12271 -3.44212,-1.18396 -0.49143,-0.54647 -1.42741,-0.69976 -2.49626,-0.72697 1.51362,2.13015 3.04331,4.02348 4.52274,5.59113 0.0795,0.10602 0.19888,0.19923 0.29716,0.2974 0.0641,0.064 0.11322,0.13426 0.17731,0.19717 0.10076,0.10309 0.22826,0.19908 0.32837,0.29905 0.11755,0.11741 0.2341,0.23085 0.35792,0.33193 0.0508,0.0415 0.0993,0.0631 0.15106,0.10191 1.02078,0.92768 2.06463,1.73086 3.12629,2.41896 2.37949,0.30026 4.89401,0.41914 5.54122,1.13877 0.84709,0.94198 6.5475,1.24431 7.48947,0.39722 0.38903,-0.34984 9.81394,-0.74214 11.64275,-2.38673 2.2208,-1.99711 5.48433,-3.02994 7.78076,-5.09507 4.79003,-4.30753 10.75443,-11.57308 15.8793,-16.18172 8.29488,-7.45934 15.47968,-12.01849 24.0799,-19.75241 0.95093,-0.85514 1.68863,-2.94499 2.70834,-3.86198 3.58124,-3.22051 6.94003,-6.61292 10.08035,-9.51074 2.88842,-5.72325 4.12514,-13.15492 7.11795,-19.1499 1.20816,-2.42008 -0.13583,-8.76491 -1.00753,-10.5056 -0.66749,-1.33291 0.65146,-3.67496 -0.016,-5.00788 -1.83445,-3.66318 -1.96951,-13.50365 -1.16727,-21.6547 1.70949,-2.14471 3.59424,-4.77578 5.65119,-6.8353 0.8771,-0.87819 2.20697,-5.08544 3.10979,-9.66136 -0.0638,-0.19508 -0.14803,-0.34619 -0.22482,-0.48134 -0.75278,-1.32497 -0.14706,-2.58324 -0.69645,-3.97997 -1.44266,-3.66761 -2.67889,-7.86287 -4.62719,-11.29216 -0.88115,-1.55095 -2.68278,-3.69833 -4.89862,-6.17435 -0.60394,-6.5543 -1.73785,-12.36344 -3.18366,-14.90829 -0.54344,-0.95653 -2.03316,-5.65861 -2.31513,-5.91215 -2.26,-2.59807 -5.20612,-4.56438 -7.9651,-6.18052 -2.44495,-1.86259 -5.53174,-2.65968 -7.04997,-2.78354 z"
       id="path2985"
       inkscape:connector-curvature="0" />
    <path
       style="fill:#ffffff;stroke:#000000;stroke-width:1px;stroke-linecap:butt;stroke-linejoin:miter;stroke-opacity:1"
       d="m 349.85071,703.10598 c -5.10149,3.56331 -6.6094,6.73767 -8.42933,10.51566 -6.15706,12.78143 20.09902,22.40443 27.77361,14.50031 12.48943,-12.86293 0.4333,-36.70725 -19.34428,-25.01597 z"
       id="path3095"
       inkscape:connector-curvature="0" />
    <path
       style="fill:#a05a2c;stroke:#000000;stroke-width:1px;stroke-linecap:butt;stroke-linejoin:miter;stroke-opacity:1"
       d="m 358.10942,706.74258 c -14.58272,13.62553 16.46859,21.1214 9.97744,2.56383 -1.64645,-4.70705 -5.51275,-3.18884 -9.97744,-2.56383 z"
       id="path3097"
       inkscape:connector-curvature="0" />
    <path
       style="fill:#ffffff;stroke:#000000;stroke-width:1px;stroke-linecap:butt;stroke-linejoin:miter;stroke-opacity:1"
       d="m 289.89771,705.47429 c 1.53589,-2.60486 4.83141,-5.93378 8.67397,-6.25911 2.51984,1.15998 5.23492,1.71859 7.28893,3.58802 3.04396,2.8378 4.72702,7.5714 2.65358,11.45693 -2.3402,5.04747 -9.21725,8.26574 -14.2534,5.2192 -4.79753,-3.43427 -4.96848,-8.77475 -4.36308,-14.00504 z"
       id="path3099"
       inkscape:connector-curvature="0"
       sodipodi:nodetypes="cccccc" />
    <path
       style="fill:#a05a2c;fill-opacity:1;stroke:#000000;stroke-width:1px;stroke-linecap:butt;stroke-linejoin:miter;stroke-opacity:1"
       d="m 294.35371,705.57618 c -0.82071,0.0361 -1.15944,-0.25551 -2.82926,1.41253 -0.17687,0.17666 0.17625,0.88399 -6.7e-4,1.06066 -2.82219,2.81884 4.39103,6.92116 6.36101,4.95352 3.10627,-3.10256 1.19452,-8.36892 -3.53111,-7.42672 z"
       id="path3275"
       inkscape:connector-curvature="0" />
    <path
       style="fill:#a05a2c;fill-opacity:1;stroke:#000000;stroke-width:1px;stroke-linecap:butt;stroke-linejoin:miter;stroke-opacity:1"
       d="m 387.4855,690.55609 c -2.87751,-0.75345 -6.76021,-7.43683 -9.89385,-14.43475 -0.75389,-1.6835 0.50083,-4.35284 -0.24388,-6.01584 -0.78898,-1.76197 -0.63786,-5.30525 0.29831,-6.99364 1.09303,-1.97125 0.15452,-4.4617 1.75434,-5.93064 1.31252,-1.20514 1.49587,-4.25338 2.7321,-5.38846 2.51089,-2.30546 4.87763,-4.38921 7.74888,-5.67494 1.32094,-0.59151 3.17187,-0.0325 4.03898,-0.82864 2.51228,-2.30673 21.12521,7.62259 23.63728,9.01547 9.75978,5.41159 16.55117,12.79847 24.60324,21.56805 1.46077,1.59092 5.7818,15.10014 7.22568,18.32456 1.88346,4.20605 2.27294,9.45284 4.39885,14.20035 0.64822,1.44755 -0.29682,5.42661 0.7221,6.53672 0.84985,0.92556 0.17494,3.12631 0.80734,4.53852 2.1807,4.86989 1.73665,14.39045 -0.80967,18.98274 0.683,3.32918 -6.94334,18.57557 -9.19542,16.12278 -0.39854,-0.43403 -0.0157,-1.58544 -0.41432,-2.01948 -3.79645,-4.13474 -5.79254,-10.4907 -9.39432,-14.41342 -0.78219,-0.8519 -3.59515,-13.32503 -4.8771,-14.72122 -1.44509,-1.57385 -2.33782,-4.1144 -3.76199,-5.66546 -4.53284,-4.93676 -8.34467,-9.61098 -12.89113,-14.56257 -1.85888,-2.02451 -13.93928,-4.14949 -17.74927,-6.26205 -3.4232,-1.89809 -5.57972,-3.59129 -8.73614,-6.37808 z"
       id="path4449"
       inkscape:connector-curvature="0" />
    <path
       style="fill:#e99f6f;fill-opacity:1;stroke:#000000;stroke-width:1px;stroke-linecap:butt;stroke-linejoin:miter;stroke-opacity:1"
       d="m 339.49348,785.8295 c -0.69222,0.46398 -1.61265,2.08418 -2.07665,1.39197 -0.46398,-0.69221 2.69628,-1.94919 2.07665,-1.39197 -2.36572,2.12741 -3.2933,2.96158 -4.73202,4.25535 -0.34469,0.30997 -0.34177,1.73384 -0.60522,1.97071 -6.56763,5.90609 12.72975,4.09058 5.33724,-6.22606 z"
       id="path4569"
       inkscape:connector-curvature="0" />
    <path
       style="fill:#e99f6f;fill-opacity:1;stroke:#000000;stroke-width:1px;stroke-linecap:butt;stroke-linejoin:miter;stroke-opacity:1"
       d="m 301.9137,786.33993 c 0.46399,0.69222 2.08418,1.61265 1.39197,2.07663 -0.69221,0.464 -1.9492,-2.69626 -1.39197,-2.07663 1.36768,1.52088 1.66678,2.38223 2.3376,3.12819 1.77727,1.97636 3.34864,2.64958 4.25537,4.73202 1.29458,2.9732 -10.97727,1.61209 -6.59297,-7.86021 z"
       id="path4571"
       inkscape:connector-curvature="0" />
    <path
       style="fill:none;stroke:#000000;stroke-width:1px;stroke-linecap:butt;stroke-linejoin:miter;stroke-opacity:1"
       d="m 371,510.09448 c -2.25956,7.49229 42.2252,12.2252 49,19 1.98878,1.98878 8.89515,0.44758 12,2 8.29411,4.14705 28.55106,-2.72447 38,2 2.89559,1.4478 28.86737,-2 35,-2 28.24503,0 55.83948,2.08026 78,-9 6.11276,-3.05638 15.48759,-0.24379 21,-3 9.69463,-4.84731 23.00879,-8.00879 30,-15 2.9803,-2.9803 16.62432,-17 19,-17"
       id="path4801"
       inkscape:connector-curvature="0"
       transform="translate(0,308.2677)" />
    <path
       style="fill:#f4d7d7;fill-opacity:1;stroke:#000000;stroke-width:1px;stroke-linecap:butt;stroke-linejoin:miter;stroke-opacity:1"
       d="m 583.48249,666.60709 c 1.35285,1.72887 4.35334,0.24714 11.32494,-0.49587 3.23888,-0.34518 21.92277,-2.86399 23.27805,-1.76977 1.99543,1.61106 4.302,4.11596 6.29942,5.72863 1.18726,0.95857 1.22284,5.42554 2.15562,6.88138 0.71322,1.11315 0.003,2.70446 -0.32844,3.59056 -1.17047,3.13362 0.25128,11.97973 -1.1639,15.76849 -5.0866,13.61803 -7.06968,34.22643 -14.56312,43.50765 -2.83356,3.5096 -9.8726,7.45204 -13.76275,4.31123 -7.56165,-11.00675 -5.05745,-22.44165 -3.22226,-30.23437 1.37813,-8.54471 -1.78855,-20.08009 -6.84154,-24.15975"
       id="path5253"
       inkscape:connector-curvature="0"
       sodipodi:nodetypes="csssscssccc" />
    <path
       style="fill:#ed3030;fill-opacity:1;stroke:#000000;stroke-width:1px;stroke-linecap:butt;stroke-linejoin:miter;stroke-opacity:1"
       d="M 591.6875 420.78125 C 592.06496 420.63516 592.08272 420.5773 592.46875 420.4375 C 594.3645 419.75095 596.33229 419.17185 598 418.9375 C 598.83385 418.82033 599.57734 418.78547 600.21875 418.875 C 600.86016 418.96453 601.39132 419.17257 601.75 419.53125 C 602.00038 419.78163 603.84922 420.92701 605.6875 421.96875 C 607.52578 423.01049 609.35656 423.95594 609.53125 423.78125 C 609.94785 423.36465 610.51656 421.99464 611.125 420.125 C 611.73344 418.25536 612.36579 415.89384 612.96875 413.46875 C 614.17466 408.61858 615.1875 403.53017 615.1875 401.84375 C 615.1875 400.04373 615.50471 398.24901 615.96875 396.40625 C 616.43279 394.56349 617.03753 392.67503 617.65625 390.71875 C 618.27497 388.76247 618.87971 386.73433 619.34375 384.59375 C 619.80779 382.45317 620.125 380.20817 620.125 377.8125 C 620.125 374.94385 619.96589 372.45459 619.625 370.25 C 619.28411 368.04541 618.75948 366.12258 618.0625 364.375 C 617.36552 362.62742 616.50576 361.06013 615.4375 359.5625 C 614.56586 358.34051 613.47176 357.18074 612.34375 356 C 606.16294 356.42461 597.01635 357.60888 594.8125 357.84375 C 587.8409 358.58676 584.8216 360.07262 583.46875 358.34375 L 586.65625 381.46875 C 591.70924 385.54841 594.87813 397.08029 593.5 405.625 C 592.51017 409.82807 591.38223 415.09775 591.6875 420.78125 z "
       id="path5260"
       transform="translate(0,308.2677)" />
    <path
       style="fill:#a18f54;stroke:#000000;stroke-width:1px;stroke-linecap:butt;stroke-linejoin:miter;stroke-opacity:1;fill-opacity:1"
       d="M 510.03125 199.90625 C 502.29096 199.81611 491.75204 204.14622 486.5 207.8125 C 482.46623 206.31444 475.87296 207.6361 472.34375 208.8125 C 469.39719 209.79469 464.23112 208.52134 460.28125 208.75 C 456.96141 208.20591 452.53932 208.10181 451.84375 207.40625 C 450.69171 206.2542 447.9792 206.51039 446.1875 207.40625 C 444.91364 208.04315 443.07095 206.9603 441.9375 208.09375 C 433.99866 216.03259 429.39795 224.73535 423.5625 236.40625 C 421.1565 241.21825 422.13646 254.07083 420.71875 256.90625 C 419.63076 259.08223 419.69678 264.31525 420.15625 269.90625 C 421.74765 269.42964 423.32056 268.81847 424.90625 268.40625 C 428.97136 267.34949 432.99029 266.50571 436.84375 265.875 C 439.34984 265.46481 441.86716 265.18169 444.375 265 C 446.88284 264.81831 449.37882 264.76126 451.875 264.78125 C 453.91156 264.79756 455.94805 264.89691 457.96875 265.03125 C 457.9513 263.76263 457.86458 262.24408 457.96875 261.21875 C 459.64842 260.34106 460.37575 259.81815 463.15625 257.59375 C 464.89999 258.56234 470.47605 266.86565 473.75 276.6875 C 475.63651 282.34701 482.39442 308.89865 479.40625 314.875 C 477.59225 318.50299 479.77025 324.05326 478 327.59375 C 476.57213 330.44949 477.98926 334.709 476.59375 337.5 C 473.21053 344.26644 472.91632 364.5416 474.71875 376.0625 C 474.72198 376.07037 474.71553 376.0859 474.71875 376.09375 C 475.43919 377.84921 475.875 379.09546 475.875 379.21875 C 475.875 380.58358 477.96516 383.43391 478.71875 384.1875 C 480.76212 386.23087 481.00532 389.28656 482.96875 391.25 C 488.0669 396.34815 492.32587 396.99106 499.21875 400.4375 C 502.02837 401.84231 529.34245 400.4375 534.5625 400.4375 C 540.82425 400.4375 579.81955 401.86795 581.25 400.4375 C 583.01777 398.66973 585.13848 397.26777 586.90625 395.5 C 588.79187 393.61438 588.55188 389.60437 590.4375 387.71875 C 592.08742 386.06884 589.50633 380.18116 591.15625 378.53125 C 595.16211 374.52538 592.50565 364.35017 590.125 357.1875 C 583.65376 353.16679 561.28311 351.65625 552.96875 351.65625 C 550.25541 351.65625 545.67979 353.65239 543.0625 352.34375 C 537.80961 349.7173 532.36159 347.33034 528.90625 343.875 C 527.1885 342.15726 526.83595 338.96096 525.375 337.5 C 520.604 332.729 528.39687 306.19688 531.03125 303.5625 C 532.51644 302.07731 531.77142 298.13956 531.15625 294.375 C 531.96986 290.32503 531.79344 282.30031 533.15625 280.9375 C 535.97492 278.11883 533.23023 271.6021 535.28125 267.5 C 536.97881 264.10488 536 258.03533 536 254.0625 C 536 233.32442 533.90805 213.8143 521.84375 201.75 C 520.65636 200.56261 516.96466 201.77916 515.46875 201.03125 C 513.95546 200.2746 512.10665 199.93042 510.03125 199.90625 z "
       transform="translate(0,308.2677)"
       id="path4938" />
    <path
       style="fill:#665a71;stroke:#000000;stroke-width:1px;stroke-linecap:butt;stroke-linejoin:miter;stroke-opacity:1;fill-opacity:1"
       d="M 422.84375 108.40625 C 416.15511 108.40625 397.63044 110.99456 394.5625 114.0625 C 393.69265 114.93236 390.75257 114.21746 389.625 114.78125 C 388.73845 115.22452 387.37933 116.30005 385.8125 117.53125 C 384.59685 120.19181 383.38802 122.89857 382.03125 124.6875 C 381.01653 126.02546 382.72493 129.50996 382.1875 131.09375 C 379.46723 139.11082 384.83756 166.33173 391.28125 171.21875 C 393.14397 172.63148 393.96145 177.65757 395.9375 179.15625 C 400.8556 182.88625 405.96807 188.0341 412.0625 192.65625 C 416.37455 195.9266 420.8677 201.34207 425.375 204.6875 C 426.27531 206.38974 427.14549 208.08113 427.96875 209.75 C 428.27621 210.37326 428.57852 210.97688 428.875 211.59375 C 428.67142 216.80214 428.45726 222.92602 428.5 222.96875 C 430.97961 225.44837 434.15863 225.79548 437.375 226.28125 C 439.40509 226.58786 441.43957 226.95416 443.34375 227.90625 C 454.96448 233.71661 502.70668 230.79332 509.125 224.375 C 509.47856 224.02144 510.89645 224.72855 511.25 224.375 C 514.40379 221.22121 518.85927 218.85948 521.84375 215.875 C 522.83311 214.88564 523.5297 213.46416 523.9375 211.84375 C 524.81213 210.98236 525.64843 210.06171 526.40625 209.0625 C 528.06962 206.86929 522.07432 198.79854 521.15625 196.9375 C 517.90397 190.34471 516.0888 182.95144 513.25 175.875 C 510.71838 169.56426 504.07073 163.73461 499.4375 158.5 C 496.01606 154.6345 491.18732 149.33936 489.03125 144.96875 C 487.46647 141.79671 475.18451 133.2191 472.09375 130.875 C 465.56636 125.92449 459.98824 118.76171 454.34375 112.28125 C 444.70914 109.5249 431.60006 108.40625 422.84375 108.40625 z "
       transform="translate(0,308.2677)"
       id="path5066" />
    <path
       style="fill:#f72b2b;stroke:#000000;stroke-width:1px;stroke-linecap:butt;stroke-linejoin:miter;stroke-opacity:1;fill-opacity:1"
       d="m 381.14622,128.05974 c -0.0869,2.96286 2.28224,5.03158 3.37,7.75098 1.62907,4.07269 2.4738,8.72866 4.71799,12.46898 4.19702,6.99504 9.42474,15.49073 15.16497,21.23095 1.47969,1.4797 6.81431,7.88232 7.75098,7.41399 2.05214,-1.02607 7.32182,-13.17323 9.09898,-15.83897 4.58371,-6.87556 5.92231,-14.87762 9.43598,-21.90495 0.90064,-1.80128 0.4066,-3.8462 1.348,-5.72899 0.85319,-1.70639 2.83192,-9.16413 1.685,-11.45798 -0.59384,-1.18768 -0.5107,-2.36939 -1.011,-3.36999 -2.43487,-4.86974 -4.27575,-8.31974 -7.41399,-11.45798 -2.59008,-2.59008 1.348,4.95165 1.348,5.72899 0,0.69225 0.89187,2.91387 1.348,3.36999 0.61549,0.6155 0.337,8.0998 0.337,9.09898 0,6.49637 -6.11183,8.80782 -10.10998,12.80598 -0.66313,0.66313 -1.98491,0.6369 -2.696,1.34799 -0.84484,0.84485 -2.67375,2.67376 -3.70699,3.707 -2.55552,2.55551 -8.26688,-2.11145 -10.78398,-3.37 -2.90579,-1.45289 -6.98575,-1.25676 -9.43598,-3.70699 -0.69786,-0.69786 -1.32094,-2.17696 -2.35899,-2.69599 -0.71436,-0.35718 -1.22852,-1.28826 -2.022,-1.685 -0.35633,-0.17817 -11.9965,-3.70699 -6.06599,-3.70699 0.65501,0 0.674,1.12333 1.011,1.68499"
       id="path5929"
       inkscape:connector-curvature="0"
       transform="translate(0,308.2677)" />
    <path
       style="fill:#f9d3c2;fill-opacity:1;stroke:#000000;stroke-width:1;stroke-linecap:butt;stroke-linejoin:miter;stroke-miterlimit:4;stroke-opacity:1;stroke-dasharray:none"
       d="m 421.45684,397.68505 c 1.06494,5.88181 0.94314,11.97189 3.04201,17.65208 1.72875,5.17162 3.47685,10.54772 3.36032,16.04943 -0.75413,3.63266 -4.31827,9.20028 -7.52649,11.12986 -3.60241,3.31945 -5.64849,5.79123 -11.15895,5.49671 -3.83192,-1.22168 -8.02549,-1.67344 -11.54039,-3.61746 -1.62243,-1.48295 -3.98822,-2.97167 -4.45619,-5.21303 -0.6386,-0.0285 -1.29214,0.0549 -1.9158,-0.0853 -0.42723,-0.0961 -1.11726,-1.76738 -1.2733,-2.01423 -3.3309,-5.2691 -7.7756,-11.48304 -6.30619,-18.00294"
       id="path5440"
       inkscape:connector-curvature="0"
       sodipodi:nodetypes="ccccccc" />
    <path
       style="fill:#6c5353;fill-opacity:1;stroke:#000000;stroke-width:1px;stroke-linecap:butt;stroke-linejoin:miter;stroke-opacity:1"
       d="m 321.02648,314.17356 c 0.51309,3.83161 -0.23303,11.08068 2.12132,13.43503 2.5699,2.5699 14.66054,-1.41422 17.67767,-1.41422 4.02599,0 23.4217,-2.43128 25.45584,-1.41421 3.01075,1.50537 14.7187,3.24725 18.38478,1.41421 4.38875,-2.19437 11.49896,-2.12132 16.26346,-2.12132 2.13077,0 12.34265,1.09238 12.72792,0.70711 6.5265,-6.5265 12.81364,-14.58141 19.09188,-20.85965 4.25357,-4.25356 6.39812,-8.51944 9.8995,-12.02082 2.199,-2.19899 0.16724,-8.67159 -0.35356,-9.19238 -2.33179,-2.3318 -12.62162,0.10631 -15.9099,-1e-5 -1.88228,-0.0608 -12.1066,1.81067 -17.32411,1.41422 -3.3634,-0.25556 -12.53936,0.61282 -16.61701,0.35356 -5.84304,-0.37152 -30.04389,1.0525 -31.81981,2.82842 -3.9532,3.9532 -35.26003,26.00247 -39.59798,26.87006 z"
       id="path5089"
       inkscape:connector-curvature="0"
       transform="translate(0,308.2677)"
       sodipodi:nodetypes="csssssssssssssc" />
    <path
       style="fill:#6c5353;fill-opacity:1;stroke:#000000;stroke-width:1px;stroke-linecap:butt;stroke-linejoin:miter;stroke-opacity:1"
       d="m 405.87929,621.73415 c 1.12375,-1.12375 5.65836,2.47336 7.07106,1.06066 3.78606,-3.78606 16.22023,-16.94895 18.73834,-20.5061 1.78261,-2.51816 8.7892,-10.20342 10.96015,-12.37437 1.29828,-1.29828 0.0116,5.3149 0.70711,8.13173"
       id="path5091"
       inkscape:connector-curvature="0"
       sodipodi:nodetypes="csssc" />
    <path
       style="fill:#f9d3c2;fill-opacity:1;stroke:#000000;stroke-width:1px;stroke-linecap:butt;stroke-linejoin:miter;stroke-opacity:1"
       d="m 417.90011,585.6717 c 1.67106,9.35485 -2.20703,-7.49962 0,3.53554 0.81742,4.0871 1.30269,10.71812 -2.12132,14.14213 -0.66847,0.66847 -2.94399,0.82267 -3.53553,1.41422 -1.01905,1.01904 -3.70802,0.0862 -4.94975,0.7071 -3.84612,1.92306 -7.11533,2.82843 -12.02082,2.82843 -1.57566,0 -6.33684,1.44133 -7.07106,0.70711 -1.54922,-1.54922 -1.33951,-4.16793 -2.82843,-5.65686 -1.57117,-1.57117 3.27035,-9.63431 4.24264,-10.6066 8.46282,-8.46282 12.96714,-19.32477 28.28427,-7.07107 z"
       id="path5196"
       inkscape:connector-curvature="0" />
    <path
       style="fill:#6c5353;stroke:#000000;stroke-width:1px;stroke-linecap:butt;stroke-linejoin:miter;stroke-opacity:1"
       d="m 290.62088,558.80165 c 3.6617,12.72788 10.33555,24.91374 15.55635,35.35534 2.67981,5.35961 4.11257,11.76067 6.36396,16.26346 3.42727,6.85454 3.38728,15.40809 7.77818,19.79899 0.23564,0.23564 9.48127,-2.26576 10.6066,-2.82843 4.90382,-2.45191 26.6153,0.12738 32.52691,-2.82843 4.2615,-2.13075 9.71303,2.21456 14.14214,0 4.52369,-2.26185 34.20985,1.14548 36.06244,-0.7071 0.23391,-0.23391 -6.82261,-12.23101 -7.77817,-14.14214 -4.90278,-9.80555 -7.95681,-20.33488 -11.31371,-30.40559 -1.3104,-3.93118 -4.37911,-7.48048 -5.65685,-11.31371 -2.47758,-7.43271 -5.29866,-14.13285 -8.48529,-20.5061 -0.50301,-1.00602 -1.30993,-4.13835 -2.12132,-4.94974 -0.22752,-0.22753 -11.56446,1.89314 -14.84924,3.53553 -1.93759,0.96879 -5.1448,-0.25603 -7.07107,0.70711 -7.58438,3.79219 -17.89354,1.8757 -25.45584,5.65685 -2.87304,1.43652 -7.73356,-0.72941 -10.6066,0.70711 -8.18877,4.09438 -19.63637,5.65685 -29.69849,5.65685 z"
       id="path5087"
       inkscape:connector-curvature="0" />
    <path
       style="fill:#665a71;fill-opacity:1;stroke:#000000;stroke-width:1px;stroke-linecap:butt;stroke-linejoin:miter;stroke-opacity:1"
       d="m 431.10398,142.51372 c -7.97811,13.04106 3.15559,42.74883 0.021,48.67378 -5.99646,11.33446 -12.10309,22.86798 -17.03125,35.09375 -2.37598,5.8943 -3.60005,12.50867 -6.78125,18 -2.90341,5.0118 -3.99178,20.2226 -7.0625,22.9375 -0.49945,0.44158 0.31196,2.37092 -0.1875,2.8125 -0.32887,0.29077 -1.91036,3.25308 -2.6875,5.90625 0.013,0.0151 0.0173,0.0486 0.0312,0.0625 1.7593,1.7593 3.39462,5.59003 5.03125,8.15625 0.99801,0.71267 2.03157,1.41675 3.09375,2.09375 0.007,0.005 0.0238,-0.005 0.0312,0 0.69598,8e-5 1.37071,-0.004 1.71875,0.34375 3.48399,3.48399 10.85193,-0.41578 15.46875,-4.46875 0.9708,-3.71127 2.03415,-8.19167 2.6875,-9.8125 4.83303,-11.98977 19.25082,-24.32334 23.13273,-36.59375 5.26001,-16.62648 5.57922,-26.97302 12.92476,-39.65276 3.69183,-6.37277 -0.43946,-16.10396 0.6115,-22.03975 0.30234,-1.70765 4.51775,-11.64228 -2.29972,-21.82164"
       transform="translate(0,308.2677)"
       id="path5096"
       inkscape:connector-curvature="0"
       sodipodi:nodetypes="cssssccscccccssssc" />
    <path
       style="fill:#f4d7d7;fill-opacity:1;stroke:#000000;stroke-width:1px;stroke-linecap:butt;stroke-linejoin:miter;stroke-opacity:1"
       d="M 591.6875 420.78125 C 591.94822 425.63526 593.23554 430.80483 596.71875 435.875 C 600.6089 439.01581 607.66644 435.0721 610.5 431.5625 C 617.99344 422.28128 619.9759 401.64928 625.0625 388.03125 C 626.47768 384.24249 625.04828 375.41487 626.21875 372.28125 C 626.55019 371.39515 627.24447 369.80065 626.53125 368.6875 C 625.59847 367.23166 625.56226 362.77107 624.375 361.8125 C 622.37758 360.19983 620.08918 357.67356 618.09375 356.0625 C 617.66065 355.71283 615.24655 355.80058 612.34375 356 C 613.47176 357.18074 614.56586 358.34051 615.4375 359.5625 C 616.50576 361.06013 617.36552 362.62742 618.0625 364.375 C 618.75948 366.12258 619.28411 368.04541 619.625 370.25 C 619.96589 372.45459 620.125 374.94385 620.125 377.8125 C 620.125 380.20817 619.80779 382.45317 619.34375 384.59375 C 618.87971 386.73433 618.27497 388.76247 617.65625 390.71875 C 617.03753 392.67503 616.43279 394.56349 615.96875 396.40625 C 615.50471 398.24901 615.1875 400.04373 615.1875 401.84375 C 615.1875 403.53017 614.17466 408.61858 612.96875 413.46875 C 612.36579 415.89384 611.73344 418.25536 611.125 420.125 C 610.51656 421.99464 609.94785 423.36465 609.53125 423.78125 C 609.35656 423.95594 607.52578 423.01049 605.6875 421.96875 C 603.84922 420.92701 602.00038 419.78163 601.75 419.53125 C 601.39132 419.17257 600.86016 418.96453 600.21875 418.875 C 599.57734 418.78547 598.83385 418.82033 598 418.9375 C 596.33229 419.17185 594.3645 419.75095 592.46875 420.4375 C 592.08272 420.5773 592.06496 420.63516 591.6875 420.78125 z "
       id="path5277"
       transform="translate(0,308.2677)" />
    <path
       style="fill:none;stroke:#ffffff;stroke-width:1px;stroke-linecap:butt;stroke-linejoin:miter;stroke-opacity:1"
       d="m 591.84838,410.34008 c 0.94281,-0.70711 2.12132,-3.06413 2.82842,-2.12132 0.70711,0.94281 -4.00694,2.12132 -2.82842,2.12132 4.01988,0 6.20111,-4.24264 9.19238,-4.24264 2.96199,0 7.77818,-1.48594 7.77818,-1.41421 0,0.38288 -3.00209,-0.17366 -4.94975,-2.12132 -0.33351,-0.33351 -11.3415,-2.09353 -9.89949,-3.53554 0.65606,-0.65607 13.43503,-4.77869 13.43503,-5.65685 0,-0.0414 -14.14214,0.48777 -14.14214,-1.41421 0,-0.28714 13.43503,-6.50538 13.43503,-8.48529 0,-0.34934 -2.79584,1.41422 -5.65686,1.41422 -5.39624,0 -9.68795,-0.42308 -10.6066,1.41421"
       id="path5279"
       inkscape:connector-curvature="0"
       transform="translate(0,308.2677)" />
    <path
       style="fill:#f9d3c2;fill-opacity:1;stroke:#000000;stroke-width:1;stroke-linecap:butt;stroke-linejoin:miter;stroke-opacity:1;stroke-miterlimit:4;stroke-dasharray:none"
       d="m 381.58709,348.43055 c -9.20437,1.65788 -18.11321,6.03225 -25.63268,11.40797 -5.08677,6.13721 -6.26671,12.0651 -8.37863,19.82051 -1.67163,9.20351 -0.8194,19.97534 5.50001,27.5963 1.25797,10.36373 5.38148,20.15392 11.74071,27.21978 5.495,7.87939 8.18255,13.46277 18.52434,11.83149 8.73386,-1.25115 9.60713,-0.52057 15.24442,-8.08586 8.25144,-7.7928 10.85669,-14.93865 17.11508,-26.80071 7.26008,-6.81953 15.05389,-17.96758 12.02947,-27.4952 -2.13653,-11.10769 -12.69189,-16.53973 -19.79529,-24.09343 -7.7116,-6.28454 -16.24069,-10.79384 -26.34743,-11.40085 z"
       id="path5325"
       inkscape:connector-curvature="0"
       sodipodi:nodetypes="ccccccccccc" />
    <path
       style="fill:none;stroke:#000000;stroke-width:1;stroke-linecap:butt;stroke-linejoin:miter;stroke-opacity:1;stroke-miterlimit:4;stroke-dasharray:none"
       d="m 360.67776,408.73031 c -1.15715,0.0981 -3.21673,1.35402 -3.67209,2.72006 -0.22237,0.66712 0.10867,1.19676 0.54401,1.63204 3.42231,3.42231 13.29169,-2.52522 6.52816,-4.21609 -1.2086,-0.30215 -2.14808,-0.63682 -3.40008,-0.13601 z"
       id="path5791"
       inkscape:connector-curvature="0" />
    <path
       style="fill:#6c5353;fill-opacity:1;stroke:#000000;stroke-width:1;stroke-linecap:butt;stroke-linejoin:miter;stroke-opacity:1;stroke-miterlimit:4;stroke-dasharray:none"
       d="m 384.36942,345.32717 c -6.72681,0.19915 -12.9511,5.06655 -18.37056,7.77628 -1.85145,0.92572 -14.75922,7.57507 -14.98182,8.16866 -6.6943,5.55405 -13.77284,35.27094 -7.88329,47.05005 0.11164,0.22327 0.82043,-3.31633 0.82043,-6.24243 0,-4.73989 1.5149,-9.32232 2.42563,-13.87602 0.25408,-1.27037 0.69314,-2.29343 1.1058,-3.53142 0.1097,-0.32895 0.20746,-1.21215 0.2497,-1.42684 10e-4,0.0151 0.0356,9.9e-4 0.0356,0.0357 0,1.86905 -0.45651,3.63805 -0.82043,5.45766 -0.65167,3.25837 0,6.80691 0,10.05922 0,0.5765 0.0312,3.8168 0.53506,3.8168 0.33584,0 0.62312,-2.60175 0.82044,-2.99637 1.8218,-3.64361 2.09636,-6.16285 4.35186,-8.41835 0.59045,-0.59045 0.25039,3.12086 1.64087,2.42563 1.44719,-0.7236 4.88054,-7.59793 5.42199,-7.59793 0.68633,0 -0.25637,4.87243 0.28536,4.60156 0.62458,-0.31229 4.28442,-8.48581 4.88693,-7.88329 0.92284,0.92284 -0.76595,4.12098 0.28537,5.1723 1.18202,1.18201 2.0128,-3.85769 2.99636,-1.89057 0.26497,0.52993 0.58882,3.78113 1.3555,3.78113 0.90287,0 1.5143,-4.60156 1.6052,-4.60156 0.80791,0 1.68403,6.11383 3.5671,5.17229 1.91088,-0.95543 1.14077,-4.13714 2.17593,-5.17229 0.23527,-0.23527 4.06412,5.17467 5.70736,3.53143 0.60745,-0.6074 0.0721,-5.45766 0.24975,-5.45766 0.37383,0 0.11815,0.77143 0.28537,1.1058 0.41366,0.82731 1.62155,2.04142 2.4613,2.4613 3.14052,1.57025 8.59005,2.41152 11.94978,3.53142 0.19345,0.0645 0.40641,0.12293 0.60641,0.17836 0.6416,1.46915 3.1603,2.86773 4.03082,4.17351 0.65336,0.98004 4.56362,6.28037 4.88693,5.95705 0.10353,-0.10355 -0.88178,-4.12784 -0.53507,-3.78112 1.55615,1.55614 1.59798,4.30897 3.24606,5.95705 1.91336,1.91335 0.28537,-6.02475 0.28537,-6.24242 0,-0.30064 -0.22699,-2.23431 0,-2.4613 0.53109,-0.53109 1.60168,0.0392 1.64087,0 0.12022,-0.12021 0.31201,-0.72403 0.53506,-1.42684 1.30449,0.53394 2.66876,0.96093 4.0665,1.42684 0.0216,0.007 0.0495,-0.007 0.0713,0 0.30515,0.77659 0.62543,1.51721 1.03446,1.92623 0.5337,0.53372 1.2422,-1.21909 1.3555,-1.1058 0.20274,0.20275 0.12146,0.56399 0.24969,0.82044 1.49274,2.98548 -2.96816,13.08379 -1.07013,14.98182 0.64888,0.64888 3.01039,-3.28174 3.53143,-3.28174 0.49378,0 -0.87068,4.0527 -1.07013,4.35187 -0.43481,0.6522 -1.81971,9.38098 -1.39117,9.80952 0.32705,0.32704 2.04014,-2.57521 2.4613,-2.99636 0.71057,-0.71058 0.87581,-1.16118 1.3555,-1.64087 0.21462,-0.21462 1.04127,1.014 1.92623,-1.64087 0.0872,-0.26155 0.99968,-2.99636 1.07013,-2.99636 0.4295,0 -0.0152,4.16821 1.1058,1.92623 0.93065,-1.86128 1.29969,-4.53714 1.42684,-7.34822 0.60688,-0.19742 1.36572,-1.30461 1.53386,-1.64087 1.18024,-2.3605 1.64086,-5.53761 1.64086,-8.16866 0,-1.00152 -0.31686,-2.58082 0,-3.53142 2.57474,-7.72421 -1.55685,-14.31439 -4.60156,-20.40382 -0.21761,-0.43521 -0.8882,-0.63491 -1.1058,-1.07012 -0.46704,-0.9341 -1.63732,-2.74491 -2.71099,-3.28174 -1.65354,-0.82677 -3.00093,-2.42791 -4.63723,-3.24606 -0.89615,-0.44807 -0.95402,-1.70766 -1.89057,-2.17593 -2.13414,-1.06707 -4.78492,-3.14405 -6.52779,-4.88693 -1.9487,-1.94869 -4.44384,-3.99701 -7.06286,-5.74303 -1.21758,-0.81172 -3.08571,-1.40918 -4.10216,-2.42562 -1.7701,-1.77011 -4.26238,-3.34703 -6.52779,-4.10217 -0.98187,-0.32729 -2.26612,0.0769 -3.24606,-0.2497 -1.59951,-0.53317 -3.1919,-0.75937 -4.74425,-0.71342 z"
       id="path5589"
       inkscape:connector-curvature="0"
       sodipodi:nodetypes="sscsssscsssscssssssssssssscsscscssssccscsccsssssscssccsssssssssssss" />
    <path
       style="fill:none;stroke:#000000;stroke-width:1;stroke-linecap:butt;stroke-linejoin:miter;stroke-opacity:1;stroke-miterlimit:4;stroke-dasharray:none"
       d="m 353.7416,408.32231 c -0.67029,-0.65642 -2.72306,0.272 -5.16813,0.272"
       id="path5527"
       inkscape:connector-curvature="0" />
    <path
       style="fill:#6c5353;fill-opacity:1;stroke:#000000;stroke-width:1;stroke-linecap:butt;stroke-linejoin:miter;stroke-opacity:1;stroke-miterlimit:4;stroke-dasharray:none"
       d="m 360.67776,410.90637 c -1.80723,0.62346 1.44611,-0.57271 -0.68002,0.13599 -0.19879,0.0662 -0.47244,0.47246 -0.54401,0.54402 -1.32213,1.32213 0.20507,2.47037 1.49603,2.04005 3.01502,-1.00501 1.96103,-3.61327 -0.272,-2.72006 z"
       id="path5849"
       inkscape:connector-curvature="0" />
    <path
       style="fill:#ffffff;fill-opacity:0.44493396000000002;stroke:#000000;stroke-width:1;stroke-linecap:butt;stroke-linejoin:miter;stroke-opacity:1;stroke-miterlimit:4;stroke-dasharray:none"
       d="m 360.52482,400.85313 c -0.41346,0.14043 -5.17979,1.48101 -7.26429,5.64999 -4.04205,8.08413 5.35725,16.77854 13.31787,14.12501 1.31399,-0.43801 3.1775,-2.77395 4.0357,-3.63214 6.17984,-6.17985 -2.5721,-20.65317 -10.08928,-16.14286 z"
       id="path5371"
       inkscape:connector-curvature="0" />
    <path
       style="fill:#f9d3c2;fill-opacity:1;stroke:#000000;stroke-width:1;stroke-linecap:butt;stroke-linejoin:miter;stroke-opacity:1;stroke-miterlimit:4;stroke-dasharray:none"
       d="m 374.36894,409.36362 c -2.75124,2.25592 -1.09087,5.81387 -2.42143,8.47501 -0.51398,1.02794 0.0966,2.63197 -0.40357,3.63214 -2.61182,5.22363 4.6946,7.81612 8.47499,4.03571 1.43001,-1.43001 4.24475,0.50084 6.05358,-0.40357 1.44064,-0.72032 1.51317,-3.68269 0,-4.43928"
       id="path5356"
       inkscape:connector-curvature="0" />
    <path
       style="fill:#6c5353;fill-opacity:1;stroke:#000000;stroke-width:1;stroke-linecap:butt;stroke-linejoin:miter;stroke-opacity:1;stroke-miterlimit:4;stroke-dasharray:none"
       d="m 387.47039,406.96227 c -2.18188,0.85312 -2.36257,2.47655 0,3.26408 0.32627,0.10878 0.96024,0.26927 1.36004,0.13601 3.00173,-1.00058 1.68565,-3.40009 -1.36004,-3.40009 z"
       id="path5823"
       inkscape:connector-curvature="0" />
    <path
       style="fill:none;stroke:#000000;stroke-width:1;stroke-linecap:butt;stroke-linejoin:miter;stroke-opacity:1;stroke-miterlimit:4;stroke-dasharray:none"
       d="m 388.01442,405.05822 c -1.80782,0.26726 -4.40769,1.60131 -3.6721,3.8081 0.13775,0.41323 0.23705,0.92871 0.68003,1.22403 1.75893,1.17263 4.61196,0.77473 6.52815,0.136 1.54896,-0.51632 3.77233,-2.0758 2.17605,-3.67208 -0.31826,-0.31826 -0.80345,-0.81184 -1.22403,-0.95204 -1.41378,-0.47125 -2.96007,-0.54401 -4.4881,-0.54401 z"
       id="path5793"
       inkscape:connector-curvature="0" />
    <path
       style="fill:#ffffff;fill-opacity:0.44493396000000002;stroke:#000000;stroke-width:1;stroke-linecap:butt;stroke-linejoin:miter;stroke-opacity:1;stroke-miterlimit:4;stroke-dasharray:none"
       d="m 385.6423,397.08941 c -3.56496,1.48387 -6.05357,5.04745 -6.05357,9.28214 0,10.54627 17.40964,15.22357 21.38928,7.26428 4.29827,-8.59654 -6.20094,-22.02728 -15.33571,-16.54642 z"
       id="path5386"
       inkscape:connector-curvature="0" />
    <path
       style="fill:none;stroke:#000000;stroke-width:1;stroke-linecap:butt;stroke-linejoin:miter;stroke-opacity:1;stroke-miterlimit:4;stroke-dasharray:none"
       d="m 398.153,400.4673 c 6.26846,-2.31238 17.86376,-12.80767 21.79286,-8.87856"
       id="path5390"
       inkscape:connector-curvature="0" />
    <path
       style="fill:none;stroke:#000000;stroke-width:1;stroke-linecap:butt;stroke-linejoin:miter;stroke-opacity:1;stroke-miterlimit:4;stroke-dasharray:none"
       d="m 369.38577,404.28488 c 2.11866,-1.79322 5.70228,-3.56304 8.49417,-2.50515 0.1717,0.0649 0.674,-0.195 0.81181,-0.0826 0.64352,0.5246 1.60175,1.12726 2.33016,1.40327"
       id="path5429"
       inkscape:connector-curvature="0" />
    <path
       style="fill:none;stroke:#000000;stroke-width:1;stroke-linecap:butt;stroke-linejoin:miter;stroke-opacity:1;stroke-miterlimit:4;stroke-dasharray:none"
       d="m 371.42202,433.3469 c 0.36268,0 0.7324,0.0711 1.08802,0 2.04643,-0.40929 4.31678,-1.73377 6.52816,-2.17605 1.39208,-0.27841 7.08938,-0.14461 7.88819,-0.54401 0.51508,-0.25754 0.71885,-0.54402 1.36003,-0.54402"
       id="path5497"
       inkscape:connector-curvature="0" />
    <path
       style="fill:#6c5353;fill-opacity:1;stroke:#000000;stroke-width:1;stroke-linecap:butt;stroke-linejoin:miter;stroke-opacity:1;stroke-miterlimit:4;stroke-dasharray:none"
       d="m 372.78204,428.17877 c -3.59858,0.64282 2.88493,-0.84899 -1.36004,0 -0.84809,0.16962 -2.2017,5.46579 -0.81601,4.0801 0.95011,-0.95012 3.21622,-1.31218 4.0801,-2.17606 0.5029,-0.5029 1.33974,0.69017 1.63204,0.54402 0.72514,-0.36257 1.06587,-1.34896 1.63203,-1.63203 0.44512,-0.22257 5.99159,-1.08803 6.80016,-1.08803 1.48284,0 3.27011,-0.27202 4.35211,-0.27202 0.46232,0 1.36003,0.73434 1.36003,0.27202 0,-0.37671 -2.639,-1.24235 -2.99207,-1.36004 -1.46337,-0.48779 -4.91997,-1.62012 -6.52816,-0.81602 -0.60088,0.30045 -2.08411,0.81602 -2.44805,0.81602 -2.34874,0 -3.54818,-0.0991 -5.71214,1.63204 z"
       id="path5525"
       inkscape:connector-curvature="0" />
    <path
       style="fill:#f9d3c2;fill-opacity:1;stroke:#000000;stroke-width:1;stroke-linecap:butt;stroke-linejoin:miter;stroke-opacity:1;stroke-miterlimit:4;stroke-dasharray:none"
       d="m 412.49499,395.26599 c -1.07946,-1.50481 -0.70504,-3.69677 0.62465,-4.91787 0.5956,-1.00598 0.96197,-2.13976 2.01847,-2.78578 1.05974,-1.3322 2.72778,-1.20678 4.22193,-1.65849 1.59607,0.0911 2.68965,1.58087 3.41303,2.85657 0.66273,1.29782 1.88924,2.33249 1.41973,3.91744 0.30344,1.27217 0.87835,2.90336 -0.58132,3.72904 -1.00198,1.23993 -3.06472,2.55572 -2.33548,4.37967 0.7279,1.16124 1.68055,2.89025 0.26094,3.94896 -1.48639,1.29557 -3.36517,2.8528 -5.47164,2.24833 -1.4442,-0.56217 -2.33513,-2.37943 -1.66627,-3.82966"
       id="path5529"
       inkscape:connector-curvature="0" />
    <path
       style="fill:none;stroke:#000000;stroke-width:1;stroke-linecap:butt;stroke-linejoin:miter;stroke-opacity:1;stroke-miterlimit:4;stroke-dasharray:none"
       d="m 413.85502,394.99399 c 0.0906,-0.36268 -0.0906,-1.1787 0.27202,-1.08803 0.36267,0.0907 -0.27202,1.46186 -0.27202,1.08803 0,-0.4054 0.56455,-3.28462 0.81602,-3.53609 2.26685,-2.26684 7.39956,0.76064 5.71214,2.44806 -0.83658,0.83658 -1.40272,1.98943 -2.17605,3.53608 -0.45608,0.91216 0.90461,2.90348 0.27201,3.53609 -1.02152,1.02151 -4.06088,-0.50556 -3.26409,1.08802"
       id="path5533"
       inkscape:connector-curvature="0" />
    <path
       style="fill:none;stroke:#000000;stroke-width:1;stroke-linecap:butt;stroke-linejoin:miter;stroke-opacity:1;stroke-miterlimit:4;stroke-dasharray:none"
       d="m 411.40697,396.08201 c 3.71064,4.22402 0.81601,1.51175 0.81601,5.44013"
       id="path5535"
       inkscape:connector-curvature="0" />
    <path
       style="fill:#6c5353;fill-opacity:1;stroke:#000000;stroke-width:1;stroke-linecap:butt;stroke-linejoin:miter;stroke-opacity:1;stroke-miterlimit:4;stroke-dasharray:none"
       d="m 357.54968,424.37068 c 0.0906,0.36268 0.63469,0.99736 0.27201,1.08803 -0.36267,0.0906 -0.27201,-1.46186 -0.27201,-1.08803 0,6.07087 1.80061,2.34462 2.44806,2.99207 0.73006,0.73007 0.25905,2.70712 1.08803,3.53609 0.40801,0.40801 1.76804,-0.13601 2.17605,0.27201 0.31734,0.31734 -0.31735,1.58671 0,1.90405 0.35643,0.35642 0.76011,0.16018 1.08802,0.81601 0.14269,0.28538 -0.2171,1.14293 0,1.36003 0.3891,0.38909 1.29479,0.14151 1.63205,0.81603 0.22934,0.4587 -0.34868,1.82738 0,2.17604 0.47576,0.47577 1.28064,-0.35139 1.63204,0 0.70712,0.70713 -0.21155,1.93428 0.81601,2.44806 0.46155,0.23077 0.89128,-0.74076 1.36003,-0.272 0.50948,0.50946 -0.0202,2.15585 0.54402,2.72006 0.48429,0.4843 1.79782,-0.10627 2.17605,0.27201 0.70123,0.70123 -0.17389,2.54618 0.54402,3.26407 0.81263,0.81264 2.62552,-0.272 3.26407,-0.272 0.27771,0 1.19997,1.24809 1.36003,1.08803 0.61769,-0.61768 0.55938,-0.81603 1.90404,-0.81603 0.36383,0 0.39709,0.33455 0.81603,0.54402 0.0805,0.0402 3.14409,-0.076 3.53609,-0.272 0.79786,-0.39894 1.55522,-1.67046 2.72006,-1.08803 0.46364,0.23182 2.38921,1.41888 2.72007,1.08803 0.47126,-0.47128 1.12985,-1.12987 1.63203,-1.63205 0.49868,-0.49867 2.22138,0.22668 2.72007,-0.272 0.66502,-0.66503 0.75776,-2.38982 1.63203,-3.26408 1.21032,-1.21033 3.38102,-2.837 4.35211,-3.80809 0.58445,-0.58446 0.33496,-2.23901 0.81602,-2.72007 0.56658,-0.56658 1.7036,-0.9544 2.72007,-1.63203 1.45274,-0.9685 2.27188,-2.81591 2.99206,-3.53609 0.73955,-0.73953 -0.60132,-2.66275 0,-3.26408 0.49868,-0.49868 1.40537,-0.58934 1.90405,-1.08802 1.20198,-1.20199 0.13375,-5.97963 0.54402,-6.80017 0.41975,-0.83952 1.85476,-1.58275 2.44806,-2.17604 0.17832,-0.17832 0.13572,-0.95175 0.272,-1.08803 0.47765,-0.47765 1.27518,-1.19034 1.63204,-1.90405 0.30478,-0.60956 -0.0452,-1.54162 0.272,-2.17605 0.19603,-0.39204 2.22753,-1.03655 1.90404,-1.36003 -0.66644,-0.66645 -0.63485,-1.54173 -1.08801,-2.44806 -0.26003,-0.52005 -1.09091,-0.27488 -1.36004,-0.54401 -0.40801,-0.40801 0.136,-1.76804 -0.27201,-2.17605 -0.0804,-0.0804 -1.89327,-1.90405 -1.90404,-1.90405 -0.55152,0 0.82352,1.63204 0.272,1.63204 -0.55209,0 -2.03706,-2.85906 -2.72006,-2.17605 -1.64628,1.64628 0.54402,2.43165 0.54402,2.99207 0,0.37384 -0.82369,0.008 -1.08803,0.27201 -0.66691,0.6669 1.23712,1.78113 1.36003,1.90404 0.63008,0.63008 -1.4575,0.8931 -1.08803,1.63204 0.87906,1.75811 1.32809,2.20799 0,3.53608 -0.49581,0.49581 0.85284,1.32322 0.27201,1.90405 -0.78948,0.78948 -1.69036,1.47667 -2.17605,2.44806 -0.14507,0.29014 0.14507,0.79788 0,1.08802 -0.88496,1.76993 -3.1182,1.48615 -4.0801,2.44807 -0.54043,0.54043 -0.54759,1.63561 -1.08803,2.17604 -0.66823,0.66823 -2.24864,0.0726 -2.72006,0.54402 -0.54658,0.54658 1.74176,2.61034 0.81601,3.53608 -0.67975,0.67976 -2.70494,-0.83113 -3.26407,-0.27201 -1.02817,1.02818 -0.4244,3.41648 -1.36003,4.35211 -0.74703,0.74703 -2.53828,-1.26982 -2.72007,-1.08803 -0.64495,0.64496 -0.2468,2.96687 -0.81601,3.53609 -0.77069,0.77068 -3.30942,-0.22667 -4.0801,0.54401 -0.63637,0.63637 0.53042,1.91084 -0.54402,2.44806 -0.27278,0.13638 -4.0065,-1.01444 -4.0801,-1.08803 -0.0551,-0.0551 -0.36512,-0.9949 -0.544,-0.81602 -1.50333,1.50333 -3.65006,3.69412 -6.25616,1.08802 -0.25787,-0.25787 -1.62843,1.09163 -2.17604,0.54402 -0.20562,-0.2056 -0.11801,-0.54402 -0.54402,-0.54402 -0.79924,0 -2.40888,1.10762 -2.99207,0.81603 -0.93203,-0.46602 -0.84675,-1.91942 -1.90404,-2.44806 -0.41657,-0.20828 -2.63488,-1.00284 -2.72007,-1.08802 -0.65844,-0.65844 -0.17711,-2.08117 -0.81602,-2.72007 -1.03134,-1.03134 -1.49444,-2.03845 -2.72007,-3.26408 -0.80394,-0.80394 -2.80729,-0.59872 -3.26407,-1.36003 -0.25122,-0.41869 -0.0557,-1.36004 -0.54402,-1.36004 -0.60822,0 -0.38594,2.06213 -0.81601,1.63204 -0.12194,-0.12194 1.07766,-2.24254 1.63203,-3.53608"
       id="path5623"
       inkscape:connector-curvature="0" />
    <path
       sodipodi:type="inkscape:offset"
       inkscape:radius="0.98251337"
       inkscape:original="M 371.8125 242.0625 C 371.10833 242.22345 370.33214 243.1875 370.3125 243.1875 C 369.4076 243.1875 370.87399 241.4881 368.40625 242.96875 C 368.36195 244.28773 369.21403 249.53597 371.03125 247.71875 C 371.82875 246.92124 369.57292 245.61458 370.5625 244.625 C 372.13547 243.05203 372.13907 246.23282 372.6875 246.78125 C 372.91908 247.01283 373.32874 246.53125 373.65625 246.53125 C 373.75435 246.53125 374.31192 246.59435 374.375 246.53125 C 374.4509 246.45525 373.48812 245.26189 374.59375 244.15625 C 375.58513 243.16488 375.71282 247.81844 378.1875 245.34375 C 378.95912 244.57214 376.73738 242.73738 376.5 242.5 C 375.46454 241.46454 373.7585 242.83525 373.40625 243.1875 C 373.31165 243.2821 372.52686 242.30811 372.46875 242.25 C 372.2783 242.05955 372.04722 242.00885 371.8125 242.0625 z M 363.78125 243.59375 C 363.73675 243.60495 363.67404 243.6467 363.625 243.6875 C 363.19351 244.04707 362.83466 244.47784 362.4375 244.875 C 362.77426 246.50602 364.99936 254.15625 365.78125 254.15625 C 368.21315 254.15625 366.13414 250.11203 365.53125 248.90625 C 365.33091 248.50557 365.50975 247.89461 365.3125 247.5 C 364.50978 245.89456 365.92285 248.11036 366.25 248.4375 C 367.06842 249.25593 368.5658 247.35035 368.15625 246.53125 C 367.73614 245.69102 366.59356 244.46855 366.03125 243.90625 C 365.63409 243.50909 364.74091 244.55341 364.34375 244.15625 C 364.27985 244.09235 364.09282 243.51557 363.78125 243.59375 z M 358.53125 244.96875 C 357.56633 245.04625 357.05177 246.3125 356.375 246.3125 C 356.21614 246.3125 356.48733 245.92484 356.375 245.8125 C 356.15576 245.59326 355.91346 245.34375 355.40625 245.34375 L 353.5 246.3125 C 354.11262 247.53718 354.07092 249.38369 356.375 251.3125 C 356.80927 251.09536 357.56937 251.05563 357.8125 250.8125 C 358.01056 250.61444 357.34964 250.38089 357.3125 250.34375 C 357.03293 250.06418 356.89332 249.20582 356.59375 248.90625 C 355.69091 248.00342 357.86164 246.86163 358.5 247.5 C 359.62435 248.62434 358.98948 250.83338 360.90625 249.875 C 361.19346 249.73139 361.63244 249.8363 361.84375 249.625 C 362.01057 249.45818 360.45512 246.08012 360.1875 245.8125 C 359.51774 245.14274 358.96985 244.93353 358.53125 244.96875 z M 364.84375 245.34375 C 367.73778 245.92256 364.33126 246.88531 364.84375 245.34375 z "
       style="fill:#ff0000;stroke:#000000;stroke-width:0.50000000000000000;stroke-linecap:butt;stroke-linejoin:miter;stroke-miterlimit:4;stroke-opacity:1;stroke-dasharray:none"
       id="path5660"
       d="m 371.59375,241.09375 c -0.52376,0.11971 -0.79818,0.40604 -1.09375,0.65625 -0.0747,-0.0793 -0.0838,-0.16269 -0.1875,-0.21875 -0.35399,-0.19128 -0.67114,-0.17639 -0.90625,-0.125 -0.47022,0.10279 -0.84878,0.32801 -1.5,0.71875 a 0.98261162,0.98261162 0 0 0 -0.46875,0.8125 c -0.0118,0.35105 0.18894,0.99993 0.25,1.5 -0.3624,-0.40571 -0.7176,-0.9676 -0.96875,-1.21875 -0.38172,-0.38172 -0.99707,-0.42131 -1.3125,-0.34375 -0.28462,0.07 -0.44112,0.17161 -0.59375,0.25 -0.0725,-0.0921 -0.10916,-0.18168 -0.25,-0.28125 -0.2235,-0.15801 -0.65424,-0.2821 -1.03125,-0.1875 -0.39307,0.0989 -0.41897,0.18783 -0.53125,0.28125 -0.52215,0.43512 -0.89478,0.89478 -1.25,1.25 a 0.98261162,0.98261162 0 0 0 -0.28125,0.875 c 0.0966,0.46791 0.47969,1.73507 0.75,2.6875 -0.0593,-0.13806 -0.0933,-0.26525 -0.15625,-0.40625 -0.20676,-0.46291 -0.403,-0.90478 -0.59375,-1.28125 -0.0954,-0.18823 -0.19988,-0.35805 -0.28125,-0.5 -0.0814,-0.14195 -0.0819,-0.2069 -0.3125,-0.4375 -0.78686,-0.78686 -1.62439,-1.19029 -2.4375,-1.125 -0.82914,0.0666 -1.33382,0.53002 -1.6875,0.875 -0.305,-0.24013 -0.73371,-0.5 -1.34375,-0.5 a 0.98261162,0.98261162 0 0 0 -0.4375,0.0937 l -1.90625,0.96875 a 0.98261162,0.98261162 0 0 0 -0.4375,1.3125 c 0.42786,0.85533 0.57978,3.18183 3.125,5.3125 a 0.98261162,0.98261162 0 0 0 1.0625,0.125 c 0.0335,-0.0167 0.29914,-0.0839 0.59375,-0.15625 0.29461,-0.0724 0.62911,-0.0666 1.09375,-0.53125 0.15549,-0.15549 0.3343,-0.42238 0.34375,-0.71875 0.009,-0.29637 -0.12257,-0.54797 -0.21875,-0.6875 -0.19235,-0.27907 -0.34261,-0.32994 -0.46875,-0.40625 -0.0757,-0.0458 -0.12881,-0.0645 -0.1875,-0.0937 0.044,0.0269 -0.004,-0.0733 -0.0937,-0.3125 -0.0797,-0.21328 -0.24554,-0.49327 -0.4375,-0.78125 0.0266,-0.0268 0.012,3.2e-4 0.0625,-0.0312 0.12328,-0.077 0.26937,-0.13909 0.375,-0.15625 0.22839,0.29522 0.35516,0.8017 0.625,1.5 0.1465,0.37912 0.41486,0.91279 1.03125,1.15625 0.61639,0.24346 1.21767,0.0787 1.8125,-0.21875 -0.12108,0.0605 -0.0512,0.0219 0.15625,0 0.20749,-0.0219 0.62755,-0.0338 1.03125,-0.4375 0.35372,-0.35372 0.27477,-0.50818 0.25,-0.65625 0.0984,0.31276 0.11615,0.4693 0.21875,0.78125 0.35341,1.07449 0.71582,2.07986 1.0625,2.875 0.17334,0.39757 0.34353,0.73883 0.53125,1.03125 0.0939,0.14621 0.1922,0.29335 0.34375,0.4375 0.15155,0.14415 0.39433,0.34375 0.84375,0.34375 0.44015,0 0.88043,-0.0736 1.25,-0.3125 0.36957,-0.2389 0.62384,-0.63527 0.75,-1 0.25231,-0.72947 0.13634,-1.39373 -0.0312,-2.0625 -0.22655,-0.9041 -0.58194,-1.54175 -0.90625,-2.21875 0.13502,-0.006 0.28984,0.0357 0.40625,0 0.50209,-0.15392 0.85787,-0.44709 1.15625,-0.78125 0.18529,-0.20751 0.27584,-0.47419 0.40625,-0.71875 0.15316,0.22297 0.19984,0.50497 0.4375,0.6875 0.32126,0.24673 0.80408,0.41112 1.28125,0.34375 0.47717,-0.0674 0.86317,-0.33192 1.1875,-0.65625 0.24594,-0.24594 0.36284,-0.57475 0.40625,-0.90625 0.28734,0.21179 0.68921,0.35356 0.9375,0.3125 0.28059,-0.0464 0.41552,-0.12608 0.53125,-0.1875 0.23147,-0.12285 0.38032,-0.125 0.0625,-0.125 -0.16161,0 0.12158,0.0218 0.3125,0.0312 0.0955,0.005 0.19061,0.006 0.3125,0 0.0609,-0.003 0.14862,-0.0109 0.25,-0.0312 0.10138,-0.0204 0.23859,0.0115 0.53125,-0.28125 0.41534,-0.41589 0.30702,-0.7762 0.28125,-0.90625 -0.008,-0.0393 -0.0238,-0.0357 -0.0312,-0.0625 0.27674,0.34234 0.64069,0.6692 1.21875,0.78125 0.81229,0.15745 1.61322,-0.26947 2.34375,-1 0.49727,-0.49726 0.51703,-1.2741 0.34375,-1.75 -0.17328,-0.4759 -0.4672,-0.84906 -0.75,-1.1875 -0.2828,-0.33844 -0.56709,-0.64259 -0.8125,-0.875 -0.24541,-0.23241 -0.50379,-0.44129 -0.46875,-0.40625 -0.43089,-0.43089 -1.01582,-0.66827 -1.53125,-0.6875 -0.51543,-0.0192 -0.95474,0.11444 -1.34375,0.28125 -0.39776,0.17056 -0.54283,0.36791 -0.8125,0.5625 -0.0449,-0.0518 -0.0867,-0.11109 -0.125,-0.15625 -0.0403,-0.0475 -0.0644,-0.0904 -0.0937,-0.125 -0.0294,-0.0346 -0.0235,-0.0235 -0.125,-0.125 -0.40979,-0.40979 -1.06015,-0.58357 -1.5625,-0.46875 z m -6.125,4.09375 c 0.0264,-0.007 -0.0725,-0.0472 0.0625,0.0312 0.0675,0.0393 0.17875,0.15631 0.21875,0.28125 0.04,0.12494 0.0138,0.20887 0.0312,0.15625 l -0.5625,-0.1875 c 0.0129,-0.0241 -0.015,-0.0763 0,-0.0937 0.1553,-0.18144 0.23679,-0.18377 0.25,-0.1875 z"
       transform="translate(0,308.2677)" />
    <path
       style="fill:#ffffff;stroke:#000000;stroke-width:0.5;stroke-linecap:butt;stroke-linejoin:miter;stroke-opacity:1;stroke-miterlimit:4;stroke-dasharray:none"
       d="m 353.50988,554.56497 c 0.61262,1.22468 0.55546,3.07538 2.85954,5.00419 0.43427,-0.21714 1.18664,-0.23346 1.42977,-0.47659 0.19806,-0.19806 -0.43945,-0.43945 -0.47659,-0.47659 -0.27957,-0.27957 -0.41531,-1.1302 -0.71488,-1.42977 -0.90284,-0.90283 1.26799,-2.06813 1.90635,-1.42976 1.12435,1.12434 0.46618,3.34132 2.38295,2.38294 0.28721,-0.14361 0.74186,-0.027 0.95317,-0.23829 0.16682,-0.16682 -1.40044,-3.5451 -1.66806,-3.81272 -2.14323,-2.14323 -2.82832,0.47659 -3.81271,0.47659 -0.15886,0 0.11233,-0.36425 0,-0.47659 -0.21924,-0.21924 -0.44597,-0.47659 -0.95318,-0.47659 z"
       id="path5625"
       inkscape:connector-curvature="0"
       sodipodi:nodetypes="ccssssccssccc" />
    <path
       style="fill:#ffffff;stroke:#000000;stroke-width:0.5;stroke-linecap:butt;stroke-linejoin:miter;stroke-opacity:1;stroke-miterlimit:4;stroke-dasharray:none"
       d="M 363.78125 243.59375 C 363.73674 243.60492 363.67404 243.64664 363.625 243.6875 C 363.19351 244.04707 362.83466 244.47784 362.4375 244.875 C 362.77426 246.50602 364.99936 254.15625 365.78125 254.15625 C 368.21315 254.15625 366.13414 250.11203 365.53125 248.90625 C 365.33091 248.50557 365.50979 247.89461 365.3125 247.5 C 364.50978 245.89456 365.92285 248.11036 366.25 248.4375 C 367.06842 249.25593 368.5658 247.35035 368.15625 246.53125 C 367.73614 245.69102 366.59356 244.46855 366.03125 243.90625 C 365.63409 243.50909 364.74091 244.55341 364.34375 244.15625 C 364.27988 244.09238 364.09282 243.51557 363.78125 243.59375 z M 364.84375 245.34375 C 367.73778 245.92256 364.33126 246.88531 364.84375 245.34375 z "
       transform="translate(0,308.2677)"
       id="path5627" />
    <path
       style="fill:#ffffff;stroke:#000000;stroke-width:0.5;stroke-linecap:butt;stroke-linejoin:miter;stroke-opacity:1;stroke-miterlimit:4;stroke-dasharray:none"
       d="m 368.4033,242.96115 c -0.0443,1.31898 0.80402,6.58311 2.62124,4.76589 0.7975,-0.79751 -1.46617,-2.10825 -0.47659,-3.09783 1.57297,-1.57297 1.59622,1.59622 2.14465,2.14465 0.23158,0.23158 0.62567,-0.23829 0.95318,-0.23829 0.0981,0 0.6518,0.0631 0.71488,0 0.0759,-0.076 -0.86734,-1.27731 0.23829,-2.38295 0.99138,-0.99137 1.09974,3.66616 3.57442,1.19147 0.77162,-0.77161 -1.43068,-2.62215 -1.66806,-2.85953 -1.03546,-1.03546 -2.74558,0.36263 -3.09783,0.71488 -0.0946,0.0946 -0.89507,-0.89506 -0.95318,-0.95317 -0.76179,-0.76179 -2.11846,0.95317 -2.14465,0.95317 -0.9049,0 0.56139,-1.71894 -1.90635,-0.23829 z"
       id="path5629"
       inkscape:connector-curvature="0"
       transform="translate(0,308.2677)" />
    <path
       style="fill:#8830ed;stroke:#000000;stroke-width:1px;stroke-linecap:round;stroke-linejoin:round;stroke-opacity:1;fill-opacity:1"
       d="m 320.31785,307.68037 c -0.98893,1.0283 -1.33858,3.38883 -0.674,4.71799 0.23097,0.46194 0.17084,1.18653 0.337,1.685 0.31378,0.94135 1.94399,2.82549 2.69599,3.20149 1.42541,0.71271 6.3218,-0.38065 7.58249,-1.011 0.31453,-0.15726 0.86496,0.15727 1.17949,0 1.90362,-0.9518 6.74679,-0.007 7.91949,-1.17949 0.30891,-0.30892 0.36508,-0.87058 0.674,-1.1795 0.16028,-0.16028 0.5055,-0.81176 0.5055,-1.1795 0,-5.42758 0.1932,-4.35629 -3.37,-7.91948 -0.4141,-0.4141 -2.61149,0.1685 -3.03299,0.1685 -1.74889,0 -3.53759,1.011 -5.22349,1.011 -3.04731,0 -5.72128,1.11055 -8.59348,1.68499 z"
       id="path5701"
       inkscape:connector-curvature="0"
       transform="translate(0,308.2677)" />
    <path
       style="fill:#ed30a3;fill-opacity:1;stroke:#000000;stroke-width:0.50000000000000000;stroke-linecap:round;stroke-linejoin:round;stroke-opacity:1;stroke-miterlimit:4;stroke-dasharray:none"
       d="m 336,614.98645 c -4.76247,1.19215 -10.36717,1.06787 -14.59375,3.15625 -0.495,3.32857 2.04236,7.37639 5.90625,5.21875 3.34086,-1.53131 7.6225,-0.80381 10.75,-1.8125 1.41339,-2.21065 0.43742,-5.61889 -2.0625,-6.5625 z"
       id="path5703"
       inkscape:connector-curvature="0" />
    <path
       style="fill:#d8ed30;stroke:none;stroke-width:1px;stroke-linecap:round;stroke-linejoin:round;stroke-opacity:1;fill-opacity:1"
       d="m 324.31881,312.12613 c -0.34552,0.32781 0.28143,-0.31122 -0.2085,0.17872 -0.42532,0.42532 -0.21923,1.04016 -0.0596,1.51913 0.0537,0.16097 0.22475,0.24097 0.29787,0.38722 0.10954,0.21909 0.45453,0.84507 0.83403,0.65531 0.30601,-0.153 0.0235,-0.8936 0.20851,-0.8936 0.42352,0 0.81017,0.39518 1.28083,0.23829 0.10614,-0.0354 0.33183,-0.18705 0.38723,-0.29786 0.0242,-0.0484 0.0196,-0.1387 0.0596,-0.17872 0.0153,-0.0153 0.55418,0.1995 0.65531,0.14893 0.14876,-0.0744 0.36012,-0.0162 0.50638,-0.0894 0.16959,-0.0848 0.25747,-0.23299 0.38723,-0.29787 0.0554,-0.0277 0.27556,0.14145 0.35744,0.0596 0.0662,-0.0662 0.0712,-0.19034 0.14893,-0.26808 9.5e-4,-9.4e-4 0.65927,0.0556 0.80425,-0.0894 0.52302,-0.52302 -0.67812,-0.52033 -0.47659,-0.92339 0.0158,-0.0316 0.003,-0.0926 0.0298,-0.11915 0.0598,-0.0598 0.2349,-0.0562 0.29786,-0.11914 9.5e-4,-9.5e-4 0.60006,-0.0596 0.65531,-0.0596 0.39616,0 0.52223,0.79031 0.71489,0.98297 0.21164,0.21164 0.83219,-0.0605 1.01275,0.0298 0.35299,0.17649 0.27052,0.35662 0.71488,0.2085 0.17644,-0.0588 0.28701,-0.24776 0.44681,-0.32765 0.1517,-0.0759 0.27071,-0.10557 0.41701,-0.17872 0.21513,-0.10757 0.55652,0.0995 0.71488,0.17872 0.1798,0.0899 0.56177,-0.17454 0.65531,-0.26808 0.0732,-0.0732 0.0675,-0.18667 0.11915,-0.2383 0.0598,-0.0598 0.44585,0.11867 0.50638,0.14894 0.14356,0.0718 0.2829,-0.0844 0.38723,-0.11915 0.0983,-0.0328 0.19821,-0.11807 0.23829,-0.2383 0.22072,-0.66216 -0.13686,-0.57158 -0.35744,-1.01275 -0.10338,-0.20676 -0.0713,-0.47026 -0.17872,-0.68509 -0.13835,-0.27669 -0.51794,-0.24986 -0.65531,-0.38723 -0.0379,-0.0379 -0.17778,-0.10473 -0.26808,-0.0596 -0.0555,0.0278 -0.33997,0.44681 -0.17872,0.44681 0.014,0 -0.0199,-0.0199 -0.0298,-0.0298 -0.0694,-0.0694 -0.0878,-0.14741 -0.14894,-0.20851 -0.10991,-0.10992 -0.37869,-0.0298 -0.50637,-0.0298 -0.0475,0 -0.27937,0.19723 -0.32766,0.14894 -0.008,-0.008 -0.87088,-0.23476 -0.92339,-0.20851 -0.1234,0.0617 -0.23608,0.14673 -0.29787,0.20851 -0.0214,0.0214 -0.0325,0.14893 -0.0894,0.14893 -0.0535,0 -0.0357,-0.10111 -0.0596,-0.14893 -0.0222,-0.0445 -0.15503,-0.0894 -0.20851,-0.0894 -0.26,0 -0.64519,0.19838 -0.77445,0.32765 -0.0773,0.0773 -0.22488,-0.21521 -0.35745,-0.14893 -0.15701,0.0785 -0.34221,0.34221 -0.4468,0.4468 -0.0131,0.0131 -0.51036,-0.0854 -0.59573,0 -0.0988,0.0988 -0.11027,0.43793 -0.17873,0.50638 -0.0447,0.0447 -0.13404,0.0447 -0.17872,0.0894 -0.0974,0.0974 -0.8599,-0.45072 -1.01275,-0.29787 -0.0645,0.0645 -0.21808,0.0989 -0.29787,0.17872 -0.0277,0.0277 -0.18158,0.17586 -0.2085,0.14893 -0.0291,-0.0291 -0.3629,-0.26262 -0.47659,-0.14893 -0.12756,0.12755 -0.34593,0.25657 -0.4468,0.35744 -0.11551,0.11551 -0.40636,-0.18938 -0.50638,-0.0894 -0.12911,0.12912 -0.39604,0.24711 -0.50638,0.35744 -0.11098,0.11099 -0.34781,-0.12396 -0.47659,-0.0596 -0.0846,0.0423 -0.0991,0.099 -0.14893,0.14893 -0.004,0.004 0.003,0.0894 0,0.0894 -0.089,0 -0.39929,-0.10142 -0.4468,-0.14893 -0.0123,-0.0122 -0.72289,0.0866 -0.80425,0.11915 z"
       id="path5776"
       inkscape:connector-curvature="0"
       transform="translate(0,308.2677)" />
    <path
       style="fill:#d8ed30;stroke:none;stroke-width:1px;stroke-linecap:round;stroke-linejoin:round;stroke-opacity:1;fill-opacity:1"
       d="m 324.16988,309.83254 c -0.17824,-0.10528 -0.46466,0.27401 -0.65531,0.65531 -0.0596,0.1193 0.0284,0.32347 0.0596,0.41702 0.22493,0.67477 0.40132,0.59573 1.1319,0.59573 0.0384,0 0.89209,-0.32613 0.89361,-0.32765 0.0314,-0.0314 1.12015,0.0357 1.19147,0 0.0597,-0.0299 0.69006,-0.29291 0.74467,-0.23829 0.0365,0.0365 0.41873,0.16296 0.50638,0.11914 0.13115,-0.0656 0.25645,-0.1729 0.38722,-0.23829 0.14627,-0.0731 0.49551,0.0109 0.53617,-0.0298 0.11197,-0.11197 0.20349,-0.26306 0.29787,-0.35744 0.0276,-0.0276 0.0885,-0.23741 0.17872,-0.32766 0.14071,-0.14071 0.80965,0.31006 1.07232,0.17873 0.1881,-0.0941 0.86554,-0.29701 1.10211,-0.17873 0.0187,0.009 0.0883,0.0606 0.11915,0.0298 0.2071,-0.2071 0.74242,-0.11274 1.07233,-0.17872 0.32408,-0.0648 0.45054,-0.16476 0.74467,-0.23829 0.32439,-0.0811 0.68916,-0.0383 1.01275,-0.11915 0.21052,-0.0526 0.3984,0.0503 0.53616,0.11915 0.14642,0.0732 0.43798,-0.0574 0.56595,-0.0894 0.0533,-0.0133 0.23082,-0.0223 0.26808,-0.0596 0.0156,-0.0156 0.0165,-0.15206 0.0298,-0.17872 0.0242,-0.0485 0.10044,-0.13023 0.11915,-0.14893 0.0116,-0.0116 0,-0.10097 0,-0.11915 0,-0.41449 -0.33898,-0.48791 -0.56595,-0.71488 -0.0714,-0.0714 0.39906,-0.40519 0.26808,-0.53617 -0.28103,-0.28102 -0.84483,-0.54565 -1.34041,-0.29786 -0.15367,0.0768 -0.32467,0.10276 -0.47659,0.17872 -0.17475,0.0874 -0.48056,-0.0874 -0.65531,0 -0.28048,0.14024 -0.64846,0.10083 -0.92339,0.23829 -0.14691,0.0734 -0.40446,-0.0404 -0.56595,0 -0.3288,0.0822 -0.65011,0.16706 -0.95318,0.26808 -0.22602,0.0753 -0.90708,-0.1273 -1.04254,-0.0596 -0.18108,0.0905 -0.65688,0.18029 -0.74467,0.26808 -0.14002,0.14002 0.0948,0.59029 -0.11914,0.80424 -0.0286,0.0286 -0.28091,-0.24257 -0.35744,-0.26808 -0.0862,-0.0287 -0.90389,-0.22801 -0.9234,-0.20851 -0.0858,0.0858 -0.14792,0.2075 -0.2085,0.26809 -0.0305,0.0305 -0.14184,-0.0709 -0.17872,-0.0894 -0.11779,-0.0589 -0.26752,-0.0593 -0.38723,-0.11915 -0.26359,-0.1318 -0.73179,0.21696 -0.89361,0.29787 -0.17288,0.0864 -0.32258,-0.24083 -0.50637,-0.14894 -0.60059,0.30029 -0.33183,0.42119 -0.65531,0.74467 -0.13605,0.13605 -0.41689,-0.0895 -0.50638,0 -0.0585,0.0585 0.0158,0.0116 -0.17872,0.0894 z"
       id="path5774"
       inkscape:connector-curvature="0"
       transform="translate(0,308.2677)" />
    <path
       style="fill:none;stroke:#000000;stroke-width:0.40000001000000002;stroke-linecap:round;stroke-linejoin:round;stroke-miterlimit:4;stroke-opacity:1;stroke-dasharray:none"
       d="m 324.43796,618.51726 c -0.53227,0.15952 -0.44026,1.09884 0.26809,0.74467 0.43589,-0.21795 0.0999,-0.74467 -0.26809,-0.74467 z"
       id="path5707"
       inkscape:connector-curvature="0" />
    <path
       style="fill:none;stroke:#000000;stroke-width:0.40000001000000002;stroke-linecap:round;stroke-linejoin:round;stroke-miterlimit:4;stroke-opacity:1;stroke-dasharray:none"
       d="m 325.83795,619.08321 c 0,-0.38964 -0.56899,-0.65399 -0.47659,-1.10211 0.10789,-0.4544 0.77104,-0.023 0.59573,0.32765 -0.0447,0.0894 -0.18022,0.0611 -0.23829,0.11915 -0.0769,0.0769 -0.18973,0.0486 -0.20851,0.0298"
       id="path5722"
       inkscape:connector-curvature="0" />
    <path
       style="fill:none;stroke:#000000;stroke-width:0.40000001000000002;stroke-linecap:round;stroke-linejoin:round;stroke-miterlimit:4;stroke-opacity:1;stroke-dasharray:none"
       d="m 326.91027,617.68323 c -0.18366,0.0401 -0.33472,0.21557 -0.4468,0.32765 -0.0471,0.0471 0.0596,0.11915 0.0894,0.17872 0.0676,0.1353 -0.0177,0.45287 0.14893,0.53617 0.14421,0.0721 0.35837,-0.0894 0.50638,-0.0894"
       id="path5724"
       inkscape:connector-curvature="0" />
    <path
       style="fill:none;stroke:#000000;stroke-width:0.40000001000000002;stroke-linecap:round;stroke-linejoin:round;stroke-miterlimit:4;stroke-opacity:1;stroke-dasharray:none"
       d="m 326.67198,618.33854 c 0.14104,-0.0222 0.28077,-0.0723 0.35744,-0.14894"
       id="path5726"
       inkscape:connector-curvature="0" />
    <path
       style="fill:none;stroke:#000000;stroke-width:0.40000001000000002;stroke-linecap:round;stroke-linejoin:round;stroke-miterlimit:4;stroke-opacity:1;stroke-dasharray:none"
       d="m 327.62515,618.63641 c -0.0677,-0.11039 -0.31106,-0.85063 -0.26808,-0.89361 0.0468,-0.0468 0.70569,0.42731 0.80425,0.47659 0.19824,0.0991 0.43816,0.29787 0.38723,0.29787 -0.10781,0 -0.41294,-1.00868 -0.35745,-0.95318"
       id="path5728"
       inkscape:connector-curvature="0" />
    <path
       style="fill:none;stroke:#000000;stroke-width:0.40000001000000002;stroke-linecap:round;stroke-linejoin:round;stroke-miterlimit:4;stroke-opacity:1;stroke-dasharray:none"
       d="m 330.15703,617.14707 c -0.0397,-0.01 -0.12907,0.01 -0.11914,-0.0298 0.01,-0.0397 0.16008,0.0298 0.11914,0.0298 -0.0506,0 -0.0983,-0.0298 -0.14893,-0.0298 -0.0806,0 -0.33049,0.23546 -0.26808,0.29787 0.13506,0.13506 0.50637,0.012 0.50637,0.41701 0,0.2817 -0.38901,0.0912 -0.35744,0.0596"
       id="path5730"
       inkscape:connector-curvature="0" />
    <path
       style="fill:none;stroke:#000000;stroke-width:0.40000001000000002;stroke-linecap:round;stroke-linejoin:round;stroke-miterlimit:4;stroke-opacity:1;stroke-dasharray:none"
       d="m 330.72298,617.17685 c -0.2548,-0.0932 -0.28752,0.10098 -0.23829,0.29787 0.0413,0.16532 0.15999,0.27914 0.26808,0.38723 0.50756,0.50756 0.85231,-0.6851 -0.0298,-0.6851 z"
       id="path5732"
       inkscape:connector-curvature="0" />
    <path
       style="fill:none;stroke:#000000;stroke-width:0.40000001000000002;stroke-linecap:round;stroke-linejoin:round;stroke-miterlimit:4;stroke-opacity:1;stroke-dasharray:none"
       d="m 331.5868,616.99813 c -0.11336,0.17279 0.031,0.30162 0.0894,0.47659 0.0817,0.24509 0.34581,0.41049 0.47659,0.14893 0.1328,-0.2656 -0.17872,-0.54552 -0.17872,-0.71488"
       id="path5734"
       inkscape:connector-curvature="0" />
    <path
       style="fill:none;stroke:#000000;stroke-width:0.40000001000000002;stroke-linecap:round;stroke-linejoin:round;stroke-miterlimit:4;stroke-opacity:1;stroke-dasharray:none"
       d="m 332.80806,617.68323 c -0.0267,0.0267 -0.30287,-0.5805 -0.29787,-0.74467 0.0193,-0.008 0.16363,-0.11425 0.2383,-0.0894 0.0712,0.0237 0.24595,0.13361 0.2085,0.2085 -0.0727,0.14547 -0.42353,0.0531 -0.35744,0.11915 0.16375,0.16375 0.62947,0.008 0.83403,0.41702"
       id="path5736"
       inkscape:connector-curvature="0" />
    <path
       style="fill:none;stroke:#000000;stroke-width:0.40000001000000002;stroke-linecap:round;stroke-linejoin:round;stroke-miterlimit:4;stroke-opacity:1;stroke-dasharray:none"
       d="m 333.99953,616.70026 c -0.60702,-0.1403 -0.5141,0.55657 0,0.6851 0.26649,0.0666 0.36708,-0.11915 0.53616,-0.11915"
       id="path5738"
       inkscape:connector-curvature="0" />
    <path
       style="fill:none;stroke:#000000;stroke-width:0.40000001000000002;stroke-linecap:round;stroke-linejoin:round;stroke-miterlimit:4;stroke-opacity:1;stroke-dasharray:none"
       d="m 335.33994,616.43218 c -0.19464,-0.0561 -0.61262,0.004 -0.71489,0.20851 -0.0268,0.0537 0.16073,0.21409 0.17873,0.26808 0.0621,0.18625 0.0943,0.42197 0.2085,0.53616 0.0948,0.0948 0.49361,-0.11914 0.59574,-0.11914"
       id="path5740"
       inkscape:connector-curvature="0" />
    <path
       style="fill:none;stroke:#000000;stroke-width:0.40000001000000002;stroke-linecap:round;stroke-linejoin:round;stroke-miterlimit:4;stroke-opacity:1;stroke-dasharray:none"
       d="m 334.80378,617.0577 c 0.14544,-0.0443 0.26606,-0.0894 0.41701,-0.0894"
       id="path5742"
       inkscape:connector-curvature="0" />
    <path
       style="fill:none;stroke:#000000;stroke-width:0.40000001000000002;stroke-linecap:round;stroke-linejoin:round;stroke-miterlimit:4;stroke-opacity:1;stroke-dasharray:none"
       d="m 324.91457,622.44912 c -0.0758,0.0758 -0.0513,-0.13241 -0.0894,-0.20851 -0.15117,-0.30235 -0.41767,-0.59857 -0.50637,-0.95318 -0.025,-0.10004 -0.0387,-0.0925 0.0298,-0.20851 0.23061,-0.061 0.38686,-0.26808 0.62553,-0.26808"
       id="path5744"
       inkscape:connector-curvature="0" />
    <path
       style="fill:none;stroke:#000000;stroke-width:0.40000001000000002;stroke-linecap:round;stroke-linejoin:round;stroke-miterlimit:4;stroke-opacity:1;stroke-dasharray:none"
       d="m 324.64647,621.79381 c 0.18862,-0.0507 0.41274,-0.2383 0.56595,-0.2383"
       id="path5746"
       inkscape:connector-curvature="0" />
    <path
       style="fill:none;stroke:#000000;stroke-width:0.40000001000000002;stroke-linecap:round;stroke-linejoin:round;stroke-miterlimit:4;stroke-opacity:1;stroke-dasharray:none"
       d="m 325.51029,620.6917 c -0.0298,0.0397 -0.0709,0.0731 -0.0894,0.11914 -0.0391,0.0976 0.62431,1.43098 0.92339,1.1319 0.24592,-0.24591 0.17126,-0.78937 0.0298,-1.07232 -0.0578,-0.11553 -0.29857,-0.38793 -0.26808,-0.35745"
       id="path5748"
       inkscape:connector-curvature="0" />
    <path
       style="fill:none;stroke:#000000;stroke-width:0.40000001000000002;stroke-linecap:round;stroke-linejoin:round;stroke-miterlimit:4;stroke-opacity:1;stroke-dasharray:none"
       d="m 327.20814,620.33425 c -0.46218,-0.14152 -0.44869,0.80312 0.14893,1.16169 0.17207,0.10324 0.29872,0.21815 0.50638,0.14893 0.13223,-0.0441 0.18974,-0.24931 0.23829,-0.29786"
       id="path5750"
       inkscape:connector-curvature="0" />
    <path
       style="fill:none;stroke:#000000;stroke-width:0.40000001000000002;stroke-linecap:round;stroke-linejoin:round;stroke-miterlimit:4;stroke-opacity:1;stroke-dasharray:none"
       d="m 327.95281,620.0066 c -0.009,0.0348 -0.0423,0.12846 -0.0298,0.17872 0.0402,0.16066 0.62769,1.25105 0.6851,1.25105"
       id="path5752"
       inkscape:connector-curvature="0" />
    <path
       style="fill:none;stroke:#000000;stroke-width:0.40000001000000002;stroke-linecap:round;stroke-linejoin:round;stroke-miterlimit:4;stroke-opacity:1;stroke-dasharray:none"
       d="m 328.84641,619.85767 c -0.19409,0.16014 -0.30326,0.42779 -0.41701,0.6553 -0.0133,0.0266 -0.15649,0.26053 -0.14894,0.26809 0.0509,0.0509 0.33971,-0.009 0.41702,0.0298 0.2089,0.10446 0.53177,0.41702 0.74467,0.41702"
       id="path5754"
       inkscape:connector-curvature="0" />
    <path
       style="fill:none;stroke:#000000;stroke-width:0.40000001000000002;stroke-linecap:round;stroke-linejoin:round;stroke-miterlimit:4;stroke-opacity:1;stroke-dasharray:none"
       d="m 330.42511,619.61937 c 0.0788,0.13683 0.41609,0.49195 0.62553,0.38723 0.20621,-0.10311 -0.0251,-0.80424 0.14893,-0.80424"
       id="path5756"
       inkscape:connector-curvature="0" />
    <path
       style="fill:none;stroke:#000000;stroke-width:0.40000001000000002;stroke-linecap:round;stroke-linejoin:round;stroke-miterlimit:4;stroke-opacity:1;stroke-dasharray:none"
       d="m 331.16978,619.97681 c -0.0299,0.20044 0.25201,1.14798 0.44681,0.95318"
       id="path5758"
       inkscape:connector-curvature="0" />
    <path
       style="fill:none;stroke:#000000;stroke-width:0.40000001000000002;stroke-linecap:round;stroke-linejoin:round;stroke-miterlimit:4;stroke-opacity:1;stroke-dasharray:none"
       d="m 332.53998,619.05342 c -0.15213,0.0225 -0.6851,0.25497 -0.6851,0.4468 0,0.0145 0.10317,0.22015 0.11915,0.26808 0.0723,0.21703 0.0384,0.98729 0.26808,1.10212 0.0204,0.0102 0.4711,-0.26808 0.62552,-0.26808"
       id="path5760"
       inkscape:connector-curvature="0" />
    <path
       style="fill:none;stroke:#000000;stroke-width:0.40000001000000002;stroke-linecap:round;stroke-linejoin:round;stroke-miterlimit:4;stroke-opacity:1;stroke-dasharray:none"
       d="m 332.15275,620.12575 c 0.14165,-0.0794 0.25332,-0.14894 0.38723,-0.14894"
       id="path5762"
       inkscape:connector-curvature="0" />
    <path
       style="fill:none;stroke:#000000;stroke-width:0.40000001000000002;stroke-linecap:round;stroke-linejoin:round;stroke-miterlimit:4;stroke-opacity:1;stroke-dasharray:none"
       d="m 333.22507,620.66191 c -0.11198,-0.23434 -0.21685,-1.66806 -0.0596,-1.66806 0.16704,0 0.77446,1.25579 0.77446,1.37019"
       id="path5764"
       inkscape:connector-curvature="0" />
    <path
       style="fill:none;stroke:#000000;stroke-width:0.40000001000000002;stroke-linecap:round;stroke-linejoin:round;stroke-miterlimit:4;stroke-opacity:1;stroke-dasharray:none"
       d="m 333.22507,620.0066 c 0.20949,-0.0496 0.44886,-0.0894 0.65531,-0.0894"
       id="path5766"
       inkscape:connector-curvature="0" />
    <path
       style="fill:none;stroke:#000000;stroke-width:0.40000001000000002;stroke-linecap:round;stroke-linejoin:round;stroke-miterlimit:4;stroke-opacity:1;stroke-dasharray:none"
       d="m 334.2974,618.8747 c 0.0373,0.43273 0.25403,0.83738 0.35744,1.25105 0.0206,0.0823 0.17419,0.23829 0.0894,0.23829 -0.007,0 0.0295,-0.0593 0.0298,-0.0596"
       id="path5768"
       inkscape:connector-curvature="0" />
    <path
       style="fill:none;stroke:#000000;stroke-width:0.40000001000000002;stroke-linecap:round;stroke-linejoin:round;stroke-miterlimit:4;stroke-opacity:1;stroke-dasharray:none"
       d="m 334.56548,619.67894 c 0.2071,-0.10499 0.49,-0.23829 0.71488,-0.23829"
       id="path5770"
       inkscape:connector-curvature="0" />
    <path
       style="fill:none;stroke:#000000;stroke-width:0.40000001000000002;stroke-linecap:round;stroke-linejoin:round;stroke-miterlimit:4;stroke-opacity:1;stroke-dasharray:none"
       d="m 335.33994,618.75555 c -0.0215,0.27885 0.31124,1.41336 0.47659,1.5787"
       id="path5772"
       inkscape:connector-curvature="0" />
  </g>
</svg>
