<?xml version="1.0" encoding="UTF-8" standalone="no"?>
<!-- Created with Inkscape (http://www.inkscape.org/) -->
<svg
   xmlns:dc="http://purl.org/dc/elements/1.1/"
   xmlns:cc="http://creativecommons.org/ns#"
   xmlns:rdf="http://www.w3.org/1999/02/22-rdf-syntax-ns#"
   xmlns:svg="http://www.w3.org/2000/svg"
   xmlns="http://www.w3.org/2000/svg"
   xmlns:sodipodi="http://sodipodi.sourceforge.net/DTD/sodipodi-0.dtd"
   xmlns:inkscape="http://www.inkscape.org/namespaces/inkscape"
   width="744.09448819"
   height="1052.3622047"
   id="svg2"
   sodipodi:version="0.32"
   inkscape:version="0.46"
   sodipodi:docname="message-passing.svg"
   inkscape:output_extension="org.inkscape.output.svg.inkscape">
  <defs
     id="defs4">
    <inkscape:perspective
       sodipodi:type="inkscape:persp3d"
       inkscape:vp_x="0 : 526.18109 : 1"
       inkscape:vp_y="0 : 1000 : 0"
       inkscape:vp_z="744.09448 : 526.18109 : 1"
       inkscape:persp3d-origin="372.04724 : 350.78739 : 1"
       id="perspective10" />
  </defs>
  <sodipodi:namedview
     id="base"
     pagecolor="#ffffff"
     bordercolor="#666666"
     borderopacity="1.0"
     gridtolerance="10000"
     guidetolerance="10"
     objecttolerance="10"
     inkscape:pageopacity="0.0"
     inkscape:pageshadow="2"
     inkscape:zoom="0.98994949"
     inkscape:cx="505.22557"
     inkscape:cy="730.90322"
     inkscape:document-units="px"
     inkscape:current-layer="layer1"
     showgrid="false"
     inkscape:window-width="1438"
     inkscape:window-height="898"
     inkscape:window-x="0"
     inkscape:window-y="0" />
  <metadata
     id="metadata7">
    <rdf:RDF>
      <cc:Work
         rdf:about="">
        <dc:format>image/svg+xml</dc:format>
        <dc:type
           rdf:resource="http://purl.org/dc/dcmitype/StillImage" />
      </cc:Work>
    </rdf:RDF>
  </metadata>
  <g
     inkscape:label="Layer 1"
     inkscape:groupmode="layer"
     id="layer1">
    <path
       style="opacity:1;fill:#866c9b;fill-opacity:1;fill-rule:evenodd;stroke:#000000;stroke-width:2;stroke-linecap:butt;stroke-linejoin:miter;marker:none;marker-start:none;marker-mid:none;marker-end:none;stroke-miterlimit:4;stroke-dasharray:none;stroke-dashoffset:0;stroke-opacity:1;visibility:visible;display:inline;overflow:visible;enable-background:accumulate"
       d="M 400.14868,351.42382 C 401.33916,350.47144 402.52964,349.51906 403.72011,348.56668 C 408.66065,344.61425 414.73383,341.83867 419.4344,337.1381 C 424.64553,331.92698 432.92514,328.18652 439.4344,324.28096 C 446.19903,320.22218 452.37686,315.66687 459.4344,312.1381 C 465.98164,308.86449 472.94995,306.09461 479.4344,302.85239 C 484.72153,300.20882 490.04562,297.54678 495.14868,294.99525 C 498.97008,293.08455 502.92776,290.03428 505.86297,288.56668 C 507.61907,287.68862 509.67249,287.6143 511.57726,287.1381 C 512.88806,289.75971 512.59183,291.31012 513.72011,293.56668 C 514.70422,295.53489 515.90091,298.71843 516.57726,301.42382 C 517.30938,304.35231 517.29154,307.64189 517.29154,311.42382 C 517.29154,315.08222 516.41791,320.07214 517.29154,323.56668 C 518.28152,327.5266 517.75347,335.49996 515.86297,339.28096 C 514.59986,341.80719 512.51289,346.67029 510.14868,347.85239 C 507.04151,349.40598 505.84888,351.78801 502.29154,353.56668 C 499.16743,355.12873 497.11818,356.52784 493.72011,358.56668 C 489.61537,361.02952 485.9244,364.25025 481.57726,366.42382 C 477.65961,368.38264 473.74604,370.15437 470.14868,372.85239 C 467.02517,375.19502 462.98695,378.21897 459.4344,379.99525 C 455.76,381.83245 454.12888,384.43372 450.14868,386.42382 C 446.68235,388.15698 444.00437,389.49598 440.14868,391.42382 C 436.41477,393.29078 432.24393,394.66191 428.72011,396.42382 C 425.32409,398.12183 422.73077,399.06135 419.4344,400.70953 C 417.23305,401.81021 413.9337,403.45988 410.86297,404.99525 C 409.02352,405.91497 406.07252,408.69286 403.72011,409.28096 C 400.97593,409.96701 396.89383,410.1941 394.4344,411.42382 C 393.61721,411.83241 387.29154,414.40272 387.29154,411.42382 C 387.29154,409.58924 386.84784,405.16837 388.00583,402.85239 C 389.60595,399.65215 390.7038,396.34623 391.57726,392.85239 C 392.52924,389.04444 393.45659,386.76363 394.4344,382.85239 C 395.62011,378.10953 394.86646,372.83492 395.86297,367.85239 C 396.97288,362.30283 405.21065,348.89283 400.14868,351.42382 z"
       id="path3390" />
    <path
       style="opacity:1;fill:#b2a6bb;fill-opacity:1;fill-rule:evenodd;stroke:#000000;stroke-width:2;stroke-linecap:butt;stroke-linejoin:miter;marker:none;marker-start:none;marker-mid:none;marker-end:none;stroke-miterlimit:4;stroke-dasharray:none;stroke-dashoffset:0;stroke-opacity:1;visibility:visible;display:inline;overflow:visible;enable-background:accumulate"
       d="M 335.14868,283.56668 C 335.86297,284.75715 336.57726,285.94763 337.29154,287.1381 C 340.32831,292.19939 340.27762,298.11027 343.00583,303.56668 C 346.25404,310.06311 347.73087,317.46685 349.4344,324.28096 C 349.67249,325.23334 349.91059,326.18572 350.14868,327.1381 C 351.70683,333.37068 352.74708,338.99123 355.14868,344.99525 C 357.31633,350.41437 358.79337,356.24981 360.86297,361.42382 C 362.90745,366.53501 364.63137,371.49742 365.86297,376.42382 C 366.91062,380.61442 367.7023,384.49542 368.72011,388.56668 C 369.75075,392.68923 371.32697,396.13696 372.29154,399.99525 C 373.1083,403.26227 373.98992,404.82058 375.14868,407.1381 C 376.78145,410.40364 376.94636,411.79292 379.4344,414.28096 C 382.08893,416.93549 384.9293,416.17637 387.29154,414.99525 C 390.65942,413.31131 393.20374,411.94019 395.14868,409.99525 C 396.76325,408.38068 398.32059,405.79429 399.4344,403.56668 C 400.92845,400.57857 402.65555,399.96778 403.72011,395.70953 C 404.5272,392.48117 405.02931,389.04417 405.86297,385.70953 C 406.68117,382.43672 406.54132,379.4247 407.29154,376.42382 C 408.02067,373.50729 407.29154,369.4445 407.29154,366.42382 C 407.29154,362.85239 407.29154,359.28096 407.29154,355.70953 C 407.29154,351.89816 406.57726,348.89906 406.57726,344.99525 C 406.57726,342.37493 404.32394,338.83914 403.72011,336.42382 C 402.75502,332.56345 401.07533,329.41612 400.14868,325.70953 C 399.33675,322.46179 397.88544,319.04019 396.57726,316.42382 C 395.2043,313.67791 393.63586,311.2553 392.29154,308.56668 C 390.56035,305.1043 388.75111,302.17943 386.57726,299.28096 C 384.23058,296.15206 382.9918,293.53862 381.57726,290.70953 C 381.47078,290.49657 381.57726,290.23334 381.57726,289.99525 C 381.57726,287.04467 378.66143,284.76052 378.00583,282.1381 C 377.22598,279.01871 374.52777,277.32485 373.00583,274.28096 C 371.37788,271.02507 369.97114,269.64015 368.72011,267.1381 C 367.47803,264.65394 365.57474,261.56164 364.4344,259.28096 C 362.98874,256.38965 361.51655,254.87383 360.14868,252.1381 C 358.52282,248.88637 357.61216,247.77224 354.4344,248.56668 C 352.13072,249.1426 348.70566,256.20499 348.00583,257.1381 C 345.93396,259.90059 344.28857,263.14405 343.00583,265.70953 C 341.4648,268.7916 339.69746,272.32626 338.00583,275.70953 C 336.61326,278.49466 336.40494,280.42604 335.14868,283.56668 z"
       id="path3384" />
    <path
       style="opacity:1;fill:none;fill-opacity:1;fill-rule:evenodd;stroke:#000000;stroke-width:2;stroke-linecap:butt;stroke-linejoin:miter;marker:none;marker-start:none;marker-mid:none;marker-end:none;stroke-miterlimit:4;stroke-dasharray:none;stroke-dashoffset:0;stroke-opacity:1;visibility:visible;display:inline;overflow:visible;enable-background:accumulate"
       d="M 390.86297,412.85239 C 391.33916,411.90001 391.81535,410.94763 392.29154,409.99525 C 393.57166,407.43501 393.89101,403.59738 394.4344,401.42382 C 395.21309,398.30906 394.4344,393.93915 394.4344,390.70953 C 394.4344,387.12333 393.72011,383.25945 393.72011,379.28096 C 393.72011,375.93891 392.34909,371.65402 391.57726,368.56668 C 390.6509,364.86127 390.4138,361.23977 388.72011,357.85239 C 387.38702,355.1862 386.4493,350.19771 385.86297,347.85239 C 384.98841,344.35414 383.83821,340.23143 382.29154,337.1381 C 381.12542,334.80587 380.20412,330.217 379.4344,327.1381 C 378.33315,322.7331 376.93165,319.26995 375.86297,314.99525 C 374.84807,310.93565 373.3124,306.93582 372.29154,302.85239 C 371.21797,298.55811 369.91652,293.81662 368.00583,289.99525 C 366.29946,286.58251 365.31621,282.80821 364.4344,279.28096 C 364.22619,278.44813 363.48202,277.85239 363.00583,277.1381"
       id="path3386" />
    <path
       style="opacity:1;fill:#d7c9e1;fill-opacity:1;fill-rule:evenodd;stroke:#000000;stroke-width:2;stroke-linecap:butt;stroke-linejoin:miter;marker:none;marker-start:none;marker-mid:none;marker-end:none;stroke-miterlimit:4;stroke-dasharray:none;stroke-dashoffset:0;stroke-opacity:1;visibility:visible;display:inline;overflow:visible;enable-background:accumulate"
       d="M 324.4344,207.85239 C 323.48202,209.04287 322.52964,210.23334 321.57726,211.42382 C 319.77717,213.67393 318.5165,216.11675 317.29154,218.56668 C 316.07785,220.99407 316.40509,224.96963 315.86297,227.1381 C 315.11106,230.14574 315.14868,232.76917 315.14868,236.42382 C 315.14868,239.49673 315.16288,242.1949 315.86297,244.99525 C 316.55416,247.76001 317.67336,250.04459 318.72011,252.1381 C 319.96983,254.63753 320.85432,257.12081 322.29154,259.99525 C 323.70386,262.81989 326.94008,263.74809 329.4344,264.99525 C 329.64736,265.10173 329.91059,264.99525 330.14868,264.99525 C 335.54036,264.99525 335.97074,266.04203 339.4344,261.42382 C 342.30921,257.59073 343.98852,251.77876 345.14868,247.1381 C 346.46702,241.86477 346.57726,236.97006 346.57726,231.42382 C 346.57726,226.44195 344.38003,220.87513 341.57726,217.1381 C 338.97078,213.6628 336.14654,212.63703 332.29154,210.70953 C 330.50727,209.8174 327.14504,208.93665 324.4344,207.85239 z"
       id="path3380" />
    <path
       style="opacity:1;fill:#d7c9e1;fill-opacity:1;fill-rule:evenodd;stroke:#000000;stroke-width:2;stroke-linecap:butt;stroke-linejoin:miter;marker:none;marker-start:none;marker-mid:none;marker-end:none;stroke-miterlimit:4;stroke-dasharray:none;stroke-dashoffset:0;stroke-opacity:1;visibility:visible;display:inline;overflow:visible;enable-background:accumulate"
       d="M 611.33172,235.48128 C 607.77771,235.5008 604.19166,235.70003 600.86297,235.70003 C 594.33513,235.70002 587.90493,236.41878 581.58172,236.41878 C 576.51347,236.41878 570.37658,238.17584 565.86297,239.98128 C 562.19675,241.44776 558.46842,242.99106 555.86297,244.29378 C 551.87183,246.28935 551.08797,246.77252 546.58172,248.57503 C 539.76096,248.07832 534.51822,250.80688 528.70672,254.29378 C 523.23576,257.57635 518.79247,259.92678 514.42547,264.29378 C 510.64805,268.07119 507.49067,270.20685 504.42547,274.29378 C 502.12958,277.35495 498.44063,280.27863 495.86297,282.85628 C 492.86275,285.85649 491.22071,289.5043 488.70672,292.85628 C 485.90626,296.5902 484.25465,300.38543 482.30047,304.29378 C 480.36254,308.16966 479.11603,312.06891 477.30047,315.70003 C 475.71135,318.8783 475.76261,324.14598 475.14422,327.85628 C 474.50651,331.68255 474.42547,335.7519 474.42547,339.98128 C 474.42546,344.98127 474.42547,349.98128 474.42547,354.98128 C 474.42546,359.28917 475.54474,363.62607 477.30047,367.13753 C 478.81508,370.16672 477.87651,375.25417 478.70672,378.57503 C 479.64219,382.31695 479.22806,386.31662 480.14422,389.98128 C 481.18195,394.13218 482.30047,398.32219 482.30047,402.85628 C 482.30048,406.09405 485.03401,410.97794 485.86297,414.29378 C 486.7325,417.7719 487.40008,421.6805 488.70672,424.29378 C 489.34043,425.56121 490.51703,426.36169 491.86297,427.07503 L 615.01922,427.07503 C 615.51834,426.14222 616.02468,425.22218 616.58172,424.29378 C 619.5859,419.2868 620.53269,413.54809 623.01922,408.57503 C 626.40763,401.79817 630.1771,395.68033 633.01922,388.57503 C 636.23552,380.53424 641.54391,373.13586 646.58172,366.41878 C 650.0364,361.81253 651.94113,353.24671 653.01922,347.85628 C 654.13868,342.25884 656.67263,335.78527 658.70672,330.70003 C 660.47493,326.27958 660.93518,321.30561 663.01922,317.13753 C 665.37237,312.43117 665.29066,305.86427 666.58172,300.70003 C 667.69012,296.26645 667.30047,291.10591 667.30047,286.41878 C 667.30045,280.32318 664.98749,274.66781 662.30047,269.29378 C 659.99568,264.68424 656.72599,260.12555 653.01922,256.41878 C 648.07272,251.4723 642.09696,246.69202 635.86297,243.57503 C 630.62674,240.95691 626.87897,237.74309 621.58172,236.41878 C 618.41218,235.6264 614.88573,235.46176 611.33172,235.48128 z"
       id="path2543" />
    <path
       style="opacity:1;fill:#866c9b;fill-opacity:1;fill-rule:evenodd;stroke:#000000;stroke-width:2;stroke-linecap:butt;stroke-linejoin:miter;marker:none;marker-start:none;marker-mid:none;marker-end:none;stroke-miterlimit:4;stroke-dasharray:none;stroke-dashoffset:0;stroke-opacity:1;visibility:visible;display:inline;overflow:visible;enable-background:accumulate"
       d="M 550.14868,151.42382 C 549.91059,152.6143 549.67249,153.80477 549.4344,154.99525 C 548.44644,159.93503 551.75473,169.27659 553.00583,174.28096 C 554.65895,180.89346 555.03358,187.39196 556.57726,193.56668 C 557.89418,198.83439 558.88381,204.22148 560.14868,209.28096 C 561.13863,213.24074 563.69088,217.06503 565.14868,220.70953 C 566.52767,224.157 570.05556,229.1568 572.29154,232.1381 C 574.48606,235.06413 575.52051,238.22421 577.29154,239.99525 C 579.12316,241.82687 580.11484,245.57414 580.86297,248.56668 C 581.44399,250.89074 577.2602,255.02659 575.86297,256.42382 C 575.48651,256.80028 575.38678,257.3762 575.14868,257.85239 C 573.72824,260.69329 568.89054,263.39625 566.57726,265.70953 C 563.4468,268.83999 559.55893,271.00441 555.86297,272.85239 C 551.81949,274.87413 547.58724,275.91883 543.72011,277.85239 C 540.53452,279.44519 536.27988,279.17674 533.00583,279.99525 C 528.63633,281.08762 526.71339,279.22437 525.14868,277.1381 C 523.15605,274.48126 522.55219,273.1807 521.57726,269.28096 C 520.95492,266.79162 520.14868,264.41541 520.14868,260.70953 C 520.14868,258.06814 518.74033,254.36184 518.00583,251.42382 C 517.17255,248.09072 516.69174,244.73888 515.86297,241.42382 C 514.98016,237.89258 513.4185,235.1063 512.29154,232.85239 C 510.95062,230.17054 510.03025,225.95008 509.4344,223.56668 C 508.61856,220.30332 507.36521,216.57116 505.86297,213.56668 C 504.06685,209.97443 503.39919,208.37687 500.86297,204.99525 C 498.94827,202.44232 498.30599,199.16701 497.29154,197.1381 C 496.07734,194.70971 496.68133,191.00751 497.29154,188.56668 C 497.70174,186.92589 501.24547,183.89846 503.00583,182.1381 C 506.44993,178.694 510.04867,175.36669 513.00583,171.42382 C 515.35045,168.29766 520.55171,164.59222 523.00583,162.1381 C 525.2993,159.84463 529.88336,158.69934 533.00583,157.1381 C 536.22672,155.52766 541.60917,154.69677 544.4344,153.56668 C 546.27322,152.83115 547.96049,152.2991 550.14868,151.42382 z"
       id="path2481" />
    <path
       style="opacity:1;fill:none;fill-opacity:1;fill-rule:evenodd;stroke:#000000;stroke-width:2;stroke-linecap:butt;stroke-linejoin:miter;marker:none;marker-start:none;marker-mid:none;marker-end:none;stroke-miterlimit:4;stroke-dasharray:none;stroke-dashoffset:0;stroke-opacity:1;visibility:visible;display:inline;overflow:visible;enable-background:accumulate"
       d="M 518.72011,204.28096 C 520.29672,202.70435 529.20169,200.46874 531.57726,199.28096 C 534.73125,197.70396 537.54196,194.986 539.4344,193.56668 C 542.41053,191.33457 543.87935,190.5503 546.57726,187.85239 C 548.17079,186.25886 550.01927,183.69609 551.57726,182.1381 C 552.69554,181.01983 552.64758,179.99968 553.00583,178.56668"
       id="path2497" />
    <path
       style="opacity:1;fill:none;fill-opacity:1;fill-rule:evenodd;stroke:#000000;stroke-width:2;stroke-linecap:butt;stroke-linejoin:miter;marker:none;marker-start:none;marker-mid:none;marker-end:none;stroke-miterlimit:4;stroke-dasharray:none;stroke-dashoffset:0;stroke-opacity:1;visibility:visible;display:inline;overflow:visible;enable-background:accumulate"
       d="M 534.4344,178.56668 C 537.96305,175.03803 542.74367,173.7633 545.86297,171.42382 C 548.02234,169.80429 550.00823,167.27856 551.57726,165.70953"
       id="path2499" />
    <path
       style="opacity:1;fill:#d7c9e1;fill-opacity:1;fill-rule:evenodd;stroke:#000000;stroke-width:2;stroke-linecap:butt;stroke-linejoin:miter;marker:none;marker-start:none;marker-mid:none;marker-end:none;stroke-miterlimit:4;stroke-dasharray:none;stroke-dashoffset:0;stroke-opacity:1;visibility:visible;display:inline;overflow:visible;enable-background:accumulate"
       d="M 493.72011,12.138104 C 490.22294,9.3513256 482.10484,10.533672 475.14868,12.85239 C 458.98931,18.238848 445.09147,27.002446 431.57726,37.138104 C 416.25854,48.627144 410.14868,72.168368 410.14868,89.995247 C 410.14868,109.29674 415.83803,129.94536 424.4344,147.1381 C 431.3568,160.9829 445.34435,169.73594 458.72011,176.42382 C 472.65287,183.3902 491.93857,182.22635 506.57726,178.56668 C 520.72548,175.02962 532.90909,171.47219 545.86297,164.99525 C 556.79807,159.5277 567.08787,146.01359 569.4344,134.28096 C 572.35823,119.66181 575.84559,104.1593 573.72011,89.280962 C 571.93481,76.783829 569.11469,65.981679 564.4344,54.280962 C 560.49738,44.438407 552.61084,37.472542 543.72011,32.138104 C 535.97667,27.492038 529.39933,21.754663 522.29154,16.423819 C 518.23772,13.383453 511.86995,11.854135 507.29154,10.709533 C 501.5906,9.2842966 499.41667,8.7201676 493.72011,12.138104 z"
       id="path2407" />
    <path
       style="opacity:1;fill:#d7c9e1;fill-opacity:1;fill-rule:evenodd;stroke:#000000;stroke-width:2;stroke-linecap:butt;stroke-linejoin:miter;marker:none;marker-start:none;marker-mid:none;marker-end:none;stroke-miterlimit:4;stroke-dasharray:none;stroke-dashoffset:0;stroke-opacity:1;visibility:visible;display:inline;overflow:visible;enable-background:accumulate"
       d="M 416.57726,127.1381 C 416.33916,128.32858 416.10107,129.51906 415.86297,130.70953 C 414.89622,135.5433 419.89023,143.70299 420.86297,148.56668 C 422.69298,157.71674 427.85863,166.69652 430.86297,175.70953 C 433.5349,183.72532 435.30685,191.34219 437.29154,199.28096 C 438.65808,204.74713 440.1969,209.75864 442.29154,214.99525 C 443.83971,218.86566 446.55835,222.81458 448.00583,225.70953 C 449.22083,228.13954 455.45575,231.57735 458.00583,232.85239 C 463.07268,235.38582 467.57313,236.49421 473.00583,237.85239 C 478.17922,239.14574 487.02371,235.3881 491.57726,233.56668 C 499.76985,230.28964 506.92297,224.29619 512.29154,217.1381 C 517.30112,210.45867 523.71486,205.0005 529.4344,199.28096 C 535.18598,193.52939 539.58094,189.40908 541.57726,181.42382 C 543.64269,173.16209 544.24962,165.20484 545.86297,157.1381 C 547.20134,150.44623 547.47629,140.73423 545.86297,134.28096"
       id="path2417" />
    <path
       style="opacity:1;fill:none;fill-opacity:1;fill-rule:evenodd;stroke:#000000;stroke-width:2;stroke-linecap:butt;stroke-linejoin:miter;marker:none;marker-start:none;marker-mid:none;marker-end:none;stroke-miterlimit:4;stroke-dasharray:none;stroke-dashoffset:0;stroke-opacity:1;visibility:visible;display:inline;overflow:visible;enable-background:accumulate"
       d="M 440.14868,205.70953 C 445.38678,205.70953 450.62488,205.70953 455.86297,205.70953 C 459.98628,205.70953 464.37658,204.99525 468.72011,204.99525 C 471.92517,204.99525 475.80696,204.28096 479.4344,204.28096 C 482.67558,204.28096 487.01791,203.47855 490.14868,202.85239 C 493.2452,202.23309 495.71308,202.1381 499.4344,202.1381 C 500.14868,202.1381 500.86297,202.1381 501.57726,202.1381"
       id="path3366" />
    <path
       style="opacity:1;fill:#b2a6bb;fill-opacity:1;fill-rule:evenodd;stroke:#000000;stroke-width:2;stroke-linecap:butt;stroke-linejoin:miter;marker:none;marker-start:none;marker-mid:none;marker-end:none;stroke-miterlimit:4;stroke-dasharray:none;stroke-dashoffset:0;stroke-opacity:1;visibility:visible;display:inline;overflow:visible;enable-background:accumulate"
       d="M 460.86297,104.28096 C 460.38678,105.47144 459.91059,106.66191 459.4344,107.85239 C 457.87238,111.75744 458.72011,112.83723 458.72011,117.1381 C 458.72011,120.23003 460.24169,124.653 460.86297,127.1381 C 461.92863,131.40076 462.6737,133.61671 464.4344,137.1381 C 466.45514,141.17959 467.53041,141.66269 470.14868,144.28096 C 472.83188,146.96416 476.9604,147.68682 480.14868,149.28096 C 483.3763,150.89477 487.41718,151.45523 490.14868,152.1381 C 493.31762,152.93034 498.10114,152.11428 500.86297,151.42382 C 504.75449,150.45094 507.30327,150.34653 510.86297,148.56668 C 514.56725,146.71454 517.54019,144.80876 520.14868,142.85239 C 522.69272,140.94437 525.04335,135.61189 526.57726,133.56668 C 528.45126,131.06801 528.0476,126.92924 528.72011,123.56668 C 529.39634,120.18554 529.4344,116.61038 529.4344,112.85239 C 529.4344,108.68573 528.01184,107.14412 525.86297,104.99525 C 525.69461,104.82689 525.86297,104.51906 525.86297,104.28096 C 525.86297,103.05964 519.97818,100.62428 518.72011,99.99525 C 515.81301,98.5417 511.98959,97.06262 509.4344,96.42382 C 505.78417,95.51126 502.19999,95.15093 498.72011,94.28096 C 495.31675,93.43012 491.08689,93.5107 488.00583,94.28096 C 484.36842,95.19031 482.11426,96.28957 478.72011,97.1381 C 475.43803,97.95863 472.40258,99.58259 470.14868,100.70953 C 466.75852,102.40461 464.9253,102.65603 460.86297,104.28096 z"
       id="path2435" />
    <path
       style="opacity:1;fill:#866c9b;fill-opacity:1;fill-rule:evenodd;stroke:#000000;stroke-width:2;stroke-linecap:butt;stroke-linejoin:miter;marker:none;marker-start:none;marker-mid:none;marker-end:none;stroke-miterlimit:4;stroke-dasharray:none;stroke-dashoffset:0;stroke-opacity:1;visibility:visible;display:inline;overflow:visible;enable-background:accumulate"
       d="M 469.4344,114.99525 C 469.1963,116.18572 468.95821,117.3762 468.72011,118.56668 C 468.05745,121.88 467.29154,124.67118 467.29154,128.56668 C 467.29154,130.4094 468.91246,134.33605 469.4344,136.42382 C 470.02998,138.80615 473.91163,141.4717 476.57726,142.1381 C 479.64203,142.9043 483.1007,142.85239 486.57726,142.85239 C 490.18238,142.85239 492.92186,142.1381 496.57726,142.1381 C 500.36924,142.1381 503.67576,140.0396 505.14868,138.56668 C 507.10775,136.60761 509.40625,135.76583 510.86297,132.85239 C 512.42872,129.7209 514.11949,128.39774 515.14868,124.28096 C 515.91488,121.21619 515.86297,117.75752 515.86297,114.28096 C 515.86297,111.08658 513.49389,120.29688 511.57726,122.85239 C 509.66549,125.40142 507.76869,126.89953 504.4344,128.56668 C 502.24139,129.66318 498.67391,130.89965 496.57726,131.42382 C 493.37876,132.22344 490.05248,132.85239 486.57726,132.85239 C 483.24122,132.85239 480.42656,130.27312 478.72011,128.56668 C 476.53777,126.38434 475.55958,124.69185 473.72011,122.85239 C 471.69533,120.82761 470.97215,118.83961 469.4344,114.99525 z"
       id="path2505" />
    <path
       style="opacity:1;fill:#b2a6bb;fill-opacity:1;fill-rule:evenodd;stroke:#000000;stroke-width:2;stroke-linecap:butt;stroke-linejoin:miter;marker:none;marker-start:none;marker-mid:none;marker-end:none;stroke-miterlimit:4;stroke-dasharray:none;stroke-dashoffset:0;stroke-opacity:1;visibility:visible;display:inline;overflow:visible;enable-background:accumulate"
       d="M 424.43439,152.85239 C 425.62487,153.09048 426.81535,153.32858 428.00582,153.56667 C 431.05983,154.17747 434.88202,153.56667 438.00582,153.56667 C 442.13609,153.56667 444.16919,150.97473 445.86297,149.28096 C 448.54161,146.60232 450.07712,145.85266 451.57725,142.85239 C 453.36873,139.26943 453.50137,138.01308 454.43439,134.28096 C 455.20059,131.21619 455.14868,127.75752 455.14868,124.28096 C 455.14868,120.98048 454.30845,117.3486 453.72011,114.99524 C 453.05044,112.31658 450.81542,109.69375 449.43439,107.85239 C 447.12667,104.77543 444.13339,103.34092 441.57725,101.42382 C 440.04555,100.27504 435.15249,99.99524 433.00582,99.99524 C 429.70057,99.99524 426.35089,99.33755 423.72011,99.99524 C 419.59916,101.02548 418.0845,100.63085 415.86297,102.85239 C 413.65267,105.06269 412.01383,104.67749 410.86297,109.28096 C 409.9438,112.95762 411.38967,115.33436 413.00582,118.56667 C 414.40308,121.36119 414.50985,124.58277 415.14868,127.1381 C 416.04829,130.73653 416.40561,134.30866 417.29154,137.85239 C 418.22829,141.5994 419.35353,144.67179 420.14868,147.85239 C 420.78273,150.38861 421.89282,151.5816 424.43439,152.85239 z"
       id="path2439" />
    <path
       style="opacity:1;fill:#f1eaf6;fill-opacity:1;fill-rule:evenodd;stroke:#000000;stroke-width:2;stroke-linecap:butt;stroke-linejoin:miter;marker:none;marker-start:none;marker-mid:none;marker-end:none;stroke-miterlimit:4;stroke-dasharray:none;stroke-dashoffset:0;stroke-opacity:1;visibility:visible;display:inline;overflow:visible;enable-background:accumulate"
       d="M 420.14868,112.1381 C 419.91059,113.32858 419.67249,114.51906 419.4344,115.70953 C 418.6345,119.70905 419.4344,122.38031 419.4344,126.42382 C 419.4344,129.42929 424.92979,132.63349 425.86297,133.56668 C 427.19784,134.90155 433.65115,132.51249 435.14868,132.1381 C 439.33183,131.09232 442.26575,129.30675 445.14868,126.42382 C 448.39261,123.17989 449.05637,120.75131 450.86297,117.1381 C 452.74873,113.36658 446.48081,111.22114 444.4344,110.70953 C 441.31964,109.93084 436.94973,110.70953 433.72011,110.70953 C 428.73167,110.70953 425.07071,112.1381 420.14868,112.1381 z"
       id="path2423" />
    <path
       style="opacity:1;fill:#f1eaf6;fill-opacity:1;fill-rule:evenodd;stroke:#000000;stroke-width:2;stroke-linecap:butt;stroke-linejoin:miter;marker:none;marker-start:none;marker-mid:none;marker-end:none;stroke-miterlimit:4;stroke-dasharray:none;stroke-dashoffset:0;stroke-opacity:1;visibility:visible;display:inline;overflow:visible;enable-background:accumulate"
       d="M 471.57726,112.1381 C 471.51827,112.1381 477.78553,109.33604 483.72011,107.85239 C 487.29502,106.95866 493.17209,107.1381 496.57726,107.1381 C 500.9594,107.1381 504.47911,107.85239 508.72011,107.85239 C 512.35765,107.85239 514.4344,109.70576 514.4344,113.56668 C 514.4344,118.31768 514.26787,119.97919 511.57726,123.56668 C 509.29339,126.61183 504.2486,128.60383 500.86297,129.28096 C 495.90962,130.27163 491.88337,131.42382 486.57726,131.42382 C 482.09899,131.42382 479.29625,130.57138 476.57726,127.85239 C 473.7143,124.98943 471.85851,121.83453 470.86297,117.85239 C 470.2174,115.27011 470.34336,115.22284 471.57726,112.1381 z"
       id="path2425" />
    <path
       style="opacity:1;fill:#371b4b;fill-opacity:1;fill-rule:evenodd;stroke:#000000;stroke-width:2;stroke-linecap:butt;stroke-linejoin:miter;marker:none;marker-start:none;marker-mid:none;marker-end:none;stroke-miterlimit:4;stroke-dasharray:none;stroke-dashoffset:0;stroke-opacity:1;visibility:visible;display:inline;overflow:visible;enable-background:accumulate"
       d="M 477.29154,127.85239 C 474.32403,125.55951 473.74489,121.37426 475.86297,117.1381 C 477.15534,114.55337 480.76946,114.99525 483.72011,114.99525 C 487.4451,114.99525 490.09171,115.69529 493.00583,116.42382 C 495.67505,117.09112 496.66686,119.37057 498.72011,121.42382 C 501.62619,124.3299 497.72221,128.85029 496.57726,129.99525 C 494.62222,131.95029 490.77332,132.1381 487.29154,132.1381 C 481.97376,132.1381 481.91442,129.70154 477.29154,127.85239 z"
       id="path2461" />
    <path
       style="opacity:1;fill:#371b4b;fill-opacity:1;fill-rule:evenodd;stroke:#000000;stroke-width:2;stroke-linecap:butt;stroke-linejoin:miter;marker:none;marker-start:none;marker-mid:none;marker-end:none;stroke-miterlimit:4;stroke-dasharray:none;stroke-dashoffset:0;stroke-opacity:1;visibility:visible;display:inline;overflow:visible;enable-background:accumulate"
       d="M 420.50583,128.92382 C 414.8349,128.92382 422.20052,120.10729 424.07726,119.63811 C 427.57311,118.76414 428.60713,117.49525 432.64869,117.49525 C 435.39805,117.49525 437.12918,121.26146 438.36297,122.49525 C 440.74568,124.87795 438.40771,130.26291 437.64869,131.78096 C 436.15563,134.76707 433.75511,134.63811 429.79154,134.63811 C 424.15555,134.63811 424.52034,132.93833 420.50583,128.92382 z"
       id="path2463" />
    <path
       style="opacity:1;fill:#866c9b;fill-opacity:1;fill-rule:evenodd;stroke:#000000;stroke-width:2;stroke-linecap:butt;stroke-linejoin:miter;marker:none;marker-start:none;marker-mid:none;marker-end:none;stroke-miterlimit:4;stroke-dasharray:none;stroke-dashoffset:0;stroke-opacity:1;visibility:visible;display:inline;overflow:visible;enable-background:accumulate"
       d="M 419.4344,128.56668 C 422.76092,126.07178 420.43196,136.99037 422.29154,140.70953 C 423.18631,142.49906 426.87503,144.28096 430.14868,144.28096 C 431.87728,144.28096 436.24942,141.2306 438.72011,139.99525 C 441.0967,138.80695 443.8914,135.53825 445.14868,134.28096 C 447.83491,131.59473 448.69912,129.32294 450.14868,126.42382 C 451.45248,123.81623 452.37879,121.07482 453.00583,118.56668 C 454.61568,112.12728 450.66375,117.64183 449.4344,119.28096 C 447.52734,121.82371 445.74609,124.39784 443.72011,126.42382 C 441.54167,128.60226 440.50679,130.17334 438.00583,131.42382 C 434.96624,132.94361 432.59036,134.02768 428.72011,134.99525 C 424.87827,135.95571 422.46375,130.38429 419.4344,128.56668 z"
       id="path2501" />
    <path
       style="opacity:1;fill:none;fill-opacity:1;fill-rule:evenodd;stroke:#000000;stroke-width:2;stroke-linecap:butt;stroke-linejoin:miter;marker:none;marker-start:none;marker-mid:none;marker-end:none;stroke-miterlimit:4;stroke-dasharray:none;stroke-dashoffset:0;stroke-opacity:1;visibility:visible;display:inline;overflow:visible;enable-background:accumulate"
       d="M 494.4344,12.138104 C 493.24392,12.614295 492.05345,13.090485 490.86297,13.566676 C 487.88222,14.758977 485.99016,16.392021 483.00583,17.138104 C 481.2556,17.575661 476.2095,21.791578 475.14868,22.85239 C 472.68128,25.319798 471.38494,26.616137 468.72011,29.280962 C 465.6299,32.371179 464.02874,34.377999 462.29154,37.85239 C 460.73839,40.9587 459.62673,42.797355 458.72011,46.423819 C 457.94333,49.530949 456.41716,52.778499 455.86297,54.995247 C 455.01707,58.378836 455.14868,62.118072 455.14868,65.709533 C 455.14868,68.986542 454.4344,72.877918 454.4344,76.423819 C 454.4344,79.995247 454.4344,83.566676 454.4344,87.138104 C 454.4344,90.709533 454.4344,94.28096 454.4344,97.85239 C 454.4344,101.1294 455.14868,105.02077 455.14868,108.56668 C 455.14868,111.77174 455.86297,115.65352 455.86297,119.28096 C 455.86297,122.85239 455.86297,126.42382 455.86297,129.99525 C 455.86297,133.87795 456.57726,136.82933 456.57726,140.70953 C 456.57726,144.40225 456.47338,148.15119 457.29154,151.42382 C 458.09682,154.64494 458.0785,158.14307 458.72011,160.70953 C 459.59924,164.22606 460.14868,167.6425 460.14868,171.42382 C 460.14868,175.04269 461.57726,178.35608 461.57726,182.1381 C 461.57726,185.32363 462.27265,188.49111 463.00583,191.42382 C 463.84184,194.76787 463.63467,198.22489 464.4344,201.42382 C 465.32595,204.99003 465.70778,207.23162 466.57726,210.70953 C 467.43051,214.12256 468.75002,217.19792 470.14868,219.99525 C 471.26233,222.22253 472.72818,225.15423 473.72011,227.1381 C 475.16481,230.0275 475.57649,231.13733 478.00583,233.56668 C 480.79066,236.35151 483.17359,235.84616 486.57726,234.99525 C 487.59431,234.74098 487.65945,233.37196 488.00583,232.85239"
       id="path2469" />
    <path
       style="opacity:1;fill:none;fill-opacity:1;fill-rule:evenodd;stroke:#000000;stroke-width:2;stroke-linecap:butt;stroke-linejoin:miter;marker:none;marker-start:none;marker-mid:none;marker-end:none;stroke-miterlimit:4;stroke-dasharray:none;stroke-dashoffset:0;stroke-opacity:1;visibility:visible;display:inline;overflow:visible;enable-background:accumulate"
       d="M 547.29154,128.56668 C 547.05345,128.80477 546.65892,128.9543 546.57726,129.28096 C 545.92862,131.87549 546.57726,135.52384 546.57726,138.56668 C 546.57726,141.5449 547.0668,145.70953 550.14868,145.70953 C 553.20863,145.70953 557.58245,145.12771 558.72011,142.85239 C 560.11714,140.05833 560.74416,137.61334 561.57726,134.28096 C 562.21734,131.72063 562.22708,126.48829 563.72011,124.99525 C 565.70385,123.01151 567.90979,120.9016 569.4344,117.85239 C 570.43923,115.84272 572.29154,112.93067 572.29154,109.99525 C 572.29154,106.97457 573.02067,102.91177 572.29154,99.99525 C 571.67469,97.52786 570.66504,93.82486 568.72011,92.85239 C 565.50077,91.242717 564.85909,90.140047 560.86297,92.1381 C 558.44888,93.34515 556.36641,94.74353 553.00583,96.42382 C 551.21926,97.3171 546.35995,100.18136 545.86297,101.42382 C 545.38678,102.61429 544.91059,103.80477 544.4344,104.99525 C 545.12736,102.22342 543.74144,110.79484 544.4344,113.56668"
       id="path2471" />
    <path
       style="opacity:1;fill:none;fill-opacity:1;fill-rule:evenodd;stroke:#000000;stroke-width:2;stroke-linecap:butt;stroke-linejoin:miter;marker:none;marker-start:none;marker-mid:none;marker-end:none;stroke-miterlimit:4;stroke-dasharray:none;stroke-dashoffset:0;stroke-opacity:1;visibility:visible;display:inline;overflow:visible;enable-background:accumulate"
       d="M 564.4344,112.85239 C 564.67249,111.66191 564.91059,110.47144 565.14868,109.28096 C 565.82998,105.87449 565.87105,104.64215 562.29154,102.85239 C 559.98203,101.69764 555.4807,104.82924 553.72011,105.70953 C 551.68202,106.72858 550.80815,109.50024 550.14868,112.1381 C 549.41321,115.08001 550.86297,117.96492 550.86297,121.42382 C 550.86297,122.92969 550.86297,126.6932 550.86297,129.99525 C 550.86297,131.86535 551.86541,133.29074 552.29154,134.99525"
       id="path2477" />
    <path
       style="opacity:1;fill:none;fill-opacity:1;fill-rule:evenodd;stroke:#000000;stroke-width:2;stroke-linecap:butt;stroke-linejoin:miter;marker:none;marker-start:none;marker-mid:none;marker-end:none;stroke-miterlimit:4;stroke-dasharray:none;stroke-dashoffset:0;stroke-opacity:1;visibility:visible;display:inline;overflow:visible;enable-background:accumulate"
       d="M 520.86297,267.1381 C 522.05345,267.85239 523.24392,268.56668 524.4344,269.28096 C 525.59417,269.97682 533.59456,268.06235 534.4344,267.85239 C 537.98804,266.96398 540.23823,266.0219 543.72011,264.28096 C 546.21954,263.03125 548.70281,262.14675 551.57726,260.70953 C 554.45485,259.27074 557.17609,256.53927 559.4344,254.28096 C 561.52202,252.19334 563.30225,250.3143 565.14868,247.85239 C 566.5926,245.92717 568.2293,244.54831 569.4344,242.1381 C 570.98293,239.04105 572.46121,237.51306 573.72011,234.99525 C 573.8707,234.69408 573.24392,234.51906 573.00583,234.28096"
       id="path2485" />
    <path
       style="opacity:1;fill:none;fill-opacity:1;fill-rule:evenodd;stroke:#000000;stroke-width:2;stroke-linecap:butt;stroke-linejoin:miter;marker:none;marker-start:none;marker-mid:none;marker-end:none;stroke-miterlimit:4;stroke-dasharray:none;stroke-dashoffset:0;stroke-opacity:1;visibility:visible;display:inline;overflow:visible;enable-background:accumulate"
       d="M 519.4344,257.85238 C 520.62488,258.09048 521.81535,258.32857 523.00583,258.56667 C 526.17047,259.1996 530.14213,256.96116 532.29154,256.42381 C 535.84661,255.53504 538.42382,254.35503 541.57726,253.56667 C 543.18831,253.16391 547.22348,249.34902 548.72011,247.85238 C 550.52467,246.04783 554.25669,243.03009 556.57726,240.70953 C 558.65387,238.63291 559.99046,236.39668 561.57726,234.28095 C 563.33568,231.93639 564.39391,229.44291 565.14868,226.42381 C 565.49029,225.05738 565.51651,225.32034 565.86297,224.28095"
       id="path2489" />
    <path
       style="opacity:1;fill:none;fill-opacity:1;fill-rule:evenodd;stroke:#000000;stroke-width:2;stroke-linecap:butt;stroke-linejoin:miter;marker:none;marker-start:none;marker-mid:none;marker-end:none;stroke-miterlimit:4;stroke-dasharray:none;stroke-dashoffset:0;stroke-opacity:1;visibility:visible;display:inline;overflow:visible;enable-background:accumulate"
       d="M 516.57725,244.99525 C 517.5173,241.23507 524.5391,244.58575 528.00582,242.85239 C 531.45152,241.12954 534.57405,238.85399 538.00582,237.13811 C 541.3491,235.46647 543.06573,234.22106 545.14868,232.13811 C 547.30541,229.98138 549.87043,228.13064 551.57725,226.42382 C 553.35569,224.64539 554.98818,221.58433 556.57725,219.99525 C 558.51323,218.05928 558.27541,215.43995 560.86297,212.85239 C 561.39536,212.32 561.33916,211.42382 561.57725,210.70954"
       id="path2491" />
    <path
       style="opacity:1;fill:none;fill-opacity:1;fill-rule:evenodd;stroke:#000000;stroke-width:2;stroke-linecap:butt;stroke-linejoin:miter;marker:none;marker-start:none;marker-mid:none;marker-end:none;stroke-miterlimit:4;stroke-dasharray:none;stroke-dashoffset:0;stroke-opacity:1;visibility:visible;display:inline;overflow:visible;enable-background:accumulate"
       d="M 513.00583,230.70953 C 513.94926,229.7661 523.32117,229.48043 525.14868,228.56668 C 529.09193,226.59505 530.64942,225.45917 534.4344,223.56668 C 538.04574,221.76101 539.94444,219.43414 543.00583,217.1381 C 545.23149,215.46886 547.90061,212.24333 550.86297,209.28096 C 553.75648,206.38745 556.0202,204.12374 558.00583,202.1381 C 558.17419,201.96975 558.00583,201.66191 558.00583,201.42382 C 558.00583,201.0871 558.48202,200.94763 558.72011,200.70953"
       id="path2493" />
    <path
       style="opacity:1;fill:none;fill-opacity:1;fill-rule:evenodd;stroke:#000000;stroke-width:2;stroke-linecap:butt;stroke-linejoin:miter;marker:none;marker-start:none;marker-mid:none;marker-end:none;stroke-miterlimit:4;stroke-dasharray:none;stroke-dashoffset:0;stroke-opacity:1;visibility:visible;display:inline;overflow:visible;enable-background:accumulate"
       d="M 508.72011,222.1381 C 508.72011,218.21134 516.33916,220.23334 520.14868,219.28096 C 522.87356,218.59974 526.59751,214.97499 528.00583,213.56668 C 531.12781,210.44469 534.40732,208.58699 537.29154,206.42382 C 540.09383,204.3221 541.9504,202.30868 545.14868,200.70953 C 547.28823,199.63976 550.56189,194.58204 551.57726,193.56668 C 553.39859,191.74534 554.46259,189.16821 555.14868,186.42382"
       id="path2495" />
    <path
       style="opacity:1;fill:#866c9b;fill-opacity:1;fill-rule:evenodd;stroke:#000000;stroke-width:2;stroke-linecap:butt;stroke-linejoin:miter;marker:none;marker-start:none;marker-mid:none;marker-end:none;stroke-miterlimit:4;stroke-dasharray:none;stroke-dashoffset:0;stroke-opacity:1;visibility:visible;display:inline;overflow:visible;enable-background:accumulate"
       d="M 410.86297,111.42382 C 411.57726,110.23334 412.29154,109.04286 413.00583,107.85239 C 414.16459,105.92111 421.51929,104.65259 423.00583,104.28096 C 426.28585,103.46095 429.26617,102.85239 433.00583,102.85239 C 436.08518,102.85239 440.01978,103.53445 443.00583,104.28096 C 448.13952,105.56438 448.20839,104.48352 450.14868,106.42382 C 450.37431,106.64944 440.99475,109.24801 440.86297,109.28096 C 437.94645,110.01009 433.88365,109.28096 430.86297,109.28096 C 427.52964,109.28096 424.1963,109.28096 420.86297,109.28096 C 418.49668,109.28096 404.71596,111.42382 410.86297,111.42382 z"
       id="path2513" />
    <path
       style="opacity:1;fill:#866c9b;fill-opacity:1;fill-rule:evenodd;stroke:#000000;stroke-width:2;stroke-linecap:butt;stroke-linejoin:miter;marker:none;marker-start:none;marker-mid:none;marker-end:none;stroke-miterlimit:4;stroke-dasharray:none;stroke-dashoffset:0;stroke-opacity:1;visibility:visible;display:inline;overflow:visible;enable-background:accumulate"
       d="M 473.67618,108.25952 C 467.05803,108.15665 465.97371,108.79558 465.15019,105.26951 C 464.8995,104.19607 472.83338,101.57605 473.7872,101.11754 C 476.60023,99.76526 479.87345,99.78339 483.094,99.83346 C 486.14285,99.88085 490.84614,99.09037 493.11499,98.56048 C 496.32031,97.81189 499.63913,97.94752 503.12489,98.00171 C 506.96126,98.06134 510.2658,98.82708 513.82677,98.88243 C 516.21663,98.91957 518.90671,101.22019 520.19906,102.55334 C 522.71444,105.14816 518.91928,104.63125 515.86946,105.34354 C 512.91649,106.03319 510.05445,104.53877 506.59597,104.48501 C 503.22044,104.43254 499.62604,103.66229 495.89408,103.60428 C 493.53929,103.56767 488.26563,104.4964 486.58728,104.88837 C 480.17007,106.38709 479.50658,103.74203 473.67618,108.25952 z"
       id="path2515" />
    <g
       id="g2545"
       transform="translate(78.72011,-80.224077)"
       style="fill:#fafbd4;fill-opacity:1">
      <path
         id="path2517"
         d="M 360.71429,338.07647 C 360.95238,338.07647 361.42857,338.31456 361.42857,338.07647 C 361.42857,334.81076 362.07087,331.22156 362.85714,328.07647 C 363.84796,324.11322 363.99362,319.95915 365,315.93361 C 365.86534,312.47225 365.56355,308.67942 366.42857,305.21932 C 367.29602,301.74954 366.96103,298.08949 367.85714,294.50504 C 368.78792,290.78193 369.06473,286.81755 370,283.07647 C 370.59162,280.70999 372.70664,275.49485 371.42857,273.79075 C 369.55037,271.28648 368.44337,268.53463 367.14286,265.93361 C 365.64139,262.93068 363.68749,260.45144 362.14286,257.36218 C 360.41401,253.90449 357.2701,251.06085 354.28571,248.07647 C 350.35043,244.14119 349.55763,239.33459 347.14286,234.50504 C 345.00243,230.22419 344.66057,229.50504 341.42857,229.50504 C 337.87646,229.50504 334.87498,230.21932 332.14286,230.21932 C 328.25872,230.21932 325.12651,230.93361 321.42857,230.93361 C 318.14906,230.93361 315.39054,231.6479 311.42857,231.6479 C 306.29778,231.6479 300.60566,232.56791 295.71429,233.79075 C 291.80917,234.76703 286.93391,233.48585 282.85714,234.50504 C 278.19176,235.67138 272.11736,236.6479 267.14286,236.6479 C 263.31941,236.6479 257.97764,235.72491 254.28571,236.6479 C 250.19758,237.66993 245.86029,238.07647 241.42857,238.07647 C 236.8985,238.07647 223.46233,238.46089 227.85714,237.36218 C 227.85714,241.37559 232.64037,245.71684 235.71429,248.79075 C 239.55304,252.6295 242.39267,259.07572 243.57143,263.79075 C 244.5204,267.58665 246.92796,270.78831 247.85714,274.50504 C 248.56121,277.32131 249.5017,281.36558 250.71429,283.79075 C 251.85485,286.07189 252.28858,290.08794 252.85714,292.36218 C 253.42126,294.61865 252.27874,298.96153 251.42857,302.36218 C 250.07211,307.78803 250.41347,313.86624 249.28571,319.50504 C 249.14563,320.20545 249.28571,320.93361 249.28571,321.6479 C 249.28571,326.49669 247.14286,331.75641 247.14286,336.6479 C 247.14286,340.41771 245.71429,344.2268 245.71429,348.07647 C 245.71429,348.71634 245.71429,348.86517 245.71429,349.50504 C 245.71429,354.35403 247.04964,357.89002 249.28571,362.36218 C 251.87283,367.53641 253.26374,373.88967 255.71429,378.79075 C 257.496,382.35419 257.57665,386.08691 259.28571,389.50504 C 261.31832,393.57025 260.38002,394.25434 263.57143,396.6479 C 265.15166,397.83307 279.418,395.93361 282.14286,395.93361 C 289.52381,395.93361 296.90476,395.93361 304.28571,395.93361 C 311.40317,395.93361 318.42924,395.21932 325.71429,395.21932 C 332.39488,395.21932 338.90482,394.50504 345.71429,394.50504 C 349.88073,394.50504 354.13876,394.50504 358.57143,394.50504 C 363.46872,394.50504 367.64832,395.62867 372.14286,394.50504 C 375.55748,393.65138 380.17013,393.79075 383.57143,393.79075 C 385.25502,393.79075 386.93811,393.4848 388.57143,393.07647 C 392.03622,392.21027 384.28571,387.36218 382.14286,384.50504 C 379.60168,381.1168 378.2412,376.70172 376.42857,373.07647 C 374.52113,369.26159 371.6149,366.67891 370.71429,363.07647 C 369.88127,359.7444 367.07693,357.23033 365.71429,354.50504 C 364.16418,351.40482 362.55354,349.61212 361.42857,347.36218 C 359.99213,344.4893 359.81369,342.57942 360.71429,338.07647 z"
         style="opacity:1;fill:#fafbd4;fill-opacity:1;fill-rule:evenodd;stroke:#000000;stroke-width:2;stroke-linecap:butt;stroke-linejoin:miter;marker:none;marker-start:none;marker-mid:none;marker-end:none;stroke-miterlimit:4;stroke-dasharray:none;stroke-dashoffset:0;stroke-opacity:1;visibility:visible;display:inline;overflow:visible;enable-background:accumulate" />
      <path
         id="path2519"
         d="M 246.9253,351.00394 C 246.87974,350.90204 255.59016,350.66356 259.08767,350.81476 C 265.63548,351.09781 272.77076,349.82214 279.1924,348.82403 C 284.20271,348.0453 289.28009,347.64463 294.3018,346.61738 C 298.9822,345.65995 303.86455,346.07584 308.66674,345.09349 C 312.28177,344.354 316.33424,344.71 320.11549,344.87346 C 324.56852,345.06595 328.89688,344.5381 332.99149,344.71511 C 336.00745,344.84548 340.40884,344.19807 343.0747,343.00614"
         style="opacity:1;fill:#fafbd4;fill-opacity:1;fill-rule:evenodd;stroke:#000000;stroke-width:2;stroke-linecap:butt;stroke-linejoin:miter;marker:none;marker-start:none;marker-mid:none;marker-end:none;stroke-miterlimit:4;stroke-dasharray:none;stroke-dashoffset:0;stroke-opacity:1;visibility:visible;display:inline;overflow:visible;enable-background:accumulate" />
      <path
         id="path2521"
         d="M 252.85714,291.6479 C 259.41734,291.6479 267.35215,290.34557 273.57143,288.79075 C 277.56594,287.79213 282.06482,288.07647 286.42857,288.07647 C 290.44572,288.07647 295.59197,287.57133 299.28571,286.6479 C 304.70756,285.29243 310.20474,285.60695 315.71429,284.50504 C 320.10565,283.62677 324.68067,283.79075 329.28571,283.79075 C 333.30586,283.79075 337.82673,282.54836 341.42857,281.6479 C 344.88867,280.78287 348.6815,281.08466 352.14286,280.21932 C 355.62284,279.34933 358.31921,278.31809 362.14286,277.36218 C 365.58559,276.5015 369.40567,274.47505 372.14286,273.79075"
         style="opacity:1;fill:#fafbd4;fill-opacity:1;fill-rule:evenodd;stroke:#000000;stroke-width:2;stroke-linecap:butt;stroke-linejoin:miter;marker:none;marker-start:none;marker-mid:none;marker-end:none;stroke-miterlimit:4;stroke-dasharray:none;stroke-dashoffset:0;stroke-opacity:1;visibility:visible;display:inline;overflow:visible;enable-background:accumulate" />
    </g>
    <path
       style="opacity:1;fill:#866c9b;fill-opacity:1;fill-rule:evenodd;stroke:#000000;stroke-width:2;stroke-linecap:butt;stroke-linejoin:miter;marker:none;marker-start:none;marker-mid:none;marker-end:none;stroke-miterlimit:4;stroke-dasharray:none;stroke-dashoffset:0;stroke-opacity:1;visibility:visible;display:inline;overflow:visible;enable-background:accumulate"
       d="M 503.00582,437.85239 C 504.1963,437.3762 505.38678,436.90001 506.57725,436.42382 C 509.67278,435.18561 512.83033,431.73401 515.14868,429.99525 C 516.87659,428.69932 521.06431,427.62348 523.00582,427.1381 C 525.44207,426.52904 529.62637,421.63698 530.86297,420.70953 C 533.85286,418.46711 536.48233,417.18557 539.4344,415.70953 C 542.45548,414.19899 544.18258,412.9783 547.29154,411.42382 C 550.80854,409.66532 552.93192,406.49773 555.86297,403.56668 C 558.48861,400.94103 562.04497,399.52753 563.72011,397.85239 C 566.15611,395.41639 569.59866,393.1274 573.00582,391.42382 C 576.44139,389.70604 580.10544,385.76719 582.29154,382.85239 C 584.3889,380.05591 586.76798,377.66166 588.72011,375.70953 C 591.66697,372.76267 594.26194,371.59627 597.29154,368.56668 C 600.63583,365.22239 604.56705,362.00545 608.00582,358.56668 C 611.33114,355.24136 613.42605,351.71788 616.57725,348.56668 C 619.7976,345.34633 623.29821,341.98636 625.86297,338.56668 C 628.42582,335.14954 631.01622,331.98485 633.00582,329.99525 C 635.14309,327.85798 637.46656,323.93092 638.72011,321.42382 C 640.53782,317.7884 643.02772,314.96605 645.14868,312.1381 C 647.26903,309.31097 649.29589,305.54929 650.14868,302.1381 C 650.75893,299.69712 652.29154,296.46802 652.29154,292.85239 C 652.29154,289.34056 652.37036,286.0248 651.57725,282.85239 C 650.89247,280.11327 645.61074,276.17159 643.72011,274.28096 C 641.6071,272.16795 638.94989,270.11014 635.86297,268.56668 C 633.75803,267.5142 629.65911,267.1381 626.57725,267.1381 C 622.78461,267.1381 619.69468,267.00796 616.57725,268.56668 C 614.02474,269.84293 610.36345,270.83441 608.00582,271.42382 C 604.63657,272.26613 601.45674,274.40147 599.4344,276.42382 C 596.84395,279.01426 594.37059,279.34476 591.57725,282.1381 C 589.40144,284.31391 587.96214,285.79689 586.57725,288.56668 C 585.8151,290.09098 582.6302,293.9423 581.57725,294.99525 C 579.75244,296.82006 579.13335,299.58201 576.57725,302.1381 C 573.59659,305.11877 573.11433,307.63538 571.57725,310.70953 C 570.09143,313.68119 566.78996,316.21112 564.4344,318.56668 C 561.62988,321.37119 558.6057,325.86208 556.57725,328.56668 C 554.24491,331.67647 551.413,334.49997 549.4344,337.1381 C 547.61218,339.56772 544.00455,343.28224 542.29154,344.99525 C 540.08496,347.20183 538.46619,350.96345 536.57725,352.85239 C 534.00856,355.42109 530.7643,356.52249 528.72011,358.56668 C 528.55175,358.73503 528.72011,359.04287 528.72011,359.28096 C 528.72011,360.4477 523.6462,363.64058 523.00582,364.28096 C 520.75995,366.52684 519.32449,367.93482 516.57725,369.99525 C 514.03895,371.89897 513.01924,374.9416 512.29154,377.85239 C 511.25718,381.98982 510.98017,385.8378 510.14868,389.99525 C 510.05529,390.46219 510.14868,390.94763 510.14868,391.42382 C 510.14868,395.57111 508.90261,399.97955 508.00582,403.56668 C 507.06186,407.34254 505.86297,410.27285 505.86297,414.28096 C 505.86297,417.70479 505.05916,421.7819 504.4344,424.28096 C 503.61513,427.55801 503.72011,430.26705 503.72011,433.56668 C 503.72011,435.49501 503.7668,434.04749 503.00582,437.85239 z"
       id="path3350" />
    <path
       style="opacity:1;fill:#b2a6bb;fill-opacity:1;fill-rule:evenodd;stroke:#000000;stroke-width:2;stroke-linecap:butt;stroke-linejoin:miter;marker:none;marker-start:none;marker-mid:none;marker-end:none;stroke-miterlimit:4;stroke-dasharray:none;stroke-dashoffset:0;stroke-opacity:1;visibility:visible;display:inline;overflow:visible;enable-background:accumulate"
       d="M 496.57726,268.56668 C 497.29154,269.75715 498.00583,270.94763 498.72011,272.1381 C 500.77831,275.56843 502.12758,277.19653 503.00583,280.70953 C 503.61709,283.15458 505.27361,286.92352 505.86297,289.28096 C 506.71155,292.67528 507.14517,294.40976 508.00583,297.85239 C 508.84987,301.22856 509.55356,304.04333 510.14868,306.42382 C 510.96727,309.69817 511.57726,311.38194 511.57726,314.99525 C 511.57726,317.59517 513.57599,322.56414 514.4344,324.28096 C 515.66588,326.74393 516.50392,331.13048 517.29154,334.28096 C 518.36706,338.58304 519.09937,342.22656 520.14868,346.42382 C 521.07569,350.13182 522.09957,353.89701 523.72011,357.1381 C 525.55288,360.80364 526.25181,364.34436 528.00583,367.85239 C 529.57944,370.99962 529.11674,371.98015 528.72011,373.56668 C 528.98828,374.90751 529.77449,377.58051 529.4344,379.28096 C 528.70761,382.9149 528.85211,385.18153 528.00583,388.56668 C 527.1244,392.09238 526.77822,395.61998 525.86297,399.28096 C 524.95882,402.89757 523.29037,405.28565 522.29154,409.28096 C 521.48753,412.49702 520.25324,414.78613 518.72011,417.85239 C 517.25575,420.78111 515.42294,423.73246 513.72011,427.1381 C 512.24375,430.09084 509.56073,433.47193 506.57726,435.70953 C 504.26169,437.44621 500.69634,438.84051 498.72011,437.85239 C 496.25172,436.61819 493.17634,434.9845 491.57726,432.85239 C 490.02024,430.77638 486.08557,427.5833 485.14868,425.70953 C 483.74111,422.89439 481.63524,419.83447 480.14868,417.85239 C 478.05012,415.0543 478.26952,412.66549 476.57726,409.28096 C 475.7508,407.62804 474.4344,403.63458 474.4344,400.70953 C 474.4344,397.3762 474.4344,394.04287 474.4344,390.70953 C 474.4344,387.55794 474.51126,383.15983 473.72011,379.99525 C 472.98736,377.06423 472.29154,372.29143 472.29154,369.28096 C 472.29154,365.31796 471.64927,361.06959 470.86297,357.1381 C 470.10329,353.33971 469.4344,348.20873 469.4344,344.28096 C 469.4344,339.22289 468.00583,334.70715 468.00583,329.99525 C 468.00583,325.81802 466.57726,321.78258 466.57726,317.85239 C 466.57726,314.77567 466.48112,311.23154 465.14868,308.56668 C 463.81493,305.89917 462.29154,301.65768 462.29154,298.56668 C 462.29154,294.87449 461.91886,291.7965 463.72011,289.99525 C 466.26704,287.44832 468.06297,286.36667 470.86297,283.56668 C 472.97328,281.45637 474.62638,279.80327 476.57726,277.85239 C 479.04739,275.38226 481.17772,274.83787 485.14868,272.85239 C 488.78773,271.03287 498.39678,272.20572 496.57726,268.56668 z"
       id="path3348" />
    <path
       style="opacity:1;fill:#d7c9e1;fill-opacity:1;fill-rule:evenodd;stroke:#000000;stroke-width:2;stroke-linecap:butt;stroke-linejoin:miter;marker:none;marker-start:none;marker-mid:none;marker-end:none;stroke-miterlimit:4;stroke-dasharray:none;stroke-dashoffset:0;stroke-opacity:1;visibility:visible;display:inline;overflow:visible;enable-background:accumulate"
       d="M 461.57726,207.85239 C 462.76773,208.56668 463.95821,209.28096 465.14868,209.99525 C 466.99418,211.10254 469.73801,212.90152 471.57726,214.28096 C 473.81697,215.96075 474.6664,219.03068 475.86297,221.42382 C 477.31886,224.33561 478.12231,227.60403 478.72011,229.99525 C 479.27111,232.19925 480.95092,234.63275 481.57726,237.1381 C 482.34396,240.20493 483.98658,243.38533 485.14868,245.70953 C 486.40029,248.21275 486.94423,251.44347 488.00583,253.56668 C 489.6795,256.91402 491.27733,258.98103 493.72011,261.42382 C 493.88847,261.59218 493.72011,261.90001 493.72011,262.1381 C 493.72011,262.37488 497.56306,267.50991 498.00583,269.28096 C 498.60818,271.69036 499.4344,273.84646 499.4344,276.42382 C 499.4344,278.88378 496.88927,282.22835 495.86297,284.28096 C 494.15636,287.69417 490.38176,290.53473 487.29154,292.85239 C 484.0287,295.29953 481.1075,295.70953 478.72011,295.70953 C 474.49788,295.70953 473.26987,296.55584 470.14868,294.99525 C 469.93573,294.88877 469.67249,294.99525 469.4344,294.99525 C 467.16738,294.99525 463.79721,290.07234 463.00583,289.28096 C 461.06521,287.34035 460.77519,283.21554 460.14868,280.70953 C 459.13112,276.63926 458.95309,275.22823 455.86297,272.1381 C 453.77994,270.05508 451.4628,267.73793 449.4344,265.70953 C 447.67445,263.94959 447.96519,259.11839 447.29154,256.42382 C 446.56241,253.50729 447.29154,249.4445 447.29154,246.42382 C 447.29154,244.22496 448.5331,239.65499 449.4344,237.85239 C 451.03591,234.64936 450.07309,232.92799 452.29154,230.70953 C 454.8071,228.19397 455.13436,225.65225 454.4344,222.85239 C 453.41627,218.77989 455.81169,217.24067 457.29154,214.28096 C 458.53563,211.79278 459.50919,211.29917 461.57726,207.85239 z"
       id="path3338" />
    <path
       style="opacity:1;fill:#d7c9e1;fill-opacity:1;fill-rule:evenodd;stroke:#000000;stroke-width:2;stroke-linecap:butt;stroke-linejoin:miter;marker:none;marker-start:none;marker-mid:none;marker-end:none;stroke-miterlimit:4;stroke-dasharray:none;stroke-dashoffset:0;stroke-opacity:1;visibility:visible;display:inline;overflow:visible;enable-background:accumulate"
       d="M 462.29154,208.56668 C 461.10107,208.32858 459.91059,208.09049 458.72011,207.85239 C 455.08721,207.12581 453.03323,206.60924 449.4344,205.70953 C 446.31964,204.93084 441.94973,205.70953 438.72011,205.70953 C 436.36504,205.70953 431.10644,204.69897 429.4344,204.28096 C 426.56946,203.56473 423.22236,205.83397 420.86297,206.42382 C 418.94076,206.90437 415.68574,210.17248 414.4344,211.42382 C 412.69187,213.16635 410.36405,214.23191 408.72011,216.42382 C 407.26127,218.36895 407.29154,221.80172 407.29154,224.99525 C 407.29154,227.1687 415.76752,226.42382 417.29154,226.42382 C 418.90078,226.42382 422.84169,222.22017 424.4344,221.42382 C 427.65425,219.81389 428.50149,217.90705 431.57726,217.1381 C 433.06649,216.7658 438.12217,218.77433 440.14868,219.28096 C 443.63693,220.15302 446.4157,221.38343 449.4344,222.1381 C 450.57678,222.4237 455.36954,224.18228 455.86297,224.28096"
       id="path3330" />
    <path
       style="opacity:1;fill:#d7c9e1;fill-opacity:1;fill-rule:evenodd;stroke:#000000;stroke-width:2;stroke-linecap:butt;stroke-linejoin:miter;marker:none;marker-start:none;marker-mid:none;marker-end:none;stroke-miterlimit:4;stroke-dasharray:none;stroke-dashoffset:0;stroke-opacity:1;visibility:visible;display:inline;overflow:visible;enable-background:accumulate"
       d="M 458.00582,227.1381 C 462.265,228.20289 449.40786,225.34575 445.14868,224.28096 C 441.57942,223.38864 438.75527,223.22711 435.14868,221.42381 C 431.7635,219.73122 429.73026,222.06413 426.57725,222.85238 C 424.14244,223.46109 422.13823,225.07189 419.4344,226.42381 C 416.81932,227.73135 413.32105,229.58025 410.86297,231.42381 C 408.49475,233.19998 406.52454,234.33367 404.4344,236.42381 C 401.48473,239.37348 406.96855,242.69089 408.72011,243.56667 C 408.93307,243.67315 409.1963,243.56667 409.4344,243.56667 C 412.72932,243.56667 414.33769,242.92492 417.29154,240.70953 C 418.95138,239.46464 423.80804,238.36612 425.86297,237.85238 C 430.77657,236.62398 429.43258,235.35147 434.4344,237.85238 C 437.66319,239.46678 440.31099,240.43354 443.72011,242.1381 C 447.2033,243.87969 449.54042,244.12889 453.00582,244.99524"
       id="path3332"
       sodipodi:nodetypes="csssssssssssss" />
    <path
       style="opacity:1;fill:#d7c9e1;fill-opacity:1;fill-rule:evenodd;stroke:#000000;stroke-width:2;stroke-linecap:butt;stroke-linejoin:miter;marker:none;marker-start:none;marker-mid:none;marker-end:none;stroke-miterlimit:4;stroke-dasharray:none;stroke-dashoffset:0;stroke-opacity:1;visibility:visible;display:inline;overflow:visible;enable-background:accumulate"
       d="M 454.4344,241.42382 C 455.3221,241.64574 447.3594,242.1381 441.57726,242.1381 C 437.99427,242.1381 435.06483,242.11714 432.29155,241.42382 C 428.74866,240.5381 426.98177,242.92983 424.4344,243.56668 C 421.11541,244.39642 419.05285,246.6146 416.57726,247.85239 C 414.28222,248.99991 411.25768,251.48493 409.4344,252.85239 C 406.689,254.91145 410.74845,258.45215 411.57726,259.28096 C 413.39832,261.10202 417.52138,259.28096 420.14869,259.28096 C 424.64527,259.28096 425.90396,257.30643 429.4344,256.42382 C 432.69626,255.60835 432.74447,254.57276 437.29155,255.70953 C 439.23821,256.1962 451.40955,265.98282 453.72012,267.13811"
       id="path3334"
       sodipodi:nodetypes="cssssssssss" />
    <path
       style="opacity:1;fill:#d7c9e1;fill-opacity:1;fill-rule:evenodd;stroke:#000000;stroke-width:2;stroke-linecap:butt;stroke-linejoin:miter;marker:none;marker-start:none;marker-mid:none;marker-end:none;stroke-miterlimit:4;stroke-dasharray:none;stroke-dashoffset:0;stroke-opacity:1;visibility:visible;display:inline;overflow:visible;enable-background:accumulate"
       d="M 462.53301,260.24901 C 459.00288,261.05062 450.13889,260.03482 447.5284,258.65802 C 444.85478,257.24793 440.28312,257.13234 438.33958,257.14132 C 435.78963,257.15311 432.90471,259.25519 430.90557,260.46728 C 428.97851,261.63566 425.52566,261.95716 423.64159,263.09948 C 420.9649,264.72237 417.75891,264.72854 417.77874,269.0168 C 417.79401,272.32228 419.65507,273.14012 422.30854,274.5396 C 424.47095,275.68007 430.42355,273.16339 431.65378,272.41749 C 433.51704,271.28779 436.56886,270.97381 438.74772,270.47904 C 441.93793,269.75461 446.30416,271.72237 448.46026,272.85952 C 451.52869,274.47785 453.17722,275.48647 457.13897,276.45747 C 458.06398,276.68418 461.84612,281.1966 462.77112,281.42332"
       id="path3346"
       sodipodi:nodetypes="cssssssssssc" />
    <path
       style="opacity:1;fill:none;fill-opacity:1;fill-rule:evenodd;stroke:#000000;stroke-width:2;stroke-linecap:butt;stroke-linejoin:miter;marker:none;marker-start:none;marker-mid:none;marker-end:none;stroke-miterlimit:4;stroke-dasharray:none;stroke-dashoffset:0;stroke-opacity:1;visibility:visible;display:inline;overflow:visible;enable-background:accumulate"
       d="M 485.14868,294.28096 C 484.48607,298.85873 485.75256,303.12504 486.57726,306.42382 C 487.17858,308.82911 488.6833,312.70514 489.4344,315.70953 C 490.2741,319.06834 489.97897,321.45923 490.86297,324.99525 C 491.68117,328.26806 491.54132,331.28008 492.29154,334.28096 C 492.98709,337.06316 493.72011,339.43969 493.72011,342.85239 C 493.72011,346.44066 495.11998,349.16614 495.86297,352.1381 C 496.69274,355.45718 496.53325,358.39067 497.29154,361.42382 C 498.0825,364.58764 498.72011,367.42625 498.72011,370.70953 C 498.72011,373.28066 500.09801,377.64967 500.86297,380.70953 C 501.55852,383.49173 502.29154,385.86826 502.29154,389.28096 C 502.29154,392.47797 503.00583,395.75107 503.00583,399.28096 C 503.00583,402.05338 503.72011,406.02364 503.72011,409.28096 C 503.72011,412.75752 503.66821,416.21619 504.4344,419.28096 C 505.16353,422.19749 504.4344,426.26028 504.4344,429.28096 C 504.4344,433.2098 503.64282,435.30442 503.00583,437.85239 C 503.00583,437.85239 503.00583,437.85239 503.00583,437.85239"
       id="path3352" />
    <path
       style="opacity:1;fill:none;fill-opacity:1;fill-rule:evenodd;stroke:#000000;stroke-width:2;stroke-linecap:butt;stroke-linejoin:miter;marker:none;marker-start:none;marker-mid:none;marker-end:none;stroke-miterlimit:4;stroke-dasharray:none;stroke-dashoffset:0;stroke-opacity:1;visibility:visible;display:inline;overflow:visible;enable-background:accumulate"
       d="M 516.57726,421.42382 C 520.23525,417.07576 523.42914,414.57193 525.86297,412.1381 C 528.09024,409.91083 531.12286,407.65748 533.72011,405.70953 C 536.03998,403.96963 538.59075,400.12461 540.86297,397.85239 C 542.96384,395.75152 544.12906,393.15773 545.86297,391.42382 C 548.72745,388.55934 549.62372,386.94879 551.57726,384.99525 C 553.88393,382.68857 555.29599,380.59906 558.00583,378.56668 C 560.83882,376.44193 562.77285,373.08537 564.4344,371.42382 C 567.07208,368.78614 569.70643,366.86607 572.29154,364.28096 C 575.22133,361.35117 577.02863,360.25816 580.14868,357.1381 C 582.92014,354.36665 584.71477,352.57202 586.57726,350.70953 C 589.39522,347.89157 590.63942,345.2188 593.00583,342.85239 C 595.50952,340.3487 597.75707,336.0412 600.14868,332.85239 C 602.43686,329.80148 604.70818,326.05878 606.57726,323.56668 C 608.68217,320.76013 610.54036,317.78333 612.29154,314.28096 C 613.85631,311.15142 616.48413,308.75292 618.00583,305.70953 C 619.76644,302.1883 621.24885,299.93777 623.00583,296.42382 C 624.49628,293.44292 625.29292,290.42107 626.57726,287.85239 C 628.1394,284.72809 628.57822,280.56283 629.4344,277.1381 C 630.32018,273.595 630.0761,270.99987 630.86297,267.85239 C 630.88417,267.76759 632.09413,266.00565 632.29154,265.70953"
       id="path3356" />
    <path
       style="opacity:1;fill:#d7c9e1;fill-opacity:1;fill-rule:evenodd;stroke:#000000;stroke-width:2;stroke-linecap:butt;stroke-linejoin:miter;marker:none;marker-start:none;marker-mid:none;marker-end:none;stroke-miterlimit:4;stroke-dasharray:none;stroke-dashoffset:0;stroke-opacity:1;visibility:visible;display:inline;overflow:visible;enable-background:accumulate"
       d="M 314.43439,250.70953 C 313.72011,251.90001 313.00582,253.09048 312.29154,254.28096 C 310.72042,256.89949 314.91985,260.4807 315.86297,261.42382 C 318.69272,264.25357 320.61967,265.47014 324.43439,266.42382 C 327.83657,267.27436 329.61902,267.85239 333.72011,267.85239 C 337.3206,267.85239 337.38173,263.92746 336.57725,260.70953 C 335.7642,257.45731 333.20891,255.91262 331.57725,254.28096 C 329.35638,252.06009 327.19485,251.57822 323.72011,250.70953 C 320.83119,249.9873 318.38332,249.91975 314.43439,250.70953 z"
       id="path3378" />
    <path
       style="opacity:1;fill:#d7c9e1;fill-opacity:1;fill-rule:evenodd;stroke:#000000;stroke-width:2;stroke-linecap:butt;stroke-linejoin:miter;marker:none;marker-start:none;marker-mid:none;marker-end:none;stroke-miterlimit:4;stroke-dasharray:none;stroke-dashoffset:0;stroke-opacity:1;visibility:visible;display:inline;overflow:visible;enable-background:accumulate"
       d="M 317.84612,233.41791 C 312.68028,236.60535 309.35487,233.59199 311.0053,240.60627 C 312.01871,244.91324 317.12437,246.45979 321.13851,247.41051 C 326.08894,248.58297 329.10758,249.039 334.14339,248.28846 C 338.28221,247.67161 339.67924,247.64246 342.41092,244.37418 C 345.31668,240.89762 342.47159,238.70142 341.27687,236.76513 C 339.72735,234.25386 335.00639,233.07788 332.03992,232.3753 C 328.42465,231.51906 325.85112,232.27894 322.51031,232.32044 C 320.91325,232.34029 319.42585,233.18247 317.84612,233.41791 z"
       id="path3374" />
    <path
       style="opacity:1;fill:#d7c9e1;fill-opacity:1;fill-rule:evenodd;stroke:#000000;stroke-width:2;stroke-linecap:butt;stroke-linejoin:miter;marker:none;marker-start:none;marker-mid:none;marker-end:none;stroke-miterlimit:4;stroke-dasharray:none;stroke-dashoffset:0;stroke-opacity:1;visibility:visible;display:inline;overflow:visible;enable-background:accumulate"
       d="M 331.7333,194.17649 C 330.55832,194.48201 329.38334,194.78753 328.20836,195.09305 C 325.70523,195.74392 322.6909,198.8107 320.64878,200.53249 C 317.13346,203.49637 315.93924,205.76591 316.18583,210.08793 C 316.38351,213.5528 319.40303,214.05053 322.88877,214.71363 C 326.47811,215.39645 330.79256,213.49555 333.46359,211.96395 C 336.22524,210.3804 340.32635,209.28187 342.57149,208.58252 C 345.30428,207.73126 344.33462,201.86585 344.18194,199.18982 C 343.95132,195.14773 339.98869,194.5125 336.72518,193.89168 C 333.6469,193.30609 337.95684,192.55824 331.7333,194.17649 z"
       id="path3370" />
    <path
       style="opacity:1;fill:#d7c9e1;fill-opacity:1;fill-rule:evenodd;stroke:#000000;stroke-width:2;stroke-linecap:butt;stroke-linejoin:miter;marker:none;marker-start:none;marker-mid:none;marker-end:none;stroke-miterlimit:4;stroke-dasharray:none;stroke-dashoffset:0;stroke-opacity:1;visibility:visible;display:inline;overflow:visible;enable-background:accumulate"
       d="M 319.43439,219.99524 C 315.13801,218.92115 311.39892,226.42282 310.86296,228.56667 C 309.80653,232.79241 313.99489,233.4568 317.29153,234.28096 C 320.21823,235.01263 325.28143,233.53348 328.00582,232.85238 C 331.95412,231.86531 335.13148,231.78956 338.7201,229.99524 C 338.93306,229.88876 339.1963,229.99524 339.43439,229.99524 C 342.13378,229.99524 345.84689,223.58274 346.57725,222.85238 C 350.25942,219.17022 344.6632,217.01673 342.29153,216.42381 C 339.51848,215.73055 336.34344,215.58941 333.00582,216.42381 C 329.74158,217.23987 326.36805,217.90468 323.7201,218.56667 C 323.39344,218.64834 323.24391,219.04286 323.00582,219.28096 C 322.14735,220.13942 320.62487,219.75715 319.43439,219.99524 z"
       id="path3372" />
    <path
       style="opacity:1;fill:none;fill-opacity:1;fill-rule:evenodd;stroke:#000000;stroke-width:2;stroke-linecap:butt;stroke-linejoin:miter;marker:none;marker-start:none;marker-mid:none;marker-end:none;stroke-miterlimit:4;stroke-dasharray:none;stroke-dashoffset:0;stroke-opacity:1;visibility:visible;display:inline;overflow:visible;enable-background:accumulate"
       d="M 510.12704,270.50411 C 510.01904,276.93774 510.69766,280.86781 512.14734,286.66655 C 513.15777,290.70827 515.59599,295.58416 517.19811,298.78838 C 518.90283,302.19784 525.01099,302.64354 528.30978,301.81884 C 534.14275,300.3606 536.23753,299.3702 541.44177,296.76808 C 544.79186,295.09304 548.34829,288.30519 550.53314,286.66655 C 553.7065,284.28654 555.22998,280.95956 557.60421,278.58533 C 561.8314,274.35814 564.77483,273.43502 568.71589,269.49396 C 572.2547,265.95515 574.56748,264.54786 578.81741,262.42289 C 583.37327,260.14497 585.29055,258.17617 588.91894,256.36198 C 593.68492,253.97899 597.1237,252.76467 602.05092,250.30106 C 606.11073,248.27116 611.20645,249.27487 615.1829,248.28076 C 618.43457,247.46784 623.75683,247.14743 627.30473,246.26045 C 630.68422,245.41558 638.06258,248.69737 640.43672,249.29091 C 642.09937,249.70657 643.97596,250.55546 645.48748,251.31121"
       id="path3397" />
    <path
       style="opacity:1;fill:none;fill-opacity:1;fill-rule:evenodd;stroke:#000000;stroke-width:2;stroke-linecap:butt;stroke-linejoin:miter;marker:none;marker-start:none;marker-mid:none;marker-end:none;stroke-miterlimit:4;stroke-dasharray:none;stroke-dashoffset:0;stroke-opacity:1;visibility:visible;display:inline;overflow:visible;enable-background:accumulate"
       d="M 536.39101,117.97108 C 539.75422,118.81188 533.12385,111.85239 531.34024,108.87971"
       id="path3399" />
    <path
       style="opacity:1;fill:none;fill-opacity:1;fill-rule:evenodd;stroke:#000000;stroke-width:2;stroke-linecap:butt;stroke-linejoin:miter;marker:none;marker-start:none;marker-mid:none;marker-end:none;stroke-miterlimit:4;stroke-dasharray:none;stroke-dashoffset:0;stroke-opacity:1;visibility:visible;display:inline;overflow:visible;enable-background:accumulate"
       d="M 496.99506,184.64115 C 498.67864,184.30443 500.36223,183.96771 502.04582,183.63099 C 508.695,182.30116 507.48776,181.83849 510.12704,176.55993 C 510.86824,175.07752 511.75189,172.30007 512.14734,171.50916"
       id="path3419" />
    <g
       id="g3503"
       transform="translate(1.0101525,3.0304576)">
      <path
         id="path3471"
         d="M 289.92643,458.71022 C 290.49021,463.80041 295.91744,475.71978 299.09301,483.34332 C 302.20041,490.80323 305.30781,498.26313 308.41522,505.72304 C 310.89392,511.67363 309.06356,516.53941 316.18506,511.24081 C 322.6729,506.41368 333.31476,507.00858 340.11847,505.64856 C 347.65263,504.14253 354.56368,502.9143 361.79848,499.90067 C 367.78338,497.40767 373.20257,495.15032 379.51575,492.52058 C 385.10498,490.1924 393.27279,487.47225 398.94236,486.61705 C 404.32452,485.80521 409.75208,483.99545 415.02745,483.19971 C 420.63149,482.3544 423.86938,481.37046 429.24756,480.55921 C 434.92578,479.70271 437.33324,478.81845 438.96087,477.60745 C 439.61451,477.12112 434.91752,462.64659 434.22261,460.9783 C 432.056,455.77695 431.12088,448.49347 430.02842,443.02825 C 428.92939,437.53019 427.40414,431.47412 425.29015,426.3991 C 423.2178,421.42403 428.51126,412.70375 420.86184,418.39513 C 415.61101,422.3019 407.64357,422.12335 401.97929,422.97775 C 392.33812,424.43202 383.3892,427.76403 373.9275,429.19122 C 367.91521,430.09811 363.49319,430.84721 358.61927,434.47354 C 354.35093,437.6493 346.67226,438.35574 341.44606,440.5327 C 335.32987,443.08038 328.38315,443.78546 322.01944,446.43624 C 317.35701,448.37837 312.69457,450.32049 308.03213,452.26262 C 301.44573,455.00617 297.53502,457.1893 289.92643,458.71022 z"
         style="opacity:1;fill:#ffffff;fill-opacity:1;fill-rule:evenodd;stroke:#000000;stroke-width:2;stroke-linecap:butt;stroke-linejoin:miter;marker:none;marker-start:none;marker-mid:none;marker-end:none;stroke-miterlimit:4;stroke-dasharray:none;stroke-dashoffset:0;stroke-opacity:1;visibility:visible;display:inline;overflow:visible;enable-background:accumulate" />
      <path
         id="path3485"
         d="M 297.995,456.37218 C 298.33172,457.71905 298.66844,459.06592 299.00515,460.41279 C 300.33127,465.71727 302.39745,470.22785 304.05592,473.54477 C 306.12115,477.67524 308.28653,475.72911 314.15744,474.55493 C 321.71625,473.04316 320.86365,472.08535 319.2082,465.46355 C 317.8163,459.89592 314.4596,456.57067 313.14729,451.32142 C 311.85604,446.15641 302.93818,454.39491 297.995,456.37218 z"
         style="opacity:1;fill:#d9b5ae;fill-opacity:1;fill-rule:evenodd;stroke:#000000;stroke-width:2;stroke-linecap:butt;stroke-linejoin:miter;marker:none;marker-start:none;marker-mid:none;marker-end:none;stroke-miterlimit:4;stroke-dasharray:none;stroke-dashoffset:0;stroke-opacity:1;visibility:visible;display:inline;overflow:visible;enable-background:accumulate" />
      <path
         id="path3489"
         d="M 332.34019,464.4534 C 337.04688,466.79165 345.65525,464.15509 352.54324,462.4331 C 361.93022,460.08635 370.62404,456.65021 379.81736,454.35188 C 386.62202,452.65071 392.81531,450.84985 399.01026,449.30111 C 402.36263,448.46302 408.02263,446.03787 411.13209,445.2605 C 411.13209,445.2605 411.13209,445.2605 411.13209,445.2605"
         style="opacity:1;fill:none;fill-opacity:1;fill-rule:evenodd;stroke:#000000;stroke-width:2;stroke-linecap:butt;stroke-linejoin:miter;marker:none;marker-start:none;marker-mid:none;marker-end:none;stroke-miterlimit:4;stroke-dasharray:none;stroke-dashoffset:0;stroke-opacity:1;visibility:visible;display:inline;overflow:visible;enable-background:accumulate" />
      <path
         id="path3491"
         d="M 325.26912,481.62599 C 326.93479,481.20958 328.63629,480.95256 330.31988,480.61584 C 340.06609,478.6666 349.97685,476.96429 359.61431,474.55493 C 368.79404,472.25999 378.3493,468.8792 386.88842,465.46355 C 393.5767,462.78824 398.91773,460.41279 406.08132,460.41279"
         style="opacity:1;fill:none;fill-opacity:1;fill-rule:evenodd;stroke:#000000;stroke-width:2;stroke-linecap:butt;stroke-linejoin:miter;marker:none;marker-start:none;marker-mid:none;marker-end:none;stroke-miterlimit:4;stroke-dasharray:none;stroke-dashoffset:0;stroke-opacity:1;visibility:visible;display:inline;overflow:visible;enable-background:accumulate" />
      <path
         id="path3493"
         d="M 345.47217,485.6666 C 353.12689,482.60472 365.51009,481.66728 373.75644,479.60569 C 382.18245,477.49919 391.35702,475.59591 399.01026,472.53462 C 401.94937,471.35897 402.66635,471.11552 405.07117,470.51432"
         style="opacity:1;fill:none;fill-opacity:1;fill-rule:evenodd;stroke:#000000;stroke-width:2;stroke-linecap:butt;stroke-linejoin:miter;marker:none;marker-start:none;marker-mid:none;marker-end:none;stroke-miterlimit:4;stroke-dasharray:none;stroke-dashoffset:0;stroke-opacity:1;visibility:visible;display:inline;overflow:visible;enable-background:accumulate" />
    </g>
    <path
       style="opacity:1;fill:none;fill-opacity:1;fill-rule:evenodd;stroke:#000000;stroke-width:2;stroke-linecap:butt;stroke-linejoin:miter;marker:none;marker-start:none;marker-mid:none;marker-end:none;stroke-miterlimit:4;stroke-dasharray:none;stroke-dashoffset:0;stroke-opacity:1;visibility:visible;display:inline;overflow:visible;enable-background:accumulate"
       d="M 250.51783,443.2402 C 260.2802,435.91842 271.06926,430.35201 280.82241,423.03715 C 287.67727,417.896 294.42541,412.4646 300.01531,406.87471 C 301.40363,405.48638 303.38248,404.8544 305.06607,403.84425"
       id="path3499" />
    <g
       id="g3517">
      <path
         id="path3461"
         d="M 195.96959,441.21989 C 197.65318,442.23005 199.33677,443.2402 201.02036,444.25035 C 209.13267,449.11774 218.6293,452.04467 227.28432,456.37218 C 235.36793,460.41398 242.63335,465.56192 250.51783,469.50416 C 255.93703,472.21376 259.52298,476.30114 264.65997,477.58538 C 271.14406,479.20641 273.06589,467.15915 277.79195,462.4331 C 284.51303,455.71201 292.41968,449.6638 297.995,442.23005 C 302.62619,436.05513 307.88497,430.72701 312.13714,425.05745 C 316.5146,419.22084 322.07715,414.10728 327.28942,408.89501 C 331.24477,404.93966 335.30124,401.96275 337.39095,397.78333 C 338.69146,396.80795 346.58844,389.11642 346.48232,388.69196 C 345.25521,383.78351 346.91901,388.1185 341.43156,382.63105 C 339.81762,381.0171 335.11266,377.26325 332.34019,376.57013 C 326.55703,375.12434 324.2397,372.01481 319.2082,369.49906 C 314.57887,367.1844 310.2595,366.53994 306.07622,364.4483 C 300.68731,361.75384 300.34073,361.7602 294.96454,364.4483 C 290.60175,366.6297 288.83824,369.02668 283.85287,371.51937 C 279.99159,373.45001 276.14669,376.28884 271.73103,379.60059 C 266.35438,383.63308 260.67162,388.05451 254.55844,391.72242 C 247.51558,395.94814 239.21031,401.00963 233.34524,406.87471 C 227.20972,413.01023 219.35695,419.63877 212.13203,425.05745 C 205.11378,430.32115 200.83026,436.35922 195.96959,441.21989 z"
         style="opacity:1;fill:#ffffff;fill-opacity:1;fill-rule:evenodd;stroke:#000000;stroke-width:2;stroke-linecap:butt;stroke-linejoin:miter;marker:none;marker-start:none;marker-mid:none;marker-end:none;stroke-miterlimit:4;stroke-dasharray:none;stroke-dashoffset:0;stroke-opacity:1;visibility:visible;display:inline;overflow:visible;enable-background:accumulate" />
      <path
         id="path3497"
         d="M 245.46707,433.13867 C 242.20504,437.48804 256.49293,424.50285 265.67012,418.99654 C 272.04462,415.17184 278.00292,411.26217 283.85287,406.87471 C 288.19378,403.61902 290.77736,401.17626 293.95439,398.79349"
         style="opacity:1;fill:none;fill-opacity:1;fill-rule:evenodd;stroke:#000000;stroke-width:2;stroke-linecap:butt;stroke-linejoin:miter;marker:none;marker-start:none;marker-mid:none;marker-end:none;stroke-miterlimit:4;stroke-dasharray:none;stroke-dashoffset:0;stroke-opacity:1;visibility:visible;display:inline;overflow:visible;enable-background:accumulate" />
      <path
         id="path3501"
         d="M 258.59905,456.37218 C 270.2763,444.69493 285.30835,436.73395 296.98485,425.05745 C 304.21375,417.82855 313.46923,407.21881 322.23866,402.8341 C 322.9121,402.49738 323.58553,402.16066 324.25897,401.82394"
         style="opacity:1;fill:none;fill-opacity:1;fill-rule:evenodd;stroke:#000000;stroke-width:2;stroke-linecap:butt;stroke-linejoin:miter;marker:none;marker-start:none;marker-mid:none;marker-end:none;stroke-miterlimit:4;stroke-dasharray:none;stroke-dashoffset:0;stroke-opacity:1;visibility:visible;display:inline;overflow:visible;enable-background:accumulate" />
      <g
         id="g3510">
        <path
           style="opacity:1;fill:#ffffff;fill-opacity:1;fill-rule:evenodd;stroke:#000000;stroke-width:2;stroke-linecap:butt;stroke-linejoin:miter;marker:none;marker-start:none;marker-mid:none;marker-end:none;stroke-miterlimit:4;stroke-dasharray:none;stroke-dashoffset:0;stroke-opacity:1;visibility:visible;display:inline;overflow:visible;enable-background:accumulate"
           d="M 237.38585,355.35692 C 238.93055,367.85674 244.41135,379.32718 246.47722,391.72241 C 248.50796,403.90685 254.27222,415.54512 256.57874,427.07775 C 257.80787,433.22337 259.19582,438.55622 260.61935,444.25035 C 262.08302,450.10499 264.29647,451.88776 265.67012,457.38233 C 267.05947,462.93973 269.69622,462.43309 275.77164,462.43309 C 281.63671,462.43309 288.98263,460.59902 294.96454,459.40264 C 300.58492,458.27856 306.87627,459.7077 312.13713,458.39248 C 316.47076,457.30908 322.44877,459.40264 327.28942,459.40264 C 331.02719,459.40264 336.10069,461.60545 339.41125,462.43309 C 346.90006,464.30529 344.8163,463.85024 343.45186,458.39248 C 342.40694,454.2128 340.3699,448.16219 338.4011,443.24019 C 335.88325,436.94558 334.20974,430.81687 331.33003,425.05745 C 328.9334,420.26418 328.62889,413.24271 327.28942,407.88486 C 325.77602,401.83127 324.66859,396.39138 323.24881,390.71226 C 321.84653,385.10315 319.57651,380.06367 318.19805,374.54982 C 316.84966,369.15626 315.49988,364.10272 313.14729,359.39753 C 311.53412,356.17121 311.78934,348.91498 311.12698,346.26555 C 309.63277,340.28869 310.33654,339.75663 303.04576,341.21479 C 296.61656,342.50063 290.3718,342.1486 283.85286,343.23509 C 277.70024,344.26053 270.71248,343.74227 264.65996,345.2554 C 258.39283,346.82218 252.59277,347.06274 246.47722,348.28586 C 241.00365,349.38057 237.38585,347.87421 237.38585,355.35692 z"
           id="path3465" />
        <path
           style="opacity:1;fill:#b179af;fill-opacity:1;fill-rule:evenodd;stroke:#000000;stroke-width:2;stroke-linecap:butt;stroke-linejoin:miter;marker:none;marker-start:none;marker-mid:none;marker-end:none;stroke-miterlimit:4;stroke-dasharray:none;stroke-dashoffset:0;stroke-opacity:1;visibility:visible;display:inline;overflow:visible;enable-background:accumulate"
           d="M 268.70058,443.2402 C 269.03729,444.58707 269.37401,445.93394 269.71073,447.28081 C 271.36295,453.88971 271.4284,454.35188 278.8021,454.35188 C 284.53614,454.35188 286.16405,453.05084 288.90363,450.31127 C 291.47902,447.73587 285.41811,443.79529 282.84271,441.21989 C 282.39105,440.76823 269.32706,443.1149 268.70058,443.2402 z"
           id="path3473" />
        <path
           style="opacity:1;fill:none;fill-opacity:1;fill-rule:evenodd;stroke:#000000;stroke-width:2;stroke-linecap:butt;stroke-linejoin:miter;marker:none;marker-start:none;marker-mid:none;marker-end:none;stroke-miterlimit:4;stroke-dasharray:none;stroke-dashoffset:0;stroke-opacity:1;visibility:visible;display:inline;overflow:visible;enable-background:accumulate"
           d="M 269.71073,377.58028 C 265.60057,373.47012 271.33141,389.11378 272.74119,394.75288 C 274.123,400.28011 274.4596,405.66712 275.77164,410.91532 C 277.12548,416.33066 277.32612,420.08518 279.81226,425.05745 C 280.28845,426.00983 280.48569,427.07776 280.82241,428.08791"
           id="path3475" />
        <path
           style="opacity:1;fill:none;fill-opacity:1;fill-rule:evenodd;stroke:#000000;stroke-width:2;stroke-linecap:butt;stroke-linejoin:miter;marker:none;marker-start:none;marker-mid:none;marker-end:none;stroke-miterlimit:4;stroke-dasharray:none;stroke-dashoffset:0;stroke-opacity:1;visibility:visible;display:inline;overflow:visible;enable-background:accumulate"
           d="M 278.8021,374.54982 C 283.07883,383.10328 283.5354,394.49315 285.87317,403.84425 C 287.89379,411.92671 287.9655,420.29478 289.91378,428.08791 C 291.03019,432.55356 292.11729,437.9121 292.94424,441.21989"
           id="path3477" />
        <path
           style="opacity:1;fill:none;fill-opacity:1;fill-rule:evenodd;stroke:#000000;stroke-width:2;stroke-linecap:butt;stroke-linejoin:miter;marker:none;marker-start:none;marker-mid:none;marker-end:none;stroke-miterlimit:4;stroke-dasharray:none;stroke-dashoffset:0;stroke-opacity:1;visibility:visible;display:inline;overflow:visible;enable-background:accumulate"
           d="M 291.93409,382.63105 C 295.05504,395.11486 298.20633,407.34384 300.01531,420.00669 C 300.34402,422.30768 301.69377,424.20285 302.03561,425.05745"
           id="path3479" />
      </g>
      <path
         id="path3495"
         d="M 209.10158,439.19959 C 210.78516,439.87302 212.46875,440.54646 214.15234,441.21989 C 218.50665,442.96162 222.72636,444.74315 225.26402,447.28081 C 229.10471,451.1215 232.1823,445.41329 234.35539,443.2402 C 238.08213,439.51346 243.44831,439.19998 235.36554,437.17928 C 231.50526,436.21421 228.32925,433.66114 225.26402,432.12852 C 219.96895,429.48099 218.17892,430.12692 215.16249,434.14882 C 213.58458,436.2527 210.96116,437.34 209.10158,439.19959 z"
         style="opacity:1;fill:#79b186;fill-opacity:1;fill-rule:evenodd;stroke:#000000;stroke-width:2;stroke-linecap:butt;stroke-linejoin:miter;marker:none;marker-start:none;marker-mid:none;marker-end:none;stroke-miterlimit:4;stroke-dasharray:none;stroke-dashoffset:0;stroke-opacity:1;visibility:visible;display:inline;overflow:visible;enable-background:accumulate" />
    </g>
  </g>
</svg>
