<?xml version="1.0" encoding="UTF-8" standalone="no"?>
<!-- Created with Inkscape (http://www.inkscape.org/) -->

<svg
   xmlns:dc="http://purl.org/dc/elements/1.1/"
   xmlns:cc="http://creativecommons.org/ns#"
   xmlns:rdf="http://www.w3.org/1999/02/22-rdf-syntax-ns#"
   xmlns:svg="http://www.w3.org/2000/svg"
   xmlns="http://www.w3.org/2000/svg"
   xmlns:sodipodi="http://sodipodi.sourceforge.net/DTD/sodipodi-0.dtd"
   xmlns:inkscape="http://www.inkscape.org/namespaces/inkscape"
   width="1052.3622"
   height="744.09448"
   id="svg2"
   version="1.1"
   inkscape:version="0.48.3.1 r9886"
   sodipodi:docname="mux_demux.svg"
   inkscape:export-filename="/home/substack/projects/talks/lxjs_2012/images/mux_demux.png"
   inkscape:export-xdpi="100"
   inkscape:export-ydpi="100">
  <defs
     id="defs4" />
  <sodipodi:namedview
     id="base"
     pagecolor="#5a7d99"
     bordercolor="#666666"
     borderopacity="1.0"
     inkscape:pageopacity="1"
     inkscape:pageshadow="2"
     inkscape:zoom="0.35"
     inkscape:cx="728.3278"
     inkscape:cy="310.19467"
     inkscape:document-units="px"
     inkscape:current-layer="layer1"
     showgrid="false"
     inkscape:window-width="1364"
     inkscape:window-height="766"
     inkscape:window-x="0"
     inkscape:window-y="0"
     inkscape:window-maximized="0"
     showguides="false">
    <sodipodi:guide
       position="0,0"
       orientation="0,1052.3622"
       id="guide4217" />
    <sodipodi:guide
       position="1052.3622,0"
       orientation="-744.09448,0"
       id="guide4219" />
    <sodipodi:guide
       position="1052.3622,744.09448"
       orientation="0,-1052.3622"
       id="guide4221" />
    <sodipodi:guide
       position="0,744.09448"
       orientation="744.09448,0"
       id="guide4223" />
    <sodipodi:guide
       position="0,0"
       orientation="0,1052.3622"
       id="guide4225" />
    <sodipodi:guide
       position="1052.3622,0"
       orientation="-744.09448,0"
       id="guide4227" />
    <sodipodi:guide
       position="1052.3622,744.09448"
       orientation="0,-1052.3622"
       id="guide4229" />
    <sodipodi:guide
       position="0,744.09448"
       orientation="744.09448,0"
       id="guide4231" />
  </sodipodi:namedview>
  <metadata
     id="metadata7">
    <rdf:RDF>
      <cc:Work
         rdf:about="">
        <dc:format>image/svg+xml</dc:format>
        <dc:type
           rdf:resource="http://purl.org/dc/dcmitype/StillImage" />
        <dc:title></dc:title>
      </cc:Work>
    </rdf:RDF>
  </metadata>
  <g
     inkscape:label="Layer 1"
     inkscape:groupmode="layer"
     id="layer1"
     transform="translate(0,-308.2677)">
    <path
       style="fill:#483737;fill-opacity:1;stroke:#ffffff;stroke-width:1px;stroke-linecap:butt;stroke-linejoin:miter;stroke-opacity:0"
       d="M 977.75 521.4375 C 971.76705 521.3874 965.79783 521.71322 963.15625 522.59375 C 957.14777 524.59657 948.57888 520.80431 942.9375 523.625 C 940.85201 524.66774 925.03458 523.6962 922.75 523.125 C 919.38342 522.28336 914.5932 523.125 911.125 523.125 L 881.84375 523.125 C 879.05243 523.125 874.61311 523.40923 871.75 524.125 C 869.52576 524.68106 866.45073 524.125 864.15625 524.125 C 856.69363 524.125 843.70646 523.51452 837.375 525.625 C 831.61301 527.54567 819.23088 522.58162 815.15625 526.65625 C 814.59599 527.21651 800.83529 525.19764 797.4375 525.96875 C 795.76505 525.30493 793.79139 524.77111 792.9375 525.625 C 792.9115 525.651 795.15579 535.93705 795.46875 536.25 C 797.09528 537.87654 800.08421 556.13693 800.84375 564.5 C 800.79535 565.34663 800.73163 566.18817 800.65625 567.03125 L 799.875 573.1875 C 799.872 573.2078 799.878 573.2297 799.875 573.25 C 798.72035 580.11732 796.72174 586.57535 794.15625 591.84375 L 785.71875 591.25 C 786.55218 592.07751 785.34375 592.17761 785.34375 594.8125 C 785.34375 596.08102 785.87197 598.43211 786.71875 600.59375 C 790.11032 602.75012 796.38918 602.63209 800 604.4375 C 800.04603 604.46052 800.10427 604.48308 800.15625 604.5 C 800.61894 604.46043 801.08155 604.4375 801.53125 604.4375 C 801.62528 604.4375 801.71844 604.43682 801.8125 604.4375 C 802.2389 604.33544 802.61716 604.20706 802.84375 604.09375 C 803.67093 603.68016 814.58653 604.74278 814.65625 604.8125 C 815.11682 605.27307 815.4018 605.64181 815.65625 606 C 819.13036 606.51213 822.66153 606.9375 826.28125 606.9375 C 831.33337 606.9375 838.62717 609.74928 843.96875 607.96875 C 849.85594 606.00636 857.7076 609.45163 863.65625 607.46875 C 869.83836 605.40805 879.59065 605.9375 886.375 605.9375 C 891.36492 605.9375 906.86241 605.05621 910.625 606.9375 C 913.69506 608.47254 918.97547 605.84599 922.25 606.9375 C 924.53457 607.69903 930.02788 608.2407 932.34375 607.46875 C 933.86425 606.96191 954.36822 606.0394 955.5625 606.4375 C 960.01687 607.92229 965.31803 606.00184 969.71875 607.46875 C 975.15362 609.28037 982.38815 608.46875 988.40625 608.46875 C 991.13865 608.46875 1003.0652 610.96739 1005.0625 609.96875 C 1008.1415 608.42928 1020.5802 608.10737 1021.75 606.9375 C 1022.7471 605.94039 1025.211 605.22261 1026.7812 604.4375 C 1031.7289 601.96358 1036.4484 598.30168 1040.4375 594.3125 C 1041.6142 593.13582 1042.3 590.11918 1042.9688 588.78125 C 1043.7506 587.21742 1045.7965 586.32901 1046.5 584.21875 C 1049.9565 573.84903 1052.8387 556.26624 1049.0312 544.84375 C 1048.4674 543.1522 1049.2874 540.85606 1048.5 539.28125 C 1047.3656 537.01243 1045.7106 532.92927 1043.9688 531.1875 C 1042.8448 530.06365 1040.8754 529.09421 1039.9375 528.15625 C 1039.2914 527.51017 1038.744 526.04393 1037.9062 525.625 C 1034.348 523.84586 1010.0367 520.61278 1005.5938 522.09375 C 1002.5498 523.10839 995.75041 523.42197 992.4375 522.59375 C 989.71646 521.91349 983.73295 521.48757 977.75 521.4375 z "
       transform="translate(0,308.2677)"
       id="path4282" />
    <path
       style="fill:#544040;fill-opacity:1;stroke:#000000;stroke-width:1px;stroke-linecap:butt;stroke-linejoin:miter;stroke-opacity:0"
       d="m 685.89358,805.37988 c 2.07792,0.0516 1.90478,2.21508 6.56599,4.54569 2.52137,1.26068 4.14949,4.65457 6.06091,6.56599 3.46318,3.46318 8.33657,8.20889 13.13199,10.6066 2.37783,1.18892 4.31688,5.1889 7.07106,6.56599 5.70022,2.85011 11.83558,6.78482 16.16244,11.11168 1.79746,1.79746 3.87049,5.21824 6.566,6.56599 10.41738,5.2087 18.49651,14.45591 26.26396,22.22336 0.44442,0.44442 2.1943,0.67907 2.52538,1.01015 1.04594,1.04594 2.54037,2.54037 3.53554,3.53554 0.50507,0.50507 2.52538,-0.50508 3.03045,0 1.12425,1.12424 9.77666,0.82994 11.11168,-0.50508 0.71026,-0.71026 1.97004,-1.97003 2.52538,-2.52538 0.67288,-0.67288 0.70529,-3.23067 1.51523,-4.04061 5.2362,-5.2362 3.51903,-15.67387 -2.0203,-21.21321 -1.80478,-1.80477 -2.88402,-5.91447 -4.54569,-7.57614 -2.38894,-2.38894 -6.94409,-4.41871 -9.59645,-7.07107 -1.84777,-1.84777 -6.12987,-2.59433 -7.57614,-4.04061 -2.56873,-2.56873 -7.32016,-5.29985 -10.10153,-8.08122 -2.21929,-2.21929 -7.06868,-8.33256 -10.6066,-10.10152 -4.37911,-2.18956 -11.72618,-7.18049 -14.64721,-10.10153 -4.42947,-4.42946 -10.12237,-6.57641 -16.16244,-9.59645 -0.83075,-0.41537 -0.95957,-1.48993 -2.02031,-2.0203 -2.70901,-1.35451 -6.35938,-2.82385 -8.58629,-5.05077 -2.78533,-2.78532 -12.12183,-7.86128 -12.12183,-8.08122 0,-1.07802 2.0203,1.44736 2.0203,2.52539"
       id="path4329"
       inkscape:connector-curvature="0" />
    <path
       style="fill:#6c5353;stroke:#ffffff;stroke-width:1px;stroke-linecap:butt;stroke-linejoin:miter;stroke-opacity:0;fill-opacity:1"
       d="M 774.8125 524.375 C 772.50413 524.36818 770.93479 524.53668 770.75 524.90625 C 770.10279 526.20066 770.84051 529.84699 769.75 530.9375 C 767.89621 532.79129 766.94688 538.30312 764.1875 541.0625 C 761.72998 543.52002 759.77124 546.97877 757.625 549.125 C 757.30531 549.44469 753.66803 551.23053 754.09375 551.65625 C 755.56995 553.13245 756.09822 555.69197 757.625 557.21875 C 761.2745 560.86825 764.14764 565.77265 768.21875 569.84375 C 768.47179 570.09679 768.38763 571.54389 768.71875 571.875 C 772.14852 575.30477 773.14801 580.83551 776.3125 584 C 776.92487 584.61237 776.79578 586.51454 777.3125 587.03125 C 779.17758 588.89634 782.85507 595.24278 786.28125 600.25 C 788.63568 598.72962 791.13741 597.61259 792.5 596.25 C 795.56508 593.18491 796.98119 589.06887 798.9375 585.15625 C 803.8152 575.40084 802.72668 550.26585 798.21875 541.25 C 797.62062 540.05374 798.46186 538.17373 797.84375 536.9375 C 796.9067 535.0634 796.61412 529.64537 795.34375 528.375 C 795.08155 528.1128 793.43174 526.68451 793.1875 525.90625 C 787.83243 525.10383 779.70693 524.38945 774.8125 524.375 z "
       transform="translate(0,308.2677)"
       id="path4344" />
    <path
       style="fill:#544040;fill-opacity:1;stroke:#ffffff;stroke-width:1px;stroke-linecap:butt;stroke-linejoin:miter;stroke-opacity:0"
       d="m 714.17784,725.57783 c 0.12657,-0.086 11.25397,-1.01015 17.1726,-1.01015 1.71394,0 5.57135,0.74986 7.07107,0 1.55456,-0.77728 5.36135,-1.01015 7.07106,-1.01015 9.89415,0 19.76541,-1.51523 29.7995,-1.51523 1.92171,0 16.57197,-1.1057 17.1726,-0.50508 2.3378,2.3378 8.57636,4.53576 11.61675,7.57615 0.90035,0.90034 3.17161,13.49591 1.51523,15.15228 -2.02463,2.02463 -5.12709,5.12709 -7.07107,7.07107 -4.46683,4.46684 -20.35568,2.67802 -21.71828,4.04061 -0.73958,0.73959 -0.96638,-0.7795 -1.51523,-0.50507 -0.73252,0.36626 -35.77663,1.51523 -38.89087,1.51523 -3.36281,0 -15.26886,-1.20441 -17.67767,0 -2.13352,1.06675 -8.71799,1.51522 -10.6066,1.51522 -0.33672,0 0,-0.67343 0,-1.01015"
       id="path4252"
       inkscape:connector-curvature="0" />
    <path
       style="fill:#6c5353;stroke:#ffffff;stroke-width:1px;stroke-linecap:butt;stroke-linejoin:miter;stroke-opacity:0;fill-opacity:1"
       d="m 813.17279,399.12739 c 0.0479,-0.67354 -4.76666,-6.78697 -8.08122,-10.10152 -1.78518,-1.78518 -6.3828,1.83711 -7.07106,2.52538 -6.48655,6.48654 -15.15042,12.62503 -20.70813,18.18274 -1.27624,1.27624 -3.65772,2.14249 -5.05076,3.53554 -1.13689,1.13688 1.70474,5.24027 2.0203,5.55584 1.45433,1.45433 0.0364,6.63873 1.01015,8.58629 0.87575,1.75149 -0.83436,13.28549 -1.51523,14.64721 -0.53889,1.07779 -2.52538,3.19488 -2.52538,4.04061 0,0.62427 3.53619,3.03111 4.04061,3.53554 0.48243,0.48243 0.43318,2.45348 1.01016,3.03046 2.56154,2.56154 9.69272,14.14213 14.14213,14.14213 2.73918,0 5.24552,4.23537 6.56599,5.55584 0.12238,0.12238 2.14086,2.0203 2.02031,2.0203 -0.37646,0 0.74395,-0.23887 1.01015,-0.50507 1.38623,-1.38623 2.95047,-3.88064 4.04061,-6.06092 0.96149,-1.92298 3.47892,-6.50937 5.55584,-8.58629 1.61192,-1.61193 1.07347,-5.11408 2.52538,-6.56599 1.27177,-1.27177 0.1416,-4.32381 1.01015,-6.06092 1.89569,-3.79136 0.8629,-12.83747 2.02031,-15.15229 0.80647,-1.61294 -0.27323,-3.99923 0.50507,-5.55584 3.04221,-6.08441 0.32014,-22.02652 -2.52538,-26.76904 z"
       id="path4267"
       inkscape:connector-curvature="0"
       transform="translate(0,308.2677)" />
    <path
       style="fill:#483737;fill-opacity:1;stroke:#ffffff;stroke-width:1px;stroke-linecap:butt;stroke-linejoin:miter;stroke-opacity:0"
       d="m 1020.8633,687.77278 c -5.0501,0.0181 -11.4728,1.1388 -15.25,1.4375 -18.8402,1.48988 -15.40716,-0.93266 -27.28129,2.03125 -5.38208,1.34342 -22.88492,-0.84909 -28.28125,0.5 -8.22731,2.05682 -19.07889,1 -27.78125,1 l -32.3125,0 c -4.10802,0 -9.14436,-0.80238 -13.15625,0 -17.88848,3.5777 -37.04126,1.84811 -55.53125,2.53125 -3.59618,0 -14.70783,-1.44842 -17.6875,1.53125 -0.60019,0.60019 1.5,5.98171 1.5,7.5625 0,2.50629 1.41037,6.35199 2.53125,8.59375 1.60226,3.20453 2.22473,25.60707 1,29.28125 -3.05747,9.17242 -1.24807,15.68203 -5.52697,24.23985 -0.47134,3.43852 -8.30164,12.77081 -6.06678,15.6664 1.78807,1.78807 3.77502,1.63751 6.5625,3.03125 1.69334,0.84667 17.91079,-0.13835 19.1875,0.5 2.72133,1.36067 28.02612,1.19659 30.8125,0.5 2.56483,-0.64121 6.67539,-0.10459 9.09375,0.5 5.54835,1.38708 12.07216,-1.12307 17.6875,0 7.02263,1.40452 16.27773,1.03125 23.21875,1.03125 8.08849,0 19.90963,-2.99916 27.78125,-1.03125 4.48893,1.12223 9.647,-0.58825 14.125,0.53125 5.71794,1.42949 15.24085,1.29471 20.71875,-0.53125 3.63655,-1.21219 8.48845,1.21218 12.125,0 1.73183,-0.57728 3.65006,-0.5212 5.5625,-0.5 0.59736,0.59736 22.01819,1.03125 25.25009,1.03125 4.3376,0 25.1387,-1.31001 32,-2.125 0.9818,-0.68318 1.8629,-1.1971 2.3437,-1.4375 4.568,-2.284 6.0143,-8.51439 9.0937,-11.59375 0.8185,-0.81847 0.8228,-2.85391 1.5,-3.53125 1.3181,-1.31811 0.9093,-3.9405 2.0313,-5.0625 0.9938,-0.99378 1.5324,-8.59592 2.5313,-10.59375 1.0585,-2.11693 -0.5001,-5.94423 -0.5,-8.09375 0,-2.57122 1.1249,-8.34393 0,-10.59375 -0.7566,-1.51323 -1.2452,-9.33888 -1.5313,-9.625 -0.9322,-0.93219 -0.039,-4.56998 -1,-5.53125 -1.4138,-1.41386 -1.3871,-7.44948 -2.5313,-8.59375 -2.4476,-2.44765 -2.9759,-6.50721 -5.5624,-9.09375 -4.6398,-4.63973 -11.5006,-7.47998 -15.7813,-11.9375 -2.5561,-0.18043 -4.834,-0.52613 -6.4375,-1.1875 -1.2274,-0.30686 -2.7541,-0.44355 -4.4375,-0.4375 z"
       id="path4215"
       inkscape:connector-curvature="0"
       sodipodi:nodetypes="ssssssscssssccsssssssssscscsscsccsccccccs" />
    <path
       style="fill:#544040;fill-opacity:1;stroke:#ffffff;stroke-width:1px;stroke-linecap:butt;stroke-linejoin:miter;stroke-opacity:0"
       d="m 701.50698,678.96072 c 7.15888,-7.46478 16.3181,-12.89231 24.10939,-19.67497 9.24674,-8.04968 14.48685,-21.67349 24.42955,-28.35873 6.67573,-4.4886 24.39726,-17.56747 29.31977,-23.94816 1.64675,-2.13457 6.13646,-2.16611 7.427,-3.83895 0.24042,-0.31163 2.40136,-0.30979 2.83367,-0.36556 6.3637,-0.82095 13.90443,2.93222 17.66439,8.52426 0.72632,1.08024 1.02345,3.97912 2.05656,4.77612 0.26547,0.20482 2.22204,3.73475 1.34814,4.86752 -1.72908,2.24129 -2.53337,5.76446 -4.66203,8.52369 -3.0967,4.01402 -8.05335,8.78521 -10.67221,12.17985 -3.84915,4.98937 -12.67279,8.98491 -16.24814,13.61938 -3.85217,4.99328 -10.64248,8.83381 -14.73992,14.14503 -0.83876,1.08722 -4.15758,2.08164 -5.30177,3.56478 -7.58489,9.83174 -18.95974,17.96111 -27.2632,28.72429 -5.09048,6.59841 -15.38166,7.53496 -19.88161,13.36792"
       id="path4067"
       inkscape:connector-curvature="0" />
    <path
       style="fill:#544040;fill-opacity:1;stroke:#ffffff;stroke-width:1px;stroke-linecap:butt;stroke-linejoin:miter;stroke-opacity:0"
       d="m 298.57143,829.64501 c 3.98055,-1.44127 9.34402,-0.0583 12.14285,-2.85714 8.73691,-8.73691 20.09685,-13.977 32.14286,-20 2.60103,-1.30052 8.14508,-2.4308 10,-4.28572 4.91751,-4.91751 12.78317,-8.1773 19.28571,-11.42857 2.21137,-1.10568 17.05653,-10.80062 18.57143,-9.28571 2.02792,2.02791 5.83014,14.40157 6.42857,15 2.0471,2.04709 2.52027,6.09169 4.28572,7.85714 0.42688,0.42688 1.42857,-0.77206 1.42857,0.71429 0,0.41774 -12.18277,7.89706 -13.57143,9.28571 -1.13921,1.13921 -3.1465,1.00365 -4.28571,2.14286 -5.87902,5.87902 -14.77716,7.6343 -21.42857,14.28571 -1.9715,1.9715 -7.05924,2.05924 -9.28572,4.28572 -3.55537,3.55537 -9.73794,6.16651 -13.57143,10 -0.91678,0.91678 -2.88473,0.74187 -3.57143,1.42857 -5.7306,5.73061 -15.28039,11.56876 -23.57142,15.71428"
       id="path4052"
       inkscape:connector-curvature="0" />
    <path
       style="fill:#6c5353;fill-opacity:1;stroke:#ffffff;stroke-width:1px;stroke-linecap:butt;stroke-linejoin:miter;stroke-opacity:0"
       d="m 272.14286,830.3593 c -8.89467,13.20296 -11.57472,33.27913 -4.28572,47.85714 0.78218,1.56435 -0.0749,4.13588 0.71429,5.71428 2.41937,4.83875 3.80393,11.66108 7.14285,15 1.03604,1.03604 9.38595,12.75692 10,12.14286 1.94309,-1.94309 4.01732,-8.30303 5.71429,-10 3.54917,-3.54917 5.69638,-9.9821 9.28571,-13.57143 1.65747,-1.65746 1.23369,-5.5194 2.85715,-7.14285 2.74644,-2.74645 3.26285,-6.83429 5.71428,-9.28572 4.1592,-4.15919 7.26823,-8.6968 10.71429,-12.14286 0.55123,-0.55122 -1.96664,-1.96663 -2.14286,-2.14285 -2.62624,-2.62624 -4.40303,-5.83161 -6.42857,-7.85715 -3.89705,-3.89705 -4.28099,-13.5667 -7.14286,-16.42857 -0.99817,-0.99817 1.02564,-2.54578 0.71429,-2.85714 -2.86283,-2.86283 -28.89836,1.50604 -32.85714,0.71429 z"
       id="path4050"
       inkscape:connector-curvature="0" />
    <path
       style="fill:#483737;fill-opacity:1;stroke:#ffffff;stroke-width:1px;stroke-linecap:butt;stroke-linejoin:miter;stroke-opacity:0"
       d="m 15.714286,838.21644 c -2.613443,0.35609 -16.69344382,24.20538 -12.1428575,37.85714 0.7719936,2.31598 2.2588888,4.74984 2.8571429,7.14286 1.7820968,7.12839 0.391081,16.81965 4.9999996,21.42857 0.853334,0.85333 20.005712,2.50286 23.571429,4.28571 3.717172,1.85859 23.701832,0 28.571428,0 5.905851,0 12.574554,-0.33229 17.857143,1.42858 4.637699,1.54589 14.979199,0.007 19.285719,-1.42858 2.65211,-0.88403 18.35272,0.71429 22.85714,0.71429 24.77095,0 50.08308,0 74.28571,0 19.58239,0 38.85442,-0.71429 57.85714,-0.71429 6.08107,0 12.78736,0.71429 19.28572,0.71429 2.85714,0 5.71428,0 8.57143,0 0.75292,0 2.14285,-1.46721 2.14285,-0.71429 0,0.43324 -2.84733,-0.70447 -2.85714,-0.71428 -3.79893,-3.79893 -6.54903,-11.6695 -9.28571,-17.14286 -0.38096,-0.7619 0.38095,-2.09524 0,-2.85714 -5.83747,-11.67493 -7.14286,-23.54196 -7.14286,-36.42857 0,-5.82847 5,-9.7836 5,-15 0,-4.08104 4.28571,-7.56247 4.28571,-7.14286 0,0.4785 -4.75155,-0.71429 -5,-0.71429 -5.23809,0 -10.47619,0 -15.71428,0 -11.90476,0 -23.80953,0 -35.71429,0 -14.99453,0 -44.58149,2.99665 -57.85714,-1.42857 -3.26846,-1.08949 -7.53278,0.34622 -10.71429,-0.71428 -3.65221,-1.21741 -23.48435,1.42857 -29.28571,1.42857 -25.40726,0 -50.937156,0 -76.42857,0 -8.823045,0 -27.536498,1.25391 -29.285714,10 z"
       id="path4048"
       inkscape:connector-curvature="0" />
    <path
       style="fill:#544040;fill-opacity:1;stroke:#ffffff;stroke-width:1px;stroke-linecap:butt;stroke-linejoin:miter;stroke-opacity:0"
       d="m 263.57143,764.64501 c 13.82192,0.72573 47.59935,0 70.71428,0 7.42543,0 19.03548,1.91083 25.71429,-1.42857 3.3693,-1.68465 23.9521,-0.38068 26.42857,-2.85714 1.18341,-1.18342 -0.12571,-3.32001 0.71428,-5 0.899,-1.79799 1.32779,-24.3865 0,-25.71429 -2.89276,-2.89276 -14.85047,0 -19.28571,0 -7.20257,0 -43.16284,-0.40859 -46.42857,2.85714 -2.02972,2.02972 -26.56742,-1.71628 -31.42857,0.71429 -2.66667,1.33333 -7.33334,-1.33333 -10,0 -6.29385,3.14692 -17.77519,-0.79624 -22.14286,3.57143 -4.9141,4.9141 -5.5819,18.70381 -0.71428,23.57143 0.45001,0.45001 1.22917,8.89954 3.57142,7.14285 1.0775,-0.80812 1.90477,-1.90476 2.85715,-2.85714 z"
       id="path4044"
       inkscape:connector-curvature="0" />
    <path
       style="fill:#6c5353;fill-opacity:1;stroke:#ffffff;stroke-width:1px;stroke-linecap:butt;stroke-linejoin:miter;stroke-opacity:0"
       d="M 263.57143,693.93073 C 255.81013,696.13628 245,714.44795 245,723.93072 c 0,20.34317 -2.16713,47.83287 8.57143,58.57143 0.23709,0.2371 5.47719,0.2371 5.71428,0 3.45238,-3.45238 8.69048,-5.11904 12.14286,-8.57143 0.90366,-0.90366 3.98688,-0.41545 5,-1.42857 1.11366,-1.11366 9.07759,-4.28571 10.71429,-4.28571 0.0136,0 6.42857,-2.96236 6.42857,-2.85714 0,0.25391 -2.85715,-1.98762 -2.85715,-5 0,-4.01672 0,-11.05374 0,-15 0,-5.28313 2.59184,-9.7347 5.71429,-12.85715 2.39669,-2.39669 -12.08908,-14.94622 -12.85714,-15.71428 -3.29404,-3.29404 -5.3486,-8.20574 -8.57143,-11.42857 -2.79205,-2.79206 -1.62683,-10.45627 -5,-12.14286 -2.18344,-1.09172 -3.78781,-0.34202 -6.42857,0.71429 z"
       id="path4046"
       inkscape:connector-curvature="0" />
    <path
       style="fill:#483737;fill-opacity:1;stroke:#ffffff;stroke-width:1px;stroke-linecap:butt;stroke-linejoin:miter;stroke-opacity:0"
       d="m 123.6875,690.58624 c -10.92032,0.0719 -20.18419,0.66106 -22.96875,2 -2.868004,1.37907 -7.658539,-1.12408 -10.71875,-0.15625 -2.767022,0.87511 -6.42683,-0.34025 -9.28125,0.5625 -10.103571,3.1954 -22.223527,-0.0887 -32.1875,3.0625 -3.557515,1.12511 -25.679019,-0.40108 -27.15625,1.03125 -4.618646,4.47818 -8.474023,10.69105 -11.71875,16.9375 -9.9433724,19.14204 -8.89951685,41.20214 0.5,60.75 1.707774,3.55162 2.39141,7.53324 4.84375,10.0625 1.171954,1.20872 3.078046,1.72879 4.25,2.9375 1.363074,1.40583 9.909987,-0.89308 11.4375,-1.25 60.639899,1.06726 118.56387,-2.45868 178.625,-1.53125 16.20009,0.25015 31.20625,-3.06309 47.25,-3.46875 -2.10038,-3.38643 -3.14398,-8.63169 -5.125,-12.59375 -2.44399,-4.88798 0.39421,-45.10092 2.125,-48.5625 4.45883,-8.91767 6.54711,-15.82836 12.15625,-21.4375 2.34949,-2.34949 3.41542,-4.99921 5.21875,-7.21875 -7.58418,-0.39483 -17.21508,-0.3291 -20.1875,-0.375 -5.82674,-0.09 -25.49653,0.91325 -30.03125,3.09375 -3.01504,1.44977 -30.12386,-0.44486 -35.71875,-0.53125 -4.23396,-0.0654 -11.04225,1.13752 -15,-0.25 -5.28161,-1.85161 -28.11197,-3.18232 -46.3125,-3.0625 z"
       id="path3987"
       inkscape:connector-curvature="0" />
    <path
       style="fill:#544040;fill-opacity:1;stroke:#ffffff;stroke-width:1px;stroke-linecap:butt;stroke-linejoin:miter;stroke-opacity:0"
       d="m 402.6344,686.94477 c -0.17162,-1.458 -16.14322,-4.29461 -21.22969,-8.85334 -0.37688,-0.33778 -2.39875,-0.11514 -2.89191,-0.55713 -1.33933,-1.20036 -1.32778,-3.22475 -2.3738,-4.16223 -2.68503,-2.40645 -8.25395,-5.31824 -12.55399,-7.18198 -8.31369,-3.60337 -14.60116,-9.695 -20.8677,-15.31135 -2.90961,-2.60772 -7.95253,-4.41444 -11.12756,-7.26003 -5.37897,-4.82088 -12.21224,-11.6234 -17.34063,-16.21969 -2.52482,-2.26286 -9.1929,-2.81314 -11.7237,-5.08135 -2.62564,-2.35321 -9.83439,-6.61544 -13.9414,-6.39072 -0.97071,0.0531 -5.35999,-1.58711 -6.458,-0.36199 -5.91075,6.59502 -6.86261,5.31718 -6.15657,18.22072 0.12997,2.37527 -0.16535,7.31247 1.18152,8.5196 10.42683,9.34498 24.83223,12.76033 33.30462,20.35366 5.57273,4.99453 9.72317,12.78381 15.27902,17.7632 7.1509,6.40895 12.3252,11.72464 18.84511,17.56807 3.90501,3.49983 12.22636,3.49712 16.12009,6.98686 9.69749,8.69131 24.26942,13.6945 42.18622,12.71416"
       id="path3878"
       inkscape:connector-curvature="0" />
    <path
       style="fill:#6c5353;fill-opacity:1;stroke:#ffffff;stroke-width:1px;stroke-linecap:butt;stroke-linejoin:miter;stroke-opacity:0"
       d="m 284.28571,561.78787 c -1.92079,0.93416 -5.68154,16.36308 -10,25 -1.5922,3.18439 -0.87548,8.01834 -2.85714,10 -1.2442,1.2442 -0.71429,20.28114 -0.71429,23.57143 0,4.24792 -1.0437,12.52772 1.42858,15 1.19047,1.19047 0.23809,4.52381 1.42857,5.71428 0.78686,0.78687 2.63325,3.34754 3.57143,4.28572 0.47619,0.47619 2.38095,-0.47619 2.85714,0 3.50803,3.50803 9.56129,3.84701 13.57143,7.85714 1.60481,1.60481 5.73245,3.57143 8.57143,3.57143 0.47619,0 1.19047,0.71428 0.71428,0.71428 -1.07956,0 -3.29875,-8.12982 -1.42857,-10 1.73143,-1.73143 2.66295,-4.80581 5,-7.14285 1.66667,-1.66667 4.04762,-2.61905 5.71429,-4.28572 1.5877,-1.58771 6.81001,-0.38144 8.57142,-2.14285 0.0406,-0.0406 -7.14285,-11.40801 -7.14285,-12.85715 0,-1.94498 -7.9185,-19.34706 -9.28572,-20.71428 -1.4502,-1.4502 -0.4265,-5.42651 -2.14285,-7.14286 -8.02487,-8.02487 -6.55852,-22.9546 -17.85715,-31.42857 z"
       id="path3922"
       inkscape:connector-curvature="0" />
    <path
       style="fill:#483737;fill-opacity:1;stroke:#ffffff;stroke-width:1px;stroke-linecap:butt;stroke-linejoin:miter;stroke-opacity:0"
       d="m 223.25,560.02374 c -8.23176,0.0778 -15.23002,0.59939 -17.53125,1.75 -0.899,0.4495 -30.2029,0 -34.28125,0 -7.30228,0 -32.57714,-2.21386 -37.15625,-0.6875 -7.16895,2.38965 -17.82074,2.125 -25.71875,2.125 -28.993111,0 -57.859915,1.4375 -86.40625,1.4375 -4.090119,0.79577 -3.225548,7.8261 -7.875,17.125 -1.405588,2.81117 0.286495,6.98427 -0.71875,10 -2.428297,7.28489 0.339858,35.64847 2.875,40.71875 1.542389,3.08478 3.255799,4.69329 5,6.4375 0.916781,0.91678 3.594552,0.0321 4.28125,0.71875 5.395654,5.39566 28.013851,0.0694 33.5625,2.84375 10.03236,5.01618 25.726053,-2.85173 36.4375,0.71875 9.37973,3.12658 22.45266,1.4375 32.84375,1.4375 l 51.4375,0 59.28125,0 c 4.07408,0 20.57765,0.72448 26.28125,-1.28125 4.56337,0.28326 9.41984,0.58016 9.4375,0.5625 0.24504,-0.24504 -2.0146,-7.7021 -2.15625,-7.84375 -2.75431,-2.75431 -3.14443,-29.39865 -0.6875,-34.3125 4.38617,-8.77236 4.80966,-24.80965 10.6875,-30.6875 0.67248,-0.67248 3.36107,-7.38892 2.15625,-8.59375 -4.37962,-4.37961 -24.96604,-1.40625 -34.28125,-1.40625 -0.80832,0 -3.49906,-0.35422 -5.53125,-0.375 -6.73096,-0.48338 -14.78304,-0.75512 -21.9375,-0.6875 z"
       id="path3873"
       inkscape:connector-curvature="0" />
    <path
       style="fill:#2b2525;stroke:#ffffff;stroke-width:1px;stroke-linecap:butt;stroke-linejoin:miter;stroke-opacity:0;fill-opacity:1"
       d="m 393.95949,679.61589 c -7.15876,4.12451 -5.77294,11.25791 -8.08122,18.18275 -2.05654,6.16962 -4.42891,12.66488 -6.06092,19.1929 -0.79227,3.1691 0.79228,6.93242 0,10.10152 -5.79653,23.18613 4.96437,74.66489 17.1726,86.87312 5.76987,5.76987 41.91061,-0.25789 46.46701,2.02031 5.66041,2.8302 14.65912,-1.76182 20.20305,1.01015 8.81304,4.40652 41.62191,6.32908 51.51778,3.03046 5.92041,-1.97347 15.89592,0 22.22336,0 12.07099,0 24.0239,-0.1976 35.35534,-3.03046 8.98491,-2.24623 19.70113,1.85089 28.28427,-1.01015 15.44825,-5.14942 77.1112,7.74161 84.85281,0 13.42187,-13.42187 18.77764,-31.49436 27.27412,-48.48733 1.91449,-3.82897 -0.35548,-9.03507 1.01015,-13.13198 6.77166,-20.31497 -2.53104,-73.49143 -17.17259,-80.8122 -4.2147,-2.10735 -50.75955,-1.01015 -58.58885,-1.01015 -7.74472,0 -35.82664,-2.79481 -41.41625,0 -5.47868,2.73934 -66.98487,2.0203 -76.77159,2.0203 -43.07049,0 -84.78625,5.05076 -126.26907,5.05076 z"
       id="path3871"
       inkscape:connector-curvature="0" />
    <path
       style="fill:none;stroke:#d40000;stroke-width:5;stroke-linecap:round;stroke-linejoin:round;stroke-miterlimit:4;stroke-opacity:1;stroke-dasharray:none"
       d="m 26.91878,612.41444 c -0.09756,6.13581 7.06454,12.35484 12.857143,14.28571 3.994634,1.33154 10.633984,3.17413 14.285715,5 1.194475,0.59724 2.716811,-0.28698 3.571428,-0.71429 2.317446,-1.15872 5.336321,-0.33632 7.142857,-2.14285 5.283588,-5.28359 13.628047,-13.027 16.428572,-21.42857 3.307971,-9.92392 7.411967,-22.63456 17.85714,-27.85715 2.452585,-1.22629 8.814935,-4.87824 12.857145,-2.85714 8.82774,4.41387 14.09684,9.71669 20,18.57143 2.90804,4.36206 1.47867,10.10018 3.57143,14.28571 3.19802,6.39605 18.02636,26.34397 29.28571,20.71429 3.11529,-1.55765 6.77503,-2.67323 10,-4.28572 6.20301,-3.1015 13.62679,-23.7375 15.71429,-29.99999 0.88002,-2.64008 4.35794,-3.67977 5.71429,-5.71429 1.6795,-2.51926 5.037,-7.16136 7.85714,-8.57143 7.8035,-3.90175 14.7885,-2.85714 23.57143,-2.85714 13.53174,0 12.54904,19.84595 21.42857,24.28571"
       id="path3037"
       inkscape:connector-curvature="0" />
    <path
       style="fill:none;stroke:#ffff00;stroke-width:5;stroke-linecap:round;stroke-linejoin:round;stroke-miterlimit:4;stroke-opacity:1;stroke-dasharray:none"
       d="m 18.469904,772.33753 c 12.459603,-1.22633 24.717909,0 37.142857,0 1.576184,0 7.087916,0.82417 7.857143,-0.71428 1.654506,-3.30901 -1.143437,-11.28746 -2.142857,-14.28572 -0.5,-1.5 0.5,-3.5 0,-5 -3.464646,-10.39393 -2.142858,-23.06815 -2.142858,-34.28571 0,-0.72543 -0.09339,-11.33518 0.714286,-12.14286 0.796538,-0.79653 6.605518,0 7.857143,0 5.67286,0 23.053554,3.11609 27.857154,0.71429 4.511998,-2.25601 14.140888,-2.14286 19.285698,-2.14286 2.06618,0 11.02175,-2.54967 12.14285,-1.42857 3.31972,3.31971 0,16.90262 0,21.42857 0,12.41241 2.14286,26.0228 2.14286,38.57143 0,1.02309 -0.65115,5.77742 0,6.42857 3.32465,3.32465 30.05792,3.57143 37.85714,3.57143 7.33575,0 15.76194,-0.71429 23.57143,-0.71429 0.60988,0 4.55111,0.4489 5,0 0.73882,-0.73881 -0.96342,-6.92685 -1.42857,-7.85714 -0.45518,-0.91037 -1.42857,-19.53566 -1.42857,-21.42857 0,-6.07406 1.89189,-32.64479 0,-36.42857 -0.51656,-1.03312 -2.57449,-5.99694 -1.42857,-7.14286 0.98269,-0.98269 7.82988,0 9.28571,0 6.36332,0 28.40756,-2.22479 32.85715,0 0.74205,0.37103 4.78149,1.64708 5.71428,0.71429 1.58952,-1.58952 14.14381,-1.42857 17.85714,-1.42857"
       id="path3052"
       inkscape:connector-curvature="0" />
    <path
       style="fill:none;stroke:#00ff00;stroke-width:5;stroke-linecap:round;stroke-linejoin:round;stroke-miterlimit:4;stroke-opacity:1;stroke-dasharray:none"
       d="m 15.836837,894.20046 c 15.073024,-17.60054 34.208474,-29.92276 50,-45.71428 2.527322,-2.52733 6.549219,-3.69208 9.285715,-6.42858 0.176221,-0.17622 1.591629,-2.69408 2.142857,-2.14285 0.171123,0.17112 -0.714286,37.6347 -0.714286,41.42857 0,0.8762 0.002,24.99799 2.142857,22.85714 1.02863,-1.02863 3.59386,-1.451 5,-2.85714 3.900126,-3.90013 9.466894,-8.03833 13.57142,-12.14286 4.06324,-4.06324 7.27978,-11.75795 12.14287,-15 13.51837,-9.01224 23.98682,-17.55825 33.57143,-27.14286 1.70341,-1.70341 4.83086,-8.57142 6.42857,-8.57142 0.85828,0 2.85714,11.05988 2.85714,12.85714 0,7.90344 -0.55846,18.16879 2.85715,25 1.56722,3.13445 0,20.35429 0,25 0,0.43589 -0.27832,2.57883 0,2.85714 0.29137,0.29138 15.74407,-17.17265 19.28571,-20.71428 2.60901,-2.60901 8.1042,-5.48068 11.42857,-7.14286 5.73039,-2.8652 8.55529,-10.22734 13.57143,-13.57143 2.27481,-1.51654 6.55039,-3.10077 7.85714,-5.71429 0.75501,-1.51002 2.45443,-5.31157 3.57143,-6.42857 2.59568,-2.59568 14.90001,-12.95713 15,-12.85714 1.55723,1.55723 0.195,5.78001 0.71429,7.85714 1.15333,4.61332 2.06794,9.06096 3.57143,13.57143 2.16449,6.4935 0.0565,36.4851 3.57142,40 0.87647,0.87647 -2.02054,4.40803 -0.71428,5.71429 1.23987,1.23986 17.74192,-17.74192 20,-20 1.49628,-1.49629 5.02237,-5.01119 6.42857,-5.71429 1.66744,-0.83372 3.53804,-0.68089 5,-2.14286"
       id="path3080"
       inkscape:connector-curvature="0" />
    <path
       inkscape:connector-curvature="0"
       id="path3852"
       d="m 811.25782,774.1994 c 12.4596,-1.22633 24.7179,0 37.14285,0 1.57619,0 7.08792,0.82417 7.85715,-0.71428 1.6545,-3.30901 -1.14344,-11.28746 -2.14286,-14.28572 -0.5,-1.5 0.5,-3.5 0,-5 -3.46465,-10.39393 -2.14286,-23.06815 -2.14286,-34.28571 0,-0.72543 -0.0934,-11.33518 0.71429,-12.14286 0.79653,-0.79653 6.60551,0 7.85714,0 5.67286,0 23.05355,3.11609 27.85715,0.71429 4.51201,-2.25601 14.1409,-2.14286 19.28571,-2.14286 2.06618,0 11.02175,-2.54967 12.14285,-1.42857 3.31972,3.31971 0,16.90262 0,21.42857 0,12.41241 2.14286,26.0228 2.14286,38.57143 0,1.02309 -0.65115,5.77742 0,6.42857 3.32465,3.32465 30.05792,3.57143 37.85714,3.57143 7.33575,0 15.76194,-0.71429 23.57143,-0.71429 0.60988,0 4.55111,0.4489 5,0 0.73882,-0.73881 -0.96342,-6.92685 -1.42857,-7.85714 -0.45518,-0.91037 -1.42857,-19.53566 -1.42857,-21.42857 0,-6.07406 1.89189,-32.64479 0,-36.42857 -0.51656,-1.03312 -2.57449,-5.99694 -1.42857,-7.14286 0.98269,-0.98269 7.82988,0 9.28571,0 6.36332,0 28.40753,-2.22479 32.85713,0 0.742,0.37103 4.7815,1.64708 5.7143,0.71429 1.5895,-1.58952 5.0524,0.0867 8.7657,0.0867"
       style="fill:none;stroke:#ffff00;stroke-width:5;stroke-linecap:round;stroke-linejoin:round;stroke-miterlimit:4;stroke-opacity:1;stroke-dasharray:none"
       sodipodi:nodetypes="cssssssssssssssscssssscsc" />
    <path
       inkscape:connector-curvature="0"
       id="path3854"
       d="m 803.66695,905.88554 c 15.0928,-17.58359 27.17103,-36.45029 42.9803,-52.22404 2.53015,-2.52449 6.55336,-3.68471 9.29293,-6.41814 0.17642,-0.17601 1.59465,-2.69228 2.14527,-2.14043 0.17093,0.1713 -0.7566,37.63387 -0.76087,41.42774 -10e-4,0.8762 -0.0261,24.99798 2.11717,22.85953 1.02979,-1.02747 3.59549,-1.44696 5.00321,-2.85152 3.90451,-3.89574 9.47592,-8.02768 13.58506,-12.12759 4.0678,-4.05867 7.29299,-11.74976 12.15971,-14.98634 13.5285,-8.99704 24.00655,-17.53127 33.60192,-27.10511 1.70533,-1.70148 4.8405,-8.56598 6.43821,-8.56418 0.85828,10e-4 2.8447,11.06308 2.84268,12.86034 -0.009,7.90344 -0.57888,18.16815 2.82905,25.0032 1.56369,3.13621 -0.0229,20.35427 -0.0281,24.99998 -1.6e-4,0.43589 -0.28122,2.57852 -0.003,2.85714 0.29104,0.29171 15.76337,-17.15494 19.30898,-20.69259 2.61194,-2.60607 8.11036,-5.47156 11.43659,-7.13001 5.73362,-2.85875 8.56679,-10.21771 13.58669,-13.55616 2.27651,-1.51398 6.55386,-3.0934 7.86356,-5.70545 0.7567,-1.50917 2.4604,-5.30881 3.57865,-6.42456 2.5986,-2.59275 14.91454,-12.94036 15.01444,-12.84026 1.5555,1.55898 0.1885,5.78022 0.7055,7.85793 1.1481,4.61462 2.0577,9.06329 3.5561,13.57545 2.1572,6.49592 0.016,36.48514 3.5265,40.00398 0.8754,0.87745 -2.0255,4.40576 -0.7207,5.71349 1.2384,1.24125 17.7618,-17.72197 20.0224,-19.97751 1.498,-1.4946 5.028,-5.00554 6.435,-5.70705 1.6684,-0.83185 3.5389,-0.67692 5.0024,-2.13724"
       style="fill:none;stroke:#00ff00;stroke-width:5;stroke-linecap:round;stroke-linejoin:round;stroke-miterlimit:4;stroke-opacity:1;stroke-dasharray:none"
       sodipodi:nodetypes="cscccsssssccsccsssssccscccsc" />
    <path
       style="fill:none;stroke:#d40000;stroke-width:5.81094217;stroke-linecap:round;stroke-linejoin:round;stroke-miterlimit:4;stroke-opacity:1;stroke-dasharray:none"
       d="m 666.14369,746.41984 c -10.31969,-5.15983 -9.18799,-28.21938 -24.91441,-28.21938 -10.20742,0 -18.31493,-1.2296 -27.38407,3.30497 -3.27753,1.63876 -7.20034,7.02338 -9.15223,9.95124 -1.57634,2.36449 -5.5872,3.57799 -6.60995,6.64626 -0.79258,2.37774 -2.39857,6.68086 -4.24926,11.33133"
       id="path3908"
       inkscape:connector-curvature="0"
       sodipodi:nodetypes="cssssc" />
    <path
       style="fill:none;stroke:#d40000;stroke-width:5.81094217;stroke-linecap:round;stroke-linejoin:round;stroke-miterlimit:4;stroke-opacity:1;stroke-dasharray:none"
       d="m 533.58157,751.94024 c 0.19194,0.64412 0.28301,1.32869 0.5811,1.92488 3.7167,7.43341 20.94484,30.62184 34.03033,24.07909 3.62054,-1.81029 7.87385,-3.10161 11.62188,-4.97562 4.85391,-2.42695 10.20469,-13.94978 14.01889,-23.53433"
       id="path3906"
       inkscape:connector-curvature="0"
       sodipodi:nodetypes="csssc" />
    <path
       style="fill:none;stroke:#d40000;stroke-width:5.81094217;stroke-linecap:round;stroke-linejoin:round;stroke-miterlimit:4;stroke-opacity:1;stroke-dasharray:none"
       d="m 533.58157,751.94024 c -1.37409,-4.61143 -0.63005,-10.22441 -3.59552,-14.67263 -3.81086,-5.71629 -7.46694,-10.06532 -11.6582,-13.76467"
       id="path3904"
       inkscape:connector-curvature="0"
       sodipodi:nodetypes="csc" />
    <path
       style="fill:none;stroke:#ffff00;stroke-width:5.81094217;stroke-linecap:round;stroke-linejoin:round;stroke-miterlimit:4;stroke-opacity:1;stroke-dasharray:none"
       d="m 403.81597,787.0869 c 14.4804,-1.42522 28.72687,0 43.167,0 1.83182,0 8.23749,0.95784 9.13148,-0.83013 1.92285,-3.84569 -1.32889,-13.11816 -2.49041,-16.60269 -0.58109,-1.7433 0.58109,-4.06767 0,-5.81095 -4.02656,-12.0797 -2.49039,-26.80954 -2.49039,-39.84645 0,-0.84309 -0.10856,-13.17362 0.83012,-14.11229 0.92574,-0.92572 7.67686,0 9.13148,0 6.59294,0 26.79258,3.62148 32.37527,0.83013 5.24381,-2.6219 16.4344,-2.4904 22.41364,-2.4904 2.40128,0 12.80935,-2.9632 14.11227,-1.66027 3.85814,3.85813 0,19.64403 0,24.90403 0,14.42557 2.49041,30.2434 2.49041,44.82727 0,1.18902 -0.75676,6.71445 0,7.47122"
       id="path3915"
       inkscape:connector-curvature="0" />
    <path
       inkscape:connector-curvature="0"
       id="path3886"
       d="m 393.85435,777.12531 c 17.5177,-20.45514 39.7567,-34.77589 58.10942,-53.12861 2.93723,-2.93724 7.61144,-4.2909 10.79176,-7.47123 0.2048,-0.2048 1.84978,-3.13101 2.49039,-2.49039 0.19889,0.19887 -0.83012,43.73862 -0.83012,48.14781 0,1.0183 0.003,29.05237 2.49039,26.5643 1.19546,-1.19546 4.17675,-1.68634 5.81095,-3.32053 4.53268,-4.53269 11.00231,-9.34206 15.77255,-14.1123 4.72225,-4.72224 8.46049,-13.66495 14.1123,-17.43282 15.71089,-10.47392 27.8772,-20.406 39.01632,-31.54512 1.97969,-1.97968 5.61437,-9.9616 7.47121,-9.9616 0.99748,0 3.32055,12.85365 3.32055,14.94242 0,9.18528 -0.64905,21.11556 3.32054,29.0547 1.8214,3.64283 0,23.65552 0,29.05472 0,0.50658 -0.32346,2.99708 0,3.32053 0.33862,0.33864 18.29758,-19.95785 22.41362,-24.0739 3.03217,-3.03216 9.41861,-6.36958 13.28215,-8.30135 6.65981,-3.3299 9.94287,-11.8861 15.77257,-15.77256 2.64375,-1.76251 7.61278,-3.60368 9.13147,-6.64108 0.87747,-1.75493 2.85251,-6.17304 4.15068,-7.47121 3.01667,-3.01666 17.31662,-15.05862 17.43282,-14.94242 1.8098,1.8098 0.22664,6.71746 0.83015,9.13148 1.34038,5.36155 2.40333,10.53054 4.15067,15.77256 2.51554,7.54667 0.0657,42.40256 4.15067,46.48753 1.01861,1.01864 -2.34826,5.12297 -0.83014,6.64108 1.44097,1.44096 20.61946,-20.61944 23.24377,-23.24377 1.73896,-1.73895 5.83694,-5.82393 7.47122,-6.64108 1.93787,-0.96894 4.11186,-0.79131 5.81094,-2.4904"
       style="fill:none;stroke:#00ff00;stroke-width:5.81094217;stroke-linecap:round;stroke-linejoin:round;stroke-miterlimit:4;stroke-opacity:1;stroke-dasharray:none" />
    <path
       style="fill:none;stroke:#d40000;stroke-width:5.81094217;stroke-linecap:round;stroke-linejoin:round;stroke-miterlimit:4;stroke-opacity:1;stroke-dasharray:none"
       d="m 407.95626,757.20641 c -0.11343,7.13096 8.23109,14.35347 14.96318,16.5975 4.64253,1.5475 12.35351,3.68893 16.5975,5.81094 1.3882,0.69411 3.14708,-0.3387 4.1403,-0.83532 2.69332,-1.34665 6.21739,-0.37012 8.31691,-2.46965 5.44813,-5.44813 13.44135,-13.19555 17.50546,-21.68208"
       id="path3910"
       inkscape:connector-curvature="0"
       sodipodi:nodetypes="cssssc" />
    <path
       style="fill:none;stroke:#d40000;stroke-width:5.81094217;stroke-linecap:round;stroke-linejoin:round;stroke-miterlimit:4;stroke-opacity:1;stroke-dasharray:none"
       d="m 518.32785,723.50294 c -3.35414,-2.96047 -7.02493,-5.52813 -11.58557,-7.80845 -4.69781,-2.3489 -12.0765,1.87979 -14.92685,3.30497 -12.13928,6.06964 -16.92964,20.86254 -20.77412,32.39601 -0.367,1.10099 -1.04518,2.15379 -1.5617,3.23233"
       id="path3882"
       inkscape:connector-curvature="0"
       sodipodi:nodetypes="csssc" />
    <path
       style="fill:none;stroke:#ffff00;stroke-width:5.81094217;stroke-linecap:round;stroke-linejoin:round;stroke-miterlimit:4;stroke-opacity:1;stroke-dasharray:none"
       d="m 532.48684,783.76637 c 3.86386,3.86387 34.93296,4.15067 43.99713,4.15067 8.52553,0 18.31834,-0.83014 27.39444,-0.83014 0.7088,0 5.28925,0.52171 5.81094,0 0.85865,-0.85864 -1.11968,-8.0503 -1.66026,-9.13148 -0.52901,-1.05802 -1.66027,-22.70412 -1.66027,-24.90403 0,-7.05921 2.19873,-37.9394 0,-42.33687 -0.60033,-1.20068 -2.99205,-6.96957 -1.66027,-8.30135 1.14208,-1.14208 9.0998,0 10.79175,0 7.39537,0 33.01493,-2.58562 38.1862,0 0.8624,0.43121 5.55699,1.91422 6.64107,0.83014 1.84732,-1.84732 16.43777,-1.66027 20.75335,-1.66027"
       id="path3884"
       inkscape:connector-curvature="0" />
    <path
       style="fill:none;stroke:#ff0000;stroke-width:2;stroke-linecap:round;stroke-linejoin:round;stroke-miterlimit:4;stroke-opacity:1;stroke-dasharray:none"
       d="m 281.43517,626.02705 c 13.27906,5.64509 25.3076,16.6944 38.3858,23.2335 3.89964,1.94982 8.27649,8.17886 12.12183,10.10153 4.77579,2.3879 11.84663,6.79587 15.15229,10.10152 4.80366,4.80367 9.04571,10.05587 14.14213,15.15229 6.80785,6.80785 14.81052,8.40784 19.1929,17.1726"
       id="path3917"
       inkscape:connector-curvature="0" />
    <path
       style="fill:none;stroke:#ff0000;stroke-width:2;stroke-linecap:round;stroke-linejoin:round;stroke-miterlimit:4;stroke-opacity:1;stroke-dasharray:none"
       d="m 359.21691,696.73772 0,0 c 3.4663,0 18.85924,7.40473 21.21321,5.05076 1.85566,-1.85566 -3.03046,-14.40599 -3.03046,-20.20305"
       id="path3919"
       inkscape:connector-curvature="0"
       sodipodi:nodetypes="ccsc" />
    <path
       style="fill:none;stroke:#ffff00;stroke-width:2;stroke-linecap:round;stroke-linejoin:round;stroke-miterlimit:4;stroke-opacity:1;stroke-dasharray:none"
       d="m 259.75278,749.38821 c 34.55399,-0.28598 73.11955,-3.03045 107.07617,-3.03045"
       id="path3921"
       inkscape:connector-curvature="0" />
    <path
       style="fill:none;stroke:#ffff00;stroke-width:2;stroke-linecap:round;stroke-linejoin:round;stroke-miterlimit:4;stroke-opacity:1;stroke-dasharray:none"
       d="m 352.68681,757.46943 0,0 c 3.24968,0 15.35813,-12.92614 15.15229,-13.13198 -1.98727,-1.98727 -4.64703,-2.62673 -7.07107,-5.05076 -1.80702,-1.80703 -5.18959,-6.06092 -9.09137,-6.06092"
       id="path3936"
       inkscape:connector-curvature="0"
       sodipodi:nodetypes="ccssc" />
    <path
       style="fill:none;stroke:#00ff00;stroke-width:2;stroke-linecap:round;stroke-linejoin:round;stroke-miterlimit:4;stroke-opacity:1;stroke-dasharray:none"
       d="m 281.04658,865.04518 c 22.79352,-14.17731 47.2532,-27.70469 62.99162,-42.47945 2.20419,-2.06922 4.99091,-1.74616 7.19509,-3.81539 3.37073,-3.16433 15.48836,-14.67068 20.67129,-14.50699"
       id="path3951"
       inkscape:connector-curvature="0"
       sodipodi:nodetypes="cssc" />
    <path
       style="fill:none;stroke:#00ff00;stroke-width:2;stroke-linecap:round;stroke-linejoin:round;stroke-miterlimit:4;stroke-opacity:1;stroke-dasharray:none"
       d="m 347.80789,808.59688 c -0.42222,2.22397 23.21807,-7.07195 23.02058,-5.40708 -0.64948,5.47516 -5.57639,18.94348 -8.63659,21.35466"
       id="path3953"
       inkscape:connector-curvature="0" />
    <path
       inkscape:connector-curvature="0"
       id="path3955"
       d="m 703.57124,801.98334 c 13.27906,5.64509 5.60963,5.58272 18.68783,12.12182 3.89964,1.94982 8.27649,8.17886 12.12183,10.10153 4.77579,2.3879 11.84663,6.79587 15.15229,10.10152 4.80366,4.80367 9.04571,10.05587 14.14213,15.15229 6.80785,6.80785 14.81052,8.40784 19.1929,17.1726"
       style="fill:none;stroke:#00ff00;stroke-width:2;stroke-linecap:round;stroke-linejoin:round;stroke-miterlimit:4;stroke-opacity:1;stroke-dasharray:none"
       sodipodi:nodetypes="cssssc" />
    <path
       sodipodi:nodetypes="ccsc"
       inkscape:connector-curvature="0"
       id="path3957"
       d="m 761.65501,861.58233 0,0 c 3.4663,0 18.85924,7.40473 21.21321,5.05076 1.85566,-1.85566 -3.03046,-14.40599 -3.03046,-20.20305"
       style="fill:none;stroke:#00ff00;stroke-width:2;stroke-linecap:round;stroke-linejoin:round;stroke-miterlimit:4;stroke-opacity:1;stroke-dasharray:none" />
    <path
       inkscape:connector-curvature="0"
       id="path3959"
       d="m 719.14152,742.34138 c 34.55399,0.28598 48.37081,-4.54569 82.32743,-4.54569"
       style="fill:none;stroke:#ffff00;stroke-width:2;stroke-linecap:round;stroke-linejoin:round;stroke-miterlimit:4;stroke-opacity:1;stroke-dasharray:none"
       sodipodi:nodetypes="cc" />
    <path
       sodipodi:nodetypes="ccssc"
       inkscape:connector-curvature="0"
       id="path3961"
       d="m 787.32681,726.68402 0,0 c 3.24968,0 15.35813,12.92614 15.15229,13.13198 -1.98727,1.98727 -4.64703,2.62673 -7.07107,5.05076 -1.80702,1.80703 -5.18959,6.06092 -9.09137,6.06092"
       style="fill:none;stroke:#ffff00;stroke-width:2;stroke-linecap:round;stroke-linejoin:round;stroke-miterlimit:4;stroke-opacity:1;stroke-dasharray:none" />
    <path
       style="fill:#252577;fill-opacity:1;stroke:#1a1a76;stroke-width:3;stroke-linecap:round;stroke-linejoin:round;stroke-miterlimit:4;stroke-opacity:1;stroke-dasharray:none"
       d="m 108.79704,474.88562 c -8.34235,-17.75309 -9.33188,-58.62977 5.66348,-73.62512 17.81001,-17.81002 27.28928,-15.7531 44.17508,1.13269 0.74256,0.74257 0.5652,3.9633 1.13269,4.53078 1.26306,1.26307 3.82578,-7.65157 4.53077,-9.06155 2.77495,-5.54991 16.25804,-10.43838 23.78658,-7.92887 34.65152,11.55051 36.24621,54.54543 36.24621,86.08476 0,4.13628 -21.19406,5.9906 -22.65388,4.53078 -1.76639,-1.76639 -7.15551,-36.60555 -12.45964,-41.90968 -1.1845,-1.1845 -5.93533,-12.18778 -9.06155,-9.06156 -4.87481,4.87482 -3.39808,34.36046 -3.39808,44.17508 0,0.4664 0.29983,3.09825 0,3.39808 -2.00714,2.00714 -22.13308,1.65351 -22.65388,1.1327 -4.01084,-4.01083 -7.33945,-61.4602 -21.52119,-54.36933 -10.84442,5.42221 -1.13271,52.43708 -1.13271,58.9001 0,0.53396 -0.75512,-0.75513 -1.13269,-1.13269 -0.80093,-0.80094 -6.67071,0 -7.92886,0 -8.94582,0 -11.56117,3.3596 -13.59233,-6.79617 z"
       id="path4025"
       inkscape:connector-curvature="0" />
    <path
       style="fill:#252577;fill-opacity:1;stroke:#1a1a76;stroke-width:3;stroke-linecap:round;stroke-linejoin:round;stroke-miterlimit:4;stroke-opacity:1;stroke-dasharray:none"
       d="m 231.12802,392.19894 c -1.35227,11.04869 -2.69487,24.33402 0,35.11352 3.48715,13.9486 0.34167,29.79173 10.19425,39.6443 3.07022,3.07022 6.42507,7.55776 9.06155,10.19425 3.43806,3.43806 16.11939,3.26724 20.3885,1.1327 1.74825,-0.87413 4.96071,-0.52089 6.79616,-1.1327 20.14925,-6.71642 26.05197,-25.82268 26.05197,-47.57316 0,-5.11937 1.02367,-11.54501 -1.13269,-15.85772 -3.28863,-6.57727 2.44152,-21.34506 -2.26539,-26.05197 -2.9433,-2.94329 -24.25161,0.93006 -24.91927,2.26539 -2.46861,4.93722 1.13269,16.76387 1.13269,22.65389 0,15.1983 -6.54718,30.33377 -14.72502,38.51161 -5.51375,5.51373 -10.19425,-20.80156 -10.19425,-23.78659 0,-7.48395 3.18403,-30.79678 -1.1327,-35.11352 -1.75558,-1.75557 -16.8375,0 -19.2558,0 z"
       id="path4027"
       inkscape:connector-curvature="0" />
    <path
       style="fill:#252577;fill-opacity:1;stroke:#1a1a76;stroke-width:3;stroke-linecap:round;stroke-linejoin:round;stroke-miterlimit:4;stroke-opacity:1;stroke-dasharray:none"
       d="m 394.32089,383.97045 c -1.73738,0.0334 -3.95405,0.31537 -4.6254,0.31537 -8.01145,0 -11.71195,-0.0228 -18.68429,-0.0228 -7.19933,1.18074 -14.99599,19.31309 -19.24886,17.54894 -5.60396,-2.80198 -6.51649,-17.02526 -11.79383,-15.85192 -3.20561,0.71271 -11.72972,-2.68584 -22.74995,0.58065 0.42801,2.36244 0.77783,6.86527 6.77516,15.86127 2.84953,4.2743 6.28791,10.91316 9.70635,17.52047 -4.66378,11.23211 -10.01762,24.69977 -17.6256,32.30775 -2.17423,3.98986 -11.40941,17.21645 -9.04056,20.39383 1.4558,1.45578 7.18991,-1.12131 9.04056,-1.12131 5.01757,0 14.00344,0.71376 15.87355,-1.15635 5.31089,-5.3109 12.14745,-17.26943 17.27518,-26.94649 7.77596,12.06965 19.37685,27.29071 21.90059,29.08399 2.65805,1.88871 11.74925,-3.45059 14.68215,-1.3666 0.54313,0.38594 8.8755,1.39766 10.267,-0.56066 0.0637,-0.0896 -4.13318,-8.2476 -5.0459,-9.49609 -6.22415,-8.51394 -23.41263,-29.63318 -24.87906,-38.29975 -0.10653,-0.62949 -0.50367,-1.49813 -1.05123,-2.48791 12.35338,-14.48096 32.27452,-35.1092 31.39668,-35.98704 -0.25651,-0.25651 -1.13011,-0.33541 -2.17254,-0.31538 z"
       id="path4042"
       inkscape:connector-curvature="0"
       sodipodi:nodetypes="csccscscccsscsccsccsc" />
    <path
       style="fill:#252577;fill-opacity:1;stroke:#1a1a76;stroke-width:3;stroke-linecap:round;stroke-linejoin:round;stroke-miterlimit:4;stroke-opacity:1;stroke-dasharray:none"
       d="m 408.12698,424.57555 c 0.57634,13.87721 1.1214,1.15194 1.48879,12.43071 0.37207,0.32812 28.85026,-1.8108 31.65315,-1.98672 4.02534,-0.25266 25.31382,1.56889 26.14271,0.62898 0.20111,-0.22804 -1.84379,-11.29401 -2.05287,-14.62515 -0.0274,-0.43521 -1.03443,-6.25173 -1.5562,-6.71187 -1.09524,-0.96586 -8.55504,0.53697 -10.17423,0.63859 -6.50324,0.40818 -39.06969,-0.0807 -39.70835,0.22248 -10.08515,-7.03516 -7.16033,6.24895 -5.793,9.40298 z"
       id="path4088"
       inkscape:connector-curvature="0"
       sodipodi:nodetypes="ccssccscc" />
    <path
       style="fill:#252577;fill-opacity:1;stroke:#1a1a76;stroke-width:3;stroke-linecap:round;stroke-linejoin:round;stroke-miterlimit:4;stroke-opacity:1;stroke-dasharray:none"
       d="m 556.20632,341.66893 c -5.42752,0 -10.84632,0.22891 -11.31822,0.70081 -1.14793,1.14793 0,9.51451 0,11.31823 0,7.0518 -1.82536,19.25257 -2.80328,30.48562 -8.34897,-0.4832 -26.73326,4.7611 -35.70671,18.22128 -7.89636,11.84455 -19.07327,29.79786 -11.31823,45.30794 2.85845,5.71689 9.5476,13.8494 15.83851,16.99486 9.37011,4.68505 38.43112,3.47784 45.30793,-3.39898 4.0342,-4.0342 5.24067,-12.03862 9.07561,-15.87354 2.36328,-2.36329 2.99071,-35.80781 1.92725,-47.83088 2.08608,-21.47383 4.59725,-50.97769 0.35041,-55.22453 -0.4719,-0.4719 -5.92574,-0.70081 -11.35327,-0.70081 z m -17.48543,67.83926 c 0.9064,-0.003 1.80619,0.0669 2.69816,0.24528 l 0,14.43687 0,12.82498 c 0,3.16286 0.0869,8.74336 -1.57685,10.40716 -4.74627,4.74627 -17.94938,4.11799 -21.62026,-3.22376 -7.52877,-15.05756 6.90289,-34.65083 20.49895,-34.69053 z"
       id="path4090"
       inkscape:connector-curvature="0" />
    <path
       style="fill:#252577;fill-opacity:1;stroke:#1a1a76;stroke-width:3;stroke-linecap:round;stroke-linejoin:round;stroke-miterlimit:4;stroke-opacity:1;stroke-dasharray:none"
       d="m 624.95665,377.48077 c -7.80373,0.54199 -14.82581,4.48848 -21.69465,7.89987 -11.11986,6.96926 -17.56088,19.22407 -21.9456,31.20663 -4.28515,12.1225 -6.405,26.44941 0.33969,38.13102 7.24695,12.6754 23.3264,17.73714 37.15663,15.18842 11.74336,-1.87334 22.94458,-9.67684 26.81808,-21.22275 -1.18304,-5.35853 -9.03818,-5.25836 -13.51303,-6.21296 -4.54086,-0.94211 -8.8631,0.53161 -11.82157,4.04042 -4.52512,2.23043 -9.63251,2.08219 -14.19856,0.0727 -4.18176,-0.35998 -6.24798,-4.73422 -7.3167,-8.34064 -1.19506,-3.96761 3.87711,-12.76655 7.11127,-12.74982 3.42272,2.62345 8.40529,3.22463 12.86771,4.50899 4.53633,1.34239 8.72758,0.64534 12.78443,0.14473 5.47346,-4.07461 13.6784,-3.46647 18.1195,-9.17003 3.39167,-3.64881 4.29838,-8.74769 6.4889,-13.09055 1.8536,-4.88064 -1.29476,-9.13056 -1.06979,-13.98349 -1.11413,-4.15148 -3.01947,-7.78579 -7.03322,-10.03831 -4.10173,-3.16291 -8.88369,-5.29878 -14.15881,-5.47306 -2.97516,-0.30549 -5.94452,-0.81097 -8.93428,-0.91109 z m 4.73711,18.21559 c 4.99117,-0.54805 10.83541,6.80333 8.57406,10.86253 -3.36279,2.01383 -7.76875,3.77783 -11.76085,4.76109 -4.77686,0.003 -9.3869,-1.49903 -14.12427,-1.89984 4.32201,-5.77453 6.04629,-14.32795 17.31106,-13.72378 z"
       id="path4124"
       inkscape:connector-curvature="0"
       sodipodi:nodetypes="ccccccccccccccccccccccccc" />
    <path
       inkscape:connector-curvature="0"
       id="path3022"
       d="m 668.65305,457.32537 c -7.40976,-18.16211 -6.27657,-59.03506 9.4768,-73.23198 18.71031,-16.86173 28.07005,-14.31563 44.05676,3.42374 0.70303,0.7801 0.35877,3.98728 0.89603,4.58345 1.19581,1.32691 4.21773,-7.44271 4.99494,-8.81421 3.05924,-5.39841 16.77785,-9.58055 24.16601,-6.68371 34.00538,13.33326 33.3666,56.353 31.72979,87.84984 -0.21467,4.1307 -21.4764,4.8826 -22.85849,3.34899 -1.67234,-1.85568 -5.24613,-36.92757 -10.26784,-42.49983 -1.12143,-1.24438 -5.29482,-12.47939 -8.57907,-9.51961 -5.12123,4.61526 -5.17672,34.1378 -5.68608,43.9392 -0.0242,0.46576 0.13864,3.10963 -0.17635,3.3935 -2.1086,1.90026 -22.18906,0.50262 -22.68214,-0.0445 -3.79727,-4.21357 -4.13992,-61.75827 -18.67055,-55.41295 -11.11121,4.8521 -3.85253,52.30764 -4.18795,58.76194 -0.0277,0.53324 -0.71491,-0.7933 -1.07237,-1.18994 -0.75829,-0.84143 -6.66173,-0.34619 -7.91819,-0.41149 -8.93376,-0.46427 -11.71993,2.75508 -13.2213,-7.49242 z"
       style="fill:#252577;fill-opacity:1;stroke:#1a1a76;stroke-width:3;stroke-linecap:round;stroke-linejoin:round;stroke-miterlimit:4;stroke-opacity:1;stroke-dasharray:none" />
    <path
       inkscape:connector-curvature="0"
       id="path3024"
       d="m 795.11041,381.09877 c -1.92386,10.96364 -3.95412,24.16138 -1.82231,35.06622 2.75856,14.11078 -1.2049,29.76931 8.12307,40.11992 2.90675,3.22543 6.02419,7.88103 8.52029,10.65079 3.25499,3.61186 15.92811,4.0994 20.30224,2.18928 1.79126,-0.78222 4.98106,-0.26273 6.84579,-0.77846 20.47066,-5.66167 27.35699,-24.43586 28.48578,-46.15702 0.26568,-5.11248 1.62145,-11.47633 -0.30818,-15.89515 -2.94287,-6.73907 3.54597,-21.18957 -0.91031,-26.13443 -2.78658,-3.09207 -24.2672,-0.32979 -25.00326,0.96911 -2.72152,4.80244 0.26117,16.80005 -0.0445,22.68214 -0.78875,15.17782 -8.11261,29.95311 -16.70383,37.69552 -5.79248,5.22015 -9.10097,-21.30259 -8.94605,-24.2836 0.3884,-7.47386 4.77801,-30.59003 0.69113,-35.12498 -1.66211,-1.84431 -16.81482,-0.87383 -19.22985,-0.99934 z"
       style="fill:#252577;fill-opacity:1;stroke:#1a1a76;stroke-width:3;stroke-linecap:round;stroke-linejoin:round;stroke-miterlimit:4;stroke-opacity:1;stroke-dasharray:none" />
    <path
       sodipodi:nodetypes="csccscscccsscsccsccsc"
       inkscape:connector-curvature="0"
       id="path3026"
       d="m 958.51039,381.35068 c -1.73677,-0.0568 -3.96508,0.10977 -4.63554,0.0749 -8.00065,-0.41577 -11.69498,-0.63055 -18.65792,-0.99239 -7.2509,0.80551 -15.97808,18.5088 -20.13366,16.52632 -5.451,-3.08904 -5.62415,-17.34052 -10.95526,-16.44264 -3.23829,0.54539 -11.57453,-3.29096 -22.74944,-0.6008 0.30484,2.38147 0.42049,6.8964 5.94289,16.19152 2.62385,4.41642 5.71306,11.22477 8.78398,18.0006 -5.24041,10.97493 -11.28596,24.1466 -19.27853,31.34949 -2.37836,3.87164 -12.28753,16.60112 -10.08677,19.89715 1.37829,1.52938 7.23842,-0.74666 9.08657,-0.65062 5.01081,0.26041 13.94753,1.43955 15.91217,-0.33098 5.57937,-5.02813 13.02732,-16.61574 18.65036,-26.01364 7.1391,12.45694 17.93441,28.25953 20.36169,30.18138 2.55645,2.02411 11.9125,-2.83619 14.73329,-0.6028 0.52237,0.41361 8.791,1.85639 10.28226,-0.027 0.0683,-0.0861 -3.69958,-8.45099 -4.54627,-9.74517 -5.77392,-8.82549 -21.84319,-30.8083 -22.85789,-39.53929 -0.0737,-0.63418 -0.42524,-1.52225 -0.92069,-2.53912 13.08826,-13.82033 34.05311,-33.38692 33.222,-34.30914 -0.24285,-0.26947 -1.11117,-0.3936 -2.15324,-0.4277 z"
       style="fill:#252577;fill-opacity:1;stroke:#1a1a76;stroke-width:3;stroke-linecap:round;stroke-linejoin:round;stroke-miterlimit:4;stroke-opacity:1;stroke-dasharray:none" />
    <path
       style="fill:#483737;fill-opacity:1;stroke:#ffffff;stroke-width:1px;stroke-linecap:butt;stroke-linejoin:miter;stroke-opacity:0"
       d="m 1030.125,562.31234 c -14.4701,0.0846 -33.47633,0.75 -37.96875,0.75 -19.14423,0 -39.15288,-0.6875 -58.59375,-0.6875 -34.02925,0 -67.57771,3.87946 -101.40625,0.6875 -5.306,0 -12.80701,-0.58325 -16.8125,2.0625 -1.68455,-0.74154 -3.6801,-1.5699 -4.625,-0.625 -1.433,1.433 -0.024,12.79558 0.71875,14.28125 2.01372,4.02745 2.76429,40.87766 1.40625,43.59375 -0.70229,1.40458 -4.7515,9.4985 -2.84375,11.40625 0.2044,0.2044 0.5049,0.38295 0.84375,0.53125 -0.26525,0.30813 -0.54952,0.61202 -0.84375,0.90625 -1.48394,1.48395 1.48571,2.50848 2.15625,2.84375 3.10907,1.55453 25.0205,1.18066 28.5625,0 7.0735,-2.35784 29.01933,0.97954 38.5625,-1.40625 3.14557,-0.7864 6.33283,0.71875 9.28125,0.71875 l 42.15625,0 c 30.81336,0 61.86916,-2.15625 92.12505,-2.15625 6.6431,0 20.3096,0.40912 25,-4.28125 4.9551,-4.95516 10.8058,-10.17418 15,-18.5625 8.1074,-16.21491 -0.1681,-41.55278 -15.6876,-49.3125 -1.299,-0.64955 -8.3492,-0.80075 -17.0312,-0.75 z"
       id="path4069"
       inkscape:connector-curvature="0" />
    <path
       style="fill:#6c5353;fill-opacity:1;stroke:#ffffff;stroke-width:1px;stroke-linecap:butt;stroke-linejoin:miter;stroke-opacity:0"
       d="m 809.8125,257.46875 c -3.81762,0.6572 -15.83637,12.64887 -16.96875,13.78125 -5.6017,5.6017 -8.52694,12.80819 -14.28125,18.5625 -8.36618,8.36619 -16.45227,16.71213 -23.5625,28.5625 9.3311,-2.83413 17.98967,0.11415 24.8125,12.5625 0.56088,0.19088 1.11962,0.49462 1.625,1 1.27175,1.27175 0.41302,4.00677 1.40625,5 1.95236,1.95236 0.40369,3.84466 0.23214,6.62946 4.48725,-1.72605 14.41771,-5.56056 15.48661,-6.62946 2.73135,-2.73135 10.94772,-3.76023 13.59375,-6.40625 1.64673,-1.64673 2.39914,-4.55539 4.28125,-6.4375 2.19629,-2.1963 1.37258,-11.33891 2.84375,-14.28125 2.31173,-4.62346 0.30476,-12.73453 2.15625,-16.4375 1.23339,-2.46678 1.23339,-7.53322 0,-10 -0.0847,-0.16944 -0.13608,-0.38272 -0.15625,-0.625 -0.0202,-0.24228 -0.0244,-0.51964 0,-0.8125 0.14617,-1.75718 0.92898,-4.22727 0.15625,-5 -1.66667,-1.66667 -0.48958,-6.17709 -2.15625,-7.84375 -0.77316,-0.77316 -1.42573,-1.62624 -2.0625,-2.5 -0.25714,-0.43647 -0.59312,-0.86402 -0.96875,-1.34375 -1.68266,-2.52749 -3.19051,-5.25301 -5.53125,-7.59375 -0.19856,-0.19856 -0.51132,-0.25549 -0.90625,-0.1875 z"
       transform="translate(0,308.2677)"
       id="path4168"
       inkscape:connector-curvature="0"
       sodipodi:nodetypes="sssccsscssssssssssccss" />
    <path
       inkscape:connector-curvature="0"
       id="path3850"
       d="m 826.50907,608.63996 c -0.0976,6.13581 7.06454,12.35484 12.85715,14.28571 3.99463,1.33154 10.63398,3.17413 14.28571,5 1.19448,0.59724 2.71681,-0.28698 3.57143,-0.71429 2.31745,-1.15872 5.33632,-0.33632 7.14286,-2.14285 5.28358,-5.28359 13.62804,-13.027 16.42857,-21.42857 3.30797,-9.92392 7.41197,-22.63456 17.85714,-27.85715 2.45258,-1.22629 8.81493,-4.87824 12.85714,-2.85714 8.82774,4.41387 14.09684,9.71669 20,18.57143 2.90804,4.36206 1.47867,10.10018 3.57143,14.28571 3.19802,6.39605 18.02636,26.34397 29.28571,20.71429 3.11529,-1.55765 6.77503,-2.67323 10,-4.28572 6.20301,-3.1015 13.62679,-23.7375 15.71429,-29.99999 0.88002,-2.64008 4.35794,-3.67977 5.71429,-5.71429 1.6795,-2.51926 5.03701,-7.16136 7.85711,-8.57143 7.8035,-3.90175 14.7885,-2.85714 23.5715,-2.85714 13.5317,0 12.549,19.84595 21.4286,24.28571"
       style="fill:none;stroke:#d40000;stroke-width:5;stroke-linecap:round;stroke-linejoin:round;stroke-miterlimit:4;stroke-opacity:1;stroke-dasharray:none" />
    <path
       sodipodi:nodetypes="cssc"
       inkscape:connector-curvature="0"
       id="path3963"
       d="m 715.85691,686.33429 c 20.79225,-16.97712 43.32013,-33.52283 57.03883,-50.18983 1.92133,-2.33423 4.72648,-2.37037 6.6478,-4.70461 2.93816,-3.56959 13.48401,-16.53177 18.64529,-17.03256"
       style="fill:none;stroke:#ff0000;stroke-width:2;stroke-linecap:round;stroke-linejoin:round;stroke-miterlimit:4;stroke-opacity:1;stroke-dasharray:none" />
    <path
       inkscape:connector-curvature="0"
       id="path3965"
       d="m 774.8472,621.80811 c -0.1342,2.25971 22.12242,-9.98448 22.13956,-8.30803 0.0564,5.51326 -3.10682,19.50126 -5.83337,22.28417"
       style="fill:none;stroke:#ff0000;stroke-width:2;stroke-linecap:round;stroke-linejoin:round;stroke-miterlimit:4;stroke-opacity:1;stroke-dasharray:none" />
  </g>
</svg>
