<?xml version="1.0" encoding="UTF-8" standalone="no"?>
<!-- Created with Inkscape (http://www.inkscape.org/) -->
<svg
   xmlns:dc="http://purl.org/dc/elements/1.1/"
   xmlns:cc="http://creativecommons.org/ns#"
   xmlns:rdf="http://www.w3.org/1999/02/22-rdf-syntax-ns#"
   xmlns:svg="http://www.w3.org/2000/svg"
   xmlns="http://www.w3.org/2000/svg"
   xmlns:xlink="http://www.w3.org/1999/xlink"
   xmlns:sodipodi="http://sodipodi.sourceforge.net/DTD/sodipodi-0.dtd"
   xmlns:inkscape="http://www.inkscape.org/namespaces/inkscape"
   width="744.09448819"
   height="1052.3622047"
   id="svg2"
   sodipodi:version="0.32"
   inkscape:version="0.46"
   sodipodi:docname="nesting-robots.svg"
   inkscape:output_extension="org.inkscape.output.svg.inkscape">
  <defs
     id="defs4">
    <inkscape:perspective
       sodipodi:type="inkscape:persp3d"
       inkscape:vp_x="0 : 526.18109 : 1"
       inkscape:vp_y="0 : 1000 : 0"
       inkscape:vp_z="744.09448 : 526.18109 : 1"
       inkscape:persp3d-origin="372.04724 : 350.78739 : 1"
       id="perspective10" />
  </defs>
  <sodipodi:namedview
     id="base"
     pagecolor="#ffffff"
     bordercolor="#666666"
     borderopacity="1.0"
     gridtolerance="10000"
     guidetolerance="10"
     objecttolerance="10"
     inkscape:pageopacity="0.0"
     inkscape:pageshadow="2"
     inkscape:zoom="0.49497475"
     inkscape:cx="423.30996"
     inkscape:cy="500.30818"
     inkscape:document-units="px"
     inkscape:current-layer="layer1"
     showgrid="false"
     inkscape:window-width="1438"
     inkscape:window-height="898"
     inkscape:window-x="0"
     inkscape:window-y="0" />
  <metadata
     id="metadata7">
    <rdf:RDF>
      <cc:Work
         rdf:about="">
        <dc:format>image/svg+xml</dc:format>
        <dc:type
           rdf:resource="http://purl.org/dc/dcmitype/StillImage" />
      </cc:Work>
    </rdf:RDF>
  </metadata>
  <g
     inkscape:label="Layer 1"
     inkscape:groupmode="layer"
     id="layer1">
    <use
       height="1052.3622"
       width="744.09448"
       transform="matrix(0.4487694,-0.1382208,0.1382208,0.4487694,-63.74429,492.57768)"
       id="use3355"
       xlink:href="#use3351"
       y="0"
       x="0" />
    <use
       x="0"
       y="0"
       xlink:href="#use3351"
       id="use3353"
       transform="matrix(0.7057101,-7.7504416e-2,7.7504416e-2,0.7057101,-45.357984,265.08311)"
       width="744.09448"
       height="1052.3622" />
    <use
       x="0"
       y="0"
       xlink:href="#g3321"
       id="use3351"
       transform="matrix(0.7417769,-0.1012967,0.1012967,0.7417769,-73.648512,247.31075)"
       width="744.09448"
       height="1052.3622" />
    <g
       id="g3321">
      <path
         id="path2413"
         d="M 336.3808,548.29606 C 332.52583,550.22354 324.56574,574.29816 321.22851,582.64125 C 315.66928,596.53931 313.00188,610.64242 310.11683,625.06765 C 306.61532,642.57521 310.97301,661.2115 313.14729,678.60574 C 315.57928,698.06166 318.02411,716.95802 321.22851,736.18443 C 323.82661,751.77306 325.24556,767.38136 328.29958,782.65145 C 329.83251,790.3161 330.31988,799.15551 330.31988,806.89511 C 330.31988,813.39413 343.25685,819.74706 346.48232,821.03725 C 351.3997,823.0042 355.78376,821.83734 359.61431,818.00679 C 363.67398,813.94712 364.66507,808.37239 364.66507,801.84435 C 364.66507,790.78492 362.64476,780.25268 362.64476,769.51947 C 362.64476,758.15454 358.43207,746.26359 356.58385,735.17428 C 354.05846,720.02193 348.4462,705.59773 345.47217,690.72757 C 343.20529,679.39317 341.43156,668.09742 341.43156,656.38238 C 341.43156,647.62773 341.43156,638.87307 341.43156,630.11842 C 341.43156,623.09832 342.49286,614.86384 345.47217,608.90521 C 349.70827,600.433 352.05476,592.0472 357.594,584.66155"
         style="opacity:1;fill:#dac475;fill-opacity:1;fill-rule:evenodd;stroke:#000000;stroke-width:2;stroke-linecap:butt;stroke-linejoin:miter;marker:none;marker-start:none;marker-mid:none;marker-end:none;stroke-miterlimit:4;stroke-dasharray:none;stroke-dashoffset:0;stroke-opacity:1;visibility:visible;display:inline;overflow:visible;enable-background:accumulate" />
      <path
         id="path2415"
         d="M 503.05597,476.57523 C 503.54457,475.59802 515.30659,486.52081 518.20825,488.69706 C 523.16795,492.41683 528.20465,497.68331 532.35039,501.82904 C 540.27314,509.75179 547.85432,516.55725 553.56359,526.0727 C 561.72533,539.6756 567.16038,551.0849 569.72603,566.47881 C 572.20251,581.33768 572.82997,596.14064 575.78695,610.92552 C 578.72088,625.59518 581.01587,637.07014 583.86817,651.33162 C 586.61097,665.04563 588.91893,679.52972 588.91893,693.75803 C 588.91893,708.96448 593.96969,724.04826 593.96969,739.21489 C 593.96969,750.05514 589.15985,752.18626 579.82756,758.40779 C 576.55256,760.59112 568.62741,753.31279 566.69558,752.34687 C 561.87833,749.93825 559.40213,737.09285 558.61436,733.15398 C 557.1333,725.74868 555.75571,719.03256 554.57375,711.94077 C 554.23703,709.92047 553.90031,707.90016 553.56359,705.87986 C 551.85123,695.6057 551.50275,685.47413 549.52298,675.57528 C 547.59616,665.94116 549.93573,656.01308 547.50268,646.28086 C 545.72212,639.15864 544.47222,629.09686 544.47222,622.0372 C 544.47222,616.0924 541.59698,609.6813 540.43161,603.85445 C 538.5378,594.38538 535.62799,586.66027 533.36054,577.59048 C 531.12707,568.6566 526.62025,561.75882 520.22856,555.36713 C 515.4621,550.60067 503.72736,543.24407 502.04581,542.23514"
         style="opacity:1;fill:#dac475;fill-opacity:1;fill-rule:evenodd;stroke:#000000;stroke-width:2;stroke-linecap:butt;stroke-linejoin:miter;marker:none;marker-start:none;marker-mid:none;marker-end:none;stroke-miterlimit:4;stroke-dasharray:none;stroke-dashoffset:0;stroke-opacity:1;visibility:visible;display:inline;overflow:visible;enable-background:accumulate" />
      <path
         id="path2437"
         d="M 394.48572,871.54486 C 396.14273,869.47366 406.87279,876.54206 409.63801,878.61596 C 416.16013,883.50756 414.47362,888.13766 411.65831,893.76826 C 408.56899,899.94686 406.63914,902.13356 402.56694,908.92056 C 398.66984,915.41566 394.38012,918.22306 391.45526,924.07286 C 388.45688,930.06956 379.77157,931.36296 375.29282,929.12356 C 368.95118,925.95276 366.82397,924.69536 362.16084,920.03216 C 356.41515,914.28656 353.06947,911.40616 353.06947,901.84946 C 353.06947,894.10886 356.83508,885.31946 362.16084,882.65656 C 367.01258,880.23066 370.68699,879.90866 375.29282,877.60576 C 381.67294,874.41576 380.09606,873.56516 387.41465,873.56516 C 388.08809,873.56516 388.76152,873.56516 389.43496,873.56516"
         style="opacity:1;fill:#dbbc2f;fill-opacity:1;fill-rule:evenodd;stroke:#000000;stroke-width:2;stroke-linecap:butt;stroke-linejoin:miter;marker:none;marker-start:none;marker-mid:none;marker-end:none;stroke-miterlimit:4;stroke-dasharray:none;stroke-dashoffset:0;stroke-opacity:1;visibility:visible;display:inline;overflow:visible;enable-background:accumulate" />
      <path
         id="path2421"
         d="M 429.84105,779.62099 C 435.10075,782.25084 424.95396,790.32351 422.76999,795.78343 C 418.63149,806.12967 415.82159,818.40356 413.67861,829.11847 C 411.65012,839.26095 407.11959,849.29366 404.58724,859.42306 C 402.26157,868.72576 398.7895,877.56326 396.50602,886.69716 C 394.55617,894.49656 390.44295,896.29526 384.38419,900.83926 C 377.77688,905.79476 374.28777,906.90276 370.24205,904.87996 C 367.62541,903.57156 369.2319,886.06796 369.2319,882.65656 C 369.2319,875.31086 368.22175,868.70416 368.22175,861.44336 C 368.22175,851.80146 370.24205,842.07835 370.24205,832.14892 C 370.24205,820.68234 374.39036,807.25906 376.30297,795.78343 C 377.66816,787.59226 375.11818,782.23369 382.36388,778.61084 C 387.29538,776.14509 398.74244,777.60069 404.58724,777.60069 C 413.87077,777.60069 421.34492,774.52331 429.84105,779.62099 z"
         style="opacity:1;fill:#d9c670;fill-opacity:1;fill-rule:evenodd;stroke:#000000;stroke-width:2;stroke-linecap:butt;stroke-linejoin:miter;marker:none;marker-start:none;marker-mid:none;marker-end:none;stroke-miterlimit:4;stroke-dasharray:none;stroke-dashoffset:0;stroke-opacity:1;visibility:visible;display:inline;overflow:visible;enable-background:accumulate" />
      <path
         id="path2441"
         d="M 534.37069,858.41288 C 531.62323,860.70248 522.86212,861.84028 519.2184,865.48398 C 514.43389,870.26848 517.95876,880.13728 520.22855,884.67688 C 524.28436,892.78848 527.633,897.26948 535.38084,898.81898 C 542.60953,900.26478 547.01647,902.85958 553.56359,902.85958 C 558.746,902.85958 563.73949,896.72428 565.68542,894.77838 C 570.20101,890.26278 571.82672,884.83768 568.71587,878.61598 C 566.69141,874.56698 565.47298,870.10988 563.66511,866.49408 C 560.10744,859.37878 551.43999,856.11428 544.47221,854.37228 C 539.79982,853.20418 539.5,854.30948 534.37069,858.41288 z"
         style="opacity:1;fill:#dbbc2f;fill-opacity:1;fill-rule:evenodd;stroke:#000000;stroke-width:2;stroke-linecap:butt;stroke-linejoin:miter;marker:none;marker-start:none;marker-mid:none;marker-end:none;stroke-miterlimit:4;stroke-dasharray:none;stroke-dashoffset:0;stroke-opacity:1;visibility:visible;display:inline;overflow:visible;enable-background:accumulate" />
      <path
         id="path2425"
         d="M 559.40662,770.84674 C 559.60706,761.95286 558.41353,786.92963 556.67658,796.14393 C 554.98133,805.13709 555.41236,813.66513 553.75783,822.44219 C 552.17972,830.8139 551.35113,840.53121 551.83293,848.87553 C 552.20837,855.37788 551.29123,864.66238 548.86388,870.03328 C 546.8056,874.58768 538.50556,877.73188 533.8681,879.28938 C 531.56705,880.06218 528.49584,862.31838 528.13155,861.05538 C 525.76341,852.84478 524.40115,844.162 522.72213,835.67878 C 520.80881,826.01173 518.61503,816.47284 515.89114,807.02878 C 513.1808,797.63167 513.26975,788.55334 509.86529,779.51492 C 507.23872,772.54171 505.16716,767.58243 511.94109,768.50301 C 516.44181,769.11467 525.44222,769.4594 530.20771,768.93202 C 536.8761,768.19406 540.52303,768.67621 547.6692,768.22488 C 551.41553,767.98827 555.44081,770.30778 559.40662,770.84674 z"
         style="opacity:1;fill:#d9c670;fill-opacity:1;fill-rule:evenodd;stroke:#000000;stroke-width:2;stroke-linecap:butt;stroke-linejoin:miter;marker:none;marker-start:none;marker-mid:none;marker-end:none;stroke-miterlimit:4;stroke-dasharray:none;stroke-dashoffset:0;stroke-opacity:1;visibility:visible;display:inline;overflow:visible;enable-background:accumulate" />
      <path
         id="path3219"
         d="M 329.30973,632.13872 C 330.31522,632.54924 329.73288,644.94297 331.33004,651.33162 C 334.03757,662.16174 331.60733,674.66414 334.36049,685.67681 C 337.00869,696.26959 336.92805,708.70047 338.40111,719.01184 C 338.73782,721.36886 339.07454,723.72589 339.41126,726.08291 C 340.90664,736.55061 341.40798,747.17819 343.45187,757.39764 C 345.80642,769.17038 349.10795,781.63937 353.55339,792.75298 C 357.19689,801.86171 361.61774,808.89855 368.70568,815.98648 C 381.01391,828.29471 394.6069,832.42518 411.13209,835.17938 C 427.45795,837.90036 444.08867,841.2403 460.62956,841.2403 C 474.21176,841.2403 485.99652,839.38767 496.99505,831.13877 C 498.34192,830.12862 499.68879,829.11847 501.03566,828.10832 C 502.60637,826.93029 504.40284,826.08801 506.08643,825.07786 C 517.07369,818.4855 528.02599,810.57254 539.42146,804.87481 C 547.16674,801.00217 553.61873,795.7283 558.61436,790.73267 C 564.53631,784.81072 562.19482,774.85066 563.66512,767.49916 C 564.94044,761.12257 566.40018,758.57924 567.70573,753.35703 C 569.6591,745.54355 569.72604,734.06107 569.72604,726.08291 C 569.72604,710.78997 568.17703,694.56552 565.68543,679.61589 C 562.54173,660.7537 560.27235,641.72436 557.60421,623.04735 C 557.07824,619.36556 556.93077,615.63956 556.59405,611.93567 C 555.27303,597.40439 551.54329,583.02679 551.54329,568.49911 C 551.54329,560.73314 543.91651,560.78404 538.41131,559.40774 C 519.7778,554.74936 491.42113,566.16539 472.75139,568.49911 C 449.06955,571.45934 422.41222,576.47926 402.04072,588.70216 C 384.42012,599.27452 368.49015,610.87358 349.51278,619.00674 C 341.35794,622.50167 334.92493,625.11972 329.30973,632.13872 z"
         style="opacity:1;fill:#f2cf50;fill-opacity:1;fill-rule:evenodd;stroke:#000000;stroke-width:2;stroke-linecap:butt;stroke-linejoin:miter;marker:none;marker-start:none;marker-mid:none;marker-end:none;stroke-miterlimit:4;stroke-dasharray:none;stroke-dashoffset:0;stroke-opacity:1;visibility:visible;display:inline;overflow:visible;enable-background:accumulate" />
      <path
         id="path2409"
         d="M 345.47217,506.87981 C 345.15888,508.13297 334.06698,519.49083 331.33003,524.0524 C 323.63972,536.8696 323.61256,552.94255 318.19805,566.47881 C 312.68556,580.26004 314.98105,596.70594 312.13714,610.92552 C 309.17637,625.72936 324.01817,642.94941 332.34019,653.35193 C 343.29418,667.04441 354.80481,677.75643 369.71583,687.69711 C 384.30765,697.42499 400.28864,704.14364 417.193,707.90016 C 428.69029,710.45512 441.30569,707.68037 452.54834,704.86971 C 461.74484,702.57058 469.67638,697.62334 477.80215,692.74788 C 488.57336,686.28515 498.84646,670.80602 505.07627,660.423 C 511.90327,649.04467 521.15157,640.94288 526.28948,628.09811 C 532.11882,613.52475 539.58727,599.39931 545.48237,584.66155 C 552.19146,567.88884 551.54329,547.93051 551.54329,530.11332 C 551.54329,509.65937 535.87921,494.57843 526.28948,478.59554 C 519.81198,467.7997 508.86248,458.77036 498.0052,453.34172 C 496.38336,452.5308 494.63803,451.99485 492.95444,451.32142 C 477.21695,445.02642 455.66052,450.31127 439.41636,450.31127 C 427.93484,450.31127 414.19759,452.57535 403.05087,455.36203 C 391.01731,458.37042 380.96039,464.89204 369.71583,470.51432 C 361.56898,474.58774 354.29333,483.17656 350.52293,490.71737 C 347.53514,496.69296 345.47217,499.28273 345.47217,506.87981 z"
         style="opacity:1;fill:#f0c117;fill-opacity:1;fill-rule:evenodd;stroke:#000000;stroke-width:2;stroke-linecap:butt;stroke-linejoin:miter;marker:none;marker-start:none;marker-mid:none;marker-end:none;stroke-miterlimit:4;stroke-dasharray:none;stroke-dashoffset:0;stroke-opacity:1;visibility:visible;display:inline;overflow:visible;enable-background:accumulate" />
      <path
         id="path2397"
         d="M 246.47722,312.93052 C 255.16894,304.2388 268.82283,290.28895 281.83256,281.61579 C 300.84359,268.94177 324.28924,257.86964 346.48233,252.32137 C 372.54493,245.80571 397.30438,245.2503 424.26407,245.2503 C 448.84438,245.2503 476.18721,244.20026 499.01536,253.33152 C 506.27762,256.23642 511.65024,262.4548 513.1575,268.48381 C 515.64554,278.436 509.84082,298.48539 508.10673,308.88991 C 505.35651,325.39122 506.12522,343.07991 502.04582,359.39754 C 497.08663,379.23428 496.99505,407.56736 496.99505,428.08791 C 496.99505,446.25778 494.91305,465.83377 491.94429,483.6463 C 490.55242,491.99753 491.14253,499.39195 487.90368,505.86965 C 484.54903,512.57896 464.98587,517.05708 457.59911,520.01179 C 443.28659,525.7368 428.33227,528.48604 414.16255,534.15393 C 406.82698,537.08815 398.99967,539.20998 392.94934,542.23515 C 387.21492,545.10236 382.0313,545.16878 375.77675,548.29606 C 370.52976,550.91955 357.43415,536.24838 353.55339,533.14377 C 335.66106,518.82991 323.79005,496.73628 309.10668,479.60569 C 306.77727,476.88804 304.39264,474.21821 302.03561,471.52447 C 290.06171,457.84001 279.00048,443.23563 267.69043,429.09806 C 259.49143,418.84932 249.28161,409.62257 241.42646,399.80364 C 232.3792,388.49456 222.67458,377.01114 212.13204,366.4686 C 207.78592,362.12249 212.05372,361.22404 217.1828,357.37723 C 220.08106,355.20353 223.95121,347.88102 225.26402,345.2554 C 228.17591,339.43162 231.4956,334.92632 234.35539,331.11326 C 237.25218,327.25089 238.8168,323.6214 242.43661,320.00159 C 244.3562,318.082 245.08052,315.25836 246.47722,312.93052 z"
         style="opacity:1;fill:#fdc809;fill-opacity:1;fill-rule:evenodd;stroke:#000000;stroke-width:2;stroke-linecap:butt;stroke-linejoin:miter;marker:none;marker-start:none;marker-mid:none;marker-end:none;stroke-miterlimit:4;stroke-dasharray:none;stroke-dashoffset:0;stroke-opacity:1;visibility:visible;display:inline;overflow:visible;enable-background:accumulate" />
      <path
         id="path2399"
         d="M 336.3808,408.895 C 341.73133,403.54448 321.22103,412.43615 315.1676,416.97623 C 307.2456,422.91773 309.57419,428.40511 311.12699,436.16912 C 312.13852,441.22676 325.70076,448.61468 329.30973,451.32141 C 336.73394,456.88957 342.68696,453.84971 351.53309,450.31126 C 358.31874,447.597 361.4979,445.34252 366.68538,442.23004 C 373.91093,437.89471 368.60632,420.3213 367.69553,413.94577 C 366.59208,406.22161 360.81897,400.40596 355.5737,397.78333 C 353.24821,396.62058 345.30109,403.1294 342.44172,403.84424 C 339.89039,404.48207 338.40111,407.21142 336.3808,408.895 z"
         style="opacity:1;fill:#90855c;fill-opacity:1;fill-rule:evenodd;stroke:#000000;stroke-width:2;stroke-linecap:butt;stroke-linejoin:miter;marker:none;marker-start:none;marker-mid:none;marker-end:none;stroke-miterlimit:4;stroke-dasharray:none;stroke-dashoffset:0;stroke-opacity:1;visibility:visible;display:inline;overflow:visible;enable-background:accumulate" />
      <path
         id="path2403"
         d="M 411.13209,381.62089 C 410.3632,382.38979 413.42467,396.11425 414.16255,399.80364 C 415.4125,406.05338 421.79407,410.18539 427.29453,412.93562 C 433.64288,416.10979 441.2581,418.58074 446.48743,415.96608 C 453.90321,412.25819 457.74725,408.85798 465.68033,406.87471 C 474.12569,404.76337 476.79201,403.29771 476.79201,394.75288 C 476.79201,387.77721 472.58844,378.94874 470.73109,371.51937 C 469.35812,366.02749 465.28086,366.46861 459.61942,366.46861 C 454.15928,366.46861 449.26683,369.49906 443.45697,369.49906 C 438.60374,369.49906 430.14172,372.3228 425.27423,373.53967 C 424.6209,373.70301 423.92736,373.53967 423.25392,373.53967 C 418.12024,373.53967 413.80867,378.27517 411.13209,381.62089 z"
         style="opacity:1;fill:#90855c;fill-opacity:1;fill-rule:evenodd;stroke:#000000;stroke-width:2;stroke-linecap:butt;stroke-linejoin:miter;marker:none;marker-start:none;marker-mid:none;marker-end:none;stroke-miterlimit:4;stroke-dasharray:none;stroke-dashoffset:0;stroke-opacity:1;visibility:visible;display:inline;overflow:visible;enable-background:accumulate" />
      <path
         id="path2405"
         d="M 349.51278,498.79859 C 356.86631,497.33579 370.99722,492.62918 380.82751,488.69706 C 391.86684,484.28133 403.50862,480.12654 414.16255,476.57523 C 422.08779,473.93348 429.37446,468.47911 437.39605,466.47371 C 443.92728,464.8409 451.62118,460.87637 456.58895,458.39249 C 460.49689,456.43852 465.41981,454.417 469.72094,453.34172 C 473.79218,452.32391 479.24392,449.59038 481.84277,448.29096"
         style="opacity:1;fill:none;fill-opacity:1;fill-rule:evenodd;stroke:#000000;stroke-width:2;stroke-linecap:butt;stroke-linejoin:miter;marker:none;marker-start:none;marker-mid:none;marker-end:none;stroke-miterlimit:4;stroke-dasharray:none;stroke-dashoffset:0;stroke-opacity:1;visibility:visible;display:inline;overflow:visible;enable-background:accumulate" />
      <path
         id="path3213"
         d="M 339.41126,424.0473 C 334.38987,425.82264 333.21852,429.9764 337.39095,434.14882 C 342.12481,438.88268 345.93192,438.37075 347.49248,432.12852 C 349.32507,424.79814 347.93255,420.63878 339.41126,424.0473 z"
         style="opacity:1;fill:#ffffff;fill-opacity:1;fill-rule:evenodd;stroke:#000000;stroke-width:2;stroke-linecap:butt;stroke-linejoin:miter;marker:none;marker-start:none;marker-mid:none;marker-end:none;stroke-miterlimit:4;stroke-dasharray:none;stroke-dashoffset:0;stroke-opacity:1;visibility:visible;display:inline;overflow:visible;enable-background:accumulate" />
      <path
         id="path3217"
         d="M 444.46712,383.6412 C 440.1711,384.87857 437.66597,387.61228 436.3859,392.73257 C 434.91847,398.6023 444.54088,398.26997 446.48743,397.78333 C 450.6322,396.74714 451.53819,388.91903 451.53819,384.65135 C 451.53819,382.2704 446.84807,383.6412 444.46712,383.6412 z"
         style="opacity:1;fill:#ffffff;fill-opacity:1;fill-rule:evenodd;stroke:#000000;stroke-width:2;stroke-linecap:butt;stroke-linejoin:miter;marker:none;marker-start:none;marker-mid:none;marker-end:none;stroke-miterlimit:4;stroke-dasharray:none;stroke-dashoffset:0;stroke-opacity:1;visibility:visible;display:inline;overflow:visible;enable-background:accumulate" />
      <path
         style="opacity:1;fill:#dac475;fill-opacity:1;fill-rule:evenodd;stroke:#000000;stroke-width:2;stroke-linecap:butt;stroke-linejoin:miter;marker:none;marker-start:none;marker-mid:none;marker-end:none;stroke-miterlimit:4;stroke-dasharray:none;stroke-dashoffset:0;stroke-opacity:1;visibility:visible;display:inline;overflow:visible;enable-background:accumulate"
         d="M 336.3808,548.29606 C 332.52583,550.22354 324.56574,574.29816 321.22851,582.64125 C 315.66928,596.53931 313.00188,610.64242 310.11683,625.06765 C 306.61532,642.57521 310.97301,661.2115 313.14729,678.60574 C 315.57928,698.06166 318.02411,716.95802 321.22851,736.18443 C 323.82661,751.77306 325.24556,767.38136 328.29958,782.65145 C 329.83251,790.3161 330.31988,799.15551 330.31988,806.89511 C 330.31988,813.39413 343.25685,819.74706 346.48232,821.03725 C 351.3997,823.0042 355.78376,821.83734 359.61431,818.00679 C 363.67398,813.94712 364.66507,808.37239 364.66507,801.84435 C 364.66507,790.78492 362.64476,780.25268 362.64476,769.51947 C 362.64476,758.15454 358.43207,746.26359 356.58385,735.17428 C 354.05846,720.02193 348.4462,705.59773 345.47217,690.72757 C 343.20529,679.39317 341.43156,668.09742 341.43156,656.38238 C 341.43156,647.62773 341.43156,638.87307 341.43156,630.11842 C 341.43156,623.09832 342.49286,614.86384 345.47217,608.90521 C 349.70827,600.433 352.05476,592.0472 357.594,584.66155"
         id="path3221" />
      <path
         style="opacity:1;fill:#dac475;fill-opacity:1;fill-rule:evenodd;stroke:#000000;stroke-width:2;stroke-linecap:butt;stroke-linejoin:miter;marker:none;marker-start:none;marker-mid:none;marker-end:none;stroke-miterlimit:4;stroke-dasharray:none;stroke-dashoffset:0;stroke-opacity:1;visibility:visible;display:inline;overflow:visible;enable-background:accumulate"
         d="M 503.05597,476.57523 C 503.54457,475.59802 515.30659,486.52081 518.20825,488.69706 C 523.16795,492.41683 528.20465,497.68331 532.35039,501.82904 C 540.27314,509.75179 547.85432,516.55725 553.56359,526.0727 C 561.72533,539.6756 567.16038,551.0849 569.72603,566.47881 C 572.20251,581.33768 572.82997,596.14064 575.78695,610.92552 C 578.72088,625.59518 581.01587,637.07014 583.86817,651.33162 C 586.61097,665.04563 588.91893,679.52972 588.91893,693.75803 C 588.91893,708.96448 593.96969,724.04826 593.96969,739.21489 C 593.96969,750.05514 589.15985,752.18626 579.82756,758.40779 C 576.55256,760.59112 568.62741,753.31279 566.69558,752.34687 C 561.87833,749.93825 559.40213,737.09285 558.61436,733.15398 C 557.1333,725.74868 555.75571,719.03256 554.57375,711.94077 C 554.23703,709.92047 553.90031,707.90016 553.56359,705.87986 C 551.85123,695.6057 551.50275,685.47413 549.52298,675.57528 C 547.59616,665.94116 549.93573,656.01308 547.50268,646.28086 C 545.72212,639.15864 544.47222,629.09686 544.47222,622.0372 C 544.47222,616.0924 541.59698,609.6813 540.43161,603.85445 C 538.5378,594.38538 535.62799,586.66027 533.36054,577.59048 C 531.12707,568.6566 526.62025,561.75882 520.22856,555.36713 C 515.4621,550.60067 503.72736,543.24407 502.04581,542.23514"
         id="path3223" />
      <path
         style="opacity:1;fill:#dbbc2f;fill-opacity:1;fill-rule:evenodd;stroke:#000000;stroke-width:2;stroke-linecap:butt;stroke-linejoin:miter;marker:none;marker-start:none;marker-mid:none;marker-end:none;stroke-miterlimit:4;stroke-dasharray:none;stroke-dashoffset:0;stroke-opacity:1;visibility:visible;display:inline;overflow:visible;enable-background:accumulate"
         d="M 394.48572,871.54486 C 396.14273,869.47366 406.87279,876.54206 409.63801,878.61596 C 416.16013,883.50756 414.47362,888.13766 411.65831,893.76826 C 408.56899,899.94686 406.63914,902.13356 402.56694,908.92056 C 398.66984,915.41566 394.38012,918.22306 391.45526,924.07286 C 388.45688,930.06956 379.77157,931.36296 375.29282,929.12356 C 368.95118,925.95276 366.82397,924.69536 362.16084,920.03216 C 356.41515,914.28656 353.06947,911.40616 353.06947,901.84946 C 353.06947,894.10886 356.83508,885.31946 362.16084,882.65656 C 367.01258,880.23066 370.68699,879.90866 375.29282,877.60576 C 381.67294,874.41576 380.09606,873.56516 387.41465,873.56516 C 388.08809,873.56516 388.76152,873.56516 389.43496,873.56516"
         id="path3225" />
      <path
         style="opacity:1;fill:#d9c670;fill-opacity:1;fill-rule:evenodd;stroke:#000000;stroke-width:2;stroke-linecap:butt;stroke-linejoin:miter;marker:none;marker-start:none;marker-mid:none;marker-end:none;stroke-miterlimit:4;stroke-dasharray:none;stroke-dashoffset:0;stroke-opacity:1;visibility:visible;display:inline;overflow:visible;enable-background:accumulate"
         d="M 429.84105,779.62099 C 435.10075,782.25084 424.95396,790.32351 422.76999,795.78343 C 418.63149,806.12967 415.82159,818.40356 413.67861,829.11847 C 411.65012,839.26095 407.11959,849.29366 404.58724,859.42306 C 402.26157,868.72576 398.7895,877.56326 396.50602,886.69716 C 394.55617,894.49656 390.44295,896.29526 384.38419,900.83926 C 377.77688,905.79476 374.28777,906.90276 370.24205,904.87996 C 367.62541,903.57156 369.2319,886.06796 369.2319,882.65656 C 369.2319,875.31086 368.22175,868.70416 368.22175,861.44336 C 368.22175,851.80146 370.24205,842.07835 370.24205,832.14892 C 370.24205,820.68234 374.39036,807.25906 376.30297,795.78343 C 377.66816,787.59226 375.11818,782.23369 382.36388,778.61084 C 387.29538,776.14509 398.74244,777.60069 404.58724,777.60069 C 413.87077,777.60069 421.34492,774.52331 429.84105,779.62099 z"
         id="path3227" />
      <path
         style="opacity:1;fill:#dbbc2f;fill-opacity:1;fill-rule:evenodd;stroke:#000000;stroke-width:2;stroke-linecap:butt;stroke-linejoin:miter;marker:none;marker-start:none;marker-mid:none;marker-end:none;stroke-miterlimit:4;stroke-dasharray:none;stroke-dashoffset:0;stroke-opacity:1;visibility:visible;display:inline;overflow:visible;enable-background:accumulate"
         d="M 534.37069,858.41288 C 531.62323,860.70248 522.86212,861.84028 519.2184,865.48398 C 514.43389,870.26848 517.95876,880.13728 520.22855,884.67688 C 524.28436,892.78848 527.633,897.26948 535.38084,898.81898 C 542.60953,900.26478 547.01647,902.85958 553.56359,902.85958 C 558.746,902.85958 563.73949,896.72428 565.68542,894.77838 C 570.20101,890.26278 571.82672,884.83768 568.71587,878.61598 C 566.69141,874.56698 565.47298,870.10988 563.66511,866.49408 C 560.10744,859.37878 551.43999,856.11428 544.47221,854.37228 C 539.79982,853.20418 539.5,854.30948 534.37069,858.41288 z"
         id="path3229" />
      <path
         style="opacity:1;fill:#d9c670;fill-opacity:1;fill-rule:evenodd;stroke:#000000;stroke-width:2;stroke-linecap:butt;stroke-linejoin:miter;marker:none;marker-start:none;marker-mid:none;marker-end:none;stroke-miterlimit:4;stroke-dasharray:none;stroke-dashoffset:0;stroke-opacity:1;visibility:visible;display:inline;overflow:visible;enable-background:accumulate"
         d="M 559.40662,770.84674 C 559.60706,761.95286 558.41353,786.92963 556.67658,796.14393 C 554.98133,805.13709 555.41236,813.66513 553.75783,822.44219 C 552.17972,830.8139 551.35113,840.53121 551.83293,848.87553 C 552.20837,855.37788 551.29123,864.66238 548.86388,870.03328 C 546.8056,874.58768 538.50556,877.73188 533.8681,879.28938 C 531.56705,880.06218 528.49584,862.31838 528.13155,861.05538 C 525.76341,852.84478 524.40115,844.162 522.72213,835.67878 C 520.80881,826.01173 518.61503,816.47284 515.89114,807.02878 C 513.1808,797.63167 513.26975,788.55334 509.86529,779.51492 C 507.23872,772.54171 505.16716,767.58243 511.94109,768.50301 C 516.44181,769.11467 525.44222,769.4594 530.20771,768.93202 C 536.8761,768.19406 540.52303,768.67621 547.6692,768.22488 C 551.41553,767.98827 555.44081,770.30778 559.40662,770.84674 z"
         id="path3231" />
      <path
         style="opacity:1;fill:#f2cf50;fill-opacity:1;fill-rule:evenodd;stroke:#000000;stroke-width:2;stroke-linecap:butt;stroke-linejoin:miter;marker:none;marker-start:none;marker-mid:none;marker-end:none;stroke-miterlimit:4;stroke-dasharray:none;stroke-dashoffset:0;stroke-opacity:1;visibility:visible;display:inline;overflow:visible;enable-background:accumulate"
         d="M 329.30973,632.13872 C 330.31522,632.54924 329.73288,644.94297 331.33004,651.33162 C 334.03757,662.16174 331.60733,674.66414 334.36049,685.67681 C 337.00869,696.26959 336.92805,708.70047 338.40111,719.01184 C 338.73782,721.36886 339.07454,723.72589 339.41126,726.08291 C 340.90664,736.55061 341.40798,747.17819 343.45187,757.39764 C 345.80642,769.17038 349.10795,781.63937 353.55339,792.75298 C 357.19689,801.86171 361.61774,808.89855 368.70568,815.98648 C 381.01391,828.29471 394.6069,832.42518 411.13209,835.17938 C 427.45795,837.90036 444.08867,841.2403 460.62956,841.2403 C 474.21176,841.2403 485.99652,839.38767 496.99505,831.13877 C 498.34192,830.12862 499.68879,829.11847 501.03566,828.10832 C 502.60637,826.93029 504.40284,826.08801 506.08643,825.07786 C 517.07369,818.4855 528.02599,810.57254 539.42146,804.87481 C 547.16674,801.00217 553.61873,795.7283 558.61436,790.73267 C 564.53631,784.81072 562.19482,774.85066 563.66512,767.49916 C 564.94044,761.12257 566.40018,758.57924 567.70573,753.35703 C 569.6591,745.54355 569.72604,734.06107 569.72604,726.08291 C 569.72604,710.78997 568.17703,694.56552 565.68543,679.61589 C 562.54173,660.7537 560.27235,641.72436 557.60421,623.04735 C 557.07824,619.36556 556.93077,615.63956 556.59405,611.93567 C 555.27303,597.40439 551.54329,583.02679 551.54329,568.49911 C 551.54329,560.73314 543.91651,560.78404 538.41131,559.40774 C 519.7778,554.74936 491.42113,566.16539 472.75139,568.49911 C 449.06955,571.45934 422.41222,576.47926 402.04072,588.70216 C 384.42012,599.27452 368.49015,610.87358 349.51278,619.00674 C 341.35794,622.50167 334.92493,625.11972 329.30973,632.13872 z"
         id="path3233" />
      <path
         style="opacity:1;fill:#f0c117;fill-opacity:1;fill-rule:evenodd;stroke:#000000;stroke-width:2;stroke-linecap:butt;stroke-linejoin:miter;marker:none;marker-start:none;marker-mid:none;marker-end:none;stroke-miterlimit:4;stroke-dasharray:none;stroke-dashoffset:0;stroke-opacity:1;visibility:visible;display:inline;overflow:visible;enable-background:accumulate"
         d="M 527.71805,475.7384 C 516.95484,466.37113 508.86248,458.77036 498.0052,453.34172 C 496.38336,452.5308 494.63803,451.99485 492.95444,451.32142 C 477.21695,445.02642 455.66052,450.31127 439.41636,450.31127 C 427.93484,450.31127 414.19759,452.57535 403.05087,455.36203 C 391.01731,458.37042 380.96039,464.89204 369.71583,470.51432 C 361.56898,474.58774 354.29333,483.17656 350.52293,490.71737 C 347.53514,496.69296 345.47217,499.28273 345.47217,506.87981 C 345.15888,508.13297 334.06698,519.49083 331.33003,524.0524 C 323.63972,536.8696 323.61256,552.94255 318.19805,566.47881 C 312.68556,580.26004 314.98105,596.70594 312.13714,610.92552 C 309.81673,603.96429 315.36318,625.24349 317.14286,632.36218 C 318.87855,639.30493 321.40086,646.53707 322.85714,652.36218 C 324.44462,658.71211 325.57605,664.52816 327.14286,672.36218 C 328.75256,680.41071 331.77221,682.70582 335.71429,686.6479 C 342.91129,693.8449 345.63274,695.47242 355.71429,699.50504 C 363.40327,702.58063 370.81103,703.27923 378.57143,705.21933 C 384.79872,706.77615 393.25552,708.07647 401.42857,708.07647 C 411.81882,708.07647 423.00775,709.11025 432.85714,706.6479 C 440.69517,704.68839 451.9715,706.6479 460,706.6479 C 468.7698,706.6479 476.3335,705.42166 482.85714,703.79075 C 491.32158,701.67465 500.47522,700.10052 508.57143,698.07647 C 509.95735,697.72999 511.42857,698.07647 512.85714,698.07647 C 513.80952,697.36218 514.7619,696.6479 515.71429,695.93361 C 519.01411,693.45875 523.90399,692.94344 527.14286,691.6479 C 531.83166,689.77237 536.72798,689.25162 541.42857,688.07647 C 545.79675,686.98442 548.11394,685.80521 552.14286,683.79075 C 555.95937,681.8825 558.65996,680.84508 560.71429,678.79075 C 563.19197,676.31307 563.98236,674.28989 565,670.21933 C 566.05596,665.9955 566.30509,662.14183 567.14286,658.79075 C 568.42007,653.68192 568.77253,647.98633 570,643.07647 C 571.18066,638.35384 570.28595,632.64695 571.42857,628.07647 C 572.45631,623.96551 572.14286,618.72001 572.14286,614.50504 C 572.14286,609.81881 572.85714,605.50753 572.85714,600.93361 C 572.85714,597.06438 574.28571,592.25187 574.28571,587.36218 C 574.28571,581.77915 575.41799,575.4627 574.28571,570.93361 C 572.95963,565.62929 571.75448,559.70603 570.71429,554.50504 C 569.6434,549.15058 569.13223,544.60538 567.85714,539.50504 C 567.02027,536.15754 564.76358,533.55935 563.57143,528.79075 C 562.33811,523.85746 552.68876,507.02541 550.71429,503.07646 C 541.53202,489.14933 539.58027,487.73742 527.71805,475.7384 z"
         id="path3235"
         sodipodi:nodetypes="csssssscsscssssssssssscsssssssssssssssscc" />
      <path
         style="opacity:1;fill:#fdc809;fill-opacity:1;fill-rule:evenodd;stroke:#000000;stroke-width:2;stroke-linecap:butt;stroke-linejoin:miter;marker:none;marker-start:none;marker-mid:none;marker-end:none;stroke-miterlimit:4;stroke-dasharray:none;stroke-dashoffset:0;stroke-opacity:1;visibility:visible;display:inline;overflow:visible;enable-background:accumulate"
         d="M 246.47722,312.93052 C 255.16894,304.2388 268.82283,290.28895 281.83256,281.61579 C 300.84359,268.94177 324.28924,257.86964 346.48233,252.32137 C 372.54493,245.80571 397.30438,245.2503 424.26407,245.2503 C 448.84438,245.2503 476.18721,244.20026 499.01536,253.33152 C 506.27762,256.23642 511.65024,262.4548 513.1575,268.48381 C 515.64554,278.436 509.84082,298.48539 508.10673,308.88991 C 505.35651,325.39122 506.12522,343.07991 502.04582,359.39754 C 497.08663,379.23428 496.99505,407.56736 496.99505,428.08791 C 496.99505,446.25778 494.91305,465.83377 491.94429,483.6463 C 490.55242,491.99753 491.14253,499.39195 487.90368,505.86965 C 484.54903,512.57896 464.98587,517.05708 457.59911,520.01179 C 443.28659,525.7368 428.33227,528.48604 414.16255,534.15393 C 406.82698,537.08815 398.99967,539.20998 392.94934,542.23515 C 387.21492,545.10236 382.0313,545.16878 375.77675,548.29606 C 370.52976,550.91955 357.43415,536.24838 353.55339,533.14377 C 335.66106,518.82991 323.79005,496.73628 309.10668,479.60569 C 306.77727,476.88804 304.39264,474.21821 302.03561,471.52447 C 290.06171,457.84001 279.00048,443.23563 267.69043,429.09806 C 259.49143,418.84932 249.28161,409.62257 241.42646,399.80364 C 232.3792,388.49456 222.67458,377.01114 212.13204,366.4686 C 207.78592,362.12249 212.05372,361.22404 217.1828,357.37723 C 220.08106,355.20353 223.95121,347.88102 225.26402,345.2554 C 228.17591,339.43162 231.4956,334.92632 234.35539,331.11326 C 237.25218,327.25089 238.8168,323.6214 242.43661,320.00159 C 244.3562,318.082 245.08052,315.25836 246.47722,312.93052 z"
         id="path3237" />
      <path
         style="opacity:1;fill:#90855c;fill-opacity:1;fill-rule:evenodd;stroke:#000000;stroke-width:2;stroke-linecap:butt;stroke-linejoin:miter;marker:none;marker-start:none;marker-mid:none;marker-end:none;stroke-miterlimit:4;stroke-dasharray:none;stroke-dashoffset:0;stroke-opacity:1;visibility:visible;display:inline;overflow:visible;enable-background:accumulate"
         d="M 336.3808,408.895 C 341.73133,403.54448 321.22103,412.43615 315.1676,416.97623 C 307.2456,422.91773 309.57419,428.40511 311.12699,436.16912 C 312.13852,441.22676 325.70076,448.61468 329.30973,451.32141 C 336.73394,456.88957 342.68696,453.84971 351.53309,450.31126 C 358.31874,447.597 361.4979,445.34252 366.68538,442.23004 C 373.91093,437.89471 368.60632,420.3213 367.69553,413.94577 C 366.59208,406.22161 360.81897,400.40596 355.5737,397.78333 C 353.24821,396.62058 345.30109,403.1294 342.44172,403.84424 C 339.89039,404.48207 338.40111,407.21142 336.3808,408.895 z"
         id="path3239" />
      <path
         style="opacity:1;fill:#90855c;fill-opacity:1;fill-rule:evenodd;stroke:#000000;stroke-width:2;stroke-linecap:butt;stroke-linejoin:miter;marker:none;marker-start:none;marker-mid:none;marker-end:none;stroke-miterlimit:4;stroke-dasharray:none;stroke-dashoffset:0;stroke-opacity:1;visibility:visible;display:inline;overflow:visible;enable-background:accumulate"
         d="M 411.13209,381.62089 C 410.3632,382.38979 413.42467,396.11425 414.16255,399.80364 C 415.4125,406.05338 421.79407,410.18539 427.29453,412.93562 C 433.64288,416.10979 441.2581,418.58074 446.48743,415.96608 C 453.90321,412.25819 457.74725,408.85798 465.68033,406.87471 C 474.12569,404.76337 476.79201,403.29771 476.79201,394.75288 C 476.79201,387.77721 472.58844,378.94874 470.73109,371.51937 C 469.35812,366.02749 465.28086,366.46861 459.61942,366.46861 C 454.15928,366.46861 449.26683,369.49906 443.45697,369.49906 C 438.60374,369.49906 430.14172,372.3228 425.27423,373.53967 C 424.6209,373.70301 423.92736,373.53967 423.25392,373.53967 C 418.12024,373.53967 413.80867,378.27517 411.13209,381.62089 z"
         id="path3241" />
      <path
         style="opacity:1;fill:none;fill-opacity:1;fill-rule:evenodd;stroke:#000000;stroke-width:2;stroke-linecap:butt;stroke-linejoin:miter;marker:none;marker-start:none;marker-mid:none;marker-end:none;stroke-miterlimit:4;stroke-dasharray:none;stroke-dashoffset:0;stroke-opacity:1;visibility:visible;display:inline;overflow:visible;enable-background:accumulate"
         d="M 349.51278,498.79859 C 356.86631,497.33579 370.99722,492.62918 380.82751,488.69706 C 391.86684,484.28133 403.50862,480.12654 414.16255,476.57523 C 422.08779,473.93348 429.37446,468.47911 437.39605,466.47371 C 443.92728,464.8409 451.62118,460.87637 456.58895,458.39249 C 460.49689,456.43852 465.41981,454.417 469.72094,453.34172 C 473.79218,452.32391 479.24392,449.59038 481.84277,448.29096"
         id="path3243" />
      <path
         style="opacity:1;fill:#ffffff;fill-opacity:1;fill-rule:evenodd;stroke:#000000;stroke-width:2;stroke-linecap:butt;stroke-linejoin:miter;marker:none;marker-start:none;marker-mid:none;marker-end:none;stroke-miterlimit:4;stroke-dasharray:none;stroke-dashoffset:0;stroke-opacity:1;visibility:visible;display:inline;overflow:visible;enable-background:accumulate"
         d="M 339.41126,424.0473 C 334.38987,425.82264 333.21852,429.9764 337.39095,434.14882 C 342.12481,438.88268 345.93192,438.37075 347.49248,432.12852 C 349.32507,424.79814 347.93255,420.63878 339.41126,424.0473 z"
         id="path3245" />
      <path
         style="opacity:1;fill:#ffffff;fill-opacity:1;fill-rule:evenodd;stroke:#000000;stroke-width:2;stroke-linecap:butt;stroke-linejoin:miter;marker:none;marker-start:none;marker-mid:none;marker-end:none;stroke-miterlimit:4;stroke-dasharray:none;stroke-dashoffset:0;stroke-opacity:1;visibility:visible;display:inline;overflow:visible;enable-background:accumulate"
         d="M 444.46712,383.6412 C 440.1711,384.87857 437.66597,387.61228 436.3859,392.73257 C 434.91847,398.6023 444.54088,398.26997 446.48743,397.78333 C 450.6322,396.74714 451.53819,388.91903 451.53819,384.65135 C 451.53819,382.2704 446.84807,383.6412 444.46712,383.6412 z"
         id="path3247" />
    </g>
  </g>
</svg>
