<?xml version="1.0" encoding="UTF-8" standalone="no"?>
<!-- Created with Inkscape (http://www.inkscape.org/) -->

<svg
   xmlns:dc="http://purl.org/dc/elements/1.1/"
   xmlns:cc="http://creativecommons.org/ns#"
   xmlns:rdf="http://www.w3.org/1999/02/22-rdf-syntax-ns#"
   xmlns:svg="http://www.w3.org/2000/svg"
   xmlns="http://www.w3.org/2000/svg"
   xmlns:sodipodi="http://sodipodi.sourceforge.net/DTD/sodipodi-0.dtd"
   xmlns:inkscape="http://www.inkscape.org/namespaces/inkscape"
   width="744.09448819"
   height="1052.3622047"
   id="svg2"
   version="1.1"
   inkscape:version="0.48.1 r9760"
   sodipodi:docname="node_turtle.svg"
   inkscape:export-filename="/home/substack/media/vector/node_turtle.png"
   inkscape:export-xdpi="98.790878"
   inkscape:export-ydpi="98.790878">
  <defs
     id="defs4" />
  <sodipodi:namedview
     id="base"
     pagecolor="#ffffff"
     bordercolor="#666666"
     borderopacity="1.0"
     inkscape:pageopacity="0.0"
     inkscape:pageshadow="2"
     inkscape:zoom="0.70710678"
     inkscape:cx="585.08174"
     inkscape:cy="689.09377"
     inkscape:document-units="px"
     inkscape:current-layer="layer1"
     showgrid="false"
     showguides="true"
     inkscape:guide-bbox="true"
     inkscape:window-width="1364"
     inkscape:window-height="766"
     inkscape:window-x="0"
     inkscape:window-y="0"
     inkscape:window-maximized="0" />
  <metadata
     id="metadata7">
    <rdf:RDF>
      <cc:Work
         rdf:about="">
        <dc:format>image/svg+xml</dc:format>
        <dc:type
           rdf:resource="http://purl.org/dc/dcmitype/StillImage" />
        <dc:title></dc:title>
      </cc:Work>
    </rdf:RDF>
  </metadata>
  <g
     inkscape:label="Layer 1"
     inkscape:groupmode="layer"
     id="layer1">
    <g
       id="g4556"
       transform="matrix(0.3291969,-0.9442613,0.9442613,0.3291969,165.1376,1119.6852)" />
    <path
       style="fill:#000000;fill-opacity:1;stroke:#000000;stroke-width:2;stroke-linecap:round;stroke-linejoin:round;stroke-miterlimit:4;stroke-opacity:1;stroke-dasharray:none"
       d="M 34.09375 39.125 C 33.954103 39.125826 33.819223 39.172232 33.71875 39.21875 C 30.487476 40.714808 5.5028316 38.545491 11.875 45.3125 C 14.07757 49.14797 18.828706 54.126551 23.125 58.125 C 27.942219 63.240705 35.389147 69.117012 41.46875 73.96875 C 45.159846 76.914378 53.315512 79.00869 56.25 82.125 C 57.204813 83.13897 59.59062 82.87465 60.6875 83.75 C 67.244694 88.98288 81.143288 93.374169 86.28125 95.71875 C 86.274117 95.740078 86.257091 95.759948 86.25 95.78125 C 86.381734 95.813022 86.551202 95.872052 86.6875 95.90625 C 87.006844 96.059244 87.303342 96.210679 87.53125 96.34375 C 87.575775 96.28408 87.611969 96.216192 87.65625 96.15625 C 95.669638 98.315778 109.98274 103.86857 120.8125 107.84375 C 123.80699 108.94291 129.67589 109.95168 131.78125 112.1875 C 132.78796 113.25662 144.85526 115.99007 147.21875 118.5 C 148.0492 119.38191 156.69387 120.82919 160.5625 122.65625 C 160.54166 122.6746 160.52072 122.70082 160.5 122.71875 C 160.74611 122.8417 161.0554 122.96042 161.40625 123.09375 C 161.67544 123.26364 161.92842 123.44943 162.09375 123.625 C 162.27068 123.81289 163.75933 124.05299 164.6875 124.15625 C 165.75921 124.47344 166.93454 124.80893 168.125 125.15625 C 168.23954 125.20808 168.4665 125.31998 168.53125 125.34375 C 169.10973 125.55608 171.7582 126.5576 174.4375 127.625 C 179.021 131.65328 185.99449 138.79987 187.1875 141.03125 C 188.9862 144.39552 196.29473 150.08134 197.4375 152.21875 C 199.54939 156.1688 202.55333 159.71892 204.625 163.59375 C 204.98073 164.25908 216.0243 161.73759 217.25 162.1875 C 219.56874 163.03861 226.77723 160.94292 228.53125 160.25 C 230.1682 159.60332 233.19225 160.93714 235.40625 160.0625 C 239.66218 158.38119 246.68605 157.93258 252.375 157.46875 C 253.69934 157.9326 254.84997 158.30925 255.53125 158.375 C 255.63393 158.30183 255.7631 158.15938 255.875 158.03125 C 255.91918 158.0454 255.95589 158.08024 256 158.09375 C 255.84736 158.18874 255.70368 158.28583 255.53125 158.375 C 255.63417 158.34825 255.88681 158.26301 256.15625 158.125 C 256.55279 158.23748 256.93571 158.32708 257.34375 158.28125 C 259.05981 158.08849 266.69663 162.67548 268.6875 163.40625 C 279.71024 167.45226 290.87461 171.21734 302.03125 175.3125 C 306.13359 176.8183 311.67351 178.72226 315.78125 180.03125 C 317.85699 181.41152 322.52489 180.87707 324.40625 182.875 C 325.27043 183.79272 326.8442 184.46018 328.59375 185.03125 C 328.53212 185.17622 328.46642 185.32311 328.40625 185.46875 C 329.67593 185.92287 331.71474 186.81236 333.34375 187.96875 C 332.00638 192.07756 330.32463 196.35096 330.21875 199.96875 C 330.16825 201.69577 329.08807 204.77912 328.28125 206.28125 C 327.86066 207.06428 327.75076 208.06393 327.625 209.03125 C 327.54671 209.05668 327.44931 209.1031 327.375 209.125 L 327.625 209.0625 C 327.52493 209.82641 327.40401 210.58293 327.0625 211.21875 C 325.65133 213.84601 323.5046 219.45011 321.8125 224.875 C 321.09272 224.72874 320.3129 224.86803 319.53125 225.25 C 315.49039 227.22447 311.05004 235.04594 311 236.6875 C 310.9531 238.22526 307.49839 245.43406 306.5625 248 C 304.57044 253.46169 310.82719 255.89497 311.40625 255.53125 C 311.46292 255.55989 311.63557 255.64548 311.71875 255.6875 C 311.40578 256.45485 311.08198 257.20093 310.78125 257.90625 L 308.84375 255.96875 C 306.16602 253.29102 298.88363 248.49956 295.59375 241.875 C 291.39379 233.41793 291.78945 225.66506 287.90625 219.21875 C 285.80671 215.73344 282.15379 209.25129 279.3125 205.6875 L 279.3125 205.59375 C 279.30512 205.62427 279.28839 205.6567 279.28125 205.6875 C 278.85031 205.14771 278.44701 204.66576 278.0625 204.28125 C 269.2647 195.48345 268.18646 199.74947 257.5625 194.4375 C 255.19828 193.25539 248.60065 194.71322 244.71875 194.40625 C 244.7178 194.36617 244.69187 194.31687 244.65625 194.28125 C 244.49244 194.11744 244.0957 194.20067 243.6875 194.28125 C 243.04085 194.14764 242.52256 193.92881 242.1875 193.59375 C 241.42217 192.82842 238.60246 192.4375 235.78125 192.4375 C 233.12931 192.4375 230.5067 192.79163 229.5625 193.46875 C 228.9518 193.5458 228.33719 193.59375 227.6875 193.59375 C 228.09098 193.56145 228.57033 193.61304 229.09375 193.78125 C 227.89139 194.4151 225.16889 193.51861 224.25 194.4375 C 221.97382 196.71368 219.18212 197.66968 216.875 199.5 C 216.869 199.505 216.85015 199.495 216.84375 199.5 C 214.96085 200.08713 213.1566 201.49032 212.4375 203 C 212.00556 203.15065 210.98358 207.55449 208.125 210.875 C 207.75302 211.3071 207.92531 213.46249 207.71875 214.28125 C 207.048 216.9399 206.59006 219.57655 206.84375 220.1875 C 207.04063 220.66166 209.12167 219.41945 209.5625 219.15625 C 210.68634 218.48522 211.90739 219.07725 213.03125 218.40625 C 213.93082 217.86915 213.79954 219.44295 214.59375 218.96875 C 214.92282 218.77226 215.61625 219.17604 216.21875 219.4375 C 216.16085 219.56831 216.11595 219.70859 216.0625 219.84375 C 215.92803 219.8109 215.79177 219.7771 215.65625 219.75 C 215.68263 220.22917 215.72591 220.52903 215.75 220.71875 C 215.394 221.94732 215.32595 223.1697 215.9375 223.78125 C 217.33481 225.17855 219.58191 231.21903 228.09375 232.46875 C 230.92692 232.88472 233.73535 234.28819 236.46875 235.9375 C 236.49015 235.95979 236.50911 235.97786 236.53125 236 C 236.64469 236.11344 236.81531 236.19789 237 236.25 C 239.06961 237.52808 241.09158 238.92079 243.03125 240.15625 C 246.56115 242.4046 249.49573 239.45774 256.71875 244.875 C 260.13624 247.4381 264.82282 249.13531 265.25 249.5625 C 267.85079 252.16328 270.14852 255.74225 273.375 258.96875 C 276.08409 261.67783 278.4856 265.41074 281.125 269.34375 C 280.96279 269.44293 280.75516 269.55734 280.71875 269.59375 C 280.60463 269.70787 281.55605 270.58769 282.53125 271.40625 C 284.26992 273.93994 286.15806 276.49286 288.28125 278.875 C 286.84119 280.8057 285.6582 283.03453 284.78125 285.5 C 283.55361 285.60015 282.72208 286.52368 282.46875 287.53125 C 280.31121 288.65908 278.47329 289.77379 277.25 290.84375 C 276.8204 291.00819 276.3509 291.2643 276.46875 291.5 C 276.48348 291.52946 276.51301 291.54357 276.53125 291.5625 C 276.4883 291.61036 276.44628 291.67121 276.40625 291.71875 C 276.3161 291.82579 276.2149 291.95025 276.125 292.0625 C 275.86459 292.2113 275.61448 292.35427 275.40625 292.5625 C 275.14113 292.82761 274.92836 293.32255 274.84375 293.8125 C 273.37194 295.99208 271.9052 298.57028 270.40625 300.78125 C 269.72513 301.52381 269.80425 301.55701 270.0625 301.34375 C 269.95062 301.5025 269.83117 301.65938 269.71875 301.8125 C 269.55562 301.97632 269.62073 301.91052 269.40625 302.125 C 269.36813 302.16312 269.19896 302.46437 269.09375 302.625 C 269.01167 302.72681 268.92618 302.83962 268.84375 302.9375 C 268.36678 303.50384 267.98672 304.42708 267.6875 305.59375 C 267.49249 305.98513 267.28125 306.34912 267.28125 306.71875 C 267.28125 306.98663 267.291 307.23969 267.3125 307.46875 C 266.95676 309.60429 266.76889 312.23941 266.625 315 C 266.31327 315.37638 265.91084 316.09605 266.21875 316.25 C 266.38216 316.33171 266.48293 316.23231 266.5625 316.0625 C 266.5571 316.17848 266.53649 316.28997 266.53125 316.40625 C 266.11312 317.17855 265.53125 317.74158 265.53125 318.75 C 265.53125 320.32499 265.71783 321.11139 266.3125 321.90625 C 266.13091 326.56528 265.90595 330.75376 265.1875 332.84375 C 265.18474 332.84704 265.15839 332.87286 265.15625 332.875 C 264.76418 333.26707 264.64696 333.6793 264.6875 334.0625 C 263.8162 336.01046 262.67474 338.23082 261.625 340.53125 C 260.70391 341.8139 259.71039 344.91682 259.5 345.96875 C 259.13858 346.57135 256.06021 350.09603 253.84375 352.3125 C 252.76283 353.39342 257.26934 351.96875 258.09375 351.96875 C 259.02225 351.96875 260.38374 354.8151 261.6875 354.4375 C 262.77878 354.98413 264.1792 355.39358 265.75 355.71875 C 266.22879 357.37988 271.38476 357.6865 272.59375 356.46875 C 278.84747 356.70629 285.39968 355.90802 287.71875 354.53125 C 290.77976 352.714 291.44888 349.06208 291.25 344.84375 C 292.84944 344.60517 294.89706 341.77206 293.4375 340.3125 C 293.06758 339.94258 292.8403 338.93577 292.03125 338.53125 C 290.81445 337.92284 293.15759 341.25889 290.59375 338.84375 C 290.56248 338.64417 290.53199 338.44954 290.5 338.25 C 290.89522 338.35059 291.3125 338.4232 291.3125 338.1875 C 291.3125 337.86525 290.89815 337.98661 290.46875 338.09375 C 290.0262 335.347 289.57839 332.6416 289.375 330.21875 C 290.88929 330.51183 292.28449 330.60718 292.625 330.4375 C 293.53528 329.98391 293.54386 329.96797 294.03125 329.71875 C 293.65997 329.95156 293.7155 330.00653 295.21875 329.4375 C 295.23606 329.30054 295.23523 329.21654 295.25 329.09375 C 295.6408 328.88138 295.60512 328.89569 295.25 329.0625 C 295.26452 328.94096 295.26966 328.82802 295.28125 328.71875 C 298.43005 328.71875 306.75241 328.69713 308.5625 327.09375 C 309.37626 326.37293 310.07215 324.21568 310.53125 321.6875 C 310.9803 321.63971 311.53631 321.48899 311.46875 321.21875 C 311.38852 320.89784 310.99476 321.13005 310.59375 321.34375 C 310.60259 321.29196 310.61636 321.23955 310.625 321.1875 C 311.58486 320.63518 312.90625 320.35324 312.90625 319.4375 C 312.90625 319.0407 313.90495 316.5612 313.25 315.90625 C 312.42718 315.08343 311.68531 314.70521 311.0625 314.625 C 311.01601 313.53656 310.9056 312.57681 310.6875 311.84375 C 311.32619 311.59228 311.90551 311.26449 312.3125 310.78125 C 312.41311 310.66179 312.49496 310.58605 312.59375 310.46875 C 317.98754 312.93921 323.52119 314.92745 327.3125 318.71875 C 328.7971 320.20336 334.96614 320.85807 337.5625 322.15625 C 337.97414 322.36207 338.40014 322.5205 338.84375 322.6875 C 338.53219 323.07153 339.31182 323.52991 339.375 323.65625 L 339.75 323 C 340.99063 323.38565 342.31596 323.65798 343.71875 323.84375 C 344.16485 324.42656 344.59384 325.00009 345.0625 325.46875 C 345.40824 325.8145 352.78962 324.00837 354.25 325.46875 C 355.71242 326.93117 361.88735 327.39389 362.40625 326.875 C 362.83126 326.44999 362.84032 325.90436 362.625 325.3125 C 363.74876 325.58646 364.80339 325.93295 365.75 326.40625 C 368.05176 327.55714 371.50155 326.43002 374.5625 326.0625 L 374.375 326.65625 C 374.57197 326.45928 374.73151 326.22532 374.90625 326 C 376.2586 325.86535 377.53448 325.89224 378.5625 326.40625 C 383.33632 328.79316 400.63545 330.58972 415.125 330.53125 C 422.43889 334.97143 432.95156 338.56209 445.3125 335.53125 C 450.30401 334.30735 455.09376 336.73361 458.65625 334.78125 C 459.36058 334.39525 460.32008 334.29527 461.4375 334.375 C 460.89265 334.64448 460.45765 334.87164 460.3125 335 L 462.125 334.46875 C 462.16742 334.47437 462.20718 334.46266 462.25 334.46875 C 456.25159 336.42896 448.43508 339.316 441.90625 342.4375 C 441.46104 342.4375 440.79643 342.46698 440.875 342.78125 C 440.87912 342.79775 440.90044 342.79881 440.90625 342.8125 C 441.14887 342.72015 441.39239 342.62192 441.59375 342.5625 C 441.38535 342.66299 441.1743 342.77406 440.96875 342.875 C 440.95118 342.85804 440.91775 342.83957 440.90625 342.8125 C 439.56188 343.3242 437.76054 344.26707 436.6875 345.15625 C 435.57041 345.80251 434.53907 346.44987 433.625 347.09375 C 433.70396 346.83932 433.76057 346.57217 433.8125 346.3125 C 431.45945 345.8985 425.56471 347.87279 422.15625 351.28125 C 421.30067 352.13683 421.25126 355.34249 420.71875 355.875 C 420.16559 356.42816 420.15903 358.84653 420.71875 359.40625 C 421.07534 359.76284 422.41612 355.54194 424.625 354.4375 C 425.31069 354.09466 426.55645 353.2248 427.09375 352.6875 C 427.42104 352.36021 428.41215 352.69174 429.15625 352.78125 C 429.21363 353.62637 429.71036 354.42636 430.71875 355.15625 C 430.8781 355.27159 433.1643 355.24597 436.5625 355.125 C 436.25129 357.22147 436.41567 359.44142 437.03125 360.34375 C 437.60679 361.1874 438.13103 356.87433 439.6875 355.8125 C 440.09002 355.5379 440.42622 355.23837 440.71875 354.9375 C 443.42274 354.81035 446.31922 354.66835 449.375 354.46875 C 449.24488 355.00308 449.16666 355.49104 449.1875 355.6875 C 449.09909 357.55702 450.18348 355.4532 451.0625 354.34375 C 459.55403 353.75692 467.84342 352.9511 469.34375 352.09375 C 474.69332 349.03679 480.27542 348.3382 485.625 345.28125 C 489.14185 343.27158 490.56766 339.53624 491.21875 335.5625 C 496.70059 330.05119 492.21661 325.57873 485.84375 320.875 C 492.72293 321.77875 500.25885 322.68793 505.875 323.71875 C 506.29878 324.18275 506.77658 324.62967 507 324.40625 C 507.1169 324.28935 507.14463 324.13433 507.09375 323.96875 C 510.54696 324.65503 513.12221 325.37221 513.96875 326.21875 C 514.80402 327.05401 520.49295 328.72579 520.8125 328.40625 C 523.75049 325.46824 517.18231 321.33855 515.6875 319.84375 C 512.26423 316.42048 507.26192 313.86886 502.1875 311.59375 C 502.21731 311.56878 502.25396 311.55854 502.28125 311.53125 C 502.5861 311.22639 507.14996 306.11872 505.90625 304.875 C 505.55525 304.524 505.2161 304.14393 504.875 303.75 C 505.08479 303.49197 505.29492 303.23861 505.5 302.96875 C 505.71272 303.2175 505.99401 303.46576 506.375 303.65625 L 505.59375 302.8125 C 506.60397 301.46676 507.56646 299.96082 508.4375 298.21875 C 509.31219 296.46937 508.17455 292.86206 507.5625 292.25 C 505.71136 290.39887 505.16364 287.25738 503.3125 285.40625 C 501.78562 283.87937 498.33714 284.00254 495.8125 283.09375 C 496.82596 281.84101 497.19999 281.76071 497.4375 279.84375 C 497.67837 277.89952 495.13266 274.63266 493.75 273.25 C 493.4541 272.9541 493.06555 272.58407 492.71875 272.25 C 493.16021 270.89183 493.56562 269.43449 493.9375 267.96875 L 494.75 268.375 C 494.53665 268.16165 494.28847 267.9218 494 267.71875 C 494.2323 266.78306 494.46647 265.85511 494.625 264.9375 C 494.77071 264.0941 494.89138 263.48299 495.6875 261.46875 C 496.56328 259.25296 496.91951 256.87833 497.03125 256.125 C 497.37958 253.77667 498.24444 252.4379 499.03125 250.6875 C 499.40962 249.84575 499.90108 249.02647 500 248 C 500.02202 248.00578 500.04048 248.02546 500.0625 248.03125 C 501.01142 248.70294 501.97366 249.55981 503.0625 249.4375 C 503.39379 249.40029 504.14343 249.54373 505.0625 249.78125 C 506.04155 250.34254 506.72946 250.5282 507.21875 250.40625 C 513.48589 252.36272 524.43411 256.61272 526 257.1875 C 530.49585 258.88507 547.96138 267.26897 551.46875 266.875 C 552.81362 266.72394 554.37388 268.58856 555.71875 268.4375 C 556.91214 268.30345 559.98727 270.4712 560.9375 270.03125 C 561.12578 269.94403 561.47666 269.63947 561.875 270.0625 C 563.58666 271.88021 568.43231 272.09097 569.90625 273.65625 C 571.87117 275.74293 588.15026 280.66089 591.96875 282.0625 C 596.6597 283.78436 614.19162 289.88732 618.5 291.46875 C 620.58246 292.10424 623.26361 292.96055 626.15625 293.84375 C 631.62482 299.54267 637.35521 304.73324 643.25 309.4375 C 646.1696 311.76745 650.8888 313.42225 653.375 316.0625 C 653.68426 316.39093 654.50325 316.26534 654.8125 316.59375 C 656.37634 318.25449 661.71456 321.33853 662.28125 322.5625 C 662.44517 322.91653 664.43685 323.35065 664.84375 323.5 C 668.36374 324.79205 676.88467 329.62133 680.46875 329.21875 C 683.09746 328.92347 689.51152 333.23559 693 332.84375 C 694.27787 332.70022 710.31415 338.38464 710.875 338.125 C 711.82083 336.50803 712.86956 333.20615 713.09375 331.6875 C 713.83074 330.52099 714.07345 328.94651 714.375 328.125 C 714.68026 327.29334 715.25723 326.17541 715.5625 325.34375 C 714.23812 323.94964 713.00162 322.52657 711.53125 320.96875 C 709.28982 318.58844 706.98207 316.33912 704.75 313.96875 C 703.51596 312.65824 701.6239 312.04116 700.4375 310.78125 C 699.53971 309.82784 698.49397 309.19316 697.46875 308.375 C 696.51991 307.61779 695.8052 306.41953 694.96875 305.53125 C 691.89822 302.27046 689.2103 299.80027 687.15625 296.71875 C 687.25706 296.64032 687.33236 296.54594 687.4375 296.46875 C 687.93302 296.10497 688.28683 295.84122 688.59375 295.59375 C 689.3009 296.00094 689.93626 296.48952 690.4375 297.03125 C 690.60727 297.2147 691.33022 296.879 691.5 297.0625 C 693.36956 299.08312 696.28737 301.15499 698.3125 303.34375 C 699.98849 305.15516 701.12827 308.32794 703.375 309.5625 C 703.95616 309.88181 705.62219 309.17141 705.875 308.9375 C 706.36229 308.48663 709.9175 307.95252 711.65625 306.34375 L 715.625 300.78125 C 715.38151 300.88629 715.63451 299.87881 715.96875 298.6875 C 716.4876 298.83156 716.98733 298.94846 717.5 299.0625 C 719.02441 299.40157 720.88313 300.11605 722.46875 300.46875 C 725.33674 301.10668 727.42199 301.82208 728.6875 302.03125 C 730.57525 302.45191 732.83462 302.83879 734.53125 303.21875 C 735.50703 302.44224 737.33465 301.51391 737.59375 300.15625 C 737.22375 299.89594 721.24546 293.9782 720.21875 293.4375 C 719.3263 292.96752 717.94894 292.42271 716.46875 291.875 C 716.33347 291.30234 716.19649 290.73673 716 290.28125 C 715.22297 288.47998 714.01415 287.52143 713.25 285.75 C 712.97246 285.10671 708.41675 286.13302 707.53125 285.78125 C 707.36235 285.71415 704.86767 286.13799 702.71875 286.5625 C 700.27041 285.67894 697.69121 284.79229 695.46875 284.03125 C 697.83469 283.67653 700.32256 283.47455 703.15625 283.15625 C 704.36873 283.02006 705.69286 282.5885 706.90625 282.625 C 708.21732 282.66437 709.4486 282.86493 710.75 282.71875 C 712.46977 282.52558 714.30492 283.29468 716.09375 283.09375 C 719.3293 282.73032 722.53214 282.48995 725.78125 282.125 C 727.91029 281.88839 729.80695 281.61249 731.71875 281.40625 C 732.02402 280.5746 732.28848 279.33165 732.59375 278.5 C 732.89529 277.67849 733.71356 276.30379 733.90625 274.9375 C 734.7178 273.63444 736.08136 270.46989 736.40625 268.625 C 736.14656 268.06418 720.2253 261.99868 719.34375 261.0625 C 716.93718 258.50683 709.25094 257.64456 707.4375 255.71875 C 704.96499 253.09304 695.33249 251.29205 691.8125 250 C 691.4056 249.85064 689.60403 248.89858 689.25 249.0625 C 688.02603 249.62919 681.95439 248.49537 679.6875 248.75 C 679.23921 248.80035 678.72955 248.1996 678.28125 248.25 C 674.67733 248.65481 669.98365 246.83095 666.25 246.71875 C 656.82026 246.43539 647.13834 246.9045 637.21875 248.28125 C 636.30084 247.85149 635.59793 247.52764 635.09375 247.3125 C 635.08666 247.29984 635.06965 247.29391 635.0625 247.28125 C 635.0445 247.28958 634.99364 247.2762 634.96875 247.28125 C 634.81859 247.2182 634.56226 247.09683 634.46875 247.0625 C 634.36051 247.09528 634.29614 247.14546 634.25 247.21875 C 631.18544 246.62669 620.75942 242.4041 619.9375 241.53125 C 619.49957 241.06617 610.42794 238.22428 608.625 237.5625 C 607.27282 237.06616 603.8686 235.41856 601.75 234.84375 C 600.04413 234.38096 594.22108 232.14767 593.0625 231.71875 C 590.26685 230.68456 586.71074 229.14811 585.25 228.78125 C 582.49549 228.08948 580.68099 226.69706 579.375 226.84375 C 576.64655 227.15023 566.58751 221.32777 563.1875 220.875 C 560.24389 219.79452 555.182 219.40294 552.5625 217.3125 C 550.8726 215.96389 547.05435 214.5645 544.90625 214.5 C 542.13235 214.41664 539.43015 211.55215 536.65625 211.46875 C 534.74017 211.41117 528.74126 209.03643 524.9375 207.125 C 525.04461 206.83468 525.1394 206.51772 525.25 206.25 C 523.63429 205.67212 520.77523 204.37614 519.09375 202.75 C 516.91277 202.77787 514.72437 202.32651 512.6875 201.5625 C 510.62775 200.07212 508.46793 200.77792 506.3125 199.625 C 505.24432 199.06527 504.42763 198.88795 503.78125 198.9375 C 499.05765 197.08948 494.35492 195.22146 489.65625 193.375 C 488.17391 191.75018 483.38739 190.71979 481.25 189.96875 C 479.27321 189.27413 477.51475 188.6765 475.84375 188.09375 C 475.31402 187.90177 474.7808 187.72072 474.25 187.53125 C 473.98097 187.4412 473.66681 187.33441 473.40625 187.25 C 472.34346 186.87384 471.28663 186.48968 470.21875 186.125 C 468.37014 185.44644 464.59218 184.73123 461.8125 183.875 C 461.6148 183.38601 461.35653 182.99706 460.96875 182.78125 C 458.8155 181.5829 451.78744 179.06622 448.4375 178.0625 C 448.4375 178.0625 448.35181 178.09252 448.34375 178.09375 C 444.25166 176.61049 426.26692 170.56219 421.625 168.28125 C 419.39965 167.46441 405.21525 161.5341 404.40625 161.625 C 403.21551 161.75875 399.694 160.60684 396.3125 159.375 C 395.92784 159.16792 395.58468 158.99152 395.4375 158.9375 C 394.79776 158.70267 391.96285 157.1798 391.40625 157.4375 C 391.34945 157.4638 382.95457 154.3976 380.4375 153.3125 C 380.37493 153.41715 380.2874 153.61669 380.21875 153.75 C 379.16294 153.40208 377.98612 153.02517 377.09375 152.59375 C 375.90039 152.01682 371.99445 150.57848 367.75 149.0625 C 366.25286 147.0928 362.23011 147.65373 360.625 145.40625 C 358.69136 144.99385 356.55073 143.92628 354.4375 142.84375 L 355 142.625 C 354.70677 142.625 354.44464 142.63803 354.1875 142.6875 C 352.39112 141.76777 350.61866 140.85776 349 140.40625 C 348.31462 140.20378 347.78024 140.48623 347.3125 141.03125 C 344.86439 139.35757 338.31674 137.37333 335.9375 136.5 C 335.34712 136.28329 326.6139 133.0565 326.5625 133.0625 C 324.76675 133.26421 318.90809 131.22347 317.375 130 C 315.25411 128.30745 312.04149 127.42773 309.34375 126.4375 C 308.70991 126.20484 305.92643 124.71345 305.375 124.96875 C 304.88229 125.19688 303.07405 124.77953 302.3125 124.5 C 296.00917 122.1863 288.95852 119.07832 281.75 117.25 C 280.60664 116.83032 274.27176 114.26564 269.65625 112.46875 C 265.54157 108.3369 260.10502 103.13569 257.84375 98.90625 C 256.72136 96.806955 253.5486 95.895887 252.71875 94.34375 C 251.82955 92.680602 247.66249 86.413618 245.34375 85.5625 C 244.11805 85.112597 237.35795 76.035308 236.65625 76.3125 C 232.56971 77.926894 227.97838 78.729282 223.8125 80.375 C 221.5583 81.265517 212.29809 80.84833 208.75 82.25 C 206.86186 82.995908 200.08853 83.732226 194.3125 84.0625 C 192.18183 83.274069 190.12461 82.563823 188.125 81.96875 C 184.56078 80.660467 183.78296 81.027032 180.21875 79.71875 C 179.805 79.56688 176.41553 77.98527 175.84375 78.25 C 175.77274 78.282879 175.76718 78.39463 175.78125 78.5625 C 167.01618 75.179382 158.13932 71.669052 149.09375 68.5625 C 147.67354 68.041197 138.8774 65.609841 138.65625 65.375 C 137.52372 64.172291 129.78217 60.650588 128.0625 60.84375 C 126.44866 61.025028 124.5826 58.787475 122.96875 58.96875 C 121.77699 59.102618 117.69886 57.776968 117.28125 56.875 C 117.23921 56.784204 105.55516 53.402287 102.28125 52.5625 C 102.3112 52.404749 102.34124 52.242655 102.375 52.09375 C 90.486059 47.221631 70.396897 43.482076 56.9375 41.8125 C 53.678334 41.408216 48.521966 40.027428 47.90625 40.3125 C 46.002236 41.194046 40.579457 38.350856 37.625 39.71875 C 36.858833 40.073485 35.071277 39.11922 34.09375 39.125 z M 342.4375 190.90625 C 342.72195 190.99601 343.02556 191.07033 343.3125 191.125 C 345.05942 191.6409 346.78595 192.07709 348.0625 192.53125 C 348.26256 192.62742 348.43739 192.71343 348.625 192.75 C 357.44385 195.97752 366.14197 198.8621 375.03125 202.125 C 379.03067 203.04323 388.02649 208.2792 391.625 207.875 C 394.03031 207.60482 396.75716 210.30776 399.21875 210.03125 C 400.09185 209.93319 408.78754 214.0617 409.40625 214.71875 C 409.73379 215.06659 420.76926 218.24288 422.40625 218.84375 C 424.4926 219.60956 434.66697 223.08706 435.125 222.875 C 441.02366 224.68019 446.33215 227.96743 452.125 230.09375 C 453.96502 230.76915 457.12974 231.28179 458.65625 232.5 C 459.5705 233.2296 460.87472 233.84117 462.5 234.4375 C 464.10247 235.02546 466.02483 235.58115 468.21875 236.3125 C 469.80284 238.82851 477.05563 239.21633 478.625 240.46875 C 479.8286 241.42926 485.68522 243.98779 489 244.84375 C 487.26343 251.11956 485.74618 258.49239 483.59375 264.78125 C 482.71175 263.01682 481.84031 261.27438 481.09375 259.78125 C 479.37209 256.33794 478.95096 250.79471 475.96875 247.8125 C 472.61166 244.45542 469.68649 239.84276 466.5625 236.71875 C 465.45047 235.60673 464.06768 234.95263 462.5 234.4375 C 459.8872 233.57895 456.78833 233.11291 453.75 231.59375 C 442.8429 226.14019 427.74505 220.29742 412.03125 217.65625 C 411.28679 217.35403 410.58376 217.15625 409.875 217.15625 L 410.40625 217.40625 C 405.50213 216.65407 400.54768 216.21875 395.65625 216.21875 C 391.64926 216.21875 370.34342 214.18784 368.3125 216.21875 C 364.90484 219.62641 355.29639 216.39112 351.21875 220.46875 C 350.06793 221.61957 347.40242 221.91963 345.09375 222.46875 L 344.875 221.65625 C 344.73609 221.79516 344.26434 222.35333 343.90625 222.78125 C 343.05034 223.0534 342.33882 223.41118 341.84375 223.90625 C 339.81728 225.93272 336.07103 226.58426 333.46875 227.8125 C 333.53807 226.90306 333.5739 225.98631 333.65625 225.15625 L 334.46875 224.6875 C 334.34094 224.55969 334.04004 224.63043 333.6875 224.75 C 333.78296 223.94089 333.9399 223.2978 334.15625 223.09375 C 335.18062 222.12761 334.67582 220.11851 335.34375 218.875 C 335.3978 218.77437 335.44441 218.6258 335.5 218.5 L 335.875 218.34375 C 335.77001 218.34375 335.66713 218.33932 335.5625 218.34375 C 335.86087 217.62307 336.1729 216.52755 336.5 215.28125 L 337.65625 214.78125 C 337.3145 214.78125 336.96949 214.83567 336.625 214.875 C 336.84074 214.02944 337.06197 213.11631 337.28125 212.15625 L 338 211.96875 C 337.77854 211.96875 337.56389 211.98435 337.34375 212 C 337.612 210.82038 337.86217 209.59041 338.125 208.375 L 339.0625 208.0625 C 338.80587 208.0625 338.49559 208.11585 338.1875 208.15625 C 339.13023 203.79394 339.96901 199.71954 340.5 199.21875 C 340.98306 198.76317 341.53562 193.65979 342.125 192.5625 C 342.14555 192.52424 342.16936 192.47751 342.1875 192.4375 C 342.78439 192.4879 343.37541 192.53125 344 192.53125 L 342.1875 192.40625 C 342.37332 191.98119 342.4253 191.45259 342.4375 190.90625 z M 215.96875 219.875 C 215.97484 219.86453 215.99526 219.94691 216 220 C 215.98356 220.04359 215.95337 220.08115 215.9375 220.125 C 215.95138 219.99794 215.95848 219.89265 215.96875 219.875 z M 319.65625 233.03125 C 319.42882 234.22065 319.30526 235.2734 319.28125 236.09375 C 319.25576 236.96572 318.63238 238.57302 318.09375 239.96875 C 315.77532 243.88606 313.68542 248.48195 312.8125 250.5625 C 309.00104 248.41218 313.80989 242.84941 315.875 237.1875 C 316.17754 236.35793 317.69743 235.64205 318 234.8125 C 318.05721 234.65563 318.83769 233.68315 319.65625 233.03125 z M 491.40625 276.03125 C 491.77107 276.4266 492 276.79025 492 277.09375 C 492 277.34534 493.72496 278.65005 493.25 279.125 C 493.14414 279.23086 492.81828 279.61801 492.25 279.625 C 492.22061 279.58728 492.1762 279.51995 492.15625 279.5 C 491.81893 279.16268 491.50369 277.99939 491.15625 276.71875 C 491.23171 276.51464 491.32489 276.25403 491.40625 276.03125 z "
       id="path4373" />
  </g>
</svg>
