<?xml version="1.0" encoding="UTF-8" standalone="no"?>
<!-- Created with Inkscape (http://www.inkscape.org/) -->

<svg
   xmlns:dc="http://purl.org/dc/elements/1.1/"
   xmlns:cc="http://creativecommons.org/ns#"
   xmlns:rdf="http://www.w3.org/1999/02/22-rdf-syntax-ns#"
   xmlns:svg="http://www.w3.org/2000/svg"
   xmlns="http://www.w3.org/2000/svg"
   xmlns:sodipodi="http://sodipodi.sourceforge.net/DTD/sodipodi-0.dtd"
   xmlns:inkscape="http://www.inkscape.org/namespaces/inkscape"
   width="745.83563"
   height="576.45844"
   id="svg2"
   version="1.1"
   inkscape:version="0.48.1 r9760"
   sodipodi:docname="oak_coffee.svg">
  <defs
     id="defs4" />
  <sodipodi:namedview
     id="base"
     pagecolor="#ffffff"
     bordercolor="#666666"
     borderopacity="1.0"
     inkscape:pageopacity="0.0"
     inkscape:pageshadow="2"
     inkscape:zoom="0.49497475"
     inkscape:cx="673.98243"
     inkscape:cy="181.62426"
     inkscape:document-units="px"
     inkscape:current-layer="layer1"
     showgrid="false"
     inkscape:window-width="1364"
     inkscape:window-height="766"
     inkscape:window-x="0"
     inkscape:window-y="0"
     inkscape:window-maximized="0"
     showguides="true"
     inkscape:guide-bbox="true"
     fit-margin-top="50"
     fit-margin-left="50"
     fit-margin-right="50"
     fit-margin-bottom="50" />
  <metadata
     id="metadata7">
    <rdf:RDF>
      <cc:Work
         rdf:about="">
        <dc:format>image/svg+xml</dc:format>
        <dc:type
           rdf:resource="http://purl.org/dc/dcmitype/StillImage" />
        <dc:title></dc:title>
      </cc:Work>
    </rdf:RDF>
  </metadata>
  <g
     inkscape:label="Layer 1"
     inkscape:groupmode="layer"
     id="layer1"
     transform="translate(-0.07330215,31.031968)">
    <path
       sodipodi:nodetypes="cccc"
       inkscape:connector-curvature="0"
       id="path4562"
       d="m 613.71968,351.09343 c 4.30819,-4.65869 8.26376,-9.01123 11.9202,-13.08431 m 27.82256,-25.25926 c 12.87434,-14.51794 21.52248,-23.05892 34.60744,-29.94571"
       style="fill:none;stroke:#c87137;stroke-width:9;stroke-linecap:round;stroke-linejoin:round;stroke-miterlimit:4;stroke-opacity:1;stroke-dasharray:none" />
    <path
       sodipodi:nodetypes="cccc"
       inkscape:connector-curvature="0"
       id="path4564"
       d="m 604.10724,344.3142 c 4.53545,-4.6613 9.0531,-9.44722 13.56595,-14.26677 m 28.15167,-25.5049 c 13.42755,-13.67958 24.80071,-24.49204 38.90671,-33.42244"
       style="fill:none;stroke:#c87137;stroke-width:9;stroke-linecap:round;stroke-linejoin:round;stroke-miterlimit:4;stroke-opacity:1;stroke-dasharray:none" />
    <path
       sodipodi:nodetypes="cccc"
       inkscape:connector-curvature="0"
       id="path4566"
       d="m 588.87164,327.31485 c 5.08135,-5.10767 8.58329,-8.3829 14.63342,-13.2196 m 25.46895,-25.2788 c 10.44907,-11.54067 23.33807,-24.23503 45.74266,-37.16979"
       style="fill:#ffffff;fill-opacity:0;stroke:#c87137;stroke-width:9;stroke-linecap:round;stroke-linejoin:round;stroke-miterlimit:4;stroke-opacity:1;stroke-dasharray:none" />
    <path
       sodipodi:nodetypes="cccc"
       inkscape:connector-curvature="0"
       id="path4568"
       d="m 594.04103,337.88614 c 5.98916,-5.28397 9.15306,-8.18701 14.11952,-13.14395 m 30.44202,-28.26606 c 14.35778,-15.23582 23.59519,-24.31531 39.4604,-33.55587"
       style="fill:none;stroke:#c87137;stroke-width:9;stroke-linecap:round;stroke-linejoin:round;stroke-miterlimit:4;stroke-opacity:1;stroke-dasharray:none" />
    <path
       inkscape:connector-curvature="0"
       id="path4570"
       d="m 689.18264,362.92341 c -59.22689,-7.75654 -96.5389,-52.4656 -105.70277,-96.85784"
       style="fill:none;stroke:#c87137;stroke-width:9;stroke-linecap:round;stroke-linejoin:round;stroke-miterlimit:4;stroke-opacity:1;stroke-dasharray:none" />
    <path
       inkscape:connector-curvature="0"
       id="path4572"
       d="m 594.53329,267.80507 c 14.29548,47.933 54.11968,81.34502 95.20574,82.98051"
       style="fill:none;stroke:#c87137;stroke-width:9;stroke-linecap:round;stroke-linejoin:round;stroke-miterlimit:4;stroke-opacity:1;stroke-dasharray:none" />
    <path
       inkscape:connector-curvature="0"
       id="path4574"
       d="m 691.40818,338.44252 c -34.69224,1.19945 -68.59619,-26.73085 -84.73432,-68.58649"
       style="fill:none;stroke:#c87137;stroke-width:9;stroke-linecap:round;stroke-linejoin:round;stroke-miterlimit:4;stroke-opacity:1;stroke-dasharray:none" />
    <path
       inkscape:connector-curvature="0"
       id="path4576"
       d="M 688.62626,326.75846 C 663.96721,323.50734 638.2788,313.53957 619.58273,270.46489"
       style="fill:none;stroke:#c87137;stroke-width:9;stroke-linecap:round;stroke-linejoin:round;stroke-miterlimit:4;stroke-opacity:1;stroke-dasharray:none" />
    <path
       inkscape:connector-curvature="0"
       id="path4578"
       d="m 574.07274,220.57317 c -0.17596,-4.98069 -0.17917,-9.96911 -0.008,-14.94201"
       style="fill:none;stroke:#c87137;stroke-width:9;stroke-linecap:round;stroke-linejoin:round;stroke-miterlimit:4;stroke-opacity:1;stroke-dasharray:none" />
    <path
       sodipodi:nodetypes="cc"
       inkscape:connector-curvature="0"
       id="path4580"
       d="m 584.57186,208.79553 c -0.10077,5.95979 0.85036,8.33513 1.40497,14.2308"
       style="fill:none;stroke:#c87137;stroke-width:9;stroke-linecap:round;stroke-linejoin:round;stroke-miterlimit:4;stroke-opacity:1;stroke-dasharray:none" />
    <path
       inkscape:connector-curvature="0"
       id="path4582"
       d="m 596.03213,229.4785 c -0.59838,-6.51697 -0.78967,-13.20521 -0.53298,-20.02811"
       style="fill:none;stroke:#c87137;stroke-width:9;stroke-linecap:round;stroke-linejoin:round;stroke-miterlimit:4;stroke-opacity:1;stroke-dasharray:none" />
    <path
       inkscape:connector-curvature="0"
       id="path4584"
       d="m 606.98023,232.60691 c -0.65288,-6.85858 -0.74718,-14.05762 -0.19646,-21.58707"
       style="fill:none;stroke:#c87137;stroke-width:9;stroke-linecap:round;stroke-linejoin:round;stroke-miterlimit:4;stroke-opacity:1;stroke-dasharray:none" />
    <path
       inkscape:connector-curvature="0"
       id="path4586"
       d="m 602.67466,173.68019 c 3.41933,-12.62025 8.44237,-25.45903 15.29087,-38.31773"
       style="fill:none;stroke:#c87137;stroke-width:9;stroke-linecap:round;stroke-linejoin:round;stroke-miterlimit:4;stroke-opacity:1;stroke-dasharray:none" />
    <path
       inkscape:connector-curvature="0"
       id="path4588"
       d="m 613.82393,173.11666 c 3.65611,-11.29839 8.67892,-23.14906 15.26927,-35.52866"
       style="fill:none;stroke:#c87137;stroke-width:9;stroke-linecap:round;stroke-linejoin:round;stroke-miterlimit:4;stroke-opacity:1;stroke-dasharray:none" />
    <path
       inkscape:connector-curvature="0"
       id="path4590"
       d="m 607.95062,131.46777 c -8.47676,12.81045 -12.45641,26.53427 -16.25743,40.63837"
       style="fill:none;stroke:#c87137;stroke-width:9;stroke-linecap:round;stroke-linejoin:round;stroke-miterlimit:4;stroke-opacity:1;stroke-dasharray:none" />
    <path
       sodipodi:nodetypes="cc"
       inkscape:connector-curvature="0"
       id="path4592"
       d="m 501.22646,156.44192 c 15.27731,-26.38849 21.02842,-42.63913 40.59155,-56.780338"
       style="fill:none;stroke:#c87137;stroke-width:9;stroke-linecap:round;stroke-linejoin:round;stroke-miterlimit:4;stroke-opacity:1;stroke-dasharray:none" />
    <path
       sodipodi:nodetypes="cc"
       inkscape:connector-curvature="0"
       id="path4594"
       d="m 496.89882,142.78905 c 7.8302,-15.99319 24.64031,-46.526558 44.29719,-55.206658"
       style="fill:none;stroke:#c87137;stroke-width:9;stroke-linecap:round;stroke-linejoin:round;stroke-miterlimit:4;stroke-opacity:1;stroke-dasharray:none" />
    <path
       sodipodi:nodetypes="cc"
       inkscape:connector-curvature="0"
       id="path4596"
       d="m 491.50255,129.35949 c 15.46002,-25.82563 26.53479,-41.323278 45.36581,-52.792928"
       style="fill:none;stroke:#c87137;stroke-width:9;stroke-linecap:round;stroke-linejoin:round;stroke-miterlimit:4;stroke-opacity:1;stroke-dasharray:none" />
    <path
       sodipodi:nodetypes="cc"
       inkscape:connector-curvature="0"
       id="path4598"
       d="m 484.87283,120.19911 c 15.48373,-28.301868 28.7882,-41.900098 48.45473,-52.681278"
       style="fill:none;stroke:#c87137;stroke-width:9;stroke-linecap:round;stroke-linejoin:round;stroke-miterlimit:4;stroke-opacity:1;stroke-dasharray:none" />
    <path
       inkscape:connector-curvature="0"
       id="path4600"
       d="m 424.34947,91.123202 c -3.94476,-17.90864 -1.35471,-30.91616 -1.57369,-46.03046"
       style="fill:none;stroke:#c87137;stroke-width:9;stroke-linecap:round;stroke-linejoin:round;stroke-miterlimit:4;stroke-opacity:1;stroke-dasharray:none" />
    <path
       inkscape:connector-curvature="0"
       id="path4602"
       d="m 442.44691,43.125632 c -0.76783,12.83279 -0.14484,25.06161 1.18027,35.80146"
       style="fill:none;stroke:#c87137;stroke-width:9;stroke-linecap:round;stroke-linejoin:round;stroke-miterlimit:4;stroke-opacity:1;stroke-dasharray:none" />
    <path
       inkscape:connector-curvature="0"
       id="path4604"
       d="m 434.57846,84.041592 c -3.85183,-15.77346 -1.95219,-27.23333 -1.96712,-40.12912"
       style="fill:none;stroke:#c87137;stroke-width:9;stroke-linecap:round;stroke-linejoin:round;stroke-miterlimit:4;stroke-opacity:1;stroke-dasharray:none" />
    <path
       inkscape:connector-curvature="0"
       id="path4606"
       d="m 454.19114,73.025752 c -1.44492,-9.96908 -1.8336,-20.06218 -1.18027,-27.93301"
       style="fill:none;stroke:#c87137;stroke-width:9;stroke-linecap:round;stroke-linejoin:round;stroke-miterlimit:4;stroke-opacity:1;stroke-dasharray:none" />
    <path
       sodipodi:nodetypes="cc"
       inkscape:connector-curvature="0"
       id="path4608"
       d="M 411.16239,115.63466 C 442.02509,91.978132 468.7,85.751892 492.80502,53.354622"
       style="fill:none;stroke:#c87137;stroke-width:9;stroke-linecap:round;stroke-linejoin:round;stroke-miterlimit:4;stroke-opacity:1;stroke-dasharray:none" />
    <path
       sodipodi:nodetypes="cc"
       inkscape:connector-curvature="0"
       id="path4610"
       d="m 427.73175,119.3081 c 29.37092,-20.930948 56.2437,-30.551868 74.51541,-58.871868"
       style="fill:none;stroke:#c87137;stroke-width:9;stroke-linecap:round;stroke-linejoin:round;stroke-miterlimit:4;stroke-opacity:1;stroke-dasharray:none" />
    <path
       inkscape:connector-curvature="0"
       id="path4612"
       d="m 501.45624,169.64858 c -4.32121,-22.07514 -11.73581,-42.07219 -26.37105,-65.02682"
       style="fill:none;stroke:#c87137;stroke-width:9;stroke-linecap:round;stroke-linejoin:round;stroke-miterlimit:4;stroke-opacity:1;stroke-dasharray:none" />
    <path
       sodipodi:nodetypes="cc"
       inkscape:connector-curvature="0"
       id="path4614"
       d="M 391.00749,116.54035 C 420.34784,92.397162 457.60074,75.809382 482.96945,49.420392"
       style="fill:none;stroke:#c87137;stroke-width:9;stroke-linecap:round;stroke-linejoin:round;stroke-miterlimit:4;stroke-opacity:1;stroke-dasharray:none" />
    <path
       inkscape:connector-curvature="0"
       id="path4616"
       d="m 376.78624,116.97801 c 23.35585,0.89736 45.52118,1.44345 72.31321,7.22732"
       style="fill:none;stroke:#c87137;stroke-width:8;stroke-linecap:round;stroke-linejoin:round;stroke-miterlimit:4;stroke-opacity:1;stroke-dasharray:none" />
    <path
       sodipodi:nodetypes="cc"
       inkscape:connector-curvature="0"
       id="path4618"
       d="m 237.59588,159.16953 c -20.94042,3.36316 -25.63252,-29.22961 -25.94433,-48.51319"
       style="fill:none;stroke:#c87137;stroke-width:9;stroke-linecap:round;stroke-linejoin:round;stroke-miterlimit:4;stroke-opacity:1;stroke-dasharray:none" />
    <path
       sodipodi:nodetypes="cc"
       inkscape:connector-curvature="0"
       id="path4620"
       d="m 240.06279,152.07738 c -17.77076,-3.68844 -15.20399,-29.73467 -19.1924,-46.19531"
       style="fill:none;stroke:#c87137;stroke-width:9;stroke-linecap:round;stroke-linejoin:round;stroke-miterlimit:4;stroke-opacity:1;stroke-dasharray:none" />
    <path
       sodipodi:nodetypes="cc"
       inkscape:connector-curvature="0"
       id="path4622"
       d="m 231.32267,105.70668 c 4.46134,20.44998 2.46406,33.89353 13.79088,38.6671"
       style="fill:none;stroke:#c87137;stroke-width:9;stroke-linecap:round;stroke-linejoin:round;stroke-miterlimit:4;stroke-opacity:1;stroke-dasharray:none" />
    <path
       sodipodi:nodetypes="cc"
       inkscape:connector-curvature="0"
       id="path4624"
       d="m 240.81802,103.00591 c 3.95751,12.06326 3.28714,22.6089 7.43765,31.41009"
       style="fill:none;stroke:#c87137;stroke-width:9;stroke-linecap:round;stroke-linejoin:round;stroke-miterlimit:4;stroke-opacity:1;stroke-dasharray:none" />
    <path
       sodipodi:nodetypes="cc"
       inkscape:connector-curvature="0"
       id="path4626"
       d="M 74.414025,322.38501 C 69.802953,314.35461 64.21271,310.69208 54.672054,305.3753"
       style="fill:none;stroke:#c87137;stroke-width:9;stroke-linecap:round;stroke-linejoin:round;stroke-miterlimit:4;stroke-opacity:1;stroke-dasharray:none" />
    <path
       sodipodi:nodetypes="cc"
       inkscape:connector-curvature="0"
       id="path4628"
       d="m 83.686686,319.69084 c -3.234694,-11.61079 -9.936713,-15.62802 -20.353071,-23.135"
       style="fill:none;stroke:#c87137;stroke-width:9;stroke-linecap:round;stroke-linejoin:round;stroke-miterlimit:4;stroke-opacity:1;stroke-dasharray:none" />
    <path
       sodipodi:nodetypes="cc"
       inkscape:connector-curvature="0"
       id="path4630"
       d="m 95.065965,319.88886 c -4.830971,-12.8147 -7.964242,-21.9251 -24.651826,-31.04977"
       style="fill:none;stroke:#c87137;stroke-width:9;stroke-linecap:round;stroke-linejoin:round;stroke-miterlimit:4;stroke-opacity:1;stroke-dasharray:none" />
    <path
       sodipodi:nodetypes="cc"
       inkscape:connector-curvature="0"
       id="path4632"
       d="M 106.57841,321.38999 C 101.8432,303.83125 92.118588,288.11452 79.069439,281.83004"
       style="fill:none;stroke:#c87137;stroke-width:9;stroke-linecap:round;stroke-linejoin:round;stroke-miterlimit:4;stroke-opacity:1;stroke-dasharray:none" />
    <path
       sodipodi:nodetypes="cc"
       inkscape:connector-curvature="0"
       id="path4634"
       d="m 134.79035,136.36682 c 12.79467,13.51078 28.19236,29.04403 42.71296,36.46612"
       style="fill:none;stroke:#c87137;stroke-width:9;stroke-linecap:round;stroke-linejoin:round;stroke-miterlimit:4;stroke-opacity:1;stroke-dasharray:none" />
    <path
       sodipodi:nodetypes="cc"
       inkscape:connector-curvature="0"
       id="path4636"
       d="M 445.4133,121.89332 C 473.46052,103.0035 499.34912,89.373192 510.90246,66.730992"
       style="fill:none;stroke:#c87137;stroke-width:9;stroke-linecap:round;stroke-linejoin:round;stroke-miterlimit:4;stroke-opacity:1;stroke-dasharray:none" />
    <path
       inkscape:connector-curvature="0"
       id="path4638"
       d="m 404.56069,137.71353 c 19.02572,2.31046 37.93679,6.58575 57.07901,13.08752"
       style="fill:none;stroke:#c87137;stroke-width:8;stroke-linecap:round;stroke-linejoin:round;stroke-miterlimit:4;stroke-opacity:1;stroke-dasharray:none" />
    <path
       inkscape:connector-curvature="0"
       id="path4640"
       d="m 411.98141,149.46937 c 17.32116,2.33366 34.39102,6.238 51.17352,11.93828"
       style="fill:none;stroke:#c87137;stroke-width:8;stroke-linecap:round;stroke-linejoin:round;stroke-miterlimit:4;stroke-opacity:1;stroke-dasharray:none" />
    <path
       sodipodi:nodetypes="cc"
       inkscape:connector-curvature="0"
       id="path4642"
       d="M 470.53966,177.06879 C 467.17458,158.50284 457.9725,138.19 446.00137,121.94646"
       style="fill:none;stroke:#c87137;stroke-width:9;stroke-linecap:round;stroke-linejoin:round;stroke-miterlimit:4;stroke-opacity:1;stroke-dasharray:none" />
    <path
       inkscape:connector-curvature="0"
       id="path4644"
       d="m 289.91377,124.53708 c 13.72073,-2.65437 26.59421,-4.62038 39.01142,-5.91455"
       style="fill:none;stroke:#c87137;stroke-width:8;stroke-linecap:round;stroke-linejoin:round;stroke-miterlimit:4;stroke-opacity:1;stroke-dasharray:none" />
    <path
       sodipodi:nodetypes="cccc"
       inkscape:connector-curvature="0"
       id="path4646"
       d="m 357.52637,388.55352 c -0.36094,-17.17039 0.48198,-35.53139 -3.17027,-55.65726 M 210.01079,286.1778 c -53.98745,32.26307 -93.03743,3.27185 -133.540808,-34.53401"
       style="fill:none;stroke:#c87137;stroke-width:9;stroke-linecap:round;stroke-linejoin:round;stroke-miterlimit:4;stroke-opacity:1;stroke-dasharray:none" />
    <path
       sodipodi:nodetypes="cccccc"
       inkscape:connector-curvature="0"
       id="path4648"
       d="m 367.18428,489.50093 c 1.34779,-79.92379 4.19294,-124.57894 -0.22645,-156.54468 m -128.0267,-77.42901 c -2.55316,1.45289 -2.11605,1.54992 -4.74912,3.33197 m -29.58286,15.46047 C 160.1544,293.91288 138.9104,295.07244 81.469982,242.35807"
       style="fill:none;stroke:#c87137;stroke-width:9;stroke-linecap:round;stroke-linejoin:round;stroke-miterlimit:4;stroke-opacity:1;stroke-dasharray:none" />
    <path
       sodipodi:nodetypes="csccc"
       inkscape:connector-curvature="0"
       id="path4650"
       d="m 329.32713,490.21523 c -4.694,-4.694 19.36939,-137.58322 -39.43083,-143.71656 -31.05657,-3.23945 -81.18027,37.58271 -130.75622,29.7517 M 119.7678,364.90635 c -14.62077,-7.07965 -34.972118,-8.35362 -53.297818,-3.26256"
       style="fill:none;stroke:#c87137;stroke-width:9;stroke-linecap:round;stroke-linejoin:round;stroke-miterlimit:4;stroke-opacity:1;stroke-dasharray:none" />
    <path
       sodipodi:nodetypes="ccccc"
       inkscape:connector-curvature="0"
       id="path4652"
       d="m 339.32713,488.78663 c -2.26647,-42.38743 12.65461,-137.36476 -40,-150.57141 -43.53858,-14.44093 -75.4008,35.06817 -131.55438,27.56917 m -39.79917,-7.10656 c -14.69884,-8.6751 -36.745598,-14.9413 -66.576157,-7.99663"
       style="fill:none;stroke:#c87137;stroke-width:9;stroke-linecap:round;stroke-linejoin:round;stroke-miterlimit:4;stroke-opacity:1;stroke-dasharray:none" />
    <path
       sodipodi:nodetypes="cccc"
       inkscape:connector-curvature="0"
       id="path4654"
       d="M 243.76844,321.2755 C 219.75266,290.64703 208.32359,250.41888 200.09852,217.80532 m -8.26188,-35.80146 c -6.27375,-21.90053 -13.55154,-43.80107 -20.8514,-65.7016"
       style="fill:none;stroke:#c87137;stroke-width:9;stroke-linecap:round;stroke-linejoin:round;stroke-miterlimit:4;stroke-opacity:1;stroke-dasharray:none" />
    <path
       sodipodi:nodetypes="cccc"
       inkscape:connector-curvature="0"
       id="path4656"
       d="M 254.39086,318.52154 C 228.46017,286.61893 217.97002,247.7988 207.96698,213.47767 m -6.52523,-36.77104 c -4.73772,-22.2884 -12.78072,-45.05147 -20.62094,-66.30571"
       style="fill:none;stroke:#c87137;stroke-width:9;stroke-linecap:round;stroke-linejoin:round;stroke-miterlimit:4;stroke-opacity:1;stroke-dasharray:none" />
    <path
       sodipodi:nodetypes="ccccc"
       inkscape:connector-curvature="0"
       id="path4658"
       d="m 347.89856,490.21523 c 0.71429,-54.52382 9.53449,-126.02346 -30,-157.14287 -57.85015,-33.39696 -97.65602,30.24051 -144.1519,23.49886 m -34.70334,-8.80051 c -30.71436,-12.2445 -49.497808,-14.94632 -81.144766,-8.98406"
       style="fill:none;stroke:#c87137;stroke-width:9;stroke-linecap:round;stroke-linejoin:round;stroke-miterlimit:4;stroke-opacity:1;stroke-dasharray:none" />
    <path
       sodipodi:nodetypes="ccccc"
       inkscape:connector-curvature="0"
       id="path4660"
       d="M 357.89856,490.92953 C 354.32713,409.97712 373.56278,368.06402 325.7557,323.07236 268.79012,285.99659 208.0934,352.90768 178.06299,345.6812 m -32.23735,-8.51728 C 126.5075,327.33265 87.702912,319.37276 56.469982,328.07236"
       style="fill:none;stroke:#c87137;stroke-width:9;stroke-linecap:round;stroke-linejoin:round;stroke-miterlimit:4;stroke-opacity:1;stroke-dasharray:none" />
    <path
       sodipodi:nodetypes="cc"
       inkscape:connector-curvature="0"
       id="path4662"
       d="m 156.03518,311.83335 c -10.83974,47.43118 -42.45271,64.75079 -85.766161,62.94764"
       style="fill:none;stroke:#c87137;stroke-width:9;stroke-linecap:round;stroke-linejoin:round;stroke-miterlimit:4;stroke-opacity:1;stroke-dasharray:none" />
    <path
       sodipodi:nodetypes="cc"
       inkscape:connector-curvature="0"
       id="path4664"
       d="m 166.65759,312.6202 c -11.02144,57.98591 -49.91262,73.58637 -96.388571,73.17662"
       style="fill:none;stroke:#c87137;stroke-width:9;stroke-linecap:round;stroke-linejoin:round;stroke-miterlimit:4;stroke-opacity:1;stroke-dasharray:none" />
    <path
       sodipodi:nodetypes="cc"
       inkscape:connector-curvature="0"
       id="path4666"
       d="m 178.09974,313.1202 c -15.2883,68.6686 -62.64266,92.24234 -107.830721,86.44642"
       style="fill:none;stroke:#c87137;stroke-width:9;stroke-linecap:round;stroke-linejoin:round;stroke-miterlimit:4;stroke-opacity:1;stroke-dasharray:none" />
    <path
       sodipodi:nodetypes="cc"
       inkscape:connector-curvature="0"
       id="path4668"
       d="M 189.08269,309.86623 C 178.2994,372.33398 129.52912,422.79777 70.269019,412.94299"
       style="fill:none;stroke:#c87137;stroke-width:9;stroke-linecap:round;stroke-linejoin:round;stroke-miterlimit:4;stroke-opacity:1;stroke-dasharray:none" />
    <path
       sodipodi:nodetypes="cccc"
       inkscape:connector-curvature="0"
       id="path4670"
       d="M 232.75261,325.99657 C 207.97434,291.39154 200.82115,262.39094 191.0498,222.13297 m -9.44215,-35.80146 c -4.05176,-21.37597 -12.3242,-42.75193 -20.45798,-64.1279"
       style="fill:none;stroke:#c87137;stroke-width:9;stroke-linecap:round;stroke-linejoin:round;stroke-miterlimit:4;stroke-opacity:1;stroke-dasharray:none" />
    <path
       sodipodi:nodetypes="cccc"
       inkscape:connector-curvature="0"
       id="path4672"
       d="M 267.76722,313.01362 C 240.60776,281.5526 225.01406,243.65349 218.58939,207.96976 m -7.7055,-36.72332 c -4.40938,-21.37597 -12.14658,-44.97747 -21.80121,-66.35345"
       style="fill:none;stroke:#c87137;stroke-width:9;stroke-linecap:round;stroke-linejoin:round;stroke-miterlimit:4;stroke-opacity:1;stroke-dasharray:none" />
    <path
       sodipodi:nodetypes="cc"
       inkscape:connector-curvature="0"
       id="path4674"
       d="m 115.00756,164.96976 c 14.53495,15.30011 23.92838,23.52299 37.20505,31.58546"
       style="fill:none;stroke:#c87137;stroke-width:9;stroke-linecap:round;stroke-linejoin:round;stroke-miterlimit:4;stroke-opacity:1;stroke-dasharray:none" />
    <path
       sodipodi:nodetypes="cc"
       inkscape:connector-curvature="0"
       id="path4676"
       d="m 119.05344,153.67742 c 16.87442,15.42045 33.3155,31.81126 47.66789,39.61877"
       style="fill:none;stroke:#c87137;stroke-width:9;stroke-linecap:round;stroke-linejoin:round;stroke-miterlimit:4;stroke-opacity:1;stroke-dasharray:none" />
    <path
       sodipodi:nodetypes="cc"
       inkscape:connector-curvature="0"
       id="path4678"
       d="m 126.52847,142.66159 c 17.39287,20.32438 32.85378,32.87091 51.26188,45.07349"
       style="fill:none;stroke:#c87137;stroke-width:9;stroke-linecap:round;stroke-linejoin:round;stroke-miterlimit:4;stroke-opacity:1;stroke-dasharray:none" />
    <path
       sodipodi:nodetypes="cc"
       inkscape:connector-curvature="0"
       id="path4680"
       d="m 274.69453,167.12279 c 4.78483,-20.90716 26.22884,-52.47565 0.48927,-95.909848"
       style="fill:none;stroke:#c87137;stroke-width:9;stroke-linecap:round;stroke-linejoin:round;stroke-miterlimit:4;stroke-opacity:1;stroke-dasharray:none" />
    <path
       sodipodi:nodetypes="cc"
       inkscape:connector-curvature="0"
       id="path4682"
       d="m 262.49316,163.2365 c 18.08057,-34.77236 16.29383,-59.92225 1.4515,-91.295168"
       style="fill:none;stroke:#c87137;stroke-width:9;stroke-linecap:round;stroke-linejoin:round;stroke-miterlimit:4;stroke-opacity:1;stroke-dasharray:none" />
    <path
       sodipodi:nodetypes="cc"
       inkscape:connector-curvature="0"
       id="path4684"
       d="m 250.30232,161.77445 c 17.40286,-28.78346 19.49959,-53.10411 1.61634,-86.350778"
       style="fill:none;stroke:#c87137;stroke-width:9;stroke-linecap:round;stroke-linejoin:round;stroke-miterlimit:4;stroke-opacity:1;stroke-dasharray:none" />
    <path
       sodipodi:nodetypes="cc"
       inkscape:connector-curvature="0"
       id="path4686"
       d="m 238.72295,160.92914 c 21.94641,-38.03683 15.4807,-54.27821 5.32199,-78.035708"
       style="fill:none;stroke:#c87137;stroke-width:9;stroke-linecap:round;stroke-linejoin:round;stroke-miterlimit:4;stroke-opacity:1;stroke-dasharray:none" />
    <path
       sodipodi:nodetypes="cc"
       inkscape:connector-curvature="0"
       id="path4688"
       d="m 324.19492,68.596402 c 2.61864,-10.91263 4.56322,-22.72402 2.78191,-39.50325"
       style="fill:none;stroke:#c87137;stroke-width:9;stroke-linecap:round;stroke-linejoin:round;stroke-miterlimit:4;stroke-opacity:1;stroke-dasharray:none" />
    <path
       sodipodi:nodetypes="cc"
       inkscape:connector-curvature="0"
       id="path4690"
       d="m 332.08691,76.239852 c 6.98436,-13.79182 8.88365,-29.04142 6.57398,-48.25946"
       style="fill:none;stroke:#c87137;stroke-width:9;stroke-linecap:round;stroke-linejoin:round;stroke-miterlimit:4;stroke-opacity:1;stroke-dasharray:none" />
    <path
       sodipodi:nodetypes="cc"
       inkscape:connector-curvature="0"
       id="path4692"
       d="m 340.88643,89.182602 c 12.61441,-33.57092 10.89083,-46.54676 8.34575,-63.42775"
       style="fill:none;stroke:#c87137;stroke-width:9;stroke-linecap:round;stroke-linejoin:round;stroke-miterlimit:4;stroke-opacity:1;stroke-dasharray:none" />
    <path
       sodipodi:nodetypes="cc"
       inkscape:connector-curvature="0"
       id="path4694"
       d="m 353.03225,87.864602 c 8.5572,-21.05351 10.54544,-44.49569 8.44038,-64.33528"
       style="fill:none;stroke:#c87137;stroke-width:9;stroke-linecap:round;stroke-linejoin:round;stroke-miterlimit:4;stroke-opacity:1;stroke-dasharray:none" />
    <path
       sodipodi:nodetypes="cc"
       inkscape:connector-curvature="0"
       id="path4696"
       d="M 503.19359,164.30511 C 544.53202,144.4673 530.44155,133.0072 559.29345,88.762662"
       style="fill:none;stroke:#c87137;stroke-width:9;stroke-linecap:round;stroke-linejoin:round;stroke-miterlimit:4;stroke-opacity:1;stroke-dasharray:none" />
    <path
       sodipodi:nodetypes="cc"
       inkscape:connector-curvature="0"
       id="path4698"
       d="m 500.49207,253.57051 c 73.46133,-32.69845 80.20982,26.48964 158.33733,-6.65191"
       style="fill:none;stroke:#c87137;stroke-width:9;stroke-linecap:round;stroke-linejoin:round;stroke-miterlimit:4;stroke-opacity:1;stroke-dasharray:none" />
    <path
       sodipodi:nodetypes="cc"
       inkscape:connector-curvature="0"
       id="path4700"
       d="m 497.16329,266.98316 c 82.12912,-39.54342 80.265,35.74129 178.18986,-14.95006"
       style="fill:none;stroke:#c87137;stroke-width:9;stroke-linecap:round;stroke-linejoin:round;stroke-miterlimit:4;stroke-opacity:1;stroke-dasharray:none" />
    <path
       sodipodi:nodetypes="ccc"
       inkscape:connector-curvature="0"
       id="path4702"
       d="m 396.41645,490.84073 c 0.69461,-122.13835 2.05988,-118.24276 57.83315,-168.77839 109.89146,-54.28772 127.74616,70.40774 228.97201,67.27529"
       style="fill:none;stroke:#c87137;stroke-width:9;stroke-linecap:round;stroke-linejoin:round;stroke-miterlimit:4;stroke-opacity:1;stroke-dasharray:none" />
    <path
       sodipodi:nodetypes="cc"
       inkscape:connector-curvature="0"
       id="path4704"
       d="m 468.51599,303.25061 c 111.35285,-41.61 119.1039,79.52997 217.853,74.67776"
       style="fill:none;stroke:#c87137;stroke-width:9;stroke-linecap:round;stroke-linejoin:round;stroke-miterlimit:4;stroke-opacity:1;stroke-dasharray:none" />
    <path
       sodipodi:nodetypes="csc"
       inkscape:connector-curvature="0"
       id="path4706"
       d="m 405.46518,490.84073 c 2.05841,-51.08052 3.59081,-104.12667 11.46053,-113.88507 115.7426,-143.51989 159.65944,40.04695 264.32878,23.39781"
       style="fill:none;stroke:#c87137;stroke-width:9;stroke-linecap:round;stroke-linejoin:round;stroke-miterlimit:4;stroke-opacity:1;stroke-dasharray:none" />
    <path
       sodipodi:nodetypes="ccc"
       inkscape:connector-curvature="0"
       id="path4708"
       d="m 417.111,490.33533 c 3.87039,-76.43033 -7.46881,-108.78413 40.61601,-138.5396 94.95151,-58.50167 117.52364,74.32636 226.44818,62.31498"
       style="fill:none;stroke:#c87137;stroke-width:9;stroke-linecap:round;stroke-linejoin:round;stroke-miterlimit:4;stroke-opacity:1;stroke-dasharray:none" />
    <path
       sodipodi:nodetypes="cc"
       inkscape:connector-curvature="0"
       id="path4710"
       d="m 542.54588,181.54231 c 34.38562,32.50442 74.47283,30.86705 106.68775,20.78343"
       style="fill:none;stroke:#c87137;stroke-width:9;stroke-linecap:round;stroke-linejoin:round;stroke-miterlimit:4;stroke-opacity:1;stroke-dasharray:none" />
    <path
       sodipodi:nodetypes="cc"
       inkscape:connector-curvature="0"
       id="path4712"
       d="m 549.37641,173.24786 c 29.48615,28.45853 66.39497,29.25733 103.08491,17.19659"
       style="fill:none;stroke:#c87137;stroke-width:9;stroke-linecap:round;stroke-linejoin:round;stroke-miterlimit:4;stroke-opacity:1;stroke-dasharray:none" />
    <path
       sodipodi:nodetypes="cc"
       inkscape:connector-curvature="0"
       id="path4714"
       d="m 557.56824,165.35588 c 35.62305,30.14256 62.88195,23.7776 92.66754,14.51728"
       style="fill:none;stroke:#c87137;stroke-width:9;stroke-linecap:round;stroke-linejoin:round;stroke-miterlimit:4;stroke-opacity:1;stroke-dasharray:none" />
    <path
       sodipodi:nodetypes="cc"
       inkscape:connector-curvature="0"
       id="path4716"
       d="m 563.13208,156.40243 c 34.17106,30.14104 57.70279,20.02634 85.43455,13.45582"
       style="fill:none;stroke:#c87137;stroke-width:9;stroke-linecap:round;stroke-linejoin:round;stroke-miterlimit:4;stroke-opacity:1;stroke-dasharray:none" />
    <path
       inkscape:connector-curvature="0"
       id="path4718"
       d="m 581.98081,166.18491 c 4.48232,-13.56995 8.76899,-26.37137 15.95454,-39.1682"
       style="fill:none;stroke:#c87137;stroke-width:9;stroke-linecap:round;stroke-linejoin:round;stroke-miterlimit:4;stroke-opacity:1;stroke-dasharray:none" />
    <path
       sodipodi:nodetypes="cc"
       inkscape:connector-curvature="0"
       id="path4720"
       d="m 470.68881,177.19215 c 82.81814,-30.33736 81.141,74.11735 -10.46788,91.3808"
       style="fill:none;stroke:#c87137;stroke-width:8;stroke-linecap:round;stroke-linejoin:round;stroke-miterlimit:4;stroke-opacity:1;stroke-dasharray:none" />
    <path
       sodipodi:nodetypes="cccsc"
       inkscape:connector-curvature="0"
       id="path4722"
       d="m 449.0128,284.64626 c -9.16512,7.00283 -18.87544,12.19869 -34.19886,15.35713 m -38.53353,3.06267 c -33.81346,-0.20116 -72.71608,-8.32474 -95.77288,-27.09214 -6.06259,-4.93473 -10.47234,-45.06397 -9.78665,-68.60433"
       style="fill:none;stroke:#c87137;stroke-width:8;stroke-linecap:round;stroke-linejoin:round;stroke-miterlimit:4;stroke-opacity:1;stroke-dasharray:none" />
    <path
       sodipodi:nodetypes="ccccc"
       inkscape:connector-curvature="0"
       id="path4724"
       d="m 439.41635,302.32393 c -8.9277,3.44548 -14.65742,5.10056 -25.70454,6.89966 m -37.92996,3.72064 c -40.63458,0.20291 -83.78857,-10.47445 -107.08128,-35.36904 -7.37616,-12.00184 -7.55253,-49.38229 -9.09137,-72.73098"
       style="fill:none;stroke:#c87137;stroke-width:8;stroke-linecap:round;stroke-linejoin:round;stroke-miterlimit:4;stroke-opacity:1;stroke-dasharray:none" />
    <path
       sodipodi:nodetypes="ccccc"
       inkscape:connector-curvature="0"
       id="path4726"
       d="m 427.29452,315.96098 c -4.84097,0.89756 -8.5631,2.19529 -14.10505,2.8428 m -36.40182,3.87145 c -42.27986,-0.0372 -90.74972,-9.74796 -118.1886,-41.05943 -7.78144,-9.15365 -8.02958,-54.67993 -9.59645,-81.31728"
       style="fill:none;stroke:#c87137;stroke-width:8;stroke-linecap:round;stroke-linejoin:round;stroke-miterlimit:4;stroke-opacity:1;stroke-dasharray:none" />
    <path
       sodipodi:nodetypes="ccccc"
       inkscape:connector-curvature="0"
       id="path4728"
       d="m 377.79694,332.63268 c -14.9469,-0.39339 -31.32224,-1.9299 -47.38964,-5.00645 m -49.16417,-16.04796 c -15.4279,-7.98494 -27.91259,-18.6094 -34.76591,-32.48786 -6.13743,-13.28499 -6.54552,-51.98189 -7.57615,-78.79189"
       style="fill:none;stroke:#c87137;stroke-width:8;stroke-linecap:round;stroke-linejoin:round;stroke-miterlimit:4;stroke-opacity:1;stroke-dasharray:none" />
    <path
       sodipodi:nodetypes="cccccc"
       inkscape:connector-curvature="0"
       id="path4730"
       d="m 375.7557,490.21523 c 1.75962,-86.58302 5.95846,-125.02878 2.27503,-157.16632 M 239.60307,240.17504 c -4.03473,1.65337 -6.11987,4.07242 -10.29467,6.25893 m -28.33501,17.20755 c -42.98161,24.73171 -74.65059,3.53327 -110.931978,-29.14059"
       style="fill:none;stroke:#c87137;stroke-width:9;stroke-linecap:round;stroke-linejoin:round;stroke-miterlimit:4;stroke-opacity:1;stroke-dasharray:none" />
    <path
       sodipodi:nodetypes="ccccc"
       inkscape:connector-curvature="0"
       id="path4732"
       d="m 344.7557,346.28665 c -1.01201,-5.3085 -1.79481,-8.58204 -3.43668,-14.54918 M 214.55111,298.1304 c -14.55778,8.34551 -20.87353,13.70058 -44.36457,14.40342 -32.07796,0.73069 -71.335515,-21.44592 -99.430844,-51.60432"
       style="fill:none;stroke:#c87137;stroke-width:9;stroke-linecap:round;stroke-linejoin:round;stroke-miterlimit:4;stroke-opacity:1;stroke-dasharray:none" />
    <path
       inkscape:connector-curvature="0"
       id="path4734"
       d="m 280.31732,157.36703 c 9.8135,-2.15332 19.58038,-4.0153 29.29513,-5.55143"
       style="fill:none;stroke:#c87137;stroke-width:8;stroke-linecap:round;stroke-linejoin:round;stroke-miterlimit:4;stroke-opacity:1;stroke-dasharray:none" />
    <path
       inkscape:connector-curvature="0"
       id="path4736"
       d="m 352.01154,147.26798 c 4.90951,-0.26003 9.8031,-0.42056 14.68002,-0.4769"
       style="fill:none;stroke:#c87137;stroke-width:8;stroke-linecap:round;stroke-linejoin:round;stroke-miterlimit:4;stroke-opacity:1;stroke-dasharray:none" />
    <path
       sodipodi:nodetypes="cccc"
       inkscape:connector-curvature="0"
       id="path4738"
       d="m 412.35209,330.05346 c -0.62981,-11.12695 0.17251,-17.88033 0.59146,-29.7614 M 274.31447,169.88045 c -73.97198,-28.64605 -91.95383,56.46412 -157.24822,18.08193"
       style="fill:none;stroke:#c87137;stroke-width:9;stroke-linecap:round;stroke-linejoin:round;stroke-miterlimit:4;stroke-opacity:1;stroke-dasharray:none" />
    <path
       inkscape:connector-curvature="0"
       id="path4740"
       d="m 401.27572,341.23244 c -1.38338,-12.99191 -0.57061,-23.25398 0.13342,-38.9142"
       style="fill:none;stroke:#c87137;stroke-width:9;stroke-linecap:round;stroke-linejoin:round;stroke-miterlimit:4;stroke-opacity:1;stroke-dasharray:none" />
    <path
       inkscape:connector-curvature="0"
       id="path4742"
       d="m 272.31201,181.45766 c -70.23967,-28.51408 -80.83716,56.62503 -161.76846,16.82747"
       style="fill:none;stroke:#c87137;stroke-width:9;stroke-linecap:round;stroke-linejoin:round;stroke-miterlimit:4;stroke-opacity:1;stroke-dasharray:none" />
    <path
       sodipodi:nodetypes="cccc"
       inkscape:connector-curvature="0"
       id="path4744"
       d="m 390.19934,358.17249 c -1.30553,-19.05545 -0.81196,-37.46443 -0.45363,-54.33701 M 272.27896,194.18733 C 202.80508,163.02879 190.48008,255.167 104.97971,207.13596"
       style="fill:none;stroke:#c87137;stroke-width:9;stroke-linecap:round;stroke-linejoin:round;stroke-miterlimit:4;stroke-opacity:1;stroke-dasharray:none" />
    <path
       sodipodi:nodetypes="cccccc"
       inkscape:connector-curvature="0"
       id="path4746"
       d="m 378.01021,333.26515 c -0.30522,-6.20378 0.24438,-22.82867 0.35182,-29.42502 m -107.944,-98.36616 c -17.21963,-8.28074 -31.54064,-10.01844 -51.93602,1.66199 l -27.81919,15.57875 c -31.15749,19.29919 -66.20967,8.66921 -93.472475,-6.67661"
       style="fill:none;stroke:#c87137;stroke-width:9;stroke-linecap:round;stroke-linejoin:round;stroke-miterlimit:4;stroke-opacity:1;stroke-dasharray:none" />
    <path
       inkscape:connector-curvature="0"
       id="path4748"
       d="m 284.35793,145.75028 c 10.67067,-2.34141 21.12878,-4.30973 31.42023,-5.87023"
       style="fill:none;stroke:#c87137;stroke-width:8;stroke-linecap:round;stroke-linejoin:round;stroke-miterlimit:4;stroke-opacity:1;stroke-dasharray:none" />
    <path
       sodipodi:nodetypes="cccc"
       inkscape:connector-curvature="0"
       id="path4750"
       d="m 287.38839,135.14368 c 11.67849,-2.25929 23.12121,-4.13925 34.40733,-5.57111 m 74.15427,-1.86475 c 22.97125,1.06058 35.65836,3.81211 60.13387,10.9714"
       style="fill:none;stroke:#c87137;stroke-width:8;stroke-linecap:round;stroke-linejoin:round;stroke-miterlimit:4;stroke-opacity:1;stroke-dasharray:none" />
    <path
       style="fill:none;stroke:#c87137;stroke-width:8;stroke-linecap:round;stroke-linejoin:round;stroke-miterlimit:4;stroke-opacity:1;stroke-dasharray:none"
       d="m 473.9031,193.97786 c 49.961,-19.62307 57.21242,30.90307 -5.11074,51.73795"
       id="path4752"
       inkscape:connector-curvature="0"
       sodipodi:nodetypes="cc" />
    <path
       inkscape:connector-curvature="0"
       id="path4754"
       d="m 379.49928,379.89548 c 15.0141,-40.6949 57.3524,-59.11222 80.16164,-110.32176"
       style="fill:none;stroke:#c87137;stroke-width:9;stroke-linecap:round;stroke-linejoin:round;stroke-miterlimit:4;stroke-opacity:1;stroke-dasharray:none" />
    <path
       inkscape:connector-curvature="0"
       id="path4756"
       d="m 468.279,244.38683 c 1.25857,-4.69152 2.35956,-9.60993 3.28119,-14.77882 1.31884,-11.8437 2.12406,-22.98932 1.46568,-34.13143"
       style="fill:none;stroke:#c87137;stroke-width:9;stroke-linecap:round;stroke-linejoin:round;stroke-miterlimit:4;stroke-opacity:1;stroke-dasharray:none" />
    <path
       inkscape:connector-curvature="0"
       id="path4758"
       d="m 468.28007,113.55358 c 8.34235,12.38948 16.87654,33.68894 21.91651,57.13049"
       style="fill:none;stroke:#c87137;stroke-width:9;stroke-linecap:round;stroke-linejoin:round;stroke-miterlimit:4;stroke-opacity:1;stroke-dasharray:none" />
    <path
       inkscape:connector-curvature="0"
       id="path4760"
       d="m 493.45853,190.14374 c 2.47442,14.49391 1.74719,28.54748 -0.19602,40.9653"
       style="fill:none;stroke:#c87137;stroke-width:9;stroke-linecap:round;stroke-linejoin:round;stroke-miterlimit:4;stroke-opacity:1;stroke-dasharray:none" />
    <path
       inkscape:connector-curvature="0"
       id="path4762"
       d="m 486.24585,262.54795 c -6.48065,20.70848 -16.13508,36.32241 -32.38968,59.90781"
       style="fill:none;stroke:#c87137;stroke-width:9;stroke-linecap:round;stroke-linejoin:round;stroke-miterlimit:4;stroke-opacity:1;stroke-dasharray:none" />
    <path
       inkscape:connector-curvature="0"
       id="path4764"
       d="m 386.18747,490.84073 c -0.0104,-39.615 2.37011,-96.15755 6.5816,-114.60055 19.35069,-40.66011 58.54829,-52.51367 78.86686,-109.32354"
       style="fill:none;stroke:#c87137;stroke-width:9;stroke-linecap:round;stroke-linejoin:round;stroke-miterlimit:4;stroke-opacity:1;stroke-dasharray:none" />
    <path
       inkscape:connector-curvature="0"
       id="path4766"
       d="m 480.46491,240.67354 c 1.57156,-7.6158 2.81917,-15.863 3.68481,-24.83533 0.33494,-6.42559 0.10687,-14.37861 -0.77306,-23.05478"
       style="fill:none;stroke:#c87137;stroke-width:9;stroke-linecap:round;stroke-linejoin:round;stroke-miterlimit:4;stroke-opacity:1;stroke-dasharray:none" />
    <path
       inkscape:connector-curvature="0"
       id="path4768"
       d="m 480.40142,173.08065 c -3.86809,-19.22341 -10.79519,-39.04507 -21.56538,-52.3662"
       style="fill:none;stroke:#c87137;stroke-width:9;stroke-linecap:round;stroke-linejoin:round;stroke-miterlimit:4;stroke-opacity:1;stroke-dasharray:none" />
    <path
       inkscape:connector-curvature="0"
       id="path4770"
       d="m 482.74087,297.22351 c 4.39212,-11.80924 11.52468,-23.81726 17.03357,-41.27171"
       style="fill:none;stroke:#c87137;stroke-width:9;stroke-linecap:round;stroke-linejoin:round;stroke-miterlimit:4;stroke-opacity:1;stroke-dasharray:none" />
    <path
       inkscape:connector-curvature="0"
       id="path4772"
       d="m 505.59291,221.92007 c 1.15066,-10.07331 0.60294,-18.8831 -0.34779,-28.53505"
       style="fill:none;stroke:#c87137;stroke-width:9;stroke-linecap:round;stroke-linejoin:round;stroke-miterlimit:4;stroke-opacity:1;stroke-dasharray:none" />
    <path
       sodipodi:nodetypes="cc"
       inkscape:connector-curvature="0"
       id="path4774"
       d="m 527.91859,220.38637 c 50.64942,-13.73971 68.1076,29.30154 125.00947,6.46768"
       style="fill:none;stroke:#c87137;stroke-width:9;stroke-linecap:round;stroke-linejoin:round;stroke-miterlimit:4;stroke-opacity:1;stroke-dasharray:none" />
    <path
       sodipodi:nodetypes="cc"
       inkscape:connector-curvature="0"
       id="path4776"
       d="m 519.0126,236.02444 c 65.38104,-21.49841 65.84285,31.679 137.84969,-0.51509"
       style="fill:none;stroke:#c87137;stroke-width:9;stroke-linecap:round;stroke-linejoin:round;stroke-miterlimit:4;stroke-opacity:1;stroke-dasharray:none" />
    <path
       sodipodi:nodetypes="cc"
       inkscape:connector-curvature="0"
       id="path4778"
       d="m 528.47584,187.71694 c 30.74156,-15.13259 36.88752,-42.25384 58.3572,-82.03709"
       style="fill:none;stroke:#c87137;stroke-width:9;stroke-linecap:round;stroke-linejoin:round;stroke-miterlimit:4;stroke-opacity:1;stroke-dasharray:none" />
    <path
       sodipodi:nodetypes="cc"
       inkscape:connector-curvature="0"
       id="path4780"
       d="m 522.1761,178.70698 c 35.643,-17.34266 30.92032,-46.21855 56.78849,-82.075858"
       style="fill:none;stroke:#c87137;stroke-width:9;stroke-linecap:round;stroke-linejoin:round;stroke-miterlimit:4;stroke-opacity:1;stroke-dasharray:none" />
    <path
       sodipodi:nodetypes="cc"
       inkscape:connector-curvature="0"
       id="path4782"
       d="m 513.24903,171.55321 c 39.33598,-19.5207 30.09578,-43.26562 56.27342,-78.856318"
       style="fill:none;stroke:#c87137;stroke-width:9;stroke-linecap:round;stroke-linejoin:round;stroke-miterlimit:4;stroke-opacity:1;stroke-dasharray:none" />
    <path
       sodipodi:nodetypes="cccc"
       inkscape:connector-curvature="0"
       id="path4784"
       d="m 368.15138,146.02622 c -2.08852,-1.48224 -5.46914,-1.97537 -8.15867,-3.51739 M 327.53322,118.67095 C 301.74404,101.44357 290.7122,76.573762 283.57891,56.355962"
       style="fill:none;stroke:#c87137;stroke-width:9;stroke-linecap:round;stroke-linejoin:round;stroke-miterlimit:4;stroke-opacity:1;stroke-dasharray:none" />
    <path
       sodipodi:nodetypes="cccc"
       inkscape:connector-curvature="0"
       id="path4786"
       d="m 380.69424,144.3891 c -3.44236,-3.64623 -7.72263,-6.99247 -13.01477,-9.82357 m -32.35688,-23.68395 c -19.973,-10.64455 -33.35842,-35.499128 -44.5107,-62.314998"
       style="fill:none;stroke:#c87137;stroke-width:9;stroke-linecap:round;stroke-linejoin:round;stroke-miterlimit:4;stroke-opacity:1;stroke-dasharray:none" />
    <path
       sodipodi:nodetypes="cccc"
       inkscape:connector-curvature="0"
       id="path4788"
       d="m 395.62394,145.81011 c -4.74377,-6.97095 -11.71878,-13.51013 -21.77295,-19.59033 m -32.40818,-22.5712 C 325.37895,91.379782 310.42605,72.996202 300.27041,43.002752"
       style="fill:none;stroke:#c87137;stroke-width:9;stroke-linecap:round;stroke-linejoin:round;stroke-miterlimit:4;stroke-opacity:1;stroke-dasharray:none" />
    <path
       sodipodi:nodetypes="cc"
       inkscape:connector-curvature="0"
       id="path4790"
       d="M 323.47435,150.89584 C 345.93636,97.456032 390.18163,90.134932 390.96096,26.867622"
       style="fill:none;stroke:#c87137;stroke-width:9;stroke-linecap:round;stroke-linejoin:round;stroke-miterlimit:4;stroke-opacity:1;stroke-dasharray:none" />
    <path
       sodipodi:nodetypes="cc"
       inkscape:connector-curvature="0"
       id="path4792"
       d="m 336.99074,149.33887 c 22.9258,-45.31055 61.84137,-55.267638 66.76705,-123.584018"
       style="fill:none;stroke:#c87137;stroke-width:9;stroke-linecap:round;stroke-linejoin:round;stroke-miterlimit:4;stroke-opacity:1;stroke-dasharray:none" />
    <path
       sodipodi:nodetypes="cccc"
       inkscape:connector-curvature="0"
       id="path4794"
       d="m 410.71082,148.80143 c -5.40808,-12.21395 -15.15194,-21.77327 -32.40876,-31.5351 M 348.11941,96.415592 c -18.59438,-16.68347 -28.64716,-31.68445 -37.48293,-55.88692"
       style="fill:none;stroke:#c87137;stroke-width:9;stroke-linecap:round;stroke-linejoin:round;stroke-miterlimit:4;stroke-opacity:1;stroke-dasharray:none" />
    <path
       sodipodi:nodetypes="cc"
       inkscape:connector-curvature="0"
       id="path4796"
       d="m 352.0655,147.48254 c 19.66957,-35.1239 55.31663,-45.42253 63.37635,-119.502148"
       style="fill:none;stroke:#c87137;stroke-width:9;stroke-linecap:round;stroke-linejoin:round;stroke-miterlimit:4;stroke-opacity:1;stroke-dasharray:none" />
    <path
       sodipodi:nodetypes="cc"
       inkscape:connector-curvature="0"
       id="path4798"
       d="M 309.89846,151.41566 C 330.48196,97.539222 375.66649,92.428692 379.83329,25.198472"
       style="fill:none;stroke:#c87137;stroke-width:9;stroke-linecap:round;stroke-linejoin:round;stroke-miterlimit:4;stroke-opacity:1;stroke-dasharray:none" />
  </g>
</svg>
