<?xml version="1.0" encoding="UTF-8" standalone="no"?>
<!-- Created with Inkscape (http://www.inkscape.org/) -->

<svg
   xmlns:dc="http://purl.org/dc/elements/1.1/"
   xmlns:cc="http://creativecommons.org/ns#"
   xmlns:rdf="http://www.w3.org/1999/02/22-rdf-syntax-ns#"
   xmlns:svg="http://www.w3.org/2000/svg"
   xmlns="http://www.w3.org/2000/svg"
   xmlns:sodipodi="http://sodipodi.sourceforge.net/DTD/sodipodi-0.dtd"
   xmlns:inkscape="http://www.inkscape.org/namespaces/inkscape"
   width="650"
   height="490"
   id="svg2"
   version="1.1"
   inkscape:version="0.48.1 r9760"
   sodipodi:docname="oakland.svg"
   inkscape:export-filename="/home/substack/media/vector/oakland.png"
   inkscape:export-xdpi="99.969231"
   inkscape:export-ydpi="99.969231">
  <defs
     id="defs4" />
  <sodipodi:namedview
     id="base"
     pagecolor="#ffffff"
     bordercolor="#666666"
     borderopacity="1.0"
     inkscape:pageopacity="0.0"
     inkscape:pageshadow="2"
     inkscape:zoom="2"
     inkscape:cx="200.50212"
     inkscape:cy="136.78411"
     inkscape:document-units="px"
     inkscape:current-layer="layer1"
     showgrid="false"
     inkscape:window-width="1364"
     inkscape:window-height="766"
     inkscape:window-x="0"
     inkscape:window-y="0"
     inkscape:window-maximized="0" />
  <metadata
     id="metadata7">
    <rdf:RDF>
      <cc:Work
         rdf:about="">
        <dc:format>image/svg+xml</dc:format>
        <dc:type
           rdf:resource="http://purl.org/dc/dcmitype/StillImage" />
        <dc:title></dc:title>
      </cc:Work>
    </rdf:RDF>
  </metadata>
  <g
     inkscape:label="Layer 1"
     inkscape:groupmode="layer"
     id="layer1"
     transform="translate(0,-562.36218)">
    <path
       style="fill:none;stroke:#4d4d4d;stroke-width:9;stroke-linecap:round;stroke-linejoin:round;stroke-miterlimit:4;stroke-opacity:1;stroke-dasharray:none"
       d="m 280.33769,1038.6072 c -4.694,-4.694 19.36939,-137.58322 -39.43083,-143.71656 -31.05657,-3.23945 -81.18027,37.58271 -130.75622,29.7517 M 70.778354,913.29832 C 56.157583,906.21867 35.806233,904.9447 17.480533,910.03576"
       id="path3018"
       inkscape:connector-curvature="0"
       sodipodi:nodetypes="csccc" />
    <path
       style="fill:none;stroke:#4d4d4d;stroke-width:9;stroke-linecap:round;stroke-linejoin:round;stroke-miterlimit:4;stroke-opacity:1;stroke-dasharray:none"
       d="m 290.33769,1037.1786 c -2.26647,-42.38743 12.65461,-137.36476 -40,-150.57141 -43.53858,-14.44093 -75.4008,35.06817 -131.55438,27.56917 M 78.984134,907.0698 c -14.698837,-8.6751 -36.745601,-14.9413 -66.57616,-7.99663"
       id="path3046"
       inkscape:connector-curvature="0"
       sodipodi:nodetypes="ccccc" />
    <path
       style="fill:none;stroke:#4d4d4d;stroke-width:9;stroke-linecap:round;stroke-linejoin:round;stroke-miterlimit:4;stroke-opacity:1;stroke-dasharray:none"
       d="m 298.90912,1038.6072 c 0.71429,-54.52382 9.53449,-126.02346 -30,-157.14287 -57.85015,-33.39696 -97.65602,30.24051 -144.1519,23.49886 M 90.053874,896.16268 C 59.339517,883.91818 40.556063,881.21636 8.9091055,887.17862"
       id="path3048"
       inkscape:connector-curvature="0"
       sodipodi:nodetypes="ccccc" />
    <path
       style="fill:none;stroke:#4d4d4d;stroke-width:9;stroke-linecap:round;stroke-linejoin:round;stroke-miterlimit:4;stroke-opacity:1;stroke-dasharray:none"
       d="m 308.90912,1039.3215 c -3.57143,-80.95241 15.66422,-122.86551 -32.14286,-167.85717 -56.96558,-37.07577 -117.6623,29.83532 -147.69271,22.60884 M 96.836197,885.55589 C 77.518054,875.72462 38.713463,867.76473 7.4805335,876.46433"
       id="path3069"
       inkscape:connector-curvature="0"
       sodipodi:nodetypes="ccccc" />
    <path
       style="fill:none;stroke:#4d4d4d;stroke-width:9;stroke-linecap:round;stroke-linejoin:round;stroke-miterlimit:4;stroke-opacity:1;stroke-dasharray:none"
       d="m 295.76626,894.67862 c -6.06389,-31.80803 -22.032,-81.22399 -64.71428,-78.92858 -10.91898,0.82436 -24.63567,5.54587 -35.27851,12.18638 m -30.2118,18.58595 c -14.55778,8.34551 -20.87353,13.70058 -44.36457,14.40342 -32.077966,0.73069 -71.335527,-21.44592 -99.430853,-51.60432"
       id="path3071"
       inkscape:connector-curvature="0"
       sodipodi:nodetypes="cccccc" />
    <path
       style="fill:none;stroke:#4d4d4d;stroke-width:9;stroke-linecap:round;stroke-linejoin:round;stroke-miterlimit:4;stroke-opacity:1;stroke-dasharray:none"
       d="m 308.53693,936.94549 c -0.82084,-39.04888 1.9722,-94.70453 -46.77066,-126.19545 -23.9831,-12.58212 -43.68453,-10.06401 -71.6161,7.24854 m -29.12882,16.57119 C 107.0339,866.83284 67.983912,837.84162 27.480533,800.03576"
       id="path3073"
       inkscape:connector-curvature="0"
       sodipodi:nodetypes="ccccc" />
    <path
       style="fill:none;stroke:#4d4d4d;stroke-width:9;stroke-linecap:round;stroke-linejoin:round;stroke-miterlimit:4;stroke-opacity:1;stroke-dasharray:none"
       d="m 318.19484,1037.8929 c 2.38095,-141.19048 9.4348,-172.31642 -27.14286,-217.85714 -17.4433,-17.02947 -53.92434,-47.93395 -105.85941,-12.78458 m -29.58286,15.46047 c -44.44475,19.5932 -65.688756,20.75276 -123.129177,-31.96161"
       id="path3075"
       inkscape:connector-curvature="0"
       sodipodi:nodetypes="ccccc" />
    <path
       style="fill:none;stroke:#4d4d4d;stroke-width:9;stroke-linecap:round;stroke-linejoin:round;stroke-miterlimit:4;stroke-opacity:1;stroke-dasharray:none"
       d="m 326.76626,1038.6072 c 2.29818,-113.08283 8.75716,-144.05317 -3.61805,-186.1011 -26.20179,-57.02932 -76.69036,-97.63511 -142.82925,-57.68016 m -28.33501,17.20755 C 109.00234,836.7652 77.333354,815.56676 41.051963,782.8929"
       id="path3077"
       inkscape:connector-curvature="0"
       sodipodi:nodetypes="ccccc" />
    <path
       style="fill:none;stroke:#4d4d4d;stroke-width:9;stroke-linecap:round;stroke-linejoin:round;stroke-miterlimit:4;stroke-opacity:1;stroke-dasharray:none"
       d="M 30.424576,872.20555 C 25.813504,864.17515 18.79469,857.65548 9.2540345,852.3387"
       id="path3847"
       inkscape:connector-curvature="0"
       sodipodi:nodetypes="cc" />
    <path
       style="fill:none;stroke:#4d4d4d;stroke-width:9;stroke-linecap:round;stroke-linejoin:round;stroke-miterlimit:4;stroke-opacity:1;stroke-dasharray:none"
       d="M 40.411523,872.36852 C 37.176829,860.75773 26.903381,853.16908 16.487023,845.6621"
       id="path3849"
       inkscape:connector-curvature="0"
       sodipodi:nodetypes="cc" />
    <path
       style="fill:none;stroke:#4d4d4d;stroke-width:9;stroke-linecap:round;stroke-linejoin:round;stroke-miterlimit:4;stroke-opacity:1;stroke-dasharray:none"
       d="M 53.933653,873.99512 C 47.674113,859.03756 35.255131,849.21287 22.853261,839.37392"
       id="path3851"
       inkscape:connector-curvature="0"
       sodipodi:nodetypes="cc" />
    <path
       style="fill:none;stroke:#4d4d4d;stroke-width:9;stroke-linecap:round;stroke-linejoin:round;stroke-miterlimit:4;stroke-opacity:1;stroke-dasharray:none"
       d="M 62.588967,874.78196 C 57.853757,857.22322 45.271993,844.36363 31.508561,833.07915"
       id="path3853"
       inkscape:connector-curvature="0"
       sodipodi:nodetypes="cc" />
    <path
       style="fill:none;stroke:#4d4d4d;stroke-width:9;stroke-linecap:round;stroke-linejoin:round;stroke-miterlimit:4;stroke-opacity:1;stroke-dasharray:none"
       d="M 107.04574,860.22532 C 96.205997,907.6565 64.593027,924.97611 21.27957,923.17296"
       id="path3855"
       inkscape:connector-curvature="0"
       sodipodi:nodetypes="cc" />
    <path
       style="fill:none;stroke:#4d4d4d;stroke-width:9;stroke-linecap:round;stroke-linejoin:round;stroke-miterlimit:4;stroke-opacity:1;stroke-dasharray:none"
       d="m 117.66815,861.01217 c -11.02144,57.98591 -49.912628,73.58637 -96.38858,73.17662"
       id="path3857"
       inkscape:connector-curvature="0"
       sodipodi:nodetypes="cc" />
    <path
       style="fill:none;stroke:#4d4d4d;stroke-width:9;stroke-linecap:round;stroke-linejoin:round;stroke-miterlimit:4;stroke-opacity:1;stroke-dasharray:none"
       d="M 129.1103,861.51217 C 113.822,930.18077 66.467631,953.75451 21.27957,947.95859"
       id="path3859"
       inkscape:connector-curvature="0"
       sodipodi:nodetypes="cc" />
    <path
       style="fill:none;stroke:#4d4d4d;stroke-width:9;stroke-linecap:round;stroke-linejoin:round;stroke-miterlimit:4;stroke-opacity:1;stroke-dasharray:none"
       d="M 140.09325,858.2582 C 129.30996,920.72595 80.539674,971.18974 21.27957,961.33496"
       id="path3861"
       inkscape:connector-curvature="0"
       sodipodi:nodetypes="cc" />
    <path
       style="fill:none;stroke:#4d4d4d;stroke-width:9;stroke-linecap:round;stroke-linejoin:round;stroke-miterlimit:4;stroke-opacity:1;stroke-dasharray:none"
       d="M 183.76317,874.38854 C 158.9849,839.78351 151.83171,810.78291 142.06036,770.52494 m -9.44215,-35.80146 c -4.05176,-21.37597 -12.3242,-42.75193 -20.45798,-64.1279"
       id="path3863"
       inkscape:connector-curvature="0"
       sodipodi:nodetypes="cccc" />
    <path
       style="fill:none;stroke:#4d4d4d;stroke-width:9;stroke-linecap:round;stroke-linejoin:round;stroke-miterlimit:4;stroke-opacity:1;stroke-dasharray:none"
       d="M 194.779,869.66747 C 170.76322,839.039 159.33415,798.81085 151.10908,766.19729 m -8.26188,-35.80146 c -6.27375,-21.90053 -13.55154,-43.80107 -20.8514,-65.7016"
       id="path3865"
       inkscape:connector-curvature="0"
       sodipodi:nodetypes="cccc" />
    <path
       style="fill:none;stroke:#4d4d4d;stroke-width:9;stroke-linecap:round;stroke-linejoin:round;stroke-miterlimit:4;stroke-opacity:1;stroke-dasharray:none"
       d="M 205.40142,866.91351 C 179.47073,835.0109 168.98058,796.19077 158.97754,761.86964 m -6.52523,-36.77104 c -4.73772,-22.2884 -12.78072,-45.05147 -20.62094,-66.30571"
       id="path3867"
       inkscape:connector-curvature="0"
       sodipodi:nodetypes="cccc" />
    <path
       style="fill:none;stroke:#4d4d4d;stroke-width:9;stroke-linecap:round;stroke-linejoin:round;stroke-miterlimit:4;stroke-opacity:1;stroke-dasharray:none"
       d="M 218.77778,861.40559 C 191.61832,829.94457 176.02462,792.04546 169.59995,756.36173 m -7.7055,-36.72332 c -4.40938,-21.37597 -12.14658,-44.97747 -21.80121,-66.35344"
       id="path3869"
       inkscape:connector-curvature="0"
       sodipodi:nodetypes="cccc" />
    <path
       style="fill:none;stroke:#4d4d4d;stroke-width:9;stroke-linecap:round;stroke-linejoin:round;stroke-miterlimit:4;stroke-opacity:1;stroke-dasharray:none"
       d="m 330.50984,928.28745 c 18.2674,-49.51278 77.51195,-68.6911 92.06091,-150.28747 4.32401,-38.83137 -13.33913,-69.45218 -32.50733,-101.26888 m -14.70339,-37.21592 c -3.94476,-17.90864 -1.35471,-30.91616 -1.57369,-46.03046"
       id="path3871"
       inkscape:connector-curvature="0"
       sodipodi:nodetypes="ccccc" />
    <path
       style="fill:none;stroke:#4d4d4d;stroke-width:9;stroke-linecap:round;stroke-linejoin:round;stroke-miterlimit:4;stroke-opacity:1;stroke-dasharray:none"
       d="m 337.19803,1039.2327 c -0.0104,-39.615 2.37011,-96.15755 6.5816,-114.60055 23.96897,-50.36415 81.67651,-59.81862 91.38065,-160.40197 -3.27575,-40.52532 -18.68586,-61.08736 -36.42536,-91.08315 m -13.1459,-40.71346 c -3.85183,-15.77346 -1.95219,-27.23333 -1.96712,-40.12912"
       id="path3873"
       inkscape:connector-curvature="0"
       sodipodi:nodetypes="cccccc" />
    <path
       style="fill:none;stroke:#4d4d4d;stroke-width:9;stroke-linecap:round;stroke-linejoin:round;stroke-miterlimit:4;stroke-opacity:1;stroke-dasharray:none"
       d="m 393.45747,591.51761 c -0.76783,12.83279 -0.14484,25.06161 1.18027,35.80146 m 11.01583,38.16201 c 13.2453,19.67101 37.58081,46.14536 38.55544,96.78199 -0.53588,37.98728 -12.21247,66.97125 -39.34228,108.58466"
       id="path3875"
       inkscape:connector-curvature="0"
       sodipodi:nodetypes="ccccc" />
    <path
       style="fill:none;stroke:#4d4d4d;stroke-width:9;stroke-linecap:round;stroke-linejoin:round;stroke-miterlimit:4;stroke-opacity:1;stroke-dasharray:none"
       d="m 431.22605,847.63579 c 7.45248,-20.03775 26.38475,-48.33251 23.99879,-86.55299 0.15167,-31.47274 -9.42786,-64.26519 -39.7357,-101.50306 m -11.80268,-38.16201 c -1.44492,-9.96908 -1.8336,-20.06218 -1.18027,-27.93301"
       id="path3877"
       inkscape:connector-curvature="0"
       sodipodi:nodetypes="ccccc" />
    <path
       style="fill:none;stroke:#4d4d4d;stroke-width:9;stroke-linecap:round;stroke-linejoin:round;stroke-miterlimit:4;stroke-opacity:1;stroke-dasharray:none"
       d="M 327.50554,869.03021 C 322.39613,826.77371 341.59418,771.205 281.3257,777.2269 m -30.8793,-6.9548 c -33.47113,-19.62166 -50.39337,-32.24613 -80.95383,-14.74417 l -27.81919,15.57875 c -31.15749,19.29919 -66.209676,8.66921 -93.472487,-6.67661"
       id="path3925"
       inkscape:connector-curvature="0"
       sodipodi:nodetypes="cccccc" />
    <path
       style="fill:none;stroke:#4d4d4d;stroke-width:9;stroke-linecap:round;stroke-linejoin:round;stroke-miterlimit:4;stroke-opacity:1;stroke-dasharray:none"
       d="m 339.1896,909.08984 c -4.33502,-81.04828 20.47794,-147.72448 -57.30752,-142.99062 m -31.15749,-7.23299 c -104.41468,-75.1118 -67.4905,45.20911 -194.734327,-3.3383"
       id="path3927"
       inkscape:connector-curvature="0"
       sodipodi:nodetypes="cccc" />
    <path
       style="fill:none;stroke:#4d4d4d;stroke-width:9;stroke-linecap:round;stroke-linejoin:round;stroke-miterlimit:4;stroke-opacity:1;stroke-dasharray:none"
       d="m 349.7609,895.18025 c -5.69448,-53.47938 25.8234,-146.2856 -66.20968,-140.76509 m -32.27024,-7.78937 c -102.04195,-70.03755 -74.82947,36.65484 -189.726873,0.55639"
       id="path3968"
       inkscape:connector-curvature="0"
       sodipodi:nodetypes="cccc" />
    <path
       style="fill:none;stroke:#4d4d4d;stroke-width:9;stroke-linecap:round;stroke-linejoin:round;stroke-miterlimit:4;stroke-opacity:1;stroke-dasharray:none"
       d="M 360.33219,883.49619 C 356.97507,824.18584 387.54667,745.32868 285.22038,742.73111 M 251.83736,736.0545 C 162.31563,663.60988 158.58384,769.55043 66.561571,733.82897"
       id="path3970"
       inkscape:connector-curvature="0"
       sodipodi:nodetypes="cccc" />
    <path
       style="fill:none;stroke:#4d4d4d;stroke-width:9;stroke-linecap:round;stroke-linejoin:round;stroke-miterlimit:4;stroke-opacity:1;stroke-dasharray:none"
       d="m 251.28097,781.67796 c -7.46311,-140.0679 73.90208,-116.75208 79.56288,-208.08751"
       id="path3972"
       inkscape:connector-curvature="0"
       sodipodi:nodetypes="cc" />
    <path
       style="fill:none;stroke:#4d4d4d;stroke-width:9;stroke-linecap:round;stroke-linejoin:round;stroke-miterlimit:4;stroke-opacity:1;stroke-dasharray:none"
       d="M 261.85227,784.45989 C 257.56636,643.45238 340.8994,662.29614 341.97152,575.2596"
       id="path3974"
       inkscape:connector-curvature="0"
       sodipodi:nodetypes="cc" />
    <path
       style="fill:none;stroke:#4d4d4d;stroke-width:9;stroke-linecap:round;stroke-linejoin:round;stroke-miterlimit:4;stroke-opacity:1;stroke-dasharray:none"
       d="m 271.31079,788.35457 c -2.079,-138.72717 76.32495,-115.28244 83.45756,-214.20774"
       id="path3976"
       inkscape:connector-curvature="0"
       sodipodi:nodetypes="cc" />
    <path
       style="fill:none;stroke:#4d4d4d;stroke-width:9;stroke-linecap:round;stroke-linejoin:round;stroke-miterlimit:4;stroke-opacity:1;stroke-dasharray:none"
       d="m 280.76931,796.14394 c -1.66792,-141.43276 73.3126,-106.0701 85.6831,-219.77157"
       id="path3978"
       inkscape:connector-curvature="0"
       sodipodi:nodetypes="cc" />
    <path
       style="fill:none;stroke:#4d4d4d;stroke-width:9;stroke-linecap:round;stroke-linejoin:round;stroke-miterlimit:4;stroke-opacity:1;stroke-dasharray:none"
       d="m 66.523191,710.33127 c 14.534953,15.30011 22.918223,23.01792 36.194899,31.08039"
       id="path3980"
       inkscape:connector-curvature="0"
       sodipodi:nodetypes="cc" />
    <path
       style="fill:none;stroke:#4d4d4d;stroke-width:9;stroke-linecap:round;stroke-linejoin:round;stroke-miterlimit:4;stroke-opacity:1;stroke-dasharray:none"
       d="m 70.063992,702.06939 c 16.874422,15.42045 34.830738,32.31634 52.718658,36.58831"
       id="path3982"
       inkscape:connector-curvature="0"
       sodipodi:nodetypes="cc" />
    <path
       style="fill:none;stroke:#4d4d4d;stroke-width:9;stroke-linecap:round;stroke-linejoin:round;stroke-miterlimit:4;stroke-opacity:1;stroke-dasharray:none"
       d="m 77.539024,691.05356 c 17.39287,20.32438 35.884246,31.86076 54.292346,44.06334"
       id="path3984"
       inkscape:connector-curvature="0"
       sodipodi:nodetypes="cc" />
    <path
       style="fill:none;stroke:#4d4d4d;stroke-width:9;stroke-linecap:round;stroke-linejoin:round;stroke-miterlimit:4;stroke-opacity:1;stroke-dasharray:none"
       d="m 85.800904,684.75879 c 12.794673,13.51078 24.151756,27.5288 41.702816,29.90013"
       id="path3986"
       inkscape:connector-curvature="0"
       sodipodi:nodetypes="cc" />
    <path
       style="fill:none;stroke:#4d4d4d;stroke-width:9;stroke-linecap:round;stroke-linejoin:round;stroke-miterlimit:4;stroke-opacity:1;stroke-dasharray:none"
       d="M 235.30154,724.10106 C 224.429,692.58729 231.73088,653.44266 224.67913,610.00847"
       id="path3988"
       inkscape:connector-curvature="0"
       sodipodi:nodetypes="cc" />
    <path
       style="fill:none;stroke:#4d4d4d;stroke-width:9;stroke-linecap:round;stroke-linejoin:round;stroke-miterlimit:4;stroke-opacity:1;stroke-dasharray:none"
       d="M 219.56463,714.65892 C 216.432,684.43225 215.65541,646.65547 214.45014,609.22163"
       id="path3990"
       inkscape:connector-curvature="0"
       sodipodi:nodetypes="cc" />
    <path
       style="fill:none;stroke:#4d4d4d;stroke-width:9;stroke-linecap:round;stroke-linejoin:round;stroke-miterlimit:4;stroke-opacity:1;stroke-dasharray:none"
       d="M 210.90933,712.69181 C 207.049,679.54178 205.24785,645.36217 203.4343,611.18874"
       id="path3992"
       inkscape:connector-curvature="0"
       sodipodi:nodetypes="cc" />
    <path
       style="fill:none;stroke:#4d4d4d;stroke-width:9;stroke-linecap:round;stroke-linejoin:round;stroke-miterlimit:4;stroke-opacity:1;stroke-dasharray:none"
       d="m 198.31981,710.33127 c -6.02318,-31.7361 -4.22272,-63.4722 -6.29477,-95.2083"
       id="path3994"
       inkscape:connector-curvature="0"
       sodipodi:nodetypes="cc" />
    <path
       style="fill:none;stroke:#4d4d4d;stroke-width:9;stroke-linecap:round;stroke-linejoin:round;stroke-miterlimit:4;stroke-opacity:1;stroke-dasharray:none"
       d="m 195.17243,696.9549 c -21.95057,-6.23329 -38.7645,-23.67377 -49.17784,-55.07918"
       id="path3996"
       inkscape:connector-curvature="0"
       sodipodi:nodetypes="cc" />
    <path
       style="fill:none;stroke:#4d4d4d;stroke-width:9;stroke-linecap:round;stroke-linejoin:round;stroke-miterlimit:4;stroke-opacity:1;stroke-dasharray:none"
       d="m 193.59873,682.79168 c -20.80121,-6.21382 -28.84105,-25.18899 -37.37515,-43.66992"
       id="path3998"
       inkscape:connector-curvature="0"
       sodipodi:nodetypes="cc" />
    <path
       style="fill:none;stroke:#4d4d4d;stroke-width:9;stroke-linecap:round;stroke-linejoin:round;stroke-miterlimit:4;stroke-opacity:1;stroke-dasharray:none"
       d="m 165.66572,634.40068 c 5.47149,19.43982 14.08081,33.38844 27.93301,38.16201"
       id="path4000"
       inkscape:connector-curvature="0"
       sodipodi:nodetypes="cc" />
    <path
       style="fill:none;stroke:#4d4d4d;stroke-width:9;stroke-linecap:round;stroke-linejoin:round;stroke-miterlimit:4;stroke-opacity:1;stroke-dasharray:none"
       d="m 173.14075,629.67961 c 3.95751,12.06325 10.86328,20.58859 20.06456,26.35932"
       id="path4002"
       inkscape:connector-curvature="0"
       sodipodi:nodetypes="cc" />
    <path
       style="fill:none;stroke:#4d4d4d;stroke-width:9;stroke-linecap:round;stroke-linejoin:round;stroke-miterlimit:4;stroke-opacity:1;stroke-dasharray:none"
       d="m 312.48318,744.95664 c 0.4643,-19.10294 0.64099,-28.55562 -10.57128,-43.95431 M 278.54378,667.06292 C 252.7546,649.83555 241.72276,624.96574 234.58947,604.74794"
       id="path4004"
       inkscape:connector-curvature="0"
       sodipodi:nodetypes="cccc" />
    <path
       style="fill:none;stroke:#4d4d4d;stroke-width:9;stroke-linecap:round;stroke-linejoin:round;stroke-miterlimit:4;stroke-opacity:1;stroke-dasharray:none"
       d="m 321.38533,747.18217 c 0.60352,-11.04522 4.86139,-33.13355 -12.79683,-55.63837 m -22.25535,-32.27025 c -19.973,-10.64454 -33.35842,-35.49912 -44.5107,-62.31499"
       id="path4006"
       inkscape:connector-curvature="0"
       sodipodi:nodetypes="cccc" />
    <path
       style="fill:none;stroke:#4d4d4d;stroke-width:9;stroke-linecap:round;stroke-linejoin:round;stroke-miterlimit:4;stroke-opacity:1;stroke-dasharray:none"
       d="m 331.40023,752.74601 c 2.31142,-25.61306 0.75201,-48.36363 -16.13513,-69.54796 m -22.81173,-31.15749 c -16.06386,-12.2688 -31.01676,-30.65238 -41.1724,-60.64583"
       id="path4008"
       inkscape:connector-curvature="0"
       sodipodi:nodetypes="cccc" />
    <path
       style="fill:none;stroke:#4d4d4d;stroke-width:9;stroke-linecap:round;stroke-linejoin:round;stroke-miterlimit:4;stroke-opacity:1;stroke-dasharray:none"
       d="m 342.52791,758.86623 c 2.58542,-41.72878 -0.62282,-62.31498 -22.81174,-85.12671 m -20.5862,-28.93195 C 280.53559,628.1241 269.47266,610.09266 259.62673,591.95111"
       id="path4010"
       inkscape:connector-curvature="0"
       sodipodi:nodetypes="cccc" />
    <path
       style="fill:none;stroke:#4d4d4d;stroke-width:9;stroke-linecap:round;stroke-linejoin:round;stroke-miterlimit:4;stroke-opacity:1;stroke-dasharray:none"
       d="m 275.20548,616.98838 c 2.61864,-10.91263 4.56322,-22.72402 2.78191,-39.50325"
       id="path4012"
       inkscape:connector-curvature="0"
       sodipodi:nodetypes="cc" />
    <path
       style="fill:none;stroke:#4d4d4d;stroke-width:9;stroke-linecap:round;stroke-linejoin:round;stroke-miterlimit:4;stroke-opacity:1;stroke-dasharray:none"
       d="m 284.10762,628.67244 c 7.99452,-14.80197 7.8735,-33.08203 5.56383,-52.30007"
       id="path4014"
       inkscape:connector-curvature="0"
       sodipodi:nodetypes="cc" />
    <path
       style="fill:none;stroke:#4d4d4d;stroke-width:9;stroke-linecap:round;stroke-linejoin:round;stroke-miterlimit:4;stroke-opacity:1;stroke-dasharray:none"
       d="m 291.89699,637.57458 c 12.61441,-33.57092 10.89083,-46.54676 8.34575,-63.42775"
       id="path4016"
       inkscape:connector-curvature="0"
       sodipodi:nodetypes="cc" />
    <path
       style="fill:none;stroke:#4d4d4d;stroke-width:9;stroke-linecap:round;stroke-linejoin:round;stroke-miterlimit:4;stroke-opacity:1;stroke-dasharray:none"
       d="m 308.5885,634.23627 c 4.51659,-25.59919 5.99975,-42.47538 3.89469,-62.31497"
       id="path4018"
       inkscape:connector-curvature="0"
       sodipodi:nodetypes="cc" />
    <path
       style="fill:none;stroke:#4d4d4d;stroke-width:9;stroke-linecap:round;stroke-linejoin:round;stroke-miterlimit:4;stroke-opacity:1;stroke-dasharray:none"
       d="m 326.57561,680.43114 c 31.24022,-37.076 78.40618,-52.4543 107.4044,-82.61877"
       id="path4020"
       inkscape:connector-curvature="0"
       sodipodi:nodetypes="cc" />
    <path
       style="fill:none;stroke:#4d4d4d;stroke-width:9;stroke-linecap:round;stroke-linejoin:round;stroke-miterlimit:4;stroke-opacity:1;stroke-dasharray:none"
       d="m 333.2638,690.26671 c 38.42428,-42.69972 79.99595,-47.45292 110.55178,-88.52011"
       id="path4022"
       inkscape:connector-curvature="0"
       sodipodi:nodetypes="cc" />
    <path
       style="fill:none;stroke:#4d4d4d;stroke-width:9;stroke-linecap:round;stroke-linejoin:round;stroke-miterlimit:4;stroke-opacity:1;stroke-dasharray:none"
       d="m 338.77171,704.42993 c 38.4849,-48.42074 88.27498,-54.97627 114.48601,-95.60172"
       id="path4024"
       inkscape:connector-curvature="0"
       sodipodi:nodetypes="cc" />
    <path
       style="fill:none;stroke:#4d4d4d;stroke-width:9;stroke-linecap:round;stroke-linejoin:round;stroke-miterlimit:4;stroke-opacity:1;stroke-dasharray:none"
       d="M 342.31252,717.8063 C 373.6552,676.14966 442.37303,653.41736 461.91302,615.12297"
       id="path4026"
       inkscape:connector-curvature="0"
       sodipodi:nodetypes="cc" />
    <path
       style="fill:none;stroke:#4d4d4d;stroke-width:9;stroke-linecap:round;stroke-linejoin:round;stroke-miterlimit:4;stroke-opacity:1;stroke-dasharray:none"
       d="m 446.17611,711.90496 c 12.24685,-32.95448 29.61471,-52.74066 49.17784,-66.88186"
       id="path4028"
       inkscape:connector-curvature="0"
       sodipodi:nodetypes="cc" />
    <path
       style="fill:none;stroke:#4d4d4d;stroke-width:9;stroke-linecap:round;stroke-linejoin:round;stroke-miterlimit:4;stroke-opacity:1;stroke-dasharray:none"
       d="m 441.84846,701.28255 c 3.7896,-15.48812 24.64031,-55.61793 50.35811,-65.30818"
       id="path4030"
       inkscape:connector-curvature="0"
       sodipodi:nodetypes="cc" />
    <path
       style="fill:none;stroke:#4d4d4d;stroke-width:9;stroke-linecap:round;stroke-linejoin:round;stroke-miterlimit:4;stroke-opacity:1;stroke-dasharray:none"
       d="m 435.94712,689.87329 c 12.93464,-30.87638 29.56525,-53.95018 51.9318,-64.91475"
       id="path4032"
       inkscape:connector-curvature="0"
       sodipodi:nodetypes="cc" />
    <path
       style="fill:none;stroke:#4d4d4d;stroke-width:9;stroke-linecap:round;stroke-linejoin:round;stroke-miterlimit:4;stroke-opacity:1;stroke-dasharray:none"
       d="m 430.83263,681.21799 c 15.48373,-35.87801 33.83896,-54.527 53.50549,-65.30818"
       id="path4034"
       inkscape:connector-curvature="0"
       sodipodi:nodetypes="cc" />
    <path
       style="fill:none;stroke:#4d4d4d;stroke-width:9;stroke-linecap:round;stroke-linejoin:round;stroke-miterlimit:4;stroke-opacity:1;stroke-dasharray:none"
       d="m 356.47574,779.96709 c 15.94675,-23.43067 34.60779,-42.19778 60.58709,-48.39099 m 31.0804,-15.34349 c 45.88412,-20.34288 33.30888,-34.83344 62.16078,-79.07797"
       id="path4036"
       inkscape:connector-curvature="0"
       sodipodi:nodetypes="cccc" />
    <path
       style="fill:none;stroke:#4d4d4d;stroke-width:9;stroke-linecap:round;stroke-linejoin:round;stroke-miterlimit:4;stroke-opacity:1;stroke-dasharray:none"
       d="m 360.01654,792.95004 c 15.3959,-24.48553 34.19241,-43.68122 59.01341,-53.50549 m 32.26066,-13.76979 c 57.37992,-20.83337 41.152,-46.39465 69.2424,-84.58589"
       id="path4038"
       inkscape:connector-curvature="0"
       sodipodi:nodetypes="cccc" />
    <path
       style="fill:none;stroke:#4d4d4d;stroke-width:9;stroke-linecap:round;stroke-linejoin:round;stroke-miterlimit:4;stroke-opacity:1;stroke-dasharray:none"
       d="m 361.59023,804.3593 c 17.73237,-21.00559 34.0385,-44.15055 59.80025,-53.11207 m 31.47382,-14.55664 c 56.29264,-16.14447 48.14913,-51.52205 77.11085,-91.66749"
       id="path4040"
       inkscape:connector-curvature="0"
       sodipodi:nodetypes="cccc" />
    <path
       style="fill:none;stroke:#4d4d4d;stroke-width:9;stroke-linecap:round;stroke-linejoin:round;stroke-miterlimit:4;stroke-opacity:1;stroke-dasharray:none"
       d="m 361.98365,826.39097 c 13.90959,-21.98877 24.86774,-44.38 60.98052,-63.34106 m 31.86724,-16.91718 c 50.04508,-12.5219 57.35012,-44.50919 83.01219,-92.0609"
       id="path4042"
       inkscape:connector-curvature="0"
       sodipodi:nodetypes="cccc" />
    <path
       style="fill:none;stroke:#4d4d4d;stroke-width:9;stroke-linecap:round;stroke-linejoin:round;stroke-miterlimit:4;stroke-opacity:1;stroke-dasharray:none"
       d="m 454.43799,778.78682 c 70.88885,-37.69669 84.30391,22.62166 149.50063,-3.5408"
       id="path4044"
       inkscape:connector-curvature="0"
       sodipodi:nodetypes="cc" />
    <path
       style="fill:none;stroke:#4d4d4d;stroke-width:9;stroke-linecap:round;stroke-linejoin:round;stroke-miterlimit:4;stroke-opacity:1;stroke-dasharray:none"
       d="m 453.25772,790.98293 c 82.51946,-36.99316 76.92372,27.65404 154.61513,-7.08161"
       id="path4046"
       inkscape:connector-curvature="0"
       sodipodi:nodetypes="cc" />
    <path
       style="fill:none;stroke:#4d4d4d;stroke-width:9;stroke-linecap:round;stroke-linejoin:round;stroke-miterlimit:4;stroke-opacity:1;stroke-dasharray:none"
       d="m 449.71692,801.60534 c 73.46133,-32.69845 81.99553,26.84678 160.12304,-6.29477"
       id="path4048"
       inkscape:connector-curvature="0"
       sodipodi:nodetypes="cc" />
    <path
       style="fill:none;stroke:#4d4d4d;stroke-width:9;stroke-linecap:round;stroke-linejoin:round;stroke-miterlimit:4;stroke-opacity:1;stroke-dasharray:none"
       d="m 444.60242,815.37513 c 92.84341,-38.82913 83.83643,35.74129 181.76129,-14.95006"
       id="path4050"
       inkscape:connector-curvature="0"
       sodipodi:nodetypes="cc" />
    <path
       style="fill:none;stroke:#4d4d4d;stroke-width:9;stroke-linecap:round;stroke-linejoin:round;stroke-miterlimit:4;stroke-opacity:1;stroke-dasharray:none"
       d="m 347.42701,1039.2327 c 0.69461,-122.13835 2.05988,-118.24276 57.83315,-168.77839 109.89146,-54.28772 127.74616,70.40774 228.97201,67.27529"
       id="path4052"
       inkscape:connector-curvature="0"
       sodipodi:nodetypes="ccc" />
    <path
       style="fill:none;stroke:#4d4d4d;stroke-width:9;stroke-linecap:round;stroke-linejoin:round;stroke-miterlimit:4;stroke-opacity:1;stroke-dasharray:none"
       d="m 416.66941,852.35687 c 111.35285,-41.61 121.96104,78.81568 220.71014,73.96347"
       id="path4054"
       inkscape:connector-curvature="0"
       sodipodi:nodetypes="cc" />
    <path
       style="fill:none;stroke:#4d4d4d;stroke-width:9;stroke-linecap:round;stroke-linejoin:round;stroke-miterlimit:4;stroke-opacity:1;stroke-dasharray:none"
       d="m 356.47574,1039.2327 c 2.05841,-51.08052 3.59081,-104.12667 11.46053,-113.88507 115.7426,-143.51989 159.65944,40.04695 264.32878,23.39781"
       id="path4056"
       inkscape:connector-curvature="0"
       sodipodi:nodetypes="csc" />
    <path
       style="fill:none;stroke:#4d4d4d;stroke-width:9;stroke-linecap:round;stroke-linejoin:round;stroke-miterlimit:4;stroke-opacity:1;stroke-dasharray:none"
       d="m 368.12156,1038.7273 c 3.87039,-76.43033 -7.46881,-108.78413 40.61601,-138.5396 94.95151,-58.50167 117.52364,74.32636 226.44818,62.31498"
       id="path4058"
       inkscape:connector-curvature="0"
       sodipodi:nodetypes="ccc" />
    <path
       style="fill:none;stroke:#4d4d4d;stroke-width:9;stroke-linecap:round;stroke-linejoin:round;stroke-miterlimit:4;stroke-opacity:1;stroke-dasharray:none"
       d="m 490.52598,729.93428 c 35.39577,36.03995 74.97791,34.40258 116.2842,17.2479"
       id="path4060"
       inkscape:connector-curvature="0"
       sodipodi:nodetypes="cc" />
    <path
       style="fill:none;stroke:#4d4d4d;stroke-width:9;stroke-linecap:round;stroke-linejoin:round;stroke-miterlimit:4;stroke-opacity:1;stroke-dasharray:none"
       d="m 498.87174,722.14491 c 29.48615,28.45853 67.9102,28.75225 104.60014,16.69151"
       id="path4062"
       inkscape:connector-curvature="0"
       sodipodi:nodetypes="cc" />
    <path
       style="fill:none;stroke:#4d4d4d;stroke-width:9;stroke-linecap:round;stroke-linejoin:round;stroke-miterlimit:4;stroke-opacity:1;stroke-dasharray:none"
       d="m 505.54834,713.24277 c 35.62305,30.14256 65.91241,24.28268 95.698,15.02236"
       id="path4064"
       inkscape:connector-curvature="0"
       sodipodi:nodetypes="cc" />
    <path
       style="fill:none;stroke:#4d4d4d;stroke-width:9;stroke-linecap:round;stroke-linejoin:round;stroke-miterlimit:4;stroke-opacity:1;stroke-dasharray:none"
       d="m 511.11218,703.78425 c 29.48834,25.45832 58.97667,19.27991 88.46501,14.46597"
       id="path4066"
       inkscape:connector-curvature="0"
       sodipodi:nodetypes="cc" />
    <path
       style="fill:none;stroke:#4d4d4d;stroke-width:9;stroke-linecap:round;stroke-linejoin:round;stroke-miterlimit:4;stroke-opacity:1;stroke-dasharray:none"
       d="m 532.81114,875.70682 c 9.12196,-3.59244 16.15943,-7.87782 22.20956,-12.71452 m 24.96387,-25.78388 c 10.44907,-11.54067 23.33807,-24.23503 45.74266,-37.16979"
       id="path4068"
       inkscape:connector-curvature="0"
       sodipodi:nodetypes="cccc" />
    <path
       style="fill:none;stroke:#4d4d4d;stroke-width:9;stroke-linecap:round;stroke-linejoin:round;stroke-miterlimit:4;stroke-opacity:1;stroke-dasharray:none"
       d="m 545.05159,886.27811 c 5.98916,-5.28397 9.15306,-8.18701 14.11952,-13.14395 m 27.41156,-28.77114 c 14.35778,-15.23582 27.6358,-27.85084 48.0467,-37.0914"
       id="path4070"
       inkscape:connector-curvature="0"
       sodipodi:nodetypes="cccc" />
    <path
       style="fill:none;stroke:#4d4d4d;stroke-width:9;stroke-linecap:round;stroke-linejoin:round;stroke-miterlimit:4;stroke-opacity:1;stroke-dasharray:none"
       d="m 555.62288,895.73663 c 4.53545,-4.6613 9.0531,-9.44722 13.56595,-14.26677 m 27.64659,-28.53536 c 13.42755,-13.67958 24.80071,-24.49204 38.90671,-33.42244"
       id="path4072"
       inkscape:connector-curvature="0"
       sodipodi:nodetypes="cccc" />
    <path
       style="fill:none;stroke:#4d4d4d;stroke-width:9;stroke-linecap:round;stroke-linejoin:round;stroke-miterlimit:4;stroke-opacity:1;stroke-dasharray:none"
       d="m 566.75055,903.52601 c 4.30819,-4.65869 8.26376,-9.01123 11.9202,-13.08431 M 604.473,861.14183 c 12.87434,-14.51794 21.52248,-23.05892 34.60744,-29.94571"
       id="path4074"
       inkscape:connector-curvature="0"
       sodipodi:nodetypes="cccc" />
    <path
       style="fill:none;stroke:#4d4d4d;stroke-width:9;stroke-linecap:round;stroke-linejoin:round;stroke-miterlimit:4;stroke-opacity:1;stroke-dasharray:none"
       d="m 640.1932,911.31538 c -56.42051,2.41678 -92.96747,-43.17989 -106.41706,-99.0007 m -5.66238,-41.83431 c -0.17596,-4.98069 -0.17917,-9.96911 -0.008,-14.94201 m 4.88561,-37.93102 c 3.47217,-15.08518 8.76899,-29.40183 15.95454,-42.19866"
       id="path4076"
       inkscape:connector-curvature="0"
       sodipodi:nodetypes="cccccc" />
    <path
       style="fill:none;stroke:#4d4d4d;stroke-width:9;stroke-linecap:round;stroke-linejoin:round;stroke-miterlimit:4;stroke-opacity:1;stroke-dasharray:none"
       d="m 558.96118,679.85974 c -8.47676,12.81045 -14.47672,26.53427 -18.27774,40.63837 m -5.10102,36.68939 c -0.10077,5.95979 0.13607,11.90656 0.69068,17.80223 m 9.27075,41.20731 c 14.29548,47.933 50.07907,83.36533 95.20574,83.99066"
       id="path4078"
       inkscape:connector-curvature="0"
       sodipodi:nodetypes="cccccc" />
    <path
       style="fill:none;stroke:#4d4d4d;stroke-width:9;stroke-linecap:round;stroke-linejoin:round;stroke-miterlimit:4;stroke-opacity:1;stroke-dasharray:none"
       d="M 642.41874,886.83449 C 607.7265,888.03394 573.82255,860.10364 557.68442,818.248 m -9.1265,-39.36738 c -0.59838,-6.51697 -0.78967,-13.20521 -0.53298,-20.02811 m 5.66028,-36.78035 c 3.41933,-12.62025 8.44237,-25.45903 15.29087,-38.31773"
       id="path4080"
       inkscape:connector-curvature="0"
       sodipodi:nodetypes="cccccc" />
    <path
       style="fill:none;stroke:#4d4d4d;stroke-width:9;stroke-linecap:round;stroke-linejoin:round;stroke-miterlimit:4;stroke-opacity:1;stroke-dasharray:none"
       d="m 639.63682,875.15043 c -24.65905,-3.25112 -55.39822,-22.81534 -71.56891,-56.29357 m -10.5822,-38.36306 c -0.65288,-6.85858 -0.74718,-14.05762 -0.19646,-21.58707 m 7.54524,-37.3981 c 3.65611,-11.29839 8.67892,-23.14906 15.26927,-35.52866"
       id="path4082"
       inkscape:connector-curvature="0"
       sodipodi:nodetypes="cccccc" />
  </g>
</svg>
