<?xml version="1.0" encoding="UTF-8" standalone="no"?>
<!-- Created with Inkscape (http://www.inkscape.org/) -->

<svg
   xmlns:dc="http://purl.org/dc/elements/1.1/"
   xmlns:cc="http://creativecommons.org/ns#"
   xmlns:rdf="http://www.w3.org/1999/02/22-rdf-syntax-ns#"
   xmlns:svg="http://www.w3.org/2000/svg"
   xmlns="http://www.w3.org/2000/svg"
   xmlns:sodipodi="http://sodipodi.sourceforge.net/DTD/sodipodi-0.dtd"
   xmlns:inkscape="http://www.inkscape.org/namespaces/inkscape"
   width="1052.3622"
   height="744.09448"
   id="svg2"
   version="1.1"
   inkscape:version="0.48.3.1 r9886"
   sodipodi:docname="ogdenius_the_younger.svg"
   inkscape:export-filename="/home/substack/media/vector/ogdenius_the_younger.png"
   inkscape:export-xdpi="100"
   inkscape:export-ydpi="100">
  <defs
     id="defs4" />
  <sodipodi:namedview
     id="base"
     pagecolor="#ffffff"
     bordercolor="#666666"
     borderopacity="1.0"
     inkscape:pageopacity="0.0"
     inkscape:pageshadow="2"
     inkscape:zoom="0.437108"
     inkscape:cx="463.81073"
     inkscape:cy="207.54283"
     inkscape:document-units="px"
     inkscape:current-layer="layer1"
     showgrid="false"
     inkscape:window-width="1364"
     inkscape:window-height="766"
     inkscape:window-x="0"
     inkscape:window-y="0"
     inkscape:window-maximized="0" />
  <metadata
     id="metadata7">
    <rdf:RDF>
      <cc:Work
         rdf:about="">
        <dc:format>image/svg+xml</dc:format>
        <dc:type
           rdf:resource="http://purl.org/dc/dcmitype/StillImage" />
        <dc:title></dc:title>
      </cc:Work>
    </rdf:RDF>
  </metadata>
  <g
     inkscape:label="Layer 1"
     inkscape:groupmode="layer"
     id="layer1"
     transform="translate(0,-308.2677)">
    <path
       style="fill:#e5a52f;fill-opacity:1;stroke:#ffffff;stroke-width:1px;stroke-linecap:butt;stroke-linejoin:miter;stroke-opacity:0"
       d="m 475.6019,460.28635 c -16.04485,3.7681 -10.79468,19.97166 -16.17694,30.73618 -0.95368,1.90735 0.50082,3.54341 -0.80885,4.85308 -1.06321,1.06321 0.0216,7.23647 -0.80884,8.89731 -1.74143,3.48287 0.76072,10.65938 0,12.94155 -1.53014,4.59042 2.14588,11.88517 0,16.17694 -2.62716,5.25431 0.20996,11.71277 -2.42654,16.98578 -4.11763,8.23526 -6.65479,30.11134 -11.32386,34.78041 -2.5589,2.5589 -0.79209,10.48149 -2.42654,13.7504 -1.67957,3.35914 -8.87261,17.84403 -7.27962,21.03001 2.27062,4.54124 5.4851,11.95587 9.70616,16.17694 1.46164,1.46164 4.61322,3.56451 5.66193,5.66192 4.63393,9.26787 10.37547,19.27279 16.17693,25.07425 1.58737,1.58737 5.68427,6.45961 8.89732,4.85308 4.00822,-2.00411 5.45112,-4.9413 8.08847,-8.89731 16.45363,-24.68045 6.47077,-54.41344 6.47077,-81.69352 0,-11.23623 0.21751,-22.96034 -1.61769,-33.97157 -0.65982,-3.95887 -2.42654,-8.21377 -2.42654,-12.1327 0,-6.86987 -0.78108,-14.44816 -2.42654,-21.03001 -0.80499,-3.21997 1.46738,-8.38908 0,-11.32386 -4.93998,-9.87994 2.42581,-26.69316 -7.27962,-42.86888 z"
       id="path5123"
       inkscape:connector-curvature="0" />
    <path
       style="fill:#d4a14e;stroke:#ffffff;stroke-width:1px;stroke-linecap:butt;stroke-linejoin:miter;stroke-opacity:0;fill-opacity:1"
       d="m 475.85494,556.49782 c -8.07398,6.2299 -14.47062,14.47062 -20.58988,20.58988 -3.04144,3.04145 -10.6943,4.77521 -14.87047,6.86329 -1.41329,0.70665 -5.22003,6.21879 -6.86329,4.57553 -0.92955,-0.92955 -1.14388,-45.40885 -1.14388,-50.33081 0,-8.00454 -1.28543,-27.17008 2.28776,-34.31646 4.28046,-8.56091 -3.85121,-61.65481 2.28777,-80.07174 5.38836,-16.1651 -6.27489,-46.93209 1.14388,-61.76964 1.17699,-2.35397 -2.28777,-12.57258 -2.28777,-16.01434 0,-21.41691 -7.08974,-64.97483 5.71942,-77.78398 3.29286,-3.29287 6.63796,-5.49409 10.29493,-9.15106 2.85002,-2.85001 10.36618,2.359 11.43882,3.43165 3.29265,3.29264 11.21493,9.84714 13.72659,14.87046 2.5967,5.19341 15.98088,29.74094 18.30211,29.74094 7.82527,0 3.81151,-23.63736 5.71941,-27.45317 4.83091,-9.66182 29.45851,-17.01702 38.89199,-21.73376 5.72593,-2.86297 23.52521,-4.25175 29.74094,-1.14388 4.54041,2.2702 9.63891,0.48785 13.72658,4.57552 2.74579,2.7458 3.41459,10.24377 4.57553,13.72659 5.20721,15.62163 5.2004,30.6731 1.14388,46.89916 -2.00659,8.02636 -0.66419,17.04753 -2.28776,25.16541 -3.70037,18.50181 -12.29738,36.03358 -20.58988,52.61857 -2.86551,5.73102 -5.64426,11.06305 -6.86329,17.15823 -1.45634,7.28171 -6.19512,14.48553 -8.00718,21.73376 -5.56115,22.24459 -19.40379,53.70619 -33.17258,72.06457 -4.49984,5.99979 -11.10312,8.81536 -16.01435,13.72659 -10.9526,10.9526 -21.51681,20.04752 -26.30928,32.02869 z"
       id="path5800"
       inkscape:connector-curvature="0"
       transform="translate(0,308.2677)" />
    <path
       style="fill:#d08812;stroke:#ffffff;stroke-width:1px;stroke-linecap:butt;stroke-linejoin:miter;stroke-opacity:0;fill-opacity:1"
       d="m 490.16114,174.66636 c -5.45555,20.31218 -0.83229,54.93125 5.66192,74.4139 2.99916,8.99748 2.13294,19.63396 6.47078,28.30964 1.47401,2.94801 6.10524,16.17694 8.08847,16.17694 2.14575,0 5.59748,-4.8316 8.08846,-5.66193 7.16484,-2.38828 15.16864,-3.94451 21.83887,-7.27962 6.38065,-3.19033 15.02061,1.15632 21.03001,-4.85308 1.51408,-1.51408 -12.15342,-24.83917 -13.75039,-27.50079 -3.43745,-5.72908 -5.61372,-11.60776 -8.08847,-17.79463 -3.63976,-9.09941 -9.2142,-17.37357 -12.94155,-26.69194 -1.64948,-4.1237 -7.62803,-6.70715 -8.89731,-10.51501 -3.3568,-10.07038 -11.24919,-21.7642 -17.79463,-28.30964 -1.49905,-1.49905 -8.16075,8.16075 -9.70616,9.70616 z"
       id="path5633"
       inkscape:connector-curvature="0"
       transform="translate(0,308.2677)" />
    <path
       style="fill:#f7ddb4;stroke:#ffffff;stroke-width:1px;stroke-linecap:butt;stroke-linejoin:miter;stroke-opacity:0;fill-opacity:1"
       d="m 493.39652,155.25404 c 0,1.07846 1.07847,3.23539 0,3.23539 -1.07846,0 0,-4.31385 0,-3.23539 0,1.88731 -0.84403,3.97387 0,5.66193 4.80858,9.61715 18.74997,39.77998 25.8831,46.91311 1.40689,1.40689 12.49177,13.65968 12.94155,14.55924 0.47099,0.94199 2.55823,4.11008 4.04423,4.85308 4.54181,2.27091 12.26474,7.41166 15.36809,10.51501 1.21327,1.21327 5.25751,-0.40442 6.47078,0.80885 8.67559,8.67559 29.59974,-6.30698 34.78041,-8.89732 6.44141,-3.22071 12.74596,-14.97691 16.17693,-21.83886 1.30501,-2.61001 1.78661,-5.83084 3.23539,-7.27962 0.51306,-0.51306 -0.33672,-2.56195 0,-3.23539 5.56075,-11.12151 6.41213,-56.73656 0.80885,-67.94313 -1.3227,-2.64539 0.53977,-7.00891 -0.80885,-9.70616 -1.03729,-2.07458 -1.76702,-7.42895 -3.23539,-8.89731 -2.90337,-2.90337 -6.80261,-8.75214 -8.89731,-12.94155 -3.86991,-7.739813 -14.97557,-14.362981 -21.83887,-17.794629 -7.60878,-3.804392 -15.48538,-5.316151 -22.6477,-8.897314 -1.74827,-0.874131 -6.16814,0 -8.08847,0 -18.12223,0 -34.59422,3.858038 -46.91311,16.176935 -10.43532,10.435314 -13.7936,21.925258 -20.22117,34.780408 -3.60266,7.20532 4.3165,24.53768 7.27962,27.50079 2.36162,2.36163 2.58711,0.53724 5.66192,5.66193 z"
       id="path4665"
       inkscape:connector-curvature="0"
       transform="translate(0,308.2677)" />
    <path
       style="fill:#f3d39f;stroke:#ffffff;stroke-width:1px;stroke-linecap:butt;stroke-linejoin:miter;stroke-opacity:0;fill-opacity:1"
       d="M 544.3125 79.84375 C 543.74997 79.876787 543.24685 79.948442 542.75 80.03125 C 531.08594 81.975259 503.02687 94.388699 488.75 104.40625 C 486.01224 109.86193 483.67299 115.60039 480.6875 121.625 L 479.59375 127.9375 C 480.06572 136.12109 485.42614 147.2699 487.75 149.59375 C 490.0903 151.93405 490.34729 150.17005 493.34375 155.125 C 493.36004 155.13932 493.40625 155.14889 493.40625 155.25 C 493.40625 156.32846 494.48472 158.5 493.40625 158.5 C 493.27144 158.5 493.16747 158.42835 493.09375 158.3125 C 493.00558 159.22607 493.007 160.10775 493.40625 160.90625 C 498.21483 170.5234 512.14812 200.71062 519.28125 207.84375 C 519.30204 207.86454 519.41254 207.97454 519.4375 208 C 524.52852 210.90944 530.26427 213.44509 535.46875 214.3125 C 545.18624 215.93209 574.28326 217.95212 583.1875 213.5 C 586.56119 211.81315 588.25563 207.39498 589.65625 204.59375 C 590.5337 202.83884 588.58824 202.71325 588.03125 202.15625 C 585.65634 199.78134 582.49281 196.5589 579.125 194.875 C 573.1882 191.9066 565.75553 194.44304 560.53125 189.21875 C 544.88814 173.57565 574.45074 179.02649 570.25 170.625 C 568.37096 166.86693 563.47161 166.78697 561.34375 162.53125 C 557.70325 155.25025 555.94717 152.02899 553.25 143.9375 C 546.54798 123.83142 572.89322 126.70053 579.9375 119.65625 C 584.88406 114.70969 569.55947 109.66231 571.84375 105.09375 C 575.02286 98.735537 583.24631 99.527557 573.46875 89.75 C 568.03315 84.3144 552.7504 79.348202 544.3125 79.84375 z M 493.40625 155.25 C 493.37849 155.20373 493.37105 155.17015 493.34375 155.125 C 493.17015 155.30091 492.68386 157.5735 493.09375 158.28125 C 493.19369 157.27328 493.40625 156.23438 493.40625 155.25 z "
       transform="translate(0,308.2677)"
       id="path5959" />
    <path
       style="fill:#f7dbae;fill-opacity:1;stroke:#ffffff;stroke-width:1px;stroke-linecap:butt;stroke-linejoin:miter;stroke-opacity:0"
       d="m 804.1875,157.09375 c -2.92521,-0.0103 -5.6048,0.11379 -7.34375,0.4375 l -25.1875,27.1875 c 2.64154,-1.9985 22.07792,4.59926 28.34375,6.78125 1.04075,0.36243 2.28231,-0.52733 3.1875,0.0937 0.31281,0.21463 0.63543,0.40627 0.96875,0.59375 0.004,-0.009 -0.004,-0.0224 0,-0.0312 0.72248,-1.44496 7.65471,-5.3224 9.15691,-5.14096 14.67074,1.77198 12.95267,-2.05337 22.84309,-1.76529 0.0344,-0.16355 0.0718,-0.3416 0.0937,-0.5 0.31862,-2.29915 -3.63127,-7.28935 -3.4375,-8.6875 0.5611,-4.04884 -10.83502,-17.55213 -14.96875,-18.125 -3.20341,-0.44394 -8.78089,-0.82656 -13.65625,-0.84375 z"
       transform="translate(0,308.2677)"
       id="path4257"
       inkscape:connector-curvature="0"
       sodipodi:nodetypes="sccssccscssss" />
    <path
       style="fill:#f7dbae;fill-opacity:1;stroke:#ffffff;stroke-width:1.51294708px;stroke-linecap:butt;stroke-linejoin:miter;stroke-opacity:0"
       d="M 833 133.59375 C 832.67012 133.58475 832.36286 133.584 832.03125 133.625 C 830.53509 133.81025 829.0567 134.48221 827.875 135.375 C 822.61319 139.22667 818.8506 144.781 815.875 150.5 C 815.05165 152.75751 813.57817 155.17369 811.4375 156.1875 C 808.49958 155.4552 806.94075 159.18611 804.09375 159.21875 C 801.08022 160.49979 799.00679 163.54733 795.78125 164.375 C 794.91816 165.8718 793.70338 168.05141 794.03125 170.125 C 794.79658 174.769 797.91206 178.69225 801.3125 181.78125 C 801.84998 182.27446 802.66578 182.59406 803.34375 182.15625 C 803.5206 182.0147 803.66036 181.84671 803.8125 181.6875 C 805.80429 182.45148 807.94145 183.17174 809.34375 183.0625 C 813.65906 182.72641 818.06488 179.18429 821.71875 174.5625 C 821.38841 174.38244 821.04858 174.17717 820.78125 173.96875 C 820.60258 173.82945 820.35015 171.37159 820.4375 171.125 C 821.51369 168.0871 824.76173 164.93539 826.34375 162.90625 C 828.31044 160.38374 828.57312 156.1012 830.40625 153.75 C 832.5475 151.00357 833.74974 144.57256 834.71875 142.28125 C 836.54252 137.9688 833.25163 134.83293 833 133.59375 z "
       transform="translate(0,308.2677)"
       id="path4040" />
    <path
       style="fill:#dba957;fill-opacity:1;stroke:#ffffff;stroke-width:0.98663515000000002px;stroke-linecap:butt;stroke-linejoin:miter;stroke-opacity:0"
       d="m 609.80995,1074.9336 c 0,-40.2308 -2.78128,-81.71328 -2.78128,-122.85713 0,-9.30007 -0.86495,-72.31711 -5.56256,-77.14286 -7.73005,-7.94089 -10.06721,-1.59947 -18.07834,-5.71428 -20.98132,-10.7768 -48.49114,-3.67704 -72.31335,-8.57143 -9.03799,-1.85691 -21.10409,-6.23549 -30.5941,-4.28572 -10.16118,2.08767 -20.1497,4.39 -29.20347,10 -8.33857,11.38301 -5.56256,27.12252 -5.56256,41.42857 0,37.62259 1.39064,75.50118 1.39064,112.85715 0,4.7803 1.41826,68.5998 4.17192,71.4286 0.73901,0.7591 3.29878,-3.3888 4.17193,-4.2857 9.35029,3.6078 57.06394,1.3796 61.18821,-2.8572 5.06652,-5.2047 -3.54855,-33.0049 -5.56257,-37.1428 -0.88284,-1.8139 0.61608,-5.2443 0,-7.1429 -6.59538,-20.3258 -4.47704,-102.5437 5.56257,-112.85715 2.41171,-2.47749 0.65202,-10.66979 2.78128,-12.85714 10.06145,-10.33588 9.46618,46.59159 11.12513,50 0.74005,1.52048 9.73449,70.30949 9.73449,75.71429 0,9.5982 -3.59188,33.453 2.78129,40 2.69847,2.7721 3.45599,0 6.9532,0"
       id="path3109"
       inkscape:connector-curvature="0" />
    <path
       sodipodi:type="inkscape:offset"
       inkscape:radius="-1.3826398"
       inkscape:original="M 550.875 848.84375 C 544.97502 853.52905 539.42811 858.76618 536.34375 865.78125 C 530.73992 870.89279 534.76454 876.20316 541.09375 872.90625 C 549.6334 874.60908 556.68244 879.78212 563.5625 884.78125 C 571.48066 885.80835 571.35714 895.93276 574.71875 901.375 C 574.8373 915.56552 573.68648 929.76444 574.03125 943.96875 C 573.25774 952.92605 574.92649 961.45961 576.28125 970.21875 C 576.15941 977.80609 575.02919 985.16863 573.75 992.65625 C 572.37639 1009.3718 574.68762 1026.3497 579.125 1042.4688 C 582.88615 1055.2159 597.88371 1061.0296 609.75 1055.9375 C 609.446 1013.2524 606.78993 970.59962 606.90625 927.90625 C 606.26583 907.01114 606.37745 885.96877 603.0625 865.28125 C 601.99638 855.76894 591.53518 857.08905 584.8125 855.875 C 574.42314 850.35382 562.47881 848.93253 550.875 848.84375 z "
       style="fill:#d4a14e;fill-opacity:1;stroke:#ffffff;stroke-width:1px;stroke-linecap:butt;stroke-linejoin:miter;stroke-opacity:0"
       id="path4547"
       d="m 551.375,850.25 c -5.68772,4.55404 -10.87385,9.55224 -13.75,16.09375 a 1.382778,1.382778 0 0 1 -0.34375,0.46875 c -1.25201,1.14203 -1.89978,2.22101 -2.125,3.0625 -0.22522,0.84149 -0.0748,1.39648 0.21875,1.8125 0.5871,0.83204 2.30539,1.45246 5.09375,0 a 1.382778,1.382778 0 0 1 0.90625,-0.125 c 8.86059,1.76683 16.01083,7.03402 22.84375,12 2.02766,0.37019 3.69977,1.23633 4.9375,2.5 1.34115,1.36926 2.24332,3.08697 2.96875,4.84375 1.45086,3.51357 2.30588,7.36146 3.78125,9.75 a 1.382778,1.382778 0 0 1 0.1875,0.71875 c 0.11924,14.27297 -1.02992,28.45515 -0.6875,42.5625 a 1.382778,1.382778 0 0 1 0,0.15625 c -0.75237,8.71249 0.88976,17.11168 2.25,25.90625 a 1.382778,1.382778 0 0 1 0,0.25 c -0.12331,7.67873 -1.25585,15.05978 -2.53125,22.53125 -0.003,0.0312 0.003,0.0626 0,0.0937 -1.34071,16.4832 0.94802,33.2509 5.34375,49.2188 3.44123,11.5693 16.90345,16.9874 27.875,12.8437 -0.33739,-42.2908 -2.9267,-84.59166 -2.8125,-127 3e-5,-0.0104 -3e-5,-0.0208 0,-0.0312 -0.64038,-20.91808 -0.55438,-41.87837 -3.84375,-62.40625 a 1.382778,1.382778 0 0 1 0,-0.0625 c -0.23826,-2.12583 -0.9578,-3.49136 -1.96875,-4.5 -1.01095,-1.00864 -2.3784,-1.6595 -4.03125,-2.125 -3.3057,-0.93101 -7.55398,-0.91761 -11.125,-1.5625 a 1.382778,1.382778 0 0 1 -0.40625,-0.15625 c -9.94207,-5.28348 -21.4441,-6.71842 -32.78125,-6.84375 z"
       transform="translate(0,14)" />
    <path
       style="fill:#dba957;fill-opacity:1;stroke:#ffffff;stroke-width:1px;stroke-linecap:butt;stroke-linejoin:miter;stroke-opacity:0"
       d="m 436.96295,576.50725 c -0.95308,-5.85183 11.06199,-14.11012 24.02152,-20.58988 4.5404,-2.2702 12.06058,3.95377 12.5827,3.43164 1.12824,-1.12823 1.45414,-3.74189 2.28777,-4.57552 3.69817,-3.69818 31.719,-0.3097 35.46034,3.43164 7.15994,7.15994 7.04871,17.34365 13.72659,24.02153 6.42488,6.42488 10.55611,14.24894 14.87046,22.87764 4.33338,8.66675 10.49734,17.36062 16.01435,22.87764 1.56029,1.56029 12.85388,24.56388 14.87047,28.59705 3.3872,6.7744 9.05775,12.3028 11.43882,19.44599 4.39449,13.18347 7.64577,26.73036 13.72658,38.89199 2.39912,4.79823 2.09404,11.05136 4.57553,16.01435 3.05302,6.10604 1.50201,14.44284 4.57553,20.58988 1.90429,3.80858 1.14388,35.66336 1.14388,41.17975 0,2.07039 -2.53558,6.36767 -1.14388,9.15106 2.93801,5.87602 -0.5738,14.86676 2.28776,20.58988 3.64685,7.29369 1.14389,21.18416 1.14389,29.74093 0,25.55502 -5.3081,94.0526 4.28776,113.24433 4.16982,8.33964 -2.1621,27.70449 2.28776,36.60425 1.10699,2.2139 -0.3089,6.3372 -1.14388,8.0071 -2.73144,5.4629 -3.6708,12.8219 -8.00717,17.1583 -4.07362,4.0736 -32.83637,12.5827 -40.89199,12.5827 -1.21788,0 -7.24596,3.049 -9.15106,1.1439 -3.90272,-3.9028 -14.47646,-3.0377 -18.30211,-6.8633 -3.09181,-3.0918 -5.73768,-8.0255 -8.00718,-10.295 -6.0429,-6.0429 -22.3419,5.4516 -27.45317,8.0072 -7.49098,3.7455 -52.99175,-4.3804 -56.61857,-8.0072 -1.94415,-1.9441 -3.77526,-6.063 -5.71941,-8.0071 -0.95324,-0.9533 0.95323,-4.7662 0,-5.7195 -5.71896,-5.7189 -3.43165,-51.74431 -3.43165,-64.05735 0,-10.42314 -0.23414,-77.54983 3.43165,-81.21563 0.56501,-0.56501 20.39543,-40.79803 23.44599,-46.89916 6.59372,-13.18743 13.97628,-22.23314 20.58988,-35.46034 2.61123,-5.22246 8.82759,-8.50413 11.43882,-13.72659 4.54791,-9.09582 6.87093,-19.46127 11.43882,-28.59705 2.31979,-4.63958 2.28777,-25.21024 2.28777,-32.0287 0,-8.77828 3.04501,-19.46202 0,-28.59705 -12.74146,-38.22436 -45.56874,-81.75272 -72.06457,-102.94938 z"
       id="path5715"
       inkscape:connector-curvature="0"
       sodipodi:nodetypes="cssssssssssssssssssssssssssssssssssssc" />
    <path
       style="fill:#f7dbae;fill-opacity:1;stroke:#ffffff;stroke-width:1px;stroke-linecap:butt;stroke-linejoin:miter;stroke-opacity:0"
       d="m 443.125,866.48645 c -0.0401,0.0283 -0.0625,0.0937 -0.0625,0.21875 0,0.12962 0.30255,0.22839 0.6875,0.3125 -0.28358,-0.35129 -0.5182,-0.60674 -0.625,-0.53125 z m 0.625,0.53125 c 0.46082,0.57084 1.05448,1.42948 1.4375,1.8125 L 427.5,878.73645 c -2.44052,8.42586 -5.66029,31.08972 4.96875,41.71875 2.99908,2.99909 3.9423,8.1923 7.78125,12.03125 2.30494,2.30494 5.7114,-1.3511 6.34375,-0.71875 0.91654,0.91654 8.67904,7.60221 12.03125,4.25 1.09256,-1.09256 1.28909,-2.69534 2.125,-3.53125 0.82496,-0.82496 4.11254,0.82496 4.9375,0 2.51956,-2.51956 0.70567,-10.61192 1.40625,-11.3125 0.003,-0.003 0.15526,-0.0784 0.1875,-0.0937 1.63109,1.83469 3.46492,2.53508 5.21875,0.78125 0.25,-0.25 -0.25,-1.25 0,-1.5 2.66954,-2.66954 -2.98119,-12.86832 -7.3125,-19.5625 -0.7649,-3.11243 -1.64049,-5.82799 -3.03125,-7.21875 -0.0508,-0.0508 -0.71875,-4.91633 -0.71875,-4.9375 0,-0.44838 -1.65881,-2.59119 -1.40625,-2.84375 1.30034,-1.30034 7.7488,5.6887 9.90625,3.53125 1.47001,-1.47002 2.11203,-4.90095 0.6875,-7.75 -3.62609,-7.25219 -20.55891,-9.99641 -24.71875,-14.15625 -0.11809,-0.11809 -1.3579,-0.23181 -2.15625,-0.40625 z"
       id="path4011"
       inkscape:connector-curvature="0" />
    <path
       style="fill:#f7dbae;stroke:#ffffff;stroke-width:1px;stroke-linecap:butt;stroke-linejoin:miter;stroke-opacity:0;fill-opacity:1"
       d="m 441.73097,577.41998 c -19.19538,1.59294 -61.51468,69.98309 -59.05542,107.05679 -5.735,12.76349 -7.82604,30.18807 -6.22915,43.46794 1.79453,14.9234 2.64845,48.36661 11.23486,63.85026 1.41283,13.38372 5.69012,20.18861 10.17391,31.65475 3.02272,7.72985 7.12714,21.03237 11.45423,28.68426 5.70847,10.09466 7.46772,19.67244 14.33329,26.47883 0.21553,0.92517 0.4598,1.60595 0.7854,1.89992 0.86596,0.78183 2.73402,0.47375 3.59996,1.25558 3.75508,3.39025 30.45035,-8.22235 24.80724,-13.3172 -0.98966,-0.89351 0.0513,-4.00251 -0.93837,-4.89602 -7.05179,-6.36668 -8.67197,-27.54358 -13.92775,-36.83773 -2.45003,-4.33256 -5.68952,-14.57408 -9.39468,-17.91928 -0.26949,-0.2433 -0.51815,-0.56288 -0.7048,-0.93402 -0.0335,-0.0666 -0.0423,-0.14534 -0.0735,-0.21528 -0.11247,-0.35541 -0.24991,-0.69245 -0.36627,-1.04518 -0.005,-0.0188 0.002,-0.0436 -0.004,-0.0625 -0.74621,-2.77138 -0.68477,-6.78078 -2.23241,-8.17806 -0.59539,-0.53755 -3.69515,-13.24783 -5.80813,-17.53915 2.88448,-11.65659 3.81017,-33.69985 4.88499,-40.98992 1.68765,-11.4465 -2.18159,-35.85154 -6.31444,-50.74403 16.12044,-17.28968 46.05241,-56.99324 48.91319,-67.30042 0.97474,-3.51189 0.89522,-6.78446 2.36135,-10.13359 4.99376,-11.40734 -17.52297,-26.79318 -23.15763,-33.14354 -1.2489,-0.87498 -2.72365,-1.22683 -4.34261,-1.09249 z"
       id="path3071"
       inkscape:connector-curvature="0"
       sodipodi:nodetypes="scscsscssssssccccscscsscs"
       inkscape:transform-center-x="22.919237"
       inkscape:transform-center-y="124.82835" />
    <path
       style="fill:#da911b;fill-opacity:1;stroke:#ffffff;stroke-width:1px;stroke-linecap:butt;stroke-linejoin:miter;stroke-opacity:0"
       d="m 495.25,439.42603 c 4.25079,-1.68573 17.15748,-7.98627 21.17847,-5.39096 4.18111,2.69865 0.27546,14.92212 -0.3755,17.45657 -1.42117,5.5331 -2.24251,10.8571 -5.63084,16.10675 -2.59357,4.01829 -1.25199,13.54112 -4.32901,18.30846 -1.18606,1.83759 0.88413,23.94234 -0.25312,25.70431 -1.6484,2.55391 3.38575,24.2852 2.28936,25.98387 -1.59932,2.47787 2.06835,6.48768 1.25387,9.65875 -2.33507,9.09126 8.41796,45.3946 13.16722,53.42673 4.33945,7.33903 3.20955,17.18895 7.03355,24.96158 7.32218,14.88298 10.31811,32.52485 13.89673,49.13247 3.75518,17.42707 -1.95357,59.97907 -11.89032,75.37436 -1.75168,2.71393 -5.68971,7.28124 -6.03281,10.40149 -0.21966,1.99778 -0.68386,5.27822 -1.79974,7.0071 -1.81475,2.81164 -6.27812,5.50818 -7.50503,7.40907 -0.46236,0.71635 -2.02212,2.13531 -2.20172,1.30184 -0.30584,-1.41935 1.03534,-2.8749 0.7295,-4.29425 -0.86172,-3.99904 -7.06262,-15.45016 -10.4147,-17.61372 -3.04794,-1.96727 -17.26578,-6.20851 -18.64922,-5.91041 -0.83347,0.1796 -2.36289,0.55386 -2.54248,-0.27956 -0.19663,-0.91254 2.54316,-1.83084 2.82204,-2.26291 0.80562,-1.24819 0.96943,-3.77435 1.34982,-5.25533 0.43151,-1.68009 -1.17656,-5.46017 -1.53342,-7.11628 -2.95306,-13.70453 -9.29593,-25.74108 -20.31827,-32.85535 -2.47108,-1.59493 0.98293,-11.27963 1.22741,-13.50307 1.47461,-13.41096 -1.67533,-26.88782 -0.27125,-39.65732 0.92694,-8.4301 4.18693,-16.30127 6.29914,-24.52487 1.43744,-5.5965 5.49433,-48.07917 1.91724,-52.54006 -2.93177,-3.65615 -14.65829,-53.90754 -13.90994,-60.7134 0.43252,-3.93364 -1.33576,-9.33992 -0.35398,-13.16231 1.58511,-6.1714 -0.21153,-12.26293 1.16621,-17.62695 4.04007,-15.7295 1.28602,-31.52332 9.49668,-44.24434 2.44434,-3.78709 1.83569,-8.11745 4.11066,-11.64212 0.46993,-0.7281 6.05966,-9.02269 6.37355,-8.82008 3.2036,2.06773 0.82432,12.78515 4.02792,14.85289 0.73309,0.47316 12.07223,5.34418 11.98288,5.69204 -0.42947,1.67211 -3.18957,3.14897 -2.3109,4.63501 0.73899,1.2498 2.28094,-1.85504 3.61273,-2.43329 0.33242,-0.14436 -3.2803,2.28896 -3.61273,2.43329 z"
       id="path5108"
       inkscape:connector-curvature="0" />
    <path
       style="fill:none;stroke:#ffffff;stroke-width:1px;stroke-linecap:butt;stroke-linejoin:miter;stroke-opacity:0"
       d="m 446.5,931.36218 c 2.40586,-0.89805 -9.5,-15.02148 -9.5,-21"
       id="path4016"
       inkscape:connector-curvature="0" />
    <path
       style="fill:none;stroke:#ffffff;stroke-width:1px;stroke-linecap:butt;stroke-linejoin:miter;stroke-opacity:0"
       d="m 461.5,931.86218 c -1.51691,-0.65634 -7.9695,-10.43901 -11.5,-17.5 -1.1918,-2.3836 0.88178,-5.11822 -1,-7"
       id="path4018"
       inkscape:connector-curvature="0" />
    <path
       style="fill:none;stroke:#ffffff;stroke-width:1px;stroke-linecap:butt;stroke-linejoin:miter;stroke-opacity:0"
       d="m 466.5,920.86218 c -3.64628,-4.90733 -9.5,-12.89266 -9.5,-18.5"
       id="path4020"
       inkscape:connector-curvature="0" />
    <path
       style="fill:none;stroke:#000000;stroke-width:1px;stroke-linecap:butt;stroke-linejoin:miter;stroke-opacity:1"
       d="m 544,567.0177 c -0.17255,0.0169 -0.3716,0.0971 -0.5625,0.15625 0.1274,0.0167 0.22215,0.0139 0.3125,-0.0312 0.0713,-0.0357 0.17496,-0.0864 0.25,-0.125 z"
       id="path4200"
       inkscape:connector-curvature="0" />
    <path
       sodipodi:type="inkscape:offset"
       inkscape:radius="-2.6126335"
       inkscape:original="M 511.71875 899.53125 C 508.75007 899.40859 505.55491 904.11542 503.3125 906.0625 C 497.18963 911.89085 491.56318 918.52441 488.96875 926.71875 C 484.12559 933.38159 484.45268 942.00065 481 949.25 C 480.9307 955.45269 480.74597 961.68701 479.75 967.625 C 476.06875 976.59909 478.49777 986.57507 476.59375 995.8125 C 472.83413 1005.2718 475.76156 1015.6152 475.1875 1025.4688 C 475.2645 1042.2496 475.80136 1059.4653 481.71875 1075.375 C 492.97711 1075.1638 504.51256 1074.8827 515.375 1071.6875 C 520.44015 1067.9756 517.6202 1060.3281 517.125 1055 C 515.78659 1047.197 513.08674 1039.6712 510.78125 1032.1875 C 512.10102 1026.0145 508.83685 1020.1278 508.71875 1013.9375 C 506.30694 987.90432 506.94492 961.58874 510.1875 935.65625 C 511.46216 927.92816 512.44069 919.65565 516.90625 913.0625 C 517.04347 909.10556 518.63744 904.0195 514.5625 901.53125 C 513.66272 900.1439 512.70831 899.57214 511.71875 899.53125 z "
       style="fill:#d4a14e;fill-opacity:1;stroke:#ffffff;stroke-width:1px;stroke-linecap:butt;stroke-linejoin:miter;stroke-opacity:0"
       id="path4550"
       d="m 511.625,902.15625 c -0.0685,-0.003 -1.26661,0.49469 -2.5625,1.75 -1.27101,1.23121 -2.55773,2.78741 -3.96875,4.03125 l 0.0312,0.0312 c -5.98475,5.69687 -11.26744,11.98636 -13.65625,19.53125 a 2.6128947,2.6128947 0 0 1 -0.375,0.75 c -4.05492,5.57844 -3.98894,13.59898 -7.46875,21.40625 -0.0729,6.11569 -0.29654,12.3491 -1.3125,18.40625 a 2.6128947,2.6128947 0 0 1 -0.15625,0.5625 c -3.27008,7.97176 -0.93221,17.68677 -3,27.71875 a 2.6128947,2.6128947 0 0 1 -0.125,0.4375 c -3.32938,8.37685 -0.67612,18.27115 -1.25,28.68755 l 0.0312,0 c 0.0738,16.093 0.71441,32.2861 5.84375,47.1874 10.37283,-0.2135 20.7369,-0.611 30.375,-3.3437 1.40571,-1.1914 1.79681,-2.7637 1.6875,-5.25 -0.11403,-2.5935 -0.86151,-5.6783 -1.15625,-8.625 -0.0106,-0.062 -0.0205,-0.126 -0.0312,-0.1875 -1.29827,-7.439 -3.93975,-14.7821 -6.25,-22.2812 a 2.6128947,2.6128947 0 0 1 -0.0625,-1.3126 c 1.05465,-4.9329 -1.9065,-10.4858 -2.09375,-17.4687 -0.002,-0.066 -0.03,-0.1212 -0.0312,-0.1875 l 0.0312,0 c -2.41036,-26.1755 -1.78787,-52.61151 1.46875,-78.65625 a 2.6128947,2.6128947 0 0 1 0.0312,-0.125 c 1.21575,-7.3709 2.19958,-15.69208 6.6875,-22.8125 0.12007,-2.05821 0.47302,-4.05146 0.40625,-5.53125 -0.0735,-1.63008 -0.29883,-2.37246 -1.53125,-3.125 a 2.6128947,2.6128947 0 0 1 -0.8125,-0.8125 c -0.61915,-0.95465 -0.695,-0.77898 -0.75,-0.78125 z"
       transform="translate(0,14)" />
    <path
       style="fill:#f7dbae;fill-opacity:1;stroke:#ffffff;stroke-width:1px;stroke-linecap:butt;stroke-linejoin:miter;stroke-opacity:0"
       d="m 782.15625,481.23645 c -0.77281,0.0311 -1.44147,0.28522 -1.9375,0.78125 l -31.09375,31.125 c -3.00566,3.00566 -6.95892,11.17767 -11.3125,15.53125 -10.4492,10.4492 -23.63278,22.22653 -33.9375,32.53125 -5.93514,5.93514 -16.64256,10.98631 -21.21875,15.5625 -14.01983,14.01983 -80.13666,-16.01959 -84.84375,-11.3125 -1.95186,1.95186 -4.35835,1.47605 -7.09375,2.84375 -9.90433,4.95216 -20.21915,18.83321 -18.375,16.96875 l 10.59375,30.4375 c 0.87611,-2.40261 8.00834,-3.46458 10.625,-2.15625 6.11081,3.05541 15.23177,-0.18099 21.21875,2.8125 12.56074,6.28038 34.91275,11.3125 52.3125,11.3125 3.24778,0 32.37627,2.96748 35.34375,0 3.03097,-3.03097 8.92218,-4.67219 11.3125,-7.0625 5.28982,-5.28983 10.21266,-10.48782 14.15625,-18.375 4.2916,-8.5832 15.09742,-12.28491 21.21875,-18.40625 7.06376,-7.06376 15.80143,-15.41633 23.53125,-24.34375 1.88246,-3.8053 3.83881,-7.12006 5.84375,-9.125 2.67376,-2.67375 4.27614,-9.77614 7.5,-13 1.18905,-1.18904 1.11959,-4.11959 2,-5 3.48696,-3.48696 5.636,-10.13599 8.5,-13 0.94995,-0.94995 0.88703,-3.77405 1.5,-5 2.46361,-4.92721 3.92862,-9.92862 7.5,-13.5 0.5,-0.5 0,-2 0.5,-2.5 0.0734,-0.0734 0.16305,-0.12895 0.25,-0.1875 -6.15679,-5.97936 -18.39046,-17.16694 -24.09375,-16.9375 z M 582.9375,615.7052 c -0.22332,0.61243 -0.0498,1.32518 0.71875,2.09375 l -0.71875,-2.09375 z"
       id="path4201"
       inkscape:connector-curvature="0" />
    <path
       style="fill:#f3d39f;stroke:#ffffff;stroke-width:1px;stroke-linecap:butt;stroke-linejoin:miter;stroke-opacity:0;fill-opacity:1"
       d="M 761.84375 262.875 C 759.46698 264.74903 757.28881 267.18371 754.65625 268.5 C 751.70038 269.97793 747.13517 271.14607 744.9375 273.34375 C 742.69555 275.58569 724.30582 272.97544 720.6875 276.59375 C 718.99656 278.2847 719.6323 286.76665 718.25 289.53125 C 714.76174 296.50777 712.60576 294.36299 708.5625 298.40625 C 706.94896 300.01979 698.61212 288.71875 693.1875 288.71875 C 692.14276 288.71875 677.00447 297.58928 676.1875 298.40625 C 671.85524 302.73851 657.09783 299.74592 653.5625 303.28125 C 652.06414 304.77961 646.37654 302.46875 645.46875 302.46875 C 637.96032 302.46875 634.45203 294.92914 628.46875 291.9375 C 623.41487 289.41056 602.81674 292.52701 600.15625 295.1875 C 598.62602 296.71773 598.92337 301.32538 600 306.6875 C 605.0821 306.92527 610.6652 306.03573 614.78125 308.09375 C 627.34199 314.37413 649.694 319.40625 667.09375 319.40625 C 670.34153 319.40625 699.47002 322.37373 702.4375 319.40625 C 705.46847 316.37528 711.35968 314.73406 713.75 312.34375 C 719.03982 307.05392 723.96266 301.85593 727.90625 293.96875 C 732.19785 285.38555 743.00367 281.68384 749.125 275.5625 C 753.00199 271.68551 757.40165 267.41043 761.84375 262.875 z "
       transform="translate(0,308.2677)"
       id="path5918" />
    <path
       style="fill:#f7dbae;fill-opacity:1;stroke:#ffffff;stroke-width:1px;stroke-linecap:butt;stroke-linejoin:miter;stroke-opacity:0"
       d="m 828.22598,473.78569 c -1.47694,2.03379 -7.71116,6.70673 -7.86725,7.83303 -0.10524,0.75944 1.56292,6.38406 2.34963,6.49309 1.24732,0.17285 4.45138,-1.48908 10.56995,-1.84718 4.19382,-0.24545 8.79914,-0.41714 12.73591,0.12844 2.67202,0.3703 6.91105,-2.26269 9.45174,-3.12144 2.60801,-0.88148 5.53275,-2.30497 7.68361,-3.93221 1.76886,-1.33829 6.79448,-2.66777 7.1773,-5.43014 0.10208,-0.73657 -0.31716,-2.86253 -0.21508,-3.59912 0.0281,-0.20286 -0.44845,-2.56067 -1.41129,-2.69411 -3.55437,-0.49259 -4.41571,1.73177 -7.09073,2.22972 -8.8407,1.6457 -16.59234,5.55308 -23.48093,4.59843 -1.15692,-0.16033 -3.56873,-2.26467 -4.6117,-2.7807"
       id="path4272"
       inkscape:connector-curvature="0"
       sodipodi:nodetypes="cccssscscsssc" />
    <path
       style="fill:#f7dbae;fill-opacity:1;stroke:#ffffff;stroke-width:1px;stroke-linecap:butt;stroke-linejoin:miter;stroke-opacity:0"
       d="m 817.42219,466.23719 c 2.65362,-0.29158 4.94557,-0.57339 7.59701,-0.73183 5.77834,-0.34533 11.67285,-3.02244 15.6898,-2.46577 2.93165,0.40627 14.12206,-15.46593 22.95371,-11.09627 1.50824,0.74622 0.26487,6.52387 -0.36732,7.80161 -0.55013,1.11175 -1.76677,2.44638 -1.88615,3.30793 -0.17182,1.23975 -4.02068,2.41493 -4.28907,2.61798 -1.61006,1.21813 -17.45686,10.78725 -17.55502,10.77366 -2.36984,-0.32842 -20.62209,0.5546 -22.39225,1.89384"
       id="path4300"
       inkscape:connector-curvature="0" />
    <path
       inkscape:connector-curvature="0"
       id="path5752"
       d="m 824.80107,472.02031 c 0.56304,-0.4884 1.03625,-1.10561 1.68913,-1.46521 2.5337,-1.39548 6.90377,-1.09501 9.57499,-0.90539 2.23197,0.15845 5.32829,-0.77177 7.53585,-1.20866 8.05162,-1.59347 9.17099,-1.44299 16.06086,-7.41948 1.36589,-1.18481 7.19311,-5.01628 8.49239,-3.51844 1.42463,1.64236 1.88293,8.13502 -0.40113,10.11628 -1.00578,0.87245 -1.82705,0.99283 -2.99565,2.00651 -2.47511,2.14699 -18.66002,8.18604 -22.75215,7.89554 -1.93664,-0.13749 -4.08214,2.08016 -5.87935,2.43584 -3.55967,0.70448 -10.42572,0.16331 -12.84128,2.25863"
       style="fill:#f7dbae;fill-opacity:1;stroke:#ffffff;stroke-width:1px;stroke-linecap:butt;stroke-linejoin:miter;stroke-opacity:0" />
    <path
       style="fill:#b53c20;fill-opacity:1;stroke:#ffffff;stroke-width:1px;stroke-linecap:butt;stroke-linejoin:miter;stroke-opacity:0"
       d="M 511.375 139.15625 C 507.51741 139.39491 501.56486 144.58903 500.6875 146.34375 C 498.26228 151.19418 497.3177 160.78645 501.5 164.96875 C 502.57846 166.04721 501.20279 169.54654 502.28125 170.625 C 502.52151 170.86526 502.57653 171.20312 502.5 171.59375 C 502.25034 172.16875 502.08167 172.58292 501.90625 172.96875 C 501.89188 173.00035 501.88878 173.03236 501.875 173.0625 C 501.37021 173.89343 500.75503 174.58871 500.6875 174.65625 C 499.12087 176.22288 502.7648 182.74014 503.09375 183.5625 C 503.17435 183.54487 503.26219 183.54611 503.34375 183.53125 C 504.73806 186.58352 506.4025 189.2775 507.15625 190.03125 C 508.16281 191.03781 505.05571 193.7568 504.71875 194.09375 C 503.31342 195.49908 503.90625 200.29951 503.90625 202.96875 C 503.90625 206.67455 512.17459 213.50635 509.75 219.5 C 511.95738 223.91984 514.7507 229.1882 517.65625 232.09375 C 523.42207 237.85957 531.74427 252.95728 535.46875 260.40625 C 536.22367 261.91609 534.71383 264.55266 535.46875 266.0625 C 540.28142 275.68784 550.91166 282.38582 555.6875 291.9375 C 557.1996 294.96169 554.44425 317.049 553.25 319.4375 C 552.17716 321.58318 558.57639 332.64583 556.5 338.875 C 553.67112 347.36163 550.82439 354.22622 546.78125 362.3125 C 542.68495 370.50508 555.19713 375.92551 558.09375 381.71875 C 560.69954 386.93033 557.90879 395.09882 560.53125 400.34375 C 562.90166 405.08455 553.05874 430.67999 555.6875 435.9375 C 558.65308 441.86867 570.95558 424.77634 572.65625 421.375 C 573.58136 419.52479 575.96095 402.83596 579.125 406 C 580.3625 407.2375 579.7698 411.32085 580.75 413.28125 C 583.40727 418.59579 598.03281 443.75079 601.78125 445.625 C 603.14395 446.30636 602.0142 435.4716 602.59375 434.3125 C 603.15733 433.18535 602.74299 428.507 603.40625 427.84375 C 605.33009 425.91991 606.51535 419.96929 608.25 416.5 C 613.22936 406.54127 615.25153 393.59069 620.375 383.34375 C 621.03482 382.02412 624.90505 343.96392 624.4375 342.09375 C 622.8415 335.70972 620.75774 328.26547 617.96875 322.6875 C 616.36453 319.47907 618.9577 314.17223 618.40625 310.4375 C 618.40322 310.41698 618.40947 310.39542 618.40625 310.375 C 618.35539 310.13932 618.297 309.89668 618.25 309.65625 C 618.1757 309.40694 618.08334 309.16667 617.96875 308.9375 C 616.74935 306.49871 616.34375 302.91716 616.34375 300.03125 C 616.34375 299.77889 616.36785 299.53124 616.375 299.28125 C 616.36623 299.2628 616.35264 299.23654 616.34375 299.21875 C 614.92383 296.3789 614.24727 297.12228 612.3125 295.1875 C 611.43878 294.31378 613.86055 292.7957 613.90625 292.75 C 616.25769 290.39857 616.34375 284.40501 616.34375 280.625 C 616.34375 276.62593 614.38507 272.97881 612.3125 270.90625 C 611.58611 270.17986 610.07813 268.38065 609.40625 268.15625 C 609.36177 268.20041 609.0625 268.50046 609.0625 268.5 C 609.0625 268.17918 609.19642 268.08617 609.40625 268.15625 C 609.8854 267.68049 612.44525 265.086 613.09375 264.4375 C 619.73015 257.8011 613.90625 255.72105 613.90625 249.09375 C 613.90625 248.53854 614.98789 248.07353 616.40625 247.71875 C 615.99505 245.96563 615.52787 244.24323 614.71875 242.625 C 614.02951 241.24651 614.71875 237.7225 614.71875 236.125 C 614.71875 235.83943 614.74175 235.56447 614.75 235.28125 C 613.15634 233.12039 612.17386 231.03523 610.28125 227.25 C 609.52073 225.72897 610.39554 220.66696 611.09375 219.96875 C 611.37972 219.68278 611.09375 217.57421 611.09375 217.125 C 611.09375 215.92035 612.04317 205.13692 611.5 204.59375 C 610.51088 203.60463 610.44746 202.23935 608.65625 201.34375 C 608.35123 201.19124 607.97854 201.10615 607.5625 201.03125 C 607.53338 201.02601 607.49833 201.03615 607.46875 201.03125 C 606.82494 201.04336 606.2428 201.1286 605.8125 201.34375 C 602.1876 203.1562 594.85624 206.57498 592.0625 203.78125 C 590.43627 202.15502 587.30888 202.51757 584.03125 203 C 581.61009 203.51388 579.69765 204.02111 579.53125 204.1875 C 578.87656 204.84219 574.07687 204.0853 573.46875 203.78125 C 572.85358 203.47366 571.06755 203.38005 570.65625 202.96875 C 569.93621 202.24871 569.11269 200.64394 568.21875 199.75 C 566.64856 198.17981 564.13214 197.66339 562.5625 196.09375 C 561.06331 194.59456 558.22908 195.41659 556.90625 194.09375 C 556.57624 193.76375 556.96222 192.58963 556.9375 191.9375 C 556.79053 191.51936 556.64254 191.12884 556.5 190.84375 C 555.28926 188.42227 552.98241 190.57617 551.625 189.21875 C 550.13639 187.73014 549.17067 183.13221 548.40625 182.75 C 543.63006 180.3619 538.29705 185.3829 533.03125 182.75 C 529.37349 180.92112 523.27105 172.1773 520.90625 169.8125 C 520.29709 169.20334 519.36422 169.94795 518.8125 170.375 C 517.47857 163.2189 514.43862 155.28349 512.8125 152.03125 C 511.02421 148.45468 515.28019 141.53019 513.625 139.875 C 513.04703 139.29703 512.26521 139.10117 511.375 139.15625 z "
       transform="translate(0,308.2677)"
       id="path4619" />
    <path
       style="fill:#b53c20;fill-opacity:1;stroke:#ffffff;stroke-width:1px;stroke-linecap:butt;stroke-linejoin:miter;stroke-opacity:0"
       d="m 577.51658,499.91984 c 0.0486,-2.67892 8.07432,-8.88316 13.7504,-14.55924 2.9678,-2.9678 4.83768,6.48618 8.08847,3.23539 4.3437,-4.34371 8.68691,-6.68118 13.75039,-1.6177 0.0926,0.0926 3.75452,-3.5251 6.47078,-0.80884 1.86947,1.86947 9.70616,4.90328 9.70616,7.27962 0,2.0351 -11.91853,-3.44957 -15.36809,0 -1.33975,1.33975 0.15768,6.47077 -2.42654,6.47077 -0.78433,0 -4.30861,-4.17642 -5.66193,-4.85308 -4.45189,-2.22594 -7.23646,6.47078 -9.70616,6.47078 -0.55121,0 -1.34674,-5.39097 -1.61769,-5.66193 -0.61905,-0.61905 -14.15312,4.04423 -16.98579,4.04423 z"
       id="path4690"
       inkscape:connector-curvature="0" />
    <path
       style="fill:#ffffff;fill-opacity:1;stroke:#ffffff;stroke-width:1px;stroke-linecap:butt;stroke-linejoin:miter;stroke-opacity:0"
       d="m 593.69352,452.19789 c -10.81439,1.61577 8.72928,-2.12892 -4.04423,0 -3.08702,0.5145 -5.00628,3.38858 -6.47077,4.85308 -3.66422,3.66421 -3.58322,8.7234 1.61769,11.32385 1.73969,0.86985 2.86181,-0.37357 4.04423,0.80885 0.4036,0.4036 3.4109,0 4.04424,0 11.10591,0 17.60538,-7.46887 9.70616,-15.36809 -0.95972,-0.95971 -7.24303,-1.28684 -8.89732,-1.61769 z"
       id="path4779"
       inkscape:connector-curvature="0" />
    <path
       style="fill:#6c5353;fill-opacity:1;stroke:#ffffff;stroke-width:1px;stroke-linecap:butt;stroke-linejoin:miter;stroke-opacity:0"
       d="m 604.88596,440.34521 c -7.81126,0.11375 -17.90672,0.78172 -18.46875,1.34375 -1.93671,1.93672 -8.62328,4.64237 -12.9375,8.09375 -2.54893,10.03296 1.84114,20.43489 7.28125,25.875 6.88448,6.88449 29.57883,5.52985 33.15625,-1.625 2.71548,-5.43095 3.37947,-29.77678 0,-33.15625 -0.47,-0.47 -4.3445,-0.5995 -9.03125,-0.53125 z m 0.15625,4.75 c 1.08074,0.009 1.95353,0.17229 2.40625,0.625 5.01306,5.01306 2.99613,22.87888 -1.625,27.5 -0.53923,0.53923 -2.67952,-0.53923 -3.21875,0 -4.99594,4.99594 -17.73711,-3.06797 -19.4375,-6.46875 -2.10458,-4.20916 -2.11351,-9.13695 -2.40625,-14.5625 3.61841,-6.03069 7.87652,-5.65625 14.5625,-5.65625 1.35916,0 6.47652,-1.46466 9.71875,-1.4375 z"
       id="path4720"
       inkscape:connector-curvature="0" />
    <path
       style="fill:#6c5353;fill-opacity:1;stroke:#ffffff;stroke-width:1px;stroke-linecap:butt;stroke-linejoin:miter;stroke-opacity:0"
       d="m 592.88468,441.68288 c -1.07847,0 -3.23539,1.07846 -3.23539,0 0,-1.07846 4.31385,0 3.23539,0 -2.52697,0 -9.63121,-2.46402 -12.94155,-0.80885 -12.67642,6.33821 -59.26876,4.49013 -64.70774,15.36809 -1.79547,3.59093 -7.85829,22.7628 -1.6177,25.8831 13.06421,6.5321 3.30545,-17.86469 7.27962,-21.83886 1.88731,-1.88731 3.77462,-3.77462 5.66193,-5.66193 3.84907,-3.84907 41.5209,-1.07856 42.86888,-2.42654 1.61769,-1.6177 6.47077,0 8.08847,-1.6177 4.01042,-4.01042 9.03806,-5.09929 15.36809,-8.89731 z"
       id="path4738"
       inkscape:connector-curvature="0" />
    <path
       style="fill:#6c5353;fill-opacity:1;stroke:#ffffff;stroke-width:1px;stroke-linecap:butt;stroke-linejoin:miter;stroke-opacity:0"
       d="m 613.49264,468.92418 c -3.08702,2.19562 5.90244,12.43482 11.84045,6.99122 2.73266,-2.50514 2.23507,-30.57058 -0.17697,-33.20168 -1.35327,-1.47618 -3.63033,0.0523 -5.62148,-1.0538 -0.41031,-0.22793 -5.60005,-1.07347 -6.46468,-0.28082 -0.73905,0.67751 -0.24351,5.24403 0.56237,5.69169 2.63296,1.46263 4.91385,-1.41085 7.23766,1.12401 1.86722,2.03681 2.58975,20.90302 -0.2099,23.46956 -0.49648,0.45514 -7.16028,-2.72412 -7.16745,-2.74018 -0.59235,-1.32559 1.44541,-2.56019 1.79168,-3.97022 0.3215,-1.30918 -3.63065,-3.39615 -2.28384,-3.33764 0.53872,0.0234 -0.0468,1.07744 -0.0702,1.61617 -0.0933,2.14695 0.16029,3.10124 0.56237,5.69169 z"
       id="path4766"
       inkscape:connector-curvature="0" />
    <path
       style="fill:#483737;fill-opacity:1;stroke:#ffffff;stroke-width:1px;stroke-linecap:butt;stroke-linejoin:miter;stroke-opacity:0"
       d="m 596.12006,455.43327 c -1.07846,0.26962 -2.96577,1.88731 -3.23538,0.80885 -0.26962,-1.07846 4.34704,-0.80885 3.23538,-0.80885 -8.04308,0 -5.40417,9.43062 -1.61769,11.32386 5.25581,2.6279 14.41762,-8.76387 1.61769,-11.32386 z"
       id="path4794"
       inkscape:connector-curvature="0" />
    <path
       style="fill:#da911b;stroke:#ffffff;stroke-width:1px;stroke-linecap:butt;stroke-linejoin:miter;stroke-opacity:0;fill-opacity:1"
       d="m 476.41074,133.41518 c -1.64562,-21.7462 1.38915,-30.50763 20.22117,-49.339655 4.26486,-4.264857 18.84135,-6.708645 21.03002,-8.897314 1.53941,-1.539415 4.97793,-2.551397 6.47077,-4.044234 0.46163,-0.461624 26.40995,0.263425 27.50079,0.808847 1.94123,0.970616 5.33839,-0.970616 7.27962,0 5.81759,2.908795 17.78669,2.418599 22.64771,7.279621 3.82746,3.82746 24.83029,9.385231 19.41232,20.221169 -2.48093,4.961876 -10.7269,2.532486 -15.36808,4.853076 -8.57579,4.2879 -35.3319,8.63996 -40.44234,13.7504 -0.96714,0.96714 -5.38235,0.52927 -6.47078,1.61769 -3.94013,3.94014 -10.47118,4.00041 -14.55924,8.08847 -5.34426,5.34426 -10.97334,11.78219 -16.98578,17.79463 -2.07358,2.07358 -7.35901,4.12363 -9.70616,6.47077 -1.94591,1.94591 -17.60976,-11.94783 -18.60348,-12.94155 -1.45192,-1.45192 -1.50826,-3.82537 -2.42654,-5.66192 z"
       id="path4820"
       inkscape:connector-curvature="0"
       transform="translate(0,308.2677)" />
    <path
       style="fill:#f7ddb4;fill-opacity:1;stroke:#ffffff;stroke-width:1px;stroke-linecap:butt;stroke-linejoin:miter;stroke-opacity:0"
       d="m 600.1643,482.12522 c 0.87824,0.62979 -2.82271,5.26576 -0.80885,7.27962 0.0551,0.055 29.83762,3.14567 14.55924,-12.1327"
       id="path4880"
       inkscape:connector-curvature="0" />
    <path
       style="fill:#f3d39f;fill-opacity:1;stroke:#ffffff;stroke-width:1px;stroke-linecap:butt;stroke-linejoin:miter;stroke-opacity:0"
       d="m 533.03002,454.62443 c -2.7761,0.16125 0.14859,-2.42654 -6.47078,-2.42654 -4.78868,0 -14.3541,0.60371 -16.98578,3.23538 -1.89867,1.89868 -1.43579,3.68043 -2.42654,5.66193 -0.86972,1.73945 -1.22472,4.43721 0,5.66193 1.56929,1.56929 12.77781,9.37869 12.94155,9.70616 2.02471,4.04943 -0.74324,9.77177 2.42654,12.94155 3.74035,3.74035 11.67487,-4.39525 12.1327,-4.85308"
       id="path5013"
       inkscape:connector-curvature="0" />
    <path
       style="fill:none;stroke:#604d2e;stroke-width:3;stroke-linecap:round;stroke-linejoin:round;stroke-opacity:1;stroke-miterlimit:4;stroke-dasharray:none"
       d="m 612.297,195.69638 c -6.64509,3.46386 -25.82623,5.28594 -32.35387,2.02211 -1.25222,-0.6261 -3.18583,-0.17743 -4.44866,-0.80884 -2.33216,-1.16608 -3.62255,-2.2157 -5.66193,-3.23539"
       id="path5679"
       inkscape:connector-curvature="0"
       transform="translate(0,308.2677)" />
    <path
       style="fill:#f7dbae;stroke:#ffffff;stroke-width:1px;stroke-linecap:butt;stroke-linejoin:miter;stroke-opacity:0;fill-opacity:1"
       d="m 820.73538,171.00957 c 1.52942,1.84106 -0.40811,5.88325 1.14388,7.43523 3.08213,3.08213 6.54726,4.2595 9.15106,6.8633 0.38129,0.38129 1.90647,-0.3813 2.28776,0 0.8816,0.8816 4.26587,0.8816 5.14747,0 1.16424,-1.16424 6.15062,0.71267 7.43523,-0.57195 1.04472,-1.04471 4.55339,-0.54979 5.71941,-1.71582 2.15308,-2.15308 7.66276,-4.23111 10.29494,-6.86329 3.56134,-3.56134 -4.10019,-8.91339 -5.71941,-9.723"
       id="path5792"
       inkscape:connector-curvature="0"
       transform="translate(0,308.2677)" />
    <path
       style="fill:#e5a52f;stroke:#ffffff;stroke-width:1px;stroke-linecap:butt;stroke-linejoin:miter;stroke-opacity:0;fill-opacity:1"
       d="m 489.35229,252.31565 c -1.2501,3.10783 -3.35199,11.09065 -1.61769,14.55924 2.20954,4.41908 0.83928,10.60632 2.42654,15.36809 7.60564,22.81692 8.5242,50.45899 0.80884,73.60506 -0.81746,2.45238 -3.79694,25.07425 -4.04423,25.07425 -2.07102,0 3.64852,-9.72359 4.04423,-10.51501 1.17304,-2.34607 0.45799,-5.76906 1.6177,-8.08847 3.07564,-6.15128 7.27962,-13.40818 7.27962,-21.03001 0,-6.03865 0.56286,-22.96458 3.23539,-28.30964 1.986,-3.97201 -5.41472,-44.801 -7.27963,-48.53081 -2.30224,-4.60449 -3.49905,-7.17983 -6.47077,-12.1327 z"
       id="path5802"
       inkscape:connector-curvature="0"
       transform="translate(0,308.2677)" />
    <path
       style="fill:#e5a52f;stroke:#ffffff;stroke-width:1px;stroke-linecap:butt;stroke-linejoin:miter;stroke-opacity:0;fill-opacity:1"
       d="m 525.75039,78.413598 c -0.80884,1.078462 -1.34807,4.044234 -2.42654,3.235387 -1.07846,-0.808847 3.37978,-4.188622 2.42654,-3.235387 -12.57931,12.579314 -12.63622,31.743232 -19.41232,45.295422 -2.4115,4.823 -1.34486,8.62448 -4.85308,12.1327 -2.0588,2.0588 -1.55977,7.2217 -3.23538,8.89731 -2.9325,2.9325 2.31921,12.18636 -0.80885,13.7504 -1.58313,0.79156 -0.41134,-1.22019 -0.80885,-1.6177 -4.71049,-4.71048 -2.41555,-24.28739 0.80885,-30.73617 1.69171,-3.38343 0.74646,-7.96369 2.42654,-11.32386 6.14301,-12.28603 11.35498,-30.586856 25.88309,-36.398102 z"
       id="path5804"
       inkscape:connector-curvature="0"
       transform="translate(0,308.2677)" />
    <path
       style="fill:#e5a52f;stroke:#ffffff;stroke-width:1px;stroke-linecap:butt;stroke-linejoin:miter;stroke-opacity:0;fill-opacity:1"
       d="m 524.1327,93.781686 c 2.39921,-1.600918 4.88112,-2.435887 7.27962,-3.235387 6.03674,-2.012247 12.27212,-5.327212 17.79463,-8.088467 2.33628,-1.168142 9.59795,0.917063 11.32386,-0.808847 0.30251,-0.302518 4.77146,-2.508157 5.66192,-1.617694 1.00753,1.007531 -4.37393,1.378122 -4.85308,1.617694 -4.0129,2.006449 -8.43436,3.350686 -12.94155,4.85308 -9.1987,3.066236 -13.72174,9.388354 -24.2654,7.279621 z"
       id="path5806"
       inkscape:connector-curvature="0"
       transform="translate(0,308.2677)" />
    <path
       style="fill:#e5a52f;stroke:#ffffff;stroke-width:1px;stroke-linecap:butt;stroke-linejoin:miter;stroke-opacity:0;fill-opacity:1"
       d="m 519.27962,115.62055 c 14.84797,-9.06934 31.0152,-14.92186 46.91311,-20.22117 1.01738,-0.339126 20.22117,-5.182941 20.22117,-3.235387 0,0.401085 -10.4258,2.786363 -14.55924,4.85308 -3.98971,1.994854 -8.968,2.057462 -12.94155,4.044237 -13.72775,6.86387 -22.85837,14.55924 -39.63349,14.55924 z"
       id="path5808"
       inkscape:connector-curvature="0"
       transform="translate(0,308.2677)" />
    <path
       style="fill:#e5a52f;fill-opacity:1;stroke:#ffffff;stroke-width:1px;stroke-linecap:butt;stroke-linejoin:miter;stroke-opacity:0"
       d="m 476.41075,448.9625 c -5.1132,5.63253 -4.36902,13.10703 -6.47078,19.41232 -3.4473,10.34191 -6.0257,28.02716 -2.42654,38.82464 1.10485,3.31455 3.23539,6.94039 3.23539,10.51501 0,4.5546 5.14422,32.06273 7.27962,29.92733 0.69373,-0.69373 -2.42654,-14.62551 -2.42654,-19.41232 0,-2.80546 -3.2189,-24.24892 -4.04423,-25.07425 -1.67728,-1.67727 3.4977,-47.41587 4.85308,-54.19273 z"
       id="path5810"
       inkscape:connector-curvature="0" />
    <path
       style="fill:#e5a52f;stroke:#ffffff;stroke-width:1px;stroke-linecap:butt;stroke-linejoin:miter;stroke-opacity:0;fill-opacity:1"
       d="m 507.14692,426.21771 c 1.66072,-0.64845 -1.42367,-2.8146 -0.80885,-4.04424 2.55096,-5.10191 3.02008,-10.67791 4.85308,-16.17693 1.63446,-4.90337 3.9685,-8.6701 5.66193,-13.7504 2.45197,-7.35592 4.85308,-33.52074 4.85308,-42.06003 0,-6.60533 -1.61769,-13.30928 -1.61769,-19.41232 0,-0.0935 -1.3842,-8.08847 -0.80885,-8.08847 0.48045,0 3.23539,22.99758 3.23539,25.07425 0,5.48614 3.61467,22.69798 0.80884,28.30964 -0.3047,0.60941 -4.85308,24.72771 -4.85308,25.07425 0,6.8635 -6.09515,14.61684 -8.89731,20.22116 -0.80885,1.6177 -1.75483,3.17381 -2.42654,4.85309 -0.51058,1.27644 0.53923,4.31384 -0.80885,4.04423 -1.34808,-0.26962 0.53923,-2.69616 0.80885,-4.04423 z"
       id="path5812"
       inkscape:connector-curvature="0"
       transform="translate(0,308.2677)" />
    <path
       style="fill:#c14421;stroke:#ffffff;stroke-width:1px;stroke-linecap:butt;stroke-linejoin:miter;stroke-opacity:0;fill-opacity:1"
       d="M 593.5625 211.125 C 593.11017 211.10647 592.60768 211.32982 592.0625 211.875 C 589.87774 214.05976 590.04634 221.77371 585.59375 224 C 583.57106 225.01135 570.28598 227.28597 574.28125 231.28125 C 577.81009 234.81009 588.41757 245.03987 584.78125 252.3125 C 579.83966 262.19568 568.57165 254.3548 562.96875 257.15625 C 551.2344 263.02342 571.28856 273.8271 573.46875 278.1875 C 574.9955 281.24099 571.14083 288.82833 572.65625 290.34375 C 573.44373 291.13123 578.18525 288.65513 579.9375 289.53125 C 582.65074 290.88787 585.95825 290.49475 588.84375 291.9375 C 591.12319 293.07722 599.31441 302.38075 600.15625 304.90625 C 600.81217 306.87402 601.82979 315.35771 600.15625 317.03125 C 599.17645 318.01105 586.92761 327.24011 590.46875 330.78125 C 596.67535 336.98786 613.39994 346.08143 609.0625 359.09375 C 606.48691 366.82052 602.35188 355.03125 600.96875 355.03125 C 600.61209 355.03125 599.68843 357.59188 599.34375 358.28125 C 597.9655 361.03775 593.71759 362.71934 591.28125 363.9375 C 587.37713 365.88956 582.82518 366.93116 579.125 368.78125 C 578.97659 368.85545 576.71875 368.72185 576.71875 368.78125 C 576.71875 370.32547 595.48102 370.77453 598.53125 376.875 C 601.653 383.1185 589.50568 403.41193 590.46875 404.375 C 594.68682 408.59307 605.8125 402.70412 605.8125 397.09375 C 605.8125 396.93173 605.74169 396.84549 605.625 396.78125 C 605.21477 395.64656 608.25103 394.41496 609.0625 393.0625 C 609.06509 393.05819 604.04648 388.69551 608.25 386.59375 C 609.50096 385.96827 613.4962 387.60004 617.9375 388.96875 C 618.67976 387.03006 619.47381 385.14614 620.375 383.34375 C 620.58162 382.93052 621.1143 378.75415 621.71875 373.375 C 617.60173 372.35227 611.94882 371.0711 613.09375 368.78125 C 613.73979 367.48916 617.99132 365.24316 622.875 362.46875 C 623.5882 355.30407 624.24342 348.20564 624.4375 344.5625 C 620.42143 346.43839 617.17108 348.57733 617.15625 348.5625 C 615.56496 346.97125 617.47221 342.40972 615.53125 340.46875 C 611.78907 336.72657 603.12919 331.30413 606.625 324.3125 C 608.8415 319.87949 612.89518 319.77558 617.46875 320.53125 C 617.29588 317.41133 618.84714 313.42342 618.40625 310.4375 C 618.40322 310.41698 618.40947 310.39542 618.40625 310.375 C 618.35539 310.13932 618.297 309.89668 618.25 309.65625 C 618.1757 309.40694 618.08334 309.16667 617.96875 308.9375 C 616.74935 306.49871 616.34375 302.91716 616.34375 300.03125 C 616.34375 299.77889 616.36785 299.53124 616.375 299.28125 C 616.36623 299.2628 616.35264 299.23654 616.34375 299.21875 C 615.89686 298.32498 615.51827 297.81661 615.15625 297.4375 C 614.67516 297.3383 614.24147 297.14772 613.90625 296.8125 C 611.82656 294.73281 601.4032 285.29535 596.9375 283.0625 C 593.91349 281.5505 587.89371 282.92496 585.59375 280.625 C 581.1994 276.23065 587.11658 272.50762 592.0625 274.15625 C 596.17261 275.52629 601.48216 285.79909 605.03125 282.25 C 607.08227 280.19898 602.59375 274.01932 602.59375 271.71875 C 602.59375 270.02708 605.55749 261.74499 605.03125 261.21875 C 603.60704 259.79454 597.96276 259.94947 600.15625 255.5625 C 602.71839 250.43823 608.41331 245.82881 614.4375 241.34375 C 614.31792 239.68968 614.71875 237.3477 614.71875 236.125 C 614.71875 235.83943 614.74175 235.56447 614.75 235.28125 C 613.74673 233.92091 612.96088 232.55588 612.0625 230.8125 C 610.07533 231.07892 608.53171 231.28125 608.25 231.28125 C 599.17887 231.28125 610.10596 220.1997 608.25 218.34375 C 605.5876 215.68134 599.02762 217.99637 596.9375 215.90625 C 596.63665 215.6054 595.52262 211.20531 593.5625 211.125 z M 605.8125 397.09375 C 606.26233 397.54358 606.77987 397.02983 607.3125 396.28125 C 606.73764 396.5492 606.17669 396.8024 605.8125 397.09375 z M 609.4375 393.65625 C 608.82425 393.76549 608.067 395.22285 607.34375 396.25 C 608.88778 395.53252 610.65562 394.85078 609.875 393.875 C 609.74019 393.70649 609.59081 393.62894 609.4375 393.65625 z "
       transform="translate(0,308.2677)"
       id="path5882" />
    <path
       style="fill:#a63218;stroke:#ffffff;stroke-width:1px;stroke-linecap:butt;stroke-linejoin:miter;stroke-opacity:0;fill-opacity:1"
       d="M 499.0625 160.09375 C 499.49672 162.01567 500.26244 163.73119 501.5 164.96875 C 502.57846 166.04721 501.20279 169.54654 502.28125 170.625 C 502.52151 170.86526 502.57653 171.20312 502.5 171.59375 C 502.25034 172.16875 502.08167 172.58292 501.90625 172.96875 C 501.89188 173.00035 501.88878 173.03236 501.875 173.0625 C 501.37021 173.89343 500.75503 174.58871 500.6875 174.65625 C 499.12087 176.22288 502.7648 182.74014 503.09375 183.5625 C 503.17435 183.54487 503.26219 183.54611 503.34375 183.53125 C 504.73806 186.58352 506.4025 189.2775 507.15625 190.03125 C 508.16281 191.03781 505.05571 193.7568 504.71875 194.09375 C 503.31342 195.49908 503.90625 200.29951 503.90625 202.96875 C 503.90625 206.67455 512.17459 213.50635 509.75 219.5 C 511.95738 223.91984 514.7507 229.1882 517.65625 232.09375 C 523.42207 237.85957 531.74427 252.95728 535.46875 260.40625 C 536.22367 261.91609 534.71383 264.55266 535.46875 266.0625 C 536.98546 269.09591 539.09929 271.83587 541.40625 274.46875 C 541.61358 273.52478 541.81195 272.78235 541.9375 272.53125 C 545.10273 266.20079 542.0149 261.95384 547.59375 256.375 C 550.12654 253.84221 562.15625 250.82889 562.15625 246.65625 C 562.15625 238.22992 548.83533 251.69171 547.59375 252.3125 C 543.93174 254.1435 530.95736 246.53971 529 242.625 C 524.48859 233.60218 545.37317 240.89154 548.40625 239.375 C 557.09141 235.03243 538.40764 234.24723 543.53125 224 C 545.56281 219.93688 563.40946 214.75321 562.15625 213.5 C 560.96321 212.30696 559.8977 210.42895 558.90625 209.4375 C 557.82779 208.35904 553.51596 210.51597 552.4375 209.4375 C 546.20253 203.20254 538.35322 218.82197 533.03125 213.5 C 532.49201 212.96077 532.75798 211.60173 532.21875 211.0625 C 530.27778 209.12153 527.34125 209.435 525.75 207.84375 C 523.93279 206.02653 518.90551 207.46801 516.84375 205.40625 C 510.47999 199.04249 519.00208 194.09375 525.75 194.09375 C 526.51868 194.09375 537.42913 194.42913 534.65625 191.65625 C 531.42649 188.4265 528.23499 184.39874 523.3125 181.9375 C 517.32531 178.94391 508.6415 180.20399 503.90625 175.46875 C 502.15803 173.72053 504.01137 170.12788 503.09375 167.375 C 502.28547 164.95018 500.22757 162.42388 499.0625 160.09375 z M 559.71875 282.25 C 559.63214 282.16339 554.36068 282.90718 549.40625 283.15625 C 551.85921 285.91333 554.09977 288.76204 555.6875 291.9375 C 556.66871 293.89991 555.83256 303.82476 554.8125 311.25 C 555.6943 309.55256 558.4198 307.47291 558.90625 306.5 C 559.14854 306.01543 563.74451 287.05701 561.34375 284.65625 C 560.93852 284.25102 560.24901 282.78027 559.71875 282.25 z M 579.9375 308.9375 C 578.09986 309.85633 577.08575 313.08012 574.28125 313.78125 C 572.93353 314.11817 555.69388 313.78763 554.875 312.96875 C 554.77284 312.86659 554.67798 312.77189 554.625 312.65625 C 554.13096 316.00032 553.6181 318.7013 553.25 319.4375 C 552.17716 321.58318 558.57639 332.64583 556.5 338.875 C 553.67112 347.36163 550.82439 354.22622 546.78125 362.3125 C 542.68495 370.50508 555.19713 375.92551 558.09375 381.71875 C 560.69954 386.93033 557.90879 395.09882 560.53125 400.34375 C 561.60928 402.4998 560.15219 408.99816 558.5 415.90625 C 558.64243 415.56187 558.75666 415.20543 558.90625 414.90625 C 560.84213 411.03449 577.91473 403.94597 576.71875 402.75 C 575.08569 401.11694 571.20641 400.48766 569.4375 398.71875 C 568.89303 398.17427 572.23927 382.11426 568.625 378.5 C 568.08577 377.96077 566.72673 378.22673 566.1875 377.6875 C 561.7924 373.2924 560.71954 367.78046 565.375 363.125 C 566.72131 361.77868 565.4937 357.58745 566.1875 358.28125 C 570.78774 362.88149 582.23578 360.93469 584.78125 355.84375 C 586.22108 352.96408 582.21135 343.5551 580.75 342.09375 C 578.15625 339.49999 572.04926 344.911 568.625 338.0625 C 563.9053 328.6231 592.99295 321.26716 589.65625 314.59375 C 589.14889 313.57904 580.13837 308.83707 579.9375 308.9375 z M 585.4375 407.6875 C 583.48916 407.68433 581.84261 407.87729 581.5625 408.4375 C 580.91542 409.73165 582.20958 411.98709 581.5625 413.28125 C 581.42084 413.56457 581.30139 413.83907 581.1875 414.125 C 583.02908 417.6512 587.83392 425.96849 592.5 433.3125 C 591.19893 429.3944 592.0625 422.98329 592.0625 419.75 C 592.0625 416.6193 594.30441 411.29632 592.875 408.4375 C 592.77191 408.23132 588.68474 407.69279 585.4375 407.6875 z M 556.125 426.3125 C 555.26394 430.67063 554.86601 434.29453 555.6875 435.9375 C 555.80545 436.1734 555.94752 436.36588 556.09375 436.53125 C 555.73711 433.25927 555.77235 429.69875 556.125 426.3125 z "
       transform="translate(0,308.2677)"
       id="path5900" />
    <path
       style="fill:#f3d39f;stroke:#ffffff;stroke-width:1px;stroke-linecap:butt;stroke-linejoin:miter;stroke-opacity:0;fill-opacity:1"
       d="M 779 175 L 749.125 204.875 C 746.11934 207.88066 742.16608 216.05267 737.8125 220.40625 C 727.3633 230.85545 714.17972 242.63278 703.875 252.9375 C 697.93986 258.87264 687.23244 263.92381 682.65625 268.5 C 679.88463 271.27162 675.06054 272.28214 669.09375 272.21875 C 670.76959 273.21747 672.93895 274.14136 674.59375 274.96875 C 676.49996 275.92186 685.70078 272.63399 687.53125 271.71875 C 698.47267 266.24804 706.68252 261.75248 717.4375 256.375 C 725.41501 252.38624 738.41188 253.99436 744.125 248.28125 C 747.19207 245.21418 743.08927 237.41519 744.9375 233.71875 C 746.17379 231.24617 747.77983 228.87783 749 226.4375 C 754.53407 215.36936 774.0625 219.12934 774.0625 201.34375 C 774.0625 188.83813 774.71918 195.18663 779.71875 185.1875 C 781.27671 182.07156 777.99383 177.85715 779 175 z "
       transform="translate(0,308.2677)"
       id="path5936" />
    <path
       style="fill:#f3d39f;stroke:#ffffff;stroke-width:1px;stroke-linecap:butt;stroke-linejoin:miter;stroke-opacity:0;fill-opacity:1"
       d="M 441.71875 269.15625 C 422.52337 270.74919 380.22824 339.14505 382.6875 376.21875 C 376.9525 388.98224 374.84061 406.40763 376.4375 419.6875 C 378.23203 434.6109 379.10109 468.0476 387.6875 483.53125 C 389.10033 496.91497 393.35996 503.72136 397.84375 515.1875 C 400.86647 522.91735 404.98541 536.22311 409.3125 543.875 C 415.02097 553.96966 416.79068 563.53736 423.65625 570.34375 C 423.87178 571.26892 424.1119 571.95603 424.4375 572.25 C 425.30346 573.03183 427.16531 572.71817 428.03125 573.5 C 429.71547 575.02058 436.01127 573.51134 441.9375 570.9375 C 440.22859 567.14951 434.78836 558.50711 434.34375 558.0625 C 433.13128 556.85003 430.19235 555.50485 428.6875 554 C 426.70195 552.01445 425.82931 547.92305 423.84375 545.9375 C 420.33368 542.42743 417.85862 539.6235 414.9375 533.78125 C 413.50828 530.92282 412.46605 512.7473 411.6875 511.96875 C 407.65381 507.93506 403.36982 499.89069 401.1875 493.34375 C 399.55844 488.45656 399.43238 476.11477 397.9375 473.125 C 396.84733 470.94467 391.91293 461.73663 393.09375 459.375 C 395.67656 454.20937 401.09772 433.35171 397.9375 427.03125 C 396.68212 424.5205 393.98797 421.62017 393.09375 418.9375 C 392.38172 416.80142 391.89125 414.485 390.6875 413.28125 C 389.84106 412.43481 391.56382 391.24737 392.28125 389.8125 C 393.34702 387.68096 394.40088 373.79733 395.53125 370.40625 C 398.24257 362.27227 400.89678 353.98768 405.21875 345.34375 C 405.5807 344.61984 405.6073 340.8927 406.03125 340.46875 C 408.37845 338.12155 418.7787 323.83418 422.21875 322.6875 C 431.64228 319.54632 434.19826 311.5205 440.8125 304.90625 C 444.10884 301.60992 450.872 297.253 454.5625 293.5625 C 457.20686 290.91814 458.59303 286.86001 459.15625 282.40625 C 454.02411 277.37515 448.48303 272.97798 446.0625 270.25 C 444.8136 269.37502 443.33771 269.02191 441.71875 269.15625 z "
       transform="translate(0,308.2677)"
       id="path5941" />
  </g>
</svg>
