<?xml version="1.0" encoding="UTF-8" standalone="no"?>
<!-- Created with Inkscape (http://www.inkscape.org/) -->

<svg
   xmlns:dc="http://purl.org/dc/elements/1.1/"
   xmlns:cc="http://creativecommons.org/ns#"
   xmlns:rdf="http://www.w3.org/1999/02/22-rdf-syntax-ns#"
   xmlns:svg="http://www.w3.org/2000/svg"
   xmlns="http://www.w3.org/2000/svg"
   xmlns:sodipodi="http://sodipodi.sourceforge.net/DTD/sodipodi-0.dtd"
   xmlns:inkscape="http://www.inkscape.org/namespaces/inkscape"
   width="1052.3622"
   height="744.09448"
   id="svg3887"
   version="1.1"
   inkscape:version="0.48.3.1 r9886"
   sodipodi:docname="pause_stream.svg"
   inkscape:export-filename="/home/substack/projects/talks/lxjs_2012/images/pause_stream.png"
   inkscape:export-xdpi="100"
   inkscape:export-ydpi="100">
  <defs
     id="defs3889" />
  <sodipodi:namedview
     id="base"
     pagecolor="#21220c"
     bordercolor="#666666"
     borderopacity="1.0"
     inkscape:pageopacity="1"
     inkscape:pageshadow="2"
     inkscape:zoom="0.49497475"
     inkscape:cx="263.03917"
     inkscape:cy="474.74768"
     inkscape:document-units="px"
     inkscape:current-layer="layer1"
     showgrid="false"
     inkscape:window-width="1364"
     inkscape:window-height="766"
     inkscape:window-x="0"
     inkscape:window-y="0"
     inkscape:window-maximized="0" />
  <metadata
     id="metadata3892">
    <rdf:RDF>
      <cc:Work
         rdf:about="">
        <dc:format>image/svg+xml</dc:format>
        <dc:type
           rdf:resource="http://purl.org/dc/dcmitype/StillImage" />
        <dc:title></dc:title>
      </cc:Work>
    </rdf:RDF>
  </metadata>
  <g
     inkscape:label="Layer 1"
     inkscape:groupmode="layer"
     id="layer1"
     transform="translate(0,-308.2677)">
    <path
       style="fill:#6c5353;stroke:#ffffff;stroke-width:1px;stroke-linecap:butt;stroke-linejoin:miter;stroke-opacity:0"
       d="m 356.88811,436.73732 c -0.5172,0.0632 -0.98661,0.26786 -1.34375,0.625 -2.03577,2.03577 -4.1338,3.98667 -6.28125,5.9375 -4.22284,1.54592 -10.8539,-1.64245 -15.125,-0.21875 -24.4767,8.1589 -56.13529,4.28125 -82.875,4.28125 -17.94178,0 -62.47214,2.00929 -77.125,-2.875 -9.42857,-3.14286 -22.00893,3.14286 -31.4375,0 -11.15244,-3.71748 -31.61309,-4.28125 -44.281245,-4.28125 -2.39838,0 -7.027054,-3.6271 -8.593754,-2.84375 -8.80258,4.40129 -20.6653,24.94655 -28.5625,32.84375 -26.15378,26.15379 -28.33942,72.14327 -41.4375,111.4375 -2.85633,8.56901 2.19695,19.77471 0,28.5625 -1.08427,4.3371 -2.96498,11.04257 -1.40625,15.71875 4.26602,12.79814 0.98489,26.81458 4.28125,40 2.93493,11.73971 1.93942,25.81826 5.71875,37.15625 3.44973,10.34918 4.80587,32.48675 8.5625,40 4.94164,9.88329 6.30401,26.88926 10,34.28125 9.28039,18.56079 15.76026,38.18839 26.59375,53.9375 1.46087,3.54191 3.16115,7.2549 6.25,10.34375 8.60751,8.60751 34.954539,28.5625 51.437499,28.5625 10.60766,0 27.95586,2.55605 37.15625,7.15625 5.23293,2.61646 73.96635,1.72115 77.125,-1.4375 4.52381,-4.52381 21.19494,3.0863 25.71875,-1.4375 2.53566,-2.53566 24.32833,-0.0471 28.5625,-4.28125 1.55159,-1.55159 40.74573,-5.02698 45.71875,-10 l 22.875,-22.84375 c 1.66667,-1.66667 1.17709,-5.48958 2.84375,-7.15625 7.67289,-7.67288 10.08515,-14.33515 17.15625,-21.40625 2.35711,-2.35711 4.56429,-7.34139 6.8125,-13.1875 13.03935,-19.70045 23.60871,-42.45111 34.59375,-75.40625 1.75875,-5.27623 2.34017,-11.04273 2.625,-16.96875 4.08223,-10.14474 4.1655,-22.29974 8.8125,-31.59375 3.53162,-7.06324 0.099,-21.63557 4.28125,-30 2.71362,-5.42724 2.15865,-18.44716 1.03125,-31.34375 0.32842,-9.71221 -0.61744,-19.34631 -2.4375,-28.78125 0.0242,-4.93679 2.25666,-36.18083 1.40625,-37.03125 -8.91493,-8.91493 -13.82284,-48.10409 -18.5625,-52.84375 -10.16949,-10.16949 -11.38827,-24.23202 -20,-32.84375 -3.89197,-3.89197 -12.38207,-11.22229 -18.5625,-14.3125 -2.93764,-1.46882 -15.73645,-3.21282 -22.125,-4.59375 -0.20439,-0.41435 -0.44063,-0.78438 -0.75,-1.09375 -0.55829,-0.55829 -1.77933,-0.61628 -3.34375,-0.34375 -1.03561,-0.64832 -3.49748,-1.94037 -5.3125,-1.71875 z"
       id="path3895"
       inkscape:connector-curvature="0" />
    <path
       style="fill:#0ab8b8;fill-opacity:1;stroke:#ffffff;stroke-width:1px;stroke-linecap:butt;stroke-linejoin:miter;stroke-opacity:0"
       d="m 39.395951,697.79865 c 0.87986,16.50189 10.05793,64.60617 20.20305,74.75129 2.63623,2.63622 1.79661,7.85752 4.04061,10.10152 0.64076,0.64075 -0.42052,3.19957 0,4.04061 3.79741,7.59482 6.50848,16.61 12.12184,22.22336 3.21241,3.21242 5.1793,13.26053 9.09137,17.17259 6.00526,6.00527 15.399669,12.24552 23.233509,16.16244 1.63773,0.81887 4.84497,-0.20579 6.06091,1.01016 2.99386,2.99385 6.34172,6.34172 9.09137,9.09137 2.93799,2.93798 35.25782,6.97354 38.3858,10.10152 1.29567,1.29567 39.9789,-0.58294 40.4061,-1.01015 0.17079,-0.17079 65.22507,-0.5753 66.67007,-2.0203 2.52538,-2.52539 10.6066,0.50507 13.13198,-2.02031 5.02817,-5.02817 54.95671,-10.50999 60.60916,-16.16244 3.66228,-3.66228 7.70301,-4.67256 11.11168,-8.08122 4.20759,-4.2076 13.89506,-14.90522 19.19289,-20.20305 4.48531,-4.48531 14.89278,-29.78555 18.18275,-36.36549 0.58332,-1.16664 1.25894,-5.29956 2.0203,-6.06092 4.58663,-4.58662 7.13031,-10.22 10.10153,-16.16244 4.02035,-8.04071 26.84366,-61.03961 17.17259,-70.71068 -6.39302,-6.39302 -35.63999,13.49473 -48.48732,7.07107 -4.823,-2.4115 -51.04917,-14.61074 -54.54824,-11.11168 -1.59984,1.59984 -27.80384,5.79606 -31.31473,4.04061 -2.41313,-1.20656 -5.78357,0.13867 -8.08122,-1.01015 -9.84625,-4.92312 -21.5887,-5.42626 -29.29442,-13.13198 -0.42017,-0.42017 -7.72144,-2.38008 -9.09137,-1.01016 -4.80194,4.80194 -42.56855,16.59645 -51.51778,12.12184 -4.4213,-2.21066 -39.10182,-11.76383 -40.4061,-11.11168 -13.80552,6.90276 -28.9977,13.13198 -45.45686,13.13198 -8.856169,0 -46.051979,-9.50642 -51.517789,-4.04061 -1.98712,1.98711 -3.92412,4.93426 -6.06092,7.07107 -5.56612,5.56612 -6.54327,4.65928 -5.05076,12.12183 z"
       id="path3900"
       inkscape:connector-curvature="0" />
    <path
       style="fill:#6c5353;fill-opacity:1;stroke:#ffffff;stroke-width:1px;stroke-linecap:butt;stroke-linejoin:miter;stroke-opacity:0"
       d="m 305.35138,814.44987 c 3.42178,-1.34723 12.29925,20.96383 21.79105,31.61709 4.69637,5.27103 10.50789,10.36681 13.53704,16.45693 1.70016,3.41818 6.77387,5.72871 8.40973,9.0176 5.94884,11.96017 33.69702,52.7683 41.45568,55.37256 4.07084,1.36642 7.26661,-5.00828 9.29915,-6.40913 9.62137,-6.63122 36.31926,-23.28471 40.77545,-29.20049 0.96062,-1.27525 5.75993,-1.71069 6.72055,-2.98594 2.01194,-2.67093 -3.26381,-7.12371 -4.26778,-8.58038 -2.19252,-3.18117 -25.46948,-28.76053 -25.79223,-31.05402 -0.54416,-3.86685 -8.99836,-7.4835 -11.83292,-11.59621 -8.41866,-12.21481 -24.81376,-32.99974 -37.62515,-42.65023 -5.37546,-4.04919 -7.2805,-15.32108 -11.81796,-18.73905 -1.72713,-1.30099 -9.91775,6.0432 -11.15897,7.69097 -7.51453,9.97582 -22.05251,12.6552 -28.6162,21.36875 -0.42977,0.57054 -2.57112,-0.14823 -3.00089,0.4223 -2.44031,3.23961 -4.01865,5.42746 -7.87655,9.26925 z"
       id="path4410"
       inkscape:connector-curvature="0" />
    <path
       style="fill:#0ab8b8;fill-opacity:1;stroke:#ffffff;stroke-width:1px;stroke-linecap:butt;stroke-linejoin:miter;stroke-opacity:0"
       d="m 342.20508,774.46313 c -3.1551,-0.40037 -27.63427,19.24194 -28.0625,20.3125 -0.63765,1.59413 -0.66328,3.37891 -1,5.0625 2.62983,4.89013 15.41953,27.54452 25.25,37.375 4.40299,4.40298 4.16714,11.1984 8.09375,15.125 2.0437,2.04371 5.19198,4.19197 7.0625,6.0625 1.99033,1.99033 2.97063,7.00189 5.0625,9.09375 1.9318,1.93181 4.5378,2.0131 6.0625,5.0625 2.07783,4.15565 7.33157,7.33158 10.09375,10.09375 2.26886,2.26887 3.00625,7.0375 5.0625,9.09375 0.70106,0.70106 1.62502,1.51786 2.6875,2.34375 0.0107,10e-4 0.0205,-10e-4 0.0312,0 3.36391,0.32946 8.17752,2.91623 10.40625,0.6875 8.37842,-8.37842 12.33512,1.57975 22.21875,-18.1875 5.92497,-11.84996 -20.21875,-27.84688 -20.21875,-33.3125 0,-0.92464 0.0863,-1.90992 0.21875,-2.90625 -5.24169,-5.51345 -10.36197,-13.33072 -15.34375,-18.3125 -2.13769,-2.13769 -2.51931,-7.58181 -5.0625,-10.125 l -23.25,-23.21875 c -3.55607,-3.55607 -5.47385,-10.5676 -9.0625,-14.15625 -0.0559,-0.0559 -0.14822,-0.0808 -0.25,-0.0937 z"
       id="path4412"
       inkscape:connector-curvature="0" />
    <path
       style="fill:#6c5353;fill-opacity:1;stroke:#ffffff;stroke-width:1px;stroke-linecap:butt;stroke-linejoin:miter;stroke-opacity:0"
       d="m 471.89258,831.18188 c -4.05977,2.61366 -7.67465,5.34527 -9.625,8.28125 -0.82693,1.24485 -2.80744,1.69248 -4.6875,2.125 -0.28906,-0.32124 -0.58888,-0.61217 -0.9375,-0.84375 -0.8004,-0.53169 -4.65444,4.4479 -5.125,5.15625 -2.97596,4.4799 -12.45608,7.10664 -15.25,11.3125 -3.60121,5.42109 -8.06145,8.14873 -13.84375,13.09375 0.37967,1.88225 6.47023,14.16306 6.96875,14.0625 1.76648,-0.35632 4.0599,-4.87844 5.9375,-6.34375 7.39605,-5.77204 21.42682,-11.6621 26.09375,-18.6875 0.82256,-1.23828 2.81619,-1.69468 4.6875,-2.125 0.29003,0.32275 0.58751,0.61126 0.9375,0.84375 0.8004,0.53169 4.68569,-4.4479 5.15625,-5.15625 2.39351,-3.6031 8.99179,-6.00871 12.9375,-9 0.0973,-3.20721 -0.0572,-6.49472 -2.28125,-8.71875 -2.35238,-2.35238 -10.08436,-3.67998 -10.96875,-4 z"
       id="path4422"
       inkscape:connector-curvature="0" />
    <path
       style="fill:#ff0000;stroke:#ffffff;stroke-width:1px;stroke-linecap:butt;stroke-linejoin:miter;stroke-opacity:0"
       d="m 464.18477,798.74438 c -0.61266,0.01 -1.23203,0.0514 -1.84375,0.125 -2.40396,0.28926 -4.76873,1.08385 -7.125,2.46875 -4.32686,2.54311 -6.55067,2.55382 -7.46875,9.59375 -2.69823,11.53506 4.87566,20.63122 8.1875,30.875 1.20091,3.71452 5.31031,6.22467 6.71875,9.65625 7.61846,18.56205 31.26653,29.33514 43.5625,15.25 1.99734,-2.28798 0.42131,-5.68171 1.46875,-8.1875 1.47169,-3.5208 2.76208,-10.98803 1,-15.28125 -6.27019,-15.27705 -25.50759,-44.80876 -44.5,-44.5 z m 4.5625,12.3125 c 0.4784,-0.0279 0.92676,0.0695 1.3125,0.40625 1.70469,1.48815 6.00348,5.91745 10.59375,11.40625 -1.41409,2.68084 -2.47357,6.58858 -3.25,10.625 -6.14033,-6.97984 -11.45067,-14.80933 -15.75,-16.9375 0.23068,-1.90686 1.01041,-3.24191 2.4375,-3.6875 1.48247,-0.40249 3.22103,-1.72889 4.65625,-1.8125 z m -7.09375,8.1875 c 4.86471,7.46835 9.95077,13.0761 15.09375,18.21875 -0.6441,4.40419 -0.96875,8.51002 -0.96875,10.84375 0,0.12302 0.002,0.22525 0,0.34375 -7.30811,-8.3612 -13.44598,-21.53511 -14.125,-29.40625 z m 24.0625,10 c 4.55006,6.11726 8.51258,12.6522 9.53125,17.71875 -1.46982,-1.23291 -2.86583,-2.24083 -3.3125,-2.6875 -2.49918,-2.49918 -6.61572,-3.65183 -9.71875,-5.9375 1.25137,-3.30672 2.45614,-6.36829 3.5,-9.09375 z m -4.71875,12.40625 c 2.63718,2.53249 5.27326,5.02326 7.90625,7.65625 0.27346,0.27346 2.92083,2.31418 5.46875,3.78125 -0.0683,0.0896 -0.11267,0.19553 -0.1875,0.28125 -4.59353,5.26193 -10.55206,3.06202 -16.125,-2.34375 0.69967,-2.91468 1.77598,-6.14287 2.9375,-9.375 z"
       id="path4469"
       inkscape:connector-curvature="0" />
    <path
       style="fill:#ac9393;fill-opacity:1;stroke:#ffffff;stroke-width:1px;stroke-linecap:butt;stroke-linejoin:miter;stroke-opacity:0"
       d="m 420.22346,868.51443 c -0.0541,2.55555 -6.77261,4.7523 -12.12183,10.10152 -4.88971,4.8897 -11.61149,7.57088 -16.16244,12.12183 -2.17178,2.17178 -4.45457,3.44442 -7.07107,6.06092 -0.0644,0.0644 6.94819,15.27516 9.09137,13.13198 6.82734,-6.82733 19.72938,-11.64816 27.27412,-19.1929 2.36304,-2.36304 9.0629,-4.01214 11.11168,-6.06091 1.25291,-1.25292 -9.30128,-14.75217 -12.12183,-16.16244 z"
       id="path4479"
       inkscape:connector-curvature="0" />
    <path
       style="fill:#ff0000;fill-opacity:1;stroke:#ffffff;stroke-width:1px;stroke-linecap:butt;stroke-linejoin:miter;stroke-opacity:0"
       d="m 569.01758,633.86938 c -3.18203,-0.0408 -8.99239,1.3125 -11.40625,1.3125 -3.78559,-2.30119 -6.95056,2.88806 -14.15625,10.09375 -5.27138,5.27139 -7.42669,15.48918 -9.09375,17.15625 -16.94573,16.94572 6.50559,58.44867 14.15625,73.75 0.45665,0.9133 0.88055,1.96165 1.3125,3.0625 -3.75852,2.26099 -8.8147,3.73547 -11.40625,5.03125 -0.90049,0.45025 -2.15695,2.02338 -3.03125,2.875 0.66432,0.31698 1.48892,0.90071 2,1.15625 3.13939,1.56969 8.76984,0.67609 11.125,3.03125 3.84709,3.84709 14.68547,4.59172 18.1875,8.09375 1.00551,1.00551 10.01948,7.13677 10.09375,7.0625 4.05704,-4.05704 -0.75896,-15.63834 2.03125,-21.21875 2.14787,-4.29574 2,-11.06357 2,-16.15625 0,-1.08289 2.2168,-5.87695 2.03125,-6.0625 -0.75266,-0.75266 -0.99138,1 -2.03125,1 -3.12332,0 -7.66011,3.04902 -12.75,5.84375 -4.56291,-8.00871 -6.28269,-26.87645 -11.5,-32.09375 -2.64862,-2.64863 -1.29198,-11.67772 -3.03125,-15.15625 -0.66066,-1.32133 -2.49966,-9.62534 -1,-11.125 2.39605,-2.39605 2.94517,-8.03508 7.0625,-10.09375 11.35157,-5.67578 22.68845,-2.56155 30.3125,5.0625 0.82415,0.82415 6.77103,8.0625 7.0625,8.0625 0.45852,0 7.2516,-8.2516 8.09375,-9.09375 0.63939,-0.63938 8.07505,-4.04995 6.0625,-6.0625 -4.8874,-4.8874 -11.15456,-10.1233 -16.15625,-15.125 -1.59399,-1.59399 -5.53751,-2.53751 -7.0625,-4.0625 -1.88679,-1.88679 -13.60664,-4.27207 -17.1875,-6.0625 -0.37764,-0.18882 -0.98444,-0.27184 -1.71875,-0.28125 z m -33.625,113.28125 c -0.57361,-0.2737 -1.03125,-0.33713 -1.03125,0.15625 0,0.67682 0.44349,0.41626 1.03125,-0.15625 z"
       id="path4532"
       inkscape:connector-curvature="0" />
    <path
       style="fill:#ff0000;fill-opacity:1;stroke:#ffffff;stroke-width:1px;stroke-linecap:butt;stroke-linejoin:miter;stroke-opacity:0"
       d="m 684.89258,747.30688 c -0.0165,1.55089 -1.64885,8.6197 -3.84375,15.96875 -0.0743,0.0563 -0.1525,0.12125 -0.21875,0.1875 -0.11214,0.11214 -0.10932,0.48018 -0.0937,0.9375 -1.50308,4.91391 -3.24809,9.80868 -4.9375,13.1875 -2.61382,5.22764 -6.11142,12.125 -6.0625,12.125 5.68192,0 11.45839,-1.51602 17.09375,-3.03125 4.44739,10.31705 -1.09545,33.50171 -4.96875,37.375 -2.77478,2.77478 -29.99392,4.20616 -34.34375,2.03125 -2.50499,-1.2525 -10.32762,-6.96119 -12.125,-6.0625 -4.14982,2.07491 -3.23467,8.29717 -6.0625,11.125 -10.25167,10.25167 4.55402,-3.88112 -3.03125,5.03125 10.66059,4.26424 15.2424,6.1212 25.25,11.125 1.34687,0.67344 11.77813,1.32657 13.125,2 16.92231,8.46116 23.59374,1.68751 32.34375,-7.0625 1.85195,-1.85195 5.21056,-7.24181 7.0625,-9.09375 7.18724,-7.18724 7.55387,-31.67104 3.65625,-50.53125 5.3575,-1.34337 13.40623,-3.49563 14.40625,-3.125 -0.50236,-0.75195 -2.52376,-4.55502 -2.90625,-4.9375 -1.89545,-1.89546 -4.57703,-5.54579 -7.09375,-8.0625 -4.91128,-4.91128 -19.32013,-17.20503 -27.25,-19.1875 z"
       id="path4534"
       inkscape:connector-curvature="0" />
    <path
       style="fill:#ffff00;stroke:#ffffff;stroke-width:0.95957994px;stroke-linecap:butt;stroke-linejoin:miter;stroke-opacity:0"
       d="m 470.24749,602.62648 c -0.61976,-0.73151 -4.35758,-0.48902 -9.69321,4.84661 -5.6993,5.69929 8.54748,21.89795 17.44779,17.44779 12.69739,-6.34869 5.79552,-25.00443 -7.75458,-22.2944 z"
       id="path4588"
       inkscape:connector-curvature="0" />
    <path
       style="fill:#ffff00;stroke:#ffffff;stroke-width:0.95957994px;stroke-linecap:butt;stroke-linejoin:miter;stroke-opacity:0"
       d="m 506.59938,543.24951 c -2.06136,-0.0667 -5.5955,1.83818 -6.59711,2.33898 -3.77886,1.88943 -12.00226,-0.59222 -14.54363,1.94915 -1.16498,1.16497 0.95958,3.21034 0.95958,4.85787 l 0,14.54363 c 2.44972,10.97828 3.85751,22.46494 1.94915,33.91516 -2.07377,12.44259 4.99159,27.63657 0.95958,39.7326 -2.21097,6.63293 -2.90873,17.39619 -2.90873,24.2294 0,3.01199 -0.61411,8.14205 0.95958,9.71575 1.08847,1.08847 23.26981,-2.56989 23.26981,-0.98957 l 0,-5.81745 0,-15.50322 c 0,-4.91039 -3.57803,-43.60091 -1.91916,-43.60091 1.02176,0 0.50263,1.99483 0.95958,2.90872 0.82927,1.65855 3.89006,2.9005 4.85788,3.86831 1.29363,1.29363 15.57018,5.28918 18.41194,3.86831 15.24309,-7.62155 25.18897,-21.87376 25.18897,-40.69219 0,-3.8858 0.66777,-9.36977 -0.95958,-12.62447 -1.78958,-3.57916 -3.89968,-8.75755 -6.77703,-11.63491 -4.86013,-4.86013 -19.35061,-7.28227 -26.17854,-3.86831 -2.3144,1.1572 -6.10107,-0.70595 -7.7666,0.95958 -1.44924,1.44924 -4.51387,2.59471 -5.81746,3.8983 -0.28403,0.28403 -1.589,3.8683 -2.90872,3.8683 -3.00157,0 3.21723,-12.28598 0,-15.50321 -0.26722,-0.26721 -0.6638,-0.40443 -1.13951,-0.41982 z m 11.63491,22.90997 c 8.95406,-0.43459 20.38222,5.28997 23.44974,11.425 0.95164,1.9033 -0.35115,5.17905 -0.98957,5.81746 -1.34787,1.34787 -0.19333,5.0512 -1.91916,6.77703 -4.11899,4.11899 -20.36825,11.62775 -27.13812,4.85787 -0.8109,-0.81091 -4.90109,-0.0432 -5.81745,-0.95958 -0.10288,-0.10287 0.52658,-18.72483 1.91916,-21.32066 1.77187,-4.42968 5.80518,-6.36946 10.4954,-6.59712 z"
       id="path4603"
       inkscape:connector-curvature="0" />
    <path
       style="fill:#ffff00;stroke:#ffffff;stroke-width:0.95957994px;stroke-linecap:butt;stroke-linejoin:miter;stroke-opacity:0"
       d="m 603.1025,543.4078 c -1.68858,-0.11469 -3.44686,-0.0639 -4.97754,-0.15894 -20.13198,-1.25039 -37.54813,13.12584 -35.26249,25.96171 1.11183,0.52687 2.12767,1.31154 3.32642,1.58865 0.25706,0.0594 0.61357,0.0516 0.99139,0.002 3.88814,2.40062 9.87763,3.32816 11.25579,2.11119 1.0969,-0.96861 3.16569,-2.14483 4.31222,-3.15726 1.21097,-1.06935 0.47602,-4.32404 1.68699,-5.3934 4.19264,-3.70229 7.23208,-4.71787 12.10904,-6.78911 3.83605,-1.62918 8.79453,3.65757 13.1947,4.75536 0.60017,3.12232 1.00109,11.16657 0.19354,11.87967 -0.91216,0.80548 -1.92238,-0.7034 -2.02237,-0.81664 -0.90048,-1.01975 -16.09364,-1.7774 -18.46631,-1.14694 -9.56411,2.5414 -18.58863,7.79207 -22.36674,17.14836 -0.96341,2.38584 -1.17447,4.48318 -2.45902,6.69746 -1.31937,2.27431 -0.22343,9.66284 0.65364,11.72797 1.23187,2.90055 0.18834,6.07555 2.21422,8.36976 3.94084,4.46278 14.28233,10.25252 22.22644,6.87864 1.51707,-0.64433 2.42244,0.46335 3.48461,-0.4746 1.19243,-1.05296 7.75934,-0.37394 9.7465,-2.12871 0.61278,-0.54111 3.57305,-0.58097 4.18582,-1.12207 11.4353,-10.09788 2.39473,2.72564 5.77767,6.55663 0.42893,0.48574 6.91223,-0.95273 8.28612,-0.8674 0.75985,0.0472 4.27489,0.7511 4.78867,0.29742 2.47087,-2.18189 1.74373,-6.23784 1.98922,-10.19035 0.30143,-4.85328 1.1598,-16.02979 3.29756,-19.71479 1.35232,-2.33109 1.1759,-12.12007 0.2039,-14.40878 -1.46322,-3.44524 1.53062,-8.91771 0.0756,-12.34365 -4.62746,-10.89579 -4.26171,-16.99939 -14.35398,-22.85417 -2.52325,-1.4638 -7.02009,0.17551 -9.53459,-1.28322 -1.24988,-0.72508 -2.86847,-1.00959 -4.55705,-1.12428 z m 3.74309,38.89995 c 1.71135,0.15033 3.25536,0.47205 4.57007,0.91478 0.52869,3.88208 1.97688,17.00908 -0.50133,19.19745 -5.70562,5.03831 -28.0561,11.53972 -32.95874,-0.004 -5.66457,-13.33779 14.07793,-20.53425 27.12232,-20.18795 0.60391,0.0159 1.19724,0.0296 1.76768,0.0798 z"
       id="path4634"
       inkscape:connector-curvature="0"
       sodipodi:nodetypes="sscscsssscscssssscsssssssssssssscsscs" />
    <path
       style="fill:#ffff00;fill-opacity:1;stroke:#ffffff;stroke-width:0.95957994px;stroke-linecap:butt;stroke-linejoin:miter;stroke-opacity:0"
       d="m 640.14378,545.99188 c 1.08323,10.45169 -2.05625,19.49695 -2.05625,30.15822 0,8.44117 -1.49594,20.31219 2.05625,27.41658 0.45694,0.91388 -0.45694,2.51317 0,3.42706 2.6247,5.2494 3.32745,15.37202 9.5958,18.50619 3.90162,1.95081 8.8369,0.99138 10.96663,2.05624 9.11475,4.55738 18.42151,-1.3285 25.36032,-4.7979 2.03858,-1.01929 2.54198,-3.9128 4.11249,-5.48331 1.05369,-1.05369 3.50011,-2.96077 4.11248,-4.7979 1.55026,-4.65079 3.84574,-9.48098 5.48332,-14.3937 0.88081,-2.64243 0.51924,-5.67022 1.37083,-8.22498 1.82164,-5.46491 -1.1255,-12.38802 0.68541,-17.82077 0.80091,-2.40273 1.22415,-26.87782 0,-28.10198 -2.76489,-2.76489 -14.02861,3.06198 -14.3937,3.42708 -3.25509,3.25509 -0.0359,13.0946 -2.05624,17.13535 -1.3672,2.73439 0.64339,6.93819 -0.68541,9.5958 -1.58186,3.16372 0.16305,7.89886 -1.37083,10.96662 -0.91889,1.83778 -0.17098,7.02513 -1.37083,8.22498 -4.42075,4.42073 -0.91069,13.82091 -10.28122,18.50618 -1.30743,0.65372 -4.67457,0 -6.16872,0 -12.61572,0 -9.82535,-17.59446 -13.70828,-25.36033 -0.81076,-1.62152 1.37082,-15.7721 1.37082,-18.50618 0,-3.21498 -2.43488,-9.52393 -0.68542,-13.02287 0.84507,-1.69012 2.74313,-7.5381 1.37083,-8.91038 -1.81139,-1.8114 -10.86446,0.56876 -13.70828,0 z"
       id="path4655"
       inkscape:connector-curvature="0" />
    <path
       style="fill:#ffff00;fill-opacity:1;stroke:#ffffff;stroke-width:0.95957994px;stroke-linecap:butt;stroke-linejoin:miter;stroke-opacity:0"
       d="m 759.40587,544.62104 c -14.74539,-8.54305 -44.20842,1.36921 -51.40607,15.76453 -5.54626,11.09251 14.81127,18.18843 21.93325,20.56242 4.23022,1.41009 9.37416,-0.0739 13.70828,1.37084 3.29889,1.09962 7.15864,2.5512 10.28122,4.11248 4.40135,2.20068 4.95359,7.16553 6.85414,10.96663 0.63454,1.26909 -0.2247,2.50564 -0.68542,3.42707 -5.86174,11.7235 -3.20889,5.86754 -14.39369,9.5958 -6.62196,2.20732 -21.72609,-1.64191 -24.67491,-7.53955 -1.00244,-2.00486 -5.0795,-9.99962 -6.85415,-8.22498 -0.59828,0.59827 -3.33286,1.27662 -4.11249,2.05625 -1.96435,1.96435 -4.49083,7.77533 -3.42706,10.96663 1.57686,4.73059 7.06687,10.12365 11.65203,11.65203 2.14084,0.71361 4.86509,0.37631 6.85415,1.37084 16.14349,8.07175 42.4482,2.1512 50.03524,-13.02287 2.29009,-4.58019 2.26285,-12.40304 0.68541,-17.13537 -7.16228,-21.48683 -9.46995,-12.27452 -26.04573,-20.56242 -1.88444,-0.94221 -13.0103,-4.13766 -11.65205,-6.85414 1.16732,-2.33465 2.7706,-1.04259 4.7979,-2.05624 9.90017,-4.95009 16.93584,9.01014 25.36033,4.7979 6.26924,-3.13463 2.96973,-21.24785 -8.91038,-21.24785 z"
       id="path4657"
       inkscape:connector-curvature="0" />
    <path
       style="fill:#ffff00;fill-opacity:1;stroke:#ffffff;stroke-width:0.95957994px;stroke-linecap:butt;stroke-linejoin:miter;stroke-opacity:0"
       d="m 829.13404,541.49658 c -10.21691,-1.21508 -24.96901,0.6806 -29.21079,4.16764 -10.77678,8.85924 -20.47348,30.17457 -16.89221,45.86466 1.60407,7.0277 5.11467,13.33281 7.68511,20.03337 1.23461,3.21834 6.79346,5.99332 8.81592,8.45354 0.54872,0.66749 1.9896,0.52158 2.67871,0.95457 10.59295,6.65591 42.12992,5.77126 43.49098,-8.16632 0.43728,-4.47769 1.61498,-9.45498 -0.86141,-12.46734 -1.84412,-2.24327 -7.38157,1.51024 -8.44277,1.91732 -1.80641,0.69297 -4.44094,2.38804 -5.86092,3.5554 -1.33152,1.09467 -22.47514,2.17549 -25.48704,0.28301 -7.80103,-4.90165 -9.39975,-13.03714 -7.90196,-20.89817 3.45714,0.88319 7.682,1.27591 9.90127,0.42457 1.97261,-0.75674 6.71451,0.6557 8.86394,0.86559 10.87068,1.06156 24.32102,-0.6958 29.0314,-8.19238 2.06694,-3.28963 5.53428,-10.06301 2.70477,-13.50506 -1.32787,-1.61523 1.45443,-7.84532 -2.88575,-13.02659 0.0106,-0.1133 0.0211,-0.21397 0.0317,-0.32829 1.08375,-1.0365 -1.68224,-2.8477 -5.45089,-7.43195 -0.28452,-0.34613 -1.66756,0.0451 -2.05926,-0.2011 -1.83491,-1.15294 -4.74551,-1.89744 -8.15115,-2.30247 z m -4.64513,18.25682 c 1.31644,0.0794 2.53972,0.42378 3.57107,1.07184 2.56458,1.61135 2.86991,3.87003 4.3161,5.78453 -0.24335,0.25436 -0.51846,0.48114 -0.82476,0.73295 -8.23876,6.77285 -13.19994,1.12812 -22.51389,4.7011 -1.57062,0.60252 -4.01609,-0.21298 -6.28923,-1.00585 0.25863,-0.87572 0.54038,-1.76178 1.12268,-2.24047 3.21646,-2.64415 13.5088,-9.47279 20.61803,-9.0441 z"
       id="path4672"
       inkscape:connector-curvature="0" />
    <path
       style="fill:#ffff00;fill-opacity:1;stroke:#ffffff;stroke-width:0.95957994px;stroke-linecap:butt;stroke-linejoin:miter;stroke-opacity:0"
       d="m 887.31603,506.29492 c -15.88278,9.43706 -22.16064,53.68322 -24.67491,71.28308 -2.35629,16.49407 -1.70293,41.4994 3.42708,56.88938 2.46031,7.38095 6.93871,14.56284 10.2812,21.24784 0.99694,1.99387 1.65122,3.70746 2.74166,4.7979 3.07327,3.07328 14.14524,5.98023 17.13536,0 3.62454,-7.24907 -4.87379,-13.86007 -8.22497,-20.56243 -7.31554,-14.63107 -9.5958,-24.32127 -9.5958,-42.49568 0,-3.02343 -1.41472,-5.39553 0,-8.22497 1.46222,-2.92443 -1.46222,-8.04219 0,-10.96662 3.28743,-6.57488 2.11089,-15.87385 5.48331,-22.61868 4.13538,-8.27077 24.60596,-31.66697 19.1916,-42.49569 -0.50041,-1.00082 0.19724,-2.54442 -0.68541,-3.42707 -1.26542,-1.26541 -3.61037,-2.23953 -4.7979,-3.42706 -0.38304,-0.38304 -8.27268,0 -10.28122,0 z"
       id="path4690"
       inkscape:connector-curvature="0" />
    <path
       style="fill:#ffff00;fill-opacity:1;stroke:#ffffff;stroke-width:0.95957994px;stroke-linecap:butt;stroke-linejoin:miter;stroke-opacity:0"
       d="m 939.40752,509.72198 c -11.62667,-3.18904 -16.91976,14.1395 -9.5958,28.7874 0.45694,0.91389 -0.45695,2.51319 0,3.42707 1.70869,3.4174 2.45437,9.30851 4.7979,11.65205 0.86909,0.86909 1.14003,4.79441 2.05624,6.16873 6.81082,10.21623 4.55809,57.369 -0.68541,67.856 -1.83746,3.6749 -4.17189,8.28438 -6.85415,10.96664 -1.65832,1.65831 -4.723,3.27727 -6.16873,6.16872 -2.44489,4.88977 -8.93861,8.16851 -5.48331,15.07911 0.7578,1.51559 0.15063,2.47427 2.05624,3.42707 5.69725,2.84863 23.97404,-8.86401 26.04575,-15.0791 0.95828,-2.87487 3.43889,-5.50698 4.7979,-8.22498 2.08981,-4.17963 3.37451,-8.80527 5.4833,-13.02287 1.7369,-3.47379 1.27178,-9.3977 2.74167,-12.33745 7.77102,-15.54207 1.7268,-58.91908 -5.48332,-73.33934 -1.1212,-2.2424 0.43117,-5.9918 -0.68542,-8.22496 -5.27387,-10.54775 0.31464,-20.63659 -13.02286,-23.30409 z"
       id="path4692"
       inkscape:connector-curvature="0" />
    <path
       style="fill:#ffff00;fill-opacity:1;stroke:#ffffff;stroke-width:0.97411835px;stroke-linecap:butt;stroke-linejoin:miter;stroke-opacity:0"
       d="m 517.52086,861.59554 c 2.36063,15.67684 -2.48964,36.71474 0.54335,51.56141 0.88604,4.33724 -1.10987,8.9307 0.12071,13.23793 1.55306,5.43601 -2.66461,13.8399 0.63447,17.43901 0.45494,0.49632 15.16197,-1.54356 18.10392,0.0909 3.28919,1.82739 1.4795,-18.00489 1.60212,-20.82402 0.49815,-11.45397 -2.08935,-22.25913 2.14631,-33.33657 0.60015,-1.56958 0.10123,-3.38591 0.90676,-4.83577 1.54366,-2.77849 3.25673,-3.15916 6.46791,-4.5939 10.32042,-4.61108 14.06267,2.9634 19.1314,8.49309 3.09037,3.37138 10.44971,3.1025 13.20769,0.57442 2.80286,-2.56921 8.1201,-10.04971 6.19603,-14.35611 -9.68822,-21.68392 -34.1441,-12.7524 -45.15398,-2.66027 -0.37243,0.34138 -0.2997,-2.6642 0.15116,-3.47572 1.34599,-2.4227 0.38193,-9.77707 -0.90655,-11.18272 -0.50239,-0.54809 -20.62052,2.98148 -23.15131,3.86831 z"
       id="path4694"
       inkscape:connector-curvature="0" />
    <path
       style="fill:#ffff00;fill-opacity:1;stroke:#ffffff;stroke-width:0.97411835px;stroke-linecap:butt;stroke-linejoin:miter;stroke-opacity:0"
       d="m 617.50904,861.40471 c -0.44753,0.004 -0.86899,0.0872 -1.20953,0.23043 -2.26019,0.95048 -5.33267,0.53078 -7.76821,1.55497 -7.92924,3.33443 -11.55719,9.18837 -17.08448,15.63102 -1.91188,2.22848 -4.48469,5.72146 -5.44514,8.71411 -4.34623,13.54227 -4.70393,32.48581 3.34977,44.83412 1.65456,2.53687 5.98278,8.04435 10.30957,12.69387 0.004,0.005 0.0259,-0.006 0.0304,-9.8e-4 7.22181,3.35919 16.1281,3.69086 27.02885,3.26158 6.60719,-0.26019 15.33076,-4.66759 19.82982,-8.57989 1.09896,-2.60395 2.07247,-6.9106 0.73401,-8.4372 -1.31256,-1.49706 0.0136,-5.07094 -2.35637,-6.45713 -10.23401,-5.98559 -28.53872,11.49157 -37.0671,1.76438 -1.11835,-1.27554 -4.85297,-1.04331 -6.1305,-2.50042 -0.86691,-0.98878 -1.9611,-1.49195 -2.5848,-2.97514 -0.86039,-2.04597 -0.53291,-13.2695 0.94948,-14.5691 0.88671,-0.77741 2.26022,-1.11469 4.31666,-1.78463 12.49439,3.86125 34.5605,9.88843 42.79063,-4.18324 9.14531,-15.63645 -4.91829,-29.57512 -19.27823,-35.43299 -1.94507,-0.79345 -7.28211,-3.79292 -10.41484,-3.76352 z m 0.0608,17.78905 c 3.51823,-0.25437 6.6467,0.94985 8.84079,3.2467 1.56151,0.38685 3.10241,0.9811 4.49008,1.07223 1.23886,0.0813 6.71993,3.47514 6.32072,5.78311 0.39928,0.74873 0.38649,1.54806 -0.21793,2.20205 -1.60248,1.73386 -3.96136,2.56805 -6.09787,3.74358 -5.59186,3.07674 -17.259,-0.39203 -21.96921,-2.42502 -0.31963,0.10568 -0.64479,0.20375 -0.96139,0.34251 0.15217,-0.16655 0.33362,-0.362 0.49673,-0.53747 -1.47393,-0.68964 -4.70091,-4.99861 -3.01069,-6.82741 3.96675,-4.292 8.26275,-6.32219 12.10877,-6.60028 z"
       id="path4696"
       inkscape:connector-curvature="0" />
    <path
       style="fill:#ffff00;fill-opacity:1;stroke:#ffffff;stroke-width:0.97411835px;stroke-linecap:butt;stroke-linejoin:miter;stroke-opacity:0"
       d="m 701.4844,884.09358 c 2.92361,1.43178 1.41593,1.30865 5.05847,4.67517 3.58223,3.31077 11.71035,-5.25594 6.56928,-10.00744 -1.8999,-1.75594 -3.65738,-4.0502 -5.80849,-6.0383 -2.86042,-2.64367 -6.66233,-2.8077 -9.25743,-5.20614 -2.88128,-2.66296 -9.67101,-2.23864 -12.01107,-4.40136 -1.03024,-0.95218 -6.09389,0.51164 -6.92521,0.96906 -1.67525,0.92174 -4.53072,0.007 -6.22997,0.94167 -7.56031,4.15979 -13.41267,8.52772 -16.77915,15.98022 -0.48864,1.08174 -3.1996,6.42221 -1.78459,7.72999 5.70484,5.27255 10.45537,11.003 15.95283,16.08389 3.81854,3.52916 13.41153,2.3459 16.93266,5.60022 2.77932,2.56871 6.49805,4.66573 8.61692,6.62404 1.57715,1.45763 1.8819,3.74915 2.9727,4.7573 0.28158,0.26023 0.0928,2.35676 0.10957,2.78104 0.21599,5.48468 -6.1322,8.98873 -11.54563,7.41806 -1.57609,-0.4573 -4.07309,0.89164 -5.56207,0.21903 -2.75708,-1.24544 -6.37371,-0.48904 -9.12052,-1.72983 -3.26901,-1.4767 -10.35669,-9.81583 -14.81951,-4.98711 -1.16291,1.25828 -1.24345,3.78916 -1.17147,5.61684 0.43792,11.12038 18.57309,16.67703 28.4949,16.2863 2.08072,-0.0819 6.05155,1.28746 7.67523,0.39409 2.45985,-1.35345 5.8034,-1.06215 8.26098,-2.41434 8.39099,-4.61685 12.82383,-10.32485 12.41592,-20.68276 -0.12238,-3.10714 -0.52814,-7.85763 -2.46909,-9.65151 -4.33005,-4.00192 -13.29751,-8.27012 -17.90172,-12.52543 -2.28194,-2.10902 -7.64167,-1.70297 -9.89793,-3.78825 -1.77579,-1.64123 -4.91419,-5.21176 -6.53112,-6.70617 -1.60403,-1.48248 0.61795,-6.46771 1.11671,-7.00736 6.40923,-6.93472 14.70458,-2.79431 23.63885,-0.93092 z"
       id="path4720"
       inkscape:connector-curvature="0" />
    <path
       style="fill:#ffff00;fill-opacity:1;stroke:#ffffff;stroke-width:0.97411835px;stroke-linecap:butt;stroke-linejoin:miter;stroke-opacity:0"
       d="m 721.48312,871.19104 c 0.0526,8.97655 -1.5255,18.65044 -0.60506,27.35156 0.34766,3.28663 1.07484,9.55338 -0.0663,12.60127 -1.19875,3.20167 1.63634,8.8547 1.93625,11.68976 0.46478,4.3937 2.99465,7.64151 4.70401,11.39698 9.58819,21.06527 38.21142,15.3441 49.78638,1.03058 7.71299,-9.53785 5.72559,-31.86013 4.38389,-44.54364 -0.90047,-8.51231 -2.05152,-19.37524 -9.33482,-22.10201 -4.86967,-1.82328 -6.17068,3.16943 -7.09896,5.64871 -1.66065,4.43535 2.60868,15.55294 1.75668,16.60652 -2.42697,3.00115 0.4708,12.05411 -1.08426,16.20736 -2.15656,5.75985 -1.81052,13.19319 -5.16268,17.33847 -0.63776,0.78863 -2.60236,1.65316 -3.24012,2.44179 -2.08961,2.58399 -7.14162,4.98146 -10.99781,1.86305 -5.9942,-4.84733 -15.22673,-19.67712 -10.97831,-31.024 0.3637,-0.97139 -0.72966,-2.48831 -0.36596,-3.45969 1.46269,-3.90666 2.50143,-18.03419 -0.26639,-22.36162 -4.28878,-6.70523 -7.73933,-4.92574 -13.36642,-0.68509 z"
       id="path4722"
       inkscape:connector-curvature="0" />
    <path
       style="fill:#ffff00;fill-opacity:1;stroke:#ffffff;stroke-width:0.97411835px;stroke-linecap:butt;stroke-linejoin:miter;stroke-opacity:0"
       d="m 791.40273,868.71478 c -3.2601,12.41811 -1.07079,25.85605 -0.57988,38.32143 0.0775,1.96926 1.13002,6.56886 0.32855,8.34313 -2.64924,5.86469 -2.00638,28.29361 1.95473,31.95456 3.44843,3.18712 8.02821,4.36148 11.17893,0.95244 3.18684,-3.44813 1.9577,-19.03432 -0.20827,-22.97095 -2.14896,-3.90569 -1.52869,-33.14043 0.68941,-35.5404 1.71821,-1.8591 4.15977,-3.77593 5.37041,-5.08587 2.17547,-2.35381 4.8748,17.9045 7.774,20.58402 0.72265,0.66787 -0.55835,3.50367 0.16428,4.17154 0.99342,0.91815 2.61667,0.79323 3.4763,-0.13692 0.4736,-0.51242 3.41807,-2.24856 4.72993,-3.66795 1.94386,-2.10325 3.73622,-25.62794 8.83009,-23.3269 1.56911,0.7088 0.93055,1.69125 1.50004,2.72628 1.80001,3.27147 3.51221,6.38334 5.25014,9.54199 1.82351,3.31415 0.52751,13.94966 -0.73339,16.74098 -0.66649,1.47542 -0.55628,30.61837 0.59159,32.70459 1.13188,2.05718 2.20703,4.04966 3.69533,5.42519 2.41687,2.23373 7.97693,-2.61322 8.92887,-3.13698 6.86289,-3.77607 4.83919,-47.3632 0.61802,-55.03505 -1.75337,-3.1867 -0.5823,-15.25928 -4.35245,-22.11142 -0.22642,-0.41152 0.25191,-1.77704 -0.0821,-2.08578 -4.42458,-4.0893 -15.34274,-5.87073 -21.55306,0.84878 -1.17055,1.26654 -6.72279,10.53551 -7.98717,9.36694 -1.59745,-1.47641 -1.28979,-4.54183 -3.02747,-6.14782 -2.42275,-2.23917 -6.355,-3.86359 -8.58953,-5.92879 -7.37114,-6.81256 -10.22606,-3.21624 -17.96723,3.49293 z"
       id="path4724"
       inkscape:connector-curvature="0" />
    <path
       style="fill:#ffff00;fill-opacity:1;stroke:#ffffff;stroke-width:0.97411835px;stroke-linecap:butt;stroke-linejoin:miter;stroke-opacity:0"
       d="m 894.3279,863.02003 c -1.54913,0.0819 -3.04951,0.46591 -4.22133,1.11065 -2.7941,1.53736 -5.63853,2.38764 -8.19787,3.79583 -7.22983,3.97795 -14.03155,29.5079 -17.37382,36.90683 -1.00419,2.22302 0.18883,10.65094 1.19192,12.4741 0.82483,1.49908 0.0713,3.99861 0.91882,5.53887 2.4035,4.36826 4.36683,8.55788 6.7859,12.95449 0.70377,1.27907 2.26491,0.92521 2.85066,1.9898 0.88952,1.61669 5.12087,5.04693 7.21241,5.99173 2.27843,1.02923 23.26193,3.17436 25.8423,1.7546 5.53681,-3.04644 11.95921,-4.61567 14.85878,-11.03458 2.30603,-5.10492 -3.09372,-7.54898 -5.25014,-9.54198 -5.01681,-4.63664 -25.38632,11.35829 -36.86329,0.75102 -1.28954,-1.19181 -5.28312,-4.90539 -3.79582,-8.19787 2.05168,-4.54188 2.41724,-6.05777 5.82474,-10.67881 15.26387,4.54021 31.41545,4.4458 42.21337,-7.23745 5.23091,-5.6598 -7.52376,-20.76259 -10.04622,-25.34712 -1.65233,-3.00304 -8.26616,-6.79637 -12.18823,-8.56806 -0.438,-0.19786 -2.5277,-0.34304 -2.79556,-0.5906 -1.64754,-1.52271 -4.38473,-2.2081 -6.96662,-2.07145 z m 6.25811,20.43915 c 1.32364,9.7e-4 2.73904,0.31112 4.24315,0.99057 0.75623,0.34161 2.0118,-0.45062 2.76801,-0.109 1.25095,0.56509 9.60585,4.82914 7.2663,7.3605 -5.53803,5.9921 -19.64603,3.21334 -27.82926,0.39524 3.66706,-3.17817 7.81605,-8.64312 13.5518,-8.63732 z"
       id="path4752"
       inkscape:connector-curvature="0" />
    <path
       inkscape:connector-curvature="0"
       id="path4770"
       d="m 963.2734,824.26147 c -15.99731,9.78913 -21.78506,54.78481 -24.10461,72.68303 -2.17382,16.77369 -1.18017,42.14709 4.23049,57.70112 2.59493,7.45963 7.23571,14.69055 10.71682,21.43213 1.03832,2.01068 1.72517,3.7414 2.84638,4.83377 3.16023,3.07914 14.43741,5.88344 17.39356,-0.22638 3.5833,-7.40613 -5.13039,-14.00442 -8.62056,-20.76345 -7.61916,-14.75481 -10.06176,-24.56086 -10.30198,-43.00906 -0.0399,-3.06898 -1.50735,-5.45813 -0.10871,-8.34888 1.44559,-2.98782 -1.59054,-8.14402 -0.14495,-11.13184 3.25015,-6.71737 1.93294,-16.14087 5.26696,-23.03187 4.08838,-8.45002 24.55821,-32.4692 18.91913,-43.3895 -0.52105,-1.00929 0.16668,-2.58537 -0.74091,-3.46964 -1.30133,-1.26776 -3.69444,-2.22557 -4.9155,-3.41529 -0.39384,-0.38374 -8.39739,0.10933 -10.43612,0.13586 z"
       style="fill:#ffff00;fill-opacity:1;stroke:#ffffff;stroke-width:0.97411835px;stroke-linecap:butt;stroke-linejoin:miter;stroke-opacity:0" />
    <path
       inkscape:connector-curvature="0"
       id="path4772"
       d="m 1016.195,827.05177 c -11.844,-3.08343 -16.98792,14.57611 -9.36,29.34789 0.476,0.92162 -0.4306,2.55708 0.045,3.4787 1.7797,3.4463 2.6144,9.41631 5.0242,11.76418 0.8937,0.8707 1.2205,4.85158 2.1686,6.23448 7.0486,10.28014 5.385,58.17303 0.2011,68.8873 -1.8165,3.75455 -4.1253,8.46432 -6.8125,11.22243 -1.6614,1.70521 -4.7508,3.38905 -6.1801,6.34316 -2.41712,4.99574 -8.96534,8.40973 -5.36672,15.37877 0.7893,1.52839 0.1856,2.50948 2.1325,3.45148 5.82082,2.8162 24.21812,-9.31441 26.23892,-15.65046 0.9348,-2.9308 3.4179,-5.63536 4.7615,-8.41226 2.0661,-4.27022 3.309,-8.98252 5.3938,-13.29153 1.7171,-3.54908 1.1668,-9.55608 2.62,-12.55954 7.6826,-15.8789 0.9741,-59.82951 -6.5352,-74.37172 -1.1677,-2.26136 0.3585,-6.08777 -0.8044,-8.33981 -5.4927,-10.63696 0.047,-20.95163 -13.527,-23.48307 z"
       style="fill:#ffff00;fill-opacity:1;stroke:#ffffff;stroke-width:0.97411835px;stroke-linecap:butt;stroke-linejoin:miter;stroke-opacity:0" />
    <path
       inkscape:connector-curvature="0"
       id="path4774"
       d="m 493.49724,924.74402 c -0.63877,-0.73433 -4.42969,-0.4388 -9.77519,5.04772 -5.70984,5.86047 8.96563,22.11488 17.94122,17.48007 12.80477,-6.61213 5.55238,-25.4577 -8.16603,-22.52779 z"
       style="fill:#ffff00;stroke:#ffffff;stroke-width:0.97411835px;stroke-linecap:butt;stroke-linejoin:miter;stroke-opacity:0" />
    <path
       style="fill:#0ab8b8;fill-opacity:1;stroke:#ffffff;stroke-width:1px;stroke-linecap:butt;stroke-linejoin:miter;stroke-opacity:0"
       d="m 398.0001,911.95098 c -11.17448,11.98278 10.00209,-8.99193 -5.05076,6.06091 -3.69786,3.69787 2.83167,21.01442 4.04061,22.22336 4.19232,4.19232 9.79603,-17.47809 7.07107,-20.20305 -1.33207,-1.33207 -4.27967,-5.85467 -6.06092,-8.08122 z"
       id="path4776"
       inkscape:connector-curvature="0" />
    <path
       style="fill:#0ab8b8;fill-opacity:1;stroke:#ffffff;stroke-width:1px;stroke-linecap:butt;stroke-linejoin:miter;stroke-opacity:0"
       d="m 398.0001,964.47891 c -0.67343,1.34687 -0.67343,4.71405 -2.0203,4.04061 -1.34687,-0.67343 2.0203,-5.54646 2.0203,-4.04061 0,2.33809 -2.0203,5.27227 -2.0203,8.08122 0,6.41279 0.77301,10.87454 4.04061,14.14214 0.62061,0.62061 0.66735,2.35398 2.0203,3.03045 5.51979,2.7599 9.09024,-22.62764 -4.04061,-25.25381 z"
       id="path4778"
       inkscape:connector-curvature="0" />
    <path
       style="fill:#0ab8b8;fill-opacity:1;stroke:#ffffff;stroke-width:1px;stroke-linecap:butt;stroke-linejoin:miter;stroke-opacity:0"
       d="m 398.00011,1010.9459 c -6.70149,13.7945 -2.62693,16.566 4.04061,23.2335 0.15742,0.1575 1.7623,2.2783 3.03045,1.0102 5.43333,-5.4333 0.97171,-22.233 -7.07106,-24.2437 z"
       id="path4780"
       inkscape:connector-curvature="0" />
    <path
       style="fill:#00ff00;stroke:#ffffff;stroke-width:1px;stroke-linecap:butt;stroke-linejoin:miter;stroke-opacity:0;fill-opacity:1"
       d="M 361.625 617.8125 C 359.08536 630.90022 358.36796 645.19059 361.625 658.21875 C 363.29059 664.88109 363.65625 674.76782 363.65625 681.46875 C 363.65625 689.65353 364.43535 697.14545 364.625 705.3125 C 364.12195 705.28093 363.74043 705.38203 363.65625 705.71875 C 363.54429 706.16658 363.83435 706.35623 364.28125 706.46875 C 364.39619 706.48225 364.5103 706.51855 364.625 706.53125 C 364.62516 706.54162 364.62484 706.55212 364.625 706.5625 C 364.49447 706.54668 364.39177 706.49658 364.28125 706.46875 C 361.74109 706.17039 359.15792 705.71875 356.59375 705.71875 C 355.69608 705.71875 354.2105 706.31217 353.3125 706.3125 C 353.41718 706.46437 353.50926 706.61227 353.5625 706.71875 C 355.36648 710.3267 359.59719 711.75688 361.625 715.8125 C 363.46612 719.49473 369.33184 726.51935 371.75 728.9375 C 372.4784 729.66591 371.36608 732.96875 372.75 732.96875 C 373.56143 732.96875 376.13115 720.14394 376.78125 718.84375 C 377.48367 717.43892 386.79621 706.63995 385.875 705.71875 C 384.20018 704.04393 379.62819 704.33435 375.4375 705.03125 C 375.09273 703.15101 374.78125 701.45634 374.78125 700.65625 C 374.78125 693.13116 375.08753 679.05006 371.75 672.375 C 371.12277 671.12054 369.71875 620.90861 369.71875 620.84375 C 369.71875 616.51687 364.95367 618.64467 361.625 617.8125 z M 353.3125 706.3125 C 352.99845 705.85689 352.53125 705.36161 352.53125 705.71875 C 352.53125 706.16795 352.86313 706.31267 353.3125 706.3125 z "
       transform="translate(0,308.2677)"
       id="path4782" />
    <path
       style="fill:#6c5353;stroke:#ffffff;stroke-width:1px;stroke-linecap:butt;stroke-linejoin:miter;stroke-opacity:0;fill-opacity:1"
       d="M 94.954339,146.08418 C 87.230087,136.17374 82.002399,124.63596 74.751288,113.75929 71.402581,108.73623 47.47717,73.655026 47.47717,73.353192 c 0,-0.271503 4.011493,-2.020305 5.050762,-2.020305 5.345628,0 25.329399,-12.664699 30.304577,-15.152288 0.968994,-0.484497 8.518713,-5.623422 10.101525,-4.04061 12.814046,12.814048 22.406506,35.72164 32.324886,55.558391 2.139,4.27801 11.11167,14.38813 11.11167,18.18274 0,3.76998 18.55427,29.93306 18.18275,30.30458 -7.75806,7.75806 -25.31688,16.52018 -36.36549,20.20305 -1.35461,0.45154 -6.29535,5.82648 -8.08122,4.04061 -1.01016,-1.01015 0,-4.04061 -1.01016,-5.05076 -8.17035,-8.17035 -11.821873,-17.69314 -14.142131,-29.29442 z"
       id="path4787"
       inkscape:connector-curvature="0"
       transform="translate(0,308.2677)" />
    <path
       style="fill:#00ff00;stroke:#ffffff;stroke-width:1px;stroke-linecap:butt;stroke-linejoin:miter;stroke-opacity:0"
       d="m 110.85549,320.90364 c -1.70596,-0.0102 -8.51119,6.85494 -9.84375,8.1875 18.40013,21.43028 28.9042,46.6834 39.40625,67.6875 1.00518,2.01037 5.03125,5.1967 5.03125,8.0625 0,0.0231 -8.80967,8.91127 -9.6875,9.71875 0.92803,0.83638 1.8776,1.74075 2.84375,2.6875 9.50946,1.24925 26.56314,6.31313 27.0625,6.8125 6.02842,6.02841 1.17815,-19.7525 0.6875,-29.65625 -5.57692,3.28107 -11.55177,6.66699 -11.8125,6.40625 -2.52538,-2.52538 -2.50587,-7.56836 -5.03125,-10.09375 -0.24941,-0.2494 -4.1739,-5.96699 -5.34375,-10.21875 -0.69776,-0.50564 -1.32579,-1.05783 -1.75,-1.90625 -3.00559,-6.01119 -7.34851,-15.47352 -12.09375,-20.21875 -2.3649,-2.36491 -6.63489,-16.72864 -9.09375,-19.1875 -6.8449,-6.8449 -2.93058,-10.99308 -10.125,-18.1875 -0.0654,-0.0654 -0.13627,-0.0931 -0.25,-0.0937 z"
       id="path4841"
       inkscape:connector-curvature="0" />
    <path
       style="fill:#0ab8b8;stroke:#ffffff;stroke-width:1px;stroke-linecap:butt;stroke-linejoin:miter;stroke-opacity:0;fill-opacity:1"
       d="m 51.51778,66.282124 c 1.300748,2.126052 -0.409271,3.63134 4.04061,8.081221 2.018145,2.018144 6.475864,0.414949 8.08122,2.020305 3.603914,3.603913 2.894197,9.965265 6.060916,13.131983 2.525381,2.525381 6.565991,3.535534 9.091373,6.060915 1.683587,1.683588 -1.683588,8.417942 0,10.101522 1.822807,1.82281 5.904282,5.74765 7.071067,8.08122 1.570557,3.14112 -1.21986,7.87152 1.010153,10.10153 1.269911,1.26991 4.875781,1.84532 6.060915,3.03046 0.996334,0.99633 1.284134,3.30444 2.020305,4.04061 3.134432,3.13443 -5.370812,9.78147 -2.020305,13.13198 1.379873,1.37987 6.149317,5.88411 4.04061,10.10153 -3.290963,6.58192 -7.720801,7.36038 -11.111678,14.14213 -1.203035,2.40607 4.758696,9.51739 6.060916,12.12183 2.74478,5.48956 -2.873012,10.95423 -5.050763,13.13199 -1.304726,1.30472 -1.097571,6.23575 -2.020305,8.08122 -2.489488,4.97897 4.074123,11.14519 6.060915,13.13198 4.09528,4.09528 -8.121148,17.21252 -9.091373,18.18274 -3.365561,3.36557 3.012475,11.07572 4.04061,13.13199 4.010898,8.02179 -4.810915,22.4632 -4.04061,23.23351 4.803431,4.80343 10.101526,15.50776 10.101526,23.2335 0,7.45066 -11.061544,16.26271 -6.060916,26.26397 2.150343,4.30069 9.091373,10.69194 9.091373,16.16244 0,6.31666 -8.317733,11.58471 -11.111678,17.17259 -3.304296,6.6086 1.010153,15.53146 1.010153,22.22336 0,9.01363 4.52317,16.16244 13.131983,16.16244 0.616438,0 3.647013,0.3936 4.040613,0 1.34687,-1.34687 3.70389,-1.68359 5.05076,-3.03046 2.5701,-2.57009 -5.59912,-6.60926 -6.06092,-7.07106 -6.640798,-6.64081 -10.506231,-24.84911 -2.020301,-33.33504 3.275661,-3.27566 19.674771,-14.67041 12.121831,-22.22335 -1.6526,-1.6526 -12.34732,-15.71147 -10.10153,-20.20305 1.2285,-2.45699 11.00226,-16.27187 8.08122,-19.1929 -2.45859,-2.45859 -10.101521,-18.11612 -10.101521,-22.22336 0,-3.86995 15.000581,-14.29384 10.101521,-19.1929 -2.59054,-2.59054 -12.781998,-9.79133 -11.111673,-13.13198 1.705719,-3.41144 14.518763,-13.38889 12.121833,-18.18275 -1.75114,-3.50227 -10.301466,-13.74226 -10.10153,-14.14213 2.97838,-5.95676 12.12183,-13.62986 12.12183,-20.20305 0,-6.23536 -11.90653,-8.51182 -8.08122,-16.16244 2.36928,-4.73855 13.31493,-9.73563 10.10153,-16.16244 -2.48987,-4.97974 -8.08122,-5.90945 -8.08122,-12.12183 0,-6.1959 5.05341,-10.09624 2.0203,-16.16245 -2.37097,-4.74193 -8.851615,-7.84146 -12.121828,-11.11167 -2.59213,-2.59213 0,-8.913715 0,-12.121834 0,-4.033184 -7.599937,-5.579632 -10.101526,-8.081221 C 82.955734,83.577943 86.875785,76.388983 84.852814,72.34304 83.347188,69.331788 78.662682,68.173213 76.771593,66.282124 74.993989,64.50452 74.018272,60.498346 72.730983,59.211057 64.940599,51.420673 54.437224,60.443236 51.51778,66.282124 z"
       id="path4849"
       inkscape:connector-curvature="0"
       transform="translate(0,308.2677)" />
    <path
       inkscape:connector-curvature="0"
       id="path4864"
       d="m 287.35529,332.4154 c -1.48883,-0.0482 -4.04139,1.32764 -4.76481,1.68934 -2.7293,1.36466 -8.66871,-0.42773 -10.50423,1.40779 -0.84142,0.84141 0.69306,2.31869 0.69306,3.50863 l 0,10.50424 c 1.76933,7.92914 2.78611,16.22546 1.40779,24.49546 -1.4978,8.98674 3.60521,19.9607 0.69306,28.69714 -1.59689,4.79068 -2.10085,12.56452 -2.10085,17.49985 0,2.17543 -0.44354,5.88065 0.69306,7.01727 0.78616,0.78615 16.80678,-1.85612 16.80678,-0.71472 l 0,-4.2017 0,-11.19731 c 0,-3.54656 -2.58425,-31.49105 -1.38612,-31.49105 0.73797,0 0.36303,1.44078 0.69306,2.10084 0.59895,1.1979 2.80962,2.09491 3.50864,2.79391 0.93433,0.93434 11.24567,3.82015 13.29815,2.79392 11.00943,-5.50472 18.19291,-15.79848 18.19291,-29.39022 0,-2.80654 0.4823,-6.76738 -0.69307,-9.11811 -1.29253,-2.58507 -2.81657,-6.3252 -4.89475,-8.40339 -3.51027,-3.51027 -13.97611,-5.25967 -18.90763,-2.79392 -1.6716,0.8358 -4.40654,-0.50987 -5.60948,0.69307 -1.04673,1.04672 -3.26018,1.87404 -4.20171,2.81557 -0.20514,0.20514 -1.14766,2.79391 -2.10084,2.79391 -2.1679,0 2.32367,-8.87364 0,-11.1973 -0.193,-0.193 -0.47943,-0.29211 -0.82302,-0.30322 z m 8.4034,16.54688 c 6.46713,-0.31388 14.7212,3.82072 16.93673,8.25179 0.68733,1.37467 -0.25362,3.7406 -0.71472,4.2017 -0.97351,0.97351 -0.13963,3.64826 -1.38613,4.89476 -2.97497,2.97496 -14.71111,8.39822 -19.60069,3.50863 -0.58568,-0.58569 -3.53985,-0.0312 -4.20169,-0.69307 -0.0743,-0.0743 0.38032,-13.52414 1.38612,-15.39899 1.27975,-3.19937 4.19283,-4.60039 7.58038,-4.76482 z"
       style="fill:#ac9393;stroke:#ffffff;stroke-width:0.69306325999999996px;stroke-linecap:butt;stroke-linejoin:miter;stroke-opacity:0;fill-opacity:1" />
    <path
       sodipodi:nodetypes="sscscsssscscssssscsssssssssssssscsscs"
       inkscape:connector-curvature="0"
       id="path4866"
       d="m 357.05534,332.52972 c -1.21959,-0.0828 -2.48952,-0.0462 -3.59506,-0.11479 -14.54047,-0.9031 -27.1194,9.48023 -25.46858,18.75102 0.80303,0.38054 1.53672,0.94727 2.40253,1.14742 0.18566,0.0429 0.44315,0.0373 0.71604,10e-4 2.80823,1.73387 7.13418,2.40379 8.12957,1.52482 0.79224,-0.69958 2.28644,-1.54912 3.11453,-2.28035 0.87463,-0.77235 0.34381,-3.12307 1.21844,-3.89542 3.02816,-2.674 5.22342,-3.40751 8.74584,-4.90348 2.77061,-1.17669 6.35191,2.6417 9.52996,3.43459 0.43348,2.25512 0.72304,8.06513 0.13979,8.58017 -0.65882,0.58177 -1.38846,-0.50803 -1.46067,-0.58982 -0.65038,-0.73652 -11.62375,-1.28374 -13.33742,-0.82839 -6.90775,1.83555 -13.42577,5.62788 -16.15454,12.38553 -0.69583,1.72318 -0.84827,3.238 -1.77604,4.83728 -0.95293,1.64264 -0.16138,6.97906 0.47209,8.47061 0.88973,2.09494 0.13603,4.38811 1.59924,6.04512 2.8463,3.22327 10.31551,7.40495 16.0532,4.96814 1.09571,-0.46537 1.74962,0.33466 2.51678,-0.34278 0.86124,-0.76051 5.60424,-0.27008 7.03948,-1.53748 0.44259,-0.39082 2.58066,-0.41961 3.02324,-0.81042 8.25922,-7.29326 1.72961,1.96861 4.17296,4.73557 0.3098,0.35083 4.99241,-0.68811 5.98471,-0.62648 0.5488,0.0341 3.08757,0.54248 3.45865,0.21481 1.7846,-1.57589 1.25942,-4.50532 1.43673,-7.36005 0.21771,-3.50532 0.83767,-11.57763 2.38168,-14.23914 0.97672,-1.68365 0.8493,-8.75381 0.14727,-10.40685 -1.05682,-2.48834 1.1055,-6.44087 0.0546,-8.91528 -3.34221,-7.86956 -3.07805,-12.27793 -10.36726,-16.50658 -1.82243,-1.05724 -5.07031,0.12676 -6.88642,-0.92682 -0.90274,-0.52369 -2.07178,-0.72918 -3.29136,-0.81202 z m 2.70347,28.09576 c 1.23603,0.10858 2.35121,0.34094 3.30076,0.66071 0.38185,2.80386 1.42782,12.28492 -0.36208,13.86549 -4.12093,3.63895 -20.26372,8.33464 -23.80468,-0.003 -4.09128,-9.63331 10.16788,-14.831 19.58928,-14.58089 0.43618,0.0115 0.86472,0.0214 1.27672,0.0576 z"
       style="fill:#ac9393;stroke:#ffffff;stroke-width:0.69306325999999996px;stroke-linecap:butt;stroke-linejoin:miter;stroke-opacity:0;fill-opacity:1" />
    <path
       inkscape:connector-curvature="0"
       id="path4868"
       d="m 383.80866,334.39609 c 0.78237,7.54881 -1.48514,14.08181 -1.48514,21.78199 0,6.09669 -1.08046,14.67062 1.48514,19.80181 0.33003,0.66006 -0.33003,1.81516 0,2.47522 1.89571,3.79141 2.40327,11.10255 6.93063,13.36622 2.81797,1.40899 6.38251,0.71603 7.92073,1.48514 6.58319,3.2916 13.30506,-0.95952 18.31666,-3.46532 1.47238,-0.73619 1.83596,-2.82605 2.97028,-3.96036 0.76103,-0.76103 2.52797,-2.13844 2.97026,-3.46532 1.11969,-3.35906 2.77761,-6.8477 3.96037,-10.39594 0.63617,-1.90852 0.37502,-4.09536 0.99009,-5.94055 1.31569,-3.94707 -0.8129,-8.94734 0.49504,-12.87118 0.57846,-1.73539 0.88415,-19.41269 0,-20.29685 -1.99696,-1.99696 -10.13226,2.21154 -10.39595,2.47524 -2.35101,2.35101 -0.0259,9.45766 -1.48513,12.37612 -0.98747,1.97493 0.46469,5.01116 -0.49504,6.93063 -1.14251,2.28502 0.11776,5.70501 -0.99009,7.92072 -0.66368,1.32735 -0.1235,5.07395 -0.9901,5.94055 -3.19291,3.1929 -0.65775,9.98225 -7.42568,13.36622 -0.9443,0.47215 -3.37624,0 -4.4554,0 -9.11179,0 -7.09643,-12.70773 -9.9009,-18.31668 -0.58558,-1.17115 0.99009,-11.39151 0.99009,-13.36621 0,-2.32205 -1.75861,-6.87873 -0.49505,-9.40586 0.61035,-1.2207 1.98124,-5.44445 0.99009,-6.43559 -1.30829,-1.30829 -7.84693,0.41079 -9.9009,0 z"
       style="fill:#ac9393;fill-opacity:1;stroke:#ffffff;stroke-width:0.69306325999999996px;stroke-linecap:butt;stroke-linejoin:miter;stroke-opacity:0" />
    <path
       inkscape:connector-curvature="0"
       id="path4870"
       d="m 469.94653,333.406 c -10.64996,-6.17028 -31.92984,0.98892 -37.12839,11.38604 -4.00583,8.01164 10.69754,13.13672 15.84144,14.85135 3.0553,1.01844 6.77055,-0.0534 9.9009,0.99009 2.38264,0.79421 5.17038,1.84263 7.42568,2.97027 3.17891,1.58946 3.57776,5.17536 4.95045,7.92073 0.4583,0.9166 -0.16229,1.80971 -0.49505,2.47522 -4.23368,8.46738 -2.31764,4.23787 -10.39594,6.93063 -4.78276,1.59426 -15.69182,-1.18588 -17.82163,-5.44549 -0.72401,-1.44802 -3.6687,-7.22229 -4.95045,-5.94055 -0.43211,0.43211 -2.40718,0.92205 -2.97028,1.48514 -1.41876,1.41877 -3.24353,5.61579 -2.47521,7.92073 1.13889,3.4167 5.10409,7.31187 8.41575,8.41576 1.54624,0.51541 3.51385,0.27179 4.95046,0.9901 11.65975,5.82987 30.65851,1.55371 36.1383,-9.40586 1.65403,-3.30808 1.63436,-8.95818 0.49504,-12.37614 -5.173,-15.51901 -6.83974,-8.86536 -18.81171,-14.85135 -1.36105,-0.68052 -9.39678,-2.98845 -8.41577,-4.95045 0.8431,-1.68622 2.00108,-0.75302 3.46532,-1.48513 7.15046,-3.57524 12.23202,6.50763 18.31667,3.46531 4.528,-2.26401 2.14491,-15.3464 -6.43558,-15.3464 z"
       style="fill:#ac9393;fill-opacity:1;stroke:#ffffff;stroke-width:0.69306325999999996px;stroke-linecap:butt;stroke-linejoin:miter;stroke-opacity:0" />
    <path
       inkscape:connector-curvature="0"
       id="path4872"
       d="m 520.30818,331.14933 c -7.37924,-0.8776 -18.03404,0.49157 -21.0977,3.01011 -7.7836,6.39865 -14.78711,21.79379 -12.20051,33.12607 1.15855,5.0758 3.6941,9.62971 5.55062,14.46924 0.89171,2.32446 4.90663,4.32871 6.36736,6.10562 0.39632,0.4821 1.437,0.37672 1.93472,0.68945 7.65083,4.80728 30.42862,4.16833 31.41166,-5.89818 0.31583,-3.23404 1.16643,-6.82893 -0.62216,-9.00462 -1.33193,-1.62022 -5.33139,1.09078 -6.09785,1.38479 -1.30469,0.50051 -3.2075,1.72478 -4.23309,2.56792 -0.9617,0.79063 -16.23282,1.57126 -18.40819,0.2044 -5.63435,-3.54025 -6.78903,-9.41616 -5.70725,-15.09385 2.49695,0.63789 5.54838,0.92154 7.15127,0.30665 1.42473,-0.54656 4.8496,0.47359 6.40204,0.62518 7.85142,0.76672 17.56602,-0.50255 20.96813,-5.917 1.49286,-2.37596 3.99717,-7.26808 1.95353,-9.75413 -0.95906,-1.16661 1.05048,-5.66633 -2.08425,-9.40854 0.008,-0.0818 0.0152,-0.15454 0.0229,-0.23711 0.78274,-0.74862 -1.21501,-2.05677 -3.93695,-5.36778 -0.20549,-0.24999 -1.2044,0.0326 -1.48731,-0.14524 -1.32528,-0.83272 -3.42748,-1.37044 -5.88722,-1.66298 z m -3.35498,13.18612 c 0.95081,0.0573 1.83433,0.30608 2.57923,0.77414 1.85229,1.16381 2.07281,2.79516 3.11733,4.17792 -0.17576,0.18371 -0.37446,0.3475 -0.59568,0.52938 -5.95051,4.89173 -9.53375,0.81479 -16.26082,3.3954 -1.13439,0.43517 -2.90065,-0.15383 -4.54244,-0.72648 0.1868,-0.6325 0.3903,-1.27246 0.81087,-1.6182 2.32311,-1.90975 9.75682,-6.84179 14.89151,-6.53216 z"
       style="fill:#ac9393;fill-opacity:1;stroke:#ffffff;stroke-width:0.69306325999999996px;stroke-linecap:butt;stroke-linejoin:miter;stroke-opacity:0" />
    <path
       style="fill:#ac9393;stroke:#ffffff;stroke-width:1px;stroke-linecap:butt;stroke-linejoin:miter;stroke-opacity:0;fill-opacity:1"
       d="m 545.48237,43.048616 c 0.33672,1.34687 2.35703,3.703893 1.01016,4.04061 -1.34687,0.336718 -1.01016,-5.428932 -1.01016,-4.04061 0,1.336782 0.80099,11.912666 1.01016,12.12183 1.04199,1.041995 26.01636,-2.020305 28.28427,-2.020305 0.95795,0 5.45089,0.610023 6.06091,0 1.37986,-1.379859 -2.0203,-8.306806 -2.0203,-10.101525 0,-6.235545 -28.1896,-1.029088 -33.33504,0 z"
       id="path4874"
       inkscape:connector-curvature="0"
       transform="translate(0,308.2677)" />
    <path
       style="fill:#ac9393;fill-opacity:1;stroke:#ffffff;stroke-width:0.69306325999999996px;stroke-linecap:butt;stroke-linejoin:miter;stroke-opacity:0"
       d="m 623.48972,331.38569 c -10.64996,-6.17028 -31.92984,0.98892 -37.12839,11.38604 -4.00583,8.01164 10.69754,13.13672 15.84144,14.85135 3.0553,1.01844 6.77055,-0.0534 9.9009,0.99009 2.38264,0.79421 5.17038,1.84263 7.42568,2.97027 3.17891,1.58946 3.57776,5.17536 4.95045,7.92073 0.4583,0.9166 -0.16229,1.80971 -0.49505,2.47522 -4.23368,8.46738 -2.31764,4.23787 -10.39594,6.93063 -4.78276,1.59426 -15.69182,-1.18588 -17.82163,-5.44549 -0.72401,-1.44802 -3.6687,-7.22229 -4.95045,-5.94055 -0.43211,0.43211 -2.40718,0.92205 -2.97028,1.48514 -1.41876,1.41877 -3.24353,5.61579 -2.47521,7.92073 1.13889,3.4167 5.10409,7.31187 8.41575,8.41576 1.54624,0.51541 3.51385,0.27179 4.95046,0.9901 11.65975,5.82987 30.65851,1.55371 36.1383,-9.40586 1.65403,-3.30808 1.63436,-8.95818 0.49504,-12.37614 -5.173,-15.51901 -6.83974,-8.86536 -18.81171,-14.85135 -1.36105,-0.68052 -9.39678,-2.98845 -8.41577,-4.95045 0.8431,-1.68622 2.00108,-0.75302 3.46532,-1.48513 7.15046,-3.57524 12.23202,6.50763 18.31667,3.46531 4.528,-2.26401 2.14491,-15.3464 -6.43558,-15.3464 z"
       id="path4876"
       inkscape:connector-curvature="0" />
    <path
       style="fill:#ac9393;fill-opacity:1;stroke:#ffffff;stroke-width:1px;stroke-linecap:butt;stroke-linejoin:miter;stroke-opacity:0"
       d="M 656.09375 3.9375 C 653.92063 4.17736 651.26113 8.42442 649.28125 10.3125 C 648.2757 14.59813 647.93581 19.04103 647.8125 23.5 C 646.00403 23.847744 644.13415 24.166863 642.21875 24.25 C 640.05342 23.482903 637.47832 22.771684 636.40625 23.84375 C 634.77835 25.47165 634.70069 33.263182 636.40625 34.96875 C 636.9147 35.477203 637.72398 35.58389 638.6875 35.4375 C 639.53032 36.113368 642.97528 36.331013 647.65625 36.3125 C 647.291 52.14463 647.2856 69.31153 655.75 78.1875 C 662.97692 85.76579 690.183 75.28123 690.40625 65.875 C 690.43095 64.83543 692.20334 64.6453 691.46875 63.875 C 686.1173 58.26335 675.94339 65.87522 671.09375 70.5 C 666.18991 75.17646 658.28769 61.18492 657.1875 60.03125 C 656.19897 58.99466 656.89511 47.95366 657.625 36 C 670.34443 35.28751 684.9044 33.6015 686.125 32.4375 C 686.52783 32.05335 686.20405 29.02252 686.21875 28.40625 C 686.41466 20.15199 676.19298 21.09551 668.21875 20.90625 C 664.63787 20.82125 661.57247 21.81384 658.40625 22.3125 C 658.79454 13.27335 658.77514 5.83687 657.5 4.5 C 657.06429 4.0431 656.59524 3.88215 656.09375 3.9375 z "
       transform="translate(0,308.2677)"
       id="path4891" />
    <path
       style="fill:#ac9393;fill-opacity:1;stroke:#ffffff;stroke-width:1px;stroke-linecap:butt;stroke-linejoin:miter;stroke-opacity:0"
       d="m 695.49003,331.11326 c -1.09496,7.62207 -2.38111,53.17728 1.01015,56.56855 1.43415,1.43415 6.17312,4.43348 9.09137,1.51523 1.80757,-1.80758 1.04167,-7.51312 0,-9.59645 -0.90569,-1.81138 1.37666,-7.20964 0,-8.5863 -3.86632,-3.86632 0.32616,-21.53936 3.03046,-24.24366 0.8576,-0.8576 8.10736,-7.55001 10.6066,-5.05076 0.42006,0.42005 1.90822,0.89806 2.52538,1.51522 0.96018,0.96018 1.66025,3.68056 2.52539,4.54569 0.67769,0.6777 2.79018,0.24028 3.03045,0 0.54409,-0.54408 2.82471,-0.29933 3.53554,-1.01015 2.98885,-2.98886 2.0203,-6.90804 2.0203,-11.11168 0,-5.82773 -10.74953,-10.2826 -17.17259,-7.07107 -0.7375,0.36875 -1.87496,-0.14534 -2.52538,0.50508 -0.977,0.977 -3.71197,1.18659 -5.05076,2.52538 -0.48243,0.48243 -1.94841,0.93826 -2.52539,1.51523 -0.26619,0.2662 -0.50507,1.38661 -0.50507,1.01015 0,-1.43058 0.63201,-4.79689 0,-6.06091 -0.5985,-1.197 -6.96961,0.50507 -8.08122,0.50507 -0.33672,0 -0.8851,-0.31263 -1.01016,0 -0.31882,0.79707 -0.33671,1.68359 -0.50507,2.52538 z"
       id="path4899"
       inkscape:connector-curvature="0" />
    <path
       style="fill:#ac9393;fill-opacity:1;stroke:#ffffff;stroke-width:0.69306325999999996px;stroke-linecap:butt;stroke-linejoin:miter;stroke-opacity:0"
       d="m 764.7651,330.64425 c -7.37924,-0.8776 -18.03404,0.49157 -21.0977,3.01011 -7.7836,6.39865 -14.78711,21.79379 -12.20051,33.12607 1.15855,5.0758 3.6941,9.62971 5.55062,14.46924 0.89171,2.32446 4.90663,4.32871 6.36736,6.10562 0.39632,0.4821 1.437,0.37672 1.93472,0.68945 7.65083,4.80728 30.42862,4.16833 31.41166,-5.89818 0.31583,-3.23404 1.16643,-6.82893 -0.62216,-9.00462 -1.33193,-1.62022 -5.33139,1.09078 -6.09785,1.38479 -1.30469,0.50051 -3.2075,1.72478 -4.23309,2.56792 -0.9617,0.79063 -16.23282,1.57126 -18.40819,0.2044 -5.63435,-3.54025 -6.78903,-9.41616 -5.70725,-15.09385 2.49695,0.63789 5.54838,0.92154 7.15127,0.30665 1.42473,-0.54656 4.8496,0.47359 6.40204,0.62518 7.85142,0.76672 17.56602,-0.50255 20.96813,-5.917 1.49286,-2.37596 3.99717,-7.26808 1.95353,-9.75413 -0.95906,-1.16661 1.05048,-5.66633 -2.08425,-9.40854 0.008,-0.0818 0.0152,-0.15454 0.0229,-0.23711 0.78274,-0.74862 -1.21501,-2.05677 -3.93695,-5.36778 -0.20549,-0.24999 -1.2044,0.0326 -1.48731,-0.14524 -1.32528,-0.83272 -3.42748,-1.37044 -5.88722,-1.66298 z m -3.35498,13.18612 c 0.95081,0.0573 1.83433,0.30608 2.57923,0.77414 1.85229,1.16381 2.07281,2.79516 3.11733,4.17792 -0.17576,0.18371 -0.37446,0.3475 -0.59568,0.52938 -5.95051,4.89173 -9.53375,0.81479 -16.26082,3.3954 -1.13439,0.43517 -2.90065,-0.15383 -4.54244,-0.72648 0.1868,-0.6325 0.3903,-1.27246 0.81087,-1.6182 2.32311,-1.90975 9.75682,-6.84179 14.89151,-6.53216 z"
       id="path4901"
       inkscape:connector-curvature="0" />
    <path
       style="fill:#ac9393;stroke:#ffffff;stroke-width:0.69306325999999996px;stroke-linecap:butt;stroke-linejoin:miter;stroke-opacity:0;fill-opacity:1"
       d="m 811.11891,330.00434 c -1.21959,-0.0828 -2.48952,-0.0462 -3.59506,-0.11479 -14.54047,-0.9031 -27.1194,9.48023 -25.46858,18.75102 0.80303,0.38054 1.53672,0.94727 2.40253,1.14742 0.18566,0.0429 0.44315,0.0373 0.71604,0.001 2.80823,1.73387 7.13418,2.40379 8.12957,1.52482 0.79224,-0.69958 2.28644,-1.54912 3.11453,-2.28035 0.87463,-0.77235 0.34381,-3.12307 1.21844,-3.89542 3.02816,-2.674 5.22342,-3.40751 8.74584,-4.90348 2.77061,-1.17669 6.35191,2.6417 9.52996,3.43459 0.43348,2.25512 0.72304,8.06513 0.13979,8.58017 -0.65882,0.58177 -1.38846,-0.50803 -1.46067,-0.58982 -0.65038,-0.73652 -11.62375,-1.28374 -13.33742,-0.82839 -6.90775,1.83555 -13.42577,5.62788 -16.15454,12.38553 -0.69583,1.72318 -0.84827,3.238 -1.77604,4.83728 -0.95293,1.64264 -0.16138,6.97906 0.47209,8.47061 0.88973,2.09494 0.13603,4.38811 1.59924,6.04512 2.8463,3.22327 10.31551,7.40495 16.0532,4.96814 1.09571,-0.46537 1.74962,0.33466 2.51678,-0.34278 0.86124,-0.76051 5.60424,-0.27008 7.03948,-1.53748 0.44259,-0.39082 2.58066,-0.41961 3.02324,-0.81042 8.25922,-7.29326 1.72961,1.96861 4.17296,4.73557 0.3098,0.35083 4.99241,-0.68811 5.98471,-0.62648 0.5488,0.0341 3.08757,0.54248 3.45865,0.21481 1.7846,-1.57589 1.25942,-4.50532 1.43673,-7.36005 0.21771,-3.50532 0.83767,-11.57763 2.38168,-14.23914 0.97672,-1.68365 0.8493,-8.75381 0.14727,-10.40685 -1.05682,-2.48834 1.1055,-6.44087 0.0546,-8.91528 -3.34221,-7.86956 -3.07805,-12.27793 -10.36726,-16.50658 -1.82243,-1.05724 -5.07031,0.12676 -6.88642,-0.92682 -0.90274,-0.52369 -2.07178,-0.72918 -3.29136,-0.81202 z m 2.70347,28.09576 c 1.23603,0.10858 2.35121,0.34094 3.30076,0.66071 0.38185,2.80386 1.42782,12.28492 -0.36208,13.86549 -4.12093,3.63895 -20.26372,8.33464 -23.80468,-0.003 -4.09128,-9.63331 10.16788,-14.831 19.58928,-14.58089 0.43618,0.0115 0.86472,0.0214 1.27672,0.0576 z"
       id="path4903"
       inkscape:connector-curvature="0"
       sodipodi:nodetypes="sscscsssscscssssscsssssssssssssscsscs" />
    <path
       inkscape:connector-curvature="0"
       id="path4905"
       d="m 842.20495,334.02449 c -2.26134,8.61369 -0.74275,17.93477 -0.40217,26.58126 0.0534,1.36596 0.78381,4.55641 0.22785,5.78712 -1.83758,4.06798 -1.39171,19.62557 1.35587,22.16493 2.39201,2.21072 5.56867,3.0253 7.75419,0.66065 2.21048,-2.39175 1.35794,-13.20295 -0.14448,-15.93355 -1.49064,-2.70913 -1.06037,-22.9875 0.47819,-24.65222 1.19181,-1.28955 2.8854,-2.61914 3.72512,-3.52775 1.50901,-1.6327 3.38136,12.41926 5.39235,14.27788 0.50129,0.46326 -0.38726,2.43029 0.11396,2.89354 0.68907,0.63686 1.81505,0.55022 2.4113,-0.0949 0.32851,-0.35543 2.37093,-1.55968 3.28084,-2.54423 1.34838,-1.45889 2.59159,-17.77655 6.12492,-16.18045 1.08838,0.49165 0.6455,1.17311 1.04052,1.89105 1.24856,2.26921 2.4362,4.42773 3.64168,6.61869 1.26485,2.29882 0.36589,9.67604 -0.50871,11.61221 -0.46232,1.02342 -0.38588,21.23811 0.41036,22.68519 0.78513,1.42694 1.53086,2.809 2.56319,3.76312 1.67646,1.54941 5.53317,-1.81263 6.19344,-2.17593 4.76038,-2.61923 3.35666,-32.85298 0.42867,-38.17448 -1.21623,-2.21041 -0.4039,-10.58443 -3.01899,-15.33735 -0.15712,-0.28544 0.17473,-1.23262 -0.0568,-1.44677 -3.06909,-2.8365 -10.64238,-4.07217 -14.95009,0.58875 -0.8119,0.87852 -4.66319,7.30784 -5.54022,6.49727 -1.10804,-1.0241 -0.89467,-3.15039 -2.09993,-4.26437 -1.68056,-1.55318 -4.40808,-2.67994 -5.9581,-4.11244 -5.11288,-4.72546 -7.09315,-2.23091 -12.46274,2.42282 z"
       style="fill:#ac9393;fill-opacity:1;stroke:#ffffff;stroke-width:0.67568684000000001px;stroke-linecap:butt;stroke-linejoin:miter;stroke-opacity:0" />
  </g>
</svg>
