<?xml version="1.0" encoding="UTF-8" standalone="no"?>
<!-- Created with Inkscape (http://www.inkscape.org/) -->

<svg
   xmlns:dc="http://purl.org/dc/elements/1.1/"
   xmlns:cc="http://creativecommons.org/ns#"
   xmlns:rdf="http://www.w3.org/1999/02/22-rdf-syntax-ns#"
   xmlns:svg="http://www.w3.org/2000/svg"
   xmlns="http://www.w3.org/2000/svg"
   xmlns:sodipodi="http://sodipodi.sourceforge.net/DTD/sodipodi-0.dtd"
   xmlns:inkscape="http://www.inkscape.org/namespaces/inkscape"
   width="744.09448819"
   height="1052.3622047"
   id="svg2"
   version="1.1"
   inkscape:version="0.48.2 r9819"
   sodipodi:docname="ploy.svg">
  <defs
     id="defs4" />
  <sodipodi:namedview
     id="base"
     pagecolor="#ffffff"
     bordercolor="#666666"
     borderopacity="1.0"
     inkscape:pageopacity="0.0"
     inkscape:pageshadow="2"
     inkscape:zoom="0.41390481"
     inkscape:cx="523.938"
     inkscape:cy="525.804"
     inkscape:document-units="px"
     inkscape:current-layer="g4147"
     showgrid="false"
     inkscape:window-width="1364"
     inkscape:window-height="766"
     inkscape:window-x="0"
     inkscape:window-y="0"
     inkscape:window-maximized="0" />
  <metadata
     id="metadata7">
    <rdf:RDF>
      <cc:Work
         rdf:about="">
        <dc:format>image/svg+xml</dc:format>
        <dc:type
           rdf:resource="http://purl.org/dc/dcmitype/StillImage" />
        <dc:title />
      </cc:Work>
    </rdf:RDF>
  </metadata>
  <g
     inkscape:label="Layer 1"
     inkscape:groupmode="layer"
     id="layer1">
    <path
       style="fill:#333333;fill-opacity:1;stroke:#ffffff;stroke-width:1px;stroke-linecap:butt;stroke-linejoin:miter;stroke-opacity:0"
       d="m 200.5292,647.67976 c 14.78522,-5.7971 64.64597,-27.30185 96.58484,-44.51282 25.22007,-4.07192 43.99409,-30.35051 70.49263,-25.64351 21.33966,2.77002 42.98485,2.5375 63.91644,7.94703 26.67989,3.42218 62.2071,8.02554 87.70536,16.86078 19.94614,1.87435 54.19837,3.98785 37.60027,12.26245 -24.44843,20.69572 -65.9023,41.03031 -89.70651,62.52112 -23.18602,11.30239 -55.02246,8.73934 -81.32466,4.69213 -25.34815,-5.61972 -53.79464,-6.64028 -79.32532,-12.22836 -19.42962,-3.45028 -56.30031,-8.71702 -78.31121,-11.63704 -7.71466,-1.63208 -22.70176,-3.86802 -27.63184,-10.26178 z"
       id="path4079"
       inkscape:connector-curvature="0"
       sodipodi:nodetypes="ccccccccccc" />
    <path
       style="fill:#333333;fill-opacity:1;stroke:#ffffff;stroke-width:1px;stroke-linecap:butt;stroke-linejoin:miter;stroke-opacity:0"
       d="m 180.31386,539.48389 c 35.71752,-13.64156 71.67589,-26.90824 106.473,-42.66319 16.94048,-5.77216 27.69885,-8.73158 45.11315,-11.46634 26.01554,2.15404 51.10773,4.03747 76.98378,6.9491 15.91579,1.68124 35.08256,3.06727 51.45829,4.92854 16.57953,4.08554 37.62466,0.2304 50.0051,5.17152 -6.156,8.09182 -23.28482,14.34749 -44.78432,25.74992 -19.26519,7.33695 -38.8683,13.6085 -57.04261,23.34763 -11.71351,3.93672 -42.25206,16.81846 -56.3758,22.30112 -18.06683,-3.93139 -32.936,-2.79177 -50.82357,-6.52895 -16.92121,0.60578 -55.63235,-8.91072 -72.44936,-9.95301 -26.45428,-2.82427 -45.47984,-7.71745 -56.39217,-8.28244 -22.46239,-2.77664 2.48678,-7.45781 7.83451,-9.5539 z"
       id="path3927"
       inkscape:connector-curvature="0"
       sodipodi:nodetypes="ccccccccccccc" />
    <path
       style="fill:#ced0dc;fill-opacity:1;stroke:#ffffff;stroke-width:1px;stroke-linecap:butt;stroke-linejoin:miter;stroke-opacity:0"
       d="m 144.38874,549.07228 c -0.59607,0.0475 -0.44194,0.16737 1.625,0.15625 -0.35739,-0.16844 -1.1517,-0.19395 -1.625,-0.15625 z m 1.625,0.15625 c 0.49754,0.2345 0.12892,0.7734 -3.28125,1.90625 -3.25581,1.42086 -6.56012,2.58822 -9.90625,3.625 -0.68814,1.14002 -15.9046,12.9079 -13.21875,15.59375 5.7621,5.7621 17.94488,9.00369 26.5625,13.3125 6.22465,3.11233 4.40057,10.43182 8.46875,14.5 0.0682,0.0682 3.71115,2.3201 2.40625,3.625 -3.02049,3.02049 -25.71342,17.41689 -21.75,25.34375 2.11009,4.22017 7.04235,7.07359 9.65625,9.6875 1.42923,1.42923 7.61477,2.58863 9.6875,3.625 2.98246,1.49123 7.51294,3.77608 12.375,6.65625 1.36437,0.24033 2.72019,0.472 4.09375,0.71875 16.85626,3.33375 31.43788,-6.05139 46.375,-11.96875 24.42414,-10.51302 48.48822,-21.85098 72.21875,-33.8125 16.52761,-6.51589 32.55601,-14.37247 48.875,-21.21875 12.09401,-1.02855 7.99488,-7.59868 -1.75,-6.96875 -15.758,-1.32319 -29.15381,-3.28583 -42.40625,-3.375 -14.10543,-1.71768 -25.78578,-3.8723 -39.90625,-5.8125 -15.55148,-3.3582 -33.88194,-4.082 -49.78125,-8.40625 -14.1433,1.13246 -24.06333,-2.46188 -37.65625,-5.96875 -6.72891,-0.75601 -13.51273,-1.04497 -20.28125,-1.0625 -0.3759,0.007 -0.49257,-0.002 -0.78125,0 z"
       id="path3901"
       inkscape:connector-curvature="0" />
    <path
       style="fill:#ced0dc;fill-opacity:1;stroke:#ffffff;stroke-width:1px;stroke-linecap:butt;stroke-linejoin:miter;stroke-opacity:0"
       d="M 519.75 507.4375 C 519.60619 507.45742 519.49719 507.50281 519.4375 507.5625 C 516.58215 510.41785 511.32517 511.61866 507.375 513.59375 C 492.89912 520.83169 472.00933 527.31035 459.03125 534.125 C 448.85662 539.4676 433.61054 546.8489 428.84375 548.625 C 414.06377 554.13201 389.60097 568.01443 361.1875 572.78125 C 385.23245 572.78125 400.69364 578.03724 421.59375 580.03125 C 425.52095 580.40592 442.16125 584.28716 456.625 584.875 C 465.26167 585.22602 476.66622 589.46738 490.4375 592.125 C 507.70459 595.45726 523.0057 597.17899 535.15625 600.5625 C 546.0208 603.5879 557.24507 602.62993 558.09375 601.78125 C 559.55228 600.32272 561.91503 599.91418 564.4375 599.65625 C 566.73714 595.92516 571.05999 590.62752 573.15625 588.53125 C 574.32834 587.35916 577.98022 574.33228 578.28125 574.03125 C 578.84384 573.46866 579.99487 570.55223 579.15625 568.875 C 573.33961 557.24172 563.06246 560.49996 556.0625 553.5 C 553.81748 551.25498 558.30423 528.07721 555.21875 521.90625 C 551.59194 514.65263 544.48085 512.85311 537.8125 511.375 C 536.93277 511.30822 536.10288 511.24412 535.15625 511.1875 C 532.94793 511.05542 521.90716 507.13867 519.75 507.4375 z "
       id="path4095" />
    <g
       id="g4137"
       transform="translate(79.594865,-109.08488)">
      <path
         id="path3052"
         d="m 268.03027,353.64649 c -0.61613,0.0194 -1.25643,0.0505 -1.875,0.0937 -2.9894,0.20895 -5.97799,0.71948 -8.96875,1.5 -7.97481,-1.53702 -26.02102,12.51027 -31.53125,32.90625 -7.56331,27.99543 0.63279,44.80228 15.625,52.1875 -0.62604,4.76176 -1.23839,9.50405 -1.84375,14.25 -0.0217,-8e-5 -0.0407,0 -0.0625,0 -3.95965,-4.08299 -9.15095,10.78389 -3.40625,13.65625 0.47509,0.23754 1.01382,0.50377 1.53125,0.75 -2.64281,18.32134 -6.15861,36.22257 -13.3125,52.875 -2.66647,6.20688 -5.87173,12.0497 -9.34375,17.5625 -4.28862,14.57925 -16.13494,28.24085 -25.09375,38.3125 -2.1982,0.0433 -4.87141,0.76284 -8.40625,4.25 -1.09948,1.08465 0.59497,2.75717 3.46875,4.53125 -0.77958,2.30607 -1.48067,4.46487 -2.625,5.75 -0.93371,1.04859 -0.74235,19.21696 -2.21875,20.875 -2.13328,2.39575 -3.49378,21.92321 0.3125,25.3125 1.74844,1.55688 4.11513,3.086 6.78125,4.5625 3.21272,1.48845 6.4816,2.78761 9.8125,3.6875 4.77366,1.28967 10.31901,0.156 15.0625,1.4375 36.69316,9.91311 91.43427,7.37595 112.90625,0.375 5.50642,-1.79538 14.348,-4.09103 23.1875,-6.625 4.78061,-4.62317 8.38798,-10.14932 8.125,-17.25 -3.98402,-8.96078 0.77962,-19.16584 -2.625,-28.03125 -0.93669,-2.86146 -1.6559,-5.83533 -2.25,-8.84375 0.80053,-0.95728 1.30857,-2.36367 1.34375,-4.375 0.0205,-1.17378 1.67226,-2.53017 0.875,-3.375 -1.97506,-2.09292 -5.20894,-2.92919 -8.90625,-2.96875 -4.81366,-4.44513 -9.31924,-9.88321 -13.75,-13.53125 -3.1469,-2.591 -3.55644,-6.87248 -6.9375,-9.65625 -2.35504,-1.93901 -5.30904,-12.92251 -9.3125,-16.21875 -1.28154,-1.05516 -1.42039,-5.18422 -2.34375,-6.65625 -1.63241,-2.60239 -7.74808,-11.81026 -6.59375,-14.8125 0.24846,-0.64621 0.48051,-1.30614 0.6875,-1.96875 -0.002,-0.0102 0.002,-0.0209 0,-0.0312 -2.31788,-10.35081 -4.11494,-22.96619 -4.46875,-23.28125 -2.6425,-2.35299 -3.65142,-11.36066 -3.15625,-19.5625 -0.35855,-1.58896 -0.69355,-3.27251 -1.03125,-5 1.56597,-1.37134 3.06825,-2.94899 4.0625,-4.9375 1.37867,-2.75735 -3.53192,-6.80286 -6.21875,-7.6875 -0.7467,-5.01746 -1.42687,-10.26614 -2.0625,-15.71875 3.28413,-1.40398 6.55783,-2.96498 9.71875,-4.78125 7.56123,-4.34471 7.92355,-16.86396 10.0625,-24.78125 6.62714,-24.53024 -6.80188,-43.99556 -26.03125,-51.46875 -0.009,-0.15714 -0.0192,-0.41464 -0.0312,-0.625 -2.17554,-0.52745 -4.34449,-1.00267 -6.53125,-1.40625 -0.20842,-0.0385 -0.41647,-0.0875 -0.625,-0.125 -1.94906,-0.35052 -3.91617,-0.65838 -5.875,-0.9375 -0.0732,-0.007 -0.14549,-0.0246 -0.21875,-0.0312 -1.94878,-0.17595 -3.92013,-0.25001 -5.90625,-0.1875 z"
         style="fill:#333333;stroke:#ffffff;stroke-width:1px;stroke-linecap:butt;stroke-linejoin:miter;stroke-opacity:0"
         inkscape:connector-curvature="0" />
      <path
         inkscape:connector-curvature="0"
         id="path5242"
         d="m 247.06819,377.69858 c -2.35926,-2.97239 -2.15702,3.8654 -6.83352,8.5419 -0.39486,0.39486 0.25787,2.04683 0,2.56257 -7.33048,14.66096 19.818,27.16246 30.75085,16.22961 9.8466,-9.84661 -1.95455,-22.45511 -6.83352,-27.33408 -1.28954,-1.28954 -5.48564,-1.21469 -6.83353,-2.56257 -1.8968,-1.89681 -9.20785,2.1456 -10.25028,2.56257 z"
         style="fill:#4b4b4b;fill-opacity:1;stroke:#ffffff;stroke-width:1px;stroke-linecap:butt;stroke-linejoin:miter;stroke-opacity:0" />
      <path
         inkscape:connector-curvature="0"
         id="path5273"
         d="m 243.65143,454.57568 c -1.13892,0.56946 -2.8473,2.8473 -3.41676,1.70838 -0.56946,-1.13892 4.31716,-2.60877 3.41676,-1.70838 -2.59465,2.59466 -5.38738,1.97063 -6.83352,3.41676 -3.68256,3.68257 9.64301,1.70838 12.81285,1.70838 3.2681,0 18.42086,2.07971 20.50057,0 0.23724,-0.23724 10.25028,-2.00396 10.25028,-1.70838 0,1.8685 -10.00599,-1.58623 -10.25028,-1.70838 -5.22099,-2.61049 -20.31585,-2.94119 -26.4799,-1.70838 z"
         style="fill:#4b4b4b;fill-opacity:1;stroke:#ffffff;stroke-width:1px;stroke-linecap:butt;stroke-linejoin:miter;stroke-opacity:0" />
      <path
         id="path5301"
         d="m 255.71777,477.55274 c -3.88128,0.018 -8.28242,1.10811 -10.34375,1.78125 0,2.56257 1.81201,5.87549 0,7.6875 -4.12252,4.12252 -6.19319,16.4432 -9.40625,19.65625 -5.43611,5.43612 20.02232,4.72768 13.65625,11.09375 -2.02629,2.02629 -6.37819,1.28444 -8.53125,3.4375 -3.2258,3.22581 -3.36851,7.64976 -5.96875,10.25 -2.61539,2.6154 -0.63428,17.69679 -5.125,22.1875 -3.05692,3.05692 -7.68686,-6.4e-4 -10.25,2.5625 -2.50103,2.50103 -14.67961,13.7901 -22.1875,22.6875 2.30135,0.0787 5.01028,0.4019 5.90625,0.40625 3.71631,-4.10455 5.51386,-8.88887 8.59375,-11.96875 3.87576,-3.87576 12.36045,-0.42294 16.21875,-4.28125 4.07097,-4.07096 8.26663,-7.12701 11.96875,-14.53125 1.93292,-3.86583 0.26337,-11.35711 3.40625,-14.5 5.04183,-5.04182 16.01977,-9.0083 18.78125,-14.53125 3.37511,-6.75022 -14.26264,-18.17486 -8.53125,-23.90625 1.04703,-1.04703 0.45883,-4.74008 1.71875,-6 1.56819,-1.56819 9.19116,-4.61767 6.8125,-9.375 -1.01085,-2.02169 -3.69998,-2.67022 -6.71875,-2.65625 z"
         style="fill:#4b4b4b;fill-opacity:1;stroke:#ffffff;stroke-width:1px;stroke-linecap:butt;stroke-linejoin:miter;stroke-opacity:0"
         inkscape:connector-curvature="0" />
      <path
         inkscape:connector-curvature="0"
         id="path5307"
         d="m 191.54584,579.28744 c 22.21329,4.22031 45.26711,1.70838 69.1894,1.70838 2.68032,0 17.93799,-0.56053 17.93799,-2.56257 0,-2.55088 -24.59433,0 -28.18828,0 -2.11255,0 -34.11417,1.7618 -34.1676,1.70838 -3.5151,-3.51511 -19.14269,-2.2614 -24.77151,-0.85419 z"
         style="fill:#4a4a4a;fill-opacity:1;stroke:#ffffff;stroke-width:1px;stroke-linecap:butt;stroke-linejoin:miter;stroke-opacity:0" />
      <path
         inkscape:connector-curvature="0"
         id="path5312"
         d="m 190.69165,589.53772 c 4.84324,6.21899 50.35626,-0.0409 52.95978,2.56257 0.71787,0.71786 -6.3909,5.12514 -7.68771,5.12514 -3.38767,0 -8.99623,1.08135 -11.95866,2.56257 -1.82227,0.91113 -5.01125,-0.91114 -6.83352,0 -6.8342,3.4171 -16.219,0.84888 -23.06313,4.27095 -4.73202,2.36601 18.79218,12.27666 18.79218,14.52123 0,4.32676 -12.08646,0.98199 -13.66704,2.56257 -2.42808,2.42808 1.39207,5.75775 0,8.5419 -0.96248,1.92496 -7.78072,4.27095 -10.25028,4.27095 -0.62254,0 -5.12514,1.76386 -5.12514,1.70838 0,-1.46096 6.33182,-4.12173 7.68771,-6.83352 1.292,-2.584 -3.41676,-6.65407 -3.41676,-9.39609 0,-2.39563 2.98331,-1.27493 4.27095,-2.56257 0.28473,-0.28473 0.85419,-1.25686 0.85419,-0.85419 0,0.42567 -1.84141,-2.6956 -4.27095,-5.12514 -0.59109,-0.59109 -7.78595,-8.44366 -5.97933,-10.25028 5.27495,-5.27495 18.48351,2.39028 7.68771,-11.10447 z"
         style="fill:#4b4b4b;fill-opacity:1;stroke:#ffffff;stroke-width:1px;stroke-linecap:butt;stroke-linejoin:miter;stroke-opacity:0" />
      <path
         inkscape:connector-curvature="0"
         id="path5353"
         d="m 233.40115,413.57456 c -0.74236,6.41313 7.49892,13.99974 18.79218,19.64637 2.06396,1.03198 9.99655,-0.25373 10.25029,0 2.82475,2.82476 -5.83403,6.12464 -2.56257,9.39609 1.92647,1.92648 13.97703,-8.23191 10.25028,-11.95866 -1.00979,-1.00978 -1.24275,-2.95113 -2.56257,-4.27095 -2.09351,-2.0935 -12.50068,-1.12519 -15.37543,-2.56257 -7.0499,-3.52495 -10.91196,-7.09819 -18.79218,-10.25028 z"
         style="fill:#4b4b4b;fill-opacity:1;stroke:#ffffff;stroke-width:1px;stroke-linecap:butt;stroke-linejoin:miter;stroke-opacity:0" />
      <path
         id="path4113"
         d="m 321.03125,548.875 c -0.30316,1.90678 2.35865,4.79827 4.6875,6.96875 -0.50925,-0.70596 -1.08495,-1.36973 -1.8125,-1.96875 -0.86642,-0.71336 -1.82401,-2.67145 -2.875,-5 z m 9.0625,13.9375 c -0.033,0.44841 -0.10731,0.90658 -0.1875,1.375 0.45696,-0.17204 0.97597,-0.11778 1.53125,0.4375 3.36187,3.36187 5.85346,8.5549 8.59375,13.0625 -6.17665,0.3637 -22.26247,0.57498 -22.28125,0.59375 -0.73983,0.73984 -3.11454,0.55259 -4.46875,0.3125 0.81576,0.65948 1.79122,2.13497 1.90625,2.25 0.30184,0.30183 16.15606,0.96893 16.25,0.875 1.61067,-1.61067 5.0338,1.42296 6.8125,0 0.1856,-0.14848 0.36672,-0.34168 0.53125,-0.53125 -0.21066,-0.81704 0.62347,-1.99114 1.65625,-2.8125 0.0517,0.0827 0.1043,0.16787 0.15625,0.25 -0.61356,0.7884 -1.15348,1.80319 -1.8125,2.5625 0.0502,0.19464 0.16579,0.38888 0.34375,0.53125 0.47332,0.37865 1.19917,0.005 1.90625,-0.625 0.14324,-0.29613 0.35382,-0.61749 0.5625,-0.9375 0.0459,0.0663 0.11008,0.12185 0.15625,0.1875 -0.22912,0.27404 -0.46896,0.52757 -0.71875,0.75 -0.1062,0.21956 -0.18116,0.43706 -0.21875,0.625 -0.1374,0.68699 1.07932,0.24292 2,0.0625 0.46628,0.58231 0.93715,1.12465 1.4375,1.625 0.0788,0.0788 0.097,0.52813 0.0937,1.125 1.04943,-0.0263 1.95718,0.0822 2.46875,0.59375 0.98,0.98 0.12915,29.19165 1.6875,30.75 1.65408,1.65412 1.71875,5.35958 1.71875,8.53125 0,0.75408 2.21185,2.06939 1.71875,2.5625 -1.06576,1.06576 -2.5625,4.06869 -2.5625,4.28125 0,0.25468 -5.82146,3.22771 -6,3.40625 -1.94661,1.94661 -8.46149,1.64899 -10.25,3.4375 -0.30093,0.30092 -12.36404,1.49452 -14.5,2.5625 -2.58287,1.29144 -11.24759,-2.50121 -16.25,0 -6.69881,3.3494 -21.63451,-1.99525 -27.3125,0.84375 -5.54332,2.77166 -37.75541,6.3098 -43.5625,3.40625 -6.98272,-3.49136 -35.52458,-7.23538 -44.125,-1.75 3.11349,1.42894 6.27559,2.69138 9.5,3.5625 4.77366,1.28967 10.31901,0.156 15.0625,1.4375 36.69316,9.91311 91.43427,7.37595 112.90625,0.375 5.50642,-1.79538 14.348,-4.09103 23.1875,-6.625 4.78061,-4.62317 8.38798,-10.14932 8.125,-17.25 -3.98402,-8.96078 0.77962,-19.16584 -2.625,-28.03125 -0.93669,-2.86146 -1.6559,-5.83533 -2.25,-8.84375 0.80053,-0.95728 1.30857,-2.36367 1.34375,-4.375 0.0205,-1.17378 1.67226,-2.53017 0.875,-3.375 -1.97506,-2.09292 -5.20894,-2.92919 -8.90625,-2.96875 -4.81366,-4.44513 -9.31924,-9.88321 -13.75,-13.53125 -0.27196,-0.22392 -0.51524,-0.47164 -0.75,-0.71875 z m -16.8125,15.78125 c -0.23814,-0.19252 -0.47327,-0.3125 -0.65625,-0.3125 -0.6621,0 -0.2007,0.16057 0.65625,0.3125 z"
         style="fill:#4b4b4b;fill-opacity:1;stroke:#ffffff;stroke-width:1px;stroke-linecap:butt;stroke-linejoin:miter;stroke-opacity:0"
         inkscape:connector-curvature="0" />
    </g>
    <g
       id="g4147"
       transform="translate(-81.644118,80.643374)">
      <path
         inkscape:connector-curvature="0"
         style="fill:#eaeaef;fill-opacity:1;stroke:#ffffff;stroke-width:1px;stroke-linecap:butt;stroke-linejoin:miter;stroke-opacity:0"
         d="m 474.53701,285.16472 c -0.61613,0.0194 -1.25643,0.0505 -1.875,0.0937 -2.9894,0.20895 -5.97799,0.71948 -8.96875,1.5 -7.97481,-1.53702 -26.02102,12.51027 -31.53125,32.90625 -7.56331,27.99543 0.63279,44.80228 15.625,52.1875 -0.62604,4.76176 -1.23839,9.50405 -1.84375,14.25 -0.0217,-8e-5 -0.0407,0 -0.0625,0 -3.95965,-4.08299 -9.15095,10.78389 -3.40625,13.65625 0.47509,0.23754 1.01382,0.50377 1.53125,0.75 -2.64281,18.32134 -6.15861,36.22257 -13.3125,52.875 -2.66647,6.20688 -5.87173,12.0497 -9.34375,17.5625 -4.28862,14.57925 -16.13494,28.24085 -25.09375,38.3125 -2.1982,0.0433 -4.87141,0.76284 -8.40625,4.25 -1.09948,1.08465 0.59497,2.75717 3.46875,4.53125 -0.77958,2.30607 -1.48067,4.46487 -2.625,5.75 -0.93371,1.04859 -0.74235,19.21696 -2.21875,20.875 -2.13328,2.39575 -3.49378,21.92321 0.3125,25.3125 1.74844,1.55688 4.11513,3.086 6.78125,4.5625 3.21272,1.48845 6.4816,2.78761 9.8125,3.6875 4.77366,1.28967 10.31901,0.156 15.0625,1.4375 36.69316,9.91311 91.43427,7.37595 112.90625,0.375 5.50642,-1.79538 14.348,-4.09103 23.1875,-6.625 4.78061,-4.62317 8.38798,-10.14932 8.125,-17.25 -3.98402,-8.96078 0.77962,-19.16584 -2.625,-28.03125 -0.93669,-2.86146 -1.6559,-5.83533 -2.25,-8.84375 0.80053,-0.95728 1.30857,-2.36367 1.34375,-4.375 0.0205,-1.17378 1.67226,-2.53017 0.875,-3.375 -1.97506,-2.09292 -5.20894,-2.92919 -8.90625,-2.96875 -4.81366,-4.44513 -9.31924,-9.88321 -13.75,-13.53125 -3.1469,-2.591 -3.55644,-6.87248 -6.9375,-9.65625 -2.35504,-1.93901 -5.30904,-12.92251 -9.3125,-16.21875 -1.28154,-1.05516 -1.42039,-5.18422 -2.34375,-6.65625 -1.63241,-2.60239 -7.74808,-11.81026 -6.59375,-14.8125 0.24846,-0.64621 0.48051,-1.30614 0.6875,-1.96875 -0.002,-0.0102 0.002,-0.0209 0,-0.0312 -2.31788,-10.35081 -4.11494,-22.96619 -4.46875,-23.28125 -2.6425,-2.35299 -3.65142,-11.36066 -3.15625,-19.5625 -0.35855,-1.58896 -0.69355,-3.27251 -1.03125,-5 1.56597,-1.37134 3.06825,-2.94899 4.0625,-4.9375 1.37867,-2.75735 -3.53192,-6.80286 -6.21875,-7.6875 -0.7467,-5.01746 -1.42687,-10.26614 -2.0625,-15.71875 3.28413,-1.40398 6.55783,-2.96498 9.71875,-4.78125 7.56123,-4.34471 7.92355,-16.86396 10.0625,-24.78125 6.62714,-24.53024 -6.80188,-43.99556 -26.03125,-51.46875 -0.009,-0.15714 -0.0192,-0.41464 -0.0312,-0.625 -2.17554,-0.52745 -4.34449,-1.00267 -6.53125,-1.40625 -0.20842,-0.0385 -0.41647,-0.0875 -0.625,-0.125 -1.94906,-0.35052 -3.91617,-0.65838 -5.875,-0.9375 -0.0732,-0.007 -0.14549,-0.0246 -0.21875,-0.0312 -1.94878,-0.17595 -3.92013,-0.25001 -5.90625,-0.1875 z"
         id="path3112" />
      <path
         id="path3954"
         d="m 474.53125,285.15625 c -0.61613,0.0194 -1.25643,0.0505 -1.875,0.0937 -2.9894,0.20895 -5.97799,0.71948 -8.96875,1.5 -7.97481,-1.53702 -26.02102,12.51027 -31.53125,32.90625 -7.56331,27.99543 0.63279,44.80228 15.625,52.1875 -0.026,0.1978 -0.0365,0.39602 -0.0625,0.59375 5.52889,-0.0261 22.50833,-2.13333 14.40625,5.96875 -0.68178,0.68178 -3.38508,-0.44808 -4.28125,0 -4.53596,2.26798 -8.00244,2.15479 -11.09375,1.46875 -0.26744,2.07201 -0.54828,4.14727 -0.8125,6.21875 -0.0217,-8e-5 -0.0407,0 -0.0625,0 -3.48373,-3.59225 -7.896,7.48568 -5,12.15625 0.21153,-0.50957 0.49695,-0.93598 0.75,-1.0625 6.83352,-3.41676 18.79148,3.41676 25.625,0 1.52473,-0.76236 6.17363,-2.5625 7.6875,-2.5625 0.34565,0 3.06102,1.53421 4.25,-0.84375 1.22254,-2.44507 -20.65992,-3.76379 -24.75,-1.71875 -1.58403,0.79202 -11.05671,-1.75579 -10.25,-2.5625 1.84139,-1.84139 8.59896,-0.84375 9.375,-0.84375 2.0389,0 5.84532,-3.48359 7.6875,-2.5625 2.87323,1.43662 19.16221,6.08183 20.5,3.40625 2.18826,-4.37651 -13.46429,-12.43819 -12.375,-16.375 -1.62918,-0.38704 -4.10434,0.88533 -5.5625,0.15625 -4.21734,-2.10867 -8.01493,-4.60868 -11.09375,-7.6875 -0.5783,-0.5783 6.21024,-1.08524 6.84375,-1.71875 0.70998,-0.70998 -1.58563,-1.55438 -1.71875,-1.6875 -0.3077,-0.3077 -5.47125,-8.21625 -5.125,-8.5625 1.82921,-1.82922 18.41054,5.92891 24.78125,-6.8125 2.01195,-4.0239 -12.97135,-6.04818 -16.25,-7.6875 -0.9918,-0.4959 -5.86683,-2.97921 -6.4375,-3.25 3.37834,0.68136 29.3271,-1.20415 23.53125,-7 C 477.12455,327.6558 457,324.67261 457,321.1875 c 0,-2.66813 22.04597,-1.82115 26.15625,-6.4375 -0.90439,-1.16462 -1.81682,-2.35045 -2.75,-3.40625 C 473.91045,310.64773 458.85527,309.35527 457,307.5 c -1.02661,-1.02661 0.84375,-2.79815 0.84375,-4.25 0,-0.17155 0.26819,-2.49723 1.03125,-4.09375 l -0.1875,-0.1875 c -3.29326,-3.29326 5.06988,-6.75738 6,-7.6875 3.78838,-3.78838 12.46213,-2.87569 17.28125,-5.71875 -0.43776,-0.0653 -0.87528,-0.1252 -1.3125,-0.1875 -0.0732,-0.007 -0.14549,-0.0247 -0.21875,-0.0312 -1.94878,-0.17595 -3.92013,-0.25001 -5.90625,-0.1875 z M 454.4375,335.6875 c 0,-10e-4 0.31474,0.1738 0.34375,0.1875 -0.21904,-0.0463 -0.34375,-0.11862 -0.34375,-0.1875 z m -10.78125,67.15625 c -0.14148,0.95012 -0.29028,1.89621 -0.4375,2.84375 0.87744,0.32323 1.74164,0.83539 2.65625,1.75 1.37825,1.37826 -1.99882,10.56133 -4.25,12.8125 -0.21314,0.21314 -2.16588,14.13462 -4.28125,16.25 -0.26814,0.26814 1.77211,10.11203 0,13.65625 -3.25561,6.51122 -6.73417,13.57791 -12.8125,19.65625 -0.36285,0.36285 -1.00359,-0.34773 -1.71875,-1.28125 -0.48663,0.80511 -0.97032,1.61485 -1.46875,2.40625 -4.28862,14.57925 -16.13494,28.24085 -25.09375,38.3125 -1.42025,0.028 -3.04765,0.37464 -4.96875,1.53125 7.16937,2.64453 23.03478,6.40448 28.96875,3.4375 1.26935,-0.63467 16.74178,-3.75822 17.09375,-3.40625 1.79399,1.79399 5.87371,2.07749 8.53125,3.40625 1.93115,0.96558 4.20062,-0.84375 6,-0.84375 2.85068,0 29.44355,0.21573 29.875,0 3.44126,-1.72063 5.43309,-3.74558 7.6875,-6 2.53417,-2.53417 -11.04052,-1.6875 -11.9375,-1.6875 -8.22025,0 -20.9609,-1.01303 -29.0625,1.6875 -2.14663,0.71555 -33.72296,-0.9171 -34.6875,-0.84375 0.37795,-0.36903 0.99074,-1.33449 1.375,-1.71875 1.42365,-1.42365 4.57635,-1.13885 6,-2.5625 3.30839,-3.30839 19.50318,-4.97193 23.90625,-9.375 5.37951,-5.37951 -4.76292,-12.72416 -1.71875,-18.8125 1.11462,-2.22925 1.24305,-4.6493 2.5625,-5.96875 1.539,-1.539 5.37172,-1.09047 6.84375,-2.5625 L 464.6875,453.5625 c 0.63668,-0.63668 -0.875,-1.66211 -0.875,-2.5625 0,-10.16003 -19.33634,-7.97616 -11.9375,-15.375 0.71459,-0.71459 0.0362,-4.31749 0.84375,-5.125 3.93425,-3.93426 21.21025,-12.946 12.8125,-21.34375 -4.16745,-4.16745 -13.3742,-0.5617 -13.65625,-0.84375 -2.27501,-2.27501 -5.45046,-3.68702 -8.21875,-5.46875 z"
         style="fill:#bdc0d0;fill-opacity:1;stroke:#ffffff;stroke-width:1px;stroke-linecap:butt;stroke-linejoin:miter;stroke-opacity:0"
         inkscape:connector-curvature="0" />
      <path
         id="path4030"
         d="M 478.6875,521.5625 C 470.83481,521.5093 459.29908,522.75 457,522.75 c -23.12345,0 -48.3435,2.00716 -67.25,-0.65625 -0.31915,0.64803 -0.65418,1.22894 -1.0625,1.6875 -0.93371,1.04859 -0.74235,19.21696 -2.21875,20.875 -2.13328,2.39575 -3.49378,21.92321 0.3125,25.3125 1.09722,0.97701 2.46337,1.95725 3.96875,2.90625 0.007,0.005 0.0238,-0.005 0.0312,0 1.34857,-0.0249 2.6849,-0.10504 3.84375,0.28125 6.8832,2.2944 7.17959,2.5625 12.8125,2.5625 3.07171,0 8.72323,1.52677 10.25,0 2.47181,-2.47182 -2.68997,-2.40379 -1.6875,-3.40625 0.043,-0.043 13.5511,0.10515 15.375,-1.71875 0.74637,-0.74637 1.35392,0.875 1.6875,0.875 4.45162,0 24.88501,-1.92628 26.5,-5.15625 2.85677,-5.71354 -28.33475,-8.67849 -33.3125,-13.65625 -2.02927,-2.02927 4.22645,-1.71875 7.6875,-1.71875 5.51187,0 25.57409,-1.30671 17.9375,-5.125 -4.34329,-2.17164 -29.84407,-9.43719 -28.1875,-11.09375 1.20839,-1.20839 7.66867,0 8.53125,0 1.66024,0 2.621,-2.5625 4.28125,-2.5625 13.40399,0 44.2783,1.97465 49.53125,-8.53125 0.75679,-1.51357 -2.63214,-2.0306 -7.34375,-2.0625 z"
         style="fill:#bdc0d0;fill-opacity:1;stroke:#ffffff;stroke-width:1px;stroke-linecap:butt;stroke-linejoin:miter;stroke-opacity:0"
         inkscape:connector-curvature="0" />
    </g>
  </g>
</svg>
