<?xml version="1.0" encoding="UTF-8" standalone="no"?>
<!-- Created with Inkscape (http://www.inkscape.org/) -->

<svg
   xmlns:dc="http://purl.org/dc/elements/1.1/"
   xmlns:cc="http://creativecommons.org/ns#"
   xmlns:rdf="http://www.w3.org/1999/02/22-rdf-syntax-ns#"
   xmlns:svg="http://www.w3.org/2000/svg"
   xmlns="http://www.w3.org/2000/svg"
   xmlns:sodipodi="http://sodipodi.sourceforge.net/DTD/sodipodi-0.dtd"
   xmlns:inkscape="http://www.inkscape.org/namespaces/inkscape"
   width="744.09448819"
   height="1052.3622047"
   id="svg3250"
   version="1.1"
   inkscape:version="0.48.1 r9760"
   sodipodi:docname="polar_bear.svg"
   inkscape:export-filename="/home/substack/media/vector/polar_bear.png"
   inkscape:export-xdpi="150.13478"
   inkscape:export-ydpi="150.13478">
  <defs
     id="defs3252" />
  <sodipodi:namedview
     id="base"
     pagecolor="#ffffff"
     bordercolor="#666666"
     borderopacity="1.0"
     inkscape:pageopacity="0.0"
     inkscape:pageshadow="2"
     inkscape:zoom="0.5"
     inkscape:cx="370.93342"
     inkscape:cy="822.92869"
     inkscape:document-units="px"
     inkscape:current-layer="layer1"
     showgrid="false"
     inkscape:window-width="1364"
     inkscape:window-height="766"
     inkscape:window-x="0"
     inkscape:window-y="0"
     inkscape:window-maximized="0" />
  <metadata
     id="metadata3255">
    <rdf:RDF>
      <cc:Work
         rdf:about="">
        <dc:format>image/svg+xml</dc:format>
        <dc:type
           rdf:resource="http://purl.org/dc/dcmitype/StillImage" />
        <dc:title></dc:title>
      </cc:Work>
    </rdf:RDF>
  </metadata>
  <g
     inkscape:label="Layer 1"
     inkscape:groupmode="layer"
     id="layer1">
    <path
       style="fill:#ff0000;stroke:none;stroke-width:1px;stroke-linecap:butt;stroke-linejoin:miter;stroke-opacity:1;fill-opacity:0.09803922"
       d="m 337.28993,263.93812 c 2.14559,-0.11761 9.03522,6.9139 14.14214,12.02082 1.963,1.96299 8.08114,0.85858 10.6066,2.12132 2.53217,1.26608 3.8736,2.29035 6.36396,3.53553 3.99303,1.99651 8.24194,-4.71787 12.02082,-2.82843 5.46761,2.73381 2.19629,5.02472 4.94975,7.77818 1.41421,1.41421 3.53553,2.12132 4.94974,3.53553 1.61866,1.61866 4.24264,-3.03691 4.24264,-1.41421 0,6.14497 12.29046,8.92274 14.84925,6.36396 1.05867,-1.05868 4.45275,-1.48425 6.36396,-2.12132 5.37571,-1.7919 10.42999,-4.41947 16.26345,-6.36396 6.2827,-2.09423 9.72787,3.17855 15.55635,-0.70711 0.9264,-0.6176 8.50409,-4.22383 9.19239,-3.53553 3.12872,3.12871 12.58271,4.80453 12.72792,4.94975 2.46636,2.46635 2.50064,7.26072 6.36396,9.19238 2.44207,1.22104 6.41554,0.0516 8.48529,2.12132 2.39833,2.39834 0.51852,8.74455 4.24264,10.60661 1.46342,0.73171 3.37216,0.18124 4.94974,0.7071 8.27081,2.75694 10.57677,1.07558 18.38478,-2.82842 1.63281,-0.81641 3.23252,-2.96313 4.94975,-3.53554 2.14233,-0.71411 3.89389,-1.06547 5.65685,-2.82843 9.04252,-9.04251 17.89813,-12.83815 28.99138,-18.38477 3.95308,-1.97654 3.88542,-9.54228 7.07107,-12.72792 2.43097,-2.43098 5.2999,-6.00702 7.77817,-8.48529 1.6947,-1.6947 6.35675,-10.61381 3.53554,-13.43502 -4.5606,-4.5606 -8.38931,-9.1732 -15.55635,-10.60661 -3.72812,-0.74562 -7.71353,-0.21415 -11.31371,-1.41421 -7.71334,-2.57111 -14.01689,-8.67924 -21.92031,-11.31371 -6.42869,-2.14289 -17.08582,-0.98123 -22.62742,-2.82843 -7.45935,-2.48645 -13.62831,-12.63128 -23.33452,-7.77817 -7.47728,3.73864 -5.45358,10.20006 -8.48528,16.26346 -1.02069,2.04137 -11.24333,2.09786 -13.43503,2.82842 -7.66235,2.55412 -10.24353,7.65715 -14.84925,9.19239 -2.64562,0.88188 -6.72675,-1.23282 -9.19238,0 -9.50838,4.75419 -23.47297,-1.20282 -33.94113,1.41421 -5.49481,1.37371 -28.22784,5.60042 -31.1127,8.48529 -1.64829,1.64829 -3.63308,4.99852 -6.36396,6.36396 -2.52485,1.26242 -7.21166,-2.40458 -10.6066,-0.70711 -0.47377,0.23688 -3.32675,0.49832 -3.53553,0.70711 -1.8996,1.8996 -2.37244,3.26193 -6.36397,5.65685 z"
       id="path5854"
       inkscape:connector-curvature="0" />
    <path
       style="fill:#00ff00;stroke:none;stroke-width:1px;stroke-linecap:butt;stroke-linejoin:miter;stroke-opacity:1;fill-opacity:0.09803922"
       d="m 336.58283,259.69548 c -1.41461,-0.31747 -5.33021,-2.50178 -9.8995,-7.07107 -1.53884,-1.53884 -0.51552,-4.56657 -1.41421,-6.36396 -1.35791,-2.71581 -4.24326,-1.41483 -5.65685,-2.82843 -0.56439,-0.56438 0.37092,-2.79367 0,-3.53553 -1.20452,-2.40904 -3.94044,-4.34533 -4.94975,-6.36396 -1.53736,-3.07471 0.29863,-10.30797 2.82842,-7.77817 0.18465,0.18464 -3.12081,3.24315 -4.24264,2.12132 -1.75095,-1.75096 -3.51758,-5.62095 -4.94974,-8.48529 -0.73108,-1.46214 -2.24551,-8.23691 -1.41422,-9.89949 0.65138,-1.30275 3.04351,-3.10537 2.12132,-4.94975 -1.04109,-2.08218 -3.27487,-3.46067 -4.24264,-6.36396 -1.30948,-3.92846 3.82406,-5.78692 2.12132,-9.19239 -0.53652,-1.07304 -1.60768,-10.41313 -1.41421,-10.6066 0.94281,-0.94281 1.88562,-1.88562 2.82843,-2.82843 3.35345,-3.35344 -9.32078,-8.9356 -9.19239,-9.19238 1.23314,-2.46628 3.57004,-4.27716 4.94975,-5.65686 0.92515,-0.92516 -2.08965,-2.79675 -2.12132,-2.82843 -2.41241,-2.4124 2.04962,-8.34189 2.82842,-9.89949 2.18168,-4.36336 -4.11195,-7.90886 0,-12.02082 1.55447,-1.55447 6.037,-4.18946 4.94975,-6.36396 -1.09925,-2.19851 -4.01043,-0.591 -5.65685,-1.41421 -3.04127,-1.52063 -0.3568,-3.18522 -2.12132,-4.94975 -1.19482,-1.19482 -4.55042,-0.30777 -5.65686,-1.41421 -2.78787,-2.78787 -1.84842,-7.50528 -3.53553,-9.19239 -2.75684,-2.75683 -10.07931,-4.42245 -12.72792,-7.07107 -1.0964,-1.0964 -0.18146,-11.132251 0.7071,-12.020813 0.79027,-0.790263 2.74527,-2.038164 3.53554,-2.828427 0.66847,-0.668469 0.11556,-3.651097 0.7071,-4.242641 1.70999,-1.709988 5.63251,-3.511185 7.77818,-5.656854 0.99515,-0.995151 1.3596,-3.480922 2.12132,-4.242641 2.16759,-2.167588 5.99504,-1.38349 7.77817,-4.949747 1.81495,-3.62989 0.92776,-8.219479 2.82843,-12.020815 1.67234,-3.344679 6.14912,-5.227165 7.77817,-8.485282 2.05299,-4.105973 -0.57053,-10.67489 4.94975,-13.435029 4.36174,-2.180868 16.61118,-0.347722 18.38478,-2.12132 0.58925,-0.589256 0.82496,-1.532065 1.41421,-2.12132 0.91246,-0.912464 17.61212,-2.186867 19.09188,-0.707107 6.10904,6.109031 14.47208,16.923326 19.09189,26.162951 3.43038,6.860765 -4.12789,17.200072 -0.70711,24.04163 1.35531,2.710614 2.60359,5.68946 3.53553,8.485282 0.39984,1.199498 -0.56066,3.121314 0,4.24264 2.18871,4.377413 3.53554,4.404983 3.53554,9.899493 0,3.39173 2.66876,10.76627 2.12132,11.31371 -2.56293,2.56293 -7.29838,5.02552 -11.31371,6.36396 -1.96057,0.65353 -7.3408,-1.85158 -8.48528,-0.7071 -1.93475,1.93475 -3.73771,4.44481 -4.94975,5.65685 -4.28927,4.28927 7.3344,12.64503 5.65686,17.67767 -0.85242,2.55724 -3.11719,4.11306 -4.24264,6.36396 -1.35171,2.7034 4.18002,8.29745 4.94974,10.6066 1.7741,5.3223 -4.92974,17.01057 -2.82842,21.21321 1.25092,2.50185 3.15695,3.48547 4.24264,5.65685 1.39818,2.79636 -3.01355,6.70082 -1.41422,9.89949 1.19732,2.39464 2.63237,4.36157 3.53554,7.07107 1.31442,3.94328 -3.21371,8.42182 -1.41422,12.02082 1.34999,2.69997 3.87599,9.21859 2.12132,12.72792 -2.51558,5.03117 -5.99205,7.74147 -8.48528,12.72792 -0.78537,1.57074 -1.19841,6.96317 -2.82843,7.77818 -3.61577,1.80788 -8.39896,3.44921 -10.6066,5.65685 -1.37935,1.37935 -9.43524,1.08709 -12.02081,2.12132 z"
       id="path5850"
       inkscape:connector-curvature="0" />
    <path
       style="fill:#0000ff;stroke:none;stroke-width:1px;stroke-linecap:butt;stroke-linejoin:miter;stroke-opacity:1;fill-opacity:0.09803922"
       d="m 334.46151,261.10969 c 1.94005,0.0287 -8.6436,-2.98674 -12.02082,-6.36396 -0.8533,-0.8533 -2.90632,1.37527 -4.24264,0.70711 -1.50645,-0.75323 -4.25664,-2.46787 -6.36396,-1.41421 -0.81903,0.40951 -5.21296,7.51495 -7.77817,4.94974 -2.29127,-2.29126 -5.21508,-5.21507 -7.77818,-7.77817 -1.44133,-1.44134 -11.05603,-2.379 -12.72792,-0.70711 -2.31732,2.31733 -11.09858,11.5597 -14.84924,13.43503 -1.69016,0.84508 -5.46134,1.9258 -6.36396,2.82843 -1.42765,1.42764 -1.28202,5.52465 -2.82843,7.07107 -3.23018,3.23017 -7.09659,5.68237 -9.8995,8.48528 -1.10644,1.10644 -0.9265,3.75493 -2.12132,4.94975 -1.51494,1.51494 -4.94577,2.82048 -6.36396,5.65685 -0.33678,0.67356 -3.76404,10.37809 -2.82842,11.31371 5.30279,5.30279 16.68773,1.9799 21.2132,4.24264 3.154,1.577 5.76404,4.67832 11.31371,2.82843 2.68058,-0.89353 8.84564,-4.41602 12.02081,-2.82843 1.67104,0.83552 2.33434,2.58138 4.24264,3.53553 4.01628,2.00814 17.69211,0.69267 20.5061,-2.12132 4.38231,-4.38231 -0.41689,-11.89414 1.41421,-15.55635 1.63751,-3.27501 4.74899,-6.8703 6.36396,-8.48528 1.32189,-1.32188 3.62787,-0.79943 4.94975,-2.12132 1.74106,-1.74106 2.00462,-4.89139 4.94975,-6.36396 1.26724,-0.63362 3.97519,-1.14676 4.94975,-2.12132 2.01072,-2.01072 4.74823,-11.61416 4.24264,-14.14214 z"
       id="path5852"
       inkscape:connector-curvature="0" />
    <g
       id="g5593"
       transform="matrix(2.1358509,0,0,2.1358509,-936.8411,-147.58797)">
      <path
         style="fill:none;stroke:#ff0000;stroke-width:2;stroke-linecap:round;stroke-linejoin:round;stroke-miterlimit:4;stroke-opacity:1;stroke-dasharray:none"
         d="m 690.21365,192.11028 -20.31958,-7.69633 0.19412,15.31914 z"
         id="path5586"
         inkscape:connector-curvature="0" />
      <path
         id="path5591"
         d="m 596.09101,97.060919 0,94.752301"
         style="fill:none;stroke:#00ff00;stroke-width:2;stroke-linecap:round;stroke-linejoin:round;stroke-miterlimit:4;stroke-opacity:1;stroke-dasharray:none"
         inkscape:connector-curvature="0" />
      <path
         id="path5578"
         d="m 596.09101,191.81322 92.63099,0"
         style="fill:none;stroke:#ff0000;stroke-width:2;stroke-linecap:round;stroke-linejoin:round;stroke-miterlimit:4;stroke-opacity:1;stroke-dasharray:none"
         inkscape:connector-curvature="0" />
      <path
         inkscape:connector-curvature="0"
         id="path5580"
         d="M 595.73746,191.81322 558.9679,207.01601"
         style="fill:none;stroke:#0000ff;stroke-width:2;stroke-linecap:round;stroke-linejoin:round;stroke-miterlimit:4;stroke-opacity:1;stroke-dasharray:none" />
      <path
         inkscape:connector-curvature="0"
         id="path5582"
         d="m 596.29847,96.707362 -7.69633,20.319578 15.31914,-0.19412 z"
         style="fill:none;stroke:#00ff00;stroke-width:2;stroke-linecap:round;stroke-linejoin:round;stroke-miterlimit:4;stroke-opacity:1;stroke-dasharray:none" />
      <path
         inkscape:transform-center-y="-7.8230971"
         inkscape:transform-center-x="-10.626236"
         style="fill:none;stroke:#0000ff;stroke-width:2;stroke-linecap:round;stroke-linejoin:round;stroke-miterlimit:4;stroke-opacity:1;stroke-dasharray:none"
         d="m 558.62306,207.39821 16.84947,-0.58318 -0.33871,-14.26053 z"
         id="path5584"
         inkscape:connector-curvature="0"
         sodipodi:nodetypes="cccc" />
    </g>
    <g
       transform="matrix(2.1358509,0,0,2.1358509,-517.56968,23.750072)"
       id="g5554">
      <path
         inkscape:connector-curvature="0"
         id="path5556"
         d="m 385.62573,74.281978 c 0.15461,-3.15748 -0.23274,-8.33376 3.28299,-8.33376 0.47624,0 1.19492,-0.0678 1.51523,0.25254 1.28982,1.28982 1.38595,2.90118 2.52538,4.04061 0.6352,0.6352 1.1932,0.61862 1.51523,1.26269"
         style="fill:#bfadad;fill-opacity:1;stroke:#000000;stroke-width:1;stroke-linecap:butt;stroke-linejoin:miter;stroke-miterlimit:4;stroke-opacity:1;stroke-dasharray:none" />
      <path
         sodipodi:nodetypes="cssssssssccsssssc"
         inkscape:connector-curvature="0"
         id="path5558"
         d="m 466.94301,87.666498 c -0.20022,1.33301 3.14932,4.15947 5.55584,6.56599 0.6602,0.66021 2.88373,1.06306 3.78807,1.51523 0.94566,0.47283 1.03654,1.02335 2.02031,1.51523 0.42721,0.2136 0.52864,0.78118 0.75761,1.01015 0.60435,0.60435 1.63937,1.13429 2.02031,1.51523 1.44603,1.446042 1.79651,3.008012 3.03045,4.040612 3.09549,2.59041 -3.17912,4.14448 -2.52538,6.56599 0.96039,3.55734 7.1847,-0.51869 9.59645,-1.26269 2.69256,-0.83063 4.54568,-1.47414 5.55584,-1.76776 1.79133,-2.22211 -0.0575,-3.07998 -2.02031,-6.06092 -1.74681,-1.746822 -2.12415,-4.649542 -4.04061,-6.565992 -1.21115,-1.21116 -2.07175,-2.32429 -3.28299,-3.53554 -0.84239,-0.84239 -0.7643,-2.02698 -1.51523,-2.77792 -0.71119,-0.71119 -1.97728,-8.54327 -4.04061,-10.6066 -0.75555,-0.75555 -6.54416,-7.71333 -7.32361,-7.3236 -0.68324,0.34162 -0.67098,0.83688 -1.01015,1.51522"
         style="fill:#bfadad;fill-opacity:1;stroke:#000000;stroke-width:1;stroke-linecap:butt;stroke-linejoin:miter;stroke-miterlimit:4;stroke-opacity:1;stroke-dasharray:none" />
      <path
         inkscape:connector-curvature="0"
         id="path5560"
         d="m 406.43876,80.899278 c -2.27616,6.58462 -0.0655,14.94076 2.07186,21.059862 1.45373,4.16179 0.0745,7.71694 -4.38351,7.83195 -0.89783,0.0232 -5.40989,2.17552 -4.73052,2.84634 1.4047,1.38698 5.47634,0.76681 7.44276,0.71609 0.61111,-0.0158 7.99302,-0.1197 8.07398,-0.20831 1.32555,-1.45127 3.19176,-3.72778 4.24139,-4.87695 0.75066,-0.82184 2.21568,-12.420252 2.68042,-14.598752 0.34061,-1.59658 2.12444,-8.14104 1.73568,-8.89876"
         style="fill:#bfadad;fill-opacity:1;stroke:#000000;stroke-width:1;stroke-linecap:butt;stroke-linejoin:miter;stroke-miterlimit:4;stroke-opacity:1;stroke-dasharray:none" />
      <path
         sodipodi:nodetypes="ccccscsccssccccsccccscssccsscsssssscsscsccscssscsssssccsccccsscssc"
         inkscape:connector-curvature="0"
         id="path5562"
         d="m 428.34375,55.875 c -3.68748,-0.0336 -7.26936,0.67832 -9.40625,1.21875 -1.9363,-0.69354 -3.74458,-1.16475 -5,-1.03125 -0.54591,0.058 -0.97875,0.22875 -1.28125,0.53125 -0.30955,0.30954 -1.65876,-0.12249 -2.03125,0.25 -3.83294,3.83293 -8.10687,6.86362 -13.1875,10.71875 -0.49317,-1.26719 -1.03045,-2.5621 -2.71875,-3.40625 -1.618,-0.809 -3.86068,3.35507 -5.0625,5.9375 -0.68035,0.19117 -2.25328,-0.005 -2.5,0.625 -2.65183,4.25644 -6.13772,6.71293 -8.09375,10.625 -0.49062,0.98123 -0.38219,1.91344 -1,2.53125 -0.33672,0.33672 0.33671,1.66328 0,2 -0.19528,0.195278 -1.38105,1.369661 -2.5,2.6875 -0.006,0.01565 -0.0248,0.01545 -0.0312,0.03125 -0.34031,0.836718 -1.15907,1.620339 -1.32143,2.607143 0.06,0.432823 0.58315,1.123322 0.79018,1.330357 0.53431,0.534309 1.35275,1.009005 1.96875,1.625 0.0827,0.08275 0.57551,0.518213 1.32265,0.440038 1.33197,-0.405932 4.30911,-4.856445 6.8336,-4.846288 1.10739,2.333491 -2.04016,4.994856 -1.69704,5.337971 1.30479,1.957816 3.77089,-0.490709 4.2984,-1.267857 1.08836,-1.603413 3.29585,-3.704913 5.17989,-5.507614 1.14726,-0.213192 2.12742,-0.471173 2.5625,-0.90625 0.2164,-0.2164 3.19739,-1.16615 4.0625,-2.03125 0.0518,-0.0518 0.4601,-0.54523 0.6875,-0.8125 0.67495,-0.025 1.41708,0.0102 1.8125,-0.1875 1.28579,-0.6429 6.43659,-2.43841 7.59375,-1.28125 2.83622,2.83621 3.90447,4.3125 9.59375,4.3125 0.10854,0 0.43727,0.008 0.71875,0.03125 2.11826,1.65911 4.33734,3.48718 4.59375,4 0.52452,1.04905 1.30444,2.08568 2,2.78125 0.9387,0.9387 0.275,3.52499 1.28125,4.53125 1.07934,1.07934 1.20172,3.26422 2.25,4.3125 1.01562,1.01561 1.66711,3.93233 2.77617,5.0414 1.3196,1.3196 0.17047,4.45172 1.28125,5.5625 0.34502,0.34502 1.99584,-0.1073 2.28125,-0.25 0.47925,-0.23963 0.87558,0.61681 2.50254,0 2.02404,-0.76734 2.19539,-2.86461 3.28379,-5.0414 0.21269,-0.42538 1.3565,-4.99057 1.02871,-5.31837 -0.63135,-0.63134 -2.39841,-3.251135 -2.78886,-4.054092 -0.95616,-1.966309 -1.15986,-4.896088 -0.41387,-6.5625 0.99051,-0.10324 3.73213,-0.509248 4.70527,-0.752538 0.97231,-0.24353 3.38939,0.39186 4.03125,-0.25 0.33836,-0.33836 0.87586,-0.53243 1.4375,-0.71875 1.0104,2.88501 2.05559,5.76053 3,8.59375 0.31229,0.93688 1.33172,1.37016 1.59375,2.15625 0.7169,2.15068 3.39658,6.25967 3.21875,6.4375 -0.70938,0.70938 -2.01172,1.0215 -3.21875,1.625 -2.38795,1.19399 -3.28402,0.20325 -3.03125,1.71875 0.38855,2.32949 5.04833,0.90625 7.5625,0.90625 2.54772,0 7.46323,0.84925 8.875,-0.5625 3.56491,-3.56492 -1.16086,-13.11579 1.09375,-17.625 1.71313,-3.42626 4.45105,-4.9823 6.4375,-6.96875 1.08991,-1.08991 2.15086,-3.91251 2.65625,-5.25 0.39936,-5.72509 1.00694,-0.3159 3.71875,-3.4375 -1.05218,-3.94282 -3.88783,-5.9944 -5.5625,-9.34375 -0.83364,-1.66728 -2.92175,-3.45301 -4.28125,-4.8125 -0.21042,-0.21043 -0.57097,-0.37112 -0.9375,-0.53125 -0.5543,-0.45335 -1.12885,-0.88039 -1.71875,-1.3125 -0.0119,-0.009 -0.0193,-0.02255 -0.0312,-0.03125 -4.51926,-4.17152 -9.31817,-5.9375 -17.25,-5.9375 -1.00266,0 -5.51218,0.34984 -6.3125,0.75 -0.67295,0.33648 -2.14433,0.97465 -3.59375,1.65625 -1.1252,-0.0899 -2.10428,-0.19277 -2.46875,-0.375 -1.28533,-0.64266 -3.0417,-0.39585 -4.3125,-1.03125 C 433.51751,56.29 430.91994,55.8985 428.34375,55.875 z"
         style="fill:#d5c9c9;fill-opacity:1;stroke:#000000;stroke-width:1;stroke-linecap:butt;stroke-linejoin:miter;stroke-miterlimit:4;stroke-opacity:1;stroke-dasharray:none" />
      <path
         sodipodi:type="inkscape:offset"
         inkscape:radius="-0.65591943"
         inkscape:original="M 429.53125 55.90625 C 425.97626 55.686782 422.38811 56.270982 418.9375 57.09375 C 415.56969 55.602991 411.2286 55.707495 408.78125 58.59375 C 405.20452 61.838719 401.27212 64.637492 397.4375 67.5625 C 396.71999 63.449629 392.06735 63.443071 391.03125 67.40625 C 390.11256 70.850189 386.26859 70.063857 385.0625 73.625 C 382.24815 77.094076 377.90985 80.706906 378.15625 85.46875 C 376.79724 87.025966 372.09 92.142649 375.84375 92.34375 C 378.01012 89.36709 382.86658 88.444518 383.21875 84.28125 C 383.44507 80.204116 386.7952 77.613865 388.59375 74.21875 C 390.21639 71.187995 393.33305 69.461781 396.84375 69.84375 C 400.57597 69.385633 404.43981 70.857265 407.9375 68.9375 C 411.59213 67.820737 416.34727 67.727313 417.96875 63.5625 C 421.36903 60.236996 426.79705 59.264551 431.15625 61 C 435.39534 61.146607 438.53354 64.36237 442.5625 65.15625 C 446.34008 65.008154 449.69377 63.216156 453.3125 62.34375 C 457.67997 61.858309 461.99145 63.677438 466.25 64.5 C 469.8841 66.958894 472.82083 71.153778 477.46875 71.6875 L 478.21875 71.90625 L 478.53125 72.03125 C 476.28385 68.407566 473.795 64.808635 470.03125 62.625 C 465.73552 58.39396 459.73145 56.327188 453.75 56.375 C 450.03799 56.29579 446.19896 56.554158 442.9375 58.5 C 439.64294 58.857296 436.24737 57.40094 433.0625 56.40625 C 431.8957 56.138358 430.71625 55.979406 429.53125 55.90625 z "
         style="fill:#ded4d4;fill-opacity:1;stroke:none"
         id="path5804"
         d="m 429.5,56.5625 c -3.45645,-0.213384 -6.98729,0.341029 -10.40625,1.15625 A 0.65598502,0.65598502 0 0 1 418.6875,57.6875 c -3.16667,-1.401723 -7.20129,-1.256643 -9.40625,1.34375 a 0.65598502,0.65598502 0 0 1 -0.0625,0.0625 c -3.61492,3.279614 -7.55189,6.083772 -11.375,9 a 0.65598502,0.65598502 0 0 1 -1.0625,-0.40625 c -0.31751,-1.820036 -1.37456,-2.546851 -2.4375,-2.5625 -1.06294,-0.01565 -2.23024,0.688439 -2.6875,2.4375 -0.52127,1.954108 -1.95966,2.789005 -3.1875,3.46875 -1.22784,0.679745 -2.25083,1.246352 -2.78125,2.8125 a 0.65598502,0.65598502 0 0 1 -0.125,0.1875 c -1.44088,1.776079 -3.20048,3.534036 -4.5625,5.40625 -1.36202,1.872214 -2.29999,3.826023 -2.1875,6 a 0.65598502,0.65598502 0 0 1 -0.15625,0.46875 c -0.69218,0.793129 -2.18179,2.446017 -3,3.84375 -0.40911,0.698867 -0.59177,1.323994 -0.5625,1.5625 0.0146,0.119253 0.009,0.158428 0.0937,0.21875 0.0574,0.04089 0.27794,0.05711 0.46875,0.09375 1.19139,-1.423598 2.79429,-2.40577 4.15625,-3.40625 1.47297,-1.082026 2.58462,-2.155169 2.75,-3.96875 6e-4,-0.01073 -6.4e-4,-0.02054 0,-0.03125 0.13026,-2.194956 1.10638,-3.980645 2.21875,-5.59375 1.1178,-1.620978 2.36604,-3.109086 3.21875,-4.71875 1.71376,-3.200941 5.05113,-5.05784 8.75,-4.71875 0.0526,-0.0065 0.10374,0.0058 0.15625,0 1.92274,-0.210532 3.81501,0.02652 5.59375,0.09375 1.82732,0.06907 3.52744,-0.0294 5.125,-0.90625 a 0.65598502,0.65598502 0 0 1 0.125,-0.0625 c 1.89846,-0.580122 3.99442,-0.881987 5.75,-1.53125 1.75558,-0.649263 3.11105,-1.586801 3.84375,-3.46875 A 0.65598502,0.65598502 0 0 1 417.5,63.09375 c 3.60405,-3.52479 9.29498,-4.554553 13.90625,-2.71875 2.1802,0.129003 4.07192,0.976926 5.84375,1.875 1.82474,0.924888 3.53598,1.875178 5.40625,2.25 3.53821,-0.175455 6.81508,-1.892888 10.5,-2.78125 A 0.65598502,0.65598502 0 0 1 453.25,61.6875 c 4.59339,-0.510551 8.96232,1.352205 13.125,2.15625 a 0.65598502,0.65598502 0 0 1 0.25,0.125 c 3.5748,2.418774 6.34081,6.02223 10.25,6.84375 -1.96723,-3.004924 -4.13071,-5.851526 -7.1875,-7.625 a 0.65598502,0.65598502 0 0 1 -0.125,-0.09375 c -4.15412,-4.091562 -9.98564,-6.109076 -15.8125,-6.0625 -3.67195,-0.07836 -7.37984,0.188355 -10.46875,2.03125 A 0.65598502,0.65598502 0 0 1 443,59.15625 c -3.52231,0.381996 -6.9633,-1.144796 -10.09375,-2.125 -0.0102,-0.0023 -0.0211,0.0023 -0.0312,0 -1.11811,-0.254786 -2.23199,-0.398186 -3.375,-0.46875 z" />
      <path
         sodipodi:nodetypes="cssc"
         inkscape:connector-curvature="0"
         id="path5564"
         d="m 478.74732,78.989828 c 1.47878,2.2537 2.84989,2.33027 3.60052,1.6056 0.80644,-0.77855 -0.0714,-2.74269 -0.50508,-3.53552 -1.06733,-1.95122 -0.37882,-0.73416 -2.02031,-3.283"
         style="fill:#d5c9c9;fill-opacity:1;stroke:#000000;stroke-width:1px;stroke-linecap:round;stroke-linejoin:round;stroke-opacity:1" />
      <path
         sodipodi:nodetypes="ccccc"
         inkscape:connector-curvature="0"
         id="path5566"
         d="m 374.86608,89.415752 c -0.32613,0.495318 -0.62219,0.608877 -0.89805,0.898493 -0.21478,0.304147 -0.28487,0.74022 -0.15769,1.158711 0.46957,0.583822 1.37353,0.987152 1.65936,-0.510107 -0.0222,-1.233155 -0.13371,-1.785974 -0.60362,-1.547097 z"
         style="fill:#241c1c;stroke:#000000;stroke-width:0.5;stroke-linecap:butt;stroke-linejoin:miter;stroke-miterlimit:4;stroke-opacity:1;stroke-dasharray:none" />
      <path
         inkscape:connector-curvature="0"
         id="path5568"
         d="m 380.71429,82.897895 c -0.2381,0.178571 -0.53572,0.773809 -0.71429,0.535714 -0.17857,-0.238095 0.71429,-0.833333 0.71429,-0.535714 0,0.532397 -1.09075,1.05211 -0.71429,1.428571 1.1154,1.115398 3.2323,-1.062423 1.78572,-1.785714 -0.33672,-0.168359 -0.70228,0.283313 -1.07143,0.357143 z"
         style="fill:#241c1c;stroke:#000000;stroke-width:0.5;stroke-linecap:butt;stroke-linejoin:miter;stroke-miterlimit:4;stroke-opacity:1;stroke-dasharray:none" />
      <path
         sodipodi:nodetypes="ccsscc"
         inkscape:connector-curvature="0"
         id="path5570"
         d="m 384.15945,89.378769 c 0.57392,-0.0683 1.11956,0.277762 1.55484,0.30484 1.0585,1.058504 -2.02768,4.866072 -2.36608,5.446429 -0.0976,0.167323 1.55184,-1.807039 0.9375,-3.035715 -0.4623,-0.924604 -2.76033,-0.19376 -2.48467,-0.558693 0.96131,-0.821504 1.57662,-1.56193 2.35841,-2.156861 z"
         style="fill:#6c5353;stroke:#000000;stroke-width:1px;stroke-linecap:butt;stroke-linejoin:miter;stroke-opacity:1" />
      <path
         sodipodi:nodetypes="ccc"
         inkscape:connector-curvature="0"
         id="path5572"
         d="m 392.76786,68.61218 c -0.0194,-0.864317 0.81068,-1.483263 0.98214,-1.964285 1.34216,-1.342155 2.88459,3.928571 -0.71428,3.928571"
         style="fill:none;stroke:#000000;stroke-width:0.5;stroke-linecap:round;stroke-linejoin:round;stroke-miterlimit:4;stroke-opacity:1;stroke-dasharray:none" />
      <path
         inkscape:connector-curvature="0"
         id="path5574"
         d="m 449.26535,75.039594 c -0.0668,1.779943 -0.0726,3.428242 -0.75762,4.798225 -0.71857,1.43714 0.75762,5.714188 0.75762,7.576144 0,0.321197 -0.20445,1.815862 0,2.020305 0.43535,0.435359 0.51282,1.522974 1.01015,2.020305"
         style="fill:none;stroke:#000000;stroke-width:1px;stroke-linecap:round;stroke-linejoin:miter;stroke-opacity:1" />
      <path
         sodipodi:nodetypes="csc"
         inkscape:connector-curvature="0"
         id="path5576"
         d="m 439.92143,93.22234 c 0.0811,-0.456146 -0.6097,-5.660466 -2.27284,-7.323606 -0.63457,-0.634571 -2.71958,-0.0971 -3.53553,-0.505076"
         style="fill:none;stroke:#000000;stroke-width:1px;stroke-linecap:round;stroke-linejoin:miter;stroke-opacity:1" />
      <path
         sodipodi:type="inkscape:offset"
         inkscape:radius="-0.6579805"
         inkscape:original="M 470.28125 77.15625 C 468.5948 77.101311 466.91294 77.273269 465.28125 77.5625 C 462.03391 78.723887 460.82674 82.162246 459.5625 85.0625 C 458.18163 89.826774 457.63777 95.17046 459.375 99.90625 C 461.48518 103.57282 465.29653 106.52986 465.4375 111.09375 L 465.375 111.71875 L 465.28125 112.34375 C 469.69102 112.85906 469.99342 107.49059 469.375 104.40625 C 468.92455 100.19808 467.40383 95.210473 470.71875 91.71875 C 472.90273 88.938635 476.55137 87.335936 477.59375 83.71875 C 479.35863 81.019156 478.76444 78.083509 475.21875 78.1875 C 473.64099 77.502773 471.9677 77.211189 470.28125 77.15625 z "
         style="fill:#c6b6b6;fill-opacity:1;stroke:none"
         id="path5835"
         d="m 470.25,77.8125 c -1.60671,-0.05234 -3.20149,0.129379 -4.78125,0.40625 -0.0177,0.0065 -0.0449,-0.0067 -0.0625,0 -2.81698,1.066826 -3.96497,4.147689 -5.21875,7.03125 -0.009,0.0216 -0.0218,0.04093 -0.0312,0.0625 -1.33746,4.645985 -1.79047,9.803034 -0.15625,14.3125 1.00628,1.72458 2.43946,3.3684 3.6875,5.15625 1.26521,1.81245 2.33025,3.82079 2.40625,6.28125 a 0.6580463,0.6580463 0 0 1 0,0.0937 l -0.0625,0.5 c 0.58372,-0.0354 1.0752,-0.16583 1.4375,-0.4375 0.49981,-0.37479 0.87923,-0.94361 1.125,-1.6875 0.49155,-1.48778 0.41568,-3.55025 0.125,-5 a 0.6580463,0.6580463 0 0 1 0,-0.0625 c -0.21981,-2.05352 -0.72695,-4.35361 -0.75,-6.65625 -0.0228,-2.281293 0.49097,-4.582527 2.25,-6.46875 l -0.0312,-0.03125 c 1.16401,-1.48173 2.68486,-2.609716 3.96875,-3.78125 1.28389,-1.171534 2.34071,-2.362844 2.8125,-4 a 0.6580463,0.6580463 0 0 1 0.0625,-0.1875 c 0.80416,-1.230058 1.02506,-2.434387 0.75,-3.21875 -0.27506,-0.784363 -0.94084,-1.327895 -2.53125,-1.28125 a 0.6580463,0.6580463 0 0 1 -0.28125,-0.0625 C 473.48426,78.137003 471.87488,77.865433 470.25,77.8125 z" />
      <path
         sodipodi:type="inkscape:offset"
         inkscape:radius="-0.59367144"
         inkscape:original="M 435.25 76.59375 C 433.75798 76.414612 432.30893 76.809601 431.3125 78.46875 C 428.97646 80.948258 427.3996 84.321537 430.375 87.125 C 432.00544 89.801348 433.28914 92.597291 435.09375 95.125 C 436.90573 98.052386 438.64326 101.26982 439.34375 104.625 C 438.58116 107.51881 439.03435 110.1325 439.53125 113 C 441.99024 110.57177 442.77701 106.73859 443.28125 103.375 C 441.57384 100.80529 439.25954 98.084144 439.5625 94.71875 C 439.5012 90.554218 445.54618 92.187469 448.4375 91.625 C 450.62039 90.669774 448.61293 86.802434 447.875 85.125 C 444.4378 83.327178 443.81464 78.1124 439.5625 78.28125 C 438.28479 77.541486 436.74202 76.772888 435.25 76.59375 z "
         style="fill:#c6b6b6;fill-opacity:1;stroke:none"
         id="path5833"
         d="m 435.1875,77.1875 c -1.3443,-0.161402 -2.48795,0.116729 -3.375,1.59375 A 0.59373081,0.59373081 0 0 1 431.75,78.875 c -1.12159,1.190477 -2.0329,2.568542 -2.3125,3.90625 -0.2796,1.337708 -0.0193,2.621915 1.34375,3.90625 a 0.59373081,0.59373081 0 0 1 0.0937,0.125 c 1.65398,2.714996 2.92582,5.501175 4.6875,7.96875 a 0.59373081,0.59373081 0 0 1 0.0312,0.03125 c 1.82505,2.948496 3.61864,6.21439 4.34375,9.6875 a 0.59373081,0.59373081 0 0 1 -0.0312,0.28125 c -0.60178,2.28359 -0.33512,4.42825 0.0312,6.71875 1.58336,-2.19781 2.25658,-5.18895 2.6875,-8 -1.66081,-2.45796 -3.94311,-5.2502 -3.65625,-8.78125 -1.7e-4,-0.01139 8e-5,-0.01991 0,-0.03125 9.3e-4,-0.01081 -9.7e-4,-0.02042 0,-0.03125 0.001,-1.151362 0.45686,-2.028018 1.1875,-2.5625 0.74497,-0.544962 1.70412,-0.778739 2.6875,-0.875 1.9295,-0.188877 4.09861,0.03559 5.375,-0.1875 0.32257,-0.160927 0.48956,-0.362942 0.5625,-0.71875 0.0784,-0.382581 0.055,-0.931148 -0.0937,-1.53125 -0.28385,-1.145045 -0.89403,-2.381603 -1.28125,-3.25 -1.78703,-1.023404 -2.79451,-2.802816 -3.84375,-4.21875 -0.54415,-0.734317 -1.09716,-1.380737 -1.71875,-1.8125 -0.62159,-0.431763 -1.3086,-0.662383 -2.25,-0.625 A 0.59373081,0.59373081 0 0 1 439.25,78.78125 c -1.25269,-0.725277 -2.72194,-1.432797 -4.0625,-1.59375 z" />
      <path
         sodipodi:type="inkscape:offset"
         inkscape:radius="-0.80847335"
         inkscape:original="M 404.0625 77.71875 C 402.36737 77.784622 400.65348 78.017927 399 77.8125 C 396.49164 79.970853 392.92767 81.567579 391.1875 84.59375 C 389.58662 87.234543 386.30209 87.725309 384.5 89.875 C 387.75622 90.65239 380.28672 97.014176 385.875 95.46875 C 388.46067 93.364127 390.2686 90.424553 392.90625 88.3125 C 396.76261 87.667024 399.43234 84.57227 403.09375 83.90625 C 406.74251 81.826325 410.41519 82.780363 412.875 86.03125 C 414.68768 87.315366 419.07864 88.201204 416.3125 85.09375 C 415.12153 81.844436 411.6794 80.316108 408.96875 78.59375 C 407.42134 77.751416 405.75763 77.652878 404.0625 77.71875 z "
         style="fill:#c6b6b6;fill-opacity:1;stroke:none"
         id="path5831"
         d="m 404.09375,78.53125 c -1.52357,0.05921 -3.15234,0.240792 -4.8125,0.09375 -2.61001,2.169694 -5.88931,3.737032 -7.40625,6.375 -0.91599,1.511013 -2.29471,2.391176 -3.5625,3.125 -0.98838,0.572097 -1.83803,1.121054 -2.5625,1.75 0.0635,0.08214 0.20502,0.09421 0.25,0.1875 0.23482,0.48698 0.19356,0.967471 0.0937,1.40625 -0.19962,0.877558 -0.69092,1.708578 -1.0625,2.4375 -0.18579,0.364461 -0.35488,0.69863 -0.4375,0.9375 -0.01,0.0281 0.007,0.0066 0,0.03125 0.17584,-0.0036 0.47397,-0.04983 0.90625,-0.15625 2.37647,-1.985843 4.17418,-4.84359 6.90625,-7.03125 a 0.8085542,0.8085542 0 0 1 0.375,-0.1875 c 1.75065,-0.293023 3.27147,-1.158241 4.875,-2.09375 1.53063,-0.892981 3.13878,-1.783743 5.03125,-2.1875 0.0822,-0.04684 0.16756,-0.04967 0.25,-0.09375 1.89607,-1.013943 3.87658,-1.351943 5.6875,-0.9375 1.81584,0.415568 3.41903,1.54938 4.71875,3.1875 0.007,0.0048 0.0243,-0.0048 0.0312,0 0.71884,0.4986 2.18493,0.982199 2.875,1 -0.0479,-0.07908 -0.0514,-0.210983 -0.53125,-0.75 a 0.8085542,0.8085542 0 0 1 -0.15625,-0.25 c -1.03854,-2.833445 -4.19366,-4.306795 -6.96875,-6.0625 -0.0207,-0.01127 -0.0417,-0.02028 -0.0625,-0.03125 -1.34018,-0.70838 -2.81921,-0.812886 -4.4375,-0.75 z"
         transform="translate(0.49659842,-0.16553281)" />
    </g>
  </g>
</svg>
