<?xml version="1.0" encoding="UTF-8" standalone="no"?>
<!-- Created with Inkscape (http://www.inkscape.org/) -->

<svg
   xmlns:dc="http://purl.org/dc/elements/1.1/"
   xmlns:cc="http://creativecommons.org/ns#"
   xmlns:rdf="http://www.w3.org/1999/02/22-rdf-syntax-ns#"
   xmlns:svg="http://www.w3.org/2000/svg"
   xmlns="http://www.w3.org/2000/svg"
   xmlns:sodipodi="http://sodipodi.sourceforge.net/DTD/sodipodi-0.dtd"
   xmlns:inkscape="http://www.inkscape.org/namespaces/inkscape"
   width="744.09448819"
   height="1052.3622047"
   id="svg2"
   version="1.1"
   inkscape:version="0.48.1 r9760"
   sodipodi:docname="pony.svg">
  <defs
     id="defs4" />
  <sodipodi:namedview
     id="base"
     pagecolor="#ffffff"
     bordercolor="#666666"
     borderopacity="1.0"
     inkscape:pageopacity="0.0"
     inkscape:pageshadow="2"
     inkscape:zoom="2"
     inkscape:cx="345.15103"
     inkscape:cy="895.75831"
     inkscape:document-units="px"
     inkscape:current-layer="layer1"
     showgrid="false"
     inkscape:window-width="1364"
     inkscape:window-height="766"
     inkscape:window-x="0"
     inkscape:window-y="0"
     inkscape:window-maximized="0" />
  <metadata
     id="metadata7">
    <rdf:RDF>
      <cc:Work
         rdf:about="">
        <dc:format>image/svg+xml</dc:format>
        <dc:type
           rdf:resource="http://purl.org/dc/dcmitype/StillImage" />
        <dc:title></dc:title>
      </cc:Work>
    </rdf:RDF>
  </metadata>
  <g
     inkscape:label="Layer 1"
     inkscape:groupmode="layer"
     id="layer1">
    <path
       id="path4682"
       d="m 341.67763,241.60729 c -0.0437,-0.0498 -0.10058,-0.0891 -0.14226,-0.14072 -0.61068,-0.75485 -14.32414,4.21703 -16.27908,1.80048 -1.44483,-1.78598 -3.98682,-2.25185 -6.59376,-4.21572 -5.74581,11.04297 5.45522,16.665 15.22584,17.69672 0.92932,0.0982 2.70035,0.51821 3.8503,0.43795 0.12539,-0.0302 0.25797,-0.0205 0.38276,-0.0538 0.87238,-0.23281 1.7347,-0.54791 2.55201,-0.95605 0.81731,-0.40814 1.58487,-0.92224 2.3003,-1.54825 0.71543,-0.62602 1.3674,-1.36039 1.93414,-2.24682 0.2436,-0.38101 0.26777,-0.81957 0.13454,-1.27417 -0.13324,-0.4546 -0.42609,-0.92399 -0.79121,-1.43477 -0.73024,-1.02154 -1.78712,-2.14676 -2.57515,-3.2886 -0.39402,-0.57092 -0.72603,-1.15597 -0.91706,-1.73087 -0.19103,-0.57489 -0.22833,-1.14296 -0.0714,-1.70442 0.12977,-0.46429 0.5318,-0.89672 0.99004,-1.34095 z"
       style="fill:#6c5353;fill-opacity:1;stroke:#000000;stroke-width:1px;stroke-linecap:butt;stroke-linejoin:miter;stroke-opacity:1"
       inkscape:connector-curvature="0" />
    <path
       inkscape:connector-curvature="0"
       style="fill:#6c5353;fill-opacity:1;stroke:#000000;stroke-width:1px;stroke-linecap:butt;stroke-linejoin:miter;stroke-opacity:1"
       d="m 271.30594,238.04497 c -0.053,-0.0398 -0.11672,-0.0666 -0.1681,-0.10855 -0.7525,-0.61357 -13.15481,7.06506 -15.5638,5.10081 -1.7804,-1.45171 -4.3639,-1.38635 -7.31818,-2.77383 -3.35893,11.98662 8.75701,15.19198 18.53153,14.19796 0.9297,-0.0945 2.74923,-0.0466 3.85828,-0.361 0.11652,-0.0553 0.24827,-0.073 0.36359,-0.13116 0.80609,-0.40677 1.58546,-0.89203 2.30169,-1.45911 0.71623,-0.56708 1.36204,-1.22767 1.93388,-1.9871 0.57184,-0.75943 1.05934,-1.6119 1.43224,-2.59572 0.16028,-0.42287 0.094,-0.85707 -0.12963,-1.27468 -0.22364,-0.41761 -0.60653,-0.81697 -1.06864,-1.24201 -0.92422,-0.85006 -2.18941,-1.73461 -3.19486,-2.69057 -0.50273,-0.47798 -0.94767,-0.9825 -1.25254,-1.506 -0.30487,-0.5235 -0.45788,-1.07184 -0.41945,-1.65355 0.0318,-0.48103 0.3366,-0.98672 0.69399,-1.51549 z"
       id="path4680" />
    <path
       style="fill:#d35f5f;stroke:#000000;stroke-width:1px;stroke-linecap:butt;stroke-linejoin:miter;stroke-opacity:1"
       d="m 433.5,115.86218 c 0.5,-0.66666 0.83333,-2.5 1.5,-2 0.66667,0.5 -2.33333,2 -1.5,2 1.69015,0 2.44549,-1.94549 3,-2.5 1.15577,-1.15577 12.39455,-2.60545 14,-1 1.36012,1.36012 0.5318,3.0636 1.5,5 0.3326,0.66521 1.66746,0.66746 2,1 1.77561,1.77561 8.33981,-2.66019 10.5,-0.5 0.33333,0.33334 0.16667,1.16667 0.5,1.5 0.24242,0.24242 0.92936,0.64129 0.5,1.5 -0.39129,0.78258 -1.09984,1.59984 -1.5,2 -0.12974,0.12974 -12.97728,1.52272 -13.5,1 -1.54151,-1.54151 -2.81499,-2.81499 -4,-4 -1.43421,-1.4342 -4.68018,1.5 -5.5,1.5 -1.6764,0 -6.6627,1.3373 -6,2"
       id="path4385"
       inkscape:connector-curvature="0" />
    <path
       style="fill:#ccb3b3;fill-opacity:1;stroke:#000000;stroke-width:1px;stroke-linecap:round;stroke-linejoin:miter;stroke-opacity:1"
       d="m 389.5,55.612182 c -1.44305,-2.4706 -1.30839,-5.233574 -2,-8 -0.57843,-2.31371 -0.25,-5.068772 -0.25,-7.5 0,-0.528206 0.28998,-1.079964 0.5,-1.5 0.43426,-0.868528 0.30582,-2.11164 0.75,-3 1.52256,-3.045116 4.82582,-2.949456 7.75,-1 3.52615,2.350764 5.52965,13.161061 4.25,17 -0.5897,1.769109 -0.44742,5.22371 -1.5,5.75"
       id="path4303"
       inkscape:connector-curvature="0" />
    <path
       style="fill:#c3a9a9;fill-opacity:1;stroke:none"
       d="m 393.84071,34.158746 c 1.20518,-0.168352 2.05523,1.348123 3.53553,2.828428 0.24796,0.247959 0.41441,1.121507 0.70711,1.414213 0.493,0.493001 0.30766,1.721872 0.70711,2.12132 0.1729,0.172903 0.17615,3.887226 0.35355,4.419418 0.8747,2.624105 0.58253,5.729235 -0.53033,7.954951 -0.65251,1.305014 -0.48649,2.607808 -1.41421,3.535534 -0.30102,0.301016 -2.12132,-4.037947 -2.12132,-4.949747 0,-0.709737 -1.22024,-4.031473 -1.59099,-4.772971 -0.14142,-0.282843 0.14142,-0.777818 0,-1.06066 -0.36106,-0.722123 -0.005,-1.778061 -0.35356,-2.474874 -1.12295,-2.245902 0.26709,-6.815509 0.70711,-9.015612 z"
       id="path4813"
       inkscape:connector-curvature="0" />
    <path
       style="fill:#ffffff;stroke:#000000;stroke-width:1px;stroke-linecap:butt;stroke-linejoin:miter;stroke-opacity:1"
       d="m 440.5,121.86218 c -0.95112,-0.33621 4.08129,-4.45935 6.5,-3.25 1.46249,0.73125 2.5997,3.1503 1.25,4.5 -0.66721,0.66722 -0.72711,1.97711 -1.25,2.5"
       id="path4258"
       inkscape:connector-curvature="0" />
    <path
       style="fill:#ffffff;stroke:#000000;stroke-width:1px;stroke-linecap:butt;stroke-linejoin:miter;stroke-opacity:1"
       d="m 452,126.36218 c -1.21369,-0.49075 4.55435,-4.94565 6.25,-3.25 1.6822,1.6822 1.51277,4.23723 0.25,5.5"
       id="path4260"
       inkscape:connector-curvature="0" />
    <path
       style="fill:#ffffff;stroke:#000000;stroke-width:1px;stroke-linecap:butt;stroke-linejoin:miter;stroke-opacity:1"
       d="m 446.43661,103.8533 c 0.0205,0.50741 -0.28336,6.44069 3.95821,5.56396 0.69182,-0.143 1.57067,-0.45837 1.85738,-0.89449 0.91349,-1.38953 0.94141,-3.54145 1.29253,-4.86229"
       id="path4157"
       inkscape:connector-curvature="0" />
    <path
       style="fill:#ffffff;stroke:#000000;stroke-width:1px;stroke-linecap:butt;stroke-linejoin:miter;stroke-opacity:1"
       d="m 467.45265,105.12109 c -1.19469,8.47535 8.89122,7.22503 7.25278,-0.47356"
       id="path4161"
       inkscape:connector-curvature="0"
       sodipodi:nodetypes="cc" />
    <path
       style="fill:#ffffff;stroke:#000000;stroke-width:1px;stroke-linecap:butt;stroke-linejoin:miter;stroke-opacity:1"
       d="m 457,104.36218 c -0.0833,0.33333 0.0833,1.08333 -0.25,1 -0.33333,-0.0833 0.49296,-1.24295 0.25,-1 -2.26439,2.2644 0.41882,6.5 3.25,6.5 0.15256,0 0.90259,0.0974 1,0 1.25922,-1.25922 1.79706,-1.34413 2.75,-3.25 0.25393,-0.50786 0.5,-3.37006 0.5,-2.5"
       id="path4174"
       inkscape:connector-curvature="0" />
    <path
       style="fill:#c3a9a9;fill-opacity:1;stroke:#000000;stroke-width:1px;stroke-linecap:butt;stroke-linejoin:miter;stroke-opacity:1"
       d="m 246.42856,196.64791 c -0.54379,3.24316 -1.53062,23.97956 2.14286,35 1.41322,4.23964 0.15663,8.88468 2.14286,12.85714 1.62561,3.25122 5.31918,4.44531 7.85714,5.71429 2.32399,1.16199 6.96158,1.16206 9.28571,0 9.81869,-4.90934 8.47696,-10.52535 12.85715,-19.28572 0.71737,-1.43474 -0.0419,-3.48762 0.71428,-5 0.66372,-1.32743 -0.47339,-3.57983 0,-5 1.08416,-3.25247 1.50363,-9.1356 0,-12.14286 -1.34785,-2.6957 1.5761,-7.70962 -0.71428,-10 -1.03003,-1.03003 -34.28572,-0.96108 -34.28572,-2.14285 0,-1.21405 2.38096,-0.47619 3.57143,-0.71429"
       id="path3160"
       inkscape:connector-curvature="0" />
    <path
       id="path4678"
       d="m 253.30594,245.04497 c -0.053,-0.0398 -0.11672,-0.0666 -0.1681,-0.10855 -0.7525,-0.61357 -13.15481,7.06506 -15.5638,5.10081 -1.7804,-1.45171 -4.3639,-1.38635 -7.31818,-2.77383 -3.35893,11.98662 8.75701,15.19198 18.53153,14.19796 0.9297,-0.0945 2.74923,-0.0466 3.85828,-0.361 0.11652,-0.0553 0.24827,-0.073 0.36359,-0.13116 0.80609,-0.40677 1.58546,-0.89203 2.30169,-1.45911 0.71623,-0.56708 1.36204,-1.22767 1.93388,-1.9871 0.57184,-0.75943 1.05934,-1.6119 1.43224,-2.59572 0.16028,-0.42287 0.094,-0.85707 -0.12963,-1.27468 -0.22364,-0.41761 -0.60653,-0.81697 -1.06864,-1.24201 -0.92422,-0.85006 -2.18941,-1.73461 -3.19486,-2.69057 -0.50273,-0.47798 -0.94767,-0.9825 -1.25254,-1.506 -0.30487,-0.5235 -0.45788,-1.07184 -0.41945,-1.65355 0.0318,-0.48103 0.3366,-0.98672 0.69399,-1.51549 z"
       style="fill:#6c5353;fill-opacity:1;stroke:#000000;stroke-width:1px;stroke-linecap:butt;stroke-linejoin:miter;stroke-opacity:1"
       inkscape:connector-curvature="0" />
    <path
       style="fill:#c3a9a9;fill-opacity:1;stroke:#000000;stroke-width:1px;stroke-linecap:butt;stroke-linejoin:miter;stroke-opacity:1"
       d="m 323.96333,201.93766 c -1.08747,4.51971 -0.96111,9.22387 -1.48053,14.20879 -0.75355,7.23183 -1.01289,15.27585 0.54693,22.31973 3.71675,16.78422 16.98045,18.52707 25.27971,5.50672 3.11338,-4.88446 4.24649,-11.55695 6.82374,-17.2428 1.30185,-2.87209 0.71707,-7.06801 2.45725,-9.79809 0.50132,-0.78649 2.96864,-17.18464 2.56112,-17.68696 -0.78896,-0.9725 -3.69468,0.12411 -4.33667,0.26627 -2.86694,0.63487 -6.36876,-1.59721 -9.23571,-0.96234 -2.05816,0.45576 -5.34098,-0.72108 -7.17842,-0.0298 -5.00803,1.88403 -9.88382,1.84148 -15.43742,3.41851 z"
       id="path3175"
       inkscape:connector-curvature="0" />
    <path
       style="fill:#6c5353;fill-opacity:1;stroke:#000000;stroke-width:1px;stroke-linecap:butt;stroke-linejoin:miter;stroke-opacity:1"
       d="M 331.65625 247 C 331.60754 246.95496 331.54688 246.92188 331.5 246.875 C 330.81344 246.18844 317.6979 252.5729 315.5 250.375 C 313.87561 248.75061 311.29875 248.55425 308.5 246.875 C 303.94559 258.46028 315.67506 262.875 325.5 262.875 C 326.43449 262.875 328.23983 263.10679 329.375 262.90625 C 329.49652 262.86303 329.62938 262.85873 329.75 262.8125 C 330.5931 262.48937 331.41757 262.08546 332.1875 261.59375 C 332.95743 261.10204 333.66676 260.51018 334.3125 259.8125 C 334.95824 259.11482 335.52948 258.31605 336 257.375 C 336.20224 256.97052 336.18024 256.53184 336 256.09375 C 335.81976 255.65566 335.47924 255.21961 335.0625 254.75 C 334.22903 253.81079 333.05982 252.80278 332.15625 251.75 C 331.70446 251.22361 331.31284 250.67666 331.0625 250.125 C 330.81216 249.57334 330.71541 249.01234 330.8125 248.4375 C 330.89279 247.96215 331.2472 247.4899 331.65625 247 z "
       id="path4665" />
    <path
       style="fill:#ccb3b3;stroke:#000000;stroke-width:1px;stroke-linecap:butt;stroke-linejoin:miter;stroke-opacity:1;fill-opacity:1"
       d="m 408.21875,50.09375 c -14.31875,0.387835 -30.85907,7.202817 -38.75,15.09375 -1.77044,1.770446 -2.93693,6.374416 -5.4375,8.875 C 359.54059,78.553157 355.6148,82.986299 351.4375,87 339.10372,83.125784 322.17189,82.375 310,82.375 c -4.56954,0 -13.30484,-0.931869 -20.1875,-0.875 -3.12848,0.02585 -5.85149,0.273412 -7.65625,0.875 -9.01042,3.003472 -19.34341,-0.906336 -28.59375,1.40625 -12.97546,3.243864 -26.69391,4.009417 -39.28125,7.15625 -13.12847,3.282119 -20.28774,14.2083 -23.9375,19.84375 -4.0143,6.19833 -7.26627,17.68879 -7.0625,22.78125 0.10369,2.59126 -0.17925,11.75657 -0.28125,19.15625 -0.0831,6.02676 0.93369,17.75453 2.34375,23.28125 2.3243,5.12149 9.03477,17.45933 18.9375,25.625 5.53569,2.83675 11.27386,5.08875 17.0625,6.875 0.27781,0.87348 0.62516,1.77307 0.71875,2.59375 -1.20228,6.19435 1.96304,12.55612 0.6875,18.59375 -0.44914,2.12596 1.15416,3.93126 1.34375,5.59375 0.16632,1.45849 -0.008,8.39903 1.0625,9.25 2.42229,1.92638 3.36189,7.81537 6.1875,10.0625 1.87132,1.4882 5.69118,1.98056 7.5625,3.46875 1.35164,1.07492 4.79006,1.06182 6.46875,-0.0312 2.70995,-1.76463 6.01181,-0.24008 8.28125,-3.09375 5.9324,-7.45958 5.63345,-17.89401 7.65625,-27.46875 0.4541,-2.14942 -0.8565,-5.0988 -0.0937,-7.1875 0.13247,-0.36279 0.17916,-2.6781 0.1875,-5.4375 14.09746,0.56769 26.04919,-0.294 32.875,-0.34375 2.37421,-0.0173 5.59059,-0.0889 9.15625,-0.1875 -1.80664,13.40094 -0.99553,32.26299 5.28125,40 1.3059,1.6097 4.39861,2.4195 6.09375,3.5 1.99745,1.27318 4.87673,1.58405 7.09375,0.75 3.36941,-1.26758 6.06569,-1.02864 8.1875,-2.75 2.43743,-1.97741 3.36963,-7.44275 4.65625,-10.28125 1.9682,-4.34219 8.47489,-25.83058 7.59375,-33.625 12.63788,-1.30549 15.86061,-1.07138 22.65625,-3.84375 9.43666,-5.78976 18.33809,-13.08242 21.4375,-19.28125 1.74855,-3.49709 4.64688,-6.48125 6.40625,-10 4.56801,-9.136 7.44631,-20.18269 10.71875,-30 0.0675,-0.20238 0.13126,-0.4141 0.1875,-0.625 9.11457,1.62807 19.00417,-0.4375 27.78125,-0.4375 4.88391,0 14.7605,-1.43233 18.25,-3.53125 2.50942,-1.50941 7.38711,-4.51211 10.96875,-8.09375 1.52711,-1.52711 2.67744,-4.97443 2.5625,-7 -0.55291,-2.73113 -5.06882,-1.17504 -7.59375,-2.4375 -7.04732,-3.52366 -12.42551,-4.58171 -16.625,-8.78125 2.2576,-1.55294 0.61791,-3.50159 3.21875,-3.65625 0.91406,-0.91407 -0.81525,-5.49726 0.53125,-6.84375 0.47619,-0.47619 0.24256,-1.68006 0.71875,-2.15625 1.54616,-1.54615 22.75797,3.4743 33.1875,0.0937 0.14701,-0.43136 0.3011,-0.85219 0.5,-1.25 1.33205,-2.66406 2.24172,-7.047806 2.40625,-10.71875 0.39389,-3.711739 -0.85791,-7.482912 -3.09375,-9.71875 -1.25836,-1.258366 -1.86827,-3.930787 -3.40625,-5.46875 l -9.5625,-9.5625 c -2.26996,-2.269967 -6.33044,-3.580426 -8.875,-6.125 -4.86283,-4.862825 -14.58692,-3.887209 -20.4375,-6.8125 -3.32436,-1.662187 -7.67861,-1.120552 -10.9375,-2.75 -4.27611,-2.138057 -9.52201,-2.964261 -15.125,-2.8125 z"
       id="path3089"
       inkscape:connector-curvature="0"
       sodipodi:nodetypes="csscssssssssccccsscsscssccscsssssccssscssscsccsscccsssssssc" />
    <path
       style="fill:#d8c3c3;fill-opacity:1;stroke:none"
       d="M 409.21875 50.59375 C 407.42891 50.64223 405.61929 50.792374 403.78125 51.03125 C 401.94321 51.270126 400.06251 51.59163 398.21875 52 C 394.53123 52.81674 390.89315 53.943204 387.4375 55.3125 C 383.98185 56.681796 380.7278 58.307873 377.84375 60.0625 C 376.40173 60.939813 375.04793 61.838958 373.8125 62.78125 C 372.57707 63.723542 371.45512 64.701133 370.46875 65.6875 C 369.58353 66.572723 368.85675 68.158879 368.03125 69.84375 C 367.6185 70.686186 367.17616 71.56407 366.6875 72.375 C 366.19884 73.18593 365.65639 73.937354 365.03125 74.5625 C 360.54059 79.053157 356.6148 83.486299 352.4375 87.5 C 349.35406 86.531446 345.98073 85.771448 342.46875 85.15625 C 338.95677 84.541052 335.30433 84.085987 331.65625 83.75 C 328.00817 83.414013 324.36675 83.193421 320.875 83.0625 C 317.38325 82.931579 314.04297 82.875 311 82.875 C 308.71523 82.875 305.3966 82.632109 301.78125 82.40625 C 298.1659 82.180391 294.25383 81.971565 290.8125 82 C 289.24826 82.01292 287.79741 82.07843 286.5 82.21875 C 285.20259 82.35907 284.05863 82.574206 283.15625 82.875 C 282.02995 83.250434 280.88169 83.50245 279.71875 83.6875 C 278.55581 83.87255 277.37767 83.985274 276.1875 84.03125 C 273.80716 84.1232 271.37042 84.00022 268.9375 83.84375 C 266.50458 83.687278 264.06658 83.494408 261.65625 83.5 C 259.24592 83.5056 256.87508 83.703103 254.5625 84.28125 C 251.31864 85.092216 248.02621 85.735392 244.71875 86.3125 C 241.41129 86.889608 238.09373 87.411137 234.78125 87.90625 C 231.46877 88.401363 228.16519 88.872521 224.90625 89.4375 C 221.64731 90.002479 218.42809 90.650792 215.28125 91.4375 C 213.64019 91.847765 212.08433 92.376121 210.625 93 C 209.16567 93.623879 207.81845 94.338034 206.53125 95.125 C 205.24405 95.911966 204.03093 96.787974 202.90625 97.6875 C 201.78157 98.587026 200.72177 99.50719 199.75 100.46875 C 197.80645 102.39187 196.17081 104.3819 194.78125 106.25 C 193.39169 108.1181 192.25619 109.87239 191.34375 111.28125 C 190.34017 112.83083 189.39745 114.72156 188.53125 116.75 C 187.75694 118.56326 187.04261 120.48732 186.4375 122.40625 C 186.36569 122.63397 186.28714 122.86653 186.21875 123.09375 C 186.20904 123.12602 186.19715 123.15525 186.1875 123.1875 C 186.10059 123.46068 186.01952 123.72747 185.9375 124 C 185.29285 126.14198 184.77644 128.23479 184.4375 130.125 C 184.09856 132.01521 183.94906 133.69564 184 134.96875 C 184.10369 137.56001 183.82075 146.72532 183.71875 154.125 C 183.67715 157.13838 183.92368 161.59262 184.34375 165.96875 C 184.76382 170.34488 185.35747 174.64289 186.0625 177.40625 C 186.64357 178.68662 187.51431 180.43303 188.625 182.4375 C 189.73569 184.44197 191.0845 186.68982 192.6875 189.0625 C 193.66956 190.5161 194.90695 192.01591 196.0625 193.5 C 196.46994 193.1571 196.87941 192.90184 197.28125 192.5 C 197.9138 191.86745 194.57152 178.61178 193.75 176.96875 C 192.99601 175.46077 193.7116 171.96153 192.34375 170.59375 C 190.91316 169.16316 191.52812 164.84062 190.21875 163.53125 C 188.78002 162.09253 189.11468 155.11439 190.21875 152.90625 C 191.69544 149.95288 190.12825 145.306 191.625 142.3125 C 196.51607 132.53035 199.32538 126.86211 207.90625 118.28125 C 210.08255 116.10495 213.78904 116.01172 216.375 114.71875 C 220.8736 112.46945 228.86428 109.32322 231.9375 106.25 C 233.93277 104.25472 251.53812 100.26372 255.0625 97.21875 C 260.82691 97.242902 267.73281 98.008598 270 96.875 C 274.25301 94.748496 283.13414 96.375 288 96.375 L 325.5 96.375 C 327.92986 96.375 344.50327 97.373366 345.5 96.875 C 346.82791 96.211047 348.72718 97.01141 350 96.375 C 354.24 94.255002 371.98979 89.885211 374 87.875 C 378.23655 83.638448 379.33736 77.03764 383.5 72.875 C 384.91003 71.464974 386.54141 69.333587 387.5 68.375 C 389.45283 66.422175 392.39193 65.983069 394 64.375 C 394.86276 63.512235 397.28412 64.090877 398 63.375 C 399.87127 61.503732 403.05322 62.59839 405.5 61.375 C 413.37492 57.437543 425.00208 59.801605 432.5 55.21875 C 431.61208 55.025388 430.6944 54.913123 429.78125 54.78125 C 428.82552 54.643227 427.88719 54.485585 426.96875 54.28125 C 426.05031 54.076915 425.15847 53.813612 424.34375 53.40625 C 423.27472 52.871736 422.14943 52.407 420.96875 52.03125 C 419.78807 51.6555 418.55443 51.383669 417.28125 51.15625 C 414.73489 50.701412 412.02024 50.517869 409.21875 50.59375 z "
       id="path4763" />
    <path
       style="fill:#ffffff;fill-opacity:1;stroke:#000000;stroke-width:1;stroke-linecap:butt;stroke-linejoin:miter;stroke-miterlimit:4;stroke-opacity:1;stroke-dasharray:none"
       d="m 448.1214,56.743391 c -3.97212,-0.872378 -8.92731,3.800834 -10.21381,7.66036 -0.32133,0.963975 0.19177,1.42648 0.42557,2.127878 1.49743,4.49229 2.80043,6.465959 7.66036,8.085936 19.94717,6.649057 17.97308,-21.043213 2.12788,-17.874174 z"
       id="path3318"
       inkscape:connector-curvature="0" />
    <path
       style="fill:#ffffff;stroke:#000000;stroke-width:1px;stroke-linecap:butt;stroke-linejoin:miter;stroke-opacity:1"
       d="m 424.51953,57.527336 c -5.12511,-0.223144 -7.36301,3.421363 -10.12513,6.021416 -1.64997,1.553152 -2.44482,4.278611 -1.77831,6.499672 0.72947,2.430866 0.21705,3.492907 2.53186,5.95201 1.62373,1.724937 15.30506,4.45711 17.78836,2.119513 1.38979,-1.308236 5.57796,-1.837057 6.43086,-3.421311 5.2741,-9.796598 -4.62076,-18.136905 -14.84764,-17.1713 z"
       id="path3290"
       inkscape:connector-curvature="0" />
    <path
       style="fill:#6c5353;stroke:#000000;stroke-width:1px;stroke-linecap:butt;stroke-linejoin:miter;stroke-opacity:1"
       d="m 428.5,61.362182 c -5.07175,-1.431179 -9.2848,9.715199 -7,12 0.56141,0.561411 6.94296,5.557042 9,3.5 0.98213,-0.982129 3.6149,-2.114899 5,-3.5 1.23528,-1.235276 0.30926,-3.118514 1,-4.5 2.51205,-5.024106 -4.01662,-5.906649 -8,-7.5 z"
       id="path4101"
       inkscape:connector-curvature="0" />
    <path
       style="fill:#6c5353;stroke:#000000;stroke-width:1px;stroke-linecap:butt;stroke-linejoin:miter;stroke-opacity:1"
       d="m 451,59.862182 c -1.33464,-0.137045 -2.68685,-1.813145 -6,1.5 -4.48609,4.486093 0.74749,13.126257 7,10 0.30189,-0.150943 1.26887,0.231132 1.5,0 0.5,-0.5 1.5,-0.5 2,-1 4.84952,-4.849517 2.18186,-11.836371 -4.5,-10.5 z"
       id="path4116"
       inkscape:connector-curvature="0" />
    <path
       style="fill:#ccb3b3;fill-opacity:1;stroke:#000000;stroke-width:1px;stroke-linecap:round;stroke-linejoin:miter;stroke-opacity:1"
       d="m 432.5,125.36218 c 7.60159,-7.60159 11.03469,-7.89368 10.75,-20.25 -0.24436,-0.75814 -0.25,-1.29749 -0.25,-2 0,-1.90233 0.18833,-4.123344 -0.5,-5.499998 -0.93125,-1.862492 -2.75,-3.563722 -2.75,-5"
       id="path4131"
       inkscape:connector-curvature="0"
       sodipodi:nodetypes="cc" />
    <path
       style="fill:#000000;stroke:#000000;stroke-width:1px;stroke-linecap:butt;stroke-linejoin:miter;stroke-opacity:1"
       d="m 429.75,64.862182 c -0.47378,-0.04429 -1.43033,0.18033 -2.75,1.5 -2.70769,2.707687 2.78686,8.963144 5.25,6.5 0.23879,-0.238791 1.21441,-0.214413 1.5,-0.5 2.49386,-2.493856 0.34057,-9.236227 -4,-7.5 z"
       id="path4176"
       inkscape:connector-curvature="0" />
    <path
       style="fill:#000000;stroke:#000000;stroke-width:1px;stroke-linecap:butt;stroke-linejoin:miter;stroke-opacity:1"
       d="m 451.5,61.862182 c 0.0253,-0.467406 -2.69021,-0.369574 -3.5,1.25 -0.30957,0.61914 -1.88836,3.611637 -1,4.5 0.34346,0.343461 0.81735,1.408675 1.5,1.75 1.08149,0.540746 4.00109,0.998914 5,0 2.58523,-2.585227 3.39212,-8.578425 -2,-7.5 z"
       id="path4178"
       inkscape:connector-curvature="0" />
    <path
       style="fill:#6c5353;stroke:#000000;stroke-width:1px;stroke-linecap:round;stroke-linejoin:round;stroke-opacity:1"
       d="m 417.19638,46.143687 c -4.21521,-0.02199 -8.41224,0.721998 -12.6298,0.377185 -5.44212,0.05949 -11.25249,1.160132 -15.47636,4.810463 -1.37903,1.072825 -4.01693,0.777675 -4.53486,2.692652 1.07249,1.06302 3.2807,-0.306952 4.59275,-0.880873 3.43557,-1.406997 5.09569,-3.429038 6.40133,-2.954305 -2.51239,1.154753 -5.53283,3.712907 -8.30405,4.118641 -0.98304,0.05068 -4.27314,1.692561 -1.48338,1.513559 7.95953,0.02383 -2.45723,-0.3615 -3.07276,2.845264 0.41938,2.009584 3.00759,1.952141 4.54738,1.361572 1.87623,-0.724435 3.85698,-0.879448 5.82937,-1.112263 3.30327,-0.409882 6.71705,-0.892863 10.00972,-0.262492 2.73858,1.083978 5.51399,2.083775 8.34987,2.883864 2.25053,-0.95196 -0.83778,-2.956402 -2.06496,-3.349285 -2.21563,-0.697905 -4.70976,-0.536438 -6.81573,-1.613017 1.45606,-0.257719 4.86829,0.283446 7.06808,0.407458 3.18386,0.366201 6.37747,0.571577 9.5109,1.248418 2.45297,0.485232 1.06652,-1.951595 -0.50685,-1.963595 -2.67208,-0.792145 -5.59348,-0.15671 -8.19065,-1.299657 -4.61397,-1.120449 -9.36798,-0.123598 -14.02854,0.06666 -1.15189,0.234709 -4.92752,0.566103 -2.14428,-0.538576 2.40668,-1.289263 5.13991,-2.473343 7.92281,-1.820023 4.60307,0.534244 9.1847,1.318497 13.81017,1.596739 2.52508,0.436439 4.68596,2.106775 7.24506,2.356012 -2.69587,-1.901095 -5.14847,-4.677455 -8.66426,-4.876891 -6.19616,-1.074349 -12.4963,-0.225902 -18.67329,0.550151 4.26405,-1.985424 8.95734,-3.93265 13.75204,-2.945457 4.3573,0.516177 9.10359,0.993631 12.56123,3.985848 1.24674,0.799486 3.47351,2.968484 4.36968,2.506974 -1.61659,-2.692414 -4.56816,-4.102766 -6.65146,-6.36351 -0.90052,-0.831391 -3.4523,-0.98971 -3.67742,-1.389339 3.70665,-0.07053 7.5845,-0.208864 11.01659,1.431411 2.78795,0.842921 4.52773,3.333197 6.62359,5.175054 0.51153,1.260968 3.2208,4.836845 3.52164,1.73149 -1.42974,-2.94363 -3.82649,-5.355845 -6.42541,-7.279529 -4.20475,-2.281212 -9.07984,-2.85287 -13.78815,-3.010603 z"
       id="path4469"
       inkscape:connector-curvature="0"
       sodipodi:nodetypes="cccccccccccccccccccccccccccccccccccc" />
    <path
       style="fill:#d8c3c3;stroke:#000000;stroke-width:1px;stroke-linecap:round;stroke-linejoin:miter;stroke-opacity:1;fill-opacity:1"
       d="m 375.25,63.362182 c -3.41864,-2.31955 -9.40985,-13.520452 -6.75,-21.5 0.54865,-1.645937 0.90506,-3.452532 2.5,-4.25 3.17169,-1.585847 4.8726,2.622595 6.75,4.5 0.90448,0.904477 1.34552,2.345522 2.25,3.25 4.52037,4.52037 6.5,9.556546 6.5,16"
       id="path4301"
       inkscape:connector-curvature="0" />
    <path
       style="fill:none;stroke:#000000;stroke-width:1px;stroke-linecap:butt;stroke-linejoin:miter;stroke-opacity:1"
       d="m 463.5,98.862182 c -0.33333,0.08333 -0.91667,0.583333 -1,0.25 -0.0833,-0.333334 1.24296,-0.492957 1,-0.25 -0.96621,0.966212 -1.24995,0.249898 -1.75,1.249998 -2.99505,5.9901 7.65215,-0.0696 1.75,-1.249998 z"
       id="path4318"
       inkscape:connector-curvature="0" />
    <path
       style="fill:none;stroke:#000000;stroke-width:1px;stroke-linecap:butt;stroke-linejoin:miter;stroke-opacity:1"
       d="m 472.5,98.86218 c -0.33333,0 -1,0.33333 -1,0 0,-0.333332 1.2357,-0.235701 1,0 -1.38679,1.38679 -0.86176,-0.276485 -1.5,1 -1.04333,2.08666 0.72285,4.02715 2.25,2.5 0.32194,-0.32194 0.0675,-0.88495 0.25,-1.25 0.59265,-1.1853 0.23105,-1.51137 -1,-2.25 z"
       id="path4320"
       inkscape:connector-curvature="0" />
    <path
       style="fill:#6c5353;fill-opacity:1;stroke:#000000;stroke-width:1px;stroke-linecap:round;stroke-linejoin:round;stroke-opacity:1"
       d="m 363.5,70.78125 c -3.19707,0.347041 -5.11741,5.57096 -8.59375,2.90625 -3.29518,1.322127 -6.63929,0.666154 -9.6875,-0.1875 -1.8481,0.301993 -4.91956,5.174564 -5.1875,1.21875 -1.96445,-2.760407 -4.78408,1.391303 -7.5625,0.90625 -1.82221,-0.339409 -4.48714,3.219104 -4.59375,2.125 -1.45026,-3.653879 -6.62983,-1.386765 -8.25,0.71875 -2.24105,0.01616 -2.0662,-0.925679 -3.75,0.5 -1.09758,0.582799 -2.33342,0.946874 -2.9375,-0.625 -1.82846,-1.290755 -3.41292,0.09258 -4.84375,0.71875 -0.17673,0.500355 -0.37289,1.001359 -0.5625,1.5 -1.31154,-1.34221 -3.84742,-2.004748 -5.8125,-1.03125 -0.85684,-0.394413 -1.27441,-1.406158 -2.21875,-1.65625 -5.17051,4.225097 -4.82957,13.110022 -8.375,18.53125 0.13513,2.506775 -1.04499,8.01967 0.71875,8.75 0.62666,-5.252211 2.5531,-10.268586 4.5625,-15.125 0.87645,-1.435176 1.98917,-5.094752 3.40625,-4.8125 -0.40991,2.965527 -1.90829,5.730536 -1.90625,8.8125 -0.90844,7.34458 -0.1443,14.74218 0.625,22.0625 1.84583,2.86458 1.57283,-3.32709 1.3125,-4.5625 -0.23717,-4.70323 -1.77389,-9.92478 1.1875,-14.125 0.17894,-0.390897 0.32809,-0.806674 0.5,-1.21875 -0.76651,2.842572 -1.20256,5.75157 -1.0625,8.78125 3.69647,0.36804 3.01439,-5.517359 4.25,-7.96875 0.21721,-1.243081 1.69562,-4.145197 0.96875,-1.1875 -1.16426,7.68337 -1.23852,15.47972 -1.75,23.21875 -0.45292,1.74704 0.65369,5.52649 1.3125,1.78125 1.01063,-5.90172 0.87917,-11.95456 2.15625,-17.8125 0.63536,0.70415 -1.04762,7.13022 1.25,6.84375 0.95259,-2.08856 1.10793,-6.83715 2.5,-7.28125 0.87468,6.00007 -1.14112,12.10718 0.15625,18.0625 1.97086,2.68713 2.05537,-3.18318 1.84375,-4.59375 -0.56132,-4.38988 0.12407,-8.75665 0.125,-13.15625 0.15033,-3.476721 0.41955,-6.972315 1,-10.40625 1.4266,-2.132552 1.65847,-4.258889 2.75,-4.4375 -1.12283,6.189182 -1.82445,8.84596 -2.34375,15.125 -0.0988,2.68114 2.39476,1.99217 1.9375,-0.28125 0.97994,-3.418199 0.86924,2.67499 0.71875,3.6875 -0.2019,1.41348 -1.28246,2.93571 -0.15625,5.40625 2.00363,-3.07105 2.60039,-10.5095 2.375,-13.5625 1.74069,-2.046898 4.02666,-7.504682 4.09375,-6.625 -0.98109,6.502861 -2.09331,13.09737 -1.3125,19.6875 -0.0625,1.41714 -0.0628,7.35005 0.6875,3.28125 0.80509,-4.28686 0.56121,-8.85146 2.46875,-12.875 -0.38829,4.99429 -1.42959,10.31219 0.625,15.09375 -0.32248,2.10403 2.40101,3.86566 1.84375,0.75 0.37514,-6.34729 0.10529,-12.77195 1.40625,-19.03125 1.30674,-1.599545 1.69956,-8.072551 4.25,-3.8125 0.45719,3.267885 -1.7907,6.27466 -1.84375,9.59375 -0.68234,3.91528 -0.0581,7.86866 0.65625,11.71875 0.31611,3.68579 -0.17756,7.38477 -0.375,11.0625 3.51538,-3.28247 0.88154,-8.74029 3.625,-12.4375 2.29179,-4.53134 0.013,-9.7767 1.84375,-14.40625 1.45475,-3.721966 1.25303,-4.886942 1.59375,-8.96875 1.39071,0.755878 0.93225,1.307298 0.96875,2.5 -1.0952,4.657238 -1.51034,9.59683 -0.5625,14.28125 2.64264,-0.46752 0.99856,-5.18009 1.5,-7.46875 0.006,-2.81101 0.0593,-5.66271 0.875,-8.375 2.1125,-0.52235 1.71981,1.913646 1.8125,5.21875 1.00084,5.94113 0.67636,15.17922 1.21875,21.625 0.22787,2.95128 3.2762,7.15344 2.46875,3.71875 0.37898,-5.27771 -0.4374,-10.5642 -0.25,-15.84375 0.91804,4.07907 1.45289,8.34692 3.5,12.0625 1.93452,-3.72214 -0.82645,-7.83989 -0.40625,-11.78125 -0.7051,-5.64243 -1.16868,-11.511893 0.53125,-17.03125 2.2148,-3.109796 0.13387,3.180358 0.78125,4.375 0.65998,3.975672 1.42188,7.9291 1.8125,11.9375 1.02734,4.82346 3.05102,9.37915 4,14.21875 1.5987,2.82631 3.44421,0.24651 1.84375,-1.71875 -1.31454,-5.17406 -3.97765,-10.06546 -4.34375,-15.4375 -0.046,-6.758886 1.87581,-13.320313 3.75,-19.75 0.99177,3.252109 -0.31328,6.864847 0.96875,10.15625 0.905,2.677039 -1.20638,7.59694 2.40625,8.96875 -0.70337,-5.656095 -0.76408,-11.371488 -0.53125,-17.0625 1.34261,-3.780369 3.23142,-7.47607 3.375,-11.5625 -1.49469,-0.740282 0.52735,-3.557327 -0.6875,-3.6875 -0.22521,-0.02399 -0.44311,-0.02314 -0.65625,0 z M 299.96875,78 c 1.00177,0.871052 0.98996,0.430025 0,0 z"
       id="path4702"
       inkscape:connector-curvature="0"
       sodipodi:nodetypes="scccccccccccccccccccccccccccccccccccccccccccccccccccccccccccccccccccccccccccscc" />
    <path
       style="fill:#c3a9a9;fill-opacity:1;stroke:none"
       d="m 440.11336,121.55086 c -0.20914,-0.0424 -0.40299,0.0168 -0.59375,0.25 -5.24975,5.08973 -11.99557,10.16954 -19.90625,8.96875 -6.80959,-0.21525 -15.78586,-2.16364 -19.90625,4.90625 -5.3532,6.23985 -7.46203,14.23123 -9.34375,21.96875 -3.45271,6.7851 -5.43534,14.77927 -12.34375,18.96875 -3.7502,3.35695 -8.68117,4.84375 -11.78125,8.96875 -7.34712,7.10991 -17.61771,9.06821 -26.90625,12.28125 -4.96166,0.14188 -9.14407,2.5198 -14.25,2.25 -13.352,4.01206 -27.74318,5.75798 -41.53125,3.0625 -6.74357,1.42839 -13.1457,-1.39968 -19.90625,-1.28125 -4.13211,-0.9295 -8.50622,0.46674 -12.71875,-0.78125 -7.98507,-0.0752 -15.47531,-2.84606 -23.0625,-5.03125 -0.86753,1.4e-4 -1.70085,-0.11721 -2.53125,-0.21875 0.10663,0.52511 0.20158,1.18731 0.3125,1.65625 0.40413,1.7086 0.84225,2.9985 1.34375,3.5 1.25121,1.25121 2.37397,2.54257 3.40625,3.90625 1.03228,1.36368 1.98128,2.79061 2.8125,4.28125 0.83122,1.49064 1.53947,3.0554 2.1875,4.6875 0.64803,1.6321 1.23606,3.33695 1.71875,5.125 0.48269,1.78805 0.88353,3.63526 1.21875,5.59375 0.33522,1.95849 0.57563,4.01283 0.78125,6.15625 0.41124,4.28684 0.59375,8.94897 0.59375,14.0625 0,1.88558 -0.41876,4.96352 -0.625,7.96875 -0.0822,1.1978 -0.085,2.33678 -0.0625,3.4375 2.60371,1.64129 5.54287,1.47516 8.1875,-0.125 3.63635,0.0358 6.72961,-1.50375 7.71875,-5.125 3.49817,-7.84597 4.18022,-16.92701 5.09375,-25.3125 -0.8659,-4.04876 0.64791,-8.07239 0.0937,-12.1875 15.43783,0.71332 30.87537,-0.34894 46.3125,-0.53125 -0.079,0.74152 -0.14152,1.53009 -0.21875,2.28125 0.52629,-0.28519 0.95551,-0.65151 1.5,-0.90625 1.32876,-0.62165 2.60456,-1.19832 3.40625,-2 0.32637,-0.32637 1.28132,-0.92107 2.375,-1.3125 0.54684,-0.19572 1.11856,-0.33822 1.6875,-0.375 0.56894,-0.0368 1.11586,0.0111 1.59375,0.25 0.88626,0.44313 1.65104,1.20612 2.28125,2.15625 0.63021,0.95013 1.1341,2.09325 1.53125,3.3125 0.39715,1.21925 0.68792,2.53077 0.875,3.78125 0.18708,1.25048 0.28125,2.45618 0.28125,3.5 0,1.28379 -0.4661,3.31365 -1.125,5.75 -0.6589,2.43635 -1.51075,5.27112 -2.25,8.15625 -0.73925,2.88513 -1.38394,5.80736 -1.625,8.4375 -0.12053,1.31507 -0.14375,2.56814 -0.0312,3.6875 0.1125,1.11936 0.36341,2.10181 0.78125,2.9375 0.60822,1.21644 1.28111,3.06425 1.9375,4.78125 1.72786,0.20539 3.47527,0.13945 5.1875,-0.8125 4.96852,0.14814 7.25614,-4.15221 8.03125,-8.46875 4.19982,-11.87704 8.91445,-24.39233 8.25,-37.28125 10.53065,-1.28838 22.2339,-0.50948 30.5625,-8.28125 7.3387,-4.77534 12.82953,-11.34611 16.96875,-18.8125 7.8976,-10.92833 10.15467,-24.62748 14.625,-37.15625 12.18624,2.08206 24.66148,-0.2515 36.90625,-0.84375 8.31064,-0.78298 16.38854,-5.61838 21.25,-12.1875 0.85899,-1.73012 1.55144,-4.41701 -1.5,-3.59375 -6.28942,-0.72476 -11.9682,-4.39433 -17.59375,-7.03125 -0.67,-0.18583 -1.37258,-1.24782 -2,-1.375 z"
       id="path4731"
       inkscape:connector-curvature="0" />
    <path
       style="fill:#ccb3b3;fill-opacity:1;stroke:none"
       d="m 385.93842,61.675857 c -0.02,-1.454384 -0.11018,-2.866701 -0.34375,-4.1875 -0.25622,-1.448883 -0.65752,-2.810239 -1.1875,-4.125 -0.52998,-1.314761 -1.17873,-2.572752 -2,-3.78125 -0.82127,-1.208498 -1.80741,-2.369907 -2.9375,-3.5 -0.90448,-0.904478 -1.34552,-2.345523 -2.25,-3.25 -0.9387,-0.938703 -1.81864,-2.473945 -2.875,-3.5625 -0.52818,-0.544278 -1.11519,-0.986634 -1.75,-1.1875 -0.13108,-0.04148 -0.30055,0.0828 -0.4375,0.0625 -1.02358,5.709861 0.26622,12.126177 2.625,16.84375 0.71977,1.439528 2.59828,3.129535 3.53125,4.0625 0.26019,0.26019 0.89114,0.391141 1.21875,0.71875 1.18513,1.185133 4.03921,2.587741 6.40625,1.90625 z"
       id="path4785"
       inkscape:connector-curvature="0" />
    <path
       style="fill:none;stroke:#000000;stroke-width:1px;stroke-linecap:round;stroke-linejoin:round;stroke-opacity:1"
       d="m 377.94858,61.175251 c -2.1671,-2.055405 -6.54074,-9.757981 -6.54074,-15.556349 0,-0.668699 -0.34914,-1.241857 0.17677,-1.767767 0.47141,-0.471405 -0.11785,-2.00347 0.35356,-2.474874 0.49109,-0.491093 2.33665,1.629546 2.65165,1.944544 1.74468,1.744686 3.47219,3.585625 4.77297,6.187184 0.36288,0.72576 0.17332,1.760847 0.53033,2.474874 0.25587,0.51174 0.53033,1.353759 0.53033,1.944543 0,1.662287 1.06066,3.452916 1.06066,5.126524 0,0.73326 0.15749,2.102038 0,1.944544"
       id="path4811"
       inkscape:connector-curvature="0" />
    <path
       style="fill:#6c5353;fill-opacity:1;stroke:#000000;stroke-width:1px;stroke-linecap:round;stroke-linejoin:round;stroke-opacity:1"
       d="m 199.28125,96.71875 c -1.22901,0.03179 -2.41757,0.185828 -3.59375,0.46875 -6.93335,1.6679 -12.78234,7.35962 -16.65625,13.21875 -1.05064,0.89669 -2.01168,1.83777 -2.875,2.8125 -0.92259,0.28919 -4.40113,5.55197 -4.90257,6.5533 -0.86515,1.72762 -2.28302,7.19252 -4.91177,14.56802 -0.0488,1.45334 -0.18688,4.57778 -0.21875,6 -0.12804,5.71348 2.49528,17.9287 4.3125,21.15625 0.23044,0.40928 1.38224,-1.801 0.47671,-3.06158 -0.0633,-1.53098 -0.0691,-2.35161 -0.63572,-3.58671 -0.62158,-1.35494 -1.2012,-4.93728 -1.40349,-6.41421 -0.49517,-3.61526 0.50843,-14.23041 3.06158,-19.53585 -1.73871,6.47778 -2.96824,9.0491 -1.40349,16.78953 0.51258,2.53563 0.97987,9.52291 2.6875,10.65625 0.90695,0.60194 1.56524,9.29078 2.65625,10.6875 1.56353,2.00169 6.17309,18.14257 7.1875,17.9375 1.90909,-0.38593 -1.3198,-9.21061 -1.65625,-10.875 -0.78068,-3.86175 -3.19544,-11.22744 -5.25,-18.78125 -0.62743,-5.40404 -1.13544,-12.46237 -0.8125,-13.65625 0.29332,-1.08431 -0.50944,-5.63744 0.1875,-6.6875 0.85633,-1.29027 0.50247,-3.31257 0.5,-5.09375 0.4387,1.47538 0.93896,2.95739 1.46875,4.40625 0.11504,1.10409 0.21801,2.28297 0.34375,3.53125 0,0.80812 -0.0415,1.57442 -0.25,2.34375 -1.06003,3.91872 2.52984,13.87091 1.53125,17.5625 -0.67413,2.49207 4.97424,12.11795 5.5,14.71875 0.0208,0.10296 0.2296,0.55444 0.28125,0.71875 0.63889,2.03239 3.2969,7.96481 3.875,7.09375 1.03695,-1.5624 -2.75092,-9.12988 -3.3125,-11.40625 0.28917,0.22719 -0.46361,-3.41713 -0.18566,-3.20159 -0.8341,-2.26183 -1.41616,-4.57039 -1.65809,-5.76716 -0.0284,-0.14058 -0.208,-0.54799 -0.28125,-0.75 -0.5764,-1.58951 -2.19043,-4.64078 -1.6875,-6.5 0.81313,-3.00597 -1.33076,-7.96016 -0.78125,-10.8125 0.57162,0.96207 1.12462,1.70939 1.5625,2 0.39472,0.26197 0.51935,0.96846 0.65625,1.71875 0.14726,0.80702 0.27228,1.65096 0.59375,2.0625 0.89839,1.15014 3.39814,13.03787 3.91637,12.25704 1.22638,-1.84783 0.68973,-5.47158 -0.43046,-8.45526 -1.68038,-4.47582 -1.85717,-9.66566 -3.92341,-15.20803 -0.68647,-1.84134 -1.49772,-3.57828 -2.0625,-5.5 -0.0328,-0.81283 -0.0794,-1.58527 -0.0937,-2.375 0.95781,-2.76871 2.44803,-5.87237 3.125,-8.375 0.48235,-1.78316 1.32062,-3.2406 2.375,-4.53125 0.71322,-0.19534 1.26264,-0.57308 1.84375,-0.90625 0.30441,-0.17453 0.72046,-0.23658 0.96875,-0.46875 0.31034,-0.29018 0.11996,-0.67975 -0.1875,-1.0625 -0.0257,-0.032 -0.035,-0.0615 -0.0625,-0.0937 0.0638,-0.052 0.12139,-0.10471 0.1875,-0.15625 0.34196,-0.62442 0.64418,-1.38809 1,-1.9375 0.91244,-1.40886 2.04794,-3.16315 3.4375,-5.03125 0.72722,-0.97765 1.71982,-2.01214 2.59375,-3.03125 -2.74926,-0.43744 -6.24454,0.74886 -7.4375,2.4375 -1.10844,0.54097 -2.20773,1.13361 -3.28125,1.75 1.33473,-1.08653 3.11385,-2.07149 3.9375,-3.3125 0.59029,-0.88942 3.60175,-0.97657 4.21875,-1.90625 0.12546,-0.18904 0.27704,-0.28753 0.5,-0.34375 0.10148,-0.0256 0.22672,-0.0578 0.34375,-0.0625 0.65304,-0.0266 1.58685,0.28706 2.46875,0.5625 0.57115,-0.63455 0.99241,-1.24906 1.625,-1.875 0.97177,-0.96156 2.03157,-1.881724 3.15625,-2.78125 0.0966,-0.07729 0.21469,-0.142117 0.3125,-0.21875 -0.56109,-0.08858 -1.13715,-0.222662 -1.6875,-0.25 -0.41647,-0.02067 -0.84033,-0.0106 -1.25,0 z m -10.42678,11.35539 c -0.73726,0.80568 -1.53043,2.49829 -2.11427,3.32139 -1.47233,1.18333 -2.9507,0.59452 -3.19363,0.55085 0.6909,-0.84627 4.32673,-3.16733 5.3079,-3.87224 z"
       id="path4965"
       inkscape:connector-curvature="0"
       sodipodi:nodetypes="ccccscssccscssssccccccccscssccscscsccsssccscsccccsscccsscccssccsccccc" />
    <path
       style="fill:#614a4a;fill-opacity:1;stroke:none"
       d="m 357.1875,80.34375 c -1.00161,2.383164 -3.75555,3.532855 -6.09375,3 -0.47179,3.307092 -4.81783,7.019641 -7.28125,3.125 -1.32474,-1.915383 -4.74915,-0.572812 -6.46875,0.125 -3.97293,3.530106 -9.62207,3.252352 -13.46875,-0.28125 -2.59888,-0.896189 -5.96727,1.104259 -5.28125,4.25 -0.32538,2.010021 -2.1005,9.75248 -1,8.46875 1.09079,-3.111778 2.83269,-7.100342 5.53125,-9.34375 4.47199,-0.436954 1.3793,5.676378 2,7.1875 2.03199,-1.398676 4.16025,-1.688941 4.8125,-4.375 3.47729,-3.391664 7.28506,2.567318 5.40625,5.875 -0.7157,4.08055 1.5358,-1.107228 1.40625,-2.5 0.80396,-2.906258 -1.09244,-10.259785 3.71875,-6 1.99971,0.520454 5.32093,0.680025 5.15625,3.90625 0.055,3.853235 0.24935,5.926796 0.6875,9.4375 1.21186,-2.86889 0.20064,-3.14976 0.34375,-5.78125 2.3852,-3.07005 0.48428,-10.061866 5.875,-9.9375 2.7363,0.847646 -0.0781,6.668633 1.53125,5.8125 0.79878,-4.300411 2.78614,-9.102783 3.125,-12.96875 z m 3.28125,2.6875 c 2.90505,-3.812638 -2.16013,-4.445657 0,0 z M 314.5,87 c -1.84222,2.388439 -4.7908,4.992971 -6.625,6.71875 0.0443,2.688297 -1.52136,6.70065 1.3125,7.875 4.37814,-1.607228 1.40103,-7.753905 3.78125,-10.84375 -0.0352,-0.750919 3.02617,-4.68438 1.53125,-3.75 z m -11.46875,1.71875 c -1.09517,-0.103331 -3.70168,2.90473 -3.125,5.53125 1.26066,-1.599919 3.43884,-0.03062 4.09375,-0.6875 -1.62311,-2.350314 3.38868,-5.185521 -1.40625,-5.4375 l 0.4375,0.59375 z"
       id="path5105"
       inkscape:connector-curvature="0" />
    <path
       style="fill:none;stroke:#000000;stroke-width:1px;stroke-linecap:butt;stroke-linejoin:miter;stroke-opacity:1"
       d="M 188.84375 108.0625 C 187.86258 108.76741 184.22215 111.09123 183.53125 111.9375 C 183.65272 111.95933 184.1035 112.12026 184.6875 112.125 C 185.2715 112.12974 186.01384 111.99792 186.75 111.40625 C 187.33384 110.58315 188.10649 108.86818 188.84375 108.0625 z "
       id="path5211" />
    <path
       style="fill:none;stroke:#000000;stroke-width:1px;stroke-linecap:butt;stroke-linejoin:miter;stroke-opacity:1"
       d="M 188.84375 108.0625 C 188.10649 108.86818 187.33384 110.58315 186.75 111.40625 C 186.01384 111.99792 185.2715 112.12974 184.6875 112.125 C 184.1035 112.12026 183.65272 111.95933 183.53125 111.9375 C 184.22215 111.09123 187.86258 108.76741 188.84375 108.0625 z "
       id="path5209" />
    <path
       style="fill:#614a4a;fill-opacity:1;stroke:none"
       d="m 196.15625,99.125 c -2.72301,0.678889 2.68537,-0.113927 0,0 z m -4.875,6.59375 c -2.83905,3.66315 -9.21101,1.71308 -10.34375,7 -3.57513,5.56263 -6.29329,12.79415 -2.3125,18.71875 0.31976,2.51173 3.93222,11.38711 3.40625,7.40625 -2.09074,-4.95798 -4.49661,-10.5737 -1.125,-15.5625 1.60081,-3.5249 1.93154,-8.48383 5.96875,-10.21875 0.57982,-1.87044 3.15302,-5.30326 4.40625,-7.34375 z m -13.09375,4.375 c 0.74077,5.29714 7.8357,-3.79061 0,0 z m 1.09375,1.6875 c -0.0501,1.94229 1.602,-0.34497 0,0 z m -5.25,10.3125 c 0.80848,5.23057 3.06473,-1.91655 0,0 z m 7.375,37.65625 c 0.19586,0.35653 -0.14445,-0.42096 0,0 z m 0.0625,0.0937 c 0.39085,1.59197 0.49816,1.05026 0,0 z"
       id="path5207"
       inkscape:connector-curvature="0" />
  </g>
</svg>
