<?xml version="1.0" encoding="UTF-8" standalone="no"?>
<!-- Created with Inkscape (http://www.inkscape.org/) -->

<svg
   xmlns:dc="http://purl.org/dc/elements/1.1/"
   xmlns:cc="http://creativecommons.org/ns#"
   xmlns:rdf="http://www.w3.org/1999/02/22-rdf-syntax-ns#"
   xmlns:svg="http://www.w3.org/2000/svg"
   xmlns="http://www.w3.org/2000/svg"
   xmlns:sodipodi="http://sodipodi.sourceforge.net/DTD/sodipodi-0.dtd"
   xmlns:inkscape="http://www.inkscape.org/namespaces/inkscape"
   width="709.10675"
   height="462.64346"
   id="svg2"
   version="1.1"
   inkscape:version="0.48.3.1 r9886"
   sodipodi:docname="printable.svg">
  <defs
     id="defs4" />
  <sodipodi:namedview
     id="base"
     pagecolor="#414141"
     bordercolor="#666666"
     borderopacity="1.0"
     inkscape:pageopacity="0"
     inkscape:pageshadow="2"
     inkscape:zoom="0.70710678"
     inkscape:cx="482.29244"
     inkscape:cy="233.94821"
     inkscape:document-units="px"
     inkscape:current-layer="layer1"
     showgrid="false"
     inkscape:window-width="1364"
     inkscape:window-height="766"
     inkscape:window-x="0"
     inkscape:window-y="0"
     inkscape:window-maximized="0"
     fit-margin-top="0"
     fit-margin-left="0"
     fit-margin-right="0"
     fit-margin-bottom="0" />
  <metadata
     id="metadata7">
    <rdf:RDF>
      <cc:Work
         rdf:about="">
        <dc:format>image/svg+xml</dc:format>
        <dc:type
           rdf:resource="http://purl.org/dc/dcmitype/StillImage" />
        <dc:title></dc:title>
      </cc:Work>
    </rdf:RDF>
  </metadata>
  <g
     inkscape:label="Layer 1"
     inkscape:groupmode="layer"
     id="layer1"
     transform="translate(-24.455829,-156.16501)">
    <rect
       style="color:#000000;fill:#241c1c;fill-opacity:1;fill-rule:nonzero;stroke:#ffffff;stroke-width:3.27278686;stroke-linecap:round;stroke-linejoin:round;stroke-miterlimit:4;stroke-opacity:0;stroke-dasharray:none;stroke-dashoffset:0;marker:none;visibility:visible;display:inline;overflow:visible;enable-background:accumulate"
       id="rect5377"
       width="705.83398"
       height="459.37067"
       x="26.092222"
       y="157.80141" />
    <g
       id="g5379"
       transform="translate(-104.6518,-26.870058)">
      <path
         inkscape:connector-curvature="0"
         id="path4389"
         d="m 421.14172,392.44253 c -0.36961,2.17357 -0.61366,7.54109 0.74133,8.89608 0.64327,0.64326 9.81925,-0.92317 10.00809,-1.11201 0.54396,-0.54396 -2.46507,-7.52483 -2.96535,-8.5254 -0.17467,-0.34948 0.021,-1.11201 -0.37068,-1.11201 -2.50464,0 -5.18656,0.51725 -7.41339,1.85334 z"
         style="fill:#e3dbdb;fill-opacity:1;stroke:none" />
      <path
         inkscape:connector-curvature="0"
         id="path4404"
         d="m 419.65904,407.26933 c 0.0707,1.45721 -0.3681,9.82403 0.74133,10.37877 1.26898,0.63447 3.5603,-0.37068 4.81871,-0.37068 1.31538,0 3.74472,0.33264 4.44804,-0.37068 0.6747,-0.67467 -0.58399,-3.44793 -0.74133,-4.07736 -0.96641,-3.86562 0.74852,-6.30138 -3.70671,-6.30138 -2.11473,0 -3.55026,-0.0625 -5.56004,0.74133 z"
         style="fill:#e3dbdb;fill-opacity:1;stroke:none" />
      <path
         inkscape:connector-curvature="0"
         id="path4406"
         d="m 434.85651,407.26933 c 0.28865,1.28376 -0.71713,7.06696 0.37066,8.15475 1.12398,1.12398 4.24617,1.21295 5.93072,0.37065 0.55688,-0.27843 2.52353,0.44185 2.96535,0 0.352,-0.35197 -0.62171,-2.48683 -0.74133,-2.96535 -1.36979,-5.47919 -0.5015,-9.57201 -8.5254,-5.56005 z"
         style="fill:#e3dbdb;fill-opacity:1;stroke:none" />
      <path
         inkscape:connector-curvature="0"
         id="path4408"
         d="m 434.85651,392.81321 c -0.52649,1.55568 -0.49527,2.96229 0,4.44804 0.43052,1.29156 -0.11616,3.96113 0.37066,4.44804 0.88601,0.88601 4.98832,0.37067 6.3014,0.37067 0.98844,0 2.96535,0.98845 2.96535,0 0,-1.4025 -0.72749,-4.02202 -1.11201,-5.56004 -0.23994,-0.95978 1.18439,-4.005 0.37068,-4.81872 -1.33279,-1.33276 -7.78992,0.66954 -8.89608,1.11201 z"
         style="fill:#e3dbdb;fill-opacity:1;stroke:none" />
      <path
         inkscape:connector-curvature="0"
         id="path4412"
         d="m 450.42464,406.528 c 1.01529,1.32499 -1.86426,9.25583 -1.48268,9.63741 0.85081,0.85081 9.25054,0.37068 11.12009,0.37068 0.14804,0 -1.04717,-4.55942 -1.11201,-4.81872 -0.33463,-1.33857 0.4309,-3.27581 -0.37067,-4.07736 -1.3508,-1.35082 -5.65325,-0.61173 -8.15473,-1.11201 z"
         style="fill:#e3dbdb;fill-opacity:1;stroke:none" />
      <path
         inkscape:connector-curvature="0"
         id="path4425"
         d="m 450.42464,391.33053 c -0.0946,1.35308 -0.0442,10.33447 0.74134,11.12009 0.83082,0.83083 4.72318,-0.46237 5.56004,-0.74133 1.51423,-0.50475 2.0745,0.89088 3.33603,-0.37068 0.6994,-0.6994 -0.58845,-3.09519 -0.74133,-3.70668 -1.45555,-5.82218 -0.83038,-10.33425 -8.89608,-6.3014 z"
         style="fill:#e3dbdb;fill-opacity:1;stroke:none" />
      <path
         inkscape:connector-curvature="0"
         id="path4427"
         d="m 467.47544,391.7012 c 0.56268,4.47698 -1.39244,8.15475 3.70671,8.15475 1.21454,0 2.33039,0.1321 3.33603,-0.37068 0.54664,-0.27332 2.17914,0.41555 2.59469,0 0.51718,-0.51718 -0.63016,-2.26113 -0.74133,-2.5947 -0.51941,-1.55815 -0.0323,-4.14181 -0.74136,-5.56004 -1.18927,-2.37856 -6.55954,-0.90548 -8.15474,0.37067 z"
         style="fill:#e3dbdb;fill-opacity:1;stroke:none" />
      <path
         inkscape:connector-curvature="0"
         id="path4429"
         d="m 468.2168,406.89866 c 0,0.61779 0,1.23557 0,1.85336 0,1.94707 -0.45634,4.73304 0.74133,5.9307 0.32719,0.32719 8.69388,-0.33691 8.89607,-0.74133 0.6743,-1.34857 -1.22008,-4.61771 -1.48266,-5.93072 -0.11009,-0.55019 0.3885,-2.57683 0,-2.96535 -0.4175,-0.4175 -1.74215,0.37067 -2.22402,0.37067 -2.11412,0 -6.19029,0 -7.04273,0"
         style="fill:#e3dbdb;fill-opacity:1;stroke:none" />
      <path
         inkscape:connector-curvature="0"
         id="path4431"
         d="m 484.1556,392.07186 c -1.0708,6.67501 -0.0608,10.89324 7.04272,8.52542 0.29661,-0.099 1.53026,-0.16167 1.85336,0 0.28827,0.14405 0.94491,0.90843 1.11201,0.74133 1.19613,-1.19613 0.17383,-7.43658 -0.37068,-8.5254 -0.95147,-1.90295 -7.39095,-0.29204 -9.63741,-0.74135 z"
         style="fill:#e3dbdb;fill-opacity:1;stroke:none" />
      <path
         inkscape:connector-curvature="0"
         id="path4433"
         d="m 483.78493,406.89866 c 0.37627,9.49061 -0.89967,8.15474 7.04273,8.15474 0.57415,0 2.74311,0.96358 3.33603,0.37068 0.48298,-0.48301 -0.563,-3.17168 -0.74135,-3.70671 -0.31853,-0.95563 0.44563,-2.44475 0,-3.33603 -0.16628,-0.33249 -0.57053,-1.68255 -0.74134,-1.85334 -0.96135,-0.96135 -7.98896,0.14384 -8.89607,0.37066 z"
         style="fill:#e3dbdb;fill-opacity:1;stroke:none" />
      <path
         inkscape:connector-curvature="0"
         id="path4437"
         d="m 499.35306,391.7012 c -0.63534,1.69478 -0.13566,10.12557 1.11201,10.74942 1.76901,0.8845 4.78122,-0.63026 6.67206,0 0.58943,0.19647 2.66309,1.41429 3.33602,0.74135 1.87989,-1.87988 0.40738,-10.34206 -1.48268,-12.23212 -0.2078,-0.2078 -7.6137,1.7532 -9.63741,0.74135 z"
         style="fill:#e3dbdb;fill-opacity:1;stroke:none" />
      <path
         inkscape:connector-curvature="0"
         id="path4439"
         d="m 517.14521,392.07186 c 1.92573,1.66377 -1.16623,7.35918 0.37068,8.89609 1.55605,1.55604 8.21695,1.04978 9.26675,0 0.70525,-0.70524 -1.30834,-4.68829 -1.48269,-5.56004 -0.12077,-0.60359 0.52411,-3.92396 0,-4.44806 -1.27986,-1.27986 -6.83263,1.11201 -8.15474,1.11201 z"
         style="fill:#e3dbdb;fill-opacity:1;stroke:none" />
      <path
         inkscape:connector-curvature="0"
         id="path4441"
         d="m 517.51589,405.41599 c -0.1451,1.57136 0.008,3.00092 0.37067,4.44804 0.30488,1.21958 -0.89731,5.77474 0,6.67206 0.7981,0.79809 3.12614,-0.82175 3.70669,-1.11201 1.91151,-0.95576 4.81871,1.24142 4.81871,-0.74136 0,-1.84818 -0.39621,-3.09304 -0.74133,-4.81869 -0.12099,-0.60544 0.43193,-3.27476 0,-3.7067 -0.86582,-0.86581 -5.25462,1.7881 -6.67206,0.37067"
         style="fill:#e3dbdb;fill-opacity:1;stroke:none" />
      <path
         inkscape:connector-curvature="0"
         id="path4454"
         d="m 500.09439,406.89866 c -1.25635,1.79496 -0.37065,3.22865 -0.37065,5.18939 0,0.65769 -1.32216,3.12588 -0.74136,3.70668 1.41744,1.41744 11.18692,1.04521 12.60278,-0.37065 1.13162,-1.13162 -1.22853,-8.52542 -2.96535,-8.52542 -3.36979,0 -5.12344,0.6804 -8.52542,0 z"
         style="fill:#e3dbdb;fill-opacity:1;stroke:none" />
      <path
         inkscape:connector-curvature="0"
         id="path4208"
         d="m 566.81498,377.61574 c 0.12162,1.08066 -1.15573,0.65389 0,2.96537 1.05112,2.10223 -0.91547,5.01523 0.74133,6.67205 0.60561,0.60561 4.33154,-0.12706 4.81872,-0.37067 0.81008,-0.40505 4.03282,0.41521 4.07736,0.37067 0.7134,-0.7134 -0.55597,-4.26265 -0.74133,-4.81871 -0.25068,-0.75205 0.0954,-3.98185 -0.37068,-4.44804 -1.70919,-1.70918 -6.18928,0.0967 -8.5254,-0.37067 z"
         style="fill:#e3dbdb;fill-opacity:1;stroke:#ffffff;stroke-width:2.09682536px;stroke-linecap:butt;stroke-linejoin:miter;stroke-opacity:0" />
      <path
         inkscape:connector-curvature="0"
         id="path4210"
         d="m 566.4443,392.07186 c -0.0822,2.16629 -1.44932,8.18808 0,9.63743 0.51066,0.51066 1.97419,0.37067 2.96538,0.37067 1.27401,0 2.30569,-0.0818 2.96535,-0.74135 0.49422,-0.49422 2.10045,0.1235 2.59469,-0.37066 0.92919,-0.92918 0.42906,-3.94024 0.74134,-5.18939 0.39393,-1.5757 0.60384,-4.21487 -0.37068,-5.18937 -0.0899,-0.0899 -3.55567,0.48049 -4.07736,0.74134 -0.73366,0.36684 -1.78851,-0.58844 -2.22402,-0.37068 -0.96509,0.48256 -1.16227,0.53905 -2.5947,1.11201 z"
         style="fill:#e3dbdb;fill-opacity:1;stroke:#ffffff;stroke-width:2.09682536px;stroke-linecap:butt;stroke-linejoin:miter;stroke-opacity:0" />
      <path
         inkscape:connector-curvature="0"
         id="path4212"
         d="m 567.18566,406.89866 c -0.51674,1.35115 0,2.32093 0,3.7067 0,1.45593 -0.46231,5.09774 0.37065,5.93073 0.35181,0.35178 2.12329,-0.74136 2.5947,-0.74136 2.37541,0 7.18775,1.56333 8.15474,-0.37065 0.23787,-0.47575 -0.88897,-3.5559 -1.11201,-4.44804 -0.2149,-0.85961 -0.58709,-4.2938 -1.11201,-4.81871 -0.11344,-0.11344 -7.60718,0.22578 -8.89607,0.74133 z"
         style="fill:#e3dbdb;fill-opacity:1;stroke:#ffffff;stroke-width:2.09682536px;stroke-linecap:butt;stroke-linejoin:miter;stroke-opacity:0" />
      <path
         inkscape:connector-curvature="0"
         id="path4216"
         d="m 550.87617,391.7012 c 0.42041,1.32826 -0.61863,9.76014 -0.37068,10.00809 0.36007,0.36004 6.12301,0 7.78409,0 1.01887,0 2.2449,1.46178 2.96535,0.74133 0.71282,-0.71282 -0.92466,-4.43992 -1.11201,-5.18937 -0.20192,-0.80805 0.59091,-4.22779 0,-4.81872 -0.78125,-0.78125 -7.00576,0.16314 -9.26675,-0.74133 z"
         style="fill:#e3dbdb;fill-opacity:1;stroke:#ffffff;stroke-width:2.09682536px;stroke-linecap:butt;stroke-linejoin:miter;stroke-opacity:0" />
      <path
         inkscape:connector-curvature="0"
         id="path4218"
         d="m 580.90043,375.76239 c -0.43071,1.52869 0.23113,9.49787 1.11201,10.37877 0.0486,0.0486 9.4914,0.88733 9.63742,0.74133 0.6449,-0.6449 -0.21482,-4.19529 -0.37067,-4.81872 -0.31868,-1.2747 0,-3.11141 0,-4.44803 0,-3.661 -6.04662,-1.11201 -8.5254,-1.11201"
         style="fill:#e3dbdb;fill-opacity:1;stroke:#ffffff;stroke-width:2.09682536px;stroke-linecap:butt;stroke-linejoin:miter;stroke-opacity:0" />
      <path
         inkscape:connector-curvature="0"
         id="path4220"
         d="m 582.01244,394.2959 c 0.008,0.45312 0.0788,7.41339 0.74135,7.41339 1.23323,0 8.87349,0.39324 9.26673,0 0.59558,-0.59558 -0.25286,-3.48839 -0.37066,-4.07736 -0.20381,-1.01946 0.75625,-5.17449 0,-5.93073 -0.62191,-0.62192 -7.98376,-0.45616 -8.89607,0"
         style="fill:#e3dbdb;fill-opacity:1;stroke:#ffffff;stroke-width:2.09682536px;stroke-linecap:butt;stroke-linejoin:miter;stroke-opacity:0" />
      <path
         inkscape:connector-curvature="0"
         id="path4224"
         d="m 597.95124,391.7012 c -0.0302,1.88876 -0.86902,7.65637 0.37068,8.89608 0.76092,0.76091 13.34411,0.53083 13.34411,0.74133 0,0.34948 -0.49422,-0.49422 -0.74133,-0.74133 -2.19896,-2.19896 -0.70675,-8.12015 -1.85336,-9.26675 -0.18494,-0.18494 -1.5631,0 -1.85334,0 -2.12394,0 -5.45643,-1.58005 -7.41339,-0.74134 -0.66222,0.28381 -1.1469,1.2533 -1.85337,1.11201 -0.48461,-0.0969 0,-0.98846 0,0 z"
         style="fill:#e3dbdb;fill-opacity:1;stroke:#ffffff;stroke-width:2.09682536px;stroke-linecap:butt;stroke-linejoin:miter;stroke-opacity:0" />
      <path
         inkscape:connector-curvature="0"
         id="path4226"
         d="m 597.95124,405.78665 c -1.98768,11.03871 -0.8109,10.00808 7.41341,10.00808 0.80374,0 4.2713,0.54742 4.8187,0 0.24004,-0.24004 -0.37066,-0.78251 -0.37066,-1.11201 0,-2.36245 -0.51244,-6.95559 -1.48268,-8.89607 -0.63369,-1.26734 -8.11076,0.37801 -10.37877,0 z"
         style="fill:#e3dbdb;fill-opacity:1;stroke:#ffffff;stroke-width:2.09682536px;stroke-linecap:butt;stroke-linejoin:miter;stroke-opacity:0" />
      <path
         inkscape:connector-curvature="0"
         id="path4239"
         d="m 615.37274,406.528 c 0.7104,1.34008 -1.24906,10.846 -1.11201,11.1201 0.84135,1.68272 9.63944,1.10995 10.74942,0 1.26751,-1.26751 -0.21398,-10.9634 -1.48269,-12.23211 -1.26824,-1.26826 -7.04703,0.89046 -8.15472,1.11201 z"
         style="fill:#e3dbdb;fill-opacity:1;stroke:#ffffff;stroke-width:2.09682536px;stroke-linecap:butt;stroke-linejoin:miter;stroke-opacity:0" />
      <path
         inkscape:connector-curvature="0"
         id="path4241"
         d="m 615.00206,424.32015 c 1.10943,2.37168 -0.35658,5.58821 0.74134,7.78407 1.05847,2.11693 8.61711,1.39099 9.63742,0.37065 0.83268,-0.83264 -0.57186,-4.88212 -0.74135,-5.56004 -0.41234,-1.64941 0.36181,-2.23287 -0.74133,-3.33603 -1.57971,-1.57971 -2.64676,0.22977 -4.44804,-0.37066 -2.22817,-0.74273 -3.47872,-1.31129 -4.44804,1.11201 z"
         style="fill:#e3dbdb;fill-opacity:1;stroke:#ffffff;stroke-width:2.09682536px;stroke-linecap:butt;stroke-linejoin:miter;stroke-opacity:0" />
      <path
         inkscape:connector-curvature="0"
         id="path4243"
         d="m 630.5702,423.5788 c -0.44942,2.30959 -0.71829,8.16627 1.48268,9.26675 0.46772,0.23386 2.86523,-1.32574 3.33603,-1.48268 1.06942,-0.35646 2.58503,-0.0902 3.70671,-0.37066 0.67536,-0.16879 3.22126,0.48541 3.70668,0 0.52907,-0.52907 -0.50915,-3.61302 -0.74133,-4.07738 -0.39586,-0.79172 -0.23648,-3.57251 -0.74134,-4.07736 -0.18536,-0.18536 -10.02297,0.59604 -10.74943,0.74133 z"
         style="fill:#e3dbdb;fill-opacity:1;stroke:#ffffff;stroke-width:2.09682536px;stroke-linecap:butt;stroke-linejoin:miter;stroke-opacity:0" />
      <path
         inkscape:connector-curvature="0"
         id="path4245"
         d="m 630.5702,406.528 c 0.27835,1.67794 -0.73624,9.08395 1.112,10.00809 1.515,0.7575 4.2891,-0.41041 5.93073,0 0.62016,0.15495 4.17901,1.01035 4.81871,0.37065 0.62249,-0.6225 -0.59529,-4.60515 -0.74135,-5.18937 -0.1581,-0.63238 -0.17467,-5.18937 -0.74133,-5.18937 -3.60002,0 -6.95431,1.14147 -10.37876,0 z"
         style="fill:#e3dbdb;fill-opacity:1;stroke:#ffffff;stroke-width:2.09682536px;stroke-linecap:butt;stroke-linejoin:miter;stroke-opacity:0" />
      <path
         inkscape:connector-curvature="0"
         id="path4247"
         d="m 648.73302,406.528 c 0.56009,2.12973 0.37288,9.26893 1.48269,10.37874 0.50632,0.50634 3.04813,-0.74133 3.70668,-0.74133 0.49318,0 2.6479,0.68816 2.96538,0.37068 1.1777,-1.17773 0.74403,-3.69589 0.37065,-5.18939 -0.65312,-2.61248 0.86524,-3.91251 -1.85334,-4.8187 -0.60512,-0.20171 -6.34151,-0.0902 -6.67206,0 -0.85959,0.23443 -2.22402,2.37365 -2.22402,1.48267 0,-0.89099 1.46,-1.02428 2.22402,-1.48267 z"
         style="fill:#e3dbdb;fill-opacity:1;stroke:#ffffff;stroke-width:2.09682536px;stroke-linecap:butt;stroke-linejoin:miter;stroke-opacity:0" />
      <path
         inkscape:connector-curvature="0"
         id="path4262"
         d="m 648.73302,392.07186 c 0.47862,0.99825 -0.88337,9.72405 -0.74133,10.0081 0.52085,1.04171 8.98962,0.64778 9.63741,0 0.46354,-0.46354 0,-4.31428 0,-4.81871 0,-0.80394 0.85217,-5.07855 0.37068,-5.56005 -0.0981,-0.0981 -0.95939,0 -1.11201,0 -2.5921,0 -5.75961,-0.1084 -8.15475,0.37066 z"
         style="fill:#e3dbdb;fill-opacity:1;stroke:#ffffff;stroke-width:2.09682536px;stroke-linecap:butt;stroke-linejoin:miter;stroke-opacity:0" />
      <path
         inkscape:connector-curvature="0"
         id="path4264"
         d="m 663.93048,391.7012 c 0.004,1.39445 -1.56209,8.85636 0,9.63741 1.26174,0.63087 4.37844,-0.74133 5.93072,-0.74133 0.41591,0 3.36522,0.34149 3.70671,0 0.44302,-0.44302 0,-3.93201 0,-4.44804 0,-1.38887 0.42228,-4.39643 -0.37068,-5.18939 -0.41144,-0.41142 -4.59473,0.62242 -5.18937,0.74135 -1.28659,0.25732 -8.78394,0 -4.07738,0 z"
         style="fill:#e3dbdb;fill-opacity:1;stroke:#ffffff;stroke-width:2.09682536px;stroke-linecap:butt;stroke-linejoin:miter;stroke-opacity:0" />
      <path
         inkscape:connector-curvature="0"
         id="path4316"
         d="m 649.35492,379.14887 c -0.43067,1.10679 0,1.76307 0,2.88314 0,0.72185 -0.27934,5.22482 0.2621,5.76627 0.66977,0.66979 8.14806,1.0027 8.38731,0.5242 0.23245,-0.46491 -0.43885,-10.92297 -0.52421,-11.00833 -0.30939,-0.30939 -1.3505,0.15097 -1.57262,0.2621 -1.48604,0.74303 -3.8652,-0.88528 -5.24206,0.26211 -0.4746,0.3955 -0.87369,0.87368 -1.31052,1.31051 z"
         style="fill:#e3dbdb;fill-opacity:1;stroke:#ffffff;stroke-width:2.09682536px;stroke-linecap:butt;stroke-linejoin:miter;stroke-opacity:0" />
      <path
         inkscape:connector-curvature="0"
         id="path4625"
         d="m 299.93267,486.96336 c -0.24321,4.20147 -0.17445,7.98033 1.85334,10.00808 0.50702,0.50702 5.45674,-0.74133 6.3014,-0.74133 1.24766,0 5.02958,0.53046 5.93071,-0.37068 0.0168,-0.0168 -0.74134,-3.01364 -0.74134,-3.33602 0,-1.28924 -0.84632,-6.35389 -2.22401,-7.04274 -1.1148,-0.5574 -9.82791,0.9658 -11.1201,1.48269 z"
         style="fill:#e3dbdb;fill-opacity:1;stroke:#ffffff;stroke-width:2.09682536px;stroke-linecap:butt;stroke-linejoin:miter;stroke-opacity:0" />
      <path
         inkscape:connector-curvature="0"
         id="path4627"
         d="m 299.93267,501.79016 c -0.86834,1.6334 0,2.87592 0,4.44804 0,1.29762 -1.0104,4.17897 0,5.18937 1.33845,1.33844 10.69069,0.0587 11.86143,-1.11201 1.59726,-1.59726 0.51349,-11.56217 -0.37066,-11.1201 -4.38876,2.19437 -7.57145,0.37068 -11.49077,0.37068"
         style="fill:#e3dbdb;fill-opacity:1;stroke:#ffffff;stroke-width:2.09682536px;stroke-linecap:butt;stroke-linejoin:miter;stroke-opacity:0" />
      <path
         inkscape:connector-curvature="0"
         id="path4629"
         d="m 281.76984,500.30747 c -0.15327,3.01006 -0.37067,5.83465 -0.37067,8.89608 0,0.29024 -0.18494,1.6684 0,1.85334 1.2972,1.2972 9.03463,2.08548 10.74944,0.37068 2.10223,-2.10226 2.28841,-6.60767 0.37065,-8.5254 -1.65433,-1.65436 0.64647,-2.5947 -4.81869,-2.5947 -2.30301,0 -3.71,-0.8883 -5.93073,0 z"
         style="fill:#e3dbdb;fill-opacity:1;stroke:#ffffff;stroke-width:2.09682536px;stroke-linecap:butt;stroke-linejoin:miter;stroke-opacity:0" />
      <path
         inkscape:connector-curvature="0"
         id="path4631"
         d="m 282.14052,486.59268 c 0.28139,2.3664 -1.9711,11.65357 1.85334,10.37876 1.16426,-0.38808 2.32804,-0.74133 3.70671,-0.74133 1.96837,0 3.78535,1.07267 5.18937,0.37066 0.38967,-0.1948 -0.19459,-2.82629 -0.37068,-3.70669 -0.34595,-1.72986 0.98507,-6.42834 -0.37065,-7.78406 -0.5313,-0.5313 -9.95259,-0.64826 -10.00809,-0.37068 -0.1212,0.60579 0,1.23555 0,1.85334 z"
         style="fill:#e3dbdb;fill-opacity:1;stroke:#ffffff;stroke-width:2.09682536px;stroke-linecap:butt;stroke-linejoin:miter;stroke-opacity:0" />
      <path
         inkscape:connector-curvature="0"
         id="path4633"
         d="m 266.20171,486.22203 c -1.1456,1.92627 -0.88132,4.25882 -0.37068,6.30138 0.15936,0.63743 -1.04266,2.66403 -0.37065,3.33602 0.58101,0.58101 9.37971,1.36971 10.00808,0.74134 0.57034,-0.57034 -0.37067,-2.83409 -0.37067,-3.33603 0,-1.02866 -0.53815,-1.57874 -0.74134,-2.59468 -0.16753,-0.83791 0.23755,-3.83983 -0.37067,-4.44803 -0.78667,-0.78669 -7.07134,-0.11889 -7.78407,0 z"
         style="fill:#e3dbdb;fill-opacity:1;stroke:#ffffff;stroke-width:2.09682536px;stroke-linecap:butt;stroke-linejoin:miter;stroke-opacity:0" />
      <path
         inkscape:connector-curvature="0"
         id="path4635"
         d="m 266.20171,501.79016 c 0.81837,2.76024 -2.3774,8.63403 0.37068,10.00808 1.32114,0.66059 3.62034,-0.37067 4.81869,-0.37067 0.4097,0 3.02671,0.30932 3.33603,0 1.34037,-1.34038 -0.13315,-10.51183 -1.11201,-11.49077 -0.21169,-0.21168 -5.22896,0.14992 -5.56005,0.37067 -0.65827,0.43885 -1.1028,1.73286 -1.85334,1.48269 -1.4644,-0.48814 2.06164,-1.85336 -0.37068,-1.85336"
         style="fill:#e3dbdb;fill-opacity:1;stroke:#ffffff;stroke-width:2.09682536px;stroke-linecap:butt;stroke-linejoin:miter;stroke-opacity:0" />
      <path
         inkscape:connector-curvature="0"
         id="path4637"
         d="m 249.15089,501.79016 c -1.73229,8.94638 -0.84349,12.26615 8.15475,9.26673 1.65731,-0.55243 2.89347,0.44256 4.07736,-0.74133 0.38875,-0.38875 0,-3.22603 0,-3.70671 0,-1.09085 0.12161,-3.83425 -0.37066,-4.81869 -1.51366,-3.02731 -9.41906,-1.46543 -11.86145,0 z"
         style="fill:#e3dbdb;fill-opacity:1;stroke:#ffffff;stroke-width:2.09682536px;stroke-linecap:butt;stroke-linejoin:miter;stroke-opacity:0" />
      <path
         inkscape:connector-curvature="0"
         id="path4639"
         d="m 249.52157,487.70469 c -0.0306,2.48642 0.33566,4.71367 1.11201,7.04273 0.23524,0.70575 -0.18788,1.66558 0.37065,2.22402 0.75182,0.75182 5.08061,-0.89947 5.93073,-1.11201 0.64712,-0.16187 3.12955,0.57716 3.33603,0.37068 0.50407,-0.50408 -0.24307,-9.88047 -0.74134,-10.37876 -0.7117,-0.71171 -7.60327,0.002 -8.15474,0.37068 -0.65828,0.43884 -1.23555,0.98844 -1.85334,1.48266 z"
         style="fill:#e3dbdb;fill-opacity:1;stroke:#ffffff;stroke-width:2.09682536px;stroke-linecap:butt;stroke-linejoin:miter;stroke-opacity:0" />
      <path
         inkscape:connector-curvature="0"
         id="path4641"
         d="m 249.52157,469.91254 c 0.91,1.62433 -0.47493,9.95596 1.11201,10.74944 0.76639,0.38319 4.58316,-0.74135 5.93072,-0.74135 0.67449,0 2.51645,0.81958 2.59468,0.74135 0.59665,-0.59665 -0.60684,-5.12372 -0.74133,-5.93073 -0.28819,-1.72912 0.96388,-4.96683 0,-5.93072 -0.88327,-0.88324 -5.79047,-0.74133 -7.04274,-0.74133 -0.98844,0 -3.33246,-0.91776 -2.96535,0 0.26756,0.66891 0.74133,1.23555 1.11201,1.85334 z"
         style="fill:#e3dbdb;fill-opacity:1;stroke:#ffffff;stroke-width:2.09682536px;stroke-linecap:butt;stroke-linejoin:miter;stroke-opacity:0" />
      <path
         inkscape:connector-curvature="0"
         id="path4643"
         d="m 266.20171,469.54186 c -0.44027,2.02975 0.37068,4.52181 0.37068,6.3014 0,0.93257 -0.88983,2.66838 -0.37068,3.70671 0.6907,1.38141 4.59742,0.8151 5.93073,0.37066 0.91738,-0.30581 2.23615,0.35851 2.96535,-0.37066 0.35524,-0.35524 -0.99709,-3.61763 -1.11201,-4.07738 -1.40316,-5.6126 1.96086,-9.17902 -7.78407,-5.93073 z"
         style="fill:#e3dbdb;fill-opacity:1;stroke:#ffffff;stroke-width:2.09682536px;stroke-linecap:butt;stroke-linejoin:miter;stroke-opacity:0" />
      <path
         inkscape:connector-curvature="0"
         id="path4645"
         d="m 265.83103,453.60308 c 0.21786,0.99966 0.29593,9.19197 0.74136,9.6374 0.8446,0.84463 2.72052,0.24655 3.70668,0 0.96043,-0.2401 4.52363,0.66577 4.81872,0.37068 1.08657,-1.08657 -0.37399,-8.16137 -1.11201,-9.63743 -0.12351,-0.24711 -0.0944,-0.74133 -0.37068,-0.74133 -0.17215,0 -0.93667,0.65366 -1.11201,0.74133 -1.92365,0.96184 -4.69724,0.0243 -6.67206,-0.37065 z"
         style="fill:#e3dbdb;fill-opacity:1;stroke:#ffffff;stroke-width:2.09682536px;stroke-linecap:butt;stroke-linejoin:miter;stroke-opacity:0" />
      <path
         inkscape:connector-curvature="0"
         id="path4647"
         d="m 248.40956,452.86172 c 1.22188,2.96391 -1.09014,8.54729 0.74133,10.37876 0.62857,0.62855 4.40927,-1.02903 5.56005,-0.74133 0.7973,0.19941 4.48452,1.0755 5.18939,0.37066 0.27406,-0.27406 -0.74135,-3.24344 -0.74135,-3.70669 0,-3.30222 -0.88499,-7.04273 -0.74133,-7.04273 0.30045,0 -1.55717,0.81539 -3.33603,0.37068 -2.35285,-0.58823 -4.38625,-0.54367 -6.67206,0.37065 z"
         style="fill:#e3dbdb;fill-opacity:1;stroke:#ffffff;stroke-width:2.09682536px;stroke-linecap:butt;stroke-linejoin:miter;stroke-opacity:0" />
      <path
         inkscape:connector-curvature="0"
         id="path4651"
         d="m 266.20171,438.77628 c 1.69721,7.51523 -2.64714,7.78406 5.93073,7.78406 0.50189,0 2.94895,0.38708 2.96535,0.37068 0.78023,-0.78025 0.0254,-8.50009 0,-8.52542 -2.5e-4,-2.5e-4 -7.97853,0.37068 -8.89608,0.37068 z"
         style="fill:#e3dbdb;fill-opacity:1;stroke:#ffffff;stroke-width:2.09682536px;stroke-linecap:butt;stroke-linejoin:miter;stroke-opacity:0" />
      <path
         inkscape:connector-curvature="0"
         id="path4653"
         d="m 266.20171,423.20814 c 0.923,2.36642 -1.82174,7.07434 0,8.89608 0.84416,0.84416 3.71251,-0.7394 4.81872,-0.37068 0.50604,0.1688 3.17119,0.90619 3.70668,0.37068 0.0757,-0.0757 -0.37066,-3.67886 -0.37066,-4.07738 0,-5.55183 1.43899,-5.56005 -2.96537,-5.56005 -2.6234,0 -2.25063,-0.72802 -5.18937,0.74135 z"
         style="fill:#e3dbdb;fill-opacity:1;stroke:#ffffff;stroke-width:2.09682536px;stroke-linecap:butt;stroke-linejoin:miter;stroke-opacity:0" />
      <path
         inkscape:connector-curvature="0"
         id="path4655"
         d="m 249.52157,422.83747 c -1.14399,2.00624 -0.74135,4.41067 -0.74135,6.67205 0,3.70608 0.64638,3.73835 4.07738,2.5947 1.87431,-0.62477 4.63918,0 6.30138,0 0.34006,0 0.13545,-10.31101 -0.74133,-10.74944 -1.0797,-0.53985 -7.66831,0.99157 -8.89608,1.48269 z"
         style="fill:#e3dbdb;fill-opacity:1;stroke:#ffffff;stroke-width:2.09682536px;stroke-linecap:butt;stroke-linejoin:miter;stroke-opacity:0" />
      <path
         inkscape:connector-curvature="0"
         id="path4668"
         d="m 249.89223,438.4056 c 0.54756,2.17766 -0.86274,7.292 0.74135,8.89607 0.85452,0.85454 4.84587,-0.74133 5.93072,-0.74133 0.55325,0 3.66873,0.40863 4.07736,0 0.52364,-0.52366 -0.25155,-10.43831 -3.33602,-8.89607 -1.79833,0.89916 -5.56041,1.05017 -7.41341,0.74133 z"
         style="fill:#e3dbdb;fill-opacity:1;stroke:#ffffff;stroke-width:2.09682536px;stroke-linecap:butt;stroke-linejoin:miter;stroke-opacity:0" />
      <path
         inkscape:connector-curvature="0"
         id="path4670"
         d="m 249.52157,408.01067 c -0.30022,2.20735 0.45453,3.9583 1.11201,5.93072 0.14657,0.43979 -0.34086,2.25384 0,2.5947 0.72051,0.72051 4.06455,0 5.56005,0 0.91417,0 3.09548,0.24054 3.7067,-0.37068 0.8635,-0.86349 -0.5332,-3.98611 -0.74135,-4.81871 -0.24229,-0.9692 -0.0457,-4.49379 -0.74133,-5.18937 -1.61404,-1.61404 -7.80768,0.98263 -8.89608,1.85334 z"
         style="fill:#e3dbdb;fill-opacity:1;stroke:#ffffff;stroke-width:2.09682536px;stroke-linecap:butt;stroke-linejoin:miter;stroke-opacity:0" />
      <path
         inkscape:connector-curvature="0"
         id="path4672"
         d="m 266.57239,407.64001 c 1.41978,1.98767 -0.66507,5.71259 0.37065,7.78407 0.12518,0.25017 8.39387,0.87288 8.52542,0.74133 0.38957,-0.38957 0,-3.61197 0,-4.07736 0,-0.99107 0.689,-5.98306 0,-6.67206 -0.29642,-0.29643 -5.64207,0.20591 -6.3014,0.37066 -0.79033,0.19752 -2.4116,1.70688 -2.59467,1.85336 z"
         style="fill:#e3dbdb;fill-opacity:1;stroke:#ffffff;stroke-width:2.09682536px;stroke-linecap:butt;stroke-linejoin:miter;stroke-opacity:0" />
      <path
         inkscape:connector-curvature="0"
         id="path4676"
         d="m 266.57239,379.4691 c 0.68289,2.18711 -0.929,7.59642 0.74133,9.26673 0.59732,0.59732 8.00285,0.15181 8.5254,-0.37066 0.57944,-0.57943 -0.23419,-3.53149 -0.37066,-4.07738 -1.65947,-6.63783 -1.81321,-8.36015 -8.89607,-4.81869 z"
         style="fill:#e3dbdb;fill-opacity:1;stroke:#ffffff;stroke-width:2.09682536px;stroke-linecap:butt;stroke-linejoin:miter;stroke-opacity:0" />
      <path
         inkscape:connector-curvature="0"
         id="path4689"
         d="m 266.57239,392.81321 c 1.15623,1.96961 -2.29865,7.33877 -0.74136,8.89608 0.5469,0.54687 3.48258,-0.59265 4.07739,-0.74134 1.4912,-0.37281 4.25896,0.55973 5.18937,-0.37067 0.16732,-0.16733 -0.95884,-8.00155 -1.48269,-8.52542 -0.13629,-0.1363 -4.74224,1.66154 -7.04271,0.74135 z"
         style="fill:#e3dbdb;fill-opacity:1;stroke:#ffffff;stroke-width:2.09682536px;stroke-linecap:butt;stroke-linejoin:miter;stroke-opacity:0" />
      <path
         inkscape:connector-curvature="0"
         id="path4691"
         d="m 250.63358,392.44253 c -0.32547,0.75272 -2.28741,6.238 -1.48269,7.04274 0.18872,0.18871 1.99285,0 2.22402,0 0.63786,0 8.13759,0.38783 8.15474,0.37068 0.0698,-0.0698 -1.49843,-8.91183 -1.85334,-9.26676 -0.21452,-0.21452 -1.31687,0.37066 -1.85336,0.37066 -0.81009,0 -2.68358,-0.37282 -3.33603,0 -0.6869,0.39252 -1.23555,0.98846 -1.85334,1.48268 z"
         style="fill:#e3dbdb;fill-opacity:1;stroke:#ffffff;stroke-width:2.09682536px;stroke-linecap:butt;stroke-linejoin:miter;stroke-opacity:0" />
      <path
         inkscape:connector-curvature="0"
         id="path4693"
         d="m 249.89223,378.72774 c -0.30017,2.56463 -1.20958,8.79852 0.37067,10.37877 0.37873,0.37873 4.28998,-0.93575 4.81872,-1.11201 1.45563,-0.48521 3.87971,0.56832 4.81871,-0.37068 0.59472,-0.59472 -0.37068,-2.75814 -0.37068,-3.33603 0,-1.0156 -0.0788,-5.26808 -0.74133,-5.9307 -1.07468,-1.07467 -7.77639,-0.0772 -8.89609,0.37065 z"
         style="fill:#e3dbdb;fill-opacity:1;stroke:#ffffff;stroke-width:2.09682536px;stroke-linecap:butt;stroke-linejoin:miter;stroke-opacity:0" />
      <path
         inkscape:connector-curvature="0"
         id="path4695"
         d="m 249.52157,363.53029 c -0.021,2.14 -0.13336,4.2849 0.37066,6.30138 0.18326,0.73341 -0.53388,3.54351 0,4.07738 0.39701,0.39699 1.87623,-0.62542 2.22401,-0.74135 1.14034,-0.38009 5.49383,0.43689 6.30141,-0.37066 1.27652,-1.27655 0.58862,-9.04879 -0.74134,-10.37876 -0.60082,-0.60082 -5.82477,1.57801 -8.15474,1.11201 z"
         style="fill:#e3dbdb;fill-opacity:1;stroke:#ffffff;stroke-width:2.09682536px;stroke-linecap:butt;stroke-linejoin:miter;stroke-opacity:0" />
      <path
         inkscape:connector-curvature="0"
         id="path4697"
         d="m 266.94304,362.78896 c -0.2798,1.27692 -0.70073,9.678 0,10.37874 0.79015,0.79014 4.85814,-0.39037 5.56005,-0.74134 0.62509,-0.31253 2.49023,0.47515 2.96537,0 0.36896,-0.36895 -0.62938,-4.00021 -0.74135,-4.44803 -0.30809,-1.23235 0.12812,-5.06119 -0.74133,-5.93073 -0.27613,-0.27613 -1.86691,0.1191 -2.22402,0 -2.18789,-0.72929 -2.57446,-0.6052 -4.81872,0.74136 z"
         style="fill:#e3dbdb;fill-opacity:1;stroke:#ffffff;stroke-width:2.09682536px;stroke-linecap:butt;stroke-linejoin:miter;stroke-opacity:0" />
      <path
         inkscape:connector-curvature="0"
         id="path4699"
         d="m 267.31372,349.07417 c -0.23977,1.21628 -0.97991,6.36743 0.37068,7.04273 1.09024,0.54511 6.45927,0.95412 7.41339,0 0.4764,-0.47642 -0.37068,-2.35975 -0.37068,-2.96537 0,-0.63282 0.42515,-3.65221 0,-4.07736 -1.02755,-1.02757 -5.81376,-0.31994 -7.41339,0 z"
         style="fill:#e3dbdb;fill-opacity:1;stroke:#ffffff;stroke-width:2.09682536px;stroke-linecap:butt;stroke-linejoin:miter;stroke-opacity:0" />
      <path
         inkscape:connector-curvature="0"
         id="path4701"
         d="m 266.94304,335.73005 c 0.21422,1.74756 -0.44788,8.07752 0.37068,8.89608 0.60051,0.60051 3.42103,-0.37068 4.07736,-0.37068 0.93951,0 3.08112,0.25493 3.70671,-0.37067 0.79008,-0.79007 0.30613,-3.22345 0,-4.44804 -0.24565,-0.9826 0.36747,-4.8219 -0.37068,-5.56005 -0.48216,-0.48216 -1.84454,0.37068 -2.22402,0.37068 -2.64087,0 -3.17417,0.0512 -5.56005,1.48268 z"
         style="fill:#e3dbdb;fill-opacity:1;stroke:#ffffff;stroke-width:2.09682536px;stroke-linecap:butt;stroke-linejoin:miter;stroke-opacity:0" />
      <path
         inkscape:connector-curvature="0"
         id="path4707"
         d="m 251.37491,336.47139 c -1.17883,5.61234 -2.31181,9.296 4.44804,7.04273 0.88056,-0.29351 3.04753,0.2885 3.7067,-0.37068 0.87495,-0.87494 0.37068,-5.42801 0.37068,-6.67205 0,-0.3482 0.27519,-2.69017 0,-2.96536 -0.41708,-0.41705 -5.0467,0.37066 -5.93072,0.37066 -0.31342,0 -1.28982,-0.19291 -1.48269,0 -0.17466,0.17467 0,0.49424 0,0.74135"
         style="fill:#e3dbdb;fill-opacity:1;stroke:#ffffff;stroke-width:2.09682536px;stroke-linecap:butt;stroke-linejoin:miter;stroke-opacity:0" />
      <path
         inkscape:connector-curvature="0"
         id="path4709"
         d="m 251.74559,347.59148 c -0.7739,1.51993 -0.74136,1.64165 -0.74136,2.96537 0,1.22405 -0.39,3.27799 0,4.44804 0.11177,0.33512 0.55726,2.03992 0.74136,2.22402 0.27405,0.27403 3.08195,-1.02732 3.33603,-1.11201 0.92195,-0.30733 2.97443,0.36158 3.7067,-0.37068 0.6998,-0.69981 0.37066,-3.80343 0.37066,-4.81871 0,-0.30301 0.26198,-2.3327 0,-2.5947 -0.51255,-0.51255 -5.73799,-0.0711 -7.41339,-0.74133 z"
         style="fill:#e3dbdb;fill-opacity:1;stroke:#ffffff;stroke-width:2.09682536px;stroke-linecap:butt;stroke-linejoin:miter;stroke-opacity:0" />
      <path
         inkscape:connector-curvature="0"
         id="path4713"
         d="m 300.30335,319.04991 c 0.27812,1.55203 -0.52714,9.11029 0.37065,10.00809 0.44092,0.44092 3.97152,-1.11201 4.81872,-1.11201 0.55327,0 3.66873,0.40861 4.07736,0 0.80262,-0.80263 -0.37066,-5.07449 -0.37066,-5.93073 0,-0.47466 0.32776,-4.07736 -0.37067,-4.07736 -1.82713,0 -6.2416,1.11201 -8.5254,1.11201 z"
         style="fill:#e3dbdb;fill-opacity:1;stroke:#ffffff;stroke-width:2.09682536px;stroke-linecap:butt;stroke-linejoin:miter;stroke-opacity:0" />
      <path
         inkscape:connector-curvature="0"
         id="path4726"
         d="m 283.25253,318.67923 c 0.71755,1.77591 -2.41236,7.59573 -0.74135,9.26676 1.30049,1.30047 6.9528,0.23029 8.15474,-0.37068 0.83101,-0.41551 1.84114,0.75356 2.22402,0.37068 0.24449,-0.24449 -0.37068,-3.48725 -0.37068,-4.07738 0,-8.27926 -1.50156,-5.18938 -9.26673,-5.18938 z"
         style="fill:#e3dbdb;fill-opacity:1;stroke:#ffffff;stroke-width:2.09682536px;stroke-linecap:butt;stroke-linejoin:miter;stroke-opacity:0" />
      <path
         inkscape:connector-curvature="0"
         id="path4739"
         d="m 266.94304,320.16192 c -0.94963,2.49132 -0.37065,4.66575 -0.37065,7.04271 0,0.63004 -0.81617,1.40788 -0.37068,1.85337 0.022,0.022 2.84044,-0.74136 3.33603,-0.74136 0.78914,0 4.6391,0.55029 5.18937,0 0.49424,-0.49422 0.98846,-0.98844 1.48269,-1.48266 0.48856,-0.48856 -1.18091,-5.3272 -1.48269,-5.93073 -0.28542,-0.57086 -0.0851,-1.65315 -0.37066,-2.22402 -0.17466,-0.34947 -0.7614,-1.112 -0.37067,-1.112 0.61779,0 -0.8649,1.112 -1.48269,1.112 -1.90343,0 -3.72174,0.74736 -5.56005,1.48269 z"
         style="fill:#e3dbdb;fill-opacity:1;stroke:#ffffff;stroke-width:2.09682536px;stroke-linecap:butt;stroke-linejoin:miter;stroke-opacity:0" />
      <path
         inkscape:connector-curvature="0"
         id="path4754"
         d="m 251.00423,319.04991 c 0.55734,2.94443 -0.74133,5.74235 -0.74133,8.5254 0,1.4726 7.13084,1.76525 8.15475,0.74133 0.66452,-0.66452 0.0658,-9.94235 -0.74134,-10.74941 -0.41559,-0.4156 -5.95645,1.33955 -6.67208,1.48268 z"
         style="fill:#e3dbdb;fill-opacity:1;stroke:#ffffff;stroke-width:2.09682536px;stroke-linecap:butt;stroke-linejoin:miter;stroke-opacity:0" />
      <path
         inkscape:connector-curvature="0"
         id="path4767"
         d="m 250.63358,304.59377 c -0.35885,6.78438 -1.59187,10.16805 6.67206,7.41341 0.45582,-0.15202 2.25576,0.33891 2.59469,0 0.55696,-0.55698 -0.37068,-2.83392 -0.37068,-3.33603 0,-2.6438 -0.29468,-7.1187 -2.96535,-4.44804 -0.42213,0.42213 -5.31469,0.24747 -5.93072,0.37066 z"
         style="fill:#e3dbdb;fill-opacity:1;stroke:#ffffff;stroke-width:2.09682536px;stroke-linecap:butt;stroke-linejoin:miter;stroke-opacity:0" />
      <path
         inkscape:connector-curvature="0"
         id="path4769"
         d="m 266.20171,304.59377 c 0.38433,1.89937 -0.36424,6.48995 1.48269,7.41341 2.64426,1.32213 8.5254,-1.89314 8.5254,-0.74133 0,0.17466 -0.29253,-0.2144 -0.37068,-0.37068 -0.57919,-1.15837 -1.46717,-5.91523 -1.85334,-6.3014 -0.63117,-0.63117 -5.49624,0.91514 -7.78407,0 z"
         style="fill:#e3dbdb;fill-opacity:1;stroke:#ffffff;stroke-width:2.09682536px;stroke-linecap:butt;stroke-linejoin:miter;stroke-opacity:0" />
      <path
         inkscape:connector-curvature="0"
         id="path4784"
         d="m 283.25253,304.22311 c 0.17823,2.25575 -2.02587,7.61154 -0.74135,8.89608 0.0455,0.0455 9.81859,-0.55184 10.00808,-0.74134 0.809,-0.80899 -0.0323,-2.2886 -0.37065,-2.96537 -0.9706,-1.94118 0.10609,-4.71257 -1.11201,-5.93072 -0.52488,-0.52488 -2.18024,0.37068 -2.5947,0.37068 -2.21158,0 -2.96946,-0.51729 -5.18937,0.37067 z"
         style="fill:#e3dbdb;fill-opacity:1;stroke:#ffffff;stroke-width:2.09682536px;stroke-linecap:butt;stroke-linejoin:miter;stroke-opacity:0" />
      <path
         inkscape:connector-curvature="0"
         id="path4786"
         d="m 301.41536,305.70578 c -0.3217,1.14358 -1.14841,6.63567 -0.37068,7.41341 0.21836,0.21836 7.92973,-0.51635 8.15474,-0.74134 0.52289,-0.52288 -0.37067,-2.82348 -0.37067,-3.33602 0,-1.31549 -0.20549,-5.39488 -0.74134,-5.93073 -0.27652,-0.27653 -2.46169,0.86016 -2.96537,1.11201 -1.4349,0.71745 -2.1032,0.28005 -3.70668,1.48267 z"
         style="fill:#e3dbdb;fill-opacity:1;stroke:#ffffff;stroke-width:2.09682536px;stroke-linecap:butt;stroke-linejoin:miter;stroke-opacity:0" />
      <path
         inkscape:connector-curvature="0"
         id="path4825"
         d="m 680.9813,303.1111 c -1.22434,2.32014 -0.74134,5.193 -0.74134,7.78407 0,0.98844 0,1.97691 0,2.96535 0,0.24711 -0.24711,0.74135 0,0.74135 1.39655,0 3.82994,-0.74135 5.93073,-0.74135 0.54832,0 3.67963,0.39773 4.07736,0 0.67165,-0.67165 -0.60441,-4.50467 -0.74133,-5.18937 -0.40781,-2.03897 0.0411,-5.14825 -1.48269,-6.67206 -0.27619,-0.27619 -0.35977,0.37066 -0.74133,0.37066 -0.61779,0 -1.23558,0 -1.85337,0 -2.36127,0 -1.84963,-0.8177 -4.44803,0.74135 z"
         style="fill:#e3dbdb;fill-opacity:1;stroke:#ffffff;stroke-width:2.09682536px;stroke-linecap:butt;stroke-linejoin:miter;stroke-opacity:0" />
      <path
         inkscape:connector-curvature="0"
         id="path4827"
         d="m 679.86929,319.42057 c 1.83816,2.41567 -1.59099,6.93441 0,8.52542 0.54769,0.54767 8.58132,0.31475 8.89607,0 0.45743,-0.45743 0.59416,-9.78461 0,-10.37876 -0.64309,-0.6431 -3.40482,0.37067 -4.07736,0.37067 -1.71944,0 -3.34578,0.59892 -4.81871,1.48267 z"
         style="fill:#e3dbdb;fill-opacity:1;stroke:#ffffff;stroke-width:2.09682536px;stroke-linecap:butt;stroke-linejoin:miter;stroke-opacity:0" />
      <path
         inkscape:connector-curvature="0"
         id="path4829"
         d="m 697.66144,319.42057 c -0.3447,4.2858 -3.21731,8.52542 1.48269,8.52542 1.21454,0 2.33039,0.1321 3.33602,-0.37068 0.46797,-0.23398 1.86819,0.35583 2.22402,0 1.14191,-1.14191 1.0701,-8.56731 0,-9.63741 -1.1495,-1.1495 -6.36225,1.07439 -7.04273,1.48267 z"
         style="fill:#e3dbdb;fill-opacity:1;stroke:#ffffff;stroke-width:2.09682536px;stroke-linecap:butt;stroke-linejoin:miter;stroke-opacity:0" />
      <path
         inkscape:connector-curvature="0"
         id="path4831"
         d="m 697.66144,303.1111 c -0.28762,2.56473 -2.62212,9.23931 -0.74133,11.1201 0.15684,0.15684 3.9003,-1.11201 4.44803,-1.11201 0.47548,0 3.36069,0.34602 3.70671,0 0.53243,-0.53245 -1.44113,-8.1963 0.37065,-10.00809 0.49513,-0.49512 -3.87287,0.78222 -7.78406,0 z"
         style="fill:#e3dbdb;fill-opacity:1;stroke:#ffffff;stroke-width:2.09682536px;stroke-linecap:butt;stroke-linejoin:miter;stroke-opacity:0" />
      <path
         inkscape:connector-curvature="0"
         id="path4833"
         d="m 712.85892,304.22311 c -0.39324,1.74014 0,2.45088 0,4.07736 0,4.83501 1.74596,5.67957 6.67205,4.44804 0.78453,-0.19605 1.86978,-0.74133 2.59468,-0.74133 0.49424,0 1.48268,0.49422 1.48268,0 0,-1.17118 -1.42825,-3.54345 -1.85334,-4.81872 -0.25103,-0.75311 0.18872,-2.7767 -0.37068,-3.33602 -1.1171,-1.11711 -6.66589,0.37067 -8.52539,0.37067 z"
         style="fill:#e3dbdb;fill-opacity:1;stroke:#ffffff;stroke-width:2.09682536px;stroke-linecap:butt;stroke-linejoin:miter;stroke-opacity:0" />
      <path
         inkscape:connector-curvature="0"
         id="path4835"
         d="m 730.28039,303.85244 c 0.0797,5.15045 -1.88477,12.43316 5.93072,8.52541 0.54662,-0.27332 2.17915,0.41555 2.5947,0 0.26074,-0.26074 -0.63205,-3.26945 -0.74135,-3.7067 -0.37454,-1.49814 -0.65281,-2.69979 -1.11201,-4.07738 -0.13672,-0.41008 0.45754,-1.76647 0.37067,-1.85334 -0.0285,-0.0285 -6.0953,1.11201 -7.04273,1.11201 z"
         style="fill:#e3dbdb;fill-opacity:1;stroke:#ffffff;stroke-width:2.09682536px;stroke-linecap:butt;stroke-linejoin:miter;stroke-opacity:0" />
      <path
         inkscape:connector-curvature="0"
         id="path4837"
         d="m 712.85892,319.04991 c -0.61752,2.31708 1.13434,4.75172 0.37065,7.04271 -0.30341,0.91028 -0.7745,2.56153 0,3.33603 0.75387,0.75387 8.87117,0.39559 9.63743,-0.37065 0.81357,-0.81357 0.37066,-4.77041 0.37066,-5.93073 0,-1.07909 0.40001,-3.50671 -0.74134,-4.07736 -0.20779,-0.104 -1.0685,0.60328 -1.48268,0.74133 -2.19643,0.73215 -5.98036,-0.30647 -8.15472,-0.74133 z"
         style="fill:#e3dbdb;fill-opacity:1;stroke:#ffffff;stroke-width:2.09682536px;stroke-linecap:butt;stroke-linejoin:miter;stroke-opacity:0" />
      <path
         inkscape:connector-curvature="0"
         id="path4839"
         d="m 730.28039,320.16192 c 0.72114,1.64532 -1.37281,6.15043 -0.74133,7.41339 0.14573,0.2915 0.57092,1.31226 0.74133,1.48269 0.13063,0.13063 8.45675,-1.04336 8.52542,-1.11201 0.50806,-0.50806 -0.25613,-2.9924 -0.37068,-3.33603 -0.31769,-0.95305 0.67029,-3.77775 0,-4.44804 -1.11423,-1.11423 -6.55769,-0.31941 -8.15474,0 z"
         style="fill:#e3dbdb;fill-opacity:1;stroke:#ffffff;stroke-width:2.09682536px;stroke-linecap:butt;stroke-linejoin:miter;stroke-opacity:0" />
      <path
         inkscape:connector-curvature="0"
         id="path4841"
         d="m 712.48824,335.35938 c -0.0363,1.35847 -1.08331,6.33008 0,7.41339 0.17991,0.1799 11.10669,0.0126 11.49077,-0.37066 0.36093,-0.36095 -0.63544,-0.90023 -0.74135,-1.11201 -0.42419,-0.84838 -0.37066,-2.33775 -0.37066,-3.33603 0,-0.67304 -0.6275,-1.71036 -0.37068,-2.22402 0.27066,-0.54129 0.78438,-2.18097 0.74134,-2.22402 -0.41803,-0.41804 -0.83341,0.37066 -1.11201,0.37066 -2.6839,0 -7.51819,0.21115 -9.63741,1.48269 z"
         style="fill:#e3dbdb;fill-opacity:1;stroke:#ffffff;stroke-width:2.09682536px;stroke-linecap:butt;stroke-linejoin:miter;stroke-opacity:0" />
      <path
         inkscape:connector-curvature="0"
         id="path4843"
         d="m 712.11756,348.33281 c -0.60403,1.49292 0.37068,2.45367 0.37068,3.70671 0,1.41743 -0.63645,6.03561 -0.37068,6.3014 0.6219,0.6219 10.60346,0.14594 11.1201,-0.37068 0.82432,-0.8243 -0.75356,-9.82887 -1.11201,-10.00808 -2.37833,-1.18918 -7.53566,0.37065 -10.00809,0.37065 z"
         style="fill:#e3dbdb;fill-opacity:1;stroke:#ffffff;stroke-width:2.09682536px;stroke-linecap:butt;stroke-linejoin:miter;stroke-opacity:0" />
      <path
         inkscape:connector-curvature="0"
         id="path4845"
         d="m 730.65107,336.10071 c -1.24715,7.1944 0.54974,9.33062 7.41339,7.04273 0.37552,-0.12518 1.58876,0.2646 1.85336,0 0.45507,-0.45509 -0.58623,-2.5 -0.74135,-2.96535 -1.17905,-3.53713 1.0673,-6.28649 -3.33603,-4.81871 -1.73292,0.57763 -3.30512,-0.0126 -5.18937,0.74133 z"
         style="fill:#e3dbdb;fill-opacity:1;stroke:#ffffff;stroke-width:2.09682536px;stroke-linecap:butt;stroke-linejoin:miter;stroke-opacity:0" />
      <path
         inkscape:connector-curvature="0"
         id="path4847"
         d="m 730.65107,348.33281 c 0.47832,2.50781 -1.37684,8.39301 1.11201,9.63743 1.04887,0.52444 2.70379,-0.37067 3.7067,-0.37067 0.51733,0 3.77305,-0.0665 4.07736,-0.37066 0.59064,-0.59066 -0.37067,-3.07936 -0.37067,-3.70671 0,-1.55397 -0.37066,-3.16308 -0.37066,-4.81871 0,-0.37068 0.37066,-1.11201 0,-1.11201 -2.22259,0 -5.07117,-0.49208 -8.15474,0.74133 z"
         style="fill:#e3dbdb;fill-opacity:1;stroke:#ffffff;stroke-width:2.09682536px;stroke-linecap:butt;stroke-linejoin:miter;stroke-opacity:0" />
      <path
         inkscape:connector-curvature="0"
         id="path4849"
         d="m 731.02174,363.53029 c -0.99597,3.22878 0,6.53042 0,9.63741 0,0.34662 -0.73741,1.11595 -0.37067,1.48268 0.69633,0.69634 4.37538,-0.37067 5.18937,-0.37067 0.82596,0 3.88703,0.19039 4.44803,-0.37066 0.2762,-0.27619 -0.37065,-0.35977 -0.37065,-0.74135 0,-0.98845 0,-1.97691 0,-2.96535 0,-10.28059 -0.76912,-6.67206 -8.89608,-6.67206 z"
         style="fill:#e3dbdb;fill-opacity:1;stroke:#ffffff;stroke-width:2.09682536px;stroke-linecap:butt;stroke-linejoin:miter;stroke-opacity:0" />
      <path
         inkscape:connector-curvature="0"
         id="path4851"
         d="m 712.11756,363.15961 c -0.20842,1.31104 -0.91356,10.20653 -0.37065,10.74944 0.7018,0.70181 5.56711,-0.74135 6.67205,-0.74135 0.65704,0 4.33284,0.48585 4.8187,0 0.64492,-0.6449 -0.2148,-4.19529 -0.37066,-4.8187 -0.28873,-1.15489 0.49529,-5.06475 -0.37068,-5.93072 -0.43312,-0.43312 -1.49732,0.37068 -1.85334,0.37068 -2.01366,0 -4.78047,-0.74136 -6.67206,-0.74136 -0.72044,0 -1.18443,0.84446 -1.85336,1.11201 z"
         style="fill:#e3dbdb;fill-opacity:1;stroke:#ffffff;stroke-width:2.09682536px;stroke-linecap:butt;stroke-linejoin:miter;stroke-opacity:0" />
      <path
         inkscape:connector-curvature="0"
         id="path4853"
         d="m 713.60025,379.4691 c -0.0719,1.7108 -1.36862,6.7861 0,8.15472 0.72925,0.72926 4.12521,-0.93862 4.81871,-1.11201 1.23073,-0.30767 3.77385,-0.0671 4.44804,-0.74133 0.59793,-0.59793 -0.19521,-7.23799 -0.74135,-7.78407 -0.71485,-0.71485 -6.79974,-0.88205 -7.41339,-0.37067 -0.55346,0.46123 -0.74134,1.23557 -1.11201,1.85336 z"
         style="fill:#e3dbdb;fill-opacity:1;stroke:#ffffff;stroke-width:2.09682536px;stroke-linecap:butt;stroke-linejoin:miter;stroke-opacity:0" />
      <path
         inkscape:connector-curvature="0"
         id="path4855"
         d="m 732.13375,379.4691 c 0.44377,2.29596 -1.88624,10.63682 2.22402,9.26673 0.87333,-0.2911 1.9914,-0.74133 2.96535,-0.74133 0.45126,0 3.15939,0.54731 3.33603,0.37067 0.37682,-0.37682 -0.99553,-4.86121 -1.11201,-5.56004 -0.2357,-1.41423 0.37068,-2.95495 0.37068,-4.07739 0,-0.63001 -1.22333,0.37068 -1.85336,0.37068 -2.03824,0 -3.92214,-0.031 -5.93071,0.37068 z"
         style="fill:#e3dbdb;fill-opacity:1;stroke:#ffffff;stroke-width:2.09682536px;stroke-linecap:butt;stroke-linejoin:miter;stroke-opacity:0" />
      <path
         inkscape:connector-curvature="0"
         id="path4857"
         d="m 712.11756,393.18389 c 1.90012,10.98428 -2.03994,8.15472 7.04274,8.15472 0.51252,0 4.0133,0.43474 4.44803,0 0.65973,-0.65972 -1.38623,-8.84785 -1.48268,-8.89608 -0.40278,-0.20129 -3.25126,0.9055 -4.07736,1.11201 -1.67407,0.41853 -4.32053,-0.0486 -5.93073,-0.37065 z"
         style="fill:#e3dbdb;fill-opacity:1;stroke:#ffffff;stroke-width:2.09682536px;stroke-linecap:butt;stroke-linejoin:miter;stroke-opacity:0" />
      <path
         inkscape:connector-curvature="0"
         id="path4859"
         d="m 731.3924,392.81321 c -1.2906,1.86821 -0.37066,3.52693 -0.37066,5.56005 0,5.03156 2.08498,1.85334 5.56005,1.85334 0.74538,0 3.10911,0.5976 3.33603,0.37068 0.77335,-0.77335 -1.05722,-7.3586 -1.48269,-7.78407 -0.86668,-0.86668 -5.34466,0.3396 -7.04273,0 z"
         style="fill:#e3dbdb;fill-opacity:1;stroke:#ffffff;stroke-width:2.09682536px;stroke-linecap:butt;stroke-linejoin:miter;stroke-opacity:0" />
      <path
         inkscape:connector-curvature="0"
         id="path4861"
         d="m 731.02174,407.26933 c 0,1.35912 0,2.71825 0,4.07737 0,1.0011 -0.32622,3.00982 0.37066,3.7067 1.33083,1.33083 4.50559,0.37068 6.67206,0.37068 0.98846,0 2.96537,-0.98847 2.96537,0 0,0.27628 -0.54599,-0.1753 -0.74136,-0.37068 -1.63451,-1.63454 0.72265,-7.06142 -0.74133,-8.5254 -1.77416,-1.77416 -6.83691,-0.27177 -8.5254,0.74133 z"
         style="fill:#e3dbdb;fill-opacity:1;stroke:#ffffff;stroke-width:2.09682536px;stroke-linecap:butt;stroke-linejoin:miter;stroke-opacity:0" />
      <path
         inkscape:connector-curvature="0"
         id="path4863"
         d="m 712.48824,406.528 c 0.4843,1.88889 -2.37537,8.37405 -0.74133,10.00809 0.6125,0.6125 3.55168,-0.56612 4.07736,-0.74136 1.15266,-0.38422 2.50258,0.0306 3.7067,-0.37065 0.53174,-0.17718 2.92449,0.41152 2.96535,0.37065 0.42042,-0.42041 0,-3.50511 0,-4.07736 0,-7.10566 -0.0948,-4.23248 -4.07736,-5.56004 -2.46976,-0.82326 -3.3511,-0.66118 -5.93072,0.37067 z"
         style="fill:#e3dbdb;fill-opacity:1;stroke:#ffffff;stroke-width:2.09682536px;stroke-linecap:butt;stroke-linejoin:miter;stroke-opacity:0" />
      <path
         inkscape:connector-curvature="0"
         id="path4865"
         d="m 713.60025,422.46679 c 0.37808,0.57394 -0.75041,10.3697 -0.74133,10.37876 0.0629,0.0629 1.01509,0.0323 1.112,0 3.15852,-1.05284 5.82555,-1.11201 8.89608,-1.11201 0.88549,0 -0.0864,-9.35308 -0.74135,-10.00808 -1.39752,-1.39752 -6.92408,-0.0593 -8.5254,0.74133 z"
         style="fill:#e3dbdb;fill-opacity:1;stroke:#ffffff;stroke-width:2.09682536px;stroke-linecap:butt;stroke-linejoin:miter;stroke-opacity:0" />
      <path
         inkscape:connector-curvature="0"
         id="path4867"
         d="m 731.3924,421.72546 c -0.55054,1.67672 -0.37066,3.44823 -0.37066,5.18937 0,0.75586 -0.99693,4.19245 -0.37067,4.81871 0.46281,0.46281 2.55684,0.20423 2.96535,0 0.95147,-0.47573 4.66332,-0.06 5.18939,-1.11201 0.68321,-1.36644 0.93049,-9.63741 -0.74135,-9.63741 -2.65412,0 -3.35163,1.84815 -6.67206,0.74134 z"
         style="fill:#e3dbdb;fill-opacity:1;stroke:#ffffff;stroke-width:2.09682536px;stroke-linecap:butt;stroke-linejoin:miter;stroke-opacity:0" />
      <path
         inkscape:connector-curvature="0"
         id="path4882"
         d="m 713.22957,439.14695 c 0.34914,1.30106 -1.56725,6.95815 -0.37065,8.15472 0.23364,0.23367 9.14245,-0.98771 9.6374,-1.48266 0.4573,-0.4573 -0.62479,-3.49461 -0.74133,-4.07738 -0.11281,-0.56455 0.48038,-4.33831 0.37066,-4.44804 -0.86415,-0.86414 -7.30891,0.90105 -8.89608,1.85336 z"
         style="fill:#e3dbdb;fill-opacity:1;stroke:#ffffff;stroke-width:2.09682536px;stroke-linecap:butt;stroke-linejoin:miter;stroke-opacity:0" />
      <path
         inkscape:connector-curvature="0"
         id="path4884"
         d="m 728.79772,438.77628 c 1.15726,2.71411 -0.71845,7.43628 1.11201,9.26675 0.29006,0.29005 2.55088,-0.63773 2.96536,-0.74136 0.99165,-0.2479 4.83777,-0.0189 5.56004,-0.74133 1.21207,-1.21207 0.93707,-8.89607 -1.11201,-8.89607 -1.61239,0 -3.12326,0.37067 -4.81871,0.37067 -1.5241,0 -2.08932,0.41786 -3.70669,0.74134 z"
         style="fill:#e3dbdb;fill-opacity:1;stroke:#ffffff;stroke-width:2.09682536px;stroke-linecap:butt;stroke-linejoin:miter;stroke-opacity:0" />
      <path
         inkscape:connector-curvature="0"
         id="path4886"
         d="m 730.28039,453.60308 c 0,1.9769 0,3.95379 0,5.9307 0,0.8278 -0.18746,2.77791 0.37068,3.33603 0.73487,0.73487 3.2433,-0.58686 3.7067,-0.74134 0.61427,-0.20465 4.07736,-0.26157 4.07736,-0.74133 0,-0.64442 0.47563,-7.6791 -0.74133,-8.89607 -0.89409,-0.89409 -6.61576,0.79293 -7.41341,1.11201 z"
         style="fill:#e3dbdb;fill-opacity:1;stroke:#ffffff;stroke-width:2.09682536px;stroke-linecap:butt;stroke-linejoin:miter;stroke-opacity:0" />
      <path
         inkscape:connector-curvature="0"
         id="path4888"
         d="m 713.22957,452.86172 c -0.0147,1.25197 -0.0742,2.5211 -0.37065,3.70671 -1.61221,6.44883 -0.50679,5.18937 4.44803,5.18937 0.73683,0 3.92176,0.15558 4.44804,-0.37066 0.66421,-0.66423 0.37066,-6.20396 0.37066,-7.04273 0,-0.36676 0.7533,-2.58272 0.37067,-2.96535 -0.17236,-0.17236 -2.30674,0.96802 -2.59469,1.11201 -1.39955,0.69977 -5.16981,0.37065 -6.67206,0.37065 z"
         style="fill:#e3dbdb;fill-opacity:1;stroke:#ffffff;stroke-width:2.09682536px;stroke-linecap:butt;stroke-linejoin:miter;stroke-opacity:0" />
      <path
         inkscape:connector-curvature="0"
         id="path4890"
         d="m 713.60025,469.54186 c 0.0405,1.45975 -0.74133,2.69172 -0.74133,4.07739 0,0.80398 -1.10702,4.08235 -0.37068,4.81871 0.9173,0.9173 9.0205,0.4925 9.26675,0 0.19668,-0.39355 0.0535,-10.35209 0,-10.37876 -0.45715,-0.22858 -1.38774,0.64641 -1.48269,0.74133 -0.0352,0.0352 -6.33578,0.60684 -6.67205,0.74133 z"
         style="fill:#e3dbdb;fill-opacity:1;stroke:#ffffff;stroke-width:2.09682536px;stroke-linecap:butt;stroke-linejoin:miter;stroke-opacity:0" />
      <path
         inkscape:connector-curvature="0"
         id="path4892"
         d="m 730.65107,469.54186 c -1.51647,7.64134 -2.05382,11.31049 6.30138,8.52542 0.62795,-0.20926 2.88871,0.0768 3.33602,-0.37067 0.0224,-0.0224 -0.65626,-0.57118 -1.112,-1.48269 -0.69131,-1.38263 -0.74134,-5.05809 -0.74134,-6.30138 0,-0.68466 -7.09079,-0.25512 -7.78406,-0.37068 z"
         style="fill:#e3dbdb;fill-opacity:1;stroke:#ffffff;stroke-width:2.09682536px;stroke-linecap:butt;stroke-linejoin:miter;stroke-opacity:0" />
      <path
         inkscape:connector-curvature="0"
         id="path4907"
         d="m 730.28039,487.33404 c 0.67759,2.47184 -0.74133,4.8899 -0.74133,7.04271 0,1.11201 2.22402,0 3.33603,0 0.84531,0 6.01887,0.28252 6.67205,-0.37066 0.2762,-0.27619 -0.37067,-0.35977 -0.37067,-0.74135 0,-0.74133 0,-1.48267 0,-2.22402 0,-0.62597 0.0417,-4.40633 -0.37066,-4.81869 -0.46535,-0.46535 -1.05424,0.31288 -1.11201,0.37065 -0.92917,0.92917 -5.96803,0.45227 -7.41341,0.74136 z"
         style="fill:#e3dbdb;fill-opacity:1;stroke:#ffffff;stroke-width:2.09682536px;stroke-linecap:butt;stroke-linejoin:miter;stroke-opacity:0" />
      <path
         inkscape:connector-curvature="0"
         id="path4926"
         d="m 713.22957,501.0488 c 0.89308,1.02116 -0.98198,8.65545 -0.74133,8.89608 0.79233,0.79233 8.52517,0.37091 9.26675,-0.37066 1.27906,-1.27908 0.77872,-10.17474 -0.37068,-10.74943 -0.52513,-0.26257 -1.33452,0.48193 -1.85334,0.74135 -0.94328,0.47164 -3.37004,0 -4.44804,0"
         style="fill:#e3dbdb;fill-opacity:1;stroke:#ffffff;stroke-width:2.09682536px;stroke-linecap:butt;stroke-linejoin:miter;stroke-opacity:0" />
      <path
         inkscape:connector-curvature="0"
         id="path4939"
         d="m 730.65107,502.16081 c -0.0868,1.46063 -0.37068,2.59864 -0.37068,4.07739 0,0.83957 -1.46906,4.09097 -0.74133,4.81869 0.71399,0.71401 2.39975,-0.67635 3.7067,-1.11201 1.16343,-0.38781 5.36936,0.0105 5.93071,-1.11201 0.83199,-1.664 -0.0147,-7.05754 -0.74134,-7.78407 -0.79019,-0.79018 -6.942,1.11201 -7.78406,1.11201 z"
         style="fill:#e3dbdb;fill-opacity:1;stroke:#ffffff;stroke-width:2.09682536px;stroke-linecap:butt;stroke-linejoin:miter;stroke-opacity:0" />
      <path
         inkscape:connector-curvature="0"
         id="path4954"
         d="m 696.17877,487.33404 c 0.20423,1.34268 -0.0598,7.35371 0.74134,8.15472 0.68279,0.68279 4.18547,-0.37066 4.81871,-0.37066 1.28978,0 2.93556,0.40047 3.33603,0 0.10799,-0.10798 0,-4.54233 0,-5.56005 0,-0.91113 -0.61332,-4.07738 -0.74135,-4.07738 -0.59234,0 -5.70888,1.55711 -6.30138,1.85337"
         style="fill:#e3dbdb;fill-opacity:1;stroke:#ffffff;stroke-width:2.09682536px;stroke-linecap:butt;stroke-linejoin:miter;stroke-opacity:0" />
      <path
         inkscape:connector-curvature="0"
         id="path4956"
         d="m 697.29078,500.67815 c 0.18012,1.4964 -1.60136,7.29471 -0.37067,8.5254 0.84638,0.84638 7.15527,2.11146 8.52539,0.74133 0.70619,-0.70617 0.41528,-9.63741 0,-9.63741 -0.38747,0 -1.45614,0.60894 -1.85334,0.74133 -2.13337,0.71114 -4.11193,-0.80855 -6.30138,-0.37065 z"
         style="fill:#e3dbdb;fill-opacity:1;stroke:#ffffff;stroke-width:2.09682536px;stroke-linecap:butt;stroke-linejoin:miter;stroke-opacity:0" />
      <path
         inkscape:connector-curvature="0"
         id="path4958"
         d="m 679.86929,486.59268 c -0.23265,2.51324 -1.22465,8.04208 0,9.26675 0.74026,0.74027 4.88084,-0.37067 5.93072,-0.37067 0.53008,0 3.3275,0.37919 3.70671,0 0.14216,-0.14217 -0.74136,-2.68597 -0.74136,-2.96535 0,-0.82179 0.18033,-5.75042 -0.37065,-6.30138 -0.38389,-0.38389 -1.24977,0.25419 -1.48269,0.37065 -1.43408,0.71705 -5.47347,0 -7.04273,0 z"
         style="fill:#e3dbdb;fill-opacity:1;stroke:#ffffff;stroke-width:2.09682536px;stroke-linecap:butt;stroke-linejoin:miter;stroke-opacity:0" />
      <path
         inkscape:connector-curvature="0"
         id="path4960"
         d="m 679.49861,500.30747 c 0.70902,2.74959 -0.74502,8.52171 1.11201,10.37876 0.20822,0.20822 1.58598,0.28154 1.85336,0.37066 2.60367,0.8679 3.44029,0.21237 6.30138,-0.74133 0.82886,-0.27628 2.5947,-1.24434 2.5947,-0.37068 0,0.11029 -1.29257,-0.91231 -1.85334,-2.59467 -0.51601,-1.54803 -0.74136,-6.15635 -0.74136,-7.78407 0,-0.78063 -1.26832,0.52699 -1.48266,0.74133 -0.69913,0.6991 -7.04055,0.14867 -7.78409,0 z"
         style="fill:#e3dbdb;fill-opacity:1;stroke:#ffffff;stroke-width:2.09682536px;stroke-linecap:butt;stroke-linejoin:miter;stroke-opacity:0" />
      <path
         inkscape:connector-curvature="0"
         id="path5012"
         d="m 713.60025,486.22203 c -0.47038,1.23035 -0.37068,2.43011 -0.37068,3.70668 0,0.71831 -1.11094,1.85548 -0.74133,2.5947 0.12413,0.24834 0.26122,1.7439 0.37068,1.85334 1.10865,1.10867 5.71854,-1.11201 7.04271,-1.11201 0.34589,0 3.7067,0.44513 3.7067,0.37068 0,-1.48099 -0.4748,-6.77619 -0.74133,-7.04274 -0.75496,-0.75496 -7.99142,-0.37065 -9.26675,-0.37065 z"
         style="fill:#e3dbdb;fill-opacity:1;stroke:#ffffff;stroke-width:2.09682536px;stroke-linecap:butt;stroke-linejoin:miter;stroke-opacity:0" />
    </g>
  </g>
</svg>
