<?xml version="1.0" encoding="UTF-8" standalone="no"?>
<!-- Created with Inkscape (http://www.inkscape.org/) -->

<svg
   xmlns:dc="http://purl.org/dc/elements/1.1/"
   xmlns:cc="http://creativecommons.org/ns#"
   xmlns:rdf="http://www.w3.org/1999/02/22-rdf-syntax-ns#"
   xmlns:svg="http://www.w3.org/2000/svg"
   xmlns="http://www.w3.org/2000/svg"
   xmlns:sodipodi="http://sodipodi.sourceforge.net/DTD/sodipodi-0.dtd"
   xmlns:inkscape="http://www.inkscape.org/namespaces/inkscape"
   width="722.66315"
   height="514.77374"
   id="svg2"
   version="1.1"
   inkscape:version="0.48.3.1 r9886"
   sodipodi:docname="printable.svg">
  <defs
     id="defs4" />
  <sodipodi:namedview
     id="base"
     pagecolor="#414141"
     bordercolor="#666666"
     borderopacity="1.0"
     inkscape:pageopacity="0"
     inkscape:pageshadow="2"
     inkscape:zoom="1"
     inkscape:cx="513.35473"
     inkscape:cy="236.6772"
     inkscape:document-units="px"
     inkscape:current-layer="layer1"
     showgrid="false"
     inkscape:window-width="1364"
     inkscape:window-height="766"
     inkscape:window-x="0"
     inkscape:window-y="0"
     inkscape:window-maximized="0"
     fit-margin-top="0"
     fit-margin-left="0"
     fit-margin-right="0"
     fit-margin-bottom="0" />
  <metadata
     id="metadata7">
    <rdf:RDF>
      <cc:Work
         rdf:about="">
        <dc:format>image/svg+xml</dc:format>
        <dc:type
           rdf:resource="http://purl.org/dc/dcmitype/StillImage" />
        <dc:title></dc:title>
      </cc:Work>
    </rdf:RDF>
  </metadata>
  <g
     inkscape:label="Layer 1"
     inkscape:groupmode="layer"
     id="layer1"
     transform="translate(-15.556349,-121.80966)">
    <rect
       style="color:#000000;fill:#483737;fill-opacity:1;fill-rule:nonzero;stroke:none;stroke-width:2;marker:none;visibility:visible;display:inline;overflow:visible;enable-background:accumulate"
       id="rect3891"
       width="722.66315"
       height="514.77374"
       x="15.556349"
       y="121.80966" />
    <path
       style="fill:#e3dbdb;stroke:none"
       d="m 269.57981,302.68648 c -1.95436,-0.3365 -16.42619,-2.07664 -17.14951,-1.34634 -0.66958,0.67603 -3.00564,0.37156 -4.28396,0.37769 -0.49084,0.002 -1.42449,0.85483 -1.42684,0.36399 -0.002,-0.43646 0.68796,1.71334 0.72284,1.78227 0.70194,1.38722 0.68547,3.03746 1.09369,4.63767 0.72607,2.84624 0.65291,13.95332 -0.27665,16.78723 -0.98204,2.99393 -0.27483,6.22006 -1.02687,9.29075 -1.80427,7.36702 -1.00036,14.82318 -0.96352,22.50488 0.0327,6.82763 -1.20286,15.25898 0.46162,21.78373 0.84449,3.31044 0.41445,11.94933 0.4325,15.7124 0.0109,2.26515 0.0208,4.33047 0.0325,6.78563 0.003,0.60702 0.97272,1.78108 0.36571,1.78399 -0.86667,0.004 1.62987,-0.72212 2.49654,-0.72627 2.14283,-0.0103 4.28567,-0.0206 6.4285,-0.0308 1.28161,-0.006 18.38988,1.24652 18.57807,1.33949 0.3384,0.16719 2.98329,0.9355 3.21767,0.69886 0.26492,-0.26747 0.18526,-0.7356 0.35199,-1.07313 0.52514,-1.06299 -0.0182,-3.78801 -0.024,-4.99994 -0.008,-1.65684 0.70865,-5.32086 -0.0326,-6.78564 -0.55494,-1.09671 -11.06797,-2.0898 -13.2244,-2.07945 -1.49029,0.007 -4.90023,0.47818 -5.71594,-0.32975 -0.048,-0.0476 0.27406,-4.82146 0.33317,-5.00165 0.40297,-1.22855 -0.35022,-7.72362 -0.7571,-8.92504 -0.52036,-1.53648 1.12862,-22.47849 1.67264,-23.57972 0.73532,-1.48843 2.37938,-26.42211 1.64868,-28.57966 -0.55116,-1.62741 -1.89186,-8.85594 -1.82851,-8.9199 0.16344,-0.16502 16.00426,-0.009 16.42667,-0.43593 0.26294,-0.26547 -0.86531,-11.78169 -0.41367,-11.78386 0.75292,-0.004 -1.38649,0.72094 -2.1394,0.72455 -2.08899,0.01 -2.57069,-0.474 -4.99994,0.024 z"
       id="path3002"
       inkscape:connector-curvature="0"
       sodipodi:nodetypes="cssscsssssssssscscsssssssscsssc" />
    <path
       style="fill:#e3dbdb;stroke:none"
       d="m 330.59977,343.30448 c 1.87109,0.30299 10.60227,-0.0217 17.14558,0.1856 4.82418,0.15276 9.39512,-0.0599 13.9329,0.0839 1.78749,0.0566 12.54652,-0.34662 13.25289,-1.00963 0.34443,-0.32328 3.02052,-0.26166 3.58094,-0.24392 0.68252,0.0216 3.86297,-0.31246 4.28357,0.13564 0.74382,0.79247 -0.49326,11.51901 -0.0386,12.50504 0.1243,0.2696 0.71008,1.41164 0.30045,1.79613 -0.92526,0.86845 -4.85475,-0.39994 -6.07969,0.16479 -1.82872,0.84311 -5.03306,0.19795 -7.15058,0.1309 -3.39563,-0.10752 -21.36307,-1.16601 -23.92788,-0.40037 -1.21925,0.36397 -17.90024,1.07817 -17.89341,0.86268 0.022,-0.69381 0.79747,-1.14017 1.1274,-1.75091 0.37033,-0.68552 0.22823,-2.38962 0.45869,-3.20137 0.90836,-3.19941 -0.29889,-6.26966 1.00781,-9.25845 z"
       id="path3004"
       inkscape:connector-curvature="0" />
    <path
       style="fill:#e3dbdb;stroke:none"
       d="m 442.90221,332.81728 c -0.41418,0.0767 -3.61735,8.06606 -4.69868,9.23693 -4.66662,5.05293 -5.99415,7.40512 -12.47656,6.13579 -9.54632,-1.86927 -10.23946,-15.12549 -20.56434,-13.21403 -6.15827,1.1401 -12.97478,6.75019 -15.05561,14.00987 -0.14161,0.7341 -0.82815,1.77729 -0.30885,2.22025 0.53894,0.45973 3.0676,3.19462 4.57489,4.60312 0.0337,0.0314 0.0745,0.0944 0.1071,0.12449 1.07922,1.3523 1.85283,2.49554 2.86645,3.67379 0.30645,0.35622 3.05225,-5.01831 3.34041,-5.35983 1.58894,-1.88322 3.02342,-2.86053 4.54188,-4.66023 0.263,-0.3117 6.00353,2.99626 6.84016,2.67705 6.39556,5.76901 11.52047,14.20054 24.94405,6.46527 1.74464,-1.00534 5.11705,-2.65089 6.18257,-4.37345 0.7652,-1.23704 2.67142,-3.43958 3.73332,-4.33046 0.75864,-0.63646 3.77742,-6.02552 3.67149,-6.11588 -1.06046,-0.90459 -2.16669,-5.36468 -3.54582,-6.54111 -0.62224,-0.53079 -3.99667,-4.58041 -4.15246,-4.55157 z"
       id="path3046"
       inkscape:connector-curvature="0"
       sodipodi:nodetypes="cssscsccssscsssssc" />
    <path
       style="fill:#e3dbdb;stroke:none"
       d="m 481.69575,299.58258 c -0.47389,1.96286 0.12992,11.91819 0.0229,13.93313 -0.60144,11.32118 1.01227,7.89469 0.29425,17.5121 -0.44256,5.92778 2.38744,16.37013 0.19142,21.79659 -1.15281,2.84864 0.50557,12.75075 -1.18532,19.62006 -0.36766,1.49364 1.04267,16.09825 0.94835,20.02852 -0.0509,2.12236 0.63661,8.46394 0.14283,8.93456 -1.47068,1.40175 -15.10957,2.49538 -17.92054,2.42793 -2.10353,-0.0505 -4.7578,-1.11573 -6.78375,-0.16284 -1.00154,0.47108 -5.07804,0.23538 -6.07826,0.21138 -0.84155,-0.0202 -3.34941,0.27686 -2.50785,0.29706 0.34904,0.008 -1.25451,-15.11888 0.02,-15.71832 1.618,-0.76106 4.35215,0.67273 6.06967,0.14567 2.11844,-0.65011 13.3423,-0.85523 13.60179,-1.10257 0.30615,-0.2918 -0.34274,-8.04635 0.23138,-9.64008 0.87565,-2.43091 -0.33686,-5.72987 0.55413,-8.20336 0.60533,-1.68052 -0.77365,-20.72465 -0.88838,-22.52779 -0.81163,-12.75544 -0.73082,-14.21348 -0.55704,-21.44811 0.0856,-3.56424 0.53179,-7.27324 0.60551,-10.34559 0.004,-0.14702 0.1179,-0.97434 0.0258,-1.07112 -1.44867,-1.51991 -14.50492,1.61915 -15.37843,0.7027 -0.30545,-0.32049 -0.0552,-12.5859 -0.0143,-14.29019 0.007,-0.27954 -0.13959,-1.6113 0.0424,-1.78521 0.11298,-0.10767 3.87836,0.80758 4.6244,0.82548 1.35279,0.0329 3.63706,-0.17105 5.01569,-0.59413 3.41072,-1.04669 16.54642,-1.05062 18.92313,0.45408 z"
       id="path3091"
       inkscape:connector-curvature="0"
       sodipodi:nodetypes="cssssssssssssssssssccscssc" />
  </g>
</svg>
