<?xml version="1.0" encoding="UTF-8" standalone="no"?>
<!-- Created with Inkscape (http://www.inkscape.org/) -->

<svg
   xmlns:dc="http://purl.org/dc/elements/1.1/"
   xmlns:cc="http://creativecommons.org/ns#"
   xmlns:rdf="http://www.w3.org/1999/02/22-rdf-syntax-ns#"
   xmlns:svg="http://www.w3.org/2000/svg"
   xmlns="http://www.w3.org/2000/svg"
   xmlns:sodipodi="http://sodipodi.sourceforge.net/DTD/sodipodi-0.dtd"
   xmlns:inkscape="http://www.inkscape.org/namespaces/inkscape"
   width="744.09448819"
   height="1052.3622047"
   id="svg7832"
   version="1.1"
   inkscape:version="0.48.3.1 r9886"
   sodipodi:docname="pushover.svg"
   inkscape:export-filename="/home/substack/projects/substack.net/static/images/pushover.png"
   inkscape:export-xdpi="77.086304"
   inkscape:export-ydpi="77.086304">
  <defs
     id="defs7834" />
  <sodipodi:namedview
     id="base"
     pagecolor="#ffffff"
     bordercolor="#666666"
     borderopacity="1.0"
     inkscape:pageopacity="0.0"
     inkscape:pageshadow="2"
     inkscape:zoom="0.84082031"
     inkscape:cx="246.71198"
     inkscape:cy="709.88262"
     inkscape:document-units="px"
     inkscape:current-layer="layer1"
     showgrid="false"
     inkscape:window-width="1364"
     inkscape:window-height="766"
     inkscape:window-x="0"
     inkscape:window-y="0"
     inkscape:window-maximized="0" />
  <metadata
     id="metadata7837">
    <rdf:RDF>
      <cc:Work
         rdf:about="">
        <dc:format>image/svg+xml</dc:format>
        <dc:type
           rdf:resource="http://purl.org/dc/dcmitype/StillImage" />
        <dc:title></dc:title>
      </cc:Work>
    </rdf:RDF>
  </metadata>
  <g
     inkscape:label="Layer 1"
     inkscape:groupmode="layer"
     id="layer1">
    <path
       style="fill:#e33512;fill-opacity:1;stroke:#ffffff;stroke-width:0.62064558px;stroke-linecap:butt;stroke-linejoin:miter;stroke-opacity:0"
       d="m 167.31411,270.49937 c -0.22473,0.024 -0.46677,0.28187 -0.56246,0.32971 -1.95545,0.97773 -4.94888,1.4368 -7.31198,2.61835 -1.74919,0.8746 -4.02556,1.33126 -5.99311,1.82315 -0.48632,0.12158 -0.90305,0.6372 -1.31887,0.77581 -1.21163,0.40387 -2.45175,0.77485 -3.66569,1.16371 -0.0106,0.12675 -0.0388,0.30158 -0.0388,0.3879 0,0.85673 0.37832,4.66685 0.60125,7.42835 3.73604,-1.55735 9.54192,-3.76266 10.41521,-3.76266 1.42994,0 4.47235,-2.09203 5.99311,-2.59896 0.31393,-0.10464 3.39416,-0.86301 3.39416,-1.04734 0,-0.33255 0.25225,-1.59017 0,-2.09467 -0.56109,-1.12217 -1.10362,-4.74992 -1.29948,-4.94577 -0.0613,-0.0613 -0.13844,-0.0856 -0.21335,-0.0776 z m -20.59767,7.31198 c -0.92717,0.33294 -1.832,0.68325 -2.67654,1.10552 -1.37041,0.68521 -5.53382,1.50512 -7.85504,1.6098 -1.22081,0.11764 -2.72754,0.25371 -4.15057,0.3879 0.0743,0.29364 0.1406,0.61091 0.27153,0.87279 0.78271,1.56541 1.40042,3.03844 2.23045,4.53847 2.63371,-0.0585 4.85615,-0.097 5.33367,-0.097 1.37952,0 5.79543,0.44982 5.99311,0.25214 0.11448,-0.11448 0.82273,-0.44112 1.76496,-0.85339 -0.0536,-0.74011 -0.11637,-1.61301 -0.11637,-1.76496 0,-1.12259 -0.36851,-2.13993 -0.36851,-3.31657 0,-1.09258 -0.22445,-2.03257 -0.42669,-2.73472 z m -16.13679,3.23899 c -3.04173,0.29463 -6.09638,0.62688 -8.45629,1.00855 -2.4303,0.86446 -2.84417,4.03196 -3.41355,4.88758 2.64567,-0.26021 9.24195,-0.45764 14.4494,-0.58185 -0.21808,-0.69007 -0.38957,-2.01877 -0.73702,-2.36621 -0.4974,-0.49741 -1.35108,-2.01699 -1.84254,-2.94807 z"
       id="path8632"
       inkscape:connector-curvature="0" />
    <path
       style="fill:#e33512;fill-opacity:1;stroke:#ffffff;stroke-width:0.62064558px;stroke-linecap:butt;stroke-linejoin:miter;stroke-opacity:0"
       d="m 123.40344,321.95476 c -0.41461,0.0229 -2.07365,0.94211 -3.72388,0.29093 -1.36089,0.12684 -3.89556,0.93097 -6.26463,0.93097 -2.56889,0 -13.15844,0.60976 -14.759732,2.21105 -0.846653,0.84665 0.02551,4.73353 -0.368508,5.91553 -1.381272,4.14381 -2.813722,8.56039 -3.685083,12.91718 -0.37379,1.86897 0.0324,5.1399 -0.640042,7.33138 2.21097,0.20092 4.557482,0.63985 6.303435,1.51282 0.9142,0.4571 1.57378,0.0998 2.21105,0.73702 0.13448,0.13449 0.74896,0.0119 0.93097,0.19395 0.86074,0.86074 1.32329,1.78071 1.90072,2.8123 1.44349,-4.42381 0.65474,-9.32966 1.84255,-14.08089 0.29146,-1.16587 1.41679,-5.95337 1.84254,-5.52763 1.02352,1.02352 5.52762,16.60423 5.52762,18.83272 0,0.36449 0.70123,1.92578 1.14432,3.10322 3.07692,-1.22159 6.15346,-1.62919 9.87214,-1.62919 0.36745,0 0.73833,-0.0553 1.06673,-0.097 -0.11249,-0.44892 -0.21809,-0.84823 -0.27153,-1.00855 -1.8283,-5.4849 -0.0945,-14.24088 -1.10553,-20.30674 -0.183,-1.098 -1.18481,-13.73349 -1.47403,-14.02272 -0.0956,-0.0956 -0.21091,-0.12399 -0.34911,-0.11637 z m -29.228527,31.92446 c -0.895152,0.0162 -1.724806,0.0483 -2.424397,0.0776 -0.87508,0.46366 -1.908237,0.92503 -2.69593,1.31887 -8.961284,4.48065 -17.782234,8.3606 -24.728847,15.88465 l 3.29718,4.73242 c 0.08485,-0.063 0.161771,-0.12077 0.252137,-0.17455 0.380338,-0.22636 0.85767,0.16321 1.338267,0.0582 2.741038,-0.59882 2.373398,3.13306 1.900727,6.18706 0.766243,-0.44035 2.172737,-1.31935 2.443792,-1.5904 4.401705,-4.40171 10.718804,-7.01071 15.865253,-10.68674 3.110669,-2.22191 13.456365,-6.80382 15.147635,-8.49509 0.0792,-0.0792 0.10331,-0.21688 0.11637,-0.36851 -0.16883,0 -1.08136,-2.74934 -1.64859,-3.31657 -1.89756,-1.89756 -3.486814,-2.21859 -5.721579,-3.33597 -0.558649,-0.27933 -1.835038,-0.31463 -3.142018,-0.29093 z m 29.926747,4.67424 c -0.98523,-0.081 -5.9347,1.11008 -8.10718,1.86193 -0.004,0.0106 0.007,0.032 0,0.0388 -4.5823,4.58231 -7.68406,15.81065 -12.91718,21.04377 -0.30908,0.30907 -0.56459,0.64622 -0.7952,0.98915 0.24404,-0.0603 0.43939,-0.0649 0.54306,0.0388 0.66172,0.66172 1.02833,1.8261 1.28008,2.88988 3.14062,-0.33398 8.19935,-0.59643 9.30969,-1.70677 2.6066,-2.60661 4.97565,-8.14459 7.02105,-12.91719 1.66712,-3.88996 3.9741,-8.78411 6.26464,-11.07464 0.0971,-0.0971 0.13647,-0.27595 0.15516,-0.48488 -0.99367,-0.23037 -2.24357,-0.26526 -2.59895,-0.62065 -0.024,-0.024 -0.0759,-0.0516 -0.15517,-0.0582 z"
       id="path7894"
       inkscape:connector-curvature="0" />
    <path
       style="fill:#6b6bdc;fill-opacity:1;stroke:#ffffff;stroke-width:0.87860614000000004px;stroke-linecap:butt;stroke-linejoin:miter;stroke-opacity:0"
       d="m 185.03951,269.78268 c -0.77,0.0125 -1.28633,0.43721 -3.76154,1.67484 -5.52843,2.76422 -10.07665,10.18604 -6.80919,16.72097 1.08733,2.17465 3.28369,2.52361 5.21672,3.07513 -0.96779,3.27134 -2.05923,7.91081 -2.05923,9.44501 0,2.72846 -1.22666,7.27675 -2.11415,9.93923 -1.22795,3.68385 -2.6176,7.3802 -3.73407,10.26871 -0.33911,-0.12197 -0.6936,-0.24997 -0.96098,-0.35693 -12.16539,-0.20683 -13.92744,14.13743 -7.90746,20.94927 -0.57645,2.05803 3.59521,1.97249 3.21958,3.09938 -1.13688,3.41061 -3.5472,9.51036 -4.72569,13.0458 -1.71741,5.15221 -4.19021,10.71833 -5.43772,16.06359 -3.10285,-0.435 -5.68589,0.37593 -7.08641,0.65604 -2.40741,0.56962 -5.42212,1.68756 -6.78174,5.7664 -0.46802,1.40407 0.70585,3.34507 1.04335,4.69505 2.22612,8.9045 12.02514,12.25968 19.85101,8.34676 1.87385,-0.93694 2.08962,-2.69429 2.60836,-4.17338 1.83933,-5.2445 0.9462,-11.26757 -4.83343,-13.75705 1.78839,-6.31697 3.70992,-11.15038 6.39844,-16.52741 0.50191,-1.0039 0.0209,-2.67749 0.52167,-3.67917 1.02867,-2.05734 2.05098,-6.27779 3.10258,-10.0216 0.99325,-0.009 2.04515,-0.13375 3.1575,-0.41184 1.14873,-0.28718 2.49111,-0.44493 3.73407,-0.68641 2.10654,3.00573 4.29282,6.07749 4.64014,6.42481 5.92387,5.92388 7.41458,16.11929 10.95512,21.16892 -2.16251,3.36876 -3.07552,8.18141 0,12.7947 0.71553,1.07329 2.33599,3.72566 3.67917,4.17338 1.80857,0.60286 3.81701,0.92455 5.73839,1.56501 5.27842,1.75947 14.71641,-8.70415 12.02592,-14.08515 -2.84756,-5.69513 -9.20061,-5.74001 -13.59093,-8.37422 -0.4415,-0.33266 -2.2761,0.54134 -2.84243,0.52222 -3.91679,-5.26708 -7.70084,-12.6305 -8.66182,-13.59149 -0.61765,-0.61764 -0.23608,-2.32275 -1.04336,-3.13003 -2.12995,-2.12995 -4.06285,-6.95315 -5.95804,-11.22968 2.05987,-4.09451 2.13106,-10.53689 0.74133,-13.31638 -0.83897,-1.67795 -3.90446,-3.11253 -6.91903,-4.25575 0.19964,-3.18979 0.46064,-6.52851 1.18063,-7.2485 0.42401,-0.424 4.77263,-13.45336 7.57798,-22.73393 0.95712,0.0518 1.84023,-3.2e-4 2.33379,-0.24711 1.51566,-0.75782 3.97929,-1.37093 5.21673,-2.60836 4.34165,-4.34165 5.3469,-12.93909 1.04334,-17.24264 -1.81695,-1.81695 -4.78547,-1.39251 -7.82508,-2.60837 -0.39289,-0.0738 -0.67686,-0.114 -0.93352,-0.10982 z"
       id="path7939"
       inkscape:connector-curvature="0"
       sodipodi:nodetypes="csscsscccssccssssccscscscssssccsscscscssscc" />
    <path
       style="fill:#e33512;fill-opacity:1;stroke:#ffffff;stroke-width:0.62064558px;stroke-linecap:butt;stroke-linejoin:miter;stroke-opacity:0"
       d="m 64.184399,371.82505 c 0.130597,0.45757 -4.883643,2.79586 -6.524319,4.43654 -0.03842,0.0384 3.802882,9.80526 4.175567,10.17795 1.190466,1.19046 0.621533,5.58002 1.826808,6.78529 0.438499,0.4385 8.320877,0.66756 9.134053,0.26098 0.738997,-0.36951 5.219462,0.22022 5.219462,-0.26098 0,-0.68618 -0.91454,-2.35102 -1.30487,-3.13167 -0.507154,-1.01432 -0.100662,-2.97137 -0.782913,-3.65362 -0.213564,0.0929 -4.822838,-0.3863 -4.958487,-0.52195 -0.748027,-0.74803 -1.126931,-8.77818 -1.826814,-10.17795 -0.227765,0.30368 -1.674117,2.60973 -1.826808,2.60973 -0.290196,0 -2.688289,-5.27734 -3.131679,-6.52432 z"
       id="path7991"
       inkscape:connector-curvature="0" />
    <path
       style="fill:#e33512;fill-opacity:1;stroke:#ffffff;stroke-width:0.62064558px;stroke-linecap:butt;stroke-linejoin:miter;stroke-opacity:0"
       d="m 101.92703,384.17478 c -0.95465,1.23039 -6.207901,9.46374 -5.936809,9.77688 0.04493,0.0519 0.85384,-0.35275 1.078675,-0.44564 0.426105,-0.17603 1.122817,-0.031 1.580537,-0.14786 4.047737,-1.03305 10.301977,0.57603 14.930757,-0.23337 1.40989,-0.24653 12.21695,0.65148 12.53184,0.37889 0.37741,-0.32673 -1.39969,-1.33491 -1.4681,-1.41393 -1.73165,-2.00032 -2.69388,-2.54838 -5.20393,-4.03772 -1.06603,-0.63252 -6.74901,0.0984 -7.28839,-0.5247 -0.15644,-0.1807 0.29986,-0.53078 0.31652,-0.76215 -1.08175,-0.58046 0.15307,-1.73468 -0.004,-1.89148 -0.32186,-0.32187 -0.49584,0.23487 -0.52194,0.26097 -0.32201,0.32201 -8.96223,1.99864 -9.13406,1.82681 -0.16584,-0.16584 -0.83822,-2.64016 -0.88136,-2.7867 z"
       id="path8045"
       inkscape:connector-curvature="0"
       sodipodi:nodetypes="ccccscsscc" />
    <path
       style="fill:#e33512;fill-opacity:1;stroke:#ffffff;stroke-width:0.62064558px;stroke-linecap:butt;stroke-linejoin:miter;stroke-opacity:0"
       d="m 135.17631,256.47665 c -0.1592,0.006 -0.30498,0.0264 -0.4073,0.0776 -1.0938,0.5469 -4.37622,3.09613 -4.98456,3.70447 -0.27264,0.27264 -0.98598,0.54294 -1.53222,0.87279 -0.005,0.003 -0.0148,-0.003 -0.0194,0 -0.005,0.008 -0.0145,0.0118 -0.0194,0.0194 -0.36116,0.22309 -0.64004,0.46658 -0.64004,0.75641 0,6.2e-4 0.0776,0.0933 0.097,0.11637 -1.7163,2.69705 -3.44351,5.4827 -4.32513,6.59436 -1.17421,1.48062 -2.29363,4.65899 -2.63774,5.81856 0.0223,1.2711 -0.411,3.09638 -0.21335,3.72387 0,0 1.39829,1.4131 1.39646,2.15286 2.45883,-0.41952 10.36672,-0.87043 12.76202,-1.14431 3.8791,-4.09111 8.62828,-9.25256 11.05525,-13.24691 -0.30165,-1.28279 -0.53224,-2.61394 -0.7952,-3.87903 -0.0624,-0.2999 -0.30124,-1.45435 -0.56246,-2.73472 0.0276,-0.0732 0.0436,-0.15039 0.0194,-0.17456 -0.50322,-0.50323 -4.79536,-0.72237 -5.35307,-1.28008 -0.44157,-0.44157 -2.72585,-1.41534 -3.84024,-1.37706 z"
       id="path8086"
       inkscape:connector-curvature="0" />
    <path
       style="fill:#e33512;fill-opacity:1;stroke:#ffffff;stroke-width:0.62064558px;stroke-linecap:butt;stroke-linejoin:miter;stroke-opacity:0"
       d="m 120.43598,282.29163 c -0.68412,0.0311 -1.4924,0.13805 -2.48259,0.27153 -2.58736,3.48374 -3.80529,11.76237 -6.7883,15.14764 -0.81498,0.81497 -0.47246,2.54773 -1.31888,3.39415 -2.16416,2.16416 -3.93557,6.82381 -5.74097,10.43461 -0.90912,1.81823 -1.14651,4.13556 -2.07528,5.9931 -0.31309,0.62619 -1.122,2.48992 -1.72617,4.15057 6.20107,-0.57412 15.33326,-1.78435 22.0911,-1.78435 0.87328,0 1.78633,-0.14706 2.71532,-0.29093 0.86752,-1.96341 0.95255,-4.71739 1.97831,-6.76892 0.20878,-0.41756 -0.20877,-1.15345 0,-1.57101 1.88901,-3.77801 1.70259,-8.37033 3.64629,-12.25775 0.38888,-0.77773 0.47857,-2.63042 0.834,-4.15057 -0.19299,-0.0817 -0.40216,-0.16848 -0.31033,-0.29092 0.0259,-0.0345 0.0666,-0.022 0.11637,0 -0.48446,-0.46179 -0.98584,-0.92436 -1.29947,-1.55162 -0.22815,-0.45628 -1.15443,-2.60905 -1.29948,-2.75411 -0.0287,-0.0287 -0.81131,-0.87607 -0.65943,-1.02795 0.26445,-0.26446 3.57503,-1.86417 5.27548,-2.61834 0.0263,-0.0573 0.0521,-0.10296 0.0776,-0.15517 -0.88784,-0.26381 -1.72319,-0.50427 -1.95891,-0.50427 -2.29763,0 -4.67882,-0.38377 -7.00166,-0.93097 -1.11488,-2.27535 -2.02065,-2.82808 -4.07298,-2.73472 z m 12.4517,5.87674 c -1.05648,0.40649 -2.58968,0.84411 -3.20021,1.45464 -0.24666,0.24667 1.74918,3.3614 2.23045,4.15057 0.0346,-0.0828 0.0782,-0.17591 0.11637,-0.25214 0.55573,-1.11145 0.4811,-3.49287 0.85339,-5.35307 z"
       id="path8091"
       inkscape:connector-curvature="0" />
    <path
       style="fill:#e33512;fill-opacity:1;stroke:#ffffff;stroke-width:0.62064558px;stroke-linecap:butt;stroke-linejoin:miter;stroke-opacity:0"
       d="m 165.43278,282.8347 c -1.39237,0.52573 -2.48244,1.55759 -3.78726,2.22123 -2.0093,0.81505 -4.22267,1.0697 -6.09462,2.23296 -2.69814,1.39096 -5.346,2.88217 -7.92289,4.48698 0.33413,1.48623 1.54934,2.70013 1.97985,4.22523 0.68809,1.05396 1.01362,3.41684 2.51618,1.97787 1.68394,-0.79813 2.77592,-2.39896 4.34262,-3.37989 2.54658,-1.80843 5.29479,-3.47989 8.41138,-4.05022 1.40759,-0.21355 2.66132,-0.94771 3.86693,-1.55408 0.85488,-0.76111 -1.32476,-2.03342 -1.76771,-2.88936 -0.65708,-1.02049 -0.71392,-2.35332 -1.54448,-3.27072 z m -31.09046,5.02335 c -1.41723,-0.0541 -2.56834,1.46141 -3.58814,1.72617 -1.36214,0.53968 0.73062,1.87049 0.91889,2.78544 0.28977,0.52007 -0.21165,1.13063 0.57249,1.69212 0.23947,1.45508 1.25543,1.5412 2.48827,2.13519 3.16137,1.59342 6.63043,2.62494 10.1589,2.91012 1.28856,0.28209 2.56391,0.62049 3.84077,0.95052 1.92139,-0.93273 -0.79207,-2.58352 -1.02264,-4.01054 -0.67273,-1.54906 -1.08229,-3.44058 -2.99602,-3.24714 -2.87573,-0.73446 -5.40515,-2.34263 -8.02201,-3.68479 -0.8146,-0.36269 -1.52931,-1.02021 -2.35051,-1.25709 z m -3.58811,1.72617 c 0.60219,-0.0901 0.48832,-0.17709 0,0 z"
       id="path8177"
       inkscape:connector-curvature="0" />
    <path
       style="fill:#6b6bdc;fill-opacity:1;stroke:#ffffff;stroke-width:0.62064558000000003px;stroke-linecap:butt;stroke-linejoin:miter;stroke-opacity:0"
       d="m 168.06653,203.31381 c -3.76953,0.2655 -5.74302,3.32108 -7.55732,6.59088 -1.82426,3.28775 -2.78795,8.16639 -0.5277,11.894 2.82578,4.66027 6.85424,6.01561 10.85162,5.39985 0.39694,5.77081 0.85845,12.64096 2.72257,15.71526 2.49276,4.11107 5.42902,29.92356 6.21326,30.58946 0.12401,0.1053 2.833,-0.11578 2.9383,-0.23981 0.45043,-0.53049 1.69334,-0.38393 2.14377,-0.91442 2.30467,-2.71427 -6.09635,-29.39532 -6.55364,-34.99848 -0.37182,-4.55596 -2.39809,-7.72185 -3.10493,-11.57807 1.6061,-0.79813 3.13628,-1.84487 4.47812,-3.07036 1.77728,2.06205 3.41689,4.47719 5.25158,5.21471 2.67801,1.07652 12.31108,11.92171 18.72377,17.21156 -0.44134,1.06039 -0.89792,2.21046 -1.45739,3.60223 -1.91151,4.75518 4.39574,10.92764 11.06176,11.55141 -0.49802,4.60962 0.25535,9.32827 0.64907,14.15258 l 1.20058,14.71081 c 0.30828,3.77736 -0.19117,6.71841 0.1063,10.36332 0.10981,1.34536 -0.28464,3.2344 -0.47903,5.09861 -1.93987,0.43735 -4.9163,2.06081 -7.5565,5.17025 -1.18254,1.39271 -0.44358,3.73135 -1.06727,5.28283 -4.25923,10.59553 15.82397,17.6603 22.3021,10.03081 6.81932,-8.03129 4.41674,-25.43453 -8.5363,-21.85708 -1.0712,-10.96613 -3.11199,-32.16539 -1.90439,-33.58762 0.66156,-0.77914 0.73043,-6.11343 0.45546,-10.15619 1.32041,-0.5798 2.56898,-1.47877 3.66583,-2.77056 0.15669,-0.18452 0.4024,-0.34315 0.67738,-0.52231 3.22622,1.65627 6.2504,2.98629 9.37259,5.63731 l 7.15072,6.07162 c 2.82797,2.4012 6.01092,4.97514 8.52399,6.44603 -0.43658,0.63882 -0.8151,1.31067 -1.12438,1.95989 -1.34941,2.77685 -2.18621,6.34063 -0.32802,9.09497 1.38147,2.64994 2.34615,5.65129 4.74656,7.61055 3.0088,2.68053 7.33996,2.39613 11.04776,1.84218 4.98399,-0.98829 8.53746,-5.71876 8.93817,-10.65389 0.4101,-4.04051 -1.06112,-8.61505 -4.62182,-10.85103 -2.29028,-1.22902 -4.4842,-0.19104 -6.40204,-2.14349 -1.31878,-1.33313 -4.08767,-1.57351 -5.54912,-0.75361 -0.54056,0.26274 -1.07661,0.55477 -1.62815,0.7945 -0.58749,-0.0337 -1.12296,0.0437 -1.63682,0.21142 -1.96601,-1.46918 -4.08543,-3.03712 -6.13015,-4.77328 -2.40857,-2.0451 -7.68229,-4.45396 -10.1683,-6.5648 -2.73018,-2.31819 -6.34425,-4.30164 -9.73118,-6.93131 2.82655,-9.74279 -8.08642,-20.46789 -17.05152,-13.6507 -7.56761,-5.90901 -16.23983,-11.16238 -22.93633,-16.84832 -0.88168,-0.74863 -2.24549,-1.56797 -3.40258,-2.34936 3.42449,-4.32102 4.58911,-9.65092 0.67264,-12.97614 -0.26525,-0.22522 -1.99843,-0.32951 -2.26368,-0.55472 -3.66885,-3.1152 -4.42607,-4.07559 -11.39764,-3.50665 -0.26764,-0.008 -0.52666,-0.0126 -0.77796,0.005 z"
       id="path8266"
       inkscape:connector-curvature="0" />
    <path
       style="fill:#e33512;fill-opacity:1;stroke:#ffffff;stroke-width:0.62064558px;stroke-linecap:butt;stroke-linejoin:miter;stroke-opacity:0"
       d="m 169.83305,287.56049 c 0.49732,-1.11996 3.47685,-0.32025 2.17919,-2.19954 -0.92198,-1.99283 -0.78604,-4.23144 0.10839,-6.20456 0.18697,-1.78355 2.46611,-3.2063 2.35619,-4.61918 -1.1724,-0.7923 -2.14518,-0.41865 -2.65756,0.21098 -0.5601,1.434 -1.91923,2.4694 -2.4873,3.89968 -0.96075,1.12883 0.70994,1.99132 -0.79155,2.61712 -0.43437,0.71432 -2.20038,0.64889 -1.44759,1.82298 1.14045,1.97026 1.32181,3.33874 2.74023,4.47252 z"
       id="path8493"
       inkscape:connector-curvature="0"
       sodipodi:nodetypes="ccccccccc" />
    <path
       style="fill:#e33512;fill-opacity:1;stroke:#ffffff;stroke-width:0.62064558px;stroke-linecap:butt;stroke-linejoin:miter;stroke-opacity:0"
       d="m 173.47527,260.66153 c 0.16816,1.23401 -0.59613,3.84481 -0.0287,5.0655 -0.87045,1.2709 -1.63694,2.33683 -2.91814,3.02711 -0.5304,0.48233 -0.78734,0.36507 -0.99026,1.01108 -0.20768,1.04186 -0.0887,3.05449 0.13579,4.1057 0.49278,0.5719 1.20978,-0.29028 1.72877,-0.46914 1.10674,-0.53247 2.33443,-0.0619 3.48329,0.0329 0.61481,0.0426 1.39189,-1.22854 2.1053,-1.71394 -0.3417,-1.59983 -0.47967,-2.28053 -0.72903,-3.93526 -0.4144,-2.10799 -0.78971,-3.80571 -1.08227,-5.93014 -0.0443,-0.80101 -0.0244,-2.1553 -0.45576,-2.84839 -0.53921,-1.20385 -1.47081,0.93412 -1.24896,1.65459 z"
       id="path8565"
       inkscape:connector-curvature="0"
       sodipodi:nodetypes="ccccccccccccc" />
    <path
       style="fill:#fa765b;fill-opacity:1;stroke:#ffffff;stroke-width:0.62064558000000003px;stroke-linecap:butt;stroke-linejoin:miter;stroke-opacity:0"
       d="m 288.71334,276.75285 c -0.98328,0.0307 -1.70906,0.12721 -2.07528,0.31032 -2.10996,1.05498 -3.56915,1.04734 -6.26465,1.04734 -7.08091,12.80665 -10.56639,28.23913 -16.17557,42.26209 -1.49098,3.72744 -2.70374,7.63413 -3.66569,11.48194 -1.71161,6.84643 -7.06884,14.23326 -8.86359,21.41227 -2.00396,8.0158 -5.48522,19.41884 -9.93033,26.08651 -2.48655,3.72981 -2.98149,9.10498 -4.69364,12.52928 -0.12759,0.25518 -1.01358,1.08111 -0.52367,1.57101 0.23277,0.23277 4.00863,-1.04734 5.21731,-1.04734 5.56298,0 11.46545,-0.2413 16.70269,-0.51117 3.2549,-0.16771 8.67197,-0.52022 11.48367,-0.52022 0.13542,0 1.38606,-4.00613 1.56583,-4.18591 1.06137,-1.06136 1.15977,-3.87114 2.09468,-5.74097 3.73439,-7.46877 5.01214,-15.22217 8.88299,-22.96389 0.82996,-1.6599 0.92439,-8.23637 2.07529,-9.38726 0.32045,-0.32045 10.9652,-0.2653 12.52928,-1.04734 3.5761,-1.78806 8.38722,-1.33282 12.00561,-3.14202 2.11723,-1.05862 4.55368,-1.74347 6.26464,-2.59895 1.86441,-0.93221 3.02689,-2.93556 5.21731,-3.66569 1.62635,-0.54212 3.96781,-1.34947 5.2173,-2.59895 2.85502,-2.85502 6.48265,-8.55794 9.40666,-11.48195 3.22771,-3.22771 3.52001,-15.92301 5.74097,-20.36493 0.1608,-0.32161 -1.92335,-7.12126 -2.61835,-7.81626 -1.96989,-1.96989 -3.67296,-5.24397 -5.74097,-7.31198 -3.32044,-3.32043 -8.55867,-4.91237 -11.48194,-7.83565 -0.90064,-0.90063 -3.94634,0.22363 -4.69364,-0.52367 -1.05121,-1.05121 -20.79397,-4.17179 -27.67691,-3.95661 z m 12.52928,19.10425 c 3.78484,0 6.32989,2.14053 8.35932,4.16996 0.78835,0.78834 2.35796,1.59329 3.12263,3.12262 1.42605,2.85212 1.73595,14.96329 -0.52367,17.22292 l -6.24525,6.26464 c -1.46832,1.46831 -5.42053,1.41079 -7.83565,2.61835 -1.19913,0.59956 -7.84792,3.65342 -9.40666,2.09467 -0.59835,-0.59834 1.35391,-3.44859 1.57101,-3.66568 0.27728,-0.27729 1.37633,-6.90323 2.09468,-8.33993 1.12975,-2.2595 1.43962,-4.99332 2.59895,-7.31198 2.59097,-5.18195 1.45815,-11.75002 6.26464,-16.17557 z"
       id="path9272"
       inkscape:connector-curvature="0"
       sodipodi:nodetypes="sscssssccssssssssssssssssssscssccsscssc" />
    <path
       style="fill:#fa765b;fill-opacity:1;stroke:#ffffff;stroke-width:0.62064558000000003px;stroke-linecap:butt;stroke-linejoin:miter;stroke-opacity:0"
       d="m 372.02328,307.49385 c -1.56232,0.009 -3.22505,0.15516 -4.24755,0.15516 -3.09837,0 -8.29938,-0.2918 -10.97767,1.04734 -1.38043,0.69021 -1.55161,5.34598 -1.55161,6.78831 0,2.00683 -0.90336,4.78535 -1.57101,6.78831 -0.68198,2.04595 0.15669,4.72783 -0.52367,6.76892 -2.76459,8.29375 -3.23657,17.4314 -7.31198,25.58223 -1.07436,2.14871 -4.36806,11.79466 -6.55729,15.8269 -3.22942,1.28368 -3.16397,-3.6524 -2.82135,-4.33763 1.03351,-2.06702 3.01135,-10.85217 4.68501,-15.13556 1.33391,-3.41389 2.71137,-18.35487 4.16996,-24.01123 1.75146,-6.79213 2.92875,-11.92439 4.71303,-17.22291 -1.03359,-0.5168 -6.87216,-1.30542 -8.63085,-0.17456 -3.29114,0.25109 -7.83924,0.54767 -8.59207,0.69823 -1.47926,10.37908 -5.74423,20.33595 -8.88299,29.7522 -1.46291,4.38875 -2.7597,8.80279 -4.16996,13.03355 -0.74215,2.22646 -0.004,4.70114 -1.04734,6.78831 -2.97915,5.95831 -6.18702,24.08884 -1.04734,29.22853 1.40533,1.40532 3.58586,1.27896 5.2173,2.09468 7.96896,3.98448 18.83896,3.27362 26.10591,-1.57101 6.82912,-4.55275 17.15761,-26.97672 19.82187,-34.9695 2.41289,-7.23869 2.36503,-15.14293 4.18935,-22.44022 0.64111,-2.56438 4.29772,-22.31246 2.59896,-24.01122 -0.5574,-0.5574 -2.00639,-0.6877 -3.56871,-0.67883 z"
       id="path9290"
       inkscape:connector-curvature="0"
       sodipodi:nodetypes="ssssssscssscccssssssssss" />
    <path
       style="fill:#fa765b;fill-opacity:1;stroke:#ffffff;stroke-width:0.62064558000000003px;stroke-linecap:butt;stroke-linejoin:miter;stroke-opacity:0"
       d="m 410.56809,317.04627 c -8.3293,-6.74162 -16.82425,-12.46571 -25.57535,-11.48281 -3.72121,0.41795 -8.57328,0.22215 -11.48281,3.13168 -5.54304,5.54304 -7.16382,8.79896 -5.7414,14.61448 2.06171,8.42933 12.75624,18.49766 19.83394,25.57535 3.701,3.701 9.59817,9.17801 4.69751,14.09254 -4.18742,4.19927 -8.72877,2.89834 -12.00475,0 -2.19438,-1.94142 -1.32301,-5.77769 -2.60973,-8.35114 -0.38486,-0.76971 0.58514,-3.06847 0,-3.65362 -0.18459,-0.18459 -14.39463,2.38988 -14.61448,2.60973 -0.72407,0.72406 -1.95783,2.47978 -2.60973,3.13168 -1.07574,1.07573 0.0147,9.94639 0.52194,10.96086 1.40977,2.81955 0.151,7.08731 1.56584,9.91697 1.65469,3.30937 2.78139,8.52279 5.21946,10.96086 3.51157,3.51157 10.23576,6.37112 15.65838,5.74141 4.49459,-0.52194 9.48083,0.47905 13.04864,-3.13167 1.28123,-1.29664 3.92959,-4.7275 4.69751,-6.26335 1.69168,-3.38335 4.5286,-5.75663 5.74141,-9.39503 2.44452,-7.33355 3.58844,-18.92041 0,-26.09729 -3.10925,-6.2185 -4.98611,-5.56786 -8.87309,-11.48281 -2.00078,-3.04469 -3.7406,-5.8284 -6.78528,-8.87309 -3.25618,-3.25618 1.02044,-6.2868 3.65362,-3.65362 2.91631,2.91631 7.60048,11.25411 9.39502,13.04865 0.66855,0.66855 11.7577,-7.06019 12.5267,-7.82919 -2.99704,-5.38998 -2.43781,-10.32497 -6.26335,-13.57059 z"
       id="path9334"
       inkscape:connector-curvature="0"
       sodipodi:nodetypes="csssssssssssssssssssssscc" />
    <path
       style="fill:#fa765b;fill-opacity:1;stroke:#ffffff;stroke-width:0.62064558000000003px;stroke-linecap:butt;stroke-linejoin:miter;stroke-opacity:0"
       d="m 417.88169,308.86451 c -2.42842,10.50802 -2.93632,21.41134 -6.21177,31.73055 -0.0292,3.47008 -1.54776,6.56924 -2.21921,9.90128 -0.575,4.11978 -1.19447,8.27312 -2.8614,12.10929 -0.60347,4.05788 -1.56124,7.96886 -1.82517,11.97251 -1.00446,4.38964 -1.4139,9.03696 -3.3577,13.10191 -0.68111,3.46035 -0.31899,7.16325 4.02994,7.43635 4.27644,0.69809 10.00031,2.45501 13.62579,-0.041 0.11458,-3.36573 2.45059,-6.72251 2.40644,-10.405 1.25355,-8.22935 1.82175,-15.73973 2.22168,-19.39125 0.70785,-3.22323 1.25385,-10.53343 4.44262,-12.67431 4.3033,-0.83281 4.41631,1.73271 4.40065,4.27847 -0.9605,6.79297 -2.41995,13.5096 -4.1517,20.13185 -0.63191,3.79344 -0.25823,7.84168 -1.95694,11.36191 -0.19101,2.9254 -3.87409,8.36954 1.9452,7.08763 4.90379,0.0856 9.90161,0.88861 14.75393,-0.0485 2.34469,-2.82486 2.26323,-7.03544 3.17694,-10.53371 1.23368,-6.71299 2.03116,-13.5759 4.77625,-19.89392 1.43818,-4.48042 1.26467,-8.96057 1.42212,-13.79242 1.03752,-3.82355 2.53781,-10.27885 3.3115,-14.20359 0.37295,-5.74663 2.16405,-11.20113 2.98144,-15.0155 1.31147,-3.85238 1.96086,-6.9637 2.88743,-10.90788 1.19598,-3.87478 -0.0303,-9.11911 -5.18618,-7.6099 -4.13105,0.41537 -8.02464,1.84784 -12.24625,1.62864 -3.78599,0.88121 -4.15671,5.63962 -4.16042,8.85064 0.33897,3.71556 -0.22389,7.33746 -1.65324,10.77175 -0.93478,5.45992 -1.50123,8.2963 -2.4087,13.13199 -3.05645,1.72489 -8.38227,1.46009 -6.97778,-2.06073 1.93541,-8.01449 3.33772,-18.55519 4.77299,-26.64794 2.06427,-2.36981 -0.64749,-4.00459 -4.66379,-3.03781 -3.58216,0.15641 -7.99477,-0.85125 -10.637,2.22767 z"
       id="path9336"
       inkscape:connector-curvature="0"
       sodipodi:nodetypes="cccccccccccccccccccccccccccccccc" />
    <path
       style="fill:#fa765b;fill-opacity:1;stroke:#ffffff;stroke-width:1px;stroke-linecap:butt;stroke-linejoin:miter;stroke-opacity:0"
       d="m 479.37181,306.69591 c -1.24771,0.0934 -2.33524,0.43933 -2.99541,1.18593 -0.45937,0.51952 -3.39737,0.43358 -4.11201,0.84752 -3.72608,2.15828 -11.95873,7.04577 -13.63344,10.98177 -1.86314,4.37883 -3.90096,8.80699 -5.12524,13.40204 -1.20658,4.52861 -0.92451,9.66885 -2.71639,13.88021 -1.41029,3.31454 0.49055,11.09061 -0.90207,14.36361 -1.13517,2.66793 -1.90843,13.12812 -0.20212,16.0739 1.62959,2.81334 0.80636,7.24744 2.39883,9.99671 5.18636,8.95376 9.87178,9.82309 14.30694,10.23534 11.78188,0.94039 20.57787,-3.98916 23.4352,-8.0975 5.31557,-7.64288 9.55829,-25.60787 9.76711,-43.19121 0.0403,-3.39763 -2.00922,-8.16381 -0.69184,-11.26001 0.98857,-2.32337 1.0196,-16.50143 -1.13071,-18.4028 l -8.1795,-7.26205 c -1.09361,-0.96699 -6.47622,-3.03352 -10.21935,-2.75346 z m -3.01633,19.18985 c 1.43579,-0.10986 2.77505,0.15305 3.55858,0.84586 1.46564,1.29597 1.46977,4.06979 2.17321,5.81517 4.54526,11.27772 2.27216,24.07027 0.3431,35.13885 -0.60678,3.48154 -4.61308,8.01674 -10.19402,8.35965 -11.47419,-5.74669 -7.43475,-33.4637 -1.69518,-46.95317 0.77765,-1.82764 3.42134,-3.02323 5.81431,-3.20636 z"
       id="path9352"
       inkscape:connector-curvature="0"
       sodipodi:nodetypes="csssssssscscsccccssscsc" />
    <path
       style="fill:#fa765b;fill-opacity:1;stroke:#ffffff;stroke-width:1px;stroke-linecap:butt;stroke-linejoin:miter;stroke-opacity:0"
       d="m 499.30814,307.50281 c 0.0794,10.50507 -1.18931,20.25078 -1.18931,30.92218 0,7.13589 0,14.27178 0,21.40766 0,3.71813 0.0319,31.34494 2.37862,36.2741 1.91094,4.01389 11.05475,1.18932 13.67712,1.18932 1.70275,0 8.3958,0.52407 9.51453,-0.59466 0.98255,-0.98255 4.28284,-19.03558 4.75725,-21.40766 1.40057,-7.00284 4.91627,-14.15416 7.13589,-20.81301 3.94325,-11.82974 6.98366,-23.92427 10.70383,-35.08479 0.65462,-1.96384 0.44629,-3.86586 1.18932,-5.35191 1.42891,-2.85782 3.66621,-11.20023 1.78397,-13.08247 -2.43734,-2.43734 -12.11589,2.97329 -14.86643,2.97329 -1.86672,0 -2.52988,0.7459 -3.56795,1.78397 -0.93945,0.93946 -10.10917,36.0597 -10.10917,38.65273 0,1.26409 -2.10574,11.29849 -2.37863,11.29849 -0.17967,0 -1.18932,-16.93944 -1.18932,-18.43438 0,-9.25731 -1.78397,-18.74453 -1.78397,-27.94889 0,-1.00839 1.06218,-4.8844 0.59466,-5.35192 -0.3851,-0.3851 -1.25539,0.59466 -1.78397,0.59466 -3.92421,0 -10.70578,2.14115 -14.86644,2.97329 z"
       id="path9370"
       inkscape:connector-curvature="0"
       sodipodi:nodetypes="cssssssssssssssssssc" />
    <path
       style="fill:#fa765b;fill-opacity:1;stroke:#ffffff;stroke-width:1px;stroke-linecap:butt;stroke-linejoin:miter;stroke-opacity:0"
       d="m 548.6647,307.50281 c -2.64431,7.68928 -2.65702,20.77514 -5.94657,27.35424 -1.41466,2.82931 0.25897,7.2126 -1.18932,10.10917 -1.05643,2.11286 -1.31218,9.04273 -2.97328,15.46109 -1.2283,4.74606 -2.97329,16.28339 -2.97329,23.19164 0,3.96803 -3.09393,10.58319 0,13.67712 0.81124,0.81124 2.71076,-0.59466 2.97329,-0.59466 2.5818,0 12.93324,0.52006 19.02904,0 8.15125,-0.087 14.37703,1.43402 14.86643,1.18932 0.50146,-0.25073 0.93858,-0.68786 1.18931,-1.18932 0.79052,-1.58104 1.78397,-4.87119 1.78397,-6.54123 0,-0.48338 2.95174,-12.46626 2.97329,-12.4878 2.17024,-2.17025 -7.20094,-1.78398 -8.3252,-1.78398 -2.4247,0 -10.25477,-1.04372 -11.89315,0.59466 -0.34673,0.34673 -5.31142,3.01379 -5.94657,2.37863 -0.91285,-0.91285 0,-7.58562 0,-8.91986 0,-2.50636 0.0534,-8.4321 1.18931,-10.70383 1.51821,-3.03641 16.15928,-2.37863 20.21835,-2.37863 1.26439,0 4.63015,0.12711 5.35192,-0.59466 2.73431,-2.73431 0.64179,-14.91357 2.97328,-17.24506 2.27846,-2.27846 -7.03872,-2.97329 -7.73054,-2.97329 -3.91193,0 -9.74806,-1.6672 -13.08246,0 -0.53887,0.26943 -4.32139,1.62519 -4.75726,1.18931 -0.80007,-0.80006 -0.59466,-2.5577 -0.59466,-4.1626 0,-1.88045 1.32663,-4.89457 2.37863,-5.94657 1.03265,-1.03265 24.17377,-0.49107 27.9489,-2.37863 2.87365,-1.43683 1.65824,-9.85773 2.97328,-12.48781 0.48062,-0.96123 0.008,-4.76542 0.59466,-5.35191 0.14671,-0.14671 1.3402,-2.22775 1.18932,-2.37863 -1.68286,-1.68286 -35.86485,5.51562 -42.22068,2.97329 z"
       id="path9372"
       inkscape:connector-curvature="0"
       sodipodi:nodetypes="csssssscssscsssscssssscsssscsc" />
    <path
       style="fill:#fa765b;fill-opacity:1;stroke:#ffffff;stroke-width:1px;stroke-linecap:butt;stroke-linejoin:miter;stroke-opacity:0"
       d="m 607.83859,297.71059 c -3.86014,0.96119 -7.65943,0.1618 -11.20322,2.50742 -3.81788,0.0987 -2.70089,5.18268 -3.642,7.88477 -1.21059,9.25984 -1.24768,18.66538 -3.26029,27.81835 -1.0909,7.43328 -1.45154,16.22465 -2.05719,22.80909 -1.10872,7.94249 -2.02218,15.43658 -3.11995,23.3759 -1.94717,4.15517 -1.45346,8.90649 -3.28378,13.07632 -1.57844,5.92159 5.99735,2.15408 9.00393,1.8719 4.364,-0.12893 8.7571,-0.0783 13.09375,-0.59375 2.04816,-4.85447 0.87453,-10.44316 0.94278,-15.59002 -0.14412,-4.80802 -0.70052,-9.63741 -0.3656,-14.44065 1.57265,-3.54555 7.02739,-2.06774 10.36265,-2.51762 4.97582,0.0548 2.02787,6.23002 3.47363,9.19934 1.87064,7.68245 2.32755,15.64424 4.02404,23.34895 4.45017,1.4118 9.26345,-0.9435 13.75171,0.62265 3.16149,1.47382 6.70175,-0.44442 3.96184,-3.87141 -1.99795,-3.70148 -2.3262,-8.01041 -4.54568,-11.65594 -2.13376,-4.9854 -5.31408,-9.53762 -7.08798,-14.64555 0.0562,-3.19472 -1.96661,-6.20841 -2.88306,-8.68443 3.31571,-1.80316 6.8722,-3.58321 8.61385,-7.14321 4.31832,-7.60226 6.84455,-16.54753 5.2497,-25.3019 -1.21877,-6.73808 -3.61302,-13.33185 -6.87643,-19.3312 -4.74285,-4.4457 -11.2382,-6.45465 -17.41963,-8.03019 -2.20797,-0.47218 -4.4684,-0.83159 -6.73307,-0.70882 z m 11.59375,17.875 c 2.07431,3.42015 3.62142,7.24682 4.81092,11.08467 2.1806,7.13403 0.59404,15.93397 -5.86191,20.35504 -4.14905,2.83712 -9.11774,0.70916 -13.9331,1.94587 -0.86371,-4.00844 0.54727,-6.27228 0.32473,-10.97746 0.6094,-4.21503 1.19806,-8.11646 0.83973,-12.24616 -0.39401,-4.18192 -0.17708,-7.83779 0.72951,-11.9423 5.65781,-2.52472 9.55252,0.86921 13.09012,1.78034 z"
       id="path9387"
       inkscape:connector-curvature="0"
       sodipodi:nodetypes="cccccccccccccccccccccccccccccccc" />
  </g>
</svg>
