<?xml version="1.0" encoding="UTF-8" standalone="no"?>
<!-- Created with Inkscape (http://www.inkscape.org/) -->

<svg
   xmlns:dc="http://purl.org/dc/elements/1.1/"
   xmlns:cc="http://creativecommons.org/ns#"
   xmlns:rdf="http://www.w3.org/1999/02/22-rdf-syntax-ns#"
   xmlns:svg="http://www.w3.org/2000/svg"
   xmlns="http://www.w3.org/2000/svg"
   xmlns:sodipodi="http://sodipodi.sourceforge.net/DTD/sodipodi-0.dtd"
   xmlns:inkscape="http://www.inkscape.org/namespaces/inkscape"
   width="744.09448819"
   height="1052.3622047"
   id="svg2"
   version="1.1"
   inkscape:version="0.48.1 r9760"
   sodipodi:docname="quacks_like_a_duck.svg">
  <defs
     id="defs4" />
  <sodipodi:namedview
     id="base"
     pagecolor="#ffffff"
     bordercolor="#666666"
     borderopacity="1.0"
     inkscape:pageopacity="0.0"
     inkscape:pageshadow="2"
     inkscape:zoom="0.98994949"
     inkscape:cx="225.87709"
     inkscape:cy="867.96452"
     inkscape:document-units="px"
     inkscape:current-layer="layer1"
     showgrid="false"
     inkscape:window-width="1364"
     inkscape:window-height="766"
     inkscape:window-x="0"
     inkscape:window-y="0"
     inkscape:window-maximized="0" />
  <metadata
     id="metadata7">
    <rdf:RDF>
      <cc:Work
         rdf:about="">
        <dc:format>image/svg+xml</dc:format>
        <dc:type
           rdf:resource="http://purl.org/dc/dcmitype/StillImage" />
        <dc:title></dc:title>
      </cc:Work>
    </rdf:RDF>
  </metadata>
  <g
     inkscape:label="Layer 1"
     inkscape:groupmode="layer"
     id="layer1">
    <path
       style="fill:#a02c2c;stroke:#000000;stroke-width:1px;stroke-linecap:butt;stroke-linejoin:miter;stroke-opacity:1"
       d="m 292.94424,266.96858 c -1.65349,-1.1044 -16.57707,2.61582 -16.66751,2.52538 -3.3478,-3.3478 -6.00202,-21.83608 -3.03046,-27.7792 1.6261,-3.25219 -0.42236,-10.77202 1.51523,-14.64721 0.91377,-1.82754 0.50507,-18.56329 0.50507,-21.71828 0,-9.65817 1.51523,-18.36827 1.51523,-27.77919 0,-3.35453 -1.06092,-9.54568 1.51523,-12.12183 3.05,-3.05 20.5225,-2.71101 22.72843,-0.50508 0.1337,0.1337 0,1.30726 0,1.51523 0,3.07757 -4.01913,3.03046 -6.56599,3.03046 -4.221,0 -10.5035,0.29887 -12.12183,3.53553 -0.70142,1.40285 0.47363,3.06191 -0.50507,4.04061 -1.15347,1.15347 0.14265,27.13146 0,27.27412 -1.82886,1.82886 -0.0784,8.82148 -1.01016,11.61675 -2.65714,7.97145 -3.03045,18.31386 -3.03045,27.27412 0,2.38083 0.59463,17.76723 1.51522,18.68783 1.21696,1.21695 11.94313,-1.18886 13.63706,0.50507 1.07143,1.07143 0,3.03046 0,4.54569 z"
       id="path4084"
       inkscape:connector-curvature="0" />
    <path
       style="fill:#a02c2c;stroke:#000000;stroke-width:1px;stroke-linecap:butt;stroke-linejoin:miter;stroke-opacity:1"
       d="m 296.12552,191.13658 c 2.5759,-4.77039 22.1576,-16.29916 32.15215,-2.06152 2.521,3.59127 0.62959,12.64867 -2.61343,14.92521 -0.52294,0.36709 -5.97937,4.86432 -5.75911,3.60642 0.0219,-0.12516 2.99113,1.93209 3.22121,2.10233 3.91778,2.89868 3.48531,3.10014 5.59645,6.10755 1.72707,2.46028 2.34314,17.34041 -0.002,20.51007 -1.23779,1.67298 -4.61748,3.67774 -5.93333,4.60144 -3.57206,2.50752 -17.29737,7.68263 -21.35604,1.90088 -2.1826,-3.10921 -3.61967,-6.59258 -4.81242,-10.58511 -0.17217,-0.57632 -0.34262,-4.12303 -0.88272,-3.74389 -0.88955,0.62445 0.0953,-1.376 0.26135,-1.49252 0.68258,-0.47916 5.59904,0.46763 6.5547,0.63497 0.82918,0.14519 2.63273,-0.3936 2.48754,0.43558 -0.46077,2.63146 -1.19611,7.48197 3.66835,8.33375 0.93821,0.16428 2.33065,0.5457 3.07216,0.0252 6.82789,-4.79305 5.61412,-13.75862 1.40743,-19.75123 -0.92186,-1.31321 -3.33864,-1.09735 -4.39045,-1.28153 -0.68376,-0.11973 0.24981,-1.50899 -0.14904,-2.07714 -0.65784,-0.93711 1.21203,-3.83397 0.87114,-4.97507 -0.14648,-0.4903 -0.72662,-3.85348 -0.2981,-4.15428 3.62037,-2.54143 5.50905,-2.17839 6.45601,-7.58648 0.12599,-0.71952 0.37796,-2.56959 0.0252,-3.07215 -2.09039,-2.97785 -7.15925,-0.21061 -9.47781,1.41697 -1.60103,1.1239 -1.64732,4.64723 -3.0354,5.62163 -0.0346,0.0243 -3.56444,-1.42502 -4.47756,-0.78402 -0.56916,0.39954 -4.80555,1.20957 -5.32352,1.11887 -0.17348,-0.0304 0.86345,-2.00283 1.19441,-3.89294 z"
       id="path4086"
       inkscape:connector-curvature="0"
       sodipodi:nodetypes="cssssssssssssssssscsssssssscc" />
    <path
       style="fill:#a02c2c;stroke:#000000;stroke-width:1px;stroke-linecap:butt;stroke-linejoin:miter;stroke-opacity:1"
       d="m 342.94679,238.68431 c -0.71546,0.54474 -3.80362,0.74205 -6.56599,-2.02031 -1.83758,-1.83758 1.81955,-4.85 2.52538,-5.55584 3.29943,-3.29943 7.99837,-0.0829 10.10153,2.02031 0.56175,0.56174 0.50508,2.63226 0.50508,3.53553 0,5.95897 -2.94599,11.61676 -8.5863,11.61676 -0.69459,0 -3.50455,-4.0716 -2.52538,-5.05077 1.63818,-1.63818 3.18597,0.89318 4.54568,-4.54568 z"
       id="path4140"
       inkscape:connector-curvature="0" />
    <path
       style="fill:#a02c2c;stroke:#000000;stroke-width:1px;stroke-linecap:butt;stroke-linejoin:miter;stroke-opacity:1"
       d="m 360.62447,182.11577 c -5.02624,5.60251 -4.10112,18.74832 -9.09138,23.73858 -0.22823,0.22823 -1.81724,4.24368 -1.01015,5.05077 0.22214,0.22214 20.24891,-1.46937 21.71828,0 0.44465,0.44464 -1.29732,4.90211 -1.51523,5.55583 -0.77769,2.33307 0.0528,6.32514 0.50508,8.5863 0.88988,4.4494 -1.01015,8.76901 -1.01015,12.62691 0,0.98924 -1.24133,4.31451 -0.50508,5.05076 0.43249,0.43249 5.56795,-1.26875 6.06091,-1.51523 1.09558,-0.54779 4.70537,0.85048 5.55584,0 2.21086,-2.21086 0,-18.12548 0,-22.72843 0,-1.09408 -0.41228,-6.06092 0.50508,-6.06092 2.45579,0 11.04895,0.0627 11.61675,-0.50507 0.21157,-0.21157 -1.51523,-2.77519 -1.51523,-3.53554 0,-1.59187 -0.70181,-4.74242 -1.51522,-5.55583 -1.53152,-1.53152 -7.49692,2.6046 -8.5863,1.51522 -0.6956,-0.6956 -0.50508,-19.4098 -0.50508,-22.22335 0,-1.94688 -1.69049,-1.01015 -4.04061,-1.01015 -0.72343,0 -4.08525,-0.46044 -4.54568,0 -0.30501,0.30501 0,2.55148 0,3.03045 0,2.99468 1.3161,9.48963 0,12.12183 -0.70049,1.40097 -1.01016,3.14951 -1.01016,4.54569 0,0.66151 -0.34888,2.68158 -1.51522,1.51523 -1.85725,-1.85725 -6.45527,0.50508 -8.08123,0.50508 -0.23809,0 0.33672,-0.33672 0.50508,-0.50508 0.36391,-0.36391 0.7084,-2.42695 1.01015,-3.03046 0.71868,-1.43735 5.14457,-15.56356 4.54569,-16.16244 -0.35319,-0.35319 -6.99013,-0.77575 -7.57614,-1.01015 z"
       id="path4142"
       inkscape:connector-curvature="0" />
    <path
       style="fill:#a02c2c;stroke:#000000;stroke-width:1px;stroke-linecap:butt;stroke-linejoin:miter;stroke-opacity:1"
       d="m 399.01026,242.21984 c -3.64822,0.56297 -4.95744,0.18664 -6.56599,-3.03046 -0.47469,-0.94938 0.20168,-2.22198 0.50508,-2.52538 3.72202,-3.72203 10.28674,-1.33001 13.13198,1.51523 0.1968,0.1968 0,1.71209 0,2.0203 0,1.55829 0.62529,2.79003 0,4.04061 -0.5895,1.17901 -7.83331,6.81391 -9.09137,5.55584 -0.50508,-0.50507 -0.50508,-1.51523 -1.01016,-2.0203 -0.26466,-0.26466 -1.51523,-1.14339 -1.51523,-1.51523 0,-0.28336 1.77338,-0.38161 2.02031,-0.50508 1.60958,-0.80479 2.09744,-1.82376 2.52538,-3.53553 z"
       id="path4144"
       inkscape:connector-curvature="0" />
    <path
       style="fill:#a02c2c;stroke:#000000;stroke-width:1px;stroke-linecap:butt;stroke-linejoin:miter;stroke-opacity:1"
       d="m 446.48743,178.07515 c -1.2563,-0.93623 -4.92075,0.50508 -11.11168,0.50508 -1.77275,0 -17.75806,1.59562 -18.18274,2.02031 -0.89632,0.89631 -0.67996,4.19592 0,5.55583 1.50802,3.01606 -1.2268,22.00672 0.50507,23.73859 1.25021,1.2502 4.71888,-0.39445 6.56599,-1.01015 1.21106,-0.40369 2.79915,0.31036 4.04061,0 7.97295,-1.99324 14.05237,0.32552 17.1726,6.56599 0.64851,1.29703 1.77349,6.04946 1.01015,7.57614 -2.46611,4.93222 -8.54888,12.39308 -16.16244,8.5863 -1.23676,-0.61838 -3.30893,0.1133 -4.54569,-0.50508 -1.61658,-0.80829 -3.77831,-6.06091 -5.05076,-6.06091 -1.02409,0 0.21906,2.30632 -0.50508,3.03046 -5.07351,5.07351 -1.59424,5.9819 2.52539,10.10152 1.45993,1.45993 5.50951,-0.0232 7.57614,1.01015 2.77877,1.38939 7.43024,1.33564 10.10153,0 3.72201,-1.86101 6.61179,-2.0661 9.59644,-5.05076 0.86473,-0.86472 1.08514,-2.67534 1.51523,-3.53553 4.083,-8.166 4.48923,-20.25952 -2.52538,-27.27412 -3.61775,-3.61776 -12.27599,-8.00414 -18.18274,-5.05076 -0.53646,0.26823 -4.78611,1.77988 -5.05077,1.51522 -0.82812,-0.82812 0.12223,-5.31139 -0.50507,-6.56599 -4.50231,-9.00461 20.91856,-4.25104 23.73858,-7.07107 0.55255,-0.55255 -2.19486,-7.53036 -2.52538,-8.08122 z"
       id="path4146"
       inkscape:connector-curvature="0" />
    <path
       style="fill:#a02c2c;stroke:#000000;stroke-width:1px;stroke-linecap:butt;stroke-linejoin:miter;stroke-opacity:1"
       d="m 448.00266,157.8721 c -0.30636,1.89779 -1.58339,9.56238 0.50507,10.60661 1.21218,0.60609 3.33351,-0.6061 4.54569,0 1.37973,0.68986 8.15182,1.73247 9.59645,1.01015 0.66066,-0.33033 4.80601,-1.25491 5.55584,-0.50508 0.92855,0.92856 -1.01016,14.65604 -1.01016,16.66752 0,5.31123 2.99169,30.38213 1.01016,34.34519 -2.61953,5.23905 -4.04061,26.47701 -4.04061,33.84011 0,0.64239 0.40888,3.63172 0,4.04061 -1.9385,1.93849 -18.54662,-0.22266 -15.65737,5.55584 0.31884,0.63766 -0.48487,2.54558 0,3.03045 0.28731,0.28731 15.29959,-2.0203 20.20305,-2.0203 1.83969,0 2.52538,-0.1884 2.52538,-2.02031 0,-4.16895 1.01346,-30.81296 2.02031,-31.8198 1.18866,-1.18866 -0.41027,-15.84697 1.01015,-18.68782 0.69253,-1.38507 -1.05267,-5.51332 0,-6.566 1.96706,-1.96706 2.52538,-28.00899 2.52538,-32.32488 0,-1.68187 1.58042,-12.05664 1.01016,-12.6269 -0.64743,-0.64743 -3.18887,0.42587 -4.04061,0 -4.78015,-2.39008 -15.3293,1.67926 -19.69798,-0.50508 -2.00419,-1.0021 -3.77212,-1.56255 -6.06091,-2.02031 z"
       id="path4148"
       inkscape:connector-curvature="0" />
    <path
       style="fill:#ffe559;fill-opacity:1;stroke:#000000;stroke-width:1px;stroke-linecap:butt;stroke-linejoin:miter;stroke-opacity:1"
       d="m 134.62244,212.92542 c 0.60683,8.67095 1.66296,20.77002 -1.01016,28.78935 -0.61909,1.85729 0.0943,4.26268 -0.50507,6.06091 -1.04312,3.12936 0.95588,7.68468 -0.50508,10.6066 -0.64212,1.28425 -1.32699,9.46785 -1.01015,10.10153 1.26373,2.52745 4.79249,4.28741 7.57614,7.07107 2.15608,2.15608 3.98981,4.99996 6.06092,7.07107 2.51803,2.51803 6.24129,7.43183 7.57614,10.10152 0.23809,0.47619 -0.0273,1.51523 0.50508,1.51523 1.40707,0 -4.01982,-4.52489 -4.04062,-4.54569 -5.35624,-5.35624 -10.41241,-2.17575 -14.14213,-4.04061 -0.24692,-0.12346 -1.04115,-0.97915 -1.51523,-0.50507 -0.92597,0.92597 -3.61971,0.0842 -4.54568,1.01015 -1.58272,1.58271 -4.72683,3.71668 -6.06092,5.05076 -0.14626,0.14626 -1.35916,2.17637 -1.51523,2.02031 -1.01763,-1.01764 4.92695,-11.11168 -9.09137,-11.11168 -2.98982,0 -13.131979,0.21009 -13.131979,2.0203 0,0.58571 5.232139,-2.20168 5.555839,-2.52538 4.09077,-4.09078 8.43681,-7.24886 13.13198,-9.59645 1.80684,-0.90342 4.269,-2.75377 5.55584,-4.04061 0.7705,-0.7705 0.20461,-8.49043 1.01015,-10.10152 1.46108,-2.92216 0.47749,-6.48324 1.51523,-9.59645 3.13369,-9.40106 2.52538,-22.39975 2.52538,-32.82996"
       id="path4002"
       inkscape:connector-curvature="0" />
    <path
       style="fill:#ffe559;fill-opacity:1;stroke:#000000;stroke-width:1px;stroke-linecap:butt;stroke-linejoin:miter;stroke-opacity:1"
       d="m 204.56748,210.90512 c 0.48017,3.30315 1.06601,7.24097 0.50507,10.6066 -1.9475,11.68503 -1.01015,23.79211 -1.01015,35.35534 0,3.3071 -1.02268,10.08899 1.01015,12.12183 2.66584,2.66583 8.97188,4.4262 11.61675,7.07106 0.98388,0.98389 3.5618,3.56181 4.54569,4.54569 0.53239,0.5324 0.25722,2.02031 1.01015,2.02031 0.0851,0 -1.79146,-0.50508 -2.52538,-0.50508 -2.05686,0 -5.29265,-1.27334 -7.07107,0.50508 -0.92709,0.92709 -2.60405,1.8071 -4.0406,2.52538 -1.35125,0.67562 -2.56129,3.06636 -3.53554,4.04061 -0.95792,0.95792 -1.51522,8.13944 -1.51522,6.56599 0,-2.86331 -5.36667,-6.56599 -8.08122,-6.56599 -4.70896,0 -7.35285,-0.36419 -11.11168,1.51523 -0.46242,0.23121 -3.2692,2.0203 -3.03046,2.0203 1.71608,0 4.41413,-7.44458 6.06091,-9.09137 2.29136,-2.29136 2.24817,-5.00141 3.53554,-7.57615 1.3358,-2.67161 2.24735,-5.2778 4.04061,-7.07106 1.13368,-1.13368 -0.74583,-5.57942 0,-7.07107 3.55514,-7.11028 1.01015,-36.64714 1.01015,-45.45687"
       id="path4000"
       inkscape:connector-curvature="0" />
    <path
       style="fill:#ffe559;fill-opacity:1;stroke:#000000;stroke-width:1px;stroke-linecap:butt;stroke-linejoin:miter;stroke-opacity:1"
       d="m 159.09902,218.48126 c 1.04602,12.29667 -2.70949,34.80301 1.01015,45.96194 0.50508,1.51523 -0.50507,3.53553 0,5.05076 0.0609,0.18259 0.16166,12.46525 0,12.62691 -1.84864,1.84864 -12.36876,8.70976 -15.15228,10.10152 -2.7897,1.39485 -4.43229,4.43229 -6.06092,6.06092 -0.64109,0.64109 -0.10351,2.52538 -1.01015,2.52538 -1.28218,0 2.38871,-0.94182 3.53553,-1.51523 2.13062,-1.06531 8.34931,-3.65403 11.61676,-2.0203 4.41933,2.20966 6.50142,2.39624 8.58629,6.56599 0.16836,0.33671 0.88154,1.01015 0.50508,1.01015 -0.29033,0 1.01015,-2.44033 1.01015,-4.54569 0,-4.8275 5.83093,-4.93576 9.09138,-6.56599 2.1355,-1.06775 10.89748,1.66067 12.6269,2.52538 1.54759,0.7738 3.03046,2.0783 3.03046,2.02031 0,-1.72539 -2.65572,-1.64557 -3.53553,-2.52538 -1.96313,-1.96313 -5.91141,-3.38603 -7.57615,-5.05077 -2.54502,-2.54502 -5.56921,-4.55905 -8.5863,-7.57614 -0.98369,-0.98369 -2.0203,-21.99627 -2.0203,-25.25381 0,-4.24229 -0.43445,-25.32444 1.01015,-26.76905 1.28976,-1.28976 0.61437,-10.71589 -0.50507,-9.59645"
       id="path3985"
       inkscape:connector-curvature="0" />
    <path
       style="fill:#fcfce4;stroke:#000000;stroke-width:1px;stroke-linecap:butt;stroke-linejoin:miter;stroke-opacity:1;fill-opacity:1"
       d="m 235.36555,222.52187 c 2.98149,-2.9815 7.30675,-6.80168 11.11167,-10.6066 3.48873,-3.48873 9.57643,-2.97039 11.11168,-7.57615 1.61512,-4.84535 6.8885,-8.54367 8.5863,-13.63706 5.38834,-16.16503 8.50113,-31.06515 3.03045,-47.47717 -1.56003,-4.68011 -3.74397,-14.35058 -7.07106,-17.67767 -1.6035,-1.6035 -3.33115,-3.93841 -5.55584,-5.05076 -0.7511,-0.37555 -2.4484,-0.42809 -3.03046,-1.01015 -1.70979,-1.70979 11.61675,-13.35491 11.61675,-14.14214 0,-0.39405 -3.8904,0.50508 -4.04061,0.50508 -1.56084,0 -7.11469,-0.46145 -8.08122,0.50507 -1.07666,1.07667 -4.09083,1.79288 -5.55584,2.52538 -4.51002,2.25502 -6.54378,10.5844 -10.10152,14.14214 -5.20773,5.20772 -1.13387,1.89318 -9.09138,4.54568 -2.88773,0.96258 -14.07588,7.86871 -16.66751,9.59646 -2.15226,1.43484 -7.88409,-0.0986 -10.10152,1.01015 -4.42054,2.21027 -24.2882,9.13591 -25.75889,10.6066 -1.01013,1.01013 -5.04576,-1.00506 -6.06092,0 -3.61191,-1.80595 -4.04569,-9.60661 -6.06091,-13.63706 -3.36779,-6.73556 -5.67738,-2.92788 -4.04062,-11.11168 0.64671,-3.23354 0.87944,-6.41749 1.51523,-9.59645 1.24259,-6.21292 5.7618,-11.87911 8.08122,-17.677666 1.88833,-4.720828 3.33571,-9.302235 4.54569,-14.142135 1.04969,-4.198789 4.00059,-7.921161 5.05076,-12.121831 1.97218,-7.888714 0.89315,-19.155834 -1.01015,-26.769042 -1.2161,-4.864395 -4.49099,-11.562054 -8.08122,-15.152289 C 159.60547,18.47242 130.68572,15.50511 118.69292,21.50151 c -6.15273,3.076365 -8.2912,8.501179 -11.11167,14.142135 -4.00612,8.012223 -0.21028,18.526454 -3.53554,27.274119 0.84242,1.746586 -0.0977,13.539342 1.01015,14.647212 3.3427,3.342694 0.0504,13.232746 2.02031,17.172593 1.40119,2.802374 3.11242,36.201561 1.51523,39.395951 -3.05144,6.10288 -3.82454,14.21507 -7.07107,20.70813 -1.675809,3.35161 -1.14975,11.75635 -4.040609,14.64721 -0.403132,0.40313 0.264948,1.99548 0,2.52538 -1.134208,2.26841 -2.189153,12.96313 -0.505077,14.64721 0.308179,0.30818 -0.505076,6.00883 -0.505076,7.07107 0,2.66275 2.862185,10.9434 4.545682,12.62691 5.6209,5.62089 18.78499,14.69579 25.75889,18.18274 3.29345,1.64672 7.68703,2.39398 11.11168,3.53554 6.15154,2.05051 14.32604,-1.27642 20.70813,0 3.23313,0.64662 20.30037,-4.08927 23.23351,-5.55584 0.87418,-0.43709 31.45318,-5.99169 33.33503,-5.05076 1.83862,0.9193 4.26296,0.61624 6.06092,1.51522 3.97127,1.98564 6.66672,3.83844 10.10153,5.55584 1.13091,0.56546 4.69595,-2.0203 6.56599,-2.0203"
       id="path3757"
       inkscape:connector-curvature="0"
       sodipodi:nodetypes="csssssssssssssssscsssssssssscssssssssssssssssc" />
    <path
       style="fill:#f8f7b8;fill-opacity:1;stroke:none"
       d="m 260.61935,106.8594 c -0.67343,0.50508 -1.51522,2.18866 -2.0203,1.51523 -0.50508,-0.67344 2.61554,-2.11047 2.0203,-1.51523 -3.30974,3.30974 -4.92233,4.92234 -7.57614,7.57614 -1.09433,1.09434 0.0842,4.46151 -1.01015,5.55584 -0.0787,0.0787 -1.13916,0.88115 -0.50508,1.51523 0.47748,0.47748 2.60793,0.0826 3.03046,0.50508 3.45918,3.45918 7.14797,8.23502 9.59645,13.13198 6.39298,12.78597 5.80181,33.34816 -1.01015,46.97209 -0.57754,1.15508 -8.44232,14.79119 -9.59645,13.63706 -0.78022,-0.78021 3.53847,-13.13492 4.04061,-13.63706 4.39611,-4.39611 -12.68245,2.63647 -10.10153,-2.52538 1.35946,-2.71891 5.18714,-4.31335 6.56599,-7.07106 0.6171,-1.2342 2.7731,-8.33859 1.51523,-9.59645 -3.70319,-3.70319 -13.81921,-1.17162 -18.18274,1.01015 -5.42452,2.71226 -0.18618,-3.62862 -1.01016,-4.04061 -0.75241,-0.37621 -1.72914,0.50507 -2.52538,0.50507 -0.98677,0 -12.6269,1.63228 -12.6269,1.01016 0,-2.16943 7.32209,-7.32209 8.58629,-8.5863 3.48054,-3.48053 -10.99243,-2.76387 -10.6066,-3.53553 1.74351,-3.48702 20.29147,-11.30951 24.24366,-12.62691 1.66211,-0.55404 2.27633,-2.27633 3.03046,-3.03046 1.02957,-1.02957 3.66854,-1.64824 4.54569,-2.52538 0.25964,-0.25965 -6.61304,-1.0572 -7.07107,-1.51523 -1.16978,-1.16978 3.81053,-3.30546 4.54568,-4.04061 1.13028,-1.13027 -4.27318,-4.81819 -2.0203,-7.07107 4.77978,-4.77978 8.11231,-9.20482 14.14213,-11.61675 z"
       id="path4036"
       inkscape:connector-curvature="0" />
    <path
       style="fill:#ffffff;stroke:#000000;stroke-width:1px;stroke-linecap:butt;stroke-linejoin:miter;stroke-opacity:1"
       d="m 57.578695,83.120815 c -0.323237,2.281619 -1.460967,8.135482 0,9.596449 3.440227,3.440227 6.244988,-8.770369 7.071068,-9.596449 4.094262,-4.094262 2.459333,7.071068 6.060915,7.071068 0.207973,0 1.381532,0.133696 1.515229,0 0.673435,-0.673435 1.34687,-1.34687 2.020305,-2.020305 2.374305,-2.374305 -0.920934,-9.59645 4.04061,-9.59645 1.37046,0 2.736852,10.395132 5.555839,7.576144 2.245466,-2.245465 1.306609,-8.377676 2.525382,-9.596449 0.133696,-0.133696 1.307256,0 1.515228,0 4.793142,0 1.262006,9.091373 4.545687,9.091373 4.991369,0 5.439212,-6.95444 6.565991,-8.08122 1.324741,-1.32474 3.225071,7.770756 3.535531,8.08122 1.87819,1.878184 5.58247,-3.562164 6.06092,-4.04061 0.22029,-0.220291 -0.0673,-2.525381 0.50507,-2.525381 1.29553,0 4.45662,13.31012 9.59645,3.030457 3.07543,-6.150859 -5.15994,-6.060915 -10.10152,-6.060915 -11.153806,0 -21.489269,0 -32.324883,0 -0.989835,0 -6.347587,-0.723481 -7.071068,0 -1.433662,1.433662 -5.380536,1.339926 -7.071067,3.030458 -1.433973,1.433972 -2.367882,2.407256 -4.545687,4.04061 z"
       id="path3806"
       inkscape:connector-curvature="0" />
    <path
       style="fill:#ffe559;stroke:#000000;stroke-width:1px;stroke-linecap:butt;stroke-linejoin:miter;stroke-opacity:1;fill-opacity:1"
       d="m 131.31983,72.009137 c 3.38535,-1.200741 1.16913,2.179279 4.54569,5.555839 0.73625,0.736253 -0.50508,4.061526 -0.50508,5.050763 0,3.168409 -3.40149,21.584241 -4.54569,22.728431 -1.99384,1.99385 -7.08853,7.83742 -10.6066,9.59645 -3.27129,1.63565 -8.55768,4.51708 -11.11168,7.07107 -3.31453,3.31453 -9.08671,5.0461 -11.111673,7.07107 -0.589256,0.58925 -2.946278,-0.58926 -3.535534,0 -0.266199,0.26619 -1.010153,0.88153 -1.010153,0.50507 0,-4.24974 12.71446,-25.34136 15.15229,-27.77919 1.35773,-1.35774 3.73151,-1.71121 5.05076,-3.030461 2.71347,-2.71347 -2.34297,-21.395611 0,-23.738585 1.90519,-1.905184 7.92227,-3.535533 11.11168,-3.535533 2.30153,0 4.27388,0.04665 6.56599,0.505076 z"
       id="path3787"
       inkscape:connector-curvature="0" />
    <path
       style="fill:#e4cb44;stroke:none;stroke-width:1px;stroke-linecap:butt;stroke-linejoin:miter;stroke-opacity:1;fill-opacity:1"
       d="m 105,120.57647 c 0.2381,-0.47619 0.2381,-1.66667 0.71429,-1.42857 0.47619,0.23809 -1.19048,1.66666 -0.71429,1.42857 0.9861,-0.49305 1.2135,-1.67818 2.14286,-2.14286 2.21938,-1.10969 4.87091,-1.74269 7.14285,-2.5 2.00832,-0.66944 3.7802,-1.99448 5,-3.21429 1.22209,-1.22208 3.52002,-1.37716 4.64286,-2.5 2.52417,-2.52416 4.36368,-4.08449 6.07143,-7.5 1.30214,-2.60427 0.012,-8.595406 1.42857,-11.428567 1.35368,-2.707358 1.91331,-9.51526 0,-11.428572 -0.49096,-0.490965 -2.03943,0.253721 -2.14286,0.357143 -0.8636,0.863607 -2.46362,-0.07275 -3.21428,1.428571 -0.75073,1.501455 -0.96114,9.532566 -1.42857,10 -0.77606,0.776054 -1.78572,4.970204 -1.78572,6.428572 0,0.420636 -0.77824,1.849669 -1.07143,2.142853 -0.32782,0.32783 -2.07152,5.64296 -3.21428,6.78572 -3.26277,3.26276 -11.93878,9.48981 -13.57143,13.57143 z"
       id="path4061"
       inkscape:connector-curvature="0" />
    <path
       style="fill:#ffffff;fill-opacity:1;stroke:#000000;stroke-width:1px;stroke-linecap:butt;stroke-linejoin:miter;stroke-opacity:1"
       d="m 96.153983,125.41791 c 0.553322,-2.72895 -2.309436,-8.93187 -0.486902,-11.11248 0.189277,-0.22646 5.609219,6.01791 5.390669,3.57456 -0.28573,-3.19431 -0.55832,-10.47015 0.9323,-12.25362 0.53024,-0.63444 3.42999,4.80662 3.92647,4.21261 1.54074,-1.84346 -0.97759,-7.74087 0.65423,-9.69329 2.08794,-2.498163 4.22606,2.74035 4.75259,2.11036 0.63696,-0.76211 -0.67249,-3.093736 0.14308,-4.069546 1.00329,-1.200395 4.23139,1.620147 3.74647,2.200346 -1.9223,2.29999 -5.23359,3.43663 -6.50297,6.6668 -1.70373,4.33546 -4.44166,9.21268 -7.01411,12.29054 -0.91714,1.09733 -0.97496,3.39413 -2.11035,4.7526 -0.391665,0.46862 -2.665472,1.05516 -3.431477,1.32112 z"
       id="path3791"
       inkscape:connector-curvature="0" />
    <path
       style="fill:#ffffff;stroke:#000000;stroke-width:1px;stroke-linecap:butt;stroke-linejoin:miter;stroke-opacity:1"
       d="m 51.517779,82.615738 c 1.101659,3.758903 0.279334,8.639888 2.020305,12.121831 0.372169,0.744336 2.389133,4.681935 2.525382,4.545686 2.378516,-2.378516 0.721818,-14.250507 5.555839,-16.667517 4.974701,-2.487351 2.296519,21.947152 7.071068,17.172593 0.800878,-0.800878 1.439806,-0.354231 2.020305,-1.515229 2.448057,-4.896113 -0.587837,-14.059374 3.030457,-17.677669 6.505848,4.127203 1.903725,14.530632 6.060916,18.687822 3.25923,3.259235 3.761446,-17.119341 4.04061,-17.67767 0.71815,-1.4363 1.468516,-2.478668 2.525381,-3.535533 0.861847,-0.861847 4.854867,15.966544 5.555839,16.667517 1.38846,1.388459 4.870109,-13.961483 5.555839,-14.647212 1.075156,-1.075156 5.24743,13.328648 5.55584,13.637059 2.91441,2.914409 5.35234,-13.282772 7.07107,-14.142136 0.9405,-0.470248 3.35901,11.023417 5.55584,12.121831 2.32427,1.162136 4.05245,-7.599831 4.54569,-8.586297 2.36145,-4.7229 4.46825,12.859204 7.57614,3.535534 0.72431,-2.172918 2.51347,-14.130224 -1.01015,-10.606602 -4.03274,-3.024553 -24.91738,-4.461366 -29.799506,-2.020305 -2.59193,1.295965 -7.005067,-0.790615 -9.596449,0.505077 -1.748298,0.874148 -4.369146,-0.340809 -6.060916,0.505076 -2.461041,1.23052 -6.190506,-0.187743 -8.586296,1.010152 -6.882343,3.441172 -15.773226,-0.463117 -21.213204,6.565992 z"
       id="path3772"
       inkscape:connector-curvature="0" />
    <path
       style="fill:#ffe559;fill-opacity:1;stroke:#000000;stroke-width:1px;stroke-linecap:butt;stroke-linejoin:miter;stroke-opacity:1"
       d="m 105.05586,61.907612 c -3.23604,-0.166004 -10.870886,2.284595 -15.657359,7.071068 -3.98015,3.980149 -31.276319,-2.563792 -37.880721,4.04061 -0.605995,0.605995 -0.284207,1.956966 0,2.525381 0.588855,1.177709 0.158205,2.683586 1.010153,3.535534 3.262892,3.262892 6.932908,5.555839 13.131983,5.555839 3.6813,0 11.776843,-0.160089 14.647212,-3.030458 1.304071,-1.304071 5.353362,-0.656376 7.071067,-1.515228 2.643241,-1.321621 10.002997,0.455812 12.121831,1.515228 1.020794,0.510399 4.311004,-0.234677 5.050764,0.505077 1.05948,1.059485 3.03651,-0.249512 4.54568,0.505076 6.51432,3.25716 18.44196,-0.764286 22.22336,-4.545686 6.06225,-6.062256 4.70846,-11.535365 -2.52538,-15.152289 -1.70082,-0.85041 -10.14487,2.063645 -10.6066,2.525382 -2.66271,2.662702 -11.78415,-2.9964 -13.13199,-3.535534 z"
       id="path2985"
       inkscape:connector-curvature="0" />
    <path
       style="fill:#ffffff;stroke:#000000;stroke-width:1px;stroke-linecap:butt;stroke-linejoin:miter;stroke-opacity:1"
       d="m 94.954339,125.54722 c 0.728714,-2.0446 1.977311,-13.68005 5.050761,-10.6066 1.63488,1.63488 0.97302,5.01363 3.03046,7.07107 1.25893,1.25893 1.60996,-12.83208 4.04061,-11.61675 2.22552,1.11276 3.78743,7.32424 5.55584,5.55584 0.77115,-0.77115 -1.2871,-11.61676 1.51523,-11.61676 1.54879,0 4.31495,5.32511 5.05076,6.06092 0.16836,0.16835 0.50508,0.74317 0.50508,0.50507 0,-2.18847 -0.1513,-10.934783 3.53553,-9.09137 1.70963,0.85481 2.65724,3.90876 3.03046,3.53553 0.75611,-0.75611 0.6521,-4.39866 2.52538,-2.52538 0.86362,0.86362 -6.95159,6.25371 -7.57614,6.56599 -5.59374,2.79687 -17.59327,22.66547 -26.263971,16.16244 z"
       id="path3789"
       inkscape:connector-curvature="0" />
    <path
       style="fill:#f9f9f9;stroke:#000000;stroke-width:1px;stroke-linecap:butt;stroke-linejoin:miter;stroke-opacity:1"
       d="m 115.1574,48.270552 c -3.06297,0.123871 -7.21787,0.651877 -9.09138,2.525382 -15.324755,15.324748 34.4326,18.77523 17.1726,1.515228 -2.33792,-2.33791 -4.03661,-4.04061 -8.08122,-4.04061 z"
       id="path3808"
       inkscape:connector-curvature="0" />
    <path
       style="fill:#d40000;fill-opacity:1;stroke:#000000;stroke-width:1px;stroke-linecap:butt;stroke-linejoin:miter;stroke-opacity:1"
       d="m 113.93803,51.362286 c 0.67129,0.02074 -2.07611,-0.954353 -3.53554,0.505077 -5.48426,5.484263 -1.38373,14.834001 7.07107,10.606601 0.30495,-0.152475 1.28175,0.233479 1.51523,0 0.75762,-0.757614 1.76777,-1.26269 2.52538,-2.020305 4.20388,-4.203872 -4.68391,-8.512927 -7.57614,-9.091373 z"
       id="path3810"
       inkscape:connector-curvature="0" />
    <path
       style="fill:#f8f7b8;fill-opacity:1;stroke:none"
       d="m 97.675315,181.71754 c -1.388068,-6.72676 5.919165,-29.40521 8.678175,-31.82294 1.63868,-1.43599 1.37014,-11.17288 3.92096,-13.40817 0.35813,-0.31385 -0.22524,-1.7021 0.1329,-2.01593 0.71136,-0.62337 3.12663,-9.03703 3.21763,-10.41751 0.0221,-0.33598 -0.26954,-1.03011 0.0665,-1.00796 1.64974,0.10876 -0.21293,5.71787 0.57604,6.61821 0.6083,0.69417 1.86827,2.37291 1.78336,3.66079 -0.0262,0.39679 1.29091,2.66769 0.80862,3.09033 -1.3234,1.1597 -3.00056,0.6552 -4.23121,2.7581 -1.51642,2.59121 2.47783,3.36849 1.14647,5.64348 -1.16285,1.98705 -3.14129,2.68451 -4.3641,4.77402 -0.59972,1.02478 -0.55983,2.39005 -1.20732,2.95745 -1.86342,1.63293 4.61796,3.73635 3.12918,6.28036 -0.99964,1.70816 -4.52413,2.64409 -3.38937,5.34446 0.93874,2.23388 3.36139,3.29396 4.27005,4.33088 0.8369,0.95504 -1.26909,3.70644 0.20495,4.56906 1.3847,0.81036 3.57018,0.28086 4.46939,1.307 0.39852,0.45476 -3.97774,2.77821 -3.32292,4.33648 0.87822,2.08989 3.74746,3.67034 4.67435,5.87606 0.98647,2.34746 -5.30306,4.22453 0.5096,7.62618 1.93091,1.13 6.01723,7.07361 3.43381,9.33748 -1.37506,1.20497 -6.5146,-1.10681 -7.49329,-1.50633 -2.17662,-0.88857 -4.39715,-1.26472 -6.41887,-2.44786 -1.39221,-0.81474 -0.99552,-2.21984 -1.81657,-3.15679 -2.06483,-2.35627 -4.88933,-4.49568 -6.657064,-6.51293 -0.756873,-0.86371 -1.532745,-5.06848 -2.121221,-6.21392 z"
       id="path4038"
       inkscape:connector-curvature="0" />
    <path
       style="fill:#e4cb44;stroke:none;stroke-width:1px;stroke-linecap:butt;stroke-linejoin:miter;stroke-opacity:1;fill-opacity:1"
       d="m 133.92857,232.00504 c -1.77084,2.54182 -2.14286,14.87813 -2.14286,21.78571 0,0.51155 0.32558,2.88871 0,3.21429 -0.51417,0.51418 -1.78571,3.58908 -1.78571,4.28571 0,0.67432 -1.66586,4.40557 -0.71429,5.35715 1.45143,1.45142 2.81266,3.88408 4.64286,5.71428 2.45073,2.45073 3.90974,5.33831 6.07143,7.5 0.69701,0.69701 4.52859,5.24288 3.21429,3.92857 -1.79959,-1.79959 -11.43507,-3.56493 -13.92858,-1.07143 -0.95533,0.95534 -2.0658,2.42295 -3.21428,3.57143 -0.20449,0.20449 -0.80887,2.40542 -1.07143,2.14286 -0.37403,-0.37403 0.89197,-4.10803 0,-5 -1.70415,-1.70415 -3.64538,-3.64538 -5,-5 -0.18823,-0.18823 -0.71429,-0.0909 -0.71429,-0.35714 0,-0.72622 5.02859,1.04284 6.78572,-0.71429 0.30152,-0.30152 -1.54055,-1.65252 -1.78572,-2.14286 -0.90232,-1.80464 0.96165,-0.96164 1.78572,-1.78571 0.82612,-0.82612 -1.54041,-2.03102 -0.71429,-2.85714 2.03017,-2.03017 0.73288,-11.09002 1.07143,-11.42857 0.7958,-0.7958 1.78572,-5.24614 1.78572,-6.42858 0,-1.45918 0.6369,-4.20833 1.42857,-5 0.78255,-0.78255 0.67035,-13.17035 2.5,-15 0.59524,-0.59523 -0.59524,-2.97619 0,-3.57142 0.79414,-0.79415 1.56545,1.75586 1.78571,2.85714 z"
       id="path4063"
       inkscape:connector-curvature="0" />
    <path
       style="fill:#b3a386;fill-opacity:1;stroke:#000000;stroke-width:1px;stroke-linecap:butt;stroke-linejoin:miter;stroke-opacity:1"
       d="m 146.47213,235.14876 c -1.23689,-0.5992 -13.53212,-3.7356 -20.20306,-7.07107 -6.00387,-3.00193 -13.41127,-4.18025 -19.19289,-7.07106 -1.96311,-0.98156 -7.62297,-0.0468 -9.091383,-1.51523 -0.394831,-0.39483 0.439328,-0.87866 0.505076,-1.01015 0.351124,-0.70225 0,-2.77033 0,-3.53554 0,-7.83849 -2.020305,-15.06681 -2.020305,-22.72843 0,-3.18214 -2.074458,-13.58291 -2.020305,-13.63706 0.627872,-0.62787 5.137005,3.42467 6.060917,4.04061 3.83028,2.55352 8.90449,4.86388 12.12183,8.08122 5.1669,5.16689 21.64033,6.77955 29.29443,10.6066 1.58594,0.79297 5.46963,0.41887 6.56599,1.51523 0.32709,0.32709 -0.50508,1.06627 -0.50508,1.51523 0,4.6221 -1.51522,10.05366 -1.51522,14.64721 0,5.6434 2.87216,11.37551 0,16.16244 z"
       id="path3816"
       inkscape:connector-curvature="0" />
    <path
       style="fill:#e4cb44;fill-opacity:1;stroke:none"
       d="m 196.78572,284.86218 c 0.8858,0.18104 3.51737,1.73166 5.71428,3.92857 0.17698,0.17698 0.41365,2.08636 0.71429,1.78572 0.69784,-0.69785 -0.87871,-2.88543 -0.35714,-3.92857 1.06191,-2.12382 2.25766,-3.32909 3.57143,-4.64286 0.80241,-0.80242 7.44126,-1.72698 8.21428,-2.5 0.17524,-0.17524 -2.69424,-2.69424 -3.21428,-3.21429 -3.73009,-3.73009 -10.71429,-4.79633 -10.71429,-10 0,-0.14706 -0.0945,-0.97689 0,-1.07143 4.41115,-4.41115 1.78571,-18.20978 1.78571,-25.35714 0,-2.33806 1.53464,-15.35714 -1.42857,-15.35714 -0.14706,0 -0.97689,-0.0945 -1.07143,0 -1.71076,1.71076 -0.93843,11.9187 0.35715,13.21428 0.10101,0.10101 -1.07143,15.64812 -1.07143,20 0,1.60231 0.53407,6.96593 0.35714,7.14286 -0.83911,0.83912 -3.118,6.97828 -2.14286,8.92857 0.27557,0.55113 1.94483,2.34089 1.07143,3.21429 -0.78988,0.78988 -3.13868,-0.0756 -3.92857,0.71428 -1.3458,1.34581 -2.5077,2.15056 -3.57143,3.21429 -0.93903,0.93903 -1.78571,4.43234 -1.78571,5.35714 0,0.2381 0.23809,0.71429 0,0.71429 -0.0379,0 1.05316,-1.07143 2.5,-1.07143 1.68551,0 2.72236,-1.52696 5,-1.07143 z"
       id="path4067"
       inkscape:connector-curvature="0" />
    <path
       style="fill:#e3d0af;fill-opacity:1;stroke:#000000;stroke-width:1px;stroke-linecap:butt;stroke-linejoin:miter;stroke-opacity:1"
       d="m 145.46197,200.80358 c 13.84849,-2.30131 28.43746,-0.50508 42.42641,-0.50508 10.26988,0 20.53977,0 30.80965,0 12.17926,0 25.05073,-0.50508 36.87057,-0.50508 1.08032,0 5.54624,-1.01975 6.06092,-0.50507 0.0966,0.0966 -1.18904,3.38821 -1.51523,4.04061 -1.3097,2.6194 -0.50508,8.08322 -0.50508,11.11168 0,4.09375 -0.50508,7.65336 -0.50508,11.61675 0,0.56483 0.58591,1.4344 0.50508,1.51523 -1.11082,1.11082 -8.55387,-0.50508 -10.10153,-0.50508 -5.34303,0 -17.48347,2.42175 -21.71827,1.01015 -3.27795,-1.09264 -14.80921,-1.85353 -18.18275,-1.01015 -7.38337,1.84585 -15.6938,0.1805 -22.72843,2.52538 -1.36371,0.45457 -3.18198,-0.45457 -4.54569,0 -4.12509,1.37503 -8.52584,0.48997 -12.62691,1.51523 -3.65209,0.91303 -8.32088,2.52538 -12.12183,2.52538 -2.88939,0 -7.33959,0.89188 -9.59645,2.02031 -0.13149,0.0658 -0.61532,0.89991 -1.01015,0.50507 -2.04491,-2.04491 -0.38583,-5.31734 -1.51523,-7.57614 -3.27135,-6.54271 -3.60526,-21.77042 0,-27.77919 z"
       id="path3814"
       inkscape:connector-curvature="0" />
    <path
       style="fill:#fcfce4;fill-opacity:1;stroke:#000000;stroke-width:1px;stroke-linecap:butt;stroke-linejoin:miter;stroke-opacity:1"
       d="m 142.4315,177.065 c -3.37456,3.36982 -4.87619,18.35732 -1.51522,21.71828 4.07578,4.07578 9.72546,7.13558 14.64721,9.59645 2.90048,1.45024 7.75849,1.1925 9.59645,3.03046 0.38271,0.38271 2.87464,0.50508 3.53553,0.50508 0.39766,0 2.57701,1.4636 3.03046,1.01015 0.66109,-0.66109 -1.81201,-3.74383 -1.51523,-4.04061 0.10238,-0.10238 2.423,-0.10238 2.52538,0 2.96525,2.96525 5.9908,5.77332 10.6066,8.08122 1.50689,0.75344 4.10995,1.07949 5.05076,2.0203 1.06182,1.06182 10.67529,0.79196 13.13199,2.02031 2.07432,1.03716 5.34791,-0.23767 7.57614,0.50508 5.32595,1.77531 19.71719,1.01015 26.26397,1.01015 2.8621,0 5.7242,0 8.58629,0 1.17852,0 3.53554,-1.17851 3.53554,0 0,0.0414 -4.83983,-2.16738 -5.55584,-2.52538 -0.47196,-0.23598 -4.34168,-0.70908 -3.53553,-1.51523 1.58328,-1.58329 7.08889,-0.009 9.09137,-1.01015 3.62807,-1.81404 9.05026,-2.51511 13.13198,-3.53554 3.77127,-0.94282 19.90067,-11.51707 21.71828,-15.15229 0.80554,-1.61107 2.0152,-4.0355 3.03046,-5.05076 0.49085,-0.49085 0.99592,-1.52946 0.50508,-2.0203 -0.12025,-0.12025 -3.35852,1.79294 -4.04061,2.0203 -4.56392,1.52131 -9.6275,2.52538 -14.64722,2.52538 -1.17851,0 -3.53553,1.17851 -3.53553,0 0,-0.0507 4.20863,-1.85178 4.54569,-2.0203 2.73526,-1.36764 5.24655,-5.63813 6.06091,-8.08122 0.86596,-2.59789 1.89995,-4.81005 3.03046,-7.07107 0.19339,-0.38678 1.01015,-3.16401 1.01015,-3.03046 0,0.71553 -22.96452,6.32991 -24.24366,5.05076 -0.27624,-0.27624 3.24768,-3.4649 3.53553,-4.04061 0.74981,-1.49961 1.01016,-4.78755 1.01016,-6.56599 0,-0.5324 1.03747,-1.51523 0.50507,-1.51523 -1.82272,0 -3.41086,1.47367 -5.05076,2.02031 -2.44387,0.81462 -7.55161,-0.52962 -9.09137,1.01015"
       id="path4017"
       inkscape:connector-curvature="0" />
    <path
       style="fill:#f8f7b8;stroke:none;stroke-width:1px;stroke-linecap:butt;stroke-linejoin:miter;stroke-opacity:1;fill-opacity:1"
       d="m 151.01781,24.026891 c 4.56164,0.657333 14.64117,3.024422 20.70812,9.091373 1.20835,1.208349 3.44844,14.560112 4.54569,15.657364 0.92936,0.929364 2.72217,8.192726 1.51523,10.606602 -2.30665,4.6133 -2.77244,9.080406 -5.05076,13.637059 -0.43244,0.864867 0.0979,3.94271 -0.50508,4.545687 -1.67737,1.677373 -1.57938,6.125069 -3.53553,8.08122 -4.04104,4.041035 -4.16098,11.737116 -8.08123,15.657364 -0.88767,0.88767 -1.66465,7.87501 -2.52538,9.59645 -0.33671,0.67343 0.33672,1.85195 0,2.52538 -1.36876,2.73752 -5.7632,18.48046 -2.0203,22.22336 1.61729,1.61729 3.31756,3.31756 5.05076,5.05076 2.15133,2.15133 2.24788,6.79356 4.04061,8.5863 0.1498,0.1498 3.34624,3.21975 3.03046,3.53553 -2.12227,2.12227 -11.50279,-1.62919 -11.61676,-1.51523 -0.79709,0.79709 0.26378,4.4138 -1.01015,5.05076 -4.47948,2.23975 -8.07785,-4.03724 -9.59645,-5.55583 -0.81062,-0.81062 -2.19012,2.61028 -3.03045,3.03045 -1.29231,0.64616 -5.48467,0.57625 -6.566,-0.50507 -1.3091,-1.30911 4.11099,-7.7935 -4.54568,-12.12183 -0.65171,-0.32586 5.34544,-5.13505 6.06091,-6.566 0.19641,-0.3928 1.23784,-1.28754 1.01016,-1.51522 -1.33289,-1.33289 -7.90695,-3.37901 -6.06092,-7.07107 1.60885,-3.2177 5.26219,-4.96854 6.56599,-7.57615 1.04927,-2.09853 -5.22724,-5.88443 -3.53553,-7.57614 1.70106,-1.70107 5.28075,-1.74522 7.07107,-3.53553 2.26764,-2.26764 3.882,-6.91246 6.56599,-9.596453 0.0813,-0.08125 -4.57977,-2.457222 -3.53554,-4.545687 1.68305,-3.366088 6.42902,-6.429019 8.5863,-8.586296 2.89742,-2.897421 -7.31757,-10.86518 -4.04061,-14.142136 1.9726,-1.972599 6.29603,1.21043 4.54569,-4.04061 -0.66483,-1.994463 -7.45223,-11.740669 -6.566,-12.626907 1.47187,-1.471862 9.09138,1.781437 9.09138,-1.010153 0,-2.244286 -4.17596,-4.49617 -5.55584,-6.565991 -1.10094,-1.651414 -1.53294,-4.058316 -2.52538,-5.050763 -1.66877,-1.668771 4.04061,0.168155 4.04061,-3.535534 0,-2.669906 -3.96888,-4.473954 -5.05077,-5.555839 -0.35423,-0.354237 5.05077,-0.375789 5.05077,-1.010152 0,-2.452406 -1.19002,-2.380031 -2.02031,-4.04061 -0.59244,-1.184881 3.05388,-1.250978 -0.50507,-3.030458 -0.81093,-0.405462 -1.68359,0.673435 -2.52539,1.010152"
       id="path4019"
       inkscape:connector-curvature="0" />
    <path
       style="fill:#f8f7b8;fill-opacity:1;stroke:none"
       d="m 148.99751,188.17667 c -1.59979,3.5708 3.29162,7.33224 7.57614,11.61676 0.64826,0.64826 2.03981,0.52458 2.52538,1.01015 0.62154,0.62154 2.77527,2.52538 4.04061,2.52538 0.56875,0 3.96103,3.11004 5.05076,2.02031 0.86292,-0.86291 0.26269,-7.19226 3.53554,-5.55584 3.19582,1.59791 7.57679,4.54634 9.59645,6.56599 0.89064,0.89064 4.38399,-0.58592 5.55584,0 3.85314,1.92657 8.36972,2.11648 12.6269,3.53553 2.87419,0.95807 16.4301,2.28796 17.67767,3.53554 2.17309,2.17308 9.0744,3.03046 13.13199,3.03046 0.41897,0 5.55583,0.60465 5.55583,1.01015 0,0.1906 -7.34992,-3.39611 -2.0203,-6.06092 3.38793,-1.69396 11.07663,3.30052 15.65736,1.01016 6.20929,-3.10465 13.12609,-4.54274 19.1929,-7.57615 2.50049,-1.25024 3.9175,-3.22144 6.56599,-4.54568 0.30266,-0.15133 3.53554,-1.31029 3.53554,-2.02031 0,-0.47818 -5.65933,0.90976 -6.06092,1.01015 -1.84466,0.46117 -19.1929,1.22182 -19.1929,-0.50507 0,-0.3774 12.12183,-11.93468 12.12183,-12.62691 0,-1.07776 -7.40388,0.84082 -8.08122,1.01015 -6.60305,1.65076 -12.76906,3.53554 -19.69797,3.53554 -1.68359,0 -3.36718,0 -5.05076,0 -0.33672,0 -1.01016,0.33671 -1.01016,0 0,-0.83067 4.99385,-4.33939 6.06092,-5.05077 2.4771,-1.6514 2.993,-6.02345 4.54569,-7.57614 0.0787,-0.0787 1.42995,-0.59035 1.01015,-1.01015 -0.1337,-0.1337 -1.30726,0 -1.51523,0 -1.56399,0 -3.43202,1.9858 -5.05076,2.52538 -3.10428,1.03476 -6.65784,1.56115 -9.59645,3.03046 -5.72573,2.86286 -12.45852,3.45133 -17.67767,6.06091 -1.73906,0.86953 -6.20523,0.14431 -7.57615,1.51523 -1.11309,1.11309 8.26901,1.83252 5.05077,5.05076 -1.34345,1.34345 -8.49818,-0.64406 -9.59645,-1.01015 -2.27285,-0.75761 -5.3033,0.75761 -7.57615,0 -2.69994,-0.89998 -17.67767,-3.70892 -17.67767,-5.55584 0,-1.45236 5.10984,1.29223 1.51523,-0.50508 -2.99885,-1.49942 -7.42918,-3.38856 -9.59645,-5.55583 -3.36184,-3.36185 -3.51054,6.04841 -4.54568,6.56599 -0.93071,0.46535 -4.16399,-2.14368 -4.54569,-2.52538 -1.25686,-1.25686 -5.21274,1.30318 -6.06091,1.51522 z"
       id="path4034"
       inkscape:connector-curvature="0" />
    <path
       style="fill:#e4cb44;fill-opacity:1;stroke:none"
       d="m 55,80.219323 c 0.47619,0.119048 1.547619,-0.119047 1.428571,0.357143 C 56.309524,81.052657 54.509154,80.219323 55,80.219323 c 1.274909,0 3.662047,1.162047 4.285714,1.785715 0.515155,0.515154 2.536518,-0.338884 3.214286,0 1.044708,0.522354 2.56639,-0.145377 3.571428,0.357142 4.86483,2.432415 10.851869,0.219561 13.571429,-2.5 0.01495,-0.01495 10.688325,-1.454532 10.714286,-1.428571 0.810989,0.810989 2.711063,0.462675 3.928571,1.071429 0.643569,0.321784 2.899412,-0.871723 3.928572,-0.357143 2.547524,1.273766 19.058924,2.726782 20.357134,1.428571 0.77381,-0.773809 3.86905,0.77381 4.64286,0 0.52268,-0.522681 2.28775,-0.502032 2.85714,-1.071428 1.58742,-1.58742 5.41262,-3.682376 6.42858,-5.714286 0.38686,-0.773725 -0.35715,-1.412227 -0.35715,-1.785715 0,-0.279646 0.17821,-1.607508 0,-1.785714 -0.10596,-0.10596 -2.51982,-2.837315 -2.85714,-2.5 -0.35714,0.357143 0,1.428572 -0.35714,1.785714 -0.60701,0.607003 -1.893,1.178712 -2.5,1.785715 -1.04221,1.042209 -3.36644,-0.995353 -4.64286,-0.357143 -1.09313,0.546565 -0.86511,1.861126 -2.14286,2.5 -0.79731,0.398657 -8.67971,-0.947 -9.64285,-1.428572 -1.76162,-0.880807 -3.31892,1.533206 -3.92858,2.142858 -0.56305,0.563054 -3.56512,-1.428572 -4.28571,-1.428572 -0.94525,0 -2.681629,2.055102 -3.571424,2.5 -1.144395,0.572198 -3.178521,-1.053546 -3.928572,-1.428571 -0.613367,-0.306684 -0.898274,0.183988 -1.071428,0.357143 -1.230885,1.230885 -4.940773,0.684672 -6.428572,1.428571 -1.686607,0.843304 -4.371902,-1.74262 -6.428571,-0.714286 -0.942393,0.471197 -1.756078,0.878039 -2.857143,1.428572 -1.911453,0.955726 -5.757972,-1.742028 -7.5,0 -0.458374,0.458374 -0.255912,1.684483 -0.714286,2.142857 -0.03949,0.03949 -12.371869,-1.199559 -13.214286,-0.357143 -2.242899,2.242899 -1.382654,1.770409 0.714286,1.071429 0.142334,-0.04744 1.940223,0.326241 -1.785714,1.071428 z"
       id="path4059"
       inkscape:connector-curvature="0" />
    <path
       style="fill:#e4cb44;stroke:none;stroke-width:1px;stroke-linecap:butt;stroke-linejoin:miter;stroke-opacity:1;fill-opacity:1"
       d="m 160.71429,300.57647 c -0.32077,-2.35431 1.27862,-4.85006 4.28571,-7.85715 0.61626,-0.61626 2.3458,-0.20294 2.85714,-0.71428 0.50902,-0.50902 1.83794,-1.42857 2.85715,-1.42857 0.73391,0 5.91529,0.51328 5.35714,1.07143 -0.25554,0.25554 -5.63302,-3.13302 -6.07143,-3.57143 -5.40288,-5.40288 -5,-9.40752 -5,-18.21429 0,-2.24611 1.35849,-6.56874 0.35714,-8.57143 -0.93536,-1.87072 -1.07143,-4.55242 -1.07143,-6.78571 0,-1.60081 0.139,-5.57529 -0.71428,-6.42857 -0.11855,-0.11855 0.16329,-3.02043 -0.35714,-2.5 -0.55992,0.55992 -0.97747,3.12032 -1.78572,3.92857 -0.044,0.044 1.19757,8.69757 1.42857,8.92857 0.27919,0.27919 -0.31065,0.6213 -0.35714,0.71429 -0.74804,1.49608 -0.35714,4.67335 -0.35714,6.42857 0,3.8424 2.4432,17.97074 1.42857,20 -0.91764,1.83528 -2.44898,3.16326 -3.92857,4.64285 -1.31345,1.31345 -1.98062,3.21429 -3.57143,3.21429 -0.67939,0 2.2586,1.18717 2.85714,1.78571 0.95441,0.95442 1.78572,3.49963 1.78572,5.35715 z"
       id="path4065"
       inkscape:connector-curvature="0" />
    <path
       style="fill:#ff2c2c;stroke:none;stroke-width:1px;stroke-linecap:butt;stroke-linejoin:miter;stroke-opacity:1;fill-opacity:1"
       d="m 108.57143,57.719324 c 0,-0.476191 -0.47619,-1.428572 0,-1.428572 0.47619,0 0,1.904762 0,1.428572 0,-3.429324 1.12457,-4.133714 3.57143,-5.357143 1.52491,-0.762457 5.2138,1.929053 4.64285,2.5 -0.6757,0.675706 -1.46715,-1.032848 -2.14285,-0.357143 -0.88589,0.88589 -5.89587,2.950942 -6.07143,3.214286 -0.33672,0.505076 0.23809,1.190476 0,0 z"
       id="path4080"
       inkscape:connector-curvature="0" />
    <path
       style="fill:#b10000;fill-opacity:1;stroke:none"
       d="m 109.64286,60.219324 c 0.47619,0.238095 1.66666,0.238095 1.42857,0.714286 -0.2381,0.47619 -1.80503,-1.090748 -1.42857,-0.714286 2.10328,2.103283 5.22213,2.992151 7.14285,1.071429 0.64834,-0.648338 2.57448,0.996954 3.57143,0 0.47619,-0.476191 -0.11904,-2.02381 0.35715,-2.5 0.0881,-0.08811 0.83333,-1.309524 0.35714,-1.785715 -0.23801,-0.238006 -3.31851,2.247077 -3.57143,2.5 -1.38092,1.380917 -3.68396,-1.316038 -4.64286,-0.357143 -0.7767,0.776708 -1.44118,0.716808 -3.21428,1.071429 z"
       id="path4082"
       inkscape:connector-curvature="0" />
  </g>
</svg>
