<?xml version="1.0" encoding="UTF-8" standalone="no"?>
<!-- Created with Inkscape (http://www.inkscape.org/) -->

<svg
   xmlns:dc="http://purl.org/dc/elements/1.1/"
   xmlns:cc="http://creativecommons.org/ns#"
   xmlns:rdf="http://www.w3.org/1999/02/22-rdf-syntax-ns#"
   xmlns:svg="http://www.w3.org/2000/svg"
   xmlns="http://www.w3.org/2000/svg"
   xmlns:sodipodi="http://sodipodi.sourceforge.net/DTD/sodipodi-0.dtd"
   xmlns:inkscape="http://www.inkscape.org/namespaces/inkscape"
   width="1052.3622"
   height="744.09448"
   id="svg2"
   version="1.1"
   inkscape:version="0.48.3.1 r9886"
   sodipodi:docname="readable.svg"
   inkscape:export-filename="/home/substack/projects/talks/lxjs_2012/images/readable.png"
   inkscape:export-xdpi="100"
   inkscape:export-ydpi="100">
  <defs
     id="defs4" />
  <sodipodi:namedview
     id="base"
     pagecolor="#ffffff"
     bordercolor="#666666"
     borderopacity="1.0"
     inkscape:pageopacity="0.0"
     inkscape:pageshadow="2"
     inkscape:zoom="0.7"
     inkscape:cx="560.35714"
     inkscape:cy="388.57143"
     inkscape:document-units="px"
     inkscape:current-layer="layer1"
     showgrid="false"
     inkscape:window-width="1364"
     inkscape:window-height="766"
     inkscape:window-x="0"
     inkscape:window-y="0"
     inkscape:window-maximized="0" />
  <metadata
     id="metadata7">
    <rdf:RDF>
      <cc:Work
         rdf:about="">
        <dc:format>image/svg+xml</dc:format>
        <dc:type
           rdf:resource="http://purl.org/dc/dcmitype/StillImage" />
        <dc:title></dc:title>
      </cc:Work>
    </rdf:RDF>
  </metadata>
  <g
     inkscape:label="Layer 1"
     inkscape:groupmode="layer"
     id="layer1"
     transform="translate(0,-308.2677)">
    <path
       style="fill:#ff0000;stroke:#ffffff;stroke-width:0.79243450999999998px;stroke-linecap:butt;stroke-linejoin:miter;stroke-opacity:0"
       d="m 717.73283,701.20789 c -6.40448,0.15438 -11.37821,3.87421 -15.36838,5.58161 -2.53173,1.08332 -5.57985,4.57314 -5.99228,6.1953 -1.53687,3.49686 2.26967,12.06394 8.70651,5.30994 0.33505,-2.596 11.66843,-10.09161 15.20483,-4.80413 0.48428,0.72408 1.3529,1.26807 2.1049,1.90679 0.62272,2.08837 2.58294,4.5985 1.88203,5.29941 -0.34013,0.34014 -0.3114,1.18865 -0.79243,1.18865 -1.68659,0 -3.43747,-0.24664 -5.1013,-0.42098 -3.78018,-1.1881 -8.13706,-1.76329 -11.71317,0.0248 -2.7478,1.3739 -9.95528,8.86441 -13.91713,16.02203 -0.0194,3.09778 -0.11219,6.37588 2.30302,8.79108 0.26238,0.26239 0.22045,1.4091 0.42098,1.60963 1.67133,1.67133 3.07519,4.28862 4.77936,5.99278 1.70272,1.70273 4.94789,2.60775 6.90905,4.53174 0.23154,0.0295 0.4624,0.0542 0.69337,0.0743 2.01078,3.15925 9.44845,1.57133 11.61412,-0.59433 0.31037,-0.31036 2.94421,-1.04219 4.95272,-1.6344 0.26119,1.39387 0.52221,2.67664 0.66861,2.82305 3.75077,3.75077 10.88812,3.5243 14.41241,0 0.44099,-0.441 0.79243,-14.76388 0.79243,-16.7897 0,-12.05745 -0.39726,-24.02276 -5.59657,-34.42138 -4.30869,-5.22583 -11.71601,-6.75172 -16.96308,-6.68619 z m -3.56595,27.43805 c 0.18303,0.15675 0.45427,0.40475 0.49526,0.44574 1.05147,1.05146 8.34125,0.73883 9.21206,1.60964 0.058,0.058 0.49997,0.41197 1.01531,0.8172 1.06785,3.81831 2.62392,13.15047 1.78297,13.99141 -0.23928,0.23928 -0.58804,0.51148 -0.99054,0.79244 -0.716,0.16759 -1.32537,0.31006 -1.41153,0.39622 -0.77934,0.77934 -3.9716,1.8997 -7.55289,2.74875 -0.75208,-0.0145 -1.45711,-0.14665 -2.05538,-0.42098 -3.95589,1.18747 -8.64648,-2.70766 -9.80637,-6.73569 -0.35158,-0.22927 -0.69042,-0.49231 -0.99054,-0.79244 -0.95947,-0.95948 0.48278,-4.58105 0.79244,-5.20035 1.06135,-2.12273 2.03194,-4.01304 3.61548,-5.59656 0.60557,-0.60559 3.22162,-1.5546 5.89373,-2.05538 z"
       id="path3350"
       inkscape:connector-curvature="0"
       sodipodi:nodetypes="csccsccscsccssccsccsscccsscscscccsccc" />
    <path
       style="fill:none;stroke:#967676;stroke-width:5.19368982;stroke-linecap:butt;stroke-linejoin:miter;stroke-miterlimit:4;stroke-opacity:1;stroke-dasharray:none"
       d="m 340.36523,831.08127 c 0.31044,-5.08718 -48.26499,6.87333 -29.53595,25.39295 7.50178,7.41793 23.71794,5.8024 34.16276,5.74369 14.09578,-0.0791 97.07613,1.24495 105.38941,5.34332 12.30129,6.06449 33.69923,-6.32301 46.00053,-0.25856 8.24283,4.06368 61.11227,3.85893 65.29112,-0.36702 1.3085,-1.32329 0.56617,-4.15032 1.45038,-5.94389 7.47987,-15.17221 -11.82202,-25.16041 -22.40003,-25.10097 -5.15765,0.0289 -14.72405,-0.59986 -19.30724,-2.85933 -9.01842,-4.44603 -50.89149,7.46588 -59.33882,3.30142 -7.02984,-3.46568 -105.61394,-5.34209 -121.71216,-5.25161 z"
       id="path3170"
       inkscape:connector-curvature="0" />
    <path
       style="fill:#241c1c;stroke:#ffffff;stroke-width:1.03873801px;stroke-linecap:butt;stroke-linejoin:miter;stroke-opacity:0"
       d="m 346.34246,838.46738 c -5.40473,0.006 -2.18984,-4.09807 -10.38718,0.0583 -17.92895,9.09082 6.67524,26.0804 13.46339,19.21549 2.29286,-2.31878 19.49397,-8.76115 10.28713,-17.86506 -4.06401,-4.01857 -6.59944,-3.14023 -13.36334,-1.40881 z"
       id="path3172"
       inkscape:connector-curvature="0" />
    <path
       style="fill:#241c1c;stroke:#ffffff;stroke-width:1.03873801px;stroke-linecap:butt;stroke-linejoin:miter;stroke-opacity:0"
       d="m 380.46356,836.79165 c -6.47224,-0.68499 -5.85999,-0.005 -8.89499,1.53391 -10.79733,5.47476 6.32362,22.13567 14.94731,19.20715 24.28762,-8.24787 16.63303,-20.86859 -6.05232,-20.74106 z"
       id="path3174"
       inkscape:connector-curvature="0" />
    <path
       style="fill:#241c1c;stroke:#ffffff;stroke-width:1.03873801px;stroke-linecap:butt;stroke-linejoin:miter;stroke-opacity:0"
       d="m 424.99686,839.50917 c -12.51726,0.26306 0.11124,-5.26481 -10.3872,0.0583 -20.36274,10.32486 2.0067,25.02456 10.50399,20.71605 5.72665,-2.90368 11.44198,-5.60205 14.78883,-8.98675 0.73778,-0.74611 -0.7628,-3.70555 -0.0251,-4.45167 7.60838,-7.6944 -9.76573,-8.64529 -14.88059,-7.33601 z"
       id="path3176"
       inkscape:connector-curvature="0" />
    <path
       style="fill:#241c1c;stroke:#ffffff;stroke-width:1.03873801px;stroke-linecap:butt;stroke-linejoin:miter;stroke-opacity:0"
       d="m 466.55409,840.75952 c -5.09839,0.33453 -11.43293,-0.37641 -14.82222,3.05118 -8.78277,8.88206 6.40424,23.53888 14.94733,19.2071 15.58871,-7.90418 22.54137,-22.38569 -0.12499,-22.25828 z"
       id="path3178"
       inkscape:connector-curvature="0" />
    <path
       style="fill:#241c1c;stroke:#ffffff;stroke-width:1.03873801px;stroke-linecap:butt;stroke-linejoin:miter;stroke-opacity:0"
       d="m 540.76514,843.31026 c -20.31393,-0.85614 16.54521,-1.57695 -7.42779,-1.44223 -6.65121,0.0373 -10.80571,17.60939 1.61734,23.73388 12.72774,6.27465 26.71871,-11.94674 17.6899,-20.87452 -2.83567,-2.80398 -8.00525,-0.47174 -11.87945,-1.41713 z"
       id="path3195"
       inkscape:connector-curvature="0" />
    <path
       style="fill:#241c1c;stroke:#ffffff;stroke-width:1.03873801px;stroke-linecap:butt;stroke-linejoin:miter;stroke-opacity:0"
       d="m 503.65127,840.55098 c -7.12923,-0.4074 -10.78876,0.87291 -13.32162,6.01062 -6.28229,12.74312 14.94879,20.69449 23.83395,16.18929 11.7339,-5.94962 12.8579,-27.01073 -10.51233,-22.19991 z"
       id="path3221"
       inkscape:connector-curvature="0" />
    <path
       style="fill:#0098dc;fill-opacity:1;stroke:#ffffff;stroke-width:1.43607652px;stroke-linecap:butt;stroke-linejoin:miter;stroke-opacity:0"
       d="m 554.88135,707.74716 c -0.15833,0.0394 -0.31833,0.16596 -0.44956,0.28104 -1.70583,1.49475 1.56731,3.66506 1.79856,4.21558 3.69016,8.78118 0.28302,27.20141 -0.22485,34.90498 -0.43237,6.55834 -31.4182,-3.31963 -32.76906,-2.13588 -1.91283,1.67621 -8.66817,-0.58204 -14.33296,-0.95555 -6.79119,-0.44771 -25.2331,-8.29788 -34.68017,-4.32798 -9.26693,3.89418 -26.90608,4.38898 -37.2095,3.70971 -13.41518,-0.88445 -27.15088,-1.05318 -40.91922,-1.29277 0.32054,13.1756 0.36674,26.70431 -0.22484,38.50228 24.99593,-2.59715 50.0654,-7.83971 76.04904,-6.12664 11.24501,0.74137 76.19471,4.14952 81.78224,7.41943 5.08361,2.97505 -5.71415,34.5886 -4.32801,34.68013 3.27348,0.21584 18.60327,-20.16855 19.89747,-21.30271 7.31498,-6.41015 32.27965,-22.25246 32.43188,-24.56277 0.10054,-1.52581 -2.92681,-1.15446 -3.93449,-2.30452 -5.98213,-6.8266 -12.47,-18.71057 -18.82953,-25.96795 -1.69627,-1.93561 -19.14984,-35.95936 -24.057,-34.73638 z"
       id="path3223"
       inkscape:connector-curvature="0" />
    <path
       style="fill:#ac9393;fill-opacity:1;stroke:#ffffff;stroke-width:1.03873801px;stroke-linecap:butt;stroke-linejoin:miter;stroke-opacity:0"
       d="m 176.57034,731.09445 c 4.25601,3.03314 -2.737,41.06811 -2.6258,60.85607 0.0892,15.89507 4.76233,110.95519 8.06171,114.21768 1.94874,1.92694 10.32551,-0.77117 11.86277,-1.5506 4.43353,-2.24802 15.40151,0.10053 19.29889,1.37542 6.51815,2.1321 16.40212,-1.57611 23.73386,-1.61732 9.88927,-0.0556 20.20393,2.85429 31.17833,2.79261 6.0174,-0.0339 60.57028,0.8675 62.33998,2.61744 0.91053,0.90033 26.70538,-0.96852 26.70998,-0.15026 0.009,1.72698 1.41975,-11.41607 1.36713,-20.78278 -0.0526,-9.37675 -2.06329,-43.84062 1.20027,-50.46051 1.3694,-2.77771 -1.42778,-7.60952 -0.0581,-10.38723 6.80839,-13.81032 1.24948,-41.70475 1.15858,-57.87997 -0.0618,-10.97741 4.32563,-22.4464 4.26811,-32.67053 -0.0199,-3.56292 -2.08146,-3.28187 -0.0418,-7.41946 0.92278,-1.87181 1.15919,-20.98835 -0.12514,-22.25831 -5.67922,-5.61576 -22.72876,5.07239 -29.66941,1.65071 -6.84618,-3.37512 -65.1799,-3.40965 -72.71051,0.40874 -5.4648,2.77087 -51.26977,-4.16363 -59.38055,-4.11802 -3.69493,0.0207 -25.88041,-0.68884 -28.18551,1.64235 -4.47608,4.52665 0.64493,19.01015 1.61734,23.73387 z"
       id="path3157"
       inkscape:connector-curvature="0" />
    <path
       style="fill:#ff0000;stroke:#ffffff;stroke-width:1px;stroke-linecap:butt;stroke-linejoin:miter;stroke-opacity:0"
       d="m 688.10018,662.49244 c -3.03725,-0.37911 -15.51404,-1.53606 -17.30287,-0.14423 -1.75177,1.36298 2.13314,31.85703 1.51044,36.8458 -0.10463,0.83828 1.41672,16.45846 0.0145,16.28343 -0.41273,-0.0515 -2.22562,-11.45764 -12.64218,-12.75783 -31.52004,-5.57248 -41.22493,34.39778 -18.41037,49.60165 3.73903,2.49173 15.82946,3.9845 20.03205,2.5004 1.38677,-0.48972 6.2494,-4.77831 6.64285,-4.27262 1.84928,2.37677 -2.01383,5.58011 -0.0102,8.15528 1.25322,1.6107 17.68471,4.35478 20.06306,2.50428 1.34503,-1.04651 -2.79154,-34.65597 -2.25503,-38.95426 2.01529,-16.1455 0.14648,-33.97291 2.09981,-49.62202 0.34684,-2.77873 -0.43088,-4.62171 -0.11755,-7.13198 0.12512,-1.00237 1.37782,-2.88279 0.37545,-3.0079 z m -30.68555,51.81706 c 0.57182,0.0829 1.17041,0.25282 1.75984,0.53459 0.29402,0.14055 0.35728,0.17111 0.6241,0.29835 -0.43014,-0.46674 11.00173,5.2465 0,0 0.12336,0.13386 1.17765,0.75511 4.11682,2.34043 1.74029,3.93664 6.69943,17.69359 4.53485,20.94168 -2.77418,4.16287 -15.64578,7.81494 -20.56237,1.49594 -5.33285,-6.85402 0.94961,-26.85362 9.52676,-25.61099 z"
       id="path3332"
       inkscape:connector-curvature="0" />
    <path
       style="fill:#ff0000;stroke:#ffffff;stroke-width:1px;stroke-linecap:butt;stroke-linejoin:miter;stroke-opacity:0"
       d="m 756.89804,680.43113 c -2.28708,-0.0104 -5.22208,1.84708 -6.125,2.75 -0.83724,0.83723 -1,5.64664 -1,7.0625 -0.84524,2.74997 -1.29151,7.77972 -1.3125,13.0625 -0.31347,0.0541 -0.61514,0.11462 -0.9375,0.15625 -3.95743,-0.23721 -5.79415,-0.2765 -8.31837,2.27617 -0.24902,0.21684 -0.17314,4.48929 -0.34624,4.783 2.13401,4.71771 4.75455,3.77921 8.88341,4.09708 0.33268,0.023 0.93321,0.0422 1.375,0.0625 0.38381,2.94968 0.92519,5.44414 1.65625,6.90625 1.60578,3.21157 -0.59974,8.33178 1.03125,11.59375 1.22851,2.45702 0.68568,13.81067 2.53125,15.65625 2.73412,2.73411 3.89812,7.01156 7.0625,8.59375 5.49062,2.74531 7.21351,4.20574 13.625,1 0.71459,-0.3573 2.46808,0.0632 3.03125,-0.5 0.63496,-0.63496 2.43868,-0.90743 3.03125,-1.5 1.44717,-1.44717 2.17432,-2.70557 3.53125,-4.0625 4.27616,-4.27616 7.80392,-9.85234 3.03125,-14.625 -2.81837,-2.81838 -17.83757,13.76235 -24.21875,1 -0.78774,-1.57547 -1.5856,-13.67498 -1.75,-23.9375 9.75912,-0.11965 20.90865,-0.69702 22.65625,-2.21875 0.97655,-0.85034 2.13946,-2.55838 1.34375,-4.46875 -2.73579,-6.56817 -4.70207,-6.91591 -13.15625,-7.5 -3.24595,-0.22426 -6.72437,0.65908 -10.40625,0.71875 0.082,-0.43276 0.17557,-0.7574 0.28125,-0.96875 0.90879,-1.81757 0.47405,-14.18221 -0.5,-15.15625 -1.17851,-1.17852 -1.85274,-2.85274 -3.03125,-4.03125 -0.52693,-0.52693 -1.20639,-0.74655 -1.96875,-0.75 z"
       id="path3380"
       inkscape:connector-curvature="0"
       sodipodi:nodetypes="cscccccccssssscsssscsssccsscc" />
    <path
       style="fill:#ff0000;stroke:#ffffff;stroke-width:1px;stroke-linecap:butt;stroke-linejoin:miter;stroke-opacity:0"
       d="m 815.93751,697.27217 c -1.58754,0.0278 -3.22435,0.0937 -4.875,0.0937 -10.27807,0 -24.07199,11.27176 -15.34375,20 0.42089,0.42089 1.24885,0.2662 1.78125,0 0.75321,-0.37661 2.99002,0.57247 3.5625,0 2.28539,-2.28539 8.04291,-6.54928 8.59375,-6.4375 3.54928,-1.41972 4.25055,0.5159 6.78125,1.78125 2.39333,1.19666 3.98046,4.19601 5.03125,8.15625 -16.09885,-3.9956 -33.70768,8.77214 -25.03125,26.125 2.11048,4.22096 7.05981,8.55119 11.40625,10 3.61882,1.20628 10.19077,0.60902 15.40625,-0.9375 -0.004,0.40941 -0.0312,0.93685 -0.0312,1.3125 0,3.09443 3.49665,6.81418 7.125,5 1.84172,-0.92086 3.61757,-1.46132 4.65625,-2.5 2.10258,-2.10259 0.73086,-8.27422 1.78125,-10.375 1.72581,-3.45163 1.0625,-9.54343 1.0625,-13.90625 0,-2.50298 1.63854,-8.19167 0.375,-10.71875 -0.98282,-1.96563 -0.73783,-4.33849 -1.4375,-6.4375 -2.70851,-8.12551 -2.16117,-11.44242 -8.21875,-17.5 -3.48075,-3.48075 -7.86237,-3.73952 -12.625,-3.65625 z m -1.15625,29.21875 c 0.34011,0.0106 0.66021,0.0638 0.9375,0.15625 1.64807,0.54936 4.73842,2.1698 7.09375,2.125 0.54947,5.30564 0.61061,11.16689 0.5625,16.5 -3.18121,0.86229 -7.00567,2.05967 -8.375,1.375 -5.02001,-2.51001 -15.12735,-4.96171 -12.5,-12.84375 1.04388,-3.13164 3.67137,-5.77587 6.78125,-6.8125 0.75,-0.25 1.75,0.25 2.5,0 0.76975,-0.25658 1.97966,-0.53173 3,-0.5 z"
       id="path3385"
       inkscape:connector-curvature="0" />
    <path
       style="fill:#ff0000;stroke:#ffffff;stroke-width:1px;stroke-linecap:butt;stroke-linejoin:miter;stroke-opacity:0"
       d="m 682.36102,850.049 c -0.57318,-0.0321 -1.10992,0.004 -1.56735,0.14143 -1.74079,0.52388 -3.95025,0.35289 -5.74753,0.89377 -5.38847,1.62161 -8.75746,4.79446 -13.11129,8.89929 -2.48461,2.3425 -5.18073,5.93219 -6.00042,9.48379 -0.76765,3.32611 -1.86459,6.62351 -2.79317,9.92211 -2.30938,8.20353 3.6889,19.34549 7.80292,25.92833 1.57268,2.51644 5.74604,5.21591 8.42175,5.96915 1.2094,0.34045 2.43463,1.14455 3.51866,1.54171 0.74232,0.27196 1.7566,-0.1984 2.49892,0.0736 7.44699,2.72834 17.59703,-4.10874 22.0348,-8.2927 0.69099,-0.65147 0.68996,-2.96693 1.17699,-3.8733 0.23956,-0.44581 0.0482,-1.63833 0.0635,-2.15532 0.0924,-3.13891 -2.09497,-3.28181 -4.90312,-3.36448 -1.46345,-0.043 -10.61576,4.06023 -12.65275,5.00486 -1.71397,0.79482 -6.49824,-0.23942 -7.81921,-0.94925 -1.3177,-0.70806 -4.27755,-0.47835 -5.33037,-1.59504 -2.02967,-2.1528 -4.43881,-7.5827 -3.5638,-11.53843 1.02714,-4.64346 0.43853,-8.3999 2.7438,-8.85167 8.34672,7.31703 26.99598,7.71025 31.12549,-1.2275 1.0842,-2.34662 0.3863,-5.33469 1.29285,-7.8091 0.53472,-1.45952 0.0945,-3.98175 -0.56029,-5.39382 -0.68569,-1.47863 -1.06161,-3.41873 -1.64438,-4.67541 -1.50613,-3.24781 -6.98859,-5.04039 -10.14985,-6.73908 -1.07571,-0.57803 -3.11658,-1.29657 -4.8361,-1.3929 z m 0.58398,12.02238 c 1.94946,0.0184 3.53294,0.39723 4.24906,1.15678 2.75406,2.92115 2.13373,6.67398 -0.61671,9.26712 -0.82985,0.78239 -4.6352,0.23871 -6.07091,0.19644 l -4.65423,-0.137 c -2.00939,-0.0591 -3.52544,-1.82563 -5.67397,-1.60516 -2.10759,-5.75452 6.91841,-8.93336 12.76676,-8.87818 z"
       id="path3390"
       inkscape:connector-curvature="0"
       sodipodi:nodetypes="ssssssssssscssscsscssssssssssscs" />
    <path
       style="fill:#ff0000;stroke:#ffffff;stroke-width:1px;stroke-linecap:butt;stroke-linejoin:miter;stroke-opacity:0"
       d="m 734.81681,848.96877 c -0.73722,-0.0257 -1.51533,0.0124 -2.06609,-0.0287 -7.81728,-0.58276 -17.47219,2.49695 -21.85449,9.84004 -1.84859,3.09757 -2.96788,6.83946 -4.32393,10.08146 -1.59126,3.80437 -1.16219,8.31746 -1.53297,12.57709 -0.0494,0.0548 -0.0843,0.1309 -0.1386,0.17769 -0.007,0.007 0.0548,0.21044 0.0726,0.28743 -0.0483,0.4721 -0.0925,0.93373 -0.16687,1.39772 0.003,0.008 -0.006,0.023 -0.002,0.0311 0.31028,0.88961 0.40066,2.33734 0.38822,4.04004 -0.14008,1.9959 -0.27742,4.51918 -0.40638,7.55319 -0.009,0.20898 -0.038,0.41206 -0.0464,0.62327 -0.17886,2.68746 -0.30504,5.26528 -0.15566,7.13317 0.004,0.0466 0.0178,0.0814 0.0218,0.12697 0.006,5.39072 0.32511,10.19716 1.43164,11.48195 0.755,0.87664 5.02435,3.34257 6.65561,1.93765 1.32399,-1.14029 2.1851,-2.55265 3.13422,-3.37008 0.26278,-0.22631 0.8732,-10.56655 0.44842,-11.05976 -0.33404,-0.38786 0.22257,-2.9855 0.26484,-3.55265 0.48137,-6.45725 0.10787,-13.36193 0.50256,-20.61343 1.19367,-7.06214 3.06253,-13.2951 7.16452,-14.97757 3.28019,-1.34542 6.99879,-0.81296 8.86165,1.35 0.40477,0.46999 1.82607,1.37533 2.35835,1.99335 4.15664,4.82629 1.61362,17.02766 1.14327,23.33707 -0.19477,2.61268 0.31587,6.87641 -0.6923,9.28672 -0.74885,1.79033 -1.27537,9.96432 -0.53302,11.77421 1.56043,3.80441 0.96339,8.92483 6.68574,6.57773 1.57462,-0.64585 3.56026,-1.30234 4.50869,-2.89158 4.26964,-7.1543 6.45944,-23.22374 4.90916,-32.22421 -0.15684,-0.91054 0.36824,-1.92535 0.21141,-2.83588 -1.08679,-6.30965 0.16811,-20.1783 -5.75315,-23.71207 -1.16068,-0.69268 -1.76135,-2.58984 -2.99611,-3.10633 -2.10646,-0.88106 -4.43459,-2.10122 -6.57664,-2.99719 -0.22817,-0.0955 -0.50078,-0.14798 -0.80096,-0.18506 -0.22514,-0.0278 -0.47103,-0.0448 -0.71676,-0.0534 z"
       id="path3448"
       inkscape:connector-curvature="0" />
    <path
       style="fill:#ff0000;stroke:#ffffff;stroke-width:1px;stroke-linecap:butt;stroke-linejoin:miter;stroke-opacity:0"
       d="m 798.91478,818.83568 c -1.0469,-0.0721 -2.22755,0.52093 -3.61797,1.83183 -1.79853,1.69566 -3.64042,21.63843 -2.2047,26.04015 0.005,0.0165 -0.007,0.0463 -0.002,0.0624 -0.45314,1.73789 0.44934,3.94432 -0.16552,5.62257 -0.48335,1.3193 -0.72871,3.39266 -0.83892,5.13379 -1.48298,-1.25443 -3.02612,-2.37133 -4.58711,-2.41728 -20.82628,-0.61308 -30.08277,14.05214 -30.67331,34.11219 -0.10786,3.66408 1.88184,13.30035 3.09842,15.81677 2.29445,4.74596 8.06715,9.97363 12.52277,12.15501 1.35801,0.66486 9.75062,1.22378 10.7141,0.3154 0.54715,-0.51585 6.42912,-0.33175 7.52802,-0.84134 0.79023,-0.36645 2.10483,-2.59848 3.17805,-2.99059 0.43346,2.82274 1.94817,4.98937 3.88951,5.04652 0.14698,0.004 0.96477,0.12294 1.06204,0.0313 1.04125,-0.9817 2.62452,-1.41148 3.66576,-2.39317 0.6784,-0.63959 0.8878,-1.89996 1.47921,-2.45754 1.83002,-1.72536 1.82803,-13.24511 1.92249,-16.45388 0.23468,-7.97197 2.13384,-18.24891 0.4233,-26.06133 -0.37053,-1.69231 0.5287,-3.68037 0.15817,-5.37267 -0.54269,-2.47857 0.2387,-5.44772 -0.48763,-7.86151 -0.69847,-7.05402 0.14523,-16.43851 -0.33994,-23.23882 -1.39693,-3.09284 1.90434,-13.26503 -1.82203,-14.22617 -0.91928,-1.73314 -3.71071,-1.7717 -4.90284,-1.85367 z m -9.15729,49.81461 c 0.87867,0.015 1.63571,0.0915 2.24535,0.19115 0.0563,6.30809 0.24425,13.2166 0.73643,14.27786 1.03031,2.22175 -1.27215,5.99343 -0.24183,8.21518 0.66945,1.44363 1.09573,6.31522 1.33184,11.04398 -1.97981,0.57739 -4.02584,1.10835 -5.9901,1.69948 -2.38049,0.71638 -6.03332,-0.57584 -8.23542,0.44536 -0.75041,0.34799 -2.3161,1.29388 -3.58211,0.6136 -5.10745,-2.74447 -8.36161,-8.0121 -8.16979,-14.52794 0.039,-1.32506 -0.0952,-2.83427 0.4907,-3.92475 0.41393,-0.77033 0.01,-2.05516 0.42728,-2.83241 3.10386,-5.77626 6.62791,-9.71097 11.13434,-13.95966 0.65388,-0.61648 1.93063,-0.20208 2.86367,-0.63476 0.72095,-0.33432 4.23464,-0.65428 6.98964,-0.60709 z"
       id="path3456"
       inkscape:connector-curvature="0"
       sodipodi:nodetypes="csccscsssssscscsssssccccccsscssssscscc" />
    <path
       style="fill:#ff0000;fill-opacity:1;stroke:#ffffff;stroke-width:1px;stroke-linecap:butt;stroke-linejoin:miter;stroke-opacity:0"
       d="m 629.28572,671.6479 c -0.95238,0 -2.85714,0.95239 -2.85714,0 0,-0.95238 3.80952,0 2.85714,0 -12.13809,0 -6.98209,22.93753 -5.71428,23.57143 9.44943,4.72472 12.0335,-15.6724 5.71428,-23.57143 z"
       id="path3476"
       inkscape:connector-curvature="0" />
    <path
       style="fill:#ff0000;fill-opacity:1;stroke:#ffffff;stroke-width:1px;stroke-linecap:butt;stroke-linejoin:miter;stroke-opacity:0"
       d="m 848.57143,673.79075 c 0.0355,-0.0267 -0.12646,-1.30211 -5,3.57143 -3.51009,3.51009 -0.77262,27.91548 7.14286,20 5.04437,-5.04437 7.19106,-23.57143 -2.14286,-23.57143 z"
       id="path3478"
       inkscape:connector-curvature="0" />
    <path
       style="fill:#ff0000;fill-opacity:1;stroke:#ffffff;stroke-width:1px;stroke-linecap:butt;stroke-linejoin:miter;stroke-opacity:0"
       d="m 643.56391,833.22722 c -1.8274,2.61653 -2.48762,5.67774 -2.28485,8.74139 0.19438,2.93685 -1.02137,6.1997 -0.81222,9.3598 0.39081,5.90474 8.26791,5.88761 10.73807,0.005 2.01817,-4.80608 1.38392,-15.57317 -1.93919,-18.48371 -1.43288,-1.25498 -3.80121,0.25159 -5.70181,0.37738 z"
       id="path3480"
       inkscape:connector-curvature="0" />
    <path
       style="fill:#ff0000;fill-opacity:1;stroke:#ffffff;stroke-width:1px;stroke-linecap:butt;stroke-linejoin:miter;stroke-opacity:0"
       d="m 818.10991,838.54278 c 0.16824,3.12049 -0.66256,5.80187 -0.2755,8.68529 0.20898,1.55685 -0.95966,3.58877 -0.75067,5.14562 0.48601,3.62056 5.55848,9.36655 9.25548,4.52312 0.77113,-1.01027 4.60043,-31.78206 -8.22931,-18.35403 z"
       id="path3482"
       inkscape:connector-curvature="0" />
    <path
       style="fill:#ff00ff;stroke:#ffffff;stroke-width:1px;stroke-linecap:butt;stroke-linejoin:miter;stroke-opacity:0"
       d="m 106.83036,393.41502 c -6.834493,0.29288 -14.009663,4.72729 -16.843753,11.8125 0,1.09902 -0.38164,2.12422 -0.875,3.125 -0.31357,1.35547 -0.67488,2.58545 -1.40625,2.6875 -0.21484,0.43661 -0.41187,0.86061 -0.5625,1.3125 -0.2867,0.8601 1.4375,26.12688 1.4375,30 0,8.75364 4.7833,74.81455 7.125,77.15625 0.95277,0.95277 20.255823,14.02543 25.718753,8.5625 3.48841,-3.48841 6.91523,-6.67419 10,-12.84375 4.23036,-8.46072 0.43348,-48.08367 -4.125,-78.5 2.88343,-3.95521 6.04149,-7.72899 8.40625,-10.09375 1.92235,-1.92235 9.72935,-1.1356 11.4375,-2.84375 0.22263,-0.22263 2.48781,-3.23094 4.28125,-1.4375 3.5038,3.5038 23.44799,11.4375 27.15625,11.4375 1.0648,0 0.65333,-2.09083 1.40625,-2.84375 4.80267,-4.80267 8.35948,-13.10927 2.875,-18.59375 -0.9898,-0.98979 -0.4477,-6.1352 -1.4375,-7.125 -20.24882,-20.24883 -44.91259,-10.96612 -59.375,2.5625 -0.78423,-3.30946 -1.48347,-5.68569 -2.0625,-6.84375 -2.73769,-5.47538 -7.84053,-7.75905 -13.15625,-7.53125 z m -19.125003,17.625 c 0.44608,-0.90652 0.96227,-1.78689 1.40625,-2.6875 0.26447,-1.14322 0.48768,-2.35035 0.875,-3.125 0,-2.12959 -4.74851,4.76637 -2.84375,5.71875 0.21164,0.10582 0.39397,0.11727 0.5625,0.0937 z"
       id="path3503"
       inkscape:connector-curvature="0" />
    <path
       style="fill:#ff00ff;stroke:#ffffff;stroke-width:1px;stroke-linecap:butt;stroke-linejoin:miter;stroke-opacity:0"
       d="m 254.83466,398.0604 c -25.53363,-4.82146 -51.98805,4.54832 -64.01187,33.93453 -16.47949,40.27591 -6.01618,90.50355 40.44386,99.48629 14.52694,2.80869 23.01622,1.48522 33.00636,-5.26775 2.53256,-1.71192 19.02364,-18.77208 13.85945,-26.41183 -7.01894,-10.38362 -16.43204,-3.53541 -23.54465,1.27246 -5.31771,3.59457 -10.28296,3.29685 -14.23562,5.96871 -0.83518,0.56455 -5.92789,-1.14612 -7.02613,-1.35846 -20.6629,-3.99503 -26.06758,-30.62059 -22.15651,-50.84924 15.79806,-2.62594 31.8771,2.64521 47.89355,0.53882 5.68847,-0.74811 17.76779,-1.02157 22.67311,-4.33738 7.53699,-5.09474 16.79837,-29.81129 5.9148,-38.16489 -9.78745,-7.51229 -21.21014,-12.61969 -32.81635,-14.81126 z m -1.96464,19.54493 c 11.74339,2.16369 19.35689,9.34651 8.85115,16.44801 -6.97627,4.71571 -23.77917,-1.95607 -33.60502,0.79148 -27.66594,7.73608 9.47098,-4.00306 -10.63088,2.30512 3.47723,-17.98472 22.07558,-21.99679 35.38475,-19.54461 z"
       id="path3507"
       inkscape:connector-curvature="0" />
    <path
       style="fill:#ff00ff;stroke:#ffffff;stroke-width:1px;stroke-linecap:butt;stroke-linejoin:miter;stroke-opacity:0"
       d="m 356.58929,391.97306 c -28.75661,0.32968 -57.81313,17.12985 -56.59375,38.96875 10.42281,13.02851 17.38321,12.61679 27.15625,2.84375 1.19048,-1.19048 0.21578,-4.52827 1.40625,-5.71875 l 12.875,-12.84375 c 0.71368,-0.71369 13.58014,-3.57611 15.71875,-1.4375 2.29896,2.29896 7.36288,3.08164 10,5.71875 1.78426,1.78426 3.73698,8.01823 5.71875,10 0.82208,0.82209 0.18596,14.24776 -0.5,23.6875 -30.71211,-16.837 -58.74334,1.89294 -72.375,29.15625 -9.30729,18.61459 17.26928,40.11303 22.875,45.71875 1.92889,1.9289 10.01,2.86437 12.84375,4.28125 7.07397,3.53698 20.73341,-4.63233 25.71875,-7.125 3.60057,-1.80029 6.1195,-3.13057 8.1875,-4.34375 -0.0362,1.39394 0.0368,2.56806 0.375,2.90625 3.44162,3.44161 3.14196,10.26696 7.15625,14.28125 2.63663,2.63663 7.96737,-2.24862 8.5625,-2.84375 2.38095,-2.38095 6.18155,-3.3378 8.5625,-5.71875 4.91698,-4.91698 10,-26.492 10,-37.15625 0,-17.4049 1.37743,-77.18507 -7.125,-85.6875 -10.51455,-10.51455 -25.49951,-14.86019 -40.5625,-14.6875 z m -10.5625,71.9375 c 7.6466,-0.12975 17.22383,4.0004 25.34375,5.8125 0.36031,2.21569 0.6379,4.3492 0.0625,5.5 -1.10553,2.21106 -1.40399,11.8979 -1.46875,21.40625 -18.00509,8.87932 -36.83104,16.27543 -48.53125,-7.125 -1.56608,-3.13216 1.84138,-6.15388 2.84375,-7.15625 0.71571,-0.71571 0.50096,-4.75096 1.4375,-5.6875 4.82089,-4.82089 7.23089,-7.91232 14.28125,-11.4375 1.79462,-0.89731 3.83803,-1.27528 6.03125,-1.3125 z"
       id="path3539"
       inkscape:connector-curvature="0" />
    <path
       style="fill:#ff00ff;fill-opacity:1;stroke:#ffffff;stroke-width:1px;stroke-linecap:butt;stroke-linejoin:miter;stroke-opacity:0"
       d="m 501.5625,329.16055 c -1.9317,0.049 -4.32159,0.59739 -7.28125,1.78125 -7.89047,22.82424 0,48.52723 0,71.40625 0,1.28906 -0.0221,2.58321 -0.0312,3.875 -12.31225,-4.98411 -28.50693,-7.67477 -35.6875,-5.28125 -4.96651,1.65551 -10.74702,3.23289 -15.71875,5.71875 -3.00021,1.50011 -3.33778,4.51264 -5.6875,5.6875 -1.60527,0.80264 -6.2567,2.51341 -7.15625,4.3125 -4.18923,8.37846 -10.11159,15.94193 -14.28125,24.28125 -3.13687,6.27373 0.0768,15.50253 -2.875,21.40625 -3.37776,6.75553 0.97875,2.82714 -1.41518,10.00893 -8.09072,24.27215 13.06576,47.34701 27.15625,61.4375 4.98019,4.98019 21.35799,1.4375 25.6875,1.4375 4.05998,0 18.32582,-3.12476 27.96875,-5.65625 1.88892,6.71262 5.46529,11.34375 12.03125,11.34375 9.45123,0 10.6974,-4.17606 14.3125,-11.40625 8.74207,-17.48415 -3.03902,-61.10946 2.84375,-72.875 6.02595,-12.05189 -2.51231,-100.70766 -7.14732,-109.97768 -4.22746,-8.45493 -4.34805,-17.71224 -12.71875,-17.5 z M 483.40625,432.9418 c 3.14458,-0.0141 5.53717,1.22467 8.03125,3.71875 5.43771,5.43771 3.59051,59.25325 -0.009,62.85268 -3.79422,3.79423 -27.03486,24.40264 -37.15625,14.28125 -3.53155,-3.53156 -7.09185,-9.96685 -11.40625,-14.28125 -3.5905,-3.5905 -0.73256,-9.99637 -2.875,-14.28125 -4.45768,-8.91537 -4.65865,-14.95501 0.009,-24.29018 6.05388,-12.10776 17.05521,-34.22673 34.28125,-25.71875 3.76694,-1.50677 6.67922,-2.27026 9.125,-2.28125 z"
       id="path3557"
       inkscape:connector-curvature="0"
       sodipodi:nodetypes="ccscssssssssscssssccssssssscs" />
    <path
       inkscape:connector-curvature="0"
       id="path3565"
       d="m 590.875,394.8302 c -28.75661,0.32968 -57.81313,17.12985 -56.59375,38.96875 10.42281,13.02851 17.38321,12.61679 27.15625,2.84375 1.19048,-1.19048 0.21578,-4.52827 1.40625,-5.71875 l 12.875,-12.84375 c 0.71368,-0.71369 13.58014,-3.57611 15.71875,-1.4375 2.29896,2.29896 7.36288,3.08164 10,5.71875 1.78426,1.78426 3.73698,8.01823 5.71875,10 0.82208,0.82209 0.18596,14.24776 -0.5,23.6875 -30.71211,-16.837 -58.74334,1.89294 -72.375,29.15625 -9.30729,18.61459 17.26928,40.11303 22.875,45.71875 1.92889,1.9289 10.01,2.86437 12.84375,4.28125 7.07397,3.53698 20.73341,-4.63233 25.71875,-7.125 3.60057,-1.80029 6.1195,-3.13057 8.1875,-4.34375 -0.0362,1.39394 0.0368,2.56806 0.375,2.90625 3.44162,3.44161 3.14196,10.26696 7.15625,14.28125 2.63663,2.63663 7.96737,-2.24862 8.5625,-2.84375 2.38095,-2.38095 6.18155,-3.3378 8.5625,-5.71875 4.91698,-4.91698 10,-26.492 10,-37.15625 0,-17.4049 1.37743,-77.18507 -7.125,-85.6875 -10.51455,-10.51455 -25.49951,-14.86019 -40.5625,-14.6875 z m -10.5625,71.9375 c 7.6466,-0.12975 17.22383,4.0004 25.34375,5.8125 0.36031,2.21569 0.6379,4.3492 0.0625,5.5 -1.10553,2.21106 -1.40399,11.8979 -1.46875,21.40625 -18.00509,8.87932 -36.83104,16.27543 -48.53125,-7.125 -1.56608,-3.13216 1.84138,-6.15388 2.84375,-7.15625 0.71571,-0.71571 0.50096,-4.75096 1.4375,-5.6875 4.82089,-4.82089 7.23089,-7.91232 14.28125,-11.4375 1.79462,-0.89731 3.83803,-1.27528 6.03125,-1.3125 z"
       style="fill:#ff00ff;stroke:#ffffff;stroke-width:1px;stroke-linecap:butt;stroke-linejoin:miter;stroke-opacity:0" />
    <path
       sodipodi:nodetypes="ccscssssssssscssssccssssssscs"
       inkscape:connector-curvature="0"
       id="path3567"
       d="m 671.58299,329.16055 c 1.9317,0.049 4.32159,0.59739 7.28125,1.78125 7.89047,22.82424 0,48.52723 0,71.40625 0,1.28906 0.0221,2.58321 0.0312,3.875 12.31225,-4.98411 28.50693,-7.67477 35.6875,-5.28125 4.96651,1.65551 10.74702,3.23289 15.71875,5.71875 3.00021,1.50011 3.33778,4.51264 5.6875,5.6875 1.60527,0.80264 6.2567,2.51341 7.15625,4.3125 4.18923,8.37846 10.11159,15.94193 14.28125,24.28125 3.13687,6.27373 -0.0768,15.50253 2.875,21.40625 3.37776,6.75553 -0.97875,2.82714 1.41518,10.00893 8.09072,24.27215 -13.06576,47.34701 -27.15625,61.4375 -4.98019,4.98019 -21.35799,1.4375 -25.6875,1.4375 -4.05998,0 -18.32582,-3.12476 -27.96875,-5.65625 -1.88892,6.71262 -5.46529,11.34375 -12.03125,11.34375 -9.45123,0 -10.6974,-4.17606 -14.3125,-11.40625 -8.74207,-17.48415 3.03902,-61.10946 -2.84375,-72.875 -6.02595,-12.05189 2.51231,-100.70766 7.14732,-109.97768 4.22746,-8.45493 4.34805,-17.71224 12.71875,-17.5 z m 18.15625,103.78125 c -3.14458,-0.0141 -5.53717,1.22467 -8.03125,3.71875 -5.43771,5.43771 -3.59051,59.25325 0.009,62.85268 3.79422,3.79423 27.03486,24.40264 37.15625,14.28125 3.53155,-3.53156 7.09185,-9.96685 11.40625,-14.28125 3.5905,-3.5905 0.73256,-9.99637 2.875,-14.28125 4.45768,-8.91537 4.65865,-14.95501 -0.009,-24.29018 -6.05388,-12.10776 -17.05521,-34.22673 -34.28125,-25.71875 -3.76694,-1.50677 -6.67922,-2.27026 -9.125,-2.28125 z"
       style="fill:#ff00ff;fill-opacity:1;stroke:#ffffff;stroke-width:1px;stroke-linecap:butt;stroke-linejoin:miter;stroke-opacity:0" />
    <path
       style="fill:#ff00ff;fill-opacity:1;stroke:#ffffff;stroke-width:1px;stroke-linecap:butt;stroke-linejoin:miter;stroke-opacity:0"
       d="m 792.85714,338.07646 c -22.86034,-6.29389 -18.57143,48.61298 -18.57143,77.14286 0,11.2475 -3.38738,30.36809 1.42858,40 5.72728,11.45456 -4.88461,38.80222 1.42857,51.42857 6.80434,13.6087 -8.67423,27.09146 8.57143,35.71429 13.56124,6.78062 18.57142,-21.54498 18.57142,-31.42857 0,-10.61113 3.81665,-48.081 0,-55.71429 -2.09785,-4.1957 -5.10883,-24.06803 -2.85714,-28.57143 1.69643,-3.39286 5.68191,-61.49332 4.28572,-64.28571 -4.78279,-9.56558 -5.58699,-15.19803 -12.85715,-24.28572 z"
       id="path3569"
       inkscape:connector-curvature="0" />
    <path
       inkscape:connector-curvature="0"
       id="path3571"
       d="m 894.83466,408.0604 c -25.53363,-4.82146 -51.98805,4.54832 -64.01187,33.93453 -16.47949,40.27591 -6.01618,90.50355 40.44386,99.48629 14.52694,2.80869 23.01622,1.48522 33.00636,-5.26775 2.53256,-1.71192 19.02364,-18.77208 13.85945,-26.41183 -7.01894,-10.38362 -16.43204,-3.53541 -23.54465,1.27246 -5.31771,3.59457 -10.28296,3.29685 -14.23562,5.96871 -0.83518,0.56455 -5.92789,-1.14612 -7.02613,-1.35846 -20.6629,-3.99503 -26.06758,-30.62059 -22.15651,-50.84924 15.79806,-2.62594 31.8771,2.64521 47.89355,0.53882 5.68847,-0.74811 17.76779,-1.02157 22.67311,-4.33738 7.53699,-5.09474 16.79837,-29.81129 5.9148,-38.16489 -9.78745,-7.51229 -21.21014,-12.61969 -32.81635,-14.81126 z m -1.96464,19.54493 c 11.74339,2.16369 19.35689,9.34651 8.85115,16.44801 -6.97627,4.71571 -23.77917,-1.95607 -33.60502,0.79148 -27.66594,7.73608 9.47098,-4.00306 -10.63088,2.30512 3.47723,-17.98472 22.07558,-21.99679 35.38475,-19.54461 z"
       style="fill:#ff00ff;stroke:#ffffff;stroke-width:1px;stroke-linecap:butt;stroke-linejoin:miter;stroke-opacity:0" />
  </g>
</svg>
