<?xml version="1.0" encoding="UTF-8" standalone="no"?>
<!-- Created with Inkscape (http://www.inkscape.org/) -->
<svg
   xmlns:dc="http://purl.org/dc/elements/1.1/"
   xmlns:cc="http://creativecommons.org/ns#"
   xmlns:rdf="http://www.w3.org/1999/02/22-rdf-syntax-ns#"
   xmlns:svg="http://www.w3.org/2000/svg"
   xmlns="http://www.w3.org/2000/svg"
   xmlns:sodipodi="http://sodipodi.sourceforge.net/DTD/sodipodi-0.dtd"
   xmlns:inkscape="http://www.inkscape.org/namespaces/inkscape"
   width="744.09448819"
   height="1052.3622047"
   id="svg2"
   sodipodi:version="0.32"
   inkscape:version="0.46"
   sodipodi:docname="discord.svg"
   inkscape:output_extension="org.inkscape.output.svg.inkscape"
   inkscape:export-filename="/home/substack/media/images/comics/robots/discord.png"
   inkscape:export-xdpi="55.82"
   inkscape:export-ydpi="55.82">
  <defs
     id="defs4">
    <inkscape:perspective
       sodipodi:type="inkscape:persp3d"
       inkscape:vp_x="0 : 526.18109 : 1"
       inkscape:vp_y="0 : 1000 : 0"
       inkscape:vp_z="744.09448 : 526.18109 : 1"
       inkscape:persp3d-origin="372.04724 : 350.78739 : 1"
       id="perspective10" />
  </defs>
  <sodipodi:namedview
     id="base"
     pagecolor="#ffffff"
     bordercolor="#666666"
     borderopacity="1.0"
     gridtolerance="10000"
     guidetolerance="10"
     objecttolerance="10"
     inkscape:pageopacity="0.0"
     inkscape:pageshadow="2"
     inkscape:zoom="0.98994949"
     inkscape:cx="236.74254"
     inkscape:cy="343.07746"
     inkscape:document-units="px"
     inkscape:current-layer="layer1"
     showgrid="false"
     inkscape:window-width="1438"
     inkscape:window-height="874"
     inkscape:window-x="0"
     inkscape:window-y="24" />
  <metadata
     id="metadata7">
    <rdf:RDF>
      <cc:Work
         rdf:about="">
        <dc:format>image/svg+xml</dc:format>
        <dc:type
           rdf:resource="http://purl.org/dc/dcmitype/StillImage" />
      </cc:Work>
    </rdf:RDF>
  </metadata>
  <g
     inkscape:label="Layer 1"
     inkscape:groupmode="layer"
     id="layer1">
    <path
       style="opacity:1;fill:#aba7b7;fill-opacity:1;fill-rule:evenodd;stroke:#000000;stroke-width:2;stroke-linecap:round;stroke-linejoin:round;marker:none;marker-start:none;marker-mid:none;marker-end:none;stroke-miterlimit:4;stroke-dasharray:none;stroke-dashoffset:0;stroke-opacity:1;visibility:visible;display:inline;overflow:visible;enable-background:accumulate"
       d="M 288.57143,818.43361 C 288.57143,816.28745 288.21429,822.71602 288.21429,824.86218 C 288.21429,826.52885 288.21429,828.19552 288.21429,829.86218 C 288.21429,831.79997 288.36096,833.01266 288.92857,834.1479 C 289.61052,835.51179 290.40857,836.34218 291.42857,837.36218 C 292.63686,838.57047 294.07316,839.64963 295.35714,840.93361 C 296.33473,841.91119 298.00646,842.66737 299.64286,843.07647 C 301.28258,843.4864 302.80338,844.13445 304.28571,844.50504 C 305.85938,844.89846 308.24022,844.49856 309.64286,844.1479 C 311.69965,843.6337 312.24098,842.71933 314.28571,842.71933 C 316.34263,842.71933 316.03041,840.05526 315.71429,838.79075 C 315.29001,837.09364 315.35714,835.28939 315.35714,833.43361 C 315.35714,831.38895 315.71429,830.47517 315.71429,828.43361 C 315.71429,827.96289 316.07143,826.9927 316.07143,826.29075"
       id="path2619" />
    <path
       style="opacity:1;fill:#aba7b7;fill-opacity:1;fill-rule:evenodd;stroke:#000000;stroke-width:2;stroke-linecap:round;stroke-linejoin:round;marker:none;marker-start:none;marker-mid:none;marker-end:none;stroke-miterlimit:4;stroke-dasharray:none;stroke-dashoffset:0;stroke-opacity:1;visibility:visible;display:inline;overflow:visible;enable-background:accumulate"
       d="M 330,831.6479 C 330,829.50174 329.64286,835.93031 329.64286,838.07647 C 329.64286,839.92174 329.74202,841.48908 330.35714,842.71933 C 330.91063,843.8263 333.71736,844.54152 335,844.86218 C 336.76169,845.3026 338.60891,845.13941 340.35714,845.57647 C 342.27063,846.05484 343.85741,845.14783 345,844.86218 C 346.42542,844.50583 348.2973,843.85929 350,843.43361 C 351.69589,843.00964 353.29539,842.43119 355,842.00504 C 356.66513,841.58876 358.01883,840.49563 359.28571,839.86218 C 360.43844,839.28582 361.28611,838.57607 362.14286,837.71933 C 363.20349,836.6587 363.21429,834.83775 363.21429,833.07647 C 363.21429,831.19916 362.5,830.26386 362.5,828.43361 C 362.5,826.74976 362.14286,825.24029 362.14286,823.43361 C 362.14286,822.83837 362.14286,822.24313 362.14286,821.6479"
       id="path2621" />
    <path
       style="opacity:1;fill:#aba7b7;fill-opacity:1;fill-rule:evenodd;stroke:#000000;stroke-width:2;stroke-linecap:round;stroke-linejoin:round;marker:none;marker-start:none;marker-mid:none;marker-end:none;stroke-miterlimit:4;stroke-dasharray:none;stroke-dashoffset:0;stroke-opacity:1;visibility:visible;display:inline;overflow:visible;enable-background:accumulate"
       d="M 328.92857,820.93361 C 328.37998,818.73924 328.92857,825.45742 328.92857,827.71933 C 328.92857,829.32116 329.01962,831.2978 329.28571,832.36218 C 329.57561,833.52175 331.38159,834.1479 332.85714,834.1479 C 334.45967,834.1479 336.40057,834.50504 338.21429,834.50504 C 340.11997,834.50504 341.61953,834.1479 343.57143,834.1479 C 345.6783,834.1479 347.08929,833.53629 348.92857,833.07647 C 350.96699,832.56686 352.23046,831.78267 353.92857,830.93361 C 355.75379,830.021 356.81849,828.95294 358.57143,828.07647 C 360.16862,827.27787 361.43492,825.57012 362.5,824.50504 C 363.45342,823.55162 363.27516,821.89139 362.85714,820.21933 C 362.49189,818.75832 361.71253,816.7123 361.42857,815.57647 C 360.98592,813.80587 361.14684,811.94954 360.71429,810.21933 C 360.32151,808.64821 359.97131,806.89028 359.64286,805.57647"
       id="path2615" />
    <path
       style="opacity:1;fill:#9d616f;fill-opacity:1;fill-rule:evenodd;stroke:#000000;stroke-width:2;stroke-linecap:round;stroke-linejoin:round;marker:none;marker-start:none;marker-mid:none;marker-end:none;stroke-miterlimit:4;stroke-dasharray:none;stroke-dashoffset:0;stroke-opacity:1;visibility:visible;display:inline;overflow:visible;enable-background:accumulate"
       d="M 257.89143,648.98462 C 261.59019,647.28973 250.30224,652.02756 246.3239,652.87973 C 243.0341,653.5844 239.78946,656.22825 236.898,656.84761 C 233.11786,657.65731 230.62043,658.72375 227.5206,659.38773 C 223.91435,660.16019 220.33701,661.28079 217.42933,661.90362 C 214.3763,662.55757 212.41032,663.86453 209.4797,664.49226 C 206.31458,665.17023 203.57962,667.2397 201.45728,669.22253 C 199.39259,671.15151 198.627,672.18334 197.66959,675.52611 C 196.97866,677.93842 196.6585,681.55845 197.35422,684.80647 C 198.04826,688.04662 200.32536,690.20613 202.10875,692.115 C 203.35928,693.45353 210.29122,691.95686 211.41336,691.71649 C 214.598,691.03436 218.27149,691.31051 221.45611,690.62837 C 225.14783,689.8376 227.75306,688.92522 231.54737,688.11249 C 235.21453,687.32699 239.15837,685.67902 242.40103,684.19313 C 246.24708,682.43074 247.84227,681.78744 251.80268,680.93912 C 255.36613,680.17583 256.77149,678.28028 259.77659,677.6366 C 262.14838,677.12856 263.28161,675.64564 266.29849,674.99943"
       id="path2513" />
    <path
       style="opacity:1;fill:#aba7b7;fill-opacity:1;fill-rule:evenodd;stroke:#000000;stroke-width:2;stroke-linecap:round;stroke-linejoin:round;marker:none;marker-start:none;marker-mid:none;marker-end:none;stroke-miterlimit:4;stroke-dasharray:none;stroke-dashoffset:0;stroke-opacity:1;visibility:visible;display:inline;overflow:visible;enable-background:accumulate"
       d="M 178.554,544.44718 C 177.33593,547.04261 177.90699,538.74224 177.83576,535.87609 C 177.7772,533.51979 177.71864,531.16349 177.66008,528.8072 C 177.60192,526.46708 178.29734,524.79104 179.0368,523.21543 C 180.56613,519.95682 181.97379,521.59961 184.07347,522.58502 C 185.76851,523.38053 185.6633,525.57612 186.21862,527.58403 C 186.83012,529.79502 186.3484,533.17505 185.90194,535.17038 C 185.42326,537.30966 185.49594,539.16347 185.56015,541.74689 C 185.60615,543.59827 185.65217,545.44965 185.69818,547.30102"
       id="path2523" />
    <path
       style="opacity:1;fill:#aba7b7;fill-opacity:1;fill-rule:evenodd;stroke:#000000;stroke-width:2;stroke-linecap:round;stroke-linejoin:round;marker:none;marker-start:none;marker-mid:none;marker-end:none;stroke-miterlimit:4;stroke-dasharray:none;stroke-dashoffset:0;stroke-opacity:1;visibility:visible;display:inline;overflow:visible;enable-background:accumulate"
       d="M 176.70844,559.99099 C 175.86149,560.22523 176.50863,551.95136 176.4951,551.40734 C 176.45018,549.5992 176.88126,546.8766 177.34181,544.81828 C 177.89626,542.34037 178.35644,541.36022 180.77587,540.69108 C 182.44654,540.22902 184.10416,542.87199 184.89052,543.6202 C 186.40264,545.05898 185.98711,548.25646 185.55858,550.17163 C 185.03702,552.50253 185.15882,554.41567 185.21678,556.74814 C 185.28578,559.5244 184.61997,561.20976 183.8526,562.84482 C 183.8526,562.84482 183.8526,562.84482 183.8526,562.84482"
       id="path2521" />
    <path
       style="opacity:1;fill:#9d616f;fill-opacity:1;fill-rule:evenodd;stroke:#000000;stroke-width:2;stroke-linecap:round;stroke-linejoin:round;marker:none;marker-start:none;marker-mid:none;marker-end:none;stroke-miterlimit:4;stroke-dasharray:none;stroke-dashoffset:0;stroke-opacity:1;visibility:visible;display:inline;overflow:visible;enable-background:accumulate"
       d="M 235.61808,657.64508 C 235.61808,658.98931 237.55306,661.34438 237.89092,662.69584 C 238.32388,664.42766 238.80935,665.77275 239.15362,667.49406 C 239.45405,668.99624 239.40615,670.48925 239.40615,672.03975 C 239.40615,673.30244 239.40615,674.56513 239.40615,675.82782 C 239.40615,677.10729 238.90108,678.27875 238.90108,679.61589 C 238.90108,680.76344 238.64854,681.76237 238.64854,683.15143 C 238.64854,683.91165 238.50814,684.21808 238.396,684.66666"
       id="path2573" />
    <path
       style="opacity:1;fill:#e7e3f0;fill-opacity:1;fill-rule:evenodd;stroke:#000000;stroke-width:2;stroke-linecap:round;stroke-linejoin:round;marker:none;marker-start:none;marker-mid:none;marker-end:none;stroke-miterlimit:4;stroke-dasharray:none;stroke-dashoffset:0;stroke-opacity:1;visibility:visible;display:inline;overflow:visible;enable-background:accumulate"
       d="M 255,671.6479 C 254.32225,670.2924 253.52015,666.59662 252.14286,665.21933 C 250.77133,663.84779 248.52754,660.75806 247.85714,658.07647 C 247.31023,655.88881 246.51345,651.93779 247.14286,648.79075 C 247.38095,647.60028 247.61905,646.4098 247.85714,645.21933 C 250.10781,642.96865 252.29203,641.57331 255,640.21933 C 257.65531,638.89167 260.31653,637.56106 263.57143,635.93361 C 266.41232,634.51317 269.61437,633.26928 272.85714,631.6479 C 275.53969,630.30662 278.37208,628.89043 281.42857,627.36218 C 283.79571,626.17861 287.26618,624.80052 290.71429,623.07647 C 291.73851,622.56436 302.54213,617.44644 302.85714,618.07647 C 307.44074,618.07647 310.18545,618.47997 314.28571,619.50504 C 317.4194,620.28846 321.1899,621.02873 324.28571,621.6479 C 328.10608,622.41197 330.76595,622.19653 334.28571,623.07647 C 337.39361,623.85344 341.12528,623.71493 344.28571,624.50504 C 347.64279,625.34431 351.55471,625.96514 354.28571,626.6479 C 358.10562,627.60287 360.51701,628.56286 364.28571,629.50504 C 366.25952,629.99849 371.63099,631.13603 373.57143,633.07647 C 376.49638,636.00142 377.15421,636.81796 373.57143,639.50504 C 374.91837,640.85198 370.43135,649.9225 370,651.6479 C 369.39254,654.07774 367.46253,658.15141 366.42857,660.21933 C 365.4153,662.24586 365.46945,666.19868 365,668.07647"
       id="path2481"
       sodipodi:nodetypes="cssssssscssssss" />
    <path
       style="opacity:1;fill:#aba7b7;fill-opacity:1;fill-rule:evenodd;stroke:#000000;stroke-width:2;stroke-linecap:round;stroke-linejoin:round;marker:none;marker-start:none;marker-mid:none;marker-end:none;stroke-miterlimit:4;stroke-dasharray:none;stroke-dashoffset:0;stroke-opacity:1;visibility:visible;display:inline;overflow:visible;enable-background:accumulate"
       d="M 285.71429,616.6479 C 284.66051,612.43279 286.80337,625.28993 287.85714,629.50504 C 288.74694,633.06421 288.81377,635.70401 290,638.07647 C 291.12896,640.33439 294.72982,641.04464 297.14286,641.6479 C 300.70268,642.53785 303.8349,643.85662 306.42857,644.50504 C 310.26869,645.46507 313.83257,643.30304 315.71429,642.36218 C 318.48144,640.97861 321.73152,638.56355 324.28571,636.6479 C 328.81169,633.25342 327.33359,631.31508 325.71429,628.07647 C 323.72665,624.10119 323.22176,622.7268 320,619.50504 C 317.80519,617.31023 316.41954,615.20127 315,612.36218 C 314.89352,612.14922 315,611.88599 315,611.6479"
       id="path2479" />
    <path
       style="opacity:1;fill:#aba7b7;fill-opacity:1;fill-rule:evenodd;stroke:#000000;stroke-width:2;stroke-linecap:round;stroke-linejoin:round;marker:none;marker-start:none;marker-mid:none;marker-end:none;stroke-miterlimit:4;stroke-dasharray:none;stroke-dashoffset:0;stroke-opacity:1;visibility:visible;display:inline;overflow:visible;enable-background:accumulate"
       d="M 280.71429,595.93361 C 280.71429,591.85808 281.1544,604.12262 282.14286,608.07647 C 283.00141,611.51066 282.9641,614.93288 283.57143,617.36218 C 284.17348,619.77038 288.57411,620.93428 291.42857,621.6479 C 294.76335,622.48159 297.51744,623.07647 301.42857,623.07647 C 305.50649,623.07647 308.0139,620.85523 310.71429,619.50504 C 310.92724,619.39856 311.19048,619.50504 311.42857,619.50504 C 313.10452,619.50504 316.66082,614.98708 318.57143,613.07647 C 320.39014,611.25776 317.03005,607.13656 315.71429,604.50504 C 314.66848,602.41342 313.34286,598.59075 312.85714,596.6479 C 312.33049,594.5413 311.97522,593.8345 311.42857,591.6479"
       id="path2477" />
    <path
       style="opacity:1;fill:#aba7b7;fill-opacity:1;fill-rule:evenodd;stroke:#000000;stroke-width:2;stroke-linecap:round;stroke-linejoin:round;marker:none;marker-start:none;marker-mid:none;marker-end:none;stroke-miterlimit:4;stroke-dasharray:none;stroke-dashoffset:0;stroke-opacity:1;visibility:visible;display:inline;overflow:visible;enable-background:accumulate"
       d="M 275,577.61472 C 275.0444,577.60362 276.24155,589.53673 276.42857,590.47186 C 276.97426,593.2003 277.96517,596.61827 278.57143,599.04329 C 278.78629,599.90274 286.03437,601.62332 287.14286,601.90044 C 290.15049,602.65235 292.77392,602.61472 296.42857,602.61472 C 299.63521,602.61472 302.30866,601.32327 305.71429,600.47186 C 308.95157,599.66254 311.04433,598.52113 314.28571,596.90044 C 317.61637,595.23511 315.97723,592.95221 315,589.04329 C 314.12537,585.54478 312.85714,583.23546 312.85714,579.04329 C 312.85714,575.63458 312.14286,574.44605 312.14286,571.18615"
       id="path2475" />
    <path
       style="opacity:1;fill:#d7d2e3;fill-opacity:1;fill-rule:evenodd;stroke:#000000;stroke-width:2;stroke-linecap:round;stroke-linejoin:round;marker:none;marker-start:none;marker-mid:none;marker-end:none;stroke-miterlimit:4;stroke-dasharray:none;stroke-dashoffset:0;stroke-opacity:1;visibility:visible;display:inline;overflow:visible;enable-background:accumulate"
       d="M 259.28571,473.07647 C 259.03489,472.07317 270.54341,467.58347 271.42857,467.36218 C 274.64746,466.55746 277.20886,466.09568 280.71429,465.21932 C 284.41402,464.29439 287.88168,463.2489 291.42857,462.36218 C 294.82948,461.51195 298.47497,461.6479 302.14286,461.6479 C 305.71429,461.6479 309.28571,461.6479 312.85714,461.6479 C 316.67413,461.6479 319.22969,462.16961 322.85714,463.07647 C 325.9597,463.85211 328.68831,465.06997 332.14286,465.93361 C 335.38858,466.74504 338.42294,468.21792 340.71429,468.79075 C 343.32568,469.4436 346.67432,470.99505 349.28571,471.6479 C 352.89973,472.5514 354.19982,474.16144 355,477.36218 C 355.75572,480.38504 354.80514,484.57021 354.28571,486.6479 C 353.44074,490.02781 352.80387,493.28957 352.14286,495.93361 C 351.2482,499.51223 351.56744,503.23527 350.71429,506.6479 C 349.81817,510.23235 350.15316,513.89239 349.28571,517.36218 C 348.41009,520.8647 348.02745,524.53809 347.14286,528.07647 C 346.30582,531.42461 345.70069,535.27372 345,538.07647 C 344.17179,541.3893 342.89446,544.35576 342.14286,547.36218 C 341.2329,551.00201 340.16676,554.88581 338.57143,558.07647 C 337.21495,560.78942 337.26457,564.01818 336.42857,567.36218 C 335.46291,571.22482 334.07485,573.28733 332.14286,575.21932 C 329.62483,577.73735 325.39199,577.97847 322.14286,578.79075 C 318.88657,579.60483 315.50179,579.54754 312.14286,580.21932 C 308.25348,580.9972 306.44051,581.6479 302.14286,581.6479 C 299.27303,581.6479 295.46881,582.36218 292.14286,582.36218 C 288.57143,582.36218 285,582.36218 281.42857,582.36218 C 277.67827,582.36218 276.02071,583.07647 272.14286,583.07647 C 268.05354,583.07647 266.22598,582.36218 262.14286,582.36218 C 259.17635,582.36218 255.44196,577.80414 254.28571,576.6479 C 252.90307,575.26525 251.35717,570.07652 250,567.36218 C 248.23348,563.82915 246.6181,559.54885 245.71429,555.93361 C 245.59879,555.47164 245.71429,554.98123 245.71429,554.50504 C 245.71429,550.39342 243.07661,547.52578 242.14286,543.79075 C 241.29825,540.41232 238.7324,537.29177 237.85714,533.79075 C 236.96991,530.24183 234.28626,526.65009 233.57143,523.79075 C 232.78479,520.64419 230.91933,516.75377 230,513.07647 C 229.09049,509.43844 228.03958,507.37766 227.14286,503.79075 C 226.16571,499.88218 224.62627,498.82393 226.42857,495.21932 C 227.66068,492.7551 230.79081,489.42851 232.14286,488.07647 C 234.33115,485.88817 236.86506,484.78284 238.57143,483.07647 C 240.67413,480.97376 242.90083,479.67269 246.42857,478.79075 C 249.85954,477.93301 251.81456,476.09776 255,474.50504 C 256.34687,473.8316 257.88757,473.63573 259.28571,473.07647 z"
       id="path2467" />
    <path
       style="opacity:1;fill:#ffffff;fill-opacity:1;fill-rule:evenodd;stroke:#000000;stroke-width:2;stroke-linecap:round;stroke-linejoin:round;marker:none;marker-start:none;marker-mid:none;marker-end:none;stroke-miterlimit:4;stroke-dasharray:none;stroke-dashoffset:0;stroke-opacity:1;visibility:visible;display:inline;overflow:visible;enable-background:accumulate"
       d="M 266.42857,510.21932 C 269.86243,508.5024 259.14328,513.21891 256.42857,515.93361 C 253.19196,519.17022 252.52284,522.45356 253.57143,526.6479 C 254.74688,531.34971 259.39029,532.77161 262.85714,534.50504 C 267.2265,536.68972 271.29041,534.00386 275,533.07647 C 278.69985,532.15151 281.71013,527.51336 282.85714,525.21932 C 284.55056,521.83249 284.49487,518.91308 283.57143,515.21932 C 282.59045,511.29541 276.08733,508.79075 272.85714,508.79075 C 269.9474,508.79075 269.67993,508.91878 266.42857,510.21932 z"
       id="path2469" />
    <path
       style="opacity:1;fill:#ffffff;fill-opacity:1;fill-rule:evenodd;stroke:#000000;stroke-width:2;stroke-linecap:round;stroke-linejoin:round;marker:none;marker-start:none;marker-mid:none;marker-end:none;stroke-miterlimit:4;stroke-dasharray:none;stroke-dashoffset:0;stroke-opacity:1;visibility:visible;display:inline;overflow:visible;enable-background:accumulate"
       d="M 307.85714,503.79075 C 304.13515,503.79075 298.61237,509.29577 296.42857,510.93361 C 293.62724,513.03461 293.57143,518.61812 293.57143,522.36218 C 293.57143,526.17999 298.10526,528.97684 300.71429,530.93361 C 304.50566,533.77714 311.9041,530.33871 315,528.79075 C 319.29797,526.64177 322.10402,523.82959 325,520.93361 C 328.41748,517.51613 329.28571,515.7277 329.28571,510.93361 C 329.28571,509.65664 321.68,505.94361 320.71429,505.21932 C 317.43623,502.76078 312.34979,502.89222 307.85714,503.79075 z"
       id="path2471" />
    <path
       style="opacity:1;fill:none;fill-opacity:0.55294118;fill-rule:evenodd;stroke:#000000;stroke-width:2;stroke-linecap:round;stroke-linejoin:round;marker:none;marker-start:none;marker-mid:none;marker-end:none;stroke-miterlimit:4;stroke-dasharray:none;stroke-dashoffset:0;stroke-opacity:1;visibility:visible;display:inline;overflow:visible;enable-background:accumulate"
       d="M 268.57143,564.50504 C 265.61444,562.2873 275.69984,562.54436 279.28571,561.6479 C 283.13629,560.68525 286.33088,559.55389 289.28571,558.07647 C 291.70438,556.86714 294.66612,556.5528 297.14286,555.93361 C 300.43375,555.11089 302.83598,554.6889 306.42857,553.79075 C 309.81363,552.94449 312.24273,552.51578 315.71429,551.6479 C 316.08807,551.55445 317.34388,551.1047 317.85714,550.93361"
       id="path2473" />
    <path
       style="opacity:1;fill:#9d616f;fill-opacity:1;fill-rule:evenodd;stroke:#000000;stroke-width:2;stroke-linecap:round;stroke-linejoin:round;marker:none;marker-start:none;marker-mid:none;marker-end:none;stroke-miterlimit:4;stroke-dasharray:none;stroke-dashoffset:0;stroke-opacity:1;visibility:visible;display:inline;overflow:visible;enable-background:accumulate"
       d="M 208.5965,692.2428 C 208.5477,692.2916 211.689,693.44345 212.63711,692.49534 C 213.40868,691.72376 214.00707,691.37792 214.65742,690.72757 C 215.34476,690.04023 216.08399,689.64219 216.67772,688.45473 C 217.20034,687.4095 217.15009,686.06018 217.43534,684.91919 C 217.71333,683.80723 217.94041,682.53826 217.94041,681.38366 C 217.94041,680.38025 218.44549,679.10291 218.44549,677.84813 C 218.44549,676.90039 218.44549,675.54184 218.44549,674.31259 C 218.44549,673.3204 218.16379,671.92313 217.94041,671.0296 C 217.64172,669.83483 217.72834,668.66609 217.43534,667.49406 C 217.16541,666.41434 216.2431,665.10959 215.92011,664.4636 C 215.51438,663.65216 215.08661,663.12503 214.65742,662.69584"
       id="path2563" />
    <path
       style="opacity:1;fill:#ff0000;fill-opacity:1;fill-rule:evenodd;stroke:#000000;stroke-width:2;stroke-linecap:round;stroke-linejoin:round;marker:none;marker-start:none;marker-mid:none;marker-end:none;stroke-miterlimit:4;stroke-dasharray:none;stroke-dashoffset:0;stroke-opacity:1;visibility:visible;display:inline;overflow:visible;enable-background:accumulate"
       d="M 309.28571,511.6479 C 301.04131,511.6479 307.5454,519.90758 307.85714,520.21932 C 310.65878,523.02096 313.89812,517.48398 314.28571,515.93361 C 315.06716,512.80782 311.88691,512.68838 309.28571,511.6479 z"
       id="path2485" />
    <path
       style="opacity:1;fill:#ff0000;fill-opacity:1;fill-rule:evenodd;stroke:#000000;stroke-width:2;stroke-linecap:round;stroke-linejoin:round;marker:none;marker-start:none;marker-mid:none;marker-end:none;stroke-miterlimit:4;stroke-dasharray:none;stroke-dashoffset:0;stroke-opacity:1;visibility:visible;display:inline;overflow:visible;enable-background:accumulate"
       d="M 272.65728,518.63048 C 275.37107,518.70094 265.52388,519.71552 265.45342,522.42931 C 265.34055,526.77647 268.63112,526.11258 271.96237,525.37107 C 274.66705,524.76903 273.79233,521.19686 272.65728,518.63048 z"
       id="path2487" />
    <path
       style="opacity:1;fill:#d7d2e3;fill-opacity:1;fill-rule:evenodd;stroke:#000000;stroke-width:2;stroke-linecap:round;stroke-linejoin:round;marker:none;marker-start:none;marker-mid:none;marker-end:none;stroke-miterlimit:4;stroke-dasharray:none;stroke-dashoffset:0;stroke-opacity:1;visibility:visible;display:inline;overflow:visible;enable-background:accumulate"
       d="M 199.93353,690.51589 C 199.47575,689.39145 199.01797,688.26701 198.56019,687.14258 C 198.04322,685.87276 194.47156,683.14762 193.27608,682.33647 C 191.62363,681.21524 190.10648,677.56042 188.99196,675.15704 C 187.60895,672.17465 185.67284,669.64674 184.57349,667.27607 C 183.0692,664.03219 182.90991,661.62972 181.42371,658.42484 C 180.05272,655.46839 179.46754,652.00849 178.84111,648.73772 C 178.27299,645.77145 176.9028,642.41457 176.25851,639.0506 C 175.63149,635.77676 175.00447,632.50294 174.37745,629.22911 C 173.71901,625.79126 172.65864,624.05208 171.9292,620.24352 C 171.38937,617.42492 169.97223,613.82297 169.34659,610.55639 C 169.03744,608.94223 167.04464,603.94521 166.33118,602.4067 C 165.05956,599.66453 165.17773,595.09292 165.28602,593.15239 C 165.52024,588.95502 164.96535,588.57188 168.28597,586.03241 C 170.60318,584.26029 172.14745,582.33211 174.62951,581.18111 C 178.03569,579.60156 181.64053,579.83456 184.15254,581.53901 C 186.47389,583.11409 186.98935,588.47997 188.13821,590.95741 C 189.52176,593.94094 189.41106,597.82016 190.72082,600.64454 C 192.14191,603.70902 192.50637,606.17011 193.16905,609.63012 C 193.66716,612.23085 195.73038,615.56524 197.02036,618.34698 C 198.43414,621.3957 198.37545,625.01901 199.60297,628.03412 C 200.97046,631.39306 200.72266,634.15479 202.0512,637.0197 C 203.4326,639.9986 205.09196,643.09916 206.46968,644.90068 C 208.17766,647.134 208.34015,650.58137 209.4851,653.05037 C 210.80166,655.88943 212.56985,661.0983 213.64503,663.41682"
       id="path2515"
       sodipodi:nodetypes="cssssssssssssssssssssssss" />
    <path
       style="opacity:1;fill:#9d616f;fill-opacity:1;fill-rule:evenodd;stroke:#000000;stroke-width:2;stroke-linecap:round;stroke-linejoin:round;marker:none;marker-start:none;marker-mid:none;marker-end:none;stroke-miterlimit:4;stroke-dasharray:none;stroke-dashoffset:0;stroke-opacity:1;visibility:visible;display:inline;overflow:visible;enable-background:accumulate"
       d="M 168.94801,609.15775 C 168.94604,609.14985 172.994,609.85358 173.24116,609.91537 C 174.33166,610.18799 175.71622,609.86481 176.52416,609.66283 C 177.67579,609.37492 178.63894,608.85798 179.55462,608.40014 C 180.66167,607.84661 181.70982,607.95388 182.83761,607.38999 C 183.86585,606.87587 184.83249,606.39255 185.86807,605.87476 C 187.21764,605.19997 187.72536,604.94611 188.89853,604.35953 C 189.4083,604.10464 190.14947,602.8678 190.41375,602.33922 C 190.88428,601.39816 190.06267,599.67219 189.90868,599.05623 C 189.60301,597.83356 189.15106,597.44663 189.15106,596.02577 C 189.15106,595.20306 188.29923,593.37605 188.14091,592.74277 C 187.86291,591.63078 187.58974,590.5381 187.3833,589.71232 C 187.06633,588.44447 187.15198,587.7769 186.87822,586.68186 C 186.62651,585.67501 185.60518,584.87268 185.36299,583.90394 C 185.23566,583.3946 183.86392,582.6574 183.34269,582.13617 C 182.73234,581.52583 181.273,581.37856 180.31223,581.37856 C 179.03104,581.37856 178.10201,581.29977 176.7767,581.6311 C 175.72812,581.89324 174.76011,582.26058 173.99878,582.64125 C 173.11567,583.0828 172.15731,583.81452 171.47339,584.15648 C 170.25627,584.76504 169.76539,585.86448 169.20055,586.42932 C 168.6113,587.01858 168.02204,587.60783 167.43278,588.19709 C 166.6238,589.00607 166.22693,589.3461 165.66502,590.46993 C 165.24591,591.30815 165.41248,592.62969 165.41248,593.75293 C 165.41248,594.88324 165.15994,596.04045 165.15994,597.28846 C 165.15994,598.35848 165.89,598.946 166.17009,600.06638 C 166.47546,601.28784 166.92966,602.09449 167.18025,603.09684 C 167.51109,604.42021 168.1363,604.90076 168.44294,606.1273 C 168.70542,607.17721 168.94801,607.90828 168.94801,609.15775 z"
       id="path2609" />
    <path
       style="opacity:1;fill:#aba7b7;fill-opacity:1;fill-rule:evenodd;stroke:#000000;stroke-width:2;stroke-linecap:round;stroke-linejoin:round;marker:none;marker-start:none;marker-mid:none;marker-end:none;stroke-miterlimit:4;stroke-dasharray:none;stroke-dashoffset:0;stroke-opacity:1;visibility:visible;display:inline;overflow:visible;enable-background:accumulate"
       d="M 157.85714,563.79075 C 157.56269,564.96856 157.38095,566.17171 157.14286,567.36218 C 156.53206,570.41618 157.14286,574.23838 157.14286,577.36218 C 157.14286,579.99079 159.52983,582.6063 161.42857,584.50504 C 163.09091,586.16738 164.87219,588.66294 166.42857,590.21932 C 168.06102,591.85177 171.75791,591.6479 175,591.6479 C 175.24726,591.6479 181.52701,587.67011 182.14286,587.36218 C 185.10698,585.88012 184.94978,583.27735 185.71429,580.21932 C 186.42896,577.36063 185.43977,572.69269 185,570.93361 C 184.1403,567.49481 185.03746,564.65488 184.28571,561.6479 C 183.70716,559.33366 179.04448,558.79075 176.42857,558.79075 C 172.91803,558.79075 168.89742,558.88783 166.42857,559.50504 C 162.64664,560.45052 161.42866,561.64784 157.85714,563.79075 z"
       id="path2519" />
    <path
       style="opacity:1;fill:#aba7b7;fill-opacity:1;fill-rule:evenodd;stroke:#000000;stroke-width:2;stroke-linecap:round;stroke-linejoin:round;marker:none;marker-start:none;marker-mid:none;marker-end:none;stroke-miterlimit:4;stroke-dasharray:none;stroke-dashoffset:0;stroke-opacity:1;visibility:visible;display:inline;overflow:visible;enable-background:accumulate"
       d="M 161.70271,560.61191 C 161.11567,559.92099 160.52861,559.23008 159.94155,558.53917 C 158.48254,556.822 157.70008,555.66926 156.41926,554.39366 C 154.78516,552.76624 152.38239,554.60596 151.47025,555.52181 C 149.92982,557.06858 149.68343,558.13497 150.68309,561.1136 C 151.52725,563.62893 152.34131,565.63414 153.72985,567.017 C 155.20744,568.48858 156.17247,569.44967 157.73098,571.0018 C 159.31158,572.57597 161.05075,573.451 162.52906,574.18638 C 164.65217,575.24251 165.55723,575.62712 167.63876,573.53706 C 168.63654,572.53519 167.01563,569.15064 166.34991,568.10922 C 165.15093,566.23361 163.85821,564.35256 162.5062,563.00606 C 161.90975,562.41204 161.97053,561.40996 161.70271,560.61191 z"
       id="path2533" />
    <path
       style="opacity:1;fill:#aba7b7;fill-opacity:1;fill-rule:evenodd;stroke:#000000;stroke-width:2;stroke-linecap:round;stroke-linejoin:round;marker:none;marker-start:none;marker-mid:none;marker-end:none;stroke-miterlimit:4;stroke-dasharray:none;stroke-dashoffset:0;stroke-opacity:1;visibility:visible;display:inline;overflow:visible;enable-background:accumulate"
       d="M 167.33392,551.84618 C 166.83783,548.46449 160.01371,549.85718 158.89842,550.02079 C 157.52261,550.22262 158.66514,555.38996 158.85202,556.66387 C 159.13074,558.56383 160.84659,561.10061 161.73066,562.36736 C 162.944,564.10593 163.67662,567.1291 164.68262,568.57057 C 166.41119,571.04742 166.18314,571.1822 169.19361,571.48217 C 171.73782,571.73569 171.04147,568.99843 171.17907,567.61753"
       id="path2527" />
    <path
       style="opacity:1;fill:#9d616f;fill-opacity:1;fill-rule:evenodd;stroke:#000000;stroke-width:2;stroke-linecap:round;stroke-linejoin:round;marker:none;marker-start:none;marker-mid:none;marker-end:none;stroke-miterlimit:4;stroke-dasharray:none;stroke-dashoffset:0;stroke-opacity:1;visibility:visible;display:inline;overflow:visible;enable-background:accumulate"
       d="M 166.17009,601.32907 C 166.59099,601.41325 167.01189,601.49743 167.43278,601.58161 C 168.43116,601.78128 169.43559,601.83415 170.71578,601.83415 C 171.91034,601.83415 172.82813,601.62173 173.99878,601.32907 C 175.17451,601.03514 176.34658,600.80525 177.28177,600.57146 C 178.70436,600.21581 179.20261,599.58617 180.31223,599.30877 C 181.29666,599.06266 182.37112,598.09956 183.59523,597.79354 C 184.58656,597.5457 185.89697,596.31977 186.62568,595.77323 C 187.49811,595.11891 187.77025,594.88121 188.39345,594.258"
       id="path2553" />
    <path
       style="opacity:1;fill:#9d616f;fill-opacity:1;fill-rule:evenodd;stroke:#000000;stroke-width:2;stroke-linecap:round;stroke-linejoin:round;marker:none;marker-start:none;marker-mid:none;marker-end:none;stroke-miterlimit:4;stroke-dasharray:none;stroke-dashoffset:0;stroke-opacity:1;visibility:visible;display:inline;overflow:visible;enable-background:accumulate"
       d="M 224.00133,660.67553 C 224.42222,661.09643 224.84312,661.51733 225.26402,661.93822 C 226.14777,662.82197 226.24734,664.15741 226.77925,665.22122 C 227.25817,666.17906 227.27554,667.71148 227.53686,668.75675 C 227.82773,669.92023 227.79289,671.04357 228.04194,672.03975 C 228.34254,673.24215 228.29448,674.53103 228.29448,675.82782 C 228.29448,677.05513 228.29448,678.24208 228.29448,678.85828 C 228.29448,680.03679 228.29448,681.2153 228.29448,682.39381 C 228.29448,683.77475 228.04194,684.46583 228.04194,685.92935 C 228.04194,686.86736 227.7894,688.69077 227.7894,688.9598"
       id="path2571" />
    <path
       style="opacity:1;fill:#9d616f;fill-opacity:1;fill-rule:evenodd;stroke:#000000;stroke-width:2;stroke-linecap:round;stroke-linejoin:round;marker:none;marker-start:none;marker-mid:none;marker-end:none;stroke-miterlimit:4;stroke-dasharray:none;stroke-dashoffset:0;stroke-opacity:1;visibility:visible;display:inline;overflow:visible;enable-background:accumulate"
       d="M 244.45692,654.61462 C 244.45692,655.93234 246.40932,658.26689 246.9823,659.41284 C 247.62661,660.70147 247.99245,662.67862 247.99245,664.21107 C 247.99245,665.75583 248.24499,667.13599 248.24499,668.75675 C 248.24499,670.3082 248.20206,671.82509 248.49753,673.30244 C 248.7284,674.45681 248.49753,675.9089 248.49753,677.09051 C 248.49753,678.56008 248.24499,679.24288 248.24499,680.62605 C 248.24499,680.63753 248.02698,681.49807 247.99245,681.6362"
       id="path2575" />
    <path
       style="opacity:1;fill:#aba7b7;fill-opacity:1;fill-rule:evenodd;stroke:#000000;stroke-width:2;stroke-linecap:round;stroke-linejoin:round;marker:none;marker-start:none;marker-mid:none;marker-end:none;stroke-miterlimit:4;stroke-dasharray:none;stroke-dashoffset:0;stroke-opacity:1;visibility:visible;display:inline;overflow:visible;enable-background:accumulate"
       d="M 286.78571,804.86218 C 286.266,802.78331 287.30543,809.21188 286.78571,811.29075 C 286.42115,812.74902 286.78571,814.78041 286.78571,816.29075 C 286.78571,818.37818 286.71139,819.43072 287.85714,820.57647 C 288.8316,821.55093 289.99532,823.42893 291.07143,824.50504 C 292.30855,825.74216 292.99322,826.53736 294.64286,827.36218 C 295.7046,827.89305 296.60923,829.32855 297.5,830.21933 C 298.13642,830.85575 299.95319,831.62449 300.71429,832.00504 C 301.97475,832.63527 303.91631,832.27596 305,832.00504 C 306.64585,831.59358 308.28642,831.98701 309.64286,831.6479 C 311.3731,831.21534 312.32039,830.75608 313.57143,829.50504 C 314.6336,828.44287 315.69427,828.11649 316.42857,826.6479 C 317.11884,825.26736 316.78571,822.92676 316.78571,821.29075 C 316.78571,820.10028 316.78571,818.9098 316.78571,817.71933"
       id="path2617" />
    <path
       style="opacity:1;fill:#d7d2e3;fill-opacity:1;fill-rule:evenodd;stroke:#000000;stroke-width:2;stroke-linecap:round;stroke-linejoin:round;marker:none;marker-start:none;marker-mid:none;marker-end:none;stroke-miterlimit:4;stroke-dasharray:none;stroke-dashoffset:0;stroke-opacity:1;visibility:visible;display:inline;overflow:visible;enable-background:accumulate"
       d="M 282.5,777.71933 C 282.5,778.31456 282.5,778.9098 282.5,779.50504 C 282.5,781.1263 282.41547,782.73834 282.85714,784.50504 C 283.26677,786.14356 283.21429,787.49808 283.21429,789.1479 C 283.21429,791.05612 283.92857,792.35246 283.92857,794.1479 C 283.92857,795.77186 284.62139,797.63345 285,799.1479 C 285.40963,800.78642 285.35714,802.14094 285.35714,803.79075 C 285.35714,805.21596 286.38557,807.27617 286.78571,808.07647 C 287.4404,809.38584 287.90315,810.26533 288.92857,811.29075 C 290.05254,812.41472 290.96692,812.97196 292.14286,814.1479 C 293.04486,815.04989 294.83786,816.03111 296.07143,816.6479 C 297.66536,817.44486 299.01267,818.36535 300.71429,818.79075 C 302.37965,819.2071 304.16629,820.51675 305.71429,821.29075 C 307.6702,822.26871 309.54505,822.84899 311.42857,823.79075 C 312.96708,824.56001 316.10166,824.50504 317.85714,824.50504 C 319.96438,824.50504 321.81194,824.86218 323.92857,824.86218 C 325.71429,824.86218 327.5,824.86218 329.28571,824.86218 C 331.07143,824.86218 332.85714,824.86218 334.64286,824.86218 C 336.44925,824.86218 338.66123,824.21473 340.35714,823.79075 C 342.29129,823.30722 344.39592,822.48565 346.07143,821.6479 C 347.95965,820.70379 349.4902,819.58137 351.07143,818.79075 C 352.66441,817.99426 354.247,817.4009 355.35714,816.29075 C 356.16138,815.48652 357.36066,813.93009 358.21429,813.07647 C 359.37161,811.91915 359.56599,811.01048 360.71429,809.86218 C 361.68773,808.88874 362.14286,807.66374 362.14286,805.93361 C 362.14286,804.10591 362.5,802.73617 362.5,800.93361 C 362.5,799.15953 362.85714,797.48845 362.85714,795.57647 C 362.85714,793.67078 363.21429,792.17123 363.21429,790.21933 C 363.21429,788.43361 363.21429,786.6479 363.21429,784.86218 C 363.21429,782.92083 362.85714,781.44514 362.85714,779.50504 C 362.85714,777.88217 362.5,776.46946 362.5,774.50504 C 362.5,773.6384 362.27929,773.62219 362.14286,773.07647"
       id="path2611" />
    <path
       style="opacity:1;fill:#aba7b7;fill-opacity:1;fill-rule:evenodd;stroke:#000000;stroke-width:2;stroke-linecap:round;stroke-linejoin:round;marker:none;marker-start:none;marker-mid:none;marker-end:none;stroke-miterlimit:4;stroke-dasharray:none;stroke-dashoffset:0;stroke-opacity:1;visibility:visible;display:inline;overflow:visible;enable-background:accumulate"
       d="M 386.61756,812.72757 C 385.6347,810.772 387.10577,817.08639 387.11031,819.27505 C 387.114,821.05369 387.42848,822.27535 387.75846,823.74585 C 388.08237,825.18933 387.76418,826.50415 387.76675,827.73882 C 387.77112,829.8463 389.89283,830.0387 390.64698,830.28835 C 392.49547,830.90026 393.14017,828.38196 393.3569,827.72722 C 393.69019,826.72041 393.03005,824.15128 393.02785,823.09604 C 393.02461,821.53386 392.34895,820.07065 392.0606,818.78562 C 391.70275,817.19099 391.37402,815.72597 391.09334,814.4752 C 390.93479,813.76863 390.60871,813.10675 390.45016,812.40018"
       id="path2647" />
    <path
       style="opacity:1;fill:#aba7b7;fill-opacity:1;fill-rule:evenodd;stroke:#000000;stroke-width:2;stroke-linecap:round;stroke-linejoin:round;marker:none;marker-start:none;marker-mid:none;marker-end:none;stroke-miterlimit:4;stroke-dasharray:none;stroke-dashoffset:0;stroke-opacity:1;visibility:visible;display:inline;overflow:visible;enable-background:accumulate"
       d="M 391.66175,815.88122 C 390.28847,814.19791 393.00682,820.02349 393.4264,822.15502 C 393.74343,823.76562 394.16965,825.48238 394.43151,826.81268 C 394.75954,828.47907 394.72979,829.3707 395.93117,830.84329 C 396.73211,831.82504 399.01394,830.45229 399.79047,829.81876 C 400.90447,828.90995 400.10772,826.0486 399.90694,825.02861 C 399.58559,823.39607 399.08185,821.734 398.74992,820.04772 C 398.41206,818.3313 397.58389,816.72695 396.79455,815.04742 C 396.35782,814.11816 395.40304,813.20477 394.78092,812.44219"
       id="path2645" />
    <path
       style="opacity:1;fill:#aba7b7;fill-opacity:1;fill-rule:evenodd;stroke:#000000;stroke-width:2;stroke-linecap:round;stroke-linejoin:round;marker:none;marker-start:none;marker-mid:none;marker-end:none;stroke-miterlimit:4;stroke-dasharray:none;stroke-dashoffset:0;stroke-opacity:1;visibility:visible;display:inline;overflow:visible;enable-background:accumulate"
       d="M 282.85714,789.50504 C 285.07344,790.05911 287.20119,792.03421 288.57143,792.71933 C 289.79123,793.32922 291.14419,794.16609 292.5,794.50504 C 294.08078,794.90023 295.83489,794.86218 297.5,794.86218 C 299.34475,794.86218 301.02817,795.20851 302.5,795.57647 C 304.05621,795.96552 305.38095,796.29671 306.78571,796.6479 C 308.43112,797.05925 310.01976,797.00998 311.42857,797.36218 C 312.87287,797.72326 315.02342,797.71933 316.42857,797.71933 C 318.37829,797.71933 320.05367,797.43805 321.78571,797.00504 C 323.48283,796.58076 325.28708,796.6479 327.14286,796.6479 C 328.65253,796.6479 331.01644,796.21522 332.14286,795.93361 C 334.03945,795.45946 335.49158,794.91786 337.14286,794.50504 C 339.08447,794.01964 340.00513,793.52161 341.78571,793.07647 C 343.74982,792.58544 344.95967,792.10441 346.78571,791.6479 C 348.48287,791.22361 349.35012,791.0068 351.07143,790.57647 C 352.82936,790.13699 354.3183,789.58618 356.07143,789.1479 C 357.89128,788.69293 359.57908,788.28693 360.71429,787.71933 C 362.40674,786.8731 362.78613,786.21768 363.21429,784.50504 C 363.59427,782.98511 363.47201,781.80619 362.85714,780.57647 C 362.22687,779.31592 361.21608,779.1479 359.28571,779.1479 C 357.61905,779.1479 355.95238,779.1479 354.28571,779.1479 C 352.6793,779.1479 351.53336,779.83598 350,780.21933 C 348.1884,780.67223 347.44402,781.21546 345.71429,781.6479 C 344.01756,782.07208 342.59538,782.69548 341.07143,783.07647 C 339.27068,783.52666 337.77467,784.1479 336.07143,784.1479 C 334.61007,784.1479 332.62294,784.83145 331.07143,785.21933 C 329.40551,785.6358 328.00633,785.57647 326.07143,785.57647 C 324.4689,785.57647 322.52801,785.93361 320.71429,785.93361 C 319.50874,785.93361 317.43648,786.29075 315.71429,786.29075 C 313.82332,786.29075 312.17853,786.29967 310.71429,785.93361 C 309.04863,785.5172 307.26802,785.21933 305.71429,785.21933 C 304.11396,785.21933 301.9042,784.44537 300.71429,784.1479 C 299.08401,783.74033 297.48371,783.24689 296.42857,782.71933 C 294.91517,781.96262 293.85826,781.71961 292.14286,781.29075 C 290.75622,780.94409 289.2915,780.93361 287.5,780.93361 C 285.84976,780.93361 284.03382,781.35373 282.85714,781.6479 C 281.44042,782.00208 281.36376,784.05 281.07143,785.21933 C 280.55572,787.28217 280.73241,787.38031 282.85714,789.50504 z"
       id="path2627" />
    <path
       style="opacity:1;fill:#d7d2e3;fill-opacity:1;fill-rule:evenodd;stroke:#000000;stroke-width:2;stroke-linecap:round;stroke-linejoin:round;marker:none;marker-start:none;marker-mid:none;marker-end:none;stroke-miterlimit:4;stroke-dasharray:none;stroke-dashoffset:0;stroke-opacity:1;visibility:visible;display:inline;overflow:visible;enable-background:accumulate"
       d="M 246.42857,649.50504 C 242.44113,648.50818 247.57457,657.66045 248.57143,661.6479 C 249.44362,665.13667 250,668.5691 250,672.36218 C 250,675.82921 251.35278,679.91615 252.14286,683.07647 C 253.04062,686.66753 253.53215,690.02295 254.28571,693.79075 C 255.11311,697.92774 256.11656,701.82842 257.14286,705.93361 C 258.23306,710.29442 259.06681,714.67206 260.71429,718.79075 C 262.23518,722.59298 262.77355,727.6585 263.57143,731.6479 C 264.38818,735.73165 266.19288,739.27656 267.14286,743.07647 C 268.02781,746.61627 268.4206,750.33031 269.28571,753.79075 C 270.20688,757.4754 270.59011,760.4369 271.42857,763.79075 C 272.2259,766.98005 273.65193,769.82703 274.28571,772.36218 C 275.2156,776.08172 275.3346,776.98249 277.85714,779.50504 C 280.3365,781.98439 283.23149,783.17005 285.71429,783.79075 C 288.92045,784.59229 291.33258,787.15961 295,788.07647 C 298.61954,788.98135 302.19615,789.33979 305.71429,790.21933 C 309.16564,791.08216 312.6427,791.6479 316.42857,791.6479 C 320.3372,791.6479 324.37672,791.80372 327.85714,790.93361 C 332.13671,789.86372 335.98337,789.08063 340,788.07647 C 344.15343,787.03811 348.60606,785.55915 352.14286,783.79075 C 354.65119,782.53659 358.85299,781.39894 360.71429,780.93361 C 364.2827,780.04151 366.42821,779.50522 369.28571,778.07647 C 371.38468,777.02699 370.71429,770.32184 370.71429,768.07647 C 370.71429,763.9199 370,761.98864 370,758.07647 C 370,754.50504 370,750.93361 370,747.36218 C 370,743.66424 370.71429,740.53203 370.71429,736.6479 C 370.71429,733.87548 371.42857,729.90522 371.42857,726.6479 C 371.42857,722.76519 372.14286,719.81382 372.14286,715.93361 C 372.14286,712.36218 372.14286,708.79075 372.14286,705.21933 C 372.14286,702.20886 372.83868,697.43605 373.57143,694.50504 C 374.35012,691.39028 373.57143,687.02037 373.57143,683.79075 C 373.57143,680.51375 374.28571,676.62237 374.28571,673.07647 C 374.28571,670.09099 373.57143,665.8475 373.57143,662.36218 C 373.57143,658.25686 372.71309,654.36695 373.57143,650.93361 C 374.42301,647.5273 374.31761,644.34555 375,640.93361 C 375.83804,636.74342 377.32156,635.04063 374.28571,638.07647 C 372.86221,639.49997 368.67398,640.88234 367.14286,641.6479 C 364.10925,643.1647 360.81092,644.48088 357.85714,645.21933 C 355.0057,645.93219 353.45501,648.13468 350.71429,649.50504 C 348.50881,650.60778 345.90817,652.31371 342.85714,653.07647 C 339.76356,653.84986 337.5778,655.28916 335,655.93361 C 331.68193,656.76313 328.70511,658.04305 325.71429,658.79075 C 322.85863,659.50467 318.64793,659.66449 316.42857,660.21933 C 313.15153,661.03859 310.44248,660.93361 307.14286,660.93361 C 304.74302,660.93361 300.54115,662.58404 298.57143,663.07647 C 295.6549,663.8056 291.59211,663.07647 288.57143,663.07647 C 285.3271,663.07647 281.69913,661.00125 278.57143,660.21933 C 275.71311,659.50474 273.78392,658.84388 270.71429,658.07647 C 268.45691,657.51212 266.00937,656.00738 262.85714,655.21933 C 259.46779,654.37199 257.06887,653.03947 254.28571,651.6479 C 254.07276,651.54142 253.80952,651.6479 253.57143,651.6479 C 251.54727,651.6479 248.86219,649.99176 246.42857,649.50504 z"
       id="path2483" />
    <path
       style="opacity:1;fill:#d7d2e3;fill-opacity:1;fill-rule:evenodd;stroke:#000000;stroke-width:2;stroke-linecap:round;stroke-linejoin:round;marker:none;marker-start:none;marker-mid:none;marker-end:none;stroke-miterlimit:4;stroke-dasharray:none;stroke-dashoffset:0;stroke-opacity:1;visibility:visible;display:inline;overflow:visible;enable-background:accumulate"
       d="M 412.73885,725.64299 C 414.52336,728.98346 413.7783,730.53528 414.14785,733.23959 C 414.47249,735.61521 413.77181,737.76763 413.58702,739.99266 C 413.4132,742.08581 413.70072,744.08205 413.49508,746.55801 C 413.29887,748.92083 413.16455,750.53812 412.93427,753.31107 C 412.78204,755.14406 412.72623,758.12211 413.03005,760.34532 C 413.3133,762.41819 412.70719,764.23276 412.56267,765.97287 C 412.38177,768.15121 411.96215,770.47488 411.81415,772.25702 C 411.63102,774.46189 411.06337,775.83872 410.87789,778.07229 C 410.68971,780.33801 410.03753,782.75635 409.47273,784.07528 C 408.8627,785.49978 408.12581,787.5279 407.69214,789.14045 C 407.31057,790.55931 405.76334,792.73726 404.97375,794.58107 C 404.11467,796.58719 403.91731,797.9553 403.19318,799.64624 C 402.16122,802.05602 400.9882,802.59992 398.97386,804.05558 C 396.99881,805.48286 395.30784,806.24433 392.69047,806.02696 C 390.86737,805.87555 388.85712,803.65039 387.99995,802.46425 C 386.6503,800.59661 386.09648,798.99368 384.80959,797.21289 C 383.87104,795.91415 385.15295,792.78211 385.74585,791.39764 C 386.6032,789.39557 386.27072,787.5011 386.96329,784.92575 C 387.47925,783.00718 388.23019,780.99275 388.83735,778.73506 C 389.50471,776.25348 389.84964,774.73337 390.05478,772.26319 C 390.22656,770.19477 391.27969,768.43066 391.45995,766.26021 C 391.68475,763.55329 391.79597,762.21407 392.02077,759.50714 C 392.19668,757.38907 392.7875,755.73341 392.95702,753.69189 C 393.12532,751.6655 392.9301,749.87572 392.58006,747.31424 C 392.36688,745.75416 392.9327,743.06808 393.04743,741.6867 C 393.24806,739.27092 392.97574,737.0914 393.13935,735.12135 C 393.2524,733.76016 395.89519,730.99898 396.98324,729.77422 C 398.35414,728.23109 401.69457,727.39948 403.54782,727.14623 C 405.91197,726.82317 408.20437,725.89172 410.01893,725.64375 C 410.91722,725.521 411.83222,725.64324 412.73885,725.64299 z"
       id="path2551" />
    <path
       style="opacity:1;fill:none;fill-opacity:0.55294118;fill-rule:evenodd;stroke:#000000;stroke-width:2;stroke-linecap:round;stroke-linejoin:round;marker:none;marker-start:none;marker-mid:none;marker-end:none;stroke-miterlimit:4;stroke-dasharray:none;stroke-dashoffset:0;stroke-opacity:1;visibility:visible;display:inline;overflow:visible;enable-background:accumulate"
       d="M 185.35714,611.29075 C 185.47619,611.88599 185.59524,612.48123 185.71429,613.07647 C 186.0467,614.73851 187.1459,615.94577 187.5,617.36218 C 187.78861,618.5166 188.84252,620.40437 189.28571,621.29075 C 189.86633,622.45198 190.11813,624.02701 190.71429,625.21932 C 191.26652,626.3238 191.8415,628.2996 192.14286,629.50504 C 192.53364,631.06816 193.12956,632.3804 193.57143,634.1479 C 193.99786,635.85364 194.61594,637.2545 195,638.79075 C 195.34053,640.15287 196.01529,641.78049 196.42857,643.43361 C 196.91798,645.39125 197.71779,646.44764 198.21429,648.43361 C 198.69793,650.36819 199.52963,651.90925 200,653.79075 C 200.36778,655.26186 201.26379,657.03262 201.78571,658.07647 C 201.83895,658.18295 201.78571,658.31456 201.78571,658.43361 C 201.78571,659.77834 203.46943,661.44391 203.92857,662.36218 C 204.50683,663.51871 204.9428,664.39064 205.35714,665.21932"
       id="path2629" />
    <path
       style="opacity:1;fill:none;fill-opacity:0.55294118;fill-rule:evenodd;stroke:#000000;stroke-width:2;stroke-linecap:round;stroke-linejoin:round;marker:none;marker-start:none;marker-mid:none;marker-end:none;stroke-miterlimit:4;stroke-dasharray:none;stroke-dashoffset:0;stroke-opacity:1;visibility:visible;display:inline;overflow:visible;enable-background:accumulate"
       d="M 181.42857,613.43361 C 182.37868,615.33383 182.82569,616.94214 183.57143,618.43361 C 184.32596,619.94268 184.58832,621.07259 185,622.71932 C 185.38782,624.2706 185.99675,625.63491 186.42857,627.36218 C 186.73637,628.59338 187.12712,630.18784 187.85714,631.6479 C 188.56173,633.05707 189.06722,635.13948 189.64286,636.29075 C 190.25011,637.50526 190.69682,639.7923 191.07143,641.29075 C 191.59702,643.39312 192.40441,644.12268 192.85714,645.93361 C 193.19168,647.27175 193.58278,648.47902 193.92857,649.86218 C 194.2123,650.99711 194.98167,653.00315 195.35714,654.50504 C 195.75955,656.11469 196.48952,657.60597 196.78571,658.79075 C 197.12642,660.15357 197.84713,661.62786 198.57143,663.07647 C 199.15154,664.23668 199.66049,665.23696 200.71429,666.29075 C 201.3276,666.90407 201.79338,667.96763 202.14286,668.43361"
       id="path2631" />
    <path
       style="opacity:1;fill:#9d616f;fill-opacity:1;fill-rule:evenodd;stroke:#000000;stroke-width:2;stroke-linecap:round;stroke-linejoin:round;marker:none;marker-start:none;marker-mid:none;marker-end:none;stroke-miterlimit:4;stroke-dasharray:none;stroke-dashoffset:0;stroke-opacity:1;visibility:visible;display:inline;overflow:visible;enable-background:accumulate"
       d="M 214.90995,663.95853 C 214.90995,663.4086 214.49384,660.63105 213.8998,660.92807 C 213.02139,661.36728 212.42142,661.86454 211.8795,662.94838 C 211.4206,663.86617 210.57278,664.55165 210.11173,665.47376 C 209.7055,666.28621 208.97962,667.36349 208.34396,667.99914 C 207.73933,668.60377 207.04773,669.54791 206.07112,670.52452 C 205.03542,671.56022 204.92916,671.91901 203.79828,673.0499 C 202.88302,673.96515 202.59382,674.77399 201.52543,675.57528 C 200.31937,676.47983 198.86649,677.47661 197.73736,678.60574 C 196.89675,679.44635 195.8305,680.60336 194.45437,680.87858 C 194.03347,680.96276 193.60809,681.02702 193.19167,681.13112 C 193.02331,681.46784 192.85496,681.80456 192.6866,682.14127 C 192.33985,682.83478 194.15173,684.61656 194.45437,684.91919 C 195.04362,685.50845 195.38034,686.35024 195.96959,686.9395 C 196.55885,687.52875 197.40064,687.86547 197.9899,688.45473 C 198.56095,689.02578 200.48643,688.58821 201.02036,688.45473 C 202.4114,688.10697 202.80821,687.67702 203.54574,686.9395 C 204.18711,686.29813 204.9349,685.67641 205.56604,684.41412 C 206.04829,683.44962 206.64471,683.0144 207.08127,682.14127 C 207.53387,681.23608 208.33334,680.66854 208.5965,679.61589 C 208.80436,678.78445 209.6029,677.60309 210.11173,676.58544 C 210.64966,675.50957 211.00265,674.55106 211.37442,673.80752 C 211.82075,672.91485 212.37436,671.82806 212.63711,670.77706 C 212.95862,669.49101 213.34054,668.9735 213.64726,667.7466 C 213.98897,666.37979 214.56223,665.69717 214.90995,663.95853 C 215.35823,661.71712 215.30437,661.82756 214.15234,660.67553 C 214.06816,660.59135 213.98398,660.50717 213.8998,660.42299"
       id="path2569" />
    <path
       style="opacity:1;fill:#aba7b7;fill-opacity:1;fill-rule:evenodd;stroke:#000000;stroke-width:2;stroke-linecap:round;stroke-linejoin:round;marker:none;marker-start:none;marker-mid:none;marker-end:none;stroke-miterlimit:4;stroke-dasharray:none;stroke-dashoffset:0;stroke-opacity:1;visibility:visible;display:inline;overflow:visible;enable-background:accumulate"
       d="M 394.69412,814.38828 C 395.06779,814.86666 395.44146,815.34505 395.81513,815.82343 C 396.77373,817.05066 397.35907,818.89536 398.06047,820.29092 C 398.80892,821.78008 399.55736,823.26924 400.30582,824.7584 C 400.85635,825.85378 401.40269,827.62608 402.23039,828.58768 C 403.49805,830.06042 405.1213,827.08701 405.26107,826.66476 C 405.64778,825.49658 405.51712,823.84974 405.25278,822.67178 C 404.89479,821.07645 404.11508,819.61282 403.32655,818.04392 C 402.88885,817.17303 401.96012,815.32516 401.24161,813.89554 C 400.80994,813.03669 399.19446,811.65 398.52008,810.86652 C 397.7432,809.96395 397.07824,809.98913 396.12099,809.2743"
       id="path2651" />
    <path
       style="opacity:1;fill:#aba7b7;fill-opacity:1;fill-rule:evenodd;stroke:#000000;stroke-width:2;stroke-linecap:round;stroke-linejoin:round;marker:none;marker-start:none;marker-mid:none;marker-end:none;stroke-miterlimit:4;stroke-dasharray:none;stroke-dashoffset:0;stroke-opacity:1;visibility:visible;display:inline;overflow:visible;enable-background:accumulate"
       d="M 398.37739,806.14147 C 396.97732,804.51488 402.25458,808.04012 403.97418,809.32425 C 405.47729,810.44672 406.49514,811.3236 407.65466,812.67072 C 408.73457,813.92534 409.45351,814.65922 410.37784,816.49834 C 410.97365,817.68381 410.90545,819.24522 411.18472,820.48965 C 411.44017,821.62809 408.40926,822.68402 407.3571,823.21282 C 406.90964,823.43771 405.30491,819.92494 404.95303,819.22483 C 404.08602,817.49976 403.19713,816.38818 402.06948,815.0781 C 401.01864,813.85725 399.72929,813.13118 398.70975,812.36984 C 398.31166,812.07256 397.60453,811.5445 397.43001,811.41418"
       id="path2637" />
    <path
       style="opacity:1;fill:#aba7b7;fill-opacity:1;fill-rule:evenodd;stroke:#000000;stroke-width:2;stroke-linecap:round;stroke-linejoin:round;marker:none;marker-start:none;marker-mid:none;marker-end:none;stroke-miterlimit:4;stroke-dasharray:none;stroke-dashoffset:0;stroke-opacity:1;visibility:visible;display:inline;overflow:visible;enable-background:accumulate"
       d="M 384.05659,806.52052 C 383.58529,807.11965 383.114,807.71878 382.64273,808.31793 C 381.47395,809.80376 380.29129,811.14603 379.5485,812.34173 C 379.48568,812.44286 379.31666,812.3959 379.20072,812.42299 C 378.76083,812.52577 377.19701,815.64851 377.06857,815.85526 C 376.4803,816.80223 376.08071,818.11633 376.061,819.39153 C 376.04252,820.58781 376.25358,821.78551 376.5258,822.95054 C 376.83176,824.26 379.71827,823.45305 380.24734,823.18131 C 381.34445,822.61778 381.96798,821.36864 382.54199,820.4446 C 383.26437,819.28176 383.70867,818.56654 384.67415,817.01233 C 385.45512,815.75516 386.03745,814.73843 386.37728,813.31354 C 386.43446,813.07379 387.06216,812.58317 387.25809,812.37422"
       id="path2653" />
    <path
       style="opacity:1;fill:#aba7b7;fill-opacity:1;fill-rule:evenodd;stroke:#000000;stroke-width:2;stroke-linecap:round;stroke-linejoin:round;marker:none;marker-start:none;marker-mid:none;marker-end:none;stroke-miterlimit:4;stroke-dasharray:none;stroke-dashoffset:0;stroke-opacity:1;visibility:visible;display:inline;overflow:visible;enable-background:accumulate"
       d="M 398.1811,801.44377 C 398.66113,801.86869 399.14117,802.29361 399.62121,802.71853 C 400.9277,803.87501 401.54047,804.94166 401.8649,806.38743 C 402.12099,807.52864 401.93527,809.38926 401.55408,810.54078 C 401.15638,811.74216 400.29431,812.76163 399.3253,814.05924 C 398.33122,815.39042 396.94842,815.3028 395.33565,815.66471 C 393.8124,816.00653 392.17068,815.51155 390.8632,815.51426 C 389.81148,815.51644 388.18406,814.8934 387.18766,814.56357 C 386.06887,814.19322 384.95006,813.82285 383.83125,813.4525 C 383.54383,813.35734 383.5045,809.92574 383.50386,809.61992 C 383.50077,808.12736 383.69762,806.9229 383.3352,805.30783 C 382.91672,803.44297 383.59792,801.87547 385.4036,801.47027 C 387.23537,801.05922 388.37734,801.13371 390.19515,801.46034 C 392.09015,801.80082 393.51965,801.69084 395.30582,801.29002 C 396.24233,801.07986 397.22398,801.37214 398.1811,801.44377 z"
       id="path2633" />
    <path
       style="opacity:1;fill:#ffffff;fill-opacity:1;fill-rule:evenodd;stroke:#000000;stroke-width:2;stroke-linecap:round;stroke-linejoin:round;marker:none;marker-start:none;marker-mid:none;marker-end:none;stroke-miterlimit:4;stroke-dasharray:none;stroke-dashoffset:0;stroke-opacity:1;visibility:visible;display:inline;overflow:visible;enable-background:accumulate"
       d="M 298.45697,677.41131 C 296.54653,677.39565 294.62106,677.62483 293.20065,677.58812 C 289.98775,677.50511 286.43543,678.43597 284.56756,680.20978 C 283.13808,681.56726 280.78787,684.78592 280.10291,687.25307 C 279.38127,689.85237 277.59862,693.40842 279.88177,695.81272 C 280.98989,696.9796 284.48203,700.69573 286.91239,699.55804 C 286.92757,699.55093 294.44183,691.72092 293.00576,691.18137 C 297.64726,692.24436 297.79075,692.6582 299.91223,694.89223 C 301.37779,696.43551 303.36566,699.27613 304.00723,702.15666 C 304.64775,705.03248 305.24109,706.96423 305.92894,710.05268 C 305.94088,710.10627 305.97443,710.1872 305.98658,710.24173 C 305.36163,712.40078 304.75324,714.77036 304.17673,716.16571 C 302.86098,719.35034 300.00312,723.27719 298.49811,725.42839 C 296.86447,727.76344 296.2838,730.80116 295.12985,733.59413 C 293.75922,736.9116 292.29862,738.61455 291.04549,741.64758 C 289.82765,744.59525 287.52677,746.51581 286.24424,749.61999 C 284.77943,753.16542 283.51228,753.69169 283.78539,756.46502 C 283.98379,758.47963 291.64584,759.07203 293.46434,759.34095 C 294.24981,759.45708 294.39695,753.01952 294.71477,750.87042 C 295.26307,747.16271 296.75135,745.48351 298.19532,741.9886 C 299.40162,739.06889 300.39768,736.72119 301.59482,733.82367 C 303.05431,730.29119 304.18844,729.30193 305.64794,725.76941 C 306.32212,724.13764 307.3575,722.66077 308.32742,721.27462 C 308.65545,723.37088 308.96365,725.60048 309.76568,727.31378 C 310.89417,729.72448 311.38499,732.98155 312.43714,735.22916 C 313.64197,737.80293 315.27232,739.80236 316.53214,742.49359 C 317.5201,744.6041 320.26462,747.32851 320.64571,749.03952 C 321.13696,751.24514 322.14852,754.82914 324.76008,755.5542 C 327.15328,756.21861 330.93112,755.65492 334.01967,756.51241 C 336.42755,757.18091 339.99055,757.82061 341.9106,755.99729 C 344.16719,753.85435 344.8399,752.72316 344.93742,748.94811 C 345.02129,745.70174 344.26483,743.07343 342.298,741.00229 C 340.16985,738.76126 338.90378,735.87592 335.91753,738.71174 C 334.62917,739.9352 331.0992,743.87436 328.02152,740.63345 C 326.84923,739.39899 323.52865,737.19557 323.15232,735.50599 C 322.56808,732.88286 321.11843,730.45316 320.48085,727.5906 C 319.94986,725.20652 318.5806,722.19653 317.85919,718.95752 C 317.23553,716.15739 315.96052,713.67514 315.2071,710.29238 C 314.53576,707.27819 313.2624,703.28541 313.34107,700.24083 C 313.42355,697.04841 313.57585,693.34612 312.88083,690.22561 C 312.40225,688.0769 311.34184,682.99895 309.54066,681.57396 C 307.2959,679.79798 305.17548,678.75742 301.76029,677.80926 C 300.73262,677.52394 299.60322,677.42071 298.45697,677.41131 z"
       id="path2495" />
    <path
       style="opacity:1;fill:#9d616f;fill-opacity:1;fill-rule:evenodd;stroke:#000000;stroke-width:2;stroke-linecap:round;stroke-linejoin:round;marker:none;marker-start:none;marker-mid:none;marker-end:none;stroke-miterlimit:4;stroke-dasharray:none;stroke-dashoffset:0;stroke-opacity:1;visibility:visible;display:inline;overflow:visible;enable-background:accumulate"
       d="M 352.14286,670.93361 C 350.71771,668.08332 354.59279,661.84816 355,660.21933 C 355.58501,657.87927 358.48843,656.01661 360.71429,653.79075 C 362.4545,652.05053 365.51475,650.80492 367.85714,650.21933 C 370.74898,649.49637 371.9436,648.33398 375.71429,650.21933 C 377.59809,651.16123 379.88913,656.42616 380.71429,658.07647 C 382.34378,661.33545 384.04658,662.75762 386.42857,665.93361 C 388.48628,668.67722 389.34342,671.7633 390.71429,674.50504 C 392.09985,677.27617 394.36539,678.9501 395.71429,681.6479 C 397.13238,684.48408 398.69967,687.49042 400.71429,689.50504 C 401.98544,690.77619 403.44016,696.38535 404.28571,698.07647 C 405.65692,700.81887 406.54857,703.31646 407.85714,705.93361 C 409.26548,708.75028 409.95316,711.46055 410.71429,714.50504 C 411.42887,717.36336 412.08973,719.29255 412.85714,722.36218 C 413.45333,724.74691 414.28571,728.00472 414.28571,731.6479 C 414.28571,734.64198 392.79597,737.75681 391.42857,735.93361 C 389.59894,733.4941 388.53728,731.61375 386.42857,729.50504 C 384.07385,727.15032 383.27941,724.63529 382.14286,722.36218 C 380.71651,719.50949 378.11583,716.90658 376.42857,715.21933 C 374.13107,712.92183 373.3627,710.72489 370.71429,708.07647 C 368.70588,706.06806 366.95333,703.60122 365,701.6479 C 363.20336,699.85126 361.05494,696.61492 360,694.50504 C 358.67214,691.84933 357.09213,689.45431 355,687.36218 C 353.22376,685.58594 351.52453,681.83982 350.71429,680.21933 C 349.22601,677.24277 350.14033,674.27115 352.14286,670.93361 z"
       id="path2509"
       sodipodi:nodetypes="csssssssssssssssssssssssc" />
    <path
       style="opacity:1;fill:#9d616f;fill-opacity:1;fill-rule:evenodd;stroke:#000000;stroke-width:2;stroke-linecap:round;stroke-linejoin:round;marker:none;marker-start:none;marker-mid:none;marker-end:none;stroke-miterlimit:4;stroke-dasharray:none;stroke-dashoffset:0;stroke-opacity:1;visibility:visible;display:inline;overflow:visible;enable-background:accumulate"
       d="M 356.07877,686.43442 C 356.07877,687.79438 356.98581,683.86274 357.594,682.64635 C 358.31477,681.20482 358.76988,680.20778 359.86684,679.11082 C 360.59258,678.38508 361.33907,677.17653 361.88715,676.08036 C 362.39717,675.06031 363.61147,673.85096 364.41253,673.0499 C 365.489,671.97343 366.69664,670.51325 367.69553,669.51437 C 368.85678,668.35311 369.29868,667.4501 370.72598,666.73645 C 371.72499,666.23695 372.83869,665.04875 374.00898,664.4636 C 375.3478,663.7942 375.97518,663.60677 377.29198,662.94838 C 378.47268,662.35803 379.79972,662.19517 380.82751,661.93822 C 381.34271,661.80942 382.06169,661.93822 382.59528,661.93822"
       id="path2577" />
    <path
       style="opacity:1;fill:#9d616f;fill-opacity:1;fill-rule:evenodd;stroke:#000000;stroke-width:2;stroke-linecap:round;stroke-linejoin:round;marker:none;marker-start:none;marker-mid:none;marker-end:none;stroke-miterlimit:4;stroke-dasharray:none;stroke-dashoffset:0;stroke-opacity:1;visibility:visible;display:inline;overflow:visible;enable-background:accumulate"
       d="M 360.37192,696.28341 C 360.90167,696.15097 361.35796,693.09688 361.63461,691.99026 C 362.03878,690.37357 363.30698,688.86626 364.15999,687.44458 C 364.99213,686.05769 366.00471,685.09478 367.19045,683.90904 C 368.19317,682.90632 369.29158,682.06045 370.22091,681.13112 C 371.12167,680.23036 372.37175,679.48536 373.25137,678.60574 C 374.26181,677.59529 375.47426,677.14046 376.28182,676.3329 C 377.21239,675.40233 378.66414,674.9881 379.56482,674.31259 C 380.35473,673.72016 382.25426,673.09414 382.84782,672.79736 C 383.94689,672.24783 385.31752,671.80113 386.38335,671.53467 C 386.6758,671.46156 387.0907,671.53467 387.3935,671.53467"
       id="path2579" />
    <path
       style="opacity:1;fill:#9d616f;fill-opacity:1;fill-rule:evenodd;stroke:#000000;stroke-width:2;stroke-linecap:round;stroke-linejoin:round;marker:none;marker-start:none;marker-mid:none;marker-end:none;stroke-miterlimit:4;stroke-dasharray:none;stroke-dashoffset:0;stroke-opacity:1;visibility:visible;display:inline;overflow:visible;enable-background:accumulate"
       d="M 366.93791,702.8494 C 367.23131,702.77605 368.98803,699.10576 369.21076,698.80879 C 369.88785,697.906 370.41054,697.16684 370.97852,696.03087 C 371.51462,694.95867 372.69912,693.85654 373.5039,693.25295 C 374.52048,692.49052 375.56044,691.44895 376.53436,690.47503 C 377.56072,689.44867 379.33495,688.56966 380.57497,687.94965 C 381.95649,687.25889 382.89631,686.53644 384.11051,685.92935 C 385.21021,685.37949 386.36257,684.80332 387.14096,684.41412 C 388.01979,683.9747 389.29703,683.11274 389.91888,682.64635 C 390.64825,682.09933 392.2514,681.88874 393.45442,681.88874 C 393.62278,681.88874 393.79113,681.88874 393.95949,681.88874"
       id="path2581" />
    <path
       style="opacity:1;fill:#9d616f;fill-opacity:1;fill-rule:evenodd;stroke:#000000;stroke-width:2;stroke-linecap:round;stroke-linejoin:round;marker:none;marker-start:none;marker-mid:none;marker-end:none;stroke-miterlimit:4;stroke-dasharray:none;stroke-dashoffset:0;stroke-opacity:1;visibility:visible;display:inline;overflow:visible;enable-background:accumulate"
       d="M 373.5039,709.41539 C 373.67423,709.41539 376.92013,705.08545 377.54451,704.61717 C 379.13048,703.4277 380.89349,702.69014 382.59528,701.83925 C 383.82156,701.22611 385.26331,700.18137 386.13081,699.31387 C 387.00457,698.44011 388.28684,697.94938 389.16127,697.29356 C 390.30797,696.43354 391.51457,696.36945 392.6968,695.77833 C 394.00777,695.12285 394.65808,694.84607 395.9798,694.51564 C 397.10106,694.23533 398.2814,693.4983 399.26279,693.25295 C 399.9919,693.07068 400.18884,693.14771 400.77802,693.00041"
       id="path2583" />
    <path
       style="opacity:1;fill:#9d616f;fill-opacity:1;fill-rule:evenodd;stroke:#000000;stroke-width:2;stroke-linecap:round;stroke-linejoin:round;marker:none;marker-start:none;marker-mid:none;marker-end:none;stroke-miterlimit:4;stroke-dasharray:none;stroke-dashoffset:0;stroke-opacity:1;visibility:visible;display:inline;overflow:visible;enable-background:accumulate"
       d="M 378.04959,715.47631 C 379.49441,715.1151 380.02696,713.2464 381.08005,712.19331 C 382.12039,711.15297 383.41414,711.07409 384.61558,710.17301 C 385.86023,709.23952 387.34943,708.69084 388.40365,707.90016 C 389.61223,706.99374 390.68039,706.57142 391.93919,705.62732 C 392.89141,704.91316 394.6258,704.41029 395.72726,703.85955 C 396.90191,703.27223 398.30784,702.89874 399.51533,702.59686 C 400.77596,702.28171 402.03463,702.15644 403.3034,701.83925 C 403.80594,701.71361 404.26157,701.69812 404.81863,701.58671"
       id="path2585" />
    <path
       style="opacity:1;fill:#9d616f;fill-opacity:1;fill-rule:evenodd;stroke:#000000;stroke-width:2;stroke-linecap:round;stroke-linejoin:round;marker:none;marker-start:none;marker-mid:none;marker-end:none;stroke-miterlimit:4;stroke-dasharray:none;stroke-dashoffset:0;stroke-opacity:1;visibility:visible;display:inline;overflow:visible;enable-background:accumulate"
       d="M 383.35289,722.29484 C 383.63971,722.22313 386.06758,720.05361 387.14096,719.51692 C 388.87087,718.65197 390.36334,717.72289 392.19173,716.99154 C 393.68538,716.39407 394.98379,715.46924 396.48487,714.71869 C 397.78226,714.07 399.03173,713.69244 400.02041,712.95093 C 400.99728,712.21827 402.38786,712.01974 403.55594,711.4357 C 404.54507,710.94114 406.17354,710.67808 407.34401,710.67808 C 407.67686,710.67808 408.36289,710.42555 408.85924,710.42555"
       id="path2587" />
    <path
       style="opacity:1;fill:#aba7b7;fill-opacity:1;fill-rule:evenodd;stroke:#000000;stroke-width:2;stroke-linecap:round;stroke-linejoin:round;marker:none;marker-start:none;marker-mid:none;marker-end:none;stroke-miterlimit:4;stroke-dasharray:none;stroke-dashoffset:0;stroke-opacity:1;visibility:visible;display:inline;overflow:visible;enable-background:accumulate"
       d="M 168.14323,556.1104 C 168.60638,558.61568 167.601,551.01966 167.7593,548.47685 C 167.90718,546.10147 169.11019,545.49256 171.86198,545.66387 C 173.99592,545.79671 174.93084,548.27144 175.85192,550.57624 C 176.67505,552.63584 177.18607,555.01456 177.63403,557.43766 C 178.0625,559.75542 178.49099,562.07316 178.91947,564.3909 C 179.5453,567.77625 179.53417,568.38634 176.67403,568.91509 C 174.4118,569.33331 172.91408,567.62892 171.65318,566.76148 C 169.89798,565.55399 169.35526,562.66661 168.96958,560.58034 C 168.64255,558.81135 168.10322,558.85294 168.14323,556.1104 z"
       id="path2525" />
    <path
       style="opacity:1;fill:#aba7b7;fill-opacity:1;fill-rule:evenodd;stroke:#000000;stroke-width:2;stroke-linecap:round;stroke-linejoin:round;marker:none;marker-start:none;marker-mid:none;marker-end:none;stroke-miterlimit:4;stroke-dasharray:none;stroke-dashoffset:0;stroke-opacity:1;visibility:visible;display:inline;overflow:visible;enable-background:accumulate"
       d="M 184.47625,582.15387 C 185.06316,581.7832 185.65007,581.41252 186.23698,581.04185 C 186.99303,580.56435 188.13482,579.05508 189.02798,578.12006 C 189.97842,577.12508 191.27852,576.44566 192.17604,575.1901 C 193.13553,573.84784 194.52639,573.0952 195.32408,572.26014 C 196.48711,571.04261 197.0108,570.68937 197.39281,568.99766 C 197.63961,567.90473 198.08041,565.9527 198.36587,564.68854 C 198.65616,563.40301 197.22502,562.214 195.80931,562.24642 C 194.20843,562.28306 192.83788,563.06196 191.54924,563.41565 C 190.25075,563.77204 189.29074,565.20854 188.75824,566.33743 C 188.17428,567.57541 187.10296,568.43588 186.32428,569.25105 C 185.51024,570.10324 184.6962,570.95542 183.88215,571.80761"
       id="path3450" />
    <path
       style="opacity:1;fill:#9d616f;fill-opacity:1;fill-rule:evenodd;stroke:#000000;stroke-width:2;stroke-linecap:round;stroke-linejoin:round;marker:none;marker-start:none;marker-mid:none;marker-end:none;stroke-miterlimit:4;stroke-dasharray:none;stroke-dashoffset:0;stroke-opacity:1;visibility:visible;display:inline;overflow:visible;enable-background:accumulate"
       d="M 385.42528,787.61589 C 386.04058,786.28072 387.41066,789.78854 388.48274,790.79449 C 389.2746,791.5375 390.28037,791.81952 391.48939,792.3767 C 392.47603,792.83139 393.2923,792.81431 394.23373,793.24816 C 395.13381,793.66295 396.39746,793.60094 397.36446,793.70783 C 398.35248,793.81703 399.4258,793.23666 400.38234,793.13238 C 401.53923,793.00626 402.63032,792.5719 403.78663,792.14514 C 405.55948,791.49082 405.49555,791.43118 405.64533,792.80508 C 405.75299,793.79262 404.89507,794.45283 404.77386,795.54942 C 404.71543,796.07809 403.97309,797.28704 403.72752,797.81992 C 403.40678,798.51592 402.7265,799.99208 402.38223,800.73913 C 401.99728,801.57443 401.55567,802.10607 401.09897,803.09707 C 400.61078,804.15642 399.82293,804.63458 398.93008,805.2435 C 397.85726,805.97516 397.37498,806.62501 396.11248,807.09097 C 395.00686,807.49902 393.90125,807.90708 392.79564,808.31513 C 391.31276,808.86242 390.76093,808.7538 389.83979,808.32929 C 389.76333,808.29407 389.68184,808.38759 389.60287,808.41673 C 389.4056,808.48954 387.8987,806.8177 387.54388,806.48476 C 386.88662,805.86805 386.10061,804.80336 385.54694,803.99152 C 384.90567,803.05124 384.28807,801.92825 383.61202,800.93699 C 382.91304,799.91208 383.03499,798.46976 382.94915,797.6822 C 382.85938,796.85885 383.53688,795.35886 383.73316,794.70094 C 384.00597,793.78653 384.55631,792.91474 384.92898,792.10608 C 385.24661,791.41684 385.41939,790.3877 385.32661,789.53663 C 385.27754,789.08651 385.37848,788.03934 385.42528,787.61589 z"
       id="path2601" />
    <path
       style="opacity:1;fill:#9d616f;fill-opacity:1;fill-rule:evenodd;stroke:#000000;stroke-width:2;stroke-linecap:round;stroke-linejoin:round;marker:none;marker-start:none;marker-mid:none;marker-end:none;stroke-miterlimit:4;stroke-dasharray:none;stroke-dashoffset:0;stroke-opacity:1;visibility:visible;display:inline;overflow:visible;enable-background:accumulate"
       d="M 384.65542,793.55299 C 384.73503,793.54431 387.23309,796.43625 387.38853,796.58211 C 388.31567,797.45206 388.84929,798.04177 389.68443,798.42664 C 391.05915,799.06017 391.59484,799.6818 392.69109,800.00885 C 393.46297,800.23914 394.71265,800.6868 395.67234,800.79287 C 395.75601,800.80213 395.83029,800.73458 395.90926,800.70543 C 396.66942,800.42488 398.1507,800.95398 399.18946,800.84074 C 400.39668,800.70914 401.4781,799.65059 402.09451,799.23019"
       id="path2597" />
    <path
       style="opacity:1;fill:none;fill-opacity:0.55294118;fill-rule:evenodd;stroke:#000000;stroke-width:2;stroke-linecap:round;stroke-linejoin:round;marker:none;marker-start:none;marker-mid:none;marker-end:none;stroke-miterlimit:4;stroke-dasharray:none;stroke-dashoffset:0;stroke-opacity:1;visibility:visible;display:inline;overflow:visible;enable-background:accumulate"
       d="M 386.88843,729.61844 C 387.68129,728.82558 394.44125,728.36158 395.47472,728.10322 C 397.8662,727.50534 399.44638,726.10015 401.53564,725.57783 C 403.49409,725.08822 405.22541,723.51897 407.09148,723.05245 C 408.54181,722.68987 410.89049,721.15295 412.14224,720.52707 C 412.29282,720.45178 412.47896,720.52707 412.64731,720.52707"
       id="path3456" />
  </g>
</svg>
