<?xml version="1.0" encoding="UTF-8" standalone="no"?>
<!-- Created with Inkscape (http://www.inkscape.org/) -->

<svg
   xmlns:dc="http://purl.org/dc/elements/1.1/"
   xmlns:cc="http://creativecommons.org/ns#"
   xmlns:rdf="http://www.w3.org/1999/02/22-rdf-syntax-ns#"
   xmlns:svg="http://www.w3.org/2000/svg"
   xmlns="http://www.w3.org/2000/svg"
   xmlns:sodipodi="http://sodipodi.sourceforge.net/DTD/sodipodi-0.dtd"
   xmlns:inkscape="http://www.inkscape.org/namespaces/inkscape"
   width="744.09448819"
   height="1052.3622047"
   id="svg2"
   version="1.1"
   inkscape:version="0.48.1 r9760"
   sodipodi:docname="New document 1">
  <defs
     id="defs4" />
  <sodipodi:namedview
     id="base"
     pagecolor="#ffffff"
     bordercolor="#666666"
     borderopacity="1.0"
     inkscape:pageopacity="0.0"
     inkscape:pageshadow="2"
     inkscape:zoom="1"
     inkscape:cx="295.06695"
     inkscape:cy="798.21536"
     inkscape:document-units="px"
     inkscape:current-layer="layer1"
     showgrid="false"
     inkscape:window-width="1364"
     inkscape:window-height="766"
     inkscape:window-x="0"
     inkscape:window-y="0"
     inkscape:window-maximized="0" />
  <metadata
     id="metadata7">
    <rdf:RDF>
      <cc:Work
         rdf:about="">
        <dc:format>image/svg+xml</dc:format>
        <dc:type
           rdf:resource="http://purl.org/dc/dcmitype/StillImage" />
        <dc:title></dc:title>
      </cc:Work>
    </rdf:RDF>
  </metadata>
  <g
     inkscape:label="Layer 1"
     inkscape:groupmode="layer"
     id="layer1">
    <path
       style="fill:#c8b7b7;stroke:#000000;stroke-width:1px;stroke-linecap:butt;stroke-linejoin:miter;stroke-opacity:1"
       d="m 495,158.36218 c 1.36848,-9.52729 3.19893,-42.60214 -5,-58.999997 -3.62045,-7.240893 -16.91062,-1.089379 -20,1.999997 -2.07426,2.07426 -1.127,7.12701 -3,9 -1.68712,1.68712 -3,20.15787 -3,15 0,-6.62453 -1.22703,-28.772966 4,-33.999997 2.02316,-2.023163 5.14827,-4.148273 7,-6 1.48156,-1.481557 13.20148,-7.798524 17,-4 4.15527,4.155271 8.80421,14.804214 13,18.999997 1.83333,1.83334 -0.83333,8.16667 1,10 3.24756,3.24756 -1.94355,48.05645 2,52 0.24764,0.24764 3.10325,-1 4,-1"
       id="path4866"
       inkscape:connector-curvature="0" />
    <path
       style="fill:#a05a2c;stroke:#000000;stroke-width:1px;stroke-linecap:butt;stroke-linejoin:miter;stroke-opacity:1"
       d="m 240.41631,412.43055 c -0.95751,9.20607 2.39905,65.33155 5.65685,68.58935 4.44693,4.44694 17.69471,6.34692 21.2132,2.82843 0.35326,-0.35326 1.76567,-6.71962 0.70711,-7.77817 -2.0633,-2.0633 -2.82843,-53.04412 -2.82843,-60.10408"
       id="path4673"
       inkscape:connector-curvature="0" />
    <path
       style="fill:#ffffff;fill-opacity:1;stroke:#000000;stroke-width:1px;stroke-linecap:butt;stroke-linejoin:miter;stroke-opacity:1"
       d="M 282.40625 193.59375 C 278.20207 193.60675 275.05198 193.84901 274 194.375 C 269.68321 196.5334 263.77805 198.375 259 198.375 C 257.82149 199.55351 255.64399 198.101 254 198.375 C 250.73425 198.91929 247.53631 207.8387 245 210.375 C 237.30212 218.07289 217.00853 237.35795 211 249.375 C 205.71918 259.93664 209.97132 274.79026 205.71875 285.65625 C 199.04127 290.53099 191.53951 308.21698 188 322.375 C 186.67655 327.6688 188.74063 334.15311 187 339.375 C 186.20711 341.75368 185.11538 345.72114 186 348.375 C 188.08018 354.61554 187.94824 362.21971 190 368.375 C 191.67479 373.39937 195.33204 378.37111 197 383.375 C 199.17681 389.90542 225.5146 414.58729 233.875 418.875 C 253.34371 420.19351 290.07403 433.21298 301.9375 427.28125 C 303.87659 426.3117 309.65126 428.75499 311.125 427.28125 C 312.05616 426.35009 324.32661 425.64107 334.75 424.71875 C 335.68805 429.89278 337.28125 435.22813 337.28125 440 C 337.28125 444.78904 338.56211 480.90586 340.8125 483.15625 C 341.28095 483.6247 344.37431 484.5625 345.0625 484.5625 C 346.21781 484.5625 347.58946 485.4666 348.59375 485.96875 C 352.8467 488.09523 362.86768 484.2959 364.15625 481.71875 C 365.2561 479.51906 362.66488 463.0345 362.03125 460.5 C 361.09316 456.74763 360.49717 430.72868 360.6875 415.0625 C 361.9956 414.2408 363.19927 413.39448 364.15625 412.4375 C 365.83199 410.76176 371.01909 411.94966 372.65625 410.3125 C 375.31458 407.65417 377.95663 405.19356 381.84375 403.25 C 382.731 402.80638 385.37599 403.24906 386.09375 402.53125 C 388.28292 400.34209 390.92201 398.50739 393.875 397 C 395.02135 395.85441 396.12461 394.68808 397 393.375 C 403.61016 383.45976 410.5712 367.87333 409.25 354.5 C 412.35331 343.40459 411.46509 312.03772 408 303.375 C 404.99012 295.85031 399.35596 288.51074 398 280.375 C 393.43065 252.95889 378.48084 239.85585 361 222.375 C 357.31814 218.69314 352.93178 213.84089 348 211.375 C 338.32713 206.53857 329.94163 199.68888 320 196.375 C 317.06662 195.39721 295.0188 193.55482 282.40625 193.59375 z M 259 198.375 C 259.97183 197.4032 255.33333 196.04167 255 197.375 C 254.66667 198.70834 257.66667 198.04167 259 198.375 z "
       id="path4601" />
    <path
       style="fill:#800000;stroke:#000000;stroke-width:1px;stroke-linecap:butt;stroke-linejoin:miter;stroke-opacity:1;fill-opacity:1"
       d="M 314.4375 184.09375 C 300.07831 184.0158 286.77054 184.375 276 184.375 C 270.24111 184.375 234 193.2116 234 197.375 L 234 187.375 C 232.41215 187.4867 218.35278 194.34584 211 205.375 C 209.98225 206.90162 208.01775 206.84838 207 208.375 C 201.5179 216.59816 194.23114 223.65643 189 232.375 C 172.49049 259.89085 161.57571 303.25356 168 335.375 C 172.6044 358.39703 204.17249 384.77341 226.3125 397.6875 C 222.65324 390.80106 219.20691 381.78882 217 377.375 C 216.21046 375.79593 217.12106 370.49606 216 369.375 C 212.13557 365.51057 212.64407 349.66315 210 344.375 C 197.34692 319.06883 214.34609 260.68282 225 239.375 C 225.85791 237.65917 226.81687 232.55813 228 231.375 C 230.10515 229.26985 232.71287 225.66213 235 223.375 C 238.15866 220.21634 243.58128 218.79373 246 216.375 C 247.18948 215.18552 278.13662 231.82965 282 233.375 C 280.00143 232.50704 279.70997 236.95506 275 246.375 C 269.62131 257.13238 259.71045 332.7959 265 343.375 C 265.38453 344.14407 264 352.41317 264 354.375 C 264 360.73387 266.37951 369.13402 269 374.375 C 276.21207 388.79915 282.42619 401.80119 291 410.375 L 293.34375 412.71875 C 318.95489 414.19099 343.56098 407.09452 367 395.375 C 377.26976 390.24012 388.20849 387.24991 398 381.375 C 406.76049 376.11871 415.64789 367.31514 422 359.375 C 455.32929 317.71339 464.09193 281.60483 444 231.375 C 441.22004 224.42509 435.10829 221.85272 431 216.375 C 409.96125 188.32333 357.51507 184.3276 314.4375 184.09375 z "
       id="path3521" />
    <path
       style="fill:#f4d7d7;stroke:#000000;stroke-width:1px;stroke-linecap:butt;stroke-linejoin:miter;stroke-opacity:1"
       d="m 240.41631,162.82185 c -0.94281,-0.70711 -3.53554,-1.17851 -2.82843,-2.12132 0.70711,-0.94281 3.66176,2.95465 2.82843,2.12132 -4.18979,-4.18978 -9.19239,-9.13709 -9.19239,-14.84924 0,-2.98698 -1.17984,-9.66512 -2.82843,-11.31371 -2.07043,-2.07043 1.26492,-21.62172 2.12132,-23.33452 13.64785,-27.295699 60.51427,-30.6566 92.63099,-22.62742 11.33904,2.834761 20.49461,10.2473 29.69848,14.84924 4.20763,2.10382 26.58189,27.15824 21.92031,31.81981 -3.3385,3.33851 -9.74517,6.4294 -7.07106,9.89949 35.90506,46.59256 -26.4087,13.51695 -38.89088,17.67767 -9.57775,3.19258 -20.05565,6.36396 -30.40559,6.36396 -11.05787,0 -21.76195,1.27703 -32.52691,-1.41421 -1.5104,-0.3776 -3.47363,0.49204 -4.94975,0 -1.96788,-0.65596 -12.2311,-3.03872 -12.72792,-3.53553 -1.45183,-1.45183 -4.86046,-2.952 -7.77817,-3.53554 z"
       id="path3211"
       inkscape:connector-curvature="0"
       sodipodi:nodetypes="cssssssssssssssc" />
    <path
       style="fill:#800000;stroke:#000000;stroke-width:1px;stroke-linecap:butt;stroke-linejoin:miter;stroke-opacity:1"
       d="m 351.43207,103.42488 c -0.9411,-1.55865 3.0072,-3.893083 5.65685,-9.192386 1.44733,-2.894654 -0.65148,-9.025507 -1.41421,-11.313709 -0.62302,-1.869064 0.24129,-3.760066 -0.70711,-5.656854 -6.27339,-12.54678 -22.30076,-34.389792 -37.47666,-38.183766 -6.25652,-1.564132 -12.51102,-3.698938 -18.38477,-5.656854 -10.34266,-3.447552 -21.41684,-10.025364 -33.23402,-7.071068 -8.65629,2.164072 -17.68377,3.537566 -26.16295,6.363961 -8.07847,2.692821 -26.1021,17.616817 -32.52691,24.04163 -3.0057,3.005701 -6.131,7.075179 -8.48528,10.606602 -2.16552,3.248268 -13.10158,32.153259 -10.60661,34.648234 0.32371,0.3237 3.7716,4.00657 5.65686,2.12132 2.48771,-2.48771 3.03201,-9.395974 6.36396,-12.727923 8.98094,-8.980945 21.19077,-26.185389 35.35534,-12.020816 1.87951,1.879513 1.57865,19.634552 0,21.213199 -0.19771,0.19772 -1.41422,1.37343 -1.41422,2.12133 0,1.05242 6.4427,0.7071 7.07107,0.7071 11.22122,0 22.76029,-1.41421 33.94113,-1.41421 9.87475,0 21.79846,-0.27632 31.1127,2.82843 4.39325,1.46441 9.61582,-0.42448 14.14213,0.7071 4.4124,1.1031 15.96167,4.39354 20.5061,2.12132 3.4421,-1.72105 7.02218,-2.80887 10.6066,-4.24264 z"
       id="path3293"
       inkscape:connector-curvature="0" />
    <path
       style="fill:none;stroke:#000000;stroke-width:1px;stroke-linecap:butt;stroke-linejoin:miter;stroke-opacity:1"
       d="m 250,138.07647 c 4.02554,-0.73465 22.46089,1.82482 23.57143,0.71428 2.04972,-2.04972 10.85565,-7.42931 15.71428,-5 6.80581,3.4029 3.5661,2.85182 7.14286,6.42857 0.57825,0.57826 4.8058,0 5.71429,0 2.88511,0 9.09668,0.52526 10.71428,2.14286 1.94689,1.94689 9.58118,-1.28084 12.14286,0"
       id="path3045"
       inkscape:connector-curvature="0"
       sodipodi:nodetypes="csssssc" />
    <path
       style="fill:#ffffff;stroke:#000000;stroke-width:1px;stroke-linecap:butt;stroke-linejoin:miter;stroke-opacity:1"
       d="m 234.28571,150.21932 c -15.20735,20.58242 -26.91677,37.8211 -17.85714,65 1.8289,5.4867 3.21233,11.78376 7.14286,15.71429 0.6024,0.6024 0.82617,3.68331 1.42857,4.28571 2.54254,2.54254 4.225,7.08215 7.14286,10 2.34825,2.34826 5.4369,-5.27737 7.14285,-3.57142 1.66667,1.66666 2.61905,4.04762 4.28572,5.71428 0.47619,0.47619 2.38095,-0.47619 2.85714,0 1.49616,1.49616 1.43062,3.9296 3.57143,5 1.24562,0.62281 4.27563,-5.72437 5.71429,-4.28571 6.65879,6.65879 3.27608,1.42857 10.71428,1.42857 2.53908,0 6.89326,3.32182 7.85714,4.28571 0.40367,0.40367 4.24218,-1.38503 4.28572,-1.42857 2.19233,-2.19233 5.559,2.42236 6.42857,2.85714 2.25641,1.12821 6.25704,-5.88581 7.14286,-5 2.50515,2.50516 5.51325,-0.71428 9.28571,-0.71428 1.49858,0 7.42052,1.86519 7.85714,1.42857 0.7086,-0.7086 4.54042,-7.14286 5,-7.14286 0.68891,0 5.48761,3.10095 6.42858,3.57143 2.75835,1.37918 5.40512,-3.41685 7.14285,-4.28571 2.6558,-1.3279 10.12237,3.44906 12.14286,1.42857 1.07072,-1.07072 1.52823,-4.38537 2.85714,-5.71429 1.88922,-1.88921 3.07971,-0.11128 5.71429,-1.42857 2.6722,-1.3361 4.47966,-3.87417 7.85714,-5 2.49047,-0.83015 7.17497,1.36436 8.57143,-1.42857 1.38697,-2.77395 2.23822,-5.80965 4.28571,-7.85714 1.1889,-1.1889 3.32036,-0.21213 5,-3.57143 1.02605,-2.05208 0.83011,-5.83011 2.14286,-7.14286 1.07143,-1.07143 3.21429,-1.07143 4.28572,-2.14286 1.44995,-1.44995 -1.28407,-6.57307 -0.71429,-7.14285 1.31759,-1.31759 4.44095,-1.73904 5.71429,-4.28572 1.17425,-2.34851 -1.70742,-5.1566 -0.71429,-7.14285 1.23641,-2.47283 2.85714,-8.14569 2.85714,-11.42858 0,-2.85011 -0.65668,-2.79954 -2.14285,-4.28571 -1.88545,-1.88545 1.77974,-8.22026 0.71428,-9.28571 -2.42354,-2.42355 -2.23905,-4.47811 -4.28571,-8.57143 -1.28634,-2.57268 -2.84307,0.0141 -4.28572,-1.42857 -0.99817,-0.99817 1.02564,-2.54579 0.71429,-2.85715 -1.55409,-1.55408 -2.40596,-0.45118 -1.42857,-1.42857 -9.18292,-1.60885 -8.23351,2.17478 -12.27576,6.21703 -0.10134,0.10134 -4.31869,-2.12132 -5.65686,-2.12132 -0.7989,0 -3.23496,0.20327 -4.24264,0.70711 -0.49518,0.24759 -0.77622,2.0522 -1.41421,1.41421 -0.94281,-0.94281 -1.17851,-2.59272 -2.12132,-3.53553 -3.38851,-3.38851 -7.00813,4.88681 -7.77817,5.65685"
       id="path3073"
       inkscape:connector-curvature="0" />
    <path
       style="fill:none;stroke:#000000;stroke-width:1px;stroke-linecap:butt;stroke-linejoin:miter;stroke-opacity:1"
       d="m 330.80465,141.60864 c 5.02969,-3.6109 13.27726,0.43244 18.38478,-2.12132 8.09523,-4.04761 31.31526,-8.08015 35.35534,0"
       id="path3323"
       inkscape:connector-curvature="0" />
    <path
       style="fill:#f4d7d7;stroke:#000000;stroke-width:1px;stroke-linecap:butt;stroke-linejoin:miter;stroke-opacity:1;fill-opacity:1"
       d="m 365,143.79075 c -1.74094,-3.99731 3.38085,-17.95243 16.42857,-11.42857 1.46366,0.73183 3.2536,-0.31782 4.28572,0.71429 4.13735,4.13735 3.80749,12.37891 5.71428,14.28571 3.13928,3.13928 -8.07974,19.17442 -15,15.71429 -0.99146,-0.49574 -11.4463,-5.69656 -10,-7.14286 0.37646,-0.37646 0.47619,0.95238 0.71429,1.42857 0.46901,0.93803 2.10157,1.05079 2.85714,1.42857"
       id="path3088"
       inkscape:connector-curvature="0" />
    <path
       style="fill:#de8787;stroke:#000000;stroke-width:1px;stroke-linecap:butt;stroke-linejoin:miter;stroke-opacity:1"
       d="M 259.28571,155.21932 C 259.11629,142.78133 235.94546,144.52579 230,162.36218 c -2.55734,7.67202 3.00926,12.9332 8.57143,15.71429 4.91537,2.45768 9.84817,-0.56246 12.14286,-2.85715 0.37646,-0.37646 1.96096,-0.71428 1.42857,-0.71428 -1.86563,0 -1.42857,-0.0624 -1.42857,1.42857"
       id="path3118"
       inkscape:connector-curvature="0" />
    <path
       style="fill:#782121;stroke:#000000;stroke-width:1px;stroke-linecap:butt;stroke-linejoin:miter;stroke-opacity:1"
       d="m 253.57143,163.79076 c 1.48994,-1.32483 14.47732,7.14285 23.57143,7.14285 8.02977,0 17.83684,-1.41842 25,-5 3.84646,-1.92323 8.44944,-0.29615 12.14286,-2.14285 9.90702,-4.95352 12.83783,14.28571 6.42857,14.28571 -2.97649,0 -6.82106,6.98196 -10,8.57143 -7.27324,3.63662 -14.26187,7.84522 -21.42857,11.42857 -2.59541,1.2977 -8.87785,1.27536 -11.42858,0 -3.17844,-1.58922 -7.87117,-0.72832 -10.71428,-3.57143 -10.17783,-10.17782 -10.34477,-11.40383 -15.71429,-22.14286 -1.27403,-2.54806 1.35576,-6.60367 2.14286,-8.57142 z"
       id="path3146"
       inkscape:connector-curvature="0" />
    <path
       style="fill:#de8787;stroke:#000000;stroke-width:1px;stroke-linecap:butt;stroke-linejoin:miter;stroke-opacity:1;fill-opacity:1"
       d="m 334.28571,176.6479 c 0.95239,0.47619 3.33334,0.47619 2.85715,1.42857 -0.47619,0.95238 -3.61007,-2.1815 -2.85715,-1.42857 1.54593,1.54593 6.98107,3.73322 7.85715,2.85714 0.29932,-0.29932 3.05519,-0.45617 3.57143,-0.71429 2.48666,-1.24333 5.95983,-4.53126 7.14285,-5.71428 1.42412,-1.42412 1.8314,-8.48007 0.71429,-10.71429 -1.53222,-3.06443 -0.85742,-6.5717 -3.57143,-9.28571 -5.03196,-5.03197 -21.37801,-10.81542 -25.71429,-2.14286 -0.74629,1.49259 -6.61935,9.09494 -4.28571,11.42857 1.40522,1.40522 4.71452,0.42881 6.42857,2.14286 2.95817,2.95816 6.00708,7.51769 7.85714,12.14286 z"
       id="path3177"
       inkscape:connector-curvature="0" />
    <path
       style="fill:#ffffff;stroke:#000000;stroke-width:1px;stroke-linecap:butt;stroke-linejoin:miter;stroke-opacity:1"
       d="M 301.8125 150.375 C 298.73842 150.51871 296.01034 151.33341 294.28125 153.0625 C 292.24582 155.09793 291.25445 156.08488 290.59375 156.6875 C 290.36243 156.95978 290.29244 157.0347 290 157.375 L 295 159.5 C 294.00613 158.50613 294.44537 158.0625 295.71875 158.0625 C 296.06955 158.0625 296.68329 158.16074 297.40625 158.28125 C 291.1556 161.4854 282.53612 167.18993 274.28125 163.0625 C 272.48169 162.16272 271.43932 162.52988 270.25 162.09375 C 276.54105 158.15709 273.54158 150.83944 267.96875 151.34375 C 266.56663 151.47063 264.99396 152.11659 263.375 153.40625 C 262.58995 152.7998 261.30963 152.375 259.28125 152.375 C 258.37277 152.375 254.14075 151.79675 253.5625 152.375 C 248.14872 157.78878 245.30619 162.48137 242.15625 168.78125 C 240.007 173.07974 241.96488 181.46488 244.28125 183.78125 C 245.46755 184.96755 246.23706 187.73915 246.40625 188.09375 C 246.40845 188.08671 246.4375 188.08011 246.4375 188.0625 C 246.4375 171.30593 248.79001 182.86624 250.71875 180.9375 C 251.74283 179.91341 249.98922 176.65625 251.4375 176.65625 C 251.9699 176.65625 251.62385 178.0625 252.15625 178.0625 C 253.10619 178.0625 254.7911 167.88485 258.5625 171.65625 C 259.23775 172.3315 260.83995 173.1837 261.4375 173.78125 C 262.13166 174.47541 261.17456 176.65625 262.15625 176.65625 C 263.62757 176.65625 265.30436 173.47688 265.71875 173.0625 C 266.77205 172.0092 268.36754 176.46129 268.5625 176.65625 C 269.73744 177.83119 271.63056 174.99445 272.84375 173.78125 C 274.07218 172.55283 276.57225 177.7705 277.15625 178.0625 C 279.26435 179.11655 282.62603 172.84478 284.28125 174.5 C 284.87649 175.09524 284.40476 176.77976 285 177.375 C 286.52465 178.89965 288.9655 174.5 290.71875 174.5 C 291.81925 174.5 293.12938 177.80812 294.28125 176.65625 C 295.52019 175.41731 297.30053 172.91821 298.5625 171.65625 C 300.2446 169.97415 303.83938 173.53562 305 172.375 C 305.94973 171.42527 310.71945 166.65625 311.4375 166.65625 C 312.8476 166.65625 312.42186 170.21875 313.5625 170.21875 C 313.78394 170.21875 317.15692 165.25067 317.84375 165.9375 C 318.51095 166.6047 318.61405 168.8328 319.28125 169.5 C 320.64663 170.86537 321.47838 166.69712 322.84375 168.0625 C 323.43899 168.65774 322.96726 170.34226 323.5625 170.9375 L 330.71875 178.0625 C 331.09671 178.44046 331.36345 179.43969 331.59375 180.65625 C 332.11875 181.04115 332.56127 181.21998 332.84375 180.9375 C 333.79613 179.98512 331.89137 176.17114 332.84375 175.21875 C 334.49599 173.56652 336.19152 177.58974 337.84375 175.9375 C 338.25293 175.52832 333.37746 170.04374 329.1875 164.15625 C 327.29295 163.18751 325.28038 162.40933 323.6875 161.40625 C 323.29066 160.81219 322.94097 160.31597 322.84375 160.21875 C 321.89137 159.26637 321.67113 157.60863 320.71875 156.65625 C 317.08128 153.01878 308.57547 150.05883 301.8125 150.375 z M 290.59375 156.6875 C 295.50962 150.90135 287.61139 159.40771 290.59375 156.6875 z "
       id="path3148" />
    <path
       style="fill:#f4d7d7;stroke:#000000;stroke-width:1px;stroke-linecap:butt;stroke-linejoin:miter;stroke-opacity:1;fill-opacity:1"
       d="m 277.85714,139.50504 c -13.29884,6.64942 -17.03633,25.05326 -1.42857,32.85714 1.96289,0.98145 7.70145,0.0779 9.28571,-0.71428 7.08499,-3.5425 6.4169,0.72595 13.57143,-6.42858 1.88052,-1.88052 0.56781,-6.99638 2.14286,-8.57142 1.86237,-1.86238 0.19485,-5.25972 -2.14286,-6.42858"
       id="path3002"
       inkscape:connector-curvature="0"
       sodipodi:nodetypes="cscssc" />
    <path
       style="fill:none;stroke:#000000;stroke-width:1px;stroke-linecap:butt;stroke-linejoin:miter;stroke-opacity:1"
       d="m 243.95184,138.07311 c -0.94281,-0.4714 -3.29983,-0.4714 -2.82843,-1.41421 0.47141,-0.94281 3.88252,1.41421 2.82843,1.41421 -1.2693,0 -2.33137,-1.01282 -3.53553,-1.41421 -3.1953,-1.0651 -8.62266,0 -12.02082,0 -3.57706,0 -7.77817,1.45567 -7.77817,1.41421 0,-1.6346 5.78427,-3.53553 7.77817,-3.53553"
       id="path3310"
       inkscape:connector-curvature="0" />
    <path
       style="fill:#ffffff;stroke:#000000;stroke-width:1px;stroke-linecap:butt;stroke-linejoin:miter;stroke-opacity:1"
       d="m 323.6863,129.51223 c -2.14358,0.82633 -1.16997,-2.6293 -6.42857,0 -17.49558,8.74779 -3.89849,25.87782 5,21.42857 8.89193,-4.44597 16.36545,-18.44119 1.42857,-21.42857 z"
       id="path3000"
       inkscape:connector-curvature="0" />
    <path
       style="fill:#800000;fill-opacity:1;stroke:#000000;stroke-width:1px;stroke-linecap:butt;stroke-linejoin:miter;stroke-opacity:1"
       d="m 300.6267,130.94787 c 0.16223,-1.40709 -30.68674,-0.40074 -34.85032,-4.2374 -1.13405,-1.04499 -10.53936,-0.19301 -12.09741,-1.62872 -1.03739,-0.95594 -10.76428,0.0114 -12.77505,-0.89334 -2.16825,-0.97558 -15.05101,-1.37482 -16.27877,-0.0425 -4.52383,4.90933 22.25481,3.33673 23.4883,3.28632 3.81566,-0.15593 39.42998,4.56416 42.70862,6.03935 0.46529,0.20936 6.37657,0.45464 6.38753,0.44667 1.22053,-0.88775 1.92632,-3.20574 3.4171,-2.97043 1.16409,0.18375 -0.13376,2.38736 0.14436,3.53259 0.25322,1.04271 3.9139,-0.99187 4.18136,-1.58627 1.14664,-2.54844 -4.28258,-1.94808 -4.32572,-1.94632 z"
       id="path3355"
       inkscape:connector-curvature="0" />
    <path
       style="fill:#ffffff;stroke:#000000;stroke-width:1px;stroke-linecap:butt;stroke-linejoin:miter;stroke-opacity:1"
       d="m 243.24473,92.81828 c -2.25074,-3.275524 -24.90872,16.81058 -16.26345,25.45584 4.6303,4.63031 9.06768,-3.11962 11.31371,-4.24264 0.54378,-0.27189 3.23187,3.93899 3.53553,4.24264 2.48119,2.4812 8.57203,-2.20807 9.89949,-3.53553 1.49527,-1.49526 3.33909,2.37665 5.65686,3.53553 3.13666,1.56833 7.16537,-2.87558 9.89949,-4.24264 1.21132,-0.60565 3.20965,4.62387 3.53554,4.94975 2.66035,2.66036 9.53681,-3.89822 11.31371,-2.12132 1.25897,1.25897 1.13807,3.25939 2.12132,4.24264 2.87491,2.87491 9.01649,-3.35964 9.89949,-4.24264 1.21346,-1.21346 6.76334,5.25748 9.8995,2.12132 0.4953,-0.49531 4.09114,-4.24264 4.24264,-4.24264 1.22861,0 1.00518,3.12651 1.41421,3.53553 0.58926,0.58926 1.53206,0.82496 2.12132,1.41422 2.58262,2.58262 8.42524,-3.56556 9.8995,-2.82843 1.20274,0.60137 3.20631,4.62053 4.24264,5.65686 2.57116,2.57116 6.62847,-6.09945 9.19238,-3.53554 6.15542,6.15542 9.58622,-1.02039 10.60661,0 0.5918,0.5918 5.95265,7.48238 8.48528,4.94975 0.56414,-0.56414 3.81083,-4.67445 4.24264,-4.24264 0.40984,0.40984 1.00437,2.41859 1.41421,2.82843 1.66674,1.66673 4.92269,-2.12133 6.36396,-2.12133 2.84285,0 2.17566,4.89542 7.77818,-0.7071 0.91414,-0.91414 -0.56378,-2.6851 -0.70711,-2.82843 -1.12375,-1.12375 -0.002,-4.24415 -1.41421,-5.65685 -3.5871,-3.5871 -5.49167,-6.90588 -8.48528,-9.8995 -3.83924,-3.839231 -10.63859,-4.274626 -13.43503,-7.071066 -0.90556,-0.905554 -5.75646,1.613413 -6.36396,2.828427 -0.43891,0.877816 0.38691,3.535529 -0.70711,3.535529 -1.75199,0 -5.70197,-8.44016 -12.02082,-2.121315 -0.37267,0.372678 -0.18006,1.414213 -0.7071,1.414213 -1.83871,0 -6.73239,-7.409746 -9.8995,-4.242641 -0.35426,0.354262 -0.95065,1.657755 -1.41421,2.121321 -0.57754,0.577536 -2.46932,-1.414214 -2.82843,-1.414214 -1.54143,0 -5.01514,-0.67441 -6.36396,0 -0.59628,0.298143 -0.74755,1.414214 -1.41421,1.414214 -1.10262,0 -3.34209,-3.085258 -4.24264,-3.535534 -4.68098,-2.34049 -10.60661,5.030249 -10.60661,4.242641 0,-0.705583 -4.352,-6.961701 -7.77817,-3.535534 -2.48415,2.484151 -5.50855,-1.414214 -10.6066,-1.414214 -2.74037,0 -7.72485,2.881757 -7.77818,2.828427 -0.4714,-0.471404 -0.2357,-1.649916 -0.7071,-2.12132 -1.17676,-1.176752 -8.61317,-2.410931 -10.60661,-1.414214 -1.08033,0.540169 -4.64344,3.535534 -4.94974,3.535534 -0.0832,0 0.10398,-2.017334 0,-2.12132 -2.27904,-2.279035 -4.45088,-2.745132 -7.77818,-1.414214 z"
       id="path3239"
       inkscape:connector-curvature="0" />
    <path
       style="fill:#ffffff;stroke:#000000;stroke-width:1px;stroke-linecap:butt;stroke-linejoin:miter;stroke-opacity:1"
       d="m 188.0904,93.525387 c -0.94281,-0.235702 -3.06413,0.235702 -2.82842,-0.707107 0.2357,-0.942809 3.51561,1.394291 2.82842,0.707107 -2.54346,-2.543462 -7.89847,-1.88072 -9.19238,0.707107 -0.66192,1.323827 1.73557,1.799956 0.7071,2.828427 -0.24796,0.247967 -7.65615,-0.122021 -10.6066,2.828427 -0.90458,0.904582 -0.13862,4.519872 -0.70711,5.656852 -0.29476,0.58954 -1.54565,2.69699 -1.41421,2.82843 0.2357,0.2357 1.88562,0.4714 2.12132,0.70711 1.35745,1.35745 -3.57181,5.62057 -1.41421,7.77817 0.48992,0.48992 2.3385,0.92429 2.82842,1.41421 0.9135,0.9135 -1.23679,3.00585 0,4.24265 1.63233,1.63232 4.68884,-0.70711 5.65686,-0.70711 0.83204,0 1.00688,3.1282 1.41421,3.53553 2.05407,2.05407 3.55028,-0.7071 4.94975,-0.7071 1.52856,0 2.89358,2.08874 4.24264,1.41421 1.56635,-0.78318 1.23599,-2.6502 2.12132,-3.53553 0.91004,-0.91005 5.46122,2.31695 7.07107,0.7071 0.83871,-0.83871 1.06641,-3.36163 2.82843,-4.24264 2.12964,-1.06482 3.42764,-1.30632 4.94974,-2.82843 1.95739,-1.95738 -2.18029,-5.00872 -2.82842,-5.65685 -1.2751,-1.2751 2.82842,-3.16976 2.82842,-4.24264 0,-1.34352 -10.84859,-13.677019 -11.31371,-14.142136 -1.05409,-1.054093 -2.85854,0.860577 -4.24264,1.414213 z"
       id="path3295"
       inkscape:connector-curvature="0" />
    <path
       style="fill:#800000;stroke:#000000;stroke-width:1px;stroke-linecap:butt;stroke-linejoin:miter;stroke-opacity:1;fill-opacity:1"
       d="m 336.58283,129.58783 c 3.78142,-2.17145 8.40019,-1.01811 12.02082,-2.82843 1.47489,-0.73744 22.37596,-4.49409 24.04163,-2.82842 2.49893,2.49893 -4.31617,4.24264 -5.65686,4.24264 -6.2347,0 -27.63511,2.94432 -29.69848,7.07106"
       id="path3342"
       inkscape:connector-curvature="0" />
    <path
       style="fill:#800000;stroke:#000000;stroke-width:1px;stroke-linecap:butt;stroke-linejoin:miter;stroke-opacity:1;fill-opacity:1"
       d="m 298.39907,132.41626 c -0.27763,6.22414 -1.94041,15.73727 2.82842,20.5061 3.92092,3.92091 20.04349,14.60475 27.57717,7.07107 0.83591,-0.83591 3.15008,-0.32166 4.24264,-1.41422 2.91721,-2.91721 6.03403,-7.44824 8.48528,-9.89949 1.22676,-1.22677 -0.0264,-4.18992 0.70711,-5.65686 0.92244,-1.84488 0.92244,-3.10485 0,-4.94974 -1.2486,-2.4972 0.63595,-7.84933 -1.41422,-9.8995 -2.13498,-2.13498 -4.49627,-3.3088 -7.77817,-4.94975 -3.56634,-1.78317 -28.97615,-0.0152 -31.1127,2.12132 -1.94505,1.94505 -3.53553,3.24698 -3.53553,7.07107 z"
       id="path3325"
       inkscape:connector-curvature="0" />
    <path
       style="fill:#ffffff;stroke:#000000;stroke-width:1px;stroke-linecap:butt;stroke-linejoin:miter;stroke-opacity:1"
       d="m 254.28571,127.36219 c 0.0882,-0.0433 -2.41198,-3.07973 -8.57143,0 -13.6263,6.81315 0.22234,26.3174 7.14286,22.85714 2.63572,-1.31786 5.47115,-1.89972 7.14286,-3.57143 1.32812,-1.32812 0.64022,-4.13759 1.42857,-5.71428 3.3988,-6.79761 -1.02931,-12.34872 -7.14286,-13.57143 z"
       id="path2998"
       inkscape:connector-curvature="0" />
    <path
       style="fill:#ffffff;stroke:#000000;stroke-width:1px;stroke-linecap:butt;stroke-linejoin:miter;stroke-opacity:1"
       d="m 270.46631,43.670337 c -4.08192,-0.04751 -7.73021,3.397933 -9.5625,7.0625 -2.42273,4.845463 -0.89063,7.635405 2.125,11.65625 1.67313,2.23084 4.1871,4.462094 6.84375,6 0.30198,3.971721 1.11101,8.29851 2.71875,9.90625 0.37378,0.373776 2.02281,0.327689 3.625,0.21875 -0.37377,-1.945087 -2.66768,-4.332319 -1.15625,-5.84375 0.75566,-0.755661 0.8106,3.409254 1.6875,5.8125 0.95163,-0.07347 1.75822,-0.13313 2.25,-0.15625 -0.64377,-1.768007 -2.35393,-4.396067 -1.09375,-5.65625 1.05066,-1.050665 1.23808,4.425574 1.40625,4.59375 0.29586,0.295865 0.62809,0.699364 0.875,1.09375 1.15669,0.09636 2.99959,0.281658 3.34375,-0.0625 0.0551,-0.05514 -0.96338,-4.96536 -1.90625,-9.375 4.31914,-2.009385 8.08393,-5.90804 9.34375,-9.6875 1.62346,-4.870379 -6.44856,-14.15625 -10.96875,-14.15625 -0.57766,0 -1.24785,-0.467676 -1.75,-0.71875 -1.49266,-0.746328 -5.88386,-0.6875 -7.78125,-0.6875 z m -5.3125,8.125 c 7.2386,0 11.3469,4.903102 6,10.25 -0.43533,0.435333 -2.01286,0.662679 -2.8125,1.0625 -2.58923,1.294615 -7.72547,-6.774534 -5.3125,-9.1875 5.75841,-5.758417 -2.40189,2.402009 2.125,-2.125 z m 15.21875,0 c 1.53129,0.382823 4.71355,0.119799 6,1.40625 2.10355,2.103545 1.67829,6.477964 -0.34375,8.5 -0.48584,0.485841 -1.84989,0.737444 -2.5,1.0625 -6.24226,3.121126 -12.55314,-10.040634 -3.15625,-10.96875 z m -5.28125,9.96875 c 0.0308,-0.03342 0.008,0.09714 -0.0312,0.28125 0.48335,0.604187 3.03493,5.090068 2.46875,5.65625 -0.35356,0.353553 -1.77145,-0.353554 -2.125,0 -0.0607,0.06072 -2.13576,1.051738 -2.46875,0.71875 -0.50517,-0.505167 1.18111,-3.824581 1.4375,-4.59375 0.48577,-1.457313 0.66336,-2.002367 0.71875,-2.0625 z"
       id="path3383"
       inkscape:connector-curvature="0" />
    <path
       style="fill:#ffffff;stroke:#000000;stroke-width:1px;stroke-linecap:butt;stroke-linejoin:miter;stroke-opacity:1;fill-opacity:1"
       d="M 295.71875 72.65625 C 294.00582 72.685029 292.73448 74.105367 292.65625 75.25 C 291.01405 75.908215 289.40148 76.627387 288.84375 76.90625 C 286.94758 77.854338 284.90731 78.718224 282.84375 79.75 C 282.02401 80.159872 281.10373 80.53336 280.15625 80.90625 C 278.35095 80.668045 276.54556 80.4375 274.71875 80.4375 C 270.86149 80.4375 265.34087 78.9985 262.3125 78.75 C 262.31129 78.749901 262.31371 78.718849 262.3125 78.71875 C 262.14806 78.289149 261.8607 77.850899 261.625 77.96875 C 261.56607 77.998213 261.51888 78.050937 261.5 78.09375 C 260.89143 77.213944 260.08385 76.322407 259.5 76.90625 C 259.02859 77.377655 258.22141 77.497346 257.75 77.96875 C 257.07984 78.638909 258.54342 80.33158 258.4375 80.4375 C 257.90822 80.966779 256.50945 82.040702 257.75 83.28125 C 259.65366 85.184911 261.0882 83.616196 261.8125 81.75 C 263.32102 81.881927 265.09836 81.84375 265.875 81.84375 C 267.06487 81.84375 270.93131 82.681312 271.53125 83.28125 C 271.56705 83.317054 271.76472 83.330781 272.03125 83.375 C 268.73384 84.279014 265.26527 85.340374 263.375 85.96875 C 263.35921 85.974 263.32806 85.963562 263.3125 85.96875 C 263.22391 85.970551 263.17319 85.992881 263.125 86.03125 C 263.10841 86.044459 263.07272 86.044104 263.0625 86.0625 C 262.50771 86.250828 262.08729 86.401638 261.96875 86.46875 C 259.75305 86.582607 257.32693 87.108186 259.5 89.28125 C 259.91248 89.693729 261.21252 89.212517 261.625 89.625 C 262.15533 90.15533 261.81342 91.59467 262.34375 92.125 C 263.17708 92.958333 265.15625 91.178511 265.15625 90 L 265.09375 89.6875 C 266.46158 89.288493 268.29032 88.073589 268.6875 87.875 C 270.67245 86.882525 275.26001 85.551911 277.9375 83.9375 C 282.97475 84.316777 289.25352 84.6875 290.625 84.6875 C 291.08828 84.6875 294.08857 85.608569 295.25 85.21875 C 296.12758 85.961367 297.31051 86.470736 298.03125 85.75 C 298.32588 85.455372 298.1116 84.638378 298.40625 84.34375 C 298.88173 83.868276 300.69015 84.153598 301.21875 83.625 C 302.78127 82.062478 300.46495 81.103098 298.375 81.34375 C 295.16318 80.547868 287.51835 81.5 286.71875 81.5 C 285.75398 81.5 284.82642 81.434708 283.875 81.34375 C 285.856 80.924687 287.90426 80.563496 288.84375 80.09375 C 290.03757 79.496843 291.97826 79.130535 293.3125 78.625 C 293.79187 79.827553 294.51275 80.799755 295.5625 79.75 C 295.87289 79.439611 298.34141 77.185162 297.34375 76.1875 C 297.2468 76.090545 296.625 75.896788 296.625 75.5 C 296.625 75.014087 297.59664 76.061057 298.03125 75.84375 C 298.33262 75.693062 299.18716 74.530915 298.75 74.09375 C 297.70227 73.046019 296.64239 72.640732 295.71875 72.65625 z M 261.5 78.125 C 261.63987 78.32816 261.79324 78.539083 261.90625 78.71875 C 261.87381 78.717248 261.8442 78.688635 261.8125 78.6875 C 261.63061 78.467451 261.46702 78.27343 261.5 78.125 z "
       id="path3491" />
    <path
       style="fill:#ffb600;fill-opacity:1;stroke:#000000;stroke-width:1px;stroke-linecap:butt;stroke-linejoin:miter;stroke-opacity:1"
       d="m 279.51472,260.21573 c -1.31739,0.2358 -1.36506,-0.63493 -3.5,1.5 -3.31908,3.31908 3.46624,8.03376 6.5,5 2.13297,-2.13297 2.09727,-8.53891 -3,-6.5 z"
       id="path3587"
       inkscape:connector-curvature="0" />
    <path
       style="fill:#ffb600;fill-opacity:1;stroke:#000000;stroke-width:1px;stroke-linecap:butt;stroke-linejoin:miter;stroke-opacity:1"
       d="m 276.16116,284.64898 c -0.66667,-0.16666 -2.16667,0.16667 -2,-0.5 0.16667,-0.66666 2.68718,0.5 2,0.5 -0.84984,0 -1.65016,-0.5 -2.5,-0.5 -2.26228,0 -2.17422,5.91289 1,7.5 2.49503,1.24752 6.53074,-2.96925 4.5,-5 -0.84984,-0.84983 -2.06151,-1.24921 -3,-2 z"
       id="path3593"
       inkscape:connector-curvature="0" />
    <path
       style="fill:#ffb600;fill-opacity:1;stroke:#000000;stroke-width:1px;stroke-linecap:butt;stroke-linejoin:miter;stroke-opacity:1"
       d="m 273.97918,301.2703 c -0.66667,0 -2,0.66667 -2,0 0,-0.66666 2.4714,-0.4714 2,0 -1.85122,1.85122 -2.44625,-0.1075 -3.5,2 -4.93196,9.86392 11.30032,5.30032 6.5,0.5 -1.86139,-1.86139 1.82887,-1.53422 -3,-2.5 z"
       id="path3595"
       inkscape:connector-curvature="0" />
    <path
       style="fill:#ffb600;fill-opacity:1;stroke:#000000;stroke-width:1px;stroke-linecap:butt;stroke-linejoin:miter;stroke-opacity:1"
       d="m 272.27207,317.77029 c -0.66667,0.16667 -1.83333,1.16667 -2,0.5 -0.16667,-0.66666 2.48591,-0.98591 2,-0.5 -0.0295,0.0295 -2.5716,0.6432 -3,1.5 -7.22309,14.44617 18.78557,4.81423 3,-1.5 z"
       id="path3597"
       inkscape:connector-curvature="0" />
    <path
       style="fill:#ffb600;fill-opacity:1;stroke:#000000;stroke-width:1px;stroke-linecap:butt;stroke-linejoin:miter;stroke-opacity:1"
       d="m 272.77207,345.52334 c -0.66667,0.16667 -1.83333,1.16667 -2,0.5 -0.16667,-0.66666 2.48591,-0.98591 2,-0.5 -2.71884,1.08754 -1.86535,0.36535 -3,1.5 -2.43909,2.4391 0.68389,7.15806 4,5.5 3.72051,-1.86025 4.07516,-7 -1,-7 z"
       id="path3599"
       inkscape:connector-curvature="0" />
    <path
       style="fill:#ffb600;fill-opacity:1;stroke:#000000;stroke-width:1px;stroke-linecap:butt;stroke-linejoin:miter;stroke-opacity:1"
       d="m 277.95406,369.98351 c -6.843,-0.32692 5.57777,-0.5 -2.5,-0.5 -0.60093,0 -0.73126,0.96252 -1,1.5 -2.2175,4.43501 1.0644,5.7822 4.5,7.5 2.81381,1.40691 7.37372,-8.5 -1,-8.5 z"
       id="path3601"
       inkscape:connector-curvature="0" />
    <path
       style="fill:#ffb600;fill-opacity:1;stroke:#000000;stroke-width:1px;stroke-linecap:butt;stroke-linejoin:miter;stroke-opacity:1"
       d="m 287.47919,388.91243 c -5.30129,2.97581 3.62428,-4.12428 -2.5,2 -3.23945,3.23946 3.21419,7.39291 7,5.5 2.72647,-1.36323 1.64327,-9.95731 -4.5,-7.5 z"
       id="path3605"
       inkscape:connector-curvature="0" />
    <path
       style="fill:#800000;stroke:#000000;stroke-width:1px;stroke-linecap:butt;stroke-linejoin:miter;stroke-opacity:1;fill-opacity:1"
       d="m 214.25335,248.38177 c -0.17632,-1.03938 13.46512,10.54643 15.90991,5.65686 1.95875,-3.91751 -4.33201,-12.0655 -7.07107,-13.43503 -1.11601,-0.55801 -8.36659,-3.41685 -6.01041,-1.06066"
       id="path4525"
       inkscape:connector-curvature="0" />
    <path
       style="fill:#800000;stroke:#000000;stroke-width:1px;stroke-linecap:butt;stroke-linejoin:miter;stroke-opacity:1;fill-opacity:1"
       d="m 207.88939,270.65564 c 2.98047,-0.24052 11.01379,5.27648 13.78859,3.88908 5.89012,-2.94506 4.89561,-6.41809 0,-11.31371 -2.88353,-2.88352 -8.13506,-2.65331 -11.31371,-4.24264"
       id="path4527"
       inkscape:connector-curvature="0" />
    <path
       style="fill:#800000;stroke:#000000;stroke-width:1px;stroke-linecap:butt;stroke-linejoin:miter;stroke-opacity:1;fill-opacity:1"
       d="m 205.76807,283.73711 c 2.81514,-0.22136 5.31919,1.30166 7.77818,2.12132 3.67055,1.22352 8.39016,1.60445 6.01041,6.36396 -0.99663,1.99326 -1.30582,2.951 -3.18198,3.88909 -3.5565,1.77825 -9.55826,-0.35355 -13.43503,-0.35355 -0.79646,0 -5.68375,0 -4.24264,0"
       id="path4529"
       inkscape:connector-curvature="0" />
    <path
       style="fill:#800000;stroke:#000000;stroke-width:1px;stroke-linecap:butt;stroke-linejoin:miter;stroke-opacity:1;fill-opacity:1"
       d="m 203.64675,304.59676 c 4.01818,-0.62083 10.20777,0.30828 13.08148,3.18198 0.16343,0.16344 -0.10673,0.8472 0,1.06066 1.45596,2.91193 -1.45773,7.20342 -4.24264,8.13173 -4.10888,1.36963 -10.14427,-0.58472 -13.43503,1.06066"
       id="path4531"
       inkscape:connector-curvature="0" />
    <path
       style="fill:#800000;stroke:#000000;stroke-width:1px;stroke-linecap:butt;stroke-linejoin:miter;stroke-opacity:1;fill-opacity:1"
       d="m 202.58609,327.93128 c 2.7083,-1.01876 5.60739,-0.7071 8.48528,-0.7071 5.00947,0 9.66823,4.70517 7.07107,9.89949 -2.21596,4.43192 -15.55635,1.51756 -15.55635,3.88909"
       id="path4533"
       inkscape:connector-curvature="0" />
    <path
       style="fill:#800000;stroke:#000000;stroke-width:1px;stroke-linecap:butt;stroke-linejoin:miter;stroke-opacity:1;fill-opacity:1"
       d="m 206.47518,349.49804 c 1.43896,-0.8061 3.10579,-0.0555 4.59619,-0.35355 2.34767,-0.46953 6.15447,-1.87252 8.48529,-0.70711 4.75031,2.37516 6.29,7.70963 1.41421,10.96016 -0.58292,0.38861 -1.23121,1.58891 -1.76777,1.76776 -3.36373,1.12125 -7.42841,0.88578 -10.6066,2.47488"
       id="path4535"
       inkscape:connector-curvature="0" />
    <path
       style="fill:#800000;stroke:#000000;stroke-width:1px;stroke-linecap:butt;stroke-linejoin:miter;stroke-opacity:1;fill-opacity:1"
       d="m 211.77848,372.83257 c 3.61364,2.07802 15.77302,2.20111 17.32412,5.3033 0.53999,1.07997 0.52681,2.46783 1.06066,3.53553 0.28075,0.56151 0.71812,2.09928 0.35355,2.82843 -2.95867,5.91734 -9.63224,3.14746 -14.84924,1.06066 -0.12384,-0.0495 -4.5962,-0.9864 -4.5962,-0.70711 0,0.42492 0.51708,0.6806 0.70711,1.06066"
       id="path4537"
       inkscape:connector-curvature="0" />
    <path
       style="fill:none;stroke:#000000;stroke-width:1px;stroke-linecap:butt;stroke-linejoin:miter;stroke-opacity:1"
       d="m 222.38508,246.26045 c 1.00812,2.35386 3.15183,4.05079 4.94975,4.94975"
       id="path4574"
       inkscape:connector-curvature="0" />
    <path
       style="fill:none;stroke:#000000;stroke-width:1px;stroke-linecap:butt;stroke-linejoin:miter;stroke-opacity:1"
       d="m 215.66757,267.1201 c 2.55567,0.21018 4.5861,2.64661 6.36396,3.53554"
       id="path4576"
       inkscape:connector-curvature="0" />
    <path
       style="fill:none;stroke:#000000;stroke-width:1px;stroke-linecap:butt;stroke-linejoin:miter;stroke-opacity:1"
       d="m 208.95005,291.51529 c 2.61382,-0.65489 6.21492,-0.14905 8.13173,1.76776"
       id="path4578"
       inkscape:connector-curvature="0" />
    <path
       style="fill:none;stroke:#000000;stroke-width:1px;stroke-linecap:butt;stroke-linejoin:miter;stroke-opacity:1"
       d="m 207.53584,312.37494 c 1.91966,-0.53489 4.42571,-0.8776 6.01041,0.7071"
       id="path4580"
       inkscape:connector-curvature="0" />
    <path
       style="fill:none;stroke:#000000;stroke-width:1px;stroke-linecap:butt;stroke-linejoin:miter;stroke-opacity:1"
       d="m 207.18228,333.58814 c 0.16143,2.07834 6.87765,-0.90053 8.48529,0.70711"
       id="path4595"
       inkscape:connector-curvature="0" />
    <path
       style="fill:none;stroke:#000000;stroke-width:1px;stroke-linecap:butt;stroke-linejoin:miter;stroke-opacity:1"
       d="m 213.54625,356.56911 c 1.72462,-1.55282 5.06089,-1.52536 6.36396,-2.82843"
       id="path4597"
       inkscape:connector-curvature="0" />
    <path
       style="fill:none;stroke:#000000;stroke-width:1px;stroke-linecap:butt;stroke-linejoin:miter;stroke-opacity:1"
       d="m 216.37468,380.96429 c 2.13115,-0.001 8.92896,0.75217 10.96015,1.76777"
       id="path4599"
       inkscape:connector-curvature="0" />
    <path
       style="fill:#ff0000;stroke:#000000;stroke-width:1px;stroke-linecap:butt;stroke-linejoin:miter;stroke-opacity:1"
       d="m 441.5,336.86218 c -7.0773,3.45865 -8.77764,15.27764 -12.5,19 -2.75189,2.75189 -5.03734,5.03735 -8,8 -2.08907,2.08907 -12.57839,4.2892 -16,6 -2.55358,1.27679 -5.50071,3.00071 -7.5,5 -1.46787,1.46787 -8.60928,3.30464 -11,4.5 -2.74368,1.37184 -10.58306,1.29153 -13,2.5 -2.80869,1.40435 -5.53546,1.01773 -8.5,2.5 -7.30893,3.65447 -17.17281,5.91821 -25.5,8 -2.2132,0.5533 -4.84675,0.28225 -7,1 -16.12215,5.37405 -32.95155,10.31718 -48.5,15.5 -5.0565,1.6855 -11.04259,0.84753 -16,2.5 -3.26284,1.08762 -7.61648,-0.6767 -11,0 -5.32101,1.0642 -11.2498,2 -16.5,2 -3.43448,0 -18.55424,1.47288 -20.5,0.5 -5.68384,-2.84192 -8.88167,-8.38167 -14,-13.5 -1.13738,-1.13738 -5,-4.47001 -5,-5 0,-1.40255 5.43361,-1.5 7,-1.5 3.78988,0 13.25406,0.58198 16.5,-0.5 4.95089,-1.65029 10.01522,-2 15.5,-2 2.66686,0 13.34787,-0.67393 16,-2 2.94345,-1.47172 10.94192,0.18603 14.5,-1 5.49929,-1.83309 11.79025,-2.09675 17.5,-4 1.79083,-0.59694 4.33276,0.33362 6,-0.5 8.21912,-4.10956 17.6551,-4.5517 26.5,-7.5 8.1538,-2.71793 18.13755,-5.56877 26,-9.5 5.02548,-2.51274 10.77211,-2.63605 15.5,-5 2.66561,-1.3328 6.88291,-0.19145 9.5,-1.5 3.62727,-1.81363 7.70901,-2.23633 11.5,-3.5 4.94853,-1.64951 9.56995,-4.35665 14.5,-6 4.48931,-1.49643 8.17429,-2.08714 12,-4 3.8651,-1.93255 21.93382,-10.5 24.5,-10.5 0.64648,0 7.34849,-2.75757 7.5,-2 0.16343,0.81715 0,1.66667 0,2.5 z"
       id="path4632"
       inkscape:connector-curvature="0" />
    <path
       style="fill:#ffb600;stroke:#000000;stroke-width:1px;stroke-linecap:butt;stroke-linejoin:miter;stroke-opacity:1;fill-opacity:1"
       d="M 264.4375 385.375 C 264.42041 385.39918 264.48518 385.46797 264.5625 385.53125 C 265.01848 385.43624 265.16648 385.375 264.5 385.375 C 264.47054 385.375 264.44417 385.36556 264.4375 385.375 z M 264.5625 385.53125 C 263.39671 385.77415 259.79321 386.2284 259.5 386.375 C 257.86636 387.19182 253.79577 387.375 252 387.375 C 245.63093 387.375 240.37799 386.82381 234 389.375 C 235.58717 397.21876 236.5711 412.4461 240.5 416.375 C 241.13717 417.01218 249.57983 415.875 252.5 415.875 C 255.34928 415.875 261.40189 415.9731 263 414.375 C 263.64422 413.73078 269.83493 413.375 271 413.375 C 271.55915 413.375 272.41998 413.95502 272.5 413.875 C 273.4568 412.9182 267.92365 397.72231 267 395.875 C 265.96894 393.81289 266.86045 389.23545 265.5 387.875 C 265.08333 387.45834 265.4167 386.29167 265 385.875 C 264.90752 385.78252 264.69653 385.64094 264.5625 385.53125 z M 260.5 388.71875 C 260.72131 388.71365 260.89783 388.77283 261 388.875 C 262.86315 390.73816 265.35201 401.93102 266.5 405.375 C 266.70935 406.00305 268.65138 409.72362 268.5 409.875 C 268.14645 410.22856 265.55538 409.875 265 409.875 C 264.66344 409.875 260.88501 411.26002 260 410.375 C 259.84799 410.22299 256.5 399.72376 256.5 398.875 C 256.5 396.57952 254.09799 394.10343 254.5 391.375 C 254.92388 391.12067 258.95083 388.75448 260.5 388.71875 z M 249.65625 390.75 C 249.82345 390.76201 249.94178 390.81678 250 390.875 C 251.99303 392.86803 252.27941 402.93382 254 406.375 C 254.38444 407.14388 257.27999 412.09501 256.5 412.875 C 255.94242 413.43258 251.87614 412.875 251 412.875 C 249.27476 412.875 242.1511 413.0261 242 412.875 C 241.41667 412.29167 242.58333 409.95834 242 409.375 C 240.45243 407.82743 238.78908 398.10588 238.5 394.375 C 242.43392 391.22787 241.66061 393.2947 244.5 391.875 C 245.01797 391.61602 248.48587 390.66594 249.65625 390.75 z "
       id="path4634" />
    <path
       style="fill:#ffb600;stroke:#000000;stroke-width:1px;stroke-linecap:butt;stroke-linejoin:miter;stroke-opacity:1;fill-opacity:1"
       d="m 256,397.86218 c -2.85688,-0.11819 -9.62727,-0.37273 -11.5,1.5 -0.0153,0.0153 0.77665,2.05331 1,2.5 0.18068,0.36137 0.29047,2.29048 0.5,2.5 0.26667,0.26668 5.99221,-1.7461 6.5,-2 2.19778,-1.09889 6.40957,1.09043 8,-0.5 0.31557,-0.31557 -0.33092,-5.33092 -1,-6 -0.13191,-0.13191 -2.86469,1.61882 -3.5,2 z"
       id="path4638"
       inkscape:connector-curvature="0" />
    <path
       style="fill:none;stroke:#000000;stroke-width:1px;stroke-linecap:butt;stroke-linejoin:miter;stroke-opacity:1"
       d="m 250.3158,423.03715 c -1.67437,-0.42348 2.35909,16.02568 -2.12132,20.50609 -0.35355,0.35356 0.35355,1.76777 0,2.12132 -1.16467,1.16468 -2.60044,3.07956 -3.53553,4.94975 -0.85449,1.70897 -1.07297,3.90139 -2.12132,4.94975"
       id="path4678"
       inkscape:connector-curvature="0" />
    <path
       style="fill:none;stroke:#000000;stroke-width:1px;stroke-linecap:butt;stroke-linejoin:miter;stroke-opacity:1"
       d="m 243.24473,468.29198 c -0.82682,-1.09784 -0.82193,-9.78467 4.24264,-14.84924 0.48993,-0.48992 0.21719,-3.04561 0.70711,-3.53554 5.278,-5.27799 8.14475,-11.28766 4.24264,-19.09188"
       id="path4680"
       inkscape:connector-curvature="0" />
    <path
       style="fill:none;stroke:#000000;stroke-width:1px;stroke-linecap:butt;stroke-linejoin:miter;stroke-opacity:1"
       d="m 255.26555,452.02853 c -0.94281,0.7071 -2.12132,3.06412 -2.82843,2.12132 -0.70711,-0.94281 3.35547,-3.17542 2.82843,-2.12132 -0.74536,1.49071 -2.46856,2.25516 -3.53554,3.53553 -0.61569,0.73883 -0.7071,3.15037 -0.7071,4.24264 0,8.74889 7.49838,-3.38801 7.07107,-4.24264 -0.67495,-1.3499 -1.88562,-2.35702 -2.82843,-3.53553 z"
       id="path4682"
       inkscape:connector-curvature="0" />
    <path
       style="fill:none;stroke:#000000;stroke-width:1px;stroke-linecap:butt;stroke-linejoin:miter;stroke-opacity:1"
       d="m 260.2153,437.17928 c -1.41254,9.45412 1.86113,-7.63127 0,3.53554 -0.20825,1.24946 -2.75205,6.44034 -1.41422,7.77817 1.62403,1.62403 7.32166,10.35602 3.53554,14.14214 -5.23958,5.23957 -12.72793,6.79287 -12.72793,16.26345"
       id="path4684"
       inkscape:connector-curvature="0" />
    <path
       style="fill:none;stroke:#000000;stroke-width:1px;stroke-linecap:butt;stroke-linejoin:miter;stroke-opacity:1"
       d="m 255.97265,483.84833 c -0.95243,-1.66567 0.40177,-9.03972 6.36397,-12.02081"
       id="path4686"
       inkscape:connector-curvature="0" />
    <path
       style="fill:none;stroke:#000000;stroke-width:1px;stroke-linecap:butt;stroke-linejoin:miter;stroke-opacity:1"
       d="m 263.04372,480.3128 c 0.89759,-2.64573 2.65379,-3.44822 4.24264,-4.24264"
       id="path4688"
       inkscape:connector-curvature="0" />
    <path
       style="fill:none;stroke:#000000;stroke-width:1px;stroke-linecap:butt;stroke-linejoin:miter;stroke-opacity:1"
       d="m 260.2153,423.74425 c -1.84645,2.39394 -2.70692,6.24245 -4.24265,7.77818"
       id="path4690"
       inkscape:connector-curvature="0" />
    <path
       style="fill:none;stroke:#000000;stroke-width:1px;stroke-linecap:butt;stroke-linejoin:miter;stroke-opacity:1"
       d="m 245.95184,425.41583 c -2.13496,4.32703 -2.63567,9.80311 -5.65685,11.31371"
       id="path4692"
       inkscape:connector-curvature="0" />
    <path
       style="fill:none;stroke:#000000;stroke-width:1px;stroke-linecap:butt;stroke-linejoin:miter;stroke-opacity:1"
       d="m 246.78027,471.12041 c -0.31406,-3.4161 1.48562,-5.79967 2.82842,-8.48528"
       id="path4694"
       inkscape:connector-curvature="0" />
    <path
       style="fill:none;stroke:#000000;stroke-width:1px;stroke-linecap:butt;stroke-linejoin:miter;stroke-opacity:1"
       d="m 262.33662,444.25035 c 0,-9.68998 0,7.94186 0,-3.53553"
       id="path4696"
       inkscape:connector-curvature="0" />
    <path
       style="fill:#800000;stroke:#000000;stroke-width:1px;stroke-linecap:butt;stroke-linejoin:miter;stroke-opacity:1;fill-opacity:1"
       d="M 340.15625 461.125 C 338.20829 460.95116 331.60051 464.08699 330.9375 464.75 C 330.83034 464.85716 332.94166 469.47708 333.40625 470.40625 C 333.85291 471.29957 333.89417 472.36168 333.84375 473.46875 C 331.46823 473.11514 329.39855 472.97645 329 473.375 C 326.57376 475.80124 318.89207 475.48294 316 478.375 C 311.34804 483.02696 313.08051 489.45551 317 493.375 C 321.91508 498.29009 354.05218 496.32282 358 492.375 C 359.30528 491.06972 360.74296 489.50352 363 488.375 C 365.54478 487.10261 369.62927 480.00427 366 476.375 C 364.17794 474.55295 358.1782 480.19681 358 480.375 C 356.07607 482.29893 349.45616 481.05044 346.375 480.4375 C 347.14547 478.74788 347.95337 476.99951 348.59375 475.71875 C 349.19463 474.517 352.125 471.97484 352.125 470.78125 C 352.125 469.98116 350.97341 469.25465 350.71875 469 C 349.54502 467.82627 348.53699 465.41199 347.53125 464.40625 C 347.4002 464.2752 346.34343 464.17171 346.125 464.0625 L 340.46875 461.21875 C 340.38348 461.17611 340.28611 461.13659 340.15625 461.125 z "
       id="path4698" />
    <path
       style="fill:#ffb600;stroke:#000000;stroke-width:1px;stroke-linecap:butt;stroke-linejoin:miter;stroke-opacity:1;fill-opacity:1"
       d="M 335.6875 467.28125 C 334.82928 467.30763 333.85137 467.58293 332.6875 468.28125 C 328.21864 472.59791 337.00336 464.7154 330.9375 470.78125 C 326.98324 474.73552 325.94593 476.56671 332 479.59375 C 332.67093 479.92921 334.65856 479.47105 335.15625 479.96875 C 335.87092 480.68342 337.85412 481.66144 338.71875 482.09375 C 339.23627 482.35251 341.9243 484.51319 342.9375 483.5 C 344.51683 481.92067 344.91757 478.67618 346.46875 477.125 C 346.88939 476.70436 347.26458 475.57929 347.4375 475.125 C 346.99418 475.01183 345.08603 472.19926 342.9375 471.125 C 339.85371 469.5831 338.26216 467.2021 335.6875 467.28125 z M 347.4375 475.125 C 347.50083 475.14117 347.53125 475.10789 347.53125 475 C 347.53125 474.82491 347.51106 474.93175 347.4375 475.125 z M 336.09375 470.65625 C 336.26776 470.64912 336.43345 470.7011 336.59375 470.78125 C 337.33465 471.1517 341.61011 474.39135 341.875 474.65625 C 341.9467 474.72791 341.9467 476.3658 341.875 476.4375 C 341.78506 476.52744 340.8649 479.59375 340.8125 479.59375 C 340.31732 479.59375 339.30047 478.42548 339.0625 478.1875 C 338.89906 478.02406 338.21346 478.29423 338 478.1875 C 334.90525 476.64013 331.07041 475.03539 334.0625 471.59375 C 333.78021 471.96443 333.5143 472.4134 333.75 472.53125 C 334.22141 472.76696 334.23305 471.59641 334.46875 471.125 C 334.99595 471.01956 335.57171 470.67765 336.09375 470.65625 z "
       id="path4734" />
    <path
       style="fill:#800000;stroke:#000000;stroke-width:1px;stroke-linecap:butt;stroke-linejoin:miter;stroke-opacity:1;fill-opacity:1"
       d="m 394,261.36218 c 19.83006,1.07815 83.39944,5.80169 90,-14 2.73284,-8.19851 -0.89633,-53.10367 2,-56 1.21523,-1.21523 28.64203,-2.35797 30,-1 3.95396,3.95396 -0.49253,19.02988 1,25 3.75387,15.01547 7.7289,40.54221 1,54 -1.44235,2.8847 0.50668,7.49332 -2,10 -11.50267,11.50267 -31.34033,12 -51,12 -4.50573,0 -10.65253,-1.08687 -15,0 -4.66423,1.16606 -17.52255,0.26128 -21,2 -3.51565,1.75783 -8.57723,0.28862 -12,2 -14.68237,7.34119 -46,2.13216 -46,-14"
       id="path4765"
       inkscape:connector-curvature="0" />
    <path
       style="fill:#ffffff;fill-opacity:1;stroke:#000000;stroke-width:1px;stroke-linecap:butt;stroke-linejoin:miter;stroke-opacity:1"
       d="m 482,200.36218 c -4.26548,0.70636 -15.61445,18.38556 -5,29 3.44363,3.44363 5.94736,-2 7,-2 1.4344,0 3.67014,4.67014 4,5 1.61117,1.61117 6.3248,-4.6752 7,-4 2.06904,2.06904 -3.16176,-0.0809 1,2 0.72029,0.36015 5.27971,0.36015 6,0 1.07497,-0.53748 2,-4.20185 2,-3 0,9.82792 9.66914,7.33086 13,4 0.16786,-0.16786 1.41351,2 3,2 3.44995,0 6.69054,-1.38108 8,-4 0.74076,-1.48152 0,-5.30704 0,-7 0,-12.00396 -4.25499,-15.25499 -11,-22 -1.5,-1.5 -6.5,0.5 -8,-1 -1.3747,-1.3747 -3.6253,-1.3747 -5,0"
       id="path4911"
       inkscape:connector-curvature="0" />
    <path
       style="fill:#c8b7b7;stroke:#000000;stroke-width:1px;stroke-linecap:butt;stroke-linejoin:miter;stroke-opacity:1"
       d="M 491.53125 145 C 487.75697 145.07631 483.36563 147.64375 482 150.375 C 480.13864 154.09773 475.12885 156.1173 473 160.375 C 467.67974 171.01552 473.44943 200.82443 479 206.375 C 481.4784 208.8534 488.83248 206.2912 491 207.375 L 491.09375 205.4375 C 496.4817 207.54142 503.00092 208.22293 507.875 207 L 507.90625 207.375 C 510.07377 206.2912 517.42785 208.8534 519.90625 206.375 C 525.45682 200.82443 531.22651 171.01552 525.90625 160.375 C 523.7774 156.1173 518.76761 154.09773 516.90625 150.375 C 515.54062 147.64375 511.14928 145.07631 507.375 145 C 506.50401 144.98239 505.66688 145.09888 504.90625 145.375 L 504.90625 145.5 C 501.31197 145.54392 496.95436 146.03001 493.90625 147 L 494 145.375 C 493.23937 145.09888 492.40224 144.98239 491.53125 145 z "
       id="path4793" />
    <path
       style="fill:#f4d7d7;fill-opacity:1;stroke:#000000;stroke-width:1px;stroke-linecap:butt;stroke-linejoin:miter;stroke-opacity:1"
       d="m 184.41115,342.20297 c 1.48967,0.056 4.41303,1.65753 4.46899,0.16787 0.056,-1.48966 -5.8264,0.44827 -4.46899,-0.16787 1.38668,-0.62943 7.98001,-0.0241 8.93797,0.33575 4.15031,1.55886 11.08603,-5.65549 15.80932,-3.88142 1.26693,0.47586 3.15396,2.10959 3.88779,3.72627 3.57794,7.88251 -13.93711,5.74187 -8.2792,5.95441 5.36826,0.20165 21.34573,13.5547 20.43345,15.98356 -2.91339,7.7566 -15.61373,-4.99293 -18.20532,-3.81658 -0.36776,0.16693 5.87919,6.49136 6.45166,6.95529 3.22112,2.61038 4.42468,13.74735 -1.33028,11.58578 -1.06035,-0.39827 -12.32894,-11.41776 -13.0712,-9.44159 -0.7055,1.87833 2.7922,9.06464 2.72539,10.84307 -0.0571,1.5214 -2.80547,9.52102 -4.80473,8.77009 -6.03964,-2.26849 -3.52641,-18.16685 -6.52924,-16.80384 -1.86736,0.84762 -4.22347,10.49909 -10.59763,8.10496 -0.62999,-0.23663 1.09472,-8.94762 1.24634,-9.35129 1.59858,-4.25605 -3.64141,-12.86114 -5.61865,-17.21717"
       id="path4913"
       inkscape:connector-curvature="0" />
    <path
       style="fill:#800000;stroke:#000000;stroke-width:1px;stroke-linecap:butt;stroke-linejoin:miter;stroke-opacity:1;fill-opacity:1"
       d="m 191,238.36218 c -6.48798,0.14368 -27.10532,10.21065 -31,18 -5.62401,11.24801 -33.26714,42.46573 -29,51 1.92638,3.85275 3.63716,7.91147 5,12 1.40243,4.20729 8.4897,10.9794 11,16 3.77919,7.55837 14.90899,12.90899 19,17 2.51133,2.51134 16.51783,1.51784 19,4 1.77551,1.77551 0.917,-9.08299 0,-10 -3.33333,-3.33333 2.33333,-15.66666 -1,-19 -0.66667,-0.66666 -3.33333,0.66667 -4,0 -3.45938,-3.45937 -5.92893,-8.92893 -11,-14 -1.33333,-1.33333 -3.66667,-1.66666 -5,-3 -3.54206,-3.54205 -4.27599,-9.27598 -7,-12 -1.54896,-1.54895 5.46444,-7.46444 6,-8 6.05185,-6.05185 9.28261,-9.6413 12,-11"
       id="path4894"
       inkscape:connector-curvature="0" />
    <path
       style="fill:#ffffff;fill-opacity:1;stroke:#000000;stroke-width:1px;stroke-linecap:butt;stroke-linejoin:miter;stroke-opacity:1"
       d="m 184.8783,321.56538 c 0.52037,-0.14047 -4.05673,-3.04937 -10.75124,-0.64089 -4.35572,1.56705 2.52502,6.37476 2.39375,6.65357 -0.0313,0.0664 -2.50913,-1.28275 -2.7142,-1.27795 -8.00962,0.18907 -4.96246,5.0055 -3.83384,8.14259 0.36946,1.02694 -3.66384,1.31813 -3.99214,1.43625 -4.70862,1.69402 1.3465,7.9202 1.54179,8.46303 0.2081,0.57845 -5.20186,2.25131 -4.84411,3.24571 0.39896,1.10893 2.79399,1.49974 3.19295,2.60866 0.18592,0.51679 -5.29353,4.08528 -4.31259,6.81187 0.53364,1.48329 8.48569,8.21926 10.90955,7.34723 15.57199,-5.60232 43.35996,-28.21769 12.41008,-42.79007 z"
       id="path4896"
       inkscape:connector-curvature="0" />
  </g>
</svg>
