<?xml version="1.0" encoding="UTF-8" standalone="no"?>
<!-- Created with Inkscape (http://www.inkscape.org/) -->

<svg
   xmlns:dc="http://purl.org/dc/elements/1.1/"
   xmlns:cc="http://creativecommons.org/ns#"
   xmlns:rdf="http://www.w3.org/1999/02/22-rdf-syntax-ns#"
   xmlns:svg="http://www.w3.org/2000/svg"
   xmlns="http://www.w3.org/2000/svg"
   xmlns:sodipodi="http://sodipodi.sourceforge.net/DTD/sodipodi-0.dtd"
   xmlns:inkscape="http://www.inkscape.org/namespaces/inkscape"
   width="744.09448819"
   height="1052.3622047"
   id="svg9393"
   version="1.1"
   inkscape:version="0.48.3.1 r9886"
   sodipodi:docname="seaport.svg"
   inkscape:export-filename="/home/substack/projects/substack.net/static/images/seaport.png"
   inkscape:export-xdpi="98.88942"
   inkscape:export-ydpi="98.88942">
  <defs
     id="defs9395" />
  <sodipodi:namedview
     id="base"
     pagecolor="#ffffff"
     bordercolor="#666666"
     borderopacity="1.0"
     inkscape:pageopacity="0.0"
     inkscape:pageshadow="2"
     inkscape:zoom="1"
     inkscape:cx="332.34294"
     inkscape:cy="778.02703"
     inkscape:document-units="px"
     inkscape:current-layer="layer1"
     showgrid="false"
     inkscape:window-width="1364"
     inkscape:window-height="766"
     inkscape:window-x="0"
     inkscape:window-y="0"
     inkscape:window-maximized="0" />
  <metadata
     id="metadata9398">
    <rdf:RDF>
      <cc:Work
         rdf:about="">
        <dc:format>image/svg+xml</dc:format>
        <dc:type
           rdf:resource="http://purl.org/dc/dcmitype/StillImage" />
        <dc:title></dc:title>
      </cc:Work>
    </rdf:RDF>
  </metadata>
  <g
     inkscape:label="Layer 1"
     inkscape:groupmode="layer"
     id="layer1">
    <path
       style="fill:#38a8c0;fill-opacity:1;stroke:#ffffff;stroke-width:0.41227388px;stroke-linecap:butt;stroke-linejoin:miter;stroke-opacity:0"
       d="m 383.82906,215.04136 c -1.55566,-0.0254 -3.26716,0.35952 -5.0256,1.15096 -7.11464,-0.77082 -13.60271,2.78834 -13.17313,11.15653 -2.73432,9.36899 -4.75318,19.03248 -5.66013,28.83957 -2.67322,13.929 -4.49269,28.07485 -7.6526,41.91873 4.22407,2.43888 10.01271,0.0268 14.77219,0.39238 5.76464,-0.62323 2.61716,-10.47432 4.4418,-15.26339 1.13863,-11.67803 -0.60474,-18.79492 6.43427,-19.12174 11.9185,-0.822 7.29439,6.39973 8.56634,16.34896 -0.30603,5.72117 -0.15317,13.0485 0.15229,16.37512 2.44741,2.9471 12.89717,2.16625 18.75712,1.73952 4.59377,-4.04213 -0.58167,-12.24153 -0.78684,-17.99693 -2.77986,-6.96178 -3.13966,-14.62405 -6.34543,-21.42368 -2.0694,-10.80994 -5.1412,-23.8592 -7.7922,-35.79768 0.19706,-5.50033 -2.71253,-8.25343 -6.68808,-8.31835 z m -4.94946,16.06122 c 2.41522,1.36558 3.06764,4.36368 3.90879,6.8404 1.25434,4.37251 1.57352,8.99215 1.29448,13.52386 -1.01255,1.48728 -3.2777,0.71355 -4.78446,1.2556 -1.70847,0.0774 -4.81226,1.36929 -4.51795,-1.54334 -0.0653,-4.63926 0.53768,-9.29266 1.84017,-13.73312 0.44702,-1.81147 1.10852,-3.56043 1.70058,-5.32323 0.15783,-0.35216 0.34299,-0.70173 0.55839,-1.02017 z"
       id="path9906"
       inkscape:connector-curvature="0" />
    <path
       style="fill:#2595ad;fill-opacity:1;stroke:#ffffff;stroke-width:0.36297324px;stroke-linecap:butt;stroke-linejoin:miter;stroke-opacity:0"
       d="m 316.77103,296.61701 c 0.83159,-8.33017 -0.56154,-13.99083 -0.0734,-22.33708 -0.46737,-6.66624 -1.30546,-13.30629 -1.25029,-20.01626 -0.63018,-9.17618 -0.75207,-18.40062 -0.64983,-27.60967 -1.66327,-4.45274 2.73758,-11.97243 6.69992,-10.06311 4.2756,0.93033 9.91671,0.0802 15.49334,-0.53229 2.28142,0.22535 7.41676,-1.33396 9.33581,-1.29152 2.98533,-0.545 6.29914,-1.30118 9.03353,0.88122 1.89542,4.51087 2.45434,7.01053 1.48344,12.01921 -4.08405,2.35884 -8.65229,1.76178 -12.96502,2.64291 -2.48839,0.26859 -6.86672,1.02779 -12.17713,0.70463 -7.40456,1.12509 -6.21052,5.55529 -5.15807,12.1325 0.59905,3.3241 -1.53626,10.10501 5.48952,9.22219 3.30782,-0.8991 6.69903,0.27173 9.99981,-0.87079 3.98035,-1.20224 4.38925,-0.14322 8.38554,-1.29961 3.96504,0.47653 2.81064,3.79048 2.748,7.40879 0.38643,6.12128 -1.58575,5.7271 -5.284,6.36062 -4.46781,0.0124 -6.51414,0.6291 -9.6349,0.63391 -3.05223,0.2765 -7.65964,-1.42491 -9.50932,2.05973 -0.0347,3.55432 0.1754,12.46303 0.31983,16.87075 0.99458,4.9388 6.22749,3.91195 9.01995,3.82025 3.14291,0.56824 10.23996,-0.58855 12.25705,-0.7203 3.11314,-0.42495 4.37914,-1.15505 5.96621,0.48394 0.13026,2.42726 0.55199,7.87229 0.47756,9.68641 0.36519,2.83603 -3.07345,2.75832 -5.99508,2.43925 -6.48274,0.55617 -5.11627,0.01 -11.60442,0.34885 -5.3128,0.24024 -13.38927,0.12049 -18.69923,0.66354 -1.98921,0.22099 -3.8011,0.0417 -3.70881,-3.63807 z"
       id="path9886"
       inkscape:connector-curvature="0"
       sodipodi:nodetypes="cccccccccccccccccccccccccccc" />
    <path
       style="fill:#35c4e2;fill-opacity:1;stroke:#ffffff;stroke-width:0.42692035px;stroke-linecap:butt;stroke-linejoin:miter;stroke-opacity:0"
       d="m 309.90675,239.72983 c 0.24172,-7.79683 0.38246,-19.26351 -8.7537,-24.39476 -6.94222,-2.70744 -14.08228,-2.70743 -20.69712,-1.15045 -6.774,0.7703 -15.87276,12.0127 -16.95702,16.89489 -2.45701,11.00213 1.66705,16.30215 5.97503,20.75193 3.22472,3.41787 8.55266,6.38771 17.34239,9.21577 5.1604,2.68184 10.91484,7.5179 12.1441,15.0278 -1.56505,13.07321 -6.75495,11.58309 -11.02865,12.28236 -5.75556,-0.11537 -9.06488,-6.07459 -12.45988,-8.28745 -2.02456,-3.49115 -3.61593,-8.55057 -4.08504,-14.0649 0.51386,-7.61086 -14.81961,-8.54791 -13.8523,1.11216 1.34744,9.48478 2.09764,11.07819 6.77613,19.28378 3.88301,8.15014 7.89969,11.90333 16.18594,13.11584 5.80412,0.57126 14.0794,2.10022 19.35879,-1.44563 5.38929,-3.01738 16.15683,-13.1772 13.93023,-24.88057 -0.61127,-6.7867 -5.94262,-15.7829 -12.00312,-18.31409 -4.67716,-3.88379 -9.81655,-1.7848 -21.97009,-11.06707 -7.66686,-4.70418 -3.94752,-15.26164 5.21888,-15.2406 8.69078,0.40072 11.76768,7.6747 12.01636,12.82865 0.51617,4.05758 12.91365,3.53453 12.85907,-1.66766 z"
       id="path9869"
       inkscape:connector-curvature="0"
       sodipodi:nodetypes="cccccccccccccccccccc" />
    <path
       style="fill:#35c4e2;fill-opacity:1;stroke:#ffffff;stroke-width:0.41853338px;stroke-linecap:butt;stroke-linejoin:miter;stroke-opacity:0"
       d="m 423.00856,217.68978 c -4.51998,0.16072 -9.06864,1.50489 -13.56891,0.41278 -3.90428,-0.13549 -4.90665,4.35517 -5.52934,7.38639 -1.64948,7.18319 -0.16468,14.57456 0.0551,21.81305 -0.3402,5.72466 -0.54721,11.5363 0.70805,17.16839 0.57366,5.96784 1.00082,11.96114 0.70957,17.95418 0.2399,5.19747 1.56168,10.32108 1.3979,15.53216 1.16547,4.1871 6.47684,2.7461 9.70727,2.87237 3.68065,0.0545 5.66894,-3.89928 5.3125,-7.15731 -0.91299,-6.1523 -0.15642,-12.63282 -2.54806,-18.53653 -0.47422,-2.9449 -0.40337,-6.53974 1.65268,-8.9457 2.90365,-2.39717 7.0197,-0.77989 10.38612,-2.16102 6.51424,-1.02454 13.76693,-3.59489 16.80176,-9.9537 1.92036,-4.54748 2.48605,-9.56514 2.88746,-14.44322 0.0994,-5.60351 -0.95424,-11.5695 -4.36823,-16.13697 -3.90786,-3.99254 -9.77923,-5.09938 -15.12035,-5.63323 -2.82605,-0.13926 -5.65708,-0.0806 -8.48351,-0.17164 z m 5.22901,13.52387 c 3.19171,0.0943 6.74353,1.2667 8.18718,4.54851 1.54578,2.81788 3.05045,6.1556 1.53064,9.25039 -0.0609,2.96969 -2.65887,5.08286 -5.27745,6.10446 -1.57838,0.60166 -4.07102,2.06555 -7.2887,2.0305 -2.84216,-0.26706 -8.11292,0.37532 -8.24726,-3.66474 -0.57827,-3.07747 -1.57367,-6.12978 -1.1971,-9.31823 0.11598,-3.04484 0.45141,-6.72815 4.14987,-7.15437 3.08274,-1.3737 4.8824,-1.25128 8.14282,-1.79652 z"
       id="path9958"
       inkscape:connector-curvature="0"
       sodipodi:nodetypes="cccccccccccccccccccccccccc" />
    <path
       style="fill:#35c4e2;fill-opacity:1;stroke:#ffffff;stroke-width:0.39077631px;stroke-linecap:butt;stroke-linejoin:miter;stroke-opacity:0"
       d="m 468.34188,217.65535 c -7.98407,0.92558 -14.20759,7.92429 -18.72189,14.98873 -3.364,6.23535 -3.48245,13.8684 -3.96786,20.96589 -0.0588,5.91644 1.04806,11.72238 1.08317,17.64381 -0.22627,8.7203 3.57876,17.03158 8.58563,23.34631 3.38341,3.88141 8.49224,3.41246 12.80431,4.7085 5.13269,1.57375 9.47225,-2.19265 13.9331,-4.38152 5.48624,-3.46795 6.66546,-11.21242 7.9129,-17.60455 0.4741,-3.13208 1.41352,-8.39226 1.16299,-12.85683 0.18319,-3.2399 0.83301,-8.26322 0.94636,-12.39905 0.0534,-4.07555 -0.91966,-9.98527 -1.43665,-14.0078 -0.95347,-5.15582 -2.62719,-8.66616 -5.45008,-12.9876 -2.93319,-4.86526 -8.1971,-4.86944 -12.62189,-6.63114 -0.78999,1.03933 -3.93622,-1.46894 -4.17308,-0.41854 l -0.057,-0.36621 z m 0.36486,17.87922 c 2.01783,0.0474 4.20421,1.36909 5.55271,2.78586 0.65376,0.68686 1.58711,0.86846 2.23477,1.8834 6.00086,9.40403 5.95646,17.95334 3.0899,29.48045 -0.84511,3.39843 -1.5196,6.866 -3.54598,9.40393 -6.99921,8.76609 -13.4119,4.29476 -16.72655,-5.63713 -1.00646,-3.01573 -0.26096,-8.69286 -1.08318,-11.15653 -0.63841,-1.91291 -0.54963,-10.3787 -0.0342,-12.45137 0.44681,-1.79673 0.4561,-3.58763 0.87794,-5.28398 1.39457,-5.60787 5.41981,-8.20484 7.70768,-8.60609 0.59921,-0.31057 1.2543,-0.43434 1.92691,-0.41854 z"
       id="path9985"
       inkscape:connector-curvature="0" />
    <path
       style="fill:#1dacca;fill-opacity:1;stroke:#ffffff;stroke-width:0.41853338px;stroke-linecap:butt;stroke-linejoin:miter;stroke-opacity:0"
       d="m 500.21147,217.79799 c -2.83316,-0.0123 -5.49626,0.31691 -7.31126,2.1319 -2.73028,2.7303 -2.23653,9.28919 -2.23653,13.68081 0,0.9882 0.31132,2.5582 0,3.49214 -0.50686,1.52058 -0.29542,12.04904 0.24851,13.68081 0.18,0.54001 -0.0918,1.03397 -0.24851,1.5041 -0.16654,0.4996 0.0448,7.89608 0.24851,8.71073 1.10548,4.42196 0.7455,9.53198 0.7455,14.17782 l 0,19.16098 c 0,0.79151 -0.068,4.9152 0.24851,5.23167 3.99925,3.99925 4.64056,2.4729 8.71073,2.48504 1.31029,0 5.78288,0.11391 6.46111,-1.24251 0.19573,-0.39147 1.27244,-3.71073 0.75859,-4.22458 -1.06753,-1.06753 -1.40741,-12.755 -2.49811,-14.93641 -0.72311,-1.44619 0,-5.35217 0,-6.9712 0,-1.99084 -0.49843,-5.23026 0.7455,-6.47419 0.38802,-0.38802 0.50679,-1.11662 1.2556,-1.49103 1.34081,-0.67039 0.95653,-0.0904 2.49432,-0.20849 2.01485,7.24834 4.82811,16.21851 7.45665,24.10414 0.86188,2.58566 2.39623,8.37152 4.22684,9.95324 1.13466,0.9804 6.04872,1.24253 8.21373,1.24253 1.39194,0 4.87983,0.11502 5.47979,-1.49255 0.88914,-2.38245 -1.5915,-6.92288 -1.98766,-7.71519 -3.74224,-7.48448 -6.04821,-16.30793 -9.96631,-24.14414 -0.71164,-1.42325 -1.18473,-3.13906 -1.68723,-4.81314 0.83539,-0.23057 1.65621,-0.5142 2.43273,-0.90247 0.67651,-0.33825 1.0761,-1.15276 1.75261,-1.49101 4.36883,-2.18442 6.33587,-7.06634 7.96521,-11.95436 0.55586,-1.66755 0.70572,-3.39949 1.49103,-4.97009 0.57918,-1.15835 0.31385,-2.94269 0.74551,-4.23765 0.45263,-1.35791 -0.45088,-7.12744 -0.99401,-8.21372 -0.16841,-0.33678 0.12065,-0.88055 0,-1.24252 -0.54004,-1.62011 -1.05168,-4.03373 -2.24962,-5.23166 -5.72538,-5.72538 -19.08635,-7.45512 -27.37469,-7.45512 -1.66704,0 -3.42715,-0.13656 -5.12705,-0.14388 z m 9.78322,12.52984 c 4.64207,-0.0713 9.93948,1.474 11.40503,3.89759 0.7037,1.16372 1.73748,2.26055 2.28886,3.55754 0.30366,0.7143 0.28765,1.76208 0.6932,2.43273 0.4889,0.80851 1.06788,4.19872 0.66703,5.19242 -0.29218,0.72432 -0.28998,1.96687 -0.79782,2.56352 -3.79174,4.45471 -11.37955,8.494 -17.74844,5.92486 -0.97335,-0.39264 -2.05807,0.0963 -2.78586,-0.52316 -0.95319,-0.81134 -1.60361,-17.82106 -0.88939,-20.4035 1.12793,-1.78602 3.99124,-2.59324 7.16739,-2.642 z"
       id="path10018"
       inkscape:connector-curvature="0"
       sodipodi:nodetypes="sssssssssscsssssscsssssscsssssssssssssssssscs" />
    <path
       style="fill:#278498;fill-opacity:1;stroke:#ffffff;stroke-width:0.41853338px;stroke-linecap:butt;stroke-linejoin:miter;stroke-opacity:0"
       d="m 571.55209,219.69415 c -8.6601,0.29065 -20.36113,-0.17812 -29.03269,-0.0577 -4.81315,-0.4166 -10.14743,-1.99343 -11.82409,3.22348 -0.76667,5.11564 -1.00069,11.72748 4.51152,10.10798 3.90943,-0.20079 7.63601,1.12395 11.29856,1.03167 0.47004,3.83874 0.20836,8.05521 0.28073,12.05499 -0.64353,10.8646 1.36096,21.6619 0.80293,32.52258 0.0985,7.80801 -0.0613,15.64913 0.92859,23.41219 3.87184,1.18607 8.62885,1.91897 12.69243,1.16613 4.55624,-3.55243 0.0261,-10.1355 0.91655,-15.08437 -0.0579,-7.66249 -0.29467,-14.68803 -2.17518,-22.11309 -0.51599,-4.86826 0.1673,-10.4567 -0.91948,-15.24195 -0.62778,-4.17324 -0.33921,-12.63369 -1.53015,-16.75945 2.00922,-0.32514 4.35822,-0.48422 8.15974,-0.84126 3.34049,-0.61181 5.41533,-0.69148 9.61643,-1.20953 6.27702,-2.58446 4.44215,-14.19792 -3.72589,-12.21171 z"
       id="path10039"
       inkscape:connector-curvature="0"
       sodipodi:nodetypes="cccccccccccccccc" />
    <path
       style="fill:#e6dfdf;fill-opacity:1;stroke:#ffffff;stroke-width:0.43996882px;stroke-linecap:butt;stroke-linejoin:miter;stroke-opacity:0"
       d="m 153.90663,296.30202 -1.75987,-8.3594 18.47868,-1.75988 -1.75987,-14.51897 31.67775,-3.51974 0.43996,14.95894 11.43918,0 0.87995,-9.23935 35.19751,-1.75987 -2.63982,16.27883 7.47947,-10.55924 0,7.0395 6.59953,-5.71959 -0.43996,7.47946 8.79937,-7.0395 0.43996,7.91944 11.87916,-5.27963 -1.3199,10.55926 10.55925,3.51974 z"
       id="path5641"
       inkscape:connector-curvature="0" />
    <path
       style="fill:#c9baba;fill-opacity:1;stroke:#ffffff;stroke-width:0.43996882px;stroke-linecap:butt;stroke-linejoin:miter;stroke-opacity:0"
       d="m 138.19345,298.62758 23.2555,-5.97102 -1.25706,-9.74216 36.1403,-1.57132 0,5.97102 28.2837,2.82835 -0.31426,-6.91378 25.7696,0.94278 0.31426,10.3707 4.71396,0.31426 -0.31427,-6.91379 20.42712,0.94279 0.62854,6.28528 20.42712,3.14261 z"
       id="path5625"
       inkscape:connector-curvature="0" />
    <path
       inkscape:connector-curvature="0"
       style="fill:#647175;fill-opacity:1;stroke:#ffffff;stroke-width:0.25120983000000002px;stroke-linecap:butt;stroke-linejoin:miter;stroke-opacity:0"
       d="m 306.89203,184.1784 c -0.13827,-0.003 -0.15349,0.069 -0.12374,0.17874 -0.20247,0.0287 -1.72693,0.40508 -2.06236,0.5637 -0.36849,0.17427 -2.25585,0.71588 -2.6673,0.82495 -1.24352,0.32959 -2.86865,0.7982 -4.53719,1.15492 -1.19896,0.25632 -4.47174,1.03592 -4.81216,1.14117 -0.95867,0.29638 -2.07025,0.3598 -3.02478,0.81119 -0.52831,0.24985 -3.19078,0.88566 -3.91848,1.04492 -1.46759,0.32123 -3.18093,0.71541 -4.55092,1.16867 -0.97197,0.32158 -2.26208,0.56103 -2.79106,0.8112 -0.45076,0.21317 -2.54535,0.66296 -3.02478,0.81118 -0.64925,0.20073 -2.05206,0.35192 -3.28602,0.81121 -0.80468,0.2995 -2.39484,0.21398 -3.39601,0.68744 -0.98149,0.46416 -3.28323,0.8395 -4.30345,1.15491 -1.1989,0.37066 -3.99553,1.22412 -5.56835,1.51241 -1.3882,0.25444 -2.04194,0.30171 -3.27227,0.6737 -1.34376,0.40629 -3.18597,0.77918 -4.1797,1.05867 -1.2582,0.35387 -3.51051,1.07517 -4.81217,1.51239 -0.95114,0.31949 -1.90978,0.0633 -2.51606,0.48122 -0.0415,-0.0267 -0.0655,-0.047 -0.10992,-0.0825 -0.60264,1.13661 -1.25832,2.72502 -1.47115,3.35477 -0.0238,0.0513 -0.0458,0.0997 -0.0687,0.15123 -0.0535,-0.0323 -0.12764,-0.0688 -0.165,-0.0962 -1.17293,-0.86217 -4.75816,-3.12366 -5.26587,-3.13478 -0.33496,-0.007 -1.91965,-1.12258 -2.47483,-0.5912 -0.60225,0.57641 -1.22927,1.70932 -1.80113,2.79104 -1.29019,1.27098 -2.57059,2.56887 -3.07977,3.16228 -0.72813,0.8486 -2.61413,2.87117 -3.4785,3.69849 -0.89503,0.85663 -1.48852,1.30375 -2.30984,2.08985 l -2.0486,1.96611 c -1.50995,1.44519 -2.44197,3.20942 -3.98721,4.68842 l -3.86348,3.67099 -3.0798,2.95604 c -0.3106,0.29729 -1.64995,1.50485 -2.04859,1.84237 -1.16376,0.9853 -2.02984,1.88173 -2.43359,2.32357 -0.78057,0.85425 -2.51062,2.63929 -3.49224,4.00098 -2.2e-4,-0.0301 -0.0142,-0.10052 -0.0137,-0.12374 0.015,-0.68669 0.54066,-6.3238 0.31622,-6.55829 -0.0691,-0.0722 -4.01516,-0.74619 -4.24844,-0.98993 -0.97991,-1.02381 -7.2913,-1.98868 -8.11192,-2.84605 -0.0868,-0.0907 -1.491,-0.64233 -1.75987,-0.38497 -0.0391,0.0373 -0.071,0.0711 -0.11005,0.11005 -0.14801,-0.0291 -0.24642,0.21955 -0.26124,0.23372 -0.20586,0.19705 -2.84896,0.57415 -3.62974,0.72871 -0.67794,0.13421 -2.97527,0.53163 -3.97346,1.00368 -0.89183,0.42173 -2.29597,0.4799 -3.05229,0.74245 -0.80618,0.27984 -4.67627,1.02465 -5.5821,1.25116 -0.91619,0.22908 -3.38641,0.44768 -4.11096,1.14116 -0.005,0.005 0.16592,4.82705 0.41247,5.34838 0.10724,0.22667 -0.19426,0.8982 -0.0275,1.07242 0.7201,0.75238 0.33198,3.46795 0.46746,3.21726 0.13726,0.003 0.26249,-0.0121 0.39872,-0.0137 -0.0542,0.0828 -0.0634,0.14416 -0.0412,0.17873 0.54981,0.57444 4.29018,0.62182 5.43087,0.94868 -0.27683,0.0299 -0.54791,0.0535 -0.7837,0.165 -0.59007,0.27906 -1.25747,0.13219 -1.89737,0.32997 -0.52978,0.16378 -1.08059,0.25772 -1.58113,0.41248 -0.53211,0.16451 -3.29002,0.51996 -3.83598,0.6737 0.1,0.58046 0.15006,1.27995 0.26122,1.75987 0.17792,0.76797 0.0534,1.79487 0.53622,1.64989 0.0395,-0.0121 0.0871,-0.0169 0.1375,-0.0275 0.3901,0.0107 1.21873,0.0989 1.55363,0.055 0.7778,-0.007 1.29736,0.008 1.95237,-0.0137 0.58445,-0.0197 1.54522,-0.18463 2.37858,-0.34372 0.0664,0.5108 0.25214,1.20319 0.24748,1.41615 -0.001,0.0707 -0.044,0.40771 0,0.45372 0.0121,0.0121 0.12052,0.001 0.28872,-0.0137 -0.004,0.004 -0.0137,0.024 -0.0137,0.0275 -4.2e-4,0.0193 1.8307,0.37334 2.00736,0.35747 0.15182,0.003 2.27181,-0.21047 2.8323,-0.34372 0.44421,-0.10563 1.61873,-0.12522 1.9936,-0.30248 0.31665,-0.14974 1.60795,-0.23803 2.1861,-0.34372 0.0384,-0.007 0.0841,-0.0205 0.12374,-0.0275 4.3e-4,0.0778 4.3e-4,0.25875 0,0.31622 -0.0121,1.24617 0.52641,6.47862 0.53621,7.31448 0.0121,1.01889 0.27314,10.8035 0.56371,12.45661 0.29477,1.67703 0.1701,8.27139 0.54996,10.24304 0.11985,0.62209 0.19176,1.78459 0.23374,3.05227 l -1.8287,0.0824 c 0.15611,0.65246 -0.27506,2.02758 0.1925,2.51608 0.0121,0.0134 0.81146,-0.0582 0.96243,-0.055 0.24908,0.005 0.49658,0.001 0.74244,0 0.0107,0.98234 -0.005,1.93507 0,2.66731 0.0142,1.90777 0.52854,7.20494 0.52247,7.82319 -0.0107,1.15515 0.12079,5.99566 0.30247,8.51066 l 4.15221,-0.0275 c 0.0513,-0.95347 0.09,-2.02105 0.0825,-2.50232 -0.10804,-1.38683 -0.0243,-2.54529 -0.23374,-3.97346 -0.0981,-1.31546 -0.0938,-3.04207 -0.11005,-3.27228 -0.11555,-1.63791 -0.19355,-3.1664 -0.16499,-3.84972 0.0313,-0.74593 0.009,-3.3523 -0.0275,-3.616 -0.0888,-0.55581 -0.16054,-1.26705 -0.20622,-1.93861 0.44228,-0.0158 0.87179,-0.023 1.2924,-0.0137 0.38717,0.008 2.16809,-0.24074 3.39601,-0.17874 1.09784,0.0554 3.4045,-0.1796 4.78466,-0.27499 1.10641,0.0251 2.54393,-0.0842 5.00464,-0.37122 0.005,0.24132 0.007,0.48662 -0.0275,0.72869 -0.0838,1.17454 -0.0907,2.58052 -0.0687,3.67099 0.001,0.40529 -0.19612,4.11964 -0.15124,5.11464 0.0305,0.67464 -0.25137,4.53866 -0.24748,5.47212 0.005,1.14468 -0.0186,2.47791 0.0137,3.58849 -0.005,0.25288 -0.0621,0.77896 -0.11005,1.30616 l 4.06974,-0.0413 c 0.0346,-1.38684 0.15328,-3.58915 0.15123,-4.44093 -4.3e-4,-0.21248 0.18483,-2.58179 0.055,-1.95236 -0.0364,0.17665 0.13879,-2.5563 0.23374,-2.94228 -0.0628,-0.56879 0.0243,-3.17643 0.055,-4.11096 0.20092,-0.72595 0.0727,-2.37785 0.0412,-2.79106 -0.02,-0.26292 -0.0134,-0.69258 0,-1.16866 1.21285,-0.0205 2.87,-0.0593 4.01472,-0.21999 1.09053,-0.0242 3.81179,-0.0938 5.47211,-0.20624 -0.0846,1.15487 -0.17909,2.44817 -0.20625,3.5335 -0.0258,1.03723 -0.38036,3.39217 -0.37122,4.57843 0.007,0.93684 -0.53935,4.44263 -0.56371,5.55461 -0.0225,1.02727 -0.24362,2.01476 -0.32997,3.03853 l -0.0962,1.05867 4.97714,-0.0412 c 0.0121,-0.18023 0.039,-0.44838 0.0412,-0.54996 0.0157,-0.71322 0.29865,-1.60396 0.31622,-2.40607 0.009,-0.43247 0.35744,-3.08681 0.52247,-3.24478 0.18232,-0.1745 0.19067,-4.92681 0.20624,-5.63709 0.008,-0.36534 0.18022,-0.68193 0.21998,-1.07243 0.11743,-1.05355 0.36189,-3.89894 0.48122,-5.19712 0.0301,0.004 0.0664,0.009 0.0962,0.0137 1.36105,0.06 2.81751,-0.0683 4.13845,-0.0825 1.5834,-0.15306 2.56308,-0.20181 4.15222,-0.32998 1.18187,-0.2063 2.81492,-0.0372 4.24844,-0.16498 0.003,0.12052 -0.005,0.23587 -0.055,0.32998 -0.11528,0.21856 -0.20091,0.58219 -0.20622,0.82494 -0.15889,0.97468 -0.008,2.09724 -0.43998,2.91478 -0.14266,0.27035 -0.0726,0.65553 -0.21998,0.93494 -0.11394,0.21602 -0.0215,0.53633 -0.13749,0.75619 -0.10589,0.20075 0.0922,0.56921 -0.0137,0.76996 -0.33336,0.63175 -0.14748,1.73383 -0.49496,2.39232 -0.1533,0.2905 0.0558,0.78434 -0.0962,1.07244 -0.28758,0.54495 -0.25559,2.30279 -0.37122,2.91478 -0.12522,0.66294 -0.18374,2.65424 -0.26124,3.10728 -0.0743,0.43432 -0.33218,1.54348 -0.54997,2.55732 l 4.20721,-0.0275 c 0.17458,-1.15564 0.32994,-2.37011 0.45372,-2.48857 0.11743,-0.11246 -0.0652,-0.57908 0.0137,-0.72869 0.46168,-0.87491 0.29239,-3.29863 0.60496,-3.89098 0.13179,-0.6945 0.29756,-2.35429 0.42622,-3.23102 0.13353,-0.55693 0.0499,-1.21265 0.30247,-1.69113 0.52778,-1.00015 0.3956,-2.71189 0.6462,-3.79473 0.20774,-0.89757 0.24444,-1.86936 0.34374,-2.8323 1.76035,-0.11341 2.66694,0.62356 2.70855,-1.51239 0.35366,-2.03382 -1.12362,-1.44838 -2.21359,-1.36115 0.15732,-0.63717 0.39217,-1.41966 0.39872,-1.71863 0.007,-0.31722 0.50367,-3.28592 0.6187,-3.39601 0.2077,-0.19879 -0.0817,-2.87204 0.15125,-3.31352 0.14877,-0.28197 0.0305,-1.33109 0.21997,-1.51239 0.30669,-0.29354 0.21998,-1.89126 0.39873,-2.06235 0.62585,-0.59903 0.68144,-5.57949 1.23741,-6.79202 -0.0903,-0.0944 0.38749,-1.63214 0.39872,-2.14485 0.0136,-0.61735 0.24969,-2.09396 0.50872,-2.58482 0.21527,-0.40796 -0.17815,-1.67774 0.13749,-1.97986 0.29803,-0.28526 0.15827,-1.28581 0.48122,-1.59489 0.1322,-0.12655 -0.0752,-0.64283 0.0137,-0.81119 0.14949,-0.2833 -0.0342,-0.71653 0.11005,-0.98992 0.93049,-1.76334 0.2247,-4.55685 1.30617,-6.3383 0.009,-0.43936 1.03273,-7.38944 1.14117,-7.49322 0.42649,-0.43999 0.68333,-3.08733 0.92118,-3.94598 -0.0964,-0.0318 -0.22692,-0.0635 -0.32998,-0.0962 -0.0107,-0.0121 -0.0259,-0.0397 -0.0275,-0.0412 -0.15227,-0.1591 -0.36656,-0.27926 -0.60496,-0.37122 0.033,-0.60216 0.0297,-1.23186 0.0412,-1.75988 0.0107,-0.4907 -0.005,-2.14504 -0.0137,-3.68474 0.0474,-0.10818 0.0933,-0.22118 0.1375,-0.32998 0.19739,-0.37411 0.7061,-1.35281 0.97618,-2.03485 0.26145,-0.66024 0.94438,-2.15339 1.18241,-2.81855 0.44768,-0.96702 0.94756,-1.75002 1.53989,-2.90104 0.47675,-0.90347 1.31601,-2.54796 1.64989,-3.45102 0.2372,-0.70768 1.10538,-2.18162 1.45739,-3.24477 0.56329,-1.24072 1.04864,-1.48157 1.18242,-2.6673 0.68945,-0.16833 1.44676,-0.36223 1.66363,-0.35748 0.18338,0.004 4.34734,-1.18908 4.79841,-1.40239 0.35616,-0.16844 1.87378,-0.18898 2.02111,-0.33 0.25905,-0.24795 5.03654,-1.01307 6.06331,-1.49863 0.36147,-0.17094 0.87785,-0.0768 1.25117,-0.21998 1.39032,-0.53322 3.69359,-0.91466 4.56468,-1.15492 1.06365,-0.29339 1.9933,-0.44874 3.02478,-0.56371 1.39762,-0.35026 4.05714,-0.92937 5.29337,-1.14117 0.21497,-0.0368 0.53454,0.078 0.74246,0.0137 1.18816,-0.36732 1.997,-0.57041 3.17602,-0.93492 0.3461,-0.10696 1.94597,-0.30115 2.26859,-0.45371 0.66779,-0.31582 2.71356,-0.58949 3.40976,-0.8112 1.207,-0.3844 2.90831,-0.31276 5.18338,-1.38865 0.48461,-0.22917 2.97043,-0.48532 4.04221,-0.92119 1.44446,-0.58742 3.45064,-0.56954 4.92216,-1.14117 0.85258,-0.33119 3.07939,-0.57625 4.79841,-1.2924 0.53996,-0.22496 2.30055,-0.25107 2.29609,-0.41248 0.0941,-0.0181 0.17915,-0.029 0.20622,-0.055 0.11944,-0.11421 0.26773,-1.36196 0.12374,-1.5124 -0.37055,-0.38716 -0.90999,-0.85037 -1.3199,-1.27865 -0.20524,-0.21444 -0.69036,-0.36193 -0.96243,-0.6462 l -1.99354,-2.07611 c -0.40161,-0.41961 -0.93879,-0.61554 -1.4024,-1.09993 -0.44164,-0.4614 -2.09936,-2.35389 -2.59856,-2.36483 z m 0.35747,3.34101 c 0.004,-8e-4 0.009,8e-4 0.0137,0 0.0572,0.051 0.12012,0.0906 0.16498,0.13749 0.42732,0.44647 1.34877,1.59917 1.89737,2.17235 0.11032,0.11529 0.27097,0.24729 0.43996,0.37122 -0.19315,0.0401 -0.37744,0.0797 -0.41246,0.0962 -0.53146,0.25133 -1.1126,0.10991 -1.63613,0.35747 -1.11018,0.52501 -6.58238,1.7366 -7.08076,2.21361 -0.0884,0.0845 -1.92646,0.42941 -2.26859,0.5912 -0.53802,0.25443 -1.36394,-0.046 -1.89735,0.20624 -0.581,0.27476 -4.02637,1.03996 -4.42719,1.03117 -0.62453,-0.0137 -3.59756,0.86151 -3.91847,1.16867 -0.0165,0.0158 -0.18088,0.0605 -0.41247,0.12374 -3.5e-4,-0.005 0.001,-0.0121 0,-0.0137 -0.0427,-0.0447 -0.16532,-0.0121 -0.22,-0.0687 -0.0667,-0.0697 -0.15913,-0.18635 -0.27498,-0.24748 -0.199,-0.10495 -0.31416,-0.30483 -0.52246,-0.52246 -0.23061,-0.24093 -0.5723,-0.31536 -0.78369,-0.53622 -0.30335,-0.31694 -0.64043,-0.72693 -0.96243,-1.08617 0.4595,-0.14792 1.12141,-0.34534 1.29241,-0.42622 0.0633,-0.0299 2.55649,-0.61613 3.16228,-0.82494 0.64911,-0.22375 1.67851,-0.28344 2.32357,-0.49497 1.17851,-0.38642 4.27288,-1.17848 4.93591,-1.42989 0.5433,-0.20603 3.20602,-0.71486 3.91848,-1.05868 0.92848,-0.44806 4.82645,-1.70177 5.93957,-1.67737 0.0662,0.001 0.31974,-0.014 0.72869,-0.0825 z m -26.75561,7.57571 c 0.48014,0.32884 1.28307,0.7409 1.41617,0.87994 0.42262,0.44156 0.96848,0.70567 1.40239,1.15491 -1.09217,0.28979 -2.07752,0.56608 -2.39233,0.71496 -0.31156,0.14732 -0.58426,-0.0436 -0.87995,0.0962 -1.38955,0.65712 -7.37419,1.90032 -7.97442,2.47481 -0.0446,0.0427 -0.26736,0.11475 -0.57747,0.17874 -0.34023,-0.11542 -0.56292,-0.37852 -0.78368,-0.65996 -0.6732,-0.38222 -1.87664,-1.16176 -2.48859,-1.80111 -0.12696,-0.1326 -0.27609,-0.21177 -0.42621,-0.28874 0.46861,-0.0641 1.04177,0.0525 1.44365,-0.13748 0.7762,-0.36709 5.26391,-1.12326 5.56835,-1.25117 0.67474,-0.28353 3.97648,-0.90654 5.69209,-1.36115 z m -17.35127,3.73974 c -0.0134,0.23273 1.58009,1.03519 1.77363,1.23741 0.42537,0.44444 0.99475,0.70029 1.42991,1.15492 0.0978,0.10227 0.21207,0.23737 0.35746,0.37122 -1.03944,0.24026 -2.15718,0.4569 -3.21726,0.76995 -1.39942,0.41326 -3.64649,0.47951 -4.2897,0.7837 -1.84967,0.87471 -4.84498,0.58846 -5.93958,1.63613 -0.1532,0.14664 -0.91004,-0.007 -1.12742,0.0962 -0.1326,0.0627 -0.24116,0.13152 -0.31622,0.21999 -0.0458,0.001 -0.0948,-4.3e-4 -0.1375,0.0137 -0.0427,0.0138 -0.073,0.0294 -0.11005,0.055 -1.09997,-0.73502 -2.4683,-1.60097 -3.64348,-2.25485 0.0199,-0.0556 0.0511,-0.10804 0.0687,-0.16498 -0.0228,-0.0238 -0.0768,-0.0557 -0.11005,-0.0825 1.81799,-0.25168 5.33241,-1.05812 5.69209,-1.40241 0.91756,-0.8782 5.9481,-1.14106 6.70953,-1.86985 0.34793,-0.333 1.55555,0.10777 1.88362,-0.20624 0.13448,-0.12871 0.50375,-0.2459 0.97618,-0.35748 z m -26.41187,3.54726 c 0.27506,0.15011 0.5137,0.30583 0.54997,0.34372 0.40529,0.42345 1.0521,0.49774 1.45738,0.92118 0.20379,0.21292 1.37697,0.67978 1.64989,0.83869 0.49242,0.28672 0.99339,0.54957 1.47115,0.8112 -0.13437,0.32428 -0.2596,0.59768 -0.38498,0.78369 -0.13948,0.20694 -0.59901,1.47142 -0.71494,1.69113 -0.38245,0.72474 -0.54655,1.27132 -0.74245,1.93861 -0.15815,0.53867 -0.46309,0.99461 -0.59122,1.23742 -0.2563,0.48569 -0.33584,0.74657 -0.6737,1.74611 -0.17871,0.4125 -0.35185,0.75233 -0.50871,1.09993 -0.0493,0.0488 -0.0996,0.10187 -0.15124,0.15124 -0.26683,0.2554 -0.58118,0.2927 -0.90744,0.60496 l -1.59487,1.52613 c 0.003,-0.033 -10e-4,-0.0927 0,-0.12374 0.0671,-0.91308 0.23544,-2.22091 0.26122,-3.17602 0.0208,-0.76758 0.21275,-2.01257 0.31623,-2.68105 0.10187,-0.65816 0.30903,-2.97839 0.43997,-3.71224 0.0588,-1.01251 -0.17721,-2.22363 0.15123,-2.84605 0.15304,-0.28999 0.13139,-0.77423 -0.0275,-1.15491 z m -1.30616,0.21997 c -0.0976,0.68124 -0.0164,1.88079 -0.0275,2.51608 -0.14261,0.47265 -0.21833,1.98068 -0.31622,2.39233 -0.0587,0.66469 -0.30196,1.86984 -0.275,2.76356 0.02,0.66456 -0.19892,1.71994 -0.19248,2.54356 0.005,0.56934 -0.18096,2.0353 -0.35747,2.79105 -0.0494,0.21176 -0.12455,1.05445 -0.19249,1.85613 -0.28728,0.19771 -0.60134,0.39211 -0.85243,0.63245 -0.53473,0.51178 -1.20439,1.07519 -1.71863,1.56738 -0.15036,0.14391 -0.64314,0.3347 -0.82494,0.50872 -0.48436,0.46358 -0.56149,0.83825 -1.34741,1.20991 -0.3352,0.15851 -0.37126,0.53369 -0.63246,0.7837 -0.13018,0.12454 -0.34198,0.27569 -0.53621,0.41247 -0.46318,-0.15373 -0.95179,-0.28504 -1.14117,-0.38497 -0.0619,-0.0326 -0.54007,-0.21072 -0.89368,-0.27498 0.29036,-0.64275 0.50819,-1.23567 0.63245,-1.47115 1.64224,-3.11216 3.00845,-6.32807 4.00096,-8.01568 0.25471,-0.43308 2.26569,-5.07778 2.51609,-5.51335 0.44883,-0.78085 0.81574,-2.21502 1.47113,-3.43726 0.24929,-0.29514 0.48115,-0.58891 0.68746,-0.87995 z m 12.34663,4.22096 c 0.85476,0.39686 1.71314,0.7961 2.15859,1.03117 0.0535,0.0282 0.19626,0.1432 0.32998,0.24749 -0.0364,0.0805 -0.0536,0.1664 -0.0962,0.24748 -0.0984,0.18655 -0.32167,0.93244 -0.60495,1.49864 -0.22711,0.59416 -0.5625,1.33139 -0.71496,1.67738 -0.31869,0.65556 -0.54017,1.23114 -0.86618,1.92487 -0.15843,0.40422 -0.43111,0.75495 -0.61871,1.19616 0.0318,-2.03817 0.0502,-4.10063 0.0687,-4.94964 0.0204,-0.92719 0.71371,-2.21555 0.34372,-2.87355 z m -17.73624,1.47114 c -0.19997,0.4933 -0.37009,0.98509 -0.54996,1.36115 -0.18388,0.38438 -0.87807,2.00219 -1.12743,2.72231 -0.2547,0.73554 -1.02387,2.49744 -1.81487,3.60224 -0.81726,1.14151 -1.67167,4.08853 -2.66731,6.14582 -0.83096,0.24127 -1.83309,0.58762 -2.29609,0.71494 0.003,0.40458 -0.007,0.8866 -0.0275,1.40241 -0.64872,0.47126 -1.28668,1.19678 -1.66363,1.91111 -0.21942,0.41582 -0.11864,1.16119 -0.38498,1.41616 -0.73026,0.69895 -1.19551,1.89099 -1.82861,2.7773 -0.22876,0.32026 -0.51419,0.82268 -0.83869,1.4024 -0.0187,0.008 -0.0334,0.0107 -0.055,0.0137 -0.2906,0.0456 -0.6112,0.0149 -0.89369,0.0962 -0.63141,0.18169 -1.28209,0.284 -1.92487,0.38498 -0.16534,0.026 -0.34352,0.0209 -0.50871,0.055 -0.59084,0.12186 -0.84632,-0.0405 -1.44366,0.0825 -0.33805,0.0698 -0.88023,0.11099 -1.22365,0.16498 -0.33842,0.0531 -0.91593,0.24983 -1.25116,0.3025 -0.60257,0.0946 -0.97044,0.21116 -1.59489,0.28872 -0.35478,0.044 -0.70773,0.0272 -1.05867,0.0825 -0.50422,0.0792 -1.18494,0.16794 -1.69113,0.24748 -0.2406,0.0377 -0.49691,0.10199 -0.74246,0.16498 0.0529,-0.0462 0.13341,-0.11569 0.17874,-0.15123 0.59901,-0.4697 0.73981,-0.45766 0.89369,-0.60495 0.50173,-0.48022 1.09595,-1.36563 2.06236,-2.47484 0.68285,-0.78377 1.70969,-1.51543 2.30983,-2.08985 0.35337,-0.33821 1.68281,-1.34101 2.0486,-1.69113 0.70562,-0.67534 0.8561,-0.77268 1.53989,-1.60864 0.5062,-0.61883 1.09521,-1.02766 1.44366,-1.36115 0.7696,-0.73662 1.10411,-1.14775 1.80112,-1.81487 0.73365,-0.70219 0.76731,-0.75095 1.3474,-1.30616 0.29665,-0.28394 0.85935,-1.10751 1.19617,-1.42989 0.71812,-0.68733 1.01188,-1.21071 1.80111,-1.96612 0.23121,-0.22129 1.49315,-1.35595 2.30985,-1.9661 0.81064,-0.60565 1.4467,-1.76045 2.04859,-2.2136 0.73847,-0.55596 3.47787,-3.55214 4.24846,-4.2897 0.12897,-0.12347 0.23332,-0.24896 0.35747,-0.37122 z m 15.81137,0.41248 -0.0275,1.49863 c -0.0474,2.16322 -0.27848,4.56536 -0.32998,6.91576 -0.001,0.085 -0.003,0.60994 -0.0137,1.20992 -0.22889,0.45699 -0.38458,1.03618 -0.5362,1.40241 -0.23832,0.58179 -0.61511,1.22887 -0.85245,1.86985 -0.13407,0.36089 -0.37072,0.89306 -0.6187,1.44365 0.048,-0.68858 0.12066,-1.52843 0.24748,-1.64987 0.0267,-0.0255 0.26065,-1.75634 0.28874,-1.93863 0.15718,-1.02003 0.23521,-1.94903 0.31622,-2.76354 0.18538,-0.66439 0.31486,-3.66477 0.52246,-3.86348 0.0747,-0.0715 0.11488,-1.23308 0.21999,-1.33366 0.0482,-0.046 0.19898,-1.48015 0.28872,-2.11735 0.0144,-0.10186 0.0305,-0.22773 0.0412,-0.34372 0.15526,-0.1075 0.3068,-0.21831 0.45371,-0.32997 z m -2.11735,3.65724 c -0.007,0.48493 10e-4,0.96781 -0.0275,1.30615 -0.0463,0.53776 -0.32971,1.94425 -0.43997,2.69481 -0.10938,0.74426 -0.58267,3.68517 -0.60496,4.70216 -0.0121,0.5455 -0.2226,2.40919 -0.38496,3.25852 -0.1016,0.53174 -0.0527,1.58893 -0.30249,2.06236 -0.0134,0.0255 -0.0172,0.0703 -0.0275,0.11005 -0.0466,0.10817 -0.15395,0.36407 -0.16498,0.38498 -0.15571,0.29508 -0.2757,0.61514 -0.38497,0.92118 -0.53535,-0.20407 -1.14491,-0.41371 -1.66364,-0.68744 -0.32773,-0.17295 -1.3631,-0.4357 -1.81487,-0.63246 -0.18906,-0.0824 -0.38056,-0.14406 -0.57745,-0.21998 0.35667,-0.67383 0.70632,-1.33097 0.97619,-1.84238 0.47329,-0.94327 0.79684,-2.11279 1.03117,-2.72231 0.45988,-0.71611 1.11123,-2.01084 1.66363,-2.88729 0.38576,-0.78269 0.69634,-1.69589 1.16866,-2.66731 0.26427,-0.86187 0.45946,-1.44069 0.71495,-1.92486 0.21051,-0.39892 0.32291,-0.98845 0.74244,-1.66363 0.0393,-0.0632 0.062,-0.13153 0.0962,-0.19249 z m -6.68203,4.31718 c -0.18406,0.43556 -0.37431,1.06894 -0.60496,1.55365 -0.38451,0.79832 -0.82751,1.9399 -1.00368,2.41982 -0.1138,0.31016 -0.28531,0.76868 -0.46746,1.20992 0.0911,-0.68993 0.18838,-1.50218 0.28873,-2.46108 0.0475,-0.33418 0.10253,-0.81104 0.15123,-1.27866 0.42222,-0.35322 0.88713,-0.71203 1.29243,-1.09992 0.12226,-0.11703 0.22825,-0.22835 0.34371,-0.34373 z m -3.20351,2.8873 c -0.15287,1.29465 -0.41385,3.91322 -0.46748,5.03215 -0.1697,-0.0664 -0.37425,-0.1474 -0.54995,-0.21999 -0.23444,-0.0969 -0.99753,-0.30688 -1.22366,-0.42622 -0.20092,-0.10603 -1.03648,-0.44581 -1.26493,-0.59122 -0.0671,-0.0427 -0.1572,-0.0752 -0.24746,-0.11005 l 0.16498,-0.15124 c 0.84754,-0.81119 1.34506,-1.377 2.08985,-2.08985 l 1.49865,-1.44365 z m -12.51163,8.20816 c -0.0138,0.18953 -0.027,0.37381 -0.0412,0.56372 -0.14606,0.15513 -0.28031,0.31271 -0.39873,0.49497 -0.20063,0.16145 -0.46294,0.42069 -0.7287,0.7012 0.39056,-0.57268 0.79525,-1.16257 1.16867,-1.75989 z m 6.15957,0.0962 c 0.0298,0.0232 0.0509,0.035 0.0825,0.055 0.47268,0.24943 1.0178,0.35124 1.49864,0.60496 0.23359,0.1232 0.4634,0.12924 0.68745,0.24748 0.30743,0.16222 0.83068,0.13787 1.16867,0.31622 0.13367,0.0705 0.28475,0.0761 0.43997,0.11005 -0.48764,0.17722 -1.01672,0.25371 -1.52615,0.39872 -0.1587,-0.007 -0.28268,0.10992 -0.42622,0.15125 -0.19287,0.0554 -0.43176,0.0348 -0.63245,0.055 -0.23437,0.0236 -0.46882,0.10039 -0.7012,0.12374 -0.31603,0.0318 -0.59014,0.0656 -0.86618,0.11005 0.0154,-0.74357 0.0291,-1.48362 0.12374,-1.66363 0.0671,-0.12723 0.11462,-0.30558 0.15123,-0.50872 z m 17.68126,0.83869 c -0.022,0.21549 -0.0601,0.4238 -0.0825,0.6462 -0.0757,-0.0326 -0.1459,-0.0631 -0.22,-0.0962 0.11032,-0.21288 0.19122,-0.33435 0.3025,-0.54995 z m -13.58405,0.5637 c 0.0107,0.005 0.0177,0.008 0.0275,0.0137 0.2328,0.1228 0.49755,0.19427 0.7287,0.31624 0.0605,0.0318 0.47576,0.16058 0.53622,0.19248 0.12427,0.049 0.25376,0.0943 0.38497,0.13749 -0.18504,-0.044 -0.38636,-0.0803 -0.54997,-0.11005 -0.33544,-0.16882 -0.54875,-0.14447 -0.96242,-0.32996 -0.0788,-0.0353 -0.14555,-0.051 -0.20624,-0.055 0.0121,-0.066 0.0338,-0.11072 0.0412,-0.16499 z m 2.14485,0.82495 c 0.10992,0.0358 0.22436,0.0672 0.34372,0.11005 0.19985,0.0715 0.85304,0.23546 1.07243,0.30248 0.20431,0.0624 0.46588,0.17602 0.7837,0.2475 0.32363,0.15474 0.91896,0.39976 1.03117,0.4537 0.29048,0.1396 0.91804,0.37078 1.36116,0.52247 -0.0648,0.0342 -0.13113,0.0749 -0.17874,0.11005 -0.67479,0.13045 -1.05628,0.18951 -1.77363,0.17876 -0.29172,-0.0361 -0.75554,0.24714 -1.07242,0.16498 -0.37278,0.0647 -1.12407,0.0494 -1.42989,0.16498 0.0727,-0.56763 0.0629,-1.5721 0.055,-1.99361 -0.003,-0.11072 -0.0733,-0.19212 -0.19249,-0.26122 z m -12.63535,0.86618 c -0.003,0.0396 0.003,0.0846 0,0.12374 -0.066,0.0121 -0.13993,0.0172 -0.20624,0.0275 0.0642,-0.0556 0.13233,-0.10415 0.20624,-0.15124 z m 19.50987,1.60865 c 0.30061,0.10911 0.63242,0.17871 0.89368,0.21998 0.0786,0.0821 0.29771,0.102 0.37122,0.17874 0.0843,0.088 0.33973,0.0435 0.48123,0.11005 0.0172,0.009 0.0391,0.0161 0.0687,0.0137 -0.0627,0.34656 -0.11555,0.65887 -0.13748,0.86619 -0.005,0.0401 -0.0224,0.0948 -0.0275,0.13748 -2.68088,2.58285 -4.63634,5.92989 -7.54822,8.71688 -0.41829,0.40036 -0.52804,1.21861 -0.92118,1.59489 -1.32861,1.27164 -1.77526,2.81641 -2.9698,3.95972 -0.25251,0.2417 -0.25168,0.74451 -0.52246,1.00368 -0.36809,0.35229 -0.76579,1.33362 -1.18241,1.73238 -1.521,1.45577 -2.81663,2.9435 -4.00098,4.57842 0.009,-0.2469 0.0409,-0.51975 0.0412,-0.7287 0.008,-0.92232 0.31586,-2.47669 0.32997,-3.12102 0.0251,-1.14686 0.10321,-6.49111 0.50872,-7.25948 0.11971,-0.22686 0.16881,-3.12179 0.17874,-3.57476 0.009,-0.40299 0.10321,-1.97984 0.23374,-3.67098 0.30453,-0.0222 0.61181,-0.0325 0.92117,-0.17874 0.77482,-0.0592 1.78713,-0.32743 2.80481,-0.43998 1.07707,-0.19826 2.5361,-0.4891 3.68474,-0.6462 0.84221,-0.15263 1.7599,-0.43788 2.22734,-0.49496 0.44226,-0.20915 1.32701,-0.234 1.77363,-0.35747 0.5356,-0.0632 1.25357,-0.14817 2.41982,-0.49496 0.0517,-0.007 0.0562,-0.0204 0.0962,-0.0275 0.0604,-0.0183 0.10227,-0.0215 0.165,-0.0412 0.004,-0.003 0.0391,0.001 0.0412,0 0.10119,-0.0969 0.0107,-0.82048 0.0137,-0.97619 0.007,-0.31255 -0.0781,-0.82846 0.055,-1.09991 z m 1.2649,3.73972 c -0.007,0.0305 -0.008,0.0974 -0.0137,0.12374 -0.0647,0.31785 -0.19817,1.36488 -0.20622,1.73238 -0.0134,0.5818 -0.0389,1.09404 -0.28874,1.56739 -0.51264,1.01777 -0.11206,3.14812 -0.59121,4.05596 -0.12254,0.23226 -0.0259,0.58744 -0.15123,0.82494 -0.18518,0.35092 -0.008,1.05157 -0.28874,1.31991 -0.0387,0.037 -0.0764,1.92917 -0.23373,2.22734 -0.14913,0.28262 -0.0349,1.72032 -0.21998,1.89736 -0.43225,0.41372 -0.50722,3.59062 -0.59122,3.67099 -0.27789,0.26598 -0.36137,1.62657 -0.37122,2.0761 -0.47672,1.11113 -0.10884,2.55778 -0.65995,3.60225 -0.16144,0.30596 -0.0419,0.76083 -0.20624,1.07242 -0.16361,0.31006 0.0256,0.75107 -0.15123,1.08617 -0.21269,0.40307 0.0621,1.58432 -0.23373,2.14485 -0.15889,0.30111 0.14516,0.84006 -0.0137,1.14117 -0.28977,0.54912 -0.0545,1.4706 -0.31624,1.96611 -0.37432,0.85843 -0.15379,3.55777 -0.65994,4.04222 -0.0774,0.0741 -0.11287,0.90919 -0.20624,1.08616 -0.1702,0.32254 0.0871,0.86099 -0.0825,1.18243 -0.23565,0.44655 -0.23699,1.06609 -0.42622,1.59488 -0.16982,0.4745 0.0141,1.13756 -0.22,1.58114 -0.097,0.184 0.0834,0.51719 -0.0137,0.7012 -0.0866,0.16404 -0.13286,0.3629 -0.15124,0.60496 -1.30886,-0.026 -2.58789,0.33863 -3.90472,0.26123 -1.32298,0.34227 -2.70204,0.29621 -4.05596,0.50872 -1.16288,0.0911 -2.34248,-0.11368 -3.51975,0.0825 -0.34857,-0.0519 -0.70223,-0.0675 -1.04492,-0.0687 0.0985,-0.90542 0.20998,-1.86 0.28873,-2.37858 0.12777,-0.84161 0.15723,-3.15585 0.43997,-3.94597 0.29678,-0.82938 0.30837,-1.61249 0.32997,-2.59857 10e-4,-0.0702 0.315,-3.8904 0.28874,-4.74341 0.16097,-1.12004 0.43411,-3.93522 0.43996,-4.38593 0.005,-0.36426 0.0462,-0.86277 0.0825,-1.40241 0.64221,-0.86967 1.23031,-1.81596 2.06235,-2.61231 0.8854,-0.84744 1.56904,-2.33128 2.35108,-3.0798 0.37247,-0.35648 0.53481,-0.88076 0.90744,-1.2374 0.4589,-0.43922 1.40154,-1.97394 1.92485,-2.47482 0.73231,-0.70089 0.89598,-1.70846 1.56739,-2.35109 0.22083,-0.21135 1.41514,-1.74201 1.66364,-1.97985 1.11445,-1.06666 1.36201,-2.38061 2.35108,-3.32726 0.4077,-0.39023 0.4669,-0.82364 0.76995,-1.11368 1.00486,-0.96179 2.03841,-2.70237 3.09353,-3.71224 0.16955,-0.16227 0.18079,-0.48709 0.26124,-0.74245 z m -21.25599,2.10361 c -0.27855,0.66006 -0.62668,6.39622 -0.6462,7.28698 -0.0466,1.05327 -0.71954,4.69749 -0.39873,5.37587 0.0533,0.1126 0.19433,1.30616 0.15124,1.3474 -0.25419,0.24329 -0.61778,3.6201 -0.63246,4.2897 0.0801,1.93815 -0.2604,3.55216 -0.30246,5.47212 -0.003,0.15889 -0.25635,0.82266 -0.0962,0.98992 0.0523,0.0548 0.0714,0.47773 0.0962,0.97619 -0.31416,0.33485 -0.5974,0.67813 -0.78371,1.03118 -0.37715,0.71473 -1.4556,1.52228 -2.0486,2.08984 -0.49967,0.47824 -0.63688,1.35557 -1.04493,1.74613 -0.67939,0.65026 -1.06055,1.61537 -1.81487,2.33733 -0.41985,0.40186 -0.4661,1.06308 -0.92118,1.49865 -0.22545,0.21578 -0.96635,1.16693 -1.15491,1.3474 -0.81613,0.78114 -1.06614,1.46656 -1.51241,2.14485 -0.36954,0.0177 -0.72955,0.0276 -1.12741,0.0412 0.0121,-0.26028 0.0283,-0.55278 0.0275,-0.74244 -8.1e-4,-0.2146 -0.14383,-1.82166 -0.0687,-1.89737 0.0468,-0.0472 0.17989,-2.44622 0.17873,-2.7223 -0.001,-0.46163 -0.16278,-2.14582 0,-2.47484 0.15242,-0.30805 0.16637,-1.6495 0.16499,-1.97986 -8e-4,-0.20468 -0.001,-1.55021 0,-2.08985 0.003,-0.72336 0.14355,-1.70894 0.11005,-2.40608 -0.003,-0.74209 0.0243,-2.54327 0.055,-2.98354 0.0517,-0.74431 -0.0917,-2.67935 0.055,-3.42351 0.068,-0.34564 -0.007,-1.86189 0.10991,-1.97985 0.28738,-0.28979 0.11435,-4.60798 0.17874,-5.44461 0.0263,-0.14543 0.0349,-0.35518 0.0412,-0.59121 0.0172,-0.0174 0.0377,-0.0521 0.055,-0.0687 1.77712,-1.70093 2.7144,-4.15453 3.51976,-5.41711 0.28511,-0.447 0.80931,-1.61717 1.34739,-2.65357 0.35327,-0.0658 0.66074,-0.12078 0.87995,-0.17873 0.91852,-0.15009 2.7622,-0.43653 3.64349,-0.59122 0.34128,-0.15995 1.13497,-0.25117 1.93861,-0.32996 z m -31.95273,1.03118 c -0.007,0.17176 -0.042,0.33401 -0.0687,0.42621 0.0412,0.0161 0.1028,0.0187 0.15124,0.0275 -0.003,8e-4 -0.0687,0.0137 -0.0687,0.0137 0.007,0.1544 0.0264,0.31324 0.0412,0.46747 -0.0378,0.023 -0.0627,0.065 -0.0687,0.11005 -0.0107,0.0805 -0.0213,0.17075 -0.0275,0.26124 -0.0107,-0.2235 -0.0161,-0.55047 -0.0275,-0.68746 -0.0121,-0.15109 -0.0192,-0.37849 -0.0275,-0.57746 0.0327,-0.0134 0.0678,-0.0285 0.0962,-0.0412 z m 23.40084,0.45371 c -0.63505,1.01231 -1.16372,2.301 -2.03485,3.13478 -0.14265,0.13653 -0.38529,0.50072 -0.65996,0.92118 0.003,-0.0482 -0.003,-0.10589 0,-0.15124 0.0221,-0.41706 0.0447,-2.02408 0.0687,-3.4235 0.56252,-0.10173 1.15845,-0.21798 1.66363,-0.28874 0.2921,-0.0696 0.62553,-0.12763 0.96243,-0.19248 z m -7.34198,1.23742 c 0.009,-4.5e-4 0.0174,4.4e-4 0.0275,0 -0.003,0.74056 -0.005,1.43092 -0.0137,1.92486 -0.0208,1.18287 -0.17545,3.08976 -0.0825,3.87723 -0.10132,0.65261 -0.0651,2.07217 -0.16498,2.7773 -0.0502,0.35412 0.0107,1.42168 0.055,2.22735 -0.28886,0.42679 -0.546,0.81824 -0.75619,1.08617 -0.67117,0.85555 -1.26523,2.60969 -2.1586,3.46475 -0.7169,0.68616 -0.88968,2.06404 -1.66363,2.8048 -0.82325,0.78795 -1.68465,2.31326 -2.55731,3.14852 -0.57613,0.55142 -0.77303,1.95789 -1.47115,2.62607 -0.54608,0.52267 -0.87526,1.41913 -1.3749,1.89737 -0.56314,0.53899 -1.26937,1.71484 -1.71863,2.14484 -0.99498,0.95231 -1.96521,3.0373 -2.59856,3.6435 -0.27082,0.2592 -0.47035,0.55372 -0.6462,0.85244 -0.0698,-2.04772 -0.25974,-5.123 -0.34372,-6.33831 -0.10603,-1.30355 -0.25099,-5.71097 -0.275,-4.66091 -0.0208,0.90976 0.0927,-4.25444 0.0687,-4.55093 -0.0448,-0.55936 -0.0478,-4.37149 -0.0825,-4.9359 -0.0468,-0.75962 -0.22649,-4.962 -0.23372,-5.91209 0.0107,-0.47717 3.8e-4,-2.05749 -0.0275,-3.64348 0.18803,0.19644 1.89416,-0.28319 2.26859,-0.27499 0.42375,0.009 3.79952,-0.49316 4.1522,-0.65994 0.2439,-0.11529 1.01829,0.0603 1.19617,-0.11005 0.19047,-0.18233 1.6762,-0.25811 2.08985,-0.45372 0.47884,-0.22645 1.15297,0.065 1.58114,-0.1375 0.14344,-0.0679 0.66498,-0.0227 0.75619,-0.11005 0.28926,-0.27686 3.31293,-0.53295 3.97348,-0.68745 z m -16.03136,2.1036 c 0.009,6e-5 0.0317,0 0.0412,0 -0.005,0.0829 -0.0197,0.14448 -0.0275,0.26123 -0.001,-0.0917 -0.0121,-0.16987 -0.0137,-0.26123 z m 15.85262,10.94422 c -0.0375,0.85847 -0.084,1.77863 -0.10992,2.25484 -0.047,0.86316 -0.14473,5.07968 -0.24749,6.91576 -0.10629,1.4533 0.19154,3.13948 0.0275,4.64717 0.10898,0.84476 0.0437,1.73988 0.0137,2.8873 0.0922,1.08019 -0.28632,2.09887 -0.0825,2.50231 0.0888,0.17593 0.17847,2.01738 0.165,3.06604 -1.71544,-0.0184 -3.68242,-0.003 -4.56468,0.11006 -0.86288,0.10951 -2.49291,0.18962 -3.35476,0.32996 -0.85022,0.13845 -3.45867,0.10455 -3.64348,0.165 -0.44794,0.14643 -1.71286,0.19311 -3.10729,0.24748 -10e-6,-0.43726 -0.009,-0.74261 -0.0137,-1.14118 0.007,-0.007 0.0208,-0.0348 0.0275,-0.0412 1.09028,-1.04353 1.91327,-3.21406 2.7498,-4.01472 1.06109,-1.01559 1.57832,-2.40911 2.33733,-3.25852 0.85102,-0.95237 1.47792,-2.66007 2.43357,-3.57474 0.68261,-0.65333 0.91066,-1.73981 1.64989,-2.44734 1.9521,-1.86838 3.45094,-4.75753 4.38594,-5.89833 0.47885,-0.58425 0.83459,-1.91629 1.33365,-2.74979 z m 13.95526,13.50155 c -0.11904,0.93834 -0.2343,2.14361 -0.24748,2.39233 -0.12266,2.31273 -0.18523,4.24314 -0.21999,5.82959 -0.0107,0.0553 -0.0172,0.10817 -0.0275,0.16498 -0.10442,-0.0121 -0.2082,-0.0342 -0.28873,-0.0412 -0.004,-0.0146 -0.009,-0.0272 -0.0137,-0.0412 -1.44135,0.24668 -2.3461,-0.0258 -2.94228,0.055 -1.06968,0.14496 -2.41472,0.0972 -3.13478,0.15124 0.76186,-0.27448 1.82312,-2.59176 2.43357,-3.17602 0.59038,-0.56506 0.78537,-1.49261 1.56739,-2.24111 0.98699,-0.94466 1.86018,-2.07982 2.87354,-3.09352 z m -1.38865,10.88922 c 0.005,0.005 0.009,0.009 0.0137,0.0137 10e-4,0.003 0.43206,0.0276 0.63246,0.0412 -0.001,0.035 0.001,0.0616 0,0.0962 -0.39024,0.0354 -0.78459,0.0651 -1.19618,0.0412 -1.25557,-0.12924 -2.49486,0.0502 -3.71223,0.26124 -0.99615,0.15517 -2.1568,0.16402 -3.17603,0.15124 l 0.11005,-0.0962 c 0.0134,-0.0121 0.0134,-0.0438 0.0137,-0.0687 0.93465,-0.0456 1.91586,-0.13637 2.55733,-0.17874 1.25812,0.12669 2.50228,-0.25752 3.40976,-0.21999 0.51639,0.0165 0.99561,0.008 1.34741,-0.0413 z"
       id="path5237" />
    <path
       style="fill:#1dacca;fill-opacity:1;stroke:#ffffff;stroke-width:0.43996882px;stroke-linecap:butt;stroke-linejoin:miter;stroke-opacity:0"
       d="m 137.56493,299.94748 335.19974,-2.25376 26.44505,14.91363 -46.41081,0.41827 -23.53752,7.26618 -151.53498,11.71055 -32.68339,-6.9138 -75.42323,1.88557 -13.82759,-11.31347 -30.16928,-1.25706 z"
       id="path5620"
       inkscape:connector-curvature="0"
       sodipodi:nodetypes="ccccccccccc" />
    <path
       style="fill:#2097b0;fill-opacity:1;stroke:#ffffff;stroke-width:0.43996882px;stroke-linecap:butt;stroke-linejoin:miter;stroke-opacity:0"
       d="m 166.57642,301.06795 6.22209,21.77734 47.55459,-0.44443 4.44436,-17.77742 -17.77742,0.44443 -3.99992,6.66654 -13.77749,0.44443 -5.77767,-11.11089 z"
       id="path5633"
       inkscape:connector-curvature="0" />
    <path
       style="fill:#35c4e2;fill-opacity:1;stroke:#ffffff;stroke-width:0.43996882px;stroke-linecap:butt;stroke-linejoin:miter;stroke-opacity:0"
       d="m 145.68793,320.62311 8.44429,-13.77749 40.88805,-0.88888 1.77775,10.66645 32.4438,-0.44444 11.1109,-10.66645 48.88791,-0.44443 4.44436,15.55524 -30.66607,0.88887 -8.44427,-6.22209 -24.88839,14.22193 -35.99928,2.22218 -7.99984,-16.44411 -17.33299,-0.44443 z"
       id="path5627"
       inkscape:connector-curvature="0" />
    <path
       style="fill:#2097b0;fill-opacity:1;stroke:#ffffff;stroke-width:0.43996882px;stroke-linecap:butt;stroke-linejoin:miter;stroke-opacity:0"
       d="m 276.352,317.51206 c -0.44443,-1.77774 -3.37771,-17.86631 -3.37771,-17.86631 l 57.86552,-0.48888 3.73326,15.24415 44.44355,0 -1.3333,-12.88864 21.77734,1.77774 3.99993,17.33299 -47.99905,-0.88886 1.77774,9.77757 -40.44364,3.55549 -6.2221,-21.3329 z"
       id="path5631"
       inkscape:connector-curvature="0"
       sodipodi:nodetypes="ccccccccccccc" />
    <path
       style="fill:#35c4e2;fill-opacity:1;stroke:#ffffff;stroke-width:0.43996882px;stroke-linecap:butt;stroke-linejoin:miter;stroke-opacity:0"
       d="m 359.9059,306.40117 6.66654,-7.51096 35.99928,-0.93331 7.11097,11.99976 35.1104,-1.33331 3.5555,-7.99984 16.44411,0 12.88863,9.33315 -17.77741,-3.99992 -15.99969,6.66653 -24.44395,1.33331 2.66661,10.22203 -31.99937,2.66661 -1.33331,-19.55517 z"
       id="path5629"
       inkscape:connector-curvature="0"
       sodipodi:nodetypes="ccccccccccccccc" />
    <path
       style="fill:#35c4e2;fill-opacity:1;stroke:#ffffff;stroke-width:0.43996882px;stroke-linecap:butt;stroke-linejoin:miter;stroke-opacity:0"
       d="m 305.24031,324.17861 c 2.22218,0 23.99953,-1.33332 23.99953,-1.33332 l -3.55549,-16.44412 20.44404,-0.88887 -2.22217,-6.22209 -25.77726,2.66661 -1.33332,13.33307 -19.55517,0.88886 z"
       id="path5635"
       inkscape:connector-curvature="0" />
    <path
       style="fill:#443535;fill-opacity:0.19730943;stroke:#ffffff;stroke-width:0.43996882px;stroke-linecap:butt;stroke-linejoin:miter;stroke-opacity:0"
       d="m 279.86303,298.80133 -12.13308,5.59989 6.53319,9.02203 -2.79993,7.46652 10.88867,8.39983 40.44364,-4.35546 4.04437,4.66657 33.91043,-8.08873 38.88813,0 29.86606,-3.73325 26.13282,-6.5332 -6.22209,-7.46653 -11.51089,-4.66657 z"
       id="path3080"
       inkscape:connector-curvature="0" />
    <path
       style="fill:#443535;fill-opacity:0.19730943;stroke:#ffffff;stroke-width:0.43996882px;stroke-linecap:butt;stroke-linejoin:miter;stroke-opacity:0"
       d="m 183.42053,324.93414 2.79993,-24.26619 4.35547,-0.3111 -1.86663,25.1995 z"
       id="path3850"
       inkscape:connector-curvature="0" />
    <path
       inkscape:connector-curvature="0"
       style="fill:#443535;fill-opacity:0.19730943;stroke:#ffffff;stroke-width:0.43996882px;stroke-linecap:butt;stroke-linejoin:miter;stroke-opacity:0"
       d="m 206.75787,299.73896 -3.42351,0.6187 -3.51974,23.38709 -11.15046,-9.62431 -2.63981,0.43997 13.21281,13.00658 -0.26123,1.71863 5.59585,-0.30248 2.18609,-29.24418 z"
       id="path3852" />
    <path
       inkscape:connector-curvature="0"
       style="fill:#443535;fill-opacity:0.19730943;stroke:#ffffff;stroke-width:0.43996882px;stroke-linecap:butt;stroke-linejoin:miter;stroke-opacity:0"
       d="m 220.56189,299.82146 -4.39968,0.43996 -1.75987,29.25793 6.59953,-0.43997 -0.15126,-10.10553 13.02035,4.53718 0.10991,3.14852 2.63982,-2.19985 3.95972,0.22 -3.73973,-24.85824 -3.73974,0.43996 0.6737,20.21107 -12.97908,-4.67466 -0.23373,-15.97637 z"
       id="path3854" />
  </g>
</svg>
