<?xml version="1.0" encoding="UTF-8" standalone="no"?>
<!-- Created with Inkscape (http://www.inkscape.org/) -->

<svg
   xmlns:dc="http://purl.org/dc/elements/1.1/"
   xmlns:cc="http://creativecommons.org/ns#"
   xmlns:rdf="http://www.w3.org/1999/02/22-rdf-syntax-ns#"
   xmlns:svg="http://www.w3.org/2000/svg"
   xmlns="http://www.w3.org/2000/svg"
   xmlns:sodipodi="http://sodipodi.sourceforge.net/DTD/sodipodi-0.dtd"
   xmlns:inkscape="http://www.inkscape.org/namespaces/inkscape"
   width="1052.3622"
   height="744.09448"
   id="svg2"
   version="1.1"
   inkscape:version="0.48.3.1 r9886"
   sodipodi:docname="seaport.svg"
   inkscape:export-filename="/home/substack/media/vector/seaport.png"
   inkscape:export-xdpi="53.062874"
   inkscape:export-ydpi="53.062874">
  <defs
     id="defs4" />
  <sodipodi:namedview
     id="base"
     pagecolor="#ffffff"
     bordercolor="#666666"
     borderopacity="1.0"
     inkscape:pageopacity="0.0"
     inkscape:pageshadow="2"
     inkscape:zoom="0.5"
     inkscape:cx="662.14164"
     inkscape:cy="378.68587"
     inkscape:document-units="px"
     inkscape:current-layer="layer1"
     showgrid="false"
     inkscape:window-width="1364"
     inkscape:window-height="766"
     inkscape:window-x="0"
     inkscape:window-y="0"
     inkscape:window-maximized="0"
     inkscape:snap-global="false" />
  <metadata
     id="metadata7">
    <rdf:RDF>
      <cc:Work
         rdf:about="">
        <dc:format>image/svg+xml</dc:format>
        <dc:type
           rdf:resource="http://purl.org/dc/dcmitype/StillImage" />
        <dc:title></dc:title>
      </cc:Work>
    </rdf:RDF>
  </metadata>
  <g
     inkscape:label="Layer 1"
     inkscape:groupmode="layer"
     id="layer1"
     transform="translate(0,-308.2677)">
    <path
       style="fill:#e6dfdf;stroke:#ffffff;stroke-width:1px;stroke-linecap:butt;stroke-linejoin:miter;stroke-opacity:0;fill-opacity:1"
       d="m 150,418.09448 -4,-19 42,-4 -4,-33 72,-8 1,34 26,0 2,-21 80,-4 -6,37 17,-24 0,16 15,-13 -1,17 20,-16 1,18 27,-12 -3,24 24,8 z"
       id="path5641"
       inkscape:connector-curvature="0"
       transform="translate(0,308.2677)" />
    <path
       style="fill:#c9baba;stroke:#ffffff;stroke-width:1px;stroke-linecap:butt;stroke-linejoin:miter;stroke-opacity:0;fill-opacity:1"
       d="m 114.28571,423.3802 52.85715,-13.57143 -2.85715,-22.14286 82.14286,-3.57143 0,13.57143 64.28572,6.42857 L 310,388.3802 l 58.57143,2.14285 0.71428,23.57143 10.71429,0.71429 -0.71429,-15.71429 46.42858,2.14286 1.42857,14.28571 46.42857,7.14286 z"
       id="path5625"
       inkscape:connector-curvature="0"
       transform="translate(0,308.2677)" />
    <path
       style="fill:#443535;fill-opacity:1;stroke:#ffffff;stroke-width:1px;stroke-linecap:butt;stroke-linejoin:miter;stroke-opacity:0"
       d="m 747.06218,620.61118 10.60661,-23.32017 21.69289,4.70414 5.39739,8.93292 -11.43292,14.22879"
       id="path5077"
       inkscape:connector-curvature="0"
       sodipodi:nodetypes="ccccc" />
    <path
       style="fill:#e4eae9;fill-opacity:1;stroke:#ffffff;stroke-width:1px;stroke-linecap:butt;stroke-linejoin:miter;stroke-opacity:0"
       d="m 669.28044,614.55026 c 0,0 8.08122,-7.57614 10.10152,-9.09137 2.02031,-1.51523 79.29698,-8.5863 79.29698,-8.5863 l 8.08122,10.60661 -15.15229,21.71828"
       id="path5075"
       inkscape:connector-curvature="0" />
    <path
       style="fill:#809592;fill-opacity:1;stroke:#ffffff;stroke-width:1px;stroke-linecap:butt;stroke-linejoin:miter;stroke-opacity:0"
       d="m 458.92857,610.21932 5.00001,-14.64285 39.28571,5.71428 -1.78572,9.64286 z"
       id="path5039"
       inkscape:connector-curvature="0"
       sodipodi:nodetypes="ccccc" />
    <path
       style="fill:#e6dfdf;fill-opacity:1;stroke:#ffffff;stroke-width:1px;stroke-linecap:butt;stroke-linejoin:miter;stroke-opacity:0"
       d="m 640.00001,618.07647 7.5,-12.85714 23.92857,-3.21429 0.71428,23.92857 z"
       id="path5037"
       inkscape:connector-curvature="0" />
    <path
       style="fill:#38a8c0;fill-opacity:1;stroke:#ffffff;stroke-width:1px;stroke-linecap:butt;stroke-linejoin:miter;stroke-opacity:0"
       d="m 513.4644,587.78122 60.35662,9.09137 -5.3033,16.66752 -70.2056,-2.77792 z"
       id="path5035"
       inkscape:connector-curvature="0"
       sodipodi:nodetypes="ccccc" />
    <path
       style="fill:#443535;fill-opacity:1;stroke:#ffffff;stroke-width:1px;stroke-linecap:butt;stroke-linejoin:miter;stroke-opacity:0"
       d="m 750.46429,608.65163 10.96875,-0.9375 -2.875,-5.34375 -3.875,0.40625 -4.21875,5.875 z"
       id="path5097"
       inkscape:connector-curvature="0" />
    <path
       style="fill:#443535;fill-opacity:1;stroke:#ffffff;stroke-width:1px;stroke-linecap:butt;stroke-linejoin:miter;stroke-opacity:0"
       d="m 739.55804,609.58913 8.4375,-0.71875 4.125,-5.84375 -8.59375,0.875 -3.96875,5.6875 z"
       id="path5138"
       inkscape:connector-curvature="0" />
    <path
       style="fill:#443535;fill-opacity:1;stroke:#ffffff;stroke-width:1px;stroke-linecap:butt;stroke-linejoin:miter;stroke-opacity:0"
       d="m 728.15179,610.58913 8.90625,-0.78125 3.90625,-5.65625 -9.0625,0.90625 -3.75,5.53125 z"
       id="path5172"
       inkscape:connector-curvature="0" />
    <path
       style="fill:#443535;fill-opacity:1;stroke:#ffffff;stroke-width:1px;stroke-linecap:butt;stroke-linejoin:miter;stroke-opacity:0"
       d="m 716.27679,611.62038 9.59375,-0.84375 3.71875,-5.5 -9.75,1 -3.5625,5.34375 z"
       id="path5193"
       inkscape:connector-curvature="0" />
    <path
       style="fill:#443535;fill-opacity:1;stroke:#ffffff;stroke-width:1px;stroke-linecap:butt;stroke-linejoin:miter;stroke-opacity:0"
       d="m 705.99554,612.49538 7.75,-0.65625 3.5,-5.3125 -7.875,0.8125 -3.375,5.15625 z"
       id="path5217"
       inkscape:connector-curvature="0" />
    <path
       style="fill:#443535;fill-opacity:1;stroke:#ffffff;stroke-width:1px;stroke-linecap:butt;stroke-linejoin:miter;stroke-opacity:0"
       d="m 703.62054,612.71413 3.34375,-5.125 -15.53125,1.5625 0.40625,4.5625 11.78125,-1 z"
       id="path5079"
       inkscape:connector-curvature="0" />
    <path
       style="fill:#443535;fill-opacity:1;stroke:#ffffff;stroke-width:0.57097191px;stroke-linecap:butt;stroke-linejoin:miter;stroke-opacity:0"
       d="M 497.71875 163.25 C 497.40451 163.243 497.36988 163.40677 497.4375 163.65625 C 496.9773 163.72165 493.5124 164.57695 492.75 164.9375 C 491.91245 165.33358 487.62272 166.56461 486.6875 166.8125 C 483.86115 167.56161 480.1674 168.62673 476.375 169.4375 C 473.64987 170.02009 466.21123 171.79203 465.4375 172.03125 C 463.25852 172.70491 460.73204 172.84903 458.5625 173.875 C 457.36173 174.44287 451.31022 175.888 449.65625 176.25 C 446.32057 176.9801 442.42631 177.87603 439.3125 178.90625 C 437.10331 179.63718 434.17107 180.18142 432.96875 180.75 C 431.94418 181.23453 427.18344 182.25686 426.09375 182.59375 C 424.61808 183.04999 421.42964 183.39362 418.625 184.4375 C 416.79604 185.11825 413.18179 184.92387 410.90625 186 C 408.67542 187.05497 403.44384 187.90808 401.125 188.625 C 398.40001 189.46746 392.04358 191.40726 388.46875 192.0625 C 385.31354 192.64083 383.82763 192.74827 381.03125 193.59375 C 377.97703 194.51719 373.78991 195.36475 371.53125 196 C 368.6715 196.80431 363.55227 198.44374 360.59375 199.4375 C 358.43187 200.16365 356.25301 199.58145 354.875 200.53125 C 354.7806 200.47065 354.72626 200.42463 354.625 200.34375 C 353.25531 202.92714 351.76498 206.5374 351.28125 207.96875 C 351.22745 208.08525 351.17706 208.19553 351.125 208.3125 C 351.00332 208.2388 350.83497 208.1562 350.75 208.09375 C 348.08407 206.13413 339.93522 200.99403 338.78125 200.96875 C 338.01992 200.95205 334.41808 198.41728 333.15625 199.625 C 331.78741 200.93515 330.36227 203.51014 329.0625 205.96875 C 326.13002 208.85754 323.2198 211.80751 322.0625 213.15625 C 320.40755 215.08502 316.12086 219.68212 314.15625 221.5625 C 312.12197 223.50956 310.77302 224.52578 308.90625 226.3125 L 304.25 230.78125 C 300.81808 234.06602 298.69971 238.07591 295.1875 241.4375 L 286.40625 249.78125 L 279.40625 256.5 C 278.70027 257.17572 275.65607 259.92037 274.75 260.6875 C 272.10491 262.927 270.13642 264.96449 269.21875 265.96875 C 267.44459 267.91036 263.51238 271.96753 261.28125 275.0625 C 261.28075 274.9941 261.2488 274.83413 261.25 274.78125 C 261.2842 273.22048 262.47886 260.40798 261.96875 259.875 C 261.81162 259.71084 252.84272 258.17898 252.3125 257.625 C 250.08528 255.29801 235.74017 253.10496 233.875 251.15625 C 233.67777 250.95017 230.48612 249.69632 229.875 250.28125 C 229.7863 250.36615 229.71356 250.44293 229.625 250.53125 C 229.28861 250.46515 229.06493 251.03027 229.03125 251.0625 C 228.56333 251.51034 222.55587 252.36747 220.78125 252.71875 C 219.24036 253.02376 214.01878 253.92707 211.75 255 C 209.72299 255.95858 206.53152 256.09078 204.8125 256.6875 C 202.98013 257.32357 194.18386 259.01645 192.125 259.53125 C 190.04263 260.05193 184.42808 260.54878 182.78125 262.125 C 182.77095 262.135 183.15838 273.09633 183.71875 274.28125 C 183.96239 274.79644 183.27722 276.32278 183.65625 276.71875 C 185.29298 278.42883 184.41082 284.60103 184.71875 284.03125 C 185.03072 284.03825 185.31535 284.0029 185.625 284 C 185.50176 284.18818 185.4812 284.32768 185.53125 284.40625 C 186.7809 285.71188 195.28235 285.81955 197.875 286.5625 C 197.2458 286.6305 196.62969 286.68405 196.09375 286.9375 C 194.75258 287.57176 193.23564 287.23786 191.78125 287.6875 C 190.5771 288.05977 189.32518 288.27327 188.1875 288.625 C 186.97807 288.99892 180.70966 289.80684 179.46875 290.15625 C 179.69606 291.47558 179.80981 293.06547 180.0625 294.15625 C 180.46688 295.90174 180.18392 298.2358 181.28125 297.90625 C 181.37085 297.87945 181.47929 297.86795 181.59375 297.84375 C 182.48041 297.86815 184.3638 298.06858 185.125 297.96875 C 186.89286 297.95325 188.07375 297.9881 189.5625 297.9375 C 190.89088 297.8926 193.07461 297.51783 194.96875 297.15625 C 195.11973 298.31723 195.54186 299.89097 195.53125 300.375 C 195.52725 300.53569 195.43125 301.30168 195.53125 301.40625 C 195.55885 301.43505 195.80528 301.4098 196.1875 301.375 C 196.1785 301.384 196.15645 301.4297 196.15625 301.4375 C 196.15529 301.4815 200.31724 302.28609 200.71875 302.25 C 201.06382 302.258 205.88231 301.77163 207.15625 301.46875 C 208.16588 301.22873 210.83545 301.18419 211.6875 300.78125 C 212.40719 300.4409 215.34219 300.24023 216.65625 300 C 216.74345 299.984 216.84763 299.9534 216.9375 299.9375 C 216.9385 300.11463 216.9388 300.52563 216.9375 300.65625 C 216.9113 303.48865 218.13397 315.38143 218.15625 317.28125 C 218.18335 319.59706 218.77706 341.83638 219.4375 345.59375 C 220.1075 349.40542 219.82412 364.39368 220.6875 368.875 C 220.95993 370.28895 221.12335 372.93119 221.21875 375.8125 L 217.0625 376 C 217.41731 377.48295 216.4373 380.60845 217.5 381.71875 C 217.5284 381.74845 219.34436 381.58623 219.6875 381.59375 C 220.25365 381.60615 220.81618 381.59775 221.375 381.59375 C 221.4002 383.82649 221.363 385.99195 221.375 387.65625 C 221.4072 391.9924 222.5763 404.03228 222.5625 405.4375 C 222.53674 408.06301 222.83703 419.06495 223.25 424.78125 L 232.6875 424.71875 C 232.80399 422.55164 232.89229 420.12513 232.875 419.03125 C 232.62936 415.87914 232.8199 413.24611 232.34375 410 C 232.12081 407.01014 232.13066 403.08573 232.09375 402.5625 C 231.83117 398.83971 231.65382 395.36561 231.71875 393.8125 C 231.78965 392.11708 231.73925 386.19313 231.65625 385.59375 C 231.4543 384.33048 231.29135 382.7139 231.1875 381.1875 C 232.19276 381.1515 233.16898 381.13535 234.125 381.15625 C 235.005 381.17555 239.05282 380.60907 241.84375 380.75 C 244.33904 380.87599 249.5818 380.34182 252.71875 380.125 C 255.23352 380.1821 258.50083 379.93362 264.09375 379.28125 C 264.10405 379.82974 264.10855 380.38728 264.03125 380.9375 C 263.84074 383.60709 263.82508 386.80271 263.875 389.28125 C 263.879 390.20241 263.42924 398.64473 263.53125 400.90625 C 263.60035 402.43963 262.9599 411.22211 262.96875 413.34375 C 262.97955 415.94551 262.9263 418.97575 263 421.5 C 262.98759 422.07475 262.85881 423.27048 262.75 424.46875 L 272 424.375 C 272.07878 421.22283 272.34842 416.21723 272.34375 414.28125 C 272.34275 413.79829 272.76384 408.41312 272.46875 409.84375 C 272.38595 410.24524 272.78418 404.03355 273 403.15625 C 272.85721 401.86346 273.05539 395.9366 273.125 393.8125 C 273.58168 392.16252 273.2903 388.40794 273.21875 387.46875 C 273.17325 386.87116 273.18905 385.89456 273.21875 384.8125 C 275.97545 384.7656 279.74197 384.67756 282.34375 384.3125 C 284.82243 384.2578 291.00753 384.09938 294.78125 383.84375 C 294.58918 386.46864 294.37421 389.40815 294.3125 391.875 C 294.2538 394.23249 293.44797 399.58498 293.46875 402.28125 C 293.48525 404.41057 292.24288 412.37885 292.1875 414.90625 C 292.1364 417.24112 291.63377 419.48557 291.4375 421.8125 L 291.21875 424.21875 L 302.53125 424.125 C 302.55754 423.71535 302.61994 423.10586 302.625 422.875 C 302.6605 421.2539 303.3038 419.22935 303.34375 417.40625 C 303.36525 416.42331 304.15614 410.39027 304.53125 410.03125 C 304.94565 409.63462 304.96462 398.83315 305 397.21875 C 305.0182 396.38839 305.40962 395.66881 305.5 394.78125 C 305.76704 392.38664 306.32253 385.91939 306.59375 382.96875 C 306.66215 382.97775 306.74488 382.99 306.8125 383 C 309.90604 383.1362 313.21637 382.84472 316.21875 382.8125 C 319.81765 382.46459 322.04435 382.35381 325.65625 382.0625 C 328.34256 381.59357 332.05427 381.97793 335.3125 381.6875 C 335.3205 381.96142 335.2996 382.22362 335.1875 382.4375 C 334.92534 382.93429 334.73084 383.76078 334.71875 384.3125 C 334.35765 386.52786 334.69963 389.07929 333.71875 390.9375 C 333.3945 391.55195 333.55386 392.42743 333.21875 393.0625 C 332.95968 393.55347 333.16991 394.28154 332.90625 394.78125 C 332.6655 395.23751 333.11577 396.07499 332.875 396.53125 C 332.11729 397.96718 332.53979 400.47206 331.75 401.96875 C 331.40159 402.629 331.87677 403.75147 331.53125 404.40625 C 330.87762 405.6449 330.95034 409.64026 330.6875 411.03125 C 330.40276 412.53802 330.26989 417.06402 330.09375 418.09375 C 329.9249 419.0809 329.33874 421.6019 328.84375 423.90625 L 338.40625 423.84375 C 338.80305 421.2171 339.15619 418.45673 339.4375 418.1875 C 339.70456 417.9319 339.28929 416.87129 339.46875 416.53125 C 340.51809 414.5427 340.13331 409.03385 340.84375 407.6875 C 341.14345 406.10896 341.52008 402.33646 341.8125 400.34375 C 342.11595 399.0779 341.92611 397.58753 342.5 396.5 C 343.69958 394.22676 343.39914 390.33614 343.96875 387.875 C 344.44091 385.83492 344.52434 383.62617 344.75 381.4375 C 348.75112 381.17983 350.81169 382.85479 350.90625 378 C 351.7101 373.37737 348.35239 374.70801 345.875 374.90625 C 346.23258 373.45805 346.76636 371.67953 346.78125 371 C 346.79705 370.27899 347.92603 363.5315 348.1875 363.28125 C 348.65955 362.82943 348.00174 356.75342 348.53125 355.75 C 348.86942 355.10911 348.60052 352.72458 349.03125 352.3125 C 349.7283 351.64533 349.53123 348.01385 349.9375 347.625 C 351.36001 346.2635 351.48634 334.94344 352.75 332.1875 C 352.54461 331.97292 353.63072 328.47786 353.65625 327.3125 C 353.68705 325.90934 354.22377 322.55318 354.8125 321.4375 C 355.3018 320.51026 354.40759 317.62416 355.125 316.9375 C 355.80239 316.28916 355.48475 314.015 356.21875 313.3125 C 356.51925 313.02487 356.04809 311.85141 356.25 311.46875 C 356.58979 310.82483 356.17208 309.84016 356.5 309.21875 C 358.61489 305.2109 357.01071 298.86155 359.46875 294.8125 C 359.49065 293.81391 361.81605 278.01713 362.0625 277.78125 C 363.03188 276.78122 363.61564 270.76412 364.15625 268.8125 C 363.93708 268.7401 363.64049 268.66812 363.40625 268.59375 C 363.38315 268.56715 363.34725 268.50357 363.34375 268.5 C 362.99764 268.13838 362.51059 267.86528 361.96875 267.65625 C 362.04385 266.2876 362.0362 264.85641 362.0625 263.65625 C 362.0869 262.54096 362.04885 258.7808 362.03125 255.28125 C 362.13891 255.03552 362.24316 254.77852 362.34375 254.53125 C 362.79244 253.68095 363.94863 251.45647 364.5625 249.90625 C 365.15676 248.40559 366.70896 245.01187 367.25 243.5 C 368.26751 241.30207 369.4037 239.52242 370.75 236.90625 C 371.83359 234.85279 373.74114 231.11503 374.5 229.0625 C 375.03915 227.45401 377.01242 224.1039 377.8125 221.6875 C 379.0928 218.86746 380.19594 218.32002 380.5 215.625 C 382.06706 215.24243 383.78834 214.8017 384.28125 214.8125 C 384.69806 214.8215 394.16227 212.10984 395.1875 211.625 C 395.99701 211.24218 399.44638 211.1955 399.78125 210.875 C 400.37006 210.31141 411.22877 208.57239 413.5625 207.46875 C 414.38407 207.08022 415.55771 207.29419 416.40625 206.96875 C 419.56629 205.7568 424.80137 204.88984 426.78125 204.34375 C 429.19883 203.67692 431.31181 203.32382 433.65625 203.0625 C 436.83287 202.26641 442.87768 200.95015 445.6875 200.46875 C 446.17607 200.38505 446.90244 200.64605 447.375 200.5 C 450.07558 199.66508 451.91398 199.2035 454.59375 198.375 C 455.3804 198.1318 459.01672 197.69052 459.75 197.34375 C 461.26784 196.62594 465.91762 196.00393 467.5 195.5 C 470.24339 194.62632 474.11028 194.78915 479.28125 192.34375 C 480.38272 191.82286 486.03271 191.24067 488.46875 190.25 C 491.75184 188.91487 496.31167 188.95548 499.65625 187.65625 C 501.59408 186.90349 506.65539 186.34648 510.5625 184.71875 C 511.78979 184.20745 515.79141 184.14813 515.78125 183.78125 C 515.99502 183.74005 516.18846 183.71521 516.25 183.65625 C 516.5214 183.39654 516.85852 180.56067 516.53125 180.21875 C 515.68901 179.33877 514.46295 178.28595 513.53125 177.3125 C 513.06474 176.82511 511.96214 176.48986 511.34375 175.84375 L 506.8125 171.125 C 505.89968 170.17128 504.67874 169.72594 503.625 168.625 C 502.62123 167.57626 498.85338 163.27486 497.71875 163.25 z M 498.53125 170.84375 C 498.54025 170.84175 498.553 170.84598 498.5625 170.84375 C 498.69239 170.95959 498.83558 171.04976 498.9375 171.15625 C 499.90876 172.17103 502.00309 174.79098 503.25 176.09375 C 503.50084 176.35583 503.86588 176.65583 504.25 176.9375 C 503.81096 177.0287 503.39209 177.11862 503.3125 177.15625 C 502.10454 177.72751 500.78367 177.40602 499.59375 177.96875 C 497.07043 179.16204 484.63274 181.91583 483.5 183 C 483.29906 183.19232 479.12133 183.97603 478.34375 184.34375 C 477.12088 184.92204 475.24365 184.23923 474.03125 184.8125 C 472.71071 185.43701 464.87978 187.17621 463.96875 187.15625 C 462.54926 187.12515 455.79191 189.11438 455.0625 189.8125 C 455.025 189.8484 454.6514 189.95009 454.125 190.09375 C 454.12422 190.08365 454.12823 190.0658 454.125 190.0625 C 454.028 189.96116 453.74926 190.03609 453.625 189.90625 C 453.47337 189.74783 453.26329 189.48269 453 189.34375 C 452.54768 189.10507 452.28592 188.65089 451.8125 188.15625 C 451.28836 187.60862 450.51171 187.43946 450.03125 186.9375 C 449.34176 186.21712 448.57563 185.28524 447.84375 184.46875 C 448.88814 184.13253 450.39258 183.68382 450.78125 183.5 C 450.92519 183.4319 456.59187 182.0996 457.96875 181.625 C 459.44411 181.11645 461.78385 180.98077 463.25 180.5 C 465.9286 179.62166 472.96175 177.82143 474.46875 177.25 C 475.70362 176.78173 481.75567 175.6252 483.375 174.84375 C 485.48535 173.82534 494.34499 170.97581 496.875 171.03125 C 497.02541 171.03425 497.60172 170.99945 498.53125 170.84375 z M 437.71875 188.0625 C 438.81004 188.80989 440.63502 189.74648 440.9375 190.0625 C 441.89807 191.06611 443.13879 191.6664 444.125 192.6875 C 441.64262 193.34614 439.40303 193.97412 438.6875 194.3125 C 437.97936 194.64735 437.35955 194.21341 436.6875 194.53125 C 433.52921 196.02483 419.92677 198.8505 418.5625 200.15625 C 418.46135 200.25305 417.95485 200.41716 417.25 200.5625 C 416.47668 200.30017 415.97052 199.70215 415.46875 199.0625 C 413.93865 198.19374 411.2034 196.42196 409.8125 194.96875 C 409.52403 194.66736 409.18497 194.48744 408.84375 194.3125 C 409.90886 194.16686 411.2116 194.43173 412.125 194 C 413.88923 193.16567 424.0893 191.44699 424.78125 191.15625 C 426.31487 190.51181 433.81933 189.0958 437.71875 188.0625 z M 398.28125 196.5625 C 398.25165 197.09146 401.8726 198.91538 402.3125 199.375 C 403.27933 200.38514 404.57348 200.96668 405.5625 202 C 405.78492 202.23239 406.04453 202.53954 406.375 202.84375 C 404.01245 203.38984 401.47195 203.88222 399.0625 204.59375 C 395.88178 205.53301 390.77446 205.68364 389.3125 206.375 C 385.10842 208.36315 378.3004 207.71252 375.8125 210.09375 C 375.46429 210.42703 373.74408 210.07859 373.25 210.3125 C 372.94872 210.45498 372.70187 210.61131 372.53125 210.8125 C 372.42732 210.8165 372.31589 210.81155 372.21875 210.84375 C 372.12195 210.87535 372.05295 210.91057 371.96875 210.96875 C 369.46864 209.29816 366.35856 207.32993 363.6875 205.84375 C 363.7325 205.71751 363.80356 205.59808 363.84375 205.46875 C 363.79195 205.41465 363.66915 205.34213 363.59375 205.28125 C 367.72583 204.70921 375.71371 202.87625 376.53125 202.09375 C 378.61675 200.09768 390.05058 199.50021 391.78125 197.84375 C 392.57204 197.08688 395.31685 198.08868 396.0625 197.375 C 396.36817 197.08244 397.20747 196.81612 398.28125 196.5625 z M 338.25 204.625 C 338.87517 204.96622 339.4176 205.32015 339.5 205.40625 C 340.4212 206.36872 341.89131 206.53754 342.8125 207.5 C 343.27569 207.98395 345.94219 209.04506 346.5625 209.40625 C 347.6817 210.05793 348.82036 210.65536 349.90625 211.25 C 349.60084 211.98707 349.31622 212.60846 349.03125 213.03125 C 348.71423 213.5016 347.66977 216.37561 347.40625 216.875 C 346.537 218.52226 346.16402 219.76458 345.71875 221.28125 C 345.3593 222.50561 344.66622 223.54189 344.375 224.09375 C 343.79245 225.19771 343.61167 225.79062 342.84375 228.0625 C 342.43754 229.00006 342.04403 229.77243 341.6875 230.5625 C 341.57548 230.67347 341.46114 230.7939 341.34375 230.90625 C 340.73726 231.48673 340.0228 231.57151 339.28125 232.28125 L 335.65625 235.75 C 335.66125 235.675 335.65225 235.53934 335.65625 235.46875 C 335.80882 233.3934 336.1914 230.42085 336.25 228.25 C 336.2972 226.50539 336.73355 223.67564 336.96875 222.15625 C 337.20032 220.66036 337.67113 215.38672 337.96875 213.71875 C 338.10229 211.41744 337.56599 208.66469 338.3125 207.25 C 338.66033 206.59086 338.61105 205.49026 338.25 204.625 z M 335.28125 205.125 C 335.05949 206.67338 335.24395 209.39983 335.21875 210.84375 C 334.8946 211.91804 334.72251 215.34561 334.5 216.28125 C 334.36667 217.79201 333.81371 220.53119 333.875 222.5625 C 333.9205 224.07297 333.42285 226.47177 333.4375 228.34375 C 333.4477 229.6378 333.02619 232.96975 332.625 234.6875 C 332.51264 235.16879 332.34183 237.08416 332.1875 238.90625 C 331.53452 239.35567 330.8207 239.79751 330.25 240.34375 C 329.03464 241.50699 327.51257 242.78755 326.34375 243.90625 C 326.00201 244.23333 324.88197 244.66697 324.46875 245.0625 C 323.36787 246.11616 323.19255 246.96774 321.40625 247.8125 C 320.64438 248.17279 320.56243 249.02553 319.96875 249.59375 C 319.67291 249.8769 319.19145 250.22038 318.75 250.53125 C 317.69722 250.18182 316.58668 249.88338 316.15625 249.65625 C 316.01551 249.58205 314.92872 249.17732 314.125 249.03125 C 314.78494 247.57035 315.28007 246.22272 315.5625 245.6875 C 319.29515 238.61393 322.40038 231.3045 324.65625 227.46875 C 325.23516 226.48442 329.80592 215.92754 330.375 214.9375 C 331.39515 213.16272 332.22911 209.90303 333.71875 207.125 C 334.28535 206.45421 334.81234 205.78649 335.28125 205.125 z M 363.34375 214.71875 C 365.28652 215.62079 367.23754 216.52822 368.25 217.0625 C 368.37148 217.1266 368.69607 217.38797 369 217.625 C 368.9173 217.80791 368.87848 218.00323 368.78125 218.1875 C 368.5575 218.61152 368.05015 220.30683 367.40625 221.59375 C 366.89006 222.9442 366.12777 224.61986 365.78125 225.40625 C 365.05689 226.89625 364.55348 228.20447 363.8125 229.78125 C 363.45242 230.70002 362.83264 231.49718 362.40625 232.5 C 362.47865 227.86747 362.52019 223.17975 362.5625 221.25 C 362.6087 219.14262 364.18468 216.21431 363.34375 214.71875 z M 323.03125 218.0625 C 322.57676 219.18371 322.19009 220.3015 321.78125 221.15625 C 321.36334 222.0299 319.78552 225.70701 319.21875 227.34375 C 318.63984 229.01556 316.89159 233.02016 315.09375 235.53125 C 313.2362 238.12574 311.29423 244.82401 309.03125 249.5 C 307.14258 250.04837 304.86483 250.83558 303.8125 251.125 C 303.8205 252.04453 303.7966 253.14011 303.75 254.3125 C 302.27554 255.38363 300.82553 257.03264 299.96875 258.65625 C 299.47004 259.60134 299.69922 261.29549 299.09375 261.875 C 297.43394 263.46364 296.37649 266.17302 294.9375 268.1875 C 294.41756 268.9154 293.76881 270.05739 293.03125 271.375 C 292.98905 271.3924 292.95548 271.39855 292.90625 271.40625 C 292.24576 271.51001 291.51707 271.44021 290.875 271.625 C 289.43987 272.03796 287.96097 272.27048 286.5 272.5 C 286.1242 272.5591 285.71921 272.54766 285.34375 272.625 C 284.00082 272.902 283.42016 272.53277 282.0625 272.8125 C 281.29413 272.97098 280.0618 273.06488 279.28125 273.1875 C 278.51208 273.30835 277.19945 273.75531 276.4375 273.875 C 275.06795 274.09016 274.23179 274.35497 272.8125 274.53125 C 272.00614 274.63142 271.20392 274.59339 270.40625 274.71875 C 269.26021 274.89879 267.71304 275.1005 266.5625 275.28125 C 266.01567 275.36705 265.4331 275.51308 264.875 275.65625 C 264.99525 275.55144 265.17813 275.39335 265.28125 275.3125 C 266.64274 274.24495 266.96273 274.27229 267.3125 273.9375 C 268.45287 272.84605 269.80349 270.83361 272 268.3125 C 273.55206 266.53107 275.88594 264.86808 277.25 263.5625 C 278.05316 262.79379 281.07483 260.51453 281.90625 259.71875 C 283.51001 258.18376 283.85207 257.96251 285.40625 256.0625 C 286.55677 254.65595 287.89553 253.72675 288.6875 252.96875 C 290.43673 251.29452 291.19703 250.36004 292.78125 248.84375 C 294.44877 247.24774 294.52528 247.13694 295.84375 245.875 C 296.51802 245.22964 297.79694 243.35773 298.5625 242.625 C 300.19471 241.06278 300.86237 239.87322 302.65625 238.15625 C 303.18175 237.65328 306.05001 235.07433 307.90625 233.6875 C 309.74875 232.31093 311.19444 229.68621 312.5625 228.65625 C 314.24093 227.39262 320.4673 220.58261 322.21875 218.90625 C 322.51186 218.62571 322.74905 218.3404 323.03125 218.0625 z M 358.96875 219 L 358.90625 222.40625 C 358.79853 227.323 358.2733 232.7828 358.15625 238.125 C 358.15225 238.31821 358.14982 239.51131 358.125 240.875 C 357.60476 241.91368 357.25087 243.23011 356.90625 244.0625 C 356.36458 245.38487 355.50817 246.85563 354.96875 248.3125 C 354.66399 249.13276 354.12612 250.34231 353.5625 251.59375 C 353.67181 250.02866 353.83661 248.11979 354.125 247.84375 C 354.1857 247.78565 354.7174 243.85177 354.78125 243.4375 C 355.13852 241.11906 355.31588 239.00753 355.5 237.15625 C 355.92136 235.64617 356.21564 228.82663 356.6875 228.375 C 356.85734 228.21244 356.94865 225.57235 357.1875 225.34375 C 357.29689 225.23904 357.63977 221.97951 357.84375 220.53125 C 357.87645 220.29979 357.913 220.01361 357.9375 219.75 C 358.2904 219.50582 358.63483 219.25381 358.96875 219 z M 354.15625 227.3125 C 354.13905 228.41471 354.16045 229.51226 354.09375 230.28125 C 353.98845 231.50351 353.34435 234.70031 353.09375 236.40625 C 352.84526 238.09789 351.7694 244.78222 351.71875 247.09375 C 351.69155 248.3336 351.21281 252.56957 350.84375 254.5 C 350.6127 255.70857 350.72409 258.11144 350.15625 259.1875 C 350.12575 259.2455 350.11715 259.34734 350.09375 259.4375 C 349.98801 259.68322 349.74382 260.26498 349.71875 260.3125 C 349.36483 260.98319 349.0921 261.71065 348.84375 262.40625 C 347.62697 261.94241 346.2415 261.46592 345.0625 260.84375 C 344.31759 260.45068 341.96432 259.85347 340.9375 259.40625 C 340.50778 259.21909 340.07252 259.07881 339.625 258.90625 C 340.43567 257.37473 341.23038 255.88111 341.84375 254.71875 C 342.91951 252.5748 343.65492 249.91662 344.1875 248.53125 C 345.23276 246.90361 346.71323 243.96081 347.96875 241.96875 C 348.84552 240.18979 349.55147 238.11418 350.625 235.90625 C 351.22564 233.94731 351.66929 232.63173 352.25 231.53125 C 352.72847 230.62454 352.98393 229.28463 353.9375 227.75 C 354.0268 227.60639 354.07834 227.45123 354.15625 227.3125 z M 338.96875 237.125 C 338.5504 238.11497 338.11797 239.55457 337.59375 240.65625 C 336.71979 242.47076 335.71287 245.06543 335.3125 246.15625 C 335.05374 246.86121 334.66401 247.90336 334.25 248.90625 C 334.45707 247.33814 334.67816 245.49197 334.90625 243.3125 C 335.01432 242.55292 335.13933 241.46909 335.25 240.40625 C 336.20964 239.60342 337.26635 238.7879 338.1875 237.90625 C 338.46529 237.64037 338.70629 237.38723 338.96875 237.125 z M 331.6875 243.6875 C 331.34006 246.63012 330.74689 252.5818 330.625 255.125 C 330.23927 254.97416 329.77435 254.78999 329.375 254.625 C 328.84217 254.40488 327.10773 253.92747 326.59375 253.65625 C 326.13708 253.41527 324.23797 252.64295 323.71875 252.3125 C 323.56638 252.2155 323.36142 252.14149 323.15625 252.0625 L 323.53125 251.71875 C 325.45761 249.875 326.58843 248.58897 328.28125 246.96875 L 331.6875 243.6875 z M 303.25 262.34375 C 303.2184 262.77452 303.18855 263.19335 303.15625 263.625 C 302.82428 263.97757 302.51917 264.33576 302.25 264.75 C 301.79399 265.11696 301.19778 265.70617 300.59375 266.34375 C 301.48145 265.04211 302.40127 263.70138 303.25 262.34375 z M 317.25 262.5625 C 317.3177 262.6152 317.36565 262.64213 317.4375 262.6875 C 318.51186 263.25443 319.75087 263.48582 320.84375 264.0625 C 321.37468 264.34267 321.89701 264.35628 322.40625 264.625 C 323.10498 264.99371 324.2943 264.93838 325.0625 265.34375 C 325.36617 265.50401 325.70969 265.51684 326.0625 265.59375 C 324.95413 265.99656 323.75161 266.17038 322.59375 266.5 C 322.23303 266.4851 321.95123 266.74988 321.625 266.84375 C 321.18663 266.96989 320.64366 266.92281 320.1875 266.96875 C 319.65479 267.02225 319.12194 267.19683 318.59375 267.25 C 317.87544 267.3224 317.25243 267.3991 316.625 267.5 C 316.66 265.80999 316.69135 264.12792 316.90625 263.71875 C 317.05877 263.42972 317.16693 263.02423 317.25 262.5625 z M 357.4375 264.46875 C 357.3874 264.95854 357.30091 265.43202 357.25 265.9375 C 357.0778 265.8634 356.9184 265.79416 356.75 265.71875 C 357.00089 265.23491 357.18461 264.95879 357.4375 264.46875 z M 326.5625 265.75 C 326.5856 265.7606 326.6027 265.76955 326.625 265.78125 C 327.15412 266.06047 327.75588 266.22278 328.28125 266.5 C 328.41872 266.5723 329.36258 266.86498 329.5 266.9375 C 329.78257 267.04876 330.07676 267.15196 330.375 267.25 C 329.95441 267.1501 329.49685 267.06754 329.125 267 C 328.36255 266.61628 327.87773 266.67161 326.9375 266.25 C 326.75859 266.1698 326.60671 266.13431 326.46875 266.125 C 326.49575 265.97497 326.5456 265.87347 326.5625 265.75 z M 331.4375 267.625 C 331.68728 267.7064 331.94743 267.7779 332.21875 267.875 C 332.67298 268.03756 334.15761 268.41016 334.65625 268.5625 C 335.12061 268.70435 335.71513 268.96254 336.4375 269.125 C 337.1731 269.47672 338.5262 270.03366 338.78125 270.15625 C 339.44148 270.47354 340.86785 270.99896 341.875 271.34375 C 341.72743 271.42155 341.57694 271.51405 341.46875 271.59375 C 339.93503 271.89015 339.06794 272.02447 337.4375 272 C 336.77447 271.9178 335.72024 272.56175 335 272.375 C 334.15273 272.52214 332.4451 272.48712 331.75 272.75 C 331.91525 271.45982 331.89312 269.17678 331.875 268.21875 C 331.87 267.96718 331.70838 267.78209 331.4375 267.625 z M 302.71875 269.59375 C 302.71175 269.68365 302.72554 269.7858 302.71875 269.875 C 302.56876 269.9014 302.40073 269.9141 302.25 269.9375 C 302.39573 269.81129 302.55092 269.70087 302.71875 269.59375 z M 347.0625 273.25 C 347.74576 273.49811 348.49991 273.65619 349.09375 273.75 C 349.27238 273.93663 349.77041 273.98168 349.9375 274.15625 C 350.12913 274.35646 350.70969 274.25504 351.03125 274.40625 C 351.07035 274.42695 351.12006 274.4426 351.1875 274.4375 C 351.04507 275.22521 350.92485 275.93504 350.875 276.40625 C 350.865 276.49755 350.8242 276.62159 350.8125 276.71875 C 344.71918 282.58927 340.2746 290.19671 333.65625 296.53125 C 332.70554 297.44121 332.45606 299.30101 331.5625 300.15625 C 328.54274 303.04652 327.52754 306.55764 324.8125 309.15625 C 324.23856 309.70559 324.24044 310.84843 323.625 311.4375 C 322.78838 312.23822 321.88444 314.46866 320.9375 315.375 C 317.48045 318.68381 314.53563 322.06524 311.84375 325.78125 C 311.86615 325.22004 311.9367 324.59991 311.9375 324.125 C 311.9549 322.02868 312.65542 318.49575 312.6875 317.03125 C 312.7446 314.42456 312.92214 302.27768 313.84375 300.53125 C 314.11585 300.01564 314.22745 293.43578 314.25 292.40625 C 314.2701 291.49031 314.48443 287.90628 314.78125 284.0625 C 315.47343 284.0122 316.17186 283.98878 316.875 283.65625 C 318.63604 283.52168 320.93695 282.91205 323.25 282.65625 C 325.69806 282.2056 329.01428 281.54455 331.625 281.1875 C 333.53925 280.84056 335.62507 280.19224 336.6875 280.0625 C 337.69272 279.58713 339.70367 279.53064 340.71875 279.25 C 341.93614 279.10657 343.56799 278.91326 346.21875 278.125 C 346.33619 278.1103 346.3466 278.0787 346.4375 278.0625 C 346.57463 278.0209 346.66984 278.01365 346.8125 277.96875 C 346.8215 277.96375 346.90135 277.97275 346.90625 277.96875 C 347.13639 277.74847 346.9298 276.10391 346.9375 275.75 C 346.9531 275.03957 346.76015 273.86698 347.0625 273.25 z M 349.9375 281.75 C 349.9235 281.8191 349.91835 281.97146 349.90625 282.03125 C 349.75905 282.7537 349.4558 285.13345 349.4375 285.96875 C 349.4085 287.29116 349.34904 288.45537 348.78125 289.53125 C 347.61607 291.84452 348.52638 296.68658 347.4375 298.75 C 347.15893 299.27791 347.37878 300.08521 347.09375 300.625 C 346.67287 301.42262 347.07461 303.0151 346.4375 303.625 C 346.3496 303.7091 346.26387 308.0098 345.90625 308.6875 C 345.56728 309.32987 345.82684 312.59762 345.40625 313 C 344.42381 313.94032 344.2534 321.16105 344.0625 321.34375 C 343.43089 321.94828 343.24113 325.04076 343.21875 326.0625 C 342.13521 328.58797 342.97148 331.87604 341.71875 334.25 C 341.35179 334.94542 341.62368 335.97929 341.25 336.6875 C 340.87811 337.39221 341.30818 338.3946 340.90625 339.15625 C 340.42283 340.07237 341.0473 342.75722 340.375 344.03125 C 340.01386 344.71563 340.70492 345.94061 340.34375 346.625 C 339.68514 347.87309 340.21984 349.96753 339.625 351.09375 C 338.77421 353.04486 339.27543 359.18015 338.125 360.28125 C 337.94906 360.44967 337.86852 362.34775 337.65625 362.75 C 337.26941 363.48308 337.85429 364.7069 337.46875 365.4375 C 336.93317 366.45246 336.9301 367.86062 336.5 369.0625 C 336.11404 370.14099 336.53209 371.64803 336 372.65625 C 335.7793 373.07447 336.18937 373.83177 335.96875 374.25 C 335.772 374.62285 335.66666 375.07483 335.625 375.625 C 332.65008 375.5658 329.743 376.39468 326.75 376.21875 C 323.74302 376.9967 320.60856 376.89201 317.53125 377.375 C 314.88813 377.58217 312.20705 377.11669 309.53125 377.5625 C 308.73899 377.44445 307.93513 377.40913 307.15625 377.40625 C 307.38005 375.34832 307.63351 373.17867 307.8125 372 C 308.103 370.08711 308.16986 364.82708 308.8125 363.03125 C 309.48706 361.14616 309.5134 359.36622 309.5625 357.125 C 309.5665 356.96538 310.27847 348.28255 310.21875 346.34375 C 310.58463 343.79803 311.20545 337.39943 311.21875 336.375 C 311.22885 335.54711 311.32379 334.41405 311.40625 333.1875 C 312.86595 331.21084 314.20262 329.06004 316.09375 327.25 C 318.10617 325.32388 319.66 321.95128 321.4375 320.25 C 322.28408 319.43973 322.65307 318.24811 323.5 317.4375 C 324.54302 316.43921 326.68554 312.95096 327.875 311.8125 C 329.53943 310.21945 329.91143 307.92937 331.4375 306.46875 C 331.9394 305.98837 334.65394 302.50935 335.21875 301.96875 C 337.75176 299.54436 338.31445 296.55791 340.5625 294.40625 C 341.48915 293.51933 341.62371 292.53424 342.3125 291.875 C 344.59646 289.68898 346.94559 285.73283 349.34375 283.4375 C 349.7291 283.06869 349.75467 282.33039 349.9375 281.75 z M 301.625 286.53125 C 300.9919 288.03151 300.20061 301.06912 300.15625 303.09375 C 300.05028 305.4877 298.52082 313.7706 299.25 315.3125 C 299.37106 315.56849 299.6917 318.28124 299.59375 318.375 C 299.01598 318.92798 298.18959 326.60307 298.15625 328.125 C 298.33828 332.53019 297.56436 336.19867 297.46875 340.5625 C 297.46075 340.92366 296.88611 342.43231 297.25 342.8125 C 297.36909 342.93694 297.41231 343.89831 297.46875 345.03125 C 296.75473 345.79234 296.11094 346.57257 295.6875 347.375 C 294.83024 348.99954 292.37907 350.83498 291.03125 352.125 C 289.89555 353.21199 289.5837 355.20607 288.65625 356.09375 C 287.11207 357.57171 286.24572 359.7653 284.53125 361.40625 C 283.57696 362.31962 283.47185 363.8225 282.4375 364.8125 C 281.92508 365.30295 280.24108 367.46482 279.8125 367.875 C 277.95753 369.65043 277.38932 371.20832 276.375 372.75 C 275.53506 372.7902 274.71678 372.81265 273.8125 372.84375 C 273.841 372.25216 273.8768 371.58736 273.875 371.15625 C 273.873 370.66852 273.5481 367.01582 273.71875 366.84375 C 273.82517 366.73639 274.12763 361.28375 274.125 360.65625 C 274.121 359.60706 273.75502 355.77905 274.125 355.03125 C 274.47144 354.33108 274.50312 351.28211 274.5 350.53125 C 274.498 350.06603 274.496 347.0078 274.5 345.78125 C 274.505 344.1371 274.82627 341.89701 274.75 340.3125 C 274.743 338.6258 274.80539 334.53193 274.875 333.53125 C 274.99258 331.8395 274.66668 327.44137 275 325.75 C 275.1548 324.9644 274.98418 321.51811 275.25 321.25 C 275.90319 320.59135 275.50977 310.77659 275.65625 308.875 C 275.71595 308.54449 275.7355 308.06774 275.75 307.53125 C 275.789 307.49145 275.83555 307.41273 275.875 307.375 C 279.9142 303.509 282.04451 297.93222 283.875 295.0625 C 284.52304 294.04654 285.71448 291.38688 286.9375 289.03125 C 287.74041 288.88194 288.43925 288.75665 288.9375 288.625 C 291.0252 288.28389 295.21566 287.63282 297.21875 287.28125 C 297.99443 286.9177 299.7984 286.71035 301.625 286.53125 z M 229 288.875 C 228.9864 289.26538 228.9046 289.63418 228.84375 289.84375 C 228.93735 289.88045 229.07729 289.88615 229.1875 289.90625 C 229.1795 289.90825 229.03125 289.9375 229.03125 289.9375 C 229.04485 290.28845 229.0915 290.64946 229.125 291 C 229.039 291.0523 228.98262 291.14761 228.96875 291.25 C 228.94395 291.43307 228.92035 291.63807 228.90625 291.84375 C 228.88285 291.33575 228.86955 290.59258 228.84375 290.28125 C 228.81525 289.93782 228.79995 289.42096 228.78125 288.96875 C 228.85555 288.93955 228.93532 288.9042 229 288.875 z M 282.1875 289.90625 C 280.74412 292.20712 279.5425 295.13616 277.5625 297.03125 C 277.23827 297.34157 276.68682 298.16932 276.0625 299.125 C 276.0675 299.01565 276.0565 298.88441 276.0625 298.78125 C 276.1129 297.83332 276.16416 294.18071 276.21875 291 C 277.49732 290.76875 278.85179 290.50456 280 290.34375 C 280.66394 290.18558 281.42177 290.05371 282.1875 289.90625 z M 265.5 292.71875 C 265.5228 292.71775 265.5396 292.71975 265.5625 292.71875 C 265.5565 294.40198 265.55125 295.9711 265.53125 297.09375 C 265.48385 299.78228 265.13246 304.11643 265.34375 305.90625 C 265.11347 307.38956 265.19566 310.61607 264.96875 312.21875 C 264.85479 313.02365 264.99223 315.45007 265.09375 317.28125 C 264.43721 318.25131 263.85273 319.14102 263.375 319.75 C 261.84949 321.69458 260.49926 325.68156 258.46875 327.625 C 256.8393 329.18458 256.4466 332.31632 254.6875 334 C 252.81634 335.79091 250.85849 339.25779 248.875 341.15625 C 247.56553 342.40955 247.11801 345.6063 245.53125 347.125 C 244.29007 348.31297 243.54191 350.35054 242.40625 351.4375 C 241.1263 352.66258 239.52112 355.33516 238.5 356.3125 C 236.23853 358.47699 234.0333 363.21593 232.59375 364.59375 C 231.97822 365.18289 231.52471 365.85229 231.125 366.53125 C 230.96646 361.87701 230.53467 354.88726 230.34375 352.125 C 230.1027 349.16218 229.77332 339.1446 229.71875 341.53125 C 229.67145 343.59902 229.92955 331.86138 229.875 331.1875 C 229.77309 329.91614 229.76654 321.25161 229.6875 319.96875 C 229.58109 318.24225 229.17271 308.69068 229.15625 306.53125 C 229.18005 305.44667 229.15716 301.8548 229.09375 298.25 C 229.52112 298.69652 233.39898 297.60635 234.25 297.625 C 235.21312 297.6461 242.8859 296.50409 243.6875 296.125 C 244.24184 295.86285 246.00198 296.26198 246.40625 295.875 C 246.83919 295.46061 250.21606 295.28837 251.15625 294.84375 C 252.2446 294.32906 253.77682 294.99143 254.75 294.53125 C 255.07602 294.37706 256.26145 294.47966 256.46875 294.28125 C 257.12621 293.65198 263.99867 293.06993 265.5 292.71875 z M 229.0625 297.5 C 229.0838 297.50013 229.13455 297.5 229.15625 297.5 C 229.14415 297.68859 229.11135 297.8284 229.09375 298.09375 C 229.09075 297.88528 229.0664 297.70766 229.0625 297.5 z M 265.09375 322.375 C 265.00845 324.3262 264.90268 326.41762 264.84375 327.5 C 264.73685 329.46185 264.51482 339.04556 264.28125 343.21875 C 264.03954 346.52193 264.7166 350.35444 264.34375 353.78125 C 264.59148 355.70128 264.44311 357.73579 264.375 360.34375 C 264.58466 362.79893 263.72424 365.11424 264.1875 366.03125 C 264.38951 366.4311 264.59313 370.61651 264.5625 373 C 260.66353 372.958 256.1928 372.99546 254.1875 373.25 C 252.2263 373.49894 248.52138 373.681 246.5625 374 C 244.63005 374.31467 238.70135 374.23764 238.28125 374.375 C 237.26318 374.70784 234.38814 374.81394 231.21875 374.9375 C 231.21872 373.94368 231.1968 373.24966 231.1875 372.34375 C 231.2032 372.32745 231.2349 372.2647 231.25 372.25 C 233.72809 369.87818 235.59864 364.94482 237.5 363.125 C 239.91175 360.81666 241.08735 357.64936 242.8125 355.71875 C 244.74678 353.55412 246.17165 349.67272 248.34375 347.59375 C 249.89522 346.10882 250.41357 343.63938 252.09375 342.03125 C 256.53066 337.7846 259.93734 331.2179 262.0625 328.625 C 263.15089 327.29706 263.95941 324.26947 265.09375 322.375 z M 296.8125 353.0625 C 296.54201 355.19526 296.27997 357.93472 296.25 358.5 C 295.97133 363.75658 295.82901 368.14418 295.75 371.75 C 295.7249 371.87559 295.7108 371.99574 295.6875 372.125 C 295.45013 372.0962 295.21428 372.04725 295.03125 372.03125 C 295.02225 371.99805 295.0108 371.96933 295 371.9375 C 291.72395 372.49816 289.66756 371.87886 288.3125 372.0625 C 285.88124 372.39197 282.82412 372.28343 281.1875 372.40625 C 282.91914 371.7824 285.33127 366.51548 286.71875 365.1875 C 288.06059 363.9032 288.50379 361.79499 290.28125 360.09375 C 292.52457 357.94663 294.50923 355.36651 296.8125 353.0625 z M 293.65625 377.8125 C 293.66625 377.824 293.6775 377.83325 293.6875 377.84375 C 293.6915 377.84875 294.66951 377.90655 295.125 377.9375 C 295.121 378.0171 295.12911 378.07756 295.125 378.15625 C 294.23803 378.23675 293.34175 378.30402 292.40625 378.25 C 289.55246 377.95625 286.73569 378.36412 283.96875 378.84375 C 281.7046 379.19645 279.0666 379.21653 276.75 379.1875 L 277 378.96875 C 277.0294 378.94055 277.02905 378.8692 277.03125 378.8125 C 279.1556 378.70888 281.3858 378.50257 282.84375 378.40625 C 285.70331 378.69429 288.53116 377.82094 290.59375 377.90625 C 291.76746 377.94355 292.85667 377.92522 293.65625 377.8125 z "
       transform="translate(0,308.2677)"
       id="path5237" />
    <path
       style="fill:#38a8c0;fill-opacity:1;stroke:#ffffff;stroke-width:1px;stroke-linecap:butt;stroke-linejoin:miter;stroke-opacity:0"
       d="m 542.52679,601.46413 3.90625,-0.53125 58.6875,9.375 9.0625,-17.90625 -63.46875,-10.75 -0.0312,0 -8.15625,19.8125 z"
       id="path4064"
       inkscape:connector-curvature="0" />
    <path
       style="fill:#35c4e2;stroke:#ffffff;stroke-width:1px;stroke-linecap:butt;stroke-linejoin:miter;stroke-opacity:0;fill-opacity:1"
       d="m 524.46429,603.93288 18.0625,-2.46875 8.15625,-19.8125 -18.71875,2.96875 -7.5,19.3125 z"
       id="path4082"
       inkscape:connector-curvature="0" />
    <path
       style="fill:#35c4e2;stroke:#ffffff;stroke-width:1px;stroke-linecap:butt;stroke-linejoin:miter;stroke-opacity:0;fill-opacity:1"
       d="m 490.15179,608.62038 16.90625,-2.3125 6.875,-18.8125 -17.5,2.78125 -6.28125,18.34375 z"
       id="path4124"
       inkscape:connector-curvature="0" />
    <path
       style="fill:#ecf0ef;fill-opacity:1;stroke:#ffffff;stroke-width:1px;stroke-linecap:butt;stroke-linejoin:miter;stroke-opacity:0"
       d="m 474.27679,610.80788 15.875,-2.1875 6.28125,-18.34375 -16.4375,2.59375 -5.71875,17.9375 z"
       id="path4142"
       inkscape:connector-curvature="0" />
    <path
       inkscape:connector-curvature="0"
       id="path5639"
       d="m 490.71429,479.50504 -47.85715,165"
       style="fill:none;stroke:#443535;stroke-width:1px;stroke-linecap:butt;stroke-linejoin:miter;stroke-opacity:1"
       sodipodi:nodetypes="cc" />
    <path
       style="fill:#8ca09d;fill-opacity:1;stroke:#ffffff;stroke-width:1px;stroke-linecap:butt;stroke-linejoin:miter;stroke-opacity:0"
       d="m 459.37562,610.11164 4.74492,-14.71001 -15.89732,1.61607 -3.33683,13.08439 z"
       id="path3942"
       inkscape:connector-curvature="0"
       sodipodi:nodetypes="ccccc" />
    <path
       style="fill:#c9baba;fill-opacity:1;stroke:#ffffff;stroke-width:1px;stroke-linecap:butt;stroke-linejoin:miter;stroke-opacity:0"
       d="m 731.18304,612.18288 -59.8125,-10.125 -10.21875,17.1875 58.71875,9.375 11.3125,-16.4375 z"
       id="path3952"
       inkscape:connector-curvature="0" />
    <path
       style="fill:#809592;fill-opacity:1;stroke:#ffffff;stroke-width:1px;stroke-linecap:butt;stroke-linejoin:miter;stroke-opacity:0"
       d="m 785.37054,621.33913 -54.1875,-9.15625 -11.3125,16.4375 53.28125,8.5 12.21875,-15.78125 z"
       id="path3963"
       inkscape:connector-curvature="0" />
    <path
       style="fill:#38a8c0;fill-opacity:1;stroke:#ffffff;stroke-width:1px;stroke-linecap:butt;stroke-linejoin:miter;stroke-opacity:0"
       d="m 837.05804,630.08913 -51.6875,-8.75 -12.21875,15.78125 50.84375,8.125 13.0625,-15.15625 z"
       id="path3968"
       inkscape:connector-curvature="0" />
    <path
       style="fill:#35c4e2;fill-opacity:1;stroke:#ffffff;stroke-width:1px;stroke-linecap:butt;stroke-linejoin:miter;stroke-opacity:0"
       d="m 534.27679,621.46413 5,-0.53125 56.4375,7.90625 10.4375,-20.59375 -61.59375,-9.0625 -1.15625,0.15625 -9.125,22.125 z"
       id="path4069"
       inkscape:connector-curvature="0" />
    <path
       style="fill:#87dcee;fill-opacity:1;stroke:#ffffff;stroke-width:1px;stroke-linecap:butt;stroke-linejoin:miter;stroke-opacity:0"
       d="m 516.96429,623.27663 17.3125,-1.8125 9.125,-22.125 -18.03125,2.3125 -8.40625,21.625 z"
       id="path4087"
       inkscape:connector-curvature="0" />
    <path
       style="fill:#e6dfdf;fill-opacity:1;stroke:#ffffff;stroke-width:1px;stroke-linecap:butt;stroke-linejoin:miter;stroke-opacity:0"
       d="m 500.21429,625.02663 16.75,-1.75 8.40625,-21.625 -17.4375,2.21875 -7.71875,21.15625 z"
       id="path4110"
       inkscape:connector-curvature="0" />
    <path
       style="fill:#8ca09d;fill-opacity:1;stroke:#ffffff;stroke-width:1px;stroke-linecap:butt;stroke-linejoin:miter;stroke-opacity:0"
       d="m 483.96429,626.74538 16.25,-1.71875 7.71875,-21.15625 -16.90625,2.15625 -7.0625,20.71875 z"
       id="path4129"
       inkscape:connector-curvature="0" />
    <path
       style="fill:#8ca09d;fill-opacity:1;stroke:#ffffff;stroke-width:1px;stroke-linecap:butt;stroke-linejoin:miter;stroke-opacity:0"
       d="m 468.65179,628.33913 15.3125,-1.59375 7.0625,-20.71875 -15.875,2.03125 -6.5,20.28125 z"
       id="path4147"
       inkscape:connector-curvature="0" />
    <path
       style="fill:none;stroke:#443535;stroke-width:1px;stroke-linecap:butt;stroke-linejoin:miter;stroke-opacity:1"
       d="M 503.57143,491.6479 462.14285,633.07647"
       id="path5637"
       inkscape:connector-curvature="0"
       sodipodi:nodetypes="cc" />
    <path
       style="fill:#e6dfdf;fill-opacity:1;stroke:#ffffff;stroke-width:1px;stroke-linecap:butt;stroke-linejoin:miter;stroke-opacity:0"
       d="m 453.77679,629.90163 14.875,-1.5625 6.5,-20.28125 -15.40625,1.96875 -5.96875,19.875 z"
       id="path4165"
       inkscape:connector-curvature="0" />
    <path
       style="fill:#ecf0ef;fill-opacity:1;stroke:#ffffff;stroke-width:1px;stroke-linecap:butt;stroke-linejoin:miter;stroke-opacity:0"
       d="m 453.77679,629.90163 6.32589,-20.58929 -15.125,0.83483 -7.82589,21.50446 z"
       id="path3973"
       inkscape:connector-curvature="0"
       sodipodi:nodetypes="ccccc" />
    <path
       style="fill:#c9baba;fill-opacity:1;stroke:#ffffff;stroke-width:1px;stroke-linecap:butt;stroke-linejoin:miter;stroke-opacity:0"
       d="m 662.74554,616.55788 -56.59375,-8.3125 -10.4375,20.59375 55.15625,7.75 11.875,-20.03125 z"
       id="path3984"
       inkscape:connector-curvature="0" />
    <path
       style="fill:#35c4e2;fill-opacity:1;stroke:#ffffff;stroke-width:1px;stroke-linecap:butt;stroke-linejoin:miter;stroke-opacity:0"
       d="m 722.15179,625.30788 -59.40625,-8.75 -11.875,20.03125 57.9375,8.125 13.34375,-19.40625 z"
       id="path3989"
       inkscape:connector-curvature="0" />
    <path
       style="fill:#e4eae9;fill-opacity:1;stroke:#ffffff;stroke-width:1px;stroke-linecap:butt;stroke-linejoin:miter;stroke-opacity:0"
       d="m 776.15179,633.24538 -54,-7.9375 -13.34375,19.40625 52.71875,7.40625 14.625,-18.875 z"
       id="path3997"
       inkscape:connector-curvature="0" />
    <path
       style="fill:#c9baba;fill-opacity:1;stroke:#ffffff;stroke-width:1px;stroke-linecap:butt;stroke-linejoin:miter;stroke-opacity:0"
       d="m 827.80804,640.83913 -51.65625,-7.59375 -14.625,18.875 50.4375,7.09375 15.84375,-18.375 z"
       id="path4002"
       inkscape:connector-curvature="0" />
    <path
       style="fill:#35c4e2;fill-opacity:1;stroke:#ffffff;stroke-width:1px;stroke-linecap:butt;stroke-linejoin:miter;stroke-opacity:0"
       d="m 827.80804,640.83913 -15.84375,18.375 45.21875,6.34375 16.71875,-17.9375 -46.09375,-6.78125 z"
       id="path3880"
       inkscape:connector-curvature="0" />
    <path
       style="fill:#e4eae9;fill-opacity:1;stroke:#ffffff;stroke-width:1px;stroke-linecap:butt;stroke-linejoin:miter;stroke-opacity:0"
       d="m 523.24554,648.21413 c 1.20077,-0.22834 8.1875,-1.5625 8.1875,-1.5625 l 50.5625,9.25 15.90625,-31.375 -61.75,-7.65625 -12.90625,31.34375 z"
       id="path4074"
       inkscape:connector-curvature="0" />
    <path
       style="fill:#ecf0ef;fill-opacity:1;stroke:#ffffff;stroke-width:1px;stroke-linecap:butt;stroke-linejoin:miter;stroke-opacity:0"
       d="m 505.99554,651.52663 c 5.22823,-0.99697 14.97421,-2.87973 17.25,-3.3125 l 12.90625,-31.34375 -1.875,-0.21875 -15.3125,1.46875 -12.96875,33.40625 z"
       id="path4092"
       inkscape:connector-curvature="0" />
    <path
       style="fill:#87dcee;fill-opacity:1;stroke:#ffffff;stroke-width:1px;stroke-linecap:butt;stroke-linejoin:miter;stroke-opacity:0"
       d="m 489.40179,654.71413 c 5.55316,-1.06185 12.07365,-2.32556 16.59375,-3.1875 l 12.96875,-33.40625 -16.8125,1.59375 -12.75,35 z"
       id="path4116"
       inkscape:connector-curvature="0" />
    <path
       style="fill:#35c4e2;fill-opacity:1;stroke:#ffffff;stroke-width:1px;stroke-linecap:butt;stroke-linejoin:miter;stroke-opacity:0"
       d="m 473.30804,657.90163 c 7.18446,-1.38262 9.12876,-1.85569 16.09375,-3.1875 l 12.75,-35 -16.34375,1.5625 -12.5,36.625 z"
       id="path4134"
       inkscape:connector-curvature="0" />
    <path
       style="fill:#e6dfdf;fill-opacity:1;stroke:#ffffff;stroke-width:1px;stroke-linecap:butt;stroke-linejoin:miter;stroke-opacity:0"
       d="m 458.21429,660.87038 c 6.58472,-1.26863 8.35745,-1.67238 15.09375,-2.96875 l 12.5,-36.625 -15.375,1.46875 -12.21875,38.125 z"
       id="path4152"
       inkscape:connector-curvature="0" />
    <path
       style="fill:#ecf0ef;fill-opacity:1;stroke:#ffffff;stroke-width:1px;stroke-linecap:butt;stroke-linejoin:miter;stroke-opacity:0"
       d="m 443.65179,663.74538 c 5.76128,-1.11728 8.20866,-1.65085 14.5625,-2.875 l 12.21875,-38.125 -14.9375,1.40625 -11.84375,39.59375 z"
       id="path4170"
       inkscape:connector-curvature="0" />
    <path
       style="fill:#87dcee;fill-opacity:1;stroke:#ffffff;stroke-width:1px;stroke-linecap:butt;stroke-linejoin:miter;stroke-opacity:0"
       d="m 443.65179,663.74538 11.84375,-39.59375 -16.34375,1.5625 -11.9375,41.25 c 0.46852,-0.17596 9.9364,-1.95799 16.4375,-3.21875 z"
       id="path4007"
       inkscape:connector-curvature="0" />
    <path
       style="fill:#35c4e2;fill-opacity:1;stroke:#ffffff;stroke-width:1px;stroke-linecap:butt;stroke-linejoin:miter;stroke-opacity:0"
       d="m 653.90179,631.46413 -56,-6.9375 -15.90625,31.375 51.78125,9.46875 20.125,-33.90625 z"
       id="path4012"
       inkscape:connector-curvature="0" />
    <path
       style="fill:#e4eae9;fill-opacity:1;stroke:#ffffff;stroke-width:1px;stroke-linecap:butt;stroke-linejoin:miter;stroke-opacity:0"
       d="m 712.90179,638.77663 -59,-7.3125 -20.125,33.90625 54.03125,9.875 25.09375,-36.46875 z"
       id="path4017"
       inkscape:connector-curvature="0" />
    <path
       style="fill:#c9baba;fill-opacity:1;stroke:#ffffff;stroke-width:1px;stroke-linecap:butt;stroke-linejoin:miter;stroke-opacity:0"
       d="m 766.68304,645.43288 -53.78125,-6.65625 -25.09375,36.46875 48.84375,8.90625 30.03125,-38.71875 z"
       id="path4022"
       inkscape:connector-curvature="0" />
    <path
       style="fill:#38a8c0;fill-opacity:1;stroke:#ffffff;stroke-width:1px;stroke-linecap:butt;stroke-linejoin:miter;stroke-opacity:0"
       d="m 818.30804,651.83913 -51.625,-6.40625 -30.03125,38.71875 46.5,8.5 35.15625,-40.8125 z"
       id="path4027"
       inkscape:connector-curvature="0" />
    <path
       style="fill:#e4eae9;fill-opacity:1;stroke:#ffffff;stroke-width:1px;stroke-linecap:butt;stroke-linejoin:miter;stroke-opacity:0"
       d="m 818.30804,651.83913 -35.15625,40.8125 40.21875,7.34375 41.3125,-42.40625 -46.375,-5.75 z"
       id="path3827"
       inkscape:connector-curvature="0" />
    <path
       style="fill:#809592;fill-opacity:1;stroke:#ffffff;stroke-width:1px;stroke-linecap:butt;stroke-linejoin:miter;stroke-opacity:0"
       d="m 517.05804,663.21413 16.5,0.5625 43.125,2.625 12.40625,-24.5 -60.53125,-5.96875 -0.25,0.0312 -11.25,27.25 z"
       id="path4077"
       inkscape:connector-curvature="0" />
    <path
       style="fill:#ecf0ef;fill-opacity:1;stroke:#ffffff;stroke-width:1px;stroke-linecap:butt;stroke-linejoin:miter;stroke-opacity:0"
       d="m 511.62054,637.08913 -16.1875,1.09375 -8.75,24 15.3125,0.53125 9.625,-25.625 z"
       id="path4978"
       inkscape:connector-curvature="0" />
    <path
       style="fill:#8ca09d;fill-opacity:1;stroke:#ffffff;stroke-width:1px;stroke-linecap:butt;stroke-linejoin:miter;stroke-opacity:0"
       d="m 511.62054,637.08913 -9.625,25.625 15.0625,0.5 11.25,-27.25 -16.6875,1.125 z"
       id="path4119"
       inkscape:connector-curvature="0" />
    <path
       style="fill:#f6df66;fill-opacity:1;stroke:#ffffff;stroke-width:1px;stroke-linecap:butt;stroke-linejoin:miter;stroke-opacity:0"
       d="m 471.99554,661.68288 14.6875,0.5 8.75,-24 -15.75,1.0625 -7.6875,22.4375 z"
       id="path4137"
       inkscape:connector-curvature="0" />
    <path
       style="fill:#c83737;fill-opacity:1;stroke:#ffffff;stroke-width:1px;stroke-linecap:butt;stroke-linejoin:miter;stroke-opacity:0"
       d="m 458.12054,661.21413 13.875,0.46875 7.6875,-22.4375 -14.84375,1 -6.71875,20.96875 z"
       id="path4155"
       inkscape:connector-curvature="0" />
    <path
       style="fill:#a05a2c;fill-opacity:1;stroke:#ffffff;stroke-width:1px;stroke-linecap:butt;stroke-linejoin:miter;stroke-opacity:0"
       d="m 444.55804,660.74538 13.5625,0.46875 6.71875,-20.96875 -14.4375,0.96875 -5.84375,19.53125 z"
       id="path4173"
       inkscape:connector-curvature="0" />
    <path
       style="fill:#ecf0ef;fill-opacity:1;stroke:#ffffff;stroke-width:1px;stroke-linecap:butt;stroke-linejoin:miter;stroke-opacity:0"
       d="m 444.55804,660.74538 5.84375,-19.53125 -17.53125,1.15625 -3.59375,17.84375 15.28125,0.53125 z"
       id="path4030"
       inkscape:connector-curvature="0" />
    <path
       style="fill:#c9baba;fill-opacity:1;stroke:#ffffff;stroke-width:1px;stroke-linecap:butt;stroke-linejoin:miter;stroke-opacity:0"
       d="m 644.46429,647.33913 -55.375,-5.4375 -12.40625,24.5 54.5,3.28125 13.28125,-22.34375 z"
       id="path4033"
       inkscape:connector-curvature="0" />
    <path
       style="fill:#38a8c0;fill-opacity:1;stroke:#ffffff;stroke-width:1px;stroke-linecap:butt;stroke-linejoin:miter;stroke-opacity:0"
       d="m 703.02679,653.12038 -58.5625,-5.78125 -13.28125,22.34375 58.03125,3.5 13.8125,-20.0625 z"
       id="path4036"
       inkscape:connector-curvature="0" />
    <path
       style="fill:#35c4e2;fill-opacity:1;stroke:#ffffff;stroke-width:1px;stroke-linecap:butt;stroke-linejoin:miter;stroke-opacity:0"
       d="m 756.65179,658.40163 -53.625,-5.28125 -13.8125,20.0625 53.4375,3.25 14,-18.03125 z"
       id="path4039"
       inkscape:connector-curvature="0" />
    <path
       style="fill:#809592;fill-opacity:1;stroke:#ffffff;stroke-width:1px;stroke-linecap:butt;stroke-linejoin:miter;stroke-opacity:0"
       d="m 808.27679,663.49538 -51.625,-5.09375 -14,18.03125 51.78125,3.125 13.84375,-16.0625 z"
       id="path4045"
       inkscape:connector-curvature="0" />
    <path
       style="fill:#38a8c0;fill-opacity:1;stroke:#ffffff;stroke-width:1px;stroke-linecap:butt;stroke-linejoin:miter;stroke-opacity:0"
       d="m 808.27679,663.49538 -13.84375,16.0625 46.28125,2.8125 14.28125,-14.28125 -46.71875,-4.59375 z"
       id="path3886"
       inkscape:connector-curvature="0" />
    <path
       style="fill:#38a8c0;fill-opacity:1;stroke:#ffffff;stroke-width:1px;stroke-linecap:butt;stroke-linejoin:miter;stroke-opacity:0"
       d="m 510.71429,623.77663 -81.4375,8.59375 -15.71875,22.84375 90.5625,1.15625 21.59375,0.28125 -11.71875,-25.71875 -3.28125,-7.15625 z"
       id="path3821"
       inkscape:connector-curvature="0" />
    <path
       style="fill:#443535;fill-opacity:1;stroke:#ffffff;stroke-width:1px;stroke-linecap:butt;stroke-linejoin:miter;stroke-opacity:0"
       d="m 394.62504,669.67921 7.47005,28.20864 33.63808,32.22387 367.07835,-2.61921 13.69782,-7.97267 c 16.50609,-12.5316 21.97474,-28.08426 35.66491,-43.46775 l -350.07406,-27.66172 -99.36348,3.90915 z"
       id="path3806"
       inkscape:connector-curvature="0"
       sodipodi:nodetypes="ccccccccc" />
    <path
       style="fill:#e4eae9;fill-opacity:1;stroke:#ffffff;stroke-width:1px;stroke-linecap:butt;stroke-linejoin:miter;stroke-opacity:0"
       d="m 763.57143,616.29075 17.32143,3.03572 2.67857,-3.21429 -18.39285,-2.67857 z"
       id="path5234"
       inkscape:connector-curvature="0" />
    <path
       inkscape:connector-curvature="0"
       id="path5236"
       d="m 766.07143,611.82646 17.85714,2.85715 1.96429,-3.03572 -17.85714,-2.85714 z"
       style="fill:#e4eae9;fill-opacity:1;stroke:#ffffff;stroke-width:1px;stroke-linecap:butt;stroke-linejoin:miter;stroke-opacity:0"
       sodipodi:nodetypes="ccccc" />
    <path
       style="fill:#e4eae9;fill-opacity:1;stroke:#ffffff;stroke-width:1px;stroke-linecap:butt;stroke-linejoin:miter;stroke-opacity:0"
       d="M 768.39286,606.82646 785,609.50504 l -1.60715,-2.67858 -17.32142,-3.03571 z"
       id="path5238"
       inkscape:connector-curvature="0"
       sodipodi:nodetypes="ccccc" />
    <path
       style="fill:#1dacca;fill-opacity:1;stroke:#ffffff;stroke-width:1px;stroke-linecap:butt;stroke-linejoin:miter;stroke-opacity:0"
       d="m 112.85714,734.64789 761.87163,-5.12255 60.10663,33.89703 -105.48661,0.95068 -53.49814,16.51523 -344.42208,26.61675 -74.28571,-15.71428 -171.42858,4.28571 -31.42857,-25.71429 -68.571425,-2.85714 z"
       id="path5620"
       inkscape:connector-curvature="0"
       sodipodi:nodetypes="ccccccccccc" />
    <path
       style="fill:#2097b0;stroke:#ffffff;stroke-width:1px;stroke-linecap:butt;stroke-linejoin:miter;stroke-opacity:0;fill-opacity:1"
       d="m 178.797,428.92689 14.14214,49.49747 108.08632,-1.01015 10.10152,-40.4061 -40.4061,1.01015 -9.09137,15.15229 -31.31473,1.01015 -13.13198,-25.25381 z"
       id="path5633"
       inkscape:connector-curvature="0"
       transform="translate(0,308.2677)" />
    <path
       style="fill:#35c4e2;stroke:#ffffff;stroke-width:1px;stroke-linecap:butt;stroke-linejoin:miter;stroke-opacity:0;fill-opacity:1"
       d="m 131.31983,473.3736 19.1929,-31.31473 92.93403,-2.0203 4.04061,24.24366 73.74114,-1.01016 25.25381,-24.24366 111.11678,-1.01015 10.10153,35.35534 -69.70053,2.02031 -19.1929,-14.14214 -56.56854,32.32488 -81.82235,5.05076 -18.18275,-37.37564 -39.39595,-1.01015 z"
       id="path5627"
       inkscape:connector-curvature="0"
       transform="translate(0,308.2677)" />
    <path
       style="fill:#2097b0;fill-opacity:1;stroke:#ffffff;stroke-width:1px;stroke-linecap:butt;stroke-linejoin:miter;stroke-opacity:0"
       d="m 428.30468,466.30253 c -1.01015,-4.04061 -7.67716,-40.60813 -7.67716,-40.60813 l 131.52186,-1.11116 8.48528,34.64822 101.01526,0 -3.03046,-29.29442 49.49747,4.04061 9.09138,39.39595 -109.09648,-2.0203 4.04061,22.22335 -91.92388,8.08122 -14.14213,-48.48732 z"
       id="path5631"
       inkscape:connector-curvature="0"
       transform="translate(0,308.2677)"
       sodipodi:nodetypes="ccccccccccccc" />
    <path
       style="fill:#35c4e2;fill-opacity:1;stroke:#ffffff;stroke-width:1px;stroke-linecap:butt;stroke-linejoin:miter;stroke-opacity:0"
       d="m 618.21336,441.04872 15.15229,-17.07158 81.82235,-2.12132 16.16244,27.27412 79.80205,-3.03046 8.08122,-18.18274 37.37565,0 29.29442,21.2132 -40.4061,-9.09137 -36.36549,15.15228 -55.55839,3.03046 6.06091,23.23351 -72.73098,6.06092 -3.03046,-44.44672 z"
       id="path5629"
       inkscape:connector-curvature="0"
       transform="translate(0,308.2677)"
       sodipodi:nodetypes="ccccccccccccccc" />
    <path
       style="fill:#35c4e2;stroke:#ffffff;stroke-width:1px;stroke-linecap:butt;stroke-linejoin:miter;stroke-opacity:0;fill-opacity:1"
       d="m 493.96459,481.45482 c 5.05077,0 54.54824,-3.03046 54.54824,-3.03046 l -8.08122,-37.37564 46.46702,-2.02031 -5.05076,-14.14213 -58.58885,6.06091 -3.03046,30.30458 -44.44671,2.0203 z"
       id="path5635"
       inkscape:connector-curvature="0"
       transform="translate(0,308.2677)" />
    <path
       style="fill:#443535;stroke:#ffffff;stroke-width:1px;stroke-linecap:butt;stroke-linejoin:miter;stroke-opacity:0;fill-opacity:0.19730942"
       d="m 436.28488,423.77511 -27.57716,12.72792 14.84924,20.5061 -6.36396,16.97056 24.74874,19.09188 91.92388,-9.89949 9.19239,10.6066 77.07464,-18.38477 88.38835,0 67.88225,-8.48529 59.39697,-14.84924 -14.14214,-16.97056 -26.16295,-10.6066 z"
       id="path3080"
       inkscape:connector-curvature="0"
       transform="translate(0,308.2677)" />
    <path
       style="fill:#443535;stroke:#ffffff;stroke-width:1px;stroke-linecap:butt;stroke-linejoin:miter;stroke-opacity:0;fill-opacity:0.19730942000000001"
       d="m 217.08178,483.17208 6.36396,-55.15433 9.8995,-0.70711 -4.24264,57.27565 z"
       id="path3850"
       inkscape:connector-curvature="0"
       transform="translate(0,308.2677)" />
    <path
       style="fill:#443535;stroke:#ffffff;stroke-width:1px;stroke-linecap:butt;stroke-linejoin:miter;stroke-opacity:0;fill-opacity:0.19730942000000001"
       d="M 270.125 425.90625 L 262.34375 427.3125 L 254.34375 480.46875 L 229 458.59375 L 223 459.59375 L 253.03125 489.15625 L 252.4375 493.0625 L 265.15625 492.375 L 270.125 425.90625 z "
       transform="translate(0,308.2677)"
       id="path3852" />
    <path
       style="fill:#443535;stroke:#ffffff;stroke-width:1px;stroke-linecap:butt;stroke-linejoin:miter;stroke-opacity:0;fill-opacity:0.19730942000000001"
       d="M 301.5 426.09375 L 291.5 427.09375 L 287.5 493.59375 L 302.5 492.59375 L 302.15625 469.625 L 331.75 479.9375 L 332 487.09375 L 338 482.09375 L 347 482.59375 L 338.5 426.09375 L 330 427.09375 L 331.53125 473.03125 L 302.03125 462.40625 L 301.5 426.09375 z "
       transform="translate(0,308.2677)"
       id="path3854" />
  </g>
</svg>
