<?xml version="1.0" encoding="UTF-8" standalone="no"?>
<!-- Created with Inkscape (http://www.inkscape.org/) -->

<svg
   xmlns:dc="http://purl.org/dc/elements/1.1/"
   xmlns:cc="http://creativecommons.org/ns#"
   xmlns:rdf="http://www.w3.org/1999/02/22-rdf-syntax-ns#"
   xmlns:svg="http://www.w3.org/2000/svg"
   xmlns="http://www.w3.org/2000/svg"
   xmlns:sodipodi="http://sodipodi.sourceforge.net/DTD/sodipodi-0.dtd"
   xmlns:inkscape="http://www.inkscape.org/namespaces/inkscape"
   width="744.09448819"
   height="1052.3622047"
   id="svg3360"
   version="1.1"
   inkscape:version="0.48.3.1 r9886"
   sodipodi:docname="secure_peer.svg"
   inkscape:export-filename="/home/substack/projects/substack.net/static/images/secure_peer.png"
   inkscape:export-xdpi="83.619392"
   inkscape:export-ydpi="83.619392">
  <defs
     id="defs3362" />
  <sodipodi:namedview
     id="base"
     pagecolor="#ffffff"
     bordercolor="#666666"
     borderopacity="1.0"
     inkscape:pageopacity="0.0"
     inkscape:pageshadow="2"
     inkscape:zoom="1.1890995"
     inkscape:cx="417.38671"
     inkscape:cy="752.43801"
     inkscape:document-units="px"
     inkscape:current-layer="layer1"
     showgrid="false"
     inkscape:window-width="1364"
     inkscape:window-height="766"
     inkscape:window-x="0"
     inkscape:window-y="0"
     inkscape:window-maximized="0" />
  <metadata
     id="metadata3365">
    <rdf:RDF>
      <cc:Work
         rdf:about="">
        <dc:format>image/svg+xml</dc:format>
        <dc:type
           rdf:resource="http://purl.org/dc/dcmitype/StillImage" />
        <dc:title></dc:title>
      </cc:Work>
    </rdf:RDF>
  </metadata>
  <g
     inkscape:label="Layer 1"
     inkscape:groupmode="layer"
     id="layer1">
    <path
       style="fill:#ffffff;stroke:#ffffff;stroke-width:1px;stroke-linecap:butt;stroke-linejoin:miter;stroke-opacity:0"
       d="m 539.06339,170.70492 c -4.88463,-0.65554 -5.12994,9.3348 -10.93264,15.1375 -1.01962,1.01963 -0.82159,4.18548 -1.68195,5.04584 -0.85227,0.85228 0,7.07055 0,8.40972 0,19.92466 22.61921,26.99817 33.6389,15.97848 0.8085,-0.80849 3.12548,-0.60256 4.20487,-1.68194 12.83761,-12.83761 12.84238,-30.04722 0,-42.8896 -2.00569,-2.00569 -5.31578,-0.97594 -8.40973,-2.52292 -6.03164,-3.01582 -11.21004,-1.96461 -16.81945,2.52292 z"
       id="path3735"
       inkscape:connector-curvature="0" />
    <path
       style="fill:#ffffff;stroke:#ffffff;stroke-width:0.94680911px;stroke-linecap:butt;stroke-linejoin:miter;stroke-opacity:0"
       d="m 238.00517,167.95013 c -10.72142,7.0913 -23.49373,31.44687 -4.77744,50.16315 2.76328,2.76328 8.95054,1.29031 12.73984,3.18496 11.4719,5.73595 21.58253,-2.47274 28.66467,-9.55488 0.78534,-0.78535 0.21596,-3.40092 0.79624,-3.9812 2.11607,-2.11607 2.38872,-5.81886 2.38872,-9.55489 0,-16.59395 -12.95097,-27.57585 -24.68345,-33.4421 -3.53584,-1.76792 -12.02578,1.94385 -15.12858,3.18496 z"
       id="path3720"
       inkscape:connector-curvature="0" />
    <g
       id="g3671"
       transform="matrix(1.0296373,0,0,1.0296373,-111.97801,46.678411)">
      <path
         inkscape:connector-curvature="0"
         id="path6872"
         d="m 228.16401,183.95713 c -1.13743,0.0894 -2.23228,0.37281 -3.2589,0.87718 -2.92336,0.38157 -5.92015,2.00266 -8.80055,5.27259 -0.80575,0.91471 -2.40985,1.60462 -2.93671,2.84941 -3.65122,8.62636 -1.45456,10.5004 5.03188,16.21416 2.26698,1.99691 4.85724,4.18689 7.50661,5.75891 0.0157,0.009 0.026,0.0275 0.0417,0.0368 3.28029,2.87396 7.39882,4.68013 7.77595,10.63463 0.13818,2.18172 -0.38604,4.27171 -1.43,5.45685 -0.74892,0.85019 -0.29807,1.54866 -1.64753,2.33371 -6.20019,3.607 -23.78404,-16.05526 -22.87411,-1.68819 0.003,0.0626 0.0248,0.11554 0.0309,0.17561 -0.2239,0.13916 -0.38646,0.24915 -0.43454,0.30373 -0.51256,0.58188 2.77138,4.12964 3.41461,4.69624 3.0052,2.64721 16.20209,10.38815 21.01829,7.5863 2.82214,-1.6418 8.94355,-4.25501 10.24811,-7.33716 0.80827,-1.90962 1.05315,-4.02433 1.85458,-5.91777 0.72247,-1.70694 -0.73387,-4.73395 -0.82683,-6.20171 -0.19409,-3.06453 -2.6188,-4.86928 -4.05545,-7.33879 -2.48615,-4.27353 -6.40116,-8.16193 -9.13306,-10.56841 -1.67108,-1.47201 -5.74322,-4.87392 -4.76614,-8.28022 -0.23147,-0.27269 -0.46879,-0.52427 -0.71788,-0.7437 -1.50667,-1.32717 2.94719,-4.77803 3.24678,-5.11814 0.0863,-0.0981 0.18286,-0.17565 0.27982,-0.25446 0.81914,-0.0911 1.62791,-0.16164 1.94065,0.11381 0.60295,0.53111 4.45291,1.94733 5.0335,1.91057 1.47057,-0.0932 8.2471,9.21512 9.84032,7.40645 0.3484,-0.39553 1.30982,-1.00251 1.70353,-1.44947 1.86458,-2.11674 -0.90048,-5.89054 -1.8141,-7.461 -2.66113,-4.5743 -10.03601,-9.75802 -16.27148,-9.26797 z"
         style="fill:#c8b7b7;fill-opacity:1;stroke:#ffffff;stroke-width:0.63006341px;stroke-linecap:butt;stroke-linejoin:miter;stroke-opacity:0" />
      <path
         inkscape:connector-curvature="0"
         id="path6874"
         d="m 276.5199,182.88758 c -3.10118,0.0203 -6.27784,0.63558 -9.39188,1.6736 -3.61936,1.20645 -6.42575,5.10656 -8.89965,7.58046 -4.15706,4.15705 -4.31067,10.80289 -5.35554,16.02723 -0.58835,2.94173 -0.73935,9.07285 0,12.03027 2.89829,11.59318 17.13894,26.67622 30.30212,22.2885 2.54427,-0.84809 5.7638,0.50266 7.12759,-2.22491 0.43383,-0.86766 3.50703,-5.73194 4.01665,-6.24157 0.74255,-0.74254 -0.30936,-3.27412 0.43317,-4.01665 0.0446,-0.0446 1.00234,-0.33655 0.45286,-0.88603 -1.25281,-1.25281 -7.52832,-1.42347 -8.01363,-0.45286 -0.60371,1.20744 -1.63337,3.42513 -2.67776,4.46952 -1.6894,1.6894 -9.70407,2.30652 -11.57742,0.43317 -2.84809,-2.84809 -4.44431,-5.30514 -6.24157,-8.89965 -0.59623,-1.1925 -1.33888,-1.90337 -1.33888,-3.13063 0,-0.78926 -1.26591,-4.08963 -0.45286,-4.90268 0.10503,-0.10503 0.30435,0 0.45286,0 l 1.33888,-2.22492 c 5.30751,0.60121 10.74509,-0.88601 16.02725,-0.88601 1.70478,0 3.94307,-0.63266 5.35553,-1.33889 2.11211,-1.05606 4.7797,-0.78275 6.67474,-2.67777 3.80852,-3.80852 2.1737,-10.8647 0.45286,-16.02725 -0.68805,-2.06414 -3.0342,-3.48704 -4.44982,-4.90267 -4.09501,-4.09501 -9.06687,-5.72406 -14.2355,-5.69026 z m -1.43734,8.64368 c 0.93061,-0.0136 2.0643,0.371 2.30368,0.61038 1.02078,1.02078 4.17122,0.17426 5.33585,1.33887 1.61739,1.6174 6.07529,8.63276 3.13062,11.57743 -2.41538,2.41537 -9.29115,2.67776 -13.36916,2.67776 -3.98624,0 -3.65683,0.13769 -4.90268,0.43317 -1.00382,-0.40153 -2.34645,-0.12154 -3.11094,-0.88603 -0.16684,-0.16683 1.19255,-9.6787 1.3192,-9.80535 0.81679,-0.8168 1.42782,-1.8413 2.2446,-2.65809 1.76831,-1.76831 4.02945,-2.03441 6.22188,-3.13063 0.22805,-0.11404 0.51676,-0.15297 0.82695,-0.15751 z"
         style="fill:#c8b7b7;fill-opacity:1;stroke:#ffffff;stroke-width:0.63006341px;stroke-linecap:butt;stroke-linejoin:miter;stroke-opacity:0" />
      <path
         inkscape:connector-curvature="0"
         id="path6905"
         d="m 344.21075,195.25675 c 0.68826,-0.77259 -1.97591,-3.06079 -3.56417,-6.2373 -2.86871,-5.73742 -15.93516,-5.39809 -21.38506,-2.67314 -3.98799,1.994 -4.26362,1.14496 -8.0194,4.90076 -1.68642,1.68641 -3.24472,9.48201 -4.0097,10.24699 -1.50092,1.50092 -0.78307,4.23925 -1.7821,6.23732 -3.37956,6.75914 0.1754,17.90154 2.22761,24.0582 0.95036,2.85106 3.97152,5.7536 6.23732,8.0194 1.50972,1.50972 12.15331,5.66757 14.25671,3.56418 0.62229,-0.6223 6.89923,-0.33097 8.91043,-1.33657 3.47055,-1.73527 4.90373,-4.01267 7.12836,-6.23731 0.45921,-0.4592 0.43184,-2.21394 0.89104,-2.67314 2.02316,-2.02314 -1.36443,-8.91044 -3.11865,-8.91044 -4.99005,0 -6.94597,5.92336 -11.13805,8.01941 -1.9083,0.95414 -5.3319,-0.43115 -6.23731,-1.33658 -1.45717,-1.45716 -3.70152,-3.70152 -4.90075,-4.90074 -4.18685,-4.18685 -2.58446,-19.78031 -0.44551,-24.0582 2.16983,-4.33967 4.40344,-7.12835 10.247,-7.12835 0.84018,0 2.10805,-0.11956 2.67314,0.44551 2.31895,2.31897 3.44817,6.56684 5.79179,8.91046 2.45181,2.45181 8.47121,-3.32568 6.2373,-8.91046 z"
         style="fill:#c8b7b7;fill-opacity:1;stroke:#ffffff;stroke-width:0.63006341px;stroke-linecap:butt;stroke-linejoin:miter;stroke-opacity:0" />
      <path
         sodipodi:nodetypes="cssssssssssscssssscc"
         inkscape:connector-curvature="0"
         id="path6929"
         d="m 353.07334,184.7824 c 0.18656,3.08037 -0.99318,18.9263 0.97135,26.8951 0.28422,1.15285 -0.76246,2.90203 -0.32059,3.99686 1.39861,3.46533 0.36035,7.81346 1.77402,11.31613 0.39772,0.9854 -0.68267,2.56736 -0.28497,3.55275 1.33985,3.31973 1.1237,8.5949 4.50985,10.64168 3.62848,2.19325 6.20675,1.83871 10.99554,2.22283 2.84315,0.22806 8.66594,0.89634 10.80079,-0.92146 4.58798,-3.90662 5.73633,-9.10496 8.72514,-14.04959 1.53937,-2.54671 1.09403,-8.06707 1.33463,-11.06678 0.92572,-11.54084 3.88553,-26.05042 -2.65751,-33.73463 -1.353,-1.58899 -6.63106,4.29753 -5.93472,7.12216 1.66262,6.74404 1.09741,36.71812 -2.76187,40.00424 -0.34157,0.29085 -9.11424,2.41623 -9.53973,1.91653 -2.05574,-2.4143 -3.25443,-3.82205 -5.31017,-6.23634 -1.31848,-1.54845 -1.29616,-4.80857 -2.13024,-6.87516 -0.95471,-2.36546 0.71369,-5.68468 -0.247,-8.06497 -1.03522,-2.56496 2.67477,-14.66697 0.67916,-19.61147 -0.70089,-1.73657 -5.44886,-9.8421 -6.90843,-8.59929 -1.29435,-1.14308 -3.34068,0.81167 -3.69525,1.49141"
         style="fill:#c8b7b7;fill-opacity:1;stroke:#ffffff;stroke-width:0.63006341px;stroke-linecap:butt;stroke-linejoin:miter;stroke-opacity:0" />
      <path
         inkscape:connector-curvature="0"
         id="path6944"
         d="m 403.25591,238.2884 c -2.23932,-6.41902 -2.98356,-14.49924 -2.7193,-21.06592 0.12179,-3.02589 0.38725,-27.36115 1.12865,-28.04519 1.78092,-1.64311 2.87146,-4.79244 4.72035,-6.49828 1.10676,-1.02113 3.25585,-0.37465 4.95052,-1.13842 7.75035,-3.49299 18.67006,0.73768 23.93125,3.63839 2.60212,1.43465 5.03271,13.35926 2.95219,15.27882 -4.2122,3.88626 -6.37726,-5.51833 -8.59868,-7.92606 -1.27526,-1.38219 -3.45812,-1.92269 -5.71545,-2.01353 -1.67059,-0.0673 -3.60236,0.32318 -4.50537,1.15633 -1.80257,1.6631 -4.27971,1.5724 -5.50318,3.79148 -1.51462,2.74719 -0.70102,6.34004 -0.83928,9.77563 -0.18809,4.67383 0.97985,21.57064 2.55806,25.07239 0.7291,1.61778 -0.6204,4.33623 -0.67807,5.76919 -0.0714,1.77292 -5.30386,6.79498 -6.46516,5.53629 -0.4182,-0.45327 -4.16761,-2.86178 -5.21653,-3.33112 z"
         style="fill:#c8b7b7;fill-opacity:0.99108785;stroke:#ffffff;stroke-width:0.63006341px;stroke-linecap:butt;stroke-linejoin:miter;stroke-opacity:0" />
      <path
         inkscape:connector-curvature="0"
         id="path6946"
         d="m 463.7472,179.71757 c -3.59629,0.003 -7.08081,1.16756 -10.06133,3.89851 -2.20565,2.02095 -4.64427,2.59589 -6.02498,5.07989 -6.86826,12.35653 -9.56959,35.70931 1.06323,47.31383 3.72556,4.06603 9.61832,3.99464 13.97953,6.41877 2.50432,1.392 9.31418,0.88449 10.73077,-0.41348 1.53582,-1.40723 3.03844,-2.38222 4.60733,-3.81975 0.87615,-0.80278 5.11468,-7.97494 3.5638,-9.66754 l -2.12646,-2.32336 c -0.28035,-0.30596 -2.01437,-1.28767 -2.65808,-0.55131 -8.12635,9.29607 -8.4047,10.15859 -17.4055,5.17834 -0.006,-0.002 -0.0143,0.002 -0.0196,0 -0.007,-0.006 -0.0133,-0.0137 -0.0196,-0.0196 -2.55646,-1.23969 -3.19227,-2.01148 -6.20219,-5.29647 -1.02561,-1.11934 -1.49979,-7.25441 -2.30367,-8.13175 -0.22621,-0.24688 -0.59142,-5.01209 -0.21658,-5.35555 2.08137,-1.2748 3.91597,-2.66847 6.14312,-2.00832 0.0123,0.003 0.0271,-0.003 0.0394,0 0.1113,-0.007 0.20573,0.005 0.31503,0 10.00979,-3.67222 19.84236,0.3726 27.68341,-4.46952 0.87679,-1.59192 1.04354,-5.79079 1.04354,-7.16696 0,-1.35174 -0.077,-3.18701 -0.33471,-4.86331 -3.76738,-6.93424 -12.52776,-13.37134 -20.92992,-13.78263 -0.28825,-0.0142 -0.57914,-0.02 -0.86635,-0.0196 z m 2.50056,9.27374 c 0.46253,-0.005 1.25331,0.12892 1.45702,0.13783 2.33297,0.10195 5.28735,0.63918 6.59597,2.0674 0.4079,0.44516 3.97342,6.20473 2.34305,7.69858 -0.27165,0.2489 -0.81665,0.35763 -1.4964,0.41348 -0.78177,0.7386 -2.49355,1.18323 -5.69026,1.04354 l -3.80007,-0.1772 c -2.74068,0.74617 -6.70031,1.5064 -10.53387,1.33889 -2.28026,-0.0997 1.25649,-5.93611 1.63422,-6.61567 2.26607,-4.07683 6.77657,-3.64989 9.17531,-5.84778 0.0453,-0.0415 0.16085,-0.0577 0.31503,-0.0591 z"
         style="fill:#c8b7b7;fill-opacity:1;stroke:#ffffff;stroke-width:0.63006341px;stroke-linecap:butt;stroke-linejoin:miter;stroke-opacity:0" />
      <path
         inkscape:connector-curvature="0"
         id="path6986"
         d="m 563.02527,174.77745 c -2.82295,0.0331 -6.42111,0.71984 -7.61983,1.31919 -1.09996,0.54998 -2.84311,0.49484 -4.01665,0.88603 -3.58095,1.19365 -7.33898,4.22804 -9.35251,6.24156 -2.38701,2.38702 -3.25461,17.55134 -1.33888,21.38278 0.60897,1.21794 0.45285,14.69642 0.45285,16.93296 0,15.50162 3.29042,30.94456 2.22492,46.32936 1.96986,3.93971 7.5928,3.11828 9.80537,0.90571 4.94643,-4.94644 -1.46284,-25.27549 1.33888,-28.0772 0.37126,-0.37127 -0.37127,-1.85364 0,-2.22491 1.19313,-1.19314 7.24414,1.27076 9.78567,0 3.78415,-1.89208 6.24756,-2.2309 8.91934,-4.90268 2.51284,-2.51285 3.35024,-4.90876 4.90268,-8.01362 1.47566,-2.95134 0.87125,-12.01552 3.11094,-14.25519 0.36653,-0.36655 0.45286,-9.34361 0.45286,-10.69139 0,-14.17344 1.59528,-18.1338 -10.25823,-24.06054 -1.60563,-0.80282 -3.71428,-0.52811 -5.33585,-1.33889 -0.65882,-0.32942 -1.78839,-0.44821 -3.07156,-0.43317 z m 0.0196,10.88828 c 0.51809,0.008 0.96264,0.0656 1.24044,0.19689 2.44946,1.15817 4.68448,2.31336 6.32031,3.87883 1.36982,1.31091 0.55484,3.60674 1.45703,5.31617 0.88546,1.6777 0.52671,4.20727 0.57099,6.22188 0.2139,9.73208 -1.02651,19.30509 -7.00946,25.55694 -0.49763,0.52 -2.24197,0.51031 -2.65807,0.94509 -3.08035,3.2188 -8.42371,1.26608 -8.52555,-3.36689 0.27641,-0.24979 -2.96505,-32.4558 -1.20106,-34.29908 0.79865,-0.83455 1.3672,-1.88262 2.16584,-2.71716 0.72605,-0.75867 2.81807,-0.2061 3.54411,-0.96478 0.32806,-0.3428 2.54115,-0.79059 4.09542,-0.76789 z"
         style="fill:#af9f62;fill-opacity:1;stroke:#ffffff;stroke-width:0.63006341px;stroke-linecap:butt;stroke-linejoin:miter;stroke-opacity:0" />
      <path
         style="fill:#af9f62;fill-opacity:1;stroke:#ffffff;stroke-width:0.63006341px;stroke-linecap:butt;stroke-linejoin:miter;stroke-opacity:0"
         d="m 614.79641,175.68096 c -3.08544,-0.31278 -6.30979,-0.0421 -9.51728,0.65561 -3.72797,0.8109 -6.93685,4.38716 -9.66206,6.58116 -4.57932,3.68672 -5.44557,10.27766 -7.04529,15.35963 -0.90077,2.86155 -1.70915,8.94103 -1.29158,11.96073 1.63687,11.83733 14.17588,28.3621 27.73405,25.41295 2.62062,-0.57003 5.67652,1.11857 7.32525,-1.44683 0.52448,-0.81606 4.10216,-5.32228 4.66354,-5.77425 0.81799,-0.65852 0.0439,-3.28841 0.86191,-3.94693 0.049,-0.0395 1.03267,-0.227 0.54536,-0.83229 -1.11106,-1.38006 -7.33198,-2.22348 -7.91868,-1.3106 -0.72986,1.13565 -1.99167,3.22998 -3.14214,4.15619 -1.86102,1.49827 -9.89562,1.25136 -11.557,-0.8123 -2.52586,-3.13739 -3.84907,-5.75162 -5.25003,-9.51831 -0.46477,-1.24961 -1.12679,-2.03611 -0.99503,-3.25627 0.0847,-0.78469 -0.81953,-4.2019 0.0761,-4.92297 0.11568,-0.0932 0.3026,0.0327 0.45024,0.0487 l 1.57002,-2.06832 c 5.21229,1.16755 10.7781,0.27272 16.02972,0.83981 1.69494,0.18303 3.98822,-0.20566 5.46833,-0.75617 2.21329,-0.82319 4.83612,-0.26506 6.92366,-1.94568 4.19539,-3.37762 3.32758,-10.56853 2.17094,-15.88599 -0.46247,-2.12609 -2.64229,-3.79265 -3.89775,-5.35208 -3.63169,-4.51098 -8.39991,-6.6644 -13.5423,-7.18571 z m -2.35702,8.43942 c 0.92668,0.0863 2.01253,0.59048 2.22482,0.85416 0.90529,1.12449 4.12841,0.62109 5.16126,1.90401 1.43441,1.78171 5.11335,9.23512 1.86957,11.84662 -2.66074,2.1421 -9.52493,1.66478 -13.57938,1.22696 -3.96321,-0.42797 -3.65047,-0.25571 -4.92085,-0.0957 -0.95491,-0.507 -2.31983,-0.37276 -2.99783,-1.21491 -0.14796,-0.18378 2.22477,-9.49473 2.3643,-9.60705 0.89975,-0.72438 1.61723,-1.67736 2.51699,-2.40174 1.94794,-1.56824 4.22458,-1.59005 6.52203,-2.44454 0.23898,-0.0888 0.53019,-0.0966 0.83909,-0.0679 z"
         id="path6991"
         inkscape:connector-curvature="0" />
      <path
         style="fill:#af9f62;fill-opacity:1;stroke:#ffffff;stroke-width:0.63006341px;stroke-linecap:butt;stroke-linejoin:miter;stroke-opacity:0"
         d="m 662.42685,173.9738 c -3.59105,-0.19384 -7.13426,0.77671 -10.26034,3.33978 -2.31335,1.8967 -4.77989,2.33676 -6.295,4.74115 -7.53685,11.96046 -11.5173,35.12952 -1.53818,47.30077 3.49652,4.26459 9.3843,4.51711 13.60571,7.17722 2.42405,1.52751 9.2515,1.39495 10.73727,0.17678 1.61084,-1.32072 3.16475,-2.21167 4.81027,-3.56082 0.91893,-0.75343 5.54515,-7.68185 4.08963,-9.45711 l -1.99558,-2.4367 c -0.26313,-0.32089 -1.94057,-1.39641 -2.62378,-0.69653 -8.62487,8.8355 -8.95019,9.68142 -17.66375,4.21412 -0.006,-0.002 -0.0144,0.002 -0.0196,-0.001 -0.007,-0.007 -0.0126,-0.0144 -0.0185,-0.0208 -2.48449,-1.37829 -3.07691,-2.18385 -5.90178,-5.62926 -0.96256,-1.17401 -1.09893,-7.32587 -1.85336,-8.24606 -0.21231,-0.25893 -0.31513,-5.03701 0.078,-5.35934 2.14828,-1.15852 4.05668,-2.44927 6.24419,-1.66775 0.0121,0.003 0.0273,-0.002 0.0393,0.002 0.11141,-2.9e-4 0.20519,0.0157 0.31455,0.0173 10.19646,-3.11666 19.79191,1.46232 27.88718,-2.94162 0.96295,-1.54133 1.36016,-5.72472 1.43578,-7.0988 0.0742,-1.34971 0.0983,-3.18643 -0.0669,-4.87435 -3.38066,-7.13078 -11.77411,-14.03951 -20.14096,-14.91188 -0.28703,-0.0299 -0.57717,-0.0518 -0.86395,-0.0673 z m 1.98721,9.39715 c 0.46208,0.021 1.24434,0.19758 1.44725,0.21766 2.32385,0.22998 5.24425,0.92874 6.47241,2.42671 0.38282,0.46691 3.62648,6.41371 1.91649,7.8157 -0.28491,0.2336 -0.83507,0.31222 -1.51686,0.33064 -0.82117,0.69452 -2.5548,1.04443 -5.739,0.7293 l -3.7846,-0.38575 c -2.77754,0.59444 -6.77296,1.13596 -10.59153,0.75804 -2.27134,-0.22478 1.58078,-5.85809 1.99529,-6.51587 2.48665,-3.94614 6.96687,-3.27201 9.48276,-5.33478 0.0474,-0.0389 0.16377,-0.0487 0.31779,-0.0416 z"
         id="path6993"
         inkscape:connector-curvature="0" />
      <path
         sodipodi:nodetypes="cssssssssssssssc"
         style="fill:#af9f62;fill-opacity:1;stroke:#ffffff;stroke-width:0.63006341px;stroke-linecap:butt;stroke-linejoin:miter;stroke-opacity:0"
         d="m 692.4129,237.39736 c -2.23932,-6.41902 -2.98356,-20.29103 -2.7193,-26.85772 0.12178,-3.02589 0.38724,-27.36114 1.12865,-28.04518 1.78091,-1.64312 2.87146,-4.79245 4.72034,-6.49828 1.10676,-1.02112 3.25586,-0.37465 4.95053,-1.13841 7.75034,-3.493 18.67006,0.73766 23.93125,3.63837 2.60212,1.43465 5.03271,13.35928 2.95219,15.27882 -4.2122,3.88628 -6.37726,-5.51832 -8.59869,-7.92604 -1.27525,-1.38221 -3.45811,-1.92271 -5.71544,-2.01355 -1.67059,-0.0672 -3.60236,0.3232 -4.50537,1.15634 -1.80257,1.6631 -4.27971,1.57239 -5.50318,3.79148 -1.51463,2.74718 -0.70102,6.34004 -0.83928,9.77564 -0.18809,4.67382 0.97984,27.36242 2.55804,30.86415 0.72911,1.6178 -0.62038,4.33624 -0.67805,5.76919 -0.0714,1.77292 -3.9673,5.0129 -5.1286,3.75422 -0.4182,-0.45328 -5.50417,-1.07969 -6.55309,-1.54903 z"
         id="path6995"
         inkscape:connector-curvature="0" />
      <path
         inkscape:connector-curvature="0"
         id="path7023"
         d="m 495.04566,213.20984 c -1.31744,-5.87136 5.61356,-5.67057 9.45094,-5.67057 3.01555,0 6.94297,-0.62597 9.76599,0.31503 1.51973,0.50658 11.20058,-1.17289 12.9163,-0.31503 2.16529,1.08264 4.23924,5.84178 2.20523,7.87579 -1.86807,1.86806 -6.53835,-0.66873 -9.13593,0.63007 -4.22017,2.11008 -15.05733,0.94509 -20.16203,0.94509 -1.15348,0 -3.47911,0.30128 -4.09541,-0.31504 -0.29338,-0.29337 -0.8243,-3.16335 -0.94509,-3.46534 z"
         style="fill:#b69b35;fill-opacity:1;stroke:#ffffff;stroke-width:0.63006341px;stroke-linecap:butt;stroke-linejoin:miter;stroke-opacity:0" />
    </g>
    <path
       style="fill:#4646ff;fill-opacity:1;stroke:#ffffff;stroke-width:0.39018583px;stroke-linecap:butt;stroke-linejoin:miter;stroke-opacity:0"
       d="m 410.27889,187.12269 c 2.29194,-0.39014 4.59687,-0.80914 6.98727,-1.37563 2.33497,-0.55333 13.43125,-0.50829 13.78699,-0.72858 3.92774,-2.43215 27.16513,2.98102 33.51914,4.47521 13.35186,3.1398 26.29248,5.61922 40.41082,8.93926 4.68156,1.1009 15.3999,3.95523 19.71507,2.93264 1.60656,-0.38074 5.29275,1.62226 5.37691,1.2644 0.0941,-0.40037 -0.738,-0.43846 -0.95452,-0.78813 -1.43071,-2.31048 -0.72174,-7.03161 -3.4698,-9.32104 -1.37461,-1.14522 -10.45308,-1.88193 -13.01872,-2.48526 l -34.92018,-8.21175 c -4.82928,-1.13564 -20.27144,-7.37368 -24.57211,-6.3545 -0.83655,0.19824 -3.89299,-0.80409 -4.43703,-0.46729 -2.44989,1.51703 -23.34805,-1.83072 -28.78212,-0.54297 -1.11798,0.26496 -3.39415,-1.10285 -4.42521,-0.46406 -0.97642,0.60463 -3.83321,0.9816 -7.02708,1.2786 0.3519,1.90506 0.74101,3.79406 1.03545,5.71731 0.28101,1.83554 0.5289,3.67695 0.72823,5.53234 0.0215,0.19866 0.0267,0.40084 0.0468,0.59971 z"
       id="path8476"
       inkscape:connector-curvature="0" />
    <path
       style="fill:#00ff00;fill-opacity:1;stroke:#ffffff;stroke-width:0.39018583px;stroke-linecap:butt;stroke-linejoin:miter;stroke-opacity:0"
       d="m 538.30611,176.46995 c -3.65543,-0.78865 -29.61265,-0.86826 -31.87498,0.35812 -1.87755,1.01779 -12.39808,1.94623 -15.10006,2.42396 -4.50199,0.79599 -10.01013,3.64032 -13.78845,5.68851 -4.15905,2.25458 -13.11068,3.58084 -18.00567,4.4463 -3.98516,0.70461 -32.26832,2.8439 -32.54488,2.99384 -1.57863,0.85577 -10.14481,-1.20785 -12.42434,-0.80472 -7.26873,1.28513 -38.62388,2.34872 -45.03511,0.44498 -13.10782,-3.89228 -20.16838,-13.89679 -30.55888,-21.16508 -1.57155,-1.09932 -4.7422,-1.41032 -6.4961,-1.35224 -1.744,0.0577 -3.54845,-1.62797 -5.29246,-1.57024 -3.56782,0.11815 -7.35345,-0.19247 -10.84148,-0.34491 -5.38531,-0.23531 -39.08509,6.98986 -42.98827,9.10574 -4.46358,2.41966 -2.96486,1.82366 -4.96931,3.12783 l 3.63669,14.89674 c 0.39021,-0.41693 0.82903,-0.81856 1.29919,-1.21012 -0.0815,-0.10163 -0.10528,-0.19155 -0.0895,-0.25903 2.35086,-9.99687 13.41118,-6.9355 20.17756,-11.12541 0.99521,-0.61627 3.42718,1.09253 4.42237,0.47633 6.51179,-4.03229 30.19681,-1.40408 38.42968,0.53193 1.50664,0.3543 11.41829,7.58934 13.64867,9.4475 2.51004,2.09115 6.62579,2.54432 7.96275,4.70335 0.27389,0.4423 1.87448,0.0628 2.14838,0.5052 0.82015,1.32449 4.41959,3.59148 8.54518,5.95513 1.54032,0.19079 3.11078,0.43937 4.57883,0.87633 1.42794,-0.0647 2.85936,-0.21472 4.29376,-0.46834 2.12478,-0.37567 9.78796,2.23779 11.05949,1.54854 3.55789,-1.92869 12.09047,0.48141 16.59386,0.33228 9.94098,-0.32917 19.99334,-0.14028 29.49274,-0.45485 3.1456,-0.10415 6.65995,-1.68196 9.87347,-2.25013 4.44855,-0.78654 13.29005,-0.5436 16.85321,-2.47516 3.58578,-1.94381 8.62453,-2.01646 11.41421,-3.52872 5.45447,-2.95681 12.94078,-5.29051 19.16438,-6.39087 2.38342,-0.42141 13.49171,-3.32263 15.04609,-4.16526 0.26576,-0.14405 12.59457,-1.47882 14.95073,-1.8954 2.91541,-0.51547 11.22803,1.01493 12.58556,0.27905 0.23629,-0.12811 3.13121,1.08356 3.17197,0.94632 0.18883,-0.63575 -0.27554,-1.32223 -0.59162,-1.90527 -0.0952,-0.17557 1.29342,-4.01814 1.04169,-5.4418 -0.0894,-0.50581 0.87171,-1.68251 0.6358,-2.11769 -0.0319,-0.0588 -0.18153,-0.11007 -0.42523,-0.1626 z"
       id="path8450"
       inkscape:connector-curvature="0" />
    <path
       style="fill:#4646ff;fill-opacity:1;stroke:#ffffff;stroke-width:0.39018583px;stroke-linecap:butt;stroke-linejoin:miter;stroke-opacity:0"
       d="m 410.27889,187.12269 c -0.0203,-0.19891 -0.0254,-0.40106 -0.0469,-0.59972 -0.19933,-1.85539 -0.44721,-3.69679 -0.72822,-5.53234 -0.29445,-1.92324 -0.68355,-3.81225 -1.03546,-5.71731 -6.19987,0.57653 -14.0379,0.75211 -14.48374,1.02821 -4.95811,3.07017 -20.08717,2.33791 -23.75591,4.6097 -0.4597,0.28466 -2.35124,-0.36947 -2.81092,-0.0848 -1.92146,1.18981 -6.23918,1.98292 -8.53571,2.52714 -2.12247,0.50299 -20.48768,0.76054 -21.25961,1.23853 -2.4014,1.48699 -12.0444,0.10588 -13.91262,1.26273 -2.25869,1.39865 -7.82167,-0.20689 -10.54382,1.47873 -4.90662,3.03832 -37.84902,3.41131 -37.65944,5.8871 l -8.81668,10.96616 c 1.84874,0.43476 33.15164,-1.25006 36.49171,-3.31831 1.18581,-0.73429 20.58703,0.55712 22.21414,-0.45041 2.97803,-1.84406 9.20844,0.0986 13.24102,-0.857 8.99485,-2.13158 20.05804,-1.86355 26.28389,-5.71875 1.18503,-0.73381 10.26001,-1.31311 12.54047,-2.72524 0.94574,-0.58562 7.46633,0.25929 9.09876,-0.12756 7.93514,-1.88046 15.5856,-2.48234 23.71901,-3.86685 z"
       id="path8471"
       inkscape:connector-curvature="0" />
    <g
       id="g6848"
       transform="matrix(0.20590544,-0.0649221,0.0649221,0.20590544,275.63779,61.37877)">
      <path
         sodipodi:nodetypes="csssssssssssscssssssssssssssssssssc"
         inkscape:connector-curvature="0"
         id="path5980"
         d="m 295.68557,656.01976 c -1.32127,-11.12037 -1.4485,-23.47175 0.71429,-34.28572 1.69225,-8.46127 -1.22167,-17.87691 0,-26.42857 2.4718,-17.30262 9.16778,-34.07932 17.85714,-49.28571 4.77088,-8.34903 23.01257,-32.98148 30,-38.57143 21.9299,-17.54392 76.91659,-33.29763 105,-29.28571 7.4699,1.06712 14.6991,3.22232 22.14286,4.28571 11.64504,1.66358 32.76557,8.68132 42.14286,15.71429 7.4994,5.62455 13.10231,13.42213 18.57142,20.71428 4.19329,5.59105 9.50603,10.29375 13.57143,15.71429 6.30047,8.40062 13.87674,31.93553 16.42857,42.14285 2.68774,10.75093 3.02514,22.10054 5.71429,32.85715 1.46813,5.87251 -0.75437,12.69681 0.71429,18.57143 2.01216,8.04864 2.85714,16.60168 2.85714,25 -3.83876,9.59689 -14.99764,14.76269 -27.14286,10.71428 -1.93692,-0.64564 -4.44022,0.49709 -6.42857,0 -4.06787,-1.01697 -8.48739,-2.45798 -12.14286,-4.28571 -1.9217,-0.96085 -6.48682,-0.77254 -7.85714,-2.14286 -0.7967,-0.7967 0.71429,-13.05386 0.71429,-17.14286 0,-7.76074 -2.67824,-30.89186 -5,-37.85714 -1.25012,-3.75033 -1.27385,-16.8334 -2.14286,-18.57143 -3.36779,-6.73557 -4.12085,-16.81313 -7.14286,-22.85715 -2.70581,-5.41163 -11.97564,-17.68992 -14.99999,-20.71428 -3.75212,-3.75211 -16.2003,-9.44706 -20.71429,-12.14285 -7.09333,-4.23619 -32.88995,-5.34075 -37.85715,-2.85715 -1.33333,0.66667 -3.66666,-0.66666 -5,0 -4.64686,2.32343 -27.0456,4.18846 -29.28571,6.42857 -3.44322,3.44323 -10.34191,5.34191 -14.28572,9.28572 -7.82453,7.82453 -16.7771,16.77711 -25,25 -3.075,3.07501 -3.92317,6.78031 -7.14285,10 -2.97003,2.97003 -2.98639,9.5442 -5,13.57143 -4.03305,8.06608 -2.56809,21.56475 -6.42857,29.28571 -1.10069,2.20138 0.42623,5.5761 -0.71429,7.85714 -2.02621,4.05243 2.13625,25.72089 0,27.85715 -3.38995,3.38995 -34.95959,1.95402 -42.14286,1.42857 z"
         style="fill:#c8b7b7;stroke:#ffffff;stroke-width:1px;stroke-linecap:butt;stroke-linejoin:miter;stroke-opacity:0" />
      <path
         id="path6802"
         transform="translate(0,308.2677)"
         d="m 409.375,172.8125 c -24.86564,5.18419 -51.43636,15.42409 -65.125,26.375 -6.98743,5.58995 -25.22912,30.21347 -30,38.5625 -1.07467,1.88068 -2.11553,3.79201 -3.125,5.71875 1.66583,-1.66583 5.29289,-3.88664 7.0625,-5.65625 1.69778,-1.69778 2.15031,-5.30954 5.65625,-7.0625 7.27318,-3.6366 15.85904,-2.99202 22.625,-6.375 3.89765,-1.94882 -4.07424,-7.35151 -2.09375,-11.3125 2.76468,-5.52936 9.53922,-9.12699 15.53125,-10.625 0.83375,-0.20844 8.5,-1.10742 8.5,-1.40625 0,-0.84792 -8.60377,-4.83373 -5.65625,-7.78125 1.3984,-1.3984 5.53524,0.83976 6.375,0 0.83591,-0.83591 1.00119,-2.43869 2.09375,-3.53125 2.09507,-2.09508 8.65467,-2.20233 11.3125,-3.53125 0.94281,-0.4714 2.61969,0.47141 3.5625,0 2.33806,-1.16903 2.8802,-4.9809 7.0625,-6.375 1.72765,-0.57588 14.43527,-0.99777 14.84375,-1.40625 0.90575,-0.90575 -1.14188,-1.96625 -0.71875,-2.8125 0.54086,-1.08172 1.30464,-1.96225 2.09375,-2.78125 z m -99.15625,72.46875 c -6.69052,13.14536 -11.74131,27.25168 -13.8125,41.75 -1.22167,8.55166 1.69225,17.97623 0,26.4375 -1.91642,9.58213 -2.04212,20.3672 -1.125,30.4375 1.5715,0.0378 3.02544,0.0371 3.8125,-0.75 0.83591,-0.83591 3.87619,0.40506 4.96875,-0.6875 2.89644,-2.89644 -5.71776,-11.37402 -6.375,-12.03125 -3.09509,-3.0951 6.53961,-6.76453 4.96875,-9.90625 -0.74568,-1.49137 -6.67811,-2.23752 -4.96875,-5.65625 2.00899,-4.01797 14.14114,-4.20364 16.28125,-6.34375 1.37998,-1.37999 -16.03902,-5.89848 -13.4375,-8.5 2.03533,-2.03533 8.78112,-0.31237 10.59375,-2.125 0.82457,-0.82456 -5.82605,-6.0354 -4.25,-9.1875 1.18471,-2.36943 4.23642,-1.42392 5.65625,-2.84375 0.26469,-0.2647 -4.59056,-2.4407 -2.8125,-4.21875 0.73633,-0.73633 7.65372,-3.06756 7.0625,-4.25 -1.03471,-2.06942 -9.67677,-6.11519 -7.78125,-9.90625 1.40861,-2.81722 7.78125,-5.41637 7.78125,-5.65625 0,-2.67813 -7.41197,-11.6553 -6.5625,-16.5625 z"
         style="fill:#d4c7c7;fill-opacity:1;stroke:#ffffff;stroke-width:1px;stroke-linecap:butt;stroke-linejoin:miter;stroke-opacity:0"
         inkscape:connector-curvature="0" />
      <path
         id="path6838"
         transform="translate(0,308.2677)"
         d="m 421.875,206 c -1.15896,0.0181 -2.08781,0.21281 -2.5625,0.6875 -1.17851,1.17851 -1.63398,3.07149 -2.8125,4.25 -0.56489,0.56489 -18.10044,1.81918 -20.53125,4.25 -1.64992,1.64992 -2.56884,4.00634 -4.21875,5.65625 -1.88562,1.88562 -9.42688,-1.88561 -11.3125,0 -1.56159,1.56159 2.24908,4.09466 0.6875,5.65625 -1.18414,1.18413 -6.50898,-0.58477 -7.78125,0.6875 -0.94281,0.9428 0.94281,4.71344 0,5.65625 -2.34533,2.34533 -8.57309,-0.58316 -10.59375,1.4375 -1.06066,1.06066 0.34191,4.59559 -0.71875,5.65625 -1.41421,1.41421 -6.36704,-0.72671 -7.78125,0.6875 -1.5662,1.5662 3.00345,5.49656 2.84375,5.65625 -1.41421,1.41421 -4.96078,0.71079 -6.375,2.125 -0.79344,0.79345 -4.62587,-2.29731 -5.65625,-2.8125 -1.86127,-0.93063 -12,-1.83617 -12,1.40625 0,0.84983 0.80532,1.52407 1.40625,2.125 0.62163,0.62163 1.91763,7.57387 2.8125,8.46875 1.76859,1.76859 5.12286,3.87073 6.375,6.375 0.55682,1.11364 -0.90889,0.71875 -1.40625,0.71875 -20.5039,0 -0.64746,9.04492 -2.125,12 -1.53391,3.06782 -7.4555,1.61837 -9.90625,2.84375 -0.3796,0.1898 -2.60576,0.92549 -2.125,1.40625 0.82495,0.82496 2.70629,0.5813 3.53125,1.40625 0.13171,0.13172 0.31322,0.43579 0.46875,0.625 -0.31069,0.14156 -0.83322,0.65099 -1.15625,0.8125 -2.73791,1.36896 -6.41185,1.47994 -7.78125,4.21875 -0.59591,1.19181 5.42311,7.78125 7.78125,7.78125 4.27111,0 -1.86278,4.67528 -2.84375,5.65625 -1.24219,1.24218 3.53125,5.92741 3.53125,6.375 0,1.10784 -7.07127,5.67379 -8.46875,8.46875 -1.72641,3.45282 7.57829,4.76579 9.1875,6.375 0.89159,0.8916 -8.24589,6.12089 -8.5,6.375 -2.12402,2.12401 8.88199,5.31948 9.21875,5.65625 0.64106,0.64105 -2.58057,1.86181 -2.84375,2.125 -0.86423,0.86422 -6.04436,6.6744 -5.65625,7.0625 0.99773,0.99773 7.69299,1.31882 13.6875,1.40625 1.02448,-4.82325 -2.25397,-23.11705 -0.40625,-26.8125 1.14052,-2.28104 -0.41319,-5.67362 0.6875,-7.875 3.86048,-7.72096 2.40445,-21.21517 6.4375,-29.28125 2.01361,-4.02723 2.02997,-10.59247 5,-13.5625 3.21968,-3.21969 4.08125,-6.92499 7.15625,-10 l 25,-25 c 3.94381,-3.94381 10.83803,-5.83802 14.28125,-9.28125 2.24011,-2.24011 24.63439,-4.11407 29.28125,-6.4375 1.33334,-0.66666 3.66667,0.66667 5,0 4.9672,-2.4836 30.75042,-1.36119 37.84375,2.875 3.34954,2.00037 11.05155,5.65355 16.34375,8.9375 -4.1322,-6.38836 -12.58421,-8.37023 -18.90625,-11.53125 -3.45223,-1.72611 -9.03416,0.12209 -12,-2.84375 -1.6991,-1.6991 -2.09562,-4.22063 -3.53125,-5.65625 -0.45923,-0.45924 -4.70859,1.86484 -4.96875,2.125 -0.1602,0.1602 -12.91777,-2.58388 -13.4375,-2.84375 C 430.84773,207.50199 425.35189,205.9458 421.875,206 z"
         style="fill:#bea9a9;fill-opacity:1;stroke:#ffffff;stroke-width:1px;stroke-linecap:butt;stroke-linejoin:miter;stroke-opacity:0"
         inkscape:connector-curvature="0" />
      <path
         sodipodi:nodetypes="csssssssssssscsssscsssssssscssccssc"
         transform="translate(0,308.2677)"
         inkscape:connector-curvature="0"
         id="path5984"
         d="m 593.57142,406.23733 c -0.89889,-6.95823 -1.744,-24.61003 -2.14285,-27.14285 -1.06602,-6.7695 -0.71428,-22.80982 -0.71428,-37.14286 0,-5.81268 -3.84256,-5 -9.28572,-5 -23.91911,0 -49.43385,1.42858 -73.57143,1.42858 -27.21294,0 -53.32605,4.28571 -80.71428,4.28571 -5.08823,0 -12.17121,1.24291 -17.14286,0 -10.5776,-2.6444 -22.14399,-0.71451 -32.85714,-2.85714 -12.7619,-2.55238 -42.4396,-3.94871 -54.28572,0 -5.94279,1.98093 -16.3628,-0.0219 -22.85714,2.14285 -6.04446,2.01483 -25.09653,-2.04632 -29.28571,2.14286 -5.99097,5.99097 -1.58986,24.447 -4.28572,27.14286 -3.60712,3.60712 -2.72859,38.11425 0,43.57143 2.46699,4.93398 -5.26964,64.77487 -2.14286,65 -0.25482,18.70975 2.14286,37.19688 2.14286,55.71428 0,2.95336 -3.06242,9.58945 -1.42857,12.85715 2.74644,5.49287 2.14286,25.96033 2.14286,32.14285 0,3.48012 -2.33183,23.38246 0,25.71429 2.89723,2.89724 11.52016,2.14286 15.71428,2.14286 11.39636,2.84907 -0.65389,-0.68409 3.57143,1.42857 2.07827,1.03913 17.68623,-0.71429 21.42857,-0.71429 17.14443,0 33.48136,0.71429 50,0.71429 20.08595,0 39.33847,-0.71429 59.28572,-0.71429 10.01926,0 24.11757,2.437 33.57143,-0.71428 4.53792,-1.51264 12.35003,0 17.14285,0 21.1475,0 41.73654,0.71428 62.85715,0.71428 5.96344,0 55.98712,3.29859 58.57142,0.71429 3.66532,-3.66532 -0.12181,-16.30676 1.42858,-17.85714 0.47619,-1.42857 1.01488,-2.83781 1.42857,-4.28572 0.91086,-3.18802 -2.84199,-12.17316 -0.71429,-16.42857 2.37633,-4.75265 1.33065,-25.19586 1.42857,-35.71428 0.32416,-16.22773 0.65458,-18.23433 0,-34.28572 -1.32661,-1.32661 -1.72357,-37.98143 -1.42857,-38.57143 3.75189,-7.50378 -1.39302,-24.3568 0.71429,-28.57143 1.47355,-2.9471 1.42857,-22.37336 1.42856,-27.85715 z"
         style="fill:#786d41;fill-opacity:1;stroke:#ffffff;stroke-width:1px;stroke-linecap:butt;stroke-linejoin:miter;stroke-opacity:0" />
      <path
         id="path6820"
         transform="translate(0,308.2677)"
         d="m 489.46875,232.25 c 0.73059,0.75545 1.74576,1.92973 2.9375,3.40625 0.2386,-1.07702 0.45187,-2.11063 -0.25,-2.8125 -0.39571,-0.39571 -1.38366,-0.559 -2.6875,-0.59375 z m 6.75,8.375 c 1.33703,1.79527 2.64547,3.64188 3.875,5.4375 0.10901,-1.07436 0.37093,-2.25815 -0.15625,-3.3125 -0.55738,-1.11476 -2.15067,-1.65132 -3.71875,-2.125 z M 502,248.9375 c 0.91648,1.43637 1.72891,2.77033 2.25,3.8125 3.02201,6.04402 3.78846,16.10818 7.15625,22.84375 0.86901,1.73803 0.87488,14.84342 2.125,18.59375 2.32176,6.96528 5,30.08301 5,37.84375 0,3.83344 -1.30296,14.85695 -0.8125,16.875 5.72305,-1.2092 9.78125,-3.11156 9.78125,-5.75 0,-2.87537 -7.61114,-3.18398 -6.375,-5.65625 1.48358,-2.96716 6.45264,-2.89015 8.5,-4.9375 1.33209,-1.3321 0.26836,-4.51836 0.71875,-4.96875 0.42997,-0.42998 8.1505,-3.162 5.65625,-5.65625 -2.17479,-2.17479 -11.06436,-5.81623 -12.03125,-7.75 -1.66432,-3.32865 5.43698,-5.40729 3.53125,-9.21875 -1.04933,-2.09866 -6.94238,0.12012 -8.46875,-1.40625 -0.74183,-0.74183 6.80385,-6.54522 7.0625,-7.0625 1.34095,-2.68191 -4.96875,-2.0828 -4.96875,-6.375 0,-0.29116 -0.18718,-1.93783 0,-2.125 0.27199,-0.27199 6.49476,-4.81774 4.96875,-6.34375 -0.99339,-0.99339 -6.20192,-1.81008 -7.0625,-3.53125 -0.75873,-1.51746 3.81993,-3.93007 2.09375,-5.65625 -1.58946,-1.58946 -3.85303,-0.67481 -4.9375,-2.84375 -0.42835,-0.8567 -1.27864,-3.81771 -0.71875,-4.9375 0.092,-0.18409 1.27151,-0.88474 0.71875,-1.4375 -1.16528,-1.16528 -5.80665,-3.08205 -6.375,-4.21875 -1.12294,-2.24588 0.51864,-5.16885 -1.40625,-7.09375 -0.94947,-0.94947 -4.4464,-2.27475 -6.40625,-3 z"
         style="fill:#d4c7c7;fill-opacity:1;stroke:#ffffff;stroke-width:1px;stroke-linecap:butt;stroke-linejoin:miter;stroke-opacity:0"
         inkscape:connector-curvature="0" />
      <path
         id="path6765"
         transform="translate(0,308.2677)"
         d="m 585.1875,336.90625 c -1.12568,-0.0146 -2.38921,0.0312 -3.75,0.0312 -23.91911,0 -49.45617,1.4375 -73.59375,1.4375 -6.43347,0 -12.78309,0.25919 -19.125,0.625 -10.47091,2.57821 -20.71619,5.09119 -25.71875,10.09375 -0.82331,0.82331 12.91811,1.45906 14,2 3.35401,1.67701 7.72277,1.36139 11,3 2.23752,1.11876 20.02008,12.95984 19,15 -2.31386,4.62772 -11.21008,3.21008 -15,7 -9.95596,9.95596 -28.08854,17.17709 -35,31 -1.48033,2.96067 -11,6.13868 -11,10 0,0.51527 7.75281,2 9,2 9.09323,0 23.31588,1.63177 28,11 5.72042,11.44084 -10.82435,25.35131 -9,29 1.25383,2.50765 4.20389,1.20389 6,3 l 7,7 c 1.94703,1.94703 13.50913,3.50913 16,6 3.34979,3.3498 6.50786,8.50786 10,12 3.97128,3.97129 -28.21276,17.78724 -22,24 2.3536,2.3536 13.74416,8.51169 11,14 -4.59392,9.18784 -35.06229,19.06229 -44,28 -1.4359,1.4359 1.84615,0.92308 2,1 1.87968,0.93984 2.3987,3 4,3 2.04436,0 18.75432,13.24568 15,17 l -9,9 c -2.79925,2.79925 -37.59367,12.29684 -45,16 -4.15109,2.07555 7.93902,7.88861 9.90625,10.84375 5.69217,0.17146 11.2908,-0.0553 15.8125,-1.5625 4.53792,-1.51264 12.33218,0 17.125,0 21.1475,0 41.75439,0.71875 62.875,0.71875 5.96344,0 55.9782,3.30305 58.5625,0.71875 3.66532,-3.66532 -0.11289,-16.32462 1.4375,-17.875 0.47619,-1.42857 1.02381,-2.83334 1.4375,-4.28125 0.91086,-3.18802 -2.84645,-12.15084 -0.71875,-16.40625 2.37633,-4.75265 1.30833,-25.20033 1.40625,-35.71875 0.32416,-16.22773 0.65458,-18.22986 0,-34.28125 -1.32661,-1.32661 -1.70125,-38.00375 -1.40625,-38.59375 3.75189,-7.50378 -1.38856,-24.34787 0.71875,-28.5625 1.47355,-2.9471 1.40626,-22.35996 1.40625,-27.84375 -0.89889,-6.95823 -1.72615,-24.62343 -2.125,-27.15625 -1.06602,-6.7695 -0.71875,-22.82321 -0.71875,-37.15625 0,-4.35951 -2.1542,-4.98735 -5.53125,-5.03125 z"
         style="fill:#6e643b;fill-opacity:1;stroke:#ffffff;stroke-width:1px;stroke-linecap:butt;stroke-linejoin:miter;stroke-opacity:0"
         inkscape:connector-curvature="0" />
      <path
         id="path6770"
         transform="translate(0,308.2677)"
         d="m 345.75,337.34375 c -9.09908,0.0322 -17.72357,0.74119 -22.90625,2.46875 -5.94279,1.98093 -16.34941,-0.0398 -22.84375,2.125 -6.04446,2.01483 -25.09207,-2.03293 -29.28125,2.15625 -5.99097,5.99097 -1.58539,24.46039 -4.28125,27.15625 -3.60712,3.60712 -2.72859,38.10532 0,43.5625 2.46699,4.93398 -5.28303,64.77487 -2.15625,65 -0.25482,18.70975 2.15625,37.20135 2.15625,55.71875 0,2.95336 -3.07135,9.57605 -1.4375,12.84375 1.02068,2.04135 1.57676,6.16784 1.875,10.84375 1.54712,-1.72492 2.92154,-3.71809 4.125,-6.125 3.77332,-7.54665 -2.87138,-13.12862 4,-20 2.21868,-2.21868 -2.14941,-7.70118 -1,-10 1.43696,-2.87392 1.62048,-4.24097 3,-7 1.28265,-2.56529 -8.13677,-4.72646 -6,-9 0.6386,-1.2772 9.9295,-8.07969 14.09375,-12.125 9.5501,-2.96183 20.7266,-1.72267 28.15625,-5.4375 1.78338,-0.89169 15.09532,-2.125 12.03125,-2.125 -10.42226,0 -44.82147,4.41956 -48.09375,-2.125 -0.86861,-1.73721 0.40948,-4.53323 0.25,-6.625 1.38882,-1.31926 7.78985,-7.33515 6.5625,-8.5625 -0.36852,-0.36852 -2.54931,-1.6743 -4.40625,-3 5.33715,-2.98895 15.15272,-3 20.9375,-3 4.01354,0 8.1437,-1.4375 12,-1.4375 2.05973,0 4.34496,-0.74977 5.53125,-1.15625 -0.42883,-0.0915 -0.94397,-0.25 -1.28125,-0.25 l -8.46875,0 c -9.11366,0 -19.25132,1.03325 -25.71875,-3.4375 1.11452,-1.2815 2.25351,-2.56601 3.40625,-3.71875 1.63627,-1.63627 -0.73801,-7.27797 -0.5625,-10.375 5.19372,-1.71882 13.45725,-2.96875 16.5,-2.96875 3.99066,0 8.95289,-1.11819 10.65625,-1.375 -2.21739,-0.0271 -9.72845,-0.75 -10.65625,-0.75 -4.57529,0 -8.56215,-0.17519 -11.9375,-0.8125 2.03627,-2.24506 4,-4.49544 4,-4.71875 0,-0.75897 -10.74551,-10.74551 -12,-12 -1,-1 1,-5 0,-6 -2.02202,-2.02202 -2.19167,-4.24274 -1.40625,-6.4375 5.40472,-1.76158 45.61362,-6.09375 51.03125,-6.09375 7.36822,0 16.58932,-3.06921 24.0625,-4.9375 0.3022,-0.0756 4.0414,-1.09091 6.21875,-1.4375 l -5.53125,0 -12,0 c -18.02333,0 -35.42062,1.74282 -50.21875,-5.65625 -1.15221,-0.5761 -3.55558,-1.37424 -5.65625,-2.3125 0.20731,-0.61275 0.41429,-1.03929 0.5,-1.125 0.11574,-0.11574 3.14572,-3.61322 5.1875,-6.21875 10.01383,-2.15731 22.74886,-1.65625 31.78125,-1.65625 2.67545,0 10.23967,0.56766 12.75,-0.6875 1.49717,-0.74861 3.51717,-0.009 4.9375,-0.71875 0.25463,-0.12731 0.63067,-0.44447 0.9375,-0.65625 -0.3284,-0.18492 -0.72799,-0.54049 -0.9375,-0.75 -0.52497,-0.52497 -4.99201,0 -5.65625,0 -4.11409,0 -8.26919,-0.71875 -12.71875,-0.71875 -7.53449,0 -23.16982,1.42252 -32.375,-0.8125 -2.16517,-2.52997 -4.32073,-5.95229 -2.90625,-8.78125 0.22215,-0.44431 0.52073,-0.87334 0.875,-1.28125 4.55571,-0.77713 24.15056,-0.62216 28.03125,-2.5625 2.73305,-1.36652 7.78125,0.33416 7.78125,-0.6875 0,-1.20938 -7.50991,-1.4375 -8.5,-1.4375 -1.53721,0 -4.15967,-1.36266 -5.65625,-3.21875 6.18414,-1.1467 12.09306,-1.96858 15.46875,-2.8125 4.65633,-1.16408 9.78651,1.10675 14,-1 2.13333,-1.06666 5.86667,1.06667 8,0 9.99724,-4.99862 -5.35521,-3.64479 -2,-7 3.36389,-3.36389 26.50433,-3.00473 33.96875,-5.5625 -1.62482,-0.16694 -3.21936,-0.40012 -4.8125,-0.71875 -7.17857,-1.43571 -19.70744,-2.51015 -31.40625,-2.46875 z m -1.15625,39.8125 c 0.25574,0.144 0.46875,0.16825 0.46875,-0.0625 0,-0.24236 -0.20754,-0.11779 -0.46875,0.0625 z m 17.3125,19.03125 0.125,0 c 0.47141,0 1.40625,0.4714 1.40625,0 0,-0.1978 -0.63469,-0.14271 -1.53125,0 z m -49.3125,43.1875 c 0.38521,0.005 0.65625,0.0145 0.65625,-0.0312 0,-0.0536 -0.27521,-0.0262 -0.65625,0.0312 z m 5.46875,22.125 c 0.4702,0.10038 0.84375,0.11982 0.84375,-0.25 0,-0.0329 -0.35703,0.0832 -0.84375,0.25 z"
         style="fill:#8b7d47;fill-opacity:1;stroke:#ffffff;stroke-width:1px;stroke-linecap:butt;stroke-linejoin:miter;stroke-opacity:0"
         inkscape:connector-curvature="0" />
      <path
         id="path6843"
         transform="translate(0,308.2677)"
         d="m 461.6875,172.3125 c -1.41053,0.39439 -2.05275,1.166 -0.65625,2.5625 2.59245,2.59246 12.2629,0.9504 13.4375,2.125 1.22215,1.22215 -2.10422,2.11454 -1.40625,2.8125 1.24815,1.24815 12.95599,1.6435 15.5625,4.25 2.31023,2.31024 -2.75635,3.61866 -2.125,4.25 0.58925,0.58926 2.22325,0.12949 2.8125,0.71875 1.565,1.565 17.24619,0.96494 19.09375,2.8125 0.97377,0.97377 -3.40404,1.66068 -2.8125,2.84375 1.77683,3.55366 7.92051,2.26426 10.59375,4.9375 3.00721,3.00721 -3.83287,6.04214 -1.40625,8.46875 2.49165,2.49165 6.72064,3.18938 9.1875,5.65625 1.30784,1.30783 -2.71408,2.94216 -1.40625,4.25 0.5928,0.5928 3.404,0.94199 2.8125,2.125 -0.75817,1.51634 -6.36895,4.95615 -3.53125,6.375 3.95608,1.97803 10.54431,0.63806 13.4375,3.53125 2.15895,2.15895 7.84159,-0.27544 12.25,-0.875 -0.6213,-1.05723 -1.24032,-2.03917 -1.84375,-2.84375 -4.0654,-5.42054 -9.36921,-10.1277 -13.5625,-15.71875 -5.46911,-7.29215 -11.09435,-15.06295 -18.59375,-20.6875 -9.37729,-7.03297 -30.47996,-14.05517 -42.125,-15.71875 -3.26784,-0.46683 -6.4951,-1.17176 -9.71875,-1.875 z M 549.0625,232 c -0.90023,0.43307 -1.696,0.78975 -1.75,0.84375 -2.24062,2.24062 3.74863,4.03262 2.125,5.65625 -0.86578,0.86578 -10.54332,3.61293 -7.78125,6.375 1.55778,1.55778 3.67826,1.58451 4.9375,2.84375 3.59916,3.59916 -4.01029,7.98971 -1.40625,10.59375 1.02717,1.02718 9.81382,2.96611 8.46875,5.65625 -0.6323,1.2646 -2.69894,1.86663 -3.53125,3.53125 -1.12024,2.24048 1.20298,6.60952 -0.6875,8.5 -0.23471,0.23471 -3.81131,1.84494 -2.84375,2.8125 0.79116,0.79116 3.83844,1.57547 4.9375,2.125 3.63252,1.81626 8.5,12.7754 8.5,15.5625 0,0.25 -5.16784,1.63659 -5.65625,2.125 -1.67856,1.67855 6.34363,3.5315 4.9375,6.34375 -0.67629,1.35259 -9.29707,7.67168 -5.65625,11.3125 1.76777,1.76777 4.60723,2.48223 6.375,4.25 0.72344,0.72344 -4.2018,3.57946 -3.53125,4.25 1.91115,1.91115 8.46875,2.58742 8.46875,7.0625 0,1.25926 -5.87086,5.90211 -6.34375,6.375 -4.09858,4.09858 0.84914,9.94063 6.65625,14.625 2.69458,-2.04124 4.83778,-4.71945 6.125,-7.9375 0,-8.39832 -0.86284,-16.95136 -2.875,-25 -1.46866,-5.87462 0.78063,-12.72124 -0.6875,-18.59375 C 565.1546,290.55589 564.81274,279.21968 562.125,268.46875 560.01957,260.04701 554.47002,242.58116 549.0625,232 z"
         style="fill:#bea9a9;fill-opacity:1;stroke:#ffffff;stroke-width:1px;stroke-linecap:butt;stroke-linejoin:miter;stroke-opacity:0"
         inkscape:connector-curvature="0" />
      <path
         id="path6775"
         transform="translate(0,308.2677)"
         d="m 585.1875,336.90625 c -1.12568,-0.0146 -2.38921,0.0312 -3.75,0.0312 -11.33426,0 -23.04145,0.3166 -34.78125,0.65625 1.21276,3.8645 6.15854,5.31479 9.34375,8.5 1.94778,1.94778 2.15485,5.15485 4,7 3.32956,3.32956 -12.54712,14.09424 -15,19 -0.15385,0.30769 -0.15385,2.69231 0,3 1.45669,2.91339 4.94322,2.94322 7,5 2.69806,2.69806 2.69282,6.69283 6,10 1.77503,1.77503 6.56787,3.56787 8,5 3.82572,3.82572 -5.82101,14.64203 -7,17 -3.11834,6.23668 7.38742,22.61258 3,27 -2.77139,2.7714 -13,13.59078 -13,14 0,0.77994 7.46778,3.46778 9,5 3.51754,3.51754 8.23259,4.23259 11,7 0.83514,0.83514 -5.37772,7.62229 -3,10 1.49518,1.49518 10.91577,7.16847 8,13 -5.78508,11.57017 -10.46334,22.46335 -18,30 -2.06275,2.06275 4,5.62368 4,7 0,3.47189 -4.33903,10.67807 -6,14 -1.43788,2.87576 12.44834,9.44834 14,11 2.33486,2.33486 -2.25574,7.51149 -3,9 -1.26442,2.52885 -0.34251,9.34251 -2,11 l -9,9 c -3.5448,3.5448 14.89626,8.10374 13,10 -8.2638,8.2638 -27.25486,9.25486 -35,17 -1.04112,1.04112 -1.22769,2.04944 -1,3 6.64988,0.0551 55.71896,3.28104 58.28125,0.71875 3.66532,-3.66532 -0.11289,-16.32462 1.4375,-17.875 0.47619,-1.42857 1.02381,-2.83334 1.4375,-4.28125 0.91086,-3.18802 -2.84645,-12.15084 -0.71875,-16.40625 2.37633,-4.75265 1.30833,-25.20033 1.40625,-35.71875 0.32416,-16.22773 0.65458,-18.22986 0,-34.28125 -1.32661,-1.32661 -1.70125,-38.00375 -1.40625,-38.59375 3.75189,-7.50378 -1.38856,-24.34787 0.71875,-28.5625 1.47355,-2.9471 1.40626,-22.35996 1.40625,-27.84375 -0.89889,-6.95823 -1.72615,-24.62343 -2.125,-27.15625 -1.06602,-6.7695 -0.71875,-22.82321 -0.71875,-37.15625 0,-4.35951 -2.1542,-4.98735 -5.53125,-5.03125 z"
         style="fill:#5e5532;fill-opacity:1;stroke:#ffffff;stroke-width:1px;stroke-linecap:butt;stroke-linejoin:miter;stroke-opacity:0"
         inkscape:connector-curvature="0" />
    </g>
    <path
       style="fill:#4646ff;fill-opacity:1;stroke:#ffffff;stroke-width:0.37780079px;stroke-linecap:butt;stroke-linejoin:miter;stroke-opacity:0"
       d="m 547.35909,164.26752 c -3.82529,-0.14335 -11.12996,3.04235 -15.99162,9.3502 -7.11557,9.2322 -15.64839,32.34868 -3.92195,41.38657 0.8574,0.66084 1.52586,2.46484 2.51269,2.87093 3.50843,1.44378 8.05093,1.47201 11.68917,2.96919 5.24858,2.15981 15.75001,2.32868 20.53291,0.3346 12.89305,-5.37549 17.63065,-18.41444 14.10735,-32.03565 -1.29057,-4.98949 -1.7833,-10.76414 -5.45543,-14.97839 -5.53591,-6.35314 -13.21353,-7.22426 -22.05927,-9.63461 -0.38746,-0.15691 -0.86738,-0.24239 -1.41385,-0.26284 z m 2.91295,7.54917 c 4.37756,0.26649 8.94742,2.97424 11.13741,5.4875 0.98686,1.13251 3.31574,8.74841 1.45263,10.37184 -1.42322,1.24013 -2.71644,2.88742 -4.63271,4.55728 -0.24912,0.217 -1.54525,0.55212 -1.15732,0.99732 0.75305,0.86424 3.80276,0.86952 4.7418,1.94721 2.61035,2.99569 4.12466,7.72874 1.29191,12.53831 -3.15637,5.35901 -12.20281,10.73624 -19.8938,6.2063 -1.41615,-0.8341 -3.13271,-0.68509 -4.19999,-1.90994 -2.33535,-2.6802 -0.55198,-15.55506 -0.2809,-19.49834 0.41276,-6.00531 1.08418,-11.83141 2.29363,-17.70004 l 2.84546,-1.97007 c 0.0125,-0.17948 -0.0992,-0.41183 0.0364,-0.53004 0.36502,-0.31806 1.69174,0.34157 2.15547,0.148 1.32107,-0.55077 2.75081,-0.73437 4.20999,-0.6455 z m -0.95902,8.44285 c -5.42327,15.54676 9.55136,0.65663 0,0 z m 1.71877,18.03507 c -0.71614,-0.0734 -1.54374,0.0139 -2.44699,0.30513 -0.0498,0.71791 0.56976,2.20482 -0.148,2.15549 -0.0513,-0.003 -0.0907,-0.027 -0.12632,-0.0561 -0.30132,2.24588 -0.69029,5.51082 -0.28093,5.98056 0.47064,0.54021 1.39038,-0.3165 1.66266,-0.43004 6.00434,-2.50342 5.20672,-7.55719 1.33974,-7.95513 z m -2.7215,2.40459 c 0.14073,-1.04974 0.26103,-1.90316 0.27461,-2.09945 0.0462,-0.66661 -0.73679,1.71567 -0.27461,2.09945 z"
       id="path7462"
       inkscape:connector-curvature="0" />
    <path
       style="fill:#00ff00;stroke:#ffffff;stroke-width:0.41285458px;stroke-linecap:butt;stroke-linejoin:miter;stroke-opacity:0"
       d="m 252.94425,161.16147 c -3.29921,-0.0745 -6.73308,0.37469 -8.95284,0.7538 -2.67094,-1.49515 -12.10479,1.79899 -17.99394,10.11401 -0.92458,1.30539 -2.60122,2.41743 -3.057,4.04379 -1.36012,4.85357 -3.12176,9.55129 -4.54334,14.62414 -1.01849,3.6345 0.47425,7.37925 1.46695,10.66381 2.72892,9.02905 9.63117,17.40946 18.30148,20.57431 2.31169,0.84378 5.26786,0.13944 7.64382,0.80956 9.83168,2.75516 18.63543,2.61262 27.22128,-2.76743 16.70192,-10.46565 7.09749,-34.15381 1.31603,-46.58233 -2.10151,-4.51763 -7.29431,-6.50977 -9.77069,-9.13015 -0.66839,-0.70725 -2.86178,0.0267 -3.53018,-0.68054 -1.64725,-1.74304 -4.80237,-2.3485 -8.10157,-2.42304 z m -2.53075,10.08614 c 2.64704,0.009 5.70315,1.08056 6.81558,2.25769 l 5.72722,6.06021 c 3.77064,3.98987 6.19849,31.4474 1.95391,35.45877 -0.92651,0.8756 -4.37356,-2.52111 -4.63671,-3.08673 -1.14227,-2.45561 -1.57318,-6.47473 -2.22154,-10.45275 -3.74621,1.16759 -9.01251,1.58263 -12.4961,0.53756 -0.89013,3.88129 -1.91873,7.28603 -3.54038,8.81854 -0.54312,0.5133 -1.54077,5.15745 -3.65024,4.02713 -1.85271,-0.9927 -2.62863,-4.13947 -3.96005,-6.02326 1.47156,-5.01046 3.20844,-9.89618 5.1401,-15.18812 1.49383,-4.09245 6.37508,-16.4151 6.45643,-19.29404 0.0652,-2.30926 2.07616,-3.12289 4.41178,-3.115 z m 1.10018,13.59624 c -0.16257,0.0226 -0.33277,0.11363 -0.51135,0.28239 -2.18194,2.06204 -3.33912,7.0491 -4.4218,12.14954 0.1834,-0.12509 0.36681,-0.28394 0.55515,-0.4619 0.11555,-0.10917 5.47668,-0.61315 9.85938,-0.40552 -0.59679,-2.12816 -1.41262,-4.00509 -2.62558,-5.28856 -0.44746,-0.47343 -1.28439,-6.49161 -2.8558,-6.27595 z"
       id="path7454"
       inkscape:connector-curvature="0" />
  </g>
</svg>
