<?xml version="1.0" encoding="UTF-8" standalone="no"?>
<!-- Created with Inkscape (http://www.inkscape.org/) -->

<svg
   xmlns:dc="http://purl.org/dc/elements/1.1/"
   xmlns:cc="http://creativecommons.org/ns#"
   xmlns:rdf="http://www.w3.org/1999/02/22-rdf-syntax-ns#"
   xmlns:svg="http://www.w3.org/2000/svg"
   xmlns="http://www.w3.org/2000/svg"
   xmlns:sodipodi="http://sodipodi.sourceforge.net/DTD/sodipodi-0.dtd"
   xmlns:inkscape="http://www.inkscape.org/namespaces/inkscape"
   width="744.09448819"
   height="1052.3622047"
   id="svg5481"
   version="1.1"
   inkscape:version="0.48.1 r9760"
   sodipodi:docname="separation_of_concerns.svg"
   inkscape:export-filename="/home/substack/media/vector/separation_of_concerns.png"
   inkscape:export-xdpi="120.00428"
   inkscape:export-ydpi="120.00428">
  <defs
     id="defs5483" />
  <sodipodi:namedview
     id="base"
     pagecolor="#ffffff"
     bordercolor="#666666"
     borderopacity="1.0"
     inkscape:pageopacity="0.0"
     inkscape:pageshadow="2"
     inkscape:zoom="0.51590689"
     inkscape:cx="253.67646"
     inkscape:cy="507.86167"
     inkscape:document-units="px"
     inkscape:current-layer="layer1"
     showgrid="false"
     inkscape:window-width="1364"
     inkscape:window-height="766"
     inkscape:window-x="0"
     inkscape:window-y="0"
     inkscape:window-maximized="0" />
  <metadata
     id="metadata5486">
    <rdf:RDF>
      <cc:Work
         rdf:about="">
        <dc:format>image/svg+xml</dc:format>
        <dc:type
           rdf:resource="http://purl.org/dc/dcmitype/StillImage" />
        <dc:title></dc:title>
      </cc:Work>
    </rdf:RDF>
  </metadata>
  <g
     inkscape:label="Layer 1"
     inkscape:groupmode="layer"
     id="layer1">
    <path
       style="fill:#781414;fill-opacity:1;stroke:#000000;stroke-width:1px;stroke-linecap:butt;stroke-linejoin:miter;stroke-opacity:1"
       d="m 432.72921,686.59876 c -6.0586,-0.031 -21.02081,17.47916 -25.6875,19.8125 -8.35934,4.17967 -14.54331,5.63583 -24.25,8.0625 -14.77425,3.69356 -21.35601,-1.9489 -36.375,7.0625 0.54901,6.9557 6.2976,17.43458 11.8125,29.5 -2.44142,5.11787 -4.26878,11.57513 -5.75,17.5 -1.39669,5.58677 -1.05884,10.71143 -3.53125,15.65625 -1.36642,2.73284 -1.13895,6.30916 -2.53125,9.09375 -1.15644,2.31288 -1.53306,9.09916 -2.53125,12.09375 -1.14593,3.43777 -7.0625,15.66852 -7.0625,18.1875 0,2.50577 -2.31226,10.906 -3.53125,12.125 -0.60714,0.60713 0.0408,3.13331 -0.59375,3.84375 0.75156,-0.14516 2.01304,-0.3125 2.625,-0.3125 2.96414,0 2.16706,-1.16706 3.53125,-2.53125 0.71103,-0.71102 0.77768,-6.61785 1.5,-8.0625 2.904,-5.80799 3.67387,-12.41025 6.5625,-18.1875 0.3724,-0.7448 -0.0169,-2.9831 0.53125,-3.53125 1.30512,-1.30512 3.77908,-17.21441 5.53125,-20.71875 0.85348,-1.70696 -0.2827,-6.24855 1.03125,-7.5625 0.81848,-0.81848 4.97812,-14.83219 6.75,-21.875 6.14052,14.45035 10.86799,30.61478 5.875,45.59375 -1.37198,4.11593 0.34072,9.04032 -1.03125,13.15625 -1.05318,3.15953 -5.09353,25.18772 -5.03125,25.25 0.88517,0.88517 3.34278,1 5.03125,1 9.84009,0 21.29543,1.30777 31.3125,-2.03125 11.20276,-3.73426 23.56063,4.40718 34.375,-1 5.8785,-2.93925 16.1521,3.03541 20.1875,-1 1.3723,-1.37229 6.87603,0.88334 7,0.96875 -0.71953,-0.57485 1.09375,-9.76616 1.09375,-10.0625 0,-8.62117 3.63009,-28.91134 7.0625,-32.34375 0.66087,-0.66087 -4.03214,-20.15802 -5.0625,-22.21875 -10.3817,-20.76339 -12.35316,-35.79071 -18.1875,-51.5 -2.09127,-5.63086 -4.84742,-31.15992 -9.0625,-35.375 -0.4146,-0.4146 -0.967,-0.59054 -1.59375,-0.59375 z m -100.03125,152.9375 c -0.50615,0.0978 -0.81838,0.1875 -0.40625,0.1875 0.18898,0 0.30087,-0.0695 0.40625,-0.1875 z"
       id="path6721"
       inkscape:connector-curvature="0" />
    <path
       style="fill:#333333;fill-opacity:1;stroke:#000000;stroke-width:1px;stroke-linecap:butt;stroke-linejoin:miter;stroke-opacity:1"
       d="m 318.14012,782.66471 c 1.13569,-2.51253 -0.89893,-1.12138 1.51523,-3.53554 0.84179,-0.84179 4.20897,0.8418 5.05076,0 2.63537,-2.63537 18.38429,-1.61599 22.22336,-3.53553 1.48155,-0.74078 4.07428,0.74078 5.55583,0 1.81244,-0.90622 6.53502,-1.51523 8.08122,-1.51523 1.04634,0 5.90012,-0.66587 6.566,0 0.75761,0.75762 1.26269,1.76777 2.0203,2.52538 2.26695,2.26695 -5.17897,6.88264 -6.56599,7.57615 -4.20762,2.10381 -36.6972,8.25459 -39.90103,5.05076 -1.62285,-1.62286 -2.25651,-3.70452 -4.54568,-6.56599 z"
       id="path6908"
       inkscape:connector-curvature="0" />
    <path
       style="fill:#ffffff;stroke:#000000;stroke-width:0.98846549px;stroke-linecap:butt;stroke-linejoin:miter;stroke-opacity:1"
       d="m 331.77718,842.76879 c 6.59914,5.44222 -5.39123,-4.68233 2.46746,2.02031 3.94149,3.36168 14.0677,-1.76451 10.36333,-5.55584 -1.57962,-1.6167 -4.80967,0.50507 -6.90889,0.50507 -2.93932,0 -3.56374,1.09964 -5.9219,3.03046 z"
       id="path6891"
       inkscape:connector-curvature="0" />
    <path
       style="fill:#1a1a1a;fill-opacity:1;stroke:#000000;stroke-width:1px;stroke-linecap:butt;stroke-linejoin:miter;stroke-opacity:1"
       d="m 319.65535,782.15963 c 7.93527,-1.20397 16.57727,-2.52538 24.74873,-2.52538 4.29153,0 9.63487,0.32391 13.63706,-1.01015 1.52475,-0.50825 3.37953,-1.51523 5.05077,-1.51523 3.80732,0 7.57614,-1.35297 7.57614,-1.01015 0,2.23021 -6.8579,18.55339 -8.08122,22.22335 -1.51691,4.55072 -2.46342,18.12079 -5.05076,20.70813 -0.32038,0.32038 0.21026,1.59978 0,2.02031 -1.47648,2.95295 -1.85646,6.90721 -3.53554,8.58629 -0.23809,0.2381 0.33672,1.01015 0,1.01015 -0.6833,0 3.38411,0.0757 5.55584,-1.01015 3.44256,-1.72128 8.07929,-1.51426 11.11168,-3.03046 8.43344,-4.21671 16.29166,-5.62044 27.7792,-7.57614 1.3928,-0.23712 6.56599,-1.57392 6.56599,0 0,1.41007 0.38178,5.67913 -0.50508,6.56599 -1.31132,1.31132 -19.85262,2.60271 -22.72843,4.04061 -1.59824,0.79912 -6.36147,-1.21467 -7.57615,0 -1.77522,1.77523 -10.10346,1.51717 -11.61675,3.03046 -5.29441,5.29441 -26.43835,4.63288 -34.34519,8.5863 -1.84316,0.92158 -4.72282,0.0886 -6.56599,1.01015 -1.17215,0.58607 -16.42428,3.77877 -16.66751,3.53553 -1.85989,-1.85988 3.03045,-9.60519 3.03045,-11.61675 0,-5.35423 2.17176,-14.29358 5.05077,-17.1726 2.02972,-2.02972 0.54363,-13.2091 2.0203,-16.16244 1.4595,-2.919 4.54569,-15.64724 4.54569,-18.68782 z"
       id="path6874"
       inkscape:connector-curvature="0"
       sodipodi:nodetypes="cssssssscssssssssssccsssc" />
    <path
       style="fill:#ffffff;stroke:#000000;stroke-width:1px;stroke-linecap:butt;stroke-linejoin:miter;stroke-opacity:1"
       d="m 327.73655,841.25356 c 0,0.67344 0.67344,2.02031 0,2.02031 -0.67343,0 0,-2.69375 0,-2.02031 0,14.55865 15.58081,-6.23232 0,0 z"
       id="path6889"
       inkscape:connector-curvature="0" />
    <path
       style="fill:#333333;fill-opacity:1;stroke:#000000;stroke-width:1px;stroke-linecap:butt;stroke-linejoin:miter;stroke-opacity:1"
       d="m 314.09951,801.35253 c -1.59287,3.90765 -5.68493,23.62077 -9.09137,33.84011 -0.69545,2.08635 -0.0374,5.12548 -1.01016,7.07107 -0.50685,1.0137 -2.20093,6.89044 -2.0203,7.07107 0.56961,0.56961 1.13562,-0.50508 1.51523,-0.50508 2.94714,0 8.62817,-2.54632 11.61675,-4.04061 9.87394,-4.93697 22.58888,-2.20307 32.32488,-7.07107 2.14227,-1.07113 4.69394,-0.14825 6.06092,-1.51523 0.4906,-0.49059 6.34052,-0.78468 7.57614,-2.0203 0.8418,-0.8418 3.19882,-0.16836 4.04061,-1.01015 0.78445,-0.78445 11.36991,-1.77347 13.13199,-3.53554 0.31556,-0.31556 1.15832,-6.41782 0.50507,-7.07107 -0.5684,-0.5684 -8.76437,2.36188 -10.10152,3.03046 -7.57391,3.78695 -26.58953,4.87125 -30.80966,9.09137 -0.90452,0.90453 -8.70106,1.57262 -10.6066,2.52539 -3.72145,1.86072 -9.80756,1.1157 -13.63706,3.03045 -0.58592,0.29296 -5.05076,1.9942 -5.05076,1.51523 0,-0.23466 0.8907,-1.27632 1.01015,-1.51523 1.19114,-2.38228 0.81685,-5.6743 2.02031,-8.08122 2.65496,-5.30993 8.50694,-29.21507 10.10152,-30.80965 1.26269,-1.26269 -0.25254,-5.3033 1.01016,-6.56599 0.84313,-0.84314 1.51522,-2.97064 1.51522,-4.54569 0,-2.097 1.57209,-7.51929 0,-9.09137 -0.30649,-0.3065 -6.08862,-0.98245 -6.56599,-0.50508 -0.40888,0.40889 0,3.39822 0,4.04061 0,6.77723 -3.53553,9.51136 -3.53553,16.66752 z"
       id="path6846"
       inkscape:connector-curvature="0" />
    <path
       style="fill:#784421;fill-opacity:1;stroke:#000000;stroke-width:1px;stroke-linecap:butt;stroke-linejoin:miter;stroke-opacity:1"
       d="m 350.465,730.13677 c -5.74083,0.95054 -8.15661,-9.16675 -13.63706,-14.64721 -0.84179,-0.84179 -0.67344,-2.69374 -1.51523,-3.53553 -1.14577,-1.14577 -0.83313,-7.9042 -1.51523,-8.5863 -1.45536,-1.45536 -1.4557,-8.64582 0,-10.10152 0.95145,-0.95146 0.27321,-4.58703 1.01015,-6.06092 1.559,-3.11799 0.58556,-8.1617 3.03046,-10.6066 1.42836,-1.42836 2.29347,-10.87977 5.05076,-13.63706 4.03298,-4.03297 7.71467,-6.63525 13.63706,-9.59645 2.04993,-1.02496 9.94446,-1.86323 11.11168,-3.03046 1.94263,-1.94263 6.29958,-2.13963 9.09138,-3.53553 17.86409,-8.93205 45.38342,-0.0734 56.56854,11.11168 1.22675,1.22675 0.77967,4.82028 2.0203,6.06091 1.43826,1.43826 0.98785,5.00615 2.02031,7.07107 4.77309,9.54618 -0.8907,38.07353 -7.57615,41.41626 -5.34801,2.674 -10.76265,4.77892 -17.17259,6.06091 -5.39944,1.07989 -10.54245,4.35595 -15.65736,6.06092 -4.14562,1.38187 -7.92831,2.99222 -12.12183,4.04061 -4.84628,1.21156 -10.43315,0.92342 -14.64722,3.03045 -2.37054,1.18528 -6.59166,-0.50507 -8.58629,-0.50507 -1.20716,0 -11.32006,0.0317 -11.11168,-1.01016 0.16836,-0.84179 1.66692,0.50508 2.52538,0.50508 0.23467,0 1.27632,-0.8907 1.51523,-1.01015"
       id="path6831"
       inkscape:connector-curvature="0" />
    <path
       style="fill:#ffff00;stroke:none"
       d="m 176.7767,426.06761 c 3.34415,1.07848 7.77834,-1.11111 11.11168,0 21.01199,7.004 72.91975,-1.42084 87.88327,6.06092 5.62263,2.81131 19.73493,-0.15604 26.26397,2.0203 5.68999,1.89667 15.84765,-1.67262 21.2132,1.01015 1.32976,0.66488 8.86483,2.13358 9.09137,2.02031 14.4607,-7.23035 36.13722,-10.80207 53.53809,-15.15229 6.18337,-1.54584 12.17403,-1.02755 18.18274,-3.03046 7.77658,-2.59219 17.18104,1.00804 25.25382,-1.01015 8.14063,-2.03516 28.71413,-4.18568 37.37564,-2.0203 7.09211,1.77302 31.39218,3.03045 34.34519,3.03045 8.60256,5.16154 21.0034,6.6709 30.30458,2.02031 1.32525,-0.66263 9.96309,-4.17905 8.08122,-6.06092 -1.17619,-1.17618 -5.58037,-1.5234 -7.07107,-2.0203 -4.20808,-1.4027 -7.61999,-3.92531 -12.12183,-5.05077 -5.21756,-1.30438 -10.98451,-0.72582 -16.16244,-2.0203 -1.14827,-0.28707 -19.72717,-0.47588 -16.16244,-4.04061 3.75774,-3.75774 9.98076,-8.24319 15.15228,-12.12183 2.61622,-1.96216 4.00685,-4.52881 7.07107,-6.06092 3.95949,-1.97974 7.29968,-4.52973 11.11168,-7.07106 20.60636,-13.73758 43.89722,-24.58916 63.63961,-39.39595 1.27078,-0.95309 13.13198,-7.29145 13.13198,-8.08122 0,-2.02031 -4.04061,0 -6.06091,0 -6.28253,0 -12.99259,-0.1244 -19.1929,-1.01016 -26.8058,-3.8294 -53.85247,-2.0203 -80.8122,-2.0203 -1.47824,0 -10.93431,1.18752 -12.12183,0 -2.29899,-2.29898 49.49747,-33.38379 49.49747,-43.43656 0,-3.53388 -52.04963,1.92464 -57.57869,3.03046 -2.3587,0.47174 -13.83942,2.72773 -13.13199,2.0203 6.37991,-6.3799 13.01825,-16.04871 20.20305,-23.23351 4.43147,-4.43146 11.03154,-8.03313 16.16244,-11.11167 15.45128,-9.27077 28.55326,-22.78882 44.44672,-32.32489 5.76674,-3.46004 10.42216,-9.25169 16.16244,-12.12183 0.6037,-0.30185 2.0203,0.66498 2.0203,-1.01015 0,-0.14 -4.68077,0.185 -5.05076,0 -3.05226,-1.52613 -7.50154,-2.0203 -11.11168,-2.0203 -21.74639,0 -44.50766,-0.18984 -65.65991,4.04061 -1.43166,0.28633 -14.81692,3.36583 -15.15229,3.03045 -5.22641,-5.2264 -0.64667,-49.82081 -6.06092,-52.52793 -7.94025,-3.97013 -39.97504,23.49715 -46.46701,29.29442 -3.53226,3.15427 -10.92666,7.2561 -11.11169,7.07108 -11.59001,-17.64232 -27.84368,-41.49614 -37.37564,-58.58886 -1.14363,11.24515 2.09917,10.48831 -3.03045,18.18275 -4.13627,6.20439 -5.36339,14.38247 -7.07107,21.2132 -2.12776,8.51101 -8.29101,19.00251 -13.13199,26.26397 -0.91491,1.37237 -7.8259,11.36699 -8.08122,11.11168 -2.94573,-2.94573 -9.4551,-6.78838 -12.12183,-12.12183 -4.42639,-8.85279 -7.178,-18.34315 -13.13198,-27.27413 -0.71777,-1.07664 -3.82949,-12.12183 -5.05076,-12.12183 -0.1787,0 -4.41259,13.55686 -5.05077,15.15229 -2.60298,6.50747 -2.84362,13.76848 -6.06091,20.20306 -5.09233,10.18466 -8.97068,20.28571 -12.12183,31.31473 -0.85011,2.97539 -3.67405,23.8771 -5.05076,25.25381 -1.2509,1.25089 -8.27142,-6.86115 -10.10153,-8.08122 -12.75504,-8.50336 -23.88625,-19.84564 -34.34519,-30.30458 -1.28218,-1.28218 -0.20702,-5.05076 -2.0203,-5.05076 -1.38179,0 6.26802,30.31726 7.07107,32.32488 6.56293,16.40733 8.33415,33.71524 13.13198,50.50763 0.47844,1.67452 6.85899,18.39482 6.06092,19.1929 -0.57373,0.57372 -8.24249,-4.82156 -10.10153,-6.06092 -8.56399,-5.70932 -43.65367,-21.2132 -52.52793,-21.2132 -1.07595,0 3.37035,5.39066 4.04061,6.06091 3.79503,3.79504 9.83269,12.05665 11.11167,17.1726 4.65576,18.623 14.75916,23.4574 22.22336,38.38579 3.59038,7.18076 7.6615,14.52271 12.12183,21.21321 1.64322,2.46483 5.05827,4.05561 6.06092,6.06091 0.47619,0.95238 -0.0546,3.03046 1.01015,3.03046 0.26074,0 -3.50754,-2.64465 -9.09137,-4.04061 -7.16382,-1.79095 -13.8684,-4.83678 -21.21321,-6.06091 -23.7113,-3.95189 -46.8978,-13.49222 -69.70052,-19.1929 -1.70882,-0.42721 -14.09948,-3.07312 -14.14214,-3.03046 -0.56877,0.56877 9.83174,11.21207 11.11168,13.13198 13.80606,20.7091 27.20086,43.70626 36.36549,66.67007 z"
       id="path6498"
       inkscape:connector-curvature="0"
       sodipodi:nodetypes="cssssssssscsssssssssssssssssssssssssscssccssscsssssssssssscssssssssssscsc" />
    <path
       style="fill:#784421;stroke:#000000;stroke-width:1px;stroke-linecap:butt;stroke-linejoin:miter;stroke-opacity:1"
       d="m 232.33509,389.44958 c -1.48791,1.42902 -2.80342,12.27483 -3.78807,18.18275 -0.72043,4.32255 -1.65784,9.06909 -3.283,13.13198 -1.8408,4.60199 -3.5546,9.65366 -5.05076,14.14213 -0.58728,1.76184 -0.66516,3.60318 -1.51523,5.30331 -0.18982,0.37964 -1.07356,3.78807 -0.25254,3.78807 0.39728,0 1.71422,0.4783 2.27285,0.75761 1.76413,0.88207 4.41175,-0.38647 5.80837,1.01015 0.0512,0.0512 0.91119,0.35151 1.01016,0.25254 1.73395,-1.73395 1.81257,-7.50282 2.52538,-10.35406 1.04342,-4.17368 2.06998,-8.37929 2.77792,-12.62691 0.64681,-3.88086 0.48163,-7.964 1.26269,-11.86929 0.69849,-3.49248 2.33139,-6.8587 3.03046,-10.35406 0.18439,-0.92198 3.42853,-10.96614 3.28299,-11.11168 -0.0942,-0.0942 -6.12333,0.92219 -8.08122,-0.25254 z"
       id="path6464"
       inkscape:connector-curvature="0" />
    <path
       style="fill:#784421;stroke:#000000;stroke-width:1px;stroke-linecap:butt;stroke-linejoin:miter;stroke-opacity:1"
       d="m 261.37698,390.45973 c 0.11022,8.71251 0.75761,17.63635 0.75761,26.51651 0,4.9998 0.25254,9.90327 0.25254,14.89975 0,3.39581 -0.50508,6.58239 -0.50508,9.84898 0,0.40041 -0.49362,6.06092 -0.25253,6.06092 0.69088,0 1.62341,-0.79368 2.27284,-1.01015 1.06276,-0.35426 2.3859,-0.25254 3.53553,-0.25254 1.44186,0 5.43544,0.87801 5.80838,0.50508 0.28146,-0.28146 -0.16503,-1.34023 -0.25254,-1.51523 -1.11314,-2.22629 -0.45131,-5.39454 -1.26269,-7.82869 -0.98441,-2.95322 -0.7447,-6.26179 -1.51523,-9.34391 -0.15465,-0.6186 0.20129,-1.41643 0,-2.0203 -0.54925,-1.64775 -0.093,-3.40235 -0.50507,-5.05076 -1.62036,-6.48144 -0.91788,-13.5205 -2.52538,-19.95052 -0.3625,-1.44997 -0.97173,-10.82071 -1.51523,-11.36421 -0.60215,-0.60215 -3.82838,0.31916 -4.29315,0.50507 z"
       id="path6466"
       inkscape:connector-curvature="0" />
    <path
       style="fill:#784421;stroke:#000000;stroke-width:1px;stroke-linecap:butt;stroke-linejoin:miter;stroke-opacity:1"
       d="m 290.16633,389.19704 c 2.23983,4.42188 2.77287,9.66885 4.79822,14.39468 0.80668,1.88226 1.80153,3.62557 2.52538,5.55583 0.86187,2.29831 2.38365,5.96814 2.77792,8.33376 0.44959,2.69756 0.48609,5.50836 1.51523,8.08122 1.08682,2.71705 2.07546,6.02902 2.77792,8.83884 0.10511,0.42045 3.50728,8.83883 2.52538,8.83883 -0.10331,0 0.86205,-0.43102 1.01015,-0.50507 1.48645,-0.74323 3.32298,0.86389 4.54569,0.25253 0.74262,-0.3713 1.36176,-0.60414 1.76777,-1.01015 0.11904,-0.11905 0.67343,0 0.50507,0 -0.61461,0 -3.58041,-6.19555 -4.04061,-7.57614 -0.9142,-2.7426 -2.01855,-6.05742 -3.28299,-8.5863 -0.78265,-1.56529 -0.71392,-5.46845 -1.26269,-6.56599 -1.45733,-2.91466 -2.18256,-6.54767 -3.283,-9.84899 -1.18345,-3.55034 -3.36021,-6.5451 -4.54569,-10.10152 -0.81809,-2.45429 -1.71381,-7.01712 -3.28299,-8.5863 -0.31748,-0.31748 0.0437,-1.72402 -0.25254,-2.0203 -0.33847,-0.33848 -1.50644,0.37441 -1.76777,0.50507 -0.79474,0.39737 -2.36905,-0.13228 -3.03045,0 z"
       id="path6468"
       inkscape:connector-curvature="0" />
    <path
       style="fill:#c87137;stroke:#000000;stroke-width:1px;stroke-linecap:butt;stroke-linejoin:miter;stroke-opacity:1"
       d="m 249.00261,381.11582 c -7.02306,0.50275 -18.07225,-0.18152 -23.99113,2.77792 -0.31838,0.15919 -0.92396,0.0832 -1.26269,0.25254 -0.72825,0.36412 -3.32535,3.24063 -2.27284,4.29314 0.31801,0.31801 0.81006,1.41519 1.51523,1.76777 1.19829,0.59915 2.51257,0.83753 3.78807,1.26269 2.21385,0.73795 4.33887,2.03555 6.56599,2.77792 4.42907,1.47636 21.00799,0.79182 25.75889,0 5.43691,-0.90615 13.04766,0.77448 18.18275,-0.25254 1.88766,-0.37753 3.96607,-0.0445 5.80837,-0.50507 6.0089,-1.50223 12.71692,-1.93905 17.93021,-4.54569 1.7042,-0.8521 2.84578,-4.22529 1.51523,-5.55584 -0.52787,-0.52787 -1.69668,-1.10088 -2.52538,-1.51523 -3.02036,-1.51018 -15.94448,-1.84042 -19.1929,-0.75761 -3.00386,1.00128 -7.00427,-0.52178 -10.10152,0.25254 -1.85233,0.46308 -4.57874,-0.91496 -6.566,-0.25254 -2.87513,0.95838 -12.07185,0.61608 -15.15228,0 z"
       id="path6462"
       inkscape:connector-curvature="0" />
    <path
       style="fill:#333333;fill-opacity:1;stroke:#000000;stroke-width:1px;stroke-linecap:butt;stroke-linejoin:miter;stroke-opacity:1"
       d="m 289.00367,381.9699 c 2.12124,0.36074 19.95679,0.0432 20.35714,-0.35715 0.31636,-0.31635 0.0945,-1.23966 0,-1.42857 -0.63843,-1.27686 1.29526,-4.06188 0.35714,-5 -0.0874,-0.0874 -2.71321,0.35715 -3.21428,0.35715 -3.68001,0 -7.08653,0.35714 -10.35714,0.35714 -4.14203,0 -21.98537,0.15749 -23.57143,-1.42857 -0.32558,-0.32558 -2.70274,0 -3.21429,0 -2.37212,0 -6.84093,0.0276 -8.92857,1.07143 -0.59649,0.29824 -8.0208,0 -9.28571,0 -4.10578,0 -14.87226,-1.55632 -17.5,1.07142 -1.2412,1.2412 -6.65121,0.0881 -7.50001,1.78572 -0.15057,0.30113 -1.42857,2.65596 -1.42857,2.5 0,-0.35714 0.71428,0 1.07143,0 1.38434,0 2.71576,-0.35714 3.92857,-0.35714 6.00696,0 11.59859,0.71428 17.5,0.71428 8.73488,0 17.34167,-0.35714 26.42858,-0.35714 0.73987,0 4.17201,-0.47084 4.64285,0 1.3841,1.38409 8.82093,1.82877 10.71429,1.07143 z"
       id="path6404"
       inkscape:connector-curvature="0" />
    <path
       style="fill:#333333;fill-opacity:1;stroke:#000000;stroke-width:1px;stroke-linecap:butt;stroke-linejoin:miter;stroke-opacity:1"
       d="m 205.78938,317.68418 c 1.50279,-0.348 13.89036,-1.10964 13.92857,-1.07143 0.9956,0.99561 1.2868,7.21647 2.14286,8.92858 1.53891,3.07783 1.96511,6.43022 3.57142,9.64285 1.11497,2.22994 0.60554,4.7825 1.78572,7.14286 0.93982,1.87964 0.47472,4.52087 1.42857,6.42857 0.90555,1.8111 0.22998,7.6028 1.07143,9.28572 0.76889,1.53778 2.85714,7.73897 2.85714,9.28571 0,1.74418 3.05761,12.65668 2.85715,12.85714 -1.7721,1.7721 -11.48504,-0.65782 -12.50001,0.35715 -0.50371,0.50371 -2.47981,-2.81677 -2.85714,-3.57143 -0.50495,-1.00991 -1.28076,-1.4901 -1.78571,-2.5 -1.83375,-3.6675 -3.57143,-11.64197 -3.57143,-15.71429 0,-1.8916 -0.93743,-5.58028 -1.78572,-6.42857 -0.63579,-0.6358 -0.61331,-6.3276 -1.07142,-6.78571 -0.74521,-0.74521 -2.34757,-7.39986 -2.85715,-8.92858 -0.68616,-2.0585 -0.46621,-4.861 -1.42857,-6.78571 -1.44884,-2.89768 -3.04882,-8.98509 -1.78571,-12.14286 z"
       id="path6400"
       inkscape:connector-curvature="0" />
    <path
       style="fill:#ffffff;stroke:#000000;stroke-width:0.99619728px;stroke-linecap:butt;stroke-linejoin:miter;stroke-opacity:1"
       d="m 438.77805,158.5284 c -1.64439,0.61679 -6.0362,0.54585 -7.02321,-0.9569 -0.25368,-0.38624 0.50631,-1.16865 0.55964,-1.4197 0.22648,-1.06632 0.17227,-5.61145 1.05507,-6.1825 0.20729,-0.1341 0.69028,-0.44653 0.89758,-0.58063 1.78005,-1.15146 4.81375,3.23229 3.5237,4.06678"
       id="path6321"
       inkscape:connector-curvature="0" />
    <path
       style="fill:#781414;fill-opacity:1;stroke:#000000;stroke-width:1px;stroke-linecap:butt;stroke-linejoin:miter;stroke-opacity:1"
       d="m 455.41438,158.23718 c -1.12201,0.054 -3.48835,1.1836 -4.09375,0.65625 -0.10917,-0.0951 -1.42471,-1.0713 -2.03125,-0.375 -0.11617,0.13337 0.59387,1.54814 0.625,2 l 0.46875,6.53125 c 0.3098,4.4965 -1.97436,8.11772 -1.6875,12.28125 0.68619,9.95968 -1.72518,29.37946 -5.03125,37.3125 -1.41681,3.39971 0.29206,8.36987 -1.78125,10.75 -0.4504,0.51705 0.46175,2.37318 0.1875,3.03125 -2.14276,5.14162 -0.79809,10.74139 -2.9375,15.875 -0.86484,2.07521 0.34969,5.0111 -0.53125,7.125 -0.52134,1.25097 0.83384,3.28027 0.3125,4.53125 -2.58508,6.20301 -1.02678,14.62022 -0.53125,21.8125 0.14609,2.12037 -0.29644,6.36116 -0.71875,10.0625 -3.11138,-4.88905 -3.3125,-9.65116 -3.3125,-15.78125 0,-0.47812 -1.00128,-6.5625 -1.5,-6.5625 -0.0712,0 -7.18453,10.21578 -9.59375,12.625 -10.80229,10.80229 -24.07155,30.21648 -41.9375,25.75 -2.6269,-0.65673 -5.59197,0.32351 -8.0625,-0.5 -5.16524,-1.72175 -10.84503,1.5419 -15.15625,-3.03125 -0.15711,1.9242 -0.0688,3.72722 0.1875,5.46875 -0.42046,0.12945 -0.75063,0.34121 -0.6875,0.59375 0.0421,0.16836 0.13657,0.22138 0.28125,0.21875 -0.27784,0.0735 -0.53272,0.15698 -0.78125,0.28125 -2.45095,1.22548 -6.38474,4.35348 -8.59375,6.5625 -6.34867,6.34866 -15.08987,7.77834 -22.21875,13.125 -4.52732,3.39549 -10.62157,4.69274 -15.15625,8.09375 -5.64358,4.23269 -13.65065,8.40438 -20.21875,10.59375 -3.58882,1.19627 -6.64582,4.41319 -10.09375,5.5625 -1.56863,0.52288 -5.44295,1.41171 -6.5625,2.53125 -1.73305,1.73306 -3.28032,2.64016 -6.0625,4.03125 -1.83401,0.91701 -9.55028,5.60597 -7.0625,8.09375 0.2662,0.2662 0.12353,1 0.5,1 0.7045,0 1.23787,-2.26911 1.5,-2.53125 2.95909,-2.95908 11.75033,-7.37517 17.1875,-10.09375 2.47974,-1.23987 10.28472,-2.19097 12.125,-4.03125 3.43492,-3.43493 12.69659,-6.13409 14.65625,-8.09375 3.81396,-3.81396 20.90915,-12.23582 26.75,-15.15625 4.67776,-2.33888 18.44185,-6.31685 20.71875,-8.59375 1.62201,-1.62201 4.31373,-2.55442 6.15625,-3.5625 1.19042,3.2101 2.52097,6.49014 3.4375,10.15625 0.6406,2.56241 0.86095,5.22189 2.03125,7.5625 4.43105,8.8621 3.84046,19.83715 8.0625,28.28125 0.46461,0.92921 2.32789,5.26586 2.03125,5.5625 -4.71788,4.71788 -6.62969,19.33387 -9.59375,26.25 -3.41392,7.96583 -4.96629,16.43134 -8.09375,24.25 -1.55038,3.87596 -1.80302,8.16853 -3.53125,11.625 -0.14822,0.29643 -0.42324,2.27063 -0.65625,3.46875 30.39133,5.39647 46.85635,-0.0387 69.64732,-0.55357 5.61659,-2.51818 40.51835,-0.47475 37.07143,-22.60268 1.45271,-2.90542 2.53125,-7.2344 2.53125,-10.625 0,-5.32699 2.94028,-10.88334 4.53125,-15.65625 0.69701,-2.09102 2.14328,-9.40095 1.03125,-11.625 -0.41649,-0.83299 -1.03125,-2.62331 -1.03125,-3.53125 0,-1.86211 -1.59044,-4.24338 -2.5,-6.0625 -0.49158,-0.98316 -1.28325,-7.8145 -1.53125,-8.0625 -1.21739,-1.2174 -7.43543,-19.27506 -8.59375,-22.75 -2.4427,-7.32811 -5.67563,-14.55815 -8.0625,-21.71875 -0.53283,-1.5985 -2.00339,-2.94769 -2.53125,-4.53125 -1.28787,-3.86362 -2.78368,-7.91742 -4.71875,-11.65625 1.16459,-10.54968 1.93203,-31.16773 3.1875,-44.15625 0.72599,-7.51073 1.68342,-15.07378 3,-22.46875 0.2004,-1.12562 -0.4504,-2.40562 -0.25,-3.53125 1.05433,-5.922 1.2797,-12.07386 2.3125,-17.875 1.24703,-7.00431 1.35628,-14.12651 3.125,-20.96875 0.19987,-0.77319 -0.38737,-1.75807 -0.1875,-2.53125 2.13019,-8.24063 1.61508,-16.74629 4.46875,-23.59375 0.28454,-0.68278 0.01,-0.8683 -0.5,-0.84375 z m -101,275.34375 -0.34375,0.0625 c 0,1.36547 0.15677,0.89891 0.34375,-0.0625 z"
       id="path5715"
       inkscape:connector-curvature="0"
       sodipodi:nodetypes="sccccsssssssscssssscccccssssssssscssssscssssssccccssssssssscssssssssccc" />
    <path
       style="fill:#784421;stroke:#000000;stroke-width:1px;stroke-linecap:butt;stroke-linejoin:miter;stroke-opacity:1"
       d="m 398.32063,204.14343 c -4.12645,-0.13684 -8.28898,0.39449 -10.9375,1.71875 -1.0775,0.53874 -2.95376,-0.53875 -4.03125,0 -4.88372,2.44185 -25.85599,1.60598 -28.28125,4.03125 -5.26068,5.26067 -19.33975,9.867 -23.25,17.6875 -0.86115,1.72231 -1.93324,4.46449 -3.03125,5.5625 -2.15569,2.15569 0.9327,34.2452 2.53125,35.84375 2.48388,2.48388 4.98252,5.96735 9.0625,7.84375 -0.31238,-0.60847 -0.66028,-1.16431 -0.96875,-1.78125 -1.68308,-3.36617 -2.90489,-7.27851 -4.5625,-10.59375 -0.23602,-0.47202 -0.7776,-4.60245 -1.25,-8.625 -0.4724,-4.02255 -0.85531,-7.95719 -0.75,-8.0625 0.33672,-0.33671 0.41582,-0.91074 0.5,-1.5 0.0842,-0.58926 0.16328,-1.19454 0.5,-1.53125 0.34708,-0.34708 0.98667,-0.48692 1.53125,-0.65625 0.27229,-0.0847 0.50498,-0.17866 0.6875,-0.3125 0.18252,-0.13384 0.3125,-0.28583 0.3125,-0.53125 0,-0.85847 -0.33164,-1.68946 -0.5,-2.53125 -0.0217,-0.48557 0.007,-1.52998 0.46875,-2.875 0.23083,-0.67251 0.5673,-1.42399 1.0625,-2.21875 0.4952,-0.79476 1.14475,-1.61349 2,-2.46875 0.47178,-0.47178 0.52822,-2.05947 1,-2.53125 1.24183,-1.24182 2.78119,-2.9738 4.4375,-4.59375 0.82815,-0.80997 1.69474,-1.58925 2.5625,-2.28125 0.86776,-0.692 1.72905,-1.2864 2.59375,-1.71875 1.86478,-0.93239 3.90238,-1.64026 6.03125,-2.21875 2.12887,-0.57849 4.34862,-1.01936 6.59375,-1.4375 2.24513,-0.41814 4.53644,-0.82993 6.75,-1.28125 2.21356,-0.45132 4.37209,-0.94694 6.40625,-1.625 1.1085,-0.3695 2.29571,-0.54493 3.53125,-0.59375 1.23554,-0.0488 2.50386,0.0355 3.78125,0.0937 1.27739,0.0582 2.54719,0.11083 3.78125,0.0625 1.23406,-0.0483 2.42571,-0.19399 3.53125,-0.5625 0.87471,-0.29157 1.88539,-0.53919 2.96875,-0.6875 1.08336,-0.14831 2.2477,-0.20308 3.46875,-0.21875 2.4421,-0.0313 5.08914,0.18953 7.65625,0.625 2.56711,0.43547 5.06305,1.08896 7.1875,1.90625 1.06222,0.40864 2.02988,0.85559 2.875,1.34375 0.84512,0.48816 1.56794,1.00544 2.125,1.5625 1.29909,1.29909 2.53846,2.71732 3.71875,4.21875 1.18029,1.50143 2.29381,3.08359 3.375,4.75 2.16239,3.33282 4.147,6.95025 6.03125,10.71875 0.85042,1.70085 1.50104,3.76218 2.25,5.6875 0.37448,0.96266 0.7652,1.87722 1.21875,2.71875 0.45355,0.84153 0.99151,1.61651 1.59375,2.21875 0.37898,0.37898 0.58247,0.90358 0.71875,1.53125 0.13628,0.62767 0.18555,1.3644 0.21875,2.09375 0.0332,0.72935 0.0553,1.47223 0.125,2.15625 0.0697,0.68402 0.19166,1.28956 0.4375,1.78125 0.25553,0.51105 0.36884,1.19096 0.375,2 0.006,0.80904 -0.0921,1.76145 -0.28125,2.78125 -0.37832,2.03959 -1.10213,4.39075 -1.9375,6.75 -0.48558,1.37137 -0.85048,1.95704 -1.375,3.25 2.36914,-0.181 6.55371,-2.85254 6.25,-3.15625 -0.64109,-0.64109 0.35891,-1.89016 1,-2.53125 0.40034,-0.40034 1.72596,-6.98318 2.53125,-8.59375 0.31766,-0.63532 0.4347,-7.1278 0,-7.5625 -3.04539,-3.04539 -5.46689,-18.59189 -6.0625,-19.1875 -4.02293,-4.02293 -5.9938,-11.05629 -10.09375,-15.15625 -4.12111,-4.1211 -11.72849,-5.166 -15.65625,-9.09375 -0.32037,-0.32037 -1.61073,0.21026 -2.03125,0 -2.56396,-1.28198 -6.6548,-2.08191 -10.78125,-2.21875 z"
       id="path5666"
       inkscape:connector-curvature="0" />
    <path
       style="fill:#ffffff;stroke:#000000;stroke-width:1px;stroke-linecap:butt;stroke-linejoin:miter;stroke-opacity:1"
       d="m 335.87573,240.70462 c -0.0433,-0.97113 0.11451,-4.15512 3.53553,-7.57615 0.47178,-0.47178 0.53837,-2.0536 1.01015,-2.52538 2.48365,-2.48364 6.13765,-6.8569 9.59645,-8.5863 7.45914,-3.72956 17.62225,-3.85377 25.75889,-6.56599 4.43401,-1.478 10.22506,0.4639 14.64722,-1.01015 6.99767,-2.33256 21.80751,0.0892 26.26396,4.54569 5.19635,5.19635 9.36348,12.16096 13.13199,19.69797 1.70085,3.4017 2.64179,8.19764 5.05076,10.6066 1.51592,1.51593 0.53185,5.60939 1.51523,7.57615 2.04421,4.08843 -4.75579,19.10802 -6.56599,22.72843 -2.82953,5.65905 -8.29587,22.83576 -13.13199,25.25381 -3.26968,1.63484 -6.98056,3.23774 -10.6066,5.05077 -3.01301,1.5065 -17.94625,2.52538 -22.22336,2.52538 -0.78305,0 -2.49892,1.03661 -3.03045,0.50507 -0.99729,-0.99728 -9.20486,-1.31943 -11.61676,-2.52538 -1.80686,-0.90343 -5.07257,-0.52689 -6.56599,-2.0203 -9.75564,-9.75564 -16.88639,-20.64079 -23.23351,-33.33504 -1.68308,-3.36617 -2.88807,-7.29136 -4.54568,-10.6066 -0.47203,-0.94404 -2.23093,-16.45689 -2.02031,-16.66752 0.67344,-0.67343 0.33672,-2.35702 1.01015,-3.03045 0.69416,-0.69416 2.52538,-0.53354 2.52538,-1.51523 0,-0.85847 -0.33671,-1.68359 -0.50507,-2.52538 z"
       id="path5539"
       inkscape:connector-curvature="0" />
    <path
       style="fill:#ffffff;stroke:#000000;stroke-width:1px;stroke-linecap:butt;stroke-linejoin:miter;stroke-opacity:1"
       d="m 333.52892,225.60834 c -0.67344,0 -3.09174,1.07143 -3.09174,1.07143 -8.18993,2.02827 -12.24948,18.12649 -0.62237,23.11622 1.57811,0.52604 2.95115,0.61152 4.54569,1.01015 2.70099,0.67525 6.02065,0.85522 8.5863,0 1.68672,-0.56224 3.29172,-2.28157 4.54568,-3.53553 8.21591,-8.21591 -1.35594,-18.97144 -9.59645,-21.71828 z"
       id="path5558"
       inkscape:connector-curvature="0"
       sodipodi:nodetypes="cccssscc" />
    <path
       style="fill:#ffffff;stroke:#000000;stroke-width:1px;stroke-linecap:butt;stroke-linejoin:miter;stroke-opacity:1"
       d="m 409.53547,204.72691 c -1.42879,-0.65491 -4.4682,0.14586 -5.35189,0.53571 -12.13984,5.35564 -8.08202,23.35958 5.55584,26.76904 2.83755,0.70939 5.15289,1.74224 8.08122,1.01016 10.15612,-2.53903 6.84111,-17.40256 1.51523,-22.72844 -0.61556,-0.61556 -0.60941,-1.56739 -1.51523,-2.0203 -3.54789,-1.77395 -3.89159,-2.68745 -8.28517,-3.56617 z"
       id="path5560"
       inkscape:connector-curvature="0"
       sodipodi:nodetypes="csssssc" />
    <path
       style="fill:#000000;stroke:#000000;stroke-width:1px;stroke-linecap:butt;stroke-linejoin:miter;stroke-opacity:1"
       d="m 414.66763,215.45081 c -0.67344,0 -2.02031,0.67343 -2.02031,0 0,-0.67344 2.32148,-0.60234 2.02031,0 -0.40547,0.81092 -1.74795,0.54369 -2.52538,1.01015 -1.70503,1.02302 6.18316,5.08615 2.52538,-1.01015 z"
       id="path5595"
       inkscape:connector-curvature="0" />
    <path
       style="fill:#000000;stroke:#000000;stroke-width:1px;stroke-linecap:butt;stroke-linejoin:miter;stroke-opacity:1"
       d="m 331.83512,234.13862 c -5.93931,1.45437 4.14482,6.90804 0,0 z"
       id="path5597"
       inkscape:connector-curvature="0" />
    <path
       style="fill:#000000;stroke:#000000;stroke-width:1.05987513px;stroke-linecap:butt;stroke-linejoin:miter;stroke-opacity:1"
       d="m 395.356,234.27358 c -4.12068,0.21384 -7.45415,0.54607 -7.8321,0.90987 -1.84302,1.77402 -15.83764,4.99024 -19.64778,6.82399 -7.37113,3.54758 -15.31078,9.97371 -16.37315,11.53579 0.0877,0.0676 0.3268,0.26712 0.43887,0.35744 -2.21853,2.99286 3.53615,8.18056 7.76459,12.25069 0.81016,0.77982 0.81028,2.89213 1.62043,3.67196 5.62141,5.41094 2.97376,16.42311 3.94981,22.68164 -0.45897,1.74493 -0.79668,3.28865 -0.87773,4.45184 4.73621,2.06734 13.8398,5.45988 19.31018,2.82708 1.17356,-0.56481 1.93686,0.21535 2.73449,-0.55242 1.21282,-1.16741 5.20374,-0.26463 6.54926,-1.55977 1.04223,-1.0032 8.21935,-2.12749 9.82388,-3.67195 1.19246,-1.14782 5.73078,-0.46152 8.00091,-0.38995 0.98288,-4.56346 1.89954,-9.22634 0.70894,-13.81045 -1.47213,-5.66804 -1.68995,-11.48224 -2.70073,-17.31994 -1.70357,-9.83877 -8.55058,-19.03058 -13.46987,-28.20582 z"
       id="path5599"
       inkscape:connector-curvature="0" />
    <path
       style="fill:#ffffff;stroke:#000000;stroke-width:1px;stroke-linecap:butt;stroke-linejoin:miter;stroke-opacity:1"
       d="m 368.70569,289.19194 c 0.77168,1.62807 7.24808,3.03046 13.63706,3.03046 6.46027,0 17.83305,-2.68076 21.2132,-6.06092 1.13892,-1.13892 2.68837,-5.13226 4.54569,-6.06092 0.71798,-0.35899 -0.11322,3.3091 0.50508,4.54569 0.45995,0.91991 2.2867,6.29959 1.51522,7.07107 -0.76314,0.76314 -4.48638,-3.59484 -6.06091,-2.02031 -5.84887,5.84887 -30.73046,12.78531 -35.86042,2.52539 -0.45798,-0.91598 0.50508,-2.00638 0.50508,-3.03046 z"
       id="path5649"
       inkscape:connector-curvature="0" />
    <path
       style="fill:#ffffff;stroke:#000000;stroke-width:1px;stroke-linecap:butt;stroke-linejoin:miter;stroke-opacity:1"
       d="m 354.05848,252.32137 c 0.85235,-2.29958 5.3964,-3.96089 12.6269,-7.57614 3.2636,-1.6318 6.88503,-2.43236 10.10153,-4.04061 2.33157,-1.16579 15.4307,-7.29773 17.67767,-5.05076 1.10232,1.10232 1.25791,2.77313 2.0203,3.53553 0.22192,0.22192 1.51523,1.81903 1.51523,2.02031 0,0.33671 -0.67343,0 -1.01015,0 -2.73062,0 -16.88062,2.73848 -17.67767,3.53553 -1.02021,1.02021 -14.1169,5.54322 -17.17259,7.07107 -3.20221,1.6011 -5.70392,5.91283 -6.06092,5.55584 -1.09542,-1.09543 -1.5584,-2.74123 -2.0203,-5.05077 z"
       id="path5664"
       inkscape:connector-curvature="0" />
    <path
       style="fill:#784421;fill-opacity:1;stroke:#000000;stroke-width:1px;stroke-linecap:butt;stroke-linejoin:miter;stroke-opacity:1"
       d="m 354.53938,299.17468 c 0.43178,0.54363 0.80687,1.11968 1.25,1.65625 2.13957,2.59072 4.40484,5.12359 6.84375,7.5625 0.37336,0.37335 0.86185,0.62367 1.40625,0.8125 0.5444,0.18883 1.16677,0.30352 1.78125,0.40625 1.22896,0.20547 2.47157,0.32954 3.375,0.78125 0.60298,0.30149 1.59453,0.56588 2.71875,0.78125 1.12422,0.21537 2.38598,0.38453 3.625,0.5625 1.23902,0.17797 2.45886,0.37321 3.40625,0.5625 0.94739,0.18929 1.62568,0.37568 1.875,0.625 0.26576,0.26577 0.84421,0.13021 1.4375,-0.0625 0.59329,-0.19271 1.20222,-0.4375 1.59375,-0.4375 2.13855,0 6.94918,-0.24447 11.59375,-0.6875 2.32229,-0.22152 4.60947,-0.50513 6.5,-0.8125 1.89053,-0.30737 3.37175,-0.65463 4.125,-1.03125 3.62604,-1.81303 7.35532,-3.39641 10.625,-5.03125 0.60451,-0.30226 1.22592,-0.85036 1.84375,-1.5625 0.61783,-0.71214 1.22537,-1.60561 1.84375,-2.625 1.23676,-2.03878 2.4626,-4.59809 3.625,-7.25 2.32479,-5.30382 4.39774,-11.01423 5.8125,-13.84375 0.10644,-0.21289 0.42436,-1.02533 0.5625,-1.3125 -0.4629,0.27496 -0.87705,0.62705 -1.0625,0.8125 -1.32842,1.32843 -4.10583,2.07457 -5.0625,3.03125 -1.67416,1.67415 -2.17644,5.23893 -4.03125,7.09375 -1.01236,1.01235 -1.46015,3.46015 -2.53125,4.53125 l -9.59375,9.59375 c -2.24572,2.24572 -7.47866,1.47371 -10.59375,3.03125 -6.48829,3.24415 -24.44148,2.87102 -28.8125,-1.5 -0.37287,-0.37287 -6.18758,-1.15633 -7.0625,-2.03125 -1.10232,-1.10232 -1.76886,-2.26885 -2.53125,-3.03125 -0.67164,-0.67164 -2.72644,-0.69864 -4.5625,-0.625 z"
       id="path5695"
       inkscape:connector-curvature="0" />
    <path
       style="fill:#774421;fill-opacity:1;stroke:#000000;stroke-width:1px;stroke-linecap:butt;stroke-linejoin:miter;stroke-opacity:1"
       d="m 355.06862,244.74523 c 0.67344,-0.50507 1.51523,-2.18866 2.02031,-1.51523 0.50507,0.67344 -2.61555,2.11047 -2.02031,1.51523 3.04239,-3.04239 7.30231,-5.67146 11.11168,-7.57614 1.59302,-0.79651 13.35789,-3.76144 13.63706,-4.04061 0.12419,-0.1242 6.56599,-0.95914 6.56599,-0.50508 0,1.92934 -6.25276,2.21215 -7.07107,3.03046 -0.57223,0.57224 -21.59901,8.56244 -24.24366,9.09137 z"
       id="path5713"
       inkscape:connector-curvature="0" />
    <path
       style="fill:#ffffff;stroke:#000000;stroke-width:1px;stroke-linecap:butt;stroke-linejoin:miter;stroke-opacity:1"
       d="m 442.96795,163.48465 c -2.22435,0.10205 -8.61179,-0.95796 -8.25,-2.125 0.0428,-0.13797 0.15633,-0.26654 0.40625,-0.40625 0.7064,-0.39488 4.61336,-1.22919 7.875,-1.4375 -0.12779,-0.24937 -0.22619,-0.44513 -0.34375,-0.6875 -2.36083,0.0288 -6.38908,0.23592 -6.84375,-0.21875 -0.68871,-0.68871 -0.75,-1.58307 -0.75,-2.78125 0,-0.80552 -0.42504,-1.18117 0,-2.03125 0.34547,-0.69095 -0.0579,-2.22334 0.5,-2.78125 0.25254,-0.25254 0.24746,-0.74746 0.5,-1 0.31563,-0.31563 1.5608,0.25 2.03125,0.25 0.42089,0 1.25,0.4209 1.25,0 0,-0.18823 0.39815,-0.3831 0.53125,-0.25 0.15428,0.15428 1.64364,0.57182 2.5,1 0.0444,0.0222 0.13629,0.0668 0.1875,0.0937 0.0416,-0.042 0.0806,-0.0817 0.125,-0.0937 0.40793,-0.1106 0.82975,-0.12025 1.25,-0.15625 -0.053,-0.16694 0.83914,-1.04282 1.0625,-0.75 0.0638,0.0837 0.0874,0.11997 0.0312,0.1875 0.17351,-0.12268 0.37274,-0.22797 0.5625,-0.3125 0.49832,-0.22198 4.09925,0.0331 4.5,0.75 0.79552,1.42309 4.25953,2.48963 5.15625,4.09375 0.57257,1.02425 0.4772,4.01158 -0.84375,4.75 -0.42358,0.23679 -1.27525,2.15834 -1.71875,2.40625 -0.92223,0.51555 -2.33294,0.69233 -3.21875,1.1875 -0.24882,0.1391 -0.89649,-0.3991 -1.1875,-0.34375 -1.02931,0.19581 -1.89593,0.0723 -2.59375,-0.25 -0.57878,0.15336 -1.34185,0.3784 -2.0625,0.78125 -0.11603,0.0649 -0.33849,0.11042 -0.65625,0.125 z m 1.0625,-12.625 c 0.26343,-0.0501 0.49354,-0.19096 0.71875,-0.34375 -0.24107,0.11771 -0.55142,0.21612 -0.71875,0.34375 z"
       id="path6257"
       inkscape:connector-curvature="0" />
    <path
       style="fill:#ffffff;stroke:#000000;stroke-width:1px;stroke-linecap:butt;stroke-linejoin:miter;stroke-opacity:1"
       d="m 445.66854,158.60655 c 1.07408,0.53703 -1.76388,0.001 -2.52538,-0.25254 -0.77614,-0.25874 -3.50596,0.28211 -4.04061,-0.25254 -0.41834,-0.41834 -0.30956,-1.65373 0,-2.27284 0.47687,-0.95384 -0.61458,-1.40573 0.50507,-2.52538 0.24543,-0.24543 0.0842,1.09433 -0.25253,1.01015 -0.33672,-0.0842 0.16833,-0.67344 0.25253,-1.01015 0.20584,-2.49355 2.6439,-4.56119 4.04062,-1.76777 0.33052,0.66105 -0.50508,2.47303 -0.50508,3.28299"
       id="path6291"
       inkscape:connector-curvature="0" />
    <path
       style="fill:#ffffff;stroke:#000000;stroke-width:1px;stroke-linecap:butt;stroke-linejoin:miter;stroke-opacity:1"
       d="m 448.699,150.02183 c -1.2441,-0.21747 -4.99132,-0.37143 -5.55584,0.75761 -0.93593,1.87185 0.0389,6.60488 1.01015,7.57615 2.31646,2.31645 4.18648,-2.12697 2.77792,-3.53554"
       id="path6306"
       inkscape:connector-curvature="0" />
    <path
       style="fill:#333333;stroke:#000000;stroke-width:1px;stroke-linecap:butt;stroke-linejoin:miter;stroke-opacity:1"
       d="m 220.43224,381.96989 c -0.0622,-0.6594 -0.19613,-1.58959 1.42857,-3.21428 0.50517,-0.50518 11.40303,-0.22958 12.85715,-0.71429 2.31668,-0.77222 7.39249,0.23233 9.28571,-0.71428 2.07357,-1.03679 4.93419,0.37908 7.14286,-0.35715 6.22841,-2.07613 16.69209,0.35715 23.21428,0.35715 1.41792,0 16.07143,0.68151 16.07143,0.71428 0,0.59032 0.35714,3.48123 0.35714,4.64286 0,0.35714 -0.71428,0 -1.07142,0 -1.42858,0 -2.85715,0 -4.28572,0 -3.21428,0 -6.42857,0 -9.64286,0 -7.82971,0 -14.31739,1.07143 -22.14285,1.07143 -1.80481,0 -11.86852,-0.67288 -12.5,-0.35714 -2.01674,1.00836 -10.98673,0.71428 -13.57144,0.71428 -0.14745,0 -1.62774,0.87226 -2.14285,0.35714 -1.17763,-1.17762 -2.8468,-1.20807 -5,-2.5 z"
       id="path6381"
       inkscape:connector-curvature="0" />
    <path
       style="fill:#ffffff;stroke:#000000;stroke-width:1px;stroke-linecap:butt;stroke-linejoin:miter;stroke-opacity:1"
       d="m 263.64652,363.04132 c -0.62696,-1.41996 -8.89516,5.7477 -6.07142,8.57144 0.0412,0.0412 -0.34198,3.22945 1.42857,5 0.17821,0.1782 1.50607,0 1.78571,0 3.2895,0 6.98364,0.35714 9.64286,0.35714 0.16836,0 -0.23809,-0.23809 -0.35714,-0.35714 -0.10546,-0.10546 -0.2375,-1.54643 -0.35714,-1.78572 -0.26333,-0.52665 0.0305,-2.11239 -0.35715,-2.5 -1.21803,-1.21803 -2.26611,-6.55183 -3.57142,-7.85714 z"
       id="path6398"
       inkscape:connector-curvature="0"
       sodipodi:nodetypes="cscssscccc" />
    <path
       style="fill:#333333;stroke:#000000;stroke-width:1px;stroke-linecap:butt;stroke-linejoin:miter;stroke-opacity:1"
       d="m 221.66366,383.48122 c -1.49103,-0.26596 -4.89366,-5.28806 -6.22422,-11.02104 -0.26871,-1.156 -0.40401,-3.99345 -1.13036,-4.87056 -1.23657,-1.49309 -2.15205,-4.86282 -1.96275,-6.87717 0.17342,-1.84537 -2.01697,-7.1108 -2.52795,-9.31244 -1.7755,-7.65022 -3.56833,-15.37484 -5.40977,-23.30904 -0.25575,-1.1026 -0.24268,-5.80512 -1.10548,-6.34287 -0.0668,-0.0416 -0.92552,-0.42482 -0.59012,-0.96294 0.40072,-0.64296 -0.69879,-2.22095 -0.29805,-2.86392 0.3009,-0.48278 1.71584,-0.0316 2.16812,-0.13655 0.4424,-0.10301 2.43616,-0.86222 2.78317,-0.64593 1.04361,0.65044 1.62892,7.01846 1.93779,8.34952 0.59552,2.56598 1.91151,5.0767 2.55287,7.84011 0.28299,1.21944 -0.0299,3.71989 0.70176,4.6034 0.37183,0.44896 1.0935,1.60304 0.9131,2.35453 -0.24918,1.03805 2.88349,16.75304 3.76999,17.82343 1.28524,1.55186 7.78041,22.37011 7.23,23.25322 -0.8114,1.30187 -0.34746,2.04281 -2.80809,2.11827 z"
       id="path6396"
       inkscape:connector-curvature="0" />
    <path
       style="fill:#1a1a1a;stroke:#000000;stroke-width:1px;stroke-linecap:butt;stroke-linejoin:miter;stroke-opacity:1"
       d="m 210.78938,320.18419 c 0.58298,-0.22753 7.47379,-1.09764 7.5,-1.07143 0.88124,0.88124 0.0747,4.36039 1.07143,5.35714 2.52701,2.52702 4.01432,18.02865 6.42857,22.85714 0.6303,1.26061 -0.27316,3.38225 0.35714,4.64286 2.43375,4.8675 1.81448,11.84326 4.28572,16.78571 0.68325,1.3665 -0.3199,3.64592 0.35714,5 0.31736,0.63472 1.07143,2.19985 1.07143,2.5 0,0.8418 -1.6582,-0.35714 -2.5,-0.35714 -1.19325,0 -4.82011,0.1799 -5,0 -0.29762,-0.29762 0.29762,-1.48809 0,-1.78571 -1.47565,-1.47565 -3.30108,-9.72965 -4.64286,-11.07143 -0.70406,-0.70406 -0.26041,-3.02081 -0.71429,-3.92857 -2.15026,-4.30054 -3.30767,-18.66482 -5,-20.35715 -1.01087,-1.01087 0.0162,-4.61054 -0.71428,-6.07142 -0.95384,-1.90767 -2.91607,-10.41969 -2.5,-12.5 z"
       id="path6402"
       inkscape:connector-curvature="0" />
    <path
       style="fill:none;stroke:#000000;stroke-width:1px;stroke-linecap:butt;stroke-linejoin:miter;stroke-opacity:1"
       d="m 289.00367,378.39847 c 7.56449,-0.38521 14.21541,-3.21429 21.42857,-3.21429"
       id="path6406"
       inkscape:connector-curvature="0" />
    <path
       style="fill:#ffffff;stroke:#000000;stroke-width:1px;stroke-linecap:butt;stroke-linejoin:miter;stroke-opacity:1"
       d="m 267.5751,368.04133 c 0.23809,0.47619 1.19047,1.19047 0.71428,1.42857 -0.47619,0.23809 -1.09074,-1.80504 -0.71428,-1.42857 3.75986,6.26644 -0.0733,1.03478 1.42857,1.78571 0.79113,0.39556 0.62427,1.33855 1.07143,1.78571 2.98652,2.98653 -9.30683,8.20373 -12.14286,6.78572 -3.26213,-1.63107 2.36163,-3.07592 3.21429,-3.92857 0.47121,-0.47121 1.3128,-1.78572 2.14285,-1.78572"
       id="path6434"
       inkscape:connector-curvature="0" />
    <path
       style="fill:none;stroke:#000000;stroke-width:4;stroke-linecap:round;stroke-linejoin:round;stroke-miterlimit:4;stroke-opacity:1;stroke-dasharray:none"
       d="m 192.93914,110.90001 c -0.67344,-1.34687 -3.36718,-3.36717 -2.02031,-4.04061 1.34687,-0.67343 3.36718,4.71405 2.02031,4.04061 -1.92843,-0.96421 -2.51606,-3.52621 -4.04061,-5.05076 -3.69691,-3.69691 -12.61437,4.06569 -11.11168,7.07107 2.1824,4.36479 28.54522,13.50658 13.13198,21.2132 -6.85078,3.42539 -14.92126,-10.10152 -18.18274,-10.10152"
       id="path6526"
       inkscape:connector-curvature="0" />
    <path
       style="fill:none;stroke:#000000;stroke-width:4;stroke-linecap:round;stroke-linejoin:round;stroke-miterlimit:4;stroke-opacity:1;stroke-dasharray:none"
       d="m 224.25387,102.81879 c 1.47231,1.88888 -17.0429,-1.13985 -22.22336,4.04061 -1.45299,1.45299 2.95229,24.1655 4.04061,25.25382 4.77349,4.77348 18.16436,-5.06916 23.23351,0"
       id="path6528"
       inkscape:connector-curvature="0" />
    <path
       style="fill:none;stroke:#000000;stroke-width:4;stroke-linecap:round;stroke-linejoin:round;stroke-miterlimit:4;stroke-opacity:1;stroke-dasharray:none"
       d="m 204.05081,119.99139 c 3.47653,-2.0227 11.65053,-3.50176 14.14214,-1.01016"
       id="path6530"
       inkscape:connector-curvature="0" />
    <path
       style="fill:none;stroke:#000000;stroke-width:4;stroke-linecap:round;stroke-linejoin:round;stroke-miterlimit:4;stroke-opacity:1;stroke-dasharray:none"
       d="m 241.42646,132.11322 c 0,-9.78986 -7.71209,-19.92918 -6.06092,-30.30458 9.52829,-13.268672 28.62065,5.38765 15.15229,12.12183 -3.50395,1.75197 -12.07981,0.96814 -14.14213,3.03046"
       id="path6532"
       inkscape:connector-curvature="0" />
    <path
       style="fill:none;stroke:#000000;stroke-width:4;stroke-linecap:round;stroke-linejoin:round;stroke-miterlimit:4;stroke-opacity:1;stroke-dasharray:none"
       d="m 263.64982,129.08276 c 3.95531,-0.0542 -3.0522,-23.21177 2.0203,-28.28427 4.7846,-4.784612 14.76648,27.51265 15.15229,28.28427"
       id="path6549"
       inkscape:connector-curvature="0" />
    <path
       style="fill:none;stroke:#000000;stroke-width:4;stroke-linecap:round;stroke-linejoin:round;stroke-miterlimit:4;stroke-opacity:1;stroke-dasharray:none"
       d="m 265.67012,119.99139 c 3.63904,-2.55419 6.99636,-2.02031 11.11168,-2.02031"
       id="path6551"
       inkscape:connector-curvature="0" />
    <path
       style="fill:none;stroke:#000000;stroke-width:4;stroke-linecap:round;stroke-linejoin:round;stroke-miterlimit:4;stroke-opacity:1;stroke-dasharray:none"
       d="m 290.92393,126.0523 c 0,-9.42437 -4.84785,-16.72002 -6.06091,-26.263972 10.61004,-9.89845 22.75051,5.292262 11.11168,11.111682 -0.31801,0.15901 -9.09138,3.45322 -9.09138,2.02031 0,-6.85524 17.05729,12.90137 18.18275,15.15229"
       id="path6553"
       inkscape:connector-curvature="0" />
    <path
       style="fill:none;stroke:#000000;stroke-width:4;stroke-linecap:round;stroke-linejoin:round;stroke-miterlimit:4;stroke-opacity:1;stroke-dasharray:none"
       d="m 316.17775,127.06245 c 1.4744,-8.38527 -3.45691,-24.82736 2.0203,-30.304572 3.72361,-3.72361 16.16244,24.042482 16.16244,27.274122"
       id="path6555"
       inkscape:connector-curvature="0" />
    <path
       style="fill:none;stroke:#000000;stroke-width:4;stroke-linecap:round;stroke-linejoin:round;stroke-miterlimit:4;stroke-opacity:1;stroke-dasharray:none"
       d="m 315.16759,113.93047 c 4.59249,-0.9322 9.15424,-1.01015 14.14214,-1.01015"
       id="path6557"
       inkscape:connector-curvature="0" />
    <path
       style="fill:none;stroke:#000000;stroke-width:4;stroke-linecap:round;stroke-linejoin:round;stroke-miterlimit:4;stroke-opacity:1;stroke-dasharray:none"
       d="m 333.35034,95.747718 c 6.36085,0.008 24.90004,-5.40454 28.28427,-2.0203"
       id="path6559"
       inkscape:connector-curvature="0" />
    <path
       style="fill:none;stroke:#000000;stroke-width:4;stroke-linecap:round;stroke-linejoin:round;stroke-miterlimit:4;stroke-opacity:1;stroke-dasharray:none"
       d="m 343.45187,96.757878 c 1.99959,7.420002 6.06091,14.758272 6.06091,22.223352"
       id="path6561"
       inkscape:connector-curvature="0" />
    <path
       style="fill:none;stroke:#000000;stroke-width:4;stroke-linecap:round;stroke-linejoin:round;stroke-miterlimit:4;stroke-opacity:1;stroke-dasharray:none"
       d="m 378.80721,92.717268 c -12.70093,-5.56238 -19.70306,13.121832 -15.15229,22.223352 1.71936,3.43873 8.37359,4.75839 10.10152,3.03046 1.34687,-1.34687 5.7242,0.33672 7.07107,-1.01015"
       id="path6563"
       inkscape:connector-curvature="0" />
    <path
       style="fill:none;stroke:#000000;stroke-width:4;stroke-linecap:round;stroke-linejoin:round;stroke-miterlimit:4;stroke-opacity:1;stroke-dasharray:none"
       d="m 363.65492,107.86956 c 4.16582,-1.26125 6.8532,-2.02031 11.11168,-2.02031"
       id="path6565"
       inkscape:connector-curvature="0" />
    <path
       style="fill:none;stroke:#000000;stroke-width:4;stroke-linecap:round;stroke-linejoin:round;stroke-miterlimit:4;stroke-opacity:1;stroke-dasharray:none"
       d="m 413.15239,115.95078 c 4.0918,-3.1189 7.04477,-26.263972 10.10153,-26.263972 2.55044,0 6.43013,21.951642 8.08122,25.253812"
       id="path6567"
       inkscape:connector-curvature="0" />
    <path
       style="fill:none;stroke:#000000;stroke-width:4;stroke-linecap:round;stroke-linejoin:round;stroke-miterlimit:4;stroke-opacity:1;stroke-dasharray:none"
       d="m 416.18285,106.8594 c 3.74046,-0.8471 6.98108,0 11.11168,0"
       id="path6569"
       inkscape:connector-curvature="0" />
    <path
       style="fill:none;stroke:#000000;stroke-width:4;stroke-linecap:round;stroke-linejoin:round;stroke-miterlimit:4;stroke-opacity:1;stroke-dasharray:none"
       d="m 440.42651,90.696958 c 0.56695,3.4188 -1.81856,25.253822 0,25.253822 3.57493,0 4.76415,-2.16362 7.07107,-1.01016"
       id="path6571"
       inkscape:connector-curvature="0" />
    <path
       style="fill:none;stroke:#000000;stroke-width:4;stroke-linecap:round;stroke-linejoin:round;stroke-miterlimit:4;stroke-opacity:1;stroke-dasharray:none"
       d="m 458.60926,93.727418 c -0.97286,2.26755 -1.21755,22.015962 -1.01016,22.223362 1.30603,1.30603 11.04509,-2.02031 13.13199,-2.02031"
       id="path6583"
       inkscape:connector-curvature="0" />
    <path
       style="fill:none;stroke:#000000;stroke-width:4;stroke-linecap:round;stroke-linejoin:round;stroke-miterlimit:4;stroke-opacity:1;stroke-dasharray:none"
       d="m 405.07117,125.87898 c 11.23478,-1.69638 70.59667,-5.16477 73.74114,-2.0203"
       id="path6585"
       inkscape:connector-curvature="0" />
    <path
       style="fill:none;stroke:#000000;stroke-width:4;stroke-linecap:round;stroke-linejoin:round;stroke-miterlimit:4;stroke-opacity:1;stroke-dasharray:none"
       d="m 507.09658,95.747718 c -2.23882,6.698372 1.01015,13.678462 1.01015,20.203062"
       id="path6587"
       inkscape:connector-curvature="0" />
    <path
       style="fill:none;stroke:#000000;stroke-width:4;stroke-linecap:round;stroke-linejoin:round;stroke-miterlimit:4;stroke-opacity:1;stroke-dasharray:none"
       d="m 494.97475,93.727418 c 5.68413,-0.0944 21.00704,-4.24677 24.24366,-1.01015"
       id="path6589"
       inkscape:connector-curvature="0" />
    <path
       style="fill:none;stroke:#000000;stroke-width:4;stroke-linecap:round;stroke-linejoin:round;stroke-miterlimit:4;stroke-opacity:1;stroke-dasharray:none"
       d="m 529.31993,93.727418 c -2.91516,7.095562 1.01016,15.528412 1.01016,21.213202"
       id="path6591"
       inkscape:connector-curvature="0" />
    <path
       style="fill:none;stroke:#000000;stroke-width:4;stroke-linecap:round;stroke-linejoin:round;stroke-miterlimit:4;stroke-opacity:1;stroke-dasharray:none"
       d="m 531.34024,104.8391 c 3.32674,-1.29044 6.64354,-1.01016 10.10152,-1.01016"
       id="path6593"
       inkscape:connector-curvature="0" />
    <path
       style="fill:none;stroke:#000000;stroke-width:4;stroke-linecap:round;stroke-linejoin:round;stroke-miterlimit:4;stroke-opacity:1;stroke-dasharray:none"
       d="m 543.46207,92.717268 c 0.24433,5.85896 -0.441,15.721442 3.03046,19.192902"
       id="path6595"
       inkscape:connector-curvature="0" />
    <path
       style="fill:none;stroke:#000000;stroke-width:4;stroke-linecap:round;stroke-linejoin:round;stroke-miterlimit:4;stroke-opacity:1;stroke-dasharray:none"
       d="m 574.7768,88.676658 c -2.63783,0.91843 -12.12947,-1.00252 -14.14214,1.01015 -2.29929,2.29929 1.06504,12.967342 0,16.162442 -0.47289,1.41869 -2.00188,3.0673 -1.01015,5.05076 1.06856,2.13712 0.4593,7.53037 2.0203,9.09138 1.09378,1.09377 13.76213,-2.84046 8.08122,0"
       id="path6597"
       inkscape:connector-curvature="0" />
    <path
       style="fill:none;stroke:#000000;stroke-width:4;stroke-linecap:round;stroke-linejoin:round;stroke-miterlimit:4;stroke-opacity:1;stroke-dasharray:none"
       d="m 561.64481,106.8594 c 3.25022,-2.36912 5.52786,-2.0203 9.09138,-2.0203"
       id="path6599"
       inkscape:connector-curvature="0" />
    <path
       style="fill:none;stroke:#000000;stroke-width:4;stroke-linecap:round;stroke-linejoin:round;stroke-miterlimit:4;stroke-opacity:1;stroke-dasharray:none"
       d="m 238.39601,160.39749 c -4.53261,-1.55508 -1.80762,-3.41563 -8.08122,-2.0203 -17.03671,8.51835 -0.22617,36.59166 12.12183,24.24366"
       id="path6601"
       inkscape:connector-curvature="0"
       sodipodi:nodetypes="ccc" />
    <path
       style="fill:none;stroke:#000000;stroke-width:4;stroke-linecap:round;stroke-linejoin:round;stroke-miterlimit:4;stroke-opacity:1;stroke-dasharray:none"
       d="m 255.5686,160.39749 c -2.06116,-1.07143 -2.61204,-0.43884 -4.04061,0 -1.28735,2.63149 -2.98128,4.03579 -3.03046,7.07107 0,38.04811 34.08841,3.73587 7.07107,-7.07107 z"
       id="path6603"
       inkscape:connector-curvature="0"
       sodipodi:nodetypes="cccc" />
    <path
       style="fill:none;stroke:#000000;stroke-width:4;stroke-linecap:round;stroke-linejoin:round;stroke-miterlimit:4;stroke-opacity:1;stroke-dasharray:none"
       d="m 274.7615,181.6107 c 0.0204,-3.84687 -0.57131,4.86753 0.77556,4.53082 1.34687,-0.33672 -0.68578,-2.83484 -0.77556,-4.53082 0.48215,2.01785 -4.41827,-16.79494 -1.01015,-20.20306 1.12425,-1.12425 13.4071,10.37665 15.15228,12.12184 2.80472,2.80472 5.08755,7.07106 5.05077,7.07106 -0.0851,0 0.12112,-8.72799 0,-9.09137 -1.20683,-3.62048 -3.31858,-15.4404 -2.02031,-14.14214"
       id="path6605"
       inkscape:connector-curvature="0"
       sodipodi:nodetypes="cscssscc" />
    <path
       style="fill:none;stroke:#000000;stroke-width:4;stroke-linecap:round;stroke-linejoin:round;stroke-miterlimit:4;stroke-opacity:1;stroke-dasharray:none"
       d="m 314.15745,157.36703 c -13.53478,-4.59677 -15.43924,29.94298 6.06091,19.1929"
       id="path6607"
       inkscape:connector-curvature="0" />
    <path
       style="fill:none;stroke:#000000;stroke-width:4;stroke-linecap:round;stroke-linejoin:round;stroke-miterlimit:4;stroke-opacity:1;stroke-dasharray:none"
       d="m 340.42141,153.32642 c -3.96931,0.22653 -10.93218,-1.36914 -13.13198,3.03046 -1.60332,3.20664 -1.7406,19.83783 1.01015,21.21321 3.59377,1.79688 8.71347,-2.02031 12.12183,-2.02031"
       id="path6609"
       inkscape:connector-curvature="0" />
    <path
       style="fill:none;stroke:#000000;stroke-width:4;stroke-linecap:round;stroke-linejoin:round;stroke-miterlimit:4;stroke-opacity:1;stroke-dasharray:none"
       d="m 327.16688,166.16255 c 3.45606,0.13919 6.32345,0.3738 9.09137,-1.01016"
       id="path6611"
       inkscape:connector-curvature="0" />
    <path
       style="fill:none;stroke:#000000;stroke-width:4;stroke-linecap:round;stroke-linejoin:round;stroke-miterlimit:4;stroke-opacity:1;stroke-dasharray:none"
       d="m 350.52294,172.51932 c 0,-6.51939 -2.7617,-12.21251 -5.05076,-18.18274 1.91234,-9.07472 24.69725,-2.4739 19.19289,3.03045 -0.95539,0.9554 -12.12183,4.17588 -12.12183,4.04061 0,-0.51046 5.71369,4.37208 11.11168,7.07107 2.85678,1.42839 2.81518,4.83549 4.04061,6.06092"
       id="path6613"
       inkscape:connector-curvature="0" />
    <path
       style="fill:none;stroke:#000000;stroke-width:4;stroke-linecap:round;stroke-linejoin:round;stroke-miterlimit:4;stroke-opacity:1;stroke-dasharray:none"
       d="m 376.7869,173.52948 c 1.88604,-3.08214 -1.01015,-5.65889 -1.01015,-8.08122 0,-1.41555 -2.43205,-9.68979 -2.0203,-10.10153 2.55955,-2.55956 16.86993,18.4854 18.18274,17.17259 0.55193,-0.55193 -9.29386,-28.48676 -3.03045,-22.22335"
       id="path6615"
       inkscape:connector-curvature="0" />
    <path
       style="fill:none;stroke:#000000;stroke-width:4;stroke-linecap:round;stroke-linejoin:round;stroke-miterlimit:4;stroke-opacity:1;stroke-dasharray:none"
       d="m 398.00011,169.48887 c 8.39236,8.39236 19.06631,1.89371 14.14213,-3.03046 -4.71385,-4.71385 -11.81358,-3.73237 -16.16244,-8.08122 -5.60827,-5.60827 2.84903,-13.19246 9.09138,-11.11168 3.35662,0.708 3.98182,1.33019 6.45892,2.56874"
       id="path6617"
       inkscape:connector-curvature="0"
       sodipodi:nodetypes="csscc" />
    <path
       style="fill:#ffffff;stroke:#000000;stroke-width:1px;stroke-linecap:butt;stroke-linejoin:miter;stroke-opacity:1"
       d="m 399.96247,752.36013 c -2.05959,-0.35009 -18.23544,0.98381 -25.25382,-2.52538 -2.44623,-1.22312 -9.50645,-3.95061 -11.11167,-5.55584 -0.54708,-0.54707 -2.23008,-2.12519 -3.03046,-2.52538 -0.82298,-0.41149 -2.9492,-1.43397 -3.53554,-2.02031 -6.0229,-6.0229 -11.7011,-16.83622 -15.65736,-24.74873 -1.07496,-2.14993 -0.92605,-4.88255 -2.02031,-7.07107 -1.75359,-3.5072 -0.50507,-14.31912 -0.50507,-18.68782 0,-6.75939 0.11679,-19.30969 4.54568,-23.73859 4.01192,-4.01191 11.03241,-8.7992 16.66752,-11.61675 2.07616,-1.03808 4.59834,-2.07296 6.06092,-3.53554 1.84617,-1.84617 6.67908,-1.31923 9.09137,-2.52538 2.99118,-1.49559 23.4631,-4.17835 26.76904,-2.52538 1.82579,0.91289 4.26327,0.61641 6.06092,1.51523 6.20831,3.10416 11.85525,4.27911 16.16244,8.5863 2.72464,2.72463 6.1836,9.45944 7.57614,13.63706 0.44813,1.34438 2.07042,2.67571 2.52539,4.04061 0.83842,2.51525 1.13861,5.43613 2.0203,8.08122 2.18517,6.55549 -1.28104,22.26005 -4.04061,27.77919 -1.59966,3.19932 -1.85569,14.4826 -4.04061,16.66752 -2.40649,2.40649 -3.2826,7.32321 -5.05076,9.09137 -3.66539,3.66538 -6.42004,7.93526 -10.10153,11.61676 -3.50003,3.50002 -8.14777,4.06723 -13.13198,6.06091 z"
       id="path6693"
       inkscape:connector-curvature="0" />
    <path
       style="fill:none;stroke:#000000;stroke-width:1px;stroke-linecap:butt;stroke-linejoin:miter;stroke-opacity:1"
       d="m 348.4447,711.44895 c 0.81416,1.89689 -3.05452,-10.07746 0,-13.13198 0.55425,-0.55425 0.794,-11.90568 3.03046,-14.14213 2.94934,-2.94935 7.30059,-7.3006 10.10152,-10.10153 4.13628,-4.13628 36.65495,-12.84253 43.43656,-6.06091 1.74305,1.74304 6.63493,0.57401 8.08122,2.0203 1.98933,1.98932 9.37024,7.34993 11.11168,9.09137 3.94631,3.94631 4.04061,9.3514 4.04061,13.13199"
       id="path6751"
       inkscape:connector-curvature="0"
       sodipodi:nodetypes="cssssssc" />
    <path
       style="fill:#784421;fill-opacity:1;stroke:#000000;stroke-width:1px;stroke-linecap:butt;stroke-linejoin:miter;stroke-opacity:1"
       d="m 366.73319,666.96945 c 0.3092,-2.49064 3.55348,-2.42831 8.93224,-5.32713 1.2042,-0.64901 2.73263,-0.29906 3.50289,-1.11808 1.29396,-1.37584 8.65464,0.23984 10.61711,0.17965 1.26632,-0.0388 8.49362,0.8736 7.63453,1.78706 -1.8668,1.98494 -13.82972,-0.41284 -15.12968,0.96941 -1.47677,1.57024 -11.85033,2.64875 -15.55709,3.50909 z"
       id="path6764"
       inkscape:connector-curvature="0" />
    <path
       style="fill:#784421;fill-opacity:1;stroke:#000000;stroke-width:1px;stroke-linecap:butt;stroke-linejoin:miter;stroke-opacity:1"
       d="m 345.72921,723.06751 c 0.93366,1.71318 1.66888,3.30217 2.6875,5 1.33347,2.22263 2.74638,4.39065 4.1875,6.375 1.19117,1.64018 2.41839,3.04758 3.65625,4.375 16.0714,1.15252 36.68387,3.93931 48.5,-1.96875 1.05331,-0.52666 4.2248,0.0565 5,-0.71875 2.53705,-2.53705 9.59412,-2.43787 12.15625,-5 1.60965,-1.60965 3.46233,-2.91271 5.375,-4.15625 0.3108,-0.4776 0.59233,-0.99858 0.96875,-1.375 0.54623,-0.54623 0.95625,-1.6787 1.3125,-3.09375 0.35625,-1.41505 0.63771,-3.12807 0.90625,-4.875 0.26854,-1.74693 0.52941,-3.52065 0.8125,-5.0625 0.28309,-1.54185 0.60009,-2.85642 1,-3.65625 0.68989,-1.37978 1.41487,-3.39914 2.09375,-5.75 0.22716,-0.78662 0.38267,-1.74355 0.59375,-2.59375 -4.49264,2.19665 -9.38942,3.51683 -12.34375,0.5625 -4.73133,-4.73132 -6.11808,-11.83684 -10.71875,-16.4375 -0.59524,-0.59524 -2.24851,-0.0923 -2.84375,-0.6875 -8.65421,-8.65421 -34.77381,-3.81994 -41.4375,2.84375 l -5,5 c -2.01496,2.01495 -2.26629,7.98504 -4.28125,10 -0.59524,0.59523 0.59524,2.96727 0,3.5625 -3.9606,3.9606 0.4368,16.57319 -12.625,17.65625 z"
       id="path6766"
       inkscape:connector-curvature="0" />
    <path
       style="fill:#1a1a1a;stroke:#000000;stroke-width:1px;stroke-linecap:butt;stroke-linejoin:miter;stroke-opacity:1"
       d="m 339.05957,686.13505 c -1.68385,0.85295 -3.86867,-1.57719 -7.85715,-3.57143 -1.17757,-0.58879 -2.2096,-2.99064 -2.85714,-4.28571 -6.52438,-13.04878 12.96979,-17.7445 15.71429,-15 2.79242,2.79242 5.61642,2.66142 7.85714,7.14285 3.42832,6.85665 -6.74133,16.93745 -12.85714,15.71429 z"
       id="path6797"
       inkscape:connector-curvature="0" />
    <path
       style="fill:#1a1a1a;stroke:#000000;stroke-width:1px;stroke-linecap:butt;stroke-linejoin:miter;stroke-opacity:1"
       d="m 416.91671,641.84934 c 0.73396,-1.36507 -6.58008,1.01729 -8.57143,5 -0.93317,1.86633 -5.14795,10.56633 -3.57143,12.14285 0.96356,0.96356 1.32201,2.64402 2.14286,4.28572 2.01948,4.03895 13.04549,9.09737 16.42857,5.71428 0.89796,-0.89796 4.16199,-0.59055 5,-1.42857 8.97019,-8.97018 2.98142,-28.59628 -11.42857,-25.71428 z"
       id="path6799"
       inkscape:connector-curvature="0" />
    <path
       style="fill:#ffffff;stroke:none"
       d="m 339.35332,669.78016 c -0.73346,-0.0634 -2.14657,0.79989 -2.14657,1.6415 0,0.46643 -0.30229,1.11343 -0.12627,1.6415 0.78606,2.35818 3.71937,2.59408 5.17703,1.13642 0.39172,-0.39171 0.15408,-1.06578 0.37881,-1.51523 1.12351,-2.24702 -1.73884,-2.90419 -3.283,-2.90419 z"
       id="path6816"
       inkscape:connector-curvature="0" />
    <path
       style="fill:#ffffff;stroke:none"
       d="m 416.88254,650.20845 c -1.23525,0.27005 -2.09818,1.67097 -2.65165,2.77792 -0.13529,0.27057 0.39394,1.04043 0.50507,1.26269 0.25656,0.51311 0.81587,0.83854 1.26269,1.13642 1.51248,1.00832 2.29686,0.49307 3.78808,-0.25254 0.24201,-0.121 0.39769,-0.66911 0.50507,-0.88388 0.71961,-1.43921 0.47121,-2.92112 -1.01015,-3.6618 -0.13247,-0.0662 -0.53536,-0.0303 -0.63135,-0.12627 -0.46819,-0.46819 -1.05425,-0.53795 -1.76776,-0.25254 z"
       id="path6829"
       inkscape:connector-curvature="0" />
    <path
       style="fill:#3098a0;fill-opacity:1;stroke:none"
       d="m 330.48814,678.99219 c 0.21976,-0.6231 2.89429,0.35714 6.07143,0.35714 2.81706,0 12.6332,-6.29536 13.57143,-5.35714 1.23942,1.23942 -0.95989,3.34834 -1.42858,4.28572 -0.52708,1.05417 -1.70268,0.9884 -2.5,1.78571 -4.76268,4.76269 -11.83197,5.39909 -15.71428,-1.07143 z"
       id="path6837"
       inkscape:connector-curvature="0" />
    <path
       style="fill:#ffffff;stroke:none"
       d="m 329.41671,677.56362 c 0.35715,0.47619 1.54762,1.07143 1.07143,1.42857 -0.26945,0.20209 -3.05601,-4.76259 0.35715,0.35714 0.96466,1.44701 2.6353,2.99245 3.92857,4.28572 0.17059,0.1706 1.81176,0.19159 2.14285,0.35714 0.48326,0.24163 4.69646,-1.73211 4.28572,-2.14286 -1.02933,-1.02933 -5.52741,-0.52741 -6.42857,-1.42857 -1.20569,-1.20569 -3.27683,-2.02501 -5.35715,-2.85714 z"
       id="path6833"
       inkscape:connector-curvature="0" />
    <path
       style="fill:#3098a0;fill-opacity:1;stroke:none"
       d="m 408.34528,660.42076 c 0.43383,3.93025 9.22597,9.85131 16.78572,6.07143 0.9764,-0.4882 1.17673,-1.89101 1.78571,-2.5 0.77987,-0.77987 1.78571,-1.72717 1.78571,-2.85714 0,-0.76239 3.58855,-5.34003 2.5,-6.42857 -0.35892,-0.35893 -1.40728,1.05014 -1.42857,1.07143 -0.92428,0.92428 -2.39051,1.31908 -3.21428,2.14285 -3.10921,3.10921 -13.27428,6.45201 -18.21429,2.5 z"
       id="path6839"
       inkscape:connector-curvature="0" />
    <path
       style="fill:#ffffff;stroke:none"
       d="m 426.20243,655.42076 c 1.19048,0 2.38095,0 3.57143,0 0.16032,0 2.14285,-0.5347 2.14285,-0.35714 0,1.92582 -4.46875,10.88839 -6.07142,9.28571 -0.23723,-0.23723 0.69829,-1.76971 0.71428,-1.78571 0.87434,-0.87434 0.17699,-6.07459 -0.35714,-7.14286 z"
       id="path6835"
       inkscape:connector-curvature="0" />
    <path
       style="fill:#781414;fill-opacity:1;stroke:#000000;stroke-width:1px;stroke-linecap:butt;stroke-linejoin:miter;stroke-opacity:1"
       d="m 438.85335,699.8322 c 3.69987,5.26786 8.33922,23.74951 13.63706,34.34519 0.97031,1.94063 0.52375,4.58304 1.51522,6.56599 1.23944,2.47888 0.50508,19.46686 0.50508,23.23351 0,15.05493 1.84826,33.17404 -4.54569,45.96194 -0.9023,1.80461 -0.58679,4.20404 -1.51522,6.06091 -1.84563,3.69126 -1.41628,18.08379 -3.03046,19.69798 -0.1337,0.13369 -1.30726,0 -1.51523,0 -2.53366,0 -1.51523,-4.27434 -1.51523,-6.56599 0,-3.53493 0.0345,-11.68577 1.51523,-14.64722 1.38413,-2.76825 3.53553,-8.21035 3.53553,-11.11167 0,-1.25263 2.14901,-8.8437 3.03046,-10.60661 1.27866,-2.55732 -1.94357,-10.17826 0,-12.12183 2.49508,-2.49507 -0.96246,-34.75487 -2.0203,-36.87056 -0.55309,-1.10617 0.053,-2.92452 -0.50508,-4.04061 -1.64441,-3.28883 -6.54773,-21.19495 -7.57614,-22.22336 -1.59124,-1.59123 -0.90619,-4.84283 -2.02031,-7.07107 -0.2098,-0.4196 -1.07804,-3.03046 -1.01015,-3.03046 0.66627,0 0.50507,1.78928 0.50507,2.02031"
       id="path6841"
       inkscape:connector-curvature="0" />
    <path
       style="fill:#000000;stroke:#000000;stroke-width:1px;stroke-linecap:butt;stroke-linejoin:miter;stroke-opacity:1"
       d="m 330.26195,784.68501 c 1.7904,-2.00496 18.50252,0.59773 25.75889,-3.03045 0.52989,-0.26495 2.12225,0.40313 2.52538,0 0.23554,-0.23554 6.06091,-1.72861 6.06091,-1.51523 0,0.59382 -2.01037,4.03067 -2.52538,4.54568 -1.5103,1.5103 -1.97955,6.98956 -3.03045,9.09138 -0.98184,1.96366 -2.8264,15.4533 -3.53554,16.16244 -1.0797,1.0797 -4.81161,13.15875 -6.06091,15.65736 -0.51546,1.03092 0.26422,3.27131 -0.50508,4.04061 -0.88839,0.88839 -18.62938,4.54569 -22.22336,4.54569 -4.02211,0 -6.89893,3.53553 -10.10152,3.53553 -0.90664,0 -2.52538,1.91679 -2.52538,1.01015 0,-0.80622 0.91567,-4.35672 1.51523,-5.55583 1.11148,-2.22297 -0.21028,-7.87094 1.51523,-9.59645 2.5236,-2.52361 6.09089,-16.2224 8.08122,-20.20305 2.86375,-5.72752 2.7096,-12.83493 5.05076,-18.68783 z"
       id="path6906"
       inkscape:connector-curvature="0" />
    <path
       style="fill:#ffffff;stroke:#000000;stroke-width:1px;stroke-linecap:butt;stroke-linejoin:miter;stroke-opacity:1"
       d="m 445.1073,834.9523 c 0.55273,7.08306 -0.21445,-5.77576 0.21537,2.56637 0.27256,5.28962 -7.71833,9.81624 -9.66287,4.4888 -0.60616,-1.66071 2.29232,-4.00328 1.13199,-5.46269 -0.27718,-0.34864 -3.37258,-1.62878 -3.34086,-1.90648 0.11161,-0.97765 8.37696,-3.81066 9.43373,-2.48152 0.10475,0.1318 -0.0382,0.33454 -0.0573,0.50181 0.75997,0.76457 1.51994,1.52914 2.27993,2.29371 z"
       id="path6923"
       inkscape:connector-curvature="0" />
    <path
       style="fill:none;stroke:#000000;stroke-width:3;stroke-linecap:round;stroke-linejoin:round;stroke-miterlimit:4;stroke-opacity:1;stroke-dasharray:none"
       d="m 270.01372,555.26683 c -0.40709,-0.9839 -2.20517,-2.54462 -1.22126,-2.95172 0.9839,-0.40709 1.14535,4.0138 1.22126,2.95172 0.62668,-8.7687 -7.65936,-8.73429 -11.80646,-5.14044 -3.96823,3.43886 8.7786,11.19089 9.7705,13.58823 2.98656,7.21832 -6.20935,7.83106 -9.72037,5.75027 -1.83334,-1.08653 -1.89554,-2.23736 -3.35866,-3.10448"
       id="path6925"
       inkscape:connector-curvature="0" />
    <path
       style="fill:none;stroke:#000000;stroke-width:3;stroke-linecap:round;stroke-linejoin:round;stroke-miterlimit:4;stroke-opacity:1;stroke-dasharray:none"
       d="m 277.34168,562.95161 c 3.85551,-0.55094 5.86188,-1.1193 7.4302,-3.76561 1.19135,-2.01023 -3.11097,-3.20695 -4.83452,-2.49384 -7.92911,3.28064 2.28842,5.89241 -5.39463,5.34332 -0.51564,-0.0369 0.14361,6.19586 0.2542,6.46313 1.93232,4.67029 9.35231,1.25211 9.97456,0.71286"
       id="path6927"
       inkscape:connector-curvature="0" />
    <path
       style="fill:none;stroke:#000000;stroke-width:3;stroke-linecap:round;stroke-linejoin:round;stroke-miterlimit:4;stroke-opacity:1;stroke-dasharray:none"
       d="m 291.33685,557.50686 c -0.75187,9.04079 0.18848,17.40261 -0.45906,26.46317"
       id="path6929"
       inkscape:connector-curvature="0" />
    <path
       style="fill:none;stroke:#000000;stroke-width:3;stroke-linecap:round;stroke-linejoin:round;stroke-miterlimit:4;stroke-opacity:1;stroke-dasharray:none"
       d="m 290.26796,562.44322 c 1.63041,-3.05172 6.20179,-5.28563 9.66943,-5.0378 3.48712,0.24922 -0.46367,9.09026 -1.42533,9.92364 -0.98306,0.85192 -2.53575,0.0121 -3.61325,0.45787 -1.41886,0.58705 -3.01731,1.14558 -4.27482,-0.30552"
       id="path6931"
       inkscape:connector-curvature="0" />
    <path
       style="fill:none;stroke:#000000;stroke-width:3;stroke-linecap:round;stroke-linejoin:round;stroke-miterlimit:4;stroke-opacity:1;stroke-dasharray:none"
       d="m 307.06208,557.91461 c 0.78036,-0.89904 1.44204,-3.47748 2.34108,-2.69713 0.89904,0.78037 -3.24074,3.47677 -2.34108,2.69713 1.15213,-0.99843 1.95234,-2.36024 3.10447,-3.35867 6.51495,-5.64585 2.82117,15.91587 1.5769,18.01538"
       id="path6933"
       inkscape:connector-curvature="0" />
    <path
       style="fill:none;stroke:#000000;stroke-width:3;stroke-linecap:round;stroke-linejoin:round;stroke-miterlimit:4;stroke-opacity:1;stroke-dasharray:none"
       d="m 311.38742,567.53312 c -1.83797,-5.64113 -8.00103,-0.12063 -6.66681,3.10408 1.18052,2.85327 7.48214,3.33009 6.66681,-3.10408 z"
       id="path6935"
       inkscape:connector-curvature="0" />
    <path
       style="fill:none;stroke:#000000;stroke-width:3;stroke-linecap:round;stroke-linejoin:round;stroke-miterlimit:4;stroke-opacity:1;stroke-dasharray:none"
       d="m 319.53047,553.79295 c -1.01393,2.38272 -1.04428,4.59198 -1.22165,7.07376 -0.11855,1.65878 0.11567,2.27531 0.45787,3.61326 0.38361,1.49981 -0.73382,5.32302 0.2542,6.46313 2.05174,2.36759 -0.32201,-16.25047 0.50958,-17.15015 0.80807,-0.87423 2.3771,0.36609 3.56234,0.25459 5.00826,-0.47117 5.3484,-2.11294 7.63349,3.40998"
       id="path6937"
       inkscape:connector-curvature="0" />
    <path
       style="fill:none;stroke:#000000;stroke-width:3;stroke-linecap:round;stroke-linejoin:round;stroke-miterlimit:4;stroke-opacity:1;stroke-dasharray:none"
       d="m 336.52788,556.43993 c 12.02764,-10.53724 6.41806,10.39657 5.95356,16.89597"
       id="path6939"
       inkscape:connector-curvature="0" />
    <path
       style="fill:none;stroke:#000000;stroke-width:3;stroke-linecap:round;stroke-linejoin:round;stroke-miterlimit:4;stroke-opacity:1;stroke-dasharray:none"
       d="m 340.90413,565.34599 c -0.89903,-0.78037 -3.47747,-1.44205 -2.69711,-2.34109 0.78035,-0.89903 3.88457,2.42595 2.69711,2.34109 -1.38478,-0.099 -2.21524,-1.68418 -3.40958,-2.392 -1.67642,-0.99353 -2.27334,0.63339 -2.95171,1.22126 -6.35799,5.50982 6.86634,9.71681 10.48335,3.61365"
       id="path6941"
       inkscape:connector-curvature="0" />
    <path
       style="fill:none;stroke:#000000;stroke-width:3;stroke-linecap:round;stroke-linejoin:round;stroke-miterlimit:4;stroke-opacity:1;stroke-dasharray:none"
       d="m 354.44183,546.26249 c -1.12606,2.76455 -1.11561,5.59001 -1.32349,8.4987 -0.22129,3.09625 -1.25168,11.88317 1.88241,13.74057 2.43426,1.44266 13.00118,0.34927 10.89071,-2.08609"
       id="path6943"
       inkscape:connector-curvature="0" />
    <path
       style="fill:none;stroke:#000000;stroke-width:3;stroke-linecap:round;stroke-linejoin:round;stroke-miterlimit:4;stroke-opacity:1;stroke-dasharray:none"
       d="m 347.52043,552.9289 c 4.55352,-0.69747 11.4308,-1.33138 14.40212,-1.11902"
       id="path6945"
       inkscape:connector-curvature="0" />
    <path
       style="fill:none;stroke:#000000;stroke-width:3;stroke-linecap:round;stroke-linejoin:round;stroke-miterlimit:4;stroke-opacity:1;stroke-dasharray:none"
       d="m 368.79264,555.88141 c -2.26552,-0.90726 3.71297,2.61217 7.07377,1.22165 14.50581,-6.00174 -5.56944,-9.39555 -7.07377,-1.22165 -0.25128,1.36539 1.35204,2.43224 1.88282,3.71509 2.98699,7.21938 6.51958,7.32786 11.80645,5.14043"
       id="path6947"
       inkscape:connector-curvature="0" />
    <path
       style="fill:none;stroke:#000000;stroke-width:3;stroke-linecap:round;stroke-linejoin:round;stroke-miterlimit:4;stroke-opacity:1;stroke-dasharray:none"
       d="m 407.31267,549.47906 c 0,-0.95238 -0.23099,-1.93319 0,-2.85714 0.53851,-2.15406 6.45573,-2.82999 7.14285,-2.14286 4.10197,4.10197 -0.71428,17.08699 -0.71428,22.14286"
       id="path6949"
       inkscape:connector-curvature="0" />
    <path
       style="fill:none;stroke:#000000;stroke-width:3;stroke-linecap:round;stroke-linejoin:round;stroke-miterlimit:4;stroke-opacity:1;stroke-dasharray:none"
       d="m 412.31267,556.62192 c -12.27751,-8.81506 -4.18107,16.21927 2.14285,3.57143"
       id="path6951"
       inkscape:connector-curvature="0" />
    <path
       style="fill:none;stroke:#000000;stroke-width:3;stroke-linecap:round;stroke-linejoin:round;stroke-miterlimit:4;stroke-opacity:1;stroke-dasharray:none"
       d="m 432.31267,531.62192 c -4.92937,8.11151 -6.42857,20.29394 -6.42857,30"
       id="path6953"
       inkscape:connector-curvature="0" />
    <path
       style="fill:none;stroke:#000000;stroke-width:3;stroke-linecap:round;stroke-linejoin:round;stroke-miterlimit:4;stroke-opacity:1;stroke-dasharray:none"
       d="m 440.16981,533.76478 c -0.8766,4.74381 -7.11526,28.59902 -5.71429,30"
       id="path6955"
       inkscape:connector-curvature="0" />
    <path
       style="fill:none;stroke:#000000;stroke-width:3;stroke-linecap:round;stroke-linejoin:round;stroke-miterlimit:4;stroke-opacity:1;stroke-dasharray:none"
       d="m 471.59838,545.90763 c 0.2942,6.196 -3.57143,13.69832 -3.57143,18.57143"
       id="path6959"
       inkscape:connector-curvature="0" />
    <path
       style="fill:none;stroke:#000000;stroke-width:3;stroke-linecap:round;stroke-linejoin:round;stroke-miterlimit:4;stroke-opacity:1;stroke-dasharray:none"
       d="m 460.8841,553.76478 c 2.98,-0.90609 13.42908,-3.71378 15,-2.14286"
       id="path6961"
       inkscape:connector-curvature="0" />
    <path
       style="fill:none;stroke:#000000;stroke-width:3;stroke-linecap:round;stroke-linejoin:round;stroke-miterlimit:4;stroke-opacity:1;stroke-dasharray:none"
       d="m 483.02695,533.76478 c -2.42007,3.80826 -4.87564,28.57143 -5.71428,28.57143 -1.32299,0 7.58053,-11.70519 8.57143,-10.71429 3.48769,3.48769 3.57142,10.56317 3.57142,13.57143"
       id="path6963"
       inkscape:connector-curvature="0" />
    <path
       style="fill:none;stroke:#000000;stroke-width:3;stroke-linecap:round;stroke-linejoin:round;stroke-miterlimit:4;stroke-opacity:1;stroke-dasharray:none"
       d="m 508.74124,560.90763 c 0,2.07606 -1.27077,1.98506 -2.85714,3.57143 -8.08156,8.08156 -16.78994,-9.46217 -7.14286,-14.28571 2.20154,-1.10077 4.71415,2.85714 5.71428,2.85714 1.34687,0 -1.90476,-3.80952 -2.85714,-2.85714 -0.95238,0.95238 1.90476,1.90476 2.85714,2.85714 -1.25528,3.89059 -7.08441,7.20131 -10.71428,3.57143"
       id="path6965"
       inkscape:connector-curvature="0" />
    <path
       style="fill:none;stroke:#000000;stroke-width:3;stroke-linecap:round;stroke-linejoin:round;stroke-miterlimit:4;stroke-opacity:1;stroke-dasharray:none"
       d="m 314.81327,608.13885 c -13.90954,-3.61576 -5.04865,19.33437 2.85714,11.42857"
       id="path6967"
       inkscape:connector-curvature="0" />
    <path
       style="fill:none;stroke:#000000;stroke-width:3;stroke-linecap:round;stroke-linejoin:round;stroke-miterlimit:4;stroke-opacity:1;stroke-dasharray:none"
       d="m 326.95612,619.56742 c -2.6043,-1.03736 -5.2636,0.18708 -6.42856,-2.14285 -2.51483,-5.02965 2.19823,-11.40088 7.85714,-8.57143 7.14979,3.57489 0.81902,12.90951 -6.42857,9.28571"
       id="path6969"
       inkscape:connector-curvature="0" />
    <path
       style="fill:none;stroke:#000000;stroke-width:3;stroke-linecap:round;stroke-linejoin:round;stroke-miterlimit:4;stroke-opacity:1;stroke-dasharray:none"
       d="m 339.09898,608.85314 c -1.11625,3.13445 0,4.18531 0,7.14285 0,1.66667 1.66667,5 0,5 -1.44828,0 0.36303,-2.88067 0.71429,-4.28571 0.3828,-1.53122 -0.75027,-7.78519 -0.71429,-7.85714 0.36402,-0.72804 10.08673,-4.11226 11.42857,-1.42857 1.50309,3.00616 -2.33126,16.0911 -0.71428,12.85714"
       id="path6971"
       inkscape:connector-curvature="0" />
    <path
       style="fill:none;stroke:#000000;stroke-width:3;stroke-linecap:round;stroke-linejoin:round;stroke-miterlimit:4;stroke-opacity:1;stroke-dasharray:none"
       d="m 368.3847,609.56742 c -6.68711,-9.25882 -15.82628,5.63963 -5,12.85715 1.97556,1.31704 4.0355,0.96449 5.71428,-0.71429"
       id="path6973"
       inkscape:connector-curvature="0" />
    <path
       style="fill:none;stroke:#000000;stroke-width:3;stroke-linecap:round;stroke-linejoin:round;stroke-miterlimit:4;stroke-opacity:1;stroke-dasharray:none"
       d="m 386.24184,618.85314 c 0,9.43183 -18.28464,0.42749 -10,-7.85715 0.63515,-0.63515 2.75341,-2.27919 3.57143,-2.14285 1.26473,0.21079 2.28924,1.42857 3.57143,1.42857 1.06479,0 -2.38096,-2.38095 -2.85715,-1.42857 -0.47619,0.95238 1.90476,0.95238 2.85715,1.42857 -3.67527,4.02236 -5.054,4.973 -9.28572,2.85714"
       id="path6975"
       inkscape:connector-curvature="0" />
    <path
       style="fill:none;stroke:#000000;stroke-width:3;stroke-linecap:round;stroke-linejoin:round;stroke-miterlimit:4;stroke-opacity:1;stroke-dasharray:none"
       d="m 393.3847,608.85314 c -0.31478,3.3674 1.42857,5.9838 1.42857,9.28571 0,1.73336 1.42857,6.73336 1.42857,5 0,-1.91274 -2.88998,-14.1708 -2.85714,-14.28571 1.04857,-3.67003 11.42857,-3.63307 11.42857,1.42857"
       id="path6977"
       inkscape:connector-curvature="0" />
    <path
       style="fill:none;stroke:#000000;stroke-width:3;stroke-linecap:round;stroke-linejoin:round;stroke-miterlimit:4;stroke-opacity:1;stroke-dasharray:none"
       d="m 411.95612,607.42457 c -1.78888,2.4168 -1.42857,4.41051 -1.42857,7.14285 0,2.61905 0,5.2381 0,7.85715 0,0.71428 0.71429,2.14285 0,2.14285 -0.61767,0 0.65355,-6.18562 0.71429,-6.42857 0.6263,-2.50522 -0.64507,-8.81119 0.71428,-10.71428 0.17386,-0.2434 4.36801,-2.10171 5.71429,-1.42858 7.39027,3.69514 1.95426,14.09712 5.71429,17.85715"
       id="path6979"
       inkscape:connector-curvature="0" />
    <path
       style="fill:none;stroke:#000000;stroke-width:3;stroke-linecap:round;stroke-linejoin:round;stroke-miterlimit:4;stroke-opacity:1;stroke-dasharray:none"
       d="m 437.67041,609.56742 c -1.50513,-4.05237 -11.48974,-4.34688 -6.42857,0.71429 0.13312,0.13312 2.08238,1.44585 2.14286,1.42857 1.53573,-0.43878 2.95677,-3.02882 4.28571,-2.14286 1.15515,0.77011 -1.70383,2.25435 -2.14286,3.57143 -0.47273,1.41821 4.07716,2.55997 2.85715,5 -1.72347,3.44694 -4.31432,4.62856 -7.85715,2.85714 -0.91497,-0.45748 -1.71309,-0.9988 -2.85714,-2.14285"
       id="path6981"
       inkscape:connector-curvature="0" />
    <path
       style="fill:none;stroke:#000000;stroke-width:3;stroke-linecap:round;stroke-linejoin:round;stroke-miterlimit:4;stroke-opacity:1;stroke-dasharray:none"
       d="m 443.3847,595.28171 c 11.62498,-8.19718 17.58352,-1.15496 8.57142,7.85714 -1.24029,1.2403 1.69907,9.11241 2.14286,10"
       id="path6983"
       inkscape:connector-curvature="0" />
    <path
       style="fill:none;stroke:#000000;stroke-width:3;stroke-linecap:round;stroke-linejoin:round;stroke-miterlimit:4;stroke-opacity:1;stroke-dasharray:none"
       d="m 454.81327,625.99599 c -0.95238,0.71429 -2.14286,3.09524 -2.85715,2.14286 -0.71428,-0.95238 1.90477,-1.42857 2.85715,-2.14286 z"
       id="path6985"
       inkscape:connector-curvature="0" />
    <path
       style="fill:none;stroke:#000000;stroke-width:3;stroke-linecap:round;stroke-linejoin:round;stroke-miterlimit:4;stroke-opacity:1;stroke-dasharray:none"
       d="m 404.91072,577.01609 c -0.94851,2.32095 13.91978,-7.08885 19.87384,-4.11183 1.76326,0.88164 13.46215,4.57645 15.762,3.42653 1.75762,-0.87881 3.03952,-2.54772 4.79714,-3.42653"
       id="path6998"
       inkscape:connector-curvature="0" />
  </g>
</svg>
