<?xml version="1.0" encoding="UTF-8" standalone="no"?>
<!-- Created with Inkscape (http://www.inkscape.org/) -->

<svg
   xmlns:dc="http://purl.org/dc/elements/1.1/"
   xmlns:cc="http://creativecommons.org/ns#"
   xmlns:rdf="http://www.w3.org/1999/02/22-rdf-syntax-ns#"
   xmlns:svg="http://www.w3.org/2000/svg"
   xmlns="http://www.w3.org/2000/svg"
   xmlns:sodipodi="http://sodipodi.sourceforge.net/DTD/sodipodi-0.dtd"
   xmlns:inkscape="http://www.inkscape.org/namespaces/inkscape"
   width="744.09448819"
   height="1052.3622047"
   id="svg2"
   version="1.1"
   inkscape:version="0.48.0 r9654"
   sodipodi:docname="sky_cake.svg"
   inkscape:export-filename="/home/substack/projects/nodeconf-dnode-2011/images/sky_cake.png"
   inkscape:export-xdpi="100"
   inkscape:export-ydpi="100">
  <defs
     id="defs4" />
  <sodipodi:namedview
     id="base"
     pagecolor="#ffffff"
     bordercolor="#666666"
     borderopacity="1.0"
     inkscape:pageopacity="0.0"
     inkscape:pageshadow="2"
     inkscape:zoom="0.5"
     inkscape:cx="410.40321"
     inkscape:cy="676.61915"
     inkscape:document-units="px"
     inkscape:current-layer="layer1"
     showgrid="false"
     inkscape:window-width="1022"
     inkscape:window-height="766"
     inkscape:window-x="0"
     inkscape:window-y="0"
     inkscape:window-maximized="0" />
  <metadata
     id="metadata7">
    <rdf:RDF>
      <cc:Work
         rdf:about="">
        <dc:format>image/svg+xml</dc:format>
        <dc:type
           rdf:resource="http://purl.org/dc/dcmitype/StillImage" />
        <dc:title></dc:title>
      </cc:Work>
    </rdf:RDF>
  </metadata>
  <g
     inkscape:label="Layer 1"
     inkscape:groupmode="layer"
     id="layer1">
    <path
       style="fill:#e9eaf9;fill-opacity:1;stroke:#000000;stroke-width:1px;stroke-linecap:butt;stroke-linejoin:miter;stroke-opacity:1"
       d="m 517.45262,221.22218 c -6.34517,-4.141 -11.29649,3.94192 -19.1808,9.93591 -1.57232,1.19535 -3.25451,2.65482 -4.14319,4.36851 -0.65003,1.25349 -0.0525,5.66083 -0.0841,5.70026 -0.31445,0.39222 -1.97648,0.0482 -2.46002,0.27071 -2.14421,0.9869 -3.9022,2.20418 -5.62627,3.82035 -1.97862,1.85479 -3.07934,4.81244 -4.18525,7.21864 -5.16045,11.22798 -1.96707,16.04636 5.63803,22.14356 0.92581,0.74227 -0.008,5.25336 0.34469,6.36445 1.13742,3.58782 4.7427,7.85195 8.15018,9.41805 2.95548,1.35836 16.13006,1.52601 19.24803,0.37164 0.51317,-0.19 4.19037,-1.44687 4.88138,-0.89288 0.0214,0.0172 1.13316,5.32071 2.14052,6.52252 4.57465,5.45765 9.07364,4.87061 15.5723,5.75576 3.56497,0.48557 8.04701,-3.64239 10.00152,-6.08026 0.18928,-0.23609 1.62568,-3.18262 2.1893,-2.73074 1.58088,1.26742 1.44349,3.97474 4.17178,5.58761 6.0077,3.55152 24.14995,5.37171 29.55558,0.30438 1.75464,-1.64483 3.79567,-3.78063 5.0428,-5.89026 0.85267,-1.44237 1.16429,-3.45058 1.37042,-3.70769 7.6099,0.43504 15.6975,3.98746 22.56899,-1.77227 1.21597,-1.01923 2.81109,-2.05092 3.51768,-3.58829 1.58249,-3.44315 1.37354,-8.63874 0.0908,-12.10338 -0.50284,-1.35816 -1.51263,-3.03473 -1.40236,-3.04686 0.57393,-0.0632 1.66101,0.70085 2.22461,0.82225 2.64027,0.56867 7.20763,-0.0717 9.41131,-1.74706 1.65524,-1.25839 2.33762,-3.25953 3.36299,-4.99403 5.71188,-9.66214 -0.96943,-19.36193 -8.48478,-25.38718 -4.85683,-3.89384 -10.84825,-7.35594 -17.21005,-7.70966 -2.10043,-0.11678 -3.6651,0.40334 -5.62292,0.61879 -0.15671,0.0172 -0.97538,0.83313 -0.97695,0.81889 -0.55508,-5.04407 -13.99759,-5.09117 -18.5418,-3.65055 -1.23635,0.39196 -9.07401,4.81216 -8.90855,6.31568 0.009,0.0823 1.15098,-2.31261 0.23877,-4.29454 -2.01649,-4.38117 -5.30976,-7.06141 -9.5559,-9.26334 -3.78326,-1.96191 -11.80901,-2.25681 -15.22759,0.60868 -2.33053,1.95346 -3.75372,5.64204 -4.02718,5.4228 -0.0626,-0.0502 -0.0773,-2.5746 -0.34807,-3.16289 -0.56203,-1.22111 -1.39661,-2.72183 -2.534,-3.6337 -2.639,-2.11576 -7.73152,-3.06174 -10.96837,-2.70553 -2.08116,0.22902 -3.91839,1.85395 -5.81965,2.06318 -0.45504,0.0501 -4.10916,0.17185 -4.21718,0.46409 -0.16846,0.45578 -0.13115,0.96293 -0.19673,1.4444 z"
       id="path4314"
       inkscape:connector-curvature="0" />
    <path
       style="fill:#f7f7f7;stroke:none;stroke-width:1px;stroke-linecap:butt;stroke-linejoin:miter;stroke-opacity:1;fill-opacity:1"
       d="m 484.7217,269.94853 c -5.97834,-4.27288 -6.43035,-12.30798 1.41421,-20.15254 2.12358,-2.12358 2.96095,-4.37517 4.5962,-6.01041 1.17266,-1.17267 4.29297,0.30322 5.3033,-0.70711 0.7313,-0.7313 -1.79242,-3.51088 -1.06066,-4.24264 0.5286,-0.5286 0.58518,-1.9994 1.06066,-2.47487 0.64087,-0.64088 7.61186,-7.69502 8.48528,-8.13173 2.20702,-1.10351 4.40703,-3.82603 6.71751,-4.5962 3.79869,-1.26622 8.02161,-2.55601 12.02082,-3.88908 2.58114,-0.86038 10.92927,0.72255 11.66726,0.35355 2.0648,-1.0324 3.77938,-3.68995 7.42462,-2.47487 7.21973,2.40657 14.65884,4.54859 21.92031,6.36396 4.30031,1.07507 8.82894,-4.07082 12.72792,-2.12132 2.28102,1.14051 5.03162,1.32365 7.42463,2.12132 1.41697,0.47232 9.89792,4.24106 10.25304,4.59619 0.65253,0.65253 1.09488,2.15554 1.76777,2.82843 0.47101,0.47101 1.90792,0.84726 2.47487,1.41421 1.08334,1.08334 -3.14275,0.48448 -4.59619,0 -3.50198,-1.16732 -7.64258,-0.67999 -11.31371,-1.41421 -2.22823,-0.44565 -4.67558,0.19662 -6.71751,0.70711 -1.44195,0.36048 -3.15425,-0.36049 -4.5962,0 -3.32016,0.83004 -6.11636,1.87372 -8.13172,3.88908 -0.50782,0.50782 -7.46466,-3.88908 -9.8995,-3.88908 -8.52228,0 -17.34086,-1.58262 -24.74874,2.12132 -2.53088,1.26544 -4.65669,-4.55587 -9.89949,-1.06066 -2.4235,1.61566 -5.68833,3.21345 -7.42462,4.94974 -0.86857,0.86857 -0.44791,2.56923 -1.06066,3.18198 -0.7553,0.7553 -2.33261,-1.20292 -2.82843,-0.7071 -1.3009,1.30089 -2.39353,3.29151 -3.18198,5.65685 -0.73935,2.21806 1.91553,8.69107 1.76777,8.83884 -0.13158,0.13157 -3.84176,-1.21378 -4.24264,-1.41422 -2.31822,-1.1591 -6.2832,3.374 -7.07107,4.94975 -0.72706,1.45411 1.09775,5.61977 0,6.71751 -0.39636,0.39637 -1.95349,-0.26069 -2.47488,0 -0.80425,0.40213 -0.69186,3.1515 -1.06066,3.88909 -0.55938,1.11877 0.85028,4.45303 0,5.3033 -0.26216,0.26216 -6.71751,-4.12374 -6.71751,-4.59619 0,-0.79057 1.41421,0.70711 2.12132,1.06066"
       id="path4318"
       inkscape:connector-curvature="0" />
    <path
       style="fill:#efecce;stroke:#000000;stroke-width:1px;stroke-linecap:butt;stroke-linejoin:miter;stroke-opacity:1;fill-opacity:1"
       d="m 541.5,197.61218 c -1.1153,-0.35967 -2.09801,0.30881 -3.25,1 -1.72497,1.03498 -3.77662,1.52663 -5.25,3 -3.2253,3.2253 -10.50918,13.30509 -11.25,17.75 -0.51167,3.07002 -0.94937,6.8544 -0.5,10 0.22415,1.56907 1.14754,3.09426 1.75,4.5 0.57084,1.33197 0.67916,2.91803 1.25,4.25 0.98,2.28666 2.21322,4.85537 3.5,7 1.02569,1.70949 2.75358,2.94197 4,4.5 7.87029,9.83786 25.34258,12.83149 37,10.5 6.68565,-1.33713 14.07056,-2.45094 18,-9 5.49245,-9.15407 2.66324,-20.6446 -2.5,-29.25 -2.0081,-3.34683 -6.22985,-4.97313 -8.5,-8 -6.55252,-8.73669 -23.05272,-18.48946 -34.25,-16.25 z"
       id="path4306"
       inkscape:connector-curvature="0" />
    <path
       style="fill:#b8b26f;stroke:#000000;stroke-width:1px;stroke-linecap:butt;stroke-linejoin:miter;stroke-opacity:1;fill-opacity:1"
       d="m 554.01816,212.67288 c -0.38657,0.8871 -0.35355,1.58836 -0.35355,2.47487 0,3.90948 0.35355,8.52128 0.35355,12.02082 0,0.27683 0.17642,1.59135 0,1.76777 -0.0717,0.0717 -0.81062,0.95714 -0.35355,1.41421 0.23178,0.23178 1.23708,0.17642 1.41421,0.35355 3.35989,3.35989 10.28696,5.69076 14.14214,9.54594 1.72393,1.72394 7.65796,2.70821 9.89949,4.94975 1.58235,1.58235 5.65969,1.41705 7.42463,3.18198 0.94016,0.94016 4.65463,2.17976 6.0104,3.53554 0.17678,0.17677 0.88389,-0.17678 1.06066,0 0.19139,0.19139 2.26515,2.33104 2.82843,1.76776 1.25162,-1.25162 2.125,-3.53921 3.53553,-4.94974 1.17109,-1.17109 1.26522,-7.83373 2.12132,-9.54595 0.72012,-1.44023 1.49862,-6.98666 0.35356,-8.13172 -1.30962,-1.30962 0.79986,-4.54982 -1.41422,-5.65686 -2.95242,-1.47621 -9.05274,-3.04234 -10.96015,-4.94975 -0.13776,-0.13775 -1.19846,0 -1.41421,0 -2.66286,0 -5.8866,-1.25509 -8.48529,-2.12132 -1.93066,-0.64355 -4.72603,-1.8976 -5.65685,-2.82842 -1.15673,-1.15673 -8.21134,-1.14027 -9.54594,-2.47488 -0.63686,-0.63685 -3.37411,0.0807 -4.24264,-0.35355 -0.8618,-0.4309 -1.61308,-0.98332 -2.47488,-1.41421 -1.44505,-0.72253 -3.3993,0.73954 -4.24264,1.41421 z"
       id="path4290"
       inkscape:connector-curvature="0" />
    <path
       style="fill:#d0c979;stroke:#000000;stroke-width:1px;stroke-linecap:butt;stroke-linejoin:miter;stroke-opacity:1;fill-opacity:1"
       d="m 555.5,220.23718 c 3.83621,-0.91237 7.71848,0.60924 11,2.25 0.76494,0.38247 1.98345,2.95035 2.25,3.75 0.45922,1.37767 1.41193,2.6392 0.875,4.25 -0.19814,0.59443 0.14097,1.60903 -0.25,2 -0.28716,0.28717 -0.97179,0.2218 -1.25,0.5 -0.26172,0.26172 -1.28647,0.58853 -1.625,0.25 -0.31718,-0.31718 -1.11419,-0.36419 -1.375,-0.625 -0.75493,-0.75493 -1.05438,-2.45656 -1.75,-3.5 -0.38179,-0.57269 -1.35022,-0.85022 -1.75,-1.25 -0.77696,-0.77696 -5.27365,-0.0237 -5.75,-0.5 -0.11735,-0.11735 -0.36131,-0.48631 -0.5,-0.625 -0.18051,-0.18051 -0.2618,-0.64859 -0.375,-0.875 -0.92264,-1.84528 -0.74248,-2.76504 0.125,-4.5 0.0478,-0.0957 0.2539,-1.125 0.375,-1.125 0.18634,0 0.16667,0.33333 0.25,0.5"
       id="path4308"
       inkscape:connector-curvature="0" />
    <path
       style="fill:#d0c979;stroke:#000000;stroke-width:1px;stroke-linecap:butt;stroke-linejoin:miter;stroke-opacity:1;fill-opacity:1"
       d="m 587.25,249.11218 c -1.0834,-1.04394 -1.375,-2.77582 -1.375,-4.25 0,-1.09164 0.0776,-2.57758 0.875,-3.375 0.62832,-0.62832 0.71729,-1.42114 1.625,-1.875 0.64681,-0.3234 1.00977,0.22119 1.625,0.375 1.99947,0.49987 4.13535,0.66639 4.75,3.125 0.42152,1.68608 -0.50428,4.50286 -2,5.5 -0.55306,0.36871 -1.35275,0.375 -2,0.375 -1.15857,0 -2.36165,-0.10267 -3.5,0.125 z"
       id="path4312"
       inkscape:connector-curvature="0" />
    <path
       style="fill:#efecce;fill-opacity:1;stroke:#000000;stroke-width:1px;stroke-linecap:butt;stroke-linejoin:miter;stroke-opacity:1"
       d="m 605.625,218.6875 c -0.90471,2.98923 -1.95277,5.93184 -3.1875,8.8125 l 4.45619,-0.97768 c -0.68371,1.68166 -0.4543,5.18817 -1.14369,6.88388 -0.34065,0.83795 0.0963,3.35029 -0.40625,3.9375 -0.8421,0.98392 -0.36597,5.04571 -0.96875,5.75 -1.96634,2.29749 -2.45229,5.95611 -4.65625,8.53125 -0.72312,0.84489 -0.68603,2.06698 -1.5625,2.59375 -3.42973,2.06129 -8.16026,4.14647 -10.46875,6.84375 -0.68107,0.79573 -3.16352,0.24173 -3.8125,1 -2.1719,2.53768 -8.26105,3.48923 -9.875,5.375 -0.71896,0.84004 -11.24845,1.97209 -13.21875,3.15625 -0.41571,0.24988 -12.81433,0.27875 -13.5,0 -0.97648,-0.39699 -2.52352,0.64698 -3.5,0.25 -1.54783,-0.62926 -8.81509,-1.59624 -9.03125,-1.78125 -2.08235,-1.7822 -8.31629,-2.52406 -10.625,-4.5 -0.41512,-0.35528 -0.79171,-0.99329 -1.5,-1.28125 -1.32598,-0.53907 -3.89774,-1.02058 -4.75,-1.75 -2.47751,-2.12039 -6.00716,-5.79498 -8.4375,-7.875 -1.87999,-1.60901 -2.8737,-10.3432 -3.3125,-10.71875 -1.20875,-1.0345 -3.26419,-9.49615 -4.53125,-12.78125 l 3.90625,-0.0937 -1.84375,-2.53125 c 1.81278,2.20624 2.57959,3.31677 4.34375,5.08093 0.375,0.375 0.375,1.125 0.75,1.5 0.75681,0.75681 1.86185,1.11185 2.5,1.75 0.93987,0.93987 0.9484,2.1984 1.75,3 0.75248,0.75249 1.72897,1.72897 2.5,2.5 0.81674,0.81674 2.40146,1.15146 3,1.75 0.45877,0.45877 1.70303,0.20304 2.25,0.75 1.49548,1.49548 4.42887,2.42887 6.25,4.25 0.59806,0.59806 2.87752,0.62752 3.5,1.25 0.0513,0.0513 5.8011,1.15055 6.5,1.5 0.58085,0.29043 2.73408,-0.75796 3.75,-0.25 0.18346,0.0917 0.81958,0.5 1,0.5 0.5069,0 1.14157,-0.60843 1.5,-0.25 0.40592,0.40592 12.54433,0.47784 13.5,0 1.20758,-0.60379 3.50529,0.25 4.75,0.25 2.04796,0 9.18099,-1.93099 10,-2.75 0.58088,-0.58088 11.2581,-2.0081 13,-3.75 0.54424,-0.54424 2.44841,-0.19841 3,-0.75 1.00251,-1.00251 2.71128,-0.96128 3.75,-2 0.9046,-0.9046 1.50053,-1.75026 3,-2.5 0.31563,-0.15781 1.26,0.24 1.5,0 0.14919,-0.14918 0.5,-1.18826 0.5,-1.25 0,-2.4948 2.22253,-3.22252 3.5,-4.5 0.95391,-0.95391 3.5,-6.47594 3.5,-7.75 0,-0.68954 3.06689,-6.65576 2.375,-7.17468 -0.32066,-0.2405 -0.75,0.28312 -1.125,0.42468"
       id="path4288"
       inkscape:connector-curvature="0"
       sodipodi:nodetypes="cccssssscsccsscsssscccc" />
    <path
       style="fill:#d0c979;stroke:#000000;stroke-width:1px;stroke-linecap:butt;stroke-linejoin:miter;stroke-opacity:1;fill-opacity:1"
       d="m 578.25,224.23718 c -0.59552,-1.76147 -6.34098,-1.60206 -7.5,1.875 -0.17108,0.51325 2.34644,5.58693 2.75,6.125 0.57273,0.76364 0.7963,1.6713 1.5,2.375 0.54799,0.54799 1.3857,0.89639 1.75,1.625 0.37944,0.75889 0.534,3.517 1.25,3.875 1.56264,0.78132 8.28667,-1.04042 10.125,-1.5 0.78102,-0.19525 1.48666,-0.82444 2.125,-1.25 0.40339,-0.26892 0.67801,-0.98101 0.875,-1.375 1.21612,-2.43224 -0.67552,-3.69042 -2.625,-5.25 -0.70455,-0.56364 -1.18183,-1.48012 -1.875,-2 -0.86624,-0.64968 -1.62676,-1.34507 -2.5,-2 -0.88705,-0.66529 -1.96958,-0.79729 -2.875,-1.25 -0.58335,-0.29167 -0.58108,-1.875 -1.625,-1.875 -0.77869,0 -1.20259,-0.23707 -1.375,0.625 z"
       id="path4310"
       inkscape:connector-curvature="0" />
    <path
       style="fill:#e3d975;stroke:#000000;stroke-width:1px;stroke-linecap:butt;stroke-linejoin:miter;stroke-opacity:1;fill-opacity:1"
       d="M 553.75 184.0625 C 553.47398 184.0673 553.21426 184.16074 553 184.375 C 552.70236 184.67264 550.58192 186.95692 549.5 185.875 C 547.99337 184.36838 537.37074 185.50427 535 187.875 C 533.75564 189.11936 532.74436 185.63064 531.5 186.875 C 529.32084 189.05416 529.70551 186.1695 526.5 189.375 C 525.81619 190.05881 524.31513 188.05987 523.5 188.875 C 523.13561 189.23939 522.99316 190.38184 522.5 190.875 C 522.12122 191.25378 520.40625 188.96875 519.5 189.875 C 518.31767 191.05733 515.17593 192.19908 514 193.375 C 512.81735 194.55765 510.89665 199.92668 510 200.375 C 509.14288 200.80356 507.78636 199.08864 507 199.875 C 506.2365 200.63851 508 203.17744 508 203.875 C 508 204.56001 506.36054 204.01446 506 204.375 C 505.53059 204.84441 504.05474 205.82026 503.5 206.375 C 503.28205 206.59295 504.69872 207.67628 504 208.375 C 503.58333 208.79167 502.41667 208.4583 502 208.875 C 501.33333 209.54167 502.66667 212.20834 502 212.875 C 501.7645 213.1105 498.8358 214.7108 500 215.875 C 500.0716 215.9466 501.07873 217.375 501 217.375 C 498.8655 217.375 500 220.55804 500 222.875 C 499.65801 222.12142 496.16888 226.54388 498 228.375 C 498.5 228.875 499.5 228.875 500 229.375 C 500.35743 229.73243 498.89062 232.65625 499.5 233.875 C 500.35977 235.59454 502.32583 235.02667 503 236.375 C 503.45066 237.27632 502.80471 239.67971 503.5 240.375 C 504.97581 241.85082 507.21536 239.59037 508.5 240.875 C 509.19526 241.57026 508.10977 243.98477 509 244.875 C 510.26228 246.13728 514.74547 245.12047 515 245.375 C 515.68278 246.05779 515.31722 248.69222 516 249.375 C 516.98787 250.36287 519.58719 248.96219 520 249.375 C 520.51536 249.89036 519.9846 252.35965 520.5 252.875 C 521.77371 254.14871 524.73953 251.875 525.5 251.875 C 525.83333 251.875 525.35093 252.57686 525.5 252.875 C 525.87346 253.62191 526.62862 254.93931 527.5 255.375 C 529.00201 256.12601 533.29065 254.66565 533.5 254.875 C 534.84159 256.21659 534.13901 257.44451 536 258.375 C 539.5085 260.12925 540.58058 256.875 542 256.875 C 542.80316 256.875 543.92175 259.33588 545 259.875 C 546.48914 260.61957 548.99178 259.38322 549.5 258.875 C 550.63067 257.74433 552.20594 260.52203 553.5 259.875 C 554.68113 259.28444 555.33824 259.03676 556 258.375 C 557.00931 257.3657 559.27423 260.60078 560.5 259.375 C 561.12349 258.75152 561.65591 257.2191 562.5 256.375 C 562.68487 256.19013 565.73366 259.14135 566.5 258.375 C 567.42445 257.45055 568.48734 256.93114 569.5625 256.375 C 567.09588 247.63208 566.72645 238.10145 561.5 232.875 C 560.48221 231.85721 560.62303 228.99803 559.5 227.875 C 556.67628 225.05128 558.13495 219.00995 555.5 216.375 C 555.19362 216.06863 554.72498 213.15257 554.5625 212.46875 C 554.53158 212.4455 554.5 212.42917 554.5 212.375 C 554.5 212.24957 554.52635 212.3166 554.5625 212.46875 C 554.72184 212.58858 555.22084 212.375 555.5 212.375 C 556.73911 212.375 559.72289 214.09789 560.5 214.875 C 560.75 215.125 561.75 214.625 562 214.875 C 563.58007 216.45507 574.64884 218.02384 576 219.375 C 581.85949 225.23449 596.81447 230.37694 600.5 231.375 C 601.45209 232.14847 603.58392 234.03664 605.8125 236.0625 C 605.91881 234.48371 606.04956 232.82544 606.5 232.375 C 607.30366 231.57135 608.66716 232.54069 609.5 230.875 C 610.63127 228.61247 610.5 225.02389 610.5 223.375 C 610.5 222.87578 612.59458 220.06417 612 218.875 C 611.32943 217.53385 610.93321 216.80822 610 215.875 C 609.18225 215.05726 610.48137 211.85637 609.5 210.875 C 608.45394 209.82894 606.72231 208.59732 605.5 207.375 C 604.91339 206.78839 604.62857 205.00358 604 204.375 C 603.75 204.125 602.75 204.625 602.5 204.375 C 601.60441 203.47941 602.08069 200.95569 601 199.875 C 600.20526 199.08027 597.05475 198.42976 596.5 197.875 C 595.62393 196.99894 595.14131 194.51631 594 193.375 C 593.1347 192.50971 591.8653 194.2403 591 193.375 C 590.1549 192.5299 589.57161 190.44661 588.5 189.375 C 588.18935 189.06435 584.65063 190.52563 584.5 190.375 C 583.83333 189.70834 583.66667 188.54167 583 187.875 C 582.06424 186.93925 580.09039 188.92019 579 188.375 C 577.98656 187.86828 578.02754 187.40254 577.5 186.875 C 575.899 185.274 574.90493 188.27993 571.5 184.875 C 569.7786 183.15361 565.34798 188.22298 563.5 186.375 C 560.0294 182.9044 560.27401 187.51201 557 185.875 C 556.53933 185.64466 554.94611 184.04172 553.75 184.0625 z "
       id="path4194" />
    <path
       style="fill:#d1c765;fill-opacity:1;stroke:none"
       d="m 601.5,204.71875 c -1.06853,0.14724 1.46722,6.59069 1.5,6.65625 0.42803,0.85606 -2.11053,2.61053 -2.5,3 -0.67618,0.67618 1.84334,5.31333 1,7 -1.38603,2.77205 -4.33957,2 -7.5,2 -0.65634,0 -1.86039,-0.76128 -2.4375,-1.34375 0.045,1.33263 0.68087,3.64173 0.1875,5.1875 4.17111,1.70944 7.1533,2.72386 8.75,3.15625 0.84263,0.68455 2.63071,2.00285 4.5625,3.75 -0.17813,-1.42821 -1.07652,-1.72196 -0.5625,-2.75 0.74,-1.48 2.06031,-1.5603 3,-2.5 0.86276,-0.86276 -0.21588,-3.78412 0.5,-4.5 4.90589,-4.90588 -3.20919,-16.70919 -5.5,-19 -0.48416,-0.48416 -0.80212,-0.68352 -1,-0.65625 z m -9.9375,17.3125 c -0.0129,-0.38136 -0.0289,-0.65625 -0.0625,-0.65625 -0.41085,0 -0.29876,0.29164 0.0625,0.65625 z m -86.03125,3.90625 c -1.19381,0.25119 1.08572,3.82053 -0.0312,4.9375 -1.13377,1.13377 -2.85536,-0.64464 -4,0.5 -0.75831,0.75831 3.08446,3.58446 3.5,4 0.36127,0.36127 -1.30029,2.19971 -0.5,3 1.08471,1.08472 3.59681,-1 4.5,-1 0.89753,0 1.63465,1.86535 1,2.5 -3.39762,3.39763 4.49204,1.99204 4.5,2 0.91667,0.91667 1.08333,2.58334 2,3.5 0.33333,0.33334 0.16667,1.16667 0.5,1.5 0.50722,0.50722 2.04345,-0.95655 3,0 0.62137,0.62137 -0.68101,1.9095 0.5,2.5 0.94887,0.47444 3.77878,-0.72121 4.5,0 0.33333,0.33334 -0.33333,1.66667 0,2 1.18727,1.18727 3.8226,-1.6774 4.5,-1 1.22017,1.22017 -0.48019,4 2,4 1.90833,0 4.92639,-1.57361 5,-1.5 0.41667,0.41667 -0.41667,2.08334 0,2.5 0.58333,0.58334 1.41667,0.91667 2,1.5 0.9328,0.9328 4.72463,-1.5 5.5,-1.5 0.97183,0 1.59768,1.13908 2.5,1.5 3.74221,3.33538 1.34908,-0.5 5.5,-0.5 0.4714,0 0.66667,0.66667 1,1 1.36924,1.36924 5.75388,-2.75388 6,-3 0.32883,-0.32883 0.89865,1.39865 1,1.5 0.36087,0.36088 3.46864,-1.5 3.5,-1.5 2.07481,0 0.16043,3.83957 2.75,1.25 0.27751,-0.27751 0.53686,2.32448 1.8125,-0.46875 -1.24827,-4.72312 -1.98748,-8.8409 -3.25,-13.125 -2.70523,0.33392 -5.72514,-0.74361 -5.8125,-0.65625 -0.63718,0.63718 -1.12013,2.62013 -2,3.5 -2.48614,2.48615 -7.36237,-1.68118 -9,-2.5 -2.21877,-1.10938 -9.40243,2.59757 -9.5,2.5 -3.2938,-3.2938 -5.7838,-1.1419 -7.5,-2 -2.06383,-1.03191 -3.66843,-3.08421 -5.5,-4 -1.2,-0.6 -3.3,0.6 -4.5,0 -1.56959,-0.78479 -2.05818,-1.55818 -3,-2.5 -0.91331,-0.91331 -3.98064,-0.48064 -5,-1.5 -0.59108,-0.59108 0.27256,-2.72744 -0.5,-3.5 -0.49316,-0.49316 -2.13561,-0.13561 -2.5,-0.5 -1.50451,-1.5045 -0.82606,-3.41303 -3,-4.5 -0.72939,-0.3647 -1.19326,-0.49547 -1.46875,-0.4375 z"
       id="path4196"
       inkscape:connector-curvature="0"
       sodipodi:nodetypes="cssssccccssssccsccssssssscssscsssscsscssssssccssssssssssssc" />
    <g
       id="g4180"
       transform="translate(-21.870058,18.627417)">
      <path
         inkscape:connector-curvature="0"
         id="path4174"
         d="m 198,159.36218 c -2.46309,-2.28691 -12.85913,-5.07043 -22,-0.5 -2.117,1.0585 -0.47447,4.5 -0.5,4.5 -0.43056,0 -3.39199,-2.19599 -4,-2.5 -0.99917,-0.49958 -2.61803,0.20601 -3.5,0.5 -3.93877,1.31293 -7.93883,1.37766 -10,5.5 -0.67587,1.35175 -0.69441,2.69441 -1.5,3.5 -0.0719,0.0719 -6.53423,-0.23288 -8,0.5 -7.75263,3.87632 -4.82204,7.14409 -8,13.5 -0.44811,0.89623 1.2044,0.2956 0.5,1 -0.64092,0.64092 -3.15682,-0.42159 -4,0 -2.34834,1.17417 -8.02466,4.07399 -9,7 -1.89679,5.69039 -3.78229,9.82657 0,15.5 0.95687,1.4353 2.21695,1.21696 3,2 0.81768,0.81768 -1.65183,4.80365 -2,5.5 -4.18204,8.36407 -2.6404,13.8596 3.5,20 0.3511,0.3511 -2.12863,2.12863 -2.5,2.5 -1.71411,1.71411 -2.41501,4.16004 -3,6.5 -1.50487,6.01948 2.72134,10.72135 6.5,14.5 4.26593,4.26593 19.82352,-0.0882 20,0 1.77653,0.88827 4.39589,6.26393 7,8 8.45074,5.63383 20.28895,0.90829 27.5,-4.5 2.64201,-1.98151 4.92612,-5.92612 7,-8 0.3725,-0.3725 1.91143,2.70572 2.5,3 3.99039,1.9952 9.24685,4.18829 14,3 5.38934,-1.34733 10.55186,-6.60371 13,-11.5 0.29787,-0.59574 0.54847,-2.04847 1,-2.5 0.9534,-0.9534 5.05912,3.18637 6,3.5 6.57697,2.19232 13.25931,1.80552 19,-2.5 3.66392,-2.74794 6.16978,-6.00933 7.5,-10 0.38883,-1.16649 0.0995,-3.09954 1,-4 0.88589,-0.88589 3.72211,0.92597 5,0.5 4.69209,-1.56403 9.00925,-7.54626 10,-12.5 1.65167,-8.25834 -1.07287,-14.79146 -3,-22.5 -0.21755,-0.8702 -2,-3.211 -2,-3.5 0,-1.31946 -0.21282,-3.71282 -2,-5.5 -5.62174,-5.62174 -12.28125,-8.40625 -19.5,-11.5 -4.67412,-2.00319 -10.36643,-4 -15.5,-4 -1.71684,0 -4.81627,-0.56124 -6.5,0 -0.97598,0.32533 -2.24129,3 -2.5,3 -0.60093,0 -0.57508,-1.07508 -1,-1.5 -2.38092,-2.38091 -4.16031,-4.87023 -7,-7 -0.18848,-0.14136 -13.3328,-7.3328 -10,-4 0.53734,0.53734 -0.0502,-2.05024 -0.5,-2.5 -1.27649,-1.27649 -4.01423,-2.00569 -6.5,-3 z"
         style="fill:#e9eaf9;fill-opacity:1;stroke:#000000;stroke-width:1px;stroke-linecap:butt;stroke-linejoin:miter;stroke-opacity:1" />
      <path
         inkscape:connector-curvature="0"
         id="path4176"
         d="m 128,248.36218 c -0.28734,0.98844 -0.12637,-7.37363 2,-9.5 1.12881,-1.12881 5,-2.03225 5,-3.5 0,-1.0896 -4.34464,-4.34464 -5,-5 -0.92859,-0.92859 -1,-5.9185 -1,-7 0,-2.30122 0.61193,-9.11193 2,-10.5 0.46635,-0.46635 3.07733,-2.34533 2.5,-3.5 -1.28089,-2.56178 -6.4978,-7.50439 -4.5,-11.5 1.35635,-2.71269 2.69485,-7.09742 5.5,-8.5 1.40754,-0.70377 7.68048,-0.68048 8.5,-1.5 0.25618,-0.25618 2.43106,-9.43106 4.5,-11.5 1.96925,-1.96925 9.76368,-2.26368 10,-2.5 2.31854,-2.31853 3.10125,-5.60125 5.5,-8 1.20467,-1.20467 9.18692,-2.81308 10.5,-1.5 0.05,0.05 0.38333,1.11667 1,0.5 0.83333,-0.83333 2.66667,-0.66666 3.5,-1.5 1.07152,-1.07152 1.14977,-3.14977 2.5,-4.5 0.30195,-0.30194 2.52584,0 3,0 1.36952,0 7.59979,-0.9002 8.5,0 2.88841,2.88841 13.10838,5.60838 15.5,8 0.86165,0.86165 0.59915,3.09915 1.5,4 0.37268,0.37268 1.02705,1.5 0.5,1.5 -1.34371,0 -2.29815,-1.39907 -3.5,-2 -1.21647,-0.60823 -14.23476,1.44131 -18,0.5 -1.82245,-0.45561 -9.06676,-1.93324 -10.5,-0.5 -0.79763,0.79763 -0.85123,1.42562 -2,2 -1.95895,0.97948 -4.27863,-3.22136 -6.5,-1 -1.66679,1.6668 -2.88161,5.38162 -4,6.5 -1.96571,1.96571 -10,-0.86447 -10,6 0,0.17362 -3.76884,-0.23116 -4,0 -1.17654,1.17654 -3.60116,3.20232 -4.5,5 -0.94048,1.88096 1.94153,6.05847 0.5,7.5 -0.96718,0.96718 -3.67466,1.17466 -5,2.5 -1.44685,1.44685 -3.20017,2.70017 -4.5,4 -2.41007,2.41008 0,6.93879 0,9.5 0,1.70235 -3,2.32619 -3,3 0,5.69678 3.31134,14.31134 6.5,17.5 1.9054,1.9054 -13.6203,12.39851 -13,15.5 0.16667,0.83334 1.66667,-0.33333 2.5,-0.5"
         style="fill:#f7f7f7;fill-opacity:1;stroke:none" />
      <path
         inkscape:connector-curvature="0"
         id="path4178"
         d="m 141.5,257.86218 c 0.66667,-0.16666 1.83333,-1.16666 2,-0.5 0.16667,0.66667 -2.68718,0.5 -2,0.5 1.77586,0 11.16935,-2.83065 11.5,-2.5 1.17057,1.17057 2.78293,2.78293 4,4 0.41667,0.41667 0.0833,1.58334 0.5,2 1.30543,1.30544 3.37342,2.37342 5,4 1.19834,1.19834 4.9757,0.23785 6.5,1 1.31941,0.65971 5.01811,1.99095 7,1 4.60765,-2.30382 8.38798,-5.88798 11.5,-9 1.09614,-1.09613 3.27785,-1.27784 4.5,-2.5 1.01861,-1.01861 1.94146,-3.22073 3.5,-4 1.40879,-0.70439 3.96221,2.96221 4.5,3.5 0.47654,0.47654 15.36438,0.63563 16,0 2.94841,-2.94841 4.95623,-6.91246 7,-11 0.26874,-0.53748 0.39907,-1.5 1,-1.5 1.67835,0 4.24408,3.24408 5,4 1.08333,1.08334 3.41667,0.91667 4.5,2 0.60839,0.60839 5.044,0 6,0 10.06288,0 9.25473,-3.25472 14,-8 0.67242,-0.67242 0.75245,-2.75245 1.5,-3.5 0.41667,-0.41666 -0.41667,-2.08333 0,-2.5 0.56979,-0.56979 1.5,-3.0913 1.5,-4 0,-1.99082 3.88564,-0.5 4.5,-0.5 5.74278,0 6.39724,-1.39724 9,-4 3.33022,-3.33022 1.9345,-24.5655 -1,-27.5 -1.45833,-1.45832 -2.75932,-3.75931 -4.5,-5.5 -1.59139,-1.59139 -3.82546,-3.5 -3.5,-3.5 1.34371,0 -1.10093,2.79815 -0.5,4 0.2082,0.4164 1.46308,9.03693 0.5,10 -0.49109,0.4911 -1,2.1342 -1,3 0,3.14754 -2.46552,7.98276 -5.5,9.5 -1.01309,0.50655 -2.6249,0.1249 -3.5,1 -2.85847,2.85848 0.12413,7.75175 -1.5,11 -1.60444,3.20888 -2.91948,5.91948 -5,8 -0.62857,0.62858 -3.41339,-0.0866 -4,0.5 -0.91274,0.91274 -3.63275,1.81638 -5,2.5 -1.55174,0.77587 -8.38368,-1.88368 -9.5,-3 -0.75894,-0.75894 -1.89553,-3.44776 -3,-4 -0.15385,-0.0769 -1.34615,-0.0769 -1.5,0 -3.70856,1.85428 -6.22397,5.36199 -10.5,7.5 -3.2,1.6 -8.8,-1.6 -12,0 -1.98155,0.99078 -4.24647,1.37324 -6.5,2.5 -0.52457,0.26229 -2.10092,-0.39908 -2.5,0 -1.73633,1.73634 -2.47519,4.9752 -4.5,7 -3.42312,3.42312 -12.98392,0.49196 -17,2.5 -3.89873,1.94937 -13.38594,-11.61406 -14.5,-10.5 -1.51552,1.51552 -1.75345,3.75345 -3.5,5.5 -1.52024,1.52024 -3.24778,2.74779 -5,4.5 -1.1748,1.17481 -5.1135,0.6135 -6.5,2 -0.3551,0.3551 -7.5,0.9654 -7.5,1.5 0,0.69142 8.73559,3 10,3 z"
         style="fill:#d5d9ff;fill-opacity:1;stroke:none" />
    </g>
    <g
       id="g4163"
       transform="translate(-27.370058,-23.872583)">
      <path
         inkscape:connector-curvature="0"
         id="path4047"
         d="m 167,227.36218 c -6.3931,0.50018 -13.23184,7.23184 -18,12 -1.05347,1.05347 -0.88459,2.76918 -1.5,4 -1.41323,2.82645 -0.90698,5.03493 -1.5,8 -0.9516,4.75801 0.55274,11.52637 5.5,14 11.05747,5.52874 40.6855,4.73588 51,-3 7.23173,-5.4238 9.89957,-16.15064 5,-23.5 -1.7061,-2.55915 -5.05578,-4.66683 -7.5,-6.5 -1.80344,-1.35258 -3.49462,-3.33154 -5.5,-4 -7.82107,-2.60702 -18.76831,-2.74634 -27.5,-1 z"
         style="fill:#dda670;fill-opacity:1;stroke:#000000;stroke-width:1px;stroke-linecap:butt;stroke-linejoin:miter;stroke-opacity:1" />
      <path
         inkscape:connector-curvature="0"
         id="path4128"
         d="m 148,249.36218 c -0.33333,0.66667 -0.33333,2.33334 -1,2 -0.66667,-0.33333 1,-2.74535 1,-2 0,1.05409 -1,1.94591 -1,3 0,12.08965 11.32397,15.5 22.5,15.5 1.94325,0 6.98915,0.0109 8,-1 0.39086,-0.39086 0.86983,0.43491 1,0.5 0.96775,0.48388 2.77004,-0.13502 3.5,-0.5 0.83742,-0.41871 1.85036,1.14964 2.5,0.5 2.18393,-2.18392 6.40299,-1.90299 9,-4.5 1.69508,-1.69508 7.22765,-1.72765 9,-3.5 2.27581,-2.27581 4.69823,-5.89646 6.5,-9.5 1.55647,-3.11293 -7.71308,-21.28691 -10,-19 -0.46048,0.46049 5.59944,14.90057 4,16.5 -1.16667,1.16667 -4.83333,-0.16666 -6,1 -1.08056,1.08057 1.69167,4.30833 0.5,5.5 -1.90466,1.90467 -9.06665,-4.93334 -11.5,-2.5 -1.51416,1.51416 2.35283,4.57359 -0.5,6 -2.61638,1.30819 -5.02549,-1.23725 -7.5,0 -1.02244,0.51122 -1.40697,1.90697 -2,2.5 -0.29464,0.29465 -5.39396,-1.19698 -6,-1.5 -2.8097,-1.40485 -11.87132,0.12868 -12.5,-0.5 -0.97924,-0.97924 -5.85537,-3.35537 -6.5,-4 -1.03473,-1.03473 -1.76704,-2.9588 -3,-4.5 z"
         style="fill:#b88758;fill-opacity:1;stroke:none" />
      <path
         inkscape:connector-curvature="0"
         id="path4063"
         d="m 159.5,261.36218 c -1.52096,-1.08766 -1.70767,-0.79233 -4,1.5 -2.43588,2.43588 7.77926,3.22074 9.5,1.5 2.77813,-2.77812 -3.08609,-3.96556 -5.5,-3 z"
         style="fill:#8e6135;fill-opacity:1;stroke:#000000;stroke-width:1px;stroke-linecap:butt;stroke-linejoin:miter;stroke-opacity:1" />
      <path
         inkscape:connector-curvature="0"
         id="path4065"
         d="m 179.5,251.86218 c -6.42441,1.30646 5.08072,-2.0269 -2.5,0.5 -3.75814,1.25272 -1.45851,9.72926 4,7 3.61822,-1.80911 5.04125,-8.80825 -1.5,-7.5 z"
         style="fill:#8e6135;fill-opacity:1;stroke:#000000;stroke-width:1px;stroke-linecap:butt;stroke-linejoin:miter;stroke-opacity:1" />
      <path
         inkscape:connector-curvature="0"
         id="path4067"
         d="m 157,238.86218 c -0.66667,0.16667 -1.83333,1.16667 -2,0.5 -0.16667,-0.66666 2.48591,-0.98591 2,-0.5 -1.00755,1.00755 -3.08731,1.58731 -4,2.5 -2.47884,2.47884 2.46305,5.76848 5,4.5 4.4958,-2.2479 6.26057,-7 -1,-7 z"
         style="fill:#8e6135;fill-opacity:1;stroke:#000000;stroke-width:1px;stroke-linecap:butt;stroke-linejoin:miter;stroke-opacity:1" />
      <path
         inkscape:connector-curvature="0"
         id="path4069"
         d="m 174.5,234.86218 c -0.66667,0.5 -1.5,2.16667 -2,1.5 -0.5,-0.66666 2,-2.33333 2,-1.5 0,1.37046 -2,1.62954 -2,3 0,4.28789 4.76776,2.73224 6.5,1 0.35386,-0.35386 0.83444,-6.13378 -4.5,-4 z"
         style="fill:#8e6135;fill-opacity:1;stroke:#000000;stroke-width:1px;stroke-linecap:butt;stroke-linejoin:miter;stroke-opacity:1" />
      <path
         inkscape:connector-curvature="0"
         id="path4071"
         d="m 199,256.86218 c -1.65305,-0.35931 -4,1.18227 -4,2.5 0,8.34127 10.9625,1.6775 4,-2.5 z"
         style="fill:#8e6135;fill-opacity:1;stroke:#000000;stroke-width:1px;stroke-linecap:butt;stroke-linejoin:miter;stroke-opacity:1" />
      <path
         inkscape:connector-curvature="0"
         id="path4084"
         d="m 194,245.86218 c -0.66667,0 -2,0.66667 -2,0 0,-0.66666 2.29814,-0.59628 2,0 -1.0412,2.08241 -3.5,0.92312 -3.5,3.5 0,4.9146 14.9235,1.0694 3.5,-3.5 z"
         style="fill:#8e6135;fill-opacity:1;stroke:#000000;stroke-width:1px;stroke-linecap:butt;stroke-linejoin:miter;stroke-opacity:1" />
      <path
         inkscape:connector-curvature="0"
         id="path4086"
         d="m 193.5,230.86218 c -0.66667,0.33334 -1.66667,1.66667 -2,1 -0.33333,-0.66666 2.52705,-1.52704 2,-1 -0.68718,0.68719 -1.74113,0.89291 -2.5,1.5 -0.99177,0.79342 0,1.47765 0,2 0,6.36046 10.56879,-0.27248 2.5,-3.5 z"
         style="fill:#8e6135;fill-opacity:1;stroke:#000000;stroke-width:1px;stroke-linecap:butt;stroke-linejoin:miter;stroke-opacity:1" />
    </g>
    <g
       id="g4154"
       transform="translate(-10.870058,24.127417)">
      <path
         inkscape:connector-curvature="0"
         id="path4045"
         d="m 213.5,168.86218 c -3.39838,-2.79757 -15.49187,3.7378 -21,12 -5.35442,8.03164 -7.2843,16.91178 1.5,23.5 4.39725,3.29794 7.47126,7.29425 13.5,8.5 13.69199,2.7384 33.75058,-0.75174 38.5,-15 2.8885,-8.6655 -2.52892,-19.50964 -11.5,-22.5 -1.42677,-0.47559 -2.85294,-2 -4.5,-2 -6.6922,0 -10.37568,-3.27513 -16.5,-4.5 z"
         style="fill:#dda670;fill-opacity:1;stroke:#000000;stroke-width:1px;stroke-linecap:butt;stroke-linejoin:miter;stroke-opacity:1" />
      <path
         inkscape:connector-curvature="0"
         id="path4124"
         d="m 190.5,198.86218 c 1.30121,1.21588 1.33453,0.83453 4,3.5 0.79287,0.79287 2.70713,2.70713 3.5,3.5 1.16868,1.16868 8.80412,2.80412 10,4 0.30304,0.30304 4.7511,0.87555 6,1.5 1.67789,0.83895 4.75162,-0.37581 6,-1 2.15497,-1.07748 4.11003,1.38997 5.5,0 2.34846,-2.34846 7.48295,-1.49147 10.5,-3 4.05928,-2.02964 7.51097,-4.52193 9.5,-8.5 0.46667,-0.93333 -0.46667,-2.56666 0,-3.5 0.93443,-1.86886 1.53166,-4.93668 0.5,-7 -1.77501,-3.55002 -6.56188,-8.53094 -11.5,-11 -1.84444,-0.92222 -4.48765,-1.98765 -5.5,-3 -2.01534,-2.01534 -9,-1.71084 -9,-2 0,-1.26929 2.60247,0.60247 3.5,1.5 1.83529,1.83529 6,3.0173 6,5.5 0,0.71969 -1.81034,1.37931 -1.5,2 1.31686,2.63372 6.5,2.61812 6.5,6 0,2.3115 -0.41276,2.91276 -1.5,4 -0.67823,0.67823 -3.7286,-0.7286 -3,0 1.96016,1.96016 4.55996,5.44004 2,8 -1.24618,1.24619 -5.33915,0.33915 -6.5,1.5 -0.0726,0.0726 0.062,2.93803 -1,4 -0.70533,0.70533 -3.80859,-0.5 -4.5,-0.5 -4.07162,0 -11.42168,0.57833 -14,-2 -0.43219,-0.43219 -1.37564,0.5 -2,0.5 -4.86847,0 -9.87427,-1.09941 -13.5,-4 z"
         style="fill:#b88758;fill-opacity:1;stroke:none" />
      <path
         inkscape:connector-curvature="0"
         id="path4053"
         d="m 224.5,198.36218 c -0.66667,0.5 -1.5,2.16667 -2,1.5 -0.5,-0.66666 2,-2.33333 2,-1.5 0,1.37046 -2,1.62954 -2,3 0,2.59757 3.92888,4.57112 6,2.5 1.70879,-1.70879 -0.16958,-5.16958 -1,-6 -0.71686,-0.71686 -2.00589,0.30118 -3,0.5 z"
         style="fill:#8e6135;fill-opacity:1;stroke:#000000;stroke-width:1px;stroke-linecap:butt;stroke-linejoin:miter;stroke-opacity:1" />
      <path
         inkscape:connector-curvature="0"
         id="path4055"
         d="m 229.5,180.86218 c -0.66667,0.33334 -1.66667,1.66667 -2,1 -0.33333,-0.66666 2.2357,-1.7071 2,-1 -0.37268,1.11804 -1.74554,1.59464 -2.5,2.5 -0.20715,0.24858 0,1.65369 0,2 0,3.79076 2.74059,3 6,3 0.48025,0 1.91576,1.08425 2.5,0.5 2.91115,-2.91114 -2.73537,-8 -6,-8 z"
         style="fill:#8e6135;fill-opacity:1;stroke:#000000;stroke-width:1px;stroke-linecap:butt;stroke-linejoin:miter;stroke-opacity:1" />
      <path
         inkscape:connector-curvature="0"
         id="path4057"
         d="m 200.5,184.36218 c -5.31605,-1.0776 -10.61665,5.88335 -7,9.5 0.23113,0.23113 1.19811,-0.15094 1.5,0 7.57823,3.78912 8.71396,-4.14341 5.5,-9.5 z"
         style="fill:#8e6135;fill-opacity:1;stroke:#000000;stroke-width:1px;stroke-linecap:butt;stroke-linejoin:miter;stroke-opacity:1" />
      <path
         inkscape:connector-curvature="0"
         id="path4059"
         d="m 213.5,175.86218 c -2.02861,-0.25212 -1.90275,-0.0973 -3,1 -4.71518,4.71518 6.5,8.50223 6.5,1.5 0,-2.00006 -1.70972,-2.14194 -3.5,-2.5 z"
         style="fill:#8e6135;fill-opacity:1;stroke:#000000;stroke-width:1px;stroke-linecap:butt;stroke-linejoin:miter;stroke-opacity:1" />
      <path
         inkscape:connector-curvature="0"
         id="path4088"
         d="m 198,205.36218 c 0.66667,-0.5 1.5,-2.16666 2,-1.5 0.5,0.66667 -2.83333,1.5 -2,1.5 0.66142,0 4.3665,-3.6335 6,-2 7.60917,7.60917 -4.31274,10.43628 -6,2 z"
         style="fill:#8e6135;fill-opacity:1;stroke:#000000;stroke-width:1px;stroke-linecap:butt;stroke-linejoin:miter;stroke-opacity:1" />
    </g>
    <g
       id="g4130"
       transform="matrix(0.81249994,0.58296128,-0.58296128,0.81249994,143.27472,10.618515)">
      <path
         inkscape:connector-curvature="0"
         id="path4051"
         d="m 154.5,134.36218 c -1.84199,-0.99063 -8.96223,2.96224 -14,8 -3.61887,3.61887 -13,9.69933 -13,15.5 0,1.78771 1.47805,3.43415 2,5 2.67767,8.03301 14.53806,5.88452 21,7.5 3.06545,0.76636 7.68597,1.82851 11,1 7.70431,-1.92608 16.01955,-2.00977 23,-5.5 4.80579,-2.40289 1.5252,-7.42438 0.5,-10.5 -0.54123,-1.6237 -2.06904,-3.10355 -3,-4.5 -7.23231,-10.84847 -14.87386,-16.5 -27.5,-16.5 z"
         style="fill:#dda670;fill-opacity:1;stroke:#000000;stroke-width:1px;stroke-linecap:butt;stroke-linejoin:miter;stroke-opacity:1" />
      <path
         inkscape:connector-curvature="0"
         id="path4122"
         d="m 144.5,166.86218 c 4.79918,0.48438 21.15563,5.17219 31.5,0 1.49401,-0.747 3.45116,0.54884 4.5,-0.5 0.5,-0.5 2,0 2.5,-0.5 0.63616,-0.63616 4.8418,-4.6582 3.5,-6 -1.03542,-1.03542 -1.01484,-4.01483 -2,-5 -2.35029,-2.35029 -5.51409,-6.51409 -8,-9 -2.66195,-2.66195 -5.12815,-3.12815 -7.5,-5.5 -1.09668,-1.09668 -3.07257,-2 -3,-2 2.03303,0 15.95326,16.04674 10.5,21.5 -0.75609,0.7561 -2.57441,0.53721 -3.5,1 -6.50812,3.25406 -16.38006,-0.38006 -20,-4 -2.46402,-2.46402 -4.2589,4 -5.5,4 -2.62374,0 -8.93488,-2.56511 -11,-0.5 -0.25,0.25 0.25,1.25 0,1.5 -0.85647,0.85648 -2.74505,-1.0099 -4,1.5 -1.1283,2.2566 11.43683,3.5 12,3.5 z"
         style="fill:#b88758;fill-opacity:1;stroke:none" />
      <path
         inkscape:connector-curvature="0"
         id="path4104"
         d="m 132,155.86218 c -7.51168,-0.18308 -1.23893,9.23893 1.5,6.5 2.18684,-2.18684 3.51123,-5.49775 -1.5,-6.5 z"
         style="fill:#8e6135;fill-opacity:1;stroke:#000000;stroke-width:1px;stroke-linecap:butt;stroke-linejoin:miter;stroke-opacity:1" />
      <path
         inkscape:connector-curvature="0"
         id="path4106"
         d="m 142.5,162.36218 c -0.66667,0.16667 -1.83333,1.16667 -2,0.5 -0.16667,-0.66666 2.48591,-0.98591 2,-0.5 -0.64209,0.64209 -2.92451,1.42451 -3.5,2 -0.62771,0.62771 0.42208,1.42208 0.5,1.5 5.856,5.85601 9.4963,-2.20074 3,-3.5 z"
         style="fill:#8e6135;fill-opacity:1;stroke:#000000;stroke-width:1px;stroke-linecap:butt;stroke-linejoin:miter;stroke-opacity:1" />
      <path
         inkscape:connector-curvature="0"
         id="path4108"
         d="m 140,156.36218 c -0.66667,-0.16666 -2.16667,0.16667 -2,-0.5 0.16667,-0.66666 1.88703,-0.17783 2,0.5 0.15977,0.9586 -1.19268,1.57805 -1.5,2.5 -0.82633,2.479 7.19412,-0.19412 8,-1 0.11104,-0.11104 -2.99446,-7.34256 -6.5,-1.5 z"
         style="fill:#8e6135;fill-opacity:1;stroke:#000000;stroke-width:1px;stroke-linecap:butt;stroke-linejoin:miter;stroke-opacity:1" />
      <path
         inkscape:connector-curvature="0"
         id="path4110"
         d="m 151.5,135.36218 c -0.66667,0 -2,0.66667 -2,0 0,-0.66666 2.4714,-0.4714 2,0 -0.89454,0.89454 -2.10546,0.10546 -3,1 -1.03575,1.03576 -1.08956,1.82088 -0.5,3 3.04225,6.08449 13.93268,-4 3.5,-4 z"
         style="fill:#8e6135;fill-opacity:1;stroke:#000000;stroke-width:1px;stroke-linecap:butt;stroke-linejoin:miter;stroke-opacity:1" />
      <path
         inkscape:connector-curvature="0"
         id="path4114"
         d="m 159.5,161.86218 c -12.9129,3.30996 6.80035,9.6007 3,2 -0.91946,-1.83892 0.20025,-1.35995 -3,-2 z"
         style="fill:#8e6135;fill-opacity:1;stroke:#000000;stroke-width:1px;stroke-linecap:butt;stroke-linejoin:miter;stroke-opacity:1" />
      <path
         inkscape:connector-curvature="0"
         id="path4116"
         d="m 175.5,155.86218 c -0.66667,-0.33333 -1.26912,-0.85382 -2,-1 -1.82627,-0.36525 -4.50895,5.24553 -2,6.5 3.96481,1.98241 9.3087,-1.25304 4,-5.5 z"
         style="fill:#8e6135;fill-opacity:1;stroke:#000000;stroke-width:1px;stroke-linecap:butt;stroke-linejoin:miter;stroke-opacity:1" />
      <path
         inkscape:connector-curvature="0"
         id="path4118"
         d="m 148.5,150.86218 c 0.5,0.66667 2.16667,1.5 1.5,2 -0.66667,0.5 -2.24536,-2.37268 -1.5,-2 1.85517,0.92759 4.37951,4.12049 6.5,2 1.4239,-1.4239 1.67468,-8.33734 -1,-7 -1.92519,0.9626 -3.04851,3.03881 -5.5,5 z"
         style="fill:#8e6135;fill-opacity:1;stroke:#000000;stroke-width:1px;stroke-linecap:butt;stroke-linejoin:miter;stroke-opacity:1" />
      <path
         inkscape:connector-curvature="0"
         id="path4120"
         d="m 165,142.86218 c -0.66667,0 -2,0.66667 -2,0 0,-0.66666 2.29814,-0.59628 2,0 -0.5,1 -2.20943,0.70943 -3,1.5 -0.70923,0.70923 -0.70923,1.29077 0,2 4.54506,4.54506 10.77104,-3.5 3,-3.5 z"
         style="fill:#8e6135;fill-opacity:1;stroke:#000000;stroke-width:1px;stroke-linecap:butt;stroke-linejoin:miter;stroke-opacity:1" />
    </g>
    <g
       id="g4142"
       transform="translate(-64.455844,58.455845)">
      <path
         inkscape:connector-curvature="0"
         id="path4049"
         d="m 234,118.86218 c -11.06345,5.49214 -23.47358,16.57925 -19,30 0.40327,1.20981 0.96357,3.98786 2.5,4.5 24.73036,8.24346 31.25588,5.32942 52,-8.5 3.84922,-2.56615 3.69833,-9.90501 2.5,-13.5 -1.03962,-3.11886 -2.5493,-6.5493 -5,-9 -5.2536,-5.2536 -25.66252,-4.96749 -33,-3.5 z"
         style="fill:#dda670;fill-opacity:1;stroke:#000000;stroke-width:1px;stroke-linecap:butt;stroke-linejoin:miter;stroke-opacity:1" />
      <path
         inkscape:connector-curvature="0"
         id="path4126"
         d="m 215.5,144.86218 c 3.52211,17.16772 26.87211,11.31395 42.5,3.5 4.80191,-2.40095 8.56407,-1.56406 12.5,-5.5 4.55427,-4.55427 -1.86531,-20.5 -7.5,-20.5 -2.12333,0 -4.54057,-1.5 -7,-1.5 -0.20588,0 -1.36765,0.13236 -1.5,0 -0.26352,-0.26352 -1,-0.87268 -1,-0.5 0,1.00232 9.88448,11.23104 9,13 -1.0543,2.1086 -2.19969,0.69969 -3.5,2 -1.69633,1.69633 1.64051,4.61983 -2.5,6 -1.46614,0.48872 -4.96384,-1.53616 -6,-0.5 -0.58333,0.58334 -0.41667,1.91667 -1,2.5 -0.90638,0.90638 -5.18278,0.34139 -6.5,1 -2.10341,1.05171 -2.4143,2.95715 -4.5,4 -6.86776,3.43388 -17.43737,0.9501 -23,-3.5 z"
         style="fill:#b88758;fill-opacity:1;stroke:none" />
      <path
         inkscape:connector-curvature="0"
         id="path4090"
         d="m 213.5,141.36218 c 0.66667,-0.33333 1.66667,-1.66666 2,-1 0.33333,0.66667 -2.74536,1 -2,1 1.05409,0 2.25464,-1.74535 3,-1 2.54174,2.54175 1.40894,11.40894 -2.5,7.5 -0.26321,-0.26321 -0.47384,-6.36918 -0.5,-6.5 z"
         style="fill:#8e6135;fill-opacity:1;stroke:#000000;stroke-width:1px;stroke-linecap:butt;stroke-linejoin:miter;stroke-opacity:1" />
      <path
         inkscape:connector-curvature="0"
         id="path4092"
         d="m 239,138.86218 c -2.51421,-0.98224 -3.75722,-0.24278 -5.5,1.5 -6.63091,6.63091 9.76911,9.17279 5.5,-1.5 z"
         style="fill:#8e6135;fill-opacity:1;stroke:#000000;stroke-width:1px;stroke-linecap:butt;stroke-linejoin:miter;stroke-opacity:1" />
      <path
         inkscape:connector-curvature="0"
         id="path4094"
         d="m 245.5,142.86218 c -1.78037,-1.1289 -2.0832,-1.2084 -3.5,-0.5 -7.05548,3.52774 7.461,6.44151 3.5,0.5 -0.92694,-1.39041 -1.99072,-0.33178 -3,-0.5"
         style="fill:#8e6135;fill-opacity:1;stroke:#000000;stroke-width:1px;stroke-linecap:butt;stroke-linejoin:miter;stroke-opacity:1" />
      <path
         inkscape:connector-curvature="0"
         id="path4096"
         d="m 253,124.36218 c -1.96463,-0.77447 -2.18287,-0.37809 -3.5,0.5 -6.4992,4.3328 1.03097,9.96903 5,6 0.23113,-0.23113 -0.15094,-1.19811 0,-1.5 1.33411,-2.66821 1.62649,-2.49881 -1.5,-5 z"
         style="fill:#8e6135;fill-opacity:1;stroke:#000000;stroke-width:1px;stroke-linecap:butt;stroke-linejoin:miter;stroke-opacity:1" />
      <path
         inkscape:connector-curvature="0"
         id="path4098"
         d="m 263,139.86218 c -1.49292,-0.15159 -2.39035,-0.0548 -3.5,0.5 -0.44172,0.22086 -1,1.23943 -1,1.5 0,4.32244 10.64272,0.45709 2,-3"
         style="fill:#8e6135;fill-opacity:1;stroke:#000000;stroke-width:1px;stroke-linecap:butt;stroke-linejoin:miter;stroke-opacity:1" />
      <path
         inkscape:connector-curvature="0"
         id="path4100"
         d="m 228,151.86218 c -1.96323,-0.8559 -2.1926,-0.3074 -3,0.5 -2.40001,2.40001 3.18156,6.31844 5,4.5 2.04023,-2.04022 2.33468,-5.86693 -2,-5 z"
         style="fill:#8e6135;fill-opacity:1;stroke:#000000;stroke-width:1px;stroke-linecap:butt;stroke-linejoin:miter;stroke-opacity:1" />
      <path
         inkscape:connector-curvature="0"
         id="path4102"
         d="m 231.5,126.36218 c -10.96984,-2.48585 3.25032,16.25159 0,0 z"
         style="fill:#8e6135;fill-opacity:1;stroke:#000000;stroke-width:1px;stroke-linecap:butt;stroke-linejoin:miter;stroke-opacity:1" />
      <path
         inkscape:connector-curvature="0"
         id="path4112"
         d="m 266.5,120.86218 c -2.06626,-0.72329 -4.04411,-0.41179 -5,1.5 -0.31861,0.63722 -1.44373,1.61255 -1,2.5 1.71641,3.43281 11.98265,4.97397 6,-4 z"
         style="fill:#8e6135;fill-opacity:1;stroke:#000000;stroke-width:1px;stroke-linecap:butt;stroke-linejoin:miter;stroke-opacity:1" />
    </g>
    <g
       id="g4185">
      <path
         sodipodi:nodetypes="cssssssssssssssssssssssssssssssssssssssssssssscc"
         inkscape:connector-curvature="0"
         id="path4007"
         d="m 334.984,354.32638 c -9.2717,-8.05646 -25.05332,-6.99751 -30.62106,4.13798 -1.85712,3.71424 -0.0949,9.93115 -0.8276,9.93115 -1.26069,0 -6.00746,-3.20323 -9.10355,-1.65519 -5.32447,2.66224 -13.02302,12.24189 -10.75875,19.03471 0.43458,1.30374 1.00702,4.3174 1.65519,4.96558 0.87236,0.87237 3.31038,0.42148 3.31038,1.65519 0,0.34597 -6.10793,-2.22637 -6.62076,-2.48279 -2.56793,-1.28396 -12.2192,4.77083 -14.06914,6.62077 -8.80879,8.80879 -11.25875,16.39673 -14.89673,27.31067 -0.44689,1.34068 -0.0952,6.52558 0.8276,7.44837 0.87236,0.87236 4.18274,0.78283 3.31038,1.65519 -1.65048,1.65049 -4.09268,1.6099 -5.79317,3.31038 -8.14518,8.14519 -15.41978,26.04608 -12.41394,38.06942 3.96115,15.84464 11.03949,20.54954 25.65548,13.24154 2.15854,-1.07927 6.99798,-7.44836 9.10355,-7.44836 1.68561,0 -2.99547,8.07817 -0.82759,12.41394 4.15214,8.30429 13.94953,16.55192 23.17269,16.55192 8.38112,0 20.90393,-12.41394 21.5175,-12.41394 0.55173,0 -0.24674,1.16171 0,1.65519 7.67428,15.34856 17.52848,36.36457 39.72461,28.96586 2.41138,-0.80379 6.05042,-2.16969 7.44837,-4.96557 2.10972,-4.21945 5.21095,-7.93912 7.44836,-12.41394 1.33047,-2.66093 1.53726,-7.44837 1.65519,-7.44837 13.74599,0 32.35679,22.59412 48.00058,17.37952 11.51179,-3.83727 16.55192,-14.24755 16.55192,-26.48308 0,-1.8042 -2.28294,-9.30339 -0.8276,-10.75875 0.94998,-0.94996 10.38217,3.43592 13.24154,2.48279 16.17324,-5.39107 27.50253,-11.08227 30.62106,-29.79346 1.47284,-8.83709 -1.73342,-22.42332 -8.27596,-28.96586 -1.00747,-1.00747 -6.25867,-6.15526 -5.79318,-6.62077 1.99972,-1.99972 10.34226,0.96643 13.24154,0 8.32993,-2.77664 12.0398,-10.08979 14.06913,-18.20711 3.426,-13.70401 -5.80075,-36.97101 -17.37951,-44.69019 -2.53177,-1.68784 -6.10853,-3.31039 -9.10356,-3.31039 -1.37933,0 -4.13798,1.37933 -4.13798,0 0,-12.77558 -31.4103,-15.94081 -42.2074,-13.24154 -3.36209,0.84053 -7.85237,6.33185 -9.93116,9.10356 -2.18302,2.91071 -6.26034,5.53949 -7.44836,9.10356 -0.59785,1.79354 -0.85079,1.70158 -1.65519,3.31038 -0.24674,0.49349 0.55173,1.6552 0,1.6552 -0.55174,0 0.24674,-1.16171 0,-1.6552 -0.9309,-1.86179 -1.57507,-3.97772 -2.48279,-5.79317 -3.29714,-6.59426 -12.29863,-8.78925 -18.20712,-10.75875 -5.80903,-1.93634 -15.3123,1.03539 -19.8623,3.31039 -1.43541,0.7177 -4.91137,4.96557 -5.79317,4.96557 -8.3e-4,0 -3.66395,-4.49154 -4.96558,-5.79317 -9.06856,-0.7926 -16.55192,6.62077 -16.55192,6.62077 z"
         style="fill:#e9eaf9;fill-opacity:1;stroke:#000000;stroke-width:0.82759613px;stroke-linecap:butt;stroke-linejoin:miter;stroke-opacity:1" />
      <path
         inkscape:connector-curvature="0"
         id="path4011"
         d="m 259.67275,426.32724 c -2.20841,-2.43684 -0.23444,-17.14508 6.62077,-24.00029 3.12349,-3.12349 8.15391,-3.18833 10.75875,-5.79317 2.79825,-2.79824 11.74593,0.66801 14.06913,-1.65519 1.45843,-1.45843 -2.77932,-9.69663 -3.31038,-10.75875 -2.71476,-5.42952 4.77092,-12.21929 6.62077,-14.06914 1.4428,-1.44279 9.94079,-0.005 11.58634,-0.82759 2.29177,-1.14588 3.78953,-10.58453 12.41394,-14.89673 5.55098,-2.77549 17.61802,-1.06609 21.5175,-4.96558 2.48673,-2.48672 24.03652,2.46467 27.31067,0.8276 3.31066,-1.65533 1.93497,-4.41776 4.13799,-6.62077 3.27859,-3.2786 28.49793,0.82759 35.58663,0.82759 12.94866,0 35.26789,-2.80152 43.03499,4.96558 1.24939,1.24939 5.31485,1.17688 6.62077,2.48279 1.42673,1.42673 2.50817,4.16336 4.13798,5.79317 0.53885,0.53885 4.96558,4.63129 4.96558,4.96558 0,0.43776 -9.43306,-1.81994 -10.75875,-2.48279 -2.11476,-1.05738 -19.17426,-0.78108 -21.5175,0 -20.39133,6.79711 -49.92863,0.13644 -67.86288,9.10356 -9.975,4.9875 -44.57044,18.91496 -50.48336,24.82788 -1.24139,1.2414 0.4138,5.37938 -0.8276,6.62077 -1.31009,1.3101 -11.54319,1.61204 -15.72432,5.79317 -2.69307,2.69307 -4.96558,6.71352 -4.96558,11.58635 0,3.33397 3.77415,6.62077 3.31039,6.62077 -2.69251,0 -5.95138,-4.47268 -9.93116,-2.48279 -8.84587,4.42294 -11.13253,11.96013 -17.37952,18.20711 -0.67845,0.67846 -7.36244,0.37084 -9.93115,1.6552 -6.09168,3.04584 -12.47655,11.71156 -14.89673,16.55192 -1.13274,2.26548 -1.13383,4.44421 -2.48279,5.79317 -0.1217,0.12171 0.0974,2.48279 0,2.48279 -2.94076,0 1.34985,-10.97564 1.6552,-11.58635 0.29906,-0.59813 0.48079,-3.79117 0.82759,-4.13798 2.96155,-2.96154 13.88331,-19.76075 14.89673,-24.82788 z"
         style="fill:#f7f7f7;fill-opacity:1;stroke:none" />
      <path
         inkscape:connector-curvature="0"
         id="path4009"
         d="m 469.46836,356.39537 c 1.41404,0.0622 9.34578,4.3802 12.41394,7.44836 1.78553,1.78553 2.39554,3.63693 4.13799,5.37938 0.82415,0.82416 1.61859,4.92898 2.89658,6.20697 1.23454,1.23453 0.84329,8.30734 1.65519,9.93115 2.05516,4.11031 1.69381,11.92291 -0.41379,16.13813 -1.54643,3.09286 -0.76084,7.7954 -3.72419,10.75875 -1.66417,1.66417 -5.18085,3.21112 -7.86216,4.55177 -2.84911,1.42456 -13.01036,-0.87614 -14.48293,2.06899 -1.5593,3.1186 3.0652,4.06142 3.72418,5.37938 0.63002,1.26003 2.70987,4.77885 3.72418,5.79317 0.84171,0.84172 0.20003,3.29663 0.8276,4.55178 1.31262,2.62523 2.82272,6.05925 4.13798,8.68976 0.95746,1.91493 0.44809,10.27638 -0.4138,12.00014 -0.44138,0.88277 0.44138,2.42762 0,3.31039 -1.14488,2.28977 -0.10689,5.59315 -1.24139,7.86216 -1.03711,2.07422 -8.98503,10.90638 -12.00015,12.41394 -2.24418,1.1221 -8.0329,1.11987 -9.93115,2.06899 -0.69885,0.34943 -5.05189,1.98268 -5.79317,1.2414 -1.52779,-1.52779 -11.72347,-5.65605 -13.65534,-3.72419 -0.4591,0.4591 -1.26671,1.68051 -1.65519,2.06899 -1.01663,1.01664 0.85196,5.01432 1.24139,5.79318 1.02472,2.04943 -0.63432,5.35211 0.4138,7.44836 0.28672,0.57343 -0.4138,1.73145 -0.4138,2.48279 0,8.6594 -7.29097,16.05943 -13.24153,19.03471 -5.18956,2.59478 -11.83586,-0.74545 -16.96572,-3.31038 -1.67546,-0.83773 -4.13755,-0.41336 -5.37938,-1.6552 -3.83852,-3.83852 -7.98954,-6.06376 -12.41394,-8.27596 -2.64944,-1.32471 -5.33236,-2.02197 -7.44836,-4.13798 -0.13735,-0.13735 -1.8701,-1.44029 -2.06899,-1.24139 -2.03995,2.03996 -1.84699,5.34917 -3.31039,8.27596 -0.62719,1.25439 -1.70409,2.11789 -2.48279,2.89659 -1.65096,1.65096 -1.37346,3.85625 -2.89658,5.37937 -1.80756,1.80755 -3.50353,3.91733 -4.96558,5.37937 -1.41163,1.41164 -3.57172,1.50274 -4.96558,2.89659 -0.54559,0.54559 -0.98322,1.52611 -2.06899,2.06899 -1.6434,0.8217 -6.21179,0.82519 -7.86216,0 -0.99312,-0.49656 -2.73107,0.49656 -3.72418,0 -2.02618,-1.01308 -4.66663,-1.77004 -6.20697,-3.31038 -4.23457,-4.23456 -6.71091,-9.1937 -11.17255,-13.65534 -1.9717,-1.9717 -3.99585,-12.27181 -6.62077,-14.89673 -4.17905,-4.17905 -7.35642,5.88513 -10.34495,2.89659 -3.17659,3.44423 -4.59831,6.64404 -8.68976,8.68976 -2.68146,1.34073 -15.83529,-4.24895 -17.37952,-5.79318 -1.76707,-1.76707 -4.46136,-4.87516 -5.79317,-6.20697 -1.26999,-1.26998 0.91613,-10.43348 1.24139,-10.75875 0.32348,-0.32347 -0.35993,-0.71986 -0.41379,-0.82759 -0.29273,-0.58545 0.0476,-2.02139 -0.4138,-2.48279 -0.91923,-0.91923 -2.23049,-1.40288 -3.31039,-2.48279 -1.02777,-1.02777 -4.24793,1.29637 -4.96557,1.65519 -6.78055,3.39028 -6.7992,8.68976 -16.55193,8.68976 -0.43567,0 -1.53371,0.88834 -2.48278,0.4138 -1.5588,-0.7794 -2.77705,-2.24371 -3.72419,-4.13798 -0.28673,-0.57346 -1.01129,-1.01129 -1.24139,-1.24139 -1.94431,-1.94432 1.626,-8.21759 2.48279,-9.93116 1.20029,-2.40057 0.41123,-5.7906 2.48279,-7.86216 0.65674,-0.65675 7.68428,-9.28143 8.27596,-8.68976 1.3692,1.3692 -1.35618,6.62077 3.72418,6.62077 3.42727,0 8.31241,-7.43014 10.75875,-6.20697 1.55651,0.77825 1.85479,8.04717 2.48279,9.93115 1.53529,4.60586 6.86373,3.13955 8.68976,4.96558 1.95259,1.9526 -0.007,6.59878 0.82759,9.10356 1.70382,5.11144 3.76959,8.71246 8.68976,11.17254 3.9009,1.95046 15.25504,-9.63678 19.86231,-11.17254 1.86153,-0.62051 2.43814,0.59837 3.72418,1.24139 4.29844,2.14923 2.38141,6.51939 4.96558,9.10356 1.36896,1.36896 8.91732,4.04486 11.58634,5.37937 1.24235,0.62118 14.30577,-3.36985 14.48293,-3.72418 1.71596,-3.43191 1.88509,-6.52882 5.37938,-8.27596 1.23321,-0.6166 2.88028,0.006 4.13798,-0.4138 9.7359,-3.24529 11.60904,4.14933 18.20711,7.44836 2.76389,1.38195 6.41566,1.55264 9.10356,2.89659 6.31724,3.15862 14.00136,10.17194 21.9313,6.20697 1.31258,-0.65629 2.08343,-2.49241 3.31038,-3.31038 1.63023,-1.08682 3.1353,-1.54373 3.72418,-3.31039 1.49688,-4.49061 -9.23408,-15.68082 -1.65519,-18.20711 2.36971,-0.7899 9.77495,-2.5609 12.41394,-1.2414 0.59409,0.29705 3.37063,2.00875 4.13798,1.2414 1.03966,-1.03965 2.54328,-3.01756 3.31039,-4.55178 0.87905,-1.7581 -0.23237,-5.26319 1.65519,-6.20697 1.72365,-0.86183 9.10356,-0.72799 9.10356,0.8276 0,0.18642 -2.678,-1.1321 -2.89659,-1.2414 4.82455,-3.48641 16.8648,3.92602 19.86231,-2.06899 3.07178,-6.14355 -8.16031,-20.16044 -11.58635,-23.58649 -0.80154,-0.80154 -3.64394,-5.04581 -2.48279,-6.20697 2.37156,-2.37155 6.6512,-2.09941 6.62077,-2.06899 -0.0799,0.0799 -2.60073,-3.42832 -2.89658,-3.72418 -3.42782,-3.42781 -1.64473,-5.8141 0,-9.10356 0.33627,-0.67255 0.27153,-1.92672 0.82759,-2.48279 5.21995,-5.21993 17.01582,-1.70527 22.7589,-7.44836 3.44179,-3.44179 1.77397,-7.9196 0.41379,-12.00015 -1.55809,-4.67427 0.14046,-6.06651 -3.72418,-9.93115 -1.11535,-1.11535 -0.87574,-5.47566 -1.65519,-7.03457 -1.06058,-2.12115 1.06118,-6.85434 2.06899,-7.86216 0.78203,-0.78202 -0.4138,-3.72919 -0.4138,-4.55178 0,-0.39241 -0.24989,-2.23289 0,-2.48278 0.0645,-0.0645 1.17153,-0.48366 0.8276,-0.8276 -0.92842,-0.92841 -0.75591,-2.19604 -1.2414,-4.13798 z"
         style="fill:#d5d9ff;fill-opacity:1;stroke:none" />
    </g>
    <path
       style="fill:#edb29e;fill-opacity:1;stroke:#000000;stroke-width:0.82759613px;stroke-linecap:butt;stroke-linejoin:miter;stroke-opacity:1"
       d="m 311.2224,250.66997 c -0.55734,1.11467 -0.55734,3.90133 -1.672,3.344 -1.11467,-0.55733 1.672,-4.59023 1.672,-3.344 0,1.50067 -1.19745,2.75635 -1.672,4.17999 -1.94812,5.84438 -0.836,9.98533 -0.836,16.71997 0,0.51016 0.32574,3.01826 0,3.34399 -1.41544,1.41544 -2.28835,17.15925 -0.836,20.06397 1.23733,2.47466 1.672,9.02372 1.672,11.70397 0,4.39253 0.44725,30.48469 -2.50799,33.43993 -0.93227,0.93227 0,7.73109 0,9.19598 0,4.4167 -0.29434,44.55525 0.83599,46.81591 1.93771,3.87542 1.672,11.99435 1.672,15.88397 0,3.3958 1.40876,10.60475 3.34399,12.53997 0.38397,0.38397 3.34399,28.16845 3.34399,31.76794 0,3.53452 1.78494,8.35998 1.672,8.35998 -0.78818,0 1.11467,-1.11466 1.672,-1.67199 0.32574,-0.32574 0,-2.83384 0,-3.34399 0,-3.77215 1.672,-9.19074 1.672,-15.04798 0,-9.83171 0.51004,-20.7581 3.34399,-29.25994 1.00319,-3.00959 -1.0032,-7.02238 0,-10.03198 0.84499,-2.53498 1.67199,-6.57959 1.67199,-9.19598 0,-6.71514 -0.6594,-40.6577 0.83601,-45.1439 1.22274,-3.66822 2.72364,-21.30466 0.83599,-25.07996 -4.62515,-9.2503 -2.91807,-28.40809 -7.52398,-37.61992 -0.78027,-1.56053 0.78027,-4.29146 0,-5.85199 -4.65111,-9.3022 -6.93143,-20.44516 -9.19598,-31.76794 z"
       id="path2989"
       inkscape:connector-curvature="0" />
    <path
       style="fill:#fdd2c4;fill-opacity:1;stroke:#000000;stroke-width:0.82759613px;stroke-linecap:butt;stroke-linejoin:miter;stroke-opacity:1"
       d="m 440.80213,269.06194 c -6.53778,6.53778 -17.24113,11.96456 -28.42394,17.55596 -5.96941,2.9847 -14.84729,14.42374 -21.73596,16.71997 -7.62153,2.54051 -18.65109,13.46235 -23.40795,15.04797 -7.42559,2.47519 -9.98182,9.1709 -16.71996,12.53997 -12.99896,6.49947 -22.63294,19.90052 -36.78393,22.57195 2.46641,2.33424 0,5.74953 0,6.68799 0,4.72851 1.672,8.36659 1.672,13.37597 0,4.28232 -1.32914,11.06057 0,15.04798 0.95714,2.87143 2.69308,8.64071 1.672,11.70398 -2.74791,8.24371 -2.62698,27.23099 0,35.11192 0.6474,1.94221 -1.37107,3.41081 -0.83601,5.01599 2.35396,7.06185 1.672,21.77702 1.672,25.91595 15.98036,-7.49434 33.97857,-18.0946 47.6519,-31.76794 5.01733,-5.01732 15.15374,-6.79375 20.06397,-11.70398 2.47546,-2.47546 5.65218,-5.75208 9.19597,-7.52398 18.00143,-9.00071 44.60651,-22.87054 55.17589,-33.43993 10e-6,-25.81347 3.344,-55.48784 3.344,-81.92784 0,-5.10209 -3.613,-20.63095 0,-24.24394 0.52232,-0.52232 0.52232,-12.01766 0,-12.53998 -2.4043,-2.4043 -10.30615,4.75706 -12.53998,5.85199 z"
       id="path2985"
       inkscape:connector-curvature="0" />
    <path
       style="fill:#b33540;fill-opacity:1;stroke:#000000;stroke-width:0.82759613px;stroke-linecap:butt;stroke-linejoin:miter;stroke-opacity:1"
       d="m 314.56639,404.49366 c 0,-1.11466 -1.11466,-3.34399 0,-3.34399 1.11466,0 0,4.45866 0,3.34399 0,-1.60069 1.0523,-10.65168 -0.836,-12.53997 -3.57299,-3.57299 -4.92507,-40.87299 -6.68798,-42.63592 -1.54846,-1.54844 0.36782,-11.70397 1.67199,-11.70397 1.31928,0 1.75864,10.95463 2.508,11.70397 4.22247,4.22247 0.48813,35.25221 3.34399,40.96393 1.41811,2.83623 2.62959,9.78878 2.508,10.03198 -0.72668,1.45334 -1.672,2.78665 -2.508,4.17998 z"
       id="path3982"
       inkscape:connector-curvature="0" />
    <path
       style="fill:#ffa2fa;fill-opacity:1;stroke:#000000;stroke-width:0.82759613px;stroke-linecap:butt;stroke-linejoin:miter;stroke-opacity:1"
       d="m 312.89439,353.49776 c 0.0272,0.52444 2.88358,-15.96879 -0.836,-23.40795 -1.56053,-3.12105 1.56053,-8.58291 0,-11.70397 -2.11035,-4.22071 1.39816,-24.5178 0,-25.91595 -0.9678,-0.9678 -2.50799,-33.05051 -2.50799,-36.78392 0,-6.02701 1.03907,-4.38307 4.17999,-7.52399 0.44061,-0.44061 0.21289,-1.67199 0.836,-1.67199 10.72613,0 24.97271,4.17998 36.78392,4.17998 15.89638,0 46.46765,-5.19012 60.19188,1.67201 3.55567,1.77783 9.98255,-1.72144 12.53998,0.83599 2.96096,2.96097 15.24664,-2.30932 18.39196,0.836 5.37608,5.37608 7.28611,4.54024 10.86798,11.70398 -0.79073,1.31787 -2.59602,6.77601 -3.344,7.52398 -3.95167,3.95167 -6.49862,7.33462 -10.86797,11.70397 -3.77965,3.77965 -7.79366,5.28568 -11.70398,9.19598 -1.33333,1.33334 -1.17467,3.68267 -2.50799,5.016 -4.74716,4.74715 -19.74848,10.55249 -24.24396,15.04796 -1.69918,1.69918 -15.89736,11.70845 -18.39195,12.53998 -0.82744,0.27581 -2.69063,0.18263 -3.344,0.836 -2.50636,2.50636 -8.84734,7.68644 -13.37598,9.19598 -4.1207,1.37357 -13.17313,12.33713 -16.71996,15.88397 -2.76854,2.76855 -29.06179,16.91811 -30.93194,15.04797 -2.9854,-2.98541 -1.18344,-9.73763 -5.01599,-14.21198 z"
       id="path2987"
       inkscape:connector-curvature="0" />
    <path
       style="fill:#ffa2fa;fill-opacity:1;stroke:#000000;stroke-width:0.82759613px;stroke-linecap:butt;stroke-linejoin:miter;stroke-opacity:1"
       d="m 310.3864,247.32598 c -0.59792,-1.11637 -3.86454,-10.34742 1.67199,-15.88396 1.11467,-1.11466 3.06533,-1.39333 4.17999,-2.508 2.77482,-2.77481 5.11809,5.016 5.016,5.016 -0.11303,0 3.3066,-7.59877 5.85199,-2.508 0.74658,1.49317 2.00884,8.5223 2.50798,7.52398 1.73114,-3.46226 6.19824,-5.50575 9.19599,-2.50799 0.69667,0.69667 0.13933,2.64733 0.836,3.344 0.54139,0.54139 1.76488,-0.83601 2.50799,-0.83601 0.86059,0 1.0491,1.45891 1.672,0.83601 0.73332,-0.73332 1.77468,-3.44668 2.508,-4.18 3.22744,-3.22745 2.63093,0.77453 5.85198,-0.836 1.40102,-0.70051 3.87987,-4.17999 4.18,-4.17999 5.66188,0 1.02589,8.17009 5.01598,4.17999 4.79537,-4.79536 10.93986,3.344 9.19599,3.344 -0.0794,0 3.31583,-4.17999 7.52398,-4.17999 3.46306,0 0.93003,2.60203 2.508,4.17999 1.17167,1.17167 2.49708,-1.68292 5.85199,1.672 1.42092,1.42091 3.21864,-2.44533 5.01598,-3.344 1.8392,-0.9196 4.61552,4.58046 6.68799,2.50799 2.38002,-2.38002 6.58801,-4.966 10.03198,-6.68798 1.20772,-0.60386 6.96716,2.23036 7.52399,3.34399 0.39409,0.78819 -0.0452,2.508 0.83599,2.508 1.29709,0 4.97043,-4.22556 6.68799,-2.508 0.38645,0.38645 -0.25238,2.00325 0,2.508 1.98136,3.96273 2.44488,0.83599 6.68799,0.83599 11.09265,0 4.68931,-0.32667 9.19598,4.17999 1.92063,1.92064 8.59295,0.23297 10.86797,2.508 1.64989,1.64989 1.672,4.44461 1.672,7.52398 0,0.62311 -1.45911,1.67199 -0.836,1.67199 3.33249,0 11.03776,-1.17554 7.52399,5.85199 -1.89458,3.78916 -3.27705,7.90851 -7.52399,10.03198 -2.82509,1.41255 -3.75089,-5.42289 -5.01599,-6.68798 -2.1915,-2.19151 -4.72978,1.3971 -5.85199,0.83599 -2.22232,-1.11116 -1.49036,-3.16235 -2.50799,-4.17999 -0.66458,-0.66457 -5.29591,1.672 -6.68799,1.672 -3.73261,0 -5.00909,1.66855 -8.35998,3.344 -2.8561,1.42805 -3.57884,-3.344 -5.85199,-3.344 -1.90606,0 -8.66216,2.20582 -10.03198,0.836 -1.09535,-1.09536 -1.92441,-4.43241 -2.50799,-5.01599 -0.5724,-0.5724 -6.11559,3.91639 -6.68799,3.34399 -1.61994,-1.61994 -4.36599,0.325 -6.68799,-0.836 -4.03387,-2.01693 -4.19477,-3.35878 -6.68798,-5.85199 -1.01359,-1.01359 -4.16072,-0.81673 -5.01599,-1.67199 -0.92357,-0.92357 -4.02182,2.508 -5.01599,2.508 -5.07033,0 -8.95187,-1.91612 -12.53998,1.67199 -1.21217,1.21217 -8.69307,-5.26744 -12.53997,-3.34399 -2.61969,1.30984 -5.25917,-0.71441 -6.68799,0 -2.31909,1.15954 -1.97489,2.81089 -3.34399,4.17999 -0.2204,0.2204 -22.23889,0.33306 -24.24395,-1.672 -0.9345,-0.93449 -3.04293,-7.30087 -4.17999,-9.19598 z"
       id="path2991"
       inkscape:connector-curvature="0" />
    <path
       style="fill:#ffa2fa;fill-opacity:1;stroke:#000000;stroke-width:0.82759613px;stroke-linecap:butt;stroke-linejoin:miter;stroke-opacity:1"
       d="m 311.2224,259.86596 c -3.1962,0.38171 -3.87684,1.06568 -5.016,3.34399 -0.96022,1.92046 1.04737,3.55535 1.672,4.17999 1.25755,1.25755 -4.27637,7.33123 -2.50799,10.86798 0.97342,1.94686 2.76797,1.93197 4.17999,3.34399 1.83343,1.83343 -1.58219,14.95816 -2.50799,15.88397 -0.22364,0.22363 2.50799,4.09574 2.50799,4.18 0,1.61167 -3.20841,5.28714 -1.672,8.35997 1.94735,3.8947 2.61936,10.14334 5.01599,12.53998 1.39333,1.39333 -0.55733,6.13065 0.836,7.52398 1.77455,1.77455 -2.2305,3.9025 -2.50799,4.18 -1.08747,1.08747 0.83599,4.16012 0.83599,5.01599 0,1.46518 -3.5804,6.45157 -1.67199,8.35998 0.21948,0.21948 2.50799,1.53979 2.50799,1.67199 0,0.23276 -0.64961,8.1736 -0.836,8.35999 -0.16946,0.16946 -1.91677,2.26322 -0.83599,3.34399 2.60169,2.60169 7.45152,0.76354 9.19598,2.50799"
       id="path3884"
       inkscape:connector-curvature="0" />
    <path
       style="fill:#ffa2fa;fill-opacity:1;stroke:#000000;stroke-width:0.82759613px;stroke-linecap:butt;stroke-linejoin:miter;stroke-opacity:1"
       d="m 317.07439,366.03774 c 0.73657,0.43148 -1.89978,4.78821 -0.83601,5.85199 1.90726,1.90726 6.59059,-2.6054 8.35999,-0.836 2.40308,2.40309 0.98419,-3.49219 2.508,-5.01599 0.58142,-0.58142 1.63242,1.672 2.50798,1.672 0.10178,0 0.39819,-1.672 4.18,-1.672 3.51142,0 1.02333,-6.87532 2.508,-8.35998 0.55733,-0.55733 1.95066,-0.27867 2.50799,-0.836 1.64575,-1.64574 2.14009,-4.64808 3.34399,-5.85198 0.1338,-0.1338 1.5731,0.83599 2.508,0.83599 0.85332,0 4.54048,-3.70448 1.672,-0.83599"
       id="path3919"
       inkscape:connector-curvature="0" />
    <path
       style="fill:#ffa2fa;fill-opacity:1;stroke:#000000;stroke-width:0.82759613px;stroke-linecap:butt;stroke-linejoin:miter;stroke-opacity:1"
       d="m 357.2023,340.12179 c 1.11467,-1.11466 2.11306,-2.35923 3.344,-3.34399 3.42809,-2.74247 2.77398,3.60999 3.34399,4.18 0.35553,0.35552 2.50486,-2.08843 3.34399,-2.508 1.87678,-0.9384 3.56519,2.2868 5.01599,0.836 2.38245,-2.38246 5.22184,-1.87785 6.68799,-3.344 0.80371,-0.80371 0.599,-3.10699 1.672,-4.17999 0.7595,-0.7595 1.22394,2.12005 2.50799,0.836 1.681,-1.681 4.59228,-2.92028 5.85199,-4.17999 1.25399,-1.254 1.25399,-3.762 2.50799,-5.01599 1.63669,-1.63668 11.70398,-18.49223 11.70398,-14.21197"
       id="path3921"
       inkscape:connector-curvature="0" />
    <path
       style="fill:#ffa2fa;fill-opacity:1;stroke:#000000;stroke-width:0.82759613px;stroke-linecap:butt;stroke-linejoin:miter;stroke-opacity:1"
       d="m 412.37819,303.33787 c 3.89037,-2.76839 7.77203,-3.88601 11.70398,-5.85199 2.54916,-1.27458 4.29719,4.0628 5.85199,2.50799 3.65872,-3.65872 7.47942,-8.31542 10.86797,-11.70397 0.0441,-0.0441 1.91156,-8.59954 5.01599,-11.70398"
       id="path3923"
       inkscape:connector-curvature="0" />
    <path
       style="fill:#e88de3;fill-opacity:1;stroke:none"
       d="m 315.86219,335.3566 c -0.39014,0.19507 -0.97534,0.97533 -1.1704,0.5852 -0.19507,-0.39013 1.36546,-0.97533 1.1704,-0.5852 -0.2793,0.55859 -1.0214,0.7288 -1.463,1.1704 -0.87975,0.87976 -0.98559,2.44859 -1.7556,3.21859 -0.53643,0.53644 0.24384,2.38957 -0.2926,2.926 -0.0502,0.0502 -0.86078,1.77261 -0.58519,2.04819 0.53239,0.5324 1.21783,0.92524 2.04819,1.7556 2.3707,2.3707 2.35353,4.66887 0,7.02238 -0.11401,0.11401 0,0.99184 0,1.17041 0,0.81381 -0.95389,4.02029 -0.2926,4.68158 1.44019,1.4402 4.1191,-0.85508 6.43719,1.463 0.54205,0.54206 -0.2926,2.46325 -0.2926,2.92599 0,0.51681 0.49794,2.72065 0.2926,2.926 -0.39732,0.39732 -2.96324,0.84056 -1.463,2.34079 0.81479,0.81479 1.89936,-0.51077 2.6334,-0.8778 0.93103,-0.46551 2.20573,1.30546 2.92599,0.58521 1.09432,-1.09433 1.35823,-3.99163 2.3408,-4.9742 0.16959,-0.16959 1.0008,-0.41561 1.17039,-0.58519 1.35374,-1.35374 3.81319,0.4342 5.26679,-0.2926 1.91877,-0.95939 0.67068,-4.76707 2.0482,-6.14459 1.50523,-1.50523 2.81859,-3.1112 4.09639,-4.38899 0.2813,-0.2813 0.20965,-1.08745 0.5852,-1.463 1.78177,-1.78177 4.2324,-2.7694 6.14458,-4.68159 0.5037,-0.50369 1.67748,2.08726 4.0964,0.8778 0.94524,-0.47261 1.64319,-2.22839 2.3408,-2.92599 0.98042,-0.98043 2.50197,-1.33158 3.51119,-2.3408 0.0204,-0.0204 -0.90561,-5.15998 2.04819,-6.14458 0.42219,-0.14074 6.01393,-1.59366 6.14459,-1.463 0.7315,0.73149 0.7315,2.19449 1.463,2.92599 0.58501,0.58501 5.30415,-1.71822 5.55938,-1.46299 0.12171,0.1217 1.71277,1.21322 2.0482,0.87779 0.60655,-0.60655 1.47935,-0.15448 2.34079,-0.5852 0.66032,-0.33015 2.25594,-2.25593 2.6334,-2.63339 0.82816,-0.82816 -0.11818,-3.0132 1.463,-3.80379 0.48046,-0.24024 3.56264,-1.41155 4.09639,-0.8778 0.11314,0.11314 0.63984,1.11575 1.1704,0.58519 3.59336,-3.59335 7.03974,-9.10529 9.65577,-14.33736 0.60445,-1.20888 0.92154,-3.26234 1.7556,-4.0964 1.90667,-1.90667 4.55228,-4.97419 8.19279,-4.97419 0.26461,0 -0.57703,2.64157 -0.2926,2.92599 0.67001,0.67002 3.4156,-0.7822 3.80379,-1.17039 0.89187,-0.89187 2.8557,-1.97789 3.80379,-2.92599 0.25371,-0.25371 -1.35852,-2.25716 -0.8778,-3.2186 1.00974,-2.01947 7.08859,-3.80379 9.65579,-3.80379 0.69467,0 2.29356,0.31622 2.92599,0 0.65027,-0.32513 1.13058,-0.85789 1.7556,-1.1704 1.47552,-0.73776 3.49239,0.604 4.68158,-0.58519 2.03797,-2.03797 3.07039,-5.1927 5.5594,-6.43719 1.22921,-0.61461 5.26678,-5.90393 5.26678,-6.72979 0,-0.44765 -0.93472,-0.2926 -1.17039,-0.2926 0.48974,-2.74874 2.36355,-3.24135 3.80379,-4.68159 0.34137,-0.34136 0.24383,-1.12163 0.5852,-1.463 0.39013,-0.39013 1.07286,-0.48766 1.46299,-0.87779 0.71743,-0.71742 1.16209,-2.03989 2.0482,-2.926 0.1463,-0.1463 0.7315,0.1463 0.8778,0 0.36087,-0.36087 -0.26334,-0.55594 -0.2926,-0.5852 -0.2926,-0.2926 0.2926,-1.463 0,-1.75559 -1.35225,-1.35225 -1.99339,-3.16379 -3.21859,-4.38899 -1.55303,-1.55303 -4.32734,3.57285 -5.85199,2.04819 -0.31329,-0.31329 -1.49647,-0.94473 -1.7556,-1.463 -0.6261,-1.25219 -0.62728,-2.09028 -1.463,-2.92599 -0.3008,-0.30081 -2.07351,0.45156 -2.34079,0.5852 -2.14874,1.07437 -4.42024,1.33232 -6.43719,2.34079 -1.3754,0.6877 -4.2035,-0.18549 -6.14458,1.7556 -3.19891,3.19891 3.43174,3.29804 0,6.72978 -0.37555,0.37555 -0.30391,1.1817 -0.58521,1.463 -0.19044,0.19046 -4.96102,-0.61152 -5.55938,0.58521 -0.80283,1.60563 2.29107,4.14611 0,6.43718 -2.50832,2.50832 -10.31929,-1.96989 -12.28917,0 -1.55437,1.55436 -2.95947,2.99293 -4.0964,5.26679 -1.02615,2.05231 -4.46351,2.78243 -5.55939,4.97419 -0.80511,1.61022 -0.39376,4.00067 -2.34079,4.97419 -1.7813,0.89064 -9.89457,-0.34641 -9.94839,-0.2926 -1.22564,1.22565 -2.23168,4.17078 -3.21859,6.14458 -2.81748,5.63496 -7.18492,-3.13732 -11.11877,-1.17039 -1.53012,0.76505 -4.09049,1.45117 -4.97419,3.21859 -0.0899,0.17977 -0.65294,1.98046 -1.463,1.1704 -0.1767,-0.1767 0,-1.47812 0,-1.7556 -2.15458,-1.34708 -11.76013,-0.6975 -9.94838,2.92599 0.62826,1.25654 5.09767,5.93656 2.34079,7.31499 -0.79068,0.39535 -8.32125,-0.64943 -9.36318,-1.17039 -1.79011,-0.89506 -4.99732,0.9229 -6.72978,1.17039 -0.6819,0.0974 -3.59812,-0.20567 -4.09639,0.2926 -0.14631,0.1463 0.1463,0.7315 0,0.8778 -5.7643,5.7643 0.14207,2.99703 4.68158,5.26679 0.33174,0.16587 2.76844,2.20576 2.3408,2.63339 -1.83792,1.83793 -6.75156,0.74239 -9.36318,2.0482 -1.22171,0.61085 -2.14465,1.88528 -3.51119,2.3408 -0.86627,0.28876 -3.14134,-0.0773 -3.80379,0.58519 -0.39014,0.39014 -0.19508,1.36547 -0.5852,1.7556 -1.23739,1.23739 -3.58384,2.32586 -5.55939,3.51119 z"
       id="path4001"
       inkscape:connector-curvature="0" />
    <path
       style="fill:none;stroke:#000000;stroke-width:0.82759613px;stroke-linecap:butt;stroke-linejoin:miter;stroke-opacity:1"
       d="m 354.86151,295.85569 c 10.00928,-10.42309 33.40327,-8.39665 40.12792,-1.672 0.35799,0.35799 2.90325,7.4785 3.34399,8.35998"
       id="path3974"
       inkscape:connector-curvature="0" />
    <path
       style="fill:#eb4c59;fill-opacity:1;stroke:#000000;stroke-width:0.82759613px;stroke-linecap:butt;stroke-linejoin:miter;stroke-opacity:1"
       d="m 380.61026,269.06194 c -7.45133,-0.15272 -11.66748,7.45099 -14.21197,12.53997 -3.29127,6.58252 5.48429,14.68028 9.19597,18.39196 3.91501,3.91501 18.70971,-3.66172 20.89996,-5.85199 0.56615,-0.56614 9.25376,0.77823 11.70398,-1.67199 1.47068,-1.47068 1.672,-3.85956 1.672,-6.68798 0,-12.84224 -18.05174,-18.96161 -29.25994,-16.71997 z"
       id="path3953"
       inkscape:connector-curvature="0" />
    <path
       style="fill:none;stroke:#000000;stroke-width:0.82759613px;stroke-linecap:butt;stroke-linejoin:miter;stroke-opacity:1"
       d="m 371.41427,276.58592 c -5.72203,20.83569 39.18634,7.41841 28.42395,-3.34399"
       id="path3955"
       inkscape:connector-curvature="0" />
    <path
       style="fill:none;stroke:#000000;stroke-width:0.82759613px;stroke-linecap:butt;stroke-linejoin:miter;stroke-opacity:1"
       d="m 376.43027,276.58592 c 14.28344,-13.36169 26.54253,3.344 8.35997,3.344"
       id="path3957"
       inkscape:connector-curvature="0" />
    <path
       style="fill:none;stroke:#000000;stroke-width:0.82759613px;stroke-linecap:butt;stroke-linejoin:miter;stroke-opacity:1"
       d="m 319.58238,340.9578 c 7.92167,-7.48897 22.68648,-15.65492 27.58794,-5.85199"
       id="path3970"
       inkscape:connector-curvature="0" />
    <path
       style="fill:none;stroke:#000000;stroke-width:0.82759613px;stroke-linecap:butt;stroke-linejoin:miter;stroke-opacity:1"
       d="m 314.56639,297.48588 c 1.75423,-4.63874 11.24405,-10.4919 20.06396,-1.67199 1.18228,1.18227 -1.18228,3.8337 0,5.01598 0.55733,0.55734 2.78666,-0.55733 3.34399,0 1.44983,1.44983 2.06396,4.57196 3.34399,5.85199"
       id="path3972"
       inkscape:connector-curvature="0" />
    <path
       style="fill:none;stroke:#000000;stroke-width:0.82759613px;stroke-linecap:butt;stroke-linejoin:miter;stroke-opacity:1"
       d="m 326.27036,270.73393 c 0.0327,-4.42604 13.72298,-10.69448 16.71998,-9.19598 1.87487,0.93744 2.22516,3.89717 3.34399,5.01599 0.27762,0.27763 1.89372,-0.83599 2.50799,-0.83599 2.42478,0 10.71086,7.36686 11.70398,8.35998"
       id="path3976"
       inkscape:connector-curvature="0" />
    <path
       style="fill:#f6bcaa;fill-opacity:1;stroke:none"
       d="m 319.67347,463.15527 c 4.21075,-3.95398 -2.85112,3.26491 2.06899,-1.6552 2.02212,-2.02211 5.48633,-1.91557 7.44836,-2.89658 1.95982,-0.97991 3.0004,-2.94849 4.55178,-3.72419 4.6888,-2.34439 8.4829,-5.27594 13.65534,-7.86216 0.99383,-0.49691 1.49772,-1.91151 2.06899,-2.48279 2.95058,-2.95058 6.15519,-3.6724 8.68976,-6.20697 3.42386,-3.42386 5.85651,-5.85651 8.68976,-8.68976 1.74871,-1.74871 9.81763,-3.61066 11.58634,-5.37937 0.86106,-0.86105 9.14025,-7.88051 10.75875,-8.68976 1.70692,-0.85346 4.87899,-1.1548 6.20697,-2.48279 2.70169,-2.70169 4.63913,-4.80235 9.10356,-7.03457 1.51073,-0.75536 1.92212,-2.20245 3.31038,-2.89658 5.22793,-2.61396 11.02272,-4.47687 16.13813,-7.03457 3.64804,-1.82402 6.32062,-3.9879 9.93115,-5.79317 0.81588,-0.40794 2.09907,-0.0151 2.89659,-0.4138 2.0414,-1.0207 4.60096,-2.53197 5.79317,-3.72418 2.11979,-2.11979 3.28176,-4.10936 4.96558,-5.79317 1.32902,-1.32902 0,-11.24334 0,-13.24154 0,-5.62459 -1.17998,-17.91615 1.24139,-22.7589 1.50182,-3.00364 -1.09027,-8.1644 0.4138,-11.17254 2.16339,-4.32679 3.0827,-34.98673 0,-38.06942 -0.3884,-0.3884 -1.0391,0.31265 -1.2414,0.41379 -3.19551,1.59776 -0.0467,5.88652 -1.24139,8.27597 -1.53469,3.06938 -4.90368,2.42089 -7.03457,4.55177 -2.82872,2.82874 3.21266,10.00601 2.48279,13.65534 -1.00053,5.00265 -3.54374,9.98407 -5.79317,14.48293 -1.42465,2.8493 -1.93165,6.20876 -2.89659,9.10356 -1.06482,3.19447 4.23412,3.82032 5.37938,4.96558 1.14135,1.14135 1.67202,3.34405 2.48279,4.96557 1.72365,3.44731 -8.59515,7.67294 -9.93116,10.34495 -2.16573,4.33148 4.8749,5.55084 -2.06899,10.75875 -10.3221,7.74158 -16.78933,-0.51215 -27.31067,1.2414 -9.79487,1.63248 2.72638,11.09135 -2.48279,12.82774 -3.27298,1.09099 -7.11689,0.16538 -10.34495,1.24139 -1.36417,0.45472 -2.38211,2.03543 -3.72418,2.48279 -5.89145,1.96382 -11.66076,0.18754 -18.20712,4.55178 -4.08996,2.72664 1.17771,9.29463 0,12.82774 -0.56981,1.70946 -1.22403,3.68945 -2.06899,5.37937 -1.71291,3.42583 -7.59489,6.08624 -9.10355,9.10356 -1.00837,2.01673 -1.66757,5.24969 -3.72419,6.62077 -1.86214,1.24143 -4.65956,1.76298 -6.20697,3.31038 -3.03632,3.03633 -5.01884,6.67404 -7.86216,9.51736 -2.06399,2.06399 -4.96072,3.85888 -7.86216,5.79317 -1.92044,1.28029 -2.09475,2.5343 -2.89659,4.13798 -0.59991,1.19982 -6.66628,6.25249 -7.86216,7.44837 z"
       id="path4005"
       inkscape:connector-curvature="0" />
    <path
       style="fill:#eb4c59;fill-opacity:1;stroke:#000000;stroke-width:0.82759613px;stroke-linecap:butt;stroke-linejoin:miter;stroke-opacity:1"
       d="m 317.91038,438.76959 c 5.88532,-6.66594 27.5021,-18.30611 39.29192,-30.09594 3.61388,-3.61387 8.64857,-3.63257 11.70398,-6.68798 5.51597,-5.51598 11.58676,-8.24277 16.71997,-13.37597 1.26349,-1.2635 12.5135,-4.98952 15.88396,-8.35999 1.87341,-1.87341 7.58335,-2.11967 10.03198,-3.34399 7.30191,-3.65096 13.97528,-8.95929 18.39197,-13.37598 3.77834,-3.77834 12.12147,-5.43348 15.04797,-8.35998 3.21938,-3.21939 8.8946,-7.29074 5.85198,-13.37597 -1.87258,-3.74518 -7.11959,2.1036 -7.52398,2.50799 -7,7 -20.20887,11.0129 -28.42395,19.22796 -2.87906,2.87906 -7.45484,3.27487 -10.03198,5.85199 -3.52887,3.52888 -12.68837,3.49239 -15.88396,6.68799 -7.83905,7.83906 -21.3679,16.53594 -33.43994,22.57195 -5.44535,2.72268 -13.91852,9.73854 -17.55596,13.37598 -5.69851,5.69851 -12.6801,5.99212 -18.39196,11.70398 -1.42087,1.42086 -2.75913,4.43111 -4.17999,5.85198 -2.60402,2.60401 1.48143,7.48504 2.50799,9.19598 z"
       id="path3978"
       inkscape:connector-curvature="0" />
    <path
       style="fill:#e84b58;fill-opacity:1;stroke:#000000;stroke-width:0.82759613px;stroke-linecap:butt;stroke-linejoin:miter;stroke-opacity:1"
       d="m 314.56639,407.00166 c 2.92826,-1.59453 18.61848,-9.42249 25.91595,-16.71996 2.64311,-2.64312 9.16831,-4.15233 11.70397,-6.68799 1.26208,-1.26208 5.36881,-1.18882 6.68799,-2.508 2.15684,-2.15684 7.87514,-2.85914 10.03198,-5.01598 4.24248,-4.24249 10.96602,-6.78603 15.88396,-11.70398 7.77987,-7.77987 18.51628,-13.43813 28.42395,-18.39197 11.92365,-5.96182 29.16601,-13.28203 37.61992,-21.73595 0.52232,-0.52232 5.73326,-6.80672 3.34399,-9.19598 -1.4133,-1.41331 -26.14231,14.21197 -29.25993,14.21197 -0.89865,0 -27.4171,16.54912 -30.09595,19.22796 -1.54238,1.54238 -5.63889,1.4589 -7.52398,3.34399 -3.24293,3.24295 -7.72402,6.88803 -11.70398,10.86798 -3.39054,3.39054 -16.30188,5.43391 -19.22795,8.35998 -1.8963,1.89629 -9.94788,4.09589 -10.86799,5.016 -6.5283,6.5283 -15.65501,9.80302 -22.57195,16.71996 -1.46548,1.46548 -2.54513,0.0372 -4.17999,1.672 -3.51014,3.51015 -4.17999,7.03171 -4.17999,12.53997 z"
       id="path3980"
       inkscape:connector-curvature="0" />
    <path
       style="fill:#b33540;fill-opacity:1;stroke:#000000;stroke-width:0.82759613px;stroke-linecap:butt;stroke-linejoin:miter;stroke-opacity:1"
       d="m 315.40239,433.75361 c 2.62817,-1.77379 -8.35998,-32.63422 -8.35998,-40.96393 0,-1.26048 -1.19078,-13.37597 0,-13.37597 1.16663,0 1.67199,5.72634 1.67199,7.52399 0,5.89461 10.10375,38.2765 6.68799,46.81591 z"
       id="path3997"
       inkscape:connector-curvature="0" />
    <path
       style="fill:#c43845;fill-opacity:1;stroke:none"
       d="m 369.11416,290.32967 c -0.59312,1.89915 3.01976,5.70945 5.37937,8.06906 0.94637,0.94637 3.772,1.28921 4.34488,1.86209 0.45496,0.45496 2.35234,-0.24511 2.68969,-0.41379 0.87341,-0.43671 2.8444,-0.36161 3.51728,-1.0345 1.55079,-1.55078 4.76517,-1.96878 6.62077,-2.89659 0.44595,-0.22297 3.21642,-2.38882 3.51729,-2.68968 0.79899,-0.799 10.40636,-0.26831 11.37944,-1.2414 0.29022,-0.29021 1.10571,-0.69191 1.4483,-1.03449 0.57943,-0.57943 0.28279,-2.55869 0.82759,-3.10349 0.38022,-0.38022 0.14471,-0.9101 0.4138,-1.44829 1.68462,-3.36924 -2.22099,-7.80725 -3.51728,-9.10356 -0.1607,-0.16069 -0.0727,3.24881 -0.2069,3.51729 -0.22678,0.45355 -0.30798,1.75627 -0.6207,2.06899 -1.25636,1.25636 -2.43574,2.43574 -3.51728,3.51728 -0.71077,0.71076 -3.29217,0.43201 -3.93108,-0.2069 -0.15201,-0.152 -1.37063,-1.31906 -1.4483,-1.24139 -0.70459,0.70459 -0.67635,2.33154 -1.44829,3.10348 -0.28771,0.28772 -1.28223,0.0204 -1.65519,0.2069 -0.88018,0.44009 -1.81089,0.802 -2.68969,1.24139 -1.07307,0.53654 -1.06092,1.77185 -2.06899,2.27589 -0.94466,0.47234 -13.94312,1.5113 -14.89673,1.0345 -1.2147,-0.60735 -1.80629,-1.3925 -2.48279,-2.06899 -0.40214,-0.40214 -1.12716,-0.20258 -1.65519,-0.4138 z"
       id="path3999"
       inkscape:connector-curvature="0" />
    <path
       style="fill:#e88de3;fill-opacity:1;stroke:none"
       d="m 456.8951,256.64736 c 0.2926,0.39014 1.26793,0.8778 0.8778,1.1704 -0.39014,0.2926 -0.8778,-1.65806 -0.8778,-1.1704 0,0.83332 1.46705,1.75155 0.8778,2.3408 -0.8778,0.8778 -1.7556,1.7556 -2.6334,2.63339 -1.10241,1.10242 -1.41341,2.87642 -2.34079,3.8038 -0.85757,0.85756 -1.32773,3.08333 -2.3408,4.09639 -0.2197,0.2197 -0.78067,-1.36588 -0.8778,-1.46299 -0.64843,-0.64844 -1.17919,-3.8126 -2.3408,-4.9742 -2.24628,-2.24628 -6.28025,-0.42827 -7.31498,-1.463 -0.98952,-0.98951 -2.1424,-2.38789 -3.80379,-3.21859 -0.76782,-0.38391 -11.22456,2.73918 -11.41138,2.926 -0.31683,0.31683 -0.88389,0.88084 -1.46299,1.17039 -2.34883,1.17442 -5.62251,0.22949 -7.31499,-1.463 -0.68373,-0.68372 -2.59605,0.5852 -2.92599,0.5852 -0.62585,0 -3.21304,-0.59075 -3.51119,-0.29259 -0.0847,0.0847 -1.35336,0.69483 -1.7556,0.29259 -0.76199,-0.76198 -1.3131,-1.89829 -2.3408,-2.92599 -0.79335,-0.79335 -1.77042,-0.89262 -2.34079,-1.463 -0.49639,-0.49638 -9.3088,3.27299 -10.53358,2.0482 -1.56126,-1.56126 -6.68488,-3.63504 -8.77798,-4.68159 -2.01459,-1.00729 -2.62499,-2.19029 -5.26679,-3.51119 -0.52957,-0.26478 -2.74256,0.98695 -2.926,1.17039 -2.08961,2.08961 -11.34535,1.98218 -11.41138,2.0482 -0.7187,0.7187 -2.2403,1.26646 -3.21859,1.7556 -1.26347,0.63174 -8.73904,-4.36952 -10.53358,-5.26679 -1.26894,-0.63448 -2.80945,0.76125 -3.21859,1.17039 -1.03481,1.03481 -4.88666,-0.77526 -5.85199,-0.29259 -0.21417,0.10708 -2.34079,0.83021 -2.34079,0.8778 0,0.53632 -0.66846,2.13145 -1.1704,2.63339 -0.81278,0.81277 -2.83974,0.79154 -3.5112,1.46299 -0.3118,0.31182 -6.31157,-0.22979 -7.02238,-0.58519 -1.16278,-0.58139 -4.61644,0.65035 -4.97419,0.2926 -0.98886,-0.98887 -4.05843,-1.1704 -5.85199,-1.1704 -1.20022,-0.76474 -4.30327,-5.9377 -3.80379,-6.43719 0.95935,-0.95935 4.69763,1.47102 5.26678,1.7556 0.91778,0.45889 4.68096,-6.4e-4 5.2668,0.5852 0.0292,0.0293 0.22432,0.65347 0.58519,0.29259 1.02996,-1.02995 2.08402,-2.9618 3.2186,-4.09638 1.46953,-1.46953 3.13104,2.42835 4.09639,1.46299 0.71785,-0.71785 4.11883,-2.47588 5.55939,-1.7556 0.34423,0.17212 1.21598,1.41743 1.7556,0.8778 3.11872,-3.11872 4.34007,-1.47929 7.90018,-0.2926 2.76043,0.92015 4.40881,-2.23665 6.72979,-1.463 1.49223,0.49741 3.18569,1.463 4.68159,1.463 3.80343,0 4.63338,-1.5766 8.48538,-0.29259 0.56505,0.18834 2.48593,1.61046 3.21859,0.8778 1.06306,-1.06306 -1.82552,-3.44126 -1.17039,-4.0964 0.5353,-0.5353 10.74106,-1.25551 11.11878,-0.8778 0.64682,0.64683 0.1717,2.39162 0.58519,3.2186 0.32587,0.65172 5.94995,0.58519 7.02238,0.58519 0.36538,0 0.91749,0.54552 1.17041,0.29261 0.35779,-0.35781 1.65774,-0.6821 2.04819,-1.463 0.12023,-0.24045 0.83008,-1.1704 0.8778,-1.1704 0.55801,0 1.61531,1.32271 2.0482,1.7556 1.17016,1.17016 4.13215,3.47543 3.51119,4.09639 1.2557,0.0977 2.06505,-0.29681 3.21859,-0.5852 1.27464,-0.31866 4.55117,-0.32434 5.2668,-1.75559 0.42241,-0.84485 -0.1151,-2.11063 0.29259,-2.926 0.86532,-1.73065 3.66087,-8.11794 6.43719,-6.72978 4.28627,2.14313 2.14056,6.82214 3.80379,8.48537 1.41504,1.41504 5.37666,0.40248 6.72979,1.7556 0.66272,0.66271 0.94918,1.80318 1.7556,2.3408 1.29211,0.86141 4.85895,1.05516 5.55938,1.75559 0.29225,0.29225 1.14885,1.26075 1.7556,1.463 5.79173,1.93058 1.96844,-6.06484 2.92599,-7.02238 0.3807,-0.3807 1.10299,-1.02793 1.7556,-1.463 1.11344,-0.7423 2.52759,-0.71801 3.80379,-0.2926 3.30488,1.10162 2.62193,5.54792 3.5112,6.43718 1.54105,1.54106 1.73136,-4.99842 4.09639,-2.63339 0.33369,0.3337 1.71449,0.5441 2.04819,0.8778 0.11401,0.11401 0,0.99184 0,1.17039 0,2.96849 -1.44967,2.02155 -2.3408,3.8038 -0.92224,1.84448 4.47035,2.71474 4.6816,2.92599 0.21479,0.2148 1.58863,1.83909 2.34079,1.463 1.38958,-0.69479 0.43275,-1.82567 2.6334,-2.926 z"
       id="path4003"
       inkscape:connector-curvature="0" />
    <path
       style="fill:#6a1d1b;stroke:#000000;stroke-width:1px;stroke-linecap:butt;stroke-linejoin:miter;stroke-opacity:1;fill-opacity:1"
       d="m 229.1026,272.4234 c 6.3491,7.46093 -5.50389,-5.50388 3.53553,3.53554 1.99325,1.99325 1.2897,7.65366 2.82843,9.19238 2.63073,2.63073 4.34512,6.46644 7.07107,9.19239 0.35426,0.35426 0.24354,2.36486 0.7071,2.82843 1.62135,1.62134 3.79741,3.35218 4.94975,5.65685 4.19466,8.38933 12.61944,18.16782 16.26346,25.45585 3.64957,7.29916 11.32061,14.14904 16.97056,19.79899 2.28307,2.28306 3.32828,5.4496 4.94975,7.07107 1.392,1.392 1.10303,4.63856 2.12132,5.65685 0.4714,0.4714 2.08088,1.41421 1.41421,1.41421 -6.20459,0 -7.42542,6.71832 -10.6066,9.8995 -1.64858,1.64857 0.519,7.07107 -0.70711,7.07107 -0.52704,0 -0.4714,-0.94281 -0.7071,-1.41422 -2.35919,-4.71837 -5.44446,-7.35337 -7.77818,-12.02081 -1.17406,-2.34813 -2.74513,-4.15935 -4.24264,-5.65686 -2.16583,-2.16583 -2.507,-8.16385 -4.94975,-10.6066 -4.59438,-4.59438 -7.21745,-10.04588 -12.02081,-14.84924 -1.3911,-1.39109 -1.1316,-3.96003 -2.82843,-5.65685 -1.69581,-1.69582 -5.88961,-4.70816 -7.07107,-7.07107 -4.26148,-8.52297 -7.58782,-18.90153 -12.72792,-24.04163 -2.70404,-2.70404 -5.62352,-11.24705 -7.77817,-15.55635 -0.49918,-0.99836 -4.03467,-5.86483 -3.53554,-6.36396 0.40067,-0.40067 4.9452,2.47714 7.07107,1.41421 3.24823,-1.62412 3.03655,-2.52904 7.07107,-4.94975 z"
       id="path4190"
       inkscape:connector-curvature="0" />
    <path
       style="fill:#e7e1a3;stroke:none;stroke-width:1px;stroke-linecap:butt;stroke-linejoin:miter;stroke-opacity:1;fill-opacity:1"
       d="m 504.5,210.36218 c 0.16667,-0.66666 -0.16667,-2.16666 0.5,-2 0.66667,0.16667 -0.5,2.68719 -0.5,2 0,-5.72509 4.61392,-3.22784 6,-6 0.89395,-1.78789 -1.5,-1.56932 -1.5,-2.5 0,-0.79182 3.03153,-0.26576 3.5,-0.5 0.95596,-0.47798 0.50528,-2.00528 1,-2.5 0.58661,-0.58661 1.87143,-1.37142 2.5,-2 1.48931,-1.4893 2.4229,-3.4229 3.5,-4.5 2.32231,-2.32231 4.98635,0.25683 7.5,-1 1.03416,-0.51708 1.33181,-1.33181 2,-2 0.31551,-0.31551 17.20379,-1.70379 19,-3.5 1.37331,-1.37331 4.11327,2.44337 6,1.5 3.83486,-1.91743 7.96013,-1.26993 11.5,0.5 1.44497,0.72249 5.95778,-2.54222 7,-1.5 3.22306,3.22306 7.44189,2.44189 8.5,3.5 0.33333,0.33334 0.16667,1.16667 0.5,1.5 1.05514,1.05514 3.62624,-1.37376 4.5,-0.5 0.60864,0.60864 0.17085,1.83543 1.5,2.5 4.28159,2.1408 7.11734,2.61734 10,5.5 1.14507,1.14507 -3.96858,-0.46858 -4.5,-1 -0.4082,-0.4082 -6,-0.99356 -6,-1.5 0,-0.67965 1.04978,1.5 0.5,1.5 -0.76264,0 -2.3031,-1.65155 -3,-2 -1.10122,-0.55061 -2.96307,-2.26846 -4.5,-1.5 -1.34145,0.67073 -0.94835,3 -2,3 -1.3764,0 -2.1614,-3 -4,-3 -2.44628,0 -2.10163,2.89837 -2.5,2.5 -1.41154,-1.41154 -3.07427,-4.5 -5.5,-4.5 -1.75686,0 -1.13282,2.13283 -2,3 -0.67277,0.67277 -3.83635,-3.08182 -6,-2 -1.33841,0.66921 -12.15857,2.92071 -13,2.5 -1.26807,-0.63403 -4.80449,-1.84775 -6.5,-1 -1.66211,0.83106 -1.21512,3.21512 -2,4 -0.55134,0.55134 -6.23977,-1.56506 -8.5,-1 -4.77422,1.19356 -6.68559,3.1856 -9,5.5 -1.22116,1.22116 -4.71186,0.21186 -6,1.5 -1.34908,1.34908 1.61539,4.88461 1,5.5 -0.49316,0.49316 -2.13561,0.13562 -2.5,0.5 -3.0522,3.0522 -2.4967,3.9934 -4.5,8 -1.39758,2.79516 -3.43326,1.93327 -4.5,3 -0.0919,0.0919 -0.52508,2 -0.5,2 1.14574,0 -0.88,-3.12 0,-4 1.18989,-1.18988 -0.5,-0.79848 -0.5,-1.5 0,-0.82889 1.23052,-1.23052 1.5,-1.5 0.98787,-0.98786 -0.41281,-3.58719 0,-4 0.11785,-0.11785 0.33333,0 0.5,0 0.33333,-0.83333 0.66667,-1.66666 1,-2.5 z"
       id="path4198"
       inkscape:connector-curvature="0" />
    <path
       style="fill:none;stroke:#000000;stroke-width:1px;stroke-linecap:butt;stroke-linejoin:miter;stroke-opacity:1;fill-opacity:1"
       d="m 518.30834,197.62996 c -3.48619,1.19373 -16.41551,16.69463 -14.5033,27.85057 0.12028,0.70169 -0.6849,1.33403 -0.15492,2.05573 1.90055,2.5881 3.37064,4.59001 5.29405,7.20923 2.06796,2.81607 5.87446,4.19081 8.25092,6.7024 12.55003,13.26364 37.92159,9.7333 54.44845,6.90048 9.47935,-1.62483 15.01497,-3.53575 22.31749,-8.8983 0.52869,-0.38824 1.97791,-0.34715 2.37959,-0.91517 4.32135,-6.10923 7.17019,-12.88422 9.27934,-19.85306 1.62208,-5.35952 -4.33778,-11.19597 -6.47665,-14.10861 -4.55177,-6.19842 -9.32455,-7.02876 -15.09388,-11.10968 -1.85657,-1.31325 -4.87999,-0.85349 -6.42058,-1.94322 -0.53662,-0.37958 -7.43302,-0.061 -8.80018,-1.02805 -1.16982,-0.82747 -11.78862,-0.11047 -13.40444,-1.25342 -2.31398,-1.6368 -9.49835,2.96588 -12.32032,2.11179 -1.42135,-0.43017 -3.15754,0.67973 -4.51978,0.26744 -1.56512,-0.47369 -3.50692,0.80761 -5.0126,0.3519 -5.68346,-1.72012 -11.96846,2.82705 -15.26319,5.65997 z"
       id="path4192"
       inkscape:connector-curvature="0" />
    <path
       style="fill:#d1c765;stroke:#000000;stroke-width:1px;stroke-linecap:butt;stroke-linejoin:miter;stroke-opacity:1;fill-opacity:1"
       d="m 548.5,219.36218 c -0.66667,0.66667 -1.33333,1.33334 -2,2 0.66667,-0.66666 2.66667,-2.66666 2,-2 -3.04088,3.04088 -4.74235,5.24236 -6.5,7 -3.18671,3.18671 11.69766,5.99415 6.5,-7 z"
       id="path4200"
       inkscape:connector-curvature="0" />
    <path
       style="fill:#d1c765;stroke:#000000;stroke-width:1px;stroke-linecap:butt;stroke-linejoin:miter;stroke-opacity:1;fill-opacity:1"
       d="m 548.75643,213.24135 c -0.73868,-0.38574 -2.60178,-0.41857 -2.21603,-1.15725 0.38575,-0.73868 3.00184,1.43466 2.21603,1.15725 -17.27558,-6.09867 1.19146,-12.58575 0,0 z"
       id="path4204"
       inkscape:connector-curvature="0"
       inkscape:transform-center-y="-4.1155873" />
    <path
       style="fill:#d1c765;stroke:#000000;stroke-width:1px;stroke-linecap:butt;stroke-linejoin:miter;stroke-opacity:1;fill-opacity:1"
       d="m 555,209.86218 c 0.16667,-0.66666 -0.16667,-2.16666 0.5,-2 0.66667,0.16667 -0.5,2.68719 -0.5,2 0,-9.01359 -0.24537,-1.25463 1,-2.5 0.62792,-0.62792 1.00932,-2.00932 2,-3 8.50697,-8.50696 5.76264,9.00506 -3,5.5 z"
       id="path4206"
       inkscape:connector-curvature="0" />
    <path
       style="fill:#d5d9ff;stroke:none;stroke-width:1px;stroke-linecap:butt;stroke-linejoin:miter;stroke-opacity:1;fill-opacity:1"
       d="m 489.67145,275.25183 c -0.8629,2.06445 0.32093,8.45266 3.53553,11.66726 0.91707,0.91707 3.18021,0.35178 4.24264,1.41421 1.78422,1.78423 5.6717,2.12133 8.83884,2.12133 0.36538,0 3.87414,1.0756 4.59619,0.35355 0.17201,-0.17201 9.07468,-3.29969 9.19239,-3.18198 3.60816,3.60816 4.88992,7.71835 8.13173,10.96015 1.11326,1.11327 3.67022,1.41422 5.65685,1.41422 1.12723,0 4.84251,0.81434 5.65685,0 0.44088,-0.44087 1.87801,-0.4638 2.47488,-1.06066 1.39543,-1.39544 3.54428,-3.19073 4.94975,-4.5962 1.08154,-1.08155 1.45479,-2.51546 2.47487,-3.53553 1.24556,-1.24556 4.6742,4.98875 5.3033,5.3033 1.87475,0.93738 2.91273,2.34025 4.59619,3.18198 2.52938,1.26469 20.14882,0.004 21.21321,-1.06066 1.24909,-1.24909 2.17685,-3.59107 3.53553,-4.94975 1.08688,-1.08687 0.52858,-3.00345 1.76777,-4.24264 0.47547,-0.47547 1.59272,-0.88561 2.12132,-1.41421 0.50212,-0.50212 4.96357,0.36046 5.65685,0.7071 0.89972,0.44986 3.21441,0 4.24264,0 0.9436,0 2.69114,0.28491 3.53554,0.70711 0.96432,0.48216 11.06063,-2.22179 11.66726,-2.82843 0.60041,-0.60041 0.35355,-5.74913 0.35355,-6.71751 0,-0.11997 1.51917,-3.07702 1.06066,-3.53553 -0.73445,-0.73446 -1.06066,-6.35379 -1.06066,-7.42462 0,-0.71687 -0.86045,-1.61443 -0.35355,-2.12133 0.55864,-0.55863 8.05578,0.78306 9.54594,-0.7071 5.2155,-5.2155 5.65686,-6.2221 5.65686,-15.2028 0,-1.8624 0.21181,-3.67727 -0.70711,-4.59619 -3.56226,-3.56226 -8.3968,-7.68969 -12.02082,-11.31371 -0.20053,-0.20054 -3.90358,-2.46037 -4.24264,-2.12132 -0.73897,0.73897 2.84947,9.15031 1.76777,11.31371 -2.92947,5.85895 -2.59393,4.71524 -7.07107,9.19239 -1.73177,1.73176 -3.04186,4.45607 -4.59619,6.0104 -1.16018,1.16018 1.15103,4.77694 1.76776,6.01041 1.22408,2.44815 -0.87231,6.69437 -1.76776,8.48528 -1.46794,2.93587 -12.5522,10.16414 -16.61701,8.13173 -1.29623,-0.64811 -6.88838,-2.30401 -8.13173,-1.06066 -3.43725,3.43725 -3.80107,11.31371 -10.96015,11.31371 -0.33529,0 -1.90782,0.21351 -2.12132,0 -0.55912,-0.55912 -1.43948,-1.42685 -2.12133,-1.76777 -1.79087,-0.89544 -9.85133,-7.47278 -12.02081,-5.3033 -0.42907,0.42907 -1.06903,0.35774 -1.76777,0.70711 -0.9208,0.4604 -2.07773,2.03414 -2.47487,2.82842 -1.38048,2.76097 -6.10527,3.53554 -9.19239,3.53554 -6.70021,0 -8.1183,-6.35053 -11.66726,-9.8995 -0.83205,-0.83205 -2.73874,-1.32452 -3.53554,-2.12132 -2.71927,-2.71927 -7.64083,0.99199 -9.89949,2.12132 -1.58405,0.79203 -4.18193,0.6464 -5.3033,1.76777 -0.41248,0.41248 -2.0624,-0.41248 -2.47487,0 -0.0717,0.0717 -0.95715,0.81063 -1.41422,0.35355 -1.70123,-1.70123 -6.29883,-1.70264 -8.48528,-3.88908 -0.2357,-0.23571 -0.11785,-0.82496 -0.35355,-1.06066 -0.78997,-0.78997 -2.45974,-1.01526 -2.82843,-2.12132 -0.19003,-0.57009 -0.6517,-1.24602 -0.35355,-1.76777 0.31487,-0.55103 1.53206,-1.29636 1.76776,-0.70711 0.23571,0.58926 -1.17851,0.47141 -1.76776,0.70711 z"
       id="path4316"
       inkscape:connector-curvature="0" />
    <path
       style="fill:#6a1d1b;stroke:#000000;stroke-width:1px;stroke-linecap:butt;stroke-linejoin:miter;stroke-opacity:1;fill-opacity:1"
       d="m 461.74073,343.84119 c 2.83948,-5.36425 8.12805,-9.18504 10.6066,-14.14214 0.29355,-0.5871 1.39388,-0.66644 1.76777,-1.41421 0.70047,-1.40094 1.66558,-3.0798 2.82842,-4.24264 3.41801,-3.41801 16.26346,-18.48715 16.26346,-21.21321 0,-1.23783 2.16121,-3.22187 2.82843,-3.88908 0.8872,-0.8872 1.1879,-2.95567 2.12132,-3.88909 0.0762,-0.0762 6.34079,1.39105 6.36396,1.41421 0.80461,0.80462 4.58695,-0.53495 4.94975,-0.35355 0.17284,0.0864 0.7288,0.68541 1.06066,0.35355 0.94281,-0.94281 4.00693,0.23571 4.94974,-0.7071 0.46276,-0.46276 0.72516,-0.009 1.41422,-0.35356 0.27496,-0.13748 0.90128,-0.86648 1.06066,-0.7071 0.11053,0.11053 -0.64454,0.83224 -0.35356,1.41421 0.35608,0.71215 1.41422,2.41633 1.41422,3.18198 0,0.59179 -1.22155,0.51444 -1.41422,0.70711 -1.39513,1.39513 -3.67748,4.17298 -4.59619,6.0104 -0.5201,1.04021 -1.30701,2.01412 -2.12132,2.82843 -0.17713,0.17713 -0.12177,1.18243 -0.35355,1.41422 -2.70098,2.70098 -3.52048,7.056 -6.01041,9.54594 -4.57269,4.57269 -9.69546,10.75611 -14.49569,15.55635 -1.08144,1.08143 -1.36281,3.13057 -2.47487,4.24264 -4.12938,4.12937 -6.04934,10.29197 -9.54595,13.78858 -0.26807,0.26807 -2.63714,-1.49535 -3.18198,-1.76777 -0.90416,-0.45208 -7.12318,-1.00854 -8.13172,0 -0.23571,0.2357 -0.37378,0.70711 -0.70711,0.70711 -0.39363,0 0.3468,-2.48837 -0.35355,-3.88909 -1.16797,-2.33594 -1.41185,-3.10985 -3.88909,-4.59619 z"
       id="path4333"
       inkscape:connector-curvature="0" />
  </g>
</svg>
