<?xml version="1.0" encoding="UTF-8" standalone="no"?>
<!-- Created with Inkscape (http://www.inkscape.org/) -->

<svg
   xmlns:dc="http://purl.org/dc/elements/1.1/"
   xmlns:cc="http://creativecommons.org/ns#"
   xmlns:rdf="http://www.w3.org/1999/02/22-rdf-syntax-ns#"
   xmlns:svg="http://www.w3.org/2000/svg"
   xmlns="http://www.w3.org/2000/svg"
   xmlns:sodipodi="http://sodipodi.sourceforge.net/DTD/sodipodi-0.dtd"
   xmlns:inkscape="http://www.inkscape.org/namespaces/inkscape"
   width="744.09448819"
   height="1052.3622047"
   id="svg7719"
   version="1.1"
   inkscape:version="0.48.3.1 r9886"
   sodipodi:docname="tape_drive.svg"
   inkscape:export-filename="/home/substack/media/vector/tape_drive.png"
   inkscape:export-xdpi="50"
   inkscape:export-ydpi="50">
  <defs
     id="defs7721" />
  <sodipodi:namedview
     id="base"
     pagecolor="#ffffff"
     bordercolor="#666666"
     borderopacity="1.0"
     inkscape:pageopacity="0.0"
     inkscape:pageshadow="2"
     inkscape:zoom="0.35"
     inkscape:cx="375"
     inkscape:cy="520"
     inkscape:document-units="px"
     inkscape:current-layer="layer1"
     showgrid="false"
     inkscape:window-width="1364"
     inkscape:window-height="766"
     inkscape:window-x="0"
     inkscape:window-y="0"
     inkscape:window-maximized="0" />
  <metadata
     id="metadata7724">
    <rdf:RDF>
      <cc:Work
         rdf:about="">
        <dc:format>image/svg+xml</dc:format>
        <dc:type
           rdf:resource="http://purl.org/dc/dcmitype/StillImage" />
        <dc:title></dc:title>
      </cc:Work>
    </rdf:RDF>
  </metadata>
  <g
     inkscape:label="Layer 1"
     inkscape:groupmode="layer"
     id="layer1">
    <path
       inkscape:connector-curvature="0"
       style="fill:#382b2b;fill-opacity:1;stroke:#ffffff;stroke-width:1px;stroke-linecap:butt;stroke-linejoin:miter;stroke-opacity:0"
       d="m 273.62373,812.09378 c -2.7103,2.7103 -10.5165,6.06 -15,8.75 -17.8749,10.7251 -37.8795,29.21683 -53.7812,41.28133 0,5.682 -1.25,11.6444 -1.25,17.5 0,4.1865 -2.6642,23.6172 0,26.2813 2.1838,2.1838 12.8587,2.1974 19.4375,1.125 10.4298,4.1042 49.2163,-1.125 58.0937,-1.125 24.7886,0 167.4563,1.3188 175.0938,-2.5 13.6695,-6.8348 42.5788,7.4211 52.5312,-2.5313 3.1848,-3.1849 67.3147,2.7165 70.0313,0 4.3297,-4.3297 5,-69.86793 5,-82.53133 l -322.7813,39.81263 12.625,-46.06263 z m -68.7812,50.03133 c 0,-1.7187 -2.9175,4.5832 -1.25,5 1.6674,0.4169 0.8332,-3.3325 1.25,-5 z"
       id="path7579" />
    <path
       inkscape:connector-curvature="0"
       style="fill:#382b2b;fill-opacity:1;stroke:#ffffff;stroke-width:0.35983387px;stroke-linecap:butt;stroke-linejoin:miter;stroke-opacity:0"
       d="m 271.56133,171.03133 c -18.9964,24.611 -49.7649,51.59345 -63.8126,76.15625 -10.7174,18.7404 -25.5987,43.41625 -30.875,56.53125 -1.9693,4.8962 3.2502,70.4357 3.25,80.24995 0,36.0173 -3.2524,98.2652 3.2188,130.4376 1.0781,5.3597 1.4153,10.9271 1.4688,16.5624 -0.447,0.7422 -0.844,1.5005 -1.2188,2.25 -1.5468,3.0935 1.25,71.7161 1.25,80.0313 0,8.1341 -2.6749,59.6816 0,65.0313 1.5636,3.1273 4.1391,43.003 2.5,46.2812 -1.8192,3.6385 -3.1874,59.9063 -1.25,63.7812 4.1067,8.2132 2.5,33.3274 2.5,43.75 0,6.55053 3.0899,41.87123 5,43.78133 2.8907,2.8907 10.9016,1.5937 15.0938,0.031 0.6452,0.2267 7.1641,0.2108 7.4062,-0.031 5.4243,-5.4243 26.6822,-3.5495 40.4062,-2.7813 5.0734,-3.3105 36.4081,-2.2187 42.1563,-2.2187 2.7264,0 4.789,-2.63 7.4063,-2.9687 20.6075,-23.6463 45.564,-62.50173 67.625,-84.56263 l -53.7188,-23.625 -48.4062,-588.68745 z"
       id="path7430" />
    <path
       style="fill:#6c5353;stroke:#000000;stroke-width:0.40116331px;stroke-linecap:butt;stroke-linejoin:miter;stroke-opacity:1"
       d="m 272.53003,167.25008 c -0.9948,9.8175 -6.3003,41.3797 -2.0313,54.1875 2.1795,6.5376 4.2003,15.9613 6.0313,27.5 0.1694,88.6376 2.657,176.9557 3.625,265.1562 -2.1984,11.0039 -0.1015,25.2644 0.3125,36.9063 0.05,9.2117 0.062,18.4152 0.062,27.625 0,36.286 2.0312,74.7431 2.0313,110.375 l 0,21.2187 c -0.2793,0.1814 -0.5469,0.3686 -0.8126,0.5626 0.2745,0.3154 0.5455,0.6415 0.8126,1 l 0,11.3437 c 0,5.4671 -0.7358,16.7981 0,16.0625 0.1031,-0.1032 0.2058,-0.2125 0.3124,-0.3125 -2.528,17.8359 -6.3878,107.25923 -1.75,112.00003 0.5037,0.5148 1.225,0.9378 2.0938,1.2813 -0.6546,7.708 -1.6408,19.1717 0.4062,21.2187 4.7545,4.7545 25.1127,-2.4988 32.5278,-2.4988 5.6628,0 27.4255,-0.079 30.0035,2.4988 3.4468,3.4468 138.6422,-3.5797 140.0625,-5 0.3352,-0.3352 0.7395,-0.6213 1.1562,-0.875 7.3503,0.4243 14.7464,0.6336 22.0626,0.75 10.0608,2.0104 20.2248,4.1503 24.2812,0.1563 3.1109,-0.01 6.245,-0.031 9.25,-0.031 2.5917,0 41.4852,5.0943 46.4688,0 11.0187,-11.2633 6.3778,-55.87763 4.2812,-94.06253 0.8199,-0.2827 1.4608,-0.6172 1.875,-1.0312 3.9113,-3.9114 -0.095,-80.0608 6.0312,-92.3126 4.2812,-8.562 -4.2808,-23.5315 0,-32.0937 8.0816,-16.163 2.5092,-75.2684 8.0313,-86.3125 8.3614,-16.7226 3.2553,-74.7294 8.0313,-84.2812 6.9362,-13.8728 0.07,-54.361 6,-66.2188 3.5301,-7.0605 0.5954,-17.191 4.0312,-24.0625 2.5419,-5.0838 5.2485,-35.3735 6,-36.125 13.6755,-13.6756 0.021,-106.7811 14.0625,-128.4375 -9.4309,0 -58.1331,-5.94535 -62.2187,-10.03125 -1.7558,-1.7558 -60.1888,-3.35455 -68.2188,-6.03125 -15.3613,-5.1204 -30.6446,-4.15335 -46.1562,-8.03125 -61.2309,-15.3076 -163.0907,-22.94455 -198.6563,-32.09375 z"
       id="path7336"
       inkscape:connector-curvature="0"
       sodipodi:nodetypes="cccccsscccsccccsscscccssccccsccssccssc" />
    <path
       style="fill:#382b2b;fill-opacity:1;stroke:#ffffff;stroke-width:1px;stroke-linecap:butt;stroke-linejoin:miter;stroke-opacity:0"
       d="m 298.29373,269.51888 c -2.054,-0.3387 0.5527,131.428 0,153.867 -0.8131,11.5984 -0.7469,14.6834 8.8429,22.9916 0.5122,-0.5121 11.868,-0.5121 12.3801,0 7.6159,7.6159 20.371,0.4583 30.066,5.3058 22.5435,11.2718 91.1742,-1.2804 114.9581,10.6115 5.9276,2.9639 15.0903,-1.2977 21.223,1.7686 7.0743,3.5372 19.4544,-3.5372 26.5288,0 7.8496,3.9248 63.5624,8.8429 74.2806,8.8429 2.4813,0 15.4844,2.2015 15.9172,1.7686 1.74,-1.7399 8.843,-74.9615 8.843,-84.8921 0,-9.1729 13.1968,-98.2241 12.3801,-99.0408 -2.9176,-2.9177 -31.2736,-2.3725 -37.1403,-5.3058 -14.2331,-7.1166 -80.9692,-15.5315 -86.6607,-21.223 -3.7527,-3.7527 -42.4184,1.7962 -49.5204,-5.3058 -5.2047,-5.2046 -24.9146,-0.077 -31.8346,-3.5372 -17.404,-8.702 -82.6039,-12.3801 -106.1151,-12.3801 -1.985,0 -10.8724,-5.0448 -14.1487,-1.7685 -5.5615,5.5615 -5.3808,16.9715 0,28.2973 z"
       id="path7491"
       inkscape:connector-curvature="0"
       sodipodi:nodetypes="cccssccsscscssscssc" />
    <g
       id="g7432"
       transform="matrix(1.3811736,0,0,1.3811736,-2376.9396,-1029.1684)">
      <path
         inkscape:connector-curvature="0"
         id="path7099"
         d="m 1994.8445,937.42758 c -0.6743,0.0152 -1.2606,0.0947 -1.75,0.1875 -5.3438,0.57165 -8.125,0.625 -8.125,0.625 0,0 -3.0245,0.56025 -6.5,1.71875 -9.8402,3.28001 -13.8863,8.26125 -20.3126,14.6875 -1.4275,1.42761 -2.0511,3.61345 -3.4374,5 -0.279,0.2787 -0.1466,0.91796 -0.3126,1.25 -3.5596,7.11988 -8.4807,15.15482 -9.0624,20.4375 -1.5553,4.66563 1.636,27.47967 4.375,30.21877 1.7745,1.7748 5.4521,7.866 6.875,10 2.8324,4.249 5.27,6.8324 8.4374,10 2.146,2.1457 5.0756,2.069 7.8126,3.4375 0.75,0.3751 2.9994,2.7498 3.75,3.125 2.4438,1.222 4.3034,0.1697 5.625,2.8125 0.2374,0.4753 1.364,0.7078 1.5937,0.9375 0.4585,0.4584 16.9968,-0.625 19.0625,-0.625 7.0424,0 18.6442,1.7741 22.1875,-5.3125 0.7791,-1.5581 2.5687,-2.3938 3.125,-4.0625 0.6897,-2.0691 5.3918,-4.5337 6.5625,-6.875 3.2281,-6.4563 9.0009,-11.7519 12.1875,-18.125 1.0147,-2.0295 1.1031,-5.3312 1.875,-6.87502 0.4261,-0.85221 -0.4909,-12.23178 -0.9375,-13.125 -0.9714,-1.94273 0.6551,-5.25218 -0.3125,-7.1875 -0.6533,-1.30642 0.019,-3.42965 -0.625,-4.71875 -1.1135,-2.22688 -1.6725,-4.90744 -2.8125,-7.1875 -3.1186,-6.23704 -8.8528,-13.95763 -14.0625,-16.5625 -0.5755,-0.28775 -0.8023,-1.10076 -1.25,-1.25 -1.2284,-0.40945 -3.2608,-1.44475 -4.375,-2.1875 -2.5944,-1.72963 -5.3531,-3.45103 -8.125,-4.375 -1.4154,-0.4718 -3.0017,-1.81333 -4.375,-2.5 -3.7606,-1.88027 -12.3756,-3.57536 -17.0937,-3.46875 z m 12.4062,10.34375 c 1.9132,-0.13986 7.6452,2.33266 8.75,3.4375 0.4294,0.42939 2.8125,-0.48531 2.8125,0.3125 0,1.35314 -4.8945,20.83204 -5,20.9375 -0.3347,0.33477 -0.8084,-1.43336 -0.9375,-1.5625 -0.8015,-0.8015 -2.5303,-1.90526 -3.4375,-2.8125 -0.2605,-0.26054 -0.9894,-0.052 -1.25,-0.3125 -2.6895,-2.68954 -9.3103,-1.875 -12.8125,-1.875 -0.067,0 1.1805,-1.42363 1.25,-1.5625 0.8021,-1.60422 2.7951,-2.77769 3.75,-4.6875 2.1707,-4.34137 7.8104,-7.19774 6.875,-11.875 z m -34.0938,37.0625 c 0.1346,0.0148 0.2386,0.0824 0.3126,0.15625 0.1823,0.18258 -1.25,2.96965 -1.25,3.4375 0,3.22368 1.25,5.93314 1.25,8.125 -2e-4,1.23121 1.875,2.79948 1.875,4.37502 0,0.3824 0.3808,1.0774 0.6562,1.4375 0.1855,0.014 0.2813,0.049 0.2812,0.125 0,0.2252 -0.119,0.087 -0.2812,-0.125 -0.5565,-0.043 -1.7172,0.125 -1.9062,0.125 -0.7306,0 -4.0826,-0.1463 -5,0.3125 -2.0392,1.0195 -5.0324,0 -7.1876,0 -1.1723,0 -3.9091,0.08 -5,0.625 -0.1847,0.092 -1.4063,0.7812 -1.5624,0.625 -1.4009,-1.4008 -0.6341,-11.55437 -2.1876,-14.06252 1.2733,-0.50928 3.7762,-0.96348 4.375,-1.5625 0.9562,-0.95609 4.3853,0.30741 5.625,-0.3125 1.4638,-0.73187 4.6389,-2.1875 6.25,-2.1875 0.5878,0 2.8087,-1.1971 3.75,-1.09375 z m 45.8126,19.18747 c 1.1071,0.224 6.078,5.9374 6.4062,6.5938 0.3151,0.6302 3.8905,8.297 3.75,8.4375 -0.822,0.822 -0.9444,2.5068 -1.875,3.4375 -0.4509,0.4508 -7.5053,5.9322 -8.4375,5 -0.6639,-0.664 -2.1279,-1.8154 -3.125,-2.8125 -1.1143,-1.1143 -2.6238,-1.4976 -3.4375,-3.125 -1.0698,-2.1396 -3.9003,-4.3284 -5.9375,-6.875 3.5984,0.5188 8.5619,-5.437 11.5625,-8.4375 0.5211,-0.5211 0.4165,-1.6664 0.9375,-2.1875 0.037,-0.037 0.082,-0.046 0.1563,-0.031 z"
         style="fill:#ac9393;stroke:#ffffff;stroke-width:1px;stroke-linecap:butt;stroke-linejoin:miter;stroke-opacity:0" />
      <path
         inkscape:connector-curvature="0"
         id="path7133"
         d="m 1989.2424,976.40699 c -2.1421,-0.42225 -4.5906,4.17889 -6.5655,8.12876 -0.4163,0.8325 -1.2506,1.84082 -1.2506,2.81381 0,4.78181 0.8345,8.85978 2.8138,12.81844 1.9191,3.8381 4.7798,4.4221 8.4414,6.2529 2.5378,1.2689 6.8869,2.3405 9.692,0.9379 0.8861,-0.443 2.2227,-0.1734 3.1264,-0.6253 3.1167,-1.5583 5.0374,-3.7868 7.1908,-5.9402 0.8402,-0.84019 1.0822,-2.47697 1.5633,-3.43911 5.0229,-10.04595 -0.7889,-22.82307 -12.5058,-22.82307 -2.2834,0 -6.1829,-0.66028 -8.1288,0.31265 -1.7876,0.89383 -2.1428,1.11638 -4.377,1.56322 z"
         style="fill:#c1afaf;fill-opacity:1;stroke:#ffffff;stroke-width:1px;stroke-linecap:butt;stroke-linejoin:miter;stroke-opacity:0" />
      <path
         sodipodi:nodetypes="ccscsc"
         inkscape:connector-curvature="0"
         id="path7161"
         d="m 1994.4279,981.53881 c -3.7347,2.19667 -6.985,8.22789 -5.315,11.56785 0.4616,0.92324 0.4723,2.34814 1.2506,3.12645 5.8487,5.84869 10.9158,7.21759 16.8828,1.25058 1.0151,-1.01506 0.938,-4.16676 0.938,-5.94025 0,-8.56012 -4.4772,-11.86048 -13.7564,-10.00463 z"
         style="fill:#8c6b6b;fill-opacity:1;stroke:#ffffff;stroke-width:1px;stroke-linecap:butt;stroke-linejoin:miter;stroke-opacity:0" />
    </g>
    <g
       transform="matrix(0.56733021,-1.2592764,1.2592764,0.56733021,-1845.9821,2306.6676)"
       id="g7459">
      <path
         style="fill:#ac9393;stroke:#ffffff;stroke-width:1px;stroke-linecap:butt;stroke-linejoin:miter;stroke-opacity:0"
         d="m 1994.8445,937.42758 c -0.6743,0.0152 -1.2606,0.0947 -1.75,0.1875 -5.3438,0.57165 -8.125,0.625 -8.125,0.625 0,0 -3.0245,0.56025 -6.5,1.71875 -9.8402,3.28001 -13.8863,8.26125 -20.3126,14.6875 -1.4275,1.42761 -2.0511,3.61345 -3.4374,5 -0.279,0.2787 -0.1466,0.91796 -0.3126,1.25 -3.5596,7.11988 -8.4807,15.15482 -9.0624,20.4375 -1.5553,4.66563 1.636,27.47967 4.375,30.21877 1.7745,1.7748 5.4521,7.866 6.875,10 2.8324,4.249 5.27,6.8324 8.4374,10 2.146,2.1457 5.0756,2.069 7.8126,3.4375 0.75,0.3751 2.9994,2.7498 3.75,3.125 2.4438,1.222 4.3034,0.1697 5.625,2.8125 0.2374,0.4753 1.364,0.7078 1.5937,0.9375 0.4585,0.4584 16.9968,-0.625 19.0625,-0.625 7.0424,0 18.6442,1.7741 22.1875,-5.3125 0.7791,-1.5581 2.5687,-2.3938 3.125,-4.0625 0.6897,-2.0691 5.3918,-4.5337 6.5625,-6.875 3.2281,-6.4563 9.0009,-11.7519 12.1875,-18.125 1.0147,-2.0295 1.1031,-5.3312 1.875,-6.87502 0.4261,-0.85221 -0.4909,-12.23178 -0.9375,-13.125 -0.9714,-1.94273 0.6551,-5.25218 -0.3125,-7.1875 -0.6533,-1.30642 0.019,-3.42965 -0.625,-4.71875 -1.1135,-2.22688 -1.6725,-4.90744 -2.8125,-7.1875 -3.1186,-6.23704 -8.8528,-13.95763 -14.0625,-16.5625 -0.5755,-0.28775 -0.8023,-1.10076 -1.25,-1.25 -1.2284,-0.40945 -3.2608,-1.44475 -4.375,-2.1875 -2.5944,-1.72963 -5.3531,-3.45103 -8.125,-4.375 -1.4154,-0.4718 -3.0017,-1.81333 -4.375,-2.5 -3.7606,-1.88027 -12.3756,-3.57536 -17.0937,-3.46875 z m 12.4062,10.34375 c 1.9132,-0.13986 7.6452,2.33266 8.75,3.4375 0.4294,0.42939 2.8125,-0.48531 2.8125,0.3125 0,1.35314 -4.8945,20.83204 -5,20.9375 -0.3347,0.33477 -0.8084,-1.43336 -0.9375,-1.5625 -0.8015,-0.8015 -2.5303,-1.90526 -3.4375,-2.8125 -0.2605,-0.26054 -0.9894,-0.052 -1.25,-0.3125 -2.6895,-2.68954 -9.3103,-1.875 -12.8125,-1.875 -0.067,0 1.1805,-1.42363 1.25,-1.5625 0.8021,-1.60422 2.7951,-2.77769 3.75,-4.6875 2.1707,-4.34137 7.8104,-7.19774 6.875,-11.875 z m -34.0938,37.0625 c 0.1346,0.0148 0.2386,0.0824 0.3126,0.15625 0.1823,0.18258 -1.25,2.96965 -1.25,3.4375 0,3.22368 1.25,5.93314 1.25,8.125 -2e-4,1.23121 1.875,2.79948 1.875,4.37502 0,0.3824 0.3808,1.0774 0.6562,1.4375 0.1855,0.014 0.2813,0.049 0.2812,0.125 0,0.2252 -0.119,0.087 -0.2812,-0.125 -0.5565,-0.043 -1.7172,0.125 -1.9062,0.125 -0.7306,0 -4.0826,-0.1463 -5,0.3125 -2.0392,1.0195 -5.0324,0 -7.1876,0 -1.1723,0 -3.9091,0.08 -5,0.625 -0.1847,0.092 -1.4063,0.7812 -1.5624,0.625 -1.4009,-1.4008 -0.6341,-11.55437 -2.1876,-14.06252 1.2733,-0.50928 3.7762,-0.96348 4.375,-1.5625 0.9562,-0.95609 4.3853,0.30741 5.625,-0.3125 1.4638,-0.73187 4.6389,-2.1875 6.25,-2.1875 0.5878,0 2.8087,-1.1971 3.75,-1.09375 z m 45.8126,19.18747 c 1.1071,0.224 6.078,5.9374 6.4062,6.5938 0.3151,0.6302 3.8905,8.297 3.75,8.4375 -0.822,0.822 -0.9444,2.5068 -1.875,3.4375 -0.4509,0.4508 -7.5053,5.9322 -8.4375,5 -0.6639,-0.664 -2.1279,-1.8154 -3.125,-2.8125 -1.1143,-1.1143 -2.6238,-1.4976 -3.4375,-3.125 -1.0698,-2.1396 -3.9003,-4.3284 -5.9375,-6.875 3.5984,0.5188 8.5619,-5.437 11.5625,-8.4375 0.5211,-0.5211 0.4165,-1.6664 0.9375,-2.1875 0.037,-0.037 0.082,-0.046 0.1563,-0.031 z"
         id="path7461"
         inkscape:connector-curvature="0" />
      <path
         style="fill:#c1afaf;fill-opacity:1;stroke:#ffffff;stroke-width:1px;stroke-linecap:butt;stroke-linejoin:miter;stroke-opacity:0"
         d="m 1989.2424,976.40699 c -2.1421,-0.42225 -4.5906,4.17889 -6.5655,8.12876 -0.4163,0.8325 -1.2506,1.84082 -1.2506,2.81381 0,4.78181 0.8345,8.85978 2.8138,12.81844 1.9191,3.8381 4.7798,4.4221 8.4414,6.2529 2.5378,1.2689 6.8869,2.3405 9.692,0.9379 0.8861,-0.443 2.2227,-0.1734 3.1264,-0.6253 3.1167,-1.5583 5.0374,-3.7868 7.1908,-5.9402 0.8402,-0.84019 1.0822,-2.47697 1.5633,-3.43911 5.0229,-10.04595 -0.7889,-22.82307 -12.5058,-22.82307 -2.2834,0 -6.1829,-0.66028 -8.1288,0.31265 -1.7876,0.89383 -2.1428,1.11638 -4.377,1.56322 z"
         id="path7463"
         inkscape:connector-curvature="0" />
      <path
         style="fill:#8c6b6b;fill-opacity:1;stroke:#ffffff;stroke-width:1px;stroke-linecap:butt;stroke-linejoin:miter;stroke-opacity:0"
         d="m 1994.4279,981.53881 c -3.7347,2.19667 -6.985,8.22789 -5.315,11.56785 0.4616,0.92324 0.4723,2.34814 1.2506,3.12645 5.8487,5.84869 10.9158,7.21759 16.8828,1.25058 1.0151,-1.01506 0.938,-4.16676 0.938,-5.94025 0,-8.56012 -4.4772,-11.86048 -13.7564,-10.00463 z"
         id="path7465"
         inkscape:connector-curvature="0"
         sodipodi:nodetypes="ccscsc" />
    </g>
    <path
       style="fill:#977979;fill-opacity:1;stroke:#ffffff;stroke-width:1px;stroke-linecap:butt;stroke-linejoin:miter;stroke-opacity:0"
       d="m 299.22283,418.12538 c 19.7759,6.1592 48.6787,2.0338 67.3557,10.8243 9.8161,4.62 25.3849,-3.7874 35.4038,0.9281 6.3206,2.9748 16.6339,-1.7869 23.0272,1.2222 16.5034,7.7674 97.6519,4.9906 104.653,11.6669 7.0399,6.7131 25.6786,-6.6178 33.6357,0.97 2.5532,2.4348 42.4654,-0.9776 46.0543,2.4443 3.2868,3.1343 -4.0674,20.5745 -4.8004,21.343 -1.2587,1.32 0.045,22.9971 -1.2221,23.0272 -25.7017,0.6105 -71.4871,-5.2096 -95.7707,-6.9824 -20.5435,-1.4996 -110.4492,0.45 -123.8921,-5.4909 -4.4645,-1.973 -22.9923,-0.3316 -28.3734,-2.8642 -8.1264,-3.8248 -22.3912,2.8403 -28.3733,-2.8642 -4.827,-4.603 -23.4625,5.2748 -28.2894,0.672 3.1858,-12.3049 -3.9002,-34.741 0.5917,-54.8963 z"
       id="path7528"
       inkscape:connector-curvature="0"
       sodipodi:nodetypes="csssccccssscscc" />
    <path
       style="fill:#977979;fill-opacity:1;stroke:#ffffff;stroke-width:1px;stroke-linecap:butt;stroke-linejoin:miter;stroke-opacity:0"
       d="m 175.37703,563.10418 c 0.9034,-1.3062 52.7298,-13.821 61.9005,-22.9917 4.5619,-4.5619 17.9109,-2.7654 22.9916,-5.3057 3.0744,-1.5372 19.1334,-7.3954 19.4544,-7.0744 11.0028,11.0028 -15.8342,12.2971 -17.6858,14.1487 -10.1204,10.1204 -64.657,13.368 -76.0492,24.7602 -2.6365,2.6365 -7.1497,-2.1524 -10.6115,-3.5371 z"
       id="path7530"
       inkscape:connector-curvature="0" />
    <path
       style="fill:#583f3f;fill-opacity:1;stroke:#ffffff;stroke-width:1px;stroke-linecap:butt;stroke-linejoin:miter;stroke-opacity:0"
       d="m 447.73923,547.18688 c -1.3226,23.3388 -4.4215,47.1999 -4.4215,70.7434 0,6.7449 2.0001,18.1072 -0.8842,23.8759 -3.1702,6.3404 2.2614,17.0916 0,23.8759 -4.625,13.875 0.7218,39.3963 -2.6529,49.5204 -2.7222,8.1667 -1.7686,21.0383 -1.7686,30.9503 1.4203,7.5242 0.8843,15.3323 0.8843,22.9916 0,21.6429 -2.6529,44.8176 -2.6529,67.20633 0,8.7699 -0.8843,15.5392 -0.8843,24.7602 0,4.8674 1.7705,12.3801 1.7686,12.3801 -1.6674,0 4.7162,-2.3581 3.5372,-3.5372 -2.1953,-2.1952 -2.6529,-11.1441 -2.6529,-15.033 0,-12.8799 -1.1451,-41.04013 3.5372,-50.40473 2.5091,-5.0182 -0.8843,-23.9136 -0.8843,-30.0659 0,-2.9326 1.117,-23.5268 0.8843,-23.8759 -1.047,-1.5705 -4.1341,-2.6309 -3.5372,-4.4215 0.502,-1.5059 2.8649,1.4573 4.4215,1.7686 0.32,0.064 -0.8843,-7.7648 -0.8843,-7.9587 0,-6.7795 1.7686,-13.5591 1.7686,-20.3387 0,-7.9765 0.6173,-30.0493 1.7685,-38.9088 1.1452,-8.813 0,-23.876 1.7686,-25.6446 3.5372,-3.5371 -3.5372,-17.6858 0,-21.223 3.6714,-3.6714 0.8843,-22.9446 0.8843,-29.1817 0,-3.1219 0.2822,-30.3665 0,-21.223 -0.198,6.4165 7.0743,-38.1648 0,-36.256 z"
       id="path7581"
       inkscape:connector-curvature="0"
       sodipodi:nodetypes="csssscsssscssscscsssssssc" />
    <path
       style="fill:#c0aeae;fill-opacity:1;stroke:#ffffff;stroke-width:1.00994515px;stroke-linecap:butt;stroke-linejoin:miter;stroke-opacity:0"
       d="m 279.72353,529.50108 c 11.3769,3.4617 68.3325,8.8429 104.6285,8.8429 17.4536,0 53.3827,-3.0134 66.7457,3.5372 9.1399,4.4804 25.1349,-4.4805 34.2748,0 7.3476,3.6018 92.4748,7.0743 106.4323,7.0743 5.5424,0 33.031,-2.8668 28.8631,5.3058 -6.001,11.7668 -49.0738,0 -59.53,0 -35.0044,0 -72.0624,-3.5372 -106.4324,-3.5372 -11.1064,0 -51.6303,3.8724 -59.5299,0 -11.9612,-5.8634 -65.5383,-8.8429 -81.1773,-8.8429 -15.8381,0 -31.0108,3.6195 -34.2748,-12.3801 z"
       id="path7532"
       inkscape:connector-curvature="0" />
    <path
       style="fill:#c0aeae;fill-opacity:1;stroke:#ffffff;stroke-width:1.16092503px;stroke-linecap:butt;stroke-linejoin:miter;stroke-opacity:0"
       d="m 296.98103,512.08768 c -0.019,1.7685 -0.039,3.537 -0.058,5.3054 -0.022,2.0097 -0.3361,5.986 1.1144,7.087 1.9701,1.4954 9.9472,-1.3651 11.9173,0.1303 0.1283,0.097 50.5973,2.7839 51.2251,2.3286 0.9882,-0.7165 -1.0826,-9.998 -1.0564,-12.3923 0.01,-0.9269 -0.4446,-3.0124 -1.1531,-3.5501 -1.4839,-1.1264 -12.1517,-1.1665 -12.3388,-1.0307 -1.3033,0.945 -12.6959,-1.112 -19.2714,-1.1839 -5.2285,-0.057 -22.483,-2.3791 -26.7459,-1.9607 -2.8891,0.2835 1.5148,-0.9594 -3.6332,5.2664 z"
       id="path7534"
       inkscape:connector-curvature="0"
       sodipodi:nodetypes="ccsccccccsc" />
    <path
       style="fill:#382b2b;fill-opacity:1;stroke:#ffffff;stroke-width:1px;stroke-linecap:butt;stroke-linejoin:miter;stroke-opacity:0"
       d="m 318.19033,510.93088 c 1.4276,0.7629 -0.6672,11.2708 0,11.9379 0.071,0.071 0.832,-0.4421 1.3264,-0.4421 1.4739,0 2.9477,0 4.4215,0 1.5766,0 4.7391,0.6009 6.1901,1.3264 0.4807,0.2404 20.0791,0.8843 22.1073,0.8843 1.6818,0 3.7799,1.0837 4.8636,0 0.5633,-0.5633 -0.4422,-7.6774 -0.4422,-10.1693 0,-2.8241 -3.0269,-1.3265 -5.7479,-1.3265 -1.9851,0 -16.6583,-1.1832 -17.2437,-1.7686 -1.276,-1.276 -6.2796,0.8395 -7.9586,0 -2.0227,-1.0113 -5.2601,-0.8934 -7.5165,-0.4421 z"
       id="path7536"
       inkscape:connector-curvature="0" />
    <path
       style="fill:#c1afaf;fill-opacity:1;stroke:#ffffff;stroke-width:1px;stroke-linecap:butt;stroke-linejoin:miter;stroke-opacity:0"
       d="m 409.32243,438.80098 c -0.8796,5.3861 -3.0782,31.8337 -1.2506,37.5173 0,0 9.8487,-0.8599 13.7563,0.6253 4.4127,2.4835 11.9979,0.6253 15.6323,0.6253 12.7692,0 26.2394,-0.6253 39.3933,-0.6253 8.4358,0 16.1187,1.2506 24.3862,1.2506 0.2761,0 2.2735,1.4783 3.1265,0.6253 1.1411,-1.1411 -0.6253,-5.7705 -0.6253,-6.8782 0,-8.0726 0,-17.2158 0,-24.3863 0,-0.6945 0.4422,-3.9349 0,-4.377 -0.7393,-0.7393 -11.215,-0.6253 -14.3817,-0.6253 -1.4578,0 -4.897,-0.5727 -6.2528,-1.2506 -4.1686,-2.0843 -11.4637,2.0843 -15.6323,0 -4.5697,-2.2849 -15.2916,-1.3929 -20.0092,-3.7517 -3.5905,-1.7953 -21.7634,0 -26.8875,0 -4.5332,0 -9.0812,-3.0974 -11.2552,1.2506 z"
       id="path7538"
       inkscape:connector-curvature="0"
       sodipodi:nodetypes="cccsssssscsssssc" />
    <path
       style="fill:#8c6b6b;fill-opacity:1;stroke:#ffffff;stroke-width:1px;stroke-linecap:butt;stroke-linejoin:miter;stroke-opacity:0"
       d="m 401.19363,439.42618 c -0.4609,10.134 -1.2505,20.7412 -1.2505,30.6392 0,1.8759 0,3.7518 0,5.6276 0,0.4169 0.4168,1.2506 0,1.2506 -0.044,0 -2.6563,-2.5787 -3.7518,-3.1264 -1.8038,-0.9019 -4.6631,-0.7683 -6.8782,-1.8759 -1.6181,-0.8091 -34.9174,-3.1759 -36.2668,-2.5012 -1.1508,0.5755 -4.8073,1.3481 -6.2529,0.6253 -4.4363,-2.2181 -11.2048,0.3379 -15.6322,-1.8758 -0.8713,-0.4357 -4.4896,-0.1126 -5.0023,-0.6253 -0.9288,-0.9288 -4.8437,-3.1265 -6.2529,-3.1265 -1.2149,0 -3.2294,-1.5117 -5.0023,-0.6253 -1.0475,0.5238 -7.5507,3.7046 -9.3794,1.8759 -0.3755,-0.3756 0,-31.0282 0,-34.3909 0,-10.2136 3.4012,-4.377 11.2553,-4.377 3.8225,0 36.574,1.5578 37.5173,2.5011 2.0992,2.0992 6.4431,3.3166 8.7541,5.6276 1.6477,1.6478 7.7527,0.7499 10.0046,1.8759 0.9264,0.4632 3.3184,0 4.377,0 9.3956,0 16.2728,-3.115 23.761,2.5011 z"
       id="path7540"
       inkscape:connector-curvature="0" />
    <path
       style="fill:#8c6b6b;fill-opacity:1;stroke:#ffffff;stroke-width:1px;stroke-linecap:butt;stroke-linejoin:miter;stroke-opacity:0"
       d="m 510.61933,446.92968 c -0.4169,0.8337 -0.4169,2.918 -1.2506,2.5012 -0.8337,-0.4169 1.2506,-3.4333 1.2506,-2.5012 0,5.2847 -4.0385,10.6817 -1.2506,16.2575 1.3851,2.7703 -2.1054,11.0257 0,13.1311 0.8337,0.8337 2.9722,-0.471 3.1265,-0.6253 0.3872,-0.3872 9.6053,0.6253 12.5057,0.6253 5.7447,0 14.682,1.0881 20.0093,3.7518 1.334,0.6669 3.6684,-0.667 5.0023,0 7.4715,3.7357 28.0062,4.377 37.5174,4.377 1.8146,0 10.226,2.2798 11.8805,0.6253 0.804,-0.804 0.9058,-11.8162 1.8759,-13.7564 0.6347,-1.2694 3.1314,-18.7537 2.5011,-19.384 -0.8243,-0.8243 -6.8334,0 -8.1287,0 -17.8941,0 -32.7438,-3.1264 -50.6485,-3.1264 -2.1823,0 -15.6614,0.5961 -16.2575,0 -2.8983,-2.8983 -13.4126,-2.82 -18.1334,-1.8759 z"
       id="path7542"
       inkscape:connector-curvature="0" />
    <path
       inkscape:connector-curvature="0"
       style="fill:#6c5353;fill-opacity:1;stroke:#ffffff;stroke-width:1px;stroke-linecap:butt;stroke-linejoin:miter;stroke-opacity:0"
       d="m 307.56133,425.28138 c -1.3901,0.157 -2.0313,1.5627 -2.0313,6.0312 0,0.1951 -0.029,1.7574 -0.031,2.125 9.15,1.6093 26.0876,-1.3469 33.4688,2.3438 1.1257,0.5628 2.7941,-0.1498 3.9688,0.4374 1.7685,0.8843 4.8876,-0.8841 6.6562,0 4.4123,2.2063 11.2938,0.2313 15.0312,3.9688 1.0427,1.0426 6.311,0.4992 7.9376,1.3125 2.9119,1.456 17.6705,-1.767 20.3437,0.9063 0.2947,0.2947 1.4866,-0.2948 1.7813,0 1.1343,1.1341 -0.7463,5.5701 0,7.0624 1.6638,3.3278 0.2581,16.1559 -0.1876,23.8126 0.6135,0.138 1.1963,0.2856 1.6876,0.5312 1.0954,0.5477 3.706,3.125 3.75,3.125 0.4167,0 0,-0.8331 0,-1.25 l 0,-5.625 c 0,-9.898 0.789,-20.491 1.25,-30.625 -7.4882,-5.6161 -14.3545,-2.5 -23.75,-2.5 -1.0587,0 -3.4487,0.4632 -4.375,0 -2.252,-1.126 -8.3524,-0.2272 -10,-1.875 -2.3111,-2.311 -6.6508,-3.557 -8.75,-5.6562 -0.9433,-0.9433 -33.7088,-2.5 -37.5313,-2.5 -4.4179,0 -7.4315,-1.827 -9.2187,-1.625 z"
       id="path7544" />
    <path
       inkscape:connector-curvature="0"
       style="fill:#6c5353;fill-opacity:1;stroke:#ffffff;stroke-width:1px;stroke-linecap:butt;stroke-linejoin:miter;stroke-opacity:0"
       d="m 517.65503,446.34378 c -2.6926,-7e-4 -5.2609,0.2398 -7.0313,0.5938 0,1.7191 -0.4255,3.4423 -0.9062,5.1875 4.2689,0.4178 14.3568,0 16.7188,0 2.4949,0 13.5717,1.2702 15.4687,2.2187 1.6507,0.8254 4.5368,-0.8252 6.1875,0 1.5966,0.7984 6.5831,1.0452 8.4062,0.4376 4.8241,-1.608 33.3319,-0.7307 35.8126,1.75 0.958,0.958 4.3544,-0.4893 5.3124,0.4687 0.7149,0.7149 -0.9538,5.9077 -1.3124,6.625 -1.2005,2.4011 -1.5846,18.8345 -3.0938,20.3437 -0.067,0.067 -0.1024,0.6507 -0.125,1.3438 2.6852,0.4084 5.4355,0.627 6.3125,-0.25 0.804,-0.804 0.9049,-11.8098 1.875,-13.75 0.6347,-1.2694 3.1303,-18.7447 2.5,-19.375 -0.8243,-0.8243 -6.8297,0 -8.125,0 -17.8941,0 -32.7515,-3.125 -50.6563,-3.125 -2.1822,0 -15.6538,0.5961 -16.25,0 -1.8114,-1.8114 -6.6061,-2.4674 -11.0937,-2.4688 z m -7.0313,0.5938 c 0,-0.9321 -2.0837,2.0831 -1.25,2.5 0.8338,0.4168 0.8331,-1.6663 1.25,-2.5 z"
       id="path7549" />
    <path
       style="fill:#c0aeae;fill-opacity:1;stroke:#ffffff;stroke-width:1px;stroke-linecap:butt;stroke-linejoin:miter;stroke-opacity:0"
       d="m 299.12043,190.69348 c -0.1213,7.9085 -0.5552,24.9838 -1.2812,36.3125 0.5166,1.6957 0.9818,2.9905 1.3437,3.5938 2.2951,1.0113 5.5922,-0.7922 7.9687,0 19.4033,6.4677 41.8669,2.9667 61.875,7.9687 4.8707,1.2177 10.4615,0.258 15.0313,1.7813 7.2654,2.4218 20.05,0.5593 28.3125,2.625 11.331,2.8327 25.2448,0.4774 37.125,4.4375 3.9822,1.3273 9.2865,-0.4566 13.2812,0.875 9.785,3.2616 21.3431,3.8956 30.9376,7.0937 8.4083,2.8028 18.1411,2.4845 26.5312,5.2813 2.7998,0.9332 6.0281,-0.032 8.8438,0.9062 14.0904,4.6969 28.7638,5.1608 42.4374,9.7188 3.3327,1.1108 8.3844,0.2233 11.5,1.7812 7.1544,3.5772 24.6224,2.4974 29.1876,7.0625 0.7251,0.7251 5.8302,0.2589 7.0624,0.875 0.5739,0.2869 4.2998,1.044 4.4376,0.9063 0.5124,-0.5125 2.8771,-35.596 5.3124,-38.0313 2.9763,-2.9762 -12.8124,-0.2343 -14.1562,-0.9062 -7.4734,-3.7367 -18.2582,-1.5822 -25.6562,-5.2813 -6.4747,-3.2373 -25.6208,-3.0916 -30.0626,-5.3125 -11.1975,-5.5988 -25.1968,-3.9927 -37.125,-7.9687 -19.3674,-6.4559 -46.1441,-1.5064 -65.4374,-7.9375 -4.1699,-1.39 -10.2701,1.0368 -14.1563,-0.9063 -11.3584,-5.6792 -25.7275,-2.9612 -38.0313,-7.0625 -9.304,-3.1013 -23.4872,-2.0249 -31.8124,-6.1875 -1.4024,-0.7011 -3.8126,0.5 -5.3126,0 -9.427,-3.1423 -26.3963,-6.1875 -36.25,-6.1875 -6.3084,0 -21.9554,-3.3476 -31.9062,-5.4375 z"
       id="path7609"
       inkscape:connector-curvature="0" />
  </g>
</svg>
