<?xml version="1.0" encoding="UTF-8" standalone="no"?>
<!-- Created with Inkscape (http://www.inkscape.org/) -->

<svg
   xmlns:dc="http://purl.org/dc/elements/1.1/"
   xmlns:cc="http://creativecommons.org/ns#"
   xmlns:rdf="http://www.w3.org/1999/02/22-rdf-syntax-ns#"
   xmlns:svg="http://www.w3.org/2000/svg"
   xmlns="http://www.w3.org/2000/svg"
   xmlns:sodipodi="http://sodipodi.sourceforge.net/DTD/sodipodi-0.dtd"
   xmlns:inkscape="http://www.inkscape.org/namespaces/inkscape"
   width="744.09448819"
   height="1052.3622047"
   id="svg3812"
   version="1.1"
   inkscape:version="0.48.3.1 r9886"
   sodipodi:docname="testling.svg"
   inkscape:export-filename="/home/substack/media/vector/testling.png"
   inkscape:export-xdpi="24.202694"
   inkscape:export-ydpi="24.202694">
  <defs
     id="defs3814" />
  <sodipodi:namedview
     id="base"
     pagecolor="#ffffff"
     bordercolor="#666666"
     borderopacity="1.0"
     inkscape:pageopacity="0.0"
     inkscape:pageshadow="2"
     inkscape:zoom="0.35"
     inkscape:cx="375"
     inkscape:cy="520"
     inkscape:document-units="px"
     inkscape:current-layer="layer1"
     showgrid="false"
     inkscape:window-width="1364"
     inkscape:window-height="766"
     inkscape:window-x="0"
     inkscape:window-y="0"
     inkscape:window-maximized="0" />
  <metadata
     id="metadata3817">
    <rdf:RDF>
      <cc:Work
         rdf:about="">
        <dc:format>image/svg+xml</dc:format>
        <dc:type
           rdf:resource="http://purl.org/dc/dcmitype/StillImage" />
        <dc:title></dc:title>
      </cc:Work>
    </rdf:RDF>
  </metadata>
  <g
     inkscape:label="Layer 1"
     inkscape:groupmode="layer"
     id="layer1">
    <g
       inkscape:export-ydpi="99.980003"
       inkscape:export-xdpi="99.980003"
       inkscape:export-filename="/home/substack/projects/testling-server/static/images/testling.png"
       transform="matrix(1.1921522,0,0,1.1921522,-226.74828,-23.29789)"
       id="g4509">
      <path
         style="fill:#c8b7b7;fill-opacity:1;stroke:#000000;stroke-width:3;stroke-linecap:butt;stroke-linejoin:round;stroke-miterlimit:4;stroke-opacity:1;stroke-dasharray:none"
         d="m 518.11688,532.95062 c 2.54984,0.77317 11.33923,0.68159 14.49569,-2.47487 0.42421,-0.42421 1.06644,-0.35934 1.41422,-0.70711 0.13024,-0.13024 2.94259,-2.00715 2.82842,-2.12132 -0.16251,-0.16252 -1.22025,-0.53033 -1.59099,-0.53033 -1.58693,-0.24486 -4.59435,-1.58125 -6.16941,-1.45711 -0.77949,0 -4.36171,-0.96824 -5.90318,-0.67677 -0.18534,0.0351 0.57044,2.15721 0.40533,2.48743 -0.19995,0.3999 -0.10043,1.51464 -0.35355,1.76777 -0.2357,0.2357 -0.11785,0.82496 -0.35356,1.06066 -0.68598,0.68598 -0.92852,1.63563 -1.59099,2.2981 -0.26516,0.26516 -1.14904,-0.0884 -1.41421,0.17677 -0.45031,0.45032 -0.80071,0.37019 -1.76777,0.17678 z"
         id="path4511"
         inkscape:connector-curvature="0"
         sodipodi:nodetypes="csccccssccssc" />
      <path
         style="fill:#c8b7b7;fill-opacity:1;stroke:#000000;stroke-width:3;stroke-linecap:butt;stroke-linejoin:miter;stroke-miterlimit:4;stroke-opacity:1;stroke-dasharray:none"
         d="m 508.44852,453.34888 c 10.12176,5.24646 12.59306,13.41123 17.74826,19.91194 1.10289,1.39075 1.44001,3.5691 1.89094,5.2009 0.6362,2.30226 0.0913,3.57183 -0.0606,6.18722 -0.41039,3.02667 -1.40361,5.25963 -2.57399,7.05157 -2.5519,3.90718 -2.90791,6.41998 -5.00439,10.6773 -1.18783,1.84722 -3.08571,5.41995 -3.98625,7.37746 -1.82469,3.96633 -2.69271,6.67188 -6.6867,9.8392 -3.77071,2.99025 -6.45009,8.16613 -10.40853,3.17455 -1.01018,-1.27383 0.98009,-5.56328 1.78344,-6.20035 0.7509,-0.59548 8.7797,-12.3262 10.2882,-14.63584 0.48415,-0.74128 0.36996,-2.20781 1.02679,-2.72869 1.61967,-1.28444 5.04468,-10.28139 5.24801,-12.04281 0.15908,-1.37815 1.14608,-4.99234 0.33802,-6.01131 -5.17762,-6.52898 -11.93968,-13.44653 -17.24945,-20.14216 -0.26402,-0.33294 0.80181,-0.31679 1.13475,-0.58081"
         id="path4513"
         inkscape:connector-curvature="0"
         sodipodi:nodetypes="csscscsssssssscc" />
      <path
         style="fill:#ae9595;fill-opacity:1;stroke:none"
         d="m 514.75,466.86218 c 0.51119,0.21811 3.64757,1.89757 5.25,3.5 0.91295,0.91295 1.21451,1.96451 2,2.75 0.65433,0.65433 1.09568,2.59568 1.75,3.25 0.70833,0.70834 -0.20833,3.04167 0.5,3.75 0.43161,0.43161 0.19054,0.88109 0.5,1.5 1.79802,3.59604 0.42915,8.32085 -1.75,10.5 -0.6805,0.68051 -0.75906,2.25906 -1.5,3 -0.48916,0.48916 -1.13708,5.13709 -2.25,6.25 -0.58333,0.58334 -0.16667,2.16667 -0.75,2.75 -2.06448,2.06449 -3.65818,8.15819 -5.25,9.75 -0.77076,0.77076 -0.90749,1.9075 -1.5,2.5 -0.54301,0.54301 -7.01845,5.73156 -8.25,4.5 -0.17072,-0.17072 1.91472,-1.91472 2.25,-2.25 0.33333,-0.33333 1.41667,0.0833 1.75,-0.25 1.83676,-1.83675 2.38474,-4.88474 3.75,-6.25 0.75341,-0.75341 0.75951,-4.5095 1.5,-5.25 1.24022,-1.24022 1.91118,-5.91117 2.5,-6.5 0.93221,-0.93221 1.21311,-2.96311 2,-3.75 1.85853,-1.85853 2.39147,-4.14147 4.25,-6 0.91702,-0.91701 0.44912,-2.69912 1.25,-3.5 0.29167,-0.29166 -0.29167,-1.45833 0,-1.75 0.37965,-0.37965 0.56857,-3.68142 0,-4.25 -0.92931,-0.92931 -1.82069,-1.32069 -2.75,-2.25 -0.33333,-0.33333 -1.16667,-0.16666 -1.5,-0.5 -1.65883,-1.65882 -4.24705,-3.99704 -6,-5.75 -0.33204,-0.33204 0.43885,-6.18885 0.5,-6.25 0.42899,-0.42898 1.18672,0.27469 1.75,0.5 z"
         id="path4515"
         inkscape:connector-curvature="0" />
      <path
         style="fill:#d9cdcd;fill-opacity:1;stroke:none"
         d="m 502.5,517.36218 c -0.16579,-0.97253 2.06809,-2.56809 3.75,-4.25 1.93326,-1.93325 2.26663,-4.53326 3.5,-7 0.58512,-1.17023 2.21616,-3.46615 3,-4.25 0.1249,-0.12489 1.18381,-1.81619 1.25,-1.75 0.61514,0.61514 -1.1591,3.31821 -1.5,4 -0.52325,1.04651 -0.19992,2.69992 -1,3.5 -2.88259,2.88259 -3.66488,10.81703 -9,9.75 z"
         id="path4517"
         inkscape:connector-curvature="0" />
      <path
         style="fill:#d9cdcd;fill-opacity:1;stroke:none"
         d="m 518.75,479.61218 c 0.33333,0.33334 1.33333,0.66667 1,1 -0.33333,0.33334 -1.33333,-1.33333 -1,-1 1.40421,1.40421 4.37803,5.12197 2.5,7 -0.20833,0.20834 -0.0417,0.79167 -0.25,1 -0.43356,0.43356 -0.36721,1.61722 -0.75,2 -0.15858,0.15858 0.10407,0.79185 0,1 -0.36905,0.73811 -1,1.45315 -1,2.25 -0.33333,-0.41667 -0.70402,-0.80602 -1,-1.25 -0.38792,-0.58188 0.67209,-4.34419 1,-5 0.81293,-1.62585 -0.1316,-5.52639 -0.5,-7 z"
         id="path4519"
         inkscape:connector-curvature="0" />
      <path
         style="fill:#c8b7b7;fill-opacity:1;stroke:#000000;stroke-width:3;stroke-linecap:butt;stroke-linejoin:round;stroke-miterlimit:4;stroke-opacity:1;stroke-dasharray:none"
         d="m 489.75,467.86218 c 2.61041,0.71519 15.68837,6.68837 20.75,11.75 1.92687,1.92688 3.75778,4.75778 6,7 2.71232,2.71232 3.29731,7.12588 4.82322,10.78769 1.01033,2.42454 0.74503,6.96493 1.06066,8.65685 0.819,4.39017 1.11612,7.03286 1.11612,12.05546 0,8.12972 2.06958,13.02141 -0.84835,16.11612 -1.54656,1.36979 -2.35811,0.99318 -4.15165,0.88388 -2.90092,-0.17678 -2.5,-4.43096 -2.5,-7.5 0,-2.65811 0.60297,-8.00618 0.5,-9.5 -0.30101,-4.36688 -2.08613,-12.60576 -2.84835,-16.7981 -0.45558,-2.50577 -1.22774,-6.80832 -3.73744,-10.2019 -1.18998,-1.60908 -2.95796,-4.54374 -4.41421,-6 -1.63866,-1.63866 -7.01868,-6.5 -9,-6.5 -1.55609,0 -2.64558,-1.13529 -4.625,-2.125 -0.86419,-0.43209 -1.90257,-1.02756 -3.375,-1.875 -2.4485,-5.0735 1.25,-6.75 1.25,-6.75 z"
         id="path4521"
         inkscape:connector-curvature="0"
         sodipodi:nodetypes="cssssscsssssssscc" />
      <path
         style="fill:#ac9393;stroke:#000000;stroke-width:3;stroke-linecap:butt;stroke-linejoin:miter;stroke-miterlimit:4;stroke-opacity:1;stroke-dasharray:none"
         d="m 462.65623,440.81217 c 1.70531,-7.25558 7.6529,-12.91404 14.72646,-15.27189 1.86813,-0.62271 4.07674,-1.34962 5.45425,-2.72712 0.7068,-0.70682 3.18134,-0.49983 4.3634,-1.09086 3.41947,-1.70973 13.40354,0.31336 14.72646,1.63628 0.36362,0.36362 1.81809,-0.36361 2.18171,0 3.20758,3.20759 8.39316,5.12062 11.45391,8.18137 1.47669,1.47669 1.9796,6.34299 3.27255,7.63595 1.16791,1.16791 0.29329,2.76827 1.09085,4.3634 5.33811,10.67621 -5.30816,26.57974 -11.45392,32.72548 -5.11524,5.11525 -17.86365,5.58962 -23.45326,3.81797 -2.40806,-0.76324 -6.75673,-0.4217 -12.54478,-5.99967 -8.07325,-7.78022 -11.47221,-20.70327 -9.81763,-33.27091 z"
         id="path4523"
         inkscape:connector-curvature="0"
         sodipodi:nodetypes="csssssssssssc" />
      <path
         style="fill:#9f8383;fill-opacity:1;stroke:none"
         d="m 509,429.86218 c -1.3479,-0.0533 -9.24314,1.48629 -11,5 -0.24544,0.49088 0.0854,1.33535 0.25,1.5 0.003,0.003 -0.0264,0.97357 0.25,1.25 0.65874,0.65874 1.42365,1.17365 2,1.75 0.66446,0.66447 4.62204,0.37204 5.75,1.5 0.97698,0.97698 1.51001,2.76001 2.5,3.75 0.16667,0.16667 -0.16667,0.83334 0,1 0.71004,0.71004 -0.0573,2.55725 -0.5,3 -1.57165,1.57165 -3.55213,2.80213 -5,4.25 -1.3623,1.3623 1.52971,4.97029 0.25,6.25 -1.97654,1.97654 -9.27569,2.02569 -11,3.75 -2.83896,2.83897 0.0727,4.46363 -3,6 -0.60883,0.30442 -2.25867,-0.004 -2.75,-0.25 -0.90824,-0.45412 -2.31401,-0.032 -3.25,-0.5 -4.52995,-2.26498 -5.63997,-4.61003 -9.75,-0.5 -1.50909,1.50909 -0.3406,5.1594 1,6.5 0.77103,0.77103 2.24752,1.24752 3,2 0.39845,0.39845 2.37416,0.12584 1.75,0.75 1.91891,2.75495 5.67711,0.46355 8.25,1.75 0.46667,0.23334 1.28333,-0.23333 1.75,0 5.55296,2.77648 16.00655,-1.75655 19,-4.75 1.49859,-1.49859 2.46918,-3.71918 4,-5.25 1.18703,-1.18702 1.88651,-6.1365 2.75,-7 1.754,-1.754 1.78018,-4.78018 3.5,-6.5 0.72259,-0.72259 -1.05875,-7.69125 -0.75,-8 0.0733,-0.0733 0.32721,-1.42279 0,-1.75 -0.52162,-0.52162 -0.61563,-2.11563 -1.25,-2.75 -0.5,-0.5 0.5,-2.5 0,-3 -2.07134,-2.07134 -2.65409,-6.90409 -4.25,-8.5 -0.59211,-0.5921 -1.72153,-0.0329 -2.5,-0.5 -0.35729,-0.21437 -0.62732,-0.93634 -1,-0.75 -0.72429,0.36214 1.63286,1.69143 0.25,1"
         id="path4525"
         inkscape:connector-curvature="0" />
      <path
         style="fill:#8a6b6b;fill-opacity:1;stroke:none"
         d="m 475.5137,472.31621 c 0.46861,-0.3642 3.59451,-1.38472 6.01041,-0.17677 0.44527,0.22263 1.50478,1.85833 1.94454,2.29809 0.0244,0.0244 1.94743,0.53178 2.2981,0.70711 0.64526,0.32263 1.96038,-0.62664 2.47487,-0.88388 0.96063,-0.48032 2.55973,0.31112 3.53554,-0.17678 0.94966,-0.47483 1.87649,-0.93825 2.82842,-1.41421 0.63278,-0.31639 1.81438,-1.28405 2.2981,-1.76777 0.60157,-0.60157 -0.0751,-3.85155 2.12132,-4.94975 2.02066,-1.01033 3.58711,0.68132 4.94975,0 3.36315,-1.68157 5.04645,-2.74835 7.6014,-5.3033 0.45297,-0.45297 0.73844,-1.7991 1.23743,-2.29809 0.80962,-0.80963 1.70917,-2.06273 2.82843,-3.18199 0.50195,-0.50195 0.14218,-2.2635 0.70711,-2.82842 0.65665,-0.65666 -1.71118,-7.12766 0.17677,-9.01561 0.39984,-0.39985 2.35649,1.82616 2.65165,2.12132 0.2074,0.20739 0.3081,0.83842 0.53033,1.06066 0.0695,0.0695 0,5.74173 0,6.36396 0,0.2532 0.16115,1.42984 0,1.59099 -1.0776,1.0776 -1.63224,6.05166 -2.82842,7.24784 -0.4492,0.4492 -0.29048,1.70469 -0.70711,2.12132 -1.52895,1.52896 -2.43395,2.96428 -3.88909,4.41942 -0.71437,0.71437 -0.87684,2.82139 -1.59099,3.53553 -1.21197,1.21197 -2.27719,2.98431 -3.53553,4.24264 -1.67314,1.67315 -9.74527,3.35877 -12.9047,3.35877 -0.6604,0 -9.07628,-0.591 -9.19239,-0.70711 -0.42222,-0.42223 -3.44801,-0.0893 -3.88909,-0.53034 -0.93288,-0.93288 -2.51835,-1.81124 -3.35875,-2.65165 -0.29463,-0.29462 -0.94281,-0.2357 -1.23744,-0.53033 -0.0884,-0.0884 -0.44194,0.0884 -0.53033,0 -0.91968,-0.91968 -2.65449,-0.95232 -0.53033,-2.65165 z"
         id="path4527"
         inkscape:connector-curvature="0"
         sodipodi:nodetypes="cssccsssssssscsccsssssssssccscc" />
      <path
         style="fill:#bfa3a3;fill-opacity:1;stroke:none"
         d="m 465.25,457.11218 c -0.75283,-2.44234 -2.37862,-17.12137 1,-20.5 0.40117,-0.40116 0.92993,-1.67993 1.5,-2.25 2.09725,-2.09725 8.92155,-5.83577 11.75,-7.25 1.04713,-0.52356 7.02792,-2.52792 7.5,-3 0.4391,-0.4391 6.71226,0.28774 7.25,-0.25 0.15017,-0.15017 0.78008,-0.48496 1.25,-0.25 1.45546,0.72773 3.53753,0.0375 4.5,1 0.0557,0.0556 5.63556,1.11444 5,1.75 -0.65599,0.65599 -5.38941,-0.11059 -6,0.5 -0.33621,0.33621 -1.62622,0.12623 -2,0.5 -1.94158,1.94158 -7.82526,1.82527 -10.25,4.25 -1.92673,1.92673 3.22435,6 4.5,6 0.37305,0 1.93175,1.31825 1.25,2 -0.49233,0.49233 -0.81902,1.31902 -1.25,1.75 -0.73971,0.73971 -2.12317,0.37317 -2.75,1 -0.83333,0.83334 -4.16667,-0.83333 -5,0 -0.40749,0.40749 -1.06564,0.40782 -1.75,0.75 -1.6014,0.8007 -2.57026,2.32026 -3.5,3.25 -0.76584,0.76584 4.45215,1.95215 5,2.5 0.9335,0.9335 4.5751,5.6749 3,7.25 -0.11785,0.11785 -0.38215,-0.11785 -0.5,0 -0.131,0.131 -0.56595,0.75 -0.75,0.75 -0.22955,0 -3.8305,-7.25 -5,-7.25 -2.46834,0 -2.57955,0.82955 -4,2.25 -0.65461,0.65461 -1.63617,1.63618 -2.25,2.25 -0.56152,0.56152 -0.4911,1.99111 -1,2.5 -0.08,0.08 0.74742,7.75259 -1,9.5 -2.67842,2.67843 -5.75,-2.20002 -5.75,-5.25 0,-0.55967 -0.5148,-1.5148 -0.75,-1.75 -0.12443,-0.12443 0.13267,-1.33663 0,-2 z"
         id="path4529"
         inkscape:connector-curvature="0" />
      <path
         style="fill:none;stroke:#000000;stroke-width:1px;stroke-linecap:butt;stroke-linejoin:miter;stroke-opacity:1"
         d="m 470.75,458.36218 c -0.68408,-0.58892 -1.97157,-3.77842 0.25,-6 0.72621,-0.7262 3.14767,-2.5 4,-2.5 2.02785,0 4.18094,-1.40953 6.5,-0.25 3.49435,1.74718 6.28503,6.96497 3,10.25 -0.50438,0.50438 -0.51599,1.766 -1.25,2.5 -2.71222,2.71222 -6.45899,2.79101 -9.25,0 -1.32476,-1.32476 -2.06153,-2.01922 -3.25,-4 z"
         id="path4532"
         inkscape:connector-curvature="0" />
      <path
         style="fill:none;stroke:#000000;stroke-width:1px;stroke-linecap:butt;stroke-linejoin:miter;stroke-opacity:1"
         d="m 487,426.86218 c -1.25388,0.24943 -1.71896,1.59684 -2.00299,2.68363 -0.26919,0.84784 -0.57435,1.72019 -0.39312,2.62347 0.36133,2.23168 2.15134,3.91718 4.02675,5.00426 2.79432,1.59541 6.32035,1.93197 9.32258,0.72668 2.52419,-1.90318 4.31382,-5.12405 3.77559,-8.34321 -0.37971,-2.17656 -2.45549,-3.81356 -4.61641,-3.96219 -2.16957,-0.67739 -4.6722,-1.07455 -6.76946,0.043 -1.06718,0.51629 -2.23708,0.79832 -3.34294,1.22432 z"
         id="path4534"
         inkscape:connector-curvature="0" />
      <path
         style="fill:none;stroke:#000000;stroke-width:1px;stroke-linecap:butt;stroke-linejoin:miter;stroke-opacity:1"
         d="m 485.5,424.61218 c -2.84952,1.56175 -2.6672,5.39856 -4.28831,7.89346 -0.38287,3.43191 2.79731,5.78073 5.04902,7.84831 3.16337,2.39216 7.41351,2.07268 11.16968,2.31549 3.99765,-0.24304 6.21831,-4.77993 6.57906,-8.36331 0.27334,-3.21962 0.53405,-7.30399 -2.13155,-9.62198 -2.82639,-2.32498 -6.69355,-1.46861 -10.05262,-1.7153 -2.3392,-0.1785 -4.21882,1.04872 -6.32528,1.64333 z"
         id="path4536"
         inkscape:connector-curvature="0" />
      <path
         style="fill:none;stroke:#000000;stroke-width:1px;stroke-linecap:butt;stroke-linejoin:miter;stroke-opacity:1"
         d="m 481,424.36218 c -0.16667,0.33334 -0.16667,1.16667 -0.5,1 -0.33333,-0.16666 0.76352,-1.26352 0.5,-1 -1.63837,1.63838 -2.04179,3.58358 -3,5.5 -0.38174,0.76349 0.33571,2.91429 -0.25,3.5 -0.42911,0.42911 -0.13535,1.61465 0.25,2 0.17321,0.17322 0.0768,1.07679 0.25,1.25 1.80576,1.80576 3.46005,3.71005 4.75,5 1.19759,1.19759 3.04572,1.54572 4,2.5 1.16345,1.16345 3.99082,0.99082 5,2 0.35193,0.35193 1.77559,0.0128 2.25,0.25 0.67007,0.33504 5.42837,0.57164 5.75,0.25 1.32764,-1.32763 3.14695,-2.14695 4.5,-3.5 3.95505,-3.95504 4.98033,-13.26967 0.5,-17.75 -2.8094,-2.8094 -16.9311,-4.3189 -20,-1.25 -0.60032,0.60032 -3.80594,0.0947 -4,0.25 -0.32536,0.26029 0,0.83334 0,1.25"
         id="path4538"
         inkscape:connector-curvature="0" />
      <path
         style="fill:#c8b7b7;fill-opacity:1;stroke:#000000;stroke-width:3;stroke-linecap:butt;stroke-linejoin:miter;stroke-miterlimit:4;stroke-opacity:1;stroke-dasharray:none"
         d="m 514.125,372 c -4.19005,-0.56325 -7.28625,2.84696 -11.40625,2.09375 -5.51072,4.30166 -13.3147,5.22349 -16.84375,12.09375 -5.88854,9.24078 -10.42493,22.65765 -3.28125,32.4375 3.6096,3.57637 4.16865,9.27757 7,13.03125 1.73586,2.89025 8.29733,3.36644 7.6875,-1.09375 -4.29362,-9.96176 -13.68243,-20.31654 -9.53125,-31.84375 3.61134,-7.09361 10.12676,-12.58891 16.78125,-16.78125 9.49438,-5.19627 24.51922,-2.12619 27.46875,9.4375 0.58557,2.60046 2.23529,7.44643 5.6875,5.53125 1.71755,-3.84256 0.76051,-8.51672 0.0937,-12.21875 -3.31634,-4.00402 -5.9246,-9.07908 -11.65625,-10 -2.0454,-1.86486 -4.03935,-1.56644 -6.53125,-1.5625 -1.65643,-1.16229 -3.37185,-1.26853 -5.46875,-1.125 z"
         id="path4540"
         inkscape:connector-curvature="0" />
      <path
         style="fill:#ac9393;fill-opacity:1;stroke:#000000;stroke-width:3;stroke-linecap:butt;stroke-linejoin:miter;stroke-miterlimit:4;stroke-opacity:1;stroke-dasharray:none"
         d="m 538.53553,383.97309 c -4.3011,0.18075 -5.27415,2.73774 -7,5 -9.10027,11.9287 7.42005,24.53998 15.5,20.5 0.52455,-0.26227 2.11992,-0.11992 2.5,-0.5 1.80982,-1.80982 9.32092,-8.92367 6.67678,-14.17678 -0.72154,-1.43349 0.57978,-1.75566 -0.46967,-3.29289 -0.33223,-0.48666 -0.79041,-2.11366 -1.20711,-2.53033 -0.63693,-0.63693 -8.60702,-7.33232 -11.5,-5.5 -2.07035,0.12581 -4.5,0.5 -4.5,0.5 z"
         id="path4542"
         inkscape:connector-curvature="0"
         sodipodi:nodetypes="csssssccc" />
      <path
         style="fill:none;stroke:#000000;stroke-width:1px;stroke-linecap:butt;stroke-linejoin:miter;stroke-opacity:1"
         d="m 471,464.61218 c -0.66793,0.45873 -6.73088,-6.78823 -5,-10.25 0.61935,-1.23871 0.96892,-3.21892 1.75,-4 2.50179,-2.50178 6.47786,-4.5 11,-4.5 0.73538,0 1.63049,-0.11951 2,0.25 0.5,0.5 2,0 2.5,0.5 1.21064,1.21064 2.8853,2.6353 4,3.75 0.69971,0.69971 1.11005,2.36005 1.75,3 0.86544,0.86544 0.5,3.84599 0.5,5 0,0.1879 0.53194,0.46806 0.25,0.75 -0.58333,0.58334 -0.41667,1.91667 -1,2.5 -1.13061,1.13061 -2.41415,2.66415 -3.5,3.75 -2.69895,2.69895 -13.13597,4.82015 -14.25,-0.75 z"
         id="path4545"
         inkscape:connector-curvature="0" />
      <path
         style="fill:none;stroke:#000000;stroke-width:1px;stroke-linecap:butt;stroke-linejoin:miter;stroke-opacity:1"
         d="m 470,468.36218 c -1.21534,-0.89371 -2.19337,-1.44337 -3,-2.25 -0.48877,-0.48877 -4.40414,-10.94171 -3.75,-12.25 0.34835,-0.69671 0.26569,-2.76568 0.75,-3.25 0.34763,-0.34763 0.30489,-1.05488 0.75,-1.5 0.65243,-0.65243 0.69464,-1.69464 1.25,-2.25 1.1416,-1.14159 2.47138,-1.98569 4,-2.75 1.60633,-0.80316 4.48888,0.26112 5.75,-1 0.29167,-0.29166 1.45833,0.29167 1.75,0 0.24717,-0.24716 5.71787,-1.03213 6.25,-0.5 0.66667,0.66667 1.83333,0.83334 2.5,1.5 1.37894,1.37894 2.9906,3.4906 4.5,5 1.75072,1.75072 2.49725,11.5055 1,14.5 -0.30186,0.60373 0.2375,2.0125 -0.25,2.5 -0.80908,0.80908 -1.09163,2.09164 -2,3 -3.37841,3.37841 -9.71752,5.76624 -15.25,3 -2.43176,-1.21588 -3.55011,-0.95046 -4.25,-3.75 z"
         id="path4547"
         inkscape:connector-curvature="0" />
      <path
         style="fill:#c8b7b7;stroke:#000000;stroke-width:3;stroke-linecap:butt;stroke-linejoin:miter;stroke-miterlimit:4;stroke-opacity:1;stroke-dasharray:none"
         d="m 472.59099,455.00863 c -5.01242,7.19375 -6.13751,14.38674 -9.08579,19.05025 -2.43084,3.84506 -2.38868,10.42422 -3.41421,11.44975 -0.33587,0.33587 -1,9.61807 -1,11 0,4.213 -0.0242,16.90205 0.93934,19.9948 0.48,1.54066 0.74503,5.37394 1.06066,6.0052 0.7331,1.4662 2.11334,9.60687 2.5,10.5 1.23744,2.85832 5.081,8.25885 8.5,6.5 2.18439,-1.12373 2.85181,-5.86965 1.29289,-8.35355 -5.06483,-8.07004 -4.27783,-24.6014 -5.79289,-28.14645 -1.84709,-4.32197 4.97259,-27.44518 6.5,-30.5 1.70797,-3.41595 2.88743,-9.17157 6,-12 2.85756,-8.39133 -0.7265,-10.99267 -7.5,-5.5 z"
         id="path4549"
         inkscape:connector-curvature="0"
         sodipodi:nodetypes="csssssssssscc" />
      <path
         style="fill:#c8b7b7;fill-opacity:1;stroke:#000000;stroke-width:3;stroke-linecap:butt;stroke-linejoin:miter;stroke-miterlimit:4;stroke-opacity:1;stroke-dasharray:none"
         d="m 544.56231,387.45819 c -2.89765,-1.3565 -6.2399,1.29015 -7.77817,2.82843 -0.41248,0.41248 -0.29463,1.35529 -0.70711,1.76776 -0.2357,0.23571 0.2357,1.17852 0,1.41422 -0.55972,0.55972 -0.55972,2.97581 0,3.53553 0.15652,0.15653 0.7851,4.67419 2.12132,6.01041 1.55794,1.55794 8.1768,6.31889 11.31371,3.18198 0.70788,-0.70788 2.6592,-0.53788 3.53553,-1.41421 2.45459,-2.45459 3.53554,-5.77445 3.53554,-9.8995 0,-0.27683 0.17641,-1.59135 0,-1.76776 -2.63482,-2.63483 -6.47393,-8.98499 -12.02082,-5.65686 z"
         id="path4551"
         inkscape:connector-curvature="0" />
      <path
         style="fill:#6c5353;stroke:#000000;stroke-width:3;stroke-linecap:butt;stroke-linejoin:miter;stroke-miterlimit:4;stroke-opacity:1;stroke-dasharray:none"
         d="m 547.03719,392.05439 c -0.42278,0.61339 -2.27702,-0.90496 -3.88908,0.70711 -5.03975,5.03975 3.94863,11.25416 6.0104,9.19239 2.8693,-2.8693 3.27304,-9.8995 -2.12132,-9.8995 z"
         id="path4553"
         inkscape:connector-curvature="0" />
      <path
         style="fill:#c8b7b7;fill-opacity:1;stroke:#000000;stroke-width:2.56789327;stroke-linecap:butt;stroke-linejoin:round;stroke-miterlimit:4;stroke-opacity:1;stroke-dasharray:none"
         d="m 515.88788,532.58221 c 0.3991,1.92767 4.33296,6.57013 6.79586,9.39311 0.4731,0.54227 2.06678,1.18413 2.53988,1.7264 0.14156,0.16224 2.16101,0.44577 2.45708,0.10641 0.58192,-0.667 -0.4047,-8.94626 -0.79951,-9.85132 -0.72789,-1.66861 -1.3643,-3.39655 -2.39854,-4.58201 -0.98706,1.4687 -1.57176,3.5817 -3.10522,3.97333 -1.56767,0.33888 -3.83457,-0.38653 -5.48955,-0.76592 z"
         id="path4555"
         inkscape:connector-curvature="0"
         sodipodi:nodetypes="cssssccc" />
      <path
         style="fill:#c8b7b7;fill-opacity:1;stroke:#000000;stroke-width:3;stroke-linecap:butt;stroke-linejoin:round;stroke-miterlimit:4;stroke-opacity:1;stroke-dasharray:none"
         d="m 462.58374,535.79118 c -0.95304,0.45546 -1.46058,1.87357 -2.41362,2.32903 -1.05972,0.50644 -1.49437,1.75837 -2.26119,2.64803 -1.14862,1.33264 -0.79976,1.98888 -1.56811,3.68829 -0.0269,1.46554 1.23941,1.42838 2.14905,1.42205 1.60858,-0.0112 2.78325,-0.85408 4.20909,-1.03189 2.50608,-0.31251 5.10299,-2.34076 7.1358,-3.31224 0.50064,-0.23925 2.46744,-2.48134 2.66346,-3.0362 0.0392,-0.11112 -0.21267,0.10163 -0.319,0.15245 -0.051,0.0244 -0.36028,-0.39242 -0.6239,-0.48555 -0.53763,-0.18993 -2.05798,0.36294 -3.50831,-0.57653 -2.86536,-0.0337 -4.65734,-5.04209 -5.46327,-1.79744 z"
         id="path4557"
         inkscape:connector-curvature="0"
         sodipodi:nodetypes="csscsssssscc" />
      <path
         style="fill:#c8b7b7;fill-opacity:1;stroke:#000000;stroke-width:3;stroke-linecap:butt;stroke-linejoin:round;stroke-miterlimit:4;stroke-opacity:1;stroke-dasharray:none"
         d="m 499.25355,518.39059 c -0.4714,-0.11785 -1.53206,0.11785 -1.41421,-0.35355 -5.7881,0.97235 -7.68895,0.82715 -10.79226,4.23896 2.40164,4.57023 10.57462,4.46396 11.14581,3.89277 0.47905,-0.47905 6.15414,-2.12132 6.01041,-2.12132 -3.66062,0 -4.94975,-2.09582 -4.94975,-5.65686 z"
         id="path4559"
         inkscape:connector-curvature="0"
         sodipodi:nodetypes="cccssc" />
      <path
         style="fill:#c8b7b7;fill-opacity:1;stroke:#000000;stroke-width:3;stroke-linecap:butt;stroke-linejoin:miter;stroke-miterlimit:4;stroke-opacity:1;stroke-dasharray:none"
         d="m 499.23211,518.5977 c -1.35104,1.10204 -1.3423,3.64927 -1.31066,4.99264 0.036,1.52667 0.60355,7.83034 0.60355,8.75673 0,0.66535 0.96762,3.65638 1.91421,3.43198 1.41082,-0.33446 3.47183,-1.60089 4.3462,-4.28186 0.46897,-1.43794 1.46,-3.41343 1.72855,-4.93198 0.0959,-1.59589 0.13789,-3.66541 -0.41789,-4.22119 -0.48343,-0.48343 -4.14924,2.978 -6.86396,-3.74632 z"
         id="path4561"
         inkscape:connector-curvature="0"
         sodipodi:nodetypes="csssscsc" />
      <path
         style="fill:#c8b7b7;fill-opacity:1;stroke:#000000;stroke-width:3;stroke-linecap:round;stroke-linejoin:round;stroke-miterlimit:4;stroke-opacity:1;stroke-dasharray:none"
         d="m 470.74073,537.90037 c -2.64419,1.33028 8.60613,8.01088 12.02082,4.59619 0.35355,-0.35355 1.41421,0 1.76777,-0.35355 0.49692,-0.49693 -7.61417,-7.78185 -9.19239,-7.78185 -2.20519,0 -1.17583,4.22328 -4.5962,3.53921 z"
         id="path4563"
         inkscape:connector-curvature="0"
         sodipodi:nodetypes="cscsc" />
      <path
         style="fill:#d9cdcd;fill-opacity:1;stroke:none"
         d="m 465.25,532.36218 c -0.68628,0.0461 -1.75369,-10.75368 -2.75,-11.75 -0.40301,-0.40301 -0.50024,-10.00024 -1.5,-11 -0.0873,-0.0873 0,-7.21784 0,-8 0,-9.44094 0.88621,-25.88621 5.75,-30.75 0.74399,-0.74399 0.77447,-1.77446 1.5,-2.5 1.47195,-1.47195 3.17025,-6.59049 4.25,-8.75 0.21739,-0.43478 0.17211,-1.17211 0.5,-1.5 0.16662,-0.16662 1.66126,-2.33874 2,-2 0.38645,0.38645 -0.26793,2.51793 -0.5,2.75 -0.56376,0.56376 -0.67664,2.42664 -1,2.75 -0.55536,0.55536 -0.34757,1.84757 -1,2.5 -1.25033,1.25034 -2.02509,3.52509 -3.25,4.75 -1.07243,1.07243 -1.96279,6.42559 -2.75,8 -3.91627,7.83254 -4.25,14.9346 -4.25,26.5 0,3.03979 0.52185,15.27185 1.75,16.5 0.59173,0.59173 -0.34173,3.15827 0.25,3.75 0.40868,0.40869 1.75,4.63296 1.75,5.5 0,0.36262 1.63064,3.36937 0.75,4.25 -0.42492,0.42492 -0.98471,-0.69082 -1.5,-1 z"
         id="path4565"
         inkscape:connector-curvature="0" />
      <path
         style="fill:#ae9595;fill-opacity:1;stroke:none"
         d="m 469.75,536.11218 c 0.45815,0.15129 1.59559,0.15441 2.75,-1 0.92131,-0.92131 -1.29169,-3.29169 -1.5,-3.5 -0.125,-0.125 0.125,-0.625 0,-0.75 -1.30208,-1.30208 -0.9685,-3.68699 -1.75,-5.25 -0.38892,-0.77783 -0.3146,-6.0646 -0.75,-6.5 -1.24376,-1.24376 -1.75,-9.64357 -1.75,-12.75 0,-1.4275 -0.50189,-3.50189 -1.25,-4.25 -0.3015,-0.3015 0.64832,-3.14832 0.75,-3.25 0.31327,-0.31327 0.10216,-5.35215 0.5,-5.75 1.03076,-1.03076 0.0467,-3.59346 0.75,-5 1.28653,-2.57305 1.48139,-5.71278 2.75,-8.25 0.18434,-0.36868 -0.28027,-1.46973 0,-1.75 1.15018,-1.15018 1.87034,-6.62034 3.25,-8 0.88052,-0.88052 1.67684,-6.42684 2.25,-7 1.16035,-1.16035 1.96702,-3.21702 3,-4.25 0.64808,-0.64808 0.13018,-2.36982 -0.25,-2.75 -0.67327,-0.67327 -1.87103,1.24206 -2,1.5 -0.47795,0.95589 -1.47186,4.47186 -2,5 -0.48523,0.48523 -0.25639,4.25639 -1,5 -1.59049,1.59049 -1.80945,5.30945 -3.5,7 -0.23303,0.23303 -0.3078,1.80781 -0.75,2.25 -0.40516,0.40516 -0.4481,3.9481 -0.75,4.25 -0.83816,0.83816 -0.22696,3.47696 -1,4.25 -0.57471,0.57471 -0.88838,2.88838 -1.25,3.25 -0.63463,0.63464 -0.15744,2.90744 -0.75,3.5 -1.80204,1.80204 -0.75,17.54123 -0.75,20.75 0,2.49404 1.75697,13.75697 3,15 0.51335,0.51335 1.75,4.99333 1.75,6 0,0.75462 0.98996,2.10201 0.25,2.25 -0.41667,0.0833 -0.16667,-0.83333 -0.25,-1.25"
         id="path4567"
         inkscape:connector-curvature="0" />
      <path
         style="fill:none;stroke:#000000;stroke-width:1px;stroke-linecap:butt;stroke-linejoin:miter;stroke-opacity:1"
         d="m 461.75,524.11218 c 0.53075,0.63475 5.17028,4.32972 8.25,1.25"
         id="path4569"
         inkscape:connector-curvature="0" />
      <path
         style="fill:none;stroke:#000000;stroke-width:1px;stroke-linecap:butt;stroke-linejoin:miter;stroke-opacity:1"
         d="m 459,506.11218 c 3.63568,1.87192 5.56669,1.96665 8.5,0.5"
         id="path4571"
         inkscape:connector-curvature="0" />
      <path
         style="fill:none;stroke:#000000;stroke-width:1px;stroke-linecap:butt;stroke-linejoin:miter;stroke-opacity:1"
         d="m 461,485.86218 c 2.28255,1.81832 4.67937,1.75 7.25,1.75"
         id="path4573"
         inkscape:connector-curvature="0" />
      <path
         style="fill:none;stroke:#000000;stroke-width:1px;stroke-linecap:butt;stroke-linejoin:miter;stroke-opacity:1"
         d="m 467.75,467.36218 c 0.33333,0.25 0.75,0.54167 1,0.75 1.19739,0.63434 4.59681,3.01227 5.5,4.25"
         id="path4575"
         inkscape:connector-curvature="0"
         sodipodi:nodetypes="ccc" />
      <path
         style="fill:#ae9595;fill-opacity:1;stroke:none"
         d="m 494.95914,431.12724 c -0.18947,0.0305 -0.63314,-2.04734 -1.59099,-3.0052 -0.44919,-0.44918 -1.10722,-3.75887 -1.41422,-4.06586 -0.51251,-0.51252 -0.60217,-1.66284 -1.06066,-2.12132 -1.79679,-1.7968 -2.76584,-4.47102 -3.88909,-6.71752 -0.42114,-0.8423 -1.88695,-7.72058 -1.94454,-7.77817 -0.91496,-0.91497 -0.58045,-6.84418 0.35355,-7.77818 0.1945,-0.19449 0.74052,-3.74572 1.06066,-4.06586 0.88331,-0.88331 2.09233,-2.79944 3.18199,-3.88909 0.37668,-0.37669 0.93468,-1.99535 1.76776,-2.82843 2.73874,-2.73873 7.80626,-5.86171 10.78338,-8.83883 0.55697,-0.55697 4.80815,-1.27262 5.12652,-1.59099 0.63995,-0.63994 3.89335,-0.71137 4.24265,-1.06066 0.51244,-0.51244 1.76029,0.18051 2.47487,-0.17678 1.64022,-0.82011 7.71901,0.29439 8.83883,1.41422 0.9395,0.93949 2.36739,1.8908 3.53554,2.47487 1.26957,0.63479 4.81349,2.69217 5.48008,3.35876 0.11785,0.11785 0.0589,0.41248 0.17677,0.53033 0.50231,0.5023 1.04556,-0.86879 1.06066,-0.88389 0.0589,-0.0589 0.2357,0.11785 0.17678,0.17678 -0.0932,0.0932 -0.0836,-0.26038 -0.17678,-0.35355 -0.24859,-0.24859 -0.68951,-0.68952 -0.88388,-0.88389 -0.59967,-0.59966 -1.73284,-1.2025 -2.2981,-1.76776 -0.41916,-0.41916 -1.57461,-0.51395 -1.94454,-0.88389 -1.03887,-1.03887 -3.17495,-1.58395 -4.24264,-2.65165 -0.55011,-0.5501 -2.81343,-0.33855 -3.35876,-0.88388 -0.3315,-0.3315 -3.44238,0.13496 -4.06586,-0.17678 -3.05772,-1.52885 -13.07546,1.4082 -14.84925,3.18198 -0.30657,0.30658 -1.32032,0.0829 -1.59099,0.35356 -0.90617,0.90616 -2.45876,1.3981 -3.35875,2.29809 -0.22044,0.22044 -0.93901,0.2319 -1.23744,0.53033 -1.75906,1.75907 -3.85435,3.85435 -5.83363,5.83363 -1.42503,1.42503 -2.19573,3.78672 -3.53554,5.12653 -0.64605,0.64605 -1.83288,5.43353 -2.47487,6.71751 -0.16509,0.33019 0.0515,1.53951 -0.17678,1.76777 -0.49766,0.49766 -0.41106,4.18513 0.17678,4.77297 0.42514,0.42514 -0.27969,2.09227 0,2.65165 0.73182,1.46364 0.47891,3.66089 1.59099,4.77297 0.34911,0.34911 0.12851,1.49445 0.35355,1.94454 1.10904,2.21808 2.19044,3.60465 3.71232,5.12653 0.26074,0.26074 0.13686,1.02075 0.35355,1.23744 0.94815,0.94815 1.49089,2.72832 2.47487,3.71231 0.5894,0.5894 0.38768,2.509 1.06066,3.18198 0.81589,0.81588 -0.10111,2.46483 1.94455,1.23743 z"
         id="path4577"
         inkscape:connector-curvature="0" />
      <path
         style="fill:#d9cdcd;fill-opacity:1;stroke:none"
         d="m 534.02679,382.69043 c -0.23571,-0.11785 -0.82496,-0.11785 -0.70711,-0.35355 0.11785,-0.23571 0.89344,0.53989 0.70711,0.35355 -1.92303,-1.92303 -3.71348,-3.18314 -5.30331,-4.77297 -0.24806,-0.24807 -1.16614,-0.10549 -1.41421,-0.35355 -0.82766,-0.82767 -2.21087,-0.97344 -3.18198,-1.94455 -0.58862,-0.58862 -4.81732,0.0662 -5.3033,-0.17678 -0.9016,-0.45079 -2.20214,-0.78793 -2.82843,-1.41421 -0.49967,-0.49967 -2.4757,0.35355 -2.82842,0.35355 -0.34144,0 -1.69188,0.45445 -1.94455,0.70711 -0.31806,0.31807 -1.64851,-0.11925 -1.94454,0.17678 -0.12886,0.12886 -2.88029,1.08659 -3.53554,1.41421 -0.70197,0.35099 -3.21076,0.0144 -3.53553,0.17678 -1.34619,0.67309 -1.95111,1.42078 -2.82843,2.2981 -0.47749,0.47749 -1.34388,0.63677 -1.94454,1.23743 -0.83682,0.83682 -4.56857,1.20981 -6.01041,2.65165 -0.2357,0.23571 -0.82496,0.11785 -1.06066,0.35356 -1.05089,1.05089 -1.70698,2.06054 -2.82843,3.18198 -0.57971,0.57971 -0.78545,1.84611 -1.41421,2.47487 -0.30549,0.30549 0.0162,1.55856 -0.17678,1.94454 -0.80763,1.61527 -1.64467,2.88211 -2.82842,4.06587 -0.29581,0.2958 -0.84278,3.45333 -1.23744,4.24264 -0.18856,0.37712 0.18856,1.03709 0,1.41421 -0.47529,0.95058 -0.37749,3.05308 -0.70711,3.71231 -0.8394,1.67881 -0.27902,6.61527 0.70711,7.6014 0.18482,0.18482 0.23541,2.17995 0.53033,2.47487 1.38693,1.38693 2.2263,3.46375 3.53553,4.77298 0.30504,0.30503 0.10046,1.16111 0.35356,1.41421 0.20624,0.20624 0.14731,0.67764 0.35355,0.88388 1.54076,1.54076 1.77829,4.08691 2.82843,6.18719 0.24173,0.48346 0.81162,1.94454 1.23744,1.94454 0.33333,0 1.04044,0.70711 0.7071,0.70711 -0.013,0 0.0162,-0.4979 0,-0.53033 -0.21037,-0.42075 -0.7071,-1.46875 -0.7071,-1.76777 0,-1.13703 -2.40763,-6.65026 -2.82843,-7.07107 -0.419,-0.419 -0.78868,-1.31901 -1.23744,-1.76776 -0.61872,-0.61872 -1.32582,-1.14905 -1.94454,-1.76777 -0.41248,-0.41248 -0.47141,-1.17851 -0.88389,-1.59099 -0.62093,-0.62094 -1.35118,-4.88672 -1.94454,-5.48008 -0.4552,-0.4552 0.27443,-6.10806 0.53033,-6.36396 0.0284,-0.0284 0.96879,-6.71055 1.41421,-7.6014 0.51451,-1.02901 1.13899,-2.37642 1.94455,-3.18198 0.43877,-0.43877 0.29709,-1.53453 0.7071,-1.94454 0.43592,-0.43592 0.69655,-1.93399 1.06066,-2.2981 0.26517,-0.26516 0.26517,-0.79549 0.53033,-1.06066 0.49138,-0.49138 0.96374,-0.96374 1.591,-1.59099 0.16994,-0.16995 0.12666,-0.65699 0.35355,-0.88388 1.50048,-1.50048 4.0668,-2.65259 5.65685,-4.24264 0.52997,-0.52997 2.15694,-0.91951 2.82843,-1.59099 0.60738,-0.60738 3.31567,-1.01758 4.06586,-1.76777 0.44881,-0.44881 5.53329,-1.29065 6.01041,-1.76777 0.20624,-0.20624 1.0312,0.20624 1.23744,0 0.89933,-0.89933 8.32404,-1.93677 10.07627,-1.06066 1.09794,0.54897 1.48422,0.95389 2.2981,1.76777 0.44813,0.44813 1.76562,0.35141 2.29809,0.88388 0.33603,0.33602 4.34711,0.6348 5.30331,1.59099 0.61145,0.61146 0.74653,1.8072 1.41421,2.47488 0.71064,0.71063 1.26549,1.50905 2.82843,0.88388 z"
         id="path4579"
         inkscape:connector-curvature="0" />
      <path
         style="fill:none;stroke:#000000;stroke-width:1px;stroke-linecap:butt;stroke-linejoin:miter;stroke-opacity:1"
         d="m 485.75,421.86218 c 2.68489,1.05674 4.3718,-1.1218 5,-1.75"
         id="path4581"
         inkscape:connector-curvature="0" />
      <path
         style="fill:none;stroke:#000000;stroke-width:1px;stroke-linecap:butt;stroke-linejoin:miter;stroke-opacity:1"
         d="m 479.5,406.36218 c 0.52633,0.54191 3.99232,1.25768 6,-0.75"
         id="path4583"
         inkscape:connector-curvature="0" />
      <path
         style="fill:none;stroke:#000000;stroke-width:1px;stroke-linecap:butt;stroke-linejoin:miter;stroke-opacity:1"
         d="m 485.75,388.11218 c 0.1672,0.13891 5,2.17705 5,4"
         id="path4585"
         inkscape:connector-curvature="0" />
      <path
         style="fill:none;stroke:#000000;stroke-width:1px;stroke-linecap:butt;stroke-linejoin:miter;stroke-opacity:1"
         d="m 499,377.36218 c 2.31942,1.14264 3.75,2.00661 3.75,4.75"
         id="path4587"
         inkscape:connector-curvature="0" />
      <path
         style="fill:none;stroke:#000000;stroke-width:1px;stroke-linecap:butt;stroke-linejoin:miter;stroke-opacity:1"
         d="m 522.95711,373.27119 c 1.88241,2.36595 -1.27525,5.90913 -2.45711,7.09099"
         id="path4589"
         inkscape:connector-curvature="0"
         sodipodi:nodetypes="cc" />
      <path
         style="fill:#ae9595;fill-opacity:1;stroke:none"
         d="m 503.62119,480.8015 c 0.57485,-0.19141 1.58747,1.58746 2.82843,2.82842 0.96915,0.96915 2.12669,1.24281 3.00521,2.12132 0.7832,0.7832 0.956,2.37023 1.76776,3.18198 1.71977,1.71977 3.32265,4.20654 4.94975,5.83363 0.54978,0.54978 1.69677,6.11619 1.76777,6.18719 1.00345,1.00345 0.46532,4.28941 1.23743,5.83363 0.18857,0.37712 -0.18856,1.03709 0,1.41421 1.10722,2.21444 1.41422,9.32045 1.41422,12.37437 0,1.06743 0.19945,4.19729 -0.17678,4.94975 -0.57783,1.15567 -2.6959,5.08228 -1.76777,6.01041 0.19754,0.19753 0.61265,-0.17678 0.70711,-0.17678 1.67014,0 0.74714,0.31353 1.76777,-0.70711 0.2357,-0.2357 0.64818,-0.29462 0.88388,-0.53033 0.40766,-0.40766 -0.21504,-1.66751 -0.53033,-2.29809 -0.38007,-0.76015 -0.11449,-6.31177 0.17678,-6.89429 0.40338,-0.80677 -0.70711,-4.11524 -0.70711,-5.30331 0,-0.75072 0.61331,-2.39189 0.17678,-2.82842 -0.24881,-0.24881 -0.39116,-2.86604 -0.70711,-3.18198 -0.65149,-0.65149 -1.12136,-3.47484 -0.17678,-4.41942 0.26335,-0.26335 -1.08231,-5.67851 -1.23743,-5.83363 -0.17678,-0.17678 0.17677,-0.88389 0,-1.06066 -1.04845,-1.04845 -1.95682,-6.90656 -3.35876,-8.30851 -0.20624,-0.20624 0.0295,-0.85442 -0.17678,-1.06066 -1.06066,-1.06066 -1.94454,-2.29809 -3.0052,-3.35875 -0.4849,-0.4849 -1.98997,-0.92932 -2.47487,-1.41422 -0.74321,-0.74321 -1.60968,-1.25612 -2.2981,-1.94454 -0.56319,-0.56319 0.21588,-2.78932 -0.35356,-3.35876 -0.21159,-0.2116 -0.80295,0.97974 -0.88388,1.06066 -0.68355,0.68355 -1.42579,1.16441 -2.82843,0.88389 z"
         id="path4591"
         inkscape:connector-curvature="0" />
      <path
         style="fill:none;stroke:#000000;stroke-width:1px;stroke-linecap:butt;stroke-linejoin:miter;stroke-opacity:1"
         d="m 507.25,486.61218 c 2.86346,0.29358 4.32426,-2.28713 5.75,-3"
         id="path4593"
         inkscape:connector-curvature="0" />
      <path
         style="fill:#d9cdcd;fill-opacity:1;stroke:none"
         d="m 518.11688,526.23311 c 0.63768,-0.13394 -0.20169,-4.57128 0.88389,-5.65686 0.26516,-0.26516 -0.0884,-1.14905 0.17677,-1.41421 0.16115,-0.16115 0,-1.33779 0,-1.59099 0,-0.49849 -0.51024,-6.16709 -0.7071,-6.36396 -0.41718,-0.41718 0.61163,-4.08004 0.17677,-4.94975 -0.19155,-0.38311 -0.12447,-1.18513 -0.35355,-1.41421 -0.19812,-0.19812 -1.76777,-2.94274 -1.76777,-3.18198 0,-0.46875 -1.15411,-5.49021 -1.41421,-6.01041 -0.42706,-0.85412 -0.8755,-1.57422 -1.23744,-2.2981 -0.053,-0.10592 -0.89102,-0.88388 -0.88388,-0.88388 0.47807,0 1.94454,4.31907 1.94454,5.12652 0,0.99823 2.01848,11.38764 2.47488,11.84404 0.44873,0.44873 -0.30998,2.34167 0.17677,2.82843 1.33802,1.33801 0.53033,11.42075 0.53033,13.96536 z"
         id="path4595"
         inkscape:connector-curvature="0" />
      <path
         style="fill:none;stroke:#000000;stroke-width:1px;stroke-linecap:butt;stroke-linejoin:miter;stroke-opacity:1"
         d="m 515,501.61218 c -0.13805,0.81176 5.75,-1.36589 5.75,-3.75"
         id="path4597"
         inkscape:connector-curvature="0" />
      <path
         style="fill:none;stroke:#000000;stroke-width:1px;stroke-linecap:butt;stroke-linejoin:miter;stroke-opacity:1"
         d="m 507.5,508.61218 c 0.78306,4.54177 2.39471,5.07236 5.75,6.75"
         id="path4599"
         inkscape:connector-curvature="0" />
      <path
         style="fill:none;stroke:#000000;stroke-width:1px;stroke-linecap:butt;stroke-linejoin:miter;stroke-opacity:1"
         d="m 517.5,520.36218 c 0.95798,2.6927 5.75,1.85374 5.75,0"
         id="path4602"
         inkscape:connector-curvature="0" />
      <path
         style="fill:none;stroke:#000000;stroke-width:1px;stroke-linecap:butt;stroke-linejoin:miter;stroke-opacity:1"
         d="m 519,482.61218 c 2.50435,0.83163 6.21481,0.0704 8.25,-4"
         id="path4604"
         inkscape:connector-curvature="0" />
      <path
         style="fill:none;stroke:#000000;stroke-width:1px;stroke-linecap:butt;stroke-linejoin:miter;stroke-opacity:1"
         d="m 496.25,480.36218 c 0.24139,-1.69779 7.67821,-6.28589 12.25,-4"
         id="path4606"
         inkscape:connector-curvature="0" />
      <path
         style="fill:none;stroke:#000000;stroke-width:1px;stroke-linecap:butt;stroke-linejoin:miter;stroke-opacity:1"
         d="m 491,480.36218 c 2.49804,-3.51174 11.24103,-10.00448 18.75,-6.25"
         id="path4608"
         inkscape:connector-curvature="0" />
      <path
         style="fill:none;stroke:#000000;stroke-width:1px;stroke-linecap:butt;stroke-linejoin:miter;stroke-opacity:1"
         d="m 487.5,479.61218 c 2.36215,-2.70047 -2.41077,2.41077 1.5,-1.5 0.39872,-0.39872 0.35128,-1.10127 0.75,-1.5 2.2241,-2.22409 4.59952,-3.34951 6.75,-5.5 0.55076,-0.55076 1.80479,-0.0548 2.25,-0.5 2.47583,-2.47583 11.38282,-0.80859 14,0.5"
         id="path4610"
         inkscape:connector-curvature="0" />
      <path
         style="fill:none;stroke:#000000;stroke-width:1px;stroke-linecap:butt;stroke-linejoin:miter;stroke-opacity:1"
         d="m 476,476.36218 c 0.33333,0 1,-0.33333 1,0 0,0.33334 -1.33333,0 -1,0 0.95116,0 1.73662,0.13169 2.5,-0.25 0.85998,-0.42999 3.07231,0.42769 3.75,-0.25 0.44759,-0.44758 2.86861,-1.75 3.5,-1.75 0.24102,0 2.26702,-1.23298 2.5,-1 0.062,0.062 -0.9065,1.1565 -1,1.25 -0.68651,0.68652 -1.75,3.48987 -1.75,5"
         id="path4612"
         inkscape:connector-curvature="0" />
      <path
         style="fill:none;stroke:#000000;stroke-width:1px;stroke-linecap:butt;stroke-linejoin:miter;stroke-opacity:1"
         d="m 510.75,428.86218 c 0.1991,0.3982 0.63738,0.88738 1,1.25 0.35986,0.35986 0.25,1.92574 0.25,2.5 0,4.81968 -1.44917,10.44917 -4.5,13.5 -1.75488,1.75488 -4.3149,2.65745 -6.5,3.75 -0.84649,0.4232 -4.23854,1.00573 -5.25,0.5 -0.46158,-0.2308 -1.06523,-0.0326 -1.5,-0.25 -0.20843,-0.10421 -0.9535,-0.5465 -1,-0.5 -0.0754,0.0754 1.5,1.79478 1.5,3 0,0.72008 0.66612,4.66612 1,5 1.3602,1.3602 -1.93718,10.68718 -2.25,11 -0.44253,0.44253 -1.19519,0.64039 -1.75,1.75 -0.18634,0.37268 1.25,-0.41666 1,-0.75 -0.25,-0.33333 -0.66667,0.5 -1,0.75 1.70201,-1.72009 3.98011,-2.4801 5.5,-4 0.125,-0.125 0.625,0.125 0.75,0 2.029,-2.029 8.96923,-2.14039 11.75,-0.75 2.08823,1.04412 3.71048,1.17097 4.75,3.25"
         id="path4614"
         inkscape:connector-curvature="0" />
      <path
         style="fill:none;stroke:#000000;stroke-width:1px;stroke-linecap:butt;stroke-linejoin:miter;stroke-opacity:1"
         d="m 462,446.11218 c 1.06001,-1.92886 5.055,-5.25 10.75,-5.25 0.0359,0 5.25,-0.56446 5.25,-0.25 0,0.02 -1.73815,-0.98815 -3,-2.25 -1.92479,-1.92478 -1.23955,-12.48955 0.5,-10.75"
         id="path4616"
         inkscape:connector-curvature="0" />
      <path
         style="fill:none;stroke:#000000;stroke-width:1px;stroke-linecap:butt;stroke-linejoin:miter;stroke-opacity:1"
         d="m 516,464.36218 c -0.91087,-1.77542 -6.84179,-2.09179 -7.75,-3 -0.44084,-0.44084 -2.16997,0.29002 -2.75,0 -0.35273,-0.17636 -2.32003,-0.67997 -2.5,-0.5 -0.59038,0.59038 -1.70573,0.45573 -2.5,1.25 -0.16667,0.16667 -0.2643,0.5 -0.5,0.5 -0.0838,0 0.75,-1.70078 0.75,-3.25 0,-0.64881 0.15995,-3.34005 -0.25,-3.75 -0.0935,-0.0935 -0.79451,-1.45549 -0.75,-1.5 0.29167,-0.29166 1.45833,0.29167 1.75,0 0.35466,-0.35466 3.13286,-1.69143 3.75,-2 2.99934,-1.49967 4.98149,-2.48148 7.25,-4.75 1.24353,-1.24353 1.43041,-3.68041 2.75,-5 0.7084,-0.7084 1.16884,-6.58768 1.5,-7.25"
         id="path4618"
         inkscape:connector-curvature="0" />
      <path
         style="fill:none;stroke:#000000;stroke-width:1px;stroke-linecap:butt;stroke-linejoin:miter;stroke-opacity:1"
         d="m 518.25,462.11218 c -1.52924,-2.23984 -5.39591,-2.14591 -7,-3.75 -0.71037,-0.71037 -3.26041,-0.0104 -4,-0.75 -0.57677,-0.57677 -2.25,0.26881 -2.25,0 0,-0.58925 -0.16667,-1.33333 0.25,-1.75 0.0328,-0.0328 5.87178,-1.12178 6.25,-1.5 1.51879,-1.51879 4.62374,-3.62374 6.25,-5.25 0.77659,-0.77659 1.85791,-3.85791 2.25,-4.25"
         id="path4620"
         inkscape:connector-curvature="0" />
      <path
         style="fill:none;stroke:#000000;stroke-width:1px;stroke-linecap:butt;stroke-linejoin:miter;stroke-opacity:1"
         d="m 520.75,451.86218 c -1.81192,1.89885 -3.16884,2.70942 -5.25,3.75 -0.25119,0.1256 -2,0.0986 -2,0.5 0,0.49296 1.86924,-0.38076 2.5,0.25 0.0224,0.0224 3.86043,1.93021 4,2"
         id="path4622"
         inkscape:connector-curvature="0" />
      <path
         style="fill:none;stroke:#000000;stroke-width:1px;stroke-linecap:butt;stroke-linejoin:miter;stroke-opacity:1"
         d="m 464,439.61218 c 0.42612,-1.9741 3.66291,-0.6629 4.5,-1.5 0.0324,-0.0324 2.75,-0.49657 2.75,-0.25 0,0.25538 -1.2444,-2.2444 -1.25,-2.25 -0.83838,-0.83838 -0.5,-3.32836 -0.5,-3.5"
         id="path4624"
         inkscape:connector-curvature="0" />
      <path
         style="fill:#9f8383;fill-opacity:1;stroke:none"
         d="m 544.10306,408.49983 c -0.21451,0.0584 -3.33917,-0.68752 -4.41942,-1.76777 -0.67382,-0.67382 -1.23128,-1.32275 -2.12132,-1.76777 -2.27945,-1.13972 -3.88909,-7.34168 -3.88909,-10.78338 0,-1.06447 0.72417,-4.2597 1.23744,-4.77297 0.53933,-0.53933 0.88388,-1.28464 0.88388,-1.23743 0,0.028 -0.48392,0.30714 -0.53033,0.35355 -0.16995,0.16995 -0.12666,0.65699 -0.35355,0.88388 -1.10373,1.10373 -1.23177,3.70664 -2.12132,4.5962 -0.27895,0.27895 -0.0867,1.32412 -0.35355,1.59099 -0.16676,0.16675 -0.17678,2.99077 -0.17678,3.18198 0,3.26327 1.99671,5.70902 3.88909,7.6014 0.65821,0.65821 2.9571,1.18933 3.71231,1.94454 0.37976,0.37977 3.79326,0.17678 4.24264,0.17678 z"
         id="path4626"
         inkscape:connector-curvature="0" />
      <path
         style="fill:#523a3a;fill-opacity:1;stroke:none"
         d="m 543.57273,396.65579 c 0.0589,0.2357 0.41248,0.64818 0.17678,0.70711 -0.2357,0.0589 -0.17678,-0.95007 -0.17678,-0.70711 0,1.78279 1.34247,2.40313 2.2981,3.35876 0.30503,0.30503 1.16111,0.10045 1.41421,0.35355 0.0203,0.0203 0.93365,-0.0498 1.23744,-0.35355 0.78424,-0.78424 0.7071,-1.2238 0.7071,-2.2981 0,-0.77479 -0.17297,-1.41802 -0.17677,-1.41422 -0.3244,0.32441 -0.49712,0.85068 -0.88389,1.23744 -0.17435,0.17436 -0.75505,0.048 -0.88388,0.17678 -1.20071,1.20071 -2.27309,-1.06066 -3.71231,-1.06066 z"
         id="path4628"
         inkscape:connector-curvature="0"
         sodipodi:nodetypes="ccssscscccc" />
    </g>
  </g>
</svg>
