<?xml version="1.0" encoding="UTF-8" standalone="no"?>
<!-- Created with Inkscape (http://www.inkscape.org/) -->

<svg
   xmlns:dc="http://purl.org/dc/elements/1.1/"
   xmlns:cc="http://creativecommons.org/ns#"
   xmlns:rdf="http://www.w3.org/1999/02/22-rdf-syntax-ns#"
   xmlns:svg="http://www.w3.org/2000/svg"
   xmlns="http://www.w3.org/2000/svg"
   xmlns:sodipodi="http://sodipodi.sourceforge.net/DTD/sodipodi-0.dtd"
   xmlns:inkscape="http://www.inkscape.org/namespaces/inkscape"
   width="262.28009"
   height="262.28009"
   id="svg3332"
   version="1.1"
   inkscape:version="0.48.3.1 r9886"
   sodipodi:docname="testling_sticker.svg"
   inkscape:export-filename="/home/substack/media/vector/testling_sticker.png"
   inkscape:export-xdpi="285.42001"
   inkscape:export-ydpi="285.42001">
  <defs
     id="defs3334" />
  <sodipodi:namedview
     id="base"
     pagecolor="#ffffff"
     bordercolor="#666666"
     borderopacity="1.0"
     inkscape:pageopacity="0.0"
     inkscape:pageshadow="2"
     inkscape:zoom="0.5653947"
     inkscape:cx="501.36592"
     inkscape:cy="54.380825"
     inkscape:document-units="px"
     inkscape:current-layer="layer1"
     showgrid="false"
     inkscape:window-width="1364"
     inkscape:window-height="766"
     inkscape:window-x="0"
     inkscape:window-y="0"
     inkscape:window-maximized="0"
     fit-margin-top="5"
     fit-margin-left="5"
     fit-margin-bottom="5"
     fit-margin-right="5" />
  <metadata
     id="metadata3337">
    <rdf:RDF>
      <cc:Work
         rdf:about="">
        <dc:format>image/svg+xml</dc:format>
        <dc:type
           rdf:resource="http://purl.org/dc/dcmitype/StillImage" />
        <dc:title></dc:title>
      </cc:Work>
    </rdf:RDF>
  </metadata>
  <g
     inkscape:label="Layer 1"
     inkscape:groupmode="layer"
     id="layer1"
     transform="translate(-248.29364,-318.28183)">
    <path
       sodipodi:type="arc"
       style="color:#000000;fill:#483737;fill-opacity:1;fill-rule:nonzero;stroke:#ffffff;stroke-width:1.19200003;stroke-linecap:round;stroke-linejoin:round;stroke-miterlimit:4;stroke-opacity:0;stroke-dasharray:none;stroke-dashoffset:0;marker:none;visibility:visible;display:inline;overflow:visible;enable-background:accumulate"
       id="path3494"
       sodipodi:cx="359.17307"
       sodipodi:cy="449.37961"
       sodipodi:rx="125.80353"
       sodipodi:ry="125.80353"
       d="m 484.97659,449.37961 c 0,69.47937 -56.32415,125.80353 -125.80352,125.80353 -69.47937,0 -125.80353,-56.32416 -125.80353,-125.80353 0,-69.47937 56.32416,-125.80353 125.80353,-125.80353 69.47937,0 125.80352,56.32416 125.80352,125.80353 z"
       transform="matrix(0.99794711,0,0,0.99794711,20.997957,0.96479145)" />
    <g
       id="g5275"
       transform="matrix(1.055831,0,0,1.055831,143.21204,-62.653713)"
       inkscape:export-filename="/home/substack/media/vector/testling_donate_5.png"
       inkscape:export-xdpi="63.919689"
       inkscape:export-ydpi="63.919689">
      <path
         style="fill:#c8b7b7;fill-opacity:1;stroke:#ffffff;stroke-width:3.57645655;stroke-linecap:butt;stroke-linejoin:round;stroke-miterlimit:4;stroke-opacity:0;stroke-dasharray:none"
         d="m 237.48173,567.08854 c 3.0398,0.92173 13.51809,0.81256 17.28107,-2.95042 0.50572,-0.50573 1.27136,-0.42839 1.68596,-0.84299 0.15527,-0.15526 3.50802,-2.39282 3.37191,-2.52893 -0.19374,-0.19375 -1.45472,-0.63224 -1.8967,-0.63224 -1.89186,-0.29191 -5.47717,-1.88509 -7.35488,-1.73709 -0.92927,0 -5.19982,-1.15429 -7.03749,-0.80682 -0.22095,0.0418 0.68005,2.57173 0.48322,2.9654 -0.23837,0.47674 -0.11973,1.80568 -0.42149,2.10745 -0.28099,0.28099 -0.14049,0.98348 -0.42149,1.26447 -0.8178,0.81779 -1.10694,1.94992 -1.89671,2.73968 -0.31611,0.31611 -1.36983,-0.10538 -1.68595,0.21074 -0.53684,0.53685 -0.95457,0.44132 -2.10745,0.21075 z"
         id="path4511"
         inkscape:connector-curvature="0"
         sodipodi:nodetypes="csccccssccssc" />
      <path
         style="fill:#c8b7b7;fill-opacity:1;stroke:#ffffff;stroke-width:3.57645655;stroke-linecap:butt;stroke-linejoin:miter;stroke-miterlimit:4;stroke-opacity:0;stroke-dasharray:none"
         d="m 225.95557,472.19115 c 12.06668,6.25458 15.01285,15.98823 21.15863,23.73806 1.31481,1.65799 1.71671,4.25491 2.25429,6.20027 0.75844,2.74464 0.10884,4.25816 -0.0722,7.3761 -0.48924,3.60826 -1.67331,6.27028 -3.06859,8.40655 -3.04225,4.65795 -3.46667,7.65359 -5.96599,12.72897 -1.41607,2.20216 -3.67864,6.4614 -4.75222,8.79505 -2.1753,4.72847 -3.21012,7.9539 -7.97156,11.72982 -4.49526,3.56484 -7.68949,9.73527 -12.40855,3.78455 -1.20429,-1.5186 1.16841,-6.63228 2.12613,-7.39176 0.89519,-0.7099 10.46674,-14.69471 12.2651,-17.44815 0.57718,-0.88372 0.44105,-2.63204 1.22409,-3.25301 1.93089,-1.53125 6.01403,-12.25698 6.25643,-14.35686 0.18964,-1.64297 1.3663,-5.95163 0.40297,-7.1664 -6.17251,-7.78354 -14.23392,-16.03031 -20.56397,-24.01252 -0.31475,-0.39692 0.95588,-0.37766 1.35279,-0.69242"
         id="path4513"
         inkscape:connector-curvature="0"
         sodipodi:nodetypes="csscscsssssssscc" />
      <path
         style="fill:#ae9595;fill-opacity:1;stroke:#ffffff;stroke-opacity:0"
         d="m 233.46789,488.30106 c 0.60942,0.26002 4.34846,2.26219 6.2588,4.17253 1.08838,1.08838 1.44788,2.342 2.38431,3.27842 0.78006,0.78006 1.30622,3.09445 2.08626,3.87449 0.84444,0.84445 -0.24836,3.62614 0.59608,4.47058 0.51455,0.51454 0.22715,1.05039 0.59608,1.78822 2.14351,4.28703 0.51161,9.91972 -2.08627,12.5176 -0.81126,0.81127 -0.90491,2.69315 -1.78823,3.57646 -0.58315,0.58315 -1.35557,6.12419 -2.68234,7.45095 -0.69542,0.69543 -0.1987,2.583 -0.89411,3.27842 -2.46118,2.46118 -4.36111,9.7258 -6.2588,11.62348 -0.91887,0.91887 -1.08187,2.27403 -1.78823,2.98038 -0.64735,0.64735 -8.36706,6.83289 -9.83526,5.36469 -0.20352,-0.20353 2.28264,-2.28264 2.68235,-2.68234 0.39738,-0.39738 1.68888,0.0993 2.08626,-0.29804 2.1897,-2.18969 2.84297,-5.82336 4.47057,-7.45095 0.89818,-0.89818 0.90545,-5.37601 1.78823,-6.2588 1.47853,-1.47853 2.27842,-7.04702 2.98038,-7.74899 1.11134,-1.11134 1.44621,-3.53248 2.38431,-4.47057 2.21565,-2.21565 2.85099,-4.93727 5.06664,-7.15292 1.09323,-1.09321 0.53542,-3.21776 1.49019,-4.17253 0.34772,-0.3477 -0.34771,-1.73855 0,-2.08627 0.4526,-0.4526 0.67782,-4.38881 0,-5.06664 -1.10788,-1.10788 -2.17054,-1.57447 -3.27842,-2.68234 -0.39738,-0.39738 -1.39084,-0.19869 -1.78822,-0.59608 -1.97758,-1.97757 -5.06313,-4.76508 -7.15292,-6.85488 -0.39584,-0.39584 0.52318,-7.37805 0.59608,-7.45095 0.51142,-0.51141 1.41475,0.32748 2.08626,0.59608 z"
         id="path4515"
         inkscape:connector-curvature="0" />
      <path
         style="fill:#d9cdcd;fill-opacity:1;stroke:#ffffff;stroke-opacity:0"
         d="m 218.86403,548.50475 c -0.19765,-1.15941 2.46548,-3.06156 4.47057,-5.06665 2.30474,-2.30473 2.70217,-5.40434 4.17253,-8.34507 0.69756,-1.39509 2.642,-4.13218 3.57646,-5.06664 0.1489,-0.14889 1.41128,-2.16518 1.49019,-2.08627 0.73334,0.73334 -1.38182,3.95581 -1.78823,4.76861 -0.62379,1.2476 -0.23833,3.21871 -1.19215,4.17253 -3.43649,3.43649 -4.36909,12.89555 -10.72937,11.62349 z"
         id="path4517"
         inkscape:connector-curvature="0" />
      <path
         style="fill:#d9cdcd;fill-opacity:1;stroke:#ffffff;stroke-opacity:0"
         d="m 238.2365,503.501 c 0.39738,0.39739 1.58954,0.79477 1.19216,1.19215 -0.39738,0.39739 -1.58954,-1.58953 -1.19216,-1.19215 1.67404,1.67403 5.21928,6.10617 2.98038,8.34506 -0.24836,0.24838 -0.0497,0.9438 -0.29803,1.19216 -0.51687,0.51687 -0.43777,1.92797 -0.89412,2.3843 -0.18905,0.18905 0.12407,0.94401 0,1.19215 -0.43996,0.87994 -1.19215,1.73238 -1.19215,2.68235 -0.39738,-0.49674 -0.8393,-0.9609 -1.19215,-1.49019 -0.46246,-0.69369 0.80123,-5.17894 1.19215,-5.96077 0.96914,-1.93826 -0.15689,-6.58829 -0.59608,-8.34506 z"
         id="path4519"
         inkscape:connector-curvature="0" />
      <path
         style="fill:#c8b7b7;fill-opacity:1;stroke:#ffffff;stroke-width:3.57645655;stroke-linecap:butt;stroke-linejoin:round;stroke-miterlimit:4;stroke-opacity:0;stroke-dasharray:none"
         d="m 203.66409,489.49321 c 3.11201,0.85262 18.70292,7.97356 24.73716,14.00779 2.29712,2.29713 4.47984,5.672 7.15291,8.34506 3.2335,3.2335 3.9309,8.49514 5.75001,12.86057 1.20447,2.89042 0.88819,8.30326 1.26447,10.32029 0.97637,5.23375 1.33059,8.38424 1.33059,14.37194 0,9.69186 2.46725,15.5235 -1.01137,19.21287 -1.84373,1.633 -2.81122,1.18402 -4.94939,1.05372 -3.45834,-0.21075 -2.98038,-5.28238 -2.98038,-8.94114 0,-3.16888 0.71883,-9.54459 0.59607,-11.32545 -0.35885,-5.20599 -2.48698,-15.02799 -3.39567,-20.02589 -0.54312,-2.98726 -1.46365,-8.11656 -4.45559,-12.16222 -1.41864,-1.91827 -3.52634,-5.41683 -5.26241,-7.15291 -1.95354,-1.95354 -8.36734,-7.74899 -10.72937,-7.74899 -1.8551,0 -3.15394,-1.35344 -5.51371,-2.53333 -1.03024,-0.51511 -2.26815,-1.225 -4.02351,-2.23528 -2.91898,-6.04839 1.49019,-8.04703 1.49019,-8.04703 z"
         id="path4521"
         inkscape:connector-curvature="0"
         sodipodi:nodetypes="cssssscsssssssscc" />
      <path
         style="fill:#ac9393;stroke:#ffffff;stroke-width:3.57645655;stroke-linecap:butt;stroke-linejoin:miter;stroke-miterlimit:4;stroke-opacity:0;stroke-dasharray:none"
         d="m 171.36419,457.24548 c 2.03299,-8.64975 9.12342,-15.3955 17.55618,-18.20642 2.2271,-0.74236 4.8601,-1.60895 6.5023,-3.25114 0.84261,-0.84263 3.79264,-0.59587 5.20184,-1.30047 4.07653,-2.03826 15.97906,0.37357 17.55618,1.9507 0.43349,0.43349 2.16744,-0.43348 2.60093,0 3.82392,3.82393 10.00592,6.10455 13.6548,9.75343 1.76044,1.76044 2.35999,7.56181 3.90138,9.10322 1.39233,1.39233 0.34965,3.3002 1.30046,5.20184 6.36384,12.72766 -6.32813,31.68709 -13.65482,39.01375 -6.09814,6.09816 -21.29619,6.66368 -27.95985,4.5516 -2.87078,-0.9099 -8.05505,-0.50273 -14.95529,-7.15252 -9.62454,-9.27521 -13.67662,-24.68145 -11.70411,-39.66399 z"
         id="path4523"
         inkscape:connector-curvature="0"
         sodipodi:nodetypes="csssssssssssc" />
      <path
         style="fill:#9f8383;fill-opacity:1;stroke:#ffffff;stroke-opacity:0"
         d="m 226.61302,444.19143 c -1.6069,-0.0635 -11.01923,1.77188 -13.11367,5.96076 -0.29261,0.5852 0.10181,1.59194 0.29803,1.78823 0.004,0.004 -0.0315,1.16064 0.29804,1.49019 0.78532,0.78532 1.69721,1.39917 2.38431,2.08626 0.79213,0.79215 5.51017,0.44353 6.85487,1.78823 1.16471,1.16471 1.80016,3.29035 2.98038,4.47057 0.1987,0.1987 -0.19869,0.99347 0,1.19215 0.84648,0.84648 -0.0683,3.04864 -0.59607,3.57646 -1.87365,1.87365 -4.23468,3.34057 -5.96077,5.06665 -1.62406,1.62407 1.82365,5.92534 0.29804,7.45095 -2.35633,2.35634 -11.05803,2.41493 -13.11367,4.47057 -3.38447,3.38448 0.0867,5.32133 -3.57646,7.15291 -0.72582,0.36292 -2.69268,-0.005 -3.27842,-0.29803 -1.08276,-0.54138 -2.75865,-0.0382 -3.87449,-0.59608 -5.40039,-2.7002 -6.7237,-5.49586 -11.62349,-0.59608 -1.79906,1.79907 -0.40604,6.15079 1.19216,7.74899 0.91918,0.91919 2.67938,1.48724 3.57645,2.38431 0.47502,0.47501 2.83036,0.15002 2.08627,0.89411 2.28763,3.28432 6.76798,0.55262 9.83526,2.08627 0.55634,0.27817 1.52992,-0.27817 2.08626,0 6.61998,3.30998 19.08225,-2.09408 22.65089,-5.66273 1.78655,-1.78654 2.94364,-4.43382 4.76861,-6.25879 1.41512,-1.41511 2.24901,-7.31565 3.27842,-8.34507 2.09104,-2.09104 2.12225,-5.6987 4.17253,-7.74899 0.86144,-0.86144 -1.26219,-9.16914 -0.89411,-9.53722 0.0874,-0.0874 0.39008,-1.69618 0,-2.08626 -0.62185,-0.62185 -0.73393,-2.52216 -1.49019,-3.27842 -0.59608,-0.59608 0.59608,-2.98038 0,-3.57646 -2.46935,-2.46935 -3.16408,-8.23072 -5.06665,-10.13329 -0.70588,-0.70588 -2.05232,-0.0392 -2.98038,-0.59608 -0.42594,-0.25556 -0.74786,-1.11626 -1.19215,-0.89411 -0.86346,0.43172 1.94662,2.01644 0.29804,1.19215"
         id="path4525"
         inkscape:connector-curvature="0" />
      <path
         style="fill:#8a6b6b;fill-opacity:1;stroke:#ffffff;stroke-opacity:0"
         d="m 186.69225,494.80309 c 0.55866,-0.43418 4.28521,-1.65079 7.16533,-0.21073 0.53083,0.2654 1.79392,2.21541 2.31818,2.73967 0.0291,0.0291 2.32164,0.63396 2.73969,0.84298 0.76925,0.38463 2.33707,-0.74705 2.95042,-1.05372 1.14522,-0.57261 3.05159,0.3709 4.2149,-0.21075 1.13214,-0.56607 2.23706,-1.11853 3.37191,-1.68595 0.75437,-0.37718 2.16302,-1.53078 2.73969,-2.10745 0.71716,-0.71716 -0.0895,-4.59163 2.52893,-5.90086 2.40894,-1.20446 4.27638,0.81224 5.90086,0 4.00938,-2.00468 6.01613,-3.27645 9.06202,-6.32234 0.54001,-0.54001 0.88034,-2.1448 1.47521,-2.73967 0.96519,-0.9652 2.03759,-2.45909 3.37192,-3.79342 0.5984,-0.5984 0.1695,-2.69843 0.84298,-3.3719 0.78283,-0.78284 -2.03999,-8.49726 0.21074,-10.74798 0.47667,-0.47668 2.80929,2.17706 3.16117,2.52893 0.24725,0.24724 0.3673,0.99953 0.63223,1.26447 0.0829,0.0829 0,6.84502 0,7.58681 0,0.30185 0.19212,1.70459 0,1.8967 -1.28466,1.28467 -1.94588,7.2145 -3.37191,8.64053 -0.53551,0.53552 -0.34629,2.03225 -0.84298,2.52894 -1.82274,1.82275 -2.90164,3.53387 -4.63639,5.26862 -0.85163,0.85164 -1.04532,3.36353 -1.8967,4.21489 -1.44485,1.44485 -2.71476,3.55775 -4.21489,5.05787 -1.99464,1.99465 -11.61784,4.00417 -15.38437,4.00417 -0.78729,0 -10.8203,-0.70457 -10.95872,-0.84299 -0.50335,-0.50336 -4.11056,-0.10646 -4.63639,-0.63224 -1.11214,-1.11214 -3.00226,-2.15928 -4.00414,-3.16117 -0.35125,-0.35123 -1.12397,-0.28099 -1.47522,-0.63224 -0.10538,-0.10538 -0.52686,0.10539 -0.63223,0 -1.0964,-1.0964 -3.16456,-1.13531 -0.63224,-3.16117 z"
         id="path4527"
         inkscape:connector-curvature="0"
         sodipodi:nodetypes="cssccsssssssscsccsssssssssccscc" />
      <path
         style="fill:#bfa3a3;fill-opacity:1;stroke:#ffffff;stroke-opacity:0"
         d="m 174.45636,476.67758 c -0.89749,-2.91165 -2.83568,-20.41128 1.19215,-24.43913 0.47826,-0.47824 1.10862,-2.00273 1.78823,-2.68234 2.50024,-2.50024 10.63585,-6.95712 14.00779,-8.6431 1.24834,-0.62416 8.37835,-3.01367 8.94114,-3.57646 0.52348,-0.52347 8.00204,0.34303 8.6431,-0.29804 0.17903,-0.17902 0.92998,-0.57814 1.4902,-0.29803 1.73512,0.86756 4.21727,0.0447 5.36468,1.19215 0.0664,0.0663 6.71845,1.32858 5.96076,2.08626 -0.78204,0.78204 -6.425,-0.13184 -7.15291,0.59608 -0.40082,0.40081 -1.9387,0.15049 -2.38431,0.59608 -2.31466,2.31466 -9.3289,2.176 -12.21956,5.06664 -2.29695,2.29696 3.84392,7.15292 5.36469,7.15292 0.44473,0 2.30294,1.57155 1.49019,2.3843 -0.58693,0.58693 -0.9764,1.57247 -1.49019,2.08627 -0.88185,0.88184 -2.53114,0.44487 -3.27842,1.19215 -0.99346,0.99347 -4.96731,-0.99346 -5.96076,0 -0.48579,0.48579 -1.27041,0.48618 -2.08627,0.89411 -1.90911,0.95456 -3.06414,2.76611 -4.17253,3.8745 -0.913,0.913 5.30764,2.32726 5.96076,2.98038 1.11287,1.11287 5.45422,6.76534 3.57646,8.6431 -0.1405,0.1405 -0.45558,-0.14049 -0.59608,0 -0.15617,0.15617 -0.6747,0.89412 -0.89411,0.89412 -0.27366,0 -4.56654,-8.64311 -5.96076,-8.64311 -2.94264,0 -3.07522,0.98895 -4.76861,2.68235 -0.7804,0.78039 -1.95057,1.95057 -2.68235,2.68234 -0.66941,0.66942 -0.58546,2.3737 -1.19215,2.98038 -0.0954,0.0954 0.89104,9.24227 -1.19215,11.32544 -3.19308,3.1931 -6.85487,-2.62275 -6.85487,-6.25879 0,-0.66722 -0.61372,-1.80588 -0.89412,-2.08627 -0.14834,-0.14834 0.15816,-1.59347 0,-2.3843 z"
         id="path4529"
         inkscape:connector-curvature="0" />
      <g
         transform="translate(-135.39658,-28.593066)"
         id="g4078">
        <path
           style="fill:none;stroke:#695050;stroke-width:1.19215214px;stroke-linecap:butt;stroke-linejoin:miter;stroke-opacity:1"
           d="m 316.40978,506.76083 c -1.06146,-1.23565 -1.36401,-3.02331 -1.08292,-4.60035 0.29962,-1.79093 1.75696,-3.03187 3.1758,-4.00053 1.07491,-0.70059 2.18593,-1.6222 3.54312,-1.56093 2.12445,-0.23521 4.26151,-1.27443 6.40724,-0.58146 2.51622,0.92726 4.4809,3.07393 5.50756,5.51881 0.90786,2.10903 0.80856,4.75366 -0.73255,6.54358 -0.79592,0.65876 -0.97544,1.68823 -1.35017,2.59598 -0.59515,1.22744 -1.84986,1.98486 -3.01235,2.60598 -2.44089,1.22913 -5.50926,0.7919 -7.61735,-0.90665 -1.88928,-1.60096 -3.59982,-3.45758 -4.83838,-5.61443 z"
           id="path4532"
           inkscape:connector-curvature="0" />
        <path
           inkscape:connector-curvature="0"
           id="path4534"
           d="m 335.78225,469.20803 c -1.49481,0.29736 -2.04926,1.90368 -2.38787,3.1993 -0.32091,1.01075 -0.68471,2.05072 -0.46866,3.12757 0.43076,2.6605 2.56473,4.66988 4.8005,5.96584 3.33126,1.90197 7.53482,2.3032 11.11394,0.86631 3.00922,-2.26888 5.14273,-6.10864 4.50107,-9.94637 -0.45267,-2.59479 -2.92731,-4.54635 -5.50346,-4.72354 -2.58646,-0.80755 -5.56997,-1.28102 -8.07023,0.0513 -1.27224,0.61549 -2.66694,0.95172 -3.98529,1.45957 z"
           style="fill:none;stroke:#695050;stroke-width:1.19215214px;stroke-linecap:butt;stroke-linejoin:miter;stroke-opacity:1" />
        <path
           inkscape:connector-curvature="0"
           id="path4536"
           d="m 333.99402,466.52569 c -3.39706,1.86184 -3.17971,6.4359 -5.11232,9.4102 -0.45643,4.09136 3.33482,6.89151 6.01921,9.35638 3.77121,2.85182 8.83803,2.47095 13.31595,2.76042 4.76581,-0.28974 7.41318,-5.6984 7.84324,-9.97034 0.32587,-3.83827 0.63667,-8.70747 -2.54113,-11.47086 -3.36948,-2.77173 -7.97973,-1.75081 -11.98425,-2.0449 -2.78868,-0.2128 -5.02948,1.25023 -7.5407,1.9591 z"
           style="fill:none;stroke:#695050;stroke-width:1.19215214px;stroke-linecap:butt;stroke-linejoin:miter;stroke-opacity:1" />
        <path
           inkscape:connector-curvature="0"
           id="path4538"
           d="m 328.62934,466.22765 c -0.1987,0.39739 -0.1987,1.39085 -0.59608,1.19215 -0.39738,-0.19868 0.91023,-1.50631 0.59608,-1.19215 -1.95319,1.9532 -2.43413,4.27217 -3.57646,6.55684 -0.45509,0.91019 0.40022,3.47427 -0.29804,4.17253 -0.51156,0.51156 -0.16135,1.92491 0.29804,2.3843 0.20649,0.20651 0.0916,1.2837 0.29804,1.49019 2.15274,2.15275 4.12491,4.42295 5.66272,5.96077 1.42771,1.42771 3.63096,1.84273 4.76861,2.98038 1.38701,1.38701 4.75767,1.1812 5.96076,2.3843 0.41956,0.41955 2.11678,0.0153 2.68234,0.29804 0.79883,0.39942 6.47145,0.68148 6.85488,0.29804 1.58275,-1.58274 3.75164,-2.55949 5.36468,-4.17254 4.71503,-4.71501 5.93732,-15.81946 0.59608,-21.1607 -3.34923,-3.34923 -20.18445,-5.14878 -23.84304,-1.49019 -0.71568,0.71568 -4.53726,0.1129 -4.76861,0.29804 -0.38788,0.31031 0,0.99347 0,1.49019"
           style="fill:none;stroke:#695050;stroke-width:1.19215214px;stroke-linecap:butt;stroke-linejoin:miter;stroke-opacity:1" />
        <path
           inkscape:connector-curvature="0"
           id="path4545"
           d="m 316.70782,514.21178 c -0.79628,0.54687 -8.02424,-8.09261 -5.96076,-12.21956 0.73835,-1.47673 1.1551,-3.83745 2.08626,-4.76861 2.98252,-2.9825 7.7226,-5.36469 13.11368,-5.36469 0.87668,0 1.94379,-0.14247 2.3843,0.29804 0.59608,0.59608 2.3843,0 2.98038,0.59608 1.44327,1.44326 3.43972,3.14168 4.76861,4.47057 0.83416,0.83416 1.32335,2.81354 2.08627,3.57645 1.03173,1.03174 0.59607,4.58501 0.59607,5.96077 0,0.224 0.63416,0.55799 0.29804,0.89411 -0.69542,0.69543 -0.49673,2.28496 -1.19215,2.98038 -1.34786,1.34786 -2.87804,3.17607 -4.17253,4.47057 -3.21756,3.21756 -15.66008,5.74635 -16.98817,-0.89411 z"
           style="fill:none;stroke:#695050;stroke-width:1.19215214px;stroke-linecap:butt;stroke-linejoin:miter;stroke-opacity:1" />
        <path
           inkscape:connector-curvature="0"
           id="path4547"
           d="m 315.51566,518.68235 c -1.44887,-1.06544 -2.61483,-1.72072 -3.57645,-2.68235 -0.58269,-0.58268 -5.25041,-13.04418 -4.47057,-14.60386 0.41528,-0.83058 0.31674,-3.29711 0.89411,-3.87449 0.41443,-0.41443 0.36348,-1.25758 0.89411,-1.78823 0.7778,-0.7778 0.82812,-2.02027 1.4902,-2.68235 1.36096,-1.36094 2.94626,-2.36724 4.7686,-3.27841 1.91499,-0.95749 5.35143,0.31129 6.85488,-1.19216 0.34771,-0.3477 1.73855,0.34772 2.08627,0 0.29466,-0.29465 6.81657,-1.23045 7.45095,-0.59607 0.79477,0.79477 2.18561,0.99347 2.98038,1.78823 1.6439,1.6439 3.56525,4.16132 5.36468,5.96076 2.08713,2.08712 2.9771,13.7163 1.19215,17.2862 -0.35986,0.71974 0.28314,2.39921 -0.29803,2.98038 -0.96455,0.96455 -1.30139,2.49356 -2.38431,3.57646 -4.02758,4.02758 -11.58476,6.87424 -18.18032,3.57646 -2.89903,-1.44952 -4.23227,-1.13309 -5.06665,-4.47057 z"
           style="fill:none;stroke:#695050;stroke-width:1.19215214px;stroke-linecap:butt;stroke-linejoin:miter;stroke-opacity:1" />
        <path
           inkscape:connector-curvature="0"
           id="path4606"
           d="m 346.80966,532.98817 c 0.28777,-2.02402 9.15359,-7.49373 14.60386,-4.76861"
           style="fill:none;stroke:#695050;stroke-width:1.19215214px;stroke-linecap:butt;stroke-linejoin:miter;stroke-opacity:1" />
        <path
           inkscape:connector-curvature="0"
           id="path4608"
           d="m 340.55086,532.98817 c 2.97804,-4.18652 13.40102,-11.92686 22.35285,-7.45095"
           style="fill:none;stroke:#695050;stroke-width:1.19215214px;stroke-linecap:butt;stroke-linejoin:miter;stroke-opacity:1" />
        <path
           inkscape:connector-curvature="0"
           id="path4610"
           d="m 336.37833,532.09406 c 2.81604,-3.21937 -2.87401,2.874 1.78823,-1.78823 0.47533,-0.47533 0.41878,-1.31288 0.89411,-1.78823 2.65147,-2.65145 5.48333,-3.99312 8.04703,-6.55683 0.65659,-0.65659 2.15158,-0.0653 2.68234,-0.59608 2.95157,-2.95157 13.57005,-0.96396 16.69013,0.59608"
           style="fill:none;stroke:#695050;stroke-width:1.19215214px;stroke-linecap:butt;stroke-linejoin:miter;stroke-opacity:1" />
        <path
           inkscape:connector-curvature="0"
           id="path4612"
           d="m 322.66858,528.21956 c 0.39738,0 1.19215,-0.39738 1.19215,0 0,0.3974 -1.58953,0 -1.19215,0 1.13392,0 2.07031,0.157 2.98038,-0.29803 1.02522,-0.51262 3.66266,0.50987 4.47057,-0.29804 0.53359,-0.53358 3.41982,-2.08627 4.17253,-2.08627 0.28733,0 2.70263,-1.4699 2.98038,-1.19215 0.0739,0.0739 -1.08068,1.37872 -1.19215,1.49019 -0.81842,0.81844 -2.08627,4.16046 -2.08627,5.96076"
           style="fill:none;stroke:#695050;stroke-width:1.19215214px;stroke-linecap:butt;stroke-linejoin:miter;stroke-opacity:1" />
        <path
           inkscape:connector-curvature="0"
           id="path4614"
           d="m 364.09587,471.59234 c 0.23735,0.47471 0.75985,1.05789 1.19215,1.49019 0.42901,0.429 0.29804,2.29577 0.29804,2.98038 0,5.74579 -1.72763,12.457 -5.36469,16.09405 -2.09208,2.09208 -5.14402,3.16809 -7.74899,4.47057 -1.00914,0.50452 -5.05298,1.19898 -6.2588,0.59608 -0.55027,-0.27515 -1.26991,-0.0389 -1.78823,-0.29804 -0.24848,-0.12423 -1.13671,-0.65151 -1.19215,-0.59608 -0.0899,0.0899 1.78823,2.13965 1.78823,3.57646 0,0.85845 0.79412,5.56273 1.19215,5.96076 1.62157,1.62157 -2.30941,12.74075 -2.68234,13.11368 -0.52756,0.52756 -1.42485,0.76344 -2.08627,2.08626 -0.22214,0.44429 1.49019,-0.49672 1.19216,-0.89411 -0.29804,-0.39738 -0.79478,0.59607 -1.19216,0.89411 2.02906,-2.05061 4.7449,-2.95665 6.55684,-4.76861 0.14902,-0.14902 0.7451,0.14902 0.89412,0 2.41887,-2.41887 10.69268,-2.55167 14.00778,-0.89411 2.48949,1.24475 4.42346,1.39597 5.66273,3.87449"
           style="fill:none;stroke:#695050;stroke-width:1.19215214px;stroke-linecap:butt;stroke-linejoin:miter;stroke-opacity:1" />
        <path
           inkscape:connector-curvature="0"
           id="path4616"
           d="m 305.97845,492.15696 c 1.26369,-2.29949 6.02633,-6.2588 12.81563,-6.2588 0.0428,0 6.2588,-0.67292 6.2588,-0.29804 0,0.0238 -2.07214,-1.17802 -3.57646,-2.68234 -2.29464,-2.29463 -1.47773,-14.88944 0.59608,-12.81563"
           style="fill:none;stroke:#695050;stroke-width:1.19215214px;stroke-linecap:butt;stroke-linejoin:miter;stroke-opacity:1" />
        <path
           inkscape:connector-curvature="0"
           id="path4618"
           d="m 370.35467,513.91374 c -1.0859,-2.11657 -8.15646,-2.49373 -9.23918,-3.57646 -0.52555,-0.52555 -2.58694,0.34575 -3.27842,0 -0.42051,-0.21025 -2.76583,-0.81063 -2.98038,-0.59607 -0.70383,0.70382 -2.03349,0.5433 -2.98038,1.49019 -0.1987,0.19869 -0.31509,0.59607 -0.59608,0.59607 -0.0999,0 0.89411,-2.02759 0.89411,-3.87449 0,-0.77348 0.19069,-3.98185 -0.29803,-4.47057 -0.11147,-0.11147 -0.94718,-1.73517 -0.89412,-1.78823 0.34772,-0.3477 1.73855,0.34771 2.08627,0 0.42281,-0.42281 3.73484,-2.01644 4.47057,-2.38431 3.57567,-1.78783 5.93869,-2.9583 8.6431,-5.66272 1.48248,-1.48248 1.70527,-4.38761 3.27842,-5.96076 0.84452,-0.84452 1.39344,-7.85352 1.78823,-8.6431"
           style="fill:none;stroke:#695050;stroke-width:1.19215214px;stroke-linecap:butt;stroke-linejoin:miter;stroke-opacity:1" />
        <path
           inkscape:connector-curvature="0"
           id="path4620"
           d="m 373.03701,511.2314 c -1.82309,-2.67023 -6.43275,-2.55826 -8.34507,-4.47057 -0.84687,-0.84687 -3.8869,-0.0124 -4.76861,-0.89412 -0.68759,-0.6876 -2.68234,0.32046 -2.68234,0 0,-0.70247 -0.1987,-1.58953 0.29804,-2.08627 0.0391,-0.0391 7.00005,-1.33733 7.45095,-1.78822 1.81063,-1.81063 5.5122,-4.32005 7.45095,-6.2588 0.92582,-0.92582 2.21491,-4.59922 2.68234,-5.06665"
           style="fill:none;stroke:#695050;stroke-width:1.19215214px;stroke-linecap:butt;stroke-linejoin:miter;stroke-opacity:1" />
        <path
           inkscape:connector-curvature="0"
           id="path4622"
           d="m 376.01739,499.01184 c -2.16009,2.26371 -3.77774,3.23004 -6.2588,4.47057 -0.29946,0.14973 -2.38431,0.11754 -2.38431,0.59607 0,0.58769 2.22842,-0.45392 2.98039,0.29804 0.0267,0.0267 4.60222,2.3011 4.7686,2.38431"
           style="fill:none;stroke:#695050;stroke-width:1.19215214px;stroke-linecap:butt;stroke-linejoin:miter;stroke-opacity:1" />
        <path
           inkscape:connector-curvature="0"
           id="path4624"
           d="m 308.36275,484.40797 c 0.508,-2.35343 4.36675,-0.79028 5.36469,-1.78823 0.0386,-0.0386 3.27841,-0.59198 3.27841,-0.29803 0,0.30445 -1.48351,-2.67567 -1.49019,-2.68235 -0.99947,-0.99947 -0.59607,-3.96791 -0.59607,-4.17253"
           style="fill:none;stroke:#695050;stroke-width:1.19215214px;stroke-linecap:butt;stroke-linejoin:miter;stroke-opacity:1" />
      </g>
      <path
         style="fill:#c8b7b7;fill-opacity:1;stroke:#ffffff;stroke-width:3.57645655;stroke-linecap:butt;stroke-linejoin:miter;stroke-miterlimit:4;stroke-opacity:0;stroke-dasharray:none"
         d="m 232.7228,375.2109 c -4.99518,-0.67148 -8.68632,3.39401 -13.59799,2.49607 -6.56961,5.12823 -15.87315,6.2272 -20.08031,14.41759 -7.02004,11.01642 -12.4281,27.01137 -3.91175,38.67044 4.30319,4.26358 4.96967,11.06027 8.34507,15.53523 2.06941,3.44562 9.89168,4.01331 9.16467,-1.30391 -5.11865,-11.87594 -16.31154,-24.22041 -11.3627,-37.9626 4.30526,-8.45666 12.07263,-15.0079 20.0058,-20.00581 11.31875,-6.19474 29.23064,-2.53474 32.74693,11.25094 0.69809,3.10015 2.66481,8.87728 6.78037,6.59409 2.04758,-4.58091 0.90664,-10.15322 0.1117,-14.56661 -3.95358,-4.7734 -7.06302,-10.82364 -13.89602,-11.92152 -2.43843,-2.2232 -4.81552,-1.86743 -7.78625,-1.86274 -1.97471,-1.38562 -4.01976,-1.51228 -6.51958,-1.34117 z"
         id="path4540"
         inkscape:connector-curvature="0" />
      <path
         style="fill:#ac9393;fill-opacity:1;stroke:#ffffff;stroke-width:3.57645655;stroke-linecap:butt;stroke-linejoin:miter;stroke-miterlimit:4;stroke-opacity:0;stroke-dasharray:none"
         d="m 261.82387,389.48465 c -5.12757,0.21548 -6.28759,3.2638 -8.34507,5.96076 -10.84891,14.22082 8.84583,29.25539 18.47836,24.43912 0.62534,-0.31267 2.52727,-0.14296 2.98038,-0.59608 2.15758,-2.15758 11.11196,-10.63837 7.95974,-16.90088 -0.86019,-1.70893 0.69119,-2.09301 -0.55992,-3.92562 -0.39607,-0.58018 -0.94229,-2.51981 -1.43906,-3.01654 -0.75932,-0.75932 -10.26088,-8.74124 -13.70975,-6.55684 -2.46817,0.14999 -5.36468,0.59608 -5.36468,0.59608 z"
         id="path4542"
         inkscape:connector-curvature="0"
         sodipodi:nodetypes="csssssccc" />
      <path
         style="fill:#ded5d5;fill-opacity:1;stroke:#ffffff;stroke-width:3.57645655;stroke-linecap:butt;stroke-linejoin:miter;stroke-miterlimit:4;stroke-opacity:0;stroke-dasharray:none"
         d="m 269.00871,393.63942 c -3.45444,-1.61716 -7.43891,1.53805 -9.27277,3.37192 -0.49174,0.49174 -0.35124,1.61571 -0.84298,2.10744 -0.28099,0.281 0.28099,1.40497 0,1.68596 -0.66727,0.66727 -0.66727,3.54762 0,4.21489 0.1866,0.18661 0.93596,5.57235 2.52894,7.16532 1.8573,1.85731 9.74799,7.53308 13.48766,3.79341 0.8439,-0.8439 3.17017,-0.64124 4.21489,-1.68595 2.92625,-2.92625 4.2149,-6.88403 4.2149,-11.80172 0,-0.33002 0.21031,-1.89713 0,-2.10743 -3.1411,-3.14112 -7.71791,-10.71148 -14.33064,-6.74384 z"
         id="path4551"
         inkscape:connector-curvature="0" />
      <path
         inkscape:connector-curvature="0"
         id="path4148"
         d="m 258.85342,402.84444 c -0.1498,0.0177 -0.23425,0.2655 -0.25,0.28125 -0.0391,0.0391 -0.12495,0.0469 -0.21875,0.0312 0.0287,0.79811 0.19807,1.57307 0.5,1.875 0.1866,0.18661 0.93827,5.56328 2.53125,7.15625 1.8573,1.85731 9.76033,7.52092 13.5,3.78125 0.8439,-0.8439 3.17403,-0.64279 4.21875,-1.6875 1.1697,-1.1697 2.05008,-2.50523 2.71875,-4 -0.6694,0.0846 -1.46556,1.1218 -1.8125,1.46875 -0.30225,0.30224 -6.61399,3.07351 -7.15625,2.53125 -0.54643,-0.54642 -2.13212,-0.0348 -2.9375,-0.4375 -1.14149,-0.57074 -2.21849,-0.56237 -3.15625,-1.03125 -0.93983,-0.46991 -1.52531,-0.9814 -2.5,-1.46875 -1.88217,-0.94109 -2.73841,-4.01966 -4,-5.28125 -0.56836,-0.56836 -0.56228,-2.43729 -1.28125,-3.15625 -0.0648,-0.0648 -0.10632,-0.0684 -0.15625,-0.0625 z"
         style="fill:#c6b6b6;fill-opacity:1;stroke:#ffffff;stroke-width:1px;stroke-linecap:butt;stroke-linejoin:miter;stroke-opacity:0" />
      <path
         style="fill:#c8b7b7;fill-opacity:1;stroke:#ffffff;stroke-width:3.06131959;stroke-linecap:butt;stroke-linejoin:round;stroke-miterlimit:4;stroke-opacity:0;stroke-dasharray:none"
         d="m 234.82442,566.64934 c 0.47579,2.29807 5.16555,7.83259 8.1017,11.19801 0.56401,0.64647 2.46392,1.41167 3.02792,2.05814 0.16877,0.19341 2.57626,0.53142 2.92922,0.12685 0.69373,-0.79516 -0.48247,-10.6653 -0.95314,-11.74427 -0.86776,-1.98924 -1.62645,-4.0492 -2.85942,-5.46245 -1.17673,1.75091 -1.87378,4.26993 -3.7019,4.73681 -1.8689,0.404 -4.57139,-0.4608 -6.54438,-0.91309 z"
         id="path4555"
         inkscape:connector-curvature="0"
         sodipodi:nodetypes="cssssccc" />
      <path
         style="fill:#c8b7b7;fill-opacity:1;stroke:#ffffff;stroke-width:3.57645655;stroke-linecap:butt;stroke-linejoin:round;stroke-miterlimit:4;stroke-opacity:0;stroke-dasharray:none"
         d="m 214.99377,549.73077 c -0.56198,-0.1405 -1.82645,0.14049 -1.68596,-0.42149 -6.90029,1.15919 -9.16639,0.98609 -12.86601,5.05349 2.86312,5.44841 12.60655,5.32172 13.2875,4.64077 0.5711,-0.5711 7.33667,-2.52894 7.16532,-2.52894 -4.36401,0 -5.90085,-2.49853 -5.90085,-6.74383 z"
         id="path4559"
         inkscape:connector-curvature="0"
         sodipodi:nodetypes="cccssc" />
      <path
         style="fill:#c8b7b7;fill-opacity:1;stroke:#ffffff;stroke-width:3.57645655;stroke-linecap:butt;stroke-linejoin:miter;stroke-miterlimit:4;stroke-opacity:0;stroke-dasharray:none"
         d="m 214.96821,549.97767 c -1.61065,1.3138 -1.60023,4.35049 -1.56251,5.95199 0.0429,1.82002 0.71953,9.33496 0.71953,10.43935 0,0.7932 1.15355,4.35897 2.28203,4.09145 1.68191,-0.39873 4.13894,-1.90851 5.18133,-5.10463 0.55908,-1.71424 1.74054,-4.06933 2.06069,-5.87967 0.11433,-1.90255 0.16439,-4.36973 -0.49819,-5.0323 -0.57632,-0.57633 -4.94652,3.55023 -8.18288,-4.46619 z"
         id="path4561"
         inkscape:connector-curvature="0"
         sodipodi:nodetypes="csssscsc" />
      <g
         transform="translate(33.638901,5.9378212)"
         id="g4673">
        <path
           id="path4549"
           transform="translate(0,-0.89198606)"
           d="m 154.8125,468.0625 c -1.41188,0.0279 -2.82287,0.49066 -3.875,0.90625 -0.44703,0.31844 -0.90098,0.67811 -1.375,1.0625 -5.97557,8.57605 -7.2977,17.12789 -10.8125,22.6875 -2.89793,4.5839 -2.87117,12.43366 -4.09375,13.65625 -0.40041,0.4004 -1.1875,11.47753 -1.1875,13.125 0,5.02254 -0.0237,20.12548 1.125,23.8125 0.57223,1.83671 0.87372,6.43494 1.25,7.1875 0.87396,1.74793 2.53904,11.43526 3,12.5 1.47522,3.40756 6.04903,9.84682 10.125,7.75 2.60413,-1.33965 3.38972,-7.00756 1.53125,-9.96875 -6.03804,-9.62071 -5.10007,-29.30501 -6.90625,-33.53125 -2.20201,-5.15245 5.92909,-32.73319 7.75,-36.375 2.03616,-4.07234 3.44559,-10.94058 7.15625,-14.3125 0.56143,-1.64865 0.90087,-3.08235 1.0625,-4.34375 -0.42921,-1.20022 -0.85986,-2.39111 -1.375,-2.90625 -0.9547,-0.9547 -2.16133,-1.27399 -3.375,-1.25 z"
           style="fill:#c8b7b7;stroke:#ffffff;stroke-width:3.57645655;stroke-linecap:butt;stroke-linejoin:miter;stroke-miterlimit:4;stroke-opacity:0;stroke-dasharray:none"
           inkscape:connector-curvature="0" />
        <path
           sodipodi:nodetypes="csscsssssscc"
           inkscape:connector-curvature="0"
           id="path4557"
           d="m 138.37105,565.18546 c -1.19826,0.38714 -2.02267,1.98231 -3.22094,2.36945 -1.33239,0.43046 -2.04435,1.84083 -3.09138,2.77052 -1.56835,1.3926 -1.26014,2.22327 -2.4373,4.10949 -0.26405,1.72738 1.23811,1.88414 2.31392,2.02081 1.90243,0.24162 3.42395,-0.56811 5.13686,-0.55227 3.01064,0.0279 6.40049,-1.95713 8.95635,-2.78287 0.62945,-0.20336 3.30867,-2.54088 3.6282,-3.16543 0.0639,-0.12508 -0.26738,0.0864 -0.40107,0.12958 -0.0641,0.0208 -0.36352,-0.52076 -0.66025,-0.67258 -0.60515,-0.30961 -2.48916,0.10272 -4.05397,-1.23716 -3.38028,-0.4939 -4.70399,-6.69562 -6.17042,-2.98954 z"
           style="fill:#c8b7b7;fill-opacity:1;stroke:#ffffff;stroke-width:3.57645655;stroke-linecap:butt;stroke-linejoin:round;stroke-miterlimit:4;stroke-opacity:0;stroke-dasharray:none" />
        <path
           sodipodi:nodetypes="cscsc"
           inkscape:connector-curvature="0"
           id="path4563"
           d="m 147.36325,567.94355 c -3.15228,1.5859 10.25981,9.55019 14.33064,5.47936 0.42149,-0.42148 1.68596,0 2.10745,-0.42148 0.59241,-0.59242 -9.07724,-9.27715 -10.95872,-9.27715 -2.62893,0 -1.40177,5.03479 -5.47937,4.21927 z"
           style="fill:#c8b7b7;fill-opacity:1;stroke:#ffffff;stroke-width:3.57645655;stroke-linecap:round;stroke-linejoin:round;stroke-miterlimit:4;stroke-opacity:0;stroke-dasharray:none" />
        <path
           inkscape:connector-curvature="0"
           id="path4565"
           d="m 140.81746,561.34119 c -0.81815,0.055 -2.09066,-12.82003 -3.27842,-14.00779 -0.48045,-0.48045 -0.59636,-11.92181 -1.78823,-13.11367 -0.10407,-0.10408 0,-8.60477 0,-9.53722 0,-11.25504 1.0565,-30.8603 6.85488,-36.65868 0.88695,-0.88695 0.92329,-2.11543 1.78823,-2.98038 1.75479,-1.75479 3.77942,-7.85687 5.06664,-10.43133 0.25917,-0.51833 0.20519,-1.39734 0.59608,-1.78823 0.19864,-0.19864 1.98048,-2.78814 2.3843,-2.38431 0.46071,0.46071 -0.31941,3.00176 -0.59607,3.27842 -0.67209,0.67209 -0.80666,2.89293 -1.19215,3.27842 -0.66208,0.66207 -0.41436,2.20258 -1.19216,2.98038 -1.49058,1.4906 -2.41421,4.20244 -3.87449,5.66272 -1.2785,1.2785 -2.33994,7.66028 -3.27842,9.53722 -4.66879,9.33758 -5.06665,17.80432 -5.06665,31.59203 0,3.6239 0.62213,18.20637 2.08627,19.67052 0.70543,0.70543 -0.40739,3.76513 0.29804,4.47057 0.48721,0.48722 2.08627,5.52319 2.08627,6.55683 0,0.4323 1.94397,4.01681 0.89411,5.06665 -0.50657,0.50657 -1.17392,-0.82356 -1.78823,-1.19215 z"
           style="fill:#d9cdcd;fill-opacity:1;stroke:#ffffff;stroke-opacity:0" />
        <path
           inkscape:connector-curvature="0"
           id="path4567"
           d="m 146.18215,565.81176 c 0.54618,0.18036 1.90218,0.18408 3.27841,-1.19215 1.09835,-1.09835 -1.53989,-3.9242 -1.78822,-4.17254 -0.14902,-0.14902 0.14902,-0.74509 0,-0.89411 -1.55228,-1.55228 -1.1546,-4.39545 -2.08627,-6.2588 -0.46365,-0.92729 -0.37505,-7.22993 -0.89411,-7.74899 -1.48276,-1.48275 -2.08627,-11.4966 -2.08627,-15.19994 0,-1.7018 -0.59833,-4.17478 -1.49019,-5.06665 -0.35943,-0.35943 0.7729,-3.75327 0.89411,-3.87449 0.37347,-0.37347 0.12179,-6.38058 0.59608,-6.85488 1.22882,-1.22882 0.0557,-4.28395 0.89411,-5.96076 1.53374,-3.06746 1.76605,-6.8105 3.27842,-9.83525 0.21976,-0.43953 -0.33412,-1.75214 0,-2.08627 1.37119,-1.37119 2.22973,-7.89245 3.8745,-9.53722 1.04971,-1.04971 1.99905,-7.66177 2.68234,-8.34506 1.38331,-1.38332 2.34499,-3.83518 3.57646,-5.06665 0.77261,-0.77261 0.15519,-2.82518 -0.29804,-3.27842 -0.80264,-0.80264 -2.23055,1.48073 -2.38431,1.78823 -0.56979,1.13957 -1.75468,5.33114 -2.3843,5.96076 -0.57847,0.57847 -0.30566,5.07427 -1.19215,5.96076 -1.89611,1.89611 -2.15714,6.32968 -4.17254,8.34507 -0.2778,0.27781 -0.36694,2.15518 -0.89411,2.68234 -0.48301,0.48301 -0.5342,4.70674 -0.89411,5.06665 -0.99922,0.99921 -0.27058,4.14506 -1.19216,5.06664 -0.68514,0.68515 -1.05908,3.44339 -1.49019,3.8745 -0.75657,0.75659 -0.18769,3.46611 -0.89411,4.17253 -2.14831,2.14831 -0.89412,20.91182 -0.89412,24.73716 0,2.97328 2.09458,16.4004 3.57646,17.88228 0.61199,0.61199 2.08627,5.95281 2.08627,7.15292 0,0.89962 1.18018,2.50591 0.29804,2.68234 -0.49674,0.0993 -0.1987,-0.99346 -0.29804,-1.49019"
           style="fill:#ae9595;fill-opacity:1;stroke:#ffffff;stroke-opacity:0" />
        <path
           sodipodi:nodetypes="cc"
           inkscape:connector-curvature="0"
           id="path4569"
           d="m 136.64493,551.50593 c 0.63273,0.75672 6.16376,3.08039 9.83525,-0.59111"
           style="fill:none;stroke:#6c5353;stroke-width:1.19215214px;stroke-linecap:round;stroke-linejoin:miter;stroke-opacity:1" />
        <path
           sodipodi:nodetypes="cc"
           inkscape:connector-curvature="0"
           id="path4573"
           d="m 134.85882,505.31145 c 1.82917,3.65436 7.06518,3.27559 9.5351,2.68093"
           style="fill:none;stroke:#6c5353;stroke-width:1.19215214px;stroke-linecap:round;stroke-linejoin:miter;stroke-opacity:1" />
        <path
           sodipodi:nodetypes="ccc"
           inkscape:connector-curvature="0"
           id="path4575"
           d="m 143.79784,483.8513 c 0.39738,0.29803 0.89412,0.64575 1.19215,0.89411 1.42747,0.75623 5.4801,3.59108 6.55684,5.06665"
           style="fill:none;stroke:#6c5353;stroke-width:1.19215214px;stroke-linecap:round;stroke-linejoin:miter;stroke-opacity:1" />
      </g>
      <path
         style="fill:#ae9595;fill-opacity:1;stroke:#ffffff;stroke-opacity:0"
         d="m 209.87418,445.69957 c -0.22588,0.0364 -0.7548,-2.44074 -1.8967,-3.58265 -0.53551,-0.5355 -1.31998,-4.48115 -1.68597,-4.84713 -0.61099,-0.611 -0.71788,-1.98236 -1.26447,-2.52893 -2.14205,-2.14206 -3.2973,-5.33014 -4.63639,-8.00831 -0.50206,-1.00415 -2.24953,-9.20411 -2.31818,-9.27276 -1.09077,-1.09079 -0.69199,-8.15931 0.42148,-9.27278 0.23188,-0.23186 0.88281,-4.46547 1.26447,-4.84712 1.05304,-1.05304 2.49438,-3.33736 3.79342,-4.63639 0.44906,-0.44907 1.11428,-2.37876 2.10744,-3.37192 3.26499,-3.26498 9.30625,-6.98805 12.85543,-10.53723 0.66399,-0.66399 5.73204,-1.51716 6.11159,-1.8967 0.76292,-0.76291 4.64146,-0.84806 5.05788,-1.26447 0.61091,-0.61091 2.09854,0.2152 2.95042,-0.21075 1.9554,-0.97769 9.20224,0.35096 10.53724,1.68597 1.12002,1.12001 2.82228,2.25412 4.2149,2.95042 1.51352,0.75677 5.73841,3.20948 6.53309,4.00415 0.14049,0.1405 0.0702,0.49174 0.21073,0.63224 0.59883,0.59882 1.24647,-1.03573 1.26447,-1.05373 0.0702,-0.0702 0.28099,0.14049 0.21075,0.21074 -0.11111,0.11111 -0.0997,-0.31041 -0.21075,-0.42148 -0.29636,-0.29636 -0.822,-0.82201 -1.05372,-1.05373 -0.7149,-0.71489 -2.06581,-1.43357 -2.73968,-2.10744 -0.49971,-0.4997 -1.87718,-0.61271 -2.31819,-1.05373 -1.23849,-1.23849 -3.78502,-1.88831 -5.05787,-3.16117 -0.65582,-0.65581 -3.35404,-0.40361 -4.00416,-1.05372 -0.3952,-0.3952 -4.10384,0.16089 -4.84712,-0.21075 -3.64527,-1.82262 -15.58794,1.67879 -17.70257,3.7934 -0.36547,0.36549 -1.57402,0.0988 -1.8967,0.4215 -1.08029,1.08028 -2.93122,1.66675 -4.00414,2.73967 -0.2628,0.2628 -1.11944,0.27646 -1.47522,0.63224 -2.09706,2.09708 -4.59497,4.59497 -6.95457,6.95457 -1.69885,1.69885 -2.61765,4.51435 -4.2149,6.11161 -0.77019,0.77019 -2.18508,6.47759 -2.95043,8.00829 -0.19681,0.39364 0.0614,1.83533 -0.21074,2.10745 -0.59329,0.59329 -0.49005,4.98931 0.21074,5.69011 0.50684,0.50683 -0.33343,2.4943 0,3.16117 0.87245,1.74488 0.57094,4.36434 1.89671,5.69011 0.41619,0.41619 0.1532,1.78161 0.42148,2.31818 1.32215,2.64429 2.61134,4.29729 4.42565,6.11161 0.31084,0.31084 0.16316,1.21689 0.42149,1.47521 1.13034,1.13034 1.77737,3.25258 2.95042,4.42564 0.70265,0.70266 0.46217,2.99111 1.26447,3.79341 0.97266,0.97265 -0.12054,2.93845 2.3182,1.4752 z"
         id="path4577"
         inkscape:connector-curvature="0" />
      <path
         style="fill:#d9cdcd;fill-opacity:1;stroke:#ffffff;stroke-opacity:0"
         d="m 256.44876,387.95552 c -0.281,-0.14049 -0.98348,-0.14049 -0.84298,-0.42148 0.14049,-0.28101 1.06512,0.64363 0.84298,0.42148 -2.29254,-2.29254 -4.42703,-3.79479 -6.32235,-5.6901 -0.29573,-0.29574 -1.39022,-0.12576 -1.68595,-0.42149 -0.9867,-0.98671 -2.6357,-1.16049 -3.79341,-2.3182 -0.70172,-0.70172 -5.74298,0.0789 -6.32234,-0.21075 -1.07484,-0.53741 -2.62528,-0.93933 -3.37192,-1.68595 -0.59568,-0.59568 -2.95141,0.42148 -3.37191,0.42148 -0.40704,0 -2.01697,0.54178 -2.31819,0.84299 -0.37918,0.37918 -1.96528,-0.14217 -2.31819,0.21074 -0.15362,0.15363 -3.43375,1.29539 -4.2149,1.68596 -0.83686,0.41843 -3.82772,0.0172 -4.21489,0.21075 -1.60487,0.80242 -2.32602,1.69378 -3.37192,2.73968 -0.56924,0.56924 -1.60211,0.75913 -2.31819,1.47521 -0.99762,0.99761 -5.44643,1.44227 -7.16532,3.16117 -0.28099,0.281 -0.98348,0.14049 -1.26447,0.42149 -1.25282,1.25283 -2.03498,2.45648 -3.37192,3.79341 -0.6911,0.6911 -0.93638,2.20084 -1.68595,2.95042 -0.3642,0.36419 0.0193,1.85804 -0.21075,2.31819 -0.96282,1.92565 -1.9607,3.43591 -3.37191,4.84713 -0.35265,0.35264 -1.00472,4.1169 -1.47522,5.05788 -0.22479,0.44958 0.22479,1.23637 0,1.68595 -0.56662,1.13324 -0.45002,3.63974 -0.84298,4.42564 -1.00069,2.0014 -0.33263,7.88641 0.84298,9.06202 0.22034,0.22034 0.28065,2.59884 0.63224,2.95043 1.65343,1.65343 2.65409,4.12931 4.21489,5.69012 0.36365,0.36364 0.11976,1.38422 0.42149,1.68595 0.24587,0.24587 0.17562,0.80785 0.42149,1.05372 1.83682,1.83682 2.11999,4.87222 3.37192,7.37607 0.28818,0.57636 0.96757,2.31819 1.47522,2.31819 0.39738,0 1.24036,0.84298 0.84297,0.84298 -0.0155,0 0.0193,-0.59357 0,-0.63223 -0.2508,-0.5016 -0.84297,-1.75098 -0.84297,-2.10745 0,-1.35552 -2.87027,-7.92813 -3.37192,-8.4298 -0.49952,-0.49951 -0.94023,-1.57246 -1.47522,-2.10743 -0.73761,-0.73761 -1.58058,-1.36985 -2.31819,-2.10746 -0.49174,-0.49173 -0.56199,-1.40496 -1.05373,-1.8967 -0.74024,-0.74025 -1.61081,-5.82571 -2.31819,-6.53309 -0.54267,-0.54267 0.32716,-7.28173 0.63224,-7.58681 0.0338,-0.0339 1.15494,-7.99999 1.68595,-9.06202 0.61337,-1.22674 1.35785,-2.83306 2.3182,-3.79341 0.52308,-0.52308 0.35418,-1.82939 0.84297,-2.31818 0.51968,-0.51969 0.83039,-2.30561 1.26447,-2.73969 0.31612,-0.31611 0.31612,-0.94834 0.63223,-1.26447 0.5858,-0.5858 1.14893,-1.14892 1.89672,-1.8967 0.20259,-0.20261 0.15099,-0.78323 0.42148,-1.05372 1.7888,-1.7888 4.84825,-3.16229 6.74383,-5.05787 0.6318,-0.63181 2.5714,-1.0962 3.37192,-1.8967 0.72409,-0.72409 3.95278,-1.21311 4.84712,-2.10745 0.53505,-0.53505 6.59653,-1.53866 7.16532,-2.10746 0.24587,-0.24587 1.22935,0.24587 1.47522,0 1.07214,-1.07213 9.92352,-2.30892 12.01245,-1.26446 1.30891,0.65445 1.76942,1.13718 2.73968,2.10745 0.53424,0.53424 2.10489,0.41893 2.73968,1.05372 0.4006,0.40058 5.18241,0.75677 6.32235,1.8967 0.72894,0.72895 0.88998,2.15446 1.68595,2.95043 0.84719,0.84718 1.50866,1.79902 3.37192,1.05372 z"
         id="path4579"
         inkscape:connector-curvature="0" />
      <path
         style="fill:none;stroke:#6c5353;stroke-width:1.19242573;stroke-linecap:round;stroke-linejoin:miter;stroke-miterlimit:4;stroke-opacity:1;stroke-dasharray:none"
         d="m 198.33227,434.65421 c 3.2008,1.25979 5.21185,-0.21093 7.36879,-2.36788"
         id="path4581"
         inkscape:connector-curvature="0"
         sodipodi:nodetypes="cc" />
      <path
         style="fill:none;stroke:#6c5353;stroke-width:1.19242573;stroke-linecap:round;stroke-linejoin:miter;stroke-miterlimit:4;stroke-opacity:1;stroke-dasharray:none"
         d="m 191.44453,416.17585 c 0.62747,0.64604 6.16748,0.93614 8.56094,-1.45732"
         id="path4583"
         inkscape:connector-curvature="0"
         sodipodi:nodetypes="cc" />
      <path
         style="fill:none;stroke:#6c5353;stroke-width:1.19242573;stroke-linecap:round;stroke-linejoin:miter;stroke-miterlimit:4;stroke-opacity:1;stroke-dasharray:none"
         d="m 198.89548,394.41907 c 0.19933,0.16561 6.80558,3.72181 6.80558,5.89504"
         id="path4585"
         inkscape:connector-curvature="0"
         sodipodi:nodetypes="cc" />
      <path
         style="fill:none;stroke:#6c5353;stroke-width:1.19242573;stroke-linecap:round;stroke-linejoin:miter;stroke-miterlimit:4;stroke-opacity:1;stroke-dasharray:none"
         d="m 214.40989,380.75862 c 2.7651,1.3622 4.75218,4.08182 4.75218,7.35236"
         id="path4587"
         inkscape:connector-curvature="0"
         sodipodi:nodetypes="cc" />
      <path
         style="fill:none;stroke:#6c5353;stroke-width:1.19242573;stroke-linecap:round;stroke-linejoin:miter;stroke-miterlimit:4;stroke-opacity:1;stroke-dasharray:none"
         d="m 243.25202,376.72635 c 2.24412,2.82058 -1.52029,7.04459 -2.92925,8.45354"
         id="path4589"
         inkscape:connector-curvature="0"
         sodipodi:nodetypes="cc" />
      <path
         style="fill:#ae9595;fill-opacity:1;stroke:#ffffff;stroke-opacity:0"
         d="m 220.20066,504.91885 c 0.68531,-0.22819 1.89251,1.89249 3.37192,3.37191 1.15537,1.15537 2.53534,1.48162 3.58267,2.52893 0.93369,0.9337 1.13969,2.82568 2.10744,3.79341 2.05022,2.05023 3.9611,5.01483 5.90085,6.95457 0.65542,0.65542 2.02281,7.29143 2.10745,7.37607 1.19627,1.19627 0.55473,5.11363 1.47521,6.95458 0.2248,0.44958 -0.2248,1.23637 0,1.68595 1.31997,2.63995 1.68596,11.1114 1.68596,14.75214 0,1.27253 0.23778,5.0038 -0.21075,5.90085 -0.68886,1.37774 -3.21392,6.05885 -2.10745,7.16532 0.2355,0.23549 0.73037,-0.21074 0.84299,-0.21074 1.99106,0 0.8907,0.37377 2.10745,-0.84299 0.28099,-0.28099 0.77273,-0.35123 1.05372,-0.63223 0.48599,-0.48599 -0.25636,-1.98793 -0.63224,-2.73967 -0.4531,-0.90622 -0.13649,-7.52459 0.21075,-8.21905 0.48089,-0.96179 -0.84298,-4.90599 -0.84298,-6.32235 0,-0.89497 0.73116,-2.8515 0.21075,-3.37191 -0.29662,-0.29662 -0.46633,-3.41675 -0.84299,-3.7934 -0.77667,-0.77668 -1.33683,-4.14254 -0.21075,-5.26862 0.31396,-0.31396 -1.29027,-6.76965 -1.4752,-6.95458 -0.21075,-0.21075 0.21074,-1.05373 0,-1.26447 -1.24991,-1.24991 -2.33283,-8.23367 -4.00415,-9.905 -0.24587,-0.24587 0.0352,-1.0186 -0.21075,-1.26447 -1.26447,-1.26447 -2.31819,-2.73968 -3.58266,-4.00414 -0.57807,-0.57808 -2.37234,-1.10789 -2.95042,-1.68597 -0.88602,-0.88602 -1.91898,-1.49749 -2.73968,-2.31819 -0.67141,-0.6714 0.25736,-3.32529 -0.4215,-4.00415 -0.25225,-0.25226 -0.95724,1.168 -1.05372,1.26447 -0.8149,0.81489 -1.69976,1.38815 -3.37192,1.05373 z"
         id="path4591"
         inkscape:connector-curvature="0" />
      <path
         sodipodi:nodetypes="cc"
         style="fill:none;stroke:#6c5353;stroke-width:1.19215214px;stroke-linecap:round;stroke-linejoin:miter;stroke-opacity:1"
         d="m 224.52675,513.03537 c 4.1767,-0.49004 6.6704,-3.96881 6.85488,-5.95507"
         id="path4593"
         inkscape:connector-curvature="0" />
      <path
         style="fill:#d9cdcd;fill-opacity:1;stroke:#ffffff;stroke-opacity:0"
         d="m 237.48173,559.08024 c 0.76021,-0.15967 -0.24045,-5.44966 1.05373,-6.74383 0.31611,-0.31612 -0.10539,-1.36985 0.21074,-1.68596 0.19211,-0.19211 0,-1.59485 0,-1.8967 0,-0.59428 -0.60829,-7.35211 -0.84297,-7.58681 -0.49735,-0.49734 0.72915,-4.86403 0.21073,-5.90085 -0.22835,-0.45673 -0.14838,-1.41286 -0.42148,-1.68596 -0.23619,-0.23619 -2.10745,-3.50819 -2.10745,-3.7934 0,-0.55882 -1.37588,-6.54517 -1.68596,-7.16533 -0.50912,-1.01824 -1.04373,-1.87671 -1.47521,-2.73968 -0.0632,-0.12627 -1.06224,-1.05372 -1.05372,-1.05372 0.56993,0 2.31818,5.14899 2.31818,6.11159 0,1.19004 2.40634,13.5758 2.95044,14.1199 0.53495,0.53495 -0.36955,2.79163 0.21073,3.37192 1.59513,1.59511 0.63224,13.61527 0.63224,16.64883 z"
         id="path4595"
         inkscape:connector-curvature="0" />
      <path
         style="fill:none;stroke:#6c5353;stroke-width:1.19215214px;stroke-linecap:round;stroke-linejoin:miter;stroke-opacity:1"
         d="m 233.76593,529.72835 c -0.16457,0.96774 6.85488,-1.62835 6.85488,-4.47057"
         id="path4597"
         inkscape:connector-curvature="0" />
      <path
         sodipodi:nodetypes="cc"
         style="fill:none;stroke:#6c5353;stroke-width:1.19215214px;stroke-linecap:round;stroke-linejoin:miter;stroke-opacity:1"
         d="m 224.82479,538.07341 c 0.93353,5.41448 4.04417,7.831 7.44954,7.7497"
         id="path4599"
         inkscape:connector-curvature="0" />
      <path
         style="fill:none;stroke:#6c5353;stroke-width:1.19215214px;stroke-linecap:round;stroke-linejoin:miter;stroke-opacity:1"
         d="m 236.74631,552.0812 c 1.14206,3.21011 6.85488,2.20994 6.85488,0"
         id="path4602"
         inkscape:connector-curvature="0" />
      <path
         sodipodi:nodetypes="cc"
         style="fill:none;stroke:#6c5353;stroke-width:1.19215214px;stroke-linecap:round;stroke-linejoin:miter;stroke-opacity:1"
         d="m 238.53454,507.07746 c 2.98557,0.99143 9.78763,-1.40274 10.72725,-6.25525"
         id="path4604"
         inkscape:connector-curvature="0" />
      <path
         style="fill:#9f8383;fill-opacity:1;stroke:#ffffff;stroke-opacity:0"
         d="m 268.46121,418.72426 c -0.25573,0.0696 -3.9808,-0.81963 -5.26862,-2.10746 -0.8033,-0.80329 -1.46787,-1.57692 -2.52894,-2.10745 -2.71745,-1.35872 -4.63638,-8.7524 -4.63638,-12.85543 0,-1.26901 0.86332,-5.07821 1.47521,-5.6901 0.64297,-0.64297 1.05372,-1.53149 1.05372,-1.47521 0,0.0334 -0.5769,0.36616 -0.63223,0.42149 -0.20261,0.2026 -0.151,0.78323 -0.42149,1.05372 -1.31581,1.31581 -1.46846,4.41888 -2.52893,5.47937 -0.33256,0.33255 -0.10336,1.57855 -0.42149,1.8967 -0.1988,0.19879 -0.21075,3.56545 -0.21075,3.7934 0,3.89032 2.38038,6.80602 4.63639,9.06203 0.78469,0.78469 3.52531,1.41786 4.42564,2.31819 0.45273,0.45274 4.52214,0.21075 5.05787,0.21075 z"
         id="path4626"
         inkscape:connector-curvature="0" />
      <path
         inkscape:connector-curvature="0"
         id="path4128"
         d="m 272.50967,392.53194 c -1.10069,0.0379 -2.26011,0.34982 -3.5,1.09375 -3.45444,-1.61716 -7.44739,1.54113 -9.28125,3.375 -0.49174,0.49174 -0.35201,1.63327 -0.84375,2.125 -0.28099,0.281 0.28099,1.40651 0,1.6875 -0.30986,0.30986 -0.47792,1.08516 -0.5,1.90625 0.2611,-0.25271 0.47233,-0.53841 0.625,-0.84375 1.35498,-2.70996 4.79914,-4.6027 7.78125,-6.09375 0.86282,-0.43141 2.30251,0.20812 3.15625,-0.21875 0.5982,-0.29911 1.30804,-0.29911 1.90625,0 0.85963,0.42981 2.53254,-0.40496 3.15625,0.21875 0.62144,0.62144 2.0482,1.20445 2.71875,1.875 1.29197,1.29196 2.25881,4.38381 3.5625,5.6875 0.0972,0.0972 -0.0635,0.49806 0,0.625 1.10215,2.20431 -0.16708,4.30472 0.5,6.46875 1.05168,-2.27862 1.5625,-4.91904 1.5625,-7.9375 0,-0.33002 0.21031,-1.9147 0,-2.125 -2.55214,-2.55216 -6.07408,-8.00807 -10.84375,-7.84375 z"
         style="fill:#ece6e6;fill-opacity:1;stroke:none" />
      <path
         style="fill:none;stroke:#6c5353;stroke-width:1.19215214px;stroke-linecap:round;stroke-linejoin:miter;stroke-opacity:1"
         d="m 167.00541,535.09303 c 4.33428,2.23162 6.63634,2.34455 10.13329,0.59608"
         id="path4571"
         inkscape:connector-curvature="0" />
      <path
         style="fill:#6c5353;stroke:#ffffff;stroke-width:3.57645655;stroke-linecap:butt;stroke-linejoin:miter;stroke-miterlimit:4;stroke-opacity:0;stroke-dasharray:none"
         d="m 267.2329,400.29125 c -0.50402,0.73125 -2.71455,-1.07885 -4.63638,0.84298 -6.00814,6.00815 4.70737,13.41667 7.16532,10.95873 3.42064,-3.42064 3.90196,-11.80171 -2.52894,-11.80171 z"
         id="path4553"
         inkscape:connector-curvature="0" />
      <path
         style="fill:#523a3a;fill-opacity:1;stroke:#ffffff;stroke-opacity:0"
         d="m 263.10274,405.77682 c 0.0702,0.28099 0.49173,0.77273 0.21074,0.84298 -0.28099,0.0702 -0.21074,-1.13263 -0.21074,-0.84298 0,2.12535 1.60042,2.86489 2.73968,4.00415 0.36364,0.36364 1.38422,0.11975 1.68595,0.42149 0.0242,0.0242 1.11306,-0.0594 1.47522,-0.42149 0.93493,-0.93493 0.84297,-1.45896 0.84297,-2.73969 0,-0.92366 -0.2062,-1.69049 -0.21073,-1.68596 -0.38674,0.38675 -0.59265,1.01414 -1.05374,1.47522 -0.20785,0.20786 -0.90013,0.0572 -1.05372,0.21074 -1.43142,1.43143 -2.70986,-1.26446 -4.42563,-1.26446 z"
         id="path4628"
         inkscape:connector-curvature="0"
         sodipodi:nodetypes="ccssscscccc" />
    </g>
    <g
       id="g4661"
       inkscape:transform-center-x="-4.7378243"
       inkscape:transform-center-y="4.0854916"
       transform="matrix(-0.96163368,-0.27433677,0.27433677,-0.96163368,612.84584,984.1273)">
      <path
         inkscape:transform-center-y="-60.382492"
         inkscape:transform-center-x="78.206616"
         sodipodi:nodetypes="ccccscsccccscccccccc"
         inkscape:connector-curvature="0"
         id="path4291"
         d="m 313.91983,387.81059 c -0.68508,-0.0314 -4.75131,-3.43272 -7.19697,-5.18462 0.57701,-0.49455 2.76321,-2.58304 3.30195,-3.06409 -1.18773,-1.1941 -1.59423,-1.64581 -2.81995,-2.41569 -0.45251,-0.28421 -1.09186,-0.82988 -2.17036,-1.49848 0,0 -1.60479,0.84304 -2.91511,2.95924 -1.18771,-1.27643 -4.05442,-3.36233 -5.69392,-4.49442 -3.98372,-2.7508 -6.6457,-3.97608 -10.49986,-2.63819 -2.47043,0.58823 -4.58749,1.62405 -6.01303,3.65633 -0.91894,1.46307 -2.01737,2.42011 -2.8365,3.72429 1.98897,1.06691 4.81555,2.79827 6.13927,4.0625 1.21468,-1.93393 3.83359,-6.27924 7.19167,-5.90798 2.57032,0.28415 5.99509,2.65111 8.71537,5.26226 -2.48254,2.25214 -4.0167,4.05401 -5.69267,6.70305 -0.20169,0.32111 3.33937,2.23045 5.0984,3.58356 0.84666,-1.18592 1.76993,-2.20628 2.32631,-3.15121 0.57148,-0.90986 1.6831,-2.50282 2.61803,-3.45186 1.40786,1.44023 3.19206,2.77282 4.76257,3.75923 1.38847,1.38057 2.22128,1.66853 2.81208,2.25314 0.91784,-1.46131 1.60962,-2.56757 2.87272,-4.15706 z"
         style="fill:#ede7e7;fill-opacity:1;stroke:#ffffff;stroke-width:1px;stroke-linecap:butt;stroke-linejoin:miter;stroke-opacity:0" />
      <path
         inkscape:transform-center-y="-46.858334"
         inkscape:transform-center-x="92.34171"
         sodipodi:nodetypes="ccccccccccccccccccccccccccccccc"
         inkscape:connector-curvature="0"
         id="path4359"
         d="m 294.1436,397.07132 c -0.41722,-1.72361 -0.84534,-3.54254 -2.13492,-4.85009 -1.15531,-1.26698 -2.57699,-2.25519 -3.80661,-3.45032 -2.23126,-2.07207 -5.17111,-3.21307 -8.08972,-3.92304 -1.88871,-0.47182 -3.92792,-0.0469 -5.55583,0.99084 -1.5734,0.32054 -2.98109,1.42807 -3.48725,2.97634 -1.27628,1.60643 -1.97586,3.57918 -2.62153,5.50325 0.58695,2.40782 1.23252,5.14547 3.47973,6.55994 1.0101,0.73881 1.33316,0.80489 2.43861,1.39092 0.46632,-1.49117 1.15204,-3.15223 2.01858,-4.46021 -0.81933,-0.49616 -0.68153,-0.76943 -1.38092,-1.21847 -0.91775,-0.85983 -1.31674,-2.23528 -1.26742,-3.47221 -0.0241,-1.36437 1.07278,-2.26811 2.14066,-2.8948 1.04309,-0.76729 2.41798,-1.52673 3.71436,-0.91064 1.50936,0.41046 2.88307,1.18906 4.20038,2.01333 -0.8837,1.3044 -1.76227,2.61482 -2.61419,3.9375 -0.96414,1.78575 -1.69542,3.43156 -2.6185,4.72477 0,0 -0.65642,1.66054 -1.25379,3.46608 3.01179,1.80271 4.57189,1.74541 6.83949,2.4265 1.57845,-0.18732 3.18544,-0.5005 4.69812,-0.96786 1.25076,-0.62829 2.35454,-1.52072 3.18151,-2.64817 1.09418,-1.21849 2.4366,-2.58872 2.23296,-4.37321 -0.0185,-0.27573 -0.0595,-0.54957 -0.11375,-0.8204 z m -5.20245,0.0985 c 0.281,1.76145 -1.54304,2.95819 -3.08117,3.17085 -1.02508,0.1439 -2.89276,0.26424 -1.83844,-1.15144 0.70975,-1.66153 1.7684,-3.1536 2.55768,-4.78153 0.0583,-0.9745 0.5201,-0.99835 0.97848,-0.21736 0.7787,0.81976 1.09931,1.91696 1.38338,2.97917 z"
         style="fill:#ede7e7;fill-opacity:1;stroke:#ffffff;stroke-width:1px;stroke-linecap:butt;stroke-linejoin:miter;stroke-opacity:0" />
      <path
         inkscape:transform-center-y="-27.116843"
         inkscape:transform-center-x="100.73282"
         sodipodi:nodetypes="ccccccccccccccccccccccccccc"
         inkscape:connector-curvature="0"
         id="path4471"
         d="m 285.80996,412.05049 c -0.52215,-0.81833 -0.56638,-2.08965 -1.99187,-2.71921 -1.44707,-0.52698 -2.84896,-0.68609 -3.82488,-1.1739 -3.03223,-0.60325 -5.58516,0.95076 -6.99534,2.85714 -0.91877,1.32805 -1.38362,2.88085 -1.8486,3.38983 -1.52973,2.9843 -2.23758,5.4327 -6.24399,3.43293 -1.62928,-1.03787 -1.11783,-2.57009 -0.80323,-4.62323 0.4332,-1.26196 0.35897,-2.01863 1.75173,-3.37187 1.02854,-1.21898 1.76831,-1.29957 4.05265,-0.76458 0.64897,-0.96574 1.35807,-2.43851 1.79543,-3.99924 -3.60009,-1.16723 -5.24622,-0.63015 -6.2484,-0.47376 -1.18577,0.62646 -3.66016,3.1647 -4.15768,4.58362 -0.46967,1.04796 -1.54733,4.7267 -1.68281,5.86877 -0.0277,1.15258 0.44354,2.95523 1.05092,4.83049 0.79643,0.9382 2.60051,2.86869 5.6089,3.42186 4.34717,0.47114 7.80456,-5.4492 9.66428,-8.12316 0.54024,-0.96779 0.76199,-2.15085 1.75511,-2.77043 0.81889,-0.57473 1.81595,-0.33328 2.74976,-0.14948 1.88929,0.2351 2.37091,1.53416 2.34049,2.79261 0.25443,1.45149 -0.37586,5.69764 -2.70607,6.48013 -2.05552,0.47263 -3.00411,-0.1535 -3.79607,-0.53087 -0.36503,0.87879 -0.89907,2.05914 -1.38162,3.59381 1.25952,0.23991 3.03789,0.83194 4.85598,1.00371 1.83022,0.51891 3.8861,-1.97761 4.61326,-3.64132 0.64229,-1.35698 1.20689,-3.03704 1.62708,-4.46013 0.48315,-1.73641 0.46747,-3.53019 -0.18501,-5.45373 z"
         style="fill:#ede7e7;fill-opacity:1;stroke:#ffffff;stroke-width:1px;stroke-linecap:butt;stroke-linejoin:miter;stroke-opacity:0" />
      <path
         inkscape:transform-center-y="-5.0391914"
         inkscape:transform-center-x="100.33186"
         style="fill:#ede7e7;fill-opacity:1;stroke:#ffffff;stroke-width:1px;stroke-linecap:butt;stroke-linejoin:miter;stroke-opacity:0"
         d="m 290.97452,432.80254 c -0.58134,0.36382 -5.86037,-0.12077 -8.86836,-0.17058 0.19329,-0.73497 0.80345,-3.6962 0.97293,-4.39828 -1.6561,-0.30655 -2.24735,-0.44685 -3.69339,-0.38286 -0.53382,0.0237 -1.37005,-0.0615 -2.6374,0.002 0,0 -0.84038,1.60617 -0.71438,4.09199 -1.70291,-0.37425 -5.24716,-0.45926 -7.23955,-0.45784 -4.84118,0.003 -7.72752,0.50986 -10.13648,3.8025 -1.69727,1.88898 -2.78483,3.2834 -2.80135,5.76576 0.0764,1.72604 -0.14219,3.75283 -0.0741,5.29143 2.24274,-0.25384 5.34736,-0.39078 7.15519,-0.10392 -0.10097,-2.28152 -0.4186,-7.34506 2.55451,-8.94979 2.27565,-1.2283 6.43876,-1.22954 10.16135,-0.62924 -0.76081,3.26441 -0.9977,5.61903 -0.86938,8.75109 0.0167,0.37885 4.01523,-0.0649 6.23164,0.0474 0.0218,-1.45697 0.20078,-2.82133 0.12093,-3.91498 -0.0475,-1.0734 -0.0393,-3.01587 0.18984,-4.32822 1.97712,0.38377 4.20257,0.46492 6.05535,0.38292 1.92725,0.34571 2.776,0.10886 3.59445,0.25362 -0.0763,-1.72395 -0.13657,-3.0273 -0.002,-5.05307 z"
         id="path4495"
         inkscape:connector-curvature="0"
         sodipodi:nodetypes="ccccscsccccscccccccc" />
      <path
         inkscape:transform-center-y="13.697414"
         inkscape:transform-center-x="99.288097"
         sodipodi:nodetypes="cccccccccccccc"
         inkscape:connector-curvature="0"
         id="path4556"
         d="m 257.0228,453.90304 c 2.49309,-0.3444 4.82657,-0.2239 7.28083,-0.4745 2.05116,-0.19753 4.667,-0.58474 6.23016,-0.78588 2.25958,-0.0826 5.22258,-0.57026 7.91829,-0.7042 2.74463,-0.36067 6.27645,-0.62615 8.25769,-1.02904 1.62716,-0.32123 3.38517,-0.60053 4.99351,-0.26062 -0.28326,1.38742 0.42038,3.17771 0.91899,4.88138 -1.64535,0.25605 -3.46456,0.25748 -5.12974,0.79308 -1.8605,0.47331 -3.75646,0.90805 -5.6793,0.84831 -2.13827,0.54815 -4.12869,0.7223 -5.78416,1.00374 -1.97226,0.59047 -4.23082,0.76254 -5.71005,1.20281 -1.3455,0.29064 -3.40661,0.32162 -4.96948,0.73677 -2.88889,0.58832 -5.92329,0.77812 -8.24471,1.04 -0.74243,-1.97206 -1.53308,-6.26813 -0.082,-7.25185 z"
         style="fill:#ede7e7;fill-opacity:1;stroke:#ffffff;stroke-width:1px;stroke-linecap:butt;stroke-linejoin:miter;stroke-opacity:0" />
      <path
         inkscape:transform-center-y="22.125845"
         inkscape:transform-center-x="82.9855"
         sodipodi:nodetypes="ccsccscc"
         inkscape:connector-curvature="0"
         id="path4574"
         d="m 293.84174,461.06448 c -1.07475,0.0871 -5.04149,0.92498 -7.26831,1.61569 -0.11601,0.88347 0.47649,2.83448 0.5438,3.12917 0.0357,0.15623 0.56613,1.58447 0.57953,1.59288 0.17029,0.10695 1.44104,-0.0286 1.58405,-0.14618 0.4375,-0.3598 1.81515,-0.23464 2.10529,-0.69658 0.0414,-0.0659 3.53645,-0.79964 3.49322,-1.22928 -0.14286,-1.79717 -0.67631,-2.68406 -1.03761,-4.2657 z"
         style="fill:#ede7e7;fill-opacity:1;stroke:#ffffff;stroke-width:1px;stroke-linecap:butt;stroke-linejoin:miter;stroke-opacity:0" />
      <path
         inkscape:transform-center-y="27.613208"
         inkscape:transform-center-x="102.04015"
         sodipodi:nodetypes="ccccccccccccc"
         inkscape:connector-curvature="0"
         id="path4576"
         d="m 258.56375,469.6176 c -0.0399,2.05336 0.73755,4.36112 1.68748,6.28954 3.20175,-0.77108 6.38746,-1.8029 9.46973,-2.73452 1.29191,-0.41989 5.0078,-1.40691 6.34051,-1.70167 1.12832,-0.49556 3.71624,-1.02191 4.86044,-1.47914 1.25319,-0.42776 2.54814,-0.71859 3.79883,-1.16705 0.24216,-1.14433 -0.53857,-2.18252 -0.86874,-3.23156 -0.34009,-0.92879 -0.21446,-2.49894 -1.66428,-1.87914 -2.87262,0.53718 -7.14161,1.67816 -9.97919,2.38041 -1.25875,0.21922 -4.80033,1.49548 -6.0368,1.75698 -1.24463,0.212 -2.56724,0.18458 -3.69687,0.81864 -1.21276,0.33888 -2.84185,0.83504 -3.91109,0.94758 z"
         style="fill:#ede7e7;fill-opacity:1;stroke:#ffffff;stroke-width:1px;stroke-linecap:butt;stroke-linejoin:miter;stroke-opacity:0" />
      <path
         inkscape:transform-center-y="44.846914"
         inkscape:transform-center-x="97.185536"
         sodipodi:nodetypes="cccccccccccccccccccccccccc"
         inkscape:connector-curvature="0"
         id="path4592"
         d="m 262.0815,482.18488 c 1.1962,-0.33859 2.84703,-0.94306 4.12606,-1.59963 1.47365,-0.57062 3.10767,-0.7898 4.4409,-1.67555 1.0382,-0.26342 2.00054,-0.91157 3.07847,-1.16411 1.61207,-0.56766 5.70936,-1.76675 7.27254,-2.4516 0.99094,-0.39619 3.84666,-1.21757 5.2018,-1.65848 0.61767,1.175 1.08011,2.75878 1.89645,4.03115 0.79569,1.39347 1.95877,3.35128 2.33531,4.91272 0.58127,1.43232 0.61005,2.98537 0.41527,4.48658 0.0324,1.40854 -0.88448,2.69927 -1.57074,3.8871 -1.12208,1.12875 -2.72517,1.56129 -4.00579,2.47617 -1.52496,0.87374 -5.38757,2.71545 -6.94925,3.51819 -1.32491,0.41636 -2.53246,1.10767 -3.84658,1.55707 -0.83822,0.69343 -2.746,1.40391 -3.74006,1.80767 -0.65224,-0.98054 -1.25403,-1.79533 -1.67244,-2.468 -0.40251,-0.89901 -0.75089,-2.14148 -1.18116,-2.70941 1.44328,-0.53952 3.31178,-1.50432 4.19068,-2.22265 1.95167,-1.29741 4.40684,-1.61362 6.32682,-2.96914 0.85859,-0.81257 4.50644,-1.86567 5.46467,-2.54525 1.01102,-0.60978 1.61856,-1.98948 1.34291,-3.83512 -0.60011,-1.46134 -1.0663,-2.85933 -1.64686,-4.09062 -1.05211,0.44499 -5.84789,2.28791 -7.0686,2.84796 -1.53297,0.46269 -2.38273,1.25274 -3.89251,1.7283 -1.3593,1.06881 -2.73767,1.02707 -3.73447,1.55926 -1.48243,0.79384 -3.54417,1.55378 -4.73028,2.15193 -0.91884,-1.53394 -2.00144,-4.64984 -2.05314,-5.57454 z"
         style="fill:#ede7e7;fill-opacity:1;stroke:#ffffff;stroke-width:1px;stroke-linecap:butt;stroke-linejoin:miter;stroke-opacity:0" />
      <path
         inkscape:transform-center-y="66.545535"
         inkscape:transform-center-x="86.704241"
         sodipodi:nodetypes="ccccccccccccccccccccccccccccccccccccccccccc"
         inkscape:connector-curvature="0"
         id="path4609"
         d="m 304.29751,504.66832 c -0.27045,0.0956 -0.45983,0.065 -0.6206,-0.0506 0.18735,-0.1067 0.34196,-0.25465 0.4344,-0.48389 -0.44808,-1.52553 -2.30214,-2.01236 -2.93892,-3.46374 -0.98286,-1.36367 -1.91917,-2.84185 -3.31053,-3.82763 -1.55286,-0.77727 -2.84703,-2.21578 -4.62764,-2.43689 -1.69904,0.0739 -3.32757,0.59176 -4.95624,1.03605 -1.49546,0.51155 -2.41321,1.98531 -3.98939,2.32173 -1.54069,0.57355 -2.63333,1.88891 -4.02078,2.74561 -1.54478,1.06457 -2.2322,1.95654 -2.81641,2.79977 -0.99609,0.9425 -1.03112,2.6327 -0.74379,3.82417 0.26628,1.36057 0.55653,3.41791 1.07763,4.68157 0.78672,1.21283 1.81885,2.63687 2.72395,3.22436 0.99853,0.54288 1.96913,0.93901 2.37804,1.32763 -1.19905,2.22353 -2.63805,2.04626 -3.71752,1.86623 -1.45056,-0.12567 -2.83208,-1.13898 -4.16551,-1.88104 -1.88151,-1.27194 -2.91191,-3.30113 -3.71891,-6.17667 -0.96606,0.99374 -1.471,3.64023 -1.58214,5.02701 0.41,1.11567 1.91848,4.19756 3.50143,5.35204 1.20742,0.85189 2.24692,1.58815 3.65511,2.0704 1.30732,0.37519 2.40977,0.19985 3.75378,0.30816 1.35055,0.0871 3.28308,-0.68534 4.38804,-1.35498 1.13232,-0.83969 1.81974,-1.29245 2.78764,-2.36482 1.40979,-0.8741 2.50294,-2.06426 3.79673,-3.11408 1.04828,-0.73 1.88676,-1.59934 2.75779,-2.52121 1.18809,-0.72404 1.9381,-1.99111 3.03461,-2.71267 1.8442,-2.53693 4.8232,-3.90644 6.91883,-6.1964 z m -6.6109,-1.13003 c -0.71319,0.70627 -0.75487,1.0442 -1.16708,1.43518 -0.98586,0.68307 -1.78993,1.15404 -2.43654,1.70763 -1.00457,0.93885 -1.89758,1.99244 -3.05116,2.78055 -1.51179,1.36753 -3.67514,2.5684 -5.11935,4.20004 -1.05419,-0.39245 -1.9508,-1.04879 -2.76209,-1.8606 -0.50214,-0.75258 -1.45844,-1.22376 -1.76397,-2.10901 -0.392,-1.15477 -0.70452,-1.76952 -0.71345,-3.05996 0.19511,-0.79938 0.65185,-1.75636 1.37159,-2.23662 0.44551,-0.43357 1.95187,-1.32771 2.76772,-1.92895 1.25377,-0.85827 2.54951,-1.67899 3.98676,-2.1929 0.99854,-0.30708 1.88028,-0.93265 2.91863,-1.11548 1.49113,0.13122 2.48374,0.85332 3.74131,1.96325 0.90196,0.93953 1.46335,1.51318 2.22768,2.41686 z"
         style="fill:#ede7e7;fill-opacity:1;stroke:#ffffff;stroke-width:1px;stroke-linecap:butt;stroke-linejoin:miter;stroke-opacity:0" />
    </g>
  </g>
</svg>
