<?xml version="1.0" encoding="UTF-8" standalone="no"?>
<!-- Created with Inkscape (http://www.inkscape.org/) -->

<svg
   xmlns:dc="http://purl.org/dc/elements/1.1/"
   xmlns:cc="http://creativecommons.org/ns#"
   xmlns:rdf="http://www.w3.org/1999/02/22-rdf-syntax-ns#"
   xmlns:svg="http://www.w3.org/2000/svg"
   xmlns="http://www.w3.org/2000/svg"
   xmlns:sodipodi="http://sodipodi.sourceforge.net/DTD/sodipodi-0.dtd"
   xmlns:inkscape="http://www.inkscape.org/namespaces/inkscape"
   width="266.3374"
   height="238.0486"
   id="svg12969"
   version="1.1"
   inkscape:version="0.48.3.1 r9886"
   sodipodi:docname="thinkpad.svg"
   inkscape:export-filename="/home/substack/media/vector/thinkpad.png"
   inkscape:export-xdpi="109.79594"
   inkscape:export-ydpi="109.79594">
  <defs
     id="defs12971" />
  <sodipodi:namedview
     id="base"
     pagecolor="#ffffff"
     bordercolor="#666666"
     borderopacity="1.0"
     inkscape:pageopacity="0.0"
     inkscape:pageshadow="2"
     inkscape:zoom="0.84082031"
     inkscape:cx="156.13154"
     inkscape:cy="64.882601"
     inkscape:document-units="px"
     inkscape:current-layer="layer1"
     showgrid="false"
     inkscape:window-width="1364"
     inkscape:window-height="766"
     inkscape:window-x="0"
     inkscape:window-y="0"
     inkscape:window-maximized="0"
     fit-margin-top="10"
     fit-margin-left="10"
     fit-margin-right="10"
     fit-margin-bottom="10" />
  <metadata
     id="metadata12974">
    <rdf:RDF>
      <cc:Work
         rdf:about="">
        <dc:format>image/svg+xml</dc:format>
        <dc:type
           rdf:resource="http://purl.org/dc/dcmitype/StillImage" />
        <dc:title></dc:title>
      </cc:Work>
    </rdf:RDF>
  </metadata>
  <g
     inkscape:label="Layer 1"
     inkscape:groupmode="layer"
     id="layer1"
     transform="translate(-273.57694,-295.86518)">
    <path
       id="path12761"
       d="m 425.35196,307.23395 c -3.46142,1.03429 -6.5319,2.24358 -10.3125,3.0625 -4.38371,0.94957 -9.81894,1.12875 -14.5625,2.15625 -5.36603,1.16234 -8.8524,3.29793 -14.3125,3.125 -4.32138,-0.13685 -9.54601,3.07063 -14.125,4.0625 -5.5604,1.20445 -7.95406,2.71011 -13.1875,3.84375 -4.67563,1.0128 -9.23871,1.91103 -13.15625,3.84375 -3.6903,1.82054 -9.33412,2.03095 -13.375,2.90625 l -13.375,2.90625 c -4.45923,0.96591 -8.91577,1.90908 -13.375,2.875 -3.70867,0.80335 -8.82997,2.93111 -13.1875,3.875 -1.85243,0.40131 -4.95228,2.05542 -7.4375,2.59375 l 0.0937,5 c 0.0678,4.26249 1.96981,9.19613 2.875,13.375 1.04466,4.82272 2.81577,8.26625 3.875,13.15625 l 2.875,13.375 2.90625,13.375 2.90625,13.375 2.90625,13.40625 c 1.07808,4.97698 1.88646,7.32804 1.71875,12.625 -0.0723,2.28014 0.9858,4.45791 1.46875,6.6875 0.0408,2.57175 0.51063,5.82303 7.5,2.375 2.87466,-1.41814 7.01613,-2.41005 11.0625,-4.40625 3.36553,-1.66028 9.12118,-3.97016 12,-4.59375 4.68269,-1.01432 7.03137,-2.53261 12.21875,-3.65625 4.32051,-0.93589 10.40262,-1.14948 14.34375,-3.09375 4.27517,-2.10904 9.40865,-2.81246 13.90625,-5.03125 4.28286,-2.11282 9.54241,-2.8472 13.90625,-5 4.08755,-2.01651 9.09369,-4.96691 13.71875,-5.96875 4.71266,-1.02082 8.07204,-1.61072 12.21875,-3.65625 3.1651,-1.56146 8.71093,-3.89019 12.96875,-4.8125 4.61234,-0.99908 8.40589,-1.86374 11.8125,-3.46875 -0.28043,-1.00316 -0.4706,-2.07019 -0.5625,-3.1875 -1.84375,-9.12837 -3.06745,-18.33387 -4.84375,-27.375 -0.55116,-7.13595 -2.2743,-13.82746 -2.3125,-20.9375 -1.826,-6.65311 -2.47439,-13.41303 -3.625,-20.1875 -3.25207,-8.55776 -3.42155,-17.80179 -5.53125,-26.625 z"
       style="fill:#191915;fill-opacity:1;fill-rule:evenodd;stroke:#ffffff;stroke-width:2.73754311;stroke-linecap:butt;stroke-linejoin:miter;stroke-miterlimit:4;stroke-opacity:0;stroke-dasharray:none;stroke-dashoffset:0;marker:none;visibility:visible;display:inline;overflow:visible;enable-background:accumulate"
       inkscape:connector-curvature="0" />
    <path
       id="path12763"
       d="m 440.44571,403.23395 c -4.3943,2.62349 -16.28781,6.34493 -22.9375,8.0625 -5.6244,2.08642 -15.76624,5.57764 -26.96875,8.28125 -9.21235,4.12497 -17.27212,5.66446 -26.65625,9.25 -6.40829,2.78189 -19.57255,6.95788 -28.28125,9.40625 -8.76838,4.05858 -18.52063,4.84049 -27.21875,9.03125 1.60825,2.50379 2.47043,5.5279 0.75,8.96875 -0.45617,0.91235 -0.93002,2.49626 -1.875,2.96875 -0.24295,0.12147 -0.72013,0.35688 -1.25,0.5625 3.21874,4.64291 7.00349,9.04281 8.875,14.40625 4.38695,11.34193 12.93416,20.46887 19.0625,30.875 5.40156,5.81192 8.94399,19.65698 19.03125,16.5625 10.75162,-4.61415 22.15259,-7.55538 33.09375,-11.6875 13.45495,-1.59497 25.62961,-8.01882 38.875,-10.59375 9.46326,-1.91557 18.34074,-5.63084 27.78125,-7.59375 11.07633,-5.16854 22.85903,-8.65455 34.4375,-12.625 9.18929,-3.38225 19.3345,-3.50031 28.21875,-7.5625 8.1359,-3.53106 20.1343,-12.1608 8,-19.4375 -8.55345,-5.48324 -17.75516,-10.09634 -26.78125,-14.8125 -8.00297,-4.76894 -15.48552,-10.08982 -22.9375,-15.71875 -7.80011,-4.69846 -17.82755,-9.30509 -23.09375,-14.09375 -2.32141,-1.99557 -7.23221,-4.05881 -10.125,-4.25 z"
       style="fill:#2a2a21;fill-opacity:1;fill-rule:evenodd;stroke:#ffffff;stroke-width:2.73754311;stroke-linecap:butt;stroke-linejoin:miter;stroke-miterlimit:4;stroke-opacity:0;stroke-dasharray:none;stroke-dashoffset:0;marker:none;visibility:visible;display:inline;overflow:visible;enable-background:accumulate"
       inkscape:connector-curvature="0" />
    <path
       sodipodi:nodetypes="cccccccccccccccccccccc"
       inkscape:connector-curvature="0"
       id="path12765"
       d="m 321.4396,455.44203 c 3.05586,5.77328 8.42711,9.83801 11.50437,15.51753 4.73925,3.53539 8.39485,10.12936 11.38552,13.59247 5.15135,-2.65663 11.16154,-3.1449 16.69429,-5.46897 4.70921,-1.95603 9.50492,-2.85765 14.31722,-4.92891 5.46332,-1.63029 10.76942,-4.3584 16.46255,-4.79986 5.50269,-1.79816 10.78484,-4.41571 16.5877,-4.81578 5.42175,-3.13318 11.80996,-3.2124 17.26679,-6.33743 4.51605,-2.43114 10.13006,-3.37795 14.52632,-5.21572 6.53114,-2.0836 13.89388,-3.84276 20.37789,-6.10472 6.6994,-1.43367 12.75688,-3.79974 19.15605,-5.9973 3.1271,-2.01177 11.29727,-1.42941 4.56866,-5.19974 -5.67746,-2.90809 -10.60293,-6.9294 -16.7773,-8.81961 -6.48737,-2.16861 -10.71254,-8.17219 -17.23997,-10.32434 -4.65228,-2.83926 -8.54785,-5.35214 -13.78636,-2.03179 -6.18461,1.34292 -13.50619,5.52069 -18.028,6.75464 -6.34304,2.52482 -10.47537,4.53474 -17.14282,5.94977 -6.57942,2.41155 -14.34373,4.45531 -20.8078,7.20112 -6.2885,1.91523 -13.33331,3.88878 -19.11088,6.17008 -5.81543,1.48713 -11.7122,3.32153 -17.34513,5.67711 -3.74776,1.37296 -12.69594,4.45323 -16.18806,5.70338 -0.98401,1.55871 -9.38163,0.72102 -6.42104,3.47807 z"
       style="fill:#23231b;fill-opacity:1;stroke:#ffffff;stroke-width:1px;stroke-linecap:butt;stroke-linejoin:miter;stroke-opacity:0" />
    <path
       id="path12767"
       d="m 524.36701,459.08428 c 1.6728,-0.0973 3.0247,0.14011 4.1179,1.00199 0,0.2306 10e-4,0.60857 -3e-4,0.86827 -0.8695,1.47656 -3.6661,4.08453 -5.13691,5.4903 -5.76496,3.84801 -7.13509,5.17692 -14.0867,7.58527 -4.27778,0.282 -18.1551,3.83069 -22.12241,5.10503 -5.07142,1.62901 -9.63961,3.36122 -14.38054,4.8841 -5.30667,1.70455 -10.4832,3.08215 -15.24188,5.86702 -4.34028,2.53993 -11.61431,2.75177 -16.34007,5.01327 -4.19408,2.00698 -10.06589,2.49764 -14.44512,3.90433 -4.75544,1.52753 -9.61694,2.2946 -14.44892,3.8467 -4.93756,1.58602 -9.6603,3.36788 -14.38054,4.88409 -4.5394,1.45814 -9.07698,1.42958 -13.53004,2.85998 -4.3718,1.40428 -8.86381,3.36217 -13.40068,4.8195 l -11.50971,3.65293 c -3.04187,0.97712 -5.80416,2.62951 -8.56652,3.5168 -2.6847,0.86243 -5.87872,-1.88738 -8.23761,-4.6665 2.28745,-3.98319 5.28602,-7.6431 6.37325,-9.5658 1.24858,-0.0823 2.96406,0.10729 4.14961,-0.27355 2.54795,-0.81842 6.42561,-1.01933 9.53369,-2.01769 3.04205,-0.97716 5.49456,-1.58837 8.85404,-2.66749 3.21799,-1.0337 5.79163,-1.69849 8.79631,-2.66369 2.90729,-0.93385 7.38549,-1.44889 9.54565,-2.71309 3.02995,-1.77312 6.63817,-1.77915 9.54563,-2.71308 2.46688,-0.79229 8.00515,-0.0458 10.27088,-1.37168 3.67559,-2.15098 8.35878,-4.02406 12.91246,-4.32425 4.6188,-0.30448 7.54324,-3.9703 12.16314,-4.27485 4.5926,-0.30275 6.79171,-1.49008 10.8713,-2.80048 3.7823,-1.21495 7.1278,-0.87914 10.24104,-2.70104 3.19974,-1.87257 5.99722,-2.98577 9.45446,-4.09629 2.84071,-0.91247 5.20658,-2.21687 8.75072,-3.3553 3.5463,-1.13911 5.81046,-2.41043 9.50004,-3.40468 3.46338,-0.93327 5.62664,-0.93925 8.8421,-1.9721 2.34026,-0.75173 6.53878,-1.82026 9.59123,-2.02148 3.30327,-0.21776 5.6439,-0.93012 8.89963,-1.9759 1.98529,-0.63773 5.93769,-2.03412 8.10471,-2.6181 l 3.41241,-0.91955 c 0.66757,-0.10381 1.30955,-0.14894 1.89825,-0.18293 z"
       style="fill:#23231b;fill-opacity:1;stroke:#ffffff;stroke-width:2.73754311;stroke-linecap:butt;stroke-linejoin:miter;stroke-miterlimit:4;stroke-opacity:0;stroke-dasharray:none;stroke-dashoffset:0;marker:none;visibility:visible;display:inline;overflow:visible;enable-background:accumulate"
       inkscape:connector-curvature="0" />
    <path
       id="path12769"
       d="m 308.32071,447.98395 c -0.70693,0.91077 -1.34264,1.83257 -2.28125,2.9375 -0.7282,0.85724 -0.46749,2.32527 -1.09375,3.0625 -0.78769,0.92727 0.21202,6.31362 -0.40625,8.1875 0.68724,1.31632 1.43038,2.5903 2.21875,3.9375 1.1608,1.98333 3.05177,3.99009 4.59375,6.625 1.05666,1.80554 3.05566,4.83306 4.59375,6.625 1.95983,2.28319 4.05558,5.4875 6.03125,7.21875 1.13626,0.99568 4.4674,4.05996 5.28125,6.59375 0.85741,2.66907 3.00012,4.42515 3.9375,7.34375 0.85767,2.67021 2.85378,5.76041 4.625,7.3125 2.08243,1.82491 2.31425,3.33315 3.875,6 0.77778,1.3291 3.10816,4.66505 4.5,5.25 0.92224,0.38759 6.37012,3.35149 6.9375,0.21875 0.27173,-1.50072 1.37834,-6.80518 0.0937,-9 -1.01471,-1.73403 -3.29078,-4.39853 -4.59375,-6.625 -1.86636,-3.18915 -2.89243,-4.35189 -4.625,-7.3125 -1.8363,-3.13784 -2.81858,-5.47204 -4.71875,-8.71875 -1.46391,-2.5016 -3.75204,-5.16445 -5.375,-7.9375 -1.28293,-2.19237 -3.73371,-4.53003 -5.34375,-7.28125 -1.41341,-2.41545 -3.01953,-4.79086 -4.59375,-6.625 -1.96203,-2.28576 -4.42909,-5.11512 -6.0625,-7.90625 -1.13681,-1.94259 -3.30043,-3.78075 -4.5625,-5.9375 -0.58952,-1.00735 -1.7663,-2.50304 -3.03125,-3.96875 z"
       style="fill:#0c0c09;fill-opacity:1;fill-rule:evenodd;stroke:#ffffff;stroke-width:2.73754311;stroke-linecap:butt;stroke-linejoin:miter;stroke-miterlimit:4;stroke-opacity:0;stroke-dasharray:none;stroke-dashoffset:0;marker:none;visibility:visible;display:inline;overflow:visible;enable-background:accumulate"
       inkscape:connector-curvature="0" />
    <path
       id="path12771"
       d="m 419.16446,313.98395 c -2.23685,0.69023 -4.4668,1.49967 -6.34375,1.90625 -3.51053,0.7604 -5.43188,1.19789 -8.125,1.78125 -3.15304,0.68299 -6.28429,1.34824 -9.4375,2.03125 -3.12125,0.67611 -5.72436,1.14735 -8.65625,2.59375 -2.56748,1.26731 -6.19816,1.18231 -9.3125,2.71875 -2.83843,1.4003 -5.99038,1.99914 -9.3125,2.71875 l -9.4375,2.0625 c -0.55816,0.1209 -1.17077,0.29877 -1.78125,0.46875 -0.0482,0.0887 -0.0878,0.18156 -0.15625,0.25 -1.22413,1.22414 -21.51287,3.70037 -23.46875,5.65625 -1.05905,1.05909 -4.93227,0.0573 -6.03125,1.15625 -1.81682,1.81682 -21.03566,5.09817 -22.34375,6.40625 -0.84102,0.84103 -3.97321,-0.15179 -4.90625,0.78125 -0.47491,0.47492 -2.96338,1.5 -3.78125,1.5 -0.92854,0 -2.46022,0.68315 -4.03125,1.34375 0.33621,2.03391 1.20699,4.30094 1.65625,6.375 l 2.03125,9.46875 c 0.61894,2.85735 2.15476,6.52924 2.0625,9.4375 -0.10815,3.41631 1.36749,6.40445 2.03125,9.46875 0.74946,3.45988 2.03125,5.99435 2.75,9.3125 0.79458,3.66818 1.79406,5.07747 2.5625,8.625 0.72783,3.36004 0.65894,6.35311 1.21875,8.9375 0.71235,3.28858 3.06568,6.56892 2.96875,9.625 -0.0684,2.14598 0.57133,6.27951 1.25,8.90625 1.02884,3.98136 0.92702,11.11266 2.3125,10.8125 6.05497,-1.69933 11.12666,-3.46701 16.21875,-5.96875 2.4024,-1.18518 5.51842,-1.96202 7.8125,-3.09375 2.86799,-1.41485 6.24682,-1.41497 9.3125,-2.75 2.88872,-1.25804 6.39549,-1.27972 9.3125,-2.71875 2.30861,-1.13892 6.24474,-2.76881 9.1875,-3.40625 2.98126,-0.64578 7.13733,-1.47821 9.96875,-2.875 2.5512,-1.25863 6.91832,-2.89756 9.84375,-3.53125 3.12125,-0.6761 5.72421,-1.1473 8.65625,-2.59375 1.96657,-0.97018 5.82532,-2.66384 8.34375,-3.90625 2.48135,-1.22406 5.23569,-1.85958 8.625,-2.59375 3.05495,-0.66173 7.33835,-0.81273 10.125,-2.1875 2.28162,-1.12555 5.46987,-1.75516 8.5,-3.25 1.28653,-0.63468 3.02236,-1.57002 4.75,-2.40625 -0.28972,-1.6161 -0.47479,-3.27409 -0.96875,-4.78125 -0.24743,-0.755 0.34946,-1.94843 0,-2.65625 -0.97678,-1.9784 -0.72142,-6.58406 -1.3125,-7.78125 -1.26645,-2.56514 -1.28811,-9.62279 -2.34375,-12.84375 -0.45047,-1.37441 0.41495,-3.52898 -0.21875,-4.8125 -0.93498,-1.89376 -0.66706,-4.27928 -1.59375,-6.15625 -0.3531,-0.71523 0.38438,-1.97226 0.0312,-2.6875 -1.40168,-2.83903 -0.50269,-10.73977 -2.34375,-14.46875 -0.42373,-0.85828 0.42375,-2.32921 0,-3.1875 -1.12452,-2.27766 -0.70502,-6.88186 -1.8125,-9.125 -1.46735,-2.97204 -1.07914,-6.81051 -2.09375,-9.90625 -0.44495,-1.35763 -1.60075,-2.52806 -1.59375,-4 6.9e-4,-0.13664 -0.0524,-0.39409 -0.125,-0.65625 z"
       style="fill:#000000;fill-opacity:1;fill-rule:evenodd;stroke:#ffffff;stroke-width:2.73754311;stroke-linecap:butt;stroke-linejoin:miter;stroke-miterlimit:4;stroke-opacity:0;stroke-dasharray:none;stroke-dashoffset:0;marker:none;visibility:visible;display:inline;overflow:visible;enable-background:accumulate"
       inkscape:connector-curvature="0" />
    <path
       inkscape:connector-curvature="0"
       id="path12773"
       d="m 442.43759,464.3427 c -2.54686,0.80977 4.64473,2.71231 6.64948,4.47962 1.13874,1.00385 2.63814,2.9413 3.69152,4.17602 0.51836,0.60745 -3.78892,1.32905 -5.2745,1.80141 -2.98099,0.94778 -5.63954,2.04187 -8.62838,2.99212 -2.81493,0.89498 -4.55718,2.07097 -7.16468,2.9 -2.28627,0.72694 -4.78209,0.79074 -7.28749,0.94849 -0.69361,0.0437 -2.31651,-2.04222 -3.6301,-3.20021 -1.88447,-1.66129 -2.87962,-2.9995 -4.1794,-4.14531 -1.80125,-1.58789 -2.93144,-2.75438 0.79159,-2.9887 3.294,-0.20728 7.77759,-2.09957 11.06768,-3.14564 2.60019,-0.8267 4.38018,-1.74513 7.2261,-1.92424 1.30093,-0.0819 -0.15153,0.17276 0.4571,-0.51857"
       style="fill:#0c0c09;fill-opacity:1;stroke:#ffffff;stroke-width:2.73754311;stroke-linecap:butt;stroke-linejoin:miter;stroke-miterlimit:4;stroke-opacity:0;stroke-dasharray:none;stroke-dashoffset:0;marker:none;visibility:visible;display:inline;overflow:visible;enable-background:accumulate" />
    <path
       inkscape:connector-curvature="0"
       id="path12775"
       d="m 442.42414,455.60851 c 1.72602,1.59614 2.5742,3.22015 4.18571,4.80673"
       style="fill:#1a1a14;fill-opacity:1;stroke:#ffffff;stroke-width:2.73754311;stroke-linecap:butt;stroke-linejoin:miter;stroke-miterlimit:4;stroke-opacity:0;stroke-dasharray:none;stroke-dashoffset:0;marker:none;visibility:visible;display:inline;overflow:visible;enable-background:accumulate" />
    <path
       inkscape:connector-curvature="0"
       id="path12777"
       d="m 416.89886,463.97069 c 0.33055,0.46011 0.41652,0.70661 0.76068,1.17033 0.93466,1.25938 1.56347,1.88522 2.4329,2.96246 -0.29743,0.11121 -0.68346,0.1481 -0.95377,0.2607 -2.48516,1.03525 -4.22848,1.47314 -6.58088,2.45306 -2.35274,0.98005 -3.42844,1.82271 -5.98942,2.88953 -2.10811,0.87817 -2.40786,-0.49796 -3.42114,-2.93021 -0.91582,-2.1988 -1.19012,-2.27377 2.55096,-2.83813 3.13176,-0.47244 5.63384,-1.05986 8.00018,-2.72558 0.87628,-0.6169 2.05516,-0.91318 3.20049,-1.24216 z"
       style="fill:#1a1a14;fill-opacity:1;stroke:#ffffff;stroke-width:2.73754311;stroke-linecap:butt;stroke-linejoin:miter;stroke-miterlimit:4;stroke-opacity:0;stroke-dasharray:none;stroke-dashoffset:0;marker:none;visibility:visible;display:inline;overflow:visible;enable-background:accumulate" />
    <path
       inkscape:connector-curvature="0"
       id="path12779"
       d="m 430.97896,459.34328 c 0.15901,-0.0238 0.28747,-0.10168 0.44828,-0.12601 2.05934,-0.31071 4.59281,-0.24391 6.28236,-0.94772 2.19904,-0.91603 4.58287,-1.33074 6.06696,-2.37553 l 0.73233,4.85454 c 2.16678,2.00366 -5.81026,1.14566 -8.53461,2.28048 -0.56928,0.23711 -1.28263,0.2367 -1.92459,0.40717 -1.0112,-1.39011 -2.12147,-2.62653 -3.07073,-4.09291 z"
       style="fill:#1a1a14;fill-opacity:1;stroke:#ffffff;stroke-width:2.73754311;stroke-linecap:butt;stroke-linejoin:miter;stroke-miterlimit:4;stroke-opacity:0;stroke-dasharray:none;stroke-dashoffset:0;marker:none;visibility:visible;display:inline;overflow:visible;enable-background:accumulate" />
    <path
       inkscape:connector-curvature="0"
       id="path12781"
       d="m 430.52325,460.74715 c 0.94926,1.46637 2.05934,2.70282 3.07073,4.09291 -1.75636,0.46661 -3.60824,0.89478 -5.25966,1.14389 -2.02754,0.30586 -4.54311,1.09991 -6.61002,1.87334 -0.86961,-1.07722 -1.49841,-1.70305 -2.43291,-2.96247 -0.34416,-0.46371 -0.43014,-0.71021 -0.76066,-1.17032 1.81825,-0.52225 3.68432,-0.92334 5.26517,-1.49521 2.09167,-0.75672 4.36126,-1.12084 6.72735,-1.48214 z"
       style="fill:#1a1a14;fill-opacity:1;stroke:#ffffff;stroke-width:2.73754311;stroke-linecap:butt;stroke-linejoin:miter;stroke-miterlimit:4;stroke-opacity:0;stroke-dasharray:none;stroke-dashoffset:0;marker:none;visibility:visible;display:inline;overflow:visible;enable-background:accumulate" />
    <path
       inkscape:connector-curvature="0"
       id="path12783"
       d="m 433.53159,458.92749 c 0.96323,-0.40123 1.53207,1.41681 2.2982,2.1252"
       style="fill:#1a1a14;fill-opacity:1;stroke:#ffffff;stroke-width:2.73754311;stroke-linecap:butt;stroke-linejoin:miter;stroke-miterlimit:4;stroke-opacity:0;stroke-dasharray:none;stroke-dashoffset:0;marker:none;visibility:visible;display:inline;overflow:visible;enable-background:accumulate" />
    <path
       inkscape:connector-curvature="0"
       id="path12785"
       d="m 388.59303,445.54291 c 0.17836,0.35673 0.89181,0.89182 0.53509,1.07018 -0.35673,0.17836 -0.53509,-1.46901 -0.53509,-1.07018 0,1.61635 2.03233,2.45941 2.67544,3.74561 0.19265,0.38531 0.77524,2.97038 1.33771,2.4079 1.70823,-1.70823 5.25065,-1.77259 6.68859,-3.21053 0.12108,-0.12107 2.67544,-0.86596 2.67544,-0.80263 0,0.0238 -1.18786,-1.18786 -1.33772,-1.33772 -0.8275,-0.8275 -2.07766,-2.07766 -2.94298,-2.94298 -0.40131,-0.40131 -0.9364,-0.66885 -1.33772,-1.07017 -0.0992,-0.0992 -7.07383,2.79956 -7.75876,3.21052 z"
       style="fill:#3e3e30;fill-opacity:1;stroke:#ffffff;stroke-width:1px;stroke-linecap:butt;stroke-linejoin:miter;stroke-opacity:0" />
    <path
       inkscape:connector-curvature="0"
       id="path12787"
       d="m 400.98025,450.34331 c 0.33323,0.29629 1.29598,0.55565 0.99969,0.88888 -0.29629,0.33324 -1.44406,-0.92597 -0.99969,-0.88888 0.76754,0.0641 2.21174,2.0288 2.4881,2.3555 0.4946,0.5847 2.20334,3.58754 2.68795,3.17761 0.87198,-0.73761 2.89775,-1.15861 4.44392,-1.77681 1.0671,-0.42666 2.79683,-0.38354 3.57729,-1.04374 0.12788,-0.10817 -0.8786,-0.74573 -0.99969,-0.88888 -0.85709,-1.01322 -0.81001,-2.4222 -1.84359,-3.64406 -0.27287,-0.32259 -0.61955,-0.93758 -0.97743,-1.1555 -0.4266,-0.25975 -8.13563,2.36549 -9.37655,2.97588 z"
       style="fill:#1a1a14;fill-opacity:1;stroke:#ffffff;stroke-width:1px;stroke-linecap:butt;stroke-linejoin:miter;stroke-opacity:0" />
    <path
       inkscape:connector-curvature="0"
       id="path12789"
       d="m 406.08872,448.90933 c 0.62832,-0.23772 1.25682,-0.47533 1.88514,-0.71299 1.7898,-0.67689 -1.59084,-4.29512 -2.51076,-4.62779 -2.25629,-0.81607 -5.03246,1.90797 -6.02756,3.167 -2.86294,3.62271 5.59828,2.74609 6.65318,2.17378 z"
       style="fill:#e93825;fill-opacity:1;fill-rule:evenodd;stroke:#ffffff;stroke-width:2.73754311;stroke-linecap:butt;stroke-linejoin:miter;stroke-miterlimit:4;stroke-opacity:0;stroke-dasharray:none;stroke-dashoffset:0;marker:none;visibility:visible;display:inline;overflow:visible;enable-background:accumulate" />
    <path
       inkscape:connector-curvature="0"
       id="path12791"
       d="m 459.49207,423.3368 c -0.13805,0.58364 -2.83249,1.1487 -5.35087,2.40789 -1.54682,0.77342 -12.307,4.10495 -12.307,4.2807 0,0.0964 4.8644,4.32931 5.35087,4.81579 0.12671,0.12671 2.50872,-1.17101 2.67543,-1.33772 0.91068,-0.91068 10.58596,-3.09474 11.77192,-4.2807 0.87182,-0.87182 2.93218,-0.79182 3.74561,-1.60526 0.3677,-0.3677 1.33772,-1.32264 1.33772,-0.80263 0,0.41981 -3.73882,-1.06339 -5.88596,-3.21052 -0.32155,-0.32155 -0.89656,-0.15726 -1.33772,-0.26755 z"
       style="fill:#3a6071;fill-opacity:1;stroke:none" />
    <path
       inkscape:connector-curvature="0"
       id="path12793"
       d="m 331.07117,466.14377 c 2.5412,-0.43237 5.46908,-1.66437 7.49122,-2.67543 1.15741,-0.57871 7.71444,-3.36646 8.56139,-2.94298 0.94886,0.47443 2.10713,2.10713 2.94298,2.94298 0.45362,0.45362 2.14034,1.11028 2.14034,1.60526 0,0.29558 -1.52145,0.35941 -1.8728,0.53509 -0.70175,0.35087 -2.20279,1.07017 -2.94298,1.07017 -0.37582,0 -10.13103,4.26289 -10.70174,4.54824 -0.43376,0.21688 -1.28321,-0.0545 -1.60526,0.26754 -0.28202,0.28202 -1.07017,0.93392 -1.07017,0.53509 0,-0.50565 -0.84954,-1.11708 -1.33772,-1.60526 -0.13404,-0.13404 -0.0921,-0.89478 -0.26755,-1.07018 -1.01194,-1.01194 -1.64962,-1.65097 -1.33771,-3.21052 z"
       style="fill:#3e3e30;fill-opacity:1;stroke:#ffffff;stroke-width:1px;stroke-linecap:butt;stroke-linejoin:miter;stroke-opacity:0" />
    <path
       sodipodi:nodetypes="ccccccccccccccccc"
       inkscape:connector-curvature="0"
       id="path12795"
       d="m 386.45268,469.62184 c -1.46169,-0.11728 -1.09822,-1.12673 0,0 -1.64589,-1.2446 -3.18774,-3.00314 -5.18962,-3.50713 1.43862,-1.25494 5.30078,-1.45411 7.47668,-2.71191 6.94461,-2.50557 10.59565,-3.6567 17.60735,-5.95665 2.668,-1.071 8.07387,-2.85617 10.7707,-3.81319 3.13124,-1.31852 6.21839,-3.02331 9.29067,-3.6988 2.33505,-1.17953 6.0867,-1.5872 8.54258,-2.51827 1.79441,-1.1403 3.93471,-1.63661 6.70004,-2.18214 2.30643,0.93586 3.6347,3.90877 6.10746,4.25101 1.99405,0.92469 -3.08949,1.80558 -4.06279,2.28312 -4.69783,1.3512 -9.53442,2.35655 -13.9198,4.60642 -2.7484,0.94226 -5.61628,1.5193 -8.25881,2.75855 -2.99694,0.90651 -6.0745,1.58348 -8.87251,3.03988 -3.19045,1.16905 -6.62833,1.63697 -9.63752,3.2993 -3.72709,1.30459 -7.6559,2.01795 -11.23429,3.7295 -1.70093,0.58315 -3.54927,0.7857 -5.32014,0.42031 z"
       style="fill:#3e3e30;fill-opacity:1;stroke:#ffffff;stroke-width:1px;stroke-linecap:butt;stroke-linejoin:miter;stroke-opacity:0" />
    <path
       inkscape:connector-curvature="0"
       id="path12797"
       d="m 341.77291,454.6394 c 0.84322,1.87217 1.11895,4.32947 2.40789,5.61842 0.079,0.079 3.65593,-1.42666 4.01315,-1.60527 0.78836,-0.39418 2.57787,0.0976 3.21053,-0.53508 0.22452,-0.22453 -1.45928,-2.26191 -1.60527,-2.4079 -1.7291,-1.72909 -0.86944,-4.24729 -3.47806,-2.94297 -1.25937,0.62968 -2.39854,1.06082 -3.21052,1.8728"
       style="fill:#1a1a14;fill-opacity:1;stroke:#ffffff;stroke-width:1px;stroke-linecap:butt;stroke-linejoin:miter;stroke-opacity:0" />
    <path
       inkscape:connector-curvature="0"
       id="path12799"
       d="m 440.87959,430.61945 c -1.02504,0.13175 -0.53484,-0.0523 -2.20942,0.58632 -1.35131,0.51523 -3.39746,0.82545 -4.17915,1.46541 -0.009,0.007 1.53482,1.57613 1.7043,1.78314 0.84145,1.02784 1.57198,2.8161 2.31717,3.72635 0.14283,0.17446 7.3411,-3.5152 7.29342,-3.037 -0.0121,0.12159 -1.3443,-1.13147 -1.49117,-1.22417 -1.34352,-0.84798 -2.08052,-1.97566 -3.43515,-3.30005 z"
       style="fill:#3e3e30;fill-opacity:1;stroke:#ffffff;stroke-width:1px;stroke-linecap:butt;stroke-linejoin:miter;stroke-opacity:0" />
    <path
       inkscape:connector-curvature="0"
       id="path12801"
       d="m 433.00526,440.72713 c -0.0742,0.36653 2.63622,3.70639 4.01316,5.08333 0.18373,0.18373 2.00586,-0.86916 2.40789,-1.07018 0.82883,-0.41441 2.13032,-0.25752 2.67543,-0.80263 0.26684,-0.26683 2.68532,-0.27742 3.21053,-0.80263 0.20646,-0.20647 -0.73663,-0.73662 -0.80263,-0.80263 -0.12966,-0.12966 -0.42316,-1.11384 -0.53509,-1.33772 -0.46085,-0.9217 -1.29084,-1.29083 -1.87281,-1.8728 -1.48821,-1.48822 -1.23278,-1.7915 -3.74561,-0.53509 -1.93064,0.96532 -3.24748,1.71967 -5.35087,2.14035 z"
       style="fill:#1a1a14;fill-opacity:1;stroke:#ffffff;stroke-width:1px;stroke-linecap:butt;stroke-linejoin:miter;stroke-opacity:0" />
    <path
       inkscape:connector-curvature="0"
       id="path12803"
       d="m 348.99658,468.01658 c 0.0847,0.81267 1.27611,0.94696 1.60526,1.60526 0.5504,1.1008 1.39854,3.0038 2.14035,3.74561 0.082,0.082 6.68859,-2.03465 6.68859,-2.14035 0,-0.73965 -1.803,-1.803 -2.14035,-2.14035 -0.99709,-0.99709 -1.3207,-2.65842 -2.40789,-3.74561 -0.17137,-0.17137 -4.02109,2.30246 -5.88596,2.67544 z"
       style="fill:#1a1a14;fill-opacity:1;stroke:#ffffff;stroke-width:1px;stroke-linecap:butt;stroke-linejoin:miter;stroke-opacity:0" />
    <path
       inkscape:connector-curvature="0"
       id="path12805"
       d="m 358.09306,464.80605 c -0.0293,0.93755 0.74529,1.22303 1.07018,1.87281 0.52194,1.04388 1.45182,3.32462 2.14034,4.01315 0.26688,0.26688 2.61009,-0.90372 2.94298,-1.07017 0.51362,-0.25681 3.21053,-0.9112 3.21053,-1.07018 0,-0.21611 -1.338,-1.33827 -1.60526,-1.8728 -2.02406,-4.04811 -3.44458,-5.32415 -7.75877,-1.87281 z"
       style="fill:#3e3e30;fill-opacity:1;stroke:#ffffff;stroke-width:1px;stroke-linecap:butt;stroke-linejoin:miter;stroke-opacity:0" />
    <path
       inkscape:connector-curvature="0"
       id="path12807"
       d="m 362.6413,455.97712 c 0.61864,-0.16321 1.42636,3.03161 2.67544,4.28069 0.41752,0.41753 3.0246,-1.18656 3.47806,-1.33771 0.86787,-0.28929 3.27426,-0.12746 3.74561,-1.07018 0.26356,-0.52711 -0.85148,-1.70297 -1.07017,-2.14035 -0.45247,-0.90493 -1.06007,-2.66533 -1.60526,-3.21052 -0.39947,-0.39947 -1.74517,0.60504 -2.14035,0.80263 -1.10774,0.55387 -3.53384,0.40415 -4.2807,1.33772 -0.32485,0.40606 -0.53508,0.89181 -0.80263,1.33772 z"
       style="fill:#3e3e30;fill-opacity:1;stroke:#ffffff;stroke-width:1px;stroke-linecap:butt;stroke-linejoin:miter;stroke-opacity:0" />
    <path
       inkscape:connector-curvature="0"
       id="path12809"
       d="m 355.68517,450.3587 c 0.0769,1.02648 0.87867,1.18423 1.33772,1.8728 0.65299,0.97948 1.03221,2.90502 1.60526,3.47807 0.20412,0.20412 6.42105,-1.86447 6.42105,-1.8728 0,-0.0802 -3.12096,-5.84118 -3.21053,-5.88596 -0.3774,-0.1887 -0.54928,0.40841 -0.80263,0.53508 -1.52573,0.76287 -3.79932,1.5625 -5.35087,1.87281 z"
       style="fill:#1a1a14;fill-opacity:1;stroke:#ffffff;stroke-width:1px;stroke-linecap:butt;stroke-linejoin:miter;stroke-opacity:0" />
    <path
       inkscape:connector-curvature="0"
       id="path12811"
       d="m 346.58869,445.58882 c 1.99229,3.93456 -1.39684,-3.59631 1.33772,1.8728 1.65503,3.31008 1.53966,4.04595 5.35087,2.14035 0.47418,-0.23709 1.79614,-0.19088 2.14035,-0.53509 0.24344,-0.24344 -1.18657,-2.10559 -1.33772,-2.40789 -0.35912,-0.71823 -0.53316,-2.40596 -1.07018,-2.94298 -1.04132,-1.04132 -5.49782,1.50352 -6.42104,1.87281 z"
       style="fill:#3e3e30;fill-opacity:1;stroke:#ffffff;stroke-width:1px;stroke-linecap:butt;stroke-linejoin:miter;stroke-opacity:0" />
    <path
       inkscape:connector-curvature="0"
       id="path12813"
       d="m 369.91088,438.44351 c 0.0221,0.99486 0.42625,1.22888 0.80263,1.60526 0.6168,0.6168 0.0977,2.50556 0.80263,3.21052 0.63221,0.63221 3.12161,-0.86217 3.74561,-1.07017 0.44378,-0.14793 2.94298,-0.4827 2.94298,-0.80264 0,-0.87951 -1.83611,-5.61841 -2.14035,-5.61841 -0.92409,0 -4.62334,2.06337 -6.1535,2.67544 z"
       style="fill:#1a1a14;fill-opacity:1;stroke:#ffffff;stroke-width:1px;stroke-linecap:butt;stroke-linejoin:miter;stroke-opacity:0" />
    <path
       inkscape:connector-curvature="0"
       id="path12815"
       d="m 379.79655,435.07626 c 0.91777,0.86516 2.28689,5.41137 2.94298,5.08332 1.6521,-0.82604 3.63857,-1.28419 5.35087,-2.14034 0.23976,-0.11988 2.67544,-0.86192 2.67544,-0.80264 0,0.15516 -0.95395,-1.2796 -1.07017,-1.33771 -0.99546,-0.49773 -2.26602,-2.26602 -2.94298,-2.94298 -0.82059,-0.82059 -5.35542,2.14035 -6.95614,2.14035 z"
       style="fill:#1a1a14;fill-opacity:1;stroke:#ffffff;stroke-width:1px;stroke-linecap:butt;stroke-linejoin:miter;stroke-opacity:0" />
    <path
       inkscape:connector-curvature="0"
       id="path12817"
       d="m 432.15673,416.17247 c -0.005,1.06988 1.56493,0.98951 1.8728,1.60527 1.87127,3.74253 5.45945,0.23135 8.5614,-0.80264 1.2961,-0.43203 2.41025,-1.07135 3.47806,-1.60526 0.53509,-0.26754 2.20351,-0.80263 1.60527,-0.80263 -1.59573,0 -3.83423,-1.69387 -4.81579,-2.67543 -0.0105,-0.0105 -9.26774,3.70709 -10.70174,4.28069 z"
       style="fill:#3e3e30;fill-opacity:1;stroke:#ffffff;stroke-width:1px;stroke-linecap:butt;stroke-linejoin:miter;stroke-opacity:0" />
    <path
       inkscape:connector-curvature="0"
       id="path12819"
       d="m 431.93509,426.27978 c 1.50227,1.28386 1.7482,4.74432 6.42104,2.40789 0.67094,-0.33547 2.72743,-0.58708 3.21052,-1.07017 0.28202,-0.28202 1.07018,-0.93392 1.07018,-0.53509 0,0.57104 -0.8148,-0.82696 -1.07018,-1.33772 -0.62857,-1.25713 -1.3069,-2.10953 -2.14034,-2.94298 -0.53987,-0.53986 -6.71821,2.85966 -7.49122,3.47807 z"
       style="fill:#1a1a14;fill-opacity:1;stroke:#ffffff;stroke-width:1px;stroke-linecap:butt;stroke-linejoin:miter;stroke-opacity:0" />
    <path
       inkscape:connector-curvature="0"
       id="path12821"
       d="m 421.23334,429.75785 c 1.29504,0.81483 1.70916,4.11705 2.4079,4.81578 0.46224,0.46225 1.95181,-0.88164 2.14034,-1.07017 1.25917,-1.25917 4.13933,-0.9288 5.08333,-1.87281 0.10058,-0.10058 -2.90946,-5.38439 -3.74561,-4.54824 -1.35166,1.35167 -4.01276,1.92616 -5.88596,2.67544 z"
       style="fill:#1a1a14;fill-opacity:1;stroke:#ffffff;stroke-width:1px;stroke-linecap:butt;stroke-linejoin:miter;stroke-opacity:0" />
    <path
       inkscape:connector-curvature="0"
       id="path12823"
       d="m 409.19388,433.50346 c 0,0.35672 0.35673,1.07017 0,1.07017 -0.35672,0 -0.25224,-1.32242 0,-1.07017 0.53879,0.53879 0.46187,1.45882 0.80263,2.14035 0.39311,0.78621 0.80112,3.61108 1.60526,4.01315 0.31285,0.15642 6.7018,-3.50448 6.95614,-4.01315 0.36532,-0.73065 -1.34583,-1.62149 -1.60526,-2.14035 -0.48226,-0.96451 -1.10328,-2.44099 -1.60527,-2.94298 -0.25769,-0.25769 -5.65231,2.64227 -6.1535,2.94298 z"
       style="fill:#1a1a14;fill-opacity:1;stroke:#ffffff;stroke-width:1px;stroke-linecap:butt;stroke-linejoin:miter;stroke-opacity:0" />
    <path
       id="path12825"
       d="m 405.22696,426.10895 c -0.33715,0.0219 -1.05249,0.76062 -1.21875,0.84375 -1.58009,0.79004 -3.51727,0.86316 -5.34375,1.59375 0.20253,0.16761 0.34034,0.35077 0.46875,0.5625 0.0653,-0.0885 0.0942,-0.15579 0.0312,-0.21875 -0.19294,-0.19294 0.76213,1.33675 0.9375,1.6875 0.52427,1.04854 1.94693,1.93887 2.21875,2.90625 0.59917,-0.29532 1.18141,-0.5813 1.40625,-0.65625 0.78436,-0.26145 4.17765,-0.57406 4.5625,-1.34375 0.42522,-0.85045 -1.2284,-2.9568 -1.625,-3.75 -0.28234,-0.56469 -0.87226,-1.1535 -1.3125,-1.59375 -0.03,-0.03 -0.0768,-0.0344 -0.125,-0.0312 z"
       style="fill:#3e3e30;fill-opacity:1;stroke:#ffffff;stroke-width:1px;stroke-linecap:butt;stroke-linejoin:miter;stroke-opacity:0"
       inkscape:connector-curvature="0" />
    <path
       inkscape:connector-curvature="0"
       id="path12827"
       d="m 378.96146,456.77975 c 0.96131,1.4397 1.36373,5.10934 2.40789,6.1535 0.47286,0.47286 3.75225,-0.93806 4.2807,-1.07017 1.43,-0.35751 3.49341,-0.28289 4.54824,-1.33772 0.11614,-0.11614 -2.18985,-4.86529 -2.67544,-5.35087 -0.89423,-0.89424 -0.79693,-1.86711 -1.60526,-2.67544 -0.14446,-0.14446 -0.97873,0.89068 -1.33772,1.07017 -1.91371,0.95686 -3.77685,1.73728 -5.61841,3.21053 z"
       style="fill:#1a1a14;fill-opacity:1;stroke:#ffffff;stroke-width:1px;stroke-linecap:butt;stroke-linejoin:miter;stroke-opacity:0" />
    <path
       inkscape:connector-curvature="0"
       id="path12829"
       d="m 415.88247,445.27537 c 1.83151,6.48735 0.94304,5.57162 6.42105,3.74561 0.55127,-0.18375 3.0872,-0.14421 3.47806,-0.53508 0.2386,-0.23859 -1.3709,-2.20672 -1.60526,-2.67544 -0.13918,-0.27836 -1.31738,-2.67543 -1.33772,-2.67543 -1.00503,0 -5.03271,1.75566 -6.95613,2.14034 z"
       style="fill:#1a1a14;fill-opacity:1;stroke:#ffffff;stroke-width:1px;stroke-linecap:butt;stroke-linejoin:miter;stroke-opacity:0" />
    <path
       inkscape:connector-curvature="0"
       id="path12831"
       d="m 450.39559,442.86748 c -0.45791,1.81918 2.0887,1.01853 4.01316,2.94298 0.35672,0.35673 0.4459,0.98099 0.80263,1.33772 0.012,0.012 3.88598,-1.00659 5.08332,-1.60526 0.87703,-0.43852 3.07727,-0.13429 3.74561,-0.80263 0.31214,-0.31214 1.02559,-0.22296 1.33772,-0.53509 0.0892,-0.0892 0.26754,-0.39366 0.26754,-0.26754 0,1.05689 -5.48557,-2.2077 -5.88595,-2.4079 -3.97572,-1.98785 -5.4992,-1.75414 -9.36403,1.33772 z"
       style="fill:#1a1a14;fill-opacity:1;stroke:#ffffff;stroke-width:1px;stroke-linecap:butt;stroke-linejoin:miter;stroke-opacity:0" />
    <path
       inkscape:connector-curvature="0"
       id="path12833"
       d="m 471.90989,434.35199 c -1.95796,1.28285 -3.68987,1.28198 -4.81578,2.40789 -0.26536,0.26536 1.00417,0.46908 1.07017,0.53509 0.0733,0.0733 0.52395,2.15149 1.33772,1.33772 0.7444,-0.7444 2.60778,-1.53761 3.47807,-2.4079 0.31213,-0.31213 1.29312,0.0446 1.60526,-0.26754 0.48283,-0.48283 -2.33861,-1.5379 -2.67544,-1.60526 z"
       style="fill:#3e3e30;fill-opacity:1;stroke:#ffffff;stroke-width:1px;stroke-linecap:butt;stroke-linejoin:miter;stroke-opacity:0" />
    <path
       inkscape:connector-curvature="0"
       id="path12835"
       d="m 445.84735,436.71398 c 1.098,-0.23304 1.20165,1.20165 3.21052,3.21052 0.22737,0.22737 0.48109,0.53509 0.80263,0.53509 1.80214,0 16.98342,-6.54921 17.92542,-7.49122 0.28407,-0.28407 3.74561,-0.84766 3.74561,-1.07017 0,-1.43679 -4.84764,-4.24885 -5.61841,-3.47807 -1.36031,1.36031 -10.27443,3.93327 -13.10964,5.35087 -0.83084,0.41542 -2.8331,0.15767 -3.47806,0.80263 -0.7312,0.7312 -2.20754,1.37803 -3.47807,2.14035 z"
       style="fill:#3e3e30;fill-opacity:1;stroke:#ffffff;stroke-width:1px;stroke-linecap:butt;stroke-linejoin:miter;stroke-opacity:0" />
    <path
       inkscape:connector-curvature="0"
       id="path12837"
       d="m 341.65899,480.71243 c 1.76659,-0.0512 5.48187,-3.02691 6.05382,-3.02691 0.76843,0 2.64854,4.68441 2.64854,4.72954 0,0.12918 -1.82337,0.8171 -2.081,0.94591 -0.3412,0.1706 -3.32615,1.32428 -3.40527,1.32428 -0.91898,0 -2.92712,-3.2504 -3.21609,-3.97282 z"
       style="fill:#1a1a14;fill-opacity:1;stroke:#ffffff;stroke-width:1px;stroke-linecap:butt;stroke-linejoin:miter;stroke-opacity:0" />
    <path
       inkscape:connector-curvature="0"
       id="path12839"
       d="m 360.57717,479.57734 c -1.41551,-2.519 0.95639,2.29114 -0.94591,-1.51346 -0.28671,-0.57342 -2.30979,-2.94769 -2.27018,-3.02691 0.32445,-0.6489 6.27851,-3.19834 6.99973,-2.83773 0.54029,0.27015 0.57694,1.14449 0.94591,1.51346 0.92911,0.92911 2.3109,2.60783 1.51345,3.40527 -0.29172,0.29172 -1.51207,0.18849 -1.89181,0.37837 -1.61026,0.80512 -2.70286,1.42167 -4.35119,2.081 z"
       style="fill:#3e3e30;fill-opacity:1;stroke:#ffffff;stroke-width:1px;stroke-linecap:butt;stroke-linejoin:miter;stroke-opacity:0" />
    <path
       inkscape:connector-curvature="0"
       id="path12841"
       d="m 366.82017,471.44252 c 1.8685,0.92559 2.16696,3.86959 3.02691,4.72954 0.0409,0.0409 0.69702,0.0299 0.75673,0 1.26708,-0.63353 5.46842,-1.68477 6.05382,-2.27018 0.34684,-0.34683 1.16662,-0.22071 1.51346,-0.56755 0.19941,-0.19941 0.75672,-0.66038 0.75672,-0.37836 0,0.38566 -1.23401,-1.0943 -1.89181,-2.081 -0.71749,-1.07623 -2.38405,-1.93036 -2.83773,-2.83773 -0.0329,-0.0658 -0.29964,-0.64627 -0.56755,-0.37836 -1.39957,1.39957 -4.91251,2.64482 -6.81055,3.78364 z"
       style="fill:#1a1a14;fill-opacity:1;stroke:#ffffff;stroke-width:1px;stroke-linecap:butt;stroke-linejoin:miter;stroke-opacity:0" />
    <path
       inkscape:connector-curvature="0"
       id="path12843"
       d="m 482.22111,435.68714 c -0.35213,0.36627 -0.6947,-0.1256 -2.081,0.56755 -1.37878,0.68939 -3.12897,0.66961 -4.162,1.70263 -0.0245,0.0245 1.86863,2.05782 2.081,2.27019 0.0721,0.0721 0.15578,0.48966 0.37837,0.37836 1.93263,-0.96632 7.65719,-1.22501 8.51318,-2.081 0.28206,-0.28206 -3.13475,-2.37802 -3.59445,-2.83773 -0.26755,-0.26754 -0.75673,0 -1.1351,0 z"
       style="fill:#3e3e30;fill-opacity:1;stroke:#ffffff;stroke-width:1px;stroke-linecap:butt;stroke-linejoin:miter;stroke-opacity:0" />
    <path
       inkscape:connector-curvature="0"
       id="path12845"
       d="m 464.05966,441.55178 c 3.79911,1.08969 1.55674,4.51872 6.05381,2.27018 0.31228,-0.15613 0.8174,-0.0303 1.1351,-0.18918 0.58807,-0.29404 1.37861,-0.94591 1.89181,-0.94591 0.67214,0 1.51346,-0.67514 1.51346,-0.56754 0,0.0938 -1.01473,-0.44718 -1.13509,-0.56755 -0.769,-0.769 -1.69652,-1.41581 -2.64855,-1.89182 -1.05989,-0.52994 -5.63365,1.65644 -6.81054,1.89182 z"
       style="fill:#1a1a14;fill-opacity:1;stroke:#ffffff;stroke-width:1px;stroke-linecap:butt;stroke-linejoin:miter;stroke-opacity:0" />
    <path
       inkscape:connector-curvature="0"
       id="path12847"
       d="m 321.03817,454.60533 c 0.18918,0.25224 0.81979,0.56754 0.56754,0.75673 -0.25224,0.18918 -0.7905,-0.97968 -0.56754,-0.75673 0.7402,0.7402 1.67139,1.82933 2.081,2.64855 0.28653,0.57305 1.49836,3.31823 1.70263,3.21609 1.45451,-0.72726 3.11282,-0.98887 4.54037,-1.70264 0.8223,-0.41115 1.70264,-0.9883 1.70264,-0.94591 0,0.0522 -0.7818,-0.7818 -0.94591,-0.94591 -0.78591,-0.78591 -1.96083,-1.58246 -2.64855,-2.27018 -0.61369,-0.61369 -1.02241,-1.21159 -1.51345,-1.70264 -0.17011,-0.1701 -4.30404,1.33382 -4.91873,1.70264 z"
       style="fill:#1a1a14;fill-opacity:1;stroke:#ffffff;stroke-width:1px;stroke-linecap:butt;stroke-linejoin:miter;stroke-opacity:0" />
    <path
       inkscape:connector-curvature="0"
       id="path12849"
       d="m 334.2809,449.87578 c 0.25224,0.18918 0.94591,0.31531 0.75673,0.56755 -0.18919,0.25224 -0.97969,-0.7905 -0.75673,-0.56755 1.09485,1.09485 2.07032,2.63787 2.83773,3.40528 0.27384,0.27384 0.25667,1.20258 0.56754,1.51345 0.0312,0.0312 2.59887,-0.54271 3.40527,-0.94591 0.57588,-0.28794 1.81988,-0.30642 2.27019,-0.75673 0.19941,-0.19941 0.75672,-0.66038 0.75672,-0.37836 0,0.24394 -0.53104,-0.8729 -0.9459,-1.70264 -0.49301,-0.98602 -1.26564,-2.02236 -1.89182,-2.64854 -0.18919,-0.18918 0,-0.75673 -0.18919,-0.94591 -0.13555,-0.13555 -4.58598,2.45936 -6.81054,2.45936 z"
       style="fill:#3e3e30;fill-opacity:1;stroke:#ffffff;stroke-width:1px;stroke-linecap:butt;stroke-linejoin:miter;stroke-opacity:0" />
    <path
       inkscape:connector-curvature="0"
       id="path12851"
       d="m 414.30482,423.5795 c 0.0784,0.0246 1.28686,4.12458 2.45937,5.29709 0.12173,0.12174 5.67545,-2.60637 5.67545,-2.45936 0,0.28202 -0.17894,-0.55731 -0.37836,-0.75673 -0.58024,-0.58024 -1.41246,-1.68982 -1.89182,-2.64854 -0.12669,-0.25338 -0.45132,-0.26214 -0.56754,-0.37837 -0.39242,-0.39241 -0.40239,-1.15911 -0.75673,-1.51345 -0.16234,-0.16234 -1.29638,0.53965 -1.32427,0.56754 -0.62231,0.62231 -2.19419,0.30237 -2.83773,0.94591"
       style="fill:#1a1a14;fill-opacity:1;stroke:#ffffff;stroke-width:1px;stroke-linecap:butt;stroke-linejoin:miter;stroke-opacity:0" />
    <path
       inkscape:connector-curvature="0"
       id="path12853"
       d="m 421.30455,420.93096 c 0.10354,0.76162 1.20112,1.07796 1.51346,1.70263 0.23028,0.46056 0.67715,1.05552 0.94591,1.32428 0.39133,0.39133 0.0448,1.25206 0.56754,1.51345 0.60612,0.30306 2.91266,-1.55092 3.59446,-1.89182 0.95127,-0.47563 2.11014,-0.59669 2.64854,-1.13509 0.0892,-0.0892 0.37837,0.12612 0.37837,0 0,-0.378 -0.45483,-0.0765 -0.56755,-0.18918 -0.32331,-0.32331 -0.83081,-0.90489 -1.13509,-1.51346 -0.6736,-1.34719 -1.15658,-2.29166 -1.89182,-3.02691 -0.12654,-0.12654 -5.62154,2.95673 -6.05382,3.2161 z"
       style="fill:#3e3e30;fill-opacity:1;stroke:#e3b855;stroke-width:1px;stroke-linecap:butt;stroke-linejoin:miter;stroke-opacity:0.00013679" />
  </g>
</svg>
