<?xml version="1.0" encoding="UTF-8" standalone="no"?>
<!-- Created with Inkscape (http://www.inkscape.org/) -->

<svg
   xmlns:dc="http://purl.org/dc/elements/1.1/"
   xmlns:cc="http://creativecommons.org/ns#"
   xmlns:rdf="http://www.w3.org/1999/02/22-rdf-syntax-ns#"
   xmlns:svg="http://www.w3.org/2000/svg"
   xmlns="http://www.w3.org/2000/svg"
   xmlns:sodipodi="http://sodipodi.sourceforge.net/DTD/sodipodi-0.dtd"
   xmlns:inkscape="http://www.inkscape.org/namespaces/inkscape"
   width="1052.3622"
   height="744.09448"
   id="svg3573"
   version="1.1"
   inkscape:version="0.48.3.1 r9886"
   sodipodi:docname="through.svg"
   inkscape:export-filename="/home/substack/projects/talks/lxjs_2012/images/through.png"
   inkscape:export-xdpi="100"
   inkscape:export-ydpi="100">
  <defs
     id="defs3575" />
  <sodipodi:namedview
     id="base"
     pagecolor="#ffffff"
     bordercolor="#666666"
     borderopacity="1.0"
     inkscape:pageopacity="0.0"
     inkscape:pageshadow="2"
     inkscape:zoom="0.35355339"
     inkscape:cx="472.03714"
     inkscape:cy="279.65902"
     inkscape:document-units="px"
     inkscape:current-layer="layer1"
     showgrid="false"
     inkscape:window-width="1364"
     inkscape:window-height="766"
     inkscape:window-x="0"
     inkscape:window-y="0"
     inkscape:window-maximized="0" />
  <metadata
     id="metadata3578">
    <rdf:RDF>
      <cc:Work
         rdf:about="">
        <dc:format>image/svg+xml</dc:format>
        <dc:type
           rdf:resource="http://purl.org/dc/dcmitype/StillImage" />
        <dc:title></dc:title>
      </cc:Work>
    </rdf:RDF>
  </metadata>
  <g
     inkscape:label="Layer 1"
     inkscape:groupmode="layer"
     id="layer1"
     transform="translate(0,-308.2677)">
    <path
       style="fill:#916f6f;stroke:#ffffff;stroke-width:1px;stroke-linecap:butt;stroke-linejoin:miter;stroke-opacity:0;fill-opacity:1"
       d="m 729,513.09448 c -6.75323,-3.37661 16.46925,-39.53075 16,-40 -6.30962,-6.30962 -33.65651,2.34349 -38,-2 -5.20679,-5.20678 24.27134,-22.45731 19,-33 -2.65551,-5.31101 -26.83508,-1 -34,-1 -6.92512,0 13,-40.54948 13,-43 0,-6.33132 -40.0062,6.9938 -41,6 -4.29199,-4.29199 11.52667,-36.47333 8,-40 -3.63656,-3.63656 -43.42916,8.57085 -46,6 -3.95681,-3.95681 4.84752,-29.15248 1,-33 -3.15701,-3.15701 -35.57615,17.42385 -37,16 -7.45632,-7.45632 -4.76684,-25.76684 -10,-31 -3.03892,-3.03892 -23.39284,12.78568 -25,16 -0.62968,1.25937 -3.87631,2.43816 -5,3 -10.22941,5.11471 -9.38934,-9.38934 -16,-16 -0.33333,-0.33333 -0.66667,-1.33333 -1,-1 -4.91593,4.91594 -14.20575,10.80863 -19,18 -2.41425,3.62138 -3.37768,10.37768 -6,13 -4.82734,4.82734 -24.42663,-10.57337 -31,-4 -1.75542,1.75542 -0.53484,40.53484 -2,42 -1.23978,1.23978 -26.48612,-9.51388 -30,-6 -0.25373,0.25373 1.75329,3.75329 2,4 1.34334,1.34334 0.98157,8.96314 2,11 3.76058,7.52116 8.31005,14.6201 12,22 0.24444,0.48889 1.93863,2.06138 1,3 -2.20084,2.20084 -29.04257,-3.47871 -36,0 -4.4627,2.23135 21.0612,35.9388 19,38 -2.56336,2.56337 -12.38872,-0.20376 -16,1 -5.03583,1.67861 -18.44642,-1.55358 -22,2 -2.55596,2.55596 6.70716,17.41431 9,22 8.44093,16.88185 -5.42777,-9.46083 3,5 2.86515,3.56877 7.84572,5.84572 11,9 8.00017,8.00018 14.49768,16.49768 21,23 2.68631,2.68631 6.49488,3.49488 9,6 5.42704,5.42704 13.17491,12.17491 17,16 3.86976,3.86976 2.95243,9.95243 6,13 2.34329,2.3433 13.78512,29.21488 16,27 8.2648,-8.2648 10.38801,-29.38801 18,-37 1.91508,-1.91508 23.72382,12.27618 24,12 4.11673,-4.11673 -5.67694,-34.32306 2,-42 1.05794,-1.05793 19.29635,23.29635 21,25 1.90183,1.90183 4,-6.40823 4,-7 0,-4.5497 12.34797,-17.65203 15,-15 5.68554,5.68554 0.75649,25.75649 6,31 1.42121,1.42121 28.38606,-24.22787 31,-19 2.90316,5.80631 4.11859,26.11859 7,29 1.84472,1.84473 27.88638,-23.11361 30,-21 4.7259,4.72591 1.93096,29.93096 7,35 3.9139,3.91391 24.49756,-17.62317 29,-21 5.49519,-4.12139 11.519,-6.7595 16,-9"
       id="path4737"
       inkscape:connector-curvature="0"
       transform="translate(0,308.2677)" />
    <path
       style="fill:none;stroke:#483737;stroke-width:4;stroke-linecap:round;stroke-linejoin:round;stroke-opacity:1;stroke-miterlimit:4;stroke-dasharray:none"
       d="m 707,470.09448 c -17.88289,18.79857 -39.07144,35.07144 -54,50 -5.0462,5.0462 -13.73425,8.4685 -17,15"
       id="path4796"
       inkscape:connector-curvature="0"
       transform="translate(0,308.2677)" />
    <path
       style="fill:none;stroke:#483737;stroke-width:4;stroke-linecap:round;stroke-linejoin:round;stroke-opacity:1;stroke-miterlimit:4;stroke-dasharray:none"
       d="m 620,533.09448 c 7.1098,-12.08152 16.20869,-22.31303 24,-34 5.7604,-8.6406 8.13268,-19.19902 14,-28 9.6778,-14.51669 22.76254,-30.38127 32,-35"
       id="path4794"
       inkscape:connector-curvature="0"
       transform="translate(0,308.2677)" />
    <path
       style="fill:none;stroke:#483737;stroke-width:4;stroke-linecap:round;stroke-linejoin:round;stroke-opacity:1;stroke-miterlimit:4;stroke-dasharray:none"
       d="m 664,396.09448 c -3.95221,9.88382 -7.36032,18.44129 -10,29 -2.25246,9.00983 -8.19501,17.58502 -11,26 -3.79801,11.39404 -6.40314,35.40315 -14,43 -0.76422,0.76422 -0.43845,4.8769 -1,6 -4.80918,9.61836 -12,23.6955 -12,33"
       id="path4792"
       inkscape:connector-curvature="0"
       transform="translate(0,308.2677)" />
    <path
       style="fill:none;stroke:#483737;stroke-width:4;stroke-linecap:round;stroke-linejoin:round;stroke-opacity:1;stroke-miterlimit:4;stroke-dasharray:none"
       d="m 586,473.09448 c 2.32764,-26.02375 19.46948,-50.93896 30,-72 2.66291,-5.32582 2.11472,-12.22944 5,-18 2.44338,-4.88676 8,-11.30125 8,-16"
       id="path4790"
       inkscape:connector-curvature="0"
       transform="translate(0,308.2677)" />
    <path
       style="fill:none;stroke:#483737;stroke-width:4;stroke-linecap:round;stroke-linejoin:round;stroke-miterlimit:4;stroke-opacity:1;stroke-dasharray:none"
       d="m 575,454.09448 c 2.31348,-27.13309 1.52426,-33.87409 10,-49 2.96061,-5.92121 -1.97252,-16.05497 1,-22 2.79101,-5.58203 5,-28.65477 5,-32"
       id="path4788"
       inkscape:connector-curvature="0"
       transform="translate(0,308.2677)"
       sodipodi:nodetypes="ccsc" />
    <path
       style="fill:none;stroke:#483737;stroke-width:4;stroke-linecap:round;stroke-linejoin:round;stroke-opacity:1;stroke-miterlimit:4;stroke-dasharray:none"
       d="m 550,340.09448 c 9.2049,16.28657 13.22431,35.67292 19,53 3.5902,10.7706 -0.0525,24.89495 5,35 2.99354,5.98708 -0.83732,32.32535 2,38 1.30465,2.60931 2.48958,44.02084 1,47 -2.74911,5.49822 -4,12.58569 -4,20"
       id="path4786"
       inkscape:connector-curvature="0"
       transform="translate(0,308.2677)" />
    <path
       style="fill:none;stroke:#483737;stroke-width:4;stroke-linecap:round;stroke-linejoin:round;stroke-opacity:1;stroke-miterlimit:4;stroke-dasharray:none"
       d="m 512,352.09448 c 11.7696,19.3535 13.46856,43.87424 19,66 1.9473,7.7892 0.4646,16.92919 4,24 2.47107,4.94213 -0.53144,14.46856 3,18 1.80042,1.80042 -0.58206,22.41794 3,26 1.94485,1.94485 -0.16945,18.66109 2,23"
       id="path4784"
       inkscape:connector-curvature="0"
       transform="translate(0,308.2677)" />
    <path
       style="fill:none;stroke:#483737;stroke-width:4;stroke-linecap:round;stroke-linejoin:round;stroke-miterlimit:4;stroke-opacity:1;stroke-dasharray:none"
       d="m 477,389.09448 c 4.10415,1.21504 15.62119,19.24238 23,34 5.79474,11.58948 5.82535,21.82535 14,30 2.59418,2.59418 -9.40976,7.18047 -8,10"
       id="path4769"
       inkscape:connector-curvature="0"
       transform="translate(0,308.2677)"
       sodipodi:nodetypes="cssc" />
    <path
       style="fill:none;stroke:#483737;stroke-width:4;stroke-linecap:round;stroke-linejoin:round;stroke-opacity:1;stroke-miterlimit:4;stroke-dasharray:none"
       d="m 544,518.09448 c -0.54726,-3.53896 -18.81541,-29.63082 -26,-44 -3.69202,-7.38405 -5.866,-16.866 -11,-22 -3.89267,-3.89267 -8.23364,-4.61682 -13,-7 -3.03074,-1.51537 -4.27329,-4.27329 -6,-6 -3.16354,-3.16354 -9.03288,-4.03288 -12,-7 -4.32861,-4.32861 -8.64295,-7.64295 -12,-11"
       id="path4741"
       inkscape:connector-curvature="0"
       transform="translate(0,308.2677)" />
    <path
       style="fill:none;stroke:#483737;stroke-width:4;stroke-linecap:round;stroke-linejoin:round;stroke-opacity:1;stroke-miterlimit:4;stroke-dasharray:none"
       d="m 445,460.09448 c 6.52445,8.93396 30.86744,29.86744 45,44 1.78046,1.78046 1.60948,4.60948 3,6 3.62516,3.62517 8.28948,8.57896 10,12 3.20377,6.40755 6.2532,17.2532 10,21 1.15971,1.15971 4.04477,9.04477 2,7"
       id="path4739"
       inkscape:connector-curvature="0"
       transform="translate(0,308.2677)" />
    <path
       style="fill:#ff00ff;stroke:#ffffff;stroke-width:0.86171532px;stroke-linecap:butt;stroke-linejoin:miter;stroke-opacity:0"
       d="m 384.6606,416.35194 c -2.29697,14.04673 -1.54006,99.40373 3.69306,104.63685 1.78583,1.78584 5.67086,2.21993 8.61715,3.69307 2.72753,1.36376 10.05545,-0.20727 11.0792,-1.23102 1.65652,-1.65652 7.14521,-2.22113 8.61715,-3.69307 2.28529,-2.28527 -8.61715,-55.08461 -8.61715,-64.01313 0,-1.96029 -1.24757,-11.06265 0,-12.31022 27.28948,-27.28948 37.83595,11.40493 54.16496,-4.92409 2.36599,-2.36598 12.40179,-15.91171 7.38614,-20.92737 -18.71361,-18.7136 -42.98709,-18.56401 -62.78212,1.23103 -1.08006,1.08005 -14.11615,-18.54654 -22.15839,-2.46205 z"
       id="path3583"
       inkscape:connector-curvature="0" />
    <path
       style="fill:#ff00ff;stroke:#ffffff;stroke-width:0.86171532px;stroke-linecap:butt;stroke-linejoin:miter;stroke-opacity:0"
       d="m 196.644,384.2008 c -3.86578,-0.14577 -8.17565,0.42047 -10.23812,0.77564 -3.26992,8.95407 -2.69478,18.55402 -2.16933,28.00276 -3.10779,0.59094 -6.29281,0.98887 -9.85617,0.72312 -0.13935,-0.0892 -11.03722,-0.82014 -11.4035,4.09116 -0.24776,3.32208 -3.98036,10.05542 -1.00738,13.50757 2.56677,2.98048 7.85264,4.67271 11.81567,7.03798 1.29487,0.77281 5.12518,1.23943 10.31358,1.47126 -0.0452,7.14111 -0.13056,14.17765 -2.13326,21.3626 -2.76941,9.93556 -0.87845,21.98429 1.38987,30.96853 2.74532,10.87346 2.43762,22.84767 8.84,30.28199 2.80671,3.25907 7.61423,1.34681 10.87961,3.2957 4.20037,2.50692 10.66677,2.01067 15.86117,2.39806 24.06773,1.79494 36.65686,-11.40221 38.44632,-35.39653 0.14373,-1.92726 0.74247,-11.13064 -0.32004,-12.36442 -10.95107,-12.71613 -30.87377,22.83017 -47.19419,3.87925 -4.08654,-4.74518 -5.41307,-10.33413 -4.68557,-20.08892 0.43358,-5.8137 1.24169,-14.67836 1.90097,-24.40431 19.29528,-0.67906 40.07335,-2.57163 42.21135,-4.41288 2.50654,-2.15861 17.41668,-6.44626 9.78292,-15.31042 -3.42604,-3.97824 -11.3149,-5.13928 -16.72995,-7.40446 -5.95007,-2.48899 -12.98573,-2.21062 -19.53817,-2.6993 -5.16301,-0.38505 -9.9235,0.45024 -14.72393,0.81916 -0.18215,-11.35866 -1.35479,-20.83166 -4.49339,-24.47614 -1.20381,-1.39784 -3.94174,-1.94402 -6.94846,-2.0574 z"
       id="path3589"
       inkscape:connector-curvature="0" />
    <path
       style="fill:#ff00ff;stroke:#ffffff;stroke-width:0.86171532px;stroke-linecap:butt;stroke-linejoin:miter;stroke-opacity:0"
       d="m 541,399.54895 c -2.75553,0.0524 -5.8228,0.5 -7.9375,0.5 -26.00889,0 -40.34384,10.73969 -55.375,30.78125 -5.0608,6.74774 -8.67643,23.18947 -6.15625,30.75 0.98482,2.95445 -0.98482,6.88929 0,9.84375 3.48373,10.4512 5.21091,21.78897 8.625,32.03125 7.34815,22.04444 58.37318,38.43673 75.09375,22.15625 7.23221,-7.04186 12.19537,-11.22563 14.21875,-16.3125 0.004,-0.009 -0.004,-0.022 0,-0.0312 C 572.51812,504.66979 575,497.79279 575,491.36145 c 0,-14.67606 5.50695,-42.92752 -1.78125,-53.5 -0.95073,-5.04136 -2.93017,-10.27986 -5.5625,-15.21875 -0.14101,-0.50018 -0.33566,-0.96066 -0.65625,-1.28125 -0.0214,-0.0214 -0.0411,-0.0414 -0.0625,-0.0625 -5.70897,-10.13939 -14.05253,-18.75709 -21.53125,-21.25 -1.20646,-0.40215 -2.75292,-0.53142 -4.40625,-0.5 z m -9.40625,23 c 2.91258,0.0613 5.48871,0.89496 7.40625,2.8125 0.96138,0.96138 4.71651,-0.28349 6,1 2.84534,2.84534 5.45793,6.45793 8,9 1.16667,1.16667 -0.16667,4.83334 1,6 2.0777,2.0777 1.72372,6.75071 0.71875,11.03125 C 555.60061,463.49438 554,483.8046 554,489.36145 c 0,0.72332 -1.53356,4.25316 -2.0625,6.71875 -0.5456,1.15847 -1.08888,2.35902 -1.625,3.6875 -2.82555,7.00161 -11.32556,12.45859 -32.90625,5.125 -3.50561,-1.83135 -7.9364,-3.39007 -11.40625,-5.125 -5.33965,-2.66983 -5.95316,-8.45317 -8.59375,-11.09375 -1.10237,-1.10238 -1.64747,-2.80317 -1.84375,-4.84375 C 492.90729,480.11222 494,470.12713 494,465.36145 c 0,-5.78255 1.35136,-11.12197 3.65625,-15.90625 -0.44111,-3.44362 4.67837,-13.42836 5.34375,-14.09375 0.95503,-0.95503 2.72709,-2.34626 4.96875,-3.84375 0.17946,-0.28491 0.34967,-0.51733 0.5,-0.6875 0.41453,-0.41453 0.88844,-0.83606 1.40625,-1.25 0.0597,0.18945 0.15815,0.3778 0.25,0.5625 6.13468,-3.76615 14.68866,-7.73648 21.46875,-7.59375 z"
       id="path3645"
       inkscape:connector-curvature="0" />
    <path
       inkscape:connector-curvature="0"
       id="path3993"
       d="m 341.24986,899.73962 c -0.32797,-4.53412 43.11574,5.64627 26.59725,22.35145 -6.61627,6.69121 -21.09555,5.41293 -30.41168,5.4653 -12.57267,0.0707 -86.56846,2.08377 -93.94185,5.8224 -10.91058,5.53213 -30.11934,-5.3015 -41.02989,0.23066 -7.31091,3.70696 -54.46659,4.05454 -58.23592,0.32736 -1.18033,-1.16713 -0.5467,-3.69596 -1.3533,-5.28676 -6.82327,-13.45687 10.2917,-22.55878 19.72667,-22.61183 4.60034,-0.0259 13.12618,-0.68265 17.19122,-2.74381 7.9988,-4.05577 45.46432,6.14845 52.95659,2.3495 6.23509,-3.16148 94.14216,-5.82355 108.50091,-5.90427 z"
       style="fill:none;stroke:#967676;stroke-width:4.63247681;stroke-linecap:butt;stroke-linejoin:miter;stroke-miterlimit:4;stroke-opacity:1;stroke-dasharray:none" />
    <path
       inkscape:connector-curvature="0"
       id="path3995"
       d="m 335.99283,906.38713 c 4.82046,-0.0487 1.91202,-3.67695 9.26485,-0.052 16.08173,7.92818 -5.69212,23.32769 -11.81521,17.27301 -2.06823,-2.0451 -17.47424,-7.61846 -9.35409,-15.83044 3.58435,-3.62489 5.8545,-2.86693 11.90445,-1.39048 z"
       style="fill:#241c1c;stroke:#ffffff;stroke-width:0.92649537px;stroke-linecap:butt;stroke-linejoin:miter;stroke-opacity:0" />
    <path
       inkscape:connector-curvature="0"
       id="path3997"
       d="m 305.54391,905.23467 c 5.76563,-0.67583 5.22635,-0.0632 7.94869,1.27894 9.6849,4.77455 -5.41801,19.8059 -13.13874,17.28045 -21.7445,-7.1126 -15.04403,-18.44565 5.19005,-18.55939 z"
       style="fill:#241c1c;stroke:#ffffff;stroke-width:0.92649537px;stroke-linecap:butt;stroke-linejoin:miter;stroke-opacity:0" />
    <path
       inkscape:connector-curvature="0"
       id="path3999"
       d="m 265.85243,908.10498 c 11.16665,0.10907 -0.15192,-4.69449 9.26481,-0.0521 18.26479,9.00443 -1.53881,22.33919 -9.16063,18.5817 -5.13667,-2.53234 -10.26113,-4.88168 -13.28008,-7.86688 -0.66548,-0.65803 0.64319,-3.31256 -0.0224,-3.97063 -6.86296,-6.78623 8.62323,-7.80858 13.19828,-6.69212 z"
       style="fill:#241c1c;stroke:#ffffff;stroke-width:0.92649537px;stroke-linecap:butt;stroke-linejoin:miter;stroke-opacity:0" />
    <path
       inkscape:connector-curvature="0"
       id="path4001"
       d="m 228.80064,909.63683 c 4.55055,0.24728 10.19311,-0.45036 13.25034,2.57272 7.9223,7.83369 -5.47583,21.05818 -13.13873,17.28046 -13.98264,-6.89335 -20.32882,-19.73953 -0.11144,-19.85318 z"
       style="fill:#241c1c;stroke:#ffffff;stroke-width:0.92649537px;stroke-linecap:butt;stroke-linejoin:miter;stroke-opacity:0" />
    <path
       inkscape:connector-curvature="0"
       id="path4003"
       d="m 162.63835,912.65594 c 18.10915,-0.96723 -14.77229,-1.24057 6.61028,-1.36078 5.93252,-0.0332 9.81406,15.59724 -1.20449,21.18416 -11.28878,5.72388 -23.94979,-10.38719 -15.98671,-18.44032 2.50098,-2.52929 7.13504,-0.501 10.58092,-1.38306 z"
       style="fill:#241c1c;stroke:#ffffff;stroke-width:0.92649537px;stroke-linecap:butt;stroke-linejoin:miter;stroke-opacity:0" />
    <path
       inkscape:connector-curvature="0"
       id="path4005"
       d="m 195.71206,909.82284 c 6.35437,-0.43484 9.63111,0.67035 11.94167,5.22721 5.73083,11.30244 -13.12515,18.60706 -21.09487,14.67799 -10.52498,-5.18872 -11.73864,-23.96158 9.1532,-19.9052 z"
       style="fill:#241c1c;stroke:#ffffff;stroke-width:0.92649537px;stroke-linecap:butt;stroke-linejoin:miter;stroke-opacity:0" />
    <path
       style="fill:#0098dc;fill-opacity:1;stroke:#ffffff;stroke-width:1.10980749px;stroke-linecap:butt;stroke-linejoin:miter;stroke-opacity:0"
       d="m 276.14628,793.9609 c -0.12231,0.0305 -0.24946,0.0613 -0.35095,0.1504 -1.31821,1.15514 1.22506,2.8834 1.40375,3.30885 2.8516,6.78615 0.192,21.01878 -0.20054,26.97215 -0.33409,5.06829 -24.27376,-2.56924 -25.31771,-1.65442 -1.47825,1.29538 -6.70184,-0.46338 -11.07962,-0.75202 -5.24829,-0.346 -19.47084,-6.4269 -26.7716,-3.35896 -7.16157,3.00945 -20.86457,3.43273 -28.82713,2.90775 -11.78283,-0.77681 -23.83529,-0.87325 -35.94614,-1.10294 -0.68254,10.08449 -1.43801,20.41163 -2.25603,30.38128 21.44814,-1.62453 42.91403,-6.73501 65.22445,-5.26411 8.69019,0.57295 58.85087,3.23843 63.16897,5.76543 3.9286,2.29912 -4.43019,26.70087 -3.35899,26.7716 2.52977,0.16678 14.39096,-15.56747 15.39117,-16.44398 5.65307,-4.95375 24.99958,-17.21539 25.11718,-19.00081 0.0777,-1.17917 -2.27938,-0.91608 -3.05818,-1.80483 -4.62304,-5.27566 -9.67431,-14.4451 -14.58903,-20.05363 -1.31084,-1.49584 -14.75739,-27.7669 -18.5496,-26.82176 z"
       id="path4007"
       inkscape:connector-curvature="0" />
    <path
       inkscape:connector-curvature="0"
       id="path4009"
       d="m 486.33378,808.92026 c -3.76556,2.74786 2.8529,36.60066 2.95207,54.25042 0.0798,14.17748 -3.13496,99.00722 -6.04479,101.95012 -1.7187,1.7381 -9.21693,-0.5843 -10.59578,-1.2641 -3.9768,-1.9605 -13.73537,0.2442 -17.19863,1.4203 -5.7921,1.9669 -14.64467,-1.2413 -21.18415,-1.2045 -8.82071,0.05 -17.99106,2.7483 -27.77959,2.8033 -5.36718,0.03 -54.01311,1.3811 -55.57398,2.9596 -0.8031,0.8121 -23.82787,-0.5961 -23.8238,0.1339 0.007,1.5404 -1.38071,-10.1676 -1.42769,-18.5221 -0.047,-8.3636 1.4006,-39.12164 -1.57652,-44.99307 -1.24919,-2.4637 1.19714,-6.80118 -0.0521,-9.26484 -6.2108,-12.24898 -1.53258,-37.18339 -1.61369,-51.61077 -0.055,-9.79121 -4.08305,-19.97627 -4.13429,-29.09565 -0.0181,-3.17789 1.82356,-2.9479 -0.0374,-6.61772 -0.8418,-1.66018 -1.24431,-18.70761 -0.11144,-19.85315 5.00892,-5.06557 20.32235,4.2961 26.47832,1.17475 6.07217,-3.07889 58.09886,-3.69459 64.85366,-0.36455 4.90181,2.41653 45.68513,-4.22757 52.91938,-4.26825 3.29572,-0.0184 23.07553,-0.87384 25.15481,1.18219 4.03757,3.99238 -0.38464,16.9614 -1.20454,21.18416 z"
       style="fill:#ac9393;fill-opacity:1;stroke:#ffffff;stroke-width:0.92649537px;stroke-linecap:butt;stroke-linejoin:miter;stroke-opacity:0" />
    <path
       inkscape:connector-curvature="0"
       id="path4023"
       d="m 17.622288,607.74658 c -2.060023,-3.73561 -7.719702,8.26905 -5.390922,15.26995 1.373468,4.129 3.781532,7.80485 5.155839,11.93637 2.16052,6.49503 3.958013,16.39175 7.211766,21.08646 0.900741,1.29961 4.135943,-1.02841 4.462886,-1.43086 2.547887,-3.13645 13.14041,-27.69898 14.600902,-25.5917 2.440238,3.52093 4.545477,22.29877 7.7888,26.9784 1.047465,1.51136 3.771955,-1.59607 4.503467,-2.49656 3.042207,-3.74495 7.146098,-9.25538 8.551755,-14.08226 0.305823,-1.05013 1.685453,-1.59439 2.102405,-2.58805 2.861802,-6.8202 13.037775,-21.10125 8.659138,-27.41898 -4.557909,-6.57641 -15.679617,21.81516 -20.061288,21.64821 -2.484801,-0.0947 -5.645461,-18.26434 -7.611953,-21.10171 -0.748285,-1.07967 -2.581811,-2.03873 -3.47979,-3.33439 -1.619233,-2.33632 -8.711844,10.10354 -9.250584,11.38746 -0.413228,0.98479 -7.235941,13.73217 -8.470547,11.95083 -3.983236,-5.74726 -5.655196,-14.52788 -8.771874,-22.21317 z"
       style="fill:#00ff00;stroke:#ffffff;stroke-width:0.32347912px;stroke-linecap:butt;stroke-linejoin:miter;stroke-opacity:0" />
    <path
       inkscape:connector-curvature="0"
       id="path4025"
       d="m 82.226018,611.27534 c -1.225933,6.04239 -2.306061,43.00243 -0.127155,45.35395 0.743558,0.80246 2.418071,1.05444 3.669098,1.74069 1.158142,0.6353 4.356012,0.0761 4.816042,-0.35013 0.744353,-0.68972 3.129504,-0.8436 3.790917,-1.45646 1.0269,-0.95151 -2.821524,-23.98601 -2.674269,-27.8508 0.03235,-0.84853 -0.357574,-4.80914 0.203031,-5.32859 12.262578,-11.36244 16.189538,5.56074 23.527008,-1.23812 1.06316,-0.98512 5.63066,-6.68299 3.54231,-8.93679 -7.79172,-8.40899 -18.30119,-8.74457 -27.196128,-0.50257 -0.485332,0.4497 -5.804431,-8.26086 -9.550854,-1.43118 z"
       style="fill:#00ff00;stroke:#ffffff;stroke-width:0.37327215px;stroke-linecap:butt;stroke-linejoin:miter;stroke-opacity:0" />
    <path
       inkscape:connector-curvature="0"
       id="path4027"
       d="m 128.11282,611.42281 c -2.62877,4.86493 -2.58547,11.5958 -1.71542,17.01088 0.62551,3.89295 0.21808,8.28246 0.0659,12.27607 -0.12014,3.15344 -2.36947,15.19546 -0.13713,17.60465 0.76632,0.82703 3.53295,0.48423 4.22226,1.22815 1.10007,1.1872 4.57968,0.38292 5.90206,-0.8424 1.09186,-1.0117 0.69866,-4.33134 0.75619,-5.84115 0.21554,-5.65686 2.44073,-39.52847 0.006,-42.15678 -1.29897,-1.40189 -7.82313,0.45272 -9.0992,0.72058 z"
       style="fill:#00ff00;stroke:#ffffff;stroke-width:0.37327215px;stroke-linecap:butt;stroke-linejoin:miter;stroke-opacity:0" />
    <path
       inkscape:connector-curvature="0"
       id="path4029"
       d="m 134.1114,594.04147 c -7.27944,-0.62627 5.96464,-0.30637 -2.64399,-0.63437 -3.63996,-0.13869 -6.75348,6.6313 -3.522,8.40392 5.96298,3.27102 14.70386,-7.44424 6.16599,-7.76955 z"
       style="fill:#00ff00;stroke:#ffffff;stroke-width:0.37327215px;stroke-linecap:butt;stroke-linejoin:miter;stroke-opacity:0" />
    <path
       inkscape:connector-curvature="0"
       id="path4031"
       d="m 157.55332,598.53805 c -1.67573,-0.002 -3.5325,0.31075 -4.41974,0.49698 -1.27451,3.92759 -0.87439,8.07423 -0.49811,12.15619 -1.33602,0.30474 -2.70851,0.52716 -4.25523,0.46823 -0.0617,-0.0364 -4.7908,-0.18113 -4.87201,1.95056 -0.0549,1.44199 -1.56471,4.41554 -0.2234,5.86311 1.15806,1.2498 3.47289,1.89912 5.22567,2.86061 0.5727,0.31416 2.23815,0.45583 4.48779,0.4745 0.0929,3.092 0.16672,6.13938 -0.58709,9.28118 -1.0424,4.34459 -0.0341,9.53054 1.08928,13.38399 1.35961,4.66376 1.41496,9.85208 4.30353,12.96949 1.2663,1.36662 3.31731,0.46313 4.76154,1.25536 1.85776,1.01908 4.64916,0.70244 6.90385,0.78834 10.44687,0.39804 15.68874,-5.51305 16.08557,-15.92806 0.0319,-0.83655 0.14613,-4.83 -0.33322,-5.34736 -4.94081,-5.33221 -13.00538,10.36901 -20.36869,2.42238 -1.84372,-1.98978 -2.50595,-4.38828 -2.34463,-8.62246 0.0962,-2.52349 0.30643,-6.37362 0.43862,-10.59424 8.34198,-0.59777 17.30675,-1.74421 18.20327,-2.57493 1.05105,-0.9739 7.43795,-3.06473 3.99382,-6.78172 -1.54574,-1.66819 -4.979,-2.04657 -7.35877,-2.94187 -2.6149,-0.98377 -5.65616,-0.75248 -8.50033,-0.86084 -2.24107,-0.0854 -4.28866,0.35115 -6.3609,0.58643 -0.2577,-4.91414 -0.91448,-8.99641 -2.33053,-10.52465 -0.54311,-0.58615 -1.73693,-0.77948 -3.04029,-0.78122 z"
       style="fill:#00ff00;stroke:#ffffff;stroke-width:0.37327215px;stroke-linecap:butt;stroke-linejoin:miter;stroke-opacity:0" />
    <path
       sodipodi:nodetypes="csssssssscssccssccsssccc"
       inkscape:connector-curvature="0"
       id="path4033"
       d="m 221.32739,604.96168 c -1.19363,-0.0227 -2.51958,0.11412 -3.43495,0.0792 -11.25818,-0.42896 -17.64772,3.98231 -24.48463,12.40958 -2.3019,2.83736 -4.13102,9.89602 -3.16482,13.21023 0.37756,1.2951 -0.54011,2.9711 -0.16255,4.26621 1.33559,4.58136 1.89304,9.51169 3.20195,14.00146 2.81714,9.66333 24.62608,17.60273 32.13224,10.83135 6.11138,-5.51315 8.56755,-6.77676 5.8954,-14.7171 -1.60411,-4.76665 -4.68454,-3.06169 -7.60201,3.44244 -1.33855,2.98411 -5.1085,5.2173 -14.32896,1.68697 -1.48723,-0.85053 -3.37244,-1.60601 -4.84578,-2.41421 -2.26729,-1.24374 -2.44758,-3.75797 -3.54703,-4.94452 -1.58143,-1.70672 -0.12959,-6.32244 0.12827,-9.80062 1.01165,-0.50195 2.20132,-0.77994 3.47147,-0.73154 8.07296,-0.75802 22.10324,3.67305 27.80872,-1.61362 6.75105,-6.25546 -1.91128,-22.69477 -9.16369,-25.42323 -0.51559,-0.19397 -1.18746,-0.26898 -1.90363,-0.28264 z m -3.32632,9.17681 c 1.06306,0.0301 2.01194,0.22307 2.73133,0.61769 0.65994,0.36201 2.70178,-0.40934 3.19383,0.1217 8.2149,8.86567 -6.19023,12.65137 -10.53524,10.26791 -2.50168,-1.37231 -5.63632,-1.77516 -8.47516,-1.39019 -0.51194,-1.48707 1.11682,-5.06523 1.81512,-5.79747 2.14595,-1.98841 7.47346,-3.92755 11.27012,-3.81964 z"
       style="fill:#00ff00;stroke:#ffffff;stroke-width:0.37327215px;stroke-linecap:butt;stroke-linejoin:miter;stroke-opacity:0" />
    <path
       style="fill:#00ff00;fill-opacity:1;stroke:#ffffff;stroke-width:0.71737307px;stroke-linecap:butt;stroke-linejoin:miter;stroke-opacity:0"
       d="m 260.02438,587.42318 c -6.59372,7.53088 -10.12372,18.21117 -12.44125,28.19037 -3.68833,15.88185 -4.82467,44.72858 7.40679,56.55611 3.93913,3.80903 4.83827,11.05046 10.84338,4.84027 0.32349,-0.33454 1.56051,-6.95856 1.31413,-7.19681 -1.21584,-1.17568 -3.14984,-4.65552 -4.42407,-7.10046 -0.57147,-1.09653 -6.92308,-29.32676 -4.83348,-31.48772 2.24759,-2.32435 1.10218,-8.23932 2.67641,-11.52452 3.04125,-6.34668 4.51397,-13.42484 9.7287,-18.81766 0.54834,-0.56706 2.94363,-7.03236 1.29004,-8.63135 -3.22953,-3.12288 -4.7489,-6.30992 -11.56065,-4.82823 z"
       id="path4048"
       inkscape:connector-curvature="0" />
    <path
       style="fill:#00ff00;fill-opacity:1;stroke:#ffffff;stroke-width:0.71737307px;stroke-linecap:butt;stroke-linejoin:miter;stroke-opacity:0"
       d="m 288.73934,588.37603 c -11.40804,-0.20772 -7.80192,9.32559 -1.80258,20.83702 0.87267,1.67447 0.62878,3.98314 1.53088,5.71409 1.56669,3.00614 -0.62969,8.51009 0.90995,11.46431 5.74469,11.02282 -3.19343,31.76178 -8.69834,37.45469 -0.9049,0.93582 -5.55106,5.31452 -4.17117,7.96225 1.32341,2.53934 3.8687,3.74094 5.1052,4.93661 2.81622,2.72321 13.74863,-8.64661 14.88208,-11.01197 9.00354,-18.78914 14.78653,-54.85325 0.27848,-68.8822 -3.33198,-3.22194 -1.09187,-7.20709 -8.0345,-8.4748 z"
       id="path4063"
       inkscape:connector-curvature="0" />
    <path
       style="fill:#00ff00;stroke:#ffffff;stroke-width:0.37327215px;stroke-linecap:butt;stroke-linejoin:miter;stroke-opacity:0"
       d="m 174.98672,720.16706 c -4.4328,0.14592 -8.94498,2.12215 -13.11448,5.98558 -0.48533,0.4497 -5.8036,-8.26442 -9.55003,-1.43474 -1.22593,6.04238 -2.31341,42.99991 -0.1345,45.35143 0.74355,0.80246 2.42551,1.06234 3.67653,1.74859 1.15814,0.6353 4.33741,0.0676 4.79744,-0.35868 0.74435,-0.68972 3.14962,-0.84431 3.81104,-1.45717 1.0269,-0.95151 -2.8374,-23.97824 -2.69015,-27.84304 0.0324,-0.84853 -0.35884,-4.81601 0.20176,-5.33546 7.51549,-6.96382 11.89197,-3.29923 15.84946,-0.98639 0.34467,0.48793 0.73388,0.97038 1.16574,1.47958 0.83485,0.98439 0.92673,3.29838 1.70376,4.21457 1.38329,1.63103 -0.9453,21.67055 -0.42594,29.21053 0.1726,0.25148 0.29855,0.45548 0.33627,0.4932 0.50532,0.50532 6.71771,0.38876 7.10647,0 0.21783,-0.21783 1.7198,-0.92047 3.27302,-1.59167 1.91421,-7.20223 -0.12982,-28.01952 0.22418,-32.32663 0.058,-0.70617 0.36586,-4.57413 -0.0897,-5.11128 -0.70892,-0.83589 -1.15818,-2.05834 -1.59167,-3.31785 -0.002,-0.006 0.002,-0.0157 0,-0.0224 0.15115,-0.86651 0.0513,-1.65592 -0.47077,-2.21938 -0.22169,-0.23925 -0.44655,-0.46878 -0.67254,-0.69495 -0.21436,-0.42612 -0.4392,-0.81533 -0.71737,-1.14332 -0.27649,-0.32599 -0.76832,-0.53351 -1.34508,-0.67253 -3.49645,-2.75908 -7.38267,-4.09836 -11.34346,-3.96797 z"
       id="path4067"
       inkscape:connector-curvature="0" />
    <path
       style="fill:#00ff00;stroke:#ffffff;stroke-width:0.37327215px;stroke-linecap:butt;stroke-linejoin:miter;stroke-opacity:0"
       d="m 131.62951,717.90133 c -1.19362,-0.0227 -2.51957,0.11412 -3.43495,0.0792 -11.25818,-0.42896 -17.64771,3.98231 -24.48463,12.40959 -2.3019,2.83735 -4.13102,9.89602 -3.16482,13.21022 0.37756,1.29511 -0.54011,2.9711 -0.16255,4.26621 1.3356,4.58136 1.89305,9.51169 3.20195,14.00146 2.81715,9.66333 24.62608,17.60273 32.13224,10.83135 6.11138,-5.51315 8.56755,-6.77676 5.89541,-14.7171 -1.60411,-4.76665 -4.68455,-3.06169 -7.60202,3.44244 -1.33855,2.98412 -5.1085,5.21731 -14.32895,1.68697 -1.48723,-0.85053 -3.37245,-1.606 -4.84579,-2.41421 -2.26728,-1.24373 -2.44758,-3.75797 -3.54703,-4.94452 -1.58143,-1.70671 -0.12959,-6.32243 0.12827,-9.80062 1.01165,-0.50194 2.20132,-0.77993 3.47148,-0.73154 8.07295,-0.75801 22.10323,3.67306 27.80871,-1.61361 6.75105,-6.25546 -1.91128,-22.69478 -9.16369,-25.42323 -0.51559,-0.19397 -1.18746,-0.26898 -1.90363,-0.28265 z m -3.32632,9.17682 c 1.06306,0.0301 2.01195,0.22306 2.73134,0.61768 0.65993,0.36201 2.70177,-0.40934 3.19383,0.1217 8.21489,8.86568 -6.19024,12.65138 -10.53525,10.26791 -2.50167,-1.37231 -5.63632,-1.77515 -8.47515,-1.39018 -0.51194,-1.48707 1.11682,-5.06524 1.81511,-5.79747 2.14595,-1.98842 7.47346,-3.92756 11.27012,-3.81964 z"
       id="path4075"
       inkscape:connector-curvature="0"
       sodipodi:nodetypes="csssssssscssccssccsssccc" />
    <path
       inkscape:connector-curvature="0"
       id="path4077"
       d="m 258.58963,690.72491 c -6.59371,7.53088 -10.12371,18.21117 -12.44124,28.19036 -3.68834,15.88185 -4.82467,44.72858 7.40679,56.55611 3.93912,3.80904 4.83826,11.05047 10.84337,4.84028 0.32349,-0.33454 1.56051,-6.95857 1.31413,-7.19681 -1.21583,-1.17568 -3.14984,-4.65552 -4.42406,-7.10047 -0.57148,-1.09652 -6.92309,-29.32675 -4.83349,-31.48771 2.24759,-2.32436 1.10218,-8.23933 2.67641,-11.52452 3.04125,-6.34668 4.51398,-13.42484 9.72871,-18.81767 0.54834,-0.56706 2.94362,-7.03235 1.29003,-8.63134 -3.22952,-3.12289 -4.7489,-6.30992 -11.56065,-4.82823 z"
       style="fill:#00ff00;fill-opacity:1;stroke:#ffffff;stroke-width:0.71737307px;stroke-linecap:butt;stroke-linejoin:miter;stroke-opacity:0" />
    <path
       inkscape:connector-curvature="0"
       id="path4079"
       d="m 287.3046,691.67776 c -11.40804,-0.20772 -7.80193,9.32558 -1.80259,20.83701 0.87267,1.67447 0.62878,3.98315 1.53088,5.71409 1.5667,3.00615 -0.62969,8.5101 0.90995,11.46431 5.74469,11.02282 -3.19342,31.76179 -8.69834,37.4547 -0.9049,0.93581 -5.55106,5.31451 -4.17116,7.96224 1.32341,2.53935 3.8687,3.74095 5.1052,4.93661 2.81622,2.72322 13.74862,-8.64661 14.88207,-11.01197 9.00354,-18.78913 14.78653,-54.85325 0.27849,-68.88219 -3.33199,-3.22195 -1.09188,-7.2071 -8.0345,-8.4748 z"
       style="fill:#00ff00;fill-opacity:1;stroke:#ffffff;stroke-width:0.71737307px;stroke-linecap:butt;stroke-linejoin:miter;stroke-opacity:0" />
    <path
       style="fill:#00ff00;fill-opacity:1;stroke:#ffffff;stroke-width:0.71737307px;stroke-linecap:butt;stroke-linejoin:miter;stroke-opacity:0"
       d="m 231.14358,697.09903 c -2.53441,-0.0191 -4.54679,3.94779 -4.8871,5.64932 0.41376,5.97741 0.61923,11.92725 0.71737,17.86707 -10.81887,-2.56491 -20.05017,0.0171 -27.59645,15.10967 -0.48927,0.97855 -0.004,2.56348 -0.49319,3.54203 -6.14768,12.29537 7.21608,41.03723 22.30582,33.49236 0.97855,-0.48927 2.5859,-0.0263 3.56445,-0.51562 0.97518,-0.48759 1.96243,-1.01214 2.93674,-1.56925 0.61317,1.99357 1.59656,3.60928 3.13851,3.60928 4.41517,0 3.96386,-5.9101 5.58206,-9.1465 0.47344,-0.94689 -0.47344,-2.59514 0,-3.54203 3.10118,-6.20236 0.51561,-35.28309 0.51561,-43.62525 0,-2.27367 0.18072,-7.91216 -1.03122,-9.12409 -1.24248,-1.24249 0.35652,-6.25677 -1.00881,-7.62209 -0.6377,-0.6377 -0.92929,-2.43129 -1.52441,-3.02642 -0.76956,-0.76955 -1.50975,-1.0931 -2.21938,-1.09848 z m -12.41952,32.99916 c 1.21555,0.0269 2.40216,0.49664 3.47478,1.56926 0.76089,0.76089 2.80356,0.24792 3.56444,1.0088 0.0957,0.0957 0.61844,0.55861 1.27782,0.98639 -0.0492,9.20818 -0.23504,18.42999 -0.26901,27.73096 -2.82214,0.4915 -6.78105,2.21937 -8.11528,2.21937 -6.41952,0 -6.98594,-5.4391 -10.15532,-8.60848 -0.61501,-0.61502 -0.48985,-2.52989 -1.0088,-3.04883 -0.97768,-0.97768 0,-8.10336 0,-9.63971 0,-0.30954 -0.19765,-1.84237 0,-2.04002 1.13295,-1.13294 1.61666,-2.22453 2.53322,-4.05765 1.21826,-2.43653 5.05151,-6.20085 8.69815,-6.12009 z"
       id="path4183"
       inkscape:connector-curvature="0" />
    <path
       style="fill:#ff00ff;stroke:#ffffff;stroke-width:0.86171532px;stroke-linecap:butt;stroke-linejoin:miter;stroke-opacity:0"
       d="m 779.78125,396.23645 c -1.25354,-0.0332 -2.60268,0.28572 -4.09375,1.03125 -4.49687,2.24844 -10.18759,5.47295 -10.96875,12.03125 -5.0404,-2.49269 -10.55535,-4.32455 -16.09375,-7.09375 -7.79569,-3.89785 -20.30356,1.54241 -27.09375,4.9375 -19.51085,9.75543 -27.09375,23.2366 -27.09375,49.21875 0,13.34855 0.57796,25.10887 4.9375,38.1875 8.6792,26.0376 44.71046,42.3384 66.5,24.34375 -0.0132,0.91457 -0.0312,1.95188 -0.0312,2.71875 0,6.38328 -1.04887,17.12078 -1.28125,27.59375 -0.005,0.007 0.005,0.0238 0,0.0312 -4.10466,6.66479 -3.67416,19.125 -19.5625,19.125 -2.43353,0 -5.45048,1.77476 -9,0 -5.31113,-2.65556 -9.85045,0.14955 -15,-5 -1.15626,-1.15626 -10.35932,-7.64068 -13,-5 -4.6719,4.6719 -9.48199,12.51802 -3,19 0.83333,0.83334 0.16667,3.16667 1,4 8.70335,8.70335 31.06625,18.46688 46,11 3.57557,-1.78778 8.78921,0.2108 12,-3 4.31335,-4.31334 8.43161,-9.43161 13,-14 3.57035,-3.57035 7.52366,-10.04732 10,-15 0.97398,-1.94796 4,-18.65948 4,-20 0,-0.42882 -0.55394,-0.29848 -1.125,-0.15625 -0.67557,-39.35611 1.8125,-78.99413 1.8125,-118.3125 0,-7.99907 -3.13145,-25.42402 -11.90625,-25.65625 z m -26.25,34.3125 c 3.22763,0.0416 6.54013,0.78569 9.84375,2.4375 0.0856,0.0427 0.18953,0.0969 0.28125,0.15625 -0.75455,15.43755 -1.50726,33.11046 -0.28125,35.5625 2.24236,4.48471 2.8326,15.08045 2.875,26 -5.13798,5.31893 -12.09037,12.61328 -20.46875,12.625 -2.24169,0.003 -4.59429,-0.50026 -7.03125,-1.71875 -1.74168,-0.87083 -6.00236,0.12263 -7.375,-1.25 -2.46205,-2.46204 -6.13171,-3.66296 -8.59375,-6.125 -11.66665,-11.66666 -7.23002,-29.91497 -1.25,-41.875 1.86912,-3.73826 1.34759,-8.72259 3.6875,-11.0625 6.00261,-6.0026 15.95767,-14.19527 26.9375,-14.71875 0.45749,-0.0218 0.91391,-0.0372 1.375,-0.0312 z"
       id="path4191"
       inkscape:connector-curvature="0" />
    <path
       style="fill:#ff00ff;stroke:#ffffff;stroke-width:0.86171532px;stroke-linecap:butt;stroke-linejoin:miter;stroke-opacity:0"
       d="m 819.5,329.92395 c -5.49638,-2.31489 -8.84878,-0.53221 -10.5,9.4375 -3.16667,3.16667 3.16667,15.83333 0,19 2.08547,49.27735 -1.22887,100.19652 -1.34375,142.71875 0,9.14179 4.07147,30.55801 16,24.59375 1.66773,-0.83387 3.50421,-1.81226 5.1875,-3.03125 0.93773,-1.90518 1.75866,-3.48606 2.15625,-4.28125 2.29724,-4.59448 1,-13.10583 1,-19 0,-6.26705 -2.40793,-41.51286 -1.0625,-53.875 2.53972,-4.59861 1.08829,-12.15079 5.0625,-16.125 4.17278,-4.17278 27.90234,-12.09766 35,-5 1.84564,1.84564 4.09678,5.09678 6,7 2.83333,2.83334 3.03226,15.11168 4,19 6.06086,24.35222 -6.8894,60.83461 0,67 3.30291,2.95581 3.68137,10.15932 12,6 1.06203,-0.53101 3.10858,-0.10858 4,-1 3.72534,-3.72534 15.26142,-22.73858 8,-30 -1.16667,-1.16666 0.16667,-4.83333 -1,-6 -0.30146,-0.30146 -0.46734,-1.33394 -0.53125,-2.84375 -9.8e-4,-0.0231 9.4e-4,-0.0392 0,-0.0625 0.96173,-4.97062 1.4375,-10.51711 1.4375,-16.84375 0,-13.34855 -0.54671,-25.10887 -4.90625,-38.1875 -8.6792,-26.0376 -44.74171,-42.3384 -66.53125,-24.34375 0.0132,-0.91457 0.0312,-1.95188 0.0312,-2.71875 0,-13.59629 -4.09623,-36.73889 -1.6875,-48.40625 0.89977,-4.35828 -1.52227,-18.99048 -3.21875,-18.15625 -3.88883,-3.65755 -5.55757,-1.87117 -9.0937,-4.875 z"
       id="path4193"
       inkscape:connector-curvature="0"
       sodipodi:nodetypes="ccccscsscsssssssssccsscsscc" />
    <path
       sodipodi:nodetypes="ccccscsscsssssssssccsscsscc"
       inkscape:connector-curvature="0"
       id="path4437"
       d="m 283.5,329.92395 c -5.49638,-2.31489 -8.84878,-0.53221 -10.5,9.4375 -3.16667,3.16667 3.16667,15.83333 0,19 2.08547,49.27735 -1.22887,100.19652 -1.34375,142.71875 0,9.14179 4.07147,30.55801 16,24.59375 1.66773,-0.83387 3.50421,-1.81226 5.1875,-3.03125 0.93773,-1.90518 1.75866,-3.48606 2.15625,-4.28125 2.29724,-4.59448 1,-13.10583 1,-19 0,-6.26705 -2.40793,-41.51286 -1.0625,-53.875 2.53972,-4.59861 1.08829,-12.15079 5.0625,-16.125 4.17278,-4.17278 27.90234,-12.09766 35,-5 1.84564,1.84564 4.09678,5.09678 6,7 2.83333,2.83334 3.03226,15.11168 4,19 6.06086,24.35222 -6.8894,60.83461 0,67 3.30291,2.95581 3.68137,10.15932 12,6 1.06203,-0.53101 3.10858,-0.10858 4,-1 3.72534,-3.72534 15.26142,-22.73858 8,-30 -1.16667,-1.16666 0.16667,-4.83333 -1,-6 -0.30146,-0.30146 -0.46734,-1.33394 -0.53125,-2.84375 -9.8e-4,-0.0231 9.4e-4,-0.0392 0,-0.0625 0.96173,-4.97062 1.4375,-10.51711 1.4375,-16.84375 0,-13.34855 -0.54671,-25.10887 -4.90625,-38.1875 -8.6792,-26.0376 -44.74171,-42.3384 -66.53125,-24.34375 0.0132,-0.91457 0.0312,-1.95188 0.0312,-2.71875 0,-13.59629 -4.09623,-36.73889 -1.6875,-48.40625 0.89977,-4.35828 -1.52227,-18.99048 -3.21875,-18.15625 -3.88883,-3.65755 -5.55757,-1.87117 -9.0937,-4.875 z"
       style="fill:#ff00ff;stroke:#ffffff;stroke-width:0.86171532px;stroke-linecap:butt;stroke-linejoin:miter;stroke-opacity:0" />
    <path
       style="fill:#ff00ff;stroke:#ffffff;stroke-width:0.86171532px;stroke-linecap:butt;stroke-linejoin:miter;stroke-opacity:0"
       d="m 597.53125,403.0177 c -8.77049,0.2286 -11.875,17.62593 -11.875,25.625 0.0429,15.86642 0.54421,33.12942 1.03125,50.8125 0.12634,0.32223 0.25021,0.69371 0.375,1.09375 -0.49495,2.13395 -0.28765,4.08736 0.9375,5.3125 0.67871,0.67872 0.38704,6.88704 2,8.5 0.20941,0.20941 0.35266,0.48607 0.46875,0.78125 0.0975,0.35496 0.18259,0.71329 0.28125,1.03125 0.17457,0.8581 0.29774,1.73525 0.75,2.1875 0.99689,0.9969 0.33323,4.66647 1,6 2.9034,5.80681 4.12808,12.62808 8,16.5 3.91429,3.91429 7.07199,5.286 12.5,8 1.75871,0.87936 7.16397,2.87944 10.96875,3.1875 21.04962,5.59266 46.86692,-9.25702 54.03125,-30.75 4.35954,-13.07863 4.90625,-24.83895 4.90625,-38.1875 0,-6.32664 -0.47577,-11.87313 -1.4375,-16.84375 9.4e-4,-0.0233 -9.8e-4,-0.0394 0,-0.0625 0.0639,-1.50981 0.22979,-2.54229 0.53125,-2.84375 1.16667,-1.16667 -0.16667,-4.83334 1,-6 7.26142,-7.26142 -4.27466,-26.27466 -8,-30 -0.89142,-0.89142 -2.93797,-0.46899 -4,-1 -8.31863,-4.15932 -8.69709,3.04419 -12,6 -6.8894,6.16539 6.06086,42.64778 0,67 -0.96774,3.88832 -1.16667,16.16666 -4,19 -1.90322,1.90322 -4.15436,5.15436 -6,7 -7.09766,7.09766 -30.82722,-0.82722 -35,-5 -3.97421,-3.97421 -2.52278,-11.52639 -5.0625,-16.125 -1.34543,-12.36214 1.0625,-47.60795 1.0625,-53.875 0,-5.89417 1.29724,-14.40552 -1,-19 -0.39759,-0.79519 -1.21852,-2.37607 -2.15625,-4.28125 -1.68329,-1.21899 -3.51977,-2.19738 -5.1875,-3.03125 -1.49107,-0.74553 -2.87207,-1.06391 -4.125,-1.03125 z"
       id="path4439"
       inkscape:connector-curvature="0" />
    <path
       style="fill:#ff0000;stroke:#ffffff;stroke-width:0.70990282px;stroke-linecap:butt;stroke-linejoin:miter;stroke-opacity:0"
       d="m 901.2988,603.42828 c -5.7373,0.1383 -10.1931,3.47071 -13.7676,5.00029 -2.2681,0.97049 -4.9987,4.09685 -5.3682,5.55005 -1.3768,3.13268 2.0332,10.80749 7.7997,4.75692 0.3001,-2.32562 10.4531,-9.04057 13.6213,-4.30378 0.4338,0.64866 1.2119,1.136 1.8856,1.7082 0.5578,1.87087 2.314,4.11956 1.686,4.74748 -0.3046,0.30471 -0.279,1.06485 -0.7098,1.06485 -1.511,0 -3.0796,-0.22096 -4.57,-0.37714 -3.3866,-1.06436 -7.2896,-1.57964 -10.4933,0.0223 -2.4617,1.23081 -8.9184,7.94119 -12.4677,14.35334 -0.017,2.77515 -0.1005,5.71184 2.0631,7.8755 0.2351,0.23506 0.1976,1.26234 0.3772,1.44198 1.4973,1.49727 2.7549,3.84197 4.2816,5.36864 1.5254,1.52539 4.4326,2.33615 6.1895,4.05977 0.2075,0.0264 0.4142,0.0486 0.6211,0.0666 1.8014,2.83021 8.4644,1.40767 10.4046,-0.53243 0.278,-0.27804 2.6375,-0.93365 4.4368,-1.46419 0.234,1.24871 0.4679,2.39787 0.5989,2.52904 3.3602,3.36012 9.7543,3.15725 12.9114,0 0.3952,-0.39507 0.71,-13.22624 0.71,-15.04106 0,-10.80167 -0.3559,-21.5208 -5.0137,-30.83641 -3.8599,-4.68156 -10.4958,-6.04854 -15.1965,-5.98983 z m -3.1944,24.58039 c 0.1639,0.14042 0.407,0.36259 0.4436,0.39931 0.942,0.94196 7.4726,0.66189 8.2527,1.442 0.052,0.052 0.4479,0.36906 0.9095,0.73209 0.9567,3.42064 2.3506,11.78086 1.5973,12.53421 -0.2143,0.21436 -0.5269,0.45821 -0.8875,0.70991 -0.6414,0.15014 -1.1872,0.27777 -1.2644,0.35496 -0.6982,0.69817 -3.558,1.70184 -6.7663,2.46246 -0.6738,-0.0129 -1.3053,-0.13137 -1.8413,-0.37713 -3.5438,1.0638 -7.7459,-2.42566 -8.785,-6.03418 -0.315,-0.20539 -0.6185,-0.44103 -0.8874,-0.7099 -0.8595,-0.85955 0.4325,-4.10394 0.7099,-4.65874 0.9509,-1.90165 1.8203,-3.59508 3.239,-5.01368 0.5424,-0.54252 2.8861,-1.39269 5.2799,-1.84131 z"
       id="path3350"
       inkscape:connector-curvature="0"
       sodipodi:nodetypes="csccsccscsccssccsccsscccsscscscccsccc" />
    <path
       style="fill:none;stroke:#967676;stroke-width:4.65276957;stroke-linecap:butt;stroke-linejoin:miter;stroke-miterlimit:4;stroke-opacity:1;stroke-dasharray:none"
       d="m 803.23394,897.7754 c 0.27819,-4.55735 -43.23821,6.15748 -26.45969,22.74829 6.72039,6.64536 21.24762,5.19808 30.6046,5.14548 12.62773,-0.0708 86.96573,1.11529 94.41316,4.78683 11.02012,5.43287 30.18957,-5.66448 41.20969,-0.23164 7.3843,3.64046 54.74742,3.45703 58.491,-0.32879 1.1722,-1.18547 0.5072,-3.71807 1.2993,-5.32483 6.7009,-13.59204 -10.59072,-22.53997 -20.067,-22.48672 -4.6205,0.0259 -13.19053,-0.53739 -17.29648,-2.56154 -8.07914,-3.98298 -45.59116,6.68832 -53.15864,2.95758 -6.29766,-3.10473 -94.61432,-4.78571 -109.03594,-4.70466 z"
       id="path3170"
       inkscape:connector-curvature="0" />
    <path
       style="fill:#241c1c;stroke:#ffffff;stroke-width:0.93055391px;stroke-linecap:butt;stroke-linejoin:miter;stroke-opacity:0"
       d="m 808.58875,904.39226 c -4.84198,0.005 -1.96187,-3.67126 -9.30541,0.0522 -16.06175,8.14402 5.97999,23.36415 12.06119,17.21421 2.054,-2.07728 17.46362,-7.84868 9.21565,-16.00442 -3.64064,-3.60004 -5.91205,-2.81318 -11.97143,-1.26209 z"
       id="path3172"
       inkscape:connector-curvature="0" />
    <path
       style="fill:#241c1c;stroke:#ffffff;stroke-width:0.93055391px;stroke-linecap:butt;stroke-linejoin:miter;stroke-opacity:0"
       d="m 839.15612,902.89106 c -5.7982,-0.61366 -5.24974,-0.004 -7.9686,1.37415 -9.67284,4.90456 5.66499,19.83025 13.3905,17.20673 21.7581,-7.38886 14.90075,-18.69513 -5.4219,-18.58088 z"
       id="path3174"
       inkscape:connector-curvature="0" />
    <path
       style="fill:#241c1c;stroke:#ffffff;stroke-width:0.93055391px;stroke-linecap:butt;stroke-linejoin:miter;stroke-opacity:0"
       d="m 879.05126,905.32555 c -11.21357,0.23566 0.0995,-4.71649 -9.3053,0.0522 -18.24211,9.24953 1.79763,22.41826 9.40995,18.55848 5.13022,-2.60126 10.25028,-5.0186 13.24852,-8.05078 0.66101,-0.6684 -0.68328,-3.31962 -0.0225,-3.98802 6.81605,-6.89304 -8.74861,-7.74489 -13.3308,-6.57198 z"
       id="path3176"
       inkscape:connector-curvature="0" />
    <path
       style="fill:#241c1c;stroke:#ffffff;stroke-width:0.93055391px;stroke-linecap:butt;stroke-linejoin:miter;stroke-opacity:0"
       d="m 916.28029,906.44568 c -4.56733,0.29968 -10.24216,-0.33721 -13.27848,2.73339 -7.86803,7.957 5.73721,21.08732 13.39061,17.20669 13.96507,-7.08096 20.19371,-20.05423 -0.11203,-19.94008 z"
       id="path3178"
       inkscape:connector-curvature="0" />
    <path
       style="fill:#241c1c;stroke:#ffffff;stroke-width:0.93055391px;stroke-linecap:butt;stroke-linejoin:miter;stroke-opacity:0"
       d="m 982.76224,908.73075 c -18.19814,-0.76697 14.82221,-1.41271 -6.65406,-1.29202 -5.95859,0.0334 -9.68043,15.77538 1.44883,21.26201 11.40209,5.62115 23.93599,-10.7025 15.84755,-18.70046 -2.5404,-2.51194 -7.1716,-0.4226 -10.64232,-1.26953 z"
       id="path3195"
       inkscape:connector-curvature="0" />
    <path
       style="fill:#241c1c;stroke:#ffffff;stroke-width:0.93055391px;stroke-linecap:butt;stroke-linejoin:miter;stroke-opacity:0"
       d="m 949.51388,906.25885 c -6.38678,-0.36497 -9.66513,0.782 -11.93419,5.38462 -5.62797,11.41593 13.39179,18.53917 21.35162,14.50318 10.51179,-5.32997 11.51873,-24.19757 -9.41743,-19.8878 z"
       id="path3221"
       inkscape:connector-curvature="0" />
    <path
       style="fill:#0098dc;fill-opacity:1;stroke:#ffffff;stroke-width:1.28650987px;stroke-linecap:butt;stroke-linejoin:miter;stroke-opacity:0"
       d="m 995.40837,787.28649 c -0.14187,0.0353 -0.28525,0.14867 -0.40273,0.25176 -1.52822,1.33907 1.404,3.28336 1.61114,3.77653 3.30584,7.86663 0.25358,24.36841 -0.20137,31.26964 -0.38732,5.8753 -28.14605,-2.97389 -29.35617,-1.91342 -1.71364,1.50163 -7.76532,-0.52142 -12.84023,-0.85603 -6.08388,-0.40108 -22.60507,-7.43366 -31.06821,-3.87722 -8.30179,3.4886 -24.10387,3.93186 -33.33417,3.32334 -12.01796,-0.79234 -24.3231,-0.94349 -36.65745,-1.15812 0.28707,11.80336 0.32847,23.92306 -0.20137,34.49227 22.39258,-2.32665 44.85107,-7.0232 68.12851,-5.48855 10.07385,0.66416 68.25904,3.71735 73.26461,6.64671 4.55417,2.66519 -5.11899,30.98621 -3.8773,31.0682 2.93264,0.19336 16.66587,-18.068 17.82527,-19.08404 6.5531,-5.74253 28.9177,-19.93487 29.0541,-22.00457 0.09,-1.36689 -2.622,-1.03422 -3.5247,-2.0645 -5.3591,-6.11562 -11.1712,-16.76187 -16.8684,-23.2634 -1.5197,-1.73401 -17.15551,-32.21421 -21.55153,-31.1186 z"
       id="path3223"
       inkscape:connector-curvature="0" />
    <path
       style="fill:#ac9393;fill-opacity:1;stroke:#ffffff;stroke-width:0.93055391px;stroke-linecap:butt;stroke-linejoin:miter;stroke-opacity:0"
       d="m 656.49821,808.20217 c 3.81279,2.71724 -2.45191,36.79089 -2.3523,54.51793 0.0792,14.23961 4.26634,99.39927 7.2221,102.32197 1.74574,1.72625 9.25009,-0.69086 10.62723,-1.3891 3.97179,-2.0139 13.79741,0.0901 17.28889,1.23216 5.83939,1.91004 14.69392,-1.41196 21.26207,-1.44887 8.85923,-0.0499 18.0997,2.55701 27.9311,2.50176 5.39065,-0.0304 54.26198,0.77715 55.84733,2.34483 0.81563,0.80656 23.92401,-0.86765 23.92818,-0.13461 0.0107,1.54711 1.27186,-10.22709 1.22468,-18.61826 -0.0471,-8.40017 -1.84835,-39.27464 1.0753,-45.20508 1.22681,-2.4884 -1.27913,-6.81699 -0.0524,-9.30539 6.09929,-12.372 1.11929,-37.36123 1.03786,-51.85181 -0.0556,-9.83412 3.87517,-20.10861 3.8236,-29.26791 -0.0182,-3.19184 -1.86461,-2.94007 -0.0374,-6.64673 0.82665,-1.67685 1.03839,-18.80241 -0.11213,-19.94011 -5.08775,-5.03088 -20.36159,4.54411 -26.57932,1.47879 -6.13321,-3.0236 -58.39148,-3.05454 -65.13777,0.36617 -4.89558,2.48229 -45.93001,-3.72999 -53.19608,-3.68914 -3.31013,0.0185 -23.185,-0.61709 -25.25001,1.47131 -4.00988,4.0552 0.57778,17.03025 1.44893,21.26199 z"
       id="path3157"
       inkscape:connector-curvature="0" />
    <path
       style="fill:#ff0000;stroke:#ffffff;stroke-width:0.89585048px;stroke-linecap:butt;stroke-linejoin:miter;stroke-opacity:0"
       d="m 874.7525,568.74502 c -2.7209,-0.33962 -13.8983,-1.37608 -15.5008,-0.12921 -1.5693,1.22103 1.9111,28.53914 1.3532,33.00833 -0.094,0.75098 1.2692,14.74432 0.013,14.58753 -0.3698,-0.0461 -1.9939,-10.26434 -11.3255,-11.42912 -28.2373,-4.9921 -36.9315,30.81527 -16.493,44.43566 3.3496,2.23222 14.1809,3.56952 17.9458,2.23999 1.2423,-0.43872 5.5985,-4.28065 5.951,-3.82763 1.6567,2.12923 -1.8041,4.99894 -0.011,7.30591 1.1227,1.44295 15.8428,3.90123 17.9735,2.24346 1.2049,-0.93752 -2.5009,-31.04657 -2.0203,-34.89719 1.8055,-14.46395 0.1313,-30.43464 1.8812,-44.45391 0.3107,-2.48932 -0.3859,-4.14036 -0.1048,-6.38919 0.112,-0.89797 1.2343,-2.58255 0.3363,-2.69463 z m -27.4897,46.42035 c 0.5122,0.0742 1.0485,0.22648 1.5766,0.47891 0.2633,0.12591 0.32,0.15328 0.5591,0.26727 -0.3854,-0.41812 9.8559,4.70008 0,0 0.1105,0.11992 1.055,0.67646 3.688,2.09668 1.559,3.52664 6.0017,15.8508 4.0625,18.76061 -2.4852,3.7293 -14.0162,7.00102 -18.4207,1.34013 -4.7775,-6.14016 0.8507,-24.05682 8.5345,-22.9436 z"
       id="path3332"
       inkscape:connector-curvature="0" />
    <path
       style="fill:#ff0000;stroke:#ffffff;stroke-width:0.89585048px;stroke-linecap:butt;stroke-linejoin:miter;stroke-opacity:0"
       d="m 936.3851,584.81541 c -2.0489,-0.01 -4.6782,1.6547 -5.4871,2.46359 -0.75,0.75003 -0.8959,5.05854 -0.8959,6.32694 -0.7572,2.46356 -1.157,6.96947 -1.1757,11.70205 -0.2809,0.0485 -0.5512,0.10271 -0.84,0.13998 -3.5451,-0.21252 -5.1906,-0.24771 -7.4519,2.0391 -0.2231,0.19426 -0.1551,4.02173 -0.3103,4.28485 1.9118,4.22636 4.2594,3.38561 7.9583,3.67037 0.2981,0.0207 0.836,0.0378 1.2318,0.056 0.3439,2.64247 0.8288,4.87714 1.4837,6.18697 1.4386,2.87709 -0.5372,7.46403 0.9238,10.38627 1.1007,2.20112 0.6144,12.37229 2.2677,14.02566 2.4493,2.44936 3.4921,6.28131 6.327,7.69871 4.9188,2.45939 6.4622,3.76771 12.2059,0.89585 0.6402,-0.32008 2.2111,0.0566 2.7156,-0.44792 0.5687,-0.56883 2.1846,-0.81292 2.7155,-1.34378 1.2965,-1.29645 1.9479,-2.42378 3.1634,-3.63939 3.8309,-3.8308 6.9912,-8.82622 2.7157,-13.10181 -2.5249,-2.52485 -15.9799,12.32901 -21.6965,0.89585 -0.7056,-1.41139 -1.4204,-12.25074 -1.5677,-21.44443 8.7427,-0.10719 18.731,-0.62442 20.2967,-1.98767 0.8748,-0.76177 1.9166,-2.29192 1.2037,-4.00332 -2.4508,-5.8841 -4.2123,-6.19563 -11.786,-6.71888 -2.908,-0.20091 -6.0241,0.59043 -9.3224,0.64389 0.074,-0.38769 0.1572,-0.67851 0.2519,-0.86785 0.8142,-1.62827 0.4247,-12.70515 -0.4479,-13.57774 -1.0558,-1.05578 -1.6598,-2.55563 -2.7156,-3.6114 -0.472,-0.47204 -1.0807,-0.6688 -1.7636,-0.67188 z"
       id="path3380"
       inkscape:connector-curvature="0"
       sodipodi:nodetypes="cscccccccssssscsssscsssccsscc" />
    <path
       style="fill:#ff0000;stroke:#ffffff;stroke-width:0.89585048px;stroke-linecap:butt;stroke-linejoin:miter;stroke-opacity:0"
       d="m 989.2756,599.90246 c -1.4221,0.0249 -2.8885,0.0839 -4.3673,0.0839 -9.2076,0 -21.5648,10.09782 -13.7456,17.91702 0.3771,0.37706 1.1188,0.23847 1.5956,0 0.6749,-0.33739 2.6787,0.51284 3.1915,0 2.0474,-2.04737 7.2053,-5.86718 7.6988,-5.76704 3.1796,-1.27186 3.8078,0.46217 6.075,1.59573 2.1439,1.07203 3.5659,3.75901 4.5073,7.30679 -14.4223,-3.57947 -30.1971,7.85852 -22.4244,23.40408 1.8907,3.78136 6.3245,7.66059 10.2184,8.95851 3.2419,1.08065 9.1293,0.54559 13.8016,-0.83986 0,0.36677 -0.028,0.83928 -0.028,1.17581 0,2.77215 3.1325,6.10448 6.3829,4.47925 1.6499,-0.82496 3.2408,-1.30912 4.1713,-2.23963 1.8836,-1.88361 0.6547,-7.41247 1.5957,-9.29444 1.546,-3.09215 0.9519,-8.54949 0.9519,-12.45792 0,-2.2423 1.4679,-7.33851 0.3359,-9.6024 -0.8804,-1.76091 -0.661,-3.88664 -1.2878,-5.76704 -2.4264,-7.27924 -1.9361,-10.2507 -7.3627,-15.67738 -3.1183,-3.11824 -7.0436,-3.35005 -11.3101,-3.27546 z m -1.0357,26.17564 c 0.3046,0.01 0.5913,0.0571 0.8398,0.13997 1.4764,0.49215 4.2449,1.94382 6.3549,1.90369 0.4923,4.75305 0.547,10.00385 0.5039,14.78153 -2.8499,0.77247 -6.276,1.84515 -7.5027,1.23179 -4.4972,-2.24859 -13.5519,-4.44496 -11.1982,-11.50608 0.9351,-2.80548 3.289,-5.17432 6.075,-6.10299 0.6719,-0.22395 1.5678,0.22397 2.2396,0 0.6896,-0.22985 1.7735,-0.47634 2.6877,-0.44791 z"
       id="path3385"
       inkscape:connector-curvature="0" />
    <path
       style="fill:#ff0000;stroke:#ffffff;stroke-width:0.89585048px;stroke-linecap:butt;stroke-linejoin:miter;stroke-opacity:0"
       d="m 869.611,736.76766 c -0.5135,-0.0288 -0.9943,0.003 -1.404,0.12669 -1.5595,0.46933 -3.5389,0.31614 -5.149,0.80069 -4.8272,1.45272 -7.8454,4.29512 -11.7457,7.97243 -2.2259,2.09854 -4.6412,5.31435 -5.3756,8.49606 -0.6876,2.9797 -1.6704,5.93368 -2.5022,8.88873 -2.0688,7.34913 3.3048,17.33067 6.9903,23.2279 1.4089,2.25436 5.1475,4.67267 7.5446,5.34747 1.0834,0.305 2.1811,1.02534 3.1522,1.38114 0.665,0.24364 1.5737,-0.17773 2.2386,0.0659 6.6714,2.44418 15.7643,-3.68083 19.74,-7.42902 0.6189,-0.58362 0.6181,-2.65793 1.0543,-3.4699 0.2146,-0.39938 0.043,-1.4677 0.057,-1.93084 0.082,-2.812 -1.8768,-2.94002 -4.3925,-3.01408 -1.311,-0.0385 -9.5101,3.63736 -11.335,4.48361 -1.5354,0.71204 -5.8214,-0.21449 -7.0048,-0.85038 -1.1805,-0.63433 -3.832,-0.42854 -4.7752,-1.42893 -1.8183,-1.92859 -3.9766,-6.79296 -3.1926,-10.3367 0.9201,-4.15985 0.3928,-7.52505 2.4581,-7.92978 7.4774,6.55497 24.1842,6.90724 27.8837,-1.09965 0.9713,-2.10222 0.346,-4.77908 1.1582,-6.99579 0.479,-1.30751 0.085,-3.56705 -0.5019,-4.83206 -0.6144,-1.32462 -0.9511,-3.06266 -1.4732,-4.18846 -1.3492,-2.90955 -6.2608,-4.51544 -9.0927,-6.03721 -0.9636,-0.51783 -2.792,-1.16153 -4.3324,-1.24783 z m 0.5232,10.77025 c 1.7465,0.0165 3.165,0.35586 3.8066,1.0363 2.4671,2.61692 1.9115,5.97889 -0.5525,8.30196 -0.7434,0.7009 -4.1525,0.21384 -5.4387,0.17598 l -4.1695,-0.12274 c -1.8001,-0.053 -3.1582,-1.63549 -5.0831,-1.43798 -1.8879,-5.15519 6.198,-8.00295 11.4372,-7.95352 z"
       id="path3390"
       inkscape:connector-curvature="0"
       sodipodi:nodetypes="ssssssssssscssscsscssssssssssscs" />
    <path
       style="fill:#ff0000;stroke:#ffffff;stroke-width:0.89585048px;stroke-linecap:butt;stroke-linejoin:miter;stroke-opacity:0"
       d="m 916.6036,735.79994 c -0.6605,-0.023 -1.3574,0.0111 -1.8509,-0.0257 -7.0032,-0.52208 -15.6525,2.23689 -19.5784,8.8152 -1.6561,2.77496 -2.6587,6.12713 -3.8736,9.03148 -1.4256,3.40815 -1.0411,7.4512 -1.3732,11.26719 -0.044,0.0491 -0.075,0.11727 -0.1243,0.15918 -0.011,0.006 0.049,0.18853 0.065,0.25749 -0.043,0.42294 -0.083,0.83649 -0.1493,1.25215 0,0.007 -0.011,0.0206 0,0.0278 0.2778,0.79696 0.3588,2.09391 0.3477,3.61928 -0.1255,1.78802 -0.2485,4.0485 -0.3641,6.76652 -0.011,0.18722 -0.034,0.36915 -0.042,0.55836 -0.1603,2.40756 -0.2733,4.7169 -0.1394,6.39026 0,0.0417 0.016,0.0729 0.019,0.11374 0.011,4.82927 0.2913,9.13513 1.2825,10.28612 0.6764,0.78533 4.501,2.99443 5.9625,1.73584 1.186,-1.02153 1.9575,-2.2868 2.8077,-3.0191 0.2354,-0.20273 0.7823,-9.46604 0.4017,-9.90789 -0.2991,-0.34746 0.1995,-2.67456 0.2373,-3.18264 0.4312,-5.78473 0.096,-11.97028 0.4502,-18.46654 1.0694,-6.32662 2.7436,-11.91043 6.4184,-13.41767 2.9385,-1.2053 6.2698,-0.72829 7.9387,1.2094 0.3627,0.42104 1.6359,1.23209 2.1128,1.78575 3.7237,4.32363 1.4455,15.25422 1.0241,20.90651 -0.1744,2.34058 0.283,6.16025 -0.6202,8.31951 -0.6709,1.60388 -1.1425,8.92655 -0.4775,10.54794 1.3979,3.40818 0.8631,7.99532 5.9894,5.89266 1.4107,-0.57858 3.1895,-1.1667 4.0391,-2.59042 3.8251,-6.40919 5.7867,-20.805 4.3979,-28.86807 -0.1405,-0.81572 0.3299,-1.72482 0.1894,-2.54053 -0.9737,-5.6525 0.1505,-18.07674 -5.1539,-21.24247 -1.0399,-0.62053 -1.5779,-2.32011 -2.6842,-2.78281 -1.8869,-0.78929 -3.9726,-1.88237 -5.8916,-2.68503 -0.2044,-0.0856 -0.4486,-0.13257 -0.7176,-0.16578 -0.2017,-0.0249 -0.4219,-0.0401 -0.6421,-0.0478 z"
       id="path3448"
       inkscape:connector-curvature="0" />
    <path
       style="fill:#ff0000;stroke:#ffffff;stroke-width:0.89585048px;stroke-linecap:butt;stroke-linejoin:miter;stroke-opacity:0"
       d="m 974.0258,708.80519 c -0.9378,-0.0646 -1.9956,0.46668 -3.2412,1.64105 -1.6112,1.51905 -3.2612,19.38479 -1.975,23.32808 0,0.0148 -0.011,0.0415 0,0.0558 -0.406,1.55688 0.4026,3.53352 -0.1483,5.03698 -0.4331,1.18189 -0.6528,3.03931 -0.7516,4.59911 -1.3285,-1.12379 -2.7109,-2.12437 -4.1093,-2.16553 -18.6572,-0.54923 -26.9497,12.58861 -27.4788,30.55942 -0.096,3.28248 1.686,11.91513 2.7758,14.16946 2.0555,4.25168 7.2269,8.93489 11.2185,10.88908 1.2166,0.59561 8.7351,1.09632 9.5983,0.28255 0.4901,-0.46212 5.7595,-0.2972 6.744,-0.75372 0.7079,-0.32828 1.8856,-2.32785 2.8469,-2.67912 0.3884,2.52875 1.7453,4.46972 3.4845,4.52092 0.1317,0.003 0.8643,0.11014 0.9515,0.028 0.9328,-0.87945 2.3511,-1.26447 3.2839,-2.14392 0.6077,-0.57297 0.7953,-1.70208 1.3251,-2.20159 1.6395,-1.54565 1.6377,-11.86563 1.7223,-14.74021 0.2103,-7.1417 1.9116,-16.3483 0.3792,-23.34705 -0.3319,-1.51607 0.4737,-3.29706 0.1418,-4.81312 -0.4862,-2.22042 0.2138,-4.88033 -0.4369,-7.04274 -0.6257,-6.31934 0.1301,-14.72644 -0.3046,-20.8185 -1.2514,-2.77072 1.7061,-11.88348 -1.6322,-12.74452 -0.8236,-1.55263 -3.3243,-1.58718 -4.3922,-1.66061 z m -8.2036,44.62644 c 0.7872,0.0135 1.4653,0.082 2.0114,0.17124 0.05,5.65111 0.219,11.8401 0.6599,12.79083 0.9229,1.99035 -1.1397,5.36921 -0.2167,7.35958 0.5997,1.29327 0.9817,5.65749 1.1931,9.89374 -1.7735,0.51726 -3.6066,0.99292 -5.3661,1.52249 -2.1327,0.64177 -5.405,-0.51587 -7.3778,0.39897 -0.6722,0.31175 -2.0748,1.15913 -3.209,0.54969 -4.5756,-2.45863 -7.4908,-7.17764 -7.3189,-13.01486 0.035,-1.18705 -0.086,-2.53908 0.4396,-3.51598 0.3708,-0.6901 0.011,-1.84112 0.3827,-2.53742 2.7806,-5.17467 5.9377,-8.69958 9.9748,-12.50576 0.5858,-0.55228 1.7295,-0.18104 2.5654,-0.56865 0.6459,-0.2995 3.7936,-0.58615 6.2616,-0.54387 z"
       id="path3456"
       inkscape:connector-curvature="0"
       sodipodi:nodetypes="csccscsssssscscsssssccccccsscssssscscc" />
    <path
       style="fill:#ff0000;fill-opacity:1;stroke:#ffffff;stroke-width:0.89585048px;stroke-linecap:butt;stroke-linejoin:miter;stroke-opacity:0"
       d="m 822.0636,576.94694 c -0.8533,0 -2.5596,0.85321 -2.5596,0 0,-0.85318 3.4127,0 2.5596,0 -10.874,0 -6.255,20.5486 -5.1193,21.11648 8.4654,4.23265 10.7803,-14.04013 5.1193,-21.11648 z"
       id="path3476"
       inkscape:connector-curvature="0" />
    <path
       style="fill:#ff0000;fill-opacity:1;stroke:#ffffff;stroke-width:0.89585048px;stroke-linecap:butt;stroke-linejoin:miter;stroke-opacity:0"
       d="m 1018.5107,578.86662 c 0.031,-0.024 -0.1133,-1.16649 -4.4792,3.19947 -3.1446,3.14451 -0.6922,25.00809 6.399,17.917 4.5189,-4.51899 6.4421,-21.11647 -1.9198,-21.11647 z"
       id="path3478"
       inkscape:connector-curvature="0" />
    <path
       style="fill:#ff0000;fill-opacity:1;stroke:#ffffff;stroke-width:0.89585048px;stroke-linecap:butt;stroke-linejoin:miter;stroke-opacity:0"
       d="m 834.8547,721.69786 c -1.6372,2.34401 -2.2285,5.0864 -2.0469,7.83098 0.174,2.63098 -0.915,5.554 -0.7277,8.38498 0.3501,5.28976 7.4069,5.27441 9.6197,0.004 1.808,-4.30554 1.2398,-13.95124 -1.7372,-16.55865 -1.2837,-1.12428 -3.4053,0.22539 -5.1079,0.33808 z"
       id="path3480"
       inkscape:connector-curvature="0" />
    <path
       style="fill:#ff0000;fill-opacity:1;stroke:#ffffff;stroke-width:0.89585048px;stroke-linecap:butt;stroke-linejoin:miter;stroke-opacity:0"
       d="m 991.2217,726.4598 c 0.1508,2.79549 -0.5935,5.19761 -0.2467,7.78073 0.1872,1.3947 -0.8597,3.21499 -0.6726,4.6097 0.4355,3.24348 4.9796,8.39103 8.2915,4.05204 0.691,-0.90505 4.1214,-28.47197 -7.3722,-16.44247 z"
       id="path3482"
       inkscape:connector-curvature="0" />
    <path
       style="fill:#ffff00;stroke:#ffffff;stroke-width:1px;stroke-linecap:butt;stroke-linejoin:miter;stroke-opacity:0"
       d="m 539.90625,664.3927 c -6.58061,0.1571 -13.94584,1.98855 -17.90625,3.96875 -18.70561,9.35281 -22.00785,19.0157 -31,37 -3.87047,7.74094 0,20.54845 0,29 0,6.40412 -0.73737,18.81192 0.5625,26.84375 -4.61788,-0.15455 -9.1588,0.0949 -13.25,1.71875 -2.55166,0.90497 -5.90317,1.59025 -7.125,2.71875 -4.54865,4.2012 7.47795,15.33555 12.40625,15.53125 1.65669,0.0658 5.17429,0.0593 9.3125,0.0312 -0.46921,2.77032 -0.90625,5.32516 -0.90625,7.15625 0,19.10328 2.00229,51.99798 4,58 -4.55594,22.77973 9.37366,26.25269 17,11 3.15294,-6.30589 -2.11267,-16.77465 1,-23 3.45305,-6.9061 2.4548,-40.0904 -1,-47 -0.34451,-0.68903 -0.58987,-3.14475 -0.75,-6.53125 19.36021,-0.56012 41.3334,-1.75367 43.5625,-3.8125 2.57727,-2.38041 2.14163,-3.39005 2.28125,-6.90625 0.46739,-11.77037 -24.30412,-7.97837 -32.71875,-8.3125 -4.50698,-0.17897 -8.99917,0.0116 -13.40625,0.125 -0.005,-6.95658 0.0312,-13.41726 0.0312,-15.5625 0,-6.30622 1.25973,-16.48055 -1,-21 -1.30285,-2.60571 -0.11636,-12.88364 1,-14 0.63431,-0.63431 -0.41629,-3.16741 0,-4 5.16189,-10.32377 8.27798,-16 22,-16 2.78225,0 5.62326,-0.37673 7,1 1.43175,1.43176 6.27447,0.27447 8,2 2.85584,2.85584 8.29392,6.29393 11,9 4.16356,4.16356 3.43215,36 13,36 21.17754,0 5.00248,-47.99505 0,-58 -4.14299,-8.28597 -17.18007,-13.39336 -25,-16 -2.27353,-0.75784 -5.10257,-1.04016 -8.09375,-0.96875 z"
       id="path4622"
       inkscape:connector-curvature="0" />
    <path
       style="fill:#ffff00;stroke:#ffffff;stroke-width:1px;stroke-linecap:butt;stroke-linejoin:miter;stroke-opacity:0"
       d="m 600,699.36218 c -7.86175,10.01094 -13,27.53724 -13,41 0,13.01424 -4,24.91906 -4,38 0,16.83308 13.47302,71.52698 32,53 1.49092,-1.49092 0.92433,-8.15135 0,-10 -2.61005,-5.2201 -4.42886,-9.42886 -8,-13 -1.74565,-1.74565 -11.80368,-41.19632 -9,-44 3.49865,-3.49864 7.36217,-40.36217 16,-49 1.20128,-1.20128 3.87694,-13.12306 2,-15 -4.30008,-4.30007 -8.42477,-4.03009 -16,-1 z"
       id="path4679"
       inkscape:connector-curvature="0" />
    <path
       style="fill:#ffff00;stroke:#ffffff;stroke-width:1px;stroke-linecap:butt;stroke-linejoin:miter;stroke-opacity:0"
       d="m 621,707.36218 c 8.26855,16.52292 14.83079,34.61884 14.85482,53.29374 -0.47884,8.35099 -4.41461,15.74303 -3.5628,24.22153 -1.58938,6.10587 -2.02939,12.72407 -5.92242,18.00373 -5.72231,6.97091 -6.38911,16.46745 -5.59984,25.06972 2.96166,9.4013 14.13945,-0.22741 18.30457,-4.29262 7.00471,-8.85163 6.58475,-20.9276 10.56972,-31.11462 3.68798,-6.24684 3.51553,-13.3916 3.32911,-20.37257 -0.35242,-11.32625 -0.44212,-22.73502 -2.55959,-33.90649 -2.65146,-5.52055 1.7293,-12.8096 -4.56445,-17.1265 -4.27202,-5.3944 -5.25928,-12.88075 -11.55063,-16.8529 -4.52964,-6.06379 -11.49421,-3.78187 -13.29849,3.07698 z"
       id="path4720"
       inkscape:connector-curvature="0" />
  </g>
</svg>
