<?xml version="1.0" encoding="UTF-8" standalone="no"?>
<!-- Created with Inkscape (http://www.inkscape.org/) -->

<svg
   xmlns:dc="http://purl.org/dc/elements/1.1/"
   xmlns:cc="http://creativecommons.org/ns#"
   xmlns:rdf="http://www.w3.org/1999/02/22-rdf-syntax-ns#"
   xmlns:svg="http://www.w3.org/2000/svg"
   xmlns="http://www.w3.org/2000/svg"
   xmlns:sodipodi="http://sodipodi.sourceforge.net/DTD/sodipodi-0.dtd"
   xmlns:inkscape="http://www.inkscape.org/namespaces/inkscape"
   width="500"
   height="500"
   id="svg2"
   version="1.1"
   inkscape:version="0.48.1 r9760"
   sodipodi:docname="tracer_bullet.svg"
   inkscape:export-filename="/home/substack/media/vector/tracer_bullet.png"
   inkscape:export-xdpi="79.659515"
   inkscape:export-ydpi="79.659515">
  <defs
     id="defs4" />
  <sodipodi:namedview
     id="base"
     pagecolor="#000000"
     bordercolor="#666666"
     borderopacity="1.0"
     inkscape:pageopacity="1"
     inkscape:pageshadow="2"
     inkscape:zoom="0.70710678"
     inkscape:cx="366.34342"
     inkscape:cy="231.92612"
     inkscape:document-units="px"
     inkscape:current-layer="layer1"
     showgrid="false"
     inkscape:window-width="1364"
     inkscape:window-height="766"
     inkscape:window-x="0"
     inkscape:window-y="0"
     inkscape:window-maximized="0" />
  <metadata
     id="metadata7">
    <rdf:RDF>
      <cc:Work
         rdf:about="">
        <dc:format>image/svg+xml</dc:format>
        <dc:type
           rdf:resource="http://purl.org/dc/dcmitype/StillImage" />
        <dc:title></dc:title>
      </cc:Work>
    </rdf:RDF>
  </metadata>
  <g
     inkscape:label="Layer 1"
     inkscape:groupmode="layer"
     id="layer1"
     transform="translate(0,-552.36218)">
    <path
       style="fill:#e3dbdb;fill-opacity:1;stroke:none;stroke-width:1px;stroke-linecap:butt;stroke-linejoin:miter;stroke-opacity:1"
       d="m 244.375,676.89343 c -1.02677,0.14528 -2.11518,0.24644 -3.375,0.34375 -7.82268,-0.10172 -19.95929,3.82276 -32.21875,9.375 3.67263,-0.11363 6.67652,-0.47889 8.21875,-1.25 8.45604,-4.22802 19.00442,-0.001 28,-3 0.88134,-0.29378 1.79942,-0.56182 2.71875,-0.8125 -1.03799,-0.68319 -1.95604,-1.42479 -2.71875,-2.1875 -0.48108,-0.48108 -0.65171,-1.36841 -0.625,-2.46875 z"
       id="path4647" />
    <path
       style="fill:#e3dbdb;fill-opacity:1;stroke:none;stroke-width:1px;stroke-linecap:butt;stroke-linejoin:miter;stroke-opacity:1"
       d="m 289.65625,677.67468 c -0.26539,0.85039 -0.74024,1.67322 -1.4375,2.4375 4.73349,0.51352 9.37034,1.15058 13.8125,1.875 -3.42938,-1.31561 -7.69293,-2.82454 -12.375,-4.3125 z"
       id="path4645" />
    <path
       style="fill:#e3dbdb;fill-opacity:1;stroke:none;stroke-width:1px;stroke-linecap:butt;stroke-linejoin:miter;stroke-opacity:1"
       d="m 179.59375,740.51843 c -0.71108,8.58896 0.71875,-6.90202 0.71875,4.96875 0,2.86521 2.71902,9.78152 4.25,11.3125 1.01987,1.01986 3.95805,-0.71875 4.25,-0.71875 1.94409,0 4.9375,-0.26807 4.9375,-0.71875 0,-2.27674 -2.4495,-5.262 -3.53125,-6.34375 -0.35426,-0.35426 -0.25519,-2.38018 -0.71875,-2.84375 -2.60265,-2.60264 -4.53957,-4.31458 -9.90625,-5.65625 z"
       id="path4643" />
    <path
       style="fill:#e3dbdb;fill-opacity:1;stroke:none;stroke-width:1px;stroke-linecap:butt;stroke-linejoin:miter;stroke-opacity:1"
       d="m 402.03125,764.95593 c 0.24867,0.16968 0.40035,0.3125 0.3125,0.3125 -0.1809,0 -0.24921,-0.13625 -0.3125,-0.3125 z"
       id="path4641" />
    <path
       style="fill:#e3dbdb;stroke:none;stroke-width:1px;stroke-linecap:butt;stroke-linejoin:miter;stroke-opacity:1;fill-opacity:1"
       d="M 235.40625 173.8125 C 235.51819 174.82776 235.506 175.7164 234.75 175.625 C 234.22268 175.56126 234.07653 174.75984 234.125 173.875 C 233.42587 173.93079 232.69868 174.02318 232 174.15625 C 233.68789 196.00805 274.7421 187.25785 275.6875 179.4375 C 275.80752 178.44474 273.71152 179.21375 272.71875 179.09375 L 261.8125 177.75 C 258.12795 177.30458 253.62062 176.12735 249.28125 175.34375 C 249.52451 180.00786 245.43631 185.92563 239.96875 182.3125 C 235.28795 179.21927 237.55604 177.08521 236.4375 173.84375 C 236.09316 173.83822 235.75055 173.80448 235.40625 173.8125 z "
       transform="translate(0,552.36218)"
       id="path4138" />
    <path
       style="fill:#e3dbdb;stroke:none;stroke-width:1px;stroke-linecap:butt;stroke-linejoin:miter;stroke-opacity:1;fill-opacity:1"
       d="M 321.53125 178.15625 C 316.08127 178.32981 310.23488 180.61534 304.46875 180.71875 C 307.75043 184.54862 301.41741 188.77079 296.5625 185.5625 C 293.76195 183.71181 292.69769 181.3783 293.4375 179.75 C 292.20062 179.75495 290.9646 179.84983 289.71875 180.125 C 289.99143 183.65519 289.8271 184.88811 290.96875 186.34375 C 292.09391 187.77836 311.87458 189.71169 313.9375 188.09375 C 316.2564 186.27504 324.9585 178.3432 324.1875 178.25 C 323.30827 178.14371 322.4329 178.12754 321.53125 178.15625 z "
       transform="translate(0,552.36218)"
       id="path4140" />
    <path
       style="fill:#c8b7b7;stroke:none;stroke-width:1px;stroke-linecap:butt;stroke-linejoin:miter;stroke-opacity:1;fill-opacity:1"
       d="M 203.90625 119.84375 C 201.73913 119.84659 199.76316 120.38493 198.0625 121.71875 C 197.50611 122.15513 195.65015 120.90737 195.09375 121.34375 C 193.79565 122.36185 192.74141 123.89862 191.84375 125.6875 C 191.93148 125.73271 192 125.82083 192 126 L 236 129 C 238.19839 131.19839 239.75383 133.95853 240.78125 137.09375 C 243.80112 136.73933 246.49545 136.62134 248.59375 136.875 C 249.86326 137.02848 252.97031 137.1174 256.25 137.5 C 263.59217 135.05939 270.79229 135.55414 278.875 136.53125 C 280.00803 136.66823 285.95106 137.52142 288.53125 138.21875 C 287.82045 137.55786 287.04253 136.60267 286.9375 136.46875 C 286.58946 136.02499 280.74704 134.73524 280.09375 134.65625 C 262.74382 132.55883 245.41685 128.45201 227.71875 126.3125 C 220.82606 125.47925 212.81357 120.91211 206.125 120 C 205.36494 119.89635 204.62862 119.8428 203.90625 119.84375 z M 192 126 C 191.35651 126.85799 190.85265 128.66859 190.21875 129.59375 C 189.97168 130.31664 189.74838 131.04373 189.53125 131.78125 C 191.04179 134.48652 192 140.72619 192 126 z M 171 127.53125 C 171.04448 127.54988 171.17221 127.59033 171.375 127.65625 C 171.3335 127.59315 171.28023 127.54246 171.1875 127.53125 C 171.0127 127.51015 170.95552 127.51262 171 127.53125 z M 171.375 127.65625 C 171.99645 128.60203 167.24163 135.09331 168.75 139.3125 C 169.61126 141.72162 168.0571 148.74855 169.40625 150.46875 C 170.05676 151.29818 171.07771 153.68901 170.03125 153.5625 C 163.03983 152.71732 161.42565 143.88509 156.125 151.90625 C 155.71407 152.5281 154.12069 151.91631 154.03125 152.65625 C 153.32484 158.49967 169.28 159.73215 169.0625 161.53125 C 168.88458 163.00311 161.78958 163.62709 160.53125 165.53125 C 159.50918 167.07789 160.90456 167.1447 161.28125 167.625 C 162.00854 168.55232 161.08521 170.79144 161.8125 171.71875 C 164.30304 174.89425 172.9077 170.91474 174.46875 175.28125 C 174.66596 175.83291 172.82448 178.58685 170.90625 181.25 C 170.88517 182.0288 170.90305 182.7751 171.125 183.21875 C 172.25526 185.47927 176.14716 183.30343 178.1875 185.34375 C 178.66507 185.82132 178.95056 186.46946 179.25 187.125 C 180.77302 186.68897 182.44422 186.32234 184.09375 186.0625 C 182.5181 184.49041 179.86647 182.99087 178.65625 182.78125 C 178.27654 183.24828 178 183.37239 178 183 C 178 182.75454 178.26519 182.71351 178.65625 182.78125 C 180.16917 180.9204 183.73736 173.73736 182 172 C 181.12852 171.12852 172.47132 167.19582 171.125 167.03125 C 170.51615 167.03801 170.18921 167 171 167 C 171.02184 167 171.09635 167.02775 171.125 167.03125 C 172.12526 167.02015 174.14035 166.85965 175 166 C 175.7656 165.2344 170.00526 161.99474 172 160 C 172.69969 159.30031 175.67853 162.32147 177 161 C 181.08908 156.91092 169.85376 151.14624 175 146 C 176.16667 144.83333 176.83333 143.16667 178 142 C 178.30899 141.69101 180.71042 145.71042 181 146 C 184.27148 149.27148 190.28461 146.71539 191 146 C 194.50487 142.49513 188.83029 139.13699 188.0625 137.375 C 187.08892 141.36201 186.32629 144.47386 185.25 144.34375 C 181.53853 143.89507 179.51633 133.59588 177.75 131.34375 C 176.04973 129.17588 172.54096 128.03498 171.375 127.65625 z M 288.5625 138.21875 C 289.04225 138.66209 289.47833 139.00781 289.6875 138.84375 C 289.89367 138.68205 289.41798 138.4516 288.5625 138.21875 z "
       transform="translate(0,552.36218)"
       id="path4148" />
    <path
       style="fill:#6c5353;fill-opacity:1;stroke:none;stroke-width:1px;stroke-linecap:butt;stroke-linejoin:miter;stroke-opacity:1"
       d="M 283.8125 20.9375 C 280.0284 22.436045 276.20994 23.980742 272.71875 25.4375 C 273.15131 26.061094 273.59001 26.590008 274 27 C 275.66667 28.666667 281.33333 26.333333 283 28 C 286.64255 31.642552 292.92922 33.929225 297 38 C 304.48048 45.48048 306.15903 69.159026 310 73 C 313.84741 76.847411 316.90616 81.446124 320 85.90625 C 319.09813 81.069407 318.37637 76.355305 317.5625 73.40625 C 314.23187 61.33766 307.34898 43.143265 303.90625 31.40625 C 302.20307 30.197974 300.81586 28.815855 300 28 C 297.72327 25.723267 288.90472 23.84157 283.8125 20.9375 z M 223 23 C 213.13551 23 205.72002 28.818872 200.25 35.78125 C 198.98696 38.996111 197.90369 42.324037 197.75 45.25 C 196.99112 59.697403 192.62914 74.689232 188.40625 89.1875 C 203.68029 87.581798 218.89032 87 235 87 C 240.11593 87 256.82514 86.575338 272.3125 86.65625 C 272.28462 71.185906 272.04216 55.042158 269 52 C 264.65231 47.652313 262.4005 39.400503 258 35 C 254.89642 31.896415 245.22025 33.626216 243.3125 28.125 C 237.06144 26.342027 229.76232 24.442263 223.21875 23 C 223.15065 23.0011 223.06599 23 223 23 z M 166.875 111.75 C 162.9582 112.02747 136.84217 117.19789 132.96875 115 C 131.83477 114.35655 122.96251 114.68622 117.25 116.1875 C 119.68603 118.51453 121.86391 121.32076 122.6875 123.875 C 127.43893 125.47763 132.68717 126.35225 137.40625 127.28125 C 142.91389 128.36549 152.14505 133.75824 157.9375 134.0625 C 161.95936 134.27376 168.17037 135.09067 172.0625 136.375 C 177.5923 138.19973 182.90845 141.23586 188.21875 142.28125 C 201.0921 144.8155 216.40441 158.32944 231.875 161.375 C 246.08879 164.17314 261.80876 162.93716 276.09375 163.6875 C 284.47747 164.12787 293.49989 159.21305 301.9375 159.65625 C 307.41857 159.94415 317.55428 152.70283 320.96875 153.375 C 328.68465 154.89397 341.23918 148.61174 347.6875 144.96875 C 348.97343 144.24226 350.33764 143.6555 351.75 143.15625 C 342.39092 140.87205 333.05794 138.52897 328 136 C 324.86547 134.43273 320.13453 135.56727 317 134 C 313.82103 132.41052 311.12247 133.56123 308 132 C 296.86569 126.43284 285.54019 125.27734 277.46875 119.8125 C 259.81961 122.52521 240.04097 125.04097 236 121 C 234.33333 119.33333 228.66667 121.66667 227 120 C 225.83333 118.83333 222.16667 120.16667 221 119 C 218.89489 116.89489 198.37641 119.37641 194 115 C 192.28566 113.28566 183.74449 114.34123 177.8125 112.25 C 172.78685 112.54648 168.75691 112.55187 167.34375 111.75 C 167.29305 111.7212 167.13612 111.7315 166.875 111.75 z M 400.65625 118.25 C 397.05953 118.2155 392.97552 118.54101 388.03125 118.28125 C 385.65852 118.15662 382.63174 120.86282 380.3125 120.40625 C 378.30617 120.01128 376.2606 119.78069 374.1875 119.6875 C 377.7251 121.34096 381.34897 122.78299 385 124 C 386.3966 124.46553 389.82431 126.483 393.59375 128.96875 C 395.54536 128.25018 397.50902 127.51261 399.3125 126.84375 C 399.333 126.83975 399.3546 126.816 399.375 126.8125 C 407.98332 125.34876 415.89795 123.52239 410.40625 120.40625 C 407.3624 118.67909 404.25297 118.28453 400.65625 118.25 z "
       transform="translate(0,552.36218)"
       id="path4019" />
    <path
       style="fill:#c8b7b7;stroke:none;stroke-width:1px;stroke-linecap:butt;stroke-linejoin:miter;stroke-opacity:1;fill-opacity:1"
       d="m 84.625,748.95593 c -0.644134,0.005 -1.820725,0.75 -2.59375,0.75 -0.06114,0 -0.126117,-5.5e-4 -0.1875,0 l 12.28125,4.8125 c -2.064087,-1.39881 -4.106103,-2.76119 -6.03125,-4 -0.676811,-0.28297 -1.573458,-0.66173 -3.25,-1.5 -0.06786,-0.0339 -0.126731,-0.0633 -0.21875,-0.0625 z"
       id="path5630" />
    <path
       style="fill:#c8b7b7;stroke:none;stroke-width:1px;stroke-linecap:butt;stroke-linejoin:miter;stroke-opacity:1;fill-opacity:1"
       d="m 78.34375,754.70593 c -0.348061,-0.01 -0.733636,0.008 -1.125,0.0312 -3.032817,0.17796 -7.195282,1.27661 -9.78125,2.03125 -1.951416,4.31262 -0.118618,21.54401 1.84375,25.46875 0.447278,0.89456 -1.404366,6.37688 -0.6875,7.09375 1.36052,1.36052 1.451656,3.72309 1.40625,6.21875 4.479032,-0.10876 9.248943,-0.20365 9.90625,0.125 7.603393,3.80169 18.397436,6.02685 26.15625,9.90625 3.40838,1.70419 12.43542,1.84168 9.1875,-1.40625 -2.78468,-2.78468 -10.077,-2.327 -12.71875,-4.96875 -1.07137,-1.07137 2.01481,-0.57731 2.125,-0.6875 1.72481,-1.72482 1.35949,-4.25 4.9375,-4.25 3.64718,0 10.94734,-1.04109 12.75,-2.84375 0.79746,-0.79746 -0.71875,-1.5623 -0.71875,-2.09375 0,-0.29116 0.18717,-1.93783 0,-2.125 -0.61216,-0.61216 -27.086133,-17.44512 -24.03125,-20.5 0.333447,-0.33345 0.769782,-0.59304 1.28125,-0.8125 -7.44398,-3.18952 -15.889423,-8.17067 -18.25,-10.53125 -0.428693,-0.42869 -1.237067,-0.62735 -2.28125,-0.65625 z"
       id="path5628" />
    <path
       style="fill:#c8b7b7;fill-opacity:1;stroke:none;stroke-width:1px;stroke-linecap:butt;stroke-linejoin:miter;stroke-opacity:1"
       d="m 325.875,759.06929 c 0.0284,-0.22016 -1.42602,4.01206 -1.15625,3.59375 -0.10034,0.30266 -0.0375,0.14363 -0.15625,0.5 -0.37815,1.13446 -2.125,4.86851 -2.125,5.65625 0,1.61906 0.42454,3.81864 0.125,4.1875 0.82087,-0.14217 4.80094,-0.6447 5.53125,-1.375 0.36993,-0.36994 0.89307,-0.58581 1.46875,-0.75 -0.0169,0.0168 -0.0463,0.0463 -0.0625,0.0625 -2.55908,2.55908 -10.59375,1.97292 -10.59375,4.9375 0,0.56363 -1.55781,3.97819 -3.8125,8.0625 0.12192,-0.12121 0.15141,-0.15141 0.28125,-0.28125 3.6021,-3.60209 14.06865,5.98745 14.84375,6.375 0.003,10e-4 0.0276,0.0294 0.0312,0.0312 1.98542,-5.93838 4.07704,-13.35829 7.03125,-16.3125 1.59382,-1.59381 -1.33145,-6.34375 -2.125,-6.34375 -0.12059,0 -0.21804,-0.0183 -0.34375,0 -0.10096,0.0147 -0.20876,0.0369 -0.3125,0.0625 -0.013,-0.0212 -0.0153,-0.0466 -0.0312,-0.0625 -2.89905,-2.89905 -3.02358,-5.59068 -8.5,-7.78125 -0.72544,1.86774 -1.07716,2.72532 -1.21875,3 0.70607,-2.13073 1.11361,-3.4742 1.125,-3.5625 z m -3.3125,13.9375 c -0.15749,0.0273 -0.25009,0.0625 -0.125,0.0625 0.042,0 0.0966,-0.0276 0.125,-0.0625 z"
       id="path5626"
       inkscape:connector-curvature="0" />
    <path
       style="fill:#c8b7b7;stroke:none;stroke-width:1px;stroke-linecap:butt;stroke-linejoin:miter;stroke-opacity:1;fill-opacity:1"
       d="M 290.875 253.84375 C 289.25144 254.24858 287.62955 254.80795 286.375 256.0625 C 279.85779 262.5797 274.95813 272.71696 273.875 285 C 260.46192 281.67845 242.59085 276.6221 242.53125 276.5625 C 242.25363 276.28488 241.94656 275.99625 241.65625 275.71875 C 241.03316 275.50294 238.8682 275.21634 236.75 274.96875 C 233.17836 283.91072 232.4193 293.27853 230.53125 302.71875 C 229.52042 307.77288 230.10339 313.23305 229.09375 318.28125 C 227.86789 324.41051 224.875 332.0221 224.875 338.0625 C 224.875 343.78936 222.75 349.43054 222.75 355.75 C 222.75 361.79711 222.8124 368.5312 222.75 368.46875 C 220.52248 366.24123 219.69929 340.63267 222.75 334.53125 C 224.49423 331.04278 221.54629 325.14121 224.15625 322.53125 C 226.43401 320.25349 222.62224 310.62775 224.875 308.375 C 227.48264 305.76736 228.06199 285.85248 229.40625 273.28125 C 226.84721 272.53402 223.4375 271.89322 223.4375 273.03125 C 223.4375 284.40158 227.19128 296.15247 219.90625 303.4375 C 217.07605 306.2677 212.28715 301.47465 210 299.1875 C 208.24958 297.43708 206.56613 295.08597 204.875 292.8125 C 205.82903 290.56824 206.41338 288.42051 205.78125 287.15625 C 202.09497 279.78369 196.11901 275.27816 190.3125 270.6875 C 191.57368 274.98591 169.15524 272.59426 168.28125 273.03125 C 162.31786 276.01295 175.00507 288.93243 174.65625 289.28125 C 172.74418 291.19333 160.45427 287.53848 156.96875 289.28125 C 154.22034 290.65545 151.8873 292.67931 148.5 294.9375 C 143.69282 298.14229 130.32961 314.9546 129.40625 314.03125 C 128.23098 312.85598 128.52059 300.59375 128 300.59375 C 125.00382 300.59375 119.64654 306.10346 115.96875 309.78125 C 112.83829 312.91171 109.35626 315.00635 108.0625 315.78125 C 107.9653 316.00811 107.77646 316.15625 107.46875 316.15625 C 107.42545 316.15625 107.70723 315.99404 108.0625 315.78125 C 108.41809 314.95108 107.68393 312.91339 108.1875 311.90625 C 109.67479 308.93167 111.42726 306.46821 112.4375 303.4375 C 114.39992 297.55023 128 289.02551 128 287.15625 C 128 287.07305 125.97898 287.26024 125.875 287.15625 C 122.35968 283.64093 90.5 277.87626 90.5 276.5625 C 90.5 266.05537 118.09375 282.29644 118.09375 278.6875 C 118.09375 276.36201 115.49234 276.80484 113.125 274.4375 C 109.70912 271.02162 105.30352 267.33926 99.6875 264.53125 C 95.842094 262.60855 90.275059 261.93441 86.96875 260.28125 C 83.633614 258.61368 77.937755 259.28088 73.96875 257.9375 C 74.277774 258.71018 74.590903 259.48521 74.90625 260.25 C 74.446323 265.84069 73.813777 271.66008 74.96875 275.125 C 79.560287 288.89962 74.500752 306.346 79.1875 320.40625 C 80.391228 324.01743 78.688209 328.75213 79.90625 332.40625 C 84.738196 346.90209 89.501693 360.40794 99.6875 370.59375 C 103.09508 374.00133 110.16821 371.24035 114.5625 373.4375 C 123.15669 377.73459 133.35646 370.75927 139.3125 367.78125 C 143.29848 365.78826 146.42503 363.76179 148.8125 361.9375 C 149.33199 361.9867 149.82828 361.9715 150.3125 361.9375 C 149.23837 360.83252 148.34581 359.72287 147.78125 358.59375 C 142.9084 348.84806 135.19304 330.4094 139.3125 319.6875 C 141.76753 320.17851 142.60628 320.16879 143.53125 321.09375 C 144.36785 321.93035 145.04961 325.53672 145.65625 326.75 C 147.55124 330.53998 151.82636 334.15272 153.4375 337.375 C 154.04953 338.59906 162.33131 348.30045 166.28125 352.4375 C 170.07127 350.25327 172.86212 347.82126 175.09375 345.25 C 174.54534 344.37613 173.99828 343.43491 173.25 342.3125 C 170.37114 337.9942 168.35265 333.20085 165.46875 328.875 C 164.87348 327.9821 158.43311 316.15625 160.5 316.15625 C 163.11694 316.15625 166.78284 318.2975 170.40625 320.84375 C 171.57716 330.59625 175.07803 340.0466 178.1875 349.375 C 181.47614 359.24092 184.99961 369.09258 188.09375 378.375 C 188.73337 380.29386 195.87289 385.34544 195.96875 386.0625 C 196.81719 385.84425 200.73784 385.4158 203.65625 386.875 C 207.79004 388.9419 212.67714 390.28438 217.5 391.59375 C 216.71109 389.79304 215.89431 387.75139 214.96875 385.4375 C 212.58315 379.47349 209.42194 373.25026 207.875 367.0625 C 206.51566 361.62511 206.7047 351.97189 204.34375 347.25 C 204.30855 347.1796 202.70019 344.67481 203.65625 343.71875 C 205.90078 341.47422 219.39242 369.02101 220.625 372.71875 C 221.25743 374.61605 223.00045 375.92255 224.15625 377.65625 C 228.30274 383.87598 231.74518 390.68085 234.9375 397.09375 C 240.76166 399.00276 246.7383 400.76888 252.4375 401.71875 C 263.77662 403.6086 281.21291 405.49708 289.21875 409.5 C 289.35886 409.41967 289.48662 409.33168 289.625 409.25 C 277.69333 398.68684 262.74141 372.82656 255.96875 359.28125 C 255.68024 358.70423 254.80355 356.86677 253.9375 354.6875 C 253.91266 354.78933 253.84757 355.02743 253.84375 355.03125 C 248.47343 360.40157 235.36024 359.21619 234.15625 351.28125 C 233.93822 350.85703 233.92998 350.50397 234.0625 350.09375 C 234.0625 350.51048 234.09784 350.89633 234.15625 351.28125 C 234.51963 351.98828 235.40447 352.87322 236.875 354.34375 C 237.20187 354.67062 238.57307 354.13029 239 354.34375 C 243.5222 356.60486 249.52208 355.76179 253.0625 352.3125 C 251.92584 348.8961 251.29598 345.36763 253.15625 344.4375 C 253.27052 344.38037 253.79015 344.6881 254.46875 345.125 C 254.00744 343.65246 253.47819 341.9157 253.15625 341.59375 C 251.62418 340.06169 250.43831 338.18832 248.90625 336.65625 C 247.01377 334.76378 241.63648 335.82707 238.1875 337.25 C 238.21777 337.28483 238.25612 337.32474 238.28125 337.375 C 238.75265 338.31781 234.72339 339.52661 235.46875 338.78125 C 235.70445 338.6634 235.97747 338.44709 236.25 338.21875 C 236.13325 338.29252 236.00637 338.33373 235.90625 338.40625 C 239.29981 335.49238 241.1158 331.71875 245.375 331.71875 C 251.85949 331.71875 252.45774 335.989 255.25 338.78125 C 255.81438 339.34564 254.87907 341.57064 255.25 342.3125 C 255.85463 343.52176 256.15777 344.96166 255.875 346.09375 C 260.2393 349.20258 268.30172 355.6972 268.6875 356.46875 C 269.75081 358.59537 272.41851 360.1685 273.65625 361.40625 C 274.72061 362.47061 275.69293 364.79211 276.46875 366.34375 C 277.2291 367.86446 279.48372 370.21143 282.03125 372.53125 C 285.40888 371.63141 291.52561 371.49436 292.75 372.71875 C 294.59695 374.5657 294.65608 376.56216 295.5625 378.375 C 296.03255 379.3151 296.362 380.48678 296.53125 381.625 C 297.31256 381.70846 298.00752 381.61748 298.40625 381.21875 C 301.11738 378.50762 295.04909 373.2634 297 371.3125 C 297.03981 371.27268 297.10756 371.24948 297.15625 371.21875 C 294.86451 369.57239 290.44008 368.28383 288.5 366.34375 C 288.21782 366.06157 287.49843 366.00073 286.78125 366.03125 C 286.15998 366.21541 285.55453 366.34375 284.96875 366.34375 C 284.55922 366.34375 285.67214 366.07845 286.78125 366.03125 C 289.86242 365.1179 293.39612 362.77111 297.6875 367.0625 C 298.59507 367.97006 299.1327 369.22646 299.8125 369.90625 C 300.18517 370.27893 301.48991 370.14181 301.21875 370.59375 C 301.14564 370.7156 301.04653 370.8177 300.96875 370.9375 C 303.67993 372.0499 308.5819 374.57435 311.84375 371.3125 C 314.06574 369.09051 307.00168 359.40793 305.46875 357.875 C 302.33074 354.73698 299.98271 350.63761 297.65625 346.625 C 294.87564 352.12546 285.88756 361.60631 277.90625 353.625 C 288.66166 357.04498 293.79692 346.96417 291.125 337.65625 C 287.94208 334.89838 283.89592 332.41685 282.125 328.875 C 278.74966 322.12433 274.78248 317.00246 271.53125 310.5 C 269.35397 306.14543 266.77595 297.78125 274.34375 297.78125 C 274.89742 297.78125 277.55342 297.42842 277.90625 297.78125 C 281.66249 301.5375 285.52203 308.92828 289.90625 313.3125 C 292.92282 316.32907 298.60881 318.48382 301.21875 321.09375 C 301.73824 321.61325 306.83279 324.69846 307.59375 323.9375 C 310.78947 320.74178 295.71069 308.76611 299.09375 302 C 300.2719 299.64371 301.82588 299.46971 303.3125 298.40625 C 303.46889 297.75034 303.70449 297.05976 304.0625 296.34375 C 304.67869 295.11137 305.41025 294.01373 306.25 293 C 306.44631 292.41873 306.64756 291.86114 306.875 291.40625 C 309.77117 285.61393 313.29489 281.37898 316.0625 275.84375 C 317.54879 272.87117 318.34742 267.96187 319.65625 263.65625 C 317.47891 263.85447 314.03689 262.40625 313.25 262.40625 C 310.25838 262.40625 297.17183 257.25906 290.875 253.84375 z M 238.1875 337.25 C 237.82758 336.83596 237.16548 337.46611 236.46875 338.0625 C 236.94118 337.78709 237.54421 337.5154 238.1875 337.25 z M 243.71875 370.59375 C 248.1521 370.40575 252.95433 372.54808 255.25 374.84375 C 256.43109 376.02483 255.96875 380.41544 255.96875 381.21875 C 255.96875 382.21495 256.207 391.33201 253.84375 388.96875 C 253.3403 388.46531 255.4949 383.08355 254.5625 381.21875 C 251.65139 375.39655 244.89803 370.2479 238.25 374.09375 C 238.26128 374.10689 238.2702 374.11027 238.28125 374.125 C 238.98836 375.06781 234.63542 377.08334 235.46875 376.25 C 237.05106 372.29421 240.27059 370.73997 243.71875 370.59375 z M 238.25 374.09375 C 237.70251 373.45581 236.9249 374.68356 236.15625 375.59375 C 236.84799 374.98141 237.5516 374.49777 238.25 374.09375 z "
       transform="translate(0,552.36218)"
       id="path5622" />
    <path
       style="fill:#c8b7b7;stroke:none;stroke-width:1px;stroke-linecap:butt;stroke-linejoin:miter;stroke-opacity:1;fill-opacity:1"
       d="m 195.96875,938.42468 c -0.19579,0.0504 -0.28235,0.0937 -0.0937,0.0937 0.0835,0 0.10117,-0.0382 0.0937,-0.0937 z"
       id="path5620" />
    <path
       style="fill:#c8b7b7;stroke:none;stroke-width:1px;stroke-linecap:butt;stroke-linejoin:miter;stroke-opacity:1"
       d="M 151.3125 193.125 C 149.75566 193.77261 148.53714 194.49411 147.78125 195.25 C 144.79153 198.23972 148.4541 209.31445 149.90625 212.21875 C 151.14029 214.68685 151.88621 218.09612 152.75 220.6875 C 155.58248 229.18494 161.18465 236.41802 164 245 C 165.0077 245.31451 165.96751 245.7025 166.875 246.15625 C 174.7422 250.08985 205.90295 273.42759 208.59375 281.5 L 210.21875 286.34375 C 211.0574 286.4227 211.92628 286.46875 212.84375 286.46875 C 213.57165 286.46875 213.72314 287.68311 214.25 287.15625 C 214.67093 286.73532 215.70441 281.54816 214.96875 280.8125 C 213.80415 279.6479 213.50431 274.59336 213.65625 268.03125 C 210.70298 261.17795 207.16112 253.91112 202.9375 249.6875 C 200.29081 247.04081 189.5 240.07434 189.5 238.375 C 189.5 237.04523 198.33392 240.32321 198.6875 240.5 C 199.5667 240.9396 206.62438 240.91735 209.5 241.40625 C 208.87445 240.68316 208.1689 239.65029 207.875 239.0625 C 206.71276 236.73802 204.49557 232.87057 202.9375 231.3125 C 201.5509 229.92591 199.98911 228.46875 200.8125 228.46875 C 203.33652 228.46875 212.55663 232.72522 216.25 231.125 C 216.30852 230.2568 216.3288 229.54216 216.34375 229 C 215.94789 228.73239 215.72895 228.39605 216.375 227.75 C 216.40535 227.71965 216.43829 227.68731 216.46875 227.65625 C 216.83043 224.33669 218.93418 215.46542 217.09375 213.625 C 217.03835 213.5696 216.96475 213.52213 216.90625 213.46875 C 211.36966 215.69908 205.10573 218.25599 201.53125 216.46875 C 199.56066 215.48345 193.7136 215.7136 192.34375 214.34375 C 190.47928 212.47928 185.80322 212.08446 183.125 209.40625 C 177.1562 203.43745 169.52543 201.43168 164.75 196.65625 C 163.0826 194.98884 154.19998 194.56875 151.3125 193.125 z "
       transform="translate(0,552.36218)"
       id="path4508" />
    <path
       style="fill:#c8b7b7;fill-opacity:1;stroke:none;stroke-width:1px;stroke-linecap:butt;stroke-linejoin:miter;stroke-opacity:1"
       d="m 168.56618,736.90079 c -2.72799,0.14532 -6.7461,1.5 -8.0625,1.5 -3.96836,0 -9.51067,2.88795 -12.25,6.0625 7.54749,-0.16463 14.88548,1.18477 19.75,4.5 2.68948,-3.975 4.60287,-8.29427 3.125,-11.25 -0.3362,-0.67241 -1.3225,-0.87856 -2.5625,-0.8125 z"
       id="path4572"
       inkscape:connector-curvature="0" />
    <path
       style="fill:#6c5353;stroke:none;stroke-width:1px;stroke-linecap:butt;stroke-linejoin:miter;stroke-opacity:1;fill-opacity:1"
       d="M 133.5625 146.6875 C 129.2209 146.95397 119.7439 156.09985 118.09375 157.75 C 117.88418 157.95957 117.59409 158.36417 117.28125 158.8125 C 116.46903 159.39678 115.84764 159.96058 115.53125 160.46875 C 115.3177 160.81176 115.10839 161.09601 114.90625 161.375 C 114.93645 161.83035 114.95699 162.27877 114.96875 162.71875 C 113.96889 164.65807 113.125 166.62948 113.125 167.65625 C 113.125 167.70946 113.14496 167.74984 113.15625 167.78125 C 109.39857 171.03195 104.35343 172.29173 99.59375 170.9375 C 99.57512 170.9322 99.54987 170.94288 99.53125 170.9375 C 95.970857 171.0888 89.372864 170.5 86.28125 170.5 C 86.154995 170.5 86.055277 170.49713 85.9375 170.5 C 85.180194 171.65153 84.637558 172.8562 84.375 174.03125 L 80.625 174.03125 C 77.148326 174.03125 71.283031 172.02947 69.28125 174.03125 C 69.259709 174.05279 69.262991 174.09464 69.25 174.125 C 68.50728 173.99002 67.887833 174.01842 67.1875 174.71875 C 65.425254 176.481 70.256265 184.88127 70.71875 185.34375 C 72.141969 186.76697 72.176565 193.86407 72.84375 194.53125 C 72.984574 194.67208 73.467882 194.46738 74.0625 194.125 C 75.386333 196.18141 77.673136 198.36782 81.3125 200.1875 C 86.319686 202.6911 91.693934 204.33134 96.15625 206.5625 C 101.07605 209.02239 116.63336 203.69587 113.125 200.1875 C 113.08245 200.14495 113.04264 200.10446 113 200.0625 C 113.29053 199.71534 113.57871 199.31133 113.84375 198.78125 C 114.98292 196.50291 105.38404 191.0403 103.9375 189.59375 C 102.65797 188.31423 102.12471 186.87353 101.9375 185.34375 L 104.8125 183.125 C 103.77644 183.27097 102.75978 183.46771 101.84375 183.75 C 101.84772 183.51532 101.86125 183.26889 101.875 183.03125 C 103.02792 182.85841 104.43022 182.58373 105.9375 182.25 L 104.8125 183.125 C 108.34345 182.62754 112.10425 182.91675 113.125 183.9375 L 118.09375 188.875 C 118.68301 189.46425 117.5045 191.81699 118.09375 192.40625 C 121.53909 195.85162 116.79886 210.78125 121.625 210.78125 C 122.0964 210.78125 122.69792 211.11458 123.03125 210.78125 C 123.50265 210.30984 122.55985 208.44015 123.03125 207.96875 C 126.2422 204.7578 123.86716 184.32063 123.09375 174.46875 C 123.57225 173.30814 123.59319 172.28495 123.15625 171.53125 C 124.82637 170.90258 126.29937 170.29608 127.65625 169.71875 L 128 169.78125 C 128 169.70764 128.00731 169.63981 128.03125 169.5625 C 130.90613 168.3206 132.95355 167.23943 133.375 166.5625 C 133.59193 166.21407 133.75671 165.7359 133.875 165.21875 C 134.05703 165.08706 134.23434 164.95316 134.34375 164.84375 C 135.01557 164.17192 139.93389 153.46514 137.875 151.40625 C 136.69649 150.22774 136.24101 148.33476 135.0625 147.15625 C 134.68934 146.78309 134.18273 146.64943 133.5625 146.6875 z "
       transform="translate(0,552.36218)"
       id="path5171" />
    <path
       style="fill:#c8b7b7;fill-opacity:1;stroke:none;stroke-width:1px;stroke-linecap:butt;stroke-linejoin:miter;stroke-opacity:1"
       d="M 109.5625 33.875 C 107.49745 33.955133 105.52145 34.541051 103.9375 36.125 C 102.14686 37.915634 104.30363 47.173198 104.0625 52.25 C 104.09602 52.53868 104.12326 52.808112 104.15625 53.09375 C 103.58811 61.023328 102.53125 70.335891 102.53125 72.90625 C 102.53125 80.815637 105.6949 94.8125 101.8125 94.8125 C 100.2468 94.8125 97.989606 96.017907 95.9375 97.21875 C 95.903877 100.24062 95.879882 103.2691 95.6875 104.9375 C 95.474988 106.7805 95.359292 108.7499 95.375 110.6875 C 93.700341 110.45578 91.950063 110.06445 90.28125 109.90625 C 88.83842 109.76949 87.46405 109.79706 86.21875 110.25 C 85.41823 110.54117 84.39372 110.24664 83.375 109.9375 C 83.14291 110.15101 82.891856 110.35082 82.625 110.5625 C 80.461651 112.27851 78.06959 111.62773 75.90625 113.34375 C 74.469916 114.48308 74.561324 117.57942 73.125 118.71875 C 72.432886 119.26775 72.1519 120.04071 72.0625 120.90625 C 72.113406 120.86345 72.16672 120.7913 72.21875 120.75 C 75.199647 118.38548 79.565233 114.3769 83.75 115.5625 C 85.64027 114.96837 87.73721 114.71144 89.96875 114.96875 C 91.172485 115.10756 94.019099 116.30531 95.9375 116.65625 C 96.326882 118.54454 96.935025 120.17504 97.8125 121.28125 C 98.98432 122.75854 96.52334 125.90818 96.25 126.125 C 95.74704 126.52397 94.93917 146.09817 94.59375 149.09375 C 94.03576 153.93289 95.45247 158.12387 97.3125 160.46875 C 97.716 160.97743 97.92455 161.62312 97.96875 162.34375 C 98.62827 161.83949 99.85515 160.75925 99.90625 160.71875 C 100.98284 159.86477 103.69637 159.65314 105.0625 159.15625 C 106.49973 158.6335 112.30238 157.59743 113.03125 157.9375 C 113.03925 157.9415 113.0535 157.9335 113.0625 157.9375 C 113.46387 154.6593 113.84237 150.65417 113.15625 148.6875 C 110.71318 149.64815 107.66977 148.13671 106.1875 149.3125 C 105.69161 149.70584 100.45249 151.76193 99.625 150.71875 C 97.45124 147.97834 101.97376 136.80923 99.78125 130.78125 C 99.27682 129.39439 100.84818 127.26184 100.34375 125.875 C 99.84442 124.50215 99.04107 105.20461 99.96875 104.46875 C 101.57453 103.19498 110.80532 103.06635 116.4375 103.15625 C 117.45807 87.47272 118.0339 71.38109 118.0625 60.46875 C 118.53417 57.93029 119.40713 53.34475 119.40625 53.34375 C 119.38245 53.31365 119.26507 53.30605 119.09375 53.28125 L 119.09375 53.25 C 118.87763 53.2186 118.41677 53.18055 118 53.15625 C 117.84528 53.147213 117.58316 53.133082 117.40625 53.125 C 117.15357 48.817187 116.6875 43.664429 116.6875 38.96875 C 116.6875 38.199766 116.94542 36.461431 117.15625 34.96875 C 114.78096 34.452583 112.10491 33.776343 109.5625 33.875 z "
       transform="translate(0,552.36218)"
       id="path5246" />
    <path
       style="fill:#c8b7b7;fill-opacity:1;stroke:none;stroke-width:1px;stroke-linecap:butt;stroke-linejoin:miter;stroke-opacity:1"
       d="m 111.6875,700.36218 c -0.29639,0.0483 -0.4772,0.19693 -0.4375,0.5 0.0631,0.48182 1.0104,0.22806 1.8125,-0.0625 -0.067,-0.15659 -0.1657,-0.28506 -0.25,-0.40625 -0.41586,-0.047 -0.82861,-0.0795 -1.125,-0.0312 z"
       id="path5242" />
    <path
       style="fill:#c8b7b7;fill-opacity:1;stroke:none;stroke-width:1px;stroke-linecap:butt;stroke-linejoin:miter;stroke-opacity:1"
       d="m 103.09375,706.54968 c 3.0532,-0.1302 6.36164,0.46651 7.65625,0.3125 0.20199,-0.0992 0.39281,-0.20612 0.5625,-0.3125 -0.0204,0.16833 -0.22305,0.2721 -0.5625,0.3125 -4.70992,2.31403 -17.69462,2.68267 -15.21875,0.71875 0.5223,-0.4143 2.32144,0.7268 2.84375,0.3125 1.158615,-0.91905 2.88683,-1.26563 4.71875,-1.34375 z"
       id="path5240" />
    <path
       style="fill:#c8b7b7;fill-opacity:1;stroke:none;stroke-width:1px;stroke-linecap:butt;stroke-linejoin:miter;stroke-opacity:1"
       d="m 112.78125,712.42468 c -2.29747,0.11577 -4.89043,1.58228 -5.875,1.46875 -1.53301,-0.17677 -6.11873,0.3839 -7.25,1.28125 -0.08142,0.0646 -1.06395,-0.13115 -1.65625,-0.21875 0.01285,1.23639 -0.42784,2.71891 -1.09375,4.25 0.04846,-0.0175 0.10885,-0.0452 0.15625,-0.0625 3.539,-1.2872 9.75168,-0.10016 12.34375,-2.15625 0.24834,-0.19699 0.44367,-0.47073 0.625,-0.875 1.04935,0.11311 2.39213,0.43801 3.0625,-0.0937 0.12538,-0.0994 -0.55935,-1.40194 -0.46875,-2.1875 0.0422,-0.36596 0.0953,-0.93942 0.15625,-1.40625 z"
       id="path4714" />
    <path
       style="fill:#c8b7b7;fill-opacity:1;stroke:none;stroke-width:1px;stroke-linecap:butt;stroke-linejoin:miter;stroke-opacity:1"
       d="m 121.07055,634.95445 c 1.98858,2.41823 -0.0297,10.64034 -0.6655,19.80043 -0.13056,1.88036 0.3983,6.17126 -0.53858,7.75951 -0.73817,1.25141 -2.94845,1.90293 -3.72289,2.57683 -1.9132,1.66487 -1.02889,14.8239 -1.22402,17.63525 -0.17734,2.55503 0.53426,10.3957 -0.029,10.6301 -4.42781,1.84263 -6.61875,-10.81051 -4.05656,-13.0401 2.03538,-1.77119 1.0803,-19.4986 2.87965,-21.06437 0.94835,-0.82525 2.83784,-1.80668 3.72289,-2.57684 0.75754,-0.6592 0.31422,-16.96803 3.63402,-21.72081 z"
       id="path5065"
       inkscape:connector-curvature="0" />
    <path
       style="fill:#c8b7b7;fill-opacity:1;stroke:none;stroke-width:1px;stroke-linecap:butt;stroke-linejoin:miter;stroke-opacity:1"
       d="m 119.43846,668.35772 c 1.27883,1.37871 -0.30981,13.43981 -1.00551,22.61611 -0.0399,0.52555 0.99796,1.12019 0.59817,1.46364 -1.0005,0.85948 -0.0919,2.71562 -0.21381,2.82032 -0.3998,0.34344 -1.33755,1.31687 -0.812,1.35672 0.0753,0.006 -0.99063,-5.6407 -0.71524,-9.27299 0.41624,-5.4903 -0.8627,-12.84743 2.14842,-18.98379 z"
       id="path5093"
       inkscape:connector-curvature="0" />
    <path
       style="fill:#c8b7b7;stroke:none;stroke-width:1px;stroke-linecap:butt;stroke-linejoin:miter;stroke-opacity:1;fill-opacity:1"
       d="M 44 149.09375 C 37.881077 149.99951 39.5 150.93142 39.5 161.5 L 39.5 168.5 C 39.5 168.655 39.39693 168.84222 39.28125 168.96875 C 40.892518 168.86421 49.798935 169.5 51 169.5 C 53.893554 169.5 66.186046 170.31395 66.5 170 C 66.689614 169.81039 67.164304 169.6886 67.75 169.5625 C 59.437267 167.65588 47.231141 167.73114 44.5 165 C 44.180988 164.68099 44 152.8324 44 151 L 44 149.09375 z M 39.28125 168.96875 C 39.120577 168.97917 39 168.97296 39 169 C 39 169.17833 39.148155 169.11433 39.28125 168.96875 z "
       transform="translate(0,552.36218)"
       id="path5258" />
    <path
       style="fill:#6c5353;fill-opacity:1;stroke:none;stroke-width:1px;stroke-linecap:butt;stroke-linejoin:miter;stroke-opacity:1"
       d="m 62.8125,682.70593 c -0.106219,0.0236 -0.21933,0.0631 -0.3125,0.15625 -1.354471,1.35447 -2.327112,2.15422 -3.5,4.5 -1.617062,3.23413 -0.389644,11.3054 2.0625,14.8125 2.1114,9.20026 9.503742,17.77401 12.53125,12.5625 1.974057,-3.39811 -0.379864,-9.99502 -0.1875,-13.0625 0.267257,-4.26165 -0.860218,-7.73101 -2.3125,-11.15625 -1.281612,-3.02272 -1.927187,-4.614 -2.15625,-5.28125 -1.057078,-0.39157 -2.219859,-1.09621 -3.28125,-1.4375 0.0331,-0.3099 -1.864584,-1.52084 -2.15625,-0.9375 0.375804,0.19762 0.778855,0.52203 1.1875,0.75 -0.04261,-5.2e-4 -0.08302,-0.002 -0.125,0 -0.652737,-0.14525 -1.280199,-0.3146 -1.0625,-0.75 -0.250536,-0.13175 -0.475062,-0.20347 -0.6875,-0.15625 z m 6.125,2.53125 c 0.07284,0.027 0.146949,0.039 0.21875,0.0625 -0.270976,-0.48436 -0.422362,-0.65561 -0.21875,-0.0625 z m 0.21875,0.0625 c 1.050032,1.8769 4.373467,9.03256 0.25,0.0937 -0.08266,-0.022 -0.165712,-0.0662 -0.25,-0.0937 z"
       id="path5236"
       inkscape:connector-curvature="0" />
    <path
       style="fill:#6c5353;fill-opacity:1;stroke:none;stroke-width:1px;stroke-linecap:butt;stroke-linejoin:miter;stroke-opacity:1"
       d="m 48.5,691.86218 c -6.673391,0.85129 -0.933178,16.63364 2,22.5 0.561469,1.12294 3.457431,6.04257 5,4.5 0.699907,-0.69991 2.53336,-2.03336 3.5,-3 0.480874,-0.48087 0.5,-3.68718 0.5,-4.5 0,-10.52869 -3.831666,-15.199 -11,-19.5 z"
       id="path5256"
       inkscape:connector-curvature="0" />
    <path
       style="fill:#6c5353;stroke:none;stroke-width:1px;stroke-linecap:butt;stroke-linejoin:miter;stroke-opacity:1;fill-opacity:1"
       d="m 84,118.5 c 0.686146,-0.92665 -3.511425,0.52285 -5,3.5 -0.569499,1.139 -3.159001,5.682 -2.5,7 0.47909,0.95818 0.340022,3.34002 1,4 1.512982,1.51298 7.209536,4.29046 10,1.5 4.972445,-4.97245 5.044112,-17.70882 -3.5,-16 z"
       id="path5311"
       inkscape:connector-curvature="0"
       transform="translate(0,552.36218)" />
    <path
       style="fill:#c8b7b7;fill-opacity:1;stroke:none;stroke-width:1px;stroke-linecap:butt;stroke-linejoin:miter;stroke-opacity:1"
       d="M 101.875 38.6875 C 100.65085 38.590266 97.990272 40.724304 96.0625 42.09375 C 96.043094 42.095026 96.019485 42.092273 96 42.09375 C 95.435141 42.13656 94.832127 42.260806 94.28125 42.53125 C 94.258018 42.557884 94.20902 42.568175 94.1875 42.59375 C 93.888621 42.752021 93.59915 42.96335 93.34375 43.21875 C 92.557226 44.00527 93.768386 46.22427 94.03125 46.75 C 96.205356 51.09822 94.03125 63.48241 94.03125 69.375 C 94.03125 76.76332 93.34375 86.46074 93.34375 91.28125 C 93.34375 92.16423 92.013791 93.51379 92.625 94.125 C 93.288709 94.78871 94.404304 93.5791 94.75 93.40625 C 96.092808 92.734849 97.07809 92.692141 97.6875 92.84375 C 96.647789 90.103751 99.877741 78.034 99 77.15625 C 97.76564 75.9219 98.04513 72.00349 99 70.09375 C 100.1593 67.775128 96.133586 51.31928 96.75 46.6875 C 97.687787 45.728104 99.385664 44.625 100.40625 44.625 C 101.11336 44.625 102.53125 45.332107 102.53125 44.625 L 102.53125 39.6875 C 102.53125 39.026492 102.29029 38.720487 101.875 38.6875 z M 97.6875 92.84375 C 97.820913 93.195338 97.988615 93.40625 98.28125 93.40625 C 98.566048 93.40625 98.354745 93.009747 97.6875 92.84375 z M 95.15625 40.3125 C 94.672925 40.424788 94.534558 41.572663 94.3125 42.46875 C 94.96414 41.734561 96.071871 40.676561 95.46875 40.375 C 95.350899 40.316074 95.2474 40.291324 95.15625 40.3125 z "
       transform="translate(0,552.36218)"
       id="path5384" />
    <path
       style="fill:#e3dbdb;fill-opacity:1;stroke:none;stroke-width:1px;stroke-linecap:butt;stroke-linejoin:miter;stroke-opacity:1"
       d="M 470.15625 117.59375 C 466.80779 117.79334 463.48109 119.23767 461.03125 121.6875 C 458.38109 124.33767 461.70673 133.04328 461.03125 133.71875 C 457.18653 137.56347 450.31136 139.46988 445.46875 144.3125 C 442.88987 146.89138 449 150.26601 449 150.6875 C 449 153.0127 449.10395 154.3227 451.125 156.34375 C 452.67275 157.89149 455.90603 157.59353 457.5 159.1875 C 458.2064 159.89391 455.67205 160.44523 455.375 160.59375 C 454.23337 161.16456 450.08071 168.01821 451.125 169.0625 C 453.12233 171.05982 453.02347 170.5 456.09375 170.5 C 456.86222 170.5 454.65625 171.36191 454.65625 172.625 C 454.65625 172.95834 455.375 173.97121 455.375 174.71875 C 455.375 175.77285 457.83535 177.5625 456.78125 177.5625 C 445.1385 177.5625 447.35129 180.64871 441.25 186.75 C 439.66247 188.33753 442.65625 190.92959 442.65625 191.6875 C 442.65625 191.83939 436.14123 191.10877 435.5625 191.6875 C 433.43364 193.81636 434.15625 194.52454 434.15625 196.65625 C 434.15625 196.98288 427.8125 197.321 427.8125 200.1875 C 427.8125 200.97318 426.16301 197.23775 423.5625 195.9375 C 420.28174 194.29712 412.12653 196.43699 409.40625 197.34375 C 405.775 198.55417 402.56003 200.65873 400.21875 203 C 399.28079 203.93796 400.9375 206.67427 400.9375 207.25 C 400.9375 208.39685 398.93653 209.47344 399.8125 210.96875 C 396.81136 211.05305 392.07879 213.98504 393.84375 215.75 C 394.15443 216.06068 395.96875 218.28072 395.96875 218.5625 C 395.96875 218.6457 393.94774 218.45852 393.84375 218.5625 C 393.32339 219.08286 391.96393 220.47609 391.78125 221.8125 C 391.78525 221.28623 391.7872 220.72486 391.75 220.6875 C 391.06663 220.00413 389.45897 219.91699 388.1875 219.28125 C 386.87154 218.62327 374.38359 219.67891 374.0625 220 C 371.51479 222.54771 369.8125 224.92251 369.8125 229.1875 C 369.8125 230.38657 371.08718 234.97532 370.53125 235.53125 C 370.19288 235.86962 364.83093 234.125 364.15625 234.125 C 361.41651 234.125 357.85167 234.0546 356.375 235.53125 C 356.19434 235.71191 356.03517 236.55893 355.96875 237.375 C 355.64167 237.12633 355.25528 236.96875 354.96875 236.96875 C 351.79041 236.96875 352.43932 235.81432 350.03125 233.40625 C 349.60423 232.97923 346.45182 233.40625 345.78125 233.40625 C 340.74242 233.40625 337.49949 234.9078 335.875 239.78125 C 335.873 239.78725 335.73381 240.68716 335.625 241.71875 C 333.72826 240.40628 327.7277 241.14467 323.9375 242.5 C 323.9849 239.57804 323.01711 235.83668 321.03125 234.84375 C 317.81746 233.23685 312.5484 237.6391 311.125 239.0625 C 310.47489 239.71261 310.20759 241.0936 310 242.53125 C 308.08124 241.37721 306.17158 240.17158 305.5 239.5 L 303.375 237.375 C 306.71495 234.04371 309.94261 230.45698 312.75 226.8125 C 308.54727 224.91953 302.48602 219.92243 298.40625 218.5625 C 296.77106 218.01744 295.23358 217.57478 293.75 216.96875 C 289.59017 218.74256 284.3075 214.97374 282.125 217.15625 C 281.58417 217.69708 280.50189 216.9108 279.5625 216.21875 C 279.20536 216.06006 278.89649 215.85477 278.625 215.59375 C 278.61934 215.5883 278.63063 215.56799 278.625 215.5625 C 278.56721 215.52903 278.48969 215.49356 278.4375 215.46875 C 278.45759 215.45617 278.4796 215.4502 278.5 215.4375 C 275.24181 211.92693 278.47581 200.94895 281.59375 194.96875 C 281.32533 194.36742 281.03892 193.76534 280.71875 193.125 C 280.66138 193.01027 280.61587 192.92274 280.5625 192.8125 C 282.58972 190.04756 283.95147 187.17022 280.71875 183.9375 C 279.63239 182.85114 269.04003 193.66267 261.9375 195.71875 C 261.22756 195.12427 260.42914 194.50936 259.5 193.8125 L 255.25 193.8125 C 252.95524 193.8125 246.76942 193.08192 245.375 191.6875 C 244.43219 190.74469 240.66156 192.63031 239.71875 191.6875 C 239.00657 190.97533 236.94644 190.35815 235.875 189.96875 C 236.57263 190.99394 237.61865 193.86866 238.28125 194.53125 C 239.85876 196.10877 244.52018 195.80142 246.0625 197.34375 C 246.9843 198.26555 254.5625 197.64183 254.5625 198.78125 C 254.5625 200.60364 248.30689 199.38062 247.5 200.1875 C 247.0286 200.65891 245.84641 200.43485 245.375 200.90625 C 244.87922 201.40203 247.03051 203.65257 249.3125 205.84375 C 247.53021 207.67236 245.47776 209.73001 243.3125 211.78125 C 244.4444 213.72152 243.0678 215.4269 241.84375 217.875 C 240.70164 220.15921 239.63403 222.48666 238.59375 224.84375 C 240.01265 226.90498 241.81759 229.19259 243.9375 231.3125 C 247.99601 235.37101 254.75016 236.68758 259.5 239.0625 C 261.78716 240.20608 264.29695 243.15922 267 244.875 C 273.64387 244.23052 289.12003 249.78388 291.59375 247.84375 C 294.39014 245.65055 297.44318 243.03095 300.5 240.15625 C 302.87533 242.18073 304.84935 244.82837 307.03125 246.84375 C 307.68199 247.16167 308.34152 247.62277 309 248.28125 C 309.0984 248.37965 308.46655 250.67559 307.46875 253.15625 C 308.45031 254.37412 310.19131 255.81631 312.53125 258.15625 C 315.82233 261.44733 323.74845 253.84221 323.84375 253.9375 C 324.28554 254.37929 330.03336 258.34164 331.625 256.75 C 331.82977 256.54524 333.36596 253.52221 334.46875 254.625 C 336.79227 256.94852 343.94449 258.58676 347.1875 255.34375 L 351.4375 251.09375 C 352.78121 249.75004 350.78129 246.78121 352.125 245.4375 C 353.89958 243.66292 357.67241 249.07759 359.90625 246.84375 L 362.75 244.03125 C 363.52161 243.25964 362.58896 241.1875 363.4375 241.1875 C 364.14461 241.1875 362.9375 242.8125 363.4375 243.3125 C 363.79105 243.66605 364.52145 243.67769 364.875 244.03125 C 365.61176 244.768 367.70515 241.89264 369.125 243.3125 C 374.06023 248.24773 383.01349 249.80575 390.3125 246.15625 C 390.73943 245.94278 392.11063 246.48312 392.4375 246.15625 C 394.53963 244.05411 396.14798 242.29779 397.40625 239.78125 C 397.96454 238.66467 397.30104 234.91771 398.09375 234.125 C 398.7842 233.43456 405.48892 233.82358 408 231.3125 C 411.0615 228.251 406.59375 224.08057 406.59375 222.8125 C 406.59375 222.7974 414.36318 220.69932 415.0625 220 C 415.30605 219.75645 414.87904 215.75 415.0625 215.75 C 415.56185 215.75 417.85852 217.82727 417.90625 217.875 C 419.21533 219.18408 420.5443 216.61195 420.71875 216.4375 C 421.45104 215.70521 423.11818 216.93409 423.5625 217.15625 C 426.18583 218.46792 436.12393 216.59482 437.6875 215.03125 C 439.38131 213.33744 446.3997 203.24346 443.34375 200.1875 C 443.30375 200.1475 441.17368 198.82632 441.9375 198.0625 C 442.54535 197.45464 445.16485 197.34375 446.1875 197.34375 C 448.22959 197.34375 450.96656 196.20203 453.25 197.34375 C 455.61504 198.52627 454.04895 199.5802 455.375 200.90625 C 458.81764 204.34889 464.72937 200.73938 466.6875 198.78125 C 466.96301 198.50574 466.6875 196.369 466.6875 195.9375 C 466.6875 193.9629 469.12084 185.6521 467.40625 183.9375 C 467.28481 183.81607 463.58214 181.38661 463.875 181.09375 C 464.92042 180.04833 466.73063 179.65032 468.09375 178.96875 C 473.9711 176.03008 476.65074 164.27023 473.75 158.46875 C 472.54822 156.0652 471.4922 154.21875 468.8125 154.21875 C 462.34334 154.21875 471.49099 151.817 473.75 150.6875 C 476.13673 149.49414 483.24856 152.50144 485.0625 150.6875 C 485.80438 149.94562 487.51969 148.9803 488.625 147.875 C 492.47803 144.02196 490.96568 133.93443 487.90625 130.875 C 486.84559 129.81434 488.24816 126.27941 487.1875 125.21875 C 485.60829 123.63954 479.99955 121.5933 479.40625 121 C 476.86515 118.45891 473.50471 117.39416 470.15625 117.59375 z M 235.875 189.96875 C 235.72148 189.74314 235.57789 189.59375 235.46875 189.59375 C 234.89477 189.59375 235.26439 189.74683 235.875 189.96875 z M 322.4375 189.59375 C 321.19746 189.59375 318.44036 192.29544 316.78125 193.125 C 314.35677 194.33724 311.63178 193.33696 309.71875 195.25 C 308.41898 196.54976 296.69109 196.23909 292.28125 198.78125 C 292.45366 199.58768 292.89866 200.60565 293.4375 201.71875 C 295.1382 202.56324 297.27123 203.71875 297.6875 203.71875 C 303.48045 203.71875 311.88558 209.40474 318.6875 212.15625 C 318.83467 210.27563 318.88449 208.36556 318.90625 206.5 C 318.90637 206.4896 318.90613 206.47905 318.90625 206.46875 C 320.32047 202.72781 321.71875 198.89735 321.71875 195.9375 C 321.71875 195.73509 323.04171 189.59375 322.4375 189.59375 z M 278.03125 215.40625 C 278.1205 215.36978 278.24855 215.39622 278.40625 215.46875 C 278.12996 215.64159 277.90625 215.82457 277.90625 215.75 C 277.90625 215.56366 277.942 215.44272 278.03125 215.40625 z M 286.125 223.1875 C 286.35077 223.1835 286.54208 223.20155 286.6875 223.21875 L 281.71875 224.34375 C 286.91867 223.16355 291.44655 224.93939 295.78125 226.96875 C 296.15213 227.14238 300.77725 226.70521 300.78125 226.84375 C 300.80155 227.62939 296.7761 228.36976 291.53125 228.96875 C 288.76697 226.0748 286.42832 224.12867 280.5 226.5 C 281.55643 227.61786 282.79113 228.46078 284.0625 229.25 C 284.0978 229.2667 284.12035 229.2944 284.15625 229.3125 C 286.03413 230.2583 288.76133 233.13066 292.5 235 C 294.16999 235.83499 294.96026 236.96026 296 238 C 296.26352 238.26352 297.37268 238.5 297 238.5 C 295.39049 238.5 287.08748 232.21141 283.875 229.6875 C 276.76771 230.27367 269.7108 230.64014 267.875 230.6875 C 266.26104 230.72915 264.64601 230.76608 263.03125 230.8125 C 263.49752 230.2999 263.97574 229.79277 264.4375 229.28125 C 271.22904 227.70978 280.19415 224.92738 280.71875 224.375 C 281.30659 223.75603 284.5446 223.2165 286.125 223.1875 z "
       transform="translate(0,552.36218)"
       id="path4649" />
    <path
       style="fill:#c8b7b7;stroke:none;stroke-width:1px;stroke-linecap:butt;stroke-linejoin:miter;stroke-opacity:1;fill-opacity:1"
       d="M 192.9375 387.5625 C 192.20093 387.55958 191.625 387.68033 191.625 388.28125 L 195.15625 387.5625 C 194.567 387.68035 193.67407 387.56542 192.9375 387.5625 z M 191.625 388.28125 C 188.00441 391.13195 191.82237 395.43914 190.90625 398.1875 C 190.44467 399.57225 188.69647 410.10271 190.21875 411.625 C 191.52686 412.9331 194.02127 411.38564 195.875 412.3125 C 200.47884 414.61442 213.89963 418.11369 221.5 420.0625 C 219.04413 422.26939 216.35562 422.56843 205.78125 417.28125 C 202.37446 415.57785 195.93085 416.61834 194.46875 415.15625 C 191.98679 412.67428 186.92509 417.9435 185.96875 420.8125 C 183.47057 428.30706 180.06564 435.64683 177.46875 443.4375 C 176.6944 445.76054 174.64932 447.64578 173.9375 449.78125 C 171.60155 456.78909 170.65793 464.58871 168.28125 471.71875 C 167.17916 475.02503 165.42826 478.17474 164.0625 480.90625 C 163.63311 481.76502 164.29585 483.70391 163.375 483.75 C 164.44048 483.87141 171.79633 484.42132 172.53125 485.15625 C 173.32315 485.94814 197.94179 489.40625 200.8125 489.40625 C 213.09811 489.40625 260.43974 490.59151 265.875 485.15625 C 266.5984 484.43284 269.95518 485.29482 270.8125 484.4375 C 271.90435 483.34565 271.89987 479.54975 270.8125 477.375 C 270.2965 476.343 270.00873 475.27404 269.8125 474.21875 C 266.48874 474.16676 263.06752 473.13002 260.9375 471 C 260.44855 470.51104 259.15503 455.81372 255.96875 459 L 251.03125 463.9375 C 250.26223 464.70652 246.66982 479.38857 243.9375 476.65625 C 242.07734 474.79609 241.98715 455.32347 241.9375 445.21875 C 239.30873 442.82727 236.89419 440.39072 235.0625 438.1875 C 230.25686 443.49152 220.14221 455.65307 219.1875 457.5625 C 217.5462 460.8451 215.65625 467.93895 215.65625 467.46875 C 215.65625 455.53239 224.74412 441.96484 231.84375 432.90625 C 231.71299 432.32426 231.73621 431.80883 231.9375 431.40625 C 232.24279 430.79567 232.67836 427.9766 232.96875 424.90625 C 234.84391 425.6707 236.49234 426.13266 236.875 425.75 C 239.46052 423.16448 237.45387 417.52977 239 414.4375 C 239.4593 413.5189 239.29557 412.47136 239.71875 411.625 C 240.84438 409.37375 239.50393 403.62894 238.28125 402.40625 C 237.05788 401.18289 234.25494 406.78372 232.625 405.96875 C 229.98541 404.64895 232.03591 399.69217 230.53125 398.1875 C 229.64354 397.29979 228.51645 398.7648 228.40625 398.875 C 226.03128 401.24997 215.40752 396.28188 213.53125 395.34375 C 211.07483 394.11554 200.4952 392.1827 200.125 391.8125 C 199.46831 391.15581 195.87987 388.42597 195.15625 388.28125 C 194.00063 388.05012 191.625 389.45976 191.625 388.28125 z "
       transform="translate(0,552.36218)"
       id="path5789" />
    <path
       style="fill:#c8b7b7;stroke:none;stroke-width:1px;stroke-linecap:butt;stroke-linejoin:miter;stroke-opacity:1;fill-opacity:1"
       d="M 252.8125 403.59375 C 250.65792 403.62995 247.60038 404.36743 246.78125 404.53125 C 243.20278 407.57635 244.96562 412.41252 243.25 415.84375 C 242.30203 417.73969 243.08157 423.10593 241.84375 424.34375 C 241.16732 425.02018 240.40625 427.01205 240.40625 428.59375 C 240.40625 436.70583 253.18579 432.84332 258.8125 434.25 C 263.77167 435.48979 270.85016 436.76534 274.8125 436 C 274.95981 436.58634 275.0625 437.18033 275.0625 437.78125 C 275.0625 438.17126 258.71543 444.02794 260.9375 446.25 C 261.68286 446.99536 263.00464 445.58911 263.75 444.84375 C 267.55564 441.03811 279.6445 444.78902 281.4375 448.375 C 282.72038 450.94078 274.63515 459.26015 276.46875 461.09375 C 279.57875 464.20374 284.97102 468.19202 287.09375 472.4375 C 288.52834 475.30668 288.25616 482.3125 291.3125 482.3125 C 295.07914 482.3125 299.16416 478.17207 297 473.84375 C 293.93206 467.70786 292.5551 465.8676 287.78125 461.09375 C 284.77965 458.09215 291.99186 451.13998 289.90625 446.96875 C 288.65902 444.47428 286.27978 440.49853 284.25 438.46875 C 283.07466 437.29342 279.53231 438.14654 277.90625 437.0625 C 276.95359 436.42739 276.47714 436.09541 275.875 435.6875 C 275.98889 435.64669 276.08252 435.60876 276.1875 435.5625 C 277.25435 436.19942 277.91775 436.60498 276.3125 435.53125 C 276.65126 435.36969 276.96039 435.16461 277.1875 434.9375 C 281.53 430.59499 248.76485 429.13984 247.5 427.875 C 246.92247 427.29746 248.90625 425.39036 248.90625 425.03125 C 248.90625 418.79717 252.53996 418.03561 258.09375 420.8125 C 260.00447 421.76786 262.9063 420.09375 264.46875 420.09375 C 265.02242 420.09375 267.64717 420.44658 268 420.09375 C 268.59244 419.50131 265.52375 418.87125 265.15625 418.6875 C 264.00339 418.11107 263.63346 416.44596 263.03125 415.84375 C 262.68081 415.49331 258.17132 417.28125 258.09375 417.28125 C 256.80702 417.28125 250.36674 415.78951 252.4375 413.71875 C 256.75332 409.40294 275.97166 413.71875 282.84375 413.71875 C 284.51646 413.71875 278.59375 419.42924 278.59375 422.9375 C 278.59375 424.16925 285.16259 423.43116 285.65625 422.9375 C 285.90222 422.69153 287.78829 410.89415 286.375 410.1875 C 284.41151 409.20576 281.24233 410.46492 279.3125 409.5 C 271.89724 405.79237 261.98907 407.55703 254.5625 403.84375 C 254.16615 403.64557 253.53069 403.58168 252.8125 403.59375 z "
       transform="translate(0,552.36218)"
       id="path5791" />
    <path
       style="fill:#c8b7b7;stroke:none;stroke-width:1px;stroke-linecap:butt;stroke-linejoin:miter;stroke-opacity:1;fill-opacity:1"
       d="M 308.09375 409.40625 C 300.25082 409.49058 291.65003 409.96749 290.625 409.5 C 292.787 414.905 290.042 431.30175 287.09375 434.25 C 286.90811 434.43564 284.96875 435.54443 284.96875 435.65625 C 284.96875 436.02253 288.30179 434.9375 288.5 434.9375 L 300.28125 434.9375 C 302.59586 440.14326 306.04423 445.02068 307.59375 451.21875 C 308.95091 456.6474 311.125 461.19455 311.125 466.78125 C 311.125 474.60086 310.43749 478.09375 319.625 478.09375 C 321.27295 478.09375 324.14958 478.50667 325.28125 477.375 C 327.04123 475.61502 323.34746 466.97246 322.4375 466.0625 C 321.36434 464.98934 321.41632 461.51007 320.3125 460.40625 L 315.375 455.4375 C 315.20826 455.27076 314.52918 451.47288 314.65625 451.21875 C 315.46619 449.59886 318.82138 441.91513 317.5 440.59375 C 315.00656 438.10031 309.84805 437.91054 306.875 434.9375 L 303.34375 431.40625 C 302.79402 430.85652 303.07551 429.46146 302.90625 428.53125 C 304.40758 427.31175 306.07291 426.15104 306.875 425.75 C 309.69626 424.33937 323.13954 426.45205 319.625 422.9375 C 317.20067 420.51317 313.26743 419.41496 309 417.28125 C 308.38872 416.9756 303.66851 416.23774 304.75 415.15625 C 307.88981 412.01644 318.1001 414.55615 321.03125 411.625 C 323.02239 409.63386 315.93668 409.32192 308.09375 409.40625 z "
       transform="translate(0,552.36218)"
       id="path5806" />
    <path
       style="fill:#c8b7b7;fill-opacity:1;stroke:none;stroke-width:1px;stroke-linecap:butt;stroke-linejoin:miter;stroke-opacity:1"
       d="m 281.4285,942.76063 c 5.96267,-0.0745 11.1057,-1.91333 14.14213,-4.94975 0.58926,-0.58926 0.11785,-2.23917 0.70711,-2.82843 0.29385,-0.29385 2.20663,5.57154 -0.70711,8.48528 -1.81421,1.81421 -9.44006,4.70208 -11.31371,2.82843 -0.59614,-0.59614 -2.23228,-2.93939 -2.82842,-3.53553 z"
       id="path5946"
       inkscape:connector-curvature="0" />
  </g>
</svg>
