<?xml version="1.0" encoding="UTF-8" standalone="no"?>
<!-- Created with Inkscape (http://www.inkscape.org/) -->

<svg
   xmlns:dc="http://purl.org/dc/elements/1.1/"
   xmlns:cc="http://creativecommons.org/ns#"
   xmlns:rdf="http://www.w3.org/1999/02/22-rdf-syntax-ns#"
   xmlns:svg="http://www.w3.org/2000/svg"
   xmlns="http://www.w3.org/2000/svg"
   xmlns:sodipodi="http://sodipodi.sourceforge.net/DTD/sodipodi-0.dtd"
   xmlns:inkscape="http://www.inkscape.org/namespaces/inkscape"
   width="744.09448819"
   height="1052.3622047"
   id="svg2"
   version="1.1"
   inkscape:version="0.48.1 r9760"
   sodipodi:docname="trumpet.svg">
  <defs
     id="defs4" />
  <sodipodi:namedview
     id="base"
     pagecolor="#ffffff"
     bordercolor="#666666"
     borderopacity="1.0"
     inkscape:pageopacity="0.0"
     inkscape:pageshadow="2"
     inkscape:zoom="0.5"
     inkscape:cx="537.4012"
     inkscape:cy="513.49068"
     inkscape:document-units="px"
     inkscape:current-layer="layer1"
     showgrid="false"
     inkscape:window-width="1364"
     inkscape:window-height="766"
     inkscape:window-x="0"
     inkscape:window-y="0"
     inkscape:window-maximized="0" />
  <metadata
     id="metadata7">
    <rdf:RDF>
      <cc:Work
         rdf:about="">
        <dc:format>image/svg+xml</dc:format>
        <dc:type
           rdf:resource="http://purl.org/dc/dcmitype/StillImage" />
        <dc:title></dc:title>
      </cc:Work>
    </rdf:RDF>
  </metadata>
  <g
     inkscape:label="Layer 1"
     inkscape:groupmode="layer"
     id="layer1">
    <path
       style="fill:#bebebe;fill-opacity:1;stroke:#000000;stroke-width:1.5;stroke-linecap:butt;stroke-linejoin:round;stroke-opacity:1;stroke-miterlimit:4;stroke-dasharray:none"
       d="m 109.13358,430.24667 c -9.582193,12.49718 1.48235,28.14611 18.42029,24.21487 13.8858,-2.52184 48.11337,-17.58216 60.69654,-20.00936 9.6089,-2.10614 48.61747,-14.79602 67.15027,-17.59905 17.44008,-4.61121 37.93685,-8.89374 45.62579,-13.62075 28.22419,-22.67237 8.50381,-48.29652 -27.09585,-32.69101 -18.13684,3.56704 -35.81389,14.03652 -50.34568,18.78152 -10.41284,5.54204 -47.67338,13.02984 -62.58094,21.07803 -9.82269,4.37807 -44.27701,9.99031 -51.87042,19.84575 z"
       id="path4836"
       inkscape:connector-curvature="0"
       sodipodi:nodetypes="ccccccccc"
       inkscape:export-filename="/home/substack/media/vector/trumpet.png"
       inkscape:export-xdpi="67.387558"
       inkscape:export-ydpi="67.387558" />
    <path
       style="fill:#d4d4d4;fill-opacity:1;stroke:#000000;stroke-width:1.5;stroke-linecap:butt;stroke-linejoin:round;stroke-opacity:1;stroke-miterlimit:4;stroke-dasharray:none"
       d="m 175.96817,195.94611 c -30.69933,0.21456 -55.26167,25.57893 -66.85144,52.23986 -9.401305,21.24285 -12.587053,47.74968 1.78122,67.65855 9.69996,11.92344 18.47459,25.84187 33.03608,32.42378 13.30334,8.095 28.64777,14.10479 44.47485,11.85625 12.78424,-2.28894 23.08715,-0.72383 31.75582,9.40707 19.15919,13.52087 45.73583,3.42384 58.19582,-14.41676 4.96116,-6.49246 8.23424,-14.10893 9.71322,-22.0426 0.96459,-2.0165 2.43853,-2.92864 5.09318,-3.45111 1.66328,-0.32737 2.07078,1.09769 4.92618,1.41941 0.94312,0.10625 1.19745,-1.83758 1.5864,-2.22653 0.38914,-2.81055 -1.18066,-5.50407 -3.15316,-7.72681 -0.35681,-0.90153 -0.30808,-3.87123 -0.52224,-5.79851 1.58969,-11.49956 -6.6662,-4.97658 -6.51804,-1.52229 -1.6056,0.5325 -2.40688,-3.72841 -3.02655,-6.35487 -0.443,-1.34286 -0.96849,-2.67032 -1.53074,-3.97991 2.70381,-0.87691 7.14291,-1.10347 8.93394,-2.89449 0.97462,-0.97463 1.6972,-2.19817 2.67183,-3.1728 0.2562,-0.25621 1.73198,-3.88999 0.91844,-4.70353 -0.56229,-0.56228 -1.24677,-1.02411 -1.80905,-1.5864 -0.16574,-0.16573 -4.34138,-0.72328 -4.95402,-1.33592 -0.54791,-0.54791 -2.02607,-0.91281 -2.47701,-1.36374 -1.10787,-1.10787 -2.64828,-1.98032 -3.81293,-3.14497 -0.43551,-0.4355 -1.25254,-0.34839 -1.83688,-0.75145 -0.0565,-0.46961 -0.11395,-0.91853 -0.19482,-1.28026 -3.37116,-4.51919 -7.06362,-7.59451 -10.10286,-8.32164 -1.55308,-1.55307 -1.64646,-3.88162 -1.22459,-5.78896 -0.36613,-0.93479 0.32821,-4.33597 0.5288,-4.53655 -0.0718,-2.54456 0.62593,-4.70472 0.83494,-7.01355 -1.42406,-4.53463 -3.0437,-8.98745 -5.00968,-13.33133 -17.44064,-31.03864 -53.91455,-47.28809 -88.44873,-48.20428 -1.00285,-0.0462 -1.98768,-0.0626 -2.97798,-0.0557 z"
       id="path3022"
       inkscape:connector-curvature="0"
       sodipodi:nodetypes="scccccccssccccccscsscssccccccccs"
       inkscape:export-filename="/home/substack/media/vector/trumpet.png"
       inkscape:export-xdpi="67.387558"
       inkscape:export-ydpi="67.387558" />
    <path
       style="fill:#bebebe;fill-opacity:1;stroke:#000000;stroke-width:1.5;stroke-linecap:butt;stroke-linejoin:round;stroke-opacity:1;stroke-miterlimit:4;stroke-dasharray:none"
       d="m 180.30989,352.52653 c -3.45427,0.0263 -6.48484,0.86287 -8.40513,2.78316 -1.45449,1.45449 -1.82596,3.40155 -1.83688,5.26016 -1.3119,2.08925 -2.86635,4.35963 -4.45306,5.42716 -9.85804,6.63245 -15.33679,18.0834 -37.68394,32.03414 -7.03511,4.98195 -14.15907,11.66376 -17.78438,13.86012 4.13361,5.83522 6.03697,14.87748 13.05301,17.70088 l 49.31754,-12.02324 c 2.00964,-1.0517 3.54174,-1.86189 5.64981,-3.0893 18.30799,0.30673 34.30145,-30.63299 44.02955,-42.08134 0.11394,-0.13409 0.58758,-0.88655 0.77928,-1.14109 -0.9479,-0.54035 -1.89466,-1.0789 -2.81099,-1.72556 -1.08358,-1.26636 -2.20347,-2.38757 -3.33978,-3.39545 -1.13632,-1.00789 -2.28661,-1.90402 -3.47895,-2.67183 -1.19234,-0.76782 -2.42209,-1.42991 -3.67377,-1.97605 -1.25168,-0.54614 -2.52642,-0.96519 -3.84075,-1.30808 -1.31434,-0.34288 -2.65529,-0.59343 -4.03558,-0.75145 -0.318,-0.0364 -0.65133,-0.0561 -0.97411,-0.0835 -4.85392,-3.71678 -13.54828,-6.87178 -20.51187,-6.81873 z"
       id="path5339"
       inkscape:connector-curvature="0"
       inkscape:export-filename="/home/substack/media/vector/trumpet.png"
       inkscape:export-xdpi="67.387558"
       inkscape:export-ydpi="67.387558" />
    <path
       style="fill:#d4d4d4;fill-opacity:1;stroke:#000000;stroke-width:1.5;stroke-linecap:butt;stroke-linejoin:round;stroke-opacity:1;stroke-miterlimit:4;stroke-dasharray:none"
       d="m 297.23796,395.30026 c -8.22562,-1.12847 -14.52845,-11.59759 -8.38735,-18.51414 7.10874,-7.67316 17.21866,-11.34525 26.08267,-16.54054 9.07634,-2.30207 27.17157,-11.12122 36.104,-13.87024 10.39257,-2.09435 31.87707,-12.38111 41.87011,-15.9571 15.00401,-5.95212 30.56396,-11.59364 46.78237,-12.72714 8.99248,-1.13737 20.21403,4.94276 19.09174,15.14195 -3.90802,8.84823 -19.71819,12.56538 -26.17842,14.68218 -9.10372,3.56607 -20.99358,5.43388 -32.90631,11.06273 -7.68196,2.83266 -25.68872,10.76251 -32.99133,14.31089 -7.08231,2.08056 -14.46125,5.65689 -21.71142,8.30691 -7.90006,2.05657 -22.93556,8.55065 -30.40266,11.6758 -4.60091,3.03323 -12.51594,6.46484 -17.3534,2.4287 z"
       id="path4857"
       inkscape:connector-curvature="0"
       sodipodi:nodetypes="ccccccccccccc"
       inkscape:export-filename="/home/substack/media/vector/trumpet.png"
       inkscape:export-xdpi="67.387558"
       inkscape:export-ydpi="67.387558" />
    <path
       style="fill:#d4d4d4;fill-opacity:1;stroke:#000000;stroke-width:1.5;stroke-linecap:butt;stroke-linejoin:round;stroke-opacity:1;stroke-miterlimit:4;stroke-dasharray:none"
       d="m 494.10285,322.71331 c 3.11652,-1.42261 10.01212,-2.85943 12.81731,-4.07524 1.98859,-0.8619 15.2813,-4.30015 17.44727,-1.88339 0.8039,0.89697 0.84572,1.59715 1.4172,2.9157 0.34666,0.79985 -0.026,2.88802 -0.52086,3.75569 -2.40563,4.21794 -21.39453,5.79759 -25.94892,7.77155 -1.08246,0.46917 -3.10767,0.0943 -3.8245,0.73676 -0.51606,0.4625 -2.46981,2.85796 -3.75569,-0.52086 -1.1853,-2.60765 2.30982,-7.63377 2.36819,-8.70021 z"
       id="path5188"
       inkscape:connector-curvature="0"
       sodipodi:nodetypes="csscssscc"
       inkscape:export-filename="/home/substack/media/vector/trumpet.png"
       inkscape:export-xdpi="67.387558"
       inkscape:export-ydpi="67.387558" />
    <path
       sodipodi:nodetypes="csccccssscc"
       inkscape:connector-curvature="0"
       id="path5160"
       d="m 487.17307,309.81465 c 0.69989,-0.7696 11.64192,-5.13301 18.7403,-6.64865 4.05879,-0.86662 12.70864,-2.30399 14.92625,-2.5761 6.1712,-0.63098 17.81933,0.47309 24.71464,2.2575 1.96948,0.5098 3.76313,4.03358 2.81409,6.89872 -3.22183,4.73934 -12.5811,5.31217 -21.57172,4.71675 -3.44194,-0.12854 -10.32115,1.39731 -14.45277,2.27137 -4.31402,0.91265 -9.07397,3.54608 -15.14535,4.84242 -2.10551,0.44957 -8.37896,3.3243 -9.9266,1.03145 -2.0224,-2.9962 -3.75724,-5.76824 -3.38547,-7.20446 z"
       style="fill:#d4d4d4;fill-opacity:1;stroke:#000000;stroke-width:1.5;stroke-linecap:butt;stroke-linejoin:round;stroke-opacity:1;stroke-miterlimit:4;stroke-dasharray:none"
       inkscape:export-filename="/home/substack/media/vector/trumpet.png"
       inkscape:export-xdpi="67.387558"
       inkscape:export-ydpi="67.387558" />
    <path
       style="fill:#d4d4d4;fill-opacity:1;stroke:#000000;stroke-width:1.5;stroke-linecap:butt;stroke-linejoin:round;stroke-opacity:1;stroke-miterlimit:4;stroke-dasharray:none"
       d="m 484.85855,301.51653 c 0.42925,-0.94757 9.49867,-8.46507 15.78673,-12.0906 3.59545,-2.07304 11.38385,-6.10133 13.41025,-7.04235 5.67793,-2.49857 17.10094,-5.03086 24.21084,-5.45387 2.03081,-0.1207 4.82136,2.68053 4.79962,5.69869 -1.60787,5.50057 -10.33721,8.92442 -19.0751,11.12327 -3.31461,0.9364 -9.39098,4.50424 -13.05344,6.60676 -3.82417,2.19535 -7.54334,6.1652 -12.92164,9.26618 -1.86515,1.0754 -6.95023,5.74039 -9.12809,4.03475 -2.84595,-2.22888 -5.34933,-4.33292 -5.43735,-5.81385 z"
       id="path5158"
       inkscape:connector-curvature="0"
       sodipodi:nodetypes="csccccssscc"
       inkscape:export-filename="/home/substack/media/vector/trumpet.png"
       inkscape:export-xdpi="67.387558"
       inkscape:export-ydpi="67.387558" />
    <path
       style="fill:#d4d4d4;fill-opacity:1;stroke:#000000;stroke-width:1.5;stroke-linecap:butt;stroke-linejoin:round;stroke-opacity:1;stroke-miterlimit:4;stroke-dasharray:none"
       d="m 475.09785,295.21058 c 0.27073,0.10395 6.64394,-6.33575 10.07106,-9.76644 1.43612,-1.4376 3.71848,-2.14712 5.03625,-3.46626 4.32088,-4.32535 13.4186,-8.50866 19.51805,-8.51182 3.85041,-0.002 6.60078,4.1038 4.09686,6.61032 -0.30061,0.30092 -0.26928,1.52971 -0.62879,1.8896 -2.55168,2.55431 -5.06896,6.31728 -8.81235,8.1914 -5.05662,2.53157 -12.4265,7.08365 -16.68268,11.34425 -0.98784,0.98886 -2.30337,1.0456 -3.14781,1.8909 -2.34012,2.34255 -6.39942,-3.24565 -6.92928,-3.77496 -0.86327,-0.86239 -2.19134,-1.24493 -2.83487,-1.8878 -0.54339,-0.54283 0.18124,-2.18788 0.31356,-2.51919 z"
       id="path4932"
       inkscape:connector-curvature="0"
       inkscape:export-filename="/home/substack/media/vector/trumpet.png"
       inkscape:export-xdpi="67.387558"
       inkscape:export-ydpi="67.387558" />
    <path
       style="fill:#939393;fill-opacity:1;stroke:#000000;stroke-width:1.5;stroke-linecap:butt;stroke-linejoin:round;stroke-opacity:1;stroke-miterlimit:4;stroke-dasharray:none"
       d="m 432.37338,314.61247 c -6.55867,9.45615 -3.37709,18.93465 1.22806,25.89397 5.08182,6.16024 13.38024,8.21197 19.93554,6.0419 5.20429,-0.48689 12.75945,-2.49693 18.20435,-3.51231 4.32054,-2.07246 12.88112,-3.09982 16.40536,-4.47859 3.91105,-1.92078 9.03148,-5.95516 11.50269,-12.70295 1.82231,-11.35628 -0.70153,-16.36255 -5.12276,-24.08784 -4.03582,-4.2239 -7.55485,-11.74619 -15.3997,-12.85001 -12.73702,2.03277 -25.67844,8.21978 -36.49419,16.63618 -3.598,2.80321 -7.1846,5.22072 -10.25935,9.05965 z"
       id="path4890"
       inkscape:connector-curvature="0"
       sodipodi:nodetypes="cccccccccc"
       inkscape:export-filename="/home/substack/media/vector/trumpet.png"
       inkscape:export-xdpi="67.387558"
       inkscape:export-ydpi="67.387558" />
    <g
       id="g5136"
       transform="matrix(0.88481697,-0.10141797,0.10141797,0.88481697,-519.05661,-76.240758)"
       inkscape:transform-center-x="-195.8641"
       inkscape:transform-center-y="-13.406202"
       style="stroke-width:1.68423836;stroke-miterlimit:4;stroke-dasharray:none;stroke-linejoin:round"
       inkscape:export-filename="/home/substack/media/vector/trumpet.png"
       inkscape:export-xdpi="67.387558"
       inkscape:export-ydpi="67.387558">
      <path
         sodipodi:nodetypes="ccccccccccccccccc"
         inkscape:connector-curvature="0"
         id="path5097"
         d="m 1075.3461,513.84375 c -1.9146,-0.13899 -4.4439,0.45512 -5.7237,0.3815 -0.8783,0.14925 -1.6071,1.05658 -1.2932,1.94974 0.1705,0.97698 1.1443,1.71504 1.9984,1.69493 1.1084,0.0869 2.0949,10e-4 3.206,0.0363 -0.014,2.16839 0.198,3.96754 -0.067,6.12582 -0.1209,2.16951 -0.024,4.34702 0.074,6.5161 -0.2556,1.27997 1.1719,0.88236 1.9495,0.83513 0.8046,-0.16501 2.3306,0.34825 2.5258,-0.69983 -0.01,-1.20941 -0.1637,-2.41299 -0.1203,-3.62495 -0.05,-3.15561 -0.2364,-6.30817 -0.2366,-9.46472 1.2728,-0.0273 2.5382,0.12485 3.8085,0.13809 0.6747,-0.29168 1.8673,-0.30757 1.7372,-1.71672 -0.068,-0.81989 -0.4915,-1.51086 -1.3521,-1.58914 -0.875,-0.18222 -2.2935,-0.54113 -3.2094,-0.52119 -1.147,-0.0677 -2.3138,-0.0741 -3.2971,-0.0611 z"
         style="fill:#ffc815;fill-opacity:1;stroke:#000000;stroke-width:1.68423836;stroke-linecap:butt;stroke-linejoin:round;stroke-opacity:1;stroke-miterlimit:4;stroke-dasharray:none" />
      <path
         sodipodi:nodetypes="cccscccsscsccccssscscsccssccsccccc"
         inkscape:connector-curvature="0"
         id="path5093"
         d="m 1067.5858,541.11218 c -0.5425,0.54249 -0.8702,14.12982 -0.25,14.75 0.5185,0.51846 -0.065,8.61964 0.25,9.25 0.076,2.653 0.1382,6.70503 0,8.5 -0.2002,2.59962 -0.3163,4.86749 0,5.5 0.3591,3.86781 -0.097,9.20156 0.25,13 0.8391,5.67988 -0.9853,12.35604 -0.5,15.75 0.2537,2.75749 0,6.2955 0,7.75 0,2.36773 0.75,4.86966 0.75,7.75 0,0.59769 0.3804,3.36965 0,3.75 -0.6142,0.61419 -0.5,3.13992 -0.5,4.25 0,0.56586 -1.5133,3.23666 -0.75,4 0.6293,1.23853 2.1095,2.47965 3.25,2.75 2.0088,0.50882 3.8342,0.83289 5.75,1 2.3003,-0.53838 6.3621,-0.19859 8.5,-2.5 -0.036,-2.46408 -0.7442,-5.38587 -0.75,-6.75 -0.014,-3.23628 -0.078,-6.02385 0.25,-8.25 0.4704,-3.19089 0.2295,-6.86214 0.5,-9.5 0.25,-2.43807 0.2788,-6.72121 0,-8.5 0.088,-3.41226 -0.5,-7.09602 -0.5,-8.25 0,-2.60204 -1.441,-8.36704 -0.5,-10.25 0.7041,-1.40829 -0.5,-3.86891 -0.5,-5.25 0,-1.24698 0.6195,-4.86946 0.25,-7 -0.044,-2.62076 -0.3253,-5.36366 0.25,-8.25 -0.048,-2.20182 0.75,-7.23084 0.75,-9 0,-0.42048 -0.8476,-3.40238 -0.25,-4 1.3794,-1.37943 0.5,-4.90996 0.5,-6.75 -0.7662,-1.9154 1.2041,-11.2959 0,-12.5 -0.8963,-0.89635 -3.4986,-0.4986 -4.25,-1.25 -0.25,-0.25 0,-1 -0.25,-1.25 -0.5932,-0.59323 -8.0361,-0.17378 -8.5303,0.0732 -1.5246,-0.0332 -0.9011,1.65114 -1.25,2 -0.4111,0.41112 -3.471,0.51391 -3.7804,1.53033 -0.2817,1.87271 1.5638,2.61799 1.3107,7.64645 z"
         style="fill:#ff6600;fill-opacity:1;stroke:#000000;stroke-width:1.68423836;stroke-linecap:butt;stroke-linejoin:round;stroke-opacity:1;stroke-miterlimit:4;stroke-dasharray:none" />
      <path
         style="fill:#ffc815;fill-opacity:1;stroke:#000000;stroke-width:1.68423836;stroke-linecap:butt;stroke-linejoin:round;stroke-opacity:1;stroke-miterlimit:4;stroke-dasharray:none"
         d="m 1055.0168,513.84375 c -1.9146,-0.13899 -4.4439,0.45512 -5.7237,0.3815 -0.8783,0.14925 -1.6071,1.05658 -1.2932,1.94974 0.1705,0.97698 1.1443,1.71504 1.9984,1.69493 1.1084,0.0869 2.0949,10e-4 3.206,0.0363 -0.014,2.16839 0.198,3.96754 -0.067,6.12582 -0.1209,2.16951 -0.024,4.34702 0.074,6.5161 -0.2556,1.27997 1.1719,0.88236 1.9495,0.83513 0.8046,-0.16501 2.3306,0.34825 2.5258,-0.69983 -0.01,-1.20941 -0.1637,-2.41299 -0.1203,-3.62495 -0.05,-3.15561 -0.2364,-6.30817 -0.2366,-9.46472 1.2728,-0.0273 2.5382,0.12485 3.8085,0.13809 0.6747,-0.29168 1.8673,-0.30757 1.7372,-1.71672 -0.068,-0.81989 -0.4915,-1.51086 -1.3521,-1.58914 -0.875,-0.18222 -2.2935,-0.54113 -3.2094,-0.52119 -1.147,-0.0677 -2.3138,-0.0741 -3.2971,-0.0611 z"
         id="path5095"
         inkscape:connector-curvature="0"
         sodipodi:nodetypes="ccccccccccccccccc" />
      <path
         style="fill:#ff6600;fill-opacity:1;stroke:#000000;stroke-width:1.68423836;stroke-linecap:butt;stroke-linejoin:round;stroke-opacity:1;stroke-miterlimit:4;stroke-dasharray:none"
         d="m 1063.3899,541.11218 c 0.5425,0.54249 0.8702,14.12982 0.25,14.75 -0.5185,0.51846 0.065,8.61964 -0.25,9.25 -0.076,2.653 -0.1382,6.70503 0,8.5 0.2002,2.59962 0.3163,4.86749 0,5.5 -0.3591,3.86781 0.097,9.20156 -0.25,13 -0.8391,5.67988 0.9853,12.35604 0.5,15.75 -0.2537,2.75749 0,6.2955 0,7.75 0,2.36773 -0.75,4.86966 -0.75,7.75 0,0.59769 -0.3804,3.36965 0,3.75 0.6142,0.61419 0.5,3.13992 0.5,4.25 0,0.56586 1.5133,3.23666 0.75,4 -0.6293,1.23853 -2.1095,2.47965 -3.25,2.75 -2.0088,0.50882 -3.8342,0.83289 -5.75,1 -2.3003,-0.53838 -6.3621,-0.19859 -8.5,-2.5 0.036,-2.46408 0.7442,-5.38587 0.75,-6.75 0.014,-3.23628 0.078,-6.02385 -0.25,-8.25 -0.4704,-3.19089 -0.2295,-6.86214 -0.5,-9.5 -0.25,-2.43807 -0.2788,-6.72121 0,-8.5 -0.088,-3.41226 0.5,-7.09602 0.5,-8.25 0,-2.60204 1.441,-8.36704 0.5,-10.25 -0.7041,-1.40829 0.5,-3.86891 0.5,-5.25 0,-1.24698 -0.6195,-4.86946 -0.25,-7 0.044,-2.62076 0.3253,-5.36366 -0.25,-8.25 0.048,-2.20182 -0.75,-7.23084 -0.75,-9 0,-0.42048 0.8476,-3.40238 0.25,-4 -1.3794,-1.37943 -0.5,-4.90996 -0.5,-6.75 0.7662,-1.9154 -1.2041,-11.2959 0,-12.5 0.8963,-0.89635 3.4986,-0.4986 4.25,-1.25 0.25,-0.25 0,-1 0.25,-1.25 0.5932,-0.59323 7.5058,0.003 8,0.25 0.6407,0.32034 0.1511,0.90114 0.5,1.25 0.4111,0.41112 3.8068,0.30684 5,1.5 0.9888,0.98882 -1.1495,6.40352 -1.25,8.25 z"
         id="path5091"
         inkscape:connector-curvature="0"
         sodipodi:nodetypes="cccscccsscsccccssscscsccssccsccccc" />
      <path
         sodipodi:nodetypes="ccccccccccccccccc"
         inkscape:connector-curvature="0"
         id="path5079"
         d="m 1034.6875,513.84375 c -1.9146,-0.13899 -4.4439,0.45512 -5.7237,0.3815 -0.8783,0.14925 -1.6071,1.05658 -1.2932,1.94974 0.1705,0.97698 1.1443,1.71504 1.9984,1.69493 1.1084,0.0869 2.0949,10e-4 3.206,0.0363 -0.014,2.16839 0.198,3.96754 -0.067,6.12582 -0.1209,2.16951 -0.024,4.34702 0.074,6.5161 -0.2556,1.27997 1.1719,0.88236 1.9495,0.83513 0.8046,-0.16501 2.3306,0.34825 2.5258,-0.69983 -0.01,-1.20941 -0.1637,-2.41299 -0.1203,-3.62495 -0.05,-3.15561 -0.2364,-6.30817 -0.2366,-9.46472 1.2728,-0.0273 2.5382,0.12485 3.8085,0.13809 0.6747,-0.29168 1.8673,-0.30757 1.7372,-1.71672 -0.068,-0.81989 -0.4915,-1.51086 -1.3521,-1.58914 -0.875,-0.18222 -2.2935,-0.54113 -3.2094,-0.52119 -1.147,-0.0677 -2.3138,-0.0741 -3.2971,-0.0611 z"
         style="fill:#ff6600;fill-opacity:1;stroke:#000000;stroke-width:1.68423836;stroke-linecap:butt;stroke-linejoin:round;stroke-opacity:1;stroke-miterlimit:4;stroke-dasharray:none" />
      <path
         sodipodi:nodetypes="cccsccsccsscsccccssscscscccssc"
         inkscape:connector-curvature="0"
         id="path5077"
         d="m 1027,541.11218 c -0.5425,0.54249 -0.8702,14.12982 -0.25,14.75 0.5185,0.51846 -0.065,8.61964 0.25,9.25 0.5765,1.153 -0.8051,4.63977 0,6.25 0.7998,1.59962 -0.3163,7.11749 0,7.75 0.4434,0.88685 0.1531,7.34694 -0.25,7.75 -0.1525,0.15254 0.25,2.97422 0.25,3.5 0,5.64783 -0.686,10.57796 -0.75,16 0.058,0.93078 0.2117,0.92332 0.5,1.5 0.5037,1.00749 0,6.2955 0,7.75 0,2.36773 0.75,4.86966 0.75,7.75 0,0.59769 0.3804,3.36965 0,3.75 -0.6142,0.61419 -0.5,3.13992 -0.5,4.25 0,0.56586 -1.5133,3.23666 -0.75,4 0.6293,1.23853 2.1095,2.47965 3.25,2.75 2.0088,0.50882 3.8342,0.83289 5.75,1 2.3003,-0.53838 6.3621,-0.19859 8.5,-2.5 -0.036,-2.46408 -0.7442,-5.38587 -0.75,-6.75 -0.014,-3.23628 -0.078,-6.02385 0.25,-8.25 0.4704,-3.19089 0.2295,-6.86214 0.5,-9.5 0.25,-2.43807 0.2788,-6.72121 0,-8.5 0.088,-3.41226 -0.5,-7.09602 -0.5,-8.25 0,-2.60204 -1.441,-8.36704 -0.5,-10.25 0.7041,-1.40829 -0.5,-3.86891 -0.5,-5.25 0,-1.24698 0.1195,-7.86946 -0.25,-7.5 0.353,-0.80796 0.4276,-1.35517 0.75,-2 0.3309,-0.6617 -0.9009,-4.84914 0,-5.75 0.7018,-0.70182 0.75,-7.23084 0.75,-9 0,-0.42048 -0.8476,-3.40238 -0.25,-4 1.3794,-1.37943 0.5,-4.90996 0.5,-6.75 -0.7662,-1.9154 1.2041,-11.2959 0,-12.5 -0.8963,-0.89635 -3.4986,-0.4986 -4.25,-1.25 -0.25,-0.25 0,-1 -0.25,-1.25 -0.5932,-0.59323 -7.5058,0.003 -8,0.25 -0.6407,0.32034 -0.1511,0.90114 -0.5,1.25 -0.4111,0.41112 -3.8068,0.30684 -5,1.5 -0.9888,0.98882 1.1495,6.40352 1.25,8.25 z"
         style="fill:#ffc815;fill-opacity:1;stroke:#000000;stroke-width:1.68423836;stroke-linecap:butt;stroke-linejoin:round;stroke-opacity:1;stroke-miterlimit:4;stroke-dasharray:none" />
      <path
         sodipodi:nodetypes="cssscccscsscssccssccsccscscc"
         inkscape:connector-curvature="0"
         id="path5019"
         d="m 1024.4375,564.5 c -0.6428,-0.29369 -1.3714,1.1995 -1.9375,1.875 -1.0952,1.30684 -2.125,3.51202 -2.125,6.125 0,6.7526 -2.6623,10.5 -7.375,10.75 -1.1392,0.0604 -3.8436,-0.21859 -5.625,-1 -1.1559,-0.88014 -3.673,-2.53484 -3.625,-5.625 -0.8743,-4.14241 0.186,-10.26754 -5.25,-11 -0.10306,0.41223 -0.55046,0.94954 -0.25,1.25 1.38526,1.38526 1.40146,3.27647 2,5.5 0.1844,2.30935 0.3019,7.55191 1.75,9 1.2935,1.29352 5.5,3.76812 5.5,4.25 0,0.1285 0.1813,0.37697 0.4062,0.6875 -3.4292,-0.24039 -10.65682,-0.53096 -13.4062,-0.4375 -3.77965,0.12848 -11.79936,-0.13028 -15.75,0.5 -8.44442,1.34721 -12.8027,10.13962 -12.75,17.5 0.5921,2.3684 3.51953,3.744 5.75,3.75 2.61833,0.008 4.44257,-2.44257 5.25,-3.25 0.88169,-0.88169 0.91997,-4.33993 1.5,-5.5 0.52528,-1.05056 4.06595,-1.59202 6.75,-1.75 3.35648,0.11131 16.5081,0.006 20.25,0 4.6738,0.17379 15.2802,0.5 18.5,0.5 1.4701,0 6.0176,-0.26757 7,-1.25 2.1723,-1.21357 2.1712,-4.28455 2,-6.75 0,-2.97535 -5.7292,-3.75 -11,-3.75 -1.0988,0 -3.118,0.14146 -5.2812,0.28125 1.8036,-1.80369 3.5345,-3.53452 5.2812,-5.28125 1.0959,-1.09592 -0.034,-5.93214 0.75,-7.5 0.5744,-2.89345 2.3685,-8.21829 1.6875,-8.875 z"
         style="fill:#ff6600;fill-opacity:1;stroke:#000000;stroke-width:1.68423836;stroke-linecap:butt;stroke-linejoin:round;stroke-opacity:1;stroke-miterlimit:4;stroke-dasharray:none" />
      <path
         id="path5014"
         d="m 1314.5312,487.6875 c -0.9113,0.003 -1.8298,0.64558 -2.0312,1.5625 -0.2294,1.04471 -1.3901,10.01508 -2.5,11.125 -1.6124,1.6124 -3.2524,3.25244 -5,5 -0.9951,0.99512 -2.2244,2.22442 -3.5,3.5 -1.8612,2.36123 -4.1149,3.63355 -5.75,5 -1.8617,1.55586 -5.7011,4.00656 -8.25,5.25 -2.9287,1.4287 -11.6687,3.41872 -15.5,4.75 -3.579,1.49556 -18.8566,3.13851 -26,4.75 -3.8984,0.57422 -22.1633,1.52889 -29.25,1.75 -6.0964,0.19021 -24.5753,1.7124 -29.25,1.75 -3.4885,0.0281 -28.3266,1.48143 -33,1.75 -3.6688,-0.0844 -26.1244,0.68781 -31.25,1 -1.4205,0.0865 -9.0541,0.3169 -17.3438,0.5625 -2.0561,-0.71272 -4.4062,-0.531 -4.4062,-5.5625 0,-0.30512 -0.1948,-1.80518 0,-2 1.1107,-1.11072 2.1951,-2.19513 3.5,-3.5 1.6086,-1.60863 9.7082,-1.29183 5.5,-5.5 -0.5904,-0.59039 -3.9838,1 -4.5,1 -2.3508,0 -4.378,1.87799 -5.5,3 -4.4302,4.43019 -4.1583,9.10502 -1,12.75 -9.3459,0.28381 -18.3496,0.5762 -20,0.75 -7.9176,0.83381 -26.9486,0.94863 -28,2 -2.9927,2.99272 -13.3233,-1.08833 -17.5,1 -2.9286,1.46433 -26.9969,2.00153 -30,0.5 -1.5031,-0.75156 -13.08971,0.29486 -14.5,1 -2.40014,1.20007 -8.7252,0 -11.5,0 -13.48801,0 -27.01191,1.39463 -40.5,2 -4.35133,1.6556 -6.01223,6.01223 -8.25,8.25 -3.32812,3.32812 -6.5,13.00961 -7.5,17.75 -0.43523,2.06318 -0.39487,14.35513 0.75,15.5 1.35257,5.32859 0.5963,9.33605 4.5,13.5 3.0848,3.0848 6.68542,6.18542 9.5,9 4.85315,4.85316 20.39349,5 27,5 16.82216,0 38.8751,0.5 45.5,0.5 7.8261,0 17.4158,-0.56918 22.5,-1 5.6344,-0.47744 15.0967,0.0322 19.5,0 5.8501,-0.0428 25.95,1.15 31,0.5 6.7979,-0.87498 34.4632,0.0184 41,-1 6.0752,0.33807 17.7419,0.74391 24,0 5.3645,0.6403 19.1063,0.27244 26,0 7.9171,0.70854 16.5831,-1.08307 18,-2.5 1.7166,-1.71663 3.9554,-3.9554 6,-6 0.8777,-4.09687 -0.7608,-11.1281 -2.5,-15 -3.5655,-1.53274 -9.7433,-2.5 -14,-3 -1.1347,-0.13328 -2.9763,-0.17724 -5.0625,-0.1875 -0.05,-4.64171 0.1635,-14.17043 0.4687,-14.78125 0.9511,-1.90223 -0.1348,-12.5838 0,-12.71875 0.7478,-0.74775 1.7813,-0.0904 1.7813,-1.78125 0,-0.43961 0.1363,-1.73046 0.1875,-2.90625 3.2817,0.0121 6.0739,0.0939 7.125,0.375 3.7618,1.00592 23.2856,0.76779 27.5,0.5 l 15,0.5 c 4.0714,-0.0357 14.512,0.63099 18.5,1.25 2.1694,0.33673 10.5634,0.66679 14.5,1.5 2.8039,0.59347 14.8478,1.86283 19.5,3.5 5.98,2.10444 17.2045,7.2045 20.5,10.75 1.2632,1.35904 3.7218,3.72178 5.5,5.5 2.2986,2.29863 3.2336,5.73359 5,7.5 1.6363,1.63628 1.3802,8.63023 3.25,10.5 2.914,0.16428 3.1727,-3.92266 4,-7.5 1.6781,-4.42808 2.3393,-18.33926 2,-22 1.1377,-3.63766 0.9165,-8.33294 1.25,-11.25 0.3105,-2.71552 0.666,-8.95723 0.625,-12.875 -0.031,-2.9908 -0.3819,-10.39196 -0.625,-13 -0.1724,-1.85004 -0.4512,-10.558 -0.75,-12.25 -0.3808,-2.15656 -1,-10.75642 -1,-13.5 0.1328,-2.09397 -1.5573,-8.05918 -3.25,-11.625 -0.1522,-1.55428 -1.0569,-2.19059 -1.9688,-2.1875 z m -347.9687,62.96875 c 1.61392,-0.0247 2.98442,0.039 3.9375,0.21875 4.88861,-0.14765 21.93428,0.3062 27.5,0.5 3.1547,0.95233 16.4848,0.4522 20.5,0.5 3.6206,0.0431 20.1375,-0.0562 26,0.25 5.0072,0.2616 23.8261,0.192 27,0.25 7.5855,-0.0868 27.9081,-0.82831 33,-0.5 3.1618,0 12.5437,0.35313 16.5,0.5 3.2911,0.10446 37.3945,-0.80275 42.5,-0.5 1.6138,0.14528 4.5076,0.16608 7.5938,0.15625 -0.3641,1.39007 -0.6598,2.86808 -0.125,3.9375 0.4529,0.90607 1.2878,0.22538 1.7812,0.71875 0.2481,0.24812 -0.375,2.90679 -0.375,3.53125 0,2.80318 0.4943,6.82394 -0.6875,9.1875 -0.2595,0.51909 0,9.48585 0.1875,14.8125 -8.3343,0.12428 -19.2615,0.66778 -22.375,0.65625 -4.1185,0.18601 -17.8857,0.0852 -26.7812,0.0312 -0.6785,-1.06097 -3.0923,-1.4849 -3,-2.0625 0.6798,-0.67998 1.7336,-0.7024 2.2812,-1.25 1.2562,-1.25621 4.2823,-5.42916 3.9062,-8.65625 0.1974,-2.96477 -1.5465,-6.45281 -3.0312,-7.9375 -1.0277,-0.96616 -3.6873,-2.48547 -6,-2.65625 -0.6657,-0.17952 -1.3938,-0.25932 -2.1562,-0.21875 -2.2879,0.12171 -4.8007,1.14432 -6.1563,2.5 -5.1992,4.66879 -5.0958,14.61593 1.5,17.78125 2.2808,0.59266 -1.7,1.19523 -2.2187,1.5 -6.7285,0.35367 -21.7946,-0.50451 -26.3438,0.46875 -0.6667,0.66667 -1.3333,1.33334 -2,2 -0.5,0.5 0.5,2.5 0,3 -2.5225,2.52252 1.8823,7.44115 4,8.5 -2.6109,6.30027 -14.8037,2.20764 -20.5,3 -3.8176,0.53104 -13.3092,-0.0106 -19.875,-0.5625 -0.384,-1.35173 -0.6777,-2.75154 0.062,-3.75 0.9803,-1.33981 3.7412,-0.14351 5.7813,-0.4375 2.8972,-0.13671 4.7355,-0.46616 6.625,-0.75 1.7019,-0.14976 3.7213,-2.06449 3.9374,-3.9375 0.8197,-1.78412 0.5363,-4.15479 -0.8124,-5.53125 -2.081,-1.88009 -6.3072,-1.82903 -9.0626,-1.65625 -2.1876,0.78119 -4.5486,0.48297 -6.8124,0.84375 -1.9258,1.06049 -4.4133,0.97375 -6.25,2.21875 -2.985,2.13839 -5.0654,5.57013 -5.5,9.21875 0.2267,1.32824 -0.368,2.74424 -0.3126,4.0625 -8.9623,0.45884 -22.3468,0.4751 -27.7812,-0.21875 -7.83225,-1 -40.12193,-0.061 -48,-1 -3.38122,-1.23833 -9.80601,-1.75951 -14,-4 -1.93564,-1.93564 -5.54974,-6.63717 -7,-13 -2.86519,-9.61065 0.83911,-16.39275 2.75,-21.5 2.92826,-4.114 8.03945,-8.11514 13.5,-9.25 4.44695,-0.11409 11.47075,-0.89455 16.3125,-0.96875 z m 148.4063,14.40625 c 0.9592,0.005 2.0145,0.1957 3.1562,0.625 1.9709,0.89151 2.4555,1.42428 3.6875,2.65625 0.6812,0.68125 2.0684,4.31026 1.25,7.25 -0.343,1.5804 -2.1438,3.20622 -2.75,3.8125 -2.8468,2.33988 -7.8457,2.0518 -9.7187,0.53125 -1.1435,-1.1432 -3.3292,-4.54468 -3.25,-7 0.2527,-1.20662 0.9424,-3.3802 1.75,-4.59375 0.9598,-1.66129 2.9971,-3.29611 5.875,-3.28125 z"
         style="fill:#ffc815;fill-opacity:1;stroke:#000000;stroke-width:1.68423836;stroke-linecap:butt;stroke-linejoin:round;stroke-opacity:1;stroke-miterlimit:4;stroke-dasharray:none"
         inkscape:connector-curvature="0" />
      <path
         sodipodi:nodetypes="ccccccccscscsscssssscscsccccccsccssccccccsscscccssssssscccccccsscssssscsccccccccc"
         inkscape:connector-curvature="0"
         id="path4964"
         d="m 865.46875,531.03125 c -0.1518,-0.005 -0.31254,0.013 -0.46875,0.0312 -1.60679,0.18819 -3.4214,1.544 -4.5,2.8125 -1.59869,7.04582 -2.63284,14.98235 1.09375,21.5625 4.1074,3.62495 5.49786,-3.40741 8.25,-4.03125 3.05165,-0.21065 8.02082,1.32178 9.3125,-2.5 -0.0199,-0.28848 -0.0698,-0.58353 -0.0937,-0.875 1.33131,-0.0655 2.82026,-0.20975 4.34375,-0.34375 0.50154,1.01533 1.11732,1.82428 1.84375,2.1875 0.17442,0.0872 1.38446,-1.23378 2.5625,-2.5625 3.90082,-0.3582 7.69045,-0.66146 10.1875,-0.4375 2.37241,0.21278 8.45034,-0.0376 14.25,-0.0625 9e-5,0.0106 0,0.0525 0,0.0625 0,0.3323 1.19955,2.55045 1.75,2 0.60589,-0.60589 1.15958,-1.34242 1.78125,-2.03125 2.8982,0.0482 5.51713,0.19432 7.21875,0.53125 2.90689,0.57558 15.25204,0.33397 18.5,0.5 6.68326,0.34163 22.04633,-0.67607 27.5,0 8.06674,1 21.20757,0.5 39.99995,0.5 4.5738,0 30.5519,0.27588 37.0001,0 4.115,-0.17605 24.9812,0.19991 28.7188,0.0625 5.3967,-0.19849 21.9538,-0.34178 24.5624,-0.21875 3.7482,0.17678 25.0104,0.009 30.0938,-0.15625 8.6601,0.25897 40.0588,-0.60862 45.0625,-0.28125 4.2498,0.27805 16.0666,0.0305 19.875,0.34375 2.8161,0.25902 11.1716,-0.40644 14.7187,0.3125 3.2319,0.12276 7.178,2.34102 9.5626,4.625 4.6567,4.12686 3.8126,14.21367 3.8124,18.46875 -0.1793,7.09499 -0.029,13.25301 -5.4062,17.84375 -2.9555,3.35759 -8.9754,4.12726 -13.7188,4.375 -0.067,-0.99088 -0.125,-2.02171 -0.125,-2.78125 0,-0.97663 0.6335,-3.9621 -0.01,-4.60539 -0.3487,-0.34872 -0.7065,-0.42984 -0.699,-1.21783 -0.4295,-0.42957 -0.01,-1.53534 -0.01,-1.95803 l 0,-10.59375 c 0,-2.53086 -0.1718,-13.24313 -0.3437,-14.84375 0.434,-0.86817 1.1883,-1.04291 1.6616,-1.51608 0.3418,-0.60695 0.7444,-2.1504 0.5205,-3.4349 -1.1526,-2.18963 -5.9573,-2.13869 -6.7759,-0.0178 -0.1424,0.88764 -0.1459,3.13523 0.2554,3.97503 0.454,0.45397 1.6616,0.7955 1.6616,0.7955 l -0.2651,7.08394 c -0.1551,4.14259 -0.2457,8.04419 -0.2457,12.20803 0,0.32955 0.061,8.75153 0,8.8125 -1.2795,1.27954 -1.4062,0.43925 -1.4062,2.5 0,1.09355 0.2882,3.6254 0.625,5.78125 -5.2799,0.0124 -11.7093,-0.29345 -16.7812,0.0625 -3.2106,-0.26071 -17.5622,-0.20553 -21.375,-0.40625 -4.9783,0 -30.3704,0.13433 -33.4688,0.28125 -2.9685,0.14076 -40.7174,0.25 -43.25,0.25 -4.6804,0 -12.1485,-1.10971 -12,5.5 0.1439,6.40541 8.0842,4.75 11.25,4.75 5.9301,0 28.7419,-1.25 41.75,-1.25 3.1515,0 24.4192,0.36537 27.5,0.25 2.7024,-0.1012 28.7099,0.36674 32.75,-0.25 4.2245,-0.64489 27.78,0.11001 31.25,-1.5 5.9901,-1.64479 9.6292,-4.07155 13,-7.5 1.9176,-2.95434 4.0587,-10.55859 4,-14.25 0.6249,-3.87494 0.6666,-11.58337 0.5,-16.5 0.9673,-5.72868 -3.0405,-15.04931 -7.5,-19 -2.0911,-1.84108 -5.4774,-3.22744 -6.25,-4 -5.5437,-5.11345 -33.8333,-2.29421 -44.5,-3 -4.7754,0.6377 -20.7941,1 -23.5,1 -8.3761,0 -29.8368,0.5 -41,0.5 -2.2683,0 -27.1897,-0.65515 -32,-0.5 -4.4719,-0.0141 -22.808,-0.23535 -25,0 -5.0938,0.5469 -19.0483,0.11582 -26,-0.5 -9.2838,-0.82241 -23.0603,-0.38912 -27.2812,-0.21875 -4.27153,0.17242 -24.63432,0.30987 -31.21885,0.21875 -4.9035,-0.0679 -17.84357,-0.4063 -23.53125,-0.0625 -6.66242,0.40277 -19.70114,-0.88385 -29.5,-0.0312 -0.43817,-0.31452 -0.83628,-0.59001 -1.46875,-0.90625 -1.11051,-0.55526 -1.72321,0.12876 -2.0625,1.375 -4.86055,0.53325 -14.98761,1.11461 -23.75,1.53125 -1.02645,-0.70627 -2.20645,-1.26761 -3.6875,-2.15625 -1.29015,0.14168 -2.07049,1.08891 -2.46875,2.40625 -1.7657,0.0731 -3.82414,0.17441 -5.125,0.21875 -0.26652,-0.61222 -0.58031,-1.21265 -0.9375,-1.78125 -1.49202,-4.26989 -6.43067,-1.66831 -8.53125,-5.1875 -0.48082,-1.58854 -1.40615,-2.21803 -2.46875,-2.25 z"
         style="fill:#ff6600;stroke:#000000;stroke-width:1.68423836;stroke-linecap:butt;stroke-linejoin:round;stroke-opacity:1;stroke-miterlimit:4;stroke-dasharray:none" />
    </g>
    <path
       style="fill:#d4d4d4;fill-opacity:1;stroke:#000000;stroke-width:1.5;stroke-linecap:butt;stroke-linejoin:round;stroke-opacity:1;stroke-miterlimit:4;stroke-dasharray:none"
       d="m 510.50277,275.93841 c -4.23909,2.63734 -8.2723,7.74627 -7.13718,13.41679 0.16199,0.42627 0.34289,1.46385 0.67125,1.76602 7.75207,7.13438 15.34251,-3.72641 18.1249,-9.9207 1.91341,-4.25973 -6.05626,-10.75162 -11.65897,-5.26211 z"
       id="path4960"
       inkscape:connector-curvature="0"
       sodipodi:nodetypes="cccsc"
       inkscape:export-filename="/home/substack/media/vector/trumpet.png"
       inkscape:export-xdpi="67.387558"
       inkscape:export-ydpi="67.387558" />
    <path
       style="fill:#d4d4d4;fill-opacity:1;stroke:#000000;stroke-width:1.5;stroke-linecap:butt;stroke-linejoin:round;stroke-opacity:1;stroke-miterlimit:4;stroke-dasharray:none"
       d="m 216.68726,543.13535 c -6.23072,11.65437 -15.18237,22.2078 -14.31486,36.28907 -3.11494,15.24923 0.37866,31.18008 -6.74468,45.54475 -6.01355,17.76174 -4.93555,37.35666 -15.47847,53.6327 -6.90869,15.58808 -19.39487,40.079 -3.79576,53.66961 14.43914,7.96829 24.24933,-8.30381 27.40382,-20.23649 6.97141,-17.18532 13.34882,-34.56876 21.50918,-51.29341 6.63359,-17.66966 13.45208,-35.34791 21.47621,-52.37156 6.28133,-16.57102 7.02334,-35.61812 1.05209,-52.34713 -5.17121,-14.19825 -17.32749,-19.60698 -31.10753,-12.88754 z"
       id="path4531"
       inkscape:connector-curvature="0"
       inkscape:export-filename="/home/substack/media/vector/trumpet.png"
       inkscape:export-xdpi="67.387558"
       inkscape:export-ydpi="67.387558" />
    <path
       style="fill:#939393;fill-opacity:1;stroke:#000000;stroke-width:1.5;stroke-linecap:butt;stroke-linejoin:round;stroke-opacity:1;stroke-miterlimit:4;stroke-dasharray:none"
       d="m 187.92283,706.11946 c -1.7139,-0.85856 -3.70008,-1.58469 -5.99067,-2.20513 -11.48694,2.85367 -20.41465,13.19992 -22.17459,21.92486 -5.19052,8.52554 -7.37411,20.5886 -11.18389,25.5015 -2.85522,3.68195 -9.47331,16.9901 -6.34312,26.32674 0.30638,0.91385 20.38179,12.4288 21.92678,11.91082 2.17557,-0.72938 3.77425,-1.86152 5.02288,-3.21994 1.16094,-7.80386 4.05835,-13.02305 9.66634,-24.28776 3.9177,-7.86945 9.06232,-14.20666 12.70809,-21.52987 4.48112,-9.00119 5.89325,-16.15363 6.38124,-23.8091 -2.0038,-4.32387 -4.79201,-7.99668 -10.01306,-10.61212 z"
       id="path4562"
       inkscape:connector-curvature="0"
       sodipodi:nodetypes="sccssscsscs"
       inkscape:export-filename="/home/substack/media/vector/trumpet.png"
       inkscape:export-xdpi="67.387558"
       inkscape:export-ydpi="67.387558" />
    <path
       style="fill:#bebebe;fill-opacity:1;stroke:#000000;stroke-width:1.5;stroke-linecap:butt;stroke-linejoin:round;stroke-opacity:1;stroke-miterlimit:4;stroke-dasharray:none"
       d="m 90.426351,616.90204 c -14.100774,14.81536 -0.385361,35.68077 18.889869,31.36333 1.03137,-0.23102 3.98395,0.77287 4.54005,-0.10425 1.95051,-3.07651 16.94977,-6.74065 19.49517,-10.75546 8.74639,-13.79554 48.68738,-29.41689 63.68615,-41.64538 4.129,-3.36636 17.93662,-9.1592 23.64589,-12.59785 0.77229,-0.46514 2.73561,-0.17477 3.4763,-0.77865 8.89844,-7.25488 20.87482,-20.89463 17.91021,-34.13009 -1.15368,-5.15063 -4.84285,-8.99925 -10.54697,-10.41508 -1.03083,-0.25587 -2.44546,1.03452 -3.4763,0.77865 -1.02443,-0.25428 -2.49023,-1.05308 -3.67097,-0.0904 -5.3547,4.36569 -22.779,8.29386 -29.72942,13.96051 -14.31302,11.66939 -29.8592,24.90237 -46.40887,33.21206 -6.51065,3.26903 -13.15857,6.10313 -18.6261,10.56079 -6.11637,4.98666 -20.37334,7.36029 -26.44778,12.31277 -3.188737,2.59978 -8.356265,6.38448 -12.737229,8.32908 z"
       id="path4529"
       inkscape:connector-curvature="0"
       inkscape:export-filename="/home/substack/media/vector/trumpet.png"
       inkscape:export-xdpi="67.387558"
       inkscape:export-ydpi="67.387558" />
    <path
       style="fill:#ffc815;fill-opacity:1;stroke:#000000;stroke-width:1.5;stroke-linecap:butt;stroke-linejoin:round;stroke-opacity:1;stroke-miterlimit:4;stroke-dasharray:none"
       d="m 185.93896,687.25189 c -5.61674,1.60703 -16.04855,3.34824 -19.37077,6.90223 0.20843,13.68522 2.58493,27.13944 2.97798,39.15902 0.63561,10.70359 1.82999,19.50104 1.83688,26.52349 0.47197,10.26869 2.96323,22.14799 4.45305,32.06197 1.50107,9.9888 3.24934,15.04718 9.65756,25.63288 6.72387,11.50534 28.05833,7.24224 39.57649,-8.04332 1.48673,-1.59044 -2.05428,-7.94501 -2.1152,-9.74105 -3.14426,-3.03035 -4.69862,-13.3663 -5.87246,-15.83617 -3.55692,-6.55227 -2.12692,-8.13678 -4.31389,-15.7805 -3.65939,-12.78988 -10.61719,-28.87605 -13.77663,-38.74155 -4.85742,-15.16748 -3.68389,-29.89249 -13.05301,-42.137 z"
       id="path3581"
       inkscape:connector-curvature="0"
       sodipodi:nodetypes="ccccsccccssc"
       inkscape:export-filename="/home/substack/media/vector/trumpet.png"
       inkscape:export-xdpi="67.387558"
       inkscape:export-ydpi="67.387558" />
    <path
       style="fill:#ff6600;fill-opacity:1;stroke:#000000;stroke-width:1.5;stroke-linecap:butt;stroke-linejoin:round;stroke-opacity:1;stroke-miterlimit:4;stroke-dasharray:none"
       d="m 74.30653,670.76419 c -0.232524,23.5828 -12.180457,46.67886 -15.140375,70.35821 -2.884728,23.07782 -8.604387,45.10488 -14.249765,67.68638 -0.667957,2.67183 -5.144208,18.90227 -4.453051,19.59343 4.869374,4.86937 11.325839,7.88944 18.702816,11.57793 2.743335,1.37167 24.239882,-0.38681 24.937088,-1.78122 1.769885,-3.53977 0.798353,-7.64646 1.78122,-11.57793 2.661671,-10.64669 4.057108,-21.17615 6.234272,-32.06197 6.726014,-33.63007 6.829232,-69.17561 15.140375,-102.42019 1.32299,-5.29195 1.78122,-11.34951 1.78122,-16.92159 0,-2.16125 1.78122,-8.39552 1.78122,-6.23427 0,0.66382 -1.31183,-0.42122 -1.78122,-0.89061 -1.67008,-1.67009 -10.157548,-0.89061 -12.468543,-0.89061 -3.93897,0 -33.303283,3.56244 -22.265257,3.56244 z"
       id="path3538"
       inkscape:connector-curvature="0"
       inkscape:export-filename="/home/substack/media/vector/trumpet.png"
       inkscape:export-xdpi="67.387558"
       inkscape:export-ydpi="67.387558" />
    <path
       style="fill:#ffc815;fill-opacity:1;stroke:#000000;stroke-width:1.5;stroke-linecap:butt;stroke-linejoin:round;stroke-opacity:1;stroke-miterlimit:4;stroke-dasharray:none"
       d="m 68.962868,678.77968 c -0.89061,-1.18748 -3.859311,-2.67183 -2.671831,-3.56244 1.18748,-0.89061 4.156182,3.56244 2.671831,3.56244 -1.845419,0 -16.95446,-15.99812 -12.468544,-20.48404 1.602438,-1.60244 6.524064,-1.18039 8.015493,-2.67183 8.851731,-8.85173 35.147666,-0.20693 43.639903,-4.45305 3.61633,-1.80816 15.29166,0.73933 17.8122,-1.78122 5.68624,-5.68624 54.26438,-2.25795 62.34272,1.78122 2.89126,1.44563 6.17544,-0.47472 8.90611,0.89061 3.99847,1.99924 0.75434,8.15177 -0.89061,9.79671 -4.51951,4.51951 -31.22589,21.37465 -38.29625,21.37465"
       id="path3536"
       inkscape:connector-curvature="0"
       inkscape:export-filename="/home/substack/media/vector/trumpet.png"
       inkscape:export-xdpi="67.387558"
       inkscape:export-ydpi="67.387558" />
    <path
       style="fill:#ffffff;stroke:#000000;stroke-width:1.5;stroke-linecap:butt;stroke-linejoin:round;stroke-opacity:1;stroke-miterlimit:4;stroke-dasharray:none"
       d="m 265.22402,271.59232 c -0.32279,0.0249 -0.66813,0.10991 -1.02977,0.25048 -1.97584,0.42359 -3.93597,1.54245 -6.67958,4.28607 -1.91268,1.91267 -4.21241,3.77708 -6.03945,6.51258 -1.4379,2.15288 -3.18399,5.45211 -3.14497,7.932 1.85651,3.82099 10.67479,-0.72085 14.02712,-1.97604 2.88651,-2.12726 5.43541,-4.37781 6.67957,-5.62198 0.99915,-0.99915 0.92823,-3.52081 0.36181,-6.23427 -0.5904,-2.82828 -1.91526,-5.32302 -4.17473,-5.14884 z"
       id="path3207"
       inkscape:connector-curvature="0"
       sodipodi:nodetypes="scssccsss"
       inkscape:export-filename="/home/substack/media/vector/trumpet.png"
       inkscape:export-xdpi="67.387558"
       inkscape:export-ydpi="67.387558" />
    <path
       style="fill:#d4d4d4;fill-opacity:1;stroke:#000000;stroke-width:1.5;stroke-linecap:butt;stroke-linejoin:round;stroke-opacity:1;stroke-miterlimit:4;stroke-dasharray:none"
       d="m 445.10629,265.92213 c -1.43341,0.21704 -2.79136,0.63833 -3.69102,1.23371 -0.73982,0.48961 -1.34206,0.98917 -1.84146,1.45746 -0.018,0.0102 -0.0338,0.0238 -0.0519,0.0343 -3.23275,1.8986 -5.50983,7.52649 -6.7216,9.28411 -0.23264,0.33743 -0.35887,0.89204 -0.43318,1.51055 -0.0554,0.0622 -0.12076,0.11315 -0.17325,0.18928 -4.20177,6.09444 -4.7632,21.99537 -5.81192,25.0702 l 16.95507,-3.83547 c -0.10997,-5.72901 0.53059,-14.62404 -0.0366,-18.75194 1.28284,-1.97088 2.42652,-4.26143 3.20784,-6.36172 1.76865,-0.30274 6.19632,-2.09361 6.82947,-2.90199 0.51103,-0.65243 1.538,-2.04124 1.40018,-3.17496 -0.12082,-0.99389 -1.28325,-2.89257 -1.95834,-3.26165 -2.0079,-1.09774 -5.28426,-0.85363 -7.67327,-0.49192 z"
       id="path4649"
       inkscape:connector-curvature="0"
       sodipodi:nodetypes="csccscccccccsscc"
       inkscape:export-filename="/home/substack/media/vector/trumpet.png"
       inkscape:export-xdpi="67.387558"
       inkscape:export-ydpi="67.387558" />
    <path
       style="fill:#d4d4d4;fill-opacity:1;stroke:#000000;stroke-width:1.5;stroke-linecap:butt;stroke-linejoin:round;stroke-opacity:1;stroke-miterlimit:4;stroke-dasharray:none"
       d="m 462.91154,260.56215 c -3.45253,0.87299 -8.3394,1.88528 -10.83077,5.04449 -2.19025,2.64594 -3.01796,6.23848 -4.64077,8.63929 -1.51549,2.26629 -2.97123,5.85939 -3.68049,8.90263 -0.11491,2.32881 -1.26237,6.12299 -1.80911,9.46746 -0.54459,4.5116 -1.61158,8.95098 -1.01703,12.88544 l 14.93244,0.89439 c 1.99724,1.33555 1.56362,-1.27117 1.27019,-2.74916 -0.49213,-2.47883 -1.70496,-10.60255 -1.63376,-14.2319 0.61879,-2.90842 0.84061,-5.31665 1.36565,-7.1147 0.99959,-2.58555 0.80515,-5.32454 2.14981,-7.44428 1.32029,-1.27144 3.99369,-1.29753 5.5852,-2.2013 0.6816,-1.01928 2.41166,-1.3406 3.14738,-2.44085 0.38025,-0.56862 0.49946,-1.87978 0.87677,-2.44405 0.0911,-0.13626 0.34446,-2.48051 0.13489,-2.75075 -1.51183,-1.94943 -2.10842,-3.11447 -4.05469,-4.41597 -0.36146,-0.2417 -0.99897,-0.24221 -1.79571,-0.0407 z"
       id="path4707"
       inkscape:connector-curvature="0"
       sodipodi:nodetypes="cccccccsccccsssssc"
       inkscape:export-filename="/home/substack/media/vector/trumpet.png"
       inkscape:export-xdpi="67.387558"
       inkscape:export-ydpi="67.387558" />
    <path
       style="fill:#d4d4d4;fill-opacity:1;stroke:#000000;stroke-width:1.5;stroke-linecap:butt;stroke-linejoin:round;stroke-opacity:1;stroke-miterlimit:4;stroke-dasharray:none"
       d="m 478.48662,269.31143 c 1.84512,0.1345 6.63235,2.11843 8.9329,0.99957 3.50544,-1.70487 5.63673,-4.12174 4.0965,-6.90144 -2.34952,-3.90466 -8.48584,-5.26355 -13.27436,-3.87614 -4.50028,0.24007 -8.54733,3.67329 -11.17951,6.78023 -2.72234,4.22652 -4.36153,8.77635 -7.24562,12.93297 -1.21761,3.58522 -3.34107,6.82403 -4.40964,10.46087 -1.08338,4.02959 -5.1065,9.00858 -2.10985,12.89375 2.95287,2.59565 7.261,4.81549 11.22758,3.38159 4.21276,-0.97766 5.68451,-5.41915 6.09207,-9.23239 1.15688,-5.21515 2.26452,-10.45688 3.37543,-15.67874 0.98646,-4.131 2.27771,-8.23466 4.49448,-11.76022 l 0,0 z"
       id="path4754"
       inkscape:connector-curvature="0"
       sodipodi:nodetypes="cscccccccccccc"
       inkscape:export-filename="/home/substack/media/vector/trumpet.png"
       inkscape:export-xdpi="67.387558"
       inkscape:export-ydpi="67.387558" />
    <path
       style="fill:#d4d4d4;fill-opacity:1;stroke:#000000;stroke-width:1.5;stroke-linecap:butt;stroke-linejoin:round;stroke-opacity:1;stroke-miterlimit:4;stroke-dasharray:none"
       d="m 488.26623,273.81884 c -2.32618,0.0278 -3.33215,1.73747 -5.78897,3.14497 -3.14639,2.72189 -6.98519,5.2418 -8.57212,9.29575 -0.22604,0.7158 -1.39721,1.87259 -3.03364,3.67376 -1.7821,2.43186 -7.12028,10.77543 -4.39739,13.49832 0.71399,0.71399 1.64629,0.34522 2.50484,-0.11133 l 7.06922,6.3456 3.50678,-7.04139 c 1.45183,-2.91309 1.52489,-6.35228 3.50678,-9.04526 1.99667,-2.77613 2.75344,-6.523 5.62197,-8.54429 2.17966,-2.04144 5.46263,-2.21604 5.73331,-6.09512 -0.0916,-3.90489 -3.40533,-5.53024 -6.15078,-5.12101 z"
       id="path4798"
       inkscape:connector-curvature="0"
       sodipodi:nodetypes="ccccsccccccc"
       inkscape:export-filename="/home/substack/media/vector/trumpet.png"
       inkscape:export-xdpi="67.387558"
       inkscape:export-ydpi="67.387558" />
    <path
       style="fill:#939393;fill-opacity:1;stroke:#000000;stroke-width:1.5;stroke-linecap:butt;stroke-linejoin:round;stroke-opacity:1;stroke-miterlimit:4;stroke-dasharray:none"
       d="m 423.50216,306.44194 c 0.31679,-4.24516 13.39264,-10.17841 24.80986,-10.17841 14.62427,0 23.40934,0.50794 31.80751,8.90611 1.56672,1.56671 0.32782,6.34202 -0.63615,8.26994 -1.64122,3.28245 -1.91076,8.2769 -3.18075,12.08686 -4.32687,12.98062 -13.46193,25.54879 -21.62911,33.71596 -2.53844,2.53845 -7.18636,1.68473 -10.1784,3.18075 -6.25775,3.12888 -22.66881,-1.44325 -25.44601,-6.99765 -2.81003,-5.62006 -2.72054,-16.01207 -0.63615,-22.26526 0.95171,-2.85511 -0.70818,-6.21744 0.63615,-8.9061 0.50892,-1.01784 -0.50892,-2.79906 0,-3.81691 2.37714,-4.75426 0.73835,-7.80411 4.45305,-13.99529 z"
       id="path3389"
       inkscape:connector-curvature="0"
       inkscape:export-filename="/home/substack/media/vector/trumpet.png"
       inkscape:export-xdpi="67.387558"
       inkscape:export-ydpi="67.387558" />
    <path
       style="fill:#d4d4d4;fill-opacity:1;stroke:#000000;stroke-width:1.5;stroke-linecap:butt;stroke-linejoin:round;stroke-opacity:1;stroke-miterlimit:4;stroke-dasharray:none"
       d="m 418.7938,352.81219 c -0.23284,0.36724 11.21028,-0.80189 15.68582,0.20322 7.45358,2.91804 17.03195,7.97723 10.34016,13.72388 -2.02187,2.47706 -5.06225,4.80814 -7.79024,7.05432 -3.59826,2.96276 -6.25291,6.72807 -9.73649,9.93671 -9.82126,9.04613 -21.33975,16.14411 -31.03172,25.07115 -8.8694,8.1694 -15.29564,15.89735 -24.96358,23.11443 -4.48251,3.3462 -11.82615,8.7776 -16.20283,12.38129 -4.15883,4.04725 -10.2468,7.53237 -14.21175,9.94195 -4.56269,1.60622 -12.62869,4.79154 -15.28237,3.78416 -1.66681,-0.63274 -2.57223,-1.18947 -4.21152,-1.81177 -0.28756,-0.10916 -1.63617,-0.11612 -1.817,-0.26374 -2.18018,-1.77952 -5.819,-7.11649 -4.26681,-11.20533 0.10668,-0.28102 -0.31856,-1.1036 -0.13448,-1.32913 5.81462,-7.12372 9.92243,-14.56936 15.13221,-18.53906 3.11561,-2.37401 13.20158,-9.18785 16.29249,-11.49521 6.6054,-4.93092 13.66963,-12.10644 19.69712,-17.65821 8.7466,-8.05628 14.60115,-13.08552 19.2989,-17.17034 1.84349,-1.60297 7.6625,-5.33884 9.60723,-6.79058 7.19191,-5.36875 16.66633,-13.49697 23.59486,-18.94774 z"
       id="path3391"
       inkscape:connector-curvature="0"
       sodipodi:nodetypes="cccssssccsscsssssssc"
       inkscape:export-filename="/home/substack/media/vector/trumpet.png"
       inkscape:export-xdpi="67.387558"
       inkscape:export-ydpi="67.387558" />
    <path
       style="fill:none;stroke:#000000;stroke-width:1.5;stroke-linecap:round;stroke-linejoin:round;stroke-opacity:1;stroke-miterlimit:4;stroke-dasharray:none"
       d="m 132.84,402.24026 c 2.11377,-0.94432 4.63464,-4.17803 7.54856,-6.0424 4.23411,-2.43725 9.56659,-7.11543 11.80472,-9.06366 4.36674,-5.04239 8.27945,-10.63716 13.93619,-14.35993 3.53135,-3.32513 7.87276,-6.5267 9.55271,-11.20714 0.22492,-1.2316 0.11202,-2.49039 -0.0187,-3.72471"
       id="path5475"
       inkscape:connector-curvature="0"
       sodipodi:nodetypes="cccccc"
       inkscape:export-filename="/home/substack/media/vector/trumpet.png"
       inkscape:export-xdpi="67.387558"
       inkscape:export-ydpi="67.387558" />
    <path
       style="fill:#939393;fill-opacity:1;stroke:#000000;stroke-width:1.5;stroke-linecap:butt;stroke-linejoin:round;stroke-opacity:1;stroke-miterlimit:4;stroke-dasharray:none"
       d="m 147.07122,398.81367 c 12.52817,0.88279 23.76285,4.35234 35.26637,8.18684 3.12331,1.04111 13.74128,1.14614 15.74392,3.14878 3.62247,3.62249 7.35711,5.46786 10.0761,8.18684 5.35433,5.35433 11.56673,41.73147 7.55708,49.75077 -0.75912,1.51824 0.5431,4.0385 0,5.66781 -2.8485,8.54548 -5.44238,16.9569 -8.18684,25.19026 -1.59807,4.79424 -13.54726,13.64972 -17.63318,16.37367 -33.7897,22.52647 -76.8923,13.14223 -101.390811,-19.52245 -6.47041,-8.62722 -9.303228,-16.91759 -11.335618,-27.07953 -3.901975,-19.50988 -1.830565,-29.68662 9.446349,-46.60199 2.645477,-3.96822 4.937409,-8.21783 8.816592,-11.33562 5.415018,-4.35219 9.719238,-7.12106 14.000898,-7.25802 3.43404,-0.10985 8.20942,-2.86857 11.37382,-4.1158 5.25836,-2.07255 18.5809,-2.0177 26.26532,-0.59156 z"
       id="path3408"
       inkscape:connector-curvature="0"
       sodipodi:nodetypes="csssssssssssssc"
       inkscape:export-filename="/home/substack/media/vector/trumpet.png"
       inkscape:export-xdpi="67.387558"
       inkscape:export-ydpi="67.387558" />
    <path
       style="fill:#bebebe;fill-opacity:1;stroke:#000000;stroke-width:1.5;stroke-linecap:butt;stroke-linejoin:round;stroke-opacity:1;stroke-miterlimit:4;stroke-dasharray:none"
       d="m 126.48363,464.57643 c -2.73174,0.004 -5.47192,0.40658 -6.23427,1.16893 -1.21059,1.21059 -16.6235,5.04557 -19.59342,8.01549 -0.47773,0.47773 -0.890011,1.1517 -1.224594,2.00388 -0.875866,0.13801 -1.803555,0.33633 -2.783157,0.58446 -2.300769,7.08523 -2.925071,23.30329 -4.369557,27.63675 -1.767647,5.30293 -3.046382,10.34864 -4.397388,15.75267 -3.095796,12.38319 -7.017111,24.28334 -10.075029,36.51502 -1.048445,4.19378 -0.348687,15.16979 -1.892547,18.25751 -1.112511,2.22503 -2.917471,12.19507 -1.252421,13.86012 5.72992,5.72992 9.217662,15.19037 17.617385,20.79019 3.279863,2.18657 7.566259,4.09721 11.327448,5.03751 3.67289,0.91823 7.28562,3.89434 10.71516,5.03752 9.0627,3.02089 19.1889,2.50484 28.97266,2.50484 5.23471,0 9.62325,0.86601 13.86013,-1.25242 6.43437,-3.21719 6.46518,-9.81323 9.4349,-15.75267 3.02541,-6.05083 4.78676,-20.81669 6.28993,-28.33254 1.89798,-9.4899 6.94694,-18.34189 8.82261,-27.72025 0.97162,-4.85807 2.79622,-9.52798 3.7851,-14.47241 1.09339,-5.46695 2.01039,-12.21894 3.03364,-18.56366 -3.23888,0.7892 -8.94183,0.75385 -12.55204,1.0576 -6.13428,-1.45057 -14.77231,-1.99762 -18.31318,-5.53848 -12.30245,-12.30245 -11.63753,-32.12157 -24.93708,-45.42113 -0.77923,-0.77924 -3.50253,-1.17315 -6.23428,-1.16893 z"
       id="path3410"
       inkscape:connector-curvature="0"
       inkscape:export-filename="/home/substack/media/vector/trumpet.png"
       inkscape:export-xdpi="67.387558"
       inkscape:export-ydpi="67.387558" />
    <path
       style="fill:#ff6600;fill-opacity:1;stroke:#000000;stroke-width:1.5;stroke-linecap:butt;stroke-linejoin:round;stroke-opacity:1;stroke-miterlimit:4;stroke-dasharray:none"
       d="m 117.05582,688.57639 c -0.59374,1.18749 -1.28814,2.32976 -1.78122,3.56244 -1.59208,3.9802 1.89201,28.61465 0.89061,35.62441 -1.31374,9.19615 -2.25165,18.43339 -3.56244,27.60892 -2.05779,14.40456 -0.89061,29.89127 -0.89061,44.53052 0,16.34716 0.89061,33.21899 0.89061,49.87417 0,1.27565 -0.81189,7.20362 0,8.0155 2.96709,2.96709 8.20711,6.42589 11.57793,9.79671 0.59375,0.59374 2.9687,-0.59374 3.56244,0 4.90968,4.90968 25.89583,-5.41179 29.39014,-8.9061 3.52747,-3.52747 9.31188,-3.96822 12.46855,-7.12489 1.06018,-1.06018 -2.67183,-22.91537 -2.67183,-25.82769 0,-4.83332 -1.16501,-12.40112 -2.67183,-16.9216 -1.83438,-5.50314 0.94116,-12.31688 -0.89061,-17.81221 -1.78228,-5.3468 -0.85165,-12.35165 -2.67183,-17.8122 -5.626,-16.87797 -5.17372,-35.11457 -10.68733,-51.6554 -1.87691,-5.63076 -5.14826,-38.10083 -7.12488,-40.07746 -0.35401,-0.35401 -2.34861,0.729 -2.67183,0.89061 -4.77163,2.38582 -10.49803,0.79597 -14.24977,2.67183 -3.4576,1.72881 -4.7434,2.72991 -8.9061,3.56244 z"
       id="path3553"
       inkscape:connector-curvature="0"
       inkscape:export-filename="/home/substack/media/vector/trumpet.png"
       inkscape:export-xdpi="67.387558"
       inkscape:export-ydpi="67.387558" />
    <path
       style="fill:#ffc815;fill-opacity:1;stroke:#000000;stroke-width:1.5;stroke-linecap:butt;stroke-linejoin:round;stroke-opacity:1;stroke-miterlimit:4;stroke-dasharray:none"
       d="m 196.12532,652.60159 c -7.77728,0.003 -28.66244,10.57464 -35.42959,12.83035 -10.33062,3.44355 -35.42975,2.67183 -47.20235,2.67183 -16.937592,0 -41.789397,-4.08699 -54.048909,-7.93199 -1.848351,0.93863 -3.942975,1.84036 -5.677641,2.86665 0.02011,0.19926 0.03783,0.41607 0.05566,0.61229 0.0057,0.005 -0.0054,0.022 0,0.0278 0.216914,0.23307 0.224406,0.53811 0.08349,0.91844 0.987155,13.16419 -2.727739,19.56535 10.603829,32.89692 4.579939,4.57994 14.819776,3.40214 20.484036,6.23427 2.843597,1.4218 7.642075,-1.01508 10.687323,0 3.145807,1.0486 5.127072,1.22763 8.015492,2.67183 2.36191,1.18096 51.53579,-1.27611 54.32722,-2.67183 9.45607,-4.72803 20.86979,-6.87245 30.28075,-11.57793 2.39855,-1.19927 7.49011,-2.51167 8.90611,-5.34367 2.41329,-4.82658 8.10606,-30.23546 0.89061,-33.84319 -0.49353,-0.24676 -1.1715,-0.3621 -1.97604,-0.36181 z"
       id="path3479"
       inkscape:connector-curvature="0"
       inkscape:export-filename="/home/substack/media/vector/trumpet.png"
       inkscape:export-xdpi="67.387558"
       inkscape:export-ydpi="67.387558" />
    <path
       style="fill:#939393;fill-opacity:1;stroke:#000000;stroke-width:1.5;stroke-linecap:butt;stroke-linejoin:round;stroke-opacity:1;stroke-miterlimit:4;stroke-dasharray:none"
       d="m 86.775074,563.85388 c -3.461842,-1.36461 -19.593427,9.93305 -19.593427,24.04647 0,6.68215 -4.025409,21.33933 -0.89061,27.60892 3.394304,6.78861 13.182932,32.00324 21.374647,34.7338 6.236013,2.07868 12.195515,6.73701 18.702816,8.90611 11.53741,3.8458 30.73637,2.81683 41.85868,-0.89061 4.40047,-1.46683 8.31079,-5.04601 12.46855,-7.12489 4.51401,-2.257 6.94309,-11.21435 8.9061,-15.14037 0.71249,-1.42498 -0.71249,-3.91869 0,-5.34366 2.09307,-4.18615 2.20816,-11.61466 0,-16.03099 -1.51509,-3.03017 0.72202,-7.29347 -1.78122,-9.79671 -2.9638,-2.9638 -4.53901,-8.99206 -8.01549,-12.46854 -9.05185,-9.05184 -21.54383,-13.44375 -33.8432,-19.59343 -3.24376,-1.62188 -8.35453,-0.16952 -11.57793,-1.78122 -8.70908,-4.35454 -17.169566,-7.12488 -27.608916,-7.12488 z"
       id="path3438"
       inkscape:connector-curvature="0"
       inkscape:export-filename="/home/substack/media/vector/trumpet.png"
       inkscape:export-xdpi="67.387558"
       inkscape:export-ydpi="67.387558" />
    <path
       style="fill:#bebebe;fill-opacity:1;stroke:#000000;stroke-width:1.5;stroke-linecap:butt;stroke-linejoin:round;stroke-opacity:1;stroke-miterlimit:4;stroke-dasharray:none"
       d="m 132.83999,626.11872 c -2.88355,2.2318 -16.13182,25.72452 -1.95013,28.8878 20.40112,8.65965 41.8342,-0.97012 61.01564,-8.23844 17.37819,-6.4044 33.60326,-16.61476 52.19295,-18.88064 18.79945,-6.29623 37.41408,-13.40434 55.56491,-21.37568 15.54787,-6.25202 -0.87994,-30.53377 -13.55246,-28.76388 -12.44945,2.73433 -24.54215,7.05432 -37.27462,8.7873 -11.12871,3.36944 -20.67663,10.74585 -32.87259,10.70846 -16.52747,3.73582 -38.12806,15.14712 -47.27553,17.17382 -12.1887,2.97934 -23.69665,8.39191 -35.84817,11.70126 z"
       id="path3644"
       inkscape:connector-curvature="0"
       sodipodi:nodetypes="cccccccccc"
       inkscape:export-filename="/home/substack/media/vector/trumpet.png"
       inkscape:export-xdpi="67.387558"
       inkscape:export-ydpi="67.387558" />
    <path
       style="fill:#939393;fill-opacity:1;stroke:#000000;stroke-width:1.5;stroke-linecap:butt;stroke-linejoin:round;stroke-opacity:1;stroke-miterlimit:4;stroke-dasharray:none"
       d="m 188.52734,751.58222 c -1.4445,1.19947 -3.13403,5.04288 -4.33348,3.59838 -5.75724,1.65432 -0.70796,32.98464 5.11533,44.07407 3.37494,9.97158 3.4487,8.15184 7.97452,17.53905 3.72124,9.65277 5.60282,16.06508 11.00025,19.41946 6.09126,3.78557 17.32362,-7.61096 25.26583,-13.65843 8.65194,-6.58789 -4.11693,-13.04446 -7.89331,-22.73151 -4.07726,-11.52711 -10.41986,-17.20164 -12.8421,-38.39016 -11.80778,-12.58119 1.74674,-15.92829 -24.28704,-9.85086 z"
       id="path3664"
       inkscape:connector-curvature="0"
       sodipodi:nodetypes="ccccssccc"
       inkscape:export-filename="/home/substack/media/vector/trumpet.png"
       inkscape:export-xdpi="67.387558"
       inkscape:export-ydpi="67.387558" />
    <path
       style="fill:#d4d4d4;fill-opacity:1;stroke:#000000;stroke-width:1.5;stroke-linecap:butt;stroke-linejoin:round;stroke-opacity:1;stroke-miterlimit:4;stroke-dasharray:none"
       d="m 282.18818,594.50967 c 11.87145,-7.64263 22.63277,-4.79192 25.43284,-1.41319 3.88533,4.68829 2.26524,27.24606 1.84511,34.32847 -2.18579,36.84637 -32.03639,57.87325 -40.90537,72.07053 -4.00173,6.40588 -26.25898,34.88948 -29.19107,41.54201 -9.12582,14.79475 -13.2704,18.20762 -24.57423,32.40101 -8.01285,5.77448 -16.62774,-0.51512 -21.78299,-10.17703 -6.49353,-12.17009 6.06419,-25.84609 16.29848,-38.95437 5.56916,-12.33904 10.59328,-22.322 18.10186,-31.19533 6.25121,-12.71831 19.73296,-37.0106 24.40985,-44.51983 15.66124,-25.14574 13.20204,-37.54495 30.36552,-54.08227 z"
       id="path3649"
       inkscape:connector-curvature="0"
       sodipodi:nodetypes="csssccsccsc"
       inkscape:transform-center-x="45.907075"
       inkscape:transform-center-y="83.170599"
       inkscape:export-filename="/home/substack/media/vector/trumpet.png"
       inkscape:export-xdpi="67.387558"
       inkscape:export-ydpi="67.387558" />
    <path
       style="fill:#ddcdcb;fill-opacity:1;stroke:#000000;stroke-width:1.5;stroke-linecap:butt;stroke-linejoin:round;stroke-opacity:1;stroke-miterlimit:4;stroke-dasharray:none"
       d="m 285.19393,320.56094 c 1.49463,-0.19564 2.59724,1.75698 4.36957,4.2762 2.51155,3.57001 3.11723,9.54095 0.78058,13.87917 -0.5344,0.99215 -1.53751,1.80464 -2.09098,2.83216 -1.20748,2.24184 -3.06247,4.40659 -5.42281,5.44846 -4.61229,2.03588 -10.80991,0.55407 -15.10628,-1.35063 -1.48528,-0.65848 -3.46654,-1.38768 -5.65228,-4.41154 -1.84175,-2.70739 -2.0071,-8.17012 -0.88329,-11.54154 0.27224,-0.81672 0.0443,-2.04813 0.66796,-2.67183"
       id="path4490"
       inkscape:connector-curvature="0"
       sodipodi:nodetypes="csscsscsc"
       inkscape:export-filename="/home/substack/media/vector/trumpet.png"
       inkscape:export-xdpi="67.387558"
       inkscape:export-ydpi="67.387558" />
    <path
       style="fill:#ddcdcb;fill-opacity:1;stroke:none;stroke-width:1.5;stroke-miterlimit:4;stroke-dasharray:none;stroke-linejoin:round"
       d="m 262.52436,332.58771 c -0.0742,-0.29687 -0.51952,-0.81639 -0.22266,-0.89061 0.29687,-0.0742 0.22266,1.19661 0.22266,0.89061 0,-1.05628 -1.15988,-3.73847 -0.22266,-4.67571 0.27292,-0.27292 -0.10576,-1.45281 0.22266,-1.78122 0.99087,-0.99087 1.60835,-3.16692 2.67183,-4.2304 1.04904,-1.04904 2.59197,-1.4787 3.56244,-2.44918 0.55384,-0.55383 1.93234,-0.37377 2.44918,-0.89061 0.42136,-0.42136 2.31377,0.0677 2.89448,-0.22265 0.49274,-0.24637 2.29755,-0.52112 2.89448,-0.22265 0.55268,0.27634 6.16468,2.00387 6.23427,2.00387 1.32912,0 2.93116,1.8179 3.56245,2.44918 0.81402,0.81403 1.09874,5.59535 0.4453,6.90223 -0.38176,0.76352 0.2148,2.01173 -0.4453,2.67183"
       id="path4580"
       inkscape:connector-curvature="0"
       inkscape:export-filename="/home/substack/media/vector/trumpet.png"
       inkscape:export-xdpi="67.387558"
       inkscape:export-ydpi="67.387558" />
    <path
       sodipodi:nodetypes="cccssssccsscsssssssc"
       inkscape:connector-curvature="0"
       id="path4842"
       d="m 418.7938,352.81219 c -0.23284,0.36724 11.21028,-0.80189 15.68582,0.20322 7.45358,2.91804 17.03195,7.97723 10.34016,13.72388 -2.02187,2.47706 -5.06225,4.80814 -7.79024,7.05432 -3.59826,2.96276 -6.25291,6.72807 -9.73649,9.93671 -9.82126,9.04613 -21.33975,16.14411 -31.03172,25.07115 -8.8694,8.1694 -15.29564,15.89735 -24.96358,23.11443 -4.48251,3.3462 -11.82615,8.7776 -16.20283,12.38129 -4.15883,4.04725 -10.2468,7.53237 -14.21175,9.94195 -4.56269,1.60622 -12.62869,4.79154 -15.28237,3.78416 -1.66681,-0.63274 -2.57223,-1.18947 -4.21152,-1.81177 -0.28756,-0.10916 -1.63617,-0.11612 -1.817,-0.26374 -2.18018,-1.77952 -5.819,-7.11649 -4.26681,-11.20533 0.10668,-0.28102 -0.31856,-1.1036 -0.13448,-1.32913 5.81462,-7.12372 9.92243,-14.56936 15.13221,-18.53906 3.11561,-2.37401 13.20158,-9.18785 16.29249,-11.49521 6.6054,-4.93092 13.66963,-12.10644 19.69712,-17.65821 8.7466,-8.05628 14.60115,-13.08552 19.2989,-17.17034 1.84349,-1.60297 7.6625,-5.33884 9.60723,-6.79058 7.19191,-5.36875 16.66633,-13.49697 23.59486,-18.94774 z"
       style="fill:#d4d4d4;fill-opacity:1;stroke:#000000;stroke-width:1.5;stroke-linecap:butt;stroke-linejoin:round;stroke-opacity:1;stroke-miterlimit:4;stroke-dasharray:none"
       inkscape:export-filename="/home/substack/media/vector/trumpet.png"
       inkscape:export-xdpi="67.387558"
       inkscape:export-ydpi="67.387558" />
    <path
       style="fill:#bebebe;fill-opacity:1;stroke:#000000;stroke-width:1.5;stroke-linecap:butt;stroke-linejoin:round;stroke-opacity:1;stroke-miterlimit:4;stroke-dasharray:none"
       d="m 187.16329,424.85293 c -5.26329,0.19711 -12.3288,5.91089 -12.83973,13.3759 -0.71671,5.58996 4.63292,12.72483 4.63292,12.72483 2.87612,3.68979 14.58429,4.31899 22.59925,4.85656 8.57279,0.63799 30.48445,0.82595 41.07349,2.89339 6.73393,1.31475 19.71168,2.23029 27.20962,2.76164 7.33645,1.0745 18.37721,2.96137 25.99131,4.07475 7.28717,-0.27291 26.4119,2.92533 33.4358,1.24732 3.23085,-0.77185 11.67938,-3.43294 14.25441,-6.20835 2.6666,-2.8741 5.57907,-9.0325 1.37357,-13.89344 -1.19005,-4.97423 -4.86137,-12.73286 -9.35419,-14.77282 -1.98929,-0.90323 -4.11369,-2.01802 -5.15273,-2.98204 -2.73182,-2.53458 -13.84521,-0.0804 -17.72659,-1.84273 -3.12469,-1.41875 -14.90115,1.56805 -18.23561,1.32022 -8.96015,-0.66595 -45.96036,-2.0736 -56.77712,-1.66852 -18.0703,0.67674 -32.87062,-2.54635 -50.4844,-1.88671 z"
       id="path3406"
       inkscape:connector-curvature="0"
       sodipodi:nodetypes="scccsccsscssssss"
       inkscape:export-filename="/home/substack/media/vector/trumpet.png"
       inkscape:export-xdpi="67.387558"
       inkscape:export-ydpi="67.387558" />
    <path
       style="fill:#d4d4d4;fill-opacity:1;stroke:#000000;stroke-width:1.5;stroke-linecap:butt;stroke-linejoin:round;stroke-opacity:1;stroke-miterlimit:4;stroke-dasharray:none"
       d="m 519.82541,316.90824 c -0.69156,1.1484 -0.96709,2.56813 -1.5408,3.69821 -0.0469,1.6042 -0.72497,3.24203 -0.051,4.7952 0.25913,1.82651 1.42232,3.48207 3.49207,3.27192 2.11784,0.0977 4.74659,0.34284 6.18117,-1.58067 1.91652,-2.24079 3.3152,-5.56061 1.86141,-8.39964 -1.69655,-3.44136 -6.64133,-4.3928 -9.60951,-2.03915 l -0.16852,0.1246 -0.16476,0.12953 0,0 z"
       id="path5216"
       inkscape:connector-curvature="0"
       inkscape:export-filename="/home/substack/media/vector/trumpet.png"
       inkscape:export-xdpi="67.387558"
       inkscape:export-ydpi="67.387558" />
    <path
       style="fill:none;stroke:#000000;stroke-width:1.5;stroke-linecap:round;stroke-linejoin:round;stroke-opacity:1;stroke-miterlimit:4;stroke-dasharray:none"
       d="m 92.640442,556.57619 c 0.60033,-4.42758 3.250944,-19.99485 6.234272,-28.94483 0.731166,-2.1935 0.305073,-4.17258 1.335916,-6.23427 0.97564,-1.95128 0.55923,-7.79805 1.78122,-10.24202 0.87302,-1.74604 0.96063,-11.20265 1.78122,-12.02324 1.04525,-1.04525 6.23427,-22.45376 6.23427,-24.93709"
       id="path5281"
       inkscape:connector-curvature="0"
       inkscape:export-filename="/home/substack/media/vector/trumpet.png"
       inkscape:export-xdpi="67.387558"
       inkscape:export-ydpi="67.387558" />
    <path
       style="fill:none;stroke:#000000;stroke-width:1.5;stroke-linecap:round;stroke-linejoin:round;stroke-opacity:1;stroke-miterlimit:4;stroke-dasharray:none"
       d="m 104.91681,466.07504 c -1.6905,-2.7767 -3.65758,-7.40886 -3.56664,-10.46896 -0.47816,-6.92021 -1.1631,-12.90457 -0.79489,-19.815 1.50564,-2.98748 0.76046,-7.27988 2.19929,-10.14034 1.25789,-2.84624 1.1854,-6.36473 2.78661,-9.08927 0.54323,-3.59335 2.3741,-5.96313 3.65445,-9.27032 0.69046,-1.85901 3.63491,-5.4261 6.01714,-5.35021"
       id="path5294"
       inkscape:connector-curvature="0"
       sodipodi:nodetypes="ccccccc"
       inkscape:export-filename="/home/substack/media/vector/trumpet.png"
       inkscape:export-xdpi="67.387558"
       inkscape:export-ydpi="67.387558" />
    <path
       style="fill:#939393;fill-opacity:1;stroke:#000000;stroke-width:1.5;stroke-linecap:butt;stroke-linejoin:round;stroke-opacity:1;stroke-miterlimit:4;stroke-dasharray:none"
       d="m 259.62987,278.70578 c -1.08893,0.0255 -1.27039,1.49305 -2.67183,2.89449 -0.15426,0.15427 -0.0684,0.959 -0.22265,1.11326 -1.4296,1.42961 -0.40186,4.4965 0.66796,5.56631 1.20877,1.20878 7.95176,-1.71748 8.46079,-2.22652 0.67902,-0.67901 3.3639,-3.51423 2.44918,-5.34366 -1.16273,-2.32548 -2.62838,-3.11714 -5.12101,-3.11714 -0.17433,0 -1.00216,-0.11109 -1.11326,0 -0.41866,0.41866 -1.67557,0.80382 -2.44918,1.11326 z"
       id="path5436"
       inkscape:connector-curvature="0"
       inkscape:export-filename="/home/substack/media/vector/trumpet.png"
       inkscape:export-xdpi="67.387558"
       inkscape:export-ydpi="67.387558" />
    <path
       style="fill:#d4d4d4;fill-opacity:1;stroke:#000000;stroke-width:1.5;stroke-linecap:butt;stroke-linejoin:round;stroke-opacity:1;stroke-miterlimit:4;stroke-dasharray:none"
       d="m 269.09261,275.93404 c -0.29449,-1.0688 -0.63039,-2.14599 -1.16893,-2.89448 -0.34372,-0.47772 -0.71776,-0.85968 -1.16893,-1.11326 -0.45116,-0.25359 -0.96586,-0.37752 -1.53073,-0.33398 -0.32279,0.0249 -0.66813,0.10991 -1.02977,0.25048 -0.98792,0.2118 -1.98151,0.60464 -3.06147,1.28026 -1.07997,0.67561 -2.24631,1.634 -3.61811,3.00581 -0.95633,0.95633 -2.01907,1.90302 -3.06147,2.95014 -1.0424,1.04713 -2.06446,2.1947 -2.97798,3.56244 -0.71894,1.07644 -1.50381,2.43686 -2.1152,3.84076 -0.30569,0.70195 -0.57077,1.42352 -0.75145,2.1152 -0.18068,0.69167 -0.28807,1.35607 -0.27832,1.97604 0.0376,0.0774 0.12378,0.0964 0.16699,0.16699 0.59137,-1.94985 2.70647,-2.68415 3.95209,-4.11907 1.62813,-1.70247 3.3777,-3.37986 5.51065,-4.48089 1.9697,-1.31764 3.74469,-2.85417 5.90029,-3.84075 1.74215,-0.49978 3.41252,-1.27019 4.98185,-2.17086 0.0216,-0.0188 0.22096,-0.17042 0.25049,-0.19483 z"
       id="path5408"
       inkscape:connector-curvature="0"
       inkscape:export-filename="/home/substack/media/vector/trumpet.png"
       inkscape:export-xdpi="67.387558"
       inkscape:export-ydpi="67.387558" />
    <path
       style="fill:#d4d4d4;fill-opacity:1;stroke:#000000;stroke-width:1.5;stroke-linecap:round;stroke-linejoin:round;stroke-opacity:1;stroke-miterlimit:4;stroke-dasharray:none"
       d="m 273.21168,281.60027 c -6.34745,0 -11.7051,1.68573 -16.25364,6.23427 -1.20914,0.90439 -2.09075,2.30835 -3.11713,2.89448 -0.97048,1.94097 -2.568,2.35527 -1.78122,3.33979 1.98715,4.22729 10.93781,2.17085 15.36302,-0.66796"
       id="path5434"
       inkscape:connector-curvature="0"
       sodipodi:nodetypes="ccccc"
       inkscape:export-filename="/home/substack/media/vector/trumpet.png"
       inkscape:export-xdpi="67.387558"
       inkscape:export-ydpi="67.387558" />
    <path
       style="fill:none;stroke:#000000;stroke-width:1.5;stroke-linecap:butt;stroke-linejoin:round;stroke-opacity:1;stroke-miterlimit:4;stroke-dasharray:none"
       d="m 198.33468,302.42384 c -13.45792,2.05875 -15.05757,27.73759 3.77854,37.15564 3.89341,1.9467 14.62426,-1.11966 15.74391,0 0.7917,0.7917 1.78018,2.40994 2.51903,3.14879 0.29112,0.29111 1.50904,-0.19012 1.88927,0 5.41937,2.70968 12.16497,-2.71864 15.11416,-5.66781"
       id="path5462"
       inkscape:connector-curvature="0"
       inkscape:export-filename="/home/substack/media/vector/trumpet.png"
       inkscape:export-xdpi="67.387558"
       inkscape:export-ydpi="67.387558" />
    <path
       style="fill:none;stroke:#000000;stroke-width:1.5;stroke-linecap:round;stroke-linejoin:round;stroke-opacity:1;stroke-miterlimit:4;stroke-dasharray:none"
       d="m 200.40429,307.20531 c -1.92249,-0.30948 -2.87756,1.98695 -5.78897,4.89836 -0.64369,5.38675 0.0463,13.22927 4.00775,17.81221 1.78929,1.78928 4.71715,2.93593 6.67958,4.89835 0.22219,0.2222 1.87785,0 2.22652,0 8.9385,0 17.03394,-11.9109 24.49178,-4.45305"
       id="path5502"
       inkscape:connector-curvature="0"
       sodipodi:nodetypes="cccssc"
       inkscape:export-filename="/home/substack/media/vector/trumpet.png"
       inkscape:export-xdpi="67.387558"
       inkscape:export-ydpi="67.387558" />
  </g>
</svg>
