<?xml version="1.0" encoding="UTF-8" standalone="no"?>
<!-- Created with Inkscape (http://www.inkscape.org/) -->

<svg
   xmlns:dc="http://purl.org/dc/elements/1.1/"
   xmlns:cc="http://creativecommons.org/ns#"
   xmlns:rdf="http://www.w3.org/1999/02/22-rdf-syntax-ns#"
   xmlns:svg="http://www.w3.org/2000/svg"
   xmlns="http://www.w3.org/2000/svg"
   xmlns:sodipodi="http://sodipodi.sourceforge.net/DTD/sodipodi-0.dtd"
   xmlns:inkscape="http://www.inkscape.org/namespaces/inkscape"
   width="744.09448819"
   height="1052.3622047"
   id="svg5491"
   version="1.1"
   inkscape:version="0.48.1 r9760"
   sodipodi:docname="worm.svg">
  <defs
     id="defs5493" />
  <sodipodi:namedview
     id="base"
     pagecolor="#ffffff"
     bordercolor="#666666"
     borderopacity="1.0"
     inkscape:pageopacity="0.0"
     inkscape:pageshadow="2"
     inkscape:zoom="1.4"
     inkscape:cx="321.71573"
     inkscape:cy="838.44663"
     inkscape:document-units="px"
     inkscape:current-layer="layer1"
     showgrid="false"
     inkscape:window-width="1364"
     inkscape:window-height="766"
     inkscape:window-x="0"
     inkscape:window-y="0"
     inkscape:window-maximized="0" />
  <metadata
     id="metadata5496">
    <rdf:RDF>
      <cc:Work
         rdf:about="">
        <dc:format>image/svg+xml</dc:format>
        <dc:type
           rdf:resource="http://purl.org/dc/dcmitype/StillImage" />
        <dc:title></dc:title>
      </cc:Work>
    </rdf:RDF>
  </metadata>
  <g
     inkscape:label="Layer 1"
     inkscape:groupmode="layer"
     id="layer1">
    <path
       style="fill:#ea7070;fill-opacity:1;stroke:#000000;stroke-width:1;stroke-linecap:butt;stroke-linejoin:miter;stroke-opacity:1;stroke-miterlimit:4;stroke-dasharray:none"
       d="m 311.38987,201.49306 c -4.57896,-2.77357 -3.73484,-15.19233 0.46577,-23.33424 1.34491,-2.60681 5.49523,-4.83563 6.73595,-7.24047 1.1579,-2.24433 5.71946,-5.78487 8.60319,-6.70572 7.66792,-2.44857 13.55165,-6.42242 21.53171,-5.17914 1.17213,0.18259 2.11205,1.5183 2.87203,1.9104 6.22389,3.21105 11.17275,9.19334 16.20589,11.79005 11.38883,5.8758 22.90983,8.61844 33.41226,-1.62142 2.76253,-2.69346 5.55474,-8.2742 7.12837,-11.32429 0.52821,-1.02382 -0.29238,-2.81831 -0.12071,-3.91995 1.85346,-11.89638 -9.6591,-31.30308 -16.88718,-38.71653 -4.05188,-4.15578 -5.46418,-10.10579 -10.23325,-12.56627 -2.13377,-1.10087 -7.31302,-12.331985 -9.86237,-14.946713 -1.65544,-1.697905 -2.72607,-8.839657 -2.08717,-10.07802 0.1255,-0.243176 0.52,-5.161856 1.62578,-7.305158 1.72445,-3.342424 16.58347,-13.508504 21.96725,-12.669712 2.89072,0.450361 5.91232,1.097041 8.84468,1.134173 12.48825,0.1581 20.13289,9.946068 27.18086,19.595471 1.95027,2.670142 2.53876,6.075193 4.48916,8.745506 3.7291,5.105523 3.24002,13.431223 6.57635,18.823523 3.82101,6.17569 13.88133,29.84019 12.82493,36.6207 -0.61626,3.95548 -1.74529,8.07225 -2.36752,12.06603 -0.29666,1.90434 -2.49774,3.51199 -2.79443,5.41633 -0.4297,2.758 -0.93391,6.7949 -2.16051,9.17242 -1.37799,2.6709 -3.75785,5.62209 -5.21799,8.45224 -0.99872,1.93578 -1.73499,5.05634 -3.49303,6.77041 -3.0895,3.01226 -6.43672,6.27577 -9.48724,9.25003 -8.93301,8.70966 -25.03896,9.99677 -36.39214,8.22795 -1.63312,-0.25445 -3.72059,0.22361 -5.27404,-0.57787 -7.9845,-4.11942 -16.08637,-9.58526 -24.86512,-14.11445 -4.67367,-2.41127 -10.76261,-4.69545 -15.24423,-7.00764 -1.04904,-0.54122 -3.26914,0.46597 -4.43312,0.28467 -11.6576,-1.81624 -7.62737,15.61464 -10.31523,20.82443 -3.4364,6.66065 -16.96608,2.30216 -19.22887,-1.77673 z"
       id="path6374"
       inkscape:connector-curvature="0" />
    <path
       sodipodi:type="inkscape:offset"
       inkscape:radius="-1.3925319"
       inkscape:original="M 342.125 175.21875 C 341.32303 175.11974 340.31646 175.33427 339.53125 175.34375 C 337.30448 175.50923 335.02927 175.4743 332.84375 175.9375 C 331.12074 177.48746 330.79094 179.9958 331.46875 182.125 C 330.45793 183.6566 328.86505 185.07255 328.1875 186.90625 C 326.60107 190.1352 327.33571 194.21502 329.90625 196.71875 C 330.43172 197.26493 331.02985 197.76111 331.65625 198.1875 C 332.10714 193.90557 331.87368 189.33348 333.90625 185.40625 C 335.10588 182.91817 338.05935 181.92383 340.65625 182.40625 C 342.43523 182.73509 344.35808 181.28112 346 182.46875 C 352.13789 185.45701 358.62701 187.78658 364.53125 191.25 C 367.13425 192.70315 369.68612 194.22937 372.25 195.75 C 369.93667 192.35602 367.91642 188.73212 365.375 185.5 C 364.16452 184.72433 362.07263 185.89286 361.53125 184 C 360.12766 182.3794 358.07007 183.20755 356.28125 183.28125 C 354.46628 182.54658 354.39929 179.847 352.53125 179 C 350.87449 178.06897 348.94214 178.97125 347.1875 179.09375 C 345.51745 179.6197 343.49028 178.90409 343.46875 176.90625 C 343.5114 175.70973 342.92697 175.31776 342.125 175.21875 z "
       style="fill:#e96767;fill-opacity:1;stroke:none"
       id="path6741"
       d="m 341.96875,176.59375 c -0.41858,-0.0517 -1.38182,0.14388 -2.40625,0.15625 l 0,-0.0312 c -2.11001,0.15358 -4.09671,0.23785 -5.9375,0.5625 -1.02059,1.13247 -1.34736,2.82427 -0.84375,4.40625 a 1.3926711,1.3926711 0 0 1 -0.15625,1.21875 c -1.16394,1.76361 -2.6126,3.08201 -3.125,4.46875 a 1.3926711,1.3926711 0 0 1 -0.0625,0.15625 c -1.21441,2.47176 -0.71246,5.59089 1.0625,7.6875 0.21413,-3.41426 0.39941,-6.9945 2.15625,-10.40625 0.004,-0.008 -0.004,-0.0234 0,-0.0312 l 0.0312,0 c 1.53639,-3.13166 5.11127,-4.32727 8.21875,-3.75 0.44058,0.0814 1.20966,-0.088 2.21875,-0.28125 0.95106,-0.18212 2.27294,-0.24361 3.46875,0.5 l 0.0312,-0.0312 c 6.03454,2.93795 12.55074,5.27364 18.59375,8.8125 0.0122,0.007 0.0191,0.0241 0.0312,0.0312 0.8358,0.4669 1.64398,0.95987 2.46875,1.4375 -1.04766,-1.63509 -2.09859,-3.31945 -3.25,-4.8125 -0.12204,-0.0217 -0.51741,-0.0788 -1.34375,-0.125 -0.46084,-0.0257 -1.02974,-0.0925 -1.625,-0.4375 -0.43709,-0.25333 -0.71308,-0.78134 -0.96875,-1.28125 l -0.0625,0.0625 c -0.40448,-0.46702 -0.70724,-0.51046 -1.40625,-0.5 -0.69901,0.0105 -1.63193,0.23647 -2.71875,0.28125 a 1.3926711,1.3926711 0 0 1 -0.59375,-0.125 c -1.45184,-0.58768 -2.05372,-1.8454 -2.53125,-2.71875 -0.47753,-0.87335 -0.81703,-1.36618 -1.25,-1.5625 a 1.3926711,1.3926711 0 0 1 -0.125,-0.0625 c -0.45932,-0.25812 -0.96955,-0.29434 -1.75,-0.1875 -0.69315,0.0949 -1.56945,0.27353 -2.5,0.375 l 0,0.0312 c -0.11549,0.0125 -0.19364,0.023 -0.3125,0.0312 -1.07368,0.26814 -2.1802,0.22768 -3.1875,-0.28125 -1.10386,-0.55772 -2.01543,-1.81321 -2.03125,-3.28125 a 1.3926711,1.3926711 0 0 1 0,-0.0625 c 0.0131,-0.36656 -0.0317,-0.31787 0.0312,-0.25 0.0629,0.0679 0.095,0.0272 -0.125,0 z" />
    <path
       sodipodi:type="inkscape:offset"
       inkscape:radius="-1.1402587"
       inkscape:original="M 400.09375 60.5 C 397.9588 60.397146 397.12178 60.750571 400.8125 62.28125 C 404.93133 65.286047 409.07965 68.406858 413.125 71.53125 C 417.95302 72.059931 425.66731 71.307572 424.625 78.71875 C 423.40959 84.354045 424.70981 90.612364 429 94.4375 C 436.6409 96.042623 426.43325 105.53748 435 105.9375 C 438.38557 110.09005 436.8922 115.2304 432.84375 118.0625 C 437.57171 122.79348 434.72738 128.18424 431.46875 132.625 C 432.61921 134.60273 438.50507 129.04407 434.96875 133.84375 C 436.29449 136.2561 439.25626 137.30754 438.5625 140.9375 C 440.97808 141.34085 448.07923 137.07792 445.3125 142.90625 C 440.78307 145.09281 445.47449 149.0178 443.5625 152.71875 C 448.0111 157.03411 434.2517 159.9567 440.71875 163.0625 C 437.52638 167.3221 432.92614 168.94823 428.65625 170.34375 C 428.06907 175.16695 426.20955 179.44981 420.53125 178.46875 C 418.88542 181.5234 419.57486 185.77134 414.90625 187.03125 C 411.6403 187.95099 405.8002 185.35348 407.46875 191.375 C 405.89176 194.10123 400.7802 193.94932 398.28125 195.0625 C 393.97682 187.08803 392.37385 202.66323 386.75 196.5625 C 383.3639 191.83956 380.13355 196.83273 376.40625 198.125 C 380.97819 200.52697 385.23486 204.54309 390.75 203.875 C 404.10809 205.72746 419.70764 204.13958 429.25 193.5625 C 433.09005 189.43876 438.2729 186.19318 439.75 180.40625 C 443.84669 174.35321 447.24127 167.96924 448.03125 160.625 C 451.2867 156.75385 450.86234 151.38634 452.25 146.75 C 453.774 139.34321 450.08051 132.13104 447.8125 125.25 C 445.19772 118.10538 441.64291 111.36393 438.3125 104.5625 C 436.85594 96.650635 433.79477 89.471908 430.03125 82.4375 C 424.33708 73.842164 417.53732 64.451239 407.125 61.46875 C 405.67208 61.168767 402.2287 60.602854 400.09375 60.5 z "
       style="fill:#e96666;fill-opacity:1;stroke:none"
       id="path6584"
       d="m 402.25,61.9375 c 3.79568,2.77959 7.58459,5.62389 11.3125,8.5 1.86814,0.178714 4.19903,0.301141 6.4375,0.78125 -3.71117,-3.91534 -7.94064,-7.12477 -13.09375,-8.625 -0.006,-0.0013 -0.025,0.0013 -0.0312,0 -0.94214,-0.193601 -2.88929,-0.44038 -4.625,-0.65625 z m 23.5,16.375 c -0.0169,0.198896 0.029,0.355981 0,0.5625 a 1.1403727,1.1403727 0 0 1 0,0.09375 c -1.13694,5.27145 0.0751,11.0658 3.9375,14.5625 1.86122,0.550186 3.06827,1.693361 3.375,3.0625 0.3352,1.496218 -0.0206,2.98075 -0.28125,4.28125 -0.26064,1.3005 -0.38139,2.39317 -0.1875,2.90625 0.0969,0.25654 0.18863,0.43938 0.53125,0.625 0.34262,0.18562 0.9769,0.3614 1.9375,0.40625 a 1.1403727,1.1403727 0 0 1 0.8125,0.40625 c 1.89028,2.31851 2.46093,5.02378 1.9375,7.5 -0.44301,2.09576 -1.72629,3.94992 -3.4375,5.4375 1.91974,2.39019 2.42851,5.06146 1.90625,7.53125 -0.44641,2.11108 -1.57572,4.04897 -2.78125,5.875 0.34311,-0.14221 0.65922,-0.24868 1,-0.40625 0.30322,-0.14021 0.58091,-0.27934 0.90625,-0.375 0.16267,-0.0478 0.31457,-0.11719 0.625,-0.0937 0.31043,0.0234 0.90892,0.34142 1.09375,0.8125 0.18483,0.47108 0.10115,0.75314 0.0312,0.96875 -0.0699,0.21561 -0.17174,0.39927 -0.28125,0.59375 -0.10792,0.19165 -0.34063,0.48245 -0.5,0.71875 0.55449,0.76618 1.26156,1.48117 2.03125,2.4375 0.68672,0.85325 1.09385,2.07358 1.1875,3.46875 0.37643,-0.0495 0.61766,-0.0465 1.15625,-0.1875 0.93078,-0.24364 1.95148,-0.58668 2.9375,-0.75 0.49301,-0.0817 0.99287,-0.12819 1.5,-0.0625 0.50713,0.0657 1.10817,0.31251 1.5,0.84375 0.39183,0.53124 0.43608,1.19318 0.34375,1.8125 -0.0923,0.61932 -0.31269,1.27293 -0.6875,2.0625 a 1.1403727,1.1403727 0 0 1 -0.53125,0.53125 c -0.94268,0.45507 -1.1843,0.8359 -1.3125,1.25 -0.1282,0.4141 -0.10864,1.01323 0.0625,1.8125 0.31329,1.46318 0.98687,3.52878 0.1875,5.65625 0.33996,0.48144 0.77688,0.93181 0.84375,1.46875 0.10054,0.80729 -0.16041,1.57567 -0.53125,2.1875 -0.74169,1.22366 -1.93545,2.11187 -2.96875,2.9375 -1.0333,0.82563 -1.86355,1.64302 -1.96875,1.90625 -0.0526,0.13162 -0.0692,0.0189 0,0.125 0.0692,0.10614 0.38794,0.41104 1.09375,0.75 A 1.1403727,1.1403727 0 0 1 441.625,163.75 c -3.26331,4.35425 -7.86175,6.06865 -12,7.4375 -0.33546,2.25563 -0.88732,4.47041 -2.21875,6.125 -1.31449,1.63353 -3.43909,2.5333 -6.09375,2.34375 -0.50452,1.20995 -0.81318,2.64817 -1.40625,4.1875 -0.68594,1.78039 -2.02834,3.56363 -4.6875,4.28125 -2.07327,0.58386 -4.37993,0.10517 -5.71875,0.28125 -0.66941,0.088 -0.93857,0.2584 -1.0625,0.46875 -0.12393,0.21035 -0.25206,0.82675 0.125,2.1875 a 1.1403727,1.1403727 0 0 1 -0.0937,0.875 c -1.06046,1.83328 -3.09183,2.53591 -4.96875,3 -1.87692,0.46409 -3.78211,0.7251 -4.75,1.15625 a 1.1403727,1.1403727 0 0 1 -1.46875,-0.5 c -0.49418,-0.91553 -0.93634,-1.40584 -1.1875,-1.59375 -0.25116,-0.18791 -0.20395,-0.15633 -0.3125,-0.125 -0.2171,0.0627 -1.05515,0.87165 -1.875,1.9375 -0.81985,1.06585 -1.68619,2.33326 -3.09375,3 -0.70378,0.33337 -1.57901,0.47108 -2.4375,0.21875 -0.85849,-0.25233 -1.67468,-0.8261 -2.46875,-1.6875 a 1.1403727,1.1403727 0 0 1 -0.0937,-0.125 c -0.74106,-1.03364 -1.3137,-1.36398 -1.8125,-1.46875 -0.4988,-0.10477 -1.08373,0.023 -1.8125,0.375 -0.98778,0.47705 -2.15899,1.2957 -3.46875,2.0625 3.99309,2.37068 7.64947,5.07816 11.90625,4.5625 a 1.1403727,1.1403727 0 0 1 0.28125,0 c 13.15063,1.82369 28.33364,0.22281 37.5,-9.9375 a 1.1403727,1.1403727 0 0 1 0,-0.0312 c 3.98542,-4.27985 8.90571,-7.38965 10.25,-12.65625 a 1.1403727,1.1403727 0 0 1 0.15625,-0.34375 c 4.05198,-5.98698 7.3334,-12.2125 8.09375,-19.28125 a 1.1403727,1.1403727 0 0 1 0.25,-0.59375 c 2.87079,-3.41374 2.52714,-8.47624 3.96875,-13.375 1.41683,-6.88592 -2.06569,-13.89126 -4.375,-20.875 -0.008,-0.0218 -0.0233,-0.0407 -0.0312,-0.0625 -2.5776,-7.0249 -6.10735,-13.73036 -9.4375,-20.53125 a 1.1403727,1.1403727 0 0 1 -0.0937,-0.28125 c -1.42051,-7.716033 -4.38576,-14.774407 -8.09375,-21.71875 -0.0204,-0.03081 -0.0421,-0.06293 -0.0625,-0.09375 -1.0335,-1.558776 -2.16794,-3.105006 -3.28125,-4.65625 z" />
    <path
       sodipodi:type="inkscape:offset"
       inkscape:radius="-1.430768"
       inkscape:original="M 318.59375 170.90625 C 317.18462 173.29096 314.65301 174.67755 312.875 176.75 C 311.34835 178.47383 310.6875 180.74248 309.9375 182.875 C 308.58041 187.35956 307.82903 192.1907 308.6875 196.84375 C 309.06877 198.61186 309.80275 200.47109 311.375 201.5 C 312.85063 203.65816 315.35999 204.7985 317.75 205.65625 C 318.75045 205.98506 319.76899 206.28703 320.8125 206.4375 C 321.5744 204.75169 322.48417 202.74156 321.71875 200.90625 C 321.11898 199.64775 319.58827 199.55473 318.40625 199.4375 C 318.57795 198.63012 319.775 197.85234 319.0625 196.96875 C 317.68326 194.17009 316.25468 191.40602 314.90625 188.59375 C 314.99945 187.2205 316.97003 187.36697 318 187.0625 C 319.09485 187.0437 321.48653 186.29537 319.8125 185.03125 C 318.70451 183.87759 317.23104 183.10333 316.34375 181.75 C 316.03117 180.35487 318.21227 180.72168 318.96875 179.96875 C 320.38331 178.99532 318.1552 178.01393 317.8125 177 C 316.68397 175.7595 318.16329 174.60381 319.4375 175.25 C 320.44518 175.74809 322.46587 175.29562 321.40625 173.875 C 320.60458 172.76581 319.38799 172.02184 318.59375 170.90625 z "
       style="fill:#f58282;fill-opacity:1;stroke:none"
       id="path6550"
       d="m 318.625,173 c -0.2523,0.2973 -0.4837,0.60788 -0.75,0.875 0.50941,-0.15394 1.02028,-0.17362 1.5625,-0.0312 -0.25237,-0.23792 -0.51478,-0.56164 -0.8125,-0.84375 z m -2.4375,2.625 c -0.80817,0.68693 -1.62038,1.36504 -2.21875,2.0625 a 1.4309111,1.4309111 0 0 1 -0.0312,0 c -1.23642,1.39611 -1.86745,3.43523 -2.625,5.59375 -0.008,0.0227 -0.0232,0.0397 -0.0312,0.0625 -1.29815,4.31263 -1.96539,8.8939 -1.1875,13.1875 0.34508,1.60027 0.98034,3.07306 2.0625,3.78125 a 1.4309111,1.4309111 0 0 1 0.40625,0.375 c 1.17689,1.72124 3.32501,2.79735 5.625,3.625 0.0101,0.003 0.0212,-0.003 0.0312,0 0.57825,0.18961 1.13301,0.30161 1.6875,0.4375 0.48985,-1.24059 0.84488,-2.38661 0.5,-3.25 -0.0973,-0.18757 -0.20525,-0.29105 -0.5625,-0.40625 -0.37975,-0.12246 -0.97936,-0.15782 -1.59375,-0.21875 a 1.4309111,1.4309111 0 0 1 -1.25,-1.75 c 0.19581,-0.92076 0.6242,-1.26457 0.78125,-1.5 a 1.4309111,1.4309111 0 0 1 0,-0.0312 c -1.37119,-2.78233 -2.79551,-5.53705 -4.15625,-8.375 A 1.4309111,1.4309111 0 0 1 313.46875,188.5 c 0.0465,-0.68486 0.41398,-1.38445 0.875,-1.78125 0.46102,-0.3968 0.9465,-0.53908 1.375,-0.65625 0.857,-0.23434 1.65771,-0.31077 1.875,-0.375 a 1.4309111,1.4309111 0 0 1 0.375,-0.0625 c 0.0503,-8.6e-4 0.16044,-0.0454 0.25,-0.0625 -0.9118,-0.76714 -2.1018,-1.56595 -3.0625,-3.03125 a 1.4309111,1.4309111 0 0 1 -0.21875,-0.46875 c -0.15283,-0.68213 0.0796,-1.60744 0.5625,-2.09375 0.48288,-0.48631 0.95954,-0.60568 1.34375,-0.71875 0.49219,-0.14485 0.54882,-0.14343 0.71875,-0.1875 -0.26451,-0.2241 -0.53339,-0.58741 -0.8125,-1.09375 -0.0238,-0.0432 -0.0396,-0.0789 -0.0625,-0.125 -0.0713,-0.14373 -0.15964,-0.2001 -0.21875,-0.375 l 0.0625,-0.0312 c -0.2584,-0.41509 -0.56231,-0.82115 -0.5625,-1.3125 -7e-5,-0.19621 0.17091,-0.31609 0.21875,-0.5 z" />
    <path
       sodipodi:type="inkscape:offset"
       inkscape:radius="-1.069995"
       inkscape:original="M 388.1875 60.4375 C 381.90829 62.944662 375.96156 66.688157 371.25 71.5625 C 369.2121 75.69431 368.46528 80.710389 369.5 85.25 C 370.44281 90.004559 374.447 93.301541 376.34375 97.6875 C 378.23016 102.73138 382.8606 105.30586 385.9375 109.375 C 389.1899 115.72548 394.86635 120.262 398.4375 126.40625 C 403.63234 134.9363 408.68298 144.4819 408.34375 154.75 C 409.39994 160.30805 405.63046 164.90906 402.75 169.34375 C 397.19675 176.5659 387.22638 179.79846 378.5 177.03125 C 374.3738 175.88981 370.31457 174.24916 366.6875 171.96875 C 368.72813 178.15377 376.04934 178.83893 381.46875 179.90625 C 383.43335 182.32809 386.21183 182.48578 388.21875 180.15625 C 389.62925 181.94616 392.54892 185.0862 392.84375 180.9375 C 395.69984 181.47096 396.61174 180.17481 396.84375 177.84375 C 400.95505 181.00372 399.41428 176.86519 400.5 175.0625 C 403.19749 175.50763 405.04468 181.29236 406.21875 176.40625 C 409.33812 175.7582 417.74496 176.88907 413.46875 171.15625 C 411.62697 165.19856 422.76704 172.60959 420.375 165.59375 C 419.11653 159.39401 428.04661 161.58422 430.28125 157.375 C 430.98145 152.71144 422.25836 156.74087 419.4375 154.625 C 420.53386 152.31749 420.63574 150.04463 417.15625 150.21875 C 415.03848 147.25579 424.86489 146.64187 419.03125 144.75 C 412.5947 142.0683 427.88414 140.4155 420.6875 138.46875 C 418.30607 138.47375 409.08697 137.24723 415.59375 135.28125 C 419.06788 133.33725 425.31274 132.72153 426.4375 128.78125 C 425.05416 127.08785 418.35413 129.92757 421.40625 126.0625 C 424.0282 124.6688 425.62123 121.87911 421.34375 122.96875 C 418.37948 124.04911 416.74068 121.83411 420.21875 120.625 C 421.83788 118.11495 421.16365 113.60014 417.15625 114.5 C 418.62025 111.04072 420.71965 106.47851 415.3125 105.375 C 417.57736 102.67252 421.25168 94.358813 415.03125 94.65625 C 411.15237 96.098753 408.81833 93.709566 407.84375 90.21875 C 403.73604 91.624374 405.7349 88.228389 404.5625 86.375 C 400.82761 86.44799 399.11581 84.55966 398.875 81 C 396.76823 78.494643 391.51337 76.044503 396.78125 73.75 C 397.02138 70.871367 386.41797 70.232693 392.84375 67.6875 C 399.60845 66.880305 391.5968 63.179303 389.4375 61.5 L 389 61.15625 L 388.1875 60.4375 z "
       style="fill:#f58282;fill-opacity:1;stroke:none"
       id="path6547"
       d="m 388.03125,61.71875 c -5.88506,2.431369 -11.45027,5.931155 -15.875,10.46875 -1.87668,3.888879 -2.58468,8.602121 -1.625,12.8125 a 1.070102,1.070102 0 0 1 0.0312,0.03125 c 0.84874,4.280149 4.71302,7.508537 6.75,12.21875 a 1.070102,1.070102 0 0 1 0.0312,0.0625 c 1.72701,4.61767 6.18007,7.09836 9.4375,11.40625 a 1.070102,1.070102 0 0 1 0.0937,0.15625 c 3.11019,6.0728 8.76469,10.61643 12.46875,16.96875 0.007,0.0127 0.0239,0.0186 0.0312,0.0312 5.17501,8.50079 10.27148,18.14961 10,28.6875 l 0.0312,0 c 0.0125,0.0656 -0.0113,0.12218 0,0.1875 0.002,0.0109 -0.002,0.0204 0,0.0312 1.02062,6.01635 -2.95307,10.85016 -5.75,15.15625 A 1.070102,1.070102 0 0 1 403.59375,170 c -5.10046,6.63329 -13.69476,10.03076 -21.90625,8.84375 a 1.070102,1.070102 0 0 1 0.625,0.375 c 0.83398,1.02809 1.7263,1.49547 2.5625,1.53125 0.8362,0.0358 1.69495,-0.31052 2.53125,-1.28125 a 1.070102,1.070102 0 0 1 1.65625,0.0312 c 0.67137,0.85197 1.78586,2.0063 2.375,2.3125 0.0706,0.0367 0.0825,0.0174 0.125,0.0312 -0.009,-0.0165 0.16194,-0.16934 0.21875,-0.96875 a 1.070102,1.070102 0 0 1 1.25,-1 c 1.2541,0.23424 1.79338,0.0497 2.09375,-0.21875 0.30037,-0.26845 0.55199,-0.85875 0.65625,-1.90625 A 1.070102,1.070102 0 0 1 397.5,177 c 0.80802,0.62105 1.15703,0.72163 1.3125,0.78125 0.0563,-0.27567 0.12185,-0.6824 0.1875,-1.21875 0.0774,-0.63246 0.17126,-1.36101 0.59375,-2.0625 a 1.070102,1.070102 0 0 1 1.09375,-0.5 c 1.02234,0.1687 1.77112,0.78691 2.40625,1.375 0.63513,0.58809 1.16044,1.21494 1.5625,1.59375 0.091,0.0857 0.11712,0.10108 0.1875,0.15625 0.0937,-0.1945 0.22489,-0.47407 0.34375,-0.96875 A 1.070102,1.070102 0 0 1 406,175.34375 c 0.93424,-0.19409 2.04014,-0.20737 3.1875,-0.28125 1.14736,-0.0739 2.32256,-0.18691 3.15625,-0.40625 0.83369,-0.21934 1.15675,-0.50055 1.21875,-0.6875 0.062,-0.18695 0.0412,-0.87546 -0.9375,-2.1875 a 1.070102,1.070102 0 0 1 -0.1875,-0.3125 c -0.26593,-0.8602 -0.35379,-1.60726 -0.125,-2.3125 0.22879,-0.70524 0.84641,-1.20661 1.4375,-1.40625 1.18217,-0.39928 2.3916,-0.14479 3.5,-0.0312 1.1084,0.11354 2.09437,0.0434 2.28125,-0.0625 0.0934,-0.053 0.0616,-0.004 0.0937,-0.21875 0.0322,-0.21429 0.0174,-0.71584 -0.25,-1.5 a 1.070102,1.070102 0 0 1 -0.0625,-0.125 c -0.36125,-1.77967 0.0751,-3.27566 1,-4.25 0.92493,-0.97434 2.14688,-1.45069 3.375,-1.84375 1.22812,-0.39306 2.48338,-0.69073 3.5,-1.125 0.93751,-0.40048 1.6143,-0.89785 2.03125,-1.5625 0.007,-0.23579 0.002,-0.46674 -0.0312,-0.53125 -0.0454,-0.0872 -0.0992,-0.13183 -0.3125,-0.21875 -0.42658,-0.17385 -1.44405,-0.23347 -2.625,-0.15625 -1.18095,0.0772 -2.51921,0.24211 -3.8125,0.25 -1.29329,0.008 -2.60886,-0.12063 -3.65625,-0.90625 a 1.070102,1.070102 0 0 1 -0.3125,-1.3125 c 0.49525,-1.04236 0.64242,-2.00305 0.53125,-2.34375 -0.0556,-0.17035 -0.11044,-0.23045 -0.34375,-0.34375 -0.23331,-0.1133 -0.68342,-0.22524 -1.4375,-0.1875 a 1.070102,1.070102 0 0 1 -0.9375,-0.4375 c -0.38361,-0.53671 -0.57884,-1.19968 -0.46875,-1.8125 0.11009,-0.61282 0.44665,-1.09122 0.8125,-1.4375 0.73171,-0.69255 1.66198,-1.09811 2.375,-1.46875 0.0958,-0.0498 0.13192,-0.078 0.21875,-0.125 -0.19241,-0.081 -0.24142,-0.12476 -0.53125,-0.21875 A 1.070102,1.070102 0 0 1 418.625,145.75 c -0.89199,-0.37163 -1.53785,-0.72247 -1.96875,-1.34375 -0.21545,-0.31064 -0.3393,-0.72358 -0.3125,-1.125 0.0268,-0.40142 0.18583,-0.74409 0.375,-1 0.7567,-1.02365 1.90372,-1.4076 2.96875,-1.90625 0.48621,-0.22765 0.94717,-0.46061 1.3125,-0.65625 -0.21829,-0.0897 -0.21756,-0.11699 -0.59375,-0.21875 -1.43569,-0.0226 -4.0024,-0.28786 -5.90625,-0.875 -0.49851,-0.15374 -0.93896,-0.30557 -1.34375,-0.5625 -0.40479,-0.25693 -0.93275,-0.73262 -0.90625,-1.5 0.0265,-0.76738 0.53156,-1.19734 1.03125,-1.5 0.44461,-0.2693 1.05887,-0.48887 1.78125,-0.71875 0.0664,-0.0371 0.1512,-0.0576 0.21875,-0.0937 1.89978,-1.01521 4.25035,-1.64911 6.21875,-2.46875 1.60183,-0.667 2.67833,-1.46148 3.34375,-2.46875 -0.12836,-0.022 -0.0808,-0.0555 -0.25,-0.0625 -0.67236,-0.028 -1.51467,0.0543 -2.3125,0.0625 -0.39891,0.004 -0.79022,-0.0165 -1.1875,-0.0937 -0.39728,-0.0773 -0.89091,-0.22416 -1.25,-0.71875 -0.35909,-0.49459 -0.3298,-1.17322 -0.15625,-1.65625 0.17355,-0.48303 0.45423,-0.90466 0.875,-1.4375 a 1.070102,1.070102 0 0 1 0.34375,-0.28125 c 0.56451,-0.30006 1.06821,-0.70199 1.4375,-1.0625 0.0772,-0.0754 0.0632,-0.0831 0.125,-0.15625 -0.23415,0.0117 -0.32857,-0.0316 -0.75,0.0625 -0.0459,0.0167 -0.0794,0.0157 -0.125,0.0312 -0.82973,0.28247 -1.62092,0.38124 -2.3125,0.28125 -0.72957,-0.10548 -1.43877,-0.39451 -1.84375,-1.0625 -0.40498,-0.66799 -0.2327,-1.64768 0.25,-2.25 0.36376,-0.4539 1.00919,-0.70669 1.65625,-1 0.58626,-0.95485 0.7632,-2.41637 0.4375,-3.34375 -0.16607,-0.47285 -0.40881,-0.77818 -0.75,-0.96875 -0.34119,-0.19057 -0.81603,-0.30665 -1.625,-0.125 a 1.070102,1.070102 0 0 1 -1.25,-1.4375 c 0.73775,-1.74322 1.56844,-3.70722 1.59375,-5.0625 0.0127,-0.67764 -0.12391,-1.15627 -0.46875,-1.5625 -0.34484,-0.40623 -0.99054,-0.78697 -2.1875,-1.03125 a 1.070102,1.070102 0 0 1 -0.59375,-1.75 c 0.96844,-1.15557 2.43905,-3.90526 2.8125,-6 0.18672,-1.047369 0.0829,-1.855095 -0.1875,-2.28125 -0.27045,-0.426155 -0.70865,-0.750742 -2.03125,-0.6875 l 0,-0.03125 c -2.05961,0.67051 -3.97662,0.471353 -5.375,-0.53125 -1.20312,-0.862603 -1.94858,-2.208747 -2.5,-3.6875 -0.65916,0.146917 -1.25346,0.204784 -1.8125,0 -0.82439,-0.301987 -1.23434,-1.132305 -1.34375,-1.75 -0.18924,-1.068329 -0.18045,-1.880854 -0.34375,-2.40625 -1.63583,-0.115064 -3.07273,-0.528422 -4.0625,-1.5 -1.07008,-1.050411 -1.56251,-2.559671 -1.75,-4.28125 -0.91869,-1.019031 -2.61153,-2.173479 -3.6875,-3.59375 -0.56107,-0.740609 -1.00302,-1.77362 -0.625,-2.8125 0.27832,-0.764877 0.94625,-1.309501 1.8125,-1.8125 -0.1509,-0.137275 -0.3141,-0.273445 -0.59375,-0.4375 -0.74423,-0.436594 -1.82619,-0.872361 -2.78125,-1.3125 -0.47753,-0.220069 -0.90907,-0.436372 -1.3125,-0.71875 -0.40343,-0.282378 -0.86905,-0.644711 -1,-1.34375 -0.13095,-0.699039 0.30187,-1.388512 0.78125,-1.78125 0.47938,-0.392738 1.08032,-0.691729 1.9375,-1.03125 a 1.070102,1.070102 0 0 1 0.28125,-0.0625 c 0.78549,-0.09373 1.32282,-0.227659 1.59375,-0.34375 -0.10357,-0.14082 -0.26612,-0.332881 -0.53125,-0.5625 -0.62111,-0.53791 -1.59238,-1.160653 -2.53125,-1.75 -0.93887,-0.589347 -1.82616,-1.125253 -2.46875,-1.625 L 388.34375,62 a 1.070102,1.070102 0 0 1 -0.0625,-0.03125 l -0.25,-0.25 z M 369.625,174.6875 c 0.97308,0.93749 2.1659,1.64265 3.5625,2.1875 2.53868,0.99039 5.6003,1.41033 8.3125,1.9375 -1.11104,-0.17029 -2.19479,-0.40717 -3.28125,-0.75 -0.009,-0.003 -0.0218,0.003 -0.0312,0 -2.94281,-0.81573 -5.79685,-2.00247 -8.5625,-3.375 z" />
    <path
       style="fill:none;stroke:#000000;stroke-width:1px;stroke-linecap:butt;stroke-linejoin:miter;stroke-opacity:1"
       d="m 390,177.36218 c 0.1204,-0.0986 4.10234,24.28572 9.28572,24.28572"
       id="path6455"
       inkscape:connector-curvature="0"
       sodipodi:nodetypes="cc" />
    <path
       style="fill:#47b800;fill-opacity:1;stroke:#000000;stroke-width:1px;stroke-linecap:butt;stroke-linejoin:miter;stroke-opacity:1"
       d="m 183.57142,243.07647 c -1.37173,-0.33975 -4.0535,-11.66078 1.42858,-17.14286 0.35714,-0.35714 -0.35715,-1.78571 0,-2.14285 3.35284,-3.35284 4.7908,-7.64795 7.85714,-10.71429 1.65345,-1.65346 6.26684,-2.69542 7.85714,-4.28572 8.84242,-8.84241 36.80489,-10 52.85714,-10 5.12632,0 19.74645,-1.68212 23.57143,2.14286 1.39014,1.39013 16.17986,8.10586 19.28572,5 4.14207,-4.14207 17.76314,-5.66729 23.57143,-8.57143 11.3027,-5.65135 30.85935,-10 44.28571,-10 0.76584,0 7.73986,0.597 13.57143,1.42858 8.2284,0.37125 16.57764,4.43478 22.14286,9.99999 1.8499,1.84991 5.81487,2.95773 7.85714,5 9.03668,9.03669 18.57143,22.56633 18.57143,40.00001 0,1.70769 1.08673,9.62755 0,10.71428 -1.31078,1.31078 -0.5801,4.86581 -2.14286,6.42857 -3.61576,3.61576 -7.37253,15.94396 -11.42857,20 -9.36488,9.36488 -14.31769,25.77823 -20.71429,38.57143 -2.19171,4.38343 -5.67215,8.5293 -9.28571,12.14286 -2.22456,2.22456 -4.98966,7.12217 -6.42857,10 -2.79442,5.58883 -17.24353,20.81496 -21.42857,25 -4.92424,4.92423 -23.06762,13.46619 -31.42858,9.28571 -0.90179,-0.45089 -3.6,0.68571 -4.28571,0 -0.95238,-0.95238 -2.61905,-1.19047 -3.57143,-2.14285 -0.46667,-0.46667 -7.43677,-13.9918 -10.71428,-10.71429 -2.0861,2.0861 -7.91391,3.62819 -10,5.71429 -11.53613,11.53613 -36.78061,11.07313 -52.85715,5.71428 -13.83279,-4.61093 -15.63493,-21.30955 -22.85714,-32.14285 -5.44115,-8.16173 -9.23064,-16.26335 -12.14286,-25 -1.11123,-3.33371 -8.95631,-20.22019 -10.71428,-22.85715 -5.22524,-7.83786 -8.57143,-12.28306 -8.57143,-22.14285 0,-4.60519 1.15432,-18.40565 -0.71429,-22.14286 -0.22209,-0.44418 -6.23167,-10.3251 -4.28571,-10.71429 5.79962,-1.15992 -2.63161,5.48876 -3.57143,6.42857"
       id="path5511"
       inkscape:connector-curvature="0"
       sodipodi:nodetypes="cssssssssscssssssssssssssssssssssc" />
    <path
       style="fill:#784421;stroke:#000000;stroke-width:1px;stroke-linecap:butt;stroke-linejoin:miter;stroke-opacity:1"
       d="m 293.6509,217.90593 c -0.41335,1.27747 -5.79083,-9.03221 -10.04559,-13.07765 -0.77166,-0.73371 -0.44277,-2.62491 -1.21444,-3.35861 -4.15357,-3.94925 -8.37742,-10.84598 -7.65853,-16.97898 0.47012,-4.0107 -4.11942,-8.75797 -3.70027,-12.33386 1.77269,-15.12311 3.94006,-22.22387 14.52338,-33.35478 1.71338,-1.80203 6.01729,-2.93534 8.4895,-3.82927 9.58205,-3.46478 16.23518,-5.51439 19.76463,4.24651 0.48301,1.3358 -1.77412,1.4043 -2.20112,2.31499 -0.45202,0.96409 -1.83903,3.31634 -2.2011,2.315 -2.30564,-6.37637 -6.37205,-7.57004 -13.23337,-5.08905 -0.40991,0.14821 -2.5198,0.61518 -2.68688,0.97155 -2.06553,4.40533 -11.9041,8.7324 -14.5501,14.37575 -2.10552,4.49064 -3.26113,8.61447 -3.93156,14.33391 -0.39434,3.36424 2.0506,6.33428 0.8995,8.78932 -0.59415,1.26721 13.81832,30.46605 15.93185,31.45702 0.70073,0.32855 5.26362,4.05399 5.5446,4.83104 0.65274,1.8052 -2.51839,2.89862 -3.7305,4.38711 z"
       id="path6021"
       inkscape:connector-curvature="0" />
    <path
       style="fill:none;stroke:#000000;stroke-width:1px;stroke-linecap:butt;stroke-linejoin:miter;stroke-opacity:1"
       d="m 310.71429,181.6479 c 0.10181,6.96741 13.32262,15.83869 17.85714,13.57142"
       id="path6465"
       inkscape:connector-curvature="0" />
    <path
       style="fill:#47b800;fill-opacity:1;stroke:#000000;stroke-width:1px;stroke-linecap:butt;stroke-linejoin:miter;stroke-opacity:1"
       d="m 257.85714,218.79076 c 0.0336,-2.6714 -1.92899,-1.929 -5.71429,-5.71429 -0.49489,-0.4949 -3.07653,-0.21939 -3.57143,-0.71429 -2.12243,-2.12244 -4.31558,-4.65779 -7.85714,-6.42857 -6.6409,-3.32045 -28.27809,-3.36095 -35,0 -2.91604,1.45802 -7.54354,1.11497 -10,3.57143 -4.37885,4.37885 -10.52196,9.80768 -15,14.28572 -0.6867,0.6867 -0.51179,2.65464 -1.42857,3.57143 -4.75549,4.75549 -6.69224,11.69224 -11.42857,16.42857 -1.64402,1.64402 -3.72777,21.11589 -2.14286,24.28571 0.77425,1.5485 2.14286,4.72423 2.14286,6.42857 0,9.08971 21.9178,51.9178 26.42857,56.42857 0.83104,0.83105 0.97139,3.37135 1.42857,4.28572 2.05662,4.11323 6.50057,7.28686 8.57143,11.42857 6.35784,12.71568 14.28854,17.14568 23.57143,26.42857 2.24737,2.24737 7.32674,2.2348 10,3.57143 4.83554,2.41777 24.82486,-2.76957 27.85714,-4.28571 3.30444,-1.65222 5.23019,-4.5159 7.14286,-6.42858 0.47606,-0.47606 5.94422,-5.48434 7.14286,-4.28571 1.65746,1.65747 4.80511,1.94798 6.42857,3.57143 7.90947,7.90947 24.5342,12.7329 37.14285,6.42857 14.11868,-7.05934 30.22679,-31.16786 37.14286,-45 4.85664,-9.71328 14.9608,-17.02525 18.57143,-27.85714 4.54877,-13.64632 15.99346,-47.01963 11.42857,-60.71429 -0.5,-1.5 0.5,-3.5 0,-5 -2.17886,-6.53658 -5.33032,-12.08922 -8.57143,-18.57143 -3.39668,-6.79337 -8.82657,-12.27043 -15.71428,-15.71429 -23.71138,-11.85569 -55.48328,-2.97265 -74.28572,6.42857 -1.57265,0.78633 -6.331,1.33101 -7.85714,2.85715 -5.21131,5.2113 -15.49596,15.08733 -26.42857,10.71429 z"
       id="path5499"
       inkscape:connector-curvature="0" />
    <path
       sodipodi:nodetypes="csssssssssssssc"
       inkscape:connector-curvature="0"
       id="path6120"
       d="M 276.42857,215.93362 C 268.10111,211.47369 249.59811,206.87734 240,203.79075 c -6.00522,-1.93118 -14.45937,-2.54704 -21.42857,1.42857 -5.7636,3.28788 -7.49773,6.06917 -9.28571,7.85715 -5.25713,5.25713 -4.17578,8.35155 -7.85715,15.71429 -4.51362,9.02723 -3.67634,36.93303 0.71428,45.71428 0.76191,1.52381 -0.7619,4.19048 0,5.71429 2.24893,4.49784 1.08555,13.22841 4.28572,16.42857 1.58827,1.58827 2.44538,23.05042 3.57143,26.42857 3.0203,9.0609 4.1256,18.80537 7.14285,27.85714 3.16854,9.50561 13.54538,19.97395 20,26.42858 0.83802,0.83801 4.10204,0.5306 5,1.42857 0.98339,0.98338 3.01268,0.71428 5,0.71428 14.48977,0 17.88831,-16.45973 25,-23.57143 0.5564,-0.55639 1.70021,2.4145 2.14286,2.85715"
       style="fill:#47b800;fill-opacity:1;stroke:#000000;stroke-width:1px;stroke-linecap:butt;stroke-linejoin:miter;stroke-opacity:1" />
    <path
       style="fill:#ffd89c;fill-opacity:1;stroke:#000000;stroke-width:1px;stroke-linecap:butt;stroke-linejoin:miter;stroke-opacity:1"
       d="m 338.81696,197.12054 c -18.42361,0.0669 -35.61618,7.32338 -52.1875,14.375 -6.9649,6.8724 -15.8497,13.82189 -26.28125,12.125 -2.59441,-0.71628 -7.30986,-1.13302 -6.53125,-4.3125 -3.84345,-2.94004 -9.05302,-3.55064 -12,-7.75 -4.95084,-4.85556 0.1214,6.50667 -6.23661,5.8125 -8.61848,0.24779 -1.17014,-1.81475 -8.79018,2.20982 -4.21913,4.08514 -8.10165,8.48745 -12.71875,12.03125 -3.59408,6.90499 9.28985,15.26005 5.3259,21.95536 -3.13796,6.63802 -3.7929,14.93432 -2.46875,22.3125 2.78875,8.15922 3.65423,16.7163 8.125,24.34375 5.73878,13.72049 -4.71644,24.83894 2.9866,37.51339 2.17376,7.09887 9.41615,11.25959 11.90625,18.375 5.85468,8.52767 -3.34339,5.30104 4.78096,11.3589 7.44755,3.25032 3.3204,5.83893 10.97481,3.78983 6.7283,-0.76734 12.2534,-4.72618 16.23977,-9.92105 3.28119,-3.71749 9.0633,-5.10305 12.9375,-1.5625 6.88204,3.83735 12.62704,9.93979 21,10.5 12.19484,2.19911 23.19229,-5.29551 30.29291,-14.36924 13.42811,-14.12971 20.18594,-33.12811 33.08834,-47.74326 8.6842,-10.49401 9.97888,-24.63962 14.38838,-37.06921 3.33742,-11.26438 5.04888,-23.21497 3.01162,-34.88079 0.14263,-6.77349 -4.68139,-12.19334 -7.125,-18.28125 -4.85694,-10.31834 -14.53467,-17.39172 -25.625,-19.375 -4.93919,-1.10486 -9.98149,-1.53583 -15.09375,-1.4375 z"
       id="path5501"
       inkscape:connector-curvature="0"
       sodipodi:nodetypes="ccccccccccccccccccccccccc" />
    <path
       sodipodi:type="inkscape:offset"
       inkscape:radius="-1.5753011"
       inkscape:original="M 299.875 206.03125 C 299.64787 206.12035 299.41435 206.19153 299.1875 206.28125 C 294.95749 207.95422 290.76783 209.73709 286.625 211.5 C 284.88378 213.2181 283.03788 214.93982 281.0625 216.53125 C 279.08712 218.12268 276.97913 219.58909 274.78125 220.78125 C 273.68231 221.37733 272.55863 221.89861 271.40625 222.34375 C 270.25387 222.78889 269.07936 223.14611 267.875 223.40625 C 266.67064 223.66639 265.44238 223.83395 264.1875 223.875 C 263.5245 223.8967 262.83304 223.7967 262.15625 223.75 C 262.15925 223.7605 262.15325 223.77075 262.15625 223.78125 C 261.48161 224.18603 256.93593 226.15782 256.4375 226.65625 C 254.96793 228.12579 256.96698 233.25178 255 235.21875 C 253.92167 236.29708 251.12712 236.93538 250 238.0625 C 248.80899 239.25351 249.85968 245.63974 249.28125 247.375 C 247.76367 251.92775 246.5665 256.95675 245 261.65625 C 243.65414 265.69384 248.37333 290.48997 249.28125 295.9375 C 253.24447 319.7168 249.70251 344.10334 265 364.5 C 265.51151 365.18201 266.04716 365.89609 266.5625 366.59375 C 267.26258 366.05468 268.00959 365.57715 268.65625 364.96875 C 269.83994 363.85509 270.94091 362.64247 271.9375 361.34375 C 272.7578 360.41438 273.74848 359.6286 274.8125 359.03125 C 275.87652 358.4339 277.01752 358.028 278.1875 357.84375 C 279.35748 357.6595 280.54935 357.69009 281.6875 358 C 282.82565 358.30991 283.90645 358.89611 284.875 359.78125 C 287.83053 361.42922 290.57192 363.47865 293.40625 365.34375 C 289.75386 356.38404 306.24959 353.40707 307.84375 350.21875 C 308.71373 348.47881 298.26367 333.8711 297.15625 331.65625 C 295.8792 329.10215 301.45204 325.96658 300 323.0625 C 299.22399 321.51048 292.5151 310.5474 295 308.0625 C 295.59723 307.46526 300.63771 302.53709 301.4375 300.9375 C 302.38988 299.03274 300.48512 295.68602 301.4375 293.78125 C 306.08783 284.4806 311.95174 289.12223 305 275.21875 C 303.76191 272.74256 306.2381 268.41369 305 265.9375 C 302.38204 260.70159 298.42483 262.92483 296.4375 260.9375 C 295.32564 259.82564 299.73681 254.95555 297.84375 253.0625 C 295.4768 250.69554 287.89806 248.85862 285.71875 244.5 C 283.07856 239.21962 295.55784 236.22807 297.84375 231.65625 C 299.35725 228.62926 292.24694 225.09681 294.28125 223.0625 C 297.32243 220.02133 304.75426 210.69176 300.71875 206.65625 C 300.47722 206.41472 300.14802 206.24746 299.875 206.03125 z "
       style="fill:#ffc66f;fill-opacity:1;stroke:none"
       id="path6837"
       d="m 299.625,207.8125 c -4.07827,1.61595 -8.13634,3.32069 -12.15625,5.03125 -1.69628,1.66511 -3.46049,3.33869 -5.40625,4.90625 -2.03359,1.63833 -4.22854,3.15723 -6.53125,4.40625 -1.1562,0.62714 -2.3456,1.18619 -3.5625,1.65625 -1.22374,0.47271 -2.46133,0.84665 -3.75,1.125 -1.28396,0.27733 -2.60744,0.45547 -3.96875,0.5 -0.67321,0.022 -1.20341,-0.0444 -1.71875,-0.0937 -0.2451,0.12523 -0.46365,0.24162 -0.8125,0.40625 -0.53669,0.25328 -1.17766,0.54398 -1.8125,0.84375 -0.63484,0.29977 -1.27529,0.63027 -1.75,0.875 -0.23736,0.12237 -0.43228,0.20431 -0.5625,0.28125 -0.13022,0.0769 -0.20862,0.20862 -0.0312,0.0312 0.0827,-0.0827 -0.0861,0.0968 -0.125,0.65625 -0.0389,0.55949 -0.005,1.37466 0.0312,2.25 0.0718,1.75069 0.31223,4.00028 -1.34375,5.65625 -0.9104,0.9104 -1.9972,1.28473 -2.96875,1.71875 -0.97155,0.43402 -1.82285,0.9166 -2.03125,1.125 0.28187,-0.28187 -0.0281,0.0825 -0.0937,0.75 -0.0657,0.66748 -0.0516,1.57017 -0.0312,2.53125 0.0203,0.96108 0.0328,1.96298 0.0312,2.875 -0.002,0.91202 0.0315,1.6867 -0.25,2.53125 -1.48612,4.45838 -2.68427,9.49032 -4.28125,14.28125 -0.0481,0.14424 -0.15812,0.90446 -0.15625,1.90625 0.002,1.00179 0.0564,2.2899 0.1875,3.75 0.2622,2.92021 0.75264,6.54392 1.3125,10.21875 1.11972,7.34965 2.537,14.87823 3,17.65625 4.01695,24.10171 0.54041,48.05388 15.40625,67.875 0.19557,0.26075 0.39294,0.54419 0.59375,0.8125 0.2306,-0.17613 0.53384,-0.38853 0.71875,-0.5625 1.12309,-1.05665 2.18122,-2.2076 3.125,-3.4375 a 1.5754586,1.5754586 0 0 1 0.0625,-0.0625 c 0.94519,-1.07086 2.06698,-1.97455 3.28125,-2.65625 1.21759,-0.68356 2.54054,-1.15993 3.90625,-1.375 1.35885,-0.21399 2.77446,-0.18875 4.15625,0.1875 1.27156,0.34624 2.48487,1.0221 3.5625,1.9375 2.03963,1.13727 3.85716,2.4422 5.71875,3.71875 0.1302,-1.22945 0.5708,-2.37046 1.21875,-3.34375 1.2852,-1.9305 3.25143,-3.34341 5.28125,-4.53125 2.02982,-1.18784 4.14708,-2.15694 5.8125,-3 1.53684,-0.77797 2.40873,-1.5585 2.53125,-1.625 -0.0134,-0.0422 -0.014,-0.0455 -0.0312,-0.0937 -0.15942,-0.44424 -0.45717,-1.11862 -0.875,-1.90625 -0.83566,-1.57526 -2.09529,-3.59901 -3.40625,-5.65625 -1.31096,-2.05724 -2.68794,-4.13147 -3.8125,-5.84375 -1.12456,-1.71228 -1.93346,-2.92942 -2.34375,-3.75 -0.58188,-1.16375 -0.33023,-2.45005 0.0937,-3.375 0.42398,-0.92495 1.01255,-1.71465 1.53125,-2.4375 0.5187,-0.72285 0.95858,-1.38316 1.15625,-1.875 0.19767,-0.49184 0.19455,-0.64216 0.0625,-0.90625 -0.11972,-0.23944 -0.72813,-1.32156 -1.4375,-2.625 -0.70937,-1.30344 -1.55526,-2.91465 -2.3125,-4.59375 -0.75724,-1.6791 -1.41648,-3.3973 -1.75,-5 -0.33352,-1.6027 -0.50013,-3.34362 0.78125,-4.625 0.33355,-0.33356 1.71395,-1.67449 3.125,-3.15625 0.70553,-0.74088 1.40496,-1.49575 1.96875,-2.15625 0.56379,-0.6605 1.01385,-1.30894 1.0625,-1.40625 0.12328,-0.24656 0.0818,-1.28088 -0.15625,-2.59375 -0.2381,-1.31287 -0.67284,-2.9043 0.15625,-4.5625 2.49049,-4.98097 5.46731,-6.60903 6.21875,-7.71875 0.37572,-0.55486 0.54947,-0.93963 0.25,-2.34375 -0.29947,-1.40412 -1.19225,-3.6345 -2.90625,-7.0625 -0.97112,-1.94225 -0.46577,-3.95499 -0.15625,-5.65625 0.30952,-1.70126 0.42322,-3.09106 0.15625,-3.625 -1.12711,-2.25421 -2.11518,-2.61297 -3.4375,-2.90625 -0.66116,-0.14664 -1.42202,-0.2232 -2.25,-0.40625 -0.82798,-0.18305 -1.80824,-0.49574 -2.59375,-1.28125 -0.52641,-0.52641 -0.6469,-1.2744 -0.625,-1.78125 0.0219,-0.50685 0.13969,-0.91291 0.28125,-1.3125 0.28312,-0.79919 0.68377,-1.58247 1.03125,-2.34375 0.34748,-0.76128 0.63521,-1.49299 0.71875,-1.96875 0.0835,-0.47576 0.0182,-0.45059 0,-0.46875 -0.73312,-0.73312 -3.20995,-1.94064 -5.75,-3.28125 -2.54005,-1.34061 -5.27952,-2.93405 -6.65625,-5.6875 -0.90865,-1.8173 -0.4347,-3.85999 0.625,-5.25 1.0597,-1.39001 2.56926,-2.44736 4.15625,-3.46875 1.58699,-1.02139 3.25758,-1.989 4.625,-2.9375 1.36742,-0.9485 2.37294,-1.93338 2.71875,-2.625 0.10292,-0.20584 0.10689,-0.32481 -0.1875,-0.875 -0.29439,-0.55019 -0.90114,-1.27983 -1.5625,-2.03125 -0.66136,-0.75142 -1.36699,-1.49152 -1.875,-2.4375 -0.254,-0.47299 -0.47613,-1.0386 -0.46875,-1.71875 0.007,-0.68015 0.3154,-1.4404 0.8125,-1.9375 1.40474,-1.40473 4.00554,-4.43244 5.625,-7.4375 0.80973,-1.50253 1.3602,-3.00929 1.5,-4.1875 0.13738,-1.15776 -0.0585,-1.88351 -0.65625,-2.5 z" />
    <path
       style="fill:#ffc66f;fill-opacity:1;stroke:#000000;stroke-width:1px;stroke-linecap:butt;stroke-linejoin:miter;stroke-opacity:1"
       d="m 274.99999,222.36218 c -10.47031,-12.31706 -25.26791,-10.4911 -34.2857,-15 -1.00522,-0.50261 -13.65745,-2.77112 -15.71429,-0.71428 -1.32197,1.32197 -4.64059,1.06916 -6.42857,2.85714 -5.25713,5.25712 -8.46149,11.20869 -12.14286,18.57143 -4.51362,9.02723 -3.67634,36.93303 0.71428,45.71428 0.76191,1.52381 -0.7619,4.19048 0,5.71429 2.24893,4.49784 1.08555,13.22841 4.28572,16.42857 1.58827,1.58827 2.44538,23.05042 3.57143,26.42857 3.0203,9.0609 4.1256,18.80537 7.14285,27.85714 3.16854,9.50561 13.54538,19.97395 20,26.42858 0.83802,0.83801 4.10204,0.5306 5,1.42857 0.98339,0.98338 3.01268,0.71428 5,0.71428 14.48977,0 20.03117,-12.8883 27.14286,-20 0.5564,-0.55639 -0.44265,-1.15693 0,-0.71428"
       id="path6105"
       inkscape:connector-curvature="0"
       sodipodi:nodetypes="csssssssssssssc" />
    <path
       style="fill:#784421;stroke:#000000;stroke-width:1px;stroke-linecap:butt;stroke-linejoin:miter;stroke-opacity:1"
       d="m 289.28571,270.93361 c 1.83882,-0.36033 -7.1151,19.31348 -2.14286,24.28572 5.19376,5.19376 2.62401,-21.87996 2.14286,-24.28572 z"
       id="path5507"
       inkscape:connector-curvature="0" />
    <path
       style="fill:#47b800;fill-opacity:1;stroke:#000000;stroke-width:1px;stroke-linecap:butt;stroke-linejoin:miter;stroke-opacity:1"
       d="m 274.82776,161.58605 c -0.75796,-0.74785 -3.02173,-1.4856 -2.27387,-2.24356 7.62708,7.92392 -5.92919,-7.77207 -9.09551,-8.97424 -3.30415,-1.07681 -8.18732,-6.28317 -10.67508,-8.73777 -2.41161,-2.37945 -10.29,-3.35344 -13.58264,-4.42649 -13.36114,-4.35432 -21.46999,-3.27651 -25.24308,8.30115 -0.95391,2.92704 -1.40471,7.26718 -0.1607,9.714 1.19015,2.34089 3.01683,4.81933 4.34159,7.42498 1.15949,2.28058 8.07126,2.50186 9.06519,4.45681 0.83927,1.65076 7.56903,5.21748 9.96564,3.999 0.34322,-0.1745 11.3811,2.1721 12.88834,1.94645 9.34768,-1.39945 16.49053,-4.26659 24.77012,-11.46033 z"
       id="path6023"
       inkscape:connector-curvature="0"
       sodipodi:nodetypes="cccsssssscsc" />
    <path
       sodipodi:type="inkscape:offset"
       inkscape:radius="-0.54454619"
       inkscape:original="M 226 134.90625 C 224.59298 135.00944 223.21127 135.25544 221.84375 135.75 C 218.12665 137.21895 215.57605 140.71393 214.40625 144.4375 C 216.13242 143.57904 220.13816 140.84774 220.03125 144.59375 C 219.80338 145.73037 219.64022 147.51717 221.03125 145.96875 C 222.05924 144.50222 223.85304 142.11071 225.375 144.53125 C 226.19476 146.52021 227.96317 142.80167 228.09375 145.40625 C 227.81392 147.32426 229.2835 146.21714 230.125 145.875 C 231.62686 147.48406 230.36362 149.9911 230.625 151.96875 C 230.29377 153.18066 231.34478 155.73447 232.1875 153.46875 C 233.66683 150.84658 234.58001 147.69703 237 145.75 C 239.51561 144.97966 239.37694 149.03632 240.21875 150.5625 C 240.90471 151.84107 240.87991 155.36794 241.5625 155.34375 C 242.95862 153.91257 244.96021 151.30611 247.15625 152.375 C 249.04887 154.26947 250.06759 156.98897 249.96875 159.65625 C 251.40881 157.96963 253.45306 156.28411 255.78125 156.3125 C 257.44039 156.72588 256.41432 161.7096 258.9375 159.625 C 260.23309 157.37049 263.61292 156.91051 263.75 160.125 C 263.92661 161.72786 265.16471 164.49521 266.5625 161.9375 C 267.50943 160.72535 269.53565 157.56607 270.1875 160.75 C 270.57023 163.09352 274.37198 160.85483 272.40625 159.625 C 272.55944 158.60774 273.22467 160.66333 273.46875 159.90625 C 270.61042 156.63792 267.63953 153.40059 264.1875 150.75 C 259.48882 148.82789 256.11128 144.84656 252.53125 141.40625 C 248.38057 138.65849 243.17072 138.61314 238.5625 137.03125 C 234.55281 135.80159 230.22107 134.59669 226 134.90625 z "
       style="fill:#51d300;fill-opacity:1;stroke:none"
       id="path6312"
       d="m 226.03125,135.4375 c -1.36999,0.10047 -2.68849,0.33819 -4,0.8125 -3.06178,1.20998 -5.24898,3.92024 -6.53125,6.96875 0.70283,-0.37539 1.47406,-0.76128 2.25,-0.96875 0.67184,-0.17963 1.40739,-0.23728 2,0.15625 0.59261,0.39353 0.84194,1.15595 0.8125,2.1875 a 0.54460064,0.54460064 0 0 1 0,0.0937 c -0.0782,0.38998 -0.0895,0.75585 -0.0937,1.0625 0.0799,-0.0654 0.0472,-0.0349 0.15625,-0.15625 0.51609,-0.73606 1.19582,-1.68981 2.09375,-2.25 0.45937,-0.28659 1.01771,-0.47866 1.59375,-0.34375 0.57604,0.13491 1.10359,0.56985 1.53125,1.25 a 0.54460064,0.54460064 0 0 1 0.0312,0.0625 c 0.0779,0.1891 0.13769,0.26755 0.15625,0.28125 0.0186,0.0137 -0.005,0.004 0.0312,0 0.0723,-0.007 0.34019,-0.13202 0.625,-0.3125 0.1424,-0.0902 0.29194,-0.20202 0.46875,-0.28125 0.17681,-0.0792 0.43266,-0.16454 0.71875,-0.0937 0.28609,0.0708 0.49102,0.34458 0.59375,0.59375 0.10273,0.24917 0.13823,0.5155 0.15625,0.875 a 0.54460064,0.54460064 0 0 1 0,0.125 c -0.0504,0.3455 -0.001,0.41127 0,0.4375 0.2436,-0.0532 0.78334,-0.36006 1.28125,-0.5625 a 0.54460064,0.54460064 0 0 1 0.625,0.125 c 0.89915,0.96333 0.94363,2.21827 0.84375,3.34375 -0.0999,1.12548 -0.33059,2.21628 -0.21875,3.0625 a 0.54460064,0.54460064 0 0 1 0,0.21875 c -0.10135,0.37083 0.0717,1.26864 0.28125,1.59375 0.0147,0.0228 0.0182,0.0151 0.0312,0.0312 -0.002,-0.0183 0.0657,-0.0573 0.21875,-0.46875 a 0.54460064,0.54460064 0 0 1 0.0312,-0.0937 c 1.43476,-2.54317 2.34617,-5.79012 4.9375,-7.875 a 0.54460064,0.54460064 0 0 1 0.1875,-0.0937 c 0.75551,-0.23135 1.45483,-0.091 1.9375,0.3125 0.48267,0.40346 0.76144,0.99679 0.96875,1.59375 0.41462,1.19392 0.62125,2.61415 0.9375,3.1875 0.44289,0.8255 0.58649,2.0013 0.75,3.03125 0.0737,0.46422 0.14061,0.86384 0.21875,1.15625 0.60557,-0.64946 1.25713,-1.41715 2.09375,-2.03125 1.02672,-0.75364 2.34308,-1.23291 3.65625,-0.59375 a 0.54460064,0.54460064 0 0 1 0.125,0.125 c 1.69791,1.69957 2.69324,3.99865 2.90625,6.375 1.41092,-1.40399 3.21338,-2.61973 5.34375,-2.59375 a 0.54460064,0.54460064 0 0 1 0.125,0 c 0.67663,0.16858 1.01851,0.78483 1.21875,1.34375 0.20024,0.55892 0.31205,1.16767 0.4375,1.65625 0.12545,0.48858 0.31947,0.79709 0.34375,0.8125 0.0121,0.008 -0.0111,-0.001 0.0937,-0.0312 0.1048,-0.0302 0.31243,-0.11133 0.59375,-0.34375 0.75509,-1.19548 1.97419,-1.94343 3.1875,-1.9375 0.63332,0.003 1.28462,0.23077 1.75,0.71875 0.45946,0.48177 0.70623,1.1792 0.75,2.0625 5.6e-4,0.0114 -4.9e-4,0.0198 0,0.0312 0.0831,0.69768 0.45504,1.72083 0.8125,2.125 0.18096,0.2046 0.26745,0.23694 0.34375,0.21875 0.0763,-0.0182 0.34284,-0.17652 0.65625,-0.75 a 0.54460064,0.54460064 0 0 1 0.0312,-0.0937 c 0.44817,-0.5737 1.19147,-1.69781 2.03125,-2.34375 0.20994,-0.16148 0.42837,-0.29603 0.6875,-0.375 0.25913,-0.079 0.56132,-0.0639 0.84375,0.0625 0.56487,0.25272 0.85362,0.85112 1.03125,1.71875 0.0704,0.43074 0.21477,0.51181 0.40625,0.5625 0.19148,0.0507 0.50296,-7.7e-4 0.78125,-0.15625 0.27829,-0.15548 0.46711,-0.39878 0.5,-0.53125 0.0329,-0.13247 0.0803,-0.2113 -0.28125,-0.4375 a 0.54460064,0.54460064 0 0 1 -0.25,-0.5625 c 0.0208,-0.13791 0.072,-0.26408 0.15625,-0.40625 -2.54201,-2.86139 -5.18489,-5.63199 -8.1875,-7.9375 -4.7597,-1.99432 -8.12751,-5.94275 -11.625,-9.3125 -3.97007,-2.62819 -9.09595,-2.73153 -13.8125,-4.34375 l 0,0.0312 c -3.99992,-1.22666 -8.28383,-2.42503 -12.375,-2.125 z" />
    <path
       style="fill:none;stroke:#000000;stroke-width:1px;stroke-linecap:butt;stroke-linejoin:miter;stroke-opacity:1"
       d="m 218.26885,148.41267 c 17.61055,-2.36591 39.60788,9.15167 54.758,14.089"
       id="path6051"
       inkscape:connector-curvature="0" />
    <path
       style="fill:#784421;stroke:#000000;stroke-width:1px;stroke-linecap:butt;stroke-linejoin:miter;stroke-opacity:1"
       d="m 264.28571,275.21933 c -0.0865,2.972 -0.19706,5.83739 0.71429,8.57143 0.49758,1.49276 0.98915,2.96747 1.42857,4.28571 0.367,1.10101 2.45643,10.31358 2.85714,10.71429 2.61368,2.61367 2.1204,-13.59389 -0.71429,-16.42857 -0.95238,-0.95238 0.95239,-4.76191 0,-5.71429 -0.93435,-0.93436 -1.80575,-0.93258 -4.28571,-1.42857 z"
       id="path5509"
       inkscape:connector-curvature="0" />
    <path
       style="fill:none;stroke:#000000;stroke-width:1px;stroke-linecap:butt;stroke-linejoin:miter;stroke-opacity:1"
       d="m 275,221.6479 c -0.92208,2.62836 -2.39069,49.50435 2.14285,58.57143 2.0987,4.1974 -1.38441,10.08831 0.71429,14.28571 0.86313,1.72626 1.65302,22.40825 0.71428,24.28572 -1.8496,3.69921 1.8283,39.68543 2.14286,40"
       id="path6148"
       inkscape:connector-curvature="0" />
    <path
       sodipodi:type="inkscape:offset"
       inkscape:radius="-0.87486064"
       inkscape:original="M 218.84375 203.71875 C 213.47802 203.62745 208.19188 204.74007 203.25 206.75 C 198.42612 207.00042 194.73911 209.91113 191.6875 213.40625 C 187.94583 217.13606 183.64248 220.40818 180.34375 224.5 C 179.18346 228.69739 175.21519 231.49522 173.5625 235.59375 C 171.96388 239.60385 168.10842 242.30381 166.90625 246.375 C 165.62073 253.23237 164.6707 260.31444 165.46875 267.28125 C 168.1411 272.08092 167.75412 277.69847 169.90625 282.6875 C 175.95705 298.46396 183.51161 313.7118 192.21875 328.1875 C 195.70088 332.31342 196.04192 338.15884 200.625 341.625 C 203.01782 342.90377 205.03294 350.16496 206.34375 348.3125 C 205.89419 344.26104 203.06729 340.2672 205.71875 336.65625 C 201.98457 335.00927 200.89757 331.84116 203.5625 328.78125 C 199.81715 327.34872 191.87136 321.86802 198.96875 319.03125 C 199.01695 316.84421 189.66706 318.85068 192.15625 313 C 195.4689 306.50428 182.72737 310.07742 186.96875 303.71875 C 188.00271 300.51211 192.32807 297.18687 186.5 296.875 C 181.22424 296.27658 175.35337 290.56661 181.375 286.28125 C 180.06105 284.36875 172.6492 282.46946 178.8125 280.625 C 182.26365 280.34335 184.85774 278.56908 180.5 276.53125 C 173.92284 272.77586 183.18819 270.13562 185.6875 267.875 C 182.03797 266.38938 174.02059 261.4949 179.6875 257.5625 C 182.53206 256.17648 187.80936 254.88959 181.78125 253.1875 C 175.94263 248.67861 187.0129 247.83877 187.59375 245.25 C 179.79431 241.90018 187.1575 235.73638 191.0625 232.71875 C 194.22084 229.7447 184.62681 224.08497 191.6875 221.75 C 196.50123 221.21111 197.31001 217.78248 196.4375 213.78125 C 198.4812 210.35804 206.14188 213.66252 203.84375 207.96875 C 207.39603 202.58068 215.1487 208.05027 218.84375 203.71875 z "
       style="fill:#51d300;fill-opacity:1;stroke:none"
       id="path6169"
       d="m 203,207.6875 c -4.3526,0.33481 -7.74205,2.94351 -10.65625,6.28125 a 0.87494813,0.87494813 0 0 1 -0.0312,0.0625 c -3.79802,3.78598 -8.07282,7.05144 -11.28125,11.03125 -0.67413,2.12575 -1.90858,3.90976 -3.1875,5.5625 -1.35283,1.74826 -2.70741,3.39319 -3.46875,5.28125 -0.86389,2.16704 -2.28713,3.91802 -3.59375,5.59375 -1.28445,1.6473 -2.44415,3.22797 -3,5.03125 -0.002,0.0101 0.002,0.0212 0,0.0312 -0.007,0.0222 -0.0247,0.0403 -0.0312,0.0625 -1.26672,6.77604 -2.17149,13.7291 -1.40625,20.5 0.002,0.0206 -0.002,0.0419 0,0.0625 2.63603,4.99862 2.37668,10.52378 4.375,15.15625 a 0.87494813,0.87494813 0 0 1 0,0.0312 c 6.01261,15.67688 13.50744,30.85487 22.15625,45.25 0.0266,0.0443 0.0671,0.0807 0.0937,0.125 1.79684,2.18035 2.78485,4.69696 3.84375,7.03125 1.0789,2.37838 2.2326,4.5596 4.34375,6.15625 0.78511,0.46718 1.35951,1.22958 1.90625,2.0625 0.57798,0.88051 1.11546,1.8561 1.59375,2.71875 0.0953,0.17181 0.15742,0.2147 0.25,0.375 -0.32077,-1.18657 -0.62949,-2.33897 -0.90625,-3.59375 -0.39634,-1.79691 -0.41905,-3.73444 0.5625,-5.5625 -1.54252,-0.87624 -2.73639,-2.00789 -3.15625,-3.4375 -0.41212,-1.40325 0.0264,-2.92945 0.96875,-4.375 -1.94611,-0.87837 -4.32308,-2.27798 -5.84375,-4.125 -0.87075,-1.05763 -1.49282,-2.3082 -1.21875,-3.625 0.20624,-0.99091 1.06865,-1.7817 2.21875,-2.46875 -0.0709,-0.0218 -0.0753,-0.042 -0.15625,-0.0625 -0.74225,-0.18837 -1.85693,-0.32467 -2.9375,-0.59375 -1.08057,-0.26908 -2.19652,-0.65115 -2.9375,-1.59375 -0.74098,-0.9426 -0.84874,-2.37235 -0.15625,-4 a 0.87494813,0.87494813 0 0 1 0.0312,-0.0625 c 0.3699,-0.72532 0.4829,-1.23368 0.46875,-1.5625 -0.0142,-0.32882 -0.10385,-0.50524 -0.3125,-0.71875 -0.41731,-0.42703 -1.47095,-0.79878 -2.59375,-1.15625 -1.1228,-0.35747 -2.34262,-0.67227 -3.15625,-1.65625 -0.40681,-0.49199 -0.62008,-1.21062 -0.53125,-1.9375 0.0805,-0.65899 0.42507,-1.36129 0.90625,-2.125 l -0.0312,0 c 0.026,-0.0808 0.0962,-0.13865 0.125,-0.21875 0.63446,-1.76265 1.88692,-3.35513 2.25,-4.3125 0.0949,-0.25022 0.0981,-0.44209 0.0937,-0.53125 -0.004,-0.0892 0.0237,-0.0689 -0.0312,-0.125 -0.10996,-0.11211 -0.72534,-0.42677 -2.09375,-0.5 a 0.87494813,0.87494813 0 0 1 -0.0625,0 c -2.9114,-0.33023 -5.8735,-1.99354 -7.4375,-4.3125 -0.782,-1.15948 -1.20062,-2.52665 -0.9375,-3.9375 0.20812,-1.11594 0.96823,-2.17678 2.03125,-3.15625 -0.29188,-0.23973 -0.49319,-0.46113 -0.96875,-0.75 -0.76183,-0.46276 -1.63749,-0.93376 -2.34375,-1.46875 -0.35313,-0.2675 -0.65789,-0.53324 -0.90625,-0.90625 -0.24836,-0.37301 -0.41996,-0.94388 -0.25,-1.46875 0.16996,-0.52487 0.57738,-0.89464 1.0625,-1.1875 0.48512,-0.29286 1.09301,-0.53788 1.90625,-0.78125 A 0.87494813,0.87494813 0 0 1 178.75,279.75 c 0.79742,-0.0651 1.52723,-0.20227 2.09375,-0.40625 0.56652,-0.20398 0.93742,-0.4964 1.03125,-0.625 0.0938,-0.1286 0.13005,0.0149 -0.0312,-0.21875 -0.1613,-0.23366 -0.70361,-0.71279 -1.71875,-1.1875 a 0.87494813,0.87494813 0 0 1 -0.0625,-0.0312 c -1.75943,-1.00459 -2.72306,-2.07594 -2.75,-3.34375 -0.0269,-1.26781 0.85569,-2.19647 1.84375,-2.96875 0.98806,-0.77228 2.19645,-1.47036 3.3125,-2.09375 0.62053,-0.34661 0.98103,-0.59781 1.46875,-0.90625 -1.79936,-0.8769 -3.85503,-2.10104 -5.375,-3.75 -0.9574,-1.03865 -1.70334,-2.23571 -1.71875,-3.59375 -0.0154,-1.35804 0.7778,-2.6946 2.34375,-3.78125 a 0.87494813,0.87494813 0 0 1 0.125,-0.0625 c 1.49517,-0.72853 3.48418,-1.44588 4.15625,-1.9375 -0.16138,-0.11448 -0.65343,-0.44993 -1.9375,-0.8125 A 0.87494813,0.87494813 0 0 1 181.25,253.875 c -0.78795,-0.6085 -1.34558,-1.16492 -1.6875,-1.78125 -0.34192,-0.61633 -0.4315,-1.3322 -0.25,-1.9375 0.36299,-1.2106 1.4439,-1.85594 2.5625,-2.4375 1.1186,-0.58156 2.37161,-1.07729 3.34375,-1.5625 0.4706,-0.23488 0.86133,-0.4492 1.125,-0.65625 -1.46287,-0.81663 -2.51064,-1.78152 -2.875,-2.9375 -0.44483,-1.41128 -0.0279,-2.86759 0.71875,-4.15625 1.47825,-2.55134 4.3131,-4.79011 6.28125,-6.3125 0.009,-0.008 -0.009,-0.0229 0,-0.0312 0.24292,-0.23643 0.34497,-0.43934 0.375,-0.6875 0.0311,-0.25694 -0.0109,-0.5849 -0.15625,-1 -0.29067,-0.83021 -0.94774,-1.88693 -1.53125,-2.96875 -0.58351,-1.08182 -1.17027,-2.22244 -0.96875,-3.5 0.10076,-0.63878 0.45443,-1.28189 1,-1.78125 0.54557,-0.49936 1.25811,-0.90107 2.21875,-1.21875 a 0.87494813,0.87494813 0 0 1 0.1875,-0.0312 c 2.20838,-0.24723 3.2513,-1.03685 3.8125,-2.1875 0.5612,-1.15065 0.60068,-2.82394 0.1875,-4.71875 a 0.87494813,0.87494813 0 0 1 0.0937,-0.625 c 0.666,-1.11555 1.79497,-1.67854 2.875,-1.96875 1.08003,-0.29021 2.17642,-0.35251 3.0625,-0.5 0.88608,-0.14749 1.4549,-0.40811 1.625,-0.625 0.085,-0.10844 0.16053,-0.22631 0.15625,-0.53125 -0.004,-0.30494 -0.11381,-0.79038 -0.375,-1.4375 A 0.87494813,0.87494813 0 0 1 203,207.6875 z" />
    <path
       sodipodi:type="inkscape:offset"
       inkscape:radius="-2.4182587"
       inkscape:original="M 364.15625 187.53125 C 358.02454 187.40623 351.88398 187.88907 345.84375 189.3125 C 341.7187 190.41907 330.27095 192.06827 330.59375 193.9375 C 341.20003 194.4727 351.15745 186.68801 361.75 189.8125 C 368.57466 188.8905 367.10167 191.86174 365.59375 194.78125 C 373.08702 191.3872 373.62794 198.59904 374.28125 203.59375 C 382.89218 204.96914 384.56618 214.3251 391.96875 217.96875 C 392.44253 222.17482 394.92211 224.79974 398.5625 227.375 C 399.72675 234.21131 400.19777 242.05776 399.1875 248.09375 C 403.52405 250.82972 409.84218 256.84932 401.84375 259.6875 C 396.02796 262.48111 390.63122 270.57314 399.40625 273.46875 C 398.85118 278.63815 391.73397 281.61284 394.40625 288.125 C 395.27499 292.51458 387.96276 294.54229 394.3125 297.8125 C 398.00228 303.91211 383.96776 303.03219 388.15625 310.65625 C 390.8931 319.34013 378.61799 319.54585 376.875 326.3125 C 381.49439 331.39878 378.15476 334.28852 372.1875 334.6875 C 371.41277 342.76177 358.52804 339.68806 357.8125 346.25 C 364.35053 355.76226 350.58662 355.77693 347.125 361.96875 C 343.30966 368.84873 333.25201 366.60827 326.28125 368.96875 C 321.88531 369.79578 318.36111 372.31089 313.71875 370.65625 C 316.79069 377.56985 325.07105 376.27984 331.3125 376.9375 C 342.56003 375.43817 353.34723 369.86777 360.5 360.96875 C 367.99816 353.06205 375.34735 344.86725 380.21875 335.03125 C 385.08204 328.86656 391.16529 323.42327 393.90625 315.8125 C 399.70853 303.06601 404.33398 289.27218 414.34375 279.0625 C 417.87017 271.53174 422.99619 264.42479 425.5625 256.71875 C 428.26661 248.2846 426.19064 238.60451 424.40625 230.03125 C 421.02878 219.38884 414.5387 209.57462 406 202.40625 C 397.99052 198.32128 391.9526 190.53329 382.46875 189.375 C 376.41004 188.40006 370.28796 187.65627 364.15625 187.53125 z "
       style="fill:#41a900;fill-opacity:1;stroke:none"
       id="path6220"
       d="m 369.125,190.28125 c 0.13343,0.50213 0.12282,0.94623 0.0937,1.375 0.45721,0.0173 0.93691,-0.0776 1.375,0.0312 1.83259,0.45519 3.2032,1.77268 4,3.15625 1.29534,2.24924 1.61684,4.71795 1.875,6.90625 4.0389,1.23498 6.79309,3.9896 8.96875,6.65625 2.49906,3.06304 4.56347,5.9147 7.59375,7.40625 a 2.4185005,2.4185005 0 0 1 1.34375,1.875 c 0.38126,3.38467 2.16319,5.29193 5.59375,7.71875 a 2.4185005,2.4185005 0 0 1 0.96875,1.5625 c 1.10991,6.51725 1.57577,13.82121 0.78125,20.03125 2.09022,1.45123 4.28815,3.24893 5.5625,5.75 0.76522,1.50184 1.15664,3.48469 0.3125,5.3125 -0.80955,1.75291 -2.48212,2.95082 -4.6875,3.78125 l 0,0.0312 c -2.3496,1.12863 -4.81167,3.63416 -5.46875,5.46875 -0.32854,0.91729 -0.30098,1.51924 -0.0312,2.03125 0.26973,0.51201 0.94458,1.21674 2.75,1.8125 a 2.4185005,2.4185005 0 0 1 1.65625,2.53125 c -0.38941,3.62664 -2.75634,5.94605 -4.125,7.9375 -1.36866,1.99145 -2.03205,3.12362 -1.03125,5.5625 a 2.4185005,2.4185005 0 0 1 0.125,0.4375 c 0.3495,1.76597 -0.1655,3.39234 -0.78125,4.53125 -0.61575,1.13891 -1.31877,1.96615 -1.65625,2.5 -0.33748,0.53385 -0.1661,0.39782 -0.25,0.125 -0.0839,-0.27282 -0.0165,0.15928 1.3125,0.84375 a 2.4185005,2.4185005 0 0 1 0.96875,0.90625 c 0.63026,1.04189 1.01415,2.18182 0.96875,3.34375 -0.0454,1.16193 -0.54951,2.19557 -1.15625,2.9375 -1.21348,1.48387 -2.69059,2.18592 -3.90625,2.90625 -1.21566,0.72033 -2.10178,1.42013 -2.34375,1.8125 -0.24197,0.39237 -0.43841,0.51378 0.34375,1.9375 a 2.4185005,2.4185005 0 0 1 0.1875,0.4375 c 0.84081,2.66786 0.52111,5.20156 -0.59375,7.09375 -1.11486,1.89219 -2.77512,3.13125 -4.34375,4.1875 -2.66927,1.79738 -4.88259,3.17196 -5.84375,4.8125 0.73082,1.00739 1.32988,2.01733 1.59375,3.09375 0.0669,0.27306 0.006,0.56377 0.0312,0.84375 4.1629,-4.86694 8.31993,-9.43602 10.3125,-14.96875 a 2.4185005,2.4185005 0 0 1 0.0937,-0.1875 c 5.67329,-12.46312 10.33341,-26.41261 20.625,-37.09375 3.64642,-7.68392 8.56962,-14.63981 10.9375,-21.75 l -0.0312,0 c 2.41827,-7.54261 0.59115,-16.76316 -1.1875,-25.3125 -3.23648,-10.13563 -9.45219,-19.51203 -17.5625,-26.34375 -0.0259,-0.0137 -0.0366,-0.0488 -0.0625,-0.0625 -8.3956,-4.44868 -14.10284,-11.47371 -22.25,-12.46875 a 2.4185005,2.4185005 0 0 1 -0.0937,-0.0312 c -4.32043,-0.69522 -8.65446,-1.15798 -12.96875,-1.46875 z m 7.625,146 c -0.84243,0.29289 -1.82757,0.36915 -2.78125,0.5 -0.61144,1.73357 -1.55615,3.23538 -2.84375,4.15625 -1.74746,1.24975 -3.69532,1.86373 -5.4375,2.40625 -1.74218,0.54252 -3.29287,1.02915 -4.21875,1.5625 -0.68728,0.39591 -0.94682,0.68867 -1.09375,1.125 1.30053,2.28669 1.93044,4.5182 1.34375,6.5 -0.687,2.32067 -2.46804,3.73735 -4.1875,4.84375 -3.43893,2.2128 -7.21622,3.87623 -8.28125,5.78125 -2.39874,4.32551 -6.8852,5.77248 -11,6.40625 -4.1148,0.63377 -8.25693,0.69513 -11.1875,1.6875 a 2.4185005,2.4185005 0 0 1 -0.34375,0.0937 c -1.87562,0.35287 -3.75806,1.1643 -6,1.75 -0.19015,0.0497 -0.42861,0.049 -0.625,0.0937 0.56743,0.18817 1.01195,0.46343 1.6875,0.59375 2.71168,0.5231 6.10927,0.41346 9.375,0.71875 10.61366,-1.45352 20.78418,-6.71474 27.46875,-15.03125 a 2.4185005,2.4185005 0 0 1 0.125,-0.15625 c 6.83832,-7.21091 13.34629,-14.58995 18,-23.03125 z" />
    <path
       style="fill:none;stroke:#000000;stroke-width:1px;stroke-linecap:butt;stroke-linejoin:miter;stroke-opacity:1"
       d="M 273.34375 160.09375 C 272.97848 159.73595 273.23937 160.04697 272.5625 159.34375 C 272.37553 159.53324 272.3811 159.71881 272.5 159.90625 C 272.6189 160.09369 272.8414 160.28242 273.125 160.46875 C 273.21449 160.35113 273.26918 160.21758 273.34375 160.09375 z "
       id="path6274" />
    <path
       sodipodi:type="inkscape:offset"
       inkscape:radius="-2.239121"
       inkscape:original="M 216.71875 156.59375 C 216.08293 156.63771 215.45961 156.76141 214.84375 157 C 216.18055 159.02608 217.22109 161.27059 218.59375 163.25 C 221.04394 165.13952 224.51365 164.89481 226.96875 166.75 C 228.47611 168.96832 231.1212 170.07126 233.5625 170.9375 C 235.61309 171.81763 237.71371 170.68283 239.78125 171.46875 C 243.20171 172.02142 246.59425 172.88548 250.0625 173.03125 C 256.30609 172.15565 262.73068 170.26922 267.84375 166.65625 C 265.52848 164.2583 261.80209 164.97601 259.15625 166.375 C 257.68119 167.33713 259.50807 164.49078 257.71875 164.90625 C 256.08148 165.14714 253.04426 167.53777 253.03125 164.34375 C 252.81362 161.73327 250.02396 163.04784 249.0625 164.40625 C 247.79783 165.32987 246.1738 167.50319 244.5 166.3125 C 243.43937 164.98085 243.53044 162.74738 241.5625 162.15625 C 239.49991 161.54341 238.42847 164.06193 236.5625 164.40625 C 233.93791 165.07882 234.40661 161.52853 233.96875 159.9375 C 233.95975 157.75322 231.1062 156.36443 229.875 158.53125 C 228.15264 160.24115 226.88396 162.45039 224.84375 163.8125 C 222.76966 163.29692 223.73094 159.76 221.9375 158.5625 C 220.55187 157.16121 218.6262 156.46187 216.71875 156.59375 z "
       style="fill:#41a900;fill-opacity:1;stroke:none"
       id="path6357"
       d="m 218.71875,159.09375 c 0.47021,0.83251 0.99085,1.74338 1.46875,2.46875 0.21919,0.15157 0.63697,0.21763 0.90625,0.34375 -0.25279,-1.11508 -0.50784,-1.53658 -0.40625,-1.46875 a 2.2393449,2.2393449 0 0 1 -0.34375,-0.3125 c -0.4666,-0.47188 -1.01821,-0.80969 -1.625,-1.03125 z m 12.9375,0.75 a 2.2393449,2.2393449 0 0 1 -0.21875,0.28125 c -1.12846,1.1203 -2.34536,2.80691 -4.03125,4.34375 0.30575,0.17833 0.60621,0.27328 0.90625,0.5 a 2.2393449,2.2393449 0 0 1 0.5,0.53125 c 1.01689,1.49652 3.14284,2.47611 5.5,3.3125 a 2.2393449,2.2393449 0 0 1 0.125,0.0625 c 0.45013,0.1932 1.03913,0.19924 2.0625,0.125 0.9235,-0.067 2.20776,-0.13992 3.625,0.28125 l 0,-0.0312 c 3.4844,0.563 6.74063,1.34376 9.84375,1.5 2.95695,-0.42662 5.93957,-1.0664 8.75,-2.03125 -0.3107,0.009 -0.61652,0.0487 -1,-0.125 -0.47658,-0.21591 -0.81913,-0.6471 -1.03125,-1 -0.50966,0.20117 -0.63391,0.31722 -1.40625,0.5 -0.7544,0.17854 -1.90592,0.32896 -3.03125,-0.46875 -0.73051,-0.51783 -1.06363,-1.25705 -1.25,-2.03125 -0.0358,0.0303 -0.1124,0.076 -0.125,0.0937 a 2.2393449,2.2393449 0 0 1 -0.5,0.53125 c -0.32548,0.23771 -1.11073,1.08184 -2.21875,1.8125 -0.55401,0.36533 -1.21937,0.73096 -2.125,0.84375 -0.90563,0.11279 -2.02376,-0.16669 -2.84375,-0.75 a 2.2393449,2.2393449 0 0 1 -0.4375,-0.40625 c -0.92984,-1.16744 -1.17983,-2.26533 -1.4375,-2.84375 -0.25767,-0.57842 -0.17552,-0.49319 -0.40625,-0.5625 -0.0616,0.0257 -0.23029,0.13863 -0.53125,0.375 -0.60336,0.47388 -1.55875,1.46933 -3.25,1.84375 l 0,0.0312 c -0.0289,0.007 -0.0645,-0.007 -0.0937,0 -0.0268,0.005 -0.0353,0.0262 -0.0625,0.0312 l 0,-0.0312 c -1.07348,0.23235 -2.3716,0.10244 -3.25,-0.59375 -0.91857,-0.72803 -1.24261,-1.63955 -1.4375,-2.375 -0.38979,-1.47089 -0.41711,-2.87486 -0.46875,-3.0625 a 2.2393449,2.2393449 0 0 1 -0.0937,-0.59375 c -1.8e-4,-0.0429 -0.0363,-0.0535 -0.0625,-0.0937 z" />
    <path
       style="fill:none;stroke:#000000;stroke-width:1px;stroke-linecap:butt;stroke-linejoin:miter;stroke-opacity:1"
       d="m 371.42857,88.790753 c -3.88113,-0.106434 13.56386,-18.578996 22.14286,-10 0.59755,0.597549 3.61046,0.03903 4.28571,0.714286 1.27692,1.276916 5.07553,2.218387 6.42857,3.571428 1.5479,1.547897 2.60862,4.518593 5,5.714286 2.15082,1.07541 7.9642,2.750093 10,0.714286"
       id="path6400"
       inkscape:connector-curvature="0" />
    <path
       style="fill:#864545;stroke:#000000;stroke-width:1px;stroke-linecap:butt;stroke-linejoin:miter;stroke-opacity:1;fill-opacity:1"
       d="m 415,68.790753 c -1.23683,0.472943 -3.79182,-2.636746 -5.71429,-0.714286 -0.96042,0.960429 -3.96833,1.508098 -5,3.571429 -3.50774,7.015487 13.70532,12.008966 16.42858,9.285714 3.9612,-3.961205 -0.036,-12.142857 -5.71429,-12.142857 z"
       id="path6402"
       inkscape:connector-curvature="0" />
    <path
       style="fill:none;stroke:#000000;stroke-width:1px;stroke-linecap:butt;stroke-linejoin:miter;stroke-opacity:1"
       d="m 436.42857,100.93361 c -4.64673,7.80087 3.80684,-6.185107 -2.14286,5.71429 -1.19808,2.39617 -0.97913,4.10112 -2.14285,6.42857 -3.69841,7.39682 -14.19233,15.71428 -23.57143,15.71428 -4.73385,0 -9.28572,-2.22577 -9.28572,-4.28571"
       id="path6443"
       inkscape:connector-curvature="0" />
    <path
       style="fill:#ea7070;fill-opacity:1;stroke:#000000;stroke-width:1.02483964px;stroke-linecap:butt;stroke-linejoin:miter;stroke-opacity:1"
       d="M 441.875 113.0625 C 440.07814 120.5272 434.20524 126.1052 428.375 131.65625 C 426.87039 133.08881 422.77435 133.23876 420.125 134.5 C 414.97328 136.9525 399.92083 134.5 404.34375 134.5 C 398.93651 132.38585 402.55897 147.10387 402.84375 147.375 L 406.59375 150.9375 C 408.17956 152.44737 413.3691 151.62872 414.875 153.0625 C 416.21216 154.33564 420.55938 153.78125 423.125 153.78125 C 425.30653 153.78125 427.32417 153.71812 429.28125 153.59375 C 434.82369 151.30704 445.3158 147.02795 449.28125 143.0625 C 451.07189 141.27186 453.20936 137.72814 455 135.9375 C 455.06586 135.87164 455.12512 135.77124 455.1875 135.6875 C 454.10523 131.83273 452.50226 126.89857 452.375 126.65625 C 449.8085 121.76906 448.08439 116.60974 441.875 113.0625 z "
       id="path6445" />
    <path
       style="fill:none;stroke:#000000;stroke-width:1px;stroke-linecap:butt;stroke-linejoin:miter;stroke-opacity:1"
       d="m 407.14286,156.6479 c 12.36493,15.36593 38.24589,-1.10303 44.28571,-7.14286"
       id="path6449"
       inkscape:connector-curvature="0"
       sodipodi:nodetypes="cc" />
    <path
       style="fill:none;stroke:#000000;stroke-width:1px;stroke-linecap:butt;stroke-linejoin:miter;stroke-opacity:1"
       d="m 407.85715,167.36218 c 4.17891,5.60968 13.53381,13.59024 20.71428,10 3.00351,-1.50175 11.13751,-2.56607 13.57143,-5"
       id="path6451"
       inkscape:connector-curvature="0"
       sodipodi:nodetypes="csc" />
    <path
       style="fill:none;stroke:#000000;stroke-width:1px;stroke-linecap:butt;stroke-linejoin:miter;stroke-opacity:1"
       d="m 401.42858,174.50504 c 2.68363,8.37878 20.25397,23.10626 24.99999,20.71429"
       id="path6453"
       inkscape:connector-curvature="0"
       sodipodi:nodetypes="cc" />
    <path
       style="fill:none;stroke:#000000;stroke-width:1px;stroke-linecap:butt;stroke-linejoin:miter;stroke-opacity:1"
       d="m 372.85714,175.21932 c -1.66518,3.6138 -4.03605,9.78503 -2.14285,13.57144"
       id="path6457"
       inkscape:connector-curvature="0"
       sodipodi:nodetypes="cc" />
    <path
       style="fill:none;stroke:#000000;stroke-width:1px;stroke-linecap:butt;stroke-linejoin:miter;stroke-opacity:1"
       d="m 360.71428,166.64789 c -5.52999,3.28287 -7.12201,15.02085 -3.57143,18.57143"
       id="path6459"
       inkscape:connector-curvature="0"
       sodipodi:nodetypes="cc" />
    <path
       style="fill:none;stroke:#000000;stroke-width:1px;stroke-linecap:butt;stroke-linejoin:miter;stroke-opacity:1"
       d="m 347.85714,159.50504 c -7.47119,2.25272 -8.51121,18.95868 -3.57143,21.42857"
       id="path6461"
       inkscape:connector-curvature="0" />
    <path
       style="fill:none;stroke:#000000;stroke-width:1px;stroke-linecap:butt;stroke-linejoin:miter;stroke-opacity:1"
       d="m 327.85714,163.79075 c -0.95238,0.71429 -2.01535,1.30106 -2.85714,2.14286 -2.44054,2.44053 -1.07081,14.28571 7.85714,17.85714"
       id="path6463"
       inkscape:connector-curvature="0"
       sodipodi:nodetypes="csc" />
    <path
       style="fill:#782121;stroke:#000000;stroke-width:1px;stroke-linecap:butt;stroke-linejoin:miter;stroke-opacity:1"
       d="m 412.14286,68.790753 c -0.95238,0 -2.85715,0.952381 -2.85715,0 0,-0.952381 3.53058,-0.673435 2.85715,0 -1.36963,1.369628 -4.73697,-0.263036 -5.71429,0.714286 -3.37933,3.379334 7.5615,8.521781 5.71429,-0.714286 z"
       id="path6496"
       inkscape:connector-curvature="0" />
    <path
       sodipodi:type="inkscape:offset"
       inkscape:radius="-0.65184265"
       inkscape:original="M 441.78125 113.3125 C 441.6581 113.42872 441.58058 113.6699 441.59375 114.09375 C 440.26793 118.49062 437.5231 122.31065 434.375 125.59375 C 435.03971 127.4144 432.57097 128.84149 433.34375 130.65625 C 433.81682 131.84945 437.2662 130.79226 436.125 132.375 C 434.47981 133.59527 432.46995 134.18766 430.71875 135.21875 C 430.02355 136.77464 434.23602 134.9345 433.09375 137.25 C 432.37507 138.29544 430.52453 139.40836 432.1875 140.59375 C 433.86907 141.43082 434.45782 143.15139 434.34375 144.9375 C 434.93775 145.69365 433.63553 146.21114 434.75 145.71875 C 436.83843 144.89881 437.1991 147.69541 436.53125 149.0625 C 436.31708 149.66516 436.02779 150.22296 435.71875 150.78125 C 440.19413 148.92975 444.64487 146.82319 448.46875 143.8125 C 451.13791 141.48438 452.75074 138.22971 455.1875 135.6875 C 454.27109 132.58389 453.40416 129.45904 452.25 126.4375 C 450.40361 122.75096 448.71062 118.85626 445.78125 115.875 C 444.34352 114.5608 443.23262 116.77959 442.53125 117.8125 C 442.12972 118.42651 440.94805 120.29588 441.90625 118.6875 C 442.57134 117.37701 443.95945 115.94745 443.3125 114.375 C 442.96791 113.76278 442.1507 112.96384 441.78125 113.3125 z "
       style="fill:#e96666;fill-opacity:1;stroke:none"
       id="path6624"
       d="m 442.25,114.125 a 0.65190784,0.65190784 0 0 1 -0.0312,0.15625 c -1.34349,4.45545 -4.09624,8.27243 -7.21875,11.5625 0.0636,0.43348 0.11153,0.87954 0,1.25 -0.15335,0.50938 -0.37629,0.94055 -0.59375,1.34375 -0.21746,0.4032 -0.41442,0.77587 -0.5,1.09375 -0.0856,0.31788 -0.10086,0.56475 0.0312,0.875 0.006,0.0154 0.0895,0.0846 0.375,0.15625 0.28548,0.0717 0.6851,0.11286 1.09375,0.15625 0.40865,0.0434 0.81482,0.0118 1.25,0.375 0.21759,0.18158 0.37813,0.56773 0.34375,0.875 -0.0344,0.30727 -0.16561,0.53419 -0.34375,0.78125 A 0.65190784,0.65190784 0 0 1 436.5,132.90625 c -1.45003,1.07552 -3.01443,1.68933 -4.46875,2.40625 0.0288,8.8e-4 0.0335,-8.4e-4 0.0625,0 0.43717,0.0127 0.92112,-0.0415 1.40625,0.34375 0.24257,0.19262 0.42881,0.539 0.4375,0.875 0.009,0.336 -0.0796,0.65464 -0.25,1 a 0.65190784,0.65190784 0 0 1 -0.0625,0.0937 c -0.44613,0.64897 -1.05947,1.1847 -1.3125,1.59375 -0.12651,0.20452 -0.16917,0.29944 -0.15625,0.375 0.0129,0.0756 0.0763,0.23355 0.40625,0.46875 1.8661,0.9893 2.56008,2.98684 2.4375,4.90625 0.006,0.0199 -0.005,0.0426 0,0.0625 0.47251,-0.0902 0.93785,-0.10505 1.3125,0.0937 0.50477,0.26784 0.79831,0.73015 0.96875,1.21875 0.33319,0.95518 0.28108,2.06392 -0.125,2.9375 -0.009,0.0201 -0.0215,0.0426 -0.0312,0.0625 -0.0132,0.0362 -0.0488,0.0579 -0.0625,0.0937 3.88368,-1.6751 7.68306,-3.54235 10.96875,-6.125 2.44553,-2.13307 4.06618,-5.16911 6.4375,-7.75 -0.87768,-2.98303 -1.69208,-5.98079 -2.78125,-8.84375 -0.001,-0.003 -0.0301,0.003 -0.0312,0 -1.85726,-3.70825 -3.5253,-7.50662 -6.34375,-10.375 -0.23357,-0.2037 -0.35808,-0.23247 -0.46875,-0.21875 -0.1168,0.0145 -0.28507,0.10765 -0.5,0.3125 -0.42487,0.40493 -0.90155,1.15705 -1.28125,1.71875 -0.003,0.005 0.004,0.0259 0,0.0312 -0.19859,0.30421 -0.58443,0.90355 -0.8125,1.25 -0.058,0.0881 -0.0856,0.16301 -0.125,0.21875 -0.0197,0.0279 -0.0299,0.0238 -0.0937,0.0937 -0.016,0.0175 -0.12414,0.0931 -0.125,0.0937 -2.1e-4,1.5e-4 -0.0623,0.0624 -0.0625,0.0625 -1.8e-4,9e-5 -0.18736,0.0625 -0.1875,0.0625 -1.4e-4,3e-5 -0.34365,-0.0312 -0.34375,-0.0312 -10e-5,-4e-5 -0.34369,-0.3124 -0.34375,-0.3125 -6e-5,-1e-4 -0.0625,-0.24983 -0.0625,-0.25 -2e-5,-1.7e-4 -2e-5,-0.12476 0,-0.125 5e-5,-4.7e-4 -0.007,-0.10134 0,-0.125 0.0137,-0.0473 0.0243,-0.0463 0.0312,-0.0625 0.0556,-0.12986 0.0636,-0.1436 0.125,-0.25 0.0535,-0.0928 0.15203,-0.24142 0.25,-0.40625 0.0109,-0.0215 0.0201,-0.0411 0.0312,-0.0625 0.3686,-0.70845 0.85461,-1.38016 1.15625,-2 0.30507,-0.62687 0.43645,-1.1297 0.21875,-1.6875 -0.004,-0.006 0.004,-0.0252 0,-0.0312 -0.10812,-0.17559 -0.3029,-0.34257 -0.46875,-0.5 z" />
    <path
       sodipodi:type="inkscape:offset"
       inkscape:radius="-2.3237221"
       inkscape:original="M 403.875 134.34375 C 402.91732 134.02076 401.99699 134.78868 401.75 135.6875 C 401.19728 137.50522 401.42398 139.45276 401.59375 141.3125 C 401.84751 143.27006 402.19544 145.23249 402.75 147.125 C 403.28188 147.95862 404.14692 148.52244 404.8125 149.25 C 405.58261 149.92973 406.25609 150.73162 407.125 151.28125 C 408.9313 152.13415 410.98914 151.88903 412.90625 152.28125 C 413.70857 152.39469 414.46359 152.71879 415.125 153.15625 C 415.2109 152.36976 414.61982 151.45068 414.75 150.5625 C 414.748 149.0617 416.56622 149.62856 417.5 149.25 C 418.39759 149.1862 418.88465 148.47868 418.03125 147.90625 C 417.21251 147.17564 416.31693 146.44165 415.78125 145.46875 C 415.21819 144.25837 416.6162 143.24134 417.65625 143 C 418.4682 143.0891 420.23321 142.09766 419.0625 141.34375 C 418.42969 141.27245 417.20006 140.65273 418.375 140.21875 C 418.81834 139.88429 420.5222 139.72663 419.78125 138.96875 C 418.90022 138.86895 417.56274 138.06141 418.6875 137.21875 C 419.23588 136.47789 419.42633 135.5488 419.5625 134.65625 C 417.18608 135.64806 414.55592 135.54555 412.03125 135.5625 C 409.24607 135.4852 406.44051 135.33368 403.71875 134.71875 C 403.39374 134.34999 404.75431 134.5646 403.875 134.34375 z "
       style="fill:#f58282;fill-opacity:1;stroke:none"
       id="path6662"
       d="m 403.90625,137.09375 c -0.17067,1.09263 -0.13922,2.3734 0,3.90625 0.003,0.0336 -0.003,0.0599 0,0.0937 0.22334,1.70158 0.5363,3.36022 0.96875,4.9375 0.21284,0.25457 0.74956,0.72141 1.46875,1.46875 0.0918,0.0954 0.0904,0.0813 0.1875,0.1875 0.74565,0.67881 1.31176,1.24606 1.71875,1.53125 0.88598,0.37873 2.49667,0.3838 4.34375,0.65625 0.14278,-0.67912 0.38895,-1.38509 0.90625,-1.84375 0.36441,-0.3231 0.66245,-0.31365 1,-0.4375 -0.26059,-0.32569 -0.52327,-0.58822 -0.75,-1 a 2.3239545,2.3239545 0 0 1 -0.0625,-0.15625 c -0.69673,-1.49773 -0.0654,-3.28784 0.75,-4.15625 0.41563,-0.44265 0.85252,-0.74979 1.3125,-1 -0.11486,-0.44821 -0.22586,-0.94719 -0.0625,-1.4375 0.12553,-0.37677 0.34441,-0.55039 0.53125,-0.78125 -0.16432,-0.36079 -0.25489,-0.78903 -0.25,-1.25 -1.3862,0.10373 -2.74052,0.0545 -3.9375,0.0625 a 2.3239545,2.3239545 0 0 1 -0.0625,0 c -2.60754,-0.0724 -5.31949,-0.23297 -8.0625,-0.78125 z" />
    <path
       style="fill:none;stroke:#000000;stroke-width:2;stroke-linecap:round;stroke-linejoin:round;stroke-opacity:1;stroke-miterlimit:4;stroke-dasharray:none"
       d="m 434.28571,67.362182 c 0.92249,1.537483 4.24652,4.960805 5.71429,6.428571 2.90999,2.909993 3.85065,9.129874 5.71429,12.857143 1.42034,2.840685 1.42361,11.423616 2.85714,12.857143 3.20791,3.207911 8.30254,7.588261 11.42857,10.714281 1.23675,1.23675 8.41879,25.86693 5.71429,28.57143 -0.70985,0.70985 -3.06561,3.27407 -3.57143,4.28572 -0.90886,1.8177 0,6.49408 0,8.57143 0,5.9193 -3.80676,14.52104 -4.28572,15"
       id="path6839"
       inkscape:connector-curvature="0"
       sodipodi:nodetypes="csssssssc" />
    <path
       style="fill:none;stroke:#000000;stroke-width:2;stroke-linecap:round;stroke-linejoin:round;stroke-opacity:1;stroke-miterlimit:4;stroke-dasharray:none"
       d="m 377.14286,113.07647 c -1.37797,3.97914 8.83985,11.25114 12.14285,17.85714 1.98816,3.9763 -3.41672,6.0237 -1.42857,10 2.60045,5.2009 8.21049,13.93237 3.57143,18.57143 -0.98169,0.98169 -0.9011,2.95055 -2.14286,3.57143"
       id="path6867"
       inkscape:connector-curvature="0" />
    <path
       style="fill:none;stroke:#000000;stroke-width:2;stroke-linecap:round;stroke-linejoin:round;stroke-opacity:1;stroke-miterlimit:4;stroke-dasharray:none"
       d="m 368.57143,125.93361 c -3.72439,2.96006 5.08608,3.02931 7.14286,7.14286 1.38769,2.77538 -3.30852,5.9772 -1.42858,7.85714 1.33786,1.33786 1.37554,4.23267 2.85715,5.71429 4.6013,4.6013 3.27554,8.4489 0.71428,13.57142"
       id="path6882"
       inkscape:connector-curvature="0" />
    <path
       style="fill:none;stroke:#000000;stroke-width:2;stroke-linecap:round;stroke-linejoin:round;stroke-opacity:1;stroke-miterlimit:4;stroke-dasharray:none"
       d="m 457.14286,73.790753 c -1.30784,3.908699 0.5424,6.799082 2.14285,10 1.14151,2.283006 1.5716,5.85731 2.85715,7.142857 4.56656,4.566561 11.31824,7.636494 13.57143,12.14286 0.95238,1.90476 -0.95238,5.23809 0,7.14285 1.86121,3.72243 1.73637,8.47274 3.57142,12.14286 3.18928,6.37855 4.9776,14.30812 0,19.28572"
       id="path6897"
       inkscape:connector-curvature="0" />
    <path
       style="fill:none;stroke:#000000;stroke-width:2;stroke-linecap:round;stroke-linejoin:round;stroke-opacity:1;stroke-miterlimit:4;stroke-dasharray:none"
       d="m 357.14286,83.076467 c -5.89763,-5.459333 -2.88476,-30 15,-30"
       id="path6912"
       inkscape:connector-curvature="0" />
    <path
       style="fill:none;stroke:#000000;stroke-width:2;stroke-linecap:round;stroke-linejoin:round;stroke-opacity:1;stroke-miterlimit:4;stroke-dasharray:none"
       d="m 345.71429,68.790753 c -4.08097,-8.299052 3.05575,-14.385021 8.57142,-17.142857"
       id="path6914"
       inkscape:connector-curvature="0" />
  </g>
</svg>
