<?xml version="1.0" encoding="UTF-8" standalone="no"?>
<!-- Created with Inkscape (http://www.inkscape.org/) -->

<svg
   xmlns:dc="http://purl.org/dc/elements/1.1/"
   xmlns:cc="http://creativecommons.org/ns#"
   xmlns:rdf="http://www.w3.org/1999/02/22-rdf-syntax-ns#"
   xmlns:svg="http://www.w3.org/2000/svg"
   xmlns="http://www.w3.org/2000/svg"
   xmlns:sodipodi="http://sodipodi.sourceforge.net/DTD/sodipodi-0.dtd"
   xmlns:inkscape="http://www.inkscape.org/namespaces/inkscape"
   width="1052.3622"
   height="744.09448"
   id="svg3573"
   version="1.1"
   inkscape:version="0.48.3.1 r9886"
   sodipodi:docname="through.svg"
   inkscape:export-filename="/home/substack/projects/talks/lxjs_2012/images/writable.png"
   inkscape:export-xdpi="100"
   inkscape:export-ydpi="100">
  <defs
     id="defs3575" />
  <sodipodi:namedview
     id="base"
     pagecolor="#ffffff"
     bordercolor="#666666"
     borderopacity="1.0"
     inkscape:pageopacity="0.0"
     inkscape:pageshadow="2"
     inkscape:zoom="0.5"
     inkscape:cx="460.53714"
     inkscape:cy="366.65902"
     inkscape:document-units="px"
     inkscape:current-layer="layer1"
     showgrid="false"
     inkscape:window-width="1364"
     inkscape:window-height="766"
     inkscape:window-x="0"
     inkscape:window-y="0"
     inkscape:window-maximized="0" />
  <metadata
     id="metadata3578">
    <rdf:RDF>
      <cc:Work
         rdf:about="">
        <dc:format>image/svg+xml</dc:format>
        <dc:type
           rdf:resource="http://purl.org/dc/dcmitype/StillImage" />
        <dc:title></dc:title>
      </cc:Work>
    </rdf:RDF>
  </metadata>
  <g
     inkscape:label="Layer 1"
     inkscape:groupmode="layer"
     id="layer1"
     transform="translate(0,-308.2677)">
    <path
       style="fill:#ff00ff;stroke:#ffffff;stroke-width:0.74676597px;stroke-linecap:butt;stroke-linejoin:miter;stroke-opacity:0"
       d="m 138.318,405.88989 c -5.08054,-8.43649 -17.08154,19.75416 -11.094,35.69964 3.53134,9.40434 9.40951,17.67242 12.94301,27.08248 5.55491,14.79331 10.57138,37.46577 18.49001,48.00985 2.19211,2.9189 9.45068,-2.73591 10.16952,-3.69307 5.60198,-7.45934 27.87862,-65.05293 31.43301,-60.32007 5.9388,7.90783 12.4458,51.04086 20.33902,61.55109 2.54922,3.39443 8.56114,-4.01348 10.1695,-6.1551 6.6888,-8.9065 15.67162,-21.97904 18.49001,-33.23759 0.61318,-2.44942 3.748,-3.8262 4.62251,-6.15511 6.00233,-15.98484 28.22175,-49.82379 17.56551,-64.01314 -11.09253,-14.77029 -34.2534,51.70292 -44.37603,51.70292 -5.74043,0 -14.62868,-41.63725 -19.41451,-48.00985 -1.8211,-2.42489 -6.13512,-4.47618 -8.32051,-7.38614 -3.94072,-5.24727 -19.20905,24.07328 -20.33901,27.08248 -0.86669,2.30808 -15.48538,32.31434 -18.49002,28.31351 -9.69398,-12.90806 -14.32275,-33.01687 -22.18802,-50.4719 z"
       id="path3581"
       inkscape:connector-curvature="0" />
    <path
       style="fill:#ff00ff;stroke:#ffffff;stroke-width:0.86171532px;stroke-linecap:butt;stroke-linejoin:miter;stroke-opacity:0"
       d="m 287.6606,408.35194 c -2.29697,14.04673 -1.54006,99.40373 3.69306,104.63685 1.78583,1.78584 5.67086,2.21993 8.61715,3.69307 2.72753,1.36376 10.05545,-0.20727 11.0792,-1.23102 1.65652,-1.65652 7.14521,-2.22113 8.61715,-3.69307 2.28529,-2.28527 -8.61715,-55.08461 -8.61715,-64.01313 0,-1.96029 -1.24757,-11.06265 0,-12.31022 27.28948,-27.28948 37.83595,11.40493 54.16496,-4.92409 2.36599,-2.36598 12.40179,-15.91171 7.38614,-20.92737 -18.71361,-18.7136 -42.98709,-18.56401 -62.78212,1.23103 -1.08006,1.08005 -14.11615,-18.54654 -22.15839,-2.46205 z"
       id="path3583"
       inkscape:connector-curvature="0" />
    <path
       style="fill:#ff00ff;stroke:#ffffff;stroke-width:0.86171532px;stroke-linecap:butt;stroke-linejoin:miter;stroke-opacity:0"
       d="m 393.52848,404.65887 c -5.63661,11.45383 -4.94513,26.97729 -2.46205,39.39271 1.78512,8.92556 1.23103,19.08741 1.23103,28.3135 0,7.28514 -4.13047,35.26222 1.23102,40.62371 1.8405,1.84051 8.19263,0.80652 9.84817,2.46205 2.64204,2.64204 10.59837,0.48083 13.54124,-2.46205 2.42983,-2.42982 1.23102,-10.05325 1.23102,-13.54123 0,-13.06858 2.15607,-91.40159 -3.69307,-97.25073 -3.11978,-3.11979 -18.00717,1.732 -20.92736,2.46204 z"
       id="path3585"
       inkscape:connector-curvature="0" />
    <path
       style="fill:#ff00ff;stroke:#ffffff;stroke-width:0.86171532px;stroke-linecap:butt;stroke-linejoin:miter;stroke-opacity:0"
       d="m 405.83869,364.03515 c -16.84777,-0.8049 13.73273,-1.23102 -6.1551,-1.23102 -8.40909,0 -14.99653,15.89115 -7.38613,19.69635 14.04334,7.02167 33.26559,-18.46533 13.54123,-18.46533 z"
       id="path3587"
       inkscape:connector-curvature="0" />
    <path
       style="fill:#ff00ff;stroke:#ffffff;stroke-width:0.86171532px;stroke-linecap:butt;stroke-linejoin:miter;stroke-opacity:0"
       d="m 460.31141,372.34776 c -3.86591,0.14214 -8.12173,1.02735 -10.15208,1.53493 -2.59493,9.17246 -1.30741,18.70305 -0.0807,28.08654 -3.05523,0.82044 -6.20183,1.45414 -9.77509,1.45414 -0.1456,-0.0786 -11.06765,0.003 -11.06765,4.92794 0,3.3313 -3.22149,10.3236 0,13.54508 2.78132,2.78133 8.17841,4.07575 12.30637,6.13973 1.34876,0.67437 5.20317,0.85483 10.39444,0.70014 0.48602,7.1247 0.92422,14.1481 -0.53857,21.4621 -2.02281,10.11401 0.759,21.98873 3.68922,30.77939 3.54639,10.63917 4.13009,22.60311 11.06765,29.54068 3.04132,3.0413 7.69331,0.77679 11.09459,2.47743 4.37518,2.18759 10.78676,1.21179 15.99559,1.21179 24.13457,0 35.70733,-14.09688 35.70733,-38.15783 0,-1.93262 -0.0874,-11.15504 -1.23872,-12.30638 -11.86647,-11.86646 -29.09034,25.06309 -46.77498,7.37844 -4.42813,-4.42811 -6.16665,-9.90293 -6.16665,-19.68481 0,-5.82984 0.14659,-14.73006 0.0807,-24.4781 19.19134,-2.11221 39.77112,-5.54485 41.76626,-7.54001 2.33905,-2.33905 16.88902,-7.72372 8.61716,-15.99559 -3.71243,-3.71242 -11.66579,-4.28354 -17.23431,-6.13972 -6.1187,-2.03957 -13.11417,-1.23872 -19.68481,-1.23872 -5.17735,0 -9.86253,1.18702 -14.62223,1.91194 -1.02641,-11.31366 -2.90033,-20.67321 -6.30129,-24.07418 -1.30443,-1.30443 -4.0754,-1.64548 -7.08223,-1.53493 z"
       id="path3589"
       inkscape:connector-curvature="0" />
    <path
       style="fill:#ff00ff;stroke:#ffffff;stroke-width:0.86171532px;stroke-linecap:butt;stroke-linejoin:miter;stroke-opacity:0"
       d="m 595.27757,383.3077 c -21.99449,-0.26328 -44.45759,7.9276 -44.18983,27.49411 9.01182,22.52957 16.53416,5.65501 24.63967,-2.4505 4.31469,-4.31469 10.97254,-2.38231 14.75687,-6.16665 1.94886,-1.94886 10.35752,-1.94886 12.30637,0 0.85293,0.85292 5.31374,0.38579 6.16666,1.23871 10.85369,10.8537 14.33318,15.85832 15.45701,27.09018 0.0513,0.5129 0.0927,1.04868 0.13465,1.58878 -0.89658,-0.42131 -1.93505,-0.91366 -3.28529,-1.58878 -31.17677,-15.58838 -81.57361,25.16451 -66.4598,55.39213 1.34862,2.69725 1.48433,7.65099 3.68922,9.85587 4.66753,4.66754 10.82866,10.96163 15.99559,13.54509 14.01904,7.00952 36.08873,0.14909 50.16799,-8.40172 0.60776,5.43506 1.55035,9.62892 2.77365,10.85222 1.69229,1.69229 7.02195,-0.88223 7.37843,-1.23871 1.84654,-1.84654 5.53191,-1.84269 7.37844,-3.68922 4.54352,-4.54352 1.10149,-25.577 4.92794,-33.2299 1.99039,-3.98077 1.46474,-27.62389 0,-32.01811 -1.17351,-3.52055 1.64262,-9.02111 0,-12.30637 -5.68252,-11.36502 -5.14276,-24.8545 -14.75688,-34.46861 -7.17932,-7.17932 -22.03182,-11.31837 -37.08069,-11.49852 z m 15.34931,61.96272 c 5.25538,-0.0169 10.2352,0.75683 14.32602,2.4505 0.003,1.64831 0,3.11327 0,4.95487 0,3.57322 2.91702,8.94975 1.23871,12.30637 -1.32888,2.65775 -2.05023,8.85318 -2.262,15.88788 -5.69266,2.82485 -12.49652,6.24908 -16.21102,9.96358 -0.82068,0.82068 -4.10725,-0.82068 -4.92794,0 -1.43618,1.43619 -5.94224,-0.19748 -7.37843,1.23872 -2.00562,2.00561 -6.73663,1.55961 -9.85587,0 -1.74167,-0.87085 -6.0058,0.13391 -7.37844,-1.23872 -7.13864,-7.13864 -9.1141,-19.92962 -3.68922,-30.77939 4.24718,-8.49435 21.22757,-14.73583 36.13819,-14.78381 z"
       id="path3619"
       inkscape:connector-curvature="0" />
    <path
       style="fill:#ff00ff;stroke:#ffffff;stroke-width:0.86171532px;stroke-linecap:butt;stroke-linejoin:miter;stroke-opacity:0"
       d="m 668.10791,317.25184 c -2.41125,0.13751 -5.23183,1.86766 -8.67101,6.16665 6.39617,55.70002 1.21179,112.50493 1.21179,168.65385 0,9.14179 4.09399,30.577 16.02252,24.61274 4.49687,-2.24844 10.17878,-5.45186 10.95994,-12.01016 5.0404,2.49269 10.5649,4.31302 16.1033,7.08222 7.79569,3.89785 20.29999,-1.53284 27.09018,-4.92793 19.51085,-9.75543 27.09017,-23.24334 27.09017,-49.22549 0,-13.34855 -0.56839,-25.10613 -4.92793,-38.18476 -8.6792,-26.0376 -44.72411,-42.33811 -66.51365,-24.34346 0.0132,-0.91457 0.0269,-1.95291 0.0269,-2.71978 0,-13.59629 4.73483,-46.96809 -3.68922,-55.39214 -0.85291,-0.85292 -0.35887,-5.31374 -1.21178,-6.16665 -3.88673,-3.88673 -7.32916,-13.89652 -13.49123,-13.54509 z m 38.45405,89.37604 c 2.24169,-0.003 4.5914,0.50494 7.02836,1.72343 1.74168,0.87083 6.0058,-0.13392 7.37844,1.23871 2.46205,2.46204 6.15511,3.67768 8.61715,6.13972 11.66665,11.66666 7.21874,29.91395 1.23872,41.87398 -1.86912,3.73826 -1.34931,8.72775 -3.68922,11.06766 -8.00348,8.00347 -23.0556,19.85749 -38.15783,12.30637 -0.0856,-0.0427 -0.17757,-0.10218 -0.26929,-0.16157 0.75455,-15.43755 1.4953,-33.09372 0.26929,-35.54576 -2.24236,-4.48471 -2.83896,-15.09348 -2.88136,-26.01303 5.13798,-5.31893 12.08736,-12.61779 20.46574,-12.62951 z"
       id="path3625"
       inkscape:connector-curvature="0" />
    <path
       style="fill:#ff00ff;stroke:#ffffff;stroke-width:0.86171532px;stroke-linecap:butt;stroke-linejoin:miter;stroke-opacity:0"
       d="m 777.60731,318.48734 c 1.64136,-0.41034 4.51374,-2.87239 4.92408,-1.23102 0.41035,1.64136 -3.9856,-0.17671 -4.92408,1.23102 -0.67197,1.00794 -2.96704,20.48526 -3.69307,23.38941 -3.68116,14.72464 0,35.10435 0,50.4719 0,15.37173 0.97926,41.37903 -3.69307,55.39599 -3.91216,11.73648 -3.03416,89.2057 19.69635,66.47518 9.83997,-9.83997 2.8906,-29.59914 7.38613,-43.08576 5.17322,-15.51963 8.97959,-86.31525 3.69307,-102.17482 -2.57846,-7.7354 1.13329,-30.97102 -2.46204,-38.16168 -4.80207,-9.60413 -6.82329,-15.83624 -20.92737,-12.31022 z"
       id="path3643"
       inkscape:connector-curvature="0" />
    <path
       style="fill:#ff00ff;stroke:#ffffff;stroke-width:0.86171532px;stroke-linecap:butt;stroke-linejoin:miter;stroke-opacity:0"
       d="m 883.99452,379.56079 c -2.75553,0.0524 -5.8023,0.48471 -7.917,0.48471 -26.00889,0 -40.36098,10.73783 -55.39214,30.77939 -5.0608,6.74774 -8.6599,23.19194 -6.13972,30.75247 0.98482,2.95445 -0.98482,6.90141 0,9.85587 3.48373,10.4512 5.20306,21.77583 8.61715,32.01811 7.34815,22.04444 58.35638,38.44272 75.07695,22.16224 13.61358,-13.25526 19.16858,-16.38613 12.30636,-34.46861 -4.11943,-10.85506 -11.07573,-6.65117 -17.2343,8.60945 -2.82555,7.00161 -11.32606,12.48465 -32.90675,5.15106 -3.50561,-1.83135 -7.92095,-3.40843 -11.3908,-5.14336 -5.33965,-2.66983 -5.97656,-8.454 -8.61715,-11.09458 -3.79816,-3.79817 -0.85465,-14.57365 -0.56551,-22.62003 2.28962,-1.24686 5.0096,-1.99272 7.94394,-1.99272 18.55664,-2.45821 51.31214,6.53051 64.00929,-6.16665 15.02395,-15.02391 -6.40384,-52.1859 -23.37402,-57.84264 -1.20646,-0.40215 -2.76297,-0.51613 -4.4163,-0.48471 z m -6.86679,21.46209 c 2.455,-0.0238 4.66092,0.33774 6.35515,1.18486 1.55419,0.77709 6.19667,-1.18177 7.37844,0 19.72995,19.72993 -13.16807,29.72918 -23.40096,24.61275 -5.89166,-2.94584 -13.15828,-3.59963 -19.67327,-2.46205 -1.31168,-3.38548 2.13115,-11.78301 3.67768,-13.53355 4.77564,-4.77563 16.89508,-9.71724 25.66296,-9.80201 z"
       id="path3645"
       inkscape:connector-curvature="0"
       sodipodi:nodetypes="csssssssscssccssccsssccc" />
    <path
       inkscape:connector-curvature="0"
       id="path3993"
       d="m 756.88544,804.91161 c -0.33711,-4.66046 44.3171,5.80359 27.33834,22.97424 -6.80062,6.87764 -21.68334,5.56374 -31.25906,5.61758 -12.92298,0.0727 -88.98054,2.14183 -96.55938,5.98463 -11.21458,5.68631 -30.95856,-5.44921 -42.17312,0.23709 -7.51461,3.81025 -55.98421,4.1675 -59.85856,0.33648 -1.21322,-1.19965 -0.56194,-3.79895 -1.39101,-5.43408 -7.01339,-13.83181 10.57846,-23.18734 20.27632,-23.24186 4.72852,-0.0266 13.49192,-0.70168 17.67022,-2.82027 8.22168,-4.16878 46.73111,6.31977 54.43215,2.41497 6.40882,-3.24957 96.76527,-5.98582 111.5241,-6.06878 z"
       style="fill:none;stroke:#967676;stroke-width:4.76155329;stroke-linecap:butt;stroke-linejoin:miter;stroke-miterlimit:4;stroke-opacity:1;stroke-dasharray:none" />
    <path
       inkscape:connector-curvature="0"
       id="path3995"
       d="m 751.48193,811.74433 c 4.95478,-0.0501 1.9653,-3.7794 9.52301,-0.0534 16.52982,8.14908 -5.85072,23.97767 -12.14442,17.7543 -2.12586,-2.10209 -17.96114,-7.83075 -9.61473,-16.27154 3.68422,-3.72589 6.01762,-2.94681 12.23614,-1.42923 z"
       style="fill:#241c1c;stroke:#ffffff;stroke-width:0.95231068px;stroke-linecap:butt;stroke-linejoin:miter;stroke-opacity:0" />
    <path
       inkscape:connector-curvature="0"
       id="path3997"
       d="m 720.1846,810.55977 c 5.92628,-0.69466 5.37197,-0.065 8.17017,1.31457 9.95475,4.90759 -5.56897,20.35776 -13.50483,17.76195 -22.35037,-7.31079 -15.4632,-18.95961 5.33466,-19.07652 z"
       style="fill:#241c1c;stroke:#ffffff;stroke-width:0.95231068px;stroke-linecap:butt;stroke-linejoin:miter;stroke-opacity:0" />
    <path
       inkscape:connector-curvature="0"
       id="path3999"
       d="m 679.38719,813.51006 c 11.47779,0.11216 -0.15616,-4.82531 9.52296,-0.0535 18.77371,9.25533 -1.5817,22.96164 -9.41588,19.09946 -5.2798,-2.60291 -10.54704,-5.01771 -13.65011,-8.08609 -0.68402,-0.67636 0.66111,-3.40486 -0.023,-4.08126 -7.05419,-6.97532 8.8635,-8.02615 13.56603,-6.87858 z"
       style="fill:#241c1c;stroke:#ffffff;stroke-width:0.95231068px;stroke-linecap:butt;stroke-linejoin:miter;stroke-opacity:0" />
    <path
       inkscape:connector-curvature="0"
       id="path4001"
       d="m 641.30301,815.08459 c 4.67734,0.25417 10.47712,-0.4629 13.61955,2.6444 8.14303,8.05197 -5.62842,21.64494 -13.50483,17.76195 -14.37224,-7.08542 -20.89525,-20.28953 -0.11455,-20.40635 z"
       style="fill:#241c1c;stroke:#ffffff;stroke-width:0.95231068px;stroke-linecap:butt;stroke-linejoin:miter;stroke-opacity:0" />
    <path
       inkscape:connector-curvature="0"
       id="path4003"
       d="m 573.29721,818.18782 c 18.61374,-0.99418 -15.18389,-1.27514 6.79447,-1.39869 6.09782,-0.0341 10.08751,16.03183 -1.23805,21.77441 -11.60332,5.88341 -24.61712,-10.6766 -16.43215,-18.95412 2.57067,-2.59977 7.33384,-0.51497 10.87573,-1.4216 z"
       style="fill:#241c1c;stroke:#ffffff;stroke-width:0.95231068px;stroke-linecap:butt;stroke-linejoin:miter;stroke-opacity:0" />
    <path
       inkscape:connector-curvature="0"
       id="path4005"
       d="m 607.29247,815.27578 c 6.53142,-0.44695 9.89947,0.68903 12.27441,5.37286 5.8905,11.61736 -13.49087,19.12551 -21.68265,15.08697 -10.81824,-5.33329 -12.06571,-24.62923 9.40824,-20.45983 z"
       style="fill:#241c1c;stroke:#ffffff;stroke-width:0.95231068px;stroke-linecap:butt;stroke-linejoin:miter;stroke-opacity:0" />
    <path
       style="fill:#0098dc;fill-opacity:1;stroke:#ffffff;stroke-width:1.1407305px;stroke-linecap:butt;stroke-linejoin:miter;stroke-opacity:0"
       d="m 689.96785,696.18554 c -0.12578,0.0313 -0.2564,0.0631 -0.36072,0.15459 -1.35494,1.18733 1.25919,2.96374 1.44287,3.40105 2.93105,6.97522 0.19734,21.60442 -0.20613,27.72367 -0.34341,5.20952 -24.95012,-2.64082 -26.02315,-1.70051 -1.51944,1.33148 -6.88858,-0.47629 -11.38834,-0.77297 -5.39452,-0.35565 -20.01336,-6.60598 -27.51755,-3.45256 -7.36111,3.09331 -21.44593,3.52839 -29.63034,2.98878 -12.11114,-0.79847 -24.49943,-0.89758 -36.94772,-1.13368 -0.70157,10.36548 -1.47808,20.98037 -2.3189,31.2278 22.04576,-1.66978 44.10977,-6.92266 67.04183,-5.41077 8.93232,0.58891 60.49065,3.32865 64.92906,5.92607 4.03807,2.36318 -4.55363,27.44484 -3.45257,27.51755 2.60026,0.17142 14.79194,-16.00123 15.82001,-16.90217 5.81058,-5.09177 25.69616,-17.69507 25.81703,-19.53024 0.0799,-1.21202 -2.34288,-0.9416 -3.14339,-1.85512 -4.75185,-5.42265 -9.94386,-14.84759 -14.99552,-20.61239 -1.34737,-1.53752 -15.16859,-28.54058 -19.06647,-27.5691 z"
       id="path4007"
       inkscape:connector-curvature="0" />
    <path
       inkscape:connector-curvature="0"
       id="path4009"
       d="m 906.01189,711.56172 c -3.87049,2.82443 2.93239,37.62048 3.03432,55.76202 0.082,14.57251 -3.2223,101.7659 -6.21322,104.79075 -1.76658,1.78657 -9.47375,-0.60052 -10.891,-1.29924 -4.08761,-2.01513 -14.11809,0.25098 -17.67786,1.45982 -5.95348,2.02174 -15.05272,-1.27585 -21.77441,-1.23806 -9.06648,0.051 -18.49235,2.82489 -28.55362,2.88145 -5.51672,0.031 -55.5181,1.41954 -57.12246,3.042 -0.82547,0.83477 -24.49179,-0.61263 -24.4876,0.13769 0.008,1.5833 -1.41919,-10.4509 -1.46747,-19.03827 -0.0483,-8.59656 1.43962,-40.21164 -1.62045,-46.24668 -1.28399,-2.53234 1.2305,-6.99067 -0.0535,-9.52298 -6.38385,-12.59028 -1.57528,-38.21944 -1.65865,-53.04882 -0.0565,-10.06403 -4.19682,-20.53288 -4.24949,-29.90635 -0.0186,-3.26644 1.87436,-3.03005 -0.0384,-6.80211 -0.86526,-1.70644 -1.27899,-19.22887 -0.11455,-20.40633 5.14848,-5.20671 20.8886,4.4158 27.2161,1.20748 6.24136,-3.16467 59.71769,-3.79754 66.6607,-0.37471 5.03839,2.48386 46.95806,-4.34536 54.39388,-4.38717 3.38756,-0.0189 23.7185,-0.89819 25.85572,1.21513 4.15006,4.10361 -0.39537,17.434 -1.2381,21.77441 z"
       style="fill:#ac9393;fill-opacity:1;stroke:#ffffff;stroke-width:0.95231068px;stroke-linecap:butt;stroke-linejoin:miter;stroke-opacity:0" />
    <path
       inkscape:connector-curvature="0"
       id="path4023"
       d="m 110.02751,680.04227 c -2.87162,-5.20734 -10.761071,11.52685 -7.51481,21.28593 1.91458,5.75572 5.27136,10.87977 7.18711,16.639 3.01171,9.05391 5.51737,22.84969 10.05302,29.39399 1.25561,1.81163 5.7654,-1.43357 6.22115,-1.99458 3.55169,-4.37214 18.3174,-38.61168 20.35329,-35.67418 3.40163,4.90808 6.33628,31.08392 10.85739,37.60721 1.46014,2.10679 5.25801,-2.22489 6.27772,-3.48015 4.24076,-5.22036 9.96148,-12.90176 11.92093,-19.63031 0.42631,-1.46386 2.34948,-2.22254 2.9307,-3.60768 3.98928,-9.50718 18.17433,-29.41461 12.07062,-38.22137 -6.35361,-9.16734 -21.85699,30.40978 -27.96493,30.17706 -3.46375,-0.13197 -7.86963,-25.46002 -10.61087,-29.41525 -1.04309,-1.50503 -3.59898,-2.84194 -4.85074,-4.64805 -2.25717,-3.25677 -12.14409,14.08407 -12.89508,15.87383 -0.57603,1.37277 -10.08672,19.1423 -11.80773,16.65915 -5.55253,-8.01153 -7.8832,-20.2515 -12.22777,-30.9646 z"
       style="fill:#00ff00;stroke:#ffffff;stroke-width:0.45092174px;stroke-linecap:butt;stroke-linejoin:miter;stroke-opacity:0" />
    <path
       inkscape:connector-curvature="0"
       id="path4025"
       d="m 200.08348,684.96128 c -1.70892,8.42293 -3.21459,59.9443 -0.17725,63.22226 1.0365,1.11861 3.37073,1.46986 5.11463,2.42648 1.61442,0.88559 6.07217,0.10611 6.71344,-0.48808 1.03761,-0.96145 4.36245,-1.17595 5.28445,-2.03026 1.43147,-1.32638 -3.93314,-33.43589 -3.72787,-38.82332 0.0451,-1.18283 -0.49845,-6.70382 0.28302,-7.42792 17.09372,-15.83895 22.56781,7.75153 32.79606,-1.72591 1.48202,-1.37323 7.84899,-9.31592 4.93788,-12.45766 -10.86146,-11.72192 -25.51139,-12.18971 -37.91071,-0.70057 -0.67654,0.62687 -8.09123,-11.51542 -13.31365,-1.99502 z"
       style="fill:#00ff00;stroke:#ffffff;stroke-width:0.52033198px;stroke-linecap:butt;stroke-linejoin:miter;stroke-opacity:0" />
    <path
       inkscape:connector-curvature="0"
       id="path4027"
       d="m 264.04852,685.16684 c -3.66443,6.78159 -3.60408,16.16426 -2.39124,23.71275 0.87194,5.42667 0.30399,11.54554 0.0919,17.11252 -0.16748,4.39582 -3.30299,21.18209 -0.19116,24.54045 1.06823,1.15286 4.92485,0.675 5.88573,1.712 1.53346,1.65493 6.38395,0.53379 8.22732,-1.17428 1.52202,-1.41028 0.97392,-6.03778 1.05411,-8.14241 0.30045,-7.88552 3.40231,-55.10169 0.008,-58.7655 -1.81073,-1.95419 -10.90525,0.63109 -12.68406,1.00447 z"
       style="fill:#00ff00;stroke:#ffffff;stroke-width:0.52033198px;stroke-linecap:butt;stroke-linejoin:miter;stroke-opacity:0" />
    <path
       inkscape:connector-curvature="0"
       id="path4029"
       d="m 272.41039,660.9377 c -10.14735,-0.87301 8.31456,-0.42707 -3.68565,-0.8843 -5.07402,-0.19333 -9.41418,9.24386 -4.90958,11.71486 8.31224,4.55971 20.49681,-10.37709 8.59523,-10.83056 z"
       style="fill:#00ff00;stroke:#ffffff;stroke-width:0.52033198px;stroke-linecap:butt;stroke-linejoin:miter;stroke-opacity:0" />
    <path
       inkscape:connector-curvature="0"
       id="path4031"
       d="m 305.08784,667.20582 c -2.33593,-0.003 -4.92422,0.43318 -6.161,0.69277 -1.77664,5.47497 -1.21888,11.25528 -0.69436,16.94543 -1.86238,0.4248 -3.7756,0.73484 -5.93168,0.65269 -0.086,-0.0508 -6.67825,-0.25249 -6.79146,2.71904 -0.0766,2.0101 -2.18117,6.15515 -0.31141,8.17303 1.6143,1.74219 4.84112,2.64732 7.28445,3.98762 0.79833,0.43792 3.11992,0.63541 6.25587,0.66143 0.12946,4.31018 0.23239,8.55814 -0.8184,12.93774 -1.45307,6.05624 -0.0475,13.28533 1.51843,18.65694 1.89527,6.50116 1.97242,13.73355 5.99902,18.07914 1.76519,1.90503 4.62424,0.64559 6.63746,1.74994 2.58967,1.42057 6.48082,0.97918 9.6238,1.09893 14.56267,0.55486 21.86971,-7.68506 22.42287,-22.20332 0.0445,-1.16613 0.2037,-6.7329 -0.46449,-7.45408 -6.88737,-7.43297 -18.12918,14.45414 -28.39344,3.37674 -2.5701,-2.77371 -3.49324,-6.11715 -3.26836,-12.01949 0.13404,-3.51769 0.42716,-8.88467 0.61142,-14.76811 11.62851,-0.83328 24.12517,-2.43138 25.3749,-3.58938 1.46514,-1.3576 10.36832,-4.27217 5.56729,-9.45355 -2.15472,-2.32542 -6.9406,-2.85287 -10.25794,-4.10089 -3.64511,-1.37135 -7.88455,-1.04894 -11.84925,-1.2 -3.12399,-0.11904 -5.97828,0.4895 -8.86693,0.81748 -0.35923,-6.8502 -1.27476,-12.54078 -3.2487,-14.67111 -0.75708,-0.81707 -2.42124,-1.08657 -4.23809,-1.08899 z"
       style="fill:#00ff00;stroke:#ffffff;stroke-width:0.52033198px;stroke-linecap:butt;stroke-linejoin:miter;stroke-opacity:0" />
    <path
       sodipodi:nodetypes="csssssssscssccssccsssccc"
       inkscape:connector-curvature="0"
       id="path4033"
       d="m 393.98728,676.16019 c -1.66388,-0.0317 -3.51222,0.15908 -4.78823,0.11046 -15.69362,-0.59796 -24.60047,5.55124 -34.13096,17.29865 -3.20879,3.9552 -5.75853,13.7948 -4.41168,18.41472 0.52631,1.80534 -0.7529,4.14164 -0.22659,5.94699 1.86179,6.3863 2.63886,13.25905 4.46344,19.51768 3.92703,13.47044 34.32814,24.53776 44.79153,15.09863 8.51911,-7.68519 11.94295,-9.44663 8.21805,-20.51527 -2.23609,-6.64459 -6.53014,-4.26792 -10.59702,4.79868 -1.8659,4.15978 -7.12112,7.27279 -19.9742,2.35159 -2.07316,-1.18562 -4.7011,-2.23873 -6.7549,-3.36535 -3.16054,-1.73373 -3.41187,-5.23851 -4.94447,-6.89253 -2.20448,-2.37912 -0.18065,-8.81332 0.1788,-13.66182 1.41022,-0.6997 3.06859,-1.08721 4.83915,-1.01975 11.2535,-1.05665 30.81135,5.12015 38.76465,-2.24934 9.41079,-8.71995 -2.66428,-31.63594 -12.77395,-35.43934 -0.71872,-0.27039 -1.65529,-0.37495 -2.65362,-0.394 z m -4.6368,12.79225 c 1.48188,0.042 2.8046,0.31095 3.80741,0.86104 0.91993,0.50463 3.76621,-0.57061 4.45212,0.16964 11.45136,12.35853 -8.62903,17.6357 -14.68587,14.31321 -3.48727,-1.91296 -7.85689,-2.47452 -11.81415,-1.93788 -0.71363,-2.07294 1.55682,-7.06081 2.53023,-8.08153 2.99139,-2.7718 10.41781,-5.47491 15.71026,-5.32448 z"
       style="fill:#00ff00;stroke:#ffffff;stroke-width:0.52033198px;stroke-linecap:butt;stroke-linejoin:miter;stroke-opacity:0" />
    <path
       style="fill:#00ff00;fill-opacity:1;stroke:#ffffff;stroke-width:1px;stroke-linecap:butt;stroke-linejoin:miter;stroke-opacity:0"
       d="m 447.92991,651.71197 c -9.19147,10.49786 -14.1122,25.38591 -17.34278,39.29666 -5.14145,22.1389 -6.72547,62.35051 10.32488,78.83779 5.49104,5.3097 6.74442,15.40407 15.11539,6.74722 0.45094,-0.46634 2.17531,-9.70006 1.83186,-10.03217 -1.69484,-1.63887 -4.39079,-6.48968 -6.16703,-9.89787 -0.79662,-1.52853 -9.65061,-40.88076 -6.73776,-43.89308 3.13309,-3.24009 1.53641,-11.48541 3.73085,-16.06489 4.23943,-8.84711 6.29237,-18.71389 13.56157,-26.23135 0.76437,-0.79047 4.10334,-9.80293 1.79828,-12.03188 -4.50188,-4.35322 -6.61985,-8.79587 -16.11526,-6.73043 z"
       id="path4048"
       inkscape:connector-curvature="0" />
    <path
       style="fill:#00ff00;fill-opacity:1;stroke:#ffffff;stroke-width:1px;stroke-linecap:butt;stroke-linejoin:miter;stroke-opacity:0"
       d="m 487.95785,653.04022 c -15.90252,-0.28956 -10.87569,12.99963 -2.51276,29.04627 1.21648,2.33417 0.8765,5.55241 2.13401,7.9653 2.18393,4.19049 -0.87777,11.86286 1.26845,15.98096 8.00795,15.36553 -4.45156,44.27513 -12.12527,52.2109 -1.26141,1.3045 -7.73804,7.4083 -5.8145,11.09917 1.8448,3.53978 5.39287,5.21478 7.11652,6.88151 3.92574,3.79609 19.16524,-12.05316 20.74524,-15.35041 12.55071,-26.19158 20.61205,-76.46405 0.3882,-96.02004 -4.6447,-4.49131 -1.52205,-10.04651 -11.19989,-11.81366 z"
       id="path4063"
       inkscape:connector-curvature="0" />
    <path
       style="fill:#00ff00;stroke:#ffffff;stroke-width:0.52033198px;stroke-linecap:butt;stroke-linejoin:miter;stroke-opacity:0"
       d="m 329.38956,836.75359 c -6.17921,0.20341 -12.46907,2.95822 -18.28125,8.34375 -0.67654,0.62687 -8.09008,-11.5204 -13.3125,-2 -1.70892,8.42293 -3.22484,59.94079 -0.1875,63.21875 1.0365,1.11861 3.3811,1.48088 5.125,2.4375 1.61442,0.88559 6.04623,0.0942 6.6875,-0.5 1.03761,-0.96145 4.3905,-1.17694 5.3125,-2.03125 1.43147,-1.32638 -3.95527,-33.42507 -3.75,-38.8125 0.0451,-1.18283 -0.50022,-6.7134 0.28125,-7.4375 10.4764,-9.70738 16.5771,-4.59904 22.09375,-1.375 0.48046,0.68016 1.023,1.35268 1.625,2.0625 1.16377,1.37221 1.29184,4.59785 2.375,5.875 1.92828,2.27362 -1.31772,30.2082 -0.59375,40.71875 0.24061,0.35055 0.41617,0.63492 0.46875,0.6875 0.70441,0.7044 9.36432,0.54193 9.90625,0 0.30364,-0.30364 2.39736,-1.28311 4.5625,-2.21875 2.66837,-10.03972 -0.18096,-39.0585 0.3125,-45.0625 0.0809,-0.98439 0.51001,-6.37623 -0.125,-7.125 -0.98822,-1.1652 -1.61448,-2.86927 -2.21875,-4.625 -0.003,-0.009 0.003,-0.0219 0,-0.0312 0.21069,-1.20789 0.0715,-2.30831 -0.65625,-3.09375 -0.30903,-0.33351 -0.62247,-0.65347 -0.9375,-0.96875 -0.29881,-0.594 -0.61224,-1.13655 -1,-1.59375 -0.38541,-0.45443 -1.07101,-0.74371 -1.875,-0.9375 -4.87396,-3.84609 -10.29126,-5.713 -15.8125,-5.53125 z"
       id="path4067"
       inkscape:connector-curvature="0" />
    <path
       style="fill:#00ff00;stroke:#ffffff;stroke-width:0.52033198px;stroke-linecap:butt;stroke-linejoin:miter;stroke-opacity:0"
       d="m 268.9507,833.59522 c -1.66388,-0.0317 -3.51222,0.15908 -4.78823,0.11046 -15.69362,-0.59796 -24.60047,5.55124 -34.13096,17.29865 -3.20879,3.9552 -5.75853,13.7948 -4.41168,18.41472 0.52631,1.80534 -0.7529,4.14164 -0.22659,5.94699 1.86179,6.3863 2.63886,13.25905 4.46344,19.51768 3.92703,13.47044 34.32814,24.53776 44.79153,15.09863 8.51911,-7.68519 11.94295,-9.44663 8.21805,-20.51527 -2.23609,-6.64459 -6.53014,-4.26792 -10.59702,4.79868 -1.8659,4.15978 -7.12112,7.27279 -19.9742,2.35159 -2.07316,-1.18562 -4.7011,-2.23873 -6.7549,-3.36535 -3.16054,-1.73373 -3.41187,-5.23851 -4.94447,-6.89253 -2.20448,-2.37912 -0.18065,-8.81332 0.1788,-13.66182 1.41022,-0.6997 3.06859,-1.08721 4.83915,-1.01975 11.2535,-1.05665 30.81135,5.12015 38.76465,-2.24934 9.41079,-8.71995 -2.66428,-31.63594 -12.77395,-35.43934 -0.71872,-0.27039 -1.65529,-0.37495 -2.65362,-0.394 z m -4.6368,12.79225 c 1.48188,0.042 2.8046,0.31095 3.80741,0.86104 0.91993,0.50463 3.76621,-0.57061 4.45212,0.16964 11.45136,12.35853 -8.62903,17.6357 -14.68587,14.31321 -3.48727,-1.91296 -7.85689,-2.47452 -11.81415,-1.93788 -0.71363,-2.07294 1.55682,-7.06081 2.53023,-8.08153 2.99139,-2.7718 10.41781,-5.47491 15.71026,-5.32448 z"
       id="path4075"
       inkscape:connector-curvature="0"
       sodipodi:nodetypes="csssssssscssccssccsssccc" />
    <path
       inkscape:connector-curvature="0"
       id="path4077"
       d="m 445.92991,795.71197 c -9.19147,10.49786 -14.1122,25.38591 -17.34278,39.29666 -5.14145,22.1389 -6.72547,62.35051 10.32488,78.83779 5.49104,5.3097 6.74442,15.40407 15.11539,6.74722 0.45094,-0.46634 2.17531,-9.70006 1.83186,-10.03217 -1.69484,-1.63887 -4.39079,-6.48968 -6.16703,-9.89787 -0.79662,-1.52853 -9.65061,-40.88076 -6.73776,-43.89308 3.13309,-3.24009 1.53641,-11.48541 3.73085,-16.06489 4.23943,-8.84711 6.29237,-18.71389 13.56157,-26.23135 0.76437,-0.79047 4.10334,-9.80293 1.79828,-12.03188 -4.50188,-4.35322 -6.61985,-8.79587 -16.11526,-6.73043 z"
       style="fill:#00ff00;fill-opacity:1;stroke:#ffffff;stroke-width:1px;stroke-linecap:butt;stroke-linejoin:miter;stroke-opacity:0" />
    <path
       inkscape:connector-curvature="0"
       id="path4079"
       d="m 485.95785,797.04022 c -15.90252,-0.28956 -10.87569,12.99963 -2.51276,29.04627 1.21648,2.33417 0.8765,5.55241 2.13401,7.9653 2.18393,4.19049 -0.87777,11.86286 1.26845,15.98096 8.00795,15.36553 -4.45156,44.27513 -12.12527,52.2109 -1.26141,1.3045 -7.73804,7.4083 -5.8145,11.09917 1.8448,3.53978 5.39287,5.21478 7.11652,6.88151 3.92574,3.79609 19.16524,-12.05316 20.74524,-15.35041 12.55071,-26.19158 20.61205,-76.46405 0.3882,-96.02004 -4.6447,-4.49131 -1.52205,-10.04651 -11.19989,-11.81366 z"
       style="fill:#00ff00;fill-opacity:1;stroke:#ffffff;stroke-width:1px;stroke-linecap:butt;stroke-linejoin:miter;stroke-opacity:0" />
    <path
       style="fill:#00ff00;fill-opacity:1;stroke:#ffffff;stroke-width:1px;stroke-linecap:butt;stroke-linejoin:miter;stroke-opacity:0"
       d="m 407.67081,804.59734 c -3.5329,-0.0267 -6.33812,5.50311 -6.8125,7.875 0.57677,8.33236 0.8632,16.62629 1,24.90625 -15.08124,-3.57542 -27.94943,0.0239 -38.46875,21.0625 -0.68204,1.36407 -0.005,3.57343 -0.6875,4.9375 -8.56971,17.13943 10.05903,57.20486 31.09375,46.6875 1.36408,-0.68203 3.60468,-0.0367 4.96875,-0.71875 1.35938,-0.67969 2.73558,-1.4109 4.09375,-2.1875 0.85474,2.77898 2.22556,5.03125 4.375,5.03125 6.15464,0 5.52552,-8.23854 7.78125,-12.75 0.65996,-1.31993 -0.65997,-3.61756 0,-4.9375 4.32296,-8.64593 0.71875,-49.18373 0.71875,-60.8125 0,-3.16943 0.25191,-11.02934 -1.4375,-12.71875 -1.73199,-1.73199 0.49698,-8.72177 -1.40625,-10.625 -0.88894,-0.88894 -1.29541,-3.38916 -2.125,-4.21875 -1.07274,-1.07274 -2.10454,-1.52376 -3.09375,-1.53125 z m -17.3125,46 c 1.69444,0.0375 3.34855,0.6923 4.84375,2.1875 1.06066,1.06066 3.90809,0.34559 4.96875,1.40625 0.13335,0.13336 0.86209,0.77868 1.78125,1.375 -0.0686,12.83597 -0.32764,25.69094 -0.375,38.65625 -3.93399,0.68515 -9.45261,3.09375 -11.3125,3.09375 -8.94864,0 -9.73822,-7.58197 -14.15625,-12 -0.85732,-0.85732 -0.68284,-3.5266 -1.40625,-4.25 -1.36286,-1.36286 0,-11.29587 0,-13.4375 0,-0.4315 -0.27551,-2.56823 0,-2.84375 1.5793,-1.57929 2.25358,-3.10093 3.53125,-5.65625 1.69822,-3.39646 7.04167,-8.64383 12.125,-8.53125 z"
       id="path4183"
       inkscape:connector-curvature="0" />
  </g>
</svg>
