<?xml version="1.0" encoding="UTF-8" standalone="no"?>
<!-- Created with Inkscape (http://www.inkscape.org/) -->
<svg
   xmlns:dc="http://purl.org/dc/elements/1.1/"
   xmlns:cc="http://creativecommons.org/ns#"
   xmlns:rdf="http://www.w3.org/1999/02/22-rdf-syntax-ns#"
   xmlns:svg="http://www.w3.org/2000/svg"
   xmlns="http://www.w3.org/2000/svg"
   xmlns:sodipodi="http://sodipodi.sourceforge.net/DTD/sodipodi-0.dtd"
   xmlns:inkscape="http://www.inkscape.org/namespaces/inkscape"
   width="744.09448819"
   height="1052.3622047"
   id="svg2635"
   sodipodi:version="0.32"
   inkscape:version="0.46"
   sodipodi:docname="browserify.svg"
   inkscape:output_extension="org.inkscape.output.svg.inkscape">
  <defs
     id="defs2637">
    <inkscape:perspective
       sodipodi:type="inkscape:persp3d"
       inkscape:vp_x="0 : 526.18109 : 1"
       inkscape:vp_y="0 : 1000 : 0"
       inkscape:vp_z="744.09448 : 526.18109 : 1"
       inkscape:persp3d-origin="372.04724 : 350.78739 : 1"
       id="perspective2643" />
  </defs>
  <sodipodi:namedview
     id="base"
     pagecolor="#ffffff"
     bordercolor="#666666"
     borderopacity="1.0"
     gridtolerance="10000"
     guidetolerance="10"
     objecttolerance="10"
     inkscape:pageopacity="0.0"
     inkscape:pageshadow="2"
     inkscape:zoom="1"
     inkscape:cx="427.16966"
     inkscape:cy="520.20961"
     inkscape:document-units="px"
     inkscape:current-layer="layer1"
     showgrid="false"
     inkscape:window-width="1438"
     inkscape:window-height="898"
     inkscape:window-x="0"
     inkscape:window-y="0" />
  <metadata
     id="metadata2640">
    <rdf:RDF>
      <cc:Work
         rdf:about="">
        <dc:format>image/svg+xml</dc:format>
        <dc:type
           rdf:resource="http://purl.org/dc/dcmitype/StillImage" />
      </cc:Work>
    </rdf:RDF>
  </metadata>
  <g
     inkscape:label="Layer 1"
     inkscape:groupmode="layer"
     id="layer1">
    <path
       style="opacity:1;fill:#fc00ff;fill-opacity:1;fill-rule:evenodd;stroke:#000000;stroke-width:1.07404934999999990;stroke-linecap:round;stroke-linejoin:round;marker:none;marker-start:none;marker-mid:none;marker-end:none;stroke-miterlimit:4;stroke-dasharray:none;stroke-dashoffset:0;stroke-opacity:1;visibility:visible;display:inline;overflow:visible;enable-background:accumulate"
       d="M 241.46875 258.125 C 240.22567 258.11591 239.0081 258.20004 237.875 258.34375 C 234.57189 258.76264 230.52169 261.15957 228.34375 262.5625 C 227.12407 263.34817 221.50498 268.23799 227.53125 266.3125 L 224.75 267.21875 C 223.1388 269.46979 224.97147 273.86998 225.625 277.59375 C 226.41153 282.07537 227.18714 286.537 227.9375 290.8125 C 228.48817 293.95012 229.50773 296.67323 230.03125 299.65625 C 230.51346 302.40378 231.35218 304.73694 232.25 306.90625 C 233.57106 310.09824 233.36833 309.82847 237.03125 308.3125 C 239.43387 307.31816 241.88734 307.22117 244.75 306.71875 C 248.40565 306.07716 250.97086 306.70814 254.15625 304.65625 C 257.27465 302.64753 258.62731 300.3927 260.65625 297.5 C 262.03574 295.53324 262.16886 291.38822 262.34375 288.9375 C 262.5717 285.74344 258.23276 284.11016 256.75 283.625 C 253.48382 282.55629 250.87249 283.6192 254.21875 280.71875 C 256.44331 278.79057 257.2485 276.42989 257.46875 273.34375 C 257.784 268.92654 254.4383 265.16398 251.75 262.0625 C 249.15607 259.06985 245.198 258.15226 241.46875 258.125 z M 236.625 269.65625 C 236.78903 269.64462 236.92447 269.67358 237.0625 269.71875 C 239.0254 270.36102 243.21669 273.52856 240.4375 275.9375 C 240.16635 276.17252 235.44239 279.08207 235.34375 278.84375 C 234.42322 276.61955 232.52436 271.86309 233.71875 271.09375 C 233.83601 271.03428 235.47682 269.73764 236.625 269.65625 z M 241.4375 286 C 241.55944 285.97707 241.9116 286.10181 242.9375 286.4375 C 245.04939 287.1285 247.8605 288.8042 246.9375 291.625 C 246.51163 292.92661 242.10339 297.76789 241.65625 296.6875 C 241.46691 296.23 238.61569 290.31406 239.375 290.5625 L 240.6875 287.375 C 241.66248 286.52991 241.23427 286.03821 241.4375 286 z "
       id="path2645" />
    <path
       style="opacity:1;fill:#fc00ff;fill-opacity:1;fill-rule:evenodd;stroke:#000000;stroke-width:1.07404934999999990;stroke-linecap:round;stroke-linejoin:round;marker:none;marker-start:none;marker-mid:none;marker-end:none;stroke-miterlimit:4;stroke-dasharray:none;stroke-dashoffset:0;stroke-opacity:1;visibility:visible;display:inline;overflow:visible;enable-background:accumulate"
       d="M 280.6875 252.25 C 278.59569 252.24526 276.81043 252.4454 274.71875 252.8125 C 272.23103 253.24911 270.28917 254.12802 268.03125 255.0625 C 266.18047 255.82849 265.16565 257.37398 263.9375 259.125 C 263.8184 259.08603 265.4581 268.623 266.59375 275.09375 C 267.3452 279.37546 268.7747 283.6798 269.5 287.8125 C 270.15483 291.54368 270.04435 293.09825 273 291.875 C 275.2575 290.94069 278.44164 290.40468 280.25 289.65625 C 282.11307 288.88519 280.03004 286.00708 279.03125 283.59375 C 277.90809 280.8799 277.12246 278.67237 276.8125 276.90625 C 276.33435 274.18179 282.30681 276.3219 285.03125 275.84375 C 286.59958 275.56851 287.53688 279.9932 288.40625 282.09375 C 289.59344 284.9623 291.07735 285.07761 293.65625 284.625 C 296.36022 284.15045 298.09614 283.84675 300.25 283.46875 C 303.86928 282.83355 299.92182 280.14995 298.4375 278.4375 C 296.29494 275.96564 295.51401 273.31583 294.0625 271.0625 C 292.66048 268.88596 297.62819 266.83246 297.8125 264.25 C 298.054 260.86592 296.39838 258.42923 294.03125 256.375 C 290.95986 253.7096 286.88848 252.59669 282.90625 252.3125 C 282.12231 252.25655 281.38477 252.25158 280.6875 252.25 z M 279.40625 260.875 C 280.89399 260.81331 282.23019 261.23101 282.78125 262.5625 C 283.82575 265.08627 283.69077 265.3365 281.375 267.34375 C 280.89556 267.75932 275.82481 270.82315 275.71875 270.21875 C 275.33396 268.02625 274.00315 262.53434 275.21875 262.03125 C 276.29212 261.48713 277.91851 260.93669 279.40625 260.875 z "
       id="path2651" />
    <path
       style="opacity:1;fill:#fc00ff;fill-opacity:1;fill-rule:evenodd;stroke:#000000;stroke-width:1.07404934999999990;stroke-linecap:round;stroke-linejoin:round;marker:none;marker-start:none;marker-mid:none;marker-end:none;stroke-miterlimit:4;stroke-dasharray:none;stroke-dashoffset:0;stroke-opacity:1;visibility:visible;display:inline;overflow:visible;enable-background:accumulate"
       d="M 315.71875 249.15625 C 313.44378 249.20867 310.85939 251.44033 308.375 253.59375 C 305.68566 255.92478 304.15813 259.53289 303.90625 263.0625 C 303.55195 268.02705 302.85975 270.03946 304.71875 274.53125 C 306.36459 278.50797 309.60005 281.17092 313.40625 282.21875 C 317.35659 283.30627 321.32815 282.29528 324.40625 280.3125 C 327.49457 278.32312 329.80901 276.50964 330.90625 273.15625 C 332.16735 269.30211 330.89328 264.23375 329.59375 261.09375 C 328.34391 258.07383 326.63897 255.92457 325.1875 254.25 C 323.40854 252.19755 321.15387 250.84016 317.875 249.9375 C 317.20419 249.39087 316.47707 249.13878 315.71875 249.15625 z M 314.34375 258.34375 C 314.71399 258.28761 315.13091 258.46602 315.59375 259 C 317.94325 261.71063 319.17507 262.45215 318.9375 265.78125 C 318.80216 267.67763 318.09733 271.16083 315.84375 271 C 314.06773 270.87325 312.34747 270.10148 311.78125 266.875 C 311.66497 266.21251 312.34447 258.6469 314.34375 258.34375 z "
       id="path2657" />
    <path
       style="opacity:1;fill:#fc00ff;fill-opacity:1;fill-rule:evenodd;stroke:#000000;stroke-width:1.07404934999999990;stroke-linecap:round;stroke-linejoin:round;marker:none;marker-start:none;marker-mid:none;marker-end:none;stroke-miterlimit:4;stroke-dasharray:none;stroke-dashoffset:0;stroke-opacity:1;visibility:visible;display:inline;overflow:visible;enable-background:accumulate"
       d="M 335.97192,247.95012 C 336.2551,243.98204 334.43468,255.93606 335.12236,259.85432 C 336.08212,265.32296 336.90784,270.7889 337.79019,275.81656 C 338.3521,279.01826 340.73405,276.57051 343.70368,276.78243 C 347.41212,277.04709 346.68368,271.90577 347.49091,269.43873 C 348.75553,265.57384 348.65684,269.08386 350.00334,272.33732 C 351.05273,274.87291 353.39557,277.00244 354.44847,278.63696 C 355.85051,280.81352 359.55725,277.36999 362.13973,277.55429 C 363.01854,277.61702 364.01182,266.56336 364.1101,265.18621 C 364.46425,260.22366 365.37219,255.12196 365.73244,250.07401 C 365.90294,247.68498 362.03009,247.06293 360.01204,246.40261 C 356.13874,245.13526 355.72403,245.5219 355.45153,249.3403 C 355.18215,253.11495 355.15078,256.76018 355.76142,260.23954 C 356.59048,264.9635 353.1299,256.40189 352.90096,254.59683 C 352.38253,250.50899 351.39561,248.50698 347.37364,248.21995 C 345.49532,248.0859 345.46634,252.08355 345.32557,254.05621 C 345.01049,258.4712 343.91215,258.61987 344.24335,253.97898 C 344.43914,251.2356 343.72402,247.64889 343.16068,246.28772 C 342.97222,245.83236 336.2157,244.42869 340.91906,247.21546"
       id="path2661" />
    <path
       style="opacity:1;fill:#fc00ff;fill-opacity:1;fill-rule:evenodd;stroke:#000000;stroke-width:1.07404934999999990;stroke-linecap:round;stroke-linejoin:round;marker:none;marker-start:none;marker-mid:none;marker-end:none;stroke-miterlimit:4;stroke-dasharray:none;stroke-dashoffset:0;stroke-opacity:1;visibility:visible;display:inline;overflow:visible;enable-background:accumulate"
       d="M 384.40018,247.59925 C 383.71006,245.93175 375.93172,246.74293 374.66037,246.90416 C 371.157,247.34847 371.52971,250.12464 372.61231,252.74041 C 374.05814,256.2339 376.3475,259.14008 378.44903,262.40252 C 380.54318,265.65353 381.11407,267.69304 381.65749,270.78934 C 382.15019,273.59678 375.66822,273.08121 373.88899,272.95423 C 370.51651,272.71355 369.10265,270.03824 369.94683,274.84831 C 370.61894,278.6779 369.67179,278.77291 373.387,279.98852 C 376.59494,281.03818 380.17544,281.01685 383.62929,281.26333 C 387.12423,281.51275 389.25189,279.94319 391.47499,278.01626 C 393.57731,276.19403 393.47792,272.81289 393.67756,270.0156 C 393.90537,266.82339 391.13572,263.56916 389.3869,261.55155 C 387.2953,259.13848 384.40856,256.39369 383.82094,255.71576 C 382.12519,253.75937 390.90265,255.55363 391.08695,252.97117 C 391.303,249.94381 389.68813,247.43278 387.1443,247.25123 C 386.22461,247.1856 385.31489,247.48324 384.40018,247.59925 z"
       id="path2663" />
    <path
       style="opacity:1;fill:#fc00ff;fill-opacity:1;fill-rule:evenodd;stroke:#000000;stroke-width:1.07404934999999990;stroke-linecap:round;stroke-linejoin:round;marker:none;marker-start:none;marker-mid:none;marker-end:none;stroke-miterlimit:4;stroke-dasharray:none;stroke-dashoffset:0;stroke-opacity:1;visibility:visible;display:inline;overflow:visible;enable-background:accumulate"
       d="M 403.26149,250.03302 C 400.16453,249.812 398.69966,268.23045 398.54746,270.36315 C 398.26428,274.33122 397.98109,278.2993 397.69791,282.26737 C 397.66231,282.76618 406.87849,282.37868 408.01744,282.45996 C 411.67526,282.72101 414.83605,283.49044 418.25974,283.73477 C 420.94108,283.92613 417.12283,278.45012 416.09485,275.96629 C 415.31488,274.08166 412.94691,273.13662 410.37444,272.29491 C 406.86847,271.14773 406.10544,271.14799 406.39317,267.11607 C 406.65404,263.46066 408.30767,263.72791 411.45616,264.75811 C 415.24763,265.9987 414.82211,263.31755 415.08894,259.5788 C 415.32041,256.3354 412.03074,256.7785 409.36851,255.90742 C 406.87325,255.09095 413.21626,252.91887 414.47012,253.00837 C 417.65478,253.23564 418.69779,254.7346 418.95339,251.15288 C 419.28854,246.4568 421.35142,245.43112 416.7499,243.92549 C 413.84766,242.97587 410.39632,243.09249 407.62842,242.18682 C 404.35417,241.11547 402.76332,242.24769 402.02434,244.50616 C 400.63895,248.74018 400.3683,249.82655 403.26149,250.03302 z"
       id="path2665" />
    <path
       style="opacity:1;fill:#fc00ff;fill-opacity:1;fill-rule:evenodd;stroke:#000000;stroke-width:1.07404934999999990;stroke-linecap:round;stroke-linejoin:round;marker:none;marker-start:none;marker-mid:none;marker-end:none;stroke-miterlimit:4;stroke-dasharray:none;stroke-dashoffset:0;stroke-opacity:1;visibility:visible;display:inline;overflow:visible;enable-background:accumulate"
       d="M 430 248.6875 C 428.53907 248.76516 428.084 248.81318 427.625 248.84375 L 430.5625 248.71875 C 430.38213 248.70587 430.18056 248.67791 430 248.6875 z M 426.875 248.875 L 425.625 248.90625 C 424.45214 252.49074 425.28789 261.46489 424.90625 266.8125 C 424.5703 271.51978 425.26837 277.21566 426.03125 281.5625 C 426.64246 285.04516 428.29899 283.3698 431.875 283.625 C 436.11166 283.92735 436.19345 283.09788 435.46875 278.96875 C 434.88937 275.66745 433.874 272.58308 432.84375 270.09375 C 432.54249 269.3659 439.89944 270.58217 440.9375 270.65625 C 443.55906 270.84334 442.70326 276.92178 443.0625 278.96875 C 443.66874 282.4231 442.28536 283.28852 446.5625 283.59375 C 450.11466 283.84727 453.23316 283.97263 455.28125 283.125 C 455.56307 283.00838 451.14815 272.8766 450.65625 271.90625 C 450.12285 270.85401 454.08409 269.93981 455.78125 268.46875 C 458.41804 266.18325 458.49172 261.98181 458.09375 258.84375 C 457.56505 254.67495 452.02959 252.15719 448.875 251.125 C 444.15364 249.58017 439.38488 249.35976 434.34375 249 C 431.38535 248.78887 426.08707 248.95337 426.875 248.875 z M 432.0625 256.4375 C 436.21295 256.77121 433.17801 257.06863 434.84375 257.1875 C 436.67398 257.3181 440.20831 258.23818 440.0625 260.28125 C 439.96267 261.68001 437.1102 265.3081 434.375 263.6875 C 432.28682 262.45022 433.97373 256.99749 432.0625 256.4375 z "
       id="path2667" />
    <path
       style="opacity:1;fill:#fc00ff;fill-opacity:1;fill-rule:evenodd;stroke:#000000;stroke-width:1.07404934999999990;stroke-linecap:round;stroke-linejoin:round;marker:none;marker-start:none;marker-mid:none;marker-end:none;stroke-miterlimit:4;stroke-dasharray:none;stroke-dashoffset:0;stroke-opacity:1;visibility:visible;display:inline;overflow:visible;enable-background:accumulate"
       d="M 470.97676,261.39186 C 470.75941,261.37634 468.13062,273.3337 467.88559,274.22381 C 466.53195,279.14084 465.08095,283.04024 464.71715,288.13797 C 464.54812,290.50657 469.41022,290.64258 471.55838,291.34548 C 475.94931,292.78222 476.3673,294.39001 475.50056,289.45139 C 474.76756,285.27487 475.89816,277.65917 477.16151,273.79808 C 478.02198,271.16835 478.64572,267.79345 478.28186,265.72019 C 477.84761,263.2458 480.19256,261.5057 475.88528,261.1983 C 474.03311,261.06612 472.98563,261.1371 470.97676,261.39186 z"
       id="path2671" />
    <path
       style="opacity:1;fill:#fc00ff;fill-opacity:1;fill-rule:evenodd;stroke:#000000;stroke-width:1.07404934999999990;stroke-linecap:round;stroke-linejoin:round;marker:none;marker-start:none;marker-mid:none;marker-end:none;stroke-miterlimit:4;stroke-dasharray:none;stroke-dashoffset:0;stroke-opacity:1;visibility:visible;display:inline;overflow:visible;enable-background:accumulate"
       d="M 495.21045,264.75289 C 492.26937,266.7221 490.42051,273.47084 488.29293,277.85564 C 487.86786,278.73172 487.44276,279.60781 487.01765,280.4839 C 485.22873,284.17077 484.07891,289.04218 482.88288,292.69753 C 481.7346,296.20691 483.12275,297.0655 486.90276,297.33526 C 490.81878,297.61473 490.19931,296.86698 490.53552,292.15595 C 490.80716,288.34973 491.01173,285.66365 493.70441,285.85582 C 497.31449,286.11346 503.98529,289.97339 506.8844,291.69112 C 509.41478,293.19041 509.01485,284.70059 509.12556,283.14937 C 509.36175,279.83977 507.01955,279.92761 504.56457,278.47303 C 501.87905,276.88183 498.44847,277.16397 495.48172,276.19324 C 494.91342,276.0073 497.86461,271.46858 500.15806,271.63225 C 504.1136,271.91455 507.64534,274.04292 510.70976,276.19228 C 514.19498,278.63682 513.25216,271.05034 513.45342,268.23025 C 513.70175,264.75046 508.43512,264.06511 504.525,263.78607 C 498.52612,263.35795 494.07758,261.20729 495.21045,264.75289 z"
       id="path2677" />
    <path
       style="opacity:1;fill:#fc00ff;fill-opacity:1;fill-rule:evenodd;stroke:#000000;stroke-width:1.07404934999999990;stroke-linecap:round;stroke-linejoin:round;marker:none;marker-start:none;marker-mid:none;marker-end:none;stroke-miterlimit:4;stroke-dasharray:none;stroke-dashoffset:0;stroke-opacity:1;visibility:visible;display:inline;overflow:visible;enable-background:accumulate"
       d="M 519.86938,269.77585 C 519.67278,269.76181 522.62269,277.09154 523.77389,283.65091 C 524.17057,285.91119 521.53268,289.33718 519.90943,292.07681 C 518.17878,294.99768 516.88169,297.94552 516.04495,300.50272 C 515.79561,301.26477 522.12279,303.38974 523.42729,303.74887 C 526.98877,304.72933 527.01012,301.44155 529.37892,296.5596 C 531.28953,292.622 531.22953,288.35356 534.90531,287.70845 C 538.34596,287.10459 540.80028,287.30545 544.25848,286.20053 C 548.20031,284.94105 551.9346,283.14887 553.88197,280.9049 C 554.54108,280.14537 549.96808,277.68618 548.70266,277.27212 C 544.78415,275.98998 546.06133,273.63921 541.20448,275.6493 C 537.6957,277.10147 534.95968,279.0215 532.74042,279.93996 C 532.35714,280.09858 530.93177,274.20114 530.57555,272.17146 C 530.18611,269.95245 528.33079,266.1132 528.29482,266.02628 C 527.26721,263.54334 520.16634,269.35245 519.86938,269.77585 z"
       id="path2679" />
    <path
       style="opacity:1;fill:#fc00ff;fill-opacity:1;fill-rule:evenodd;stroke:#000000;stroke-width:1.07404934999999990;stroke-linecap:round;stroke-linejoin:round;marker:none;marker-start:none;marker-mid:none;marker-end:none;stroke-miterlimit:4;stroke-dasharray:none;stroke-dashoffset:0;stroke-opacity:1;visibility:visible;display:inline;overflow:visible;enable-background:accumulate"
       d="M 559.13993,306.29753 C 557.16398,301.52312 553.30673,309.47949 552.87888,310.20155 C 551.57357,312.40461 555.44899,314.19196 557.47848,314.3368 C 560.30587,314.53859 562.41644,313.73065 562.65732,310.35555 C 562.83457,307.87176 561.39285,307.39069 559.13993,306.29753 z"
       id="path2681" />
    <path
       style="opacity:1;fill:#fc00ff;fill-opacity:1;fill-rule:evenodd;stroke:#000000;stroke-width:1.07404934999999990;stroke-linecap:round;stroke-linejoin:round;marker:none;marker-start:none;marker-mid:none;marker-end:none;stroke-miterlimit:4;stroke-dasharray:none;stroke-dashoffset:0;stroke-opacity:1;visibility:visible;display:inline;overflow:visible;enable-background:accumulate"
       d="M 558.48204,292.65417 C 558.81588,287.97634 561.41164,282.23206 563.31238,278.31476 C 565.38158,274.05029 565.73772,271.64387 567.13822,270.42995 C 567.2632,270.32161 573.7099,274.10299 573.94084,274.17856 C 577.42073,275.31719 571.28584,281.03914 569.41943,284.18916 C 567.45503,287.50454 565.8063,291.84692 564.85939,294.74086 C 563.84939,297.82762 562.56985,296.76817 560.45335,295.51412 C 559.45723,294.92393 559.10905,293.62755 558.48204,292.65417 z"
       id="path2683" />
    <path
       style="opacity:1;fill:#a89ba8;fill-opacity:1;fill-rule:evenodd;stroke:#000000;stroke-width:2;stroke-linecap:round;stroke-linejoin:round;marker:none;marker-start:none;marker-mid:none;marker-end:none;stroke-miterlimit:4;stroke-dasharray:none;stroke-dashoffset:0;stroke-opacity:1;visibility:visible;display:inline;overflow:visible;enable-background:accumulate"
       d="M 476.792,581.63109 C 476.792,576.39103 477.80215,571.98571 477.80215,566.47881 C 477.80215,557.72171 475.87583,549.68212 473.76154,541.22499 C 471.42888,531.89435 466.03565,521.73259 461.63971,512.94072 C 457.79892,505.25913 455.0276,497.6962 451.53819,490.71736 C 448.39517,484.43134 444.78747,478.91589 439.41636,473.54477 C 433.54632,467.67474 428.11735,462.24576 422.24376,456.37218 C 418.16964,452.29806 416.09467,448.11459 414.16254,444.25035 C 412.01571,439.95668 407.26697,436.34463 404.06102,433.13867 C 401.25693,430.33458 395.82506,428.30176 390.92904,427.07775 C 385.78448,425.79161 381.54516,426.0676 375.77675,426.0676 C 370.23743,426.0676 366.97045,423.32222 364.66507,421.01684 C 364.42697,420.77874 363.99163,421.01684 363.65492,421.01684 C 353.9857,421.01684 364.19687,427.46364 358.60415,420.00669 C 353.59785,417.50354 345.66479,428.1678 343.45187,431.11836 C 339.18563,436.80668 334.39553,441.84661 330.31988,447.28081 C 326.80665,451.96512 323.431,456.18999 320.21836,459.40264 C 318.17407,461.44692 317.10308,466.81296 316.17775,470.51431 C 315.24941,474.22767 312.30252,478.94414 311.12698,483.6463 C 309.70187,489.34677 307.44328,494.3405 306.07622,499.80874 C 304.68512,505.37313 303.34918,510.7169 302.03561,515.97118 C 300.75019,521.11285 300.27888,526.02855 299.00515,531.12347 C 297.89719,535.55533 296.98485,537.78369 296.98485,543.2453 C 296.98485,547.87969 295.9747,553.38292 295.9747,558.39759 C 295.9747,562.79855 293.95439,566.0364 293.95439,571.52957 C 293.95439,576.93614 295.12771,580.26347 295.9747,583.6514 C 297.45305,589.56483 299.32625,590.81388 303.04576,595.77323 C 303.03051,597.30288 303.01525,598.83253 303,600.36218 C 302.93582,606.79835 304,611.90974 304,618.36218 C 304,622.94999 303,628.39792 303,633.36218 C 303,636.95453 300.32615,642.70989 299,645.36218 C 297.40739,648.54741 296.63054,653.10111 295,656.36218 C 293.12629,660.1096 293.00452,664.38027 294,668.36218 C 294.06065,668.60477 290.53937,676.20471 290,678.36218 C 288.46039,684.52064 292.1896,681.76738 297,679.36218 C 301.27829,677.22304 305.43691,675.25295 309,674.36218 C 313.51533,673.23335 318.5196,673.48228 323,672.36218 C 328.05909,671.09741 333.71742,673.54154 337,674.36218 C 342.44113,675.72247 348.02195,676.87316 353,679.36218 C 357.67465,681.69951 363.29711,682.01074 368,684.36218 C 374.67571,687.70004 387.43682,687.36218 395,687.36218 C 403.01879,687.36218 409.95232,684.1241 417,682.36218 C 422.18347,681.06632 429.78032,677.45005 435,675.36218 C 441.89001,672.60618 450.98379,674.16867 458,671.36218 C 464.09582,668.92385 467.55819,668.12942 469,662.36218 C 470.02078,658.27905 469,652.59113 469,648.36218 C 469,642.51382 468,638.00582 468,632.36218 C 468,627.16779 467.84461,621.98376 469,617.36218 C 470.22575,612.45918 470,608.46325 470,603.36218 C 470,599.26055 471.95233,594.55285 473,590.36218 C 473.13938,589.80465 476.31682,582.88561 476.792,581.63109 z"
       id="path2685"
       sodipodi:nodetypes="csssssssssssscssssssssssssc" />
    <path
       style="opacity:1;fill:#a89ba8;fill-opacity:1;fill-rule:evenodd;stroke:#000000;stroke-width:2;stroke-linecap:round;stroke-linejoin:round;marker:none;marker-start:none;marker-mid:none;marker-end:none;stroke-miterlimit:4;stroke-dasharray:none;stroke-dashoffset:0;stroke-opacity:1;visibility:visible;display:inline;overflow:visible;enable-background:accumulate"
       d="M 313.14729,469.50416 C 307.38534,469.50416 297.34482,482.27618 293.95439,485.6666 C 286.00925,493.61174 280.3473,503.3143 272.74119,510.92042 C 265.76015,517.90145 261.59453,530.15996 255.56859,538.19453 C 249.98527,545.63896 246.30222,546.97575 244.45692,554.35697 C 243.21243,559.33493 244.14122,562.18554 245.46707,567.48896 C 246.84034,572.98205 255.53132,577.57185 259.6092,579.61079 C 266.56441,583.08839 274.18998,585.6717 282.84271,585.6717 C 290.61889,585.6717 298.74734,589.71231 307.08637,589.71231 C 316.76875,589.71231 328.50767,586.19456 337.39095,582.64125 C 345.84486,579.25968 353.05242,575.061 359.61431,568.49911 C 363.41229,564.70113 366.13017,562.84175 368.70568,559.40774 C 371.0388,556.2969 370.72598,548.43704 370.72598,544.25545 C 370.72598,538.06356 368.05697,533.57939 366.68537,528.09301 C 365.1769,522.05913 362.51986,520.89703 359.61431,517.99148 C 356.08515,514.46232 347.45846,515.97968 343.45187,516.98133 C 337.45533,518.48047 332.09193,520.83147 327.28942,522.03209 C 322.95932,523.11462 318.50849,523.87747 315.16759,523.04225 C 312.18541,522.2967 310.11683,517.91863 310.11683,513.95087 C 310.11683,510.5837 310.11683,507.21652 310.11683,503.84935 C 310.11683,501.15561 316.29329,505.75411 318.19805,503.84935"
       id="path2687"
       sodipodi:nodetypes="cssssssssssssssssssss" />
    <path
       style="opacity:1;fill:#a89ba8;fill-opacity:1;fill-rule:evenodd;stroke:#000000;stroke-width:2;stroke-linecap:round;stroke-linejoin:round;marker:none;marker-start:none;marker-mid:none;marker-end:none;stroke-miterlimit:4;stroke-dasharray:none;stroke-dashoffset:0;stroke-opacity:1;visibility:visible;display:inline;overflow:visible;enable-background:accumulate"
       d="M 405.07117,444.25035 C 410.96406,451.54763 419.23023,454.11203 426.28437,459.40264 C 435.11025,466.02205 444.10457,471.91303 453.55849,477.58538 C 462.43493,482.91124 469.89588,487.92017 475.78185,495.76813 C 478.97375,500.024 483.44779,501.47269 488.91383,502.8392 C 493.69225,504.0338 497.02642,505.86965 503.05597,505.86965 C 513.15749,505.86965 523.25902,505.86965 533.36054,505.86965 C 542.19502,505.86965 552.49323,504.84445 560.63466,506.87981 C 566.54364,508.35705 566.63981,509.85449 569.72604,512.94072 C 572.81761,516.03229 571.57558,525.74559 570.73619,529.10316 C 569.33433,534.71059 570.73619,542.44134 570.73619,548.29606 C 570.73619,555.18206 566.58542,554.35697 558.61436,554.35697 C 542.56003,554.35697 526.36248,556.37728 510.12704,556.37728 C 498.22302,556.37728 486.79078,557.38743 474.7717,557.38743 C 468.99749,557.38743 466.23725,558.6242 462.64987,560.41789 C 458.28517,562.60024 452.06977,558.66338 449.51788,557.38743 C 445.47263,555.3648 441.23067,545.05961 437.39605,541.22499 C 433.33262,537.16156 428.72015,527.91381 426.28437,523.04225 C 423.49486,517.46323 425.7871,527.11407 426.28437,529.10316"
       id="path2695" />
    <path
       style="opacity:1;fill:#e6d09e;fill-opacity:1;fill-rule:evenodd;stroke:#000000;stroke-width:2;stroke-linecap:round;stroke-linejoin:round;marker:none;marker-start:none;marker-mid:none;marker-end:none;stroke-miterlimit:4;stroke-dasharray:none;stroke-dashoffset:0;stroke-opacity:1;visibility:visible;display:inline;overflow:visible;enable-background:accumulate"
       d="M 557.60421,519.00164 C 557.07942,517.95207 580.49099,515.97118 584.87832,515.97118 C 593.9697,515.97118 603.06107,515.97118 612.15244,515.97118 C 618.01288,515.97118 622.04478,517.7823 625.28443,521.02194 C 628.99424,524.73175 632.14733,527.26035 633.36565,532.13362 C 634.5794,536.98863 637.0475,537.76967 638.41641,543.2453 C 639.69011,548.3401 637.40626,551.71902 637.40626,556.37728 C 637.40626,563.45019 636.05816,562.4382 629.32504,562.4382 C 624.40619,562.4382 619.75823,561.56172 615.1829,560.41789 C 610.02557,559.12856 607.1304,557.40179 603.06107,555.36713 C 600.84051,554.25685 597.54022,547.82597 595.99,546.27575 C 593.30998,543.59573 588.6208,544.32998 584.87832,545.2656 C 577.62546,547.07882 580.79514,549.26364 584.87832,553.34682 C 590.28631,558.75481 593.60594,561.42804 584.87832,561.42804 C 579.24815,561.42804 575.22244,557.72167 570.73619,554.35697 C 565.86511,550.70367 561.39123,547.95795 558.61436,544.25545 C 555.53601,540.15098 554.17319,539.62276 552.55344,533.14377 C 551.25926,527.96705 553.60258,527.23882 552.55344,523.04225"
       id="path2697" />
    <path
       style="opacity:1;fill:#ffec40;fill-opacity:1;fill-rule:evenodd;stroke:#000000;stroke-width:2;stroke-linecap:round;stroke-linejoin:round;marker:none;marker-start:none;marker-mid:none;marker-end:none;stroke-miterlimit:4;stroke-dasharray:none;stroke-dashoffset:0;stroke-opacity:1;visibility:visible;display:inline;overflow:visible;enable-background:accumulate"
       d="M 334.36049,442.23005 C 329.65273,439.57306 324.58529,442.06688 320.21836,444.25035 C 314.5272,447.09593 311.26465,450.77075 310.11683,455.36203 C 308.68077,461.10625 307.27519,463.82089 310.11683,469.50416 C 311.80628,472.88306 317.26573,475.64291 319.2082,477.58538 C 322.24151,480.61869 325.74052,483.99985 329.30973,486.67676 C 333.76501,490.01822 336.90334,492.99894 342.44171,495.76813 C 346.91937,498.00696 349.23626,500.17555 352.54324,501.82905 C 356.33024,503.72255 360.08379,505.09425 363.65492,506.87981 C 367.29438,508.69954 373.45256,507.88996 377.79705,507.88996 C 383.66907,507.88996 386.20839,511.25054 390.92904,515.97118 C 395.32144,520.36358 396.58601,524.25468 399.01026,529.10316 C 401.05526,533.19318 400.92542,539.79428 402.04071,544.25545 C 403.8969,551.6802 402.23875,560.19989 404.06102,567.48896 C 406.00273,575.25582 402.72261,582.94412 401.03056,589.71232 C 399.13778,597.28344 392.30656,603.48708 386.88842,608.90522 C 385.87827,609.91537 384.86812,610.92552 383.85797,611.93567 C 380.01263,615.78101 376.54063,621.51959 374.76659,625.06766 C 373.12611,628.34863 370.76596,630.03847 368.70568,634.15903 C 366.44551,638.67937 362.00661,643.76456 358.60415,648.30116 C 355.35985,652.6269 353.76208,655.54761 352.54324,660.423 C 351.25308,665.58363 354.48356,670.2046 355.5737,674.56513 C 357.05111,680.47479 361.06385,687.56575 363.65492,692.74788 C 365.35859,696.15522 368.3288,699.12543 371.73614,700.8291 C 375.75424,702.83815 371.59001,690.8737 374.76659,687.69711 C 378.56554,683.89817 382.01344,685.12779 387.89858,683.6565 C 392.77789,682.43667 394.87487,682.37012 400.02041,683.6565 C 404.94472,684.88758 408.44218,678.35033 412.14224,675.57528 C 417.08951,671.86483 415.53387,660.78417 422.24376,667.49406 C 426.98927,672.23957 428.15863,673.55498 435.37575,673.55498 C 441.36442,673.55498 435.49145,663.56916 435.37575,663.45345 C 431.80919,659.88689 428.6365,658.05617 426.28437,653.35193 C 424.38363,649.55043 422.24376,645.65461 422.24376,640.21994 C 422.24376,635.30335 424.87375,631.92951 427.29453,627.08796 C 429.7178,622.24142 434.22318,618.35593 437.39605,615.97628 C 442.08182,612.46196 444.96819,609.4143 447.49758,606.88491 C 450.35365,604.02884 452.25922,599.38194 454.56865,594.76308 C 456.82886,590.24266 456.55192,583.83657 457.5991,578.60064 C 458.5226,573.98315 457.5991,568.17481 457.5991,563.44835 C 457.5991,558.20122 457.75607,552.96456 456.58895,548.29606 C 455.12636,542.4457 454.26791,539.81386 451.53819,536.17423 C 448.38583,531.97109 445.45857,527.06415 442.44681,524.0524 C 442.20872,523.81431 441.77338,524.0524 441.43666,524.0524 C 436.62108,524.0524 442.43425,513.29419 443.45697,511.93057 C 447.35805,506.72913 449.79976,504.57762 453.55849,500.81889 C 457.08051,497.29688 458.60926,492.29388 458.60926,486.67676 C 458.60926,481.42343 454.68274,475.79326 452.54834,471.52447 C 450.334,467.09578 446.25969,461.97763 444.46712,458.39249 C 441.89564,453.24953 439.83529,452.7505 436.3859,449.30111 C 430.9832,443.89841 428.37267,447.75189 423.25392,450.31127 C 418.74349,452.56648 415.21714,458.34805 412.14224,461.42294 C 407.98434,465.58084 403.17918,467.19924 398.0001,468.49401 C 393.0732,469.72574 387.37963,469.50416 381.83766,469.50416 C 377.69192,469.50416 372.13445,467.58344 367.69553,466.47371 C 363.33817,465.38437 359.73869,463.56763 356.58385,460.41279 C 352.57578,456.40472 347.97932,452.6967 343.45187,449.30111 C 337.74861,445.02367 334.39177,442.08931 336.3808,433.13867"
       id="path3497" />
    <path
       style="opacity:1;fill:#ff5240;fill-opacity:1;fill-rule:evenodd;stroke:#000000;stroke-width:2;stroke-linecap:round;stroke-linejoin:round;marker:none;marker-start:none;marker-mid:none;marker-end:none;stroke-miterlimit:4;stroke-dasharray:none;stroke-dashoffset:0;stroke-opacity:1;visibility:visible;display:inline;overflow:visible;enable-background:accumulate"
       d="M 333.35034,491.72752 C 335.03393,492.40095 336.71751,493.07439 338.4011,493.74782 C 342.77811,495.49863 347.84963,498.47209 352.54324,500.81889 C 357.82966,503.4621 362.14807,504.48279 367.69552,505.86965 C 371.96704,506.93753 374.18668,509.33035 376.7869,511.93057 C 381.25476,516.39843 386.68172,511.02377 390.92903,508.90011 C 395.37073,506.67926 400.25089,499.50143 403.05086,495.76813 C 406.12272,491.67232 407.09147,489.07962 407.09147,483.6463 C 407.09147,479.70023 397.77506,481.93479 394.96964,482.63614 C 392.82914,483.17127 385.65956,481.62599 381.83766,481.62599 C 376.23928,481.62599 371.4483,481.48208 367.69552,479.60569 C 363.87306,477.69445 361.68168,475.61215 358.60415,472.53462 C 355.94604,469.8765 353.68423,467.51657 349.51278,466.4737 C 347.35739,465.93486 342.19405,473.79243 340.42141,475.56508 C 336.72864,479.25784 333.79546,482.19102 331.33003,484.65645 C 329.23696,486.74952 330.55384,487.06669 333.35034,491.72752 z"
       id="path3509" />
    <path
       style="opacity:1;fill:#e6d09e;fill-opacity:1;fill-rule:evenodd;stroke:#000000;stroke-width:2;stroke-linecap:round;stroke-linejoin:round;marker:none;marker-start:none;marker-mid:none;marker-end:none;stroke-miterlimit:4;stroke-dasharray:none;stroke-dashoffset:0;stroke-opacity:1;visibility:visible;display:inline;overflow:visible;enable-background:accumulate"
       d="M 336.3808,448.29096 C 337.76833,450.17836 343.54814,462.52938 348.50263,467.48386 C 352.89232,471.87356 354.92605,477.73202 358.60415,482.63615 C 361.84936,486.96309 363.28718,489.70722 369.71583,489.70722 C 376.30557,489.70722 382.78811,486.67676 389.91888,486.67676 C 396.91615,486.67676 404.59804,485.29579 410.12193,486.67676 C 414.74779,487.83322 419.8557,487.52631 423.25391,486.67676 C 425.13216,486.2072 428.47006,477.25462 429.31483,475.56508 C 431.72298,470.74877 434.31498,466.57494 436.3859,462.4331 C 439.34342,456.51805 439.79722,449.79795 441.43666,443.2402 C 443.50326,434.97378 443.82032,425.261 445.47727,416.97623 C 446.68075,410.95885 446.09159,405.42759 447.49758,399.80364 C 448.64663,395.2074 449.51788,390.78897 449.51788,385.6615 C 449.51788,380.71128 450.52803,378.01355 450.52803,372.52952 C 450.52803,367.46241 450.49838,363.31955 449.51788,359.39754 C 448.24075,354.28901 448.72192,349.14261 447.49758,344.24525 C 446.39085,339.81833 445.28006,335.90108 442.44681,332.12342 C 439.08826,327.64535 436.21965,324.96923 432.34529,323.03205 C 427.48393,320.60137 422.99164,317.34507 418.20315,314.95083 C 413.18106,312.43978 409.9111,311.11005 405.07117,309.90006 C 400.271,308.70002 395.16782,308.88991 389.91888,308.88991 C 384.13647,308.88991 378.73116,309.91907 374.76659,310.91022 C 369.96489,312.11064 365.36618,312.75524 360.62446,313.94067 C 355.33305,315.26353 350.11751,318.28535 346.48232,321.01174 C 342.19774,324.22517 337.95339,327.40844 334.36049,330.10311 C 330.74282,332.81637 329.09062,335.44602 326.27927,339.19449 C 322.55009,344.16673 320.68773,347.3471 318.19805,352.32647 C 315.62672,357.46912 313.48257,364.11732 312.13713,369.49906 C 310.9595,374.20958 311.12698,379.38949 311.12698,384.65135 C 311.12698,387.62064 315.48887,393.49766 317.1879,395.76303 C 319.73502,399.1592 323.21746,402.80275 326.27927,405.86456 C 330.10204,409.68732 331.45525,415.20636 333.35034,418.99654 C 334.90963,422.11513 335.37064,427.7527 335.37064,432.12852 C 335.37064,439.58269 332.72112,442.19151 336.3808,448.29096 C 337.15555,449.58222 333.68705,446.94409 332.34018,446.27066 C 330.99331,445.59722 335.03392,447.61753 336.3808,448.29096 z"
       id="path2703" />
    <path
       style="opacity:1;fill:#958767;fill-opacity:1;fill-rule:evenodd;stroke:#000000;stroke-width:2;stroke-linecap:round;stroke-linejoin:round;marker:none;marker-start:none;marker-mid:none;marker-end:none;stroke-miterlimit:4;stroke-dasharray:none;stroke-dashoffset:0;stroke-opacity:1;visibility:visible;display:inline;overflow:visible;enable-background:accumulate"
       d="M 377.28481,510.20507 C 376.57091,511.65704 360.86878,519.28401 358.38399,521.17367 C 351.70929,526.24971 356.63323,527.31267 361.59448,528.38044 C 366.31005,529.39535 373.73209,526.49232 378.29693,526.46183 C 383.37378,526.42791 390.73417,522.881 396.33651,521.82369 C 403.7557,520.42348 410.32993,516.71558 417.52623,515.35745 C 425.81456,513.79322 432.96662,511.60504 440.97466,508.87613 C 446.79855,506.89152 451.40056,506.0779 455.40332,504.71387 C 460.95899,502.82065 459.73373,499.07108 456.24947,496.1247 C 452.3619,492.83728 447.58315,494.37553 443.58857,494.40221 C 441.39655,494.41686 435.94883,497.00563 432.77085,498.08859 C 428.55597,499.5249 423.05142,499.05704 418.77283,499.08561 C 414.25871,499.11577 410.19863,501.85348 406.14211,501.88057 C 401.83303,501.90935 396.9349,504.02942 393.51139,504.67552 C 388.09648,505.69746 371.34612,510.24475 384.06097,510.15982"
       id="path2691" />
    <path
       style="opacity:1;fill:#e6d09e;fill-opacity:1;fill-rule:evenodd;stroke:#000000;stroke-width:2;stroke-linecap:round;stroke-linejoin:round;marker:none;marker-start:none;marker-mid:none;marker-end:none;stroke-miterlimit:4;stroke-dasharray:none;stroke-dashoffset:0;stroke-opacity:1;visibility:visible;display:inline;overflow:visible;enable-background:accumulate"
       d="M 335.37065,539.20469 C 335.03393,540.88827 334.69721,542.57186 334.36049,544.25545 C 333.51239,548.49597 338.97866,555.12705 341.43156,558.39759 C 344.07574,561.92315 351.38795,563.6646 354.56354,564.4585 C 360.90565,566.04403 363.50152,563.73923 368.70568,562.4382 C 373.17336,561.32127 376.84086,557.37394 380.82751,556.37728 C 384.34807,555.49714 388.73027,549.48467 390.92904,547.28591 C 393.35796,544.85698 395.12634,539.58806 395.9798,536.17423 C 396.85831,532.66016 387.48976,531.77888 384.86812,531.12347 C 384.14894,530.94367 383.19492,525.40187 377.79705,524.0524 C 371.1115,522.38101 372.92061,529.27748 367.69553,524.0524 C 366.80227,523.15914 358.05994,529.76386 357.594,530.11331 C 355.21984,531.89393 354.57664,523.03242 358.60415,520.01179 C 361.36618,517.94027 366.60064,516.51862 369.71583,514.96103 C 373.24676,513.19556 378.91324,513.92436 382.84781,512.94072 C 387.92505,511.67141 381.63,505.26075 378.8072,503.84935 C 374.52291,501.7072 371.79509,500.81889 365.67522,500.81889 C 361.90005,500.81889 358.7654,504.2738 355.5737,505.86965 C 352.17848,507.56726 349.24588,510.86805 346.48232,512.94072 C 341.83491,516.42628 338.70186,520.72119 336.3808,523.04225 C 333.97352,525.44952 332.34019,530.15159 332.34019,534.15392 C 332.34019,543.39694 331.85415,537.22247 329.30973,532.13362"
       id="path2689" />
    <path
       style="opacity:1;fill:none;fill-opacity:1;fill-rule:evenodd;stroke:#000000;stroke-width:2;stroke-linecap:round;stroke-linejoin:round;marker:none;marker-start:none;marker-mid:none;marker-end:none;stroke-miterlimit:4;stroke-dasharray:none;stroke-dashoffset:0;stroke-opacity:1;visibility:visible;display:inline;overflow:visible;enable-background:accumulate"
       d="M 382.82751,437.98638 C 377.41015,436.14802 374.74629,437.83589 374.74629,446.0676 C 374.74629,451.72894 385.70739,448.16319 387.87827,447.07775 C 391.84935,445.09221 398.44106,450.22353 402.02041,451.11836 C 407.64924,452.52557 411.88624,447.05529 414.14224,444.0473 C 417.94763,438.97344 415.36402,433.21779 412.12193,428.89501 C 408.4066,423.94123 401.56968,420.58842 395.95949,417.78333 C 391.90656,415.75686 391.75098,415.09141 392.92904,419.80364"
       id="path2711" />
    <path
       style="opacity:1;fill:#958767;fill-opacity:1;fill-rule:evenodd;stroke:#000000;stroke-width:2;stroke-linecap:round;stroke-linejoin:round;marker:none;marker-start:none;marker-mid:none;marker-end:none;stroke-miterlimit:4;stroke-dasharray:none;stroke-dashoffset:0;stroke-opacity:1;visibility:visible;display:inline;overflow:visible;enable-background:accumulate"
       d="M 351.42141,402.53967 C 350.05244,408.01556 340.73485,398.85788 335.25897,397.48891 C 328.78843,395.87127 320.81925,396.47875 314.04576,396.47875 C 309.49022,396.47875 310.00515,404.63472 310.00515,408.60058 C 310.00515,416.60306 310.23897,415.43783 314.04576,411.63104 C 318.02776,407.64905 322.46722,410.70595 326.16759,411.63104 C 331.3069,412.91587 335.05293,411.63104 340.30973,411.63104 C 346.23311,411.63104 349.97217,408.33663 351.42141,402.53967 C 351.94433,400.448 354.11515,405.90684 355.46202,407.59043"
       id="path2719" />
    <path
       style="opacity:1;fill:#958767;fill-opacity:1;fill-rule:evenodd;stroke:#000000;stroke-width:2;stroke-linecap:round;stroke-linejoin:round;marker:none;marker-start:none;marker-mid:none;marker-end:none;stroke-miterlimit:4;stroke-dasharray:none;stroke-dashoffset:0;stroke-opacity:1;visibility:visible;display:inline;overflow:visible;enable-background:accumulate"
       d="M 364.66507,400.51936 C 360.80367,401.29164 372.63571,388.9579 375.77675,387.38738 C 379.92905,385.31123 386.68912,386.3274 390.92904,387.38738 C 395.49141,388.52797 399.48643,395.41079 401.03056,398.49906 C 403.82312,404.08419 399.30786,405.27252 395.9798,408.60058 C 393.26509,411.31529 391.98007,401.81271 388.90873,399.50921 C 384.7135,396.36279 381.51187,396.47875 375.77675,396.47875 C 373.22617,396.47875 370.23052,405.53169 369.71583,407.59043 C 368.81753,411.18364 365.12108,401.65938 364.66507,400.51936 z"
       id="path2717" />
    <path
       style="opacity:1;fill:#ffffff;fill-opacity:1;fill-rule:evenodd;stroke:#000000;stroke-width:2;stroke-linecap:round;stroke-linejoin:round;marker:none;marker-start:none;marker-mid:none;marker-end:none;stroke-miterlimit:4;stroke-dasharray:none;stroke-dashoffset:0;stroke-opacity:1;visibility:visible;display:inline;overflow:visible;enable-background:accumulate"
       d="M 362.62446,390.50921 C 354.83492,386.61444 357.10829,384.17592 346.46202,389.49906 C 340.75262,392.35376 334.9051,399.85751 331.30973,404.65135 C 327.92848,409.15968 334.24951,416.989 336.36049,419.80364 C 340.43819,425.24056 349.78404,424.42221 355.55339,425.86455 C 359.95103,426.96396 366.4593,423.94713 368.68537,422.83409 C 368.98654,422.68351 369.35881,422.83409 369.69553,422.83409 C 374.05776,422.83409 373.73614,414.54307 373.73614,410.71226 C 373.73614,405.97305 371.73251,401.6876 370.70568,397.58028 C 369.48843,392.71129 357.61323,386.33319 368.68537,395.55997"
       id="path2713" />
    <path
       style="opacity:1;fill:#958767;fill-opacity:1;fill-rule:evenodd;stroke:#000000;stroke-width:2;stroke-linecap:round;stroke-linejoin:round;marker:none;marker-start:none;marker-mid:none;marker-end:none;stroke-miterlimit:4;stroke-dasharray:none;stroke-dashoffset:0;stroke-opacity:1;visibility:visible;display:inline;overflow:visible;enable-background:accumulate"
       d="M 417.25392,402.54982 C 417.73011,400.64506 419.27422,399.18265 420.28437,397.49906 C 422.69849,393.47553 432.99465,393.45845 437.45697,393.45845 C 443.71756,393.45845 448.08989,393.21907 452.60926,395.47875 C 454.99919,396.67372 453.54934,401.81993 452.60926,405.58028 C 451.74231,409.04806 444.49264,407.60058 440.48743,407.60058 C 434.91508,407.60058 429.14245,410.74769 425.33514,412.65135 C 421.09608,414.77087 418.67838,405.39875 417.25392,402.54982 z"
       id="path2721" />
    <path
       style="opacity:1;fill:#ffffff;fill-opacity:1;fill-rule:evenodd;stroke:#000000;stroke-width:2;stroke-linecap:round;stroke-linejoin:round;marker:none;marker-start:none;marker-mid:none;marker-end:none;stroke-miterlimit:4;stroke-dasharray:none;stroke-dashoffset:0;stroke-opacity:1;visibility:visible;display:inline;overflow:visible;enable-background:accumulate"
       d="M 413.13209,388.48891 C 411.74912,382.95703 402.00975,388.49957 397.9798,392.52952 C 393.28728,397.22204 390.44089,404.80029 391.91888,410.71226 C 393.58204,417.3649 396.33085,421.34484 401.01026,424.8544 C 406.35115,428.86007 413.01193,428.11092 419.193,426.8747 C 425.6417,425.58496 430.91668,423.23224 434.34529,419.80364 C 438.19483,415.9541 438.78847,412.32254 437.37575,406.67165 C 435.82065,400.45126 432.34565,397.60095 428.28437,393.53967 C 423.16,388.41529 421.66031,386.78326 413.13209,388.48891"
       id="path2715" />
    <path
       style="opacity:1;fill:#755941;fill-opacity:1;fill-rule:evenodd;stroke:#000000;stroke-width:2;stroke-linecap:round;stroke-linejoin:round;marker:none;marker-start:none;marker-mid:none;marker-end:none;stroke-miterlimit:4;stroke-dasharray:none;stroke-dashoffset:0;stroke-opacity:1;visibility:visible;display:inline;overflow:visible;enable-background:accumulate"
       d="M 322.16759,371.38738 C 317.27083,373.83576 326.72095,348.98288 327.21836,348.15387 C 331.35334,341.26224 338.50623,335.94394 344.39095,333.00158 C 350.60808,329.89302 349.95586,334.048 351.46202,340.07265 C 353.29043,347.3863 352.28087,349.21185 360.55339,347.14372 C 366.98361,345.53616 370.88445,340.52034 376.71583,339.0625 C 384.0863,337.21988 383.9543,341.42335 382.77675,346.13357 C 382.54613,347.05602 408.7734,343.10311 412.07117,343.10311 C 419.41121,343.10311 426.27174,341.34995 433.28437,343.10311 C 439.89005,344.75453 440.22888,344.61952 438.33514,352.19448 C 436.29349,360.36108 455.17101,352.19448 463.58895,352.19448 C 470.8861,352.19448 477.79158,350.44184 484.80215,352.19448 C 492.62287,354.14966 489.75464,353.10636 484.80215,348.15387 C 480.29584,343.64756 470.58025,343.10311 464.5991,343.10311 C 457.27528,343.10311 449.98407,345.25213 448.43666,339.0625 C 447.08027,333.63694 452.40965,323.23815 453.48743,317.8493 C 455.17269,309.42296 446.06407,312.79853 437.32498,312.79853 C 428.33093,312.79853 420.23543,314.81884 411.06102,314.81884 C 404.77976,314.81884 403.98995,311.3174 403.98995,305.72747 C 403.98995,299.14737 402.87268,292.48837 398.93919,288.55487 C 394.0419,283.65759 385.8011,286.03254 380.75644,288.55487 C 372.04845,292.90887 367.02396,302.48752 361.56354,309.76808 C 358.57692,313.75024 359.50136,307.22176 354.49248,304.71731 C 348.42498,301.68356 335.60363,311.66676 330.24881,313.80869 C 321.46508,317.32218 320.9164,323.38213 317.11683,330.98128 C 313.61559,337.98377 318.84767,338.05235 308.02546,338.05235 C 301.42315,338.05235 299.85156,346.59697 298.93409,351.18433 C 298.02362,355.73664 306.51666,358.76691 310.04576,362.29601 C 312.76047,365.01071 314.0455,369.08388 317.11683,371.38738 C 319.22071,372.96529 322.66199,373.85937 323.17775,376.43814"
       id="path2723" />
    <path
       style="opacity:1;fill:#ff5240;fill-opacity:1;fill-rule:evenodd;stroke:#000000;stroke-width:2;stroke-linecap:round;stroke-linejoin:round;marker:none;marker-start:none;marker-mid:none;marker-end:none;stroke-miterlimit:4;stroke-dasharray:none;stroke-dashoffset:0;stroke-opacity:1;visibility:visible;display:inline;overflow:visible;enable-background:accumulate"
       d="M 351.53309,669.51437 C 353.86314,671.63508 357.19061,681.03277 358.60415,686.68696 C 359.86738,691.73986 361.6155,696.71204 362.64476,700.8291 C 363.68674,704.99699 364.7241,707.95919 367.69553,710.93062 C 370.62091,713.85601 375.4197,715.62434 377.79705,718.00169 C 379.13665,719.34128 383.00582,728.73526 380.82751,720.022 C 379.7913,715.87717 378.61911,710.17823 377.79705,706.89001 C 376.03506,699.84205 385.71732,707.73921 385.87827,707.90016 C 389.70986,711.73175 392.94934,711.56788 392.94934,704.86971 C 392.94934,698.03296 395.12941,695.3132 401.03056,696.78849 C 405.62067,697.93601 409.49942,701.528 414.16254,703.85955 C 415.21752,704.38704 418.90889,691.3364 419.21331,690.72757 C 420.57691,688.00037 425.57748,691.08102 428.30468,689.71742 C 434.58602,686.57675 425.97857,680.47315 436.3859,685.67681 C 443.2835,689.12561 443.67067,688.60041 447.49758,686.68696 C 450.26732,685.30209 454.49578,682.93779 455.5788,678.60574 C 456.28469,675.78215 451.3694,669.96275 449.51788,667.49406 C 446.78297,663.84751 445.07063,662.23998 441.43666,660.423 C 441.13549,660.27241 440.76323,660.423 440.42651,660.423 C 435.91568,660.423 433.83812,655.32744 432.34529,652.34177 C 429.99092,647.63304 429.4284,645.49783 427.29453,641.2301 C 424.88451,636.41006 418.52618,642.58381 415.1727,644.26055 C 410.96545,646.36418 406.12156,648.78612 401.03056,651.33162 C 395.8781,653.90785 390.04186,655.08895 384.86812,656.38238 C 380.0193,657.59459 375.68379,659.45932 371.73614,661.43315 C 368.31563,663.1434 364.1271,663.58795 360.62446,664.46361 C 358.12201,665.08922 355.14078,667.34975 351.53309,669.51437 z"
       id="path3501" />
    <path
       style="opacity:1;fill:none;fill-opacity:1;fill-rule:evenodd;stroke:#000000;stroke-width:2;stroke-linecap:round;stroke-linejoin:round;marker:none;marker-start:none;marker-mid:none;marker-end:none;stroke-miterlimit:4;stroke-dasharray:none;stroke-dashoffset:0;stroke-opacity:1;visibility:visible;display:inline;overflow:visible;enable-background:accumulate"
       d="M 581.84787,712.95093 C 581.84787,712.95093 581.84787,712.95093 581.84787,712.95093 z"
       id="path3503" />
    <path
       style="opacity:1;fill:#ff5240;fill-opacity:1;fill-rule:evenodd;stroke:#000000;stroke-width:2;stroke-linecap:round;stroke-linejoin:round;marker:none;marker-start:none;marker-mid:none;marker-end:none;stroke-miterlimit:4;stroke-dasharray:none;stroke-dashoffset:0;stroke-opacity:1;visibility:visible;display:inline;overflow:visible;enable-background:accumulate"
       d="M 394.96965,594.76308 C 389.52741,600.29301 387.04248,604.5565 383.85797,610.92552 C 381.57303,615.4954 378.89433,618.8325 376.7869,623.04735 C 374.10259,628.41597 373.78571,626.1949 374.76659,630.11842 C 375.03366,631.18666 386.38596,624.43435 386.88842,624.0575 C 389.56091,622.05314 392.87698,620.03498 396.98995,619.00674 C 402.91756,617.52484 404.23981,613.4956 410.12193,614.96613 C 414.24891,615.99787 417.40589,619.05996 421.23361,620.01689 C 426.41837,621.31308 428.49416,622.44754 433.35544,620.01689 C 436.9641,618.21257 439.34679,613.0154 442.44681,609.91537 C 445.24926,607.11293 449.99668,605.13028 452.54834,603.85445 C 456.07991,602.08867 457.34907,598.04357 460.62956,594.76308 C 463.374,592.01864 463.78416,586.18528 464.67017,582.64125 C 465.50238,579.31241 458.02601,577.69721 457.5991,577.59049 C 455.80729,577.14253 449.88993,581.44507 447.49758,582.64125 C 443.69705,584.54151 439.72346,588.04354 436.3859,589.71232 C 433.38648,591.21203 425.67165,589.71232 422.24376,589.71232 C 417.5309,589.71232 414.26064,587.69201 409.11178,587.69201 C 401.93604,587.69201 403.1904,584.52202 398.0001,589.71232 C 396.61178,591.10064 395.9798,593.07949 394.96965,594.76308 z"
       id="path3505" />
    <path
       style="opacity:1;fill:#ff5240;fill-opacity:1;fill-rule:evenodd;stroke:#000000;stroke-width:2;stroke-linecap:round;stroke-linejoin:round;marker:none;marker-start:none;marker-mid:none;marker-end:none;stroke-miterlimit:4;stroke-dasharray:none;stroke-dashoffset:0;stroke-opacity:1;visibility:visible;display:inline;overflow:visible;enable-background:accumulate"
       d="M 400.02041,532.13362 C 400.69384,533.81721 401.36728,535.5008 402.04071,537.18438 C 403.56354,540.99144 404.06102,547.09147 404.06102,551.32652 C 404.06102,559.1234 405.25973,558.58615 407.09148,560.41789 C 407.7554,561.08182 420.01101,553.45305 420.22346,553.34683 C 424.35025,551.28343 429.3458,550.31637 434.36559,550.31637 C 439.54191,550.31637 442.6548,549.30622 447.49758,549.30622 C 452.63458,549.30622 454.8484,547.39478 453.55849,542.23515 C 452.54867,538.19586 447.51365,533.83864 445.47727,531.12347 C 443.33162,528.2626 441.23065,526.67084 439.41636,523.04225 C 436.96216,518.13385 434.82177,519.89775 430.32498,521.02194 C 426.0891,522.08092 422.94463,523.04225 417.193,523.04225 C 412.06906,523.04225 409.10323,524.05454 405.07117,525.06255 C 399.53213,526.44731 395.72091,524.96779 400.02041,532.13362 z"
       id="path3507" />
    <path
       style="opacity:1;fill:none;fill-opacity:1;fill-rule:evenodd;stroke:#000000;stroke-width:2;stroke-linecap:round;stroke-linejoin:round;marker:none;marker-start:none;marker-mid:none;marker-end:none;stroke-miterlimit:4;stroke-dasharray:none;stroke-dashoffset:0;stroke-opacity:1;visibility:visible;display:inline;overflow:visible;enable-background:accumulate"
       d="M 384.5,352.36218 C 382.96192,352.69878 379.96941,356.40297 378.5,358.36218 C 376.67351,360.7975 384.70908,359.36218 386.5,359.36218 C 391.48444,359.36218 389.5204,360.84178 387.5,362.86218 C 384.71581,365.64637 383.1914,366.05358 385.5,368.36218 C 387,369.86218 391.5,368.36218 393,369.86218 C 394.43856,371.30074 390.40982,373.04254 389.5,374.86218"
       id="path3516" />
    <path
       style="opacity:1;fill:#755941;fill-opacity:1;fill-rule:evenodd;stroke:#000000;stroke-width:2;stroke-linecap:round;stroke-linejoin:round;marker:none;marker-start:none;marker-mid:none;marker-end:none;stroke-miterlimit:4;stroke-dasharray:none;stroke-dashoffset:0;stroke-opacity:1;visibility:visible;display:inline;overflow:visible;enable-background:accumulate"
       d="M 353.5,403.36218 C 355.10295,404.96513 349.36015,405.54865 348,407.36218 C 346.06257,409.94542 346.16187,413.18592 347.5,415.86218 C 348.4721,417.80639 353.07258,417.36218 355,417.36218 C 357.72466,417.36218 359.87712,414.35935 361,412.86218 C 362.74825,410.53118 360.7012,407.26458 360,405.86218 C 358.42033,402.70283 357.69197,400.847 353.5,403.36218 z"
       id="path3518" />
    <path
       style="opacity:1;fill:#755941;fill-opacity:1;fill-rule:evenodd;stroke:#000000;stroke-width:2;stroke-linecap:round;stroke-linejoin:round;marker:none;marker-start:none;marker-mid:none;marker-end:none;stroke-miterlimit:4;stroke-dasharray:none;stroke-dashoffset:0;stroke-opacity:1;visibility:visible;display:inline;overflow:visible;enable-background:accumulate"
       d="M 415.5,402.86218 C 414.18456,400.2313 409.97207,402.89011 408,404.86218 C 405.06753,407.79465 406.85361,412.21579 409,414.36218 C 411.27668,416.63886 417.87618,414.88695 420.5,414.36218 C 423.3428,413.79362 424,412.43037 424,409.36218 C 424,406.9189 421.11439,403.97657 420,402.86218 C 418.91429,401.77647 416.53994,402.65419 415.5,402.86218 z"
       id="path3520" />
    <path
       style="opacity:1;fill:#fc00ff;fill-opacity:1;fill-rule:evenodd;stroke:#000000;stroke-width:2;stroke-linecap:round;stroke-linejoin:round;marker:none;marker-start:none;marker-mid:none;marker-end:none;stroke-miterlimit:4;stroke-dasharray:none;stroke-dashoffset:0;stroke-opacity:1;visibility:visible;display:inline;overflow:visible;enable-background:accumulate"
       d="M 452.5052,489.39457 C 449.88141,495.62692 451.08535,491.73657 447.16409,492.30883 C 439.42494,486.63922 434.03089,482.35716 424.94506,478.33333 C 418.00064,475.25787 412.06473,473.32757 408.48097,474.0985 C 408.00784,474.20028 423.31968,493.71656 424.83324,494.82538 C 430.39737,498.9016 437.74736,505.50448 440.7432,509.24318 C 442.89487,511.92838 437.47327,525.97028 436.48042,529.83028 C 434.30411,538.29129 433.41078,547.80837 433.68432,548.72953 C 435.51694,554.90092 441.14305,538.23399 444.94759,533.04072 C 448.73063,527.87681 451.01527,522.88545 455.46354,520.25734 C 462.00785,516.39085 464.07032,532.88878 469.40859,538.29994 C 473.53661,542.48431 478.36685,547.56049 480.72529,550.50373 C 481.17593,551.06613 477.64911,531.9508 476.99116,528.89224 C 475.14376,520.30445 468.60492,513.7449 468.66376,505.06675 C 468.66874,504.33219 486.81582,515.12253 490.41253,516.85618 C 497.37603,520.21268 505.1097,520.63654 512.68747,522.58566 C 512.97457,522.65951 503.00548,509.22353 500.43026,506.00975 C 496.13615,500.65085 486.99505,491.61033 485.98699,489.9041 C 484.00963,486.55729 493.81957,488.56168 497.16639,486.58433 C 503.67466,482.73914 506.07398,479.58255 513.9355,481.60466 C 519.32168,482.99007 523.42352,491.16191 527.43825,493.33819 C 528.20284,493.75265 545.26695,478.06682 549.1336,477.23503 C 556.93458,475.5569 559.70666,472.88897 563.19048,478.78558 C 567.73149,486.4716 570.74376,481.93397 577.52441,475.24465 C 584.24924,468.6104 588.21617,467.66924 595.5111,469.54562 C 605.89495,472.21651 611.07435,475.66733 621.93701,471.18004 C 631.08383,467.40156 637.88675,455.50282 645.34816,452.42056 C 645.72123,452.26644 656.46099,460.49977 660.81582,460.52929 C 668.4168,460.58083 682.39178,451.31348 686.10801,450.51405 C 687.99816,450.10744 695.74201,462.16492 704.23199,460.33858 C 713.89782,458.25928 722.82649,459.08324 731.90343,457.13062 C 740.47552,455.28661 750.51022,450.53184 757.91499,448.33296 C 762.39027,447.00401 756.81422,466.13004 768.04206,457.13311 C 777.4742,449.57508 785.35904,438.41948 791.03885,427.94154 C 794.99034,420.65198 799.04693,414.4894 802.57919,407.16125 C 807.0879,397.80731 800.31566,402.0373 795.08049,404.19991 C 789.10738,406.66736 782.76891,410.47721 778.03432,414.27106 C 774.51972,417.08734 772.30629,420.25757 770.45175,423.67876 C 768.15837,427.90953 766.3913,431.43624 765.0273,436.73921 C 763.75919,441.66931 764.07229,432.98868 759.27235,426.99854 C 754.78151,421.39414 749.27325,417.19875 744.55202,415.98438 C 739.75287,414.74996 736.97161,423.10439 732.12707,424.14653 C 725.61153,425.54815 717.46064,428.47399 709.51916,431.75457 C 699.07626,436.06846 700.8405,416.78645 700.19533,411.80297 C 699.08745,403.24551 679.83438,425.04286 677.78061,426.68855 C 672.67759,430.77763 670.52673,425.14083 661.75883,428.76279 C 653.22286,432.28894 651.22619,437.61714 642.05634,437.11814 C 633.48274,436.6516 626.88341,441.15477 619.19931,445.69465 C 614.50233,448.46972 623.14085,436.27629 612.19883,440.79636 C 603.40202,444.43026 601.40153,452.5996 593.71393,448.43235 C 586.78419,444.67592 581.50128,447.43479 573.07092,452.41558 C 566.98396,456.01186 558.36636,455.86119 554.86308,454.96008 C 547.83793,453.1531 538.60556,455.71271 529.37769,457.69778 C 519.90672,459.73516 512.762,459.89978 506.79773,461.1828 C 500.35165,462.56947 493.21167,465.91847 489.2813,469.0679 C 485.30324,472.25554 485.05069,476.4952 481.69873,478.47559 C 476.9956,481.25429 472.90776,454.6216 472.65197,453.43251 C 471.16157,446.50424 468.4283,439.09777 463.07903,434.44939 C 460.30161,432.03589 455.66127,461.63503 456.32517,464.72125 C 458.19712,473.42325 457.54802,477.52274 449.96019,473.40958 C 444.37247,470.38063 439.7441,463.34713 435.0187,459.24088 C 430.42933,455.25284 418.37234,450.89797 421.68119,458.90791 C 424.72363,466.27295 431.27069,473.11414 436.09651,479.13657 C 439.49716,483.38045 443.1134,482.64927 446.60457,485.68299 C 450.21471,488.82012 449.96329,488.87134 452.5052,489.39457 z"
       id="path3522"
       sodipodi:nodetypes="ccssssssssssssssssssssssssssssssssssssssssssssssssssssssssssssssc" />
    <path
       style="opacity:1;fill:#755941;fill-opacity:1;fill-rule:evenodd;stroke:#000000;stroke-width:2;stroke-linecap:round;stroke-linejoin:round;marker:none;marker-start:none;marker-mid:none;marker-end:none;stroke-miterlimit:4;stroke-dasharray:none;stroke-dashoffset:0;stroke-opacity:1;visibility:visible;display:inline;overflow:visible;enable-background:accumulate"
       d="M 366.98842,465.11 C 367.57768,464.6386 368.16693,464.16719 368.75619,463.69579 C 372.35851,460.81393 381.05459,462.28157 385.3732,462.28157 C 392.08851,462.28157 398.77091,461.92802 405.52574,461.92802 C 407.79265,461.92802 410.04403,462.43887 412.24325,462.98868 C 414.24325,463.48868 408.39769,464.71292 406.93995,466.17066 C 404.4973,468.61331 400.32587,469.60276 397.74756,472.18107 C 395.12187,474.80676 392.25512,477.0075 389.26228,479.25214 C 387.31365,480.71361 387.4757,481.54553 385.3732,481.0199 C 383.84256,480.63724 382.85096,479.95924 381.13056,479.95924 C 379.34611,479.95924 377.99014,480.3128 376.18081,480.3128 C 374.3974,480.3128 376.27127,476.60463 375.4737,475.0095 C 374.74308,473.54825 375.86311,470.62344 376.18081,469.35264 C 376.73357,467.14161 376.55924,466.19554 375.4737,465.11 C 374.59617,464.23247 372.21052,464.40289 370.87751,464.40289 C 367.14799,464.40289 367.43984,466.12173 371.58461,464.04934 C 372.25956,463.71187 372.76313,463.10653 373.35238,462.63513"
       id="path3526" />
  </g>
</svg>
