<?xml version="1.0" encoding="UTF-8" standalone="no"?>
<!-- Created with Inkscape (http://www.inkscape.org/) -->
<svg
   xmlns:dc="http://purl.org/dc/elements/1.1/"
   xmlns:cc="http://creativecommons.org/ns#"
   xmlns:rdf="http://www.w3.org/1999/02/22-rdf-syntax-ns#"
   xmlns:svg="http://www.w3.org/2000/svg"
   xmlns="http://www.w3.org/2000/svg"
   xmlns:sodipodi="http://sodipodi.sourceforge.net/DTD/sodipodi-0.dtd"
   xmlns:inkscape="http://www.inkscape.org/namespaces/inkscape"
   width="744.09448819"
   height="1052.3622047"
   id="svg2"
   sodipodi:version="0.32"
   inkscape:version="0.46"
   sodipodi:docname="hotspot.svg"
   inkscape:output_extension="org.inkscape.output.svg.inkscape"
   inkscape:export-filename="/home/substack/doc/rov2010/tech-report/hotspot.png"
   inkscape:export-xdpi="74.990479"
   inkscape:export-ydpi="74.990479">
  <defs
     id="defs4">
    <inkscape:perspective
       sodipodi:type="inkscape:persp3d"
       inkscape:vp_x="0 : 526.18109 : 1"
       inkscape:vp_y="0 : 1000 : 0"
       inkscape:vp_z="744.09448 : 526.18109 : 1"
       inkscape:persp3d-origin="372.04724 : 350.78739 : 1"
       id="perspective10" />
    <inkscape:perspective
       id="perspective2390"
       inkscape:persp3d-origin="372.04724 : 350.78739 : 1"
       inkscape:vp_z="744.09448 : 526.18109 : 1"
       inkscape:vp_y="0 : 1000 : 0"
       inkscape:vp_x="0 : 526.18109 : 1"
       sodipodi:type="inkscape:persp3d" />
    <inkscape:perspective
       id="perspective3385"
       inkscape:persp3d-origin="372.04724 : 350.78739 : 1"
       inkscape:vp_z="744.09448 : 526.18109 : 1"
       inkscape:vp_y="0 : 1000 : 0"
       inkscape:vp_x="0 : 526.18109 : 1"
       sodipodi:type="inkscape:persp3d" />
  </defs>
  <sodipodi:namedview
     id="base"
     pagecolor="#ffffff"
     bordercolor="#666666"
     borderopacity="1.0"
     gridtolerance="10000"
     guidetolerance="10"
     objecttolerance="10"
     inkscape:pageopacity="0.0"
     inkscape:pageshadow="2"
     inkscape:zoom="1.4"
     inkscape:cx="284.81812"
     inkscape:cy="968.20607"
     inkscape:document-units="px"
     inkscape:current-layer="layer1"
     showgrid="false"
     inkscape:window-width="1438"
     inkscape:window-height="898"
     inkscape:window-x="0"
     inkscape:window-y="0" />
  <metadata
     id="metadata7">
    <rdf:RDF>
      <cc:Work
         rdf:about="">
        <dc:format>image/svg+xml</dc:format>
        <dc:type
           rdf:resource="http://purl.org/dc/dcmitype/StillImage" />
      </cc:Work>
    </rdf:RDF>
  </metadata>
  <g
     inkscape:label="Layer 1"
     inkscape:groupmode="layer"
     id="layer1">
    <path
       style="opacity:1;fill:#837739;fill-opacity:1;fill-rule:evenodd;stroke:#000000;stroke-width:2;stroke-linecap:butt;stroke-linejoin:miter;marker:none;marker-start:none;marker-mid:none;marker-end:none;stroke-miterlimit:4;stroke-dasharray:none;stroke-dashoffset:0;stroke-opacity:1;visibility:visible;display:inline;overflow:visible;enable-background:accumulate"
       d="M 19.899086,66.469247 C 20.892888,68.396933 20.793229,71.254563 21.973492,73.543943 C 23.331788,76.178623 23.662414,79.340284 25.096499,82.122014 C 27.015319,85.843919 28.293759,90.479609 29.268119,94.259529 C 30.369299,98.531489 31.800089,102.90792 33.439729,106.88344 C 34.710149,109.96373 35.250439,113.95215 36.038439,117.00909 C 36.698559,119.57003 36.974919,122.10126 37.611339,124.57017 C 38.247759,127.03909 38.581889,135.68388 39.138649,138.16686 C 39.695409,140.64982 42.605189,142.07017 43.743379,143.16336 C 45.377629,144.733 47.763109,145.47581 50.992399,145.6395 C 53.857819,145.78473 56.720969,145.9143 59.586369,146.05956 C 62.656439,146.21517 65.725759,146.39034 68.795829,146.54594 C 72.133469,146.71512 74.692589,146.31055 78.028094,146.47962 C 81.389384,146.64999 84.005064,146.24713 87.283144,146.4133 C 90.856554,146.59442 93.678444,146.21618 97.130874,146.39118 C 100.22455,146.548 103.25319,145.63431 106.40872,145.79426 C 109.68344,145.96025 112.95891,146.13676 116.23366,146.30275 C 119.80926,146.48399 122.57471,146.10174 126.10419,146.28064 C 129.40239,146.44782 132.27498,146.05914 135.33644,146.21432 C 138.58745,146.37911 141.424,146.53758 143.976,146.12588 C 146.85082,145.66209 150.8515,146.46277 153.80094,146.61227 C 157.38513,146.79395 160.11824,147.47588 163.5803,147.65136 C 166.62155,147.80553 169.69176,149.00116 172.72136,149.15474 C 175.93397,149.31757 178.93741,150.54497 182.47792,150.72444 C 185.63284,150.88435 189.9567,152.17479 192.21168,152.78052 C 194.52301,153.40139 197.3715,154.18085 199.48351,154.74817 C 202.66098,155.60169 205.03923,156.66193 207.30242,157.77702 C 209.70821,158.96237 213.71785,159.62783 216.3751,160.3416 C 219.61007,161.21057 222.47862,164.49172 224.62714,166.04557 C 227.11826,167.84724 229.21304,168.85753 231.76219,170.11352 C 234.96859,171.69335 237.20959,173.20341 240.05982,175.26478 C 242.44275,176.98819 243.59826,178.11205 245.94111,179.2664 C 249.16525,180.85496 251.17327,181.8345 254.30712,183.37857 C 256.66726,184.54143 259.80255,185.26869 262.14884,185.89893 C 264.90602,186.63957 267.78068,187.85019 269.96776,188.92778 C 271.55747,189.71104 275.68818,190.47871 277.23959,190.89544 C 280.00871,191.63928 283.56184,191.72301 286.42624,191.8682 C 289.29166,192.01344 292.15481,192.16513 295.02022,192.31038 C 298.10022,192.4665 300.60475,192.58972 303.0215,192.19983 C 306.43274,191.64951 307.52554,191.5547 310.52129,190.45327 C 312.75138,189.63334 315.47614,188.61613 318.06666,188.19821 C 320.92392,187.73724 323.15786,186.98372 326.18192,186.49586 C 329.1491,186.01718 331.25856,185.81063 334.27439,185.32412 C 337.41171,184.81797 339.9715,184.55477 342.93675,184.70508 C 345.92085,184.85632 350.22271,183.82655 352.28298,183.06906 C 352.47107,182.99988 352.6938,183.10289 352.89847,183.11327 C 355.24121,183.23202 360.50729,179.78147 361.78878,178.80213 C 363.46248,177.52306 364.52958,175.10586 365.23094,173.16448 C 366.16548,170.57762 366.66246,167.91905 367.5789,165.38231 C 368.0488,164.5857 368.52231,163.79123 368.99222,162.99461 C 369.73361,161.73778 369.69497,158.25649 370.04082,156.91479 C 370.66359,154.49877 371.59093,152.75252 371.59093,150.34859 C 371.59095,148.1704 373.16674,145.8051 373.68814,143.78239 C 374.33093,141.28869 375.23115,138.76919 375.76254,136.70769 C 376.2889,134.66578 377.41156,132.49211 378.36125,130.64999 C 379.27897,128.86992 379.31293,126.98013 379.93415,124.57017 C 380.5391,122.22328 382.08351,119.89255 383.05716,118.00397 C 384.3667,115.46387 384.97252,113.07172 385.65587,110.42078 C 386.28501,107.98014 387.07062,105.99359 387.75307,103.3461 C 388.36008,100.99126 389.61197,98.723409 390.35178,97.288379 C 370.50044,48.191713 84.175044,51.494583 19.899086,66.469247 z"
       id="path3284"
       sodipodi:nodetypes="csssssccsssssssssssssssssssssssssssssssssssssssscsssssssssscc" />
    <path
       id="path3262"
       d="M 151.62619,28.124003 C 147.65608,28.059017 143.68598,27.994031 139.71587,27.929046 C 135.70487,27.863391 133.92364,27.141437 129.91871,27.075882 C 126.41568,27.018542 122.91265,26.961201 119.40962,26.903861 C 115.93944,26.847058 112.33469,28.173645 108.87783,28.11706 C 105.21721,28.05714 101.68049,27.873842 98.357394,28.63765 C 95.016504,29.405548 89.679014,29.188391 86.435744,29.135303 C 83.287484,29.08377 78.344444,30.305068 75.192009,31.029646 C 71.668939,31.839417 68.005269,32.164002 64.648909,32.935457 C 60.613989,33.862875 56.771229,34.573622 52.693229,35.510942 C 48.717239,36.42482 44.808399,37.87458 41.415489,39.483116 C 38.041919,41.08249 34.216919,41.86503 30.838379,43.466758 C 27.719219,44.945516 25.682829,46.9418 23.05234,48.188884 C 19.767646,49.74612 18.9209,52.407783 18.023382,55.727325 C 17.238337,58.630867 17.961894,62.873702 18.565269,65.435335 C 19.327034,68.669425 22.716026,70.379468 24.068089,71.760576 C 26.009449,73.743642 28.745309,74.608322 32.430019,74.668641 C 35.699529,74.72216 38.969019,74.775672 42.238529,74.829192 C 45.741559,74.886532 49.244589,74.943872 52.747619,75.001212 C 56.555969,75.063554 59.462169,74.41833 63.268059,74.480623 C 67.103389,74.543404 70.048119,73.898809 73.788499,73.960033 C 77.865864,74.02677 81.070244,73.38642 85.009554,73.450907 C 88.539514,73.508685 91.940814,72.178769 95.541334,72.237708 C 99.277904,72.298869 103.01447,72.360037 106.75105,72.421197 C 110.83092,72.487976 113.94486,71.846155 117.9721,71.912078 C 121.73544,71.973677 124.99931,71.334311 128.49253,71.391488 C 132.20203,71.452211 135.42834,71.522322 138.31236,70.859437 C 141.56119,70.112685 146.15668,70.987836 149.52207,71.042919 C 153.61174,71.109868 156.77015,71.854363 160.72045,71.919019 C 164.19061,71.975821 167.75,73.419675 171.20687,73.476258 C 174.87253,73.536259 178.35408,74.978839 182.39391,75.044967 C 185.99376,75.103892 190.97128,76.618813 193.5696,77.306293 C 196.23287,78.010954 199.50931,78.877854 201.94288,79.521744 C 205.60416,80.490464 208.36017,81.777864 210.99408,83.133874 C 213.79397,84.575329 218.39598,85.266229 221.45783,86.076329 C 225.18532,87.062579 228.62697,91.225269 231.15296,93.162989 C 234.08173,95.409709 236.51417,96.621539 239.48088,98.148879 C 243.21249,100.07003 245.83637,101.97234 249.18733,104.54294 C 251.98891,106.69207 253.38743,108.10214 256.11405,109.50589 C 259.86631,111.43766 262.19598,112.63703 265.84318,114.51471 C 268.5899,115.92881 272.20221,116.71893 274.90573,117.43424 C 278.08271,118.27483 281.41158,119.73597 283.95692,121.04639 C 285.80703,121.99887 290.54259,122.78886 292.3302,123.26183 C 295.52096,124.10606 299.5596,124.07297 302.82796,124.12646 C 306.09747,124.17998 309.36696,124.23349 312.63647,124.28701 C 316.15084,124.34454 319.02452,124.37125 321.75569,123.74349 C 325.61076,122.8574 326.85466,122.70059 330.20832,121.11066 C 332.70484,119.92709 335.74472,118.45813 338.67228,117.78523 C 341.90125,117.04305 344.40802,115.94938 347.82553,115.16387 C 351.17876,114.39314 353.55923,114.01849 356.96742,113.23513 C 360.51289,112.4202 363.41514,111.95507 366.79859,112.01045 C 370.20351,112.06619 375.04663,110.50548 377.35305,109.41204 C 377.56362,109.3122 377.82013,109.41968 378.05365,109.42351 C 380.7268,109.46727 386.55577,104.69805 387.96418,103.35056 C 389.80363,101.59069 390.89352,98.372289 391.59192,95.789179 C 392.52254,92.347249 392.95123,88.809689 393.86381,85.434429 C 394.53663,82.945924 392.07841,78.892264 391.19743,77.077229 C 389.62544,73.838617 386.8097,71.256756 384.31606,69.343844 C 381.18187,66.939529 378.65319,64.824419 375.32154,62.268646 C 371.6407,59.444998 368.09772,56.842981 364.23655,54.466444 C 360.24868,52.011926 357.84864,49.298243 353.12887,48.04946 C 347.23347,46.48962 342.29516,43.022552 336.39368,42.925953 C 331.41359,42.844435 324.64623,39.568768 319.64713,38.495056 C 319.19061,38.397003 318.71299,38.479765 318.24591,38.472119 C 313.20338,38.389579 308.71286,36.930482 303.55584,36.846068 C 299.10426,36.773201 294.90349,35.318847 290.26698,35.242953 C 286.24111,35.177054 282.11492,34.651155 278.37934,33.662774 C 275.06358,32.785472 271.52205,32.857734 267.88159,32.798145 C 264.25446,32.738773 261.19357,31.995873 257.38381,31.933512 C 253.18017,31.864703 248.97653,31.795895 244.7729,31.727086 C 241.03632,31.665923 237.29975,31.60476 233.56318,31.543597 C 230.06015,31.486257 226.55711,31.428917 223.05409,31.371576 C 220.33475,31.327064 216.4292,31.955932 213.23424,31.903635 C 209.73121,31.846295 206.22817,31.788954 202.72515,31.731614 C 198.9168,31.669276 196.03327,30.929279 192.22737,30.866981 C 188.72435,30.809641 185.22131,30.752301 181.71828,30.69496 C 178.09115,30.635588 175.00759,31.277912 171.19783,31.215551 C 168.17468,31.166066 164.65216,30.527073 161.41201,29.669777 C 158.10492,28.794767 156.39873,28.202123 151.62619,28.124003 z"
       style="opacity:1;fill:#b0a360;fill-opacity:1;fill-rule:evenodd;stroke:#000000;stroke-width:2;stroke-linecap:butt;stroke-linejoin:miter;marker:none;marker-start:none;marker-mid:none;marker-end:none;stroke-miterlimit:4;stroke-dasharray:none;stroke-dashoffset:0;stroke-opacity:1;visibility:visible;display:inline;overflow:visible;enable-background:accumulate" />
    <path
       style="opacity:1;fill:#cfbb3d;fill-opacity:1;fill-rule:evenodd;stroke:#000000;stroke-width:2;stroke-linecap:butt;stroke-linejoin:miter;marker:none;marker-start:none;marker-mid:none;marker-end:none;stroke-miterlimit:4;stroke-dasharray:none;stroke-dashoffset:0;stroke-opacity:1;visibility:visible;display:inline;overflow:visible;enable-background:accumulate"
       d="M 258.42207,91.830159 C 257.62222,92.043979 256.48411,93.487549 255.64239,94.609829 C 255.1571,95.256889 255.84036,96.521939 256.14779,97.136809 C 256.69115,98.223519 257.58595,98.556339 256.90588,99.916479 C 256.34341,101.04143 255.75607,101.96342 255.3897,102.69615 C 254.79883,103.87789 254.65267,104.34395 256.14779,104.71773 C 257.44633,105.04237 258.34009,104.75872 259.43286,104.21234 C 260.23776,103.80988 260.19095,102.35578 260.19095,101.17996 C 260.19095,99.770749 260.73072,99.043169 260.44365,97.894899 C 260.17764,96.830869 260.19095,95.902759 260.19095,94.609829 C 260.19095,93.537569 261.60332,93.941879 261.20174,92.335549 C 260.91241,91.178219 259.46834,91.411649 258.42207,91.830159 z"
       id="path3272" />
    <path
       style="opacity:1;fill:#cfbb3d;fill-opacity:1;fill-rule:evenodd;stroke:#000000;stroke-width:2;stroke-linecap:butt;stroke-linejoin:miter;marker:none;marker-start:none;marker-mid:none;marker-end:none;stroke-miterlimit:4;stroke-dasharray:none;stroke-dashoffset:0;stroke-opacity:1;visibility:visible;display:inline;overflow:visible;enable-background:accumulate"
       d="M 40.849489,38.510983 C 40.428329,38.847912 40.007169,39.184843 39.585999,39.521772 C 38.776069,40.169718 37.983409,41.12437 37.311729,41.79605 C 36.613509,42.49427 35.444339,43.410739 34.784749,44.070328 C 33.664699,45.190375 32.698199,45.904184 31.752379,46.850001 C 30.868669,47.733709 30.472409,48.38817 29.730799,49.376977 C 28.712119,50.735222 29.355849,51.781705 29.983499,52.409347 C 30.646379,53.072229 32.750639,51.657521 33.268569,51.398557 C 34.387579,50.839052 35.585629,49.987326 36.806329,49.376977 C 38.093949,48.733168 39.195099,48.550461 40.091399,47.355396 C 40.690679,46.556354 42.158409,46.091909 43.376459,46.091909 C 44.275129,46.091909 45.306389,46.850001 46.661529,46.850001 C 48.057649,46.850001 48.518879,46.300379 49.441209,45.839211 C 50.751079,45.184277 51.131339,45.143442 51.462789,43.817631 C 51.738799,42.713573 52.463959,42.339898 52.726279,41.290655 C 52.824969,40.895861 51.883119,39.691899 52.473579,38.510983 C 52.703539,38.051048 50.685659,38.005587 49.693909,38.005587 C 48.427239,38.005587 47.704519,38.013637 46.661529,37.75289 C 45.597779,37.486951 44.054529,37.772899 43.123769,38.005587 C 42.173039,38.243271 42.033149,38.037521 40.849489,38.510983 z"
       id="path3270" />
    <path
       style="opacity:1;fill:#cfbb3d;fill-opacity:1;fill-rule:evenodd;stroke:#000000;stroke-width:2;stroke-linecap:butt;stroke-linejoin:miter;marker:none;marker-start:none;marker-mid:none;marker-end:none;stroke-miterlimit:4;stroke-dasharray:none;stroke-dashoffset:0;stroke-opacity:1;visibility:visible;display:inline;overflow:visible;enable-background:accumulate"
       d="M 75.216349,30.424661 C 73.162029,30.116491 71.754179,30.974333 69.909699,31.435452 C 68.570549,31.770243 67.181389,32.433402 66.119239,32.698939 C 64.816579,33.024605 64.224449,33.26729 63.339569,33.70973 C 62.017449,34.370791 61.352489,35.461364 60.307199,35.984007 C 59.398419,36.4384 58.338169,37.70034 57.780229,38.258285 C 57.169479,38.869032 55.970389,39.415901 55.253249,39.77447 C 54.016509,40.392839 54.685599,41.733791 55.253249,42.301446 C 56.021779,43.069967 57.834989,42.729975 58.538319,42.554143 C 59.570119,42.296194 61.007439,42.554143 62.076089,42.554143 C 63.164859,42.554143 64.211159,43.277434 65.361149,43.564933 C 66.079459,43.74451 67.410479,44.856167 68.140819,45.586514 C 69.146219,46.591911 70.874419,46.367646 71.931289,45.839211 C 73.177389,45.216161 74.387599,44.909261 75.721749,44.575724 C 77.042479,44.245541 78.086874,44.070328 79.512214,44.070328 C 80.669184,44.070328 81.811604,44.518825 83.049984,44.828421 C 84.294054,45.139437 85.610034,45.136024 86.840454,44.828421 C 88.310564,44.460893 89.758624,44.001075 90.630914,43.564933 C 91.256384,43.252194 92.647044,41.801492 93.157884,41.290655 C 94.085194,40.363347 94.899864,38.96802 95.432164,38.258285 C 96.232964,37.190551 97.247474,36.901944 97.959134,35.478612 C 98.414824,34.567242 95.091414,33.16031 94.674064,32.951637 C 93.611234,32.420218 92.410814,32.072707 91.641704,31.688149 C 90.563634,31.149117 89.275654,30.717591 88.103934,30.424661 C 86.881174,30.118972 85.998824,29.666569 84.566164,29.666569 C 83.302684,29.666569 82.039194,29.666569 80.775704,29.666569 C 79.700274,29.666569 78.657854,30.171964 77.237939,30.171964 C 76.834559,30.171964 75.692989,30.424661 75.216349,30.424661 z"
       id="path3268" />
    <path
       style="opacity:1;fill:#cfbb3d;fill-opacity:1;fill-rule:evenodd;stroke:#000000;stroke-width:2;stroke-linecap:butt;stroke-linejoin:miter;marker:none;marker-start:none;marker-mid:none;marker-end:none;stroke-miterlimit:4;stroke-dasharray:none;stroke-dashoffset:0;stroke-opacity:1;visibility:visible;display:inline;overflow:visible;enable-background:accumulate"
       d="M 250.84114,80.964164 C 250.54451,79.777644 247.24268,82.982444 247.05068,83.238444 C 246.25038,84.305509 244.55753,85.731579 243.76561,86.523509 C 242.53918,87.749939 242.69442,88.171579 243.26021,89.303179 C 243.50359,89.789939 246.26492,89.183749 246.79798,89.050489 C 248.50977,88.622539 248.72726,89.648189 249.83035,88.545089 C 250.85247,87.522969 251.18759,86.626419 252.61002,86.270809 C 253.91036,85.945729 253.83864,85.061779 255.64239,85.512719 C 257.00042,85.852229 257.09132,86.430789 258.42207,85.765419 C 259.66433,85.144289 259.93825,84.804269 259.93825,83.238444 C 259.93825,82.087384 260.59676,80.703994 260.69634,80.206074 C 260.8496,79.439814 257.30999,80.383064 257.15858,80.458774 C 256.02559,81.025274 255.06998,81.014434 254.12621,81.722254 C 253.66949,82.064804 251.42779,80.964164 250.84114,80.964164 z"
       id="path3274" />
    <path
       style="opacity:1;fill:#cfbb3d;fill-opacity:1;fill-rule:evenodd;stroke:#000000;stroke-width:2;stroke-linecap:butt;stroke-linejoin:miter;marker:none;marker-start:none;marker-mid:none;marker-end:none;stroke-miterlimit:4;stroke-dasharray:none;stroke-dashoffset:0;stroke-opacity:1;visibility:visible;display:inline;overflow:visible;enable-background:accumulate"
       d="M 163.66049,39.016378 C 163.50216,39.464901 160.99071,39.521772 159.61733,39.521772 C 158.40822,39.521772 157.63468,40.20696 156.33226,40.532563 C 155.1741,40.822105 153.93613,40.815724 153.04719,41.037958 C 151.92603,41.318249 150.66459,41.317738 149.76213,41.543353 C 148.55314,41.8456 147.47039,42.436525 146.72976,42.806841 C 145.60349,43.369975 145.0223,43.694785 144.45548,44.828421 C 143.91739,45.904597 143.68472,46.622651 143.19199,47.608094 C 142.75101,48.49006 142.70271,49.694118 142.93929,50.640464 C 143.19411,51.659733 145.79638,51.316029 146.47706,51.145859 C 147.83817,50.805584 148.59283,51.438183 149.76213,51.145859 C 150.88352,50.865511 152.57226,51.153475 153.55259,51.398557 C 154.68635,51.681996 155.85582,51.792077 156.58496,52.156649 C 157.28578,52.507058 158.15335,53.826674 158.60654,54.430927 C 159.55899,55.700854 159.54281,55.694415 161.38622,55.694415 C 162.43378,55.694415 163.58857,54.936322 164.92398,54.936322 C 166.12886,54.936322 166.55808,53.959227 167.70365,53.672834 C 168.70813,53.421715 169.61134,52.437821 170.73602,52.156649 C 171.93498,51.856911 173.10109,51.863477 174.27379,52.156649 C 175.71955,52.51809 175.75706,53.365191 177.55886,52.914742 C 178.97755,52.560069 179.72953,51.993027 181.09662,51.651255 C 182.16038,51.385315 183.70364,51.671263 184.63439,51.903952 C 186.12358,52.27625 186.94656,51.505955 187.66676,51.145859 C 188.82256,50.567962 189.63784,49.730666 190.19373,48.618884 C 190.72918,47.547989 191.50323,47.171341 191.70992,46.344606 C 191.78216,46.055659 189.05503,44.859617 188.93025,44.828421 C 187.54222,44.481415 187.17483,43.950712 185.89788,43.312236 C 184.4048,42.565698 182.78931,42.516049 181.34932,41.79605 C 180.27471,41.258744 178.23545,41.333454 177.05346,41.037958 C 175.61192,40.677572 173.94143,40.638997 172.5049,40.279865 C 171.10601,39.930142 170.21494,39.833721 168.96714,39.521772 C 167.70669,39.206659 166.76294,39.521772 165.42937,39.521772 C 164.64298,39.521772 164.72147,39.440768 163.66049,39.016378 z"
       id="path3266" />
    <path
       style="opacity:1;fill:#cfbb3d;fill-opacity:1;fill-rule:evenodd;stroke:#000000;stroke-width:2;stroke-linecap:butt;stroke-linejoin:miter;marker:none;marker-start:none;marker-mid:none;marker-end:none;stroke-miterlimit:4;stroke-dasharray:none;stroke-dashoffset:0;stroke-opacity:1;visibility:visible;display:inline;overflow:visible;enable-background:accumulate"
       d="M 63.086879,53.420137 C 62.749949,53.672834 62.413019,53.925532 62.076089,54.17823 C 61.029619,54.963076 60.754749,56.510361 59.801809,57.463297 C 59.258679,58.006425 58.791019,59.712943 58.791019,60.748369 C 58.791019,60.972797 60.363229,62.23595 60.559899,63.022642 C 60.780879,63.906553 59.687969,64.652668 59.043709,65.296923 C 58.029419,66.311215 62.056579,65.685717 63.339569,65.044221 C 64.389549,64.519237 65.309649,62.568747 65.866549,62.011853 C 66.874469,61.00393 65.644329,59.441292 65.108449,58.726785 C 64.180729,57.489811 63.154809,57.288491 64.350359,55.694415 C 65.089749,54.708558 65.762449,54.089241 66.119239,52.662044 C 66.806329,49.913686 63.130159,53.376846 63.086879,53.420137 z"
       id="path3276" />
    <path
       style="opacity:1;fill:#cfbb3d;fill-opacity:1;fill-rule:evenodd;stroke:#000000;stroke-width:2;stroke-linecap:butt;stroke-linejoin:miter;marker:none;marker-start:none;marker-mid:none;marker-end:none;stroke-miterlimit:4;stroke-dasharray:none;stroke-dashoffset:0;stroke-opacity:1;visibility:visible;display:inline;overflow:visible;enable-background:accumulate"
       d="M 272.82583,48.871581 C 273.24699,49.124279 273.66815,49.376977 274.08931,49.629674 C 275.1376,50.258645 276.06609,50.491712 276.86899,50.893162 C 277.59478,51.256059 279.16665,50.640464 280.15405,50.640464 C 281.42946,50.640464 282.39862,50.893162 283.69182,50.893162 C 285.02878,50.893162 286.02941,51.098513 287.22958,51.398557 C 288.69568,51.765079 289.14868,51.241322 289.50387,52.662044 C 289.73973,53.605537 290.31919,54.292709 290.76735,55.18902 C 291.34384,56.341987 290.9763,56.914156 292.03084,57.968693 C 292.62047,58.55832 293.21009,59.147948 293.79972,59.737572 C 294.7977,60.735548 294.73364,61.165846 293.54702,61.759158 C 292.55594,62.2547 291.0578,62.372026 290.26196,62.769947 C 289.28043,63.260713 287.59933,63.309251 286.72419,63.528041 C 285.83283,63.750877 284.53727,63.758894 283.43912,64.033432 C 282.22053,64.338083 280.81245,63.995181 279.64866,64.286134 C 278.58337,64.55245 277.28441,65.639591 276.61629,66.307712 C 275.69718,67.226817 275.09878,67.572195 274.08931,68.329291 C 273.05791,69.102844 272.74299,69.675616 272.06773,70.350869 C 271.24781,71.170795 270.20705,71.660259 269.28806,72.119752 C 268.119,72.704282 267.46446,73.6633 266.50839,74.141337 C 265.56558,74.612744 264.59191,74.84688 263.47602,75.404821 C 262.3042,75.990732 261.25627,76.470149 260.19095,75.404821 C 259.60132,74.815196 259.01169,74.225564 258.42207,73.635939 C 257.56655,72.780422 258.26395,72.01705 256.65319,71.614361 C 255.56894,71.343297 254.34535,71.361665 253.11542,71.361665 C 252.12184,71.361665 251.23427,72.14782 250.33574,72.372454 C 249.1355,72.672513 248.36633,72.398535 247.30338,71.867056 C 246.67086,71.550801 247.99284,69.109191 248.06147,68.834689 C 248.31071,67.837711 247.09529,67.898228 245.78719,67.571197 C 244.79843,67.324006 243.48764,67.830211 242.50213,68.076595 C 240.75767,68.51271 239.2773,69.087384 237.19548,69.087384 C 235.47307,69.087384 234.50997,69.387167 233.40501,68.834689 C 231.83804,68.051201 232.48886,66.971171 233.65771,65.802314 C 234.64943,64.810594 235.92053,64.105199 236.69008,63.528041 C 237.56941,62.868544 238.33717,62.00274 238.71166,61.25376 C 239.24479,60.187498 235.99315,61.475875 235.93199,61.506455 C 235.17015,61.887373 234.22307,62.613613 233.40501,63.022642 C 232.54717,63.451561 231.3355,64.183751 230.62534,64.53883 C 228.19646,65.753267 223.7294,65.044221 221.02283,65.044221 C 219.55789,65.044221 218.945,65.549619 217.48506,65.549619 C 215.85791,65.549619 214.79679,65.64102 213.9473,64.791525 C 212.98139,63.825609 214.18006,62.304441 214.4527,61.759158 C 214.95339,60.757772 215.90927,60.734104 216.22158,59.484878 C 216.63698,57.823285 213.01816,57.968693 212.17842,57.968693 C 210.7624,57.968693 209.66902,57.463297 208.13526,57.463297 C 206.55822,57.463297 204.86111,56.705205 203.08131,56.705205 C 201.28221,56.705205 199.84659,56.591443 198.28006,56.19981 C 196.96322,55.870601 196.64362,55.068774 195.50038,53.925532 C 194.21577,52.640918 195.01,52.141631 196.00578,51.145859 C 197.04606,50.10558 197.99818,49.658854 198.78545,48.871581 C 199.43365,48.223376 200.88405,48.113489 202.07052,48.113489 C 203.24547,48.113489 205.01482,47.882808 206.11367,47.608094 C 207.14548,47.350144 208.58279,47.608094 209.65144,47.608094 C 210.87695,47.608094 211.39064,46.738494 212.17842,46.344606 C 213.43229,45.717673 214.17067,45.333816 215.71618,45.333816 C 217.10507,45.333816 218.28844,45.069798 219.25395,44.828421 C 220.43436,44.533319 221.20874,43.644806 222.53902,43.312236 C 224.15235,42.908901 224.90053,43.146769 225.82409,44.070328 C 226.69007,44.936308 228.12189,44.828421 229.36185,44.828421 C 230.17639,44.828421 231.4815,44.575724 232.64692,44.575724 C 233.39075,44.575724 235.11668,45.557906 235.67929,45.839211 C 236.77387,46.386505 238.14855,45.790466 238.96436,45.586514 C 240.32786,45.245638 241.03478,45.586514 242.24942,45.586514 C 243.41484,45.586514 244.11216,46.597303 245.53449,46.597303 C 246.60423,46.597303 247.78106,46.337678 248.81956,46.597303 C 249.86164,46.857824 250.92331,47.690261 251.59923,48.366186 C 252.39819,49.165142 252.5894,49.245471 254.12621,49.629674 C 255.67134,50.015955 256.66546,49.569567 257.91667,49.882372 C 258.65616,50.067243 260.44086,49.376977 261.45444,49.376977 C 262.61325,49.376977 263.46879,49.947353 264.73951,49.629674 C 265.97774,49.320115 267.25978,49.189128 268.52997,48.871581 C 269.73899,48.569327 271.60488,48.871581 272.82583,48.871581 z"
       id="path3264" />
    <path
       style="opacity:1;fill:#cfbb3d;fill-opacity:1;fill-rule:evenodd;stroke:#000000;stroke-width:2;stroke-linecap:butt;stroke-linejoin:miter;marker:none;marker-start:none;marker-mid:none;marker-end:none;stroke-miterlimit:4;stroke-dasharray:none;stroke-dashoffset:0;stroke-opacity:1;visibility:visible;display:inline;overflow:visible;enable-background:accumulate"
       d="M 270.99093,79.056882 C 271.46713,79.65212 271.94332,80.247358 272.41951,80.842596 C 273.11136,81.707412 274.89408,82.245743 275.63379,82.985454 C 276.46496,83.816626 277.71274,84.707269 278.49093,85.485459 C 279.63796,86.632479 278.84264,88.364359 278.49093,89.771169 C 278.08584,91.391549 276.46618,92.867349 275.63379,93.699739 C 274.08682,95.246709 275.42042,96.844429 275.99093,97.985459 C 276.34159,98.686759 279.20594,98.699739 280.27665,98.699739 C 282.66128,98.699739 282.61159,99.110919 283.13379,101.19974 C 283.55872,102.89947 284.31155,103.55526 284.91951,104.77117 C 285.74904,106.43023 286.80834,106.55689 288.84808,106.55689 C 290.7583,106.55689 292.02186,104.77117 294.20522,104.77117 C 296.37752,104.77117 297.27726,104.98607 298.49093,106.19974 C 299.15013,106.85893 301.90678,107.41085 302.77665,107.62832 C 304.98839,108.18125 305.84793,107.52125 307.77665,106.55689 C 309.03692,105.92675 311.4698,105.18717 313.13379,104.77117 C 314.19656,104.50548 316.49739,101.76472 317.06236,101.19974 C 318.45235,99.809759 319.06649,99.195619 320.27665,97.985459 C 321.52657,96.735539 323.08335,95.689249 324.91951,94.771169 C 326.46662,93.997619 328.18319,93.699739 329.91951,93.699739 C 331.5872,93.699739 334.04068,93.026589 335.63379,92.628319 C 337.28325,92.215949 339.63253,92.628319 341.34808,92.628319 C 343.28287,92.628319 344.76859,92.666049 346.34808,92.271169 C 348.35372,91.769759 350.60968,91.556889 352.77665,91.556889 C 354.65176,91.556889 356.27162,91.914029 358.13379,91.914029 C 360.13493,91.914029 361.99536,91.927429 363.84808,91.556889 C 365.84815,91.156869 365.92213,90.403519 366.34808,88.699739 C 366.59448,87.714139 364.07284,86.791649 363.13379,86.556889 C 361.10332,86.049269 359.93086,85.312569 358.13379,84.414029 C 356.9726,83.833426 355.75418,82.511936 355.27665,81.556882 C 354.53657,80.076715 353.2385,79.118563 352.77665,77.271168 C 352.30611,75.389019 352.14696,74.141483 350.99094,72.985454 C 350.04845,72.042969 347.2659,74.312256 347.06236,74.414025 C 345.34252,75.273948 343.7415,75.075021 342.41951,74.414025 C 341.23263,73.820587 339.96956,73.189052 338.84808,72.628311 C 337.59698,72.002762 336.49714,70.634513 335.63379,69.771168 C 334.39231,68.529681 335.05174,66.970253 332.41951,67.628311 C 330.77322,68.039881 329.29355,67.967787 327.41951,68.342596 C 325.08943,68.808611 323.58784,68.651287 322.06236,69.414025 C 320.95383,69.968294 318.32539,68.438395 317.41951,67.985454 C 316.29391,67.422656 313.35399,67.985454 312.06236,67.985454 C 310.17819,67.985454 309.12634,68.699739 307.06236,68.699739 C 305.26498,68.699739 303.63109,69.414025 301.70522,69.414025 C 299.92828,69.414025 299.90854,69.034947 298.84808,66.914025 C 297.97979,65.177452 296.13355,66.41427 295.27665,67.271168 C 294.08685,68.460967 292.76229,66.992544 291.70522,66.199739 C 290.41198,65.229806 288.47828,66.477085 287.41951,67.271168 C 285.47227,68.731595 285.19472,70.169276 283.13379,71.199739 C 282.10306,71.715106 281.80881,73.316699 280.27665,73.699739 C 278.52609,74.137378 277.46576,74.759605 275.99093,75.128311 C 274.79627,75.426977 273.44859,76.956366 272.77665,77.628311 C 272.23764,78.167322 271.58617,78.580692 270.99093,79.056882 z"
       id="path3362" />
    <path
       style="opacity:1;fill:#cfbb3d;fill-opacity:1;fill-rule:evenodd;stroke:#000000;stroke-width:2;stroke-linecap:butt;stroke-linejoin:miter;marker:none;marker-start:none;marker-mid:none;marker-end:none;stroke-miterlimit:4;stroke-dasharray:none;stroke-dashoffset:0;stroke-opacity:1;visibility:visible;display:inline;overflow:visible;enable-background:accumulate"
       d="M 288.49308,46.091909 C 288.83124,44.739243 291.29762,46.874875 292.28354,47.860792 C 293.40848,48.985735 292.44343,50.135069 294.30512,50.135069 C 295.64188,50.135069 296.92768,49.329181 297.84288,48.871581 C 299.10175,48.242146 300.25131,47.473945 300.87525,46.850001 C 301.77468,45.950573 302.42829,45.007408 302.89683,44.070328 C 303.50963,42.844735 303.88337,42.204461 303.65493,41.290655 C 303.4914,40.636534 300.47034,40.785261 299.86447,40.785261 C 298.76874,40.785261 297.53886,41.808881 296.5794,42.048748 C 295.12324,42.412786 295.46967,43.968713 294.05242,44.323026 C 293.20491,44.534905 292.37255,44.828421 291.02005,44.828421 C 290.19091,44.828421 289.34033,45.414104 288.49308,46.091909 z"
       id="path3278" />
    <path
       style="opacity:1;fill:#cfbb3d;fill-opacity:1;fill-rule:evenodd;stroke:#000000;stroke-width:2;stroke-linecap:butt;stroke-linejoin:miter;marker:none;marker-start:none;marker-mid:none;marker-end:none;stroke-miterlimit:4;stroke-dasharray:none;stroke-dashoffset:0;stroke-opacity:1;visibility:visible;display:inline;overflow:visible;enable-background:accumulate"
       d="M 219.50665,69.845478 C 219.05304,69.845478 218.66432,70.182407 218.24316,70.350869 C 217.14932,70.788405 215.6786,72.410032 214.95809,73.130548 C 213.74096,74.347681 212.93976,75.401581 211.67303,76.668313 C 210.62154,77.719794 210.15684,77.948344 210.15684,79.195284 C 210.15684,80.089084 213.48388,79.047944 213.6946,78.942584 C 215.13326,78.223264 216.53103,77.636536 217.48506,76.921009 C 218.32688,76.289652 219.97696,76.108511 220.77013,75.91022 C 222.02079,75.597552 223.42259,75.404821 224.8133,75.404821 C 226.34693,75.404821 226.58218,74.911622 226.58218,73.383243 C 226.58218,71.66205 225.53254,71.361665 224.0552,71.361665 C 221.75438,71.361665 222.52741,71.567952 222.03362,69.592782 C 221.60424,67.875261 220.56668,68.520429 219.50665,69.845478 z"
       id="path3280" />
    <path
       style="opacity:1;fill:#cce5ea;fill-opacity:0.47136566;fill-rule:evenodd;stroke:#000000;stroke-width:2;stroke-linecap:butt;stroke-linejoin:miter;marker:none;marker-start:none;marker-mid:none;marker-end:none;stroke-miterlimit:4;stroke-dasharray:none;stroke-dashoffset:0;stroke-opacity:1;visibility:visible;display:inline;overflow:visible;enable-background:accumulate"
       d="M 150.01052,19.208735 C 145.96035,19.208735 141.91017,19.208735 137.86,19.208735 C 133.7681,19.208735 131.93938,18.494 127.85369,18.494 C 124.28,18.494 120.70632,18.494 117.13264,18.494 C 113.59249,18.494 109.93817,19.923477 106.41159,19.923477 C 102.67714,19.923477 99.066999,19.794094 95.690543,20.638211 C 92.296003,21.486844 86.848703,21.352946 83.540023,21.352946 C 80.328273,21.352946 75.307276,22.696398 72.104226,23.497158 C 68.524586,24.392064 64.793436,24.788803 61.383186,25.641369 C 57.283476,26.666295 53.376136,27.464443 49.232656,28.500315 C 45.192816,29.510276 41.230426,31.071959 37.79688,32.788731 C 34.38288,34.495731 30.49484,35.367641 27.07583,37.077153 C 23.919302,38.655414 21.875719,40.749304 19.213721,42.080304 C 15.889677,43.742332 15.070521,46.502581 14.210565,49.942407 C 13.458375,52.95117 14.267157,57.316143 14.925301,59.948722 C 15.756213,63.272363 19.241175,64.979327 20.643196,66.381344 C 22.656284,68.394431 25.46101,69.24029 29.22004,69.24029 C 32.55548,69.24029 35.89091,69.24029 39.226346,69.24029 C 42.800026,69.24029 46.373706,69.24029 49.947396,69.24029 C 53.832546,69.24029 56.785796,68.525555 60.668436,68.525555 C 64.581106,68.525555 67.573666,67.81082 71.389486,67.81082 C 75.549066,67.81082 78.806523,67.096079 82.825283,67.096079 C 86.426433,67.096079 89.873193,65.666609 93.546333,65.666609 C 97.358263,65.666609 101.17019,65.666609 104.98212,65.666609 C 109.14428,65.666609 112.30945,64.951874 116.4179,64.951874 C 120.25715,64.951874 123.57528,64.237133 127.13895,64.237133 C 130.92327,64.237133 134.21492,64.254984 137.14526,63.522398 C 140.44626,62.69715 145.14779,63.522398 148.58105,63.522398 C 152.7532,63.522398 155.98688,64.237133 160.01683,64.237133 C 163.55698,64.237133 167.2113,65.666609 170.73788,65.666609 C 174.47747,65.666609 178.05236,67.096079 182.17366,67.096079 C 185.84612,67.096079 190.94796,68.574921 193.60945,69.24029 C 196.33745,69.922293 199.69356,70.761317 202.18629,71.384501 C 205.93658,72.322073 208.76891,73.603713 211.47786,74.958182 C 214.35752,76.39801 219.06262,77.03306 222.19891,77.817128 C 226.01702,78.77166 229.59664,83.008064 232.20522,84.964502 C 235.22977,87.232912 237.73084,88.442042 240.78206,89.967652 C 244.61999,91.886622 247.32782,93.804862 250.78837,96.400282 C 253.68155,98.570162 255.13143,100.00128 257.93574,101.40344 C 261.7949,103.33301 264.19094,104.53104 267.94205,106.40659 C 270.76702,107.81908 274.46438,108.57323 277.23363,109.26554 C 280.48785,110.07909 283.90733,111.53029 286.5252,112.83922 C 288.42801,113.79062 293.27097,114.52566 295.10204,114.98343 C 298.37037,115.80051 302.48881,115.69817 305.82309,115.69817 C 309.15853,115.69817 312.49396,115.69817 315.8294,115.69817 C 319.41465,115.69817 322.34595,115.67719 325.12098,114.98343 C 329.03795,114.00419 330.30398,113.8214 333.69781,112.12448 C 336.22424,110.86127 339.30008,109.29445 342.27465,108.5508 C 345.55546,107.7306 348.09385,106.55995 351.56622,105.69185 C 354.97331,104.84009 357.39487,104.41338 360.8578,103.54764 C 364.46021,102.64704 367.41243,102.11817 370.86411,102.11817 C 374.3377,102.11817 379.25111,100.42625 381.58516,99.259232 C 381.79826,99.152682 382.06166,99.259232 382.2999,99.259232 C 385.02696,99.259232 390.89227,94.240542 392.30621,92.826592 C 394.15287,90.979942 395.21072,87.641202 395.87989,84.964502 C 396.77156,81.39784 397.14971,77.74101 398.0241,74.243447 C 398.66877,71.664763 396.09397,67.52424 395.16516,65.666609 C 393.50784,62.351971 390.59297,59.735897 388.01779,57.804511 C 384.78109,55.376988 382.16681,53.237588 378.72622,50.657149 C 374.92499,47.806226 371.2681,45.181643 367.29043,42.795045 C 363.18225,40.330136 360.68916,37.571039 355.85465,36.362411 C 349.81592,34.852734 344.72148,31.359261 338.70097,31.359261 C 333.62045,31.359261 326.66377,28.094137 321.54729,27.070838 C 321.08005,26.977392 320.59431,27.070838 320.11782,27.070838 C 314.97359,27.070838 310.36937,25.641369 305.10835,25.641369 C 300.56699,25.641369 296.25837,24.211892 291.52836,24.211892 C 287.42129,24.211892 283.20422,23.73902 279.37784,22.782423 C 275.98146,21.933324 272.37068,22.067681 268.65679,22.067681 C 264.95651,22.067681 261.82233,21.352946 257.93574,21.352946 C 253.64732,21.352946 249.3589,21.352946 245.07048,21.352946 C 241.25855,21.352946 237.44662,21.352946 233.63469,21.352946 C 230.06101,21.352946 226.48733,21.352946 222.91365,21.352946 C 220.13948,21.352946 216.16671,22.067681 212.90734,22.067681 C 209.33366,22.067681 205.75997,22.067681 202.18629,22.067681 C 198.30113,22.067681 195.34789,21.352946 191.46524,21.352946 C 187.89156,21.352946 184.31788,21.352946 180.74419,21.352946 C 177.04391,21.352946 173.90973,22.067681 170.02314,22.067681 C 166.93902,22.067681 163.33575,21.467938 160.01683,20.638211 C 156.62933,19.791334 154.87931,19.208735 150.01052,19.208735 z"
       id="path3258" />
    <path
       style="opacity:1;fill:#e3f88a;fill-opacity:1;fill-rule:evenodd;stroke:#000000;stroke-width:2;stroke-linecap:butt;stroke-linejoin:miter;marker:none;marker-start:none;marker-mid:none;marker-end:none;stroke-miterlimit:4;stroke-dasharray:none;stroke-dashoffset:0;stroke-opacity:1;visibility:visible;display:inline;overflow:visible;enable-background:accumulate"
       d="M 293.93644,71.813834 C 293.75857,73.283613 292.68197,74.50325 290.90053,75.304151 C 289.61025,75.884238 288.88122,76.566234 287.2022,77.321087 C 285.96481,77.877394 284.40034,78.049404 283.17267,78.601334 C 281.45133,79.375224 283.93901,82.072834 284.10686,82.255084 C 285.01478,83.240964 287.44775,83.968519 288.36359,84.237959 C 289.79903,84.660259 290.80545,85.587179 291.89848,86.191119 C 293.09799,86.853899 293.22514,89.092979 293.16387,90.581559 C 293.11096,91.866779 292.32372,93.425979 292.24889,95.243789 C 292.19386,96.580489 295.05644,97.167009 296.1447,97.211799 C 297.98501,97.287559 299.54771,97.045139 301.22726,96.697969 C 303.0531,96.320549 304.21984,97.213079 305.52856,97.598089 C 306.90981,98.004439 307.12935,98.877509 309.10803,98.468489 C 309.72488,98.340989 311.72248,96.060779 312.11424,95.700009 C 312.89578,94.980269 314.52385,93.604769 315.48136,92.946379 C 317.07157,91.852949 317.75766,91.044459 319.91637,90.598249 C 321.75729,90.217709 322.67831,89.661119 324.66773,89.347709 C 326.15212,89.113869 328.23007,88.342969 329.4191,88.097179 C 330.70725,87.830909 332.51523,87.457189 333.79469,87.192719 C 335.36785,86.867529 337.21948,86.610639 338.87725,86.678879 C 340.73355,86.755289 342.26193,85.442469 344.00439,85.082289 C 345.62634,84.747019 347.56267,84.368159 348.75575,83.831764 C 350.06769,83.241944 351.40805,82.534094 352.45408,81.814834 C 353.31225,81.224754 356.06926,79.794464 352.90414,79.664174 C 351.21986,79.594844 349.53557,79.525514 347.85128,79.456174 C 345.29208,79.350834 345.84149,78.821974 345.42886,76.825751 C 345.05189,75.002061 342.57771,75.26803 341.14241,75.564714 C 339.27594,75.950529 339.09072,76.516656 338.28479,74.724021 C 337.57779,73.151449 336.35236,72.877003 334.76475,72.40994 C 333.08505,71.915785 331.87084,72.015182 330.10253,71.494961 C 328.67989,71.076429 327.11829,70.251726 325.83094,69.873002 C 324.341,69.434672 322.88542,69.371743 321.52964,68.972874 C 320.07113,68.543792 318.00309,68.827705 316.47679,68.764874 C 314.68725,68.691211 313.66793,68.987648 312.11606,69.308431 C 310.34021,69.675509 309.32567,69.948667 307.77018,69.491057 C 306.21915,69.034756 304.34581,68.988567 302.73219,68.922142 C 301.2481,68.861052 299.65293,68.016248 298.44574,67.661099 C 296.51066,67.091816 295.85984,66.406395 294.14444,66.760978 C 291.49224,67.309211 291.4421,66.013264 290.83675,68.070935 C 290.75176,68.359843 293.62689,71.246221 293.93644,71.813834 z"
       id="path2396" />
    <path
       style="opacity:1;fill:#e3f88a;fill-opacity:1;fill-rule:evenodd;stroke:#000000;stroke-width:2;stroke-linecap:butt;stroke-linejoin:miter;marker:none;marker-start:none;marker-mid:none;marker-end:none;stroke-miterlimit:4;stroke-dasharray:none;stroke-dashoffset:0;stroke-opacity:1;visibility:visible;display:inline;overflow:visible;enable-background:accumulate"
       d="M 242.64768,53.07216 C 242.86353,53.683599 243.07938,54.295031 243.29523,54.90647 C 243.68084,55.998783 246.1961,56.110471 247.58168,56.167507 C 249.33833,56.239818 251.08486,56.337984 252.64938,56.01459 C 254.76144,55.578009 255.91758,56.192646 256.56005,57.621691 C 257.18869,59.019971 257.64853,59.934789 258.59185,60.959099 C 259.32201,61.751962 262.14367,61.331845 263.28378,61.152247 C 264.65648,60.935991 266.14208,60.919257 267.64451,60.608691 C 269.10778,60.306226 270.54272,59.404937 271.70375,58.606612 C 272.54814,58.026008 275.14543,58.342503 276.4254,58.077921 C 278.15059,57.721307 279.8471,57.907394 281.50797,57.564089 C 282.77719,57.301728 284.00862,56.302876 284.84537,55.532287 C 286.42093,54.081329 283.00427,52.925795 282.06203,52.887007 C 280.37775,52.817674 278.69346,52.748334 277.00917,52.679001 C 275.19875,52.604474 273.71897,52.532955 272.3321,52.124944 C 270.6023,51.616051 269.735,50.630316 268.07537,50.142069 C 266.82646,49.774651 264.88668,50.443353 263.71464,50.685619 C 262.36433,50.964734 260.72406,51.498774 259.68511,51.965858 C 258.17146,52.646369 257.43834,52.87759 255.65559,53.246105 C 254.95415,53.391097 252.61428,50.697753 252.16526,50.210185 C 251.67388,49.67662 247.91769,50.035335 247.11241,50.002186 C 245.18446,49.92282 243.57889,50.996135 242.64768,53.07216 z"
       id="path3182" />
    <path
       style="opacity:1;fill:#e3f88a;fill-opacity:1;fill-rule:evenodd;stroke:#000000;stroke-width:2;stroke-linecap:butt;stroke-linejoin:miter;marker:none;marker-start:none;marker-mid:none;marker-end:none;stroke-miterlimit:4;stroke-dasharray:none;stroke-dashoffset:0;stroke-opacity:1;visibility:visible;display:inline;overflow:visible;enable-background:accumulate"
       d="M 248.501,60.182178 C 247.88956,60.398031 247.27813,60.613877 246.66669,60.829723 C 244.46365,61.607451 244.7462,61.459813 244.4269,62.545179 C 244.32337,62.897094 248.4625,63.307786 249.08912,63.460151 C 249.58192,63.579989 251.96891,62.494107 253.46471,62.555686 C 253.65478,62.563504 252.48073,60.367033 252.4711,60.345608 C 251.93645,59.156388 249.10411,59.969268 248.501,60.182178 z"
       id="path3194" />
    <path
       style="opacity:1;fill:#e3f88a;fill-opacity:1;fill-rule:evenodd;stroke:#000000;stroke-width:2;stroke-linecap:butt;stroke-linejoin:miter;marker:none;marker-start:none;marker-mid:none;marker-end:none;stroke-miterlimit:4;stroke-dasharray:none;stroke-dashoffset:0;stroke-opacity:1;visibility:visible;display:inline;overflow:visible;enable-background:accumulate"
       d="M 222.75262,53.337768 C 222.48724,53.929403 222.22187,54.521016 221.9565,55.112651 C 221.9196,55.194904 226.1026,57.062979 226.21322,57.095526 C 227.5745,57.496001 225.59415,59.600753 228.63565,59.725954 C 229.69393,59.769519 231.1831,59.107758 232.99638,59.182397 C 234.89475,59.260539 235.83001,58.309022 236.67985,57.526383 C 238.10502,56.213901 236.18104,55.036009 235.35503,54.579609 C 234.19753,53.940052 231.70936,53.706474 230.33189,53.649771 C 228.64761,53.580438 226.96333,53.511105 225.27904,53.441771 C 223.55629,53.370853 226.00234,52.825818 222.75262,53.337768 z"
       id="path3196" />
    <path
       style="opacity:1;fill:#e3f88a;fill-opacity:1;fill-rule:evenodd;stroke:#000000;stroke-width:2;stroke-linecap:butt;stroke-linejoin:miter;marker:none;marker-start:none;marker-mid:none;marker-end:none;stroke-miterlimit:4;stroke-dasharray:none;stroke-dashoffset:0;stroke-opacity:1;visibility:visible;display:inline;overflow:visible;enable-background:accumulate"
       d="M 207.29257,51.255241 C 207.8842,51.520616 208.47581,51.785991 209.06745,52.051366 C 210.03695,52.486235 212.6397,51.836885 214.13515,51.89845 C 215.47774,51.953709 217.07686,52.095524 218.84195,51.730668 C 220.11809,51.466878 221.34886,50.675706 222.51055,50.435569 C 223.59782,50.210822 226.15135,50.946975 227.54855,51.004485 C 229.50794,51.085146 230.48667,50.763902 232.25534,50.83671 C 233.78369,50.899625 235.87978,50.266436 237.35277,49.961962 C 239.11404,49.59789 240.24739,49.191953 241.3823,48.681715 C 243.59353,47.68759 241.16286,47.15601 240.01291,46.817698 C 238.35601,46.330256 236.37808,47.032277 234.93034,47.331538 C 233.31641,47.665147 231.54534,47.553718 229.86263,47.48445 C 228.7473,47.438537 226.72856,46.197142 225.59105,45.862492 C 223.98271,45.389336 222.94458,46.698051 221.92243,47.157593 C 220.88048,47.62604 218.79338,47.390317 217.21565,47.325368 C 216.36151,47.290211 213.99118,46.831104 212.53856,46.771303 C 210.98239,46.707245 209.65404,47.691555 208.8551,48.427321 C 208.0629,49.156887 207.88418,50.355326 207.29257,51.255241 z"
       id="path3200" />
    <path
       style="opacity:1;fill:#e3f88a;fill-opacity:1;fill-rule:evenodd;stroke:#000000;stroke-width:2;stroke-linecap:butt;stroke-linejoin:miter;marker:none;marker-start:none;marker-mid:none;marker-end:none;stroke-miterlimit:4;stroke-dasharray:none;stroke-dashoffset:0;stroke-opacity:1;visibility:visible;display:inline;overflow:visible;enable-background:accumulate"
       d="M 151.60285,42.816768 C 151.70334,43.302945 151.80385,43.789118 151.90434,44.275295 C 152.13969,45.413858 153.76918,46.924327 155.03374,47.296355 C 156.88722,47.841635 157.76467,46.95418 159.04841,46.377029 C 160.07962,45.913421 161.63862,47.992778 162.22239,48.315337 C 163.35836,48.943007 166.24906,48.377609 167.2901,48.162421 C 168.52117,47.907944 167.59671,45.449395 168.52142,44.597814 C 170.58119,42.700925 170.68318,46.363886 170.22201,47.198525 C 169.5046,48.496916 174.04859,47.749464 174.17725,47.722869 C 175.93685,47.35915 177.72226,48.21785 179.20039,48.652705 C 180.65896,49.081808 182.49987,47.970678 183.57598,47.74824 C 185.87851,47.272288 185.67801,48.620321 186.88368,46.438282 C 187.62025,45.105186 184.07322,45.246179 182.61209,44.816323 C 181.14554,44.384878 181.55077,42.978086 178.68655,43.570139 C 176.42428,44.037772 177.06435,43.901543 176.21956,42.022465 C 175.76551,41.01252 173.40042,40.371197 172.32375,40.054449 C 170.8337,39.616086 169.87265,39.242031 168.39822,38.808265 C 167.00826,38.399351 166.39271,37.938717 164.78904,38.659692 C 163.58997,39.198777 162.13694,39.497795 161.12043,39.954798 C 159.88766,40.509024 157.7713,40.289241 156.7597,40.498344 C 154.66908,40.930489 153.15287,40.458974 151.60285,42.816768 z"
       id="path3228" />
    <path
       style="opacity:1;fill:#e3f88a;fill-opacity:1;fill-rule:evenodd;stroke:#000000;stroke-width:2;stroke-linecap:butt;stroke-linejoin:miter;marker:none;marker-start:none;marker-mid:none;marker-end:none;stroke-miterlimit:4;stroke-dasharray:none;stroke-dashoffset:0;stroke-opacity:1;visibility:visible;display:inline;overflow:visible;enable-background:accumulate"
       d="M 62.995299,34.830882 C 63.211149,35.442319 63.426999,36.053752 63.642849,36.66519 C 64.027989,37.756159 67.830479,36.837571 68.695699,36.873189 C 71.038189,36.969619 71.201279,37.331598 72.245459,38.465432 C 73.019699,39.30616 76.549359,38.02309 76.967099,37.93674 C 78.647014,37.589492 80.250404,37.70537 81.688754,37.408047 C 83.353054,37.064025 85.130214,37.511323 86.756464,37.255129 C 88.660684,36.955145 88.990214,35.686533 89.070544,33.735098 C 89.156484,31.647488 91.870804,32.290669 89.219114,30.125913 C 88.505154,29.543054 85.139764,29.957986 84.166264,29.917914 C 82.262564,29.839548 81.424234,30.528097 79.444614,30.446607 C 77.321219,30.359194 76.663639,29.993756 75.143309,29.546482 C 73.654739,29.108555 71.399249,30.718103 70.737999,31.172785 C 69.845149,31.786721 67.939279,32.198614 66.708479,32.453028 C 66.022699,32.594785 63.796719,34.393814 62.995299,34.830882 z"
       id="path3238" />
    <path
       style="opacity:1;fill:#e3f88a;fill-opacity:1;fill-rule:evenodd;stroke:#000000;stroke-width:2;stroke-linecap:butt;stroke-linejoin:miter;marker:none;marker-start:none;marker-mid:none;marker-end:none;stroke-miterlimit:4;stroke-dasharray:none;stroke-dashoffset:0;stroke-opacity:1;visibility:visible;display:inline;overflow:visible;enable-background:accumulate"
       d="M 39.312769,39.278937 C 38.696379,39.61509 38.079999,39.951248 37.463609,40.2874 C 36.119709,41.020318 36.489199,43.105692 38.051729,43.565375 C 38.746629,43.76981 41.259439,42.097164 42.096109,41.92422 C 42.783989,41.782028 43.963679,39.667644 45.102309,39.15573 C 47.096829,38.259035 47.406259,39.946772 46.259349,37.395712 C 45.614429,35.961211 42.955549,38.172564 42.605609,38.329896 C 41.617129,38.774296 40.757069,39.051407 39.312769,39.278937 z"
       id="path3254" />
    <path
       style="opacity:1;fill:#ad9e50;fill-opacity:1;fill-rule:evenodd;stroke:#000000;stroke-width:2;stroke-linecap:butt;stroke-linejoin:miter;marker:none;marker-start:none;marker-mid:none;marker-end:none;stroke-miterlimit:4;stroke-dasharray:none;stroke-dashoffset:0;stroke-opacity:1;visibility:visible;display:inline;overflow:visible;enable-background:accumulate"
       d="M 371.5895,150.34818 C 371.5895,147.94424 370.57657,150.41492 369.24573,151.40951 C 367.91489,152.4041 362.45838,155.9081 360.02543,155.7875 C 358.00275,155.28183 355.80243,155.61907 353.88142,155.13882 C 352.45347,154.78183 351.77186,153.71857 350.30999,153.35311 C 348.67673,152.94479 347.4221,151.90916 346.02427,151.21025 C 344.5367,150.46646 343.55566,150.14667 342.0957,149.78168 C 340.95515,149.49654 339.10758,149.42454 337.45285,149.42454 C 335.64487,149.42454 334.63042,150.12147 333.16713,150.85311 C 332.04943,151.41196 331.56172,152.28168 329.5957,152.28168 C 328.9301,152.28168 326.80517,154.03409 326.02427,154.42454 C 324.61711,155.12812 323.48649,156.13041 321.73856,156.56739 C 320.64061,156.84188 319.27484,158.15639 318.16713,158.71025 C 316.74857,159.41953 315.61073,160.15292 314.23856,160.49596 C 312.8305,160.84798 311.43913,162.07425 310.30999,162.63882 C 308.90098,163.34333 307.98143,163.8031 306.73856,164.42454 C 306.63208,164.47778 303.10761,165.13883 302.98856,165.13883 C 302.86951,165.13883 302.88128,165.28796 299.90553,165.14046 C 296.92978,164.99296 293.97051,164.82364 290.99478,164.67613 C 288.02008,164.52869 284.31855,164.45867 281.44281,163.70325 C 279.83167,163.28003 275.55387,162.4866 273.90295,161.69114 C 271.63165,160.59677 268.62942,159.36988 265.76609,158.61771 C 263.32945,157.97765 260.08023,157.2338 257.62923,156.05283 C 254.3747,154.48471 252.28787,153.50925 248.93959,151.89595 C 246.50653,150.72363 245.31164,149.57776 242.83695,147.82752 C 239.87697,145.73405 237.5435,144.19163 234.21364,142.58721 C 231.56634,141.31166 229.39349,140.28216 226.80645,138.45245 C 224.5752,136.8744 221.58688,133.54186 218.22737,132.65936 C 215.4678,131.93447 211.30648,131.27617 208.80806,130.07236 C 207.2703,129.33143 205.67214,128.59975 203.83308,127.94971 C 201.99402,127.29966 202.88664,127.55298 200.69332,126.97682 C 198.49999,126.40066 195.55378,125.61736 193.15345,124.98683 C 190.81164,124.37167 186.30301,123.07079 183.0266,122.90839 C 179.34976,122.72613 176.23605,121.48177 172.89975,121.31639 C 169.75348,121.16043 166.57247,119.92519 163.41411,119.76862 C 159.81876,119.59041 156.98734,118.91391 153.26515,118.7294 C 150.20214,118.57758 146.03536,117.74985 143.04985,118.22085 C 140.39958,118.63896 137.44895,118.47666 134.07277,118.30929 C 130.89342,118.15169 127.92389,118.5454 124.49869,118.37563 C 120.83331,118.19393 117.95246,118.60391 114.23917,118.41985 C 110.52588,118.23579 114.33749,118.41778 111.76274,118.28718 C 109.18799,118.15659 106.62051,118.01681 104.04599,117.88918 C 100.76896,117.72674 97.618384,118.66755 94.405574,118.50829 C 90.820214,118.33056 87.879174,118.71435 84.168174,118.5304 C 80.763874,118.36165 78.062694,118.76977 74.571979,118.59674 C 71.108039,118.42503 68.441949,118.83489 64.975789,118.66307 C 61.787499,118.50504 58.590009,118.31256 55.401709,118.15452 C 52.425979,118.007 49.466709,117.8819 46.490959,117.73441 C 43.137329,117.56817 40.648279,116.80782 38.951099,115.21375 C 38.024809,114.34373 35.985139,113.26932 34.860559,111.63176 C 35.285719,113.50492 35.614009,115.38145 36.032449,117.00474 C 36.692569,119.56568 36.965909,122.09781 37.602329,124.56672 C 38.238749,127.03564 38.571239,135.68203 39.127989,138.165 C 39.684749,140.64797 42.610999,142.06891 43.749199,143.1621 C 45.383449,144.73173 47.772319,145.47484 51.001619,145.63853 C 53.867029,145.78376 56.715299,145.91338 59.580699,146.05864 C 62.650759,146.21425 65.730919,146.38948 68.800999,146.54508 C 72.138629,146.71427 74.685789,146.30967 78.021304,146.47875 C 81.382594,146.64912 84.007744,146.24625 87.285824,146.41242 C 90.859224,146.59354 93.672804,146.2153 97.125234,146.39031 C 100.21891,146.54712 103.25634,145.63336 106.41187,145.79331 C 109.6866,145.9593 112.95442,146.13588 116.22917,146.30186 C 119.80477,146.48311 122.58332,146.10085 126.1128,146.27975 C 129.41101,146.44692 132.27164,146.05824 135.3331,146.21342 C 138.5841,146.37822 141.42651,146.53668 143.97851,146.12498 C 146.85333,145.66119 150.84637,146.46192 153.79581,146.61142 C 157.37999,146.7931 160.12895,147.47516 163.591,147.65064 C 166.63226,147.80481 169.69325,149.00061 172.72286,149.15419 C 175.93546,149.31702 178.93331,150.54461 182.47382,150.72407 C 185.62874,150.88398 189.9477,152.17467 192.20268,152.7804 C 194.51401,153.40127 197.36521,154.18096 199.47721,154.74828 C 202.65467,155.6018 205.04133,156.66239 207.30451,157.77749 C 209.71031,158.96284 213.71278,159.6286 216.37004,160.34237 C 219.60499,161.21133 222.46893,164.49316 224.61745,166.04702 C 227.10856,167.84869 229.21017,168.85946 231.75932,170.11545 C 234.96572,171.69527 237.20073,173.20594 240.05096,175.26732 C 242.43388,176.99071 243.58964,178.11506 245.93249,179.26942 C 249.15663,180.85799 251.17871,181.838 254.31257,183.38207 C 256.6727,184.54492 259.79358,185.27248 262.13988,185.90273 C 264.89706,186.64337 267.7801,187.85434 269.96719,188.93194 C 294.24115,193.29747 340.5769,193.6885 361.79431,178.80508 C 363.46801,177.52602 364.52016,175.10815 365.22152,173.16677 C 366.15606,170.57991 366.67096,167.92042 367.5874,165.38369 C 368.0573,164.58707 368.5326,163.79231 369.00251,162.99569 C 369.74389,161.73887 369.69588,158.25686 370.04173,156.91516 C 370.6645,154.49914 371.5895,152.75212 371.5895,150.34818 z"
       id="path3301"
       sodipodi:nodetypes="cscsssssssssssssscsssssssssssccssssssssscsssssssscsssssssssssssssssssssssssssssccscsss" />
    <path
       sodipodi:nodetypes="cscssssssssssssssssssscscscsssssssssssssssssssssssssssssscssssssssssscsssssssssssssssssssc"
       id="path3291"
       d="M 343.16713,119.42454 C 343.16713,117.90045 343.44616,116.58692 344.95285,116.21025 C 345.63706,116.0392 345.58248,116.42013 346.02427,116.56739 C 346.85752,116.35908 347.45285,121.57559 347.45285,122.28168 C 347.45285,123.55424 347.93217,125.98468 348.16713,126.92454 C 348.57677,128.56308 348.52427,129.80594 348.52427,131.56739 C 348.52427,133.55067 348.24466,134.47157 347.80999,136.21025 C 347.46329,137.59703 347.01979,139.01389 346.73856,140.13882 C 346.36471,141.63422 346.23607,142.92952 345.66713,144.06739 C 345.04099,145.31967 344.45306,146.49553 343.88142,147.63882 C 343.16263,149.07641 342.07034,150.18954 341.38142,151.56739 C 340.51031,153.30961 339.65331,153.47982 339.23856,155.13882 C 338.92821,156.38021 337.98381,158.36262 337.45285,159.42454 C 336.92262,160.48499 337.45285,163.2126 337.45285,164.42454 C 337.45285,166.33956 337.84319,168.12879 338.16713,169.42454 C 338.61193,171.20371 338.48719,172.4905 338.88142,174.06739 C 339.31514,175.80229 339.88144,177.35319 340.30999,179.06739 C 340.4918,179.79465 342.35447,181.67432 342.80999,182.28168 C 343.54185,183.2575 345.61177,183.35311 347.0957,183.35311 C 348.76237,183.35311 350.42904,183.35311 352.0957,183.35311 C 353.40878,183.35311 354.95101,182.55 356.02427,182.28168 C 357.8016,181.83735 358.42927,181.07918 359.5957,180.49596 C 360.12585,180.23089 361.02769,179.30627 361.78878,178.80213 C 362.90171,184.12599 360.80756,184.98492 359.67512,189.51468 C 358.83367,192.8805 358.23861,194.546 357.53091,197.37677 C 350.21073,249.28757 240.85386,207.64139 157.59029,185.63753 C 115.49642,174.51349 70.666179,185.03523 50.908929,173.07574 C 50.108029,169.87211 49.499079,167.43633 48.764719,164.4989 C 47.984129,161.37651 47.495309,159.42123 46.620509,155.92206 C 45.866319,152.90527 43.774989,149.18965 43.761559,146.63048 C 43.755509,145.47478 43.749439,144.31907 43.743379,143.16336 C 45.377629,144.733 47.763109,145.47581 50.992399,145.6395 C 53.857819,145.78473 56.720969,145.9143 59.586369,146.05956 C 62.656439,146.21517 65.725759,146.39034 68.795829,146.54594 C 72.133469,146.71512 74.692589,146.31055 78.028094,146.47962 C 81.389384,146.64999 84.005064,146.24713 87.283144,146.4133 C 90.856554,146.59442 93.678444,146.21618 97.130874,146.39118 C 100.22455,146.548 103.25319,145.63431 106.40872,145.79426 C 109.68344,145.96025 112.95891,146.13676 116.23366,146.30275 C 119.80926,146.48399 122.57471,146.10174 126.10419,146.28064 C 129.40239,146.44782 132.27498,146.05914 135.33644,146.21432 C 138.58745,146.37911 141.424,146.53758 143.976,146.12588 C 146.85082,145.66209 150.8515,146.46277 153.80094,146.61227 C 157.38513,146.79395 160.11824,147.47588 163.5803,147.65136 C 166.62155,147.80553 169.69176,149.00116 172.72136,149.15474 C 175.93397,149.31757 178.93741,150.54497 182.47792,150.72444 C 185.63284,150.88435 189.9567,152.17479 192.21168,152.78052 C 194.52301,153.40139 197.3715,154.18085 199.48351,154.74817 C 202.66098,155.60169 205.03923,156.66193 207.30242,157.77702 C 209.70821,158.96237 213.71785,159.62783 216.3751,160.3416 C 219.61007,161.21057 222.47862,164.49172 224.62714,166.04557 C 227.11826,167.84724 229.21304,168.85753 231.76219,170.11352 C 234.96859,171.69335 237.20959,173.20341 240.05982,175.26478 C 242.44275,176.98819 243.59826,178.11205 245.94111,179.2664 C 249.16525,180.85496 251.17327,181.8345 254.30712,183.37857 C 256.66726,184.54143 259.80255,185.26869 262.14884,185.89893 C 264.90602,186.63957 267.78068,187.85019 269.96776,188.92778 C 271.55747,189.71104 275.68818,190.47871 277.23959,190.89544 C 277.78687,191.00038 278.33414,191.10531 278.88142,191.21025 C 279.98678,191.4222 281.94377,190.85311 283.52427,190.85311 C 285.39077,190.85311 286.37199,190.49832 287.80999,190.13882 C 289.51504,189.71256 290.99466,189.61792 292.0957,189.06739 C 293.41757,188.40646 294.65422,187.96671 296.02427,187.28168 C 297.4696,186.55902 298.37616,186.10574 299.5957,185.49596 C 300.96927,184.80918 301.57886,183.86995 302.45285,182.99596 C 302.76685,182.68196 303.33414,182.47182 303.88142,181.92454 C 305.53092,180.27504 307.18552,179.20105 308.88142,178.35311 C 309.52754,178.03005 311.53788,175.82505 312.45285,175.13882 C 313.3466,174.4685 314.21991,173.37175 315.30999,172.28168 C 316.26592,171.32574 317.44358,169.67499 318.16713,168.71025 C 318.51416,168.46471 318.86118,168.21917 319.20821,167.97362 C 319.88111,167.4975 320.27372,166.65557 320.97597,165.95332 C 321.0355,165.8938 321.14433,165.95332 321.22851,165.95332 C 321.65921,165.95332 323.1204,163.9373 323.24882,163.68048 C 323.73984,162.69843 324.53763,162.39166 325.26912,161.66017 C 326.10421,160.82508 326.85702,159.81973 327.54196,159.13479 C 328.26018,158.41657 328.65153,157.42073 329.05719,156.60941 C 329.53651,155.65078 330.26252,154.89901 330.82496,154.33656 C 331.3556,153.80592 332.15855,152.13754 332.59273,151.55865 C 333.45814,150.40476 333.98372,150.54443 334.61303,149.2858 C 335.14996,148.21194 336.20895,147.43735 336.88588,146.76042 C 337.72258,145.92372 338.12783,145.52538 338.90618,144.48758 C 339.81782,143.27205 340.35168,143.1118 340.92649,141.9622 C 341.35405,141.10707 341.46518,140.05994 341.6841,139.18428 C 341.959,138.08469 342.40375,137.56836 342.69425,136.40636 C 343.02706,135.07512 343.19933,134.09094 343.19933,132.61829 C 343.19933,131.75905 343.73822,130.71526 343.95694,129.84037 C 344.21473,128.80922 343.95694,127.3728 343.95694,126.30483 C 343.95694,125.06728 343.7044,124.39284 343.7044,123.02184 C 343.7044,121.75923 343.53422,120.80649 343.16713,119.42454 z"
       style="opacity:1;fill:#e5920b;fill-opacity:1;fill-rule:evenodd;stroke:#000000;stroke-width:2;stroke-linecap:butt;stroke-linejoin:miter;marker:none;marker-start:none;marker-mid:none;marker-end:none;stroke-miterlimit:4;stroke-dasharray:none;stroke-dashoffset:0;stroke-opacity:1;visibility:visible;display:inline;overflow:visible;enable-background:accumulate" />
    <path
       style="opacity:1;fill:#f14f24;fill-opacity:1;fill-rule:evenodd;stroke:#000000;stroke-width:2;stroke-linecap:butt;stroke-linejoin:miter;marker:none;marker-start:none;marker-mid:none;marker-end:none;stroke-miterlimit:4;stroke-dasharray:none;stroke-dashoffset:0;stroke-opacity:1;visibility:visible;display:inline;overflow:visible;enable-background:accumulate"
       d="M 297.0957,216.92454 C 295.19094,216.92454 293.28618,216.92454 291.38142,216.92454 C 289.5957,216.92454 287.80999,216.92454 286.02427,216.92454 C 283.97192,216.92454 282.90687,216.6809 281.02427,216.21025 C 279.41194,215.80717 277.77111,215.84339 276.38142,215.49596 C 274.77537,215.09445 272.71369,214.42454 271.02427,214.42454 C 269.00395,214.42454 266.96399,213.82297 265.30999,212.99596 C 263.46904,212.07549 261.69849,211.3788 259.5957,210.85311 C 258.02953,210.46156 255.66863,210.49671 254.23856,209.78168 C 253.00477,209.16478 250.97282,208.42953 249.23856,207.99596 C 247.34495,207.52256 246.0387,206.571 244.5957,206.21025 C 242.53587,205.69529 240.4827,205.40375 238.52427,204.42454 C 236.9933,203.65905 234.92089,203.16655 232.80999,202.63882 C 231.02263,202.19198 229.88904,201.01573 227.80999,200.49596 C 225.39776,199.89291 224.13959,198.95336 221.73856,198.35311 C 219.61079,197.82117 217.21838,197.52159 215.30999,196.56739 C 213.48155,195.65317 211.66365,194.92279 209.95285,194.06739 C 208.35775,193.26985 206.26683,192.93867 204.95285,192.28168 C 203.48212,191.54632 202.48922,190.52324 201.02427,189.42454 C 199.17231,188.03556 197.57765,187.52265 195.66713,186.56739 C 194.4938,185.98072 192.7476,184.76608 191.38142,184.42454 C 189.66649,183.9958 188.70782,183.13114 186.73856,182.63882 C 184.96335,182.19502 184.04684,181.25161 182.45285,180.85311 C 180.86255,180.45553 179.32635,179.89291 177.45285,179.42454 C 174.98801,178.80833 172.62282,178.30632 169.95285,177.63882 C 167.9152,177.12941 164.02079,175.13882 162.0957,175.13882 C 160.98936,174.58565 159.20348,173.71025 157.45285,173.71025 C 155.38995,173.71025 153.73064,173.35311 151.73856,173.35311 C 149.47666,173.35311 147.21475,173.35311 144.95285,173.35311 C 143.04086,173.35311 141.36979,172.99596 139.5957,172.99596 C 137.62498,172.99596 135.39457,172.88553 133.52427,173.35311 C 131.85502,173.77042 130.0307,173.71025 128.16713,173.71025 C 125.50759,173.71025 123.29425,173.35311 120.66713,173.35311 C 118.51197,173.35311 116.79113,172.99596 114.5957,172.99596 C 112.63696,172.99596 110.63414,173.71025 108.88142,173.71025 C 107.02878,173.71025 105.47126,174.06739 103.52427,174.06739 C 102.01393,174.06739 99.982544,174.43196 98.524274,174.06739 C 97.459894,173.8013 95.483254,173.71025 93.881424,173.71025 C 92.266614,173.71025 90.081654,174.09959 88.524274,173.71025 C 87.014114,173.33271 85.119544,173.75192 83.524274,173.35311 C 82.137634,173.00645 80.672914,172.99596 78.881424,172.99596 C 77.214749,172.99596 75.548079,172.99596 73.881419,172.99596 C 72.371079,172.99596 70.339679,173.36053 68.881419,172.99596 C 67.700579,172.70075 65.650529,172.28168 64.238559,172.28168 C 62.467729,172.28168 61.472839,171.94739 59.952849,171.56739 C 58.748069,171.2662 56.864809,171.59896 55.309989,171.21025 C 53.852179,170.8458 52.816119,170.49903 51.381419,169.78168 C 51.109779,169.64586 47.880269,166.21025 47.809989,166.21025 C 49.431009,166.61551 47.419879,169.71574 48.167129,171.21025 C 48.992279,172.86055 49.237189,174.77619 49.595699,176.21025 C 50.062359,178.07687 50.309989,179.55293 50.309989,181.56739 C 50.309989,182.69049 51.071599,185.32811 51.381419,186.56739 C 51.605869,187.4652 51.900089,187.92779 52.095699,188.71025 C 52.869509,188.71025 55.990339,191.29105 57.095699,191.56739 C 58.745089,191.97974 60.741709,192.28168 62.452849,192.28168 C 64.208759,192.28168 65.866639,192.32109 67.452849,191.92454 C 69.507889,191.41078 73.407139,192.52025 75.309989,192.99596 C 77.116199,193.44752 79.077434,193.35311 81.024274,193.35311 C 83.709404,193.35311 86.314094,193.35311 89.238564,193.35311 C 91.606554,193.35311 93.692244,193.71025 96.024274,193.71025 C 98.881424,193.71025 101.73856,193.71025 104.5957,193.71025 C 106.85487,193.71025 109.01458,194.06739 111.38142,194.06739 C 113.40523,194.06739 115.42904,194.06739 117.45285,194.06739 C 120.42904,194.06739 123.40523,194.06739 126.38142,194.06739 C 128.13599,194.06739 130.20655,194.42454 132.0957,194.42454 C 133.85908,194.42454 135.51375,193.71025 137.45285,193.71025 C 139.356,193.71025 140.85986,193.35311 142.80999,193.35311 C 144.88946,193.35311 146.39059,193.08296 148.16713,192.63882 C 149.71724,192.25129 151.92589,192.63882 153.52427,192.63882 C 155.43382,192.63882 157.16801,193.63904 158.88142,194.06739 C 160.77805,194.54155 162.42101,195.39872 164.23856,195.85311 C 165.89439,196.26707 167.13442,196.84493 168.88142,197.28168 C 171.01967,197.81624 172.58579,199.13386 174.5957,200.13882 C 176.3259,201.00392 178.50122,201.1152 180.30999,201.56739 C 180.8834,201.85409 181.50047,202.04358 182.0957,202.28168 C 184.02665,203.05406 185.66253,203.52938 187.45285,204.42454 C 189.06273,205.22948 190.83572,205.75883 192.45285,206.56739 C 194.12179,207.40186 195.94506,207.88687 197.80999,208.35311 C 199.70431,208.82669 201.06806,210.14977 202.45285,210.49596 C 204.76808,211.07477 206.33548,211.97937 208.16713,213.35311 C 209.89941,214.65231 211.14288,214.9899 213.16713,215.49596 C 214.78761,215.90108 216.50258,216.98512 217.80999,217.63882 C 219.56061,218.51413 221.404,219.43583 222.80999,220.13882 C 224.55706,221.01236 225.90275,221.80487 227.80999,222.28168 C 229.933,222.81243 232.04717,224.57884 233.88142,225.49596 C 235.92862,226.51956 237.76856,227.80703 239.95285,228.35311 C 242.06312,228.88068 244.20557,230.3009 246.02427,231.21025 C 247.76682,232.08152 249.4756,232.93591 251.02427,233.71025 C 252.53406,234.46514 254.75507,234.73223 256.38142,235.13882 C 258.34383,235.62942 259.718,236.41939 261.73856,236.92454 C 263.61857,237.39454 265.04012,237.63882 267.0957,237.63882 C 268.24043,237.63882 270.23773,238.51361 271.02427,238.71025 C 273.00172,238.71025 274.96968,239.78168 277.0957,239.78168 C 279.18181,239.78168 280.79698,240.13882 282.80999,240.13882 C 284.5957,240.13882 286.38142,240.13882 288.16713,240.13882 C 290.19094,240.13882 292.21475,240.13882 294.23856,240.13882 C 296.5525,240.13882 298.3735,239.78168 300.66713,239.78168 C 302.44166,239.78168 305.04128,239.49171 306.73856,239.06739 C 308.69455,238.5784 311.16119,238.71025 313.16713,238.71025 C 315.22048,238.71025 316.8412,238.48036 318.52427,237.63882 C 319.61249,237.09471 322.12879,237.18412 323.16713,236.92454 C 324.95644,236.47721 326.76425,236.65026 328.52427,236.21025 C 330.24529,235.78 331.49523,235.5568 333.16713,235.13882 C 335.04879,234.66841 336.35414,234.87778 338.16713,234.42454 C 340.01312,233.96304 341.42191,234.04715 342.80999,233.35311 C 344.15125,232.68248 344.64422,231.8275 345.30999,230.49596 C 346.03426,229.04742 347.15006,228.24439 347.80999,226.92454 C 348.49018,225.56416 349.01036,224.5238 349.5957,223.35311 C 350.39654,221.75143 351.14498,221.08954 352.0957,220.13882 C 352.98321,219.25131 353.2032,217.49457 353.52427,216.21025 C 353.75282,215.29606 355.22261,213.885 355.66713,212.99596 C 356.40846,211.51332 356.01878,209.80364 356.38142,208.35311 C 356.77797,206.7669 356.73856,205.10902 356.73856,203.35311 C 356.73856,201.5352 358.42633,202.75108 357.0957,199.42454 C 357.32669,200.34848 357.52162,201.42984 357.0957,202.28168 C 356.60257,203.26795 355.85552,205.2232 354.5957,205.85311 C 353.22522,206.53835 352.98441,207.55161 351.38142,208.35311 C 350.27357,208.90703 349.23281,209.42741 347.80999,210.13882 C 346.39154,210.84805 344.75934,211.48557 343.16713,212.28168 C 341.94317,210.64973 340.45099,209.70654 339.95285,208.71025 C 339.29494,207.39444 339.2521,205.88019 338.52427,204.42454 C 337.96362,203.30323 337.67555,201.29851 337.0957,200.13882 C 336.6781,199.30362 335.5471,197.51585 335.30999,196.56739 C 334.95381,195.14269 334.99309,193.4336 334.23856,191.92454 C 333.58907,190.62556 333.6192,189.80422 333.16713,187.99596 C 332.92864,187.042 332.0957,184.69047 332.0957,183.35311 C 332.0957,181.47796 332.45285,180.64918 332.45285,178.71025 C 332.45285,177.19991 332.81741,175.16851 332.45285,173.71025 C 332.13841,172.45251 332.0957,170.79441 332.0957,169.06739 C 332.0957,167.55705 331.73114,165.52566 332.0957,164.06739 C 332.54875,162.25519 332.72804,161.18092 333.16713,159.42454 C 333.46858,158.21875 333.91484,156.79087 334.23856,155.49596 C 334.84181,153.08295 337.52617,150.70645 336.73856,152.28167 C 336.23273,153.29333 333.08987,157.79334 332.45285,159.06739 C 332.0595,159.85409 330.66713,161.28439 330.66713,162.28168 C 330.66713,163.96162 330.21749,165.32381 329.5957,166.56739 C 328.89468,167.96944 328.9801,169.02982 328.52427,170.85311 C 328.25778,171.9191 328.10864,173.9442 327.80999,175.13882 C 327.50879,176.3436 327.84155,178.22685 327.45285,179.78168 C 327.11264,181.14252 326.73856,182.73477 326.73856,184.42454 C 326.73856,186.18125 326.7455,187.62495 326.02427,189.06739 C 325.51968,190.07657 325.30347,191.93758 324.5957,193.35311 C 323.94287,194.65878 322.80248,195.52602 322.45285,196.92454 C 322.04484,198.55656 321.06894,198.97807 320.30999,200.49596 C 319.52528,202.06538 318.75832,203.11907 317.45285,204.42454 C 316.40148,205.4759 315.85563,206.69388 314.5957,207.63882 C 313.37682,208.55299 311.79268,209.37042 310.66713,210.49596 C 309.60639,211.5567 308.5404,212.63076 307.0957,213.35311 C 305.70115,214.05038 304.70798,214.75361 303.16713,215.13882 C 301.88131,215.46028 299.8976,215.52359 298.52427,216.21025 C 298.04808,216.44835 297.57189,216.68644 297.0957,216.92454 z"
       id="path3318"
       sodipodi:nodetypes="csssssssssssssssssssssssscssssssssssssssssssssscsssscsssssssssssssssssssscssssssssssssssssscssssssssssssssssssssscsssscsssssssssssssssssssssssssssssssc" />
    <text
       xml:space="preserve"
       style="font-size:12px;font-style:normal;font-variant:normal;font-weight:bold;font-stretch:normal;fill:#000000;fill-opacity:1;stroke:none;stroke-width:1px;stroke-linecap:butt;stroke-linejoin:miter;stroke-opacity:1;font-family:FreeSans;-inkscape-font-specification:Sans Bold"
       x="409.6564"
       y="67.474457"
       id="text3328"
       transform="matrix(0.9896819,0.1432818,-0.1432818,0.9896819,0,0)"><tspan
         sodipodi:role="line"
         id="tspan3330"
         x="409.6564"
         y="67.474457">L'IHI</tspan></text>
    <path
       style="opacity:1;fill:none;fill-opacity:1;fill-rule:evenodd;stroke:#000000;stroke-width:2;stroke-linecap:butt;stroke-linejoin:miter;marker:none;marker-start:none;marker-mid:none;marker-end:none;stroke-miterlimit:4;stroke-dasharray:none;stroke-dashoffset:0;stroke-opacity:1;visibility:visible;display:inline;overflow:visible;enable-background:accumulate"
       d="M 354.41714,123.88882 C 354.71476,123.88882 355.01238,123.88882 355.31,123.88882 C 356.19169,123.88882 357.01902,124.24597 357.98857,124.24597 C 358.97783,124.24597 358.88143,124.77188 358.88143,123.17454 C 358.88143,122.26982 359.23857,121.44147 359.23857,120.49597 C 359.23857,119.55447 359.59571,118.84755 359.59571,117.99597 C 359.59571,117.22248 359.95285,116.34946 359.95285,115.49597 C 359.95285,114.77622 360.34561,113.74639 360.48857,113.17454 C 360.68766,112.37819 360.86345,111.31785 361.02428,110.67454 C 361.18718,110.02295 361.38143,109.28599 361.38143,108.53168 C 361.38143,107.70119 360.12897,107.99535 359.41714,107.8174 C 358.56475,107.6043 358.04858,107.65383 357.27428,107.46025 C 356.80379,107.34263 356.22213,107.58936 356.02428,107.63882"
       id="path3342" />
    <path
       style="opacity:1;fill:none;fill-opacity:1;fill-rule:evenodd;stroke:#000000;stroke-width:2;stroke-linecap:butt;stroke-linejoin:miter;marker:none;marker-start:none;marker-mid:none;marker-end:none;stroke-miterlimit:4;stroke-dasharray:none;stroke-dashoffset:0;stroke-opacity:1;visibility:visible;display:inline;overflow:visible;enable-background:accumulate"
       d="M 359.95285,116.03168 C 360.25047,116.0912 360.54808,116.15073 360.8457,116.21025 C 361.78226,116.39756 362.71107,116.38882 363.70285,116.38882 C 364.74273,116.38882 365.53352,116.56739 366.55999,116.56739 C 367.39884,116.56739 368.45938,116.90831 369.23856,117.10311 C 370.05782,117.30792 370.73508,117.28168 371.55999,117.28168 C 372.80568,117.28168 374.26344,117.51111 375.48856,117.81739 C 376.8824,118.16585 378.00315,118.88882 379.41713,118.88882 C 380.403,118.88882 382.00885,119.22859 382.98856,119.42453 C 384.15739,119.6583 385.25808,119.85799 386.38142,120.13882 C 387.24551,120.35484 388.24468,120.29214 389.05999,120.49596 C 389.92451,120.71209 390.60893,120.67453 391.55999,120.67453 C 392.38736,120.67453 393.31114,120.71054 393.88142,120.85311 C 394.28717,120.95454 393.81872,120.85311 393.70285,120.85311"
       id="path3344" />
    <path
       style="opacity:1;fill:none;fill-opacity:1;fill-rule:evenodd;stroke:#000000;stroke-width:2;stroke-linecap:butt;stroke-linejoin:miter;marker:none;marker-start:none;marker-mid:none;marker-end:none;stroke-miterlimit:4;stroke-dasharray:none;stroke-dashoffset:0;stroke-opacity:1;visibility:visible;display:inline;overflow:visible;enable-background:accumulate"
       d="M 296.69422,243.97845 C 296.50734,244.3958 296.32045,244.81314 296.13356,245.23049 C 295.70266,246.19273 295.96973,247.75822 295.72323,248.76301 C 295.4427,249.90646 295.58264,251.16905 295.32422,252.04277 C 294.89257,253.50212 295.36746,253.30876 297.03225,253.34722 C 298.52769,253.38176 299.76068,253.66325 301.30627,253.69895 C 302.90276,253.73582 304.49925,253.77271 306.09574,253.80958 C 307.33534,253.83822 308.80559,253.61918 310.14029,253.65001 C 311.49894,253.6814 312.47108,253.70385 313.92147,253.73735 C 315.19009,253.76666 316.32072,254.29879 317.68004,254.33018 C 318.94042,254.3593 320.20081,254.38841 321.4612,254.41753 C 322.74675,254.44722 323.75444,254.52696 325.0016,254.24631 C 326.14041,253.99004 327.33256,254.04716 328.542,254.07508 C 329.83202,254.10489 330.81011,253.87448 332.08239,253.90388 C 333.09219,253.9272 334.32176,254.27562 335.61148,253.98539 C 336.58192,253.76702 337.95324,253.7865 338.64772,253.80254 C 339.82708,253.82978 338.501,251.44083 338.55388,250.25838 C 338.60458,249.12483 338.7314,247.7275 338.9529,246.97862 C 339.21313,246.09877 339.08208,244.09027 339.08853,243.94576"
       id="path3346" />
    <text
       xml:space="preserve"
       style="font-size:12px;font-style:normal;font-variant:normal;font-weight:bold;font-stretch:normal;fill:#000000;fill-opacity:1;stroke:none;stroke-width:1px;stroke-linecap:butt;stroke-linejoin:miter;stroke-opacity:1;font-family:FreeSans;-inkscape-font-specification:Sans Bold"
       x="265.01785"
       y="270.22928"
       id="text3348"><tspan
         sodipodi:role="line"
         id="tspan3350"
         x="265.01785"
         y="270.22928">HAWAII HOTSPOT</tspan></text>
    <path
       style="opacity:1;fill:#ceba3c;fill-opacity:1;fill-rule:evenodd;stroke:#000000;stroke-width:2;stroke-linecap:butt;stroke-linejoin:miter;marker:none;marker-start:none;marker-mid:none;marker-end:none;stroke-miterlimit:4;stroke-dasharray:none;stroke-dashoffset:0;stroke-opacity:1;visibility:visible;display:inline;overflow:visible;enable-background:accumulate"
       d="M 338.31236,113.87831 C 338.60997,114.11641 338.90759,114.3545 339.20521,114.5926 C 339.84099,115.10122 340.14489,115.50886 340.81236,115.8426 C 341.38613,116.12949 342.32771,116.02117 343.13378,116.02117 C 343.99032,116.02117 344.31556,115.55368 344.74093,115.12831 C 345.28548,114.58375 346.1696,114.77114 346.88378,114.5926 C 348.0364,114.30444 347.7563,114.31683 347.95521,113.52117 C 348.05837,113.10855 346.87843,111.90332 346.70521,111.55688 C 346.35437,110.8552 345.8821,110.19805 345.45521,109.77117 C 344.87935,109.1953 344.3232,109.02739 343.49093,109.23545 C 342.76158,109.41779 342.19087,109.64265 341.70521,110.12831 C 341.11725,110.71628 340.79926,110.86879 340.45521,111.55688 C 340.14504,112.17724 339.4491,112.53468 338.84807,112.98545 C 338.5704,113.1937 338.49093,113.58069 338.31236,113.87831 z"
       id="path3366" />
    <path
       style="opacity:1;fill:#b9cd61;fill-opacity:1;fill-rule:evenodd;stroke:#000000;stroke-width:2;stroke-linecap:butt;stroke-linejoin:miter;marker:none;marker-start:none;marker-mid:none;marker-end:none;stroke-miterlimit:4;stroke-dasharray:none;stroke-dashoffset:0;stroke-opacity:1;visibility:visible;display:inline;overflow:visible;enable-background:accumulate"
       d="M 296.78572,85.576466 C 297.56392,86.354659 297.97619,89.147895 298.57143,89.505038 C 299.16667,89.862181 299.76191,90.219324 300.35714,90.576466 C 301.41476,91.211037 302.90045,91.490975 303.92857,92.005038 C 305.10157,92.591535 307.00095,92.308373 308.21429,92.005038 C 309.47949,91.688736 311.11458,90.019177 312.14286,89.505038 C 313.64073,88.756103 314.57424,88.825063 316.07143,88.076466 C 317.1131,87.555632 317.82489,86.655959 319.28572,86.290752 C 320.45448,85.998562 322.3326,84.945882 323.21429,84.505038 C 324.6736,83.775381 326.42836,84.147948 327.85714,83.790752 C 329.42405,83.399027 330.21189,83.076466 332.14286,83.076466 C 333.69153,83.076466 335.43709,81.985053 336.78572,81.647895 C 338.14127,81.309007 339.58174,81.306032 341.07143,80.933609 C 342.17415,80.65793 344.29853,80.483978 345.35714,80.219324 C 347.16935,79.766271 347.24003,78.465143 346.78572,76.647895 C 346.55047,75.706893 344.20359,75.466649 343.21429,75.219324 C 342.39764,75.015161 340.80672,73.836968 340,73.433609 C 338.54749,72.707353 337.64767,72.866987 336.42857,71.647895 C 335.57693,70.796254 333.87239,70.919562 332.5,70.576466 C 331.27687,70.270684 329.79796,69.543812 328.21429,69.147895 C 326.29004,68.666833 325.75757,68.176573 323.92857,67.719323 C 322.33331,67.320508 320.43874,67.739722 318.92857,67.362181 C 317.29005,66.95255 315.93553,67.005038 314.28572,67.005038 C 312.83428,67.005038 311.67032,66.587458 310,67.005038 C 308.49394,67.381554 306.30079,66.973093 305,66.647895 C 303.54174,66.283329 301.51034,66.647895 300,66.647895 C 298.02083,66.647895 297.50829,68.400442 297.14286,69.862181 C 296.92293,70.741897 298.75893,71.2729 297.85714,73.076466 C 297.36206,74.066639 295.36836,75.035143 294.28572,75.576466 C 292.61846,76.410093 292.1106,76.680154 291.07143,77.719324 C 289.59391,79.196847 289.56843,79.449213 291.07143,80.576466 C 292.26035,81.468159 292.76084,81.90873 293.92857,83.076466 C 294.75974,83.907637 296.00752,84.798273 296.78572,85.576466 z"
       id="path3391"
       sodipodi:nodetypes="ccsssssssssssssssssssssssssssssss" />
    <path
       style="opacity:1;fill:#899c36;fill-opacity:1;fill-rule:evenodd;stroke:#000000;stroke-width:2;stroke-linecap:butt;stroke-linejoin:miter;marker:none;marker-start:none;marker-mid:none;marker-end:none;stroke-miterlimit:4;stroke-dasharray:none;stroke-dashoffset:0;stroke-opacity:1;visibility:visible;display:inline;overflow:visible;enable-background:accumulate"
       d="M 300.35715,74.505037 C 299.76191,74.624085 299.16667,74.743133 298.57143,74.86218 C 297.18586,75.139296 296.21598,76.358798 295.71429,77.36218 C 294.7682,79.254374 298.15935,78.790752 299.28572,78.790752 C 300.86047,78.790752 302.25742,78.076466 303.21429,78.076466 C 304.06063,78.076466 305.26974,80.04451 305.71429,80.933609 C 306.38799,82.281012 307.1632,83.096807 308.21429,84.147895 C 309.15166,85.085265 310.9009,84.904813 312.50001,84.505037 C 313.86762,84.163133 313.92858,81.72548 313.92858,80.219323 C 313.92858,78.749319 316.12765,77.869785 317.14286,77.36218 C 318.41441,76.726407 320.42418,77.111082 321.42858,77.36218 C 323.00936,77.757376 324.76347,77.719323 326.42858,77.719323 C 327.79464,77.719323 329.29538,77.36218 331.07143,77.36218 C 332.28697,77.36218 334.08564,76.133691 334.64286,75.576466 C 335.95469,74.264639 333.02997,72.177861 332.85715,72.005037 C 332.77297,71.920858 332.85715,71.766942 332.85715,71.647894 C 332.85715,70.860322 330.44361,69.705225 329.64286,69.505037 C 328.25622,69.158377 326.7915,69.147894 325.00001,69.147894 C 323.28985,69.147894 322.07092,68.862051 320.35715,68.433609 C 318.83116,68.052113 317.47173,67.801539 315.71429,67.36218 C 314.39568,67.032527 313.5211,66.214049 311.78572,66.647894 C 310.31915,67.014536 308.21528,66.736933 307.14286,67.005037 C 306.45442,67.177147 304.96731,69.89488 304.64286,70.219323 C 303.68151,71.180675 302.43123,69.285444 301.42858,71.290752 C 300.81139,72.525134 301.42123,72.731577 300.35715,74.505037 z"
       id="path3393" />
    <path
       style="opacity:1;fill:#596a15;fill-opacity:1;fill-rule:evenodd;stroke:#000000;stroke-width:2;stroke-linecap:butt;stroke-linejoin:miter;marker:none;marker-start:none;marker-mid:none;marker-end:none;stroke-miterlimit:4;stroke-dasharray:none;stroke-dashoffset:0;stroke-opacity:1;visibility:visible;display:inline;overflow:visible;enable-background:accumulate"
       d="M 307.85715,68.43361 C 308.45238,68.076467 309.04762,67.719324 309.64286,67.362181 C 311.04685,66.519785 312.05038,66.158424 313.21429,65.576467 C 315.30199,64.532617 316.25162,65.756651 317.14286,66.647896 C 318.03997,67.545002 318.12986,69.693323 318.57143,70.576467 C 319.09836,71.630325 315.94955,72.124794 315,72.362181 C 313.57323,72.718876 311.33272,71.981074 310,71.647896 C 308.92009,71.377917 308.32621,69.606259 307.85715,68.43361 z"
       id="path3405" />
    <path
       style="opacity:1;fill:#596a15;fill-opacity:1;fill-rule:evenodd;stroke:#000000;stroke-width:2;stroke-linecap:butt;stroke-linejoin:miter;marker:none;marker-start:none;marker-mid:none;marker-end:none;stroke-miterlimit:4;stroke-dasharray:none;stroke-dashoffset:0;stroke-opacity:1;visibility:visible;display:inline;overflow:visible;enable-background:accumulate"
       d="M 305.00001,73.076466 C 305.35715,73.671704 305.7143,74.266942 306.07144,74.86218 C 306.82648,76.120586 307.70562,77.210645 308.57144,78.076466 C 309.88821,79.393233 310.03131,79.830883 311.42858,78.433609 C 313.02556,76.836632 311.84374,75.829819 314.28572,75.219323 C 315.97048,74.798135 314.54854,72.117367 313.92858,71.290752 C 312.9847,70.032243 311.33988,69.884355 310.00001,70.219323 C 307.6705,70.8017 307.33682,71.207019 305.00001,73.076466 z"
       id="path3403" />
    <path
       style="opacity:1;fill:#b9cd61;fill-opacity:1;fill-rule:evenodd;stroke:#000000;stroke-width:2;stroke-linecap:butt;stroke-linejoin:miter;marker:none;marker-start:none;marker-mid:none;marker-end:none;stroke-miterlimit:4;stroke-dasharray:none;stroke-dashoffset:0;stroke-opacity:1;visibility:visible;display:inline;overflow:visible;enable-background:accumulate"
       d="M 226.78571,53.790752 C 227.47045,53.607197 229.96341,56.254161 230.71429,57.005038 C 231.6169,57.90765 232.84503,53.839223 232.85714,53.790752 C 233.07048,52.937413 229.82724,52.494657 228.92857,52.719324 C 227.12634,53.169883 233.05216,50.030888 226.78571,53.790752 z"
       id="path3413" />
    <path
       style="opacity:1;fill:#b9cd61;fill-opacity:1;fill-rule:evenodd;stroke:#000000;stroke-width:2;stroke-linecap:butt;stroke-linejoin:miter;marker:none;marker-start:none;marker-mid:none;marker-end:none;stroke-miterlimit:4;stroke-dasharray:none;stroke-dashoffset:0;stroke-opacity:1;visibility:visible;display:inline;overflow:visible;enable-background:accumulate"
       d="M 247.14286,51.647895 C 246.78571,52.243133 246.42857,52.838372 246.07143,53.43361 C 245.5164,54.358658 250.14212,54.862181 250.71429,54.862181 C 252.30416,54.862181 253.21583,56.111795 255.35714,55.576467 C 257.66168,55.000334 257.79873,55.452976 258.21429,53.790752 C 258.35433,53.23059 255.82272,51.880683 255.35714,51.647895 C 254.22189,51.080268 253.7614,50.266816 252.14286,49.862181 C 250.22924,49.383778 248.59964,50.482468 247.14286,51.647895 z"
       id="path3415" />
    <path
       style="opacity:1;fill:#899c36;fill-opacity:1;fill-rule:evenodd;stroke:#000000;stroke-width:2;stroke-linecap:butt;stroke-linejoin:miter;marker:none;marker-start:none;marker-mid:none;marker-end:none;stroke-miterlimit:4;stroke-dasharray:none;stroke-dashoffset:0;stroke-opacity:1;visibility:visible;display:inline;overflow:visible;enable-background:accumulate"
       d="M 250,50.219324 C 249.88095,50.814562 249.76191,51.4098 249.64286,52.005038 C 249.49365,52.751087 252.38587,53.226506 253.21429,53.43361 C 254.864,53.846037 256.07143,53.881442 256.07143,51.647895 C 256.07143,50.071379 254.35908,49.880522 252.85714,49.505038 C 251.90535,49.26709 250.74169,49.922646 250,50.219324 z"
       id="path3417" />
    <path
       style="opacity:1;fill:#b9cd61;fill-opacity:1;fill-rule:evenodd;stroke:#000000;stroke-width:2;stroke-linecap:butt;stroke-linejoin:miter;marker:none;marker-start:none;marker-mid:none;marker-end:none;stroke-miterlimit:4;stroke-dasharray:none;stroke-dashoffset:0;stroke-opacity:1;visibility:visible;display:inline;overflow:visible;enable-background:accumulate"
       d="M 221.53489,48.078571 C 223.79163,47.764227 225.4722,47.891659 227.29344,48.128432 C 228.67637,48.308224 230.23636,48.861332 232.07017,49.011488 C 233.41173,49.121338 235.10272,47.497381 236.16232,47.097731 C 237.98577,46.409973 238.25056,44.96684 236.18725,44.218461 C 235.08824,43.819838 233.10717,44.216868 231.5342,44.39967 C 229.72525,44.609899 229.14994,45.137883 227.27714,44.894408 C 225.5374,44.668231 224.36556,44.865277 222.93762,44.679633 C 221.91939,44.547257 219.78049,45.79081 219.159,46.197408 C 218.38045,46.706756 216.55126,48.2982 218.65563,48.053641 C 219.22193,47.987828 220.86577,48.156334 221.53489,48.078571 z"
       id="path3421" />
    <path
       style="opacity:1;fill:#b9cd61;fill-opacity:1;fill-rule:evenodd;stroke:#000000;stroke-width:2;stroke-linecap:butt;stroke-linejoin:miter;marker:none;marker-start:none;marker-mid:none;marker-end:none;stroke-miterlimit:4;stroke-dasharray:none;stroke-dashoffset:0;stroke-opacity:1;visibility:visible;display:inline;overflow:visible;enable-background:accumulate"
       d="M 166.07143,39.862181 C 166.66667,39.981229 167.26191,40.100277 167.85714,40.219324 C 169.54241,40.556378 170.95707,40.637164 172.14286,40.93361 C 174.37789,41.492368 174.42893,41.789316 173.92857,43.790753 C 173.42322,45.81216 173.67928,45.782 175.71429,46.290753 C 176.92356,46.59307 179.79154,45.807154 180.71429,45.576467 C 182.29401,45.181535 183.24617,45.251203 184.28571,46.290753 C 184.94318,46.948215 186.20306,45.407069 186.42857,44.505038 C 186.48188,44.291799 182.96509,42.112983 182.85714,42.005038 C 181.84731,40.995204 180.55229,40.576467 178.92857,40.576467 C 177.80191,40.576467 176.57079,39.094163 175.35714,38.790753 C 174.03072,38.459148 172.77766,37.78874 171.07143,37.362181 C 169.60522,36.995628 167.37133,37.483633 166.42857,37.719324 C 163.77432,38.382887 166.12217,39.874867 163.21429,39.147896 C 162.69929,39.019147 163.00678,40.47511 166.07143,39.862181 z"
       id="path3425" />
    <path
       style="opacity:1;fill:#899c36;fill-opacity:1;fill-rule:evenodd;stroke:#000000;stroke-width:2;stroke-linecap:butt;stroke-linejoin:miter;marker:none;marker-start:none;marker-mid:none;marker-end:none;stroke-miterlimit:4;stroke-dasharray:none;stroke-dashoffset:0;stroke-opacity:1;visibility:visible;display:inline;overflow:visible;enable-background:accumulate"
       d="M 170.71428,38.076467 C 171.19048,38.076467 171.66667,38.076467 172.14286,38.076467 C 173.71858,38.076467 175.01163,39.516667 175.71428,40.219324 C 177.24862,41.753661 175.55648,42.719324 178.57143,42.719324 C 180.23809,42.719324 181.90476,42.719324 183.57143,42.719324 C 184.32621,42.719324 182.00097,40.07744 181.78571,39.862181 C 181.03,39.106468 179.90171,38.205894 178.92857,37.719324 C 177.88089,37.195483 176.53358,36.52183 175.35714,35.93361 C 174.07519,35.292633 172.3659,35.163563 170.71428,35.576467 C 169.33267,35.92187 168.17403,36.668022 166.78571,37.362181 C 165.94714,37.781467 170.01056,37.935722 170.71428,38.076467 z"
       id="path3427" />
    <path
       style="opacity:1;fill:#acbf5a;fill-opacity:1;fill-rule:evenodd;stroke:#000000;stroke-width:2;stroke-linecap:butt;stroke-linejoin:miter;marker:none;marker-start:none;marker-mid:none;marker-end:none;stroke-miterlimit:4;stroke-dasharray:none;stroke-dashoffset:0;stroke-opacity:1;visibility:visible;display:inline;overflow:visible;enable-background:accumulate"
       d="M 157.14286,40.219324 C 156.54762,40.219324 155.95238,40.219324 155.35714,40.219324 C 153.4785,40.219324 152.99664,41.804177 152.85714,42.362181 C 152.85544,42.36899 157.02515,43.761326 157.14286,43.790752 C 158.9164,44.234137 159.97372,44.511609 161.42857,44.147895 C 163.26299,43.68929 162.25075,41.863688 161.78571,40.93361 C 160.89037,39.142911 158.40248,39.463549 157.14286,40.219324 z"
       id="path3429" />
    <path
       style="opacity:1;fill:#acbf5a;fill-opacity:1;fill-rule:evenodd;stroke:#000000;stroke-width:2;stroke-linecap:butt;stroke-linejoin:miter;marker:none;marker-start:none;marker-mid:none;marker-end:none;stroke-miterlimit:4;stroke-dasharray:none;stroke-dashoffset:0;stroke-opacity:1;visibility:visible;display:inline;overflow:visible;enable-background:accumulate"
       d="M 69.285714,30.93361 C 68.690476,31.290752 68.095238,31.647895 67.5,32.005038 C 65.669637,33.103256 70.242513,33.43361 71.071429,33.43361 C 72.40018,33.43361 74.281103,34.680151 75,35.219324 C 75.838586,35.848263 78.318174,34.032637 79.285714,33.790752 C 80.33643,33.528073 81.716888,33.790752 83.571429,33.790752 C 85.15269,33.790752 86.192263,33.191941 86.785714,32.005038 C 87.405967,30.764532 88.80828,30.099965 86.428572,29.505038 C 85.333104,29.231171 83.742046,28.833407 82.142857,28.43361 C 80.639039,28.057655 79.327325,28.076467 77.5,28.076467 C 75.61884,28.076467 74.651015,27.717284 73.214286,28.076467 C 71.319941,28.550053 70.222685,28.591184 69.285714,30.93361 z"
       id="path3431" />
    <path
       style="opacity:1;fill:#899c36;fill-opacity:1;fill-rule:evenodd;stroke:#000000;stroke-width:2;stroke-linecap:butt;stroke-linejoin:miter;marker:none;marker-start:none;marker-mid:none;marker-end:none;stroke-miterlimit:4;stroke-dasharray:none;stroke-dashoffset:0;stroke-opacity:1;visibility:visible;display:inline;overflow:visible;enable-background:accumulate"
       d="M 70.714286,29.505038 C 71.691949,29.416875 74.390522,30.565787 75.357143,31.290753 C 77.011628,32.531616 76.487183,33.732141 78.214286,32.005038 C 79.06872,31.150604 80.777072,31.290753 82.5,31.290753 C 84.427956,31.290753 85.357143,30.61102 85.357143,28.790753 C 85.357143,27.67167 82.48706,26.284282 81.785715,25.93361 C 80.68893,25.385217 78.749143,25.576467 77.142857,25.576467 C 75.927636,25.576467 74.485677,27.162218 73.928572,27.719324 C 73.236655,28.41124 71.728727,28.744208 70.714286,29.505038 z"
       id="path3437" />
    <path
       style="opacity:1;fill:#b9cd61;fill-opacity:1;fill-rule:evenodd;stroke:#000000;stroke-width:2;stroke-linecap:butt;stroke-linejoin:miter;marker:none;marker-start:none;marker-mid:none;marker-end:none;stroke-miterlimit:4;stroke-dasharray:none;stroke-dashoffset:0;stroke-opacity:1;visibility:visible;display:inline;overflow:visible;enable-background:accumulate"
       d="M 257.14286,53.076467 C 257.7381,53.671705 258.33333,54.266943 258.92857,54.862181 C 260.15717,56.090782 259.7408,57.208095 261.78571,57.719324 C 263.24398,58.08389 265.27537,57.719324 266.78571,57.719324 C 267.33927,57.719324 269.56673,55.971676 270.35714,55.576467 C 271.5047,55.002688 273.38785,55.219324 275,55.219324 C 276.41388,55.219324 278.14854,54.862181 280,54.862181 C 281.9095,54.862181 282.86128,55.217256 284.28571,54.505038 C 285.83444,53.730676 281.52593,51.672235 281.42857,51.647895 C 280.01014,51.293287 278.46032,50.163771 277.14286,49.505038 C 275.83595,48.851585 274.06818,48.736369 272.85714,48.43361 C 271.30637,48.045917 269.45389,48.076467 267.85714,48.076467 C 266.22226,48.076467 264.78644,48.897531 263.57143,49.505038 C 262.49527,50.043117 260.81083,50.284474 259.64286,50.576467 C 257.63901,51.077428 256.2244,50.780314 257.14286,53.076467 z"
       id="path3439" />
    <path
       style="opacity:1;fill:#899c36;fill-opacity:1;fill-rule:evenodd;stroke:#000000;stroke-width:2;stroke-linecap:butt;stroke-linejoin:miter;marker:none;marker-start:none;marker-mid:none;marker-end:none;stroke-miterlimit:4;stroke-dasharray:none;stroke-dashoffset:0;stroke-opacity:1;visibility:visible;display:inline;overflow:visible;enable-background:accumulate"
       d="M 260,50.576467 C 260.47619,51.052657 260.95238,51.528848 261.42857,52.005038 C 262.5884,53.164865 262.10567,53.790752 264.64286,53.790752 C 266.3811,53.790752 266.7177,53.50162 267.85714,52.362181 C 268.66521,51.554109 270.54355,51.647895 272.14286,51.647895 C 273.75177,51.647895 274.87932,51.974868 276.42857,52.362181 C 278.03982,52.764994 279.36017,51.945699 278.92857,50.219324 C 278.75226,49.514057 276.70218,47.846043 276.07143,47.005038 C 275.34229,46.032849 273.22743,45.847609 272.14286,45.576467 C 270.92605,45.272265 268.91373,46.008006 267.5,46.290752 C 265.82091,46.626571 264.02689,47.313021 262.5,48.076467 C 261.06627,48.793331 260.45573,48.297798 260,50.576467 z"
       id="path3441" />
    <path
       style="opacity:1;fill:#596a15;fill-opacity:1;fill-rule:evenodd;stroke:#000000;stroke-width:2;stroke-linecap:butt;stroke-linejoin:miter;marker:none;marker-start:none;marker-mid:none;marker-end:none;stroke-miterlimit:4;stroke-dasharray:none;stroke-dashoffset:0;stroke-opacity:1;visibility:visible;display:inline;overflow:visible;enable-background:accumulate"
       d="M 264.64286,47.362181 C 265.2381,47.005038 265.83333,46.647895 266.42857,46.290752 C 267.70985,45.521986 269.03963,44.751126 270,43.790752 C 270.77202,43.018729 273.22934,43.258801 273.92857,43.43361 C 275.08739,43.723313 275.72746,45.245666 276.42857,46.647895 C 277.33027,48.451297 276.57691,49.274266 274.64286,48.790752 C 273.07476,48.398727 271.39842,48.43361 269.64286,48.43361 C 268.7088,48.43361 267.34065,49.941857 266.07143,50.576467 C 263.83191,51.696227 263.79425,49.483699 264.64286,47.362181 z"
       id="path3445" />
  </g>
</svg>
