<?xml version="1.0" encoding="UTF-8" standalone="no"?>
<!-- Created with Inkscape (http://www.inkscape.org/) -->
<svg
   xmlns:dc="http://purl.org/dc/elements/1.1/"
   xmlns:cc="http://creativecommons.org/ns#"
   xmlns:rdf="http://www.w3.org/1999/02/22-rdf-syntax-ns#"
   xmlns:svg="http://www.w3.org/2000/svg"
   xmlns="http://www.w3.org/2000/svg"
   xmlns:sodipodi="http://sodipodi.sourceforge.net/DTD/sodipodi-0.dtd"
   xmlns:inkscape="http://www.inkscape.org/namespaces/inkscape"
   width="744.09448819"
   height="1052.3622047"
   id="svg15198"
   sodipodi:version="0.32"
   inkscape:version="0.46"
   sodipodi:docname="power.svg"
   inkscape:output_extension="org.inkscape.output.svg.inkscape">
  <defs
     id="defs15200">
    <inkscape:perspective
       sodipodi:type="inkscape:persp3d"
       inkscape:vp_x="0 : 526.18109 : 1"
       inkscape:vp_y="0 : 1000 : 0"
       inkscape:vp_z="744.09448 : 526.18109 : 1"
       inkscape:persp3d-origin="372.04724 : 350.78739 : 1"
       id="perspective15206" />
  </defs>
  <sodipodi:namedview
     id="base"
     pagecolor="#ffffff"
     bordercolor="#666666"
     borderopacity="1.0"
     gridtolerance="10000"
     guidetolerance="10"
     objecttolerance="10"
     inkscape:pageopacity="0.0"
     inkscape:pageshadow="2"
     inkscape:zoom="1.4"
     inkscape:cx="311.24835"
     inkscape:cy="847.72016"
     inkscape:document-units="px"
     inkscape:current-layer="layer1"
     showgrid="false"
     inkscape:window-width="1438"
     inkscape:window-height="898"
     inkscape:window-x="0"
     inkscape:window-y="0" />
  <metadata
     id="metadata15203">
    <rdf:RDF>
      <cc:Work
         rdf:about="">
        <dc:format>image/svg+xml</dc:format>
        <dc:type
           rdf:resource="http://purl.org/dc/dcmitype/StillImage" />
      </cc:Work>
    </rdf:RDF>
  </metadata>
  <g
     inkscape:label="Layer 1"
     inkscape:groupmode="layer"
     id="layer1">
    <path
       id="path15056"
       d="M 83.43726,207.40314 C 82.49445,206.22462 81.55164,205.04611 80.60883,203.8676 C 78.48043,201.2071 77.33188,200.59066 74.95197,198.21075 C 72.59269,195.85147 70.42612,193.68489 68.58801,191.84679 C 67.14847,190.40724 63.32586,189.21571 61.51695,188.31125 C 57.84408,186.47482 58.02803,185.48283 53.03166,185.48283 C 49.30893,185.48283 46.95642,186.18993 43.83928,186.18993 C 40.53945,186.18993 37.23961,186.18993 33.93978,186.18993 C 31.56198,186.18993 29.95933,184.06861 26.16161,184.06861 C 20.96624,184.06861 21.13551,183.75324 24.74739,181.94729 C 27.12905,180.75647 29.92385,182.71108 32.52557,183.36151 C 35.51805,184.10963 39.66115,183.1686 41.71796,182.6544 C 42.88887,182.36167 47.18266,182.6544 50.20324,182.6544 C 53.65038,182.6544 56.30619,183.231 59.39563,184.77572 C 62.07892,186.11736 65.20849,186.26794 67.88091,187.60415 C 70.60827,188.96783 72.29337,189.89529 74.24487,191.84679 C 76.40527,194.00719 76.66653,196.38977 78.48751,198.21075 C 80.05926,199.7825 82.40065,201.41678 84.14436,203.1605 C 85.75265,204.76879 86.56653,202.18767 83.43726,207.40314 z"
       style="opacity:1;fill:#aa292b;fill-opacity:1;fill-rule:evenodd;stroke:#000000;stroke-width:2;stroke-linecap:butt;stroke-linejoin:miter;marker:none;marker-start:none;marker-mid:none;marker-end:none;stroke-miterlimit:4;stroke-dasharray:none;stroke-dashoffset:0;stroke-opacity:1;visibility:visible;display:inline;overflow:visible;enable-background:accumulate" />
    <path
       id="path15058"
       d="M 91.64336,207.60023 C 90.41636,206.98106 89.18937,206.36188 87.96237,205.74271 C 85.98723,204.746 84.70436,202.12228 83.26641,199.70549 C 81.70084,197.07422 83.74456,192.94111 84.05733,191.13961 C 84.399,189.17164 89.2741,186.1721 90.74813,185.6868 C 94.18968,184.55373 96.50117,183.79271 99.05588,182.95161 C 100.29568,182.54343 103.14351,178.21823 104.28463,176.89684 C 105.75629,175.19269 105.98724,170.09777 106.43436,167.52248 C 107.01693,164.16691 106.64809,161.04238 105.7632,158.35462 C 104.91625,155.78213 100.19568,155.03641 97.64439,153.98599 C 95.24693,152.99889 92.47278,154.36459 89.88698,154.55389 C 87.25879,154.74629 94.60092,157.11294 97.19731,157.56371 C 100.4521,158.12879 101.54034,160.33531 102.59849,163.5493 C 103.60748,166.61398 102.37074,169.87404 101.85921,172.82041 C 101.66088,173.96273 98.90941,177.76622 98.04091,178.77192 C 96.25666,180.83804 93.62145,182.0325 91.24685,182.8143 C 88.1213,183.84333 86.43758,185.32332 84.50441,187.56189 C 82.47469,189.91226 80.93875,192.06918 80.03252,194.27025 C 79.08129,196.58061 81.00633,202.16376 81.40889,203.38648 C 82.29404,206.075 84.90017,207.72272 86.81007,209.37207 C 88.88112,211.16057 92.0166,212.69866 91.64336,207.60023 z"
       style="opacity:1;fill:#b52c2e;fill-opacity:1;fill-rule:evenodd;stroke:#000000;stroke-width:2;stroke-linecap:butt;stroke-linejoin:miter;marker:none;marker-start:none;marker-mid:none;marker-end:none;stroke-miterlimit:4;stroke-dasharray:none;stroke-dashoffset:0;stroke-opacity:1;visibility:visible;display:inline;overflow:visible;enable-background:accumulate" />
    <path
       id="path15060"
       d="M 235.46521,211.64578 C 235.63617,206.77506 237.37285,203.52151 238.29365,198.91785 C 238.96365,195.56751 241.00925,192.07236 242.53625,189.01836 C 243.82905,186.43277 244.20485,184.5213 246.07185,182.6544 C 248.64985,180.0764 249.18105,178.13097 251.72865,175.58333 C 252.70045,174.61151 254.16465,174.28663 255.26415,173.46201 C 255.26415,177.74614 254.76765,177.65958 253.14285,179.82597 C 251.64525,181.82281 249.02735,184.52143 247.48605,187.60415 C 246.58355,189.40913 246.08535,193.24747 244.65755,194.67521 C 242.44445,196.88837 241.92015,198.55407 241.12205,201.74628 C 239.93295,206.50282 239.38015,207.73082 235.46521,211.64578 z"
       style="opacity:1;fill:#d03335;fill-opacity:1;fill-rule:evenodd;stroke:#000000;stroke-width:2;stroke-linecap:butt;stroke-linejoin:miter;marker:none;marker-start:none;marker-mid:none;marker-end:none;stroke-miterlimit:4;stroke-dasharray:none;stroke-dashoffset:0;stroke-opacity:1;visibility:visible;display:inline;overflow:visible;enable-background:accumulate" />
    <g
       id="g15066"
       transform="matrix(-0.9618079,-0.2737253,0.2737253,-0.9618079,351.18805,922.8713)"
       inkscape:transform-center-x="-6.3639609"
       inkscape:transform-center-y="-5.6568541">
      <path
         style="opacity:1;fill:#d22f0f;fill-opacity:1;fill-rule:evenodd;stroke:#000000;stroke-width:2;stroke-linecap:butt;stroke-linejoin:miter;marker:none;marker-start:none;marker-mid:none;marker-end:none;stroke-miterlimit:4;stroke-dasharray:none;stroke-dashoffset:0;stroke-opacity:1;visibility:visible;display:inline;overflow:visible;enable-background:accumulate"
         d="M 425.70772,608.32856 C 425.82557,608.91781 425.94342,609.50707 426.06127,610.09632 C 426.37023,611.64114 426.41483,613.30693 426.41483,615.04607 C 426.41483,615.68904 430.21567,615.39962 431.01102,615.39962 C 433.16599,615.39962 433.79276,614.94601 435.60721,615.39962 C 437.36758,615.83972 438.28649,616.06944 439.84985,616.46028 C 441.51238,616.87591 442.69581,616.72983 444.44605,617.16739 C 446.58049,617.701 447.67648,616.61284 447.98158,616.46028 C 448.65311,616.12452 448.33514,612.89165 448.33514,611.86409 C 448.33514,609.22104 448.36593,609.74277 445.86026,609.74277 C 444.09689,609.74277 442.4149,609.74277 441.26407,609.74277 C 439.34821,609.74277 438.26742,610.14265 436.66787,609.74277 C 435.6109,609.47853 433.68654,609.70454 432.42523,609.38922 C 430.84954,608.99529 429.63077,609.03566 427.82904,609.03566 C 426.84084,609.03566 427.58491,609.07943 425.70772,608.32856 z"
         id="path15068" />
      <path
         id="path15070"
         d="M 448.41036,610.596 C 448.29251,610.00675 448.17466,609.41749 448.05681,608.82824 C 447.74785,607.28342 447.70325,605.61763 447.70325,603.87849 C 447.70325,603.23552 443.90241,603.52494 443.10706,603.52494 C 440.95209,603.52494 440.32532,603.97855 438.51087,603.52494 C 436.7505,603.08484 435.83159,602.85512 434.26823,602.46428 C 432.6057,602.04865 431.42227,602.19473 429.67203,601.75717 C 427.53759,601.22356 426.4416,602.31172 426.1365,602.46428 C 425.46497,602.80004 425.78294,606.03291 425.78294,607.06047 C 425.78294,609.70352 425.75215,609.18179 428.25782,609.18179 C 430.02119,609.18179 431.70318,609.18179 432.85401,609.18179 C 434.76987,609.18179 435.85066,608.78191 437.45021,609.18179 C 438.50718,609.44603 440.43154,609.22002 441.69285,609.53534 C 443.26854,609.92927 444.48731,609.8889 446.28904,609.8889 C 447.27724,609.8889 446.53317,609.84513 448.41036,610.596 z"
         style="opacity:1;fill:#221613;fill-opacity:1;fill-rule:evenodd;stroke:#000000;stroke-width:2;stroke-linecap:butt;stroke-linejoin:miter;marker:none;marker-start:none;marker-mid:none;marker-end:none;stroke-miterlimit:4;stroke-dasharray:none;stroke-dashoffset:0;stroke-opacity:1;visibility:visible;display:inline;overflow:visible;enable-background:accumulate" />
    </g>
    <g
       transform="translate(-359.21158,-369.7833)"
       id="g15074">
      <path
         style="opacity:1;fill:#5b4a17;fill-opacity:1;fill-rule:evenodd;stroke:#000000;stroke-width:2;stroke-linecap:butt;stroke-linejoin:miter;marker:none;marker-start:none;marker-mid:none;marker-end:none;stroke-miterlimit:4;stroke-dasharray:none;stroke-dashoffset:0;stroke-opacity:1;visibility:visible;display:inline;overflow:visible;enable-background:accumulate"
         d="M 619.94888,746.67885 C 621.12739,745.97174 622.3059,745.26463 623.48441,744.55753 C 624.80641,743.76433 627.06678,738.80701 627.72706,737.48646 C 628.68488,735.5708 633.1249,733.50283 634.79812,731.82961 C 637.38306,729.24467 639.43628,727.19145 641.16208,725.46564 C 643.49753,723.1302 644.48349,722.14423 646.81894,719.80879 C 649.68255,716.94518 650.31929,716.30844 653.1829,713.44483 C 655.97719,710.65054 658.00181,709.33303 660.25397,707.08087 C 662.87007,704.46476 664.79125,703.25069 666.61793,701.42401 C 668.77833,699.26361 670.45381,698.29524 672.27478,696.47427 C 673.54942,695.19963 674.48755,690.45162 675.10321,687.98899 C 676.03502,684.26174 676.30254,681.77744 677.22453,678.08949 C 678.077,674.67963 679.20049,671.59986 680.05296,668.19 C 680.84019,665.04106 682.88138,664.29998 682.88138,660.41182 C 682.88138,657.57049 686.25077,653.67306 687.12402,651.92654 C 688.31807,649.53845 688.53824,646.37814 688.53824,643.44126 C 688.53824,640.61654 690.65023,636.40749 691.36667,633.54176 C 692.04899,630.81247 693.31029,628.59571 694.19509,625.05648 C 695.0062,621.81205 691.71872,622.93516 687.83113,622.93516 C 684.12176,622.93516 681.11276,623.73044 677.93164,622.93516 C 674.76784,622.14421 671.28411,624.84471 669.44636,625.76359 C 666.83812,627.06771 659.61874,626.4707 656.71843,626.4707 C 654.08945,626.4707 650.06636,630.50384 648.23315,631.42044 C 645.07635,632.99884 643.5817,636.07189 641.16208,638.49151 C 638.12274,641.53086 636.01785,642.92864 633.38391,645.56258 C 630.85815,648.08834 630.1595,648.47586 628.43416,651.92654 C 627.17038,654.45411 626.31284,658.85876 626.31284,661.82603 C 626.31284,666.67334 625.33787,672.79698 624.19152,677.38238 C 622.82925,682.83145 624.13994,688.90243 622.77731,694.35295 C 621.77697,698.3543 622.16181,702.38018 621.36309,706.37376 C 620.70128,709.68282 619.95537,713.41238 619.24177,716.98036 C 618.47125,720.83298 617.35332,724.53417 616.41335,728.29407 C 615.56089,731.70391 618.6147,734.33789 617.82756,737.48646 C 617.04727,740.60761 619.41768,744.02287 619.94888,746.67885 z"
         id="path15076" />
      <path
         style="opacity:1;fill:#201602;fill-opacity:1;fill-rule:evenodd;stroke:#000000;stroke-width:2;stroke-linecap:butt;stroke-linejoin:miter;marker:none;marker-start:none;marker-mid:none;marker-end:none;stroke-miterlimit:4;stroke-dasharray:none;stroke-dashoffset:0;stroke-opacity:1;visibility:visible;display:inline;overflow:visible;enable-background:accumulate"
         d="M 523.07525,622.22805 C 525.86909,625.0219 519.53972,629.59067 519.53972,633.54176 C 519.53972,636.53159 518.83261,640.05056 518.83261,643.44126 C 518.83261,644.84621 517.78787,650.44866 517.4184,651.92654 C 516.5258,655.49691 516.84768,657.74493 516.00418,661.11893 C 515.20605,664.31148 515.36729,667.90915 514.58997,671.01842 C 513.8491,673.9819 513.20623,676.5534 512.46865,679.5037 C 511.71158,682.53198 510.34733,684.44928 510.34733,687.98899 C 510.34733,689.89932 510.09697,690.40464 509.64022,692.23163 C 509.64022,693.46939 518.9454,697.59132 519.53972,697.88848 C 522.07331,699.15528 524.39103,700.31413 526.61079,701.42401 C 529.70155,702.96939 532.586,704.49121 535.09607,706.37376 C 536.99117,707.79509 540.97711,707.90007 543.58135,709.20219 C 546.19823,710.51063 549.59756,712.9174 552.06663,714.15194 C 554.48425,715.36075 556.39647,717.02396 559.1377,718.39458 C 561.79859,719.72502 564.77513,721.04137 568.33009,721.93011 C 571.85477,722.81128 573.73908,724.51068 575.40115,726.17275 C 576.83632,727.60792 580.39702,728.67068 582.47222,729.70829 C 585.4041,731.17422 589.2858,732.05441 591.66461,733.24382 C 595.04308,734.93306 596.25072,735.00151 598.73568,737.48646 C 600.73301,739.48379 604.50292,741.43074 606.51385,742.43621 C 609.3835,743.87103 610.71527,745.24403 613.58492,746.67885 C 618.11231,748.94255 617.40236,747.84581 619.24177,747.38595 C 621.65425,746.78284 623.09383,740.46303 623.48441,738.90067 C 624.24411,735.86189 624.89834,733.95209 625.60573,731.1225 C 626.10751,729.11539 627.87963,726.26955 628.43416,724.05143 C 629.15017,721.18739 629.9136,718.84079 630.55548,716.27326 C 631.40314,712.88263 631.96112,710.65069 632.6768,707.78797 C 633.40794,704.86344 635.20561,702.73036 636.21234,700.71691 C 637.7092,697.72317 637.61975,695.09407 638.33366,691.52452 C 638.97833,688.30115 639.8767,684.64522 640.45498,682.33213 C 641.19933,679.35472 641.16208,676.75766 641.16208,673.13974 C 641.16208,671.33952 641.95801,666.42049 642.5763,663.94735 C 643.01166,662.2059 641.25775,660.60315 640.45498,658.99761"
         id="path15078" />
      <path
         style="opacity:1;fill:#453c1e;fill-opacity:1;fill-rule:evenodd;stroke:#000000;stroke-width:2;stroke-linecap:butt;stroke-linejoin:miter;marker:none;marker-start:none;marker-mid:none;marker-end:none;stroke-miterlimit:4;stroke-dasharray:none;stroke-dashoffset:0;stroke-opacity:1;visibility:visible;display:inline;overflow:visible;enable-background:accumulate"
         d="M 523.78236,621.52095 C 524.88185,620.69633 526.13938,620.10673 527.31789,619.39963 C 530.41232,617.54297 531.90374,615.69249 534.38896,614.44988 C 537.19305,613.04783 538.93512,610.76259 541.46003,609.50013 C 545.06361,607.69834 545.77358,606.60079 547.82399,604.55038 C 549.75789,602.61648 551.35226,601.72922 554.18795,598.89353 C 556.2112,596.87028 560.14864,594.59979 561.96612,593.23668 C 564.17466,591.58027 567.03215,589.79071 569.03719,588.28693 C 571.48403,586.4518 574.61819,584.12014 576.10826,582.63007 C 578.17104,580.5673 581.45493,578.99531 583.88643,578.38743 C 584.62306,578.20328 585.09741,576.57097 585.30065,576.26611 C 585.57899,576.19652 594.71487,582.33198 595.90725,582.63007 C 598.35498,583.24201 601.97883,584.88566 603.68542,586.16561 C 605.39319,587.44643 609.77669,588.15058 611.4636,588.99404 C 614.54417,590.53432 617.02611,590.36108 619.94888,591.82246 C 622.25072,592.97338 625.06858,593.6752 627.01995,594.65089 C 629.52985,595.90584 632.97907,596.671 636.21234,597.47932 C 639.14601,598.21273 642.32801,599.53856 645.40472,600.30774 C 647.85895,600.9213 651.55711,602.55295 653.89001,603.13617 C 656.99704,603.91293 659.6785,605.88655 661.66818,607.37881 C 663.41246,608.68702 667.21309,610.17925 670.15346,610.91435 C 672.58531,611.52231 675.32162,614.20553 677.22453,615.15699 C 680.1866,616.63802 683.14344,618.11644 685.70981,619.39963 C 689.10259,621.09602 690.51498,622.01513 694.19509,622.93516 C 694.82855,623.09352 688.83237,626.17657 685.0027,630.00623 C 682.94696,632.06197 680.7332,633.38513 678.63874,634.95598 C 675.26972,637.48275 674.13673,639.45799 672.27478,641.31994 C 670.83781,642.75691 667.30171,646.293 665.20371,648.39101 C 661.88091,651.71381 660.42551,653.2121 657.42554,655.46207 C 654.76012,657.46114 653.7271,658.45341 651.06158,661.11893 C 649.48186,662.69865 646.14434,664.62195 644.69762,666.06867 C 643.2639,667.5024 641.5614,668.69744 639.74787,669.60421 C 635.5482,669.60421 630.89335,668.52787 628.43416,666.06867 C 626.27459,663.9091 623.96886,661.94715 620.65599,661.11893 C 617.30829,660.282 614.92337,658.27156 612.17071,657.58339 C 608.7272,656.72252 606.74117,653.92791 604.39253,653.34075 C 601.36043,652.58273 598.36858,651.74299 595.90725,650.51233 C 593.27231,649.19485 590.69245,647.79441 587.42197,646.97679 C 584.77732,646.31563 580.13234,644.14836 578.22958,644.14836 C 574.24843,644.14836 572.58986,642.74272 569.7443,641.31994 C 567.34341,640.11949 564.16861,638.5118 561.25902,637.7844 C 557.6667,636.88632 554.86348,635.6473 552.06663,634.24887 C 549.47509,632.9531 546.48399,631.61577 542.87424,630.71334 C 539.89415,629.96831 536.39034,626.4707 534.38896,626.4707 C 534.15326,626.4707 533.89267,626.5761 533.68185,626.4707 C 530.38202,624.82078 521.17361,624.1297 523.78236,621.52095 z"
         id="path15080" />
      <path
         style="opacity:1;fill:#a49b7b;fill-opacity:1;fill-rule:evenodd;stroke:#000000;stroke-width:2;stroke-linecap:butt;stroke-linejoin:miter;marker:none;marker-start:none;marker-mid:none;marker-end:none;stroke-miterlimit:4;stroke-dasharray:none;stroke-dashoffset:0;stroke-opacity:1;visibility:visible;display:inline;overflow:visible;enable-background:accumulate"
         d="M 592.64466,586.08505 C 592.02631,588.55844 592.34188,580.38783 594.14466,578.58505 C 595.58628,577.14344 598.01213,579.01878 599.14466,579.58505 C 600.98602,580.50573 600.07149,583.7314 599.14466,585.58505 C 597.95047,587.97343 595.29141,587.14375 592.64466,586.08505 z"
         id="path15082" />
      <path
         style="opacity:1;fill:#201602;fill-opacity:1;fill-rule:evenodd;stroke:#000000;stroke-width:2;stroke-linecap:butt;stroke-linejoin:miter;marker:none;marker-start:none;marker-mid:none;marker-end:none;stroke-miterlimit:4;stroke-dasharray:none;stroke-dashoffset:0;stroke-opacity:1;visibility:visible;display:inline;overflow:visible;enable-background:accumulate"
         d="M 582.47222,579.09454 C 582.00082,580.27305 581.52941,581.45156 581.05801,582.63007 C 579.70507,586.01241 577.33279,587.17885 581.76511,588.28693 C 583.99291,588.84388 587.31425,590.5581 589.54329,591.11536 C 592.70449,591.90566 595.99164,591.82246 599.44278,591.82246 C 602.61563,591.82246 606.4584,592.52957 610.04939,592.52957 C 613.73174,592.52957 615.70624,591.88542 615.70624,587.57982 C 615.70624,584.06782 615.30619,580.32276 614.99913,579.09454 C 614.24723,576.08693 608.90692,580.50875 605.80674,580.50875 C 602.50691,580.50875 599.20708,580.50875 595.90725,580.50875 C 592.67424,580.50875 590.23847,579.44213 588.12908,578.38743 C 586.90367,577.77473 583.23388,578.90413 582.47222,579.09454 z"
         id="path15084" />
      <path
         style="opacity:1;fill:#201602;fill-opacity:1;fill-rule:evenodd;stroke:#000000;stroke-width:2;stroke-linecap:butt;stroke-linejoin:miter;marker:none;marker-start:none;marker-mid:none;marker-end:none;stroke-miterlimit:4;stroke-dasharray:none;stroke-dashoffset:0;stroke-opacity:1;visibility:visible;display:inline;overflow:visible;enable-background:accumulate"
         d="M 552.06663,598.89353 C 549.45895,597.58969 549.94531,604.46334 549.94531,607.37881 C 549.94531,609.92832 555.16909,609.3411 556.30927,611.62145 C 557.91331,614.82953 555.92092,618.1246 555.60216,619.39963 C 554.34171,624.44144 559.55589,623.22407 561.25902,621.52095 C 563.12928,619.65068 564.06627,618.02776 565.50166,615.15699 C 567.18415,611.79201 564.29884,608.50871 563.38034,606.67171 C 561.58265,603.07633 560.134,602.71826 557.72348,600.30774 C 556.90557,599.48983 552.684,599.017 552.06663,598.89353 z"
         id="path15086" />
      <path
         style="opacity:1;fill:#201602;fill-opacity:1;fill-rule:evenodd;stroke:#000000;stroke-width:2;stroke-linecap:butt;stroke-linejoin:miter;marker:none;marker-start:none;marker-mid:none;marker-end:none;stroke-miterlimit:4;stroke-dasharray:none;stroke-dashoffset:0;stroke-opacity:1;visibility:visible;display:inline;overflow:visible;enable-background:accumulate"
         d="M 557.72348,616.5712 C 555.55042,614.39813 563.41859,611.77445 562.67323,608.79303 C 562.13937,606.65759 558.34534,603.49391 557.01638,601.72196 C 556.29524,600.76044 555.40015,600.91384 554.18795,600.30774"
         id="path15088" />
      <path
         style="opacity:1;fill:#201602;fill-opacity:1;fill-rule:evenodd;stroke:#000000;stroke-width:2;stroke-linecap:butt;stroke-linejoin:miter;marker:none;marker-start:none;marker-mid:none;marker-end:none;stroke-miterlimit:4;stroke-dasharray:none;stroke-dashoffset:0;stroke-opacity:1;visibility:visible;display:inline;overflow:visible;enable-background:accumulate"
         d="M 616.41335,644.85547 C 614.8009,642.70554 618.95939,652.42128 621.36309,651.21943 C 624.6869,649.55753 627.17667,649.09811 631.26259,649.09811 C 635.149,649.09811 638.46037,649.8369 641.16208,650.51233 C 642.41904,650.82656 644.99208,654.47503 646.11183,654.75497 C 646.81005,654.92952 650.03135,646.85508 650.35447,645.56258 C 650.79506,643.80023 645.10126,641.87531 643.99051,641.31994 C 641.59363,640.12149 638.24333,639.35281 634.79812,638.49151 C 631.91091,637.76971 627.88895,638.49151 624.89863,638.49151 C 620.76088,638.49151 618.69304,639.04025 616.41335,641.31994 C 615.58001,642.15327 616.41335,643.67696 616.41335,644.85547 z"
         id="path15090" />
      <path
         style="opacity:1;fill:#a49b7b;fill-opacity:1;fill-rule:evenodd;stroke:#000000;stroke-width:2;stroke-linecap:butt;stroke-linejoin:miter;marker:none;marker-start:none;marker-mid:none;marker-end:none;stroke-miterlimit:4;stroke-dasharray:none;stroke-dashoffset:0;stroke-opacity:1;visibility:visible;display:inline;overflow:visible;enable-background:accumulate"
         d="M 537.64466,617.08505 C 538.47799,617.75172 539.31133,618.41839 540.14466,619.08505 C 541.79256,620.40337 543.90113,620.20682 546.14466,619.08505 C 548.23697,618.0389 545.64466,614.42433 545.64466,612.08505 C 545.64466,609.23107 544.41247,609.08505 541.64466,609.08505 C 538.88443,609.08505 538.64466,611.04015 538.64466,613.58505 C 538.64466,616.21915 541.25344,611.07041 537.64466,617.08505 z"
         id="path15092" />
      <path
         style="opacity:1;fill:#a49b7b;fill-opacity:1;fill-rule:evenodd;stroke:#000000;stroke-width:2;stroke-linecap:butt;stroke-linejoin:miter;marker:none;marker-start:none;marker-mid:none;marker-end:none;stroke-miterlimit:4;stroke-dasharray:none;stroke-dashoffset:0;stroke-opacity:1;visibility:visible;display:inline;overflow:visible;enable-background:accumulate"
         d="M 628.64466,655.08505 C 628.64466,657.81046 633.91381,659.58505 635.64466,659.58505 C 638.05339,659.58505 637.67768,656.45296 638.14466,654.58505 C 638.55627,652.93861 638.01021,649.54724 637.64466,648.08505 C 637.26715,646.575 632.70237,647.08505 631.14466,647.08505 C 629.21615,647.08505 629.34262,653.34016 628.64466,655.08505 z"
         id="path15094" />
      <path
         style="opacity:1;fill:#a49b7b;fill-opacity:1;fill-rule:evenodd;stroke:#000000;stroke-width:2;stroke-linecap:butt;stroke-linejoin:miter;marker:none;marker-start:none;marker-mid:none;marker-end:none;stroke-miterlimit:4;stroke-dasharray:none;stroke-dashoffset:0;stroke-opacity:1;visibility:visible;display:inline;overflow:visible;enable-background:accumulate"
         d="M 674.14466,619.08505 C 671.45724,619.08505 678.45724,623.08505 681.14466,623.08505 C 681.41707,623.08505 682.68131,618.01175 683.14466,617.08505 C 683.98898,615.39642 684.14466,613.16174 684.14466,611.08505 C 684.14466,610.03699 679.69953,609.58505 678.14466,609.58505 C 676.01341,609.58505 676.08287,612.33222 675.64466,614.08505 C 675.25559,615.64135 675.0006,616.9452 674.14466,619.08505 z"
         id="path15096" />
      <path
         style="opacity:1;fill:#201602;fill-opacity:1;fill-rule:evenodd;stroke:#000000;stroke-width:2;stroke-linecap:butt;stroke-linejoin:miter;marker:none;marker-start:none;marker-mid:none;marker-end:none;stroke-miterlimit:4;stroke-dasharray:none;stroke-dashoffset:0;stroke-opacity:1;visibility:visible;display:inline;overflow:visible;enable-background:accumulate"
         d="M 665.20371,602.42906 C 662.51745,605.11533 661.83941,609.86479 660.25397,613.03567 C 659.5421,614.4594 662.71007,618.3202 663.7895,619.39963 C 666.4056,622.01573 668.32678,623.2298 670.15346,625.05648 C 673.68974,628.59275 675.89398,624.01472 676.51742,621.52095 C 677.6378,617.03944 679.73357,615.60747 675.10321,614.44988 C 671.73112,613.60686 671.43956,612.20044 669.44636,610.20724 C 668.0757,608.83658 666.84913,605.17143 665.20371,602.42906 z"
         id="path15098" />
      <path
         style="opacity:1;fill:none;fill-opacity:1;fill-rule:evenodd;stroke:#000000;stroke-width:2;stroke-linecap:butt;stroke-linejoin:miter;marker:none;marker-start:none;marker-mid:none;marker-end:none;stroke-miterlimit:4;stroke-dasharray:none;stroke-dashoffset:0;stroke-opacity:1;visibility:visible;display:inline;overflow:visible;enable-background:accumulate"
         d="M 539.64466,612.58505 C 540.47799,613.08505 541.31133,613.58505 542.14466,614.08505 C 543.68736,615.01067 545.49994,613.06859 546.14466,612.58505"
         id="path15100" />
      <path
         style="opacity:1;fill:none;fill-opacity:1;fill-rule:evenodd;stroke:#000000;stroke-width:2;stroke-linecap:butt;stroke-linejoin:miter;marker:none;marker-start:none;marker-mid:none;marker-end:none;stroke-miterlimit:4;stroke-dasharray:none;stroke-dashoffset:0;stroke-opacity:1;visibility:visible;display:inline;overflow:visible;enable-background:accumulate"
         d="M 539.64466,616.58505 C 541.90231,617.93964 544.83229,616.99124 546.64466,616.08505"
         id="path15102" />
      <path
         style="opacity:1;fill:none;fill-opacity:1;fill-rule:evenodd;stroke:#000000;stroke-width:2;stroke-linecap:butt;stroke-linejoin:miter;marker:none;marker-start:none;marker-mid:none;marker-end:none;stroke-miterlimit:4;stroke-dasharray:none;stroke-dashoffset:0;stroke-opacity:1;visibility:visible;display:inline;overflow:visible;enable-background:accumulate"
         d="M 630.64466,651.08505 C 631.47799,651.58505 632.31133,652.08505 633.14466,652.58505 C 635.04211,653.72352 636.09454,652.86011 637.64466,652.08505"
         id="path15104" />
      <path
         style="opacity:1;fill:none;fill-opacity:1;fill-rule:evenodd;stroke:#000000;stroke-width:2;stroke-linecap:butt;stroke-linejoin:miter;marker:none;marker-start:none;marker-mid:none;marker-end:none;stroke-miterlimit:4;stroke-dasharray:none;stroke-dashoffset:0;stroke-opacity:1;visibility:visible;display:inline;overflow:visible;enable-background:accumulate"
         d="M 630.64466,654.58505 C 631.47799,655.08505 632.31133,655.58505 633.14466,656.08505 C 635.51016,657.50435 637.79755,655.50861 639.64466,654.58505"
         id="path15106" />
      <path
         style="opacity:1;fill:none;fill-opacity:1;fill-rule:evenodd;stroke:#000000;stroke-width:2;stroke-linecap:butt;stroke-linejoin:miter;marker:none;marker-start:none;marker-mid:none;marker-end:none;stroke-miterlimit:4;stroke-dasharray:none;stroke-dashoffset:0;stroke-opacity:1;visibility:visible;display:inline;overflow:visible;enable-background:accumulate"
         d="M 676.64466,613.08505 C 677.47799,613.58505 678.31133,614.08505 679.14466,614.58505 C 680.81549,615.58755 682.65423,614.58027 683.64466,614.08505"
         id="path15108" />
      <path
         style="opacity:1;fill:none;fill-opacity:1;fill-rule:evenodd;stroke:#000000;stroke-width:2;stroke-linecap:butt;stroke-linejoin:miter;marker:none;marker-start:none;marker-mid:none;marker-end:none;stroke-miterlimit:4;stroke-dasharray:none;stroke-dashoffset:0;stroke-opacity:1;visibility:visible;display:inline;overflow:visible;enable-background:accumulate"
         d="M 677.14466,618.58505 C 678.85526,619.61141 681.54523,618.88477 683.14466,618.08505"
         id="path15110" />
    </g>
    <g
       transform="translate(-406.3329,-339.86299)"
       id="g15112">
      <path
         style="fill:#8f8ba5;fill-opacity:1;fill-rule:evenodd;stroke:#000000;stroke-width:2;stroke-linecap:butt;stroke-linejoin:miter;marker:none;marker-start:none;marker-mid:none;marker-end:none;stroke-miterlimit:4;stroke-dasharray:none;stroke-dashoffset:0;stroke-opacity:1;visibility:visible;display:inline;overflow:visible;enable-background:accumulate"
         d="M 582.64094,398.7123 C 584.82432,400.63876 596.73563,396.88049 602.27481,396.16059 C 609.24377,395.25487 609.41132,393.71598 615.87119,396.5327 C 621.83836,399.13458 624.03358,401.55539 629.15874,405.50159 C 633.12045,408.55197 637.08216,411.60236 641.04387,414.65274 C 643.39685,416.46446 638.85882,423.30478 636.4645,428.79592 C 633.8074,434.88974 630.75221,440.07607 628.04241,446.29073 C 625.97694,451.02769 623.05537,456.04595 619.86586,460.18835 C 616.87474,464.07309 614.52824,470.00243 612.48166,474.69606 C 610.31735,479.65967 608.517,484.39541 606.49987,489.0215 C 604.51995,493.56225 602.30552,497.42719 600.33582,501.94452 C 598.30596,506.59981 593.546,505.63296 589.29873,504.80506 C 585.11292,503.98914 577.75864,504.87876 575.09227,505.22529 C 570.58432,505.81117 569.24749,505.77333 563.9362,501.68381 C 559.43447,498.21763 555.89155,495.4897 551.25873,491.92258 C 545.81085,487.72789 542.40764,491.59018 545.3478,484.8472 C 547.3607,480.23083 548.08153,476.75725 550.10944,472.10645 C 552.10165,467.53751 552.89836,463.5669 556.27349,459.18343 C 558.06649,456.85476 560.21699,448.92578 561.6452,445.65033 C 563.59993,441.16735 564.34716,437.63323 566.40683,432.90957 C 568.45962,428.20169 570.4223,424.91411 572.57088,419.98655 C 574.86528,414.72458 575.72194,411.54632 577.94259,406.45346 C 579.05202,403.9091 579.7993,402.40291 582.64094,398.7123 z"
         id="path15114" />
      <path
         id="path15116"
         d="M 624.37529,442.48259 C 626.3223,442.96934 620.37182,442.12903 618.36488,442.12903 C 616.8971,442.12903 615.48972,441.23497 615.1829,440.00771 C 614.67366,437.97074 615.62733,436.99754 616.24356,435.76507 C 616.89348,434.46524 619.10131,435.50724 620.13265,435.76507 C 621.92296,436.21265 623.125,436.07122 624.72884,436.47218 C 625.85183,436.75293 626.16231,437.27249 627.20372,437.53284"
         style="opacity:1;fill:#86845a;fill-opacity:1;fill-rule:evenodd;stroke:#000000;stroke-width:2;stroke-linecap:butt;stroke-linejoin:miter;marker:none;marker-start:none;marker-mid:none;marker-end:none;stroke-miterlimit:4;stroke-dasharray:none;stroke-dashoffset:0;stroke-opacity:1;visibility:visible;display:inline;overflow:visible;enable-background:accumulate" />
      <path
         id="path15118"
         style="fill:#cac8d3;fill-opacity:1;fill-rule:evenodd;stroke:#000000;stroke-width:2;stroke-linecap:butt;stroke-linejoin:miter;marker:none;marker-start:none;marker-mid:none;marker-end:none;stroke-miterlimit:4;stroke-dasharray:none;stroke-dashoffset:0;stroke-opacity:1;visibility:visible;display:inline;overflow:visible;enable-background:accumulate"
         d="M 578.02103,368.65142 C 581.27477,364.4256 587.388,374.23115 590.69851,378.41265 C 593.12029,381.47161 586.65419,385.6997 587.15703,389.56873 C 587.35421,391.08597 598.58045,395.0789 600.08005,395.73278 C 604.68796,397.74199 606.42745,402.24127 610.26151,397.26176 C 613.569,392.96614 612.9311,388.8772 616.42556,384.33874 C 619.07704,380.89512 622.67231,390.41061 626.11593,393.06208 C 629.77012,395.87568 632.91774,398.91833 634.22162,400.56527 C 635.03372,401.59104 628.53541,412.39241 628.05757,413.48829 C 625.89746,418.44228 621.62369,412.23417 617.08376,411.34923 C 614.70897,410.88633 612.70896,420.7756 611.52979,423.47991 C 609.88297,427.25672 608.14402,432.45847 606.15808,437.01301 C 604.02285,441.90993 602.2788,445.30292 600.6041,449.14369 C 598.83839,453.19315 597.36569,456.62788 594.25779,460.66429 C 591.75906,463.90952 589.73447,469.82443 588.09374,473.58731 C 585.723,479.02435 583.22274,482.21417 582.11195,487.91275 C 581.28566,492.15175 578.57572,497.84315 577.35032,500.6535 C 575.08791,505.84211 575.37085,507.19889 580.63867,509.49583 C 586.89336,512.22309 587.77446,514.96234 586.91412,519.37605 C 586.02854,523.91928 583.26388,527.14069 581.36015,531.50672 C 579.73332,535.23769 571.33882,529.25381 568.80166,528.14751 C 562.70265,525.48814 559.26734,526.95478 562.09839,520.46206 C 564.27227,515.4765 567.52418,510.75684 562.4705,506.86568 C 558.59975,503.88533 553.71895,502.52053 549.54748,500.70162 C 543.89531,498.23709 540.84677,496.25103 539.73055,501.97748 C 538.76007,506.95622 534.62768,511.88315 532.77415,514.29042 C 530.25874,517.55734 525.48276,510.13537 521.43582,509.34653 C 515.32976,508.15631 519.71605,503.5817 521.56238,499.34733 C 523.9957,493.76675 524.16943,488.51385 526.56956,483.00939 C 526.86478,482.33233 533.72878,484.86053 536.14095,485.33072 C 540.55392,486.19092 541.74074,479.76986 543.46187,475.82261 C 545.14733,471.95718 547.07469,468.14378 549.01585,463.69193 C 551.10581,458.89882 551.90532,455.02179 555.1799,450.76891 C 558.2563,446.77342 558.47954,440.16747 560.36934,435.8334 C 562.2942,431.41891 565.01479,426.39314 566.53339,422.91038 C 568.11724,419.27799 569.77242,413.30596 570.50268,409.55954 C 571.21874,405.886 574.30459,399.70438 576.66674,396.63652 C 578.49613,394.26058 571.84999,392.92779 568.74331,390.53575 C 563.97176,386.86181 565.86327,384.44141 569.47996,379.74421 C 572.78065,377.79192 571.07744,378.48903 572.62147,376.48371 C 574.00069,374.69244 576.29877,372.60125 577.19705,370.54115 C 577.47171,369.91123 577.74637,369.28134 578.02103,368.65142 z M 580,379.86218 C 575.76954,379.61252 574.35344,380.44841 573.5,383.86218 C 572.96918,385.98548 577.01138,387.11503 578,387.36218 C 580.41493,387.96591 581.36497,387.49722 583,385.86218 C 585.44843,383.41375 582.66652,381.9954 580,379.86218 z M 574.5,514.86218 C 573.43607,512.73431 569.5,519.10441 569.5,520.36218 C 569.5,522.26406 572.88461,524.24679 573.5,524.86218 C 575.56245,526.92463 578.08069,523.2008 578.5,522.36218 C 579.74335,519.87549 580.07067,518.64487 579.5,516.36218 C 578.88069,513.88494 577.07584,514.34701 574.5,514.86218 z M 528.5,497.36218 C 528.34614,496.74674 523.67388,500.55769 524.5,503.86218 C 525.06562,506.12466 527.91218,507.36218 530.5,507.36218 C 533.39976,507.36218 535.1211,505.11999 536,503.36218 C 537.21639,500.92941 534.74775,499.10993 534,498.36218 C 533.25486,497.61704 529.36325,497.53483 528.5,497.36218 z M 620,396.36218 C 617.50692,395.85835 616,397.58774 616,401.36218 C 616,404.11362 617.91676,405.77894 619.5,407.36218 C 621.11868,408.98086 624.72717,405.63501 625,405.36218 C 626.4477,403.91448 626.45707,401.19045 626,399.36218 C 625.24921,396.35901 622.72844,395.27081 620,396.36218 z" />
      <path
         style="opacity:1;fill:#86845a;fill-opacity:1;fill-rule:evenodd;stroke:#000000;stroke-width:2;stroke-linecap:butt;stroke-linejoin:miter;marker:none;marker-start:none;marker-mid:none;marker-end:none;stroke-miterlimit:4;stroke-dasharray:none;stroke-dashoffset:0;stroke-opacity:1;visibility:visible;display:inline;overflow:visible;enable-background:accumulate"
         d="M 600.68721,488.79808 C 602.63422,489.28483 596.68374,488.44452 594.6768,488.44452 C 593.20902,488.44452 591.80164,487.55046 591.49482,486.3232 C 590.98558,484.28623 591.93925,483.31303 592.55548,482.08056 C 593.2054,480.78073 595.41323,481.82273 596.44457,482.08056 C 598.23488,482.52814 599.43692,482.38671 601.04076,482.78767 C 602.16375,483.06842 602.47423,483.58798 603.51564,483.84833"
         id="path15120" />
      <path
         style="fill:#f6f3ff;fill-opacity:1;fill-rule:evenodd;stroke:#000000;stroke-width:2;stroke-linecap:butt;stroke-linejoin:miter;marker:none;marker-start:none;marker-mid:none;marker-end:none;stroke-miterlimit:4;stroke-dasharray:none;stroke-dashoffset:0;stroke-opacity:1;visibility:visible;display:inline;overflow:visible;enable-background:accumulate"
         d="M 580.68415,411.08853 C 582.98406,405.81392 590.70958,416.7829 595.98419,419.08281 C 601.22065,421.36608 603.67207,422.21122 599.88262,427.13279 C 597.80221,429.83474 596.3922,436.95816 595.12099,439.87355 C 593.00393,444.72882 590.76457,448.65094 588.95694,452.79657 C 587.5902,455.93105 586.66224,460.48648 584.80538,464.74498 C 583.03599,468.80293 581.85411,472.12024 580.47156,475.29098 C 578.33744,480.18538 574.89771,483.10658 573.76072,484.00674 C 570.58133,486.52387 566.74963,479.89132 563.03246,478.2705 C 559.01125,476.51712 555.49067,476.80043 552.05865,476.13144 C 551.46746,476.01621 554.11865,468.37301 555.60013,464.97537 C 557.52834,460.55322 558.32051,456.91602 560.36176,452.23461 C 562.1781,448.069 563.57544,443.04394 565.12339,439.49386 C 566.5484,436.22574 568.69373,431.57859 571.46971,427.97326 C 573.82544,424.91374 574.70295,420.55814 576.41361,416.63492 C 578.16701,412.61369 573.89954,417.00608 580.68415,411.08853 z"
         id="path15122" />
      <path
         style="opacity:1;fill:#a3a0af;fill-opacity:1;fill-rule:evenodd;stroke:#000000;stroke-width:2;stroke-linecap:butt;stroke-linejoin:miter;marker:none;marker-start:none;marker-mid:none;marker-end:none;stroke-miterlimit:4;stroke-dasharray:none;stroke-dashoffset:0;stroke-opacity:1;visibility:visible;display:inline;overflow:visible;enable-background:accumulate"
         d="M 554.5,457.36218 C 554.33333,458.19552 554.16667,459.02885 554,459.86218 C 553.53658,462.17929 553.04011,463.70173 552.5,465.86218 C 551.95481,468.04294 555.08885,469.1566 556.5,469.86218 C 558.27136,470.74786 559.67762,471.95099 561.5,472.86218 C 563.3808,473.80258 565.03242,473.99529 566.5,474.36218 C 566.71738,474.41653 569.63449,470.72769 570,470.36218 C 571.37424,468.98795 573.40294,467.95924 574.5,466.86218 C 575.97942,465.38276 577.24635,464.61584 578.5,463.36218 C 580.22803,461.63415 580.82098,460.57827 581.5,457.86218 C 581.95851,456.02816 582.79089,453.7804 583.5,452.36218 C 584.96088,449.44043 583.20472,449.27161 583,448.86218 C 582.75613,448.37445 577.45999,448.10218 576.5,447.86218 C 575.40069,447.58735 574.34292,448.27645 574,448.36218"
         id="path15124" />
      <path
         style="fill:#e4e4e4;fill-opacity:1;fill-rule:evenodd;stroke:#000000;stroke-width:2;stroke-linecap:butt;stroke-linejoin:miter;marker:none;marker-start:none;marker-mid:none;marker-end:none;stroke-miterlimit:4;stroke-dasharray:none;stroke-dashoffset:0;stroke-opacity:1;visibility:visible;display:inline;overflow:visible;enable-background:accumulate"
         d="M 581.0197,421.07483 C 578.77528,425.61903 575.04799,433.51567 572.88104,438.48535 C 570.88086,443.07256 571.97301,442.24437 569.97543,442.7733 C 566.66407,443.6501 558.0674,453.90088 554.98514,456.3411 C 555.40204,458.74428 566.34548,461.65879 567.48925,464.39427 C 571.99024,458.58452 577.51649,455.93282 582.1182,449.91595 C 585.20265,445.91001 585.06166,443.16543 587.0621,438.57762 C 588.73168,434.74859 590.42848,430.85715 592.006,427.23928 C 584.82817,422.46142 587.06625,424.39425 581.0197,421.07483 z"
         id="path15126"
         sodipodi:nodetypes="csscccscc" />
      <path
         style="fill:none;fill-opacity:1;fill-rule:evenodd;stroke:#000000;stroke-width:2;stroke-linecap:butt;stroke-linejoin:miter;marker:none;marker-start:none;marker-mid:none;marker-end:none;stroke-miterlimit:4;stroke-dasharray:none;stroke-dashoffset:0;stroke-opacity:1;visibility:visible;display:inline;overflow:visible;enable-background:accumulate"
         d="M 571.37745,441.65432 C 573.98175,444.47501 578.81632,446.5786 582.49563,448.1829"
         id="path15128"
         sodipodi:nodetypes="cc" />
      <path
         style="opacity:1;fill:none;fill-opacity:1;fill-rule:evenodd;stroke:#000000;stroke-width:2;stroke-linecap:butt;stroke-linejoin:miter;marker:none;marker-start:none;marker-mid:none;marker-end:none;stroke-miterlimit:4;stroke-dasharray:none;stroke-dashoffset:0;stroke-opacity:1;visibility:visible;display:inline;overflow:visible;enable-background:accumulate"
         d="M 567.5,462.86218 C 568.02204,465.87855 567.01897,469.28631 566.5,471.36218 C 566.37873,471.84725 566.5,472.36218 566.5,472.86218"
         id="path15130" />
      <path
         style="opacity:1;fill:#b9b783;fill-opacity:1;fill-rule:evenodd;stroke:#000000;stroke-width:2;stroke-linecap:butt;stroke-linejoin:miter;marker:none;marker-start:none;marker-mid:none;marker-end:none;stroke-miterlimit:4;stroke-dasharray:none;stroke-dashoffset:0;stroke-opacity:1;visibility:visible;display:inline;overflow:visible;enable-background:accumulate"
         d="M 624.37529,432.22954 C 623.78603,432.46524 623.19678,432.70094 622.60752,432.93665 C 621.09651,433.54105 620.12652,435.42377 619.42554,436.82573 C 618.85635,437.96411 618.37615,439.96264 618.01133,441.42193 C 617.63727,442.91817 618.10778,444.98972 618.36488,446.01812 C 618.7261,447.46301 621.23406,448.69015 622.25397,449.2001 C 623.60659,449.87641 626.14676,448.84469 626.85016,448.49299 C 628.17206,447.83204 629.29947,446.04369 630.03214,445.31101 C 630.78773,444.55542 631.10086,442.80393 631.44636,441.42193 C 631.81844,439.93361 631.41836,437.77441 631.0928,436.47218 C 630.75867,435.13563 630.15778,434.12295 629.32504,433.2902 C 628.04517,432.01034 626.67062,432.22954 624.37529,432.22954 z"
         id="path15132" />
      <path
         style="opacity:1;fill:#b9b783;fill-opacity:1;fill-rule:evenodd;stroke:#000000;stroke-width:2;stroke-linecap:butt;stroke-linejoin:miter;marker:none;marker-start:none;marker-mid:none;marker-end:none;stroke-miterlimit:4;stroke-dasharray:none;stroke-dashoffset:0;stroke-opacity:1;visibility:visible;display:inline;overflow:visible;enable-background:accumulate"
         d="M 599.62655,480.66635 C 598.46824,479.50803 595.91232,483.85216 595.38391,484.90899 C 594.698,486.28082 594.32325,487.60968 594.32325,489.50518 C 594.32325,491.51624 595.45483,492.82901 596.09102,494.10138 C 596.65755,495.23443 598.84595,495.93916 599.98011,496.2227 C 601.73844,496.66228 603.23717,496.53871 604.5763,495.86915 C 606.69311,494.81074 607.51257,493.53215 608.46539,491.6265 C 609.19733,490.16262 609.17249,488.8958 609.17249,487.03031 C 609.17249,485.18553 608.80198,483.7805 608.46539,482.43412 C 608.2251,481.47296 606.01241,479.79889 605.28341,479.25214 C 603.21207,477.69863 601.8178,479.78985 599.62655,480.66635 z"
         id="path15134" />
      <path
         style="opacity:1;fill:none;fill-opacity:1;fill-rule:evenodd;stroke:#000000;stroke-width:2;stroke-linecap:butt;stroke-linejoin:miter;marker:none;marker-start:none;marker-mid:none;marker-end:none;stroke-miterlimit:4;stroke-dasharray:none;stroke-dashoffset:0;stroke-opacity:1;visibility:visible;display:inline;overflow:visible;enable-background:accumulate"
         d="M 601.04076,483.14122 C 602.2325,481.94949 605.37929,487.0403 605.63696,487.38386 C 606.31361,488.28607 606.34407,490.16983 606.34407,491.6265 C 606.34407,492.22817 607.30071,493.68532 607.40473,494.10138"
         id="path15136" />
      <path
         style="opacity:1;fill:none;fill-opacity:1;fill-rule:evenodd;stroke:#000000;stroke-width:2;stroke-linecap:butt;stroke-linejoin:miter;marker:none;marker-start:none;marker-mid:none;marker-end:none;stroke-miterlimit:4;stroke-dasharray:none;stroke-dashoffset:0;stroke-opacity:1;visibility:visible;display:inline;overflow:visible;enable-background:accumulate"
         d="M 599.273,491.98006 C 599.273,492.22603 602.67735,490.69703 604.92985,488.44452 C 606.02094,487.35344 606.99187,485.38115 607.40473,484.55544 C 607.45743,484.45003 607.40473,484.31973 607.40473,484.20188 C 607.40473,483.82921 607.64043,483.49478 607.75828,483.14122"
         id="path15138" />
      <path
         style="opacity:1;fill:none;fill-opacity:1;fill-rule:evenodd;stroke:#000000;stroke-width:2;stroke-linecap:butt;stroke-linejoin:miter;marker:none;marker-start:none;marker-mid:none;marker-end:none;stroke-miterlimit:4;stroke-dasharray:none;stroke-dashoffset:0;stroke-opacity:1;visibility:visible;display:inline;overflow:visible;enable-background:accumulate"
         d="M 627.91082,433.29019 C 627.91082,431.15582 627.20372,437.51978 627.20372,439.65416 C 627.20372,441.17387 626.32244,442.83093 625.7895,443.8968 C 625.22784,445.02012 624.21687,446.17653 624.02174,446.37167"
         id="path15140" />
      <path
         style="opacity:1;fill:none;fill-opacity:1;fill-rule:evenodd;stroke:#000000;stroke-width:2;stroke-linecap:butt;stroke-linejoin:miter;marker:none;marker-start:none;marker-mid:none;marker-end:none;stroke-miterlimit:4;stroke-dasharray:none;stroke-dashoffset:0;stroke-opacity:1;visibility:visible;display:inline;overflow:visible;enable-background:accumulate"
         d="M 622.60752,437.17928 C 622.23579,437.92275 627.28084,440.93016 627.55727,441.06837 C 629.07866,441.82907 629.45182,442.96292 630.3857,443.8968 C 630.50355,444.01465 630.6214,444.1325 630.73925,444.25035"
         id="path15142" />
    </g>
    <path
       id="path15144"
       d="M 128.69209,221.54527 C 124.68515,221.54527 135.71477,225.41017 139.29869,227.20213 C 139.50951,227.30753 139.77009,227.20213 140.0058,227.20213 C 142.03742,227.20213 146.24184,229.43928 149.19818,230.03055 C 152.93128,230.77717 155.19093,232.15187 159.09768,232.15187 C 163.44531,232.15187 167.20852,230.30094 171.11849,229.32345 C 174.6299,228.44559 177.62292,227.62711 181.01799,225.0808 C 184.72802,222.29828 187.50907,220.71104 190.91748,217.30263 C 193.49206,214.72806 195.01536,210.52109 196.57434,207.40314 C 198.40512,203.74157 200.04362,199.95622 200.81698,196.08943 C 201.64671,191.94074 203.38296,188.65393 204.35251,184.77572 C 205.2908,181.02256 205.57668,178.46483 206.47383,174.87622 C 207.33572,171.42867 207.18094,167.93196 207.18094,164.26962 C 207.18094,160.5234 204.54719,157.58792 202.9383,154.37013 C 201.65473,151.80298 198.83373,148.85135 196.57434,146.59195 C 193.11631,143.13393 191.77146,143.4698 190.21038,146.59195 C 188.65347,149.70576 189.14656,152.5992 185.26063,148.71327 C 183.97515,147.42779 186.69651,143.01308 187.38195,141.64221 C 188.8949,138.6163 191.35669,138.10667 195.16012,138.10667 C 197.51331,138.10667 199.98448,142.80564 200.81698,144.47063 C 201.80935,146.45539 203.39602,149.62872 204.35251,151.5417 C 206.12578,155.08824 206.29118,156.46797 207.18094,160.02698 C 207.65362,161.91772 209.38206,164.58884 210.00937,167.09805 C 210.75235,170.06998 209.06819,174.39828 208.59515,176.29044 C 207.80734,179.44168 207.88805,182.53343 207.88805,185.48283 C 207.88805,187.96661 206.32116,191.04327 205.76673,193.261 C 205.05648,196.10199 203.40884,199.39098 202.23119,201.74628 C 200.83264,204.54339 199.85813,206.4924 198.69566,208.81735 C 197.37702,211.45463 197.05611,213.28533 195.16012,215.18131 C 193.48427,216.85717 193.09751,220.07235 190.91748,222.25238 C 188.72897,224.44089 186.79901,225.72583 183.84642,227.20213 C 180.87412,228.68827 179.22455,229.0647 175.36113,230.03055 C 172.33765,230.78642 169.2652,231.6643 166.87585,232.85898 C 164.59047,234.00167 161.92112,234.62924 159.80479,235.68741 C 157.00097,237.08932 152.57029,234.89859 151.3195,234.27319 C 148.99269,233.10979 145.05687,231.84898 142.83422,230.73766 C 140.26593,229.45351 135.73101,230.02251 132.93473,229.32345 C 128.18785,228.13672 126.47974,227.07613 128.69209,221.54527"
       style="opacity:1;fill:#b52c2e;fill-opacity:1;fill-rule:evenodd;stroke:#000000;stroke-width:2;stroke-linecap:butt;stroke-linejoin:miter;marker:none;marker-start:none;marker-mid:none;marker-end:none;stroke-miterlimit:4;stroke-dasharray:none;stroke-dashoffset:0;stroke-opacity:1;visibility:visible;display:inline;overflow:visible;enable-background:accumulate" />
    <path
       id="path15146"
       d="M 211.42358,99.2158 C 211.89498,98.03729 212.36639,96.85878 212.83779,95.68027 C 213.57634,93.8339 217.50534,91.57873 219.20175,90.73052 C 222.26956,89.19662 224.22724,88.76704 227.68703,87.90209 C 230.91964,87.09394 234.00639,85.78077 237.58655,85.78077 C 240.59875,85.78077 244.21045,85.13866 246.77895,85.78077 C 249.28585,86.4075 253.06405,87.35206 255.26415,87.90209 C 258.53945,88.72091 260.47415,88.49749 263.74945,89.31631 C 266.75905,90.0687 269.41405,91.43955 272.23475,92.14473 C 275.49515,92.95983 277.16735,96.91342 280.72005,97.80159 C 284.30325,98.69739 287.89775,102.45108 291.32665,104.16555 C 295.45195,106.22822 297.55265,109.63844 299.81195,112.65083 C 301.81735,115.32477 302.07205,117.73939 304.76165,120.429 C 307.41795,123.08527 308.34215,125.42367 311.12565,128.20718 C 313.60915,130.6907 314.27935,134.18937 316.78245,136.69246 C 319.29495,139.20492 319.85415,143.54291 321.02515,145.88485 C 322.47375,148.78204 318.26115,153.59853 316.78245,155.07724 C 314.80675,157.05298 312.46885,158.63051 309.71145,159.31988 C 305.18525,160.45142 307.99345,157.80607 309.00435,155.78434 C 309.03815,155.71671 315.62505,153.40626 316.07535,152.95592 C 318.81075,150.22056 319.91245,148.92127 321.02515,144.47063 C 321.33625,143.22607 317.45975,138.75411 316.78245,137.39957 C 315.20425,134.24302 312.16035,132.07035 310.41855,130.3285 C 308.26075,128.17076 307.59385,126.08959 305.46875,123.96454 C 303.56965,122.0654 302.34975,119.3345 300.51905,116.89347 C 298.62445,114.36732 297.49745,112.45765 294.86215,109.8224 C 291.94355,106.90376 289.83735,104.83513 287.08395,103.45844 C 285.12775,102.48034 281.57595,100.07171 280.01295,98.50869 C 278.66885,97.16465 274.14335,96.63457 272.23475,95.68027 C 269.21435,94.17007 268.29145,93.10344 264.45655,92.14473 C 261.56585,91.42206 258.02605,90.71387 255.26415,90.02341 C 251.89745,89.18173 248.28865,89.31631 244.65755,89.31631 C 241.12205,89.31631 237.58655,89.31631 234.051,89.31631 C 229.40031,89.31631 227.6287,90.39155 223.44439,91.43763 C 221.87276,91.83054 219.67818,94.73495 217.78754,95.68027 C 215.66975,96.73916 215.36412,98.42769 211.42358,99.2158 z"
       style="opacity:1;fill:#d03335;fill-opacity:1;fill-rule:evenodd;stroke:#000000;stroke-width:2;stroke-linecap:butt;stroke-linejoin:miter;marker:none;marker-start:none;marker-mid:none;marker-end:none;stroke-miterlimit:4;stroke-dasharray:none;stroke-dashoffset:0;stroke-opacity:1;visibility:visible;display:inline;overflow:visible;enable-background:accumulate" />
    <path
       id="path15148"
       d="M 309.00435,162.85541 C 310.07525,161.8322 316.55025,159.78956 318.90385,158.61277 C 320.38635,157.87151 316.89805,151.29668 316.78245,150.83459 C 315.92845,147.41848 311.84505,149.41425 309.00435,150.83459 C 306.43985,152.11684 307.59005,153.54832 307.59005,157.90566 C 307.59005,159.6216 308.66775,161.17279 309.00435,162.85541 z"
       style="opacity:1;fill:#1a0b0b;fill-opacity:1;fill-rule:evenodd;stroke:#000000;stroke-width:2;stroke-linecap:butt;stroke-linejoin:miter;marker:none;marker-start:none;marker-mid:none;marker-end:none;stroke-miterlimit:4;stroke-dasharray:none;stroke-dashoffset:0;stroke-opacity:1;visibility:visible;display:inline;overflow:visible;enable-background:accumulate" />
    <path
       sodipodi:nodetypes="csssssssssssssss"
       id="path15150"
       d="M 245.94185,155.5625 C 246.17755,156.74101 246.41325,157.91952 246.64895,159.09804 C 247.30525,162.37929 247.35605,165.51597 247.35605,168.99753 C 247.35605,171.70219 248.06325,174.6735 248.06325,178.18992 C 248.06325,180.09796 248.77035,184.36874 248.77035,187.38231 C 248.77035,190.79797 253.67365,191.24819 255.84135,192.33205 C 258.97015,193.89644 261.30615,194.71091 263.61955,195.86759 C 266.36175,197.2387 268.24035,198.36705 269.98355,200.11023 C 272.11785,202.2446 274.63985,196.26445 277.05455,194.45337 C 280.15155,192.13065 281.94325,190.59481 285.53985,188.79652 C 288.86825,187.13231 290.56065,184.87191 294.02515,183.13967 C 297.06715,181.61864 303.17485,178.21125 306.04595,176.77571 C 309.60345,174.99696 310.37995,173.85595 311.70285,172.53307 C 313.12295,171.11295 310.50335,164.90688 310.28855,164.04779 C 309.42705,160.60177 310.29175,156.98921 309.58145,154.14829 C 308.72905,150.7384 309.68855,146.79824 308.87435,143.54169"
       style="fill:#4a643c;fill-opacity:1;fill-rule:evenodd;stroke:#000000;stroke-width:2;stroke-linecap:butt;stroke-linejoin:miter;marker:none;marker-start:none;marker-mid:none;marker-end:none;stroke-miterlimit:4;stroke-dasharray:none;stroke-dashoffset:0;stroke-opacity:1;visibility:visible;display:inline;overflow:visible;enable-background:accumulate" />
    <path
       id="path15152"
       d="M 241.69925,160.51225 C 241.46355,159.33374 241.22785,158.15523 240.99215,156.97671 C 240.51825,154.60717 243.89045,151.17998 244.52765,149.90565 C 246.49505,145.97086 247.95145,146.48191 250.89165,143.54169 C 252.69615,141.73716 255.74655,140.73696 258.66985,140.00615 C 260.92735,139.44176 263.11085,138.012 266.44795,137.17772 C 269.68595,136.36823 272.88635,134.50746 276.34745,133.64219 C 279.47815,132.85951 280.95915,132.04346 283.41855,130.81376 C 286.16715,129.43945 288.04255,128.77387 291.19675,127.98534 C 294.18915,127.23722 298.33225,128.17824 300.38915,128.69244 C 303.82395,129.55115 306.47995,130.60891 309.58145,132.93508 C 311.35865,134.26792 313.82415,136.69547 313.82415,140.00615 C 313.82415,143.27364 311.50185,144.34925 308.87435,145.66301 C 306.48385,146.85826 303.45995,150.07738 301.80335,151.31986 C 299.43025,153.09963 297.16975,154.34375 294.73225,155.5625 C 291.45275,157.20226 289.83405,158.71871 286.24695,160.51225 C 283.91545,161.678 280.97765,163.85399 279.17585,164.75489 C 276.62315,166.03127 273.84435,166.79489 270.69065,167.58332 C 268.05065,168.24331 267.41955,168.99753 262.91245,168.99753 C 259.29235,168.99753 257.73425,167.70299 254.42715,166.87621 C 252.78815,166.46647 248.42145,164.2269 246.64895,163.34068 C 243.22215,161.62724 247.22965,166.04265 241.69925,160.51225 z"
       style="fill:#334529;fill-opacity:1;fill-rule:evenodd;stroke:#000000;stroke-width:2;stroke-linecap:butt;stroke-linejoin:miter;marker:none;marker-start:none;marker-mid:none;marker-end:none;stroke-miterlimit:4;stroke-dasharray:none;stroke-dashoffset:0;stroke-opacity:1;visibility:visible;display:inline;overflow:visible;enable-background:accumulate" />
    <path
       sodipodi:nodetypes="csssc"
       id="path15154"
       d="M 269.27635,168.99753 C 269.27635,172.4619 269.88885,174.98295 270.69065,178.18992 C 271.47305,181.31971 271.39775,184.79266 271.39775,188.08941 C 271.39775,190.41773 272.16695,193.99469 272.81195,196.57469 C 272.98345,197.26069 272.81195,197.98891 272.81195,198.69601"
       style="fill:none;fill-opacity:1;fill-rule:evenodd;stroke:#000000;stroke-width:2;stroke-linecap:butt;stroke-linejoin:miter;marker:none;marker-start:none;marker-mid:none;marker-end:none;stroke-miterlimit:4;stroke-dasharray:none;stroke-dashoffset:0;stroke-opacity:1;visibility:visible;display:inline;overflow:visible;enable-background:accumulate" />
    <path
       id="path15156"
       d="M 262.43665,142.27231 C 261.23335,142.87395 263.09785,130.61113 265.43665,128.27231 C 267.52725,126.18169 271.75695,124.61216 274.43665,123.27231 C 274.73475,123.12324 275.10335,123.27231 275.43665,123.27231 C 280.04275,123.27231 282.66905,120.83042 288.43665,122.27231 C 291.84055,123.12329 292.43665,127.90262 292.43665,132.27231 C 292.43665,139.10941 291.09385,138.61509 287.43665,142.27231 C 284.45215,145.25685 278.98115,145.13619 274.43665,146.27231 C 269.98765,147.38456 265.95745,144.38478 262.43665,142.27231 z"
       style="opacity:1;fill:#475f3a;fill-opacity:1;fill-rule:evenodd;stroke:#000000;stroke-width:2;stroke-linecap:butt;stroke-linejoin:miter;marker:none;marker-start:none;marker-mid:none;marker-end:none;stroke-miterlimit:4;stroke-dasharray:none;stroke-dashoffset:0;stroke-opacity:1;visibility:visible;display:inline;overflow:visible;enable-background:accumulate" />
    <path
       id="path15158"
       d="M 263.61955,129.39954 C 264.79805,130.34235 265.97655,131.28516 267.15505,132.22797 C 269.55235,134.14575 272.57655,135.05639 276.34745,135.05639 C 279.65815,135.05639 282.47325,134.58746 284.83275,132.22797 C 287.27975,129.78102 288.90455,128.32698 290.48965,125.1569 C 292.07355,121.98909 283.58265,122.32847 282.00435,122.32847 C 279.09675,122.32847 275.90875,123.85237 273.51905,124.44979 C 269.46635,125.46298 268.13815,127.59209 263.61955,129.39954 z"
       style="fill:#76a25d;fill-opacity:1;fill-rule:evenodd;stroke:#000000;stroke-width:2;stroke-linecap:butt;stroke-linejoin:miter;marker:none;marker-start:none;marker-mid:none;marker-end:none;stroke-miterlimit:4;stroke-dasharray:none;stroke-dashoffset:0;stroke-opacity:1;visibility:visible;display:inline;overflow:visible;enable-background:accumulate" />
    <path
       id="path15160"
       d="M 251.02155,172.0478 C 255.60705,172.15055 258.54775,172.45413 259.50685,176.29044 C 260.26345,179.31702 257.94205,182.09786 256.67845,183.36151 C 254.93465,185.10522 251.88615,186.03239 250.31445,187.60415 C 248.15745,189.76115 246.83355,187.6178 243.95045,186.89704 C 238.88775,185.63136 240.05875,186.90239 242.53625,181.94729 C 243.72885,179.5621 245.75555,177.18346 247.48605,174.87622 C 247.62745,174.68766 247.48605,174.40482 247.48605,174.16912 C 247.48605,172.79475 249.84305,172.7549 251.02155,172.0478 z"
       style="opacity:1;fill:#1a0b0b;fill-opacity:1;fill-rule:evenodd;stroke:#000000;stroke-width:2;stroke-linecap:butt;stroke-linejoin:miter;marker:none;marker-start:none;marker-mid:none;marker-end:none;stroke-miterlimit:4;stroke-dasharray:none;stroke-dashoffset:0;stroke-opacity:1;visibility:visible;display:inline;overflow:visible;enable-background:accumulate" />
    <path
       id="path15162"
       d="M 177.48245,243.46558 C 173.23981,243.46558 168.99717,243.46558 164.75453,243.46558 C 160.82511,243.46558 157.30593,241.50905 154.14793,239.93005 C 150.49357,238.10287 146.39996,238.17738 142.83422,236.39451 C 139.13261,234.54371 136.5503,233.95966 132.93473,232.15187 C 129.60283,230.48592 126.58238,228.62215 123.74234,227.20213 C 122.80427,226.73309 123.0807,228.52541 123.03523,228.61634 C 121.5038,227.85063 124.16193,233.06878 129.39919,235.68741 C 129.61001,235.79282 129.8706,235.68741 130.1063,235.68741 C 132.96561,235.68741 135.56669,237.75961 138.59158,238.51583 C 141.49605,239.24195 144.31491,240.31684 146.36975,241.34426 C 148.68754,242.50316 151.5529,243.34715 154.85504,244.17269 C 158.13574,244.99286 161.03273,245.5869 164.75453,245.5869 C 166.66817,245.5869 169.44653,247.70822 172.5327,247.70822 C 175.99124,247.70822 176.60595,246.97159 177.48245,243.46558 z"
       style="opacity:1;fill:#ffffff;fill-opacity:1;fill-rule:evenodd;stroke:#000000;stroke-width:2;stroke-linecap:butt;stroke-linejoin:miter;marker:none;marker-start:none;marker-mid:none;marker-end:none;stroke-miterlimit:4;stroke-dasharray:none;stroke-dashoffset:0;stroke-opacity:1;visibility:visible;display:inline;overflow:visible;enable-background:accumulate" />
    <g
       inkscape:transform-center-y="-5.6568541"
       inkscape:transform-center-x="-6.3639609"
       transform="matrix(-0.9618079,-0.2737253,0.2737253,-0.9618079,372.40125,929.9424)"
       id="g15164">
      <path
         id="path15166"
         d="M 425.70772,608.32856 C 425.82557,608.91781 425.94342,609.50707 426.06127,610.09632 C 426.37023,611.64114 426.41483,613.30693 426.41483,615.04607 C 426.41483,615.68904 430.21567,615.39962 431.01102,615.39962 C 433.16599,615.39962 433.79276,614.94601 435.60721,615.39962 C 437.36758,615.83972 438.28649,616.06944 439.84985,616.46028 C 441.51238,616.87591 442.69581,616.72983 444.44605,617.16739 C 446.58049,617.701 447.67648,616.61284 447.98158,616.46028 C 448.65311,616.12452 448.33514,612.89165 448.33514,611.86409 C 448.33514,609.22104 448.36593,609.74277 445.86026,609.74277 C 444.09689,609.74277 442.4149,609.74277 441.26407,609.74277 C 439.34821,609.74277 438.26742,610.14265 436.66787,609.74277 C 435.6109,609.47853 433.68654,609.70454 432.42523,609.38922 C 430.84954,608.99529 429.63077,609.03566 427.82904,609.03566 C 426.84084,609.03566 427.58491,609.07943 425.70772,608.32856 z"
         style="opacity:1;fill:#d22f0f;fill-opacity:1;fill-rule:evenodd;stroke:#000000;stroke-width:2;stroke-linecap:butt;stroke-linejoin:miter;marker:none;marker-start:none;marker-mid:none;marker-end:none;stroke-miterlimit:4;stroke-dasharray:none;stroke-dashoffset:0;stroke-opacity:1;visibility:visible;display:inline;overflow:visible;enable-background:accumulate" />
      <path
         style="opacity:1;fill:#221613;fill-opacity:1;fill-rule:evenodd;stroke:#000000;stroke-width:2;stroke-linecap:butt;stroke-linejoin:miter;marker:none;marker-start:none;marker-mid:none;marker-end:none;stroke-miterlimit:4;stroke-dasharray:none;stroke-dashoffset:0;stroke-opacity:1;visibility:visible;display:inline;overflow:visible;enable-background:accumulate"
         d="M 448.41036,610.596 C 448.29251,610.00675 448.17466,609.41749 448.05681,608.82824 C 447.74785,607.28342 447.70325,605.61763 447.70325,603.87849 C 447.70325,603.23552 443.90241,603.52494 443.10706,603.52494 C 440.95209,603.52494 440.32532,603.97855 438.51087,603.52494 C 436.7505,603.08484 435.83159,602.85512 434.26823,602.46428 C 432.6057,602.04865 431.42227,602.19473 429.67203,601.75717 C 427.53759,601.22356 426.4416,602.31172 426.1365,602.46428 C 425.46497,602.80004 425.78294,606.03291 425.78294,607.06047 C 425.78294,609.70352 425.75215,609.18179 428.25782,609.18179 C 430.02119,609.18179 431.70318,609.18179 432.85401,609.18179 C 434.76987,609.18179 435.85066,608.78191 437.45021,609.18179 C 438.50718,609.44603 440.43154,609.22002 441.69285,609.53534 C 443.26854,609.92927 444.48731,609.8889 446.28904,609.8889 C 447.27724,609.8889 446.53317,609.84513 448.41036,610.596 z"
         id="path15168" />
    </g>
    <path
       id="path15170"
       d="M 176.06824,244.52624 C 176.18609,244.99765 176.30394,245.46905 176.42179,245.94045 C 176.90417,247.86995 177.7076,247.70822 179.25022,247.70822 C 180.95474,247.70822 180.90522,248.76888 183.13931,248.76888 C 185.12895,248.76888 186.31637,248.0667 187.38195,247.00111 C 188.84538,245.53769 187.51555,244.43989 187.0284,243.46558 C 186.54248,242.49376 185.52535,245.10099 184.55352,245.5869 C 182.8742,246.42656 181.27217,245.71399 180.31088,245.23335 C 180.20547,245.18064 180.07518,245.23335 179.95733,245.23335 C 177.29185,245.23335 180.94625,241.59944 176.06824,244.52624 z"
       style="opacity:1;fill:#968c8c;fill-opacity:1;fill-rule:evenodd;stroke:#000000;stroke-width:2;stroke-linecap:butt;stroke-linejoin:miter;marker:none;marker-start:none;marker-mid:none;marker-end:none;stroke-miterlimit:4;stroke-dasharray:none;stroke-dashoffset:0;stroke-opacity:1;visibility:visible;display:inline;overflow:visible;enable-background:accumulate" />
    <g
       transform="matrix(-0.8375255,-0.5463983,-0.5463983,0.8375255,785.51565,-125.49869)"
       id="g15172">
      <path
         id="path15174"
         d="M 425.70772,608.32856 C 425.82557,608.91781 425.94342,609.50707 426.06127,610.09632 C 426.37023,611.64114 426.41483,613.30693 426.41483,615.04607 C 426.41483,615.68904 430.21567,615.39962 431.01102,615.39962 C 433.16599,615.39962 433.79276,614.94601 435.60721,615.39962 C 437.36758,615.83972 438.28649,616.06944 439.84985,616.46028 C 441.51238,616.87591 442.69581,616.72983 444.44605,617.16739 C 446.58049,617.701 447.67648,616.61284 447.98158,616.46028 C 448.65311,616.12452 448.33514,612.89165 448.33514,611.86409 C 448.33514,609.22104 448.36593,609.74277 445.86026,609.74277 C 444.09689,609.74277 442.4149,609.74277 441.26407,609.74277 C 439.34821,609.74277 438.26742,610.14265 436.66787,609.74277 C 435.6109,609.47853 433.68654,609.70454 432.42523,609.38922 C 430.84954,608.99529 429.63077,609.03566 427.82904,609.03566 C 426.84084,609.03566 427.58491,609.07943 425.70772,608.32856 z"
         style="opacity:1;fill:#d22f0f;fill-opacity:1;fill-rule:evenodd;stroke:#000000;stroke-width:2;stroke-linecap:butt;stroke-linejoin:miter;marker:none;marker-start:none;marker-mid:none;marker-end:none;stroke-miterlimit:4;stroke-dasharray:none;stroke-dashoffset:0;stroke-opacity:1;visibility:visible;display:inline;overflow:visible;enable-background:accumulate" />
      <path
         style="opacity:1;fill:#221613;fill-opacity:1;fill-rule:evenodd;stroke:#000000;stroke-width:2;stroke-linecap:butt;stroke-linejoin:miter;marker:none;marker-start:none;marker-mid:none;marker-end:none;stroke-miterlimit:4;stroke-dasharray:none;stroke-dashoffset:0;stroke-opacity:1;visibility:visible;display:inline;overflow:visible;enable-background:accumulate"
         d="M 448.41036,610.596 C 448.29251,610.00675 448.17466,609.41749 448.05681,608.82824 C 447.74785,607.28342 447.70325,605.61763 447.70325,603.87849 C 447.70325,603.23552 443.90241,603.52494 443.10706,603.52494 C 440.95209,603.52494 440.32532,603.97855 438.51087,603.52494 C 436.7505,603.08484 435.83159,602.85512 434.26823,602.46428 C 432.6057,602.04865 431.42227,602.19473 429.67203,601.75717 C 427.53759,601.22356 426.4416,602.31172 426.1365,602.46428 C 425.46497,602.80004 425.78294,606.03291 425.78294,607.06047 C 425.78294,609.70352 425.75215,609.18179 428.25782,609.18179 C 430.02119,609.18179 431.70318,609.18179 432.85401,609.18179 C 434.76987,609.18179 435.85066,608.78191 437.45021,609.18179 C 438.50718,609.44603 440.43154,609.22002 441.69285,609.53534 C 443.26854,609.92927 444.48731,609.8889 446.28904,609.8889 C 447.27724,609.8889 446.53317,609.84513 448.41036,610.596 z"
         id="path15176" />
    </g>
    <g
       inkscape:transform-center-x="2.4814479"
       id="g15178"
       transform="matrix(0.9828559,0.1843756,-0.1843756,0.9828559,-339.12959,-355.3929)"
       inkscape:transform-center-y="-6.6213322">
      <path
         id="path15180"
         d="M 434.90011,455.5935 C 435.01796,456.18275 435.13581,456.77201 435.25366,457.36126 C 435.56262,458.90608 435.60722,460.57187 435.60722,462.31101 C 435.60722,462.95398 439.40806,462.66456 440.20341,462.66456 C 442.35838,462.66456 442.98515,462.21095 444.7996,462.66456 C 446.55997,463.10466 447.47888,463.33438 449.04224,463.72522 C 450.70477,464.14085 451.8882,463.99477 453.63844,464.43233 C 455.77288,464.96594 456.86887,463.87778 457.17397,463.72522 C 457.8455,463.38946 457.52753,460.15659 457.52753,459.12903 C 457.52753,456.48598 457.55832,457.00771 455.05265,457.00771 C 453.28928,457.00771 451.60729,457.00771 450.45646,457.00771 C 448.5406,457.00771 447.45981,457.40759 445.86026,457.00771 C 444.80329,456.74347 442.87893,456.96948 441.61762,456.65416 C 440.04193,456.26023 438.82316,456.3006 437.02143,456.3006 C 436.03323,456.3006 436.7773,456.34437 434.90011,455.5935 z"
         style="opacity:1;fill:#d22f0f;fill-opacity:1;fill-rule:evenodd;stroke:#000000;stroke-width:2;stroke-linecap:butt;stroke-linejoin:miter;marker:none;marker-start:none;marker-mid:none;marker-end:none;stroke-miterlimit:4;stroke-dasharray:none;stroke-dashoffset:0;stroke-opacity:1;visibility:visible;display:inline;overflow:visible;enable-background:accumulate" />
      <path
         style="opacity:1;fill:#221613;fill-opacity:1;fill-rule:evenodd;stroke:#000000;stroke-width:2;stroke-linecap:butt;stroke-linejoin:miter;marker:none;marker-start:none;marker-mid:none;marker-end:none;stroke-miterlimit:4;stroke-dasharray:none;stroke-dashoffset:0;stroke-opacity:1;visibility:visible;display:inline;overflow:visible;enable-background:accumulate"
         d="M 457.60275,457.86094 C 457.4849,457.27169 457.36705,456.68243 457.2492,456.09318 C 456.94024,454.54836 456.89564,452.88257 456.89564,451.14343 C 456.89564,450.50046 453.0948,450.78988 452.29945,450.78988 C 450.14448,450.78988 449.51771,451.24349 447.70326,450.78988 C 445.94289,450.34978 445.02398,450.12006 443.46062,449.72922 C 441.79809,449.31359 440.61466,449.45967 438.86442,449.02211 C 436.72998,448.4885 435.63399,449.57666 435.32889,449.72922 C 434.65736,450.06498 434.97533,453.29785 434.97533,454.32541 C 434.97533,456.96846 434.94454,456.44673 437.45021,456.44673 C 439.21358,456.44673 440.89557,456.44673 442.0464,456.44673 C 443.96226,456.44673 445.04305,456.04685 446.6426,456.44673 C 447.69957,456.71097 449.62393,456.48496 450.88524,456.80028 C 452.46093,457.19421 453.6797,457.15384 455.48143,457.15384 C 456.46963,457.15384 455.72556,457.11007 457.60275,457.86094 z"
         id="path15182" />
    </g>
    <g
       transform="translate(-374.41437,-326.64979)"
       id="g15184">
      <path
         style="opacity:1;fill:none;fill-opacity:1;fill-rule:evenodd;stroke:#000000;stroke-width:1;stroke-linecap:butt;stroke-linejoin:miter;marker:none;marker-start:none;marker-mid:none;marker-end:none;stroke-miterlimit:4;stroke-dasharray:none;stroke-dashoffset:0;stroke-opacity:1;visibility:visible;display:inline;overflow:visible;enable-background:accumulate"
         d="M 546.59353,418.44097 C 546.35783,418.7356 546.12212,419.03023 545.88642,419.32485 C 545.34472,420.00198 545.13771,420.82228 544.82576,421.44617 C 544.33801,422.42168 544.95125,422.74063 545.88642,422.50683 C 546.45728,422.36412 546.98258,420.77386 547.12386,420.20874 C 547.32298,419.41224 548.52811,417.66714 546.59353,418.44097 z"
         id="path15186" />
      <path
         style="opacity:1;fill:none;fill-opacity:1;fill-rule:evenodd;stroke:#000000;stroke-width:1;stroke-linecap:butt;stroke-linejoin:miter;marker:none;marker-start:none;marker-mid:none;marker-end:none;stroke-miterlimit:4;stroke-dasharray:none;stroke-dashoffset:0;stroke-opacity:1;visibility:visible;display:inline;overflow:visible;enable-background:accumulate"
         d="M 547.30063,423.39072 C 547.37977,423.07419 547.68347,422.62504 548.00774,421.9765 C 548.71429,420.5634 549.61302,418.91416 549.59873,418.9713 C 549.22142,419.72592 551.14221,419.65465 551.89683,420.03196 C 551.94953,420.05831 551.89683,420.14981 551.89683,420.20874"
         id="path15188" />
      <path
         style="opacity:1;fill:none;fill-opacity:1;fill-rule:evenodd;stroke:#000000;stroke-width:1;stroke-linecap:butt;stroke-linejoin:miter;marker:none;marker-start:none;marker-mid:none;marker-end:none;stroke-miterlimit:4;stroke-dasharray:none;stroke-dashoffset:0;stroke-opacity:1;visibility:visible;display:inline;overflow:visible;enable-background:accumulate"
         d="M 548.89162,421.2694 C 549.67788,421.66253 550.31471,421.93453 550.48261,421.97651"
         id="path15190" />
      <path
         style="opacity:1;fill:none;fill-opacity:1;fill-rule:evenodd;stroke:#000000;stroke-width:1;stroke-linecap:butt;stroke-linejoin:miter;marker:none;marker-start:none;marker-mid:none;marker-end:none;stroke-miterlimit:4;stroke-dasharray:none;stroke-dashoffset:0;stroke-opacity:1;visibility:visible;display:inline;overflow:visible;enable-background:accumulate"
         d="M 550.30584,425.33526 C 550.52012,424.9067 550.71024,424.17291 551.01295,423.56749 C 551.45154,422.69031 553.48112,421.53121 552.60394,421.09262 C 552.24551,421.80948 554.18517,421.4413 554.90203,421.79973 C 555.0511,421.87426 555.13773,422.03543 555.25559,422.15328"
         id="path15192" />
      <path
         style="opacity:1;fill:none;fill-opacity:1;fill-rule:evenodd;stroke:#000000;stroke-width:1;stroke-linecap:butt;stroke-linejoin:miter;marker:none;marker-start:none;marker-mid:none;marker-end:none;stroke-miterlimit:4;stroke-dasharray:none;stroke-dashoffset:0;stroke-opacity:1;visibility:visible;display:inline;overflow:visible;enable-background:accumulate"
         d="M 551.89683,423.21394 C 552.20415,423.3676 552.48608,423.56749 552.78071,423.74427 C 553.12113,423.94852 553.34519,424.21182 553.6646,424.45138"
         id="path15194" />
    </g>
    <path
       id="path15196"
       d="M 200.10987,134.57114 C 195.48179,134.49218 192.3724,134.22776 188.08906,133.15693 C 185.10763,132.41157 191.19489,127.8373 193.0388,125.37875 C 194.78693,123.04791 196.22468,119.7141 197.28144,117.60058 C 198.61037,114.94273 200.19817,112.29762 200.81698,109.8224 C 201.79683,105.903 202.4909,106.54658 205.05962,109.1153 C 206.73548,110.79115 209.95066,111.17791 212.13069,113.35794 C 212.60443,113.83168 209.59567,117.72085 208.59515,119.7219 C 207.16113,122.58994 205.9858,124.45257 203.6454,126.79296 C 202.13381,128.30456 200.67629,132.30548 200.10987,134.57114 z"
       style="opacity:1;fill:#655f86;fill-opacity:1;fill-rule:evenodd;stroke:#000000;stroke-width:2;stroke-linecap:butt;stroke-linejoin:miter;marker:none;marker-start:none;marker-mid:none;marker-end:none;stroke-miterlimit:4;stroke-dasharray:none;stroke-dashoffset:0;stroke-opacity:1;visibility:visible;display:inline;overflow:visible;enable-background:accumulate" />
    <text
       xml:space="preserve"
       style="font-size:16px;font-style:normal;font-variant:normal;font-weight:bold;font-stretch:normal;text-align:center;text-anchor:middle;fill:#000000;fill-opacity:1;stroke:none;stroke-width:1px;stroke-linecap:butt;stroke-linejoin:miter;stroke-opacity:1;font-family:FreeSans;-inkscape-font-specification:Sans Bold"
       x="329.28571"
       y="98.790764"
       id="text15280"><tspan
         sodipodi:role="line"
         id="tspan15282"
         x="329.28571"
         y="98.790764">30 AMP</tspan><tspan
         sodipodi:role="line"
         x="329.28571"
         y="118.79076"
         id="tspan15801">FUSE</tspan></text>
    <text
       xml:space="preserve"
       style="font-size:16px;font-style:normal;font-variant:normal;font-weight:bold;font-stretch:normal;fill:#000000;fill-opacity:1;stroke:none;stroke-width:1px;stroke-linecap:butt;stroke-linejoin:miter;stroke-opacity:1;font-family:FreeSans;-inkscape-font-specification:Sans Bold"
       x="122.14285"
       y="259.50504"
       id="text15284"><tspan
         sodipodi:role="line"
         id="tspan15286"
         x="122.14285"
         y="259.50504">GND</tspan></text>
    <text
       id="text15797"
       y="215.93361"
       x="258.57144"
       style="font-size:16px;font-style:normal;font-variant:normal;font-weight:bold;font-stretch:normal;fill:#000000;fill-opacity:1;stroke:none;stroke-width:1px;stroke-linecap:butt;stroke-linejoin:miter;stroke-opacity:1;font-family:FreeSans;-inkscape-font-specification:Sans Bold"
       xml:space="preserve"><tspan
         y="215.93361"
         x="258.57144"
         id="tspan15799"
         sodipodi:role="line">+12V</tspan></text>
  </g>
</svg>
