<?xml version="1.0" encoding="UTF-8" standalone="no"?>
<!-- Created with Inkscape (http://www.inkscape.org/) -->

<svg
   xmlns:dc="http://purl.org/dc/elements/1.1/"
   xmlns:cc="http://creativecommons.org/ns#"
   xmlns:rdf="http://www.w3.org/1999/02/22-rdf-syntax-ns#"
   xmlns:svg="http://www.w3.org/2000/svg"
   xmlns="http://www.w3.org/2000/svg"
   xmlns:sodipodi="http://sodipodi.sourceforge.net/DTD/sodipodi-0.dtd"
   xmlns:inkscape="http://www.inkscape.org/namespaces/inkscape"
   width="744.09448819"
   height="1052.3622047"
   id="svg7345"
   version="1.1"
   inkscape:version="0.48.1 r9760"
   sodipodi:docname="calavera.svg"
   inkscape:export-filename="/home/substack/projects/dnode-slides/images/fandango/calavera.png"
   inkscape:export-xdpi="100.02609"
   inkscape:export-ydpi="100.02609">
  <defs
     id="defs7347" />
  <sodipodi:namedview
     id="base"
     pagecolor="#ffffff"
     bordercolor="#666666"
     borderopacity="1.0"
     inkscape:pageopacity="0.0"
     inkscape:pageshadow="2"
     inkscape:zoom="0.35"
     inkscape:cx="361.54813"
     inkscape:cy="563.90384"
     inkscape:document-units="px"
     inkscape:current-layer="layer1"
     showgrid="false"
     inkscape:window-width="1364"
     inkscape:window-height="766"
     inkscape:window-x="0"
     inkscape:window-y="0"
     inkscape:window-maximized="0" />
  <metadata
     id="metadata7350">
    <rdf:RDF>
      <cc:Work
         rdf:about="">
        <dc:format>image/svg+xml</dc:format>
        <dc:type
           rdf:resource="http://purl.org/dc/dcmitype/StillImage" />
        <dc:title></dc:title>
      </cc:Work>
    </rdf:RDF>
  </metadata>
  <g
     inkscape:label="Layer 1"
     inkscape:groupmode="layer"
     id="layer1">
    <g
       id="g8053"
       style="fill:#ffffff;stroke-width:2.84527979;stroke-miterlimit:4;stroke-dasharray:none"
       transform="matrix(0.70291857,0,0,0.70291857,90.003838,193.77456)"
       inkscape:export-filename="/home/substack/projects/dnode-slides/images/fandango/path7485.png"
       inkscape:export-xdpi="100.02609"
       inkscape:export-ydpi="100.02609">
      <path
         sodipodi:nodetypes="cssssssssssssssc"
         inkscape:connector-curvature="0"
         id="path7428"
         d="m 236.3757,480.61584 c 0.80983,2.07404 14.19326,0.47358 15.9099,0.50508 14.15665,0.2598 36.30187,-2.27285 53.79062,-2.27285 12.06702,0 28.9404,-3.28299 41.41626,-3.28299 4.49461,0 24.90633,-2.35164 28.28427,-4.04061 5.99964,-2.99982 21.42754,0 28.28427,0 2.51366,0 11.08629,1.03554 11.11168,1.01015 0.86472,-0.86472 3.03045,-3.64094 3.03045,-5.05076 0,-2.13097 5.2439,-16.97946 3.03046,-19.1929 -0.82828,-0.82828 -18.92988,0.87865 -21.2132,2.02031 -4.57104,2.28551 -25.65042,-1.62371 -28.28427,1.01015 -4.82037,4.82037 -83.87008,4.04061 -96.97465,4.04061 -11.49813,0 -18.15551,-1.01015 -29.29442,-1.01015 -2.69374,0 -5.55584,0.16836 -8.08122,0 -0.75673,-0.0505 -1.43841,5.81571 -1.51523,7.07106 -0.40774,6.66333 0.50508,11.80978 0.50508,19.1929 z"
         style="fill:#ffffff;stroke:#000000;stroke-width:2.84527979;stroke-linecap:butt;stroke-linejoin:miter;stroke-miterlimit:4;stroke-opacity:1;stroke-dasharray:none" />
      <path
         inkscape:connector-curvature="0"
         id="path7467"
         d="m 253.57143,455.21932 c -1.22732,4.94496 -1.12076,16.02211 0.71428,17.85715"
         style="fill:#ffffff;stroke:#000000;stroke-width:2.84527979;stroke-linecap:butt;stroke-linejoin:miter;stroke-miterlimit:4;stroke-opacity:1;stroke-dasharray:none" />
      <path
         inkscape:connector-curvature="0"
         id="path7469"
         d="m 272.14286,455.93361 c -1.16816,2.38561 -2.09698,17.14286 0.71428,17.14286"
         style="fill:#ffffff;stroke:#000000;stroke-width:2.84527979;stroke-linecap:butt;stroke-linejoin:miter;stroke-miterlimit:4;stroke-opacity:1;stroke-dasharray:none" />
      <path
         inkscape:connector-curvature="0"
         id="path7471"
         d="m 296.42857,456.6479 c -1.83352,3.07618 -0.11655,14.40226 0.71429,13.57142"
         style="fill:#ffffff;stroke:#000000;stroke-width:2.84527979;stroke-linecap:butt;stroke-linejoin:miter;stroke-miterlimit:4;stroke-opacity:1;stroke-dasharray:none" />
      <path
         inkscape:connector-curvature="0"
         id="path7473"
         d="m 314.28571,455.93361 c -0.96432,4.49015 -1.70948,11.86194 0.71429,14.28571"
         style="fill:#ffffff;stroke:#000000;stroke-width:2.84527979;stroke-linecap:butt;stroke-linejoin:miter;stroke-miterlimit:4;stroke-opacity:1;stroke-dasharray:none" />
      <path
         inkscape:connector-curvature="0"
         id="path7475"
         d="m 337.14286,453.79075 c -1.08815,3.76079 -0.60267,16.37277 2.14285,15"
         style="fill:#ffffff;stroke:#000000;stroke-width:2.84527979;stroke-linecap:butt;stroke-linejoin:miter;stroke-miterlimit:4;stroke-opacity:1;stroke-dasharray:none" />
      <path
         inkscape:connector-curvature="0"
         id="path7477"
         d="m 359.28571,453.07647 c -1.93017,4.13948 -0.75802,14.62099 1.42858,15.71428"
         style="fill:#ffffff;stroke:#000000;stroke-width:2.84527979;stroke-linecap:butt;stroke-linejoin:miter;stroke-miterlimit:4;stroke-opacity:1;stroke-dasharray:none" />
      <path
         inkscape:connector-curvature="0"
         id="path7479"
         d="m 379.28571,451.6479 c -0.78062,2.84832 -0.26086,15 2.85715,15"
         style="fill:#ffffff;stroke:#000000;stroke-width:2.84527979;stroke-linecap:butt;stroke-linejoin:miter;stroke-miterlimit:4;stroke-opacity:1;stroke-dasharray:none" />
      <path
         inkscape:connector-curvature="0"
         id="path7481"
         d="m 400.71429,450.93361 c -1.63303,3.64863 -2.47524,11.0962 0,13.57143"
         style="fill:#ffffff;stroke:#000000;stroke-width:2.84527979;stroke-linecap:butt;stroke-linejoin:miter;stroke-miterlimit:4;stroke-opacity:1;stroke-dasharray:none" />
    </g>
    <g
       id="g8042"
       transform="matrix(0.70291857,0,0,0.70291857,89.293782,195.90473)"
       style="fill:#ffffff;stroke-width:2.84527979;stroke-miterlimit:4;stroke-dasharray:none"
       inkscape:export-filename="/home/substack/projects/dnode-slides/images/fandango/path7485.png"
       inkscape:export-xdpi="100.02609"
       inkscape:export-ydpi="100.02609">
      <path
         inkscape:connector-curvature="0"
         id="path7449"
         d="m 231.42857,399.50504 c -0.23809,0.95238 0.2381,3.09524 -0.71428,2.85714 -0.95238,-0.23809 0.71428,-3.83883 0.71428,-2.85714 0,2.54076 -0.71428,5.22217 -0.71428,7.85714 0,1.47975 -0.94169,8.34403 0,9.28572 0.83463,0.83463 2.88535,-0.71429 3.57142,-0.71429 4.61017,0 13.13458,-0.853 17.14286,-2.85714 3.15515,-1.57758 9.13478,0.71428 12.14286,0.71428 6.42078,0 38.22375,3.03099 42.85714,0.71429 3.51889,-1.75944 26.8966,-2.38299 30.71429,-1.42857 4.89277,1.22319 61.20011,1.18566 63.57143,0 4.18806,-2.09404 27.47729,2.5227 30,0 2.02675,-2.02675 0,-10.99257 0,-14.28572 0,-0.5419 1.97608,-4.45248 1.42857,-5 -0.56149,-0.56149 -8.42049,-0.71428 -9.28572,-0.71428 -6.14398,0 -50.25408,-1.30153 -51.42857,-0.71429 -6.23215,3.11608 -26.87617,1.42857 -34.28571,1.42857 -15.04468,0 -30.43047,2.85715 -45.71429,2.85715 -9.11234,0 -40.93703,-0.96006 -47.14286,2.14285 -2.67656,1.33829 -9.82931,0.10872 -12.85714,0.71429 z"
         style="fill:#ffffff;stroke:#000000;stroke-width:2.84527979;stroke-linecap:butt;stroke-linejoin:miter;stroke-miterlimit:4;stroke-opacity:1;stroke-dasharray:none" />
      <path
         inkscape:connector-curvature="0"
         id="path7451"
         d="m 253.57143,397.36218 c -0.47619,0.95238 -0.47619,3.33334 -1.42857,2.85714 -0.95238,-0.47619 1.42857,-3.92193 1.42857,-2.85714 0,2.27923 -2.64767,14.79053 -1.42857,13.57143"
         style="fill:#ffffff;stroke:#000000;stroke-width:2.84527979;stroke-linecap:butt;stroke-linejoin:miter;stroke-miterlimit:4;stroke-opacity:1;stroke-dasharray:none" />
      <path
         inkscape:connector-curvature="0"
         id="path7453"
         d="m 275,396.6479 c -2.45558,4.21515 -0.92286,14.79142 0,15.71428"
         style="fill:#ffffff;stroke:#000000;stroke-width:2.84527979;stroke-linecap:butt;stroke-linejoin:miter;stroke-miterlimit:4;stroke-opacity:1;stroke-dasharray:none" />
      <path
         inkscape:connector-curvature="0"
         id="path7455"
         d="m 299.28571,396.6479 c -2.0966,3.6518 -1.42857,8.01675 -1.42857,12.14285 0,1.90477 0,3.80953 0,5.71429 0,0.47619 -0.47619,1.42857 0,1.42857 0.5324,0 0.95238,-0.47619 1.42857,-0.71429"
         style="fill:#ffffff;stroke:#000000;stroke-width:2.84527979;stroke-linecap:butt;stroke-linejoin:miter;stroke-miterlimit:4;stroke-opacity:1;stroke-dasharray:none" />
      <path
         inkscape:connector-curvature="0"
         id="path7457"
         d="m 324.28571,393.07647 c -2.39446,2.06201 -1.61996,20.19139 0.71429,17.85714"
         style="fill:#ffffff;stroke:#000000;stroke-width:2.84527979;stroke-linecap:butt;stroke-linejoin:miter;stroke-miterlimit:4;stroke-opacity:1;stroke-dasharray:none" />
      <path
         inkscape:connector-curvature="0"
         id="path7459"
         d="m 346.42857,394.50504 c -0.79459,2.893 -1.75679,16.42857 1.42857,16.42857"
         style="fill:#ffffff;stroke:#000000;stroke-width:2.84527979;stroke-linecap:butt;stroke-linejoin:miter;stroke-miterlimit:4;stroke-opacity:1;stroke-dasharray:none" />
      <path
         inkscape:connector-curvature="0"
         id="path7461"
         d="m 370.71429,393.79075 c -2.11173,3.77209 -0.66936,17.90208 0,18.57143"
         style="fill:#ffffff;stroke:#000000;stroke-width:2.84527979;stroke-linecap:butt;stroke-linejoin:miter;stroke-miterlimit:4;stroke-opacity:1;stroke-dasharray:none" />
      <path
         inkscape:connector-curvature="0"
         id="path7463"
         d="M 391.42857,393.79075 C 389.04087,398.69988 390,404.7794 390,410.21932 c 0,0.24845 1.19279,5 0.71429,5 -0.67344,0 0.82623,-1.1274 1.42857,-1.42857"
         style="fill:#ffffff;stroke:#000000;stroke-width:2.84527979;stroke-linecap:butt;stroke-linejoin:miter;stroke-miterlimit:4;stroke-opacity:1;stroke-dasharray:none" />
      <path
         inkscape:connector-curvature="0"
         id="path7465"
         d="m 410.71429,395.21932 c -1.02154,3.94076 -1.51721,18.57143 2.14285,18.57143"
         style="fill:#ffffff;stroke:#000000;stroke-width:2.84527979;stroke-linecap:butt;stroke-linejoin:miter;stroke-miterlimit:4;stroke-opacity:1;stroke-dasharray:none" />
    </g>
    <path
       style="fill:#f8f8f2;fill-opacity:1;stroke:#000000;stroke-width:2;stroke-linecap:butt;stroke-linejoin:miter;stroke-miterlimit:4;stroke-opacity:1;stroke-dasharray:none"
       d="m 358.11706,564.96932 c -9.03544,19.81362 -2.10389,46.3829 -12.05003,66.27517 -1.38975,2.7795 -0.22389,7.25307 -2.00834,9.03753 -0.45969,0.4597 -1.20741,9.83845 -1.00417,10.04169 1.9444,1.9444 7.71599,-2.66911 11.04587,-1.00417 6.56562,3.28281 14.01034,5.67429 21.08756,8.03336 11.3533,3.78443 49.51475,-4.32714 56.23348,-11.04587 1.63966,-1.63965 8.40204,-0.36868 10.04169,-2.00833 3.28513,-3.28514 -2.00834,-18.89805 -2.00834,-22.09173 0,-10.7982 -3.90492,-21.53294 -6.02501,-32.13342 -2.30571,-11.52851 -3.70696,-23.55561 -6.02502,-35.14593 -1.48969,-7.44843 0.98871,-38.17389 -4.01668,-43.17928 -0.62262,-0.62263 -22.5993,26.11206 -27.11257,29.12091 -10.41776,6.94518 -19.92032,19.07922 -31.12925,19.07922 -1.62732,0 -1.17805,1.3441 -2.00834,2.00833 -1.52407,1.21926 -5.02085,1.06076 -5.02085,3.01252 0,1.70675 3.34724,-0.66945 5.02085,-1.00417"
       id="path7519"
       inkscape:connector-curvature="0"
       inkscape:export-filename="/home/substack/projects/dnode-slides/images/fandango/path7485.png"
       inkscape:export-xdpi="100.02609"
       inkscape:export-ydpi="100.02609" />
    <path
       style="fill:#e9e9d6;fill-opacity:1;stroke:none;stroke-width:2;stroke-miterlimit:4;stroke-dasharray:none"
       d="m 425.31796,536.86472 c -7.09238,2.12354 -11.27833,8.97784 -14.76129,14.98095 -1.11604,4.60666 -4.89744,7.7361 -5.68925,12.47681 -1.10768,6.66162 -6.92317,10.51771 -10.94126,15.35761 -2.23336,2.77687 -6.24396,3.70439 -8.82832,5.53225 -1.23291,2.85847 -3.96237,5.10198 -3.82212,8.58878 -0.31664,5.43141 -0.0356,11.08144 -2.54808,16.03533 -2.09436,9.33439 -4.60217,19.15519 -2.94347,28.75377 5.01581,5.63681 9.89392,11.61229 14.1682,17.94639 13.23947,-1.43628 26.73357,-3.77069 38.66052,-9.86283 2.96855,-3.47555 7.75975,-2.36762 11.68602,-3.27296 2.0791,-3.30165 0.0442,-7.98493 -0.35146,-11.66406 -2.58709,-8.20141 -1.68188,-17.09442 -4.06374,-25.37097 -4.92226,-17.68442 -7.08829,-35.98071 -10.21429,-54.0149 -0.34953,-5.1294 -0.13353,-10.47473 -0.35146,-15.48617 z"
       id="path8296"
       inkscape:connector-curvature="0"
       inkscape:export-filename="/home/substack/projects/dnode-slides/images/fandango/path7485.png"
       inkscape:export-xdpi="100.02609"
       inkscape:export-ydpi="100.02609" />
    <path
       style="fill:#f8f8f2;fill-opacity:1;stroke:#000000;stroke-width:2;stroke-linecap:butt;stroke-linejoin:miter;stroke-miterlimit:4;stroke-opacity:1;stroke-dasharray:none"
       d="m 479.82402,486.87489 c 8.29089,-11.05451 24.33021,-25.52756 33.88945,-35.08681 9.54877,-9.54876 11.83394,-32.42461 14.91115,-44.73346 1.61173,-6.4469 -0.79011,-31.48258 -2.84022,-37.63291 -0.75363,-2.26086 1.04346,-11.88162 0.29412,-14.12974 -1.79529,-5.38586 -0.0991,-33.55686 -6.97872,-46.16224 -4.1088,-7.52849 -32.45763,-40.32378 -39.1035,-44.75435 -12.76416,-8.50944 -25.53182,-16.23937 -34.79269,-20.5916 -7.32999,-3.4448 -15.50487,-3.52119 -24.85192,-6.39049 -13.40657,-4.11547 -39.16392,-3.01079 -58.22451,-3.55028 -10.05416,-0.28456 -29.78356,3.97425 -37.63291,5.68044 -17.90343,3.89163 -45.33133,20.43489 -55.24157,29.75094 -11.41872,14.94008 -14.35891,32.42594 -16.33126,38.34298 -1.0172,3.0516 -1.78335,17.421 -2.84022,20.59159 -2.96926,8.90778 -9.94683,35.37214 -14.07927,43.63703 -2.08288,4.16577 -6.46919,7.25794 -8.52066,11.36088 -3.03655,6.07311 -18.46143,15.48918 -18.46143,19.17148 0,0.0199 14.78847,13.95573 17.04132,18.46143 2.0941,4.18819 4.31434,7.91861 6.3905,12.07094 1.23376,2.46753 0.99246,5.53521 2.13016,7.8106 0.82448,1.64896 1.01765,3.04577 2.13016,4.97038 3.53173,3.57095 0.43924,30.9716 1.42012,31.95248 1.13817,1.13817 5.60305,-0.74875 7.10054,0 8.25239,4.12619 32.01829,2.81828 40.47314,0 6.779,-2.25966 31.96196,3.16482 39.32623,0.71006 6.90395,-2.30132 36.01292,-0.25509 39.76309,-2.13017 2.78343,-1.39172 8.92718,-1.42011 12.07093,-1.42011 7.12386,0 17.04132,-5.67054 17.04132,2.84022 0,0.7887 0.50209,4.4683 0,4.97039 -1.57795,1.57795 -0.33311,4.92654 -1.42011,7.10054 -2.10804,4.21607 -6.50799,24.91068 -9.23072,26.27204 -6.50682,3.25341 -15.28805,1.78243 -22.72175,4.26033 -2.5562,0.85206 -5.96447,-0.85207 -8.52066,0 -8.0606,2.68686 -16.53178,2.84022 -25.56198,2.84022 -4.37168,0 -33.37663,-1.5547 -36.48602,0 -1.12544,0.56272 -25.28657,1.55781 -25.56198,1.42011 -2.8215,-1.41075 -10.33906,1.37684 -15.97624,-0.35503 -2.8998,-0.21454 -4.89996,-0.62702 -5.32541,1.77514 0,8.35828 -0.71006,14.68277 -0.71006,22.72176 0,2.58205 -1.34524,13.49104 0.71006,22.72176 5.45155,7.98013 11.80937,19.39573 19.88154,23.43181 4.42229,2.21115 12.26275,-1.67923 17.04132,0.71006 4.60524,2.30262 33.04227,3.14198 37.90613,0.71005 5.53735,-2.76868 20.34483,2.25355 26.27203,-0.71005 2.81947,-1.40973 18.67892,-3.05772 19.17148,-3.55028 0.87036,-0.87035 3.92306,-0.37278 4.97039,-1.42011 4.14721,-4.14721 19.13584,-6.35485 24.14187,-11.36088 2.29813,-2.29812 6.17059,-6.88064 8.52066,-9.23071 1.69532,-1.69531 3.35284,-10.45339 4.97038,-12.07093 1.67658,-1.67658 2.37927,-4.75854 3.55028,-7.10056 2.42244,-4.84488 6.14003,-8.98025 9.23071,-12.07093 2.31907,-2.31907 9.59528,-3.91483 12.07094,-6.3905 4.4676,-4.4676 14.88805,-6.36739 19.17148,-10.65082 2.52465,-2.52465 4.69215,-4.69215 7.81061,-7.8106 z"
       id="path7366"
       inkscape:connector-curvature="0"
       sodipodi:nodetypes="cssssssscssssssssssscsssssssssssssscccscssssssssssssscc"
       inkscape:export-filename="/home/substack/projects/dnode-slides/images/fandango/path7485.png"
       inkscape:export-xdpi="100.02609"
       inkscape:export-ydpi="100.02609" />
    <path
       style="fill:#ffffff;fill-opacity:1;stroke:none;stroke-width:2;stroke-miterlimit:4;stroke-dasharray:none"
       d="m 360.18816,235.24676 c -14.29825,0.9449 -28.62541,3.73954 -42.35084,7.6003 -17.27083,6.45826 -33.52958,15.49659 -47.55684,27.36989 -9.12514,12.14043 -13.68249,26.99973 -16.67235,41.62596 -0.8488,8.40618 -1.48318,16.81163 -4.63558,24.74289 -4.05671,12.60588 -6.69139,25.83687 -12.69575,37.5972 -2.97206,3.88788 -6.49898,7.39466 -8.85238,11.68603 -4.79611,6.16671 -12.18106,9.92567 -16.80415,16.12319 2.78251,2.67794 5.62237,5.32977 8.21536,8.14946 5.82413,-7.06155 11.97199,-13.64218 16.98736,-21.2961 2.53516,-3.60438 6.52847,-6.27682 7.06525,-10.96596 1.20605,-5.7018 3.84228,-11.04682 8.74294,-14.41612 8.94279,-7.51693 18.99796,-14.19653 25.10737,-24.42642 4.95398,-5.91307 10.00246,-11.61683 13.86229,-18.39744 3.80372,-5.94166 8.16672,-11.93353 14.84754,-14.8594 7.50077,-4.55854 14.46908,-9.86793 21.37312,-15.15668 7.71269,-3.44184 17.5839,-4.26807 22.07211,-12.43023 6.11368,-7.91486 9.40321,-19.62587 19.62095,-23.33976 6.26559,-2.18544 10.03379,-8.06802 15.90531,-10.95125 4.27593,-2.73475 8.72886,-5.19732 12.95708,-7.99658 -12.38153,-0.63438 -24.79724,-0.36742 -37.18879,-0.65898 z"
       id="path8340"
       inkscape:connector-curvature="0"
       inkscape:export-filename="/home/substack/projects/dnode-slides/images/fandango/path7485.png"
       inkscape:export-xdpi="100.02609"
       inkscape:export-ydpi="100.02609" />
    <path
       style="fill:#e9e9d6;fill-opacity:1;stroke:none;stroke-width:2;stroke-miterlimit:4;stroke-dasharray:none"
       d="m 431.05114,241.52909 c -2.92892,0.92861 -5.74916,2.18366 -7.18295,5.22796 -1.03042,2.25836 -3.65333,4.02353 -4.19554,6.34823 0.76092,4.73022 2.16177,9.29514 4.21751,13.55315 1.48846,7.60619 -2.89864,15.32049 -0.81275,22.77895 4.25645,7.30518 5.71678,15.98795 8.46141,24.01051 2.78948,9.00968 4.9695,18.25035 6.10218,27.61008 2.10857,8.57802 4.86101,17.25235 9.6212,24.66804 2.7517,16.85371 3.09976,34.15939 2.72381,51.24716 -0.004,5.70268 -2.51779,10.77804 -2.056,16.56164 -0.0858,3.49025 -0.20653,7.19905 -2.8205,9.77584 -6.32195,12.16721 -7.31833,27.06679 -15.88157,37.86974 -0.11859,3.59517 -2.23454,6.16546 -4.52503,8.63272 -4.44721,6.47382 -7.03561,14.50213 -12.45484,20.16497 -0.0536,3.38842 0.0424,7.09994 -2.76774,9.5553 -2.37077,2.09582 -3.62796,4.77647 -3.1851,7.9298 -0.75388,3.66871 -4.75643,5.62741 -5.97481,9.20384 -6.22264,11.26012 -10.21931,23.67083 -13.97051,35.95868 -0.0978,2.76632 -0.83584,6.73623 -0.43932,8.87435 6.4291,-2.32829 9.91457,-8.50929 14.49769,-13.15776 1.91257,-4.52627 2.71114,-9.56637 5.84301,-13.42135 2.67733,-7.23823 7.31762,-14.13736 13.61905,-18.69324 4.444,-2.03125 9.12557,-3.63443 12.71843,-7.02919 6.91056,-4.11997 15.51223,-5.55671 20.429,-12.52115 15.15872,-16.0016 27.16963,-34.85494 43.28793,-49.90298 6.63691,-7.35781 15.3141,-13.03512 20.47954,-21.5966 6.30135,-12.46848 7.71497,-26.87081 10.78541,-40.48372 0.56942,-12.36208 -0.90288,-24.78434 -3.3828,-36.81536 0.15565,-5.40901 1.29261,-10.83159 -0.11829,-16.14121 -1.34585,-14.15389 -0.0652,-29.29801 -6.40567,-42.28889 -10.41559,-14.80706 -22.52031,-28.34933 -35.21183,-41.16467 -8.12877,-6.87495 -17.77969,-11.8554 -26.86347,-17.45414 -7.70877,-4.43577 -15.62538,-8.69147 -24.53745,-9.3007 z"
       id="path8280"
       inkscape:connector-curvature="0"
       inkscape:export-filename="/home/substack/projects/dnode-slides/images/fandango/path7485.png"
       inkscape:export-xdpi="100.02609"
       inkscape:export-ydpi="100.02609" />
    <path
       style="fill:none;stroke:#000000;stroke-width:2;stroke-linecap:butt;stroke-linejoin:miter;stroke-miterlimit:4;stroke-opacity:1;stroke-dasharray:none"
       d="m 435.62833,335.85594 c 2.55595,14.57285 4.6785,32.07875 11.36088,45.44352 1.18326,2.36653 1.9015,11.13221 3.55028,12.78099 1.65728,1.65728 5.68044,9.6747 5.68044,12.78099 0,2.49741 7.52016,13.78149 7.10054,14.20109 -4.11301,4.11302 -11.6008,9.47065 -15.6212,13.49105 -2.35195,2.35194 -3.77331,6.61353 -5.68044,8.52066 -0.72215,0.72215 -2.03101,1.22179 -2.84022,2.84022 -1.80858,3.61715 -4.37478,12.18539 -6.3905,14.2011 -1.30177,1.30177 -0.11835,5.08873 -1.42011,6.3905"
       id="path7381"
       inkscape:connector-curvature="0"
       inkscape:export-filename="/home/substack/projects/dnode-slides/images/fandango/path7485.png"
       inkscape:export-xdpi="100.02609"
       inkscape:export-ydpi="100.02609" />
    <path
       style="fill:#77775c;fill-opacity:1;stroke:#000000;stroke-width:2;stroke-linecap:butt;stroke-linejoin:miter;stroke-miterlimit:4;stroke-opacity:1;stroke-dasharray:none"
       d="m 261.7168,383.18509 c -12.3829,3.4941 -21.58964,17.15498 -21.58964,30.12508 0,7.1263 0.82926,14.93839 4.51876,21.08756 5.82964,9.71607 28.76676,14.64899 39.1626,12.05003 6.01412,-1.50353 12.51555,-7.31514 16.06672,-12.05003 1.98238,-2.64317 3.74698,-6.95456 4.51876,-10.0417 0.47328,-1.89311 -0.38325,-4.10875 0,-6.02502 1.33152,-6.65758 2.30635,-20.78954 -3.01251,-26.1084 -2.77324,-2.77323 -5.61873,-5.25208 -9.03752,-7.53127 -3.03973,-2.02648 -19.95543,-7.09316 -24.10007,-5.02085 -2.09011,1.04506 -3.98408,1.98878 -6.5271,3.5146 z"
       id="path7502"
       inkscape:connector-curvature="0"
       inkscape:export-filename="/home/substack/projects/dnode-slides/images/fandango/path7485.png"
       inkscape:export-xdpi="100.02609"
       inkscape:export-ydpi="100.02609" />
    <path
       style="fill:#77775c;fill-opacity:1;stroke:#000000;stroke-width:2;stroke-linecap:butt;stroke-linejoin:miter;stroke-miterlimit:4;stroke-opacity:1;stroke-dasharray:none"
       d="m 363.56863,388.55052 c -11.75899,6.46194 -13.44808,35.75622 -1.50626,47.69804 4.04832,4.04831 20.24937,6.52711 27.11258,6.52711 6.21331,0 14.14964,-0.59336 17.57296,-4.01668 1.20384,-1.20384 3.60959,-3.1075 5.02085,-4.51876 1.80723,-1.80724 2.05246,-4.56288 3.5146,-6.02502 0.93807,-0.93807 1.18389,-4.37613 2.00833,-6.02502 0.82613,-1.65224 -0.19415,-6.83502 1.00417,-8.03335 0.77476,-0.77475 1.13421,-7.90332 0,-9.03753 -2.27344,-2.27344 -3.39496,-6.28783 -5.02084,-9.53961 -1.62511,-3.25019 -2.15245,-7.17329 -4.01668,-9.03752 -1.33013,-1.33012 -4.69489,-4.69489 -6.02502,-6.02502 -1.9159,-1.91589 -5.90934,-1.89266 -7.53127,-3.51459 -0.48199,-0.482 -2.37862,0.31695 -3.01251,0 -6.30766,-3.15383 -22.81647,5.7456 -25.60632,8.53544 -1.09106,1.09107 -3.51459,3.01251 -3.51459,3.01251 z"
       id="path7517"
       inkscape:connector-curvature="0"
       sodipodi:nodetypes="cssssssssssssscc"
       inkscape:export-filename="/home/substack/projects/dnode-slides/images/fandango/path7485.png"
       inkscape:export-xdpi="100.02609"
       inkscape:export-ydpi="100.02609" />
    <path
       style="fill:none;stroke:#000000;stroke-width:2;stroke-linecap:butt;stroke-linejoin:miter;stroke-miterlimit:4;stroke-opacity:1;stroke-dasharray:none"
       d="m 429.82607,468.29164 c -0.65456,-1.21844 -23.68369,-6.64237 -31.24243,-14.2011 -2.95766,-2.95767 -8.25467,-8.38767 -11.36088,-9.94077"
       id="path8068"
       inkscape:connector-curvature="0"
       inkscape:export-filename="/home/substack/projects/dnode-slides/images/fandango/path7485.png"
       inkscape:export-xdpi="100.02609"
       inkscape:export-ydpi="100.02609" />
    <path
       style="fill:none;stroke:#000000;stroke-width:2;stroke-linecap:butt;stroke-linejoin:miter;stroke-miterlimit:4;stroke-opacity:1;stroke-dasharray:none"
       d="m 239.8759,460.56718 c 5.71837,-2.18089 34.91268,-11.24089 36.21281,-9.94077"
       id="path8070"
       inkscape:connector-curvature="0"
       inkscape:export-filename="/home/substack/projects/dnode-slides/images/fandango/path7485.png"
       inkscape:export-xdpi="100.02609"
       inkscape:export-ydpi="100.02609" />
    <path
       style="fill:none;stroke:#000000;stroke-width:2;stroke-linecap:butt;stroke-linejoin:miter;stroke-miterlimit:4;stroke-opacity:1;stroke-dasharray:none"
       d="m 431.54028,463.44308 c -7.66897,8.29346 -16.13337,45.95569 -24.85192,54.67423 -0.51149,0.51149 -3.38969,16.72014 -4.26033,18.46143 -1.66506,3.33012 -3.38255,6.76511 -4.97039,9.94078 -0.85206,1.70412 0.85207,4.68636 0,6.39049 -2.8194,5.63881 -1.26685,17.44485 -2.84022,20.59159"
       id="path8072"
       inkscape:connector-curvature="0"
       sodipodi:nodetypes="cssssc"
       inkscape:export-filename="/home/substack/projects/dnode-slides/images/fandango/path7485.png"
       inkscape:export-xdpi="100.02609"
       inkscape:export-ydpi="100.02609" />
    <path
       style="fill:none;stroke:#000000;stroke-width:2;stroke-linecap:butt;stroke-linejoin:miter;stroke-miterlimit:4;stroke-opacity:1;stroke-dasharray:none"
       d="m 389.64704,512.43687 c 1.95493,-4.24232 3.10643,-6.9229 4.97038,-10.65082 1.86492,-3.72982 13.49105,-23.43477 13.49105,-25.56198 0,-1.94531 5.334,-8.88427 6.39049,-9.94077 0.75991,-0.7599 2.13017,-7.05575 2.13017,-3.55027"
       id="path8074"
       inkscape:connector-curvature="0"
       inkscape:export-filename="/home/substack/projects/dnode-slides/images/fandango/path7485.png"
       inkscape:export-xdpi="100.02609"
       inkscape:export-ydpi="100.02609" />
    <path
       style="fill:none;stroke:#000000;stroke-width:2;stroke-linecap:butt;stroke-linejoin:miter;stroke-miterlimit:4;stroke-opacity:1;stroke-dasharray:none"
       d="m 410.26748,550.04101 c -0.11179,-4.84373 11.98873,-25.74505 15.67386,-39.90783 1.10162,-4.23377 5.67652,-8.07937 7.05324,-12.04764 1.73964,-5.01437 24.5764,-28.88403 29.78034,-33.884 4.69992,-4.51572 11.5081,-12.80063 14.89016,-12.80063"
       id="path8102"
       inkscape:connector-curvature="0"
       inkscape:export-filename="/home/substack/projects/dnode-slides/images/fandango/path7485.png"
       inkscape:export-xdpi="100.02609"
       inkscape:export-ydpi="100.02609" />
    <path
       style="fill:none;stroke:#000000;stroke-width:2;stroke-linecap:butt;stroke-linejoin:miter;stroke-miterlimit:4;stroke-opacity:1;stroke-dasharray:none"
       d="m 435.76116,528.00967 c -0.81667,-11.40599 38.39358,-56.47334 45.45419,-56.47334"
       id="path8104"
       inkscape:connector-curvature="0"
       inkscape:export-filename="/home/substack/projects/dnode-slides/images/fandango/path7485.png"
       inkscape:export-xdpi="100.02609"
       inkscape:export-ydpi="100.02609" />
    <path
       style="fill:none;stroke:#000000;stroke-width:2;stroke-linecap:butt;stroke-linejoin:miter;stroke-miterlimit:4;stroke-opacity:1;stroke-dasharray:none"
       d="m 279.58852,589.12281 c 3.09493,-1.36952 5.89609,-3.42667 9.23072,-4.26032 9.21463,-2.30366 19.70448,-2.7812 28.4022,-5.68044 8.44059,-2.81354 24.80446,-7.81061 32.66252,-7.81061"
       id="path8121"
       inkscape:connector-curvature="0"
       inkscape:export-filename="/home/substack/projects/dnode-slides/images/fandango/path7485.png"
       inkscape:export-xdpi="100.02609"
       inkscape:export-ydpi="100.02609" />
    <path
       style="fill:none;stroke:#000000;stroke-width:2;stroke-linecap:butt;stroke-linejoin:miter;stroke-miterlimit:4;stroke-opacity:1;stroke-dasharray:none"
       d="m 273.90808,563.56084 c 12.1449,-1.74402 24.55486,-2.13017 36.92286,-2.13017 3.36715,0 8.10753,0.81334 11.36087,0 10.85874,-2.71469 22.58588,-2.13017 34.08264,-2.13017"
       id="path8160"
       inkscape:connector-curvature="0"
       inkscape:export-filename="/home/substack/projects/dnode-slides/images/fandango/path7485.png"
       inkscape:export-xdpi="100.02609"
       inkscape:export-ydpi="100.02609" />
    <path
       style="fill:none;stroke:#000000;stroke-width:2;stroke-linecap:butt;stroke-linejoin:miter;stroke-miterlimit:4;stroke-opacity:1;stroke-dasharray:none"
       d="m 258.28687,342.73373 c 23.64235,-6.92155 49.38345,-7.8106 74.55577,-7.8106 11.61169,0 28.69942,-3.68789 39.76308,0 5.66712,1.88904 32.86129,-0.51129 36.2128,2.84022"
       id="path8162"
       inkscape:connector-curvature="0"
       inkscape:export-filename="/home/substack/projects/dnode-slides/images/fandango/path7485.png"
       inkscape:export-xdpi="100.02609"
       inkscape:export-ydpi="100.02609" />
    <path
       style="fill:none;stroke:#000000;stroke-width:2;stroke-linecap:butt;stroke-linejoin:miter;stroke-miterlimit:4;stroke-opacity:1;stroke-dasharray:none"
       d="m 252.60643,310.07121 c 30.12264,-17.0207 87.25285,-23.3303 119.99929,-17.75138 4.37556,0.74545 9.09475,-0.62804 13.49104,0 16.97458,2.42494 34.72038,2.99965 51.12396,7.10055 5.6123,1.40308 12.01316,0.27247 17.75138,1.42011 5.72642,1.14528 41.0885,8.21298 41.89324,7.8106"
       id="path8164"
       inkscape:connector-curvature="0"
       sodipodi:nodetypes="cssssc"
       inkscape:export-filename="/home/substack/projects/dnode-slides/images/fandango/path7485.png"
       inkscape:export-xdpi="100.02609"
       inkscape:export-ydpi="100.02609" />
    <path
       style="fill:none;stroke:#000000;stroke-width:2;stroke-linecap:butt;stroke-linejoin:miter;stroke-miterlimit:4;stroke-opacity:1;stroke-dasharray:none"
       d="m 273.19802,266.0478 c 6.97069,-4.13098 14.72069,-3.2501 22.01171,-5.68044 32.81146,-10.93716 91.49395,-15.82451 126.38978,-7.10056 5.85681,1.46421 12.59955,0.88627 18.46143,2.84022 10.16547,3.3885 20.67392,6.43166 29.11226,10.65083 2.55064,1.27532 11.32359,2.09288 12.78099,3.55028 1.36529,1.36529 5.51093,4.26033 7.8106,4.26033"
       id="path8192"
       inkscape:connector-curvature="0"
       inkscape:export-filename="/home/substack/projects/dnode-slides/images/fandango/path7485.png"
       inkscape:export-xdpi="100.02609"
       inkscape:export-ydpi="100.02609" />
    <path
       style="fill:none;stroke:#000000;stroke-width:2;stroke-linecap:butt;stroke-linejoin:miter;stroke-miterlimit:4;stroke-opacity:1;stroke-dasharray:none"
       d="m 327.1622,391.01747 c 0.68738,-14.39587 1.26537,-28.64802 5.68044,-41.89325 0.60309,-1.80925 -0.84539,-4.69972 0,-6.39049 1.96039,-3.92078 0.20689,-9.64449 2.13017,-13.49104 3.39514,-6.79029 4.2731,-24.89022 7.10055,-33.37259 3.9993,-11.9979 11.51181,-20.89345 17.04132,-31.95246 1.62657,-3.25317 4.99546,-5.7306 6.39049,-8.52067 2.54579,-5.09158 21.61575,-17.04132 27.69215,-17.04132 2.04915,0 22.74842,-4.99704 20.59159,-2.84022"
       id="path8194"
       inkscape:connector-curvature="0"
       inkscape:export-filename="/home/substack/projects/dnode-slides/images/fandango/path7485.png"
       inkscape:export-xdpi="100.02609"
       inkscape:export-ydpi="100.02609" />
    <path
       style="fill:none;stroke:#000000;stroke-width:2;stroke-linecap:butt;stroke-linejoin:miter;stroke-miterlimit:4;stroke-opacity:1;stroke-dasharray:none"
       d="m 383.25654,356.22478 c -6.12766,-27.14104 6.03016,-72.06527 24.85193,-90.88704"
       id="path8196"
       inkscape:connector-curvature="0"
       inkscape:export-filename="/home/substack/projects/dnode-slides/images/fandango/path7485.png"
       inkscape:export-xdpi="100.02609"
       inkscape:export-ydpi="100.02609" />
    <path
       style="fill:none;stroke:#000000;stroke-width:2;stroke-linecap:butt;stroke-linejoin:miter;stroke-miterlimit:4;stroke-opacity:1;stroke-dasharray:none"
       d="m 485.50446,454.92242 c 6.44478,-12.59422 13.12417,-24.46136 17.75137,-38.34297 1.8651,-5.59528 2.11288,-12.00176 3.55028,-17.75137 0.77967,-3.11867 -0.77967,-6.8221 0,-9.94077 6.34131,-25.36525 -6.3816,-85.1888 -16.33126,-105.08814"
       id="path8211"
       inkscape:connector-curvature="0"
       inkscape:export-filename="/home/substack/projects/dnode-slides/images/fandango/path7485.png"
       inkscape:export-xdpi="100.02609"
       inkscape:export-ydpi="100.02609" />
    <path
       style="fill:none;stroke:#000000;stroke-width:2;stroke-linecap:butt;stroke-linejoin:miter;stroke-miterlimit:4;stroke-opacity:1;stroke-dasharray:none"
       d="m 453.55199,353.38456 c 6.22495,2.50464 13.44803,1.3986 19.17148,4.26033 0.77619,0.3881 35.58439,4.26033 38.34297,4.26033 3.0185,0 17.49421,-0.71006 14.2011,-0.71006"
       id="path8213"
       inkscape:connector-curvature="0"
       inkscape:export-filename="/home/substack/projects/dnode-slides/images/fandango/path7485.png"
       inkscape:export-xdpi="100.02609"
       inkscape:export-ydpi="100.02609" />
    <path
       style="fill:none;stroke:#000000;stroke-width:2;stroke-linecap:butt;stroke-linejoin:miter;stroke-miterlimit:4;stroke-opacity:1;stroke-dasharray:none"
       d="m 472.01342,411.60907 c 0.54802,0.42014 -1.03557,-3.6093 0,-5.68044 6.64942,-13.29886 5.68044,-31.37423 5.68044,-46.86363 0,-4.05527 1.2728,-7.54247 0,-11.36088 -1.46932,-4.40795 0.43473,-10.33198 -0.71006,-14.91115 -0.94636,-3.78542 0.52339,-8.37062 -0.71006,-12.07094 -2.68343,-8.05031 -5.08665,-16.68006 -7.8106,-24.85192 -2.27633,-6.82899 -3.19069,-14.19199 -6.3905,-20.5916 -2.30141,-4.60282 -12.55275,-23.66005 -13.49103,-22.72176"
       id="path8241"
       inkscape:connector-curvature="0"
       inkscape:export-filename="/home/substack/projects/dnode-slides/images/fandango/path7485.png"
       inkscape:export-xdpi="100.02609"
       inkscape:export-ydpi="100.02609" />
    <path
       style="fill:#e9e9d6;fill-opacity:1;stroke:#000000;stroke-width:2;stroke-linecap:butt;stroke-linejoin:miter;stroke-miterlimit:4;stroke-opacity:1;stroke-dasharray:none"
       d="m 386.09676,628.17584 c 2.46917,-1.52174 2.83443,-4.61246 4.97039,-5.68044 11.43812,-5.71906 23.51298,-32.7437 32.66253,-41.89325 3.23196,-3.23195 3.93836,-8.19869 7.10055,-11.36087 1.58014,-1.58014 6.01429,-4.59418 7.8106,-6.3905 0.47707,-0.47706 -3.66396,-5.90782 -4.26033,-7.10055 -1.92327,-3.84655 -7.04777,-9.88799 -8.52066,-11.36088"
       id="path8243"
       inkscape:connector-curvature="0"
       inkscape:export-filename="/home/substack/projects/dnode-slides/images/fandango/path7485.png"
       inkscape:export-xdpi="100.02609"
       inkscape:export-ydpi="100.02609" />
    <path
       style="fill:none;stroke:#000000;stroke-width:2;stroke-linecap:butt;stroke-linejoin:miter;stroke-miterlimit:4;stroke-opacity:1;stroke-dasharray:none"
       d="m 350.59401,616.1049 c -0.65283,2.39083 10.03207,16.51385 13.49105,23.43182"
       id="path8271"
       inkscape:connector-curvature="0"
       inkscape:export-filename="/home/substack/projects/dnode-slides/images/fandango/path7485.png"
       inkscape:export-xdpi="100.02609"
       inkscape:export-ydpi="100.02609" />
    <path
       style="fill:none;stroke:#000000;stroke-width:2;stroke-linecap:butt;stroke-linejoin:miter;stroke-miterlimit:4;stroke-opacity:1;stroke-dasharray:none"
       d="m 374.73588,592.67309 c -0.19567,13.83137 -3.61347,56.74119 4.26034,64.615"
       id="path8273"
       inkscape:connector-curvature="0"
       inkscape:export-filename="/home/substack/projects/dnode-slides/images/fandango/path7485.png"
       inkscape:export-xdpi="100.02609"
       inkscape:export-ydpi="100.02609" />
    <path
       style="fill:#f8f8f2;fill-opacity:1;stroke:#000000;stroke-width:2;stroke-linecap:butt;stroke-linejoin:miter;stroke-miterlimit:4;stroke-opacity:1;stroke-dasharray:none"
       d="m 292.4301,471.51019 c -0.724,-1.08582 0.0522,-6.68359 2.00834,-12.55211 0.92852,-2.78555 1.05846,-5.6858 2.00834,-8.53545 0.784,-2.35201 2.71359,-4.62617 3.5146,-7.02918 3.45117,-10.35354 9.71498,-21.26293 16.56878,-28.11674 1.97433,-1.97433 5.20123,-2.34957 7.53128,-3.5146 3.67725,-1.83862 7.68677,-1.67954 11.04586,0 2.89477,1.44739 7.8431,3.13408 9.53961,6.52711 2.13356,4.26711 6.5219,8.01774 8.03336,12.55211 1.16617,3.49853 1.32856,7.50027 2.51042,11.04586 1.34428,4.03287 3.68956,8.05619 5.02084,12.05004 1.18563,3.55687 3.3055,15.85761 4.51877,17.07088"
       id="path7487"
       inkscape:connector-curvature="0"
       inkscape:export-filename="/home/substack/projects/dnode-slides/images/fandango/path7485.png"
       inkscape:export-xdpi="100.02609"
       inkscape:export-ydpi="100.02609" />
    <path
       style="fill:#9d9d81;fill-opacity:1;stroke:#000000;stroke-width:2;stroke-linecap:butt;stroke-linejoin:miter;stroke-miterlimit:4;stroke-opacity:1;stroke-dasharray:none"
       d="m 316.44403,436.93772 c -2.88413,0.67817 -3.65377,4.29502 -5.02085,7.02918 -1.17972,2.35944 -1.38289,5.2762 -2.51043,7.53127 -0.85162,1.70326 -3.86838,11.54795 -1.50625,11.54795 4.20486,0 12.55212,-16.57899 12.55212,-20.58547 0,-3.86175 1.76026,-6.57791 -3.51459,-5.52293 z"
       id="path7483"
       inkscape:connector-curvature="0"
       inkscape:export-filename="/home/substack/projects/dnode-slides/images/fandango/path7485.png"
       inkscape:export-xdpi="100.02609"
       inkscape:export-ydpi="100.02609" />
    <path
       style="fill:#9d9d81;fill-opacity:1;stroke:#000000;stroke-width:2;stroke-linecap:butt;stroke-linejoin:miter;stroke-miterlimit:4;stroke-opacity:1;stroke-dasharray:none"
       d="m 336.02534,439.95023 c 0.15973,0.76365 -0.3722,2.398 1.00416,6.5271 0.89119,2.67356 1.7606,5.02745 3.01252,7.53127 0.86415,1.72831 1.14418,3.79462 2.00833,5.52293 0.75553,1.51104 3.11934,4.91402 5.02085,3.01251 0.89394,-0.89394 -0.19608,-3.31852 0.50208,-4.01668 3.80817,-3.80816 -3.36656,-17.42493 -5.02084,-19.07922 -2.19469,-2.19468 -3.86541,-3.93406 -6.5271,0.50209 z"
       id="path7485"
       inkscape:connector-curvature="0"
       inkscape:export-xdpi="100.02609"
       inkscape:export-ydpi="100.02609" />
  </g>
</svg>
