<?xml version="1.0" encoding="UTF-8" standalone="no"?>
<!-- Created with Inkscape (http://www.inkscape.org/) -->

<svg
   xmlns:dc="http://purl.org/dc/elements/1.1/"
   xmlns:cc="http://creativecommons.org/ns#"
   xmlns:rdf="http://www.w3.org/1999/02/22-rdf-syntax-ns#"
   xmlns:svg="http://www.w3.org/2000/svg"
   xmlns="http://www.w3.org/2000/svg"
   xmlns:sodipodi="http://sodipodi.sourceforge.net/DTD/sodipodi-0.dtd"
   xmlns:inkscape="http://www.inkscape.org/namespaces/inkscape"
   width="744.09448819"
   height="1052.3622047"
   id="svg2"
   version="1.1"
   inkscape:version="0.48.3.1 r9886"
   sodipodi:docname="alert.svg">
  <defs
     id="defs4" />
  <sodipodi:namedview
     id="base"
     pagecolor="#ffffff"
     bordercolor="#666666"
     borderopacity="1.0"
     inkscape:pageopacity="0.0"
     inkscape:pageshadow="2"
     inkscape:zoom="1.979899"
     inkscape:cx="360.12882"
     inkscape:cy="511.26359"
     inkscape:document-units="px"
     inkscape:current-layer="layer1"
     showgrid="false"
     inkscape:window-width="1364"
     inkscape:window-height="766"
     inkscape:window-x="0"
     inkscape:window-y="0"
     inkscape:window-maximized="0" />
  <metadata
     id="metadata7">
    <rdf:RDF>
      <cc:Work
         rdf:about="">
        <dc:format>image/svg+xml</dc:format>
        <dc:type
           rdf:resource="http://purl.org/dc/dcmitype/StillImage" />
        <dc:title></dc:title>
      </cc:Work>
    </rdf:RDF>
  </metadata>
  <g
     inkscape:label="Layer 1"
     inkscape:groupmode="layer"
     id="layer1">
    <path
       style="fill:#e72929;fill-opacity:1;stroke:#7f1e1e;stroke-width:5;stroke-linecap:butt;stroke-linejoin:miter;stroke-miterlimit:4;stroke-opacity:1;stroke-dasharray:none"
       d="m 281.95365,577.6287 c 2.03474,-8.75067 8.03659,-16.05463 13.51009,-22.91303 1.51835,-7.07136 6.43891,-12.26445 11.03216,-17.50944 7.93267,-14.05119 14.92179,-28.65288 22.47701,-42.92422 4.57868,-9.30259 9.517,-18.44527 16.3129,-26.36046 5.31975,-5.89272 8.51773,-13.0261 12.19962,-19.94853 4.03855,-5.98015 3.61761,-15.90718 12.05633,-16.7563 6.35316,0.65841 10.50514,15.48254 13.88579,21.95641 2.55677,6.84436 8.90924,17.24124 13.39807,22.81822 3.71258,6.26874 9.18997,10.59743 12.2027,19.41216 3.36896,6.64622 11.91419,21.10267 14.1842,25.16812 4.74336,6.29339 11.37615,19.31355 14.69428,25.57145 3.10907,4.79111 8.29023,14.63358 12.66835,22.29209 4.86217,6.66583 8.11608,13.95071 4.49537,17.50275 -2.66751,3.23146 -20.20948,0.41669 -27.32007,1.98648 -8.70222,0.54281 -25.45876,-0.42511 -31.76269,-0.67331 -5.50411,-0.56942 -58.1833,1.0685 -65.22101,0.10678 -5.45457,0.68972 -29.61222,1.1836 -38.56209,0.0839 -5.61176,-0.0153 -12.26174,-3.10925 -10.25101,-9.81303 z"
       id="path3013"
       inkscape:connector-curvature="0"
       sodipodi:nodetypes="ccccccccccccccccccc" />
    <path
       style="fill:#fbe3e3;stroke:#7f1e1e;stroke-width:5;stroke-linecap:round;stroke-linejoin:round;stroke-miterlimit:4;stroke-opacity:1;stroke-dasharray:none;fill-opacity:1"
       d="m 368.00677,549.109 c -2.34355,0.0358 -3.93948,2.11227 -5.37678,3.70524 -1.42582,1.50465 -1.75157,3.5183 -2.37984,5.39185 -0.58219,1.67508 -0.36537,3.5222 -0.28691,5.26496 0.55535,1.45573 2.05505,2.29153 2.7635,3.72913 3.70823,3.88848 9.73845,4.57139 14.66469,2.93459 2.19753,-0.62996 4.12601,-2.14696 5.03662,-4.27395 1.25818,-2.64517 2.07009,-5.66394 1.66497,-8.60268 -0.51724,-3.14686 -2.82505,-5.58585 -5.17547,-7.55705 -1.59541,-0.43726 -3.31201,-0.34884 -4.78888,-1.15351 -2.04092,-0.3835 -4.16009,-0.0406 -6.1219,0.56142 z"
       id="path3027"
       inkscape:connector-curvature="0" />
    <path
       style="fill:#fbe3e3;stroke:#7f1e1e;stroke-width:5;stroke-linecap:round;stroke-linejoin:round;stroke-miterlimit:4;stroke-opacity:1;stroke-dasharray:none;fill-opacity:1"
       d="m 371.86567,536.29229 c 0,0 -3.52107,0.35153 -5.32582,-0.88668 -4.41034,-3.02583 -5.6223,-19.04592 -6.31418,-25.3085 -0.14255,-1.29052 0.34737,-4.1947 -0.60308,-5.45873 -2.4133,-3.2095 -2.50346,-24.61282 -0.16047,-26.92813 3.03387,-2.99801 3.88412,-4.94408 9.60971,-5.37293 2.34482,-0.73661 8.11052,0.60079 8.9784,1.66322 5.66038,7.52785 5.99583,20.04834 3.52298,28.70404 -0.54515,1.90816 0.0471,3.79607 -0.79263,5.56327 -1.07606,2.26465 -0.35959,6.06828 -1.522,8.51469 -0.49198,1.03537 0.72431,2.64396 0.41261,3.73492 -0.90215,3.15785 -0.42115,9.03071 -1.55352,11.41385 -1.79792,3.78385 -3.23605,5.41019 -6.252,4.36098 z"
       id="path3058"
       inkscape:connector-curvature="0"
       sodipodi:nodetypes="cssssccssscsc" />
    <path
       sodipodi:type="inkscape:offset"
       inkscape:radius="-2.6769042"
       inkscape:original="M 369.53125 431.21875 C 361.09253 432.06787 361.53855 441.9886 357.5 447.96875 C 353.81811 454.89118 350.601 462.01353 345.28125 467.90625 C 338.48535 475.82144 333.54743 484.97866 328.96875 494.28125 C 321.41353 508.55259 314.43267 523.16756 306.5 537.21875 C 301.90675 542.46374 296.9871 547.64739 295.46875 554.71875 C 289.99525 561.57715 284.00349 568.87433 281.96875 577.625 C 279.95802 584.32878 286.60699 587.4222 292.21875 587.4375 C 296.80918 588.00154 305.35873 588.14831 313.375 588.0625 C 313.3315 587.95501 313.24694 587.77513 313.21875 587.71875 C 312.81728 586.91582 310.85234 586.78984 310.34375 586.28125 C 309.50739 585.44489 301.79701 585.23451 300.34375 583.78125 C 299.19449 582.63199 299.34609 579.56484 298.21875 578.4375 C 297.74745 577.9662 296.83832 575.10461 297.5 573.78125 C 298.08005 572.62115 298.26376 569.82999 298.9375 569.15625 C 300.14861 567.94514 300.40106 565.53644 301.4375 564.5 C 303.90391 562.03359 305.59001 557.47249 308.5625 554.5 C 309.18681 553.87568 309.32534 552.33091 310 551.65625 C 314.96644 546.68981 320.40761 540.80977 323.5625 534.5 C 324.162 533.301 325.463 532.48026 326.0625 531.28125 C 328.38476 526.63673 332.34495 520.71514 333.9375 515.9375 C 334.66159 513.76524 335.83357 510.76527 337.15625 508.78125 C 338.77258 506.35676 340.81524 503.1168 341.78125 500.21875 C 342.99597 496.57461 344.44493 493.11014 346.0625 489.875 C 346.71974 488.56051 347.72742 487.75522 348.21875 486.28125 C 351.53315 476.33803 356.55671 466.73034 361.0625 457.71875 C 361.30167 457.24041 361.93683 457.21942 362.15625 457 C 364.76944 454.3868 366.05097 450.94903 368.5625 448.4375 C 369.1061 447.8939 370.7652 447.50802 371.78125 447 C 375.40112 445.19007 379.05955 448.68602 381.4375 449.875 C 381.62085 449.9667 381.81099 450.01734 382 450.09375 C 378.87634 442.89722 375.01601 431.78716 369.53125 431.21875 z "
       style="fill:#f63333;fill-opacity:1;stroke:#ffffff;stroke-width:1px;stroke-linecap:butt;stroke-linejoin:miter;stroke-opacity:0"
       id="path3871"
       d="m 369.40625,433.96875 c -1.30489,0.20278 -2.17355,0.65051 -2.90625,1.34375 -0.81648,0.7725 -1.53776,1.94171 -2.1875,3.4375 -1.27029,2.92437 -2.16158,6.92953 -4.46875,10.46875 l 0.0312,0 c -0.0452,0.0849 -0.11119,0.16493 -0.15625,0.25 -3.56851,6.73719 -6.81632,13.98256 -12.40625,20.1875 -0.01,0.0111 -0.0212,0.0201 -0.0312,0.0312 -6.53415,7.61994 -11.36358,16.55181 -15.90625,25.78125 a 2.6771719,2.6771719 0 0 1 -0.0312,0.0625 c -7.52066,14.20606 -14.50719,28.84229 -22.5,43 a 2.6771719,2.6771719 0 0 1 -0.34375,0.4375 c -4.64147,5.30006 -9.08069,10.13902 -10.40625,16.3125 a 2.6771719,2.6771719 0 0 1 -0.53125,1.09375 c -5.49017,6.87928 -11.15346,13.90247 -13,21.84375 a 2.6771719,2.6771719 0 0 1 -0.0312,0.1875 c -0.73954,2.46563 -0.10548,3.39321 1.34375,4.5 1.44923,1.10679 4.02685,1.83743 6.34375,1.84375 a 2.6771719,2.6771719 0 0 1 0.3125,0.0312 c 1.30034,0.15978 3.5591,0.2161 5.53125,0.3125 -0.95349,-1.24807 -1.193,-2.4661 -1.40625,-3.375 -0.24745,-1.05465 -0.68082,-1.71207 -0.34375,-1.375 -0.77129,-0.77129 -0.79635,-1.14379 -1,-1.65625 -0.20365,-0.51246 -0.36665,-1.07165 -0.5,-1.6875 -0.26671,-1.2317 -0.61406,-2.61563 0.28125,-4.40625 -0.0435,0.0869 0.25629,-0.9031 0.46875,-1.875 0.10623,-0.48595 0.23134,-0.98997 0.40625,-1.53125 0.17491,-0.54128 0.2836,-1.1586 1.0625,-1.9375 0.0439,-0.0439 0.38318,-0.60742 0.71875,-1.46875 0.33557,-0.86133 0.6067,-2.01295 1.78125,-3.1875 1.73093,-1.73093 3.54225,-6.41725 7.125,-10 -0.39843,0.39843 -0.10718,0.15326 0.0937,-0.40625 0.20093,-0.55951 0.34885,-1.4426 1.34375,-2.4375 4.91068,-4.91068 10.1607,-10.63391 13.0625,-16.4375 1.07377,-2.14754 2.37477,-2.96828 2.5,-3.21875 2.45965,-4.91929 6.36861,-10.85585 7.75,-15 0.7643,-2.2929 1.92256,-5.39946 3.53125,-7.8125 1.58317,-2.37475 3.51521,-5.51435 4.3125,-7.90625 1.25571,-3.76712 2.73277,-7.34055 4.40625,-10.6875 0.95112,-1.90226 1.79466,-2.54022 2.03125,-3.25 3.40742,-10.22227 8.47853,-19.92579 12.96875,-28.90625 0.4822,-0.96439 1.25698,-1.40888 1.71875,-1.625 2.00734,-2.10319 3.29916,-5.39291 6.28125,-8.375 1.01071,-1.01071 1.73272,-1.09198 2.40625,-1.34375 0.67353,-0.25177 1.30202,-0.47914 1.53125,-0.59375 2.09156,-1.04578 4.13195,-0.74709 5.9375,-0.1875 -0.7499,-1.70971 -1.40852,-3.48093 -2.21875,-4.96875 -0.95503,-1.75372 -1.98636,-3.22719 -2.90625,-4.1875 -0.85437,-0.89191 -1.49404,-1.19074 -2,-1.28125 z" />
    <path
       sodipodi:type="inkscape:offset"
       inkscape:radius="-1.7871646"
       inkscape:original="M 380.09375 445.625 C 377.55368 449.62946 376.39978 454.46233 380 458.0625 C 381.01146 459.07396 381.43671 461.31171 382.84375 462.71875 C 384.39166 464.26667 384.39367 467.59983 385.34375 469.5 C 386.10717 471.02683 387.42267 472.5641 388.21875 474.15625 C 390.90125 479.52125 392.79341 482.96181 395.34375 488.0625 C 395.77834 488.93167 395.80435 491.36684 396.4375 492 C 398.32608 493.88858 403.32526 504.78828 404.65625 508.78125 C 405.67858 511.84824 409.40958 515.10042 410.71875 517.71875 C 411.07898 518.43922 412.37066 518.92882 412.84375 519.875 C 414.40977 523.00704 416.28967 526.04807 417.84375 529.15625 C 418.93315 531.33504 422.48405 534.84309 423.5625 537 C 425.98428 541.84356 429.27394 546.27395 433.21875 550.21875 C 434.3179 551.31791 434.6196 553.77585 435.71875 554.875 C 436.34315 555.49941 438.9375 558.20118 438.9375 559.15625 C 438.9375 560.1376 440.39665 562.39665 441.0625 563.0625 C 441.84758 563.84752 441.096 566.31477 441.78125 567 C 443.55797 568.77648 445.65345 577.0653 443.5625 579.15625 C 440.18966 582.52908 423.36668 580.5625 417.84375 580.5625 C 414.59923 580.5625 398.75601 579.76263 397.84375 580.21875 C 395.40644 581.43741 390.28747 580.9375 387.84375 580.9375 C 385.48589 580.9375 376.14171 579.82776 373.9375 580.5625 C 372.11681 581.1694 363.8198 582.55452 362.15625 582 C 361.18592 581.67656 352.96237 580.87819 352.15625 581.28125 C 350.02354 582.34768 346.41046 582.375 343.9375 582.375 C 336.9191 582.375 326.72393 579.88804 321.0625 582.71875 C 319.86624 583.31689 318.01749 582.44438 316.78125 583.0625 C 315.03623 583.93501 311.60808 582.17318 310.34375 583.4375 C 309.40948 584.37177 307.55452 582.28923 306.78125 583.0625 C 305.28988 584.55387 300.80193 583.69808 299.28125 585.21875 C 298.58307 585.91693 298.2516 586.86878 298.125 587.875 C 309.03736 588.36483 326.26689 587.9146 330.78125 587.34375 C 337.81896 588.30547 390.49589 586.68053 396 587.25 C 402.30393 587.4982 419.04778 588.48031 427.75 587.9375 C 434.86059 586.36771 452.39499 589.16896 455.0625 585.9375 C 458.68321 582.38546 455.42467 575.10333 450.5625 568.4375 C 446.18438 560.77899 441.01532 550.94736 437.90625 546.15625 C 434.58812 539.89835 427.96211 526.85589 423.21875 520.5625 C 420.94874 516.49705 412.40021 502.05247 409.03125 495.40625 C 406.01852 486.59152 400.52508 482.26874 396.8125 476 C 392.32367 470.42302 385.99427 460.03186 383.4375 453.1875 C 382.41653 451.23236 381.29481 448.48315 380.09375 445.625 z "
       style="fill:#c92222;fill-opacity:1;stroke:#ffffff;stroke-width:1px;stroke-linecap:butt;stroke-linejoin:miter;stroke-opacity:0"
       id="path3912"
       d="m 380.0625,449.9375 c -0.24194,0.74247 -0.48119,1.4946 -0.53125,2.1875 -0.12574,1.74049 0.26888,3.23765 1.71875,4.6875 0.88315,0.88315 1.22895,1.82102 1.625,2.65625 0.39605,0.83523 0.78654,1.56779 1.21875,2 1.22721,1.22722 1.63774,2.75564 1.96875,4.09375 0.33101,1.33811 0.58666,2.54833 0.875,3.125 0.61075,1.22148 1.93251,2.77128 2.875,4.65625 2.66884,5.33769 4.5603,8.77683 7.125,13.90625 0.50949,1.01897 0.49256,1.80879 0.625,2.5625 0.0662,0.37685 0.15806,0.70187 0.21875,0.90625 0.0607,0.20438 0.14866,0.27366 -0.0937,0.0312 0.80117,0.80117 1.43501,1.84889 2.21875,3.25 0.78374,1.40111 1.63083,3.08898 2.46875,4.84375 1.67584,3.50954 3.24526,7.20452 3.96875,9.375 0.36484,1.09452 1.42489,2.60001 2.625,4.09375 1.20011,1.49374 2.51783,2.94191 3.34375,4.59375 -0.12958,-0.25916 0.0803,0.0571 0.53125,0.40625 0.45092,0.34919 1.12139,0.80528 1.59375,1.75 1.51711,3.03422 3.39663,6.07449 5,9.28125 0.36893,0.73785 1.49782,2.20636 2.65625,3.625 1.15843,1.41864 2.34572,2.78518 3.0625,4.21875 2.32722,4.65444 5.4895,8.95826 9.3125,12.78125 0.96275,0.96276 1.30604,2.04823 1.65625,2.9375 0.35021,0.88927 0.70735,1.58235 0.84375,1.71875 0.34842,0.34843 1.1841,1.18244 1.96875,2.125 0.39232,0.47128 0.77275,0.96454 1.09375,1.46875 0.321,0.50421 0.6875,0.88962 0.6875,1.9375 0,-0.39509 0.17613,0.52288 0.5625,1.1875 0.38637,0.66462 0.95135,1.38885 1.03125,1.46875 0.62808,0.62803 0.79753,1.30474 0.875,1.84375 0.0775,0.53901 0.0646,0.99662 0.0625,1.40625 -0.002,0.40963 0.0123,0.76876 0.0312,0.9375 0.019,0.16874 0.0734,0.0734 -0.25,-0.25 0.81136,0.81125 1.28959,1.78935 1.75,2.96875 0.46041,1.1794 0.83088,2.51991 1.09375,3.90625 0.26287,1.38634 0.39625,2.80708 0.3125,4.125 -0.0838,1.31792 -0.32926,2.61051 -1.375,3.65625 -1.42987,1.42987 -3.39729,1.84564 -5.6875,2.15625 -2.29021,0.31061 -4.91932,0.37939 -7.625,0.34375 -5.41136,-0.0713 -11.10691,-0.5625 -13.65625,-0.5625 -1.76912,0 -6.46977,-0.2012 -10.9375,-0.34375 -2.23387,-0.0713 -4.39782,-0.11436 -6.03125,-0.125 -0.81672,-0.005 -1.49384,-0.0196 -1.96875,0 -0.23745,0.01 -0.43665,0.0516 -0.53125,0.0625 -0.0946,0.0109 -0.17113,0.10119 0.28125,-0.125 -1.75372,0.87686 -3.79537,0.97126 -5.78125,1 -1.98588,0.0287 -3.93126,-0.0937 -5.03125,-0.0937 -1.45931,0 -4.25562,-0.28552 -7.125,-0.46875 -1.43469,-0.0916 -2.84439,-0.15557 -4,-0.15625 -1.15561,-6.8e-4 -2.15511,0.13504 -2.21875,0.15625 -1.29603,0.43201 -3.67457,0.88794 -6.25,1.25 -1.28772,0.18103 -2.57163,0.30918 -3.6875,0.375 -1.11587,0.0658 -1.9183,0.16265 -2.96875,-0.1875 0.26661,0.0889 -0.64198,-0.10853 -1.53125,-0.21875 -0.88927,-0.11022 -2.00909,-0.2196 -3.125,-0.3125 -1.11591,-0.0929 -2.21972,-0.16574 -3.0625,-0.1875 -0.42139,-0.0109 -0.77466,-0.0119 -1,0 -0.22534,0.0119 -0.45459,0.18042 0.0937,-0.0937 -2.84395,1.42208 -6.54513,1.28125 -9.03125,1.28125 -3.72029,0 -8.02693,-0.61346 -12.0625,-0.875 -4.03557,-0.26154 -7.74034,-0.0986 -10,1.03125 -1.23841,0.61922 -2.332,0.40946 -3.09375,0.34375 -0.76175,-0.0657 -1.18896,7.3e-4 -1.1875,0 -1.72158,0.86079 -3.27357,0.38676 -4.46875,0.21875 -0.59759,-0.084 -1.11528,-0.13951 -1.40625,-0.125 -0.29097,0.0145 -0.24121,0.0537 -0.125,-0.0625 -0.6774,0.6774 -1.72376,0.85624 -2.375,0.75 -0.65124,-0.10624 -1.11072,-0.33759 -1.46875,-0.5 -0.2702,-0.12257 -0.36899,-0.17965 -0.46875,-0.21875 -1.33634,0.88835 -2.76807,1.05047 -4.03125,1.1875 -0.56801,0.0616 -0.60163,0.12353 -1.03125,0.21875 10.70469,0.25593 24.71032,-0.10305 28.34375,-0.5625 a 1.7873433,1.7873433 0 0 1 0.46875,0 c 1.39621,0.1908 6.12771,0.32068 12.125,0.3125 5.99729,-0.008 13.41486,-0.11136 20.78125,-0.21875 7.36639,-0.10739 14.69904,-0.22392 20.53125,-0.28125 5.77,-0.0567 9.80933,-0.0814 11.59375,0.0937 0.0264,0.001 0.0982,-0.001 0.125,0 6.42415,0.25542 23.0461,1.21092 31.4375,0.6875 4.07338,-0.8416 10.00035,-0.4727 15.46875,-0.375 2.78192,0.0497 5.42419,0.045 7.40625,-0.15625 1.98206,-0.2013 3.21325,-0.84369 3.1875,-0.8125 a 1.7873433,1.7873433 0 0 1 0.125,-0.15625 c 1.1832,-1.16076 1.34035,-2.99721 0.46875,-5.78125 -0.8716,-2.78404 -2.79574,-6.13885 -5.15625,-9.375 A 1.7873433,1.7873433 0 0 1 449,569.3125 c -4.40439,-7.70446 -9.60003,-17.57414 -12.59375,-22.1875 A 1.7873433,1.7873433 0 0 1 436.3125,547 c -3.33828,-6.29591 -10.02073,-19.39054 -14.53125,-25.375 a 1.7873433,1.7873433 0 0 1 -0.125,-0.1875 c -2.21739,-3.9712 -10.7707,-18.41649 -14.21875,-25.21875 a 1.7873433,1.7873433 0 0 1 -0.0937,-0.25 c -2.82326,-8.26038 -8.02893,-12.3504 -11.9375,-18.84375 -0.0447,-0.0742 -0.0807,-0.14389 -0.125,-0.21875 -4.60289,-5.76418 -10.73919,-15.78769 -13.4375,-22.90625 -0.0272,-0.052 -0.0666,-0.13466 -0.0937,-0.1875 -0.54891,-1.06639 -1.1171,-2.5504 -1.6875,-3.875 z" />
    <path
       style="fill:#ffffff;stroke:#ffffff;stroke-width:1px;stroke-linecap:butt;stroke-linejoin:miter;stroke-opacity:0;fill-opacity:1"
       d="M 372.71875 475.1875 C 372.97357 475.57694 373.25753 476.00494 373.46875 476.3125 C 373.72263 476.68219 374.02245 477.05961 374.03125 477.09375 C 374.70018 477.79151 374.6443 478.03063 374.71875 478.25 C 374.7971 478.48086 374.84093 478.64611 374.875 478.78125 C 374.90907 478.91638 374.979 479.09976 375 479.15625 C 376.13053 481.47614 377.03223 483.8779 377.84375 486.3125 C 378.39162 487.95608 378.33592 489.039 378.375 489.15625 C 378.76441 490.32447 378.75552 491.25391 378.75 492.375 C 378.74448 493.49609 378.65423 494.69639 378.53125 495.90625 C 378.28529 498.32596 377.98627 500.44743 377.46875 502 C 377.24674 502.66602 377.43986 504.80543 376.59375 507.34375 C 375.89154 509.4504 375.66166 512.45252 374.625 515.5625 C 373.59747 518.64509 372.68262 521.57717 371.59375 524.84375 C 371.54624 524.98629 371.49052 525.13773 371.4375 525.28125 C 371.40908 526.02275 371.32934 526.73316 371.21875 526.84375 C 370.88203 527.18047 371.55547 528.50703 371.21875 528.84375 C 370.92707 529.13543 370.7469 531.3578 370.625 533.53125 C 371.16109 533.53619 371.59375 533.5 371.59375 533.5 A 2.8008582 2.8008582 0 0 1 372.78125 533.625 C 373.73931 533.9583 373.48265 533.92581 373.75 533.71875 C 374.01735 533.51169 374.7528 532.51984 375.59375 530.75 C 375.70868 530.50812 376.06077 528.47298 376.1875 526.34375 C 376.31423 524.21452 376.35409 521.90154 376.96875 519.75 C 376.76082 520.47776 376.93578 520.15911 376.71875 519.4375 C 376.50172 518.71589 375.84724 517.42784 376.71875 515.59375 C 376.96494 515.07561 377.14775 513.80618 377.25 512.28125 C 377.35225 510.75632 377.35006 508.98773 378.25 507.09375 C 378.39236 506.79414 378.44833 506.3566 378.46875 505.5 C 378.48917 504.6434 378.46043 503.38858 378.875 501.9375 C 381.10758 494.12283 380.60343 482.3662 375.96875 475.9375 C 375.69804 475.81558 375.2188 475.64877 374.6875 475.5 C 374.08472 475.33121 373.40397 475.29366 372.71875 475.1875 z "
       id="path4111" />
    <path
       style="fill:#f7cccc;fill-opacity:1;stroke:#ffffff;stroke-width:1px;stroke-linecap:butt;stroke-linejoin:miter;stroke-opacity:0"
       d="M 371.25 474.59375 C 370.56738 474.56409 369.95492 474.64276 369.8125 474.6875 A 2.4717869 2.4717869 0 0 1 369.25 474.8125 C 366.65626 475.00677 365.60482 475.44956 364.6875 476.09375 C 363.80545 476.71317 362.88827 477.80259 361.375 479.3125 C 361.43383 479.26858 361.22073 479.55619 361.09375 480.03125 C 360.92445 480.66466 360.75786 481.63541 360.625 482.75 C 360.35929 484.97918 360.23527 487.87559 360.25 490.8125 C 360.26473 493.74941 360.42535 496.74136 360.71875 499.09375 C 360.97548 501.15209 361.59802 502.88899 361.625 503.125 C 362.75916 504.64565 362.67395 506.11064 362.6875 507.3125 C 362.7011 508.51919 362.67308 509.682 362.6875 509.8125 C 363.04143 513.01613 363.49566 518.52769 364.40625 523.53125 C 364.86155 526.03303 365.42986 528.38115 366.09375 530.1875 C 366.75764 531.99385 367.63057 533.16442 367.9375 533.375 C 368.12548 533.50397 369.13025 533.79184 370.03125 533.84375 C 370.3441 533.86177 370.57015 533.84916 370.8125 533.84375 C 370.73225 532.54399 370.87367 531.05744 370.9375 529.90625 C 370.89982 529.83857 370.8492 529.79215 370.8125 529.71875 C 370.30224 528.69825 369.47875 527.37377 368.90625 525.65625 C 368.23844 523.65284 368.08549 521.92099 367.78125 521.3125 C 366.76207 519.27411 367.02528 517.70085 366.9375 517.4375 C 366.47453 516.04859 366.41955 514.72868 366.3125 513.46875 C 366.20545 512.20882 366.06154 511.02838 365.875 510.46875 C 365.57417 509.56627 365.64922 508.93842 365.65625 508.5625 C 365.65947 508.3902 365.66069 508.27335 365.65625 508.21875 C 364.87133 505.81012 364.88542 503.78129 364.4375 502.4375 C 363.6228 499.99343 364.04473 498.19668 363.90625 497.78125 C 363.48857 496.52823 363.575 495.5176 363.6875 494.53125 C 363.8 493.5449 364.00703 492.66649 364.25 491.9375 C 364.20735 492.06546 364.37097 491.45687 364.5 490.8125 C 364.62903 490.16813 364.77893 489.36049 364.9375 488.5625 C 365.09607 487.76451 365.2706 486.9879 365.4375 486.3125 C 365.52095 485.9748 365.5827 485.65367 365.6875 485.34375 C 365.7923 485.03383 365.63373 484.835 366.46875 484 C 366.56924 483.89951 367.53224 482.57664 368.125 481.6875 C 369.00319 480.37021 370.26475 478.25034 372.84375 477.21875 C 373.06483 477.13032 373.36252 476.9892 373.625 476.875 C 373.48423 476.35374 373.41201 475.60529 373.21875 475.21875 C 373.17242 475.1261 373.07682 474.94091 373 474.78125 C 372.38719 474.67667 371.78668 474.61706 371.25 474.59375 z "
       id="path3995" />
    <path
       sodipodi:type="inkscape:offset"
       inkscape:radius="-2.6986713"
       inkscape:original="M 372.59375 548.375 C 371.04476 548.3379 369.47136 548.64224 368 549.09375 C 365.65645 549.12955 364.0623 551.21953 362.625 552.8125 C 361.19918 554.31715 360.87827 556.3452 360.25 558.21875 C 359.66781 559.89383 359.89029 561.72599 359.96875 563.46875 C 360.5241 564.92448 362.0103 565.7499 362.71875 567.1875 C 366.42698 571.07598 372.48001 571.7618 377.40625 570.125 C 377.67121 570.049 377.90042 569.94501 378.15625 569.84375 C 374.89186 568.47639 371.56894 567.01809 370.90625 565 C 370.75768 564.54758 370.27487 564.21178 370.1875 563.71875 C 369.93536 562.29589 369.58752 560.92257 369.4375 559.40625 C 369.3564 558.58604 369.56631 557.5721 369.6875 556.75 C 370.17136 553.4678 371.84338 550.54174 374.5 548.71875 C 374.37514 548.66375 374.2468 548.62885 374.125 548.5625 C 373.61477 548.4666 373.11008 548.38738 372.59375 548.375 z "
       style="fill:#f7cccc;stroke:#ffffff;stroke-width:1px;stroke-linecap:butt;stroke-linejoin:miter;stroke-opacity:0;fill-opacity:1"
       id="path4162"
       d="m 368.53125,551.75 a 2.6989412,2.6989412 0 0 1 -0.5,0.0312 c -0.37917,0.006 -0.7432,0.1557 -1.34375,0.65625 -0.60055,0.50055 -1.28304,1.32362 -2.0625,2.1875 a 2.6989412,2.6989412 0 0 1 -0.0312,0.0312 c -0.7321,0.77258 -1.05441,2.23875 -1.78125,4.40625 a 2.6989412,2.6989412 0 0 1 0,0.0312 c -0.26827,0.77186 -0.19297,2.1384 -0.125,3.65625 0.10562,0.17023 0.18377,0.34374 0.5625,0.75 0.37166,0.39868 0.88908,1.11998 1.375,1.84375 l 0.0312,-0.0312 c 1.29277,1.35561 3.08093,2.18262 5,2.59375 -0.52381,-0.58673 -1.0287,-1.19824 -1.3125,-2.0625 0.13432,0.40903 0.18926,0.37971 0,0.125 -0.18926,-0.25471 -0.63815,-0.7974 -0.8125,-1.78125 -0.22979,-1.29674 -0.60671,-2.73583 -0.78125,-4.5 a 2.6989412,2.6989412 0 0 1 0,-0.0312 c -0.1474,-1.4907 0.17894,-2.61847 0.28125,-3.3125 0.23928,-1.62316 0.77679,-3.14704 1.5,-4.59375 z" />
    <path
       sodipodi:type="inkscape:offset"
       inkscape:radius="-2.5971761"
       inkscape:original="M 372.59375 548.375 C 371.19409 548.3415 369.7816 548.61906 368.4375 549 C 368.69467 549.27853 368.97058 549.56433 369.21875 549.8125 C 369.74728 550.34103 370.46115 550.95609 370.84375 551.59375 C 373.75133 556.43972 374.38599 561.99575 370.84375 566.71875 C 370.20465 567.57088 369.2868 568.05695 368.59375 568.75 C 368.16883 569.17492 367.60729 569.67517 367.0625 570.03125 C 370.31858 571.27444 374.11356 571.21909 377.40625 570.125 C 379.60378 569.49504 381.52689 568.00199 382.4375 565.875 C 383.69568 563.22983 384.49887 560.18874 384.09375 557.25 C 383.57651 554.10314 381.25667 551.6587 378.90625 549.6875 C 377.31084 549.25024 375.60187 549.36717 374.125 548.5625 C 373.61477 548.4666 373.11008 548.38738 372.59375 548.375 z "
       style="fill:#ffffff;stroke:#ffffff;stroke-width:1px;stroke-linecap:butt;stroke-linejoin:miter;stroke-opacity:0;fill-opacity:1"
       id="path4208"
       d="m 373.4375,551.09375 c 2.86968,5.30119 3.466,11.78393 -0.5,17.125 1.2383,-0.0621 2.50736,-0.18075 3.65625,-0.5625 a 2.5974358,2.5974358 0 0 1 0.0937,-0.0312 c 1.53841,-0.44101 2.81201,-1.46623 3.375,-2.78125 a 2.5974358,2.5974358 0 0 1 0.0312,-0.0937 c 1.10096,-2.31464 1.72721,-4.86887 1.4375,-7.09375 -0.32554,-1.98055 -1.90725,-3.83529 -3.875,-5.5625 -0.94673,-0.14315 -2.33832,-0.30515 -4,-1 l 0,0.0312 c -0.0895,-0.0168 -0.13646,-0.0172 -0.21875,-0.0312 z" />
  </g>
</svg>
