<?xml version="1.0" encoding="UTF-8" standalone="no"?>
<!-- Created with Inkscape (http://www.inkscape.org/) -->
<svg
   xmlns:dc="http://purl.org/dc/elements/1.1/"
   xmlns:cc="http://creativecommons.org/ns#"
   xmlns:rdf="http://www.w3.org/1999/02/22-rdf-syntax-ns#"
   xmlns:svg="http://www.w3.org/2000/svg"
   xmlns="http://www.w3.org/2000/svg"
   xmlns:xlink="http://www.w3.org/1999/xlink"
   xmlns:sodipodi="http://sodipodi.sourceforge.net/DTD/sodipodi-0.dtd"
   xmlns:inkscape="http://www.inkscape.org/namespaces/inkscape"
   width="744.09448819"
   height="1052.3622047"
   id="svg2"
   sodipodi:version="0.32"
   inkscape:version="0.46"
   sodipodi:docname="cups.svg"
   inkscape:output_extension="org.inkscape.output.svg.inkscape"
   inkscape:export-filename="/home/substack/projects/dnode-slides/images/cups.png"
   inkscape:export-xdpi="200.07001"
   inkscape:export-ydpi="200.07001">
  <defs
     id="defs4">
    <linearGradient
       id="linearGradient3200">
      <stop
         style="stop-color:#d2d2d2;stop-opacity:1;"
         offset="0"
         id="stop3202" />
      <stop
         style="stop-color:#ffffff;stop-opacity:1;"
         offset="1"
         id="stop3204" />
    </linearGradient>
    <inkscape:perspective
       sodipodi:type="inkscape:persp3d"
       inkscape:vp_x="0 : 526.18109 : 1"
       inkscape:vp_y="0 : 1000 : 0"
       inkscape:vp_z="744.09448 : 526.18109 : 1"
       inkscape:persp3d-origin="372.04724 : 350.78739 : 1"
       id="perspective10" />
    <inkscape:perspective
       id="perspective2390"
       inkscape:persp3d-origin="372.04724 : 350.78739 : 1"
       inkscape:vp_z="744.09448 : 526.18109 : 1"
       inkscape:vp_y="0 : 1000 : 0"
       inkscape:vp_x="0 : 526.18109 : 1"
       sodipodi:type="inkscape:persp3d" />
    <radialGradient
       inkscape:collect="always"
       xlink:href="#linearGradient3200"
       id="radialGradient3208"
       cx="198.87479"
       cy="225.06894"
       fx="198.87479"
       fy="225.06894"
       r="53.067015"
       gradientTransform="matrix(-1.3332373,0.6870341,-0.8386054,-1.6273718,685.30227,352.80511)"
       gradientUnits="userSpaceOnUse" />
    <radialGradient
       inkscape:collect="always"
       xlink:href="#linearGradient3200"
       id="radialGradient3216"
       cx="313.34305"
       cy="255.2377"
       fx="313.34305"
       fy="255.2377"
       r="16.783007"
       gradientTransform="matrix(-1.8598823,-6.4696862e-2,0.13519,-3.8863948,906.3841,1118.2168)"
       gradientUnits="userSpaceOnUse" />
  </defs>
  <sodipodi:namedview
     id="base"
     pagecolor="#ffffff"
     bordercolor="#666666"
     borderopacity="1.0"
     gridtolerance="10000"
     guidetolerance="10"
     objecttolerance="10"
     inkscape:pageopacity="0.0"
     inkscape:pageshadow="2"
     inkscape:zoom="0.70710678"
     inkscape:cx="337.78566"
     inkscape:cy="795.65281"
     inkscape:document-units="px"
     inkscape:current-layer="layer1"
     showgrid="false"
     inkscape:window-width="1438"
     inkscape:window-height="898"
     inkscape:window-x="0"
     inkscape:window-y="0" />
  <metadata
     id="metadata7">
    <rdf:RDF>
      <cc:Work
         rdf:about="">
        <dc:format>image/svg+xml</dc:format>
        <dc:type
           rdf:resource="http://purl.org/dc/dcmitype/StillImage" />
      </cc:Work>
    </rdf:RDF>
  </metadata>
  <g
     inkscape:label="Layer 1"
     inkscape:groupmode="layer"
     id="layer1">
    <path
       style="opacity:1;fill:none;fill-opacity:1;fill-rule:evenodd;stroke:#000000;stroke-width:2;stroke-linecap:round;stroke-linejoin:round;marker:none;marker-start:none;marker-mid:none;marker-end:none;stroke-miterlimit:4;stroke-dasharray:none;stroke-dashoffset:0;stroke-opacity:1;visibility:visible;display:inline;overflow:visible;enable-background:accumulate"
       d="M 447.87006,147.81088 C 452.60255,144.59139 459.58654,145.66912 465.87006,148.81088 C 470.40306,151.07738 472.70785,154.64868 475.87006,157.81088 C 478.50852,160.44934 478.87006,167.25241 478.87006,170.81088 C 478.87006,176.36792 481.63701,181.34479 483.87006,185.81088 C 487.4448,192.96037 496.87251,192.64462 503.87006,193.81088 C 514.10314,195.5164 523.64902,193.81088 533.87006,193.81088 C 542.41775,193.81088 551.89155,192.40658 559.87006,190.81088 C 567.6629,189.25231 571.93672,184.26088 577.87006,179.81088 C 584.83959,174.58373 587.87006,168.12812 587.87006,159.81088 C 587.87006,151.47224 580.0873,140.4195 572.87006,136.81088 C 563.5242,132.13795 555.99294,127.3416 545.87006,124.81088 C 536.59635,122.49246 528.26986,121.37752 518.87006,119.81088 C 508.10788,118.01719 497.49325,121.81088 486.87006,121.81088 C 474.28178,121.81088 461.65889,123.81088 448.87006,123.81088 C 439.60151,123.81088 429.75985,124.58884 420.87006,122.81088 C 413.20512,121.27789 408.82246,120.78708 402.87006,117.81088 C 398.61934,115.68552 400.90815,109.73471 401.87006,107.81088 C 404.35723,102.83654 418.03743,99.019041 422.87006,97.810881 C 424.20339,97.477551 425.53673,97.144221 426.87006,96.810881 C 438.41821,93.923841 450.3511,92.114671 461.87006,89.810881 C 474.22828,87.339241 485.26516,84.679181 496.87006,80.810881 C 504.16559,78.379041 512.98684,76.278001 510.87006,67.810881 C 508.70447,59.148541 472.31857,61.810881 466.87006,61.810881 C 446.32232,61.810881 425.67819,63.849261 405.87006,67.810881 C 392.80798,70.423301 377.63988,69.925971 365.87006,75.810881 C 364.92025,76.285791 394.13223,82.126421 396.87006,82.810881 C 420.18597,88.639861 444.37978,88.099371 467.87006,94.810881 C 477.33377,97.514801 485.13759,99.148551 486.87006,107.81088 C 488.87999,117.86055 463.03921,116.81088 458.87006,116.81088 C 439.37953,116.81088 419.08873,120.55641 399.87006,117.81088 C 386.15859,115.8521 369.50803,116.81088 355.87006,116.81088 C 340.05403,116.81088 324.66627,111.81088 308.87006,111.81088 C 303.55493,111.81088 296.04328,111.10419 290.87006,109.81088 C 284.63468,108.25204 292.05282,98.233871 293.87006,95.810881 C 299.18987,88.717811 307.78012,84.128341 314.87006,78.810881 C 321.83628,73.586221 325.86395,70.835331 327.87006,62.810881 C 329.69438,55.513611 316.19153,57.730511 311.87006,58.810881 C 302.78019,61.083351 293.20846,64.475521 284.87006,67.810881 C 280.33299,69.625711 275.97504,73.258391 272.87006,74.810881 C 269.65858,76.416621 266.54271,78.974561 262.87006,80.810881 C 261.64079,81.425521 260.20339,81.477551 258.87006,81.810881"
       id="path3230" />
    <path
       style="opacity:1;fill:#f32a2a;fill-opacity:1;fill-rule:evenodd;stroke:#000000;stroke-width:2;stroke-linecap:round;stroke-linejoin:round;marker:none;marker-start:none;marker-mid:none;marker-end:none;stroke-miterlimit:4;stroke-dasharray:none;stroke-dashoffset:0;stroke-opacity:1;visibility:visible;display:inline;overflow:visible;enable-background:accumulate"
       d="M 155.87006,139.5966 C 155.14274,137.78153 158.30206,133.30402 160.15577,129.5966 C 161.78396,126.34023 163.17439,123.72084 165.15577,121.73945 C 167.98337,118.91185 169.4951,115.97156 173.01292,112.45374 C 176.45095,109.0157 180.13049,106.05046 183.01292,103.16802 C 185.6383,100.54264 188.85274,98.819541 191.58435,97.453741 C 194.81274,95.839541 197.87549,93.593881 200.15577,92.453741 C 203.67507,90.694091 207.65876,87.897931 210.15577,86.025171 C 212.12648,84.547141 216.3121,82.589861 218.01292,81.739451 C 221.02503,80.233401 223.63646,79.641971 226.58435,78.168021 C 229.91046,76.504971 232.18474,76.232211 235.87006,75.310881 C 239.40603,74.426891 242.37025,73.882311 245.87006,73.882311 C 248.65839,73.882311 252.93055,75.468861 255.15577,76.025171 C 258.34896,76.823461 260.39514,78.644851 263.7272,80.310881 C 265.36824,81.131401 268.24072,84.110121 269.44149,85.310881 C 269.60985,85.479241 269.44149,85.787071 269.44149,86.025171 C 269.44149,87.912741 272.90155,91.516721 273.7272,93.168021 C 275.16964,96.052911 275.15577,98.940311 275.15577,102.45374 C 275.15577,105.081 273.77004,109.42523 273.01292,112.45374 C 272.28172,115.37854 271.70392,118.40401 270.87006,121.73945 C 270.04283,125.04838 268.85501,128.37109 268.01292,131.73945 C 267.07393,135.4954 264.70959,137.80992 263.7272,141.73945 C 262.95396,144.83241 260.78767,148.49757 260.15577,151.02517 C 259.52262,153.5578 258.35659,156.05212 257.29863,158.16802 C 255.8483,161.0687 256.10623,164.83854 254.44149,168.16802 C 253.02884,170.99333 252.2634,175.4518 251.58435,178.16802 C 250.7528,181.4942 249.46559,183.7859 248.7272,186.73945 C 248.15454,189.03011 245.71801,191.8915 244.44149,193.16802 C 242.18476,195.42476 240.69043,198.34765 238.7272,200.31088 C 237.23704,201.80104 233.73278,202.45374 230.87006,202.45374 C 226.22673,202.45374 221.49248,204.97671 217.29863,206.02517 C 214.15354,206.81144 210.56434,207.45374 207.29863,207.45374 C 204.7093,207.45374 200.97205,206.76495 198.01292,206.02517 C 195.57326,205.41525 193.16495,203.92032 190.15577,203.16802 C 186.21842,202.18369 183.86619,201.23849 180.15577,200.31088 C 177.06671,199.53861 175.10549,197.44117 172.29863,196.73945 C 171.07287,196.43301 167.07279,192.2279 165.87006,191.02517 C 163.27935,188.43446 161.67499,186.20646 160.15577,183.16802 C 158.65867,180.17381 157.34375,178.25827 155.87006,175.31088 C 155.76358,175.09792 155.87006,174.83469 155.87006,174.5966 C 155.87006,171.95529 152.89276,168.40169 152.29863,166.02517 C 151.50052,162.83274 150.86797,159.58822 150.15577,156.73945 C 149.21693,152.98408 150.88012,150.27063 151.58435,147.45374 C 152.28369,144.65635 154.37464,143.33515 155.87006,139.5966 z"
       id="path2412" />
    <path
       style="opacity:1;fill:#f32a2a;fill-opacity:1;fill-rule:evenodd;stroke:#000000;stroke-width:2;stroke-linecap:round;stroke-linejoin:round;marker:none;marker-start:none;marker-mid:none;marker-end:none;stroke-miterlimit:4;stroke-dasharray:none;stroke-dashoffset:0;stroke-opacity:1;visibility:visible;display:inline;overflow:visible;enable-background:accumulate"
       d="M 338.10002,181.55378 C 339.85072,180.42262 345.47365,178.97839 349.91298,179.59896 C 355.93635,180.44097 362.11568,178.41986 367.99371,179.24155 C 373.64194,180.03112 382.57978,179.08206 388.29556,178.4734 C 393.19154,177.95204 400.02987,178.67128 404.76371,179.33303 C 408.63596,179.87433 414.027,179.91304 417.69482,179.69821 C 421.49658,179.47553 424.96895,180.14314 428.50371,179.76672 C 432.25741,179.367 434.89939,179.97284 437.99667,178.93006 C 441.21852,177.84533 443.43519,175.53289 445.35222,172.74598 C 447.93903,168.98536 449.09971,166.57552 449.76407,161.82302 C 450.44613,156.94384 452.52269,152.40779 453.25554,147.16524 C 453.86785,142.7851 453.97141,137.82553 453.71962,133.52672 C 453.48523,129.52508 452.99618,127.37344 452.07665,124.64228 C 451.10938,121.76929 449.37006,119.37914 448.0148,117.58339 C 445.71488,114.53597 443.58732,113.55306 440.11924,112.15229 C 436.87119,110.84038 433.41141,108.50876 430.00257,107.13192 C 426.18434,105.58971 421.94145,104.61084 418.27332,103.32859 C 414.34975,101.95706 410.16051,100.98597 406.54406,99.525261 C 402.39447,97.849221 398.23476,97.290111 394.1074,95.623051 C 390.5979,94.205541 386.45866,94.028381 382.98666,92.626001 C 379.39298,91.174501 376.64489,90.297031 372.57332,89.727861 C 369.03629,89.233421 365.49925,88.738971 361.96221,88.244531 C 359.39364,87.885471 355.82939,86.701641 352.9637,85.544161 C 348.94795,83.922181 347.18953,86.047391 345.29629,88.799731 C 343.24585,91.780581 342.59142,94.986551 340.37481,98.208981 C 338.74473,100.57873 337.89371,105.63894 337.47666,108.62231 C 336.86839,112.97368 335.27031,115.93518 333.77223,119.64416 C 332.07681,123.84173 331.75134,128.94137 331.08704,133.69342 C 330.44711,138.27123 330.1657,143.03779 330.62297,147.33194 C 331.04668,151.31083 332.17668,154.95014 333.38409,158.53638 C 334.5708,162.06116 334.35551,166.02266 334.73039,169.54305 C 335.07785,172.80596 334.65618,175.23324 334.15224,178.83823 C 333.93112,180.42004 336.8574,180.55034 338.10002,181.55378 z"
       id="path2428" />
    <path
       sodipodi:type="arc"
       style="opacity:1;fill:#ffed6f;fill-opacity:1;fill-rule:evenodd;stroke:none;stroke-width:2;stroke-linecap:round;stroke-linejoin:round;marker:none;marker-start:none;marker-mid:none;marker-end:none;stroke-miterlimit:4;stroke-dasharray:none;stroke-dashoffset:0;stroke-opacity:1;visibility:visible;display:inline;overflow:visible;enable-background:accumulate"
       id="path2396"
       sodipodi:cx="227.14285"
       sodipodi:cy="254.1479"
       sodipodi:rx="65"
       sodipodi:ry="37.5"
       d="M 292.14285,254.1479 A 65,37.5 0 1 1 292.14285,254.1479 A 65,37.5 0 1 1 292.14285,254.1479 z" />
    <path
       style="opacity:1;fill:#f32a2a;fill-opacity:1;fill-rule:evenodd;stroke:#000000;stroke-width:1.85679054;stroke-linecap:round;stroke-linejoin:round;marker:none;marker-start:none;marker-mid:none;marker-end:none;stroke-miterlimit:4;stroke-dasharray:none;stroke-dashoffset:0;stroke-opacity:1;visibility:visible;display:inline;overflow:visible;enable-background:accumulate"
       d="M 217.03795,82.365131 C 216.39552,80.662441 217.45473,79.726941 219.40546,78.789531 C 220.40972,78.306941 222.99277,78.789531 224.14048,78.789531 C 226.07191,78.789531 226.94374,79.056751 228.53729,79.439641 C 230.01327,79.794281 231.26423,80.338621 232.93411,80.739861 C 234.18881,81.041311 235.84548,81.439371 236.9927,81.715011 C 238.73886,82.134571 239.86827,82.609261 241.3895,83.340291 C 243.22262,84.221181 244.37674,84.775781 246.12454,85.615661 C 247.56849,86.309541 248.45152,87.852101 249.16848,88.541141 C 250.32601,89.653641 251.18563,90.154751 252.21242,91.141581 C 253.37943,92.263171 254.85498,92.706151 255.93279,93.742021 C 257.10936,94.872781 258.15146,95.549281 258.97675,96.342441 C 260.15754,97.477291 261.61794,98.230761 262.69712,99.267931 C 263.78584,100.31429 264.69549,101.51359 265.74107,102.51848 C 266.97981,103.70901 267.89818,105.36458 268.44679,106.41913 C 269.25793,107.97826 270.17817,108.77195 270.81431,109.99471 C 271.55472,111.4179 272.18536,112.34001 272.50539,113.5703 C 272.884,115.02581 273.26069,116.47392 273.52004,117.47096 C 273.96299,119.1738 273.12334,120.57974 272.50539,121.3716 C 272.39224,121.51661 271.42832,122.08171 271.15253,122.34677"
       id="path3226" />
    <path
       style="opacity:1;fill:#f32a2a;fill-opacity:1;fill-rule:evenodd;stroke:#000000;stroke-width:2.09361792;stroke-linecap:round;stroke-linejoin:round;marker:none;marker-start:none;marker-mid:none;marker-end:none;stroke-miterlimit:4;stroke-dasharray:none;stroke-dashoffset:0;stroke-opacity:1;visibility:visible;display:inline;overflow:visible;enable-background:accumulate"
       d="M 193.41724,96.162571 C 193.22301,93.173571 194.30611,92.848241 196.32267,92.314011 C 197.88095,91.901181 199.63952,91.929151 201.40718,91.929151 C 203.10202,91.929151 204.79684,91.929151 206.49168,91.929151 C 208.40372,91.929151 209.61201,92.314011 211.21301,92.314011 C 212.79953,92.314011 215.086,93.051401 216.6607,93.468581 C 218.19635,93.875401 219.61914,94.156121 221.38203,94.623141 C 223.12914,95.085991 224.5743,96.506971 226.10335,97.317131 C 226.21163,97.374501 226.34547,97.317131 226.46654,97.317131 C 227.96706,97.317131 230.61131,99.705641 231.91422,100.39598 C 233.59118,101.2845 234.83438,101.56615 236.27236,103.08997 C 237.55431,104.44843 239.61037,105.47263 240.9937,106.93853 C 242.18216,108.19793 243.94593,109.68211 244.98866,110.78708 C 246.67071,112.56953 247.57323,114.29561 249.34682,116.17506 C 250.88138,117.80122 251.33163,118.6632 252.61542,120.02362 C 253.99523,121.48578 255.04371,123.00427 255.52085,125.02675 C 255.79472,126.18753 257.08535,127.57276 257.69993,128.87531 C 258.54863,130.67401 259.56888,131.68173 260.24219,133.10872 C 261.22421,135.19 261.61101,136.21682 262.05809,138.11185 C 262.48315,139.91361 262.37782,141.77625 262.78444,143.49983 C 263.203,145.27398 262.78444,147.80805 262.78444,149.65751 C 262.78444,150.95815 260.80557,152.13936 260.24219,152.73637 C 259.88924,153.11038 259.27371,152.99293 258.78947,153.12122"
       id="path3224" />
    <path
       style="opacity:1;fill:url(#radialGradient3208);fill-opacity:1;fill-rule:evenodd;stroke:#000000;stroke-width:2;stroke-linecap:round;stroke-linejoin:round;marker:none;marker-start:none;marker-mid:none;marker-end:none;stroke-miterlimit:4;stroke-dasharray:none;stroke-dashoffset:0;stroke-opacity:1;visibility:visible;display:inline;overflow:visible;enable-background:accumulate"
       d="M 191.58435,101.73945 C 187.77937,101.18003 181.92249,102.55728 177.29863,106.02517 C 176.34625,106.73945 175.39387,107.45374 174.44149,108.16802 C 168.25198,112.81015 165.39755,118.24125 161.58435,124.5966 C 158.01658,130.54287 156.1488,137.61054 153.01292,143.88231 C 150.51942,148.86931 150.20603,156.22619 151.58435,161.73945 C 153.65779,170.03321 155.53974,176.77522 160.87006,183.88231 C 166.19162,190.97772 169.97365,195.57696 178.01292,199.5966 C 184.32166,202.75097 190.70816,203.99279 197.29863,205.31088 C 201.80091,206.21134 205.32865,206.73945 210.15577,206.73945 C 215.87608,206.73945 221.19685,205.22918 226.58435,203.88231 C 231.68152,202.60802 237.45335,199.8377 241.58435,196.73945 C 245.45406,193.83716 246.71695,190.75996 248.7272,186.73945 C 251.50412,181.18562 253.23093,178.50654 254.44149,172.45374 C 255.48787,167.22181 254.44149,160.66857 254.44149,155.31088 C 254.44149,151.20164 251.78662,145.00115 250.15577,141.73945 C 248.27036,137.96863 246.26427,134.67074 244.44149,131.02517 C 242.47086,127.08392 238.6069,123.762 235.87006,121.02517 C 233.03382,118.18892 229.93722,115.09233 227.29863,112.45374 C 224.48749,109.6426 220.17927,108.90581 218.01292,106.73945 C 216.66495,105.39148 210.91923,103.90689 209.44149,103.16802 C 206.4477,101.67113 203.49212,101.02517 200.15577,101.02517 C 197.1799,101.02517 194.94786,101.73945 191.58435,101.73945 z"
       id="path2404" />
    <path
       style="opacity:1;fill:url(#radialGradient3216);fill-opacity:1;fill-rule:evenodd;stroke:#000000;stroke-width:2;stroke-linecap:round;stroke-linejoin:round;marker:none;marker-start:none;marker-mid:none;marker-end:none;stroke-miterlimit:4;stroke-dasharray:none;stroke-dashoffset:0;stroke-opacity:1;visibility:visible;display:inline;overflow:visible;enable-background:accumulate"
       d="M 342.76333,86.281951 C 341.6553,87.329111 340.54728,88.376271 339.43926,89.423431 C 334.11131,94.458701 331.41421,110.71551 330.43297,117.7349 C 329.06778,127.50089 328.4547,137.04594 327.08593,146.8375 C 326.2876,152.54841 326.99115,159.0357 327.54224,164.21082 C 327.98587,168.37681 327.68156,172.63364 328.78965,175.92489 C 330.14766,179.95845 332.41014,181.47962 336.58632,182.06341 C 338.53058,182.3352 343.51495,177.62727 344.64927,175.97823 C 347.40086,171.97807 350.17059,168.78449 352.08853,164.036 C 352.26687,163.59447 352.22038,163.09279 352.28631,162.62119 C 352.85086,158.58262 355.56275,152.19641 357.1926,148.16119 C 359.22537,143.1284 359.49715,136.83479 360.27334,131.28231 C 360.91053,126.72413 360.70989,120.65752 360.22777,116.13009 C 359.69826,111.15746 359.18928,106.37792 358.66851,101.48749 C 358.2606,97.656911 358.53738,94.090131 357.32221,90.480831 C 356.03761,86.665271 354.9947,85.243481 351.74666,83.931571 C 348.02699,82.429181 345.6326,84.697231 342.76333,86.281951 z"
       id="path2416" />
    <path
       style="opacity:1;fill:#f32a2a;fill-opacity:1;fill-rule:evenodd;stroke:#000000;stroke-width:1.92878044;stroke-linecap:round;stroke-linejoin:round;marker:none;marker-start:none;marker-mid:none;marker-end:none;stroke-miterlimit:4;stroke-dasharray:none;stroke-dashoffset:0;stroke-opacity:1;visibility:visible;display:inline;overflow:visible;enable-background:accumulate"
       d="M 408.62594,180.34843 C 411.03238,184.86054 414.22668,179.17283 415.19192,177.30836 C 416.39271,174.98899 418.61806,172.45736 418.63478,170.59209 C 418.65294,168.56633 420.31786,164.1287 420.97666,162.33189 C 421.96061,159.64828 422.37921,155.97933 423.13351,153.92206 C 424.09183,151.30835 423.67923,147.49496 423.91543,144.71328 C 424.17165,141.69555 425.1913,138.18266 425.46855,134.91731 C 425.72918,131.84772 425.98981,128.77813 426.25044,125.70854 C 426.5297,122.41969 426.80893,119.13084 427.08819,115.84199 C 427.29661,113.38723 426.20463,109.06136 425.72387,106.42146 C 424.82477,101.48445 422.87973,102.34557 420.54983,104.11941"
       id="path3222"
       sodipodi:nodetypes="cssssssssss" />
    <path
       style="opacity:1;fill:#f32a2a;fill-opacity:1;fill-rule:evenodd;stroke:#000000;stroke-width:2;stroke-linecap:round;stroke-linejoin:round;marker:none;marker-start:none;marker-mid:none;marker-end:none;stroke-miterlimit:4;stroke-dasharray:none;stroke-dashoffset:0;stroke-opacity:1;visibility:visible;display:inline;overflow:visible;enable-background:accumulate"
       d="M 377.58123,179.14164 C 378.49162,179.90872 379.40201,180.67582 380.3124,181.44289 C 382.93409,183.65193 385.00118,177.11511 385.62808,176.02104 C 387.08096,173.48544 387.5113,169.96865 388.25306,167.58476 C 389.15196,164.69585 390.1023,161.64156 390.87803,159.14849 C 391.84625,156.03678 391.96901,152.52988 392.15765,149.20502 C 392.30708,146.57153 394.03334,142.01063 394.86357,139.34246 C 395.82283,136.25955 395.42648,131.70238 396.14318,129.39897 C 397.09707,126.33333 396.56718,121.92632 396.75013,118.70189 C 396.93896,115.37392 397.12779,112.04593 397.31663,108.71796 C 397.52119,105.11245 396.33197,103.5507 395.66277,100.0389 C 395.18349,97.523691 393.1013,94.135401 391.78858,92.664741 C 390.83726,91.598981 388.72804,93.912611 387.32474,94.180021"
       id="path3218"
       sodipodi:nodetypes="csssssssssssc" />
    <path
       style="opacity:1;fill:#fb4a4a;fill-opacity:1;fill-rule:evenodd;stroke:none;stroke-width:2;stroke-linecap:round;stroke-linejoin:round;marker:none;marker-start:none;marker-mid:none;marker-end:none;stroke-miterlimit:4;stroke-dasharray:none;stroke-dashoffset:0;stroke-opacity:1;visibility:visible;display:inline;overflow:visible;enable-background:accumulate"
       d="M 359.5638,90.343401 C 359.5638,90.932661 359.5638,91.521921 359.5638,92.111171 C 359.5638,93.222941 360.71858,94.962531 360.97801,96.000261 C 361.34827,97.481281 361.33156,99.182191 361.68512,100.95001 C 362.04242,102.73648 362.31154,104.51633 362.74578,106.25331 C 363.15742,107.89987 362.39223,109.53958 362.39223,111.20305 C 362.39223,112.92402 362.04391,114.05244 362.39223,115.4457 C 362.74578,116.85991 365.33103,115.85444 366.63487,116.50636 C 367.82705,117.10245 369.11222,117.39148 370.1704,117.92057 C 371.30412,118.48743 373.26546,118.60595 374.7666,118.98123 C 376.32809,119.3716 378.18023,119.74625 379.36279,120.04189 C 380.94569,120.43761 382.56824,120.4897 383.60543,120.749 C 385.35455,121.18628 386.34739,121.4561 388.20163,121.4561 C 389.69654,121.4561 391.45602,121.80966 393.15137,121.80966 C 395.01388,121.80966 394.91914,120.44948 394.91914,118.62768 C 394.91914,116.97776 394.91914,115.32784 394.91914,113.67793 C 394.91914,111.89585 395.22929,110.32235 394.91914,109.08173 C 394.49897,107.40105 394.2618,105.74527 393.85848,104.13199 C 393.39676,102.28513 392.81434,101.01609 392.44427,99.535791 C 392.03536,97.900171 391.03238,96.592621 390.32295,95.646711 C 390.25588,95.557291 386.93514,97.340611 386.78741,97.414471 C 386.50583,97.555261 383.82277,95.877821 382.89832,95.646711 C 381.31115,95.249911 380.41264,94.318181 378.65568,93.878941 C 377.12652,93.496651 375.78064,92.895011 374.05949,92.464731 C 372.35418,92.038401 370.72687,92.035851 369.4633,91.404061 C 368.1678,90.756321 366.99198,90.698741 365.57421,89.989851 C 363.70854,89.057021 361.3889,88.974581 359.5638,90.343401"
       id="path3246" />
    <path
       style="opacity:1;fill:#fb4a4a;fill-opacity:1;fill-rule:evenodd;stroke:none;stroke-width:2;stroke-linecap:round;stroke-linejoin:round;marker:none;marker-start:none;marker-mid:none;marker-end:none;stroke-miterlimit:4;stroke-dasharray:none;stroke-dashoffset:0;stroke-opacity:1;visibility:visible;display:inline;overflow:visible;enable-background:accumulate"
       d="M 397.39401,98.828691 C 396.74285,99.317061 398.29374,103.84181 398.45467,104.48554 C 398.88968,106.22557 399.16178,108.00323 399.16178,109.78884 C 399.16178,111.35411 398.7511,112.84578 398.45467,114.03148 C 398.09377,115.47509 398.45467,117.48607 398.45467,118.98123 C 398.45467,121.0902 398.52104,121.73786 400.22244,122.16321 C 401.80198,122.55809 403.55212,122.81885 405.17219,123.22387 C 406.99567,123.67974 408.54292,124.24333 410.12194,124.63808 C 411.74377,125.04354 413.35994,125.62436 415.07168,126.0523 C 416.52859,126.41653 418.49145,127.1724 419.66788,127.46651 C 421.41649,127.90366 421.60485,127.82006 423.55696,127.82006 C 424.96361,127.82006 425.38524,125.10317 425.67828,123.93098 C 426.09151,122.27809 426.03184,120.35008 426.03184,118.62768 C 426.03184,116.78038 426.09584,114.99458 425.67828,113.32438 C 425.25759,111.64159 425.37174,109.97686 424.97118,108.37463 C 424.45214,106.29847 424.1067,106.09594 422.84986,104.83909 C 422.0559,104.04513 420.23624,105.68495 419.66788,106.25331 C 419.32742,106.59376 416.03414,104.99132 415.42524,104.83909 C 413.54249,104.36841 412.04816,103.81805 410.47549,103.42488 C 409.36778,103.14795 407.41848,101.7196 406.5864,101.30356 C 405.07864,100.54968 403.76829,100.33903 402.69731,99.535791 C 401.67942,98.772371 395.49368,98.448621 399.16178,99.182241"
       id="path3248" />
    <path
       style="opacity:1;fill:#fb4a4a;fill-opacity:1;fill-rule:evenodd;stroke:none;stroke-width:2;stroke-linecap:round;stroke-linejoin:round;marker:none;marker-start:none;marker-mid:none;marker-end:none;stroke-miterlimit:4;stroke-dasharray:none;stroke-dashoffset:0;stroke-opacity:1;visibility:visible;display:inline;overflow:visible;enable-background:accumulate"
       d="M 428.15316,108.02107 C 428.07062,107.95917 428.86027,112.44046 428.86027,115.4457 C 428.86027,117.06773 429.21382,118.99386 429.21382,120.749 C 429.21382,122.26429 428.56665,123.33768 428.15316,124.99164 C 427.67362,126.90981 427.01631,127.31413 427.79961,128.88072 C 427.96325,129.20801 430.95306,130.1039 431.33514,130.29494 C 433.07522,131.16498 434.19643,131.54881 435.93133,132.41626 C 437.53247,133.21683 438.78668,134.02071 440.52753,134.89113 C 442.06385,135.65929 444.15336,135.88598 445.83083,136.30535 C 447.18099,136.64289 448.72639,137.02588 450.42702,137.36601 C 451.49137,137.57887 452.04039,134.44808 452.19479,133.83047 C 452.52212,132.52115 451.48768,130.39555 451.48768,128.88072 C 451.48768,126.86156 450.86977,125.87712 450.07347,124.28453 C 449.39475,122.92709 448.76221,121.66201 447.95215,120.04189 C 447.40943,118.95645 445.83351,117.5697 445.12372,116.85991 C 443.81232,115.54851 442.6428,115.26589 440.88108,114.38504 C 439.20528,113.54714 437.89528,112.66631 436.28489,112.26371 C 435.39569,112.04142 434.06646,110.97773 433.10291,110.49595 C 430.99081,109.4399 430.63156,109.01243 428.15316,108.02107 z"
       id="path3250" />
    <path
       style="opacity:1;fill:#df1e1e;fill-opacity:1;fill-rule:evenodd;stroke:none;stroke-width:2;stroke-linecap:round;stroke-linejoin:round;marker:none;marker-start:none;marker-mid:none;marker-end:none;stroke-miterlimit:4;stroke-dasharray:none;stroke-dashoffset:0;stroke-opacity:1;visibility:visible;display:inline;overflow:visible;enable-background:accumulate"
       d="M 344.36101,178.73175 C 344.95026,178.26035 345.53952,177.78894 346.12877,177.31754 C 346.95964,176.65284 347.78864,175.22223 348.60365,174.13556 C 349.55773,172.86344 350.06336,171.56968 350.72497,170.24647 C 351.55925,168.5779 351.99347,168.06302 352.84629,166.35738 C 353.42301,165.20393 354.22469,163.31865 354.61405,161.76119 C 355.00339,160.20383 355.70043,158.47636 356.02827,157.165 C 356.37058,155.79574 356.75775,154.6006 357.08893,153.27591 C 357.46161,151.7852 359.60365,155.0636 360.97801,155.75078 C 361.08342,155.80349 361.21372,155.75078 361.33157,155.75078 C 362.81051,155.75078 364.4944,156.81144 366.28132,156.81144 C 367.88788,156.81144 369.28639,157.165 371.23106,157.165 C 372.58339,157.165 374.06905,157.51855 375.82726,157.51855 C 377.78833,157.51855 379.15373,157.8721 380.777,157.8721 C 382.58745,157.8721 383.99047,158.22566 385.72675,158.22566 C 388.24575,158.22566 388.29127,158.92775 387.84807,160.70053 C 387.3983,162.49962 386.60898,163.53227 385.72675,165.29672 C 385.01262,166.72498 384.86095,168.08899 384.31254,169.18581 C 383.68983,170.43122 383.67341,171.74234 383.25188,173.42845 C 382.98486,174.49651 382.453,176.2704 382.19122,177.31754 C 381.52431,179.98516 380.41659,179.90111 379.00924,178.02465 C 377.54603,176.0737 377.23216,176.08476 375.4737,176.96399 C 374.20354,177.59907 372.89301,177.96271 371.23106,178.3782 C 369.42221,178.83041 368.07132,178.03021 366.63487,177.67109 C 365.19126,177.31019 363.18028,177.67109 361.68512,177.67109 C 359.91735,177.67109 358.14959,177.67109 356.38182,177.67109 C 354.55402,177.67109 352.69839,177.61968 351.07852,178.02465 C 349.46479,178.42808 347.70882,178.06219 346.12877,178.3782 C 345.53952,178.49605 344.95026,178.6139 344.36101,178.73175 z"
       id="path3252" />
    <path
       style="opacity:1;fill:#df1e1e;fill-opacity:1;fill-rule:evenodd;stroke:none;stroke-width:2;stroke-linecap:round;stroke-linejoin:round;marker:none;marker-start:none;marker-mid:none;marker-end:none;stroke-miterlimit:4;stroke-dasharray:none;stroke-dashoffset:0;stroke-opacity:1;visibility:visible;display:inline;overflow:visible;enable-background:accumulate"
       d="M 387.14097,177.31754 C 385.05763,177.73421 388.84562,173.39046 389.26229,171.30713 C 389.54691,169.88401 389.90784,168.7249 390.32295,167.06449 C 390.71047,165.51439 391.28472,164.63162 391.73716,162.82185 C 392.29386,160.59503 392.84669,161.45651 394.21203,162.82185 C 394.8977,163.50752 397.75878,164.06209 398.45467,164.23606 C 399.97166,164.61531 401.68361,164.58962 403.40442,164.58962 C 405.17219,164.58962 406.93996,164.58962 408.70772,164.58962 C 410.53811,164.58962 412.08847,164.94317 414.01102,164.94317 C 416.0496,164.94317 417.45131,164.81401 418.60722,164.23606 C 419.92799,163.57568 416.84404,166.69257 416.4859,168.12515 C 416.04865,169.87416 415.51239,171.48637 414.71813,173.0749 C 414.05802,174.39512 413.30392,175.11736 413.30392,176.96399 C 413.30392,178.78049 412.31769,179.71798 411.53615,180.49952 C 410.1132,181.92247 409.07439,179.4651 408.70772,178.73175 C 407.76221,176.84073 408.31161,176.96399 405.52574,176.96399 C 403.87583,176.96399 402.22591,176.96399 400.57599,176.96399 C 398.64858,176.96399 397.10671,176.61043 395.27269,176.61043 C 393.4254,176.61043 391.6396,176.54643 389.96939,176.96399 C 389.15645,177.16722 387.89626,177.16648 387.14097,177.31754 z"
       id="path3254" />
    <path
       style="opacity:1;fill:#df1e1e;fill-opacity:1;fill-rule:evenodd;stroke:none;stroke-width:2;stroke-linecap:round;stroke-linejoin:round;marker:none;marker-start:none;marker-mid:none;marker-end:none;stroke-miterlimit:4;stroke-dasharray:none;stroke-dashoffset:0;stroke-opacity:1;visibility:visible;display:inline;overflow:visible;enable-background:accumulate"
       d="M 421.7892,164.94317 C 419.72804,165.45846 420.61802,169.05329 419.66788,170.95358 C 418.86879,172.55175 418.39027,173.86234 417.54656,175.54977 C 416.44423,177.75443 416.83945,178.41314 416.83945,178.73175 C 416.83945,179.03778 423.38395,178.50984 423.91052,178.3782 C 425.77088,177.91311 427.43181,178.81658 428.50671,179.08531 C 430.13314,179.49191 432.19414,179.00936 433.45646,178.3782 C 434.88726,177.6628 435.78471,177.21408 436.99199,176.61043 C 438.26591,175.97347 439.75201,175.58398 441.23463,174.84267 C 442.00568,174.45714 443.53308,172.54422 444.06306,172.01424 C 444.81364,171.26366 445.23521,169.31639 445.83083,168.12515 C 446.56702,166.65276 446.48206,165.07323 446.18438,163.88251 C 446.06169,163.39175 441.5193,164.1649 441.23463,164.23606 C 439.65403,164.63121 438.01046,164.58962 436.28489,164.58962 C 434.51712,164.58962 432.74935,164.58962 430.98159,164.58962 C 429.21382,164.58962 427.44605,164.58962 425.67828,164.58962 C 424.28876,164.58962 423.19509,164.66199 421.7892,164.94317 z"
       id="path3256" />
    <path
       style="opacity:1;fill:#fb4a4a;fill-opacity:1;fill-rule:evenodd;stroke:none;stroke-width:2;stroke-linecap:round;stroke-linejoin:round;marker:none;marker-start:none;marker-mid:none;marker-end:none;stroke-miterlimit:4;stroke-dasharray:none;stroke-dashoffset:0;stroke-opacity:1;visibility:visible;display:inline;overflow:visible;enable-background:accumulate"
       d="M 251.02291,138.42667 C 250.66936,137.83741 250.3158,137.24815 249.96225,136.6589 C 248.7633,134.66065 247.48212,132.88065 246.07316,131.00204 C 244.67657,129.13992 243.86864,127.38331 242.18408,125.69874 C 241.05394,124.56861 240.30303,122.99732 239.7092,121.80966 C 239.07763,120.54652 237.23238,118.97928 236.52722,118.27412 C 235.04938,116.79628 234.4659,117.45345 234.05235,115.79925 C 233.90366,115.20452 237.28438,113.47613 237.58788,113.32438 C 238.95431,112.64116 240.56507,112.97082 242.18408,112.97082 C 244.39453,112.97082 244.33086,113.7034 245.36606,114.73859 C 246.55946,115.932 247.38476,117.00823 248.19448,118.62768 C 249.01954,120.27779 249.81776,120.81357 250.66936,122.51676 C 251.3727,123.92345 252.35729,125.35659 253.14423,126.40585 C 254.10575,127.68788 254.86624,128.78921 255.6191,130.29494 C 256.13714,131.33101 256.32621,132.60165 256.32621,134.53758 C 256.32621,135.59154 254.70351,137.22094 254.20489,137.71956 C 252.75951,139.16494 253.57621,138.42667 251.02291,138.42667 z"
       id="path3262" />
    <path
       style="opacity:1;fill:#fb4a4a;fill-opacity:1;fill-rule:evenodd;stroke:none;stroke-width:2;stroke-linecap:round;stroke-linejoin:round;marker:none;marker-start:none;marker-mid:none;marker-end:none;stroke-miterlimit:4;stroke-dasharray:none;stroke-dashoffset:0;stroke-opacity:1;visibility:visible;display:inline;overflow:visible;enable-background:accumulate"
       d="M 245.0125,109.08173 C 243.30265,110.79159 248.86494,112.097 250.3158,114.03148 C 251.60135,115.74555 253.19254,117.63143 254.20489,118.98123 C 255.43533,120.62181 255.99298,122.1903 257.03332,123.57742 C 257.88163,124.7085 258.59224,126.34171 259.15464,127.46651 C 259.99565,129.14853 260.57746,129.32482 261.62951,129.58783 C 261.84745,129.64232 263.51332,125.46666 263.75083,124.99164 C 264.65321,123.18689 265.16815,122.157 265.87215,120.749 C 266.67725,119.13879 267.64922,117.90196 268.34703,116.50636 C 268.86875,115.4629 269.76124,114.15791 269.76124,112.26371 C 269.76124,110.92823 268.84424,109.57894 267.99347,108.72818 C 266.9146,107.64931 266.58113,106.60873 265.5186,105.5462 C 264.05649,104.08409 263.61027,103.28432 262.33662,102.01067 C 260.99583,100.66988 259.67103,99.345081 258.09398,97.768031 C 257.0085,96.682551 255.66169,96.198331 254.55844,95.646711 C 253.33598,95.035471 251.68389,97.153181 251.02291,98.475131 C 250.94837,98.624201 250.78721,98.710831 250.66936,98.828691 C 249.65378,99.844271 248.08184,101.88239 247.48738,103.07133 C 246.88997,104.26615 246.10334,105.42548 245.71961,106.96041 C 245.39059,108.27647 245.70974,105.59552 245.0125,109.08173 z"
       id="path3264" />
    <path
       style="opacity:1;fill:#fb4a4a;fill-opacity:1;fill-rule:evenodd;stroke:none;stroke-width:2;stroke-linecap:round;stroke-linejoin:round;marker:none;marker-start:none;marker-mid:none;marker-end:none;stroke-miterlimit:4;stroke-dasharray:none;stroke-dashoffset:0;stroke-opacity:1;visibility:visible;display:inline;overflow:visible;enable-background:accumulate"
       d="M 260.2153,93.525391 C 260.14445,93.808771 264.47908,98.142721 264.81149,98.475131 C 266.01953,99.683171 267.14195,101.15915 267.99347,102.01067 C 269.05729,103.07449 269.71857,104.0116 270.8219,104.83909 C 272.16926,105.84962 271.80333,109.04511 272.58967,105.89975 C 272.9751,104.35803 272.58967,102.19503 272.58967,100.59645 C 272.58967,98.879131 272.71192,97.903471 272.23611,96.000261 C 271.89261,94.626251 270.44675,93.150231 269.76124,92.464731 C 268.5366,91.240081 268.72388,90.437621 266.93281,89.989851 C 265.74987,89.694121 263.66825,90.915021 262.69017,91.404061 C 261.0189,92.239701 262.82109,92.483071 260.2153,93.525391 z"
       id="path3266" />
    <path
       style="opacity:1;fill:#df1e1e;fill-opacity:1;fill-rule:evenodd;stroke:none;stroke-width:2;stroke-linecap:round;stroke-linejoin:round;marker:none;marker-start:none;marker-mid:none;marker-end:none;stroke-miterlimit:4;stroke-dasharray:none;stroke-dashoffset:0;stroke-opacity:1;visibility:visible;display:inline;overflow:visible;enable-background:accumulate"
       d="M 189.85817,100.59645 C 190.55598,99.665181 192.84864,98.040561 194.10081,97.414471 C 195.01716,96.956301 195.57086,94.883761 196.22213,94.232491 C 197.15457,93.300061 199.75432,93.084281 200.81833,92.818281 C 201.37659,92.678711 203.654,93.878941 205.06097,93.878941 C 206.77063,93.878941 208.41206,93.921221 209.65716,94.232491 C 211.4096,94.670601 212.49859,94.500911 214.25336,94.939601 C 215.62417,95.282301 217.24461,96.040971 218.496,96.353811 C 219.5696,96.622211 220.99406,97.066721 222.38509,97.414471 C 225.18233,98.113781 223.24519,98.675681 222.03153,99.889351 C 221.33089,100.58999 219.46555,101.63706 218.496,102.36422 C 216.59489,103.79005 217.28848,104.94244 214.96046,103.77843 C 213.40502,103.00071 211.98669,102.29155 210.71782,101.65711 C 209.5189,101.05765 207.79255,100.9258 206.47518,100.59645 C 204.97773,100.22209 203.86974,99.535791 201.87899,99.535791 C 200.00964,99.535791 198.59016,99.827671 196.92924,100.2429 C 195.28141,100.65486 193.77753,100.94244 192.33305,101.30356 C 191.53384,101.50336 190.36033,100.79732 189.85817,100.59645 z"
       id="path3268" />
    <path
       style="opacity:1;fill:#df1e1e;fill-opacity:1;fill-rule:evenodd;stroke:none;stroke-width:2;stroke-linecap:round;stroke-linejoin:round;marker:none;marker-start:none;marker-mid:none;marker-end:none;stroke-miterlimit:4;stroke-dasharray:none;stroke-dashoffset:0;stroke-opacity:1;visibility:visible;display:inline;overflow:visible;enable-background:accumulate"
       d="M 207.18229,89.636301 C 204.98306,90.186101 211.16511,87.468111 213.1927,86.454321 C 214.58563,85.757851 215.32046,84.860111 217.08178,83.979441 C 218.22543,83.407621 218.52662,82.150431 219.2031,80.797461 C 219.83076,79.542151 222.64433,80.155171 223.7993,80.443911 C 225.04436,80.755171 226.77372,81.452681 228.39549,81.858121 C 230.07885,82.278961 231.88545,82.288671 232.99169,82.565231 C 234.53004,82.949821 236.06524,82.980061 237.23433,83.272341 C 238.8286,83.670901 239.61242,83.931051 241.12341,84.686551 C 243.12699,85.688341 242.58177,85.714111 241.12341,86.807871 C 239.83663,87.772961 237.34469,88.520461 235.82011,89.282741 C 233.8626,90.261501 232.7463,91.349981 231.22392,92.111171 C 229.59563,92.925321 228.75766,94.228191 227.33483,94.939601 C 226.02703,95.593501 224.0913,94.378491 223.09219,93.878941 C 221.50349,93.084591 219.53445,92.547561 217.78889,92.111171 C 216.29693,91.738181 214.46126,91.367651 213.1927,91.050511 C 211.41771,90.606761 210.48311,90.726671 208.95006,90.343401 C 208.33436,90.189481 207.77154,89.872001 207.18229,89.636301 z"
       id="path3270" />
    <path
       style="opacity:1;fill:#df1e1e;fill-opacity:1;fill-rule:evenodd;stroke:none;stroke-width:2;stroke-linecap:round;stroke-linejoin:round;marker:none;marker-start:none;marker-mid:none;marker-end:none;stroke-miterlimit:4;stroke-dasharray:none;stroke-dashoffset:0;stroke-opacity:1;visibility:visible;display:inline;overflow:visible;enable-background:accumulate"
       d="M 230.51681,78.322591 C 228.49084,77.816101 234.50125,77.061321 236.52722,76.554821 C 238.16715,76.144841 239.44128,75.914701 241.12341,75.494161 C 242.56702,75.133261 244.578,75.494161 246.07316,75.494161 C 247.92046,75.494161 249.70626,75.430161 251.37646,75.847721 C 252.71304,76.181861 253.37213,77.136271 254.20489,77.969041 C 255.02985,78.793991 256.20836,79.265401 257.03332,80.090361 C 258.14512,81.202161 253.84346,80.447851 252.43712,81.151021 C 250.74185,81.998651 248.84328,82.947941 247.48738,83.625891 C 245.85991,84.439621 245.25458,83.746931 243.59829,82.918781 C 241.93069,82.084991 240.55375,81.185381 239.00209,80.797461 C 237.43727,80.406261 236.25152,80.463371 234.75945,80.090361 C 233.45377,79.763941 232.1521,78.976711 230.51681,78.322591 z"
       id="path3272" />
  </g>
</svg>
