<?xml version="1.0" encoding="UTF-8" standalone="no"?>
<!-- Created with Inkscape (http://www.inkscape.org/) -->
<svg
   xmlns:dc="http://purl.org/dc/elements/1.1/"
   xmlns:cc="http://creativecommons.org/ns#"
   xmlns:rdf="http://www.w3.org/1999/02/22-rdf-syntax-ns#"
   xmlns:svg="http://www.w3.org/2000/svg"
   xmlns="http://www.w3.org/2000/svg"
   xmlns:sodipodi="http://sodipodi.sourceforge.net/DTD/sodipodi-0.dtd"
   xmlns:inkscape="http://www.inkscape.org/namespaces/inkscape"
   width="744.09448819"
   height="1052.3622047"
   id="svg4305"
   sodipodi:version="0.32"
   inkscape:version="0.46"
   sodipodi:docname="fuck_yeah.svg"
   inkscape:output_extension="org.inkscape.output.svg.inkscape"
   inkscape:export-filename="/home/substack/projects/dnode-slides/images/fuck_yeah.png"
   inkscape:export-xdpi="200.07001"
   inkscape:export-ydpi="200.07001">
  <defs
     id="defs4307">
    <inkscape:perspective
       sodipodi:type="inkscape:persp3d"
       inkscape:vp_x="0 : 526.18109 : 1"
       inkscape:vp_y="0 : 1000 : 0"
       inkscape:vp_z="744.09448 : 526.18109 : 1"
       inkscape:persp3d-origin="372.04724 : 350.78739 : 1"
       id="perspective4313" />
    <inkscape:perspective
       id="perspective4326"
       inkscape:persp3d-origin="372.04724 : 350.78739 : 1"
       inkscape:vp_z="744.09448 : 526.18109 : 1"
       inkscape:vp_y="0 : 1000 : 0"
       inkscape:vp_x="0 : 526.18109 : 1"
       sodipodi:type="inkscape:persp3d" />
  </defs>
  <sodipodi:namedview
     id="base"
     pagecolor="#ffffff"
     bordercolor="#666666"
     borderopacity="1.0"
     gridtolerance="10000"
     guidetolerance="10"
     objecttolerance="10"
     inkscape:pageopacity="0.0"
     inkscape:pageshadow="2"
     inkscape:zoom="0.7"
     inkscape:cx="234.02295"
     inkscape:cy="673.94991"
     inkscape:document-units="px"
     inkscape:current-layer="layer1"
     showgrid="false"
     inkscape:window-width="1438"
     inkscape:window-height="898"
     inkscape:window-x="0"
     inkscape:window-y="0" />
  <metadata
     id="metadata4310">
    <rdf:RDF>
      <cc:Work
         rdf:about="">
        <dc:format>image/svg+xml</dc:format>
        <dc:type
           rdf:resource="http://purl.org/dc/dcmitype/StillImage" />
      </cc:Work>
    </rdf:RDF>
  </metadata>
  <g
     inkscape:label="Layer 1"
     inkscape:groupmode="layer"
     id="layer1">
    <path
       style="opacity:1;fill:#03a942;fill-opacity:1;fill-rule:evenodd;stroke:#000000;stroke-width:2;stroke-linecap:round;stroke-linejoin:round;marker:none;marker-start:none;marker-mid:none;marker-end:none;stroke-miterlimit:4;stroke-dasharray:none;stroke-dashoffset:0;stroke-opacity:1;visibility:visible;display:inline;overflow:visible;enable-background:accumulate"
       d="M 280.8224,395.25795 C 282.37018,392.16239 305.13643,391.4053 308.6016,390.71226 C 316.34783,389.16302 325.3851,390.20719 333.35034,390.20719 C 334.69721,390.20719 336.04408,390.20719 337.39095,390.20719 C 343.16778,390.20719 349.54926,388.2806 355.06862,387.17673 C 355.39879,387.11069 355.74205,387.17673 356.07877,387.17673 C 359.49061,387.17673 362.63624,385.6615 366.18029,385.6615 C 370.06216,385.6615 373.31892,386.67165 377.29197,386.67165 C 380.89029,386.67165 384.1364,385.6615 387.89857,385.6615 C 391.18427,385.6615 394.49675,385.56692 397.49502,386.16658 C 400.95092,386.85775 404.90277,388.60776 408.10162,390.20719 C 411.0051,391.65892 414.28753,393.86771 416.68792,396.2681 C 418.77324,398.35342 423.30482,399.96808 425.77929,401.82394 C 428.3736,403.76967 431.12217,408.54007 432.85036,411.42039 C 434.94567,414.91258 436.45238,417.74724 437.39605,421.52191 C 438.34137,425.3032 438.11914,427.5368 440.42651,430.61329 C 442.46213,433.32745 443.95394,436.49504 445.98234,439.19958 C 448.28792,442.27368 450.82367,444.84161 452.54834,448.29096 C 454.29882,451.79193 456.61427,454.66773 458.10418,458.39248 C 459.84641,462.74806 462.0343,467.26289 464.16509,471.52447 C 465.88885,474.97198 466.85028,479.73982 467.70062,483.14122 C 468.65864,486.97327 469.46178,490.43175 470.22601,494.2529 C 471.11379,498.69181 471.14411,503.16017 473.25646,507.38488 C 475.07115,511.01425 474.26662,514.38678 474.26662,517.99148 C 474.26662,520.65061 473.5788,521.80619 474.26662,524.55747 C 474.77503,526.59111 475.27677,527.97877 475.27677,530.61839 C 475.27677,531.18202 471.93025,533.45983 471.23616,534.15392 C 469.74036,535.64973 465.21766,536.6687 463.15494,537.18438 C 459.878,538.00361 456.79134,538.39647 453.55849,539.20469 C 449.28611,540.27278 445.22172,541.16261 440.93158,542.23514 C 435.38455,543.6219 429.86457,545.3807 424.26407,546.78083 C 419.561,547.9566 414.83393,549.13836 410.12193,550.31636 C 404.09571,551.82292 398.06301,554.64744 391.93918,555.8722 C 385.93194,557.07365 380.28123,559.21395 374.26151,560.41789 C 369.31625,561.40694 363.64974,561.93312 358.60415,561.93312 C 354.28395,561.93312 348.66011,561.89375 344.46201,562.94327 C 338.88234,564.33819 333.40492,564.85164 327.7945,565.97373 C 321.66701,567.19923 314.87904,567.48896 308.6016,567.48896 C 303.24591,567.48896 298.19243,567.3659 293.44931,565.46865 C 289.69204,563.96575 284.88769,563.95342 280.8224,563.95342 C 277.4589,563.95342 274.09896,563.23517 271.22595,563.95342 C 268.69111,564.58713 266.17434,563.44835 263.64981,563.44835 C 261.16657,563.44835 258.82198,563.39262 256.57874,563.95342 C 254.33334,564.51477 250.99866,563.94736 249.0026,563.44835 C 246.33714,562.78198 243.5472,563.09465 240.92138,562.43819 C 237.82284,561.66356 235.27942,560.14382 232.33508,559.40774 C 228.89964,558.54888 225.74004,555.85768 222.73863,554.35697 C 220.17,553.07266 217.47788,548.68951 215.66756,546.27575 C 214.14951,544.25168 212.26054,542.39354 209.60665,541.73007 C 209.29307,541.65167 213.07524,536.43184 213.64726,535.66915"
       id="path4885" />
    <path
       style="opacity:1;fill:#b3d8c6;fill-opacity:1;fill-rule:evenodd;stroke:#000000;stroke-width:2;stroke-linecap:round;stroke-linejoin:round;marker:none;marker-start:none;marker-mid:none;marker-end:none;stroke-miterlimit:4;stroke-dasharray:none;stroke-dashoffset:0;stroke-opacity:1;visibility:visible;display:inline;overflow:visible;enable-background:accumulate"
       d="M 253.04321,533.14377 C 253.04321,532.47034 253.04321,531.7969 253.04321,531.12347 C 253.04321,526.26791 256.22608,519.60238 257.08382,514.45595 C 258.3692,506.74364 259.22574,499.32225 261.12443,491.72752 C 262.60637,485.79975 262.13458,479.65437 262.13458,473.54477 C 262.13458,469.52217 261.88016,465.20159 261.12443,461.42294 C 260.49548,458.27819 260.8626,454.8941 261.62951,451.82649 C 262.30329,449.13135 262.0771,446.5006 262.63966,444.25035 C 263.45374,440.99402 266.17641,440.71481 269.20565,440.71481 C 273.10523,440.71481 274.39751,442.18547 278.29702,443.74527 C 283.09974,445.66636 287.06411,446.77573 292.43916,446.77573 C 298.17336,446.77573 303.78837,447.78588 309.61175,447.78588 C 314.97077,447.78588 319.99416,447.2808 325.26912,447.2808 C 330.31988,447.2808 335.37064,447.2808 340.4214,447.2808 C 345.14361,447.2808 349.81721,445.0986 354.05846,444.25035 C 357.7962,443.5028 362.60814,440.99482 365.67522,438.69451 C 369.5186,435.81197 373.13768,434.80547 376.28182,430.61329 C 378.30972,427.90942 380.88066,426.16509 382.84781,423.54222 C 384.94296,420.74869 385.94291,418.06856 387.89857,415.461 C 389.04431,413.93336 388.90873,409.43948 388.90873,407.37978 C 388.90873,404.82371 390.4299,400.78406 390.92903,398.28841 C 391.63888,394.73914 391.18445,394.05767 394.46456,393.23764 C 397.13891,392.56906 399.83386,393.69608 402.04071,394.2478 C 404.91631,394.9667 406.5989,396.27435 408.6067,397.27825 C 411.43439,398.6921 413.81681,399.45791 416.18284,401.82394 C 418.33477,403.97586 420.41578,405.5518 422.24376,407.37978 C 424.28136,409.41738 425.82283,413.00817 427.29452,415.461 C 428.74526,417.87889 429.59853,420.57409 430.83006,423.03714 C 432.29457,425.96617 432.58995,429.06657 433.35544,432.12852 C 433.94751,434.49679 435.25652,436.70238 435.88082,439.19958 C 436.36192,441.12398 438.44858,443.32496 439.41635,445.2605 C 440.76164,447.95107 441.23598,450.01362 441.94173,452.83664 C 442.52595,455.17351 443.00469,458.09861 443.45696,459.90771 C 444.10122,462.48474 442.95189,464.99775 442.95189,467.48386 C 442.95189,470.77331 443.96204,473.419 443.96204,476.57523 C 443.96204,480.08028 446.31738,483.80624 446.9925,487.18183 C 447.81662,491.30244 449.33428,495.90601 451.03311,499.30366 C 452.32305,501.88355 452.35179,506.09363 453.05341,508.90011 C 453.73912,511.64296 454.56864,514.50379 454.56864,517.48641 C 454.56864,519.85902 455.5329,522.85869 456.08387,525.06255 C 456.73515,527.66767 457.09402,529.86849 457.09402,532.63869 C 457.09402,534.3714 457.02985,537.44107 456.58895,539.20469 C 456.53117,539.4358 450.51623,540.5966 450.02295,540.71991 C 447.40415,541.37462 444.58745,541.57372 441.94173,542.23514 C 439.36063,542.88042 436.43906,542.60066 433.86051,543.2453 C 429.83617,544.25138 425.9663,545.08978 421.73868,546.78083 C 418.03068,548.26403 413.62588,549.82708 410.62701,551.32652 C 408.57035,552.35485 406.96884,553.66068 404.56609,554.86205 C 402.54976,555.87021 399.82007,556.42736 398.0001,556.88236 C 395.18224,557.58682 392.63089,558.72973 389.91888,559.40774 C 386.23389,560.32898 382.45558,560.01087 378.8072,560.92297 C 374.21778,562.07032 369.30093,562.52117 364.66506,563.44835 C 361.19686,564.14199 357.37734,564.96358 354.05846,564.96358 C 351.15809,564.96358 349.31893,566.4788 346.48232,566.4788 C 343.71739,566.4788 341.60267,565.97373 338.90617,565.97373 C 335.84774,565.97373 332.49965,565.46865 329.30973,565.46865 C 326.56441,565.46865 323.71345,565.97373 320.72343,565.97373 C 317.41145,565.97373 314.46998,566.98388 311.12698,566.98388 C 308.80978,566.98388 306.05817,567.48896 303.55084,567.48896 C 300.8571,567.48896 298.16336,567.48896 295.46962,567.48896 C 292.99345,567.48896 289.78178,566.57208 287.3884,565.97373 C 284.7083,565.3037 282.1825,564.4585 279.30717,564.4585 C 276.61032,564.4585 273.86043,562.94327 270.72088,562.94327 C 267.39587,562.94327 264.11845,561.93312 260.61935,561.93312 C 257.37168,561.93312 255.85866,561.12175 253.04321,560.41789 C 250.83227,559.86515 252.68576,554.62899 253.04321,552.84175 C 253.77043,549.20563 254.05336,545.54058 254.05336,541.73007 C 254.05336,537.44669 253.57947,535.28883 252.53813,531.12347 C 251.14753,525.56105 270.66732,519.01949 273.75134,517.99148"
       id="path4887" />
    <path
       style="opacity:1;fill:#c7c692;fill-opacity:1;fill-rule:evenodd;stroke:#000000;stroke-width:2;stroke-linecap:round;stroke-linejoin:round;marker:none;marker-start:none;marker-mid:none;marker-end:none;stroke-miterlimit:4;stroke-dasharray:none;stroke-dashoffset:0;stroke-opacity:1;visibility:visible;display:inline;overflow:visible;enable-background:accumulate"
       d="M 266.68027,469.50416 C 262.99831,467.98058 263.29831,465.20074 264.15489,460.91786 C 264.68266,458.27899 267.73557,454.26158 268.70057,452.33157 C 270.05439,449.62394 271.63443,449.92485 270.72088,446.27065 C 270.00639,443.41271 267.13274,444.96585 268.1955,440.71481 C 268.93494,437.75704 273.49417,437.68436 275.77164,437.68436 C 278.97634,437.68436 279.8077,440.69661 280.31733,442.73512 C 281.00818,445.49852 281.41624,445.2605 282.84271,445.2605 C 284.0751,445.2605 286.449,444.25035 288.90362,444.25035 C 291.38304,444.25035 291.42901,447.07673 291.42901,449.30111 C 291.42901,452.54449 290.21962,453.54445 293.44931,454.35187 C 296.19477,455.03824 296.06596,456.57908 299.51023,454.85695 C 302.17155,453.52629 304.29382,453.53478 307.08637,452.83664 C 307.81555,452.65435 307.08637,458.89786 307.08637,459.40264 C 307.08637,459.72833 310.6114,462.92766 311.12698,463.44325 C 313.37018,465.68645 315.24713,461.07695 317.1879,464.95847 C 318.23893,467.06055 321.80521,464.8143 323.24881,464.4534 C 324.62835,464.10851 324.25896,469.93796 324.25896,471.01939 C 324.25896,473.27175 327.1797,475.1262 327.7945,477.58538 C 328.69338,481.18092 328.30619,480.87169 331.83511,482.63614 C 335.50968,484.47343 336.27069,484.21604 337.39095,488.69706 C 338.21092,491.97695 338.3523,493.14514 339.41125,495.26305 C 340.47526,497.39107 341.43156,499.7748 341.43156,502.33412 C 341.43156,504.55281 338.61527,507.26768 337.39095,508.90011 C 335.84918,510.9558 330.21814,511.82973 327.7945,512.43564 C 323.84043,513.42416 320.24667,512.43564 316.17774,512.43564 C 309.61103,512.43564 303.07363,511.42549 296.47977,511.42549 C 292.65796,511.42549 288.24318,505.53943 284.86301,503.84935 C 280.35509,501.59539 275.8141,501.8715 272.23611,498.29351 C 269.1528,495.21021 266.71122,492.1055 264.15489,488.69706 C 261.67271,485.38749 262.41703,480.39321 259.6092,477.58538 C 258.22088,476.19706 262.16347,474.43938 262.63966,472.53462 C 262.76895,472.01746 267.28708,468.08826 268.1955,465.96863"
       id="path4895" />
    <path
       style="opacity:1;fill:#03a942;fill-opacity:1;fill-rule:evenodd;stroke:#000000;stroke-width:2;stroke-linecap:round;stroke-linejoin:round;marker:none;marker-start:none;marker-mid:none;marker-end:none;stroke-miterlimit:4;stroke-dasharray:none;stroke-dashoffset:0;stroke-opacity:1;visibility:visible;display:inline;overflow:visible;enable-background:accumulate"
       d="M 272.74118,412.93562 C 272.13452,412.93562 251.04891,402.06347 250.51783,402.32902 C 248.33069,403.42258 243.6306,404.00022 241.93153,405.35947 C 241.08974,406.03291 240.24794,406.70634 239.40615,407.37978 C 237.29744,406.48685 234.64389,409.25583 231.32493,410.91531 C 228.41493,412.37031 225.62554,415.24302 224.25386,417.98638 C 223.11962,420.25486 220.35626,421.37891 218.19295,423.54222 C 215.23837,426.4968 211.02958,428.36378 207.58634,431.11836 C 203.91607,434.05458 201.69063,439.14768 199.00005,442.73512 C 196.73717,445.75229 194.0035,448.68761 192.43406,451.82649 C 191.21268,454.26924 190.17888,456.60704 187.88837,458.89756 C 185.39356,461.39237 183.92882,464.55318 183.34268,467.48386 C 183.24363,467.97912 183.34268,468.49401 183.34268,468.99908 C 183.34268,473.00818 179.26087,477.24511 178.29192,481.12091 C 177.51571,484.22575 177.78684,487.49415 177.78684,490.71736 C 177.78684,494.09336 175.76654,497.27635 175.76654,500.81889 C 175.76654,503.40364 175.26146,505.34075 175.26146,507.88996 C 175.26146,510.20688 174.29623,514.27626 173.74623,516.47625 C 173.21373,518.60625 173.91245,522.19189 174.25131,523.54732 C 174.94855,526.33628 176.69998,528.52137 178.29192,530.11331 C 179.64793,531.46932 180.78992,534.54946 181.32238,536.6793 C 182.08876,539.74483 184.45863,541.94166 185.86806,544.76053 C 187.35256,547.72952 189.53899,550.08207 190.91883,552.84175 C 192.38028,555.76465 195.71811,558.56735 197.48482,560.92297 C 199.19075,563.19754 202.13398,564.53611 204.05081,565.97373 C 206.06049,567.48099 208.38605,568.79374 210.11173,570.51942 C 212.61913,573.02682 215.70442,574.59688 218.19295,577.08541 C 220.19031,579.08278 223.44869,579.96581 225.76909,581.12602 C 227.8957,582.18932 231.56268,581.69793 233.85031,581.12602 C 237.74538,580.15225 241.4196,578.8566 244.96199,577.08541 C 247.77359,575.6796 250.39515,574.8739 253.04321,573.54987 C 256.10097,572.02099 259.0487,570.54713 262.13458,569.00419 C 264.95223,567.59536 268.32823,566.19308 271.22595,565.46865 C 274.79002,564.57763 278.3566,560.12067 281.32748,557.89251 C 284.417,555.57536 286.72284,552.92198 289.91378,551.32652 C 293.05483,549.75599 295.64798,547.61862 299.00515,546.27575 C 302.95179,544.6971 305.79547,540.67794 309.10667,538.19453 C 311.85434,536.13379 313.70349,533.59772 316.17774,531.12347 C 318.2483,529.0529 319.43354,528.65248 320.72343,526.0727 C 322.40612,522.70732 323.1466,524.86112 319.71328,526.57778 C 316.98444,527.9422 313.81812,528.59808 310.6219,528.59808 C 307.99834,528.59808 305.38001,528.67657 303.04576,528.09301 C 300.12986,527.36403 296.7392,527.77906 293.95439,527.08286 C 291.58797,526.49125 290.05719,525.38679 288.39855,524.55747 C 285.82998,523.27319 283.71984,521.96558 281.83256,521.02194 C 279.78856,519.99994 278.50649,519.35891 276.78179,518.49656 C 274.15628,517.1838 272.17884,516.30704 269.71073,514.45595 C 267.54605,512.83244 264.95806,512.22866 263.14473,510.41534 C 261.55023,508.82083 259.83805,508.11881 258.59905,506.8798 C 257.23883,505.51959 255.39481,503.67557 254.05336,502.33412 C 252.17174,500.4525 250.66847,498.94923 249.0026,497.28336 C 247.66686,495.94762 247.99245,493.05877 247.99245,490.71736 C 247.99245,489.4601 249.50767,487.09998 249.50767,484.65645 C 249.50767,482.01204 248.19206,480.00492 247.48737,478.59553 C 247.14985,477.92049 243.62241,485.97417 243.44676,486.67675"
       id="path4883"
       sodipodi:nodetypes="cssssssssssssssssssssssssssssssssssssssssssssssssssscss" />
    <path
       style="opacity:1;fill:#c7a694;fill-opacity:1;fill-rule:evenodd;stroke:#000000;stroke-width:2;stroke-linecap:round;stroke-linejoin:round;marker:none;marker-start:none;marker-mid:none;marker-end:none;stroke-miterlimit:4;stroke-dasharray:none;stroke-dashoffset:0;stroke-opacity:1;visibility:visible;display:inline;overflow:visible;enable-background:accumulate"
       d="M 232.84016,316.97113 C 231.9377,318.22211 231.32493,322.1379 231.32493,325.05235 C 231.32493,327.79727 230.95488,330.57315 230.31478,333.13357 C 229.76416,335.33603 230.31478,338.42603 230.31478,340.70971 C 230.31478,343.23509 230.31478,345.76047 230.31478,348.28585 C 230.31478,351.43365 230.01189,354.54818 229.30462,357.37723 C 228.39787,361.00424 228.79955,365.1749 228.79955,368.99398 C 228.79955,372.79961 230.59953,378.14978 232.33508,381.62089 C 233.86299,384.6767 235.10839,387.67258 236.37569,390.20719 C 237.77566,393.00712 238.59078,395.64752 239.91123,398.28841 C 241.10391,400.67377 241.48691,401.88439 242.94168,403.33917 C 244.41745,404.81494 248.08941,405.66049 249.50767,406.36963 C 252.00645,407.61901 253.96486,409.35583 256.07367,410.41024 C 258.57467,411.66074 261.22157,411.7215 263.64981,412.93562 C 266.34115,414.28129 268.32648,415.27395 270.72088,416.47115 C 273.39476,417.80809 276.00432,419.29731 278.29702,421.01684 C 280.5562,422.71122 282.24853,424.50782 284.35794,425.56252 C 286.90879,426.83795 288.28518,428.08791 291.42901,428.08791 C 294.10889,428.08791 297.06044,428.59298 300.0153,428.59298 C 303.0557,428.59298 306.92926,428.75853 309.61175,428.08791 C 312.88842,427.26874 316.78681,427.58283 320.21835,427.58283 C 324.19397,427.58283 326.82643,426.76629 330.31988,426.0676 C 333.03673,425.52423 335.79966,425.20273 338.4011,424.55237 C 341.74638,423.71605 345.49974,423.73874 349.0077,423.03714 C 351.36069,422.56654 354.52239,421.03742 356.58384,420.00669 C 359.35516,418.62103 361.00913,417.79404 363.65491,416.47115 C 365.9938,415.30171 367.42443,412.70163 369.21075,410.91531 C 371.2324,408.89367 372.30538,406.28407 373.75644,404.34932 C 375.1554,402.48404 376.7869,399.30604 376.7869,396.77318 C 376.7869,393.37492 377.51916,390.81365 378.30212,387.6818 C 378.93996,385.13045 380.04609,382.67864 380.82751,381.11581 C 381.8526,379.06562 382.36344,376.48729 382.84781,374.54982 C 383.46524,372.0801 384.68442,370.7389 385.37319,367.98383 C 385.84009,366.11624 387.31936,363.73468 387.89857,361.41784 C 388.52319,358.91938 390.33447,356.04096 391.43411,353.84169 C 392.69673,351.31646 392.75521,348.67412 393.95949,346.26555 C 395.07078,344.04298 395.935,343.32467 396.98995,341.21479 C 398.206,338.78267 399.32401,336.54667 400.52548,334.14372 C 401.75456,331.68556 402.36807,329.95346 403.55594,327.57773 C 404.89859,324.89243 405.88442,322.80947 406.5864,320.00158 C 407.30058,317.14483 408.10162,314.48812 408.10162,311.41529 C 408.10162,308.6802 409.61685,305.29435 409.61685,302.32391 C 409.61685,299.1251 409.61685,295.92628 409.61685,292.72746 C 409.61685,289.28542 409.11178,286.53229 409.11178,283.13102 C 409.11178,280.43728 409.11178,277.74354 409.11178,275.0498 C 409.11178,271.96102 409.16354,268.74261 408.6067,265.95842 C 408.01712,263.0105 407.64324,260.13097 407.09147,257.37213 C 406.52968,254.56318 405.81674,252.29728 404.56609,249.79598 C 403.05168,246.76717 401.47756,244.12399 400.0204,241.20969 C 398.51291,238.1947 396.37251,235.93421 394.96964,233.12846 C 393.44567,230.08052 388.99493,227.85592 386.88842,225.04724 C 385.07486,222.62917 382.17837,220.84227 379.81735,218.48126 C 376.91189,215.57579 373.71523,212.88421 370.72598,209.89496 C 368.59471,207.76369 365.32176,205.67762 362.64476,204.33912 C 359.80288,202.91818 357.33823,201.18078 354.56354,199.79343 C 350.98987,198.0066 347.04527,197.54953 343.45186,195.75282 C 340.29386,194.17382 336.53124,193.99473 333.35034,192.72237 C 330.4752,191.57231 326.95737,190.99786 323.75389,190.19699 C 321.21065,189.56118 318.45307,189.69191 315.67267,189.69191 C 312.66381,189.69191 310.67555,190.18357 308.6016,190.70206 C 305.3639,191.51149 302.80749,193.07307 299.51023,193.73252 C 296.43573,194.34742 294.5682,195.09429 291.93408,195.75282 C 288.54645,196.59973 285.45478,198.0415 282.33763,199.28836 C 279.6606,200.35917 276.51045,202.59016 274.76149,204.33912 C 273.0799,206.02071 269.8689,207.71648 268.1955,209.38988 C 266.32414,211.26124 265.01694,213.07352 263.14473,214.94572 C 261.19449,216.89596 259.45047,219.65014 257.58889,221.51171 C 255.29531,223.8053 253.88067,226.40277 252.53813,229.08785 C 251.60971,230.9447 251.13519,233.91404 250.01275,236.15892 C 248.92458,238.33526 248.02433,240.13576 246.98229,242.21984 C 245.9266,244.33123 245.0534,246.07762 243.95184,248.28075 C 242.8474,250.48962 242.01583,254.00447 241.42645,256.36197 C 240.65103,259.46367 240.10401,262.95109 238.90107,265.95842 C 238.04193,268.10628 238.01925,270.49586 237.38584,273.02949 C 236.76036,275.53141 236.49035,278.12668 235.87062,280.60563 C 235.27059,283.00572 235.36554,285.55731 235.36554,288.18178 C 235.36554,290.87683 234.86046,292.99751 234.86046,295.75792 C 234.86046,298.2833 234.86046,300.80869 234.86046,303.33407 C 234.86046,306.05347 234.32821,308.49355 233.85031,310.40513 C 233.22087,312.92288 232.84016,314.29086 232.84016,316.97113 z"
       id="path4332" />
    <path
       style="opacity:1;fill:#ffffff;fill-opacity:1;fill-rule:evenodd;stroke:#000000;stroke-width:2;stroke-linecap:round;stroke-linejoin:round;marker:none;marker-start:none;marker-mid:none;marker-end:none;stroke-miterlimit:4;stroke-dasharray:none;stroke-dashoffset:0;stroke-opacity:1;visibility:visible;display:inline;overflow:visible;enable-background:accumulate"
       d="M 249.50767,325.55742 C 250.18111,325.22071 250.85454,324.88399 251.52798,324.54727 C 253.812,323.40526 256.10495,322.64541 258.59905,322.02189 C 260.96912,321.42937 263.61896,321.01174 266.17519,321.01174 C 268.90765,321.01174 271.72621,321.01053 273.75134,321.51681 C 276.1396,322.11388 277.89252,323.61255 279.81225,325.05235 C 281.61539,326.4047 282.30283,328.048 283.85286,329.59803 C 285.6077,331.35288 283.65635,333.83515 282.84271,334.6488 C 282.03516,335.45634 277.82309,335.65895 276.27672,335.65895 C 273.75134,335.65895 271.22595,335.65895 268.70057,335.65895 C 265.88696,335.65895 264.20119,334.66037 262.13458,334.14372 C 260.55835,333.74966 257.69551,331.92418 256.07367,331.11326 C 253.70392,329.92839 253.5227,328.57509 251.52798,327.57773 C 250.67614,327.15181 250.18111,326.23086 249.50767,325.55742 z"
       id="path4845" />
    <path
       style="opacity:1;fill:#ffffff;fill-opacity:1;fill-rule:evenodd;stroke:#000000;stroke-width:2;stroke-linecap:round;stroke-linejoin:round;marker:none;marker-start:none;marker-mid:none;marker-end:none;stroke-miterlimit:4;stroke-dasharray:none;stroke-dashoffset:0;stroke-opacity:1;visibility:visible;display:inline;overflow:visible;enable-background:accumulate"
       d="M 327.7945,338.18433 C 326.30341,337.43878 331.38086,333.85306 332.34018,333.13357 C 334.7327,331.33918 336.5958,330.80697 339.41125,330.10311 C 342.12808,329.4239 344.24919,331.06005 346.48232,331.61834 C 349.21711,332.30204 351.47544,333.10475 353.55339,334.14372 C 356.36356,335.5488 358.26982,335.82969 360.11938,337.67925 C 362.46814,340.02802 362.75631,340.48662 361.63461,342.73002 C 360.83138,344.33648 353.7299,344.41197 352.03816,344.75032 C 348.50003,345.45795 344.39911,345.76047 340.92648,345.76047 C 337.91584,345.76047 335.98939,344.39993 333.35034,343.74017 C 330.51095,343.03032 328.89425,340.93371 327.7945,338.18433 z"
       id="path4847" />
    <path
       style="opacity:1;fill:#c6ab6a;fill-opacity:1;fill-rule:evenodd;stroke:#000000;stroke-width:2;stroke-linecap:round;stroke-linejoin:round;marker:none;marker-start:none;marker-mid:none;marker-end:none;stroke-miterlimit:4;stroke-dasharray:none;stroke-dashoffset:0;stroke-opacity:1;visibility:visible;display:inline;overflow:visible;enable-background:accumulate"
       d="M 245.46706,309.90006 C 245.11555,309.81218 251.88461,307.37468 253.54828,307.37468 C 256.57874,307.37468 259.6092,307.37468 262.63966,307.37468 C 265.03105,307.37468 267.94616,308.82757 270.2158,309.39498 C 273.15881,310.13073 274.67414,310.82287 276.27672,312.42544 C 278.15316,314.30188 280.43504,314.56345 282.33763,316.46605 C 283.4352,317.56361 284.7756,318.39894 285.87317,319.49651 C 287.54408,321.16742 281.16513,318.99143 278.8021,318.99143 C 276.16661,318.99143 273.58664,319.07653 271.22595,318.48635 C 268.24467,317.74103 266.54126,316.64908 264.15489,315.4559 C 261.47732,314.11711 260.13157,312.94348 258.09397,311.41529 C 256.66057,310.34024 253.37423,310.40513 251.0229,310.40513 C 248.43556,310.40513 248.14839,311.24072 245.46706,309.90006 z"
       id="path4849" />
    <path
       style="opacity:1;fill:#c6ab6a;fill-opacity:1;fill-rule:evenodd;stroke:#000000;stroke-width:2;stroke-linecap:round;stroke-linejoin:round;marker:none;marker-start:none;marker-mid:none;marker-end:none;stroke-miterlimit:4;stroke-dasharray:none;stroke-dashoffset:0;stroke-opacity:1;visibility:visible;display:inline;overflow:visible;enable-background:accumulate"
       d="M 339.41125,318.48635 C 336.36214,318.48635 345.45352,317.4762 348.50262,317.4762 C 351.41013,317.4762 354.40813,319.84617 356.07877,321.51681 C 357.52844,322.96649 361.03823,324.01937 363.14984,324.54727 C 365.91542,325.23867 367.96264,326.19606 369.71583,327.07265 C 371.91135,328.17041 373.10724,330.46406 374.26151,331.61834 C 375.60862,332.96544 376.4968,336.77659 373.25136,335.15387 C 373.10078,335.07858 372.91464,335.15387 372.74629,335.15387 C 371.11665,335.15387 368.22201,332.63384 366.18029,332.12341 C 363.4019,331.42882 360.78355,330.26915 358.09907,329.59803 C 355.34752,328.91015 352.61182,328.1171 350.52293,327.07265 C 348.26102,325.9417 345.92889,324.66145 343.45186,324.04219 C 341.37832,323.52381 338.21914,324.21395 336.88587,324.54727 C 334.27116,325.20095 332.47875,324.89144 329.8148,325.55742 C 325.80537,326.55978 328.99708,323.84976 330.31988,322.52697 C 332.66814,320.1787 336.07239,317.81858 339.41125,318.48635 z"
       id="path4851" />
    <path
       style="opacity:1;fill:none;fill-opacity:1;fill-rule:evenodd;stroke:#000000;stroke-width:2;stroke-linecap:round;stroke-linejoin:round;marker:none;marker-start:none;marker-mid:none;marker-end:none;stroke-miterlimit:4;stroke-dasharray:none;stroke-dashoffset:0;stroke-opacity:1;visibility:visible;display:inline;overflow:visible;enable-background:accumulate"
       d="M 284.35794,355.35692 C 286.17512,353.53974 280.94062,359.42976 280.31733,361.92291 C 279.58292,364.86055 280.97608,366.54544 282.84271,367.47875 C 284.95723,368.53601 286.79918,368.50994 288.90362,367.98383 C 288.96837,367.96764 285.64085,365.39026 289.4087,364.4483 C 291.07792,364.03099 293.67102,366.18523 294.96454,367.47875 C 296.50769,369.0219 297.70445,369.71359 299.00515,371.01429 C 300.72025,372.72939 302.33803,372.58018 304.56099,372.02444 C 306.10345,371.63882 307.95975,369.31491 309.61175,368.48891 C 312.10421,367.24268 313.32152,367.56587 315.16759,368.48891 C 315.99525,368.90274 309.57611,370.37403 314.15744,371.51936 C 317.04358,372.2409 318.56316,371.58935 320.72343,370.50921 C 322.64319,369.54933 321.99846,365.00273 321.73358,363.94322 C 321.29587,362.19239 318.57355,359.77304 317.69297,358.89246 C 316.17533,357.37481 315.67267,360.56616 315.67267,361.41784"
       id="path4853" />
    <path
       style="opacity:1;fill:none;fill-opacity:1;fill-rule:evenodd;stroke:#000000;stroke-width:2;stroke-linecap:round;stroke-linejoin:round;marker:none;marker-start:none;marker-mid:none;marker-end:none;stroke-miterlimit:4;stroke-dasharray:none;stroke-dashoffset:0;stroke-opacity:1;visibility:visible;display:inline;overflow:visible;enable-background:accumulate"
       d="M 268.1955,393.23764 C 267.67122,392.71337 273.30979,387.1132 273.75134,386.67165 C 276.46987,383.95312 275.29359,383.13612 278.8021,383.13612 C 280.79045,383.13612 284.30831,384.13386 286.37824,384.65135 C 289.6262,385.46334 293.68938,383.64119 296.98484,383.64119 C 299.67989,383.64119 301.80058,384.14627 304.56099,384.14627 C 307.22802,384.14627 309.71955,384.55203 312.13713,385.15642 C 315.07111,385.88992 317.91778,385.97024 320.72343,386.67165 C 323.18435,387.28688 324.80877,389.20822 326.78434,389.70211 C 328.84252,390.21665 328.72256,393.41435 329.30973,395.76302 C 329.75594,397.54787 329.30973,396.86972 329.30973,397.78333"
       id="path4855" />
    <path
       style="opacity:1;fill:#c7a694;fill-opacity:1;fill-rule:evenodd;stroke:#000000;stroke-width:2;stroke-linecap:round;stroke-linejoin:round;marker:none;marker-start:none;marker-mid:none;marker-end:none;stroke-miterlimit:4;stroke-dasharray:none;stroke-dashoffset:0;stroke-opacity:1;visibility:visible;display:inline;overflow:visible;enable-background:accumulate"
       d="M 380.32243,375.55998 C 381.22816,377.37143 382.07322,381.35137 384.36304,383.6412 C 386.39222,385.67038 387.74068,386.16658 390.92903,386.16658 C 393.24733,386.16658 394.94638,382.6543 395.9798,381.62089 C 397.4077,380.19299 398.02021,376.4897 398.50518,374.54982 C 399.09031,372.20928 399.07833,369.22674 399.51533,367.47876 C 400.06542,365.27841 400.91091,362.90657 401.53564,360.40769 C 402.22317,357.65754 402.99988,355.05577 403.55594,352.83154 C 404.10089,350.65173 405.78374,347.87087 406.5864,346.26555 C 407.40517,344.628 408.21034,342.00752 409.11178,340.20464 C 410.18682,338.05455 410.62701,336.0318 410.62701,333.63865 C 410.62701,330.892 411.29322,329.41524 410.12193,327.07265 C 408.68573,324.20025 405.81121,325.94502 403.55594,327.07265 C 401.3317,328.18477 399.42908,332.23841 398.0001,334.14372 C 396.20849,336.53254 395.18299,337.97099 393.45441,339.69956 C 391.92546,341.22852 391.93919,342.97295 391.93919,344.75032"
       id="path4859" />
    <path
       style="opacity:1;fill:none;fill-opacity:1;fill-rule:evenodd;stroke:#000000;stroke-width:2;stroke-linecap:round;stroke-linejoin:round;marker:none;marker-start:none;marker-mid:none;marker-end:none;stroke-miterlimit:4;stroke-dasharray:none;stroke-dashoffset:0;stroke-opacity:1;visibility:visible;display:inline;overflow:visible;enable-background:accumulate"
       d="M 287.3884,400.81379 C 288.63286,398.8424 291.50566,397.78333 294.96454,397.78333 C 297.71161,397.78333 300.47752,398.6565 303.04576,399.29856 C 305.08188,399.80759 307.31449,401.54699 309.10667,403.33917 C 310.17568,404.40817 310.03794,404.69661 310.6219,405.86455"
       id="path4863" />
    <path
       style="opacity:1;fill:#1e2648;fill-opacity:1;fill-rule:evenodd;stroke:#000000;stroke-width:2;stroke-linecap:round;stroke-linejoin:round;marker:none;marker-start:none;marker-mid:none;marker-end:none;stroke-miterlimit:4;stroke-dasharray:none;stroke-dashoffset:0;stroke-opacity:1;visibility:visible;display:inline;overflow:visible;enable-background:accumulate"
       d="M 266.17519,322.52697 C 263.75658,323.6004 262.94877,326.84637 262.13458,330.10311 C 261.40001,333.0414 262.42684,335.04747 264.65996,336.16402 C 266.70562,337.18686 268.40434,337.17418 271.22595,337.17418 C 273.41866,337.17418 276.15329,335.9732 277.79195,335.15387 C 279.97612,334.06179 280.8224,333.43435 280.8224,330.60819 C 280.8224,327.34942 279.8645,325.59661 277.79195,324.04219 C 275.59985,322.39812 274.28705,322.52697 271.22595,322.52697 C 268.39218,322.52697 266.13779,322.43347 267.18534,325.05235"
       id="path4865" />
    <path
       style="opacity:1;fill:#1e2648;fill-opacity:1;fill-rule:evenodd;stroke:#000000;stroke-width:2;stroke-linecap:round;stroke-linejoin:round;marker:none;marker-start:none;marker-mid:none;marker-end:none;stroke-miterlimit:4;stroke-dasharray:none;stroke-dashoffset:0;stroke-opacity:1;visibility:visible;display:inline;overflow:visible;enable-background:accumulate"
       d="M 338.90617,331.11326 C 335.29415,331.11326 335.44966,336.353 334.86556,338.68941 C 334.07655,341.84545 336.53315,343.89253 337.89602,345.2554 C 339.38445,346.74383 342.00576,346.26555 344.46201,346.26555 C 346.64506,346.26555 349.01753,344.99794 350.52293,344.24524 C 353.07258,342.97042 352.68939,340.28418 352.03816,337.67925 C 351.29739,334.71616 350.27311,333.8939 347.99755,331.61834 C 346.74966,330.37045 343.52011,330.10311 341.43156,330.10311 C 340.17356,330.10311 341.07706,330.02782 338.90617,331.11326 z"
       id="path4867" />
    <path
       style="opacity:1;fill:#d3bdac;fill-opacity:1;fill-rule:evenodd;stroke:none;stroke-width:2;stroke-linecap:round;stroke-linejoin:round;marker:none;marker-start:none;marker-mid:none;marker-end:none;stroke-miterlimit:4;stroke-dasharray:none;stroke-dashoffset:0;stroke-opacity:1;visibility:visible;display:inline;overflow:visible;enable-background:accumulate"
       d="M 232.33508,354.85185 C 231.77018,356.00346 231.83001,360.20841 231.83001,362.93307 C 231.83001,365.91166 232.84016,367.98205 232.84016,371.01429 C 232.84016,373.56919 233.25722,376.21807 233.85031,378.59043 C 234.5769,381.49681 234.55921,383.54377 235.87062,386.16658 C 236.93995,388.30525 238.65665,390.97291 238.90107,391.21734 C 240.92838,393.24465 238.396,385.49809 238.396,382.63104 C 238.396,378.48841 238.9716,375.63619 240.4163,372.02444 C 241.45362,369.43115 244.09758,366.77936 245.46706,364.95337 C 246.99997,362.9095 249.74501,361.55171 252.03306,360.40769 C 255.1665,358.84096 258.20387,359.24379 261.62951,358.38738 C 265.10572,357.51833 267.98196,356.673 271.22595,355.862 C 273.05206,355.40547 269.37401,359.73425 270.2158,361.41784 C 270.26003,361.5063 277.71065,353.92299 278.29702,353.33662 C 280.80847,350.82517 283.53214,349.20383 286.37824,347.78078 C 290.28749,345.82615 290.13742,347.89635 289.4087,350.81124 C 289.11147,352.00014 295.92375,350.3189 295.97469,350.30616 C 299.31571,349.4709 299.14255,348.05558 297.995,345.76047 C 296.68196,343.13441 294.67928,341.93968 292.94423,340.20463 C 290.89591,338.15631 294.8181,335.51624 295.97469,334.6488 C 298.20831,332.97358 294.63938,334.40891 292.94423,336.6691 C 290.91036,339.38093 288.99758,340.93876 285.87317,341.71986 C 282.96014,342.44812 280.55715,343.55394 277.79195,344.24524 C 275.6357,344.78431 271.76529,343.74017 269.20565,343.74017 C 266.42627,343.74017 263.64078,343.86418 261.12443,343.23509 C 258.62212,342.60951 255.83277,342.73002 253.04321,342.73002 C 251.64796,342.73002 248.54614,339.98856 247.48737,339.19448 C 244.93965,337.28369 242.43661,337.59708 242.43661,334.14372 C 242.43661,331.91653 245.72955,330.98202 247.48737,330.10311 C 247.66352,330.01504 242.57905,325.66425 242.43661,325.55742 C 240.84549,324.36408 246.40347,319.57025 246.98229,318.99143 C 248.704,317.26972 252.10511,316.46605 254.55844,316.46605 C 256.52424,316.46605 250.33705,315.28443 249.0026,314.95082 C 246.22862,314.25733 243.28959,312.59939 240.92138,311.41529 C 237.57862,309.74391 239.62917,308.66689 241.93153,306.36452 C 244.15557,304.14049 247.29411,303.00358 250.01275,302.32391 C 252.53949,301.69223 255.2994,301.81884 258.09397,301.81884 C 261.08716,301.81884 264.10959,301.32509 266.17519,300.80869 C 266.9946,300.60383 259.09191,296.51248 258.09397,296.263 C 253.19386,295.03797 254.09637,295.73212 259.10412,292.72746 C 262.46074,290.7135 263.18073,291.17624 265.67012,288.68685 C 268.25655,286.10042 257.66893,286.16147 256.07367,286.16147 C 252.73114,286.16147 251.72224,285.88951 252.53813,282.62594 C 253.65132,278.1732 261.61968,275.05962 264.65996,272.01934 C 266.81348,269.86582 266.82782,267.05369 266.17519,264.44319 C 265.35572,261.16532 253.69714,261.41274 251.0229,261.41274 C 247.83734,261.41274 246.23433,263.91881 244.96199,266.4635 C 243.86281,268.66185 244.05436,271.30921 242.94168,273.53457 C 241.81402,275.78989 242.57721,278.80919 241.42645,281.11071 C 240.23031,283.50301 240.59972,287.95318 239.91123,290.70716 C 239.279,293.23606 238.90107,296.18238 238.90107,298.78838 C 238.90107,300.67225 236.87737,303.85272 236.37569,305.85945 C 235.78911,308.20577 235.36554,310.21493 235.36554,312.93052 C 235.36554,314.95834 234.23245,318.22715 233.34523,320.00158 C 232.28326,322.12553 231.90501,324.75234 231.32493,327.07265 C 230.73461,329.43392 230.81985,332.18822 230.81985,334.6488 C 230.81985,337.17418 230.81985,339.69956 230.81985,342.22494 C 230.81985,344.86043 230.73476,347.4404 231.32493,349.80108 C 231.80847,351.73525 232.33508,352.41438 232.33508,354.85185 z"
       id="path4869" />
    <path
       style="opacity:1;fill:#916c57;fill-opacity:1;fill-rule:evenodd;stroke:none;stroke-width:2;stroke-linecap:round;stroke-linejoin:round;marker:none;marker-start:none;marker-mid:none;marker-end:none;stroke-miterlimit:4;stroke-dasharray:none;stroke-dashoffset:0;stroke-opacity:1;visibility:visible;display:inline;overflow:visible;enable-background:accumulate"
       d="M 295.46962,426.0676 C 298.60435,426.39846 301.36144,425.73107 304.05591,425.05745 C 307.11049,424.29381 310.08525,424.18146 312.64221,423.54222 C 314.80242,423.00217 316.21945,423.02672 318.19805,422.53207 C 320.92329,421.85076 324.1846,422.67693 326.78434,422.02699 C 329.19132,421.42525 330.86966,421.51074 332.84526,421.01684 C 335.03838,420.46856 337.65819,420.51176 339.91633,420.51176 C 342.71747,420.51176 344.89912,419.5186 346.9874,418.99653 C 349.34983,418.40592 351.48418,417.00068 353.55339,415.96608 C 355.27665,415.10444 357.25284,412.85366 359.10923,411.92547 C 360.94679,411.00668 363.43497,409.11495 364.66506,407.88486 C 366.45594,406.09398 367.03614,404.46148 367.69552,401.82394 C 368.04519,400.42528 370.75116,396.748 367.69552,399.80363 C 366.42665,401.0725 364.18155,402.82331 362.13968,403.84425 C 359.62433,405.10192 357.7955,406.06671 354.56354,406.8747 C 351.2272,407.70879 347.6102,407.83776 344.96709,408.89501 C 342.74938,409.78209 341.2772,410.41024 338.4011,410.41024 C 335.94705,410.41024 334.26035,407.80975 332.34018,406.36963 C 330.59536,405.06101 329.72649,403.25085 328.29957,401.82394 C 326.45066,399.97503 324.59848,398.75209 322.74373,398.28841 C 320.12532,397.6338 322.23866,403.67063 322.23866,406.36963 C 322.23866,407.80398 317.71975,410.39685 316.68282,410.91531 C 315.26443,411.62451 313.80487,413.2763 311.12698,413.94577 C 308.57579,414.58357 306.19607,414.48081 304.05591,413.94577 C 301.59852,413.33142 300.42527,410.02979 300.0153,408.38993 C 299.20844,405.16248 296.74156,407.31433 294.45946,407.88486 C 291.19138,408.70188 288.61378,409.40008 284.86301,409.40008 C 279.69527,409.40008 279.04532,410.14838 276.27672,407.37978 C 274.78987,405.89293 273.03418,405.00089 270.72088,403.84425 C 268.02114,402.49438 270.54609,399.29856 266.17519,399.29856 C 262.70716,399.29856 262.95915,399.48415 261.12443,401.31886 C 259.79358,402.64972 257.74315,403.18491 256.57874,404.34932 C 255.12401,405.80406 260.76771,406.15418 261.62951,406.36963 C 264.38065,407.05741 266.87036,407.56987 268.70057,409.40008 C 270.72947,411.42898 271.99631,413.2009 273.24626,414.45085 C 273.36531,414.56989 273.24626,414.78756 273.24626,414.95592 C 273.24626,415.3579 277.37138,417.52356 278.29702,417.98638 C 279.53115,418.60344 280.76776,420.2319 282.33763,421.01684 C 284.78821,422.24212 286.70486,422.86626 289.4087,423.54222 C 292.00627,424.19161 292.57715,425.48911 295.46962,426.0676 z"
       id="path4871" />
    <path
       style="opacity:1;fill:#d3bdac;fill-opacity:1;fill-rule:evenodd;stroke:none;stroke-width:2;stroke-linecap:round;stroke-linejoin:round;marker:none;marker-start:none;marker-mid:none;marker-end:none;stroke-miterlimit:4;stroke-dasharray:none;stroke-dashoffset:0;stroke-opacity:1;visibility:visible;display:inline;overflow:visible;enable-background:accumulate"
       d="M 320.21835,349.29601 C 320.89179,350.1378 321.56522,350.9796 322.23866,351.82139 C 324.66182,354.85035 328.37849,357.45614 331.33003,360.40769 C 333.98385,363.0615 336.37641,365.95477 337.89602,368.99398 C 339.33437,371.87068 339.66371,374.54951 340.4214,377.58028 C 340.93809,379.64702 341.0331,383.05753 341.43156,384.65135 C 342.03445,387.06291 343.47562,380.07398 344.96709,378.08536 C 346.09447,376.58218 349.04698,376.56031 351.02801,376.06505 C 353.4369,375.46283 355.14018,377.65184 357.08892,379.60058 C 358.1158,380.62746 361.28894,380.65059 363.14984,381.11581 C 365.58167,381.72377 369.32446,379.99195 370.72598,378.59043 C 371.91138,377.40503 372.45492,374.1224 373.25136,372.52952 C 374.54716,369.93791 376.7869,371.57658 376.7869,374.04474 C 376.7869,376.75779 376.28182,379.10259 376.28182,381.62089 C 376.28182,384.35275 375.10435,388.35105 376.28182,383.64119 C 376.82835,381.45505 377.79186,378.60081 378.8072,376.57013 C 380.05092,374.0827 380.1763,371.5988 380.82751,368.99398 C 381.44779,366.51286 381.5351,364.04327 382.34273,362.42799 C 383.29716,360.51913 384.29316,357.97548 385.87827,355.862 C 387.39002,353.84633 388.29637,351.02579 389.4138,348.79093 C 390.45875,346.70104 391.37128,343.99148 391.93918,341.71986 C 392.5723,339.18741 393.53463,337.51883 394.46456,335.65895 C 395.6781,333.23188 396.17616,332.23575 397.49502,329.59803 C 397.74665,329.09477 393.83367,330.10311 392.44426,330.10311 C 390.36504,330.10311 389.91888,326.76124 389.91888,324.54727 C 389.91888,320.76289 390.42395,316.94774 390.42395,313.43559 C 390.42395,309.78423 391.06347,306.02655 390.42395,302.82899 C 390.25003,301.95936 385.8225,307.11231 384.86812,308.38483 C 382.83042,311.10176 379.79813,313.45481 377.29197,315.96097 C 375.42361,317.82933 370.96076,317.02982 368.70568,316.46605 C 366.03263,315.79779 361.75546,313.05137 366.18029,317.4762 C 369.63517,320.93108 374.69091,322.45128 378.30212,326.0625 C 380.71725,328.47762 381.61027,331.71893 382.34273,334.6488 C 383.01329,337.331 382.38229,339.54133 381.83766,341.71986 C 381.40508,343.45018 377.14217,344.40897 375.77674,344.75032 C 373.42634,345.33792 370.63884,344.7721 368.70568,345.2554 C 366.70337,345.75597 370.59887,349.46325 371.23106,350.30616 C 373.20771,352.9417 369.65526,354.36191 367.69552,354.85185 C 364.61416,355.62219 361.72308,353.485 359.10923,352.83154 C 356.35046,352.14185 354.03199,352.08717 351.53308,353.33662 C 351.05501,353.57565 352.03816,359.9456 352.03816,360.91276 C 352.03816,363.57373 349.16476,362.97233 346.9874,362.42799 C 344.55284,361.81935 341.88379,359.8894 339.91633,359.39753 C 337.39938,358.7683 335.37492,356.62176 332.84526,355.35692 C 330.90618,354.38738 327.30916,354.73051 325.77419,354.34677 C 321.95397,353.39172 321.11795,353.79401 320.21835,349.29601 z"
       id="path4873" />
    <path
       style="opacity:1;fill:#c6ab6a;fill-opacity:1;fill-rule:evenodd;stroke:#000000;stroke-width:2;stroke-linecap:round;stroke-linejoin:round;marker:none;marker-start:none;marker-mid:none;marker-end:none;stroke-miterlimit:4;stroke-dasharray:none;stroke-dashoffset:0;stroke-opacity:1;visibility:visible;display:inline;overflow:visible;enable-background:accumulate"
       d="M 232.84016,310.40513 C 232.67158,311.07943 230.85466,304.48346 229.8097,300.30361 C 229.04816,297.25746 231.15852,293.39311 231.83001,290.70716 C 232.54379,287.85201 232.13393,284.44069 232.84016,281.61579 C 232.96266,281.12579 232.84016,280.60563 232.84016,280.10056 C 232.84016,277.05512 234.6629,273.31467 235.36554,270.50411 C 236.16587,267.30278 237.67531,264.80058 238.396,261.91781 C 239.25303,258.48968 239.71026,254.84144 240.4163,251.31121 C 241.1204,247.79072 241.87583,245.3617 243.44676,242.21984 C 244.99831,239.11674 245.52324,236.04657 246.98229,233.12846 C 248.47035,230.15235 250.28803,226.94547 252.03306,224.0371 C 253.99178,220.77256 256.55738,218.01891 258.09397,214.94572 C 259.31377,212.50613 260.55404,210.00381 262.13458,207.36958 C 264.13199,204.04057 267.71157,202.30824 270.72088,200.80359 C 274.59448,198.86678 278.54285,198.21675 282.33763,197.26805 C 285.11625,196.5734 284.35794,193.58199 284.35794,191.20714 C 284.35794,188.46715 283.85286,186.02306 283.85286,183.12592 C 283.85286,179.5971 288.37672,179.59038 290.92393,179.59038 C 294.6863,179.59038 296.21779,181.42364 299.51023,180.60054 C 301.6902,180.05554 299.00924,172.02242 298.50007,171.00409 C 298.48912,170.98219 307.04759,173.41294 313.65236,176.05485 C 316.97527,177.38401 320.65766,178.07515 324.25896,178.07515 C 326.22487,178.07515 327.32711,173.8838 327.7945,172.01424 C 328.7085,168.35821 332.57056,173.19717 334.36049,174.53962 C 338.44652,177.60415 343.86679,171.32423 346.9874,168.98378 C 355.54967,162.56207 350.83335,169.25731 349.51278,174.53962 C 348.6003,178.18951 349.20838,181.78713 352.54323,182.62084 C 356.58416,183.63107 361.88079,180.91462 366.68537,182.11576 C 369.89182,182.91738 371.64287,183.41863 369.21075,186.66145 C 366.70545,190.00186 366.01195,194.06925 368.2006,196.2579 C 368.88104,196.93834 383.28219,196.11396 385.87827,196.76298 C 386.5517,196.93134 387.22514,197.09969 387.89857,197.26805 C 391.00543,198.04477 386.89325,203.82922 385.87827,204.8442 C 381.62261,209.09985 386.49983,210.42916 390.42395,211.41019 C 397.15305,213.09246 402.04349,213.81139 407.59655,217.97618 C 412.12805,221.37481 415.26644,226.65623 419.2133,230.60308 C 422.51047,233.90025 427.02433,236.71389 430.32498,239.18938 C 433.24519,241.37954 421.87131,237.82822 420.22345,237.16907 C 419.38166,236.83236 418.53987,236.49564 417.69807,236.15892 C 415.54266,235.29676 409.11112,231.10685 411.63716,236.15892 C 413.33149,239.54758 421.6576,242.41156 424.76914,244.74522 C 428.04525,247.2023 426.43381,249.79598 423.25391,249.79598 C 420.35789,249.79598 414.25336,243.08821 415.67777,248.78583 C 416.88107,253.59904 422.02433,257.50456 423.25391,262.42289 C 424.12227,265.8963 424.13743,267.69489 421.73868,269.49396 C 418.5659,271.87355 417.69807,269.25668 417.69807,275.0498 C 417.69807,278.61269 418.20315,282.46757 418.20315,286.16147 C 418.20315,286.834 414.242,289.88425 413.65746,292.22239 C 412.57562,296.54975 413.69968,301.64996 412.64731,305.85945 C 411.94753,308.65859 410.73882,310.68659 409.61685,312.93052 C 408.65525,314.85372 409.11178,318.7459 409.11178,321.01174 C 409.11178,324.03577 409.44887,326.40073 410.12193,329.09296 C 410.70438,331.42277 407.32722,332.89782 406.5864,333.63864 C 403.64166,336.58338 404.06101,328.99722 404.06101,327.57773 C 404.06101,322.27357 402.26264,325.3355 400.0204,327.57773 C 397.13477,330.46336 397.62425,329.35142 395.97979,326.0625 C 394.43122,322.96535 395.68238,319.89775 391.43411,322.02189 C 390.67339,322.40225 393.53893,313.98191 393.95949,312.93052 C 395.64982,308.70468 397.58367,304.40606 398.50518,299.79853 C 399.40244,295.31223 402.04071,292.25003 402.04071,287.6767 C 402.04071,283.68705 401.53563,279.96356 401.53563,276.05995 C 401.53563,271.58014 401.08613,266.68578 400.0204,262.42289 C 398.94923,258.13821 397.58189,255.77003 394.96964,258.38228 C 392.11774,261.23418 390.64821,264.21894 387.89857,266.96858 C 385.0397,269.82745 384.59194,274.91544 383.85796,278.58533 C 383.02632,282.74352 382.35184,287.13521 381.33258,291.21224 C 380.44585,294.75915 379.81735,299.26194 379.81735,302.82899 C 379.81735,305.10133 378.74679,309.65841 377.79705,305.85945 C 376.46182,300.51855 376.7869,294.30666 376.7869,288.68685 C 376.7869,284.12003 377.79705,280.12796 377.79705,275.55487 C 377.79705,271.11073 375.16433,282.04515 374.76659,283.63609 C 373.7719,287.61484 372.74629,291.78103 372.74629,295.75792 C 372.74629,298.49533 371.73613,300.47688 371.73613,303.33407 C 371.73613,306.65462 368.17037,297.71776 366.68537,294.74777 C 365.39613,292.16929 360.66708,285.32182 362.13968,291.21224 C 363.24254,295.62365 364.05777,298.48773 363.14984,300.30361 C 363.03259,300.5381 359.6143,294.85403 359.6143,288.68685 C 359.6143,284.39327 359.09726,279.64336 360.11938,275.55487 C 360.90455,272.41418 362.37708,270.05961 363.14984,266.96858 C 363.73274,264.63696 363.58073,261.70946 364.15999,259.39243 C 364.82023,256.75148 361.50621,255.95107 361.12953,255.8569 C 359.71339,255.50286 353.87188,261.93148 352.54323,262.92796 C 349.38212,265.2988 348.31211,268.67431 345.47217,271.51426 C 342.60242,274.38401 339.06968,274.58033 335.37064,276.05995 C 330.32809,278.07697 324.02856,280.04562 318.70312,281.11071 C 314.33559,281.98422 309.96519,284.05281 305.57114,285.15132 C 299.09328,286.77079 303.64678,285.86096 307.08637,284.14117 C 311.31535,282.02668 314.99331,278.25454 318.19805,275.0498 C 321.98661,271.26124 325.1422,267.64287 328.29957,263.43304 C 331.06987,259.73931 330.33093,258.37399 326.27927,261.41274 C 322.10163,264.54597 318.45054,268.79951 314.15744,272.01934 C 310.74487,274.57877 307.99999,277.52131 304.56099,280.10056 C 301.48345,282.40871 298.03388,283.36411 294.45946,285.15132 C 290.62961,287.06625 285.28592,287.19217 281.32748,288.18178 C 279.57178,288.6207 273.80731,289.93555 278.8021,288.68685 C 284.94646,287.15076 290.44441,283.86947 295.46962,280.10056 C 301.00826,275.94657 304.9193,270.65087 309.61175,265.95842 C 315.51667,260.05351 309.76301,263.78686 306.58129,266.96858 C 301.69657,271.8533 294.50499,275.53211 288.39855,278.58533 C 282.83393,281.36764 279.31936,284.74239 273.24626,287.17163 C 269.44956,288.6903 265.94141,288.92064 264.65996,290.20208 C 262.04904,292.813 270.13027,285.23686 272.74118,282.62594 C 277.58906,277.77806 281.86561,272.81705 285.87317,267.47365 C 289.48716,262.655 290.77399,258.53222 284.86301,264.44319 C 279.50827,269.79793 275.19541,275.60824 269.20565,280.10056 C 265.57638,282.82251 262.77468,287.15996 260.11428,290.70716 C 257.41679,294.3038 261.25672,285.12722 261.62951,283.63609 C 262.77263,279.06361 265.23426,274.40628 267.18534,270.50411 C 270.0536,264.76759 264.2241,271.88092 263.14473,274.03964 C 261.1412,278.04671 258.74812,281.97179 255.56859,285.15132 C 251.34444,289.37547 254.35195,282.38453 255.06351,280.60563 C 256.54417,276.90398 256.19835,273.27885 254.55844,269.99903 C 252.92834,266.73884 251.92017,268.93534 251.0229,272.52441 C 250.20278,275.80491 249.09449,278.76911 247.48737,275.55487 C 245.86972,272.31957 244.01014,269.04719 243.95184,268.98888 C 243.30197,268.33901 240.65694,277.62278 240.4163,278.58533 C 239.8169,280.98293 240.8422,286.34984 241.42645,288.68685 C 242.14991,291.58067 242.98559,293.05692 242.43661,295.25285 C 242.35337,295.58581 238.396,288.66312 238.396,295.75792 C 238.396,298.82391 238.2661,301.06847 237.38584,302.82899 C 237.21252,303.17563 234.20432,303.93832 233.34523,307.37468 C 233.0082,308.72283 232.84016,316.77664 232.84016,310.40513 z"
       id="path4334" />
    <path
       style="opacity:1;fill:#c7a694;fill-opacity:1;fill-rule:evenodd;stroke:#000000;stroke-width:2;stroke-linecap:round;stroke-linejoin:round;marker:none;marker-start:none;marker-mid:none;marker-end:none;stroke-miterlimit:4;stroke-dasharray:none;stroke-dashoffset:0;stroke-opacity:1;visibility:visible;display:inline;overflow:visible;enable-background:accumulate"
       d="M 247.99245,488.19198 C 248.1608,487.35019 248.32916,486.5084 248.49752,485.6666 C 249.02134,483.04751 248.88421,480.58432 249.50767,478.09046 C 250.09185,475.75376 250.51783,472.86031 250.51783,470.51431 C 250.51783,468.26603 251.70456,466.12055 252.53813,464.4534 C 253.58409,462.36149 254.24856,461.22774 255.56859,459.90771 C 257.15315,458.32315 258.47449,455.5281 260.11428,453.34172 C 261.61168,451.34519 262.95103,449.99989 264.65996,448.29096 C 266.60092,446.35 268.75036,448.49011 269.20565,450.31126 C 269.71733,452.35799 269.60885,455.76952 269.20565,457.38233 C 268.60429,459.78778 268.27588,460.75709 267.18534,462.93817 C 266.33699,464.63487 266.00672,466.81064 265.16504,468.49401 C 264.23651,470.35106 263.56334,471.6974 262.63966,473.54477 C 261.59366,475.63676 266.60858,471.05523 268.70057,470.00924 C 271.22244,468.7483 271.47308,468.51566 272.23611,465.46355 C 272.81785,463.1366 272.74817,460.88992 273.24626,458.89756 C 273.87045,456.40078 274.17389,454.17688 274.76149,451.82649 C 275.33046,449.55062 278.42339,447.47016 279.81225,446.77573 C 282.64597,445.35887 285.29438,444.87118 288.39855,444.25035 C 291.13198,443.70366 292.31493,444.09302 294.96454,444.75542 C 295.89391,444.98777 298.07798,448.962 298.50007,449.80619 C 299.83533,452.47671 299.76695,454.84857 298.50007,457.38233 C 297.11918,460.14411 296.19596,462.05311 295.46962,464.95847 C 295.15306,466.22472 300.65618,462.0787 301.53053,461.42294 C 302.99066,460.32784 304.38621,457.447 305.57114,455.8671 C 306.86228,454.14559 309.12,454.3552 311.12698,454.85695 C 312.57377,455.21865 314.47089,458.70594 315.16759,459.40264 C 316.99727,461.23232 317.83926,462.0743 319.2082,463.44325 C 320.52696,464.76201 319.51703,468.38142 318.70312,470.00924 C 317.44786,472.51977 316.22873,473.94787 315.16759,476.07015 C 312.76615,480.87304 316.76025,476.47199 318.19805,474.55492 C 319.74005,472.49892 320.26833,470.96941 321.73358,469.50416 C 323.11068,468.12706 326.48151,469.55472 328.29957,470.00924 C 330.59839,470.58394 331.11232,473.92792 332.34018,475.56508 C 333.81519,477.53175 334.39754,479.75391 334.86556,481.62599 C 335.54588,484.34725 335.11774,486.1724 333.85541,488.69706 C 332.78693,490.83403 331.54295,492.52475 329.8148,494.2529 C 327.73232,496.33538 334.5338,490.4215 337.39095,489.70721 C 339.21677,489.25076 340.4214,493.48017 340.4214,494.75797 C 340.4214,496.56667 340.91999,499.27772 341.43156,501.32397 C 341.96417,503.45444 341.38832,506.54767 340.92648,508.39503 C 340.31182,510.85367 338.02393,512.77018 336.38079,514.96103 C 334.53039,517.42823 332.75089,519.19038 331.33003,522.03209 C 330.35064,523.99088 327.47573,524.63717 325.77419,525.06255 C 323.60707,525.60433 321.16142,525.56763 318.70312,525.56763 C 315.82671,525.56763 313.2811,526.0727 310.6219,526.0727 C 307.36087,526.0727 304.65975,526.57778 301.53053,526.57778 C 298.88326,526.57778 297.46599,525.18284 294.96454,524.55747 C 292.97631,524.06042 289.66547,523.42317 287.89347,522.53717 C 286.24086,521.71086 283.03812,521.02194 280.8224,521.02194 C 279.14531,521.02194 276.31847,519.01207 274.25641,518.49656 C 271.90885,517.90967 269.54345,516.47707 268.1955,515.4661 C 266.30825,514.05066 264.36166,512.53903 262.13458,511.42549 C 260.10221,510.40931 258.00182,508.30289 256.57874,506.8798 C 254.48804,504.78911 252.45575,503.17951 251.0229,500.31381 C 250.00881,498.28562 249.12405,497.26408 248.49752,494.75797 C 247.94989,492.56745 247.52396,490.5344 247.99245,488.19198 z"
       id="path4875" />
    <path
       style="opacity:1;fill:#d3bdac;fill-opacity:1;fill-rule:evenodd;stroke:none;stroke-width:2;stroke-linecap:round;stroke-linejoin:round;marker:none;marker-start:none;marker-mid:none;marker-end:none;stroke-miterlimit:4;stroke-dasharray:none;stroke-dashoffset:0;stroke-opacity:1;visibility:visible;display:inline;overflow:visible;enable-background:accumulate"
       d="M 263.14473,452.83664 C 262.80802,453.67844 262.4713,454.52023 262.13458,455.36202 C 261.20376,457.68908 259.58219,459.96173 258.59905,461.92802 C 257.58751,463.9511 255.46037,465.17492 254.55844,466.97878 C 253.56268,468.9703 254.08972,471.88409 253.54828,474.04985 C 253.07545,475.94119 252.53813,478.61817 252.53813,481.12091 C 252.53813,483.65322 251.52798,485.92935 251.52798,488.69706 C 251.52798,490.65746 252.03306,493.46485 252.03306,495.76813 C 252.03306,498.06378 256.77282,501.51805 258.09397,502.83919 C 259.71463,504.45986 260.63355,505.89805 261.62951,507.88996 C 261.84075,508.31244 261.54684,502.16879 260.61935,500.31381 C 258.87837,496.83184 258.0754,495.30018 259.6092,492.23259 C 260.94272,489.56555 265.11071,490.1987 267.18534,490.71736 C 271.14248,491.70665 270.9496,492.50895 274.25641,489.20214 C 276.53884,486.91971 278.29702,483.78332 278.29702,480.61584 C 278.29702,479.98483 274.25641,479.95769 274.25641,477.58538 C 274.25641,475.55303 280.52643,472.93514 282.33763,472.02954 C 284.39746,470.99963 286.67369,468.70364 287.89347,467.48386 C 287.92094,467.45639 283.07842,463.17388 282.84271,462.93817 C 281.28999,461.38545 281.83256,458.28062 281.83256,455.8671 C 281.83256,453.81914 282.83326,449.82508 280.8224,453.8468 C 279.52056,456.45048 278.9596,459.27771 278.29702,461.92802 C 277.59752,464.72604 275.98335,466.76707 273.75134,468.99908 C 271.82155,470.92887 269.46053,472.65971 267.69042,473.54477 C 265.45778,474.66109 263.07962,476.35525 261.62951,477.0803 C 259.01224,478.38894 257.44304,475.9918 257.08382,474.55492 C 256.38962,471.77814 258.59905,468.86074 258.59905,465.96863 C 258.59905,463.62837 259.4404,460.75039 260.11428,459.40264 C 261.26683,457.09752 261.98508,455.73579 263.14473,452.83664 z"
       id="path4877" />
    <path
       style="opacity:1;fill:#d3bdac;fill-opacity:1;fill-rule:evenodd;stroke:none;stroke-width:2;stroke-linecap:round;stroke-linejoin:round;marker:none;marker-start:none;marker-mid:none;marker-end:none;stroke-miterlimit:4;stroke-dasharray:none;stroke-dashoffset:0;stroke-opacity:1;visibility:visible;display:inline;overflow:visible;enable-background:accumulate"
       d="M 324.25896,522.03209 C 325.10076,521.69538 325.94255,521.35866 326.78434,521.02194 C 330.06189,519.71092 332.02377,516.28759 334.36049,513.95087 C 336.99565,511.31571 338.21239,510.16001 338.90617,507.38488 C 339.66291,504.35796 341.30694,503.85594 340.4214,500.31381 C 339.80196,497.83602 338.21825,497.12224 335.87572,498.29351 C 333.64184,499.41045 331.23442,500.21145 328.80465,500.81889 C 326.00337,501.51921 325.26912,502.06123 325.26912,498.29351 C 325.26912,496.08313 327.67651,493.47872 328.29957,492.23259 C 329.48785,489.85605 330.82495,489.00154 330.82495,486.17168 C 330.82495,483.29796 329.66477,481.83101 328.80465,480.11076 C 326.66528,475.83203 324.65318,480.09022 322.74373,482.63614 C 320.74555,485.30039 319.60441,485.94635 316.68282,486.67675 C 313.38683,487.50075 311.71189,485.24136 309.61175,483.14122 C 308.26477,481.79424 307.20502,477.61585 306.07622,482.13107 C 305.25206,485.42772 306.66059,487.1192 308.6016,489.70721 C 310.54749,492.30174 311.73702,495.23465 313.65236,497.78843 C 315.3745,500.08461 318.05359,501.75627 318.70312,504.35442 C 319.42313,507.23447 320.02534,509.64328 320.72343,512.43564 C 321.11565,514.00451 318.4565,516.46837 317.69297,517.48641 C 315.68048,520.16973 322.41513,521.66333 324.25896,522.03209 z"
       id="path4879" />
    <path
       style="opacity:1;fill:#916c57;fill-opacity:1;fill-rule:evenodd;stroke:none;stroke-width:2;stroke-linecap:round;stroke-linejoin:round;marker:none;marker-start:none;marker-mid:none;marker-end:none;stroke-miterlimit:4;stroke-dasharray:none;stroke-dashoffset:0;stroke-opacity:1;visibility:visible;display:inline;overflow:visible;enable-background:accumulate"
       d="M 271.73103,511.93057 C 273.43205,514.01963 278.12572,518.15838 281.83255,520.01179 C 284.9254,521.55822 287.59328,522.20959 290.92393,523.04225 C 292.42997,523.41876 296.03972,522.53717 297.99499,522.53717 C 300.48879,522.53717 302.82884,523.54733 305.57114,523.54733 C 309.4396,523.54733 308.28291,523.81339 304.56098,521.02195 C 301.37791,518.63464 299.38338,514.32911 296.47976,511.4255 C 294.2096,509.15534 292.20158,507.41481 290.92393,504.8595 C 290.14874,503.30914 289.62421,501.53949 288.39854,500.31382 C 286.18413,498.0994 283.86055,505.11012 280.8224,505.86966 C 278.40436,506.47417 277.21077,508.43309 275.26656,509.40519 C 273.99809,510.03943 273.04296,510.88103 271.73103,511.93057 z"
       id="path4881" />
    <path
       style="opacity:1;fill:#916c57;fill-opacity:1;fill-rule:evenodd;stroke:none;stroke-width:2;stroke-linecap:round;stroke-linejoin:round;marker:none;marker-start:none;marker-mid:none;marker-end:none;stroke-miterlimit:4;stroke-dasharray:none;stroke-dashoffset:0;stroke-opacity:1;visibility:visible;display:inline;overflow:visible;enable-background:accumulate"
       d="M 381.33258,376.57012 C 381.91853,378.88054 384.97885,380.16103 387.89857,381.62089 C 390.46976,382.90648 392.3444,382.68097 394.46456,381.62089 C 396.63031,380.53801 396.99889,376.53431 397.49502,374.54982 C 398.08218,372.20118 397.9202,369.31354 398.50517,366.97367 C 399.11049,364.5524 399.59127,362.12421 400.0204,360.40768 C 400.57502,358.1892 400.52548,356.05739 400.52548,353.33662 C 400.52548,350.34541 398.84598,355.68545 398.00009,357.37723 C 396.60684,360.16373 395.81396,361.97566 393.95948,364.44829 C 392.65431,366.18853 391.91656,368.57938 391.4341,370.50921 C 390.81979,372.96647 386.70086,372.52951 385.87826,372.52951 C 383.75942,372.52951 382.64416,374.82135 381.33258,376.57012 z"
       id="path4889" />
    <path
       style="opacity:1;fill:none;fill-opacity:1;fill-rule:evenodd;stroke:#000000;stroke-width:2;stroke-linecap:round;stroke-linejoin:round;marker:none;marker-start:none;marker-mid:none;marker-end:none;stroke-miterlimit:4;stroke-dasharray:none;stroke-dashoffset:0;stroke-opacity:1;visibility:visible;display:inline;overflow:visible;enable-background:accumulate"
       d="M 385.37319,365.96352 C 384.06367,367.27305 390.10082,364.30709 390.92903,365.96352 C 392.2702,368.64586 393.18445,366.23349 394.96964,364.4483 C 396.60719,362.81074 396.03663,359.67527 396.48487,357.8823 C 397.12427,355.32472 396.92222,353.60752 397.49502,351.31631 C 398.34623,347.91147 394.14614,351.63474 393.95949,351.82139 C 393.30457,352.47631 393.23093,352.71531 392.94934,353.84169"
       id="path4861" />
    <path
       style="opacity:1;fill:none;fill-opacity:1;fill-rule:evenodd;stroke:#000000;stroke-width:2;stroke-linecap:round;stroke-linejoin:round;marker:none;marker-start:none;marker-mid:none;marker-end:none;stroke-miterlimit:4;stroke-dasharray:none;stroke-dashoffset:0;stroke-opacity:1;visibility:visible;display:inline;overflow:visible;enable-background:accumulate"
       d="M 214.65741,516.47625 C 214.99413,515.80282 215.33085,515.12938 215.66756,514.45595 C 217.05173,511.68762 218.49529,509.81065 219.70817,507.38488 C 220.75715,505.28693 223.32571,503.05073 224.75894,502.33412 C 228.00578,500.71069 228.28768,503.18497 230.81985,499.80874 C 232.21124,497.95356 232.80576,495.83693 233.85031,493.74782 C 234.8561,491.73624 236.23032,490.23776 237.38584,488.69706 C 238.00051,487.8775 241.5584,487.02258 242.94168,486.67675"
       id="path4891" />
    <path
       style="opacity:1;fill:#f7554c;fill-opacity:1;fill-rule:evenodd;stroke:#000000;stroke-width:1.75020921;stroke-linecap:round;stroke-linejoin:round;marker:none;marker-start:none;marker-mid:none;marker-end:none;stroke-miterlimit:4;stroke-dasharray:none;stroke-dashoffset:0;stroke-opacity:1;visibility:visible;display:inline;overflow:visible;enable-background:accumulate"
       d="M 205.07635,84.296334 C 201.4608,88.283669 201.82105,98.81099 202.37879,106.23081 C 202.923,113.4706 203.23916,120.9611 202.31336,128.48899 C 201.79908,132.67072 201.86055,138.83844 202.34168,142.74286 C 202.9198,147.43423 202.75338,150.98906 203.01741,151.73246 C 203.31033,152.55715 213.25448,150.47097 213.86967,150.39515 C 219.32615,149.72276 224.47757,152.5904 229.55459,153.21477 C 230.55312,153.33759 229.38626,141.33068 229.31047,140.71566 C 228.72454,135.96088 227.6809,132.23992 228.29687,127.23127 C 228.46803,125.83956 237.04395,126.58543 240.90387,126.10977 C 247.25129,125.32759 250.50623,126.90052 249.66351,120.06186 C 249.07649,115.29812 252.16562,110.57244 246.46354,109.87117 C 241.70567,109.28604 238.71929,110.70007 233.96443,110.1153 C 233.17452,110.01816 231.77475,98.951903 231.96556,97.400385 C 232.48282,93.194327 233.02765,94.859055 240.18567,95.739367 C 246.5543,96.522599 249.58944,96.671627 248.8374,90.568836 C 248.17134,85.163756 247.93006,82.638745 243.77477,81.039729 C 239.81429,79.515684 235.51164,80.914156 231.38356,80.406474 C 227.44668,79.922306 222.57067,80.213291 218.11497,79.665316 C 214.49683,79.220348 208.24471,81.201325 205.07635,84.296334 z"
       id="path4917" />
    <path
       style="opacity:1;fill:#f7554c;fill-opacity:1;fill-rule:evenodd;stroke:#000000;stroke-width:1.75020921;stroke-linecap:round;stroke-linejoin:round;marker:none;marker-start:none;marker-mid:none;marker-end:none;stroke-miterlimit:4;stroke-dasharray:none;stroke-dashoffset:0;stroke-opacity:1;visibility:visible;display:inline;overflow:visible;enable-background:accumulate"
       d="M 264.83186,83.62939 C 262.8663,83.387659 263.40503,101.85174 263.88906,105.77968 C 264.03766,106.98548 264.18624,108.19128 264.33484,109.3971 C 265.14602,115.97997 265.23766,122.56961 267.33315,128.46946 C 269.11952,133.49898 270.49449,136.5796 273.82683,140.84652 C 277.11835,145.06117 279.80217,146.59178 284.47743,148.39091 C 288.70168,150.01645 293.1939,150.55709 297.63812,150.00944 C 302.85469,149.36662 305.42063,147.10396 309.02989,144.28523 C 312.10739,141.88179 313.736,134.98711 314.26585,130.67878 C 315.13215,123.63469 316.49638,116.40836 315.97813,109.51378 C 315.52489,103.48427 316.0902,98.152139 315.39614,92.51987 C 314.87069,88.255842 314.50481,85.28672 314.05883,81.667614 C 313.91955,80.537338 302.43462,80.939842 301.66762,81.03436 C 296.32547,81.692665 295.63099,81.13131 296.41751,87.513879 C 296.94865,91.824134 297.13195,96.188674 296.55373,100.89037 C 296.01928,105.2361 297.22236,109.9378 296.68996,114.26686 C 295.99775,119.89538 296.14157,122.62623 292.65508,125.34909 C 288.99944,128.20403 285.12938,118.62121 284.85241,116.37364 C 284.1402,110.59404 282.67151,105.1388 283.39304,99.271833 C 283.88949,95.235077 283.86121,89.046896 283.36473,85.017963 C 282.74092,79.955751 280.58198,81.113137 275.02254,80.429421 C 269.87952,79.796918 259.87664,84.408389 271.18932,82.629948"
       id="path4919" />
    <path
       style="opacity:1;fill:#f7554c;fill-opacity:1;fill-rule:evenodd;stroke:#000000;stroke-width:1.75020921;stroke-linecap:round;stroke-linejoin:round;marker:none;marker-start:none;marker-mid:none;marker-end:none;stroke-miterlimit:4;stroke-dasharray:none;stroke-dashoffset:0;stroke-opacity:1;visibility:visible;display:inline;overflow:visible;enable-background:accumulate"
       d="M 365.37841,84.416442 C 356.70571,83.349848 350.89028,82.248397 342.58073,88.737912 C 335.53995,94.236558 330.70349,98.409653 329.57042,107.6228 C 328.52365,116.13439 327.80536,123.72427 332.02924,131.08207 C 335.14739,136.51377 342.17522,140.72953 347.5125,142.78339 C 352.81347,144.82328 355.05569,147.27366 361.11896,148.01935 C 365.18821,148.51979 371.18538,145.70257 374.92706,144.37361 C 377.83514,143.34072 374.66312,136.30061 373.69766,132.64397 C 372.17192,126.8653 373.48689,123.90875 368.31133,125.747 C 363.69011,127.38835 361.39492,127.67998 357.56697,126.20694 C 353.46393,124.62803 351.5148,122.51956 349.4406,119.86364 C 347.50929,117.3907 352.10405,108.70294 352.70598,107.79614 C 354.81153,104.62418 361.02492,106.14727 362.68086,106.35093 C 365.7135,106.72389 364.08334,102.18917 364.63727,97.68503 C 365.51973,90.509564 364.83032,82.873252 365.37841,84.416442 z"
       id="path4921" />
    <path
       style="opacity:1;fill:#f7554c;fill-opacity:1;fill-rule:evenodd;stroke:#000000;stroke-width:1.75020921;stroke-linecap:round;stroke-linejoin:round;marker:none;marker-start:none;marker-mid:none;marker-end:none;stroke-miterlimit:4;stroke-dasharray:none;stroke-dashoffset:0;stroke-opacity:1;visibility:visible;display:inline;overflow:visible;enable-background:accumulate"
       d="M 384.78866,85.912917 C 387.95558,94.829368 385.54036,106.92817 389.01639,116.71493 C 391.62711,124.06539 389.00897,133.23054 391.47521,140.17419 C 393.50586,145.8915 393.11905,147.3568 394.78307,149.4875 C 394.95037,149.70171 406.90901,149.19747 409.03694,149.45917 C 410.76167,149.67129 407.16926,143.06801 406.71435,139.3764 C 405.87721,132.58304 404.31035,129.50518 405.70075,125.89201 C 407.38193,121.52319 415.15219,127.83874 416.01349,128.9416 C 419.31827,133.17322 422.28937,139.52423 423.93822,144.16659 C 425.49862,148.55988 427.78825,148.20266 433.15779,148.86303 C 435.65655,149.17034 438.12812,147.93674 440.50052,147.09412 C 446.66577,144.90435 433.69299,135.87771 431.03684,129.89857 C 429.00926,125.3344 424.87199,119.86989 422.8963,116.42833 C 422.7614,116.19334 428.3877,100.74481 428.67177,98.434977 C 429.27393,93.538691 431.32383,84.112581 431.59929,81.872677 C 431.9532,78.995037 420.07706,79.404176 419.42389,79.484666 C 414.86778,80.046107 414.24734,85.366001 413.63426,90.351079 C 413.05162,95.088696 410.57851,100.67985 409.27568,104.06544 C 407.77234,107.97211 406.7134,99.2137 405.75202,96.506891 C 403.9884,91.541438 401.62203,89.287131 401.01308,84.345646 C 400.53461,80.462768 386.76663,85.034233 384.78866,85.912917 C 383.17294,86.630683 388.29818,86.344528 390.05293,86.560332"
       id="path4923" />
    <path
       style="opacity:1;fill:#f7554c;fill-opacity:1;fill-rule:evenodd;stroke:#000000;stroke-width:1.75020921;stroke-linecap:round;stroke-linejoin:round;marker:none;marker-start:none;marker-mid:none;marker-end:none;stroke-miterlimit:4;stroke-dasharray:none;stroke-dashoffset:0;stroke-opacity:1;visibility:visible;display:inline;overflow:visible;enable-background:accumulate"
       d="M 204.46701,171.03558 C 206.79828,181.14936 212.64957,194.16803 215.4774,198.323 C 218.30523,202.47797 216.34671,211.35061 217.38693,216.6822 C 218.23059,221.00626 217.10285,226.72935 217.35136,231.07245 C 217.40573,232.02268 230.8807,231.15729 231.74162,231.10803 C 240.27972,230.61947 240.72579,234.24392 240.17467,224.61249 C 239.71293,216.54306 237.4301,209.57716 237.35354,201.58097 C 237.30436,196.44514 239.13711,194.67806 242.10461,190.78638 C 245.0523,186.92066 247.60821,185.00838 249.29594,181.3554 C 250.91164,177.85828 252.77322,175.87376 254.75038,171.59431 C 256.8614,167.02514 255.49276,166.33652 250.53007,165.39331 C 246.17772,164.56611 241.60937,162.79803 236.80004,161.88397 C 234.05021,161.36133 233.02576,167.53917 232.21402,171.81012 C 231.65294,174.76226 230.08691,177.43652 228.82657,180.16443 C 228.42494,181.03375 220.80615,167.26891 220.55099,166.89399 C 217.92154,163.0305 215.38901,164.65729 210.83306,165.94682 C 204.42379,167.76091 201.32507,157.40488 204.46701,171.03558 z"
       id="path4925"
       sodipodi:nodetypes="ccsssssssssssssss" />
    <path
       style="opacity:1;fill:#f7554c;fill-opacity:1;fill-rule:evenodd;stroke:#000000;stroke-width:1.75020921;stroke-linecap:round;stroke-linejoin:round;marker:none;marker-start:none;marker-mid:none;marker-end:none;stroke-miterlimit:4;stroke-dasharray:none;stroke-dashoffset:0;stroke-opacity:1;visibility:visible;display:inline;overflow:visible;enable-background:accumulate"
       d="M 266.11888,163.85705 C 264.51895,172.4236 264.18237,181.69243 266.54289,190.03224 C 268.33028,196.34714 268.14111,205.29507 266.92376,211.70016 C 266.23179,215.34095 267.39018,219.8515 267.54841,222.61664 C 267.77875,226.64191 265.87045,230.39605 271.27356,231.42297 C 276.53321,232.42262 281.83211,230.73028 287.40071,231.78865 C 292.79373,232.81365 297.98466,232.00062 303.36279,233.02278 C 310.38363,234.35717 311.04907,231.57214 311.839,231.03452 C 315.38584,228.62058 310.92112,222.49944 310.67602,218.21609 C 310.42169,213.77137 303.53682,215.83286 299.38626,216.07035 C 294.60111,216.34417 290.64753,217.10892 285.86445,216.19984 C 284.24948,215.8929 284.5646,208.49546 284.37135,205.1183 C 284.27815,203.48952 291.16559,204.51477 294.41939,204.32859 C 299.65206,204.02917 301.98037,201.45101 302.19222,201.30683 C 305.81357,198.84219 300.41104,192.69667 300.1608,188.32334 C 300.01042,185.6952 290.67198,187.14831 289.57443,187.2111 C 286.15811,187.4066 288.07389,179.75271 287.91627,176.99802 C 287.73179,173.77412 299.00876,174.60718 300.89975,174.96658 C 307.4003,176.20207 310.16151,174.30207 309.00269,170.20794 C 307.46971,164.79185 306.34647,161.86124 304.03582,158.46617 C 303.572,157.78465 291.65916,159.17437 289.48051,159.29904 C 285.26243,159.5404 280.59841,159.59254 277.69558,159.75863 C 270.89187,160.14795 271.54492,157.77235 266.11888,163.85705 z"
       id="path4929" />
    <path
       style="opacity:1;fill:#f7554c;fill-opacity:1;fill-rule:evenodd;stroke:#000000;stroke-width:1.75020921;stroke-linecap:round;stroke-linejoin:round;marker:none;marker-start:none;marker-mid:none;marker-end:none;stroke-miterlimit:4;stroke-dasharray:none;stroke-dashoffset:0;stroke-opacity:1;visibility:visible;display:inline;overflow:visible;enable-background:accumulate"
       d="M 336.40211,157.22794 C 334.0975,157.23414 332.13385,157.48801 331.06944,158.21243 C 327.88687,160.37845 327.00697,162.30453 327.35024,168.30349 C 327.64634,173.47814 325.22013,178.67892 325.27187,184.08272 C 325.34696,191.92522 325.52989,200.13595 326.01024,208.53095 C 326.54883,217.94339 325.96772,231.07985 326.22902,231.06489 L 331.78046,230.32652 C 320.7474,231.81309 333.90598,230.72298 338.7266,231.63918 C 346.51706,233.11983 344.73448,231.57804 344.38744,225.51345 C 344.12128,220.86203 337.9234,210.80593 342.50049,211.67586 C 347.62846,212.65048 353.09692,210.57293 354.834,213.12525 C 357.50286,217.04666 358.29849,223.75248 361.04177,227.78325 C 364.88331,233.42767 365.24326,228.59784 371.46099,229.77958 C 377.14941,230.86072 379.46208,231.87661 377.66876,225.5408 C 376.26438,220.57905 376.03364,218.30628 374.60589,213.26198 C 373.06689,207.82464 369.3947,201.07727 369.05445,195.13091 C 368.50127,185.46357 363.95184,177.88143 359.61973,169.04185 C 356.66998,163.02296 356.56331,158.32172 350.84133,158.37652 C 348.22242,158.4016 341.47224,157.21431 336.40211,157.22794 z M 345.23519,169.5341 C 346.18741,168.26477 343.31599,172.066 342.36376,173.33534 C 350.40258,171.04716 349.55892,178.87634 350.95072,185.72354 C 352.43756,193.03824 354.36413,194.69606 348.18867,195.95132 C 342.38197,197.13164 340.86795,197.75242 340.96906,192.17743 C 340.99073,190.9827 341.62261,173.13571 342.36376,173.33534 C 340.83757,173.76975 344.28296,170.80344 345.23519,169.5341 z"
       id="path4931" />
    <path
       style="opacity:1;fill:#f7554c;fill-opacity:1;fill-rule:evenodd;stroke:#000000;stroke-width:1.75020921;stroke-linecap:round;stroke-linejoin:round;marker:none;marker-start:none;marker-mid:none;marker-end:none;stroke-miterlimit:4;stroke-dasharray:none;stroke-dashoffset:0;stroke-opacity:1;visibility:visible;display:inline;overflow:visible;enable-background:accumulate"
       d="M 385.91326,163.23004 C 387.00101,161.52673 384.30385,174.96307 387.16256,185.06302 C 389.18297,192.20115 389.251,202.79578 389.65358,209.83142 C 389.9331,214.71616 390.83025,217.84346 389.94812,222.48479 C 389.18863,226.48087 395.43459,227.11009 399.00582,226.90574 C 404.96547,226.56473 407.81665,229.00288 406.07527,222.85048 C 404.34828,216.74897 404.73612,210.86124 403.13224,205.19467 C 401.79307,200.46333 413.04399,203.01928 415.24727,202.99818 C 421.99681,202.93355 422.20288,204.27622 420.70931,212.13462 C 419.76922,217.0809 423.06445,223.35859 424.14751,227.18511 C 425.20302,230.9143 431.95985,226.8703 435.76738,227.59395 C 436.50799,227.73471 435.76529,209.27058 435.7598,208.69642 C 435.74541,207.194 435.73102,205.69158 435.71664,204.18915 C 435.63637,195.80679 433.90618,186.17997 431.65379,178.22218 C 430.17442,172.99553 429.37636,168.44565 429.08402,163.33676 C 428.70337,156.68453 427.13487,158.13638 422.63165,159.41098 C 417.30069,160.91987 415.05485,159.27491 411.38505,161.77252 C 409.86899,162.80433 412.41959,172.34621 412.54804,174.59095 C 412.78938,178.80877 413.15786,185.58548 413.00764,186.37587 C 412.77581,187.59561 405.17928,184.67433 404.98343,181.25154 C 404.69173,176.15369 402.69637,171.30651 402.41368,166.36611 C 402.11488,161.14445 399.43239,162.02696 395.09285,162.27527 C 391.73377,162.46748 389.57035,163.19502 385.91326,163.23004 z"
       id="path4935" />
    <path
       style="opacity:1;fill:#ff5e09;fill-opacity:1;fill-rule:evenodd;stroke:#000000;stroke-width:2;stroke-linecap:round;stroke-linejoin:round;marker:none;marker-start:none;marker-mid:none;marker-end:none;stroke-miterlimit:4;stroke-dasharray:none;stroke-dashoffset:0;stroke-opacity:1;visibility:visible;display:inline;overflow:visible;enable-background:accumulate"
       d="M 126.45699,546.77005 C 122.19039,544.09374 115.05341,545.7003 109.3538,550.17041 C 104.27011,554.15745 101.40951,558.5073 98.549906,564.54904 C 94.840496,572.38629 93.833686,580.10191 94.023516,588.89605 C 94.199146,597.03257 104.4826,605.83641 109.65188,610.78724 C 114.65142,615.5755 122.35646,619.60649 129.03651,619.4623 C 135.28904,619.32733 141.068,619.75755 146.1615,617.07187 C 150.22404,614.92979 147.03042,609.09306 145.8999,604.95286 C 144.3871,599.41265 145.61871,597.88621 140.69772,597.99244 C 134.50936,598.12602 130.57011,595.69799 125.43996,593.26985 C 120.39916,590.88401 117.6093,587.8444 116.11091,582.35696 C 114.84853,577.73389 119.29568,574.98087 122.96232,572.10518 C 125.84251,569.84631 134.90632,571.05011 138.11108,571.77818 C 142.78069,572.83907 139.31575,565.95904 137.87128,560.66909 C 136.85279,556.93915 135.71126,547.17816 135.54626,546.57386 C 134.74798,543.65042 129.48675,546.70465 126.45699,546.77005 z"
       id="path4938" />
    <path
       style="opacity:1;fill:#ff5e09;fill-opacity:1;fill-rule:evenodd;stroke:#000000;stroke-width:2;stroke-linecap:round;stroke-linejoin:round;marker:none;marker-start:none;marker-mid:none;marker-end:none;stroke-miterlimit:4;stroke-dasharray:none;stroke-dashoffset:0;stroke-opacity:1;visibility:visible;display:inline;overflow:visible;enable-background:accumulate"
       d="M 168.1444,546.83228 C 163.07445,546.94844 157.78411,547.62563 157.88175,552.14875 C 158.06341,560.56473 158.245,568.97692 158.42666,577.39287 C 158.64457,587.48801 156.92748,599.85615 159.12466,609.72908 C 159.46276,611.24829 159.77543,612.76269 160.16041,614.27029 C 161.29433,614.94245 170.3344,623.86976 172.53952,621.56734 C 175.16221,618.82892 176.76865,615.01027 175.28614,608.34874 C 174.31308,603.97634 171.08572,592.27936 176.93701,592.15309 C 184.29827,591.99419 185.37979,595.0762 187.27748,602.02598 C 188.57761,606.78731 189.84834,615.9319 194.66542,617.02629 C 200.01058,618.24065 212.32721,624.99594 210.88332,619.70817 C 209.84235,615.89588 209.76839,611.02139 208.5693,606.63006 C 206.73413,599.9093 205.55095,594.13386 202.09413,587.57786 C 197.09599,578.09869 193.38271,567.16105 188.31802,557.55567 C 183.20808,547.86447 184.67686,546.53794 172.92589,546.79159 C 171.48675,546.82265 169.83439,546.79356 168.1444,546.83228 z M 160.16041,614.27029 C 160.00673,614.17919 160.05581,614.28942 160.22896,614.55013 C 160.20412,614.45662 160.18435,614.36402 160.16041,614.27029 z M 160.22896,614.55013 C 160.24534,614.61177 160.24745,614.67538 160.26425,614.73691 L 164.40382,619.71123 C 161.82931,616.63175 160.61319,615.12861 160.22896,614.55013 z M 175.27319,564.30751 C 175.73064,564.25929 176.09994,564.40726 176.34826,564.87819 C 178.16585,568.32534 178.35252,572.21827 179.64047,576.93495 C 181.39988,583.37828 174.11876,583.70231 173.68863,582.1271 C 172.33184,577.15823 166.76832,570.75971 170.33101,567.0398 C 171.80082,566.41476 173.90085,564.45215 175.27319,564.30751 z"
       id="path4940" />
    <path
       style="opacity:1;fill:#008733;fill-opacity:1;fill-rule:evenodd;stroke:none;stroke-width:2;stroke-linecap:round;stroke-linejoin:round;marker:none;marker-start:none;marker-mid:none;marker-end:none;stroke-miterlimit:4;stroke-dasharray:none;stroke-dashoffset:0;stroke-opacity:1;visibility:visible;display:inline;overflow:visible;enable-background:accumulate"
       d="M 208.09142,558.90266 C 208.5965,559.74446 209.10158,560.58625 209.60665,561.42805 C 211.79953,565.08285 216.87864,567.1848 219.70818,570.01434 C 222.12776,572.43392 225.03777,573.8287 226.77925,575.57018 C 228.61994,577.41088 230.45219,578.41681 232.84016,579.61079 C 234.99435,580.68788 237.90264,578.21304 239.40615,577.08541 C 241.91847,575.20117 244.31347,572.1781 245.97214,570.51942 C 247.82628,568.66528 254.64014,570.47857 257.5889,569.00419 C 261.27137,567.16296 264.9622,562.33779 268.1955,559.91282 C 271.35905,557.54015 275.51009,556.50806 278.8021,554.86205 C 281.77101,553.3776 284.59908,551.64504 287.89348,550.82144 C 292.08649,549.77319 294.57745,547.673 297.48992,544.76053 C 299.71673,542.53373 301.73601,538.28866 303.04576,535.66916 C 304.98541,531.78986 304.05039,531.50366 299.51023,532.6387 C 294.6812,533.84596 289.19986,533.29189 284.86302,531.12347 C 281.78532,529.58462 278.97474,528.60129 276.27672,526.57778 C 274.71937,525.40977 270.23621,525.08296 273.24626,528.09301 C 276.38171,531.22846 277.28687,534.08997 277.28687,537.68946 C 277.28687,541.17368 269.84435,537.72287 267.69042,537.18438 C 263.75413,536.20031 259.84461,536.20849 258.09398,539.70977 C 256.74677,542.40418 255.94922,545.5145 254.55844,548.29606 C 253.32288,550.7672 243.78969,548.7606 241.93153,548.29606 C 237.62172,547.21861 237.89092,550.43867 237.89092,554.35698 C 237.89092,557.57698 233.45146,558.39759 230.81986,558.39759 C 226.09827,558.39759 222.19797,559.91282 217.68787,559.91282 C 214.10339,559.91282 211.21518,558.27791 208.09142,558.90266 z"
       id="path4972" />
    <path
       style="opacity:1;fill:#ff5e09;fill-opacity:1;fill-rule:evenodd;stroke:#000000;stroke-width:2;stroke-linecap:round;stroke-linejoin:round;marker:none;marker-start:none;marker-mid:none;marker-end:none;stroke-miterlimit:4;stroke-dasharray:none;stroke-dashoffset:0;stroke-opacity:1;visibility:visible;display:inline;overflow:visible;enable-background:accumulate"
       d="M 216.51403,552.9092 C 214.85584,549.76437 219.95104,571.71052 220.28498,587.181 C 220.48238,596.32556 220.6307,605.18857 222.87161,613.39524 C 224.55296,619.55269 227.47205,618.34787 234.0897,618.20503 C 241.47393,618.04563 248.40907,618.90633 255.31977,618.75715 C 263.65325,618.57727 258.21852,612.62302 258.02252,603.54299 C 257.8337,594.79582 251.45471,596.94359 244.7192,595.74705 C 234.88721,594.00043 237.62197,594.61157 237.38817,583.78064 C 237.19264,574.7223 235.87021,563.92123 237.78769,555.48116 C 239.65484,547.26267 234.62592,547.96358 228.56764,549.61785 C 222.2413,551.34532 223.3553,548.60097 216.51403,552.9092 z"
       id="path4944" />
    <path
       style="opacity:1;fill:#ff5e09;fill-opacity:1;fill-rule:evenodd;stroke:#000000;stroke-width:2;stroke-linecap:round;stroke-linejoin:round;marker:none;marker-start:none;marker-mid:none;marker-end:none;stroke-miterlimit:4;stroke-dasharray:none;stroke-dashoffset:0;stroke-opacity:1;visibility:visible;display:inline;overflow:visible;enable-background:accumulate"
       d="M 264.94646,549.84297 C 264.37733,549.99838 267.67205,582.49431 267.7947,588.17623 C 267.98768,597.11636 269.16195,604.70903 269.34961,613.40236 C 269.50804,620.74201 277.44649,618.27953 283.59745,618.14676 C 290.82784,617.99068 296.63465,618.87572 303.8176,618.72067 C 307.4804,618.64161 303.6245,609.77521 303.4906,603.57191 C 303.33188,596.21907 305.03498,593.4347 297.21309,593.60355 C 289.04881,593.77978 285.42225,595.16846 282.02073,591.9107 C 278.43825,588.47962 281.442,565.09994 281.32314,559.59335 C 281.14774,551.46761 282.21617,548.68287 275.06744,550.6349 C 271.58357,551.58619 268.04011,550.39256 264.94646,549.84297 z"
       id="path4946" />
    <path
       style="opacity:1;fill:#ff5e09;fill-opacity:1;fill-rule:evenodd;stroke:#000000;stroke-width:2;stroke-linecap:round;stroke-linejoin:round;marker:none;marker-start:none;marker-mid:none;marker-end:none;stroke-miterlimit:4;stroke-dasharray:none;stroke-dashoffset:0;stroke-opacity:1;visibility:visible;display:inline;overflow:visible;enable-background:accumulate"
       d="M 332.71938,544.18626 C 328.19411,544.62167 322.82352,549.62009 319.53452,551.6913 C 316.84586,552.42546 321.14679,578.59701 321.26354,584.00526 C 321.46727,593.44318 322.658,602.26897 322.85138,611.22734 C 322.95312,615.94028 323.05515,620.66734 323.15688,625.38029 C 323.17165,626.06418 340.75212,624.31499 342.31833,623.96644 C 348.70054,622.54613 355.35018,618.36856 360.30535,614.48231 C 363.71193,611.81061 365.24923,608.93243 365.12658,603.25065 C 364.98461,596.6742 360.21194,590.64972 355.6647,586.29464 C 350.06305,580.92971 344.0629,581.81804 353.48084,579.24638 C 361.31541,577.10711 361.8227,571.26592 363.26741,564.90684 C 364.81056,558.11442 359.67547,553.54212 355.87947,549.90653 C 350.41712,544.675 341.26593,545.8326 334.53483,544.30336 C 334.23369,544.23494 333.93814,544.18133 333.62542,544.16671 C 333.33224,544.153 333.02106,544.15724 332.71938,544.18626 z M 340.12416,555.62288 C 340.33475,555.60738 340.54728,555.60133 340.74902,555.60939 C 342.21621,555.66798 343.42469,556.37355 343.93129,558.22882 C 345.19343,562.85104 344.61655,567.96474 339.1413,569.45981 C 335.1763,570.54249 327.82334,558.6109 331.83137,559.5215 C 332.94294,558.59219 336.96533,555.85536 340.12416,555.62288 z M 335.20097,593.98806 C 335.31316,593.90078 335.4445,594.13181 335.62466,594.7916 C 341.39421,594.66706 347.52308,594.48847 345.89971,601.63395 C 345.67527,602.62187 337.32064,613.08725 335.9079,607.91354 C 334.93501,604.35062 334.59515,594.45939 335.20097,593.98806 z"
       id="path4948" />
    <path
       style="opacity:1;fill:#ff5e09;fill-opacity:1;fill-rule:evenodd;stroke:#000000;stroke-width:2;stroke-linecap:round;stroke-linejoin:round;marker:none;marker-start:none;marker-mid:none;marker-end:none;stroke-miterlimit:4;stroke-dasharray:none;stroke-dashoffset:0;stroke-opacity:1;visibility:visible;display:inline;overflow:visible;enable-background:accumulate"
       d="M 396.63007,540.80624 C 394.66009,540.81876 392.48467,541.02075 390.04055,541.0735 C 382.80823,541.22962 385.4368,545.83992 384.1973,551.29574 C 382.27394,559.76168 381.60576,571.69847 381.79934,580.66683 C 382.04747,592.16179 382.0777,605.98954 379.55379,617.09877 C 383.59346,617.01157 390.78081,620.77733 391.67597,616.83711 C 392.29173,614.12676 393.56568,610.25873 393.44508,604.67109 C 393.32486,599.10166 391.69903,593.71954 399.30992,595.44863 C 406.32192,597.04166 408.61313,595.16407 410.5535,602.27007 C 411.14857,604.44934 413.57257,616.36447 414.92056,616.33535 C 417.50259,616.27962 429.35517,617.17641 429.04227,616.03052 C 427.57083,610.64179 426.17038,605.45557 424.66262,599.93379 C 422.04853,590.36044 416.69212,581.87936 413.96089,571.87696 C 412.11184,565.10539 410.41487,548.71526 405.25869,543.77696 C 402.65074,541.27922 399.91336,540.78535 396.63007,540.80624 z M 397.60316,564.16568 C 402.91818,569.25609 402.26782,571.9262 403.96908,578.15655 C 405.49363,583.7398 397.77362,585.21864 396.99589,582.37052 C 395.64255,577.41427 396.21824,570.26156 397.60316,564.16568 z"
       id="path4954" />
    <path
       style="opacity:1;fill:#ff5e09;fill-opacity:1;fill-rule:evenodd;stroke:#000000;stroke-width:2;stroke-linecap:round;stroke-linejoin:round;marker:none;marker-start:none;marker-mid:none;marker-end:none;stroke-miterlimit:4;stroke-dasharray:none;stroke-dashoffset:0;stroke-opacity:1;visibility:visible;display:inline;overflow:visible;enable-background:accumulate"
       d="M 454.72371,541.70493 C 452.70351,534.30652 435.89895,558.25177 435.88408,558.2778 C 430.4728,567.75435 431.27984,579.01786 431.51029,589.69424 C 431.67042,597.11228 435.86634,606.72371 441.07914,611.71622 C 445.71503,616.1562 454.35881,614.98445 460.37657,616.35161 C 466.45515,617.73259 468.1551,616.4913 471.42027,613.08206 C 472.81306,611.62781 468.54639,600.69718 468.08531,599.00862 C 467.01726,595.0972 459.89837,599.15858 455.94451,598.26031 C 450.82552,597.09733 447.79832,592.60938 446.63725,588.35733 C 445.09389,582.70519 448.11784,576.48463 451.35984,573.09957 C 454.13157,570.20554 462.49552,570.05887 463.41345,569.80822 C 465.84158,569.1452 461.53742,549.91667 460.91402,547.63364 C 459.835,543.68203 460.83171,541.57308 454.72371,541.70493 z"
       id="path4958" />
    <path
       style="opacity:1;fill:#ff5e09;fill-opacity:1;fill-rule:evenodd;stroke:#000000;stroke-width:2;stroke-linecap:round;stroke-linejoin:round;marker:none;marker-start:none;marker-mid:none;marker-end:none;stroke-miterlimit:4;stroke-dasharray:none;stroke-dashoffset:0;stroke-opacity:1;visibility:visible;display:inline;overflow:visible;enable-background:accumulate"
       d="M 478.03901,545.2432 C 475.99706,537.76516 479.38303,560.69949 479.55032,568.4495 C 479.80158,580.08929 482.06438,591.30114 482.31136,602.74309 C 482.46165,609.70541 482.29213,611.62603 485.60271,614.7967 C 487.75851,616.86141 499.49471,613.797 500.72966,613.45979 C 502.73153,612.91316 497.92067,599.92578 497.35112,597.36651 C 495.11594,587.3229 498.52318,591.98609 503.43242,598.24563 C 507.66909,603.6476 511.50495,608.27718 512.84867,613.19819 C 513.76907,616.56885 523.77158,613.97279 528.01923,613.88111 C 535.93854,613.71016 525.46493,605.50051 521.69813,601.8929 C 514.95019,595.43013 509.7781,585.56526 505.01626,578.00368 C 501.61545,572.60336 504.80781,569.27829 508.75073,563.77764 C 513.22893,557.53023 516.44211,545.6303 516.28507,538.35531 C 516.21153,534.94848 510.05347,536.46904 505.13238,536.57527 C 501.92353,536.64453 501.11986,544.28408 500.3226,547.79336 C 499.1839,552.80551 498.59131,557.6256 497.59804,561.9976 C 496.73206,565.80933 495.34713,551.33654 495.273,547.90236 C 495.10894,540.30199 495.84351,539.11169 489.06091,540.96373 C 478.25543,543.91427 479.13552,546.70787 490.07082,540.94193"
       id="path4960" />
    <path
       style="opacity:1;fill:#ff5e09;fill-opacity:1;fill-rule:evenodd;stroke:#000000;stroke-width:2;stroke-linecap:round;stroke-linejoin:round;marker:none;marker-start:none;marker-mid:none;marker-end:none;stroke-miterlimit:4;stroke-dasharray:none;stroke-dashoffset:0;stroke-opacity:1;visibility:visible;display:inline;overflow:visible;enable-background:accumulate"
       d="M 567.89985,542.2931 C 570.27392,541.04131 554.15653,538.65415 549.65594,539.65574 C 542.13874,541.32867 537.17839,544.81318 535.7569,551.07003 C 534.40571,557.01747 537.25964,558.61011 542.0562,562.04833 C 548.28489,566.51312 553.12792,570.67408 558.52007,575.83837 C 562.17189,579.33587 562.78187,586.04151 562.88674,590.89993 C 563.04972,598.45018 556.24083,597.10572 549.88862,597.24283 C 543.6499,597.3775 537.8712,594.05392 532.58923,591.55392 C 528.78101,589.75148 531.99211,599.59806 532.82903,602.66301 C 534.36038,608.27117 535.83801,610.08479 541.12636,612.58779 C 546.11977,614.9512 553.38086,614.34404 559.34847,614.21522 C 565.85035,614.07488 568.69422,612.71854 572.36839,608.88224 C 576.35845,604.71612 576.76946,600.63965 579.15441,595.60072 C 581.7342,590.15016 578.90306,583.95612 578.78382,578.43212 C 578.68453,573.8323 572.25048,568.13755 569.38937,564.48948 C 565.69381,559.77745 564.50543,557.52219 572.26652,557.35466 C 578.0332,557.23018 577.48519,559.72507 575.16547,551.22975 C 573.76591,546.10427 573.1953,544.94466 572.99304,544.20394"
       id="path4962" />
    <path
       style="opacity:1;fill:#17c158;fill-opacity:1;fill-rule:evenodd;stroke:none;stroke-width:2;stroke-linecap:round;stroke-linejoin:round;marker:none;marker-start:none;marker-mid:none;marker-end:none;stroke-miterlimit:4;stroke-dasharray:none;stroke-dashoffset:0;stroke-opacity:1;visibility:visible;display:inline;overflow:visible;enable-background:accumulate"
       d="M 242.43661,410.41024 C 239.75662,409.15403 237.08637,411.71987 234.35539,414.45085 C 231.93023,416.87602 228.76892,418.0017 225.76909,419.50161 C 222.75406,421.00913 221.46798,423.67247 218.69803,425.05745 C 216.59686,426.10803 214.54333,428.82116 213.64726,430.61329 C 212.50246,432.90289 212.32144,434.90641 211.62696,437.68436 C 210.81463,440.93369 210.46935,441.7987 207.58635,443.2402 C 204.38303,444.84186 202.86442,446.62315 201.52543,449.30111 C 200.22443,451.90311 198.73047,453.37581 197.48482,455.8671 C 196.0525,458.73174 194.37343,461.07974 192.93914,463.94832 C 191.48481,466.85698 191.16873,469.00964 190.41375,472.02955 C 189.68032,474.9633 188.72664,476.24204 186.37314,478.59554 C 183.46472,481.50396 182.33253,483.16252 182.33253,487.18183 C 182.33253,489.87688 182.83761,491.99757 182.83761,494.75798 C 182.83761,498.17075 182.27207,500.43474 180.81731,503.34427 C 179.18156,506.61576 178.62288,510.10168 177.78685,513.4458 C 177.26635,515.52778 178.95119,520.32018 179.80715,522.0321 C 181.25412,524.92602 182.33253,527.67956 182.33253,531.12347 C 182.33253,533.69833 183.91078,536.42661 184.85792,537.68946 C 186.57802,539.98294 188.30375,540.60032 189.90868,542.74022 C 191.66795,545.08592 193.95712,546.7867 195.96959,548.29606 C 196.09651,548.39125 193.19814,540.73286 192.43406,539.20469 C 191.18884,536.71424 190.41375,533.95291 190.41375,531.12347 C 190.41375,527.75418 193.03704,527.08286 195.96959,527.08286 C 200.52557,527.08286 198.75187,523.05096 197.48482,520.51687 C 195.45953,516.46628 192.23348,513.78493 189.90868,509.91027 C 188.1,506.89581 186.99579,504.38921 187.88837,500.81889 C 188.63453,497.83427 191.65744,494.52445 193.44421,492.73767 C 196.16136,490.02052 197.70192,488.19199 201.52543,488.19199 C 205.76493,488.19199 206.05134,489.727 208.5965,487.18183 C 210.13216,485.64617 207.20603,478.84505 206.5762,477.58538 C 204.84489,474.12277 203.11699,472.7344 204.05081,468.99909 C 204.92986,465.4829 214.34366,462.24178 216.67772,459.90771 C 219.98365,456.60179 217.82491,455.33853 215.16249,453.34172 C 214.36374,452.74266 230.48936,447.54894 231.83001,447.28081 C 236.16335,446.41414 239.84966,444.53368 243.44676,442.73512 C 245.99923,441.45889 244.94488,436.60575 244.45692,434.6539 C 243.80964,432.06481 240.31819,428.70559 239.91123,427.07776 C 239.23255,424.36303 246.88378,422.93551 248.49753,422.53207 C 251.19871,421.85677 254.5072,422.67115 257.08382,422.02699 C 260.19964,421.24804 263.67903,421.55113 260.61936,418.49146 C 258.84061,416.71271 254.39463,416.0514 252.03306,415.461 C 248.74657,414.63938 246.60722,414.58085 244.96199,412.93562 C 242.82807,410.8017 250.59832,415.30726 242.43661,410.41024 z"
       id="path4968" />
    <path
       style="opacity:1;fill:#17c158;fill-opacity:1;fill-rule:evenodd;stroke:none;stroke-width:2;stroke-linecap:round;stroke-linejoin:round;marker:none;marker-start:none;marker-mid:none;marker-end:none;stroke-miterlimit:4;stroke-dasharray:none;stroke-dashoffset:0;stroke-opacity:1;visibility:visible;display:inline;overflow:visible;enable-background:accumulate"
       d="M 217.68787,521.52702 C 218.52967,521.52702 219.37146,521.52702 220.21326,521.52702 C 222.10274,521.52702 224.40559,527.45351 225.26402,528.59809 C 227.49544,531.57331 227.67553,533.25764 229.8097,531.12347 C 231.22689,529.70628 229.36594,522.29192 229.8097,520.51687 C 230.51173,517.70878 232.68154,518.45691 234.86047,519.00164 C 238.19637,519.83561 240.69758,520.51687 244.45692,520.51687 C 248.191,520.51687 244.32007,516.12543 243.44676,514.96103 C 241.37748,512.20199 241.4397,510.89394 242.94169,507.88996 C 244.35856,505.05622 244.00494,505.09877 246.9823,504.35443 C 247.24181,504.28955 245.15873,496.5551 244.96199,495.76813 C 244.05399,492.13613 242.31416,495.89058 240.41631,497.78843 C 237.99317,500.21157 236.24126,502.46855 234.35539,504.35443 C 232.83381,505.87601 231.9299,507.79007 230.31478,509.40519 C 228.24508,511.47489 225.21124,509.96304 223.24371,511.93057 C 221.262,513.91228 220.3001,514.8959 218.19295,516.47626 C 215.1833,518.73349 215.37946,517.67966 217.68787,521.52702 z"
       id="path4970" />
    <path
       style="opacity:1;fill:#008733;fill-opacity:1;fill-rule:evenodd;stroke:none;stroke-width:2;stroke-linecap:round;stroke-linejoin:round;marker:none;marker-start:none;marker-mid:none;marker-end:none;stroke-miterlimit:4;stroke-dasharray:none;stroke-dashoffset:0;stroke-opacity:1;visibility:visible;display:inline;overflow:visible;enable-background:accumulate"
       d="M 448.00265,442.73512 C 448.00447,444.70067 449.60282,448.3759 452.04326,450.81634 C 454.6044,453.37748 455.30465,458.81113 456.08387,461.92802 C 456.95726,465.42157 458.76733,468.62123 459.6194,472.02955 C 460.17854,474.26607 461.92832,474.6992 462.64986,477.58539 C 463.34912,480.38243 465.00585,482.46366 465.68032,485.16153 C 466.51098,488.48418 466.88171,491.98738 467.70062,495.26305 C 468.64122,499.02544 468.30142,503.22206 469.21585,506.87981 C 469.82298,509.30832 470.22601,512.54972 470.22601,514.96103 C 470.22601,517.16273 470.72444,520.49029 471.23616,522.53717 C 471.70554,524.41468 470.17363,527.79745 469.72093,529.60824 C 469.16377,531.83688 464.83174,534.03275 464.67017,534.15393 C 464.26987,534.45415 462.33708,528.35713 462.14479,527.58794 C 461.40083,524.61212 460.83547,522.85576 460.12448,520.01179 C 459.37036,516.99531 459.31783,514.25979 458.60925,511.4255 C 457.87829,508.50165 457.29254,505.65357 456.58895,502.8392 C 455.74084,499.44679 455.07372,495.86241 455.07372,492.2326 C 455.07372,489.73358 453.06137,486.21147 452.54834,483.6463 C 451.95091,480.65915 451.14156,478.30736 450.02296,476.07016 C 448.84744,473.71913 449.96145,471.26541 450.52803,468.99909 C 451.23288,466.17971 450.65586,461.42917 450.02296,458.89756 C 449.34647,456.19161 448.50773,452.51158 448.50773,449.80619 C 448.50773,446.95163 448.00265,445.81086 448.00265,442.73512 z"
       id="path4974" />
  </g>
</svg>
