<?xml version="1.0" encoding="UTF-8" standalone="no"?>
<!-- Created with Inkscape (http://www.inkscape.org/) -->
<svg
   xmlns:dc="http://purl.org/dc/elements/1.1/"
   xmlns:cc="http://creativecommons.org/ns#"
   xmlns:rdf="http://www.w3.org/1999/02/22-rdf-syntax-ns#"
   xmlns:svg="http://www.w3.org/2000/svg"
   xmlns="http://www.w3.org/2000/svg"
   xmlns:sodipodi="http://sodipodi.sourceforge.net/DTD/sodipodi-0.dtd"
   xmlns:inkscape="http://www.inkscape.org/namespaces/inkscape"
   width="744.09448819"
   height="1052.3622047"
   id="svg5031"
   sodipodi:version="0.32"
   inkscape:version="0.46"
   sodipodi:docname="no.svg"
   inkscape:output_extension="org.inkscape.output.svg.inkscape">
  <defs
     id="defs5033">
    <inkscape:perspective
       sodipodi:type="inkscape:persp3d"
       inkscape:vp_x="0 : 526.18109 : 1"
       inkscape:vp_y="0 : 1000 : 0"
       inkscape:vp_z="744.09448 : 526.18109 : 1"
       inkscape:persp3d-origin="372.04724 : 350.78739 : 1"
       id="perspective5039" />
  </defs>
  <sodipodi:namedview
     id="base"
     pagecolor="#ffffff"
     bordercolor="#666666"
     borderopacity="1.0"
     gridtolerance="10000"
     guidetolerance="10"
     objecttolerance="10"
     inkscape:pageopacity="0.0"
     inkscape:pageshadow="2"
     inkscape:zoom="1"
     inkscape:cx="295.82215"
     inkscape:cy="911.03669"
     inkscape:document-units="px"
     inkscape:current-layer="layer1"
     showgrid="false"
     inkscape:window-width="1438"
     inkscape:window-height="898"
     inkscape:window-x="0"
     inkscape:window-y="0" />
  <metadata
     id="metadata5036">
    <rdf:RDF>
      <cc:Work
         rdf:about="">
        <dc:format>image/svg+xml</dc:format>
        <dc:type
           rdf:resource="http://purl.org/dc/dcmitype/StillImage" />
      </cc:Work>
    </rdf:RDF>
  </metadata>
  <g
     inkscape:label="Layer 1"
     inkscape:groupmode="layer"
     id="layer1">
    <path
       style="opacity:1;fill:#ac9393;fill-opacity:1;fill-rule:evenodd;stroke:#000000;stroke-width:2;stroke-linecap:round;stroke-linejoin:round;marker:none;marker-start:none;marker-mid:none;marker-end:none;stroke-miterlimit:4;stroke-dasharray:none;stroke-dashoffset:0;stroke-opacity:1;visibility:visible;display:inline;overflow:visible;enable-background:accumulate"
       d="M 317.67041,242.25689 C 316.62305,243.18644 308.59813,254.6143 310.89912,253.9967 C 310.92855,253.50285 308.93465,266.39372 311.5938,276.30087 C 313.5936,283.7515 312.71091,291.92446 316.32193,298.84543 C 319.6056,305.139 320.59024,310.11115 325.44408,315.58018 C 329.88471,320.58363 331.27309,323.42341 337.47774,325.9108 C 343.03676,328.13937 350.8978,326.41569 355.39451,322.42479 C 360.74054,317.68012 367.15985,315.35104 371.36128,309.2091 C 377.75786,299.8581 387.37986,295.8285 391.07423,284.07332 C 394.27827,273.87839 395.80316,264.15334 396.43634,253.52856 C 397.05409,243.16275 398.61097,232.99022 397.765,222.74342 C 397.40506,218.38359 394.63963,211.09929 394.03862,208.8601 C 393.87143,206.835 378.87521,209.62261 377.78462,209.91534 C 371.58141,211.58032 372.00525,211.79882 370.71947,218.09582 C 369.68157,223.1788 370.31858,228.62791 369.28385,233.69541 C 368.14042,239.2952 369.80768,246.98531 370.2189,251.96614 C 370.61367,256.74779 367.88927,262.06958 366.3525,265.90295 C 364.61473,270.23771 361.71928,273.16791 360.11543,277.16862 C 358.86337,280.29182 355.13085,282.14471 352.69633,282.79814 C 351.52378,283.11286 350.79346,281.28659 349.79142,280.60114 C 349.38475,279.42625 348.97809,278.25136 348.57142,277.07646 C 347.52684,274.05857 345.1016,270.78336 342.85714,267.79075 C 340.35745,264.45784 340.22428,260.11646 339.28571,256.36218 C 338.39108,252.78365 336.2393,249.74434 334.28571,247.79075 C 331.92679,245.43183 331.68583,243.74792 327.85714,242.79075 C 326.27657,242.39561 323.9605,242.07646 321.42857,242.07646"
       id="path5043"
       inkscape:export-filename="/home/substack/projects/dnode-slides/images/no.png"
       inkscape:export-xdpi="150.17508"
       inkscape:export-ydpi="150.17508" />
    <path
       style="opacity:1;fill:#c8b7b7;fill-opacity:1;fill-rule:evenodd;stroke:#000000;stroke-width:2;stroke-linecap:round;stroke-linejoin:round;marker:none;marker-start:none;marker-mid:none;marker-end:none;stroke-miterlimit:4;stroke-dasharray:none;stroke-dashoffset:0;stroke-opacity:1;visibility:visible;display:inline;overflow:visible;enable-background:accumulate"
       d="M 360,116.36218 C 357.56338,121.23543 360.37505,136.84464 361.42857,144.21932 C 362.84217,154.11453 363.57143,164.0722 363.57143,174.21932 C 363.57143,181.48385 364.28572,188.98585 364.28572,196.36218 C 364.28572,201.76247 362.14286,206.5843 362.14286,212.07646 C 362.14286,215.9685 362.14286,219.35696 362.14286,223.50504 C 362.14286,227.42794 362.47406,229.88173 363.57143,232.07646 C 365.22444,235.38248 370.58948,229.21932 374.28572,229.21932 C 379.17473,229.21932 380,227.98829 380,223.50504 C 380,217.751 377.57453,210.6634 376.42857,204.93361 C 374.80421,196.81178 373.57143,188.22689 373.57143,179.93361 C 373.57143,172.61256 373.89489,162.65602 372.14286,155.64789 C 370.56846,149.35031 370.71429,140.73427 370.71429,134.21932 C 370.71429,128.84042 369.28572,123.72849 369.28572,118.50504 C 369.28572,116.14997 368.27515,110.89136 367.85714,109.21932 C 367.58587,108.13424 361.34828,116.55479 355,115.6479 C 353.33334,115.4098 358.55634,117.22838 360,116.36218 z"
       id="path5065"
       inkscape:export-filename="/home/substack/projects/dnode-slides/images/no.png"
       inkscape:export-xdpi="150.17508"
       inkscape:export-ydpi="150.17508" />
    <path
       style="opacity:1;fill:#ac9393;fill-opacity:1;fill-rule:evenodd;stroke:#000000;stroke-width:2;stroke-linecap:round;stroke-linejoin:round;marker:none;marker-start:none;marker-mid:none;marker-end:none;stroke-miterlimit:4;stroke-dasharray:none;stroke-dashoffset:0;stroke-opacity:1;visibility:visible;display:inline;overflow:visible;enable-background:accumulate"
       d="M 217.14286,252.07647 C 216.9621,252.07647 234.90916,234.6446 236.42857,233.50504 C 240.74234,230.26971 247.71636,229.07595 252.85714,227.79075 C 259.70158,226.07964 266.73536,224.87225 273.57143,223.50504 C 279.99337,222.22065 285.07466,222.79075 291.42857,222.79075 C 296.38664,222.79075 301.93631,224.52483 306.42857,225.6479 C 310.03227,226.54882 312.31433,227.65505 315.71429,228.50504 C 319.49332,229.4498 321.93628,231.02868 324.28571,232.79075 C 325.76858,233.90291 327.45985,238.10775 329.28571,239.93361 C 330.83016,241.47805 331.49054,247.32433 332.14286,249.93361 C 333.20728,254.19129 333.57143,259.79011 333.57143,264.21932 C 333.57143,269.243 334.036,275.11361 335,279.93361 C 335.89752,284.42119 336.42857,289.84187 336.42857,294.21932 C 336.42857,297.8186 337.71324,302.92944 338.57143,306.36218 C 339.79228,311.2456 339.68496,316.21557 340.71429,321.36218 C 342.20639,328.82272 342.06855,336.70494 343.57143,344.21932 C 345.2705,352.71467 349.68002,361.43652 353.57143,369.21932 C 356.29295,374.66237 359.30627,381.44438 360.71429,387.07647 C 361.87759,391.72969 358.36692,389.93361 354.28571,389.93361 C 347.27091,389.93361 340.39159,389.21932 333.57143,389.21932 C 321.86656,389.21932 310.59696,391.39151 299.28571,394.21932 C 289.52895,396.65852 279.16582,398.67187 269.28571,400.6479 C 264.30266,401.64451 258.37914,403.60118 254.28571,405.6479 C 250.21625,407.68263 243.76777,408.32291 239.28571,409.21932 C 233.75691,410.32509 235.86366,411.9597 234.28571,405.6479 C 233.00419,400.52179 232.03715,395.22506 230.71429,389.93361 C 228.65962,381.71495 229.52554,372.56133 227.85714,364.21932 C 226.24539,356.16056 222.85715,353.93217 222.85715,345.6479 C 222.85715,337.53196 222.14286,329.22934 222.14286,321.36218 C 222.14286,315.99384 221.42857,310.40554 221.42857,304.93361 C 221.42857,301.38544 220.71429,298.0433 220.71429,294.21932 C 220.71429,289.80749 220.70543,285.59477 220,281.36218 C 219.28754,277.08739 219.28572,271.32333 219.28572,267.07647 C 219.28572,264.49544 218.45012,260.87695 217.85714,258.50504 C 217.30463,256.29499 217.14286,254.81975 217.14286,252.07647 z"
       id="path5045"
       sodipodi:nodetypes="csssssssssssssssssssssssssssssssssc"
       inkscape:export-filename="/home/substack/projects/dnode-slides/images/no.png"
       inkscape:export-xdpi="150.17508"
       inkscape:export-ydpi="150.17508" />
    <path
       style="opacity:1;fill:#978478;fill-opacity:1;fill-rule:evenodd;stroke:none;stroke-width:2;stroke-linecap:round;stroke-linejoin:round;marker:none;marker-start:none;marker-mid:none;marker-end:none;stroke-miterlimit:4;stroke-dasharray:none;stroke-dashoffset:0;stroke-opacity:1;visibility:visible;display:inline;overflow:visible;enable-background:accumulate"
       d="M 270.5,243.36218 C 271.33333,243.19552 272.16667,243.02885 273,242.86218 C 278.3029,241.8016 281.48053,242.12192 287,239.36218 C 289.89039,237.91699 292.84052,235.48179 295,233.86218 C 297.47416,232.00656 295.12112,229.7069 298.5,228.86218 C 298.98669,228.74051 304.28529,231.0585 305.5,231.36218 C 308.98577,232.23362 310.92861,231.43364 313.5,233.36218 C 315.73725,235.04012 315.15483,239.1033 317.5,240.86218 C 320.73506,243.28848 322.74681,243.4792 324.5,247.86218 C 326.04438,251.72312 326.98911,254.81863 328,258.86218 C 328.73205,261.79038 329.98195,263.84413 332,265.86218 C 334.03789,267.90007 334.50458,270.36676 336.5,272.36218 C 338.04081,273.90299 340.86187,276.17801 342.5,278.36218 C 344.25794,280.7061 347.23059,282.59277 349.5,284.86218 C 351.48327,286.84545 355.70173,284.26132 357.5,283.36218 C 360.44441,281.88998 362.51256,280.60904 365.5,279.86218 C 368.31472,279.1585 370.39366,273.78753 371,271.36218 C 372.21941,266.48456 373,261.95548 373,256.86218 C 373,254.06176 375.37945,250.60329 376.5,248.36218 C 377.94483,245.47252 378.20675,243.03516 379,239.86218 C 379.81893,236.58648 378.34283,234.70501 381.5,237.86218 C 384.53723,240.89941 384.98979,239.38261 386.5,236.36218 C 387.87247,233.61723 388.5,231.47849 388.5,228.36218 C 388.5,227.68047 391.55789,224.13063 392,222.36218 C 392.80946,219.12433 392.15454,229.0895 391.5,232.36218 C 390.51061,237.30914 389.56395,243.08894 387,247.36218 C 385.01374,250.67262 383.09353,253.26865 380.5,255.86218 C 378.59875,257.76343 377.72862,261.44768 377,264.36218 C 376.19528,267.58106 376.43944,268.80163 378,270.36218 C 379.73648,272.09866 380.07,274.50217 381,276.36218 C 382.08908,278.54034 382.14945,280.2644 381.5,282.86218 C 381.24487,283.88268 381.5,288.11136 381.5,289.86218 C 381.5,293.52141 381.55339,294.30879 379,296.86218 C 377.33284,298.52934 375.96196,300.40022 374,302.36218 C 372.43984,303.92235 371.18623,304.67596 369.5,306.36218 C 367.65293,308.20925 364.30988,309.00477 362.5,310.36218 C 359.90047,312.31183 358.42189,313.36218 355,313.36218 C 352.65856,313.36218 349.55197,315.0862 348,315.86218 C 345.62185,317.05125 344.55275,317.86218 341.5,317.86218 C 339.79486,317.86218 337.05797,311.97812 336.5,310.86218 C 335.19277,308.24772 333.70198,307.26614 332.5,304.86218 C 331.45167,302.76552 327.77557,301.13775 326.5,299.86218 C 325.02438,298.38656 324.45613,295.31832 322.5,293.36218 C 320.1806,291.04278 317.52984,290.89202 315,288.36218 C 312.67532,286.0375 312.293,282.65518 310,280.36218 C 308.86667,279.22885 303.50722,279.36218 302,279.36218 C 298.33069,279.36218 294.02689,277.37563 291,275.86218 C 287.75079,274.23758 284.4624,273.55466 281,272.86218 C 276.48037,271.95826 278.30059,270.46337 276.5,266.86218 C 274.89283,263.64784 267.80271,263.48326 265,262.36218 C 261.58467,260.99605 261.97853,258.25329 264.5,256.36218 C 266.87152,254.58354 270.07861,254.28358 272,252.36218 C 273.97783,250.38435 270.65202,247.5142 270,246.86218 C 268.52214,245.38432 268.45605,246.76877 270.5,243.36218 z"
       id="path5632"
       inkscape:export-filename="/home/substack/projects/dnode-slides/images/no.png"
       inkscape:export-xdpi="150.17508"
       inkscape:export-ydpi="150.17508" />
    <path
       style="opacity:1;fill:#ff6600;fill-opacity:1;fill-rule:evenodd;stroke:#000000;stroke-width:2;stroke-linecap:round;stroke-linejoin:round;marker:none;marker-start:none;marker-mid:none;marker-end:none;stroke-miterlimit:4;stroke-dasharray:none;stroke-dashoffset:0;stroke-opacity:1;visibility:visible;display:inline;overflow:visible;enable-background:accumulate"
       d="M 227.14286,240.6479 C 228.31525,237.13157 233.43598,235.06906 236.42857,232.07647 C 238.21493,230.29011 243.68347,227.94131 244.28571,227.79075 C 247.64893,226.94995 245.59249,234.69003 247.14286,237.79075 C 248.68119,240.86742 249.33782,244.42774 250,247.07647 C 250.83193,250.40417 250.60427,253.77924 251.42857,257.07647 C 252.1246,259.86057 254.33408,262.37905 255.71429,264.21932 C 257.35188,266.40279 258.15041,268.08402 260,269.93361 C 260.91816,270.85177 272.33573,269.21932 274.28571,269.21932 C 278.28929,269.21932 282.25594,268.50504 286.42857,268.50504 C 289.04773,268.50504 293.66536,266.16013 295.71429,265.6479 C 296.37473,265.48279 297.85714,254.02429 297.85714,252.79075 C 297.85714,246.03393 299.28571,239.5812 299.28571,232.79075 C 299.28571,229.0371 300.75496,223.34233 301.42857,220.6479 C 302.13623,217.81728 303.32481,220.88173 307.14286,222.79075 C 310.19061,224.31463 314.02606,225.87521 316.42857,227.07647 C 320.66388,229.19412 323.49644,224.5193 322.14286,229.93361 C 321.11343,234.05131 321.69637,238.86242 320.71429,242.79075 C 319.89108,246.08356 320.71429,250.78675 320.71429,254.21932 C 320.71429,258.02885 320.71429,261.83837 320.71429,265.6479 C 320.71429,269.73722 321.42857,271.56478 321.42857,275.6479 C 321.42857,279.14293 321.36882,282.55175 322.14286,285.6479 C 323.06047,289.31833 323.45393,291.60648 324.28571,294.93361 C 325.27539,298.89231 323.90931,302.03794 325.71429,305.6479 C 327.72588,309.67109 330.13258,312.01515 332.85714,315.6479 C 335.40509,319.04515 335.69744,320.63105 338.57143,323.50504 C 341.45975,326.39336 342.57183,326.64951 343.57143,330.6479 C 344.26579,333.42533 344.35332,337.41449 345,340.6479 C 345.90267,345.16126 345.85691,348.79028 347.85714,352.79075 C 349.88453,356.84553 353.04217,359.94221 355.71429,363.50504 C 358.64209,367.40877 355.86449,369.06912 353.57143,371.36218 C 351.19572,373.73789 345.87074,374.85538 342.85714,376.36218 C 340.289,377.64625 335.57381,378.00444 333.57143,378.50504 C 329.75512,379.45912 327.18382,379.7448 323.57143,380.6479 C 320.13327,381.50744 316.16561,382.07647 312.14286,382.07647 C 308.02343,382.07647 303.20193,384.66884 299.28571,385.6479 C 293.3209,387.1391 287.48993,388.22335 281.42857,390.6479 C 280.2381,391.12409 279.04762,391.60028 277.85714,392.07647 C 276.94567,392.44106 275.95238,392.55266 275,392.79075 C 270.24886,393.97854 267.43994,394.93361 262.14286,394.93361 C 257.39209,394.93361 253.35093,397.79075 248.57143,397.79075 C 245.09262,397.79075 241.62038,397.66014 239.28571,397.07647 C 236.36919,396.34734 232.30639,397.07647 229.28571,397.07647 C 225.87671,397.07647 227.96966,390.38369 227.14286,387.07647 C 226.2953,383.68622 224.5584,379.59577 223.57143,375.6479 C 222.48847,371.31607 221.06264,367.75559 220,363.50504 C 219.20777,360.33611 220.02383,355.55258 220.71429,352.79075 C 222.00065,347.64529 221.39807,347.82126 225,344.21932 C 227.80518,341.41414 230.42175,339.51186 233.57143,336.36218 C 236.03411,333.8995 237.78872,328.77873 238.57143,325.6479 C 239.48066,322.01098 240.53428,318.51076 241.42857,314.93361 C 242.19967,311.84922 241.28558,307.93307 240.71429,305.6479 C 239.86322,302.24364 238.07665,298.22976 236.42857,294.93361 C 234.71622,291.50891 232.89426,287.93922 232.14286,284.93361 C 231.21697,281.23006 230,278.78598 230,274.93361 C 230,272.09555 228.57143,268.48268 228.57143,264.93361 C 228.57143,261.08779 227.8187,257.63699 227.14286,254.93361 C 226.24954,251.36034 225.71429,248.4397 225.71429,244.93361 C 225.71429,235.77152 227.36847,248.24197 228.57143,250.6479"
       id="path5067"
       inkscape:export-filename="/home/substack/projects/dnode-slides/images/no.png"
       inkscape:export-xdpi="150.17508"
       inkscape:export-ydpi="150.17508" />
    <path
       style="opacity:1;fill:#ff7d26;fill-opacity:1;fill-rule:evenodd;stroke:none;stroke-width:2;stroke-linecap:round;stroke-linejoin:round;marker:none;marker-start:none;marker-mid:none;marker-end:none;stroke-miterlimit:4;stroke-dasharray:none;stroke-dashoffset:0;stroke-opacity:1;visibility:visible;display:inline;overflow:visible;enable-background:accumulate"
       d="M 235.5,248.86218 C 235.13361,253.69695 236.3726,257.85259 237.5,262.36218 C 238.93168,268.0889 239.82006,273.06203 237.5,278.86218 C 234.96306,285.20454 235.80796,288.96815 241,292.86218 C 245.50126,296.23813 247.11572,300.09362 249.5,304.86218 C 251.73884,309.33986 252.5,314.91348 252.5,319.86218 C 252.5,323.58255 247.37935,328.98283 245,331.36218 C 242.01865,334.34353 239.45785,338.5308 238.5,342.36218 C 237.37608,346.85785 235.40912,350.81661 234.5,355.36218 C 233.53244,360.19996 234.9697,363.24097 236,367.36218 C 237.02781,371.47343 238.639,372.95243 243,371.86218 C 251.96898,369.61994 261.00659,367.43173 270,364.86218 C 276.9882,362.86555 280.87094,361.50747 279.5,368.36218 C 278.78908,371.91679 273.07821,375.50674 278.5,376.86218 C 283.16,378.02718 292.55908,374.36218 298,374.36218 C 303.85696,374.36218 311.42115,373.2569 317,371.86218 C 320.96263,370.87152 324.52208,371.10114 328,369.36218 C 329.01837,368.853 321.7322,365.29523 320,364.86218 C 317.00326,364.113 316.3284,360.27638 313.5,358.86218 C 308.44928,356.33682 297.56484,360.36218 292,360.36218 C 288.52835,360.36218 296.53231,352.79757 298.5,348.86218 C 303.21773,339.42672 307.48085,330.51111 314,322.36218 C 316.30615,319.4795 302.24406,322.05117 301,322.36218 C 292.4643,324.49611 283.02625,327.84643 275.5,332.36218 C 272.24514,334.3151 267.76692,336.25541 265,337.36218 C 264.8615,337.41758 270.24416,331.55406 276.5,326.86218 C 282.85219,322.09804 288.61658,313.62901 292,306.86218 C 293.30011,304.26197 297.88972,302.86218 293.5,302.86218 C 287.27056,302.86218 282.06608,304.5754 276,303.36218 C 274.6059,303.08336 275.39919,294.45895 275,292.86218 C 273.79035,288.02358 266.84802,287.28619 263,285.36218 C 259.05514,283.38975 256.62922,281.99141 253.5,278.86218 C 250.32019,275.68237 248.81863,273.99944 247,270.36218 C 245.52651,267.4152 245.50224,265.36442 243,262.86218 C 239.93195,259.79413 239.5,258.67185 239.5,254.36218 C 239.5,251.2494 239,249.72474 239,246.86218 C 239,243.23943 234.84383,245.58135 235.5,248.86218 z"
       id="path5638"
       inkscape:export-filename="/home/substack/projects/dnode-slides/images/no.png"
       inkscape:export-xdpi="150.17508"
       inkscape:export-ydpi="150.17508" />
    <path
       style="opacity:1;fill:#f4e3d7;fill-opacity:1;fill-rule:evenodd;stroke:#000000;stroke-width:2;stroke-linecap:round;stroke-linejoin:round;marker:none;marker-start:none;marker-mid:none;marker-end:none;stroke-miterlimit:4;stroke-dasharray:none;stroke-dashoffset:0;stroke-opacity:1;visibility:visible;display:inline;overflow:visible;enable-background:accumulate"
       d="M 312.14286,249.21932 C 310.31092,252.88321 317.45377,242.88321 319.28571,239.21932 C 320.82587,236.13902 322.14286,235.81446 322.14286,231.36218 C 322.14286,227.58228 322.86166,225.64337 325,223.50504 C 328.50822,219.99682 327.14286,228.20753 327.14286,232.79075 C 327.14286,237.89779 328.13188,241.52698 330.71429,236.36218 C 333.00925,231.77226 337.39859,228.97682 342.14286,227.79075 C 347.02821,226.56942 345.98078,228.86762 345,232.79075 C 344.13481,236.25153 340.9344,241.3068 339.28571,243.50504 C 338.51517,244.53244 349.87851,240.70864 352.85714,239.21932 C 358.00642,236.64469 361.85982,239.65057 362.85714,240.6479 C 362.97742,240.76817 350.21181,247.3277 349.28571,247.79075 C 346.99912,248.93405 338.62452,250.6479 345,250.6479 C 348.82927,250.6479 352.14306,252.43371 354.28571,253.50504 C 354.49867,253.61152 354.76191,253.50504 355,253.50504 C 359.41025,253.50504 357.49071,257.4429 356.42857,258.50504 C 354.48964,260.44398 347.85435,258.50504 345,258.50504 C 339.79223,258.50504 338.65224,257.87156 342.14286,261.36218 C 346.69642,265.91575 342.40736,265.89259 338.57143,264.93361 C 334.846,264.00225 331.53034,262.99477 327.85714,262.07647 C 326.20689,261.6639 324.59645,263.70681 323.57143,264.21932"
       id="path5051"
       inkscape:export-filename="/home/substack/projects/dnode-slides/images/no.png"
       inkscape:export-xdpi="150.17508"
       inkscape:export-ydpi="150.17508" />
    <path
       style="opacity:1;fill:#f4e3d7;fill-opacity:1;fill-rule:evenodd;stroke:#000000;stroke-width:2;stroke-linecap:round;stroke-linejoin:round;marker:none;marker-start:none;marker-mid:none;marker-end:none;stroke-miterlimit:4;stroke-dasharray:none;stroke-dashoffset:0;stroke-opacity:1;visibility:visible;display:inline;overflow:visible;enable-background:accumulate"
       d="M 258.57142,208.50504 C 257.91089,208.8353 259.16681,231.24241 258.57142,234.21932 C 258.52473,234.45279 258.57142,234.69551 258.57142,234.93361 C 260.56122,235.92851 263.5853,237.07647 265.71428,237.07647 C 269.6318,237.07647 273.69117,235.94517 277.14285,234.21932 C 279.01302,233.28424 288.81773,228.94838 289.28571,227.07647 C 289.93516,224.47868 289.43637,224.25835 288.57142,219.93361 C 288.2979,218.56598 286.16561,204.93361 285,204.93361 C 281.92648,204.93361 276.08931,207.07647 271.42857,207.07647 C 267.11648,207.07647 257.72575,212.73339 258.57142,208.50504 z"
       id="path5061"
       inkscape:export-filename="/home/substack/projects/dnode-slides/images/no.png"
       inkscape:export-xdpi="150.17508"
       inkscape:export-ydpi="150.17508" />
    <path
       style="opacity:1;fill:#ac9393;fill-opacity:1;fill-rule:evenodd;stroke:#000000;stroke-width:2;stroke-linecap:round;stroke-linejoin:round;marker:none;marker-start:none;marker-mid:none;marker-end:none;stroke-miterlimit:4;stroke-dasharray:none;stroke-dashoffset:0;stroke-opacity:1;visibility:visible;display:inline;overflow:visible;enable-background:accumulate"
       d="M 218.57143,248.50504 C 214.56662,250.50744 213.43136,253.6451 209.28571,257.79075 C 208.80952,258.98123 208.33333,260.17171 207.85714,261.36218 C 205.08058,268.30358 204.28571,276.65449 204.28571,284.21932 C 204.28571,291.21507 202.05307,298.95397 200.71429,305.6479 C 199.82099,310.11438 201.12513,314.32673 202.85714,317.79075 C 205.20904,322.49455 210.07704,324.29636 213.57143,327.79075 C 217.79306,332.01238 223.27883,334.32475 228.57143,335.6479 C 235.26166,337.32045 242.70454,333.70894 248.57143,331.36218 C 256.83286,328.05761 264.42751,323.75583 271.42857,318.50504 C 280.01935,312.06195 287.35394,304.72253 295,297.07647 C 304.04057,288.0359 314.59327,281.05463 323.57143,272.07647 C 324.76191,270.88599 325.95238,269.69552 327.14286,268.50504 C 331.61352,266.26971 324.26026,258.47959 323.57143,257.79075 C 320.80797,255.0273 318.06884,251.64444 315.71429,248.50504 C 313.46342,245.50388 311.96805,245.10842 309.28571,247.79075 C 304.54467,252.5318 297.64791,255.91629 292.14286,259.21932 C 282.91019,264.75892 273.57414,269.21729 265,275.6479 C 259.23577,279.97107 253.57474,284.21684 247.85714,288.50504 C 243.88885,291.48126 242.64992,294.0121 239.28571,290.6479 C 238.09524,291.12409 236.90476,291.60028 235.71429,292.07647 C 233.11371,293.1167 232.04774,293.50504 228.57143,293.50504"
       id="path5041"
       sodipodi:nodetypes="ccsssssssssscsssssss"
       inkscape:export-filename="/home/substack/projects/dnode-slides/images/no.png"
       inkscape:export-xdpi="150.17508"
       inkscape:export-ydpi="150.17508" />
    <path
       style="opacity:1;fill:#f4e3d7;fill-opacity:1;fill-rule:evenodd;stroke:#000000;stroke-width:2;stroke-linecap:round;stroke-linejoin:round;marker:none;marker-start:none;marker-mid:none;marker-end:none;stroke-miterlimit:4;stroke-dasharray:none;stroke-dashoffset:0;stroke-opacity:1;visibility:visible;display:inline;overflow:visible;enable-background:accumulate"
       d="M 392.07111,193.61068 C 390.90967,192.07953 387.33811,186.7748 385.50872,183.59559 C 383.93123,180.85412 379.95219,179.34412 377.17551,177.79743 C 374.50232,176.30837 372.24966,175.05357 370.11568,173.86488 C 364.71808,170.85825 367.06071,175.85014 368.34486,178.08181 C 369.83958,180.6794 373.02958,181.84765 374.91312,182.89684 C 378.68829,184.99973 378.6917,187.18555 373.63387,186.23131 C 369.43522,185.43915 368.08888,184.55975 363.38891,184.71111 C 359.33699,184.8416 360.60307,188.1407 361.53168,190.80855 C 362.41477,193.34561 366.2546,191.8158 368.81886,192.79957 C 374.61059,195.02154 373.93565,195.60208 374.01305,198.00551 C 374.17105,202.91142 365.54564,196.79698 361.08102,198.83663 C 359.9197,199.36718 358.3175,202.12184 360.68425,202.66266 C 365.05536,203.66149 366.01376,203.63633 370.37662,203.49583 C 374.32726,203.36861 376.61609,203.16157 375.86695,207.13227 C 375.71377,207.94417 368.41028,211.22312 367.522,211.73425 C 363.21205,214.21429 363.81892,215.15509 363.88556,217.22458 C 363.91716,218.20563 371.64671,215.7592 373.01233,215.37068 C 378.2901,213.86919 376.81506,215.04401 376.93315,218.711 C 377.08867,223.54005 378.83437,222.81371 382.03258,220.9734 C 383.75975,219.97955 383.80725,215.02136 385.76966,213.22655 C 387.9175,211.26216 391.27386,212.63963 392.34378,212.8415 C 393.86161,209.24628 395,210.02811 395,206.36219 C 395,202.54771 393.66779,200.65077 392.85714,197.07647 C 392.59513,195.92121 392.33312,194.76595 392.07111,193.61068 z"
       id="path5049"
       sodipodi:nodetypes="csssssssssssssssssssscssc"
       inkscape:export-filename="/home/substack/projects/dnode-slides/images/no.png"
       inkscape:export-xdpi="150.17508"
       inkscape:export-ydpi="150.17508" />
    <path
       style="opacity:1;fill:#f4e3d7;fill-opacity:1;fill-rule:evenodd;stroke:#000000;stroke-width:2;stroke-linecap:round;stroke-linejoin:round;marker:none;marker-start:none;marker-mid:none;marker-end:none;stroke-miterlimit:4;stroke-dasharray:none;stroke-dashoffset:0;stroke-opacity:1;visibility:visible;display:inline;overflow:visible;enable-background:accumulate"
       d="M 229.52888,117.9196 C 228.19115,119.59177 226.85341,121.26394 225.51566,122.93611 C 220.99842,128.58266 219.2903,140.81447 217.48925,148.01868 C 214.94727,158.18657 219.1519,170.72213 221.50245,180.12437 C 223.67558,188.81687 227.29754,195.95249 233.54209,202.19703 C 238.36964,207.02458 242.9706,211.42615 248.59164,214.23666 C 253.22032,216.55102 262.19083,215.23997 267.65438,215.23997 C 271.68541,215.23997 277.02893,216.24327 281.70062,216.24327 C 285.52058,216.24327 292.40107,210.97701 294.74357,209.22015 C 299.93684,205.3252 302.01442,202.9526 306.7832,198.18382 C 310.37591,194.59111 311.79972,187.11528 311.79972,182.13098 C 311.79972,175.15869 313.80632,167.20969 313.80632,160.05831 C 313.80632,151.3972 312.75513,144.81725 310.79641,136.98235 C 308.97694,129.7045 302.22912,122.88381 297.75348,116.91629 C 292.75002,110.24502 289.52942,107.2861 282.70393,103.87336 C 276.6528,100.84779 269.8165,100.32292 263.64117,101.86675 C 256.62423,103.62099 250.73119,103.80688 244.57842,106.88327 C 238.88036,109.73229 235.08187,113.4772 229.52888,117.9196 z"
       id="path5059"
       inkscape:export-filename="/home/substack/projects/dnode-slides/images/no.png"
       inkscape:export-xdpi="150.17508"
       inkscape:export-ydpi="150.17508" />
    <path
       style="opacity:1;fill:#ac9d93;fill-opacity:1;fill-rule:evenodd;stroke:#000000;stroke-width:2;stroke-linecap:round;stroke-linejoin:round;marker:none;marker-start:none;marker-mid:none;marker-end:none;stroke-miterlimit:4;stroke-dasharray:none;stroke-dashoffset:0;stroke-opacity:1;visibility:visible;display:inline;overflow:visible;enable-background:accumulate"
       d="M 266.5,129.36218 C 266.33333,130.19552 266.16667,131.02885 266,131.86218 C 265.43775,134.67341 266.40894,137.49795 267,139.86218 C 267.7619,142.90977 269.7039,145.06608 272,147.36218 C 273.29185,148.65403 275.62749,149.39405 277.5,149.86218 C 280.27133,150.55501 281.36153,151.58525 280,148.86218 C 279.05057,146.96331 276.40323,144.46299 280,145.36218 C 281.71152,145.79006 284.13437,149.67937 285.5,150.36218 C 286.87437,151.04937 287.46341,147.36218 289,147.36218 C 292.90439,147.36218 291.88517,150.47701 294.5,147.86218 C 296.25251,146.10967 298.46104,149.0927 300,149.86218 C 301.20142,150.46289 301.91247,146.27465 305,149.36218 C 306.11072,150.4729 309.93738,149.08087 311.5,149.86218 C 313.43208,150.82822 313,154.33995 313,156.36218 C 313,158.86218 313,161.36218 313,163.86218 C 313,166.58857 310.36959,169.67739 314,167.86218 C 314.67334,167.52551 312.2645,174.80418 312,175.86218 C 311.3627,178.4114 310.0194,180.78458 309.5,182.86218 C 308.51542,186.80052 311.62194,182.74025 313.5,180.86218 C 316.4852,177.87698 314.87946,183.84433 314.5,185.36218 C 313.70928,188.52507 319.05567,182.45463 319.5,181.86218 C 321.4442,179.26991 321.40765,175.82392 322,172.86218 C 322.39359,170.89422 322.01325,168.80919 322.5,166.86218 C 322.87268,165.37147 325.91347,168.94872 327,167.86218 C 329.23775,165.62443 327.62372,161.35707 327,158.86218 C 326.54681,157.04942 331.08099,158.59194 332,158.36218 C 333.4405,158.00206 330.59271,149.233 330.5,148.86218 C 329.74132,145.82748 327.57013,143.64271 327,141.36218 C 326.48869,139.31694 332.48869,141.40742 333,139.36218 C 333.85086,135.95874 329.17835,131.54054 327,129.36218 C 323.39784,125.76002 324.9313,127.08739 324,123.36218 C 323.19417,120.13886 317.90638,117.16697 315.5,115.36218 C 312.24407,112.92024 318.38208,113.42114 320.5,112.36218 C 321.56327,111.83055 313.7196,104.90188 313,104.36218 C 309.94522,102.0711 309.11687,100.09591 307.5,96.862182 C 305.18067,92.22353 299.63786,90.862182 295,90.862182 C 290.76644,90.862182 291.11153,94.473716 288,91.362182 C 285.0302,88.39238 280.44714,88.862182 276.5,88.862182 C 273.4839,88.862182 269.8201,87.362182 265.5,87.362182 C 260.54311,87.362182 258.3075,87.006561 254.5,89.862182 C 250.78865,92.645694 243.79035,92.287972 239.5,94.862182 C 238.91074,95.215735 241.01409,94.848095 241.5,94.362182 C 243.92956,91.932619 236.183,98.715779 233.5,100.86218 C 228.75898,104.655 226.65752,112.86905 222,116.36218 C 222.76694,114.8283 217.04274,121.13853 213.5,125.86218 C 210.20574,130.25452 206.81509,137.10182 205.5,142.36218 C 204.70619,145.53742 202.49847,147.98756 207,146.86218 C 207.30623,146.78563 201.79737,154.06481 200.5,155.36218 C 197.81027,158.05191 196.05843,161.74533 194.5,164.86218 C 194.16921,165.52377 201.06339,164.09634 202,163.86218 C 203.1796,163.56728 203.25654,173.1449 203.5,174.36218 C 204.3855,178.78968 207.52657,179.41533 209,182.36218 C 210.86854,186.09927 209.37497,192.7996 211,196.86218 C 212.13339,199.69565 213.84313,202.98967 215,198.36218 C 215.87635,194.85677 219.24954,198.19491 220.5,199.86218 C 222.51608,202.55029 222.65611,203.20607 224.5,201.36218 C 226.41802,199.44416 228.43656,202.94426 229.5,204.36218 C 231.91988,207.58869 231.94078,203.62528 231.5,201.86218 C 230.6976,198.6526 230.15886,198.94747 232.5,198.36218 C 232.62722,198.33038 228.17525,192.53743 228,192.36218 C 226.87335,191.23553 225.69372,189.24962 225,187.86218 C 223.58458,185.03135 224.25843,184.4914 227,185.86218 C 227.30379,186.01408 226.26387,181.41768 226,180.36218 C 225.40054,177.96436 224.5,176.45713 224.5,174.86218 C 224.5,173.06713 223.30277,171.46773 222.5,169.86218 C 221.0562,166.97458 220.61849,165.95462 220,162.86218 C 219.51253,160.42482 220,158.52466 220,155.86218 C 220,152.82249 220.79369,153.5685 222.5,151.86218 C 223.72473,150.63746 223,145.67315 223,143.86218 C 223,142.28154 225.48439,137.4246 225.5,137.36218 C 225.79149,136.19622 226.53852,139.64107 227.5,140.36218 C 229.87434,142.14294 228.67083,132.20385 232,138.86218 C 233.31524,141.49266 231.55447,142.83495 234.5,141.36218 C 236.34123,140.44157 237.82217,136.21785 238.5,134.86218 C 240.2095,131.44317 239.5,132.19182 239.5,136.36218 C 239.5,140.15855 239.99723,144.85942 242,146.86218 C 242.81497,147.67715 246.7889,140.70657 247,139.86218 C 247.68746,137.11235 249.14151,134.07916 250,132.36218 C 251.05409,130.254 250.42834,137.07553 251,139.36218 C 252.02001,143.44224 255.91343,137.47761 256,137.36218 C 256.90554,136.1548 259.43281,137.92937 260.5,136.86218 C 262.49482,134.86737 264.20789,133.65429 265.5,132.36218 C 266.03821,131.82397 266.40582,129.7389 266.5,129.36218 z"
       id="path5620"
       sodipodi:nodetypes="csssssssssssssssssssssssssssssssssssssssssss"
       inkscape:export-filename="/home/substack/projects/dnode-slides/images/no.png"
       inkscape:export-xdpi="150.17508"
       inkscape:export-ydpi="150.17508" />
    <path
       style="opacity:1;fill:#ac9d93;fill-opacity:1;fill-rule:evenodd;stroke:#000000;stroke-width:2;stroke-linecap:round;stroke-linejoin:round;marker:none;marker-start:none;marker-mid:none;marker-end:none;stroke-miterlimit:4;stroke-dasharray:none;stroke-dashoffset:0;stroke-opacity:1;visibility:visible;display:inline;overflow:visible;enable-background:accumulate"
       d="M 259,181.36218 C 258.72471,181.91275 251.56572,185.06289 250.5,185.86218 C 248.13097,187.63896 246.29593,190.46761 244.5,192.86218 C 242.85008,195.06207 242.66703,197.19404 242,199.86218 C 241.03911,203.70574 243.76397,202.59821 245.5,200.86218 C 248.26589,198.09629 248.41655,200.69528 249.5,202.86218 C 250.20711,204.2764 252.41886,201.36218 254,201.36218 C 256.62156,201.36218 256.73489,203.12729 259.5,200.36218 C 259.51393,200.34825 264.5689,200.59496 265.5,200.36218 C 268.67073,199.5695 268.26742,197.1296 271,199.86218 C 272.2464,201.10859 275.60199,199.36218 277.5,199.36218 C 280.13682,199.36218 282.1775,199.36218 283.5,199.36218 C 284.93295,199.36218 288.99092,199.98491 290.5,200.36218 C 292.55845,200.87679 293.67281,199.44398 296,198.86218 C 298.73301,198.17893 300.01117,199.73439 301.5,199.36218 C 303.89671,198.76301 305.61145,199.33432 307.5,198.86218 C 309.12036,198.45709 305.78712,192.74501 305.5,192.36218 C 303.53824,189.74651 301.37072,189.2329 299.5,187.36218 C 298.08507,185.94726 294.407,184.56568 293,183.86218 C 290.82978,182.77707 287.88304,182.95794 285.5,182.36218 C 282.84824,181.69924 281.00221,181.48773 278.5,180.86218 C 276.27163,180.30509 274.54803,180.36218 272,180.36218 C 269.44122,180.36218 267.52359,179.86218 265,179.86218 C 263.39153,179.86218 260.65158,181.03187 259,181.36218 z"
       id="path5590"
       inkscape:export-filename="/home/substack/projects/dnode-slides/images/no.png"
       inkscape:export-xdpi="150.17508"
       inkscape:export-ydpi="150.17508" />
    <path
       style="opacity:1;fill:#f4e3d7;fill-opacity:1;fill-rule:evenodd;stroke:#000000;stroke-width:2;stroke-linecap:round;stroke-linejoin:round;marker:none;marker-start:none;marker-mid:none;marker-end:none;stroke-miterlimit:4;stroke-dasharray:none;stroke-dashoffset:0;stroke-opacity:1;visibility:visible;display:inline;overflow:visible;enable-background:accumulate"
       d="M 260.5,176.36218 C 259.66667,176.52885 258.83333,176.69552 258,176.86218 C 255.88295,177.28559 256.74402,181.83828 257,182.86218 C 257.53976,185.02123 261.46214,185.36218 263.5,185.36218 C 266.99109,185.36218 266.74325,185.60543 268.5,187.36218 C 269.90802,188.7702 271.31284,188.69039 274,189.36218 C 277.08194,190.13267 278.35107,188.16004 279.5,185.86218 C 280.58246,183.69727 283.21295,184.50571 285.5,183.36218 C 286.91216,182.6561 287.5,179.8021 287.5,177.86218 C 287.5,174.30932 286.98876,173.60656 284.5,172.36218 C 281.82415,171.02426 280.73469,173.39279 280,174.86218 C 279.45408,175.95403 280,174.79816 280,175.86218"
       id="path5588"
       inkscape:export-filename="/home/substack/projects/dnode-slides/images/no.png"
       inkscape:export-xdpi="150.17508"
       inkscape:export-ydpi="150.17508" />
    <path
       style="opacity:1;fill:#ffffff;fill-opacity:1;fill-rule:evenodd;stroke:#000000;stroke-width:2;stroke-linecap:round;stroke-linejoin:round;marker:none;marker-start:none;marker-mid:none;marker-end:none;stroke-miterlimit:4;stroke-dasharray:none;stroke-dashoffset:0;stroke-opacity:1;visibility:visible;display:inline;overflow:visible;enable-background:accumulate"
       d="M 235,171.96291 C 235.83333,171.96291 236.66667,171.96291 237.5,171.96291 C 239.44069,171.96291 242.21987,171.46291 244.5,171.46291 C 246.83333,171.46291 249.16667,171.46291 251.5,171.46291 C 254.27171,171.46291 255.49501,171.46957 257,169.46291 C 258.63775,167.27925 256.76968,165.84775 255,164.96291 C 253.13183,164.02883 249.72728,164.46291 247.5,164.46291 C 244.7384,164.46291 242.54214,165.32738 240,165.96291 C 237.34587,166.62644 236.09274,167.87018 234.5,169.46291 C 233.89907,170.06384 234.83333,171.12958 235,171.96291 z"
       id="path5596"
       inkscape:export-filename="/home/substack/projects/dnode-slides/images/no.png"
       inkscape:export-xdpi="150.17508"
       inkscape:export-ydpi="150.17508" />
    <path
       id="path5602"
       d="M 307.93158,169.96291 C 307.09825,169.96291 306.26491,169.96291 305.43158,169.96291 C 303.49089,169.96291 300.71171,169.46291 298.43158,169.46291 C 296.09825,169.46291 293.76491,169.46291 291.43158,169.46291 C 288.65987,169.46291 287.43657,169.46957 285.93158,167.46291 C 284.29383,165.27925 286.1619,163.84775 287.93158,162.96291 C 289.79975,162.02883 293.2043,162.46291 295.43158,162.46291 C 298.19318,162.46291 300.38944,163.32738 302.93158,163.96291 C 305.58571,164.62644 306.83884,165.87018 308.43158,167.46291 C 309.03251,168.06384 308.09825,169.12958 307.93158,169.96291 z"
       style="opacity:1;fill:#ffffff;fill-opacity:1;fill-rule:evenodd;stroke:#000000;stroke-width:2;stroke-linecap:round;stroke-linejoin:round;marker:none;marker-start:none;marker-mid:none;marker-end:none;stroke-miterlimit:4;stroke-dasharray:none;stroke-dashoffset:0;stroke-opacity:1;visibility:visible;display:inline;overflow:visible;enable-background:accumulate"
       inkscape:export-filename="/home/substack/projects/dnode-slides/images/no.png"
       inkscape:export-xdpi="150.17508"
       inkscape:export-ydpi="150.17508" />
    <path
       style="opacity:1;fill:#303030;fill-opacity:1;fill-rule:evenodd;stroke:#000000;stroke-width:2;stroke-linecap:round;stroke-linejoin:round;marker:none;marker-start:none;marker-mid:none;marker-end:none;stroke-miterlimit:4;stroke-dasharray:none;stroke-dashoffset:0;stroke-opacity:1;visibility:visible;display:inline;overflow:visible;enable-background:accumulate"
       d="M 243.5,164.86218 C 243,165.69552 242.5,166.52885 242,167.36218 C 240.78031,169.39499 244.31436,171.06577 245.5,171.36218 C 247.72837,171.91928 249.45197,171.86218 252,171.86218 C 254.39282,171.86218 253.35627,168.28725 253,166.86218 C 252.52049,164.94413 249.17372,165.28061 247.5,164.86218 C 246.15953,164.52706 240.19598,164.20138 246,165.36218"
       id="path5604"
       inkscape:export-filename="/home/substack/projects/dnode-slides/images/no.png"
       inkscape:export-xdpi="150.17508"
       inkscape:export-ydpi="150.17508" />
    <path
       style="opacity:1;fill:#303030;fill-opacity:1;fill-rule:evenodd;stroke:#000000;stroke-width:2;stroke-linecap:round;stroke-linejoin:round;marker:none;marker-start:none;marker-mid:none;marker-end:none;stroke-miterlimit:4;stroke-dasharray:none;stroke-dashoffset:0;stroke-opacity:1;visibility:visible;display:inline;overflow:visible;enable-background:accumulate"
       d="M 290,163.86218 C 287.8012,163.31248 289.58391,169.15414 291,169.86218 C 292.33198,170.52817 296.56348,170.36218 298,170.36218 C 300.97469,170.36218 301.38105,169.83799 302,167.36218 C 302.62722,164.8533 300.34757,163.20976 299.5,162.36218 C 298.79005,161.65223 293.61561,162.36218 292.5,162.36218 C 291.52817,162.36218 290.83333,163.36218 290,163.86218 z"
       id="path5606"
       inkscape:export-filename="/home/substack/projects/dnode-slides/images/no.png"
       inkscape:export-xdpi="150.17508"
       inkscape:export-ydpi="150.17508" />
    <path
       style="opacity:1;fill:none;fill-opacity:1;fill-rule:evenodd;stroke:#000000;stroke-width:2;stroke-linecap:round;stroke-linejoin:round;marker:none;marker-start:none;marker-mid:none;marker-end:none;stroke-miterlimit:4;stroke-dasharray:none;stroke-dashoffset:0;stroke-opacity:1;visibility:visible;display:inline;overflow:visible;enable-background:accumulate"
       d="M 263.5,208.36218 C 264.33333,207.86218 265.16667,207.36218 266,206.86218 C 268.55466,205.32939 270.77504,205.36218 274,205.36218 C 276.85801,205.36218 279.1655,205.19493 281.5,206.36218"
       id="path5610"
       inkscape:export-filename="/home/substack/projects/dnode-slides/images/no.png"
       inkscape:export-xdpi="150.17508"
       inkscape:export-ydpi="150.17508" />
    <path
       style="opacity:1;fill:#ac9d93;fill-opacity:1;fill-rule:evenodd;stroke:#000000;stroke-width:2;stroke-linecap:round;stroke-linejoin:round;marker:none;marker-start:none;marker-mid:none;marker-end:none;stroke-miterlimit:4;stroke-dasharray:none;stroke-dashoffset:0;stroke-opacity:1;visibility:visible;display:inline;overflow:visible;enable-background:accumulate"
       d="M 276.5,157.86218 C 276.58375,161.25899 278.90345,159.86218 282.5,159.86218 C 284.64987,159.86218 286.08996,159.83969 288,159.36218 C 290.22468,158.80601 292.66035,159.86218 295,159.86218 C 297.51847,159.86218 298.24846,159.1743 301,159.86218 C 303.40341,160.46303 305.52372,159.74311 308,160.36218 C 311.63689,161.2714 311.49667,158.85885 310,157.36218 C 308.97985,156.34204 304.17764,156.65659 303,156.36218 C 300.70398,155.78818 298.61776,155.36218 296,155.36218 C 293.27167,155.36218 291.04214,154.22665 288.5,154.86218 C 286.1303,155.45461 283.24336,154.80134 281,155.36218 C 277.98418,156.11614 279.56605,154.02962 276.5,157.86218 z"
       id="path5616"
       inkscape:export-filename="/home/substack/projects/dnode-slides/images/no.png"
       inkscape:export-xdpi="150.17508"
       inkscape:export-ydpi="150.17508" />
    <path
       style="opacity:1;fill:#ac9d93;fill-opacity:1;fill-rule:evenodd;stroke:#000000;stroke-width:2;stroke-linecap:round;stroke-linejoin:round;marker:none;marker-start:none;marker-mid:none;marker-end:none;stroke-miterlimit:4;stroke-dasharray:none;stroke-dashoffset:0;stroke-opacity:1;visibility:visible;display:inline;overflow:visible;enable-background:accumulate"
       d="M 226.5,158.86218 C 226.66667,159.69552 226.83333,160.52885 227,161.36218 C 227.18691,162.29674 233.14836,161.07509 234,160.86218 C 236.857,160.14793 237.71146,160.36218 240.5,160.36218 C 242.83849,160.36218 245.11239,160.39028 247,160.86218 C 248.90122,161.33749 251.14681,160.39888 253,160.86218 C 255.46059,161.47733 257.31334,160.28385 259,159.86218 C 261.78357,159.16629 261.88076,160.60067 263,158.36218 C 263.28345,157.79527 258.94849,156.08643 258.5,155.86218 C 256.6214,154.92288 253.41309,156.21546 252,155.86218 C 250.25729,155.4265 247.87707,156.86218 245.5,156.86218 C 241.88136,156.86218 242.28991,157.75714 239.5,156.36218 C 237.82531,155.52484 235.0015,156.86218 233,156.86218 C 229.83117,156.86218 230.08369,156.71197 226.5,158.86218 z"
       id="path5618"
       inkscape:export-filename="/home/substack/projects/dnode-slides/images/no.png"
       inkscape:export-xdpi="150.17508"
       inkscape:export-ydpi="150.17508" />
    <path
       style="opacity:1;fill:#ff0000;fill-opacity:1;fill-rule:evenodd;stroke:#000000;stroke-width:2;stroke-linecap:round;stroke-linejoin:round;marker:none;marker-start:none;marker-mid:none;marker-end:none;stroke-miterlimit:4;stroke-dasharray:none;stroke-dashoffset:0;stroke-opacity:1;visibility:visible;display:inline;overflow:visible;enable-background:accumulate"
       d="M 318.57143,79.93361 C 318.50788,83.375573 318.57143,92.122336 318.57143,97.790753 C 318.57143,104.01544 319.28572,109.51779 319.28572,115.6479 C 319.28572,120.58702 318.46669,121.97173 320.71429,124.21932 C 324.32609,127.83113 328.38599,131.89102 332.14286,135.6479 C 335.29835,138.80338 337.4069,144.74742 339.28572,148.50504 C 341.37515,152.68391 341.89738,154.81087 345,156.36218 C 347.0676,157.39598 358.19948,154.93361 361.42857,154.93361 C 366.90476,154.93361 372.38095,154.93361 377.85714,154.93361 C 381.66667,154.93361 385.47619,154.93361 389.28572,154.93361 C 391.54847,154.93361 394.47155,145.99051 395.71429,143.50504 C 398.17132,138.59098 400.8029,134.51001 405,131.36218 C 408.72133,128.57118 411.9841,125.80666 414.28572,123.50504 C 417.47243,120.31832 414.81354,106.58021 415.71429,102.07647 C 416.88798,96.208027 416.42857,89.557097 416.42857,83.505039 C 416.42857,79.213404 417.74977,75.26391 413.57143,74.219324 C 407.98999,72.823964 402.82853,69.919303 397.14286,67.076467 C 391.63677,64.323424 388.46288,58.396486 384.28572,54.219324 C 380.0921,50.025706 382.5295,47.076467 375.71429,47.076467 C 368.28631,47.076467 360.47006,47.027622 353.57143,45.647896 C 348.53698,44.641006 343.11044,44.93361 337.85714,44.93361 C 336.23881,44.93361 333.68905,52.555521 332.85714,54.219324 C 330.1233,59.687014 328.53759,66.429864 325.71429,72.076467 C 323.55496,76.395122 316.66392,80.251528 322.85714,79.219324"
       id="path5063"
       inkscape:export-filename="/home/substack/projects/dnode-slides/images/no.png"
       inkscape:export-xdpi="150.17508"
       inkscape:export-ydpi="150.17508" />
    <path
       style="opacity:1;fill:#ffffff;fill-opacity:1;fill-rule:evenodd;stroke:#000000;stroke-width:2;stroke-linecap:round;stroke-linejoin:round;marker:none;marker-start:none;marker-mid:none;marker-end:none;stroke-miterlimit:4;stroke-dasharray:none;stroke-dashoffset:0;stroke-opacity:1;visibility:visible;display:inline;overflow:visible;enable-background:accumulate"
       d="M 352.5,64.21875 C 350.53769,64.501748 345.91932,69.018186 345,69.9375 C 342.06666,72.870845 339.59529,75.806366 338.5625,79.9375 C 337.63318,83.654747 335.91156,87.010043 335,90.65625 C 333.96407,94.799995 333.5625,99.233562 333.5625,103.5 C 333.56249,108.37177 334.43609,112.37219 336.4375,116.375 C 338.61548,120.73097 340.56115,124.49819 343.5625,128.5 C 346.25851,132.09469 350.03753,134.61252 353.5625,136.375 C 356.78195,137.98473 359.61207,138.5 363.5625,138.5 C 366.21826,138.5 370.14017,138.5 373.5625,138.5 C 376.6475,138.5 381.6739,134.80367 384.28125,133.5 C 387.37829,131.95148 391.06815,128.86935 393.5625,126.375 C 396.91838,123.01911 398.33697,120.41982 400,117.09375 C 401.67142,113.75093 401.5591,109.73638 400.71875,106.375 C 399.62941,102.01765 398.30032,97.944399 396.4375,94.21875 C 394.50033,90.344415 393.31308,86.532425 391.4375,82.78125 C 389.55361,79.013479 385.35619,75.98119 382.875,73.5 C 380.08004,70.705028 377.82111,70.103716 374.28125,69.21875 C 371.28709,68.470211 368.31947,66.30643 365.71875,65.65625 C 362.11926,64.756377 360.08668,64.207664 356.4375,64.9375 C 355.24702,64.699406 354.06547,64.456845 352.875,64.21875 C 352.76969,64.197687 352.63082,64.199883 352.5,64.21875 z M 357.8125,76.5 C 358.33413,76.460131 358.6211,76.749024 360,77.09375 C 363.59259,77.991896 365.99035,78.396026 369.28125,79.21875 C 372.7108,80.076137 375.21386,80.269775 378.5625,82.78125 C 380.95345,84.574456 384.10336,87.788426 385,91.375 C 385.76266,94.425632 387.87501,98.807614 387.875,102.09375 C 387.875,105.96354 387.98922,108.76192 387.15625,112.09375 C 386.98133,112.79343 386.66212,113.76463 386.28125,114.8125 C 384.60317,113.13442 382.91069,111.41069 381.4375,109.9375 C 378.86967,107.36966 375.48131,104.01255 372.84375,101.375 C 370.06752,98.598777 368.90176,98.120509 366.4375,95.65625 C 364.54879,93.767529 361.10731,91.044804 359.28125,89.21875 C 357.24141,87.178905 354.74381,86.118811 352.84375,84.21875 C 351.44472,82.819723 350.30745,81.72136 349,80.59375 C 349.81262,79.015898 350.6899,77.78125 351.4375,77.78125 C 352.38988,77.781249 353.32886,77.781249 354.28125,77.78125 C 356.53011,76.881707 357.29087,76.539868 357.8125,76.5 z M 346.03125,88.75 C 347.40009,91.078509 349.28109,93.739379 350.71875,95.65625 C 353.15931,98.910337 354.77254,101.99881 356.4375,104.21875 C 358.52927,107.00777 360.1659,107.94716 362.15625,109.9375 C 364.45896,112.24021 367.02604,114.68358 369.28125,116.375 C 372.06542,118.46313 374.02321,120.36696 375.71875,122.0625 C 376.5492,122.89295 377.14486,123.56854 377.6875,124.21875 C 376.11386,125.15449 374.45701,125.9795 372.875,126.375 C 370.06973,127.07632 365.30359,127.88058 362.15625,127.09375 C 358.37235,126.14777 355.73013,124.23509 352.875,122.09375 C 350.74181,120.49386 346.52673,116.7319 345.71875,113.5 C 344.62696,109.13282 344.28124,104.72474 344.28125,99.9375 C 344.28125,95.896565 345.09152,92.494097 346.03125,88.75 z"
       id="path5069"
       inkscape:export-filename="/home/substack/projects/dnode-slides/images/no.png"
       inkscape:export-xdpi="150.17508"
       inkscape:export-ydpi="150.17508" />
    <path
       style="opacity:1;fill:#c5afaf;fill-opacity:1;fill-rule:evenodd;stroke:none;stroke-width:2;stroke-linecap:round;stroke-linejoin:round;marker:none;marker-start:none;marker-mid:none;marker-end:none;stroke-miterlimit:4;stroke-dasharray:none;stroke-dashoffset:0;stroke-opacity:1;visibility:visible;display:inline;overflow:visible;enable-background:accumulate"
       d="M 213.5,258.36218 C 212.66667,259.02885 211.83333,259.69552 211,260.36218 C 209.60337,261.47948 208.89851,265.26815 208.5,266.86218 C 207.77965,269.74357 206.80417,272.07886 207.5,274.86218 C 208.09399,277.23814 208,279.76409 208,282.36218 C 208,285.56903 208.22629,288.95704 207.5,291.86218 C 206.78934,294.70481 206.23934,297.40483 205.5,300.36218 C 204.9462,302.57739 205,305.65607 205,307.86218 C 205,311.11135 206.42039,312.96415 207,315.86218 C 207.44818,318.10306 211.07002,320.93221 212.5,322.36218 C 214.41059,324.27277 215.58533,325.42618 217.5,326.86218 C 219.49477,328.35826 223.20584,329.28864 225.5,329.86218 C 227.97982,330.48214 230.60945,330.45982 233,329.86218 C 235.25927,329.29736 237.8465,329.90056 240,329.36218 C 243.01278,328.60899 243.54851,328.74931 240,327.86218 C 237.53842,327.24679 234.06784,325.1461 231.5,323.86218 C 228.81272,322.51854 226.09989,321.46221 230.5,320.36218 C 233.92126,319.50687 238.62808,320.84985 239.5,317.36218 C 240.19181,314.59493 233.67419,314.86218 232,314.86218 C 227.90791,314.86218 223.74172,313.1039 221,310.36218 C 217.61962,306.9818 220.31967,307.28227 224,306.36218 C 227.58445,305.46607 222.71949,303.5268 220.5,301.86218 C 217.76878,299.81377 218,297.51399 218,294.86218 C 218,291.6811 215.26852,287.43628 214.5,284.36218 C 213.78978,281.52128 215.42146,278.01926 216.5,275.86218 C 217.63377,273.59464 215.48973,269.32109 215,267.36218 C 214.01191,263.40981 216.1733,261.7038 213.5,258.36218 z"
       id="path5622"
       inkscape:export-filename="/home/substack/projects/dnode-slides/images/no.png"
       inkscape:export-xdpi="150.17508"
       inkscape:export-ydpi="150.17508" />
    <path
       style="opacity:1;fill:#c5bbb4;fill-opacity:1;fill-rule:evenodd;stroke:none;stroke-width:2;stroke-linecap:round;stroke-linejoin:round;marker:none;marker-start:none;marker-mid:none;marker-end:none;stroke-miterlimit:4;stroke-dasharray:none;stroke-dashoffset:0;stroke-opacity:1;visibility:visible;display:inline;overflow:visible;enable-background:accumulate"
       d="M 206.5,152.86218 C 206,153.69552 205.5,154.52885 205,155.36218 C 204.08383,156.88914 201.48801,158.87417 200.5,159.86218 C 198.36341,161.99877 201.45951,160.86218 204,160.86218 C 205.02541,160.86218 206,166.79627 206,167.86218 C 206,170.23294 206.44395,173.13797 207,175.36218 C 207.69324,178.13514 208.7946,180.5406 209.5,183.36218 C 210.23919,186.31894 211.77137,188.94765 212.5,191.86218 C 212.98389,193.79775 217.38995,194.55716 219,195.36218 C 219.79146,195.75791 221.8229,195.03928 222,194.86218 C 223.45151,193.41068 223.42547,191.40464 221,187.36218 C 218.79627,183.68929 216.45018,180.6291 214,177.36218 C 212.23725,175.01185 213.41658,173.94561 215,172.36218 C 217.09584,170.26634 219.62863,172.11945 217.5,167.86218 C 215.65565,164.17349 213.79064,162.81539 213,158.86218 C 212.30152,155.36979 214.14656,154.21562 216,152.36218 C 218.55265,149.80953 217.5,147.59574 217.5,144.36218 C 217.5,140.59497 220.99552,137.86666 223.5,135.36218 C 225.84868,133.0135 227.54177,128.47315 229.5,125.86218 C 231.27865,123.49064 232.93107,121.78888 235.5,119.86218 C 237.11922,118.64776 236,123.73957 236,126.86218 C 236,132.50035 240.3294,126.20337 241.5,123.86218 C 243.53708,119.78802 249.88184,114.0758 253.5,111.36218 C 256.37577,109.20536 258.71702,106.50367 261,105.36218 C 263.21553,104.25442 264.40869,102.65784 267,101.36218 C 267.64849,101.03794 266.63558,105.40449 267,106.86218 C 267.90839,110.49572 273.50371,103.1094 276.5,100.86218 C 278.7823,99.150458 275.5,106.50931 275.5,109.36218 C 275.5,111.96979 276.5,114.43252 276.5,117.36218 C 276.5,121.52958 276.5765,122.43868 278,123.86218 C 278.10033,123.96251 288.42149,110.30019 289.5,108.86218 C 292.2713,105.16712 294.89424,103.63862 296,103.36218 C 297.49983,102.98722 299.57847,102.28371 301.5,100.36218 C 304.09165,97.770537 300.96915,95.331333 299,93.362182 C 295.99299,90.355172 290.12888,94.236407 287,94.862182 C 282.97173,95.667837 281.695,96.057183 279.5,93.862182 C 277.62235,91.984531 276.44411,91.173361 273,91.862182 C 272.16667,92.028849 271.33333,92.195515 270.5,92.362182 C 269.66667,92.528849 268.83333,92.695515 268,92.862182 C 264.4774,93.566702 261.40559,94.409386 258.5,95.862182 C 256.67237,96.775998 254.20065,97.511856 252.5,98.362182 C 249.11627,100.05405 248.1091,102.25308 246,104.36218 C 243.56365,106.79853 242.6453,108.57159 241.5,110.86218 C 239.65547,114.55124 239,114.85207 239,110.86218 C 239,107.31592 234.94168,111.42051 233.5,112.86218 C 231.19488,115.1673 228.03397,117.3367 226,118.86218 C 223.36065,120.84169 221.06457,122.10943 219,124.86218 C 217.60073,126.72787 216.80497,128.75223 216,130.36218 C 215.00699,132.34821 214.23496,134.39226 213,136.86218 C 211.76533,139.33152 210.14503,141.83548 209,143.36218 C 207.86236,144.87903 208.5,148.3999 208.5,150.36218 C 208.5,153.01961 203.43811,153.47456 209,152.36218"
       id="path5624"
       inkscape:export-filename="/home/substack/projects/dnode-slides/images/no.png"
       inkscape:export-xdpi="150.17508"
       inkscape:export-ydpi="150.17508" />
    <path
       style="opacity:1;fill:#978478;fill-opacity:1;fill-rule:evenodd;stroke:none;stroke-width:2;stroke-linecap:round;stroke-linejoin:round;marker:none;marker-start:none;marker-mid:none;marker-end:none;stroke-miterlimit:4;stroke-dasharray:none;stroke-dashoffset:0;stroke-opacity:1;visibility:visible;display:inline;overflow:visible;enable-background:accumulate"
       d="M 283,132.36218 C 283.16667,133.19552 283.33333,134.02885 283.5,134.86218 C 284.24691,138.59676 288.1994,140.71188 290.5,141.86218 C 293.34831,143.28634 292.00899,145.10769 295.5,143.36218 C 299.20164,141.51136 297.54637,138.90855 301.5,142.86218 C 304.60275,145.96493 305.52725,144.35537 309.5,143.36218 C 313.1128,142.45898 313.96824,144.33042 316,146.36218 C 318.36371,148.72589 318.09144,148.72795 319,152.36218 C 319.53573,154.50512 318,157.85974 318,160.36218 C 318,162.8459 317.5,165.1854 317.5,167.86218 C 317.5,169.69552 317.05535,171.58359 317.5,173.36218 C 318.31349,176.61614 321.18651,167.61614 322,164.36218 C 322.82574,161.05922 322.52942,159.23475 324.5,161.86218 C 325.7014,163.46404 325.5,156.58958 325.5,155.36218 C 325.5,151.56159 325.68872,151.5509 328,153.86218 C 330.21422,156.0764 325.87883,147.86729 324,145.36218 C 322.14445,142.88811 320.67813,139.07469 320,136.36218 C 319.43785,134.11359 324.79954,136.02209 326.5,136.36218 C 329.28311,136.9188 322.27059,132.56512 320,130.86218 C 317.13344,128.71226 315.02556,124.56293 313,121.86218 C 311.25152,119.53087 311.03944,117.7833 312,115.86218 C 313.52212,112.81794 310.97947,110.35192 309,109.36218 C 308.62478,109.17457 306.96278,117.59088 303.5,123.36218 C 301.42209,126.82536 300.04573,130.63455 298,133.36218 C 295.40556,136.82144 294.37455,134.61129 293,131.86218 C 291.26798,128.39814 295.21064,126.00686 290.5,128.36218 C 287.8576,129.68338 282.86382,132.38942 285.5,131.86218"
       id="path5630"
       inkscape:export-filename="/home/substack/projects/dnode-slides/images/no.png"
       inkscape:export-xdpi="150.17508"
       inkscape:export-ydpi="150.17508" />
    <path
       style="opacity:1;fill:none;fill-opacity:1;fill-rule:evenodd;stroke:#000000;stroke-width:2;stroke-linecap:round;stroke-linejoin:round;marker:none;marker-start:none;marker-mid:none;marker-end:none;stroke-miterlimit:4;stroke-dasharray:none;stroke-dashoffset:0;stroke-opacity:1;visibility:visible;display:inline;overflow:visible;enable-background:accumulate"
       d="M 341,319.86218 C 341.19234,319.41982 340.94974,314.16112 340.5,312.36218 C 339.94117,310.12688 340,307.80251 340,305.36218 C 340,302.78649 339.0729,300.65378 338.5,298.36218 C 337.91564,296.02473 337.6345,294.40016 337,291.86218 C 336.39448,289.44012 336.60574,286.78513 336,284.36218 C 335.3848,281.90136 335.58536,279.20363 335,276.86218 C 334.4076,274.49258 334.50875,272.90594 334,270.36218 C 333.61621,268.44325 333.92293,268.0539 333.5,266.36218"
       id="path5634"
       inkscape:export-xdpi="150.17508"
       inkscape:export-ydpi="150.17508"
       inkscape:export-filename="/home/substack/projects/dnode-slides/images/no.png" />
  </g>
</svg>
