<?xml version="1.0" encoding="UTF-8" standalone="no"?>
<!-- Created with Inkscape (http://www.inkscape.org/) -->
<svg
   xmlns:dc="http://purl.org/dc/elements/1.1/"
   xmlns:cc="http://creativecommons.org/ns#"
   xmlns:rdf="http://www.w3.org/1999/02/22-rdf-syntax-ns#"
   xmlns:svg="http://www.w3.org/2000/svg"
   xmlns="http://www.w3.org/2000/svg"
   xmlns:sodipodi="http://sodipodi.sourceforge.net/DTD/sodipodi-0.dtd"
   xmlns:inkscape="http://www.inkscape.org/namespaces/inkscape"
   width="744.09448819"
   height="1052.3622047"
   id="svg5660"
   sodipodi:version="0.32"
   inkscape:version="0.46"
   sodipodi:docname="robot_stare.svg"
   inkscape:output_extension="org.inkscape.output.svg.inkscape">
  <defs
     id="defs5662">
    <inkscape:perspective
       sodipodi:type="inkscape:persp3d"
       inkscape:vp_x="0 : 526.18109 : 1"
       inkscape:vp_y="0 : 1000 : 0"
       inkscape:vp_z="744.09448 : 526.18109 : 1"
       inkscape:persp3d-origin="372.04724 : 350.78739 : 1"
       id="perspective5668" />
  </defs>
  <sodipodi:namedview
     id="base"
     pagecolor="#ffffff"
     bordercolor="#666666"
     borderopacity="1.0"
     gridtolerance="10000"
     guidetolerance="10"
     objecttolerance="10"
     inkscape:pageopacity="0.0"
     inkscape:pageshadow="2"
     inkscape:zoom="1.4"
     inkscape:cx="375"
     inkscape:cy="847.5"
     inkscape:document-units="px"
     inkscape:current-layer="layer1"
     showgrid="false"
     inkscape:window-width="1438"
     inkscape:window-height="898"
     inkscape:window-x="0"
     inkscape:window-y="0" />
  <metadata
     id="metadata5665">
    <rdf:RDF>
      <cc:Work
         rdf:about="">
        <dc:format>image/svg+xml</dc:format>
        <dc:type
           rdf:resource="http://purl.org/dc/dcmitype/StillImage" />
      </cc:Work>
    </rdf:RDF>
  </metadata>
  <g
     inkscape:label="Layer 1"
     inkscape:groupmode="layer"
     id="layer1">
    <path
       style="opacity:1;fill:#e8e4e2;fill-opacity:1;fill-rule:evenodd;stroke:#000000;stroke-width:2;stroke-linecap:round;stroke-linejoin:round;marker:none;marker-start:none;marker-mid:none;marker-end:none;stroke-miterlimit:4;stroke-dasharray:none;stroke-dashoffset:0;stroke-opacity:1;visibility:visible;display:inline;overflow:visible;enable-background:accumulate"
       d="M 306.78571,249.86218 C 305.61407,248.96364 303.21551,250.04045 301.07143,250.57647 C 298.52472,251.21314 296.74901,252.81779 294.28571,253.43361 C 291.4552,254.14124 288.67225,254.92626 286.07143,255.57647 C 284.07613,256.07529 284.5166,258.28573 285,260.21932 C 285.80329,263.43246 285.06325,263.58056 288.21429,262.00504 C 292.00843,260.10797 296.73576,260.14253 300.71429,259.1479 C 303.32013,258.49643 305.95941,256.88248 307.85714,255.93361 C 308.27251,255.72593 306.86178,250.24249 306.78571,249.86218 z"
       id="path6311" />
    <path
       style="opacity:1;fill:#e8e4e2;fill-opacity:1;fill-rule:evenodd;stroke:#000000;stroke-width:2;stroke-linecap:round;stroke-linejoin:round;marker:none;marker-start:none;marker-mid:none;marker-end:none;stroke-miterlimit:4;stroke-dasharray:none;stroke-dashoffset:0;stroke-opacity:1;visibility:visible;display:inline;overflow:visible;enable-background:accumulate"
       d="M 281.07143,262.00504 C 281.07143,260.58273 281.00731,268.33294 279.64286,273.79075 C 278.357,278.93419 279.28571,286.65425 279.28571,292.00504 C 279.28571,297.11353 278.21429,301.94512 278.21429,307.00504 C 278.21429,310.90422 277.5,314.94771 277.5,318.79075 C 277.5,320.63972 277.14286,322.20583 277.14286,324.1479 C 277.14286,327.34955 277.10766,326.25555 277.85714,327.00504 C 278.09725,327.24515 282.49627,326.29075 283.21429,326.29075 C 284.05949,326.29075 283.67825,324.57519 283.21429,322.71932 C 282.80152,321.06825 283.19901,318.49472 283.57143,317.00504 C 284.0267,315.18395 283.92857,312.76642 283.92857,310.93361 C 283.92857,307.99704 284.09103,305.47848 284.64286,302.71932 C 285.25261,299.67057 284.64286,295.83984 284.64286,292.71932 C 284.64286,289.79926 283.92857,286.70545 283.92857,283.79075 C 283.92857,281.15424 283.57143,278.30647 283.57143,275.57647 C 283.57143,273.38949 283.92857,271.68821 283.92857,269.50504 C 283.92857,267.6956 284.64286,266.03891 284.64286,264.1479 C 284.64286,261.9235 283.73213,263.06932 281.07143,262.00504 z"
       id="path6317" />
    <path
       style="opacity:1;fill:#c8beb7;fill-opacity:1;fill-rule:evenodd;stroke:#000000;stroke-width:2;stroke-linecap:round;stroke-linejoin:round;marker:none;marker-start:none;marker-mid:none;marker-end:none;stroke-miterlimit:4;stroke-dasharray:none;stroke-dashoffset:0;stroke-opacity:1;visibility:visible;display:inline;overflow:visible;enable-background:accumulate"
       d="M 278.21429,326.29075 C 275.99853,326.84469 274.86615,329.41559 273.57143,332.00504 C 272.40012,334.34766 270.5842,336.09683 270,338.43361 C 269.56852,340.15954 268.68367,340.84178 268.21429,342.71932 C 267.76158,344.53016 266.76703,346.32812 266.07143,347.71932 C 266.01819,347.8258 266.07143,347.95742 266.07143,348.07647 C 266.07143,349.39878 264.26473,351.33272 263.92857,352.00504 C 263.75635,352.34947 266.01052,356.52608 266.42857,357.36218 C 267.51043,359.5259 268.12691,361.92528 268.57143,364.1479 C 268.93864,365.98396 270.2613,367.69311 270.71429,369.50504 C 271.15328,371.26102 271.72524,372.12028 272.14286,373.79075 C 272.62715,375.72792 272.58683,375.93361 275,375.93361 C 277.38748,375.93361 280.05065,375.21932 282.5,375.21932 C 284.28571,375.21932 286.07143,375.21932 287.85714,375.21932 C 290.29692,375.21932 291.29345,375.03596 290.71429,372.71932 C 290.20018,370.66289 289.79026,368.66608 289.28571,366.6479 C 288.80302,364.71713 287.87657,362.76789 287.14286,360.93361 C 286.35376,358.96087 285.49691,357.20695 285,355.21932 C 284.59634,353.60467 283.60065,352.42063 282.85714,350.93361 C 282.23828,349.69589 282.14286,348.56949 282.14286,346.6479 C 282.14286,344.21424 282.1751,341.84135 281.78571,339.50504 C 281.41426,337.27632 282.443,334.43288 282.85714,332.36218 C 283.20919,330.60197 283.21429,328.86895 283.21429,327.00504 C 283.21429,325.32145 279.86518,326.62093 278.21429,326.29075 z"
       id="path6325" />
    <path
       style="opacity:1;fill:#b7aaa0;fill-opacity:1;fill-rule:evenodd;stroke:none;stroke-width:2;stroke-linecap:round;stroke-linejoin:round;marker:none;marker-start:none;marker-mid:none;marker-end:none;stroke-miterlimit:4;stroke-dasharray:none;stroke-dashoffset:0;stroke-opacity:1;visibility:visible;display:inline;overflow:visible;enable-background:accumulate"
       d="M 275,334.50504 C 274.52381,335.10028 274.04762,335.69551 273.57143,336.29075 C 272.28847,337.89445 271.60244,340.58588 270.71429,342.36218 C 270.02924,343.73228 269.39758,345.10746 268.21429,346.29075 C 266.72213,347.78291 266.30912,349.38438 266.78571,351.29075 C 267.21887,353.02338 267.57243,354.6499 268.21429,355.93361 C 269.07437,357.65378 269.53114,360.12958 270,362.00504 C 270.64654,364.5912 271.55433,366.7938 272.14286,369.1479 C 272.65798,371.20838 272.7401,371.53085 273.92857,372.71932 C 274.69389,373.48464 278.53634,372.36218 279.64286,372.36218 C 281.54762,372.36218 283.45238,372.36218 285.35714,372.36218 C 286.72873,372.36218 284.62251,370.91326 283.21429,369.50504 C 281.64561,367.93636 280.33732,364.9548 278.92857,363.07647 C 277.51294,361.18896 276.72466,360.09722 275.71429,358.07647 C 274.82777,356.30344 274.28571,355.17745 274.28571,353.07647 C 274.28571,351.51891 274.28571,349.98696 274.28571,348.07647 C 274.28571,346.76672 275.90692,344.83406 276.42857,343.79075 C 277.1924,342.2631 277.14286,339.90668 277.14286,338.07647 C 277.14286,336.17181 276.6661,335.75462 275,334.50504 z"
       id="path6327" />
    <path
       style="opacity:1;fill:#ebe7e5;fill-opacity:1;fill-rule:evenodd;stroke:#000000;stroke-width:2;stroke-linecap:round;stroke-linejoin:round;marker:none;marker-start:none;marker-mid:none;marker-end:none;stroke-miterlimit:4;stroke-dasharray:none;stroke-dashoffset:0;stroke-opacity:1;visibility:visible;display:inline;overflow:visible;enable-background:accumulate"
       d="M 310.71429,333.07646 C 309.76191,334.02884 308.80953,334.98123 307.85714,335.93361 C 306.40887,337.38188 311.0252,338.58906 312.85714,339.50503 C 314.34786,340.25039 311.52381,343.50503 312.85714,344.50503 C 314.39281,345.65679 311.67729,348.35705 312.14286,350.21932 C 312.91144,353.29364 317.84133,350.94942 312.14286,356.64789 C 311.82643,356.96433 316.83277,360.83951 315,364.50503 C 313.03172,368.4416 312.36476,369.01265 315,371.64789 C 317.56342,374.21131 309.13177,378.07646 317.14286,378.07646 C 320.3813,378.07646 315.07115,384.22042 314.28572,387.36218 C 314.06612,388.24056 313.91382,391.3055 311.42857,393.79075 C 310.06188,395.15744 317.70488,394.18596 319.28572,393.79075 C 322.67995,392.94219 326.28844,393.07646 330,393.07646 C 332.77242,393.07646 336.74268,392.36218 340,392.36218 C 343.27701,392.36218 347.16839,393.07646 350.71429,393.07646 C 354.28572,393.07646 357.85714,393.07646 361.42857,393.07646 C 363.39196,393.07646 365.38676,392.52594 367.14286,391.64789 C 370.30872,390.06496 360.57672,388.93493 357.14286,388.07646 C 355.60917,387.69304 360.08812,384.86373 361.42857,383.07646 C 362.97381,381.01615 356.15175,381.09425 355,378.79075 C 353.84825,376.48725 359.91034,374.86068 359.28572,372.36218 C 358.4776,369.12971 355.00022,370.2191 359.28572,365.93361 C 359.74631,365.47301 354.16862,361.76499 357.85714,358.07646 C 362.22648,353.70712 353.75721,354.31925 358.57143,349.50503 C 361.13125,346.94521 358.57143,344.19771 358.57143,340.21932 C 358.57143,336.5774 359.5051,336.09686 358.57143,332.36218 C 357.81795,329.34826 352.4736,330.21932 349.28572,330.21932 C 344.74504,330.21932 339.27971,330.93361 334.28572,330.93361 C 330.61159,330.93361 326.85539,331.64789 322.85714,331.64789 C 319.38579,331.64789 316.02858,331.64789 314.28572,331.64789 C 313.00353,331.64789 311.90476,332.60027 310.71429,333.07646 z"
       id="path5706" />
    <path
       style="opacity:1;fill:#ebe7e5;fill-opacity:1;fill-rule:evenodd;stroke:#000000;stroke-width:2;stroke-linecap:round;stroke-linejoin:round;marker:none;marker-start:none;marker-mid:none;marker-end:none;stroke-miterlimit:4;stroke-dasharray:none;stroke-dashoffset:0;stroke-opacity:1;visibility:visible;display:inline;overflow:visible;enable-background:accumulate"
       d="M 410.4546,333.72357 C 406.75052,333.72357 417.79481,332.29171 421.4989,332.29171 C 425.38485,332.29171 429.2708,332.29171 433.15675,332.29171 C 436.77133,332.29171 439.84814,331.57579 443.58747,331.57579 C 446.65533,331.57579 449.72319,331.57579 452.79105,331.57579 C 457.73114,331.57579 453.98292,333.02823 451.5639,334.43951 C 447.41978,336.85724 445.60918,336.46111 450.95033,338.01916 C 455.9975,339.49145 453.04093,340.12725 449.72319,343.03067 C 448.17961,344.38149 453.26741,345.01837 454.63176,346.61033 C 455.35486,347.45406 453.7171,349.65636 454.63176,350.18998 C 455.74449,350.83916 454.89788,353.45911 454.01819,354.48556 C 453.74959,354.79897 454.78895,357.25757 452.17747,358.78114 C 450.34815,359.84839 454.63176,362.59944 455.85891,364.50858 C 456.011,364.74521 451.08847,366.51769 456.47247,368.08824 C 460.97858,369.4027 454.08173,373.22312 453.40461,373.81568 C 451.78487,375.23315 458.19068,376.53528 457.69961,378.82719 C 456.93364,382.40226 456.79074,380.31265 457.69961,384.55464 C 458.2172,386.97033 451.20965,385.88316 458.92676,388.13429 C 462.79483,389.26263 459.25526,393.22896 457.08605,393.86173 C 453.27988,394.97202 448.11762,393.86173 444.20104,393.86173 C 440.36849,393.86173 436.45095,392.42987 432.54318,392.42987 C 429.2708,392.42987 425.99842,392.42987 422.72604,392.42987 C 419.97676,392.42987 416.15971,393.09243 413.52246,393.86173 C 410.94304,394.61417 408.20484,393.86173 405.54603,393.86173 C 402.80205,393.86173 410.4546,390.99801 412.90889,389.56615 C 413.67181,389.12106 407.86898,387.5716 411.06818,383.8387 C 414.11331,380.28557 411.30114,379.91448 410.4546,375.96347 C 409.92112,373.47355 414.49718,373.52114 411.06818,369.5201 C 408.61502,366.65769 410.95332,365.04464 411.68174,361.64487 C 411.84795,360.86912 410.88402,353.41211 411.06818,352.33777 C 411.53765,349.59876 409.19449,347.17239 408.61389,344.46253 C 407.74638,340.4136 409.55447,337.92474 410.4546,333.72357 z"
       id="path5708" />
    <path
       style="opacity:1;fill:#ebe7e5;fill-opacity:1;fill-rule:evenodd;stroke:#000000;stroke-width:2;stroke-linecap:round;stroke-linejoin:round;marker:none;marker-start:none;marker-mid:none;marker-end:none;stroke-miterlimit:4;stroke-dasharray:none;stroke-dashoffset:0;stroke-opacity:1;visibility:visible;display:inline;overflow:visible;enable-background:accumulate"
       d="M 364.28571,192.36218 C 365.47619,192.60028 366.66667,192.83837 367.85714,193.07647 C 371.86322,193.87768 371.77829,193.82046 370.71429,198.07647 C 369.79359,201.75924 373.76664,200.34909 377.14286,199.50504 C 380.11473,198.76207 374.48103,203.79075 380,203.79075 C 385.55421,203.79075 381.47498,206.69431 384.28571,209.50504 C 387.17656,212.39588 394.29963,205.90578 390.71429,213.07647 C 389.77626,214.95252 390.35181,215.20865 391.42857,217.36218 C 392.49852,219.50208 395.58762,219.44171 398.57143,220.93361 C 398.65236,220.97407 393.86398,223.68532 400,225.21932 C 402.614,225.87282 398.03766,229.97864 397.85714,230.21932 C 397.02415,231.32998 400.98169,232.80906 400,233.79075 C 397.42412,236.36663 399.66008,236.30797 402.14286,238.79075 C 403.19706,239.84495 394.07911,243.07647 402.14286,243.07647 C 404.53569,243.07647 403.32642,247.87296 402.85714,250.21932 C 402.52567,251.87669 406.85222,255.21932 400,255.21932 C 396.66667,255.21932 393.33333,255.21932 390,255.21932 C 386.58029,255.21932 382.42595,255.93361 378.57143,255.93361 C 374.8109,255.93361 372.4345,256.6479 369.28571,256.6479 C 365.64209,256.6479 362.60483,254.50504 358.57143,254.50504 C 354.7759,254.50504 350.80705,255.91042 356.42857,254.50504 C 361.27659,253.29303 356.95605,252.17537 355,250.21932 C 352.80995,248.02928 361.14006,248.18291 355,246.6479 C 353.4505,246.26052 356.42857,243.79075 357.14286,242.36218 C 358.21296,240.22197 356.42145,237.13359 357.85714,235.21932 C 358.13532,234.84842 351.38717,238.24206 352.85714,232.36218 C 354.20276,226.9797 351.01859,229.25039 347.14286,230.21932 C 344.83299,230.79679 348.20765,225.20606 347.14286,223.07647 C 345.19932,219.1894 341.50536,227.05504 343.57143,218.79075 C 344.037,216.92848 339.92878,217.29096 338.57143,215.93361 C 336.1174,213.47958 333.57143,216.67717 333.57143,212.36218 C 333.57143,208.68354 336.98855,207.40076 340,206.6479 C 342.86106,205.93263 347.1723,201.99032 349.28571,200.93361 C 352.00175,199.57559 354.58325,197.13903 357.14286,195.21932 C 359.4234,193.50892 360.69055,191.46339 364.28571,192.36218 z"
       id="path5690" />
    <path
       style="opacity:1;fill:#c8beb7;fill-opacity:1;fill-rule:evenodd;stroke:#000000;stroke-width:2;stroke-linecap:round;stroke-linejoin:round;marker:none;marker-start:none;marker-mid:none;marker-end:none;stroke-miterlimit:4;stroke-dasharray:none;stroke-dashoffset:0;stroke-opacity:1;visibility:visible;display:inline;overflow:visible;enable-background:accumulate"
       d="M 225.63831,191.26965 C 226.07949,192.4007 226.52068,193.53176 226.96185,194.66281 C 228.93119,199.71156 233.95609,203.88456 237.62254,207.34508 C 241.99635,211.47321 245.75412,218.72574 249.00514,223.80552 C 252.45088,229.18955 256.77376,233.29398 260.2193,238.67769 C 262.52951,242.28744 264.83972,245.8972 267.14993,249.50694 C 269.23645,252.76717 270.11615,256.93707 273.79181,254.58468 C 278.71673,251.43277 283.88536,247.27683 289.04902,243.97214 C 294.57629,240.43472 300.2879,237.62739 305.67791,234.17782 C 312.09524,230.07079 318.51257,225.96374 324.9299,221.85671 C 330.74351,218.13605 337.8465,213.49885 342.81018,208.71737 C 349.10753,202.65121 357.77349,196.59685 365.11846,191.89613 C 370.21124,188.63679 374.61665,184.96932 379.77403,181.66863 C 384.18595,178.84505 388.59786,176.02146 393.00977,173.19786 C 399.17252,169.25375 406.12288,165.62327 411.2751,160.66016 C 415.91191,156.19356 419.09233,159.62388 415.36618,153.80169 C 411.2604,147.38634 405.35476,141.1376 400.25353,135.48822 C 395.23211,129.92725 391.4169,123.00592 387.33077,116.62127 C 383.89204,111.24817 380.08217,106.62025 376.71825,101.36405 C 374.4936,97.887993 371.47495,94.033108 368.58436,91.304881 C 364.98654,87.909139 364.45498,89.253035 360.42635,93.133765 C 356.26512,97.142267 351.14305,100.7711 346.15581,103.96289 C 340.99516,107.26567 337.02586,111.50207 331.88527,114.79201 C 327.01528,117.90876 320.48089,122.07961 316.41147,126.39121 C 311.77448,131.30415 303.23108,135.67459 297.54452,139.31394 C 292.36992,142.62565 288.02509,146.25436 282.88894,149.54145 C 276.5705,153.5852 270.66289,159.0621 264.40702,163.06582 C 259.97678,165.90113 254.82028,168.3532 250.18461,171.31999 C 246.54046,173.65222 242.17068,175.6008 238.36871,178.03404 C 235.36059,179.95921 232.35247,181.88439 229.34435,183.80956 C 226.23909,185.79689 224.25144,187.71416 225.63831,191.26965 z"
       id="path5672" />
    <path
       style="opacity:1;fill:#b7aaa0;fill-opacity:1;fill-rule:evenodd;stroke:none;stroke-width:2;stroke-linecap:round;stroke-linejoin:round;marker:none;marker-start:none;marker-mid:none;marker-end:none;stroke-miterlimit:4;stroke-dasharray:none;stroke-dashoffset:0;stroke-opacity:1;visibility:visible;display:inline;overflow:visible;enable-background:accumulate"
       d="M 327.28942,164.94317 C 326.78435,164.10138 326.27927,163.25958 325.7742,162.41779 C 323.60531,158.80298 323.97498,151.71588 324.76404,147.77058 C 325.6259,143.46127 329.20434,140.67167 331.83511,137.16398 C 334.14968,134.07788 337.17146,132.3327 339.91633,129.58783 C 342.74301,126.76115 347.47256,126.31479 351.02801,124.53707 C 354.48208,122.81004 355.43972,122.27964 357.08892,118.98123 C 358.35359,116.45191 358.40428,114.13034 360.11938,112.41524 C 361.83041,110.70421 362.61219,106.98971 363.14984,104.83909 C 363.83112,102.11399 365.99336,101.98164 368.70568,101.30356 C 371.59038,100.58238 371.8605,102.43808 373.75644,104.33402 C 376.0165,106.59407 377.4544,108.92791 379.31228,111.40509 C 380.94323,113.57969 381.49604,117.01051 383.35289,119.48631 C 385.18472,121.92875 388.79755,123.7154 390.92904,126.55737 C 391.15491,126.85854 391.26575,127.23081 391.43411,127.56753 C 392.57166,129.84263 394.73231,131.63855 395.9798,134.13352 C 397.12437,136.42266 399.39002,138.51212 401.03056,140.69951 C 402.81124,143.07375 404.63401,144.37087 406.08132,147.2655 C 407.4007,149.90426 408.06458,151.76179 409.61686,153.83149 C 412.03473,157.05533 409.4804,157.59564 407.09148,159.38733 C 403.75834,161.88719 399.13895,163.75479 395.47472,165.95332 C 390.98535,168.64695 386.86139,172.28029 382.34274,174.53962 C 379.19419,176.11389 377.7926,179.08753 374.76659,180.60054 C 371.64129,182.16319 369.19836,184.44407 366.1803,185.6513 C 363.0257,186.91314 359.40051,190.60987 356.58385,192.72237 C 353.38846,195.11891 350.78611,196.63139 347.49248,198.27821 C 344.38586,199.83151 341.81687,202.08763 338.90618,203.83404 C 335.50856,205.87262 332.45992,209.04754 329.30973,211.41019 C 326.61583,213.43061 324.05373,215.55342 321.22851,216.96603 C 317.94568,218.60744 315.25815,220.96136 312.13714,222.52187 C 308.89466,224.1431 306.27322,226.64631 303.04576,228.58278 C 300.99393,229.81388 299.40419,231.69277 297.48992,233.12847 C 294.79618,235.14877 301.53053,227.74099 303.55084,225.04725 C 305.36887,222.62321 307.56495,221.02651 309.61176,219.49141 C 311.80614,217.84562 315.17945,216.20248 317.69298,214.94572 C 319.57627,214.00408 322.63516,210.98655 324.76404,209.38988 C 327.26057,207.51749 329.53882,205.21218 331.33004,202.82389 C 333.31512,200.17711 334.01829,198.92971 333.35034,196.2579 C 332.88089,194.38011 328.05252,195.30951 326.27927,195.75282 C 323.72646,196.39103 320.2903,195.53626 318.70313,194.74267 C 316.01496,193.39859 315.58833,192.76454 318.70313,191.20714 C 322.09562,189.51089 325.53581,187.96899 328.80465,186.66145 C 331.3187,185.65583 333.75662,181.80827 334.86557,179.59038 C 336.31433,176.69285 334.18058,173.79466 332.84526,172.01424 C 330.88492,169.40045 329.09549,170.07053 327.7945,167.46855 C 326.04431,163.96818 327.71633,165.37008 329.30973,166.96348"
       id="path6275" />
    <path
       style="opacity:1;fill:#ffffff;fill-opacity:1;fill-rule:evenodd;stroke:#000000;stroke-width:2;stroke-linecap:round;stroke-linejoin:round;marker:none;marker-start:none;marker-mid:none;marker-end:none;stroke-miterlimit:4;stroke-dasharray:none;stroke-dashoffset:0;stroke-opacity:1;visibility:visible;display:inline;overflow:visible;enable-background:accumulate"
       d="M 263.39611,195.93847 C 260.74329,197.63625 259.24491,201.67862 258.8237,207.34519 C 258.53051,211.28972 264.12807,213.75287 267.00574,214.82942 C 271.39004,216.46961 273.60312,215.69541 277.13706,213.43372 C 281.1077,210.89254 283.64797,209.07655 285.22292,204.86666 C 286.69902,200.921 286.70675,199.23465 284.21224,195.33695 C 282.0039,191.88636 279.8695,191.28103 276.96874,190.64426 C 273.3091,189.8409 271.57702,190.81204 268.42569,191.87152 C 266.65275,192.46759 264.4544,194.91902 263.39611,195.93847 z"
       id="path5674" />
    <path
       style="opacity:1;fill:#ffffff;fill-opacity:1;fill-rule:evenodd;stroke:#000000;stroke-width:2;stroke-linecap:round;stroke-linejoin:round;marker:none;marker-start:none;marker-mid:none;marker-end:none;stroke-miterlimit:4;stroke-dasharray:none;stroke-dashoffset:0;stroke-opacity:1;visibility:visible;display:inline;overflow:visible;enable-background:accumulate"
       d="M 355.70941,133.46651 C 351.49973,134.88181 351.19809,137.52813 349.9819,143.06837 C 349.17603,146.73948 352.60852,150.95832 355.15581,152.47778 C 357.96144,154.15133 362.29444,153.73313 365.45558,152.67035 C 369.53376,151.29926 371.64441,149.15422 373.70989,145.69158 C 375.42279,142.81997 376.63633,139.49993 377.8491,136.25817 C 379.0732,132.9861 372.83015,129.9168 371.64039,129.20711 C 368.51485,127.34273 365.23268,128.83471 362.54387,128.24446 C 359.61853,127.6023 357.17146,130.52347 355.70941,133.46651 z"
       id="path5676" />
    <path
       style="opacity:1;fill:#ff2a2a;fill-opacity:1;fill-rule:evenodd;stroke:#000000;stroke-width:2;stroke-linecap:round;stroke-linejoin:round;marker:none;marker-start:none;marker-mid:none;marker-end:none;stroke-miterlimit:4;stroke-dasharray:none;stroke-dashoffset:0;stroke-opacity:1;visibility:visible;display:inline;overflow:visible;enable-background:accumulate"
       d="M 359.99294,137.50944 C 353.2215,136.02298 361.8033,145.6564 361.82182,145.66744 C 365.29752,147.7407 368.28785,143.5573 369.42635,141.64866 C 371.21165,138.65568 366.58484,135.86223 365.19097,135.03078 C 363.46729,134.00262 360.79904,136.73293 359.99294,137.50944 z"
       id="path5678" />
    <path
       style="opacity:1;fill:#ff2a2a;fill-opacity:1;fill-rule:evenodd;stroke:#000000;stroke-width:2;stroke-linecap:round;stroke-linejoin:round;marker:none;marker-start:none;marker-mid:none;marker-end:none;stroke-miterlimit:4;stroke-dasharray:none;stroke-dashoffset:0;stroke-opacity:1;visibility:visible;display:inline;overflow:visible;enable-background:accumulate"
       d="M 270.47117,199.04287 C 267.63798,200.99533 265.93371,203.33607 269.34007,206.55111 C 272.351,209.3929 274.86252,207.25701 277.2815,205.70889 C 279.99389,203.97297 278.42977,200.83725 276.22268,198.75412 C 274.61475,197.2365 272.56269,198.22705 270.47117,199.04287 z"
       id="path5682" />
    <path
       style="opacity:1;fill:none;fill-opacity:1;fill-rule:evenodd;stroke:#000000;stroke-width:2;stroke-linecap:round;stroke-linejoin:round;marker:none;marker-start:none;marker-mid:none;marker-end:none;stroke-miterlimit:4;stroke-dasharray:none;stroke-dashoffset:0;stroke-opacity:1;visibility:visible;display:inline;overflow:visible;enable-background:accumulate"
       d="M 278.72523,234.46644 C 278.08222,233.85955 285.6936,229.15869 287.96618,227.70426 C 290.80965,225.88447 293.4618,223.33907 296.60552,221.32711 C 300.97473,218.53085 304.36976,215.51002 308.8546,212.63975 C 312.26381,210.45788 315.67301,208.27603 319.08221,206.09416 C 322.37279,203.98823 325.61069,202.76403 329.09324,200.53523 C 332.90354,198.09668 336.71382,195.65812 340.52411,193.21957 C 344.65847,190.57361 348.00461,187.58406 352.17157,184.91724 C 355.86683,182.5523 358.4524,180.04951 362.01415,177.77002 C 365.5045,175.53623 367.95989,173.11676 371.25511,171.00784 C 374.06269,169.211 376.87028,167.41418 379.67787,165.61735 C 382.83665,163.59575 383.84772,162.10062 387.11394,160.01027 C 390.3226,157.95674 393.53127,155.90322 396.73994,153.84971 C 397.34156,153.46467 397.94318,153.07964 398.54481,152.6946"
       id="path5684" />
    <path
       style="opacity:1;fill:none;fill-opacity:1;fill-rule:evenodd;stroke:#000000;stroke-width:2;stroke-linecap:round;stroke-linejoin:round;marker:none;marker-start:none;marker-mid:none;marker-end:none;stroke-miterlimit:4;stroke-dasharray:none;stroke-dashoffset:0;stroke-opacity:1;visibility:visible;display:inline;overflow:visible;enable-background:accumulate"
       d="M 345.71429,214.50504 C 346.90476,213.55266 348.09524,212.60028 349.28571,211.6479 C 352.38976,209.16466 355.37624,207.08 357.85714,205.21932 C 360.43633,203.28493 362.3049,200.85259 365,199.50504 C 365.97824,199.01592 367.8969,196.97522 369.28571,195.93361"
       id="path5692" />
    <path
       style="opacity:1;fill:none;fill-opacity:1;fill-rule:evenodd;stroke:#000000;stroke-width:2;stroke-linecap:round;stroke-linejoin:round;marker:none;marker-start:none;marker-mid:none;marker-end:none;stroke-miterlimit:4;stroke-dasharray:none;stroke-dashoffset:0;stroke-opacity:1;visibility:visible;display:inline;overflow:visible;enable-background:accumulate"
       d="M 348.57143,225.21932 C 353.39849,222.80579 356.87551,218.92443 361.42857,216.6479 C 365.50638,214.60899 367.89721,211.27072 371.42857,209.50504 C 372.27955,209.07955 373.77251,207.1611 374.28571,206.6479"
       id="path5694" />
    <path
       style="opacity:1;fill:none;fill-opacity:1;fill-rule:evenodd;stroke:#000000;stroke-width:2;stroke-linecap:round;stroke-linejoin:round;marker:none;marker-start:none;marker-mid:none;marker-end:none;stroke-miterlimit:4;stroke-dasharray:none;stroke-dashoffset:0;stroke-opacity:1;visibility:visible;display:inline;overflow:visible;enable-background:accumulate"
       d="M 365.71429,225.21932 C 370.7391,222.70692 375.1334,219.0812 380,216.6479 C 383.46614,214.91483 386.71182,212.79322 388.57143,210.93361 C 388.80952,210.69552 389.04762,210.45742 389.28571,210.21932"
       id="path5696" />
    <path
       style="opacity:1;fill:none;fill-opacity:1;fill-rule:evenodd;stroke:#000000;stroke-width:2;stroke-linecap:round;stroke-linejoin:round;marker:none;marker-start:none;marker-mid:none;marker-end:none;stroke-miterlimit:4;stroke-dasharray:none;stroke-dashoffset:0;stroke-opacity:1;visibility:visible;display:inline;overflow:visible;enable-background:accumulate"
       d="M 357.85714,240.93361 C 361.68294,237.10782 367.61308,234.62707 372.14286,232.36218 C 376.38423,230.24149 380.27344,227.93975 384.28571,225.93361 C 386.05662,225.04816 386.58659,224.42603 387.85714,223.79075"
       id="path5698" />
    <path
       style="opacity:1;fill:none;fill-opacity:1;fill-rule:evenodd;stroke:#000000;stroke-width:2;stroke-linecap:round;stroke-linejoin:round;marker:none;marker-start:none;marker-mid:none;marker-end:none;stroke-miterlimit:4;stroke-dasharray:none;stroke-dashoffset:0;stroke-opacity:1;visibility:visible;display:inline;overflow:visible;enable-background:accumulate"
       d="M 380,240.93361 C 381.33585,240.26569 388.91592,235.76137 392.85714,233.79075 C 394.82005,232.8093 396.75806,232.55458 398.57143,231.6479"
       id="path5700" />
    <path
       style="opacity:1;fill:none;fill-opacity:1;fill-rule:evenodd;stroke:#000000;stroke-width:2;stroke-linecap:round;stroke-linejoin:round;marker:none;marker-start:none;marker-mid:none;marker-end:none;stroke-miterlimit:4;stroke-dasharray:none;stroke-dashoffset:0;stroke-opacity:1;visibility:visible;display:inline;overflow:visible;enable-background:accumulate"
       d="M 357.85714,250.21932 C 362.7867,247.75455 369.60899,247.01181 375,245.93361 C 377.13387,245.50684 379.20238,245.21932 381.42857,245.21932"
       id="path5702" />
    <path
       style="opacity:1;fill:none;fill-opacity:1;fill-rule:evenodd;stroke:#000000;stroke-width:2;stroke-linecap:round;stroke-linejoin:round;marker:none;marker-start:none;marker-mid:none;marker-end:none;stroke-miterlimit:4;stroke-dasharray:none;stroke-dashoffset:0;stroke-opacity:1;visibility:visible;display:inline;overflow:visible;enable-background:accumulate"
       d="M 387.14286,249.50504 C 392.97906,248.3378 398.70417,244.33563 405,243.07647"
       id="path5704" />
    <path
       style="opacity:1;fill:#c8beb7;fill-opacity:1;fill-rule:evenodd;stroke:#000000;stroke-width:2;stroke-linecap:round;stroke-linejoin:round;marker:none;marker-start:none;marker-mid:none;marker-end:none;stroke-miterlimit:4;stroke-dasharray:none;stroke-dashoffset:0;stroke-opacity:1;visibility:visible;display:inline;overflow:visible;enable-background:accumulate"
       d="M 305,246.64789 C 311.04693,245.44781 323.66791,245.93361 332.14286,245.93361 C 341.51911,245.93361 350.71969,247.36218 360,247.36218 C 367.42077,247.36218 375.19932,248.07646 382.85715,248.07646 C 388.95488,248.07646 394.57478,247.36218 400.71429,247.36218 C 404.38363,247.36218 408.76435,246.64789 412.85715,246.64789 C 417.09752,246.64789 420.78856,245.93361 425,245.93361 C 428.57143,245.93361 432.14286,245.93361 435.71429,245.93361 C 435.95238,245.93361 436.19048,245.93361 436.42857,245.93361 C 439.82676,245.93361 441.11082,246.72733 444.28572,245.93361 C 448.94584,244.76857 449.48329,242.43816 450.71429,247.36218 C 451.28469,249.64377 451.51881,254.15168 452.14286,256.64789 C 452.87555,259.57865 453.57143,264.23984 453.57143,267.36218 C 453.57143,271.21409 454.28572,275.36892 454.28572,278.79075 C 454.28572,283.16414 454.65107,288.10929 455.71429,292.36218 C 457.01998,297.58494 458.57143,303.30658 458.57143,308.79075 C 458.57143,313.22008 460.71429,317.08421 460.71429,321.64789 C 460.71429,326.58145 463.04329,330.96389 464.28572,335.93361 C 465.69829,341.58388 467.1638,341.64789 462.85715,341.64789 C 458.80953,341.64789 454.76191,341.64789 450.71429,341.64789 C 445.95238,341.64789 441.19048,341.64789 436.42857,341.64789 C 430.71429,341.64789 425,341.64789 419.28572,341.64789 C 413.38779,341.64789 407.34221,341.64789 401.42857,341.64789 C 394.0753,341.64789 387.1026,339.50503 380,339.50503 C 372.38096,339.50503 364.76191,339.50503 357.14286,339.50503 C 347.62026,339.50503 338.09105,337.36218 328.57143,337.36218 C 322.06467,337.36218 311.90933,334.38485 305.71429,335.93361 C 302.18088,336.81696 295,341.71862 295,338.07646 C 295,334.88298 294.9389,331.178 295.71429,328.07646 C 296.63039,324.41207 296.2091,320.38292 297.14286,316.64789 C 298.13157,312.69306 298.23531,308.70667 299.28572,304.50503 C 300.58114,299.32335 299.38735,293.38422 300.71429,288.07646 C 302.50121,280.92877 302.12073,273.18712 303.57143,265.93361 C 303.85394,264.52108 305.29785,246.64789 305,246.64789 z"
       id="path5688" />
    <path
       style="opacity:1;fill:none;fill-opacity:1;fill-rule:evenodd;stroke:#000000;stroke-width:2;stroke-linecap:round;stroke-linejoin:round;marker:none;marker-start:none;marker-mid:none;marker-end:none;stroke-miterlimit:4;stroke-dasharray:none;stroke-dashoffset:0;stroke-opacity:1;visibility:visible;display:inline;overflow:visible;enable-background:accumulate"
       d="M 314.28571,343.07647 C 315.82082,342.97321 322.62541,343.07647 326.42857,343.07647 C 330.15572,343.07647 333.80434,342.95613 337.14286,343.79075 C 341.04287,344.76576 344.13733,343.03937 347.14286,343.79075"
       id="path6219" />
    <path
       style="opacity:1;fill:none;fill-opacity:1;fill-rule:evenodd;stroke:#000000;stroke-width:2;stroke-linecap:round;stroke-linejoin:round;marker:none;marker-start:none;marker-mid:none;marker-end:none;stroke-miterlimit:4;stroke-dasharray:none;stroke-dashoffset:0;stroke-opacity:1;visibility:visible;display:inline;overflow:visible;enable-background:accumulate"
       d="M 323.57143,350.93361 C 327.89407,352.01427 335.18648,351.03917 339.28571,350.21932 C 342.93099,349.49027 347.15482,350.21633 350,349.50504 C 352.07888,348.98532 354.28571,349.50504 356.42857,349.50504"
       id="path6221" />
    <path
       style="opacity:1;fill:none;fill-opacity:1;fill-rule:evenodd;stroke:#000000;stroke-width:2;stroke-linecap:round;stroke-linejoin:round;marker:none;marker-start:none;marker-mid:none;marker-end:none;stroke-miterlimit:4;stroke-dasharray:none;stroke-dashoffset:0;stroke-opacity:1;visibility:visible;display:inline;overflow:visible;enable-background:accumulate"
       d="M 312.14286,358.07647 C 314.8402,357.40213 322.85931,357.36218 327.85714,357.36218 C 332.14286,357.36218 336.42857,357.36218 340.71429,357.36218 C 342.44106,357.36218 344.28437,356.8268 345,356.6479"
       id="path6223" />
    <path
       style="opacity:1;fill:none;fill-opacity:1;fill-rule:evenodd;stroke:#000000;stroke-width:2;stroke-linecap:round;stroke-linejoin:round;marker:none;marker-start:none;marker-mid:none;marker-end:none;stroke-miterlimit:4;stroke-dasharray:none;stroke-dashoffset:0;stroke-opacity:1;visibility:visible;display:inline;overflow:visible;enable-background:accumulate"
       d="M 327.85714,365.21932 C 334.64132,365.21932 342.99764,364.33408 349.28571,363.07647 C 352.67286,362.39904 356.75154,363.15721 359.28571,363.79075"
       id="path6225" />
    <path
       style="opacity:1;fill:none;fill-opacity:1;fill-rule:evenodd;stroke:#000000;stroke-width:2;stroke-linecap:round;stroke-linejoin:round;marker:none;marker-start:none;marker-mid:none;marker-end:none;stroke-miterlimit:4;stroke-dasharray:none;stroke-dashoffset:0;stroke-opacity:1;visibility:visible;display:inline;overflow:visible;enable-background:accumulate"
       d="M 317.14286,373.07647 C 318.56301,372.79244 320,372.60028 321.42857,372.36218 C 328.21497,371.23112 335.97169,370.93361 342.85714,370.93361 C 343.19386,370.93361 343.33333,371.4098 343.57143,371.6479"
       id="path6227" />
    <path
       style="opacity:1;fill:none;fill-opacity:1;fill-rule:evenodd;stroke:#000000;stroke-width:2;stroke-linecap:round;stroke-linejoin:round;marker:none;marker-start:none;marker-mid:none;marker-end:none;stroke-miterlimit:4;stroke-dasharray:none;stroke-dashoffset:0;stroke-opacity:1;visibility:visible;display:inline;overflow:visible;enable-background:accumulate"
       d="M 326.42857,378.07647 C 333.69881,378.07647 341.2524,375.93361 348.57143,375.93361 C 351.42857,375.93361 354.28571,375.93361 357.14286,375.93361"
       id="path6229" />
    <path
       style="opacity:1;fill:none;fill-opacity:1;fill-rule:evenodd;stroke:#000000;stroke-width:2;stroke-linecap:round;stroke-linejoin:round;marker:none;marker-start:none;marker-mid:none;marker-end:none;stroke-miterlimit:4;stroke-dasharray:none;stroke-dashoffset:0;stroke-opacity:1;visibility:visible;display:inline;overflow:visible;enable-background:accumulate"
       d="M 319.28571,385.21932 C 326.61853,385.21932 333.44488,384.50504 340.71429,384.50504 C 344.63803,384.50504 349.29147,384.5036 352.14286,383.79075 C 352.97003,383.58396 354.14356,383.79075 355,383.79075"
       id="path6231" />
    <path
       style="opacity:1;fill:none;fill-opacity:1;fill-rule:evenodd;stroke:#000000;stroke-width:2;stroke-linecap:round;stroke-linejoin:round;marker:none;marker-start:none;marker-mid:none;marker-end:none;stroke-miterlimit:4;stroke-dasharray:none;stroke-dashoffset:0;stroke-opacity:1;visibility:visible;display:inline;overflow:visible;enable-background:accumulate"
       d="M 412.14286,348.07647 C 413.68701,347.69043 420.4803,348.07647 424.28571,348.07647 C 428.57143,348.07647 432.85714,348.07647 437.14286,348.07647"
       id="path6233" />
    <path
       style="opacity:1;fill:none;fill-opacity:1;fill-rule:evenodd;stroke:#000000;stroke-width:2;stroke-linecap:round;stroke-linejoin:round;marker:none;marker-start:none;marker-mid:none;marker-end:none;stroke-miterlimit:4;stroke-dasharray:none;stroke-dashoffset:0;stroke-opacity:1;visibility:visible;display:inline;overflow:visible;enable-background:accumulate"
       d="M 422.14286,354.50504 C 425.82041,354.50504 435.40875,353.79075 441.42857,353.79075 C 445.7875,353.79075 450.36718,353.5254 454.28571,354.50504 C 454.5167,354.56279 454.76191,354.50504 455,354.50504"
       id="path6235" />
    <path
       style="opacity:1;fill:none;fill-opacity:1;fill-rule:evenodd;stroke:#000000;stroke-width:2;stroke-linecap:round;stroke-linejoin:round;marker:none;marker-start:none;marker-mid:none;marker-end:none;stroke-miterlimit:4;stroke-dasharray:none;stroke-dashoffset:0;stroke-opacity:1;visibility:visible;display:inline;overflow:visible;enable-background:accumulate"
       d="M 412.85714,362.36218 C 415.92368,363.12882 430.31867,360.93361 436.42857,360.93361 C 438.58462,360.93361 440.74297,360.64216 442.85714,360.21932"
       id="path6237" />
    <path
       style="opacity:1;fill:none;fill-opacity:1;fill-rule:evenodd;stroke:#000000;stroke-width:2;stroke-linecap:round;stroke-linejoin:round;marker:none;marker-start:none;marker-mid:none;marker-end:none;stroke-miterlimit:4;stroke-dasharray:none;stroke-dashoffset:0;stroke-opacity:1;visibility:visible;display:inline;overflow:visible;enable-background:accumulate"
       d="M 411.42857,368.07647 C 420.19776,368.07647 428.99657,366.6479 437.85714,366.6479 C 440.71429,366.6479 443.57143,366.6479 446.42857,366.6479"
       id="path6239" />
    <path
       style="opacity:1;fill:none;fill-opacity:1;fill-rule:evenodd;stroke:#000000;stroke-width:2;stroke-linecap:round;stroke-linejoin:round;marker:none;marker-start:none;marker-mid:none;marker-end:none;stroke-miterlimit:4;stroke-dasharray:none;stroke-dashoffset:0;stroke-opacity:1;visibility:visible;display:inline;overflow:visible;enable-background:accumulate"
       d="M 419.28571,374.50504 C 426.56845,374.50504 434.05333,373.79075 441.42857,373.79075 C 446.20408,373.79075 451.40492,373.4277 455.71429,374.50504"
       id="path6241" />
    <path
       style="opacity:1;fill:none;fill-opacity:1;fill-rule:evenodd;stroke:#000000;stroke-width:2;stroke-linecap:round;stroke-linejoin:round;marker:none;marker-start:none;marker-mid:none;marker-end:none;stroke-miterlimit:4;stroke-dasharray:none;stroke-dashoffset:0;stroke-opacity:1;visibility:visible;display:inline;overflow:visible;enable-background:accumulate"
       d="M 415.71429,381.6479 C 417.14286,381.6479 418.57143,381.6479 420,381.6479 C 429.66943,381.6479 439.66091,381.6479 449.28571,381.6479 C 449.52381,381.6479 449.76191,381.6479 450,381.6479"
       id="path6243" />
    <path
       style="opacity:1;fill:none;fill-opacity:1;fill-rule:evenodd;stroke:#000000;stroke-width:2;stroke-linecap:round;stroke-linejoin:round;marker:none;marker-start:none;marker-mid:none;marker-end:none;stroke-miterlimit:4;stroke-dasharray:none;stroke-dashoffset:0;stroke-opacity:1;visibility:visible;display:inline;overflow:visible;enable-background:accumulate"
       d="M 420.71429,387.36218 C 427.38095,387.36218 434.04762,387.36218 440.71429,387.36218 C 445.04712,387.36218 449.76859,386.6479 454.28571,386.6479 C 455.2381,386.6479 456.19048,386.6479 457.14286,386.6479"
       id="path6245" />
    <path
       style="opacity:1;fill:#666666;fill-opacity:1;fill-rule:evenodd;stroke:#000000;stroke-width:2;stroke-linecap:round;stroke-linejoin:round;marker:none;marker-start:none;marker-mid:none;marker-end:none;stroke-miterlimit:4;stroke-dasharray:none;stroke-dashoffset:0;stroke-opacity:1;visibility:visible;display:inline;overflow:visible;enable-background:accumulate"
       d="M 413.57143,262.48473 C 413.80952,263.67521 414.04762,264.86568 414.28571,266.05616 C 414.88295,269.04233 415.88158,273.15389 416.42857,275.34187 C 417.18811,278.38002 422.67614,274.67284 425.71429,273.9133 C 428.6533,273.17855 433.46597,273.40395 434.28571,273.19901 C 437.20749,272.46857 432.15901,267.54936 431.42857,264.62759 C 430.51065,260.95588 430.06974,257.48473 426.42857,257.48473 C 422.55881,257.48473 420.44089,258.48781 416.42857,257.48473 C 412.60342,256.52844 413.57143,259.40672 413.57143,262.48473 z"
       id="path6247" />
    <path
       style="opacity:1;fill:#ff2a2a;fill-opacity:1;fill-rule:evenodd;stroke:#000000;stroke-width:2;stroke-linecap:round;stroke-linejoin:round;marker:none;marker-start:none;marker-mid:none;marker-end:none;stroke-miterlimit:4;stroke-dasharray:none;stroke-dashoffset:0;stroke-opacity:1;visibility:visible;display:inline;overflow:visible;enable-background:accumulate"
       d="M 415.71429,258.79075 C 412.35107,257.94995 417.73063,265.42754 418.57143,268.79075 C 419.63523,273.04595 420.77134,270.93361 425,270.93361 C 427.79023,270.93361 432.31818,269.99692 434.28571,269.50504 C 437.55266,268.6883 433.86953,262.84028 433.57143,261.6479 C 432.93743,259.11188 430.15821,256.25002 429.28571,254.50504 C 428.48749,252.90859 422.35615,254.50504 420,254.50504 C 413.46189,254.50504 414.30303,251.73446 415.71429,258.79075 z"
       id="path6249" />
    <path
       style="opacity:1;fill:none;fill-opacity:1;fill-rule:evenodd;stroke:#000000;stroke-width:2;stroke-linecap:round;stroke-linejoin:round;marker:none;marker-start:none;marker-mid:none;marker-end:none;stroke-miterlimit:4;stroke-dasharray:none;stroke-dashoffset:0;stroke-opacity:1;visibility:visible;display:inline;overflow:visible;enable-background:accumulate"
       d="M 420.71429,269.50504 C 420.09918,269.50504 424.7761,264.50504 429.28571,264.50504 C 430.95238,264.50504 432.61905,264.50504 434.28571,264.50504"
       id="path6251" />
    <path
       style="opacity:1;fill:none;fill-opacity:1;fill-rule:evenodd;stroke:#000000;stroke-width:2;stroke-linecap:round;stroke-linejoin:round;marker:none;marker-start:none;marker-mid:none;marker-end:none;stroke-miterlimit:4;stroke-dasharray:none;stroke-dashoffset:0;stroke-opacity:1;visibility:visible;display:inline;overflow:visible;enable-background:accumulate"
       d="M 423.57143,265.21932 C 427.44734,265.21932 418.45497,259.38858 415.71429,256.6479"
       id="path6253" />
    <path
       style="opacity:1;fill:none;fill-opacity:1;fill-rule:evenodd;stroke:#000000;stroke-width:2;stroke-linecap:round;stroke-linejoin:round;marker:none;marker-start:none;marker-mid:none;marker-end:none;stroke-miterlimit:4;stroke-dasharray:none;stroke-dashoffset:0;stroke-opacity:1;visibility:visible;display:inline;overflow:visible;enable-background:accumulate"
       d="M 324.86047,258.83329 C 328.22609,257.87522 330.55073,258.25086 333.90459,257.90757 C 336.86878,257.60417 339.51817,258.34843 342.54912,258.03819 C 345.43032,257.74328 348.92753,257.71881 351.6961,258.11737 C 354.20894,258.47911 356.86637,257.50031 359.2843,257.84838 C 362.29327,258.28156 362.74804,258.78162 363.71534,261.45656 C 364.57387,263.83076 365.65375,265.51375 365.94268,268.33659 C 366.23891,271.23062 366.71783,274.12821 366.31453,276.92969 C 365.88583,279.90761 366.08796,282.80202 365.68147,285.62565 C 365.22094,288.82464 365.03454,291.83884 364.59738,294.87548 C 364.22422,297.4676 364.64101,300.262 364.91779,302.96613 C 365.14019,305.13891 364.67296,307.44376 364.02759,309.14982 C 363.04039,311.75948 361.95972,312.60301 359.46594,314.18618 C 357.60014,315.37068 354.30625,315.22202 351.9806,315.46006 C 348.91951,315.77339 346.2767,315.53617 343.3875,315.8319 C 340.60757,316.11644 338.02324,315.36554 335.24543,315.64986 C 333.13929,315.86544 330.72236,314.50367 329.01029,314.2572 C 327.20689,313.99758 325.13378,313.57538 323.32904,313.31556 C 320.35212,312.88701 319.09813,313.55493 317.09392,311.92291 C 315.39999,310.54354 315.62839,307.52557 315.36901,304.99145 C 315.05261,301.90032 316.12206,298.16125 316.40167,295.23916 C 316.70809,292.03669 316.53687,289.14185 316.9833,286.04076 C 317.35907,283.4305 317.83657,280.59311 318.72412,278.24685 C 319.60862,275.90866 319.60253,273.00483 319.96249,270.50436 C 320.31456,268.05878 320.04691,265.17397 320.74984,263.31576 C 321.9761,260.07414 319.74853,259.35653 324.86047,258.83329 z"
       id="path6257" />
    <path
       style="opacity:1;fill:#008000;fill-opacity:1;fill-rule:evenodd;stroke:#000000;stroke-width:2;stroke-linecap:round;stroke-linejoin:round;marker:none;marker-start:none;marker-mid:none;marker-end:none;stroke-miterlimit:4;stroke-dasharray:none;stroke-dashoffset:0;stroke-opacity:1;visibility:visible;display:inline;overflow:visible;enable-background:accumulate"
       d="M 330.82496,271.51427 C 330.77365,274.4687 330.31988,277.65289 330.31988,279.59549 C 330.31988,279.76021 336.76278,279.09041 337.39095,279.09041 C 339.74797,279.09041 342.10499,279.09041 344.46201,279.09041 C 347.63342,279.09041 349.51278,280.06394 349.51278,276.56503 C 349.51278,274.15233 349.41979,271.14234 349.0077,269.49396 C 348.746,268.44714 344.44318,268.48381 342.94679,268.48381 C 340.92089,268.48381 338.45792,267.83826 335.87572,268.48381 C 333.04282,269.19204 330.82496,267.94006 330.82496,271.51427 z"
       id="path6259" />
    <path
       style="opacity:1;fill:#ff6600;fill-opacity:1;fill-rule:evenodd;stroke:#000000;stroke-width:2;stroke-linecap:round;stroke-linejoin:round;marker:none;marker-start:none;marker-mid:none;marker-end:none;stroke-miterlimit:4;stroke-dasharray:none;stroke-dashoffset:0;stroke-opacity:1;visibility:visible;display:inline;overflow:visible;enable-background:accumulate"
       d="M 330.31988,292.2224 C 328.93746,292.568 330.29598,298.6928 330.31988,298.78839 C 330.50977,299.54795 338.08168,298.78839 339.41125,298.78839 C 341.93663,298.78839 344.46201,298.78839 346.9874,298.78839 C 350.55864,298.78839 350.30009,297.89703 349.51278,294.74778 C 348.65272,291.30756 350.84656,290.15673 346.9874,289.19194 C 344.59484,288.5938 341.9508,288.68686 339.41125,288.68686 C 337.33168,288.68686 334.57701,288.25392 332.84526,288.68686 C 329.91686,289.41896 329.45236,287.88482 330.31988,292.2224 z"
       id="path6261" />
    <path
       style="opacity:1;fill:#00a900;fill-opacity:1;fill-rule:evenodd;stroke:none;stroke-width:2;stroke-linecap:round;stroke-linejoin:round;marker:none;marker-start:none;marker-mid:none;marker-end:none;stroke-miterlimit:4;stroke-dasharray:none;stroke-dashoffset:0;stroke-opacity:1;visibility:visible;display:inline;overflow:visible;enable-background:accumulate"
       d="M 332.84526,270.50411 C 332.67691,271.34591 332.50855,272.1877 332.34019,273.02949 C 331.77699,275.8455 332.65388,277.19241 332.84526,277.57518 C 332.87502,277.6347 335.87303,273.53726 336.3808,273.02949 C 337.09796,272.31233 342.32493,273.02949 343.45187,273.02949 C 347.49703,273.02949 346.57971,272.11673 344.46202,269.99904 C 343.74486,269.28188 338.51789,269.99904 337.39095,269.99904 C 334.98496,269.99904 336.70769,268.95914 332.84526,270.50411 z"
       id="path6263" />
    <path
       style="opacity:1;fill:#ff9046;fill-opacity:1;fill-rule:evenodd;stroke:none;stroke-width:2;stroke-linecap:round;stroke-linejoin:round;marker:none;marker-start:none;marker-mid:none;marker-end:none;stroke-miterlimit:4;stroke-dasharray:none;stroke-dashoffset:0;stroke-opacity:1;visibility:visible;display:inline;overflow:visible;enable-background:accumulate"
       d="M 331.33004,296.263 C 331.51176,293.42039 331.21697,290.20209 334.3605,290.20209 C 337.26713,290.20209 339.19603,290.65336 341.43156,291.21224 C 343.31965,291.68426 348.17811,291.21224 343.45187,291.21224 C 340.97863,291.21224 338.38182,291.72214 336.3808,292.22239 C 334.38287,292.72188 332.87685,294.71619 331.33004,296.263 z"
       id="path6265" />
    <path
       style="opacity:1;fill:#d7d0cb;fill-opacity:1;fill-rule:evenodd;stroke:none;stroke-width:2;stroke-linecap:round;stroke-linejoin:round;marker:none;marker-start:none;marker-mid:none;marker-end:none;stroke-miterlimit:4;stroke-dasharray:none;stroke-dashoffset:0;stroke-opacity:1;visibility:visible;display:inline;overflow:visible;enable-background:accumulate"
       d="M 318.70313,309.90006 C 317.64308,308.51205 318.70313,304.62914 318.70313,301.81884 C 318.70313,299.87105 320.21836,298.6379 320.21836,295.75793 C 320.21836,293.09883 320.72343,291.41846 320.72343,289.19193 C 320.72343,286.71154 321.22851,284.70722 321.22851,282.12087 C 321.22851,280.31396 322.23866,277.89917 322.23866,275.55487 C 322.23866,272.90301 322.74374,271.73094 322.74374,268.98888 C 322.74374,266.76421 323.24758,264.95323 323.75389,262.92797 C 324.4441,260.16715 327.9473,260.40259 330.31988,260.40259 C 332.45547,260.40259 334.96902,259.89751 337.39095,259.89751 C 339.91633,259.89751 342.44171,259.89751 344.96709,259.89751 C 347.00292,259.89751 349.38095,260.40259 352.03816,260.40259 C 353.89667,260.40259 356.97962,260.88034 359.10923,261.41274 C 362.92574,262.36687 362.54921,261.41274 358.60415,261.41274 C 356.24713,261.41274 353.89011,261.41274 351.53309,261.41274 C 349.53029,261.41274 345.96708,262.04663 344.46202,262.42289 C 342.69528,262.86458 340.27054,262.33434 337.89603,262.92797 C 335.6974,263.47762 333.76585,263.32917 331.33004,263.93812 C 328.711,264.59288 327.83599,265.44298 325.7742,265.95843 C 324.78952,266.2046 324.12353,270.0357 323.75389,271.51426 C 323.17459,273.83149 323.24881,275.74707 323.24881,278.08026 C 323.24881,280.43669 322.23866,282.07182 322.23866,284.64625 C 322.23866,286.57517 321.63413,289.58974 321.22851,291.21224 C 320.67789,293.41471 321.22851,296.5047 321.22851,298.78838 C 321.22851,300.74878 321.73359,303.55618 321.73359,305.85945 C 321.73359,306.10664 318.9738,309.56172 318.70313,309.90006 z"
       id="path6269" />
    <path
       style="opacity:1;fill:#d7d0cb;fill-opacity:1;fill-rule:evenodd;stroke:none;stroke-width:2;stroke-linecap:round;stroke-linejoin:round;marker:none;marker-start:none;marker-mid:none;marker-end:none;stroke-miterlimit:4;stroke-dasharray:none;stroke-dashoffset:0;stroke-opacity:1;visibility:visible;display:inline;overflow:visible;enable-background:accumulate"
       d="M 296.98485,330.60818 C 297.01082,328.50185 298.07788,325.39166 299.51023,322.52696 C 300.77268,320.00206 301.53053,316.46876 301.53053,313.43559 C 301.53053,310.91951 303.45564,307.2504 304.05592,304.84929 C 304.65594,302.44921 304.56099,299.89762 304.56099,297.27315 C 304.56099,294.78265 305.06607,291.958 305.06607,289.19193 C 305.06607,286.80478 305.57115,284.255 305.57115,281.61579 C 305.57115,279.19995 306.0097,276.32602 306.5813,274.03964 C 307.25393,271.34913 306.88965,268.26055 307.59145,265.45335 C 308.30016,262.61849 307.59145,260.81735 307.59145,258.38228 C 307.59145,256.59896 308.63775,253.18692 309.10668,251.31121 C 309.74063,248.77542 312.31178,248.70322 314.66252,249.2909 C 318.29315,250.19856 322.4514,249.79598 326.27927,249.79598 C 330.45772,249.79598 335.06645,250.35128 338.90618,251.31121 C 342.75783,252.27412 348.13397,251.81629 352.03816,251.81629 C 355.74205,251.81629 359.44595,251.81629 363.14984,251.81629 C 366.71695,251.81629 370.5293,251.31121 374.26152,251.31121 C 378.71399,251.31121 382.87602,251.81629 387.3935,251.81629 C 390.92904,251.81629 394.46457,251.81629 398.0001,251.81629 C 400.69384,251.81629 403.38758,251.81629 406.08132,251.81629 C 408.55269,251.81629 410.96308,251.85854 413.15239,251.31121 C 415.49969,250.72439 418.29658,250.80613 420.72854,250.80613 C 423.42228,250.80613 426.11602,250.80613 428.80976,250.80613 C 431.33514,250.80613 433.86052,250.80613 436.3859,250.80613 C 438.52924,250.80613 432.7244,251.31121 431.33514,251.31121 C 428.80976,251.31121 426.28437,251.31121 423.75899,251.31121 C 420.91475,251.31121 418.25153,251.67792 415.67777,252.32136 C 413.00497,252.98956 410.94479,252.74699 408.6067,253.33152 C 406.49261,253.86004 405.00716,254.34167 402.04071,254.34167 C 399.51283,254.34167 396.77281,254.90433 393.95949,254.34167 C 391.62607,253.87498 388.46189,254.32711 386.38335,254.84674 C 383.70008,255.51756 381.15085,256.70538 378.8072,257.8772 C 376.35575,259.10293 374.44975,259.56576 371.73614,258.88735 C 369.3373,258.28764 367.33731,257.8772 364.66507,257.8772 C 362.25873,257.8772 359.38094,256.93498 357.08892,256.36197 C 354.55848,255.72936 352.37077,255.35182 349.51278,255.35182 C 347.15576,255.35182 344.79874,255.35182 342.44171,255.35182 C 340.17292,255.35182 337.01819,254.37475 334.86557,253.83659 C 332.22289,253.17592 328.54553,253.83659 325.7742,253.83659 C 323.06115,253.83659 320.71635,254.34167 318.19805,254.34167 C 316.17352,254.34167 314.14194,255.87239 312.64221,257.37213 C 310.97793,259.03641 309.61176,261.13514 309.61176,263.93812 C 309.61176,266.35446 308.6016,268.78353 308.6016,271.51426 C 308.6016,273.76014 309.1528,276.24444 309.61176,278.08025 C 310.27164,280.71981 309.61176,282.78695 309.61176,285.6564 C 309.61176,288.2056 309.10668,290.14271 309.10668,292.72746 C 309.10668,295.42942 309.10668,297.92943 309.10668,300.30361 C 309.10668,302.17137 308.6328,305.22958 308.09653,307.37468 C 307.43401,310.02475 306.70373,312.44078 306.07622,314.95082 C 305.47668,317.34899 304.60818,318.29761 304.05592,320.50666 C 303.61165,322.28374 301.90093,323.80648 301.02546,325.55742 C 299.92261,327.76311 297.35139,331.21909 298.50008,333.13357"
       id="path6271" />
    <path
       style="opacity:1;fill:#b7aaa0;fill-opacity:1;fill-rule:evenodd;stroke:none;stroke-width:2;stroke-linecap:round;stroke-linejoin:round;marker:none;marker-start:none;marker-mid:none;marker-end:none;stroke-miterlimit:4;stroke-dasharray:none;stroke-dashoffset:0;stroke-opacity:1;visibility:visible;display:inline;overflow:visible;enable-background:accumulate"
       d="M 327.7945,332.12342 C 329.95027,331.11464 334.45157,332.27246 337.89603,333.13357 C 344.12091,334.68979 352.1474,333.63865 358.60415,333.63865 C 364.15999,333.63865 369.71583,333.63865 375.27167,333.63865 C 380.57179,333.63865 386.82693,333.92193 391.43411,331.61835 C 394.04293,330.31394 390.04645,324.29734 389.41381,323.03205 C 387.68141,319.56726 385.578,316.47993 384.86812,312.93052 C 384.3547,310.36343 384.37559,307.82956 384.86812,305.85946 C 385.34252,303.96184 392.49881,303.83915 393.95949,303.83915 C 397.01079,303.83915 400.77408,306.17217 403.05087,307.87976 C 405.33469,309.59263 408.30612,309.39499 411.13209,309.39499 C 413.50454,309.39499 416.12238,306.2768 417.193,304.8493 C 418.11876,303.61496 416.29264,296.72422 416.68793,294.74778 C 417.33878,291.4935 418.8428,288.41773 420.22346,285.6564 C 421.91098,282.28136 424.661,283.07695 427.7996,284.64625 C 430.88573,286.18932 432.86235,288.18778 434.87067,289.19194 C 436.95917,290.23619 439.79712,284.77057 440.93159,283.6361 C 443.46443,281.10326 445.10345,280.86814 446.48743,283.6361 C 447.88072,286.4227 447.29839,289.91042 448.00265,292.72747 C 448.67699,295.4248 449.8785,297.70546 450.52804,300.30362 C 450.96397,302.04734 451.9793,304.08835 452.54834,306.36453 C 453.29682,309.35844 455.07372,302.67774 455.07372,307.87976 C 455.07372,310.62844 452.79371,311.89171 453.55849,314.95083 C 454.26984,317.7962 453.86174,319.29367 453.55849,320.50667 C 452.78806,323.58841 448.01854,317.36186 445.47727,315.4559 C 443.32476,313.84152 440.71851,312.93052 437.90113,312.93052 C 435.28323,312.93052 432.32526,313.81941 429.81991,314.44575 C 425.89483,315.42702 428.40305,318.58473 430.32498,320.50667 C 432.97794,323.15962 434.51789,324.85188 435.88082,327.57773 C 437.10268,330.02145 440.02392,329.59804 442.44682,329.59804 C 445.16173,329.59804 446.17402,331.03492 448.50773,331.61835 C 450.97027,332.23398 453.46792,332.12342 456.08387,332.12342 C 459.32486,332.12342 460.41428,332.9183 462.14479,334.6488 C 464.24238,336.7464 459.24309,336.16403 457.5991,336.16403 C 454.88605,336.16403 452.54126,335.65896 450.02296,335.65896 C 447.38475,335.65896 444.85395,334.6488 441.94174,334.6488 C 439.4585,334.6488 437.1139,334.70453 434.87067,334.14373 C 433.83797,333.88555 429.35383,334.89159 428.30468,335.15388 C 425.38127,335.88473 421.08516,335.65896 418.20315,335.65896 C 415.25486,335.65896 412.96975,336.16403 410.12193,336.16403 C 407.84848,336.16403 404.7387,336.62596 402.54579,337.17418 C 400.48349,337.68976 397.61066,337.17418 395.47472,337.17418 C 392.7127,337.17418 391.29141,336.45224 388.40365,337.17418 C 385.95115,337.78731 383.35532,336.66911 380.82751,336.66911 C 378.83698,336.66911 375.22563,335.64744 373.25137,335.15388 C 370.8954,334.56489 368.91665,334.6488 366.1803,334.6488 C 363.65492,334.6488 361.12954,334.6488 358.60415,334.6488 C 356.47339,334.6488 354.65838,333.63865 352.03816,333.63865 C 349.84526,333.63865 346.48911,333.13527 344.46202,332.6285 C 341.94856,332.00013 339.27502,332.21563 336.88587,331.61835 C 334.96135,331.13721 332.70957,330.60819 330.31988,330.60819 C 329.33819,330.60819 328.63629,331.61835 327.7945,332.12342 z"
       id="path6273" />
    <path
       style="opacity:1;fill:#d7d0cb;fill-opacity:1;fill-rule:evenodd;stroke:none;stroke-width:2;stroke-linecap:round;stroke-linejoin:round;marker:none;marker-start:none;marker-mid:none;marker-end:none;stroke-miterlimit:4;stroke-dasharray:none;stroke-dashoffset:0;stroke-opacity:1;visibility:visible;display:inline;overflow:visible;enable-background:accumulate"
       d="M 231.32494,189.18683 C 231.32494,189.86027 231.32494,190.5337 231.32494,191.20714 C 231.32494,192.94366 236.2772,199.46091 237.38585,201.30866 C 239.04102,204.06728 241.04473,206.60612 242.43661,209.38988 C 243.65041,211.81747 245.1217,212.73975 245.97215,214.44064 C 247.11133,216.71902 251.10087,218.01516 253.04322,218.98633 C 254.99709,219.96327 257.04644,222.48448 258.09398,223.53202 C 259.423,224.86104 259.78767,227.42447 260.61936,229.08786 C 261.82923,231.50759 263.45965,233.75829 264.65997,236.15892 C 265.95001,238.739 267.49747,241.44802 268.1955,244.24014 C 268.78449,246.59607 271.22596,251.78527 271.22596,246.76553 C 271.22596,244.17614 271.22596,241.98003 271.22596,239.69446 C 271.22596,237.60142 269.7345,234.23368 269.20566,232.11831 C 268.63884,229.85105 268.66256,226.91545 268.1955,225.04725 C 267.43045,221.98702 268.844,220.1399 266.68028,217.97618 C 264.68627,215.98217 261.89581,214.70694 260.11428,212.92542 C 258.30692,211.11805 256.72562,208.46213 256.07367,205.85435 C 255.95118,205.36435 256.07367,204.8442 256.07367,204.33912 C 256.07367,201.47359 255.43867,199.30301 256.07367,196.76298 C 256.77562,193.95518 259.15806,192.16336 261.12444,190.19698 C 263.00262,188.3188 265.70913,186.13687 267.69043,185.14622 C 270.55212,183.71538 274.26478,184.23541 277.28688,183.63099 C 280.05567,183.07723 282.40032,182.33696 284.86302,181.10561 C 287.67672,179.69876 288.90363,176.69706 288.90363,173.52947 C 288.90363,169.96614 289.464,167.35797 290.92394,164.43809 C 292.50368,161.27861 296.16137,159.20066 298.50008,156.86195 C 300.22682,155.13521 305.45947,154.76297 307.59145,154.33657 C 309.85923,153.88301 311.19074,148.02065 311.63206,146.25535 C 312.49871,142.78878 313.004,140.918 311.63206,138.17413 C 310.91778,136.74556 310.83112,135.05701 310.11684,133.62844 C 308.45869,130.31216 304.15229,138.07776 301.53054,140.69951 C 298.73282,143.49723 295.27015,145.44467 292.43917,148.27565 C 290.15988,150.55494 286.40201,151.91963 283.85287,153.83149 C 281.49258,155.60171 278.35156,156.83469 276.27673,157.8721 C 273.9295,159.04571 271.87876,161.25991 270.21581,162.92286 C 267.9396,165.19907 265.90028,166.73332 264.15489,168.4787 C 262.37935,170.25425 257.84643,172.39055 255.5686,173.52947 C 252.66036,174.98358 250.23614,177.20585 247.48738,178.58023 C 244.6111,180.01837 242.30397,181.92955 239.91123,183.12592 C 236.98266,184.5902 234.00703,187.04115 231.32494,189.18683 z"
       id="path6279" />
    <path
       style="opacity:1;fill:#c8beb7;fill-opacity:1;fill-rule:evenodd;stroke:#000000;stroke-width:2;stroke-linecap:round;stroke-linejoin:round;marker:none;marker-start:none;marker-mid:none;marker-end:none;stroke-miterlimit:4;stroke-dasharray:none;stroke-dashoffset:0;stroke-opacity:1;visibility:visible;display:inline;overflow:visible;enable-background:accumulate"
       d="M 306.07622,395.76303 C 306.74966,394.92123 307.42309,394.07944 308.09653,393.23765 C 310.00321,390.85429 310.56413,387.32118 311.63206,384.65135 C 312.61019,382.20602 313.01557,379.1173 313.65237,376.57013 C 314.42143,373.49386 315.51005,374.21598 318.19805,375.55998 C 321.04804,376.98497 327.49963,376.06505 330.82496,376.06505 C 334.55311,376.06505 338.58338,376.57013 342.44171,376.57013 C 345.06267,376.57013 347.68242,376.06505 350.52293,376.06505 C 352.69149,376.06505 354.69922,375.02098 356.58385,374.54982 C 359.31147,373.86792 360.18438,374.63649 361.63461,376.57013 C 363.1492,378.58957 364.20327,380.19222 365.17015,382.12597 C 366.29098,384.36764 368.99366,387.05563 370.22091,388.69196 C 371.84685,390.85989 372.49423,392.73448 372.74629,393.74272 C 372.74992,393.75725 363.56253,394.2478 362.64476,394.2478 C 359.46495,394.2478 356.65402,395.25795 353.55339,395.25795 C 350.85965,395.25795 348.16591,395.25795 345.47217,395.25795 C 343.09318,395.25795 340.23392,395.8099 338.4011,396.2681 C 335.88497,396.89714 334.06518,396.72074 331.83511,397.27826 C 329.51623,397.85798 326.99848,397.7298 324.76404,398.28841 C 322.5481,398.8424 319.04503,398.75269 317.1879,398.28841 C 314.8138,397.69488 312.49094,396.86163 310.11683,396.2681 C 308.95548,395.97777 307.15522,395.97883 306.07622,395.76303 z"
       id="path6287" />
    <path
       style="opacity:1;fill:#c8beb7;fill-opacity:1;fill-rule:evenodd;stroke:#000000;stroke-width:2;stroke-linecap:round;stroke-linejoin:round;marker:none;marker-start:none;marker-mid:none;marker-end:none;stroke-miterlimit:4;stroke-dasharray:none;stroke-dashoffset:0;stroke-opacity:1;visibility:visible;display:inline;overflow:visible;enable-background:accumulate"
       d="M 410.62701,376.06505 C 409.74968,375.84572 404.53802,384.52042 404.06102,385.15643 C 403.83514,385.4576 403.7243,385.82986 403.55594,386.16658 C 402.60578,388.0669 400.06785,389.65467 399.01026,390.71227 C 397.06731,392.65521 398.42774,394.46162 400.02041,395.25795 C 401.75482,396.12516 405.10156,396.2681 407.09148,396.2681 C 409.37082,396.2681 412.44923,396.72366 414.66762,397.27826 C 416.43862,397.72101 420.05767,396.77318 422.24376,396.77318 C 424.76915,396.77318 427.29453,396.77318 429.81991,396.77318 C 432.59849,396.77318 435.40261,396.89273 437.90113,396.2681 C 440.42299,395.63764 443.19658,395.76303 445.98235,395.76303 C 448.24867,395.76303 450.9935,395.25795 453.55849,395.25795 C 456.27154,395.25795 458.61634,394.75288 461.13464,394.75288 C 464.96023,394.75288 464.86955,394.04842 465.68032,393.23765 C 466.67547,392.2425 462.6772,386.22125 462.14479,385.15643 C 460.7177,382.30225 459.86474,380.5819 459.11433,377.58028 C 458.62208,375.61127 457.87575,374.09296 457.09403,372.52952 C 455.73668,369.81482 451.45224,374.82385 448.50773,375.55998 C 444.79335,376.48857 440.95886,375.55998 437.39605,375.55998 C 434.00661,375.55998 430.37249,375.29556 427.29453,376.06505 C 425.05623,376.62463 421.68918,376.05268 419.71838,375.55998 C 417.96534,375.12172 415.10036,376.57013 413.15239,376.57013 C 412.29393,376.57013 411.4688,376.23341 410.62701,376.06505 z"
       id="path6289" />
    <path
       style="opacity:1;fill:#d7d0cb;fill-opacity:1;fill-rule:evenodd;stroke:none;stroke-width:2;stroke-linecap:round;stroke-linejoin:round;marker:none;marker-start:none;marker-mid:none;marker-end:none;stroke-miterlimit:4;stroke-dasharray:none;stroke-dashoffset:0;stroke-opacity:1;visibility:visible;display:inline;overflow:visible;enable-background:accumulate"
       d="M 316.07143,378.43361 C 315.95238,378.9098 315.83333,379.38599 315.71429,379.86218 C 315.32196,381.43148 313.24515,383.72903 312.5,385.21932 C 311.89955,386.42023 311.2762,388.38122 310.71429,389.50504 C 310.14798,390.63765 310.26227,393.09881 310,394.1479 C 309.69855,395.35368 312.45975,394.66349 313.57143,395.21932 C 314.73522,395.80122 316.6947,395.643 317.85714,395.93361 C 319.30144,396.29469 321.45199,396.29075 322.85714,396.29075 C 323.95471,396.29075 325.00663,395.84267 326.07143,395.57647 C 327.83436,395.13574 322.71351,394.00427 321.42857,392.71932 C 320.13479,391.42555 319.89656,390.47303 318.92857,389.50504 C 317.65874,388.23521 322.03701,386.52225 322.5,386.29075 C 323.91481,385.58335 325.96698,385.45012 327.14286,384.86218 C 328.36421,384.2515 328.0826,382.66296 330.71429,382.00504 C 332.98136,381.43827 335.34277,381.83006 337.5,381.29075 C 339.38001,380.82075 340.80156,380.57647 342.85714,380.57647 C 345.89427,380.57647 341.53479,379.86218 340.35714,379.86218 C 338.10318,379.86218 335.74833,379.86218 333.57143,379.86218 C 331.54096,379.86218 329.7542,379.50504 327.85714,379.50504 C 326.57158,379.50504 324.38707,378.81609 322.85714,378.43361 C 320.91942,377.94918 319.62096,377.80314 317.85714,377.36218 C 317.18371,377.19382 316.66667,378.07647 316.07143,378.43361 z"
       id="path6291" />
    <path
       style="opacity:1;fill:#d7d0cb;fill-opacity:1;fill-rule:evenodd;stroke:none;stroke-width:2;stroke-linecap:round;stroke-linejoin:round;marker:none;marker-start:none;marker-mid:none;marker-end:none;stroke-miterlimit:4;stroke-dasharray:none;stroke-dashoffset:0;stroke-opacity:1;visibility:visible;display:inline;overflow:visible;enable-background:accumulate"
       d="M 401.78571,393.07647 C 403.98135,391.08827 405.94742,389.03878 407.14286,386.6479 C 407.89947,385.13467 408.81276,383.66524 409.28571,382.71932 C 410.18812,380.91452 409.94325,379.50504 412.14286,379.50504 C 414.27104,379.50504 415.76429,379.70861 417.5,380.57647 C 419.19267,381.4228 422.05507,381.40199 423.92857,380.93361 C 425.87728,380.44643 428.33183,380.57647 430.35714,380.57647 C 432.22072,380.57647 434.04503,380.63664 435.71429,380.21932 C 438.18905,379.60063 431.60141,381.39904 430.35714,381.6479 C 428.04107,382.11111 425.55945,382.36218 423.21429,382.36218 C 421.57912,382.36218 419.81821,383.38977 418.21429,383.79075 C 416.28468,384.27315 415.05358,384.83539 413.57143,385.57647 C 411.68135,386.52151 413.62784,388.49002 414.28571,389.1479 C 415.79059,390.65277 412.99709,392.47078 412.5,392.71932 C 410.93542,393.50161 408.90779,393.79075 407.14286,393.79075 C 404.78289,393.79075 403.96746,394.38551 401.78571,393.07647 z"
       id="path6293" />
    <path
       style="opacity:1;fill:#b7aaa0;fill-opacity:1;fill-rule:evenodd;stroke:none;stroke-width:2;stroke-linecap:round;stroke-linejoin:round;marker:none;marker-start:none;marker-mid:none;marker-end:none;stroke-miterlimit:4;stroke-dasharray:none;stroke-dashoffset:0;stroke-opacity:1;visibility:visible;display:inline;overflow:visible;enable-background:accumulate"
       d="M 339.64286,392.00503 C 340.2381,391.88599 340.83334,391.76694 341.42857,391.64789 C 344.28617,391.07637 348.14353,392.43377 350.71429,393.07646 C 352.93062,393.63055 355.90805,393.43361 358.21429,393.43361 C 360,393.43361 361.78572,393.43361 363.57143,393.43361 C 365.49119,393.43361 366.47849,392.69436 367.85715,392.00503 C 369.83196,391.01763 367.01031,389.31633 365.35715,388.07646 C 363.43092,386.63179 362.13103,384.85035 360.71429,383.43361 C 359.85713,382.57645 359.1421,379.64486 358.92857,378.79075 C 358.49943,377.07419 358.6235,374.65391 357.85715,377.71932 C 357.29952,379.94983 356.55673,381.87688 355.35715,383.07646 C 354.13474,384.29887 353.61613,384.50503 351.42857,384.50503 C 349.48159,384.50503 347.92407,384.14789 346.07143,384.14789 C 343.61485,384.14789 342.96865,385.35345 342.5,386.29075 C 341.68733,387.91609 345.79788,389.17068 345.35715,390.93361 C 344.92335,392.66879 340.38572,392.30218 339.64286,392.00503 z"
       id="path6295" />
    <path
       style="opacity:1;fill:#b7aaa0;fill-opacity:1;fill-rule:evenodd;stroke:none;stroke-width:2;stroke-linecap:round;stroke-linejoin:round;marker:none;marker-start:none;marker-mid:none;marker-end:none;stroke-miterlimit:4;stroke-dasharray:none;stroke-dashoffset:0;stroke-opacity:1;visibility:visible;display:inline;overflow:visible;enable-background:accumulate"
       d="M 429.64286,393.43361 C 430.2381,393.31456 430.83333,393.19551 431.42857,393.07647 C 434.49977,392.46223 438.31114,392.71932 441.42857,392.71932 C 443.71678,392.71932 446.14092,392.88052 448.21429,392.36218 C 449.97939,391.92091 451.83181,391.92728 453.57143,392.36218 C 455.16669,392.761 457.06126,392.34178 458.57143,392.71932 C 459.95735,393.0658 461.42857,392.71932 462.85714,392.71932 C 464.88445,392.71932 459.42027,390.04324 458.92857,388.07647 C 458.43121,386.08703 457.85714,384.96109 457.85714,382.71932 C 457.85714,380.94524 457.5,379.27417 457.5,377.36218 C 457.5,374.43798 454.606,377.75618 453.57143,378.79075 C 452.23581,380.12638 449.92903,380.89756 448.92857,381.6479 C 447.82012,382.47924 445.78573,381.6479 444.28571,381.6479 C 442.28627,381.6479 444.12368,383.82382 444.64286,384.86218 C 445.44998,386.47643 441.46095,387.00504 440.35714,387.00504 C 437.97723,387.00504 435.54649,386.73179 433.57143,387.71932 C 432.44583,388.28212 429.50591,387.71932 428.21429,387.71932 C 425.62791,387.71932 426.17096,388.63267 427.14286,390.57647 C 427.67185,391.63444 428.70998,391.87881 429.64286,393.43361 z"
       id="path6297" />
    <path
       style="opacity:1;fill:#ebe7e5;fill-opacity:1;fill-rule:evenodd;stroke:#000000;stroke-width:2;stroke-linecap:round;stroke-linejoin:round;marker:none;marker-start:none;marker-mid:none;marker-end:none;stroke-miterlimit:4;stroke-dasharray:none;stroke-dashoffset:0;stroke-opacity:1;visibility:visible;display:inline;overflow:visible;enable-background:accumulate"
       d="M 451.42857,248.43361 C 454.1376,248.25011 454.8737,248.93775 457.14286,249.50504 C 458.49243,249.84243 460.02566,250.22574 461.42857,250.57647 C 462.85723,250.93363 463.6065,252.20114 464.64286,252.71932 C 465.62735,253.21157 466.55648,254.51169 467.5,255.21932 C 468.74358,256.15201 467.85714,258.19079 467.85714,259.86218 C 467.85714,262.04282 467.7221,264.32201 468.21429,266.29075 C 468.7878,268.58479 468.71034,271.13212 469.28572,273.43361 C 469.79878,275.48589 470,277.33003 470,279.50504 C 470,281.88599 470,284.26694 470,286.6479 C 470,289.02885 470,291.4098 470,293.79075 C 470,295.73774 470.35714,297.29526 470.35714,299.1479 C 470.35714,301.17127 471.22964,302.44363 470.71429,304.50504 C 470.32494,306.06242 470.71429,308.24737 470.71429,309.86218 C 470.71429,311.2573 470.24594,313.52127 470,314.50504 C 469.60481,316.08582 469.64286,317.83993 469.64286,319.50504 C 469.64286,321.03583 470.29274,322.10459 470.71429,323.79075 C 470.81117,324.17831 467.65872,324.86218 466.78572,324.86218 C 465.05004,324.86218 465.0822,324.53337 465.71429,322.00504 C 466.16109,320.21781 465.36615,318.46963 465,317.00504 C 464.56461,315.26347 465.0618,313.32368 464.64286,311.6479 C 464.19299,309.84842 464.28572,307.89724 464.28572,305.93361 C 464.28572,304.02885 464.28572,302.12409 464.28572,300.21932 C 464.28572,298.26122 464.54765,295.24303 465,293.43361 C 465.62032,290.95232 464.40812,288.65829 465,286.29075 C 465.44285,284.51936 465,282.06732 465,280.21932 C 465,278.27797 464.64286,276.80228 464.64286,274.86218 C 464.64286,272.90708 464.28572,271.41175 464.28572,269.50504 C 464.28572,267.33444 463.92857,265.61324 463.92857,263.43361 C 463.92857,262.05267 463.10323,259.77511 462.85714,258.79075 C 462.30211,256.57063 461.52843,257.11929 459.64286,256.6479 C 457.75554,256.17607 456.3134,255.57647 454.28572,255.57647 C 451.81942,255.57647 451.07143,255.54122 451.07143,253.07647 C 451.07143,250.14989 450.96696,248.16983 453.92857,249.86218"
       id="path6299" />
    <path
       style="opacity:1;fill:#b7aaa0;fill-opacity:1;fill-rule:evenodd;stroke:#000000;stroke-width:2;stroke-linecap:round;stroke-linejoin:round;marker:none;marker-start:none;marker-mid:none;marker-end:none;stroke-miterlimit:4;stroke-dasharray:none;stroke-dashoffset:0;stroke-opacity:1;visibility:visible;display:inline;overflow:visible;enable-background:accumulate"
       d="M 465.35714,255.21932 C 465.35714,253.26376 461.68895,255.55975 460.71429,256.29075 C 459.46395,257.22851 460.05279,260.07334 460.35714,261.29075 C 460.79794,263.05393 463.38669,263.43361 465,263.43361 C 467.04427,263.43361 468.78736,261.83618 470,260.21932 C 471.26649,258.53067 470.37264,257.06704 470,255.57647 C 469.65953,254.2146 466.01298,255.08816 465.35714,255.21932 z"
       id="path6301" />
    <path
       style="opacity:1;fill:#c8beb7;fill-opacity:1;fill-rule:evenodd;stroke:#000000;stroke-width:2;stroke-linecap:round;stroke-linejoin:round;marker:none;marker-start:none;marker-mid:none;marker-end:none;stroke-miterlimit:4;stroke-dasharray:none;stroke-dashoffset:0;stroke-opacity:1;visibility:visible;display:inline;overflow:visible;enable-background:accumulate"
       d="M 466.07143,327.36218 C 465.99345,327.32319 467.10041,331.79279 467.85714,335.57647 C 468.26614,337.62144 468.89242,340.07471 469.28572,341.6479 C 469.74361,343.47947 469.9783,344.77537 470.35714,346.29075 C 470.92887,348.57767 469.68839,349.10237 467.85714,350.93361 C 466.32618,352.46458 465.20461,356.23867 464.28572,358.07647 C 463.50202,359.64385 462.69675,361.25441 462.14286,362.36218 C 461.20301,364.24188 461.51897,364.86664 461.78572,365.93361 C 461.83766,366.14138 466.2414,365.57647 466.78572,365.57647 C 468.44045,365.57647 470.28802,365.50446 471.42857,365.21932 C 473.05869,364.8118 474.83248,365.1814 476.42857,364.86218 C 479.05188,364.33752 478.56159,365.25869 479.28572,362.36218 C 479.77818,360.3923 480.30474,358.56463 481.07143,356.6479 C 481.91251,354.54518 482.64363,352.43206 483.57143,350.57647 C 484.46554,348.78825 484.64286,348.11344 484.64286,346.6479 C 484.64286,344.92412 483.23499,343.11788 482.5,341.6479 C 481.56828,339.78445 480.89495,338.08066 480,336.29075 C 479.09459,334.47994 478.71998,332.65929 477.85714,330.93361 C 476.98566,329.19064 476.68667,327.52124 476.07143,326.29075 C 475.41624,324.98038 474.53821,324.1479 472.85714,324.1479 C 471.51094,324.1479 469.41048,325.27742 468.21429,325.57647 C 467.21898,325.82529 464.14879,327.36218 467.85714,327.36218"
       id="path6305" />
    <path
       style="opacity:1;fill:#c8beb7;fill-opacity:1;fill-rule:evenodd;stroke:#000000;stroke-width:2;stroke-linecap:round;stroke-linejoin:round;marker:none;marker-start:none;marker-mid:none;marker-end:none;stroke-miterlimit:4;stroke-dasharray:none;stroke-dashoffset:0;stroke-opacity:1;visibility:visible;display:inline;overflow:visible;enable-background:accumulate"
       d="M 464.64286,325.57647 C 463.63985,325.82722 463.57143,333.05865 463.57143,334.1479 C 463.57143,336.05266 463.57143,337.95742 463.57143,339.86218 C 463.57143,341.6479 463.57143,343.43361 463.57143,345.21932 C 463.57143,347.04222 463.68864,348.66803 464.28572,349.86218 C 464.44998,350.1907 468.74602,349.86218 469.28572,349.86218 C 471.66145,349.86218 471.92384,350.73827 472.5,348.43361 C 472.86998,346.95369 472.74783,344.58516 473.21429,342.71932 C 473.71578,340.71336 473.57143,338.45514 473.57143,336.29075 C 473.57143,334.50504 473.57143,332.71932 473.57143,330.93361 C 473.57143,329.11944 472.85603,327.71486 472.5,326.29075 C 472.10936,324.72821 469.79636,325.21932 468.21429,325.21932 C 466.50693,325.21932 463.2146,324.71951 466.42857,326.6479"
       id="path6307" />
    <path
       style="opacity:1;fill:#b7aaa0;fill-opacity:1;fill-rule:evenodd;stroke:#000000;stroke-width:2;stroke-linecap:round;stroke-linejoin:round;marker:none;marker-start:none;marker-mid:none;marker-end:none;stroke-miterlimit:4;stroke-dasharray:none;stroke-dashoffset:0;stroke-opacity:1;visibility:visible;display:inline;overflow:visible;enable-background:accumulate"
       d="M 467.14286,319.86218 C 466.68852,318.04485 463.49091,322.68424 463.21429,323.79075 C 462.68316,325.91526 464.93881,327.33158 466.42857,328.07646 C 468.0934,328.90888 471.47836,328.1533 473.21429,327.71932 C 475.0812,327.25259 475,325.72015 475,323.43361 C 475,320.96605 473.68668,320.45552 471.78572,319.50503 C 470.8462,319.03527 467.91507,319.70773 467.14286,319.86218 z"
       id="path6303" />
    <path
       style="opacity:1;fill:#b7aaa0;fill-opacity:1;fill-rule:evenodd;stroke:none;stroke-width:2;stroke-linecap:round;stroke-linejoin:round;marker:none;marker-start:none;marker-mid:none;marker-end:none;stroke-miterlimit:4;stroke-dasharray:none;stroke-dashoffset:0;stroke-opacity:1;visibility:visible;display:inline;overflow:visible;enable-background:accumulate"
       d="M 466.42857,364.50504 C 467.02381,364.26694 467.61905,364.02885 468.21429,363.79075 C 469.95815,363.09321 472.07901,363.44957 473.57143,363.07647 C 475.77389,362.52585 475.9139,362.21507 477.14286,360.57647 C 478.69246,358.51033 479.12892,357.07472 479.64286,354.50504 C 479.99962,352.72124 480.40377,351.10423 480.71429,349.86218 C 481.11221,348.27049 481.07143,347.03935 481.07143,345.21932 C 481.07143,343.72991 478.45798,341.89159 477.85714,341.29075 C 476.84,340.27361 476.9345,338.51295 476.07143,337.36218 C 474.85714,335.74313 476.07143,341.4098 476.07143,343.43361 C 476.07143,345.8546 475.71429,347.83597 475.71429,350.21932 C 475.71429,352.23266 474.79176,353.99899 473.57143,355.21932 C 471.9543,356.83646 471.9805,358.15765 470,359.1479 C 468.78166,359.75707 468.00334,361.85884 467.14286,362.71932 C 466.75039,363.11179 466.67567,363.51664 466.42857,364.50504 z"
       id="path6309" />
    <path
       style="opacity:1;fill:#b7aaa0;fill-opacity:1;fill-rule:evenodd;stroke:#000000;stroke-width:2;stroke-linecap:round;stroke-linejoin:round;marker:none;marker-start:none;marker-mid:none;marker-end:none;stroke-miterlimit:4;stroke-dasharray:none;stroke-dashoffset:0;stroke-opacity:1;visibility:visible;display:inline;overflow:visible;enable-background:accumulate"
       d="M 283.92857,256.6479 C 281.77462,255.72843 280.58005,257.49642 278.92857,259.1479 C 277.34247,260.734 280.06946,264.93164 281.07143,265.93361 C 283.03986,267.90204 285.71581,266.91461 287.5,265.57647 C 289.53678,264.04888 289.28571,262.01558 289.28571,259.50504 C 289.28571,257.00393 285.56225,256.6479 283.92857,256.6479 z"
       id="path6315" />
    <path
       style="opacity:1;fill:#c8beb7;fill-opacity:1;fill-rule:evenodd;stroke:#000000;stroke-width:2;stroke-linecap:round;stroke-linejoin:round;marker:none;marker-start:none;marker-mid:none;marker-end:none;stroke-miterlimit:4;stroke-dasharray:none;stroke-dashoffset:0;stroke-opacity:1;visibility:visible;display:inline;overflow:visible;enable-background:accumulate"
       d="M 276.42857,328.79075 C 276.11291,328.55401 275.71429,336.04455 275.71429,342.36218 C 275.71429,344.94962 276.42857,347.29735 276.42857,349.86218 C 276.42857,351.79503 276.64513,353.15243 277.14286,354.1479 C 277.35855,354.57927 282.22583,353.79075 282.85714,353.79075 C 285.07562,353.79075 286.05136,353.0865 286.78571,352.71932 C 287.49412,352.36512 286.5479,346.17309 286.42857,345.57647 C 285.86448,342.756 286.42857,339.18724 286.42857,336.29075 C 286.42857,334.4368 286.16046,332.00401 285.71429,330.21932 C 285.11476,327.8212 286.33656,326.93876 283.21429,327.71932 C 280.95005,328.28538 278.77654,328.20376 276.42857,328.79075 z"
       id="path6323" />
    <path
       style="opacity:1;fill:#b7aaa0;fill-opacity:1;fill-rule:evenodd;stroke:#000000;stroke-width:2;stroke-linecap:round;stroke-linejoin:round;marker:none;marker-start:none;marker-mid:none;marker-end:none;stroke-miterlimit:4;stroke-dasharray:none;stroke-dashoffset:0;stroke-opacity:1;visibility:visible;display:inline;overflow:visible;enable-background:accumulate"
       d="M 279.64286,323.43361 C 279.04762,323.43361 278.45238,323.43361 277.85714,323.43361 C 275.17714,323.43361 275,327.83867 275,329.50504 C 275,332.39401 280.26986,332.30821 281.78571,332.00504 C 284.47349,331.46748 285.51812,330.28969 286.07143,328.07647 C 286.54986,326.16273 284.65992,324.60712 283.57143,323.79075 C 282.09227,322.68138 281.1495,322.83095 279.64286,323.43361 z"
       id="path6321" />
  </g>
</svg>
