<?xml version="1.0" encoding="UTF-8" standalone="no"?>
<!-- Created with Inkscape (http://www.inkscape.org/) -->
<svg
   xmlns:dc="http://purl.org/dc/elements/1.1/"
   xmlns:cc="http://creativecommons.org/ns#"
   xmlns:rdf="http://www.w3.org/1999/02/22-rdf-syntax-ns#"
   xmlns:svg="http://www.w3.org/2000/svg"
   xmlns="http://www.w3.org/2000/svg"
   xmlns:sodipodi="http://sodipodi.sourceforge.net/DTD/sodipodi-0.dtd"
   xmlns:inkscape="http://www.inkscape.org/namespaces/inkscape"
   width="744.09448819"
   height="1052.3622047"
   id="svg2"
   sodipodi:version="0.32"
   inkscape:version="0.46"
   sodipodi:docname="thomas-turtle.svg"
   inkscape:output_extension="org.inkscape.output.svg.inkscape">
  <defs
     id="defs4">
    <inkscape:perspective
       sodipodi:type="inkscape:persp3d"
       inkscape:vp_x="0 : 526.18109 : 1"
       inkscape:vp_y="0 : 1000 : 0"
       inkscape:vp_z="744.09448 : 526.18109 : 1"
       inkscape:persp3d-origin="372.04724 : 350.78739 : 1"
       id="perspective10" />
  </defs>
  <sodipodi:namedview
     id="base"
     pagecolor="#ffffff"
     bordercolor="#666666"
     borderopacity="1.0"
     gridtolerance="10000"
     guidetolerance="10"
     objecttolerance="10"
     inkscape:pageopacity="0.0"
     inkscape:pageshadow="2"
     inkscape:zoom="1.4"
     inkscape:cx="377.68363"
     inkscape:cy="829.76541"
     inkscape:document-units="px"
     inkscape:current-layer="layer1"
     showgrid="false"
     showguides="true"
     inkscape:guide-bbox="true"
     inkscape:window-width="1438"
     inkscape:window-height="898"
     inkscape:window-x="0"
     inkscape:window-y="0" />
  <metadata
     id="metadata7">
    <rdf:RDF>
      <cc:Work
         rdf:about="">
        <dc:format>image/svg+xml</dc:format>
        <dc:type
           rdf:resource="http://purl.org/dc/dcmitype/StillImage" />
      </cc:Work>
    </rdf:RDF>
  </metadata>
  <g
     inkscape:label="Layer 1"
     inkscape:groupmode="layer"
     id="layer1">
    <path
       style="opacity:1;fill:#3dc523;fill-opacity:1;fill-rule:evenodd;stroke:#000000;stroke-width:2;stroke-linecap:butt;stroke-linejoin:miter;marker:none;marker-start:none;marker-mid:none;marker-end:none;stroke-miterlimit:4;stroke-dasharray:none;stroke-dashoffset:0;stroke-opacity:1;visibility:visible;display:inline;overflow:visible;enable-background:accumulate"
       d="M 346.07143,252.36218 C 346.07143,256.64789 346.07143,260.93361 346.07143,265.21932 C 346.07143,268.79075 346.07143,272.36218 346.07143,275.93361 C 346.07143,278.23603 345.35714,281.9251 345.35714,285.21932 C 345.35714,289.6774 344.82345,291.64789 349.64286,291.64789 C 352.41011,291.64789 355.47254,289.47619 358.21429,288.79075 C 360.56989,288.20185 363.00154,287.95108 365.35714,287.36218 C 368.56611,286.55994 361.15939,281.99972 360.35714,278.79075 C 359.52551,275.4642 361.07143,272.15147 361.07143,268.79075 C 361.07143,265.45742 361.07143,262.12409 361.07143,258.79075 C 361.07143,255.20776 361.0924,252.27832 361.78572,249.50504 C 362.16103,248.00378 362.24857,249.73647 363.21429,250.21932"
       id="path3249" />
    <path
       style="opacity:1;fill:#3dc523;fill-opacity:1;fill-rule:evenodd;stroke:#000000;stroke-width:2;stroke-linecap:butt;stroke-linejoin:miter;marker:none;marker-start:none;marker-mid:none;marker-end:none;stroke-miterlimit:4;stroke-dasharray:none;stroke-dashoffset:0;stroke-opacity:1;visibility:visible;display:inline;overflow:visible;enable-background:accumulate"
       d="M 318.25933,234.71984 C 321.20384,222.9418 316.23902,258.94481 316.23902,271.08533 C 316.23902,277.18355 316.7803,283.35194 318.25933,289.26808 C 319.96457,296.08902 298.05628,290.23803 298.05628,283.20716 C 298.05628,272.77379 302.09689,263.78289 302.09689,252.90259 C 302.09689,248.4731 298.18513,231.19465 302.09689,246.84167"
       id="path2455" />
    <path
       style="opacity:1;fill:#3dc523;fill-opacity:1;fill-rule:evenodd;stroke:#000000;stroke-width:2;stroke-linecap:butt;stroke-linejoin:miter;marker:none;marker-start:none;marker-mid:none;marker-end:none;stroke-miterlimit:4;stroke-dasharray:none;stroke-dashoffset:0;stroke-opacity:1;visibility:visible;display:inline;overflow:visible;enable-background:accumulate"
       d="M 453.38517,232.82208 C 456.29857,240.10558 451.36487,259.74626 451.36487,269.18757 C 451.36487,274.83953 436.32207,268.73724 433.18212,267.16727 C 429.88012,265.51627 434.64651,241.10669 435.20243,238.883 C 435.43342,237.95905 436.5493,237.53613 437.22273,236.86269"
       id="path2449" />
    <path
       style="opacity:1;fill:#3dc523;fill-opacity:1;fill-rule:evenodd;stroke:#000000;stroke-width:2;stroke-linecap:butt;stroke-linejoin:miter;marker:none;marker-start:none;marker-mid:none;marker-end:none;stroke-miterlimit:4;stroke-dasharray:none;stroke-dashoffset:0;stroke-opacity:1;visibility:visible;display:inline;overflow:visible;enable-background:accumulate"
       d="M 420.93775,238.17923 C 423.63149,227.40427 412.85653,259.39754 412.85653,270.50411 C 412.85653,283.40553 411.55783,282.62594 400.7347,282.62594 C 386.07335,282.62594 388.61287,275.17155 388.61287,262.42289 C 388.61287,256.95257 391.75888,243.77794 392.65348,240.19954"
       id="path2451" />
    <path
       style="opacity:1;fill:#3dc523;fill-opacity:1;fill-rule:evenodd;stroke:#000000;stroke-width:2;stroke-linecap:butt;stroke-linejoin:miter;marker:none;marker-start:none;marker-mid:none;marker-end:none;stroke-miterlimit:4;stroke-dasharray:none;stroke-dashoffset:0;stroke-opacity:1;visibility:visible;display:inline;overflow:visible;enable-background:accumulate"
       d="M 479.5266,183.75355 C 463.1053,167.33225 471.22541,190.86885 493.66873,171.63172 C 498.36381,167.60736 517.16375,170.93948 519.9327,171.63172 C 531.56449,174.53967 534.77858,177.07983 540.13575,187.79416 C 544.67727,196.8772 548.21697,204.26274 548.21697,214.05813 C 548.21697,223.48629 539.20397,227.656 530.03422,232.24087 C 521.36082,236.57757 511.27739,235.91898 501.74995,238.30179 C 490.39326,241.14209 492.40661,240.56885 481.20028,236.99577"
       id="path2447" />
    <path
       style="opacity:1;fill:#587923;fill-opacity:1;fill-rule:evenodd;stroke:#000000;stroke-width:2;stroke-linecap:butt;stroke-linejoin:miter;marker:none;marker-start:none;marker-mid:none;marker-end:none;stroke-miterlimit:4;stroke-dasharray:none;stroke-dashoffset:0;stroke-opacity:1;visibility:visible;display:inline;overflow:visible;enable-background:accumulate"
       d="M 481.20028,236.99577 C 472.35778,234.17638 459.51762,238.30179 449.22202,238.30179 C 439.48759,238.30179 433.9506,236.05873 424.97836,238.30179 C 416.47216,240.42834 406.02263,240.32209 398.71439,240.32209 C 389.78333,240.32209 379.90637,244.51902 372.45043,246.38301 C 358.15458,249.95697 354.67744,256.68941 342.14585,250.42362 C 333.4185,246.05994 323.38782,246.74426 313.86158,244.3627 C 305.66204,242.31282 295.05092,250.5806 287.59761,252.44392 C 276.99067,255.09566 269.15109,256.48453 257.29304,256.48453 C 248.81241,256.48453 242.45855,235.53238 241.1306,230.22057 C 238.81095,220.94196 243.54511,208.44067 245.17121,201.93629 C 246.89961,195.02267 255.56243,187.50446 261.33365,181.73324 C 268.37526,174.69163 274.11779,168.9491 281.5367,161.53019 C 286.65826,156.40863 299.40631,153.60554 307.80066,149.40836 C 317.86763,144.37488 328.04786,139.28477 336.08493,135.26623 C 344.50185,131.05777 355.25056,129.46467 364.36921,127.18501 C 374.53058,124.64466 381.32512,123.4511 390.63317,121.12409 C 398.4772,119.16308 406.76291,119.10379 416.89714,119.10379 C 426.19063,119.10379 435.6639,125.45671 443.1611,129.20531 C 449.89004,132.56978 454.7886,136.29787 459.32355,145.36775 C 463.30803,153.33672 466.50624,160.29402 469.42507,167.59111 C 475.16308,181.93613 479.5266,190.0803 479.5266,205.9769"
       id="path3263" />
    <path
       style="opacity:1;fill:none;fill-opacity:1;fill-rule:evenodd;stroke:#000000;stroke-width:2;stroke-linecap:butt;stroke-linejoin:miter;marker:none;marker-start:none;marker-mid:none;marker-end:none;stroke-miterlimit:4;stroke-dasharray:none;stroke-dashoffset:0;stroke-opacity:1;visibility:visible;display:inline;overflow:visible;enable-background:accumulate"
       d="M 249.681,242.09729 C 249.681,231.05213 234.41749,258.48217 229.47795,268.36125 C 228.01207,271.293 228.22192,268.36125 231.49825,268.36125"
       id="path2457" />
    <path
       style="opacity:1;fill:none;fill-opacity:1;fill-rule:evenodd;stroke:#000000;stroke-width:2;stroke-linecap:butt;stroke-linejoin:miter;marker:none;marker-start:none;marker-mid:none;marker-end:none;stroke-miterlimit:4;stroke-dasharray:none;stroke-dashoffset:0;stroke-opacity:1;visibility:visible;display:inline;overflow:visible;enable-background:accumulate"
       d="M 502.14286,191.6479 C 503.48973,191.31118 499.7619,193.07647 498.57143,193.79075"
       id="path2461" />
    <path
       style="opacity:1;fill:none;fill-opacity:1;fill-rule:evenodd;stroke:#000000;stroke-width:2;stroke-linecap:butt;stroke-linejoin:miter;marker:none;marker-start:none;marker-mid:none;marker-end:none;stroke-miterlimit:4;stroke-dasharray:none;stroke-dashoffset:0;stroke-opacity:1;visibility:visible;display:inline;overflow:visible;enable-background:accumulate"
       d="M 512.85714,188.79075 C 516.53432,187.87146 502.96801,190.76858 516.42857,188.07647"
       id="path2463" />
    <path
       style="opacity:1;fill:none;fill-opacity:1;fill-rule:evenodd;stroke:#000000;stroke-width:2;stroke-linecap:butt;stroke-linejoin:miter;marker:none;marker-start:none;marker-mid:none;marker-end:none;stroke-miterlimit:4;stroke-dasharray:none;stroke-dashoffset:0;stroke-opacity:1;visibility:visible;display:inline;overflow:visible;enable-background:accumulate"
       d="M 477.14286,182.36218 C 477.14286,177.16211 480.40876,192.26309 481.42857,197.36218 C 482.18196,201.12912 480.71429,204.46762 480.71429,208.07647 C 480.71429,211.35348 480,215.24485 480,218.79076 C 480,220.78522 482.28687,224.3668 482.85715,226.6479 C 483.56805,229.4915 483.60454,232.22976 482.85715,235.21933 C 482.74937,235.65043 482.85715,235.75539 482.85715,235.93361"
       id="path2467" />
    <path
       style="opacity:1;fill:none;fill-opacity:1;fill-rule:evenodd;stroke:#000000;stroke-width:2;stroke-linecap:butt;stroke-linejoin:miter;marker:none;marker-start:none;marker-mid:none;marker-end:none;stroke-miterlimit:4;stroke-dasharray:none;stroke-dashoffset:0;stroke-opacity:1;visibility:visible;display:inline;overflow:visible;enable-background:accumulate"
       d="M 495.71428,202.36218 C 496.19048,203.55266 496.66667,204.74313 497.14286,205.93361 C 498.26507,208.73914 500.68183,209.49692 503.57143,210.21932 C 507.00166,211.07688 509.57069,213.36145 511.42857,215.21932 C 512.82073,216.61149 518.82965,212.10396 519.28571,211.6479 C 520.47269,210.46092 525.19124,208.69513 526.42857,208.07647 C 527.96988,207.30581 529.62225,202.44461 530,200.93361 C 530.72891,198.01797 532.31882,197.37263 531.42857,200.93361"
       id="path2471" />
    <path
       style="opacity:1;fill:#3dc523;fill-opacity:1;fill-rule:evenodd;stroke:#000000;stroke-width:2;stroke-linecap:butt;stroke-linejoin:miter;marker:none;marker-start:none;marker-mid:none;marker-end:none;stroke-miterlimit:4;stroke-dasharray:none;stroke-dashoffset:0;stroke-opacity:1;visibility:visible;display:inline;overflow:visible;enable-background:accumulate"
       d="M 231.42857,264.50504 C 230.71429,263.31456 230,262.12409 229.28571,260.93361 C 228.18873,259.1053 229.28571,253.13801 229.28571,250.93361 C 229.28571,248.24623 231.82313,244.11048 233.57143,242.36218 C 235.95257,239.98104 236.62536,237.87968 238.57143,235.93361 C 240.98462,233.52042 241.34314,233.07647 245.71429,233.07647"
       id="path2477" />
    <path
       style="opacity:1;fill:none;fill-opacity:1;fill-rule:evenodd;stroke:#000000;stroke-width:2;stroke-linecap:butt;stroke-linejoin:miter;marker:none;marker-start:none;marker-mid:none;marker-end:none;stroke-miterlimit:4;stroke-dasharray:none;stroke-dashoffset:0;stroke-opacity:1;visibility:visible;display:inline;overflow:visible;enable-background:accumulate"
       d="M 392.14286,120.21933 C 391.90476,121.4098 391.66667,122.60028 391.42857,123.79076 C 390.71496,127.3588 390.93666,130.04413 390,133.79076 C 389.29821,136.5979 391.2855,140.64746 392.14286,142.36219 C 393.69348,145.46342 393.58811,148.87415 394.28571,152.36219 C 394.90088,155.438 395,158.87735 395,162.36219 C 395,165.73812 394.28571,169.34406 394.28571,173.07647 C 394.28571,176.80857 394.41501,180.41643 393.57143,183.79076 C 392.66123,187.43156 391.51593,190.58417 390.71429,193.79076 C 389.86406,197.19167 390,200.83715 390,204.50504 C 390,208.05321 389.28571,211.39536 389.28571,215.21933 C 389.28571,217.84558 387.85714,221.45661 387.85714,225.21933 C 387.85714,228.41768 389.28571,231.63206 389.28571,235.21933 C 389.28571,238.10971 388.45461,239.75204 389.28571,243.07647"
       id="path3265" />
    <path
       style="opacity:1;fill:none;fill-opacity:1;fill-rule:evenodd;stroke:#000000;stroke-width:2;stroke-linecap:butt;stroke-linejoin:miter;marker:none;marker-start:none;marker-mid:none;marker-end:none;stroke-miterlimit:4;stroke-dasharray:none;stroke-dashoffset:0;stroke-opacity:1;visibility:visible;display:inline;overflow:visible;enable-background:accumulate"
       d="M 317.14286,146.6479 C 319.38791,137.10442 323.33089,177.11429 324.28571,180.93361 C 325.31782,185.06207 325.71429,189.29966 325.71429,193.79075 C 325.71429,198.1348 326.18662,201.39438 327.14286,205.21932 C 327.99385,208.62331 327.87295,210.99683 328.57143,213.79075 C 329.46218,217.35376 330.58631,219.70742 331.42857,223.07647 C 332.48693,227.3099 333.47679,229.84076 334.28571,233.07647 C 335.05615,236.15821 332.14286,239.1856 332.14286,242.36218 C 332.14286,242.60028 332.61905,242.36218 332.85714,242.36218"
       id="path3267"
       sodipodi:nodetypes="cssssssss" />
    <path
       style="opacity:1;fill:none;fill-opacity:1;fill-rule:evenodd;stroke:#000000;stroke-width:2;stroke-linecap:butt;stroke-linejoin:miter;marker:none;marker-start:none;marker-mid:none;marker-end:none;stroke-miterlimit:4;stroke-dasharray:none;stroke-dashoffset:0;stroke-opacity:1;visibility:visible;display:inline;overflow:visible;enable-background:accumulate"
       d="M 350.35714,131.64789 C 350.35714,135.83148 350.1441,136.18245 350,134.50504 C 349.70315,131.04956 350.62775,141.30175 351.42857,144.50504 C 352.23467,147.72944 352.61508,149.7352 354.28571,153.07647 C 356.10731,156.71965 357.52486,159.55476 359.28571,163.07647 C 361.31701,167.13905 362.48955,172.32039 363.57143,176.6479 C 364.52397,180.45805 366.21011,183.63119 367.14286,187.36218 C 367.90905,190.42695 367.85714,193.88562 367.85714,197.36218 C 367.85714,200.1346 367.14286,204.10486 367.14286,207.36218 C 367.14286,211.4515 367.85714,213.27906 367.85714,217.36218 C 367.85714,220.18967 370.08669,224.22419 370.71429,227.36218 C 371.15314,229.55643 374.21958,233.65849 375,235.21932 C 376.14756,237.51444 375.71429,241.28073 375.71429,244.50504"
       id="path3269"
       sodipodi:nodetypes="csssssssssssc" />
    <path
       style="opacity:1;fill:none;fill-opacity:1;fill-rule:evenodd;stroke:#000000;stroke-width:2;stroke-linecap:butt;stroke-linejoin:miter;marker:none;marker-start:none;marker-mid:none;marker-end:none;stroke-miterlimit:4;stroke-dasharray:none;stroke-dashoffset:0;stroke-opacity:1;visibility:visible;display:inline;overflow:visible;enable-background:accumulate"
       d="M 430,120.93361 C 431.57903,124.09166 429.28571,130.87383 429.28571,134.50504 C 429.28571,138.07647 429.28571,141.6479 429.28571,145.21932 C 429.28571,149.51363 430,154.12532 430,158.79075 C 430,163.16627 429.72715,167.69934 430.71429,171.6479 C 431.64929,175.3879 430.71429,180.62561 430.71429,184.50504 C 430.71429,187.09859 431.39327,190.79242 432.14286,193.79075 C 433.0571,197.44773 433.39146,200.92802 434.28571,204.50504 C 435.33704,208.71033 434.28571,214.44007 434.28571,218.79075 C 434.28571,221.5489 435.83035,225.6836 436.42857,228.07647 C 437.12153,230.8483 436.42857,233.79075 436.42857,236.6479"
       id="path3271" />
    <path
       style="opacity:1;fill:none;fill-opacity:1;fill-rule:evenodd;stroke:#000000;stroke-width:2;stroke-linecap:butt;stroke-linejoin:miter;marker:none;marker-start:none;marker-mid:none;marker-end:none;stroke-miterlimit:4;stroke-dasharray:none;stroke-dashoffset:0;stroke-opacity:1;visibility:visible;display:inline;overflow:visible;enable-background:accumulate"
       d="M 454.28571,145.93361 C 454.28571,150.85725 455,154.70658 455,159.50504 C 455,163.29364 455.56464,166.7636 456.42857,170.21932 C 457.28836,173.65847 457.14286,178.13978 457.14286,181.6479 C 457.14286,185.47233 458.57143,189.09946 458.57143,193.07647 C 458.57143,196.82677 459.28571,198.48432 459.28571,202.36218 C 459.28571,205.55919 460,208.83229 460,212.36218 C 460,216.0119 460.0431,219.67744 460.71429,222.36218 C 461.48832,225.45833 461.42857,228.86715 461.42857,232.36218 C 461.42857,233.07647 461.42857,233.79075 461.42857,234.50504"
       id="path3273" />
    <path
       style="opacity:1;fill:none;fill-opacity:1;fill-rule:evenodd;stroke:#000000;stroke-width:2;stroke-linecap:butt;stroke-linejoin:miter;marker:none;marker-start:none;marker-mid:none;marker-end:none;stroke-miterlimit:4;stroke-dasharray:none;stroke-dashoffset:0;stroke-opacity:1;visibility:visible;display:inline;overflow:visible;enable-background:accumulate"
       d="M 410.35714,120.57647 C 410.35714,126.35548 412.53943,130.73421 413.92857,136.29076 C 414.16666,137.24314 414.40476,138.19552 414.64285,139.1479 C 415.96022,144.41737 417.28515,149.32508 418.92857,153.43361 C 420.39244,157.09328 420.86045,160.44686 421.78571,164.1479 C 422.71043,167.84679 423.21428,171.42208 423.21428,175.57647 C 423.21428,179.09858 423.92857,183.09322 423.92857,187.00504 C 423.92857,190.57647 423.92857,194.1479 423.92857,197.71933 C 423.92857,200.9605 424.73098,205.30284 425.35714,208.43361 C 425.99913,211.64358 426.69216,215.20226 427.5,218.43361 C 428.24581,221.41686 427.44817,225.78379 426.78571,228.43361 C 425.86414,232.11992 424.69171,236.09535 423.92857,239.1479 C 423.92857,239.1479 423.92857,239.1479 423.92857,239.1479"
       id="path3275" />
    <path
       style="opacity:1;fill:none;fill-opacity:1;fill-rule:evenodd;stroke:#000000;stroke-width:2;stroke-linecap:butt;stroke-linejoin:miter;marker:none;marker-start:none;marker-mid:none;marker-end:none;stroke-miterlimit:4;stroke-dasharray:none;stroke-dashoffset:0;stroke-opacity:1;visibility:visible;display:inline;overflow:visible;enable-background:accumulate"
       d="M 333.21429,137.36218 C 332.07681,141.91208 339.79451,152.76332 340.71429,157.36218 C 341.80771,162.82928 343.13168,168.02056 344.28571,173.79075 C 345.07662,177.74529 346.21066,181.49052 347.14286,185.21932 C 348.14589,189.23145 349.13577,192.47668 350,195.93361 C 351.0343,200.07079 351.12078,203.98817 352.14286,208.07647 C 353.14765,212.09563 354.04546,215.6869 355,219.50504 C 356.02775,223.61603 357.14286,226.35883 357.14286,230.93361 C 357.14286,234.02936 358.72707,237.98476 359.28571,240.21932 C 360.1837,243.81125 361.28944,245.37709 362.14286,248.79075 C 362.14286,248.79075 362.14286,248.79075 362.14286,248.79075"
       id="path3277"
       sodipodi:nodetypes="csssssssscc" />
    <path
       style="opacity:1;fill:none;fill-opacity:1;fill-rule:evenodd;stroke:#000000;stroke-width:2;stroke-linecap:butt;stroke-linejoin:miter;marker:none;marker-start:none;marker-mid:none;marker-end:none;stroke-miterlimit:4;stroke-dasharray:none;stroke-dashoffset:0;stroke-opacity:1;visibility:visible;display:inline;overflow:visible;enable-background:accumulate"
       d="M 297.67857,154.32647 C 297.1069,154.88832 299.61671,162.75681 299.8468,163.29318 C 301.82584,167.90671 306.73052,171.72906 307.85714,177.36218 C 308.89286,182.54078 311.13397,187.31774 312.14286,192.36218 C 312.87989,196.04732 312.24967,201.22063 311.42857,204.50504 C 310.56427,207.96225 312.38029,212.83506 312.85714,215.21932 C 313.53862,218.62673 313.47497,221.97633 314.28571,225.21932 C 315.16656,228.7427 314.84017,232.43715 315.71429,235.93361 C 316.61787,239.54795 316.37073,242.07297 317.14286,245.93361 C 317.40814,247.26001 318.3524,248.62892 318.57143,249.50504"
       id="path3279"
       sodipodi:nodetypes="cssssssssc" />
    <path
       style="opacity:1;fill:none;fill-opacity:1;fill-rule:evenodd;stroke:#000000;stroke-width:2;stroke-linecap:butt;stroke-linejoin:miter;marker:none;marker-start:none;marker-mid:none;marker-end:none;stroke-miterlimit:4;stroke-dasharray:none;stroke-dashoffset:0;stroke-opacity:1;visibility:visible;display:inline;overflow:visible;enable-background:accumulate"
       d="M 273.57143,171.6479 C 273.05848,176.14583 282.91975,191.63765 285.71429,196.6479 C 287.86527,200.50432 289.07553,206.22753 290.71429,209.50504 C 292.3026,212.68166 292.69769,216.72437 293.57143,220.21932 C 294.51443,223.99133 294.9656,227.1902 295.71429,230.93361 C 296.37754,234.24987 297.04976,237.70409 297.85714,240.93361 C 298.64761,244.09546 299.28571,247.9377 299.28571,249.50504 C 299.28571,251.62171 297.73587,252.08811 297.14286,253.07647"
       id="path3281"
       sodipodi:nodetypes="cssssssc" />
    <path
       style="opacity:1;fill:none;fill-opacity:1;fill-rule:evenodd;stroke:#000000;stroke-width:2;stroke-linecap:butt;stroke-linejoin:miter;marker:none;marker-start:none;marker-mid:none;marker-end:none;stroke-miterlimit:4;stroke-dasharray:none;stroke-dashoffset:0;stroke-opacity:1;visibility:visible;display:inline;overflow:visible;enable-background:accumulate"
       d="M 251.42858,192.00504 C 251.42858,197.28709 257.41097,209.8632 258.57143,214.50504 C 259.72392,219.11499 260.7804,222.4944 262.85714,226.6479 C 264.93279,230.79919 265.96074,235.46578 268.57143,238.07647 C 270.87668,240.38172 271.8742,242.00397 274.28571,245.21932 C 276.06996,247.59832 276.70811,250.06411 277.85714,252.36218 C 278.3126,253.27309 278.32095,253.75361 278.57143,254.50504"
       id="path3283"
       sodipodi:nodetypes="csssssc" />
    <path
       style="opacity:1;fill:none;fill-opacity:1;fill-rule:evenodd;stroke:#000000;stroke-width:2;stroke-linecap:butt;stroke-linejoin:miter;marker:none;marker-start:none;marker-mid:none;marker-end:none;stroke-miterlimit:4;stroke-dasharray:none;stroke-dashoffset:0;stroke-opacity:1;visibility:visible;display:inline;overflow:visible;enable-background:accumulate"
       d="M 245,234.50504 C 245.05278,234.61061 236.7196,234.50504 245,234.50504 C 248.23845,234.50504 246.40887,228.11588 247.85714,225.21932 C 250.1644,220.60481 257.07437,217.11756 261.42857,214.50504 C 265.27613,212.1965 267.06205,207.9585 270.71429,205.21932 C 273.68639,202.99025 275.24463,202.11755 278.57143,198.79075 C 282.71642,194.64576 284.3587,190.14634 288.57143,185.93361 C 292.06101,182.44403 295.36593,180.56768 297.85714,178.07647 C 301.54271,174.3909 304.98946,172.19151 308.57143,169.50504 C 312.18193,166.79716 315.73317,165.56703 319.28571,163.79075 C 322.90703,161.9801 325.00807,162.001 328.57143,160.21932 C 331.42295,158.79357 335.28332,158.00564 337.85714,157.36218 C 341.25137,156.51362 344.85987,156.6479 348.57143,156.6479 C 352.14286,156.6479 355.71429,156.6479 359.28571,156.6479 C 362.85714,156.6479 366.42857,156.6479 370,156.6479 C 373.89943,156.6479 377.2502,156.08535 380.71429,155.21932 C 384.52741,154.26604 388.86279,153.79075 392.85714,153.79075 C 396.66345,153.79075 399.67116,153.07647 403.57143,153.07647 C 407.63236,153.07647 411.20589,153.79075 415,153.79075 C 419.0969,153.79075 422.78981,154.50504 427.14286,154.50504 C 431.36136,154.50504 435.66006,154.50504 440,154.50504 C 444.00387,154.50504 449.79014,152.59322 453.57143,151.6479 C 454.79368,151.34233 457.43086,150.3259 457.85714,150.21932"
       id="path3285" />
    <path
       style="opacity:1;fill:none;fill-opacity:1;fill-rule:evenodd;stroke:#000000;stroke-width:2;stroke-linecap:butt;stroke-linejoin:miter;marker:none;marker-start:none;marker-mid:none;marker-end:none;stroke-miterlimit:4;stroke-dasharray:none;stroke-dashoffset:0;stroke-opacity:1;visibility:visible;display:inline;overflow:visible;enable-background:accumulate"
       d="M 247.14286,239.50504 C 242.5871,240.64398 252.18561,231.56239 254.28571,227.36218 C 255.43809,225.05744 259.05508,223.3071 260.71429,221.6479 C 263.10145,219.26073 266.90545,218.55231 269.28571,217.36218 C 272.61063,215.69972 275.48104,216.16686 278.57143,213.07647 C 281.53175,210.11615 283.81323,208.54895 285.71429,206.6479 C 288.07511,204.28708 291.44422,201.10045 293.57143,199.50504 C 296.75756,197.11544 301.08158,195.48464 305,194.50504 C 310.7219,193.07456 315.67299,189.51536 321.42857,188.07647 C 325.29686,187.1094 329.50613,185.46626 332.85714,183.79075 C 336.04352,182.19756 337.89442,180.91497 340.71429,179.50504 C 344.54318,177.59059 347.76826,175.62091 351.42857,173.79075 C 354.57743,172.21632 357.43292,172.57429 360.71429,170.93361 C 363.52367,169.52892 369.30935,168.78603 372.85714,168.07647 C 377.47688,167.15252 382.09411,164.16008 386.42857,163.07647 C 390.42502,162.07736 394.01474,161.17992 397.85714,160.21932 C 401.42105,159.32835 405.56719,159.50504 409.28571,159.50504 C 413.57143,159.50504 417.85714,159.50504 422.14286,159.50504 C 427.41149,159.50504 431.92202,158.07647 437.14286,158.07647 C 441.19284,158.07647 443.9802,159.50504 447.85714,159.50504 C 450.83372,159.50504 454.9089,162.33941 457.85714,163.07647 C 461.0093,163.86451 463.81545,163.91276 466.42857,165.21932"
       id="path3289" />
    <path
       style="opacity:1;fill:none;fill-opacity:1;fill-rule:evenodd;stroke:#000000;stroke-width:2;stroke-linecap:butt;stroke-linejoin:miter;marker:none;marker-start:none;marker-mid:none;marker-end:none;stroke-miterlimit:4;stroke-dasharray:none;stroke-dashoffset:0;stroke-opacity:1;visibility:visible;display:inline;overflow:visible;enable-background:accumulate"
       d="M 475,179.50504 C 473.6293,179.50504 468.91048,179.50504 465,179.50504 C 462.15634,179.50504 457.69895,181.15174 455.71429,181.6479 C 452.10142,182.55112 448.55845,183.78751 445.71429,183.07647 C 443.70659,182.57455 439.43729,183.79076 436.42858,183.79076 C 433.58863,183.79076 429.72753,185.82316 426.42858,186.6479 C 422.96002,187.51504 419.24991,187.53181 415.71429,186.6479 C 411.93582,185.70328 408.56879,185.39724 405,184.50504 C 400.7028,183.43074 398.93783,184.41344 395.71429,185.21933 C 392.8605,185.93278 387.3487,189.88638 385,191.6479 C 381.75293,194.08321 377.05453,194.90635 373.57143,196.6479 C 369.90672,198.48026 368.83899,199.21479 364.28572,198.07647 C 360.71724,197.18435 356.68018,199.44214 353.57143,200.21933 C 350.52776,200.98025 347.55838,204.55055 345.71429,205.93361 C 343.37907,207.68503 339.31841,208.41727 337.14286,209.50504 C 333.96897,211.09199 331.22207,213.76707 329.28572,215.21933 C 325.87454,217.77772 320.99946,219.7196 317.14286,221.6479 C 312.86009,223.78929 308.92882,225.39778 305,227.36219 C 301.94229,228.89105 298.2035,230.13274 295,230.93361 C 291.35179,231.84567 288.68006,234.29932 285,235.21933 C 281.92612,235.9878 278.21521,239.68316 275.71429,240.93361 C 272.71112,242.4352 270.63207,243.83187 267.85715,245.21933 C 265.21021,246.5428 263.56705,250.94239 262.14286,253.79076"
       id="path3293"
       sodipodi:nodetypes="cssssssssssssssssssssss" />
    <path
       style="opacity:1;fill:none;fill-opacity:1;fill-rule:evenodd;stroke:#000000;stroke-width:2;stroke-linecap:butt;stroke-linejoin:miter;marker:none;marker-start:none;marker-mid:none;marker-end:none;stroke-miterlimit:4;stroke-dasharray:none;stroke-dashoffset:0;stroke-opacity:1;visibility:visible;display:inline;overflow:visible;enable-background:accumulate"
       d="M 250.71429,249.50504 C 249.73931,244.03524 251.96569,241.28795 253.57143,238.07647 C 254.71702,235.78528 257.62531,233.54953 260,232.36218 C 262.42592,231.14922 266.29146,226.78501 267.85714,225.21932 C 270.5379,222.53857 273.19963,221.8338 276.42857,220.21932 C 280.20554,218.33084 282.22629,218.41275 286.42857,217.36218 C 289.73268,216.53615 292.11932,215.58824 295.71429,213.79075 C 298.96109,212.16735 301.6516,208.44491 305,205.93361 C 307.57793,204.00016 311.14452,203.14748 314.28571,202.36218 C 317.67608,201.51459 321.69919,200.86596 324.28571,200.21932 C 327.83449,199.33213 329.18337,197.41336 332.14286,195.93361 C 335.37542,194.31733 337.10113,193.0869 340,192.36218 C 343.2844,191.54108 347.66966,189.95592 350,188.79075 C 353.23425,187.17363 356.78023,186.11492 360,184.50504 C 363.65795,182.67606 367.62675,181.88407 371.42857,180.93361 C 375.41128,179.93793 377.5574,179.04426 381.42857,178.07647 C 385.10274,177.15793 387.87971,175.38097 390,173.79075 C 393.29227,171.32155 396.95764,171.15849 400.71429,170.21932 C 404.24979,169.33545 409.21666,170.21932 412.85714,170.21932 C 417.08164,170.21932 420.21924,170.21932 424.28571,170.21932 C 427.85714,170.21932 431.42857,170.21932 435,170.21932 C 438.74848,170.21932 441.40633,169.15902 443.57143,168.07647 C 446.30069,166.71183 449.21751,166.45227 452.85714,167.36218 C 456.24073,168.20808 466.40854,167.71933 470,167.71933"
       id="path3295"
       sodipodi:nodetypes="csssssssssssssssssssssss" />
    <path
       style="opacity:1;fill:none;fill-opacity:1;fill-rule:evenodd;stroke:#000000;stroke-width:2;stroke-linecap:butt;stroke-linejoin:miter;marker:none;marker-start:none;marker-mid:none;marker-end:none;stroke-miterlimit:4;stroke-dasharray:none;stroke-dashoffset:0;stroke-opacity:1;visibility:visible;display:inline;overflow:visible;enable-background:accumulate"
       d="M 478.92857,189.50504 C 480.59183,188.25759 474.93622,190.93361 472.85714,190.93361 C 470.90357,190.93361 468.87983,190.85651 467.14286,191.29075 C 465.20887,191.77425 463.3349,192.24274 461.42857,192.71932 C 459.52737,193.19463 457.42176,193.07647 455.35714,193.07647 C 453.34138,193.07647 450.27408,193.2758 448.21429,193.79075 C 445.58342,194.44847 443.83196,195.21932 441.07143,195.21932 C 439.11633,195.21932 437.62099,195.57647 435.71429,195.57647 C 433.96138,195.57647 431.88669,195.93361 430,195.93361 C 427.57599,195.93361 426.54877,196.6479 424.28571,196.6479 C 422.46085,196.6479 420.62808,196.66945 419.28571,197.00504 C 417.67323,197.40816 415.85613,197.32672 414.28571,197.71932 C 412.64717,198.12896 411.40431,198.07647 409.64286,198.07647 C 407.01745,198.07647 403.99383,198.63484 401.42857,199.1479 C 400.94726,199.24416 400.47619,199.38599 400,199.50504 C 396.98622,200.25848 394.09835,202.36218 391.07143,202.36218 C 389.08977,202.36218 387.79014,203.36108 386.07143,203.79075 C 384.30029,204.23354 381.66809,206.52814 380,207.36218 C 377.93156,208.3964 375.88191,209.24265 373.92857,210.21932 C 372.30178,211.03272 370.50144,211.86075 369.28571,213.07647 C 367.82996,214.53222 366.27593,215.47422 364.64286,216.29075 C 363.30922,216.95757 362.1687,218.59926 360.35714,219.50504 C 358.86471,220.25125 357.36277,220.46651 355.71429,221.29075 C 354.15868,222.06856 353.29209,222.68042 351.78571,223.43361 C 349.99805,224.32744 349.4141,225.76243 348.21429,227.36218 C 346.98178,229.00553 346.45903,230.81177 346.07143,232.36218 C 345.90266,233.03726 340.62476,233.73723 338.57143,234.1479 C 335.87914,234.68635 333.28062,234.93488 330.71429,235.57647 C 329.64935,235.8427 327.09687,235.21932 325.71429,235.21932 C 323.69048,235.21932 321.66667,235.21932 319.64286,235.21932 C 317.16041,235.21932 314.96296,235.57647 312.5,235.57647 C 310.64486,235.57647 308.79342,235.52097 307.14286,235.93361 C 305.44044,236.35921 303.85884,237.29033 302.14286,237.71932 C 300.25819,238.19049 298.64932,238.75181 297.14286,239.50504 C 295.92423,240.11435 295.02455,241.98049 293.92857,243.07647 C 292.93848,244.06656 292.73405,245.82266 292.14286,247.00504 C 289.85097,251.58881 289.26075,248.61346 287.5,244.50504"
       id="path3299" />
    <path
       style="opacity:1;fill:none;fill-opacity:1;fill-rule:evenodd;stroke:#000000;stroke-width:2;stroke-linecap:butt;stroke-linejoin:miter;marker:none;marker-start:none;marker-mid:none;marker-end:none;stroke-miterlimit:4;stroke-dasharray:none;stroke-dashoffset:0;stroke-opacity:1;visibility:visible;display:inline;overflow:visible;enable-background:accumulate"
       d="M 480.71429,204.1479 C 479.96136,205.65374 477.22013,204.10926 475.71429,204.86218 C 473.83693,205.80086 472.18237,206.29075 470,206.29075 C 466.98127,206.29075 463.87007,205.57647 460.71429,205.57647 C 457.36692,205.57647 454.56455,206.0207 451.42857,206.6479 C 448.33406,207.2668 445.40875,208.209 442.5,208.79075 C 439.25927,209.4389 436.29621,210.82122 433.21429,212.36218 C 432.64088,212.64889 432.02381,212.83837 431.42857,213.07647 C 428.57942,214.21613 425.26123,214.95279 422.14286,215.57647 C 417.41975,216.52109 413.00177,218.54754 408.21429,219.50504 C 404.91737,220.16442 401.26194,220.93361 397.85714,220.93361 C 395.07599,220.93361 392.64896,222.90382 390,223.43361 C 387.15712,224.00219 384.34312,224.91065 381.78571,225.93361 C 379.25015,226.94784 377.53645,228.15664 375,228.79075 C 372.94283,229.30505 371.82301,229.30782 370,230.21932 C 368.5408,230.94892 366.36769,231.85691 364.64286,232.71932 C 361.88691,234.0973 359.42555,236.04227 356.78571,237.36218 C 354.94819,238.28094 354.29512,238.78135 352.5,240.57647 C 351.37588,241.70059 351.32565,242.0565 349.28571,243.07647 C 347.84682,243.79591 347.13234,245.5975 346.42857,247.00504 C 346.02247,247.81724 343.64735,249.46708 342.85714,249.86218 C 341.65132,250.46509 338.78971,249.8969 337.5,250.21932 C 335.95761,250.60492 337.5,255.12103 337.5,248.07647"
       id="path3301" />
  </g>
</svg>
