<?xml version="1.0" encoding="UTF-8" standalone="no"?>
<!-- Created with Inkscape (http://www.inkscape.org/) -->

<svg
   xmlns:dc="http://purl.org/dc/elements/1.1/"
   xmlns:cc="http://creativecommons.org/ns#"
   xmlns:rdf="http://www.w3.org/1999/02/22-rdf-syntax-ns#"
   xmlns:svg="http://www.w3.org/2000/svg"
   xmlns="http://www.w3.org/2000/svg"
   xmlns:sodipodi="http://sodipodi.sourceforge.net/DTD/sodipodi-0.dtd"
   xmlns:inkscape="http://www.inkscape.org/namespaces/inkscape"
   width="744.09448819"
   height="1052.3622047"
   id="svg2"
   version="1.1"
   inkscape:version="0.48.3.1 r9886"
   sodipodi:docname="music.svg">
  <defs
     id="defs4">
    <inkscape:perspective
       sodipodi:type="inkscape:persp3d"
       inkscape:vp_x="0 : 526.18109 : 1"
       inkscape:vp_y="0 : 1000 : 0"
       inkscape:vp_z="744.09448 : 526.18109 : 1"
       inkscape:persp3d-origin="372.04724 : 350.78739 : 1"
       id="perspective4339" />
  </defs>
  <sodipodi:namedview
     id="base"
     pagecolor="#ffffff"
     bordercolor="#666666"
     borderopacity="1.0"
     inkscape:pageopacity="0.0"
     inkscape:pageshadow="2"
     inkscape:zoom="0.7"
     inkscape:cx="424.35589"
     inkscape:cy="825.39034"
     inkscape:document-units="px"
     inkscape:current-layer="layer1"
     showgrid="false"
     inkscape:window-width="1364"
     inkscape:window-height="766"
     inkscape:window-x="0"
     inkscape:window-y="0"
     inkscape:window-maximized="0" />
  <metadata
     id="metadata7">
    <rdf:RDF>
      <cc:Work
         rdf:about="">
        <dc:format>image/svg+xml</dc:format>
        <dc:type
           rdf:resource="http://purl.org/dc/dcmitype/StillImage" />
        <dc:title></dc:title>
      </cc:Work>
    </rdf:RDF>
  </metadata>
  <g
     inkscape:label="Layer 1"
     inkscape:groupmode="layer"
     id="layer1">
    <path
       style="fill:#6c5353;fill-opacity:1;stroke:#ffffff;stroke-width:1px;stroke-linecap:butt;stroke-linejoin:miter;stroke-opacity:0"
       d="m 150,290.93361 c -0.44222,0.66486 1.22772,-1.29467 3.57143,-2.85714 1.80344,-1.2023 4.14247,-2.7139 5.35714,-3.92857 1.03819,-1.0382 2.59301,-1.52159 3.57143,-2.5 0.40472,-0.40473 0.35714,-0.8649 0.35714,-0.71429 0,0.77506 1.70065,2.94221 1.07143,3.57143 -0.66248,0.66247 -2.07491,1.03745 -2.85714,1.42857 -2.03394,1.01697 -4.52917,4.17202 -5.71429,5.35714 -1.59233,1.59234 -3.62045,1.4776 -5,2.85715 -0.18823,0.18823 -0.0909,0.71428 -0.35714,0.71428 -0.40952,0 -0.009,-3.88208 0,-3.92857 z"
       id="path6590"
       inkscape:connector-curvature="0" />
    <path
       style="fill:#c83737;fill-opacity:1;stroke:#ffffff;stroke-width:1px;stroke-linecap:butt;stroke-linejoin:miter;stroke-opacity:0"
       d="m 277.51339,76.25 c -4.08172,0.14038 -10.07506,4.264603 -13.03125,5.25 -5.57668,1.858893 -8.34254,5.811292 -12.125,9.59375 -11.46189,11.46189 -11.38392,29.52233 1.03125,41.9375 1.75094,1.75094 3.83697,3.37261 6,4.8125 0.50661,-0.42761 1.61942,-0.83196 3,-1.21875 -0.67153,0.0813 -1.87134,0.37064 -2.28125,0.46875 4.20934,-1.55462 8.43294,-3.07737 12.65625,-4.59375 -0.39933,0.19339 -0.7854,0.37345 -1.1875,0.5625 0.46032,-0.0704 1.00892,-0.11565 1.15625,-0.28125 0.13999,-0.15736 0.33684,-0.32532 0.53125,-0.46875 -0.11147,0.04 -0.23229,0.0537 -0.34375,0.0937 0.29515,-0.14383 0.58782,-0.29138 0.875,-0.4375 0.38857,-0.22781 0.79088,-0.44724 1.25,-0.65625 1.19133,-0.66836 2.21355,-1.35411 2.84375,-2.0625 0.11227,-0.1262 3.37095,-2.77797 3.4375,-2.71875 0.0587,0.0523 -0.74713,0.82328 -1.6875,1.65625 0.0918,-0.078 0.21769,-0.11764 0.34375,-0.125 0.1849,-0.0108 -0.13371,0.0895 -0.40625,0.21875 -0.2292,0.25063 -0.398,0.65109 -0.625,0.90625 -0.18628,0.20939 -0.43504,0.40759 -0.71875,0.59375 -0.45763,0.56413 -0.97663,1.10171 -1.65625,1.34375 -0.19868,0.0708 -0.3951,0.14791 -0.59375,0.21875 -2.44574,2.43585 -8.92737,4.41222 -10.8125,6.53125 -0.14555,0.1636 -1.72812,0.67446 -3.46875,1.40625 1.12909,0.67068 2.22202,1.28288 3.28125,1.8125 5.15392,2.57696 24.98327,-3.26452 28.28125,-6.5625 1.77521,-1.77521 4.0059,-5.5059 6.0625,-7.5625 1.91911,-1.91911 3.5792,-8.65841 5.0625,-11.625 0.54667,-1.09335 -0.28163,-4.78087 0.5,-5.5625 2.01124,-2.01124 1.16154,-9.22116 0,-12.125 0.0256,-10.299175 -2.72397,-15.199659 -17.6875,-20.1875 -2.53951,-0.846505 -5.48987,-0.173707 -8.0625,-1.03125 -0.49074,-0.163581 -1.0419,-0.207554 -1.625,-0.1875 z m 0.71875,53.53125 c 0.32678,-0.40282 0.60125,-0.82321 0.90625,-1.1875 -0.96848,0.84857 -1.54353,1.33804 -2.09375,1.8125 0.42779,-0.20411 0.84587,-0.40084 1.1875,-0.625 z m 0.90625,-1.1875 c 0.0905,-0.0793 0.16136,-0.14068 0.25,-0.21875 -0.0378,0.0249 -0.10288,0.0376 -0.125,0.0625 -0.0416,0.0468 -0.0838,0.10699 -0.125,0.15625 z m 0.25,-0.21875 c 0.0542,-0.0357 0.11729,-0.0605 0.1875,-0.0937 0.025,-0.0274 0.0354,-0.0707 0.0625,-0.0937 -0.0807,0.0715 -0.16685,0.11427 -0.25,0.1875 z m -7.8125,4.6875 c -0.26644,0.0407 -0.50848,0.0604 -0.59375,0.15625 -0.0723,0.0813 -0.16582,0.1723 -0.25,0.25 0.28292,-0.13246 0.55718,-0.27151 0.84375,-0.40625 z m -0.84375,0.40625 c -1.31758,0.61689 -2.6135,1.2174 -3.59375,1.78125 1.46314,-0.49235 2.79542,-1.04432 3.59375,-1.78125 z m -3.6875,1.8125 c -1.4814,0.49262 -3.07347,0.92576 -4.46875,1.3125 1.54348,-0.0902 3.2,-0.6025 4.46875,-1.3125 z"
       id="path5971"
       inkscape:connector-curvature="0" />
    <path
       style="fill:#6c5353;fill-opacity:1;stroke:#ffffff;stroke-width:1px;stroke-linecap:butt;stroke-linejoin:miter;stroke-opacity:0"
       d="m 507.98415,225.77171 c 0,6.52402 -2.33766,30.6067 -5,38.59375 -2.3403,7.02089 0.64239,16.52772 -2.875,23.5625 -2.76161,5.52322 1.32507,14.53737 -1.40625,20 -0.71228,1.42512 -2.11059,12.17067 -0.71875,13.5625 0.56999,0.57 1.09831,1.28606 1.625,2.09375 0.45298,-0.22091 0.85814,-0.2981 1.125,-0.0312 l 3.53125,3.5625 c 0.89946,0.89946 0.0791,3.35507 1.5,4.03125 2.72563,1.29706 4.92327,5.63755 6.72768,7.44196 1.28342,1.28342 1.84087,3.87212 3.03125,5.0625 0.39133,0.39133 0.87637,1.31473 1.40625,2.34375 1.23283,0.77551 2.40455,1.4983 3.1875,2.28125 3.20131,3.20131 3.40154,9.47346 4.28125,8.59375 1.35303,-1.35303 3.417,-20.42776 5,-23.59375 3.67328,-7.34655 2.20094,-18.08499 4.28125,-26.40625 0.61625,-2.46498 -0.61624,-5.41002 0,-7.875 3.51794,-14.07175 4.28398,-29.20116 7.15625,-43.5625 1.03407,-5.17033 -1.05738,-10.77464 1.4375,-15.71875 -14.61178,-8.76705 -13.36429,-9.53964 -34.29018,-13.94196 z m 8.57143,6.78571 10,2.15625 c 0.13947,-0.13947 0.912,-1.24425 1.4375,-0.71875 0.27831,0.27831 0,2.43911 0,2.875 0,5.42974 -1.4375,12.62937 -1.4375,19.28125 0,3.15028 -0.78168,9.37587 -2.15625,12.125 -0.85714,1.71429 0.85714,4.72322 0,6.4375 -3.11154,6.22308 -1.9033,14.44265 -3.34375,21.5 -0.0421,3.53936 -0.55424,11.9784 -1,20.65625 -0.006,0.12054 -0.67371,9.42004 -1.5,8.59375 -1.24394,-1.24394 -0.9029,-3.93415 -2.53125,-5.5625 -5.37751,-4.89233 -1.99127,-1.70555 -7.22768,-6.94196 -0.39304,-0.39304 0.93165,-14.05665 1.03125,-14.15625 1.44009,-1.44008 -0.95986,-7.60264 0.5,-9.0625 1.86976,-1.86976 0.53088,-10.21801 2,-13.15625 2.31846,-12.1209 3.93895,-24.94314 5.82584,-32.79018 0.51176,-4.0052 -3.15253,-7.6156 -1.59821,-11.23661 z"
       id="path3976"
       inkscape:connector-curvature="0"
       sodipodi:nodetypes="csscscccssscsssssscccssssssccsccssscccs" />
    <path
       style="fill:#6c5353;stroke:#ffffff;stroke-width:1px;stroke-linecap:butt;stroke-linejoin:miter;stroke-opacity:0"
       d="m 167.26339,210.875 c -0.0436,0.005 -0.08,0.0175 -0.125,0.0625 l -12.03125,4.71875 c 0.60095,3.65354 1.3125,8.85666 1.3125,10.28125 0,2.67411 1.97901,31.94776 2.15625,32.125 1.41809,1.41809 0.71875,6.64192 0.71875,9.3125 0,8.61312 1.53414,23.75578 5,30.6875 2.03231,4.06461 -0.234,13.15701 2.125,17.875 0.74734,1.49468 3.54202,9.33298 2.875,10 -1.03354,1.03354 -1.46108,2.13679 -2.875,2.84375 -1.72575,0.86288 -7.45405,9.28125 -7.84375,9.28125 -2.03447,0 -1.66921,-21.86968 -2.875,-24.28125 -2.56085,-5.1217 -0.85243,-11.70487 -3.5625,-17.125 -0.66666,-1.33334 0.66667,-3.66667 0,-5 -2.16875,-4.33754 -0.26361,-12.7147 -2.125,-16.4375 -1.89016,-3.78031 -0.49276,-10.95428 -2.15625,-14.28125 -0.95345,-1.90691 0.19457,-4.61087 -0.71875,-6.4375 -4.31731,-8.63463 -2.65555,-20.30784 -5,-30 l 6.21875,-6.1875 -17.65625,6.90625 c 2.42295,18.23407 2.18315,37.92447 7.875,55 2.28739,6.86219 0.30015,16.31904 3.5625,22.84375 2.77747,5.55494 -1.27183,14.58134 1.4375,20 2.2516,4.5032 2.84375,11.07057 2.84375,16.4375 0,6.21707 -0.96729,23.06541 1.4375,27.875 0.22711,0.45423 0.23428,3.48575 0.28125,6.21875 1.09956,-1.01976 2.1863,-2.00529 3.1875,-3.09375 0.97318,-0.59693 3.19893,-4.07393 3.6875,-4.5625 2.24692,-2.24692 3.83389,-5.27139 6.0625,-7.5 0.41738,-0.41738 0.61088,-1.70462 1.0625,-2.15625 l 12.15625,-12.125 c 0.65348,-0.65348 3.46543,-4.0396 4.3125,-6.34375 0.76792,-0.9715 1.4658,-2.0566 2.09375,-3.3125 0.14437,-0.28873 -2.97537,-12.97537 -3.5625,-13.5625 -0.55875,-0.55876 -3.5625,-30.56007 -3.5625,-34.28125 0,-5.26842 -0.62598,-12.65821 -2.875,-17.15625 -1.29735,-2.59471 -1.40625,-30.41941 -1.40625,-35.71875 0,-4.3125 -0.6804,-23.04763 -2.03125,-22.90625 z m -18.90625,7.4375 6.75,-2.65625 c -0.44754,-2.72085 -0.8125,-4.60131 -0.8125,-3.28125 l -5.9375,5.9375 z"
       id="path3919"
       inkscape:connector-curvature="0" />
    <path
       style="fill:#6c5353;fill-opacity:1;stroke:#ffffff;stroke-width:1px;stroke-linecap:butt;stroke-linejoin:miter;stroke-opacity:0"
       d="m 157.5,285.93361 c 4.89528,-4.78725 10.7922,-8.02814 16.42857,-11.78571 1.23089,-0.8206 2.86699,-2.74138 4.28571,-3.21429 1.26558,-0.42186 3.3584,-1.7168 3.92857,-2.85714 0.44688,-0.89376 7.49639,-5.71308 8.57143,-6.07143 1.65115,-0.55038 18.46205,-13.1049 20,-14.64286 1.02636,-1.02636 7.78745,-5.35714 8.57143,-5.35714 0.6222,0 2.1973,2.8027 2.14286,2.85714 -1.2605,1.2605 -5.42126,2.56412 -6.42857,3.57143 -1.31506,1.31506 -3.73686,1.23686 -5,2.5 -2.66199,2.66199 -6.40739,3.90739 -9.28572,6.78571 -0.60566,0.60567 -2.25147,0.82291 -2.85714,1.42858 -2.20817,2.20817 -6.53893,4.03893 -8.57143,6.07142 -1.23072,1.23073 -2.87163,2.87164 -4.28571,4.28572 -0.95828,0.95827 -2.45041,1.02184 -3.57143,2.14286 -3.37776,3.37775 -7.03824,6.55483 -11.78572,8.92857 -1.49253,0.74626 -9.33196,7.47687 -10,7.14285 -0.83163,-0.41581 -1.41681,-1.20487 -2.14285,-1.78571 z"
       id="path6618"
       inkscape:connector-curvature="0" />
    <path
       style="fill:#6c5353;fill-opacity:1;stroke:#ffffff;stroke-width:1;stroke-linecap:butt;stroke-linejoin:miter;stroke-miterlimit:4;stroke-opacity:0;stroke-dasharray:none"
       d="m 487.10344,202.91707 c -2.46512,-0.11014 -4.50085,0.0221 -5.78246,0.51541 -1.0342,-0.0668 -2.00064,-0.11209 -2.88273,-0.15596 -2.28836,-0.11382 -3.96096,-0.15895 -4.31385,-0.0573 -2.17742,0.62491 -7.82386,1.05595 -10.24134,0.13487 -3.69347,-1.40719 -22.24697,-2.34942 -28.37804,-2.60869 -9.28303,-0.39303 -40.80474,-4.32026 -46.61415,-1.71629 -3.82545,1.71471 -12.54216,-2.00638 -16.76209,-1.13902 -2.863,0.58846 -6.70228,-0.27979 -9.67259,-0.40502 -12.45936,-0.52694 -22.50339,-0.65248 -34.95352,-1.17897 -1.78142,-0.0752 -4.17347,-1.24953 -5.67373,-0.81896 -4.3303,1.24279 -15.63394,-0.66376 -19.12007,0.8988 -6.62006,2.96735 -15.14447,-3.2299 -22.14678,-1.22025 -4.09623,1.17563 -35.57404,2.04773 -39.42857,-0.0877 -3.19299,-1.76893 -24.34727,-1.0352 -28.99945,-1.232 -2.11017,-0.0892 -11.95356,1.86012 -13.67072,-0.009 -1.41532,-1.54031 -27.79139,-2.86572 -29.54464,-1.25474 -1.48127,1.36107 -7.04818,-1.7184 -8.52945,-0.35717 -0.0282,0.0258 -0.0507,0.0552 -0.074,0.085 -1.4297,-0.33627 -2.8537,-0.67986 -4.25503,-1.04142 0.0845,0.52952 0.16197,1.05301 0.23344,1.57772 -0.16296,-0.0612 -0.32501,-0.10664 -0.48581,-0.17891 -17.73992,11.56348 -31.15065,21.96311 -44.28097,34.03798 -1.64645,1.5141 -0.29531,7.05239 -0.38073,9.09224 -0.047,1.12405 -0.40787,7.01481 0.24049,7.71985 0.64767,0.70429 2.40714,-1.55638 3.43609,-0.43749 2.45991,2.67492 15.92777,2.62178 19.31536,1.10169 2.83152,-1.27059 9.91472,0.41517 13.08437,0.54789 5.8063,0.24314 11.58268,-0.64248 17.10606,-0.4112 6.81125,0.28522 21.30387,-1.62119 27.00866,0.5496 6.9107,2.62964 28.77401,2.53369 36.4101,0.96089 3.62969,-0.74761 9.54115,2.02755 12.77281,1.0986 4.4814,-1.28816 23.81517,-1.26447 35.3742,-1.64799 10.5018,-0.34845 46.41508,0.67753 56.86932,2.09286 12.13179,1.64245 26.79407,1.7752 34.22769,1.30537 3.70709,-0.23432 15.64808,-0.78275 19.28883,-0.6303 6.89412,0.28869 11.94385,-0.22307 18.74761,0.64207 8.68921,1.10484 30.47014,2.16447 39.25377,0.78709 8.69875,-1.36407 19.12148,-0.34455 27.90492,0.0234 3.08282,0.12909 7.20535,1.05269 10.23536,0.4286 7.64478,-1.57458 17.28304,-0.96755 25.09634,-0.64038 5.23007,0.21901 23.56501,-0.78597 37.16491,-0.65723 0.0713,0.29094 0.19784,0.5645 0.40725,0.79222 0.16052,0.17454 13.85253,0.58007 15.35305,0.6429 0.8746,0.0366 2.40578,0.22906 4.06829,0.45225 1.65129,-6.20003 5.10294,-14.25418 0.69202,-19.05064 -1.54751,-1.6828 -5.68487,-1.39195 -7.87169,-2.60227 -5.31304,-2.94056 -19.01325,-6.40662 -22.35865,-10.04443 -1.15088,-1.25147 -6.70379,-1.36904 -8.39259,-3.20544 -0.87997,-0.9569 -11.2115,-2.07847 -12.94151,-3.95969 -0.96948,-1.05423 -6.38564,-2.53253 -9.66154,-4.50942 0.35101,-0.7963 0.59189,-1.43409 0.53817,-1.49256 -0.1397,-0.15203 -6.89102,-0.57695 -8.0347,-0.75926 -0.0858,-0.27891 -0.14425,-0.57062 -0.17495,-0.87059 -3.30146,-0.56504 -6.51137,-0.98708 -9.20274,-1.10765 z"
       id="path3024"
       inkscape:connector-curvature="0"
       sodipodi:nodetypes="ccccscssccsssscsscccccsssssssssssssssssssccscsssssccccc" />
    <path
       style="fill:#ffffff;stroke:#ffffff;stroke-width:1px;stroke-linecap:butt;stroke-linejoin:miter;stroke-opacity:0"
       d="m 168.73214,206.3125 c -2.4675,0.0106 -4.44387,0.0409 -5.78125,0.0625 -2.27311,0.50535 -5.02797,2.80921 -8.4375,6.21875 -1.38921,1.38921 -5.0182,3.5807 -6.34375,4.90625 -2.81705,2.81706 -6.59299,4.593 -8.9375,6.9375 -1.08265,0.50152 -1.65819,1.04543 -2,1.625 2.37094,0.073 5.09615,0.15625 7.03125,0.15625 1.42141,0 3.55012,-0.29523 5.3125,-0.1875 0.002,-0.0125 0.746,0.1954 0.75,0.1875 0.50394,-1.00788 3.14504,-2.64504 4.0625,-3.5625 0.10952,-0.10952 1.82098,-2.17901 2,-2 0.25254,0.25254 -0.49746,0.49746 -0.75,0.75 -0.90931,0.90931 -2.39373,2.67498 -3.25,3.53125 -0.60894,0.60894 -0.21954,0.85823 -0.9375,1.46875 0.0491,0.0212 0.1096,0.0392 0.15625,0.0625 1.6327,0.81635 8.43807,-0.25 10.09375,-0.25 l 2.28125,0 c 0.16836,0 0.5,-0.16836 0.5,0 0,0.0731 -6.54323,0.5 -6.8125,0.5 -0.58094,0 -3.7709,0.11675 -6.625,0.21875 -0.036,0.91454 0.85553,4.42168 1.3125,6.4375 7.15223,-0.18163 18.3561,-0.983 24.96875,0.21875 -0.65354,-2.28254 -1.21875,-4.92788 -1.21875,-7.125 0,-0.34708 -0.49542,-0.78583 -0.25,-1.03125 0.24986,-0.24986 0.76384,0.25 1,0.25 l 3.78125,0 c 0.25254,0 0.75,-0.25253 0.75,0 0,0.48506 -3.4511,0.7011 -3.78125,1.03125 -0.53155,0.53155 0.69675,4.82956 1.25,7.1875 2.38723,-0.0577 5.72005,-0.11406 8.78125,-0.1875 -0.21958,-1.34269 -0.47314,-3.04004 -0.9375,-3.96875 -0.2357,-0.47142 -1.00569,-3.27556 -0.75,-3.53125 1.66744,-1.66744 3.049,-4.33025 4.78125,-6.0625 0.11835,-0.11835 0.4159,-0.46953 0.75,-0.84375 0.14443,-0.36024 0.29189,-0.69814 0.53125,-0.9375 0.0837,-0.0837 0.61705,-0.42368 0.875,-0.625 -0.1167,0.11837 -0.7841,0.86565 -1.40625,1.5625 -0.18781,0.46846 -0.38806,0.98182 -0.75,1.34375 -1.3336,1.3336 -5.64179,5.45197 -3.28125,7.8125 0.21045,0.21045 0.0396,0.8208 0.25,1.03125 0.26836,0.26836 0.26461,2.51461 0.78125,3.03125 0.37643,0.37643 0.35997,0.76896 0.25,1.15625 9.31035,-0.21991 19.13475,-0.43263 19.6875,-0.15625 3.03693,1.51846 7.20387,1 11.125,1 0.12691,0 0.498,-0.0289 0.65625,-0.0312 -0.43196,-2.39573 -1.07264,-5.43362 -0.625,-7.21875 -0.0852,-0.0169 -0.33187,-0.11636 -0.6875,-0.28125 -0.19981,0.16874 -0.40548,0.35899 -0.625,0.46875 -0.25159,0.1258 -2.45499,-0.25 -2.78125,-0.25 -0.28091,0 -1.34071,-0.52565 -1.90625,-0.71875 -0.19788,-0.003 -0.34375,-0.008 -0.34375,-0.0312 0,-0.0739 0.1309,-0.0413 0.34375,0.0312 0.98941,0.0163 3.93618,-0.15696 4.1875,-0.0312 0.50526,0.25263 0.84501,0.40143 1.125,0.53125 0.0704,-0.0595 0.14544,-0.11086 0.21875,-0.15625 -0.46217,-0.35665 -0.87552,-0.70495 0.4375,-0.125 -0.15798,-0.0175 -0.30274,0.0416 -0.4375,0.125 0.22011,0.16986 0.45243,0.33427 0.5,0.40625 0.0516,-0.19802 0.10616,-0.36856 0.1875,-0.53125 1.24546,-2.49092 2.92693,-4.45817 4.78125,-6.3125 0.34204,-0.34203 0.86841,-2.28125 1.28125,-2.28125 0.0586,0 -0.72086,1.37923 -0.78125,1.5 -0.60751,1.21503 -0.91943,2.48193 -1.75,3.3125 -0.85194,0.85194 -2.02701,2.77278 -2.53125,3.78125 -0.0199,0.0399 -0.019,0.16734 -0.0312,0.25 1.9137,0.29952 3.94159,0.25 6.09375,0.25 1.16777,0 2.42331,0.61056 3.15625,0.90625 0.36814,0.0304 0.625,0.0395 0.625,0.0937 0,0.12185 -0.26984,0.0495 -0.625,-0.0937 -0.65882,-0.0544 -1.84905,-0.0765 -3.125,-0.0937 0.0937,0.94716 0.6297,4.21645 0.875,6.28125 5.5207,-0.0948 11.7804,0.0304 13,1.25 0.0974,0.0974 3.75877,0.0143 8.375,-0.0312 -0.28804,-2.58834 -0.9773,-8.5625 -0.5625,-8.5625 0.0156,0 0.16393,2.10912 0.25,2.28125 0.84926,1.69853 0.0576,4.14648 0.75,5.53125 0.0577,0.11539 0.17864,0.44214 0.28125,0.75 2.58706,-0.0231 5.34576,-0.0309 8.125,0 -0.10488,-0.91727 0.0136,-2.86047 0.125,-4.6875 -0.0237,-1.03648 -0.0794,-2.02294 -0.0625,-2.6875 -2.39863,-0.20168 -4.41561,-0.42655 -4.9375,-0.6875 -0.59169,-0.29584 -1.86422,0.38919 -1.75,0.25 -0.0842,-0.4209 -0.25,-0.82077 -0.25,-1.25 0,-0.0553 0.0818,-0.0842 0.21875,-0.0937 0.95865,-0.0667 4.81591,0.84375 5.09375,0.84375 0.55993,0 1.1324,0.0283 1.6875,0.0625 0.002,-0.007 0.0287,0.006 0.0312,0 0.0103,-0.0238 0.0187,-0.0625 0.0312,-0.0625 0.0169,0 0.0516,0.0236 0.0625,0.0625 3.84204,0.25173 7.57916,1.1875 11.5625,1.1875 0.0464,0 0.22223,-3.3e-4 0.28125,0 0.59477,-0.10959 1.20327,-0.19592 1.75,-0.1875 0.0532,-0.2397 0.13305,-0.44555 0.25,-0.5625 0.22612,-0.22611 0.29802,-1.08538 0.375,-1.9375 -0.0414,0.70729 0.125,1.68262 0.125,2.1875 0,0.0573 0.029,0.35224 0.0312,0.4375 0.0729,0.0244 0.15201,0.0291 0.21875,0.0625 0.0556,0.0278 0.15157,0.0696 0.25,0.0937 1.85909,0.0516 3.9371,0.12012 5.6875,0.25 2.82325,-0.0221 5.8625,-0.16027 7.4375,-0.375 l 0,-0.96875 c 0,-0.48285 -0.30728,-2.72396 0,-3.03125 0.38937,-0.38937 1,-2.44181 1,-3.03125 0,-1.30779 0.78125,-2.88097 0.78125,-2.78125 0,0.64343 -0.37537,2.9695 -0.78125,3.78125 -0.34626,0.69253 0.52634,2.75492 0,3.28125 -0.40976,0.40976 -0.53013,1.46109 -0.53125,2.6875 0.23615,-0.0445 0.43295,-0.1071 0.53125,-0.15625 1.54879,-0.7744 7.56437,0.25 9.34375,0.25 2.66508,0 5.28897,-0.0224 7.90625,-0.0625 0.10239,-2.51258 0.38548,-5.03355 1.34375,-7.0625 0.0833,-0.37305 0.18682,-0.64943 0.28125,-0.8125 -0.0557,0.26817 -0.12418,0.49836 -0.1875,0.625 -0.031,0.062 -0.064,0.12449 -0.0937,0.1875 -0.32737,1.46625 -0.52819,4.32048 -0.5625,7.03125 4.55317,-0.0727 9.0622,-0.15625 13.5625,-0.15625 4.84608,0 9.33941,1.03125 13.625,1.03125 0.59513,0 4.03125,0.11918 4.03125,0.5 0,0.11245 -2.46638,-0.25 -4.78125,-0.25 -3.16415,0 -6.18505,0.25 -9.59375,0.25 -2.37983,0 -11.66455,0.0776 -16.84375,-0.28125 0.0193,2.47084 0.19125,4.5975 0.65625,5.0625 0.30094,0.30094 0.2897,0.95217 0.28125,1.5625 3.25554,0.0994 6.53808,0.1875 9.90625,0.1875 1.81393,0 13.47477,-0.57511 13.9375,-0.34375 2.04448,1.02224 5.12852,0.71875 7.5,0.71875 2.06109,0 7.94941,-0.80363 9.90625,0.0625 0.55071,-0.003 1.10472,-6.8e-4 1.65625,0 0.10223,-2.84517 0.39369,-7.60631 0.25,-7.75 -0.52221,-0.52221 -1.20302,-2.39032 -1.5,-3.28125 -0.31311,-0.93935 -0.75,-2.29041 -0.75,-3.28125 0,-0.12527 -0.5648,-2 -0.5,-2 1.05916,0 2.77113,8.83363 3.53125,9.59375 0.33347,0.33347 4.71521,-0.56604 5.03125,-0.25 0.0692,0.0692 -2.5124,1 -4.53125,1 -0.16835,0 -0.5,-0.16836 -0.5,0 0,1.25463 -0.41708,4.29233 -0.21875,5.96875 5.05881,0.0235 10.14637,0.21842 15.25,0.40625 0.46423,-3.27488 1.33068,-6.4949 0.125,-8.90625 -0.0326,-0.0652 -1.40218,-4.03125 -0.78125,-4.03125 0.0297,0 -0.0371,0.71286 0,0.75 0.38734,0.38733 0.69139,1.60153 1.03125,2.28125 0.22765,0.4553 1.33494,3.11618 1.5,3.28125 0.11905,0.11905 0.38095,-0.11905 0.5,0 0.2099,0.2099 -0.46064,0.46064 -0.5,0.5 -0.16443,0.16443 -0.10288,1.48702 -0.25,1.78125 -0.41854,0.83709 -0.22021,3.03452 -0.0937,4.375 2.04943,0.0754 4.10346,0.15348 6.15625,0.21875 -0.008,-1.47109 0.31192,-5.44832 0.71875,-6.84375 -0.36492,0.0349 -0.71,0.04 -0.875,-0.125 -0.0345,-0.0345 -0.10487,-0.0599 -0.15625,-0.0937 -0.22462,-0.0205 -0.90625,-0.0919 -0.90625,-0.0937 0,-0.31333 0.57592,-0.12386 0.90625,0.0937 0.27066,0.0247 0.61423,0.0523 1.09375,0.0937 0.0773,-0.23081 0.138,-0.40625 0.21875,-0.40625 0.15516,0 0.25903,0.1944 0.34375,0.46875 0.39267,1.2716 0.12865,4.99137 0,6.9375 2.23015,0.0654 4.4589,0.10132 6.6875,0.125 0.12368,-1.7608 0.65731,-5.42847 0.71875,-6.34375 -0.15328,-0.1322 -0.30418,-0.25 -0.5,-0.25 -0.34708,0 -0.59581,0.37603 -0.90625,0.53125 -1.06746,0.53373 -4.73598,-0.64223 -5,-0.90625 -0.0231,-0.0231 -0.0648,-0.014 -0.0937,-0.0312 -0.36147,-0.0298 -0.39651,-0.0326 -0.75,-0.0625 0.11285,-0.0105 0.24266,-0.0325 0.34375,-0.0312 0.17482,0.002 0.29516,0.0278 0.40625,0.0937 1.41314,0.11657 2.88768,0.21875 3.125,0.21875 1.86643,0 2.3625,-0.0123 2.875,0.1875 0.16837,-0.0674 0.34652,-0.10811 0.53125,-0.15625 -5.9e-4,-0.001 6.8e-4,-0.0306 0,-0.0312 -0.29049,-0.2905 -0.53125,-1.26448 -0.53125,-1.78125 0,-0.055 -0.49628,-3.40625 -0.375,-3.40625 0.29589,0 0.90625,2.0567 0.90625,2.34375 0,0.45874 0.40375,1.93823 0.6875,2.71875 1.35979,-0.19712 2.97266,-0.0625 4.3125,-0.0625 0.79019,0 1.45558,0.32371 1.875,0.53125 0.25055,-0.0303 0.4375,-0.0328 0.4375,0.1875 0,0.005 -0.26753,-0.1034 -0.4375,-0.1875 -0.35882,0.0434 -0.84081,0.1875 -1.15625,0.1875 -0.39736,0 -2.6909,-0.17017 -3.03125,0 -0.0521,0.026 -1.1879,0.11583 -1.8125,0.15625 -0.0663,0.1262 -0.15625,0.25229 -0.15625,0.375 0,1.84937 -0.11125,3.80693 -0.15625,5.75 0.33318,0.002 0.66687,0 1,0 2.85771,0 10.23653,0.0768 15.03125,0.78125 0.0945,-0.10829 0.22576,-0.20663 0.375,-0.28125 0.0807,-0.0403 2.28899,0.0488 5.4375,0.1875 0.2347,-2.58476 0.77311,-7.35188 -0.4375,-8.5625 -0.36976,-0.36976 -1.61179,-4.125 -1.25,-4.125 0.24464,0 0.0587,0.58999 0.1875,0.71875 0.23809,0.2381 0.10566,0.85566 0.34375,1.09375 1.08979,1.08979 1.29541,3.23291 2.5,4.4375 0.11345,0.11345 -0.93808,5.84317 -0.34375,6.4375 l -0.0312,0.0312 c 3.01412,0.13461 6.60325,0.31104 10.09375,0.46875 0,-0.0794 0.0144,-0.125 0.0937,-0.125 0.0298,0 0.0462,0.006 0.0625,0.0312 0.10484,-1.00563 0.43321,-3.74571 0.46875,-3.78125 0.21875,-0.21875 0.66078,-1.77218 0.375,-2.34375 -0.35772,-0.71544 -1.03816,-1.72566 -1.4375,-2.125 -0.49952,-0.49952 -0.52351,-2.14851 -1.0625,-2.6875 -0.38127,-0.38127 -0.71875,-2.25923 -0.71875,-2.6875 0,-0.0941 -0.029,-0.2275 -0.0625,-0.375 0.085,0.13022 0.19415,0.26331 0.25,0.375 0.35988,0.71976 0.83417,3.52167 1.25,3.9375 0.21049,0.21049 1.59375,2.83917 1.59375,3.03125 0,0.72494 7.15625,0.0339 7.15625,0.71875 0,0.33506 -5.89189,0.0865 -6.09375,0.1875 -0.47666,0.23833 -0.63271,4.88655 -1.0625,5.53125 -0.0829,0.12436 -0.18676,0.22786 -0.28125,0.34375 4.49185,0.20181 8.64909,0.375 10.09375,0.375 1.27834,0 3.63969,-0.32906 4.3125,0.34375 0.0513,0.0513 2.18203,0.0444 4.40625,0.0312 -0.75874,-2.6617 0.59375,-5.71192 0.59375,-7.15625 0,-0.43522 -1.95618,-2.83118 -2.34375,-3.21875 -0.20834,-0.20834 -0.13541,-0.69792 -0.34375,-0.90625 -0.18587,-0.18588 -1.8002,-2.66855 -1.78125,-2.6875 0.25974,-0.25974 2.65625,3.27328 2.65625,3.59375 0,0.71269 2.16587,2.13461 2.6875,2.65625 0.35392,0.35391 -0.35674,2.15098 -0.53125,2.5 -0.50509,1.01016 0.32042,2.73416 -0.1875,3.75 -0.26219,0.52438 -0.29889,0.87862 -0.625,1.46875 2.11553,-0.0131 4.31337,-0.0312 4.75,-0.0312 4.57051,0 9.27644,0.0287 14.03125,0.0625 -0.0789,-1.628 0.6472,-5.9153 0.4375,-6.125 -0.0201,-0.0201 -0.0425,-0.042 -0.0625,-0.0625 -0.33231,0.0487 -0.65625,0.12283 -0.65625,-0.125 0,-0.1305 0.0866,-0.28488 0.15625,-0.4375 -0.0852,-0.10602 -0.16644,-0.2315 -0.25,-0.34375 -0.1527,0.16104 -0.26194,0.45331 -0.4375,0.59375 -0.40414,0.3233 -2.15751,0 -2.5,0 -0.72059,0 -2.23838,-0.21294 -2.875,-0.53125 -0.0215,-0.0108 -0.22047,-0.0607 -0.375,-0.125 -0.40014,-0.0531 -0.6875,-0.13181 -0.6875,-0.21875 0,-0.0787 0.36956,0.0865 0.6875,0.21875 1.48155,0.19678 4.96647,0.1664 6.15625,0 -1.22026,-1.65714 -2.31368,-3.90743 -3.8125,-5.40625 -0.11707,-0.11707 -0.098,-0.62928 -0.1875,-0.71875 -0.60555,-0.60555 -0.73178,-1.79427 -1.25,-2.3125 -0.18823,-0.18823 -0.60995,-0.71875 -0.34375,-0.71875 0.35101,0 0.95841,1.14591 1.25,1.4375 0.83072,0.83072 1.35405,1.91655 2.125,2.6875 0.1668,0.1668 0.2082,0.7082 0.375,0.875 1.18175,1.18175 2.58881,2.17761 3.375,3.75 0.58622,1.17242 -0.0365,4.95736 -0.21875,7.59375 3.61003,0.0267 7.23851,0.0286 10.875,0.0625 0.0589,-2.31729 -0.05,-6.40625 0.25,-6.40625 0.0136,0 -0.77121,-0.61496 -1.59375,-1.4375 -0.96193,-0.96193 -1.8926,-1.51759 -2.875,-2.5 -1.22364,-1.22364 -1.77837,-2.84088 -2.84375,-3.90625 -0.0702,-0.0702 -1.03096,-1.4375 -0.90625,-1.4375 0.1129,0 1.48985,1.6461 1.625,1.78125 0.75802,0.75802 1.31295,1.68794 1.9375,2.3125 0.50524,0.50523 2.20852,1.48978 2.875,2.15625 0.82602,0.82603 1.6736,1.8611 2.5,2.6875 0.23618,0.23618 -0.1875,1.00416 -0.1875,1.25 0,1.75216 -0.17506,3.64533 -0.1875,5.5 3.20773,0.03 6.41595,0.0654 9.59375,0.0937 -0.10887,-0.23805 -0.32821,-0.54295 -0.125,-0.59375 0.11905,-0.0298 0.17262,0.18956 0.1875,0.40625 l 0,-4.6875 c 0,-0.35665 0.16673,-2.17702 0.90625,-1.4375 0.27141,0.27141 -0.1875,1.17226 -0.1875,1.25 0,0.88862 0.47243,3.57261 0,4.28125 -0.18852,0.28277 -0.59866,0.47421 -0.6875,0.78125 2.90228,0.0259 5.89455,0.042 8.71875,0.0625 0.007,-1.15517 0.0378,-5.11846 -0.34375,-5.5 -0.0101,-0.0101 -2.6785,-0.53125 -2.6875,-0.53125 -0.19835,0 -1.12373,0.12627 -1.25,0 -0.0651,-0.0651 -0.1225,-0.26856 -0.15625,-0.34375 0.0616,0.0524 5.32446,-0.0193 5.34375,0 0.23955,0.23955 -0.92076,4.8474 -0.15625,6.375 4.60583,0.0323 9.1003,0.0625 13.34375,0.0625 0.52105,0 1.17135,-0.02 1.875,-0.0625 0.42579,-1.71743 0.89165,-5.5771 0.625,-5.84375 -0.37419,-0.37419 -1.42551,-1.08176 -1.9375,-1.59375 -1.30979,-1.30978 -2.45901,-3.292 -4.125,-4.125 -0.77076,-0.38538 -1.87812,-1.81874 -2.125,-2.3125 -0.0848,-0.16969 -0.99282,-1.0625 -0.90625,-1.0625 0.8407,0 1.37953,1.34828 1.96875,1.9375 2.59423,2.59423 5.29775,4.61025 7.84375,7.15625 0.0577,0.0577 -0.44805,3.65398 -0.625,5.8125 3.91619,-0.27278 9.689,-0.94118 13.6875,-0.6875 -0.0544,-1.76387 -0.1875,-4.33179 -0.1875,-4.59375 0,-0.15247 0.11223,-1.13778 0,-1.25 -0.80019,-0.80019 -1.56016,-1.18515 -2.15625,-1.78125 -0.14568,-0.14567 -0.21522,-0.64921 -0.34375,-0.90625 -0.32214,-0.64428 -1.34071,-1.1532 -1.78125,-1.59375 -1.38067,-1.38067 -3.89226,-4.54717 -4.46875,-4.65625 1.40719,0.28143 4.23003,3.38627 5.15625,4.3125 0.46871,0.4687 0.49343,0.99343 0.90625,1.40625 1.04607,1.04607 2.83037,1.75449 3.5625,3.21875 0.48648,0.97296 -0.54371,2.25633 -0.15625,3.03125 0.33416,0.66829 0.34409,1.93961 0.34375,2.875 1.19882,0.12909 2.17773,0.36676 2.8125,0.75 7.44904,-0.56607 19.08978,-0.31449 21.09375,0.6875 0.14844,-0.77386 0.58584,-3.42085 0.4375,-5.15625 -0.7431,-0.2878 -1.38272,-0.57023 -1.46875,-0.65625 -0.72735,-0.72735 -11.335,0.04 -12.625,-1.25 2.38398,-0.015 8.91113,-0.11241 13,-0.0937 -4.31155,-3.71045 -13.77292,-7.10521 -19.5625,-10 -1.39547,-0.69773 -3.51476,-0.0148 -4.53125,-1.03125 -1.0175,-1.0175 -5.24562,-3.16566 -9.65625,-5.1875 -12.78553,-0.44568 -24.50612,-1.875 -38.34375,-1.875 -5.20827,0 -32.30364,0.0201 -35.34375,-1.5 -0.83791,-0.41895 -13.44414,0.5 -15.65625,0.5 -11.74198,0 -25.40662,-0.5 -36.875,-0.5 -8.45476,0 -35.73737,2.06882 -41.9375,-1.03125 -2.53713,-1.26856 -6.50553,0.2941 -9.09375,-1 -2.14267,-1.07134 -7.64499,0 -10.09375,0 -5.27899,0 -21.56466,-0.68859 -25.25,-2.53125 -2.44735,-1.22368 -7.90282,0.69094 -9.59375,-1 -0.0189,-0.0189 -0.0617,-0.0449 -0.0937,-0.0625 -5.46719,-0.10298 -10.93162,-0.19488 -16.40625,-0.3125 -10.12096,0.1988 -21.21605,0.53395 -21.875,-0.125 -0.10879,-0.10879 -0.2105,-0.21972 -0.28125,-0.34375 -16.54613,-0.95789 -58.00873,-1.1991 -75.28125,-1.125 z m 110.03125,22.5 c -2.52988,0.0198 -4.84893,-0.0441 -5.6875,-0.25 -0.21086,-0.006 -0.27196,0.006 -0.46875,0 0.0501,1.55614 0.33109,6.1902 0.21875,6.875 4.8148,-0.18492 10.66017,0.125 12.875,0.125 0.15602,0 0.31269,-3.6e-4 0.46875,0 0.0712,-1.21326 0.0312,-2.56109 0.0312,-3.8125 l 0,-2.46875 c -0.97617,0.0429 -4.06894,0.43106 -4.53125,-0.0312 -0.17729,-0.17729 -1.41832,-0.3271 -2.90625,-0.4375 z m -8.6875,-0.34375 c -0.66681,0.12286 -1.33074,0.25 -1.8125,0.25 -1.38068,0 -6.16997,-0.21266 -10.03125,-0.53125 -0.0178,0.66593 -0.0624,1.62985 -0.125,2.65625 0.0455,1.98627 0.079,3.89756 0.0625,4.6875 3.68214,0.0438 7.20325,0.15507 9.59375,0.4375 1.12974,-0.25165 2.62064,-0.4153 4.28125,-0.5 -0.0702,-1.22536 -0.25,-2.38374 -0.25,-3.71875 0,-0.77558 -0.12944,-2.24711 0,-3.21875 -0.61663,-0.0223 -1.39325,-0.0607 -1.71875,-0.0625 z M 306.54464,217.125 c -0.0606,0.26795 -0.125,0.57368 -0.125,0.75 0,0.18905 -0.0786,0.99786 -0.1875,1.78125 0.0382,0.32332 0.0719,0.61555 -0.0625,0.75 -0.0146,0.0146 -0.0481,0.0422 -0.0625,0.0625 0.0477,-0.24222 0.0862,-0.53335 0.125,-0.8125 -0.0654,-0.55264 -0.21368,-1.22889 -0.0625,-1.53125 0.0965,-0.19302 0.25789,-0.6253 0.375,-1 z m -33.46875,6.5625 c 0.53239,0 -0.2619,1.02381 -0.5,1.5 -0.0328,0.0656 -0.0744,0.1326 -0.0937,0.21875 0.0897,-0.90612 0.22038,-1.71875 0.59375,-1.71875 z m 139.4375,0.21875 c 0.0475,-0.0292 0.19629,0.35689 0.28125,0.71875 -0.14884,-0.22885 -0.28125,-0.44617 -0.28125,-0.65625 0,-0.0471 -0.01,-0.0565 0,-0.0625 z m -262.84375,3.0625 c -1.63575,0.0625 -3.07638,0.12011 -4.46875,0.1875 0.31116,0.60632 0.59375,2.641 0.59375,3.09375 0,0.55681 0.40367,2.11743 0.375,3 1.48449,0.0904 2.85763,0.1875 3.84375,0.1875 0.43918,0 0.97983,-0.0225 1.46875,-0.0312 -0.0417,-0.12501 -0.0665,-0.25794 -0.125,-0.375 -0.34473,-0.68947 -1.34523,-4.27446 -1.6875,-6.0625 z m -4.65625,0.1875 c -2.19841,0.10785 -3.9513,0.23255 -4.03125,0.3125 -0.20831,0.20831 -2.18394,-0.0839 -4.15625,-0.25 -0.045,0.2439 -0.0967,0.49911 -0.125,0.75 -0.0421,0 -0.0929,-0.0119 -0.125,-0.0312 -0.1098,1.4952 -0.2537,3.5841 -0.21875,5.125 2.28195,-0.23602 5.63638,-0.0601 8.65625,0.125 -0.034,-2.05565 -0.1148,-5.29334 0,-6.03125 z m 75.71875,0.625 c 0.0294,1.63229 0.34047,4.68708 0.65625,6.6875 1.38457,-0.0385 2.95301,-0.0758 5.09375,-0.125 -0.60645,-1.96438 -0.97201,-4.85447 -0.625,-5.375 0.23043,-0.34564 0.48175,-0.65077 0.75,-0.96875 -2.40278,-0.0306 -5.0907,-0.0541 -5.875,-0.21875 z m 78.71875,1.09375 c -3.87069,0.0335 -11.03411,0.36185 -12.75,0.375 0.11754,2.32262 0.63688,4.9925 1.03125,5.78125 0.0854,0.17072 0.11509,0.36567 0.125,0.5625 5.53213,0.0545 11.09908,0.28183 16.78125,0.46875 0.082,-1.51698 -0.25,-3.06654 -0.25,-4.5625 0,-0.68887 0.0157,-1.4098 0.0312,-2.125 -1.21462,-0.10782 -2.20201,-0.226 -2.5625,-0.40625 -0.15959,-0.0798 -1.08934,-0.10516 -2.40625,-0.0937 z m 208.71875,4 c 1.09487,-0.13124 3.37262,0.6345 4.65625,0.84375 -1.86876,0.10772 -5.71062,-0.10188 -5.15625,-0.65625 0.10926,-0.10926 0.28103,-0.16125 0.5,-0.1875 z m 12.0625,0.1875 c 0.29806,-0.0106 0.89861,0.32741 1.34375,0.4375 -0.81767,-0.0295 -1.53125,-0.0746 -1.53125,-0.21875 0,-0.14881 0.0683,-0.21452 0.1875,-0.21875 z m 3.5625,0.3125 c 0.80293,-0.0468 1.56485,-0.0218 1.78125,0.15625 -0.23611,0.001 -1.08896,0 -1.21875,0 -0.31707,0 -1.41223,0.0211 -2.40625,0 0.3456,-0.0108 1.07219,-0.11125 1.84375,-0.15625 z m -10.03125,0.25 c -0.0602,0.16726 -0.37878,0.15257 -0.8125,0.0937 0.36285,-0.025 0.6839,-0.0423 0.8125,-0.0937 z"
       id="path3994"
       inkscape:connector-curvature="0" />
    <path
       style="fill:#241c1c;stroke:#ffffff;stroke-width:1px;stroke-linecap:butt;stroke-linejoin:miter;stroke-opacity:0"
       d="m 180.9241,204.54464 c -1.13901,0.009 -2.18108,0.14983 -2.34375,0.3125 -1.32749,1.3275 -3.50459,1.37959 -5,2.875 -3.44532,3.44532 -7.54257,6.80339 -11.40625,10.40625 -0.12267,0.42213 -0.11308,0.78721 0.3125,1 0.36136,0.18068 1.89813,0.32139 3.28125,0.59375 0.83707,-0.76326 1.60488,-1.54238 2.4375,-2.375 1.06913,-1.06913 2.81676,-2.43284 3.9375,-3.55357 3.85206,-3.85206 6.13629,-4.35057 9.65179,-7.86607 1.38573,-1.38574 1.02782,-1.40785 -0.87054,-1.39286 z"
       id="path4098"
       inkscape:connector-curvature="0"
       sodipodi:nodetypes="ssscscssss" />
    <path
       style="fill:#241c1c;stroke:#ffffff;stroke-width:1px;stroke-linecap:butt;stroke-linejoin:miter;stroke-opacity:0"
       d="m 189.28571,204.14789 c -1.24056,-0.42533 -0.9817,0.66942 -3.92857,2.14286 -1.78416,0.89208 -3.07406,3.07406 -4.64286,4.64286 -1.01615,1.01616 -9.81922,8.03791 -8.57142,9.28571 2.54179,2.5418 16.51825,-11.16111 18.92857,-13.57143 1.78774,-1.78774 0.5149,-2.96012 -1.78572,-2.5 z"
       id="path4100"
       inkscape:connector-curvature="0" />
    <path
       style="fill:#241c1c;stroke:#ffffff;stroke-width:1px;stroke-linecap:butt;stroke-linejoin:miter;stroke-opacity:0"
       d="m 196.78571,204.50503 c -1.62262,-0.55814 -3.65449,1.51164 -6.07143,3.92857 -1.31219,1.3122 -2.12655,4.099 -3.92857,5 -1.24135,0.62068 -5.25054,5.25054 -6.07143,6.07143 -1.45925,1.45926 3.97996,2.09148 4.28572,1.78572 1.01443,-1.01443 2.01873,-3.09016 3.21428,-4.28572 3.95828,-3.95827 7.29608,-6.22464 10.71429,-9.64285 1.443,-1.443 -1.6547,-2.75952 -2.14286,-2.85715 z"
       id="path4115"
       inkscape:connector-curvature="0" />
    <path
       style="fill:#241c1c;stroke:#ffffff;stroke-width:1px;stroke-linecap:butt;stroke-linejoin:miter;stroke-opacity:0"
       d="m 211.99206,205.39927 c -0.51447,-0.24847 -2.14419,0.2961 -4.71371,2.73866 -3.09689,2.94387 -5.26251,7.09308 -8.10785,9.79784 -0.33981,0.32302 -1.92929,2.73546 -1.5095,3.17708 1.23313,1.29721 3.3333,-0.38115 3.95444,-0.97161 2.89635,-2.75324 10.24124,-9.39723 10.37662,-14.74197 z"
       id="path4117"
       inkscape:connector-curvature="0" />
    <path
       style="fill:#241c1c;stroke:#ffffff;stroke-width:1px;stroke-linecap:butt;stroke-linejoin:miter;stroke-opacity:0"
       d="m 218.21429,205.9336 c -1.24941,0.39919 -0.68446,-2.17268 -2.14286,-0.71428 -1.52576,1.52576 -2.90755,3.62184 -5,5.71428 -1.52605,1.52605 -1.27718,3.77718 -2.5,5 -0.60538,0.60539 -1.28503,1.1415 -1.78571,2.14286 -0.18149,0.36296 -3.07478,3.46261 -1.42858,4.28572 0.23876,0.11937 2.69377,0.16337 2.85715,0 3.08324,-3.08324 6.5413,-9.39845 9.28571,-12.14286 0.41901,-0.41901 0.62245,-1.69388 1.07143,-2.14286 0.51204,-0.51204 -0.21513,-1.43278 -0.35714,-2.14286 z"
       id="path4119"
       inkscape:connector-curvature="0" />
    <path
       style="fill:#241c1c;stroke:#ffffff;stroke-width:1.05744517px;stroke-linecap:butt;stroke-linejoin:miter;stroke-opacity:0"
       d="m 232.91557,206.12254 c 0,0 -1.63213,-1.76276 -2.81365,-0.65474 -1.5242,1.4294 -2.31965,3.63911 -4.24947,5.44888 -2.0271,1.90103 -4.06296,3.81026 -6.23618,5.84831 -0.15507,0.14542 -2.75709,3.58099 -2.29118,3.97834 0.15926,0.1358 1.35333,-0.0287 1.59697,-0.0339 0.50778,-0.0108 2.98828,0.29737 3.19392,-0.0678 2.21493,-3.93335 8.89477,-10.95317 10.79959,-14.51906 z"
       id="path4176"
       inkscape:connector-curvature="0"
       sodipodi:nodetypes="cssscssc" />
    <path
       style="fill:#241c1c;stroke:#ffffff;stroke-width:1.05744517px;stroke-linecap:butt;stroke-linejoin:miter;stroke-opacity:0"
       d="m 237.48836,205.93361 c -0.53247,0 -1.08084,-0.1155 -1.59741,0 -0.13723,0.0307 -7.44122,10.94041 -9.98384,13.21428 -0.86889,0.77705 0.66615,2.02431 0.7987,2.14286 1.36759,1.22304 4.28728,-1.33411 4.79225,-1.78571 1.02472,-0.91642 7.80327,-11.46444 7.58772,-11.78572 -0.43855,-0.65365 -1.06495,-1.19048 -1.59742,-1.78571 z"
       id="path4178"
       inkscape:connector-curvature="0" />
    <path
       style="fill:#241c1c;stroke:#ffffff;stroke-width:1.05744517px;stroke-linecap:butt;stroke-linejoin:miter;stroke-opacity:0"
       d="m 244.88327,206.07288 c -3.46437,-0.15676 -5.01251,7.31944 -8.55202,11.33563 -0.22022,0.24985 -2.66449,3.26668 -1.90967,3.79872 0.65128,0.45906 2.85983,0.42679 3.21962,0.0185 2.96867,-3.36845 4.68156,-9.39174 7.92054,-13.06692 0.50122,-0.56873 -0.42737,-1.39753 -0.67847,-2.08596 z"
       id="path4193"
       inkscape:connector-curvature="0" />
    <path
       style="fill:#241c1c;stroke:#ffffff;stroke-width:1px;stroke-linecap:butt;stroke-linejoin:miter;stroke-opacity:0"
       d="m 255.35714,208.07647 c 1.89386,-1.19706 2.75397,-1.17461 3.92857,0 0.28083,0.28083 -7.48657,13.20757 -8.21428,13.57143 -0.45267,0.22633 -1.62565,0 -2.14286,0 -0.21794,0 -1.28941,0.13915 -1.42857,0 -0.15809,-0.1581 3.28256,-6.85399 3.57143,-7.14286 1.7133,-1.7133 2.69774,-3.78196 4.28571,-6.42857 z"
       id="path4247"
       inkscape:connector-curvature="0" />
    <path
       style="fill:#241c1c;stroke:#ffffff;stroke-width:1px;stroke-linecap:butt;stroke-linejoin:miter;stroke-opacity:0"
       d="m 262.14285,207.36218 c 0.4762,-0.11904 1.30953,-0.83333 1.42858,-0.35714 0.11904,0.47619 -1.77566,0.70422 -1.42858,0.35714 2.45624,-2.45624 4.69826,1.01604 3.21429,2.5 -2.18664,2.18665 -3.91669,7.48812 -6.42857,10 -0.41667,0.41667 -0.29762,1.36905 -0.71429,1.78572 -0.29762,0.29762 -1.48809,-0.29762 -1.78571,0 -0.51204,0.51204 -2.14286,1.08128 -2.14286,0.35714 0,-1.54419 2.43956,-4.93956 3.21429,-5.71428 0.97787,-0.97788 0.60089,-3.45804 1.78571,-4.64286 0.94875,-0.94875 1.59117,-2.70325 2.85714,-4.28572 z"
       id="path4262"
       inkscape:connector-curvature="0" />
    <path
       style="fill:#241c1c;stroke:#ffffff;stroke-width:1.06017804px;stroke-linecap:butt;stroke-linejoin:miter;stroke-opacity:0"
       d="m 273.46496,208.10609 c -2.79652,-0.38701 -3.40102,7.73042 -5.3723,12.04869 -0.17707,0.38789 -1.25189,2.27142 -0.76746,2.802 0.29846,0.32692 0.98065,0.23351 1.27911,0.56041 0.48615,0.53248 1.35909,0.28021 2.0466,0.28021 0.37238,0 0.73927,-2.46006 1.02329,-3.08221 0.44126,-0.96664 3.83735,-11.95475 3.83735,-12.32888 0,-0.4177 -0.24198,-0.82545 -0.51165,-1.12081 -0.40448,-0.44304 -1.04442,0.51825 -1.53494,0.84059 z"
       id="path4264"
       inkscape:connector-curvature="0" />
    <path
       style="fill:#241c1c;stroke:#ffffff;stroke-width:1.06017804px;stroke-linecap:butt;stroke-linejoin:miter;stroke-opacity:0"
       d="m 280.62803,208.10609 c -0.7476,0.1373 -1.69948,0.74064 -2.04659,1.12082 -0.63057,0.69066 -4.349,11.20197 -4.349,11.76847 0,0.5898 -1.04928,2.21316 -0.51165,2.80202 0.7005,0.76725 2.2705,-0.87556 2.81406,-0.28021 0.0399,0.0438 0.44631,0.63198 0.76747,0.28021 0.63528,-0.69584 5.11647,-13.24174 5.11647,-13.72989 0,-0.44314 0.72976,-2.28292 0.25583,-2.80201 -0.49756,-0.54497 -1.99699,0.79986 -2.04659,0.84059 z"
       id="path4266"
       inkscape:connector-curvature="0" />
    <path
       style="fill:#241c1c;stroke:#ffffff;stroke-width:1.06150877px;stroke-linecap:butt;stroke-linejoin:miter;stroke-opacity:0"
       d="m 286.00032,208.67003 c -2.28594,1.33919 -1.41055,5.76244 -2.81406,7.30354 -0.1709,0.18767 -1.8845,8.32423 -1.79076,8.42717 0.15449,0.16963 1.29234,0 1.53495,0 0.52769,0 0.92245,0.39162 1.27911,0 0.83144,-0.91295 0.38196,-3.08607 1.0233,-4.49449 0.83404,-1.83164 3.43188,-10.83872 2.81406,-11.51713 -0.48615,-0.5338 -1.37244,0.13285 -2.0466,0.28091 z"
       id="path4268"
       inkscape:connector-curvature="0" />
    <path
       style="fill:#241c1c;stroke:#ffffff;stroke-width:1.10031724px;stroke-linecap:butt;stroke-linejoin:miter;stroke-opacity:0"
       d="m 297.51941,210.17628 c -0.29779,-0.39917 -2.01591,1.42399 -2.01591,3.75358 0,1.39258 -0.57598,2.65666 -0.57598,4.02169 0,1.5127 -1.15194,3.28801 -1.15194,4.82602 0,0.96649 -0.70983,2.2884 0,2.94923 0.16673,0.15523 2.87986,-0.11649 2.87986,0 0,0.34207 -0.16588,-0.91801 0,-1.07245 0.36803,-0.34262 1.15196,-3.31059 1.15196,-4.02168 0,-2.23358 6.99523,-14.52472 -0.28799,-10.45639 z"
       id="path4283"
       inkscape:connector-curvature="0" />
    <path
       style="fill:#241c1c;stroke:#ffffff;stroke-width:1.10031724px;stroke-linecap:butt;stroke-linejoin:miter;stroke-opacity:0"
       d="m 304.14312,210.4444 c -0.79215,0.10976 -2.30391,0.60041 -2.30391,3.48547 0,2.2781 -2.35627,11.48004 -2.01589,11.79693 0.44286,0.41231 3.16786,0.0381 3.16786,-0.53621 0,-2.66392 1.14264,-10.17098 2.30389,-12.33317 0.197,-0.3668 0.95395,-2.06113 0.57597,-2.41302 -0.40727,-0.37916 -1.15195,0 -1.72792,0 z"
       id="path4285"
       inkscape:connector-curvature="0" />
    <path
       style="fill:#241c1c;stroke:#ffffff;stroke-width:1.16778791px;stroke-linecap:butt;stroke-linejoin:miter;stroke-opacity:0"
       d="m 312.50118,210.78577 c 0.11635,-0.16417 -0.89126,0.003 -1.77906,1.75995 -0.6454,1.27694 -1.46232,13.80617 -1.18602,14.07951 0.30049,0.29727 2.49292,0 2.96508,0 0.12209,0 0.81103,0.0776 0.8895,0 0.39861,-0.39432 0.88954,-8.6316 0.88954,-9.97299 0,-1.04994 0.10709,-6.62627 -0.59302,-6.45312 -0.42881,0.10605 -0.79068,0.39111 -1.18602,0.58665 z"
       id="path4287"
       inkscape:connector-curvature="0" />
    <path
       style="fill:#241c1c;stroke:#ffffff;stroke-width:1.16778791px;stroke-linecap:butt;stroke-linejoin:miter;stroke-opacity:0"
       d="m 319.02433,210.78576 c -0.32681,-0.0226 -1.48254,0.44944 -1.48254,3.81321 0,1.67709 -0.59301,3.30851 -0.59301,4.9865 0,1.00487 -0.29651,1.63503 -0.29651,2.63991 0,2.63577 -1.004,3.8132 1.77905,3.8132 0.50396,0 1.12618,0.64585 1.48253,0.29333 0.45762,-0.45271 0.68121,-14.90714 0.59302,-14.9595 -0.4564,-0.27089 -0.98835,-0.39109 -1.48254,-0.58665 z"
       id="path4289"
       inkscape:connector-curvature="0" />
    <path
       style="fill:#241c1c;stroke:#ffffff;stroke-width:1.16778791px;stroke-linecap:butt;stroke-linejoin:miter;stroke-opacity:0"
       d="m 326.73352,210.49245 c -0.17266,-0.12945 -1.31111,-0.46291 -2.66857,0.87996 -0.17905,0.17714 0,1.48178 0,1.75995 0,3.28401 -0.593,7.00669 -0.593,10.2663 0,0.42014 -0.2703,2.37252 0,2.63992 0.19767,0.19555 0.39533,0.39111 0.593,0.58664 0.0785,0.0777 0.76744,0 0.88953,0 2.22072,0 1.36396,-1.05599 2.37205,-2.05326 1.14329,-1.13101 -0.009,-12.63618 -0.59301,-14.07951 z"
       id="path4291"
       inkscape:connector-curvature="0" />
    <path
       style="fill:#241c1c;stroke:#ffffff;stroke-width:1.21178567px;stroke-linecap:butt;stroke-linejoin:miter;stroke-opacity:0"
       d="m 336.79543,211.62511 c -0.42564,0.19558 -1.0641,0.97787 -1.27693,0.58673 -0.21281,-0.39115 1.48975,-0.97788 1.27693,-0.58673 -0.48603,0.89328 -1.73591,1.43032 -2.2346,2.34689 -0.73575,1.35229 1.27691,7.08017 1.27691,9.09425 0,0.23135 0.17569,1.62827 0.31923,1.76017 1.47936,1.3595 3.97784,1.17345 3.51151,1.17345 -0.2556,0 -0.31924,-3.89629 -0.31924,-4.40043 0,-2.44797 -0.95768,-5.43332 -0.95768,-7.62744 0,-0.19838 0.14282,-1.36181 0,-1.46681 -0.4845,-0.3562 -1.0641,-0.58672 -1.59613,-0.88008 z"
       id="path4306"
       inkscape:connector-curvature="0" />
    <path
       style="fill:#241c1c;stroke:#ffffff;stroke-width:1.21178567px;stroke-linecap:butt;stroke-linejoin:miter;stroke-opacity:0"
       d="m 342.16984,212.79856 c -4.06081,-0.73896 -2.73272,5.83183 -0.31924,10.26769 0.75091,1.3801 -0.0866,2.56066 0.9577,3.52035 0.15947,0.14655 3.35696,0.43538 3.51151,0.29335 0.54895,-0.50447 -0.7591,-1.9819 -0.9577,-2.34689 -0.21282,-0.39116 0.21282,-1.07566 0,-1.46681 -1.90985,-3.51021 0.30898,-7.85452 -3.19227,-10.26769 z"
       id="path4308"
       inkscape:connector-curvature="0" />
    <path
       style="fill:#241c1c;stroke:#ffffff;stroke-width:1px;stroke-linecap:butt;stroke-linejoin:miter;stroke-opacity:0"
       d="m 353.38007,214.33657 c -3.38666,-0.17661 -1.51523,1.29416 -1.51523,3.28299 0,1.64175 1.44751,7.76096 2.02031,8.33376 0.24402,0.24402 1.95404,-0.53821 2.52538,-0.25254 0.26236,0.13118 1.69051,0.58234 2.02031,0.25254 0.0501,-0.0501 -0.80454,-1.8616 -1.01016,-2.27284 -1.39593,-2.79187 -0.3884,-7.96454 -2.27284,-9.84899 -0.43334,-0.43334 -1.19876,0.27748 -1.76777,0.50508 z"
       id="path4310"
       inkscape:connector-curvature="0" />
    <path
       style="fill:#241c1c;stroke:#ffffff;stroke-width:1px;stroke-linecap:butt;stroke-linejoin:miter;stroke-opacity:0"
       d="m 360.95622,214.08403 c -0.33672,-0.0842 -1.09433,0.0842 -1.01015,-0.25254 0.0842,-0.33671 1.35723,0.25254 1.01015,0.25254 -0.67868,0 -1.54041,-0.73243 -2.02031,-0.25254 -0.68306,0.68306 0.85497,11.96664 1.26269,12.37437 0.12516,0.12516 1.74007,-0.50508 1.76777,-0.50508 0.44252,0 2.4963,0.28162 2.77792,0 0.2988,-0.29879 -1.55249,-3.61006 -1.76777,-4.04061 -1.30057,-2.60115 0.21482,-4.78223 -2.0203,-7.57614 z"
       id="path4312"
       inkscape:connector-curvature="0" />
    <path
       style="fill:#241c1c;stroke:#ffffff;stroke-width:1px;stroke-linecap:butt;stroke-linejoin:miter;stroke-opacity:0"
       d="m 367.26967,213.32642 c -0.80294,0.0469 -2.08759,-0.18525 -2.52538,0.25253 -0.233,0.233 0.50508,2.41935 0.50508,2.77792 0,1.39349 -0.28046,4.99494 0.25253,6.06092 0.38504,0.77008 0.5158,2.03102 1.01016,2.52538 0.60947,0.60948 1.4127,0 2.0203,0 1.21639,0 2.11324,0.25254 2.02031,0.25254 -0.25173,0 -1.24998,-4.25502 -1.51523,-5.05076 -0.28902,-0.86705 -0.28638,-1.83544 -0.75762,-2.77792 -0.63126,-1.26253 -0.26968,-2.55968 -1.01015,-4.04061 z"
       id="path4314"
       inkscape:connector-curvature="0" />
    <path
       style="fill:#241c1c;stroke:#ffffff;stroke-width:1px;stroke-linecap:butt;stroke-linejoin:miter;stroke-opacity:0"
       d="m 378.38135,213.32642 c -0.33672,-0.0842 -1.09434,0.0842 -1.01016,-0.25254 0.0842,-0.33671 1.25558,0.007 1.01016,0.25254 -0.50508,0.50508 -2.27285,-0.25254 -2.77792,0.25254 -0.22517,0.22517 1.00256,3.52035 1.26269,4.04061 0.75975,1.5195 0.91994,6.47578 1.76776,7.3236 0.24318,0.24318 3.78362,-0.004 3.03046,-0.75761 -1.45304,-1.45305 -1.74063,-8.28853 -3.28299,-10.85914 z"
       id="path4316"
       inkscape:connector-curvature="0" />
    <path
       style="fill:#241c1c;stroke:#ffffff;stroke-width:1px;stroke-linecap:butt;stroke-linejoin:miter;stroke-opacity:0"
       d="m 382.92703,213.57895 c -0.33672,-0.0842 -1.09433,0.0842 -1.01015,-0.25253 0.0842,-0.33672 1.25557,0.007 1.01015,0.25253 -0.46299,0.46299 -2.31493,-0.46298 -2.77792,0 -0.23833,0.23834 2.91331,11.75214 3.03046,11.8693 0.23704,0.23704 0.63415,-0.19081 0.75761,-0.25254 0.58593,-0.29296 2.3326,0.44532 2.77792,0 0.0713,-0.0713 -2.27284,-5.32863 -2.27284,-7.57615 0,-1.52754 -0.678,-2.64522 -1.51523,-4.04061 z"
       id="path4318"
       inkscape:connector-curvature="0" />
    <path
       style="fill:#241c1c;stroke:#ffffff;stroke-width:1px;stroke-linecap:butt;stroke-linejoin:miter;stroke-opacity:0"
       d="m 392.52349,213.32641 c 0.1391,-0.0451 -0.90647,-0.60876 -2.02031,0.50508 -0.47665,0.47665 2.53608,7.3343 3.03046,7.82868 0.4661,0.46609 0.27698,2.04474 0.75762,2.52538 0.19023,0.19023 3.28299,-0.1427 3.28299,0 0,0.0654 -0.85828,-0.95894 -1.01015,-1.26269 -0.7502,-1.50039 -0.79288,-2.59592 -1.51523,-4.04061 -0.86925,-1.7385 -0.51118,-3.94448 -2.52538,-5.55584 z"
       id="path4320"
       inkscape:connector-curvature="0" />
    <path
       style="fill:#241c1c;stroke:#ffffff;stroke-width:1px;stroke-linecap:butt;stroke-linejoin:miter;stroke-opacity:0"
       d="m 398.5844,213.83149 c -0.33672,-0.0842 -1.09433,0.0842 -1.01015,-0.25254 0.0842,-0.33671 1.35723,0.25254 1.01015,0.25254 -0.2392,0 -3.53553,-0.67705 -3.53553,0.25254 0,0.78344 2.05602,3.39017 2.52538,4.79823 0.51507,1.54521 1.70882,5.49689 2.52538,6.31345 4.60718,0.1375 3.52555,-0.14533 2.0203,-3.78807 -1.85865,-3.71731 -0.16008,-4.2007 -3.53553,-7.57615 z"
       id="path4322"
       inkscape:connector-curvature="0"
       sodipodi:nodetypes="ccsssccc" />
    <path
       style="fill:#241c1c;stroke:#ffffff;stroke-width:1px;stroke-linecap:butt;stroke-linejoin:miter;stroke-opacity:0"
       d="m 404.89786,214.08403 c -0.33672,0 -1.01016,0.33672 -1.01016,0 0,-0.33672 1.34687,0 1.01016,0 -0.52113,0 -2.85179,-0.17867 -3.283,0.25254 -0.20271,0.20271 1.10533,2.36802 1.26269,2.52538 1.13725,1.13725 0.91681,3.69472 2.02031,4.79822 0.7011,0.70111 0.67434,1.6845 1.26269,2.27285 0.0404,0.0404 1.08977,1.26269 1.01015,1.26269 -0.29593,0 3.78807,-0.002 3.78807,0 0,0.25471 -1.37858,-0.9894 -2.0203,-2.27285 -0.84034,-1.68068 -1.13205,-4.1625 -2.27285,-5.3033 -0.0622,-0.0622 -1.61439,-3.27991 -1.76776,-3.53553 z"
       id="path4352"
       inkscape:connector-curvature="0" />
    <path
       style="fill:#241c1c;stroke:#ffffff;stroke-width:1px;stroke-linecap:butt;stroke-linejoin:miter;stroke-opacity:0"
       d="m 413.95857,213.02876 c -2.92297,0.074 -3.02974,1.10724 -0.57575,5.11852 0.6007,0.98189 1.14853,2.36828 1.76815,2.89019 0.68204,0.5745 1.3847,3.50113 2.12745,4.12676 0.55589,0.46824 4.43892,-0.9306 2.84713,-2.27138 -0.0954,-0.0804 -3.30306,-6.01668 -3.30622,-6.05356 -0.16012,-1.87078 -1.4199,-2.59686 -2.86076,-3.81053 z"
       id="path4367"
       inkscape:connector-curvature="0" />
    <path
       style="fill:#241c1c;stroke:#ffffff;stroke-width:1px;stroke-linecap:butt;stroke-linejoin:miter;stroke-opacity:0"
       d="m 417.31575,213.75527 c 0.77015,0.0779 0.49442,-1.62646 2.19994,-0.94869 1.36881,0.54397 4.601,4.70734 5.61386,6.36296 0.61854,1.01107 0.69738,2.0056 1.26491,2.93327 0.24122,0.39429 1.37836,2.24422 1.22184,2.43004 -0.15339,0.1821 -0.85308,-0.096 -1.00647,0.0861 -0.54112,0.64242 -2.78603,0.68851 -3.27104,0.27998 -0.65218,-0.54934 -1.50519,-3.60261 -2.12744,-4.12676 -1.91766,-1.61525 -2.52588,-4.29278 -3.8956,-7.01694 z"
       id="path4408"
       inkscape:connector-curvature="0" />
    <path
       style="fill:#241c1c;stroke:#ffffff;stroke-width:1px;stroke-linecap:butt;stroke-linejoin:miter;stroke-opacity:0"
       d="m 429.14151,213.57895 c 0.33672,-0.0842 0.92598,-0.58926 1.01016,-0.25254 0.0842,0.33672 -1.25558,0.49796 -1.01016,0.25254 0.0927,-0.0927 2.29835,-1.23719 2.77792,-0.75762 0.87452,0.87452 2.14751,1.13736 3.03046,2.02031 1.66401,1.66401 3.02754,4.28731 4.29315,6.81853 0.21233,0.42467 2.10684,2.43885 1.51523,3.03046 -0.33399,0.33399 -2.51478,0.88918 -2.77792,0.75761 -1.31432,-0.65716 -2.70078,-4.46854 -4.04061,-5.80838 -1.85403,-1.85403 -3.71644,-3.35644 -4.79823,-6.06091 z"
       id="path4436"
       inkscape:connector-curvature="0" />
    <path
       style="fill:#c83737;fill-opacity:1;stroke:#ffffff;stroke-width:1px;stroke-linecap:butt;stroke-linejoin:miter;stroke-opacity:0"
       d="m 422.32143,221.11218 c 0.36615,2.71659 -5.05252,7.80463 -6.07143,6.78572 -0.80214,-0.80214 -1.63944,-1.63944 -2.32143,-2.32143 -0.2292,-0.2292 -0.18547,-0.72119 -0.35714,-0.89286 -0.74636,-0.74636 -1.16702,-1.70273 -2.14286,-2.67857 -0.44912,-0.44912 -1.45633,-0.74205 -1.96429,-1.25 -0.14881,-0.14881 -0.56547,-0.0298 -0.71428,-0.17857 -0.93517,-0.93517 -3.09264,-1.12836 -4.10714,-2.14286 -0.43226,-0.43225 -3.22811,-0.37096 -3.75,-0.89286 -0.2245,-0.22449 -0.50479,-0.68335 -0.71429,-0.89285 -1.15107,-1.15107 3.00386,-5.03186 5,-3.03572 0.14881,0.14881 0.74405,-0.14881 0.89286,0 0.88149,0.8815 4.02264,0.62978 4.82143,1.42857 0.47619,0.47619 1.30952,0.59524 1.78571,1.07143 0.21045,0.21045 0.71429,0.83333 0.71429,0.53572 0,-0.4306 -4.68491,-3.88653 -3.21429,-5.35715 0.52541,-0.52541 1.61262,-0.53571 2.5,-0.53571 2.79556,0 3.87924,1.37924 5.35714,2.85714 0.38013,0.38012 0.54819,1.44105 0.89286,1.78572 0.2373,0.2373 0.29336,1.54336 0.71429,1.96428 0.22898,0.22898 -0.0356,-2.82151 0,-2.85714 0.21523,-0.21523 0.1694,-0.69596 0.35714,-1.07143 0.84947,-1.69894 2.33418,-3.39286 4.28571,-3.39286 0.87916,0 1.99079,0.053 2.32143,0.71429 0.5918,1.18359 0.42177,5.11395 -0.35714,5.89286 -0.40287,0.40287 -0.21255,1.60714 -0.35714,1.60714 -0.119,0 1.05866,-1.58162 1.07142,-1.60714 0.65812,-1.31624 3.18861,-4.13283 4.28572,-3.03572 0.17613,0.17613 0.0484,0.76272 0.17857,0.89286 0.24585,0.24584 0.17857,0.75317 0.17857,1.25 0,3.49345 -3.61989,5.22703 -5.53571,7.14286 -1.12016,1.12015 -3.55364,-1.81845 -3.75,-1.78572 -0.29939,0.0499 -0.0428,0.62139 -0.17857,0.89286 -0.096,0.19196 -0.35715,0.23809 -0.53572,0.35714"
       id="path5927"
       inkscape:connector-curvature="0" />
    <path
       style="fill:#241c1c;stroke:#ffffff;stroke-width:1px;stroke-linecap:butt;stroke-linejoin:miter;stroke-opacity:0"
       d="m 436.46512,213.83149 c 2.6956,-1.84072 3.31062,0.28016 6.06092,3.03045 0.37497,0.37498 0.38264,1.3928 0.75761,1.76777 1.03544,1.03544 2.08647,2.65772 2.77792,4.04061 0.23758,0.47517 1.69526,2.34535 1.51523,2.52538 -0.23021,0.23022 -1.91112,0 -2.27284,0 -0.39625,0 -1.42544,0.59488 -1.76777,0.25254 -0.56217,-0.56217 -6.81853,-9.1699 -6.81853,-9.34391 0,-0.4209 -0.84016,-0.59743 -0.75761,-1.01015 0.0889,-0.44452 0.33671,-0.8418 0.50507,-1.26269 z"
       id="path4438"
       inkscape:connector-curvature="0" />
    <path
       style="fill:#241c1c;stroke:#ffffff;stroke-width:1px;stroke-linecap:butt;stroke-linejoin:miter;stroke-opacity:0"
       d="m 442.32438,214.56545 c 4.29035,-3.49713 4.94788,1.1632 7.99522,3.97443 0.56308,0.51947 0.84226,1.74883 1.35318,2.22016 0.35847,0.33069 0.46971,1.40513 0.82818,1.73583 0.12703,0.11719 1.69056,2.1178 1.36336,2.47248 -0.1513,0.16402 -3.1352,0.752 -3.25999,0.63687 -1.90437,-2.49824 -6.15855,-8.67656 -8.27995,-11.03977 z"
       id="path4453"
       inkscape:connector-curvature="0"
       sodipodi:nodetypes="ccssccc" />
    <path
       style="fill:#241c1c;fill-opacity:1;stroke:#ffffff;stroke-width:1px;stroke-linecap:butt;stroke-linejoin:miter;stroke-opacity:0"
       d="m 463.57142,213.43361 c 0.52717,0.10614 3.77573,3.24002 5.71429,5.17857 1.12257,1.12257 2.02082,2.79613 3.21428,3.39286 0.61574,0.30787 2.51999,1.8057 2.85715,2.14286 0.0487,0.0487 1.27014,0.33699 0.89285,0.71428 -0.26902,0.26902 -2.06032,0 -2.5,0 -1.18685,0 -3.05024,0.2606 -3.92857,-0.17857 -0.97934,-0.48967 -2.90666,-4.2932 -3.92857,-5.17857 -1.73278,-1.50127 -5.98978,-4.91836 -5.17857,-5.71428 -0.76299,-0.763 1.38679,-1.53343 2.85714,-0.35715 z"
       id="path4483"
       inkscape:connector-curvature="0"
       sodipodi:nodetypes="cssssssscc" />
    <path
       style="fill:#241c1c;fill-opacity:1;stroke:#ffffff;stroke-width:1.08090687px;stroke-linecap:butt;stroke-linejoin:miter;stroke-opacity:0"
       d="m 455.59764,214.67252 c -0.30234,0.48689 1.02709,-1.14725 1.77718,-0.92221 2.70875,0.81269 7.18566,6.03854 9.08658,8.63873 0.3979,0.54428 1.74798,1.65932 1.56713,2.28943 -0.22059,0.76857 -3.56532,0.82837 -3.97909,0.53447 -2.40599,-1.70896 -3.97888,-4.67465 -6.13669,-6.20732 -0.92676,-0.65829 -1.46692,-2.55433 -2.29994,-3.14604 -0.31787,-0.22577 -0.0226,-0.79141 -0.0152,-1.18706 z"
       id="path4496"
       inkscape:connector-curvature="0" />
    <path
       style="fill:#241c1c;fill-opacity:1;stroke:#ffffff;stroke-width:1.06647372px;stroke-linecap:butt;stroke-linejoin:miter;stroke-opacity:0"
       d="m 476.64174,215.15057 c 0.25688,0.18825 0.96328,0.31376 0.77063,0.56475 -0.19266,0.25101 -0.91423,-0.84538 -0.77063,-0.56475 0.23233,0.45404 3.01635,3.07385 3.66047,3.38854 0.86023,0.42029 0.97334,1.89236 1.54125,2.44729 0.7076,0.69143 1.32152,1.29131 1.92657,1.88253 0.46231,0.45174 0.39161,1.13566 0.77062,1.50602 1.27212,1.24303 2.42459,0.753 4.43109,0.753 0.39634,0 1.92438,0.37865 1.92657,0.37652 0.0391,-0.0382 0.0391,-0.90311 0,-0.94127 -1.36999,-1.33867 -2.35823,-2.86908 -3.85313,-4.32981 -0.93366,-0.91231 -2.896,-2.16792 -4.23843,-2.82378 -1.12237,-0.54836 -1.0346,-1.57571 -1.73391,-2.25904 -0.45853,-0.44804 -1.40403,-0.80718 -1.92657,-1.31777 -0.74464,-0.72762 -2.20271,1.08183 -2.50453,1.31777 z"
       id="path4511"
       inkscape:connector-curvature="0" />
    <path
       style="fill:#241c1c;fill-opacity:1;stroke:#ffffff;stroke-width:1.06647372px;stroke-linecap:butt;stroke-linejoin:miter;stroke-opacity:0"
       d="m 483.57738,215.71532 c 2.12287,1.0394 3.74268,2.85017 5.00905,4.70631 0.34496,0.50562 1.05609,0.89249 1.54125,1.12952 0.91899,0.44899 1.879,2.0243 2.31188,2.44729 0.59005,0.57655 0.45258,1.35063 1.54125,1.88253 0.35355,0.17272 5.20172,-0.15677 5.20172,0 0,0.19843 -0.39632,-0.0995 -0.57796,-0.18826 -1.53963,-0.75222 -2.81855,-2.56587 -3.85313,-3.57679 -0.38251,-0.37377 -1.29875,-0.3278 -1.7339,-0.75302 -0.67868,-0.66316 -1.65796,-1.92234 -2.11923,-2.82379 -0.20816,-0.40679 -4.43873,-3.96077 -4.81641,-4.32981 -1.073,-1.04847 -2.50452,0.41525 -2.50452,1.50602 z"
       id="path4526"
       inkscape:connector-curvature="0" />
    <path
       style="fill:#241c1c;fill-opacity:1;stroke:#ffffff;stroke-width:1.06647372px;stroke-linecap:butt;stroke-linejoin:miter;stroke-opacity:0"
       d="m 490.32035,216.46834 c 1.75282,1.37048 3.23003,3.36651 4.8164,4.14156 1.05893,0.51736 1.70069,2.22658 2.31188,2.82379 0.75855,0.74122 2.18141,1.0628 2.69719,2.07078 0.13451,0.26288 0.62016,0.60598 0.77062,0.75301 0.0159,0.0155 4.28521,0.29469 5.03245,0.0893 1.51786,-0.41723 0.0718,-0.93756 -0.0234,-1.03055 -1.12571,-1.09998 -3.16219,-1.47351 -3.85313,-2.82379 -0.13968,-0.27298 -0.776,-0.38176 -0.96327,-0.56477 -1.11995,-1.09433 -2.16658,-2.11704 -3.46782,-3.38854 -1.24524,-1.21677 -3.45592,-2.43567 -4.43109,-3.38855 -0.1308,-0.1278 -2.05861,-0.81223 -2.31188,-0.56475 -0.41172,0.4023 -0.57796,0.97655 -0.57796,1.88252 z"
       id="path4528"
       inkscape:connector-curvature="0"
       sodipodi:nodetypes="cssccscccscsc" />
    <path
       style="fill:#241c1c;fill-opacity:1;stroke:#ffffff;stroke-width:1px;stroke-linecap:butt;stroke-linejoin:miter;stroke-opacity:0"
       d="m 500.79464,216.03125 c -0.18858,0.0202 -0.32662,0.0619 -0.4375,0.125 -0.0408,0.0232 -0.0884,0.0602 -0.125,0.0937 0.0175,-0.0227 0.048,-0.0425 0.0312,-0.0625 -0.0878,-0.10485 -0.20522,0.13473 -0.3125,0.25 -0.0123,0.003 -0.0183,0.0306 -0.0312,0.0312 -0.15457,1.06741 0.99795,1.49929 1.625,2.0625 1.54595,1.38857 3.78319,2.11105 5.46875,3.625 0.38877,0.3492 0.96737,0.35261 1.375,0.71875 1.29513,1.16328 2.68473,2.4984 3.9375,3.625 -0.0103,0.10234 -0.006,0.18108 0.0312,0.21875 0.45558,0.45558 2.86227,0.125 3.65625,0.125 0.21825,0 2.15625,0.27402 2.15625,0 0,-0.0587 -0.8709,-0.64203 -1.78125,-1.21875 0.01,-0.01 0.0216,-0.0205 0.0312,-0.0312 0.44415,-0.49449 -2.24652,-1.94825 -2.4375,-2.03125 -0.92242,-0.40099 -1.73252,-0.76985 -2.40625,-1.375 -0.13949,-0.12528 -0.48552,-0.12472 -0.625,-0.25 -0.98713,-0.88663 -2.36931,-1.09351 -3.34375,-1.96875 -0.3127,-0.28086 -1.04225,-0.23236 -1.375,-0.53125 -0.38255,-0.34359 -0.96147,-0.53482 -1.375,-0.90625 l -2.4375,-2.21875 c -0.24764,-0.22244 -1.05925,-0.34195 -1.625,-0.28125 z"
       id="path4588"
       inkscape:connector-curvature="0" />
    <path
       style="fill:#241c1c;fill-opacity:1;stroke:#ffffff;stroke-width:1px;stroke-linecap:butt;stroke-linejoin:miter;stroke-opacity:0"
       d="m 156.27406,217.8721 c -0.92829,-0.68952 -3.22693,0.30861 -3.91434,-0.37881 -0.33112,-0.33111 2.40232,-2.65485 2.77792,-3.03045 1.688,-1.688 4.15267,-3.2688 5.80837,-4.9245 0.5753,-0.57529 2.16379,-1.15363 2.90419,-1.89403 0.45369,-0.45369 1.35989,-0.34974 1.76777,-0.75762 0.12842,-0.12842 0.21727,-0.36117 0.50508,-0.50507 0.32454,-0.16228 1.81724,-1.71829 2.39911,-1.13643 0.1894,0.18941 0.1894,0.56822 0.3788,0.75762 0.0941,0.0941 0.63135,0.31729 0.63135,0.37881 0,0.31641 -1.47851,1.0997 -1.89404,1.51522 -1.17265,1.17266 -2.64715,2.5209 -3.6618,3.53554 -0.77111,0.77111 -1.85305,1.09544 -2.65165,1.89403 -0.59868,0.59868 -1.94549,1.54096 -2.39911,1.76777 -1.05478,0.52739 -1.37589,2.26762 -2.65165,2.77792 z"
       id="path4593"
       inkscape:connector-curvature="0" />
    <path
       style="fill:#ffffff;fill-opacity:1;stroke:#ffffff;stroke-width:1px;stroke-linecap:butt;stroke-linejoin:miter;stroke-opacity:0"
       d="m 305.71428,414.50503 c -5.21175,-5.08913 -13.38595,-5.52881 -17.85714,-10 -0.59524,-0.59523 -2.2619,-0.11904 -2.85714,-0.71428 -1.60386,-1.60386 -15.4099,-13.87582 -12.14286,-17.14286 1.57005,-1.57005 2.91525,-3.62953 4.28572,-5 2.35097,-2.35097 25.46229,0.4623 26.42857,1.42857 1.71851,1.71851 5.43115,4.71687 7.14285,6.42857 0.83334,0.83334 0.59524,2.7381 1.42858,3.57143 7.75552,7.75552 9.54786,21.42857 -6.42858,21.42857 z"
       id="path5374"
       inkscape:connector-curvature="0" />
    <path
       style="fill:#ffffff;fill-opacity:1;stroke:#ffffff;stroke-width:1px;stroke-linecap:butt;stroke-linejoin:miter;stroke-opacity:0"
       d="m 368.20089,369.8125 c -3.72181,-0.14661 -7.38822,1.01322 -10.34375,3.96875 -1.03212,1.03211 0.0131,2.81759 -0.71875,4.28125 -3.46733,6.93467 2.07951,20.2793 9.625,26.3125 3.23129,-0.24052 9.70103,0.26769 10.34375,-0.375 0.086,-0.086 1.70059,-0.64495 3.28125,-1.15625 1.91435,-6.00354 5.26413,-15.62798 3.1875,-19.78125 -1.12609,-2.25218 -0.74599,-5.71474 -2.15625,-7.125 -3.56646,-3.56646 -8.43356,-5.9365 -13.21875,-6.125 z"
       id="path5376"
       inkscape:connector-curvature="0" />
    <path
       style="fill:#c83737;fill-opacity:1;stroke:#ffffff;stroke-width:1px;stroke-linecap:butt;stroke-linejoin:miter;stroke-opacity:0"
       d="m 373.73214,370 c -0.7984,0.004 -2.01789,0.40625 -2.40625,0.40625 -1.24158,0 -12.05022,1.67523 -12.65625,2.28125 -0.9857,0.9857 -1.4277,4.93184 -1.625,8.0625 -0.006,0.0235 -0.0251,0.0386 -0.0312,0.0625 -0.77353,3.01759 -0.16205,9.28125 0.65625,9.28125 0.35791,0 0.81069,-7.20335 0.59375,-8.9375 0.44558,-1.46524 0.85741,-2.85741 1.6875,-3.6875 0.41589,-0.4159 -0.0168,-1.99762 0.25,-2.53125 0.51694,-1.03386 5.74289,-1.18039 6.5625,-2 0.0948,-0.0948 5.01885,0.64682 5.8125,0.25 0.40675,-0.20338 1.744,-0.506 1.75,-0.5 0.77068,0.77068 3.0574,2.27615 4.0625,3.28125 l 2.53125,2.53125 c 0.67344,0.67343 0.82656,1.82656 1.5,2.5 0.61849,0.61849 0.56702,2.78125 0.75,2.78125 0.25981,0 -0.25,-2.49555 -0.25,-2.53125 0,-1.96098 -1.43717,-4.68716 -2.78125,-6.03125 -1.57238,-1.57238 -4.02845,-3.27845 -5.8125,-5.0625 -0.1199,-0.1199 -0.32762,-0.15744 -0.59375,-0.15625 z"
       id="path6527"
       inkscape:connector-curvature="0" />
    <path
       style="fill:#c83737;fill-opacity:1;stroke:#ffffff;stroke-width:1px;stroke-linecap:butt;stroke-linejoin:miter;stroke-opacity:0"
       d="m 300.71428,400.21932 c 0.69848,3.74414 5.52385,13.76187 14.28572,5 1.09167,-1.09167 0.76188,-4.3809 2.14286,-7.14286 1.08465,-2.1693 -1.42858,-4.87245 -1.42858,-7.14285 0,-3.75368 -2.94062,-12.94063 -5,-15 -0.71281,-0.71282 -5.95878,-25.24451 -7.14285,-26.42858 -1.91569,-1.91568 0.29374,-8.27768 -1.42857,-10 -0.79517,-0.79516 1.46992,-9.36842 2.14285,-10.71428 1.56366,-3.12731 0.8582,-16.57248 2.85715,-18.57143 2.27358,-2.27358 1.67676,-12.39105 3.57142,-14.28571 0.43152,-0.43152 4.25933,-10.74067 3.57143,-11.42858 -2.21862,-2.21862 -4.59793,-6.0265 -7.14285,-8.57142 -6.58525,-6.58525 -13.57143,16.53011 -13.57143,23.57142 0,3.12991 -4.64767,37.15249 -5.71429,39.28572 -0.75716,1.51433 0,5.41224 0,7.14286 0,9.0428 -0.88622,22.6852 4.28572,27.85714 1.30417,1.30417 1.3177,7.74628 2.85714,9.28571 1.75038,1.75038 0.32401,7.07659 1.42857,9.28572 1.42238,2.84475 2.64828,4.58227 4.28571,7.85714 z"
       id="path5378"
       inkscape:connector-curvature="0" />
    <path
       style="fill:#c83737;fill-opacity:1;stroke:#ffffff;stroke-width:1px;stroke-linecap:butt;stroke-linejoin:miter;stroke-opacity:0"
       d="m 365.45929,394.13908 c 3.02322,3.16894 7.94304,5.27859 10.92825,2.85026 1.29191,-1.47661 1.86965,-5.20515 2.47041,-5.89182 1.27661,-1.45912 0.57491,-7.23014 -0.61815,-9.26511 -0.96936,-1.65343 0.54141,-4.76089 -0.42795,-6.41431 -1.78294,-3.04114 -2.57751,-13.66379 -4.60961,-15.44168 -1.54897,-1.35521 -1.36234,-4.85012 -2.61359,-6.98436 -8.33772,-14.2215 -8.67045,-22.65821 -9.88492,-40.86118 -0.24277,-3.63882 -1.27792,-9.27806 0.6646,-11.49832 0.96761,-1.10595 0.26429,-7.97257 1.51996,-9.40776 1.63942,-1.87381 1.73494,-17.94397 -1.37895,-20.66834 -1.71021,-1.49628 -4.86435,-1.10721 -7.22212,-0.9499 -11.57837,0.77248 -11.26482,13.56507 -10.59432,23.61478 0.8576,12.85407 2.51778,40.29551 7.55716,48.8911 0.75394,1.28599 -0.4211,3.70291 0.33285,4.98891 2.77327,4.73032 2.79043,11.07555 5.32231,15.39412 1.04664,1.78525 1.49783,11.71251 3.01778,13.04232 1.81129,6.36103 1.44393,12.18198 5.53629,18.60129 z"
       id="path5380"
       inkscape:connector-curvature="0"
       sodipodi:nodetypes="ccsssssssssssssscc"
       inkscape:transform-center-x="8.975097"
       inkscape:transform-center-y="-53.33046" />
    <path
       style="fill:#c83737;fill-opacity:1;stroke:#ffffff;stroke-width:1px;stroke-linecap:butt;stroke-linejoin:miter;stroke-opacity:0"
       d="m 330.48214,238.40625 c -0.77263,0.0342 -1.4494,0.14657 -1.90625,0.375 -7.71197,3.85599 -12.03492,3.87166 -16.9375,6.71875 -0.79434,1.09922 -1.65941,2.13072 -1.9375,2.6875 -0.64581,1.29298 -1.38886,4.8881 -2.28125,5.78125 -0.46253,0.46293 -0.63696,5.44874 -1.5,6.3125 -0.29607,0.29641 0.0361,1.71365 -0.28125,2.03125 -0.39819,0.39853 -4.03164,11.69724 -4.03125,12.625 1.1e-4,0.25015 -0.19087,0.81176 -0.5,1.4375 2.40429,6.71792 7.06395,10.08537 11.5625,13.34375 0.45995,-1.08948 1.40965,-2.5034 1.625,-2.71875 0.15938,-0.15938 0.30329,-0.37956 0.4375,-0.65625 0.36185,-1.36631 0.55331,-3.55331 1.34375,-4.34375 0.20924,-0.63009 0.44825,-1.167 0.71875,-1.4375 0.24004,-0.24004 3.56946,2.53821 3.90625,2.875 1.03561,1.03561 4.58861,0.99486 5.71875,2.125 0.86516,0.86516 16.19323,-0.0995 16.4375,-0.34375 0.21737,-0.21736 2.3166,-1.0625 2.5,-1.0625 0.40719,0 -1.0625,7.81876 -1.0625,8.21875 0,1.1632 -0.14301,2.21401 -0.28125,3.28125 0.34596,-0.14485 0.69866,-0.28683 1,-0.4375 1.05337,-0.52668 4.19923,0.80077 5,0 2.38976,-2.38976 8.67872,-2.27246 11.40625,-5 0.75173,-0.75173 1.43946,-1.58833 2.09375,-2.4375 -2.63788,-8.16633 1.125,-15.38503 1.125,-25.40625 0,-4.96188 -2.46565,-15.26019 0.21875,-18.40625 -5.36482,-3.16447 -12.32527,-4.46875 -20.5625,-4.46875 -1.73061,0 -5.64192,0.75716 -7.15625,0 -1.11934,-0.55967 -4.33835,-1.19624 -6.65625,-1.09375 z m 20.375,17.84375 c -0.31083,0.62166 -1.69871,3.77123 -2.28125,4.0625 -2.3942,1.1971 -12.37273,2.53352 -14.65625,0.25 -1.14115,-1.14115 0.7332,-2.44356 1.9375,-3.21875 -0.0597,0.004 -0.12117,0.008 -0.15625,-0.0625 -0.16835,-0.33672 1.2662,-0.79745 1,-0.53125 l 14.15625,-0.5 z m -14.15625,0.5 c -0.11513,0.11513 -0.42465,0.34456 -0.8125,0.59375 0.22886,-0.0552 0.55996,-0.46749 0.8125,-0.59375 z"
       id="path5408"
       inkscape:connector-curvature="0" />
    <path
       style="fill:#ffffff;fill-opacity:1;stroke:#ffffff;stroke-width:1px;stroke-linecap:butt;stroke-linejoin:miter;stroke-opacity:0"
       d="m 345.63839,183.09375 c -8.70435,0.14997 -18.44497,4.94497 -22.78125,9.28125 -3.16004,3.16005 -5.96224,7.36849 -9.28125,10.6875 -6.65981,6.65981 7.35093,20.29814 2.84375,29.3125 -2.29803,4.59605 -2.7578,8.97185 -3.875,13.4375 0.37304,0.57004 0.64334,1.2996 1.1875,1.84375 0.68099,0.681 2.42547,1.92547 3.28125,2.78125 0.0859,0.0859 0.33554,-0.005 0.53125,-0.0312 1.05825,2.08892 2.6473,4.2723 4.25,5.875 0.99601,0.99601 2.75549,1.34924 3.5625,2.15625 1.21696,1.21696 6.11409,1.45784 7.15625,2.5 1.64487,1.64487 7.56791,-2.9973 10,-1.78125 2.97321,1.4866 7.45409,2.79131 9.9375,0.40625 2.01551,0.22529 4.03975,-0.1335 5.40625,-1.5 1.66402,-1.66402 3.01358,-4.04483 4.65625,-5.6875 0.17857,-0.17857 -0.17857,-0.91518 0,-1.09375 1.67159,-1.67159 3.35773,-11.78108 3.53125,-19 3.87017,-9.77078 -2.68046,-34.64218 -6.03125,-41.34375 -2.94222,-5.88444 -8.41939,-7.94636 -14.375,-7.84375 z"
       id="path5436"
       inkscape:connector-curvature="0" />
    <path
       style="fill:#ffffff;stroke:#ffffff;stroke-width:1px;stroke-linecap:butt;stroke-linejoin:miter;stroke-opacity:0"
       d="m 346.42857,140.21932 c 0.3333,2.33768 13.99239,5.92477 22.14286,10 9.01262,4.50632 27.80107,4.22965 33.57142,10 1.07833,1.07833 5.30146,0.30146 6.42858,1.42858 2.38095,2.38095 10.47619,-0.95239 12.85714,1.42857 1.79748,1.79748 5,16.44281 5,20.71428 0,3.52029 0.60224,9.77592 2.14286,12.85715 0.13605,0.27211 0,19.62306 0,21.42857 0,1.49589 0.0548,3.51657 -0.71429,4.28571 -0.17912,0.17912 -11.33001,4.38428 -12.14286,3.57143 -5.52239,-5.52239 2.13263,-45.01023 -1.42857,-48.57143 -0.21333,-0.21333 -14.03748,-3.44731 -15.71428,-4.28571 -14.92384,-7.46192 -36.9484,-8.60419 -50.50508,-15.38253"
       id="path5494"
       inkscape:connector-curvature="0"
       sodipodi:nodetypes="cssssscscsssc" />
    <path
       style="fill:#c83737;stroke:#ffffff;stroke-width:1px;stroke-linecap:butt;stroke-linejoin:miter;stroke-opacity:0"
       d="m 316.42857,213.79075 c -5.20724,1.67599 -10.93522,-9.50665 -17.85714,-16.42857 -10.02286,-10.02285 -15.98425,-39.01576 -4.28572,-50.71428 3.12318,-3.12318 9.09719,-6.24005 12.85714,-10 1.32892,-1.32892 4.64357,-1.78642 5.71429,-2.85715 0.45308,-0.45308 2.26244,0.29736 2.85714,0 3.48071,-1.74035 15.10803,-1.7317 18.57143,0 3.81192,1.90596 10.51418,1.94275 13.57143,5 6.81739,6.81739 7.87311,17.1748 12.14286,25.71429 1.1738,2.34761 -0.33279,8.95293 1.42857,10.71428 1.18,1.18 2.72498,8.83576 1.42857,11.42858 -3.75392,7.50784 -6.72326,13.15183 -11.42857,17.85714 -1.40554,1.40554 -4.2071,1.34995 -5.71429,2.85714 -7.98325,7.98325 -18.34722,4.24087 -29.28571,6.42857 z"
       id="path5438"
       inkscape:connector-curvature="0" />
    <path
       style="fill:#ffffff;fill-opacity:1;stroke:#ffffff;stroke-width:1px;stroke-linecap:butt;stroke-linejoin:miter;stroke-opacity:0"
       d="m 293.14731,155.64355 c -0.29674,-0.002 -0.58922,0.0108 -0.87897,0.0428 -1.88954,0.20891 -3.56791,1.206 -4.35413,3.28415 -11.58428,9.58984 -27.29736,21.22728 -34.49102,24.69667 -12.65735,6.10445 -29.36361,7.76325 -41.61331,13.6711 -5.17996,2.49823 -10.79329,4.44992 -10.89053,11.2621 1.74069,0.18427 5.03272,0.66839 5.33513,0.84221 0.47721,0.27432 1.7469,0.10153 2.3086,0.13417 2.93977,0.17086 5.6434,0.1087 7.64773,1.44617 3.51281,-1.27981 6.59719,-2.50543 6.89237,-2.79231 1.24509,-1.21006 8.79028,-1.42815 11.45806,-2.71477 8.36464,-4.03415 20.57322,-6.63929 27.31116,-13.1876 0.92977,-0.90361 2.88833,-0.67998 3.58477,-1.3568 3.20368,-3.11353 15.88226,-12.95449 20.96028,-15.40357 1.48552,-0.71645 3.83248,-1.62604 5.04629,-2.80569 1.7277,-1.67909 3.56752,-3.37593 5.42823,-5.06859 0.0484,-0.20627 0.0874,-0.41662 0.12985,-0.61851 0.98111,-0.96458 2.03826,-1.94339 2.69198,-2.69209 0.23489,-0.26904 -0.33324,-1.27053 -0.0983,-1.53955 2.94632,-3.37446 -2.01703,-7.16322 -6.46815,-7.19992 z"
       id="path5492"
       inkscape:connector-curvature="0" />
    <path
       style="fill:#c83737;fill-opacity:1;stroke:#ffffff;stroke-width:1px;stroke-linecap:butt;stroke-linejoin:miter;stroke-opacity:0"
       d="m 214.22909,195.56943 c -0.0976,0.0145 -0.46583,0.22887 -1.26384,0.74042 -1.2449,1.10815 -4.37534,1.30066 -5.73482,2.26483 -1.79903,1.2759 -5.86626,3.08716 -7.90358,10.49661 0.11824,0.33354 0.19191,0.70294 0.28334,1.04946 l 7.20264,2.6411 c 3.18202,-0.81768 7.0998,-2.0444 8.28068,-1.3656 0.0764,0.0439 0.13845,0.0896 0.21113,0.13748 0.51388,-0.21938 2.393,-0.77921 2.3942,-0.79993 0.0433,-0.74483 -2.06192,-1.21964 -2.43996,-1.64434 -1.04391,-1.17274 -1.38007,-3.17887 -2.29127,-4.20252 -0.56679,-0.63676 -0.5777,-7.09944 -0.0332,-8.04673 0.83858,-0.72698 1.45733,-1.29499 1.29466,-1.27078 z"
       id="path5620"
       inkscape:connector-curvature="0" />
    <path
       style="fill:#c83737;fill-opacity:1;stroke:#ffffff;stroke-width:1px;stroke-linecap:butt;stroke-linejoin:miter;stroke-opacity:0"
       d="m 413.73214,210.28125 c -0.29212,0 -0.5,4.18862 -0.5,5.0625 0,0.51869 -0.0373,1.15997 -0.0937,1.84375 L 412.51339,217 c 0.16157,0.70854 0.26889,1.65228 0.40625,2.59375 -0.0768,0.95598 -0.13184,1.93304 -0.125,2.84375 0.26139,-0.001 0.54014,0.0135 0.75,0.0312 0.15194,0.3996 0.33665,0.7429 0.5625,0.96875 0.16332,0.16332 0.81036,2.59161 1.0625,2.84375 0.5813,0.5813 1.5933,1.4058 2.34375,2.15625 0.25656,0.25656 2.24662,-0.15456 2.3125,-0.1875 0.33888,-0.16944 1.33617,0.25758 1.59375,0 0.78235,-0.78235 3.06681,-0.72306 3.9375,-1.59375 1.01502,-1.01503 4.79242,-5.17208 4.21875,-7.5625 2.1e-4,-0.01 -1.1e-4,-0.0214 0,-0.0312 0.0117,-1.02519 -0.48023,-2.34694 -0.6875,-2.96875 -0.11926,-0.35777 -0.26123,-4.28125 -0.5,-4.28125 -0.36783,0 -1.71446,1.96446 -2.03125,2.28125 -0.48229,0.48228 -7.41669,2.92706 -8.59375,1.75 -0.48189,-0.48189 -1.94619,-0.69619 -2.25,-1 -0.46299,-0.46299 -0.81826,-1.06827 -1.28125,-1.53125 -0.17448,-0.17449 -0.4274,-3.03125 -0.5,-3.03125 z"
       id="path5637"
       inkscape:connector-curvature="0" />
    <path
       style="fill:#c83737;fill-opacity:1;stroke:#ffffff;stroke-width:1px;stroke-linecap:butt;stroke-linejoin:miter;stroke-opacity:0"
       d="m 204.38839,201.96875 c -0.82981,0.10022 -1.47784,0.53935 -2.125,0.96875 -1.68569,-0.20424 -4.35838,-0.20413 -5.34375,0.78125 -0.0828,0.0828 -0.0617,0.46799 -0.125,0.53125 -0.24493,0.24493 -0.46197,0.63882 -0.65625,1.125 -3.34172,1.53026 -6.72803,3.72803 -8.9375,5.9375 -0.3052,0.3052 -1.4316,1.65699 -2.0625,2.8125 -0.007,0.0132 -0.0241,0.0181 -0.0312,0.0312 l -0.6875,0.6875 c -0.14079,0.1408 -0.0356,0.57135 -0.125,0.75 -0.89823,1.79647 1.02851,3.72012 2.65625,2.90625 1.11741,-0.55871 2.97142,-5.00266 3.78125,-5.8125 0.6028,-0.6028 1.61341,-1.07348 2.6875,-1.5 -0.47368,0.81562 -0.90625,1.64334 -0.90625,2 0,0.004 -0.0306,0.0562 -0.0312,0.0625 -0.40107,0.82176 -0.63808,1.56838 -0.40625,1.96875 -0.11375,0.59844 -0.18187,1.13063 -0.0625,1.25 2.53516,2.53515 5.17395,-3.36012 6.25,-5.65625 0.29771,-0.004 0.53793,-0.0246 0.6875,0.125 0.21045,0.21045 1.03956,-0.21044 1.25,0 0.0543,0.0543 0.17488,0.0831 0.28125,0.125 0.65171,-0.15543 1.39261,-0.0537 2.25,0.375 0.37516,0.18758 2.33921,0.43296 2.40625,0.5 0.2942,0.29419 0.62918,0.51878 0.9375,0.8125 1.70169,0.28987 3.32615,5.42957 3.625,6.625 0.33149,1.32596 1.30486,2.79723 1.875,3.9375 0.30181,0.60362 2.41124,0.74501 2.90625,0.25 1.05027,-1.05027 1.40625,-2.02886 1.40625,-3.78125 0,-0.0989 0.063,-0.59324 0,-0.65625 -0.60191,-0.6019 -0.96193,-1.76761 -1.40625,-2.65625 -0.31146,-0.62292 -0.31213,-1.37427 -0.625,-2 -0.56729,-1.13459 0.86499,-2.67627 0.25,-3.90625 -0.25262,-0.50526 -2.84032,-3.65454 -3.40625,-3.9375 -0.56111,-0.28056 -1.23459,-0.35167 -1.78125,-0.625 -0.0363,-0.0181 -0.26447,-0.12036 -0.4375,-0.1875 l -4.09375,-3.84375 z"
       id="path5751"
       inkscape:connector-curvature="0" />
    <path
       style="fill:#c83737;fill-opacity:1;stroke:#ffffff;stroke-width:1px;stroke-linecap:butt;stroke-linejoin:miter;stroke-opacity:0"
       d="m 200.72077,207.77058 c -0.63608,1.36508 -1.21657,7.5992 0.25254,8.33376 0.27977,0.13988 1.03141,-0.0213 1.13642,-0.12627 0.26158,-0.26158 0.86536,-0.0892 1.13642,-0.63135 0.59669,-1.19339 1.69559,-3.49952 1.13642,-5.17703 -0.19176,-0.57528 -0.25254,-1.44306 -0.25254,-2.02031"
       id="path5827"
       inkscape:connector-curvature="0" />
    <path
       style="fill:#c83737;fill-opacity:1;stroke:#ffffff;stroke-width:1px;stroke-linecap:butt;stroke-linejoin:miter;stroke-opacity:0"
       d="m 417.68715,222.63214 c 0.15024,0.0248 -0.55795,-0.35472 -1.99026,-0.63834 -1.41081,-0.27939 -2.76426,-1.43109 -4.23105,-1.24492 -1.14701,0.14559 -9.27644,2.4448 -9.56196,3.88662 -0.15921,0.80404 -0.27576,1.82292 0.0675,2.53708 0.38865,0.80867 2.15773,0.74438 2.63248,0.68412 2.40285,-0.30498 4.89404,-0.87576 7.23352,-1.17271 0.91778,-0.11649 2.83464,0.56133 3.91692,0.77565"
       id="path5903"
       inkscape:connector-curvature="0" />
    <path
       style="fill:#ffffff;fill-opacity:1;stroke:#ffffff;stroke-width:1px;stroke-linecap:butt;stroke-linejoin:miter;stroke-opacity:0"
       d="m 314.61823,140.54941 c 0.52541,-0.11076 1.24977,1.89032 4.052,4.09202 1.12843,0.8866 4.21133,0.12947 5.19533,0.90259 5.37095,4.21992 11.53118,-1.40763 10.87196,-6.90049 -2.48228,-20.68342 -12.1592,-28.62946 -25.55586,-39.155107 -1.55731,-1.223571 -13.9227,-2.512435 -16.22784,0.421454 -1.13407,1.443413 -1.65602,3.156133 -1.34388,5.756993 0.0571,0.47556 0.0219,2.74237 0.3611,3.00886 5.28639,4.15348 10.12608,7.5018 15.10469,11.41346 1.58761,1.24738 0.9265,3.45582 2.16646,5.3357 3.00997,4.56338 1.60654,10.26619 5.37604,15.12452 z"
       id="path5969"
       inkscape:connector-curvature="0" />
    <path
       style="fill:#ffffff;fill-opacity:1;stroke:#ffffff;stroke-width:1px;stroke-linecap:butt;stroke-linejoin:miter;stroke-opacity:0"
       d="m 246.96954,104.38249 c -0.28291,-0.57161 -8.6352,4.51531 -6.07143,9.64285 1.22891,2.45783 1.79798,6.07757 3.92857,7.14286 3.12902,1.56451 2.55845,3.21429 7.85714,3.21429 3.93665,0 6.62627,-2.34056 8.92857,-4.64286 13.20217,-13.20217 -8.0415,-23.608829 -14.64285,-15.35714 z"
       id="path5973"
       inkscape:connector-curvature="0" />
    <path
       style="fill:#c83737;fill-opacity:1;stroke:#ffffff;stroke-width:1px;stroke-linecap:butt;stroke-linejoin:miter;stroke-opacity:0"
       d="m 314.74174,100.69441 c -5.90012,-1.337451 -14.01558,-1.768336 -16.66752,3.53553 -0.36613,0.73227 -0.626,1.63615 -1.01015,2.02031 -0.11528,0.11528 -0.11188,1.26269 -0.25254,1.26269 -0.11072,0 1.30787,-1.05533 2.27284,-2.02031 1.54859,-1.54859 5.07236,-2.54698 6.31346,-3.78807 0.66448,-0.66448 7.46835,0.69232 8.33376,0 0.37184,-0.29747 0.67343,-0.67343 1.01015,-1.01015 z"
       id="path5978"
       inkscape:connector-curvature="0" />
    <path
       style="fill:#c83737;fill-opacity:1;stroke:#ffffff;stroke-width:1px;stroke-linecap:butt;stroke-linejoin:miter;stroke-opacity:0"
       d="m 317.01458,104.98756 c -5.05553,-2.32175 -10.8502,1.00121 -13.38452,3.53553 -0.31928,0.31928 -1.82294,2.72275 -1.26269,3.283 0.18789,0.18789 1.15765,-1.15765 1.26269,-1.26269 0.92858,-0.92859 2.43948,-1.1768 3.283,-2.02031 1.48131,-1.48132 7.43871,-1.93785 10.10152,-3.53553 z"
       id="path5980"
       inkscape:connector-curvature="0" />
    <path
       style="fill:#c83737;fill-opacity:1;stroke:#ffffff;stroke-width:1px;stroke-linecap:butt;stroke-linejoin:miter;stroke-opacity:0"
       d="m 320.80265,108.01801 c -1.60921,-0.46314 -3.5771,0.0416 -4.54568,1.01016 -0.23589,0.23589 -1.0268,0.26918 -1.26269,0.50507 -1.11394,1.11394 -2.92958,2.17197 -4.04061,3.283 -0.52845,0.52845 -1.9952,3.28299 -2.02031,3.28299 -0.1392,0 0.93528,-0.97271 2.02031,-1.51522 1.48373,-0.74187 3.08906,-1.57384 4.04061,-2.52539 1.23988,-1.23988 7.80932,-1.49587 8.58629,-2.27284 0.79744,-0.79743 -1.52026,-2.0193 -2.77792,-1.76777 z"
       id="path5982"
       inkscape:connector-curvature="0" />
    <path
       style="fill:#c83737;fill-opacity:1;stroke:#ffffff;stroke-width:1px;stroke-linecap:butt;stroke-linejoin:miter;stroke-opacity:0"
       d="m 325.0958,113.82639 c -1.88147,-0.89916 -2.97705,0.75762 -4.54568,0.75762 -1.72037,0 -8.64866,5.49348 -7.57615,6.56599 0.12746,0.12745 5.32042,-3.30011 5.55584,-3.53554 1.14777,-1.14776 9.19409,-1.61794 9.34391,-1.76776 0.97461,-0.97462 -2.31709,-1.83598 -2.77792,-2.02031 z"
       id="path5984"
       inkscape:connector-curvature="0" />
    <path
       style="fill:#c83737;fill-opacity:1;stroke:#ffffff;stroke-width:1px;stroke-linecap:butt;stroke-linejoin:miter;stroke-opacity:0"
       d="m 330.14657,121.15 c -3.34269,-1.64159 -7.88362,0.0549 -11.61676,3.78807 -0.49854,0.49854 -0.9393,1.62607 -1.26269,2.27284 -0.0753,0.15059 0.16836,0.50508 0,0.50508 -0.0157,0 0.89145,-0.63891 1.01015,-0.75762 0.41988,-0.41987 2.54318,-1.51522 3.53554,-1.51522 1.14642,0 5.91719,-0.86644 6.81853,-1.76777 0.54716,-0.54717 2.48329,0.29463 3.03045,-0.25254 0.90616,-0.90616 -1.3095,-2.14941 -1.51522,-2.27284 z"
       id="path5986"
       inkscape:connector-curvature="0" />
    <path
       style="fill:#c83737;fill-opacity:1;stroke:#ffffff;stroke-width:1px;stroke-linecap:butt;stroke-linejoin:miter;stroke-opacity:0"
       d="m 332.67195,128.97868 c -3.96783,-0.26607 -11.11168,3.12964 -11.11168,6.31345 0,0.27002 -1.04999,1.72793 -1.01015,1.76777 0.10737,0.10738 1.43188,-1.09475 1.76776,-1.26269 1.21252,-0.60626 2.60747,-1.17746 3.78807,-1.76777 2.0065,-1.00325 6.91665,-2.11842 8.08123,-3.28299 0.25861,-0.25862 -1.41702,-1.66956 -1.51523,-1.76777 z"
       id="path5988"
       inkscape:connector-curvature="0" />
    <path
       style="fill:#c83737;fill-opacity:1;stroke:#ffffff;stroke-width:1px;stroke-linecap:butt;stroke-linejoin:miter;stroke-opacity:0"
       d="m 334.94479,136.80736 c -1.7334,0.0348 -3.28142,0.75709 -4.79822,1.26269 -1.59869,0.5329 -6.4072,4.95702 -5.80838,5.55584 0.27233,0.27233 2.08768,-0.7913 2.52538,-1.01015 2.71479,-1.3574 11.47036,-1.57195 8.08122,-5.80838 z"
       id="path5990"
       inkscape:connector-curvature="0" />
    <path
       style="fill:#c83737;fill-opacity:1;stroke:#ffffff;stroke-width:1px;stroke-linecap:butt;stroke-linejoin:miter;stroke-opacity:0"
       d="m 255.77309,184.03716 c -1.32878,-0.78055 -2.82795,0.85767 -4.29315,3.78807 -0.46873,0.93746 0.0638,3.59931 0.50508,4.04061 0.45806,0.45807 0.52257,2.03781 1.01015,2.52538 0.43331,0.43331 1.41153,1.15899 1.76777,1.51523 0.21045,0.21045 0.7997,0.0421 1.01015,0.25254 2.21075,2.21074 7.05334,-1.75004 8.08122,-2.77792 1.85642,-1.85642 -2.49782,-14.92732 -8.08122,-9.34391 z"
       id="path5997"
       inkscape:connector-curvature="0" />
    <path
       style="fill:#c83737;fill-opacity:1;stroke:#ffffff;stroke-width:1px;stroke-linecap:butt;stroke-linejoin:miter;stroke-opacity:0"
       d="m 260.82385,188.58284 c -0.007,-2.20708 7.0372,-5.48809 7.57615,-6.56599 0.53404,-1.06808 16.27481,-10.78905 17.9302,-11.61675 1.64475,-0.82237 7.47986,-2.68164 8.33376,-3.53554 0.55883,-0.55882 1.52257,-0.63501 2.27285,-1.01015 0.16835,-0.0842 0.50507,-0.44077 0.50507,-0.25254 0,0.11244 -6.89893,4.29315 -7.82868,4.29315 -1.549,0 -7.72115,4.69069 -8.83884,5.80838 -1.84265,1.84265 -3.94524,2.68256 -5.55583,4.29315 -0.52383,0.52382 -1.7195,0.70934 -2.27285,1.26269 -0.79824,0.79824 -2.80794,0.78764 -3.53553,1.51523 -1.40023,1.40022 -6.52345,5.29266 -8.5863,5.80837 z"
       id="path6014"
       inkscape:connector-curvature="0" />
    <path
       style="fill:#c83737;fill-opacity:1;stroke:#ffffff;stroke-width:1px;stroke-linecap:butt;stroke-linejoin:miter;stroke-opacity:0"
       d="m 414.74684,161.5561 c 0.63167,-0.63167 1.35577,-0.0465 2.27284,-0.50508 5.09939,-2.54969 9.6725,6.74248 6.566,9.84899 -0.21045,0.21045 -0.0421,0.7997 -0.25254,1.01015 -0.33672,0.33672 -1.20039,-0.19023 -1.26269,-0.25254 -0.54717,-0.54716 -2.23076,0.0421 -2.77792,-0.50507 -0.49229,-0.49228 -1.33558,-0.57797 -2.02031,-1.26269 -6.01472,-3.23222 -2.79872,-8.06329 -2.52538,-8.33376 z"
       id="path6165"
       inkscape:connector-curvature="0"
       sodipodi:nodetypes="ccsccccc" />
    <path
       style="fill:#c83737;fill-opacity:1;stroke:#ffffff;stroke-width:1px;stroke-linecap:butt;stroke-linejoin:miter;stroke-opacity:0"
       d="m 220.79755,209.28581 c -0.27983,-0.58433 5.2005,-1.15989 6.56599,-2.52539 0.50508,-0.50507 2.02031,0 2.52538,-0.50507 1.47038,-1.47038 5.72902,-3.11705 8.08123,-4.29315 3.57991,-1.78996 7.4143,-2.36354 10.35406,-5.3033 1.76782,-1.76782 4.26438,-2.49662 6.06091,-4.29315 0.72851,-0.72851 1.66529,-0.65513 2.27285,-1.26269 0.0842,-0.0842 0.25254,-0.37159 0.25254,-0.25254 0,0.0779 -3.68598,3.43344 -4.04061,3.78807 -2.33551,2.33551 -6.82014,3.78969 -9.09138,6.06092 -1.07828,1.07828 -2.69286,1.17763 -3.78807,2.27284 -0.79838,0.79838 -2.42825,0.40794 -3.283,1.26269 -1.7718,1.77181 -12.31539,5.76967 -15.9099,5.05077 z"
       id="path6178"
       inkscape:connector-curvature="0" />
    <path
       style="fill:#c83737;fill-opacity:1;stroke:#ffffff;stroke-width:1px;stroke-linecap:butt;stroke-linejoin:miter;stroke-opacity:0"
       d="m 421.31283,167.86955 c 0.30112,1.99497 3.94937,13.98085 2.27285,15.65737 -0.54262,0.54261 0.0801,3.12271 -0.25254,3.78807 -1.02985,2.05969 -3.53098,15.91902 -2.02031,18.94036 0.47141,0.94281 -0.4714,2.59272 0,3.53553 0.0312,0.0623 0.75762,6.61324 0.75762,6.81853 0,1.77135 1.19459,3.53554 1.01015,3.53554 -0.30351,0 0.29046,-0.543 0.50508,-0.75762 0.3812,-0.3812 0.25253,-1.68792 0.25253,-2.27284 0,-0.21621 -1.43142,-8.16616 -1.51523,-8.33376 -1.27332,-2.54665 -0.30371,-10.55543 1.01016,-11.86929 0.36901,-0.36902 0.42354,-3.11994 0.75761,-3.78807 1.95437,-3.90874 2.33091,-15.03616 0.25254,-19.1929 -1.1391,-2.27821 -0.49918,-5.04841 -3.03046,-6.06092 z"
       id="path6206"
       inkscape:connector-curvature="0" />
    <path
       style="fill:#c83737;fill-opacity:1;stroke:#ffffff;stroke-width:1px;stroke-linecap:butt;stroke-linejoin:miter;stroke-opacity:0"
       d="m 416.76715,162.81879 c -1.53065,-0.58525 -2.74469,-0.36219 -4.04061,-1.01015 -1.37779,-0.6889 -11.10458,1.25559 -11.61676,1.76776 -0.56684,0.56684 -2.78971,-0.37291 -3.53553,0 -2.67858,1.33929 -12.2806,0.25254 -15.65737,0.25254 -2.54235,0 -9.45717,-0.0566 -11.36421,-1.01015 -1.15659,-0.57829 -10.35407,-1.35991 -10.35407,-1.76777 0,-0.12216 1.46779,0.50508 2.52538,0.50508 0.41567,0 4.45129,1.16829 4.54569,1.26269 0.6256,0.62559 10.78391,1.94508 11.36422,2.52538 0.62214,0.62215 3.20271,-0.16641 4.04061,0.25254 3.45859,1.7293 19.52825,-0.67276 22.22335,-2.02031 0.67344,-0.33671 1.85195,0.33672 2.52538,0 2.72522,-1.36261 6.73846,0.54512 9.34392,-0.75761 z"
       id="path6234"
       inkscape:connector-curvature="0" />
    <path
       style="fill:#c83737;fill-opacity:1;stroke:#ffffff;stroke-width:1px;stroke-linecap:butt;stroke-linejoin:miter;stroke-opacity:0"
       d="m 336.20748,218.62972 c 0.26675,0.19301 7.97834,1.36557 10.35406,-1.01016 0.67072,-0.67071 1.99045,-3.03045 2.02031,-3.03045 0.38745,0 -0.86547,2.88577 -1.01015,3.03045 -0.71553,0.71553 -1.30478,1.55732 -2.02031,2.27285 -0.45146,0.45146 -2.04701,0.53178 -2.52538,1.01015 -0.66816,0.66816 -8.05029,0.17522 -7.57614,-1.01015 0.18229,-0.45574 0.50507,-0.8418 0.75761,-1.26269 z"
       id="path6308"
       inkscape:connector-curvature="0" />
    <path
       style="fill:#c83737;fill-opacity:1;stroke:#ffffff;stroke-width:1px;stroke-linecap:butt;stroke-linejoin:miter;stroke-opacity:0"
       d="m 336.71256,228.4787 c 0.33671,0.0842 1.09433,-0.0842 1.01015,0.25254 -0.0842,0.33672 -1.35723,-0.25254 -1.01015,-0.25254 0.17385,0 4.16781,0.56868 4.54568,0.75762 1.5392,0.7696 6.27094,-1.22017 6.81853,-1.76777 0.1927,-0.19269 1.45269,-2.33538 1.51523,-2.27284 0.10504,0.10504 0.10504,2.42034 0,2.52538 -0.56433,0.56433 -1.5698,1.31727 -2.27284,2.02031 -0.23232,0.23231 -1.66776,0.0763 -2.02031,0.25253 -2.89661,1.44831 -7.71907,1.95365 -8.58629,-1.51523 z"
       id="path6310"
       inkscape:connector-curvature="0" />
    <path
       style="fill:#c83737;fill-opacity:1;stroke:#ffffff;stroke-width:1px;stroke-linecap:butt;stroke-linejoin:miter;stroke-opacity:0"
       d="m 337.47017,236.81246 c 0.77731,2.0244 7.56244,2.79163 9.09137,1.26269 0.16836,-0.16836 0.8418,0.16836 1.01016,0 0.37855,-0.37855 1.55046,-0.54031 2.0203,-1.01015 0.32101,-0.32101 0.72928,-1.26269 1.26269,-1.26269 0.0145,0 -1.91461,2.67222 -2.0203,2.77792 -0.12652,0.12652 -0.8446,0.087 -1.01016,0.25254 -2.2163,2.2163 -13.0548,1.58068 -10.35406,-2.02031 z"
       id="path6312"
       inkscape:connector-curvature="0" />
    <path
       style="fill:#c83737;fill-opacity:1;stroke:#ffffff;stroke-width:1px;stroke-linecap:butt;stroke-linejoin:miter;stroke-opacity:0"
       d="m 335.95494,245.39876 c -0.21361,0.85326 0.83072,1.17298 3.03046,2.27285 1.55238,0.77618 6.82045,0.50315 7.82868,-0.50508 1.06451,-1.06451 2.27285,-2.40003 2.27285,-2.27284 0,0.56838 -0.53536,1.29297 -0.75762,1.51522 -0.95253,0.95253 -1.51062,1.76316 -2.52538,2.77792 -1.4014,1.4014 -7.60677,-0.28316 -8.33376,-1.01015 -0.79845,-0.79845 -1.22823,-1.34294 -1.51523,-2.77792 z"
       id="path6340"
       inkscape:connector-curvature="0" />
    <path
       style="fill:#c83737;fill-opacity:1;stroke:#ffffff;stroke-width:1px;stroke-linecap:butt;stroke-linejoin:miter;stroke-opacity:0"
       d="m 336.38514,254.46713 c 0.28514,0.30959 1.16502,0.64366 0.85541,0.9288 -0.3096,0.28514 -1.26927,-1.0054 -0.85541,-0.9288 0.55527,0.10277 0.79679,0.91795 1.35205,1.02072 1.1019,0.20395 4.57923,0.96875 5.30665,0.46853 0.0938,-0.0645 1.77687,-1.51307 2.01401,-1.16819 0.59968,0.87207 -1.29818,1.75954 -1.65525,2.00508 -0.43068,0.29615 -1.65527,0.0547 -2.12444,0.37727 -1.92771,1.32558 -4.16724,-0.75991 -4.89302,-2.70341 z"
       id="path6342"
       inkscape:connector-curvature="0" />
    <path
       style="fill:#ffffff;fill-opacity:1;stroke:#ffffff;stroke-width:1px;stroke-linecap:butt;stroke-linejoin:miter;stroke-opacity:0"
       d="m 324.35177,160.59252 c 1.00894,-3.36611 1.84601,-3.18257 6.48296,-5.057 0.84193,-0.34034 5.28327,-0.28 5.61852,-0.56577 0.45247,-0.38571 1.3763,-0.0691 2.05403,-0.34304 4.09336,-1.65469 6.82939,-1.07214 9.23419,1.74897 0.18667,0.21898 1.49143,0.35893 1.45028,0.87554 -0.0165,0.20719 -2.89655,-0.16558 -3.02089,-0.24065 -1.80533,-1.08989 -3.79333,-0.80886 -6.00167,-0.98478 -1.81878,-0.14489 -10.4118,2.07062 -11.3774,2.89372 -1.16368,0.99196 -1.72303,1.93806 -3.02986,3.05204 -0.73173,0.62376 -0.59591,-2.72779 -1.99386,-0.41218"
       id="path6373"
       inkscape:connector-curvature="0" />
    <path
       style="fill:#ffffff;fill-opacity:1;stroke:#ffffff;stroke-width:1px;stroke-linecap:butt;stroke-linejoin:miter;stroke-opacity:0"
       d="m 330.90969,168.7779 c -0.16205,-0.63897 0.70926,-2.74706 2.31351,-4.14252 1.22479,-1.06541 3.51136,-0.72657 5.16131,-1.41283 0.67624,-0.28127 4.15163,-0.77122 4.37046,-0.96157 0.54901,-0.47757 1.76427,-0.24454 2.57188,-0.58044 3.47895,-1.447 7.42602,-0.44182 9.48563,1.92592 0.21252,0.24431 0.77168,0.38491 0.95511,0.82592 0.28272,0.67972 -4.02596,-0.7865 -4.49965,-0.81947 -0.48592,-0.0338 -2.7533,-1.39183 -3.49194,-0.74933 -0.48004,0.41757 -1.84,0.88454 -2.84135,0.81485 -1.16604,-0.0812 -8.84003,1.77268 -9.53176,2.37439 -1.06895,0.92984 -1.4006,3.11175 -2.29597,3.89059 -0.25046,0.21787 -2.12429,-1.11454 -2.19723,-1.16551 z"
       id="path6375"
       inkscape:connector-curvature="0" />
    <path
       style="fill:#ffffff;fill-opacity:1;stroke:#ffffff;stroke-width:1px;stroke-linecap:butt;stroke-linejoin:miter;stroke-opacity:0"
       d="m 333.70035,177.27318 c 0.0434,0.4656 1.05536,-2.80353 2.31777,-3.75226 0.74405,-0.55918 2.24819,-0.41102 3.1423,-0.57449 2.11806,-0.38722 7.60902,-1.25081 8.99777,-2.29448 0.52421,-0.39396 2.11452,-0.0255 2.60676,-0.3954 0.592,-0.4449 1.89033,0.61963 2.17936,0.8193 0.8244,0.56956 5.88197,3.62117 5.00417,4.28086 -2.70045,2.02946 -6.71624,-4.78121 -10.145,-2.20441 -0.49265,0.37024 -1.66244,-0.0909 -2.07123,0.2163 -1.96624,1.47769 -6.79557,0.4161 -8.39128,1.61532 -1.6678,1.25338 -1.75989,5.71092 -3.64062,2.28926 z"
       id="path6377"
       inkscape:connector-curvature="0" />
    <path
       style="fill:#ffffff;fill-opacity:1;stroke:#ffffff;stroke-width:1px;stroke-linecap:butt;stroke-linejoin:miter;stroke-opacity:0"
       d="m 335.08123,188.47817 c -0.0457,-0.89608 -0.15246,-2.85597 0.63319,-3.48754 2.39679,-1.92674 11.71844,-2.54675 13.09882,-3.65643 1.02849,-0.82677 6.82321,2.78754 7.03506,3.05108 0.26106,0.32474 -0.21742,0.44208 -0.30565,0.47482 -1.82364,0.67676 -3.68165,-0.0866 -5.21764,-1.07531 -0.68694,-0.44219 -2.75396,-0.0773 -3.0673,0.17458 -1.07515,0.8643 -7.33012,1.53935 -8.11036,2.16657 -0.87393,0.70253 -1.46147,3.00778 -1.88848,3.35105 -0.48296,0.38825 -2.09715,-0.95601 -2.17764,-0.99882 z"
       id="path6379"
       inkscape:connector-curvature="0" />
    <path
       style="fill:#ffffff;fill-opacity:1;stroke:#ffffff;stroke-width:1px;stroke-linecap:butt;stroke-linejoin:miter;stroke-opacity:0"
       d="m 334.00369,198.95281 c -2.35793,-3.06688 15.93051,-6.94657 18.29615,-4.19647 0.40391,0.46956 0.51823,1.42394 0.87483,1.8385 0.0611,0.0711 0.72062,0.52061 0.71763,0.56044 -0.0385,0.51239 -1.78769,-1.40061 -3.68279,-1.54304 -1.47042,-0.11051 -7.9004,0.20058 -8.40495,0.63459 -0.97592,0.83949 -3.44481,0.3722 -4.39462,1.18922 -0.67577,0.58129 -1.16312,1.47161 -1.93314,2.13398 -0.40361,0.34719 -0.995,-0.383 -1.47311,-0.61722 z"
       id="path6394"
       inkscape:connector-curvature="0" />
    <path
       style="fill:#c83737;fill-opacity:1;stroke:#ffffff;stroke-width:1px;stroke-linecap:butt;stroke-linejoin:miter;stroke-opacity:0"
       d="m 298.21428,383.79075 c -0.16511,0.6019 -5.31685,-2.5 -8.21428,-2.5 -2.2791,0 -4.97462,-1.42857 -7.14286,-1.42857 -1.38523,0 -3.33771,1.90914 -4.28571,2.85714 -2.19393,2.19393 -4.30502,2.87645 -6.42858,5 -0.82079,0.8208 2.12001,4.62001 2.5,5 1.45141,1.45141 1.48349,4.69777 2.85715,6.07143 4.24627,4.24628 10.68678,6.5934 16.78571,9.64286 1.07683,0.53841 2.35591,0.92734 3.21429,1.78571 0.34708,0.34708 1.42857,-0.1337 1.42857,0.35715 0,0.10267 -2.76205,-1.07143 -2.85714,-1.07143 -1.37464,0 -4.98183,-2.48183 -6.07143,-3.57143 -1.7543,-1.7543 -4.11435,-3.04292 -6.07143,-5 -2.44238,-2.44238 -3.07296,-6.28724 -5.35714,-8.57143 -0.15191,-0.1519 -2.31674,-3.75469 -1.78572,-4.28571 8.96794,-8.96794 8.61927,-4.28572 21.42857,-4.28572 z"
       id="path6468"
       inkscape:connector-curvature="0" />
    <path
       style="fill:#c83737;fill-opacity:1;stroke:#ffffff;stroke-width:1px;stroke-linecap:butt;stroke-linejoin:miter;stroke-opacity:0"
       d="m 302.5,411.6479 c 0.83593,0.53461 1.16476,0.45047 2.85714,2.14285 2.62284,2.62284 11.22829,-1.38515 12.5,-3.92857 0.2737,-0.54741 2.35637,-4.89324 0.71429,-5.71428 -0.0789,-0.0395 -3.85656,4.92798 -4.28572,5.35714 -2.3129,2.3129 -7.73238,2.14286 -11.78571,2.14286 z"
       id="path6507"
       inkscape:connector-curvature="0" />
    <path
       style="fill:#c83737;fill-opacity:1;stroke:#ffffff;stroke-width:1px;stroke-linecap:butt;stroke-linejoin:miter;stroke-opacity:0"
       d="m 361.20876,398.43687 c 1.04223,0.11135 4.31198,5.06018 7.3236,6.56599 0.89258,0.44629 2.55807,-0.25254 3.53554,-0.25254 1.19136,0 2.783,0.25 3.78807,-0.25253 1.01951,-0.50976 3.42981,0.21144 4.04061,-1.01016 0.67622,-1.35243 2.45632,-10.6066 2.77792,-10.6066 0.11905,0 -0.16836,0.16836 -0.25254,0.25254 -0.4209,0.4209 -0.33672,1.34687 -0.75762,1.76777 -1.15811,1.15812 -1.88621,5.80837 -3.78807,5.80837 -0.7091,0 -8.5996,2.25954 -9.09137,1.76777 -0.29854,-0.29854 -1.12503,-0.11488 -1.51523,-0.50508 -1.42601,-1.426 -3.85705,-3.09476 -6.06091,-3.53553 z"
       id="path6522"
       inkscape:connector-curvature="0" />
    <path
       style="fill:#6c5353;fill-opacity:1;stroke:#ffffff;stroke-width:1px;stroke-linecap:butt;stroke-linejoin:miter;stroke-opacity:0"
       d="m 524.09586,287.06755 c 0.0788,-1.11537 -6.26498,-4.74975 -9.09138,-7.57614 -0.69273,-0.69274 -5.38035,-2.60244 -6.06091,-3.283 -0.189,-0.18899 0.13767,-2.41051 0.25254,-2.52538 0.62839,-0.62839 2.91125,1.07682 3.78807,1.51523 1.89559,0.9478 6.83933,4.56649 8.08122,5.80838 0.54124,0.54124 2.09645,0.16434 2.77792,0.50507 0.88812,0.44407 0.92499,0.8413 1.76777,1.2627 0.38391,0.19195 1.26269,-0.1767 1.26269,0.25253 0,0.32681 -0.33438,0.1707 0,0.50508"
       id="path6646"
       inkscape:connector-curvature="0" />
    <path
       style="fill:#6c5353;fill-opacity:1;stroke:#ffffff;stroke-width:1px;stroke-linecap:butt;stroke-linejoin:miter;stroke-opacity:0"
       d="m 517.28626,278.14067 c -0.34283,-0.15554 -1.18402,-0.1238 -1.02848,-0.46662 0.15554,-0.34283 1.30453,0.72259 1.02848,0.46662 -1.5528,-1.43987 -3.52431,-2.29389 -5.19953,-3.84728 -1.63097,-1.51236 -3.59367,-1.87114 -5.1805,-3.34256 -3.50841,-3.25326 -8.43648,-8.04433 -13.53212,-10.35624 -1.91595,-0.86928 -2.95455,-2.33264 -4.66625,-3.10925 -0.49078,-0.22267 -1.1846,-1.09845 -1.57129,-1.45702 -0.77079,-0.71473 -1.87438,-1.00747 -2.59024,-1.67127 -1.76258,-1.6344 -3.4462,-3.29983 -5.7233,-4.33296 -3.12726,-1.41885 -2.53179,-1.92621 -6.88986,-1.76176 -0.23931,0.009 -1.3675,-0.101 -1.51415,0.0571 -0.39484,0.42581 9.98697,5.6473 11.09901,6.15185 4.60054,2.08729 9.03182,6.67027 12.50365,9.8896 0.97781,0.90672 2.57978,0.931 3.60919,1.88555 2.35754,2.18608 4.79269,3.22649 7.02318,5.29477 2.38697,2.21338 3.13292,4.39788 5.77092,5.59475 0.92721,0.42069 7.9294,4.58011 8.00404,4.49961 0.94962,-1.0241 -0.22124,-2.81308 -1.14275,-3.49493 z"
       id="path6674"
       inkscape:connector-curvature="0" />
  </g>
</svg>
