<?xml version="1.0" encoding="UTF-8" standalone="no"?>
<!-- Created with Inkscape (http://www.inkscape.org/) -->

<svg
   xmlns:dc="http://purl.org/dc/elements/1.1/"
   xmlns:cc="http://creativecommons.org/ns#"
   xmlns:rdf="http://www.w3.org/1999/02/22-rdf-syntax-ns#"
   xmlns:svg="http://www.w3.org/2000/svg"
   xmlns="http://www.w3.org/2000/svg"
   xmlns:sodipodi="http://sodipodi.sourceforge.net/DTD/sodipodi-0.dtd"
   xmlns:inkscape="http://www.inkscape.org/namespaces/inkscape"
   width="744.09448819"
   height="1052.3622047"
   id="svg2"
   version="1.1"
   inkscape:version="0.48.3.1 r9886"
   sodipodi:docname="music.svg"
   inkscape:export-filename="/home/substack/media/vector/music.png"
   inkscape:export-xdpi="117.99651"
   inkscape:export-ydpi="117.99651">
  <defs
     id="defs4">
    <inkscape:perspective
       sodipodi:type="inkscape:persp3d"
       inkscape:vp_x="0 : 526.18109 : 1"
       inkscape:vp_y="0 : 1000 : 0"
       inkscape:vp_z="744.09448 : 526.18109 : 1"
       inkscape:persp3d-origin="372.04724 : 350.78739 : 1"
       id="perspective4339" />
  </defs>
  <sodipodi:namedview
     id="base"
     pagecolor="#ffffff"
     bordercolor="#666666"
     borderopacity="1.0"
     inkscape:pageopacity="0.0"
     inkscape:pageshadow="2"
     inkscape:zoom="0.7"
     inkscape:cx="311.03572"
     inkscape:cy="926.91067"
     inkscape:document-units="px"
     inkscape:current-layer="layer1"
     showgrid="false"
     inkscape:window-width="1364"
     inkscape:window-height="766"
     inkscape:window-x="0"
     inkscape:window-y="0"
     inkscape:window-maximized="0" />
  <metadata
     id="metadata7">
    <rdf:RDF>
      <cc:Work
         rdf:about="">
        <dc:format>image/svg+xml</dc:format>
        <dc:type
           rdf:resource="http://purl.org/dc/dcmitype/StillImage" />
        <dc:title></dc:title>
      </cc:Work>
    </rdf:RDF>
  </metadata>
  <g
     inkscape:label="Layer 1"
     inkscape:groupmode="layer"
     id="layer1">
    <path
       style="fill:#6c5353;fill-opacity:1;stroke:#ffffff;stroke-width:1;stroke-linecap:butt;stroke-linejoin:miter;stroke-miterlimit:4;stroke-opacity:0;stroke-dasharray:none"
       d="m 486.76721,200.33599 c -2.46667,-0.0671 -4.49978,0.10063 -5.77259,0.61623 -1.03521,-0.0487 -2.00229,-0.0772 -2.88501,-0.10563 -2.29,-0.0739 -3.96313,-0.0898 -4.3142,0.018 -2.16618,0.66282 -7.80424,1.19232 -10.23742,0.31357 -3.71747,-1.34253 -22.28458,-1.96086 -28.41924,-2.1131 -9.28848,-0.23098 -40.87392,-3.60756 -46.637,-0.90262 -3.79495,1.78121 -12.57527,-1.78721 -16.77942,-0.84634 -2.85229,0.63833 -6.70614,-0.1628 -9.67818,-0.23618 -12.46666,-0.30944 -22.51135,-0.25969 -34.96877,-0.56885 -1.78246,-0.0441 -4.19464,-1.17651 -5.68716,-0.71983 -4.30795,1.31817 -15.64314,-0.39084 -19.10148,1.23231 -6.56727,3.08242 -15.19852,-2.96514 -22.1647,-0.8336 -4.07509,1.24693 -35.53289,2.66818 -39.42409,0.60034 -3.22338,-1.71295 -24.36163,-0.61019 -29.01654,-0.72578 -2.1114,-0.0524 -11.91928,2.06843 -13.66879,0.22956 -1.44198,-1.51538 -27.83717,-2.38033 -29.56204,-0.739 -1.45729,1.38671 -7.07709,-1.59514 -8.53438,-0.20827 -0.0277,0.0263 -0.0497,0.0561 -0.0725,0.0863 -1.43535,-0.31127 -2.86513,-0.62995 -4.27255,-0.96701 0.0937,0.52797 0.18032,1.05003 0.26093,1.57341 -0.164,-0.0583 -0.32682,-0.10095 -0.48886,-0.17041 -17.53543,11.87128 -30.76265,22.50335 -43.68026,34.8055 -1.61978,1.5426 -0.1722,7.05647 -0.22201,9.0975 -0.0274,1.1247 -0.2854,7.02086 0.37516,7.71448 0.65986,0.69288 2.37962,-1.59815 3.42793,-0.49738 2.50622,2.63158 15.9711,2.34344 19.33165,0.76447 2.80891,-1.31981 9.92045,0.24209 13.09193,0.31948 5.80966,0.14179 11.56971,-0.8445 17.09628,-0.70964 6.81519,0.16632 21.27234,-1.99269 27.01414,0.0782 6.95554,2.50865 28.81384,2.0312 36.42133,0.32539 3.61609,-0.81083 9.57507,1.86075 12.79003,0.87555 4.45824,-1.36617 23.78948,-1.67985 35.34006,-2.26502 10.49412,-0.53165 46.41983,-0.13252 56.89718,1.10017 12.1586,1.4305 26.82097,1.30738 34.24526,0.7079 3.70243,-0.29897 15.63204,-1.05569 19.27489,-0.96679 6.89811,0.16834 11.93814,-0.43146 18.75596,0.31483 8.70717,0.95304 30.50327,1.63243 39.26153,0.10199 8.67362,-1.51566 19.11255,-0.67817 27.90108,-0.46354 3.0846,0.0753 7.22262,0.92679 10.24128,0.24992 7.61614,-1.70774 17.26352,-1.26899 25.08134,-1.07821 5.2331,0.12771 23.54771,-1.19706 37.14779,-1.30566 0.0764,0.28966 0.20766,0.56097 0.42101,0.785 0.16354,0.17171 13.86054,0.33825 15.36193,0.37489 0.8751,0.0213 2.40941,0.18704 4.07556,0.38119 1.54285,-6.2279 4.85343,-14.34106 0.35948,-19.05982 -1.57664,-1.65554 -5.70829,-1.29253 -7.9159,-2.46451 -5.36354,-2.8474 -19.12215,-6.07386 -22.53052,-9.65274 -1.17254,-1.2312 -6.72666,-1.25185 -8.44725,-3.0585 -0.89653,-0.9414 -11.24606,-1.88252 -13.00863,-3.73326 -0.98773,-1.03715 -6.42886,-2.42072 -9.73876,-4.34014 0.33706,-0.80231 0.56678,-1.4442 0.51204,-1.50173 -0.14233,-0.14956 -6.90004,-0.45661 -8.04672,-0.61893 -0.0907,-0.27738 -0.15419,-0.56802 -0.19012,-0.86741 -3.31082,-0.50734 -6.5276,-0.87331 -9.22067,-0.94689 z"
       id="path3024"
       inkscape:connector-curvature="0"
       sodipodi:nodetypes="ccccscssccsssscsscccccsssssssssssssssssssccscsssssccccc"
       inkscape:export-filename="/home/substack/media/vector/music.png"
       inkscape:export-xdpi="117.99651"
       inkscape:export-ydpi="117.99651" />
    <path
       style="fill:#ffffff;stroke:#ffffff;stroke-width:1px;stroke-linecap:butt;stroke-linejoin:miter;stroke-opacity:0"
       d="m 168.50363,209.28647 c -2.46694,0.0537 -4.44248,0.11844 -5.77928,0.16337 -2.26394,0.54494 -4.97818,2.89652 -8.3277,6.36504 -1.36475,1.41324 -4.95495,3.66772 -6.25717,5.0162 -2.76746,2.86579 -6.51183,4.70735 -8.81508,7.0924 -1.07373,0.52034 -1.63969,1.07421 -1.97133,1.65966 2.37185,0.0316 5.0981,0.0673 7.0329,0.0335 1.42119,-0.0248 3.54443,-0.35714 5.30842,-0.28018 0.002,-0.0125 0.7493,0.18235 0.75316,0.17439 0.48627,-1.01652 3.0984,-2.69952 3.99971,-3.63285 0.1076,-0.11142 1.78268,-2.21046 1.9648,-2.0346 0.25691,0.2481 -0.4887,0.50607 -0.7368,0.76298 -0.8933,0.92503 -2.34669,2.71634 -3.18788,3.58742 -0.59823,0.61947 -0.20453,0.86193 -0.91173,1.48489 0.0495,0.0203 0.11027,0.0373 0.15732,0.0598 1.64669,0.78774 8.43242,-0.39721 10.08785,-0.4261 l 2.2809,-0.0398 c 0.16833,-0.003 0.49698,-0.17705 0.49992,-0.009 0.001,0.0731 -6.53351,0.6141 -6.80274,0.6188 -0.58085,0.0101 -3.76828,0.18254 -6.62017,0.33432 -0.02,0.91503 0.93256,4.40608 1.42464,6.41362 7.14797,-0.30641 18.33615,-1.30316 24.96876,-0.21699 -0.69327,-2.27078 -1.30456,-4.90586 -1.34289,-7.10264 -0.006,-0.34703 -0.50906,-0.77707 -0.26796,-1.02673 0.24546,-0.25419 0.76808,0.23663 1.00421,0.23251 l 3.78067,-0.066 c 0.2525,-0.004 0.74548,-0.26557 0.74989,-0.0131 0.008,0.48498 -3.43834,0.76121 -3.76268,1.09707 -0.52219,0.54075 0.78092,4.81667 1.37523,7.1646 2.38586,-0.0994 5.71719,-0.21386 8.77664,-0.34071 -0.24297,-1.33865 -0.52611,-3.03132 -1.00661,-3.95178 -0.24389,-0.46724 -1.0627,-3.25752 -0.81151,-3.51763 1.63809,-1.69628 2.97298,-4.38279 4.67474,-6.14501 0.11626,-0.1204 0.40764,-0.47671 0.73516,-0.85671 0.13812,-0.3627 0.27966,-0.70312 0.51481,-0.94663 0.0822,-0.0851 0.60956,-0.43438 0.86396,-0.64017 -0.11462,0.12039 -0.76888,0.8792 -1.37877,1.5868 -0.17961,0.47167 -0.37087,0.98844 -0.72644,1.35664 -1.31013,1.35666 -5.54579,5.54958 -3.14442,7.86856 0.21409,0.20675 0.0539,0.81999 0.26795,1.02673 0.27301,0.26364 0.30845,2.50961 0.83403,3.01716 0.38294,0.3698 0.37333,0.76256 0.27014,1.15171 9.30509,-0.38234 19.12429,-0.76646 19.68178,-0.49977 3.06296,1.46523 7.22022,0.87414 11.14075,0.80572 0.12689,-0.002 0.49742,-0.0376 0.65561,-0.0427 -0.4737,-2.38783 -1.1673,-5.41408 -0.75087,-7.20675 -0.0855,-0.0154 -0.33385,-0.11055 -0.69231,-0.26921 -0.19683,0.1722 -0.39915,0.36601 -0.61672,0.47959 -0.24936,0.13017 -2.45898,-0.20712 -2.78519,-0.20143 -0.28087,0.005 -1.34968,-0.50218 -1.9185,-0.68538 -0.19791,4.6e-4 -0.34384,-0.002 -0.34425,-0.0252 -0.001,-0.0739 0.13016,-0.0436 0.34425,0.0252 0.98954,-9.6e-4 3.93284,-0.22562 4.18631,-0.10426 0.5096,0.24377 0.85189,0.38662 1.1341,0.51153 0.0694,-0.0607 0.14349,-0.11338 0.21599,-0.16004 -0.46832,-0.34853 -0.88768,-0.68956 0.43526,-0.13262 -0.15827,-0.0147 -0.30197,0.0469 -0.43526,0.13262 0.22304,0.16599 0.4582,0.32632 0.50702,0.39746 0.0481,-0.19889 0.0997,-0.37035 0.1782,-0.53444 1.2018,-2.51227 2.84869,-4.50856 4.67037,-6.39497 0.33602,-0.34795 0.82847,-2.29606 1.24124,-2.30326 0.0586,-0.001 -0.69668,1.3916 -0.75495,1.5134 -0.58622,1.22545 -0.87598,2.4976 -1.69193,3.34254 -0.83695,0.86667 -1.97832,2.80773 -2.46488,3.82484 -0.0192,0.0402 -0.0161,0.16765 -0.0268,0.25051 1.91864,0.26608 3.94535,0.18118 6.09719,0.14363 1.16759,-0.0204 2.43359,0.56818 3.17158,0.85103 0.36861,0.024 0.62559,0.0286 0.62654,0.0828 0.002,0.12183 -0.26893,0.0542 -0.62654,-0.0828 -0.65967,-0.0429 -1.8501,-0.0442 -3.12616,-0.0391 0.11021,0.94538 0.70318,4.20482 0.98448,6.26502 5.5182,-0.19112 11.77913,-0.17517 13.01983,1.02296 0.0991,0.0957 3.75845,-0.0513 8.37318,-0.17734 -0.33316,-2.58292 -1.12657,-8.54414 -0.71183,-8.55138 0.0156,-2.7e-4 0.20071,2.10594 0.28977,2.27654 0.87877,1.68345 0.12995,4.14485 0.8464,5.51732 0.0597,0.11437 0.18633,0.43896 0.2943,0.74498 2.58626,-0.0682 5.34441,-0.12418 8.12376,-0.14178 -0.12087,-0.9153 -0.0363,-2.86027 0.0432,-4.68897 -0.0418,-1.03591 -0.11469,-2.02124 -0.10939,-2.686 -2.40178,-0.15979 -4.42238,-0.34943 -4.94875,-0.60123 -0.59676,-0.28547 -1.85714,0.42166 -1.74537,0.28049 -0.0915,-0.41936 -0.26428,-0.81628 -0.27177,-1.24544 -9.7e-4,-0.0553 0.0803,-0.0856 0.21708,-0.0975 0.95734,-0.0834 4.8299,0.75959 5.1077,0.75474 0.55984,-0.01 1.13272,0.009 1.68833,0.033 0.002,-0.007 0.0288,0.006 0.0312,-5.4e-4 0.01,-0.024 0.0176,-0.0628 0.0301,-0.063 0.0169,-2.9e-4 0.052,0.0227 0.0636,0.0614 3.84585,0.18465 7.59873,1.05507 11.58146,0.98556 0.0464,-8.1e-4 0.22219,-0.004 0.28121,-0.005 0.59277,-0.11995 1.19967,-0.21689 1.74646,-0.21801 0.049,-0.24059 0.12526,-0.4478 0.24015,-0.56678 0.22214,-0.23002 0.27903,-1.09041 0.34113,-1.94374 -0.029,0.7079 0.15435,1.68018 0.16316,2.18498 10e-4,0.0573 0.0351,0.35168 0.0388,0.43689 0.0733,0.0231 0.15249,0.0264 0.2198,0.0587 0.0561,0.0268 0.15276,0.0669 0.2516,0.0893 1.85971,0.0191 3.9386,0.0514 5.691,0.15071 2.82243,-0.0714 5.85881,-0.26254 7.42982,-0.50472 l -0.0169,-0.96861 c -0.008,-0.48277 -0.35477,-2.71818 -0.0529,-3.03079 0.38252,-0.3961 0.95724,-2.45888 0.94695,-3.04823 -0.0228,-1.30759 0.73086,-2.89417 0.7326,-2.79446 0.0112,0.64333 -0.32349,2.9756 -0.71515,3.7943 -0.33412,0.69847 0.57434,2.74532 0.0573,3.28075 -0.40255,0.41685 -0.50455,1.47012 -0.48427,2.69637 0.23534,-0.0486 0.43101,-0.11464 0.52844,-0.1655 1.53504,-0.80131 7.56758,0.11796 9.34669,0.0869 2.66467,-0.0465 5.28777,-0.11469 7.90396,-0.20045 0.0585,-2.51399 0.29758,-5.03951 1.2203,-7.08487 0.0768,-0.37445 0.17546,-0.6526 0.26703,-0.81729 -0.051,0.2691 -0.11546,0.50045 -0.17657,0.62818 -0.0299,0.0625 -0.0618,0.12559 -0.0904,0.1891 -0.30173,1.47174 -0.45272,4.32904 -0.43972,7.04 4.55121,-0.15214 9.0581,-0.31436 13.55771,-0.39289 4.84534,-0.0846 9.35598,0.86812 13.64092,0.79334 0.59504,-0.0104 4.03272,0.0488 4.03936,0.42957 0.002,0.11244 -2.47036,-0.20692 -4.78488,-0.16653 -3.16367,0.0552 -6.17975,0.3579 -9.58793,0.41738 -2.37947,0.0415 -11.66142,0.28113 -16.84609,0.0127 0.0624,2.47013 0.27144,4.59347 0.74449,5.05028 0.30614,0.29564 0.30627,0.94697 0.30847,1.55735 3.25678,0.0426 6.54036,0.0734 9.90801,0.0146 1.81366,-0.0317 13.46269,-0.81015 13.92938,-0.5869 2.06201,0.9864 5.14029,0.62914 7.5114,0.58776 2.06078,-0.036 7.93418,-0.94222 9.90584,-0.11037 0.55057,-0.0126 1.10454,-0.02 1.65599,-0.0289 0.0526,-2.84652 0.2609,-7.61202 0.11473,-7.75319 -0.53124,-0.51301 -1.24455,-2.36896 -1.55703,-3.25457 -0.32945,-0.93374 -0.78985,-2.27697 -0.80714,-3.26766 -0.002,-0.12525 -0.59962,-1.98984 -0.53483,-1.99097 1.059,-0.0185 2.92486,8.78392 3.69813,9.53066 0.33923,0.32761 4.70461,-0.64823 5.02612,-0.33775 0.0704,0.068 -2.49457,1.04369 -4.51311,1.07892 -0.16833,0.003 -0.50287,-0.15961 -0.49993,0.009 0.0219,1.25444 -0.34211,4.29896 -0.11456,5.97166 5.05845,-0.0648 10.14864,0.0413 15.25477,0.14008 0.40701,-3.28249 1.21714,-6.51714 -0.0304,-8.90708 -0.0337,-0.0646 -1.47231,-4.00617 -0.85147,-4.017 0.0297,-5.2e-4 -0.0247,0.7134 0.0131,0.74988 0.39404,0.38051 0.71923,1.58922 1.0709,2.26291 0.23556,0.45126 1.38911,3.09241 1.55703,3.25458 0.12111,0.11695 0.37881,-0.12568 0.49992,-0.009 0.21353,0.20621 -0.45253,0.46861 -0.4912,0.50865 -0.16153,0.16727 -0.0769,1.48859 -0.21888,1.78534 -0.40387,0.84427 -0.16722,3.0379 -0.0173,4.37597 2.05043,0.0396 4.10551,0.0819 6.15913,0.11129 -0.0337,-1.47073 0.2168,-5.45293 0.59922,-6.85525 -0.36426,0.0413 -0.7092,0.0524 -0.87705,-0.10971 -0.0351,-0.0339 -0.1059,-0.0581 -0.15786,-0.091 -0.22495,-0.0166 -0.90772,-0.0761 -0.90775,-0.0779 -0.005,-0.31329 0.57367,-0.13389 0.90775,0.0779 0.27105,0.02 0.61505,0.0416 1.09522,0.0746 0.0733,-0.23213 0.13089,-0.4086 0.21162,-0.41001 0.15514,-0.003 0.26239,0.18985 0.35188,0.46268 0.4148,1.26456 0.21573,4.98837 0.12106,6.93645 2.23095,0.0265 4.45999,0.0235 6.68866,0.008 0.0929,-1.76269 0.56249,-5.43911 0.60795,-6.35533 -0.15557,-0.1295 -0.3085,-0.24465 -0.50429,-0.24123 -0.34703,0.006 -0.58916,0.38637 -0.89684,0.54698 -1.05799,0.55228 -4.74647,-0.55949 -5.01506,-0.81886 -0.0235,-0.0227 -0.065,-0.0129 -0.0942,-0.0296 -0.36193,-0.0235 -0.39701,-0.0257 -0.75097,-0.0494 0.11265,-0.0125 0.24205,-0.0367 0.34315,-0.0372 0.17483,-0.001 0.2956,0.0226 0.40782,0.0866 1.41496,0.0919 2.89106,0.16833 3.12835,0.16418 1.86614,-0.0326 2.36192,-0.0535 2.87783,0.13731 0.16717,-0.0703 0.34458,-0.11414 0.52844,-0.1655 -6e-4,-9.9e-4 1.5e-4,-0.0306 -5.4e-4,-0.0312 -0.29552,-0.28539 -0.55324,-1.25502 -0.56225,-1.77171 -9.6e-4,-0.055 -0.55565,-3.39707 -0.43439,-3.39919 0.29585,-0.005 0.94201,2.04057 0.94701,2.32758 0.008,0.45867 0.43752,1.93089 0.73484,2.70634 1.35615,-0.22082 2.97112,-0.11437 4.31075,-0.13775 0.79007,-0.0138 1.46101,0.29826 1.88399,0.49845 0.24998,-0.0347 0.43686,-0.0404 0.4407,0.17984 9e-5,0.005 -0.26929,-0.0987 -0.4407,-0.17984 -0.35801,0.0497 -0.83741,0.20215 -1.1528,0.20765 -0.3973,0.007 -2.69346,-0.12319 -3.03079,0.0529 -0.0516,0.0269 -1.1857,0.13654 -1.8095,0.18785 -0.0641,0.12734 -0.15182,0.25498 -0.14968,0.37767 0.0323,1.84909 -0.0448,3.80829 -0.0559,5.75185 0.33316,-0.004 0.66677,-0.0116 0.99985,-0.0175 2.85727,-0.0499 10.23631,-0.10184 15.04259,0.51884 0.0926,-0.10992 0.22212,-0.21054 0.37004,-0.28775 0.08,-0.0417 2.28949,0.009 5.43994,0.0926 0.18956,-2.58846 0.6447,-7.36425 -0.58685,-8.55356 -0.37615,-0.36325 -1.68352,-4.09624 -1.32179,-4.10256 0.2446,-0.004 0.069,0.58888 0.20002,0.71537 0.2422,0.23391 0.12057,0.85369 0.36278,1.08759 1.10864,1.0706 1.35163,3.20981 2.57705,4.3932 0.11541,0.11145 -0.83597,5.85865 -0.23136,6.44251 l -0.0306,0.0317 c 3.01601,0.082 6.60767,0.19577 10.10039,0.29255 -0.001,-0.0794 0.0122,-0.12523 0.0915,-0.12662 0.0298,-5.2e-4 0.0463,0.005 0.063,0.0301 0.0873,-1.00731 0.36778,-3.7527 0.4027,-3.78886 0.2149,-0.22253 0.62975,-1.78344 0.33404,-2.34993 -0.37015,-0.70909 -1.06811,-1.70729 -1.47436,-2.0996 -0.50816,-0.49072 -0.56092,-2.13904 -1.10924,-2.66855 -0.38786,-0.37456 -0.75806,-2.24634 -0.76553,-2.67455 -0.002,-0.0941 -0.033,-0.22696 -0.069,-0.37385 0.0873,0.12872 0.19872,0.25988 0.25651,0.37058 0.37238,0.71337 0.89549,3.50658 1.31852,3.91509 0.21413,0.20679 1.64305,2.81093 1.6464,3.00298 0.0126,0.72483 7.15575,-0.091 7.1677,0.59376 0.006,0.33501 -5.88948,0.1893 -6.08955,0.29381 -0.47243,0.24661 -0.54734,4.89685 -0.96582,5.54895 -0.0807,0.12579 -0.18275,0.23108 -0.27521,0.3486 4.49469,0.1234 8.65432,0.22402 10.09876,0.19881 1.27815,-0.0223 3.6334,-0.39252 4.31784,0.26845 0.0522,0.0504 2.18248,0.006 4.40613,-0.0457 -0.80507,-2.64805 0.49398,-5.72141 0.46878,-7.16552 -0.008,-0.43515 -2.00529,-2.79661 -2.39956,-3.17736 -0.21194,-0.20467 -0.14757,-0.69545 -0.35951,-0.90011 -0.18909,-0.18261 -1.84649,-2.63674 -1.82788,-2.65601 0.25517,-0.26424 2.71297,3.22643 2.71856,3.54685 0.0124,0.71258 2.20279,2.09649 2.73344,2.60895 0.36004,0.34768 -0.31915,2.15687 -0.48754,2.50889 -0.48739,1.01882 0.36808,2.72815 -0.12204,3.7527 -0.253,0.52887 -0.28351,0.8837 -0.59927,1.47943 2.11498,-0.05 4.31217,-0.10646 4.74873,-0.11408 4.56981,-0.0798 9.27553,-0.13318 14.0302,-0.18236 -0.10729,-1.62637 0.54388,-5.92569 0.33056,-6.1317 -0.0205,-0.0197 -0.0432,-0.0412 -0.0636,-0.0614 -0.33141,0.0545 -0.65401,0.13426 -0.65834,-0.11353 -0.002,-0.13048 0.0816,-0.28635 0.1486,-0.44016 -0.087,-0.10451 -0.17046,-0.22856 -0.25596,-0.33933 -0.14987,0.16368 -0.25399,0.45781 -0.42708,0.60129 -0.39843,0.3303 -2.15718,0.0376 -2.49962,0.0436 -0.72048,0.0126 -2.24175,-0.17385 -2.88383,-0.481 -0.0217,-0.0104 -0.22149,-0.0568 -0.37712,-0.11844 -0.40101,-0.0461 -0.6897,-0.11979 -0.69122,-0.20672 -0.001,-0.0787 0.37102,0.08 0.69122,0.20672 1.48476,0.1709 4.96861,0.0797 6.15531,-0.10743 -1.24899,-1.63559 -2.38151,-3.86646 -3.90626,-5.3389 -0.11909,-0.11501 -0.10896,-0.62747 -0.20001,-0.71537 -0.61603,-0.59489 -0.76298,-1.78122 -1.29017,-2.29033 -0.19148,-0.18492 -0.62239,-0.708 -0.35623,-0.71264 0.35095,-0.006 0.97826,1.12901 1.27489,1.41547 0.84509,0.81609 1.38729,1.89263 2.17157,2.65001 0.16969,0.16386 0.22053,0.70445 0.39021,0.86832 1.2022,1.16095 2.62642,2.1321 3.43993,3.69053 0.60659,1.16202 0.05,4.95725 -0.0862,7.59641 3.60995,-0.0363 7.23791,-0.0977 10.87444,-0.12727 0.0184,-2.31797 -0.16179,-6.40441 0.13817,-6.40964 0.0136,-2.4e-4 -0.78182,-0.60141 -1.61859,-1.40947 -0.97857,-0.945 -1.9188,-1.48433 -2.91819,-2.44945 -1.24481,-1.2021 -1.82767,-2.80942 -2.91148,-3.85603 -0.0714,-0.069 -1.05589,-1.41929 -0.9312,-1.42147 0.11289,-0.002 1.51835,1.61985 1.65584,1.75262 0.77113,0.74468 1.3422,1.66477 1.97756,2.27834 0.51398,0.49634 2.23418,1.45102 2.91219,2.10575 0.8403,0.81149 1.70582,1.83162 2.54651,2.64347 0.24027,0.23202 -0.16995,1.00728 -0.16566,1.25308 0.0306,1.75189 -0.11142,3.64783 -0.0915,5.50244 3.20776,-0.026 6.41611,-0.0466 9.59392,-0.0737 -0.11301,-0.23611 -0.33763,-0.53714 -0.13534,-0.59148 0.11851,-0.0319 0.1759,0.18652 0.19456,0.40292 l -0.0818,-4.68679 c -0.006,-0.35659 0.12872,-2.1796 0.88103,-1.45309 0.2761,0.26663 -0.16702,1.17535 -0.16566,1.25308 0.0155,0.88848 0.5347,3.56382 0.0747,4.2806 -0.18356,0.28601 -0.5903,0.48458 -0.67376,0.79312 2.90229,-0.0247 5.89438,-0.0609 8.71851,-0.0897 -0.0132,-1.15511 -0.0515,-5.11834 -0.43967,-5.49316 -0.0103,-0.01 -2.68737,-0.48443 -2.69636,-0.48427 -0.19832,0.003 -1.12136,0.14586 -1.24981,0.0218 -0.0662,-0.064 -0.12717,-0.26638 -0.16223,-0.34097 0.0625,0.0513 5.32331,-0.11221 5.34294,-0.0933 0.24369,0.23533 -0.83604,4.86273 -0.045,6.37676 4.6057,-0.0481 9.10001,-0.0963 13.34281,-0.17036 0.52097,-0.009 1.17083,-0.0404 1.87363,-0.0952 0.39575,-1.7246 0.79419,-5.59181 0.52293,-5.85377 -0.38066,-0.3676 -1.44417,-1.05672 -1.96502,-1.5597 -1.33244,-1.28672 -2.51608,-3.24858 -4.19635,-4.05239 -0.77737,-0.37187 -1.90957,-1.78569 -2.16503,-2.27506 -0.0877,-0.16819 -1.01121,-1.04502 -0.92465,-1.04653 0.84057,-0.0147 1.40285,1.32401 2.00226,1.90285 2.6391,2.54857 5.37739,4.51711 7.96743,7.01829 0.0587,0.0567 -0.38422,3.66124 -0.52348,5.82252 3.91084,-0.34107 9.6711,-1.11011 13.67342,-0.92624 -0.0852,-1.76265 -0.26306,-4.32786 -0.26763,-4.58978 -0.003,-0.15245 0.0924,-1.13956 -0.0218,-1.24981 -0.81403,-0.7861 -1.58061,-1.15774 -2.18701,-1.74335 -0.1482,-0.14311 -0.22651,-0.64536 -0.35951,-0.90011 -0.33333,-0.63856 -1.36063,-1.12963 -1.80879,-1.56243 -1.40455,-1.35637 -3.97101,-4.47856 -4.54932,-4.57756 1.41189,0.25683 4.28848,3.31194 5.23072,4.22187 0.47682,0.46045 0.51069,0.98467 0.93065,1.39022 1.06416,1.02766 2.86055,1.70483 3.61812,3.15609 0.50339,0.96433 -0.50425,2.26548 -0.10333,3.03352 0.34577,0.66236 0.37789,1.93331 0.39387,2.86856 1.20089,0.10815 2.1838,0.3287 2.82516,0.70081 7.43803,-0.69597 19.08138,-0.64756 21.10253,0.31931 0.13492,-0.77633 0.52606,-3.43055 0.34746,-5.1631 -0.74801,-0.27479 -1.39246,-0.54601 -1.47998,-0.63052 -0.73993,-0.71455 -11.33257,0.23779 -12.64489,-1.0295 2.38336,-0.0566 8.90781,-0.2679 12.99639,-0.32054 -4.37564,-3.63465 -13.89481,-6.86379 -19.73402,-9.65711 -1.40744,-0.67327 -3.51449,0.0465 -4.54856,-0.95202 -1.0351,-0.99959 -5.30006,-3.07365 -9.7453,-5.01821 -12.79136,-0.22251 -24.53511,-1.44709 -38.37063,-1.20562 -5.20748,0.0909 -32.29837,0.58379 -35.36454,-0.88302 -0.8451,-0.40427 -13.43337,0.73452 -15.64514,0.77312 -11.7402,0.2049 -25.41148,-0.0566 -36.87812,0.14354 -8.45347,0.14754 -35.69582,2.69212 -41.9491,-0.29928 -2.55888,-1.2241 -6.49941,0.40758 -9.10982,-0.84116 -2.16104,-1.03379 -7.64383,0.1334 -10.09221,0.17613 -5.27819,0.0921 -21.5734,-0.31218 -25.29033,-2.09025 -2.46833,-1.18079 -7.88956,0.82874 -9.60974,-0.83244 -0.0192,-0.0186 -0.0625,-0.0438 -0.0948,-0.0608 -5.46816,-0.008 -10.93336,-0.004 -16.40921,-0.0262 -10.11595,0.37538 -21.2035,0.90409 -21.87385,0.25674 -0.11067,-0.10688 -0.2143,-0.21601 -0.28721,-0.33879 -16.56032,-0.66901 -58.02082,-0.18667 -75.28941,0.18883 z M 278.91075,229.863 c -2.52915,0.0639 -4.84896,0.0405 -5.69099,-0.15071 -0.21094,-0.002 -0.27182,0.0107 -0.46868,0.008 0.0772,1.55502 0.43906,6.18348 0.33868,6.87013 4.81084,-0.26891 10.66073,-0.061 12.87522,-0.0997 0.156,-0.003 0.31264,-0.006 0.46868,-0.008 0.05,-1.21431 -0.0135,-2.56124 -0.0353,-3.81246 l -0.0431,-2.46837 c -0.97527,0.0599 -4.0608,0.50199 -4.5311,0.0479 -0.18036,-0.17417 -1.42382,-0.3023 -2.91345,-0.38672 z m -8.69217,-0.1921 c -0.66457,0.13448 -1.32618,0.27318 -1.80786,0.28159 -1.38047,0.0241 -6.17275,-0.10496 -10.039,-0.35612 -0.006,0.66613 -0.034,1.63069 -0.0786,2.65802 0.0802,1.98518 0.147,3.89559 0.14429,4.6857 3.68234,-0.0205 7.20486,0.0293 9.59992,0.27002 1.12518,-0.27132 2.613,-0.46097 4.27188,-0.57463 -0.0916,-1.22395 -0.29156,-2.37902 -0.31486,-3.71382 -0.0135,-0.77546 -0.16863,-2.24451 -0.0562,-3.21826 -0.61693,-0.0115 -1.3941,-0.0364 -1.71958,-0.0325 z m 36.26525,-11.9784 c -0.0559,0.26897 -0.11497,0.57577 -0.1119,0.75207 0.003,0.18902 -0.0612,0.99908 -0.15639,1.78425 0.0438,0.3226 0.0826,0.6142 -0.0494,0.75097 -0.0143,0.0149 -0.0474,0.043 -0.0614,0.0636 0.0435,-0.24301 0.0769,-0.53477 0.1108,-0.81455 -0.075,-0.55142 -0.23509,-1.22498 -0.0892,-1.52993 0.0931,-0.19467 0.24694,-0.6297 0.3575,-1.00639 z m -33.34914,7.14553 c 0.53231,-0.009 -0.244,1.02822 -0.47375,1.50849 -0.0316,0.0662 -0.0721,0.13388 -0.0899,0.22036 0.0739,-0.90755 0.19035,-1.72234 0.56367,-1.72885 z m 139.42008,-2.21447 c 0.047,-0.03 0.20249,0.35342 0.29375,0.71374 -0.15281,-0.22622 -0.28899,-0.4412 -0.29266,-0.65124 -8.2e-4,-0.0471 -0.011,-0.0563 -0.001,-0.0625 z m -262.75028,7.64865 c -1.63441,0.091 -3.07382,0.17378 -4.4648,0.26545 0.32169,0.6008 0.63974,2.63024 0.64764,3.08292 0.01,0.55673 0.44056,2.11007 0.4273,2.993 1.48584,0.0645 2.86046,0.13761 3.84643,0.1204 0.43912,-0.008 0.97929,-0.0396 1.46798,-0.0568 -0.0439,-0.12427 -0.071,-0.25675 -0.13152,-0.37277 -0.35671,-0.68335 -1.41961,-4.25033 -1.79303,-6.03213 z m -4.65227,0.26873 c -2.1962,0.14619 -3.94664,0.30146 -4.02519,0.38279 -0.20464,0.21192 -2.18507,-0.0458 -4.15998,-0.17743 -0.0407,0.24465 -0.088,0.50072 -0.11189,0.75207 -0.0421,7.3e-4 -0.0931,-0.0103 -0.12553,-0.029 -0.0837,1.49689 -0.19111,3.58798 -0.12928,5.12804 2.27748,-0.27581 5.63447,-0.15845 8.65711,-0.0261 -0.0699,-2.05475 -0.20715,-5.29053 -0.10524,-6.03033 z m 75.71812,-0.69639 c 0.0579,1.63153 0.42221,4.68043 0.77285,6.67503 1.38369,-0.0626 2.95124,-0.12732 5.09079,-0.21387 -0.64063,-1.95349 -1.05657,-4.83676 -0.7187,-5.36327 0.22437,-0.34961 0.47033,-0.65908 0.73299,-0.98169 -2.40295,0.0113 -5.09087,0.0347 -5.87793,-0.1162 z m 78.72585,-0.28005 c -3.86951,0.10103 -11.02611,0.55434 -12.74151,0.59743 0.15805,2.32021 0.7239,4.98062 1.13197,5.76237 0.0884,0.1692 0.12146,0.36361 0.1348,0.56023 5.53224,-0.042 11.10231,0.0881 16.78688,0.17585 0.0555,-1.51818 -0.30348,-3.06171 -0.32958,-4.55744 -0.012,-0.68877 -0.009,-1.40986 -0.006,-2.12522 -1.21631,-0.0866 -2.20562,-0.18755 -2.5692,-0.36148 -0.16096,-0.077 -1.09101,-0.0861 -2.40752,-0.0517 z m 208.75677,0.35725 c 1.09242,-0.15032 3.38318,0.57555 4.67027,0.76237 -1.8666,0.14031 -5.71153,-0.002 -5.16692,-0.56617 0.10734,-0.11115 0.27817,-0.16613 0.49665,-0.1962 z m 12.06394,-0.023 c 0.29783,-0.0158 0.90419,0.31168 1.35118,0.41399 -0.81806,-0.0152 -1.53232,-0.0479 -1.53484,-0.192 -0.003,-0.14879 0.0645,-0.21568 0.18366,-0.22199 z m 3.56741,0.25029 c 0.80199,-0.0608 1.56423,-0.0491 1.7837,0.12514 -0.23605,0.005 -1.08879,0.019 -1.21856,0.0213 -0.31702,0.006 -1.41165,0.0457 -2.40588,0.042 0.34536,-0.0168 1.07008,-0.12994 1.84074,-0.1884 z m -10.02536,0.42501 c -0.0573,0.16828 -0.37606,0.15915 -0.81074,0.10786 0.36236,-0.0313 0.68306,-0.0542 0.81074,-0.10786 z"
       id="path3994"
       inkscape:connector-curvature="0"
       inkscape:export-filename="/home/substack/media/vector/music.png"
       inkscape:export-xdpi="117.99651"
       inkscape:export-ydpi="117.99651" />
    <path
       style="fill:#6c5353;fill-opacity:1;stroke:#ffffff;stroke-width:1px;stroke-linecap:butt;stroke-linejoin:miter;stroke-opacity:0"
       d="m 180.66289,207.30613 c -1.13868,0.0289 -2.17814,0.18787 -2.33794,0.35335 -1.30413,1.35046 -3.47999,1.44053 -4.94907,2.96181 -3.38468,3.50492 -7.42271,6.93397 -11.22293,10.60371 -0.11528,0.4242 -0.0993,0.78906 0.3299,0.99439 0.36446,0.17435 1.90345,0.28822 3.29112,0.5364 0.82362,-0.77775 1.57772,-1.57015 2.39568,-2.41717 1.05031,-1.08762 2.77388,-2.48162 3.87489,-3.62174 3.78426,-3.91869 6.05944,-4.45698 9.51306,-8.03329 1.36134,-1.40971 1.0031,-1.42558 -0.89471,-1.37746 z"
       id="path4098"
       inkscape:connector-curvature="0"
       sodipodi:nodetypes="ssscscssss"
       inkscape:export-filename="/home/substack/media/vector/music.png"
       inkscape:export-xdpi="117.99651"
       inkscape:export-ydpi="117.99651" />
    <path
       style="fill:#6c5353;fill-opacity:1;stroke:#ffffff;stroke-width:1px;stroke-linecap:butt;stroke-linejoin:miter;stroke-opacity:0"
       d="m 189.0163,206.76353 c -1.24779,-0.40362 -0.96987,0.68645 -3.89058,2.21109 -1.76832,0.92307 -3.01995,3.12723 -4.56113,4.72317 -0.99827,1.03373 -9.67747,8.20803 -8.40808,9.43386 2.58575,2.49706 16.32097,-11.44765 18.68886,-13.89966 1.75628,-1.81867 0.46317,-2.96866 -1.82907,-2.46846 z"
       id="path4100"
       inkscape:connector-curvature="0"
       inkscape:export-filename="/home/substack/media/vector/music.png"
       inkscape:export-xdpi="117.99651"
       inkscape:export-ydpi="117.99651" />
    <path
       style="fill:#6c5353;fill-opacity:1;stroke:#ffffff;stroke-width:1px;stroke-linecap:butt;stroke-linejoin:miter;stroke-opacity:0"
       d="m 196.52139,206.98974 c -1.63211,-0.52974 -3.62756,1.57518 -6.00195,4.03392 -1.28909,1.3349 -2.0547,4.13548 -3.84072,5.06779 -1.23033,0.64225 -5.15812,5.34136 -5.96456,6.17645 -1.43357,1.4845 4.01585,2.02171 4.31623,1.71066 0.99657,-1.03197 1.96449,-3.12491 3.139,-4.34115 3.88861,-4.02674 7.18635,-6.35101 10.54439,-9.82835 1.4176,-1.46796 -1.7026,-2.73022 -2.19239,-2.81932 z"
       id="path4115"
       inkscape:connector-curvature="0"
       inkscape:export-filename="/home/substack/media/vector/music.png"
       inkscape:export-xdpi="117.99651"
       inkscape:export-ydpi="117.99651" />
    <path
       style="fill:#6c5353;fill-opacity:1;stroke:#ffffff;stroke-width:1px;stroke-linecap:butt;stroke-linejoin:miter;stroke-opacity:0"
       d="m 211.74103,207.61849 c -0.51873,-0.23945 -2.1387,0.33347 -4.6652,2.8205 -3.04505,2.99746 -5.13794,7.18383 -7.93565,9.93783 -0.33412,0.3289 -1.88126,2.76871 -1.45383,3.20294 1.25558,1.27549 3.32614,-0.43926 3.93689,-1.04047 2.84786,-2.80336 10.0757,-9.57451 10.11779,-14.9208 z"
       id="path4117"
       inkscape:connector-curvature="0"
       inkscape:export-filename="/home/substack/media/vector/music.png"
       inkscape:export-xdpi="117.99651"
       inkscape:export-ydpi="117.99651" />
    <path
       style="fill:#6c5353;fill-opacity:1;stroke:#ffffff;stroke-width:1px;stroke-linecap:butt;stroke-linejoin:miter;stroke-opacity:0"
       d="m 217.97164,208.04416 c -1.24226,0.42094 -0.72227,-2.1604 -2.155,-0.67677 -1.49891,1.55215 -2.84391,3.67202 -4.89953,5.80066 -1.49918,1.55244 -1.21107,3.79889 -2.41237,5.04286 -0.59472,0.61586 -1.26491,1.16375 -1.74804,2.17369 -0.17513,0.36608 -3.01389,3.51574 -1.35358,4.31 0.24081,0.11519 2.69621,0.11634 2.85672,-0.0499 3.02896,-3.13657 6.3763,-9.51116 9.0724,-12.30304 0.41163,-0.42626 0.5928,-1.70449 1.03387,-2.16123 0.50303,-0.5209 -0.24009,-1.42881 -0.39447,-2.13631 z"
       id="path4119"
       inkscape:connector-curvature="0"
       inkscape:export-filename="/home/substack/media/vector/music.png"
       inkscape:export-xdpi="117.99651"
       inkscape:export-ydpi="117.99651" />
    <path
       style="fill:#6c5353;fill-opacity:1;stroke:#ffffff;stroke-width:1.05744517px;stroke-linecap:butt;stroke-linejoin:miter;stroke-opacity:0"
       d="m 232.67397,207.97654 c 0,0 -1.66264,-1.73401 -2.82464,-0.60554 -1.49903,1.45578 -2.2558,3.67903 -4.15374,5.5222 -1.99362,1.93611 -3.99585,3.88058 -6.13318,5.95624 -0.15251,0.1481 -2.69418,3.62856 -2.22141,4.01772 0.16161,0.133 1.35262,-0.0523 1.59614,-0.0618 0.50751,-0.0197 2.99301,0.24518 3.19225,-0.12352 2.14595,-3.9714 8.70228,-11.10672 10.54459,-14.7053 z"
       id="path4176"
       inkscape:connector-curvature="0"
       sodipodi:nodetypes="cssscssc"
       inkscape:export-filename="/home/substack/media/vector/music.png"
       inkscape:export-xdpi="117.99651"
       inkscape:export-ydpi="117.99651" />
    <path
       style="fill:#6c5353;fill-opacity:1;stroke:#ffffff;stroke-width:1.05744517px;stroke-linecap:butt;stroke-linejoin:miter;stroke-opacity:0"
       d="m 237.24277,207.70784 c -0.53239,0.009 -1.08269,-0.0966 -1.59717,0.0279 -0.13667,0.0331 -7.24917,11.06859 -9.75173,13.38648 -0.85519,0.7921 0.70138,2.01238 0.83597,2.1286 1.38873,1.19899 4.26335,-1.40872 4.76036,-1.86906 1.00858,-0.93417 7.60203,-11.59886 7.38091,-11.91633 -0.44989,-0.6459 -1.08556,-1.17172 -1.62834,-1.75757 z"
       id="path4178"
       inkscape:connector-curvature="0"
       inkscape:export-filename="/home/substack/media/vector/music.png"
       inkscape:export-xdpi="117.99651"
       inkscape:export-ydpi="117.99651" />
    <path
       style="fill:#6c5353;fill-opacity:1;stroke:#ffffff;stroke-width:1.05744517px;stroke-linecap:butt;stroke-linejoin:miter;stroke-opacity:0"
       d="m 244.63899,207.71805 c -3.46658,-0.0963 -4.88403,7.40579 -8.35292,11.48314 -0.21582,0.25365 -2.60708,3.31267 -1.84309,3.83146 0.65919,0.44763 2.86684,0.37682 3.21946,-0.0377 2.90943,-3.41974 4.51696,-9.47201 7.69131,-13.20315 0.49122,-0.57739 -0.45169,-1.38986 -0.71476,-2.0738 z"
       id="path4193"
       inkscape:connector-curvature="0"
       inkscape:export-filename="/home/substack/media/vector/music.png"
       inkscape:export-xdpi="117.99651"
       inkscape:export-ydpi="117.99651" />
    <path
       style="fill:#6c5353;fill-opacity:1;stroke:#ffffff;stroke-width:1px;stroke-linecap:butt;stroke-linejoin:miter;stroke-opacity:0"
       d="m 255.14622,209.53857 c 1.87269,-1.22993 2.73306,-1.22249 3.92798,-0.0686 0.28568,0.27589 -7.25496,13.3362 -7.97621,13.71271 -0.44865,0.23419 -1.62541,0.0284 -2.14254,0.0374 -0.2179,0.004 -1.28678,0.16163 -1.42835,0.0249 -0.16082,-0.15532 3.16246,-6.91023 3.44624,-7.2041 1.68315,-1.74293 2.63134,-3.82846 4.17288,-6.50237 z"
       id="path4247"
       inkscape:connector-curvature="0"
       inkscape:export-filename="/home/substack/media/vector/music.png"
       inkscape:export-xdpi="117.99651"
       inkscape:export-ydpi="117.99651" />
    <path
       style="fill:#6c5353;fill-opacity:1;stroke:#ffffff;stroke-width:1px;stroke-linecap:butt;stroke-linejoin:miter;stroke-opacity:0"
       d="m 261.91844,208.70597 c 0.47405,-0.12733 1.29479,-0.85605 1.42213,-0.38201 0.12733,0.47404 -1.7631,0.7351 -1.42213,0.38201 2.413,-2.49872 4.71527,0.93391 3.25742,2.44353 -2.14815,2.22448 -3.78542,7.55533 -6.25309,10.11066 -0.40934,0.42388 -0.27368,1.37404 -0.68302,1.79791 -0.29238,0.30277 -1.49306,-0.2716 -1.78544,0.0312 -0.50303,0.5209 -2.12366,1.11851 -2.1363,0.39448 -0.0269,-1.54395 2.35299,-4.98138 3.11409,-5.7695 0.96065,-0.99479 0.54045,-3.468 1.70442,-4.67331 0.93205,-0.96516 1.54375,-2.7306 2.78192,-4.33493 z"
       id="path4262"
       inkscape:connector-curvature="0"
       inkscape:export-filename="/home/substack/media/vector/music.png"
       inkscape:export-xdpi="117.99651"
       inkscape:export-ydpi="117.99651" />
    <path
       style="fill:#6c5353;fill-opacity:1;stroke:#ffffff;stroke-width:1.06017804px;stroke-linecap:butt;stroke-linejoin:miter;stroke-opacity:0"
       d="m 273.2518,209.2522 c -2.80284,-0.33815 -3.2656,7.78859 -5.16123,12.1406 -0.17027,0.39092 -1.21206,2.29292 -0.71845,2.81497 0.30412,0.32166 0.98458,0.21636 1.2887,0.538 0.49536,0.52392 1.36377,0.25645 2.05117,0.24446 0.37233,-0.006 0.69623,-2.47259 0.96935,-3.0996 0.42433,-0.97419 3.62816,-12.01989 3.62163,-12.39396 -0.007,-0.41764 -0.25635,-0.82111 -0.53113,-1.11172 -0.41215,-0.43591 -1.03522,0.5364 -1.52004,0.86725 z"
       id="path4264"
       inkscape:connector-curvature="0"
       inkscape:export-filename="/home/substack/media/vector/music.png"
       inkscape:export-xdpi="117.99651"
       inkscape:export-ydpi="117.99651" />
    <path
       style="fill:#6c5353;fill-opacity:1;stroke:#ffffff;stroke-width:1.06017804px;stroke-linecap:butt;stroke-linejoin:miter;stroke-opacity:0"
       d="m 280.41378,209.12721 c -0.74509,0.15032 -1.68629,0.77018 -2.02672,1.15636 -0.61842,0.70156 -4.15286,11.27615 -4.14298,11.84257 0.0103,0.58971 -1.0105,2.23113 -0.46267,2.81052 0.71378,0.75491 2.25487,-0.91505 2.80874,-0.32927 0.0407,0.0431 0.45727,0.62409 0.77224,0.26677 0.62304,-0.70682 4.88462,-13.32901 4.87611,-13.81708 -0.008,-0.44307 0.68981,-2.29531 0.20689,-2.80605 -0.50699,-0.5362 -1.98273,0.83459 -2.03161,0.87618 z"
       id="path4266"
       inkscape:connector-curvature="0"
       inkscape:export-filename="/home/substack/media/vector/music.png"
       inkscape:export-xdpi="117.99651"
       inkscape:export-ydpi="117.99651" />
    <path
       style="fill:#6c5353;fill-opacity:1;stroke:#ffffff;stroke-width:1.06150877px;stroke-linecap:butt;stroke-linejoin:miter;stroke-opacity:0"
       d="m 285.7951,209.59731 c -2.26223,1.37888 -1.30979,5.78618 -2.68619,7.35154 -0.1676,0.19062 -1.73896,8.35584 -1.64343,8.45713 0.15742,0.16691 1.29214,-0.0225 1.53471,-0.0268 0.52761,-0.009 0.92915,0.37546 1.27892,-0.0223 0.81538,-0.92732 0.32805,-3.09227 0.94471,-4.51166 0.80195,-1.84592 3.24223,-10.89696 2.61266,-11.56449 -0.49539,-0.52523 -1.36991,0.15678 -2.04138,0.31658 z"
       id="path4268"
       inkscape:connector-curvature="0"
       inkscape:export-filename="/home/substack/media/vector/music.png"
       inkscape:export-xdpi="117.99651"
       inkscape:export-ydpi="117.99651" />
    <path
       style="fill:#6c5353;fill-opacity:1;stroke:#ffffff;stroke-width:1.10031724px;stroke-linecap:butt;stroke-linejoin:miter;stroke-opacity:0"
       d="m 297.33872,210.90233 c -0.30471,-0.39392 -1.99076,1.45895 -1.95011,3.78818 0.0243,1.39237 -0.52953,2.66631 -0.50571,4.03113 0.0264,1.51247 -1.09439,3.30761 -1.06755,4.84539 0.0169,0.96634 -0.66979,2.30044 0.0515,2.94878 0.16941,0.1523 2.87739,-0.16673 2.87942,-0.0502 0.006,0.34201 -0.18187,-0.91498 -0.0187,-1.07229 0.36199,-0.34899 1.09401,-3.33019 1.08161,-4.04117 -0.039,-2.23324 6.7407,-14.64458 -0.47041,-10.44977 z"
       id="path4283"
       inkscape:connector-curvature="0"
       inkscape:export-filename="/home/substack/media/vector/music.png"
       inkscape:export-xdpi="117.99651"
       inkscape:export-ydpi="117.99651" />
    <path
       style="fill:#6c5353;fill-opacity:1;stroke:#ffffff;stroke-width:1.10031724px;stroke-linecap:butt;stroke-linejoin:miter;stroke-opacity:0"
       d="m 303.9661,211.05482 c -0.79012,0.12357 -2.29309,0.64052 -2.24274,3.52514 0.0397,2.27776 -2.15559,11.51941 -1.80973,11.83032 0.44999,0.40452 3.16804,-0.0172 3.15802,-0.59141 -0.0465,-2.66352 0.96498,-10.18937 2.08833,-12.3715 0.19057,-0.37018 0.91784,-2.07746 0.53377,-2.4227 -0.41382,-0.372 -1.15177,0.0201 -1.72765,0.0302 z"
       id="path4285"
       inkscape:connector-curvature="0"
       inkscape:export-filename="/home/substack/media/vector/music.png"
       inkscape:export-xdpi="117.99651"
       inkscape:export-ydpi="117.99651" />
    <path
       style="fill:#6c5353;fill-opacity:1;stroke:#ffffff;stroke-width:1.16778791px;stroke-linecap:butt;stroke-linejoin:miter;stroke-opacity:0"
       d="m 312.32884,211.25029 c 0.11347,-0.16617 -0.89107,0.0186 -1.74808,1.79073 -0.62302,1.28801 -1.22118,13.82958 -0.94015,14.09806 0.30563,0.29198 2.49254,-0.0435 2.96463,-0.0517 0.12207,-0.002 0.81226,0.0634 0.88936,-0.0155 0.39167,-0.40122 0.73879,-8.64581 0.71538,-9.987 -0.0183,-1.04978 -0.009,-6.62712 -0.70554,-6.44178 -0.42689,0.11351 -0.78373,0.40484 -1.1756,0.60725 z"
       id="path4287"
       inkscape:connector-curvature="0"
       inkscape:export-filename="/home/substack/media/vector/music.png"
       inkscape:export-xdpi="117.99651"
       inkscape:export-ydpi="117.99651" />
    <path
       style="fill:#6c5353;fill-opacity:1;stroke:#ffffff;stroke-width:1.16778791px;stroke-linecap:butt;stroke-linejoin:miter;stroke-opacity:0"
       d="m 318.851,211.13645 c -0.32716,-0.0169 -1.47448,0.47525 -1.41578,3.8385 0.0293,1.67684 -0.53518,3.31836 -0.5059,4.99609 0.0175,1.00472 -0.26794,1.63996 -0.2504,2.64468 0.046,2.63537 -0.93731,3.83014 1.84532,3.78158 0.50388,-0.009 1.13728,0.6261 1.48742,0.26741 0.44965,-0.46062 0.42098,-14.91675 0.33189,-14.96757 -0.46106,-0.26288 -0.99503,-0.37378 -1.49255,-0.56069 z"
       id="path4289"
       inkscape:connector-curvature="0"
       inkscape:export-filename="/home/substack/media/vector/music.png"
       inkscape:export-xdpi="117.99651"
       inkscape:export-ydpi="117.99651" />
    <path
       style="fill:#6c5353;fill-opacity:1;stroke:#ffffff;stroke-width:1.16778791px;stroke-linecap:butt;stroke-linejoin:miter;stroke-opacity:0"
       d="m 326.55389,210.70866 c -0.17489,-0.12641 -1.31898,-0.43996 -2.6528,0.9264 -0.17594,0.18023 0.0258,1.48155 0.0307,1.75968 0.0573,3.28351 -0.47065,7.01597 -0.41377,10.27508 0.007,0.42008 -0.22885,2.37688 0.0461,2.63952 0.20105,0.19207 0.4021,0.38415 0.60315,0.5762 0.0798,0.0763 0.76732,-0.0134 0.88939,-0.0155 2.22038,-0.0388 1.34533,-1.07963 2.33586,-2.09434 1.12338,-1.15079 -0.2295,-12.6341 -0.83861,-14.06702 z"
       id="path4291"
       inkscape:connector-curvature="0"
       inkscape:export-filename="/home/substack/media/vector/music.png"
       inkscape:export-xdpi="117.99651"
       inkscape:export-ydpi="117.99651" />
    <path
       style="fill:#6c5353;fill-opacity:1;stroke:#ffffff;stroke-width:1.21178567px;stroke-linecap:butt;stroke-linejoin:miter;stroke-opacity:0"
       d="m 336.63404,211.66557 c -0.42217,0.20298 -1.04688,0.99629 -1.2665,0.60892 -0.2196,-0.38737 1.47246,-1.00372 1.2665,-0.60892 -0.47037,0.90163 -1.71069,1.46039 -2.19331,2.38553 -0.71204,1.36492 1.40026,7.05681 1.43541,9.07058 0.004,0.23132 0.20408,1.62496 0.3499,1.75433 1.50285,1.33348 3.99771,1.10386 3.53145,1.112 -0.25556,0.004 -0.38718,-3.89013 -0.39598,-4.39419 -0.0427,-2.4476 -1.05235,-5.41578 -1.09063,-7.60957 -0.003,-0.19835 0.11903,-1.36409 -0.0256,-1.46659 -0.49064,-0.34769 -1.07417,-0.56806 -1.61124,-0.85209 z"
       id="path4306"
       inkscape:connector-curvature="0"
       inkscape:export-filename="/home/substack/media/vector/music.png"
       inkscape:export-xdpi="117.99651"
       inkscape:export-ydpi="117.99651" />
    <path
       style="fill:#6c5353;fill-opacity:1;stroke:#ffffff;stroke-width:1.21178567px;stroke-linecap:butt;stroke-linejoin:miter;stroke-opacity:0"
       d="m 342.02811,212.74506 c -4.07309,-0.66799 -2.63054,5.87863 -0.14002,10.2717 0.77487,1.36678 -0.0419,2.56178 1.01898,3.5031 0.162,0.14374 3.36405,0.37673 3.51609,0.23203 0.54007,-0.51397 -0.79356,-1.96835 -0.9985,-2.32982 -0.21962,-0.38739 0.19401,-1.07921 -0.0256,-1.46659 -1.97081,-3.47635 0.17187,-7.85872 -3.37095,-10.21042 z"
       id="path4308"
       inkscape:connector-curvature="0"
       inkscape:export-filename="/home/substack/media/vector/music.png"
       inkscape:export-xdpi="117.99651"
       inkscape:export-ydpi="117.99651" />
    <path
       style="fill:#6c5353;fill-opacity:1;stroke:#ffffff;stroke-width:1px;stroke-linecap:butt;stroke-linejoin:miter;stroke-opacity:0"
       d="m 353.26347,214.08722 c -3.38923,-0.11749 -1.49242,1.3204 -1.45771,3.30893 0.0286,1.6415 1.58271,7.73452 2.16542,8.29723 0.24824,0.23973 1.94435,-0.57222 2.52059,-0.29657 0.26461,0.12659 1.70042,0.55276 2.02441,0.21725 0.0492,-0.051 -0.8369,-1.84728 -1.04967,-2.25486 -1.44443,-2.76709 -0.52732,-7.95655 -2.44436,-9.80783 -0.44083,-0.42572 -1.19373,0.29835 -1.75868,0.53585 z"
       id="path4310"
       inkscape:connector-curvature="0"
       inkscape:export-filename="/home/substack/media/vector/music.png"
       inkscape:export-xdpi="117.99651"
       inkscape:export-ydpi="117.99651" />
    <path
       style="fill:#6c5353;fill-opacity:1;stroke:#ffffff;stroke-width:1px;stroke-linecap:butt;stroke-linejoin:miter;stroke-opacity:0"
       d="m 360.83406,213.70251 c -0.33814,-0.0783 -1.0927,0.10328 -1.01441,-0.23487 0.0783,-0.33813 1.36143,0.22881 1.01441,0.23487 -0.67858,0.0118 -1.55296,-0.70544 -2.02441,-0.21725 -0.67104,0.69488 1.06365,11.9499 1.47843,12.35046 0.12732,0.12295 1.73099,-0.53537 1.75868,-0.53585 0.44246,-0.008 2.50084,0.23801 2.7775,-0.0485 0.29354,-0.30396 -1.61525,-3.58242 -1.83801,-4.00915 -1.34576,-2.57806 0.13134,-4.78525 -2.15219,-7.53973 z"
       id="path4312"
       inkscape:connector-curvature="0"
       inkscape:export-filename="/home/substack/media/vector/music.png"
       inkscape:export-xdpi="117.99651"
       inkscape:export-ydpi="117.99651" />
    <path
       style="fill:#6c5353;fill-opacity:1;stroke:#ffffff;stroke-width:1px;stroke-linecap:butt;stroke-linejoin:miter;stroke-opacity:0"
       d="m 367.13333,212.83485 c -0.802,0.0609 -2.09051,-0.1488 -2.52059,0.29656 -0.2289,0.23703 0.54722,2.41016 0.55347,2.76868 0.0243,1.39328 -0.19325,4.99907 0.35826,6.05559 0.39842,0.76324 0.55116,2.02171 1.05407,2.50737 0.62001,0.59875 1.41249,-0.0247 2.01999,-0.0353 1.21621,-0.0212 2.11733,0.21563 2.02441,0.21725 -0.25169,0.004 -1.32404,-4.23256 -1.60313,-5.02355 -0.30411,-0.86187 -0.31837,-1.83016 -0.80598,-2.76428 -0.6532,-1.25132 -0.31431,-2.55458 -1.0805,-4.02236 z"
       id="path4314"
       inkscape:connector-curvature="0"
       inkscape:export-filename="/home/substack/media/vector/music.png"
       inkscape:export-xdpi="117.99651"
       inkscape:export-ydpi="117.99651" />
    <path
       style="fill:#6c5353;fill-opacity:1;stroke:#ffffff;stroke-width:1px;stroke-linecap:butt;stroke-linejoin:miter;stroke-opacity:0"
       d="m 378.24331,212.64095 c -0.33813,-0.0783 -1.0927,0.10328 -1.01441,-0.23488 0.0783,-0.33812 1.25551,-0.0149 1.01441,0.23488 -0.49619,0.51382 -2.27691,-0.21284 -2.77309,0.30097 -0.2212,0.22907 1.06384,3.50232 1.33301,4.01797 0.78615,1.50601 1.0328,6.45874 1.89529,7.29163 0.24738,0.2389 3.78297,-0.07 3.01677,-0.81037 -1.47817,-1.42748 -1.88499,-8.2569 -3.47198,-10.8002 z"
       id="path4316"
       inkscape:connector-curvature="0"
       inkscape:export-filename="/home/substack/media/vector/music.png"
       inkscape:export-xdpi="117.99651"
       inkscape:export-ydpi="117.99651" />
    <path
       style="fill:#6c5353;fill-opacity:1;stroke:#ffffff;stroke-width:1px;stroke-linecap:butt;stroke-linejoin:miter;stroke-opacity:0"
       d="m 382.79271,212.81412 c -0.33814,-0.0783 -1.0927,0.10328 -1.01441,-0.23487 0.0783,-0.33813 1.25551,-0.0149 1.01441,0.23487 -0.45484,0.471 -2.32266,-0.42252 -2.7775,0.0485 -0.23413,0.24247 3.11794,11.69952 3.23712,11.81461 0.24114,0.23287 0.63072,-0.20184 0.75309,-0.26572 0.58072,-0.30314 2.34001,0.40455 2.77749,-0.0485 0.07,-0.0725 -2.36548,-5.28816 -2.40469,-7.53534 -0.0267,-1.5273 -0.72406,-2.63298 -1.58551,-4.01355 z"
       id="path4318"
       inkscape:connector-curvature="0"
       inkscape:export-filename="/home/substack/media/vector/music.png"
       inkscape:export-xdpi="117.99651"
       inkscape:export-ydpi="117.99651" />
    <path
       style="fill:#6c5353;fill-opacity:1;stroke:#ffffff;stroke-width:1px;stroke-linecap:butt;stroke-linejoin:miter;stroke-opacity:0"
       d="m 392.3833,212.39416 c 0.13829,-0.0475 -0.91696,-0.59285 -2.01119,0.54026 -0.46826,0.48489 2.66368,7.28893 3.16661,7.7746 0.47416,0.45789 0.31262,2.0396 0.80157,2.51178 0.19352,0.18688 3.28,-0.19997 3.28249,-0.0573 0.001,0.0654 -0.87488,-0.94382 -1.03203,-1.24487 -0.77627,-1.48707 -0.83806,-2.58169 -1.58551,-4.01355 -0.89945,-1.72307 -0.57993,-3.93496 -2.62194,-5.51093 z"
       id="path4320"
       inkscape:connector-curvature="0"
       inkscape:export-filename="/home/substack/media/vector/music.png"
       inkscape:export-xdpi="117.99651"
       inkscape:export-ydpi="117.99651" />
    <path
       style="fill:#6c5353;fill-opacity:1;stroke:#ffffff;stroke-width:1px;stroke-linecap:butt;stroke-linejoin:miter;stroke-opacity:0"
       d="m 398.4521,212.7934 c -0.33814,-0.0783 -1.09269,0.10328 -1.0144,-0.23488 0.0783,-0.33812 1.36143,0.22882 1.0144,0.23488 -0.23916,0.004 -3.54681,-0.61525 -3.53058,0.3142 0.0137,0.78332 2.11486,3.35377 2.60872,4.75343 0.54196,1.53598 1.80448,5.46623 2.63516,6.26842 4.60888,0.0571 3.52248,-0.20683 1.9539,-3.82275 -1.92324,-3.68431 -0.23336,-4.19727 -3.6672,-7.5133 z"
       id="path4322"
       inkscape:connector-curvature="0"
       sodipodi:nodetypes="ccsssccc"
       inkscape:export-filename="/home/substack/media/vector/music.png"
       inkscape:export-xdpi="117.99651"
       inkscape:export-ydpi="117.99651" />
    <path
       style="fill:#6c5353;fill-opacity:1;stroke:#ffffff;stroke-width:1px;stroke-linecap:butt;stroke-linejoin:miter;stroke-opacity:0"
       d="m 404.76901,212.93573 c -0.33667,0.006 -1.00413,0.3543 -1.01001,0.0176 -0.006,-0.33667 1.34666,-0.0235 1.01001,-0.0176 -0.52105,0.009 -2.85448,-0.12888 -3.2781,0.30979 -0.19914,0.20622 1.14649,2.34837 1.30657,2.50296 1.15692,1.11723 0.98114,3.67816 2.10373,4.76224 0.71323,0.68877 0.70363,1.67247 1.30216,2.25047 0.0411,0.0397 1.11164,1.24348 1.03203,1.24487 -0.29589,0.005 3.78746,-0.0681 3.78749,-0.0661 0.004,0.25467 -1.39563,-0.9652 -2.05965,-2.23725 -0.86954,-1.66576 -1.20452,-4.14212 -2.36505,-5.26283 -0.0633,-0.0611 -1.67138,-3.25124 -1.82918,-3.50415 z"
       id="path4352"
       inkscape:connector-curvature="0"
       inkscape:export-filename="/home/substack/media/vector/music.png"
       inkscape:export-xdpi="117.99651"
       inkscape:export-ydpi="117.99651" />
    <path
       style="fill:#6c5353;fill-opacity:1;stroke:#ffffff;stroke-width:1px;stroke-linecap:butt;stroke-linejoin:miter;stroke-opacity:0"
       d="m 413.80992,211.72251 c -2.92123,0.125 -3.00996,1.15994 -0.48634,5.12779 0.61774,0.97126 1.18968,2.34788 1.81831,2.8589 0.69196,0.56251 1.44559,3.47643 2.19914,4.089 0.56398,0.45847 4.42201,-1.00791 2.80706,-2.32071 -0.0968,-0.0787 -3.40755,-5.95813 -3.41135,-5.99495 -0.19274,-1.8677 -1.465,-2.57168 -2.92682,-3.76003 z"
       id="path4367"
       inkscape:connector-curvature="0"
       inkscape:export-filename="/home/substack/media/vector/music.png"
       inkscape:export-xdpi="117.99651"
       inkscape:export-ydpi="117.99651" />
    <path
       style="fill:#6c5353;fill-opacity:1;stroke:#ffffff;stroke-width:1px;stroke-linecap:butt;stroke-linejoin:miter;stroke-opacity:0"
       d="m 417.17927,212.39033 c 0.77139,0.0644 0.46596,-1.63484 2.18305,-0.98693 1.37809,0.52 4.68244,4.62633 5.72404,6.26402 0.63609,1.00013 0.73227,1.99313 1.3159,2.91076 0.24806,0.39002 1.41731,2.21982 1.26406,2.40834 -0.15019,0.18475 -0.85463,-0.0811 -1.00482,0.10365 -0.52982,0.65177 -2.77359,0.73703 -3.26565,0.33702 -0.66167,-0.53787 -1.56783,-3.5758 -2.19913,-4.08901 -1.94555,-1.58154 -2.6004,-4.24805 -4.01745,-6.94789 z"
       id="path4408"
       inkscape:connector-curvature="0"
       inkscape:export-filename="/home/substack/media/vector/music.png"
       inkscape:export-xdpi="117.99651"
       inkscape:export-ydpi="117.99651" />
    <path
       style="fill:#6c5353;fill-opacity:1;stroke:#ffffff;stroke-width:1px;stroke-linecap:butt;stroke-linejoin:miter;stroke-opacity:0"
       d="m 429.00015,212.00768 c 0.3352,-0.0901 0.91556,-0.60533 1.0056,-0.27013 0.0901,0.3352 -1.2467,0.51979 -1.0056,0.27013 0.0911,-0.0943 2.27641,-1.27711 2.76428,-0.80598 0.88964,0.85912 2.16703,1.09971 3.06525,1.96712 1.69279,1.63472 3.10189,4.23383 4.41148,6.74258 0.21971,0.4209 2.14908,2.40171 1.56788,3.00355 -0.32811,0.33977 -2.49888,0.93293 -2.76428,0.80597 -1.32558,-0.63412 -2.77834,-4.42073 -4.14135,-5.73698 -1.8861,-1.8214 -3.77444,-3.29108 -4.90326,-5.97626 z"
       id="path4436"
       inkscape:connector-curvature="0"
       inkscape:export-filename="/home/substack/media/vector/music.png"
       inkscape:export-xdpi="117.99651"
       inkscape:export-ydpi="117.99651" />
    <path
       style="fill:#6c5353;fill-opacity:1;stroke:#ffffff;stroke-width:1px;stroke-linecap:butt;stroke-linejoin:miter;stroke-opacity:0"
       d="m 436.32705,212.13238 c 2.66307,-1.88748 3.31501,0.22235 6.11288,2.92423 0.38146,0.36838 0.40689,1.38591 0.78834,1.75428 1.05335,1.01721 2.13253,2.6209 2.84801,3.99152 0.24583,0.47095 1.73593,2.31541 1.55907,2.49855 -0.22616,0.23421 -1.91083,0.0333 -2.2725,0.0397 -0.39619,0.007 -1.41484,0.61967 -1.76309,0.28335 -0.5719,-0.55227 -6.97751,-9.04952 -6.98054,-9.2235 -0.007,-0.42084 -0.85046,-0.58268 -0.77513,-0.99678 0.0811,-0.446 0.32197,-0.84754 0.48296,-1.27131 z"
       id="path4438"
       inkscape:connector-curvature="0"
       inkscape:export-filename="/home/substack/media/vector/music.png"
       inkscape:export-xdpi="117.99651"
       inkscape:export-ydpi="117.99651" />
    <path
       style="fill:#6c5353;fill-opacity:1;stroke:#ffffff;stroke-width:1px;stroke-linecap:butt;stroke-linejoin:miter;stroke-opacity:0"
       d="m 442.19823,212.76399 c 4.22867,-3.57147 4.96742,1.07668 8.06335,3.8343 0.57206,0.50957 0.87265,1.73387 1.39172,2.19621 0.36419,0.32439 0.49416,1.39672 0.85834,1.72112 0.12906,0.11495 1.72726,2.08798 1.4063,2.44831 -0.14841,0.16664 -3.1216,0.8066 -3.24838,0.69366 -1.94767,-2.46463 -6.30902,-8.56777 -8.47133,-10.8936 z"
       id="path4453"
       inkscape:connector-curvature="0"
       sodipodi:nodetypes="ccssccc"
       inkscape:export-filename="/home/substack/media/vector/music.png"
       inkscape:export-xdpi="117.99651"
       inkscape:export-ydpi="117.99651" />
    <path
       style="fill:#6c5353;fill-opacity:1;stroke:#ffffff;stroke-width:1px;stroke-linecap:butt;stroke-linejoin:miter;stroke-opacity:0"
       d="m 463.42228,211.26156 c 0.52894,0.0969 3.8317,3.17364 5.80379,5.07807 1.14199,1.10281 2.0693,2.76044 3.27299,3.33625 0.62102,0.29708 2.55112,1.76145 2.89411,2.09268 0.0495,0.0478 1.27583,0.31477 0.90518,0.69859 -0.26428,0.27367 -2.06001,0.0359 -2.49962,0.0436 -1.18667,0.0207 -3.04523,0.31379 -3.93109,-0.10999 -0.98773,-0.4725 -2.98113,-4.24182 -4.01833,-5.10922 -1.75872,-1.47081 -6.0747,-4.81309 -5.2775,-5.62305 -0.77619,-0.74957 1.35982,-1.55739 2.85047,-0.40695 z"
       id="path4483"
       inkscape:connector-curvature="0"
       sodipodi:nodetypes="cssssssscc"
       inkscape:export-filename="/home/substack/media/vector/music.png"
       inkscape:export-xdpi="117.99651"
       inkscape:export-ydpi="117.99651" />
    <path
       style="fill:#6c5353;fill-opacity:1;stroke:#ffffff;stroke-width:1.08090687px;stroke-linecap:butt;stroke-linejoin:miter;stroke-opacity:0"
       d="m 455.47134,212.63942 c -0.2938,0.49209 1.00691,-1.165 1.76081,-0.95308 2.72252,0.7653 7.28994,5.91223 9.23594,8.47885 0.40734,0.53726 1.77667,1.62857 1.60685,2.26174 -0.20715,0.7723 -3.55033,0.89046 -3.96916,0.60382 -2.43545,-1.66671 -4.05985,-4.6045 -6.24407,-6.09929 -0.93811,-0.64201 -1.51127,-2.52834 -2.35449,-3.10542 -0.32176,-0.22019 -0.0364,-0.7909 -0.0359,-1.18662 z"
       id="path4496"
       inkscape:connector-curvature="0"
       inkscape:export-filename="/home/substack/media/vector/music.png"
       inkscape:export-xdpi="117.99651"
       inkscape:export-ydpi="117.99651" />
    <path
       style="fill:#6c5353;fill-opacity:1;stroke:#ffffff;stroke-width:1.06647372px;stroke-linecap:butt;stroke-linejoin:miter;stroke-opacity:0"
       d="m 476.52057,212.75018 c 0.26013,0.18374 0.96861,0.2969 0.78037,0.55122 -0.18825,0.25433 -0.92884,-0.8293 -0.78037,-0.55122 0.24022,0.44992 3.06953,3.02075 3.71905,3.32415 0.86743,0.40521 1.00621,1.87509 1.58372,2.42002 0.71955,0.67898 1.34385,1.26805 1.95912,1.84863 0.47013,0.4436 0.41137,1.12865 0.79679,1.49234 1.29361,1.22064 2.43736,0.71058 4.44355,0.67556 0.39628,-0.007 1.9307,0.34502 1.93285,0.34285 0.0384,-0.0389 0.0233,-0.90366 -0.0164,-0.94113 -1.39314,-1.31456 -2.40793,-2.82749 -3.9281,-4.26191 -0.94943,-0.89588 -2.93339,-2.11706 -4.28706,-2.74939 -1.13176,-0.52869 -1.06193,-1.55742 -1.77306,-2.22844 -0.46628,-0.43997 -1.4179,-0.78256 -1.94927,-1.28395 -0.75723,-0.71452 -2.1835,1.1201 -2.48116,1.36127 z"
       id="path4511"
       inkscape:connector-curvature="0"
       inkscape:export-filename="/home/substack/media/vector/music.png"
       inkscape:export-xdpi="117.99651"
       inkscape:export-ydpi="117.99651" />
    <path
       style="fill:#6c5353;fill-opacity:1;stroke:#ffffff;stroke-width:1.06647372px;stroke-linecap:butt;stroke-linejoin:miter;stroke-opacity:0"
       d="m 483.46501,213.19382 c 2.14069,1.0022 3.79185,2.78442 5.09041,4.61818 0.35373,0.49953 1.07151,0.87393 1.56073,1.10246 0.92668,0.43288 1.91404,1.9912 2.35423,2.40657 0.60002,0.56617 0.47608,1.34253 1.57387,1.85535 0.35651,0.16652 5.19819,-0.24752 5.20093,-0.0908 0.003,0.1984 -0.398,-0.0926 -0.58116,-0.17815 -1.55252,-0.72523 -2.8629,-2.51629 -3.91496,-3.509 -0.38897,-0.36704 -1.30427,-0.30509 -1.74678,-0.72265 -0.69014,-0.65122 -1.69125,-1.89312 -2.16818,-2.78638 -0.21522,-0.4031 -4.50717,-3.88271 -4.89123,-4.24511 -1.09113,-1.02958 -2.49689,0.45889 -2.47786,1.5495 z"
       id="path4526"
       inkscape:connector-curvature="0"
       inkscape:export-filename="/home/substack/media/vector/music.png"
       inkscape:export-xdpi="117.99651"
       inkscape:export-ydpi="117.99651" />
    <path
       style="fill:#6c5353;fill-opacity:1;stroke:#ffffff;stroke-width:1.06647372px;stroke-linecap:butt;stroke-linejoin:miter;stroke-opacity:0"
       d="m 490.2201,213.82906 c 1.77646,1.33968 3.28828,3.30963 4.88793,4.05688 1.0678,0.4988 1.73929,2.19657 2.36081,2.78302 0.77136,0.72787 2.19962,1.02457 2.73291,2.0234 0.13908,0.26049 0.63064,0.59506 0.78364,0.73945 0.0162,0.0152 4.2897,0.21986 5.03324,0.001 1.51035,-0.44366 0.0554,-0.93867 -0.0414,-1.02999 -1.14473,-1.08017 -3.18742,-1.4181 -3.90181,-2.75612 -0.14443,-0.2705 -0.78255,-0.36816 -0.97298,-0.54788 -1.13888,-1.07462 -2.20319,-2.07891 -3.52642,-3.32751 -1.26629,-1.19485 -3.4979,-2.37499 -4.48955,-3.31071 -0.13301,-0.1255 -2.07247,-0.77618 -2.32138,-0.52432 -0.40464,0.40942 -0.56083,0.98649 -0.54502,1.89232 z"
       id="path4528"
       inkscape:connector-curvature="0"
       sodipodi:nodetypes="cssccscccscsc"
       inkscape:export-filename="/home/substack/media/vector/music.png"
       inkscape:export-xdpi="117.99651"
       inkscape:export-ydpi="117.99651" />
    <path
       style="fill:#6c5353;fill-opacity:1;stroke:#ffffff;stroke-width:1px;stroke-linecap:butt;stroke-linejoin:miter;stroke-opacity:0"
       d="m 500.68516,213.20926 c -0.1882,0.0235 -0.32549,0.0676 -0.43525,0.13261 -0.0404,0.0239 -0.0873,0.0617 -0.12334,0.0959 0.0171,-0.023 0.0472,-0.0433 0.0301,-0.063 -0.0896,-0.10331 -0.20284,0.13829 -0.30809,0.25541 -0.0123,0.003 -0.0178,0.0309 -0.0307,0.0317 -0.13592,1.06995 1.02396,1.48165 1.66074,2.03383 1.56995,1.36138 3.81945,2.04471 5.53118,3.52902 0.3948,0.34236 0.97337,0.33568 1.38733,0.69465 1.31523,1.1405 2.72792,2.45117 4.00016,3.55574 -0.009,0.1025 -0.003,0.18115 0.035,0.21817 0.46346,0.44756 2.86401,0.075 3.65787,0.0612 0.21822,-0.004 2.16071,0.23635 2.15592,-0.0376 -0.001,-0.0587 -0.88197,-0.62673 -1.80224,-1.18748 0.01,-0.0102 0.0212,-0.0209 0.0307,-0.0317 0.43545,-0.50217 -2.28018,-1.90875 -2.47258,-1.98841 -0.92927,-0.38483 -1.74569,-0.7395 -2.42987,-1.3328 -0.14166,-0.12283 -0.48763,-0.11623 -0.62927,-0.23905 -1.00245,-0.86927 -2.38803,-1.052 -3.3776,-1.91011 -0.31755,-0.27536 -1.04614,-0.21413 -1.38406,-0.50717 -0.38848,-0.33686 -0.97065,-0.51796 -1.3906,-0.88212 l -2.47585,-2.17588 c -0.25148,-0.21808 -1.06505,-0.32341 -1.62966,-0.25285 z"
       id="path4588"
       inkscape:connector-curvature="0"
       inkscape:export-filename="/home/substack/media/vector/music.png"
       inkscape:export-xdpi="117.99651"
       inkscape:export-ydpi="117.99651" />
    <path
       style="fill:#6c5353;fill-opacity:1;stroke:#ffffff;stroke-width:1px;stroke-linecap:butt;stroke-linejoin:miter;stroke-opacity:0"
       d="m 156.24916,221.0617 c -0.94018,-0.67321 -3.22105,0.36487 -3.92035,-0.31045 -0.33685,-0.32528 2.35563,-2.69636 2.72462,-3.07846 1.65828,-1.7172 4.09499,-3.34077 5.72155,-5.0251 0.56517,-0.58525 2.14333,-1.19122 2.8707,-1.94442 0.4457,-0.46154 1.35358,-0.37342 1.75428,-0.78836 0.12616,-0.13064 0.21093,-0.3649 0.49619,-0.5138 0.32165,-0.16792 1.78697,-1.74974 2.37891,-1.17812 0.19268,0.18607 0.19929,0.56482 0.39196,0.75089 0.0957,0.0924 0.63679,0.30622 0.63787,0.36774 0.006,0.31636 -1.4591,1.12533 -1.86731,1.54804 -1.15201,1.19294 -2.60276,2.5667 -3.59955,3.5989 -0.75754,0.78444 -1.83365,1.1276 -2.6182,1.94001 -0.58814,0.60903 -1.9183,1.57467 -2.36789,1.80936 -1.04542,0.54572 -1.33612,2.29129 -2.60278,2.82377 z"
       id="path4593"
       inkscape:connector-curvature="0"
       inkscape:export-filename="/home/substack/media/vector/music.png"
       inkscape:export-xdpi="117.99651"
       inkscape:export-ydpi="117.99651" />
    <g
       id="g7963"
       inkscape:export-filename="/home/substack/media/vector/music.png"
       inkscape:export-xdpi="117.99651"
       inkscape:export-ydpi="117.99651">
      <path
         inkscape:connector-curvature="0"
         id="path5971"
         d="m 277.51339,76.25 c -4.08172,0.14038 -10.07506,4.264603 -13.03125,5.25 -5.57668,1.858893 -8.34254,5.811292 -12.125,9.59375 -11.46189,11.46189 -11.38392,29.52233 1.03125,41.9375 1.75094,1.75094 3.83697,3.37261 6,4.8125 0.50661,-0.42761 1.61942,-0.83196 3,-1.21875 -0.67153,0.0813 -1.87134,0.37064 -2.28125,0.46875 4.20934,-1.55462 8.43294,-3.07737 12.65625,-4.59375 -0.39933,0.19339 -0.7854,0.37345 -1.1875,0.5625 0.46032,-0.0704 1.00892,-0.11565 1.15625,-0.28125 0.13999,-0.15736 0.33684,-0.32532 0.53125,-0.46875 -0.11147,0.04 -0.23229,0.0537 -0.34375,0.0937 0.29515,-0.14383 0.58782,-0.29138 0.875,-0.4375 0.38857,-0.22781 0.79088,-0.44724 1.25,-0.65625 1.19133,-0.66836 2.21355,-1.35411 2.84375,-2.0625 0.11227,-0.1262 3.37095,-2.77797 3.4375,-2.71875 0.0587,0.0523 -0.74713,0.82328 -1.6875,1.65625 0.0918,-0.078 0.21769,-0.11764 0.34375,-0.125 0.1849,-0.0108 -0.13371,0.0895 -0.40625,0.21875 -0.2292,0.25063 -0.398,0.65109 -0.625,0.90625 -0.18628,0.20939 -0.43504,0.40759 -0.71875,0.59375 -0.45763,0.56413 -0.97663,1.10171 -1.65625,1.34375 -0.19868,0.0708 -0.3951,0.14791 -0.59375,0.21875 -2.44574,2.43585 -8.92737,4.41222 -10.8125,6.53125 -0.14555,0.1636 -1.72812,0.67446 -3.46875,1.40625 1.12909,0.67068 2.22202,1.28288 3.28125,1.8125 5.15392,2.57696 24.98327,-3.26452 28.28125,-6.5625 1.77521,-1.77521 4.0059,-5.5059 6.0625,-7.5625 1.91911,-1.91911 3.5792,-8.65841 5.0625,-11.625 0.54667,-1.09335 -0.28163,-4.78087 0.5,-5.5625 2.01124,-2.01124 1.16154,-9.22116 0,-12.125 0.0256,-10.299175 -2.72397,-15.199659 -17.6875,-20.1875 -2.53951,-0.846505 -5.48987,-0.173707 -8.0625,-1.03125 -0.49074,-0.163581 -1.0419,-0.207554 -1.625,-0.1875 z m 0.71875,53.53125 c 0.32678,-0.40282 0.60125,-0.82321 0.90625,-1.1875 -0.96848,0.84857 -1.54353,1.33804 -2.09375,1.8125 0.42779,-0.20411 0.84587,-0.40084 1.1875,-0.625 z m 0.90625,-1.1875 c 0.0905,-0.0793 0.16136,-0.14068 0.25,-0.21875 -0.0378,0.0249 -0.10288,0.0376 -0.125,0.0625 -0.0416,0.0468 -0.0838,0.10699 -0.125,0.15625 z m 0.25,-0.21875 c 0.0542,-0.0357 0.11729,-0.0605 0.1875,-0.0937 0.025,-0.0274 0.0354,-0.0707 0.0625,-0.0937 -0.0807,0.0715 -0.16685,0.11427 -0.25,0.1875 z m -7.8125,4.6875 c -0.26644,0.0407 -0.50848,0.0604 -0.59375,0.15625 -0.0723,0.0813 -0.16582,0.1723 -0.25,0.25 0.28292,-0.13246 0.55718,-0.27151 0.84375,-0.40625 z m -0.84375,0.40625 c -1.31758,0.61689 -2.6135,1.2174 -3.59375,1.78125 1.46314,-0.49235 2.79542,-1.04432 3.59375,-1.78125 z m -3.6875,1.8125 c -1.4814,0.49262 -3.07347,0.92576 -4.46875,1.3125 1.54348,-0.0902 3.2,-0.6025 4.46875,-1.3125 z"
         style="fill:#c83737;fill-opacity:1;stroke:#ffffff;stroke-width:1px;stroke-linecap:butt;stroke-linejoin:miter;stroke-opacity:0" />
      <path
         inkscape:connector-curvature="0"
         id="path5927"
         d="m 422.32143,221.11218 c 0.36615,2.71659 -5.05252,7.80463 -6.07143,6.78572 -0.80214,-0.80214 -1.63944,-1.63944 -2.32143,-2.32143 -0.2292,-0.2292 -0.18547,-0.72119 -0.35714,-0.89286 -0.74636,-0.74636 -1.16702,-1.70273 -2.14286,-2.67857 -0.44912,-0.44912 -1.45633,-0.74205 -1.96429,-1.25 -0.14881,-0.14881 -0.56547,-0.0298 -0.71428,-0.17857 -0.93517,-0.93517 -3.09264,-1.12836 -4.10714,-2.14286 -0.43226,-0.43225 -3.22811,-0.37096 -3.75,-0.89286 -0.2245,-0.22449 -0.50479,-0.68335 -0.71429,-0.89285 -1.15107,-1.15107 3.00386,-5.03186 5,-3.03572 0.14881,0.14881 0.74405,-0.14881 0.89286,0 0.88149,0.8815 4.02264,0.62978 4.82143,1.42857 0.47619,0.47619 1.30952,0.59524 1.78571,1.07143 0.21045,0.21045 0.71429,0.83333 0.71429,0.53572 0,-0.4306 -4.68491,-3.88653 -3.21429,-5.35715 0.52541,-0.52541 1.61262,-0.53571 2.5,-0.53571 2.79556,0 3.87924,1.37924 5.35714,2.85714 0.38013,0.38012 0.54819,1.44105 0.89286,1.78572 0.2373,0.2373 0.29336,1.54336 0.71429,1.96428 0.22898,0.22898 -0.0356,-2.82151 0,-2.85714 0.21523,-0.21523 0.1694,-0.69596 0.35714,-1.07143 0.84947,-1.69894 2.33418,-3.39286 4.28571,-3.39286 0.87916,0 1.99079,0.053 2.32143,0.71429 0.5918,1.18359 0.42177,5.11395 -0.35714,5.89286 -0.40287,0.40287 -0.21255,1.60714 -0.35714,1.60714 -0.119,0 1.05866,-1.58162 1.07142,-1.60714 0.65812,-1.31624 3.18861,-4.13283 4.28572,-3.03572 0.17613,0.17613 0.0484,0.76272 0.17857,0.89286 0.24585,0.24584 0.17857,0.75317 0.17857,1.25 0,3.49345 -3.61989,5.22703 -5.53571,7.14286 -1.12016,1.12015 -3.55364,-1.81845 -3.75,-1.78572 -0.29939,0.0499 -0.0428,0.62139 -0.17857,0.89286 -0.096,0.19196 -0.35715,0.23809 -0.53572,0.35714"
         style="fill:#c83737;fill-opacity:1;stroke:#ffffff;stroke-width:1px;stroke-linecap:butt;stroke-linejoin:miter;stroke-opacity:0" />
      <path
         inkscape:connector-curvature="0"
         id="path5374"
         d="m 305.71428,414.50503 c -5.21175,-5.08913 -13.38595,-5.52881 -17.85714,-10 -0.59524,-0.59523 -2.2619,-0.11904 -2.85714,-0.71428 -1.60386,-1.60386 -15.4099,-13.87582 -12.14286,-17.14286 1.57005,-1.57005 2.91525,-3.62953 4.28572,-5 2.35097,-2.35097 25.46229,0.4623 26.42857,1.42857 1.71851,1.71851 5.43115,4.71687 7.14285,6.42857 0.83334,0.83334 0.59524,2.7381 1.42858,3.57143 7.75552,7.75552 9.54786,21.42857 -6.42858,21.42857 z"
         style="fill:#ffffff;fill-opacity:1;stroke:#ffffff;stroke-width:1px;stroke-linecap:butt;stroke-linejoin:miter;stroke-opacity:0" />
      <path
         inkscape:connector-curvature="0"
         id="path5376"
         d="m 368.20089,369.8125 c -3.72181,-0.14661 -7.38822,1.01322 -10.34375,3.96875 -1.03212,1.03211 0.0131,2.81759 -0.71875,4.28125 -3.46733,6.93467 2.07951,20.2793 9.625,26.3125 3.23129,-0.24052 9.70103,0.26769 10.34375,-0.375 0.086,-0.086 1.70059,-0.64495 3.28125,-1.15625 1.91435,-6.00354 5.26413,-15.62798 3.1875,-19.78125 -1.12609,-2.25218 -0.74599,-5.71474 -2.15625,-7.125 -3.56646,-3.56646 -8.43356,-5.9365 -13.21875,-6.125 z"
         style="fill:#ffffff;fill-opacity:1;stroke:#ffffff;stroke-width:1px;stroke-linecap:butt;stroke-linejoin:miter;stroke-opacity:0" />
      <path
         inkscape:connector-curvature="0"
         id="path6527"
         d="m 373.73214,370 c -0.7984,0.004 -2.01789,0.40625 -2.40625,0.40625 -1.24158,0 -12.05022,1.67523 -12.65625,2.28125 -0.9857,0.9857 -1.4277,4.93184 -1.625,8.0625 -0.006,0.0235 -0.0251,0.0386 -0.0312,0.0625 -0.77353,3.01759 -0.16205,9.28125 0.65625,9.28125 0.35791,0 0.81069,-7.20335 0.59375,-8.9375 0.44558,-1.46524 0.85741,-2.85741 1.6875,-3.6875 0.41589,-0.4159 -0.0168,-1.99762 0.25,-2.53125 0.51694,-1.03386 5.74289,-1.18039 6.5625,-2 0.0948,-0.0948 5.01885,0.64682 5.8125,0.25 0.40675,-0.20338 1.744,-0.506 1.75,-0.5 0.77068,0.77068 3.0574,2.27615 4.0625,3.28125 l 2.53125,2.53125 c 0.67344,0.67343 0.82656,1.82656 1.5,2.5 0.61849,0.61849 0.56702,2.78125 0.75,2.78125 0.25981,0 -0.25,-2.49555 -0.25,-2.53125 0,-1.96098 -1.43717,-4.68716 -2.78125,-6.03125 -1.57238,-1.57238 -4.02845,-3.27845 -5.8125,-5.0625 -0.1199,-0.1199 -0.32762,-0.15744 -0.59375,-0.15625 z"
         style="fill:#c83737;fill-opacity:1;stroke:#ffffff;stroke-width:1px;stroke-linecap:butt;stroke-linejoin:miter;stroke-opacity:0" />
      <path
         inkscape:connector-curvature="0"
         id="path5378"
         d="m 300.71428,400.21932 c 0.69848,3.74414 5.52385,13.76187 14.28572,5 1.09167,-1.09167 0.76188,-4.3809 2.14286,-7.14286 1.08465,-2.1693 -1.42858,-4.87245 -1.42858,-7.14285 0,-3.75368 -2.94062,-12.94063 -5,-15 -0.71281,-0.71282 -5.95878,-25.24451 -7.14285,-26.42858 -1.91569,-1.91568 0.29374,-8.27768 -1.42857,-10 -0.79517,-0.79516 1.46992,-9.36842 2.14285,-10.71428 1.56366,-3.12731 0.8582,-16.57248 2.85715,-18.57143 2.27358,-2.27358 1.67676,-12.39105 3.57142,-14.28571 0.43152,-0.43152 4.25933,-10.74067 3.57143,-11.42858 -2.21862,-2.21862 -4.59793,-6.0265 -7.14285,-8.57142 -6.58525,-6.58525 -13.57143,16.53011 -13.57143,23.57142 0,3.12991 -4.64767,37.15249 -5.71429,39.28572 -0.75716,1.51433 0,5.41224 0,7.14286 0,9.0428 -0.88622,22.6852 4.28572,27.85714 1.30417,1.30417 1.3177,7.74628 2.85714,9.28571 1.75038,1.75038 0.32401,7.07659 1.42857,9.28572 1.42238,2.84475 2.64828,4.58227 4.28571,7.85714 z"
         style="fill:#c83737;fill-opacity:1;stroke:#ffffff;stroke-width:1px;stroke-linecap:butt;stroke-linejoin:miter;stroke-opacity:0" />
      <path
         inkscape:transform-center-y="-53.33046"
         inkscape:transform-center-x="8.975097"
         sodipodi:nodetypes="ccsssssssssssssscc"
         inkscape:connector-curvature="0"
         id="path5380"
         d="m 365.45929,394.13908 c 3.02322,3.16894 7.94304,5.27859 10.92825,2.85026 1.29191,-1.47661 1.86965,-5.20515 2.47041,-5.89182 1.27661,-1.45912 0.57491,-7.23014 -0.61815,-9.26511 -0.96936,-1.65343 0.54141,-4.76089 -0.42795,-6.41431 -1.78294,-3.04114 -2.57751,-13.66379 -4.60961,-15.44168 -1.54897,-1.35521 -1.36234,-4.85012 -2.61359,-6.98436 -8.33772,-14.2215 -8.67045,-22.65821 -9.88492,-40.86118 -0.24277,-3.63882 -1.27792,-9.27806 0.6646,-11.49832 0.96761,-1.10595 0.26429,-7.97257 1.51996,-9.40776 1.63942,-1.87381 1.73494,-17.94397 -1.37895,-20.66834 -1.71021,-1.49628 -4.86435,-1.10721 -7.22212,-0.9499 -11.57837,0.77248 -11.26482,13.56507 -10.59432,23.61478 0.8576,12.85407 2.51778,40.29551 7.55716,48.8911 0.75394,1.28599 -0.4211,3.70291 0.33285,4.98891 2.77327,4.73032 2.79043,11.07555 5.32231,15.39412 1.04664,1.78525 1.49783,11.71251 3.01778,13.04232 1.81129,6.36103 1.44393,12.18198 5.53629,18.60129 z"
         style="fill:#c83737;fill-opacity:1;stroke:#ffffff;stroke-width:1px;stroke-linecap:butt;stroke-linejoin:miter;stroke-opacity:0" />
      <path
         inkscape:connector-curvature="0"
         id="path5408"
         d="m 330.48214,238.40625 c -0.77263,0.0342 -1.4494,0.14657 -1.90625,0.375 -7.71197,3.85599 -12.03492,3.87166 -16.9375,6.71875 -0.79434,1.09922 -1.65941,2.13072 -1.9375,2.6875 -0.64581,1.29298 -1.38886,4.8881 -2.28125,5.78125 -0.46253,0.46293 -0.63696,5.44874 -1.5,6.3125 -0.29607,0.29641 0.0361,1.71365 -0.28125,2.03125 -0.39819,0.39853 -4.03164,11.69724 -4.03125,12.625 1.1e-4,0.25015 -0.19087,0.81176 -0.5,1.4375 2.40429,6.71792 7.06395,10.08537 11.5625,13.34375 0.45995,-1.08948 1.40965,-2.5034 1.625,-2.71875 0.15938,-0.15938 0.30329,-0.37956 0.4375,-0.65625 0.36185,-1.36631 0.55331,-3.55331 1.34375,-4.34375 0.20924,-0.63009 0.44825,-1.167 0.71875,-1.4375 0.24004,-0.24004 3.56946,2.53821 3.90625,2.875 1.03561,1.03561 4.58861,0.99486 5.71875,2.125 0.86516,0.86516 16.19323,-0.0995 16.4375,-0.34375 0.21737,-0.21736 2.3166,-1.0625 2.5,-1.0625 0.40719,0 -1.0625,7.81876 -1.0625,8.21875 0,1.1632 -0.14301,2.21401 -0.28125,3.28125 0.34596,-0.14485 0.69866,-0.28683 1,-0.4375 1.05337,-0.52668 4.19923,0.80077 5,0 2.38976,-2.38976 8.67872,-2.27246 11.40625,-5 0.75173,-0.75173 1.43946,-1.58833 2.09375,-2.4375 -2.63788,-8.16633 1.125,-15.38503 1.125,-25.40625 0,-4.96188 -2.46565,-15.26019 0.21875,-18.40625 -5.36482,-3.16447 -12.32527,-4.46875 -20.5625,-4.46875 -1.73061,0 -5.64192,0.75716 -7.15625,0 -1.11934,-0.55967 -4.33835,-1.19624 -6.65625,-1.09375 z m 20.375,17.84375 c -0.31083,0.62166 -1.69871,3.77123 -2.28125,4.0625 -2.3942,1.1971 -12.37273,2.53352 -14.65625,0.25 -1.14115,-1.14115 0.7332,-2.44356 1.9375,-3.21875 -0.0597,0.004 -0.12117,0.008 -0.15625,-0.0625 -0.16835,-0.33672 1.2662,-0.79745 1,-0.53125 l 14.15625,-0.5 z m -14.15625,0.5 c -0.11513,0.11513 -0.42465,0.34456 -0.8125,0.59375 0.22886,-0.0552 0.55996,-0.46749 0.8125,-0.59375 z"
         style="fill:#c83737;fill-opacity:1;stroke:#ffffff;stroke-width:1px;stroke-linecap:butt;stroke-linejoin:miter;stroke-opacity:0" />
      <path
         sodipodi:nodetypes="cssssscscsssc"
         inkscape:connector-curvature="0"
         id="path5494"
         d="m 346.42857,140.21932 c 0.3333,2.33768 13.99239,5.92477 22.14286,10 9.01262,4.50632 27.80107,4.22965 33.57142,10 1.07833,1.07833 5.30146,0.30146 6.42858,1.42858 2.38095,2.38095 10.47619,-0.95239 12.85714,1.42857 1.79748,1.79748 5,16.44281 5,20.71428 0,3.52029 0.60224,9.77592 2.14286,12.85715 0.13605,0.27211 0,19.62306 0,21.42857 0,1.49589 0.0548,3.51657 -0.71429,4.28571 -0.17912,0.17912 -11.33001,4.38428 -12.14286,3.57143 -5.52239,-5.52239 2.13263,-45.01023 -1.42857,-48.57143 -0.21333,-0.21333 -14.03748,-3.44731 -15.71428,-4.28571 -14.92384,-7.46192 -36.9484,-8.60419 -50.50508,-15.38253"
         style="fill:#ffffff;stroke:#ffffff;stroke-width:1px;stroke-linecap:butt;stroke-linejoin:miter;stroke-opacity:0" />
      <path
         inkscape:connector-curvature="0"
         id="path5436"
         d="m 345.63839,183.09375 c -8.70435,0.14997 -18.44497,4.94497 -22.78125,9.28125 -3.16004,3.16005 -5.96224,7.36849 -9.28125,10.6875 -6.65981,6.65981 7.35093,20.29814 2.84375,29.3125 -2.29803,4.59605 -2.7578,8.97185 -3.875,13.4375 0.37304,0.57004 0.64334,1.2996 1.1875,1.84375 0.68099,0.681 2.42547,1.92547 3.28125,2.78125 0.0859,0.0859 0.33554,-0.005 0.53125,-0.0312 1.05825,2.08892 2.6473,4.2723 4.25,5.875 0.99601,0.99601 2.75549,1.34924 3.5625,2.15625 1.21696,1.21696 6.11409,1.45784 7.15625,2.5 1.64487,1.64487 8.02062,1.09021 10.71429,0.71875 4.75892,-0.65626 6.7398,0.29131 9.22321,-2.09375 2.01551,0.22529 4.03975,-0.1335 5.40625,-1.5 1.66402,-1.66402 3.01358,-4.04483 4.65625,-5.6875 0.17857,-0.17857 -0.17857,-0.91518 0,-1.09375 1.67159,-1.67159 3.35773,-11.78108 3.53125,-19 3.87017,-9.77078 -2.68046,-34.64218 -6.03125,-41.34375 -2.94222,-5.88444 -8.41939,-7.94636 -14.375,-7.84375 z"
         style="fill:#ffffff;fill-opacity:1;stroke:#ffffff;stroke-width:1px;stroke-linecap:butt;stroke-linejoin:miter;stroke-opacity:0"
         sodipodi:nodetypes="csssccscsssscssscscc" />
      <path
         inkscape:connector-curvature="0"
         id="path5438"
         d="m 316.42857,213.79075 c -5.20724,1.67599 -10.93522,-9.50665 -17.85714,-16.42857 -10.02286,-10.02285 -15.98425,-39.01576 -4.28572,-50.71428 3.12318,-3.12318 9.09719,-6.24005 12.85714,-10 1.32892,-1.32892 4.64357,-1.78642 5.71429,-2.85715 0.45308,-0.45308 2.26244,0.29736 2.85714,0 3.48071,-1.74035 15.10803,-1.7317 18.57143,0 3.81192,1.90596 10.51418,1.94275 13.57143,5 6.81739,6.81739 7.87311,17.1748 12.14286,25.71429 1.1738,2.34761 -0.33279,8.95293 1.42857,10.71428 1.18,1.18 2.72498,8.83576 1.42857,11.42858 -3.75392,7.50784 -6.72326,13.15183 -11.42857,17.85714 -1.40554,1.40554 -4.2071,1.34995 -5.71429,2.85714 -7.98325,7.98325 -18.34722,4.24087 -29.28571,6.42857 z"
         style="fill:#c83737;stroke:#ffffff;stroke-width:1px;stroke-linecap:butt;stroke-linejoin:miter;stroke-opacity:0" />
      <path
         inkscape:connector-curvature="0"
         id="path5492"
         d="m 293.14731,155.64355 c -0.29674,-0.002 -0.58922,0.0108 -0.87897,0.0428 -1.88954,0.20891 -3.56791,1.206 -4.35413,3.28415 -11.58428,9.58984 -27.29736,21.22728 -34.49102,24.69667 -12.65735,6.10445 -29.36361,7.76325 -41.61331,13.6711 -5.17996,2.49823 -10.79329,4.44992 -10.89053,11.2621 1.74069,0.18427 5.03272,0.66839 5.33513,0.84221 0.47721,0.27432 1.7469,0.10153 2.3086,0.13417 2.93977,0.17086 5.6434,0.1087 7.64773,1.44617 3.51281,-1.27981 6.59719,-2.50543 6.89237,-2.79231 1.24509,-1.21006 8.79028,-1.42815 11.45806,-2.71477 8.36464,-4.03415 20.57322,-6.63929 27.31116,-13.1876 0.92977,-0.90361 2.88833,-0.67998 3.58477,-1.3568 3.20368,-3.11353 15.88226,-12.95449 20.96028,-15.40357 1.48552,-0.71645 3.83248,-1.62604 5.04629,-2.80569 1.7277,-1.67909 3.56752,-3.37593 5.42823,-5.06859 0.0484,-0.20627 0.0874,-0.41662 0.12985,-0.61851 0.98111,-0.96458 2.03826,-1.94339 2.69198,-2.69209 0.23489,-0.26904 -0.33324,-1.27053 -0.0983,-1.53955 2.94632,-3.37446 -2.01703,-7.16322 -6.46815,-7.19992 z"
         style="fill:#ffffff;fill-opacity:1;stroke:#ffffff;stroke-width:1px;stroke-linecap:butt;stroke-linejoin:miter;stroke-opacity:0" />
      <path
         inkscape:connector-curvature="0"
         id="path5620"
         d="m 214.22909,195.56943 c -0.0976,0.0145 -0.46583,0.22887 -1.26384,0.74042 -1.2449,1.10815 -4.37534,1.30066 -5.73482,2.26483 -1.79903,1.2759 -5.86626,3.08716 -7.90358,10.49661 0.11824,0.33354 0.19191,0.70294 0.28334,1.04946 l 7.20264,2.6411 c 3.18202,-0.81768 7.0998,-2.0444 8.28068,-1.3656 0.0764,0.0439 0.13845,0.0896 0.21113,0.13748 0.51388,-0.21938 2.393,-0.77921 2.3942,-0.79993 0.0433,-0.74483 -2.06192,-1.21964 -2.43996,-1.64434 -1.04391,-1.17274 -1.38007,-3.17887 -2.29127,-4.20252 -0.56679,-0.63676 -0.5777,-7.09944 -0.0332,-8.04673 0.83858,-0.72698 1.45733,-1.29499 1.29466,-1.27078 z"
         style="fill:#c83737;fill-opacity:1;stroke:#ffffff;stroke-width:1px;stroke-linecap:butt;stroke-linejoin:miter;stroke-opacity:0" />
      <path
         inkscape:connector-curvature="0"
         id="path5637"
         d="m 413.73214,210.28125 c -0.29212,0 -0.5,4.18862 -0.5,5.0625 0,0.51869 -0.0373,1.15997 -0.0937,1.84375 L 412.51339,217 c 0.16157,0.70854 0.26889,1.65228 0.40625,2.59375 -0.0768,0.95598 -0.13184,1.93304 -0.125,2.84375 0.26139,-0.001 0.54014,0.0135 0.75,0.0312 0.15194,0.3996 0.33665,0.7429 0.5625,0.96875 0.16332,0.16332 0.81036,2.59161 1.0625,2.84375 0.5813,0.5813 1.5933,1.4058 2.34375,2.15625 0.25656,0.25656 2.24662,-0.15456 2.3125,-0.1875 0.33888,-0.16944 1.33617,0.25758 1.59375,0 0.78235,-0.78235 3.06681,-0.72306 3.9375,-1.59375 1.01502,-1.01503 4.79242,-5.17208 4.21875,-7.5625 2.1e-4,-0.01 -1.1e-4,-0.0214 0,-0.0312 0.0117,-1.02519 -0.48023,-2.34694 -0.6875,-2.96875 -0.11926,-0.35777 -0.26123,-4.28125 -0.5,-4.28125 -0.36783,0 -1.71446,1.96446 -2.03125,2.28125 -0.48229,0.48228 -7.41669,2.92706 -8.59375,1.75 -0.48189,-0.48189 -1.94619,-0.69619 -2.25,-1 -0.46299,-0.46299 -0.81826,-1.06827 -1.28125,-1.53125 -0.17448,-0.17449 -0.4274,-3.03125 -0.5,-3.03125 z"
         style="fill:#c83737;fill-opacity:1;stroke:#ffffff;stroke-width:1px;stroke-linecap:butt;stroke-linejoin:miter;stroke-opacity:0" />
      <path
         inkscape:connector-curvature="0"
         id="path5751"
         d="m 204.38839,201.96875 c -0.82981,0.10022 -1.47784,0.53935 -2.125,0.96875 -1.68569,-0.20424 -4.35838,-0.20413 -5.34375,0.78125 -0.0828,0.0828 -0.0617,0.46799 -0.125,0.53125 -0.24493,0.24493 -0.46197,0.63882 -0.65625,1.125 -3.34172,1.53026 -6.72803,3.72803 -8.9375,5.9375 -0.3052,0.3052 -1.4316,1.65699 -2.0625,2.8125 -0.007,0.0132 -0.0241,0.0181 -0.0312,0.0312 l -0.6875,0.6875 c -0.14079,0.1408 -0.0356,0.57135 -0.125,0.75 -0.89823,1.79647 1.02851,3.72012 2.65625,2.90625 1.11741,-0.55871 2.97142,-5.00266 3.78125,-5.8125 0.6028,-0.6028 1.61341,-1.07348 2.6875,-1.5 -0.47368,0.81562 -0.90625,1.64334 -0.90625,2 0,0.004 -0.0306,0.0562 -0.0312,0.0625 -0.40107,0.82176 -0.63808,1.56838 -0.40625,1.96875 -0.11375,0.59844 -0.18187,1.13063 -0.0625,1.25 2.53516,2.53515 5.17395,-3.36012 6.25,-5.65625 0.29771,-0.004 0.53793,-0.0246 0.6875,0.125 0.21045,0.21045 1.03956,-0.21044 1.25,0 0.0543,0.0543 0.17488,0.0831 0.28125,0.125 0.65171,-0.15543 1.39261,-0.0537 2.25,0.375 0.37516,0.18758 2.33921,0.43296 2.40625,0.5 0.2942,0.29419 0.62918,0.51878 0.9375,0.8125 1.70169,0.28987 3.32615,5.42957 3.625,6.625 0.33149,1.32596 1.30486,2.79723 1.875,3.9375 0.30181,0.60362 2.41124,0.74501 2.90625,0.25 1.05027,-1.05027 1.40625,-2.02886 1.40625,-3.78125 0,-0.0989 0.063,-0.59324 0,-0.65625 -0.60191,-0.6019 -0.96193,-1.76761 -1.40625,-2.65625 -0.31146,-0.62292 -0.31213,-1.37427 -0.625,-2 -0.56729,-1.13459 0.86499,-2.67627 0.25,-3.90625 -0.25262,-0.50526 -2.84032,-3.65454 -3.40625,-3.9375 -0.56111,-0.28056 -1.23459,-0.35167 -1.78125,-0.625 -0.0363,-0.0181 -0.26447,-0.12036 -0.4375,-0.1875 l -4.09375,-3.84375 z"
         style="fill:#c83737;fill-opacity:1;stroke:#ffffff;stroke-width:1px;stroke-linecap:butt;stroke-linejoin:miter;stroke-opacity:0" />
      <path
         inkscape:connector-curvature="0"
         id="path5827"
         d="m 200.72077,207.77058 c -0.63608,1.36508 -1.21657,7.5992 0.25254,8.33376 0.27977,0.13988 1.03141,-0.0213 1.13642,-0.12627 0.26158,-0.26158 0.86536,-0.0892 1.13642,-0.63135 0.59669,-1.19339 1.69559,-3.49952 1.13642,-5.17703 -0.19176,-0.57528 -0.25254,-1.44306 -0.25254,-2.02031"
         style="fill:#c83737;fill-opacity:1;stroke:#ffffff;stroke-width:1px;stroke-linecap:butt;stroke-linejoin:miter;stroke-opacity:0" />
      <path
         inkscape:connector-curvature="0"
         id="path5903"
         d="m 417.68715,222.63214 c 0.15024,0.0248 -0.55795,-0.35472 -1.99026,-0.63834 -1.41081,-0.27939 -2.76426,-1.43109 -4.23105,-1.24492 -1.14701,0.14559 -9.27644,2.4448 -9.56196,3.88662 -0.15921,0.80404 -0.27576,1.82292 0.0675,2.53708 0.38865,0.80867 2.15773,0.74438 2.63248,0.68412 2.40285,-0.30498 4.89404,-0.87576 7.23352,-1.17271 0.91778,-0.11649 2.83464,0.56133 3.91692,0.77565"
         style="fill:#c83737;fill-opacity:1;stroke:#ffffff;stroke-width:1px;stroke-linecap:butt;stroke-linejoin:miter;stroke-opacity:0" />
      <path
         inkscape:connector-curvature="0"
         id="path5969"
         d="m 314.61823,140.54941 c 0.52541,-0.11076 1.24977,1.89032 4.052,4.09202 1.12843,0.8866 4.21133,0.12947 5.19533,0.90259 5.37095,4.21992 11.53118,-1.40763 10.87196,-6.90049 -2.48228,-20.68342 -12.1592,-28.62946 -25.55586,-39.155107 -1.55731,-1.223571 -13.9227,-2.512435 -16.22784,0.421454 -1.13407,1.443413 -1.65602,3.156133 -1.34388,5.756993 0.0571,0.47556 0.0219,2.74237 0.3611,3.00886 5.28639,4.15348 10.12608,7.5018 15.10469,11.41346 1.58761,1.24738 0.9265,3.45582 2.16646,5.3357 3.00997,4.56338 1.60654,10.26619 5.37604,15.12452 z"
         style="fill:#ffffff;fill-opacity:1;stroke:#ffffff;stroke-width:1px;stroke-linecap:butt;stroke-linejoin:miter;stroke-opacity:0" />
      <path
         style="fill:#ffffff;fill-opacity:1;stroke:#ffffff;stroke-width:1px;stroke-linecap:butt;stroke-linejoin:miter;stroke-opacity:0"
         d="M 253.90625 101.4375 C 251.19262 101.41599 248.61909 102.31208 246.96875 104.375 C 246.86872 104.17289 245.74723 104.72305 244.46875 105.6875 C 243.40917 110.98341 243.86637 116.56987 245.9375 121.84375 C 247.88793 123.17735 248.13982 124.375 252.6875 124.375 C 256.62415 124.375 259.3227 122.0523 261.625 119.75 C 271.52663 109.84837 262.04713 101.50204 253.90625 101.4375 z "
         id="path5973" />
      <path
         inkscape:connector-curvature="0"
         id="path5978"
         d="m 314.74174,100.69441 c -5.90012,-1.337451 -14.01558,-1.768336 -16.66752,3.53553 -0.36613,0.73227 -0.626,1.63615 -1.01015,2.02031 -0.11528,0.11528 -0.11188,1.26269 -0.25254,1.26269 -0.11072,0 1.30787,-1.05533 2.27284,-2.02031 1.54859,-1.54859 5.07236,-2.54698 6.31346,-3.78807 0.66448,-0.66448 7.46835,0.69232 8.33376,0 0.37184,-0.29747 0.67343,-0.67343 1.01015,-1.01015 z"
         style="fill:#c83737;fill-opacity:1;stroke:#ffffff;stroke-width:1px;stroke-linecap:butt;stroke-linejoin:miter;stroke-opacity:0" />
      <path
         inkscape:connector-curvature="0"
         id="path5980"
         d="m 317.01458,104.98756 c -5.05553,-2.32175 -10.8502,1.00121 -13.38452,3.53553 -0.31928,0.31928 -1.82294,2.72275 -1.26269,3.283 0.18789,0.18789 1.15765,-1.15765 1.26269,-1.26269 0.92858,-0.92859 2.43948,-1.1768 3.283,-2.02031 1.48131,-1.48132 7.43871,-1.93785 10.10152,-3.53553 z"
         style="fill:#c83737;fill-opacity:1;stroke:#ffffff;stroke-width:1px;stroke-linecap:butt;stroke-linejoin:miter;stroke-opacity:0" />
      <path
         inkscape:connector-curvature="0"
         id="path5982"
         d="m 320.80265,108.01801 c -1.60921,-0.46314 -3.5771,0.0416 -4.54568,1.01016 -0.23589,0.23589 -1.0268,0.26918 -1.26269,0.50507 -1.11394,1.11394 -2.92958,2.17197 -4.04061,3.283 -0.52845,0.52845 -1.9952,3.28299 -2.02031,3.28299 -0.1392,0 0.93528,-0.97271 2.02031,-1.51522 1.48373,-0.74187 3.08906,-1.57384 4.04061,-2.52539 1.23988,-1.23988 7.80932,-1.49587 8.58629,-2.27284 0.79744,-0.79743 -1.52026,-2.0193 -2.77792,-1.76777 z"
         style="fill:#c83737;fill-opacity:1;stroke:#ffffff;stroke-width:1px;stroke-linecap:butt;stroke-linejoin:miter;stroke-opacity:0" />
      <path
         inkscape:connector-curvature="0"
         id="path5984"
         d="m 325.0958,113.82639 c -1.88147,-0.89916 -2.97705,0.75762 -4.54568,0.75762 -1.72037,0 -8.64866,5.49348 -7.57615,6.56599 0.12746,0.12745 5.32042,-3.30011 5.55584,-3.53554 1.14777,-1.14776 9.19409,-1.61794 9.34391,-1.76776 0.97461,-0.97462 -2.31709,-1.83598 -2.77792,-2.02031 z"
         style="fill:#c83737;fill-opacity:1;stroke:#ffffff;stroke-width:1px;stroke-linecap:butt;stroke-linejoin:miter;stroke-opacity:0" />
      <path
         inkscape:connector-curvature="0"
         id="path5986"
         d="m 330.14657,121.15 c -3.34269,-1.64159 -7.88362,0.0549 -11.61676,3.78807 -0.49854,0.49854 -0.9393,1.62607 -1.26269,2.27284 -0.0753,0.15059 0.16836,0.50508 0,0.50508 -0.0157,0 0.89145,-0.63891 1.01015,-0.75762 0.41988,-0.41987 2.54318,-1.51522 3.53554,-1.51522 1.14642,0 5.91719,-0.86644 6.81853,-1.76777 0.54716,-0.54717 2.48329,0.29463 3.03045,-0.25254 0.90616,-0.90616 -1.3095,-2.14941 -1.51522,-2.27284 z"
         style="fill:#c83737;fill-opacity:1;stroke:#ffffff;stroke-width:1px;stroke-linecap:butt;stroke-linejoin:miter;stroke-opacity:0" />
      <path
         inkscape:connector-curvature="0"
         id="path5988"
         d="m 332.67195,128.97868 c -3.96783,-0.26607 -11.11168,3.12964 -11.11168,6.31345 0,0.27002 -1.04999,1.72793 -1.01015,1.76777 0.10737,0.10738 1.43188,-1.09475 1.76776,-1.26269 1.21252,-0.60626 2.60747,-1.17746 3.78807,-1.76777 2.0065,-1.00325 6.91665,-2.11842 8.08123,-3.28299 0.25861,-0.25862 -1.41702,-1.66956 -1.51523,-1.76777 z"
         style="fill:#c83737;fill-opacity:1;stroke:#ffffff;stroke-width:1px;stroke-linecap:butt;stroke-linejoin:miter;stroke-opacity:0" />
      <path
         inkscape:connector-curvature="0"
         id="path5990"
         d="m 334.94479,136.80736 c -1.7334,0.0348 -3.28142,0.75709 -4.79822,1.26269 -1.59869,0.5329 -6.4072,4.95702 -5.80838,5.55584 0.27233,0.27233 2.08768,-0.7913 2.52538,-1.01015 2.71479,-1.3574 11.47036,-1.57195 8.08122,-5.80838 z"
         style="fill:#c83737;fill-opacity:1;stroke:#ffffff;stroke-width:1px;stroke-linecap:butt;stroke-linejoin:miter;stroke-opacity:0" />
      <path
         inkscape:connector-curvature="0"
         id="path5997"
         d="m 255.77309,184.03716 c -1.32878,-0.78055 -2.82795,0.85767 -4.29315,3.78807 -0.46873,0.93746 0.0638,3.59931 0.50508,4.04061 0.45806,0.45807 0.52257,2.03781 1.01015,2.52538 0.43331,0.43331 1.41153,1.15899 1.76777,1.51523 0.21045,0.21045 0.7997,0.0421 1.01015,0.25254 2.21075,2.21074 7.05334,-1.75004 8.08122,-2.77792 1.85642,-1.85642 -2.49782,-14.92732 -8.08122,-9.34391 z"
         style="fill:#c83737;fill-opacity:1;stroke:#ffffff;stroke-width:1px;stroke-linecap:butt;stroke-linejoin:miter;stroke-opacity:0" />
      <path
         inkscape:connector-curvature="0"
         id="path6014"
         d="m 260.82385,188.58284 c -0.007,-2.20708 7.0372,-5.48809 7.57615,-6.56599 0.53404,-1.06808 16.27481,-10.78905 17.9302,-11.61675 1.64475,-0.82237 7.47986,-2.68164 8.33376,-3.53554 0.55883,-0.55882 1.52257,-0.63501 2.27285,-1.01015 0.16835,-0.0842 0.50507,-0.44077 0.50507,-0.25254 0,0.11244 -6.89893,4.29315 -7.82868,4.29315 -1.549,0 -7.72115,4.69069 -8.83884,5.80838 -1.84265,1.84265 -3.94524,2.68256 -5.55583,4.29315 -0.52383,0.52382 -1.7195,0.70934 -2.27285,1.26269 -0.79824,0.79824 -2.80794,0.78764 -3.53553,1.51523 -1.40023,1.40022 -6.52345,5.29266 -8.5863,5.80837 z"
         style="fill:#c83737;fill-opacity:1;stroke:#ffffff;stroke-width:1px;stroke-linecap:butt;stroke-linejoin:miter;stroke-opacity:0" />
      <path
         sodipodi:nodetypes="ccsccccc"
         inkscape:connector-curvature="0"
         id="path6165"
         d="m 414.74684,161.5561 c 0.63167,-0.63167 1.35577,-0.0465 2.27284,-0.50508 5.09939,-2.54969 9.6725,6.74248 6.566,9.84899 -0.21045,0.21045 -0.0421,0.7997 -0.25254,1.01015 -0.33672,0.33672 -1.20039,-0.19023 -1.26269,-0.25254 -0.54717,-0.54716 -2.23076,0.0421 -2.77792,-0.50507 -0.49229,-0.49228 -1.33558,-0.57797 -2.02031,-1.26269 -6.01472,-3.23222 -2.79872,-8.06329 -2.52538,-8.33376 z"
         style="fill:#c83737;fill-opacity:1;stroke:#ffffff;stroke-width:1px;stroke-linecap:butt;stroke-linejoin:miter;stroke-opacity:0" />
      <path
         inkscape:connector-curvature="0"
         id="path6178"
         d="m 220.79755,209.28581 c -0.27983,-0.58433 5.2005,-1.15989 6.56599,-2.52539 0.50508,-0.50507 2.02031,0 2.52538,-0.50507 1.47038,-1.47038 5.72902,-3.11705 8.08123,-4.29315 3.57991,-1.78996 7.4143,-2.36354 10.35406,-5.3033 1.76782,-1.76782 4.26438,-2.49662 6.06091,-4.29315 0.72851,-0.72851 1.66529,-0.65513 2.27285,-1.26269 0.0842,-0.0842 0.25254,-0.37159 0.25254,-0.25254 0,0.0779 -3.68598,3.43344 -4.04061,3.78807 -2.33551,2.33551 -6.82014,3.78969 -9.09138,6.06092 -1.07828,1.07828 -2.69286,1.17763 -3.78807,2.27284 -0.79838,0.79838 -2.42825,0.40794 -3.283,1.26269 -1.7718,1.77181 -12.31539,5.76967 -15.9099,5.05077 z"
         style="fill:#c83737;fill-opacity:1;stroke:#ffffff;stroke-width:1px;stroke-linecap:butt;stroke-linejoin:miter;stroke-opacity:0" />
      <path
         inkscape:connector-curvature="0"
         id="path6206"
         d="m 421.31283,167.86955 c 0.30112,1.99497 3.94937,13.98085 2.27285,15.65737 -0.54262,0.54261 0.0801,3.12271 -0.25254,3.78807 -1.02985,2.05969 -3.53098,15.91902 -2.02031,18.94036 0.47141,0.94281 -0.4714,2.59272 0,3.53553 0.0312,0.0623 0.75762,6.61324 0.75762,6.81853 0,1.77135 1.19459,3.53554 1.01015,3.53554 -0.30351,0 0.29046,-0.543 0.50508,-0.75762 0.3812,-0.3812 0.25253,-1.68792 0.25253,-2.27284 0,-0.21621 -1.43142,-8.16616 -1.51523,-8.33376 -1.27332,-2.54665 -0.30371,-10.55543 1.01016,-11.86929 0.36901,-0.36902 0.42354,-3.11994 0.75761,-3.78807 1.95437,-3.90874 2.33091,-15.03616 0.25254,-19.1929 -1.1391,-2.27821 -0.49918,-5.04841 -3.03046,-6.06092 z"
         style="fill:#c83737;fill-opacity:1;stroke:#ffffff;stroke-width:1px;stroke-linecap:butt;stroke-linejoin:miter;stroke-opacity:0" />
      <path
         inkscape:connector-curvature="0"
         id="path6234"
         d="m 416.76715,162.81879 c -1.53065,-0.58525 -2.74469,-0.36219 -4.04061,-1.01015 -1.37779,-0.6889 -11.10458,1.25559 -11.61676,1.76776 -0.56684,0.56684 -2.78971,-0.37291 -3.53553,0 -2.67858,1.33929 -12.2806,0.25254 -15.65737,0.25254 -2.54235,0 -9.45717,-0.0566 -11.36421,-1.01015 -1.15659,-0.57829 -10.35407,-1.35991 -10.35407,-1.76777 0,-0.12216 1.46779,0.50508 2.52538,0.50508 0.41567,0 4.45129,1.16829 4.54569,1.26269 0.6256,0.62559 10.78391,1.94508 11.36422,2.52538 0.62214,0.62215 3.20271,-0.16641 4.04061,0.25254 3.45859,1.7293 19.52825,-0.67276 22.22335,-2.02031 0.67344,-0.33671 1.85195,0.33672 2.52538,0 2.72522,-1.36261 6.73846,0.54512 9.34392,-0.75761 z"
         style="fill:#c83737;fill-opacity:1;stroke:#ffffff;stroke-width:1px;stroke-linecap:butt;stroke-linejoin:miter;stroke-opacity:0" />
      <path
         inkscape:connector-curvature="0"
         id="path6308"
         d="m 336.20748,218.62972 c 0.26675,0.19301 7.97834,1.36557 10.35406,-1.01016 0.67072,-0.67071 1.99045,-3.03045 2.02031,-3.03045 0.38745,0 -0.86547,2.88577 -1.01015,3.03045 -0.71553,0.71553 -1.30478,1.55732 -2.02031,2.27285 -0.45146,0.45146 -2.04701,0.53178 -2.52538,1.01015 -0.66816,0.66816 -8.05029,0.17522 -7.57614,-1.01015 0.18229,-0.45574 0.50507,-0.8418 0.75761,-1.26269 z"
         style="fill:#c83737;fill-opacity:1;stroke:#ffffff;stroke-width:1px;stroke-linecap:butt;stroke-linejoin:miter;stroke-opacity:0" />
      <path
         inkscape:connector-curvature="0"
         id="path6310"
         d="m 336.71256,228.4787 c 0.33671,0.0842 1.09433,-0.0842 1.01015,0.25254 -0.0842,0.33672 -1.35723,-0.25254 -1.01015,-0.25254 0.17385,0 4.16781,0.56868 4.54568,0.75762 1.5392,0.7696 6.27094,-1.22017 6.81853,-1.76777 0.1927,-0.19269 1.45269,-2.33538 1.51523,-2.27284 0.10504,0.10504 0.10504,2.42034 0,2.52538 -0.56433,0.56433 -1.5698,1.31727 -2.27284,2.02031 -0.23232,0.23231 -1.66776,0.0763 -2.02031,0.25253 -2.89661,1.44831 -7.71907,1.95365 -8.58629,-1.51523 z"
         style="fill:#c83737;fill-opacity:1;stroke:#ffffff;stroke-width:1px;stroke-linecap:butt;stroke-linejoin:miter;stroke-opacity:0" />
      <path
         inkscape:connector-curvature="0"
         id="path6312"
         d="m 337.47017,236.81246 c 0.77731,2.0244 7.56244,2.79163 9.09137,1.26269 0.16836,-0.16836 0.8418,0.16836 1.01016,0 0.37855,-0.37855 1.55046,-0.54031 2.0203,-1.01015 0.32101,-0.32101 0.72928,-1.26269 1.26269,-1.26269 0.0145,0 -1.91461,2.67222 -2.0203,2.77792 -0.12652,0.12652 -0.8446,0.087 -1.01016,0.25254 -2.2163,2.2163 -13.0548,1.58068 -10.35406,-2.02031 z"
         style="fill:#c83737;fill-opacity:1;stroke:#ffffff;stroke-width:1px;stroke-linecap:butt;stroke-linejoin:miter;stroke-opacity:0" />
      <path
         inkscape:connector-curvature="0"
         id="path6340"
         d="m 335.95494,245.39876 c -0.21361,0.85326 0.83072,1.17298 3.03046,2.27285 1.55238,0.77618 6.82045,0.50315 7.82868,-0.50508 1.06451,-1.06451 2.27285,-2.40003 2.27285,-2.27284 0,0.56838 -0.53536,1.29297 -0.75762,1.51522 -0.95253,0.95253 -1.51062,1.76316 -2.52538,2.77792 -1.4014,1.4014 -7.60677,-0.28316 -8.33376,-1.01015 -0.79845,-0.79845 -1.22823,-1.34294 -1.51523,-2.77792 z"
         style="fill:#c83737;fill-opacity:1;stroke:#ffffff;stroke-width:1px;stroke-linecap:butt;stroke-linejoin:miter;stroke-opacity:0" />
      <path
         inkscape:connector-curvature="0"
         id="path6342"
         d="m 336.38514,254.46713 c 0.28514,0.30959 1.16502,0.64366 0.85541,0.9288 -0.3096,0.28514 -1.26927,-1.0054 -0.85541,-0.9288 0.55527,0.10277 0.79679,0.91795 1.35205,1.02072 1.1019,0.20395 4.57923,0.96875 5.30665,0.46853 0.0938,-0.0645 1.77687,-1.51307 2.01401,-1.16819 0.59968,0.87207 -1.29818,1.75954 -1.65525,2.00508 -0.43068,0.29615 -1.65527,0.0547 -2.12444,0.37727 -1.92771,1.32558 -4.16724,-0.75991 -4.89302,-2.70341 z"
         style="fill:#c83737;fill-opacity:1;stroke:#ffffff;stroke-width:1px;stroke-linecap:butt;stroke-linejoin:miter;stroke-opacity:0" />
      <path
         inkscape:connector-curvature="0"
         id="path6373"
         d="m 324.35177,160.59252 c 1.00894,-3.36611 1.84601,-3.18257 6.48296,-5.057 0.84193,-0.34034 5.28327,-0.28 5.61852,-0.56577 0.45247,-0.38571 1.3763,-0.0691 2.05403,-0.34304 4.09336,-1.65469 6.82939,-1.07214 9.23419,1.74897 0.18667,0.21898 1.49143,0.35893 1.45028,0.87554 -0.0165,0.20719 -2.89655,-0.16558 -3.02089,-0.24065 -1.80533,-1.08989 -3.79333,-0.80886 -6.00167,-0.98478 -1.81878,-0.14489 -10.4118,2.07062 -11.3774,2.89372 -1.16368,0.99196 -1.72303,1.93806 -3.02986,3.05204 -0.73173,0.62376 -0.59591,-2.72779 -1.99386,-0.41218"
         style="fill:#ffffff;fill-opacity:1;stroke:#ffffff;stroke-width:1px;stroke-linecap:butt;stroke-linejoin:miter;stroke-opacity:0" />
      <path
         inkscape:connector-curvature="0"
         id="path6375"
         d="m 330.90969,168.7779 c -0.16205,-0.63897 0.70926,-2.74706 2.31351,-4.14252 1.22479,-1.06541 3.51136,-0.72657 5.16131,-1.41283 0.67624,-0.28127 4.15163,-0.77122 4.37046,-0.96157 0.54901,-0.47757 1.76427,-0.24454 2.57188,-0.58044 3.47895,-1.447 7.42602,-0.44182 9.48563,1.92592 0.21252,0.24431 0.77168,0.38491 0.95511,0.82592 0.28272,0.67972 -4.02596,-0.7865 -4.49965,-0.81947 -0.48592,-0.0338 -2.7533,-1.39183 -3.49194,-0.74933 -0.48004,0.41757 -1.84,0.88454 -2.84135,0.81485 -1.16604,-0.0812 -8.84003,1.77268 -9.53176,2.37439 -1.06895,0.92984 -1.4006,3.11175 -2.29597,3.89059 -0.25046,0.21787 -2.12429,-1.11454 -2.19723,-1.16551 z"
         style="fill:#ffffff;fill-opacity:1;stroke:#ffffff;stroke-width:1px;stroke-linecap:butt;stroke-linejoin:miter;stroke-opacity:0" />
      <path
         inkscape:connector-curvature="0"
         id="path6377"
         d="m 333.70035,177.27318 c 0.0434,0.4656 1.05536,-2.80353 2.31777,-3.75226 0.74405,-0.55918 2.24819,-0.41102 3.1423,-0.57449 2.11806,-0.38722 7.60902,-1.25081 8.99777,-2.29448 0.52421,-0.39396 2.11452,-0.0255 2.60676,-0.3954 0.592,-0.4449 1.89033,0.61963 2.17936,0.8193 0.8244,0.56956 5.88197,3.62117 5.00417,4.28086 -2.70045,2.02946 -6.71624,-4.78121 -10.145,-2.20441 -0.49265,0.37024 -1.66244,-0.0909 -2.07123,0.2163 -1.96624,1.47769 -6.79557,0.4161 -8.39128,1.61532 -1.6678,1.25338 -1.75989,5.71092 -3.64062,2.28926 z"
         style="fill:#ffffff;fill-opacity:1;stroke:#ffffff;stroke-width:1px;stroke-linecap:butt;stroke-linejoin:miter;stroke-opacity:0" />
      <path
         inkscape:connector-curvature="0"
         id="path6379"
         d="m 335.08123,188.47817 c -0.0457,-0.89608 -0.15246,-2.85597 0.63319,-3.48754 2.39679,-1.92674 11.71844,-2.54675 13.09882,-3.65643 1.02849,-0.82677 6.82321,2.78754 7.03506,3.05108 0.26106,0.32474 -0.21742,0.44208 -0.30565,0.47482 -1.82364,0.67676 -3.68165,-0.0866 -5.21764,-1.07531 -0.68694,-0.44219 -2.75396,-0.0773 -3.0673,0.17458 -1.07515,0.8643 -7.33012,1.53935 -8.11036,2.16657 -0.87393,0.70253 -1.46147,3.00778 -1.88848,3.35105 -0.48296,0.38825 -2.09715,-0.95601 -2.17764,-0.99882 z"
         style="fill:#ffffff;fill-opacity:1;stroke:#ffffff;stroke-width:1px;stroke-linecap:butt;stroke-linejoin:miter;stroke-opacity:0" />
      <path
         inkscape:connector-curvature="0"
         id="path6394"
         d="m 334.00369,198.95281 c -2.35793,-3.06688 15.93051,-6.94657 18.29615,-4.19647 0.40391,0.46956 0.51823,1.42394 0.87483,1.8385 0.0611,0.0711 0.72062,0.52061 0.71763,0.56044 -0.0385,0.51239 -1.78769,-1.40061 -3.68279,-1.54304 -1.47042,-0.11051 -7.9004,0.20058 -8.40495,0.63459 -0.97592,0.83949 -3.44481,0.3722 -4.39462,1.18922 -0.67577,0.58129 -1.16312,1.47161 -1.93314,2.13398 -0.40361,0.34719 -0.995,-0.383 -1.47311,-0.61722 z"
         style="fill:#ffffff;fill-opacity:1;stroke:#ffffff;stroke-width:1px;stroke-linecap:butt;stroke-linejoin:miter;stroke-opacity:0" />
      <path
         inkscape:connector-curvature="0"
         id="path6468"
         d="m 298.21428,383.79075 c -0.16511,0.6019 -5.31685,-2.5 -8.21428,-2.5 -2.2791,0 -4.97462,-1.42857 -7.14286,-1.42857 -1.38523,0 -3.33771,1.90914 -4.28571,2.85714 -2.19393,2.19393 -4.30502,2.87645 -6.42858,5 -0.82079,0.8208 2.12001,4.62001 2.5,5 1.45141,1.45141 1.48349,4.69777 2.85715,6.07143 4.24627,4.24628 10.68678,6.5934 16.78571,9.64286 1.07683,0.53841 2.35591,0.92734 3.21429,1.78571 0.34708,0.34708 1.42857,-0.1337 1.42857,0.35715 0,0.10267 -2.76205,-1.07143 -2.85714,-1.07143 -1.37464,0 -4.98183,-2.48183 -6.07143,-3.57143 -1.7543,-1.7543 -4.11435,-3.04292 -6.07143,-5 -2.44238,-2.44238 -3.07296,-6.28724 -5.35714,-8.57143 -0.15191,-0.1519 -2.31674,-3.75469 -1.78572,-4.28571 8.96794,-8.96794 8.61927,-4.28572 21.42857,-4.28572 z"
         style="fill:#c83737;fill-opacity:1;stroke:#ffffff;stroke-width:1px;stroke-linecap:butt;stroke-linejoin:miter;stroke-opacity:0" />
      <path
         inkscape:connector-curvature="0"
         id="path6507"
         d="m 302.5,411.6479 c 0.83593,0.53461 1.16476,0.45047 2.85714,2.14285 2.62284,2.62284 11.22829,-1.38515 12.5,-3.92857 0.2737,-0.54741 2.35637,-4.89324 0.71429,-5.71428 -0.0789,-0.0395 -3.85656,4.92798 -4.28572,5.35714 -2.3129,2.3129 -7.73238,2.14286 -11.78571,2.14286 z"
         style="fill:#c83737;fill-opacity:1;stroke:#ffffff;stroke-width:1px;stroke-linecap:butt;stroke-linejoin:miter;stroke-opacity:0" />
      <path
         inkscape:connector-curvature="0"
         id="path6522"
         d="m 361.20876,398.43687 c 1.04223,0.11135 4.31198,5.06018 7.3236,6.56599 0.89258,0.44629 2.55807,-0.25254 3.53554,-0.25254 1.19136,0 2.783,0.25 3.78807,-0.25253 1.01951,-0.50976 3.42981,0.21144 4.04061,-1.01016 0.67622,-1.35243 2.45632,-10.6066 2.77792,-10.6066 0.11905,0 -0.16836,0.16836 -0.25254,0.25254 -0.4209,0.4209 -0.33672,1.34687 -0.75762,1.76777 -1.15811,1.15812 -1.88621,5.80837 -3.78807,5.80837 -0.7091,0 -8.5996,2.25954 -9.09137,1.76777 -0.29854,-0.29854 -1.12503,-0.11488 -1.51523,-0.50508 -1.42601,-1.426 -3.85705,-3.09476 -6.06091,-3.53553 z"
         style="fill:#c83737;fill-opacity:1;stroke:#ffffff;stroke-width:1px;stroke-linecap:butt;stroke-linejoin:miter;stroke-opacity:0" />
    </g>
  </g>
</svg>
