<?xml version="1.0" encoding="UTF-8" standalone="no"?>
<!-- Created with Inkscape (http://www.inkscape.org/) -->

<svg
   xmlns:dc="http://purl.org/dc/elements/1.1/"
   xmlns:cc="http://creativecommons.org/ns#"
   xmlns:rdf="http://www.w3.org/1999/02/22-rdf-syntax-ns#"
   xmlns:svg="http://www.w3.org/2000/svg"
   xmlns="http://www.w3.org/2000/svg"
   xmlns:sodipodi="http://sodipodi.sourceforge.net/DTD/sodipodi-0.dtd"
   xmlns:inkscape="http://www.inkscape.org/namespaces/inkscape"
   width="744.09448819"
   height="1052.3622047"
   id="svg9267"
   version="1.1"
   inkscape:version="0.48.1 r9760"
   sodipodi:docname="substack.svg">
  <defs
     id="defs9269" />
  <sodipodi:namedview
     id="base"
     pagecolor="#ffffff"
     bordercolor="#666666"
     borderopacity="1.0"
     inkscape:pageopacity="0.0"
     inkscape:pageshadow="2"
     inkscape:zoom="1"
     inkscape:cx="392.81437"
     inkscape:cy="803.93274"
     inkscape:document-units="px"
     inkscape:current-layer="layer1"
     showgrid="false"
     inkscape:window-width="1364"
     inkscape:window-height="766"
     inkscape:window-x="0"
     inkscape:window-y="0"
     inkscape:window-maximized="0" />
  <metadata
     id="metadata9272">
    <rdf:RDF>
      <cc:Work
         rdf:about="">
        <dc:format>image/svg+xml</dc:format>
        <dc:type
           rdf:resource="http://purl.org/dc/dcmitype/StillImage" />
        <dc:title />
      </cc:Work>
    </rdf:RDF>
  </metadata>
  <g
     inkscape:label="Layer 1"
     inkscape:groupmode="layer"
     id="layer1">
    <rect
       style="color:#000000;fill:#501616;fill-opacity:1;fill-rule:nonzero;stroke:none;stroke-width:5;marker:none;visibility:visible;display:inline;overflow:visible;enable-background:accumulate"
       id="rect10420"
       width="640"
       height="480"
       x="62"
       y="20.362183"
       inkscape:export-filename="/home/substack/media/avatars/substack_slide.png"
       inkscape:export-xdpi="143.99998"
       inkscape:export-ydpi="143.99998" />
    <g
       id="g10424"
       transform="translate(17,-30)">
      <path
         inkscape:connector-curvature="0"
         id="path10291"
         d="m 239.69392,76.494409 c 4.80278,51.274251 0.93903,101.803741 0.93903,154.001171 0,7.39858 2.97023,40.0721 0.93903,44.13449 -2.38877,4.77755 -1.40996,50.23676 0.93904,52.58576 0.7765,0.7765 17.13948,-2.8171 22.53675,-2.8171 6.57145,0 21.72933,6.97694 30.04901,2.8171 4.54668,-2.27334 52.54146,-2.51886 57.28092,-0.93903 12.25367,4.08455 38.55224,-2.8171 50.70771,-2.8171 12.0165,0 45.42837,-1.70064 54.46383,2.8171 3.68099,1.84049 8.86003,-2.36784 13.14644,-0.93903 3.53457,1.17819 11.91071,3.1138 14.08547,0.93903 3.39207,-3.39206 10.96865,3.11683 14.08548,0 0.66399,-0.664 0,-5.53019 0,-6.57322 0,-13.34349 1.87806,-25.15681 1.87806,-38.5003 0,-17.36895 -2.8171,-33.15143 -2.8171,-49.76867 0,-5.6204 2.61023,-28.58468 0,-33.80513 -1.29976,-2.59953 -2.32997,-40.41356 -0.93903,-43.19545 5.24851,-10.49702 4.32671,-80.186133 -0.93903,-85.451873 -1.48588,-1.485878 -30.0616,3.743536 -31.92707,1.878063 -4.05783,-4.05783 -38.04441,-3.756126 -46.95158,-3.756126 -12.29198,0 -73.41595,-0.767541 -77.93962,3.756126 -1.07967,1.07968 -38.8311,-1.878063 -44.13448,-1.878063 -4.96256,0 -27.79182,-2.257184 -30.98804,0.939032 -3.21842,3.218414 -15.87013,-3.849534 -19.71966,0 -4.80985,4.809851 -4.69516,16.758206 -4.69516,6.57322 z"
         style="fill:#0d0909;fill-opacity:1;stroke:#ffffff;stroke-width:3.31997776;stroke-linecap:round;stroke-linejoin:round;stroke-miterlimit:4;stroke-opacity:1;stroke-dasharray:none" />
      <path
         inkscape:connector-curvature="0"
         id="path10112"
         d="m 293.45495,104.88089 c -0.11067,-0.44266 -0.77466,-1.21733 -0.332,-1.32799 0.44267,-0.11066 0.65464,1.65063 0.332,1.32799 -0.65474,-0.65473 -1.16386,-4.64424 -0.66399,-5.64396 2.55024,-5.10048 0.26565,-14.475227 2.65598,-19.255875 1.54049,-3.080986 8.90497,-5.643962 12.61591,-5.643962 1.3596,0 6.86895,0.892986 7.63595,1.659989 0.36058,0.360583 8.13953,5.563754 8.96394,5.975959 0.35259,0.176297 1.03204,0.03606 1.32799,0.331998 2.79807,2.798064 6.33482,6.334816 8.63195,8.631941 1.26296,1.26297 2.50164,6.81762 3.31997,7.63595 0.64688,0.64688 -2.84653,6.02506 -3.31997,6.97195 -0.39881,0.79761 -1.50415,1.17215 -1.99199,1.65999 -1.866,1.866 -4.24524,3.58126 -6.63996,5.97596 -0.98839,0.98841 -3.43006,1.10608 -4.31597,1.99199 -2.80817,2.80817 -6.85116,4.19518 -8.96394,6.30796 -0.52246,0.52246 -2.0419,1.30304 -3.31998,0.66399 -0.81093,-0.40546 -1.87286,-0.27243 -2.65598,-0.66399 -3.40845,-1.70423 -9.36052,-5.77313 -10.95592,-8.96394 -1.23048,-2.46096 -0.48009,-4.56279 -2.32399,-7.63595 z"
         style="fill:#fe1306;fill-opacity:1;stroke:#ffffff;stroke-width:3.31997776;stroke-linecap:butt;stroke-linejoin:miter;stroke-miterlimit:4;stroke-opacity:1;stroke-dasharray:none" />
      <path
         sodipodi:nodetypes="csssssssssssscc"
         inkscape:connector-curvature="0"
         id="path9416"
         d="m 450.3668,170.28782 c 4.08258,2.22846 10.8379,11.97919 14.77167,15.60784 0.32186,0.29688 -0.81875,7.3105 -2.4806,11.0893 -1.71823,3.907 -6.71405,23.98325 -10.23567,27.2317 -0.59893,0.55249 -0.15716,2.2719 -0.53714,2.97292 -1.5064,2.7791 -5.00871,12.54297 -5.90867,13.37313 -1.09475,1.00983 -7.65367,-2.60232 -8.23267,-3.13641 -1.78973,-1.65092 -5.05794,-0.83946 -6.65097,-2.30892 -0.70116,-0.64677 -2.32149,-1.33683 -3.49149,-1.23872 0,0 -1.70098,-0.0826 -2.14861,-0.49549 -0.30963,-0.28561 4.77095,-13.31056 4.77095,-14.78538 0,-0.99867 3.72868,-9.88078 4.83436,-10.9007 0.87632,-0.80835 1.27007,-6.62191 2.14862,-7.43231 4.79241,-4.42068 8.66076,-17.15549 9.40016,-20.56271 0.85245,-2.68008 2.53362,-7.48907 3.76006,-9.41425 z"
         style="fill:#fe1306;fill-opacity:1;stroke:#ffffff;stroke-width:3.61129284;stroke-linecap:butt;stroke-linejoin:miter;stroke-miterlimit:4;stroke-opacity:1;stroke-dasharray:none" />
      <path
         inkscape:connector-curvature="0"
         id="path10248"
         d="m 408.07719,323.38544 c 2.36015,-0.0392 4.37508,-0.0717 7.3247,-0.1245 4.96336,-0.0888 10.54741,-0.15278 16.03964,-0.083 2.74611,0.0349 5.46156,0.10731 8.0717,0.22825 0.32166,0.0149 0.59492,0.0458 0.91299,0.0623 0.49976,-2.60052 0.89592,-5.28516 1.43174,-7.42845 1.42861,-5.71446 3.16843,-11.16527 4.97997,-16.59989 0.66798,-2.0043 -0.25938,-4.79321 0.66399,-6.63995 1.54562,-3.09124 0.78948,-7.22291 2.32399,-10.29194 0.2656,-0.53119 -0.2656,-1.46079 0,-1.99198 2.17061,-4.34122 2.78123,-9.54644 4.97996,-13.94391 1.23195,-2.46389 2.39027,-5.11253 3.65198,-7.63595 0.15622,-0.31243 0.94716,-0.76166 0.66399,-1.32799 -1.37068,-2.74136 -7.14083,-5.48084 -10.29193,-8.63194 -0.68097,-0.68097 -1.8825,-0.5545 -2.65598,-1.32799 l -3.98397,-3.98398 c -0.65398,-0.65397 -2.53518,-0.87519 -3.31998,-1.65998 -1.08568,-1.08568 -5.20231,0.88634 -5.64396,1.32799 -0.56114,0.56115 -0.61645,2.27643 -1.32799,2.98798 -3.71738,3.71738 -4.61117,10.51352 -6.63996,16.59989 -1.04432,3.13296 -3.10533,6.21065 -4.64797,9.29593 -1.48293,2.96586 -1.23943,7.03829 -2.32398,10.29193 -0.68362,2.05085 -1.96672,3.90819 -2.65598,5.97596 -1.10691,3.32073 -1.50787,6.84757 -2.65599,10.29194 -1.05054,3.15162 -0.9567,6.85406 -1.99198,9.95993 -1.31357,3.94068 -2.31494,9.5219 -2.90498,14.6494 z"
         style="fill:#fe1306;fill-opacity:1;stroke:#ffffff;stroke-width:3.31997776;stroke-miterlimit:4;stroke-opacity:1;stroke-dasharray:none" />
      <path
         inkscape:connector-curvature="0"
         id="path10206"
         d="m 430.90203,278.51573 c -0.56783,-5.10916 3.75506,-9.27319 5.31197,-13.94391 0.64694,-1.94081 1.07544,-4.14287 1.99198,-5.97596 0.85687,-1.71372 0.25959,-7.49112 1.65999,-10.29193 0.49025,-0.9805 -0.74519,-3.90278 0,-4.64797 0.44267,-0.44266 1.21733,-0.55333 1.65999,-0.99599 1.72899,-1.72899 11.66174,3.00889 12.94792,3.65197 0.8013,0.40066 1.5409,1.8729 2.32398,2.65599 5.64517,5.64517 6.55665,22.90907 4.31597,31.87178 -0.71646,2.86587 0.332,6.14937 0.332,8.96394 0,1.91685 -0.88611,9.18371 -0.332,10.29193 0.53232,1.06464 0.30429,14.63562 -0.332,15.2719 -1.13717,1.13718 -5.87712,-0.40972 -7.63595,-0.99599 -3.01602,-1.00534 -5.85681,1.05557 -8.63194,-0.332 -2.46432,-1.23215 -15.09544,1.50445 -15.60389,0.996 -0.69634,-0.69634 0,-1.39532 0,-2.32399 0,-1.48985 0.83285,-12.78478 1.32799,-13.27991 0.44584,-0.44584 4.31597,-11.52457 4.31597,-12.61592 0,-0.64766 2.19008,-4.44988 0.99599,-5.64396 -0.54107,-0.54108 -2.73462,-2.60531 -2.98798,-2.65598 -0.54258,-0.10852 -1.23491,0.35423 -1.65999,0 -0.43349,-0.36125 -0.22133,-1.10666 0,0 z"
         style="fill:#ffffff;fill-opacity:1;stroke:none" />
      <path
         inkscape:connector-curvature="0"
         id="path10038"
         d="m 331.44499,216.57443 c -1.2432,-0.8142 -2.14159,-1.78222 -3.31998,-2.37141 -1.91942,-0.95972 -5.32286,-0.58003 -6.63996,-1.89713 -1.50396,-1.50396 -3.69147,-2.26862 -5.69139,-4.26855 -2.19051,-2.1905 -3.53809,-4.96093 -5.69139,-7.11423 -1.1178,-1.11781 -4.48623,-0.69197 -5.69139,-1.89713 -0.99252,-0.99252 -3.61825,-1.72112 -4.74283,-2.8457 -1.5455,-1.5455 -3.30082,-3.30082 -4.74282,-4.74283 -2.14607,-2.14607 -5.58045,-3.20902 -7.11424,-4.74282 -1.29504,-1.29504 -4.83924,-0.0964 -6.16567,-1.42285 -1.11735,-1.11735 -3.1254,-2.03698 -4.74283,-2.84569 -1.16805,-0.58403 -3.10049,0.10974 -4.26854,-0.47429 -3.02991,-1.51495 -5.89573,-3.79426 -9.95993,-3.79426 -2.95332,0 -7.38889,-3.99389 -7.58852,-3.79426 -3.71215,3.71214 -8.84063,20.26136 -4.74283,28.45695 0.71868,1.43738 -0.008,3.78612 0.94856,4.74283 1.58621,1.58621 -1.14388,8.34176 0.47429,9.95994 1.77636,1.77636 6.49073,1.7479 8.53708,3.79425 2.95122,2.95122 8.21158,5.36589 10.43421,7.58853 1.66313,1.66313 6.63607,0.94466 8.06281,2.37141 1.548,1.54799 5.43484,2.58914 7.11424,4.26854 4.59466,4.59466 11.35923,6.14212 16.1256,10.9085 0.28952,0.28952 14.84145,8.10903 16.12561,8.53709 2.24761,0.74919 5.77469,3.79426 7.58852,3.79426 1.0123,0 3.38371,1.89713 2.37142,1.89713 -0.20227,0 0.94856,-10.57972 0.94856,-11.38279 0,-2.72932 1.56052,-6.1044 2.37142,-8.53708 0.28456,-0.85371 -0.28458,-1.99199 0,-2.8457 2.37216,-7.1165 3.70375,-15.16978 0,-21.34271 z"
         style="fill:#ffffff;fill-opacity:1;stroke:none" />
      <path
         sodipodi:nodetypes="cssssssssssssssssssssssssssssc"
         inkscape:connector-curvature="0"
         id="path9401"
         d="m 331.44499,209.93448 c 0.54996,-1.80083 4.88818,-10.72494 8.06279,-17.07418 0.94457,-1.88913 1.28274,-4.60272 2.37142,-5.69139 1.12946,-1.12946 1.498,-7.73883 2.37141,-9.48565 2.52009,-5.04017 5.11292,-21.23853 8.53709,-24.66269 1.16402,-1.16403 0.96552,-6.65692 2.37141,-8.06281 1.30371,-1.30371 7.0981,0.70336 8.53708,1.42285 3.09443,1.54721 7.55886,1.8823 10.43422,3.31998 4.71742,2.3587 8.82515,2.75259 13.27991,4.97997 1.24525,0.62262 2.99487,0.0497 4.26855,0.47428 3.86972,1.28991 7.95161,2.07868 11.38278,3.79426 0.63237,0.31619 5.72301,1.3438 6.35539,1.65999 5.41532,2.70766 8.16488,1.36202 14.03875,3.31997 3.356,1.11867 13.22893,1.87164 15.17705,2.8457 1.92889,0.96445 5.13883,1.89713 7.58852,1.89713 1.28231,0 7.11423,2.57154 7.11423,3.31998 0,0.52563 -2.96465,1.54181 -3.31997,1.89713 -1.35097,1.35097 -1.43174,4.28632 -2.37141,6.16567 -2.23599,4.47198 -7.49571,18.40421 -9.48565,20.39415 -0.56178,0.56179 -3.2446,9.80918 -4.26855,11.85707 -0.66738,1.33476 -1.51021,6.62302 -2.13427,7.87309 -1.32386,2.65185 -3.27706,13.12317 -6.2131,12.80562 -2.69635,-0.29162 -5.44796,-2.51609 -8.25252,-3.74682 -2.21581,-0.97238 -4.31684,0.0465 -7.35138,-1.65999 -2.67049,-1.50181 -14.07106,-3.11514 -16.83702,-3.88912 -1.65517,-0.46316 -8.66361,-2.73508 -12.14164,-3.22512 -1.16104,-0.16359 -4.3684,0.0212 -7.96795,-1.28057 -3.08258,-1.1148 -6.84729,-1.62134 -9.77022,-3.08283 -1.73858,-0.86929 -5.9737,-0.23602 -7.68337,-1.09086 -5.3865,-2.69324 -15.41772,-3.03398 -24.09355,-5.07481 z"
         style="fill:#fe1306;fill-opacity:1;stroke:#ffffff;stroke-width:3.31997776;stroke-linecap:butt;stroke-linejoin:round;stroke-miterlimit:4;stroke-opacity:1;stroke-dasharray:none" />
      <path
         inkscape:connector-curvature="0"
         id="path9939"
         d="m 361.32479,155.86627 c -1.02681,2.61421 -0.25548,5.72806 -1.42285,8.06279 -0.50278,1.00557 -3.04543,11.18306 -2.8457,11.38279 0.4363,0.4363 3.13215,0.14323 3.79426,0.47428 4.47486,2.23743 8.90149,2.79076 12.80563,4.74282 1.80114,0.90057 6.80948,5.35235 7.58852,3.79427 0.4873,-0.9746 3.71582,-13.20148 3.79426,-13.27991 0.15646,-0.15647 2.6873,-5.84979 2.37141,-6.16568 -0.47428,-0.47428 -1.89712,0 -2.37141,-0.47428 -4.02988,-4.02988 -16.53399,-5.15122 -20.86843,-9.48566 -0.70702,-0.70701 -1.91734,0.57723 -2.84569,0.94858 z"
         style="fill:#ffffff;fill-opacity:1;stroke:none" />
      <path
         inkscape:connector-curvature="0"
         id="path9941"
         d="m 416.81584,171.04331 c -3.04779,2.26206 -1.48193,5.80954 -2.84569,8.53708 -0.72132,1.44264 -0.3575,5.10032 -1.42285,6.16568 -0.36877,0.36876 -2.3777,4.26225 -1.89713,4.74282 1.50879,1.50879 10.66281,0.70288 12.33135,2.37141 0.84299,0.843 9.28194,5.8951 9.48564,5.69139 0.94458,-0.94457 3.44739,-10.68903 4.74283,-13.27991 1.12755,-2.2551 0.59592,-6.63995 0.94857,-6.63995 0.23769,0 -3.20069,-1.69928 -6.63996,-2.8457 -4.95962,-1.65321 -9.33978,-3.67023 -14.70276,-4.74282 z"
         style="fill:#ffffff;fill-opacity:1;stroke:none" />
      <path
         sodipodi:nodetypes="cccssssc"
         inkscape:connector-curvature="0"
         id="path9943"
         d="m 421.08439,178.15754 c -0.47429,0.63238 -0.79048,2.13427 -1.42285,1.66 -0.98364,0.3821 -2.2682,5.44045 -1.89713,5.92853 1.46125,1.46124 5.22646,1.19038 7.58852,2.3714 1.535,0.76751 3.79367,2.372 3.79426,2.37142 0.33537,-0.33537 0,-2.79317 0,-3.31998 0,-1.06953 1.27802,-4.41337 0.47428,-5.21711 -0.48096,-0.48095 -7.73445,-3.47321 -8.53708,-3.79426 z"
         style="fill:#fe1306;fill-opacity:1;stroke:none" />
      <path
         sodipodi:nodetypes="csssssssc"
         inkscape:connector-curvature="0"
         id="path9945"
         d="m 366.77903,163.92907 c -0.72851,1.43601 -4.92269,6.46009 -3.31998,8.0628 0.43315,0.43315 6.4818,1.81805 7.58852,2.37141 0.9778,0.4889 1.7449,1.42285 2.8457,1.42285 0.0657,0 0.86171,-0.77485 0.94857,-0.94856 0.64247,-1.28496 1.89713,-3.69698 1.89713,-4.74283 0,-0.7749 1.08385,-3.18469 0.47428,-3.79426 -0.26147,-0.26146 -1.74112,0.6303 -2.37141,0 -1.83513,-1.83513 -5.26593,-2.37141 -8.06281,-2.37141 z"
         style="fill:#fe1306;fill-opacity:1;stroke:none" />
      <path
         sodipodi:nodetypes="csssssssssssc"
         inkscape:connector-curvature="0"
         id="path9960"
         d="m 366.06761,187.64319 c -0.8555,2.21302 -5.9746,17.73954 -4.26855,19.44559 0.59928,0.59927 7.76446,0.65021 8.53709,1.42285 1.21821,1.2182 3.49546,1.03631 5.21711,1.89712 3.97411,1.98706 21.81688,4.74271 22.29128,5.21712 0.66613,0.66612 4.66507,0.4354 5.69139,0.94856 2.11448,1.05724 5.59194,2.84569 7.58852,2.84569 0.48823,0 0.59518,0.82767 0.94857,0.47429 1.88074,-1.88074 4.74282,-13.57305 4.74282,-16.12561 0,-0.16202 -1.48294,-2.84569 -2.84569,-2.84569 -2.81214,0 -5.68568,-0.47143 -7.58852,-1.42285 -3.30055,-1.65027 -13.58321,-4.57184 -15.17704,-6.16567 -0.57627,-0.57627 -21.91816,-4.40387 -25.13698,-5.6914 z"
         style="fill:#ffffff;fill-opacity:1;stroke:none" />
      <path
         sodipodi:nodetypes="cscscssssssssscsssc"
         inkscape:connector-curvature="0"
         id="path9975"
         d="m 366.50147,197.05337 c -0.41997,0.75861 -1.42751,1.19219 -0.14463,2.37885 0.29849,0.27611 1.4161,-0.0605 1.66795,0.17233 1.62614,1.50416 6.8633,1.35788 9.35229,2.48348 0.59496,0.26905 1.54694,-0.11517 2.1419,0.15386 1.07006,0.48392 2.18616,0.40668 3.11741,0.82783 8.06851,3.6488 17.88705,4.36444 25.94268,8.00742 2.64071,1.19419 2.90171,-0.66756 3.73599,-1.56949 0.46335,-0.50092 -1.22782,-1.82099 -1.25867,-1.84952 -1.9573,-1.81051 -6.00967,-1.7866 -8.65987,-2.9851 -0.96151,-0.43483 -2.70298,-0.67288 -3.37285,-1.29252 -0.32826,-0.30363 -1.56743,0.37751 -1.89569,0.0739 -1.29467,-1.19757 -10.88937,-2.36383 -13.4268,-3.51133 -0.8513,-0.38498 -2.23793,0.26827 -3.08973,-0.11694 -1.1386,-0.51491 -2.706,-0.0598 -3.81908,-0.56316 -0.22396,-0.10128 -1.3134,-0.0728 -1.431,-0.18157 -0.73405,-0.67899 -2.92326,-0.41979 -3.60059,-1.04632 -0.88079,-0.81473 -2.18586,-1.33666 -2.92663,-2.02186 -0.22869,-0.21155 -1.97333,1.28842 -2.33268,1.04017"
         style="fill:#fe1306;fill-opacity:1;stroke:none" />
      <path
         sodipodi:nodetypes="cssssscc"
         inkscape:connector-curvature="0"
         id="path9977"
         d="m 371.28471,192.62315 c -0.70228,0.11794 -1.02693,1.34245 -2.13426,3.55713 -0.39679,0.79357 -0.13171,1.68624 -0.47429,2.37141 -0.95963,1.91927 -3.01635,5.99501 -1.1857,7.82566 0.0924,0.0924 0.80385,0 0.94856,0 2.28073,0 2.23065,-3.03845 3.08284,-4.74283 0.46749,-0.93498 3.1682,-7.74029 2.37141,-8.53708 -0.12344,-0.12344 -2.60856,-0.41121 -2.60856,-0.47429"
         style="fill:#fe1306;fill-opacity:1;stroke:none" />
      <path
         inkscape:connector-curvature="0"
         id="path9992"
         d="m 379.06584,195.4188 c -0.96487,0.40263 -0.33115,1.42043 -1.66812,2.9857 -0.97847,1.14556 -1.34337,5.44552 -2.117,6.35126 -0.37363,0.43742 0.39161,1.95432 0.42239,2.34551 0.0355,0.45123 1.71393,2.12432 2.25787,1.48751 2.22177,-2.60116 2.21866,-8.53574 3.71074,-10.28261 0.0321,-0.0377 0.33675,-2.13814 0.30544,-2.16489 -0.95398,-0.81485 -1.18926,-0.85795 -2.91132,-0.72248 z"
         style="fill:#fe1306;fill-opacity:1;stroke:none" />
      <path
         inkscape:connector-curvature="0"
         id="path9994"
         d="m 388.83317,196.8917 c -0.73084,-0.31226 -1.37035,1.60749 -2.60856,2.8457 -0.69265,0.69266 -2.13426,8.03046 -2.13426,9.48564 0,0.90678 1.1684,2.15158 1.65998,1.65999 1.77543,-1.77542 7.21458,-11.51958 4.74283,-13.99133 -0.39126,-0.39126 -1.10666,0 -1.65999,0 z"
         style="fill:#fe1306;fill-opacity:1;stroke:none" />
      <path
         inkscape:connector-curvature="0"
         id="path9996"
         d="m 395.47313,199.26311 c -0.1581,0.31619 -0.1581,1.10666 -0.47429,0.94857 -0.31618,-0.1581 0.72426,-1.19854 0.47429,-0.94857 -1.07684,1.07684 -1.34821,3.0082 -2.13428,3.79426 -0.77384,0.77384 -0.32105,2.69247 -0.94856,3.31998 -1.51048,1.51049 -2.43025,6.19509 1.42285,4.26854 0.97757,-0.48878 4.85848,-10.31855 4.50568,-10.67135 -0.75701,-0.75702 -1.44136,-0.71143 -2.84569,-0.71143 z"
         style="fill:#fe1306;fill-opacity:1;stroke:none" />
      <path
         inkscape:connector-curvature="0"
         id="path9998"
         d="m 401.16451,200.9231 c 0.15855,-0.21571 -0.66903,0.86379 -1.65999,2.8457 -0.57609,1.1522 -0.91667,2.30764 -1.42284,3.31998 -0.53025,1.06049 -1.63365,4.53202 -0.47428,5.69139 0.30207,0.30206 0.81931,-0.23715 0.94856,-0.23715 0.34297,0 1.219,-0.0333 1.42285,-0.23714 0.69329,-0.69329 4.77336,-10.40367 3.79426,-11.38278 -0.61484,-0.61484 -1.73903,0 -2.60856,0 z"
         style="fill:#fe1306;fill-opacity:1;stroke:none" />
      <path
         inkscape:connector-curvature="0"
         id="path10013"
         d="m 409.22732,202.58309 c -1.30835,0.96502 -1.66276,1.90543 -2.13427,3.31998 -0.38824,1.16471 -0.88571,2.71997 -1.42285,3.79426 -0.56856,1.13712 -3.2967,5.69139 -0.23714,5.69139 0.63181,0 1.23385,-0.0481 1.65999,-0.47428 1.31127,-1.31128 8.24309,-14.77488 2.13427,-12.33135 z"
         style="fill:#fe1306;fill-opacity:1;stroke:none" />
      <path
         inkscape:connector-curvature="0"
         id="path10034"
         d="m 292.58346,328.01266 c 0.87235,-0.20844 1.74277,-0.40452 2.51073,-0.78849 0.56833,-0.28417 1.81223,-0.54655 3.56898,-0.76775 1.75674,-0.2212 4.03348,-0.40123 6.63995,-0.56024 5.21294,-0.31803 11.7839,-0.52772 18.36363,-0.60175 6.57973,-0.074 13.16809,-0.0184 18.40513,0.14525 2.61852,0.0818 4.88588,0.19195 6.6607,0.332 1.77482,0.14004 3.05955,0.30051 3.65198,0.49799 1.5317,0.51057 3.27191,0.85606 5.18746,1.05825 1.91556,0.20218 3.99417,0.26456 6.18346,0.22824 2.18929,-0.0363 4.49453,-0.16854 6.84746,-0.37349 2.35292,-0.20496 4.75225,-0.48479 7.1587,-0.7885 4.81289,-0.60742 9.61909,-1.34653 13.9854,-1.92974 2.18316,-0.2916 4.25636,-0.5455 6.16271,-0.72624 1.90635,-0.18074 3.64728,-0.26975 5.16672,-0.26975 3.00413,0 7.36206,-0.11865 12.32542,-0.2075 0.26967,-0.005 0.59826,0.005 0.87149,0 0.28266,-1.01913 0.5923,-1.97309 1.01674,-2.82198 1.22396,-2.44791 0.0139,-8.07878 1.43174,-10.91443 1.59497,-3.18993 -0.67602,-8.92785 0.4565,-12.32541 2.10902,-6.32705 2.72382,-14.09476 7.1172,-18.48813 0.55333,-0.55333 0.40117,-1.83291 0.9545,-2.38623 0.78545,-0.78546 -0.006,-10.41048 0.95449,-11.37093 0.98097,-0.98096 4.73097,-10.17222 4.73097,-11.86892 0,-1.43857 1.51759,-7.6803 2.84273,-9.00544 0.26078,-0.26078 2.55324,-2.19847 1.90899,-2.84273 -2.08853,-2.08853 -12.12991,-2.14814 -15.6454,-3.31998 -5.9226,-1.9742 -10.78416,-4.70137 -16.59989,-6.63995 -6.49915,-2.16638 -14.85562,-1.95007 -21.82885,-4.27447 -2.15353,-0.71784 -3.83274,-1.43913 -5.68546,-2.36549 -2.57985,-1.28992 -9.95379,-0.70242 -12.32542,-1.88824 -3.78276,-1.89137 -13.21477,-2.30033 -15.66615,-4.75171 -0.7757,-0.7757 -12.57108,0.10541 -14.6909,-0.9545 -1.80263,-0.90131 -4.16533,-0.4123 -6.16271,-1.41099 -1.31469,-0.65735 -4.10933,-3.79722 -5.22896,-3.79722 -0.36148,0 0.19048,7.88121 -1.41099,9.48268 -0.69527,0.69527 -5.22897,14.54412 -5.22897,16.59989 0,1.76898 -0.68735,2.82718 -1.41099,4.27447 -0.97081,1.94167 0.13365,4.94092 -0.95449,7.11721 -1.57366,3.1473 -2.18867,6.26557 -3.79723,9.48268 -0.91844,1.83689 -2.10199,13.95016 -2.84273,14.69091 -3.80794,3.80797 -1.35926,12.20121 -3.79722,17.07713 -2.79025,5.58049 -4.76828,20.89093 -8.0717,24.19434 -0.63783,0.63783 0.25261,3.56537 -0.4565,4.27447 -1.71097,1.71098 -1.65602,5.63604 -2.86348,8.05095 -0.11307,0.22614 -0.30261,0.66022 -0.43574,0.93374 z"
         style="fill:#fe1306;fill-opacity:1;stroke:#ffffff;stroke-width:3.31997776;stroke-linecap:butt;stroke-linejoin:miter;stroke-miterlimit:4;stroke-opacity:1;stroke-dasharray:none" />
      <path
         inkscape:connector-curvature="0"
         id="path10036"
         d="m 333.48143,325.37743 c 2.89421,0.025 6.14611,-0.0141 8.59045,0.0623 2.61852,0.0818 4.88588,0.19195 6.6607,0.332 0.62461,0.0493 0.79474,0.10957 1.28649,0.16599 1.55152,-1.51171 3.26738,-3.14287 4.66872,-4.54421 0.97282,-0.97282 0.78326,-2.69225 1.88824,-3.79723 2.16512,-2.16512 3.99697,-3.04247 6.16271,-5.20821 0.17346,-0.17346 0.33152,-1.43175 0.95449,-1.43175 1.43713,0 1.43174,5.58182 1.43174,7.11721 0,0.88217 1.42986,5.37924 2.80123,9.25444 0.89989,-0.0576 1.75697,-0.0651 2.67674,-0.14525 2.35292,-0.20496 4.75225,-0.48479 7.1587,-0.7885 1.47856,-0.1866 2.83,-0.39915 4.29522,-0.60174 -0.46912,-1.54844 -0.80925,-2.95312 -0.80925,-3.92173 0,-2.38338 -1.69192,-8.13557 -2.84273,-10.43718 -0.50589,-1.0118 0.50591,-2.78542 0,-3.79722 -1.65661,-3.31323 -0.99018,-10.01058 -2.38623,-12.80267 -0.90082,-1.80164 -0.77178,-3.7678 -1.41099,-5.68546 -0.89633,-2.68897 -2.4127,-5.34986 -3.31998,-8.0717 -2.47454,-7.42362 -4.28249,-21.35962 -9.48269,-26.55982 -1.28626,-1.28626 -4.01164,-3.05715 -5.22896,-4.27447 -0.28642,-0.28641 -2.39295,0 -2.84273,0 -1.60574,0 -5.18346,-0.50199 -6.63996,0.95449 -1.94479,1.94481 -4.8075,3.81474 -7.59445,5.20822 -4.61067,2.30533 -13.28046,18.03108 -9.48268,21.82885 l 2.38623,2.36549 c 0.84507,0.84507 4.06638,-1.55595 4.73097,-1.88824 4.58551,-2.29275 6.91786,-9.76059 10.43718,-13.27991 0.36347,-0.36347 2.29674,-0.546 2.84273,0 2.14408,2.14407 4.71815,14.20083 6.16271,15.64539 1.76113,1.76114 6.63996,11.56296 6.63996,14.71166 0,0.0555 -6.09611,5.61885 -7.5737,7.09645 -4.06304,4.06303 -8.79273,9.74721 -13.27992,14.2344 -1.82122,1.82123 -5.6603,4.98644 -8.88094,8.25845 z"
         style="fill:#ffffff;fill-opacity:1;stroke:none" />
      <path
         inkscape:connector-curvature="0"
         id="path10110"
         d="m 254.94321,176.92441 c 0.21088,-0.58173 -0.59977,-1.06022 0.332,-1.99199 1.92684,-1.92684 3.11249,-5.10448 5.64396,-7.63595 0.89893,-0.89892 0.89605,-2.55604 1.65999,-3.31998 0.27084,-0.27084 0.94598,-3.21996 1.32799,-3.98397 1.79277,-3.58553 4.01218,-6.69636 5.97596,-10.62393 1.16681,-2.33362 1.55701,-4.774 2.65598,-6.97195 1.02927,-2.05854 2.51716,-3.70633 3.65198,-5.97596 2.72396,-5.44793 4.44812,-10.55624 7.30395,-16.26789 2.75881,-5.51761 5.86217,-8.40436 8.29994,-13.27992 0.28873,-0.57744 1.42458,-3.98397 1.65999,-3.98397 0.14997,0 4.81668,5.14869 5.31197,5.64396 0.40252,0.40253 0.32434,1.65234 0.66399,1.99199 1.98825,1.98825 4.47256,8.04624 6.97195,9.29594 1.50367,0.75183 9.8264,-0.13354 10.29194,0.332 0.53219,0.53219 -1.99199,12.46499 -1.99199,13.9439 0,1.43834 -2.28525,6.93322 -2.98798,7.63595 -0.79147,0.79147 -2.07434,8.3823 -2.65598,8.96394 -2.21309,2.21309 -4.82267,8.64935 -6.63996,12.28392 -1.56947,3.13895 -5.84151,20.11743 -6.97195,21.24786 -1.12314,1.12313 -2.83696,6.23245 -3.65198,6.63995 -0.57983,0.28992 -9.18891,-1.77247 -10.29193,-2.32398 -1.89027,-0.94513 -3.42525,-2.37662 -5.31196,-3.31998 -3.7372,-1.86859 -9.21949,-2.61775 -12.61592,-4.31597 -3.48331,-1.74165 -4.99851,-2.53059 -8.63194,-3.98397 z"
         style="fill:#fe1306;fill-opacity:1;stroke:#ffffff;stroke-width:3.31997776;stroke-linecap:butt;stroke-linejoin:miter;stroke-miterlimit:4;stroke-opacity:1;stroke-dasharray:none" />
      <path
         inkscape:connector-curvature="0"
         id="path10116"
         d="m 308.39485,92.92897 c 0.48662,-8.074726 16.09811,-10.461711 20.91586,-5.643965 0.30083,0.30083 3.70898,2.930975 3.65198,2.987985 -0.20394,0.20393 -2.28461,-1.288621 -2.32399,-1.327996 -0.85247,-0.852471 -5.26548,-1.304744 -6.63995,-1.991987 -1.56553,-0.782764 -10.25217,1.288232 -10.95593,1.991987 -1.59394,1.593946 -2.3803,2.169836 -4.64797,3.983976 z"
         style="fill:#ffffff;fill-opacity:1;stroke:none" />
      <path
         inkscape:connector-curvature="0"
         id="path10118"
         d="m 301.4229,89.940988 c 0.27985,-0.403112 1.96493,-5.298439 5.97596,-7.303952 1.38395,-0.691976 3.31035,-0.659181 4.64797,-1.32799 1.34294,-0.671473 3.05303,-1.327991 4.64797,-1.327991 0.57286,0 6.57626,-0.600303 5.31196,0.663996 -0.46995,0.469951 -10.76897,1.47304 -12.94791,3.651974 -1.85285,1.852847 -3.66679,4.994781 -5.64397,6.971955 -0.56429,0.56429 -1.36883,-0.82947 -1.99198,-1.327992 z"
         style="fill:#ffffff;fill-opacity:1;stroke:none" />
      <path
         inkscape:connector-curvature="0"
         id="path10120"
         d="m 298.10292,86.953007 c -0.10864,-4.785276 5.73154,-8.963938 10.29193,-8.963938 0.12372,0 3.65198,-1.329906 3.65198,-0.995994 0,0.410258 -2.46629,0.901146 -2.65599,0.995994 -1.94862,0.974312 -3.08926,2.374622 -4.97996,3.319977 -1.92317,0.961584 -3.01228,3.344286 -3.98398,4.31597 -0.49953,0.499538 -0.63997,1.996794 -0.66399,1.991987 -0.58438,-0.116876 -1.10666,-0.442659 -1.65999,-0.663996 z"
         style="fill:#ffffff;fill-opacity:1;stroke:none" />
      <path
         inkscape:connector-curvature="0"
         id="path10122"
         d="m 303.08289,107.20487 c -0.0402,-2.93834 1.71528,-3.04327 2.98798,-4.31597 5.57482,-5.57483 12.20273,5.06116 15.60389,1.65999 2.71618,-2.71618 -3.12114,-5.77712 -4.31597,-6.97195 -0.19357,-0.19358 -3.74673,-0.90124 -3.31998,-1.32799 4.35265,-4.35264 11.60175,4.66614 8.96394,7.30395 -0.166,0.166 0.166,0.82999 0,0.99599 -3.7648,3.7648 -9.16616,-2.78575 -10.62393,-1.32799 -0.86456,0.86457 -4.25046,0.59849 -4.97996,1.32799 -1.09755,1.09755 -2.03223,1.74249 -4.31597,2.65598 z"
         style="fill:#ffffff;fill-opacity:1;stroke:none" />
      <path
         inkscape:connector-curvature="0"
         id="path10176"
         d="m 278.18305,185.88835 c 3.3643,-7.03652 7.49154,-13.32309 10.62393,-19.58787 1.28211,-2.56422 2.02797,-5.38392 3.31998,-7.96795 0.62798,-1.25595 2.98493,-8.62889 3.31998,-8.96394 0.83078,-0.83077 3.65197,-6.85856 3.65197,-7.96795 0,-1.98456 3.95569,-10.14007 5.64397,-9.29593 1.2904,0.6452 -2.85248,10.82041 -3.65198,11.61992 -1.13527,1.13527 -2.05244,7.0324 -3.31998,8.29994 -0.61275,0.61275 -0.69612,2.35612 -1.32799,2.98798 -0.84185,0.84185 -0.78436,2.77635 -1.65999,3.65198 -1.23277,1.23277 -1.96371,6.27969 -2.32398,6.63995 -2.4706,2.47061 -2.71471,9.68666 -5.64397,12.61592 -1.07994,1.07995 -1.40025,4.05624 -2.32398,4.97997 -1.05593,1.05593 -5.1861,6.53689 -5.64396,6.30796 -0.47874,-0.23937 -0.62502,-3.12509 -0.664,-3.31998 z"
         style="fill:#ffffff;fill-opacity:1;stroke:none" />
      <path
         inkscape:connector-curvature="0"
         id="path10191"
         d="m 261.58316,174.26842 c -0.35646,1.01185 5.20303,0.22306 6.97196,1.99199 0.33199,0.332 1.65999,-0.332 1.99198,0 0.98332,0.98332 2.81513,2.48313 3.98398,3.65198 0.93291,0.93291 3.18415,0.19617 3.98397,0.99599 2.03722,2.03723 5.46232,2.80634 7.30395,4.64797 0.22133,0.22134 1.10666,-0.22133 1.32799,0 0.59676,0.59676 2.47103,1.56751 3.31998,1.99199 0.57717,0.28858 2.30528,0.99599 1.65999,0.99599 -0.2124,0 -1.09009,-2.51217 -1.32799,-2.98798 -0.37554,-0.75108 -2.89413,-0.90214 -3.98398,-1.99199 -4.63391,-4.63392 -14.56395,-5.93201 -19.58786,-10.95592 -0.4131,-0.4131 -2.14051,-0.81252 -2.98798,-1.65999 -1.1684,-1.1684 -4.71732,-0.11558 -2.65599,3.31997 z"
         style="fill:#ffffff;fill-opacity:1;stroke:none" />
      <path
         inkscape:connector-curvature="0"
         id="path10221"
         d="m 428.86855,323.19869 c 0.88289,0.004 1.69194,-0.0319 2.57298,-0.0208 2.74611,0.0349 5.46156,0.10731 8.0717,0.22825 2.61014,0.12095 5.11233,0.28081 7.4077,0.51875 2.29536,0.23793 4.38166,0.54788 6.18346,0.93374 1.80179,0.38586 3.31104,0.84628 4.44047,1.41099 0.39439,0.1972 0.81914,0.30081 1.24499,0.3735 -0.12787,-0.99036 -0.14404,-1.74781 0.0415,-1.97124 1.37192,-1.6521 0.1521,-6.89284 1.18274,-8.13394 0.29358,-0.35352 1.58499,-3.89074 1.28649,-4.12922 -0.0592,-0.0473 -1.05498,-0.22858 -1.05824,-0.22825 -1.77486,0.17793 -6.38829,-0.50074 -7.80195,0.1245 -1.00614,0.44499 -3.86945,1.25764 -5.02147,0.82999 -5.19101,-1.92698 -9.43055,-1.54204 -15.54164,-2.11649 -1.50996,-0.73095 -2.24297,5.98712 -3.00873,12.18017 z"
         style="fill:#fe1306;fill-opacity:1;stroke:#ffffff;stroke-width:3.14682245;stroke-miterlimit:4;stroke-opacity:1;stroke-dasharray:none" />
      <path
         inkscape:connector-curvature="0"
         id="path10223"
         d="m 445.84193,242.99197 c 0.22133,0.44266 1.10667,1.10666 0.664,1.32799 -0.44267,0.22133 -0.664,-1.8229 -0.664,-1.32799 0,2.10338 1.76901,6.08991 0.664,8.29994 -0.73754,1.47509 -1.08567,4.40564 -1.99199,5.31197 -0.55333,0.55333 0.55333,2.76665 0,3.31997 -1.08256,1.08256 -2.32662,6.64525 -3.31998,8.63195 -0.72026,1.44051 -0.706,3.36198 -1.99198,4.64796 -1.47257,1.47257 -3.29495,2.29896 -4.64797,3.65198 -0.45244,0.45244 -1.78497,2.19901 -1.99199,1.99199 -0.77092,-0.77092 6.33155,-12.9715 6.63996,-13.27991 0.73427,-0.73428 0.26172,-2.58571 0.99599,-3.31998 4.51789,-4.51789 -0.008,-14.73438 5.64396,-19.25587 z"
         style="fill:#fe1306;fill-opacity:1;stroke:none" />
      <path
         inkscape:connector-curvature="0"
         id="path10225"
         d="m 452.14989,246.31194 c -0.27466,0.81793 -0.75505,1.60118 -0.99599,2.32399 -0.40707,1.22121 0.5713,3.17337 0,4.31597 -1.04731,2.09461 -1.65999,5.50723 -1.65999,7.96795 0,2.66363 -4.12156,10.76152 -5.31197,11.95192 -0.70817,0.70817 -1.78227,1.24057 -2.32398,2.32398 -0.35493,0.70987 -5.41087,6.20905 -4.97997,6.63996 1.86588,1.86588 7.10884,-4.45286 7.96795,-5.31197 2.4311,-2.4311 4.65748,-5.33099 5.97596,-7.96794 0.75622,-1.51244 6.55924,-19.00459 4.31597,-21.24786 -0.54465,-0.54465 -1.85367,-0.76914 -2.98798,-0.996 z"
         style="fill:#fe1306;fill-opacity:1;stroke:none" />
      <path
         inkscape:connector-curvature="0"
         id="path10227"
         d="m 435.882,286.81567 c 4.51398,-0.0242 8.53005,-4.87807 12.61592,-8.96394 1.48838,-1.48838 1.83475,-3.82674 2.98798,-4.97996 0.74701,-0.74702 2.55675,-2.12553 2.98798,-2.98798 0.27251,-0.54504 5.11643,-4.1795 5.64396,-3.65198 1.17006,1.17007 -3.24938,5.57336 -4.31597,6.63996 -2.76384,2.76384 -4.78252,7.43849 -7.30395,9.95993 -0.98733,0.98733 -2.22282,1.89081 -3.31998,2.98798 -0.74103,0.74104 -9.80503,3.80689 -10.29193,3.31998 -0.59596,-0.59596 0.56237,-1.60129 0.99599,-2.32399 z"
         style="fill:#fe1306;fill-opacity:1;stroke:none" />
      <path
         sodipodi:nodetypes="csssssssssssssc"
         inkscape:connector-curvature="0"
         id="path10242"
         d="m 434.22201,291.46364 c 0.44267,-0.11066 1.21732,-0.77465 1.32799,-0.332 0.11067,0.44267 -1.78427,0.332 -1.32799,0.332 0.63664,0 6.86583,-0.44493 7.30395,-0.66399 0.79156,-0.39578 2.02875,-1.32799 2.65598,-1.32799 2.64966,0 12.03534,-8.05136 14.27591,-10.29194 0.20742,-0.20742 2.02659,-2.95337 3.31998,-1.65998 0.84647,0.84647 0.88366,2.76831 0,3.65197 -0.55333,0.55334 0.22133,2.43465 -0.332,2.98798 -2.08551,2.08551 -4.39603,2.36402 -6.97195,3.65198 -1.7886,0.89429 -1.98753,1.65552 -3.31998,2.98798 -1.71294,1.71294 -8.66583,5.31196 -11.95192,5.31196 -2.17638,0 -4.56702,0.74494 -5.97596,-0.66399 -0.59031,-0.59031 0.5322,-1.92863 0.66399,-2.32399 0.17845,-0.53533 -0.23229,-1.65999 0.332,-1.65999"
         style="fill:#fe1306;fill-opacity:1;stroke:none" />
      <path
         inkscape:connector-curvature="0"
         id="path10244"
         d="m 431.89803,298.4356 c 0.44266,-0.11067 1.21732,-0.77466 1.32799,-0.332 0.11067,0.44266 -1.78428,0.332 -1.32799,0.332 1.1821,0 5.33391,-1.30604 6.30795,-0.332 0.45452,0.45451 2.32074,0.99599 3.31998,0.99599 6.45299,0 15.33835,-2.05844 18.59188,-5.31196 0.75847,-0.75847 0.74211,0.0781 0.99599,0.33199 0.166,0.166 0.83,-0.16599 0.99599,0 0.83516,0.83516 -1.07684,6.38881 -1.32799,6.63996 -0.52635,0.52636 -1.84547,0.25875 -2.65598,0.664 -1.05006,0.52503 -3.93769,0.94971 -4.64797,1.65998 -0.42251,0.42252 -12.85135,-0.56743 -12.94791,-0.66399 -0.13953,-0.13953 -3.8087,0.332 -4.64797,0.332 -0.88533,0 -1.77066,0 -2.65598,0 -0.37128,0 -0.94286,0.38513 -0.996,0.33199 -0.9573,-0.9573 -0.70383,-2.78877 -0.33199,-4.64796 z"
         style="fill:#fe1306;fill-opacity:1;stroke:none" />
      <path
         inkscape:connector-curvature="0"
         id="path10246"
         d="m 431.56603,305.40755 c 4.28349,1.45044 7.39761,2.32398 12.28392,2.32398 2.02223,0 4.12352,-0.33199 6.30795,-0.33199 1.78447,0 10.03853,-1.07459 10.62393,-1.65999 0.0819,-0.0819 1.24376,-0.74823 1.32799,-0.664 0.10069,0.10068 -0.80208,4.12207 -0.99599,4.31597 -0.24443,0.24443 -3.60325,0.332 -3.98397,0.332 -1.49958,0 -3.54614,-0.10584 -4.31597,0.664 -0.4377,0.43769 -3.62819,0 -4.31597,0 -3.33606,0 -6.82185,-0.664 -10.95593,-0.664 -2.09995,0 -4.58086,1.02955 -6.63996,0 -1.00211,-0.50106 0.5146,-3.56897 0.664,-4.31597 z"
         style="fill:#fe1306;fill-opacity:1;stroke:none" />
      <path
         inkscape:connector-curvature="0"
         id="path10040"
         d="m 293.69209,192.62316 c -0.5549,1.09658 -2.79422,-0.0515 -5.21711,2.37141 -7.0515,7.05151 -18.02195,10.90773 -25.13697,18.02274 -0.6354,0.63539 -2.65352,0.61534 -3.31998,0.94857 -1.12684,0.56342 -7.032,3.40221 -8.0628,2.3714 -0.23714,-0.23713 0.23714,-1.1857 0,-1.42284 -3.0946,-3.0946 8.46081,-5.14084 9.01137,-5.69139 2.67616,-2.67616 8.33569,-4.54144 10.90849,-7.11424 3.34531,-3.34531 8.23112,-7.67268 13.7542,-10.43421 0.83068,-0.41535 8.53709,-3.86917 8.53709,-1.42285 0,1.58883 -0.47429,3.154 -0.47429,4.74282"
         style="fill:#fe1306;fill-opacity:1;stroke:none" />
      <path
         inkscape:connector-curvature="0"
         id="path10068"
         d="m 254.94321,190.53632 c 0.015,-1.60979 -3.14556,1.17041 -2.32399,1.99198 1.10686,1.10686 11.03149,1.25244 12.28392,0 0.92296,-0.92295 12.57446,0.996 14.27591,0.996 0.93073,0 7.30395,1.15261 7.30395,-0.332 0,-1.33313 -5.39224,-1.32799 -6.63996,-1.32799 -6.55724,0 -17.19937,-5.94827 -24.89983,-1.32799 z"
         style="fill:#fe1306;fill-opacity:1;stroke:none" />
      <path
         inkscape:connector-curvature="0"
         id="path10070"
         d="m 251.95523,184.56036 c 3.72456,-0.92469 15.00543,0.39753 16.93188,2.32398 0.8599,0.85989 4.05389,0.53296 4.97997,0.99599 0.54683,0.27342 3.38048,1.9315 3.65198,1.65999 1.22369,-1.22369 -4.45781,-3.31998 -5.97596,-3.31998 -2.65399,0 -5.26704,-1.80351 -7.63595,-2.98798 -2.11201,-1.056 -5.07458,-0.2133 -7.30395,-1.32799 -1.6704,-0.83519 -10.92015,1.40155 -4.64797,2.65599 z"
         style="fill:#fe1306;fill-opacity:1;stroke:none" />
      <path
         inkscape:connector-curvature="0"
         id="path10072"
         d="m 254.61121,198.17227 c -0.44267,0 -1.32799,0.44266 -1.32799,0 0,-0.44266 1.77066,0 1.32799,0 -2.10242,0 -6.23658,3.18966 -5.31196,3.65197 0.64962,0.32481 23.57072,-3.65086 23.90384,-3.98397 0.60993,-0.60994 -6.4498,-1.32799 -7.30396,-1.32799 -4.04123,0 -7.87887,0.29636 -11.28792,1.65999 z"
         style="fill:#fe1306;fill-opacity:1;stroke:none" />
      <path
         inkscape:connector-curvature="0"
         id="path10074"
         d="m 270.8791,219.08813 c -0.61121,0.7602 -3.94039,4.69155 -2.65598,5.97596 0.75064,0.75064 5.25529,-2.93131 5.97596,-3.65198 3.54975,-3.54974 15.93589,-16.3855 15.93589,-19.58787 0,-0.64959 2.81346,-5.81849 2.32399,-6.30796 -1.5975,-1.5975 -3.64011,3.97211 -4.64797,4.97997 -1.13261,1.1326 -1.68763,2.35163 -2.65598,3.31998 -1.32435,1.32435 -3.28111,1.62112 -4.64797,2.98798 -1.56932,1.56932 -2.91279,2.58078 -4.64797,4.31597 -2.24732,2.24732 -2.48022,4.84326 -4.97997,7.96795 z"
         style="fill:#fe1306;fill-opacity:1;stroke:none" />
      <path
         inkscape:transform-center-x="1.659988"
         inkscape:connector-curvature="0"
         id="path10076"
         d="m 283.97483,218.94318 c -2.20158,-0.0793 -2.04528,2.26098 -3.45822,3.31165 -1.59374,1.18511 -2.38488,2.18479 -3.13133,3.2536 -0.29277,0.4192 -3.04703,3.31248 -2.36148,3.79127 2.00103,1.39751 10.20509,-8.04619 9.89504,-8.8382 -0.21726,-0.55495 -0.62935,-1.01221 -0.94401,-1.51832 z"
         style="fill:#fe1306;fill-opacity:1;stroke:none" />
      <path
         inkscape:connector-curvature="0"
         id="path10078"
         d="m 295.77894,198.50426 c 0.52871,1.73605 -1.28896,9.88187 -3.31998,13.94391 -0.48864,0.97726 -1.65999,7.19075 -1.65999,7.96795 0,3.17044 -5.8294,14.09047 -4.97997,14.9399 2.41264,2.41264 3.49427,-4.82225 4.64797,-5.97596 4.31576,-4.31576 4.52818,-12.04433 7.30395,-17.59589 0.48693,-0.97385 -0.48693,-2.67811 0,-3.65197 0.3171,-0.6342 0.95977,-5.34819 0.332,-5.97596 -0.56665,-0.56665 -1.53159,-2.66149 -2.32398,-3.65198 z"
         style="fill:#fe1306;fill-opacity:1;stroke:none" />
      <path
         inkscape:connector-curvature="0"
         id="path10106"
         d="m 306.73486,204.48022 c -0.56498,-0.0599 -0.93278,6.18154 -2.32398,8.96394 -1.52773,3.05547 -1.74132,6.72129 -3.65198,8.63195 -0.23003,0.23002 -0.10197,1.42996 -0.332,1.65998 -2.31451,2.31451 -2.0114,6.99138 -4.31597,9.29594 -0.16779,0.16779 -0.78022,2.09154 -0.66399,2.32399 0.3761,0.75221 1.7468,1.94858 2.98798,1.32799 3.72843,-1.86422 12.4337,-22.60827 9.95993,-27.55582 -0.3469,-0.6938 0.485,-2.40599 0,-2.98798 -0.50096,-0.60115 -1.10666,-1.10665 -1.65999,-1.65999 z"
         style="fill:#fe1306;fill-opacity:1;stroke:none" />
      <path
         inkscape:connector-curvature="0"
         id="path10108"
         d="m 316.6948,209.79219 c -1.74868,-0.49225 -0.20738,3.40273 -1.65999,6.30796 -0.2656,0.53119 0.26559,1.46079 0,1.99198 -0.46509,0.93018 -0.996,2.49763 -0.996,3.31998 0,1.87117 -1.84043,3.68088 -2.65598,5.31196 -1.95908,3.91816 -1.98452,12.27645 -4.31597,14.60791 -0.52852,0.52852 0.53982,2.19981 0.664,2.32398 1.7892,1.7892 5.09216,-6.86434 5.64396,-7.96795 0.86568,-1.73135 0.80098,-3.92596 1.65999,-5.64396 1.20496,-2.40992 1.80946,-3.95092 2.98798,-6.30796 0.72655,-1.4531 0.71185,-13.05199 0.33199,-13.27991 -0.51102,-0.30661 -1.10666,-0.44266 -1.65998,-0.66399 z"
         style="fill:#fe1306;fill-opacity:1;stroke:none" />
      <path
         inkscape:connector-curvature="0"
         id="path10276"
         d="m 295.44694,82.637036 c -0.55251,0.95541 -0.20319,2.120796 1.65999,3.983974 0.64164,0.641639 2.32398,-2.36087 2.32398,-2.323985 0,5.388816 3.01125,2.679256 3.65198,3.319978 0.62717,0.627177 -0.72678,1.597208 -0.332,1.991987 0.53859,0.53859 1.70924,1.37724 2.32398,1.99199 0.75273,0.75273 4.97997,-3.110411 4.97997,-2.323988 0,1.574428 -1.56441,4.507118 -0.99599,5.643958 0.0689,0.13782 0.8801,-0.11588 0.99599,0 2.62851,2.62851 6.99205,-2.28378 7.96795,-0.33199 1.59872,3.19744 -4.85045,5.31196 -6.97196,5.31196 -2.52909,0 -4.0634,-0.0794 -5.31196,-1.32799 -0.27667,-0.27666 -0.0553,-1.05132 -0.332,-1.32799 -0.72855,-0.72854 0.664,-4.35697 0.664,-3.31998 0,0.332 -0.664,0 -0.996,0 -1.94002,0 -3.04895,-0.061 -3.98397,-0.99599 -0.94267,-0.94267 0.36283,-2.62515 -0.332,-3.31998 -0.25801,-0.258009 -1.99289,1.32709 -2.65598,0.664 -1.99629,-1.996294 -3.62772,-2.777259 -2.65598,-7.635954 z"
         style="fill:#ffffff;fill-opacity:1;stroke:none" />
      <path
         inkscape:connector-curvature="0"
         id="path10278"
         d="m 323.33475,102.22491 c -0.009,-1.03632 0.0598,-2.05184 1.65999,-3.65198 2.03504,-2.03504 4.44535,-3.05267 6.97195,-4.31597 1.35608,-0.67803 3.65198,1.79283 3.65198,1.32799 0,-0.28222 -1.18096,-0.84896 -1.32799,-0.99599 -4.6825,-4.682494 -10.15379,1.71569 -11.95192,5.31196 -0.37692,0.75383 0.56237,1.60129 0.99599,2.32399 z"
         style="fill:#ffffff;fill-opacity:1;stroke:none" />
      <path
         style="fill:none;stroke:#ffffff;stroke-width:3.31997776;stroke-linecap:round;stroke-linejoin:round;stroke-miterlimit:4;stroke-opacity:1;stroke-dasharray:none"
         d="m 239.69392,76.494409 c 4.80278,51.274251 0.93903,101.803741 0.93903,154.001171 0,7.39858 2.97023,40.0721 0.93903,44.13449 -2.38877,4.77755 -1.40996,50.23676 0.93904,52.58576 0.7765,0.7765 17.13948,-2.8171 22.53675,-2.8171 6.57145,0 21.72933,6.97694 30.04901,2.8171 4.54668,-2.27334 52.54146,-2.51886 57.28092,-0.93903 12.25367,4.08455 38.55224,-2.8171 50.70771,-2.8171 12.0165,0 45.42837,-1.70064 54.46383,2.8171 3.68099,1.84049 8.86003,-2.36784 13.14644,-0.93903 3.53457,1.17819 11.91071,3.1138 14.08547,0.93903 3.39207,-3.39206 10.96865,3.11683 14.08548,0 0.66399,-0.664 0,-5.53019 0,-6.57322 0,-13.34349 1.87806,-25.15681 1.87806,-38.5003 0,-17.36895 -2.8171,-33.15143 -2.8171,-49.76867 0,-5.6204 2.61023,-28.58468 0,-33.80513 -1.29976,-2.59953 -2.32997,-40.41356 -0.93903,-43.19545 5.24851,-10.49702 4.32671,-80.186133 -0.93903,-85.451873 -1.48588,-1.485878 -30.0616,3.743536 -31.92707,1.878063 -4.05783,-4.05783 -38.04441,-3.756126 -46.95158,-3.756126 -12.29198,0 -73.41595,-0.767541 -77.93962,3.756126 -1.07967,1.07968 -38.8311,-1.878063 -44.13448,-1.878063 -4.96256,0 -27.79182,-2.257184 -30.98804,0.939032 -3.21842,3.218414 -15.87013,-3.849534 -19.71966,0 -4.80985,4.809851 -4.69516,16.758206 -4.69516,6.57322 z"
         id="path10304"
         inkscape:connector-curvature="0" />
    </g>
    <path
       style="fill:none;stroke:#f4d7d7;stroke-width:3;stroke-linecap:round;stroke-linejoin:round;stroke-miterlimit:4;stroke-opacity:1;stroke-dasharray:none"
       d="m 127.24323,341.90544 c -8.80775,-6.93195 -20.51067,-0.35844 -15.14799,10.3669 2.90044,5.80089 14.97766,2.98308 14.97766,-2.99553 0,-0.58571 0.69937,-5.49182 -0.49926,-5.49182 -1.01229,0 0.49926,1.98326 0.49926,2.99554 0,2.89888 0.49925,5.72618 0.49925,8.48734 0,8.33779 -0.52533,17.02685 -3.99404,23.96426 -0.44318,0.88635 -3.40698,5.08037 -4.4933,3.99404 -1.08172,-1.08172 -2.91232,-1.41456 -3.99404,-2.49628 -2.34916,-2.34916 0.28795,-11.27157 1.99702,-12.98064 1.67344,-1.67344 4.78625,-5.0623 6.1614,-6.43745"
       id="path10499"
       inkscape:connector-curvature="0"
       sodipodi:nodetypes="csssssssssc" />
    <path
       style="fill:none;stroke:#f4d7d7;stroke-width:3;stroke-linecap:round;stroke-linejoin:round;stroke-miterlimit:4;stroke-opacity:1;stroke-dasharray:none"
       d="m 136.55875,337.79393 c -1.05869,5.23564 -0.79616,14.38384 0.49925,16.97469"
       id="path10501"
       inkscape:connector-curvature="0" />
    <path
       style="fill:none;stroke:#f4d7d7;stroke-width:3;stroke-linecap:round;stroke-linejoin:round;stroke-miterlimit:4;stroke-opacity:1;stroke-dasharray:none"
       d="m 135.56024,326.81031 c -0.16538,-0.42622 0.13497,-5.35683 0.99851,-4.49329"
       id="path10503"
       inkscape:connector-curvature="0" />
    <path
       style="fill:none;stroke:#f4d7d7;stroke-width:3;stroke-linecap:round;stroke-linejoin:round;stroke-miterlimit:4;stroke-opacity:1;stroke-dasharray:none"
       d="m 150.5379,325.8118 c -1.31483,6.13824 -5.55532,22.33948 -2.49628,28.45756 2.45023,4.90045 9.98511,-3.043 9.98511,-1.49777 0,0.33284 -0.66567,0 -0.99851,0"
       id="path10505"
       inkscape:connector-curvature="0" />
    <path
       style="fill:none;stroke:#f4d7d7;stroke-width:3;stroke-linecap:round;stroke-linejoin:round;stroke-miterlimit:4;stroke-opacity:1;stroke-dasharray:none"
       d="m 140.05353,338.29318 c 4.13906,-0.1578 10.93958,-2.76792 14.47841,-0.9985"
       id="path10507"
       inkscape:connector-curvature="0" />
    <path
       style="fill:none;stroke:#f4d7d7;stroke-width:3;stroke-linecap:round;stroke-linejoin:round;stroke-miterlimit:4;stroke-opacity:1;stroke-dasharray:none"
       d="m 164.51705,322.31702 c -2.11773,9.51594 0,19.20698 0,28.95681 0,1.61581 -0.33601,4.15729 0.49925,4.99255 0.35303,0.35303 0,1.99702 0,1.49777 0,-2.18785 -0.44458,-24.90809 6.98958,-17.47394 3.53549,3.53549 2.84453,18.39694 2.99553,18.47244 0.89866,0.44933 0.34615,-0.69229 0.49925,-0.9985"
       id="path10509"
       inkscape:connector-curvature="0"
       sodipodi:nodetypes="cscsscc" />
    <path
       style="fill:none;stroke:#f4d7d7;stroke-width:3;stroke-linecap:round;stroke-linejoin:round;stroke-miterlimit:4;stroke-opacity:1;stroke-dasharray:none"
       d="m 182.9895,340.78946 c 0.28748,6.30409 -1.29842,17.57361 4.49329,20.46947 4.0551,2.02755 6.48454,-4.98099 7.48884,-6.98957 1.20737,-2.41475 0.014,-8.95855 -0.99852,-10.98362 -0.11115,-0.2223 0.0837,-2.99553 0,-2.99553 -0.53923,0 -1.63885,2.99553 0.49926,2.99553"
       id="path10511"
       inkscape:connector-curvature="0" />
    <path
       style="fill:none;stroke:#f4d7d7;stroke-width:3;stroke-linecap:round;stroke-linejoin:round;stroke-miterlimit:4;stroke-opacity:1;stroke-dasharray:none"
       d="m 202.46045,322.31702 c 0.59715,3.85522 3.11451,36.06535 3.99405,36.94489 0.4652,0.46521 12.98064,-5.4682 12.98064,-9.48585 0,-1.19189 1.15712,-2.67831 0.49925,-3.99404 -1.00259,-2.00519 -7.89958,-9.0751 -9.9851,-6.98958 -1.02008,1.02007 -7.16586,2.74293 -4.66364,3.99405"
       id="path10513"
       inkscape:connector-curvature="0"
       sodipodi:nodetypes="cssssc" />
    <path
       style="fill:none;stroke:#f4d7d7;stroke-width:3;stroke-linecap:round;stroke-linejoin:round;stroke-miterlimit:4;stroke-opacity:1;stroke-dasharray:none"
       d="m 228.92099,356.26638 c 0.75144,-1.24694 -1.66822,-1.66216 0.99851,-2.99554"
       id="path10515"
       inkscape:connector-curvature="0" />
    <path
       style="fill:none;stroke:#f4d7d7;stroke-width:3;stroke-linecap:round;stroke-linejoin:round;stroke-miterlimit:4;stroke-opacity:1;stroke-dasharray:none"
       d="m 247.89269,341.28872 c -2.5271,-2.83587 -15.2205,1.76775 -11.48287,12.98064 0.65292,1.95878 2.13195,4.06151 3.99404,4.99255 1.66877,0.83438 10.2176,-2.11326 6.98957,-0.49926"
       id="path10517"
       inkscape:connector-curvature="0" />
    <path
       style="fill:none;stroke:#f4d7d7;stroke-width:3;stroke-linecap:round;stroke-linejoin:round;stroke-miterlimit:4;stroke-opacity:1;stroke-dasharray:none"
       d="m 265.86588,340.29021 c -11.74093,-2.60757 -17.87062,13.53118 -6.98957,18.9717 1.44703,0.72352 3.9527,-0.47859 4.99255,-0.99851 4.24426,-2.12213 7.98126,-7.01008 5.99107,-12.98064 -0.51747,-1.5524 -1.76636,-1.4014 -2.49628,-2.49627 -0.53826,-0.80741 -0.52739,-2.49628 -1.49777,-2.49628"
       id="path10519"
       inkscape:connector-curvature="0"
       sodipodi:nodetypes="cssssc" />
    <path
       style="fill:none;stroke:#f4d7d7;stroke-width:3;stroke-linecap:round;stroke-linejoin:round;stroke-miterlimit:4;stroke-opacity:1;stroke-dasharray:none"
       d="m 274.85248,339.79096 c -0.73388,2.7704 -0.49926,5.64714 -0.49926,8.48733 0,3.14683 0.49926,6.5257 0.49926,9.48586 0,1.33135 1.33135,3.99404 0,3.99404 -0.3826,0 1.90072,-16.68578 2.49627,-18.47245 2.16357,-6.4907 7.9881,-0.44414 7.9881,4.4933 0,3.36516 -0.99852,6.78948 -0.99852,9.98511 0,1.33135 0,2.66269 0,3.99404 0,0.33284 0.33284,0.99851 0,0.99851 -0.33284,0 0,-0.66567 0,-0.99851 0,-1.49777 0,-2.99554 0,-4.4933 0,-3.49209 2.96576,-22.49627 8.48734,-16.97468 2.60637,2.60636 6.98512,19.47542 4.4933,21.96723 -1.13852,1.13853 -0.86277,-2.13276 -0.49925,-2.49627"
       id="path10521"
       inkscape:connector-curvature="0"
       sodipodi:nodetypes="cssssssssssssc" />
    <path
       style="fill:none;stroke:#f4d7d7;stroke-width:3;stroke-linecap:round;stroke-linejoin:round;stroke-miterlimit:4;stroke-opacity:1;stroke-dasharray:none"
       d="m 305.42879,370.1436 c 1.15525,-0.86682 -0.52404,-2.62846 0,-3.67652 1.7157,-3.43142 6.14641,-17.78873 7.35304,-18.99536 1.34062,-1.34062 0.10105,-5.00308 1.22551,-6.12754 1.70613,-1.70614 4.28927,-7.40384 4.28927,-10.4168"
       id="path10523"
       inkscape:connector-curvature="0" />
    <path
       style="fill:none;stroke:#f4d7d7;stroke-width:3;stroke-linecap:round;stroke-linejoin:round;stroke-miterlimit:4;stroke-opacity:1;stroke-dasharray:none"
       d="m 335.45371,344.70016 c -1.18013,-6.24326 -13.26415,0.21643 -11.64233,1.83826 2.57873,2.57873 17.76553,6.74462 10.41682,14.09333 -5.94907,5.94908 -16.44538,-3.67652 -13.48058,-3.67652"
       id="path10525"
       inkscape:connector-curvature="0" />
    <path
       style="fill:none;stroke:#f4d7d7;stroke-width:3;stroke-linecap:round;stroke-linejoin:round;stroke-miterlimit:4;stroke-opacity:1;stroke-dasharray:none"
       d="m 341.36754,341.52954 c -1.13906,3.87336 -0.54662,8.16421 0.61276,11.64232 0.69102,2.07308 0.193,4.06253 1.2255,6.12753 5.72013,11.44026 16.90023,-5.05989 14.09333,-13.48057 -0.91748,-2.75246 -0.72151,-3.73089 -1.83826,-4.28928"
       id="path10527"
       inkscape:connector-curvature="0" />
    <path
       style="fill:none;stroke:#f4d7d7;stroke-width:3;stroke-linecap:round;stroke-linejoin:round;stroke-miterlimit:4;stroke-opacity:1;stroke-dasharray:none"
       d="m 361.16101,325.54453 c -0.25989,4.98293 1.22552,9.81902 1.22552,14.70609 0,4.96297 0.61274,9.65927 0.61274,14.70608 0,1.47779 -0.90541,8.43222 0.61276,9.1913 2.24778,1.12389 19.06771,-8.43385 15.31883,-15.93159 -2.21451,-4.42903 0.7978,-4.19675 -5.51478,-7.35305 -1.9879,-0.99395 -4.92983,0.61277 -6.74028,0.61277 -2.4975,0 -4.53181,1.0404 -4.90203,1.2255"
       id="path10529"
       inkscape:connector-curvature="0" />
    <path
       style="fill:none;stroke:#f4d7d7;stroke-width:3;stroke-linecap:round;stroke-linejoin:round;stroke-miterlimit:4;stroke-opacity:1;stroke-dasharray:none"
       d="m 399.04488,341.52954 c -0.817,-0.40849 -2.85952,-0.40849 -2.45101,-1.22551 0.4085,-0.81699 3.36444,1.22551 2.45101,1.22551 -1.2918,0 -2.38472,-1.22551 -3.67652,-1.22551 -1.55322,0 -2.28552,1.22551 -3.67652,1.22551 -3.79028,0 -7.89254,4.01953 -3.67653,6.12754 5.38646,2.69323 15.67279,6.03239 11.64232,14.09332 -3.2133,6.42661 -21.88086,-7.57028 -14.09333,-3.67651"
       id="path10531"
       inkscape:connector-curvature="0" />
    <path
       style="fill:none;stroke:#f4d7d7;stroke-width:3;stroke-linecap:round;stroke-linejoin:round;stroke-miterlimit:4;stroke-opacity:1;stroke-dasharray:none"
       d="m 409.08772,331.61865 c 0.4324,8.72729 -3.52703,25.27238 2.45101,31.25041 1.32052,1.32053 9.19413,-2.7588 9.80406,-3.06376"
       id="path10533"
       inkscape:connector-curvature="0" />
    <path
       style="fill:none;stroke:#f4d7d7;stroke-width:3;stroke-linecap:round;stroke-linejoin:round;stroke-miterlimit:4;stroke-opacity:1;stroke-dasharray:none"
       d="m 401.73468,345.71197 c 4.23091,-0.16596 10.33201,-4.33166 14.09333,-2.45101"
       id="path10535"
       inkscape:connector-curvature="0" />
    <path
       style="fill:none;stroke:#f4d7d7;stroke-width:3;stroke-linecap:round;stroke-linejoin:round;stroke-miterlimit:4;stroke-opacity:1;stroke-dasharray:none"
       d="m 424.29971,346.43157 c 1.60107,-7.87316 -2.48399,6.22645 0.61275,-3.06376 0.9998,-2.9994 8.4474,-3.93882 9.80406,-1.22551 3.26695,6.53392 -0.61276,16.41946 -0.61276,23.28463"
       id="path10537"
       inkscape:connector-curvature="0" />
    <path
       style="fill:none;stroke:#f4d7d7;stroke-width:3;stroke-linecap:round;stroke-linejoin:round;stroke-miterlimit:4;stroke-opacity:1;stroke-dasharray:none"
       d="m 434.10376,354.39737 c -0.817,-0.4085 -2.85951,-0.4085 -2.45102,-1.22551 0.40851,-0.81701 3.36446,1.22551 2.45102,1.22551 -1.56437,0 -4.74835,-2.22148 -6.74029,-1.22551 -6.69895,3.34948 -0.46422,13.9448 5.51478,7.9658"
       id="path10539"
       inkscape:connector-curvature="0" />
    <path
       style="fill:none;stroke:#f4d7d7;stroke-width:3;stroke-linecap:round;stroke-linejoin:round;stroke-miterlimit:4;stroke-opacity:1;stroke-dasharray:none"
       d="m 454.83053,344.53989 c -4.28541,-4.43099 -15.79832,0.8793 -12.25507,7.9658 1.25104,2.50207 4.00374,8.43577 6.74029,9.80404 3.69834,1.84918 7.35304,-4.15177 7.35304,-1.83825"
       id="path10541"
       inkscape:connector-curvature="0" />
    <path
       style="fill:none;stroke:#f4d7d7;stroke-width:3;stroke-linecap:round;stroke-linejoin:round;stroke-miterlimit:4;stroke-opacity:1;stroke-dasharray:none"
       d="m 462.52921,321.49404 c -2.96061,13.53643 -0.61276,31.87285 -0.61276,42.89274"
       id="path10543"
       inkscape:connector-curvature="0" />
    <path
       style="fill:none;stroke:#f4d7d7;stroke-width:3;stroke-linecap:round;stroke-linejoin:round;stroke-miterlimit:4;stroke-opacity:1;stroke-dasharray:none"
       d="m 472.94601,342.94041 c -4.25266,0.83315 -7.96057,4.8916 -9.80405,8.57855 -0.35328,0.70658 -2.83364,2.06839 -2.45101,2.45101 1.63822,1.63823 5.41152,-0.358 7.35304,0.61277 1.99194,0.99596 5.2421,3.40384 6.74028,4.90202 4.16981,4.1698 2.45102,7.27065 2.45102,5.51478"
       id="path10545"
       inkscape:connector-curvature="0" />
    <path
       inkscape:connector-curvature="0"
       id="path10547"
       d="m 485.27995,364.75903 c 1.04808,-0.7864 -0.47542,-2.38462 0,-3.33545 1.55654,-3.11309 5.57622,-16.13848 6.67091,-17.23318 1.21625,-1.21625 0.0917,-4.53894 1.11182,-5.55909 1.54785,-1.54786 3.89136,-6.71699 3.89136,-9.45044"
       style="fill:none;stroke:#f4d7d7;stroke-width:3;stroke-linecap:round;stroke-linejoin:round;stroke-miterlimit:4;stroke-opacity:1;stroke-dasharray:none" />
    <path
       style="fill:none;stroke:#f4d7d7;stroke-width:3;stroke-linecap:butt;stroke-linejoin:miter;stroke-miterlimit:4;stroke-opacity:1;stroke-dasharray:none"
       d="m 507.47315,318.92439 c -3.11637,0.66443 2.84793,21.21331 -1.41627,29.74172 -1.32186,2.64371 1.32186,7.2702 0,9.9139 -0.61604,1.23207 -1.96536,10.07298 -0.70814,11.33019 3.61162,3.61161 21.97946,-9.15131 17.7034,-17.70341 -2.36659,-4.73319 -15.76059,-8.86083 -13.45459,-4.24882"
       id="path3069"
       inkscape:connector-curvature="0" />
    <path
       style="fill:none;stroke:#f4d7d7;stroke-width:3;stroke-linecap:butt;stroke-linejoin:miter;stroke-miterlimit:4;stroke-opacity:1;stroke-dasharray:none"
       d="m 545.71251,345.83357 c -9.39947,-0.50114 8.08924,-0.70815 -4.95696,-0.70815 -2.29486,0 -3.82063,2.31105 -5.66509,3.54069 -7.80181,5.20121 -7.84543,14.81493 -2.1244,20.53595 0.35406,0.35407 1.77034,-0.35407 2.1244,0 4.61273,4.61273 13.17569,-7.93985 14.87086,-11.33018 2.30291,-4.60581 -2.55284,-9.21168 -4.24881,-12.03831 z"
       id="path3071"
       inkscape:connector-curvature="0" />
    <path
       style="fill:none;stroke:#f4d7d7;stroke-width:3;stroke-linecap:butt;stroke-linejoin:miter;stroke-miterlimit:4;stroke-opacity:1;stroke-dasharray:none"
       d="m 556.78298,345.12542 c -3.57735,-3.43306 -3.25443,20.55984 3.29143,24.78478 0.92968,0.60005 3.32616,0 4.38858,0 3.62648,0 7.82408,-13.08261 6.03428,-17.70341 -0.72845,-1.88067 0.14967,-4.57057 -0.54857,-6.37322 -0.36571,-0.94418 -1.91491,-2.83255 -1.09714,-2.83255 0.54857,0 0,1.41627 0,2.1244"
       id="path3073"
       inkscape:connector-curvature="0" />
    <path
       style="fill:none;stroke:#f4d7d7;stroke-width:3;stroke-linecap:butt;stroke-linejoin:miter;stroke-miterlimit:4;stroke-opacity:1;stroke-dasharray:none"
       d="m 577.03693,345.17799 c -1.39237,3.03129 -0.22807,6.18443 -0.68967,9.20717 -0.30766,2.01474 0.096,4.52409 0.43797,6.51399 0.17796,1.03537 -0.85588,2.50407 -0.5345,3.50011 0.0113,0.035 0.89084,3.71776 0.16553,3.607 -0.46669,-0.0713 0.14253,-0.93335 0.2138,-1.40004 0.32069,-2.10006 0.64139,-4.20012 0.96208,-6.30018 0.49044,-3.21162 4.21484,-20.2884 9.67267,-16.43156 7.13849,5.04451 4.03426,23.0155 6.27266,24.59728"
       id="path3075"
       inkscape:connector-curvature="0" />
    <path
       style="fill:none;stroke:#f4d7d7;stroke-width:3;stroke-linecap:butt;stroke-linejoin:miter;stroke-miterlimit:4;stroke-opacity:1;stroke-dasharray:none"
       d="m 617.9424,345.66488 c -7.67795,-0.41231 6.03236,-0.69074 -4.24882,-0.69074 -12.90563,0 -16.55725,9.14331 -11.33017,19.34058 1.7258,3.36677 5.92728,1.50934 8.49763,2.76293 2.07157,1.01034 5.00598,1.01219 7.08136,0"
       id="path3077"
       inkscape:connector-curvature="0" />
    <path
       style="fill:none;stroke:#f4d7d7;stroke-width:3;stroke-linecap:butt;stroke-linejoin:miter;stroke-miterlimit:4;stroke-opacity:1;stroke-dasharray:none"
       d="m 626.44004,344.41729 c 3.20982,7.6372 6.92591,15.97624 9.91391,21.95222"
       id="path3079"
       inkscape:connector-curvature="0" />
    <path
       style="fill:none;stroke:#f4d7d7;stroke-width:3;stroke-linecap:butt;stroke-linejoin:miter;stroke-miterlimit:4;stroke-opacity:1;stroke-dasharray:none"
       d="m 647.68412,343.00102 c -4.47974,13.90917 -26.90917,37.04478 -26.90917,46.73699"
       id="path3081"
       inkscape:connector-curvature="0" />
  </g>
</svg>
